<?xml version="1.0" encoding="utf-8" standalone="no"?>
<!DOCTYPE svg PUBLIC "-//W3C//DTD SVG 1.1//EN"
  "http://www.w3.org/Graphics/SVG/1.1/DTD/svg11.dtd">
<svg xmlns:xlink="http://www.w3.org/1999/xlink" width="460.8pt" height="345.6pt" viewBox="0 0 460.8 345.6" xmlns="http://www.w3.org/2000/svg" version="1.1">
 <metadata>
  <rdf:RDF xmlns:dc="http://purl.org/dc/elements/1.1/" xmlns:cc="http://creativecommons.org/ns#" xmlns:rdf="http://www.w3.org/1999/02/22-rdf-syntax-ns#">
   <cc:Work>
    <dc:type rdf:resource="http://purl.org/dc/dcmitype/StillImage"/>
    <dc:date>2022-01-15T16:13:31.464031</dc:date>
    <dc:format>image/svg+xml</dc:format>
    <dc:creator>
     <cc:Agent>
      <dc:title>Matplotlib v3.5.1, https://matplotlib.org/</dc:title>
     </cc:Agent>
    </dc:creator>
   </cc:Work>
  </rdf:RDF>
 </metadata>
 <defs>
  <style type="text/css">*{stroke-linejoin: round; stroke-linecap: butt}</style>
 </defs>
 <g id="figure_1">
  <g id="patch_1">
   <path d="M 0 345.6 
L 460.8 345.6 
L 460.8 0 
L 0 0 
z
" style="fill: #ffffff"/>
  </g>
  <g id="axes_1">
   <g id="patch_2">
    <path d="M 58.945313 168.517812 
L 450 168.517812 
L 450 48.331875 
L 58.945313 48.331875 
z
" style="fill: #ffffff"/>
   </g>
   <g id="matplotlib.axis_1">
    <g id="xtick_1">
     <g id="line2d_1">
      <path d="M 76.720526 168.517812 
L 76.720526 48.331875 
" clip-path="url(#p30b899a635)" style="fill: none; stroke: #b0b0b0; stroke-width: 0.8; stroke-linecap: square"/>
     </g>
     <g id="line2d_2">
      <defs>
       <path id="m36487ab356" d="M 0 0 
L 0 3.5 
" style="stroke: #000000; stroke-width: 0.8"/>
      </defs>
      <g>
       <use xlink:href="#m36487ab356" x="76.720526" y="168.517812" style="stroke: #000000; stroke-width: 0.8"/>
      </g>
     </g>
    </g>
    <g id="xtick_2">
     <g id="line2d_3">
      <path d="M 142.554648 168.517812 
L 142.554648 48.331875 
" clip-path="url(#p30b899a635)" style="fill: none; stroke: #b0b0b0; stroke-width: 0.8; stroke-linecap: square"/>
     </g>
     <g id="line2d_4">
      <g>
       <use xlink:href="#m36487ab356" x="142.554648" y="168.517812" style="stroke: #000000; stroke-width: 0.8"/>
      </g>
     </g>
    </g>
    <g id="xtick_3">
     <g id="line2d_5">
      <path d="M 208.388771 168.517812 
L 208.388771 48.331875 
" clip-path="url(#p30b899a635)" style="fill: none; stroke: #b0b0b0; stroke-width: 0.8; stroke-linecap: square"/>
     </g>
     <g id="line2d_6">
      <g>
       <use xlink:href="#m36487ab356" x="208.388771" y="168.517812" style="stroke: #000000; stroke-width: 0.8"/>
      </g>
     </g>
    </g>
    <g id="xtick_4">
     <g id="line2d_7">
      <path d="M 274.222893 168.517812 
L 274.222893 48.331875 
" clip-path="url(#p30b899a635)" style="fill: none; stroke: #b0b0b0; stroke-width: 0.8; stroke-linecap: square"/>
     </g>
     <g id="line2d_8">
      <g>
       <use xlink:href="#m36487ab356" x="274.222893" y="168.517812" style="stroke: #000000; stroke-width: 0.8"/>
      </g>
     </g>
    </g>
    <g id="xtick_5">
     <g id="line2d_9">
      <path d="M 340.057015 168.517812 
L 340.057015 48.331875 
" clip-path="url(#p30b899a635)" style="fill: none; stroke: #b0b0b0; stroke-width: 0.8; stroke-linecap: square"/>
     </g>
     <g id="line2d_10">
      <g>
       <use xlink:href="#m36487ab356" x="340.057015" y="168.517812" style="stroke: #000000; stroke-width: 0.8"/>
      </g>
     </g>
    </g>
    <g id="xtick_6">
     <g id="line2d_11">
      <path d="M 405.891138 168.517812 
L 405.891138 48.331875 
" clip-path="url(#p30b899a635)" style="fill: none; stroke: #b0b0b0; stroke-width: 0.8; stroke-linecap: square"/>
     </g>
     <g id="line2d_12">
      <g>
       <use xlink:href="#m36487ab356" x="405.891138" y="168.517812" style="stroke: #000000; stroke-width: 0.8"/>
      </g>
     </g>
    </g>
   </g>
   <g id="matplotlib.axis_2">
    <g id="ytick_1">
     <g id="line2d_13">
      <path d="M 58.945313 163.168746 
L 450 163.168746 
" clip-path="url(#p30b899a635)" style="fill: none; stroke: #b0b0b0; stroke-width: 0.8; stroke-linecap: square"/>
     </g>
     <g id="line2d_14">
      <defs>
       <path id="m0fdbd367e7" d="M 0 0 
L -3.5 0 
" style="stroke: #000000; stroke-width: 0.8"/>
      </defs>
      <g>
       <use xlink:href="#m0fdbd367e7" x="58.945313" y="163.168746" style="stroke: #000000; stroke-width: 0.8"/>
      </g>
     </g>
     <g id="text_1">
      <!-- 0 -->
      <g transform="translate(45.582813 166.967965)scale(0.1 -0.1)">
       <defs>
        <path id="DejaVuSans-30" d="M 2034 4250 
Q 1547 4250 1301 3770 
Q 1056 3291 1056 2328 
Q 1056 1369 1301 889 
Q 1547 409 2034 409 
Q 2525 409 2770 889 
Q 3016 1369 3016 2328 
Q 3016 3291 2770 3770 
Q 2525 4250 2034 4250 
z
M 2034 4750 
Q 2819 4750 3233 4129 
Q 3647 3509 3647 2328 
Q 3647 1150 3233 529 
Q 2819 -91 2034 -91 
Q 1250 -91 836 529 
Q 422 1150 422 2328 
Q 422 3509 836 4129 
Q 1250 4750 2034 4750 
z
" transform="scale(0.015625)"/>
       </defs>
       <use xlink:href="#DejaVuSans-30"/>
      </g>
     </g>
    </g>
    <g id="ytick_2">
     <g id="line2d_15">
      <path d="M 58.945313 140.382523 
L 450 140.382523 
" clip-path="url(#p30b899a635)" style="fill: none; stroke: #b0b0b0; stroke-width: 0.8; stroke-linecap: square"/>
     </g>
     <g id="line2d_16">
      <g>
       <use xlink:href="#m0fdbd367e7" x="58.945313" y="140.382523" style="stroke: #000000; stroke-width: 0.8"/>
      </g>
     </g>
     <g id="text_2">
      <!-- 200 -->
      <g transform="translate(32.857813 144.181741)scale(0.1 -0.1)">
       <defs>
        <path id="DejaVuSans-32" d="M 1228 531 
L 3431 531 
L 3431 0 
L 469 0 
L 469 531 
Q 828 903 1448 1529 
Q 2069 2156 2228 2338 
Q 2531 2678 2651 2914 
Q 2772 3150 2772 3378 
Q 2772 3750 2511 3984 
Q 2250 4219 1831 4219 
Q 1534 4219 1204 4116 
Q 875 4013 500 3803 
L 500 4441 
Q 881 4594 1212 4672 
Q 1544 4750 1819 4750 
Q 2544 4750 2975 4387 
Q 3406 4025 3406 3419 
Q 3406 3131 3298 2873 
Q 3191 2616 2906 2266 
Q 2828 2175 2409 1742 
Q 1991 1309 1228 531 
z
" transform="scale(0.015625)"/>
       </defs>
       <use xlink:href="#DejaVuSans-32"/>
       <use xlink:href="#DejaVuSans-30" x="63.623047"/>
       <use xlink:href="#DejaVuSans-30" x="127.246094"/>
      </g>
     </g>
    </g>
    <g id="ytick_3">
     <g id="line2d_17">
      <path d="M 58.945313 117.596299 
L 450 117.596299 
" clip-path="url(#p30b899a635)" style="fill: none; stroke: #b0b0b0; stroke-width: 0.8; stroke-linecap: square"/>
     </g>
     <g id="line2d_18">
      <g>
       <use xlink:href="#m0fdbd367e7" x="58.945313" y="117.596299" style="stroke: #000000; stroke-width: 0.8"/>
      </g>
     </g>
     <g id="text_3">
      <!-- 400 -->
      <g transform="translate(32.857813 121.395518)scale(0.1 -0.1)">
       <defs>
        <path id="DejaVuSans-34" d="M 2419 4116 
L 825 1625 
L 2419 1625 
L 2419 4116 
z
M 2253 4666 
L 3047 4666 
L 3047 1625 
L 3713 1625 
L 3713 1100 
L 3047 1100 
L 3047 0 
L 2419 0 
L 2419 1100 
L 313 1100 
L 313 1709 
L 2253 4666 
z
" transform="scale(0.015625)"/>
       </defs>
       <use xlink:href="#DejaVuSans-34"/>
       <use xlink:href="#DejaVuSans-30" x="63.623047"/>
       <use xlink:href="#DejaVuSans-30" x="127.246094"/>
      </g>
     </g>
    </g>
    <g id="ytick_4">
     <g id="line2d_19">
      <path d="M 58.945313 94.810075 
L 450 94.810075 
" clip-path="url(#p30b899a635)" style="fill: none; stroke: #b0b0b0; stroke-width: 0.8; stroke-linecap: square"/>
     </g>
     <g id="line2d_20">
      <g>
       <use xlink:href="#m0fdbd367e7" x="58.945313" y="94.810075" style="stroke: #000000; stroke-width: 0.8"/>
      </g>
     </g>
     <g id="text_4">
      <!-- 600 -->
      <g transform="translate(32.857813 98.609294)scale(0.1 -0.1)">
       <defs>
        <path id="DejaVuSans-36" d="M 2113 2584 
Q 1688 2584 1439 2293 
Q 1191 2003 1191 1497 
Q 1191 994 1439 701 
Q 1688 409 2113 409 
Q 2538 409 2786 701 
Q 3034 994 3034 1497 
Q 3034 2003 2786 2293 
Q 2538 2584 2113 2584 
z
M 3366 4563 
L 3366 3988 
Q 3128 4100 2886 4159 
Q 2644 4219 2406 4219 
Q 1781 4219 1451 3797 
Q 1122 3375 1075 2522 
Q 1259 2794 1537 2939 
Q 1816 3084 2150 3084 
Q 2853 3084 3261 2657 
Q 3669 2231 3669 1497 
Q 3669 778 3244 343 
Q 2819 -91 2113 -91 
Q 1303 -91 875 529 
Q 447 1150 447 2328 
Q 447 3434 972 4092 
Q 1497 4750 2381 4750 
Q 2619 4750 2861 4703 
Q 3103 4656 3366 4563 
z
" transform="scale(0.015625)"/>
       </defs>
       <use xlink:href="#DejaVuSans-36"/>
       <use xlink:href="#DejaVuSans-30" x="63.623047"/>
       <use xlink:href="#DejaVuSans-30" x="127.246094"/>
      </g>
     </g>
    </g>
    <g id="ytick_5">
     <g id="line2d_21">
      <path d="M 58.945313 72.023851 
L 450 72.023851 
" clip-path="url(#p30b899a635)" style="fill: none; stroke: #b0b0b0; stroke-width: 0.8; stroke-linecap: square"/>
     </g>
     <g id="line2d_22">
      <g>
       <use xlink:href="#m0fdbd367e7" x="58.945313" y="72.023851" style="stroke: #000000; stroke-width: 0.8"/>
      </g>
     </g>
     <g id="text_5">
      <!-- 800 -->
      <g transform="translate(32.857813 75.82307)scale(0.1 -0.1)">
       <defs>
        <path id="DejaVuSans-38" d="M 2034 2216 
Q 1584 2216 1326 1975 
Q 1069 1734 1069 1313 
Q 1069 891 1326 650 
Q 1584 409 2034 409 
Q 2484 409 2743 651 
Q 3003 894 3003 1313 
Q 3003 1734 2745 1975 
Q 2488 2216 2034 2216 
z
M 1403 2484 
Q 997 2584 770 2862 
Q 544 3141 544 3541 
Q 544 4100 942 4425 
Q 1341 4750 2034 4750 
Q 2731 4750 3128 4425 
Q 3525 4100 3525 3541 
Q 3525 3141 3298 2862 
Q 3072 2584 2669 2484 
Q 3125 2378 3379 2068 
Q 3634 1759 3634 1313 
Q 3634 634 3220 271 
Q 2806 -91 2034 -91 
Q 1263 -91 848 271 
Q 434 634 434 1313 
Q 434 1759 690 2068 
Q 947 2378 1403 2484 
z
M 1172 3481 
Q 1172 3119 1398 2916 
Q 1625 2713 2034 2713 
Q 2441 2713 2670 2916 
Q 2900 3119 2900 3481 
Q 2900 3844 2670 4047 
Q 2441 4250 2034 4250 
Q 1625 4250 1398 4047 
Q 1172 3844 1172 3481 
z
" transform="scale(0.015625)"/>
       </defs>
       <use xlink:href="#DejaVuSans-38"/>
       <use xlink:href="#DejaVuSans-30" x="63.623047"/>
       <use xlink:href="#DejaVuSans-30" x="127.246094"/>
      </g>
     </g>
    </g>
    <g id="ytick_6">
     <g id="line2d_23">
      <path d="M 58.945313 49.237627 
L 450 49.237627 
" clip-path="url(#p30b899a635)" style="fill: none; stroke: #b0b0b0; stroke-width: 0.8; stroke-linecap: square"/>
     </g>
     <g id="line2d_24">
      <g>
       <use xlink:href="#m0fdbd367e7" x="58.945313" y="49.237627" style="stroke: #000000; stroke-width: 0.8"/>
      </g>
     </g>
     <g id="text_6">
      <!-- 1000 -->
      <g transform="translate(26.495313 53.036846)scale(0.1 -0.1)">
       <defs>
        <path id="DejaVuSans-31" d="M 794 531 
L 1825 531 
L 1825 4091 
L 703 3866 
L 703 4441 
L 1819 4666 
L 2450 4666 
L 2450 531 
L 3481 531 
L 3481 0 
L 794 0 
L 794 531 
z
" transform="scale(0.015625)"/>
       </defs>
       <use xlink:href="#DejaVuSans-31"/>
       <use xlink:href="#DejaVuSans-30" x="63.623047"/>
       <use xlink:href="#DejaVuSans-30" x="127.246094"/>
       <use xlink:href="#DejaVuSans-30" x="190.869141"/>
      </g>
     </g>
    </g>
    <g id="text_7">
     <!-- reflector value -->
     <g transform="translate(20.415625 144.74125)rotate(-90)scale(0.1 -0.1)">
      <defs>
       <path id="DejaVuSans-72" d="M 2631 2963 
Q 2534 3019 2420 3045 
Q 2306 3072 2169 3072 
Q 1681 3072 1420 2755 
Q 1159 2438 1159 1844 
L 1159 0 
L 581 0 
L 581 3500 
L 1159 3500 
L 1159 2956 
Q 1341 3275 1631 3429 
Q 1922 3584 2338 3584 
Q 2397 3584 2469 3576 
Q 2541 3569 2628 3553 
L 2631 2963 
z
" transform="scale(0.015625)"/>
       <path id="DejaVuSans-65" d="M 3597 1894 
L 3597 1613 
L 953 1613 
Q 991 1019 1311 708 
Q 1631 397 2203 397 
Q 2534 397 2845 478 
Q 3156 559 3463 722 
L 3463 178 
Q 3153 47 2828 -22 
Q 2503 -91 2169 -91 
Q 1331 -91 842 396 
Q 353 884 353 1716 
Q 353 2575 817 3079 
Q 1281 3584 2069 3584 
Q 2775 3584 3186 3129 
Q 3597 2675 3597 1894 
z
M 3022 2063 
Q 3016 2534 2758 2815 
Q 2500 3097 2075 3097 
Q 1594 3097 1305 2825 
Q 1016 2553 972 2059 
L 3022 2063 
z
" transform="scale(0.015625)"/>
       <path id="DejaVuSans-66" d="M 2375 4863 
L 2375 4384 
L 1825 4384 
Q 1516 4384 1395 4259 
Q 1275 4134 1275 3809 
L 1275 3500 
L 2222 3500 
L 2222 3053 
L 1275 3053 
L 1275 0 
L 697 0 
L 697 3053 
L 147 3053 
L 147 3500 
L 697 3500 
L 697 3744 
Q 697 4328 969 4595 
Q 1241 4863 1831 4863 
L 2375 4863 
z
" transform="scale(0.015625)"/>
       <path id="DejaVuSans-6c" d="M 603 4863 
L 1178 4863 
L 1178 0 
L 603 0 
L 603 4863 
z
" transform="scale(0.015625)"/>
       <path id="DejaVuSans-63" d="M 3122 3366 
L 3122 2828 
Q 2878 2963 2633 3030 
Q 2388 3097 2138 3097 
Q 1578 3097 1268 2742 
Q 959 2388 959 1747 
Q 959 1106 1268 751 
Q 1578 397 2138 397 
Q 2388 397 2633 464 
Q 2878 531 3122 666 
L 3122 134 
Q 2881 22 2623 -34 
Q 2366 -91 2075 -91 
Q 1284 -91 818 406 
Q 353 903 353 1747 
Q 353 2603 823 3093 
Q 1294 3584 2113 3584 
Q 2378 3584 2631 3529 
Q 2884 3475 3122 3366 
z
" transform="scale(0.015625)"/>
       <path id="DejaVuSans-74" d="M 1172 4494 
L 1172 3500 
L 2356 3500 
L 2356 3053 
L 1172 3053 
L 1172 1153 
Q 1172 725 1289 603 
Q 1406 481 1766 481 
L 2356 481 
L 2356 0 
L 1766 0 
Q 1100 0 847 248 
Q 594 497 594 1153 
L 594 3053 
L 172 3053 
L 172 3500 
L 594 3500 
L 594 4494 
L 1172 4494 
z
" transform="scale(0.015625)"/>
       <path id="DejaVuSans-6f" d="M 1959 3097 
Q 1497 3097 1228 2736 
Q 959 2375 959 1747 
Q 959 1119 1226 758 
Q 1494 397 1959 397 
Q 2419 397 2687 759 
Q 2956 1122 2956 1747 
Q 2956 2369 2687 2733 
Q 2419 3097 1959 3097 
z
M 1959 3584 
Q 2709 3584 3137 3096 
Q 3566 2609 3566 1747 
Q 3566 888 3137 398 
Q 2709 -91 1959 -91 
Q 1206 -91 779 398 
Q 353 888 353 1747 
Q 353 2609 779 3096 
Q 1206 3584 1959 3584 
z
" transform="scale(0.015625)"/>
       <path id="DejaVuSans-20" transform="scale(0.015625)"/>
       <path id="DejaVuSans-76" d="M 191 3500 
L 800 3500 
L 1894 563 
L 2988 3500 
L 3597 3500 
L 2284 0 
L 1503 0 
L 191 3500 
z
" transform="scale(0.015625)"/>
       <path id="DejaVuSans-61" d="M 2194 1759 
Q 1497 1759 1228 1600 
Q 959 1441 959 1056 
Q 959 750 1161 570 
Q 1363 391 1709 391 
Q 2188 391 2477 730 
Q 2766 1069 2766 1631 
L 2766 1759 
L 2194 1759 
z
M 3341 1997 
L 3341 0 
L 2766 0 
L 2766 531 
Q 2569 213 2275 61 
Q 1981 -91 1556 -91 
Q 1019 -91 701 211 
Q 384 513 384 1019 
Q 384 1609 779 1909 
Q 1175 2209 1959 2209 
L 2766 2209 
L 2766 2266 
Q 2766 2663 2505 2880 
Q 2244 3097 1772 3097 
Q 1472 3097 1187 3025 
Q 903 2953 641 2809 
L 641 3341 
Q 956 3463 1253 3523 
Q 1550 3584 1831 3584 
Q 2591 3584 2966 3190 
Q 3341 2797 3341 1997 
z
" transform="scale(0.015625)"/>
       <path id="DejaVuSans-75" d="M 544 1381 
L 544 3500 
L 1119 3500 
L 1119 1403 
Q 1119 906 1312 657 
Q 1506 409 1894 409 
Q 2359 409 2629 706 
Q 2900 1003 2900 1516 
L 2900 3500 
L 3475 3500 
L 3475 0 
L 2900 0 
L 2900 538 
Q 2691 219 2414 64 
Q 2138 -91 1772 -91 
Q 1169 -91 856 284 
Q 544 659 544 1381 
z
M 1991 3584 
L 1991 3584 
z
" transform="scale(0.015625)"/>
      </defs>
      <use xlink:href="#DejaVuSans-72"/>
      <use xlink:href="#DejaVuSans-65" x="38.863281"/>
      <use xlink:href="#DejaVuSans-66" x="100.386719"/>
      <use xlink:href="#DejaVuSans-6c" x="135.591797"/>
      <use xlink:href="#DejaVuSans-65" x="163.375"/>
      <use xlink:href="#DejaVuSans-63" x="224.898438"/>
      <use xlink:href="#DejaVuSans-74" x="279.878906"/>
      <use xlink:href="#DejaVuSans-6f" x="319.087891"/>
      <use xlink:href="#DejaVuSans-72" x="380.269531"/>
      <use xlink:href="#DejaVuSans-20" x="421.382812"/>
      <use xlink:href="#DejaVuSans-76" x="453.169922"/>
      <use xlink:href="#DejaVuSans-61" x="512.349609"/>
      <use xlink:href="#DejaVuSans-6c" x="573.628906"/>
      <use xlink:href="#DejaVuSans-75" x="601.412109"/>
      <use xlink:href="#DejaVuSans-65" x="664.791016"/>
     </g>
    </g>
   </g>
   <g id="line2d_25">
    <path d="M 76.720526 77.492545 
L 76.720578 77.492545 
L 76.811535 76.922889 
L 76.865097 76.922889 
L 77.141864 77.492545 
L 77.208225 77.492545 
L 77.543452 77.150752 
L 77.876704 76.922889 
L 78.290011 77.150752 
L 78.446696 77.03682 
L 78.978636 77.378614 
L 79.177455 77.720407 
L 79.845013 78.176132 
L 80.899676 79.543305 
L 81.191979 79.771167 
L 82.483645 82.619445 
L 82.836516 83.07517 
L 84.365184 85.809517 
L 85.201277 86.720966 
L 86.083454 87.974208 
L 87.991327 90.25283 
L 88.49825 90.480692 
L 89.017023 90.936417 
L 91.204033 91.847866 
L 91.783373 91.847866 
L 92.37588 91.620004 
L 92.981554 91.620004 
L 93.587228 91.392141 
L 94.206068 91.27821 
L 94.838076 90.936417 
L 95.48325 90.822486 
L 96.128425 90.480692 
L 98.142949 90.024968 
L 99.512299 89.569244 
L 100.223307 89.569244 
L 101.645324 89.22745 
L 103.093675 88.885657 
L 104.568359 88.657795 
L 105.318868 88.657795 
L 106.069377 88.543863 
L 106.819886 88.543863 
L 107.583562 88.429932 
L 108.347238 88.20207 
L 110.664599 87.974208 
L 111.441442 88.088139 
L 112.218284 87.974208 
L 113.008294 87.974208 
L 114.575146 88.316001 
L 116.945174 88.316001 
L 118.525193 88.088139 
L 119.315203 88.088139 
L 120.105212 87.974208 
L 120.895222 87.974208 
L 121.685231 87.860277 
L 122.475241 87.974208 
L 123.26525 87.974208 
L 126.425288 88.999588 
L 127.215298 89.455312 
L 129.585326 92.30359 
L 131.165345 94.810075 
L 132.745364 98.228009 
L 134.325383 102.557391 
L 135.905402 108.367878 
L 137.485421 116.115194 
L 139.06544 125.229684 
L 143.015487 150.29453 
L 143.805496 154.168188 
L 144.595506 157.244328 
L 145.385515 159.750813 
L 146.175525 161.573711 
L 146.965534 162.713022 
L 147.755544 163.054815 
L 236.302438 163.054815 
L 237.092448 162.940884 
L 237.882457 162.48516 
L 239.462476 160.548331 
L 240.252486 159.067226 
L 241.042495 157.016466 
L 241.832505 154.623913 
L 244.202533 145.851216 
L 246.572562 135.939209 
L 249.732599 122.267475 
L 251.312618 116.001263 
L 252.892637 110.418638 
L 253.550979 108.481809 
L 255.130997 105.291738 
L 256.711016 103.127047 
L 258.291035 101.759873 
L 259.081045 101.41808 
L 260.661064 100.3927 
L 262.241083 99.823044 
L 263.821102 99.36732 
L 269.351168 100.848424 
L 270.141177 100.734493 
L 271.721196 100.164838 
L 273.301215 99.36732 
L 274.091225 99.139458 
L 274.881234 98.683733 
L 278.831282 99.709113 
L 279.621291 99.709113 
L 281.20131 99.481251 
L 282.781329 98.911595 
L 284.361348 98.34194 
L 285.151357 98.34194 
L 288.311395 99.823044 
L 289.101405 100.278769 
L 289.891414 100.3927 
L 290.681424 100.3927 
L 291.471433 100.278769 
L 294.631471 99.481251 
L 295.42148 99.709113 
L 299.371528 102.101667 
L 300.161537 102.215598 
L 300.951547 102.44346 
L 302.531566 101.873804 
L 304.901594 101.076287 
L 305.691604 101.190218 
L 308.851641 102.899184 
L 310.43166 102.899184 
L 311.22167 103.013116 
L 313.591698 101.759873 
L 315.171717 101.759873 
L 315.961727 102.329529 
L 316.751736 102.671322 
L 318.331755 103.696702 
L 319.121765 103.696702 
L 319.911774 103.582771 
L 320.701783 103.354909 
L 321.491793 102.899184 
L 322.281802 102.215598 
L 323.861821 101.645942 
L 324.651831 101.645942 
L 327.811869 103.582771 
L 328.601878 103.582771 
L 329.391888 103.46884 
L 330.971907 102.44346 
L 332.551926 101.304149 
L 334.131944 101.076287 
L 337.291982 102.899184 
L 338.081992 102.899184 
L 338.872001 103.013116 
L 340.45202 101.987736 
L 341.24203 101.645942 
L 342.032039 101.076287 
L 342.822049 101.190218 
L 343.612058 101.532011 
L 345.192077 102.899184 
L 345.982086 103.810633 
L 346.772096 104.49422 
L 347.562105 104.49422 
L 348.352115 104.608151 
L 349.932134 103.582771 
L 350.722143 103.013116 
L 351.512153 102.671322 
L 352.302162 102.785253 
L 353.092172 103.013116 
L 355.4622 106.089256 
L 357.832229 107.912154 
L 358.622238 108.026085 
L 359.412247 108.253947 
L 360.202257 109.051465 
L 361.782276 111.55795 
L 363.362295 115.887332 
L 364.152304 118.279886 
L 364.942314 120.102783 
L 365.732323 122.267475 
L 368.102352 127.622237 
L 369.682371 133.432724 
L 370.47238 136.622796 
L 372.842408 148.699494 
L 374.422427 154.851775 
L 375.212437 157.016466 
L 376.002446 158.839364 
L 376.792456 160.206537 
L 377.582465 161.117986 
L 378.372475 161.687642 
L 379.162484 161.915504 
L 379.952494 162.599091 
L 380.742503 162.940884 
L 381.532513 163.054815 
L 428.538076 163.054815 
L 429.986427 161.915504 
L 430.249763 161.915504 
L 430.908104 162.371229 
L 431.434777 161.573711 
L 431.434777 161.573711 
L 431.566446 161.573711 
L 431.698114 161.801573 
L 431.698114 162.143366 
L 431.829782 162.143366 
L 431.829782 162.029435 
L 431.96145 161.801573 
L 431.96145 161.345849 
L 431.96145 161.345849 
L 432.093119 161.345849 
L 432.093119 161.345849 
L 432.093119 162.257298 
L 432.224787 162.257298 
L 432.224787 162.257298 
L 432.224787 160.662262 
L 432.224787 162.029435 
" clip-path="url(#p30b899a635)" style="fill: none; stroke: #1f77b4; stroke-width: 2; stroke-linecap: square"/>
   </g>
   <g id="line2d_26">
    <path d="M 76.720526 163.054815 
L 350.722143 163.054815 
L 351.512153 162.940884 
L 355.4622 162.940884 
L 356.25221 162.826953 
L 360.992266 161.573711 
L 361.782276 161.573711 
L 362.572285 161.687642 
L 364.152304 162.143366 
L 365.732323 161.573711 
L 366.522333 161.345849 
L 368.892361 159.295088 
L 370.47238 159.295088 
L 371.26239 159.978675 
L 372.052399 160.4344 
L 372.842408 161.117986 
L 375.212437 160.206537 
L 376.792456 158.041846 
L 377.582465 157.472191 
L 379.162484 157.472191 
L 380.742503 159.295088 
L 381.532513 160.4344 
L 382.322522 159.864744 
L 383.112532 159.522951 
L 383.902541 158.611502 
L 385.48256 155.535361 
L 387.852588 155.535361 
L 388.642598 156.902535 
L 390.222617 159.978675 
L 391.802636 159.067226 
L 394.172664 152.573152 
L 394.962674 152.459221 
L 396.542693 152.459221 
L 398.912721 158.383639 
L 400.49274 157.130397 
L 401.282749 154.282119 
L 401.941091 151.31991 
L 402.7311 148.357701 
L 403.52111 147.901977 
L 404.311119 147.674114 
L 404.96946 147.332321 
L 405.75947 149.497012 
L 406.417811 151.775635 
L 407.20782 154.054257 
L 408.656171 152.459221 
L 410.631195 142.091489 
L 412.737887 140.610385 
L 414.054569 145.509423 
L 414.581242 144.711905 
L 415.239583 144.14225 
L 415.897925 143.002938 
L 416.424598 139.12928 
L 417.082939 135.255622 
L 417.609612 134.572036 
L 418.794626 133.432724 
L 419.847972 138.673556 
L 420.374645 138.1039 
L 421.427991 137.306382 
L 421.822996 133.432724 
L 422.349669 129.445135 
L 423.666351 127.622237 
L 424.45636 133.090931 
L 424.851365 132.407344 
L 425.641375 131.381964 
L 426.431384 123.976442 
L 427.089725 122.83713 
L 427.353062 120.330646 
L 427.748067 121.242095 
L 428.538076 129.217273 
L 428.801413 128.761549 
L 429.72309 117.71023 
L 430.118095 116.912712 
L 430.249763 116.456988 
L 430.644768 121.81175 
L 430.776436 121.356026 
L 430.908104 120.672439 
L 431.039773 120.78637 
L 431.303109 113.60871 
L 431.566446 112.925123 
L 431.698114 116.115194 
L 431.698114 119.419197 
L 431.829782 118.621679 
L 431.829782 117.938092 
L 431.96145 118.052023 
L 431.96145 110.646501 
L 432.093119 110.190776 
L 432.093119 109.962914 
L 432.093119 117.026643 
L 432.224787 116.343057 
L 432.224787 116.570919 
L 432.224787 105.975325 
L 432.224787 113.722641 
" clip-path="url(#p30b899a635)" style="fill: none; stroke: #ff7f0e; stroke-width: 2; stroke-linecap: square"/>
   </g>
   <g id="line2d_27">
    <path d="M 76.720526 163.054815 
L 365.732323 163.054815 
L 367.312342 162.826953 
L 368.102352 162.599091 
L 371.26239 162.599091 
L 372.842408 162.826953 
L 374.422427 162.143366 
L 376.792456 160.320468 
L 379.162484 160.320468 
L 381.532513 161.801573 
L 383.112532 160.890124 
L 385.48256 157.700053 
L 387.852588 157.700053 
L 390.222617 160.890124 
L 391.802636 159.864744 
L 394.172664 154.168188 
L 396.542693 154.168188 
L 398.912721 158.953295 
L 400.49274 157.927915 
L 401.282749 155.42143 
L 401.941091 152.687084 
L 402.7311 150.29453 
L 404.96946 149.383081 
L 405.75947 151.092048 
L 407.20782 154.851775 
L 407.866162 154.282119 
L 408.656171 153.256739 
L 410.631195 144.14225 
L 412.079545 143.002938 
L 412.737887 142.433283 
L 414.054569 146.306941 
L 414.581242 145.509423 
L 415.239583 144.825836 
L 415.897925 143.800456 
L 416.424598 140.268592 
L 417.082939 139.015349 
L 418.794626 137.192451 
L 419.847972 141.521834 
L 420.374645 140.724316 
L 420.901318 140.268592 
L 421.427991 137.192451 
L 421.822996 133.432724 
L 422.744673 131.609826 
L 423.271346 131.040171 
L 423.666351 130.356584 
L 424.45636 134.799898 
L 425.24637 133.318793 
L 426.036379 126.255064 
L 426.694721 124.660028 
L 427.089725 123.976442 
L 427.353062 122.381406 
L 427.748067 122.381406 
L 428.538076 130.128722 
L 429.459754 116.343057 
L 429.72309 117.824161 
L 429.986427 117.482368 
L 430.249763 116.229125 
L 430.644768 121.925681 
L 430.776436 121.356026 
L 430.908104 120.558508 
L 431.303109 112.925123 
L 431.434777 112.58333 
L 431.434777 112.127605 
L 431.566446 111.671881 
L 431.698114 114.748021 
L 431.698114 118.165954 
L 431.829782 117.824161 
L 431.829782 117.482368 
L 431.96145 114.178365 
L 431.96145 110.304707 
L 432.093119 110.304707 
L 432.093119 109.735052 
L 432.093119 116.001263 
L 432.224787 115.65947 
L 432.224787 106.317118 
L 432.224787 113.494779 
" clip-path="url(#p30b899a635)" style="fill: none; stroke: #2ca02c; stroke-width: 2; stroke-linecap: square"/>
   </g>
   <g id="line2d_28">
    <path d="M 76.720526 103.582771 
L 76.720578 103.582771 
L 76.811535 102.671322 
L 77.081823 103.810633 
L 77.141864 103.696702 
L 77.208225 103.810633 
L 77.876704 102.899184 
L 78.005081 102.785253 
L 78.290011 102.899184 
L 78.978636 102.44346 
L 79.388124 102.671322 
L 80.089916 102.671322 
L 80.617906 102.329529 
L 80.899676 102.101667 
L 81.497449 101.076287 
L 82.143941 99.936975 
L 83.201237 98.683733 
L 84.365184 97.31656 
L 86.083454 95.949386 
L 87.014349 95.607593 
L 87.496255 95.379731 
L 87.991327 95.379731 
L 90.084852 94.012557 
L 91.204033 92.987177 
L 91.783373 92.759315 
L 92.37588 92.30359 
L 93.587228 92.075728 
L 95.48325 92.075728 
L 96.786766 92.30359 
L 97.458274 92.759315 
L 98.142949 93.442902 
L 99.512299 94.240419 
L 100.223307 94.582213 
L 102.3695 94.582213 
L 103.831017 94.012557 
L 104.568359 93.670764 
L 105.318868 93.556833 
L 106.069377 93.556833 
L 111.441442 94.354351 
L 113.008294 95.151868 
L 114.575146 95.721524 
L 115.365155 95.835455 
L 116.155165 95.835455 
L 116.945174 96.063317 
L 118.525193 95.835455 
L 119.315203 95.493662 
L 120.895222 95.265799 
L 121.685231 95.265799 
L 123.26525 95.493662 
L 125.635279 96.063317 
L 126.425288 96.177248 
L 128.005307 97.430491 
L 130.375335 99.139458 
L 131.165345 99.481251 
L 131.955354 100.050906 
L 132.745364 100.848424 
L 134.325383 101.987736 
L 135.905402 104.152427 
L 136.695411 105.5196 
L 137.485421 107.228567 
L 139.06544 111.330087 
L 140.645458 116.456988 
L 142.225477 122.495337 
L 143.805496 129.559066 
L 148.545553 153.484601 
L 149.335563 156.44681 
L 150.125572 158.953295 
L 150.915582 160.662262 
L 151.705591 161.801573 
L 152.495601 162.713022 
L 153.28561 163.054815 
L 243.412524 163.054815 
L 244.202533 162.940884 
L 245.782552 162.143366 
L 246.572562 161.45978 
L 247.362571 160.320468 
L 248.94259 157.244328 
L 249.732599 155.42143 
L 251.312618 150.978117 
L 252.892637 145.965147 
L 253.550979 143.572594 
L 255.921007 137.192451 
L 256.711016 135.483485 
L 258.291035 132.863069 
L 259.081045 132.065551 
L 259.871054 131.723758 
L 260.661064 131.837689 
L 261.451073 132.863069 
L 262.241083 134.344173 
L 263.031092 136.508865 
L 263.821102 139.243211 
L 266.98114 154.39605 
L 267.771149 157.244328 
L 268.561158 159.636882 
L 269.351168 161.45978 
L 270.141177 162.713022 
L 270.931187 163.054815 
L 364.152304 163.054815 
L 364.942314 162.371229 
L 365.732323 161.345849 
L 366.522333 159.864744 
L 367.312342 157.813984 
L 368.892361 152.459221 
L 369.682371 149.383081 
L 371.26239 141.749696 
L 372.842408 132.977 
L 374.422427 121.583888 
L 377.582465 97.202629 
L 379.162484 88.657795 
L 379.952494 86.265241 
L 380.742503 84.442343 
L 381.532513 83.189101 
L 382.322522 81.594065 
L 383.902541 79.201512 
L 385.48256 76.581096 
L 386.272569 76.125371 
L 387.852588 75.897509 
L 389.432607 77.264683 
L 390.222617 77.720407 
L 391.012626 77.03682 
L 391.802636 76.581096 
L 392.592645 75.213923 
L 394.172664 71.90992 
L 395.752683 70.88454 
L 396.542693 70.656678 
L 398.912721 73.391025 
L 399.70273 72.821369 
L 400.49274 72.593507 
L 401.282749 71.340264 
L 402.7311 68.150193 
L 404.311119 67.352675 
L 404.96946 67.124813 
L 407.20782 70.087022 
L 407.866162 69.973091 
L 408.656171 69.631298 
L 409.972854 65.985502 
L 410.631195 64.048673 
L 411.421204 63.820811 
L 412.079545 63.365086 
L 412.737887 63.137224 
L 413.396228 64.048673 
L 414.054569 65.301915 
L 414.581242 64.960122 
L 415.897925 64.504397 
L 416.424598 62.681499 
L 417.082939 60.858602 
L 417.609612 60.858602 
L 418.267953 60.74467 
L 418.794626 60.972533 
L 419.321299 62.795431 
L 419.847972 65.074053 
L 421.427991 64.390466 
L 422.349669 60.288946 
L 423.271346 59.947153 
L 423.666351 59.149635 
L 424.45636 62.909362 
L 424.851365 63.137224 
L 425.641375 62.681499 
L 426.431384 58.466048 
L 427.089725 58.466048 
L 427.353062 57.098875 
L 427.748067 58.466048 
L 428.538076 64.162604 
L 428.801413 63.820811 
L 429.72309 55.503839 
L 430.249763 55.959563 
L 430.5131 58.352117 
L 430.644768 61.542188 
L 430.908104 61.542188 
L 431.039773 61.656119 
L 431.303109 56.64315 
L 431.434777 56.984943 
L 431.566446 56.415288 
L 431.698114 58.921773 
L 431.698114 61.656119 
L 431.96145 61.428257 
L 431.96145 56.187426 
L 432.093119 55.959563 
L 432.093119 60.858602 
L 432.224787 60.516808 
L 432.224787 53.794872 
L 432.224787 61.086464 
L 432.224787 60.516808 
" clip-path="url(#p30b899a635)" style="fill: none; stroke: #d62728; stroke-width: 2; stroke-linecap: square"/>
   </g>
   <g id="patch_3">
    <path d="M 58.945313 168.517812 
L 58.945313 48.331875 
" style="fill: none; stroke: #000000; stroke-width: 0.8; stroke-linejoin: miter; stroke-linecap: square"/>
   </g>
   <g id="patch_4">
    <path d="M 450 168.517812 
L 450 48.331875 
" style="fill: none; stroke: #000000; stroke-width: 0.8; stroke-linejoin: miter; stroke-linecap: square"/>
   </g>
   <g id="patch_5">
    <path d="M 58.945313 168.517812 
L 450 168.517812 
" style="fill: none; stroke: #000000; stroke-width: 0.8; stroke-linejoin: miter; stroke-linecap: square"/>
   </g>
   <g id="patch_6">
    <path d="M 58.945313 48.331875 
L 450 48.331875 
" style="fill: none; stroke: #000000; stroke-width: 0.8; stroke-linejoin: miter; stroke-linecap: square"/>
   </g>
   <g id="text_8">
    <!-- Reflector Raw Value -->
    <g transform="translate(194.712656 42.331875)scale(0.12 -0.12)">
     <defs>
      <path id="DejaVuSans-52" d="M 2841 2188 
Q 3044 2119 3236 1894 
Q 3428 1669 3622 1275 
L 4263 0 
L 3584 0 
L 2988 1197 
Q 2756 1666 2539 1819 
Q 2322 1972 1947 1972 
L 1259 1972 
L 1259 0 
L 628 0 
L 628 4666 
L 2053 4666 
Q 2853 4666 3247 4331 
Q 3641 3997 3641 3322 
Q 3641 2881 3436 2590 
Q 3231 2300 2841 2188 
z
M 1259 4147 
L 1259 2491 
L 2053 2491 
Q 2509 2491 2742 2702 
Q 2975 2913 2975 3322 
Q 2975 3731 2742 3939 
Q 2509 4147 2053 4147 
L 1259 4147 
z
" transform="scale(0.015625)"/>
      <path id="DejaVuSans-77" d="M 269 3500 
L 844 3500 
L 1563 769 
L 2278 3500 
L 2956 3500 
L 3675 769 
L 4391 3500 
L 4966 3500 
L 4050 0 
L 3372 0 
L 2619 2869 
L 1863 0 
L 1184 0 
L 269 3500 
z
" transform="scale(0.015625)"/>
      <path id="DejaVuSans-56" d="M 1831 0 
L 50 4666 
L 709 4666 
L 2188 738 
L 3669 4666 
L 4325 4666 
L 2547 0 
L 1831 0 
z
" transform="scale(0.015625)"/>
     </defs>
     <use xlink:href="#DejaVuSans-52"/>
     <use xlink:href="#DejaVuSans-65" x="64.982422"/>
     <use xlink:href="#DejaVuSans-66" x="126.505859"/>
     <use xlink:href="#DejaVuSans-6c" x="161.710938"/>
     <use xlink:href="#DejaVuSans-65" x="189.494141"/>
     <use xlink:href="#DejaVuSans-63" x="251.017578"/>
     <use xlink:href="#DejaVuSans-74" x="305.998047"/>
     <use xlink:href="#DejaVuSans-6f" x="345.207031"/>
     <use xlink:href="#DejaVuSans-72" x="406.388672"/>
     <use xlink:href="#DejaVuSans-20" x="447.501953"/>
     <use xlink:href="#DejaVuSans-52" x="479.289062"/>
     <use xlink:href="#DejaVuSans-61" x="546.521484"/>
     <use xlink:href="#DejaVuSans-77" x="607.800781"/>
     <use xlink:href="#DejaVuSans-20" x="689.587891"/>
     <use xlink:href="#DejaVuSans-56" x="721.375"/>
     <use xlink:href="#DejaVuSans-61" x="782.033203"/>
     <use xlink:href="#DejaVuSans-6c" x="843.3125"/>
     <use xlink:href="#DejaVuSans-75" x="871.095703"/>
     <use xlink:href="#DejaVuSans-65" x="934.474609"/>
    </g>
   </g>
   <g id="legend_1">
    <g id="patch_7">
     <path d="M 220.764844 115.044375 
L 288.180469 115.044375 
Q 290.180469 115.044375 290.180469 113.044375 
L 290.180469 55.331875 
Q 290.180469 53.331875 288.180469 53.331875 
L 220.764844 53.331875 
Q 218.764844 53.331875 218.764844 55.331875 
L 218.764844 113.044375 
Q 218.764844 115.044375 220.764844 115.044375 
z
" style="fill: #ffffff; opacity: 0.8; stroke: #cccccc; stroke-linejoin: miter"/>
    </g>
    <g id="line2d_29">
     <path d="M 222.764844 61.430313 
L 232.764844 61.430313 
L 242.764844 61.430313 
" style="fill: none; stroke: #1f77b4; stroke-width: 2; stroke-linecap: square"/>
    </g>
    <g id="text_9">
     <!-- L Side -->
     <g transform="translate(250.764844 64.930313)scale(0.1 -0.1)">
      <defs>
       <path id="DejaVuSans-4c" d="M 628 4666 
L 1259 4666 
L 1259 531 
L 3531 531 
L 3531 0 
L 628 0 
L 628 4666 
z
" transform="scale(0.015625)"/>
       <path id="DejaVuSans-53" d="M 3425 4513 
L 3425 3897 
Q 3066 4069 2747 4153 
Q 2428 4238 2131 4238 
Q 1616 4238 1336 4038 
Q 1056 3838 1056 3469 
Q 1056 3159 1242 3001 
Q 1428 2844 1947 2747 
L 2328 2669 
Q 3034 2534 3370 2195 
Q 3706 1856 3706 1288 
Q 3706 609 3251 259 
Q 2797 -91 1919 -91 
Q 1588 -91 1214 -16 
Q 841 59 441 206 
L 441 856 
Q 825 641 1194 531 
Q 1563 422 1919 422 
Q 2459 422 2753 634 
Q 3047 847 3047 1241 
Q 3047 1584 2836 1778 
Q 2625 1972 2144 2069 
L 1759 2144 
Q 1053 2284 737 2584 
Q 422 2884 422 3419 
Q 422 4038 858 4394 
Q 1294 4750 2059 4750 
Q 2388 4750 2728 4690 
Q 3069 4631 3425 4513 
z
" transform="scale(0.015625)"/>
       <path id="DejaVuSans-69" d="M 603 3500 
L 1178 3500 
L 1178 0 
L 603 0 
L 603 3500 
z
M 603 4863 
L 1178 4863 
L 1178 4134 
L 603 4134 
L 603 4863 
z
" transform="scale(0.015625)"/>
       <path id="DejaVuSans-64" d="M 2906 2969 
L 2906 4863 
L 3481 4863 
L 3481 0 
L 2906 0 
L 2906 525 
Q 2725 213 2448 61 
Q 2172 -91 1784 -91 
Q 1150 -91 751 415 
Q 353 922 353 1747 
Q 353 2572 751 3078 
Q 1150 3584 1784 3584 
Q 2172 3584 2448 3432 
Q 2725 3281 2906 2969 
z
M 947 1747 
Q 947 1113 1208 752 
Q 1469 391 1925 391 
Q 2381 391 2643 752 
Q 2906 1113 2906 1747 
Q 2906 2381 2643 2742 
Q 2381 3103 1925 3103 
Q 1469 3103 1208 2742 
Q 947 2381 947 1747 
z
" transform="scale(0.015625)"/>
      </defs>
      <use xlink:href="#DejaVuSans-4c"/>
      <use xlink:href="#DejaVuSans-20" x="55.712891"/>
      <use xlink:href="#DejaVuSans-53" x="87.5"/>
      <use xlink:href="#DejaVuSans-69" x="150.976562"/>
      <use xlink:href="#DejaVuSans-64" x="178.759766"/>
      <use xlink:href="#DejaVuSans-65" x="242.236328"/>
     </g>
    </g>
    <g id="line2d_30">
     <path d="M 222.764844 76.108438 
L 232.764844 76.108438 
L 242.764844 76.108438 
" style="fill: none; stroke: #ff7f0e; stroke-width: 2; stroke-linecap: square"/>
    </g>
    <g id="text_10">
     <!-- L Front -->
     <g transform="translate(250.764844 79.608438)scale(0.1 -0.1)">
      <defs>
       <path id="DejaVuSans-46" d="M 628 4666 
L 3309 4666 
L 3309 4134 
L 1259 4134 
L 1259 2759 
L 3109 2759 
L 3109 2228 
L 1259 2228 
L 1259 0 
L 628 0 
L 628 4666 
z
" transform="scale(0.015625)"/>
       <path id="DejaVuSans-6e" d="M 3513 2113 
L 3513 0 
L 2938 0 
L 2938 2094 
Q 2938 2591 2744 2837 
Q 2550 3084 2163 3084 
Q 1697 3084 1428 2787 
Q 1159 2491 1159 1978 
L 1159 0 
L 581 0 
L 581 3500 
L 1159 3500 
L 1159 2956 
Q 1366 3272 1645 3428 
Q 1925 3584 2291 3584 
Q 2894 3584 3203 3211 
Q 3513 2838 3513 2113 
z
" transform="scale(0.015625)"/>
      </defs>
      <use xlink:href="#DejaVuSans-4c"/>
      <use xlink:href="#DejaVuSans-20" x="55.712891"/>
      <use xlink:href="#DejaVuSans-46" x="87.5"/>
      <use xlink:href="#DejaVuSans-72" x="137.769531"/>
      <use xlink:href="#DejaVuSans-6f" x="176.632812"/>
      <use xlink:href="#DejaVuSans-6e" x="237.814453"/>
      <use xlink:href="#DejaVuSans-74" x="301.193359"/>
     </g>
    </g>
    <g id="line2d_31">
     <path d="M 222.764844 90.786563 
L 232.764844 90.786563 
L 242.764844 90.786563 
" style="fill: none; stroke: #2ca02c; stroke-width: 2; stroke-linecap: square"/>
    </g>
    <g id="text_11">
     <!-- R Front -->
     <g transform="translate(250.764844 94.286563)scale(0.1 -0.1)">
      <use xlink:href="#DejaVuSans-52"/>
      <use xlink:href="#DejaVuSans-20" x="69.482422"/>
      <use xlink:href="#DejaVuSans-46" x="101.269531"/>
      <use xlink:href="#DejaVuSans-72" x="151.539062"/>
      <use xlink:href="#DejaVuSans-6f" x="190.402344"/>
      <use xlink:href="#DejaVuSans-6e" x="251.583984"/>
      <use xlink:href="#DejaVuSans-74" x="314.962891"/>
     </g>
    </g>
    <g id="line2d_32">
     <path d="M 222.764844 105.464688 
L 232.764844 105.464688 
L 242.764844 105.464688 
" style="fill: none; stroke: #d62728; stroke-width: 2; stroke-linecap: square"/>
    </g>
    <g id="text_12">
     <!-- R Side -->
     <g transform="translate(250.764844 108.964688)scale(0.1 -0.1)">
      <use xlink:href="#DejaVuSans-52"/>
      <use xlink:href="#DejaVuSans-20" x="69.482422"/>
      <use xlink:href="#DejaVuSans-53" x="101.269531"/>
      <use xlink:href="#DejaVuSans-69" x="164.746094"/>
      <use xlink:href="#DejaVuSans-64" x="192.529297"/>
      <use xlink:href="#DejaVuSans-65" x="256.005859"/>
     </g>
    </g>
   </g>
  </g>
  <g id="axes_2">
   <g id="patch_8">
    <path d="M 58.945313 318.121875 
L 450 318.121875 
L 450 197.935938 
L 58.945313 197.935938 
z
" style="fill: #ffffff"/>
   </g>
   <g id="matplotlib.axis_3">
    <g id="xtick_7">
     <g id="line2d_33">
      <path d="M 76.720526 318.121875 
L 76.720526 197.935938 
" clip-path="url(#p1cf1fcaed3)" style="fill: none; stroke: #b0b0b0; stroke-width: 0.8; stroke-linecap: square"/>
     </g>
     <g id="line2d_34">
      <g>
       <use xlink:href="#m36487ab356" x="76.720526" y="318.121875" style="stroke: #000000; stroke-width: 0.8"/>
      </g>
     </g>
     <g id="text_13">
      <!-- 0 -->
      <g transform="translate(73.539276 332.720312)scale(0.1 -0.1)">
       <use xlink:href="#DejaVuSans-30"/>
      </g>
     </g>
    </g>
    <g id="xtick_8">
     <g id="line2d_35">
      <path d="M 142.554648 318.121875 
L 142.554648 197.935938 
" clip-path="url(#p1cf1fcaed3)" style="fill: none; stroke: #b0b0b0; stroke-width: 0.8; stroke-linecap: square"/>
     </g>
     <g id="line2d_36">
      <g>
       <use xlink:href="#m36487ab356" x="142.554648" y="318.121875" style="stroke: #000000; stroke-width: 0.8"/>
      </g>
     </g>
     <g id="text_14">
      <!-- 50 -->
      <g transform="translate(136.192148 332.720312)scale(0.1 -0.1)">
       <defs>
        <path id="DejaVuSans-35" d="M 691 4666 
L 3169 4666 
L 3169 4134 
L 1269 4134 
L 1269 2991 
Q 1406 3038 1543 3061 
Q 1681 3084 1819 3084 
Q 2600 3084 3056 2656 
Q 3513 2228 3513 1497 
Q 3513 744 3044 326 
Q 2575 -91 1722 -91 
Q 1428 -91 1123 -41 
Q 819 9 494 109 
L 494 744 
Q 775 591 1075 516 
Q 1375 441 1709 441 
Q 2250 441 2565 725 
Q 2881 1009 2881 1497 
Q 2881 1984 2565 2268 
Q 2250 2553 1709 2553 
Q 1456 2553 1204 2497 
Q 953 2441 691 2322 
L 691 4666 
z
" transform="scale(0.015625)"/>
       </defs>
       <use xlink:href="#DejaVuSans-35"/>
       <use xlink:href="#DejaVuSans-30" x="63.623047"/>
      </g>
     </g>
    </g>
    <g id="xtick_9">
     <g id="line2d_37">
      <path d="M 208.388771 318.121875 
L 208.388771 197.935938 
" clip-path="url(#p1cf1fcaed3)" style="fill: none; stroke: #b0b0b0; stroke-width: 0.8; stroke-linecap: square"/>
     </g>
     <g id="line2d_38">
      <g>
       <use xlink:href="#m36487ab356" x="208.388771" y="318.121875" style="stroke: #000000; stroke-width: 0.8"/>
      </g>
     </g>
     <g id="text_15">
      <!-- 100 -->
      <g transform="translate(198.845021 332.720312)scale(0.1 -0.1)">
       <use xlink:href="#DejaVuSans-31"/>
       <use xlink:href="#DejaVuSans-30" x="63.623047"/>
       <use xlink:href="#DejaVuSans-30" x="127.246094"/>
      </g>
     </g>
    </g>
    <g id="xtick_10">
     <g id="line2d_39">
      <path d="M 274.222893 318.121875 
L 274.222893 197.935938 
" clip-path="url(#p1cf1fcaed3)" style="fill: none; stroke: #b0b0b0; stroke-width: 0.8; stroke-linecap: square"/>
     </g>
     <g id="line2d_40">
      <g>
       <use xlink:href="#m36487ab356" x="274.222893" y="318.121875" style="stroke: #000000; stroke-width: 0.8"/>
      </g>
     </g>
     <g id="text_16">
      <!-- 150 -->
      <g transform="translate(264.679143 332.720312)scale(0.1 -0.1)">
       <use xlink:href="#DejaVuSans-31"/>
       <use xlink:href="#DejaVuSans-35" x="63.623047"/>
       <use xlink:href="#DejaVuSans-30" x="127.246094"/>
      </g>
     </g>
    </g>
    <g id="xtick_11">
     <g id="line2d_41">
      <path d="M 340.057015 318.121875 
L 340.057015 197.935938 
" clip-path="url(#p1cf1fcaed3)" style="fill: none; stroke: #b0b0b0; stroke-width: 0.8; stroke-linecap: square"/>
     </g>
     <g id="line2d_42">
      <g>
       <use xlink:href="#m36487ab356" x="340.057015" y="318.121875" style="stroke: #000000; stroke-width: 0.8"/>
      </g>
     </g>
     <g id="text_17">
      <!-- 200 -->
      <g transform="translate(330.513265 332.720312)scale(0.1 -0.1)">
       <use xlink:href="#DejaVuSans-32"/>
       <use xlink:href="#DejaVuSans-30" x="63.623047"/>
       <use xlink:href="#DejaVuSans-30" x="127.246094"/>
      </g>
     </g>
    </g>
    <g id="xtick_12">
     <g id="line2d_43">
      <path d="M 405.891138 318.121875 
L 405.891138 197.935938 
" clip-path="url(#p1cf1fcaed3)" style="fill: none; stroke: #b0b0b0; stroke-width: 0.8; stroke-linecap: square"/>
     </g>
     <g id="line2d_44">
      <g>
       <use xlink:href="#m36487ab356" x="405.891138" y="318.121875" style="stroke: #000000; stroke-width: 0.8"/>
      </g>
     </g>
     <g id="text_18">
      <!-- 250 -->
      <g transform="translate(396.347388 332.720312)scale(0.1 -0.1)">
       <use xlink:href="#DejaVuSans-32"/>
       <use xlink:href="#DejaVuSans-35" x="63.623047"/>
       <use xlink:href="#DejaVuSans-30" x="127.246094"/>
      </g>
     </g>
    </g>
   </g>
   <g id="matplotlib.axis_4">
    <g id="ytick_7">
     <g id="line2d_45">
      <path d="M 58.945313 308.051153 
L 450 308.051153 
" clip-path="url(#p1cf1fcaed3)" style="fill: none; stroke: #b0b0b0; stroke-width: 0.8; stroke-linecap: square"/>
     </g>
     <g id="line2d_46">
      <g>
       <use xlink:href="#m0fdbd367e7" x="58.945313" y="308.051153" style="stroke: #000000; stroke-width: 0.8"/>
      </g>
     </g>
     <g id="text_19">
      <!-- −100 -->
      <g transform="translate(24.478125 311.850372)scale(0.1 -0.1)">
       <defs>
        <path id="DejaVuSans-2212" d="M 678 2272 
L 4684 2272 
L 4684 1741 
L 678 1741 
L 678 2272 
z
" transform="scale(0.015625)"/>
       </defs>
       <use xlink:href="#DejaVuSans-2212"/>
       <use xlink:href="#DejaVuSans-31" x="83.789062"/>
       <use xlink:href="#DejaVuSans-30" x="147.412109"/>
       <use xlink:href="#DejaVuSans-30" x="211.035156"/>
      </g>
     </g>
    </g>
    <g id="ytick_8">
     <g id="line2d_47">
      <path d="M 58.945313 283.541977 
L 450 283.541977 
" clip-path="url(#p1cf1fcaed3)" style="fill: none; stroke: #b0b0b0; stroke-width: 0.8; stroke-linecap: square"/>
     </g>
     <g id="line2d_48">
      <g>
       <use xlink:href="#m0fdbd367e7" x="58.945313" y="283.541977" style="stroke: #000000; stroke-width: 0.8"/>
      </g>
     </g>
     <g id="text_20">
      <!-- −75 -->
      <g transform="translate(30.840625 287.341196)scale(0.1 -0.1)">
       <defs>
        <path id="DejaVuSans-37" d="M 525 4666 
L 3525 4666 
L 3525 4397 
L 1831 0 
L 1172 0 
L 2766 4134 
L 525 4134 
L 525 4666 
z
" transform="scale(0.015625)"/>
       </defs>
       <use xlink:href="#DejaVuSans-2212"/>
       <use xlink:href="#DejaVuSans-37" x="83.789062"/>
       <use xlink:href="#DejaVuSans-35" x="147.412109"/>
      </g>
     </g>
    </g>
    <g id="ytick_9">
     <g id="line2d_49">
      <path d="M 58.945313 259.032802 
L 450 259.032802 
" clip-path="url(#p1cf1fcaed3)" style="fill: none; stroke: #b0b0b0; stroke-width: 0.8; stroke-linecap: square"/>
     </g>
     <g id="line2d_50">
      <g>
       <use xlink:href="#m0fdbd367e7" x="58.945313" y="259.032802" style="stroke: #000000; stroke-width: 0.8"/>
      </g>
     </g>
     <g id="text_21">
      <!-- −50 -->
      <g transform="translate(30.840625 262.832021)scale(0.1 -0.1)">
       <use xlink:href="#DejaVuSans-2212"/>
       <use xlink:href="#DejaVuSans-35" x="83.789062"/>
       <use xlink:href="#DejaVuSans-30" x="147.412109"/>
      </g>
     </g>
    </g>
    <g id="ytick_10">
     <g id="line2d_51">
      <path d="M 58.945313 234.523627 
L 450 234.523627 
" clip-path="url(#p1cf1fcaed3)" style="fill: none; stroke: #b0b0b0; stroke-width: 0.8; stroke-linecap: square"/>
     </g>
     <g id="line2d_52">
      <g>
       <use xlink:href="#m0fdbd367e7" x="58.945313" y="234.523627" style="stroke: #000000; stroke-width: 0.8"/>
      </g>
     </g>
     <g id="text_22">
      <!-- −25 -->
      <g transform="translate(30.840625 238.322845)scale(0.1 -0.1)">
       <use xlink:href="#DejaVuSans-2212"/>
       <use xlink:href="#DejaVuSans-32" x="83.789062"/>
       <use xlink:href="#DejaVuSans-35" x="147.412109"/>
      </g>
     </g>
    </g>
    <g id="ytick_11">
     <g id="line2d_53">
      <path d="M 58.945313 210.014451 
L 450 210.014451 
" clip-path="url(#p1cf1fcaed3)" style="fill: none; stroke: #b0b0b0; stroke-width: 0.8; stroke-linecap: square"/>
     </g>
     <g id="line2d_54">
      <g>
       <use xlink:href="#m0fdbd367e7" x="58.945313" y="210.014451" style="stroke: #000000; stroke-width: 0.8"/>
      </g>
     </g>
     <g id="text_23">
      <!-- 0 -->
      <g transform="translate(45.582813 213.81367)scale(0.1 -0.1)">
       <use xlink:href="#DejaVuSans-30"/>
      </g>
     </g>
    </g>
    <g id="text_24">
     <!-- wall distance [mm] -->
     <g transform="translate(18.398438 305.967188)rotate(-90)scale(0.1 -0.1)">
      <defs>
       <path id="DejaVuSans-73" d="M 2834 3397 
L 2834 2853 
Q 2591 2978 2328 3040 
Q 2066 3103 1784 3103 
Q 1356 3103 1142 2972 
Q 928 2841 928 2578 
Q 928 2378 1081 2264 
Q 1234 2150 1697 2047 
L 1894 2003 
Q 2506 1872 2764 1633 
Q 3022 1394 3022 966 
Q 3022 478 2636 193 
Q 2250 -91 1575 -91 
Q 1294 -91 989 -36 
Q 684 19 347 128 
L 347 722 
Q 666 556 975 473 
Q 1284 391 1588 391 
Q 1994 391 2212 530 
Q 2431 669 2431 922 
Q 2431 1156 2273 1281 
Q 2116 1406 1581 1522 
L 1381 1569 
Q 847 1681 609 1914 
Q 372 2147 372 2553 
Q 372 3047 722 3315 
Q 1072 3584 1716 3584 
Q 2034 3584 2315 3537 
Q 2597 3491 2834 3397 
z
" transform="scale(0.015625)"/>
       <path id="DejaVuSans-5b" d="M 550 4863 
L 1875 4863 
L 1875 4416 
L 1125 4416 
L 1125 -397 
L 1875 -397 
L 1875 -844 
L 550 -844 
L 550 4863 
z
" transform="scale(0.015625)"/>
       <path id="DejaVuSans-6d" d="M 3328 2828 
Q 3544 3216 3844 3400 
Q 4144 3584 4550 3584 
Q 5097 3584 5394 3201 
Q 5691 2819 5691 2113 
L 5691 0 
L 5113 0 
L 5113 2094 
Q 5113 2597 4934 2840 
Q 4756 3084 4391 3084 
Q 3944 3084 3684 2787 
Q 3425 2491 3425 1978 
L 3425 0 
L 2847 0 
L 2847 2094 
Q 2847 2600 2669 2842 
Q 2491 3084 2119 3084 
Q 1678 3084 1418 2786 
Q 1159 2488 1159 1978 
L 1159 0 
L 581 0 
L 581 3500 
L 1159 3500 
L 1159 2956 
Q 1356 3278 1631 3431 
Q 1906 3584 2284 3584 
Q 2666 3584 2933 3390 
Q 3200 3197 3328 2828 
z
" transform="scale(0.015625)"/>
       <path id="DejaVuSans-5d" d="M 1947 4863 
L 1947 -844 
L 622 -844 
L 622 -397 
L 1369 -397 
L 1369 4416 
L 622 4416 
L 622 4863 
L 1947 4863 
z
" transform="scale(0.015625)"/>
      </defs>
      <use xlink:href="#DejaVuSans-77"/>
      <use xlink:href="#DejaVuSans-61" x="81.787109"/>
      <use xlink:href="#DejaVuSans-6c" x="143.066406"/>
      <use xlink:href="#DejaVuSans-6c" x="170.849609"/>
      <use xlink:href="#DejaVuSans-20" x="198.632812"/>
      <use xlink:href="#DejaVuSans-64" x="230.419922"/>
      <use xlink:href="#DejaVuSans-69" x="293.896484"/>
      <use xlink:href="#DejaVuSans-73" x="321.679688"/>
      <use xlink:href="#DejaVuSans-74" x="373.779297"/>
      <use xlink:href="#DejaVuSans-61" x="412.988281"/>
      <use xlink:href="#DejaVuSans-6e" x="474.267578"/>
      <use xlink:href="#DejaVuSans-63" x="537.646484"/>
      <use xlink:href="#DejaVuSans-65" x="592.626953"/>
      <use xlink:href="#DejaVuSans-20" x="654.150391"/>
      <use xlink:href="#DejaVuSans-5b" x="685.9375"/>
      <use xlink:href="#DejaVuSans-6d" x="724.951172"/>
      <use xlink:href="#DejaVuSans-6d" x="822.363281"/>
      <use xlink:href="#DejaVuSans-5d" x="919.775391"/>
     </g>
    </g>
   </g>
   <g id="line2d_55">
    <path d="M 76.720526 208.3292 
L 80.089916 208.430178 
L 82.483645 209.002713 
L 84.777305 209.620932 
L 90.637859 210.588456 
L 92.37588 210.648945 
L 98.827624 210.329737 
L 103.831017 210.134154 
L 113.798303 209.979923 
L 116.945174 210.037559 
L 126.425288 210.076116 
L 128.795316 210.388951 
L 131.165345 210.9558 
L 132.745364 211.484021 
L 134.325383 212.240865 
L 135.905402 213.290838 
L 136.695411 213.981997 
L 137.485421 214.852563 
L 139.06544 217.130935 
L 139.855449 218.633838 
L 140.645458 220.425949 
L 141.435468 222.563149 
L 142.225477 225.21014 
L 143.805496 232.307997 
L 144.595506 236.837293 
L 145.385515 242.121471 
L 146.175525 249.082077 
L 146.965534 258.719085 
L 148.545553 292.110385 
L 237.092448 292.110385 
L 237.882457 283.3361 
L 238.672467 269.4443 
L 239.462476 258.719085 
L 241.042495 246.778214 
L 241.832505 241.650895 
L 243.412524 233.847173 
L 244.992543 228.553192 
L 245.782552 224.523883 
L 246.572562 224.523883 
L 248.15258 221.288672 
L 249.732599 218.786775 
L 251.312618 216.700554 
L 253.550979 214.464337 
L 255.921007 213.044766 
L 256.711016 213.044766 
L 258.291035 212.68301 
L 260.661064 212.355568 
L 263.031092 212.14871 
L 265.401121 212.103613 
L 270.931187 212.332039 
L 274.881234 212.01342 
L 275.671244 211.923226 
L 280.411301 212.126162 
L 283.571338 211.968323 
L 285.941367 211.856561 
L 291.471433 212.263413 
L 296.21149 212.126162 
L 301.741556 212.68301 
L 305.691604 212.401645 
L 307.271622 212.518309 
L 309.641651 212.779086 
L 312.801689 212.707519 
L 315.171717 212.541837 
L 315.961727 212.541837 
L 319.121765 212.947709 
L 321.491793 212.875162 
L 324.651831 212.518309 
L 326.23185 212.612424 
L 330.181897 212.898691 
L 334.921954 212.401645 
L 338.872001 212.779086 
L 339.662011 212.802615 
L 342.822049 212.401645 
L 344.402068 212.49478 
L 348.352115 213.118293 
L 349.142124 213.142802 
L 353.092172 212.754577 
L 353.882181 212.802615 
L 357.042219 213.593771 
L 358.622238 213.877097 
L 360.202257 213.955527 
L 361.782276 214.436887 
L 362.572285 214.740801 
L 364.152304 215.849596 
L 366.522333 217.682882 
L 368.102352 218.786775 
L 368.892361 219.458327 
L 370.47238 221.720033 
L 371.26239 223.151369 
L 372.052399 225.21014 
L 372.842408 227.670861 
L 374.422427 233.847173 
L 376.792456 246.091957 
L 378.372475 255.542695 
L 379.162484 259.660237 
L 379.952494 261.77783 
L 380.742503 271.748162 
L 381.532513 283.3361 
L 382.322522 292.110385 
L 428.801413 292.110385 
L 429.064749 278.208781 
L 429.72309 264.31698 
L 429.986427 261.77783 
L 430.5131 261.77783 
L 430.908104 267.493369 
L 431.039773 267.493369 
L 431.434777 258.719085 
L 431.434777 258.719085 
L 431.698114 258.719085 
L 431.698114 260.670015 
L 431.829782 264.31698 
L 431.829782 264.31698 
L 431.96145 262.983681 
L 431.96145 257.032853 
L 432.093119 257.032853 
L 432.093119 257.032853 
L 432.093119 260.670015 
L 432.224787 265.807138 
L 432.224787 265.807138 
L 432.224787 253.003545 
L 432.224787 261.77783 
" clip-path="url(#p1cf1fcaed3)" style="fill: none; stroke: #1f77b4; stroke-width: 2; stroke-linecap: square"/>
   </g>
   <g id="line2d_56">
    <path d="M 76.720526 312.168694 
L 351.512153 312.168694 
L 352.302162 303.384606 
L 356.25221 303.384606 
L 357.042219 298.247483 
L 357.832229 291.786864 
L 358.622238 289.483002 
L 359.412247 284.355682 
L 360.202257 281.816532 
L 360.992266 278.76759 
L 362.572285 278.76759 
L 363.362295 279.698939 
L 364.152304 281.816532 
L 364.942314 284.355682 
L 365.732323 280.71852 
L 367.312342 277.071555 
L 368.102352 273.05205 
L 368.892361 269.993305 
L 369.682371 267.542388 
L 371.26239 267.542388 
L 372.052399 269.993305 
L 372.842408 271.944236 
L 373.632418 275.581397 
L 374.422427 273.640271 
L 375.212437 272.483438 
L 376.002446 270.934458 
L 376.792456 267.169848 
L 377.582465 263.993459 
L 378.372475 262.66016 
L 379.952494 262.66016 
L 380.742503 264.865986 
L 381.532513 267.542388 
L 382.322522 271.944236 
L 383.112532 269.55214 
L 383.902541 268.307074 
L 384.692551 265.483617 
L 385.48256 261.924885 
L 386.272569 258.964176 
L 388.642598 258.964176 
L 389.432607 261.454309 
L 390.222617 265.1699 
L 391.012626 269.993305 
L 392.592645 266.816916 
L 393.382655 261.454309 
L 394.962674 254.80742 
L 395.752683 254.679973 
L 397.332702 254.679973 
L 398.122711 257.366178 
L 398.912721 260.571978 
L 399.70273 264.865986 
L 400.49274 263.179755 
L 401.282749 261.924885 
L 401.941091 257.032853 
L 402.7311 253.395692 
L 403.52111 250.572235 
L 404.311119 250.189892 
L 405.75947 249.729119 
L 407.20782 253.895679 
L 407.866162 256.719136 
L 409.314512 254.679973 
L 409.972854 251.170259 
L 410.631195 248.268372 
L 411.421204 246.111565 
L 412.737887 245.513541 
L 413.396228 245.248842 
L 414.054569 246.739 
L 414.581242 248.346802 
L 415.239583 247.787992 
L 415.897925 247.405649 
L 416.424598 246.670374 
L 417.609612 242.562636 
L 419.321299 241.758735 
L 420.374645 244.209653 
L 420.901318 243.915543 
L 421.822996 243.523396 
L 422.744673 240.170541 
L 423.666351 239.699965 
L 424.061356 239.503891 
L 424.851365 241.61168 
L 425.641375 241.141104 
L 426.036379 240.91562 
L 426.694721 238.268629 
L 427.089725 238.121574 
L 427.353062 237.141207 
L 427.748067 237.141207 
L 428.011403 237.415709 
L 428.801413 240.082308 
L 429.064749 239.915645 
L 429.328086 238.680383 
L 429.459754 237.484335 
L 430.249763 236.043196 
L 430.5131 236.043196 
L 430.776436 237.582372 
L 431.171441 237.278458 
L 431.434777 235.209884 
L 431.698114 235.121651 
L 431.698114 235.954963 
L 431.829782 236.876508 
L 431.829782 236.641219 
L 431.96145 236.45495 
L 431.96145 236.484361 
L 431.96145 235.503994 
L 432.093119 234.396179 
L 432.093119 235.298117 
L 432.224787 236.200054 
L 432.224787 236.072607 
L 432.224787 233.484438 
L 432.224787 235.415761 
" clip-path="url(#p1cf1fcaed3)" style="fill: none; stroke: #ff7f0e; stroke-width: 2; stroke-linecap: square"/>
   </g>
   <g id="line2d_57">
    <path d="M 76.720526 312.658878 
L 366.522333 312.658878 
L 367.312342 303.874789 
L 368.102352 298.74747 
L 368.892361 292.286851 
L 372.052399 292.286851 
L 372.842408 295.110308 
L 373.632418 298.74747 
L 374.422427 289.982989 
L 376.002446 279.257774 
L 377.582465 271.924628 
L 379.952494 271.924628 
L 380.742503 274.130454 
L 382.322522 281.208704 
L 383.112532 277.571542 
L 383.902541 274.748085 
L 384.692551 270.052127 
L 386.272569 263.669938 
L 388.642598 263.669938 
L 389.432607 266.297322 
L 390.222617 270.052127 
L 391.012626 274.748085 
L 391.802636 271.924628 
L 392.592645 270.052127 
L 393.382655 264.20914 
L 394.962674 257.375982 
L 397.332702 257.375982 
L 398.122711 259.836703 
L 398.912721 262.905252 
L 399.70273 266.963971 
L 401.282749 264.20914 
L 401.941091 259.26809 
L 402.7311 255.444659 
L 403.52111 252.846686 
L 405.75947 251.97416 
L 407.20782 255.719162 
L 407.866162 258.366153 
L 408.656171 257.532841 
L 409.314512 256.150523 
L 409.972854 252.729042 
L 410.631195 250.042837 
L 411.421204 247.905636 
L 413.396228 246.817429 
L 414.054569 247.974262 
L 414.581242 249.425205 
L 416.424598 247.680152 
L 417.082939 245.562559 
L 417.609612 244.886106 
L 418.794626 244.239064 
L 419.321299 243.964561 
L 420.374645 246.268424 
L 420.901318 245.807651 
L 421.427991 245.562559 
L 422.349669 242.248919 
L 422.744673 241.827361 
L 424.061356 241.003853 
L 424.851365 242.846943 
L 425.641375 242.209704 
L 426.431384 239.513695 
L 426.694721 239.170566 
L 427.089725 238.984297 
L 427.353062 238.258825 
L 428.011403 238.258825 
L 428.538076 239.95486 
L 428.801413 240.91562 
L 429.72309 236.513772 
L 429.986427 236.915722 
L 430.118095 236.817685 
L 430.249763 236.474557 
L 430.5131 236.474557 
L 430.776436 238.11177 
L 431.039773 237.700016 
L 431.434777 235.533405 
L 431.566446 235.30792 
L 431.698114 235.30792 
L 431.698114 236.08241 
L 431.829782 237.013759 
L 431.829782 236.915722 
L 431.96145 236.817685 
L 431.96145 235.053025 
L 432.093119 234.896166 
L 432.093119 234.837344 
L 432.093119 235.592227 
L 432.224787 236.415735 
L 432.224787 236.239269 
L 432.224787 234.053051 
L 432.224787 235.758889 
" clip-path="url(#p1cf1fcaed3)" style="fill: none; stroke: #2ca02c; stroke-width: 2; stroke-linecap: square"/>
   </g>
   <g id="line2d_58">
    <path d="M 76.720526 211.082071 
L 76.723896 211.009524 
L 76.836236 210.889723 
L 77.281301 211.130109 
L 78.290011 210.937467 
L 80.617906 210.8659 
L 81.81477 210.560516 
L 82.836516 210.239642 
L 87.014349 209.514072 
L 89.546329 209.344272 
L 92.981554 208.88899 
L 96.786766 208.868402 
L 98.142949 208.97036 
L 100.223307 209.239275 
L 101.645324 209.302215 
L 104.568359 209.197511 
L 106.819886 209.114474 
L 113.798303 209.407702 
L 116.155165 209.535444 
L 127.215298 209.599854 
L 131.165345 210.171996 
L 132.745364 210.353364 
L 136.695411 211.203636 
L 138.27543 211.88009 
L 139.855449 212.84379 
L 141.435468 214.161404 
L 143.015487 215.912339 
L 143.805496 217.022115 
L 144.595506 218.325022 
L 145.385515 219.925962 
L 146.965534 224.161147 
L 147.755544 226.876764 
L 148.545553 230.131582 
L 149.335563 234.062854 
L 150.125572 238.680383 
L 151.705591 251.160455 
L 152.495601 258.836729 
L 153.28561 272.728529 
L 154.075619 290.267295 
L 244.202533 290.267295 
L 244.992543 281.502814 
L 245.782552 262.47389 
L 246.572562 262.47389 
L 248.15258 249.542849 
L 248.94259 244.248867 
L 249.732599 240.278381 
L 251.312618 233.768744 
L 252.892637 228.886516 
L 253.550979 226.798335 
L 254.340988 225.151318 
L 255.921007 222.621971 
L 256.711016 221.582782 
L 257.501026 220.778881 
L 259.081045 219.634793 
L 259.871054 219.305389 
L 260.661064 219.167158 
L 261.451073 219.213235 
L 262.241083 219.634793 
L 263.031092 220.26909 
L 263.821102 221.259261 
L 264.611111 222.621971 
L 265.401121 224.857208 
L 266.19113 227.749291 
L 266.98114 231.151164 
L 267.771149 235.317724 
L 268.561158 240.278381 
L 269.351168 246.827233 
L 270.141177 256.013272 
L 271.721196 290.267295 
L 364.942314 290.267295 
L 365.732323 265.650279 
L 366.522333 255.189763 
L 367.312342 247.670348 
L 368.102352 241.562662 
L 368.892361 236.523575 
L 369.682371 232.788377 
L 371.26239 226.543439 
L 372.842408 221.749444 
L 375.212437 215.631954 
L 376.792456 212.246747 
L 377.582465 210.8659 
L 378.372475 209.794947 
L 379.952494 208.253712 
L 381.532513 207.557652 
L 386.272569 206.353761 
L 388.642598 206.254744 
L 391.012626 206.521404 
L 393.382655 206.155727 
L 394.962674 205.689072 
L 397.332702 205.516527 
L 399.70273 205.895929 
L 401.941091 205.610643 
L 403.52111 205.178301 
L 405.75947 205.04301 
L 407.866162 205.439078 
L 409.314512 205.377315 
L 411.421204 204.644001 
L 413.396228 204.528317 
L 415.239583 204.760664 
L 416.424598 204.701842 
L 417.609612 204.243031 
L 419.321299 204.257736 
L 420.374645 204.77537 
L 421.822996 204.688117 
L 422.744673 204.173425 
L 424.061356 204.033232 
L 424.851365 204.498906 
L 425.641375 204.498906 
L 426.036379 204.470476 
L 426.694721 203.950881 
L 427.089725 203.950881 
L 427.353062 203.78716 
L 427.748067 203.78716 
L 428.27474 204.173425 
L 428.801413 204.658706 
L 429.064749 204.61459 
L 429.986427 203.597949 
L 430.5131 203.651869 
L 430.908104 204.328323 
L 431.171441 204.342048 
L 431.434777 203.732259 
L 431.434777 203.75971 
L 431.698114 203.70579 
L 431.698114 204.005782 
L 431.829782 204.342048 
L 431.829782 204.328323 
L 431.96145 204.313617 
L 431.96145 204.313617 
L 431.96145 203.992057 
L 432.093119 203.651869 
L 432.093119 203.950881 
L 432.224787 204.243031 
L 432.224787 204.18715 
L 432.224787 203.398935 
L 432.224787 204.271461 
L 432.224787 204.2146 
" clip-path="url(#p1cf1fcaed3)" style="fill: none; stroke: #d62728; stroke-width: 2; stroke-linecap: square"/>
   </g>
   <g id="patch_9">
    <path d="M 58.945313 318.121875 
L 58.945313 197.935938 
" style="fill: none; stroke: #000000; stroke-width: 0.8; stroke-linejoin: miter; stroke-linecap: square"/>
   </g>
   <g id="patch_10">
    <path d="M 450 318.121875 
L 450 197.935938 
" style="fill: none; stroke: #000000; stroke-width: 0.8; stroke-linejoin: miter; stroke-linecap: square"/>
   </g>
   <g id="patch_11">
    <path d="M 58.945313 318.121875 
L 450 318.121875 
" style="fill: none; stroke: #000000; stroke-width: 0.8; stroke-linejoin: miter; stroke-linecap: square"/>
   </g>
   <g id="patch_12">
    <path d="M 58.945313 197.935938 
L 450 197.935938 
" style="fill: none; stroke: #000000; stroke-width: 0.8; stroke-linejoin: miter; stroke-linecap: square"/>
   </g>
   <g id="text_25">
    <!-- Wall Distance [mm] -->
    <g transform="translate(195.492656 191.935938)scale(0.12 -0.12)">
     <defs>
      <path id="DejaVuSans-57" d="M 213 4666 
L 850 4666 
L 1831 722 
L 2809 4666 
L 3519 4666 
L 4500 722 
L 5478 4666 
L 6119 4666 
L 4947 0 
L 4153 0 
L 3169 4050 
L 2175 0 
L 1381 0 
L 213 4666 
z
" transform="scale(0.015625)"/>
      <path id="DejaVuSans-44" d="M 1259 4147 
L 1259 519 
L 2022 519 
Q 2988 519 3436 956 
Q 3884 1394 3884 2338 
Q 3884 3275 3436 3711 
Q 2988 4147 2022 4147 
L 1259 4147 
z
M 628 4666 
L 1925 4666 
Q 3281 4666 3915 4102 
Q 4550 3538 4550 2338 
Q 4550 1131 3912 565 
Q 3275 0 1925 0 
L 628 0 
L 628 4666 
z
" transform="scale(0.015625)"/>
     </defs>
     <use xlink:href="#DejaVuSans-57"/>
     <use xlink:href="#DejaVuSans-61" x="92.501953"/>
     <use xlink:href="#DejaVuSans-6c" x="153.78125"/>
     <use xlink:href="#DejaVuSans-6c" x="181.564453"/>
     <use xlink:href="#DejaVuSans-20" x="209.347656"/>
     <use xlink:href="#DejaVuSans-44" x="241.134766"/>
     <use xlink:href="#DejaVuSans-69" x="318.136719"/>
     <use xlink:href="#DejaVuSans-73" x="345.919922"/>
     <use xlink:href="#DejaVuSans-74" x="398.019531"/>
     <use xlink:href="#DejaVuSans-61" x="437.228516"/>
     <use xlink:href="#DejaVuSans-6e" x="498.507812"/>
     <use xlink:href="#DejaVuSans-63" x="561.886719"/>
     <use xlink:href="#DejaVuSans-65" x="616.867188"/>
     <use xlink:href="#DejaVuSans-20" x="678.390625"/>
     <use xlink:href="#DejaVuSans-5b" x="710.177734"/>
     <use xlink:href="#DejaVuSans-6d" x="749.191406"/>
     <use xlink:href="#DejaVuSans-6d" x="846.603516"/>
     <use xlink:href="#DejaVuSans-5d" x="944.015625"/>
    </g>
   </g>
   <g id="legend_2">
    <g id="patch_13">
     <path d="M 65.945312 288.885156 
L 133.360938 288.885156 
Q 135.360938 288.885156 135.360938 286.885156 
L 135.360938 229.172656 
Q 135.360938 227.172656 133.360938 227.172656 
L 65.945312 227.172656 
Q 63.945312 227.172656 63.945312 229.172656 
L 63.945312 286.885156 
Q 63.945312 288.885156 65.945312 288.885156 
z
" style="fill: #ffffff; opacity: 0.8; stroke: #cccccc; stroke-linejoin: miter"/>
    </g>
    <g id="line2d_59">
     <path d="M 67.945312 235.271094 
L 77.945312 235.271094 
L 87.945312 235.271094 
" style="fill: none; stroke: #1f77b4; stroke-width: 2; stroke-linecap: square"/>
    </g>
    <g id="text_26">
     <!-- L Side -->
     <g transform="translate(95.945312 238.771094)scale(0.1 -0.1)">
      <use xlink:href="#DejaVuSans-4c"/>
      <use xlink:href="#DejaVuSans-20" x="55.712891"/>
      <use xlink:href="#DejaVuSans-53" x="87.5"/>
      <use xlink:href="#DejaVuSans-69" x="150.976562"/>
      <use xlink:href="#DejaVuSans-64" x="178.759766"/>
      <use xlink:href="#DejaVuSans-65" x="242.236328"/>
     </g>
    </g>
    <g id="line2d_60">
     <path d="M 67.945312 249.949219 
L 77.945312 249.949219 
L 87.945312 249.949219 
" style="fill: none; stroke: #ff7f0e; stroke-width: 2; stroke-linecap: square"/>
    </g>
    <g id="text_27">
     <!-- L Front -->
     <g transform="translate(95.945312 253.449219)scale(0.1 -0.1)">
      <use xlink:href="#DejaVuSans-4c"/>
      <use xlink:href="#DejaVuSans-20" x="55.712891"/>
      <use xlink:href="#DejaVuSans-46" x="87.5"/>
      <use xlink:href="#DejaVuSans-72" x="137.769531"/>
      <use xlink:href="#DejaVuSans-6f" x="176.632812"/>
      <use xlink:href="#DejaVuSans-6e" x="237.814453"/>
      <use xlink:href="#DejaVuSans-74" x="301.193359"/>
     </g>
    </g>
    <g id="line2d_61">
     <path d="M 67.945312 264.627344 
L 77.945312 264.627344 
L 87.945312 264.627344 
" style="fill: none; stroke: #2ca02c; stroke-width: 2; stroke-linecap: square"/>
    </g>
    <g id="text_28">
     <!-- R Front -->
     <g transform="translate(95.945312 268.127344)scale(0.1 -0.1)">
      <use xlink:href="#DejaVuSans-52"/>
      <use xlink:href="#DejaVuSans-20" x="69.482422"/>
      <use xlink:href="#DejaVuSans-46" x="101.269531"/>
      <use xlink:href="#DejaVuSans-72" x="151.539062"/>
      <use xlink:href="#DejaVuSans-6f" x="190.402344"/>
      <use xlink:href="#DejaVuSans-6e" x="251.583984"/>
      <use xlink:href="#DejaVuSans-74" x="314.962891"/>
     </g>
    </g>
    <g id="line2d_62">
     <path d="M 67.945312 279.305469 
L 77.945312 279.305469 
L 87.945312 279.305469 
" style="fill: none; stroke: #d62728; stroke-width: 2; stroke-linecap: square"/>
    </g>
    <g id="text_29">
     <!-- R Side -->
     <g transform="translate(95.945312 282.805469)scale(0.1 -0.1)">
      <use xlink:href="#DejaVuSans-52"/>
      <use xlink:href="#DejaVuSans-20" x="69.482422"/>
      <use xlink:href="#DejaVuSans-53" x="101.269531"/>
      <use xlink:href="#DejaVuSans-69" x="164.746094"/>
      <use xlink:href="#DejaVuSans-64" x="192.529297"/>
      <use xlink:href="#DejaVuSans-65" x="256.005859"/>
     </g>
    </g>
   </g>
  </g>
  <g id="text_30">
   <!-- Reflector raw and distance -->
   <g transform="translate(150.065625 16.030125)scale(0.12 -0.12)">
    <use xlink:href="#DejaVuSans-52"/>
    <use xlink:href="#DejaVuSans-65" x="64.982422"/>
    <use xlink:href="#DejaVuSans-66" x="126.505859"/>
    <use xlink:href="#DejaVuSans-6c" x="161.710938"/>
    <use xlink:href="#DejaVuSans-65" x="189.494141"/>
    <use xlink:href="#DejaVuSans-63" x="251.017578"/>
    <use xlink:href="#DejaVuSans-74" x="305.998047"/>
    <use xlink:href="#DejaVuSans-6f" x="345.207031"/>
    <use xlink:href="#DejaVuSans-72" x="406.388672"/>
    <use xlink:href="#DejaVuSans-20" x="447.501953"/>
    <use xlink:href="#DejaVuSans-72" x="479.289062"/>
    <use xlink:href="#DejaVuSans-61" x="520.402344"/>
    <use xlink:href="#DejaVuSans-77" x="581.681641"/>
    <use xlink:href="#DejaVuSans-20" x="663.46875"/>
    <use xlink:href="#DejaVuSans-61" x="695.255859"/>
    <use xlink:href="#DejaVuSans-6e" x="756.535156"/>
    <use xlink:href="#DejaVuSans-64" x="819.914062"/>
    <use xlink:href="#DejaVuSans-20" x="883.390625"/>
    <use xlink:href="#DejaVuSans-64" x="915.177734"/>
    <use xlink:href="#DejaVuSans-69" x="978.654297"/>
    <use xlink:href="#DejaVuSans-73" x="1006.4375"/>
    <use xlink:href="#DejaVuSans-74" x="1058.537109"/>
    <use xlink:href="#DejaVuSans-61" x="1097.746094"/>
    <use xlink:href="#DejaVuSans-6e" x="1159.025391"/>
    <use xlink:href="#DejaVuSans-63" x="1222.404297"/>
    <use xlink:href="#DejaVuSans-65" x="1277.384766"/>
   </g>
  </g>
 </g>
 <defs>
  <clipPath id="p30b899a635">
   <rect x="58.945313" y="48.331875" width="391.054687" height="120.185937"/>
  </clipPath>
  <clipPath id="p1cf1fcaed3">
   <rect x="58.945313" y="197.935938" width="391.054687" height="120.185937"/>
  </clipPath>
 </defs>
</svg>
