<?xml version="1.0" encoding="utf-8" standalone="no"?>
<!DOCTYPE svg PUBLIC "-//W3C//DTD SVG 1.1//EN"
  "http://www.w3.org/Graphics/SVG/1.1/DTD/svg11.dtd">
<svg xmlns:xlink="http://www.w3.org/1999/xlink" width="460.8pt" height="345.6pt" viewBox="0 0 460.8 345.6" xmlns="http://www.w3.org/2000/svg" version="1.1">
 <metadata>
  <rdf:RDF xmlns:dc="http://purl.org/dc/elements/1.1/" xmlns:cc="http://creativecommons.org/ns#" xmlns:rdf="http://www.w3.org/1999/02/22-rdf-syntax-ns#">
   <cc:Work>
    <dc:type rdf:resource="http://purl.org/dc/dcmitype/StillImage"/>
    <dc:date>2022-01-16T03:38:24.126643</dc:date>
    <dc:format>image/svg+xml</dc:format>
    <dc:creator>
     <cc:Agent>
      <dc:title>Matplotlib v3.5.1, https://matplotlib.org/</dc:title>
     </cc:Agent>
    </dc:creator>
   </cc:Work>
  </rdf:RDF>
 </metadata>
 <defs>
  <style type="text/css">*{stroke-linejoin: round; stroke-linecap: butt}</style>
 </defs>
 <g id="figure_1">
  <g id="patch_1">
   <path d="M 0 345.6 
L 460.8 345.6 
L 460.8 0 
L 0 0 
z
" style="fill: #ffffff"/>
  </g>
  <g id="axes_1">
   <g id="patch_2">
    <path d="M 50.565625 304.44375 
L 450 304.44375 
L 450 25.918125 
L 50.565625 25.918125 
z
" style="fill: #ffffff"/>
   </g>
   <g id="matplotlib.axis_1">
    <g id="xtick_1">
     <g id="line2d_1">
      <path d="M 68.721733 304.44375 
L 68.721733 25.918125 
" clip-path="url(#pd92219c5e9)" style="fill: none; stroke: #b0b0b0; stroke-width: 0.8; stroke-linecap: square"/>
     </g>
     <g id="line2d_2">
      <defs>
       <path id="mc4c4c3d28c" d="M 0 0 
L 0 3.5 
" style="stroke: #000000; stroke-width: 0.8"/>
      </defs>
      <g>
       <use xlink:href="#mc4c4c3d28c" x="68.721733" y="304.44375" style="stroke: #000000; stroke-width: 0.8"/>
      </g>
     </g>
     <g id="text_1">
      <!-- 0 -->
      <g transform="translate(65.540483 319.042187)scale(0.1 -0.1)">
       <defs>
        <path id="DejaVuSans-30" d="M 2034 4250 
Q 1547 4250 1301 3770 
Q 1056 3291 1056 2328 
Q 1056 1369 1301 889 
Q 1547 409 2034 409 
Q 2525 409 2770 889 
Q 3016 1369 3016 2328 
Q 3016 3291 2770 3770 
Q 2525 4250 2034 4250 
z
M 2034 4750 
Q 2819 4750 3233 4129 
Q 3647 3509 3647 2328 
Q 3647 1150 3233 529 
Q 2819 -91 2034 -91 
Q 1250 -91 836 529 
Q 422 1150 422 2328 
Q 422 3509 836 4129 
Q 1250 4750 2034 4750 
z
" transform="scale(0.015625)"/>
       </defs>
       <use xlink:href="#DejaVuSans-30"/>
      </g>
     </g>
    </g>
    <g id="xtick_2">
     <g id="line2d_3">
      <path d="M 149.415546 304.44375 
L 149.415546 25.918125 
" clip-path="url(#pd92219c5e9)" style="fill: none; stroke: #b0b0b0; stroke-width: 0.8; stroke-linecap: square"/>
     </g>
     <g id="line2d_4">
      <g>
       <use xlink:href="#mc4c4c3d28c" x="149.415546" y="304.44375" style="stroke: #000000; stroke-width: 0.8"/>
      </g>
     </g>
     <g id="text_2">
      <!-- 100 -->
      <g transform="translate(139.871796 319.042187)scale(0.1 -0.1)">
       <defs>
        <path id="DejaVuSans-31" d="M 794 531 
L 1825 531 
L 1825 4091 
L 703 3866 
L 703 4441 
L 1819 4666 
L 2450 4666 
L 2450 531 
L 3481 531 
L 3481 0 
L 794 0 
L 794 531 
z
" transform="scale(0.015625)"/>
       </defs>
       <use xlink:href="#DejaVuSans-31"/>
       <use xlink:href="#DejaVuSans-30" x="63.623047"/>
       <use xlink:href="#DejaVuSans-30" x="127.246094"/>
      </g>
     </g>
    </g>
    <g id="xtick_3">
     <g id="line2d_5">
      <path d="M 230.109359 304.44375 
L 230.109359 25.918125 
" clip-path="url(#pd92219c5e9)" style="fill: none; stroke: #b0b0b0; stroke-width: 0.8; stroke-linecap: square"/>
     </g>
     <g id="line2d_6">
      <g>
       <use xlink:href="#mc4c4c3d28c" x="230.109359" y="304.44375" style="stroke: #000000; stroke-width: 0.8"/>
      </g>
     </g>
     <g id="text_3">
      <!-- 200 -->
      <g transform="translate(220.565609 319.042187)scale(0.1 -0.1)">
       <defs>
        <path id="DejaVuSans-32" d="M 1228 531 
L 3431 531 
L 3431 0 
L 469 0 
L 469 531 
Q 828 903 1448 1529 
Q 2069 2156 2228 2338 
Q 2531 2678 2651 2914 
Q 2772 3150 2772 3378 
Q 2772 3750 2511 3984 
Q 2250 4219 1831 4219 
Q 1534 4219 1204 4116 
Q 875 4013 500 3803 
L 500 4441 
Q 881 4594 1212 4672 
Q 1544 4750 1819 4750 
Q 2544 4750 2975 4387 
Q 3406 4025 3406 3419 
Q 3406 3131 3298 2873 
Q 3191 2616 2906 2266 
Q 2828 2175 2409 1742 
Q 1991 1309 1228 531 
z
" transform="scale(0.015625)"/>
       </defs>
       <use xlink:href="#DejaVuSans-32"/>
       <use xlink:href="#DejaVuSans-30" x="63.623047"/>
       <use xlink:href="#DejaVuSans-30" x="127.246094"/>
      </g>
     </g>
    </g>
    <g id="xtick_4">
     <g id="line2d_7">
      <path d="M 310.803172 304.44375 
L 310.803172 25.918125 
" clip-path="url(#pd92219c5e9)" style="fill: none; stroke: #b0b0b0; stroke-width: 0.8; stroke-linecap: square"/>
     </g>
     <g id="line2d_8">
      <g>
       <use xlink:href="#mc4c4c3d28c" x="310.803172" y="304.44375" style="stroke: #000000; stroke-width: 0.8"/>
      </g>
     </g>
     <g id="text_4">
      <!-- 300 -->
      <g transform="translate(301.259422 319.042187)scale(0.1 -0.1)">
       <defs>
        <path id="DejaVuSans-33" d="M 2597 2516 
Q 3050 2419 3304 2112 
Q 3559 1806 3559 1356 
Q 3559 666 3084 287 
Q 2609 -91 1734 -91 
Q 1441 -91 1130 -33 
Q 819 25 488 141 
L 488 750 
Q 750 597 1062 519 
Q 1375 441 1716 441 
Q 2309 441 2620 675 
Q 2931 909 2931 1356 
Q 2931 1769 2642 2001 
Q 2353 2234 1838 2234 
L 1294 2234 
L 1294 2753 
L 1863 2753 
Q 2328 2753 2575 2939 
Q 2822 3125 2822 3475 
Q 2822 3834 2567 4026 
Q 2313 4219 1838 4219 
Q 1578 4219 1281 4162 
Q 984 4106 628 3988 
L 628 4550 
Q 988 4650 1302 4700 
Q 1616 4750 1894 4750 
Q 2613 4750 3031 4423 
Q 3450 4097 3450 3541 
Q 3450 3153 3228 2886 
Q 3006 2619 2597 2516 
z
" transform="scale(0.015625)"/>
       </defs>
       <use xlink:href="#DejaVuSans-33"/>
       <use xlink:href="#DejaVuSans-30" x="63.623047"/>
       <use xlink:href="#DejaVuSans-30" x="127.246094"/>
      </g>
     </g>
    </g>
    <g id="xtick_5">
     <g id="line2d_9">
      <path d="M 391.496985 304.44375 
L 391.496985 25.918125 
" clip-path="url(#pd92219c5e9)" style="fill: none; stroke: #b0b0b0; stroke-width: 0.8; stroke-linecap: square"/>
     </g>
     <g id="line2d_10">
      <g>
       <use xlink:href="#mc4c4c3d28c" x="391.496985" y="304.44375" style="stroke: #000000; stroke-width: 0.8"/>
      </g>
     </g>
     <g id="text_5">
      <!-- 400 -->
      <g transform="translate(381.953235 319.042187)scale(0.1 -0.1)">
       <defs>
        <path id="DejaVuSans-34" d="M 2419 4116 
L 825 1625 
L 2419 1625 
L 2419 4116 
z
M 2253 4666 
L 3047 4666 
L 3047 1625 
L 3713 1625 
L 3713 1100 
L 3047 1100 
L 3047 0 
L 2419 0 
L 2419 1100 
L 313 1100 
L 313 1709 
L 2253 4666 
z
" transform="scale(0.015625)"/>
       </defs>
       <use xlink:href="#DejaVuSans-34"/>
       <use xlink:href="#DejaVuSans-30" x="63.623047"/>
       <use xlink:href="#DejaVuSans-30" x="127.246094"/>
      </g>
     </g>
    </g>
    <g id="text_6">
     <!-- Translational Position [mm] -->
     <g transform="translate(182.305469 332.720312)scale(0.1 -0.1)">
      <defs>
       <path id="DejaVuSans-54" d="M -19 4666 
L 3928 4666 
L 3928 4134 
L 2272 4134 
L 2272 0 
L 1638 0 
L 1638 4134 
L -19 4134 
L -19 4666 
z
" transform="scale(0.015625)"/>
       <path id="DejaVuSans-72" d="M 2631 2963 
Q 2534 3019 2420 3045 
Q 2306 3072 2169 3072 
Q 1681 3072 1420 2755 
Q 1159 2438 1159 1844 
L 1159 0 
L 581 0 
L 581 3500 
L 1159 3500 
L 1159 2956 
Q 1341 3275 1631 3429 
Q 1922 3584 2338 3584 
Q 2397 3584 2469 3576 
Q 2541 3569 2628 3553 
L 2631 2963 
z
" transform="scale(0.015625)"/>
       <path id="DejaVuSans-61" d="M 2194 1759 
Q 1497 1759 1228 1600 
Q 959 1441 959 1056 
Q 959 750 1161 570 
Q 1363 391 1709 391 
Q 2188 391 2477 730 
Q 2766 1069 2766 1631 
L 2766 1759 
L 2194 1759 
z
M 3341 1997 
L 3341 0 
L 2766 0 
L 2766 531 
Q 2569 213 2275 61 
Q 1981 -91 1556 -91 
Q 1019 -91 701 211 
Q 384 513 384 1019 
Q 384 1609 779 1909 
Q 1175 2209 1959 2209 
L 2766 2209 
L 2766 2266 
Q 2766 2663 2505 2880 
Q 2244 3097 1772 3097 
Q 1472 3097 1187 3025 
Q 903 2953 641 2809 
L 641 3341 
Q 956 3463 1253 3523 
Q 1550 3584 1831 3584 
Q 2591 3584 2966 3190 
Q 3341 2797 3341 1997 
z
" transform="scale(0.015625)"/>
       <path id="DejaVuSans-6e" d="M 3513 2113 
L 3513 0 
L 2938 0 
L 2938 2094 
Q 2938 2591 2744 2837 
Q 2550 3084 2163 3084 
Q 1697 3084 1428 2787 
Q 1159 2491 1159 1978 
L 1159 0 
L 581 0 
L 581 3500 
L 1159 3500 
L 1159 2956 
Q 1366 3272 1645 3428 
Q 1925 3584 2291 3584 
Q 2894 3584 3203 3211 
Q 3513 2838 3513 2113 
z
" transform="scale(0.015625)"/>
       <path id="DejaVuSans-73" d="M 2834 3397 
L 2834 2853 
Q 2591 2978 2328 3040 
Q 2066 3103 1784 3103 
Q 1356 3103 1142 2972 
Q 928 2841 928 2578 
Q 928 2378 1081 2264 
Q 1234 2150 1697 2047 
L 1894 2003 
Q 2506 1872 2764 1633 
Q 3022 1394 3022 966 
Q 3022 478 2636 193 
Q 2250 -91 1575 -91 
Q 1294 -91 989 -36 
Q 684 19 347 128 
L 347 722 
Q 666 556 975 473 
Q 1284 391 1588 391 
Q 1994 391 2212 530 
Q 2431 669 2431 922 
Q 2431 1156 2273 1281 
Q 2116 1406 1581 1522 
L 1381 1569 
Q 847 1681 609 1914 
Q 372 2147 372 2553 
Q 372 3047 722 3315 
Q 1072 3584 1716 3584 
Q 2034 3584 2315 3537 
Q 2597 3491 2834 3397 
z
" transform="scale(0.015625)"/>
       <path id="DejaVuSans-6c" d="M 603 4863 
L 1178 4863 
L 1178 0 
L 603 0 
L 603 4863 
z
" transform="scale(0.015625)"/>
       <path id="DejaVuSans-74" d="M 1172 4494 
L 1172 3500 
L 2356 3500 
L 2356 3053 
L 1172 3053 
L 1172 1153 
Q 1172 725 1289 603 
Q 1406 481 1766 481 
L 2356 481 
L 2356 0 
L 1766 0 
Q 1100 0 847 248 
Q 594 497 594 1153 
L 594 3053 
L 172 3053 
L 172 3500 
L 594 3500 
L 594 4494 
L 1172 4494 
z
" transform="scale(0.015625)"/>
       <path id="DejaVuSans-69" d="M 603 3500 
L 1178 3500 
L 1178 0 
L 603 0 
L 603 3500 
z
M 603 4863 
L 1178 4863 
L 1178 4134 
L 603 4134 
L 603 4863 
z
" transform="scale(0.015625)"/>
       <path id="DejaVuSans-6f" d="M 1959 3097 
Q 1497 3097 1228 2736 
Q 959 2375 959 1747 
Q 959 1119 1226 758 
Q 1494 397 1959 397 
Q 2419 397 2687 759 
Q 2956 1122 2956 1747 
Q 2956 2369 2687 2733 
Q 2419 3097 1959 3097 
z
M 1959 3584 
Q 2709 3584 3137 3096 
Q 3566 2609 3566 1747 
Q 3566 888 3137 398 
Q 2709 -91 1959 -91 
Q 1206 -91 779 398 
Q 353 888 353 1747 
Q 353 2609 779 3096 
Q 1206 3584 1959 3584 
z
" transform="scale(0.015625)"/>
       <path id="DejaVuSans-20" transform="scale(0.015625)"/>
       <path id="DejaVuSans-50" d="M 1259 4147 
L 1259 2394 
L 2053 2394 
Q 2494 2394 2734 2622 
Q 2975 2850 2975 3272 
Q 2975 3691 2734 3919 
Q 2494 4147 2053 4147 
L 1259 4147 
z
M 628 4666 
L 2053 4666 
Q 2838 4666 3239 4311 
Q 3641 3956 3641 3272 
Q 3641 2581 3239 2228 
Q 2838 1875 2053 1875 
L 1259 1875 
L 1259 0 
L 628 0 
L 628 4666 
z
" transform="scale(0.015625)"/>
       <path id="DejaVuSans-5b" d="M 550 4863 
L 1875 4863 
L 1875 4416 
L 1125 4416 
L 1125 -397 
L 1875 -397 
L 1875 -844 
L 550 -844 
L 550 4863 
z
" transform="scale(0.015625)"/>
       <path id="DejaVuSans-6d" d="M 3328 2828 
Q 3544 3216 3844 3400 
Q 4144 3584 4550 3584 
Q 5097 3584 5394 3201 
Q 5691 2819 5691 2113 
L 5691 0 
L 5113 0 
L 5113 2094 
Q 5113 2597 4934 2840 
Q 4756 3084 4391 3084 
Q 3944 3084 3684 2787 
Q 3425 2491 3425 1978 
L 3425 0 
L 2847 0 
L 2847 2094 
Q 2847 2600 2669 2842 
Q 2491 3084 2119 3084 
Q 1678 3084 1418 2786 
Q 1159 2488 1159 1978 
L 1159 0 
L 581 0 
L 581 3500 
L 1159 3500 
L 1159 2956 
Q 1356 3278 1631 3431 
Q 1906 3584 2284 3584 
Q 2666 3584 2933 3390 
Q 3200 3197 3328 2828 
z
" transform="scale(0.015625)"/>
       <path id="DejaVuSans-5d" d="M 1947 4863 
L 1947 -844 
L 622 -844 
L 622 -397 
L 1369 -397 
L 1369 4416 
L 622 4416 
L 622 4863 
L 1947 4863 
z
" transform="scale(0.015625)"/>
      </defs>
      <use xlink:href="#DejaVuSans-54"/>
      <use xlink:href="#DejaVuSans-72" x="46.333984"/>
      <use xlink:href="#DejaVuSans-61" x="87.447266"/>
      <use xlink:href="#DejaVuSans-6e" x="148.726562"/>
      <use xlink:href="#DejaVuSans-73" x="212.105469"/>
      <use xlink:href="#DejaVuSans-6c" x="264.205078"/>
      <use xlink:href="#DejaVuSans-61" x="291.988281"/>
      <use xlink:href="#DejaVuSans-74" x="353.267578"/>
      <use xlink:href="#DejaVuSans-69" x="392.476562"/>
      <use xlink:href="#DejaVuSans-6f" x="420.259766"/>
      <use xlink:href="#DejaVuSans-6e" x="481.441406"/>
      <use xlink:href="#DejaVuSans-61" x="544.820312"/>
      <use xlink:href="#DejaVuSans-6c" x="606.099609"/>
      <use xlink:href="#DejaVuSans-20" x="633.882812"/>
      <use xlink:href="#DejaVuSans-50" x="665.669922"/>
      <use xlink:href="#DejaVuSans-6f" x="722.347656"/>
      <use xlink:href="#DejaVuSans-73" x="783.529297"/>
      <use xlink:href="#DejaVuSans-69" x="835.628906"/>
      <use xlink:href="#DejaVuSans-74" x="863.412109"/>
      <use xlink:href="#DejaVuSans-69" x="902.621094"/>
      <use xlink:href="#DejaVuSans-6f" x="930.404297"/>
      <use xlink:href="#DejaVuSans-6e" x="991.585938"/>
      <use xlink:href="#DejaVuSans-20" x="1054.964844"/>
      <use xlink:href="#DejaVuSans-5b" x="1086.751953"/>
      <use xlink:href="#DejaVuSans-6d" x="1125.765625"/>
      <use xlink:href="#DejaVuSans-6d" x="1223.177734"/>
      <use xlink:href="#DejaVuSans-5d" x="1320.589844"/>
     </g>
    </g>
   </g>
   <g id="matplotlib.axis_2">
    <g id="ytick_1">
     <g id="line2d_11">
      <path d="M 50.565625 265.157369 
L 450 265.157369 
" clip-path="url(#pd92219c5e9)" style="fill: none; stroke: #b0b0b0; stroke-width: 0.8; stroke-linecap: square"/>
     </g>
     <g id="line2d_12">
      <defs>
       <path id="m0485936618" d="M 0 0 
L -3.5 0 
" style="stroke: #000000; stroke-width: 0.8"/>
      </defs>
      <g>
       <use xlink:href="#m0485936618" x="50.565625" y="265.157369" style="stroke: #000000; stroke-width: 0.8"/>
      </g>
     </g>
     <g id="text_7">
      <!-- 0 -->
      <g transform="translate(37.203125 268.956587)scale(0.1 -0.1)">
       <use xlink:href="#DejaVuSans-30"/>
      </g>
     </g>
    </g>
    <g id="ytick_2">
     <g id="line2d_13">
      <path d="M 50.565625 218.444867 
L 450 218.444867 
" clip-path="url(#pd92219c5e9)" style="fill: none; stroke: #b0b0b0; stroke-width: 0.8; stroke-linecap: square"/>
     </g>
     <g id="line2d_14">
      <g>
       <use xlink:href="#m0485936618" x="50.565625" y="218.444867" style="stroke: #000000; stroke-width: 0.8"/>
      </g>
     </g>
     <g id="text_8">
      <!-- 20 -->
      <g transform="translate(30.840625 222.244086)scale(0.1 -0.1)">
       <use xlink:href="#DejaVuSans-32"/>
       <use xlink:href="#DejaVuSans-30" x="63.623047"/>
      </g>
     </g>
    </g>
    <g id="ytick_3">
     <g id="line2d_15">
      <path d="M 50.565625 171.732366 
L 450 171.732366 
" clip-path="url(#pd92219c5e9)" style="fill: none; stroke: #b0b0b0; stroke-width: 0.8; stroke-linecap: square"/>
     </g>
     <g id="line2d_16">
      <g>
       <use xlink:href="#m0485936618" x="50.565625" y="171.732366" style="stroke: #000000; stroke-width: 0.8"/>
      </g>
     </g>
     <g id="text_9">
      <!-- 40 -->
      <g transform="translate(30.840625 175.531585)scale(0.1 -0.1)">
       <use xlink:href="#DejaVuSans-34"/>
       <use xlink:href="#DejaVuSans-30" x="63.623047"/>
      </g>
     </g>
    </g>
    <g id="ytick_4">
     <g id="line2d_17">
      <path d="M 50.565625 125.019864 
L 450 125.019864 
" clip-path="url(#pd92219c5e9)" style="fill: none; stroke: #b0b0b0; stroke-width: 0.8; stroke-linecap: square"/>
     </g>
     <g id="line2d_18">
      <g>
       <use xlink:href="#m0485936618" x="50.565625" y="125.019864" style="stroke: #000000; stroke-width: 0.8"/>
      </g>
     </g>
     <g id="text_10">
      <!-- 60 -->
      <g transform="translate(30.840625 128.819083)scale(0.1 -0.1)">
       <defs>
        <path id="DejaVuSans-36" d="M 2113 2584 
Q 1688 2584 1439 2293 
Q 1191 2003 1191 1497 
Q 1191 994 1439 701 
Q 1688 409 2113 409 
Q 2538 409 2786 701 
Q 3034 994 3034 1497 
Q 3034 2003 2786 2293 
Q 2538 2584 2113 2584 
z
M 3366 4563 
L 3366 3988 
Q 3128 4100 2886 4159 
Q 2644 4219 2406 4219 
Q 1781 4219 1451 3797 
Q 1122 3375 1075 2522 
Q 1259 2794 1537 2939 
Q 1816 3084 2150 3084 
Q 2853 3084 3261 2657 
Q 3669 2231 3669 1497 
Q 3669 778 3244 343 
Q 2819 -91 2113 -91 
Q 1303 -91 875 529 
Q 447 1150 447 2328 
Q 447 3434 972 4092 
Q 1497 4750 2381 4750 
Q 2619 4750 2861 4703 
Q 3103 4656 3366 4563 
z
" transform="scale(0.015625)"/>
       </defs>
       <use xlink:href="#DejaVuSans-36"/>
       <use xlink:href="#DejaVuSans-30" x="63.623047"/>
      </g>
     </g>
    </g>
    <g id="ytick_5">
     <g id="line2d_19">
      <path d="M 50.565625 78.307363 
L 450 78.307363 
" clip-path="url(#pd92219c5e9)" style="fill: none; stroke: #b0b0b0; stroke-width: 0.8; stroke-linecap: square"/>
     </g>
     <g id="line2d_20">
      <g>
       <use xlink:href="#m0485936618" x="50.565625" y="78.307363" style="stroke: #000000; stroke-width: 0.8"/>
      </g>
     </g>
     <g id="text_11">
      <!-- 80 -->
      <g transform="translate(30.840625 82.106582)scale(0.1 -0.1)">
       <defs>
        <path id="DejaVuSans-38" d="M 2034 2216 
Q 1584 2216 1326 1975 
Q 1069 1734 1069 1313 
Q 1069 891 1326 650 
Q 1584 409 2034 409 
Q 2484 409 2743 651 
Q 3003 894 3003 1313 
Q 3003 1734 2745 1975 
Q 2488 2216 2034 2216 
z
M 1403 2484 
Q 997 2584 770 2862 
Q 544 3141 544 3541 
Q 544 4100 942 4425 
Q 1341 4750 2034 4750 
Q 2731 4750 3128 4425 
Q 3525 4100 3525 3541 
Q 3525 3141 3298 2862 
Q 3072 2584 2669 2484 
Q 3125 2378 3379 2068 
Q 3634 1759 3634 1313 
Q 3634 634 3220 271 
Q 2806 -91 2034 -91 
Q 1263 -91 848 271 
Q 434 634 434 1313 
Q 434 1759 690 2068 
Q 947 2378 1403 2484 
z
M 1172 3481 
Q 1172 3119 1398 2916 
Q 1625 2713 2034 2713 
Q 2441 2713 2670 2916 
Q 2900 3119 2900 3481 
Q 2900 3844 2670 4047 
Q 2441 4250 2034 4250 
Q 1625 4250 1398 4047 
Q 1172 3844 1172 3481 
z
" transform="scale(0.015625)"/>
       </defs>
       <use xlink:href="#DejaVuSans-38"/>
       <use xlink:href="#DejaVuSans-30" x="63.623047"/>
      </g>
     </g>
    </g>
    <g id="ytick_6">
     <g id="line2d_21">
      <path d="M 50.565625 31.594862 
L 450 31.594862 
" clip-path="url(#pd92219c5e9)" style="fill: none; stroke: #b0b0b0; stroke-width: 0.8; stroke-linecap: square"/>
     </g>
     <g id="line2d_22">
      <g>
       <use xlink:href="#m0485936618" x="50.565625" y="31.594862" style="stroke: #000000; stroke-width: 0.8"/>
      </g>
     </g>
     <g id="text_12">
      <!-- 100 -->
      <g transform="translate(24.478125 35.39408)scale(0.1 -0.1)">
       <use xlink:href="#DejaVuSans-31"/>
       <use xlink:href="#DejaVuSans-30" x="63.623047"/>
       <use xlink:href="#DejaVuSans-30" x="127.246094"/>
      </g>
     </g>
    </g>
    <g id="text_13">
     <!-- Wall Distance [mm] -->
     <g transform="translate(18.398438 214.330937)rotate(-90)scale(0.1 -0.1)">
      <defs>
       <path id="DejaVuSans-57" d="M 213 4666 
L 850 4666 
L 1831 722 
L 2809 4666 
L 3519 4666 
L 4500 722 
L 5478 4666 
L 6119 4666 
L 4947 0 
L 4153 0 
L 3169 4050 
L 2175 0 
L 1381 0 
L 213 4666 
z
" transform="scale(0.015625)"/>
       <path id="DejaVuSans-44" d="M 1259 4147 
L 1259 519 
L 2022 519 
Q 2988 519 3436 956 
Q 3884 1394 3884 2338 
Q 3884 3275 3436 3711 
Q 2988 4147 2022 4147 
L 1259 4147 
z
M 628 4666 
L 1925 4666 
Q 3281 4666 3915 4102 
Q 4550 3538 4550 2338 
Q 4550 1131 3912 565 
Q 3275 0 1925 0 
L 628 0 
L 628 4666 
z
" transform="scale(0.015625)"/>
       <path id="DejaVuSans-63" d="M 3122 3366 
L 3122 2828 
Q 2878 2963 2633 3030 
Q 2388 3097 2138 3097 
Q 1578 3097 1268 2742 
Q 959 2388 959 1747 
Q 959 1106 1268 751 
Q 1578 397 2138 397 
Q 2388 397 2633 464 
Q 2878 531 3122 666 
L 3122 134 
Q 2881 22 2623 -34 
Q 2366 -91 2075 -91 
Q 1284 -91 818 406 
Q 353 903 353 1747 
Q 353 2603 823 3093 
Q 1294 3584 2113 3584 
Q 2378 3584 2631 3529 
Q 2884 3475 3122 3366 
z
" transform="scale(0.015625)"/>
       <path id="DejaVuSans-65" d="M 3597 1894 
L 3597 1613 
L 953 1613 
Q 991 1019 1311 708 
Q 1631 397 2203 397 
Q 2534 397 2845 478 
Q 3156 559 3463 722 
L 3463 178 
Q 3153 47 2828 -22 
Q 2503 -91 2169 -91 
Q 1331 -91 842 396 
Q 353 884 353 1716 
Q 353 2575 817 3079 
Q 1281 3584 2069 3584 
Q 2775 3584 3186 3129 
Q 3597 2675 3597 1894 
z
M 3022 2063 
Q 3016 2534 2758 2815 
Q 2500 3097 2075 3097 
Q 1594 3097 1305 2825 
Q 1016 2553 972 2059 
L 3022 2063 
z
" transform="scale(0.015625)"/>
      </defs>
      <use xlink:href="#DejaVuSans-57"/>
      <use xlink:href="#DejaVuSans-61" x="92.501953"/>
      <use xlink:href="#DejaVuSans-6c" x="153.78125"/>
      <use xlink:href="#DejaVuSans-6c" x="181.564453"/>
      <use xlink:href="#DejaVuSans-20" x="209.347656"/>
      <use xlink:href="#DejaVuSans-44" x="241.134766"/>
      <use xlink:href="#DejaVuSans-69" x="318.136719"/>
      <use xlink:href="#DejaVuSans-73" x="345.919922"/>
      <use xlink:href="#DejaVuSans-74" x="398.019531"/>
      <use xlink:href="#DejaVuSans-61" x="437.228516"/>
      <use xlink:href="#DejaVuSans-6e" x="498.507812"/>
      <use xlink:href="#DejaVuSans-63" x="561.886719"/>
      <use xlink:href="#DejaVuSans-65" x="616.867188"/>
      <use xlink:href="#DejaVuSans-20" x="678.390625"/>
      <use xlink:href="#DejaVuSans-5b" x="710.177734"/>
      <use xlink:href="#DejaVuSans-6d" x="749.191406"/>
      <use xlink:href="#DejaVuSans-6d" x="846.603516"/>
      <use xlink:href="#DejaVuSans-5d" x="944.015625"/>
     </g>
    </g>
   </g>
   <g id="line2d_23">
    <path d="M 68.721733 75.761532 
L 121.45514 75.761532 
L 121.939303 155.289565 
L 122.423466 186.166529 
L 122.907628 203.380085 
L 123.875954 225.545167 
L 125.328443 249.609112 
L 126.296769 261.892165 
L 126.780932 268.100256 
L 127.749257 276.615945 
L 128.717583 283.309847 
L 129.685909 287.740527 
L 130.654235 289.307732 
L 131.138397 289.447869 
L 131.62256 289.074169 
L 132.106723 287.873658 
L 132.590886 285.61978 
L 134.043375 274.630664 
L 135.0117 264.415574 
L 135.980026 249.515687 
L 136.464189 239.138505 
L 136.948352 225.545167 
L 137.432515 206.673317 
L 137.916678 179.253079 
L 138.400841 108.880695 
L 138.885003 75.761532 
L 224.057323 75.761532 
L 224.541486 153.070722 
L 225.025649 188.408729 
L 225.509812 207.444073 
L 226.478138 227.180105 
L 227.446463 242.768067 
L 228.414789 254.067821 
L 230.835604 277.412393 
L 231.319766 282.781995 
L 231.803929 286.547023 
L 233.740581 291.012738 
L 234.224744 291.269657 
L 234.708907 291.783494 
L 235.193069 291.456507 
L 235.677232 289.728144 
L 236.161395 287.446239 
L 237.129721 280.028293 
L 238.098047 269.784242 
L 239.066372 256.335713 
L 240.034698 240.16618 
L 241.003024 217.417192 
L 241.97135 185.395772 
L 242.455513 148.025771 
L 242.939676 75.761532 
L 324.763202 75.761532 
L 325.247365 153.070722 
L 326.215691 184.60166 
L 327.184016 204.664679 
L 327.668179 209.289217 
L 328.152342 217.160273 
L 329.604831 233.906705 
L 332.025645 259.750397 
L 332.993971 268.100256 
L 334.44646 277.073728 
L 335.414785 281.175085 
L 335.898948 283.001544 
L 336.383111 283.949808 
L 336.867274 284.487002 
L 337.351437 284.37022 
L 337.8356 284.398248 
L 338.319763 283.737266 
L 338.803926 282.2775 
L 339.772251 277.337653 
L 340.740577 270.16962 
L 341.708903 259.81813 
L 342.193066 254.310726 
L 343.161391 238.180899 
L 343.645554 227.180105 
L 344.129717 213.002861 
L 344.61388 192.426004 
L 345.098043 159.330197 
L 345.582206 75.761532 
L 428.858221 75.761532 
L 429.26169 175.095666 
L 429.584465 210.363604 
L 429.745853 210.363604 
L 430.552791 243.468754 
L 430.794872 249.422262 
L 431.763198 271.244007 
L 431.843892 286.547023 
L 431.843892 286.353166 
" clip-path="url(#pd92219c5e9)" style="fill: none; stroke: #1f77b4; stroke-width: 1.5; stroke-linecap: square"/>
   </g>
   <g id="line2d_24">
    <path d="M 68.721733 45.702037 
L 431.843892 45.702037 
L 431.843892 45.702037 
" clip-path="url(#pd92219c5e9)" style="fill: none; stroke: #ff7f0e; stroke-width: 1.5; stroke-linecap: square"/>
   </g>
   <g id="line2d_25">
    <path d="M 68.721733 38.578381 
L 137.916678 38.578381 
L 138.400841 59.458869 
L 138.885003 38.578381 
L 139.369166 59.458869 
L 139.853329 38.578381 
L 140.821655 38.578381 
L 141.305818 107.969801 
L 141.789981 38.578381 
L 142.758307 38.578381 
L 143.726632 120.185121 
L 144.210795 38.578381 
L 144.694958 80.339357 
L 145.179121 38.578381 
L 145.663284 38.578381 
L 146.147447 110.84262 
L 146.63161 104.793351 
L 147.115772 118.106414 
L 147.599935 143.938428 
L 148.084098 118.106414 
L 148.568261 140.06129 
L 149.052424 123.945477 
L 149.576934 122.123689 
L 150.061097 122.123689 
L 150.545259 120.185121 
L 151.029422 122.123689 
L 151.513585 113.45852 
L 151.997748 131.723108 
L 152.481911 101.243201 
L 152.966074 92.578032 
L 153.450237 92.578032 
L 153.9344 127.308777 
L 154.418563 38.578381 
L 154.902725 80.339357 
L 155.386888 38.578381 
L 158.291866 38.578381 
L 158.776028 115.864214 
L 159.260191 38.578381 
L 159.744354 138.986902 
L 160.228517 71.674188 
L 160.71268 140.06129 
L 161.196843 104.793351 
L 161.681006 104.793351 
L 162.165169 87.065957 
L 162.649331 146.577684 
L 163.133494 92.578032 
L 163.617657 97.225926 
L 164.10182 71.674188 
L 164.585983 122.123689 
L 165.070146 38.578381 
L 166.038472 38.578381 
L 166.522634 110.84262 
L 167.006797 38.578381 
L 167.49096 59.458869 
L 167.975123 38.578381 
L 244.876327 38.578381 
L 245.36049 87.065957 
L 245.844653 38.578381 
L 246.328816 80.339357 
L 246.812979 101.243201 
L 247.297141 80.339357 
L 247.781304 113.45852 
L 248.265467 104.793351 
L 248.74963 104.793351 
L 249.233793 115.864214 
L 249.717956 118.106414 
L 250.202119 122.123689 
L 250.686282 127.308777 
L 251.170444 122.123689 
L 251.654607 133.054415 
L 252.13877 127.308777 
L 252.622933 107.969801 
L 253.107096 107.969801 
L 253.591259 120.185121 
L 254.075422 122.123689 
L 254.559585 122.123689 
L 255.043747 125.673839 
L 255.52791 155.850115 
L 256.012073 147.395153 
L 256.496236 153.304284 
L 256.980399 148.983378 
L 257.464562 155.242853 
L 257.948725 155.242853 
L 258.432888 167.878584 
L 258.917051 155.242853 
L 259.401213 156.457378 
L 259.885376 155.242853 
L 260.369539 162.459934 
L 260.853702 155.850115 
L 261.337865 163.908022 
L 261.822028 155.850115 
L 262.306191 159.330197 
L 262.790354 153.958259 
L 263.274516 158.232453 
L 264.242842 134.339008 
L 264.727005 133.054415 
L 265.211168 136.768059 
L 265.695331 133.054415 
L 266.179494 136.768059 
L 266.663657 142.069927 
L 267.147819 157.06464 
L 267.631982 133.054415 
L 268.116145 134.339008 
L 268.600308 122.123689 
L 269.568634 122.123689 
L 270.052797 118.106414 
L 270.53696 107.969801 
L 271.021122 127.308777 
L 271.505285 38.578381 
L 271.989448 80.339357 
L 272.473611 38.578381 
L 348.487183 38.578381 
L 348.971346 71.674188 
L 349.455509 38.578381 
L 349.939672 59.458869 
L 350.423835 143.027534 
L 350.907997 118.106414 
L 351.39216 125.673839 
L 351.876323 122.123689 
L 352.360486 125.673839 
L 352.844649 130.321733 
L 353.328812 154.612234 
L 353.812975 142.069927 
L 354.297138 143.938428 
L 354.781301 144.849321 
L 355.265463 159.330197 
L 355.749626 150.478178 
L 356.233789 122.123689 
L 356.717952 140.06129 
L 357.202115 143.027534 
L 357.686278 143.027534 
L 358.170441 38.578381 
L 358.654604 148.189265 
L 359.138766 160.941778 
L 359.622929 161.455616 
L 360.107092 162.459934 
L 360.591255 166.173578 
L 361.075418 162.950416 
L 361.559581 169.863866 
L 362.043744 163.440897 
L 362.527907 169.093109 
L 363.496232 158.232453 
L 363.980395 163.908022 
L 364.464558 164.842272 
L 364.948721 157.06464 
L 365.432884 155.850115 
L 365.917047 158.232453 
L 366.40121 157.648547 
L 366.885372 155.242853 
L 367.369535 162.459934 
L 367.853698 164.842272 
L 368.822024 163.908022 
L 369.306187 169.863866 
L 369.79035 161.455616 
L 370.274513 158.793003 
L 370.758676 158.232453 
L 371.242838 158.793003 
L 371.727001 158.232453 
L 372.211164 155.242853 
L 372.695327 156.457378 
L 373.17949 152.626953 
L 373.663653 120.185121 
L 374.147816 120.185121 
L 374.631979 110.84262 
L 375.116141 38.578381 
L 376.084467 125.673839 
L 376.56863 118.106414 
L 377.052793 92.578032 
L 377.536956 38.578381 
L 378.021119 107.969801 
L 378.505282 38.578381 
L 402.713426 38.578381 
L 403.197588 87.065957 
L 403.681751 38.578381 
L 424.581449 38.578381 
L 424.904224 59.458869 
L 425.226999 38.578381 
L 425.469081 80.339357 
L 425.791856 38.578381 
L 428.293364 38.578381 
L 428.454752 122.123689 
L 428.696833 38.578381 
L 428.858221 87.065957 
L 429.100302 38.578381 
L 430.068628 38.578381 
L 430.149322 115.864214 
L 430.31071 122.123689 
L 430.472097 122.123689 
L 430.552791 120.185121 
L 430.875566 125.673839 
L 431.036954 38.578381 
L 431.359729 38.578381 
L 431.359729 128.85029 
L 431.440423 127.308777 
L 431.521117 123.945477 
L 431.521117 135.57689 
L 431.601811 127.308777 
L 431.682504 141.065609 
L 431.682504 38.578381 
L 431.763198 123.945477 
L 431.843892 147.395153 
L 431.843892 120.185121 
L 431.843892 128.85029 
L 431.843892 38.578381 
L 431.843892 154.612234 
L 431.843892 142.069927 
" clip-path="url(#pd92219c5e9)" style="fill: none; stroke: #2ca02c; stroke-width: 1.5; stroke-linecap: square"/>
   </g>
   <g id="line2d_26">
    <path d="M 68.721733 285.225059 
L 68.880296 285.19236 
L 68.943157 285.225059 
L 68.979953 284.764941 
L 69.11447 285.355854 
L 69.16797 284.832674 
L 69.226069 285.355854 
L 69.683603 285.45395 
L 70.22748 285.710869 
L 70.636597 285.776267 
L 70.786688 285.486649 
L 71.11027 285.743568 
L 71.462095 285.839329 
L 71.843777 285.552047 
L 72.045511 285.19236 
L 72.253701 284.566413 
L 72.469961 284.566413 
L 72.693482 282.777324 
L 72.924267 282.777324 
L 73.406816 279.804073 
L 73.919221 275.616298 
L 75.325715 259.493478 
L 75.939795 250.230389 
L 76.582117 238.67138 
L 77.251069 224.961261 
L 77.953105 202.35241 
L 78.316227 189.08606 
L 78.687419 159.003209 
L 79.05861 79.451819 
L 172.332589 79.451819 
L 172.816752 142.11664 
L 173.300915 184.835222 
L 174.269241 215.081567 
L 174.753403 224.727699 
L 176.205892 245.374624 
L 177.577687 261.994932 
L 178.546013 270.646087 
L 179.514338 276.76309 
L 180.482664 280.953201 
L 180.966827 282.529748 
L 181.45099 283.615813 
L 181.935153 283.95915 
L 182.419316 283.615813 
L 182.903479 282.457343 
L 183.387641 280.423014 
L 183.871804 277.823463 
L 184.355967 274.331704 
L 184.84013 270.003791 
L 185.808456 257.594615 
L 186.292619 250.230389 
L 187.260944 230.870393 
L 187.745107 218.841923 
L 188.22927 203.356729 
L 188.713433 171.218528 
L 189.197596 79.451819 
L 276.346914 79.451819 
L 276.831077 163.020484 
L 277.31524 156.761009 
L 277.799403 205.715711 
L 278.767729 227.950861 
L 280.70438 255.828882 
L 282.156869 267.876036 
L 283.125194 274.934295 
L 284.09352 280.497754 
L 285.061846 284.996168 
L 285.546009 286.348495 
L 286.030172 286.845983 
L 286.514335 286.939408 
L 286.998497 286.411557 
L 287.48266 283.305175 
L 287.966823 283.305175 
L 288.935149 279.052002 
L 289.903475 272.094175 
L 290.871801 261.063018 
L 291.840126 248.069936 
L 292.808452 229.235455 
L 293.292615 217.954386 
L 294.260941 178.785954 
L 294.745104 138.099365 
L 295.229266 79.451819 
L 380.926096 79.451819 
L 381.410259 197.354173 
L 381.894422 197.354173 
L 382.378585 221.66803 
L 382.862747 221.66803 
L 384.315236 244.379648 
L 385.767725 261.852459 
L 387.220213 275.02772 
L 388.188539 281.439011 
L 388.672702 283.615813 
L 389.156865 286.909045 
L 389.641028 286.909045 
L 390.125191 287.822274 
L 390.609354 288.060508 
L 391.093516 287.822274 
L 391.577679 286.691832 
L 392.061842 284.963469 
L 392.546005 282.599817 
L 393.514331 275.163186 
L 393.998494 270.963732 
L 395.450982 252.246033 
L 396.419308 237.106511 
L 396.903471 214.731223 
L 397.387634 214.731223 
L 397.871797 192.099016 
L 398.35596 192.099016 
L 399.324285 164.842272 
L 399.808448 161.081916 
L 400.292611 121.236152 
L 400.776774 112.570983 
L 401.260937 79.451819 
L 431.359729 79.451819 
L 431.359729 148.84324 
L 431.440423 145.66679 
L 431.521117 156.761009 
L 431.521117 148.84324 
L 431.682504 156.761009 
L 431.682504 148.84324 
L 431.763198 178.785954 
L 431.763198 177.641497 
L 431.843892 172.619903 
L 431.843892 163.020484 
L 431.843892 191.374973 
L 431.843892 187.451123 
" clip-path="url(#pd92219c5e9)" style="fill: none; stroke: #d62728; stroke-width: 1.5; stroke-linecap: square"/>
   </g>
   <g id="patch_3">
    <path d="M 50.565625 304.44375 
L 50.565625 25.918125 
" style="fill: none; stroke: #000000; stroke-width: 0.8; stroke-linejoin: miter; stroke-linecap: square"/>
   </g>
   <g id="patch_4">
    <path d="M 450 304.44375 
L 450 25.918125 
" style="fill: none; stroke: #000000; stroke-width: 0.8; stroke-linejoin: miter; stroke-linecap: square"/>
   </g>
   <g id="patch_5">
    <path d="M 50.565625 304.44375 
L 450 304.44375 
" style="fill: none; stroke: #000000; stroke-width: 0.8; stroke-linejoin: miter; stroke-linecap: square"/>
   </g>
   <g id="patch_6">
    <path d="M 50.565625 25.918125 
L 450 25.918125 
" style="fill: none; stroke: #000000; stroke-width: 0.8; stroke-linejoin: miter; stroke-linecap: square"/>
   </g>
   <g id="text_14">
    <!-- Wall Distance [mm] -->
    <g transform="translate(191.302812 19.918125)scale(0.12 -0.12)">
     <use xlink:href="#DejaVuSans-57"/>
     <use xlink:href="#DejaVuSans-61" x="92.501953"/>
     <use xlink:href="#DejaVuSans-6c" x="153.78125"/>
     <use xlink:href="#DejaVuSans-6c" x="181.564453"/>
     <use xlink:href="#DejaVuSans-20" x="209.347656"/>
     <use xlink:href="#DejaVuSans-44" x="241.134766"/>
     <use xlink:href="#DejaVuSans-69" x="318.136719"/>
     <use xlink:href="#DejaVuSans-73" x="345.919922"/>
     <use xlink:href="#DejaVuSans-74" x="398.019531"/>
     <use xlink:href="#DejaVuSans-61" x="437.228516"/>
     <use xlink:href="#DejaVuSans-6e" x="498.507812"/>
     <use xlink:href="#DejaVuSans-63" x="561.886719"/>
     <use xlink:href="#DejaVuSans-65" x="616.867188"/>
     <use xlink:href="#DejaVuSans-20" x="678.390625"/>
     <use xlink:href="#DejaVuSans-5b" x="710.177734"/>
     <use xlink:href="#DejaVuSans-6d" x="749.191406"/>
     <use xlink:href="#DejaVuSans-6d" x="846.603516"/>
     <use xlink:href="#DejaVuSans-5d" x="944.015625"/>
    </g>
   </g>
   <g id="legend_1">
    <g id="patch_7">
     <path d="M 57.565625 196.037187 
L 144.365625 196.037187 
Q 146.365625 196.037187 146.365625 194.037187 
L 146.365625 136.324687 
Q 146.365625 134.324687 144.365625 134.324687 
L 57.565625 134.324687 
Q 55.565625 134.324687 55.565625 136.324687 
L 55.565625 194.037187 
Q 55.565625 196.037187 57.565625 196.037187 
z
" style="fill: #ffffff; opacity: 0.8; stroke: #cccccc; stroke-linejoin: miter"/>
    </g>
    <g id="line2d_27">
     <path d="M 59.565625 142.423125 
L 69.565625 142.423125 
L 79.565625 142.423125 
" style="fill: none; stroke: #1f77b4; stroke-width: 1.5; stroke-linecap: square"/>
    </g>
    <g id="text_15">
     <!-- Left Side -->
     <g transform="translate(87.565625 145.923125)scale(0.1 -0.1)">
      <defs>
       <path id="DejaVuSans-4c" d="M 628 4666 
L 1259 4666 
L 1259 531 
L 3531 531 
L 3531 0 
L 628 0 
L 628 4666 
z
" transform="scale(0.015625)"/>
       <path id="DejaVuSans-66" d="M 2375 4863 
L 2375 4384 
L 1825 4384 
Q 1516 4384 1395 4259 
Q 1275 4134 1275 3809 
L 1275 3500 
L 2222 3500 
L 2222 3053 
L 1275 3053 
L 1275 0 
L 697 0 
L 697 3053 
L 147 3053 
L 147 3500 
L 697 3500 
L 697 3744 
Q 697 4328 969 4595 
Q 1241 4863 1831 4863 
L 2375 4863 
z
" transform="scale(0.015625)"/>
       <path id="DejaVuSans-53" d="M 3425 4513 
L 3425 3897 
Q 3066 4069 2747 4153 
Q 2428 4238 2131 4238 
Q 1616 4238 1336 4038 
Q 1056 3838 1056 3469 
Q 1056 3159 1242 3001 
Q 1428 2844 1947 2747 
L 2328 2669 
Q 3034 2534 3370 2195 
Q 3706 1856 3706 1288 
Q 3706 609 3251 259 
Q 2797 -91 1919 -91 
Q 1588 -91 1214 -16 
Q 841 59 441 206 
L 441 856 
Q 825 641 1194 531 
Q 1563 422 1919 422 
Q 2459 422 2753 634 
Q 3047 847 3047 1241 
Q 3047 1584 2836 1778 
Q 2625 1972 2144 2069 
L 1759 2144 
Q 1053 2284 737 2584 
Q 422 2884 422 3419 
Q 422 4038 858 4394 
Q 1294 4750 2059 4750 
Q 2388 4750 2728 4690 
Q 3069 4631 3425 4513 
z
" transform="scale(0.015625)"/>
       <path id="DejaVuSans-64" d="M 2906 2969 
L 2906 4863 
L 3481 4863 
L 3481 0 
L 2906 0 
L 2906 525 
Q 2725 213 2448 61 
Q 2172 -91 1784 -91 
Q 1150 -91 751 415 
Q 353 922 353 1747 
Q 353 2572 751 3078 
Q 1150 3584 1784 3584 
Q 2172 3584 2448 3432 
Q 2725 3281 2906 2969 
z
M 947 1747 
Q 947 1113 1208 752 
Q 1469 391 1925 391 
Q 2381 391 2643 752 
Q 2906 1113 2906 1747 
Q 2906 2381 2643 2742 
Q 2381 3103 1925 3103 
Q 1469 3103 1208 2742 
Q 947 2381 947 1747 
z
" transform="scale(0.015625)"/>
      </defs>
      <use xlink:href="#DejaVuSans-4c"/>
      <use xlink:href="#DejaVuSans-65" x="53.962891"/>
      <use xlink:href="#DejaVuSans-66" x="115.486328"/>
      <use xlink:href="#DejaVuSans-74" x="148.941406"/>
      <use xlink:href="#DejaVuSans-20" x="188.150391"/>
      <use xlink:href="#DejaVuSans-53" x="219.9375"/>
      <use xlink:href="#DejaVuSans-69" x="283.414062"/>
      <use xlink:href="#DejaVuSans-64" x="311.197266"/>
      <use xlink:href="#DejaVuSans-65" x="374.673828"/>
     </g>
    </g>
    <g id="line2d_28">
     <path d="M 59.565625 157.10125 
L 69.565625 157.10125 
L 79.565625 157.10125 
" style="fill: none; stroke: #ff7f0e; stroke-width: 1.5; stroke-linecap: square"/>
    </g>
    <g id="text_16">
     <!-- Left Front -->
     <g transform="translate(87.565625 160.60125)scale(0.1 -0.1)">
      <defs>
       <path id="DejaVuSans-46" d="M 628 4666 
L 3309 4666 
L 3309 4134 
L 1259 4134 
L 1259 2759 
L 3109 2759 
L 3109 2228 
L 1259 2228 
L 1259 0 
L 628 0 
L 628 4666 
z
" transform="scale(0.015625)"/>
      </defs>
      <use xlink:href="#DejaVuSans-4c"/>
      <use xlink:href="#DejaVuSans-65" x="53.962891"/>
      <use xlink:href="#DejaVuSans-66" x="115.486328"/>
      <use xlink:href="#DejaVuSans-74" x="148.941406"/>
      <use xlink:href="#DejaVuSans-20" x="188.150391"/>
      <use xlink:href="#DejaVuSans-46" x="219.9375"/>
      <use xlink:href="#DejaVuSans-72" x="270.207031"/>
      <use xlink:href="#DejaVuSans-6f" x="309.070312"/>
      <use xlink:href="#DejaVuSans-6e" x="370.251953"/>
      <use xlink:href="#DejaVuSans-74" x="433.630859"/>
     </g>
    </g>
    <g id="line2d_29">
     <path d="M 59.565625 171.779375 
L 69.565625 171.779375 
L 79.565625 171.779375 
" style="fill: none; stroke: #2ca02c; stroke-width: 1.5; stroke-linecap: square"/>
    </g>
    <g id="text_17">
     <!-- Right Front -->
     <g transform="translate(87.565625 175.279375)scale(0.1 -0.1)">
      <defs>
       <path id="DejaVuSans-52" d="M 2841 2188 
Q 3044 2119 3236 1894 
Q 3428 1669 3622 1275 
L 4263 0 
L 3584 0 
L 2988 1197 
Q 2756 1666 2539 1819 
Q 2322 1972 1947 1972 
L 1259 1972 
L 1259 0 
L 628 0 
L 628 4666 
L 2053 4666 
Q 2853 4666 3247 4331 
Q 3641 3997 3641 3322 
Q 3641 2881 3436 2590 
Q 3231 2300 2841 2188 
z
M 1259 4147 
L 1259 2491 
L 2053 2491 
Q 2509 2491 2742 2702 
Q 2975 2913 2975 3322 
Q 2975 3731 2742 3939 
Q 2509 4147 2053 4147 
L 1259 4147 
z
" transform="scale(0.015625)"/>
       <path id="DejaVuSans-67" d="M 2906 1791 
Q 2906 2416 2648 2759 
Q 2391 3103 1925 3103 
Q 1463 3103 1205 2759 
Q 947 2416 947 1791 
Q 947 1169 1205 825 
Q 1463 481 1925 481 
Q 2391 481 2648 825 
Q 2906 1169 2906 1791 
z
M 3481 434 
Q 3481 -459 3084 -895 
Q 2688 -1331 1869 -1331 
Q 1566 -1331 1297 -1286 
Q 1028 -1241 775 -1147 
L 775 -588 
Q 1028 -725 1275 -790 
Q 1522 -856 1778 -856 
Q 2344 -856 2625 -561 
Q 2906 -266 2906 331 
L 2906 616 
Q 2728 306 2450 153 
Q 2172 0 1784 0 
Q 1141 0 747 490 
Q 353 981 353 1791 
Q 353 2603 747 3093 
Q 1141 3584 1784 3584 
Q 2172 3584 2450 3431 
Q 2728 3278 2906 2969 
L 2906 3500 
L 3481 3500 
L 3481 434 
z
" transform="scale(0.015625)"/>
       <path id="DejaVuSans-68" d="M 3513 2113 
L 3513 0 
L 2938 0 
L 2938 2094 
Q 2938 2591 2744 2837 
Q 2550 3084 2163 3084 
Q 1697 3084 1428 2787 
Q 1159 2491 1159 1978 
L 1159 0 
L 581 0 
L 581 4863 
L 1159 4863 
L 1159 2956 
Q 1366 3272 1645 3428 
Q 1925 3584 2291 3584 
Q 2894 3584 3203 3211 
Q 3513 2838 3513 2113 
z
" transform="scale(0.015625)"/>
      </defs>
      <use xlink:href="#DejaVuSans-52"/>
      <use xlink:href="#DejaVuSans-69" x="69.482422"/>
      <use xlink:href="#DejaVuSans-67" x="97.265625"/>
      <use xlink:href="#DejaVuSans-68" x="160.742188"/>
      <use xlink:href="#DejaVuSans-74" x="224.121094"/>
      <use xlink:href="#DejaVuSans-20" x="263.330078"/>
      <use xlink:href="#DejaVuSans-46" x="295.117188"/>
      <use xlink:href="#DejaVuSans-72" x="345.386719"/>
      <use xlink:href="#DejaVuSans-6f" x="384.25"/>
      <use xlink:href="#DejaVuSans-6e" x="445.431641"/>
      <use xlink:href="#DejaVuSans-74" x="508.810547"/>
     </g>
    </g>
    <g id="line2d_30">
     <path d="M 59.565625 186.4575 
L 69.565625 186.4575 
L 79.565625 186.4575 
" style="fill: none; stroke: #d62728; stroke-width: 1.5; stroke-linecap: square"/>
    </g>
    <g id="text_18">
     <!-- Right Side -->
     <g transform="translate(87.565625 189.9575)scale(0.1 -0.1)">
      <use xlink:href="#DejaVuSans-52"/>
      <use xlink:href="#DejaVuSans-69" x="69.482422"/>
      <use xlink:href="#DejaVuSans-67" x="97.265625"/>
      <use xlink:href="#DejaVuSans-68" x="160.742188"/>
      <use xlink:href="#DejaVuSans-74" x="224.121094"/>
      <use xlink:href="#DejaVuSans-20" x="263.330078"/>
      <use xlink:href="#DejaVuSans-53" x="295.117188"/>
      <use xlink:href="#DejaVuSans-69" x="358.59375"/>
      <use xlink:href="#DejaVuSans-64" x="386.376953"/>
      <use xlink:href="#DejaVuSans-65" x="449.853516"/>
     </g>
    </g>
   </g>
  </g>
 </g>
 <defs>
  <clipPath id="pd92219c5e9">
   <rect x="50.565625" y="25.918125" width="399.434375" height="278.525625"/>
  </clipPath>
 </defs>
</svg>
