<?xml version="1.0" encoding="utf-8" standalone="no"?>
<!DOCTYPE svg PUBLIC "-//W3C//DTD SVG 1.1//EN"
  "http://www.w3.org/Graphics/SVG/1.1/DTD/svg11.dtd">
<svg xmlns:xlink="http://www.w3.org/1999/xlink" width="460.8pt" height="345.6pt" viewBox="0 0 460.8 345.6" xmlns="http://www.w3.org/2000/svg" version="1.1">
 <metadata>
  <rdf:RDF xmlns:dc="http://purl.org/dc/elements/1.1/" xmlns:cc="http://creativecommons.org/ns#" xmlns:rdf="http://www.w3.org/1999/02/22-rdf-syntax-ns#">
   <cc:Work>
    <dc:type rdf:resource="http://purl.org/dc/dcmitype/StillImage"/>
    <dc:date>2022-01-16T03:26:19.440002</dc:date>
    <dc:format>image/svg+xml</dc:format>
    <dc:creator>
     <cc:Agent>
      <dc:title>Matplotlib v3.5.1, https://matplotlib.org/</dc:title>
     </cc:Agent>
    </dc:creator>
   </cc:Work>
  </rdf:RDF>
 </metadata>
 <defs>
  <style type="text/css">*{stroke-linejoin: round; stroke-linecap: butt}</style>
 </defs>
 <g id="figure_1">
  <g id="patch_1">
   <path d="M 0 345.6 
L 460.8 345.6 
L 460.8 0 
L 0 0 
z
" style="fill: #ffffff"/>
  </g>
  <g id="axes_1">
   <g id="patch_2">
    <path d="M 50.565625 161.67875 
L 442.626962 161.67875 
L 442.626962 33.21375 
L 50.565625 33.21375 
z
" style="fill: #ffffff"/>
   </g>
   <g id="matplotlib.axis_1">
    <g id="xtick_1">
     <g id="line2d_1">
      <path d="M 68.386595 161.67875 
L 68.386595 33.21375 
" clip-path="url(#p06d9741d2c)" style="fill: none; stroke: #b0b0b0; stroke-width: 0.8; stroke-linecap: square"/>
     </g>
     <g id="line2d_2">
      <defs>
       <path id="m83c47eac73" d="M 0 0 
L 0 3.5 
" style="stroke: #000000; stroke-width: 0.8"/>
      </defs>
      <g>
       <use xlink:href="#m83c47eac73" x="68.386595" y="161.67875" style="stroke: #000000; stroke-width: 0.8"/>
      </g>
     </g>
    </g>
    <g id="xtick_2">
     <g id="line2d_3">
      <path d="M 143.107643 161.67875 
L 143.107643 33.21375 
" clip-path="url(#p06d9741d2c)" style="fill: none; stroke: #b0b0b0; stroke-width: 0.8; stroke-linecap: square"/>
     </g>
     <g id="line2d_4">
      <g>
       <use xlink:href="#m83c47eac73" x="143.107643" y="161.67875" style="stroke: #000000; stroke-width: 0.8"/>
      </g>
     </g>
    </g>
    <g id="xtick_3">
     <g id="line2d_5">
      <path d="M 217.82869 161.67875 
L 217.82869 33.21375 
" clip-path="url(#p06d9741d2c)" style="fill: none; stroke: #b0b0b0; stroke-width: 0.8; stroke-linecap: square"/>
     </g>
     <g id="line2d_6">
      <g>
       <use xlink:href="#m83c47eac73" x="217.82869" y="161.67875" style="stroke: #000000; stroke-width: 0.8"/>
      </g>
     </g>
    </g>
    <g id="xtick_4">
     <g id="line2d_7">
      <path d="M 292.549738 161.67875 
L 292.549738 33.21375 
" clip-path="url(#p06d9741d2c)" style="fill: none; stroke: #b0b0b0; stroke-width: 0.8; stroke-linecap: square"/>
     </g>
     <g id="line2d_8">
      <g>
       <use xlink:href="#m83c47eac73" x="292.549738" y="161.67875" style="stroke: #000000; stroke-width: 0.8"/>
      </g>
     </g>
    </g>
    <g id="xtick_5">
     <g id="line2d_9">
      <path d="M 367.270786 161.67875 
L 367.270786 33.21375 
" clip-path="url(#p06d9741d2c)" style="fill: none; stroke: #b0b0b0; stroke-width: 0.8; stroke-linecap: square"/>
     </g>
     <g id="line2d_10">
      <g>
       <use xlink:href="#m83c47eac73" x="367.270786" y="161.67875" style="stroke: #000000; stroke-width: 0.8"/>
      </g>
     </g>
    </g>
    <g id="xtick_6">
     <g id="line2d_11">
      <path d="M 441.991833 161.67875 
L 441.991833 33.21375 
" clip-path="url(#p06d9741d2c)" style="fill: none; stroke: #b0b0b0; stroke-width: 0.8; stroke-linecap: square"/>
     </g>
     <g id="line2d_12">
      <g>
       <use xlink:href="#m83c47eac73" x="441.991833" y="161.67875" style="stroke: #000000; stroke-width: 0.8"/>
      </g>
     </g>
    </g>
   </g>
   <g id="matplotlib.axis_2">
    <g id="ytick_1">
     <g id="line2d_13">
      <path d="M 50.565625 152.485535 
L 442.626962 152.485535 
" clip-path="url(#p06d9741d2c)" style="fill: none; stroke: #b0b0b0; stroke-width: 0.8; stroke-linecap: square"/>
     </g>
     <g id="line2d_14">
      <defs>
       <path id="m64d59a091c" d="M 0 0 
L -3.5 0 
" style="stroke: #000000; stroke-width: 0.8"/>
      </defs>
      <g>
       <use xlink:href="#m64d59a091c" x="50.565625" y="152.485535" style="stroke: #000000; stroke-width: 0.8"/>
      </g>
     </g>
     <g id="text_1">
      <!-- 0 -->
      <g transform="translate(37.203125 156.284754)scale(0.1 -0.1)">
       <defs>
        <path id="DejaVuSans-30" d="M 2034 4250 
Q 1547 4250 1301 3770 
Q 1056 3291 1056 2328 
Q 1056 1369 1301 889 
Q 1547 409 2034 409 
Q 2525 409 2770 889 
Q 3016 1369 3016 2328 
Q 3016 3291 2770 3770 
Q 2525 4250 2034 4250 
z
M 2034 4750 
Q 2819 4750 3233 4129 
Q 3647 3509 3647 2328 
Q 3647 1150 3233 529 
Q 2819 -91 2034 -91 
Q 1250 -91 836 529 
Q 422 1150 422 2328 
Q 422 3509 836 4129 
Q 1250 4750 2034 4750 
z
" transform="scale(0.015625)"/>
       </defs>
       <use xlink:href="#DejaVuSans-30"/>
      </g>
     </g>
    </g>
    <g id="ytick_2">
     <g id="line2d_15">
      <path d="M 50.565625 119.875943 
L 442.626962 119.875943 
" clip-path="url(#p06d9741d2c)" style="fill: none; stroke: #b0b0b0; stroke-width: 0.8; stroke-linecap: square"/>
     </g>
     <g id="line2d_16">
      <g>
       <use xlink:href="#m64d59a091c" x="50.565625" y="119.875943" style="stroke: #000000; stroke-width: 0.8"/>
      </g>
     </g>
     <g id="text_2">
      <!-- 200 -->
      <g transform="translate(24.478125 123.675162)scale(0.1 -0.1)">
       <defs>
        <path id="DejaVuSans-32" d="M 1228 531 
L 3431 531 
L 3431 0 
L 469 0 
L 469 531 
Q 828 903 1448 1529 
Q 2069 2156 2228 2338 
Q 2531 2678 2651 2914 
Q 2772 3150 2772 3378 
Q 2772 3750 2511 3984 
Q 2250 4219 1831 4219 
Q 1534 4219 1204 4116 
Q 875 4013 500 3803 
L 500 4441 
Q 881 4594 1212 4672 
Q 1544 4750 1819 4750 
Q 2544 4750 2975 4387 
Q 3406 4025 3406 3419 
Q 3406 3131 3298 2873 
Q 3191 2616 2906 2266 
Q 2828 2175 2409 1742 
Q 1991 1309 1228 531 
z
" transform="scale(0.015625)"/>
       </defs>
       <use xlink:href="#DejaVuSans-32"/>
       <use xlink:href="#DejaVuSans-30" x="63.623047"/>
       <use xlink:href="#DejaVuSans-30" x="127.246094"/>
      </g>
     </g>
    </g>
    <g id="ytick_3">
     <g id="line2d_17">
      <path d="M 50.565625 87.266351 
L 442.626962 87.266351 
" clip-path="url(#p06d9741d2c)" style="fill: none; stroke: #b0b0b0; stroke-width: 0.8; stroke-linecap: square"/>
     </g>
     <g id="line2d_18">
      <g>
       <use xlink:href="#m64d59a091c" x="50.565625" y="87.266351" style="stroke: #000000; stroke-width: 0.8"/>
      </g>
     </g>
     <g id="text_3">
      <!-- 400 -->
      <g transform="translate(24.478125 91.065569)scale(0.1 -0.1)">
       <defs>
        <path id="DejaVuSans-34" d="M 2419 4116 
L 825 1625 
L 2419 1625 
L 2419 4116 
z
M 2253 4666 
L 3047 4666 
L 3047 1625 
L 3713 1625 
L 3713 1100 
L 3047 1100 
L 3047 0 
L 2419 0 
L 2419 1100 
L 313 1100 
L 313 1709 
L 2253 4666 
z
" transform="scale(0.015625)"/>
       </defs>
       <use xlink:href="#DejaVuSans-34"/>
       <use xlink:href="#DejaVuSans-30" x="63.623047"/>
       <use xlink:href="#DejaVuSans-30" x="127.246094"/>
      </g>
     </g>
    </g>
    <g id="ytick_4">
     <g id="line2d_19">
      <path d="M 50.565625 54.656758 
L 442.626962 54.656758 
" clip-path="url(#p06d9741d2c)" style="fill: none; stroke: #b0b0b0; stroke-width: 0.8; stroke-linecap: square"/>
     </g>
     <g id="line2d_20">
      <g>
       <use xlink:href="#m64d59a091c" x="50.565625" y="54.656758" style="stroke: #000000; stroke-width: 0.8"/>
      </g>
     </g>
     <g id="text_4">
      <!-- 600 -->
      <g transform="translate(24.478125 58.455977)scale(0.1 -0.1)">
       <defs>
        <path id="DejaVuSans-36" d="M 2113 2584 
Q 1688 2584 1439 2293 
Q 1191 2003 1191 1497 
Q 1191 994 1439 701 
Q 1688 409 2113 409 
Q 2538 409 2786 701 
Q 3034 994 3034 1497 
Q 3034 2003 2786 2293 
Q 2538 2584 2113 2584 
z
M 3366 4563 
L 3366 3988 
Q 3128 4100 2886 4159 
Q 2644 4219 2406 4219 
Q 1781 4219 1451 3797 
Q 1122 3375 1075 2522 
Q 1259 2794 1537 2939 
Q 1816 3084 2150 3084 
Q 2853 3084 3261 2657 
Q 3669 2231 3669 1497 
Q 3669 778 3244 343 
Q 2819 -91 2113 -91 
Q 1303 -91 875 529 
Q 447 1150 447 2328 
Q 447 3434 972 4092 
Q 1497 4750 2381 4750 
Q 2619 4750 2861 4703 
Q 3103 4656 3366 4563 
z
" transform="scale(0.015625)"/>
       </defs>
       <use xlink:href="#DejaVuSans-36"/>
       <use xlink:href="#DejaVuSans-30" x="63.623047"/>
       <use xlink:href="#DejaVuSans-30" x="127.246094"/>
      </g>
     </g>
    </g>
    <g id="text_5">
     <!-- trans. vel. [mm/s] -->
     <g transform="translate(18.398438 142.011875)rotate(-90)scale(0.1 -0.1)">
      <defs>
       <path id="DejaVuSans-74" d="M 1172 4494 
L 1172 3500 
L 2356 3500 
L 2356 3053 
L 1172 3053 
L 1172 1153 
Q 1172 725 1289 603 
Q 1406 481 1766 481 
L 2356 481 
L 2356 0 
L 1766 0 
Q 1100 0 847 248 
Q 594 497 594 1153 
L 594 3053 
L 172 3053 
L 172 3500 
L 594 3500 
L 594 4494 
L 1172 4494 
z
" transform="scale(0.015625)"/>
       <path id="DejaVuSans-72" d="M 2631 2963 
Q 2534 3019 2420 3045 
Q 2306 3072 2169 3072 
Q 1681 3072 1420 2755 
Q 1159 2438 1159 1844 
L 1159 0 
L 581 0 
L 581 3500 
L 1159 3500 
L 1159 2956 
Q 1341 3275 1631 3429 
Q 1922 3584 2338 3584 
Q 2397 3584 2469 3576 
Q 2541 3569 2628 3553 
L 2631 2963 
z
" transform="scale(0.015625)"/>
       <path id="DejaVuSans-61" d="M 2194 1759 
Q 1497 1759 1228 1600 
Q 959 1441 959 1056 
Q 959 750 1161 570 
Q 1363 391 1709 391 
Q 2188 391 2477 730 
Q 2766 1069 2766 1631 
L 2766 1759 
L 2194 1759 
z
M 3341 1997 
L 3341 0 
L 2766 0 
L 2766 531 
Q 2569 213 2275 61 
Q 1981 -91 1556 -91 
Q 1019 -91 701 211 
Q 384 513 384 1019 
Q 384 1609 779 1909 
Q 1175 2209 1959 2209 
L 2766 2209 
L 2766 2266 
Q 2766 2663 2505 2880 
Q 2244 3097 1772 3097 
Q 1472 3097 1187 3025 
Q 903 2953 641 2809 
L 641 3341 
Q 956 3463 1253 3523 
Q 1550 3584 1831 3584 
Q 2591 3584 2966 3190 
Q 3341 2797 3341 1997 
z
" transform="scale(0.015625)"/>
       <path id="DejaVuSans-6e" d="M 3513 2113 
L 3513 0 
L 2938 0 
L 2938 2094 
Q 2938 2591 2744 2837 
Q 2550 3084 2163 3084 
Q 1697 3084 1428 2787 
Q 1159 2491 1159 1978 
L 1159 0 
L 581 0 
L 581 3500 
L 1159 3500 
L 1159 2956 
Q 1366 3272 1645 3428 
Q 1925 3584 2291 3584 
Q 2894 3584 3203 3211 
Q 3513 2838 3513 2113 
z
" transform="scale(0.015625)"/>
       <path id="DejaVuSans-73" d="M 2834 3397 
L 2834 2853 
Q 2591 2978 2328 3040 
Q 2066 3103 1784 3103 
Q 1356 3103 1142 2972 
Q 928 2841 928 2578 
Q 928 2378 1081 2264 
Q 1234 2150 1697 2047 
L 1894 2003 
Q 2506 1872 2764 1633 
Q 3022 1394 3022 966 
Q 3022 478 2636 193 
Q 2250 -91 1575 -91 
Q 1294 -91 989 -36 
Q 684 19 347 128 
L 347 722 
Q 666 556 975 473 
Q 1284 391 1588 391 
Q 1994 391 2212 530 
Q 2431 669 2431 922 
Q 2431 1156 2273 1281 
Q 2116 1406 1581 1522 
L 1381 1569 
Q 847 1681 609 1914 
Q 372 2147 372 2553 
Q 372 3047 722 3315 
Q 1072 3584 1716 3584 
Q 2034 3584 2315 3537 
Q 2597 3491 2834 3397 
z
" transform="scale(0.015625)"/>
       <path id="DejaVuSans-2e" d="M 684 794 
L 1344 794 
L 1344 0 
L 684 0 
L 684 794 
z
" transform="scale(0.015625)"/>
       <path id="DejaVuSans-20" transform="scale(0.015625)"/>
       <path id="DejaVuSans-76" d="M 191 3500 
L 800 3500 
L 1894 563 
L 2988 3500 
L 3597 3500 
L 2284 0 
L 1503 0 
L 191 3500 
z
" transform="scale(0.015625)"/>
       <path id="DejaVuSans-65" d="M 3597 1894 
L 3597 1613 
L 953 1613 
Q 991 1019 1311 708 
Q 1631 397 2203 397 
Q 2534 397 2845 478 
Q 3156 559 3463 722 
L 3463 178 
Q 3153 47 2828 -22 
Q 2503 -91 2169 -91 
Q 1331 -91 842 396 
Q 353 884 353 1716 
Q 353 2575 817 3079 
Q 1281 3584 2069 3584 
Q 2775 3584 3186 3129 
Q 3597 2675 3597 1894 
z
M 3022 2063 
Q 3016 2534 2758 2815 
Q 2500 3097 2075 3097 
Q 1594 3097 1305 2825 
Q 1016 2553 972 2059 
L 3022 2063 
z
" transform="scale(0.015625)"/>
       <path id="DejaVuSans-6c" d="M 603 4863 
L 1178 4863 
L 1178 0 
L 603 0 
L 603 4863 
z
" transform="scale(0.015625)"/>
       <path id="DejaVuSans-5b" d="M 550 4863 
L 1875 4863 
L 1875 4416 
L 1125 4416 
L 1125 -397 
L 1875 -397 
L 1875 -844 
L 550 -844 
L 550 4863 
z
" transform="scale(0.015625)"/>
       <path id="DejaVuSans-6d" d="M 3328 2828 
Q 3544 3216 3844 3400 
Q 4144 3584 4550 3584 
Q 5097 3584 5394 3201 
Q 5691 2819 5691 2113 
L 5691 0 
L 5113 0 
L 5113 2094 
Q 5113 2597 4934 2840 
Q 4756 3084 4391 3084 
Q 3944 3084 3684 2787 
Q 3425 2491 3425 1978 
L 3425 0 
L 2847 0 
L 2847 2094 
Q 2847 2600 2669 2842 
Q 2491 3084 2119 3084 
Q 1678 3084 1418 2786 
Q 1159 2488 1159 1978 
L 1159 0 
L 581 0 
L 581 3500 
L 1159 3500 
L 1159 2956 
Q 1356 3278 1631 3431 
Q 1906 3584 2284 3584 
Q 2666 3584 2933 3390 
Q 3200 3197 3328 2828 
z
" transform="scale(0.015625)"/>
       <path id="DejaVuSans-2f" d="M 1625 4666 
L 2156 4666 
L 531 -594 
L 0 -594 
L 1625 4666 
z
" transform="scale(0.015625)"/>
       <path id="DejaVuSans-5d" d="M 1947 4863 
L 1947 -844 
L 622 -844 
L 622 -397 
L 1369 -397 
L 1369 4416 
L 622 4416 
L 622 4863 
L 1947 4863 
z
" transform="scale(0.015625)"/>
      </defs>
      <use xlink:href="#DejaVuSans-74"/>
      <use xlink:href="#DejaVuSans-72" x="39.208984"/>
      <use xlink:href="#DejaVuSans-61" x="80.322266"/>
      <use xlink:href="#DejaVuSans-6e" x="141.601562"/>
      <use xlink:href="#DejaVuSans-73" x="204.980469"/>
      <use xlink:href="#DejaVuSans-2e" x="257.080078"/>
      <use xlink:href="#DejaVuSans-20" x="288.867188"/>
      <use xlink:href="#DejaVuSans-76" x="320.654297"/>
      <use xlink:href="#DejaVuSans-65" x="379.833984"/>
      <use xlink:href="#DejaVuSans-6c" x="441.357422"/>
      <use xlink:href="#DejaVuSans-2e" x="469.140625"/>
      <use xlink:href="#DejaVuSans-20" x="500.927734"/>
      <use xlink:href="#DejaVuSans-5b" x="532.714844"/>
      <use xlink:href="#DejaVuSans-6d" x="571.728516"/>
      <use xlink:href="#DejaVuSans-6d" x="669.140625"/>
      <use xlink:href="#DejaVuSans-2f" x="766.552734"/>
      <use xlink:href="#DejaVuSans-73" x="800.244141"/>
      <use xlink:href="#DejaVuSans-5d" x="852.34375"/>
     </g>
    </g>
   </g>
   <g id="line2d_21">
    <path d="M 68.386595 152.485535 
L 69.133805 152.407272 
L 69.881016 152.172483 
L 71.001832 151.526813 
L 72.122647 150.52896 
L 73.243463 149.178923 
L 74.364279 147.476702 
L 75.485094 145.422298 
L 76.979515 142.135251 
L 78.473936 138.2221 
L 79.968357 133.686105 
L 81.836383 127.131577 
L 87.440462 105.169017 
L 94.912567 76.179089 
L 96.780593 70.178924 
L 98.275014 66.08642 
L 99.769435 62.613499 
L 101.263856 59.776464 
L 102.384672 58.048156 
L 103.505487 56.678553 
L 104.626303 55.667655 
L 105.747119 54.999159 
L 106.494329 54.754587 
L 107.615145 54.656758 
L 349.337734 54.738282 
L 350.45855 55.145902 
L 351.20576 55.618741 
L 352.326576 56.613334 
L 353.447392 57.966632 
L 354.568208 59.662331 
L 356.062629 62.48306 
L 357.55705 65.923372 
L 359.05147 69.983267 
L 360.919497 75.950822 
L 362.787523 82.896665 
L 375.116496 130.946899 
L 376.610917 135.838338 
L 378.105338 140.085738 
L 379.599759 143.713555 
L 381.09418 146.715268 
L 382.214995 148.554449 
L 383.335811 150.043077 
L 384.456627 151.178217 
L 385.577442 151.961825 
L 386.698258 152.393054 
L 387.819074 152.485535 
L 424.805992 152.485535 
L 424.805992 152.485535 
" clip-path="url(#p06d9741d2c)" style="fill: none; stroke: #1f77b4; stroke-width: 1.5; stroke-linecap: square"/>
   </g>
   <g id="line2d_22">
    <path d="M 68.386595 152.485535 
L 68.7602 152.485535 
L 69.133805 152.682008 
L 69.507411 152.289062 
L 69.881016 152.682008 
L 70.254621 152.289062 
L 70.628226 152.682008 
L 71.001832 152.485535 
L 73.243463 152.485535 
L 73.617068 152.289062 
L 73.990673 151.696872 
L 74.737884 151.699318 
L 75.111489 151.301318 
L 75.485094 150.709943 
L 76.232305 150.315367 
L 76.60591 149.328927 
L 76.979515 149.131639 
L 77.353121 148.737063 
L 78.473936 147.158758 
L 79.221147 144.594014 
L 79.594752 144.396726 
L 79.968357 141.240117 
L 80.341963 142.423846 
L 80.715568 137.297618 
L 81.089173 138.476454 
L 81.462778 131.974102 
L 81.836383 133.751324 
L 82.209989 124.669553 
L 82.583594 126.838091 
L 82.957199 115.392124 
L 83.330804 119.941162 
L 83.70441 107.69626 
L 84.078015 116.386716 
L 84.45162 104.94075 
L 84.825225 108.10388 
L 85.198831 105.72338 
L 85.572436 106.91363 
L 85.946041 105.332065 
L 86.319646 110.272418 
L 87.066857 97.848163 
L 87.440462 102.185239 
L 87.814067 101.793924 
L 88.561278 97.636201 
L 88.934883 103.750499 
L 89.308488 89.956642 
L 89.682093 101.386304 
L 90.055699 86.597854 
L 90.429304 97.440543 
L 90.802909 80.287898 
L 91.176514 92.320837 
L 91.55012 73.570322 
L 91.923725 87.380484 
L 92.29733 67.651681 
L 92.670935 83.434723 
L 93.044541 64.700513 
L 93.418146 73.374664 
L 94.165356 68.646273 
L 94.538962 71.401784 
L 94.912567 68.841931 
L 95.286172 69.624561 
L 95.659777 69.233246 
L 96.033383 69.624561 
L 96.780593 64.89617 
L 97.154198 66.477735 
L 97.527803 63.314605 
L 97.901409 61.73304 
L 98.275014 58.390556 
L 98.648619 70.619154 
L 99.022224 53.058888 
L 99.769435 62.727632 
L 100.14304 61.537382 
L 100.516645 61.945002 
L 100.890251 61.146067 
L 101.263856 71.401784 
L 101.637461 59.760159 
L 102.384672 68.646273 
L 102.758277 65.091828 
L 103.131882 69.233246 
L 103.505487 67.651681 
L 103.879093 67.651681 
L 104.252698 65.874458 
L 104.626303 76.92911 
L 104.999908 57.591621 
L 105.373514 76.92911 
L 105.747119 56.808991 
L 106.120724 76.537795 
L 106.494329 57.999241 
L 106.867934 76.537795 
L 107.24154 57.591621 
L 107.615145 75.950822 
L 107.98875 56.417676 
L 108.362355 75.73886 
L 108.735961 56.417676 
L 109.109566 75.950822 
L 109.483171 56.205714 
L 109.856776 67.847338 
L 110.230382 66.477735 
L 110.603987 66.282078 
L 110.977592 66.477735 
L 111.351197 64.504855 
L 111.724803 65.874458 
L 112.098408 74.369257 
L 112.472013 55.031768 
L 112.845618 66.282078 
L 113.219224 64.097235 
L 113.592829 62.92329 
L 113.966434 65.091828 
L 114.340039 62.92329 
L 115.08725 61.73304 
L 115.460855 59.173187 
L 115.83446 71.401784 
L 116.208065 49.308785 
L 116.581671 69.820219 
L 116.955276 48.330497 
L 117.328881 69.428903 
L 117.702486 48.330497 
L 118.076092 63.118947 
L 118.449697 63.70592 
L 118.823302 47.922877 
L 119.196907 57.982937 
L 119.570513 55.618741 
L 119.944118 57.803584 
L 120.317723 55.031768 
L 120.691328 55.618741 
L 121.064934 66.282078 
L 121.438539 47.922877 
L 121.812144 53.857823 
L 122.185749 57.591621 
L 122.559354 54.249138 
L 122.93296 57.395964 
L 123.306565 55.814399 
L 123.68017 53.254546 
L 124.053775 65.890763 
L 124.427381 43.781459 
L 124.800986 65.091828 
L 125.174591 42.199894 
L 125.548196 64.309197 
L 125.921802 42.591209 
L 126.295407 64.504855 
L 126.669012 41.417264 
L 127.042617 52.667573 
L 127.416223 54.053481 
L 127.789828 62.531975 
L 128.163433 42.216199 
L 128.537038 58.586214 
L 128.910644 48.91747 
L 129.657854 55.031768 
L 130.031459 52.471915 
L 130.405064 54.053481 
L 130.77867 53.645861 
L 131.152275 51.086008 
L 131.52588 64.504855 
L 131.899485 42.607514 
L 132.273091 64.700513 
L 132.646696 42.591209 
L 133.020301 57.803584 
L 133.393906 50.091415 
L 133.767512 51.67298 
L 134.141117 52.667573 
L 134.888327 52.667573 
L 135.261933 52.863231 
L 135.635538 51.67298 
L 136.009143 53.645861 
L 136.382748 52.064296 
L 136.756354 55.031768 
L 137.503564 50.499035 
L 137.877169 55.618741 
L 138.62438 51.086008 
L 138.997985 64.89617 
L 139.37159 41.417264 
L 139.745195 63.917882 
L 140.118801 40.422671 
L 140.492406 63.314605 
L 140.866011 40.634633 
L 141.239616 62.92329 
L 141.613222 40.031356 
L 141.986827 62.727632 
L 142.360432 39.852003 
L 142.734037 62.51567 
L 143.107643 39.053068 
L 143.481248 61.928697 
L 143.854853 39.835698 
L 144.228458 55.423084 
L 144.602064 46.145655 
L 144.975669 50.303378 
L 145.349274 50.499035 
L 145.722879 52.455611 
L 146.096485 48.330497 
L 146.47009 63.510262 
L 146.843695 39.835698 
L 147.2173 62.727632 
L 147.590905 40.031356 
L 147.964511 63.314605 
L 148.338116 40.031356 
L 148.711721 63.510262 
L 149.085326 39.053068 
L 149.458932 57.004649 
L 149.832537 47.72722 
L 150.206142 52.0806 
L 150.579747 51.868638 
L 150.953353 49.895758 
L 151.326958 53.841518 
L 151.700563 52.471915 
L 152.074168 51.884943 
L 152.447774 50.89035 
L 152.821379 54.249138 
L 153.194984 51.67298 
L 153.942195 56.010056 
L 154.3158 53.662166 
L 154.689405 56.205714 
L 155.436615 53.254546 
L 155.810221 66.477735 
L 156.183826 44.368432 
L 156.557431 65.890763 
L 156.931036 46.341312 
L 157.304642 54.249138 
L 157.678247 55.423084 
L 158.051852 55.423084 
L 158.425457 53.645861 
L 158.799063 55.227426 
L 159.172668 56.222019 
L 159.546273 55.423084 
L 159.919878 55.423084 
L 160.293484 55.227426 
L 160.667089 55.814399 
L 161.040694 53.058888 
L 161.414299 57.200306 
L 161.787905 56.205714 
L 162.16151 53.254546 
L 162.535115 57.591621 
L 162.90872 55.618741 
L 163.282325 54.624149 
L 163.655931 55.814399 
L 165.150352 53.645861 
L 165.523957 54.037176 
L 165.897562 52.667573 
L 166.271167 63.917882 
L 166.644773 45.558682 
L 167.018378 51.67298 
L 167.391983 55.618741 
L 167.765588 53.841518 
L 168.139194 53.841518 
L 168.512799 51.67298 
L 168.886404 54.836111 
L 169.260009 53.058888 
L 169.633615 64.700513 
L 170.00722 44.776052 
L 170.380825 52.259953 
L 170.75443 54.836111 
L 171.128035 56.026361 
L 172.248851 53.254546 
L 172.622456 65.483143 
L 172.996062 43.585802 
L 173.369667 65.695105 
L 173.743272 43.585802 
L 174.116877 66.08642 
L 174.490483 43.977117 
L 174.864088 65.483143 
L 175.237693 44.172774 
L 175.611298 65.091828 
L 175.984904 46.357617 
L 176.358509 54.232833 
L 176.732114 56.026361 
L 177.105719 53.645861 
L 177.479325 54.836111 
L 177.85293 57.395964 
L 178.226535 53.841518 
L 178.60014 57.803584 
L 178.973746 54.444796 
L 179.347351 67.260366 
L 179.720956 45.558682 
L 180.094561 67.456023 
L 180.468166 45.167367 
L 180.841772 66.477735 
L 181.215377 44.776052 
L 181.588982 66.673393 
L 181.962587 44.776052 
L 182.336193 66.86905 
L 182.709798 45.167367 
L 183.083403 66.070115 
L 183.457008 43.977117 
L 183.830614 61.146067 
L 184.204219 50.287073 
L 184.577824 55.227426 
L 184.951429 52.455611 
L 185.325035 57.395964 
L 186.072245 53.645861 
L 186.44585 56.205714 
L 186.819456 54.836111 
L 187.193061 55.423084 
L 187.566666 55.618741 
L 187.940271 55.031768 
L 188.313876 53.450203 
L 188.687482 53.857823 
L 189.061087 65.483143 
L 189.434692 42.199894 
L 189.808297 64.504855 
L 190.181903 41.612921 
L 190.555508 64.89617 
L 190.929113 41.808579 
L 191.302718 63.70592 
L 191.676324 45.363024 
L 192.049929 54.249138 
L 192.797139 52.0806 
L 193.170745 55.227426 
L 193.54435 52.276258 
L 193.917955 55.227426 
L 194.29156 51.884943 
L 194.665166 54.444796 
L 195.038771 54.037176 
L 195.412376 55.618741 
L 195.785981 52.0806 
L 196.159586 55.814399 
L 196.533192 55.031768 
L 196.906797 52.667573 
L 197.280402 65.499448 
L 197.654007 44.172774 
L 198.027613 66.08642 
L 198.401218 43.977117 
L 198.774823 66.08642 
L 199.148428 45.363024 
L 199.522034 54.444796 
L 199.895639 56.808991 
L 200.269244 53.254546 
L 200.642849 57.607926 
L 201.016455 53.645861 
L 201.39006 56.808991 
L 201.763665 53.841518 
L 202.13727 56.613334 
L 202.510876 54.249138 
L 202.884481 55.423084 
L 203.258086 66.673393 
L 203.631691 45.167367 
L 204.005296 67.260366 
L 204.378902 44.971709 
L 204.752507 66.673393 
L 205.126112 44.971709 
L 205.499717 66.282078 
L 205.873323 46.748932 
L 206.620533 59.564502 
L 206.994138 51.477323 
L 207.367744 60.363437 
L 207.741349 53.058888 
L 208.114954 56.205714 
L 208.488559 55.031768 
L 208.862165 56.417676 
L 209.23577 55.423084 
L 209.609375 53.841518 
L 209.98298 57.591621 
L 210.356586 55.031768 
L 210.730191 54.836111 
L 211.103796 56.010056 
L 211.477401 55.618741 
L 211.851006 55.618741 
L 212.224612 55.814399 
L 212.598217 52.863231 
L 212.971822 57.395964 
L 213.345427 54.640453 
L 213.719033 54.444796 
L 214.092638 54.444796 
L 214.466243 52.863231 
L 214.839848 60.363437 
L 215.213454 47.140247 
L 215.587059 53.254546 
L 215.960664 53.857823 
L 216.334269 50.694693 
L 216.707875 54.624149 
L 217.08148 52.471915 
L 217.455085 53.645861 
L 217.82869 53.058888 
L 218.202296 50.499035 
L 218.575901 64.504855 
L 218.949506 41.808579 
L 219.323111 63.917882 
L 219.696717 41.808579 
L 220.070322 63.901578 
L 220.443927 42.216199 
L 220.817532 64.89617 
L 221.191137 42.004236 
L 221.564743 64.700513 
L 221.938348 43.194486 
L 222.311953 53.857823 
L 222.685558 55.814399 
L 223.059164 52.667573 
L 223.432769 54.037176 
L 223.806374 56.222019 
L 224.179979 52.667573 
L 224.92719 61.928697 
L 225.300795 43.390144 
L 225.6744 65.483143 
L 226.048006 43.781459 
L 226.421611 65.874458 
L 226.795216 43.977117 
L 227.168821 65.695105 
L 227.542427 42.786867 
L 227.916032 66.08642 
L 228.289637 43.781459 
L 228.663242 65.287485 
L 229.036847 42.607514 
L 229.410453 63.510262 
L 229.784058 43.194486 
L 230.157663 55.227426 
L 230.531268 53.254546 
L 230.904874 64.309197 
L 231.278479 45.754339 
L 231.652084 53.645861 
L 232.025689 65.091828 
L 232.399295 46.94459 
L 232.7729 54.836111 
L 233.146505 53.857823 
L 233.52011 55.814399 
L 234.267321 55.814399 
L 234.640926 55.618741 
L 235.014531 55.618741 
L 235.388137 55.423084 
L 235.761742 55.031768 
L 236.135347 53.450203 
L 236.508952 65.874458 
L 236.882557 46.94459 
L 237.256163 55.031768 
L 237.629768 53.058888 
L 238.003373 65.483143 
L 238.376978 44.580394 
L 238.750584 55.227426 
L 239.124189 56.222019 
L 239.497794 52.259953 
L 239.871399 54.444796 
L 240.245005 54.249138 
L 240.61861 55.618741 
L 240.992215 55.031768 
L 241.36582 55.031768 
L 241.739426 55.227426 
L 242.113031 53.058888 
L 242.486636 65.874458 
L 242.860241 43.781459 
L 243.233847 65.483143 
L 243.607452 43.390144 
L 243.981057 59.173187 
L 244.354662 50.89035 
L 245.101873 56.613334 
L 245.475478 53.058888 
L 245.849083 55.618741 
L 246.222688 57.004649 
L 246.596294 53.450203 
L 246.969899 57.395964 
L 247.343504 55.814399 
L 247.717109 55.423084 
L 248.090715 54.640453 
L 248.46432 56.808991 
L 248.837925 56.205714 
L 249.21153 54.037176 
L 249.585136 66.86905 
L 249.958741 45.949997 
L 250.332346 53.058888 
L 250.705951 65.6788 
L 251.079557 44.189079 
L 251.453162 54.640453 
L 251.826767 55.423084 
L 252.200372 57.004649 
L 252.573978 53.450203 
L 252.947583 57.787279 
L 253.321188 54.249138 
L 253.694793 57.999241 
L 254.068398 56.010056 
L 254.442004 53.058888 
L 254.815609 66.673393 
L 255.189214 43.977117 
L 255.562819 66.08642 
L 255.936425 44.384737 
L 256.31003 66.477735 
L 256.683635 44.384737 
L 257.05724 66.673393 
L 257.430846 43.781459 
L 257.804451 66.070115 
L 258.178056 43.781459 
L 258.551661 56.808991 
L 258.925267 53.645861 
L 259.298872 57.004649 
L 259.672477 55.227426 
L 260.046082 52.863231 
L 260.419688 66.477735 
L 260.793293 46.161959 
L 261.166898 53.254546 
L 261.914108 56.401371 
L 262.287714 55.031768 
L 263.034924 53.450203 
L 263.408529 54.640453 
L 263.782135 54.037176 
L 264.15574 53.857823 
L 264.529345 53.857823 
L 264.90295 51.868638 
L 265.276556 58.977529 
L 265.650161 50.89035 
L 266.023766 53.254546 
L 266.397371 62.92329 
L 266.770977 42.591209 
L 267.144582 53.450203 
L 267.518187 52.863231 
L 267.891792 53.645861 
L 268.265398 53.645861 
L 268.639003 55.423084 
L 269.012608 52.276258 
L 269.386213 55.814399 
L 269.759818 54.640453 
L 270.133424 54.836111 
L 270.507029 51.868638 
L 270.880634 65.695105 
L 271.254239 43.194486 
L 271.627845 64.89617 
L 272.00145 44.580394 
L 272.375055 52.667573 
L 273.122266 53.645861 
L 273.495871 58.781872 
L 273.869476 48.91747 
L 274.243081 53.645861 
L 274.616687 55.031768 
L 274.990292 51.281665 
L 275.363897 65.483143 
L 275.737502 42.411856 
L 276.111108 65.483143 
L 276.484713 44.776052 
L 276.858318 54.053481 
L 277.231923 53.857823 
L 277.605528 54.836111 
L 277.979134 53.645861 
L 278.352739 55.423084 
L 278.726344 54.640453 
L 279.099949 51.477323 
L 279.473555 56.222019 
L 279.84716 52.863231 
L 280.220765 56.026361 
L 280.967976 53.450203 
L 281.341581 56.417676 
L 281.715186 54.640453 
L 282.088791 53.450203 
L 282.462397 55.423084 
L 282.836002 56.613334 
L 283.209607 55.227426 
L 283.583212 56.010056 
L 283.956818 55.618741 
L 284.330423 53.450203 
L 284.704028 55.618741 
L 285.077633 65.874458 
L 285.451238 47.72722 
L 285.824844 55.227426 
L 286.198449 55.031768 
L 286.572054 53.645861 
L 286.945659 56.026361 
L 287.319265 56.808991 
L 288.066475 52.667573 
L 288.44008 55.227426 
L 288.813686 54.444796 
L 289.187291 52.471915 
L 289.560896 55.618741 
L 290.308107 53.254546 
L 290.681712 53.857823 
L 291.428922 53.841518 
L 291.802528 53.645861 
L 292.176133 54.640453 
L 292.549738 52.0806 
L 292.923343 53.254546 
L 293.296949 55.618741 
L 293.670554 64.89617 
L 294.044159 45.167367 
L 294.417764 56.205714 
L 295.164975 54.037176 
L 295.53858 57.591621 
L 295.912185 55.618741 
L 296.28579 56.026361 
L 296.659396 55.618741 
L 297.033001 55.618741 
L 297.406606 55.439388 
L 297.780211 55.618741 
L 298.153817 55.618741 
L 298.901027 53.857823 
L 299.274632 57.982937 
L 299.648238 54.037176 
L 300.021843 56.808991 
L 300.395448 52.276258 
L 300.769053 58.586214 
L 301.142659 54.037176 
L 301.516264 57.591621 
L 302.263474 54.037176 
L 302.637079 66.477735 
L 303.010685 44.776052 
L 303.38429 66.282078 
L 303.757895 43.781459 
L 304.1315 66.477735 
L 304.505106 45.363024 
L 305.252316 58.390556 
L 305.625921 50.499035 
L 305.999527 56.613334 
L 306.373132 52.863231 
L 306.746737 56.808991 
L 307.493948 53.254546 
L 307.867553 65.483143 
L 308.241158 47.140247 
L 308.614763 54.836111 
L 308.988369 55.031768 
L 309.361974 55.031768 
L 309.735579 55.227426 
L 310.109184 53.254546 
L 310.482789 66.282078 
L 310.856395 44.189079 
L 311.23 64.504855 
L 311.603605 49.895758 
L 311.97721 51.086008 
L 312.350816 54.444796 
L 312.724421 52.471915 
L 313.098026 56.205714 
L 313.845237 52.259953 
L 314.218842 55.423084 
L 314.592447 53.645861 
L 314.966052 51.281665 
L 315.339658 64.504855 
L 315.713263 42.199894 
L 316.086868 64.504855 
L 316.460473 42.216199 
L 316.834079 57.787279 
L 317.207684 50.10772 
L 317.581289 51.67298 
L 317.954894 54.249138 
L 318.328499 51.67298 
L 318.702105 53.254546 
L 319.07571 53.645861 
L 319.449315 55.814399 
L 319.82292 52.276258 
L 320.196526 56.401371 
L 320.943736 52.0806 
L 321.317341 64.700513 
L 321.690947 42.998829 
L 322.064552 64.89617 
L 322.438157 42.591209 
L 322.811762 55.031768 
L 323.185368 55.635046 
L 323.558973 53.058888 
L 323.932578 63.917882 
L 324.306183 45.558682 
L 325.053394 56.417676 
L 325.426999 54.444796 
L 325.800604 54.444796 
L 326.17421 52.667573 
L 326.547815 65.287485 
L 326.92142 43.194486 
L 327.295025 65.874458 
L 327.66863 43.390144 
L 328.042236 54.624149 
L 328.415841 55.031768 
L 328.789446 66.070115 
L 329.163051 44.971709 
L 329.536657 56.205714 
L 329.910262 54.037176 
L 330.283867 55.423084 
L 330.657472 53.450203 
L 331.031078 56.222019 
L 331.404683 52.863231 
L 331.778288 55.423084 
L 332.151893 56.808991 
L 332.525499 53.450203 
L 332.899104 57.395964 
L 333.272709 54.836111 
L 333.646314 56.417676 
L 334.01992 53.254546 
L 334.393525 66.673393 
L 334.76713 47.140247 
L 335.140735 53.450203 
L 335.51434 66.477735 
L 335.887946 44.776052 
L 336.635156 65.091828 
L 337.008761 44.971709 
L 337.382367 65.874458 
L 337.755972 44.971709 
L 338.129577 53.450203 
L 338.503182 53.645861 
L 338.876788 58.194899 
L 339.250393 50.091415 
L 339.623998 53.450203 
L 339.997603 54.249138 
L 340.371209 59.173187 
L 340.744814 50.89035 
L 341.118419 52.064296 
L 341.492024 56.205714 
L 341.86563 51.67298 
L 342.239235 54.444796 
L 342.61284 52.0806 
L 342.986445 65.091828 
L 343.36005 45.363024 
L 343.733656 63.70592 
L 344.107261 46.94459 
L 344.480866 53.254546 
L 344.854471 56.205714 
L 345.228077 54.444796 
L 345.601682 54.037176 
L 345.975287 57.200306 
L 346.348892 55.227426 
L 346.722498 55.227426 
L 347.096103 55.618741 
L 347.469708 55.830703 
L 347.843313 53.254546 
L 348.216919 55.031768 
L 348.590524 57.982937 
L 348.964129 56.417676 
L 349.337734 53.450203 
L 349.71134 57.803584 
L 350.084945 54.836111 
L 350.45855 65.874458 
L 350.832155 47.140247 
L 351.20576 65.287485 
L 351.579366 47.531562 
L 351.952971 66.070115 
L 352.326576 46.748932 
L 352.700181 64.89617 
L 353.073787 52.667573 
L 353.820997 60.363437 
L 354.194602 58.586214 
L 354.568208 60.559094 
L 354.941813 64.89617 
L 355.315418 55.814399 
L 355.689023 61.945002 
L 356.062629 62.727632 
L 356.436234 72.200719 
L 356.809839 55.031768 
L 357.183444 64.89617 
L 357.55705 66.070115 
L 357.930655 62.92329 
L 358.30426 66.282078 
L 358.677865 66.070115 
L 359.05147 66.08642 
L 359.425076 68.841931 
L 359.798681 75.934517 
L 360.172286 64.292893 
L 360.545891 69.640866 
L 360.919497 67.847338 
L 361.293102 78.706333 
L 361.666707 65.091828 
L 362.040312 81.461843 
L 362.413918 69.428903 
L 363.161128 87.184827 
L 363.534733 76.92911 
L 363.908339 86.206539 
L 364.281944 89.956642 
L 364.655549 91.326245 
L 365.029154 99.429728 
L 365.40276 91.130587 
L 365.776365 103.375489 
L 366.14997 94.081755 
L 366.523575 102.772212 
L 366.897181 102.380897 
L 367.270786 105.72338 
L 367.644391 106.717972 
L 368.391601 113.631206 
L 368.765207 119.941162 
L 369.138812 116.582374 
L 369.512417 125.859803 
L 369.886022 123.479303 
L 370.633233 129.397944 
L 371.006838 129.202286 
L 371.754049 131.566482 
L 372.127654 131.778444 
L 372.501259 132.756732 
L 372.874864 136.513357 
L 373.24847 134.14264 
L 373.622075 138.279166 
L 373.99568 135.512242 
L 374.369285 138.478085 
L 374.742891 135.724205 
L 375.116496 137.493275 
L 376.610917 139.857471 
L 376.984522 141.439036 
L 377.358127 142.035791 
L 377.731732 143.010818 
L 378.105338 140.454226 
L 378.478943 142.026008 
L 378.852548 138.284058 
L 379.226153 138.672112 
L 379.973364 136.309547 
L 380.346969 136.11552 
L 380.720574 135.120927 
L 381.09418 135.120927 
L 381.467785 136.314438 
L 381.84139 133.148047 
L 382.214995 136.508465 
L 382.588601 133.343705 
L 382.962206 136.707384 
L 383.335811 134.92527 
L 383.709416 135.903558 
L 384.083021 137.493275 
L 384.456627 138.085139 
L 384.830232 139.862362 
L 385.203837 140.648253 
L 385.577442 142.816791 
L 385.951048 141.637954 
L 386.324653 144.00215 
L 386.698258 143.01734 
L 387.071863 145.180987 
L 387.445469 144.797824 
L 387.819074 145.777742 
L 388.192679 146.364715 
L 388.566284 146.568525 
L 388.93989 144.986959 
L 389.313495 145.976661 
L 389.6871 145.971769 
L 390.060705 146.175579 
L 391.181521 146.170688 
L 391.555126 147.162019 
L 391.928731 146.563633 
L 392.302337 146.963101 
L 392.675942 147.748992 
L 393.049547 147.753883 
L 393.423152 147.952802 
L 394.170363 149.131639 
L 394.543968 148.738693 
L 395.664784 150.315367 
L 396.038389 150.12134 
L 396.411994 151.097345 
L 396.7856 151.112182 
L 397.159205 151.296263 
L 398.280021 152.485535 
L 398.653626 152.684617 
L 399.774442 153.86378 
L 400.148047 153.873726 
L 400.521652 154.650812 
L 400.895257 154.261128 
L 401.268862 154.660595 
L 401.642468 154.650812 
L 402.016073 154.854622 
L 402.389678 155.446486 
L 402.763283 154.849731 
L 403.510494 154.849731 
L 403.884099 155.446486 
L 404.257704 155.247568 
L 404.63131 155.247568 
L 405.004915 154.849731 
L 405.37852 154.660595 
L 405.752125 155.048649 
L 406.125731 155.839432 
L 406.499336 154.854622 
L 406.872941 154.854622 
L 407.246546 154.655704 
L 407.620152 155.247568 
L 407.993757 154.655704 
L 408.367362 155.053541 
L 408.740967 154.455155 
L 409.114572 154.655704 
L 409.488178 154.455155 
L 409.861783 154.660595 
L 410.235388 154.655704 
L 411.356204 154.062861 
L 411.729809 154.461677 
L 412.103414 154.05797 
L 412.47702 154.461677 
L 412.850625 153.868834 
L 413.22423 154.261128 
L 413.597835 153.86378 
L 413.971441 153.868834 
L 414.345046 153.669753 
L 415.092256 154.067916 
L 415.465862 153.470671 
L 415.839467 153.86378 
L 416.213072 153.470671 
L 416.586677 153.669753 
L 416.960282 153.475726 
L 417.333888 153.669753 
L 417.707493 153.271753 
L 418.081098 153.475726 
L 418.454703 153.470671 
L 418.828309 153.077725 
L 419.201914 153.46578 
L 419.575519 153.475726 
L 419.949124 153.072671 
L 420.32273 153.281698 
L 420.696335 153.072671 
L 422.190756 153.077725 
L 422.564361 152.878644 
L 422.937966 153.077725 
L 423.311572 152.883535 
L 423.685177 153.072671 
L 424.058782 152.883535 
L 424.805992 152.878644 
L 424.805992 152.878644 
" clip-path="url(#p06d9741d2c)" style="fill: none; stroke: #ff7f0e; stroke-width: 1.5; stroke-linecap: square"/>
   </g>
   <g id="patch_3">
    <path d="M 50.565625 161.67875 
L 50.565625 33.21375 
" style="fill: none; stroke: #000000; stroke-width: 0.8; stroke-linejoin: miter; stroke-linecap: square"/>
   </g>
   <g id="patch_4">
    <path d="M 442.626962 161.67875 
L 442.626962 33.21375 
" style="fill: none; stroke: #000000; stroke-width: 0.8; stroke-linejoin: miter; stroke-linecap: square"/>
   </g>
   <g id="patch_5">
    <path d="M 50.565625 161.67875 
L 442.626962 161.67875 
" style="fill: none; stroke: #000000; stroke-width: 0.8; stroke-linejoin: miter; stroke-linecap: square"/>
   </g>
   <g id="patch_6">
    <path d="M 50.565625 33.21375 
L 442.626962 33.21375 
" style="fill: none; stroke: #000000; stroke-width: 0.8; stroke-linejoin: miter; stroke-linecap: square"/>
   </g>
   <g id="legend_1">
    <g id="patch_7">
     <path d="M 205.3377 156.67875 
L 287.854887 156.67875 
Q 289.854887 156.67875 289.854887 154.67875 
L 289.854887 126.3225 
Q 289.854887 124.3225 287.854887 124.3225 
L 205.3377 124.3225 
Q 203.3377 124.3225 203.3377 126.3225 
L 203.3377 154.67875 
Q 203.3377 156.67875 205.3377 156.67875 
z
" style="fill: #ffffff; opacity: 0.8; stroke: #cccccc; stroke-linejoin: miter"/>
    </g>
    <g id="line2d_23">
     <path d="M 207.3377 132.420937 
L 217.3377 132.420937 
L 227.3377 132.420937 
" style="fill: none; stroke: #1f77b4; stroke-width: 1.5; stroke-linecap: square"/>
    </g>
    <g id="text_6">
     <!-- Reference -->
     <g transform="translate(235.3377 135.920937)scale(0.1 -0.1)">
      <defs>
       <path id="DejaVuSans-52" d="M 2841 2188 
Q 3044 2119 3236 1894 
Q 3428 1669 3622 1275 
L 4263 0 
L 3584 0 
L 2988 1197 
Q 2756 1666 2539 1819 
Q 2322 1972 1947 1972 
L 1259 1972 
L 1259 0 
L 628 0 
L 628 4666 
L 2053 4666 
Q 2853 4666 3247 4331 
Q 3641 3997 3641 3322 
Q 3641 2881 3436 2590 
Q 3231 2300 2841 2188 
z
M 1259 4147 
L 1259 2491 
L 2053 2491 
Q 2509 2491 2742 2702 
Q 2975 2913 2975 3322 
Q 2975 3731 2742 3939 
Q 2509 4147 2053 4147 
L 1259 4147 
z
" transform="scale(0.015625)"/>
       <path id="DejaVuSans-66" d="M 2375 4863 
L 2375 4384 
L 1825 4384 
Q 1516 4384 1395 4259 
Q 1275 4134 1275 3809 
L 1275 3500 
L 2222 3500 
L 2222 3053 
L 1275 3053 
L 1275 0 
L 697 0 
L 697 3053 
L 147 3053 
L 147 3500 
L 697 3500 
L 697 3744 
Q 697 4328 969 4595 
Q 1241 4863 1831 4863 
L 2375 4863 
z
" transform="scale(0.015625)"/>
       <path id="DejaVuSans-63" d="M 3122 3366 
L 3122 2828 
Q 2878 2963 2633 3030 
Q 2388 3097 2138 3097 
Q 1578 3097 1268 2742 
Q 959 2388 959 1747 
Q 959 1106 1268 751 
Q 1578 397 2138 397 
Q 2388 397 2633 464 
Q 2878 531 3122 666 
L 3122 134 
Q 2881 22 2623 -34 
Q 2366 -91 2075 -91 
Q 1284 -91 818 406 
Q 353 903 353 1747 
Q 353 2603 823 3093 
Q 1294 3584 2113 3584 
Q 2378 3584 2631 3529 
Q 2884 3475 3122 3366 
z
" transform="scale(0.015625)"/>
      </defs>
      <use xlink:href="#DejaVuSans-52"/>
      <use xlink:href="#DejaVuSans-65" x="64.982422"/>
      <use xlink:href="#DejaVuSans-66" x="126.505859"/>
      <use xlink:href="#DejaVuSans-65" x="161.710938"/>
      <use xlink:href="#DejaVuSans-72" x="223.234375"/>
      <use xlink:href="#DejaVuSans-65" x="262.097656"/>
      <use xlink:href="#DejaVuSans-6e" x="323.621094"/>
      <use xlink:href="#DejaVuSans-63" x="387"/>
      <use xlink:href="#DejaVuSans-65" x="441.980469"/>
     </g>
    </g>
    <g id="line2d_24">
     <path d="M 207.3377 147.099062 
L 217.3377 147.099062 
L 227.3377 147.099062 
" style="fill: none; stroke: #ff7f0e; stroke-width: 1.5; stroke-linecap: square"/>
    </g>
    <g id="text_7">
     <!-- Estimated -->
     <g transform="translate(235.3377 150.599062)scale(0.1 -0.1)">
      <defs>
       <path id="DejaVuSans-45" d="M 628 4666 
L 3578 4666 
L 3578 4134 
L 1259 4134 
L 1259 2753 
L 3481 2753 
L 3481 2222 
L 1259 2222 
L 1259 531 
L 3634 531 
L 3634 0 
L 628 0 
L 628 4666 
z
" transform="scale(0.015625)"/>
       <path id="DejaVuSans-69" d="M 603 3500 
L 1178 3500 
L 1178 0 
L 603 0 
L 603 3500 
z
M 603 4863 
L 1178 4863 
L 1178 4134 
L 603 4134 
L 603 4863 
z
" transform="scale(0.015625)"/>
       <path id="DejaVuSans-64" d="M 2906 2969 
L 2906 4863 
L 3481 4863 
L 3481 0 
L 2906 0 
L 2906 525 
Q 2725 213 2448 61 
Q 2172 -91 1784 -91 
Q 1150 -91 751 415 
Q 353 922 353 1747 
Q 353 2572 751 3078 
Q 1150 3584 1784 3584 
Q 2172 3584 2448 3432 
Q 2725 3281 2906 2969 
z
M 947 1747 
Q 947 1113 1208 752 
Q 1469 391 1925 391 
Q 2381 391 2643 752 
Q 2906 1113 2906 1747 
Q 2906 2381 2643 2742 
Q 2381 3103 1925 3103 
Q 1469 3103 1208 2742 
Q 947 2381 947 1747 
z
" transform="scale(0.015625)"/>
      </defs>
      <use xlink:href="#DejaVuSans-45"/>
      <use xlink:href="#DejaVuSans-73" x="63.183594"/>
      <use xlink:href="#DejaVuSans-74" x="115.283203"/>
      <use xlink:href="#DejaVuSans-69" x="154.492188"/>
      <use xlink:href="#DejaVuSans-6d" x="182.275391"/>
      <use xlink:href="#DejaVuSans-61" x="279.6875"/>
      <use xlink:href="#DejaVuSans-74" x="340.966797"/>
      <use xlink:href="#DejaVuSans-65" x="380.175781"/>
      <use xlink:href="#DejaVuSans-64" x="441.699219"/>
     </g>
    </g>
   </g>
  </g>
  <g id="axes_2">
   <g id="patch_8">
    <path d="M 50.565625 304.44375 
L 442.626962 304.44375 
L 442.626962 175.97875 
L 50.565625 175.97875 
z
" style="fill: #ffffff"/>
   </g>
   <g id="matplotlib.axis_3">
    <g id="xtick_7">
     <g id="line2d_25">
      <path d="M 68.386595 304.44375 
L 68.386595 175.97875 
" clip-path="url(#peb89ea375c)" style="fill: none; stroke: #b0b0b0; stroke-width: 0.8; stroke-linecap: square"/>
     </g>
     <g id="line2d_26">
      <g>
       <use xlink:href="#m83c47eac73" x="68.386595" y="304.44375" style="stroke: #000000; stroke-width: 0.8"/>
      </g>
     </g>
     <g id="text_8">
      <!-- 0.0 -->
      <g transform="translate(60.435032 319.042187)scale(0.1 -0.1)">
       <use xlink:href="#DejaVuSans-30"/>
       <use xlink:href="#DejaVuSans-2e" x="63.623047"/>
       <use xlink:href="#DejaVuSans-30" x="95.410156"/>
      </g>
     </g>
    </g>
    <g id="xtick_8">
     <g id="line2d_27">
      <path d="M 143.107643 304.44375 
L 143.107643 175.97875 
" clip-path="url(#peb89ea375c)" style="fill: none; stroke: #b0b0b0; stroke-width: 0.8; stroke-linecap: square"/>
     </g>
     <g id="line2d_28">
      <g>
       <use xlink:href="#m83c47eac73" x="143.107643" y="304.44375" style="stroke: #000000; stroke-width: 0.8"/>
      </g>
     </g>
     <g id="text_9">
      <!-- 0.2 -->
      <g transform="translate(135.15608 319.042187)scale(0.1 -0.1)">
       <use xlink:href="#DejaVuSans-30"/>
       <use xlink:href="#DejaVuSans-2e" x="63.623047"/>
       <use xlink:href="#DejaVuSans-32" x="95.410156"/>
      </g>
     </g>
    </g>
    <g id="xtick_9">
     <g id="line2d_29">
      <path d="M 217.82869 304.44375 
L 217.82869 175.97875 
" clip-path="url(#peb89ea375c)" style="fill: none; stroke: #b0b0b0; stroke-width: 0.8; stroke-linecap: square"/>
     </g>
     <g id="line2d_30">
      <g>
       <use xlink:href="#m83c47eac73" x="217.82869" y="304.44375" style="stroke: #000000; stroke-width: 0.8"/>
      </g>
     </g>
     <g id="text_10">
      <!-- 0.4 -->
      <g transform="translate(209.877128 319.042187)scale(0.1 -0.1)">
       <use xlink:href="#DejaVuSans-30"/>
       <use xlink:href="#DejaVuSans-2e" x="63.623047"/>
       <use xlink:href="#DejaVuSans-34" x="95.410156"/>
      </g>
     </g>
    </g>
    <g id="xtick_10">
     <g id="line2d_31">
      <path d="M 292.549738 304.44375 
L 292.549738 175.97875 
" clip-path="url(#peb89ea375c)" style="fill: none; stroke: #b0b0b0; stroke-width: 0.8; stroke-linecap: square"/>
     </g>
     <g id="line2d_32">
      <g>
       <use xlink:href="#m83c47eac73" x="292.549738" y="304.44375" style="stroke: #000000; stroke-width: 0.8"/>
      </g>
     </g>
     <g id="text_11">
      <!-- 0.6 -->
      <g transform="translate(284.598176 319.042187)scale(0.1 -0.1)">
       <use xlink:href="#DejaVuSans-30"/>
       <use xlink:href="#DejaVuSans-2e" x="63.623047"/>
       <use xlink:href="#DejaVuSans-36" x="95.410156"/>
      </g>
     </g>
    </g>
    <g id="xtick_11">
     <g id="line2d_33">
      <path d="M 367.270786 304.44375 
L 367.270786 175.97875 
" clip-path="url(#peb89ea375c)" style="fill: none; stroke: #b0b0b0; stroke-width: 0.8; stroke-linecap: square"/>
     </g>
     <g id="line2d_34">
      <g>
       <use xlink:href="#m83c47eac73" x="367.270786" y="304.44375" style="stroke: #000000; stroke-width: 0.8"/>
      </g>
     </g>
     <g id="text_12">
      <!-- 0.8 -->
      <g transform="translate(359.319223 319.042187)scale(0.1 -0.1)">
       <defs>
        <path id="DejaVuSans-38" d="M 2034 2216 
Q 1584 2216 1326 1975 
Q 1069 1734 1069 1313 
Q 1069 891 1326 650 
Q 1584 409 2034 409 
Q 2484 409 2743 651 
Q 3003 894 3003 1313 
Q 3003 1734 2745 1975 
Q 2488 2216 2034 2216 
z
M 1403 2484 
Q 997 2584 770 2862 
Q 544 3141 544 3541 
Q 544 4100 942 4425 
Q 1341 4750 2034 4750 
Q 2731 4750 3128 4425 
Q 3525 4100 3525 3541 
Q 3525 3141 3298 2862 
Q 3072 2584 2669 2484 
Q 3125 2378 3379 2068 
Q 3634 1759 3634 1313 
Q 3634 634 3220 271 
Q 2806 -91 2034 -91 
Q 1263 -91 848 271 
Q 434 634 434 1313 
Q 434 1759 690 2068 
Q 947 2378 1403 2484 
z
M 1172 3481 
Q 1172 3119 1398 2916 
Q 1625 2713 2034 2713 
Q 2441 2713 2670 2916 
Q 2900 3119 2900 3481 
Q 2900 3844 2670 4047 
Q 2441 4250 2034 4250 
Q 1625 4250 1398 4047 
Q 1172 3844 1172 3481 
z
" transform="scale(0.015625)"/>
       </defs>
       <use xlink:href="#DejaVuSans-30"/>
       <use xlink:href="#DejaVuSans-2e" x="63.623047"/>
       <use xlink:href="#DejaVuSans-38" x="95.410156"/>
      </g>
     </g>
    </g>
    <g id="xtick_12">
     <g id="line2d_35">
      <path d="M 441.991833 304.44375 
L 441.991833 175.97875 
" clip-path="url(#peb89ea375c)" style="fill: none; stroke: #b0b0b0; stroke-width: 0.8; stroke-linecap: square"/>
     </g>
     <g id="line2d_36">
      <g>
       <use xlink:href="#m83c47eac73" x="441.991833" y="304.44375" style="stroke: #000000; stroke-width: 0.8"/>
      </g>
     </g>
     <g id="text_13">
      <!-- 1.0 -->
      <g transform="translate(434.040271 319.042187)scale(0.1 -0.1)">
       <defs>
        <path id="DejaVuSans-31" d="M 794 531 
L 1825 531 
L 1825 4091 
L 703 3866 
L 703 4441 
L 1819 4666 
L 2450 4666 
L 2450 531 
L 3481 531 
L 3481 0 
L 794 0 
L 794 531 
z
" transform="scale(0.015625)"/>
       </defs>
       <use xlink:href="#DejaVuSans-31"/>
       <use xlink:href="#DejaVuSans-2e" x="63.623047"/>
       <use xlink:href="#DejaVuSans-30" x="95.410156"/>
      </g>
     </g>
    </g>
    <g id="text_14">
     <!-- Time [s] -->
     <g transform="translate(226.267387 332.720312)scale(0.1 -0.1)">
      <defs>
       <path id="DejaVuSans-54" d="M -19 4666 
L 3928 4666 
L 3928 4134 
L 2272 4134 
L 2272 0 
L 1638 0 
L 1638 4134 
L -19 4134 
L -19 4666 
z
" transform="scale(0.015625)"/>
      </defs>
      <use xlink:href="#DejaVuSans-54"/>
      <use xlink:href="#DejaVuSans-69" x="57.958984"/>
      <use xlink:href="#DejaVuSans-6d" x="85.742188"/>
      <use xlink:href="#DejaVuSans-65" x="183.154297"/>
      <use xlink:href="#DejaVuSans-20" x="244.677734"/>
      <use xlink:href="#DejaVuSans-5b" x="276.464844"/>
      <use xlink:href="#DejaVuSans-73" x="315.478516"/>
      <use xlink:href="#DejaVuSans-5d" x="367.578125"/>
     </g>
    </g>
   </g>
   <g id="matplotlib.axis_4">
    <g id="ytick_5">
     <g id="line2d_37">
      <path d="M 50.565625 272.090771 
L 442.626962 272.090771 
" clip-path="url(#peb89ea375c)" style="fill: none; stroke: #b0b0b0; stroke-width: 0.8; stroke-linecap: square"/>
     </g>
     <g id="line2d_38">
      <g>
       <use xlink:href="#m64d59a091c" x="50.565625" y="272.090771" style="stroke: #000000; stroke-width: 0.8"/>
      </g>
     </g>
     <g id="text_15">
      <!-- −1 -->
      <g transform="translate(28.823438 275.88999)scale(0.1 -0.1)">
       <defs>
        <path id="DejaVuSans-2212" d="M 678 2272 
L 4684 2272 
L 4684 1741 
L 678 1741 
L 678 2272 
z
" transform="scale(0.015625)"/>
       </defs>
       <use xlink:href="#DejaVuSans-2212"/>
       <use xlink:href="#DejaVuSans-31" x="83.789062"/>
      </g>
     </g>
    </g>
    <g id="ytick_6">
     <g id="line2d_39">
      <path d="M 50.565625 237.019791 
L 442.626962 237.019791 
" clip-path="url(#peb89ea375c)" style="fill: none; stroke: #b0b0b0; stroke-width: 0.8; stroke-linecap: square"/>
     </g>
     <g id="line2d_40">
      <g>
       <use xlink:href="#m64d59a091c" x="50.565625" y="237.019791" style="stroke: #000000; stroke-width: 0.8"/>
      </g>
     </g>
     <g id="text_16">
      <!-- 0 -->
      <g transform="translate(37.203125 240.81901)scale(0.1 -0.1)">
       <use xlink:href="#DejaVuSans-30"/>
      </g>
     </g>
    </g>
    <g id="ytick_7">
     <g id="line2d_41">
      <path d="M 50.565625 201.948811 
L 442.626962 201.948811 
" clip-path="url(#peb89ea375c)" style="fill: none; stroke: #b0b0b0; stroke-width: 0.8; stroke-linecap: square"/>
     </g>
     <g id="line2d_42">
      <g>
       <use xlink:href="#m64d59a091c" x="50.565625" y="201.948811" style="stroke: #000000; stroke-width: 0.8"/>
      </g>
     </g>
     <g id="text_17">
      <!-- 1 -->
      <g transform="translate(37.203125 205.748029)scale(0.1 -0.1)">
       <use xlink:href="#DejaVuSans-31"/>
      </g>
     </g>
    </g>
    <g id="text_18">
     <!-- rot. vel. [rad/s] -->
     <g transform="translate(22.74375 277.439375)rotate(-90)scale(0.1 -0.1)">
      <defs>
       <path id="DejaVuSans-6f" d="M 1959 3097 
Q 1497 3097 1228 2736 
Q 959 2375 959 1747 
Q 959 1119 1226 758 
Q 1494 397 1959 397 
Q 2419 397 2687 759 
Q 2956 1122 2956 1747 
Q 2956 2369 2687 2733 
Q 2419 3097 1959 3097 
z
M 1959 3584 
Q 2709 3584 3137 3096 
Q 3566 2609 3566 1747 
Q 3566 888 3137 398 
Q 2709 -91 1959 -91 
Q 1206 -91 779 398 
Q 353 888 353 1747 
Q 353 2609 779 3096 
Q 1206 3584 1959 3584 
z
" transform="scale(0.015625)"/>
      </defs>
      <use xlink:href="#DejaVuSans-72"/>
      <use xlink:href="#DejaVuSans-6f" x="38.863281"/>
      <use xlink:href="#DejaVuSans-74" x="100.044922"/>
      <use xlink:href="#DejaVuSans-2e" x="139.253906"/>
      <use xlink:href="#DejaVuSans-20" x="171.041016"/>
      <use xlink:href="#DejaVuSans-76" x="202.828125"/>
      <use xlink:href="#DejaVuSans-65" x="262.007812"/>
      <use xlink:href="#DejaVuSans-6c" x="323.53125"/>
      <use xlink:href="#DejaVuSans-2e" x="351.314453"/>
      <use xlink:href="#DejaVuSans-20" x="383.101562"/>
      <use xlink:href="#DejaVuSans-5b" x="414.888672"/>
      <use xlink:href="#DejaVuSans-72" x="453.902344"/>
      <use xlink:href="#DejaVuSans-61" x="495.015625"/>
      <use xlink:href="#DejaVuSans-64" x="556.294922"/>
      <use xlink:href="#DejaVuSans-2f" x="619.771484"/>
      <use xlink:href="#DejaVuSans-73" x="653.462891"/>
      <use xlink:href="#DejaVuSans-5d" x="705.5625"/>
     </g>
    </g>
   </g>
   <g id="line2d_43">
    <path d="M 68.386595 237.019791 
L 424.805992 237.019791 
L 424.805992 237.019791 
" clip-path="url(#peb89ea375c)" style="fill: none; stroke: #1f77b4; stroke-width: 1.5; stroke-linecap: square"/>
   </g>
   <g id="line2d_44">
    <path d="M 68.386595 237.019791 
L 68.7602 237.094247 
L 69.507411 236.982265 
L 69.881016 236.907634 
L 70.628226 236.982265 
L 71.749042 236.982265 
L 72.122647 237.094247 
L 73.243463 236.982265 
L 73.617068 236.60911 
L 73.990673 226.793093 
L 74.364279 213.469628 
L 74.737884 221.157187 
L 75.111489 236.721021 
L 75.485094 243.02745 
L 76.232305 241.014375 
L 76.60591 239.968208 
L 77.353121 235.153313 
L 77.726726 234.668282 
L 78.100331 235.041437 
L 78.473936 234.780158 
L 78.847542 234.033848 
L 79.221147 233.84727 
L 79.594752 234.518879 
L 79.968357 236.198428 
L 80.715568 242.469821 
L 81.089173 242.802995 
L 81.462778 240.154786 
L 82.583594 213.992185 
L 82.957199 211.937026 
L 83.330804 225.151771 
L 84.078015 262.137627 
L 84.45162 262.400659 
L 85.572436 226.568639 
L 85.946041 224.253954 
L 86.693252 238.064555 
L 87.066857 240.154786 
L 87.440462 241.610582 
L 87.814067 245.229907 
L 88.187673 245.678816 
L 88.561278 243.662234 
L 88.934883 243.886689 
L 89.308488 249.596244 
L 89.682093 257.024278 
L 90.055699 258.96721 
L 90.802909 265.981406 
L 91.55012 279.595961 
L 92.29733 298.604432 
L 92.670935 290.818674 
L 93.791751 215.037301 
L 94.165356 209.212011 
L 94.538962 206.676379 
L 95.286172 191.673014 
L 95.659777 191.743156 
L 96.033383 190.12989 
L 96.406988 185.184882 
L 96.780593 181.818068 
L 97.154198 182.414275 
L 97.527803 188.34127 
L 98.275014 215.335404 
L 98.648619 222.090075 
L 99.022224 218.060419 
L 99.39583 211.081294 
L 99.769435 209.885374 
L 100.14304 209.625848 
L 100.890251 203.428806 
L 102.011066 223.208839 
L 102.384672 222.910736 
L 103.131882 206.115243 
L 103.505487 204.435343 
L 103.879093 206.041594 
L 104.252698 205.743491 
L 104.626303 204.210889 
L 104.999908 205.666335 
L 105.747119 210.148406 
L 106.120724 217.088953 
L 106.494329 216.341941 
L 106.867934 210.744613 
L 107.615145 211.302241 
L 107.98875 208.205474 
L 108.362355 214.847917 
L 108.735961 225.151771 
L 109.483171 256.989207 
L 109.856776 260.868057 
L 110.230382 257.585414 
L 110.603987 262.288432 
L 110.977592 269.341206 
L 111.724803 269.081681 
L 112.098408 277.246205 
L 112.472013 281.665148 
L 113.219224 293.554211 
L 113.966434 277.702128 
L 114.340039 281.34951 
L 114.713644 282.366568 
L 115.83446 263.294969 
L 116.581671 254.113387 
L 116.955276 252.433487 
L 117.328881 249.185914 
L 118.076092 230.899905 
L 118.449697 231.569761 
L 118.823302 234.780158 
L 119.570513 252.173961 
L 119.944118 243.886689 
L 120.317723 231.906442 
L 120.691328 231.345306 
L 121.064934 234.59358 
L 121.438539 232.800752 
L 121.812144 233.435537 
L 122.185749 237.131562 
L 122.559354 237.019604 
L 123.306565 223.657747 
L 123.68017 224.702863 
L 124.053775 228.732518 
L 125.174591 233.809744 
L 125.921802 241.498355 
L 126.295407 238.885918 
L 126.669012 233.512693 
L 127.042617 231.720566 
L 127.416223 228.921902 
L 127.789828 229.367303 
L 128.163433 231.980091 
L 128.537038 238.960268 
L 128.910644 241.312479 
L 129.284249 232.688525 
L 130.405064 196.372525 
L 130.77867 196.653093 
L 131.152275 200.616113 
L 131.52588 211.526695 
L 131.899485 215.594929 
L 132.646696 199.879623 
L 133.020301 196.021815 
L 133.393906 193.531776 
L 133.767512 196.267312 
L 134.141117 205.592686 
L 134.888327 229.967017 
L 135.635538 246.573126 
L 136.009143 249.859277 
L 136.382748 249.897855 
L 136.756354 257.062856 
L 137.129959 257.844939 
L 137.503564 263.968332 
L 137.877169 276.579856 
L 138.250774 277.702128 
L 138.62438 274.405456 
L 139.37159 262.884639 
L 139.745195 263.7053 
L 140.492406 271.582242 
L 140.866011 264.227857 
L 141.239616 254.523717 
L 141.613222 252.398416 
L 141.986827 247.954922 
L 142.360432 242.059491 
L 142.734037 237.952679 
L 143.107643 238.325834 
L 143.481248 249.634822 
L 143.854853 252.398416 
L 144.228458 246.538055 
L 144.602064 246.313601 
L 145.349274 225.674329 
L 145.722879 232.018669 
L 146.096485 245.415783 
L 146.47009 249.448946 
L 146.843695 242.504892 
L 147.2173 229.332232 
L 147.964511 215.370475 
L 148.711721 226.084659 
L 149.085326 227.575176 
L 149.458932 237.243544 
L 149.832537 241.23883 
L 150.579747 229.553179 
L 150.953353 218.916151 
L 151.326958 213.802802 
L 151.700563 219.29141 
L 152.447774 238.213958 
L 152.821379 240.716272 
L 153.942195 231.64341 
L 154.3158 228.921902 
L 155.06301 220.56098 
L 155.436615 226.978969 
L 155.810221 221.381641 
L 156.183826 206.637801 
L 156.557431 196.477738 
L 156.931036 198.476784 
L 157.304642 201.668243 
L 157.678247 206.301119 
L 158.051852 209.138362 
L 158.799063 217.348478 
L 159.546273 230.040666 
L 159.919878 233.772569 
L 160.293484 238.773691 
L 161.040694 255.944092 
L 161.414299 272.125842 
L 161.787905 275.878437 
L 162.16151 265.272972 
L 162.90872 255.905514 
L 163.282325 255.084853 
L 163.655931 262.586535 
L 164.403141 282.892633 
L 164.776746 282.682207 
L 165.150352 273.213042 
L 165.897562 251.128846 
L 166.271167 250.641359 
L 166.644773 254.376419 
L 167.018378 255.011204 
L 167.391983 257.399537 
L 167.765588 255.421534 
L 168.139194 247.060612 
L 168.886404 237.504822 
L 169.260009 235.078612 
L 170.380825 251.314722 
L 170.75443 247.618241 
L 171.875246 222.426756 
L 172.248851 218.993307 
L 172.622456 221.269414 
L 172.996062 221.307992 
L 173.743272 229.518108 
L 174.116877 223.882202 
L 174.490483 223.92078 
L 174.864088 221.269414 
L 175.237693 220.073493 
L 176.732114 246.538055 
L 177.105719 247.470943 
L 177.479325 243.251904 
L 177.85293 237.318175 
L 178.226535 228.097733 
L 178.60014 223.92078 
L 178.973746 216.41559 
L 179.347351 214.812846 
L 179.720956 219.365059 
L 180.094561 215.970189 
L 180.841772 204.323116 
L 181.215377 204.249467 
L 182.336193 212.722616 
L 182.709798 213.280244 
L 183.083403 212.235129 
L 183.457008 210.558736 
L 183.830614 213.059297 
L 184.204219 214.549814 
L 184.577824 220.634629 
L 184.951429 222.875665 
L 185.325035 231.94502 
L 185.69864 247.17284 
L 186.072245 251.241073 
L 186.819456 238.064555 
L 187.193061 247.916344 
L 187.566666 264.266435 
L 187.940271 274.545739 
L 188.687482 281.980787 
L 189.061087 283.629123 
L 189.434692 282.471781 
L 189.808297 273.774178 
L 190.181903 257.360959 
L 190.555508 254.786749 
L 190.929113 254.074808 
L 191.676324 258.6656 
L 192.049929 253.966088 
L 192.423534 247.022034 
L 193.170745 227.203423 
L 193.54435 231.906442 
L 193.917955 246.762509 
L 194.29156 256.726175 
L 194.665166 256.052812 
L 195.038771 252.696519 
L 195.412376 245.678816 
L 196.159586 217.20118 
L 196.533192 212.459583 
L 196.906797 213.802802 
L 197.280402 216.79085 
L 197.654007 227.540105 
L 198.027613 224.741441 
L 198.401218 217.983263 
L 198.774823 213.767731 
L 199.148428 218.695204 
L 199.895639 233.474115 
L 200.642849 245.528011 
L 201.016455 247.17284 
L 201.39006 249.484017 
L 201.763665 249.448946 
L 202.13727 243.43778 
L 202.510876 242.992379 
L 202.884481 241.459777 
L 203.258086 234.071023 
L 203.631691 238.885918 
L 204.005296 234.92956 
L 204.752507 210.558736 
L 205.126112 205.368231 
L 205.499717 206.115243 
L 206.246928 206.935904 
L 206.994138 215.370475 
L 207.367744 215.409053 
L 207.741349 214.32536 
L 208.114954 216.268292 
L 208.488559 221.416712 
L 208.862165 224.253954 
L 209.23577 228.697447 
L 209.609375 240.45324 
L 209.98298 243.066028 
L 210.356586 240.266662 
L 210.730191 234.630756 
L 211.103796 235.004262 
L 211.851006 262.400659 
L 212.598217 286.189305 
L 212.971822 289.345693 
L 213.719033 276.579856 
L 214.466243 262.137627 
L 214.839848 257.922095 
L 215.213454 257.697641 
L 215.587059 269.751537 
L 215.960664 267.587657 
L 217.08148 233.32331 
L 217.455085 228.883323 
L 217.82869 232.688525 
L 218.575901 262.288432 
L 218.949506 257.175083 
L 219.323111 240.042909 
L 219.696717 232.502649 
L 220.070322 228.58522 
L 220.443927 226.642288 
L 220.817532 219.179183 
L 221.191137 209.475043 
L 221.564743 214.21664 
L 221.938348 212.571811 
L 222.311953 206.900833 
L 222.685558 203.24293 
L 223.059164 201.598101 
L 223.432769 208.093246 
L 223.806374 217.871036 
L 224.179979 222.461827 
L 225.300795 243.364131 
L 225.6744 253.106849 
L 226.048006 259.787871 
L 226.421611 262.733833 
L 226.795216 263.147671 
L 227.542427 244.297019 
L 227.916032 242.094562 
L 228.289637 235.788098 
L 228.663242 222.65121 
L 229.036847 214.402516 
L 229.410453 214.739197 
L 229.784058 214.700619 
L 230.157663 213.992185 
L 230.531268 218.544399 
L 230.904874 218.470749 
L 231.278479 210.891911 
L 231.652084 206.451925 
L 232.025689 208.244052 
L 232.399295 208.580733 
L 232.7729 206.676379 
L 233.146505 209.103291 
L 233.52011 223.173768 
L 233.893716 232.204545 
L 234.267321 230.7491 
L 234.640926 220.746856 
L 235.014531 215.594929 
L 236.508952 270.982528 
L 236.882557 279.350464 
L 237.629768 289.170338 
L 239.124189 262.846061 
L 239.497794 262.625113 
L 239.871399 265.458849 
L 240.245005 260.720759 
L 240.992215 232.502649 
L 241.36582 229.816212 
L 242.113031 239.109671 
L 242.486636 239.744105 
L 243.233847 247.916344 
L 243.607452 245.938341 
L 244.354662 232.278194 
L 244.728267 234.332302 
L 245.101873 233.176011 
L 245.475478 233.92162 
L 245.849083 224.552057 
L 246.222688 211.863377 
L 246.596294 209.923952 
L 246.969899 203.053547 
L 247.343504 199.879623 
L 247.717109 209.660919 
L 248.46432 240.080085 
L 248.837925 248.217955 
L 249.21153 248.140799 
L 249.585136 248.253026 
L 249.958741 249.298141 
L 250.332346 249.971504 
L 250.705951 253.106849 
L 251.079557 250.94297 
L 251.453162 246.425828 
L 251.826767 251.574248 
L 252.200372 249.150843 
L 252.573978 238.102081 
L 252.947583 223.433293 
L 253.321188 214.476165 
L 253.694793 214.437587 
L 254.068398 220.708278 
L 254.442004 224.664285 
L 254.815609 227.052618 
L 255.189214 225.484945 
L 255.562819 220.522402 
L 255.936425 217.348478 
L 256.31003 209.773146 
L 256.683635 207.49704 
L 257.430846 209.324238 
L 257.804451 220.596051 
L 258.178056 224.962388 
L 258.925267 202.944827 
L 259.298872 214.588392 
L 259.672477 236.011851 
L 260.419688 260.569954 
L 261.166898 272.160913 
L 261.540503 276.72014 
L 261.914108 277.246205 
L 262.287714 274.791236 
L 262.661319 274.791236 
L 263.408529 265.869179 
L 263.782135 267.436852 
L 264.15574 265.199323 
L 264.529345 256.87698 
L 264.90295 243.550007 
L 265.276556 238.512412 
L 265.650161 239.184372 
L 266.023766 242.841574 
L 266.397371 250.118802 
L 266.770977 251.202495 
L 267.144582 246.313601 
L 267.518187 247.544592 
L 267.891792 249.859277 
L 268.265398 242.431243 
L 269.012608 237.6914 
L 269.386213 232.130896 
L 269.759818 235.862448 
L 270.133424 232.390421 
L 270.880634 195.636034 
L 271.254239 194.338408 
L 271.627845 209.923952 
L 272.74866 239.259073 
L 273.122266 239.595053 
L 273.495871 234.556405 
L 273.869476 231.233079 
L 274.243081 229.405881 
L 274.616687 230.934976 
L 275.363897 243.998916 
L 275.737502 248.291604 
L 276.111108 258.444653 
L 276.484713 254.972626 
L 276.858318 239.296248 
L 277.231923 231.120852 
L 277.605528 236.161253 
L 277.979134 236.534408 
L 278.352739 231.233079 
L 278.726344 230.822749 
L 279.099949 229.518108 
L 280.220765 216.938148 
L 280.59437 207.458462 
L 280.967976 201.56303 
L 281.341581 201.21232 
L 282.088791 212.869914 
L 282.836002 215.296826 
L 283.209607 220.746856 
L 283.956818 236.497233 
L 285.077633 256.652525 
L 285.451238 256.165039 
L 285.824844 260.384078 
L 286.198449 269.043103 
L 286.572054 269.716466 
L 286.945659 267.587657 
L 287.319265 267.401781 
L 287.69287 271.880345 
L 288.066475 278.543831 
L 288.44008 274.650952 
L 289.187291 249.820699 
L 289.560896 247.134261 
L 290.308107 239.147196 
L 290.681712 239.930682 
L 291.055317 242.504892 
L 291.428922 239.893507 
L 291.802528 238.400535 
L 292.176133 240.490766 
L 292.549738 244.409246 
L 292.923343 246.425828 
L 293.670554 237.168913 
L 294.044159 238.176782 
L 294.417764 231.608339 
L 295.164975 203.800558 
L 295.53858 200.054978 
L 296.28579 207.945948 
L 297.033001 223.285995 
L 297.406606 226.831671 
L 297.780211 224.404759 
L 298.153817 228.844745 
L 298.901027 234.071023 
L 299.648238 243.476358 
L 300.021843 252.472065 
L 300.395448 256.165039 
L 301.142659 232.165967 
L 301.516264 238.848392 
L 301.889869 248.028571 
L 302.263474 250.045153 
L 303.010685 237.616699 
L 304.1315 222.837086 
L 304.505106 221.381641 
L 304.878711 224.853668 
L 305.252316 221.753393 
L 305.625921 214.437587 
L 305.999527 213.694082 
L 306.373132 217.61151 
L 306.746737 215.447631 
L 307.120342 206.188892 
L 307.493948 208.131825 
L 308.241158 230.187964 
L 308.988369 245.791043 
L 309.735579 250.679938 
L 310.482789 266.430315 
L 310.856395 269.751537 
L 311.23 274.826307 
L 311.603605 270.684425 
L 311.97721 282.752349 
L 312.350816 286.399731 
L 313.098026 257.809868 
L 313.471631 256.613947 
L 313.845237 258.704178 
L 314.218842 255.495183 
L 314.966052 235.713397 
L 315.339658 236.646285 
L 315.713263 240.042909 
L 316.086868 246.948385 
L 316.460473 248.589707 
L 316.834079 243.476358 
L 317.207684 240.304188 
L 317.581289 242.357594 
L 317.954894 250.15738 
L 318.328499 247.17284 
L 318.702105 226.231957 
L 319.07571 216.566395 
L 319.449315 215.970189 
L 319.82292 208.39135 
L 320.196526 203.390228 
L 320.943736 215.335404 
L 321.317341 217.68516 
L 321.690947 217.762316 
L 322.438157 224.702863 
L 322.811762 226.084659 
L 323.185368 232.579805 
L 323.558973 230.300191 
L 323.932578 233.400466 
L 324.306183 242.54347 
L 324.679789 239.968208 
L 325.053394 232.429 
L 325.426999 232.390421 
L 325.800604 232.057247 
L 326.17421 235.489293 
L 326.547815 246.162795 
L 326.92142 249.336719 
L 328.042236 225.674329 
L 328.415841 222.837086 
L 328.789446 221.86562 
L 329.163051 222.984385 
L 329.536657 221.493868 
L 329.910262 221.679744 
L 330.283867 222.24088 
L 330.657472 216.156065 
L 331.031078 204.698376 
L 331.404683 203.165774 
L 332.525499 235.862448 
L 333.272709 252.507136 
L 333.646314 256.764753 
L 334.393525 271.284138 
L 335.140735 261.390615 
L 335.51434 260.271851 
L 336.261551 275.562798 
L 337.008761 251.500598 
L 337.382367 250.865814 
L 337.755972 251.910929 
L 338.503182 242.992379 
L 338.876788 245.415783 
L 339.250393 245.791043 
L 339.623998 243.325553 
L 339.997603 242.582048 
L 340.371209 242.54347 
L 340.744814 241.126603 
L 341.492024 246.352179 
L 342.239235 253.51718 
L 342.61284 247.095683 
L 343.36005 224.552057 
L 344.107261 218.319944 
L 344.480866 218.916151 
L 344.854471 218.807431 
L 345.228077 216.268292 
L 345.601682 212.235129 
L 345.975287 210.334282 
L 346.348892 214.774268 
L 347.096103 219.252832 
L 347.469708 222.875665 
L 347.843313 231.755637 
L 348.216919 247.285067 
L 348.590524 243.848111 
L 348.964129 228.697447 
L 349.337734 227.838208 
L 350.45855 245.49294 
L 350.832155 245.380712 
L 351.20576 244.819577 
L 351.579366 243.104606 
L 352.326576 228.58522 
L 352.700181 221.45529 
L 353.447392 213.059297 
L 353.820997 213.020719 
L 354.194602 212.049253 
L 354.568208 212.385934 
L 354.941813 216.341941 
L 355.315418 218.695204 
L 355.689023 219.999844 
L 356.062629 224.741441 
L 356.436234 226.196886 
L 356.809839 222.65121 
L 357.183444 216.043838 
L 357.55705 213.206595 
L 357.930655 216.566395 
L 358.30426 225.562102 
L 358.677865 230.563223 
L 359.425076 221.830549 
L 360.919497 248.365253 
L 361.293102 251.128846 
L 361.666707 250.420412 
L 362.040312 252.73159 
L 362.413918 260.608532 
L 363.161128 292.186442 
L 363.534733 291.204455 
L 364.281944 272.090771 
L 364.655549 270.424899 
L 365.029154 273.739107 
L 365.40276 275.808295 
L 365.776365 275.738153 
L 366.14997 274.756165 
L 366.897181 256.09139 
L 367.270786 256.09139 
L 368.017996 274.896449 
L 368.391601 281.139084 
L 368.765207 283.52391 
L 369.138812 277.105921 
L 369.512417 263.445774 
L 369.886022 260.906635 
L 370.633233 288.994983 
L 371.006838 281.73529 
L 371.754049 236.385006 
L 372.127654 238.698989 
L 372.874864 261.13109 
L 373.24847 262.063978 
L 373.622075 256.726175 
L 373.99568 241.722809 
L 374.369285 217.948192 
L 374.742891 210.334282 
L 375.116496 209.064713 
L 375.490101 210.036179 
L 376.237311 211.228592 
L 376.610917 212.235129 
L 376.984522 216.082416 
L 377.358127 224.776512 
L 377.731732 237.056931 
L 378.105338 240.902148 
L 378.852548 219.028378 
L 379.226153 203.018476 
L 379.599759 196.477738 
L 379.973364 193.812343 
L 380.346969 196.968732 
L 380.720574 203.053547 
L 381.467785 221.493868 
L 381.84139 223.061541 
L 382.214995 219.663163 
L 382.588601 218.993307 
L 382.962206 222.724859 
L 383.709416 232.316772 
L 384.083021 234.033848 
L 384.456627 234.556405 
L 384.830232 232.83933 
L 385.203837 228.697447 
L 385.577442 226.270535 
L 385.951048 228.844745 
L 386.324653 236.161253 
L 386.698258 239.930682 
L 387.071863 240.526889 
L 387.819074 238.139256 
L 388.192679 235.563994 
L 388.566284 235.899974 
L 388.93989 237.579524 
L 389.313495 238.736515 
L 390.060705 235.041437 
L 390.434311 234.742983 
L 390.807916 234.59358 
L 391.181521 234.92956 
L 391.555126 235.93715 
L 391.928731 236.422532 
L 392.675942 238.064555 
L 393.049547 238.251133 
L 393.423152 237.840802 
L 394.170363 235.825273 
L 394.543968 234.966736 
L 396.411994 227.876786 
L 397.53281 226.11973 
L 397.906415 225.933854 
L 398.280021 226.831671 
L 398.653626 228.097733 
L 399.400836 233.102362 
L 399.774442 236.497233 
L 400.148047 238.698989 
L 400.521652 239.259073 
L 400.895257 238.549938 
L 401.268862 237.541998 
L 401.642468 236.982265 
L 402.016073 236.833003 
L 402.763283 237.094247 
L 403.136889 237.318175 
L 403.510494 237.355525 
L 404.63131 236.870318 
L 406.499336 237.131562 
L 406.872941 237.168913 
L 407.620152 236.982265 
L 408.740967 237.019604 
L 409.488178 237.094247 
L 416.960282 237.019604 
L 417.333888 236.982265 
L 418.081098 237.094247 
L 419.201914 236.982265 
L 419.949124 237.168913 
L 421.06994 237.056931 
L 422.190756 236.982265 
L 423.311572 237.094247 
L 424.058782 237.019604 
L 424.432387 236.982265 
L 424.805992 237.056931 
L 424.805992 237.056931 
" clip-path="url(#peb89ea375c)" style="fill: none; stroke: #ff7f0e; stroke-width: 1.5; stroke-linecap: square"/>
   </g>
   <g id="patch_9">
    <path d="M 50.565625 304.44375 
L 50.565625 175.97875 
" style="fill: none; stroke: #000000; stroke-width: 0.8; stroke-linejoin: miter; stroke-linecap: square"/>
   </g>
   <g id="patch_10">
    <path d="M 442.626962 304.44375 
L 442.626962 175.97875 
" style="fill: none; stroke: #000000; stroke-width: 0.8; stroke-linejoin: miter; stroke-linecap: square"/>
   </g>
   <g id="patch_11">
    <path d="M 50.565625 304.44375 
L 442.626962 304.44375 
" style="fill: none; stroke: #000000; stroke-width: 0.8; stroke-linejoin: miter; stroke-linecap: square"/>
   </g>
   <g id="patch_12">
    <path d="M 50.565625 175.97875 
L 442.626962 175.97875 
" style="fill: none; stroke: #000000; stroke-width: 0.8; stroke-linejoin: miter; stroke-linecap: square"/>
   </g>
   <g id="legend_2">
    <g id="patch_13">
     <path d="M 353.109775 213.335 
L 435.626962 213.335 
Q 437.626962 213.335 437.626962 211.335 
L 437.626962 182.97875 
Q 437.626962 180.97875 435.626962 180.97875 
L 353.109775 180.97875 
Q 351.109775 180.97875 351.109775 182.97875 
L 351.109775 211.335 
Q 351.109775 213.335 353.109775 213.335 
z
" style="fill: #ffffff; opacity: 0.8; stroke: #cccccc; stroke-linejoin: miter"/>
    </g>
    <g id="line2d_45">
     <path d="M 355.109775 189.077187 
L 365.109775 189.077187 
L 375.109775 189.077187 
" style="fill: none; stroke: #1f77b4; stroke-width: 1.5; stroke-linecap: square"/>
    </g>
    <g id="text_19">
     <!-- Reference -->
     <g transform="translate(383.109775 192.577187)scale(0.1 -0.1)">
      <use xlink:href="#DejaVuSans-52"/>
      <use xlink:href="#DejaVuSans-65" x="64.982422"/>
      <use xlink:href="#DejaVuSans-66" x="126.505859"/>
      <use xlink:href="#DejaVuSans-65" x="161.710938"/>
      <use xlink:href="#DejaVuSans-72" x="223.234375"/>
      <use xlink:href="#DejaVuSans-65" x="262.097656"/>
      <use xlink:href="#DejaVuSans-6e" x="323.621094"/>
      <use xlink:href="#DejaVuSans-63" x="387"/>
      <use xlink:href="#DejaVuSans-65" x="441.980469"/>
     </g>
    </g>
    <g id="line2d_46">
     <path d="M 355.109775 203.755312 
L 365.109775 203.755312 
L 375.109775 203.755312 
" style="fill: none; stroke: #ff7f0e; stroke-width: 1.5; stroke-linecap: square"/>
    </g>
    <g id="text_20">
     <!-- Estimated -->
     <g transform="translate(383.109775 207.255312)scale(0.1 -0.1)">
      <use xlink:href="#DejaVuSans-45"/>
      <use xlink:href="#DejaVuSans-73" x="63.183594"/>
      <use xlink:href="#DejaVuSans-74" x="115.283203"/>
      <use xlink:href="#DejaVuSans-69" x="154.492188"/>
      <use xlink:href="#DejaVuSans-6d" x="182.275391"/>
      <use xlink:href="#DejaVuSans-61" x="279.6875"/>
      <use xlink:href="#DejaVuSans-74" x="340.966797"/>
      <use xlink:href="#DejaVuSans-65" x="380.175781"/>
      <use xlink:href="#DejaVuSans-64" x="441.699219"/>
     </g>
    </g>
   </g>
  </g>
  <g id="text_21">
   <!-- Translational and Rotational Velocity -->
   <g transform="translate(121.384688 16.030125)scale(0.12 -0.12)">
    <defs>
     <path id="DejaVuSans-56" d="M 1831 0 
L 50 4666 
L 709 4666 
L 2188 738 
L 3669 4666 
L 4325 4666 
L 2547 0 
L 1831 0 
z
" transform="scale(0.015625)"/>
     <path id="DejaVuSans-79" d="M 2059 -325 
Q 1816 -950 1584 -1140 
Q 1353 -1331 966 -1331 
L 506 -1331 
L 506 -850 
L 844 -850 
Q 1081 -850 1212 -737 
Q 1344 -625 1503 -206 
L 1606 56 
L 191 3500 
L 800 3500 
L 1894 763 
L 2988 3500 
L 3597 3500 
L 2059 -325 
z
" transform="scale(0.015625)"/>
    </defs>
    <use xlink:href="#DejaVuSans-54"/>
    <use xlink:href="#DejaVuSans-72" x="46.333984"/>
    <use xlink:href="#DejaVuSans-61" x="87.447266"/>
    <use xlink:href="#DejaVuSans-6e" x="148.726562"/>
    <use xlink:href="#DejaVuSans-73" x="212.105469"/>
    <use xlink:href="#DejaVuSans-6c" x="264.205078"/>
    <use xlink:href="#DejaVuSans-61" x="291.988281"/>
    <use xlink:href="#DejaVuSans-74" x="353.267578"/>
    <use xlink:href="#DejaVuSans-69" x="392.476562"/>
    <use xlink:href="#DejaVuSans-6f" x="420.259766"/>
    <use xlink:href="#DejaVuSans-6e" x="481.441406"/>
    <use xlink:href="#DejaVuSans-61" x="544.820312"/>
    <use xlink:href="#DejaVuSans-6c" x="606.099609"/>
    <use xlink:href="#DejaVuSans-20" x="633.882812"/>
    <use xlink:href="#DejaVuSans-61" x="665.669922"/>
    <use xlink:href="#DejaVuSans-6e" x="726.949219"/>
    <use xlink:href="#DejaVuSans-64" x="790.328125"/>
    <use xlink:href="#DejaVuSans-20" x="853.804688"/>
    <use xlink:href="#DejaVuSans-52" x="885.591797"/>
    <use xlink:href="#DejaVuSans-6f" x="950.574219"/>
    <use xlink:href="#DejaVuSans-74" x="1011.755859"/>
    <use xlink:href="#DejaVuSans-61" x="1050.964844"/>
    <use xlink:href="#DejaVuSans-74" x="1112.244141"/>
    <use xlink:href="#DejaVuSans-69" x="1151.453125"/>
    <use xlink:href="#DejaVuSans-6f" x="1179.236328"/>
    <use xlink:href="#DejaVuSans-6e" x="1240.417969"/>
    <use xlink:href="#DejaVuSans-61" x="1303.796875"/>
    <use xlink:href="#DejaVuSans-6c" x="1365.076172"/>
    <use xlink:href="#DejaVuSans-20" x="1392.859375"/>
    <use xlink:href="#DejaVuSans-56" x="1424.646484"/>
    <use xlink:href="#DejaVuSans-65" x="1485.304688"/>
    <use xlink:href="#DejaVuSans-6c" x="1546.828125"/>
    <use xlink:href="#DejaVuSans-6f" x="1574.611328"/>
    <use xlink:href="#DejaVuSans-63" x="1635.792969"/>
    <use xlink:href="#DejaVuSans-69" x="1690.773438"/>
    <use xlink:href="#DejaVuSans-74" x="1718.556641"/>
    <use xlink:href="#DejaVuSans-79" x="1757.765625"/>
   </g>
  </g>
 </g>
 <defs>
  <clipPath id="p06d9741d2c">
   <rect x="50.565625" y="33.21375" width="392.061337" height="128.465"/>
  </clipPath>
  <clipPath id="peb89ea375c">
   <rect x="50.565625" y="175.97875" width="392.061337" height="128.465"/>
  </clipPath>
 </defs>
</svg>
