<?xml version="1.0" encoding="utf-8" standalone="no"?>
<!DOCTYPE svg PUBLIC "-//W3C//DTD SVG 1.1//EN"
  "http://www.w3.org/Graphics/SVG/1.1/DTD/svg11.dtd">
<svg xmlns:xlink="http://www.w3.org/1999/xlink" width="576pt" height="432pt" viewBox="0 0 576 432" xmlns="http://www.w3.org/2000/svg" version="1.1">
 <metadata>
  <rdf:RDF xmlns:dc="http://purl.org/dc/elements/1.1/" xmlns:cc="http://creativecommons.org/ns#" xmlns:rdf="http://www.w3.org/1999/02/22-rdf-syntax-ns#">
   <cc:Work>
    <dc:type rdf:resource="http://purl.org/dc/dcmitype/StillImage"/>
    <dc:date>2022-01-10T00:01:25.154508</dc:date>
    <dc:format>image/svg+xml</dc:format>
    <dc:creator>
     <cc:Agent>
      <dc:title>Matplotlib v3.5.1, https://matplotlib.org/</dc:title>
     </cc:Agent>
    </dc:creator>
   </cc:Work>
  </rdf:RDF>
 </metadata>
 <defs>
  <style type="text/css">*{stroke-linejoin: round; stroke-linecap: butt}</style>
 </defs>
 <g id="figure_1">
  <g id="patch_1">
   <path d="M 0 432 
L 576 432 
L 576 0 
L 0 0 
z
" style="fill: #ffffff"/>
  </g>
  <g id="axes_1">
   <g id="patch_2">
    <path d="M 56.909624 179.44 
L 565.2 179.44 
L 565.2 25.44 
L 56.909624 25.44 
z
" style="fill: #ffffff"/>
   </g>
   <g id="matplotlib.axis_1">
    <g id="xtick_1">
     <g id="line2d_1">
      <path d="M 80.013732 179.44 
L 80.013732 25.44 
" clip-path="url(#p659f98c5c4)" style="fill: none; stroke: #b0b0b0; stroke-width: 0.8; stroke-linecap: square"/>
     </g>
     <g id="line2d_2">
      <defs>
       <path id="mf910d4e39a" d="M 0 0 
L 0 3.5 
" style="stroke: #000000; stroke-width: 0.8"/>
      </defs>
      <g>
       <use xlink:href="#mf910d4e39a" x="80.013732" y="179.44" style="stroke: #000000; stroke-width: 0.8"/>
      </g>
     </g>
     <g id="text_1">
      <!-- 0.0 -->
      <g transform="translate(72.06217 194.038437)scale(0.1 -0.1)">
       <defs>
        <path id="DejaVuSans-30" d="M 2034 4250 
Q 1547 4250 1301 3770 
Q 1056 3291 1056 2328 
Q 1056 1369 1301 889 
Q 1547 409 2034 409 
Q 2525 409 2770 889 
Q 3016 1369 3016 2328 
Q 3016 3291 2770 3770 
Q 2525 4250 2034 4250 
z
M 2034 4750 
Q 2819 4750 3233 4129 
Q 3647 3509 3647 2328 
Q 3647 1150 3233 529 
Q 2819 -91 2034 -91 
Q 1250 -91 836 529 
Q 422 1150 422 2328 
Q 422 3509 836 4129 
Q 1250 4750 2034 4750 
z
" transform="scale(0.015625)"/>
        <path id="DejaVuSans-2e" d="M 684 794 
L 1344 794 
L 1344 0 
L 684 0 
L 684 794 
z
" transform="scale(0.015625)"/>
       </defs>
       <use xlink:href="#DejaVuSans-30"/>
       <use xlink:href="#DejaVuSans-2e" x="63.623047"/>
       <use xlink:href="#DejaVuSans-30" x="95.410156"/>
      </g>
     </g>
    </g>
    <g id="xtick_2">
     <g id="line2d_3">
      <path d="M 137.486637 179.44 
L 137.486637 25.44 
" clip-path="url(#p659f98c5c4)" style="fill: none; stroke: #b0b0b0; stroke-width: 0.8; stroke-linecap: square"/>
     </g>
     <g id="line2d_4">
      <g>
       <use xlink:href="#mf910d4e39a" x="137.486637" y="179.44" style="stroke: #000000; stroke-width: 0.8"/>
      </g>
     </g>
     <g id="text_2">
      <!-- 0.1 -->
      <g transform="translate(129.535075 194.038437)scale(0.1 -0.1)">
       <defs>
        <path id="DejaVuSans-31" d="M 794 531 
L 1825 531 
L 1825 4091 
L 703 3866 
L 703 4441 
L 1819 4666 
L 2450 4666 
L 2450 531 
L 3481 531 
L 3481 0 
L 794 0 
L 794 531 
z
" transform="scale(0.015625)"/>
       </defs>
       <use xlink:href="#DejaVuSans-30"/>
       <use xlink:href="#DejaVuSans-2e" x="63.623047"/>
       <use xlink:href="#DejaVuSans-31" x="95.410156"/>
      </g>
     </g>
    </g>
    <g id="xtick_3">
     <g id="line2d_5">
      <path d="M 194.959543 179.44 
L 194.959543 25.44 
" clip-path="url(#p659f98c5c4)" style="fill: none; stroke: #b0b0b0; stroke-width: 0.8; stroke-linecap: square"/>
     </g>
     <g id="line2d_6">
      <g>
       <use xlink:href="#mf910d4e39a" x="194.959543" y="179.44" style="stroke: #000000; stroke-width: 0.8"/>
      </g>
     </g>
     <g id="text_3">
      <!-- 0.2 -->
      <g transform="translate(187.00798 194.038437)scale(0.1 -0.1)">
       <defs>
        <path id="DejaVuSans-32" d="M 1228 531 
L 3431 531 
L 3431 0 
L 469 0 
L 469 531 
Q 828 903 1448 1529 
Q 2069 2156 2228 2338 
Q 2531 2678 2651 2914 
Q 2772 3150 2772 3378 
Q 2772 3750 2511 3984 
Q 2250 4219 1831 4219 
Q 1534 4219 1204 4116 
Q 875 4013 500 3803 
L 500 4441 
Q 881 4594 1212 4672 
Q 1544 4750 1819 4750 
Q 2544 4750 2975 4387 
Q 3406 4025 3406 3419 
Q 3406 3131 3298 2873 
Q 3191 2616 2906 2266 
Q 2828 2175 2409 1742 
Q 1991 1309 1228 531 
z
" transform="scale(0.015625)"/>
       </defs>
       <use xlink:href="#DejaVuSans-30"/>
       <use xlink:href="#DejaVuSans-2e" x="63.623047"/>
       <use xlink:href="#DejaVuSans-32" x="95.410156"/>
      </g>
     </g>
    </g>
    <g id="xtick_4">
     <g id="line2d_7">
      <path d="M 252.432448 179.44 
L 252.432448 25.44 
" clip-path="url(#p659f98c5c4)" style="fill: none; stroke: #b0b0b0; stroke-width: 0.8; stroke-linecap: square"/>
     </g>
     <g id="line2d_8">
      <g>
       <use xlink:href="#mf910d4e39a" x="252.432448" y="179.44" style="stroke: #000000; stroke-width: 0.8"/>
      </g>
     </g>
     <g id="text_4">
      <!-- 0.3 -->
      <g transform="translate(244.480886 194.038437)scale(0.1 -0.1)">
       <defs>
        <path id="DejaVuSans-33" d="M 2597 2516 
Q 3050 2419 3304 2112 
Q 3559 1806 3559 1356 
Q 3559 666 3084 287 
Q 2609 -91 1734 -91 
Q 1441 -91 1130 -33 
Q 819 25 488 141 
L 488 750 
Q 750 597 1062 519 
Q 1375 441 1716 441 
Q 2309 441 2620 675 
Q 2931 909 2931 1356 
Q 2931 1769 2642 2001 
Q 2353 2234 1838 2234 
L 1294 2234 
L 1294 2753 
L 1863 2753 
Q 2328 2753 2575 2939 
Q 2822 3125 2822 3475 
Q 2822 3834 2567 4026 
Q 2313 4219 1838 4219 
Q 1578 4219 1281 4162 
Q 984 4106 628 3988 
L 628 4550 
Q 988 4650 1302 4700 
Q 1616 4750 1894 4750 
Q 2613 4750 3031 4423 
Q 3450 4097 3450 3541 
Q 3450 3153 3228 2886 
Q 3006 2619 2597 2516 
z
" transform="scale(0.015625)"/>
       </defs>
       <use xlink:href="#DejaVuSans-30"/>
       <use xlink:href="#DejaVuSans-2e" x="63.623047"/>
       <use xlink:href="#DejaVuSans-33" x="95.410156"/>
      </g>
     </g>
    </g>
    <g id="xtick_5">
     <g id="line2d_9">
      <path d="M 309.905354 179.44 
L 309.905354 25.44 
" clip-path="url(#p659f98c5c4)" style="fill: none; stroke: #b0b0b0; stroke-width: 0.8; stroke-linecap: square"/>
     </g>
     <g id="line2d_10">
      <g>
       <use xlink:href="#mf910d4e39a" x="309.905354" y="179.44" style="stroke: #000000; stroke-width: 0.8"/>
      </g>
     </g>
     <g id="text_5">
      <!-- 0.4 -->
      <g transform="translate(301.953791 194.038437)scale(0.1 -0.1)">
       <defs>
        <path id="DejaVuSans-34" d="M 2419 4116 
L 825 1625 
L 2419 1625 
L 2419 4116 
z
M 2253 4666 
L 3047 4666 
L 3047 1625 
L 3713 1625 
L 3713 1100 
L 3047 1100 
L 3047 0 
L 2419 0 
L 2419 1100 
L 313 1100 
L 313 1709 
L 2253 4666 
z
" transform="scale(0.015625)"/>
       </defs>
       <use xlink:href="#DejaVuSans-30"/>
       <use xlink:href="#DejaVuSans-2e" x="63.623047"/>
       <use xlink:href="#DejaVuSans-34" x="95.410156"/>
      </g>
     </g>
    </g>
    <g id="xtick_6">
     <g id="line2d_11">
      <path d="M 367.378259 179.44 
L 367.378259 25.44 
" clip-path="url(#p659f98c5c4)" style="fill: none; stroke: #b0b0b0; stroke-width: 0.8; stroke-linecap: square"/>
     </g>
     <g id="line2d_12">
      <g>
       <use xlink:href="#mf910d4e39a" x="367.378259" y="179.44" style="stroke: #000000; stroke-width: 0.8"/>
      </g>
     </g>
     <g id="text_6">
      <!-- 0.5 -->
      <g transform="translate(359.426697 194.038437)scale(0.1 -0.1)">
       <defs>
        <path id="DejaVuSans-35" d="M 691 4666 
L 3169 4666 
L 3169 4134 
L 1269 4134 
L 1269 2991 
Q 1406 3038 1543 3061 
Q 1681 3084 1819 3084 
Q 2600 3084 3056 2656 
Q 3513 2228 3513 1497 
Q 3513 744 3044 326 
Q 2575 -91 1722 -91 
Q 1428 -91 1123 -41 
Q 819 9 494 109 
L 494 744 
Q 775 591 1075 516 
Q 1375 441 1709 441 
Q 2250 441 2565 725 
Q 2881 1009 2881 1497 
Q 2881 1984 2565 2268 
Q 2250 2553 1709 2553 
Q 1456 2553 1204 2497 
Q 953 2441 691 2322 
L 691 4666 
z
" transform="scale(0.015625)"/>
       </defs>
       <use xlink:href="#DejaVuSans-30"/>
       <use xlink:href="#DejaVuSans-2e" x="63.623047"/>
       <use xlink:href="#DejaVuSans-35" x="95.410156"/>
      </g>
     </g>
    </g>
    <g id="xtick_7">
     <g id="line2d_13">
      <path d="M 424.851165 179.44 
L 424.851165 25.44 
" clip-path="url(#p659f98c5c4)" style="fill: none; stroke: #b0b0b0; stroke-width: 0.8; stroke-linecap: square"/>
     </g>
     <g id="line2d_14">
      <g>
       <use xlink:href="#mf910d4e39a" x="424.851165" y="179.44" style="stroke: #000000; stroke-width: 0.8"/>
      </g>
     </g>
     <g id="text_7">
      <!-- 0.6 -->
      <g transform="translate(416.899602 194.038437)scale(0.1 -0.1)">
       <defs>
        <path id="DejaVuSans-36" d="M 2113 2584 
Q 1688 2584 1439 2293 
Q 1191 2003 1191 1497 
Q 1191 994 1439 701 
Q 1688 409 2113 409 
Q 2538 409 2786 701 
Q 3034 994 3034 1497 
Q 3034 2003 2786 2293 
Q 2538 2584 2113 2584 
z
M 3366 4563 
L 3366 3988 
Q 3128 4100 2886 4159 
Q 2644 4219 2406 4219 
Q 1781 4219 1451 3797 
Q 1122 3375 1075 2522 
Q 1259 2794 1537 2939 
Q 1816 3084 2150 3084 
Q 2853 3084 3261 2657 
Q 3669 2231 3669 1497 
Q 3669 778 3244 343 
Q 2819 -91 2113 -91 
Q 1303 -91 875 529 
Q 447 1150 447 2328 
Q 447 3434 972 4092 
Q 1497 4750 2381 4750 
Q 2619 4750 2861 4703 
Q 3103 4656 3366 4563 
z
" transform="scale(0.015625)"/>
       </defs>
       <use xlink:href="#DejaVuSans-30"/>
       <use xlink:href="#DejaVuSans-2e" x="63.623047"/>
       <use xlink:href="#DejaVuSans-36" x="95.410156"/>
      </g>
     </g>
    </g>
    <g id="xtick_8">
     <g id="line2d_15">
      <path d="M 482.32407 179.44 
L 482.32407 25.44 
" clip-path="url(#p659f98c5c4)" style="fill: none; stroke: #b0b0b0; stroke-width: 0.8; stroke-linecap: square"/>
     </g>
     <g id="line2d_16">
      <g>
       <use xlink:href="#mf910d4e39a" x="482.32407" y="179.44" style="stroke: #000000; stroke-width: 0.8"/>
      </g>
     </g>
     <g id="text_8">
      <!-- 0.7 -->
      <g transform="translate(474.372508 194.038437)scale(0.1 -0.1)">
       <defs>
        <path id="DejaVuSans-37" d="M 525 4666 
L 3525 4666 
L 3525 4397 
L 1831 0 
L 1172 0 
L 2766 4134 
L 525 4134 
L 525 4666 
z
" transform="scale(0.015625)"/>
       </defs>
       <use xlink:href="#DejaVuSans-30"/>
       <use xlink:href="#DejaVuSans-2e" x="63.623047"/>
       <use xlink:href="#DejaVuSans-37" x="95.410156"/>
      </g>
     </g>
    </g>
    <g id="xtick_9">
     <g id="line2d_17">
      <path d="M 539.796976 179.44 
L 539.796976 25.44 
" clip-path="url(#p659f98c5c4)" style="fill: none; stroke: #b0b0b0; stroke-width: 0.8; stroke-linecap: square"/>
     </g>
     <g id="line2d_18">
      <g>
       <use xlink:href="#mf910d4e39a" x="539.796976" y="179.44" style="stroke: #000000; stroke-width: 0.8"/>
      </g>
     </g>
     <g id="text_9">
      <!-- 0.8 -->
      <g transform="translate(531.845413 194.038437)scale(0.1 -0.1)">
       <defs>
        <path id="DejaVuSans-38" d="M 2034 2216 
Q 1584 2216 1326 1975 
Q 1069 1734 1069 1313 
Q 1069 891 1326 650 
Q 1584 409 2034 409 
Q 2484 409 2743 651 
Q 3003 894 3003 1313 
Q 3003 1734 2745 1975 
Q 2488 2216 2034 2216 
z
M 1403 2484 
Q 997 2584 770 2862 
Q 544 3141 544 3541 
Q 544 4100 942 4425 
Q 1341 4750 2034 4750 
Q 2731 4750 3128 4425 
Q 3525 4100 3525 3541 
Q 3525 3141 3298 2862 
Q 3072 2584 2669 2484 
Q 3125 2378 3379 2068 
Q 3634 1759 3634 1313 
Q 3634 634 3220 271 
Q 2806 -91 2034 -91 
Q 1263 -91 848 271 
Q 434 634 434 1313 
Q 434 1759 690 2068 
Q 947 2378 1403 2484 
z
M 1172 3481 
Q 1172 3119 1398 2916 
Q 1625 2713 2034 2713 
Q 2441 2713 2670 2916 
Q 2900 3119 2900 3481 
Q 2900 3844 2670 4047 
Q 2441 4250 2034 4250 
Q 1625 4250 1398 4047 
Q 1172 3844 1172 3481 
z
" transform="scale(0.015625)"/>
       </defs>
       <use xlink:href="#DejaVuSans-30"/>
       <use xlink:href="#DejaVuSans-2e" x="63.623047"/>
       <use xlink:href="#DejaVuSans-38" x="95.410156"/>
      </g>
     </g>
    </g>
    <g id="text_10">
     <!-- Time [ms] -->
     <g transform="translate(285.855593 207.716562)scale(0.1 -0.1)">
      <defs>
       <path id="DejaVuSans-54" d="M -19 4666 
L 3928 4666 
L 3928 4134 
L 2272 4134 
L 2272 0 
L 1638 0 
L 1638 4134 
L -19 4134 
L -19 4666 
z
" transform="scale(0.015625)"/>
       <path id="DejaVuSans-69" d="M 603 3500 
L 1178 3500 
L 1178 0 
L 603 0 
L 603 3500 
z
M 603 4863 
L 1178 4863 
L 1178 4134 
L 603 4134 
L 603 4863 
z
" transform="scale(0.015625)"/>
       <path id="DejaVuSans-6d" d="M 3328 2828 
Q 3544 3216 3844 3400 
Q 4144 3584 4550 3584 
Q 5097 3584 5394 3201 
Q 5691 2819 5691 2113 
L 5691 0 
L 5113 0 
L 5113 2094 
Q 5113 2597 4934 2840 
Q 4756 3084 4391 3084 
Q 3944 3084 3684 2787 
Q 3425 2491 3425 1978 
L 3425 0 
L 2847 0 
L 2847 2094 
Q 2847 2600 2669 2842 
Q 2491 3084 2119 3084 
Q 1678 3084 1418 2786 
Q 1159 2488 1159 1978 
L 1159 0 
L 581 0 
L 581 3500 
L 1159 3500 
L 1159 2956 
Q 1356 3278 1631 3431 
Q 1906 3584 2284 3584 
Q 2666 3584 2933 3390 
Q 3200 3197 3328 2828 
z
" transform="scale(0.015625)"/>
       <path id="DejaVuSans-65" d="M 3597 1894 
L 3597 1613 
L 953 1613 
Q 991 1019 1311 708 
Q 1631 397 2203 397 
Q 2534 397 2845 478 
Q 3156 559 3463 722 
L 3463 178 
Q 3153 47 2828 -22 
Q 2503 -91 2169 -91 
Q 1331 -91 842 396 
Q 353 884 353 1716 
Q 353 2575 817 3079 
Q 1281 3584 2069 3584 
Q 2775 3584 3186 3129 
Q 3597 2675 3597 1894 
z
M 3022 2063 
Q 3016 2534 2758 2815 
Q 2500 3097 2075 3097 
Q 1594 3097 1305 2825 
Q 1016 2553 972 2059 
L 3022 2063 
z
" transform="scale(0.015625)"/>
       <path id="DejaVuSans-20" transform="scale(0.015625)"/>
       <path id="DejaVuSans-5b" d="M 550 4863 
L 1875 4863 
L 1875 4416 
L 1125 4416 
L 1125 -397 
L 1875 -397 
L 1875 -844 
L 550 -844 
L 550 4863 
z
" transform="scale(0.015625)"/>
       <path id="DejaVuSans-73" d="M 2834 3397 
L 2834 2853 
Q 2591 2978 2328 3040 
Q 2066 3103 1784 3103 
Q 1356 3103 1142 2972 
Q 928 2841 928 2578 
Q 928 2378 1081 2264 
Q 1234 2150 1697 2047 
L 1894 2003 
Q 2506 1872 2764 1633 
Q 3022 1394 3022 966 
Q 3022 478 2636 193 
Q 2250 -91 1575 -91 
Q 1294 -91 989 -36 
Q 684 19 347 128 
L 347 722 
Q 666 556 975 473 
Q 1284 391 1588 391 
Q 1994 391 2212 530 
Q 2431 669 2431 922 
Q 2431 1156 2273 1281 
Q 2116 1406 1581 1522 
L 1381 1569 
Q 847 1681 609 1914 
Q 372 2147 372 2553 
Q 372 3047 722 3315 
Q 1072 3584 1716 3584 
Q 2034 3584 2315 3537 
Q 2597 3491 2834 3397 
z
" transform="scale(0.015625)"/>
       <path id="DejaVuSans-5d" d="M 1947 4863 
L 1947 -844 
L 622 -844 
L 622 -397 
L 1369 -397 
L 1369 4416 
L 622 4416 
L 622 4863 
L 1947 4863 
z
" transform="scale(0.015625)"/>
      </defs>
      <use xlink:href="#DejaVuSans-54"/>
      <use xlink:href="#DejaVuSans-69" x="57.958984"/>
      <use xlink:href="#DejaVuSans-6d" x="85.742188"/>
      <use xlink:href="#DejaVuSans-65" x="183.154297"/>
      <use xlink:href="#DejaVuSans-20" x="244.677734"/>
      <use xlink:href="#DejaVuSans-5b" x="276.464844"/>
      <use xlink:href="#DejaVuSans-6d" x="315.478516"/>
      <use xlink:href="#DejaVuSans-73" x="412.890625"/>
      <use xlink:href="#DejaVuSans-5d" x="464.990234"/>
     </g>
    </g>
   </g>
   <g id="matplotlib.axis_2">
    <g id="ytick_1">
     <g id="line2d_19">
      <path d="M 56.909624 166.640544 
L 565.2 166.640544 
" clip-path="url(#p659f98c5c4)" style="fill: none; stroke: #b0b0b0; stroke-width: 0.8; stroke-linecap: square"/>
     </g>
     <g id="line2d_20">
      <defs>
       <path id="m69a4375a34" d="M 0 0 
L -3.5 0 
" style="stroke: #000000; stroke-width: 0.8"/>
      </defs>
      <g>
       <use xlink:href="#m69a4375a34" x="56.909624" y="166.640544" style="stroke: #000000; stroke-width: 0.8"/>
      </g>
     </g>
     <g id="text_11">
      <!-- $\mathdefault{0}$ -->
      <g transform="translate(43.509624 170.439762)scale(0.1 -0.1)">
       <use xlink:href="#DejaVuSans-30" transform="translate(0 0.78125)"/>
      </g>
     </g>
    </g>
    <g id="ytick_2">
     <g id="line2d_21">
      <path d="M 56.909624 128.016125 
L 565.2 128.016125 
" clip-path="url(#p659f98c5c4)" style="fill: none; stroke: #b0b0b0; stroke-width: 0.8; stroke-linecap: square"/>
     </g>
     <g id="line2d_22">
      <g>
       <use xlink:href="#m69a4375a34" x="56.909624" y="128.016125" style="stroke: #000000; stroke-width: 0.8"/>
      </g>
     </g>
     <g id="text_12">
      <!-- $\mathdefault{2}$ -->
      <g transform="translate(43.509624 131.815343)scale(0.1 -0.1)">
       <use xlink:href="#DejaVuSans-32" transform="translate(0 0.78125)"/>
      </g>
     </g>
    </g>
    <g id="ytick_3">
     <g id="line2d_23">
      <path d="M 56.909624 89.391706 
L 565.2 89.391706 
" clip-path="url(#p659f98c5c4)" style="fill: none; stroke: #b0b0b0; stroke-width: 0.8; stroke-linecap: square"/>
     </g>
     <g id="line2d_24">
      <g>
       <use xlink:href="#m69a4375a34" x="56.909624" y="89.391706" style="stroke: #000000; stroke-width: 0.8"/>
      </g>
     </g>
     <g id="text_13">
      <!-- $\mathdefault{4}$ -->
      <g transform="translate(43.509624 93.190924)scale(0.1 -0.1)">
       <use xlink:href="#DejaVuSans-34" transform="translate(0 0.09375)"/>
      </g>
     </g>
    </g>
    <g id="ytick_4">
     <g id="line2d_25">
      <path d="M 56.909624 50.767287 
L 565.2 50.767287 
" clip-path="url(#p659f98c5c4)" style="fill: none; stroke: #b0b0b0; stroke-width: 0.8; stroke-linecap: square"/>
     </g>
     <g id="line2d_26">
      <g>
       <use xlink:href="#m69a4375a34" x="56.909624" y="50.767287" style="stroke: #000000; stroke-width: 0.8"/>
      </g>
     </g>
     <g id="text_14">
      <!-- $\mathdefault{6}$ -->
      <g transform="translate(43.509624 54.566506)scale(0.1 -0.1)">
       <use xlink:href="#DejaVuSans-36" transform="translate(0 0.78125)"/>
      </g>
     </g>
    </g>
    <g id="text_15">
     <!-- vel. [m/s] -->
     <g transform="translate(37.429937 126.104062)rotate(-90)scale(0.1 -0.1)">
      <defs>
       <path id="DejaVuSans-76" d="M 191 3500 
L 800 3500 
L 1894 563 
L 2988 3500 
L 3597 3500 
L 2284 0 
L 1503 0 
L 191 3500 
z
" transform="scale(0.015625)"/>
       <path id="DejaVuSans-6c" d="M 603 4863 
L 1178 4863 
L 1178 0 
L 603 0 
L 603 4863 
z
" transform="scale(0.015625)"/>
       <path id="DejaVuSans-2f" d="M 1625 4666 
L 2156 4666 
L 531 -594 
L 0 -594 
L 1625 4666 
z
" transform="scale(0.015625)"/>
      </defs>
      <use xlink:href="#DejaVuSans-76"/>
      <use xlink:href="#DejaVuSans-65" x="59.179688"/>
      <use xlink:href="#DejaVuSans-6c" x="120.703125"/>
      <use xlink:href="#DejaVuSans-2e" x="148.486328"/>
      <use xlink:href="#DejaVuSans-20" x="180.273438"/>
      <use xlink:href="#DejaVuSans-5b" x="212.060547"/>
      <use xlink:href="#DejaVuSans-6d" x="251.074219"/>
      <use xlink:href="#DejaVuSans-2f" x="348.486328"/>
      <use xlink:href="#DejaVuSans-73" x="382.177734"/>
      <use xlink:href="#DejaVuSans-5d" x="434.277344"/>
     </g>
    </g>
    <g id="text_16">
     <!-- $\times\mathdefault{10^{2}}\mathdefault{}$ -->
     <g transform="translate(56.909624 22.44)scale(0.1 -0.1)">
      <defs>
       <path id="DejaVuSans-d7" d="M 4488 3438 
L 3059 2003 
L 4488 575 
L 4116 197 
L 2681 1631 
L 1247 197 
L 878 575 
L 2303 2003 
L 878 3438 
L 1247 3816 
L 2681 2381 
L 4116 3816 
L 4488 3438 
z
" transform="scale(0.015625)"/>
      </defs>
      <use xlink:href="#DejaVuSans-d7" transform="translate(0 0.765625)"/>
      <use xlink:href="#DejaVuSans-31" transform="translate(83.789062 0.765625)"/>
      <use xlink:href="#DejaVuSans-30" transform="translate(147.412109 0.765625)"/>
      <use xlink:href="#DejaVuSans-32" transform="translate(211.992188 39.046875)scale(0.7)"/>
     </g>
    </g>
   </g>
   <g id="line2d_27">
    <path d="M 80.013732 166.640544 
L 81.16319 166.547845 
L 82.312648 166.269749 
L 83.462106 165.806256 
L 84.611564 165.157366 
L 85.761023 164.323078 
L 87.48521 162.724027 
L 89.209397 160.707833 
L 90.933584 158.274494 
L 92.657771 155.424012 
L 94.381958 152.156386 
L 96.106146 148.471617 
L 97.830333 144.373566 
L 100.129249 138.251596 
L 103.002894 129.715599 
L 120.244766 77.823692 
L 122.543682 71.856219 
L 124.842598 66.641923 
L 126.566785 63.20435 
L 128.290973 60.191645 
L 130.01516 57.603809 
L 131.739347 55.421529 
L 133.463534 53.664118 
L 134.612992 52.71782 
L 135.76245 51.964644 
L 136.911908 51.385277 
L 138.061367 50.999033 
L 139.210825 50.805911 
L 140.935012 50.767287 
L 426.000623 50.863848 
L 427.150081 51.134219 
L 428.299539 51.597712 
L 430.023726 52.640571 
L 431.747913 54.108299 
L 433.472101 55.981583 
L 435.196288 58.279736 
L 436.920475 60.983446 
L 438.644662 64.112024 
L 440.368849 67.66547 
L 442.093036 71.624473 
L 444.391953 77.553321 
L 446.690869 84.216034 
L 465.082199 139.584138 
L 467.381115 145.551611 
L 469.680031 150.765907 
L 471.404218 154.197687 
L 473.128405 157.210392 
L 474.852593 159.805953 
L 476.57678 161.986301 
L 478.300967 163.747575 
L 480.025154 165.092863 
L 481.174612 165.757782 
L 482.32407 166.237111 
L 483.473528 166.531198 
L 484.622987 166.639856 
L 542.095892 166.640544 
L 542.095892 166.640544 
" clip-path="url(#p659f98c5c4)" style="fill: none; stroke: #1f77b4; stroke-width: 2; stroke-linecap: square"/>
   </g>
   <g id="line2d_28">
    <path d="M 80.013732 166.640544 
L 87.48521 166.459685 
L 88.059939 166.334445 
L 89.209397 164.352047 
L 89.784126 162.884319 
L 90.933584 160.582303 
L 91.508313 159.945 
L 92.083042 158.734125 
L 92.657771 157.96743 
L 93.2325 156.503565 
L 93.807229 155.601685 
L 94.381958 153.593215 
L 94.956687 152.233635 
L 95.531416 151.445697 
L 96.106146 149.025877 
L 96.680875 147.992674 
L 97.255604 145.339176 
L 97.830333 144.103195 
L 98.405062 140.665622 
L 98.979791 139.622762 
L 99.55452 136.088628 
L 100.129249 135.374076 
L 100.703978 130.855019 
L 101.278707 129.541789 
L 101.853436 123.825375 
L 102.428165 121.778281 
L 103.002894 114.710012 
L 103.577623 113.280909 
L 104.152352 106.637509 
L 104.727081 106.21264 
L 105.30181 100.998344 
L 105.876539 100.727973 
L 106.451269 94.567378 
L 107.025998 94.567378 
L 107.600727 87.286675 
L 108.175456 88.63853 
L 108.750185 83.192486 
L 109.324914 86.050693 
L 109.899643 82.767618 
L 110.474372 85.799635 
L 111.049101 84.737463 
L 111.62383 89.546203 
L 112.198559 89.449642 
L 112.773288 94.06526 
L 113.348017 91.09118 
L 113.922746 93.775577 
L 114.497475 91.902293 
L 115.072204 96.826906 
L 115.646933 95.475052 
L 116.221662 99.607864 
L 116.796392 97.773205 
L 117.371121 100.766597 
L 117.94585 98.816064 
L 118.520579 101.693583 
L 119.095308 97.406273 
L 119.670037 99.453367 
L 120.244766 96.498599 
L 120.819495 97.039341 
L 121.394224 91.342239 
L 121.968953 91.013931 
L 122.543682 82.61312 
L 123.118411 82.574496 
L 123.69314 76.182154 
L 124.267869 77.495385 
L 124.842598 72.532147 
L 125.417327 75.00411 
L 125.992056 72.010717 
L 126.566785 73.536382 
L 127.141515 77.746443 
L 127.716244 75.660725 
L 128.290973 79.870786 
L 128.865702 78.229249 
L 129.440431 81.338514 
L 130.01516 74.347495 
L 130.589889 74.540617 
L 131.164618 69.519442 
L 131.739347 72.841142 
L 132.314076 66.390864 
L 132.888805 71.083731 
L 133.463534 69.538754 
L 134.038263 74.019187 
L 134.612992 72.377649 
L 135.187721 74.463368 
L 135.76245 65.772874 
L 136.337179 66.332928 
L 136.911908 59.399844 
L 137.486637 62.258051 
L 138.061367 55.672588 
L 138.636096 58.125239 
L 139.210825 54.03105 
L 139.785554 60.191645 
L 140.360283 58.241112 
L 140.935012 62.431861 
L 141.509741 59.264659 
L 142.659199 57.777619 
L 143.233928 58.414922 
L 143.808657 54.359358 
L 144.383386 57.758307 
L 144.958115 49.183686 
L 145.532844 53.68343 
L 146.107573 49.434744 
L 146.682302 53.818616 
L 147.257031 48.604319 
L 147.83176 53.046127 
L 148.40649 47.715958 
L 148.981219 51.597712 
L 149.555948 43.447959 
L 150.130677 47.773894 
L 150.705406 42.038168 
L 151.280135 45.070185 
L 151.854864 34.390533 
L 152.429593 38.465409 
L 153.004322 36.090008 
L 153.579051 41.748485 
L 154.15378 39.488956 
L 154.728509 46.306166 
L 155.303238 41.941607 
L 155.877967 44.317009 
L 156.452696 40.937372 
L 157.027425 39.43102 
L 157.602154 34.139474 
L 158.176883 36.881808 
L 158.751613 32.44 
L 159.326342 39.044776 
L 159.901071 34.197411 
L 160.4758 39.160649 
L 161.050529 33.695294 
L 161.625258 41.825734 
L 162.199987 39.064088 
L 162.774716 45.630239 
L 163.349445 40.57044 
L 163.924174 45.977859 
L 164.498903 42.038168 
L 165.073632 48.449822 
L 165.648361 44.394258 
L 166.22309 47.831831 
L 166.797819 43.795579 
L 167.372548 49.56993 
L 167.947277 45.649551 
L 168.522006 52.19639 
L 169.096736 44.992936 
L 169.671465 49.338183 
L 170.246194 44.683941 
L 170.820923 47.831831 
L 171.395652 52.968879 
L 171.970381 48.024953 
L 172.54511 51.211468 
L 173.119839 47.329713 
L 173.694568 54.108299 
L 174.269297 50.033423 
L 174.844026 54.03105 
L 175.418755 47.155904 
L 175.993484 50.921784 
L 176.568213 46.344791 
L 177.142942 51.945332 
L 177.717671 48.469134 
L 178.2924 53.799304 
L 178.867129 49.009876 
L 179.441858 54.72629 
L 180.016588 52.061205 
L 180.591317 56.985818 
L 181.166046 49.975486 
L 181.740775 54.224172 
L 182.315504 48.739505 
L 182.890233 52.54401 
L 183.464962 49.685803 
L 184.039691 54.880787 
L 184.61442 49.898237 
L 185.189149 52.833693 
L 185.763878 47.291089 
L 186.338607 52.408825 
L 186.913336 46.016483 
L 187.488065 50.226545 
L 188.062794 45.861986 
L 188.637523 52.138454 
L 189.212252 49.608554 
L 189.786981 55.827086 
L 190.361711 52.003268 
L 190.93644 57.275501 
L 191.511169 52.292951 
L 192.085898 58.685293 
L 192.660627 55.576027 
L 193.235356 59.786089 
L 193.810085 54.03105 
L 194.384814 57.70037 
L 194.959543 52.54401 
L 195.534272 56.754072 
L 196.109001 53.606182 
L 196.68373 53.992426 
L 197.258459 57.52656 
L 197.833188 49.56993 
L 198.407917 52.601947 
L 198.982646 51.23078 
L 199.557375 57.256189 
L 200.132104 52.312264 
L 200.706834 54.880787 
L 201.281563 49.183686 
L 201.856292 54.185548 
L 202.431021 51.365965 
L 203.00575 55.556715 
L 203.580479 50.458291 
L 204.155208 54.784226 
L 204.729937 50.18792 
L 205.304666 58.299048 
L 205.879395 52.408825 
L 206.454124 57.990053 
L 207.028853 52.582634 
L 207.603582 56.251954 
L 208.178311 51.40459 
L 208.75304 55.846398 
L 209.327769 50.999033 
L 209.902498 53.528933 
L 210.477227 47.349026 
L 211.051956 51.829458 
L 211.626686 48.140826 
L 212.201415 51.211468 
L 212.776144 44.23976 
L 213.350873 47.658021 
L 213.925602 44.06595 
L 214.500331 49.145061 
L 215.07506 44.992936 
L 215.649789 49.589242 
L 216.224518 41.632612 
L 216.799247 48.295324 
L 217.373976 44.819126 
L 217.948705 50.670726 
L 218.523434 45.147434 
L 219.098163 49.087125 
L 219.672892 46.113044 
L 220.247621 47.464899 
L 220.82235 46.962782 
L 221.397079 52.119141 
L 221.971809 45.398493 
L 222.546538 49.724427 
L 223.121267 43.89214 
L 223.695996 48.797441 
L 224.270725 42.520973 
L 224.845454 47.329713 
L 225.420183 42.173354 
L 225.994912 49.009876 
L 226.569641 46.615162 
L 227.14437 50.593477 
L 227.719099 49.299559 
L 228.293828 47.194528 
L 228.868557 51.694273 
L 229.443286 50.419667 
L 230.018015 56.618886 
L 230.592744 53.470996 
L 231.167473 52.640571 
L 231.742202 54.359358 
L 232.316932 49.434744 
L 232.891661 53.586869 
L 233.46639 48.063577 
L 234.041119 53.625494 
L 234.615848 47.831831 
L 235.190577 52.215702 
L 235.765306 44.645316 
L 236.340035 51.655648 
L 236.914764 48.044265 
L 237.489493 52.215702 
L 238.064222 47.38765 
L 238.638951 52.621259 
L 239.21368 50.129984 
L 239.788409 54.706978 
L 240.363138 50.728662 
L 240.937867 51.926019 
L 241.512596 53.432372 
L 242.087325 58.183175 
L 242.662055 54.591104 
L 243.236784 58.820478 
L 243.811513 52.331576 
L 244.386242 56.56095 
L 244.960971 52.447449 
L 245.5357 56.850633 
L 246.110429 52.02258 
L 246.685158 57.256189 
L 247.259887 52.389512 
L 247.834616 56.078144 
L 248.409345 48.662256 
L 248.984074 51.269404 
L 249.558803 45.7268 
L 250.133532 50.419667 
L 250.708261 49.22231 
L 251.28299 54.397982 
L 251.857719 49.724427 
L 252.432448 53.664118 
L 253.007177 50.53554 
L 253.581907 56.541637 
L 254.156636 50.70935 
L 254.731365 53.432372 
L 255.306094 47.619397 
L 255.880823 51.559087 
L 256.455552 46.170981 
L 257.030281 52.408825 
L 257.60501 49.531305 
L 258.179739 54.706978 
L 258.754468 46.769659 
L 259.329197 50.574165 
L 259.903926 45.340556 
L 260.478655 50.844536 
L 261.053384 44.085262 
L 261.628113 48.237387 
L 262.202842 42.945842 
L 262.777571 49.125749 
L 263.3523 45.591615 
L 263.92703 51.288716 
L 264.501759 47.56146 
L 265.076488 51.250092 
L 265.651217 46.943469 
L 266.225946 52.041893 
L 266.800675 49.0485 
L 267.375404 53.68343 
L 267.950133 48.681568 
L 268.524862 53.548245 
L 269.099591 50.245857 
L 269.67432 53.355123 
L 270.249049 50.129984 
L 270.823778 54.880787 
L 271.398507 48.121514 
L 271.973236 52.621259 
L 272.547965 47.522836 
L 273.122694 52.157766 
L 273.697423 46.113044 
L 274.272153 51.926019 
L 274.846882 48.642944 
L 275.421611 55.479466 
L 275.99634 51.153531 
L 276.571069 56.309891 
L 277.145798 52.659883 
L 277.720527 57.00513 
L 278.295256 52.872318 
L 278.869985 56.792696 
L 279.444714 51.790834 
L 280.019443 50.149296 
L 280.594172 54.629729 
L 281.168901 48.391885 
L 281.74363 53.586869 
L 282.318359 47.928392 
L 282.893088 53.219937 
L 283.467817 49.0485 
L 284.042546 52.679196 
L 284.617275 48.044265 
L 285.192005 51.983956 
L 285.766734 46.711723 
L 286.341463 50.921784 
L 286.916192 46.093732 
L 287.490921 47.580772 
L 288.06565 52.679196 
L 288.640379 49.936862 
L 289.215108 53.895865 
L 289.789837 48.585007 
L 290.364566 53.181313 
L 290.939295 49.338183 
L 291.514024 54.455919 
L 292.088753 49.434744 
L 292.663482 52.350888 
L 293.238211 47.38765 
L 293.81294 52.930254 
L 294.387669 48.681568 
L 294.962398 53.470996 
L 295.537128 48.52707 
L 296.111857 52.563322 
L 296.686586 45.475741 
L 297.261315 50.53554 
L 297.836044 44.799814 
L 298.410773 49.608554 
L 298.985502 43.254837 
L 299.560231 49.164373 
L 300.13496 46.711723 
L 300.709689 53.432372 
L 301.284418 48.121514 
L 301.859147 53.413059 
L 302.433876 48.333948 
L 303.008605 53.084752 
L 303.583334 49.705115 
L 304.158063 54.050362 
L 304.732792 50.091359 
L 305.307521 47.696645 
L 305.882251 48.855378 
L 306.45698 54.880787 
L 307.031709 50.88316 
L 307.606438 56.56095 
L 308.181167 51.211468 
L 308.755896 54.55248 
L 309.330625 47.368338 
L 309.905354 51.211468 
L 310.480083 45.804049 
L 311.054812 50.979721 
L 311.629541 46.42204 
L 312.20427 53.528933 
L 312.778999 52.003268 
L 313.353728 54.108299 
L 313.928457 53.142689 
L 314.503186 57.101691 
L 315.077915 52.254327 
L 315.652644 57.912804 
L 316.227374 55.035285 
L 316.802103 59.515718 
L 317.376832 52.3702 
L 317.951561 54.649041 
L 318.52629 49.434744 
L 319.101019 53.316498 
L 319.675748 48.218075 
L 320.250477 53.973114 
L 320.825206 48.932627 
L 321.399935 53.528933 
L 321.974664 48.507758 
L 322.549393 52.698508 
L 323.124122 44.992936 
L 323.698851 50.226545 
L 324.27358 47.503523 
L 324.848309 54.166236 
L 325.423038 50.516228 
L 325.997767 55.054597 
L 326.572496 49.202998 
L 327.147226 54.455919 
L 327.721955 51.790834 
L 328.296684 52.698508 
L 328.871413 47.73527 
L 329.446142 51.037658 
L 330.020871 45.089497 
L 330.5956 49.975486 
L 331.170329 46.769659 
L 331.745058 51.501151 
L 332.319787 46.190293 
L 332.894516 49.994798 
L 333.469245 44.877063 
L 334.043974 49.936862 
L 334.618703 44.896375 
L 335.193432 49.589242 
L 335.768161 44.181823 
L 336.34289 43.563833 
L 336.917619 48.063577 
L 337.492349 45.804049 
L 338.067078 50.516228 
L 338.641807 46.402727 
L 339.216536 52.505386 
L 339.791265 49.878925 
L 340.365994 54.745602 
L 340.940723 48.333948 
L 341.515452 52.698508 
L 342.090181 47.445587 
L 342.66491 50.902472 
L 343.239639 47.097967 
L 343.814368 48.70088 
L 344.389097 54.533168 
L 344.963826 48.797441 
L 345.538555 53.470996 
L 346.113284 48.662256 
L 346.688013 52.254327 
L 347.262742 45.398493 
L 347.837472 51.134219 
L 348.412201 47.658021 
L 348.98693 53.992426 
L 349.561659 50.979721 
L 350.136388 56.676823 
L 350.711117 54.146923 
L 351.285846 55.228407 
L 351.860575 59.090849 
L 352.435304 55.537403 
L 353.010033 58.569419 
L 353.584762 51.887395 
L 354.159491 56.638198 
L 354.73422 51.617024 
L 355.308949 55.981583 
L 355.883678 49.415432 
L 356.458407 53.548245 
L 357.033136 48.623632 
L 357.607865 49.125749 
L 358.182594 48.449822 
L 358.757324 48.565695 
L 359.332053 50.651414 
L 359.906782 47.097967 
L 360.481511 52.389512 
L 361.05624 49.357495 
L 361.630969 54.977348 
L 362.205698 50.728662 
L 362.780427 57.333438 
L 363.355156 53.162001 
L 363.929885 56.773384 
L 364.504614 53.470996 
L 365.079343 51.926019 
L 365.654072 49.724427 
L 366.228801 53.992426 
L 366.80353 48.778129 
L 367.378259 53.258562 
L 367.952988 47.773894 
L 368.527717 52.3702 
L 369.102447 47.754582 
L 369.677176 51.771522 
L 370.251905 45.919922 
L 370.826634 50.593477 
L 371.401363 46.344791 
L 371.976092 46.42204 
L 372.550821 49.56993 
L 373.12555 44.780502 
L 373.700279 49.106437 
L 374.275008 45.224683 
L 374.849737 50.632101 
L 375.424466 47.619397 
L 375.999195 53.68343 
L 376.573924 49.685803 
L 377.148653 54.861475 
L 377.723382 50.149296 
L 378.298111 54.610416 
L 378.87284 48.816754 
L 379.44757 49.705115 
L 380.022299 54.282109 
L 380.597028 49.241622 
L 381.171757 54.417294 
L 381.746486 50.033423 
L 382.321215 53.297186 
L 382.895944 47.21384 
L 383.470673 52.292951 
L 384.045402 45.475741 
L 384.620131 49.705115 
L 385.19486 44.432882 
L 385.769589 50.554852 
L 386.344318 47.851143 
L 386.919047 53.046127 
L 387.493776 49.647179 
L 388.068505 56.000896 
L 388.643234 52.737132 
L 389.217963 57.024443 
L 389.792693 52.3702 
L 390.367422 56.425764 
L 390.942151 51.172843 
L 391.51688 49.994798 
L 392.091609 50.400355 
L 392.666338 55.209095 
L 393.241067 48.855378 
L 393.815796 53.355123 
L 394.390525 48.314636 
L 394.965254 52.041893 
L 395.539983 45.861986 
L 396.114712 50.516228 
L 396.689441 42.945842 
L 397.26417 43.390023 
L 397.838899 44.490819 
L 398.413628 49.009876 
L 398.988357 47.233152 
L 399.563086 54.185548 
L 400.137815 51.327341 
L 400.712545 56.966506 
L 401.287274 52.524698 
L 401.862003 56.020208 
L 402.436732 49.936862 
L 403.011461 53.915177 
L 403.58619 48.314636 
L 404.160919 47.484211 
L 404.735648 48.797441 
L 405.310377 53.104064 
L 405.885106 46.904845 
L 406.459835 51.23078 
L 407.034564 44.973624 
L 407.609293 50.226545 
L 408.184022 44.838438 
L 408.758751 48.739505 
L 409.33348 44.432882 
L 409.908209 49.164373 
L 410.482938 45.881298 
L 411.057668 49.280247 
L 411.632397 45.90061 
L 412.207126 52.099829 
L 412.781855 48.855378 
L 413.356584 54.301421 
L 413.931313 50.419667 
L 414.506042 54.301421 
L 415.080771 51.076282 
L 415.6555 55.904334 
L 416.230229 51.114907 
L 416.804958 56.000896 
L 417.379687 51.868083 
L 417.954416 56.966506 
L 418.529145 49.627866 
L 419.103874 53.451684 
L 419.678603 48.836066 
L 420.253332 53.548245 
L 420.828061 47.04003 
L 421.402791 50.825223 
L 421.97752 46.325479 
L 423.701707 54.996661 
L 424.276436 52.428137 
L 424.851165 58.608044 
L 425.425894 54.397982 
L 426.000623 59.805401 
L 426.575352 55.885022 
L 427.150081 58.743229 
L 427.72481 54.784226 
L 428.299539 59.090849 
L 428.874268 53.85724 
L 429.448997 57.545872 
L 430.023726 52.003268 
L 430.598455 56.251954 
L 431.173184 49.39612 
L 431.747913 54.262797 
L 432.322643 49.627866 
L 432.897372 55.614651 
L 433.472101 52.659883 
L 434.04683 56.251954 
L 434.621559 54.301421 
L 435.196288 59.322596 
L 435.771017 55.267032 
L 436.345746 61.118631 
L 436.920475 59.245347 
L 437.495204 65.579751 
L 438.069933 62.238739 
L 438.644662 67.105416 
L 439.219391 63.590594 
L 439.79412 67.916529 
L 440.368849 65.193507 
L 440.943578 70.369179 
L 441.518307 68.302773 
L 442.093036 74.791675 
L 442.667766 75.081358 
L 443.242495 80.894334 
L 443.817224 81.64751 
L 444.391953 87.576358 
L 444.966682 87.441173 
L 445.541411 91.689859 
L 446.11614 89.024774 
L 446.690869 93.814202 
L 447.265598 90.415253 
L 447.840327 93.794889 
L 448.415056 91.554673 
L 448.989785 96.24754 
L 449.564514 94.741188 
L 450.139243 99.936172 
L 450.713972 100.148606 
L 451.288701 104.7256 
L 451.86343 103.41237 
L 452.438159 106.058142 
L 453.012889 104.802849 
L 453.587618 108.530105 
L 454.162347 107.545183 
L 454.737076 112.85604 
L 455.311805 114.845198 
L 455.886534 119.576689 
L 456.461263 122.222462 
L 457.035992 125.660035 
L 457.610721 131.086766 
L 459.334908 138.521967 
L 459.909637 137.691542 
L 460.484366 138.618528 
L 461.059095 135.93413 
L 461.633824 136.725931 
L 462.208553 134.350529 
L 462.783282 133.616665 
L 463.358012 134.987832 
L 463.932741 132.747616 
L 464.50747 132.264811 
L 465.082199 132.96005 
L 465.656928 129.928033 
L 466.231657 130.5074 
L 466.806386 132.882801 
L 467.381115 133.384919 
L 467.955844 136.165877 
L 468.530573 136.861117 
L 469.105302 138.212971 
L 469.680031 140.723558 
L 470.25476 141.09049 
L 470.829489 143.369331 
L 471.404218 143.504517 
L 471.978947 145.339176 
L 472.553676 145.493674 
L 473.128405 146.884153 
L 473.703134 147.28971 
L 474.277864 148.20704 
L 474.852593 149.584 
L 475.427322 149.466196 
L 476.002051 150.804532 
L 476.57678 150.698315 
L 477.151509 151.98837 
L 477.726238 151.609851 
L 478.300967 152.708716 
L 478.875696 152.745409 
L 479.450425 153.824961 
L 480.025154 153.962078 
L 480.599883 154.253692 
L 481.174612 155.157504 
L 481.749341 154.643799 
L 482.32407 155.395044 
L 482.898799 155.091842 
L 483.473528 155.632584 
L 484.048257 154.541444 
L 484.622987 155.227028 
L 485.197716 154.896789 
L 486.347174 154.867821 
L 486.921903 155.64224 
L 487.496632 155.424012 
L 488.071361 155.51478 
L 488.64609 156.29113 
L 489.220819 156.468803 
L 489.795548 157.631398 
L 490.370277 157.818726 
L 490.945006 158.987115 
L 491.519735 159.755741 
L 493.818651 163.923316 
L 494.96811 165.202556 
L 495.542839 166.031243 
L 496.692297 167.122769 
L 500.140671 169.458195 
L 500.7154 169.749809 
L 501.290129 170.323382 
L 503.589045 171.889602 
L 504.738503 172.069206 
L 505.313233 172.44 
L 505.887962 172.163835 
L 506.462691 172.414894 
L 509.336336 172.165767 
L 510.485794 172.204391 
L 511.060523 172.074999 
L 511.635252 172.378201 
L 512.209981 172.049893 
L 512.78471 172.084655 
L 513.359439 171.588332 
L 513.934168 171.694549 
L 514.508897 171.323754 
L 515.083626 171.358516 
L 515.658355 170.866055 
L 516.233085 170.852536 
L 516.807814 170.508779 
L 517.382543 170.433461 
L 517.957272 170.118672 
L 518.532001 170.155366 
L 519.10673 169.807746 
L 519.681459 169.86182 
L 520.256188 169.550893 
L 520.830917 169.367427 
L 521.405646 169.056501 
L 521.980375 168.930972 
L 523.704562 168.166208 
L 524.279291 168.126039 
L 524.85402 167.854123 
L 526.003478 167.499744 
L 528.877124 166.416329 
L 529.451853 166.370945 
L 530.601311 166.056349 
L 532.900227 165.935648 
L 535.199143 166.083966 
L 536.348601 166.065426 
L 537.49806 166.016759 
L 538.647518 166.158318 
L 540.371705 166.22649 
L 541.521163 166.224559 
L 542.095892 166.237111 
L 542.095892 166.237111 
" clip-path="url(#p659f98c5c4)" style="fill: none; stroke: #ff7f0e; stroke-width: 2; stroke-linecap: square"/>
   </g>
   <g id="patch_3">
    <path d="M 56.909624 179.44 
L 56.909624 25.44 
" style="fill: none; stroke: #000000; stroke-width: 0.8; stroke-linejoin: miter; stroke-linecap: square"/>
   </g>
   <g id="patch_4">
    <path d="M 565.2 179.44 
L 565.2 25.44 
" style="fill: none; stroke: #000000; stroke-width: 0.8; stroke-linejoin: miter; stroke-linecap: square"/>
   </g>
   <g id="patch_5">
    <path d="M 56.909624 179.44 
L 565.2 179.44 
" style="fill: none; stroke: #000000; stroke-width: 0.8; stroke-linejoin: miter; stroke-linecap: square"/>
   </g>
   <g id="patch_6">
    <path d="M 56.909624 25.44 
L 565.2 25.44 
" style="fill: none; stroke: #000000; stroke-width: 0.8; stroke-linejoin: miter; stroke-linecap: square"/>
   </g>
   <g id="text_17">
    <!-- Translational Velocity -->
    <g transform="translate(247.577625 19.44)scale(0.12 -0.12)">
     <defs>
      <path id="DejaVuSans-72" d="M 2631 2963 
Q 2534 3019 2420 3045 
Q 2306 3072 2169 3072 
Q 1681 3072 1420 2755 
Q 1159 2438 1159 1844 
L 1159 0 
L 581 0 
L 581 3500 
L 1159 3500 
L 1159 2956 
Q 1341 3275 1631 3429 
Q 1922 3584 2338 3584 
Q 2397 3584 2469 3576 
Q 2541 3569 2628 3553 
L 2631 2963 
z
" transform="scale(0.015625)"/>
      <path id="DejaVuSans-61" d="M 2194 1759 
Q 1497 1759 1228 1600 
Q 959 1441 959 1056 
Q 959 750 1161 570 
Q 1363 391 1709 391 
Q 2188 391 2477 730 
Q 2766 1069 2766 1631 
L 2766 1759 
L 2194 1759 
z
M 3341 1997 
L 3341 0 
L 2766 0 
L 2766 531 
Q 2569 213 2275 61 
Q 1981 -91 1556 -91 
Q 1019 -91 701 211 
Q 384 513 384 1019 
Q 384 1609 779 1909 
Q 1175 2209 1959 2209 
L 2766 2209 
L 2766 2266 
Q 2766 2663 2505 2880 
Q 2244 3097 1772 3097 
Q 1472 3097 1187 3025 
Q 903 2953 641 2809 
L 641 3341 
Q 956 3463 1253 3523 
Q 1550 3584 1831 3584 
Q 2591 3584 2966 3190 
Q 3341 2797 3341 1997 
z
" transform="scale(0.015625)"/>
      <path id="DejaVuSans-6e" d="M 3513 2113 
L 3513 0 
L 2938 0 
L 2938 2094 
Q 2938 2591 2744 2837 
Q 2550 3084 2163 3084 
Q 1697 3084 1428 2787 
Q 1159 2491 1159 1978 
L 1159 0 
L 581 0 
L 581 3500 
L 1159 3500 
L 1159 2956 
Q 1366 3272 1645 3428 
Q 1925 3584 2291 3584 
Q 2894 3584 3203 3211 
Q 3513 2838 3513 2113 
z
" transform="scale(0.015625)"/>
      <path id="DejaVuSans-74" d="M 1172 4494 
L 1172 3500 
L 2356 3500 
L 2356 3053 
L 1172 3053 
L 1172 1153 
Q 1172 725 1289 603 
Q 1406 481 1766 481 
L 2356 481 
L 2356 0 
L 1766 0 
Q 1100 0 847 248 
Q 594 497 594 1153 
L 594 3053 
L 172 3053 
L 172 3500 
L 594 3500 
L 594 4494 
L 1172 4494 
z
" transform="scale(0.015625)"/>
      <path id="DejaVuSans-6f" d="M 1959 3097 
Q 1497 3097 1228 2736 
Q 959 2375 959 1747 
Q 959 1119 1226 758 
Q 1494 397 1959 397 
Q 2419 397 2687 759 
Q 2956 1122 2956 1747 
Q 2956 2369 2687 2733 
Q 2419 3097 1959 3097 
z
M 1959 3584 
Q 2709 3584 3137 3096 
Q 3566 2609 3566 1747 
Q 3566 888 3137 398 
Q 2709 -91 1959 -91 
Q 1206 -91 779 398 
Q 353 888 353 1747 
Q 353 2609 779 3096 
Q 1206 3584 1959 3584 
z
" transform="scale(0.015625)"/>
      <path id="DejaVuSans-56" d="M 1831 0 
L 50 4666 
L 709 4666 
L 2188 738 
L 3669 4666 
L 4325 4666 
L 2547 0 
L 1831 0 
z
" transform="scale(0.015625)"/>
      <path id="DejaVuSans-63" d="M 3122 3366 
L 3122 2828 
Q 2878 2963 2633 3030 
Q 2388 3097 2138 3097 
Q 1578 3097 1268 2742 
Q 959 2388 959 1747 
Q 959 1106 1268 751 
Q 1578 397 2138 397 
Q 2388 397 2633 464 
Q 2878 531 3122 666 
L 3122 134 
Q 2881 22 2623 -34 
Q 2366 -91 2075 -91 
Q 1284 -91 818 406 
Q 353 903 353 1747 
Q 353 2603 823 3093 
Q 1294 3584 2113 3584 
Q 2378 3584 2631 3529 
Q 2884 3475 3122 3366 
z
" transform="scale(0.015625)"/>
      <path id="DejaVuSans-79" d="M 2059 -325 
Q 1816 -950 1584 -1140 
Q 1353 -1331 966 -1331 
L 506 -1331 
L 506 -850 
L 844 -850 
Q 1081 -850 1212 -737 
Q 1344 -625 1503 -206 
L 1606 56 
L 191 3500 
L 800 3500 
L 1894 763 
L 2988 3500 
L 3597 3500 
L 2059 -325 
z
" transform="scale(0.015625)"/>
     </defs>
     <use xlink:href="#DejaVuSans-54"/>
     <use xlink:href="#DejaVuSans-72" x="46.333984"/>
     <use xlink:href="#DejaVuSans-61" x="87.447266"/>
     <use xlink:href="#DejaVuSans-6e" x="148.726562"/>
     <use xlink:href="#DejaVuSans-73" x="212.105469"/>
     <use xlink:href="#DejaVuSans-6c" x="264.205078"/>
     <use xlink:href="#DejaVuSans-61" x="291.988281"/>
     <use xlink:href="#DejaVuSans-74" x="353.267578"/>
     <use xlink:href="#DejaVuSans-69" x="392.476562"/>
     <use xlink:href="#DejaVuSans-6f" x="420.259766"/>
     <use xlink:href="#DejaVuSans-6e" x="481.441406"/>
     <use xlink:href="#DejaVuSans-61" x="544.820312"/>
     <use xlink:href="#DejaVuSans-6c" x="606.099609"/>
     <use xlink:href="#DejaVuSans-20" x="633.882812"/>
     <use xlink:href="#DejaVuSans-56" x="665.669922"/>
     <use xlink:href="#DejaVuSans-65" x="726.328125"/>
     <use xlink:href="#DejaVuSans-6c" x="787.851562"/>
     <use xlink:href="#DejaVuSans-6f" x="815.634766"/>
     <use xlink:href="#DejaVuSans-63" x="876.816406"/>
     <use xlink:href="#DejaVuSans-69" x="931.796875"/>
     <use xlink:href="#DejaVuSans-74" x="959.580078"/>
     <use xlink:href="#DejaVuSans-79" x="998.789062"/>
    </g>
   </g>
   <g id="legend_1">
    <g id="patch_7">
     <path d="M 475.682812 62.79625 
L 558.2 62.79625 
Q 560.2 62.79625 560.2 60.79625 
L 560.2 32.44 
Q 560.2 30.44 558.2 30.44 
L 475.682812 30.44 
Q 473.682812 30.44 473.682812 32.44 
L 473.682812 60.79625 
Q 473.682812 62.79625 475.682812 62.79625 
z
" style="fill: #ffffff; opacity: 0.8; stroke: #cccccc; stroke-linejoin: miter"/>
    </g>
    <g id="line2d_29">
     <path d="M 477.682812 38.538437 
L 487.682812 38.538437 
L 497.682812 38.538437 
" style="fill: none; stroke: #1f77b4; stroke-width: 2; stroke-linecap: square"/>
    </g>
    <g id="text_18">
     <!-- Reference -->
     <g transform="translate(505.682812 42.038437)scale(0.1 -0.1)">
      <defs>
       <path id="DejaVuSans-52" d="M 2841 2188 
Q 3044 2119 3236 1894 
Q 3428 1669 3622 1275 
L 4263 0 
L 3584 0 
L 2988 1197 
Q 2756 1666 2539 1819 
Q 2322 1972 1947 1972 
L 1259 1972 
L 1259 0 
L 628 0 
L 628 4666 
L 2053 4666 
Q 2853 4666 3247 4331 
Q 3641 3997 3641 3322 
Q 3641 2881 3436 2590 
Q 3231 2300 2841 2188 
z
M 1259 4147 
L 1259 2491 
L 2053 2491 
Q 2509 2491 2742 2702 
Q 2975 2913 2975 3322 
Q 2975 3731 2742 3939 
Q 2509 4147 2053 4147 
L 1259 4147 
z
" transform="scale(0.015625)"/>
       <path id="DejaVuSans-66" d="M 2375 4863 
L 2375 4384 
L 1825 4384 
Q 1516 4384 1395 4259 
Q 1275 4134 1275 3809 
L 1275 3500 
L 2222 3500 
L 2222 3053 
L 1275 3053 
L 1275 0 
L 697 0 
L 697 3053 
L 147 3053 
L 147 3500 
L 697 3500 
L 697 3744 
Q 697 4328 969 4595 
Q 1241 4863 1831 4863 
L 2375 4863 
z
" transform="scale(0.015625)"/>
      </defs>
      <use xlink:href="#DejaVuSans-52"/>
      <use xlink:href="#DejaVuSans-65" x="64.982422"/>
      <use xlink:href="#DejaVuSans-66" x="126.505859"/>
      <use xlink:href="#DejaVuSans-65" x="161.710938"/>
      <use xlink:href="#DejaVuSans-72" x="223.234375"/>
      <use xlink:href="#DejaVuSans-65" x="262.097656"/>
      <use xlink:href="#DejaVuSans-6e" x="323.621094"/>
      <use xlink:href="#DejaVuSans-63" x="387"/>
      <use xlink:href="#DejaVuSans-65" x="441.980469"/>
     </g>
    </g>
    <g id="line2d_30">
     <path d="M 477.682812 53.216563 
L 487.682812 53.216563 
L 497.682812 53.216563 
" style="fill: none; stroke: #ff7f0e; stroke-width: 2; stroke-linecap: square"/>
    </g>
    <g id="text_19">
     <!-- Estimated -->
     <g transform="translate(505.682812 56.716563)scale(0.1 -0.1)">
      <defs>
       <path id="DejaVuSans-45" d="M 628 4666 
L 3578 4666 
L 3578 4134 
L 1259 4134 
L 1259 2753 
L 3481 2753 
L 3481 2222 
L 1259 2222 
L 1259 531 
L 3634 531 
L 3634 0 
L 628 0 
L 628 4666 
z
" transform="scale(0.015625)"/>
       <path id="DejaVuSans-64" d="M 2906 2969 
L 2906 4863 
L 3481 4863 
L 3481 0 
L 2906 0 
L 2906 525 
Q 2725 213 2448 61 
Q 2172 -91 1784 -91 
Q 1150 -91 751 415 
Q 353 922 353 1747 
Q 353 2572 751 3078 
Q 1150 3584 1784 3584 
Q 2172 3584 2448 3432 
Q 2725 3281 2906 2969 
z
M 947 1747 
Q 947 1113 1208 752 
Q 1469 391 1925 391 
Q 2381 391 2643 752 
Q 2906 1113 2906 1747 
Q 2906 2381 2643 2742 
Q 2381 3103 1925 3103 
Q 1469 3103 1208 2742 
Q 947 2381 947 1747 
z
" transform="scale(0.015625)"/>
      </defs>
      <use xlink:href="#DejaVuSans-45"/>
      <use xlink:href="#DejaVuSans-73" x="63.183594"/>
      <use xlink:href="#DejaVuSans-74" x="115.283203"/>
      <use xlink:href="#DejaVuSans-69" x="154.492188"/>
      <use xlink:href="#DejaVuSans-6d" x="182.275391"/>
      <use xlink:href="#DejaVuSans-61" x="279.6875"/>
      <use xlink:href="#DejaVuSans-74" x="340.966797"/>
      <use xlink:href="#DejaVuSans-65" x="380.175781"/>
      <use xlink:href="#DejaVuSans-64" x="441.699219"/>
     </g>
    </g>
   </g>
  </g>
  <g id="axes_2">
   <g id="patch_8">
    <path d="M 56.909624 390.04 
L 565.2 390.04 
L 565.2 236.04 
L 56.909624 236.04 
z
" style="fill: #ffffff"/>
   </g>
   <g id="matplotlib.axis_3">
    <g id="xtick_10">
     <g id="line2d_31">
      <path d="M 80.013732 390.04 
L 80.013732 236.04 
" clip-path="url(#p6dc6627528)" style="fill: none; stroke: #b0b0b0; stroke-width: 0.8; stroke-linecap: square"/>
     </g>
     <g id="line2d_32">
      <g>
       <use xlink:href="#mf910d4e39a" x="80.013732" y="390.04" style="stroke: #000000; stroke-width: 0.8"/>
      </g>
     </g>
     <g id="text_20">
      <!-- 0.0 -->
      <g transform="translate(72.06217 404.638438)scale(0.1 -0.1)">
       <use xlink:href="#DejaVuSans-30"/>
       <use xlink:href="#DejaVuSans-2e" x="63.623047"/>
       <use xlink:href="#DejaVuSans-30" x="95.410156"/>
      </g>
     </g>
    </g>
    <g id="xtick_11">
     <g id="line2d_33">
      <path d="M 137.486637 390.04 
L 137.486637 236.04 
" clip-path="url(#p6dc6627528)" style="fill: none; stroke: #b0b0b0; stroke-width: 0.8; stroke-linecap: square"/>
     </g>
     <g id="line2d_34">
      <g>
       <use xlink:href="#mf910d4e39a" x="137.486637" y="390.04" style="stroke: #000000; stroke-width: 0.8"/>
      </g>
     </g>
     <g id="text_21">
      <!-- 0.1 -->
      <g transform="translate(129.535075 404.638438)scale(0.1 -0.1)">
       <use xlink:href="#DejaVuSans-30"/>
       <use xlink:href="#DejaVuSans-2e" x="63.623047"/>
       <use xlink:href="#DejaVuSans-31" x="95.410156"/>
      </g>
     </g>
    </g>
    <g id="xtick_12">
     <g id="line2d_35">
      <path d="M 194.959543 390.04 
L 194.959543 236.04 
" clip-path="url(#p6dc6627528)" style="fill: none; stroke: #b0b0b0; stroke-width: 0.8; stroke-linecap: square"/>
     </g>
     <g id="line2d_36">
      <g>
       <use xlink:href="#mf910d4e39a" x="194.959543" y="390.04" style="stroke: #000000; stroke-width: 0.8"/>
      </g>
     </g>
     <g id="text_22">
      <!-- 0.2 -->
      <g transform="translate(187.00798 404.638438)scale(0.1 -0.1)">
       <use xlink:href="#DejaVuSans-30"/>
       <use xlink:href="#DejaVuSans-2e" x="63.623047"/>
       <use xlink:href="#DejaVuSans-32" x="95.410156"/>
      </g>
     </g>
    </g>
    <g id="xtick_13">
     <g id="line2d_37">
      <path d="M 252.432448 390.04 
L 252.432448 236.04 
" clip-path="url(#p6dc6627528)" style="fill: none; stroke: #b0b0b0; stroke-width: 0.8; stroke-linecap: square"/>
     </g>
     <g id="line2d_38">
      <g>
       <use xlink:href="#mf910d4e39a" x="252.432448" y="390.04" style="stroke: #000000; stroke-width: 0.8"/>
      </g>
     </g>
     <g id="text_23">
      <!-- 0.3 -->
      <g transform="translate(244.480886 404.638438)scale(0.1 -0.1)">
       <use xlink:href="#DejaVuSans-30"/>
       <use xlink:href="#DejaVuSans-2e" x="63.623047"/>
       <use xlink:href="#DejaVuSans-33" x="95.410156"/>
      </g>
     </g>
    </g>
    <g id="xtick_14">
     <g id="line2d_39">
      <path d="M 309.905354 390.04 
L 309.905354 236.04 
" clip-path="url(#p6dc6627528)" style="fill: none; stroke: #b0b0b0; stroke-width: 0.8; stroke-linecap: square"/>
     </g>
     <g id="line2d_40">
      <g>
       <use xlink:href="#mf910d4e39a" x="309.905354" y="390.04" style="stroke: #000000; stroke-width: 0.8"/>
      </g>
     </g>
     <g id="text_24">
      <!-- 0.4 -->
      <g transform="translate(301.953791 404.638438)scale(0.1 -0.1)">
       <use xlink:href="#DejaVuSans-30"/>
       <use xlink:href="#DejaVuSans-2e" x="63.623047"/>
       <use xlink:href="#DejaVuSans-34" x="95.410156"/>
      </g>
     </g>
    </g>
    <g id="xtick_15">
     <g id="line2d_41">
      <path d="M 367.378259 390.04 
L 367.378259 236.04 
" clip-path="url(#p6dc6627528)" style="fill: none; stroke: #b0b0b0; stroke-width: 0.8; stroke-linecap: square"/>
     </g>
     <g id="line2d_42">
      <g>
       <use xlink:href="#mf910d4e39a" x="367.378259" y="390.04" style="stroke: #000000; stroke-width: 0.8"/>
      </g>
     </g>
     <g id="text_25">
      <!-- 0.5 -->
      <g transform="translate(359.426697 404.638438)scale(0.1 -0.1)">
       <use xlink:href="#DejaVuSans-30"/>
       <use xlink:href="#DejaVuSans-2e" x="63.623047"/>
       <use xlink:href="#DejaVuSans-35" x="95.410156"/>
      </g>
     </g>
    </g>
    <g id="xtick_16">
     <g id="line2d_43">
      <path d="M 424.851165 390.04 
L 424.851165 236.04 
" clip-path="url(#p6dc6627528)" style="fill: none; stroke: #b0b0b0; stroke-width: 0.8; stroke-linecap: square"/>
     </g>
     <g id="line2d_44">
      <g>
       <use xlink:href="#mf910d4e39a" x="424.851165" y="390.04" style="stroke: #000000; stroke-width: 0.8"/>
      </g>
     </g>
     <g id="text_26">
      <!-- 0.6 -->
      <g transform="translate(416.899602 404.638438)scale(0.1 -0.1)">
       <use xlink:href="#DejaVuSans-30"/>
       <use xlink:href="#DejaVuSans-2e" x="63.623047"/>
       <use xlink:href="#DejaVuSans-36" x="95.410156"/>
      </g>
     </g>
    </g>
    <g id="xtick_17">
     <g id="line2d_45">
      <path d="M 482.32407 390.04 
L 482.32407 236.04 
" clip-path="url(#p6dc6627528)" style="fill: none; stroke: #b0b0b0; stroke-width: 0.8; stroke-linecap: square"/>
     </g>
     <g id="line2d_46">
      <g>
       <use xlink:href="#mf910d4e39a" x="482.32407" y="390.04" style="stroke: #000000; stroke-width: 0.8"/>
      </g>
     </g>
     <g id="text_27">
      <!-- 0.7 -->
      <g transform="translate(474.372508 404.638438)scale(0.1 -0.1)">
       <use xlink:href="#DejaVuSans-30"/>
       <use xlink:href="#DejaVuSans-2e" x="63.623047"/>
       <use xlink:href="#DejaVuSans-37" x="95.410156"/>
      </g>
     </g>
    </g>
    <g id="xtick_18">
     <g id="line2d_47">
      <path d="M 539.796976 390.04 
L 539.796976 236.04 
" clip-path="url(#p6dc6627528)" style="fill: none; stroke: #b0b0b0; stroke-width: 0.8; stroke-linecap: square"/>
     </g>
     <g id="line2d_48">
      <g>
       <use xlink:href="#mf910d4e39a" x="539.796976" y="390.04" style="stroke: #000000; stroke-width: 0.8"/>
      </g>
     </g>
     <g id="text_28">
      <!-- 0.8 -->
      <g transform="translate(531.845413 404.638438)scale(0.1 -0.1)">
       <use xlink:href="#DejaVuSans-30"/>
       <use xlink:href="#DejaVuSans-2e" x="63.623047"/>
       <use xlink:href="#DejaVuSans-38" x="95.410156"/>
      </g>
     </g>
    </g>
    <g id="text_29">
     <!-- Time [ms] -->
     <g transform="translate(285.855593 418.316562)scale(0.1 -0.1)">
      <use xlink:href="#DejaVuSans-54"/>
      <use xlink:href="#DejaVuSans-69" x="57.958984"/>
      <use xlink:href="#DejaVuSans-6d" x="85.742188"/>
      <use xlink:href="#DejaVuSans-65" x="183.154297"/>
      <use xlink:href="#DejaVuSans-20" x="244.677734"/>
      <use xlink:href="#DejaVuSans-5b" x="276.464844"/>
      <use xlink:href="#DejaVuSans-6d" x="315.478516"/>
      <use xlink:href="#DejaVuSans-73" x="412.890625"/>
      <use xlink:href="#DejaVuSans-5d" x="464.990234"/>
     </g>
    </g>
   </g>
   <g id="matplotlib.axis_4">
    <g id="ytick_5">
     <g id="line2d_49">
      <path d="M 56.909624 383.446386 
L 565.2 383.446386 
" clip-path="url(#p6dc6627528)" style="fill: none; stroke: #b0b0b0; stroke-width: 0.8; stroke-linecap: square"/>
     </g>
     <g id="line2d_50">
      <g>
       <use xlink:href="#m69a4375a34" x="56.909624" y="383.446386" style="stroke: #000000; stroke-width: 0.8"/>
      </g>
     </g>
     <g id="text_30">
      <!-- $\mathdefault{1.5}$ -->
      <g transform="translate(25.609624 387.245605)scale(0.1 -0.1)">
       <defs>
        <path id="DejaVuSans-2212" d="M 678 2272 
L 4684 2272 
L 4684 1741 
L 678 1741 
L 678 2272 
z
" transform="scale(0.015625)"/>
       </defs>
       <use xlink:href="#DejaVuSans-2212" transform="translate(0 0.09375)"/>
       <use xlink:href="#DejaVuSans-31" transform="translate(83.789062 0.09375)"/>
       <use xlink:href="#DejaVuSans-2e" transform="translate(147.412109 0.09375)"/>
       <use xlink:href="#DejaVuSans-35" transform="translate(179.199219 0.09375)"/>
      </g>
     </g>
    </g>
    <g id="ytick_6">
     <g id="line2d_51">
      <path d="M 56.909624 358.047257 
L 565.2 358.047257 
" clip-path="url(#p6dc6627528)" style="fill: none; stroke: #b0b0b0; stroke-width: 0.8; stroke-linecap: square"/>
     </g>
     <g id="line2d_52">
      <g>
       <use xlink:href="#m69a4375a34" x="56.909624" y="358.047257" style="stroke: #000000; stroke-width: 0.8"/>
      </g>
     </g>
     <g id="text_31">
      <!-- $\mathdefault{1.0}$ -->
      <g transform="translate(25.609624 361.846476)scale(0.1 -0.1)">
       <use xlink:href="#DejaVuSans-2212" transform="translate(0 0.78125)"/>
       <use xlink:href="#DejaVuSans-31" transform="translate(83.789062 0.78125)"/>
       <use xlink:href="#DejaVuSans-2e" transform="translate(147.412109 0.78125)"/>
       <use xlink:href="#DejaVuSans-30" transform="translate(179.199219 0.78125)"/>
      </g>
     </g>
    </g>
    <g id="ytick_7">
     <g id="line2d_53">
      <path d="M 56.909624 332.648128 
L 565.2 332.648128 
" clip-path="url(#p6dc6627528)" style="fill: none; stroke: #b0b0b0; stroke-width: 0.8; stroke-linecap: square"/>
     </g>
     <g id="line2d_54">
      <g>
       <use xlink:href="#m69a4375a34" x="56.909624" y="332.648128" style="stroke: #000000; stroke-width: 0.8"/>
      </g>
     </g>
     <g id="text_32">
      <!-- $\mathdefault{0.5}$ -->
      <g transform="translate(25.609624 336.447346)scale(0.1 -0.1)">
       <use xlink:href="#DejaVuSans-2212" transform="translate(0 0.78125)"/>
       <use xlink:href="#DejaVuSans-30" transform="translate(83.789062 0.78125)"/>
       <use xlink:href="#DejaVuSans-2e" transform="translate(147.412109 0.78125)"/>
       <use xlink:href="#DejaVuSans-35" transform="translate(179.199219 0.78125)"/>
      </g>
     </g>
    </g>
    <g id="ytick_8">
     <g id="line2d_55">
      <path d="M 56.909624 307.248999 
L 565.2 307.248999 
" clip-path="url(#p6dc6627528)" style="fill: none; stroke: #b0b0b0; stroke-width: 0.8; stroke-linecap: square"/>
     </g>
     <g id="line2d_56">
      <g>
       <use xlink:href="#m69a4375a34" x="56.909624" y="307.248999" style="stroke: #000000; stroke-width: 0.8"/>
      </g>
     </g>
     <g id="text_33">
      <!-- $\mathdefault{0.0}$ -->
      <g transform="translate(33.909624 311.048217)scale(0.1 -0.1)">
       <use xlink:href="#DejaVuSans-30" transform="translate(0 0.78125)"/>
       <use xlink:href="#DejaVuSans-2e" transform="translate(63.623047 0.78125)"/>
       <use xlink:href="#DejaVuSans-30" transform="translate(95.410156 0.78125)"/>
      </g>
     </g>
    </g>
    <g id="ytick_9">
     <g id="line2d_57">
      <path d="M 56.909624 281.849869 
L 565.2 281.849869 
" clip-path="url(#p6dc6627528)" style="fill: none; stroke: #b0b0b0; stroke-width: 0.8; stroke-linecap: square"/>
     </g>
     <g id="line2d_58">
      <g>
       <use xlink:href="#m69a4375a34" x="56.909624" y="281.849869" style="stroke: #000000; stroke-width: 0.8"/>
      </g>
     </g>
     <g id="text_34">
      <!-- $\mathdefault{0.5}$ -->
      <g transform="translate(33.909624 285.649088)scale(0.1 -0.1)">
       <use xlink:href="#DejaVuSans-30" transform="translate(0 0.78125)"/>
       <use xlink:href="#DejaVuSans-2e" transform="translate(63.623047 0.78125)"/>
       <use xlink:href="#DejaVuSans-35" transform="translate(95.410156 0.78125)"/>
      </g>
     </g>
    </g>
    <g id="ytick_10">
     <g id="line2d_59">
      <path d="M 56.909624 256.45074 
L 565.2 256.45074 
" clip-path="url(#p6dc6627528)" style="fill: none; stroke: #b0b0b0; stroke-width: 0.8; stroke-linecap: square"/>
     </g>
     <g id="line2d_60">
      <g>
       <use xlink:href="#m69a4375a34" x="56.909624" y="256.45074" style="stroke: #000000; stroke-width: 0.8"/>
      </g>
     </g>
     <g id="text_35">
      <!-- $\mathdefault{1.0}$ -->
      <g transform="translate(33.909624 260.249959)scale(0.1 -0.1)">
       <use xlink:href="#DejaVuSans-31" transform="translate(0 0.78125)"/>
       <use xlink:href="#DejaVuSans-2e" transform="translate(63.623047 0.78125)"/>
       <use xlink:href="#DejaVuSans-30" transform="translate(95.410156 0.78125)"/>
      </g>
     </g>
    </g>
    <g id="text_36">
     <!-- vel. [rad/s] -->
     <g transform="translate(19.529937 340.1275)rotate(-90)scale(0.1 -0.1)">
      <use xlink:href="#DejaVuSans-76"/>
      <use xlink:href="#DejaVuSans-65" x="59.179688"/>
      <use xlink:href="#DejaVuSans-6c" x="120.703125"/>
      <use xlink:href="#DejaVuSans-2e" x="148.486328"/>
      <use xlink:href="#DejaVuSans-20" x="180.273438"/>
      <use xlink:href="#DejaVuSans-5b" x="212.060547"/>
      <use xlink:href="#DejaVuSans-72" x="251.074219"/>
      <use xlink:href="#DejaVuSans-61" x="292.1875"/>
      <use xlink:href="#DejaVuSans-64" x="353.466797"/>
      <use xlink:href="#DejaVuSans-2f" x="416.943359"/>
      <use xlink:href="#DejaVuSans-73" x="450.634766"/>
      <use xlink:href="#DejaVuSans-5d" x="502.734375"/>
     </g>
    </g>
   </g>
   <g id="line2d_61">
    <path d="M 80.013732 307.248999 
L 542.095892 307.248999 
L 542.095892 307.248999 
" clip-path="url(#p6dc6627528)" style="fill: none; stroke: #1f77b4; stroke-width: 2; stroke-linecap: square"/>
   </g>
   <g id="line2d_62">
    <path d="M 80.013732 307.248999 
L 80.588461 307.256837 
L 81.16319 307.662293 
L 81.737919 307.500094 
L 82.312648 307.608244 
L 84.036835 308.229913 
L 86.910481 308.743483 
L 87.48521 308.662206 
L 88.059939 307.337946 
L 88.634668 305.715907 
L 89.784126 313.771495 
L 90.358855 315.935501 
L 90.933584 312.714891 
L 91.508313 306.337678 
L 92.083042 305.743338 
L 92.657771 304.364673 
L 93.2325 303.472656 
L 93.807229 302.850885 
L 94.381958 303.580856 
L 95.531416 307.79762 
L 96.106146 308.040943 
L 96.680875 305.743338 
L 97.255604 305.688984 
L 97.830333 310.581364 
L 98.405062 313.878171 
L 98.979791 322.178607 
L 99.55452 325.825922 
L 100.129249 332.394136 
L 100.703978 334.04508 
L 101.278707 343.37164 
L 101.853436 350.290363 
L 102.428165 366.632163 
L 103.577623 375.369463 
L 104.152352 374.251901 
L 104.727081 373.388331 
L 105.30181 373.642322 
L 105.876539 377.706183 
L 106.451269 379.890508 
L 107.025998 383.04 
L 107.600727 382.17643 
L 108.175456 379.331727 
L 108.750185 375.775849 
L 109.899643 360.536372 
L 110.474372 339.8818 
L 111.049101 332.450015 
L 111.62383 319.095152 
L 112.198559 317.286734 
L 113.348017 312.852046 
L 113.922746 302.310392 
L 114.497475 297.500813 
L 115.072204 284.633614 
L 115.646933 279.685864 
L 116.221662 269.551611 
L 116.796392 268.71344 
L 117.371121 270.684412 
L 118.520579 277.308505 
L 119.095308 273.849144 
L 119.670037 268.144499 
L 120.244766 269.683687 
L 120.819495 278.685138 
L 121.394224 291.796168 
L 121.968953 308.71656 
L 122.543682 302.797039 
L 123.118411 289.688041 
L 123.69314 289.632163 
L 124.267869 301.254804 
L 124.842598 307.554194 
L 125.417327 315.529115 
L 125.992056 309.283977 
L 126.566785 288.956546 
L 127.141515 287.198926 
L 127.716244 291.013875 
L 128.290973 303.553425 
L 128.865702 305.986662 
L 129.440431 312.689492 
L 130.01516 316.52984 
L 130.589889 315.691669 
L 131.164618 315.66119 
L 132.314076 300.091524 
L 132.888805 282.794717 
L 133.463534 281.768592 
L 134.038263 263.684412 
L 134.612992 261.550885 
L 135.187721 265.386154 
L 135.76245 267.682235 
L 136.337179 270.684412 
L 136.911908 268.957271 
L 137.486637 256.73521 
L 138.061367 255.841161 
L 138.636096 263.816488 
L 139.210825 264.573382 
L 139.785554 255.180784 
L 140.935012 244.157562 
L 141.509741 243.04 
L 142.659199 259.762787 
L 143.233928 270.333904 
L 143.808657 275.738839 
L 144.383386 296.525486 
L 144.958115 296.931872 
L 145.532844 289.581364 
L 146.107573 284.577736 
L 146.682302 276.170624 
L 147.257031 279.335356 
L 147.83176 285.522583 
L 148.40649 286.635065 
L 148.981219 293.878897 
L 149.555948 293.579187 
L 150.705406 287.280203 
L 151.280135 281.118374 
L 151.854864 285.471785 
L 152.429593 293.472511 
L 153.004322 296.688041 
L 153.579051 300.716343 
L 154.15378 303.689057 
L 154.728509 320.420987 
L 155.303238 320.365109 
L 155.877967 326.882525 
L 156.452696 329.041451 
L 157.027425 325.851321 
L 157.602154 325.450015 
L 158.751613 321.772221 
L 159.326342 326.013875 
L 159.901071 334.502264 
L 160.4758 347.262787 
L 161.050529 342.614746 
L 161.625258 332.856401 
L 162.199987 334.233033 
L 162.774716 337.666996 
L 163.349445 338.154659 
L 164.498903 340.044354 
L 165.073632 343.910102 
L 165.648361 345.962351 
L 166.22309 349.558868 
L 166.797819 346.531292 
L 167.372548 346.963077 
L 167.947277 343.610392 
L 168.522006 334.61402 
L 169.096736 329.935501 
L 169.671465 322.9609 
L 170.246194 322.041451 
L 170.820923 317.769318 
L 171.395652 317.611843 
L 171.970381 316.392685 
L 172.54511 310.987242 
L 173.119839 310.013948 
L 173.694568 313.553062 
L 174.269297 314.716343 
L 174.844026 311.446459 
L 175.418755 308.90553 
L 175.993484 307.79762 
L 176.568213 307.040573 
L 177.142942 305.662061 
L 178.2924 303.553425 
L 178.867129 302.229115 
L 179.441858 302.445515 
L 180.591317 302.310392 
L 181.166046 301.010972 
L 181.740775 296.174978 
L 182.890233 292.309231 
L 183.464962 286.955094 
L 184.039691 278.578462 
L 184.61442 275.845515 
L 185.189149 277.308505 
L 185.763878 280.224325 
L 186.338607 277.252627 
L 186.913336 273.412279 
L 187.488065 274.443483 
L 188.062794 272.629985 
L 188.637523 273.711988 
L 189.212252 273.95582 
L 189.786981 281.118374 
L 190.361711 283.363657 
L 190.93644 291.039274 
L 191.511169 291.928244 
L 192.085898 298.933324 
L 192.660627 300.172801 
L 193.235356 309.446531 
L 193.810085 310.959811 
L 194.384814 315.422438 
L 194.959543 318.800522 
L 195.534272 326.582816 
L 196.109001 326.532017 
L 197.258459 327.852772 
L 198.407917 322.36656 
L 198.982646 322.717068 
L 199.557375 322.447837 
L 200.132104 323.179332 
L 200.706834 324.555965 
L 201.281563 325.094427 
L 201.856292 328.040726 
L 202.431021 329.554514 
L 203.00575 330.042177 
L 203.580479 329.07193 
L 204.155208 335.152482 
L 204.729937 335.558868 
L 205.304666 330.153933 
L 205.879395 327.151756 
L 206.454124 322.879623 
L 207.028853 322.473237 
L 208.178311 315.229405 
L 208.75304 307.716343 
L 209.327769 311.068012 
L 209.902498 311.635936 
L 210.477227 310.311118 
L 211.051956 301.849144 
L 211.626686 302.904731 
L 212.201415 298.526938 
L 212.776144 296.337533 
L 213.350873 290.983396 
L 213.925602 292.92897 
L 214.500331 297.607489 
L 215.07506 299.934049 
L 215.649789 304.22955 
L 216.224518 300.553788 
L 216.799247 295.037097 
L 217.373976 294.391959 
L 217.948705 291.984122 
L 218.523434 291.659013 
L 219.098163 289.931872 
L 219.672892 288.875269 
L 220.82235 282.388331 
L 221.397079 282.1191 
L 221.971809 284.283106 
L 222.546538 285.065399 
L 223.121267 283.28238 
L 223.695996 283.170624 
L 224.270725 283.57701 
L 224.845454 283.57701 
L 225.420183 285.202554 
L 225.994912 292.172075 
L 226.569641 293.254078 
L 227.14437 298.933324 
L 227.719099 299.878171 
L 228.293828 302.472438 
L 228.868557 306.500232 
L 229.443286 307.716343 
L 230.018015 309.987025 
L 230.592744 311.203135 
L 231.167473 314.228679 
L 231.742202 313.095878 
L 232.316932 312.28463 
L 232.891661 311.77106 
L 233.46639 312.796168 
L 234.041119 314.79762 
L 234.615848 316.067576 
L 235.190577 316.098055 
L 235.765306 318.556691 
L 236.340035 325.175704 
L 236.914764 327.827373 
L 237.489493 332.744644 
L 238.064222 333.638694 
L 238.638951 331.286734 
L 239.21368 332.907199 
L 239.788409 336.722148 
L 240.363138 336.447837 
L 240.937867 335.127083 
L 241.512596 333.476139 
L 242.087325 332.28746 
L 242.662055 331.774398 
L 243.236784 326.638694 
L 243.811513 322.554514 
L 244.386242 320.33971 
L 244.960971 321.152482 
L 245.5357 317.825196 
L 246.110429 317.149579 
L 246.685158 314.635065 
L 247.259887 312.74537 
L 247.834616 303.012932 
L 248.409345 301.579913 
L 248.984074 300.878897 
L 249.558803 301.36656 
L 250.133532 305.688984 
L 250.708261 306.310755 
L 251.28299 302.769608 
L 251.857719 302.526284 
L 252.432448 304.094427 
L 253.007177 304.12135 
L 253.581907 305.715907 
L 254.156636 305.932308 
L 254.731365 301.066851 
L 255.306094 299.121277 
L 255.880823 293.254078 
L 256.455552 294.554514 
L 257.030281 290.175704 
L 258.179739 287.549434 
L 258.754468 289.174978 
L 259.329197 287.498636 
L 259.903926 286.172801 
L 260.478655 280.686589 
L 261.053384 277.415181 
L 261.628113 275.576284 
L 262.202842 277.115472 
L 262.777571 282.820116 
L 263.3523 284.577736 
L 263.92703 290.201103 
L 264.501759 291.120552 
L 265.076488 299.578462 
L 265.651217 299.553062 
L 266.225946 299.33463 
L 266.800675 300.309956 
L 267.375404 311.041089 
L 267.950133 312.582816 
L 268.524862 312.041306 
L 269.099591 311.716705 
L 269.67432 306.256909 
L 270.249049 305.797184 
L 270.823778 310.175994 
L 271.398507 311.041089 
L 271.973236 314.096604 
L 272.547965 314.79762 
L 273.122694 318.444935 
L 273.697423 320.746096 
L 274.272153 322.554514 
L 274.846882 322.905022 
L 275.421611 329.341161 
L 276.571069 331.637242 
L 277.145798 331.936952 
L 277.720527 336.828824 
L 278.295256 337.016778 
L 278.869985 332.775123 
L 279.444714 331.69312 
L 280.019443 330.854949 
L 281.168901 328.50299 
L 281.74363 322.854224 
L 282.318359 321.746821 
L 282.893088 318.851321 
L 283.467817 315.36656 
L 284.042546 310.852119 
L 284.617275 307.79762 
L 285.192005 298.689492 
L 285.766734 296.256255 
L 286.341463 299.63434 
L 287.490921 310.013948 
L 288.06565 305.635138 
L 288.640379 304.364673 
L 289.215108 305.364891 
L 289.789837 304.93209 
L 290.364566 302.526284 
L 290.939295 301.798345 
L 291.514024 302.932163 
L 292.088753 303.769826 
L 292.663482 299.471785 
L 293.238211 296.98775 
L 293.81294 292.446386 
L 294.962398 294.36148 
L 295.537128 292.227954 
L 296.686586 286.741742 
L 297.261315 278.441306 
L 297.836044 277.359303 
L 298.410773 278.822293 
L 298.985502 280.66119 
L 299.560231 284.659013 
L 300.709689 287.986299 
L 301.284418 287.148128 
L 301.859147 286.553788 
L 302.433876 287.66119 
L 303.008605 292.741016 
L 303.583334 296.550885 
L 304.158063 305.202337 
L 304.732792 306.202554 
L 305.307521 310.581364 
L 305.882251 310.446241 
L 306.45698 307.824543 
L 307.031709 307.121698 
L 307.606438 307.770189 
L 308.755896 306.7973 
L 309.330625 310.040871 
L 309.905354 315.204006 
L 310.480083 315.691669 
L 311.629541 324.286734 
L 312.20427 330.880348 
L 312.778999 330.717794 
L 313.928457 337.316488 
L 314.503186 337.016778 
L 315.077915 337.479042 
L 315.652644 336.559594 
L 316.227374 337.961626 
L 316.802103 340.181509 
L 317.376832 339.531292 
L 317.951561 336.610392 
L 318.52629 334.883251 
L 319.101019 330.961626 
L 319.675748 330.367286 
L 320.250477 328.284557 
L 320.825206 324.799797 
L 321.399935 320.014601 
L 321.974664 316.961626 
L 322.549393 308.554514 
L 323.124122 307.202777 
L 323.698851 302.959086 
L 324.27358 302.553716 
L 324.848309 302.877808 
L 325.423038 303.337533 
L 325.997767 304.33775 
L 326.572496 304.364673 
L 327.147226 299.04 
L 327.721955 297.902119 
L 328.296684 300.848418 
L 328.871413 301.254804 
L 329.446142 300.228679 
L 330.020871 300.284557 
L 331.745058 287.229405 
L 332.319787 285.360029 
L 332.894516 284.415181 
L 333.469245 282.850595 
L 334.043974 274.55016 
L 334.618703 272.736662 
L 335.193432 270.308505 
L 335.768161 272.711263 
L 336.34289 282.688041 
L 336.917619 285.954369 
L 337.492349 284.603135 
L 338.067078 282.388331 
L 338.641807 283.170624 
L 339.216536 285.847692 
L 339.791265 285.90357 
L 340.940723 288.280929 
L 341.515452 295.712714 
L 342.090181 298.420261 
L 342.66491 302.042177 
L 343.239639 301.473237 
L 343.814368 303.229332 
L 344.963826 304.175196 
L 345.538555 306.959499 
L 346.113284 308.09479 
L 346.688013 314.365835 
L 347.262742 316.148853 
L 347.837472 320.934049 
L 348.412201 322.854224 
L 348.98693 329.178607 
L 349.561659 330.636517 
L 350.136388 335.721422 
L 350.711117 337.560319 
L 351.285846 342.990653 
L 351.860575 346.317939 
L 352.435304 346.399216 
L 353.010033 340.582816 
L 353.584762 339.124906 
L 354.73422 340.801248 
L 355.308949 337.799071 
L 355.883678 336.828824 
L 356.458407 333.044354 
L 357.033136 330.123454 
L 357.607865 321.340435 
L 358.182594 316.661916 
L 358.757324 316.499361 
L 359.332053 316.773672 
L 359.906782 315.905022 
L 360.481511 314.340435 
L 361.05624 310.473672 
L 361.630969 307.41902 
L 362.205698 305.526938 
L 362.780427 312.552337 
L 363.355156 313.420987 
L 363.929885 316.204731 
L 364.504614 311.068012 
L 365.079343 302.904731 
L 366.228801 297.038549 
L 366.80353 295.118374 
L 367.378259 295.118374 
L 367.952988 294.336081 
L 368.527717 291.013875 
L 369.102447 292.497184 
L 369.677176 291.984122 
L 370.251905 292.121277 
L 370.826634 282.469608 
L 371.401363 278.90357 
L 371.976092 276.089347 
L 372.550821 281.092975 
L 373.12555 282.794717 
L 373.700279 285.741016 
L 374.275008 285.90357 
L 374.849737 289.606763 
L 375.424466 289.444209 
L 375.999195 281.037097 
L 376.573924 281.011698 
L 377.148653 285.309231 
L 377.723382 286.391234 
L 378.87284 295.148853 
L 379.44757 304.391597 
L 380.597028 296.550885 
L 381.171757 292.741016 
L 381.746486 294.905022 
L 382.321215 296.469608 
L 382.895944 299.227954 
L 383.470673 308.635283 
L 384.045402 310.608795 
L 384.620131 310.446241 
L 385.19486 312.28463 
L 385.769589 318.825922 
L 386.344318 322.986299 
L 386.919047 333.45074 
L 387.493776 337.367286 
L 388.068505 342.340435 
L 388.643234 340.664093 
L 389.217963 334.664819 
L 389.792693 330.773672 
L 390.367422 331.743919 
L 390.942151 333.125631 
L 391.51688 330.961626 
L 392.091609 327.177155 
L 392.666338 325.932598 
L 393.815796 325.124906 
L 394.390525 323.204731 
L 394.965254 317.205457 
L 395.539983 312.608215 
L 396.114712 305.500015 
L 396.689441 307.959666 
L 397.26417 313.852772 
L 397.838899 315.986299 
L 398.413628 312.989202 
L 398.988357 309.230131 
L 399.563086 299.852772 
L 400.137815 300.416633 
L 400.712545 307.743367 
L 401.287274 309.040653 
L 401.862003 308.851684 
L 402.436732 308.067866 
L 403.011461 301.254804 
L 404.160919 291.283106 
L 404.735648 289.901393 
L 405.310377 289.469608 
L 405.885106 289.606763 
L 406.459835 293.228679 
L 407.034564 295.793991 
L 407.609293 291.496459 
L 408.184022 288.768592 
L 408.758751 277.74029 
L 409.33348 278.603861 
L 409.908209 286.254078 
L 410.482938 287.767866 
L 411.057668 288.900668 
L 411.632397 289.012424 
L 412.207126 291.252627 
L 412.781855 291.689492 
L 413.356584 291.283106 
L 413.931313 291.608215 
L 414.506042 291.608215 
L 415.080771 291.852046 
L 415.6555 291.308505 
L 416.230229 291.013875 
L 416.804958 288.743193 
L 417.379687 289.606763 
L 417.954416 295.631437 
L 418.529145 296.1191 
L 419.678603 298.659013 
L 420.253332 303.71598 
L 420.828061 304.013149 
L 421.402791 307.47307 
L 421.97752 308.013512 
L 422.552249 316.499361 
L 423.126978 320.664819 
L 423.701707 320.04 
L 424.276436 319.013875 
L 424.851165 326.907925 
L 425.425894 331.042903 
L 426.000623 341.776575 
L 426.575352 341.263512 
L 427.150081 336.559594 
L 427.72481 336.447837 
L 428.299539 339.018229 
L 428.874268 336.803425 
L 429.448997 332.424615 
L 430.023726 333.74537 
L 430.598455 341.070479 
L 431.173184 341.801974 
L 431.747913 340.069753 
L 432.322643 338.855675 
L 432.897372 322.36656 
L 433.472101 320.583541 
L 434.04683 323.880348 
L 435.196288 341.532743 
L 435.771017 338.286734 
L 436.345746 331.042903 
L 436.920475 330.799071 
L 437.495204 332.343338 
L 438.069933 335.477591 
L 438.644662 332.043628 
L 439.219391 327.664819 
L 439.79412 321.609666 
L 440.368849 318.338258 
L 440.943578 308.851684 
L 441.518307 308.446313 
L 442.093036 306.500232 
L 442.667766 303.959303 
L 443.242495 290.983396 
L 443.817224 286.1982 
L 444.391953 277.902845 
L 444.966682 279.147402 
L 445.541411 289.281655 
L 446.11614 291.064673 
L 446.690869 292.121277 
L 447.265598 290.87672 
L 447.840327 281.55016 
L 448.415056 280.305602 
L 448.989785 281.280929 
L 449.564514 285.360029 
L 450.139243 288.55016 
L 450.713972 287.95582 
L 451.288701 290.201103 
L 451.86343 290.551611 
L 453.012889 301.310682 
L 453.587618 315.635791 
L 454.737076 318.907199 
L 455.311805 319.989202 
L 455.886534 322.986299 
L 457.610721 323.987025 
L 459.334908 324.611843 
L 459.909637 324.555965 
L 461.059095 323.555239 
L 461.633824 321.20328 
L 462.208553 319.989202 
L 463.358012 310.311118 
L 465.656928 300.122003 
L 466.231657 291.902845 
L 466.806386 286.523309 
L 467.381115 286.635065 
L 467.955844 289.71344 
L 468.530573 290.414456 
L 469.105302 291.577736 
L 469.680031 291.552337 
L 470.25476 292.172075 
L 470.829489 293.254078 
L 471.404218 292.685138 
L 471.978947 290.28238 
L 473.128405 287.874543 
L 473.703134 287.711988 
L 474.277864 284.364383 
L 474.852593 277.633614 
L 475.427322 274.81939 
L 476.002051 270.17135 
L 476.57678 269.846241 
L 477.151509 273.224325 
L 477.726238 277.496459 
L 478.300967 290.063948 
L 478.875696 294.117649 
L 479.450425 301.310682 
L 480.025154 302.229115 
L 480.599883 300.553788 
L 481.174612 297.470334 
L 481.749341 296.525486 
L 482.32407 296.743919 
L 482.898799 298.338984 
L 483.473528 306.472801 
L 484.048257 309.095007 
L 484.622987 313.63434 
L 485.197716 313.095878 
L 485.772445 310.554441 
L 486.347174 309.4191 
L 486.921903 310.905965 
L 487.496632 313.095878 
L 488.071361 319.313585 
L 488.64609 323.799071 
L 489.220819 325.28746 
L 489.795548 326.206909 
L 490.370277 324.312134 
L 490.945006 317.068302 
L 491.519735 314.823019 
L 492.094464 310.067794 
L 492.669193 308.121713 
L 493.818651 307.283866 
L 494.39338 307.716343 
L 494.96811 309.689347 
L 495.542839 310.365472 
L 496.117568 312.770769 
L 496.692297 313.63434 
L 497.267026 315.529115 
L 497.841755 315.579913 
L 498.416484 314.340435 
L 498.991213 311.689782 
L 499.565942 310.257271 
L 500.7154 303.094209 
L 501.290129 301.635791 
L 501.864858 297.58209 
L 502.439587 296.769318 
L 503.014316 294.605312 
L 503.589045 294.229405 
L 504.163774 292.92897 
L 504.738503 292.578462 
L 505.313233 292.822293 
L 505.887962 294.336081 
L 506.462691 294.874543 
L 507.03742 296.581364 
L 507.612149 297.145225 
L 508.186878 299.04 
L 508.761607 300.416633 
L 509.336336 305.013367 
L 509.911065 305.959231 
L 510.485794 307.986589 
L 511.060523 308.635283 
L 511.635252 308.41939 
L 512.209981 307.148723 
L 512.78471 306.581001 
L 513.359439 304.986444 
L 513.934168 304.499797 
L 514.508897 303.229332 
L 515.083626 302.823962 
L 515.658355 301.717068 
L 516.233085 301.66119 
L 517.382543 301.798345 
L 518.532001 302.445515 
L 519.681459 304.310319 
L 520.256188 307.391996 
L 520.830917 308.635283 
L 521.405646 310.608795 
L 521.980375 311.094935 
L 522.555104 312.958723 
L 523.129833 313.771495 
L 523.704562 315.259884 
L 524.279291 315.447837 
L 524.85402 315.823745 
L 526.003478 316.286009 
L 526.578208 316.016778 
L 529.451853 309.095007 
L 530.026582 306.256909 
L 530.601311 305.175414 
L 531.17604 302.661916 
L 531.750769 301.879623 
L 532.325498 300.122003 
L 532.900227 299.741016 
L 533.474956 299.121277 
L 534.624414 299.741016 
L 535.199143 301.173527 
L 535.773872 301.930421 
L 536.348601 304.310319 
L 536.923331 305.33746 
L 537.49806 307.959666 
L 538.072789 308.90553 
L 538.647518 311.094935 
L 539.222247 311.824906 
L 539.796976 313.365109 
L 540.371705 313.715617 
L 540.946434 314.391234 
L 541.521163 314.447112 
L 542.095892 314.20328 
L 542.095892 314.20328 
" clip-path="url(#p6dc6627528)" style="fill: none; stroke: #ff7f0e; stroke-width: 2; stroke-linecap: square"/>
   </g>
   <g id="patch_9">
    <path d="M 56.909624 390.04 
L 56.909624 236.04 
" style="fill: none; stroke: #000000; stroke-width: 0.8; stroke-linejoin: miter; stroke-linecap: square"/>
   </g>
   <g id="patch_10">
    <path d="M 565.2 390.04 
L 565.2 236.04 
" style="fill: none; stroke: #000000; stroke-width: 0.8; stroke-linejoin: miter; stroke-linecap: square"/>
   </g>
   <g id="patch_11">
    <path d="M 56.909624 390.04 
L 565.2 390.04 
" style="fill: none; stroke: #000000; stroke-width: 0.8; stroke-linejoin: miter; stroke-linecap: square"/>
   </g>
   <g id="patch_12">
    <path d="M 56.909624 236.04 
L 565.2 236.04 
" style="fill: none; stroke: #000000; stroke-width: 0.8; stroke-linejoin: miter; stroke-linecap: square"/>
   </g>
   <g id="text_37">
    <!-- Rotational Velocity -->
    <g transform="translate(255.17325 230.04)scale(0.12 -0.12)">
     <use xlink:href="#DejaVuSans-52"/>
     <use xlink:href="#DejaVuSans-6f" x="64.982422"/>
     <use xlink:href="#DejaVuSans-74" x="126.164062"/>
     <use xlink:href="#DejaVuSans-61" x="165.373047"/>
     <use xlink:href="#DejaVuSans-74" x="226.652344"/>
     <use xlink:href="#DejaVuSans-69" x="265.861328"/>
     <use xlink:href="#DejaVuSans-6f" x="293.644531"/>
     <use xlink:href="#DejaVuSans-6e" x="354.826172"/>
     <use xlink:href="#DejaVuSans-61" x="418.205078"/>
     <use xlink:href="#DejaVuSans-6c" x="479.484375"/>
     <use xlink:href="#DejaVuSans-20" x="507.267578"/>
     <use xlink:href="#DejaVuSans-56" x="539.054688"/>
     <use xlink:href="#DejaVuSans-65" x="599.712891"/>
     <use xlink:href="#DejaVuSans-6c" x="661.236328"/>
     <use xlink:href="#DejaVuSans-6f" x="689.019531"/>
     <use xlink:href="#DejaVuSans-63" x="750.201172"/>
     <use xlink:href="#DejaVuSans-69" x="805.181641"/>
     <use xlink:href="#DejaVuSans-74" x="832.964844"/>
     <use xlink:href="#DejaVuSans-79" x="872.173828"/>
    </g>
   </g>
   <g id="legend_2">
    <g id="patch_13">
     <path d="M 475.682812 385.04 
L 558.2 385.04 
Q 560.2 385.04 560.2 383.04 
L 560.2 354.68375 
Q 560.2 352.68375 558.2 352.68375 
L 475.682812 352.68375 
Q 473.682812 352.68375 473.682812 354.68375 
L 473.682812 383.04 
Q 473.682812 385.04 475.682812 385.04 
z
" style="fill: #ffffff; opacity: 0.8; stroke: #cccccc; stroke-linejoin: miter"/>
    </g>
    <g id="line2d_63">
     <path d="M 477.682812 360.782187 
L 487.682812 360.782187 
L 497.682812 360.782187 
" style="fill: none; stroke: #1f77b4; stroke-width: 2; stroke-linecap: square"/>
    </g>
    <g id="text_38">
     <!-- Reference -->
     <g transform="translate(505.682812 364.282187)scale(0.1 -0.1)">
      <use xlink:href="#DejaVuSans-52"/>
      <use xlink:href="#DejaVuSans-65" x="64.982422"/>
      <use xlink:href="#DejaVuSans-66" x="126.505859"/>
      <use xlink:href="#DejaVuSans-65" x="161.710938"/>
      <use xlink:href="#DejaVuSans-72" x="223.234375"/>
      <use xlink:href="#DejaVuSans-65" x="262.097656"/>
      <use xlink:href="#DejaVuSans-6e" x="323.621094"/>
      <use xlink:href="#DejaVuSans-63" x="387"/>
      <use xlink:href="#DejaVuSans-65" x="441.980469"/>
     </g>
    </g>
    <g id="line2d_64">
     <path d="M 477.682812 375.460312 
L 487.682812 375.460312 
L 497.682812 375.460312 
" style="fill: none; stroke: #ff7f0e; stroke-width: 2; stroke-linecap: square"/>
    </g>
    <g id="text_39">
     <!-- Estimated -->
     <g transform="translate(505.682812 378.960312)scale(0.1 -0.1)">
      <use xlink:href="#DejaVuSans-45"/>
      <use xlink:href="#DejaVuSans-73" x="63.183594"/>
      <use xlink:href="#DejaVuSans-74" x="115.283203"/>
      <use xlink:href="#DejaVuSans-69" x="154.492188"/>
      <use xlink:href="#DejaVuSans-6d" x="182.275391"/>
      <use xlink:href="#DejaVuSans-61" x="279.6875"/>
      <use xlink:href="#DejaVuSans-74" x="340.966797"/>
      <use xlink:href="#DejaVuSans-65" x="380.175781"/>
      <use xlink:href="#DejaVuSans-64" x="441.699219"/>
     </g>
    </g>
   </g>
  </g>
 </g>
 <defs>
  <clipPath id="p659f98c5c4">
   <rect x="56.909624" y="25.44" width="508.290376" height="154"/>
  </clipPath>
  <clipPath id="p6dc6627528">
   <rect x="56.909624" y="236.04" width="508.290376" height="154"/>
  </clipPath>
 </defs>
</svg>
