<?xml version="1.0" encoding="utf-8" standalone="no"?>
<!DOCTYPE svg PUBLIC "-//W3C//DTD SVG 1.1//EN"
  "http://www.w3.org/Graphics/SVG/1.1/DTD/svg11.dtd">
<svg xmlns:xlink="http://www.w3.org/1999/xlink" width="460.8pt" height="345.6pt" viewBox="0 0 460.8 345.6" xmlns="http://www.w3.org/2000/svg" version="1.1">
 <metadata>
  <rdf:RDF xmlns:dc="http://purl.org/dc/elements/1.1/" xmlns:cc="http://creativecommons.org/ns#" xmlns:rdf="http://www.w3.org/1999/02/22-rdf-syntax-ns#">
   <cc:Work>
    <dc:type rdf:resource="http://purl.org/dc/dcmitype/StillImage"/>
    <dc:date>2022-01-16T03:29:07.671928</dc:date>
    <dc:format>image/svg+xml</dc:format>
    <dc:creator>
     <cc:Agent>
      <dc:title>Matplotlib v3.5.1, https://matplotlib.org/</dc:title>
     </cc:Agent>
    </dc:creator>
   </cc:Work>
  </rdf:RDF>
 </metadata>
 <defs>
  <style type="text/css">*{stroke-linejoin: round; stroke-linecap: butt}</style>
 </defs>
 <g id="figure_1">
  <g id="patch_1">
   <path d="M 0 345.6 
L 460.8 345.6 
L 460.8 0 
L 0 0 
z
" style="fill: #ffffff"/>
  </g>
  <g id="axes_1">
   <g id="patch_2">
    <path d="M 56.928125 161.67875 
L 450 161.67875 
L 450 48.331875 
L 56.928125 48.331875 
z
" style="fill: #ffffff"/>
   </g>
   <g id="matplotlib.axis_1">
    <g id="xtick_1">
     <g id="line2d_1">
      <path d="M 74.795028 161.67875 
L 74.795028 48.331875 
" clip-path="url(#pfdadbbb6d8)" style="fill: none; stroke: #b0b0b0; stroke-width: 0.8; stroke-linecap: square"/>
     </g>
     <g id="line2d_2">
      <defs>
       <path id="m2c058ff0e0" d="M 0 0 
L 0 3.5 
" style="stroke: #000000; stroke-width: 0.8"/>
      </defs>
      <g>
       <use xlink:href="#m2c058ff0e0" x="74.795028" y="161.67875" style="stroke: #000000; stroke-width: 0.8"/>
      </g>
     </g>
    </g>
    <g id="xtick_2">
     <g id="line2d_3">
      <path d="M 154.203488 161.67875 
L 154.203488 48.331875 
" clip-path="url(#pfdadbbb6d8)" style="fill: none; stroke: #b0b0b0; stroke-width: 0.8; stroke-linecap: square"/>
     </g>
     <g id="line2d_4">
      <g>
       <use xlink:href="#m2c058ff0e0" x="154.203488" y="161.67875" style="stroke: #000000; stroke-width: 0.8"/>
      </g>
     </g>
    </g>
    <g id="xtick_3">
     <g id="line2d_5">
      <path d="M 233.611948 161.67875 
L 233.611948 48.331875 
" clip-path="url(#pfdadbbb6d8)" style="fill: none; stroke: #b0b0b0; stroke-width: 0.8; stroke-linecap: square"/>
     </g>
     <g id="line2d_6">
      <g>
       <use xlink:href="#m2c058ff0e0" x="233.611948" y="161.67875" style="stroke: #000000; stroke-width: 0.8"/>
      </g>
     </g>
    </g>
    <g id="xtick_4">
     <g id="line2d_7">
      <path d="M 313.020407 161.67875 
L 313.020407 48.331875 
" clip-path="url(#pfdadbbb6d8)" style="fill: none; stroke: #b0b0b0; stroke-width: 0.8; stroke-linecap: square"/>
     </g>
     <g id="line2d_8">
      <g>
       <use xlink:href="#m2c058ff0e0" x="313.020407" y="161.67875" style="stroke: #000000; stroke-width: 0.8"/>
      </g>
     </g>
    </g>
    <g id="xtick_5">
     <g id="line2d_9">
      <path d="M 392.428867 161.67875 
L 392.428867 48.331875 
" clip-path="url(#pfdadbbb6d8)" style="fill: none; stroke: #b0b0b0; stroke-width: 0.8; stroke-linecap: square"/>
     </g>
     <g id="line2d_10">
      <g>
       <use xlink:href="#m2c058ff0e0" x="392.428867" y="161.67875" style="stroke: #000000; stroke-width: 0.8"/>
      </g>
     </g>
    </g>
   </g>
   <g id="matplotlib.axis_2">
    <g id="ytick_1">
     <g id="line2d_11">
      <path d="M 56.928125 156.580852 
L 450 156.580852 
" clip-path="url(#pfdadbbb6d8)" style="fill: none; stroke: #b0b0b0; stroke-width: 0.8; stroke-linecap: square"/>
     </g>
     <g id="line2d_12">
      <defs>
       <path id="m078d7ad3e7" d="M 0 0 
L -3.5 0 
" style="stroke: #000000; stroke-width: 0.8"/>
      </defs>
      <g>
       <use xlink:href="#m078d7ad3e7" x="56.928125" y="156.580852" style="stroke: #000000; stroke-width: 0.8"/>
      </g>
     </g>
     <g id="text_1">
      <!-- 0 -->
      <g transform="translate(43.565625 160.380071)scale(0.1 -0.1)">
       <defs>
        <path id="DejaVuSans-30" d="M 2034 4250 
Q 1547 4250 1301 3770 
Q 1056 3291 1056 2328 
Q 1056 1369 1301 889 
Q 1547 409 2034 409 
Q 2525 409 2770 889 
Q 3016 1369 3016 2328 
Q 3016 3291 2770 3770 
Q 2525 4250 2034 4250 
z
M 2034 4750 
Q 2819 4750 3233 4129 
Q 3647 3509 3647 2328 
Q 3647 1150 3233 529 
Q 2819 -91 2034 -91 
Q 1250 -91 836 529 
Q 422 1150 422 2328 
Q 422 3509 836 4129 
Q 1250 4750 2034 4750 
z
" transform="scale(0.015625)"/>
       </defs>
       <use xlink:href="#DejaVuSans-30"/>
      </g>
     </g>
    </g>
    <g id="ytick_2">
     <g id="line2d_13">
      <path d="M 56.928125 129.464375 
L 450 129.464375 
" clip-path="url(#pfdadbbb6d8)" style="fill: none; stroke: #b0b0b0; stroke-width: 0.8; stroke-linecap: square"/>
     </g>
     <g id="line2d_14">
      <g>
       <use xlink:href="#m078d7ad3e7" x="56.928125" y="129.464375" style="stroke: #000000; stroke-width: 0.8"/>
      </g>
     </g>
     <g id="text_2">
      <!-- 500 -->
      <g transform="translate(30.840625 133.263594)scale(0.1 -0.1)">
       <defs>
        <path id="DejaVuSans-35" d="M 691 4666 
L 3169 4666 
L 3169 4134 
L 1269 4134 
L 1269 2991 
Q 1406 3038 1543 3061 
Q 1681 3084 1819 3084 
Q 2600 3084 3056 2656 
Q 3513 2228 3513 1497 
Q 3513 744 3044 326 
Q 2575 -91 1722 -91 
Q 1428 -91 1123 -41 
Q 819 9 494 109 
L 494 744 
Q 775 591 1075 516 
Q 1375 441 1709 441 
Q 2250 441 2565 725 
Q 2881 1009 2881 1497 
Q 2881 1984 2565 2268 
Q 2250 2553 1709 2553 
Q 1456 2553 1204 2497 
Q 953 2441 691 2322 
L 691 4666 
z
" transform="scale(0.015625)"/>
       </defs>
       <use xlink:href="#DejaVuSans-35"/>
       <use xlink:href="#DejaVuSans-30" x="63.623047"/>
       <use xlink:href="#DejaVuSans-30" x="127.246094"/>
      </g>
     </g>
    </g>
    <g id="ytick_3">
     <g id="line2d_15">
      <path d="M 56.928125 102.347898 
L 450 102.347898 
" clip-path="url(#pfdadbbb6d8)" style="fill: none; stroke: #b0b0b0; stroke-width: 0.8; stroke-linecap: square"/>
     </g>
     <g id="line2d_16">
      <g>
       <use xlink:href="#m078d7ad3e7" x="56.928125" y="102.347898" style="stroke: #000000; stroke-width: 0.8"/>
      </g>
     </g>
     <g id="text_3">
      <!-- 1000 -->
      <g transform="translate(24.478125 106.147116)scale(0.1 -0.1)">
       <defs>
        <path id="DejaVuSans-31" d="M 794 531 
L 1825 531 
L 1825 4091 
L 703 3866 
L 703 4441 
L 1819 4666 
L 2450 4666 
L 2450 531 
L 3481 531 
L 3481 0 
L 794 0 
L 794 531 
z
" transform="scale(0.015625)"/>
       </defs>
       <use xlink:href="#DejaVuSans-31"/>
       <use xlink:href="#DejaVuSans-30" x="63.623047"/>
       <use xlink:href="#DejaVuSans-30" x="127.246094"/>
       <use xlink:href="#DejaVuSans-30" x="190.869141"/>
      </g>
     </g>
    </g>
    <g id="ytick_4">
     <g id="line2d_17">
      <path d="M 56.928125 75.23142 
L 450 75.23142 
" clip-path="url(#pfdadbbb6d8)" style="fill: none; stroke: #b0b0b0; stroke-width: 0.8; stroke-linecap: square"/>
     </g>
     <g id="line2d_18">
      <g>
       <use xlink:href="#m078d7ad3e7" x="56.928125" y="75.23142" style="stroke: #000000; stroke-width: 0.8"/>
      </g>
     </g>
     <g id="text_4">
      <!-- 1500 -->
      <g transform="translate(24.478125 79.030639)scale(0.1 -0.1)">
       <use xlink:href="#DejaVuSans-31"/>
       <use xlink:href="#DejaVuSans-35" x="63.623047"/>
       <use xlink:href="#DejaVuSans-30" x="127.246094"/>
       <use xlink:href="#DejaVuSans-30" x="190.869141"/>
      </g>
     </g>
    </g>
    <g id="text_5">
     <!-- reflector value -->
     <g transform="translate(18.398438 141.321719)rotate(-90)scale(0.1 -0.1)">
      <defs>
       <path id="DejaVuSans-72" d="M 2631 2963 
Q 2534 3019 2420 3045 
Q 2306 3072 2169 3072 
Q 1681 3072 1420 2755 
Q 1159 2438 1159 1844 
L 1159 0 
L 581 0 
L 581 3500 
L 1159 3500 
L 1159 2956 
Q 1341 3275 1631 3429 
Q 1922 3584 2338 3584 
Q 2397 3584 2469 3576 
Q 2541 3569 2628 3553 
L 2631 2963 
z
" transform="scale(0.015625)"/>
       <path id="DejaVuSans-65" d="M 3597 1894 
L 3597 1613 
L 953 1613 
Q 991 1019 1311 708 
Q 1631 397 2203 397 
Q 2534 397 2845 478 
Q 3156 559 3463 722 
L 3463 178 
Q 3153 47 2828 -22 
Q 2503 -91 2169 -91 
Q 1331 -91 842 396 
Q 353 884 353 1716 
Q 353 2575 817 3079 
Q 1281 3584 2069 3584 
Q 2775 3584 3186 3129 
Q 3597 2675 3597 1894 
z
M 3022 2063 
Q 3016 2534 2758 2815 
Q 2500 3097 2075 3097 
Q 1594 3097 1305 2825 
Q 1016 2553 972 2059 
L 3022 2063 
z
" transform="scale(0.015625)"/>
       <path id="DejaVuSans-66" d="M 2375 4863 
L 2375 4384 
L 1825 4384 
Q 1516 4384 1395 4259 
Q 1275 4134 1275 3809 
L 1275 3500 
L 2222 3500 
L 2222 3053 
L 1275 3053 
L 1275 0 
L 697 0 
L 697 3053 
L 147 3053 
L 147 3500 
L 697 3500 
L 697 3744 
Q 697 4328 969 4595 
Q 1241 4863 1831 4863 
L 2375 4863 
z
" transform="scale(0.015625)"/>
       <path id="DejaVuSans-6c" d="M 603 4863 
L 1178 4863 
L 1178 0 
L 603 0 
L 603 4863 
z
" transform="scale(0.015625)"/>
       <path id="DejaVuSans-63" d="M 3122 3366 
L 3122 2828 
Q 2878 2963 2633 3030 
Q 2388 3097 2138 3097 
Q 1578 3097 1268 2742 
Q 959 2388 959 1747 
Q 959 1106 1268 751 
Q 1578 397 2138 397 
Q 2388 397 2633 464 
Q 2878 531 3122 666 
L 3122 134 
Q 2881 22 2623 -34 
Q 2366 -91 2075 -91 
Q 1284 -91 818 406 
Q 353 903 353 1747 
Q 353 2603 823 3093 
Q 1294 3584 2113 3584 
Q 2378 3584 2631 3529 
Q 2884 3475 3122 3366 
z
" transform="scale(0.015625)"/>
       <path id="DejaVuSans-74" d="M 1172 4494 
L 1172 3500 
L 2356 3500 
L 2356 3053 
L 1172 3053 
L 1172 1153 
Q 1172 725 1289 603 
Q 1406 481 1766 481 
L 2356 481 
L 2356 0 
L 1766 0 
Q 1100 0 847 248 
Q 594 497 594 1153 
L 594 3053 
L 172 3053 
L 172 3500 
L 594 3500 
L 594 4494 
L 1172 4494 
z
" transform="scale(0.015625)"/>
       <path id="DejaVuSans-6f" d="M 1959 3097 
Q 1497 3097 1228 2736 
Q 959 2375 959 1747 
Q 959 1119 1226 758 
Q 1494 397 1959 397 
Q 2419 397 2687 759 
Q 2956 1122 2956 1747 
Q 2956 2369 2687 2733 
Q 2419 3097 1959 3097 
z
M 1959 3584 
Q 2709 3584 3137 3096 
Q 3566 2609 3566 1747 
Q 3566 888 3137 398 
Q 2709 -91 1959 -91 
Q 1206 -91 779 398 
Q 353 888 353 1747 
Q 353 2609 779 3096 
Q 1206 3584 1959 3584 
z
" transform="scale(0.015625)"/>
       <path id="DejaVuSans-20" transform="scale(0.015625)"/>
       <path id="DejaVuSans-76" d="M 191 3500 
L 800 3500 
L 1894 563 
L 2988 3500 
L 3597 3500 
L 2284 0 
L 1503 0 
L 191 3500 
z
" transform="scale(0.015625)"/>
       <path id="DejaVuSans-61" d="M 2194 1759 
Q 1497 1759 1228 1600 
Q 959 1441 959 1056 
Q 959 750 1161 570 
Q 1363 391 1709 391 
Q 2188 391 2477 730 
Q 2766 1069 2766 1631 
L 2766 1759 
L 2194 1759 
z
M 3341 1997 
L 3341 0 
L 2766 0 
L 2766 531 
Q 2569 213 2275 61 
Q 1981 -91 1556 -91 
Q 1019 -91 701 211 
Q 384 513 384 1019 
Q 384 1609 779 1909 
Q 1175 2209 1959 2209 
L 2766 2209 
L 2766 2266 
Q 2766 2663 2505 2880 
Q 2244 3097 1772 3097 
Q 1472 3097 1187 3025 
Q 903 2953 641 2809 
L 641 3341 
Q 956 3463 1253 3523 
Q 1550 3584 1831 3584 
Q 2591 3584 2966 3190 
Q 3341 2797 3341 1997 
z
" transform="scale(0.015625)"/>
       <path id="DejaVuSans-75" d="M 544 1381 
L 544 3500 
L 1119 3500 
L 1119 1403 
Q 1119 906 1312 657 
Q 1506 409 1894 409 
Q 2359 409 2629 706 
Q 2900 1003 2900 1516 
L 2900 3500 
L 3475 3500 
L 3475 0 
L 2900 0 
L 2900 538 
Q 2691 219 2414 64 
Q 2138 -91 1772 -91 
Q 1169 -91 856 284 
Q 544 659 544 1381 
z
M 1991 3584 
L 1991 3584 
z
" transform="scale(0.015625)"/>
      </defs>
      <use xlink:href="#DejaVuSans-72"/>
      <use xlink:href="#DejaVuSans-65" x="38.863281"/>
      <use xlink:href="#DejaVuSans-66" x="100.386719"/>
      <use xlink:href="#DejaVuSans-6c" x="135.591797"/>
      <use xlink:href="#DejaVuSans-65" x="163.375"/>
      <use xlink:href="#DejaVuSans-63" x="224.898438"/>
      <use xlink:href="#DejaVuSans-74" x="279.878906"/>
      <use xlink:href="#DejaVuSans-6f" x="319.087891"/>
      <use xlink:href="#DejaVuSans-72" x="380.269531"/>
      <use xlink:href="#DejaVuSans-20" x="421.382812"/>
      <use xlink:href="#DejaVuSans-76" x="453.169922"/>
      <use xlink:href="#DejaVuSans-61" x="512.349609"/>
      <use xlink:href="#DejaVuSans-6c" x="573.628906"/>
      <use xlink:href="#DejaVuSans-75" x="601.412109"/>
      <use xlink:href="#DejaVuSans-65" x="664.791016"/>
     </g>
    </g>
   </g>
   <g id="line2d_19">
    <path d="M 74.795028 144.703835 
L 74.849916 144.541136 
L 74.795283 144.758068 
L 74.90223 144.703835 
L 75.133229 144.649602 
L 75.181509 144.486903 
L 75.234157 144.595369 
L 75.492314 144.486903 
L 75.741577 144.43267 
L 75.936128 144.324205 
L 76.043329 144.215739 
L 76.156883 144.324205 
L 76.403844 144.161506 
L 76.538044 144.269972 
L 76.982731 144.05304 
L 77.867342 143.564943 
L 79.654032 142.968381 
L 79.909727 142.697216 
L 80.441764 142.642983 
L 81.293817 142.04642 
L 82.530206 141.66679 
L 82.854987 141.341392 
L 83.188503 141.287159 
L 83.879356 140.799062 
L 84.236694 140.636364 
L 84.967252 140.094034 
L 85.340472 139.931335 
L 85.721632 139.551705 
L 86.110734 139.443239 
L 86.896878 138.900909 
L 88.540633 138.033182 
L 89.398244 137.328153 
L 89.82705 137.111222 
L 90.263796 136.731591 
L 90.700543 136.568892 
L 94.33745 133.803011 
L 96.203549 132.392955 
L 96.68 132.12179 
L 98.101411 130.820199 
L 98.577862 130.440568 
L 99.054313 129.789773 
L 99.530764 129.518608 
L 100.960116 127.674687 
L 103.81882 124.312244 
L 104.771722 122.793722 
L 106.201074 121.004034 
L 110.01268 115.255341 
L 114.777188 106.361136 
L 115.730089 103.812187 
L 118.112343 96.70767 
L 119.065245 93.616392 
L 121.923949 85.101818 
L 122.4004 84.179858 
L 122.876851 82.9325 
L 123.353301 82.281705 
L 123.829752 81.359744 
L 124.782654 79.949687 
L 125.735555 78.322699 
L 126.688457 76.858409 
L 127.164908 75.882216 
L 128.59426 71.380881 
L 130.976514 66.22875 
L 131.452964 65.740653 
L 131.929415 66.22875 
L 132.405866 66.879545 
L 132.882317 68.235369 
L 133.358767 70.621619 
L 134.311669 78.16 
L 135.26457 88.898125 
L 138.123275 125.396903 
L 138.599726 131.037131 
L 140.029078 142.968381 
L 140.505529 145.788494 
L 140.981979 147.90358 
L 141.45843 148.879773 
L 141.934881 150.235597 
L 143.840684 152.242216 
L 144.317135 152.242216 
L 145.746487 152.67608 
L 148.128741 152.947244 
L 148.605192 152.838778 
L 149.081642 152.947244 
L 150.034544 152.730312 
L 152.416798 152.350682 
L 152.893248 152.621847 
L 154.362305 152.350682 
L 155.315206 152.350682 
L 157.221009 152.242216 
L 158.650362 152.242216 
L 159.126812 152.079517 
L 159.603263 152.13375 
L 161.032616 151.754119 
L 166.750025 150.506761 
L 167.702926 150.452528 
L 168.655828 150.127131 
L 169.132278 150.235597 
L 169.608729 149.801733 
L 171.514532 149.367869 
L 172.467434 148.771307 
L 172.943884 148.771307 
L 178.184843 147.035852 
L 178.661294 147.035852 
L 179.614195 146.710455 
L 180.090646 146.330824 
L 181.44059 145.788494 
L 181.91704 145.300398 
L 182.393491 145.300398 
L 182.869942 144.758068 
L 183.346393 144.541136 
L 184.299294 143.890341 
L 184.775745 143.564943 
L 185.252196 143.564943 
L 189.063802 140.907528 
L 189.540253 140.473665 
L 190.493154 140.039801 
L 190.969605 139.497472 
L 191.922506 138.900909 
L 192.398957 138.412812 
L 193.351859 137.653551 
L 194.30476 136.677358 
L 194.781211 136.460426 
L 195.734112 135.592699 
L 196.210563 134.941903 
L 196.687014 134.724972 
L 197.639915 133.531847 
L 198.116366 133.152216 
L 200.975071 129.898239 
L 201.451521 129.572841 
L 201.927972 129.084744 
L 202.404423 128.162784 
L 202.880874 127.783153 
L 203.833775 126.42733 
L 204.310226 126.047699 
L 205.263128 124.637642 
L 205.739578 124.312244 
L 206.69248 122.739489 
L 207.168931 122.251392 
L 207.645381 121.492131 
L 208.121832 121.004034 
L 211.456987 115.906136 
L 215.268593 108.530455 
L 216.221495 106.144205 
L 216.697946 105.059545 
L 220.033101 93.724858 
L 222.891806 83.529062 
L 223.844707 80.708949 
L 224.797609 78.322699 
L 225.274059 77.563437 
L 225.75051 76.424545 
L 226.226961 75.611051 
L 228.609215 70.07929 
L 230.038567 67.204943 
L 231.467919 65.198324 
L 231.94437 63.408636 
L 232.420821 60.263125 
L 232.897271 55.21946 
L 233.373722 53.484006 
L 233.850173 56.032955 
L 234.326624 57.171847 
L 234.803074 57.497244 
L 235.279525 58.256506 
L 235.755976 59.666562 
L 236.232427 61.99858 
L 236.708878 65.30679 
L 237.185328 69.808125 
L 238.13823 82.824034 
L 240.996934 122.142926 
L 242.426287 136.243494 
L 242.902737 139.985568 
L 243.855639 144.920767 
L 244.33209 146.81892 
L 245.284991 149.367869 
L 245.761442 150.506761 
L 246.237893 150.994858 
L 248.620146 151.971051 
L 249.096597 152.13375 
L 250.525949 152.079517 
L 252.431753 152.187983 
L 253.861105 152.079517 
L 254.337556 151.971051 
L 255.290457 152.079517 
L 257.672711 151.482955 
L 258.625612 151.916818 
L 259.102063 151.59142 
L 259.578514 151.482955 
L 260.531415 151.482955 
L 264.343021 150.994858 
L 264.819472 150.832159 
L 265.295923 150.832159 
L 265.772374 150.506761 
L 266.725275 150.506761 
L 267.201726 150.344062 
L 268.154628 150.344062 
L 269.107529 149.910199 
L 269.58398 149.964432 
L 270.060431 149.693267 
L 271.489783 149.584801 
L 271.966234 149.313636 
L 273.395586 149.259403 
L 274.348487 148.934006 
L 278.160093 147.578182 
L 279.112995 147.035852 
L 280.542347 146.276591 
L 281.495249 145.842727 
L 282.924601 145.246165 
L 283.401052 145.137699 
L 283.877503 144.703835 
L 284.830404 144.269972 
L 285.783306 143.564943 
L 286.259756 143.564943 
L 286.736207 143.022614 
L 287.212658 142.751449 
L 287.689109 142.642983 
L 288.165559 142.154886 
L 288.64201 141.829489 
L 289.118461 141.66679 
L 290.547813 140.636364 
L 291.024264 140.148267 
L 291.977165 139.768636 
L 292.453616 139.28054 
L 292.930067 139.063608 
L 293.882968 138.35858 
L 294.359419 138.087415 
L 295.788771 136.623125 
L 296.265222 136.297727 
L 296.741673 135.809631 
L 298.171025 134.779205 
L 300.076828 132.826818 
L 301.02973 132.067557 
L 301.506181 131.416761 
L 301.982631 131.145597 
L 303.411984 129.73554 
L 304.364885 128.867812 
L 304.841336 128.000085 
L 305.317787 127.620455 
L 305.794237 126.861193 
L 307.22359 125.179972 
L 310.558745 120.082074 
L 311.988097 117.478892 
L 313.417449 114.821477 
L 314.370351 113.248722 
L 315.323253 111.187869 
L 315.799703 110.211676 
L 316.276154 108.964318 
L 317.229056 107.011932 
L 319.611309 100.232812 
L 324.852268 84.993352 
L 326.758071 81.08858 
L 330.093226 74.85179 
L 330.569677 73.875597 
L 331.999029 69.808125 
L 332.47548 68.777699 
L 333.904832 64.872926 
L 335.334184 61.293551 
L 336.287086 60.263125 
L 336.763537 60.371591 
L 337.239987 60.751222 
L 337.716438 61.727415 
L 338.192889 63.625568 
L 338.66934 66.337216 
L 339.14579 70.07929 
L 340.098692 80.492017 
L 343.433847 130.386335 
L 344.386749 140.419432 
L 344.863199 144.324205 
L 345.33965 147.035852 
L 345.816101 148.500142 
L 346.769003 150.452528 
L 347.245453 151.049091 
L 347.721904 151.428722 
L 348.198355 151.645653 
L 348.674806 152.13375 
L 349.627707 152.242216 
L 351.53351 152.404915 
L 352.486412 152.242216 
L 353.915764 152.296449 
L 354.392215 152.079517 
L 354.868665 152.242216 
L 355.821567 152.242216 
L 359.633173 152.187983 
L 360.586074 151.808352 
L 361.062525 151.916818 
L 361.538976 151.645653 
L 364.874131 151.21179 
L 365.350582 151.049091 
L 365.827033 151.320256 
L 366.303484 151.374489 
L 368.209287 150.940625 
L 369.162188 150.506761 
L 370.11509 150.452528 
L 372.497343 149.693267 
L 374.403146 149.367869 
L 375.832499 148.771307 
L 376.308949 148.771307 
L 378.214753 147.795114 
L 378.691203 147.740881 
L 380.120556 147.090085 
L 381.073457 146.927386 
L 382.97926 146.168125 
L 385.361514 144.975 
L 386.790866 144.05304 
L 387.267317 143.673409 
L 388.220218 143.402244 
L 389.649571 142.751449 
L 391.078923 141.721023 
L 392.508275 140.799062 
L 392.984726 140.256733 
L 393.937628 139.931335 
L 394.414078 139.497472 
L 397.749234 137.490852 
L 398.702135 136.731591 
L 399.655037 136.243494 
L 400.607938 135.158835 
L 401.56084 134.50804 
L 403.943093 132.12179 
L 404.895995 130.874432 
L 405.372446 130.386335 
L 405.848896 129.681307 
L 406.325347 128.596648 
L 407.278249 127.674687 
L 408.23115 126.318864 
L 409.184052 125.017273 
L 409.660503 124.474943 
L 410.136953 124.149545 
L 410.613404 123.119119 
L 411.089855 122.685256 
L 412.519207 120.624403 
L 412.995658 119.539744 
L 413.869151 118.075455 
L 414.822052 116.285767 
L 415.219095 115.201108 
L 416.171996 113.574119 
L 416.569039 112.597926 
L 417.442532 110.862472 
L 418.316025 108.855852 
L 420.380645 103.541023 
L 423.318758 93.562159 
L 424.033434 90.850511 
L 425.303969 86.294943 
L 425.859828 84.39679 
L 426.733321 81.46821 
L 427.924448 77.997301 
L 428.400899 76.749943 
L 428.639124 76.207614 
L 428.797941 75.339886 
L 429.194984 74.960256 
L 429.433209 74.200994 
L 429.592026 74.146761 
L 429.90966 72.736705 
L 430.862561 68.615 
L 430.94197 68.615 
L 431.339012 67.042244 
L 431.577237 65.849119 
L 431.656646 65.794886 
L 431.656646 65.469489 
L 431.736054 65.469489 
L 431.97428 64.113665 
L 432.053688 63.8425 
L 432.133097 56.629517 
L 432.133097 56.792216 
" clip-path="url(#pfdadbbb6d8)" style="fill: none; stroke: #1f77b4; stroke-width: 1.5; stroke-linecap: square"/>
   </g>
   <g id="line2d_20">
    <path d="M 74.795028 156.526619 
L 94.33745 156.526619 
L 94.798019 156.309687 
L 95.266529 156.418153 
L 95.735039 156.255455 
L 96.203549 155.930057 
L 97.624961 155.713125 
L 98.101411 155.821591 
L 99.054313 155.713125 
L 100.007214 155.821591 
L 100.960116 155.767358 
L 101.436567 156.255455 
L 101.913017 156.255455 
L 102.389468 156.472386 
L 102.865919 156.36392 
L 104.295271 156.526619 
L 104.771722 156.201222 
L 106.677525 156.255455 
L 107.630426 155.930057 
L 109.536229 156.038523 
L 111.918483 155.821591 
L 112.871385 155.821591 
L 113.347836 156.201222 
L 113.824286 156.255455 
L 114.300737 155.875824 
L 114.777188 156.201222 
L 116.20654 155.713125 
L 117.635892 155.767358 
L 118.588794 156.038523 
L 119.541695 156.418153 
L 120.018146 156.36392 
L 120.494597 156.526619 
L 199.545718 156.418153 
L 200.022169 156.36392 
L 200.49862 156.526619 
L 201.927972 156.472386 
L 202.880874 156.201222 
L 203.357324 155.713125 
L 204.786677 155.604659 
L 207.645381 154.736932 
L 208.598283 154.465767 
L 209.074734 154.031903 
L 209.551184 154.086136 
L 210.504086 153.97767 
L 210.980537 154.248835 
L 211.933438 154.248835 
L 212.409889 154.194602 
L 212.88634 154.303068 
L 213.839241 153.97767 
L 215.268593 154.031903 
L 216.221495 154.303068 
L 218.603749 155.550426 
L 220.033101 156.092756 
L 220.509552 156.472386 
L 300.076828 156.526619 
L 301.02973 156.146989 
L 301.982631 155.98429 
L 302.459082 156.255455 
L 303.411984 156.038523 
L 303.888434 155.767358 
L 304.841336 155.604659 
L 305.317787 155.333494 
L 305.794237 154.574233 
L 306.747139 154.465767 
L 307.22359 154.194602 
L 307.70004 154.248835 
L 308.176491 154.086136 
L 310.082294 154.303068 
L 310.558745 154.682699 
L 311.988097 154.953864 
L 312.464548 155.658892 
L 313.417449 155.875824 
L 314.370351 155.98429 
L 314.846802 156.038523 
L 315.323253 155.713125 
L 316.276154 155.550426 
L 317.229056 155.713125 
L 318.181957 155.821591 
L 318.658408 156.201222 
L 319.134859 156.146989 
L 319.611309 156.418153 
L 320.564211 156.526619 
L 398.702135 156.472386 
L 399.178586 155.170795 
L 399.655037 154.899631 
L 400.607938 154.682699 
L 402.03729 154.140369 
L 402.513741 153.97767 
L 402.990192 155.008097 
L 403.466643 155.170795 
L 404.419544 155.116562 
L 405.372446 155.387727 
L 405.848896 155.225028 
L 406.325347 153.97767 
L 409.660503 153.97767 
L 410.136953 155.333494 
L 411.566306 155.333494 
L 412.042756 155.550426 
L 412.519207 155.387727 
L 412.995658 153.97767 
L 414.822052 154.031903 
L 415.219095 154.357301 
L 415.695545 154.248835 
L 416.569039 155.767358 
L 417.045489 155.821591 
L 417.442532 156.038523 
L 417.918982 156.038523 
L 418.316025 156.201222 
L 418.713067 156.201222 
L 419.110109 154.791165 
L 420.380645 155.116562 
L 420.777687 155.333494 
L 421.492363 155.387727 
L 421.889405 156.526619 
L 423.7158 156.526619 
L 424.033434 155.930057 
L 424.351068 155.875824 
L 424.986335 156.038523 
L 425.859828 155.98429 
L 426.177462 156.526619 
L 427.447997 156.526619 
L 427.686223 155.875824 
L 428.400899 156.472386 
L 432.133097 156.526619 
L 432.133097 156.526619 
" clip-path="url(#pfdadbbb6d8)" style="fill: none; stroke: #ff7f0e; stroke-width: 1.5; stroke-linecap: square"/>
   </g>
   <g id="line2d_21">
    <path d="M 74.795028 156.526619 
L 120.494597 156.472386 
L 120.971048 156.36392 
L 121.923949 155.875824 
L 122.4004 155.713125 
L 122.876851 155.713125 
L 123.353301 155.875824 
L 123.829752 155.658892 
L 124.306203 156.36392 
L 124.782654 156.201222 
L 125.259104 156.201222 
L 125.735555 155.98429 
L 126.212006 156.201222 
L 126.688457 155.713125 
L 127.164908 155.550426 
L 127.641358 154.899631 
L 128.117809 154.845398 
L 129.547161 154.248835 
L 130.500063 154.248835 
L 130.976514 154.574233 
L 131.452964 153.97767 
L 132.405866 153.923437 
L 132.882317 153.489574 
L 133.835218 153.326875 
L 134.311669 153.109943 
L 134.78812 153.05571 
L 135.26457 152.784545 
L 135.741021 153.706506 
L 136.217472 153.435341 
L 136.693923 153.489574 
L 138.123275 153.109943 
L 138.599726 152.513381 
L 139.076176 152.242216 
L 141.934881 151.971051 
L 142.411332 151.537187 
L 142.887783 151.699886 
L 143.364233 151.374489 
L 143.840684 151.482955 
L 145.270036 151.103324 
L 145.746487 151.374489 
L 146.222938 151.428722 
L 146.699389 152.242216 
L 147.175839 152.242216 
L 147.65229 152.513381 
L 149.081642 152.296449 
L 149.558093 151.699886 
L 150.034544 151.916818 
L 150.987445 151.374489 
L 151.463896 151.374489 
L 151.940347 152.784545 
L 152.416798 151.049091 
L 152.893248 150.777926 
L 154.838756 150.66946 
L 157.221009 150.506761 
L 157.69746 151.537187 
L 158.173911 151.374489 
L 158.650362 151.374489 
L 159.603263 151.971051 
L 160.079714 151.699886 
L 160.556165 151.21179 
L 161.032616 151.049091 
L 161.509066 151.428722 
L 162.461968 151.428722 
L 163.414869 151.482955 
L 164.844222 151.916818 
L 165.320672 151.754119 
L 165.797123 152.242216 
L 166.750025 152.242216 
L 167.226475 152.567614 
L 167.702926 152.567614 
L 168.655828 153.706506 
L 169.132278 153.97767 
L 170.08518 154.303068 
L 170.561631 154.953864 
L 171.038081 154.682699 
L 171.990983 155.008097 
L 172.943884 155.713125 
L 173.420335 156.36392 
L 173.896786 156.36392 
L 174.373237 156.526619 
L 202.404423 156.526619 
L 202.880874 155.550426 
L 203.357324 156.526619 
L 214.792143 156.526619 
L 215.268593 155.821591 
L 215.745044 156.255455 
L 217.174396 156.092756 
L 217.650847 155.713125 
L 219.55665 155.604659 
L 220.033101 155.44196 
L 220.986003 155.713125 
L 221.462453 156.038523 
L 222.415355 156.038523 
L 222.891806 155.767358 
L 223.368256 155.767358 
L 223.844707 155.116562 
L 224.321158 154.086136 
L 224.797609 154.682699 
L 225.274059 154.086136 
L 225.75051 154.303068 
L 226.226961 154.303068 
L 227.179862 153.97767 
L 229.085665 153.869205 
L 229.562116 153.652273 
L 230.515018 153.489574 
L 230.991468 153.326875 
L 231.467919 153.97767 
L 232.420821 154.031903 
L 232.897271 153.814972 
L 233.373722 153.814972 
L 233.850173 153.652273 
L 234.326624 152.242216 
L 234.803074 152.567614 
L 235.279525 152.296449 
L 235.755976 151.754119 
L 236.232427 152.350682 
L 236.708878 152.187983 
L 237.185328 152.296449 
L 238.614681 152.242216 
L 240.996934 152.13375 
L 241.473385 151.971051 
L 241.949836 152.838778 
L 242.426287 152.893011 
L 242.902737 151.645653 
L 243.379188 152.838778 
L 243.855639 152.567614 
L 244.33209 152.621847 
L 244.80854 151.971051 
L 246.714343 151.103324 
L 247.190794 151.266023 
L 247.667245 150.615227 
L 248.620146 150.506761 
L 249.096597 150.506761 
L 250.525949 149.693267 
L 251.478851 149.476335 
L 251.955302 149.20517 
L 252.431753 149.964432 
L 252.908203 150.181364 
L 253.384654 150.181364 
L 253.861105 149.910199 
L 254.814006 149.7475 
L 255.290457 149.150937 
L 256.243359 148.82554 
L 256.719809 148.82554 
L 257.19626 148.662841 
L 258.625612 148.717074 
L 259.578514 148.771307 
L 260.054965 148.554375 
L 261.484317 148.879773 
L 261.960768 149.259403 
L 262.437218 150.398295 
L 262.913669 150.398295 
L 263.39012 149.639034 
L 263.866571 150.66946 
L 264.343021 150.506761 
L 264.819472 151.374489 
L 265.295923 150.560994 
L 265.772374 150.777926 
L 266.248824 150.777926 
L 266.725275 151.374489 
L 267.201726 151.049091 
L 267.678177 151.916818 
L 268.154628 152.242216 
L 268.631078 152.350682 
L 269.107529 152.838778 
L 269.58398 153.109943 
L 270.060431 153.760739 
L 271.013332 154.140369 
L 271.489783 154.628466 
L 271.966234 154.574233 
L 272.919135 156.309687 
L 273.395586 156.526619 
L 314.846802 156.526619 
L 315.323253 155.713125 
L 315.799703 156.255455 
L 316.276154 156.309687 
L 316.752605 155.604659 
L 317.229056 155.875824 
L 318.181957 155.875824 
L 318.658408 156.201222 
L 319.134859 155.767358 
L 321.040662 155.658892 
L 321.517112 156.201222 
L 321.993563 156.038523 
L 322.470014 156.255455 
L 322.946465 156.255455 
L 323.422915 155.550426 
L 323.899366 156.201222 
L 324.852268 154.791165 
L 325.328718 155.008097 
L 325.805169 154.791165 
L 326.758071 154.791165 
L 327.234521 154.52 
L 327.710972 155.008097 
L 328.187423 153.923437 
L 328.663874 154.736932 
L 329.140324 154.140369 
L 329.616775 154.248835 
L 330.569677 154.031903 
L 331.046128 155.06233 
L 332.951931 154.845398 
L 333.428381 153.489574 
L 333.904832 153.59804 
L 334.857734 153.489574 
L 335.334184 153.760739 
L 335.810635 153.869205 
L 336.287086 152.947244 
L 336.763537 153.489574 
L 337.239987 153.59804 
L 337.716438 153.489574 
L 338.192889 153.59804 
L 339.14579 153.218409 
L 339.622241 154.303068 
L 340.098692 153.97767 
L 341.051593 153.97767 
L 341.528044 154.736932 
L 342.480946 152.459148 
L 343.433847 151.916818 
L 343.910298 151.645653 
L 344.386749 151.59142 
L 346.292552 150.832159 
L 346.769003 150.886392 
L 347.245453 151.157557 
L 348.198355 150.615227 
L 348.674806 151.862585 
L 349.151256 151.59142 
L 349.627707 151.537187 
L 350.104158 151.21179 
L 351.057059 151.21179 
L 351.53351 150.506761 
L 352.009961 152.187983 
L 352.486412 149.855966 
L 353.439313 149.639034 
L 353.915764 153.326875 
L 354.392215 149.639034 
L 354.868665 149.639034 
L 355.345116 149.259403 
L 356.298018 149.150937 
L 356.774468 149.422102 
L 357.250919 150.506761 
L 359.633173 150.506761 
L 360.109624 149.639034 
L 360.586074 149.639034 
L 361.062525 150.127131 
L 361.538976 149.7475 
L 362.015427 150.560994 
L 362.968328 150.506761 
L 363.92123 150.994858 
L 364.397681 151.482955 
L 364.874131 151.645653 
L 365.350582 152.513381 
L 365.827033 153.109943 
L 366.303484 153.272642 
L 366.779934 153.869205 
L 367.256385 153.97767 
L 367.732836 154.248835 
L 368.209287 153.59804 
L 368.685737 153.97767 
L 369.162188 153.97767 
L 370.11509 153.109943 
L 370.59154 154.791165 
L 371.544442 154.52 
L 372.020893 154.791165 
L 372.973794 155.008097 
L 373.450245 156.255455 
L 374.403146 156.309687 
L 374.879597 156.526619 
L 375.832499 156.526619 
L 376.7854 155.604659 
L 377.261851 156.038523 
L 378.214753 156.36392 
L 378.691203 155.98429 
L 379.167654 156.526619 
L 418.713067 156.526619 
L 419.110109 156.309687 
L 419.58656 156.255455 
L 419.983602 156.472386 
L 420.777687 155.767358 
L 421.174729 155.713125 
L 421.492363 156.526619 
L 423.318758 156.526619 
L 423.7158 155.713125 
L 424.033434 155.44196 
L 424.986335 155.333494 
L 425.303969 155.06233 
L 425.621603 155.06233 
L 425.859828 156.526619 
L 427.209772 156.526619 
L 427.447997 154.899631 
L 427.686223 156.526619 
L 427.924448 154.194602 
L 428.162674 154.574233 
L 428.400899 154.303068 
L 428.639124 154.52 
L 428.797941 154.031903 
L 429.036167 156.526619 
L 429.750843 156.526619 
L 429.90966 156.092756 
L 430.068477 153.97767 
L 430.227294 153.869205 
L 430.38611 152.893011 
L 430.465519 153.869205 
L 430.624336 153.923437 
L 430.783153 153.814972 
L 430.862561 156.36392 
L 430.94197 155.496193 
L 431.100787 156.309687 
L 431.180195 156.255455 
L 431.259604 156.201222 
L 431.339012 155.98429 
L 431.497829 153.109943 
L 431.577237 153.218409 
L 431.736054 152.947244 
L 431.815463 155.767358 
L 431.894871 155.713125 
L 431.97428 155.713125 
L 431.97428 155.713125 
L 431.97428 152.513381 
L 432.053688 152.784545 
L 432.133097 155.658892 
L 432.133097 151.699886 
L 432.133097 152.242216 
" clip-path="url(#pfdadbbb6d8)" style="fill: none; stroke: #2ca02c; stroke-width: 1.5; stroke-linecap: square"/>
   </g>
   <g id="line2d_22">
    <path d="M 74.795028 82.715568 
L 74.79506 82.444403 
L 74.882219 83.800227 
L 74.90223 82.769801 
L 75.049135 83.691761 
L 75.089157 83.583295 
L 75.291331 84.39679 
L 75.35327 84.288324 
L 75.569737 85.264517 
L 75.741577 86.023778 
L 76.156883 87.379602 
L 76.827091 93.290994 
L 76.982731 93.236761 
L 77.315453 95.297614 
L 77.49174 97.738097 
L 77.675967 98.443125 
L 79.405484 118.292386 
L 80.171775 125.993466 
L 82.530206 143.673409 
L 83.529959 148.391676 
L 84.601973 151.699886 
L 85.721632 153.489574 
L 86.110734 154.086136 
L 86.499835 154.357301 
L 86.896878 154.899631 
L 87.301861 154.953864 
L 87.714785 155.333494 
L 88.127709 155.44196 
L 88.540633 155.713125 
L 90.263796 155.821591 
L 90.700543 156.255455 
L 91.589918 156.201222 
L 92.947802 156.309687 
L 93.408371 156.201222 
L 94.33745 156.309687 
L 94.798019 156.146989 
L 95.266529 156.472386 
L 96.203549 156.038523 
L 96.68 156.201222 
L 97.624961 156.201222 
L 98.101411 155.98429 
L 99.530764 156.092756 
L 102.865919 155.821591 
L 105.248173 155.713125 
L 105.724623 155.550426 
L 106.201074 155.658892 
L 109.536229 155.333494 
L 110.01268 155.008097 
L 110.489131 155.116562 
L 112.394934 154.791165 
L 113.824286 154.791165 
L 114.777188 154.465767 
L 115.253639 154.465767 
L 116.20654 154.031903 
L 117.635892 153.97767 
L 118.588794 153.869205 
L 119.541695 153.59804 
L 120.018146 153.652273 
L 120.494597 153.381108 
L 122.4004 153.05571 
L 127.164908 151.971051 
L 128.117809 151.537187 
L 129.070711 151.266023 
L 130.976514 150.506761 
L 133.835218 149.530568 
L 134.311669 149.20517 
L 134.78812 149.150937 
L 138.599726 147.36125 
L 139.076176 147.035852 
L 139.552627 146.927386 
L 140.505529 146.222358 
L 141.45843 145.842727 
L 141.934881 145.300398 
L 142.887783 144.758068 
L 145.746487 142.697216 
L 146.699389 141.829489 
L 147.175839 141.66679 
L 147.65229 141.178693 
L 148.605192 140.690597 
L 149.081642 140.094034 
L 150.034544 139.389006 
L 150.510995 138.900909 
L 150.987445 138.73821 
L 152.893248 137.165455 
L 153.369699 136.623125 
L 153.84615 136.514659 
L 154.362305 135.809631 
L 154.838756 135.592699 
L 155.315206 134.941903 
L 155.791657 134.779205 
L 157.221009 133.206449 
L 158.650362 131.959091 
L 161.032616 128.867812 
L 161.509066 128.054318 
L 161.985517 127.566222 
L 162.461968 126.644261 
L 163.414869 125.668068 
L 163.89132 124.637642 
L 164.367771 124.203778 
L 165.797123 121.546364 
L 166.273574 120.895568 
L 168.179377 117.316193 
L 169.132278 115.743437 
L 169.608729 114.550312 
L 170.08518 113.682585 
L 171.038081 111.675966 
L 171.990983 109.72358 
L 173.420335 107.174631 
L 173.896786 105.927273 
L 174.849687 104.191818 
L 175.326138 102.94446 
L 176.27904 101.10054 
L 176.755491 99.63625 
L 177.708392 97.575398 
L 178.661294 94.972216 
L 180.090646 91.55554 
L 180.567097 91.55554 
L 181.44059 89.223523 
L 181.91704 88.952358 
L 182.393491 89.657386 
L 182.869942 89.603153 
L 183.822843 91.880937 
L 184.775745 96.924602 
L 185.728646 103.649489 
L 187.634449 121.383665 
L 189.540253 139.172074 
L 190.493154 145.571562 
L 190.969605 148.391676 
L 191.922506 151.916818 
L 192.875408 153.706506 
L 193.351859 154.140369 
L 194.30476 155.170795 
L 195.257662 155.713125 
L 199.069268 156.038523 
L 199.545718 156.038523 
L 200.49862 155.821591 
L 200.975071 155.875824 
L 201.451521 155.713125 
L 202.404423 155.713125 
L 202.880874 155.713125 
L 203.357324 155.550426 
L 203.833775 155.604659 
L 204.310226 155.496193 
L 204.786677 155.170795 
L 206.69248 155.116562 
L 208.121832 154.845398 
L 209.074734 154.845398 
L 209.551184 154.574233 
L 210.027635 154.574233 
L 210.980537 154.357301 
L 212.88634 153.97767 
L 213.839241 153.97767 
L 214.315692 153.814972 
L 214.792143 153.869205 
L 215.268593 153.706506 
L 215.745044 153.869205 
L 216.221495 153.435341 
L 216.697946 153.381108 
L 217.174396 153.489574 
L 218.127298 153.164176 
L 220.986003 152.838778 
L 221.462453 152.567614 
L 221.938904 152.730312 
L 222.415355 152.404915 
L 223.368256 152.242216 
L 223.844707 152.242216 
L 225.274059 151.754119 
L 225.75051 151.754119 
L 226.703412 151.320256 
L 229.085665 150.506761 
L 229.562116 150.506761 
L 230.991468 149.7475 
L 231.94437 149.476335 
L 233.373722 148.771307 
L 233.850173 148.717074 
L 234.803074 148.174744 
L 235.755976 147.632415 
L 236.708878 147.035852 
L 237.185328 147.035852 
L 239.091131 145.842727 
L 240.044033 145.300398 
L 242.426287 143.727642 
L 243.379188 143.185312 
L 243.855639 142.751449 
L 244.80854 142.209119 
L 245.761442 141.558324 
L 246.237893 141.287159 
L 246.714343 140.799062 
L 248.143696 140.039801 
L 248.620146 139.551705 
L 249.573048 138.900909 
L 250.049499 138.412812 
L 250.525949 138.35858 
L 251.0024 137.762017 
L 252.908203 136.243494 
L 253.384654 136.026562 
L 253.861105 135.484233 
L 254.337556 135.213068 
L 255.766908 133.314915 
L 256.243359 133.152216 
L 257.19626 132.230256 
L 258.149162 131.308295 
L 259.102063 129.952472 
L 259.578514 129.410142 
L 260.054965 128.488182 
L 261.484317 126.535795 
L 263.866571 122.847955 
L 265.295923 120.678636 
L 265.772374 119.431278 
L 266.248824 119.051648 
L 266.725275 117.858523 
L 267.201726 117.045028 
L 272.442684 105.384943 
L 273.395586 103.86642 
L 273.872037 102.835994 
L 274.824938 101.534403 
L 275.301389 101.10054 
L 275.77784 99.853182 
L 276.25429 99.148153 
L 277.207192 96.978835 
L 277.683643 96.70767 
L 278.636544 94.104489 
L 280.065896 91.501307 
L 280.542347 89.657386 
L 281.018798 88.301562 
L 281.495249 87.813466 
L 281.971699 87.650767 
L 282.44815 87.108437 
L 282.924601 86.891506 
L 283.877503 85.589915 
L 284.353953 85.047585 
L 284.830404 84.722187 
L 285.306855 84.77642 
L 285.783306 85.31875 
L 286.259756 86.403409 
L 287.212658 91.826705 
L 288.165559 100.341278 
L 291.024264 131.904858 
L 291.977165 139.822869 
L 292.453616 143.402244 
L 293.406518 148.608608 
L 293.882968 150.506761 
L 294.359419 151.862585 
L 295.312321 153.59804 
L 297.218124 155.116562 
L 297.694574 155.170795 
L 298.171025 155.496193 
L 299.123927 155.550426 
L 300.076828 155.496193 
L 301.02973 155.550426 
L 301.506181 155.387727 
L 301.982631 155.44196 
L 302.935533 155.170795 
L 303.411984 155.333494 
L 304.364885 155.008097 
L 305.794237 154.791165 
L 307.70004 154.52 
L 308.176491 154.682699 
L 309.605843 154.303068 
L 310.082294 154.357301 
L 310.558745 154.248835 
L 311.035196 154.357301 
L 312.464548 154.086136 
L 314.846802 153.97767 
L 316.752605 153.489574 
L 317.229056 153.59804 
L 318.181957 153.272642 
L 321.040662 152.947244 
L 321.993563 152.567614 
L 322.470014 152.459148 
L 322.946465 152.513381 
L 323.422915 152.242216 
L 324.375817 152.13375 
L 325.328718 151.916818 
L 325.805169 151.808352 
L 326.28162 151.537187 
L 327.710972 151.266023 
L 331.046128 150.235597 
L 331.522578 150.127131 
L 331.999029 149.801733 
L 333.428381 149.259403 
L 334.381283 148.717074 
L 335.334184 148.391676 
L 335.810635 148.012045 
L 336.287086 147.90358 
L 337.716438 147.035852 
L 338.192889 147.035852 
L 339.622241 146.168125 
L 340.098692 146.059659 
L 341.528044 145.300398 
L 342.004495 145.246165 
L 342.957396 144.703835 
L 343.910298 144.486903 
L 344.386749 144.05304 
L 349.151256 141.232926 
L 350.580609 140.094034 
L 351.057059 140.039801 
L 352.009961 139.063608 
L 352.486412 138.683977 
L 352.962862 138.575511 
L 354.392215 137.056989 
L 357.72737 134.074176 
L 358.203821 133.369148 
L 358.680271 132.989517 
L 359.156722 132.338722 
L 360.109624 131.687926 
L 360.586074 130.711733 
L 361.062525 130.386335 
L 362.015427 128.976278 
L 362.491878 128.000085 
L 362.968328 127.34929 
L 363.444779 126.42733 
L 364.874131 124.474943 
L 365.350582 123.49875 
L 365.827033 122.902187 
L 367.256385 120.407472 
L 367.732836 119.756676 
L 368.685737 117.533125 
L 369.162188 116.502699 
L 369.638639 115.743437 
L 370.11509 114.441847 
L 370.59154 113.899517 
L 371.067991 112.48946 
L 371.544442 111.838665 
L 372.020893 110.699773 
L 372.497343 110.10321 
L 372.973794 110.591307 
L 373.450245 108.801619 
L 373.926696 108.096591 
L 374.403146 107.174631 
L 374.879597 106.740767 
L 376.308949 104.788381 
L 376.7854 103.812187 
L 377.261851 103.48679 
L 377.738302 102.727528 
L 378.691203 100.829375 
L 379.644105 99.365085 
L 380.597006 97.412699 
L 382.97926 93.074062 
L 384.408612 89.765852 
L 384.885063 88.735426 
L 386.314415 86.620341 
L 386.790866 86.294943 
L 387.743768 86.457642 
L 388.220218 87.271136 
L 389.17312 91.501307 
L 390.126021 98.768523 
L 392.031824 118.563551 
L 393.937628 139.877102 
L 394.890529 147.198551 
L 395.36698 150.344062 
L 396.319881 154.736932 
L 396.796332 155.821591 
L 397.272783 156.526619 
L 415.219095 156.472386 
L 415.695545 156.309687 
L 416.171996 156.526619 
L 418.713067 156.472386 
L 419.110109 156.201222 
L 419.58656 156.255455 
L 419.983602 156.092756 
L 420.380645 156.146989 
L 420.777687 155.821591 
L 421.492363 155.713125 
L 421.889405 156.309687 
L 422.286448 155.98429 
L 423.001124 155.821591 
L 423.318758 155.875824 
L 424.668701 155.333494 
L 424.986335 155.06233 
L 425.859828 154.736932 
L 426.177462 155.06233 
L 426.971547 154.303068 
L 427.209772 154.52 
L 427.924448 153.706506 
L 428.162674 153.543807 
L 428.797941 153.869205 
L 429.433209 153.489574 
L 429.592026 153.109943 
L 429.750843 153.109943 
L 430.068477 152.513381 
L 430.38611 152.947244 
L 430.465519 152.459148 
L 430.624336 152.350682 
L 431.100787 152.567614 
L 431.259604 152.242216 
L 431.41842 152.350682 
L 431.656646 152.242216 
L 431.656646 152.242216 
L 431.894871 151.971051 
L 431.894871 152.079517 
L 432.133097 152.567614 
L 432.133097 152.513381 
L 432.133097 152.621847 
L 432.133097 151.266023 
L 432.133097 151.374489 
" clip-path="url(#pfdadbbb6d8)" style="fill: none; stroke: #d62728; stroke-width: 1.5; stroke-linecap: square"/>
   </g>
   <g id="patch_3">
    <path d="M 56.928125 161.67875 
L 56.928125 48.331875 
" style="fill: none; stroke: #000000; stroke-width: 0.8; stroke-linejoin: miter; stroke-linecap: square"/>
   </g>
   <g id="patch_4">
    <path d="M 450 161.67875 
L 450 48.331875 
" style="fill: none; stroke: #000000; stroke-width: 0.8; stroke-linejoin: miter; stroke-linecap: square"/>
   </g>
   <g id="patch_5">
    <path d="M 56.928125 161.67875 
L 450 161.67875 
" style="fill: none; stroke: #000000; stroke-width: 0.8; stroke-linejoin: miter; stroke-linecap: square"/>
   </g>
   <g id="patch_6">
    <path d="M 56.928125 48.331875 
L 450 48.331875 
" style="fill: none; stroke: #000000; stroke-width: 0.8; stroke-linejoin: miter; stroke-linecap: square"/>
   </g>
   <g id="text_6">
    <!-- Reflector Raw Value -->
    <g transform="translate(193.704062 42.331875)scale(0.12 -0.12)">
     <defs>
      <path id="DejaVuSans-52" d="M 2841 2188 
Q 3044 2119 3236 1894 
Q 3428 1669 3622 1275 
L 4263 0 
L 3584 0 
L 2988 1197 
Q 2756 1666 2539 1819 
Q 2322 1972 1947 1972 
L 1259 1972 
L 1259 0 
L 628 0 
L 628 4666 
L 2053 4666 
Q 2853 4666 3247 4331 
Q 3641 3997 3641 3322 
Q 3641 2881 3436 2590 
Q 3231 2300 2841 2188 
z
M 1259 4147 
L 1259 2491 
L 2053 2491 
Q 2509 2491 2742 2702 
Q 2975 2913 2975 3322 
Q 2975 3731 2742 3939 
Q 2509 4147 2053 4147 
L 1259 4147 
z
" transform="scale(0.015625)"/>
      <path id="DejaVuSans-77" d="M 269 3500 
L 844 3500 
L 1563 769 
L 2278 3500 
L 2956 3500 
L 3675 769 
L 4391 3500 
L 4966 3500 
L 4050 0 
L 3372 0 
L 2619 2869 
L 1863 0 
L 1184 0 
L 269 3500 
z
" transform="scale(0.015625)"/>
      <path id="DejaVuSans-56" d="M 1831 0 
L 50 4666 
L 709 4666 
L 2188 738 
L 3669 4666 
L 4325 4666 
L 2547 0 
L 1831 0 
z
" transform="scale(0.015625)"/>
     </defs>
     <use xlink:href="#DejaVuSans-52"/>
     <use xlink:href="#DejaVuSans-65" x="64.982422"/>
     <use xlink:href="#DejaVuSans-66" x="126.505859"/>
     <use xlink:href="#DejaVuSans-6c" x="161.710938"/>
     <use xlink:href="#DejaVuSans-65" x="189.494141"/>
     <use xlink:href="#DejaVuSans-63" x="251.017578"/>
     <use xlink:href="#DejaVuSans-74" x="305.998047"/>
     <use xlink:href="#DejaVuSans-6f" x="345.207031"/>
     <use xlink:href="#DejaVuSans-72" x="406.388672"/>
     <use xlink:href="#DejaVuSans-20" x="447.501953"/>
     <use xlink:href="#DejaVuSans-52" x="479.289062"/>
     <use xlink:href="#DejaVuSans-61" x="546.521484"/>
     <use xlink:href="#DejaVuSans-77" x="607.800781"/>
     <use xlink:href="#DejaVuSans-20" x="689.587891"/>
     <use xlink:href="#DejaVuSans-56" x="721.375"/>
     <use xlink:href="#DejaVuSans-61" x="782.033203"/>
     <use xlink:href="#DejaVuSans-6c" x="843.3125"/>
     <use xlink:href="#DejaVuSans-75" x="871.095703"/>
     <use xlink:href="#DejaVuSans-65" x="934.474609"/>
    </g>
   </g>
   <g id="legend_1">
    <g id="patch_7">
     <path d="M 219.75625 115.044375 
L 287.171875 115.044375 
Q 289.171875 115.044375 289.171875 113.044375 
L 289.171875 55.331875 
Q 289.171875 53.331875 287.171875 53.331875 
L 219.75625 53.331875 
Q 217.75625 53.331875 217.75625 55.331875 
L 217.75625 113.044375 
Q 217.75625 115.044375 219.75625 115.044375 
z
" style="fill: #ffffff; opacity: 0.8; stroke: #cccccc; stroke-linejoin: miter"/>
    </g>
    <g id="line2d_23">
     <path d="M 221.75625 61.430313 
L 231.75625 61.430313 
L 241.75625 61.430313 
" style="fill: none; stroke: #1f77b4; stroke-width: 1.5; stroke-linecap: square"/>
    </g>
    <g id="text_7">
     <!-- L Side -->
     <g transform="translate(249.75625 64.930313)scale(0.1 -0.1)">
      <defs>
       <path id="DejaVuSans-4c" d="M 628 4666 
L 1259 4666 
L 1259 531 
L 3531 531 
L 3531 0 
L 628 0 
L 628 4666 
z
" transform="scale(0.015625)"/>
       <path id="DejaVuSans-53" d="M 3425 4513 
L 3425 3897 
Q 3066 4069 2747 4153 
Q 2428 4238 2131 4238 
Q 1616 4238 1336 4038 
Q 1056 3838 1056 3469 
Q 1056 3159 1242 3001 
Q 1428 2844 1947 2747 
L 2328 2669 
Q 3034 2534 3370 2195 
Q 3706 1856 3706 1288 
Q 3706 609 3251 259 
Q 2797 -91 1919 -91 
Q 1588 -91 1214 -16 
Q 841 59 441 206 
L 441 856 
Q 825 641 1194 531 
Q 1563 422 1919 422 
Q 2459 422 2753 634 
Q 3047 847 3047 1241 
Q 3047 1584 2836 1778 
Q 2625 1972 2144 2069 
L 1759 2144 
Q 1053 2284 737 2584 
Q 422 2884 422 3419 
Q 422 4038 858 4394 
Q 1294 4750 2059 4750 
Q 2388 4750 2728 4690 
Q 3069 4631 3425 4513 
z
" transform="scale(0.015625)"/>
       <path id="DejaVuSans-69" d="M 603 3500 
L 1178 3500 
L 1178 0 
L 603 0 
L 603 3500 
z
M 603 4863 
L 1178 4863 
L 1178 4134 
L 603 4134 
L 603 4863 
z
" transform="scale(0.015625)"/>
       <path id="DejaVuSans-64" d="M 2906 2969 
L 2906 4863 
L 3481 4863 
L 3481 0 
L 2906 0 
L 2906 525 
Q 2725 213 2448 61 
Q 2172 -91 1784 -91 
Q 1150 -91 751 415 
Q 353 922 353 1747 
Q 353 2572 751 3078 
Q 1150 3584 1784 3584 
Q 2172 3584 2448 3432 
Q 2725 3281 2906 2969 
z
M 947 1747 
Q 947 1113 1208 752 
Q 1469 391 1925 391 
Q 2381 391 2643 752 
Q 2906 1113 2906 1747 
Q 2906 2381 2643 2742 
Q 2381 3103 1925 3103 
Q 1469 3103 1208 2742 
Q 947 2381 947 1747 
z
" transform="scale(0.015625)"/>
      </defs>
      <use xlink:href="#DejaVuSans-4c"/>
      <use xlink:href="#DejaVuSans-20" x="55.712891"/>
      <use xlink:href="#DejaVuSans-53" x="87.5"/>
      <use xlink:href="#DejaVuSans-69" x="150.976562"/>
      <use xlink:href="#DejaVuSans-64" x="178.759766"/>
      <use xlink:href="#DejaVuSans-65" x="242.236328"/>
     </g>
    </g>
    <g id="line2d_24">
     <path d="M 221.75625 76.108438 
L 231.75625 76.108438 
L 241.75625 76.108438 
" style="fill: none; stroke: #ff7f0e; stroke-width: 1.5; stroke-linecap: square"/>
    </g>
    <g id="text_8">
     <!-- L Front -->
     <g transform="translate(249.75625 79.608438)scale(0.1 -0.1)">
      <defs>
       <path id="DejaVuSans-46" d="M 628 4666 
L 3309 4666 
L 3309 4134 
L 1259 4134 
L 1259 2759 
L 3109 2759 
L 3109 2228 
L 1259 2228 
L 1259 0 
L 628 0 
L 628 4666 
z
" transform="scale(0.015625)"/>
       <path id="DejaVuSans-6e" d="M 3513 2113 
L 3513 0 
L 2938 0 
L 2938 2094 
Q 2938 2591 2744 2837 
Q 2550 3084 2163 3084 
Q 1697 3084 1428 2787 
Q 1159 2491 1159 1978 
L 1159 0 
L 581 0 
L 581 3500 
L 1159 3500 
L 1159 2956 
Q 1366 3272 1645 3428 
Q 1925 3584 2291 3584 
Q 2894 3584 3203 3211 
Q 3513 2838 3513 2113 
z
" transform="scale(0.015625)"/>
      </defs>
      <use xlink:href="#DejaVuSans-4c"/>
      <use xlink:href="#DejaVuSans-20" x="55.712891"/>
      <use xlink:href="#DejaVuSans-46" x="87.5"/>
      <use xlink:href="#DejaVuSans-72" x="137.769531"/>
      <use xlink:href="#DejaVuSans-6f" x="176.632812"/>
      <use xlink:href="#DejaVuSans-6e" x="237.814453"/>
      <use xlink:href="#DejaVuSans-74" x="301.193359"/>
     </g>
    </g>
    <g id="line2d_25">
     <path d="M 221.75625 90.786563 
L 231.75625 90.786563 
L 241.75625 90.786563 
" style="fill: none; stroke: #2ca02c; stroke-width: 1.5; stroke-linecap: square"/>
    </g>
    <g id="text_9">
     <!-- R Front -->
     <g transform="translate(249.75625 94.286563)scale(0.1 -0.1)">
      <use xlink:href="#DejaVuSans-52"/>
      <use xlink:href="#DejaVuSans-20" x="69.482422"/>
      <use xlink:href="#DejaVuSans-46" x="101.269531"/>
      <use xlink:href="#DejaVuSans-72" x="151.539062"/>
      <use xlink:href="#DejaVuSans-6f" x="190.402344"/>
      <use xlink:href="#DejaVuSans-6e" x="251.583984"/>
      <use xlink:href="#DejaVuSans-74" x="314.962891"/>
     </g>
    </g>
    <g id="line2d_26">
     <path d="M 221.75625 105.464688 
L 231.75625 105.464688 
L 241.75625 105.464688 
" style="fill: none; stroke: #d62728; stroke-width: 1.5; stroke-linecap: square"/>
    </g>
    <g id="text_10">
     <!-- R Side -->
     <g transform="translate(249.75625 108.964688)scale(0.1 -0.1)">
      <use xlink:href="#DejaVuSans-52"/>
      <use xlink:href="#DejaVuSans-20" x="69.482422"/>
      <use xlink:href="#DejaVuSans-53" x="101.269531"/>
      <use xlink:href="#DejaVuSans-69" x="164.746094"/>
      <use xlink:href="#DejaVuSans-64" x="192.529297"/>
      <use xlink:href="#DejaVuSans-65" x="256.005859"/>
     </g>
    </g>
   </g>
  </g>
  <g id="axes_2">
   <g id="patch_8">
    <path d="M 56.928125 304.44375 
L 450 304.44375 
L 450 191.096875 
L 56.928125 191.096875 
z
" style="fill: #ffffff"/>
   </g>
   <g id="matplotlib.axis_3">
    <g id="xtick_6">
     <g id="line2d_27">
      <path d="M 74.795028 304.44375 
L 74.795028 191.096875 
" clip-path="url(#pef685801fb)" style="fill: none; stroke: #b0b0b0; stroke-width: 0.8; stroke-linecap: square"/>
     </g>
     <g id="line2d_28">
      <g>
       <use xlink:href="#m2c058ff0e0" x="74.795028" y="304.44375" style="stroke: #000000; stroke-width: 0.8"/>
      </g>
     </g>
     <g id="text_11">
      <!-- 0 -->
      <g transform="translate(71.613778 319.042187)scale(0.1 -0.1)">
       <use xlink:href="#DejaVuSans-30"/>
      </g>
     </g>
    </g>
    <g id="xtick_7">
     <g id="line2d_29">
      <path d="M 154.203488 304.44375 
L 154.203488 191.096875 
" clip-path="url(#pef685801fb)" style="fill: none; stroke: #b0b0b0; stroke-width: 0.8; stroke-linecap: square"/>
     </g>
     <g id="line2d_30">
      <g>
       <use xlink:href="#m2c058ff0e0" x="154.203488" y="304.44375" style="stroke: #000000; stroke-width: 0.8"/>
      </g>
     </g>
     <g id="text_12">
      <!-- 100 -->
      <g transform="translate(144.659738 319.042187)scale(0.1 -0.1)">
       <use xlink:href="#DejaVuSans-31"/>
       <use xlink:href="#DejaVuSans-30" x="63.623047"/>
       <use xlink:href="#DejaVuSans-30" x="127.246094"/>
      </g>
     </g>
    </g>
    <g id="xtick_8">
     <g id="line2d_31">
      <path d="M 233.611948 304.44375 
L 233.611948 191.096875 
" clip-path="url(#pef685801fb)" style="fill: none; stroke: #b0b0b0; stroke-width: 0.8; stroke-linecap: square"/>
     </g>
     <g id="line2d_32">
      <g>
       <use xlink:href="#m2c058ff0e0" x="233.611948" y="304.44375" style="stroke: #000000; stroke-width: 0.8"/>
      </g>
     </g>
     <g id="text_13">
      <!-- 200 -->
      <g transform="translate(224.068198 319.042187)scale(0.1 -0.1)">
       <defs>
        <path id="DejaVuSans-32" d="M 1228 531 
L 3431 531 
L 3431 0 
L 469 0 
L 469 531 
Q 828 903 1448 1529 
Q 2069 2156 2228 2338 
Q 2531 2678 2651 2914 
Q 2772 3150 2772 3378 
Q 2772 3750 2511 3984 
Q 2250 4219 1831 4219 
Q 1534 4219 1204 4116 
Q 875 4013 500 3803 
L 500 4441 
Q 881 4594 1212 4672 
Q 1544 4750 1819 4750 
Q 2544 4750 2975 4387 
Q 3406 4025 3406 3419 
Q 3406 3131 3298 2873 
Q 3191 2616 2906 2266 
Q 2828 2175 2409 1742 
Q 1991 1309 1228 531 
z
" transform="scale(0.015625)"/>
       </defs>
       <use xlink:href="#DejaVuSans-32"/>
       <use xlink:href="#DejaVuSans-30" x="63.623047"/>
       <use xlink:href="#DejaVuSans-30" x="127.246094"/>
      </g>
     </g>
    </g>
    <g id="xtick_9">
     <g id="line2d_33">
      <path d="M 313.020407 304.44375 
L 313.020407 191.096875 
" clip-path="url(#pef685801fb)" style="fill: none; stroke: #b0b0b0; stroke-width: 0.8; stroke-linecap: square"/>
     </g>
     <g id="line2d_34">
      <g>
       <use xlink:href="#m2c058ff0e0" x="313.020407" y="304.44375" style="stroke: #000000; stroke-width: 0.8"/>
      </g>
     </g>
     <g id="text_14">
      <!-- 300 -->
      <g transform="translate(303.476657 319.042187)scale(0.1 -0.1)">
       <defs>
        <path id="DejaVuSans-33" d="M 2597 2516 
Q 3050 2419 3304 2112 
Q 3559 1806 3559 1356 
Q 3559 666 3084 287 
Q 2609 -91 1734 -91 
Q 1441 -91 1130 -33 
Q 819 25 488 141 
L 488 750 
Q 750 597 1062 519 
Q 1375 441 1716 441 
Q 2309 441 2620 675 
Q 2931 909 2931 1356 
Q 2931 1769 2642 2001 
Q 2353 2234 1838 2234 
L 1294 2234 
L 1294 2753 
L 1863 2753 
Q 2328 2753 2575 2939 
Q 2822 3125 2822 3475 
Q 2822 3834 2567 4026 
Q 2313 4219 1838 4219 
Q 1578 4219 1281 4162 
Q 984 4106 628 3988 
L 628 4550 
Q 988 4650 1302 4700 
Q 1616 4750 1894 4750 
Q 2613 4750 3031 4423 
Q 3450 4097 3450 3541 
Q 3450 3153 3228 2886 
Q 3006 2619 2597 2516 
z
" transform="scale(0.015625)"/>
       </defs>
       <use xlink:href="#DejaVuSans-33"/>
       <use xlink:href="#DejaVuSans-30" x="63.623047"/>
       <use xlink:href="#DejaVuSans-30" x="127.246094"/>
      </g>
     </g>
    </g>
    <g id="xtick_10">
     <g id="line2d_35">
      <path d="M 392.428867 304.44375 
L 392.428867 191.096875 
" clip-path="url(#pef685801fb)" style="fill: none; stroke: #b0b0b0; stroke-width: 0.8; stroke-linecap: square"/>
     </g>
     <g id="line2d_36">
      <g>
       <use xlink:href="#m2c058ff0e0" x="392.428867" y="304.44375" style="stroke: #000000; stroke-width: 0.8"/>
      </g>
     </g>
     <g id="text_15">
      <!-- 400 -->
      <g transform="translate(382.885117 319.042187)scale(0.1 -0.1)">
       <defs>
        <path id="DejaVuSans-34" d="M 2419 4116 
L 825 1625 
L 2419 1625 
L 2419 4116 
z
M 2253 4666 
L 3047 4666 
L 3047 1625 
L 3713 1625 
L 3713 1100 
L 3047 1100 
L 3047 0 
L 2419 0 
L 2419 1100 
L 313 1100 
L 313 1709 
L 2253 4666 
z
" transform="scale(0.015625)"/>
       </defs>
       <use xlink:href="#DejaVuSans-34"/>
       <use xlink:href="#DejaVuSans-30" x="63.623047"/>
       <use xlink:href="#DejaVuSans-30" x="127.246094"/>
      </g>
     </g>
    </g>
    <g id="text_16">
     <!-- Translational Position [mm] -->
     <g transform="translate(185.486719 332.720312)scale(0.1 -0.1)">
      <defs>
       <path id="DejaVuSans-54" d="M -19 4666 
L 3928 4666 
L 3928 4134 
L 2272 4134 
L 2272 0 
L 1638 0 
L 1638 4134 
L -19 4134 
L -19 4666 
z
" transform="scale(0.015625)"/>
       <path id="DejaVuSans-73" d="M 2834 3397 
L 2834 2853 
Q 2591 2978 2328 3040 
Q 2066 3103 1784 3103 
Q 1356 3103 1142 2972 
Q 928 2841 928 2578 
Q 928 2378 1081 2264 
Q 1234 2150 1697 2047 
L 1894 2003 
Q 2506 1872 2764 1633 
Q 3022 1394 3022 966 
Q 3022 478 2636 193 
Q 2250 -91 1575 -91 
Q 1294 -91 989 -36 
Q 684 19 347 128 
L 347 722 
Q 666 556 975 473 
Q 1284 391 1588 391 
Q 1994 391 2212 530 
Q 2431 669 2431 922 
Q 2431 1156 2273 1281 
Q 2116 1406 1581 1522 
L 1381 1569 
Q 847 1681 609 1914 
Q 372 2147 372 2553 
Q 372 3047 722 3315 
Q 1072 3584 1716 3584 
Q 2034 3584 2315 3537 
Q 2597 3491 2834 3397 
z
" transform="scale(0.015625)"/>
       <path id="DejaVuSans-50" d="M 1259 4147 
L 1259 2394 
L 2053 2394 
Q 2494 2394 2734 2622 
Q 2975 2850 2975 3272 
Q 2975 3691 2734 3919 
Q 2494 4147 2053 4147 
L 1259 4147 
z
M 628 4666 
L 2053 4666 
Q 2838 4666 3239 4311 
Q 3641 3956 3641 3272 
Q 3641 2581 3239 2228 
Q 2838 1875 2053 1875 
L 1259 1875 
L 1259 0 
L 628 0 
L 628 4666 
z
" transform="scale(0.015625)"/>
       <path id="DejaVuSans-5b" d="M 550 4863 
L 1875 4863 
L 1875 4416 
L 1125 4416 
L 1125 -397 
L 1875 -397 
L 1875 -844 
L 550 -844 
L 550 4863 
z
" transform="scale(0.015625)"/>
       <path id="DejaVuSans-6d" d="M 3328 2828 
Q 3544 3216 3844 3400 
Q 4144 3584 4550 3584 
Q 5097 3584 5394 3201 
Q 5691 2819 5691 2113 
L 5691 0 
L 5113 0 
L 5113 2094 
Q 5113 2597 4934 2840 
Q 4756 3084 4391 3084 
Q 3944 3084 3684 2787 
Q 3425 2491 3425 1978 
L 3425 0 
L 2847 0 
L 2847 2094 
Q 2847 2600 2669 2842 
Q 2491 3084 2119 3084 
Q 1678 3084 1418 2786 
Q 1159 2488 1159 1978 
L 1159 0 
L 581 0 
L 581 3500 
L 1159 3500 
L 1159 2956 
Q 1356 3278 1631 3431 
Q 1906 3584 2284 3584 
Q 2666 3584 2933 3390 
Q 3200 3197 3328 2828 
z
" transform="scale(0.015625)"/>
       <path id="DejaVuSans-5d" d="M 1947 4863 
L 1947 -844 
L 622 -844 
L 622 -397 
L 1369 -397 
L 1369 4416 
L 622 4416 
L 622 4863 
L 1947 4863 
z
" transform="scale(0.015625)"/>
      </defs>
      <use xlink:href="#DejaVuSans-54"/>
      <use xlink:href="#DejaVuSans-72" x="46.333984"/>
      <use xlink:href="#DejaVuSans-61" x="87.447266"/>
      <use xlink:href="#DejaVuSans-6e" x="148.726562"/>
      <use xlink:href="#DejaVuSans-73" x="212.105469"/>
      <use xlink:href="#DejaVuSans-6c" x="264.205078"/>
      <use xlink:href="#DejaVuSans-61" x="291.988281"/>
      <use xlink:href="#DejaVuSans-74" x="353.267578"/>
      <use xlink:href="#DejaVuSans-69" x="392.476562"/>
      <use xlink:href="#DejaVuSans-6f" x="420.259766"/>
      <use xlink:href="#DejaVuSans-6e" x="481.441406"/>
      <use xlink:href="#DejaVuSans-61" x="544.820312"/>
      <use xlink:href="#DejaVuSans-6c" x="606.099609"/>
      <use xlink:href="#DejaVuSans-20" x="633.882812"/>
      <use xlink:href="#DejaVuSans-50" x="665.669922"/>
      <use xlink:href="#DejaVuSans-6f" x="722.347656"/>
      <use xlink:href="#DejaVuSans-73" x="783.529297"/>
      <use xlink:href="#DejaVuSans-69" x="835.628906"/>
      <use xlink:href="#DejaVuSans-74" x="863.412109"/>
      <use xlink:href="#DejaVuSans-69" x="902.621094"/>
      <use xlink:href="#DejaVuSans-6f" x="930.404297"/>
      <use xlink:href="#DejaVuSans-6e" x="991.585938"/>
      <use xlink:href="#DejaVuSans-20" x="1054.964844"/>
      <use xlink:href="#DejaVuSans-5b" x="1086.751953"/>
      <use xlink:href="#DejaVuSans-6d" x="1125.765625"/>
      <use xlink:href="#DejaVuSans-6d" x="1223.177734"/>
      <use xlink:href="#DejaVuSans-5d" x="1320.589844"/>
     </g>
    </g>
   </g>
   <g id="matplotlib.axis_4">
    <g id="ytick_5">
     <g id="line2d_37">
      <path d="M 56.928125 280.615146 
L 450 280.615146 
" clip-path="url(#pef685801fb)" style="fill: none; stroke: #b0b0b0; stroke-width: 0.8; stroke-linecap: square"/>
     </g>
     <g id="line2d_38">
      <g>
       <use xlink:href="#m078d7ad3e7" x="56.928125" y="280.615146" style="stroke: #000000; stroke-width: 0.8"/>
      </g>
     </g>
     <g id="text_17">
      <!-- 150 -->
      <g transform="translate(30.840625 284.414364)scale(0.1 -0.1)">
       <use xlink:href="#DejaVuSans-31"/>
       <use xlink:href="#DejaVuSans-35" x="63.623047"/>
       <use xlink:href="#DejaVuSans-30" x="127.246094"/>
      </g>
     </g>
    </g>
    <g id="ytick_6">
     <g id="line2d_39">
      <path d="M 56.928125 248.414329 
L 450 248.414329 
" clip-path="url(#pef685801fb)" style="fill: none; stroke: #b0b0b0; stroke-width: 0.8; stroke-linecap: square"/>
     </g>
     <g id="line2d_40">
      <g>
       <use xlink:href="#m078d7ad3e7" x="56.928125" y="248.414329" style="stroke: #000000; stroke-width: 0.8"/>
      </g>
     </g>
     <g id="text_18">
      <!-- 200 -->
      <g transform="translate(30.840625 252.213548)scale(0.1 -0.1)">
       <use xlink:href="#DejaVuSans-32"/>
       <use xlink:href="#DejaVuSans-30" x="63.623047"/>
       <use xlink:href="#DejaVuSans-30" x="127.246094"/>
      </g>
     </g>
    </g>
    <g id="ytick_7">
     <g id="line2d_41">
      <path d="M 56.928125 216.213512 
L 450 216.213512 
" clip-path="url(#pef685801fb)" style="fill: none; stroke: #b0b0b0; stroke-width: 0.8; stroke-linecap: square"/>
     </g>
     <g id="line2d_42">
      <g>
       <use xlink:href="#m078d7ad3e7" x="56.928125" y="216.213512" style="stroke: #000000; stroke-width: 0.8"/>
      </g>
     </g>
     <g id="text_19">
      <!-- 250 -->
      <g transform="translate(30.840625 220.012731)scale(0.1 -0.1)">
       <use xlink:href="#DejaVuSans-32"/>
       <use xlink:href="#DejaVuSans-35" x="63.623047"/>
       <use xlink:href="#DejaVuSans-30" x="127.246094"/>
      </g>
     </g>
    </g>
    <g id="text_20">
     <!-- wall distance [mm] -->
     <g transform="translate(24.760938 295.708594)rotate(-90)scale(0.1 -0.1)">
      <use xlink:href="#DejaVuSans-77"/>
      <use xlink:href="#DejaVuSans-61" x="81.787109"/>
      <use xlink:href="#DejaVuSans-6c" x="143.066406"/>
      <use xlink:href="#DejaVuSans-6c" x="170.849609"/>
      <use xlink:href="#DejaVuSans-20" x="198.632812"/>
      <use xlink:href="#DejaVuSans-64" x="230.419922"/>
      <use xlink:href="#DejaVuSans-69" x="293.896484"/>
      <use xlink:href="#DejaVuSans-73" x="321.679688"/>
      <use xlink:href="#DejaVuSans-74" x="373.779297"/>
      <use xlink:href="#DejaVuSans-61" x="412.988281"/>
      <use xlink:href="#DejaVuSans-6e" x="474.267578"/>
      <use xlink:href="#DejaVuSans-63" x="537.646484"/>
      <use xlink:href="#DejaVuSans-65" x="592.626953"/>
      <use xlink:href="#DejaVuSans-20" x="654.150391"/>
      <use xlink:href="#DejaVuSans-5b" x="685.9375"/>
      <use xlink:href="#DejaVuSans-6d" x="724.951172"/>
      <use xlink:href="#DejaVuSans-6d" x="822.363281"/>
      <use xlink:href="#DejaVuSans-5d" x="919.775391"/>
     </g>
    </g>
   </g>
   <g id="line2d_43">
    <path d="M 74.795028 196.249006 
L 365.827033 196.249006 
L 366.303484 245.194247 
L 373.926696 245.194247 
L 374.403146 247.770312 
L 381.549908 247.770312 
L 382.026359 257.430558 
L 389.17312 257.430558 
L 389.649571 261.294656 
L 396.319881 261.294656 
L 396.796332 265.80277 
L 403.466643 265.80277 
L 403.943093 272.242933 
L 410.136953 272.242933 
L 410.613404 277.395064 
L 416.569039 277.395064 
L 417.045489 281.259162 
L 421.889405 281.259162 
L 422.286448 287.055309 
L 426.177462 287.055309 
L 426.415687 290.919407 
L 429.194984 290.919407 
L 429.433209 293.495472 
L 430.94197 293.495472 
L 431.180195 294.783505 
L 431.815463 294.783505 
L 431.815463 294.783505 
L 431.97428 296.071538 
L 431.97428 296.071538 
L 432.133097 296.071538 
L 432.133097 296.071538 
L 432.133097 299.291619 
L 432.133097 297.35957 
" clip-path="url(#pef685801fb)" style="fill: none; stroke: #1f77b4; stroke-width: 1.5; stroke-linecap: square"/>
   </g>
   <g id="patch_9">
    <path d="M 56.928125 304.44375 
L 56.928125 191.096875 
" style="fill: none; stroke: #000000; stroke-width: 0.8; stroke-linejoin: miter; stroke-linecap: square"/>
   </g>
   <g id="patch_10">
    <path d="M 450 304.44375 
L 450 191.096875 
" style="fill: none; stroke: #000000; stroke-width: 0.8; stroke-linejoin: miter; stroke-linecap: square"/>
   </g>
   <g id="patch_11">
    <path d="M 56.928125 304.44375 
L 450 304.44375 
" style="fill: none; stroke: #000000; stroke-width: 0.8; stroke-linejoin: miter; stroke-linecap: square"/>
   </g>
   <g id="patch_12">
    <path d="M 56.928125 191.096875 
L 450 191.096875 
" style="fill: none; stroke: #000000; stroke-width: 0.8; stroke-linejoin: miter; stroke-linecap: square"/>
   </g>
   <g id="text_21">
    <!-- Front Wall Distance [mm] -->
    <g transform="translate(177.40375 185.096875)scale(0.12 -0.12)">
     <defs>
      <path id="DejaVuSans-57" d="M 213 4666 
L 850 4666 
L 1831 722 
L 2809 4666 
L 3519 4666 
L 4500 722 
L 5478 4666 
L 6119 4666 
L 4947 0 
L 4153 0 
L 3169 4050 
L 2175 0 
L 1381 0 
L 213 4666 
z
" transform="scale(0.015625)"/>
      <path id="DejaVuSans-44" d="M 1259 4147 
L 1259 519 
L 2022 519 
Q 2988 519 3436 956 
Q 3884 1394 3884 2338 
Q 3884 3275 3436 3711 
Q 2988 4147 2022 4147 
L 1259 4147 
z
M 628 4666 
L 1925 4666 
Q 3281 4666 3915 4102 
Q 4550 3538 4550 2338 
Q 4550 1131 3912 565 
Q 3275 0 1925 0 
L 628 0 
L 628 4666 
z
" transform="scale(0.015625)"/>
     </defs>
     <use xlink:href="#DejaVuSans-46"/>
     <use xlink:href="#DejaVuSans-72" x="50.269531"/>
     <use xlink:href="#DejaVuSans-6f" x="89.132812"/>
     <use xlink:href="#DejaVuSans-6e" x="150.314453"/>
     <use xlink:href="#DejaVuSans-74" x="213.693359"/>
     <use xlink:href="#DejaVuSans-20" x="252.902344"/>
     <use xlink:href="#DejaVuSans-57" x="284.689453"/>
     <use xlink:href="#DejaVuSans-61" x="377.191406"/>
     <use xlink:href="#DejaVuSans-6c" x="438.470703"/>
     <use xlink:href="#DejaVuSans-6c" x="466.253906"/>
     <use xlink:href="#DejaVuSans-20" x="494.037109"/>
     <use xlink:href="#DejaVuSans-44" x="525.824219"/>
     <use xlink:href="#DejaVuSans-69" x="602.826172"/>
     <use xlink:href="#DejaVuSans-73" x="630.609375"/>
     <use xlink:href="#DejaVuSans-74" x="682.708984"/>
     <use xlink:href="#DejaVuSans-61" x="721.917969"/>
     <use xlink:href="#DejaVuSans-6e" x="783.197266"/>
     <use xlink:href="#DejaVuSans-63" x="846.576172"/>
     <use xlink:href="#DejaVuSans-65" x="901.556641"/>
     <use xlink:href="#DejaVuSans-20" x="963.080078"/>
     <use xlink:href="#DejaVuSans-5b" x="994.867188"/>
     <use xlink:href="#DejaVuSans-6d" x="1033.880859"/>
     <use xlink:href="#DejaVuSans-6d" x="1131.292969"/>
     <use xlink:href="#DejaVuSans-5d" x="1228.705078"/>
    </g>
   </g>
   <g id="legend_2">
    <g id="patch_13">
     <path d="M 394.721875 213.775 
L 443 213.775 
Q 445 213.775 445 211.775 
L 445 198.096875 
Q 445 196.096875 443 196.096875 
L 394.721875 196.096875 
Q 392.721875 196.096875 392.721875 198.096875 
L 392.721875 211.775 
Q 392.721875 213.775 394.721875 213.775 
z
" style="fill: #ffffff; opacity: 0.8; stroke: #cccccc; stroke-linejoin: miter"/>
    </g>
    <g id="line2d_44">
     <path d="M 396.721875 204.195312 
L 406.721875 204.195312 
L 416.721875 204.195312 
" style="fill: none; stroke: #1f77b4; stroke-width: 1.5; stroke-linecap: square"/>
    </g>
    <g id="text_22">
     <!-- ToF -->
     <g transform="translate(424.721875 207.695312)scale(0.1 -0.1)">
      <use xlink:href="#DejaVuSans-54"/>
      <use xlink:href="#DejaVuSans-6f" x="44.083984"/>
      <use xlink:href="#DejaVuSans-46" x="105.265625"/>
     </g>
    </g>
   </g>
  </g>
  <g id="text_23">
   <!-- Reflector Raw Value and ToF Distance -->
   <g transform="translate(117.629063 16.030125)scale(0.12 -0.12)">
    <use xlink:href="#DejaVuSans-52"/>
    <use xlink:href="#DejaVuSans-65" x="64.982422"/>
    <use xlink:href="#DejaVuSans-66" x="126.505859"/>
    <use xlink:href="#DejaVuSans-6c" x="161.710938"/>
    <use xlink:href="#DejaVuSans-65" x="189.494141"/>
    <use xlink:href="#DejaVuSans-63" x="251.017578"/>
    <use xlink:href="#DejaVuSans-74" x="305.998047"/>
    <use xlink:href="#DejaVuSans-6f" x="345.207031"/>
    <use xlink:href="#DejaVuSans-72" x="406.388672"/>
    <use xlink:href="#DejaVuSans-20" x="447.501953"/>
    <use xlink:href="#DejaVuSans-52" x="479.289062"/>
    <use xlink:href="#DejaVuSans-61" x="546.521484"/>
    <use xlink:href="#DejaVuSans-77" x="607.800781"/>
    <use xlink:href="#DejaVuSans-20" x="689.587891"/>
    <use xlink:href="#DejaVuSans-56" x="721.375"/>
    <use xlink:href="#DejaVuSans-61" x="782.033203"/>
    <use xlink:href="#DejaVuSans-6c" x="843.3125"/>
    <use xlink:href="#DejaVuSans-75" x="871.095703"/>
    <use xlink:href="#DejaVuSans-65" x="934.474609"/>
    <use xlink:href="#DejaVuSans-20" x="995.998047"/>
    <use xlink:href="#DejaVuSans-61" x="1027.785156"/>
    <use xlink:href="#DejaVuSans-6e" x="1089.064453"/>
    <use xlink:href="#DejaVuSans-64" x="1152.443359"/>
    <use xlink:href="#DejaVuSans-20" x="1215.919922"/>
    <use xlink:href="#DejaVuSans-54" x="1247.707031"/>
    <use xlink:href="#DejaVuSans-6f" x="1291.791016"/>
    <use xlink:href="#DejaVuSans-46" x="1352.972656"/>
    <use xlink:href="#DejaVuSans-20" x="1410.492188"/>
    <use xlink:href="#DejaVuSans-44" x="1442.279297"/>
    <use xlink:href="#DejaVuSans-69" x="1519.28125"/>
    <use xlink:href="#DejaVuSans-73" x="1547.064453"/>
    <use xlink:href="#DejaVuSans-74" x="1599.164062"/>
    <use xlink:href="#DejaVuSans-61" x="1638.373047"/>
    <use xlink:href="#DejaVuSans-6e" x="1699.652344"/>
    <use xlink:href="#DejaVuSans-63" x="1763.03125"/>
    <use xlink:href="#DejaVuSans-65" x="1818.011719"/>
   </g>
  </g>
 </g>
 <defs>
  <clipPath id="pfdadbbb6d8">
   <rect x="56.928125" y="48.331875" width="393.071875" height="113.346875"/>
  </clipPath>
  <clipPath id="pef685801fb">
   <rect x="56.928125" y="191.096875" width="393.071875" height="113.346875"/>
  </clipPath>
 </defs>
</svg>
