<?xml version="1.0" encoding="utf-8" standalone="no"?>
<!DOCTYPE svg PUBLIC "-//W3C//DTD SVG 1.1//EN"
  "http://www.w3.org/Graphics/SVG/1.1/DTD/svg11.dtd">
<svg xmlns:xlink="http://www.w3.org/1999/xlink" width="576pt" height="720pt" viewBox="0 0 576 720" xmlns="http://www.w3.org/2000/svg" version="1.1">
 <metadata>
  <rdf:RDF xmlns:dc="http://purl.org/dc/elements/1.1/" xmlns:cc="http://creativecommons.org/ns#" xmlns:rdf="http://www.w3.org/1999/02/22-rdf-syntax-ns#">
   <cc:Work>
    <dc:type rdf:resource="http://purl.org/dc/dcmitype/StillImage"/>
    <dc:date>2022-01-09T22:59:54.546289</dc:date>
    <dc:format>image/svg+xml</dc:format>
    <dc:creator>
     <cc:Agent>
      <dc:title>Matplotlib v3.5.1, https://matplotlib.org/</dc:title>
     </cc:Agent>
    </dc:creator>
   </cc:Work>
  </rdf:RDF>
 </metadata>
 <defs>
  <style type="text/css">*{stroke-linejoin: round; stroke-linecap: butt}</style>
 </defs>
 <g id="figure_1">
  <g id="patch_1">
   <path d="M 0 720 
L 576 720 
L 576 0 
L 0 0 
z
" style="fill: #ffffff"/>
  </g>
  <g id="axes_1">
   <g id="patch_2">
    <path d="M 56.909624 323.44 
L 565.2 323.44 
L 565.2 25.44 
L 56.909624 25.44 
z
" style="fill: #ffffff"/>
   </g>
   <g id="matplotlib.axis_1">
    <g id="xtick_1">
     <g id="line2d_1">
      <path d="M 80.013732 323.44 
L 80.013732 25.44 
" clip-path="url(#ped2413219b)" style="fill: none; stroke: #b0b0b0; stroke-width: 0.8; stroke-linecap: square"/>
     </g>
     <g id="line2d_2">
      <defs>
       <path id="me77e506bf8" d="M 0 0 
L 0 3.5 
" style="stroke: #000000; stroke-width: 0.8"/>
      </defs>
      <g>
       <use xlink:href="#me77e506bf8" x="80.013732" y="323.44" style="stroke: #000000; stroke-width: 0.8"/>
      </g>
     </g>
     <g id="text_1">
      <!-- 0.0 -->
      <g transform="translate(72.06217 338.038438)scale(0.1 -0.1)">
       <defs>
        <path id="DejaVuSans-30" d="M 2034 4250 
Q 1547 4250 1301 3770 
Q 1056 3291 1056 2328 
Q 1056 1369 1301 889 
Q 1547 409 2034 409 
Q 2525 409 2770 889 
Q 3016 1369 3016 2328 
Q 3016 3291 2770 3770 
Q 2525 4250 2034 4250 
z
M 2034 4750 
Q 2819 4750 3233 4129 
Q 3647 3509 3647 2328 
Q 3647 1150 3233 529 
Q 2819 -91 2034 -91 
Q 1250 -91 836 529 
Q 422 1150 422 2328 
Q 422 3509 836 4129 
Q 1250 4750 2034 4750 
z
" transform="scale(0.015625)"/>
        <path id="DejaVuSans-2e" d="M 684 794 
L 1344 794 
L 1344 0 
L 684 0 
L 684 794 
z
" transform="scale(0.015625)"/>
       </defs>
       <use xlink:href="#DejaVuSans-30"/>
       <use xlink:href="#DejaVuSans-2e" x="63.623047"/>
       <use xlink:href="#DejaVuSans-30" x="95.410156"/>
      </g>
     </g>
    </g>
    <g id="xtick_2">
     <g id="line2d_3">
      <path d="M 150.668497 323.44 
L 150.668497 25.44 
" clip-path="url(#ped2413219b)" style="fill: none; stroke: #b0b0b0; stroke-width: 0.8; stroke-linecap: square"/>
     </g>
     <g id="line2d_4">
      <g>
       <use xlink:href="#me77e506bf8" x="150.668497" y="323.44" style="stroke: #000000; stroke-width: 0.8"/>
      </g>
     </g>
     <g id="text_2">
      <!-- 0.1 -->
      <g transform="translate(142.716934 338.038438)scale(0.1 -0.1)">
       <defs>
        <path id="DejaVuSans-31" d="M 794 531 
L 1825 531 
L 1825 4091 
L 703 3866 
L 703 4441 
L 1819 4666 
L 2450 4666 
L 2450 531 
L 3481 531 
L 3481 0 
L 794 0 
L 794 531 
z
" transform="scale(0.015625)"/>
       </defs>
       <use xlink:href="#DejaVuSans-30"/>
       <use xlink:href="#DejaVuSans-2e" x="63.623047"/>
       <use xlink:href="#DejaVuSans-31" x="95.410156"/>
      </g>
     </g>
    </g>
    <g id="xtick_3">
     <g id="line2d_5">
      <path d="M 221.323261 323.44 
L 221.323261 25.44 
" clip-path="url(#ped2413219b)" style="fill: none; stroke: #b0b0b0; stroke-width: 0.8; stroke-linecap: square"/>
     </g>
     <g id="line2d_6">
      <g>
       <use xlink:href="#me77e506bf8" x="221.323261" y="323.44" style="stroke: #000000; stroke-width: 0.8"/>
      </g>
     </g>
     <g id="text_3">
      <!-- 0.2 -->
      <g transform="translate(213.371699 338.038438)scale(0.1 -0.1)">
       <defs>
        <path id="DejaVuSans-32" d="M 1228 531 
L 3431 531 
L 3431 0 
L 469 0 
L 469 531 
Q 828 903 1448 1529 
Q 2069 2156 2228 2338 
Q 2531 2678 2651 2914 
Q 2772 3150 2772 3378 
Q 2772 3750 2511 3984 
Q 2250 4219 1831 4219 
Q 1534 4219 1204 4116 
Q 875 4013 500 3803 
L 500 4441 
Q 881 4594 1212 4672 
Q 1544 4750 1819 4750 
Q 2544 4750 2975 4387 
Q 3406 4025 3406 3419 
Q 3406 3131 3298 2873 
Q 3191 2616 2906 2266 
Q 2828 2175 2409 1742 
Q 1991 1309 1228 531 
z
" transform="scale(0.015625)"/>
       </defs>
       <use xlink:href="#DejaVuSans-30"/>
       <use xlink:href="#DejaVuSans-2e" x="63.623047"/>
       <use xlink:href="#DejaVuSans-32" x="95.410156"/>
      </g>
     </g>
    </g>
    <g id="xtick_4">
     <g id="line2d_7">
      <path d="M 291.978026 323.44 
L 291.978026 25.44 
" clip-path="url(#ped2413219b)" style="fill: none; stroke: #b0b0b0; stroke-width: 0.8; stroke-linecap: square"/>
     </g>
     <g id="line2d_8">
      <g>
       <use xlink:href="#me77e506bf8" x="291.978026" y="323.44" style="stroke: #000000; stroke-width: 0.8"/>
      </g>
     </g>
     <g id="text_4">
      <!-- 0.3 -->
      <g transform="translate(284.026463 338.038438)scale(0.1 -0.1)">
       <defs>
        <path id="DejaVuSans-33" d="M 2597 2516 
Q 3050 2419 3304 2112 
Q 3559 1806 3559 1356 
Q 3559 666 3084 287 
Q 2609 -91 1734 -91 
Q 1441 -91 1130 -33 
Q 819 25 488 141 
L 488 750 
Q 750 597 1062 519 
Q 1375 441 1716 441 
Q 2309 441 2620 675 
Q 2931 909 2931 1356 
Q 2931 1769 2642 2001 
Q 2353 2234 1838 2234 
L 1294 2234 
L 1294 2753 
L 1863 2753 
Q 2328 2753 2575 2939 
Q 2822 3125 2822 3475 
Q 2822 3834 2567 4026 
Q 2313 4219 1838 4219 
Q 1578 4219 1281 4162 
Q 984 4106 628 3988 
L 628 4550 
Q 988 4650 1302 4700 
Q 1616 4750 1894 4750 
Q 2613 4750 3031 4423 
Q 3450 4097 3450 3541 
Q 3450 3153 3228 2886 
Q 3006 2619 2597 2516 
z
" transform="scale(0.015625)"/>
       </defs>
       <use xlink:href="#DejaVuSans-30"/>
       <use xlink:href="#DejaVuSans-2e" x="63.623047"/>
       <use xlink:href="#DejaVuSans-33" x="95.410156"/>
      </g>
     </g>
    </g>
    <g id="xtick_5">
     <g id="line2d_9">
      <path d="M 362.63279 323.44 
L 362.63279 25.44 
" clip-path="url(#ped2413219b)" style="fill: none; stroke: #b0b0b0; stroke-width: 0.8; stroke-linecap: square"/>
     </g>
     <g id="line2d_10">
      <g>
       <use xlink:href="#me77e506bf8" x="362.63279" y="323.44" style="stroke: #000000; stroke-width: 0.8"/>
      </g>
     </g>
     <g id="text_5">
      <!-- 0.4 -->
      <g transform="translate(354.681228 338.038438)scale(0.1 -0.1)">
       <defs>
        <path id="DejaVuSans-34" d="M 2419 4116 
L 825 1625 
L 2419 1625 
L 2419 4116 
z
M 2253 4666 
L 3047 4666 
L 3047 1625 
L 3713 1625 
L 3713 1100 
L 3047 1100 
L 3047 0 
L 2419 0 
L 2419 1100 
L 313 1100 
L 313 1709 
L 2253 4666 
z
" transform="scale(0.015625)"/>
       </defs>
       <use xlink:href="#DejaVuSans-30"/>
       <use xlink:href="#DejaVuSans-2e" x="63.623047"/>
       <use xlink:href="#DejaVuSans-34" x="95.410156"/>
      </g>
     </g>
    </g>
    <g id="xtick_6">
     <g id="line2d_11">
      <path d="M 433.287555 323.44 
L 433.287555 25.44 
" clip-path="url(#ped2413219b)" style="fill: none; stroke: #b0b0b0; stroke-width: 0.8; stroke-linecap: square"/>
     </g>
     <g id="line2d_12">
      <g>
       <use xlink:href="#me77e506bf8" x="433.287555" y="323.44" style="stroke: #000000; stroke-width: 0.8"/>
      </g>
     </g>
     <g id="text_6">
      <!-- 0.5 -->
      <g transform="translate(425.335992 338.038438)scale(0.1 -0.1)">
       <defs>
        <path id="DejaVuSans-35" d="M 691 4666 
L 3169 4666 
L 3169 4134 
L 1269 4134 
L 1269 2991 
Q 1406 3038 1543 3061 
Q 1681 3084 1819 3084 
Q 2600 3084 3056 2656 
Q 3513 2228 3513 1497 
Q 3513 744 3044 326 
Q 2575 -91 1722 -91 
Q 1428 -91 1123 -41 
Q 819 9 494 109 
L 494 744 
Q 775 591 1075 516 
Q 1375 441 1709 441 
Q 2250 441 2565 725 
Q 2881 1009 2881 1497 
Q 2881 1984 2565 2268 
Q 2250 2553 1709 2553 
Q 1456 2553 1204 2497 
Q 953 2441 691 2322 
L 691 4666 
z
" transform="scale(0.015625)"/>
       </defs>
       <use xlink:href="#DejaVuSans-30"/>
       <use xlink:href="#DejaVuSans-2e" x="63.623047"/>
       <use xlink:href="#DejaVuSans-35" x="95.410156"/>
      </g>
     </g>
    </g>
    <g id="xtick_7">
     <g id="line2d_13">
      <path d="M 503.942319 323.44 
L 503.942319 25.44 
" clip-path="url(#ped2413219b)" style="fill: none; stroke: #b0b0b0; stroke-width: 0.8; stroke-linecap: square"/>
     </g>
     <g id="line2d_14">
      <g>
       <use xlink:href="#me77e506bf8" x="503.942319" y="323.44" style="stroke: #000000; stroke-width: 0.8"/>
      </g>
     </g>
     <g id="text_7">
      <!-- 0.6 -->
      <g transform="translate(495.990757 338.038438)scale(0.1 -0.1)">
       <defs>
        <path id="DejaVuSans-36" d="M 2113 2584 
Q 1688 2584 1439 2293 
Q 1191 2003 1191 1497 
Q 1191 994 1439 701 
Q 1688 409 2113 409 
Q 2538 409 2786 701 
Q 3034 994 3034 1497 
Q 3034 2003 2786 2293 
Q 2538 2584 2113 2584 
z
M 3366 4563 
L 3366 3988 
Q 3128 4100 2886 4159 
Q 2644 4219 2406 4219 
Q 1781 4219 1451 3797 
Q 1122 3375 1075 2522 
Q 1259 2794 1537 2939 
Q 1816 3084 2150 3084 
Q 2853 3084 3261 2657 
Q 3669 2231 3669 1497 
Q 3669 778 3244 343 
Q 2819 -91 2113 -91 
Q 1303 -91 875 529 
Q 447 1150 447 2328 
Q 447 3434 972 4092 
Q 1497 4750 2381 4750 
Q 2619 4750 2861 4703 
Q 3103 4656 3366 4563 
z
" transform="scale(0.015625)"/>
       </defs>
       <use xlink:href="#DejaVuSans-30"/>
       <use xlink:href="#DejaVuSans-2e" x="63.623047"/>
       <use xlink:href="#DejaVuSans-36" x="95.410156"/>
      </g>
     </g>
    </g>
    <g id="text_8">
     <!-- Time [ms] -->
     <g transform="translate(285.855593 351.716563)scale(0.1 -0.1)">
      <defs>
       <path id="DejaVuSans-54" d="M -19 4666 
L 3928 4666 
L 3928 4134 
L 2272 4134 
L 2272 0 
L 1638 0 
L 1638 4134 
L -19 4134 
L -19 4666 
z
" transform="scale(0.015625)"/>
       <path id="DejaVuSans-69" d="M 603 3500 
L 1178 3500 
L 1178 0 
L 603 0 
L 603 3500 
z
M 603 4863 
L 1178 4863 
L 1178 4134 
L 603 4134 
L 603 4863 
z
" transform="scale(0.015625)"/>
       <path id="DejaVuSans-6d" d="M 3328 2828 
Q 3544 3216 3844 3400 
Q 4144 3584 4550 3584 
Q 5097 3584 5394 3201 
Q 5691 2819 5691 2113 
L 5691 0 
L 5113 0 
L 5113 2094 
Q 5113 2597 4934 2840 
Q 4756 3084 4391 3084 
Q 3944 3084 3684 2787 
Q 3425 2491 3425 1978 
L 3425 0 
L 2847 0 
L 2847 2094 
Q 2847 2600 2669 2842 
Q 2491 3084 2119 3084 
Q 1678 3084 1418 2786 
Q 1159 2488 1159 1978 
L 1159 0 
L 581 0 
L 581 3500 
L 1159 3500 
L 1159 2956 
Q 1356 3278 1631 3431 
Q 1906 3584 2284 3584 
Q 2666 3584 2933 3390 
Q 3200 3197 3328 2828 
z
" transform="scale(0.015625)"/>
       <path id="DejaVuSans-65" d="M 3597 1894 
L 3597 1613 
L 953 1613 
Q 991 1019 1311 708 
Q 1631 397 2203 397 
Q 2534 397 2845 478 
Q 3156 559 3463 722 
L 3463 178 
Q 3153 47 2828 -22 
Q 2503 -91 2169 -91 
Q 1331 -91 842 396 
Q 353 884 353 1716 
Q 353 2575 817 3079 
Q 1281 3584 2069 3584 
Q 2775 3584 3186 3129 
Q 3597 2675 3597 1894 
z
M 3022 2063 
Q 3016 2534 2758 2815 
Q 2500 3097 2075 3097 
Q 1594 3097 1305 2825 
Q 1016 2553 972 2059 
L 3022 2063 
z
" transform="scale(0.015625)"/>
       <path id="DejaVuSans-20" transform="scale(0.015625)"/>
       <path id="DejaVuSans-5b" d="M 550 4863 
L 1875 4863 
L 1875 4416 
L 1125 4416 
L 1125 -397 
L 1875 -397 
L 1875 -844 
L 550 -844 
L 550 4863 
z
" transform="scale(0.015625)"/>
       <path id="DejaVuSans-73" d="M 2834 3397 
L 2834 2853 
Q 2591 2978 2328 3040 
Q 2066 3103 1784 3103 
Q 1356 3103 1142 2972 
Q 928 2841 928 2578 
Q 928 2378 1081 2264 
Q 1234 2150 1697 2047 
L 1894 2003 
Q 2506 1872 2764 1633 
Q 3022 1394 3022 966 
Q 3022 478 2636 193 
Q 2250 -91 1575 -91 
Q 1294 -91 989 -36 
Q 684 19 347 128 
L 347 722 
Q 666 556 975 473 
Q 1284 391 1588 391 
Q 1994 391 2212 530 
Q 2431 669 2431 922 
Q 2431 1156 2273 1281 
Q 2116 1406 1581 1522 
L 1381 1569 
Q 847 1681 609 1914 
Q 372 2147 372 2553 
Q 372 3047 722 3315 
Q 1072 3584 1716 3584 
Q 2034 3584 2315 3537 
Q 2597 3491 2834 3397 
z
" transform="scale(0.015625)"/>
       <path id="DejaVuSans-5d" d="M 1947 4863 
L 1947 -844 
L 622 -844 
L 622 -397 
L 1369 -397 
L 1369 4416 
L 622 4416 
L 622 4863 
L 1947 4863 
z
" transform="scale(0.015625)"/>
      </defs>
      <use xlink:href="#DejaVuSans-54"/>
      <use xlink:href="#DejaVuSans-69" x="57.958984"/>
      <use xlink:href="#DejaVuSans-6d" x="85.742188"/>
      <use xlink:href="#DejaVuSans-65" x="183.154297"/>
      <use xlink:href="#DejaVuSans-20" x="244.677734"/>
      <use xlink:href="#DejaVuSans-5b" x="276.464844"/>
      <use xlink:href="#DejaVuSans-6d" x="315.478516"/>
      <use xlink:href="#DejaVuSans-73" x="412.890625"/>
      <use xlink:href="#DejaVuSans-5d" x="464.990234"/>
     </g>
    </g>
   </g>
   <g id="matplotlib.axis_2">
    <g id="ytick_1">
     <g id="line2d_15">
      <path d="M 56.909624 307.483975 
L 565.2 307.483975 
" clip-path="url(#ped2413219b)" style="fill: none; stroke: #b0b0b0; stroke-width: 0.8; stroke-linecap: square"/>
     </g>
     <g id="line2d_16">
      <defs>
       <path id="mb827500b04" d="M 0 0 
L -3.5 0 
" style="stroke: #000000; stroke-width: 0.8"/>
      </defs>
      <g>
       <use xlink:href="#mb827500b04" x="56.909624" y="307.483975" style="stroke: #000000; stroke-width: 0.8"/>
      </g>
     </g>
     <g id="text_9">
      <!-- $\mathdefault{0}$ -->
      <g transform="translate(43.509624 311.283194)scale(0.1 -0.1)">
       <use xlink:href="#DejaVuSans-30" transform="translate(0 0.78125)"/>
      </g>
     </g>
    </g>
    <g id="ytick_2">
     <g id="line2d_17">
      <path d="M 56.909624 268.559864 
L 565.2 268.559864 
" clip-path="url(#ped2413219b)" style="fill: none; stroke: #b0b0b0; stroke-width: 0.8; stroke-linecap: square"/>
     </g>
     <g id="line2d_18">
      <g>
       <use xlink:href="#mb827500b04" x="56.909624" y="268.559864" style="stroke: #000000; stroke-width: 0.8"/>
      </g>
     </g>
     <g id="text_10">
      <!-- $\mathdefault{1}$ -->
      <g transform="translate(43.509624 272.359083)scale(0.1 -0.1)">
       <use xlink:href="#DejaVuSans-31" transform="translate(0 0.09375)"/>
      </g>
     </g>
    </g>
    <g id="ytick_3">
     <g id="line2d_19">
      <path d="M 56.909624 229.635752 
L 565.2 229.635752 
" clip-path="url(#ped2413219b)" style="fill: none; stroke: #b0b0b0; stroke-width: 0.8; stroke-linecap: square"/>
     </g>
     <g id="line2d_20">
      <g>
       <use xlink:href="#mb827500b04" x="56.909624" y="229.635752" style="stroke: #000000; stroke-width: 0.8"/>
      </g>
     </g>
     <g id="text_11">
      <!-- $\mathdefault{2}$ -->
      <g transform="translate(43.509624 233.434971)scale(0.1 -0.1)">
       <use xlink:href="#DejaVuSans-32" transform="translate(0 0.78125)"/>
      </g>
     </g>
    </g>
    <g id="ytick_4">
     <g id="line2d_21">
      <path d="M 56.909624 190.711641 
L 565.2 190.711641 
" clip-path="url(#ped2413219b)" style="fill: none; stroke: #b0b0b0; stroke-width: 0.8; stroke-linecap: square"/>
     </g>
     <g id="line2d_22">
      <g>
       <use xlink:href="#mb827500b04" x="56.909624" y="190.711641" style="stroke: #000000; stroke-width: 0.8"/>
      </g>
     </g>
     <g id="text_12">
      <!-- $\mathdefault{3}$ -->
      <g transform="translate(43.509624 194.51086)scale(0.1 -0.1)">
       <use xlink:href="#DejaVuSans-33" transform="translate(0 0.78125)"/>
      </g>
     </g>
    </g>
    <g id="ytick_5">
     <g id="line2d_23">
      <path d="M 56.909624 151.787529 
L 565.2 151.787529 
" clip-path="url(#ped2413219b)" style="fill: none; stroke: #b0b0b0; stroke-width: 0.8; stroke-linecap: square"/>
     </g>
     <g id="line2d_24">
      <g>
       <use xlink:href="#mb827500b04" x="56.909624" y="151.787529" style="stroke: #000000; stroke-width: 0.8"/>
      </g>
     </g>
     <g id="text_13">
      <!-- $\mathdefault{4}$ -->
      <g transform="translate(43.509624 155.586748)scale(0.1 -0.1)">
       <use xlink:href="#DejaVuSans-34" transform="translate(0 0.09375)"/>
      </g>
     </g>
    </g>
    <g id="ytick_6">
     <g id="line2d_25">
      <path d="M 56.909624 112.863418 
L 565.2 112.863418 
" clip-path="url(#ped2413219b)" style="fill: none; stroke: #b0b0b0; stroke-width: 0.8; stroke-linecap: square"/>
     </g>
     <g id="line2d_26">
      <g>
       <use xlink:href="#mb827500b04" x="56.909624" y="112.863418" style="stroke: #000000; stroke-width: 0.8"/>
      </g>
     </g>
     <g id="text_14">
      <!-- $\mathdefault{5}$ -->
      <g transform="translate(43.509624 116.662637)scale(0.1 -0.1)">
       <use xlink:href="#DejaVuSans-35" transform="translate(0 0.09375)"/>
      </g>
     </g>
    </g>
    <g id="ytick_7">
     <g id="line2d_27">
      <path d="M 56.909624 73.939307 
L 565.2 73.939307 
" clip-path="url(#ped2413219b)" style="fill: none; stroke: #b0b0b0; stroke-width: 0.8; stroke-linecap: square"/>
     </g>
     <g id="line2d_28">
      <g>
       <use xlink:href="#mb827500b04" x="56.909624" y="73.939307" style="stroke: #000000; stroke-width: 0.8"/>
      </g>
     </g>
     <g id="text_15">
      <!-- $\mathdefault{6}$ -->
      <g transform="translate(43.509624 77.738525)scale(0.1 -0.1)">
       <use xlink:href="#DejaVuSans-36" transform="translate(0 0.78125)"/>
      </g>
     </g>
    </g>
    <g id="ytick_8">
     <g id="line2d_29">
      <path d="M 56.909624 35.015195 
L 565.2 35.015195 
" clip-path="url(#ped2413219b)" style="fill: none; stroke: #b0b0b0; stroke-width: 0.8; stroke-linecap: square"/>
     </g>
     <g id="line2d_30">
      <g>
       <use xlink:href="#mb827500b04" x="56.909624" y="35.015195" style="stroke: #000000; stroke-width: 0.8"/>
      </g>
     </g>
     <g id="text_16">
      <!-- $\mathdefault{7}$ -->
      <g transform="translate(43.509624 38.814414)scale(0.1 -0.1)">
       <defs>
        <path id="DejaVuSans-37" d="M 525 4666 
L 3525 4666 
L 3525 4397 
L 1831 0 
L 1172 0 
L 2766 4134 
L 525 4134 
L 525 4666 
z
" transform="scale(0.015625)"/>
       </defs>
       <use xlink:href="#DejaVuSans-37" transform="translate(0 0.09375)"/>
      </g>
     </g>
    </g>
    <g id="text_17">
     <!-- vel. [m/s] -->
     <g transform="translate(37.429937 198.104063)rotate(-90)scale(0.1 -0.1)">
      <defs>
       <path id="DejaVuSans-76" d="M 191 3500 
L 800 3500 
L 1894 563 
L 2988 3500 
L 3597 3500 
L 2284 0 
L 1503 0 
L 191 3500 
z
" transform="scale(0.015625)"/>
       <path id="DejaVuSans-6c" d="M 603 4863 
L 1178 4863 
L 1178 0 
L 603 0 
L 603 4863 
z
" transform="scale(0.015625)"/>
       <path id="DejaVuSans-2f" d="M 1625 4666 
L 2156 4666 
L 531 -594 
L 0 -594 
L 1625 4666 
z
" transform="scale(0.015625)"/>
      </defs>
      <use xlink:href="#DejaVuSans-76"/>
      <use xlink:href="#DejaVuSans-65" x="59.179688"/>
      <use xlink:href="#DejaVuSans-6c" x="120.703125"/>
      <use xlink:href="#DejaVuSans-2e" x="148.486328"/>
      <use xlink:href="#DejaVuSans-20" x="180.273438"/>
      <use xlink:href="#DejaVuSans-5b" x="212.060547"/>
      <use xlink:href="#DejaVuSans-6d" x="251.074219"/>
      <use xlink:href="#DejaVuSans-2f" x="348.486328"/>
      <use xlink:href="#DejaVuSans-73" x="382.177734"/>
      <use xlink:href="#DejaVuSans-5d" x="434.277344"/>
     </g>
    </g>
    <g id="text_18">
     <!-- $\times\mathdefault{10^{2}}\mathdefault{}$ -->
     <g transform="translate(56.909624 22.44)scale(0.1 -0.1)">
      <defs>
       <path id="DejaVuSans-d7" d="M 4488 3438 
L 3059 2003 
L 4488 575 
L 4116 197 
L 2681 1631 
L 1247 197 
L 878 575 
L 2303 2003 
L 878 3438 
L 1247 3816 
L 2681 2381 
L 4116 3816 
L 4488 3438 
z
" transform="scale(0.015625)"/>
      </defs>
      <use xlink:href="#DejaVuSans-d7" transform="translate(0 0.765625)"/>
      <use xlink:href="#DejaVuSans-31" transform="translate(83.789062 0.765625)"/>
      <use xlink:href="#DejaVuSans-30" transform="translate(147.412109 0.765625)"/>
      <use xlink:href="#DejaVuSans-32" transform="translate(211.992188 39.046875)scale(0.7)"/>
     </g>
    </g>
   </g>
   <g id="line2d_31">
    <path d="M 80.013732 307.483975 
L 81.426827 307.297139 
L 82.839923 306.736632 
L 84.253018 305.802454 
L 85.666113 304.494603 
L 87.079208 302.813082 
L 88.492304 300.757889 
L 89.905399 298.329024 
L 91.318494 295.526488 
L 92.73159 292.350281 
L 94.851233 286.885335 
L 96.970876 280.579629 
L 99.090518 273.433163 
L 101.210161 265.445935 
L 103.329804 256.610162 
L 105.449447 246.956982 
L 111.101828 219.048394 
L 129.472067 128.471987 
L 131.59171 119.324821 
L 133.711353 110.995061 
L 135.830996 103.521631 
L 137.950639 96.904532 
L 140.070282 91.10484 
L 141.483377 87.718442 
L 142.896472 84.682361 
L 144.309568 82.035522 
L 145.722663 79.777923 
L 147.135758 77.870642 
L 148.548854 76.352602 
L 149.961949 75.184878 
L 151.375044 74.406396 
L 152.788139 74.017155 
L 154.201235 73.939307 
L 398.66672 73.978231 
L 400.079815 74.367472 
L 401.492911 75.10703 
L 402.906006 76.235829 
L 404.319101 77.714945 
L 405.732196 79.583303 
L 407.145292 81.840901 
L 408.558387 84.448817 
L 409.971482 87.445973 
L 412.091125 92.62288 
L 414.210768 98.656117 
L 416.330411 105.506761 
L 418.450054 113.213735 
L 420.569697 121.77704 
L 422.68934 131.15775 
L 425.515531 144.859038 
L 447.418508 252.951295 
L 449.53815 262.098461 
L 451.657793 270.420436 
L 453.777436 277.893866 
L 455.897079 284.526534 
L 458.016722 290.318442 
L 460.136365 295.269589 
L 461.54946 298.107157 
L 462.962556 300.567161 
L 464.375651 302.653493 
L 465.788746 304.366154 
L 467.201842 305.705922 
L 468.614937 306.671629 
L 470.028032 307.263976 
L 471.441127 307.482622 
L 530.084582 307.483975 
L 542.095892 307.483975 
L 542.095892 307.483975 
" clip-path="url(#ped2413219b)" style="fill: none; stroke: #1f77b4; stroke-width: 2; stroke-linecap: square"/>
   </g>
   <g id="line2d_32">
    <path d="M 80.013732 307.483975 
L 81.426827 307.31088 
L 84.959566 307.532241 
L 85.666113 307.248017 
L 86.372661 307.539131 
L 87.079208 307.596388 
L 87.785756 307.520817 
L 88.492304 307.270126 
L 89.198851 306.733129 
L 90.611947 306.415898 
L 91.318494 305.016965 
L 92.025042 302.392701 
L 92.73159 300.306369 
L 93.438137 298.632632 
L 94.144685 297.963138 
L 94.851233 296.425635 
L 95.55778 295.978008 
L 96.264328 293.280567 
L 96.970876 292.677243 
L 97.677423 290.189993 
L 99.090518 289.75015 
L 99.797066 289.757935 
L 100.503614 285.35951 
L 101.210161 282.942323 
L 101.916709 276.741712 
L 102.623257 273.366992 
L 103.329804 266.029797 
L 104.036352 262.565551 
L 104.7429 253.535157 
L 105.449447 250.382304 
L 106.155995 240.651276 
L 106.862543 236.953485 
L 107.56909 225.509797 
L 108.275638 222.51264 
L 108.982185 210.134773 
L 109.688733 208.811353 
L 110.395281 196.589182 
L 111.101828 195.14899 
L 111.808376 179.190104 
L 112.514924 180.708144 
L 113.221471 167.668567 
L 113.928019 170.626799 
L 114.634567 157.47045 
L 115.341114 161.012544 
L 116.047662 143.847011 
L 116.75421 148.284359 
L 117.460757 137.541305 
L 118.167305 142.757136 
L 118.873853 136.023264 
L 119.5804 141.355868 
L 120.286948 131.196675 
L 120.993495 137.580229 
L 121.700043 129.990027 
L 122.406591 134.4663 
L 123.113138 128.588759 
L 123.819686 137.424532 
L 124.526234 134.972313 
L 125.232781 141.939729 
L 125.939329 135.205858 
L 126.645877 141.355868 
L 127.352424 130.223572 
L 128.058972 138.903649 
L 128.76552 135.050162 
L 129.472067 144.430872 
L 130.178615 140.071372 
L 130.885162 152.098922 
L 131.59171 151.670757 
L 132.298258 162.608432 
L 133.004805 158.287856 
L 133.711353 163.075522 
L 134.417901 158.404628 
L 135.124448 164.398942 
L 135.830996 152.176771 
L 136.537544 150.892275 
L 137.244091 132.559018 
L 137.950639 132.753639 
L 138.657187 118.27387 
L 139.363734 123.450776 
L 140.070282 117.495387 
L 140.77683 123.061535 
L 141.483377 117.495387 
L 142.189925 126.253312 
L 142.896472 117.573236 
L 143.60302 124.034638 
L 144.309568 111.306454 
L 145.016115 115.510258 
L 145.722663 100.135234 
L 146.429211 101.692198 
L 147.135758 84.643437 
L 147.842306 94.374465 
L 148.548854 79.427606 
L 149.255401 88.652621 
L 149.961949 76.43045 
L 150.668497 73.433293 
L 151.375044 77.75387 
L 152.081592 71.876329 
L 152.788139 82.891852 
L 153.494687 72.966204 
L 154.201235 82.191218 
L 154.907782 72.226646 
L 155.61433 83.086473 
L 156.320878 80.089316 
L 157.027425 92.077943 
L 157.733973 87.095656 
L 158.440521 98.928586 
L 159.147068 93.829528 
L 159.853616 103.093466 
L 160.560164 95.853581 
L 161.266711 103.59948 
L 161.973259 91.143764 
L 162.679807 97.254849 
L 163.386354 84.526665 
L 164.092902 86.239326 
L 164.799449 72.148797 
L 165.505997 81.724129 
L 166.212545 62.845935 
L 166.919092 70.669681 
L 167.62564 61.833908 
L 168.332188 73.705762 
L 169.038735 67.283284 
L 169.745283 78.649124 
L 170.451831 67.555752 
L 171.158378 74.678865 
L 171.864926 61.327895 
L 172.571474 69.696578 
L 173.278021 57.046242 
L 173.984569 60.860805 
L 174.691116 48.366165 
L 175.397664 60.43264 
L 176.104212 52.453197 
L 176.810759 62.884859 
L 177.517307 56.112064 
L 178.223855 68.178538 
L 178.930402 58.408586 
L 179.63695 65.687395 
L 180.343498 47.08167 
L 181.050045 53.231679 
L 181.756593 38.985455 
L 182.463141 53.581996 
L 183.169688 43.695272 
L 183.876236 56.034215 
L 184.582784 40.892736 
L 185.289331 51.168701 
L 185.995879 40.386723 
L 186.702426 54.243706 
L 187.408974 42.838942 
L 188.115522 51.869335 
L 188.822069 41.787991 
L 189.528617 56.579153 
L 190.235165 51.207626 
L 190.941712 63.857962 
L 191.64826 59.031372 
L 192.354808 69.229489 
L 193.061355 57.007318 
L 193.767903 67.711449 
L 194.474451 52.881362 
L 195.180998 57.7858 
L 195.887546 48.521862 
L 196.594093 62.807011 
L 197.300641 58.525358 
L 198.007189 68.061766 
L 198.713736 52.959211 
L 199.420284 67.283284 
L 200.126832 60.004475 
L 200.833379 74.211775 
L 201.539927 69.385186 
L 202.246475 75.729816 
L 202.953022 63.857962 
L 203.65957 74.795637 
L 204.366118 67.166511 
L 205.072665 78.454504 
L 205.779213 67.555752 
L 206.485761 78.999441 
L 207.192308 72.615887 
L 207.898856 83.592486 
L 208.605403 71.564936 
L 209.311951 78.376655 
L 210.018499 67.983918 
L 210.725046 77.481401 
L 211.431594 69.268413 
L 212.138142 82.074446 
L 212.844689 75.496271 
L 213.551237 85.227299 
L 214.257785 78.493428 
L 214.964332 90.832371 
L 215.67088 82.463687 
L 216.377428 97.177001 
L 217.083975 84.682361 
L 217.790523 93.790603 
L 218.49707 81.179191 
L 219.203618 93.634907 
L 219.910166 82.385839 
L 220.616713 93.206742 
L 221.323261 84.604513 
L 222.029809 95.503264 
L 222.736356 85.850085 
L 223.442904 95.814657 
L 224.149452 85.733312 
L 224.855999 83.787107 
L 225.562547 88.847241 
L 226.269095 77.792794 
L 226.975642 86.044705 
L 227.68219 77.676021 
L 228.388738 87.562746 
L 229.095285 76.741843 
L 229.801833 85.188375 
L 230.50838 73.044052 
L 231.214928 87.640594 
L 231.921476 81.023495 
L 232.628023 90.793447 
L 233.334571 72.771583 
L 234.041119 83.164321 
L 234.747666 69.112717 
L 235.454214 82.230142 
L 236.160762 73.355445 
L 236.867309 82.814004 
L 237.573857 70.708605 
L 238.280405 81.101343 
L 238.986952 72.92728 
L 239.6935 80.867798 
L 240.400047 65.492774 
L 241.106595 72.032025 
L 241.813143 62.028529 
L 242.51969 70.630757 
L 243.226238 64.052582 
L 243.932786 75.068106 
L 244.639333 62.962707 
L 245.345881 73.238673 
L 246.052429 65.298154 
L 246.758976 77.559249 
L 247.465524 70.669681 
L 248.172072 79.077289 
L 248.878619 69.112717 
L 249.585167 78.259883 
L 250.291715 67.711449 
L 250.998262 80.828874 
L 251.70481 70.202592 
L 252.411357 82.230142 
L 253.117905 68.606703 
L 253.824453 77.28678 
L 254.531 68.801324 
L 255.237548 77.598173 
L 255.944096 62.768087 
L 256.650643 71.448163 
L 257.357191 63.235176 
L 258.063739 76.547222 
L 258.770286 66.855118 
L 259.476834 74.834561 
L 260.183382 64.947837 
L 260.889929 77.909566 
L 261.596477 68.139614 
L 262.303024 78.220959 
L 263.009572 70.397212 
L 263.71612 78.921593 
L 264.422667 66.193408 
L 265.129215 77.014311 
L 265.835763 66.154484 
L 266.54231 82.307991 
L 267.248858 68.606703 
L 267.955406 79.46653 
L 268.661953 63.07948 
L 269.368501 78.298807 
L 270.075049 64.947837 
L 270.781596 73.394369 
L 271.488144 57.007318 
L 272.194692 67.127587 
L 272.901239 61.717136 
L 273.607787 73.978231 
L 274.314334 64.208279 
L 275.020882 75.457347 
L 275.72743 68.801324 
L 276.433977 79.622227 
L 277.140525 73.005128 
L 277.847073 78.960517 
L 278.55362 64.013658 
L 279.260168 73.238673 
L 279.966716 63.624417 
L 280.673263 75.574119 
L 281.379811 67.283284 
L 282.086359 76.663994 
L 282.792906 63.93581 
L 283.499454 73.433293 
L 284.206001 64.79214 
L 284.912549 77.014311 
L 285.619097 62.067453 
L 286.325644 70.319364 
L 287.032192 63.780114 
L 287.73874 71.837405 
L 288.445287 63.93581 
L 289.151835 74.873485 
L 289.858383 63.624417 
L 290.56493 74.912409 
L 291.271478 69.813351 
L 291.978026 82.307991 
L 292.684573 70.708605 
L 293.391121 79.544379 
L 294.097669 69.229489 
L 294.804216 79.427606 
L 296.217311 74.562092 
L 296.923859 83.43679 
L 297.630407 75.262726 
L 298.336954 90.559902 
L 299.043502 78.571276 
L 299.75005 87.913063 
L 300.456597 74.2507 
L 301.163145 78.688048 
L 301.869693 62.61239 
L 302.57624 76.196905 
L 303.282788 66.971891 
L 303.989336 78.532352 
L 304.695883 68.840248 
L 305.402431 79.777923 
L 306.108978 76.352602 
L 306.815526 84.682361 
L 307.522074 80.673178 
L 308.228621 91.29946 
L 308.935169 75.96336 
L 309.641717 86.239326 
L 310.348264 82.77508 
L 311.054812 93.401362 
L 311.76136 82.074446 
L 312.467907 87.640594 
L 313.174455 74.873485 
L 313.881003 84.29312 
L 314.58755 74.133927 
L 315.294098 82.9697 
L 316.000646 71.019998 
L 316.707193 74.639941 
L 317.413741 60.276944 
L 318.120288 73.160824 
L 318.826836 64.714292 
L 319.533384 77.09216 
L 320.239931 63.624417 
L 320.946479 79.038365 
L 321.653027 71.79848 
L 322.359574 84.176348 
L 323.066122 79.077289 
L 323.77267 82.77508 
L 324.479217 69.657654 
L 325.185765 76.741843 
L 325.892313 69.151641 
L 326.59886 80.361785 
L 327.305408 67.555752 
L 328.011955 76.469374 
L 328.718503 64.947837 
L 329.425051 74.523168 
L 330.131598 62.807011 
L 330.838146 74.095003 
L 331.544694 65.570623 
L 332.251241 71.681708 
L 332.957789 59.848778 
L 333.664337 73.900383 
L 334.370884 66.193408 
L 335.077432 72.538039 
L 335.78398 59.303841 
L 336.490527 75.613043 
L 337.197075 67.633601 
L 337.903623 80.478557 
L 338.61017 65.531699 
L 339.316718 75.535195 
L 340.023265 69.034869 
L 340.729813 74.678865 
L 341.436361 69.346261 
L 342.142908 80.78995 
L 342.849456 69.346261 
L 343.556004 79.038365 
L 344.262551 69.034869 
L 344.969099 79.93362 
L 345.675647 68.022842 
L 346.382194 76.157981 
L 347.088742 64.441823 
L 347.79529 75.418423 
L 348.501837 68.412083 
L 349.208385 77.325704 
L 349.914932 68.7624 
L 350.62148 78.259883 
L 351.328028 68.723476 
L 352.034575 80.556406 
L 352.741123 72.304494 
L 353.447671 84.526665 
L 354.154218 69.852275 
L 354.860766 81.062419 
L 355.567314 71.292467 
L 356.273861 80.906723 
L 356.980409 74.523168 
L 358.393504 84.526665 
L 359.100052 71.487088 
L 359.8066 81.646281 
L 360.513147 73.627914 
L 361.219695 81.646281 
L 361.926242 65.064609 
L 362.63279 73.666838 
L 363.339338 63.507645 
L 364.045885 76.119057 
L 364.752433 67.010815 
L 365.458981 77.637097 
L 366.165528 68.10069 
L 366.872076 78.882669 
L 367.578624 74.795637 
L 368.285171 86.901036 
L 368.991719 73.78361 
L 369.698267 80.945647 
L 370.404814 67.633601 
L 371.111362 80.206089 
L 371.81791 68.995944 
L 372.524457 80.828874 
L 373.231005 69.268413 
L 373.937552 66.193408 
L 374.6441 75.885512 
L 375.350648 66.349105 
L 376.057195 76.041209 
L 376.763743 61.833908 
L 377.470291 71.876329 
L 378.176838 63.001631 
L 378.883386 75.184878 
L 379.589934 64.208279 
L 380.296481 73.900383 
L 381.003029 62.845935 
L 381.709577 72.966204 
L 382.416124 64.402899 
L 383.122672 78.921593 
L 383.829219 69.61873 
L 384.535767 77.131084 
L 385.242315 66.193408 
L 385.948862 78.415579 
L 386.65541 69.346261 
L 387.361958 82.152294 
L 388.068505 73.511141 
L 388.775053 84.409893 
L 389.481601 77.247856 
L 390.188148 88.535848 
L 390.894696 74.328548 
L 391.601244 81.801977 
L 392.307791 64.831065 
L 393.014339 72.109873 
L 393.720887 64.208279 
L 394.427434 76.62507 
L 395.133982 64.59752 
L 395.840529 74.601017 
L 396.547077 68.995944 
L 397.253625 82.074446 
L 397.960172 76.352602 
L 398.66672 87.368125 
L 399.373268 76.352602 
L 400.079815 84.604513 
L 400.786363 73.627914 
L 401.492911 84.682361 
L 402.199458 76.741843 
L 402.906006 86.395022 
L 403.612554 79.855772 
L 404.319101 91.883322 
L 405.025649 77.520325 
L 405.732196 89.236482 
L 406.438744 74.2507 
L 407.145292 86.200402 
L 407.851839 72.382342 
L 408.558387 85.305147 
L 409.264935 80.283937 
L 409.971482 92.233639 
L 410.67803 85.811161 
L 411.384578 95.853581 
L 412.091125 88.730469 
L 412.797673 99.590296 
L 413.504221 90.793447 
L 414.210768 102.859921 
L 414.917316 96.904532 
L 415.623864 105.234292 
L 416.330411 95.075099 
L 417.036959 106.674484 
L 417.743506 103.443783 
L 418.450054 116.171968 
L 419.156602 115.354561 
L 419.863149 125.902995 
L 420.569697 123.684321 
L 421.276245 135.867568 
L 421.982792 129.289393 
L 422.68934 141.161247 
L 423.395888 134.388452 
L 424.102435 144.353024 
L 424.808983 135.556175 
L 425.515531 145.326127 
L 426.222078 143.068529 
L 426.928626 156.769816 
L 427.635173 157.392602 
L 428.341721 168.447049 
L 429.048269 169.848317 
L 429.754816 178.255925 
L 430.461364 172.728701 
L 431.167912 178.217001 
L 431.874459 174.32459 
L 432.581007 182.342957 
L 433.287555 183.121439 
L 433.994102 194.604052 
L 434.70065 195.110066 
L 435.407198 204.568625 
L 436.113745 205.152486 
L 436.820293 213.209777 
L 437.526841 212.275599 
L 438.233388 217.802822 
L 438.939936 212.898384 
L 439.646483 218.659153 
L 440.353031 216.16801 
L 441.059579 221.578461 
L 441.766126 221.539537 
L 442.472674 230.102842 
L 443.179222 231.893351 
L 443.885769 239.405704 
L 444.592317 242.169316 
L 445.298865 248.981036 
L 446.005412 250.148759 
L 446.71196 255.325666 
L 447.418508 257.038327 
L 448.125055 263.733274 
L 448.831603 266.302265 
L 449.53815 271.148317 
L 450.244698 271.300121 
L 450.951246 274.238892 
L 451.657793 272.323825 
L 452.364341 273.818511 
L 453.070889 270.704582 
L 453.777436 272.553478 
L 454.483984 270.661766 
L 455.190532 273.581074 
L 455.897079 271.821704 
L 456.603627 274.951203 
L 457.310175 274.456867 
L 458.016722 277.290542 
L 458.72327 276.262945 
L 459.429818 278.878646 
L 460.136365 278.283107 
L 460.842913 280.540705 
L 461.54946 281.350327 
L 462.256008 284.693908 
L 462.962556 285.546346 
L 463.669103 287.410811 
L 464.375651 287.418596 
L 465.082199 288.761478 
L 465.788746 288.691414 
L 466.495294 290.030404 
L 467.201842 289.855245 
L 467.908389 291.015184 
L 468.614937 290.63762 
L 469.321485 292.077812 
L 470.028032 292.093382 
L 470.73458 293.105408 
L 471.441127 294.46386 
L 472.147675 294.642911 
L 472.854223 295.853451 
L 473.56077 295.857343 
L 474.267318 297.141839 
L 474.973866 297.348137 
L 475.680413 298.426335 
L 476.386961 298.881747 
L 477.093509 299.644659 
L 477.800056 299.994976 
L 478.506604 300.901908 
L 479.213152 301.275579 
L 479.919699 302.089093 
L 480.626247 302.43941 
L 481.332795 303.330773 
L 482.039342 303.718067 
L 483.452437 305.009569 
L 484.158985 305.900542 
L 485.57208 306.993921 
L 487.691723 308.685563 
L 488.398271 308.74317 
L 489.104819 309.12813 
L 489.811366 309.152263 
L 490.517914 309.292 
L 492.637557 309.288108 
L 493.344104 309.514257 
L 494.050652 309.456649 
L 494.7572 309.65127 
L 495.463747 309.553181 
L 496.170295 309.842387 
L 496.876843 309.704207 
L 497.58339 309.894545 
L 498.289938 309.768821 
L 498.996486 309.759868 
L 499.703033 309.382693 
L 500.409581 309.532162 
L 501.116129 309.281491 
L 502.529224 309.079085 
L 503.942319 308.770806 
L 504.648867 308.777034 
L 505.355414 308.302939 
L 506.061962 308.629123 
L 506.76851 308.431388 
L 507.475057 308.359768 
L 508.181605 308.129726 
L 508.888153 308.15853 
L 510.301248 307.91759 
L 512.420891 307.604484 
L 513.833986 307.516636 
L 514.540534 307.094734 
L 515.247081 307.2233 
L 515.953629 307.18496 
L 516.660177 307.018443 
L 519.486367 307.165693 
L 520.192915 306.919186 
L 521.60601 307.041408 
L 522.312558 307.294064 
L 523.019106 307.127975 
L 523.725653 307.38865 
L 525.138749 306.990418 
L 525.845296 307.341669 
L 526.551844 307.465097 
L 527.258391 307.399121 
L 527.964939 307.467541 
L 528.671487 307.250431 
L 530.79113 307.291106 
L 531.497677 307.432518 
L 533.61732 307.430143 
L 534.323868 307.656993 
L 535.030416 307.556724 
L 536.443511 307.480225 
L 537.150058 307.316018 
L 537.856606 307.507322 
L 540.682797 307.419244 
L 541.389344 307.476587 
L 542.095892 307.398615 
L 542.095892 307.398615 
" clip-path="url(#ped2413219b)" style="fill: none; stroke: #ff7f0e; stroke-width: 2; stroke-linecap: square"/>
   </g>
   <g id="patch_3">
    <path d="M 56.909624 323.44 
L 56.909624 25.44 
" style="fill: none; stroke: #000000; stroke-width: 0.8; stroke-linejoin: miter; stroke-linecap: square"/>
   </g>
   <g id="patch_4">
    <path d="M 565.2 323.44 
L 565.2 25.44 
" style="fill: none; stroke: #000000; stroke-width: 0.8; stroke-linejoin: miter; stroke-linecap: square"/>
   </g>
   <g id="patch_5">
    <path d="M 56.909624 323.44 
L 565.2 323.44 
" style="fill: none; stroke: #000000; stroke-width: 0.8; stroke-linejoin: miter; stroke-linecap: square"/>
   </g>
   <g id="patch_6">
    <path d="M 56.909624 25.44 
L 565.2 25.44 
" style="fill: none; stroke: #000000; stroke-width: 0.8; stroke-linejoin: miter; stroke-linecap: square"/>
   </g>
   <g id="text_19">
    <!-- Translational Velocity -->
    <g transform="translate(247.577625 19.44)scale(0.12 -0.12)">
     <defs>
      <path id="DejaVuSans-72" d="M 2631 2963 
Q 2534 3019 2420 3045 
Q 2306 3072 2169 3072 
Q 1681 3072 1420 2755 
Q 1159 2438 1159 1844 
L 1159 0 
L 581 0 
L 581 3500 
L 1159 3500 
L 1159 2956 
Q 1341 3275 1631 3429 
Q 1922 3584 2338 3584 
Q 2397 3584 2469 3576 
Q 2541 3569 2628 3553 
L 2631 2963 
z
" transform="scale(0.015625)"/>
      <path id="DejaVuSans-61" d="M 2194 1759 
Q 1497 1759 1228 1600 
Q 959 1441 959 1056 
Q 959 750 1161 570 
Q 1363 391 1709 391 
Q 2188 391 2477 730 
Q 2766 1069 2766 1631 
L 2766 1759 
L 2194 1759 
z
M 3341 1997 
L 3341 0 
L 2766 0 
L 2766 531 
Q 2569 213 2275 61 
Q 1981 -91 1556 -91 
Q 1019 -91 701 211 
Q 384 513 384 1019 
Q 384 1609 779 1909 
Q 1175 2209 1959 2209 
L 2766 2209 
L 2766 2266 
Q 2766 2663 2505 2880 
Q 2244 3097 1772 3097 
Q 1472 3097 1187 3025 
Q 903 2953 641 2809 
L 641 3341 
Q 956 3463 1253 3523 
Q 1550 3584 1831 3584 
Q 2591 3584 2966 3190 
Q 3341 2797 3341 1997 
z
" transform="scale(0.015625)"/>
      <path id="DejaVuSans-6e" d="M 3513 2113 
L 3513 0 
L 2938 0 
L 2938 2094 
Q 2938 2591 2744 2837 
Q 2550 3084 2163 3084 
Q 1697 3084 1428 2787 
Q 1159 2491 1159 1978 
L 1159 0 
L 581 0 
L 581 3500 
L 1159 3500 
L 1159 2956 
Q 1366 3272 1645 3428 
Q 1925 3584 2291 3584 
Q 2894 3584 3203 3211 
Q 3513 2838 3513 2113 
z
" transform="scale(0.015625)"/>
      <path id="DejaVuSans-74" d="M 1172 4494 
L 1172 3500 
L 2356 3500 
L 2356 3053 
L 1172 3053 
L 1172 1153 
Q 1172 725 1289 603 
Q 1406 481 1766 481 
L 2356 481 
L 2356 0 
L 1766 0 
Q 1100 0 847 248 
Q 594 497 594 1153 
L 594 3053 
L 172 3053 
L 172 3500 
L 594 3500 
L 594 4494 
L 1172 4494 
z
" transform="scale(0.015625)"/>
      <path id="DejaVuSans-6f" d="M 1959 3097 
Q 1497 3097 1228 2736 
Q 959 2375 959 1747 
Q 959 1119 1226 758 
Q 1494 397 1959 397 
Q 2419 397 2687 759 
Q 2956 1122 2956 1747 
Q 2956 2369 2687 2733 
Q 2419 3097 1959 3097 
z
M 1959 3584 
Q 2709 3584 3137 3096 
Q 3566 2609 3566 1747 
Q 3566 888 3137 398 
Q 2709 -91 1959 -91 
Q 1206 -91 779 398 
Q 353 888 353 1747 
Q 353 2609 779 3096 
Q 1206 3584 1959 3584 
z
" transform="scale(0.015625)"/>
      <path id="DejaVuSans-56" d="M 1831 0 
L 50 4666 
L 709 4666 
L 2188 738 
L 3669 4666 
L 4325 4666 
L 2547 0 
L 1831 0 
z
" transform="scale(0.015625)"/>
      <path id="DejaVuSans-63" d="M 3122 3366 
L 3122 2828 
Q 2878 2963 2633 3030 
Q 2388 3097 2138 3097 
Q 1578 3097 1268 2742 
Q 959 2388 959 1747 
Q 959 1106 1268 751 
Q 1578 397 2138 397 
Q 2388 397 2633 464 
Q 2878 531 3122 666 
L 3122 134 
Q 2881 22 2623 -34 
Q 2366 -91 2075 -91 
Q 1284 -91 818 406 
Q 353 903 353 1747 
Q 353 2603 823 3093 
Q 1294 3584 2113 3584 
Q 2378 3584 2631 3529 
Q 2884 3475 3122 3366 
z
" transform="scale(0.015625)"/>
      <path id="DejaVuSans-79" d="M 2059 -325 
Q 1816 -950 1584 -1140 
Q 1353 -1331 966 -1331 
L 506 -1331 
L 506 -850 
L 844 -850 
Q 1081 -850 1212 -737 
Q 1344 -625 1503 -206 
L 1606 56 
L 191 3500 
L 800 3500 
L 1894 763 
L 2988 3500 
L 3597 3500 
L 2059 -325 
z
" transform="scale(0.015625)"/>
     </defs>
     <use xlink:href="#DejaVuSans-54"/>
     <use xlink:href="#DejaVuSans-72" x="46.333984"/>
     <use xlink:href="#DejaVuSans-61" x="87.447266"/>
     <use xlink:href="#DejaVuSans-6e" x="148.726562"/>
     <use xlink:href="#DejaVuSans-73" x="212.105469"/>
     <use xlink:href="#DejaVuSans-6c" x="264.205078"/>
     <use xlink:href="#DejaVuSans-61" x="291.988281"/>
     <use xlink:href="#DejaVuSans-74" x="353.267578"/>
     <use xlink:href="#DejaVuSans-69" x="392.476562"/>
     <use xlink:href="#DejaVuSans-6f" x="420.259766"/>
     <use xlink:href="#DejaVuSans-6e" x="481.441406"/>
     <use xlink:href="#DejaVuSans-61" x="544.820312"/>
     <use xlink:href="#DejaVuSans-6c" x="606.099609"/>
     <use xlink:href="#DejaVuSans-20" x="633.882812"/>
     <use xlink:href="#DejaVuSans-56" x="665.669922"/>
     <use xlink:href="#DejaVuSans-65" x="726.328125"/>
     <use xlink:href="#DejaVuSans-6c" x="787.851562"/>
     <use xlink:href="#DejaVuSans-6f" x="815.634766"/>
     <use xlink:href="#DejaVuSans-63" x="876.816406"/>
     <use xlink:href="#DejaVuSans-69" x="931.796875"/>
     <use xlink:href="#DejaVuSans-74" x="959.580078"/>
     <use xlink:href="#DejaVuSans-79" x="998.789062"/>
    </g>
   </g>
   <g id="legend_1">
    <g id="patch_7">
     <path d="M 475.682812 62.79625 
L 558.2 62.79625 
Q 560.2 62.79625 560.2 60.79625 
L 560.2 32.44 
Q 560.2 30.44 558.2 30.44 
L 475.682812 30.44 
Q 473.682812 30.44 473.682812 32.44 
L 473.682812 60.79625 
Q 473.682812 62.79625 475.682812 62.79625 
z
" style="fill: #ffffff; opacity: 0.8; stroke: #cccccc; stroke-linejoin: miter"/>
    </g>
    <g id="line2d_33">
     <path d="M 477.682812 38.538438 
L 487.682812 38.538438 
L 497.682812 38.538438 
" style="fill: none; stroke: #1f77b4; stroke-width: 2; stroke-linecap: square"/>
    </g>
    <g id="text_20">
     <!-- Reference -->
     <g transform="translate(505.682812 42.038438)scale(0.1 -0.1)">
      <defs>
       <path id="DejaVuSans-52" d="M 2841 2188 
Q 3044 2119 3236 1894 
Q 3428 1669 3622 1275 
L 4263 0 
L 3584 0 
L 2988 1197 
Q 2756 1666 2539 1819 
Q 2322 1972 1947 1972 
L 1259 1972 
L 1259 0 
L 628 0 
L 628 4666 
L 2053 4666 
Q 2853 4666 3247 4331 
Q 3641 3997 3641 3322 
Q 3641 2881 3436 2590 
Q 3231 2300 2841 2188 
z
M 1259 4147 
L 1259 2491 
L 2053 2491 
Q 2509 2491 2742 2702 
Q 2975 2913 2975 3322 
Q 2975 3731 2742 3939 
Q 2509 4147 2053 4147 
L 1259 4147 
z
" transform="scale(0.015625)"/>
       <path id="DejaVuSans-66" d="M 2375 4863 
L 2375 4384 
L 1825 4384 
Q 1516 4384 1395 4259 
Q 1275 4134 1275 3809 
L 1275 3500 
L 2222 3500 
L 2222 3053 
L 1275 3053 
L 1275 0 
L 697 0 
L 697 3053 
L 147 3053 
L 147 3500 
L 697 3500 
L 697 3744 
Q 697 4328 969 4595 
Q 1241 4863 1831 4863 
L 2375 4863 
z
" transform="scale(0.015625)"/>
      </defs>
      <use xlink:href="#DejaVuSans-52"/>
      <use xlink:href="#DejaVuSans-65" x="64.982422"/>
      <use xlink:href="#DejaVuSans-66" x="126.505859"/>
      <use xlink:href="#DejaVuSans-65" x="161.710938"/>
      <use xlink:href="#DejaVuSans-72" x="223.234375"/>
      <use xlink:href="#DejaVuSans-65" x="262.097656"/>
      <use xlink:href="#DejaVuSans-6e" x="323.621094"/>
      <use xlink:href="#DejaVuSans-63" x="387"/>
      <use xlink:href="#DejaVuSans-65" x="441.980469"/>
     </g>
    </g>
    <g id="line2d_34">
     <path d="M 477.682812 53.216563 
L 487.682812 53.216563 
L 497.682812 53.216563 
" style="fill: none; stroke: #ff7f0e; stroke-width: 2; stroke-linecap: square"/>
    </g>
    <g id="text_21">
     <!-- Estimated -->
     <g transform="translate(505.682812 56.716563)scale(0.1 -0.1)">
      <defs>
       <path id="DejaVuSans-45" d="M 628 4666 
L 3578 4666 
L 3578 4134 
L 1259 4134 
L 1259 2753 
L 3481 2753 
L 3481 2222 
L 1259 2222 
L 1259 531 
L 3634 531 
L 3634 0 
L 628 0 
L 628 4666 
z
" transform="scale(0.015625)"/>
       <path id="DejaVuSans-64" d="M 2906 2969 
L 2906 4863 
L 3481 4863 
L 3481 0 
L 2906 0 
L 2906 525 
Q 2725 213 2448 61 
Q 2172 -91 1784 -91 
Q 1150 -91 751 415 
Q 353 922 353 1747 
Q 353 2572 751 3078 
Q 1150 3584 1784 3584 
Q 2172 3584 2448 3432 
Q 2725 3281 2906 2969 
z
M 947 1747 
Q 947 1113 1208 752 
Q 1469 391 1925 391 
Q 2381 391 2643 752 
Q 2906 1113 2906 1747 
Q 2906 2381 2643 2742 
Q 2381 3103 1925 3103 
Q 1469 3103 1208 2742 
Q 947 2381 947 1747 
z
" transform="scale(0.015625)"/>
      </defs>
      <use xlink:href="#DejaVuSans-45"/>
      <use xlink:href="#DejaVuSans-73" x="63.183594"/>
      <use xlink:href="#DejaVuSans-74" x="115.283203"/>
      <use xlink:href="#DejaVuSans-69" x="154.492188"/>
      <use xlink:href="#DejaVuSans-6d" x="182.275391"/>
      <use xlink:href="#DejaVuSans-61" x="279.6875"/>
      <use xlink:href="#DejaVuSans-74" x="340.966797"/>
      <use xlink:href="#DejaVuSans-65" x="380.175781"/>
      <use xlink:href="#DejaVuSans-64" x="441.699219"/>
     </g>
    </g>
   </g>
  </g>
  <g id="axes_2">
   <g id="patch_8">
    <path d="M 56.909624 678.04 
L 565.2 678.04 
L 565.2 380.04 
L 56.909624 380.04 
z
" style="fill: #ffffff"/>
   </g>
   <g id="matplotlib.axis_3">
    <g id="xtick_8">
     <g id="line2d_35">
      <path d="M 80.013732 678.04 
L 80.013732 380.04 
" clip-path="url(#p81b1d34f03)" style="fill: none; stroke: #b0b0b0; stroke-width: 0.8; stroke-linecap: square"/>
     </g>
     <g id="line2d_36">
      <g>
       <use xlink:href="#me77e506bf8" x="80.013732" y="678.04" style="stroke: #000000; stroke-width: 0.8"/>
      </g>
     </g>
     <g id="text_22">
      <!-- 0.0 -->
      <g transform="translate(72.06217 692.638438)scale(0.1 -0.1)">
       <use xlink:href="#DejaVuSans-30"/>
       <use xlink:href="#DejaVuSans-2e" x="63.623047"/>
       <use xlink:href="#DejaVuSans-30" x="95.410156"/>
      </g>
     </g>
    </g>
    <g id="xtick_9">
     <g id="line2d_37">
      <path d="M 150.668497 678.04 
L 150.668497 380.04 
" clip-path="url(#p81b1d34f03)" style="fill: none; stroke: #b0b0b0; stroke-width: 0.8; stroke-linecap: square"/>
     </g>
     <g id="line2d_38">
      <g>
       <use xlink:href="#me77e506bf8" x="150.668497" y="678.04" style="stroke: #000000; stroke-width: 0.8"/>
      </g>
     </g>
     <g id="text_23">
      <!-- 0.1 -->
      <g transform="translate(142.716934 692.638438)scale(0.1 -0.1)">
       <use xlink:href="#DejaVuSans-30"/>
       <use xlink:href="#DejaVuSans-2e" x="63.623047"/>
       <use xlink:href="#DejaVuSans-31" x="95.410156"/>
      </g>
     </g>
    </g>
    <g id="xtick_10">
     <g id="line2d_39">
      <path d="M 221.323261 678.04 
L 221.323261 380.04 
" clip-path="url(#p81b1d34f03)" style="fill: none; stroke: #b0b0b0; stroke-width: 0.8; stroke-linecap: square"/>
     </g>
     <g id="line2d_40">
      <g>
       <use xlink:href="#me77e506bf8" x="221.323261" y="678.04" style="stroke: #000000; stroke-width: 0.8"/>
      </g>
     </g>
     <g id="text_24">
      <!-- 0.2 -->
      <g transform="translate(213.371699 692.638438)scale(0.1 -0.1)">
       <use xlink:href="#DejaVuSans-30"/>
       <use xlink:href="#DejaVuSans-2e" x="63.623047"/>
       <use xlink:href="#DejaVuSans-32" x="95.410156"/>
      </g>
     </g>
    </g>
    <g id="xtick_11">
     <g id="line2d_41">
      <path d="M 291.978026 678.04 
L 291.978026 380.04 
" clip-path="url(#p81b1d34f03)" style="fill: none; stroke: #b0b0b0; stroke-width: 0.8; stroke-linecap: square"/>
     </g>
     <g id="line2d_42">
      <g>
       <use xlink:href="#me77e506bf8" x="291.978026" y="678.04" style="stroke: #000000; stroke-width: 0.8"/>
      </g>
     </g>
     <g id="text_25">
      <!-- 0.3 -->
      <g transform="translate(284.026463 692.638438)scale(0.1 -0.1)">
       <use xlink:href="#DejaVuSans-30"/>
       <use xlink:href="#DejaVuSans-2e" x="63.623047"/>
       <use xlink:href="#DejaVuSans-33" x="95.410156"/>
      </g>
     </g>
    </g>
    <g id="xtick_12">
     <g id="line2d_43">
      <path d="M 362.63279 678.04 
L 362.63279 380.04 
" clip-path="url(#p81b1d34f03)" style="fill: none; stroke: #b0b0b0; stroke-width: 0.8; stroke-linecap: square"/>
     </g>
     <g id="line2d_44">
      <g>
       <use xlink:href="#me77e506bf8" x="362.63279" y="678.04" style="stroke: #000000; stroke-width: 0.8"/>
      </g>
     </g>
     <g id="text_26">
      <!-- 0.4 -->
      <g transform="translate(354.681228 692.638438)scale(0.1 -0.1)">
       <use xlink:href="#DejaVuSans-30"/>
       <use xlink:href="#DejaVuSans-2e" x="63.623047"/>
       <use xlink:href="#DejaVuSans-34" x="95.410156"/>
      </g>
     </g>
    </g>
    <g id="xtick_13">
     <g id="line2d_45">
      <path d="M 433.287555 678.04 
L 433.287555 380.04 
" clip-path="url(#p81b1d34f03)" style="fill: none; stroke: #b0b0b0; stroke-width: 0.8; stroke-linecap: square"/>
     </g>
     <g id="line2d_46">
      <g>
       <use xlink:href="#me77e506bf8" x="433.287555" y="678.04" style="stroke: #000000; stroke-width: 0.8"/>
      </g>
     </g>
     <g id="text_27">
      <!-- 0.5 -->
      <g transform="translate(425.335992 692.638438)scale(0.1 -0.1)">
       <use xlink:href="#DejaVuSans-30"/>
       <use xlink:href="#DejaVuSans-2e" x="63.623047"/>
       <use xlink:href="#DejaVuSans-35" x="95.410156"/>
      </g>
     </g>
    </g>
    <g id="xtick_14">
     <g id="line2d_47">
      <path d="M 503.942319 678.04 
L 503.942319 380.04 
" clip-path="url(#p81b1d34f03)" style="fill: none; stroke: #b0b0b0; stroke-width: 0.8; stroke-linecap: square"/>
     </g>
     <g id="line2d_48">
      <g>
       <use xlink:href="#me77e506bf8" x="503.942319" y="678.04" style="stroke: #000000; stroke-width: 0.8"/>
      </g>
     </g>
     <g id="text_28">
      <!-- 0.6 -->
      <g transform="translate(495.990757 692.638438)scale(0.1 -0.1)">
       <use xlink:href="#DejaVuSans-30"/>
       <use xlink:href="#DejaVuSans-2e" x="63.623047"/>
       <use xlink:href="#DejaVuSans-36" x="95.410156"/>
      </g>
     </g>
    </g>
    <g id="text_29">
     <!-- Time [ms] -->
     <g transform="translate(285.855593 706.316563)scale(0.1 -0.1)">
      <use xlink:href="#DejaVuSans-54"/>
      <use xlink:href="#DejaVuSans-69" x="57.958984"/>
      <use xlink:href="#DejaVuSans-6d" x="85.742188"/>
      <use xlink:href="#DejaVuSans-65" x="183.154297"/>
      <use xlink:href="#DejaVuSans-20" x="244.677734"/>
      <use xlink:href="#DejaVuSans-5b" x="276.464844"/>
      <use xlink:href="#DejaVuSans-6d" x="315.478516"/>
      <use xlink:href="#DejaVuSans-73" x="412.890625"/>
      <use xlink:href="#DejaVuSans-5d" x="464.990234"/>
     </g>
    </g>
   </g>
   <g id="matplotlib.axis_4">
    <g id="ytick_9">
     <g id="line2d_49">
      <path d="M 56.909624 677.615821 
L 565.2 677.615821 
" clip-path="url(#p81b1d34f03)" style="fill: none; stroke: #b0b0b0; stroke-width: 0.8; stroke-linecap: square"/>
     </g>
     <g id="line2d_50">
      <g>
       <use xlink:href="#mb827500b04" x="56.909624" y="677.615821" style="stroke: #000000; stroke-width: 0.8"/>
      </g>
     </g>
     <g id="text_30">
      <!-- $\mathdefault{1.5}$ -->
      <g transform="translate(25.609624 681.41504)scale(0.1 -0.1)">
       <defs>
        <path id="DejaVuSans-2212" d="M 678 2272 
L 4684 2272 
L 4684 1741 
L 678 1741 
L 678 2272 
z
" transform="scale(0.015625)"/>
       </defs>
       <use xlink:href="#DejaVuSans-2212" transform="translate(0 0.09375)"/>
       <use xlink:href="#DejaVuSans-31" transform="translate(83.789062 0.09375)"/>
       <use xlink:href="#DejaVuSans-2e" transform="translate(147.412109 0.09375)"/>
       <use xlink:href="#DejaVuSans-35" transform="translate(179.199219 0.09375)"/>
      </g>
     </g>
    </g>
    <g id="ytick_10">
     <g id="line2d_51">
      <path d="M 56.909624 621.058599 
L 565.2 621.058599 
" clip-path="url(#p81b1d34f03)" style="fill: none; stroke: #b0b0b0; stroke-width: 0.8; stroke-linecap: square"/>
     </g>
     <g id="line2d_52">
      <g>
       <use xlink:href="#mb827500b04" x="56.909624" y="621.058599" style="stroke: #000000; stroke-width: 0.8"/>
      </g>
     </g>
     <g id="text_31">
      <!-- $\mathdefault{1.0}$ -->
      <g transform="translate(25.609624 624.857818)scale(0.1 -0.1)">
       <use xlink:href="#DejaVuSans-2212" transform="translate(0 0.78125)"/>
       <use xlink:href="#DejaVuSans-31" transform="translate(83.789062 0.78125)"/>
       <use xlink:href="#DejaVuSans-2e" transform="translate(147.412109 0.78125)"/>
       <use xlink:href="#DejaVuSans-30" transform="translate(179.199219 0.78125)"/>
      </g>
     </g>
    </g>
    <g id="ytick_11">
     <g id="line2d_53">
      <path d="M 56.909624 564.501378 
L 565.2 564.501378 
" clip-path="url(#p81b1d34f03)" style="fill: none; stroke: #b0b0b0; stroke-width: 0.8; stroke-linecap: square"/>
     </g>
     <g id="line2d_54">
      <g>
       <use xlink:href="#mb827500b04" x="56.909624" y="564.501378" style="stroke: #000000; stroke-width: 0.8"/>
      </g>
     </g>
     <g id="text_32">
      <!-- $\mathdefault{0.5}$ -->
      <g transform="translate(25.609624 568.300597)scale(0.1 -0.1)">
       <use xlink:href="#DejaVuSans-2212" transform="translate(0 0.78125)"/>
       <use xlink:href="#DejaVuSans-30" transform="translate(83.789062 0.78125)"/>
       <use xlink:href="#DejaVuSans-2e" transform="translate(147.412109 0.78125)"/>
       <use xlink:href="#DejaVuSans-35" transform="translate(179.199219 0.78125)"/>
      </g>
     </g>
    </g>
    <g id="ytick_12">
     <g id="line2d_55">
      <path d="M 56.909624 507.944156 
L 565.2 507.944156 
" clip-path="url(#p81b1d34f03)" style="fill: none; stroke: #b0b0b0; stroke-width: 0.8; stroke-linecap: square"/>
     </g>
     <g id="line2d_56">
      <g>
       <use xlink:href="#mb827500b04" x="56.909624" y="507.944156" style="stroke: #000000; stroke-width: 0.8"/>
      </g>
     </g>
     <g id="text_33">
      <!-- $\mathdefault{0.0}$ -->
      <g transform="translate(33.909624 511.743375)scale(0.1 -0.1)">
       <use xlink:href="#DejaVuSans-30" transform="translate(0 0.78125)"/>
       <use xlink:href="#DejaVuSans-2e" transform="translate(63.623047 0.78125)"/>
       <use xlink:href="#DejaVuSans-30" transform="translate(95.410156 0.78125)"/>
      </g>
     </g>
    </g>
    <g id="ytick_13">
     <g id="line2d_57">
      <path d="M 56.909624 451.386935 
L 565.2 451.386935 
" clip-path="url(#p81b1d34f03)" style="fill: none; stroke: #b0b0b0; stroke-width: 0.8; stroke-linecap: square"/>
     </g>
     <g id="line2d_58">
      <g>
       <use xlink:href="#mb827500b04" x="56.909624" y="451.386935" style="stroke: #000000; stroke-width: 0.8"/>
      </g>
     </g>
     <g id="text_34">
      <!-- $\mathdefault{0.5}$ -->
      <g transform="translate(33.909624 455.186154)scale(0.1 -0.1)">
       <use xlink:href="#DejaVuSans-30" transform="translate(0 0.78125)"/>
       <use xlink:href="#DejaVuSans-2e" transform="translate(63.623047 0.78125)"/>
       <use xlink:href="#DejaVuSans-35" transform="translate(95.410156 0.78125)"/>
      </g>
     </g>
    </g>
    <g id="ytick_14">
     <g id="line2d_59">
      <path d="M 56.909624 394.829713 
L 565.2 394.829713 
" clip-path="url(#p81b1d34f03)" style="fill: none; stroke: #b0b0b0; stroke-width: 0.8; stroke-linecap: square"/>
     </g>
     <g id="line2d_60">
      <g>
       <use xlink:href="#mb827500b04" x="56.909624" y="394.829713" style="stroke: #000000; stroke-width: 0.8"/>
      </g>
     </g>
     <g id="text_35">
      <!-- $\mathdefault{1.0}$ -->
      <g transform="translate(33.909624 398.628932)scale(0.1 -0.1)">
       <use xlink:href="#DejaVuSans-31" transform="translate(0 0.78125)"/>
       <use xlink:href="#DejaVuSans-2e" transform="translate(63.623047 0.78125)"/>
       <use xlink:href="#DejaVuSans-30" transform="translate(95.410156 0.78125)"/>
      </g>
     </g>
    </g>
    <g id="text_36">
     <!-- vel. [rad/s] -->
     <g transform="translate(19.529937 556.1275)rotate(-90)scale(0.1 -0.1)">
      <use xlink:href="#DejaVuSans-76"/>
      <use xlink:href="#DejaVuSans-65" x="59.179688"/>
      <use xlink:href="#DejaVuSans-6c" x="120.703125"/>
      <use xlink:href="#DejaVuSans-2e" x="148.486328"/>
      <use xlink:href="#DejaVuSans-20" x="180.273438"/>
      <use xlink:href="#DejaVuSans-5b" x="212.060547"/>
      <use xlink:href="#DejaVuSans-72" x="251.074219"/>
      <use xlink:href="#DejaVuSans-61" x="292.1875"/>
      <use xlink:href="#DejaVuSans-64" x="353.466797"/>
      <use xlink:href="#DejaVuSans-2f" x="416.943359"/>
      <use xlink:href="#DejaVuSans-73" x="450.634766"/>
      <use xlink:href="#DejaVuSans-5d" x="502.734375"/>
     </g>
    </g>
    <g id="text_37">
     <!-- $\times\mathdefault{10^{4}}\mathdefault{}$ -->
     <g transform="translate(56.909624 377.04)scale(0.1 -0.1)">
      <use xlink:href="#DejaVuSans-d7" transform="translate(0 0.684375)"/>
      <use xlink:href="#DejaVuSans-31" transform="translate(83.789062 0.684375)"/>
      <use xlink:href="#DejaVuSans-30" transform="translate(147.412109 0.684375)"/>
      <use xlink:href="#DejaVuSans-34" transform="translate(211.992188 38.965625)scale(0.7)"/>
     </g>
    </g>
   </g>
   <g id="line2d_61">
    <path d="M 80.013732 507.944156 
L 106.155995 407.498531 
L 106.862543 406.141158 
L 126.645877 406.141158 
L 127.352424 407.046073 
L 153.494687 507.491812 
L 154.201235 507.944156 
L 397.960172 507.944156 
L 424.102435 608.37847 
L 424.808983 609.747155 
L 444.592317 609.747155 
L 445.298865 608.853551 
L 471.441127 508.406229 
L 472.147675 507.944156 
L 542.095892 507.944156 
L 542.095892 507.944156 
" clip-path="url(#p81b1d34f03)" style="fill: none; stroke: #1f77b4; stroke-width: 2; stroke-linecap: square"/>
   </g>
   <g id="line2d_62">
    <path d="M 80.013732 507.944156 
L 81.426827 507.569861 
L 82.133375 507.678111 
L 82.839923 508.084418 
L 83.54647 507.881253 
L 84.253018 507.298952 
L 84.959566 507.515679 
L 85.666113 507.948964 
L 86.372661 507.935423 
L 87.079208 508.206243 
L 87.785756 508.233277 
L 88.492304 507.976043 
L 89.198851 507.948964 
L 89.905399 500.487652 
L 90.611947 497.671103 
L 92.025042 477.833092 
L 92.73159 461.770841 
L 93.438137 462.585265 
L 94.144685 472.561959 
L 94.851233 480.47997 
L 95.55778 479.020793 
L 96.264328 471.55524 
L 96.970876 457.099214 
L 97.677423 455.323318 
L 98.383971 450.01825 
L 99.090518 447.801207 
L 99.797066 439.340247 
L 100.503614 437.824513 
L 101.210161 427.926999 
L 101.916709 427.010772 
L 102.623257 422.576686 
L 103.329804 419.352925 
L 104.036352 402.962642 
L 104.7429 400.655107 
L 105.449447 406.876402 
L 106.155995 407.396728 
L 106.862543 404.161655 
L 107.56909 408.052792 
L 108.275638 422.621932 
L 108.982185 422.893407 
L 109.688733 419.454728 
L 110.395281 422.169474 
L 111.101828 425.879628 
L 111.808376 421.490788 
L 112.514924 420.054234 
L 113.221471 423.300619 
L 113.928019 445.188263 
L 114.634567 449.746775 
L 115.341114 458.705439 
L 116.047662 456.782494 
L 116.75421 450.629068 
L 117.460757 449.531858 
L 118.167305 450.482019 
L 118.873853 454.260042 
L 119.5804 468.908362 
L 120.286948 469.632295 
L 120.993495 461.205269 
L 121.700043 454.316599 
L 122.406591 454.045124 
L 123.113138 455.787087 
L 123.819686 467.72066 
L 124.526234 471.261143 
L 125.232781 464.406407 
L 125.939329 464.870177 
L 126.645877 474.009823 
L 127.352424 471.736223 
L 128.058972 440.245162 
L 128.76552 421.174067 
L 129.472067 423.560782 
L 130.178615 434.544194 
L 130.885162 451.748901 
L 131.59171 462.189364 
L 132.298258 439.509918 
L 133.004805 429.963059 
L 135.124448 441.738273 
L 135.830996 452.902668 
L 136.537544 480.706199 
L 137.244091 486.66733 
L 137.950639 454.203485 
L 138.657187 430.166665 
L 139.363734 402.114284 
L 140.070282 393.585455 
L 140.77683 417.599651 
L 141.483377 425.619465 
L 142.189925 446.715308 
L 142.896472 462.506085 
L 143.60302 457.348066 
L 144.309568 465.322634 
L 145.016115 469.496557 
L 145.722663 466.62345 
L 146.429211 457.506426 
L 147.135758 460.594451 
L 147.842306 455.922824 
L 148.548854 426.841101 
L 149.255401 423.255373 
L 149.961949 437.72271 
L 150.668497 459.169209 
L 151.375044 439.781393 
L 152.788139 473.930643 
L 153.494687 473.659169 
L 154.201235 480.287675 
L 154.907782 472.957859 
L 155.61433 467.64148 
L 156.320878 458.886422 
L 157.027425 453.343815 
L 157.733973 451.873327 
L 158.440521 463.116903 
L 159.147068 485.400448 
L 159.853616 492.866001 
L 160.560164 484.08832 
L 161.266711 454.972663 
L 161.973259 444.577445 
L 162.679807 422.882095 
L 163.386354 417.36211 
L 164.092902 457.099214 
L 164.799449 473.082285 
L 165.505997 466.272796 
L 166.212545 466.035255 
L 166.919092 444.079742 
L 167.62564 450.617757 
L 168.332188 449.203826 
L 169.038735 441.466798 
L 169.745283 480.864559 
L 171.158378 485.943397 
L 171.864926 487.470442 
L 172.571474 484.224058 
L 173.278021 482.448161 
L 173.984569 464.768374 
L 174.691116 458.264293 
L 175.397664 456.250856 
L 176.104212 459.282323 
L 176.810759 490.999613 
L 177.517307 494.393046 
L 178.223855 472.935236 
L 178.930402 473.840152 
L 179.63695 488.873061 
L 180.343498 483.443568 
L 181.050045 473.285891 
L 181.756593 467.449186 
L 182.463141 435.573536 
L 183.169688 436.523697 
L 183.876236 449.181203 
L 184.582784 451.149395 
L 185.289331 494.958618 
L 185.995879 506.161473 
L 186.702426 506.147899 
L 187.408974 509.790184 
L 188.115522 512.146358 
L 189.528617 539.469152 
L 190.235165 530.906388 
L 190.941712 527.637381 
L 191.64826 526.246073 
L 192.354808 516.479772 
L 193.061355 510.088806 
L 193.767903 511.808146 
L 194.474451 512.823913 
L 195.180998 501.61201 
L 195.887546 498.240068 
L 196.594093 510.738083 
L 197.300641 514.313631 
L 198.007189 502.668499 
L 198.713736 505.132131 
L 199.420284 515.870085 
L 200.126832 519.685436 
L 200.833379 520.284942 
L 201.539927 517.116607 
L 202.246475 541.516523 
L 202.953022 575.654462 
L 203.65957 553.517965 
L 204.366118 515.654037 
L 205.072665 525.82755 
L 205.779213 533.779495 
L 206.485761 524.80952 
L 207.192308 521.879856 
L 207.898856 524.006407 
L 208.605403 527.433775 
L 209.311951 532.512613 
L 210.018499 535.725064 
L 210.725046 545.2493 
L 211.431594 543.3716 
L 212.138142 529.379343 
L 212.844689 530.29557 
L 213.551237 533.734249 
L 214.257785 529.560326 
L 214.964332 522.219199 
L 215.67088 522.060839 
L 216.377428 526.393122 
L 217.083975 524.210013 
L 217.790523 516.790837 
L 218.49707 514.082877 
L 219.203618 521.314284 
L 219.910166 526.879514 
L 220.616713 514.393942 
L 221.323261 512.33639 
L 222.029809 502.072386 
L 222.736356 500.203735 
L 223.442904 525.861484 
L 224.149452 538.496367 
L 224.855999 536.697848 
L 225.562547 529.97885 
L 226.269095 521.845921 
L 226.975642 489.834534 
L 227.68219 492.718952 
L 228.388738 492.93387 
L 229.095285 499.648343 
L 229.801833 501.192355 
L 230.50838 486.339298 
L 231.214928 465.831649 
L 231.921476 472.539336 
L 232.628023 496.70963 
L 233.334571 494.947307 
L 234.041119 494.449603 
L 234.747666 500.460505 
L 235.454214 499.16082 
L 236.160762 497.305743 
L 236.867309 511.672408 
L 237.573857 515.464005 
L 238.986952 483.647174 
L 240.400047 504.157085 
L 241.106595 491.078793 
L 241.813143 484.993236 
L 242.51969 471.080159 
L 243.226238 475.480311 
L 243.932786 488.115195 
L 245.345881 502.369877 
L 246.052429 499.797654 
L 246.758976 509.966643 
L 248.172072 518.212686 
L 248.878619 519.201306 
L 249.585167 508.192669 
L 250.291715 501.76019 
L 250.998262 515.92438 
L 251.70481 518.144817 
L 252.411357 496.406483 
L 253.117905 496.886088 
L 253.824453 506.892758 
L 254.531 502.735236 
L 255.237548 484.484221 
L 255.944096 484.563401 
L 256.650643 498.863329 
L 257.357191 507.475071 
L 258.063739 511.835293 
L 258.770286 510.481313 
L 259.476834 520.986252 
L 260.183382 521.393464 
L 260.889929 509.980216 
L 261.596477 510.440592 
L 262.303024 514.110025 
L 263.009572 511.361344 
L 263.71612 511.23918 
L 264.422667 515.057924 
L 265.129215 499.255836 
L 265.835763 478.930302 
L 266.54231 483.760288 
L 267.248858 490.400106 
L 267.955406 490.332238 
L 269.368501 511.848867 
L 270.075049 514.651843 
L 270.781596 518.713783 
L 271.488144 512.932503 
L 272.194692 509.844479 
L 272.901239 514.611122 
L 273.607787 515.396136 
L 274.314334 514.245762 
L 275.020882 518.95811 
L 275.72743 518.552029 
L 277.140525 489.291585 
L 277.847073 484.484221 
L 278.55362 485.999954 
L 280.673263 508.950988 
L 281.379811 508.314606 
L 282.086359 509.682725 
L 282.792906 519.821173 
L 283.499454 522.920509 
L 284.206001 522.977066 
L 284.912549 516.520493 
L 286.325644 521.438709 
L 287.032192 520.341499 
L 287.73874 513.500338 
L 288.445287 500.40621 
L 289.151835 497.603234 
L 289.858383 500.853012 
L 291.271478 505.511065 
L 291.978026 511.930309 
L 292.684573 516.425477 
L 293.391121 528.825083 
L 294.097669 525.929353 
L 294.804216 521.664938 
L 295.510764 521.189858 
L 296.217311 521.67625 
L 296.923859 519.832484 
L 298.336954 516.913001 
L 299.043502 512.674602 
L 299.75005 502.342729 
L 300.456597 501.056618 
L 301.163145 499.26941 
L 301.869693 498.727592 
L 303.282788 521.382152 
L 303.989336 513.257142 
L 304.695883 512.377111 
L 305.402431 532.659662 
L 306.108978 537.783746 
L 306.815526 538.994071 
L 307.522074 531.098683 
L 308.228621 531.833927 
L 308.935169 528.485739 
L 309.641717 511.293475 
L 310.348264 507.475071 
L 311.054812 480.253741 
L 311.76136 473.930643 
L 312.467907 490.03814 
L 313.174455 491.972397 
L 313.881003 497.346464 
L 314.58755 500.285177 
L 315.294098 509.708742 
L 316.000646 511.320623 
L 316.707193 497.779693 
L 317.413741 499.201541 
L 318.120288 499.905113 
L 318.826836 497.115711 
L 319.533384 531.709501 
L 320.239931 540.07997 
L 320.946479 506.202194 
L 321.653027 495.388453 
L 322.359574 490.343549 
L 323.066122 489.710108 
L 323.77267 497.008252 
L 324.479217 485.536185 
L 325.185765 487.097165 
L 325.892313 503.818873 
L 326.59886 493.137476 
L 327.305408 487.866343 
L 328.011955 487.538311 
L 328.718503 495.218782 
L 329.425051 499.296557 
L 330.131598 495.671239 
L 330.838146 523.293786 
L 331.544694 531.143929 
L 332.251241 517.103033 
L 332.957789 506.18862 
L 333.664337 491.712234 
L 334.370884 494.234686 
L 335.077432 501.571289 
L 335.78398 502.274861 
L 336.490527 502.397024 
L 337.197075 504.129937 
L 337.903623 511.361344 
L 338.61017 511.103443 
L 339.316718 507.854174 
L 340.023265 509.62843 
L 340.729813 508.761408 
L 341.436361 506.608275 
L 342.142908 513.121404 
L 342.849456 518.48416 
L 343.556004 513.527485 
L 344.262551 506.066457 
L 344.969099 503.73743 
L 345.675647 503.426366 
L 346.382194 499.539753 
L 347.79529 506.337931 
L 348.501837 507.583321 
L 349.208385 510.304855 
L 349.914932 514.665417 
L 350.62148 516.452625 
L 351.328028 515.531873 
L 352.034575 511.658835 
L 352.741123 509.22235 
L 353.447671 528.395248 
L 354.154218 531.132617 
L 354.860766 518.144817 
L 355.567314 513.595354 
L 356.273861 511.023132 
L 356.980409 511.036705 
L 357.686957 494.653209 
L 358.393504 487.798474 
L 359.100052 488.228309 
L 359.8066 495.433699 
L 360.513147 498.551133 
L 361.219695 514.990055 
L 361.926242 515.40971 
L 362.63279 511.71313 
L 363.339338 511.361344 
L 364.045885 508.53122 
L 364.752433 509.018744 
L 365.458981 517.631277 
L 366.165528 521.336906 
L 366.872076 513.608928 
L 367.578624 511.184885 
L 368.285171 526.7664 
L 368.991719 525.2846 
L 369.698267 493.748294 
L 370.404814 490.762072 
L 371.111362 494.709767 
L 371.81791 494.438292 
L 372.524457 490.219123 
L 373.231005 491.780102 
L 373.937552 497.210727 
L 375.350648 476.385227 
L 376.057195 497.455054 
L 376.763743 523.995096 
L 377.470291 538.213581 
L 378.176838 529.401966 
L 378.883386 508.923954 
L 379.589934 503.07458 
L 380.296481 513.744665 
L 381.003029 514.828301 
L 381.709577 511.56495 
L 382.416124 510.778804 
L 383.122672 503.642414 
L 384.535767 501.787337 
L 385.242315 505.41718 
L 385.948862 508.206243 
L 386.65541 509.980216 
L 387.361958 514.556827 
L 388.068505 512.187079 
L 388.775053 512.633881 
L 389.481601 512.674602 
L 390.188148 498.416527 
L 390.894696 497.833987 
L 391.601244 509.642004 
L 392.307791 509.696299 
L 393.014339 506.270063 
L 393.720887 509.059352 
L 394.427434 508.395822 
L 395.133982 502.221697 
L 395.840529 513.026388 
L 396.547077 521.811987 
L 397.253625 515.749053 
L 397.960172 512.241374 
L 398.66672 524.560668 
L 399.373268 531.087371 
L 400.079815 530.29557 
L 400.786363 520.205762 
L 401.492911 516.127986 
L 402.199458 518.727356 
L 402.906006 513.338584 
L 403.612554 510.995984 
L 404.319101 486.169626 
L 405.025649 486.803067 
L 405.732196 507.745867 
L 406.438744 509.642004 
L 407.145292 515.057924 
L 407.851839 522.422805 
L 408.558387 551.119939 
L 409.264935 553.382228 
L 409.971482 553.348294 
L 410.67803 551.074693 
L 411.384578 554.083538 
L 412.091125 552.511247 
L 412.797673 535.125557 
L 413.504221 540.713411 
L 414.210768 547.44372 
L 414.917316 540.905705 
L 415.623864 529.153114 
L 416.330411 525.273289 
L 417.036959 554.615176 
L 417.743506 566.458258 
L 418.450054 570.575623 
L 419.156602 566.198095 
L 419.863149 552.364198 
L 420.569697 546.256018 
L 421.276245 555.440911 
L 421.982792 583.810013 
L 422.68934 634.292989 
L 423.395888 637.12085 
L 424.102435 616.104187 
L 425.515531 582.588377 
L 426.928626 600.324722 
L 427.635173 599.646035 
L 428.341721 611.930264 
L 429.048269 607.04372 
L 429.754816 647.753608 
L 430.461364 664.494545 
L 431.167912 622.302858 
L 431.874459 595.223261 
L 432.581007 563.336299 
L 433.287555 562.046794 
L 433.994102 598.277351 
L 434.70065 610.233547 
L 435.407198 594.555885 
L 436.113745 598.288662 
L 436.820293 628.97661 
L 437.526841 631.804471 
L 438.233388 629.768411 
L 438.939936 633.953646 
L 439.646483 605.448806 
L 440.353031 593.707527 
L 441.059579 586.830169 
L 441.766126 590.981469 
L 442.472674 607.948635 
L 443.179222 610.25617 
L 443.885769 609.735844 
L 444.592317 615.278451 
L 445.298865 610.143056 
L 446.005412 599.793084 
L 446.71196 603.842581 
L 447.418508 599.2162 
L 448.125055 596.603257 
L 448.831603 598.763743 
L 450.244698 602.089307 
L 450.951246 610.165678 
L 451.657793 613.694849 
L 452.364341 598.492268 
L 453.070889 592.508514 
L 453.777436 569.591528 
L 454.483984 564.614492 
L 455.190532 557.205496 
L 455.897079 559.105819 
L 456.603627 573.21119 
L 457.310175 571.887751 
L 458.016722 560.519749 
L 458.72327 557.250742 
L 459.429818 551.266988 
L 460.136365 549.016011 
L 460.842913 546.369133 
L 461.54946 544.491433 
L 462.962556 559.648768 
L 463.669103 562.691547 
L 464.375651 559.73926 
L 465.082199 539.53702 
L 465.788746 535.691129 
L 466.495294 534.231953 
L 467.201842 532.25245 
L 467.908389 528.440493 
L 469.321485 528.847705 
L 470.028032 528.542296 
L 470.73458 534.808837 
L 471.441127 532.727531 
L 472.147675 531.766058 
L 472.854223 527.298038 
L 473.56077 526.698531 
L 474.267318 526.800334 
L 474.973866 527.840987 
L 475.680413 526.630662 
L 476.386961 527.422463 
L 477.093509 529.831801 
L 477.800056 529.051311 
L 478.506604 526.404433 
L 479.213152 525.804927 
L 479.919699 526.721154 
L 480.626247 526.902137 
L 481.332795 525.940664 
L 482.039342 526.178205 
L 482.74589 526.630662 
L 484.158985 527.852298 
L 484.865533 528.316068 
L 485.57208 527.716561 
L 486.278628 527.309349 
L 486.985176 525.307223 
L 487.691723 524.142145 
L 488.398271 519.832484 
L 489.104819 517.793031 
L 489.811366 511.916736 
L 491.224462 509.669152 
L 491.931009 509.22235 
L 492.637557 509.506267 
L 493.344104 509.329808 
L 494.050652 509.506267 
L 494.7572 509.37053 
L 495.463747 509.086612 
L 496.170295 509.059352 
L 496.876843 507.881253 
L 497.58339 507.651077 
L 498.289938 506.513259 
L 498.996486 506.44539 
L 499.703033 505.254295 
L 500.409581 504.983951 
L 501.116129 503.751004 
L 501.822676 503.818873 
L 502.529224 503.655988 
L 504.648867 504.184232 
L 505.355414 504.563166 
L 506.061962 504.685329 
L 506.76851 504.644608 
L 507.475057 504.455707 
L 508.181605 504.875362 
L 509.5947 504.644608 
L 512.420891 503.751004 
L 513.833986 503.73743 
L 515.247081 504.224954 
L 515.953629 504.658182 
L 516.660177 505.295016 
L 518.073272 506.215768 
L 519.486367 507.515679 
L 520.192915 507.772901 
L 520.899463 507.867714 
L 522.312558 508.341641 
L 523.019106 508.341641 
L 523.725653 508.138487 
L 525.845296 508.233277 
L 526.551844 508.070845 
L 527.258391 507.610469 
L 527.964939 507.569861 
L 528.671487 507.705259 
L 529.378034 507.664651 
L 531.497677 508.314606 
L 532.204225 508.382249 
L 532.910773 508.165634 
L 533.61732 508.273998 
L 535.030416 507.759441 
L 535.736963 507.827083 
L 536.443511 507.556287 
L 537.150058 507.475071 
L 537.856606 507.028156 
L 538.563154 506.85215 
L 539.269701 506.838576 
L 541.389344 507.312525 
L 542.095892 507.258344 
L 542.095892 507.258344 
" clip-path="url(#p81b1d34f03)" style="fill: none; stroke: #ff7f0e; stroke-width: 2; stroke-linecap: square"/>
   </g>
   <g id="patch_9">
    <path d="M 56.909624 678.04 
L 56.909624 380.04 
" style="fill: none; stroke: #000000; stroke-width: 0.8; stroke-linejoin: miter; stroke-linecap: square"/>
   </g>
   <g id="patch_10">
    <path d="M 565.2 678.04 
L 565.2 380.04 
" style="fill: none; stroke: #000000; stroke-width: 0.8; stroke-linejoin: miter; stroke-linecap: square"/>
   </g>
   <g id="patch_11">
    <path d="M 56.909624 678.04 
L 565.2 678.04 
" style="fill: none; stroke: #000000; stroke-width: 0.8; stroke-linejoin: miter; stroke-linecap: square"/>
   </g>
   <g id="patch_12">
    <path d="M 56.909624 380.04 
L 565.2 380.04 
" style="fill: none; stroke: #000000; stroke-width: 0.8; stroke-linejoin: miter; stroke-linecap: square"/>
   </g>
   <g id="text_38">
    <!-- Rotational Velocity -->
    <g transform="translate(255.17325 374.04)scale(0.12 -0.12)">
     <use xlink:href="#DejaVuSans-52"/>
     <use xlink:href="#DejaVuSans-6f" x="64.982422"/>
     <use xlink:href="#DejaVuSans-74" x="126.164062"/>
     <use xlink:href="#DejaVuSans-61" x="165.373047"/>
     <use xlink:href="#DejaVuSans-74" x="226.652344"/>
     <use xlink:href="#DejaVuSans-69" x="265.861328"/>
     <use xlink:href="#DejaVuSans-6f" x="293.644531"/>
     <use xlink:href="#DejaVuSans-6e" x="354.826172"/>
     <use xlink:href="#DejaVuSans-61" x="418.205078"/>
     <use xlink:href="#DejaVuSans-6c" x="479.484375"/>
     <use xlink:href="#DejaVuSans-20" x="507.267578"/>
     <use xlink:href="#DejaVuSans-56" x="539.054688"/>
     <use xlink:href="#DejaVuSans-65" x="599.712891"/>
     <use xlink:href="#DejaVuSans-6c" x="661.236328"/>
     <use xlink:href="#DejaVuSans-6f" x="689.019531"/>
     <use xlink:href="#DejaVuSans-63" x="750.201172"/>
     <use xlink:href="#DejaVuSans-69" x="805.181641"/>
     <use xlink:href="#DejaVuSans-74" x="832.964844"/>
     <use xlink:href="#DejaVuSans-79" x="872.173828"/>
    </g>
   </g>
   <g id="legend_2">
    <g id="patch_13">
     <path d="M 475.682812 417.39625 
L 558.2 417.39625 
Q 560.2 417.39625 560.2 415.39625 
L 560.2 387.04 
Q 560.2 385.04 558.2 385.04 
L 475.682812 385.04 
Q 473.682812 385.04 473.682812 387.04 
L 473.682812 415.39625 
Q 473.682812 417.39625 475.682812 417.39625 
z
" style="fill: #ffffff; opacity: 0.8; stroke: #cccccc; stroke-linejoin: miter"/>
    </g>
    <g id="line2d_63">
     <path d="M 477.682812 393.138438 
L 487.682812 393.138438 
L 497.682812 393.138438 
" style="fill: none; stroke: #1f77b4; stroke-width: 2; stroke-linecap: square"/>
    </g>
    <g id="text_39">
     <!-- Reference -->
     <g transform="translate(505.682812 396.638438)scale(0.1 -0.1)">
      <use xlink:href="#DejaVuSans-52"/>
      <use xlink:href="#DejaVuSans-65" x="64.982422"/>
      <use xlink:href="#DejaVuSans-66" x="126.505859"/>
      <use xlink:href="#DejaVuSans-65" x="161.710938"/>
      <use xlink:href="#DejaVuSans-72" x="223.234375"/>
      <use xlink:href="#DejaVuSans-65" x="262.097656"/>
      <use xlink:href="#DejaVuSans-6e" x="323.621094"/>
      <use xlink:href="#DejaVuSans-63" x="387"/>
      <use xlink:href="#DejaVuSans-65" x="441.980469"/>
     </g>
    </g>
    <g id="line2d_64">
     <path d="M 477.682812 407.816563 
L 487.682812 407.816563 
L 497.682812 407.816563 
" style="fill: none; stroke: #ff7f0e; stroke-width: 2; stroke-linecap: square"/>
    </g>
    <g id="text_40">
     <!-- Estimated -->
     <g transform="translate(505.682812 411.316563)scale(0.1 -0.1)">
      <use xlink:href="#DejaVuSans-45"/>
      <use xlink:href="#DejaVuSans-73" x="63.183594"/>
      <use xlink:href="#DejaVuSans-74" x="115.283203"/>
      <use xlink:href="#DejaVuSans-69" x="154.492188"/>
      <use xlink:href="#DejaVuSans-6d" x="182.275391"/>
      <use xlink:href="#DejaVuSans-61" x="279.6875"/>
      <use xlink:href="#DejaVuSans-74" x="340.966797"/>
      <use xlink:href="#DejaVuSans-65" x="380.175781"/>
      <use xlink:href="#DejaVuSans-64" x="441.699219"/>
     </g>
    </g>
   </g>
  </g>
 </g>
 <defs>
  <clipPath id="ped2413219b">
   <rect x="56.909624" y="25.44" width="508.290376" height="298"/>
  </clipPath>
  <clipPath id="p81b1d34f03">
   <rect x="56.909624" y="380.04" width="508.290376" height="298"/>
  </clipPath>
 </defs>
</svg>
