<?xml version="1.0" encoding="utf-8" standalone="no"?>
<!DOCTYPE svg PUBLIC "-//W3C//DTD SVG 1.1//EN"
  "http://www.w3.org/Graphics/SVG/1.1/DTD/svg11.dtd">
<svg xmlns:xlink="http://www.w3.org/1999/xlink" width="460.8pt" height="345.6pt" viewBox="0 0 460.8 345.6" xmlns="http://www.w3.org/2000/svg" version="1.1">
 <metadata>
  <rdf:RDF xmlns:dc="http://purl.org/dc/elements/1.1/" xmlns:cc="http://creativecommons.org/ns#" xmlns:rdf="http://www.w3.org/1999/02/22-rdf-syntax-ns#">
   <cc:Work>
    <dc:type rdf:resource="http://purl.org/dc/dcmitype/StillImage"/>
    <dc:date>2022-01-15T16:13:39.921008</dc:date>
    <dc:format>image/svg+xml</dc:format>
    <dc:creator>
     <cc:Agent>
      <dc:title>Matplotlib v3.5.1, https://matplotlib.org/</dc:title>
     </cc:Agent>
    </dc:creator>
   </cc:Work>
  </rdf:RDF>
 </metadata>
 <defs>
  <style type="text/css">*{stroke-linejoin: round; stroke-linecap: butt}</style>
 </defs>
 <g id="figure_1">
  <g id="patch_1">
   <path d="M 0 345.6 
L 460.8 345.6 
L 460.8 0 
L 0 0 
z
" style="fill: #ffffff"/>
  </g>
  <g id="axes_1">
   <g id="patch_2">
    <path d="M 55.760938 161.67875 
L 450 161.67875 
L 450 33.21375 
L 55.760938 33.21375 
z
" style="fill: #ffffff"/>
   </g>
   <g id="matplotlib.axis_1">
    <g id="xtick_1">
     <g id="line2d_1">
      <path d="M 73.680895 161.67875 
L 73.680895 33.21375 
" clip-path="url(#pcae737d6ad)" style="fill: none; stroke: #b0b0b0; stroke-width: 0.8; stroke-linecap: square"/>
     </g>
     <g id="line2d_2">
      <defs>
       <path id="ma7a64c980f" d="M 0 0 
L 0 3.5 
" style="stroke: #000000; stroke-width: 0.8"/>
      </defs>
      <g>
       <use xlink:href="#ma7a64c980f" x="73.680895" y="161.67875" style="stroke: #000000; stroke-width: 0.8"/>
      </g>
     </g>
    </g>
    <g id="xtick_2">
     <g id="line2d_3">
      <path d="M 118.257903 161.67875 
L 118.257903 33.21375 
" clip-path="url(#pcae737d6ad)" style="fill: none; stroke: #b0b0b0; stroke-width: 0.8; stroke-linecap: square"/>
     </g>
     <g id="line2d_4">
      <g>
       <use xlink:href="#ma7a64c980f" x="118.257903" y="161.67875" style="stroke: #000000; stroke-width: 0.8"/>
      </g>
     </g>
    </g>
    <g id="xtick_3">
     <g id="line2d_5">
      <path d="M 162.834912 161.67875 
L 162.834912 33.21375 
" clip-path="url(#pcae737d6ad)" style="fill: none; stroke: #b0b0b0; stroke-width: 0.8; stroke-linecap: square"/>
     </g>
     <g id="line2d_6">
      <g>
       <use xlink:href="#ma7a64c980f" x="162.834912" y="161.67875" style="stroke: #000000; stroke-width: 0.8"/>
      </g>
     </g>
    </g>
    <g id="xtick_4">
     <g id="line2d_7">
      <path d="M 207.41192 161.67875 
L 207.41192 33.21375 
" clip-path="url(#pcae737d6ad)" style="fill: none; stroke: #b0b0b0; stroke-width: 0.8; stroke-linecap: square"/>
     </g>
     <g id="line2d_8">
      <g>
       <use xlink:href="#ma7a64c980f" x="207.41192" y="161.67875" style="stroke: #000000; stroke-width: 0.8"/>
      </g>
     </g>
    </g>
    <g id="xtick_5">
     <g id="line2d_9">
      <path d="M 251.988929 161.67875 
L 251.988929 33.21375 
" clip-path="url(#pcae737d6ad)" style="fill: none; stroke: #b0b0b0; stroke-width: 0.8; stroke-linecap: square"/>
     </g>
     <g id="line2d_10">
      <g>
       <use xlink:href="#ma7a64c980f" x="251.988929" y="161.67875" style="stroke: #000000; stroke-width: 0.8"/>
      </g>
     </g>
    </g>
    <g id="xtick_6">
     <g id="line2d_11">
      <path d="M 296.565937 161.67875 
L 296.565937 33.21375 
" clip-path="url(#pcae737d6ad)" style="fill: none; stroke: #b0b0b0; stroke-width: 0.8; stroke-linecap: square"/>
     </g>
     <g id="line2d_12">
      <g>
       <use xlink:href="#ma7a64c980f" x="296.565937" y="161.67875" style="stroke: #000000; stroke-width: 0.8"/>
      </g>
     </g>
    </g>
    <g id="xtick_7">
     <g id="line2d_13">
      <path d="M 341.142945 161.67875 
L 341.142945 33.21375 
" clip-path="url(#pcae737d6ad)" style="fill: none; stroke: #b0b0b0; stroke-width: 0.8; stroke-linecap: square"/>
     </g>
     <g id="line2d_14">
      <g>
       <use xlink:href="#ma7a64c980f" x="341.142945" y="161.67875" style="stroke: #000000; stroke-width: 0.8"/>
      </g>
     </g>
    </g>
    <g id="xtick_8">
     <g id="line2d_15">
      <path d="M 385.719954 161.67875 
L 385.719954 33.21375 
" clip-path="url(#pcae737d6ad)" style="fill: none; stroke: #b0b0b0; stroke-width: 0.8; stroke-linecap: square"/>
     </g>
     <g id="line2d_16">
      <g>
       <use xlink:href="#ma7a64c980f" x="385.719954" y="161.67875" style="stroke: #000000; stroke-width: 0.8"/>
      </g>
     </g>
    </g>
    <g id="xtick_9">
     <g id="line2d_17">
      <path d="M 430.296962 161.67875 
L 430.296962 33.21375 
" clip-path="url(#pcae737d6ad)" style="fill: none; stroke: #b0b0b0; stroke-width: 0.8; stroke-linecap: square"/>
     </g>
     <g id="line2d_18">
      <g>
       <use xlink:href="#ma7a64c980f" x="430.296962" y="161.67875" style="stroke: #000000; stroke-width: 0.8"/>
      </g>
     </g>
    </g>
   </g>
   <g id="matplotlib.axis_2">
    <g id="ytick_1">
     <g id="line2d_19">
      <path d="M 55.760938 149.954573 
L 450 149.954573 
" clip-path="url(#pcae737d6ad)" style="fill: none; stroke: #b0b0b0; stroke-width: 0.8; stroke-linecap: square"/>
     </g>
     <g id="line2d_20">
      <defs>
       <path id="m6854f3c1ae" d="M 0 0 
L -3.5 0 
" style="stroke: #000000; stroke-width: 0.8"/>
      </defs>
      <g>
       <use xlink:href="#m6854f3c1ae" x="55.760938" y="149.954573" style="stroke: #000000; stroke-width: 0.8"/>
      </g>
     </g>
     <g id="text_1">
      <!-- 0 -->
      <g transform="translate(42.398438 153.753792)scale(0.1 -0.1)">
       <defs>
        <path id="DejaVuSans-30" d="M 2034 4250 
Q 1547 4250 1301 3770 
Q 1056 3291 1056 2328 
Q 1056 1369 1301 889 
Q 1547 409 2034 409 
Q 2525 409 2770 889 
Q 3016 1369 3016 2328 
Q 3016 3291 2770 3770 
Q 2525 4250 2034 4250 
z
M 2034 4750 
Q 2819 4750 3233 4129 
Q 3647 3509 3647 2328 
Q 3647 1150 3233 529 
Q 2819 -91 2034 -91 
Q 1250 -91 836 529 
Q 422 1150 422 2328 
Q 422 3509 836 4129 
Q 1250 4750 2034 4750 
z
" transform="scale(0.015625)"/>
       </defs>
       <use xlink:href="#DejaVuSans-30"/>
      </g>
     </g>
    </g>
    <g id="ytick_2">
     <g id="line2d_21">
      <path d="M 55.760938 118.493153 
L 450 118.493153 
" clip-path="url(#pcae737d6ad)" style="fill: none; stroke: #b0b0b0; stroke-width: 0.8; stroke-linecap: square"/>
     </g>
     <g id="line2d_22">
      <g>
       <use xlink:href="#m6854f3c1ae" x="55.760938" y="118.493153" style="stroke: #000000; stroke-width: 0.8"/>
      </g>
     </g>
     <g id="text_2">
      <!-- 200 -->
      <g transform="translate(29.673438 122.292372)scale(0.1 -0.1)">
       <defs>
        <path id="DejaVuSans-32" d="M 1228 531 
L 3431 531 
L 3431 0 
L 469 0 
L 469 531 
Q 828 903 1448 1529 
Q 2069 2156 2228 2338 
Q 2531 2678 2651 2914 
Q 2772 3150 2772 3378 
Q 2772 3750 2511 3984 
Q 2250 4219 1831 4219 
Q 1534 4219 1204 4116 
Q 875 4013 500 3803 
L 500 4441 
Q 881 4594 1212 4672 
Q 1544 4750 1819 4750 
Q 2544 4750 2975 4387 
Q 3406 4025 3406 3419 
Q 3406 3131 3298 2873 
Q 3191 2616 2906 2266 
Q 2828 2175 2409 1742 
Q 1991 1309 1228 531 
z
" transform="scale(0.015625)"/>
       </defs>
       <use xlink:href="#DejaVuSans-32"/>
       <use xlink:href="#DejaVuSans-30" x="63.623047"/>
       <use xlink:href="#DejaVuSans-30" x="127.246094"/>
      </g>
     </g>
    </g>
    <g id="ytick_3">
     <g id="line2d_23">
      <path d="M 55.760938 87.031733 
L 450 87.031733 
" clip-path="url(#pcae737d6ad)" style="fill: none; stroke: #b0b0b0; stroke-width: 0.8; stroke-linecap: square"/>
     </g>
     <g id="line2d_24">
      <g>
       <use xlink:href="#m6854f3c1ae" x="55.760938" y="87.031733" style="stroke: #000000; stroke-width: 0.8"/>
      </g>
     </g>
     <g id="text_3">
      <!-- 400 -->
      <g transform="translate(29.673438 90.830952)scale(0.1 -0.1)">
       <defs>
        <path id="DejaVuSans-34" d="M 2419 4116 
L 825 1625 
L 2419 1625 
L 2419 4116 
z
M 2253 4666 
L 3047 4666 
L 3047 1625 
L 3713 1625 
L 3713 1100 
L 3047 1100 
L 3047 0 
L 2419 0 
L 2419 1100 
L 313 1100 
L 313 1709 
L 2253 4666 
z
" transform="scale(0.015625)"/>
       </defs>
       <use xlink:href="#DejaVuSans-34"/>
       <use xlink:href="#DejaVuSans-30" x="63.623047"/>
       <use xlink:href="#DejaVuSans-30" x="127.246094"/>
      </g>
     </g>
    </g>
    <g id="ytick_4">
     <g id="line2d_25">
      <path d="M 55.760938 55.570314 
L 450 55.570314 
" clip-path="url(#pcae737d6ad)" style="fill: none; stroke: #b0b0b0; stroke-width: 0.8; stroke-linecap: square"/>
     </g>
     <g id="line2d_26">
      <g>
       <use xlink:href="#m6854f3c1ae" x="55.760938" y="55.570314" style="stroke: #000000; stroke-width: 0.8"/>
      </g>
     </g>
     <g id="text_4">
      <!-- 600 -->
      <g transform="translate(29.673438 59.369532)scale(0.1 -0.1)">
       <defs>
        <path id="DejaVuSans-36" d="M 2113 2584 
Q 1688 2584 1439 2293 
Q 1191 2003 1191 1497 
Q 1191 994 1439 701 
Q 1688 409 2113 409 
Q 2538 409 2786 701 
Q 3034 994 3034 1497 
Q 3034 2003 2786 2293 
Q 2538 2584 2113 2584 
z
M 3366 4563 
L 3366 3988 
Q 3128 4100 2886 4159 
Q 2644 4219 2406 4219 
Q 1781 4219 1451 3797 
Q 1122 3375 1075 2522 
Q 1259 2794 1537 2939 
Q 1816 3084 2150 3084 
Q 2853 3084 3261 2657 
Q 3669 2231 3669 1497 
Q 3669 778 3244 343 
Q 2819 -91 2113 -91 
Q 1303 -91 875 529 
Q 447 1150 447 2328 
Q 447 3434 972 4092 
Q 1497 4750 2381 4750 
Q 2619 4750 2861 4703 
Q 3103 4656 3366 4563 
z
" transform="scale(0.015625)"/>
       </defs>
       <use xlink:href="#DejaVuSans-36"/>
       <use xlink:href="#DejaVuSans-30" x="63.623047"/>
       <use xlink:href="#DejaVuSans-30" x="127.246094"/>
      </g>
     </g>
    </g>
    <g id="text_5">
     <!-- trans. vel. [mm/s] -->
     <g transform="translate(23.59375 142.011875)rotate(-90)scale(0.1 -0.1)">
      <defs>
       <path id="DejaVuSans-74" d="M 1172 4494 
L 1172 3500 
L 2356 3500 
L 2356 3053 
L 1172 3053 
L 1172 1153 
Q 1172 725 1289 603 
Q 1406 481 1766 481 
L 2356 481 
L 2356 0 
L 1766 0 
Q 1100 0 847 248 
Q 594 497 594 1153 
L 594 3053 
L 172 3053 
L 172 3500 
L 594 3500 
L 594 4494 
L 1172 4494 
z
" transform="scale(0.015625)"/>
       <path id="DejaVuSans-72" d="M 2631 2963 
Q 2534 3019 2420 3045 
Q 2306 3072 2169 3072 
Q 1681 3072 1420 2755 
Q 1159 2438 1159 1844 
L 1159 0 
L 581 0 
L 581 3500 
L 1159 3500 
L 1159 2956 
Q 1341 3275 1631 3429 
Q 1922 3584 2338 3584 
Q 2397 3584 2469 3576 
Q 2541 3569 2628 3553 
L 2631 2963 
z
" transform="scale(0.015625)"/>
       <path id="DejaVuSans-61" d="M 2194 1759 
Q 1497 1759 1228 1600 
Q 959 1441 959 1056 
Q 959 750 1161 570 
Q 1363 391 1709 391 
Q 2188 391 2477 730 
Q 2766 1069 2766 1631 
L 2766 1759 
L 2194 1759 
z
M 3341 1997 
L 3341 0 
L 2766 0 
L 2766 531 
Q 2569 213 2275 61 
Q 1981 -91 1556 -91 
Q 1019 -91 701 211 
Q 384 513 384 1019 
Q 384 1609 779 1909 
Q 1175 2209 1959 2209 
L 2766 2209 
L 2766 2266 
Q 2766 2663 2505 2880 
Q 2244 3097 1772 3097 
Q 1472 3097 1187 3025 
Q 903 2953 641 2809 
L 641 3341 
Q 956 3463 1253 3523 
Q 1550 3584 1831 3584 
Q 2591 3584 2966 3190 
Q 3341 2797 3341 1997 
z
" transform="scale(0.015625)"/>
       <path id="DejaVuSans-6e" d="M 3513 2113 
L 3513 0 
L 2938 0 
L 2938 2094 
Q 2938 2591 2744 2837 
Q 2550 3084 2163 3084 
Q 1697 3084 1428 2787 
Q 1159 2491 1159 1978 
L 1159 0 
L 581 0 
L 581 3500 
L 1159 3500 
L 1159 2956 
Q 1366 3272 1645 3428 
Q 1925 3584 2291 3584 
Q 2894 3584 3203 3211 
Q 3513 2838 3513 2113 
z
" transform="scale(0.015625)"/>
       <path id="DejaVuSans-73" d="M 2834 3397 
L 2834 2853 
Q 2591 2978 2328 3040 
Q 2066 3103 1784 3103 
Q 1356 3103 1142 2972 
Q 928 2841 928 2578 
Q 928 2378 1081 2264 
Q 1234 2150 1697 2047 
L 1894 2003 
Q 2506 1872 2764 1633 
Q 3022 1394 3022 966 
Q 3022 478 2636 193 
Q 2250 -91 1575 -91 
Q 1294 -91 989 -36 
Q 684 19 347 128 
L 347 722 
Q 666 556 975 473 
Q 1284 391 1588 391 
Q 1994 391 2212 530 
Q 2431 669 2431 922 
Q 2431 1156 2273 1281 
Q 2116 1406 1581 1522 
L 1381 1569 
Q 847 1681 609 1914 
Q 372 2147 372 2553 
Q 372 3047 722 3315 
Q 1072 3584 1716 3584 
Q 2034 3584 2315 3537 
Q 2597 3491 2834 3397 
z
" transform="scale(0.015625)"/>
       <path id="DejaVuSans-2e" d="M 684 794 
L 1344 794 
L 1344 0 
L 684 0 
L 684 794 
z
" transform="scale(0.015625)"/>
       <path id="DejaVuSans-20" transform="scale(0.015625)"/>
       <path id="DejaVuSans-76" d="M 191 3500 
L 800 3500 
L 1894 563 
L 2988 3500 
L 3597 3500 
L 2284 0 
L 1503 0 
L 191 3500 
z
" transform="scale(0.015625)"/>
       <path id="DejaVuSans-65" d="M 3597 1894 
L 3597 1613 
L 953 1613 
Q 991 1019 1311 708 
Q 1631 397 2203 397 
Q 2534 397 2845 478 
Q 3156 559 3463 722 
L 3463 178 
Q 3153 47 2828 -22 
Q 2503 -91 2169 -91 
Q 1331 -91 842 396 
Q 353 884 353 1716 
Q 353 2575 817 3079 
Q 1281 3584 2069 3584 
Q 2775 3584 3186 3129 
Q 3597 2675 3597 1894 
z
M 3022 2063 
Q 3016 2534 2758 2815 
Q 2500 3097 2075 3097 
Q 1594 3097 1305 2825 
Q 1016 2553 972 2059 
L 3022 2063 
z
" transform="scale(0.015625)"/>
       <path id="DejaVuSans-6c" d="M 603 4863 
L 1178 4863 
L 1178 0 
L 603 0 
L 603 4863 
z
" transform="scale(0.015625)"/>
       <path id="DejaVuSans-5b" d="M 550 4863 
L 1875 4863 
L 1875 4416 
L 1125 4416 
L 1125 -397 
L 1875 -397 
L 1875 -844 
L 550 -844 
L 550 4863 
z
" transform="scale(0.015625)"/>
       <path id="DejaVuSans-6d" d="M 3328 2828 
Q 3544 3216 3844 3400 
Q 4144 3584 4550 3584 
Q 5097 3584 5394 3201 
Q 5691 2819 5691 2113 
L 5691 0 
L 5113 0 
L 5113 2094 
Q 5113 2597 4934 2840 
Q 4756 3084 4391 3084 
Q 3944 3084 3684 2787 
Q 3425 2491 3425 1978 
L 3425 0 
L 2847 0 
L 2847 2094 
Q 2847 2600 2669 2842 
Q 2491 3084 2119 3084 
Q 1678 3084 1418 2786 
Q 1159 2488 1159 1978 
L 1159 0 
L 581 0 
L 581 3500 
L 1159 3500 
L 1159 2956 
Q 1356 3278 1631 3431 
Q 1906 3584 2284 3584 
Q 2666 3584 2933 3390 
Q 3200 3197 3328 2828 
z
" transform="scale(0.015625)"/>
       <path id="DejaVuSans-2f" d="M 1625 4666 
L 2156 4666 
L 531 -594 
L 0 -594 
L 1625 4666 
z
" transform="scale(0.015625)"/>
       <path id="DejaVuSans-5d" d="M 1947 4863 
L 1947 -844 
L 622 -844 
L 622 -397 
L 1369 -397 
L 1369 4416 
L 622 4416 
L 622 4863 
L 1947 4863 
z
" transform="scale(0.015625)"/>
      </defs>
      <use xlink:href="#DejaVuSans-74"/>
      <use xlink:href="#DejaVuSans-72" x="39.208984"/>
      <use xlink:href="#DejaVuSans-61" x="80.322266"/>
      <use xlink:href="#DejaVuSans-6e" x="141.601562"/>
      <use xlink:href="#DejaVuSans-73" x="204.980469"/>
      <use xlink:href="#DejaVuSans-2e" x="257.080078"/>
      <use xlink:href="#DejaVuSans-20" x="288.867188"/>
      <use xlink:href="#DejaVuSans-76" x="320.654297"/>
      <use xlink:href="#DejaVuSans-65" x="379.833984"/>
      <use xlink:href="#DejaVuSans-6c" x="441.357422"/>
      <use xlink:href="#DejaVuSans-2e" x="469.140625"/>
      <use xlink:href="#DejaVuSans-20" x="500.927734"/>
      <use xlink:href="#DejaVuSans-5b" x="532.714844"/>
      <use xlink:href="#DejaVuSans-6d" x="571.728516"/>
      <use xlink:href="#DejaVuSans-6d" x="669.140625"/>
      <use xlink:href="#DejaVuSans-2f" x="766.552734"/>
      <use xlink:href="#DejaVuSans-73" x="800.244141"/>
      <use xlink:href="#DejaVuSans-5d" x="852.34375"/>
     </g>
    </g>
   </g>
   <g id="line2d_27">
    <path d="M 73.680895 149.954573 
L 74.572435 149.879066 
L 75.909745 149.482652 
L 77.247056 148.746455 
L 78.584366 147.670474 
L 79.921676 146.25471 
L 81.258986 144.499163 
L 82.596297 142.403832 
L 83.933607 139.968719 
L 85.716687 136.193348 
L 87.499767 131.817065 
L 89.282848 126.83043 
L 91.957468 118.461692 
L 105.330571 76.334851 
L 107.113651 71.631368 
L 108.896732 67.525653 
L 110.679812 64.033436 
L 112.017122 61.799675 
L 113.354432 59.91199 
L 114.691743 58.37038 
L 116.029053 57.159115 
L 117.366363 56.293926 
L 118.257903 55.900659 
L 119.149443 55.664698 
L 120.486754 55.570314 
L 342.034486 55.648967 
L 343.371796 56.042235 
L 344.263336 56.498426 
L 345.600646 57.457999 
L 346.937957 58.763648 
L 348.275267 60.399642 
L 349.612577 62.381711 
L 350.949887 64.709856 
L 352.732968 68.327919 
L 354.516048 72.55948 
L 356.299128 77.388808 
L 358.527979 84.231667 
L 372.792621 129.190036 
L 374.575702 133.893518 
L 376.358782 137.994514 
L 378.141862 141.493024 
L 379.479173 143.720493 
L 380.816483 145.609751 
L 382.153793 147.157653 
L 383.491103 148.365772 
L 384.828414 149.235522 
L 386.165724 149.764704 
L 387.503034 149.954014 
L 432.080043 149.954573 
L 432.080043 149.954573 
" clip-path="url(#pcae737d6ad)" style="fill: none; stroke: #1f77b4; stroke-width: 2; stroke-linecap: square"/>
   </g>
   <g id="line2d_28">
    <path d="M 73.680895 149.954573 
L 74.126665 149.885311 
L 74.572435 150.003795 
L 75.909745 149.923301 
L 77.692826 149.954304 
L 79.030136 149.61652 
L 81.704756 147.160799 
L 82.150526 146.616517 
L 83.487837 144.525905 
L 83.933607 143.420036 
L 84.379377 142.875754 
L 85.270917 141.027395 
L 86.608227 135.987276 
L 87.053997 133.783403 
L 87.945538 128.513616 
L 88.837078 124.061825 
L 90.620158 110.800836 
L 91.511698 106.632198 
L 92.849009 99.647763 
L 93.740549 95.101588 
L 94.186319 93.339748 
L 94.632089 92.553213 
L 95.077859 92.584674 
L 95.969399 89.658762 
L 96.415169 89.265494 
L 96.860939 88.573343 
L 97.752479 86.607004 
L 98.19825 87.802538 
L 98.64402 87.000272 
L 99.08979 85.568777 
L 99.53556 87.141848 
L 99.98133 87.519385 
L 100.87287 90.681258 
L 101.31864 91.279025 
L 101.76441 92.207137 
L 102.21018 92.285791 
L 102.65595 91.562178 
L 103.10172 92.018369 
L 104.439031 88.526151 
L 105.330571 84.577743 
L 105.776341 82.73725 
L 106.222111 81.510254 
L 106.667881 80.97541 
L 107.113651 81.447331 
L 107.559421 82.422635 
L 108.005191 84.042899 
L 108.450961 84.986741 
L 108.896732 84.577743 
L 109.342502 85.018203 
L 109.788272 85.663162 
L 110.234042 83.838399 
L 111.571352 74.808972 
L 112.017122 75.359547 
L 112.462892 73.990975 
L 112.908662 76.523619 
L 113.354432 75.123586 
L 113.800202 75.312355 
L 114.245973 75.280893 
L 114.691743 74.038167 
L 116.920593 56.640002 
L 117.366363 52.282595 
L 117.812133 51.448868 
L 118.257903 54.138819 
L 118.703673 54.075896 
L 119.149443 54.37478 
L 119.595214 56.199542 
L 120.040984 60.053566 
L 120.486754 61.90979 
L 120.932524 61.658098 
L 121.378294 61.815405 
L 121.824064 62.822171 
L 122.269834 62.208673 
L 122.715604 62.255865 
L 123.161374 61.579445 
L 123.607144 62.413172 
L 124.944455 61.107524 
L 125.390225 58.071496 
L 125.835995 59.392876 
L 126.281765 57.111923 
L 126.727535 56.073696 
L 127.173305 56.986078 
L 128.510615 49.624105 
L 128.956385 49.970181 
L 129.402155 52.376979 
L 129.847926 53.666898 
L 130.293696 53.855666 
L 131.185236 51.385945 
L 131.631006 52.424172 
L 132.076776 50.646601 
L 133.414086 43.913858 
L 133.859856 42.387979 
L 134.305626 42.262133 
L 134.751396 41.475598 
L 135.197167 39.053068 
L 135.642937 39.776681 
L 136.088707 43.111591 
L 136.534477 45.172314 
L 136.980247 46.210541 
L 137.426017 43.363283 
L 137.871787 47.846535 
L 138.317557 44.086895 
L 138.763327 45.188045 
L 139.209097 49.985912 
L 139.654867 49.71849 
L 140.100637 50.300526 
L 140.992178 56.199542 
L 141.437948 57.520922 
L 141.883718 56.860232 
L 142.329488 56.986078 
L 142.775258 57.678229 
L 143.221028 57.992843 
L 144.112568 56.278196 
L 144.558338 55.177046 
L 145.004108 52.880362 
L 145.449878 53.603975 
L 145.895649 52.848901 
L 146.341419 52.376979 
L 146.787189 51.417406 
L 147.232959 51.480329 
L 147.678729 51.967981 
L 148.570269 54.579279 
L 149.016039 57.143385 
L 149.461809 54.909624 
L 149.907579 56.341118 
L 150.353349 60.981678 
L 150.799119 59.565914 
L 151.69066 60.824371 
L 152.13643 60.997409 
L 152.5822 62.916555 
L 153.02797 63.309823 
L 153.47374 62.444634 
L 153.91951 62.240135 
L 154.36528 61.532253 
L 154.81105 61.862598 
L 155.70259 59.770413 
L 156.594131 55.900659 
L 157.039901 56.168081 
L 157.485671 56.923155 
L 157.931441 56.970347 
L 158.377211 55.727621 
L 158.822981 55.350084 
L 159.268751 54.689394 
L 159.714521 57.410807 
L 160.160291 56.262465 
L 160.606061 56.293926 
L 161.051831 57.442268 
L 161.497601 56.561348 
L 161.943372 58.118689 
L 162.389142 58.527687 
L 162.834912 57.92992 
L 163.280682 56.089427 
L 163.726452 55.350084 
L 164.172222 55.334353 
L 164.617992 55.601775 
L 165.063762 54.264665 
L 165.509532 53.698359 
L 165.955302 52.770247 
L 166.401072 52.896093 
L 166.846842 52.439902 
L 167.292613 52.723055 
L 167.738383 52.282595 
L 168.184153 51.433137 
L 168.629923 53.006208 
L 169.075693 55.145584 
L 169.521463 53.289361 
L 169.967233 54.201742 
L 170.413003 52.439902 
L 170.858773 52.376979 
L 171.304543 55.350084 
L 171.750313 54.909624 
L 172.196084 55.444468 
L 172.641854 55.208507 
L 173.087624 52.581479 
L 173.533394 52.675863 
L 173.979164 53.572513 
L 174.424934 53.49386 
L 175.316474 50.819639 
L 175.762244 50.662332 
L 176.208014 51.417406 
L 176.653784 51.087061 
L 177.099554 51.401675 
L 177.545325 52.660132 
L 177.991095 53.084861 
L 178.436865 54.012973 
L 178.882635 54.233203 
L 179.328405 52.046635 
L 179.774175 53.478129 
L 180.219945 52.707324 
L 180.665715 55.145584 
L 181.111485 58.968147 
L 181.557255 59.581645 
L 182.003025 59.628837 
L 182.448795 58.480495 
L 182.894566 57.788344 
L 183.340336 57.347884 
L 184.677646 52.376979 
L 186.460726 55.680429 
L 187.352266 61.296292 
L 187.798036 61.170446 
L 188.243807 61.547983 
L 188.689577 59.424338 
L 189.135347 61.846867 
L 190.026887 58.244534 
L 190.472657 62.224404 
L 190.918427 59.786144 
L 191.364197 58.653533 
L 191.809967 56.891693 
L 192.255737 54.579279 
L 192.701507 53.49386 
L 193.147277 51.543252 
L 193.593048 52.109557 
L 194.038818 52.361249 
L 194.484588 51.794943 
L 195.376128 55.161315 
L 195.821898 55.49166 
L 196.267668 56.451233 
L 197.159208 60.619872 
L 197.604978 60.195142 
L 198.050748 62.019905 
L 198.496518 58.622071 
L 198.942289 59.534453 
L 199.388059 56.435503 
L 199.833829 55.287161 
L 200.279599 54.862432 
L 200.725369 56.262465 
L 201.616909 54.217473 
L 202.062679 54.17028 
L 202.508449 54.925355 
L 202.954219 53.49386 
L 203.399989 53.666898 
L 204.29153 52.298326 
L 204.7373 52.959016 
L 205.18307 53.257899 
L 205.62884 53.399476 
L 206.07461 51.842135 
L 206.52038 54.783778 
L 206.96615 53.808474 
L 207.41192 54.17028 
L 207.85769 56.702925 
L 208.30346 56.860232 
L 208.74923 55.774813 
L 209.195 56.010773 
L 209.640771 57.48946 
L 210.086541 58.071496 
L 210.532311 58.071496 
L 210.978081 56.278196 
L 211.423851 55.869197 
L 211.869621 55.963581 
L 212.315391 55.853466 
L 212.761161 55.334353 
L 213.652701 54.091627 
L 214.098471 52.723055 
L 214.544242 56.105158 
L 214.990012 54.532087 
L 215.435782 54.280395 
L 215.881552 56.341118 
L 216.327322 55.916389 
L 216.773092 58.213073 
L 217.218862 59.754682 
L 217.664632 57.819805 
L 218.110402 57.536652 
L 218.556172 56.734386 
L 219.001942 58.040035 
L 219.893483 56.451233 
L 220.339253 56.466964 
L 220.785023 54.280395 
L 221.676563 53.257899 
L 222.122333 54.941085 
L 222.568103 51.291561 
L 223.013873 55.617506 
L 223.459643 53.399476 
L 223.905413 54.59501 
L 224.351183 54.453433 
L 224.796953 55.208507 
L 225.242724 54.941085 
L 225.688494 54.484895 
L 226.580034 58.134419 
L 227.025804 58.574879 
L 227.471574 58.732186 
L 227.917344 57.961382 
L 228.363114 55.759082 
L 228.808884 56.529887 
L 229.254654 53.525321 
L 229.700424 55.397276 
L 230.146194 52.597209 
L 230.591965 52.078096 
L 231.037735 54.799509 
L 231.483505 55.161315 
L 231.929275 54.893893 
L 232.375045 54.075896 
L 232.820815 52.534287 
L 233.266585 53.194976 
L 233.712355 54.484895 
L 234.158125 52.83317 
L 235.049665 53.525321 
L 235.495435 55.318622 
L 235.941206 55.790544 
L 236.386976 54.343318 
L 236.832746 56.577079 
L 237.278516 53.415206 
L 237.724286 57.788344 
L 238.170056 57.347884 
L 238.615826 58.228804 
L 239.507366 56.199542 
L 239.953136 55.475929 
L 240.398906 55.413007 
L 241.290447 54.81524 
L 241.736217 54.925355 
L 242.181987 52.927554 
L 242.627757 54.406241 
L 243.073527 54.359049 
L 243.519297 56.750117 
L 243.965067 54.138819 
L 244.410837 54.988277 
L 244.856607 57.851267 
L 245.302377 59.046801 
L 245.748147 58.684994 
L 246.193917 58.716456 
L 246.639688 58.165881 
L 247.085458 55.554583 
L 247.531228 55.648967 
L 248.422768 58.826571 
L 248.868538 57.363615 
L 249.314308 55.460199 
L 249.760078 53.037669 
L 250.205848 56.026504 
L 250.651618 53.399476 
L 251.097388 56.923155 
L 251.543158 54.37478 
L 251.988929 53.588244 
L 252.880469 56.262465 
L 253.772009 54.956816 
L 255.109319 58.511956 
L 255.555089 57.788344 
L 256.000859 55.208507 
L 256.446629 56.891693 
L 256.8924 55.255699 
L 257.33817 55.177046 
L 257.78394 58.653533 
L 258.22971 56.938885 
L 258.67548 54.705125 
L 259.12125 54.201742 
L 259.56702 54.453433 
L 260.01279 54.469164 
L 260.45856 54.17028 
L 260.90433 54.107358 
L 261.3501 52.518556 
L 261.79587 52.518556 
L 262.241641 51.669098 
L 262.687411 54.012973 
L 263.133181 52.502825 
L 263.578951 52.235403 
L 264.024721 55.239969 
L 264.470491 57.111923 
L 264.916261 57.662498 
L 266.253571 57.017539 
L 266.699341 57.096192 
L 267.145111 56.278196 
L 267.590882 55.963581 
L 268.036652 54.343318 
L 268.482422 54.532087 
L 268.928192 53.194976 
L 269.373962 54.500625 
L 269.819732 57.284961 
L 270.265502 55.035469 
L 270.711272 53.887128 
L 271.157042 54.469164 
L 271.602812 55.302892 
L 272.940123 56.482695 
L 273.831663 55.49166 
L 274.277433 58.449034 
L 274.723203 56.545618 
L 275.168973 55.995043 
L 275.614743 57.237769 
L 276.060513 57.26923 
L 276.506283 57.505191 
L 277.397823 57.174846 
L 277.843593 56.860232 
L 278.289364 54.878162 
L 279.180904 57.049 
L 279.626674 55.098392 
L 280.072444 55.601775 
L 280.518214 53.0534 
L 280.963984 54.359049 
L 281.409754 58.118689 
L 281.855524 56.325388 
L 282.301294 56.168081 
L 283.638605 56.577079 
L 284.084375 57.03327 
L 284.530145 57.111923 
L 284.975915 54.15455 
L 285.421685 55.916389 
L 285.867455 55.255699 
L 286.313225 56.136619 
L 286.758995 57.741152 
L 287.204765 57.064731 
L 287.650535 55.145584 
L 288.096305 55.49166 
L 289.433616 54.201742 
L 290.325156 51.338753 
L 290.770926 54.138819 
L 291.216696 53.887128 
L 291.662466 56.655733 
L 292.108236 54.642202 
L 292.554006 54.799509 
L 292.999776 55.444468 
L 293.445546 55.523121 
L 293.891316 56.466964 
L 294.337087 56.042235 
L 294.782857 54.516356 
L 295.674397 55.239969 
L 296.120167 56.168081 
L 296.565937 52.770247 
L 297.011707 53.242169 
L 297.457477 55.460199 
L 298.349017 54.532087 
L 299.240558 52.125288 
L 299.686328 52.896093 
L 300.132098 52.880362 
L 300.577868 54.437702 
L 301.023638 54.296126 
L 301.469408 54.689394 
L 301.915178 54.343318 
L 302.360948 55.853466 
L 302.806718 60.022105 
L 303.252488 59.345684 
L 303.698258 57.599575 
L 304.144028 57.379345 
L 304.589799 57.898459 
L 305.035569 57.47373 
L 305.481339 58.354649 
L 306.372879 55.224238 
L 306.818649 53.352284 
L 307.264419 54.280395 
L 307.710189 57.049 
L 308.155959 54.972547 
L 308.601729 53.478129 
L 309.047499 52.83317 
L 309.493269 54.469164 
L 310.38481 56.59281 
L 310.83058 54.956816 
L 311.27635 56.970347 
L 311.72212 55.224238 
L 312.16789 57.379345 
L 312.61366 60.525487 
L 313.05943 60.163681 
L 313.5052 59.172646 
L 313.95097 57.851267 
L 314.39674 57.347884 
L 314.84251 56.482695 
L 315.288281 56.970347 
L 315.734051 55.192777 
L 316.179821 55.648967 
L 316.625591 52.927554 
L 317.071361 52.817439 
L 317.517131 56.278196 
L 317.962901 53.997243 
L 318.408671 52.911824 
L 318.854441 53.383745 
L 319.300211 54.59501 
L 320.191751 54.107358 
L 320.637522 53.132054 
L 321.083292 53.95005 
L 321.529062 53.666898 
L 321.974832 59.849067 
L 322.420602 57.316422 
L 322.866372 56.199542 
L 323.312142 55.554583 
L 323.757912 55.617506 
L 324.203682 56.293926 
L 324.649452 55.586044 
L 325.095222 56.388311 
L 325.540992 53.651167 
L 325.986763 54.280395 
L 326.432533 52.298326 
L 326.878303 56.687194 
L 327.769843 52.251134 
L 328.215613 51.653367 
L 329.107153 54.028704 
L 329.552923 54.138819 
L 329.998693 55.774813 
L 330.444463 54.956816 
L 330.890233 57.332153 
L 331.336004 57.851267 
L 331.781774 62.712056 
L 332.227544 61.091793 
L 333.119084 55.586044 
L 333.564854 56.246734 
L 334.010624 57.961382 
L 334.456394 57.2535 
L 334.902164 55.27143 
L 335.347934 56.404041 
L 335.793704 53.021939 
L 336.239475 53.855666 
L 336.685245 55.743351 
L 337.131015 54.736586 
L 337.576785 53.194976 
L 338.022555 53.95005 
L 338.468325 56.136619 
L 338.914095 57.001808 
L 339.359865 55.019739 
L 339.805635 57.70969 
L 340.251405 57.111923 
L 340.697175 57.395076 
L 341.142945 59.345684 
L 341.588716 58.574879 
L 342.034486 58.307457 
L 342.480256 56.781578 
L 342.926026 56.907424 
L 343.371796 56.293926 
L 343.817566 54.138819 
L 344.263336 55.350084 
L 344.709106 53.399476 
L 345.154876 54.59501 
L 345.600646 57.457999 
L 346.046416 56.640002 
L 346.492186 56.640002 
L 346.937957 55.884928 
L 347.383727 54.768047 
L 347.829497 56.105158 
L 348.275267 56.231003 
L 348.721037 59.864797 
L 349.166807 59.660298 
L 349.612577 61.422138 
L 350.058347 66.802041 
L 350.504117 67.981844 
L 350.949887 68.516688 
L 351.395657 68.815571 
L 351.841427 69.318954 
L 352.287198 68.34365 
L 352.732968 66.707656 
L 353.178738 69.256031 
L 353.624508 68.154882 
L 354.070278 73.581976 
L 354.516048 73.707822 
L 354.961818 75.65843 
L 355.407588 78.285459 
L 355.853358 79.182109 
L 356.744898 85.647431 
L 357.190668 86.905888 
L 357.636439 91.058795 
L 358.082209 92.301521 
L 358.527979 96.70612 
L 358.973749 99.160111 
L 359.865289 105.169242 
L 360.311059 107.513118 
L 361.202599 109.164842 
L 361.648369 109.023266 
L 362.094139 109.888455 
L 362.539909 108.158077 
L 362.98568 107.749078 
L 363.43145 108.063693 
L 364.32299 106.883889 
L 364.76876 106.364776 
L 365.21453 106.427699 
L 365.6603 106.616467 
L 366.55184 108.079423 
L 366.99761 106.317584 
L 367.44338 106.994004 
L 367.88915 109.290688 
L 368.334921 110.045762 
L 368.780691 110.391838 
L 369.226461 111.445795 
L 369.672231 111.54018 
L 370.118001 113.31775 
L 370.563771 114.182939 
L 372.346851 126.673123 
L 372.792621 128.450693 
L 373.238391 128.985537 
L 373.684162 129.315882 
L 374.129932 129.803534 
L 374.575702 130.810299 
L 375.021472 131.455258 
L 375.467242 132.446293 
L 375.913012 133.154175 
L 376.804552 134.14521 
L 377.250322 133.468789 
L 377.696092 133.374405 
L 378.141862 132.996868 
L 378.587633 132.918214 
L 379.033403 133.751942 
L 379.479173 134.129479 
L 379.924943 134.845226 
L 380.370713 134.510162 
L 380.816483 135.350182 
L 381.262253 135.571985 
L 381.708023 135.649066 
L 382.153793 135.527939 
L 382.599563 135.557827 
L 383.936874 136.781677 
L 384.382644 137.985076 
L 384.828414 138.332725 
L 385.274184 139.202633 
L 385.719954 139.286006 
L 386.611494 140.056811 
L 387.057264 140.059957 
L 387.948804 139.828715 
L 388.394574 139.588035 
L 388.840344 139.73905 
L 389.286115 139.44174 
L 389.731885 139.750062 
L 390.177655 140.629408 
L 390.623425 140.874807 
L 391.069195 141.323133 
L 391.960735 142.860023 
L 393.298045 145.889758 
L 395.081126 150.352403 
L 395.972666 151.763605 
L 397.309976 153.221842 
L 397.755746 153.404318 
L 398.201516 153.797586 
L 398.647286 153.965904 
L 399.538826 154.554233 
L 400.876137 155.224361 
L 401.321907 155.345488 
L 401.767677 155.664821 
L 402.213447 155.570437 
L 402.659217 155.839432 
L 403.104987 155.625494 
L 403.550757 155.716732 
L 404.888067 155.505941 
L 405.779608 155.323465 
L 406.225378 155.276272 
L 407.562688 154.724124 
L 408.899998 154.436252 
L 409.345768 154.445691 
L 410.683079 154.033546 
L 411.128849 153.737809 
L 411.574619 153.698482 
L 412.020389 153.393306 
L 412.911929 152.95442 
L 413.803469 152.337776 
L 414.695009 151.650344 
L 416.92386 150.414854 
L 417.8154 150.0065 
L 418.70694 149.637442 
L 421.827331 149.238354 
L 427.622342 149.158442 
L 429.405422 149.409347 
L 429.851192 149.593868 
L 430.296962 149.592138 
L 431.188502 149.835382 
L 432.080043 149.941715 
L 432.080043 149.941715 
" clip-path="url(#pcae737d6ad)" style="fill: none; stroke: #ff7f0e; stroke-width: 2; stroke-linecap: square"/>
   </g>
   <g id="patch_3">
    <path d="M 55.760938 161.67875 
L 55.760938 33.21375 
" style="fill: none; stroke: #000000; stroke-width: 0.8; stroke-linejoin: miter; stroke-linecap: square"/>
   </g>
   <g id="patch_4">
    <path d="M 450 161.67875 
L 450 33.21375 
" style="fill: none; stroke: #000000; stroke-width: 0.8; stroke-linejoin: miter; stroke-linecap: square"/>
   </g>
   <g id="patch_5">
    <path d="M 55.760938 161.67875 
L 450 161.67875 
" style="fill: none; stroke: #000000; stroke-width: 0.8; stroke-linejoin: miter; stroke-linecap: square"/>
   </g>
   <g id="patch_6">
    <path d="M 55.760938 33.21375 
L 450 33.21375 
" style="fill: none; stroke: #000000; stroke-width: 0.8; stroke-linejoin: miter; stroke-linecap: square"/>
   </g>
   <g id="legend_1">
    <g id="patch_7">
     <path d="M 360.482812 70.57 
L 443 70.57 
Q 445 70.57 445 68.57 
L 445 40.21375 
Q 445 38.21375 443 38.21375 
L 360.482812 38.21375 
Q 358.482812 38.21375 358.482812 40.21375 
L 358.482812 68.57 
Q 358.482812 70.57 360.482812 70.57 
z
" style="fill: #ffffff; opacity: 0.8; stroke: #cccccc; stroke-linejoin: miter"/>
    </g>
    <g id="line2d_29">
     <path d="M 362.482812 46.312187 
L 372.482812 46.312187 
L 382.482812 46.312187 
" style="fill: none; stroke: #1f77b4; stroke-width: 2; stroke-linecap: square"/>
    </g>
    <g id="text_6">
     <!-- Reference -->
     <g transform="translate(390.482812 49.812187)scale(0.1 -0.1)">
      <defs>
       <path id="DejaVuSans-52" d="M 2841 2188 
Q 3044 2119 3236 1894 
Q 3428 1669 3622 1275 
L 4263 0 
L 3584 0 
L 2988 1197 
Q 2756 1666 2539 1819 
Q 2322 1972 1947 1972 
L 1259 1972 
L 1259 0 
L 628 0 
L 628 4666 
L 2053 4666 
Q 2853 4666 3247 4331 
Q 3641 3997 3641 3322 
Q 3641 2881 3436 2590 
Q 3231 2300 2841 2188 
z
M 1259 4147 
L 1259 2491 
L 2053 2491 
Q 2509 2491 2742 2702 
Q 2975 2913 2975 3322 
Q 2975 3731 2742 3939 
Q 2509 4147 2053 4147 
L 1259 4147 
z
" transform="scale(0.015625)"/>
       <path id="DejaVuSans-66" d="M 2375 4863 
L 2375 4384 
L 1825 4384 
Q 1516 4384 1395 4259 
Q 1275 4134 1275 3809 
L 1275 3500 
L 2222 3500 
L 2222 3053 
L 1275 3053 
L 1275 0 
L 697 0 
L 697 3053 
L 147 3053 
L 147 3500 
L 697 3500 
L 697 3744 
Q 697 4328 969 4595 
Q 1241 4863 1831 4863 
L 2375 4863 
z
" transform="scale(0.015625)"/>
       <path id="DejaVuSans-63" d="M 3122 3366 
L 3122 2828 
Q 2878 2963 2633 3030 
Q 2388 3097 2138 3097 
Q 1578 3097 1268 2742 
Q 959 2388 959 1747 
Q 959 1106 1268 751 
Q 1578 397 2138 397 
Q 2388 397 2633 464 
Q 2878 531 3122 666 
L 3122 134 
Q 2881 22 2623 -34 
Q 2366 -91 2075 -91 
Q 1284 -91 818 406 
Q 353 903 353 1747 
Q 353 2603 823 3093 
Q 1294 3584 2113 3584 
Q 2378 3584 2631 3529 
Q 2884 3475 3122 3366 
z
" transform="scale(0.015625)"/>
      </defs>
      <use xlink:href="#DejaVuSans-52"/>
      <use xlink:href="#DejaVuSans-65" x="64.982422"/>
      <use xlink:href="#DejaVuSans-66" x="126.505859"/>
      <use xlink:href="#DejaVuSans-65" x="161.710938"/>
      <use xlink:href="#DejaVuSans-72" x="223.234375"/>
      <use xlink:href="#DejaVuSans-65" x="262.097656"/>
      <use xlink:href="#DejaVuSans-6e" x="323.621094"/>
      <use xlink:href="#DejaVuSans-63" x="387"/>
      <use xlink:href="#DejaVuSans-65" x="441.980469"/>
     </g>
    </g>
    <g id="line2d_30">
     <path d="M 362.482812 60.990312 
L 372.482812 60.990312 
L 382.482812 60.990312 
" style="fill: none; stroke: #ff7f0e; stroke-width: 2; stroke-linecap: square"/>
    </g>
    <g id="text_7">
     <!-- Estimated -->
     <g transform="translate(390.482812 64.490312)scale(0.1 -0.1)">
      <defs>
       <path id="DejaVuSans-45" d="M 628 4666 
L 3578 4666 
L 3578 4134 
L 1259 4134 
L 1259 2753 
L 3481 2753 
L 3481 2222 
L 1259 2222 
L 1259 531 
L 3634 531 
L 3634 0 
L 628 0 
L 628 4666 
z
" transform="scale(0.015625)"/>
       <path id="DejaVuSans-69" d="M 603 3500 
L 1178 3500 
L 1178 0 
L 603 0 
L 603 3500 
z
M 603 4863 
L 1178 4863 
L 1178 4134 
L 603 4134 
L 603 4863 
z
" transform="scale(0.015625)"/>
       <path id="DejaVuSans-64" d="M 2906 2969 
L 2906 4863 
L 3481 4863 
L 3481 0 
L 2906 0 
L 2906 525 
Q 2725 213 2448 61 
Q 2172 -91 1784 -91 
Q 1150 -91 751 415 
Q 353 922 353 1747 
Q 353 2572 751 3078 
Q 1150 3584 1784 3584 
Q 2172 3584 2448 3432 
Q 2725 3281 2906 2969 
z
M 947 1747 
Q 947 1113 1208 752 
Q 1469 391 1925 391 
Q 2381 391 2643 752 
Q 2906 1113 2906 1747 
Q 2906 2381 2643 2742 
Q 2381 3103 1925 3103 
Q 1469 3103 1208 2742 
Q 947 2381 947 1747 
z
" transform="scale(0.015625)"/>
      </defs>
      <use xlink:href="#DejaVuSans-45"/>
      <use xlink:href="#DejaVuSans-73" x="63.183594"/>
      <use xlink:href="#DejaVuSans-74" x="115.283203"/>
      <use xlink:href="#DejaVuSans-69" x="154.492188"/>
      <use xlink:href="#DejaVuSans-6d" x="182.275391"/>
      <use xlink:href="#DejaVuSans-61" x="279.6875"/>
      <use xlink:href="#DejaVuSans-74" x="340.966797"/>
      <use xlink:href="#DejaVuSans-65" x="380.175781"/>
      <use xlink:href="#DejaVuSans-64" x="441.699219"/>
     </g>
    </g>
   </g>
  </g>
  <g id="axes_2">
   <g id="patch_8">
    <path d="M 55.760938 304.44375 
L 450 304.44375 
L 450 175.97875 
L 55.760938 175.97875 
z
" style="fill: #ffffff"/>
   </g>
   <g id="matplotlib.axis_3">
    <g id="xtick_10">
     <g id="line2d_31">
      <path d="M 73.680895 304.44375 
L 73.680895 175.97875 
" clip-path="url(#pfba3b73e27)" style="fill: none; stroke: #b0b0b0; stroke-width: 0.8; stroke-linecap: square"/>
     </g>
     <g id="line2d_32">
      <g>
       <use xlink:href="#ma7a64c980f" x="73.680895" y="304.44375" style="stroke: #000000; stroke-width: 0.8"/>
      </g>
     </g>
     <g id="text_8">
      <!-- 0.0 -->
      <g transform="translate(65.729332 319.042187)scale(0.1 -0.1)">
       <use xlink:href="#DejaVuSans-30"/>
       <use xlink:href="#DejaVuSans-2e" x="63.623047"/>
       <use xlink:href="#DejaVuSans-30" x="95.410156"/>
      </g>
     </g>
    </g>
    <g id="xtick_11">
     <g id="line2d_33">
      <path d="M 118.257903 304.44375 
L 118.257903 175.97875 
" clip-path="url(#pfba3b73e27)" style="fill: none; stroke: #b0b0b0; stroke-width: 0.8; stroke-linecap: square"/>
     </g>
     <g id="line2d_34">
      <g>
       <use xlink:href="#ma7a64c980f" x="118.257903" y="304.44375" style="stroke: #000000; stroke-width: 0.8"/>
      </g>
     </g>
     <g id="text_9">
      <!-- 0.1 -->
      <g transform="translate(110.306341 319.042187)scale(0.1 -0.1)">
       <defs>
        <path id="DejaVuSans-31" d="M 794 531 
L 1825 531 
L 1825 4091 
L 703 3866 
L 703 4441 
L 1819 4666 
L 2450 4666 
L 2450 531 
L 3481 531 
L 3481 0 
L 794 0 
L 794 531 
z
" transform="scale(0.015625)"/>
       </defs>
       <use xlink:href="#DejaVuSans-30"/>
       <use xlink:href="#DejaVuSans-2e" x="63.623047"/>
       <use xlink:href="#DejaVuSans-31" x="95.410156"/>
      </g>
     </g>
    </g>
    <g id="xtick_12">
     <g id="line2d_35">
      <path d="M 162.834912 304.44375 
L 162.834912 175.97875 
" clip-path="url(#pfba3b73e27)" style="fill: none; stroke: #b0b0b0; stroke-width: 0.8; stroke-linecap: square"/>
     </g>
     <g id="line2d_36">
      <g>
       <use xlink:href="#ma7a64c980f" x="162.834912" y="304.44375" style="stroke: #000000; stroke-width: 0.8"/>
      </g>
     </g>
     <g id="text_10">
      <!-- 0.2 -->
      <g transform="translate(154.883349 319.042187)scale(0.1 -0.1)">
       <use xlink:href="#DejaVuSans-30"/>
       <use xlink:href="#DejaVuSans-2e" x="63.623047"/>
       <use xlink:href="#DejaVuSans-32" x="95.410156"/>
      </g>
     </g>
    </g>
    <g id="xtick_13">
     <g id="line2d_37">
      <path d="M 207.41192 304.44375 
L 207.41192 175.97875 
" clip-path="url(#pfba3b73e27)" style="fill: none; stroke: #b0b0b0; stroke-width: 0.8; stroke-linecap: square"/>
     </g>
     <g id="line2d_38">
      <g>
       <use xlink:href="#ma7a64c980f" x="207.41192" y="304.44375" style="stroke: #000000; stroke-width: 0.8"/>
      </g>
     </g>
     <g id="text_11">
      <!-- 0.3 -->
      <g transform="translate(199.460358 319.042187)scale(0.1 -0.1)">
       <defs>
        <path id="DejaVuSans-33" d="M 2597 2516 
Q 3050 2419 3304 2112 
Q 3559 1806 3559 1356 
Q 3559 666 3084 287 
Q 2609 -91 1734 -91 
Q 1441 -91 1130 -33 
Q 819 25 488 141 
L 488 750 
Q 750 597 1062 519 
Q 1375 441 1716 441 
Q 2309 441 2620 675 
Q 2931 909 2931 1356 
Q 2931 1769 2642 2001 
Q 2353 2234 1838 2234 
L 1294 2234 
L 1294 2753 
L 1863 2753 
Q 2328 2753 2575 2939 
Q 2822 3125 2822 3475 
Q 2822 3834 2567 4026 
Q 2313 4219 1838 4219 
Q 1578 4219 1281 4162 
Q 984 4106 628 3988 
L 628 4550 
Q 988 4650 1302 4700 
Q 1616 4750 1894 4750 
Q 2613 4750 3031 4423 
Q 3450 4097 3450 3541 
Q 3450 3153 3228 2886 
Q 3006 2619 2597 2516 
z
" transform="scale(0.015625)"/>
       </defs>
       <use xlink:href="#DejaVuSans-30"/>
       <use xlink:href="#DejaVuSans-2e" x="63.623047"/>
       <use xlink:href="#DejaVuSans-33" x="95.410156"/>
      </g>
     </g>
    </g>
    <g id="xtick_14">
     <g id="line2d_39">
      <path d="M 251.988929 304.44375 
L 251.988929 175.97875 
" clip-path="url(#pfba3b73e27)" style="fill: none; stroke: #b0b0b0; stroke-width: 0.8; stroke-linecap: square"/>
     </g>
     <g id="line2d_40">
      <g>
       <use xlink:href="#ma7a64c980f" x="251.988929" y="304.44375" style="stroke: #000000; stroke-width: 0.8"/>
      </g>
     </g>
     <g id="text_12">
      <!-- 0.4 -->
      <g transform="translate(244.037366 319.042187)scale(0.1 -0.1)">
       <use xlink:href="#DejaVuSans-30"/>
       <use xlink:href="#DejaVuSans-2e" x="63.623047"/>
       <use xlink:href="#DejaVuSans-34" x="95.410156"/>
      </g>
     </g>
    </g>
    <g id="xtick_15">
     <g id="line2d_41">
      <path d="M 296.565937 304.44375 
L 296.565937 175.97875 
" clip-path="url(#pfba3b73e27)" style="fill: none; stroke: #b0b0b0; stroke-width: 0.8; stroke-linecap: square"/>
     </g>
     <g id="line2d_42">
      <g>
       <use xlink:href="#ma7a64c980f" x="296.565937" y="304.44375" style="stroke: #000000; stroke-width: 0.8"/>
      </g>
     </g>
     <g id="text_13">
      <!-- 0.5 -->
      <g transform="translate(288.614375 319.042187)scale(0.1 -0.1)">
       <defs>
        <path id="DejaVuSans-35" d="M 691 4666 
L 3169 4666 
L 3169 4134 
L 1269 4134 
L 1269 2991 
Q 1406 3038 1543 3061 
Q 1681 3084 1819 3084 
Q 2600 3084 3056 2656 
Q 3513 2228 3513 1497 
Q 3513 744 3044 326 
Q 2575 -91 1722 -91 
Q 1428 -91 1123 -41 
Q 819 9 494 109 
L 494 744 
Q 775 591 1075 516 
Q 1375 441 1709 441 
Q 2250 441 2565 725 
Q 2881 1009 2881 1497 
Q 2881 1984 2565 2268 
Q 2250 2553 1709 2553 
Q 1456 2553 1204 2497 
Q 953 2441 691 2322 
L 691 4666 
z
" transform="scale(0.015625)"/>
       </defs>
       <use xlink:href="#DejaVuSans-30"/>
       <use xlink:href="#DejaVuSans-2e" x="63.623047"/>
       <use xlink:href="#DejaVuSans-35" x="95.410156"/>
      </g>
     </g>
    </g>
    <g id="xtick_16">
     <g id="line2d_43">
      <path d="M 341.142945 304.44375 
L 341.142945 175.97875 
" clip-path="url(#pfba3b73e27)" style="fill: none; stroke: #b0b0b0; stroke-width: 0.8; stroke-linecap: square"/>
     </g>
     <g id="line2d_44">
      <g>
       <use xlink:href="#ma7a64c980f" x="341.142945" y="304.44375" style="stroke: #000000; stroke-width: 0.8"/>
      </g>
     </g>
     <g id="text_14">
      <!-- 0.6 -->
      <g transform="translate(333.191383 319.042187)scale(0.1 -0.1)">
       <use xlink:href="#DejaVuSans-30"/>
       <use xlink:href="#DejaVuSans-2e" x="63.623047"/>
       <use xlink:href="#DejaVuSans-36" x="95.410156"/>
      </g>
     </g>
    </g>
    <g id="xtick_17">
     <g id="line2d_45">
      <path d="M 385.719954 304.44375 
L 385.719954 175.97875 
" clip-path="url(#pfba3b73e27)" style="fill: none; stroke: #b0b0b0; stroke-width: 0.8; stroke-linecap: square"/>
     </g>
     <g id="line2d_46">
      <g>
       <use xlink:href="#ma7a64c980f" x="385.719954" y="304.44375" style="stroke: #000000; stroke-width: 0.8"/>
      </g>
     </g>
     <g id="text_15">
      <!-- 0.7 -->
      <g transform="translate(377.768391 319.042187)scale(0.1 -0.1)">
       <defs>
        <path id="DejaVuSans-37" d="M 525 4666 
L 3525 4666 
L 3525 4397 
L 1831 0 
L 1172 0 
L 2766 4134 
L 525 4134 
L 525 4666 
z
" transform="scale(0.015625)"/>
       </defs>
       <use xlink:href="#DejaVuSans-30"/>
       <use xlink:href="#DejaVuSans-2e" x="63.623047"/>
       <use xlink:href="#DejaVuSans-37" x="95.410156"/>
      </g>
     </g>
    </g>
    <g id="xtick_18">
     <g id="line2d_47">
      <path d="M 430.296962 304.44375 
L 430.296962 175.97875 
" clip-path="url(#pfba3b73e27)" style="fill: none; stroke: #b0b0b0; stroke-width: 0.8; stroke-linecap: square"/>
     </g>
     <g id="line2d_48">
      <g>
       <use xlink:href="#ma7a64c980f" x="430.296962" y="304.44375" style="stroke: #000000; stroke-width: 0.8"/>
      </g>
     </g>
     <g id="text_16">
      <!-- 0.8 -->
      <g transform="translate(422.3454 319.042187)scale(0.1 -0.1)">
       <defs>
        <path id="DejaVuSans-38" d="M 2034 2216 
Q 1584 2216 1326 1975 
Q 1069 1734 1069 1313 
Q 1069 891 1326 650 
Q 1584 409 2034 409 
Q 2484 409 2743 651 
Q 3003 894 3003 1313 
Q 3003 1734 2745 1975 
Q 2488 2216 2034 2216 
z
M 1403 2484 
Q 997 2584 770 2862 
Q 544 3141 544 3541 
Q 544 4100 942 4425 
Q 1341 4750 2034 4750 
Q 2731 4750 3128 4425 
Q 3525 4100 3525 3541 
Q 3525 3141 3298 2862 
Q 3072 2584 2669 2484 
Q 3125 2378 3379 2068 
Q 3634 1759 3634 1313 
Q 3634 634 3220 271 
Q 2806 -91 2034 -91 
Q 1263 -91 848 271 
Q 434 634 434 1313 
Q 434 1759 690 2068 
Q 947 2378 1403 2484 
z
M 1172 3481 
Q 1172 3119 1398 2916 
Q 1625 2713 2034 2713 
Q 2441 2713 2670 2916 
Q 2900 3119 2900 3481 
Q 2900 3844 2670 4047 
Q 2441 4250 2034 4250 
Q 1625 4250 1398 4047 
Q 1172 3844 1172 3481 
z
" transform="scale(0.015625)"/>
       </defs>
       <use xlink:href="#DejaVuSans-30"/>
       <use xlink:href="#DejaVuSans-2e" x="63.623047"/>
       <use xlink:href="#DejaVuSans-38" x="95.410156"/>
      </g>
     </g>
    </g>
    <g id="text_17">
     <!-- Time [s] -->
     <g transform="translate(232.551562 332.720312)scale(0.1 -0.1)">
      <defs>
       <path id="DejaVuSans-54" d="M -19 4666 
L 3928 4666 
L 3928 4134 
L 2272 4134 
L 2272 0 
L 1638 0 
L 1638 4134 
L -19 4134 
L -19 4666 
z
" transform="scale(0.015625)"/>
      </defs>
      <use xlink:href="#DejaVuSans-54"/>
      <use xlink:href="#DejaVuSans-69" x="57.958984"/>
      <use xlink:href="#DejaVuSans-6d" x="85.742188"/>
      <use xlink:href="#DejaVuSans-65" x="183.154297"/>
      <use xlink:href="#DejaVuSans-20" x="244.677734"/>
      <use xlink:href="#DejaVuSans-5b" x="276.464844"/>
      <use xlink:href="#DejaVuSans-73" x="315.478516"/>
      <use xlink:href="#DejaVuSans-5d" x="367.578125"/>
     </g>
    </g>
   </g>
   <g id="matplotlib.axis_4">
    <g id="ytick_5">
     <g id="line2d_49">
      <path d="M 55.760938 288.14527 
L 450 288.14527 
" clip-path="url(#pfba3b73e27)" style="fill: none; stroke: #b0b0b0; stroke-width: 0.8; stroke-linecap: square"/>
     </g>
     <g id="line2d_50">
      <g>
       <use xlink:href="#m6854f3c1ae" x="55.760938" y="288.14527" style="stroke: #000000; stroke-width: 0.8"/>
      </g>
     </g>
     <g id="text_18">
      <!-- −1.0 -->
      <g transform="translate(24.478125 291.944489)scale(0.1 -0.1)">
       <defs>
        <path id="DejaVuSans-2212" d="M 678 2272 
L 4684 2272 
L 4684 1741 
L 678 1741 
L 678 2272 
z
" transform="scale(0.015625)"/>
       </defs>
       <use xlink:href="#DejaVuSans-2212"/>
       <use xlink:href="#DejaVuSans-31" x="83.789062"/>
       <use xlink:href="#DejaVuSans-2e" x="147.412109"/>
       <use xlink:href="#DejaVuSans-30" x="179.199219"/>
      </g>
     </g>
    </g>
    <g id="ytick_6">
     <g id="line2d_51">
      <path d="M 55.760938 265.308672 
L 450 265.308672 
" clip-path="url(#pfba3b73e27)" style="fill: none; stroke: #b0b0b0; stroke-width: 0.8; stroke-linecap: square"/>
     </g>
     <g id="line2d_52">
      <g>
       <use xlink:href="#m6854f3c1ae" x="55.760938" y="265.308672" style="stroke: #000000; stroke-width: 0.8"/>
      </g>
     </g>
     <g id="text_19">
      <!-- −0.5 -->
      <g transform="translate(24.478125 269.10789)scale(0.1 -0.1)">
       <use xlink:href="#DejaVuSans-2212"/>
       <use xlink:href="#DejaVuSans-30" x="83.789062"/>
       <use xlink:href="#DejaVuSans-2e" x="147.412109"/>
       <use xlink:href="#DejaVuSans-35" x="179.199219"/>
      </g>
     </g>
    </g>
    <g id="ytick_7">
     <g id="line2d_53">
      <path d="M 55.760938 242.472073 
L 450 242.472073 
" clip-path="url(#pfba3b73e27)" style="fill: none; stroke: #b0b0b0; stroke-width: 0.8; stroke-linecap: square"/>
     </g>
     <g id="line2d_54">
      <g>
       <use xlink:href="#m6854f3c1ae" x="55.760938" y="242.472073" style="stroke: #000000; stroke-width: 0.8"/>
      </g>
     </g>
     <g id="text_20">
      <!-- 0.0 -->
      <g transform="translate(32.857813 246.271292)scale(0.1 -0.1)">
       <use xlink:href="#DejaVuSans-30"/>
       <use xlink:href="#DejaVuSans-2e" x="63.623047"/>
       <use xlink:href="#DejaVuSans-30" x="95.410156"/>
      </g>
     </g>
    </g>
    <g id="ytick_8">
     <g id="line2d_55">
      <path d="M 55.760938 219.635475 
L 450 219.635475 
" clip-path="url(#pfba3b73e27)" style="fill: none; stroke: #b0b0b0; stroke-width: 0.8; stroke-linecap: square"/>
     </g>
     <g id="line2d_56">
      <g>
       <use xlink:href="#m6854f3c1ae" x="55.760938" y="219.635475" style="stroke: #000000; stroke-width: 0.8"/>
      </g>
     </g>
     <g id="text_21">
      <!-- 0.5 -->
      <g transform="translate(32.857813 223.434694)scale(0.1 -0.1)">
       <use xlink:href="#DejaVuSans-30"/>
       <use xlink:href="#DejaVuSans-2e" x="63.623047"/>
       <use xlink:href="#DejaVuSans-35" x="95.410156"/>
      </g>
     </g>
    </g>
    <g id="ytick_9">
     <g id="line2d_57">
      <path d="M 55.760938 196.798877 
L 450 196.798877 
" clip-path="url(#pfba3b73e27)" style="fill: none; stroke: #b0b0b0; stroke-width: 0.8; stroke-linecap: square"/>
     </g>
     <g id="line2d_58">
      <g>
       <use xlink:href="#m6854f3c1ae" x="55.760938" y="196.798877" style="stroke: #000000; stroke-width: 0.8"/>
      </g>
     </g>
     <g id="text_22">
      <!-- 1.0 -->
      <g transform="translate(32.857813 200.598095)scale(0.1 -0.1)">
       <use xlink:href="#DejaVuSans-31"/>
       <use xlink:href="#DejaVuSans-2e" x="63.623047"/>
       <use xlink:href="#DejaVuSans-30" x="95.410156"/>
      </g>
     </g>
    </g>
    <g id="text_23">
     <!-- rot. vel. [rad/s] -->
     <g transform="translate(18.398438 277.439375)rotate(-90)scale(0.1 -0.1)">
      <defs>
       <path id="DejaVuSans-6f" d="M 1959 3097 
Q 1497 3097 1228 2736 
Q 959 2375 959 1747 
Q 959 1119 1226 758 
Q 1494 397 1959 397 
Q 2419 397 2687 759 
Q 2956 1122 2956 1747 
Q 2956 2369 2687 2733 
Q 2419 3097 1959 3097 
z
M 1959 3584 
Q 2709 3584 3137 3096 
Q 3566 2609 3566 1747 
Q 3566 888 3137 398 
Q 2709 -91 1959 -91 
Q 1206 -91 779 398 
Q 353 888 353 1747 
Q 353 2609 779 3096 
Q 1206 3584 1959 3584 
z
" transform="scale(0.015625)"/>
      </defs>
      <use xlink:href="#DejaVuSans-72"/>
      <use xlink:href="#DejaVuSans-6f" x="38.863281"/>
      <use xlink:href="#DejaVuSans-74" x="100.044922"/>
      <use xlink:href="#DejaVuSans-2e" x="139.253906"/>
      <use xlink:href="#DejaVuSans-20" x="171.041016"/>
      <use xlink:href="#DejaVuSans-76" x="202.828125"/>
      <use xlink:href="#DejaVuSans-65" x="262.007812"/>
      <use xlink:href="#DejaVuSans-6c" x="323.53125"/>
      <use xlink:href="#DejaVuSans-2e" x="351.314453"/>
      <use xlink:href="#DejaVuSans-20" x="383.101562"/>
      <use xlink:href="#DejaVuSans-5b" x="414.888672"/>
      <use xlink:href="#DejaVuSans-72" x="453.902344"/>
      <use xlink:href="#DejaVuSans-61" x="495.015625"/>
      <use xlink:href="#DejaVuSans-64" x="556.294922"/>
      <use xlink:href="#DejaVuSans-2f" x="619.771484"/>
      <use xlink:href="#DejaVuSans-73" x="653.462891"/>
      <use xlink:href="#DejaVuSans-5d" x="705.5625"/>
     </g>
    </g>
   </g>
   <g id="line2d_59">
    <path d="M 73.680895 242.472073 
L 432.080043 242.472073 
L 432.080043 242.472073 
" clip-path="url(#pfba3b73e27)" style="fill: none; stroke: #1f77b4; stroke-width: 2; stroke-linecap: square"/>
   </g>
   <g id="line2d_60">
    <path d="M 73.680895 242.472073 
L 74.126665 242.29477 
L 74.572435 242.246174 
L 75.018205 242.343366 
L 75.463975 242.319068 
L 76.355515 242.562095 
L 77.247056 242.36771 
L 78.138596 242.4406 
L 78.584366 242.853764 
L 79.475906 244.9197 
L 80.813216 246.985499 
L 81.258986 247.957424 
L 81.704756 248.615118 
L 82.150526 248.761272 
L 83.042067 248.688195 
L 83.487837 248.418723 
L 83.933607 248.368483 
L 84.379377 248.587714 
L 84.825147 249.172331 
L 85.716687 251.556472 
L 86.162457 252.94037 
L 87.053997 260.133898 
L 88.391308 266.23127 
L 89.282848 271.095466 
L 90.620158 282.079869 
L 91.065928 282.24886 
L 91.511698 281.011116 
L 91.957468 283.098382 
L 92.849009 290.337583 
L 93.294779 292.758263 
L 93.740549 296.229426 
L 94.186319 298.604432 
L 94.632089 296.777504 
L 95.969399 281.495252 
L 96.415169 279.503901 
L 96.860939 278.457985 
L 97.306709 275.032495 
L 98.19825 265.308672 
L 98.64402 264.217082 
L 99.08979 263.82886 
L 99.53556 260.864669 
L 99.98133 254.274027 
L 100.4271 243.290994 
L 100.87287 235.26941 
L 101.76441 226.669147 
L 102.65595 212.524158 
L 103.10172 199.932058 
L 103.547491 198.817632 
L 104.439031 218.891002 
L 104.884801 222.777791 
L 105.330571 220.663122 
L 105.776341 216.653015 
L 106.222111 210.505403 
L 106.667881 201.950813 
L 107.113651 189.628185 
L 107.559421 189.765204 
L 108.005191 193.41906 
L 108.450961 192.459923 
L 109.342502 184.284421 
L 109.788272 181.863741 
L 110.234042 181.818068 
L 110.679812 185.197885 
L 111.571352 215.218877 
L 112.017122 222.585963 
L 112.462892 214.465269 
L 112.908662 184.969519 
L 113.354432 182.731532 
L 113.800202 187.664237 
L 114.245973 195.83974 
L 114.691743 199.594076 
L 115.137513 199.425085 
L 115.583283 196.068106 
L 116.029053 199.763067 
L 116.920593 211.281847 
L 117.366363 224.335247 
L 117.812133 229.341029 
L 118.257903 225.623231 
L 118.703673 219.329465 
L 119.149443 215.853734 
L 119.595214 219.352301 
L 120.040984 225.404 
L 120.486754 226.860975 
L 120.932524 225.888136 
L 121.378294 233.547531 
L 121.824064 232.912673 
L 122.269834 253.958882 
L 122.715604 256.900236 
L 123.161374 242.829466 
L 123.607144 233.620608 
L 124.052914 233.593204 
L 124.944455 243.485561 
L 125.390225 245.478283 
L 126.281765 247.788433 
L 126.727535 248.080742 
L 128.064845 268.980797 
L 128.510615 270.510849 
L 128.956385 270.195704 
L 129.402155 270.122626 
L 130.293696 278.384908 
L 130.739466 278.969525 
L 131.185236 276.927933 
L 131.631006 277.192837 
L 132.076776 279.380583 
L 132.522546 278.311831 
L 133.414086 290.657296 
L 133.859856 291.662106 
L 134.305626 292.301531 
L 134.751396 293.991439 
L 135.197167 287.912337 
L 135.642937 289.515466 
L 136.088707 250.77546 
L 136.534477 248.368483 
L 136.980247 252.451667 
L 137.426017 238.333168 
L 137.871787 234.031667 
L 138.317557 234.200657 
L 138.763327 237.630714 
L 139.209097 236.849703 
L 140.100637 236.41124 
L 140.546408 230.555936 
L 140.992178 233.227818 
L 141.437948 234.954265 
L 141.883718 235.589123 
L 142.329488 234.492966 
L 142.775258 231.017236 
L 143.221028 229.852569 
L 143.666798 228.075882 
L 144.112568 228.002805 
L 144.558338 228.952807 
L 145.004108 229.144634 
L 145.449878 227.810977 
L 145.895649 228.222036 
L 146.341419 229.560261 
L 146.787189 229.729251 
L 147.232959 229.39127 
L 147.678729 229.583097 
L 148.124499 228.030208 
L 148.570269 226.03429 
L 149.016039 225.550154 
L 149.907579 223.485725 
L 150.353349 229.172038 
L 150.799119 230.094637 
L 151.24489 231.601852 
L 151.69066 234.58888 
L 152.13643 236.584798 
L 152.5822 239.645816 
L 153.91951 255.027635 
L 154.36528 256.99615 
L 154.81105 260.206975 
L 155.25682 261.810105 
L 155.70259 256.050715 
L 156.14836 244.968113 
L 156.594131 240.107572 
L 157.039901 244.43328 
L 157.931441 250.825701 
L 158.377211 258.18822 
L 158.822981 259.430531 
L 159.268751 255.685329 
L 159.714521 253.789891 
L 160.606061 261.079334 
L 161.051831 259.256973 
L 161.497601 259.695436 
L 161.943372 259.914667 
L 162.389142 258.357211 
L 162.834912 255.420424 
L 163.280682 255.493502 
L 163.726452 256.635331 
L 164.172222 256.36586 
L 164.617992 254.274027 
L 165.063762 250.241084 
L 165.509532 250.848537 
L 165.955302 251.894454 
L 166.401072 249.318485 
L 166.846842 245.065397 
L 167.292613 246.499079 
L 168.184153 243.704336 
L 168.629923 245.527153 
L 169.075693 246.183477 
L 169.521463 243.80162 
L 169.967233 237.530233 
L 170.413003 234.835515 
L 170.858773 230.871081 
L 171.304543 229.825165 
L 171.750313 226.641743 
L 172.196084 224.992941 
L 172.641854 225.865299 
L 173.087624 224.527074 
L 173.533394 221.709038 
L 173.979164 219.69485 
L 174.424934 218.598693 
L 174.870704 219.548696 
L 175.316474 222.850868 
L 175.762244 225.235009 
L 176.208014 223.896784 
L 176.653784 221.489807 
L 177.099554 221.343652 
L 177.545325 221.663365 
L 177.991095 221.343652 
L 178.436865 222.170337 
L 178.882635 224.138852 
L 179.328405 226.641743 
L 179.774175 227.395351 
L 180.219945 227.17612 
L 180.665715 230.944158 
L 181.111485 238.916415 
L 181.557255 243.631259 
L 182.003025 244.968113 
L 182.448795 243.485561 
L 182.894566 244.166092 
L 183.340336 243.582845 
L 183.786106 243.266787 
L 184.231876 243.898904 
L 184.677646 244.093015 
L 185.123416 243.121089 
L 185.569186 243.923111 
L 186.014956 245.502947 
L 187.352266 259.453368 
L 187.798036 262.225731 
L 188.243807 262.586549 
L 188.689577 265.016363 
L 189.135347 268.39618 
L 189.581117 267.788726 
L 190.026887 266.888964 
L 190.472657 263.924774 
L 190.918427 262.12525 
L 191.364197 259.065146 
L 191.809967 256.854563 
L 192.255737 255.927397 
L 192.701507 255.73557 
L 193.147277 254.470422 
L 193.593048 253.547823 
L 194.038818 255.150953 
L 194.484588 255.150953 
L 194.930358 252.259839 
L 195.376128 250.60647 
L 195.821898 249.683871 
L 196.267668 249.560553 
L 196.713438 250.021853 
L 197.159208 249.779785 
L 197.604978 247.761029 
L 198.050748 242.100339 
L 198.496518 242.853764 
L 199.388059 239.961874 
L 199.833829 235.173496 
L 200.279599 232.186469 
L 200.725369 231.652093 
L 201.171139 232.451374 
L 201.616909 234.515802 
L 202.062679 233.49729 
L 202.508449 230.505696 
L 202.954219 223.485725 
L 203.399989 220.83668 
L 203.845759 219.475619 
L 204.29153 221.055911 
L 204.7373 224.26217 
L 205.18307 226.522993 
L 205.62884 224.358083 
L 206.52038 225.741981 
L 206.96615 223.823707 
L 207.41192 226.568666 
L 207.85769 225.038614 
L 208.30346 224.700632 
L 209.195 224.746306 
L 209.640771 226.280925 
L 210.978081 235.123256 
L 211.423851 237.920282 
L 211.869621 236.92278 
L 212.315391 236.484317 
L 212.761161 235.442968 
L 213.206931 236.534558 
L 214.098471 241.225652 
L 214.544242 246.1104 
L 214.990012 248.615118 
L 215.435782 257.996393 
L 215.881552 258.918991 
L 216.327322 257.704084 
L 216.773092 258.238461 
L 217.218862 260.037985 
L 217.664632 260.595198 
L 218.110402 258.626683 
L 218.556172 259.526445 
L 219.001942 262.029336 
L 219.447712 262.394722 
L 220.339253 258.676923 
L 220.785023 262.102413 
L 221.230793 266.939205 
L 221.676563 265.843048 
L 222.122333 263.120925 
L 222.568103 264.121168 
L 223.013873 265.966366 
L 223.459643 265.139681 
L 224.796953 261.759864 
L 225.242724 261.079334 
L 225.688494 262.198327 
L 226.134264 261.883182 
L 226.580034 257.749757 
L 228.363114 232.501614 
L 228.808884 229.948483 
L 229.700424 231.652093 
L 230.146194 232.085988 
L 230.591965 232.232143 
L 231.037735 228.902567 
L 231.483505 230.775168 
L 231.929275 227.395351 
L 232.375045 227.22636 
L 232.820815 228.856893 
L 233.266585 231.478535 
L 233.712355 231.866757 
L 234.158125 232.012911 
L 234.603895 230.848245 
L 235.049665 229.071557 
L 235.495435 230.629013 
L 235.941206 231.113149 
L 236.386976 228.587421 
L 236.832746 225.066018 
L 237.278516 224.093179 
L 237.724286 226.326598 
L 238.170056 230.044396 
L 238.615826 230.505696 
L 239.061596 228.637662 
L 239.507366 227.833814 
L 239.953136 228.345354 
L 240.398906 229.217712 
L 240.844676 226.765061 
L 241.290447 226.787898 
L 241.736217 230.921322 
L 242.181987 238.090187 
L 242.627757 242.999599 
L 243.073527 244.749339 
L 243.519297 247.254057 
L 243.965067 248.299973 
L 244.410837 244.749339 
L 244.856607 244.554771 
L 245.302377 246.183477 
L 245.748147 249.610794 
L 246.193917 251.264164 
L 246.639688 243.461355 
L 247.531228 253.666574 
L 247.976998 254.954558 
L 248.422768 254.374508 
L 248.868538 255.635088 
L 249.314308 257.603603 
L 249.760078 257.265622 
L 250.205848 253.767055 
L 250.651618 254.520662 
L 251.097388 258.06947 
L 251.543158 259.403127 
L 252.434699 263.901937 
L 252.880469 263.94761 
L 253.326239 260.47188 
L 253.772009 258.722597 
L 254.217779 262.225731 
L 254.663549 261.810105 
L 255.109319 258.311538 
L 255.555089 256.343023 
L 256.000859 253.132197 
L 256.446629 242.780824 
L 256.8924 240.617741 
L 257.33817 236.050422 
L 257.78394 235.173496 
L 258.22971 234.031667 
L 258.67548 234.00883 
L 259.12125 230.825408 
L 259.56702 232.474211 
L 260.01279 233.570367 
L 260.90433 233.351136 
L 261.79587 229.852569 
L 262.241641 227.007129 
L 262.687411 222.878272 
L 263.133181 223.339571 
L 263.578951 230.409782 
L 264.470491 233.547531 
L 264.916261 231.16339 
L 265.362031 227.276601 
L 266.253571 224.093179 
L 266.699341 221.46697 
L 267.145111 222.416973 
L 267.590882 224.9427 
L 268.036652 225.961213 
L 268.482422 228.030208 
L 268.928192 227.810977 
L 269.373962 224.577315 
L 269.819732 225.915539 
L 270.265502 228.783816 
L 272.494352 250.65671 
L 273.385893 252.698302 
L 273.831663 253.013447 
L 274.723203 254.812971 
L 275.614743 263.294484 
L 276.060513 262.974771 
L 276.506283 260.910343 
L 276.952053 257.50769 
L 277.397823 254.981962 
L 277.843593 254.858644 
L 278.289364 255.466098 
L 278.735134 252.670898 
L 279.180904 254.981962 
L 279.626674 260.933179 
L 280.072444 271.36037 
L 280.518214 269.611087 
L 280.963984 263.728379 
L 281.409754 266.866128 
L 281.855524 267.912044 
L 282.301294 269.633923 
L 282.747064 267.811563 
L 284.084375 258.042066 
L 284.530145 252.867293 
L 284.975915 245.429869 
L 285.421685 241.419763 
L 285.867455 241.44397 
L 286.313225 242.124637 
L 286.758995 243.266787 
L 287.204765 243.096883 
L 287.650535 240.42363 
L 288.096305 233.958589 
L 288.542075 229.363866 
L 288.987846 229.729251 
L 289.879386 234.785274 
L 290.325156 234.954265 
L 290.770926 230.044396 
L 291.216696 227.906891 
L 291.662466 229.071557 
L 292.108236 230.848245 
L 292.554006 233.351136 
L 292.999776 233.812435 
L 293.891316 225.330923 
L 294.337087 224.919864 
L 294.782857 226.984292 
L 295.228627 227.17612 
L 295.674397 225.696308 
L 296.120167 224.77371 
L 296.565937 224.138852 
L 297.011707 224.020102 
L 297.457477 225.477077 
L 297.903247 224.77371 
L 298.349017 223.458321 
L 298.794787 224.992941 
L 299.240558 228.564585 
L 299.686328 233.373972 
L 300.577868 245.332586 
L 301.023638 247.788433 
L 301.469408 247.907184 
L 301.915178 245.381456 
L 302.360948 245.454076 
L 302.806718 248.514637 
L 303.252488 250.049257 
L 304.144028 245.794342 
L 304.589799 246.766724 
L 305.035569 251.213923 
L 305.481339 254.031959 
L 305.927109 255.612252 
L 306.372879 255.246866 
L 307.264419 256.99615 
L 307.710189 256.292783 
L 308.155959 257.631007 
L 308.601729 258.430288 
L 309.493269 262.856021 
L 309.93904 264.386073 
L 310.83058 263.728379 
L 311.27635 264.555064 
L 311.72212 264.532227 
L 313.05943 255.128116 
L 313.5052 248.784109 
L 313.95097 244.9197 
L 314.39674 243.218373 
L 314.84251 240.885386 
L 315.288281 236.80403 
L 315.734051 233.958589 
L 316.179821 233.643444 
L 316.625591 231.359785 
L 317.071361 226.399675 
L 317.517131 225.842462 
L 317.962901 226.54583 
L 318.408671 228.856893 
L 318.854441 231.84392 
L 319.300211 233.474454 
L 319.745981 231.579016 
L 320.191751 227.85665 
L 320.637522 227.641986 
L 321.083292 226.303762 
L 321.529062 226.280925 
L 322.420602 222.732118 
L 322.866372 220.178986 
L 323.312142 219.475619 
L 324.203682 217.749172 
L 324.649452 218.064317 
L 325.095222 218.840761 
L 325.986763 219.936918 
L 326.432533 219.498455 
L 326.878303 221.247739 
L 327.324073 222.197741 
L 327.769843 221.928269 
L 328.215613 225.600394 
L 329.107153 235.465805 
L 329.552923 237.507397 
L 329.998693 241.590124 
L 330.444463 248.199492 
L 330.890233 256.461773 
L 331.336004 256.36586 
L 332.227544 253.547823 
L 332.673314 253.05912 
L 333.119084 251.748299 
L 333.564854 252.237003 
L 334.010624 255.128116 
L 334.902164 257.873075 
L 335.347934 255.319943 
L 335.793704 254.931721 
L 336.239475 251.191086 
L 336.685245 253.05912 
L 338.914095 268.665651 
L 339.359865 270.803157 
L 339.805635 267.642572 
L 340.251405 269.780077 
L 340.697175 272.479363 
L 341.142945 266.427665 
L 342.034486 257.462016 
L 342.926026 254.835808 
L 343.817566 247.254057 
L 344.263336 247.254057 
L 344.709106 248.176655 
L 345.154876 242.537797 
L 345.600646 240.398967 
L 346.492186 240.593535 
L 347.383727 237.920282 
L 347.829497 235.83119 
L 348.275267 234.301138 
L 348.721037 229.098961 
L 349.166807 227.299437 
L 349.612577 222.439809 
L 350.058347 220.421054 
L 350.504117 223.677553 
L 350.949887 230.364109 
L 351.395657 235.319651 
L 351.841427 237.311002 
L 352.287198 240.058702 
L 352.732968 243.582845 
L 353.178738 242.076041 
L 353.624508 239.888797 
L 354.070278 232.693442 
L 354.516048 232.012911 
L 354.961818 233.204982 
L 355.407588 235.296814 
L 355.853358 236.461481 
L 356.744898 230.364109 
L 357.190668 232.720846 
L 357.636439 241.56546 
L 358.082209 244.117679 
L 358.527979 243.534432 
L 358.973749 238.819588 
L 359.419519 230.65185 
L 359.865289 224.600151 
L 360.311059 220.640285 
L 360.756829 218.333789 
L 361.202599 217.4797 
L 361.648369 216.264793 
L 362.094139 216.89965 
L 362.539909 216.826573 
L 362.98568 215.999888 
L 363.43145 218.67177 
L 363.87722 223.143176 
L 364.32299 232.962914 
L 364.76876 245.284172 
L 365.21453 252.817052 
L 365.6603 253.351429 
L 366.10607 251.067769 
L 366.55184 252.743975 
L 366.99761 256.073551 
L 367.44338 256.100955 
L 367.88915 256.731245 
L 368.334921 259.987744 
L 368.780691 264.290159 
L 369.226461 264.363236 
L 370.118001 248.44156 
L 370.563771 244.725132 
L 371.009541 245.672851 
L 371.455311 246.353381 
L 371.901081 245.697058 
L 373.684162 208.559725 
L 374.129932 210.409489 
L 375.021472 227.591746 
L 375.467242 233.762195 
L 375.913012 232.474211 
L 376.358782 226.888379 
L 376.804552 227.422755 
L 377.250322 232.040315 
L 378.141862 249.852862 
L 379.033403 268.176948 
L 379.479173 271.337533 
L 379.924943 264.751459 
L 380.370713 262.294241 
L 380.816483 261.737028 
L 381.262253 265.65122 
L 382.599563 284.53252 
L 383.045333 286.208726 
L 383.491103 285.0943 
L 384.828414 279.672892 
L 385.274184 274.982255 
L 385.719954 275.274563 
L 386.165724 278.188513 
L 386.611494 283.756076 
L 387.057264 287.912337 
L 387.503034 288.190943 
L 387.948804 285.943822 
L 388.394574 282.664486 
L 388.840344 274.959418 
L 389.286115 271.433447 
L 389.731885 261.444719 
L 390.177655 257.069227 
L 390.623425 255.589415 
L 391.514965 251.529068 
L 391.960735 249.852862 
L 392.406505 247.130739 
L 392.852275 242.464903 
L 393.298045 232.743682 
L 393.743815 230.578773 
L 394.189585 227.103043 
L 394.635356 226.71482 
L 395.526896 224.846787 
L 395.972666 224.453997 
L 396.418436 225.111691 
L 396.864206 227.130447 
L 397.309976 229.706415 
L 397.755746 231.432862 
L 398.201516 230.775168 
L 398.647286 228.36819 
L 399.093056 227.929727 
L 399.538826 227.057369 
L 399.984597 225.915539 
L 400.430367 225.134528 
L 400.876137 225.527317 
L 401.767677 228.176363 
L 402.213447 230.336705 
L 402.659217 231.359785 
L 403.104987 233.373972 
L 403.550757 233.762195 
L 403.996527 233.862676 
L 404.442297 233.789599 
L 404.888067 234.031667 
L 405.333838 234.881188 
L 405.779608 236.050422 
L 406.225378 236.607635 
L 406.671148 236.776626 
L 407.116918 237.164848 
L 407.562688 238.527736 
L 408.008458 239.013699 
L 408.899998 240.472044 
L 409.791538 241.881519 
L 410.683079 243.437148 
L 411.128849 244.968113 
L 411.574619 245.55136 
L 412.020389 246.815137 
L 413.357699 247.473288 
L 413.803469 247.619442 
L 414.249239 246.864008 
L 414.695009 245.624437 
L 415.586549 244.214962 
L 416.03232 243.704336 
L 416.47809 241.808898 
L 416.92386 240.641948 
L 417.36963 238.794924 
L 417.8154 237.48456 
L 418.26117 237.018694 
L 418.70694 237.142011 
L 419.15271 237.968696 
L 419.59848 239.329757 
L 420.49002 243.412941 
L 420.935791 246.766724 
L 421.381561 248.907427 
L 421.827331 250.09493 
L 422.718871 253.278352 
L 423.610411 255.831483 
L 424.056181 256.708409 
L 424.501951 257.850239 
L 424.947721 257.850239 
L 425.393491 256.99615 
L 425.839261 256.562254 
L 427.176572 254.274027 
L 428.068112 252.986043 
L 428.513882 252.063445 
L 428.959652 248.272569 
L 429.405422 246.864008 
L 429.851192 242.464903 
L 430.296962 240.155985 
L 430.742732 239.086776 
L 431.634273 236.584798 
L 432.080043 236.123499 
L 432.080043 236.123499 
" clip-path="url(#pfba3b73e27)" style="fill: none; stroke: #ff7f0e; stroke-width: 2; stroke-linecap: square"/>
   </g>
   <g id="patch_9">
    <path d="M 55.760938 304.44375 
L 55.760938 175.97875 
" style="fill: none; stroke: #000000; stroke-width: 0.8; stroke-linejoin: miter; stroke-linecap: square"/>
   </g>
   <g id="patch_10">
    <path d="M 450 304.44375 
L 450 175.97875 
" style="fill: none; stroke: #000000; stroke-width: 0.8; stroke-linejoin: miter; stroke-linecap: square"/>
   </g>
   <g id="patch_11">
    <path d="M 55.760938 304.44375 
L 450 304.44375 
" style="fill: none; stroke: #000000; stroke-width: 0.8; stroke-linejoin: miter; stroke-linecap: square"/>
   </g>
   <g id="patch_12">
    <path d="M 55.760938 175.97875 
L 450 175.97875 
" style="fill: none; stroke: #000000; stroke-width: 0.8; stroke-linejoin: miter; stroke-linecap: square"/>
   </g>
   <g id="legend_2">
    <g id="patch_13">
     <path d="M 211.621875 213.335 
L 294.139063 213.335 
Q 296.139063 213.335 296.139063 211.335 
L 296.139063 182.97875 
Q 296.139063 180.97875 294.139063 180.97875 
L 211.621875 180.97875 
Q 209.621875 180.97875 209.621875 182.97875 
L 209.621875 211.335 
Q 209.621875 213.335 211.621875 213.335 
z
" style="fill: #ffffff; opacity: 0.8; stroke: #cccccc; stroke-linejoin: miter"/>
    </g>
    <g id="line2d_61">
     <path d="M 213.621875 189.077187 
L 223.621875 189.077187 
L 233.621875 189.077187 
" style="fill: none; stroke: #1f77b4; stroke-width: 2; stroke-linecap: square"/>
    </g>
    <g id="text_24">
     <!-- Reference -->
     <g transform="translate(241.621875 192.577187)scale(0.1 -0.1)">
      <use xlink:href="#DejaVuSans-52"/>
      <use xlink:href="#DejaVuSans-65" x="64.982422"/>
      <use xlink:href="#DejaVuSans-66" x="126.505859"/>
      <use xlink:href="#DejaVuSans-65" x="161.710938"/>
      <use xlink:href="#DejaVuSans-72" x="223.234375"/>
      <use xlink:href="#DejaVuSans-65" x="262.097656"/>
      <use xlink:href="#DejaVuSans-6e" x="323.621094"/>
      <use xlink:href="#DejaVuSans-63" x="387"/>
      <use xlink:href="#DejaVuSans-65" x="441.980469"/>
     </g>
    </g>
    <g id="line2d_62">
     <path d="M 213.621875 203.755312 
L 223.621875 203.755312 
L 233.621875 203.755312 
" style="fill: none; stroke: #ff7f0e; stroke-width: 2; stroke-linecap: square"/>
    </g>
    <g id="text_25">
     <!-- Estimated -->
     <g transform="translate(241.621875 207.255312)scale(0.1 -0.1)">
      <use xlink:href="#DejaVuSans-45"/>
      <use xlink:href="#DejaVuSans-73" x="63.183594"/>
      <use xlink:href="#DejaVuSans-74" x="115.283203"/>
      <use xlink:href="#DejaVuSans-69" x="154.492188"/>
      <use xlink:href="#DejaVuSans-6d" x="182.275391"/>
      <use xlink:href="#DejaVuSans-61" x="279.6875"/>
      <use xlink:href="#DejaVuSans-74" x="340.966797"/>
      <use xlink:href="#DejaVuSans-65" x="380.175781"/>
      <use xlink:href="#DejaVuSans-64" x="441.699219"/>
     </g>
    </g>
   </g>
  </g>
  <g id="text_26">
   <!-- Translational and Rotational Velocity -->
   <g transform="translate(121.384688 16.030125)scale(0.12 -0.12)">
    <defs>
     <path id="DejaVuSans-56" d="M 1831 0 
L 50 4666 
L 709 4666 
L 2188 738 
L 3669 4666 
L 4325 4666 
L 2547 0 
L 1831 0 
z
" transform="scale(0.015625)"/>
     <path id="DejaVuSans-79" d="M 2059 -325 
Q 1816 -950 1584 -1140 
Q 1353 -1331 966 -1331 
L 506 -1331 
L 506 -850 
L 844 -850 
Q 1081 -850 1212 -737 
Q 1344 -625 1503 -206 
L 1606 56 
L 191 3500 
L 800 3500 
L 1894 763 
L 2988 3500 
L 3597 3500 
L 2059 -325 
z
" transform="scale(0.015625)"/>
    </defs>
    <use xlink:href="#DejaVuSans-54"/>
    <use xlink:href="#DejaVuSans-72" x="46.333984"/>
    <use xlink:href="#DejaVuSans-61" x="87.447266"/>
    <use xlink:href="#DejaVuSans-6e" x="148.726562"/>
    <use xlink:href="#DejaVuSans-73" x="212.105469"/>
    <use xlink:href="#DejaVuSans-6c" x="264.205078"/>
    <use xlink:href="#DejaVuSans-61" x="291.988281"/>
    <use xlink:href="#DejaVuSans-74" x="353.267578"/>
    <use xlink:href="#DejaVuSans-69" x="392.476562"/>
    <use xlink:href="#DejaVuSans-6f" x="420.259766"/>
    <use xlink:href="#DejaVuSans-6e" x="481.441406"/>
    <use xlink:href="#DejaVuSans-61" x="544.820312"/>
    <use xlink:href="#DejaVuSans-6c" x="606.099609"/>
    <use xlink:href="#DejaVuSans-20" x="633.882812"/>
    <use xlink:href="#DejaVuSans-61" x="665.669922"/>
    <use xlink:href="#DejaVuSans-6e" x="726.949219"/>
    <use xlink:href="#DejaVuSans-64" x="790.328125"/>
    <use xlink:href="#DejaVuSans-20" x="853.804688"/>
    <use xlink:href="#DejaVuSans-52" x="885.591797"/>
    <use xlink:href="#DejaVuSans-6f" x="950.574219"/>
    <use xlink:href="#DejaVuSans-74" x="1011.755859"/>
    <use xlink:href="#DejaVuSans-61" x="1050.964844"/>
    <use xlink:href="#DejaVuSans-74" x="1112.244141"/>
    <use xlink:href="#DejaVuSans-69" x="1151.453125"/>
    <use xlink:href="#DejaVuSans-6f" x="1179.236328"/>
    <use xlink:href="#DejaVuSans-6e" x="1240.417969"/>
    <use xlink:href="#DejaVuSans-61" x="1303.796875"/>
    <use xlink:href="#DejaVuSans-6c" x="1365.076172"/>
    <use xlink:href="#DejaVuSans-20" x="1392.859375"/>
    <use xlink:href="#DejaVuSans-56" x="1424.646484"/>
    <use xlink:href="#DejaVuSans-65" x="1485.304688"/>
    <use xlink:href="#DejaVuSans-6c" x="1546.828125"/>
    <use xlink:href="#DejaVuSans-6f" x="1574.611328"/>
    <use xlink:href="#DejaVuSans-63" x="1635.792969"/>
    <use xlink:href="#DejaVuSans-69" x="1690.773438"/>
    <use xlink:href="#DejaVuSans-74" x="1718.556641"/>
    <use xlink:href="#DejaVuSans-79" x="1757.765625"/>
   </g>
  </g>
 </g>
 <defs>
  <clipPath id="pcae737d6ad">
   <rect x="55.760938" y="33.21375" width="394.239062" height="128.465"/>
  </clipPath>
  <clipPath id="pfba3b73e27">
   <rect x="55.760938" y="175.97875" width="394.239062" height="128.465"/>
  </clipPath>
 </defs>
</svg>
