<?xml version="1.0" encoding="utf-8" standalone="no"?>
<!DOCTYPE svg PUBLIC "-//W3C//DTD SVG 1.1//EN"
  "http://www.w3.org/Graphics/SVG/1.1/DTD/svg11.dtd">
<svg xmlns:xlink="http://www.w3.org/1999/xlink" width="576pt" height="432pt" viewBox="0 0 576 432" xmlns="http://www.w3.org/2000/svg" version="1.1">
 <metadata>
  <rdf:RDF xmlns:dc="http://purl.org/dc/elements/1.1/" xmlns:cc="http://creativecommons.org/ns#" xmlns:rdf="http://www.w3.org/1999/02/22-rdf-syntax-ns#">
   <cc:Work>
    <dc:type rdf:resource="http://purl.org/dc/dcmitype/StillImage"/>
    <dc:date>2022-01-10T00:01:25.520593</dc:date>
    <dc:format>image/svg+xml</dc:format>
    <dc:creator>
     <cc:Agent>
      <dc:title>Matplotlib v3.5.1, https://matplotlib.org/</dc:title>
     </cc:Agent>
    </dc:creator>
   </cc:Work>
  </rdf:RDF>
 </metadata>
 <defs>
  <style type="text/css">*{stroke-linejoin: round; stroke-linecap: butt}</style>
 </defs>
 <g id="figure_1">
  <g id="patch_1">
   <path d="M 0 432 
L 576 432 
L 576 0 
L 0 0 
z
" style="fill: #ffffff"/>
  </g>
  <g id="axes_1">
   <g id="patch_2">
    <path d="M 59.42 179.44 
L 565.2 179.44 
L 565.2 25.44 
L 59.42 25.44 
z
" style="fill: #ffffff"/>
   </g>
   <g id="matplotlib.axis_1">
    <g id="xtick_1">
     <g id="line2d_1">
      <path d="M 82.41 179.44 
L 82.41 25.44 
" clip-path="url(#p90684a1939)" style="fill: none; stroke: #b0b0b0; stroke-width: 0.8; stroke-linecap: square"/>
     </g>
     <g id="line2d_2">
      <defs>
       <path id="m4dfa7c1928" d="M 0 0 
L 0 3.5 
" style="stroke: #000000; stroke-width: 0.8"/>
      </defs>
      <g>
       <use xlink:href="#m4dfa7c1928" x="82.41" y="179.44" style="stroke: #000000; stroke-width: 0.8"/>
      </g>
     </g>
     <g id="text_1">
      <!-- 0 -->
      <g transform="translate(79.22875 194.038437)scale(0.1 -0.1)">
       <defs>
        <path id="DejaVuSans-30" d="M 2034 4250 
Q 1547 4250 1301 3770 
Q 1056 3291 1056 2328 
Q 1056 1369 1301 889 
Q 1547 409 2034 409 
Q 2525 409 2770 889 
Q 3016 1369 3016 2328 
Q 3016 3291 2770 3770 
Q 2525 4250 2034 4250 
z
M 2034 4750 
Q 2819 4750 3233 4129 
Q 3647 3509 3647 2328 
Q 3647 1150 3233 529 
Q 2819 -91 2034 -91 
Q 1250 -91 836 529 
Q 422 1150 422 2328 
Q 422 3509 836 4129 
Q 1250 4750 2034 4750 
z
" transform="scale(0.015625)"/>
       </defs>
       <use xlink:href="#DejaVuSans-30"/>
      </g>
     </g>
    </g>
    <g id="xtick_2">
     <g id="line2d_3">
      <path d="M 146.271111 179.44 
L 146.271111 25.44 
" clip-path="url(#p90684a1939)" style="fill: none; stroke: #b0b0b0; stroke-width: 0.8; stroke-linecap: square"/>
     </g>
     <g id="line2d_4">
      <g>
       <use xlink:href="#m4dfa7c1928" x="146.271111" y="179.44" style="stroke: #000000; stroke-width: 0.8"/>
      </g>
     </g>
     <g id="text_2">
      <!-- 50 -->
      <g transform="translate(139.908611 194.038437)scale(0.1 -0.1)">
       <defs>
        <path id="DejaVuSans-35" d="M 691 4666 
L 3169 4666 
L 3169 4134 
L 1269 4134 
L 1269 2991 
Q 1406 3038 1543 3061 
Q 1681 3084 1819 3084 
Q 2600 3084 3056 2656 
Q 3513 2228 3513 1497 
Q 3513 744 3044 326 
Q 2575 -91 1722 -91 
Q 1428 -91 1123 -41 
Q 819 9 494 109 
L 494 744 
Q 775 591 1075 516 
Q 1375 441 1709 441 
Q 2250 441 2565 725 
Q 2881 1009 2881 1497 
Q 2881 1984 2565 2268 
Q 2250 2553 1709 2553 
Q 1456 2553 1204 2497 
Q 953 2441 691 2322 
L 691 4666 
z
" transform="scale(0.015625)"/>
       </defs>
       <use xlink:href="#DejaVuSans-35"/>
       <use xlink:href="#DejaVuSans-30" x="63.623047"/>
      </g>
     </g>
    </g>
    <g id="xtick_3">
     <g id="line2d_5">
      <path d="M 210.132222 179.44 
L 210.132222 25.44 
" clip-path="url(#p90684a1939)" style="fill: none; stroke: #b0b0b0; stroke-width: 0.8; stroke-linecap: square"/>
     </g>
     <g id="line2d_6">
      <g>
       <use xlink:href="#m4dfa7c1928" x="210.132222" y="179.44" style="stroke: #000000; stroke-width: 0.8"/>
      </g>
     </g>
     <g id="text_3">
      <!-- 100 -->
      <g transform="translate(200.588472 194.038437)scale(0.1 -0.1)">
       <defs>
        <path id="DejaVuSans-31" d="M 794 531 
L 1825 531 
L 1825 4091 
L 703 3866 
L 703 4441 
L 1819 4666 
L 2450 4666 
L 2450 531 
L 3481 531 
L 3481 0 
L 794 0 
L 794 531 
z
" transform="scale(0.015625)"/>
       </defs>
       <use xlink:href="#DejaVuSans-31"/>
       <use xlink:href="#DejaVuSans-30" x="63.623047"/>
       <use xlink:href="#DejaVuSans-30" x="127.246094"/>
      </g>
     </g>
    </g>
    <g id="xtick_4">
     <g id="line2d_7">
      <path d="M 273.993333 179.44 
L 273.993333 25.44 
" clip-path="url(#p90684a1939)" style="fill: none; stroke: #b0b0b0; stroke-width: 0.8; stroke-linecap: square"/>
     </g>
     <g id="line2d_8">
      <g>
       <use xlink:href="#m4dfa7c1928" x="273.993333" y="179.44" style="stroke: #000000; stroke-width: 0.8"/>
      </g>
     </g>
     <g id="text_4">
      <!-- 150 -->
      <g transform="translate(264.449583 194.038437)scale(0.1 -0.1)">
       <use xlink:href="#DejaVuSans-31"/>
       <use xlink:href="#DejaVuSans-35" x="63.623047"/>
       <use xlink:href="#DejaVuSans-30" x="127.246094"/>
      </g>
     </g>
    </g>
    <g id="xtick_5">
     <g id="line2d_9">
      <path d="M 337.854444 179.44 
L 337.854444 25.44 
" clip-path="url(#p90684a1939)" style="fill: none; stroke: #b0b0b0; stroke-width: 0.8; stroke-linecap: square"/>
     </g>
     <g id="line2d_10">
      <g>
       <use xlink:href="#m4dfa7c1928" x="337.854444" y="179.44" style="stroke: #000000; stroke-width: 0.8"/>
      </g>
     </g>
     <g id="text_5">
      <!-- 200 -->
      <g transform="translate(328.310694 194.038437)scale(0.1 -0.1)">
       <defs>
        <path id="DejaVuSans-32" d="M 1228 531 
L 3431 531 
L 3431 0 
L 469 0 
L 469 531 
Q 828 903 1448 1529 
Q 2069 2156 2228 2338 
Q 2531 2678 2651 2914 
Q 2772 3150 2772 3378 
Q 2772 3750 2511 3984 
Q 2250 4219 1831 4219 
Q 1534 4219 1204 4116 
Q 875 4013 500 3803 
L 500 4441 
Q 881 4594 1212 4672 
Q 1544 4750 1819 4750 
Q 2544 4750 2975 4387 
Q 3406 4025 3406 3419 
Q 3406 3131 3298 2873 
Q 3191 2616 2906 2266 
Q 2828 2175 2409 1742 
Q 1991 1309 1228 531 
z
" transform="scale(0.015625)"/>
       </defs>
       <use xlink:href="#DejaVuSans-32"/>
       <use xlink:href="#DejaVuSans-30" x="63.623047"/>
       <use xlink:href="#DejaVuSans-30" x="127.246094"/>
      </g>
     </g>
    </g>
    <g id="xtick_6">
     <g id="line2d_11">
      <path d="M 401.715556 179.44 
L 401.715556 25.44 
" clip-path="url(#p90684a1939)" style="fill: none; stroke: #b0b0b0; stroke-width: 0.8; stroke-linecap: square"/>
     </g>
     <g id="line2d_12">
      <g>
       <use xlink:href="#m4dfa7c1928" x="401.715556" y="179.44" style="stroke: #000000; stroke-width: 0.8"/>
      </g>
     </g>
     <g id="text_6">
      <!-- 250 -->
      <g transform="translate(392.171806 194.038437)scale(0.1 -0.1)">
       <use xlink:href="#DejaVuSans-32"/>
       <use xlink:href="#DejaVuSans-35" x="63.623047"/>
       <use xlink:href="#DejaVuSans-30" x="127.246094"/>
      </g>
     </g>
    </g>
    <g id="xtick_7">
     <g id="line2d_13">
      <path d="M 465.576667 179.44 
L 465.576667 25.44 
" clip-path="url(#p90684a1939)" style="fill: none; stroke: #b0b0b0; stroke-width: 0.8; stroke-linecap: square"/>
     </g>
     <g id="line2d_14">
      <g>
       <use xlink:href="#m4dfa7c1928" x="465.576667" y="179.44" style="stroke: #000000; stroke-width: 0.8"/>
      </g>
     </g>
     <g id="text_7">
      <!-- 300 -->
      <g transform="translate(456.032917 194.038437)scale(0.1 -0.1)">
       <defs>
        <path id="DejaVuSans-33" d="M 2597 2516 
Q 3050 2419 3304 2112 
Q 3559 1806 3559 1356 
Q 3559 666 3084 287 
Q 2609 -91 1734 -91 
Q 1441 -91 1130 -33 
Q 819 25 488 141 
L 488 750 
Q 750 597 1062 519 
Q 1375 441 1716 441 
Q 2309 441 2620 675 
Q 2931 909 2931 1356 
Q 2931 1769 2642 2001 
Q 2353 2234 1838 2234 
L 1294 2234 
L 1294 2753 
L 1863 2753 
Q 2328 2753 2575 2939 
Q 2822 3125 2822 3475 
Q 2822 3834 2567 4026 
Q 2313 4219 1838 4219 
Q 1578 4219 1281 4162 
Q 984 4106 628 3988 
L 628 4550 
Q 988 4650 1302 4700 
Q 1616 4750 1894 4750 
Q 2613 4750 3031 4423 
Q 3450 4097 3450 3541 
Q 3450 3153 3228 2886 
Q 3006 2619 2597 2516 
z
" transform="scale(0.015625)"/>
       </defs>
       <use xlink:href="#DejaVuSans-33"/>
       <use xlink:href="#DejaVuSans-30" x="63.623047"/>
       <use xlink:href="#DejaVuSans-30" x="127.246094"/>
      </g>
     </g>
    </g>
    <g id="xtick_8">
     <g id="line2d_15">
      <path d="M 529.437778 179.44 
L 529.437778 25.44 
" clip-path="url(#p90684a1939)" style="fill: none; stroke: #b0b0b0; stroke-width: 0.8; stroke-linecap: square"/>
     </g>
     <g id="line2d_16">
      <g>
       <use xlink:href="#m4dfa7c1928" x="529.437778" y="179.44" style="stroke: #000000; stroke-width: 0.8"/>
      </g>
     </g>
     <g id="text_8">
      <!-- 350 -->
      <g transform="translate(519.894028 194.038437)scale(0.1 -0.1)">
       <use xlink:href="#DejaVuSans-33"/>
       <use xlink:href="#DejaVuSans-35" x="63.623047"/>
       <use xlink:href="#DejaVuSans-30" x="127.246094"/>
      </g>
     </g>
    </g>
    <g id="text_9">
     <!-- Translational Position (x) [mm] -->
     <g transform="translate(235.882656 207.716562)scale(0.1 -0.1)">
      <defs>
       <path id="DejaVuSans-54" d="M -19 4666 
L 3928 4666 
L 3928 4134 
L 2272 4134 
L 2272 0 
L 1638 0 
L 1638 4134 
L -19 4134 
L -19 4666 
z
" transform="scale(0.015625)"/>
       <path id="DejaVuSans-72" d="M 2631 2963 
Q 2534 3019 2420 3045 
Q 2306 3072 2169 3072 
Q 1681 3072 1420 2755 
Q 1159 2438 1159 1844 
L 1159 0 
L 581 0 
L 581 3500 
L 1159 3500 
L 1159 2956 
Q 1341 3275 1631 3429 
Q 1922 3584 2338 3584 
Q 2397 3584 2469 3576 
Q 2541 3569 2628 3553 
L 2631 2963 
z
" transform="scale(0.015625)"/>
       <path id="DejaVuSans-61" d="M 2194 1759 
Q 1497 1759 1228 1600 
Q 959 1441 959 1056 
Q 959 750 1161 570 
Q 1363 391 1709 391 
Q 2188 391 2477 730 
Q 2766 1069 2766 1631 
L 2766 1759 
L 2194 1759 
z
M 3341 1997 
L 3341 0 
L 2766 0 
L 2766 531 
Q 2569 213 2275 61 
Q 1981 -91 1556 -91 
Q 1019 -91 701 211 
Q 384 513 384 1019 
Q 384 1609 779 1909 
Q 1175 2209 1959 2209 
L 2766 2209 
L 2766 2266 
Q 2766 2663 2505 2880 
Q 2244 3097 1772 3097 
Q 1472 3097 1187 3025 
Q 903 2953 641 2809 
L 641 3341 
Q 956 3463 1253 3523 
Q 1550 3584 1831 3584 
Q 2591 3584 2966 3190 
Q 3341 2797 3341 1997 
z
" transform="scale(0.015625)"/>
       <path id="DejaVuSans-6e" d="M 3513 2113 
L 3513 0 
L 2938 0 
L 2938 2094 
Q 2938 2591 2744 2837 
Q 2550 3084 2163 3084 
Q 1697 3084 1428 2787 
Q 1159 2491 1159 1978 
L 1159 0 
L 581 0 
L 581 3500 
L 1159 3500 
L 1159 2956 
Q 1366 3272 1645 3428 
Q 1925 3584 2291 3584 
Q 2894 3584 3203 3211 
Q 3513 2838 3513 2113 
z
" transform="scale(0.015625)"/>
       <path id="DejaVuSans-73" d="M 2834 3397 
L 2834 2853 
Q 2591 2978 2328 3040 
Q 2066 3103 1784 3103 
Q 1356 3103 1142 2972 
Q 928 2841 928 2578 
Q 928 2378 1081 2264 
Q 1234 2150 1697 2047 
L 1894 2003 
Q 2506 1872 2764 1633 
Q 3022 1394 3022 966 
Q 3022 478 2636 193 
Q 2250 -91 1575 -91 
Q 1294 -91 989 -36 
Q 684 19 347 128 
L 347 722 
Q 666 556 975 473 
Q 1284 391 1588 391 
Q 1994 391 2212 530 
Q 2431 669 2431 922 
Q 2431 1156 2273 1281 
Q 2116 1406 1581 1522 
L 1381 1569 
Q 847 1681 609 1914 
Q 372 2147 372 2553 
Q 372 3047 722 3315 
Q 1072 3584 1716 3584 
Q 2034 3584 2315 3537 
Q 2597 3491 2834 3397 
z
" transform="scale(0.015625)"/>
       <path id="DejaVuSans-6c" d="M 603 4863 
L 1178 4863 
L 1178 0 
L 603 0 
L 603 4863 
z
" transform="scale(0.015625)"/>
       <path id="DejaVuSans-74" d="M 1172 4494 
L 1172 3500 
L 2356 3500 
L 2356 3053 
L 1172 3053 
L 1172 1153 
Q 1172 725 1289 603 
Q 1406 481 1766 481 
L 2356 481 
L 2356 0 
L 1766 0 
Q 1100 0 847 248 
Q 594 497 594 1153 
L 594 3053 
L 172 3053 
L 172 3500 
L 594 3500 
L 594 4494 
L 1172 4494 
z
" transform="scale(0.015625)"/>
       <path id="DejaVuSans-69" d="M 603 3500 
L 1178 3500 
L 1178 0 
L 603 0 
L 603 3500 
z
M 603 4863 
L 1178 4863 
L 1178 4134 
L 603 4134 
L 603 4863 
z
" transform="scale(0.015625)"/>
       <path id="DejaVuSans-6f" d="M 1959 3097 
Q 1497 3097 1228 2736 
Q 959 2375 959 1747 
Q 959 1119 1226 758 
Q 1494 397 1959 397 
Q 2419 397 2687 759 
Q 2956 1122 2956 1747 
Q 2956 2369 2687 2733 
Q 2419 3097 1959 3097 
z
M 1959 3584 
Q 2709 3584 3137 3096 
Q 3566 2609 3566 1747 
Q 3566 888 3137 398 
Q 2709 -91 1959 -91 
Q 1206 -91 779 398 
Q 353 888 353 1747 
Q 353 2609 779 3096 
Q 1206 3584 1959 3584 
z
" transform="scale(0.015625)"/>
       <path id="DejaVuSans-20" transform="scale(0.015625)"/>
       <path id="DejaVuSans-50" d="M 1259 4147 
L 1259 2394 
L 2053 2394 
Q 2494 2394 2734 2622 
Q 2975 2850 2975 3272 
Q 2975 3691 2734 3919 
Q 2494 4147 2053 4147 
L 1259 4147 
z
M 628 4666 
L 2053 4666 
Q 2838 4666 3239 4311 
Q 3641 3956 3641 3272 
Q 3641 2581 3239 2228 
Q 2838 1875 2053 1875 
L 1259 1875 
L 1259 0 
L 628 0 
L 628 4666 
z
" transform="scale(0.015625)"/>
       <path id="DejaVuSans-28" d="M 1984 4856 
Q 1566 4138 1362 3434 
Q 1159 2731 1159 2009 
Q 1159 1288 1364 580 
Q 1569 -128 1984 -844 
L 1484 -844 
Q 1016 -109 783 600 
Q 550 1309 550 2009 
Q 550 2706 781 3412 
Q 1013 4119 1484 4856 
L 1984 4856 
z
" transform="scale(0.015625)"/>
       <path id="DejaVuSans-78" d="M 3513 3500 
L 2247 1797 
L 3578 0 
L 2900 0 
L 1881 1375 
L 863 0 
L 184 0 
L 1544 1831 
L 300 3500 
L 978 3500 
L 1906 2253 
L 2834 3500 
L 3513 3500 
z
" transform="scale(0.015625)"/>
       <path id="DejaVuSans-29" d="M 513 4856 
L 1013 4856 
Q 1481 4119 1714 3412 
Q 1947 2706 1947 2009 
Q 1947 1309 1714 600 
Q 1481 -109 1013 -844 
L 513 -844 
Q 928 -128 1133 580 
Q 1338 1288 1338 2009 
Q 1338 2731 1133 3434 
Q 928 4138 513 4856 
z
" transform="scale(0.015625)"/>
       <path id="DejaVuSans-5b" d="M 550 4863 
L 1875 4863 
L 1875 4416 
L 1125 4416 
L 1125 -397 
L 1875 -397 
L 1875 -844 
L 550 -844 
L 550 4863 
z
" transform="scale(0.015625)"/>
       <path id="DejaVuSans-6d" d="M 3328 2828 
Q 3544 3216 3844 3400 
Q 4144 3584 4550 3584 
Q 5097 3584 5394 3201 
Q 5691 2819 5691 2113 
L 5691 0 
L 5113 0 
L 5113 2094 
Q 5113 2597 4934 2840 
Q 4756 3084 4391 3084 
Q 3944 3084 3684 2787 
Q 3425 2491 3425 1978 
L 3425 0 
L 2847 0 
L 2847 2094 
Q 2847 2600 2669 2842 
Q 2491 3084 2119 3084 
Q 1678 3084 1418 2786 
Q 1159 2488 1159 1978 
L 1159 0 
L 581 0 
L 581 3500 
L 1159 3500 
L 1159 2956 
Q 1356 3278 1631 3431 
Q 1906 3584 2284 3584 
Q 2666 3584 2933 3390 
Q 3200 3197 3328 2828 
z
" transform="scale(0.015625)"/>
       <path id="DejaVuSans-5d" d="M 1947 4863 
L 1947 -844 
L 622 -844 
L 622 -397 
L 1369 -397 
L 1369 4416 
L 622 4416 
L 622 4863 
L 1947 4863 
z
" transform="scale(0.015625)"/>
      </defs>
      <use xlink:href="#DejaVuSans-54"/>
      <use xlink:href="#DejaVuSans-72" x="46.333984"/>
      <use xlink:href="#DejaVuSans-61" x="87.447266"/>
      <use xlink:href="#DejaVuSans-6e" x="148.726562"/>
      <use xlink:href="#DejaVuSans-73" x="212.105469"/>
      <use xlink:href="#DejaVuSans-6c" x="264.205078"/>
      <use xlink:href="#DejaVuSans-61" x="291.988281"/>
      <use xlink:href="#DejaVuSans-74" x="353.267578"/>
      <use xlink:href="#DejaVuSans-69" x="392.476562"/>
      <use xlink:href="#DejaVuSans-6f" x="420.259766"/>
      <use xlink:href="#DejaVuSans-6e" x="481.441406"/>
      <use xlink:href="#DejaVuSans-61" x="544.820312"/>
      <use xlink:href="#DejaVuSans-6c" x="606.099609"/>
      <use xlink:href="#DejaVuSans-20" x="633.882812"/>
      <use xlink:href="#DejaVuSans-50" x="665.669922"/>
      <use xlink:href="#DejaVuSans-6f" x="722.347656"/>
      <use xlink:href="#DejaVuSans-73" x="783.529297"/>
      <use xlink:href="#DejaVuSans-69" x="835.628906"/>
      <use xlink:href="#DejaVuSans-74" x="863.412109"/>
      <use xlink:href="#DejaVuSans-69" x="902.621094"/>
      <use xlink:href="#DejaVuSans-6f" x="930.404297"/>
      <use xlink:href="#DejaVuSans-6e" x="991.585938"/>
      <use xlink:href="#DejaVuSans-20" x="1054.964844"/>
      <use xlink:href="#DejaVuSans-28" x="1086.751953"/>
      <use xlink:href="#DejaVuSans-78" x="1125.765625"/>
      <use xlink:href="#DejaVuSans-29" x="1184.945312"/>
      <use xlink:href="#DejaVuSans-20" x="1223.958984"/>
      <use xlink:href="#DejaVuSans-5b" x="1255.746094"/>
      <use xlink:href="#DejaVuSans-6d" x="1294.759766"/>
      <use xlink:href="#DejaVuSans-6d" x="1392.171875"/>
      <use xlink:href="#DejaVuSans-5d" x="1489.583984"/>
     </g>
    </g>
   </g>
   <g id="matplotlib.axis_2">
    <g id="ytick_1">
     <g id="line2d_17">
      <path d="M 59.42 172.493191 
L 565.2 172.493191 
" clip-path="url(#p90684a1939)" style="fill: none; stroke: #b0b0b0; stroke-width: 0.8; stroke-linecap: square"/>
     </g>
     <g id="line2d_18">
      <defs>
       <path id="mef11a5f3ea" d="M 0 0 
L -3.5 0 
" style="stroke: #000000; stroke-width: 0.8"/>
      </defs>
      <g>
       <use xlink:href="#mef11a5f3ea" x="59.42" y="172.493191" style="stroke: #000000; stroke-width: 0.8"/>
      </g>
     </g>
     <g id="text_10">
      <!-- 0 -->
      <g transform="translate(46.0575 176.29241)scale(0.1 -0.1)">
       <use xlink:href="#DejaVuSans-30"/>
      </g>
     </g>
    </g>
    <g id="ytick_2">
     <g id="line2d_19">
      <path d="M 59.42 145.897447 
L 565.2 145.897447 
" clip-path="url(#p90684a1939)" style="fill: none; stroke: #b0b0b0; stroke-width: 0.8; stroke-linecap: square"/>
     </g>
     <g id="line2d_20">
      <g>
       <use xlink:href="#mef11a5f3ea" x="59.42" y="145.897447" style="stroke: #000000; stroke-width: 0.8"/>
      </g>
     </g>
     <g id="text_11">
      <!-- 500 -->
      <g transform="translate(33.3325 149.696666)scale(0.1 -0.1)">
       <use xlink:href="#DejaVuSans-35"/>
       <use xlink:href="#DejaVuSans-30" x="63.623047"/>
       <use xlink:href="#DejaVuSans-30" x="127.246094"/>
      </g>
     </g>
    </g>
    <g id="ytick_3">
     <g id="line2d_21">
      <path d="M 59.42 119.301702 
L 565.2 119.301702 
" clip-path="url(#p90684a1939)" style="fill: none; stroke: #b0b0b0; stroke-width: 0.8; stroke-linecap: square"/>
     </g>
     <g id="line2d_22">
      <g>
       <use xlink:href="#mef11a5f3ea" x="59.42" y="119.301702" style="stroke: #000000; stroke-width: 0.8"/>
      </g>
     </g>
     <g id="text_12">
      <!-- 1000 -->
      <g transform="translate(26.97 123.100921)scale(0.1 -0.1)">
       <use xlink:href="#DejaVuSans-31"/>
       <use xlink:href="#DejaVuSans-30" x="63.623047"/>
       <use xlink:href="#DejaVuSans-30" x="127.246094"/>
       <use xlink:href="#DejaVuSans-30" x="190.869141"/>
      </g>
     </g>
    </g>
    <g id="ytick_4">
     <g id="line2d_23">
      <path d="M 59.42 92.705957 
L 565.2 92.705957 
" clip-path="url(#p90684a1939)" style="fill: none; stroke: #b0b0b0; stroke-width: 0.8; stroke-linecap: square"/>
     </g>
     <g id="line2d_24">
      <g>
       <use xlink:href="#mef11a5f3ea" x="59.42" y="92.705957" style="stroke: #000000; stroke-width: 0.8"/>
      </g>
     </g>
     <g id="text_13">
      <!-- 1500 -->
      <g transform="translate(26.97 96.505176)scale(0.1 -0.1)">
       <use xlink:href="#DejaVuSans-31"/>
       <use xlink:href="#DejaVuSans-35" x="63.623047"/>
       <use xlink:href="#DejaVuSans-30" x="127.246094"/>
       <use xlink:href="#DejaVuSans-30" x="190.869141"/>
      </g>
     </g>
    </g>
    <g id="ytick_5">
     <g id="line2d_25">
      <path d="M 59.42 66.110213 
L 565.2 66.110213 
" clip-path="url(#p90684a1939)" style="fill: none; stroke: #b0b0b0; stroke-width: 0.8; stroke-linecap: square"/>
     </g>
     <g id="line2d_26">
      <g>
       <use xlink:href="#mef11a5f3ea" x="59.42" y="66.110213" style="stroke: #000000; stroke-width: 0.8"/>
      </g>
     </g>
     <g id="text_14">
      <!-- 2000 -->
      <g transform="translate(26.97 69.909432)scale(0.1 -0.1)">
       <use xlink:href="#DejaVuSans-32"/>
       <use xlink:href="#DejaVuSans-30" x="63.623047"/>
       <use xlink:href="#DejaVuSans-30" x="127.246094"/>
       <use xlink:href="#DejaVuSans-30" x="190.869141"/>
      </g>
     </g>
    </g>
    <g id="ytick_6">
     <g id="line2d_27">
      <path d="M 59.42 39.514468 
L 565.2 39.514468 
" clip-path="url(#p90684a1939)" style="fill: none; stroke: #b0b0b0; stroke-width: 0.8; stroke-linecap: square"/>
     </g>
     <g id="line2d_28">
      <g>
       <use xlink:href="#mef11a5f3ea" x="59.42" y="39.514468" style="stroke: #000000; stroke-width: 0.8"/>
      </g>
     </g>
     <g id="text_15">
      <!-- 2500 -->
      <g transform="translate(26.97 43.313687)scale(0.1 -0.1)">
       <use xlink:href="#DejaVuSans-32"/>
       <use xlink:href="#DejaVuSans-35" x="63.623047"/>
       <use xlink:href="#DejaVuSans-30" x="127.246094"/>
       <use xlink:href="#DejaVuSans-30" x="190.869141"/>
      </g>
     </g>
    </g>
    <g id="text_16">
     <!-- reflector value -->
     <g transform="translate(20.890313 138.756406)rotate(-90)scale(0.1 -0.1)">
      <defs>
       <path id="DejaVuSans-65" d="M 3597 1894 
L 3597 1613 
L 953 1613 
Q 991 1019 1311 708 
Q 1631 397 2203 397 
Q 2534 397 2845 478 
Q 3156 559 3463 722 
L 3463 178 
Q 3153 47 2828 -22 
Q 2503 -91 2169 -91 
Q 1331 -91 842 396 
Q 353 884 353 1716 
Q 353 2575 817 3079 
Q 1281 3584 2069 3584 
Q 2775 3584 3186 3129 
Q 3597 2675 3597 1894 
z
M 3022 2063 
Q 3016 2534 2758 2815 
Q 2500 3097 2075 3097 
Q 1594 3097 1305 2825 
Q 1016 2553 972 2059 
L 3022 2063 
z
" transform="scale(0.015625)"/>
       <path id="DejaVuSans-66" d="M 2375 4863 
L 2375 4384 
L 1825 4384 
Q 1516 4384 1395 4259 
Q 1275 4134 1275 3809 
L 1275 3500 
L 2222 3500 
L 2222 3053 
L 1275 3053 
L 1275 0 
L 697 0 
L 697 3053 
L 147 3053 
L 147 3500 
L 697 3500 
L 697 3744 
Q 697 4328 969 4595 
Q 1241 4863 1831 4863 
L 2375 4863 
z
" transform="scale(0.015625)"/>
       <path id="DejaVuSans-63" d="M 3122 3366 
L 3122 2828 
Q 2878 2963 2633 3030 
Q 2388 3097 2138 3097 
Q 1578 3097 1268 2742 
Q 959 2388 959 1747 
Q 959 1106 1268 751 
Q 1578 397 2138 397 
Q 2388 397 2633 464 
Q 2878 531 3122 666 
L 3122 134 
Q 2881 22 2623 -34 
Q 2366 -91 2075 -91 
Q 1284 -91 818 406 
Q 353 903 353 1747 
Q 353 2603 823 3093 
Q 1294 3584 2113 3584 
Q 2378 3584 2631 3529 
Q 2884 3475 3122 3366 
z
" transform="scale(0.015625)"/>
       <path id="DejaVuSans-76" d="M 191 3500 
L 800 3500 
L 1894 563 
L 2988 3500 
L 3597 3500 
L 2284 0 
L 1503 0 
L 191 3500 
z
" transform="scale(0.015625)"/>
       <path id="DejaVuSans-75" d="M 544 1381 
L 544 3500 
L 1119 3500 
L 1119 1403 
Q 1119 906 1312 657 
Q 1506 409 1894 409 
Q 2359 409 2629 706 
Q 2900 1003 2900 1516 
L 2900 3500 
L 3475 3500 
L 3475 0 
L 2900 0 
L 2900 538 
Q 2691 219 2414 64 
Q 2138 -91 1772 -91 
Q 1169 -91 856 284 
Q 544 659 544 1381 
z
M 1991 3584 
L 1991 3584 
z
" transform="scale(0.015625)"/>
      </defs>
      <use xlink:href="#DejaVuSans-72"/>
      <use xlink:href="#DejaVuSans-65" x="38.863281"/>
      <use xlink:href="#DejaVuSans-66" x="100.386719"/>
      <use xlink:href="#DejaVuSans-6c" x="135.591797"/>
      <use xlink:href="#DejaVuSans-65" x="163.375"/>
      <use xlink:href="#DejaVuSans-63" x="224.898438"/>
      <use xlink:href="#DejaVuSans-74" x="279.878906"/>
      <use xlink:href="#DejaVuSans-6f" x="319.087891"/>
      <use xlink:href="#DejaVuSans-72" x="380.269531"/>
      <use xlink:href="#DejaVuSans-20" x="421.382812"/>
      <use xlink:href="#DejaVuSans-76" x="453.169922"/>
      <use xlink:href="#DejaVuSans-61" x="512.349609"/>
      <use xlink:href="#DejaVuSans-6c" x="573.628906"/>
      <use xlink:href="#DejaVuSans-75" x="601.412109"/>
      <use xlink:href="#DejaVuSans-65" x="664.791016"/>
     </g>
    </g>
   </g>
   <g id="line2d_29">
    <path d="M 82.41 33.769787 
L 82.436158 32.971915 
L 82.410409 33.929362 
L 82.498282 33.716596 
L 82.582425 33.078298 
L 82.619209 33.184681 
L 82.660974 33.237872 
L 82.818711 33.769787 
L 82.883083 33.769787 
L 83.208264 32.759149 
L 83.307887 34.088936 
L 83.415557 32.44 
L 83.531529 33.397447 
L 83.7894 33.184681 
L 83.932449 33.663404 
L 84.245368 33.822979 
L 84.417793 33.769787 
L 84.600436 35.099574 
L 84.793297 34.301702 
L 84.997652 34.886809 
L 85.213503 34.301702 
L 85.440848 35.525106 
L 85.678412 35.471915 
L 85.928747 36.37617 
L 86.190578 36.801702 
L 86.463903 37.014468 
L 86.747447 37.546383 
L 87.043762 38.344255 
L 87.351573 38.610213 
L 87.670878 39.301702 
L 88.342697 40.205957 
L 88.696488 40.099574 
L 89.061773 40.897447 
L 89.825552 41.429362 
L 90.225323 41.482553 
L 90.636588 42.227234 
L 91.058072 41.642128 
L 91.492327 42.014468 
L 92.395323 42.280426 
L 93.343022 42.174043 
L 93.834753 41.748511 
L 94.337978 42.120851 
L 94.851422 42.014468 
L 95.373806 41.748511 
L 95.910239 40.950638 
L 96.459444 41.37617 
L 97.021422 40.684681 
L 97.596172 41.37617 
L 98.183694 40.525106 
L 98.771217 40.578298 
L 99.984578 41.216596 
L 100.610417 40.844255 
L 101.236256 41.057021 
L 101.874867 40.578298 
L 103.190406 40.631489 
L 104.518717 41.588936 
L 105.208417 40.578298 
L 105.898117 40.737872 
L 106.587817 41.110213 
L 107.290289 41.057021 
L 107.992761 41.429362 
L 108.708006 41.429362 
L 109.42325 41.269787 
L 110.151267 41.801702 
L 110.879283 42.174043 
L 111.6073 41.588936 
L 112.348089 41.801702 
L 113.088878 41.748511 
L 114.583228 40.897447 
L 115.336789 40.684681 
L 118.376578 40.525106 
L 119.130139 40.046383 
L 119.896472 40.205957 
L 120.662806 40.046383 
L 122.195472 38.929362 
L 122.961806 38.87617 
L 123.728139 37.865532 
L 124.494472 37.44 
L 125.260806 37.705957 
L 126.027139 37.652766 
L 126.793472 37.333617 
L 127.559806 37.174043 
L 129.092472 37.120851 
L 129.858806 35.791064 
L 130.625139 36.00383 
L 132.157806 36.695319 
L 132.924139 35.578298 
L 133.690472 35.737872 
L 134.456806 35.471915 
L 135.989472 35.471915 
L 136.755806 35.152766 
L 137.522139 35.099574 
L 139.054806 34.301702 
L 141.353806 34.461277 
L 142.886472 34.142128 
L 144.419139 34.088936 
L 145.185472 34.620851 
L 146.718139 34.514468 
L 147.484472 34.620851 
L 148.250806 34.354894 
L 149.017139 34.886809 
L 149.783472 34.780426 
L 150.549806 34.94 
L 151.316139 34.833617 
L 152.082472 35.365532 
L 152.848806 35.259149 
L 154.381472 35.418723 
L 155.147806 35.631489 
L 155.914139 35.684681 
L 156.680472 35.950638 
L 157.446806 36.057021 
L 158.213139 36.588936 
L 158.979472 36.908085 
L 159.745806 36.854894 
L 160.512139 37.120851 
L 162.044806 37.280426 
L 162.811139 37.546383 
L 163.577472 38.237872 
L 165.110139 38.50383 
L 165.876472 38.87617 
L 166.642806 38.87617 
L 167.409139 39.514468 
L 168.175472 39.833617 
L 168.941806 40.791064 
L 169.708139 41.535745 
L 170.474472 43.50383 
L 171.240806 45.950638 
L 172.007139 50.418723 
L 172.773472 56.961277 
L 173.539806 67.705957 
L 174.306139 80.099574 
L 177.371472 137.333617 
L 178.137806 148.769787 
L 178.904139 157.493191 
L 179.670472 164.142128 
L 180.436806 168.610213 
L 181.203139 171.057021 
L 181.969472 172.44 
L 272.332944 172.44 
L 273.099278 171.854894 
L 273.865611 169.620851 
L 274.631944 167.014468 
L 275.398278 163.929362 
L 276.164611 159.993191 
L 276.930944 155.31234 
L 277.697278 149.514468 
L 279.229944 135.631489 
L 279.996278 127.280426 
L 283.061611 86.535745 
L 284.594278 65.31234 
L 285.360611 55.897447 
L 286.126944 49.780426 
L 287.659611 42.759149 
L 289.192278 39.94 
L 289.958611 39.56766 
L 290.724944 38.87617 
L 291.491278 38.87617 
L 292.257611 38.610213 
L 293.023944 38.87617 
L 294.556611 38.929362 
L 295.322944 39.035745 
L 296.089278 39.408085 
L 297.621944 38.87617 
L 298.388278 38.610213 
L 299.154611 38.87617 
L 299.920944 38.87617 
L 300.687278 39.035745 
L 301.453611 38.87617 
L 302.219944 38.87617 
L 302.986278 39.088936 
L 303.752611 39.142128 
L 304.518944 38.87617 
L 305.285278 39.301702 
L 306.051611 39.248511 
L 306.817944 39.727234 
L 307.584278 39.195319 
L 308.350611 40.046383 
L 309.116944 40.418723 
L 309.883278 39.780426 
L 310.649611 39.886809 
L 311.415944 40.259149 
L 312.182278 40.099574 
L 312.948611 40.418723 
L 313.714944 40.205957 
L 314.481278 40.259149 
L 315.247611 40.471915 
L 316.013944 39.886809 
L 317.546611 40.578298 
L 319.079278 40.578298 
L 319.845611 40.418723 
L 320.611944 41.163404 
L 321.378278 40.578298 
L 322.144611 40.737872 
L 322.910944 40.471915 
L 324.443611 40.737872 
L 325.976278 40.525106 
L 326.742611 40.897447 
L 327.508944 40.578298 
L 328.275278 40.791064 
L 329.041611 40.471915 
L 330.574278 40.578298 
L 332.873278 40.205957 
L 333.639611 39.993191 
L 334.405944 40.046383 
L 335.172278 39.727234 
L 338.237611 39.727234 
L 340.536611 39.195319 
L 341.302944 39.514468 
L 342.069278 39.461277 
L 342.835611 39.94 
L 343.601944 39.461277 
L 344.368278 39.94 
L 345.134611 39.56766 
L 345.900944 39.674043 
L 346.667278 39.56766 
L 350.498944 39.727234 
L 351.265278 40.259149 
L 352.031611 40.525106 
L 352.797944 40.205957 
L 353.564278 40.631489 
L 354.330611 40.525106 
L 355.096944 41.216596 
L 355.863278 41.110213 
L 356.629611 40.631489 
L 357.395944 41.269787 
L 358.162278 41.163404 
L 358.928611 41.588936 
L 359.694944 41.482553 
L 361.227611 42.227234 
L 362.760278 42.227234 
L 363.526611 42.546383 
L 364.292944 42.333617 
L 365.059278 42.44 
L 365.825611 43.025106 
L 366.591944 42.971915 
L 367.358278 42.386809 
L 368.124611 42.493191 
L 368.890944 42.44 
L 370.423611 43.131489 
L 371.189944 43.131489 
L 371.956278 42.599574 
L 372.722611 43.131489 
L 373.488944 42.971915 
L 374.255278 43.078298 
L 375.787944 42.759149 
L 376.554278 42.280426 
L 380.385944 42.227234 
L 381.152278 41.748511 
L 381.918611 41.961277 
L 382.684944 41.535745 
L 384.217611 42.333617 
L 384.983944 41.748511 
L 385.750278 41.37617 
L 388.815611 41.322979 
L 390.348278 41.642128 
L 391.114611 42.174043 
L 392.647278 42.546383 
L 393.413611 42.865532 
L 394.179944 42.971915 
L 395.712611 43.982553 
L 396.478944 44.142128 
L 397.245278 44.620851 
L 398.011611 45.631489 
L 398.777944 47.386809 
L 399.544278 49.94 
L 400.310611 53.87617 
L 401.076944 60.152766 
L 402.609611 82.386809 
L 404.142278 109.354894 
L 405.674944 137.014468 
L 406.441278 147.705957 
L 407.207611 156.801702 
L 407.973944 163.663404 
L 408.740278 168.557021 
L 409.506611 171.695319 
L 410.272944 172.44 
L 477.710278 172.333617 
L 480.009278 171.642128 
L 480.775611 172.44 
L 484.607278 172.44 
L 485.373611 169.248511 
L 486.139944 169.301702 
L 486.906278 168.557021 
L 488.438944 167.865532 
L 489.205278 170.046383 
L 489.971611 169.94 
L 490.737944 169.142128 
L 492.270611 168.184681 
L 493.036944 167.386809 
L 493.803278 163.291064 
L 496.868611 159.56766 
L 497.634944 161.908085 
L 498.401278 160.844255 
L 499.167611 159.142128 
L 499.933944 157.759149 
L 500.700278 155.737872 
L 501.466611 153.344255 
L 502.232944 146.695319 
L 502.999278 144.301702 
L 504.531944 137.333617 
L 505.298278 133.184681 
L 506.064611 133.716596 
L 508.363611 117.652766 
L 509.129944 111.216596 
L 509.896278 98.769787 
L 511.428944 85.099574 
L 512.833889 76.269787 
L 513.600222 81.110213 
L 514.366556 82.81234 
L 515.132889 87.120851 
L 516.537833 103.557021 
L 517.176444 108.50383 
L 517.942778 119.993191 
L 518.581389 131.908085 
L 519.986333 152.599574 
L 520.624944 164.94 
L 521.263556 170.418723 
L 522.029889 172.44 
L 530.715 172.44 
L 531.225889 172.280426 
L 531.736778 172.44 
L 533.908056 172.44 
L 534.291222 171.961277 
L 534.674389 172.174043 
L 535.057556 171.642128 
L 535.440722 171.535745 
L 535.823889 172.44 
L 537.484278 172.44 
L 537.867444 170.525106 
L 538.122889 170.525106 
L 538.633778 169.833617 
L 538.889222 172.44 
L 540.038722 172.44 
L 540.166444 169.088936 
L 540.294167 169.886809 
L 540.677333 169.088936 
L 540.805056 172.44 
L 541.443667 172.44 
L 541.443667 168.50383 
L 541.571389 168.50383 
L 541.699111 168.025106 
L 541.826833 172.44 
L 541.826833 172.44 
L 542.082278 172.44 
L 542.082278 166.535745 
L 542.21 172.44 
L 542.21 172.44 
L 542.21 165.950638 
L 542.21 166.588936 
" clip-path="url(#p90684a1939)" style="fill: none; stroke: #1f77b4; stroke-width: 2; stroke-linecap: square"/>
   </g>
   <g id="line2d_30">
    <path d="M 82.41 172.44 
L 426.365944 172.333617 
L 427.132278 171.961277 
L 427.898611 172.227234 
L 428.664944 172.014468 
L 429.431278 172.386809 
L 431.730278 172.44 
L 433.262944 172.44 
L 434.029278 172.120851 
L 434.795611 171.642128 
L 435.561944 171.748511 
L 437.094611 171.642128 
L 437.860944 171.588936 
L 438.627278 172.44 
L 442.458944 172.44 
L 443.225278 171.588936 
L 444.757944 171.482553 
L 446.290611 171.588936 
L 447.056944 171.429362 
L 447.823278 172.44 
L 450.888611 172.44 
L 451.654944 171.482553 
L 452.421278 171.37617 
L 453.953944 171.535745 
L 454.720278 171.322979 
L 455.486611 171.535745 
L 456.252944 172.44 
L 459.318278 172.44 
L 460.084611 171.429362 
L 461.617278 171.110213 
L 463.149944 171.057021 
L 463.916278 170.791064 
L 464.682611 172.44 
L 467.747944 172.44 
L 468.514278 170.737872 
L 469.280611 170.31234 
L 470.046944 170.259149 
L 470.813278 170.578298 
L 471.579611 170.205957 
L 472.345944 170.578298 
L 473.112278 172.44 
L 476.177611 172.44 
L 476.943944 169.354894 
L 477.710278 169.620851 
L 478.476611 168.87617 
L 480.009278 168.716596 
L 480.775611 168.397447 
L 481.541944 172.44 
L 484.607278 172.44 
L 485.373611 167.865532 
L 486.139944 167.227234 
L 486.906278 167.333617 
L 487.672611 166.695319 
L 488.438944 166.588936 
L 489.205278 172.280426 
L 489.971611 172.44 
L 492.270611 172.44 
L 493.036944 171.961277 
L 493.803278 164.833617 
L 495.335944 164.56766 
L 496.868611 163.50383 
L 497.634944 170.259149 
L 498.401278 170.950638 
L 499.933944 170.046383 
L 501.466611 169.620851 
L 502.232944 161.216596 
L 502.999278 160.737872 
L 503.765611 160.525106 
L 505.298278 159.620851 
L 506.064611 167.918723 
L 507.597278 167.014468 
L 508.363611 166.801702 
L 509.129944 166.429362 
L 509.896278 156.801702 
L 510.662611 156.322979 
L 511.428944 155.525106 
L 512.195278 155.31234 
L 512.833889 154.620851 
L 513.600222 164.035745 
L 514.366556 163.131489 
L 515.132889 162.865532 
L 515.7715 162.120851 
L 516.537833 161.429362 
L 517.176444 151.216596 
L 517.942778 150.684681 
L 519.347722 149.035745 
L 519.986333 148.663404 
L 520.624944 158.610213 
L 521.263556 158.025106 
L 522.029889 156.961277 
L 522.6685 156.695319 
L 523.307111 155.578298 
L 523.945722 144.142128 
L 524.584333 143.344255 
L 525.095222 142.120851 
L 525.733833 141.535745 
L 526.372444 140.205957 
L 526.883333 151.37617 
L 527.521944 150.525106 
L 528.032833 149.514468 
L 528.671444 149.035745 
L 529.182333 148.078298 
L 529.693222 135.31234 
L 530.204111 133.982553 
L 530.715 133.291064 
L 531.225889 132.280426 
L 531.736778 130.950638 
L 532.119944 142.44 
L 532.630833 141.535745 
L 533.014 140.365532 
L 533.524889 139.993191 
L 533.908056 138.769787 
L 534.291222 125.31234 
L 535.440722 122.014468 
L 535.823889 119.993191 
L 536.207056 131.642128 
L 536.590222 130.31234 
L 536.845667 128.822979 
L 537.228833 128.078298 
L 537.484278 126.535745 
L 537.867444 114.301702 
L 538.122889 110.471915 
L 538.633778 107.652766 
L 538.889222 106.00383 
L 539.144667 118.610213 
L 539.400111 117.705957 
L 539.527833 115.152766 
L 540.038722 113.025106 
L 540.294167 96.854894 
L 540.549611 96.37617 
L 540.805056 92.174043 
L 540.932778 104.461277 
L 541.443667 99.195319 
L 541.443667 83.610213 
L 541.699111 79.461277 
L 541.826833 77.014468 
L 541.826833 89.56766 
L 541.954556 89.993191 
L 541.954556 85.578298 
L 542.082278 83.50383 
L 542.082278 64.94 
L 542.21 63.716596 
L 542.21 75.365532 
L 542.21 49.088936 
L 542.21 55.418723 
" clip-path="url(#p90684a1939)" style="fill: none; stroke: #ff7f0e; stroke-width: 2; stroke-linecap: square"/>
   </g>
   <g id="line2d_31">
    <path d="M 82.41 172.44 
L 476.177611 172.44 
L 476.943944 170.791064 
L 477.710278 170.897447 
L 478.476611 170.471915 
L 479.242944 170.471915 
L 480.009278 170.259149 
L 480.775611 172.44 
L 484.607278 172.44 
L 485.373611 168.822979 
L 486.906278 168.50383 
L 487.672611 168.716596 
L 488.438944 168.131489 
L 489.205278 172.44 
L 493.036944 172.44 
L 493.803278 165.684681 
L 494.569611 165.950638 
L 495.335944 165.418723 
L 496.102278 165.684681 
L 496.868611 164.833617 
L 497.634944 171.748511 
L 499.167611 170.897447 
L 499.933944 170.525106 
L 501.466611 170.205957 
L 502.232944 163.397447 
L 502.999278 162.014468 
L 503.765611 161.961277 
L 504.531944 161.429362 
L 505.298278 161.429362 
L 506.064611 168.344255 
L 506.830944 168.397447 
L 507.597278 167.705957 
L 508.363611 167.705957 
L 509.129944 166.695319 
L 509.896278 158.87617 
L 510.662611 158.025106 
L 511.428944 157.865532 
L 512.195278 156.695319 
L 512.833889 162.280426 
L 513.600222 164.088936 
L 514.366556 163.87617 
L 515.132889 163.025106 
L 515.7715 162.493191 
L 516.537833 162.06766 
L 517.176444 153.450638 
L 517.942778 152.333617 
L 518.581389 152.44 
L 519.347722 151.216596 
L 519.986333 158.397447 
L 520.624944 159.727234 
L 521.263556 158.557021 
L 522.029889 157.652766 
L 522.6685 157.386809 
L 523.307111 156.322979 
L 523.945722 146.908085 
L 524.584333 145.31234 
L 525.095222 145.737872 
L 525.733833 143.025106 
L 526.372444 152.014468 
L 526.883333 151.429362 
L 527.521944 151.216596 
L 528.032833 149.674043 
L 528.671444 149.354894 
L 529.182333 147.918723 
L 529.693222 137.599574 
L 530.204111 135.737872 
L 530.715 135.418723 
L 531.225889 133.50383 
L 531.736778 142.705957 
L 532.119944 141.695319 
L 532.630833 141.535745 
L 533.014 139.56766 
L 533.524889 139.514468 
L 533.908056 137.227234 
L 534.291222 126.801702 
L 534.674389 124.301702 
L 535.057556 124.780426 
L 535.440722 122.06766 
L 535.823889 131.801702 
L 536.590222 128.291064 
L 536.845667 128.078298 
L 537.484278 124.088936 
L 537.867444 113.025106 
L 538.122889 109.674043 
L 538.378333 110.31234 
L 538.633778 106.908085 
L 538.889222 117.546383 
L 539.144667 114.674043 
L 539.400111 113.450638 
L 539.527833 114.035745 
L 539.783278 110.950638 
L 540.038722 109.408085 
L 540.294167 94.461277 
L 540.677333 93.344255 
L 540.805056 100.950638 
L 540.932778 101.695319 
L 541.188222 96.642128 
L 541.315944 97.227234 
L 541.443667 93.344255 
L 541.443667 81.695319 
L 541.571389 77.546383 
L 541.699111 78.929362 
L 541.699111 74.301702 
L 541.826833 85.897447 
L 541.826833 82.174043 
L 541.954556 82.652766 
L 541.954556 77.333617 
L 542.082278 75.578298 
L 542.082278 58.291064 
L 542.082278 59.56766 
L 542.21 68.822979 
L 542.21 60.684681 
L 542.21 40.631489 
L 542.21 49.780426 
" clip-path="url(#p90684a1939)" style="fill: none; stroke: #2ca02c; stroke-width: 2; stroke-linecap: square"/>
   </g>
   <g id="line2d_32">
    <path d="M 82.41 164.993191 
L 82.477999 165.684681 
L 82.498282 164.833617 
L 82.522242 164.94 
L 82.619209 165.578298 
L 82.707976 164.833617 
L 82.883083 165.578298 
L 82.953969 165.259149 
L 83.031624 165.578298 
L 83.116304 164.993191 
L 83.208264 165.152766 
L 83.307887 164.94 
L 83.415557 165.099574 
L 83.7894 164.833617 
L 83.932449 164.780426 
L 84.245368 165.31234 
L 84.417793 164.833617 
L 84.600436 165.205957 
L 84.997652 164.674043 
L 85.440848 165.046383 
L 85.928747 164.514468 
L 86.190578 164.780426 
L 86.463903 164.514468 
L 86.747447 164.780426 
L 87.351573 164.248511 
L 87.670878 164.514468 
L 88.000402 164.088936 
L 88.342697 164.514468 
L 88.696488 164.56766 
L 89.061773 164.833617 
L 89.437277 164.514468 
L 89.825552 164.461277 
L 90.225323 164.248511 
L 90.636588 164.301702 
L 91.058072 163.822979 
L 91.492327 163.929362 
L 91.938078 164.514468 
L 92.395323 163.929362 
L 92.862787 164.142128 
L 93.343022 164.142128 
L 93.834753 164.56766 
L 94.337978 164.248511 
L 94.851422 164.514468 
L 95.373806 164.088936 
L 95.910239 164.088936 
L 96.459444 164.620851 
L 97.021422 163.929362 
L 98.183694 164.408085 
L 98.771217 163.929362 
L 99.371511 163.929362 
L 100.610417 164.354894 
L 101.236256 164.780426 
L 101.874867 163.982553 
L 103.190406 164.461277 
L 104.518717 164.408085 
L 105.898117 164.301702 
L 106.587817 164.354894 
L 107.290289 164.035745 
L 107.992761 164.248511 
L 108.708006 164.727234 
L 109.42325 164.088936 
L 111.6073 164.248511 
L 112.348089 164.461277 
L 113.088878 165.099574 
L 113.842439 164.301702 
L 114.583228 164.886809 
L 115.336789 164.780426 
L 116.09035 165.418723 
L 116.843911 165.046383 
L 118.376578 164.833617 
L 119.130139 165.152766 
L 119.896472 164.886809 
L 120.662806 165.31234 
L 121.429139 164.674043 
L 122.195472 165.205957 
L 122.961806 165.578298 
L 124.494472 164.993191 
L 125.260806 165.365532 
L 126.027139 165.365532 
L 126.793472 165.205957 
L 127.559806 165.471915 
L 128.326139 165.365532 
L 129.858806 165.578298 
L 130.625139 165.684681 
L 131.391472 165.578298 
L 132.157806 164.833617 
L 133.690472 165.418723 
L 134.456806 165.631489 
L 135.223139 165.099574 
L 135.989472 165.631489 
L 137.522139 165.684681 
L 138.288472 165.418723 
L 139.054806 165.365532 
L 139.821139 166.163404 
L 140.587472 165.365532 
L 141.353806 165.631489 
L 142.886472 165.684681 
L 143.652806 165.950638 
L 147.484472 166.216596 
L 149.017139 166.854894 
L 149.783472 167.280426 
L 152.082472 167.705957 
L 152.848806 168.716596 
L 153.615139 168.769787 
L 154.381472 169.088936 
L 155.147806 169.56766 
L 155.914139 169.780426 
L 156.680472 170.418723 
L 157.446806 170.471915 
L 158.213139 170.684681 
L 158.979472 171.588936 
L 159.745806 171.748511 
L 160.512139 172.44 
L 266.202278 172.44 
L 266.968611 172.227234 
L 268.501278 171.057021 
L 269.267611 171.37617 
L 270.033944 170.471915 
L 271.566611 169.408085 
L 272.332944 169.354894 
L 273.099278 168.237872 
L 274.631944 168.131489 
L 275.398278 167.493191 
L 276.164611 167.44 
L 276.930944 166.854894 
L 279.996278 166.163404 
L 281.528944 166.269787 
L 282.295278 166.00383 
L 283.061611 166.216596 
L 283.827944 165.791064 
L 284.594278 166.37617 
L 285.360611 166.163404 
L 286.126944 165.525106 
L 287.659611 165.684681 
L 289.192278 165.684681 
L 289.958611 165.950638 
L 290.724944 166.429362 
L 291.491278 165.950638 
L 292.257611 165.844255 
L 293.023944 166.216596 
L 293.790278 165.737872 
L 294.556611 166.216596 
L 295.322944 165.950638 
L 296.089278 166.163404 
L 296.855611 165.684681 
L 297.621944 166.163404 
L 298.388278 165.684681 
L 299.920944 165.684681 
L 300.687278 165.950638 
L 301.453611 165.684681 
L 302.219944 165.791064 
L 302.986278 165.684681 
L 303.752611 165.844255 
L 305.285278 165.418723 
L 306.051611 165.950638 
L 306.817944 165.897447 
L 307.584278 165.578298 
L 309.116944 165.365532 
L 309.883278 165.684681 
L 310.649611 164.993191 
L 311.415944 164.833617 
L 312.948611 164.833617 
L 313.714944 165.099574 
L 314.481278 164.833617 
L 315.247611 164.833617 
L 316.013944 165.205957 
L 316.780278 165.099574 
L 317.546611 165.578298 
L 318.312944 165.365532 
L 319.079278 165.418723 
L 319.845611 165.631489 
L 320.611944 165.152766 
L 321.378278 165.046383 
L 322.144611 164.780426 
L 322.910944 165.365532 
L 323.677278 165.471915 
L 324.443611 165.259149 
L 325.209944 164.780426 
L 325.976278 165.31234 
L 326.742611 165.365532 
L 328.275278 164.833617 
L 329.041611 165.684681 
L 329.807944 165.365532 
L 330.574278 165.684681 
L 331.340611 165.684681 
L 332.106944 165.365532 
L 332.873278 165.471915 
L 333.639611 164.833617 
L 334.405944 164.886809 
L 335.172278 165.525106 
L 335.938611 164.833617 
L 336.704944 165.365532 
L 337.471278 165.259149 
L 338.237611 164.833617 
L 339.003944 165.365532 
L 339.770278 164.993191 
L 340.536611 165.365532 
L 341.302944 165.897447 
L 344.368278 165.578298 
L 345.134611 164.833617 
L 345.900944 165.684681 
L 346.667278 165.365532 
L 347.433611 164.833617 
L 348.199944 165.205957 
L 348.966278 165.31234 
L 349.732611 164.833617 
L 350.498944 165.418723 
L 351.265278 165.365532 
L 352.031611 165.525106 
L 352.797944 165.418723 
L 353.564278 165.684681 
L 355.096944 165.684681 
L 355.863278 164.833617 
L 356.629611 165.31234 
L 357.395944 164.833617 
L 358.162278 165.152766 
L 359.694944 165.099574 
L 360.461278 164.727234 
L 361.227611 165.099574 
L 361.993944 165.099574 
L 362.760278 165.418723 
L 363.526611 165.365532 
L 364.292944 165.471915 
L 365.825611 165.205957 
L 366.591944 164.620851 
L 367.358278 165.31234 
L 368.890944 164.993191 
L 369.657278 164.674043 
L 370.423611 164.993191 
L 371.189944 165.099574 
L 371.956278 165.631489 
L 372.722611 165.897447 
L 373.488944 165.684681 
L 374.255278 166.057021 
L 376.554278 165.631489 
L 377.320611 165.418723 
L 378.853278 166.37617 
L 379.619611 166.535745 
L 380.385944 166.269787 
L 381.152278 167.06766 
L 381.918611 167.014468 
L 382.684944 168.237872 
L 384.983944 169.354894 
L 385.750278 169.94 
L 386.516611 169.674043 
L 387.282944 170.046383 
L 388.049278 170.791064 
L 389.581944 171.642128 
L 390.348278 172.44 
L 493.036944 172.44 
L 493.803278 171.163404 
L 494.569611 171.535745 
L 496.102278 170.365532 
L 496.868611 170.684681 
L 497.634944 172.44 
L 501.466611 172.44 
L 502.232944 170.791064 
L 502.999278 170.950638 
L 503.765611 170.684681 
L 504.531944 171.482553 
L 505.298278 171.535745 
L 506.064611 172.44 
L 533.908056 172.44 
L 534.291222 171.961277 
L 534.674389 171.695319 
L 535.057556 171.642128 
L 535.440722 172.227234 
L 535.823889 171.642128 
L 536.207056 172.44 
L 537.484278 172.44 
L 537.867444 170.31234 
L 538.122889 170.418723 
L 538.378333 169.94 
L 538.889222 170.631489 
L 539.144667 172.44 
L 540.038722 172.44 
L 540.294167 168.982553 
L 540.549611 168.929362 
L 540.677333 169.142128 
L 540.805056 169.088936 
L 540.932778 172.44 
L 541.443667 172.44 
L 541.443667 168.237872 
L 541.571389 168.131489 
L 541.699111 168.237872 
L 541.826833 167.865532 
L 541.826833 172.44 
L 542.082278 172.44 
L 542.082278 166.535745 
L 542.082278 166.642128 
L 542.21 166.908085 
L 542.21 172.44 
L 542.21 164.993191 
L 542.21 165.684681 
" clip-path="url(#p90684a1939)" style="fill: none; stroke: #d62728; stroke-width: 2; stroke-linecap: square"/>
   </g>
   <g id="patch_3">
    <path d="M 59.42 179.44 
L 59.42 25.44 
" style="fill: none; stroke: #000000; stroke-width: 0.8; stroke-linejoin: miter; stroke-linecap: square"/>
   </g>
   <g id="patch_4">
    <path d="M 565.2 179.44 
L 565.2 25.44 
" style="fill: none; stroke: #000000; stroke-width: 0.8; stroke-linejoin: miter; stroke-linecap: square"/>
   </g>
   <g id="patch_5">
    <path d="M 59.42 179.44 
L 565.2 179.44 
" style="fill: none; stroke: #000000; stroke-width: 0.8; stroke-linejoin: miter; stroke-linecap: square"/>
   </g>
   <g id="patch_6">
    <path d="M 59.42 25.44 
L 565.2 25.44 
" style="fill: none; stroke: #000000; stroke-width: 0.8; stroke-linejoin: miter; stroke-linecap: square"/>
   </g>
   <g id="text_17">
    <!-- Reflector Raw Value -->
    <g transform="translate(252.55 19.44)scale(0.12 -0.12)">
     <defs>
      <path id="DejaVuSans-52" d="M 2841 2188 
Q 3044 2119 3236 1894 
Q 3428 1669 3622 1275 
L 4263 0 
L 3584 0 
L 2988 1197 
Q 2756 1666 2539 1819 
Q 2322 1972 1947 1972 
L 1259 1972 
L 1259 0 
L 628 0 
L 628 4666 
L 2053 4666 
Q 2853 4666 3247 4331 
Q 3641 3997 3641 3322 
Q 3641 2881 3436 2590 
Q 3231 2300 2841 2188 
z
M 1259 4147 
L 1259 2491 
L 2053 2491 
Q 2509 2491 2742 2702 
Q 2975 2913 2975 3322 
Q 2975 3731 2742 3939 
Q 2509 4147 2053 4147 
L 1259 4147 
z
" transform="scale(0.015625)"/>
      <path id="DejaVuSans-77" d="M 269 3500 
L 844 3500 
L 1563 769 
L 2278 3500 
L 2956 3500 
L 3675 769 
L 4391 3500 
L 4966 3500 
L 4050 0 
L 3372 0 
L 2619 2869 
L 1863 0 
L 1184 0 
L 269 3500 
z
" transform="scale(0.015625)"/>
      <path id="DejaVuSans-56" d="M 1831 0 
L 50 4666 
L 709 4666 
L 2188 738 
L 3669 4666 
L 4325 4666 
L 2547 0 
L 1831 0 
z
" transform="scale(0.015625)"/>
     </defs>
     <use xlink:href="#DejaVuSans-52"/>
     <use xlink:href="#DejaVuSans-65" x="64.982422"/>
     <use xlink:href="#DejaVuSans-66" x="126.505859"/>
     <use xlink:href="#DejaVuSans-6c" x="161.710938"/>
     <use xlink:href="#DejaVuSans-65" x="189.494141"/>
     <use xlink:href="#DejaVuSans-63" x="251.017578"/>
     <use xlink:href="#DejaVuSans-74" x="305.998047"/>
     <use xlink:href="#DejaVuSans-6f" x="345.207031"/>
     <use xlink:href="#DejaVuSans-72" x="406.388672"/>
     <use xlink:href="#DejaVuSans-20" x="447.501953"/>
     <use xlink:href="#DejaVuSans-52" x="479.289062"/>
     <use xlink:href="#DejaVuSans-61" x="546.521484"/>
     <use xlink:href="#DejaVuSans-77" x="607.800781"/>
     <use xlink:href="#DejaVuSans-20" x="689.587891"/>
     <use xlink:href="#DejaVuSans-56" x="721.375"/>
     <use xlink:href="#DejaVuSans-61" x="782.033203"/>
     <use xlink:href="#DejaVuSans-6c" x="843.3125"/>
     <use xlink:href="#DejaVuSans-75" x="871.095703"/>
     <use xlink:href="#DejaVuSans-65" x="934.474609"/>
    </g>
   </g>
   <g id="legend_1">
    <g id="patch_7">
     <path d="M 66.42 133.29625 
L 153.22 133.29625 
Q 155.22 133.29625 155.22 131.29625 
L 155.22 73.58375 
Q 155.22 71.58375 153.22 71.58375 
L 66.42 71.58375 
Q 64.42 71.58375 64.42 73.58375 
L 64.42 131.29625 
Q 64.42 133.29625 66.42 133.29625 
z
" style="fill: #ffffff; opacity: 0.8; stroke: #cccccc; stroke-linejoin: miter"/>
    </g>
    <g id="line2d_33">
     <path d="M 68.42 79.682187 
L 78.42 79.682187 
L 88.42 79.682187 
" style="fill: none; stroke: #1f77b4; stroke-width: 2; stroke-linecap: square"/>
    </g>
    <g id="text_18">
     <!-- Left Side -->
     <g transform="translate(96.42 83.182187)scale(0.1 -0.1)">
      <defs>
       <path id="DejaVuSans-4c" d="M 628 4666 
L 1259 4666 
L 1259 531 
L 3531 531 
L 3531 0 
L 628 0 
L 628 4666 
z
" transform="scale(0.015625)"/>
       <path id="DejaVuSans-53" d="M 3425 4513 
L 3425 3897 
Q 3066 4069 2747 4153 
Q 2428 4238 2131 4238 
Q 1616 4238 1336 4038 
Q 1056 3838 1056 3469 
Q 1056 3159 1242 3001 
Q 1428 2844 1947 2747 
L 2328 2669 
Q 3034 2534 3370 2195 
Q 3706 1856 3706 1288 
Q 3706 609 3251 259 
Q 2797 -91 1919 -91 
Q 1588 -91 1214 -16 
Q 841 59 441 206 
L 441 856 
Q 825 641 1194 531 
Q 1563 422 1919 422 
Q 2459 422 2753 634 
Q 3047 847 3047 1241 
Q 3047 1584 2836 1778 
Q 2625 1972 2144 2069 
L 1759 2144 
Q 1053 2284 737 2584 
Q 422 2884 422 3419 
Q 422 4038 858 4394 
Q 1294 4750 2059 4750 
Q 2388 4750 2728 4690 
Q 3069 4631 3425 4513 
z
" transform="scale(0.015625)"/>
       <path id="DejaVuSans-64" d="M 2906 2969 
L 2906 4863 
L 3481 4863 
L 3481 0 
L 2906 0 
L 2906 525 
Q 2725 213 2448 61 
Q 2172 -91 1784 -91 
Q 1150 -91 751 415 
Q 353 922 353 1747 
Q 353 2572 751 3078 
Q 1150 3584 1784 3584 
Q 2172 3584 2448 3432 
Q 2725 3281 2906 2969 
z
M 947 1747 
Q 947 1113 1208 752 
Q 1469 391 1925 391 
Q 2381 391 2643 752 
Q 2906 1113 2906 1747 
Q 2906 2381 2643 2742 
Q 2381 3103 1925 3103 
Q 1469 3103 1208 2742 
Q 947 2381 947 1747 
z
" transform="scale(0.015625)"/>
      </defs>
      <use xlink:href="#DejaVuSans-4c"/>
      <use xlink:href="#DejaVuSans-65" x="53.962891"/>
      <use xlink:href="#DejaVuSans-66" x="115.486328"/>
      <use xlink:href="#DejaVuSans-74" x="148.941406"/>
      <use xlink:href="#DejaVuSans-20" x="188.150391"/>
      <use xlink:href="#DejaVuSans-53" x="219.9375"/>
      <use xlink:href="#DejaVuSans-69" x="283.414062"/>
      <use xlink:href="#DejaVuSans-64" x="311.197266"/>
      <use xlink:href="#DejaVuSans-65" x="374.673828"/>
     </g>
    </g>
    <g id="line2d_34">
     <path d="M 68.42 94.360313 
L 78.42 94.360313 
L 88.42 94.360313 
" style="fill: none; stroke: #ff7f0e; stroke-width: 2; stroke-linecap: square"/>
    </g>
    <g id="text_19">
     <!-- Left Front -->
     <g transform="translate(96.42 97.860313)scale(0.1 -0.1)">
      <defs>
       <path id="DejaVuSans-46" d="M 628 4666 
L 3309 4666 
L 3309 4134 
L 1259 4134 
L 1259 2759 
L 3109 2759 
L 3109 2228 
L 1259 2228 
L 1259 0 
L 628 0 
L 628 4666 
z
" transform="scale(0.015625)"/>
      </defs>
      <use xlink:href="#DejaVuSans-4c"/>
      <use xlink:href="#DejaVuSans-65" x="53.962891"/>
      <use xlink:href="#DejaVuSans-66" x="115.486328"/>
      <use xlink:href="#DejaVuSans-74" x="148.941406"/>
      <use xlink:href="#DejaVuSans-20" x="188.150391"/>
      <use xlink:href="#DejaVuSans-46" x="219.9375"/>
      <use xlink:href="#DejaVuSans-72" x="270.207031"/>
      <use xlink:href="#DejaVuSans-6f" x="309.070312"/>
      <use xlink:href="#DejaVuSans-6e" x="370.251953"/>
      <use xlink:href="#DejaVuSans-74" x="433.630859"/>
     </g>
    </g>
    <g id="line2d_35">
     <path d="M 68.42 109.038437 
L 78.42 109.038437 
L 88.42 109.038437 
" style="fill: none; stroke: #2ca02c; stroke-width: 2; stroke-linecap: square"/>
    </g>
    <g id="text_20">
     <!-- Right Front -->
     <g transform="translate(96.42 112.538437)scale(0.1 -0.1)">
      <defs>
       <path id="DejaVuSans-67" d="M 2906 1791 
Q 2906 2416 2648 2759 
Q 2391 3103 1925 3103 
Q 1463 3103 1205 2759 
Q 947 2416 947 1791 
Q 947 1169 1205 825 
Q 1463 481 1925 481 
Q 2391 481 2648 825 
Q 2906 1169 2906 1791 
z
M 3481 434 
Q 3481 -459 3084 -895 
Q 2688 -1331 1869 -1331 
Q 1566 -1331 1297 -1286 
Q 1028 -1241 775 -1147 
L 775 -588 
Q 1028 -725 1275 -790 
Q 1522 -856 1778 -856 
Q 2344 -856 2625 -561 
Q 2906 -266 2906 331 
L 2906 616 
Q 2728 306 2450 153 
Q 2172 0 1784 0 
Q 1141 0 747 490 
Q 353 981 353 1791 
Q 353 2603 747 3093 
Q 1141 3584 1784 3584 
Q 2172 3584 2450 3431 
Q 2728 3278 2906 2969 
L 2906 3500 
L 3481 3500 
L 3481 434 
z
" transform="scale(0.015625)"/>
       <path id="DejaVuSans-68" d="M 3513 2113 
L 3513 0 
L 2938 0 
L 2938 2094 
Q 2938 2591 2744 2837 
Q 2550 3084 2163 3084 
Q 1697 3084 1428 2787 
Q 1159 2491 1159 1978 
L 1159 0 
L 581 0 
L 581 4863 
L 1159 4863 
L 1159 2956 
Q 1366 3272 1645 3428 
Q 1925 3584 2291 3584 
Q 2894 3584 3203 3211 
Q 3513 2838 3513 2113 
z
" transform="scale(0.015625)"/>
      </defs>
      <use xlink:href="#DejaVuSans-52"/>
      <use xlink:href="#DejaVuSans-69" x="69.482422"/>
      <use xlink:href="#DejaVuSans-67" x="97.265625"/>
      <use xlink:href="#DejaVuSans-68" x="160.742188"/>
      <use xlink:href="#DejaVuSans-74" x="224.121094"/>
      <use xlink:href="#DejaVuSans-20" x="263.330078"/>
      <use xlink:href="#DejaVuSans-46" x="295.117188"/>
      <use xlink:href="#DejaVuSans-72" x="345.386719"/>
      <use xlink:href="#DejaVuSans-6f" x="384.25"/>
      <use xlink:href="#DejaVuSans-6e" x="445.431641"/>
      <use xlink:href="#DejaVuSans-74" x="508.810547"/>
     </g>
    </g>
    <g id="line2d_36">
     <path d="M 68.42 123.716563 
L 78.42 123.716563 
L 88.42 123.716563 
" style="fill: none; stroke: #d62728; stroke-width: 2; stroke-linecap: square"/>
    </g>
    <g id="text_21">
     <!-- Right Side -->
     <g transform="translate(96.42 127.216563)scale(0.1 -0.1)">
      <use xlink:href="#DejaVuSans-52"/>
      <use xlink:href="#DejaVuSans-69" x="69.482422"/>
      <use xlink:href="#DejaVuSans-67" x="97.265625"/>
      <use xlink:href="#DejaVuSans-68" x="160.742188"/>
      <use xlink:href="#DejaVuSans-74" x="224.121094"/>
      <use xlink:href="#DejaVuSans-20" x="263.330078"/>
      <use xlink:href="#DejaVuSans-53" x="295.117188"/>
      <use xlink:href="#DejaVuSans-69" x="358.59375"/>
      <use xlink:href="#DejaVuSans-64" x="386.376953"/>
      <use xlink:href="#DejaVuSans-65" x="449.853516"/>
     </g>
    </g>
   </g>
  </g>
  <g id="axes_2">
   <g id="patch_8">
    <path d="M 59.42 390.04 
L 565.2 390.04 
L 565.2 236.04 
L 59.42 236.04 
z
" style="fill: #ffffff"/>
   </g>
   <g id="matplotlib.axis_3">
    <g id="xtick_9">
     <g id="line2d_37">
      <path d="M 82.41 390.04 
L 82.41 236.04 
" clip-path="url(#pf671b54033)" style="fill: none; stroke: #b0b0b0; stroke-width: 0.8; stroke-linecap: square"/>
     </g>
     <g id="line2d_38">
      <g>
       <use xlink:href="#m4dfa7c1928" x="82.41" y="390.04" style="stroke: #000000; stroke-width: 0.8"/>
      </g>
     </g>
     <g id="text_22">
      <!-- 0 -->
      <g transform="translate(79.22875 404.638438)scale(0.1 -0.1)">
       <use xlink:href="#DejaVuSans-30"/>
      </g>
     </g>
    </g>
    <g id="xtick_10">
     <g id="line2d_39">
      <path d="M 146.271111 390.04 
L 146.271111 236.04 
" clip-path="url(#pf671b54033)" style="fill: none; stroke: #b0b0b0; stroke-width: 0.8; stroke-linecap: square"/>
     </g>
     <g id="line2d_40">
      <g>
       <use xlink:href="#m4dfa7c1928" x="146.271111" y="390.04" style="stroke: #000000; stroke-width: 0.8"/>
      </g>
     </g>
     <g id="text_23">
      <!-- 50 -->
      <g transform="translate(139.908611 404.638438)scale(0.1 -0.1)">
       <use xlink:href="#DejaVuSans-35"/>
       <use xlink:href="#DejaVuSans-30" x="63.623047"/>
      </g>
     </g>
    </g>
    <g id="xtick_11">
     <g id="line2d_41">
      <path d="M 210.132222 390.04 
L 210.132222 236.04 
" clip-path="url(#pf671b54033)" style="fill: none; stroke: #b0b0b0; stroke-width: 0.8; stroke-linecap: square"/>
     </g>
     <g id="line2d_42">
      <g>
       <use xlink:href="#m4dfa7c1928" x="210.132222" y="390.04" style="stroke: #000000; stroke-width: 0.8"/>
      </g>
     </g>
     <g id="text_24">
      <!-- 100 -->
      <g transform="translate(200.588472 404.638438)scale(0.1 -0.1)">
       <use xlink:href="#DejaVuSans-31"/>
       <use xlink:href="#DejaVuSans-30" x="63.623047"/>
       <use xlink:href="#DejaVuSans-30" x="127.246094"/>
      </g>
     </g>
    </g>
    <g id="xtick_12">
     <g id="line2d_43">
      <path d="M 273.993333 390.04 
L 273.993333 236.04 
" clip-path="url(#pf671b54033)" style="fill: none; stroke: #b0b0b0; stroke-width: 0.8; stroke-linecap: square"/>
     </g>
     <g id="line2d_44">
      <g>
       <use xlink:href="#m4dfa7c1928" x="273.993333" y="390.04" style="stroke: #000000; stroke-width: 0.8"/>
      </g>
     </g>
     <g id="text_25">
      <!-- 150 -->
      <g transform="translate(264.449583 404.638438)scale(0.1 -0.1)">
       <use xlink:href="#DejaVuSans-31"/>
       <use xlink:href="#DejaVuSans-35" x="63.623047"/>
       <use xlink:href="#DejaVuSans-30" x="127.246094"/>
      </g>
     </g>
    </g>
    <g id="xtick_13">
     <g id="line2d_45">
      <path d="M 337.854444 390.04 
L 337.854444 236.04 
" clip-path="url(#pf671b54033)" style="fill: none; stroke: #b0b0b0; stroke-width: 0.8; stroke-linecap: square"/>
     </g>
     <g id="line2d_46">
      <g>
       <use xlink:href="#m4dfa7c1928" x="337.854444" y="390.04" style="stroke: #000000; stroke-width: 0.8"/>
      </g>
     </g>
     <g id="text_26">
      <!-- 200 -->
      <g transform="translate(328.310694 404.638438)scale(0.1 -0.1)">
       <use xlink:href="#DejaVuSans-32"/>
       <use xlink:href="#DejaVuSans-30" x="63.623047"/>
       <use xlink:href="#DejaVuSans-30" x="127.246094"/>
      </g>
     </g>
    </g>
    <g id="xtick_14">
     <g id="line2d_47">
      <path d="M 401.715556 390.04 
L 401.715556 236.04 
" clip-path="url(#pf671b54033)" style="fill: none; stroke: #b0b0b0; stroke-width: 0.8; stroke-linecap: square"/>
     </g>
     <g id="line2d_48">
      <g>
       <use xlink:href="#m4dfa7c1928" x="401.715556" y="390.04" style="stroke: #000000; stroke-width: 0.8"/>
      </g>
     </g>
     <g id="text_27">
      <!-- 250 -->
      <g transform="translate(392.171806 404.638438)scale(0.1 -0.1)">
       <use xlink:href="#DejaVuSans-32"/>
       <use xlink:href="#DejaVuSans-35" x="63.623047"/>
       <use xlink:href="#DejaVuSans-30" x="127.246094"/>
      </g>
     </g>
    </g>
    <g id="xtick_15">
     <g id="line2d_49">
      <path d="M 465.576667 390.04 
L 465.576667 236.04 
" clip-path="url(#pf671b54033)" style="fill: none; stroke: #b0b0b0; stroke-width: 0.8; stroke-linecap: square"/>
     </g>
     <g id="line2d_50">
      <g>
       <use xlink:href="#m4dfa7c1928" x="465.576667" y="390.04" style="stroke: #000000; stroke-width: 0.8"/>
      </g>
     </g>
     <g id="text_28">
      <!-- 300 -->
      <g transform="translate(456.032917 404.638438)scale(0.1 -0.1)">
       <use xlink:href="#DejaVuSans-33"/>
       <use xlink:href="#DejaVuSans-30" x="63.623047"/>
       <use xlink:href="#DejaVuSans-30" x="127.246094"/>
      </g>
     </g>
    </g>
    <g id="xtick_16">
     <g id="line2d_51">
      <path d="M 529.437778 390.04 
L 529.437778 236.04 
" clip-path="url(#pf671b54033)" style="fill: none; stroke: #b0b0b0; stroke-width: 0.8; stroke-linecap: square"/>
     </g>
     <g id="line2d_52">
      <g>
       <use xlink:href="#m4dfa7c1928" x="529.437778" y="390.04" style="stroke: #000000; stroke-width: 0.8"/>
      </g>
     </g>
     <g id="text_29">
      <!-- 350 -->
      <g transform="translate(519.894028 404.638438)scale(0.1 -0.1)">
       <use xlink:href="#DejaVuSans-33"/>
       <use xlink:href="#DejaVuSans-35" x="63.623047"/>
       <use xlink:href="#DejaVuSans-30" x="127.246094"/>
      </g>
     </g>
    </g>
    <g id="text_30">
     <!-- Translational Position (x) [mm] -->
     <g transform="translate(235.882656 418.316562)scale(0.1 -0.1)">
      <use xlink:href="#DejaVuSans-54"/>
      <use xlink:href="#DejaVuSans-72" x="46.333984"/>
      <use xlink:href="#DejaVuSans-61" x="87.447266"/>
      <use xlink:href="#DejaVuSans-6e" x="148.726562"/>
      <use xlink:href="#DejaVuSans-73" x="212.105469"/>
      <use xlink:href="#DejaVuSans-6c" x="264.205078"/>
      <use xlink:href="#DejaVuSans-61" x="291.988281"/>
      <use xlink:href="#DejaVuSans-74" x="353.267578"/>
      <use xlink:href="#DejaVuSans-69" x="392.476562"/>
      <use xlink:href="#DejaVuSans-6f" x="420.259766"/>
      <use xlink:href="#DejaVuSans-6e" x="481.441406"/>
      <use xlink:href="#DejaVuSans-61" x="544.820312"/>
      <use xlink:href="#DejaVuSans-6c" x="606.099609"/>
      <use xlink:href="#DejaVuSans-20" x="633.882812"/>
      <use xlink:href="#DejaVuSans-50" x="665.669922"/>
      <use xlink:href="#DejaVuSans-6f" x="722.347656"/>
      <use xlink:href="#DejaVuSans-73" x="783.529297"/>
      <use xlink:href="#DejaVuSans-69" x="835.628906"/>
      <use xlink:href="#DejaVuSans-74" x="863.412109"/>
      <use xlink:href="#DejaVuSans-69" x="902.621094"/>
      <use xlink:href="#DejaVuSans-6f" x="930.404297"/>
      <use xlink:href="#DejaVuSans-6e" x="991.585938"/>
      <use xlink:href="#DejaVuSans-20" x="1054.964844"/>
      <use xlink:href="#DejaVuSans-28" x="1086.751953"/>
      <use xlink:href="#DejaVuSans-78" x="1125.765625"/>
      <use xlink:href="#DejaVuSans-29" x="1184.945312"/>
      <use xlink:href="#DejaVuSans-20" x="1223.958984"/>
      <use xlink:href="#DejaVuSans-5b" x="1255.746094"/>
      <use xlink:href="#DejaVuSans-6d" x="1294.759766"/>
      <use xlink:href="#DejaVuSans-6d" x="1392.171875"/>
      <use xlink:href="#DejaVuSans-5d" x="1489.583984"/>
     </g>
    </g>
   </g>
   <g id="matplotlib.axis_4">
    <g id="ytick_7">
     <g id="line2d_53">
      <path d="M 59.42 377.672515 
L 565.2 377.672515 
" clip-path="url(#pf671b54033)" style="fill: none; stroke: #b0b0b0; stroke-width: 0.8; stroke-linecap: square"/>
     </g>
     <g id="line2d_54">
      <g>
       <use xlink:href="#mef11a5f3ea" x="59.42" y="377.672515" style="stroke: #000000; stroke-width: 0.8"/>
      </g>
     </g>
     <g id="text_31">
      <!-- 100 -->
      <g transform="translate(24.952813 381.471734)scale(0.1 -0.1)">
       <defs>
        <path id="DejaVuSans-2212" d="M 678 2272 
L 4684 2272 
L 4684 1741 
L 678 1741 
L 678 2272 
z
" transform="scale(0.015625)"/>
       </defs>
       <use xlink:href="#DejaVuSans-2212"/>
       <use xlink:href="#DejaVuSans-31" x="83.789062"/>
       <use xlink:href="#DejaVuSans-30" x="147.412109"/>
       <use xlink:href="#DejaVuSans-30" x="211.035156"/>
      </g>
     </g>
    </g>
    <g id="ytick_8">
     <g id="line2d_55">
      <path d="M 59.42 354.832153 
L 565.2 354.832153 
" clip-path="url(#pf671b54033)" style="fill: none; stroke: #b0b0b0; stroke-width: 0.8; stroke-linecap: square"/>
     </g>
     <g id="line2d_56">
      <g>
       <use xlink:href="#mef11a5f3ea" x="59.42" y="354.832153" style="stroke: #000000; stroke-width: 0.8"/>
      </g>
     </g>
     <g id="text_32">
      <!-- 80 -->
      <g transform="translate(31.315313 358.631371)scale(0.1 -0.1)">
       <defs>
        <path id="DejaVuSans-38" d="M 2034 2216 
Q 1584 2216 1326 1975 
Q 1069 1734 1069 1313 
Q 1069 891 1326 650 
Q 1584 409 2034 409 
Q 2484 409 2743 651 
Q 3003 894 3003 1313 
Q 3003 1734 2745 1975 
Q 2488 2216 2034 2216 
z
M 1403 2484 
Q 997 2584 770 2862 
Q 544 3141 544 3541 
Q 544 4100 942 4425 
Q 1341 4750 2034 4750 
Q 2731 4750 3128 4425 
Q 3525 4100 3525 3541 
Q 3525 3141 3298 2862 
Q 3072 2584 2669 2484 
Q 3125 2378 3379 2068 
Q 3634 1759 3634 1313 
Q 3634 634 3220 271 
Q 2806 -91 2034 -91 
Q 1263 -91 848 271 
Q 434 634 434 1313 
Q 434 1759 690 2068 
Q 947 2378 1403 2484 
z
M 1172 3481 
Q 1172 3119 1398 2916 
Q 1625 2713 2034 2713 
Q 2441 2713 2670 2916 
Q 2900 3119 2900 3481 
Q 2900 3844 2670 4047 
Q 2441 4250 2034 4250 
Q 1625 4250 1398 4047 
Q 1172 3844 1172 3481 
z
" transform="scale(0.015625)"/>
       </defs>
       <use xlink:href="#DejaVuSans-2212"/>
       <use xlink:href="#DejaVuSans-38" x="83.789062"/>
       <use xlink:href="#DejaVuSans-30" x="147.412109"/>
      </g>
     </g>
    </g>
    <g id="ytick_9">
     <g id="line2d_57">
      <path d="M 59.42 331.991791 
L 565.2 331.991791 
" clip-path="url(#pf671b54033)" style="fill: none; stroke: #b0b0b0; stroke-width: 0.8; stroke-linecap: square"/>
     </g>
     <g id="line2d_58">
      <g>
       <use xlink:href="#mef11a5f3ea" x="59.42" y="331.991791" style="stroke: #000000; stroke-width: 0.8"/>
      </g>
     </g>
     <g id="text_33">
      <!-- 60 -->
      <g transform="translate(31.315313 335.791009)scale(0.1 -0.1)">
       <defs>
        <path id="DejaVuSans-36" d="M 2113 2584 
Q 1688 2584 1439 2293 
Q 1191 2003 1191 1497 
Q 1191 994 1439 701 
Q 1688 409 2113 409 
Q 2538 409 2786 701 
Q 3034 994 3034 1497 
Q 3034 2003 2786 2293 
Q 2538 2584 2113 2584 
z
M 3366 4563 
L 3366 3988 
Q 3128 4100 2886 4159 
Q 2644 4219 2406 4219 
Q 1781 4219 1451 3797 
Q 1122 3375 1075 2522 
Q 1259 2794 1537 2939 
Q 1816 3084 2150 3084 
Q 2853 3084 3261 2657 
Q 3669 2231 3669 1497 
Q 3669 778 3244 343 
Q 2819 -91 2113 -91 
Q 1303 -91 875 529 
Q 447 1150 447 2328 
Q 447 3434 972 4092 
Q 1497 4750 2381 4750 
Q 2619 4750 2861 4703 
Q 3103 4656 3366 4563 
z
" transform="scale(0.015625)"/>
       </defs>
       <use xlink:href="#DejaVuSans-2212"/>
       <use xlink:href="#DejaVuSans-36" x="83.789062"/>
       <use xlink:href="#DejaVuSans-30" x="147.412109"/>
      </g>
     </g>
    </g>
    <g id="ytick_10">
     <g id="line2d_59">
      <path d="M 59.42 309.151428 
L 565.2 309.151428 
" clip-path="url(#pf671b54033)" style="fill: none; stroke: #b0b0b0; stroke-width: 0.8; stroke-linecap: square"/>
     </g>
     <g id="line2d_60">
      <g>
       <use xlink:href="#mef11a5f3ea" x="59.42" y="309.151428" style="stroke: #000000; stroke-width: 0.8"/>
      </g>
     </g>
     <g id="text_34">
      <!-- 40 -->
      <g transform="translate(31.315313 312.950647)scale(0.1 -0.1)">
       <defs>
        <path id="DejaVuSans-34" d="M 2419 4116 
L 825 1625 
L 2419 1625 
L 2419 4116 
z
M 2253 4666 
L 3047 4666 
L 3047 1625 
L 3713 1625 
L 3713 1100 
L 3047 1100 
L 3047 0 
L 2419 0 
L 2419 1100 
L 313 1100 
L 313 1709 
L 2253 4666 
z
" transform="scale(0.015625)"/>
       </defs>
       <use xlink:href="#DejaVuSans-2212"/>
       <use xlink:href="#DejaVuSans-34" x="83.789062"/>
       <use xlink:href="#DejaVuSans-30" x="147.412109"/>
      </g>
     </g>
    </g>
    <g id="ytick_11">
     <g id="line2d_61">
      <path d="M 59.42 286.311066 
L 565.2 286.311066 
" clip-path="url(#pf671b54033)" style="fill: none; stroke: #b0b0b0; stroke-width: 0.8; stroke-linecap: square"/>
     </g>
     <g id="line2d_62">
      <g>
       <use xlink:href="#mef11a5f3ea" x="59.42" y="286.311066" style="stroke: #000000; stroke-width: 0.8"/>
      </g>
     </g>
     <g id="text_35">
      <!-- 20 -->
      <g transform="translate(31.315313 290.110285)scale(0.1 -0.1)">
       <use xlink:href="#DejaVuSans-2212"/>
       <use xlink:href="#DejaVuSans-32" x="83.789062"/>
       <use xlink:href="#DejaVuSans-30" x="147.412109"/>
      </g>
     </g>
    </g>
    <g id="ytick_12">
     <g id="line2d_63">
      <path d="M 59.42 263.470704 
L 565.2 263.470704 
" clip-path="url(#pf671b54033)" style="fill: none; stroke: #b0b0b0; stroke-width: 0.8; stroke-linecap: square"/>
     </g>
     <g id="line2d_64">
      <g>
       <use xlink:href="#mef11a5f3ea" x="59.42" y="263.470704" style="stroke: #000000; stroke-width: 0.8"/>
      </g>
     </g>
     <g id="text_36">
      <!-- 0 -->
      <g transform="translate(46.0575 267.269923)scale(0.1 -0.1)">
       <use xlink:href="#DejaVuSans-30"/>
      </g>
     </g>
    </g>
    <g id="ytick_13">
     <g id="line2d_65">
      <path d="M 59.42 240.630342 
L 565.2 240.630342 
" clip-path="url(#pf671b54033)" style="fill: none; stroke: #b0b0b0; stroke-width: 0.8; stroke-linecap: square"/>
     </g>
     <g id="line2d_66">
      <g>
       <use xlink:href="#mef11a5f3ea" x="59.42" y="240.630342" style="stroke: #000000; stroke-width: 0.8"/>
      </g>
     </g>
     <g id="text_37">
      <!-- 20 -->
      <g transform="translate(39.695 244.429561)scale(0.1 -0.1)">
       <use xlink:href="#DejaVuSans-32"/>
       <use xlink:href="#DejaVuSans-30" x="63.623047"/>
      </g>
     </g>
    </g>
    <g id="text_38">
     <!-- wall distance [mm] -->
     <g transform="translate(18.873125 360.978281)rotate(-90)scale(0.1 -0.1)">
      <use xlink:href="#DejaVuSans-77"/>
      <use xlink:href="#DejaVuSans-61" x="81.787109"/>
      <use xlink:href="#DejaVuSans-6c" x="143.066406"/>
      <use xlink:href="#DejaVuSans-6c" x="170.849609"/>
      <use xlink:href="#DejaVuSans-20" x="198.632812"/>
      <use xlink:href="#DejaVuSans-64" x="230.419922"/>
      <use xlink:href="#DejaVuSans-69" x="293.896484"/>
      <use xlink:href="#DejaVuSans-73" x="321.679688"/>
      <use xlink:href="#DejaVuSans-74" x="373.779297"/>
      <use xlink:href="#DejaVuSans-61" x="412.988281"/>
      <use xlink:href="#DejaVuSans-6e" x="474.267578"/>
      <use xlink:href="#DejaVuSans-63" x="537.646484"/>
      <use xlink:href="#DejaVuSans-65" x="592.626953"/>
      <use xlink:href="#DejaVuSans-20" x="654.150391"/>
      <use xlink:href="#DejaVuSans-5b" x="685.9375"/>
      <use xlink:href="#DejaVuSans-6d" x="724.951172"/>
      <use xlink:href="#DejaVuSans-6d" x="822.363281"/>
      <use xlink:href="#DejaVuSans-5d" x="919.775391"/>
     </g>
    </g>
   </g>
   <g id="line2d_67">
    <path d="M 82.41 243.177042 
L 82.436158 243.097101 
L 82.410409 243.199883 
L 82.498282 243.177042 
L 82.619209 243.119941 
L 84.417793 243.177042 
L 84.600436 243.325505 
L 84.793297 243.234143 
L 84.997652 243.302664 
L 85.213503 243.234143 
L 85.440848 243.371185 
L 85.678412 243.359765 
L 86.190578 243.508227 
L 87.351573 243.702371 
L 88.342697 243.885093 
L 89.061773 243.953614 
L 90.636588 244.113497 
L 91.492327 244.079236 
L 93.343022 244.102077 
L 94.337978 244.102077 
L 99.371511 243.953614 
L 100.610417 243.953614 
L 102.52625 243.930774 
L 109.42325 243.999295 
L 110.879283 244.102077 
L 112.348089 244.056396 
L 114.583228 243.953614 
L 140.587472 243.245563 
L 147.484472 243.268404 
L 149.783472 243.291244 
L 162.811139 243.588169 
L 164.343806 243.67953 
L 168.175472 243.839413 
L 170.474472 244.250539 
L 171.240806 244.536044 
L 172.007139 245.061372 
L 172.773472 245.872205 
L 173.539806 247.311148 
L 174.306139 249.172637 
L 175.072472 251.696497 
L 175.838806 254.731981 
L 176.605139 258.762163 
L 177.371472 263.408167 
L 178.137806 269.205919 
L 178.904139 275.964382 
L 179.670472 284.586619 
L 180.436806 295.881178 
L 181.203139 310.53327 
L 181.969472 359.1033 
L 272.332944 359.1033 
L 273.099278 322.47878 
L 273.865611 300.323628 
L 274.631944 290.799197 
L 275.398278 284.221173 
L 276.164611 278.648125 
L 277.697278 269.675288 
L 278.463611 265.851812 
L 280.762611 256.771626 
L 282.295278 252.234388 
L 283.827944 248.498847 
L 284.594278 246.979962 
L 285.360611 245.746583 
L 286.126944 244.992851 
L 287.659611 244.170598 
L 289.192278 243.850833 
L 292.257611 243.702371 
L 296.089278 243.793732 
L 299.154611 243.736631 
L 307.584278 243.770892 
L 309.116944 243.907934 
L 310.649611 243.850833 
L 313.714944 243.885093 
L 339.770278 243.793732 
L 342.069278 243.793732 
L 342.835611 243.850833 
L 343.601944 243.793732 
L 345.134611 243.805152 
L 349.732611 243.839413 
L 351.265278 243.885093 
L 355.863278 243.987875 
L 356.629611 243.930774 
L 358.928611 244.033556 
L 360.461278 244.067816 
L 363.526611 244.147758 
L 365.059278 244.136337 
L 366.591944 244.193438 
L 368.124611 244.136337 
L 384.983944 244.056396 
L 387.282944 244.010715 
L 390.348278 244.044976 
L 393.413611 244.182018 
L 396.478944 244.33048 
L 398.011611 244.501783 
L 399.544278 245.004271 
L 400.310611 245.483919 
L 401.076944 246.294752 
L 401.843278 247.767955 
L 402.609611 249.538083 
L 403.375944 251.776439 
L 404.142278 254.781088 
L 404.908611 258.56802 
L 406.441278 268.559537 
L 407.207611 275.302012 
L 407.973944 283.764366 
L 408.740278 295.675615 
L 409.506611 319.189768 
L 410.272944 359.1033 
L 476.943944 359.1033 
L 477.710278 342.909484 
L 478.476611 330.427226 
L 479.242944 322.47878 
L 480.009278 318.241892 
L 480.775611 359.1033 
L 484.607278 359.1033 
L 485.373611 298.51924 
L 486.139944 298.770484 
L 486.906278 295.675615 
L 488.438944 293.288797 
L 489.205278 302.676186 
L 489.971611 302.059496 
L 490.737944 298.051012 
L 491.504278 295.881178 
L 492.270611 294.339453 
L 493.036944 291.838434 
L 493.803278 283.159096 
L 495.335944 280.521034 
L 496.102278 279.481798 
L 496.868611 278.157057 
L 497.634944 281.103464 
L 498.401278 279.687361 
L 499.167611 277.677409 
L 499.933944 276.227046 
L 501.466611 272.362457 
L 502.232944 267.970255 
L 502.999278 266.662645 
L 505.298278 261.764529 
L 506.064611 261.965524 
L 507.597278 258.488079 
L 509.129944 255.221907 
L 509.896278 252.497052 
L 511.428944 249.99489 
L 512.833889 248.567368 
L 513.600222 249.33252 
L 514.366556 249.606604 
L 515.132889 250.337496 
L 517.176444 254.583519 
L 517.942778 257.500233 
L 519.347722 265.904345 
L 519.986333 271.800584 
L 520.624944 286.071242 
L 521.263556 305.108684 
L 522.029889 359.1033 
L 530.715 359.1033 
L 531.225889 338.672596 
L 531.736778 359.1033 
L 533.908056 359.1033 
L 534.291222 325.173942 
L 534.674389 332.699842 
L 535.057556 318.241892 
L 535.440722 316.506025 
L 535.823889 359.1033 
L 537.484278 359.1033 
L 537.867444 305.885257 
L 538.122889 305.885257 
L 538.633778 301.454226 
L 538.889222 359.1033 
L 540.038722 359.1033 
L 540.166444 297.811189 
L 540.294167 301.751151 
L 540.677333 297.811189 
L 540.805056 359.1033 
L 541.443667 359.1033 
L 541.443667 295.481472 
L 541.571389 295.481472 
L 541.699111 293.802705 
L 541.826833 359.1033 
L 541.826833 359.1033 
L 542.082278 359.1033 
L 542.082278 289.565818 
L 542.21 359.1033 
L 542.21 359.1033 
L 542.21 288.183976 
L 542.21 289.70286 
" clip-path="url(#pf671b54033)" style="fill: none; stroke: #1f77b4; stroke-width: 2; stroke-linecap: square"/>
   </g>
   <g id="line2d_68">
    <path d="M 82.41 382.468991 
L 424.833278 382.468991 
L 425.599611 366.252334 
L 426.365944 366.252334 
L 427.132278 348.516793 
L 427.898611 358.726434 
L 428.664944 350.069937 
L 429.431278 372.236509 
L 430.197611 382.468991 
L 433.262944 382.468991 
L 434.029278 353.770076 
L 434.795611 341.584743 
L 435.561944 343.560434 
L 436.328278 341.584743 
L 437.094611 341.584743 
L 437.860944 340.693969 
L 438.627278 382.468991 
L 442.458944 382.468991 
L 443.225278 340.693969 
L 443.991611 339.060883 
L 444.757944 339.060883 
L 446.290611 340.693969 
L 447.056944 338.307151 
L 447.823278 382.468991 
L 450.888611 382.468991 
L 451.654944 339.060883 
L 452.421278 337.587679 
L 453.187611 339.060883 
L 453.953944 339.848875 
L 454.720278 336.902468 
L 455.486611 339.848875 
L 456.252944 382.468991 
L 459.318278 382.468991 
L 460.084611 338.307151 
L 461.617278 334.435709 
L 462.383611 334.435709 
L 463.149944 333.87612 
L 463.916278 331.375101 
L 464.682611 382.468991 
L 467.747944 382.468991 
L 468.514278 330.918293 
L 469.280611 327.720643 
L 470.046944 327.366617 
L 470.813278 329.639233 
L 471.579611 327.024012 
L 472.345944 329.639233 
L 473.112278 382.468991 
L 476.177611 382.468991 
L 476.943944 322.364578 
L 477.710278 323.666479 
L 478.476611 320.263265 
L 479.242944 319.840718 
L 480.009278 319.635155 
L 480.775611 318.436036 
L 481.541944 382.468991 
L 484.607278 382.468991 
L 485.373611 316.631647 
L 486.139944 314.735897 
L 486.906278 315.032822 
L 487.672611 313.319794 
L 488.438944 313.04571 
L 489.205278 362.015447 
L 489.971611 382.468991 
L 492.270611 382.468991 
L 493.036944 348.516793 
L 493.803278 309.208529 
L 495.335944 308.706041 
L 496.102278 307.655385 
L 496.868611 306.855972 
L 497.634944 327.366617 
L 498.401278 332.825464 
L 499.167611 328.839821 
L 499.933944 326.030456 
L 501.466611 323.666479 
L 502.232944 303.509859 
L 502.999278 302.904589 
L 503.765611 302.630505 
L 505.298278 301.557008 
L 506.064611 316.80295 
L 507.597278 314.153468 
L 508.363611 313.582459 
L 509.129944 312.657424 
L 509.896278 298.644862 
L 510.662611 298.199475 
L 511.428944 297.491423 
L 512.195278 297.308701 
L 512.833889 296.726271 
L 513.600222 307.746746 
L 514.366556 306.250702 
L 515.132889 305.839576 
L 515.7715 304.743238 
L 516.537833 303.795363 
L 517.176444 294.156731 
L 517.942778 293.791285 
L 519.347722 292.717788 
L 519.986333 292.489384 
L 520.624944 300.44925 
L 521.263556 299.843981 
L 522.029889 298.793324 
L 522.6685 298.54208 
L 523.307111 297.537104 
L 523.945722 289.931264 
L 524.584333 289.520137 
L 525.095222 288.914867 
L 525.733833 288.629363 
L 526.372444 288.012673 
L 526.883333 294.270932 
L 527.521944 293.688503 
L 528.032833 293.026133 
L 528.671444 292.717788 
L 529.182333 292.123938 
L 529.693222 285.9342 
L 530.204111 285.408872 
L 531.225889 284.780762 
L 531.736778 284.301114 
L 532.119944 289.06333 
L 532.630833 288.629363 
L 533.014 288.081194 
L 533.524889 287.909892 
L 533.908056 287.373143 
L 534.291222 282.416784 
L 535.440722 281.423229 
L 535.823889 280.85222 
L 536.207056 284.540938 
L 536.590222 284.072711 
L 536.845667 283.558803 
L 537.228833 283.307559 
L 537.484278 282.805071 
L 537.867444 279.333336 
L 538.122889 278.38546 
L 538.633778 277.73451 
L 538.889222 277.369064 
L 539.144667 280.463933 
L 539.400111 280.22411 
L 539.527833 279.550319 
L 540.038722 279.01357 
L 540.294167 275.461894 
L 540.549611 275.370533 
L 540.805056 274.581398 
L 540.932778 277.026459 
L 541.443667 275.930122 
L 541.443667 273.08878 
L 541.699111 272.416132 
L 541.826833 272.033556 
L 541.826833 274.110887 
L 541.954556 274.18626 
L 541.954556 273.418824 
L 542.082278 273.070508 
L 542.082278 270.278274 
L 542.21 270.111539 
L 542.21 271.78117 
L 542.21 268.252334 
L 542.21 269.028906 
" clip-path="url(#pf671b54033)" style="fill: none; stroke: #ff7f0e; stroke-width: 2; stroke-linecap: square"/>
   </g>
   <g id="line2d_69">
    <path d="M 82.41 383.04 
L 470.813278 383.04 
L 471.579611 366.834763 
L 472.345944 383.04 
L 476.177611 383.04 
L 476.943944 331.95753 
L 477.710278 332.905405 
L 478.476611 329.42225 
L 479.242944 329.42225 
L 480.009278 327.949046 
L 480.775611 383.04 
L 484.607278 383.04 
L 485.373611 320.62871 
L 486.139944 320.206164 
L 486.906278 319.406751 
L 487.672611 320.206164 
L 488.438944 318.08201 
L 489.205278 383.04 
L 493.036944 383.04 
L 493.803278 311.526826 
L 494.569611 312.109255 
L 495.335944 310.955817 
L 496.102278 311.526826 
L 496.868611 309.790958 
L 497.634944 344.131443 
L 498.401278 336.822527 
L 499.167611 332.905405 
L 499.933944 329.810536 
L 501.466611 327.595021 
L 502.232944 307.255678 
L 502.999278 305.165785 
L 503.765611 305.097264 
L 504.531944 304.366372 
L 505.298278 304.366372 
L 506.064611 318.824322 
L 506.830944 319.018465 
L 507.597278 316.711588 
L 508.363611 316.711588 
L 509.129944 313.890803 
L 509.896278 301.305764 
L 510.662611 300.41499 
L 511.428944 300.255107 
L 512.195278 299.124509 
L 512.833889 305.554071 
L 513.600222 308.420537 
L 514.366556 308.055091 
L 515.132889 306.661829 
L 515.7715 305.862416 
L 516.537833 305.245726 
L 517.176444 296.372246 
L 517.942778 295.527152 
L 518.581389 295.607094 
L 519.347722 294.73916 
L 519.986333 300.803276 
L 520.624944 302.265059 
L 521.263556 300.974579 
L 522.029889 300.038124 
L 522.6685 299.77546 
L 523.307111 298.781904 
L 523.945722 292.021157 
L 524.584333 291.130383 
L 525.095222 291.358786 
L 525.733833 289.931264 
L 526.372444 295.298749 
L 526.883333 294.887622 
L 527.521944 294.73916 
L 528.032833 293.699923 
L 528.671444 293.49436 
L 529.182333 292.615006 
L 529.693222 287.441664 
L 530.204111 286.676512 
L 530.715 286.55089 
L 531.225889 285.808578 
L 531.736778 289.771381 
L 532.119944 289.280313 
L 532.630833 289.211792 
L 533.014 288.298178 
L 533.524889 288.275337 
L 533.908056 287.293202 
L 534.291222 283.467441 
L 534.674389 282.690869 
L 535.057556 282.827911 
L 535.440722 282.017078 
L 535.823889 285.180468 
L 536.590222 283.958509 
L 536.845667 283.889988 
L 537.484278 282.622348 
L 537.867444 279.584579 
L 538.122889 278.785167 
L 538.378333 278.933629 
L 538.633778 278.145637 
L 538.889222 280.749438 
L 539.144667 280.007126 
L 539.400111 279.698781 
L 539.527833 279.835823 
L 539.783278 279.082092 
L 540.038722 278.716646 
L 540.294167 275.587516 
L 540.677333 275.370533 
L 540.805056 276.866576 
L 540.932778 277.015039 
L 541.188222 275.998643 
L 541.315944 276.112844 
L 541.443667 275.370533 
L 541.443667 273.351445 
L 541.571389 272.693642 
L 541.699111 272.909484 
L 541.699111 272.198006 
L 541.826833 274.049218 
L 541.826833 273.429102 
L 541.954556 273.507901 
L 541.954556 273.385705 
L 541.954556 272.660524 
L 542.082278 272.391007 
L 542.082278 269.972213 
L 542.082278 270.137806 
L 542.21 271.397452 
L 542.21 270.283984 
L 542.21 267.853769 
L 542.21 268.91242 
" clip-path="url(#pf671b54033)" style="fill: none; stroke: #2ca02c; stroke-width: 2; stroke-linecap: square"/>
   </g>
   <g id="line2d_70">
    <path d="M 82.41 284.02703 
L 82.477999 285.454553 
L 82.498282 283.718685 
L 82.522242 283.924248 
L 82.619209 285.226149 
L 82.707976 283.718685 
L 82.883083 285.226149 
L 82.953969 284.563778 
L 83.031624 285.226149 
L 83.116304 284.02703 
L 83.208264 284.346795 
L 83.307887 283.924248 
L 83.415557 284.244013 
L 83.7894 283.718685 
L 83.932449 283.615903 
L 84.245368 284.66656 
L 84.417793 283.718685 
L 84.600436 284.449577 
L 84.793297 283.718685 
L 84.997652 283.42176 
L 85.440848 284.129812 
L 85.928747 283.113415 
L 86.190578 283.615903 
L 86.463903 283.113415 
L 86.747447 283.615903 
L 87.351573 282.633768 
L 87.670878 283.113415 
L 88.000402 282.348263 
L 88.342697 283.113415 
L 88.696488 283.216197 
L 89.061773 283.718685 
L 89.437277 283.113415 
L 89.825552 283.022054 
L 90.225323 282.633768 
L 90.636588 282.725129 
L 91.058072 281.891456 
L 91.492327 282.074179 
L 91.938078 283.113415 
L 92.395323 282.074179 
L 92.862787 282.451045 
L 93.343022 282.451045 
L 93.834753 283.216197 
L 94.337978 282.633768 
L 94.851422 283.113415 
L 95.373806 282.348263 
L 95.910239 282.348263 
L 96.459444 283.318979 
L 97.021422 282.074179 
L 98.183694 282.919272 
L 98.771217 282.074179 
L 99.371511 282.074179 
L 99.984578 282.348263 
L 100.610417 282.827911 
L 101.236256 283.615903 
L 101.874867 282.16554 
L 103.190406 283.022054 
L 104.518717 282.919272 
L 105.208417 282.725129 
L 106.587817 282.827911 
L 107.290289 282.256902 
L 107.992761 282.633768 
L 108.708006 283.513122 
L 109.42325 282.348263 
L 110.151267 282.451045 
L 110.879283 282.725129 
L 111.6073 282.633768 
L 112.348089 283.022054 
L 113.088878 284.244013 
L 113.842439 282.725129 
L 114.583228 283.821467 
L 115.336789 283.615903 
L 116.09035 284.894964 
L 116.843911 284.129812 
L 117.610244 284.02703 
L 118.376578 283.718685 
L 119.130139 284.346795 
L 119.896472 283.821467 
L 120.662806 284.66656 
L 121.429139 283.42176 
L 122.195472 284.449577 
L 122.961806 285.226149 
L 124.494472 284.02703 
L 125.260806 284.780762 
L 126.027139 284.780762 
L 126.793472 284.449577 
L 127.559806 284.997745 
L 128.326139 284.780762 
L 129.092472 285.111947 
L 129.858806 285.226149 
L 130.625139 285.454553 
L 131.391472 285.226149 
L 132.157806 283.718685 
L 133.690472 284.894964 
L 134.456806 285.340351 
L 135.223139 284.244013 
L 135.989472 285.340351 
L 136.755806 285.340351 
L 137.522139 285.454553 
L 138.288472 284.894964 
L 139.054806 284.780762 
L 139.821139 286.52805 
L 140.587472 284.780762 
L 141.353806 285.340351 
L 142.120139 285.454553 
L 142.886472 285.454553 
L 143.652806 286.048402 
L 145.185472 286.288226 
L 145.951806 286.162604 
L 146.718139 286.779294 
L 147.484472 286.653672 
L 148.250806 287.293202 
L 149.017139 288.229657 
L 149.783472 289.394515 
L 150.549806 289.851322 
L 151.316139 289.999785 
L 152.082472 290.650735 
L 152.848806 294.14531 
L 153.615139 294.350874 
L 154.381472 295.675615 
L 155.147806 297.90255 
L 155.914139 299.010308 
L 156.680472 302.97311 
L 157.446806 303.349976 
L 158.213139 304.994482 
L 158.979472 315.204124 
L 159.745806 318.07059 
L 160.512139 356.956306 
L 266.202278 356.956306 
L 266.968611 333.23659 
L 267.734944 316.094898 
L 268.501278 308.386276 
L 269.267611 312.086415 
L 270.033944 303.349976 
L 270.800278 299.912502 
L 271.566611 297.125978 
L 272.332944 296.863313 
L 273.099278 292.386602 
L 273.865611 292.386602 
L 274.631944 292.021157 
L 275.398278 289.999785 
L 276.164611 289.851322 
L 276.930944 288.229657 
L 278.463611 287.418824 
L 279.229944 287.16758 
L 279.996278 286.52805 
L 280.762611 286.779294 
L 281.528944 286.779294 
L 282.295278 286.162604 
L 283.061611 286.653672 
L 283.827944 285.682956 
L 284.594278 287.030538 
L 285.360611 286.52805 
L 286.126944 285.111947 
L 287.659611 285.454553 
L 289.192278 285.454553 
L 289.958611 286.048402 
L 290.724944 287.16758 
L 291.491278 286.048402 
L 292.257611 285.808578 
L 293.023944 286.653672 
L 293.790278 285.568754 
L 294.556611 286.653672 
L 295.322944 286.048402 
L 296.089278 286.52805 
L 296.855611 285.454553 
L 297.621944 286.52805 
L 298.388278 285.454553 
L 299.920944 285.454553 
L 300.687278 286.048402 
L 301.453611 285.454553 
L 302.219944 285.682956 
L 302.986278 285.454553 
L 303.752611 285.808578 
L 304.518944 285.454553 
L 305.285278 284.894964 
L 306.051611 286.048402 
L 306.817944 285.92278 
L 307.584278 285.226149 
L 308.350611 285.111947 
L 309.116944 284.780762 
L 309.883278 285.454553 
L 310.649611 284.02703 
L 311.415944 283.718685 
L 312.948611 283.718685 
L 313.714944 284.244013 
L 314.481278 283.718685 
L 315.247611 283.718685 
L 316.013944 284.449577 
L 316.780278 284.244013 
L 317.546611 285.226149 
L 318.312944 284.780762 
L 319.079278 284.894964 
L 319.845611 285.340351 
L 320.611944 284.346795 
L 321.378278 284.129812 
L 322.144611 283.615903 
L 322.910944 284.780762 
L 323.677278 284.997745 
L 324.443611 284.563778 
L 325.209944 283.615903 
L 325.976278 284.66656 
L 326.742611 284.780762 
L 327.508944 284.346795 
L 328.275278 283.718685 
L 329.041611 285.454553 
L 329.807944 284.780762 
L 330.574278 285.454553 
L 331.340611 285.454553 
L 332.106944 284.780762 
L 332.873278 284.997745 
L 333.639611 283.718685 
L 334.405944 283.821467 
L 335.172278 285.111947 
L 335.938611 283.718685 
L 336.704944 284.780762 
L 337.471278 284.563778 
L 338.237611 283.718685 
L 339.003944 284.780762 
L 339.770278 284.02703 
L 340.536611 284.780762 
L 341.302944 285.92278 
L 342.835611 285.454553 
L 344.368278 285.226149 
L 345.134611 283.718685 
L 345.900944 285.454553 
L 346.667278 284.780762 
L 347.433611 283.718685 
L 348.199944 284.449577 
L 348.966278 284.66656 
L 349.732611 283.718685 
L 350.498944 284.894964 
L 351.265278 284.780762 
L 352.031611 285.111947 
L 352.797944 284.894964 
L 353.564278 285.454553 
L 354.330611 285.340351 
L 355.096944 285.454553 
L 355.863278 283.718685 
L 356.629611 284.66656 
L 357.395944 283.718685 
L 358.162278 284.346795 
L 359.694944 284.244013 
L 360.461278 283.513122 
L 361.227611 284.244013 
L 361.993944 284.244013 
L 362.760278 284.894964 
L 363.526611 284.780762 
L 364.292944 284.997745 
L 365.825611 284.449577 
L 366.591944 283.318979 
L 367.358278 284.66656 
L 368.890944 284.02703 
L 369.657278 283.42176 
L 370.423611 284.02703 
L 371.189944 284.244013 
L 371.956278 285.340351 
L 372.722611 285.92278 
L 373.488944 285.454553 
L 374.255278 286.288226 
L 375.021611 286.048402 
L 377.320611 284.894964 
L 378.853278 287.030538 
L 379.619611 287.418824 
L 380.385944 286.779294 
L 381.152278 288.800666 
L 381.918611 288.652203 
L 382.684944 292.386602 
L 383.451278 293.734184 
L 384.217611 295.435791 
L 384.983944 296.863313 
L 385.750278 299.912502 
L 386.516611 298.450719 
L 387.282944 300.540612 
L 389.581944 316.094898 
L 390.348278 356.956306 
L 493.036944 356.956306 
L 493.803278 309.516874 
L 494.569611 314.359031 
L 495.335944 306.833132 
L 496.102278 302.596244 
L 496.868611 304.994482 
L 497.634944 356.956306 
L 501.466611 356.956306 
L 502.232944 305.885257 
L 502.999278 307.33562 
L 503.765611 304.994482 
L 504.531944 313.571038 
L 505.298278 314.359031 
L 506.064611 356.956306 
L 533.908056 356.956306 
L 534.291222 323.026948 
L 534.674389 317.054194 
L 535.057556 316.094898 
L 535.440722 333.23659 
L 535.823889 316.094898 
L 536.207056 356.956306 
L 537.484278 356.956306 
L 537.867444 302.230799 
L 538.122889 302.97311 
L 538.378333 299.912502 
L 538.889222 304.560516 
L 539.144667 356.956306 
L 540.038722 356.956306 
L 540.166444 297.639886 
L 540.294167 295.218807 
L 540.549611 294.990404 
L 540.677333 295.904018 
L 540.805056 295.675615 
L 540.932778 356.956306 
L 541.443667 356.956306 
L 541.443667 292.386602 
L 541.571389 292.021157 
L 541.699111 292.386602 
L 541.826833 291.141803 
L 541.826833 356.956306 
L 542.082278 356.956306 
L 542.082278 287.418824 
L 542.082278 287.692908 
L 542.21 288.378119 
L 542.21 356.956306 
L 542.21 284.02703 
L 542.21 285.454553 
" clip-path="url(#pf671b54033)" style="fill: none; stroke: #d62728; stroke-width: 2; stroke-linecap: square"/>
   </g>
   <g id="patch_9">
    <path d="M 59.42 390.04 
L 59.42 236.04 
" style="fill: none; stroke: #000000; stroke-width: 0.8; stroke-linejoin: miter; stroke-linecap: square"/>
   </g>
   <g id="patch_10">
    <path d="M 565.2 390.04 
L 565.2 236.04 
" style="fill: none; stroke: #000000; stroke-width: 0.8; stroke-linejoin: miter; stroke-linecap: square"/>
   </g>
   <g id="patch_11">
    <path d="M 59.42 390.04 
L 565.2 390.04 
" style="fill: none; stroke: #000000; stroke-width: 0.8; stroke-linejoin: miter; stroke-linecap: square"/>
   </g>
   <g id="patch_12">
    <path d="M 59.42 236.04 
L 565.2 236.04 
" style="fill: none; stroke: #000000; stroke-width: 0.8; stroke-linejoin: miter; stroke-linecap: square"/>
   </g>
   <g id="text_39">
    <!-- Wall Distance -->
    <g transform="translate(271.6075 230.04)scale(0.12 -0.12)">
     <defs>
      <path id="DejaVuSans-57" d="M 213 4666 
L 850 4666 
L 1831 722 
L 2809 4666 
L 3519 4666 
L 4500 722 
L 5478 4666 
L 6119 4666 
L 4947 0 
L 4153 0 
L 3169 4050 
L 2175 0 
L 1381 0 
L 213 4666 
z
" transform="scale(0.015625)"/>
      <path id="DejaVuSans-44" d="M 1259 4147 
L 1259 519 
L 2022 519 
Q 2988 519 3436 956 
Q 3884 1394 3884 2338 
Q 3884 3275 3436 3711 
Q 2988 4147 2022 4147 
L 1259 4147 
z
M 628 4666 
L 1925 4666 
Q 3281 4666 3915 4102 
Q 4550 3538 4550 2338 
Q 4550 1131 3912 565 
Q 3275 0 1925 0 
L 628 0 
L 628 4666 
z
" transform="scale(0.015625)"/>
     </defs>
     <use xlink:href="#DejaVuSans-57"/>
     <use xlink:href="#DejaVuSans-61" x="92.501953"/>
     <use xlink:href="#DejaVuSans-6c" x="153.78125"/>
     <use xlink:href="#DejaVuSans-6c" x="181.564453"/>
     <use xlink:href="#DejaVuSans-20" x="209.347656"/>
     <use xlink:href="#DejaVuSans-44" x="241.134766"/>
     <use xlink:href="#DejaVuSans-69" x="318.136719"/>
     <use xlink:href="#DejaVuSans-73" x="345.919922"/>
     <use xlink:href="#DejaVuSans-74" x="398.019531"/>
     <use xlink:href="#DejaVuSans-61" x="437.228516"/>
     <use xlink:href="#DejaVuSans-6e" x="498.507812"/>
     <use xlink:href="#DejaVuSans-63" x="561.886719"/>
     <use xlink:href="#DejaVuSans-65" x="616.867188"/>
    </g>
   </g>
   <g id="legend_2">
    <g id="patch_13">
     <path d="M 268.91 343.89625 
L 355.71 343.89625 
Q 357.71 343.89625 357.71 341.89625 
L 357.71 284.18375 
Q 357.71 282.18375 355.71 282.18375 
L 268.91 282.18375 
Q 266.91 282.18375 266.91 284.18375 
L 266.91 341.89625 
Q 266.91 343.89625 268.91 343.89625 
z
" style="fill: #ffffff; opacity: 0.8; stroke: #cccccc; stroke-linejoin: miter"/>
    </g>
    <g id="line2d_71">
     <path d="M 270.91 290.282187 
L 280.91 290.282187 
L 290.91 290.282187 
" style="fill: none; stroke: #1f77b4; stroke-width: 2; stroke-linecap: square"/>
    </g>
    <g id="text_40">
     <!-- Left Side -->
     <g transform="translate(298.91 293.782187)scale(0.1 -0.1)">
      <use xlink:href="#DejaVuSans-4c"/>
      <use xlink:href="#DejaVuSans-65" x="53.962891"/>
      <use xlink:href="#DejaVuSans-66" x="115.486328"/>
      <use xlink:href="#DejaVuSans-74" x="148.941406"/>
      <use xlink:href="#DejaVuSans-20" x="188.150391"/>
      <use xlink:href="#DejaVuSans-53" x="219.9375"/>
      <use xlink:href="#DejaVuSans-69" x="283.414062"/>
      <use xlink:href="#DejaVuSans-64" x="311.197266"/>
      <use xlink:href="#DejaVuSans-65" x="374.673828"/>
     </g>
    </g>
    <g id="line2d_72">
     <path d="M 270.91 304.960312 
L 280.91 304.960312 
L 290.91 304.960312 
" style="fill: none; stroke: #ff7f0e; stroke-width: 2; stroke-linecap: square"/>
    </g>
    <g id="text_41">
     <!-- Left Front -->
     <g transform="translate(298.91 308.460312)scale(0.1 -0.1)">
      <use xlink:href="#DejaVuSans-4c"/>
      <use xlink:href="#DejaVuSans-65" x="53.962891"/>
      <use xlink:href="#DejaVuSans-66" x="115.486328"/>
      <use xlink:href="#DejaVuSans-74" x="148.941406"/>
      <use xlink:href="#DejaVuSans-20" x="188.150391"/>
      <use xlink:href="#DejaVuSans-46" x="219.9375"/>
      <use xlink:href="#DejaVuSans-72" x="270.207031"/>
      <use xlink:href="#DejaVuSans-6f" x="309.070312"/>
      <use xlink:href="#DejaVuSans-6e" x="370.251953"/>
      <use xlink:href="#DejaVuSans-74" x="433.630859"/>
     </g>
    </g>
    <g id="line2d_73">
     <path d="M 270.91 319.638437 
L 280.91 319.638437 
L 290.91 319.638437 
" style="fill: none; stroke: #2ca02c; stroke-width: 2; stroke-linecap: square"/>
    </g>
    <g id="text_42">
     <!-- Right Front -->
     <g transform="translate(298.91 323.138437)scale(0.1 -0.1)">
      <use xlink:href="#DejaVuSans-52"/>
      <use xlink:href="#DejaVuSans-69" x="69.482422"/>
      <use xlink:href="#DejaVuSans-67" x="97.265625"/>
      <use xlink:href="#DejaVuSans-68" x="160.742188"/>
      <use xlink:href="#DejaVuSans-74" x="224.121094"/>
      <use xlink:href="#DejaVuSans-20" x="263.330078"/>
      <use xlink:href="#DejaVuSans-46" x="295.117188"/>
      <use xlink:href="#DejaVuSans-72" x="345.386719"/>
      <use xlink:href="#DejaVuSans-6f" x="384.25"/>
      <use xlink:href="#DejaVuSans-6e" x="445.431641"/>
      <use xlink:href="#DejaVuSans-74" x="508.810547"/>
     </g>
    </g>
    <g id="line2d_74">
     <path d="M 270.91 334.316562 
L 280.91 334.316562 
L 290.91 334.316562 
" style="fill: none; stroke: #d62728; stroke-width: 2; stroke-linecap: square"/>
    </g>
    <g id="text_43">
     <!-- Right Side -->
     <g transform="translate(298.91 337.816562)scale(0.1 -0.1)">
      <use xlink:href="#DejaVuSans-52"/>
      <use xlink:href="#DejaVuSans-69" x="69.482422"/>
      <use xlink:href="#DejaVuSans-67" x="97.265625"/>
      <use xlink:href="#DejaVuSans-68" x="160.742188"/>
      <use xlink:href="#DejaVuSans-74" x="224.121094"/>
      <use xlink:href="#DejaVuSans-20" x="263.330078"/>
      <use xlink:href="#DejaVuSans-53" x="295.117188"/>
      <use xlink:href="#DejaVuSans-69" x="358.59375"/>
      <use xlink:href="#DejaVuSans-64" x="386.376953"/>
      <use xlink:href="#DejaVuSans-65" x="449.853516"/>
     </g>
    </g>
   </g>
  </g>
 </g>
 <defs>
  <clipPath id="p90684a1939">
   <rect x="59.42" y="25.44" width="505.78" height="154"/>
  </clipPath>
  <clipPath id="pf671b54033">
   <rect x="59.42" y="236.04" width="505.78" height="154"/>
  </clipPath>
 </defs>
</svg>
