<?xml version="1.0" encoding="utf-8" standalone="no"?>
<!DOCTYPE svg PUBLIC "-//W3C//DTD SVG 1.1//EN"
  "http://www.w3.org/Graphics/SVG/1.1/DTD/svg11.dtd">
<svg xmlns:xlink="http://www.w3.org/1999/xlink" width="460.8pt" height="345.6pt" viewBox="0 0 460.8 345.6" xmlns="http://www.w3.org/2000/svg" version="1.1">
 <metadata>
  <rdf:RDF xmlns:dc="http://purl.org/dc/elements/1.1/" xmlns:cc="http://creativecommons.org/ns#" xmlns:rdf="http://www.w3.org/1999/02/22-rdf-syntax-ns#">
   <cc:Work>
    <dc:type rdf:resource="http://purl.org/dc/dcmitype/StillImage"/>
    <dc:date>2022-01-15T16:13:47.473961</dc:date>
    <dc:format>image/svg+xml</dc:format>
    <dc:creator>
     <cc:Agent>
      <dc:title>Matplotlib v3.5.1, https://matplotlib.org/</dc:title>
     </cc:Agent>
    </dc:creator>
   </cc:Work>
  </rdf:RDF>
 </metadata>
 <defs>
  <style type="text/css">*{stroke-linejoin: round; stroke-linecap: butt}</style>
 </defs>
 <g id="figure_1">
  <g id="patch_1">
   <path d="M 0 345.6 
L 460.8 345.6 
L 460.8 0 
L 0 0 
z
" style="fill: #ffffff"/>
  </g>
  <g id="axes_1">
   <g id="patch_2">
    <path d="M 58.945313 304.44375 
L 450 304.44375 
L 450 25.918125 
L 58.945313 25.918125 
z
" style="fill: #ffffff"/>
   </g>
   <g id="matplotlib.axis_1">
    <g id="xtick_1">
     <g id="line2d_1">
      <path d="M 76.720526 304.44375 
L 76.720526 25.918125 
" clip-path="url(#pfab9caa20a)" style="fill: none; stroke: #b0b0b0; stroke-width: 0.8; stroke-linecap: square"/>
     </g>
     <g id="line2d_2">
      <defs>
       <path id="m10fd392e49" d="M 0 0 
L 0 3.5 
" style="stroke: #000000; stroke-width: 0.8"/>
      </defs>
      <g>
       <use xlink:href="#m10fd392e49" x="76.720526" y="304.44375" style="stroke: #000000; stroke-width: 0.8"/>
      </g>
     </g>
     <g id="text_1">
      <!-- 0 -->
      <g transform="translate(73.539276 319.042187)scale(0.1 -0.1)">
       <defs>
        <path id="DejaVuSans-30" d="M 2034 4250 
Q 1547 4250 1301 3770 
Q 1056 3291 1056 2328 
Q 1056 1369 1301 889 
Q 1547 409 2034 409 
Q 2525 409 2770 889 
Q 3016 1369 3016 2328 
Q 3016 3291 2770 3770 
Q 2525 4250 2034 4250 
z
M 2034 4750 
Q 2819 4750 3233 4129 
Q 3647 3509 3647 2328 
Q 3647 1150 3233 529 
Q 2819 -91 2034 -91 
Q 1250 -91 836 529 
Q 422 1150 422 2328 
Q 422 3509 836 4129 
Q 1250 4750 2034 4750 
z
" transform="scale(0.015625)"/>
       </defs>
       <use xlink:href="#DejaVuSans-30"/>
      </g>
     </g>
    </g>
    <g id="xtick_2">
     <g id="line2d_3">
      <path d="M 126.096117 304.44375 
L 126.096117 25.918125 
" clip-path="url(#pfab9caa20a)" style="fill: none; stroke: #b0b0b0; stroke-width: 0.8; stroke-linecap: square"/>
     </g>
     <g id="line2d_4">
      <g>
       <use xlink:href="#m10fd392e49" x="126.096117" y="304.44375" style="stroke: #000000; stroke-width: 0.8"/>
      </g>
     </g>
     <g id="text_2">
      <!-- 50 -->
      <g transform="translate(119.733617 319.042187)scale(0.1 -0.1)">
       <defs>
        <path id="DejaVuSans-35" d="M 691 4666 
L 3169 4666 
L 3169 4134 
L 1269 4134 
L 1269 2991 
Q 1406 3038 1543 3061 
Q 1681 3084 1819 3084 
Q 2600 3084 3056 2656 
Q 3513 2228 3513 1497 
Q 3513 744 3044 326 
Q 2575 -91 1722 -91 
Q 1428 -91 1123 -41 
Q 819 9 494 109 
L 494 744 
Q 775 591 1075 516 
Q 1375 441 1709 441 
Q 2250 441 2565 725 
Q 2881 1009 2881 1497 
Q 2881 1984 2565 2268 
Q 2250 2553 1709 2553 
Q 1456 2553 1204 2497 
Q 953 2441 691 2322 
L 691 4666 
z
" transform="scale(0.015625)"/>
       </defs>
       <use xlink:href="#DejaVuSans-35"/>
       <use xlink:href="#DejaVuSans-30" x="63.623047"/>
      </g>
     </g>
    </g>
    <g id="xtick_3">
     <g id="line2d_5">
      <path d="M 175.471709 304.44375 
L 175.471709 25.918125 
" clip-path="url(#pfab9caa20a)" style="fill: none; stroke: #b0b0b0; stroke-width: 0.8; stroke-linecap: square"/>
     </g>
     <g id="line2d_6">
      <g>
       <use xlink:href="#m10fd392e49" x="175.471709" y="304.44375" style="stroke: #000000; stroke-width: 0.8"/>
      </g>
     </g>
     <g id="text_3">
      <!-- 100 -->
      <g transform="translate(165.927959 319.042187)scale(0.1 -0.1)">
       <defs>
        <path id="DejaVuSans-31" d="M 794 531 
L 1825 531 
L 1825 4091 
L 703 3866 
L 703 4441 
L 1819 4666 
L 2450 4666 
L 2450 531 
L 3481 531 
L 3481 0 
L 794 0 
L 794 531 
z
" transform="scale(0.015625)"/>
       </defs>
       <use xlink:href="#DejaVuSans-31"/>
       <use xlink:href="#DejaVuSans-30" x="63.623047"/>
       <use xlink:href="#DejaVuSans-30" x="127.246094"/>
      </g>
     </g>
    </g>
    <g id="xtick_4">
     <g id="line2d_7">
      <path d="M 224.847301 304.44375 
L 224.847301 25.918125 
" clip-path="url(#pfab9caa20a)" style="fill: none; stroke: #b0b0b0; stroke-width: 0.8; stroke-linecap: square"/>
     </g>
     <g id="line2d_8">
      <g>
       <use xlink:href="#m10fd392e49" x="224.847301" y="304.44375" style="stroke: #000000; stroke-width: 0.8"/>
      </g>
     </g>
     <g id="text_4">
      <!-- 150 -->
      <g transform="translate(215.303551 319.042187)scale(0.1 -0.1)">
       <use xlink:href="#DejaVuSans-31"/>
       <use xlink:href="#DejaVuSans-35" x="63.623047"/>
       <use xlink:href="#DejaVuSans-30" x="127.246094"/>
      </g>
     </g>
    </g>
    <g id="xtick_5">
     <g id="line2d_9">
      <path d="M 274.222893 304.44375 
L 274.222893 25.918125 
" clip-path="url(#pfab9caa20a)" style="fill: none; stroke: #b0b0b0; stroke-width: 0.8; stroke-linecap: square"/>
     </g>
     <g id="line2d_10">
      <g>
       <use xlink:href="#m10fd392e49" x="274.222893" y="304.44375" style="stroke: #000000; stroke-width: 0.8"/>
      </g>
     </g>
     <g id="text_5">
      <!-- 200 -->
      <g transform="translate(264.679143 319.042187)scale(0.1 -0.1)">
       <defs>
        <path id="DejaVuSans-32" d="M 1228 531 
L 3431 531 
L 3431 0 
L 469 0 
L 469 531 
Q 828 903 1448 1529 
Q 2069 2156 2228 2338 
Q 2531 2678 2651 2914 
Q 2772 3150 2772 3378 
Q 2772 3750 2511 3984 
Q 2250 4219 1831 4219 
Q 1534 4219 1204 4116 
Q 875 4013 500 3803 
L 500 4441 
Q 881 4594 1212 4672 
Q 1544 4750 1819 4750 
Q 2544 4750 2975 4387 
Q 3406 4025 3406 3419 
Q 3406 3131 3298 2873 
Q 3191 2616 2906 2266 
Q 2828 2175 2409 1742 
Q 1991 1309 1228 531 
z
" transform="scale(0.015625)"/>
       </defs>
       <use xlink:href="#DejaVuSans-32"/>
       <use xlink:href="#DejaVuSans-30" x="63.623047"/>
       <use xlink:href="#DejaVuSans-30" x="127.246094"/>
      </g>
     </g>
    </g>
    <g id="xtick_6">
     <g id="line2d_11">
      <path d="M 323.598485 304.44375 
L 323.598485 25.918125 
" clip-path="url(#pfab9caa20a)" style="fill: none; stroke: #b0b0b0; stroke-width: 0.8; stroke-linecap: square"/>
     </g>
     <g id="line2d_12">
      <g>
       <use xlink:href="#m10fd392e49" x="323.598485" y="304.44375" style="stroke: #000000; stroke-width: 0.8"/>
      </g>
     </g>
     <g id="text_6">
      <!-- 250 -->
      <g transform="translate(314.054735 319.042187)scale(0.1 -0.1)">
       <use xlink:href="#DejaVuSans-32"/>
       <use xlink:href="#DejaVuSans-35" x="63.623047"/>
       <use xlink:href="#DejaVuSans-30" x="127.246094"/>
      </g>
     </g>
    </g>
    <g id="xtick_7">
     <g id="line2d_13">
      <path d="M 372.974077 304.44375 
L 372.974077 25.918125 
" clip-path="url(#pfab9caa20a)" style="fill: none; stroke: #b0b0b0; stroke-width: 0.8; stroke-linecap: square"/>
     </g>
     <g id="line2d_14">
      <g>
       <use xlink:href="#m10fd392e49" x="372.974077" y="304.44375" style="stroke: #000000; stroke-width: 0.8"/>
      </g>
     </g>
     <g id="text_7">
      <!-- 300 -->
      <g transform="translate(363.430327 319.042187)scale(0.1 -0.1)">
       <defs>
        <path id="DejaVuSans-33" d="M 2597 2516 
Q 3050 2419 3304 2112 
Q 3559 1806 3559 1356 
Q 3559 666 3084 287 
Q 2609 -91 1734 -91 
Q 1441 -91 1130 -33 
Q 819 25 488 141 
L 488 750 
Q 750 597 1062 519 
Q 1375 441 1716 441 
Q 2309 441 2620 675 
Q 2931 909 2931 1356 
Q 2931 1769 2642 2001 
Q 2353 2234 1838 2234 
L 1294 2234 
L 1294 2753 
L 1863 2753 
Q 2328 2753 2575 2939 
Q 2822 3125 2822 3475 
Q 2822 3834 2567 4026 
Q 2313 4219 1838 4219 
Q 1578 4219 1281 4162 
Q 984 4106 628 3988 
L 628 4550 
Q 988 4650 1302 4700 
Q 1616 4750 1894 4750 
Q 2613 4750 3031 4423 
Q 3450 4097 3450 3541 
Q 3450 3153 3228 2886 
Q 3006 2619 2597 2516 
z
" transform="scale(0.015625)"/>
       </defs>
       <use xlink:href="#DejaVuSans-33"/>
       <use xlink:href="#DejaVuSans-30" x="63.623047"/>
       <use xlink:href="#DejaVuSans-30" x="127.246094"/>
      </g>
     </g>
    </g>
    <g id="xtick_8">
     <g id="line2d_15">
      <path d="M 422.349669 304.44375 
L 422.349669 25.918125 
" clip-path="url(#pfab9caa20a)" style="fill: none; stroke: #b0b0b0; stroke-width: 0.8; stroke-linecap: square"/>
     </g>
     <g id="line2d_16">
      <g>
       <use xlink:href="#m10fd392e49" x="422.349669" y="304.44375" style="stroke: #000000; stroke-width: 0.8"/>
      </g>
     </g>
     <g id="text_8">
      <!-- 350 -->
      <g transform="translate(412.805919 319.042187)scale(0.1 -0.1)">
       <use xlink:href="#DejaVuSans-33"/>
       <use xlink:href="#DejaVuSans-35" x="63.623047"/>
       <use xlink:href="#DejaVuSans-30" x="127.246094"/>
      </g>
     </g>
    </g>
    <g id="text_9">
     <!-- Translational Position [mm] -->
     <g transform="translate(186.495312 332.720312)scale(0.1 -0.1)">
      <defs>
       <path id="DejaVuSans-54" d="M -19 4666 
L 3928 4666 
L 3928 4134 
L 2272 4134 
L 2272 0 
L 1638 0 
L 1638 4134 
L -19 4134 
L -19 4666 
z
" transform="scale(0.015625)"/>
       <path id="DejaVuSans-72" d="M 2631 2963 
Q 2534 3019 2420 3045 
Q 2306 3072 2169 3072 
Q 1681 3072 1420 2755 
Q 1159 2438 1159 1844 
L 1159 0 
L 581 0 
L 581 3500 
L 1159 3500 
L 1159 2956 
Q 1341 3275 1631 3429 
Q 1922 3584 2338 3584 
Q 2397 3584 2469 3576 
Q 2541 3569 2628 3553 
L 2631 2963 
z
" transform="scale(0.015625)"/>
       <path id="DejaVuSans-61" d="M 2194 1759 
Q 1497 1759 1228 1600 
Q 959 1441 959 1056 
Q 959 750 1161 570 
Q 1363 391 1709 391 
Q 2188 391 2477 730 
Q 2766 1069 2766 1631 
L 2766 1759 
L 2194 1759 
z
M 3341 1997 
L 3341 0 
L 2766 0 
L 2766 531 
Q 2569 213 2275 61 
Q 1981 -91 1556 -91 
Q 1019 -91 701 211 
Q 384 513 384 1019 
Q 384 1609 779 1909 
Q 1175 2209 1959 2209 
L 2766 2209 
L 2766 2266 
Q 2766 2663 2505 2880 
Q 2244 3097 1772 3097 
Q 1472 3097 1187 3025 
Q 903 2953 641 2809 
L 641 3341 
Q 956 3463 1253 3523 
Q 1550 3584 1831 3584 
Q 2591 3584 2966 3190 
Q 3341 2797 3341 1997 
z
" transform="scale(0.015625)"/>
       <path id="DejaVuSans-6e" d="M 3513 2113 
L 3513 0 
L 2938 0 
L 2938 2094 
Q 2938 2591 2744 2837 
Q 2550 3084 2163 3084 
Q 1697 3084 1428 2787 
Q 1159 2491 1159 1978 
L 1159 0 
L 581 0 
L 581 3500 
L 1159 3500 
L 1159 2956 
Q 1366 3272 1645 3428 
Q 1925 3584 2291 3584 
Q 2894 3584 3203 3211 
Q 3513 2838 3513 2113 
z
" transform="scale(0.015625)"/>
       <path id="DejaVuSans-73" d="M 2834 3397 
L 2834 2853 
Q 2591 2978 2328 3040 
Q 2066 3103 1784 3103 
Q 1356 3103 1142 2972 
Q 928 2841 928 2578 
Q 928 2378 1081 2264 
Q 1234 2150 1697 2047 
L 1894 2003 
Q 2506 1872 2764 1633 
Q 3022 1394 3022 966 
Q 3022 478 2636 193 
Q 2250 -91 1575 -91 
Q 1294 -91 989 -36 
Q 684 19 347 128 
L 347 722 
Q 666 556 975 473 
Q 1284 391 1588 391 
Q 1994 391 2212 530 
Q 2431 669 2431 922 
Q 2431 1156 2273 1281 
Q 2116 1406 1581 1522 
L 1381 1569 
Q 847 1681 609 1914 
Q 372 2147 372 2553 
Q 372 3047 722 3315 
Q 1072 3584 1716 3584 
Q 2034 3584 2315 3537 
Q 2597 3491 2834 3397 
z
" transform="scale(0.015625)"/>
       <path id="DejaVuSans-6c" d="M 603 4863 
L 1178 4863 
L 1178 0 
L 603 0 
L 603 4863 
z
" transform="scale(0.015625)"/>
       <path id="DejaVuSans-74" d="M 1172 4494 
L 1172 3500 
L 2356 3500 
L 2356 3053 
L 1172 3053 
L 1172 1153 
Q 1172 725 1289 603 
Q 1406 481 1766 481 
L 2356 481 
L 2356 0 
L 1766 0 
Q 1100 0 847 248 
Q 594 497 594 1153 
L 594 3053 
L 172 3053 
L 172 3500 
L 594 3500 
L 594 4494 
L 1172 4494 
z
" transform="scale(0.015625)"/>
       <path id="DejaVuSans-69" d="M 603 3500 
L 1178 3500 
L 1178 0 
L 603 0 
L 603 3500 
z
M 603 4863 
L 1178 4863 
L 1178 4134 
L 603 4134 
L 603 4863 
z
" transform="scale(0.015625)"/>
       <path id="DejaVuSans-6f" d="M 1959 3097 
Q 1497 3097 1228 2736 
Q 959 2375 959 1747 
Q 959 1119 1226 758 
Q 1494 397 1959 397 
Q 2419 397 2687 759 
Q 2956 1122 2956 1747 
Q 2956 2369 2687 2733 
Q 2419 3097 1959 3097 
z
M 1959 3584 
Q 2709 3584 3137 3096 
Q 3566 2609 3566 1747 
Q 3566 888 3137 398 
Q 2709 -91 1959 -91 
Q 1206 -91 779 398 
Q 353 888 353 1747 
Q 353 2609 779 3096 
Q 1206 3584 1959 3584 
z
" transform="scale(0.015625)"/>
       <path id="DejaVuSans-20" transform="scale(0.015625)"/>
       <path id="DejaVuSans-50" d="M 1259 4147 
L 1259 2394 
L 2053 2394 
Q 2494 2394 2734 2622 
Q 2975 2850 2975 3272 
Q 2975 3691 2734 3919 
Q 2494 4147 2053 4147 
L 1259 4147 
z
M 628 4666 
L 2053 4666 
Q 2838 4666 3239 4311 
Q 3641 3956 3641 3272 
Q 3641 2581 3239 2228 
Q 2838 1875 2053 1875 
L 1259 1875 
L 1259 0 
L 628 0 
L 628 4666 
z
" transform="scale(0.015625)"/>
       <path id="DejaVuSans-5b" d="M 550 4863 
L 1875 4863 
L 1875 4416 
L 1125 4416 
L 1125 -397 
L 1875 -397 
L 1875 -844 
L 550 -844 
L 550 4863 
z
" transform="scale(0.015625)"/>
       <path id="DejaVuSans-6d" d="M 3328 2828 
Q 3544 3216 3844 3400 
Q 4144 3584 4550 3584 
Q 5097 3584 5394 3201 
Q 5691 2819 5691 2113 
L 5691 0 
L 5113 0 
L 5113 2094 
Q 5113 2597 4934 2840 
Q 4756 3084 4391 3084 
Q 3944 3084 3684 2787 
Q 3425 2491 3425 1978 
L 3425 0 
L 2847 0 
L 2847 2094 
Q 2847 2600 2669 2842 
Q 2491 3084 2119 3084 
Q 1678 3084 1418 2786 
Q 1159 2488 1159 1978 
L 1159 0 
L 581 0 
L 581 3500 
L 1159 3500 
L 1159 2956 
Q 1356 3278 1631 3431 
Q 1906 3584 2284 3584 
Q 2666 3584 2933 3390 
Q 3200 3197 3328 2828 
z
" transform="scale(0.015625)"/>
       <path id="DejaVuSans-5d" d="M 1947 4863 
L 1947 -844 
L 622 -844 
L 622 -397 
L 1369 -397 
L 1369 4416 
L 622 4416 
L 622 4863 
L 1947 4863 
z
" transform="scale(0.015625)"/>
      </defs>
      <use xlink:href="#DejaVuSans-54"/>
      <use xlink:href="#DejaVuSans-72" x="46.333984"/>
      <use xlink:href="#DejaVuSans-61" x="87.447266"/>
      <use xlink:href="#DejaVuSans-6e" x="148.726562"/>
      <use xlink:href="#DejaVuSans-73" x="212.105469"/>
      <use xlink:href="#DejaVuSans-6c" x="264.205078"/>
      <use xlink:href="#DejaVuSans-61" x="291.988281"/>
      <use xlink:href="#DejaVuSans-74" x="353.267578"/>
      <use xlink:href="#DejaVuSans-69" x="392.476562"/>
      <use xlink:href="#DejaVuSans-6f" x="420.259766"/>
      <use xlink:href="#DejaVuSans-6e" x="481.441406"/>
      <use xlink:href="#DejaVuSans-61" x="544.820312"/>
      <use xlink:href="#DejaVuSans-6c" x="606.099609"/>
      <use xlink:href="#DejaVuSans-20" x="633.882812"/>
      <use xlink:href="#DejaVuSans-50" x="665.669922"/>
      <use xlink:href="#DejaVuSans-6f" x="722.347656"/>
      <use xlink:href="#DejaVuSans-73" x="783.529297"/>
      <use xlink:href="#DejaVuSans-69" x="835.628906"/>
      <use xlink:href="#DejaVuSans-74" x="863.412109"/>
      <use xlink:href="#DejaVuSans-69" x="902.621094"/>
      <use xlink:href="#DejaVuSans-6f" x="930.404297"/>
      <use xlink:href="#DejaVuSans-6e" x="991.585938"/>
      <use xlink:href="#DejaVuSans-20" x="1054.964844"/>
      <use xlink:href="#DejaVuSans-5b" x="1086.751953"/>
      <use xlink:href="#DejaVuSans-6d" x="1125.765625"/>
      <use xlink:href="#DejaVuSans-6d" x="1223.177734"/>
      <use xlink:href="#DejaVuSans-5d" x="1320.589844"/>
     </g>
    </g>
   </g>
   <g id="matplotlib.axis_2">
    <g id="ytick_1">
     <g id="line2d_17">
      <path d="M 58.945313 288.760726 
L 450 288.760726 
" clip-path="url(#pfab9caa20a)" style="fill: none; stroke: #b0b0b0; stroke-width: 0.8; stroke-linecap: square"/>
     </g>
     <g id="line2d_18">
      <defs>
       <path id="m4189caff97" d="M 0 0 
L -3.5 0 
" style="stroke: #000000; stroke-width: 0.8"/>
      </defs>
      <g>
       <use xlink:href="#m4189caff97" x="58.945313" y="288.760726" style="stroke: #000000; stroke-width: 0.8"/>
      </g>
     </g>
     <g id="text_10">
      <!-- −100 -->
      <g transform="translate(24.478125 292.559944)scale(0.1 -0.1)">
       <defs>
        <path id="DejaVuSans-2212" d="M 678 2272 
L 4684 2272 
L 4684 1741 
L 678 1741 
L 678 2272 
z
" transform="scale(0.015625)"/>
       </defs>
       <use xlink:href="#DejaVuSans-2212"/>
       <use xlink:href="#DejaVuSans-31" x="83.789062"/>
       <use xlink:href="#DejaVuSans-30" x="147.412109"/>
       <use xlink:href="#DejaVuSans-30" x="211.035156"/>
      </g>
     </g>
    </g>
    <g id="ytick_2">
     <g id="line2d_19">
      <path d="M 58.945313 256.603612 
L 450 256.603612 
" clip-path="url(#pfab9caa20a)" style="fill: none; stroke: #b0b0b0; stroke-width: 0.8; stroke-linecap: square"/>
     </g>
     <g id="line2d_20">
      <g>
       <use xlink:href="#m4189caff97" x="58.945313" y="256.603612" style="stroke: #000000; stroke-width: 0.8"/>
      </g>
     </g>
     <g id="text_11">
      <!-- −50 -->
      <g transform="translate(30.840625 260.402831)scale(0.1 -0.1)">
       <use xlink:href="#DejaVuSans-2212"/>
       <use xlink:href="#DejaVuSans-35" x="83.789062"/>
       <use xlink:href="#DejaVuSans-30" x="147.412109"/>
      </g>
     </g>
    </g>
    <g id="ytick_3">
     <g id="line2d_21">
      <path d="M 58.945313 224.446498 
L 450 224.446498 
" clip-path="url(#pfab9caa20a)" style="fill: none; stroke: #b0b0b0; stroke-width: 0.8; stroke-linecap: square"/>
     </g>
     <g id="line2d_22">
      <g>
       <use xlink:href="#m4189caff97" x="58.945313" y="224.446498" style="stroke: #000000; stroke-width: 0.8"/>
      </g>
     </g>
     <g id="text_12">
      <!-- 0 -->
      <g transform="translate(45.582813 228.245717)scale(0.1 -0.1)">
       <use xlink:href="#DejaVuSans-30"/>
      </g>
     </g>
    </g>
    <g id="ytick_4">
     <g id="line2d_23">
      <path d="M 58.945313 192.289384 
L 450 192.289384 
" clip-path="url(#pfab9caa20a)" style="fill: none; stroke: #b0b0b0; stroke-width: 0.8; stroke-linecap: square"/>
     </g>
     <g id="line2d_24">
      <g>
       <use xlink:href="#m4189caff97" x="58.945313" y="192.289384" style="stroke: #000000; stroke-width: 0.8"/>
      </g>
     </g>
     <g id="text_13">
      <!-- 50 -->
      <g transform="translate(39.220313 196.088603)scale(0.1 -0.1)">
       <use xlink:href="#DejaVuSans-35"/>
       <use xlink:href="#DejaVuSans-30" x="63.623047"/>
      </g>
     </g>
    </g>
    <g id="ytick_5">
     <g id="line2d_25">
      <path d="M 58.945313 160.132271 
L 450 160.132271 
" clip-path="url(#pfab9caa20a)" style="fill: none; stroke: #b0b0b0; stroke-width: 0.8; stroke-linecap: square"/>
     </g>
     <g id="line2d_26">
      <g>
       <use xlink:href="#m4189caff97" x="58.945313" y="160.132271" style="stroke: #000000; stroke-width: 0.8"/>
      </g>
     </g>
     <g id="text_14">
      <!-- 100 -->
      <g transform="translate(32.857813 163.931489)scale(0.1 -0.1)">
       <use xlink:href="#DejaVuSans-31"/>
       <use xlink:href="#DejaVuSans-30" x="63.623047"/>
       <use xlink:href="#DejaVuSans-30" x="127.246094"/>
      </g>
     </g>
    </g>
    <g id="ytick_6">
     <g id="line2d_27">
      <path d="M 58.945313 127.975157 
L 450 127.975157 
" clip-path="url(#pfab9caa20a)" style="fill: none; stroke: #b0b0b0; stroke-width: 0.8; stroke-linecap: square"/>
     </g>
     <g id="line2d_28">
      <g>
       <use xlink:href="#m4189caff97" x="58.945313" y="127.975157" style="stroke: #000000; stroke-width: 0.8"/>
      </g>
     </g>
     <g id="text_15">
      <!-- 150 -->
      <g transform="translate(32.857813 131.774376)scale(0.1 -0.1)">
       <use xlink:href="#DejaVuSans-31"/>
       <use xlink:href="#DejaVuSans-35" x="63.623047"/>
       <use xlink:href="#DejaVuSans-30" x="127.246094"/>
      </g>
     </g>
    </g>
    <g id="ytick_7">
     <g id="line2d_29">
      <path d="M 58.945313 95.818043 
L 450 95.818043 
" clip-path="url(#pfab9caa20a)" style="fill: none; stroke: #b0b0b0; stroke-width: 0.8; stroke-linecap: square"/>
     </g>
     <g id="line2d_30">
      <g>
       <use xlink:href="#m4189caff97" x="58.945313" y="95.818043" style="stroke: #000000; stroke-width: 0.8"/>
      </g>
     </g>
     <g id="text_16">
      <!-- 200 -->
      <g transform="translate(32.857813 99.617262)scale(0.1 -0.1)">
       <use xlink:href="#DejaVuSans-32"/>
       <use xlink:href="#DejaVuSans-30" x="63.623047"/>
       <use xlink:href="#DejaVuSans-30" x="127.246094"/>
      </g>
     </g>
    </g>
    <g id="ytick_8">
     <g id="line2d_31">
      <path d="M 58.945313 63.660929 
L 450 63.660929 
" clip-path="url(#pfab9caa20a)" style="fill: none; stroke: #b0b0b0; stroke-width: 0.8; stroke-linecap: square"/>
     </g>
     <g id="line2d_32">
      <g>
       <use xlink:href="#m4189caff97" x="58.945313" y="63.660929" style="stroke: #000000; stroke-width: 0.8"/>
      </g>
     </g>
     <g id="text_17">
      <!-- 250 -->
      <g transform="translate(32.857813 67.460148)scale(0.1 -0.1)">
       <use xlink:href="#DejaVuSans-32"/>
       <use xlink:href="#DejaVuSans-35" x="63.623047"/>
       <use xlink:href="#DejaVuSans-30" x="127.246094"/>
      </g>
     </g>
    </g>
    <g id="ytick_9">
     <g id="line2d_33">
      <path d="M 58.945313 31.503816 
L 450 31.503816 
" clip-path="url(#pfab9caa20a)" style="fill: none; stroke: #b0b0b0; stroke-width: 0.8; stroke-linecap: square"/>
     </g>
     <g id="line2d_34">
      <g>
       <use xlink:href="#m4189caff97" x="58.945313" y="31.503816" style="stroke: #000000; stroke-width: 0.8"/>
      </g>
     </g>
     <g id="text_18">
      <!-- 300 -->
      <g transform="translate(32.857813 35.303034)scale(0.1 -0.1)">
       <use xlink:href="#DejaVuSans-33"/>
       <use xlink:href="#DejaVuSans-30" x="63.623047"/>
       <use xlink:href="#DejaVuSans-30" x="127.246094"/>
      </g>
     </g>
    </g>
    <g id="text_19">
     <!-- Wall Distance [mm] -->
     <g transform="translate(18.398438 214.330937)rotate(-90)scale(0.1 -0.1)">
      <defs>
       <path id="DejaVuSans-57" d="M 213 4666 
L 850 4666 
L 1831 722 
L 2809 4666 
L 3519 4666 
L 4500 722 
L 5478 4666 
L 6119 4666 
L 4947 0 
L 4153 0 
L 3169 4050 
L 2175 0 
L 1381 0 
L 213 4666 
z
" transform="scale(0.015625)"/>
       <path id="DejaVuSans-44" d="M 1259 4147 
L 1259 519 
L 2022 519 
Q 2988 519 3436 956 
Q 3884 1394 3884 2338 
Q 3884 3275 3436 3711 
Q 2988 4147 2022 4147 
L 1259 4147 
z
M 628 4666 
L 1925 4666 
Q 3281 4666 3915 4102 
Q 4550 3538 4550 2338 
Q 4550 1131 3912 565 
Q 3275 0 1925 0 
L 628 0 
L 628 4666 
z
" transform="scale(0.015625)"/>
       <path id="DejaVuSans-63" d="M 3122 3366 
L 3122 2828 
Q 2878 2963 2633 3030 
Q 2388 3097 2138 3097 
Q 1578 3097 1268 2742 
Q 959 2388 959 1747 
Q 959 1106 1268 751 
Q 1578 397 2138 397 
Q 2388 397 2633 464 
Q 2878 531 3122 666 
L 3122 134 
Q 2881 22 2623 -34 
Q 2366 -91 2075 -91 
Q 1284 -91 818 406 
Q 353 903 353 1747 
Q 353 2603 823 3093 
Q 1294 3584 2113 3584 
Q 2378 3584 2631 3529 
Q 2884 3475 3122 3366 
z
" transform="scale(0.015625)"/>
       <path id="DejaVuSans-65" d="M 3597 1894 
L 3597 1613 
L 953 1613 
Q 991 1019 1311 708 
Q 1631 397 2203 397 
Q 2534 397 2845 478 
Q 3156 559 3463 722 
L 3463 178 
Q 3153 47 2828 -22 
Q 2503 -91 2169 -91 
Q 1331 -91 842 396 
Q 353 884 353 1716 
Q 353 2575 817 3079 
Q 1281 3584 2069 3584 
Q 2775 3584 3186 3129 
Q 3597 2675 3597 1894 
z
M 3022 2063 
Q 3016 2534 2758 2815 
Q 2500 3097 2075 3097 
Q 1594 3097 1305 2825 
Q 1016 2553 972 2059 
L 3022 2063 
z
" transform="scale(0.015625)"/>
      </defs>
      <use xlink:href="#DejaVuSans-57"/>
      <use xlink:href="#DejaVuSans-61" x="92.501953"/>
      <use xlink:href="#DejaVuSans-6c" x="153.78125"/>
      <use xlink:href="#DejaVuSans-6c" x="181.564453"/>
      <use xlink:href="#DejaVuSans-20" x="209.347656"/>
      <use xlink:href="#DejaVuSans-44" x="241.134766"/>
      <use xlink:href="#DejaVuSans-69" x="318.136719"/>
      <use xlink:href="#DejaVuSans-73" x="345.919922"/>
      <use xlink:href="#DejaVuSans-74" x="398.019531"/>
      <use xlink:href="#DejaVuSans-61" x="437.228516"/>
      <use xlink:href="#DejaVuSans-6e" x="498.507812"/>
      <use xlink:href="#DejaVuSans-63" x="561.886719"/>
      <use xlink:href="#DejaVuSans-65" x="616.867188"/>
      <use xlink:href="#DejaVuSans-20" x="678.390625"/>
      <use xlink:href="#DejaVuSans-5b" x="710.177734"/>
      <use xlink:href="#DejaVuSans-6d" x="749.191406"/>
      <use xlink:href="#DejaVuSans-6d" x="846.603516"/>
      <use xlink:href="#DejaVuSans-5d" x="944.015625"/>
     </g>
    </g>
   </g>
   <g id="line2d_35">
    <path d="M 76.720526 213.01786 
L 76.74075 212.97284 
L 76.720842 213.030723 
L 76.828954 212.985703 
L 77.33772 212.959977 
L 77.414746 213.037154 
L 77.58766 212.998566 
L 78.272894 213.01786 
L 78.414108 213.101468 
L 78.888114 213.050017 
L 79.441121 213.178645 
L 83.081089 213.545237 
L 83.742722 213.525942 
L 86.339878 213.525942 
L 92.273837 213.442334 
L 108.074026 213.333 
L 109.259041 213.24296 
L 111.629069 213.223665 
L 118.146647 213.120763 
L 124.071718 213.037154 
L 133.551832 213.133626 
L 144.21696 213.500217 
L 145.401974 213.783199 
L 145.994481 214.079045 
L 146.586988 214.535676 
L 147.179495 215.346035 
L 147.772002 216.394357 
L 148.957016 219.525173 
L 150.142031 224.41128 
L 151.327045 231.482475 
L 151.919552 236.338199 
L 152.512059 242.698876 
L 153.104566 250.950391 
L 153.697073 278.303232 
L 223.563536 278.303232 
L 224.156043 257.677659 
L 224.74855 245.200699 
L 225.341057 239.836893 
L 226.526071 232.993859 
L 227.711085 227.94069 
L 228.8961 224.018937 
L 230.081114 220.673826 
L 231.266128 218.118621 
L 232.451142 216.014903 
L 233.636156 214.46493 
L 234.228664 214.040456 
L 235.413678 213.577394 
L 237.191199 213.371588 
L 238.96872 213.313705 
L 242.523763 213.345862 
L 247.26382 213.345862 
L 260.298976 213.429471 
L 261.48399 213.435902 
L 266.816554 213.448765 
L 272.149118 213.384451 
L 289.924331 213.474491 
L 294.071881 213.564531 
L 298.219431 213.558099 
L 302.36698 213.596688 
L 309.477066 213.519511 
L 310.66208 213.513079 
L 313.624615 213.487354 
L 320.142193 213.699591 
L 321.327208 213.879671 
L 322.512222 214.317007 
L 323.104729 214.773638 
L 324.289743 216.600162 
L 324.88225 217.860721 
L 325.474757 219.552829 
L 326.067264 221.685488 
L 327.252279 227.31234 
L 327.844786 231.109452 
L 328.437293 235.875136 
L 329.0298 242.58311 
L 329.622307 255.82541 
L 330.214814 278.303232 
L 381.762932 278.303232 
L 382.355439 269.183475 
L 382.947946 262.15393 
L 383.540453 257.677659 
L 384.13296 255.291602 
L 384.725468 278.303232 
L 387.688003 278.303232 
L 388.28051 244.184535 
L 388.873017 244.326026 
L 389.465524 242.58311 
L 390.650539 241.238943 
L 391.243046 246.525572 
L 391.835553 246.178276 
L 392.42806 243.920846 
L 393.020567 242.698876 
L 393.613074 241.830634 
L 394.205581 240.422152 
L 394.798088 235.534271 
L 395.983103 234.048612 
L 396.57561 233.463353 
L 397.168117 232.717308 
L 397.760624 234.376615 
L 398.353131 233.579118 
L 398.945638 232.447188 
L 399.538145 231.630397 
L 400.723159 229.454004 
L 401.315666 226.980479 
L 401.908174 226.244081 
L 403.685695 223.485644 
L 404.278202 223.598837 
L 405.463216 221.640468 
L 406.64823 219.801081 
L 407.240737 218.266544 
L 408.425752 216.857419 
L 409.512015 216.053491 
L 410.104522 216.484397 
L 410.697029 216.638751 
L 411.289536 217.050362 
L 412.869555 219.441565 
L 413.462062 221.08415 
L 414.548325 225.817034 
L 415.042081 229.137578 
L 415.535837 237.174284 
L 416.029593 247.895465 
L 416.6221 278.303232 
L 423.33718 278.303232 
L 423.732185 266.797417 
L 424.12719 278.303232 
L 425.80596 278.303232 
L 426.102214 259.195475 
L 426.398467 263.433783 
L 426.694721 255.291602 
L 426.990974 254.314025 
L 427.287228 278.303232 
L 428.570993 278.303232 
L 428.867247 248.332802 
L 429.064749 248.332802 
L 429.459754 245.83741 
L 429.657256 278.303232 
L 430.546017 278.303232 
L 430.644768 243.785786 
L 430.743519 246.004627 
L 431.039773 243.785786 
L 431.237275 278.303232 
L 431.63228 278.303232 
L 431.63228 242.473776 
L 431.731031 242.473776 
L 431.829782 241.528357 
L 432.027285 278.303232 
L 432.027285 278.303232 
L 432.126036 278.303232 
L 432.224787 238.364097 
L 432.224787 239.219476 
" clip-path="url(#pfab9caa20a)" style="fill: none; stroke: #1f77b4; stroke-width: 1.5; stroke-linecap: square"/>
   </g>
   <g id="line2d_36">
    <path d="M 76.720526 291.461923 
L 341.472449 291.461923 
L 342.064956 282.329303 
L 342.657463 282.329303 
L 343.24997 272.341303 
L 343.842478 278.090995 
L 344.434985 273.215977 
L 345.027492 285.699368 
L 345.619999 291.461923 
L 347.990027 291.461923 
L 348.582534 275.299758 
L 349.175041 268.43743 
L 349.767549 269.550066 
L 350.360056 268.43743 
L 350.952563 268.43743 
L 351.54507 267.935779 
L 352.137577 291.461923 
L 355.100112 291.461923 
L 355.69262 267.935779 
L 356.285127 267.016085 
L 356.877634 267.016085 
L 358.062648 267.935779 
L 358.655155 266.591611 
L 359.247662 291.461923 
L 361.617691 291.461923 
L 362.210198 267.016085 
L 362.802705 266.186432 
L 363.395212 267.016085 
L 363.987719 267.459853 
L 364.580226 265.800546 
L 365.172733 267.459853 
L 365.76524 291.461923 
L 368.135269 291.461923 
L 368.727776 266.591611 
L 369.91279 264.411359 
L 370.505297 264.411359 
L 371.097804 264.096219 
L 371.690311 262.687738 
L 372.282818 291.461923 
L 374.652847 291.461923 
L 375.245354 262.430481 
L 375.837861 260.629683 
L 376.430368 260.430308 
L 377.022875 261.710162 
L 377.615382 260.237366 
L 378.207889 261.710162 
L 378.800397 291.461923 
L 381.170425 291.461923 
L 381.762932 257.613345 
L 382.355439 258.346527 
L 382.947946 256.429963 
L 383.540453 256.192001 
L 384.13296 256.076235 
L 384.725468 255.400936 
L 385.317975 291.461923 
L 387.688003 291.461923 
L 388.28051 254.384771 
L 388.873017 253.317155 
L 389.465524 253.484372 
L 390.058031 252.519658 
L 390.650539 252.365304 
L 391.243046 279.943245 
L 391.835553 291.461923 
L 393.613074 291.461923 
L 394.798088 250.204346 
L 395.983103 249.921364 
L 397.168117 248.879473 
L 397.760624 260.430308 
L 398.353131 263.504528 
L 398.945638 261.259962 
L 399.538145 259.677832 
L 400.723159 258.346527 
L 401.315666 246.995066 
L 401.908174 246.654201 
L 402.500681 246.499847 
L 403.685695 245.895293 
L 404.278202 254.481242 
L 405.463216 252.989152 
L 406.055723 252.667581 
L 406.64823 252.146636 
L 407.240737 244.25528 
L 407.833245 244.004455 
L 408.425752 243.605707 
L 409.018259 243.502804 
L 409.512015 243.174801 
L 410.104522 249.381124 
L 410.697029 248.538608 
L 411.289536 248.307077 
L 411.783292 247.68966 
L 412.375799 247.155852 
L 412.869555 241.727731 
L 413.462062 241.521926 
L 414.548325 240.917372 
L 415.042081 240.788743 
L 415.535837 245.271445 
L 416.029593 244.93058 
L 416.6221 244.338889 
L 417.115856 244.197397 
L 417.609612 243.631432 
L 418.103368 239.348105 
L 418.597124 239.116573 
L 418.992128 238.775708 
L 419.485884 238.614922 
L 419.97964 238.267626 
L 420.374645 241.792045 
L 422.152166 240.582938 
L 422.547171 237.097107 
L 422.942176 236.801261 
L 423.732185 236.447533 
L 424.12719 236.177413 
L 424.423443 238.859317 
L 425.80596 237.907466 
L 426.102214 235.116228 
L 426.990974 234.556695 
L 427.287228 234.235124 
L 427.583481 236.312473 
L 428.570993 235.334897 
L 428.867247 233.379744 
L 429.262251 232.614405 
L 429.657256 232.27354 
L 429.854759 234.016455 
L 430.052261 233.881395 
L 430.151012 233.501941 
L 430.546017 233.199664 
L 430.743519 231.199492 
L 430.941022 231.148041 
L 431.138524 230.703629 
L 431.237275 232.080597 
L 431.336026 231.91338 
L 431.63228 231.46318 
L 431.731031 229.724767 
L 431.928533 229.268779 
L 432.027285 230.481102 
L 432.027285 230.04891 
L 432.126036 229.852752 
L 432.224787 227.139335 
L 432.224787 227.576672 
" clip-path="url(#pfab9caa20a)" style="fill: none; stroke: #ff7f0e; stroke-width: 1.5; stroke-linecap: square"/>
   </g>
   <g id="line2d_37">
    <path d="M 76.720526 291.783494 
L 377.022875 291.783494 
L 377.615382 282.657305 
L 378.207889 291.783494 
L 381.170425 291.783494 
L 381.762932 263.01574 
L 382.355439 263.549548 
L 382.947946 261.587965 
L 383.540453 261.587965 
L 384.13296 260.758311 
L 384.725468 291.783494 
L 387.688003 291.783494 
L 388.28051 256.635769 
L 388.873017 256.397806 
L 389.465524 255.947607 
L 390.058031 256.397806 
L 390.650539 255.201562 
L 391.243046 291.783494 
L 394.205581 291.783494 
L 394.798088 251.509925 
L 395.390595 251.837928 
L 395.983103 251.188354 
L 396.57561 251.509925 
L 397.168117 250.532349 
L 397.760624 269.871637 
L 398.353131 265.755526 
L 398.945638 263.549548 
L 399.538145 261.806633 
L 400.723159 260.558937 
L 401.315666 249.104573 
L 401.908174 247.927623 
L 402.500681 247.889034 
L 403.093188 247.477423 
L 403.685695 247.477423 
L 404.278202 255.619604 
L 404.870709 255.728938 
L 405.463216 254.429791 
L 406.055723 254.429791 
L 406.64823 252.84123 
L 407.240737 245.753802 
L 407.833245 245.252151 
L 408.425752 245.162111 
L 409.018259 244.5254 
L 409.512015 248.146291 
L 410.104522 249.760578 
L 410.697029 249.554773 
L 411.289536 248.770139 
L 411.783292 248.319939 
L 412.375799 247.972643 
L 412.869555 242.975427 
L 413.462062 242.499502 
L 413.955818 242.544522 
L 414.548325 242.055734 
L 415.042081 245.470819 
L 415.535837 246.294041 
L 416.029593 245.56729 
L 416.6221 245.039914 
L 417.115856 244.891991 
L 417.609612 244.332457 
L 418.103368 240.525055 
L 418.597124 240.023404 
L 418.992128 240.152032 
L 419.485884 239.348105 
L 419.97964 242.370873 
L 420.374645 242.139342 
L 420.868401 242.055734 
L 421.263406 241.470474 
L 421.757161 241.354709 
L 422.152166 240.859489 
L 422.547171 237.946054 
L 422.942176 237.515149 
L 423.33718 237.444404 
L 423.732185 237.026361 
L 424.12719 239.258065 
L 424.423443 238.981514 
L 424.818448 238.942925 
L 425.114702 238.428411 
L 425.509706 238.415548 
L 425.80596 237.862446 
L 426.102214 235.707919 
L 426.398467 235.270583 
L 426.694721 235.34776 
L 426.990974 234.891129 
L 427.287228 236.672633 
L 427.879735 235.984471 
L 428.077237 235.945882 
L 428.570993 235.231994 
L 428.867247 233.521236 
L 429.064749 233.071036 
L 429.262251 233.154645 
L 429.459754 232.710876 
L 429.657256 234.177241 
L 430.052261 233.58555 
L 430.151012 233.662727 
L 430.546017 233.032448 
L 430.743519 231.270238 
L 431.039773 231.148041 
L 431.237275 232.074166 
L 431.434777 231.501769 
L 431.533529 231.566083 
L 431.63228 231.148041 
L 431.731031 229.640515 
L 431.829782 229.762069 
L 431.829782 229.361391 
L 431.928533 230.403925 
L 431.928533 230.054699 
L 432.027285 230.099076 
L 432.027285 230.030259 
L 432.126036 228.107907 
L 432.126036 228.201163 
L 432.224787 228.910549 
L 432.224787 228.283485 
L 432.224787 226.914878 
L 432.224787 227.511071 
" clip-path="url(#pfab9caa20a)" style="fill: none; stroke: #2ca02c; stroke-width: 1.5; stroke-linecap: square"/>
   </g>
   <g id="line2d_38">
    <path d="M 76.720526 236.023059 
L 76.788782 235.849411 
L 76.773101 236.826987 
L 76.828954 236.698358 
L 76.88228 236.698358 
L 77.036529 235.849411 
L 77.0863 236.698358 
L 77.141107 236.325336 
L 77.201148 236.698358 
L 77.26662 236.023059 
L 77.33772 236.203139 
L 77.414746 235.965176 
L 77.497994 236.145256 
L 77.787038 235.849411 
L 77.89764 235.791528 
L 78.13958 236.383219 
L 78.272894 235.849411 
L 78.414108 236.261022 
L 78.721225 235.682194 
L 79.063891 236.080942 
L 79.441121 235.508545 
L 79.643561 235.791528 
L 79.854888 235.508545 
L 80.074116 235.791528 
L 80.541209 235.238426 
L 80.788087 235.508545 
L 81.042865 235.07764 
L 81.307518 235.508545 
L 81.581059 235.566428 
L 81.863487 235.849411 
L 82.153816 235.508545 
L 82.454019 235.457094 
L 82.76311 235.238426 
L 83.081089 235.289877 
L 83.406968 234.820383 
L 83.742722 234.923286 
L 84.087364 235.508545 
L 84.440893 234.923286 
L 84.802322 235.135523 
L 85.173627 235.135523 
L 85.553819 235.566428 
L 85.942899 235.238426 
L 86.339878 235.508545 
L 86.743771 235.07764 
L 87.158526 235.07764 
L 87.583156 235.624311 
L 88.017661 234.923286 
L 88.916297 235.399211 
L 89.370552 234.923286 
L 89.834683 234.923286 
L 90.792569 235.34776 
L 91.27645 235.791528 
L 91.770206 234.974737 
L 92.787343 235.457094 
L 93.814355 235.399211 
L 94.880868 235.289877 
L 95.414125 235.34776 
L 95.957256 235.026189 
L 96.500388 235.238426 
L 97.053394 235.733645 
L 97.606401 235.07764 
L 99.295046 235.238426 
L 99.867803 235.457094 
L 100.44056 236.145256 
L 101.023192 235.289877 
L 101.595949 235.907293 
L 102.178581 235.791528 
L 102.761213 236.511847 
L 103.343845 236.080942 
L 103.936352 236.023059 
L 104.528859 235.849411 
L 105.111491 236.203139 
L 105.703998 235.907293 
L 106.296505 236.383219 
L 106.889012 235.682194 
L 108.074026 236.698358 
L 109.259041 236.023059 
L 109.851548 236.447533 
L 110.444055 236.447533 
L 111.036562 236.261022 
L 111.629069 236.56973 
L 112.221576 236.447533 
L 112.814083 236.634044 
L 113.999097 236.826987 
L 114.591605 236.698358 
L 115.184112 235.849411 
L 116.369126 236.511847 
L 116.961633 236.762673 
L 117.55414 236.145256 
L 118.146647 236.762673 
L 119.331661 236.826987 
L 119.924168 236.511847 
L 120.516676 236.447533 
L 121.109183 237.431541 
L 121.70169 236.447533 
L 122.294197 236.762673 
L 123.479211 236.826987 
L 124.071718 237.161421 
L 125.256732 237.296481 
L 125.849239 237.225735 
L 126.441747 237.573032 
L 127.034254 237.502286 
L 127.626761 237.862446 
L 129.404282 239.303085 
L 129.996789 239.386693 
L 130.589296 239.753284 
L 131.181803 241.7213 
L 131.77431 241.837065 
L 132.366818 242.58311 
L 132.959325 243.837238 
L 133.551832 244.461086 
L 134.144339 246.692789 
L 134.736846 246.905026 
L 135.329353 247.831151 
L 135.92186 253.580843 
L 136.514367 255.19513 
L 137.106874 277.094125 
L 218.823479 277.094125 
L 219.415986 263.73606 
L 220.008493 254.082494 
L 220.601 249.741284 
L 221.193507 251.825065 
L 221.786014 246.905026 
L 222.971029 243.399901 
L 223.563536 243.251978 
L 224.156043 240.730861 
L 224.74855 240.730861 
L 225.341057 240.525055 
L 225.933564 239.386693 
L 226.526071 239.303085 
L 227.118578 238.389823 
L 229.488607 237.431541 
L 230.081114 237.573032 
L 230.673621 237.573032 
L 231.266128 237.225735 
L 231.858635 237.502286 
L 232.451142 236.955615 
L 233.043649 237.714523 
L 233.636156 237.431541 
L 234.228664 236.634044 
L 235.413678 236.826987 
L 236.598692 236.826987 
L 237.191199 237.161421 
L 237.783706 237.7917 
L 238.376213 237.161421 
L 238.96872 237.026361 
L 239.561228 237.502286 
L 240.153735 236.891301 
L 240.746242 237.502286 
L 241.338749 237.161421 
L 241.931256 237.431541 
L 242.523763 236.826987 
L 243.11627 237.431541 
L 243.708777 236.826987 
L 244.893791 236.826987 
L 245.486299 237.161421 
L 246.078806 236.826987 
L 246.671313 236.955615 
L 247.26382 236.826987 
L 247.856327 237.026361 
L 249.041341 236.511847 
L 249.633848 237.161421 
L 250.226355 237.090675 
L 250.818862 236.698358 
L 251.41137 236.634044 
L 252.003877 236.447533 
L 252.596384 236.826987 
L 253.188891 236.023059 
L 253.781398 235.849411 
L 254.966412 235.849411 
L 255.558919 236.145256 
L 256.151426 235.849411 
L 256.743933 235.849411 
L 257.336441 236.261022 
L 257.928948 236.145256 
L 258.521455 236.698358 
L 259.113962 236.447533 
L 259.706469 236.511847 
L 260.298976 236.762673 
L 260.891483 236.203139 
L 261.48399 236.080942 
L 262.076497 235.791528 
L 262.669004 236.447533 
L 263.261512 236.56973 
L 263.854019 236.325336 
L 264.446526 235.791528 
L 265.039033 236.383219 
L 265.63154 236.447533 
L 266.816554 235.849411 
L 267.409061 236.826987 
L 268.001568 236.447533 
L 268.594076 236.826987 
L 269.186583 236.826987 
L 269.77909 236.447533 
L 270.371597 236.56973 
L 270.964104 235.849411 
L 271.556611 235.907293 
L 272.149118 236.634044 
L 272.741625 235.849411 
L 273.334132 236.447533 
L 273.926639 236.325336 
L 274.519147 235.849411 
L 275.111654 236.447533 
L 275.704161 236.023059 
L 276.296668 236.447533 
L 276.889175 237.090675 
L 278.666696 236.762673 
L 279.259203 236.698358 
L 279.85171 235.849411 
L 280.444218 236.826987 
L 281.036725 236.447533 
L 281.629232 235.849411 
L 282.221739 236.261022 
L 282.814246 236.383219 
L 283.406753 235.849411 
L 283.99926 236.511847 
L 284.591767 236.447533 
L 285.184274 236.634044 
L 285.776781 236.511847 
L 286.369289 236.826987 
L 286.961796 236.762673 
L 287.554303 236.826987 
L 288.14681 235.849411 
L 288.739317 236.383219 
L 289.331824 235.849411 
L 289.924331 236.203139 
L 291.109345 236.145256 
L 291.701853 235.733645 
L 292.29436 236.145256 
L 292.886867 236.145256 
L 293.479374 236.511847 
L 294.071881 236.447533 
L 294.664388 236.56973 
L 295.849402 236.261022 
L 296.441909 235.624311 
L 297.034416 236.383219 
L 298.219431 236.023059 
L 298.811938 235.682194 
L 299.404445 236.023059 
L 299.996952 236.145256 
L 300.589459 236.762673 
L 301.181966 237.090675 
L 301.774473 236.826987 
L 302.36698 237.296481 
L 303.551995 236.955615 
L 304.737009 236.511847 
L 305.922023 237.714523 
L 306.51453 237.933192 
L 307.107037 237.573032 
L 307.699544 238.711394 
L 308.292051 238.627785 
L 308.884558 240.730861 
L 309.477066 241.489768 
L 310.66208 243.251978 
L 311.254587 244.969168 
L 311.847094 244.145946 
L 312.439601 245.322896 
L 314.217122 254.082494 
L 314.809629 277.094125 
L 394.205581 277.094125 
L 394.798088 250.377995 
L 395.390595 253.104918 
L 395.983103 248.86661 
L 396.57561 246.480552 
L 397.168117 247.831151 
L 397.760624 277.094125 
L 400.723159 277.094125 
L 401.315666 248.332802 
L 401.908174 249.149593 
L 402.500681 247.831151 
L 403.093188 252.66115 
L 403.685695 253.104918 
L 404.278202 277.094125 
L 425.80596 277.094125 
L 426.102214 257.986368 
L 426.398467 254.622734 
L 426.694721 254.082494 
L 426.990974 263.73606 
L 427.287228 254.082494 
L 427.583481 277.094125 
L 428.570993 277.094125 
L 428.867247 246.274747 
L 429.064749 246.692789 
L 429.262251 244.969168 
L 429.657256 247.586757 
L 429.854759 277.094125 
L 430.546017 277.094125 
L 430.743519 242.325853 
L 430.941022 242.197225 
L 431.039773 242.711739 
L 431.138524 242.58311 
L 431.336026 277.094125 
L 431.63228 277.094125 
L 431.731031 240.525055 
L 431.829782 240.730861 
L 431.928533 240.029835 
L 431.928533 277.094125 
L 432.027285 277.094125 
L 432.126036 277.094125 
L 432.224787 236.023059 
L 432.224787 236.826987 
" clip-path="url(#pfab9caa20a)" style="fill: none; stroke: #d62728; stroke-width: 1.5; stroke-linecap: square"/>
   </g>
   <g id="line2d_39">
    <path d="M 76.720526 38.578381 
L 268.001568 38.578381 
L 268.594076 84.884624 
L 276.889175 84.884624 
L 277.481682 91.95919 
L 285.184274 91.95919 
L 285.776781 94.531759 
L 293.479374 94.531759 
L 294.071881 97.74747 
L 301.181966 97.74747 
L 301.774473 103.53575 
L 308.884558 103.53575 
L 309.477066 106.751462 
L 316.587151 106.751462 
L 317.179658 112.539742 
L 324.289743 112.539742 
L 324.88225 118.971165 
L 331.399828 118.971165 
L 331.992335 121.543734 
L 338.509914 121.543734 
L 339.102421 125.402588 
L 345.619999 125.402588 
L 346.212506 130.547726 
L 352.730084 130.547726 
L 353.322591 136.336006 
L 359.247662 136.336006 
L 359.840169 140.838002 
L 365.76524 140.838002 
L 366.357747 144.053714 
L 372.282818 144.053714 
L 372.875326 149.198852 
L 378.800397 149.198852 
L 379.392904 153.700848 
L 385.317975 153.700848 
L 385.910482 158.845986 
L 391.835553 158.845986 
L 392.42806 160.775413 
L 398.353131 160.775413 
L 398.945638 169.136262 
L 404.278202 169.136262 
L 404.870709 170.422547 
L 410.104522 170.422547 
L 410.697029 177.497112 
L 415.535837 177.497112 
L 416.029593 180.069681 
L 420.374645 180.069681 
L 420.868401 183.285393 
L 424.423443 183.285393 
L 424.818448 187.144246 
L 427.583481 187.144246 
L 427.879735 189.073673 
L 429.854759 189.073673 
L 430.151012 190.359958 
L 431.237275 190.359958 
L 431.434777 192.932527 
L 432.224787 192.932527 
L 432.224787 192.932527 
L 432.224787 196.79138 
L 432.224787 194.218811 
" clip-path="url(#pfab9caa20a)" style="fill: none; stroke: #9467bd; stroke-width: 1.5; stroke-linecap: square"/>
   </g>
   <g id="patch_3">
    <path d="M 58.945313 304.44375 
L 58.945313 25.918125 
" style="fill: none; stroke: #000000; stroke-width: 0.8; stroke-linejoin: miter; stroke-linecap: square"/>
   </g>
   <g id="patch_4">
    <path d="M 450 304.44375 
L 450 25.918125 
" style="fill: none; stroke: #000000; stroke-width: 0.8; stroke-linejoin: miter; stroke-linecap: square"/>
   </g>
   <g id="patch_5">
    <path d="M 58.945313 304.44375 
L 450 304.44375 
" style="fill: none; stroke: #000000; stroke-width: 0.8; stroke-linejoin: miter; stroke-linecap: square"/>
   </g>
   <g id="patch_6">
    <path d="M 58.945313 25.918125 
L 450 25.918125 
" style="fill: none; stroke: #000000; stroke-width: 0.8; stroke-linejoin: miter; stroke-linecap: square"/>
   </g>
   <g id="text_20">
    <!-- Wall Distance [mm] -->
    <g transform="translate(195.492656 19.918125)scale(0.12 -0.12)">
     <use xlink:href="#DejaVuSans-57"/>
     <use xlink:href="#DejaVuSans-61" x="92.501953"/>
     <use xlink:href="#DejaVuSans-6c" x="153.78125"/>
     <use xlink:href="#DejaVuSans-6c" x="181.564453"/>
     <use xlink:href="#DejaVuSans-20" x="209.347656"/>
     <use xlink:href="#DejaVuSans-44" x="241.134766"/>
     <use xlink:href="#DejaVuSans-69" x="318.136719"/>
     <use xlink:href="#DejaVuSans-73" x="345.919922"/>
     <use xlink:href="#DejaVuSans-74" x="398.019531"/>
     <use xlink:href="#DejaVuSans-61" x="437.228516"/>
     <use xlink:href="#DejaVuSans-6e" x="498.507812"/>
     <use xlink:href="#DejaVuSans-63" x="561.886719"/>
     <use xlink:href="#DejaVuSans-65" x="616.867188"/>
     <use xlink:href="#DejaVuSans-20" x="678.390625"/>
     <use xlink:href="#DejaVuSans-5b" x="710.177734"/>
     <use xlink:href="#DejaVuSans-6d" x="749.191406"/>
     <use xlink:href="#DejaVuSans-6d" x="846.603516"/>
     <use xlink:href="#DejaVuSans-5d" x="944.015625"/>
    </g>
   </g>
   <g id="legend_1">
    <g id="patch_7">
     <path d="M 356.2 107.30875 
L 443 107.30875 
Q 445 107.30875 445 105.30875 
L 445 32.918125 
Q 445 30.918125 443 30.918125 
L 356.2 30.918125 
Q 354.2 30.918125 354.2 32.918125 
L 354.2 105.30875 
Q 354.2 107.30875 356.2 107.30875 
z
" style="fill: #ffffff; opacity: 0.8; stroke: #cccccc; stroke-linejoin: miter"/>
    </g>
    <g id="line2d_40">
     <path d="M 358.2 39.016562 
L 368.2 39.016562 
L 378.2 39.016562 
" style="fill: none; stroke: #1f77b4; stroke-width: 1.5; stroke-linecap: square"/>
    </g>
    <g id="text_21">
     <!-- Left Side -->
     <g transform="translate(386.2 42.516562)scale(0.1 -0.1)">
      <defs>
       <path id="DejaVuSans-4c" d="M 628 4666 
L 1259 4666 
L 1259 531 
L 3531 531 
L 3531 0 
L 628 0 
L 628 4666 
z
" transform="scale(0.015625)"/>
       <path id="DejaVuSans-66" d="M 2375 4863 
L 2375 4384 
L 1825 4384 
Q 1516 4384 1395 4259 
Q 1275 4134 1275 3809 
L 1275 3500 
L 2222 3500 
L 2222 3053 
L 1275 3053 
L 1275 0 
L 697 0 
L 697 3053 
L 147 3053 
L 147 3500 
L 697 3500 
L 697 3744 
Q 697 4328 969 4595 
Q 1241 4863 1831 4863 
L 2375 4863 
z
" transform="scale(0.015625)"/>
       <path id="DejaVuSans-53" d="M 3425 4513 
L 3425 3897 
Q 3066 4069 2747 4153 
Q 2428 4238 2131 4238 
Q 1616 4238 1336 4038 
Q 1056 3838 1056 3469 
Q 1056 3159 1242 3001 
Q 1428 2844 1947 2747 
L 2328 2669 
Q 3034 2534 3370 2195 
Q 3706 1856 3706 1288 
Q 3706 609 3251 259 
Q 2797 -91 1919 -91 
Q 1588 -91 1214 -16 
Q 841 59 441 206 
L 441 856 
Q 825 641 1194 531 
Q 1563 422 1919 422 
Q 2459 422 2753 634 
Q 3047 847 3047 1241 
Q 3047 1584 2836 1778 
Q 2625 1972 2144 2069 
L 1759 2144 
Q 1053 2284 737 2584 
Q 422 2884 422 3419 
Q 422 4038 858 4394 
Q 1294 4750 2059 4750 
Q 2388 4750 2728 4690 
Q 3069 4631 3425 4513 
z
" transform="scale(0.015625)"/>
       <path id="DejaVuSans-64" d="M 2906 2969 
L 2906 4863 
L 3481 4863 
L 3481 0 
L 2906 0 
L 2906 525 
Q 2725 213 2448 61 
Q 2172 -91 1784 -91 
Q 1150 -91 751 415 
Q 353 922 353 1747 
Q 353 2572 751 3078 
Q 1150 3584 1784 3584 
Q 2172 3584 2448 3432 
Q 2725 3281 2906 2969 
z
M 947 1747 
Q 947 1113 1208 752 
Q 1469 391 1925 391 
Q 2381 391 2643 752 
Q 2906 1113 2906 1747 
Q 2906 2381 2643 2742 
Q 2381 3103 1925 3103 
Q 1469 3103 1208 2742 
Q 947 2381 947 1747 
z
" transform="scale(0.015625)"/>
      </defs>
      <use xlink:href="#DejaVuSans-4c"/>
      <use xlink:href="#DejaVuSans-65" x="53.962891"/>
      <use xlink:href="#DejaVuSans-66" x="115.486328"/>
      <use xlink:href="#DejaVuSans-74" x="148.941406"/>
      <use xlink:href="#DejaVuSans-20" x="188.150391"/>
      <use xlink:href="#DejaVuSans-53" x="219.9375"/>
      <use xlink:href="#DejaVuSans-69" x="283.414062"/>
      <use xlink:href="#DejaVuSans-64" x="311.197266"/>
      <use xlink:href="#DejaVuSans-65" x="374.673828"/>
     </g>
    </g>
    <g id="line2d_41">
     <path d="M 358.2 53.694687 
L 368.2 53.694687 
L 378.2 53.694687 
" style="fill: none; stroke: #ff7f0e; stroke-width: 1.5; stroke-linecap: square"/>
    </g>
    <g id="text_22">
     <!-- Left Front -->
     <g transform="translate(386.2 57.194687)scale(0.1 -0.1)">
      <defs>
       <path id="DejaVuSans-46" d="M 628 4666 
L 3309 4666 
L 3309 4134 
L 1259 4134 
L 1259 2759 
L 3109 2759 
L 3109 2228 
L 1259 2228 
L 1259 0 
L 628 0 
L 628 4666 
z
" transform="scale(0.015625)"/>
      </defs>
      <use xlink:href="#DejaVuSans-4c"/>
      <use xlink:href="#DejaVuSans-65" x="53.962891"/>
      <use xlink:href="#DejaVuSans-66" x="115.486328"/>
      <use xlink:href="#DejaVuSans-74" x="148.941406"/>
      <use xlink:href="#DejaVuSans-20" x="188.150391"/>
      <use xlink:href="#DejaVuSans-46" x="219.9375"/>
      <use xlink:href="#DejaVuSans-72" x="270.207031"/>
      <use xlink:href="#DejaVuSans-6f" x="309.070312"/>
      <use xlink:href="#DejaVuSans-6e" x="370.251953"/>
      <use xlink:href="#DejaVuSans-74" x="433.630859"/>
     </g>
    </g>
    <g id="line2d_42">
     <path d="M 358.2 68.372812 
L 368.2 68.372812 
L 378.2 68.372812 
" style="fill: none; stroke: #2ca02c; stroke-width: 1.5; stroke-linecap: square"/>
    </g>
    <g id="text_23">
     <!-- Right Front -->
     <g transform="translate(386.2 71.872812)scale(0.1 -0.1)">
      <defs>
       <path id="DejaVuSans-52" d="M 2841 2188 
Q 3044 2119 3236 1894 
Q 3428 1669 3622 1275 
L 4263 0 
L 3584 0 
L 2988 1197 
Q 2756 1666 2539 1819 
Q 2322 1972 1947 1972 
L 1259 1972 
L 1259 0 
L 628 0 
L 628 4666 
L 2053 4666 
Q 2853 4666 3247 4331 
Q 3641 3997 3641 3322 
Q 3641 2881 3436 2590 
Q 3231 2300 2841 2188 
z
M 1259 4147 
L 1259 2491 
L 2053 2491 
Q 2509 2491 2742 2702 
Q 2975 2913 2975 3322 
Q 2975 3731 2742 3939 
Q 2509 4147 2053 4147 
L 1259 4147 
z
" transform="scale(0.015625)"/>
       <path id="DejaVuSans-67" d="M 2906 1791 
Q 2906 2416 2648 2759 
Q 2391 3103 1925 3103 
Q 1463 3103 1205 2759 
Q 947 2416 947 1791 
Q 947 1169 1205 825 
Q 1463 481 1925 481 
Q 2391 481 2648 825 
Q 2906 1169 2906 1791 
z
M 3481 434 
Q 3481 -459 3084 -895 
Q 2688 -1331 1869 -1331 
Q 1566 -1331 1297 -1286 
Q 1028 -1241 775 -1147 
L 775 -588 
Q 1028 -725 1275 -790 
Q 1522 -856 1778 -856 
Q 2344 -856 2625 -561 
Q 2906 -266 2906 331 
L 2906 616 
Q 2728 306 2450 153 
Q 2172 0 1784 0 
Q 1141 0 747 490 
Q 353 981 353 1791 
Q 353 2603 747 3093 
Q 1141 3584 1784 3584 
Q 2172 3584 2450 3431 
Q 2728 3278 2906 2969 
L 2906 3500 
L 3481 3500 
L 3481 434 
z
" transform="scale(0.015625)"/>
       <path id="DejaVuSans-68" d="M 3513 2113 
L 3513 0 
L 2938 0 
L 2938 2094 
Q 2938 2591 2744 2837 
Q 2550 3084 2163 3084 
Q 1697 3084 1428 2787 
Q 1159 2491 1159 1978 
L 1159 0 
L 581 0 
L 581 4863 
L 1159 4863 
L 1159 2956 
Q 1366 3272 1645 3428 
Q 1925 3584 2291 3584 
Q 2894 3584 3203 3211 
Q 3513 2838 3513 2113 
z
" transform="scale(0.015625)"/>
      </defs>
      <use xlink:href="#DejaVuSans-52"/>
      <use xlink:href="#DejaVuSans-69" x="69.482422"/>
      <use xlink:href="#DejaVuSans-67" x="97.265625"/>
      <use xlink:href="#DejaVuSans-68" x="160.742188"/>
      <use xlink:href="#DejaVuSans-74" x="224.121094"/>
      <use xlink:href="#DejaVuSans-20" x="263.330078"/>
      <use xlink:href="#DejaVuSans-46" x="295.117188"/>
      <use xlink:href="#DejaVuSans-72" x="345.386719"/>
      <use xlink:href="#DejaVuSans-6f" x="384.25"/>
      <use xlink:href="#DejaVuSans-6e" x="445.431641"/>
      <use xlink:href="#DejaVuSans-74" x="508.810547"/>
     </g>
    </g>
    <g id="line2d_43">
     <path d="M 358.2 83.050937 
L 368.2 83.050937 
L 378.2 83.050937 
" style="fill: none; stroke: #d62728; stroke-width: 1.5; stroke-linecap: square"/>
    </g>
    <g id="text_24">
     <!-- Right Side -->
     <g transform="translate(386.2 86.550937)scale(0.1 -0.1)">
      <use xlink:href="#DejaVuSans-52"/>
      <use xlink:href="#DejaVuSans-69" x="69.482422"/>
      <use xlink:href="#DejaVuSans-67" x="97.265625"/>
      <use xlink:href="#DejaVuSans-68" x="160.742188"/>
      <use xlink:href="#DejaVuSans-74" x="224.121094"/>
      <use xlink:href="#DejaVuSans-20" x="263.330078"/>
      <use xlink:href="#DejaVuSans-53" x="295.117188"/>
      <use xlink:href="#DejaVuSans-69" x="358.59375"/>
      <use xlink:href="#DejaVuSans-64" x="386.376953"/>
      <use xlink:href="#DejaVuSans-65" x="449.853516"/>
     </g>
    </g>
    <g id="line2d_44">
     <path d="M 358.2 97.729062 
L 368.2 97.729062 
L 378.2 97.729062 
" style="fill: none; stroke: #9467bd; stroke-width: 1.5; stroke-linecap: square"/>
    </g>
    <g id="text_25">
     <!-- ToF -->
     <g transform="translate(386.2 101.229062)scale(0.1 -0.1)">
      <use xlink:href="#DejaVuSans-54"/>
      <use xlink:href="#DejaVuSans-6f" x="44.083984"/>
      <use xlink:href="#DejaVuSans-46" x="105.265625"/>
     </g>
    </g>
   </g>
  </g>
 </g>
 <defs>
  <clipPath id="pfab9caa20a">
   <rect x="58.945313" y="25.918125" width="391.054687" height="278.525625"/>
  </clipPath>
 </defs>
</svg>
