<?xml version="1.0" encoding="utf-8" standalone="no"?>
<!DOCTYPE svg PUBLIC "-//W3C//DTD SVG 1.1//EN"
  "http://www.w3.org/Graphics/SVG/1.1/DTD/svg11.dtd">
<svg xmlns:xlink="http://www.w3.org/1999/xlink" width="460.8pt" height="345.6pt" viewBox="0 0 460.8 345.6" xmlns="http://www.w3.org/2000/svg" version="1.1">
 <metadata>
  <rdf:RDF xmlns:dc="http://purl.org/dc/elements/1.1/" xmlns:cc="http://creativecommons.org/ns#" xmlns:rdf="http://www.w3.org/1999/02/22-rdf-syntax-ns#">
   <cc:Work>
    <dc:type rdf:resource="http://purl.org/dc/dcmitype/StillImage"/>
    <dc:date>2022-01-15T23:47:02.013540</dc:date>
    <dc:format>image/svg+xml</dc:format>
    <dc:creator>
     <cc:Agent>
      <dc:title>Matplotlib v3.5.1, https://matplotlib.org/</dc:title>
     </cc:Agent>
    </dc:creator>
   </cc:Work>
  </rdf:RDF>
 </metadata>
 <defs>
  <style type="text/css">*{stroke-linejoin: round; stroke-linecap: butt}</style>
 </defs>
 <g id="figure_1">
  <g id="patch_1">
   <path d="M 0 345.6 
L 460.8 345.6 
L 460.8 0 
L 0 0 
z
" style="fill: #ffffff"/>
  </g>
  <g id="axes_1">
   <g id="patch_2">
    <path d="M 56.928125 304.44375 
L 450 304.44375 
L 450 25.918125 
L 56.928125 25.918125 
z
" style="fill: #ffffff"/>
   </g>
   <g id="matplotlib.axis_1">
    <g id="xtick_1">
     <g id="line2d_1">
      <path d="M 74.795028 304.44375 
L 74.795028 25.918125 
" clip-path="url(#pe36e0f37da)" style="fill: none; stroke: #b0b0b0; stroke-width: 0.8; stroke-linecap: square"/>
     </g>
     <g id="line2d_2">
      <defs>
       <path id="m73094a1b1e" d="M 0 0 
L 0 3.5 
" style="stroke: #000000; stroke-width: 0.8"/>
      </defs>
      <g>
       <use xlink:href="#m73094a1b1e" x="74.795028" y="304.44375" style="stroke: #000000; stroke-width: 0.8"/>
      </g>
     </g>
     <g id="text_1">
      <!-- 0 -->
      <g transform="translate(71.613778 319.042187)scale(0.1 -0.1)">
       <defs>
        <path id="DejaVuSans-30" d="M 2034 4250 
Q 1547 4250 1301 3770 
Q 1056 3291 1056 2328 
Q 1056 1369 1301 889 
Q 1547 409 2034 409 
Q 2525 409 2770 889 
Q 3016 1369 3016 2328 
Q 3016 3291 2770 3770 
Q 2525 4250 2034 4250 
z
M 2034 4750 
Q 2819 4750 3233 4129 
Q 3647 3509 3647 2328 
Q 3647 1150 3233 529 
Q 2819 -91 2034 -91 
Q 1250 -91 836 529 
Q 422 1150 422 2328 
Q 422 3509 836 4129 
Q 1250 4750 2034 4750 
z
" transform="scale(0.015625)"/>
       </defs>
       <use xlink:href="#DejaVuSans-30"/>
      </g>
     </g>
    </g>
    <g id="xtick_2">
     <g id="line2d_3">
      <path d="M 124.425316 304.44375 
L 124.425316 25.918125 
" clip-path="url(#pe36e0f37da)" style="fill: none; stroke: #b0b0b0; stroke-width: 0.8; stroke-linecap: square"/>
     </g>
     <g id="line2d_4">
      <g>
       <use xlink:href="#m73094a1b1e" x="124.425316" y="304.44375" style="stroke: #000000; stroke-width: 0.8"/>
      </g>
     </g>
     <g id="text_2">
      <!-- 50 -->
      <g transform="translate(118.062816 319.042187)scale(0.1 -0.1)">
       <defs>
        <path id="DejaVuSans-35" d="M 691 4666 
L 3169 4666 
L 3169 4134 
L 1269 4134 
L 1269 2991 
Q 1406 3038 1543 3061 
Q 1681 3084 1819 3084 
Q 2600 3084 3056 2656 
Q 3513 2228 3513 1497 
Q 3513 744 3044 326 
Q 2575 -91 1722 -91 
Q 1428 -91 1123 -41 
Q 819 9 494 109 
L 494 744 
Q 775 591 1075 516 
Q 1375 441 1709 441 
Q 2250 441 2565 725 
Q 2881 1009 2881 1497 
Q 2881 1984 2565 2268 
Q 2250 2553 1709 2553 
Q 1456 2553 1204 2497 
Q 953 2441 691 2322 
L 691 4666 
z
" transform="scale(0.015625)"/>
       </defs>
       <use xlink:href="#DejaVuSans-35"/>
       <use xlink:href="#DejaVuSans-30" x="63.623047"/>
      </g>
     </g>
    </g>
    <g id="xtick_3">
     <g id="line2d_5">
      <path d="M 174.055603 304.44375 
L 174.055603 25.918125 
" clip-path="url(#pe36e0f37da)" style="fill: none; stroke: #b0b0b0; stroke-width: 0.8; stroke-linecap: square"/>
     </g>
     <g id="line2d_6">
      <g>
       <use xlink:href="#m73094a1b1e" x="174.055603" y="304.44375" style="stroke: #000000; stroke-width: 0.8"/>
      </g>
     </g>
     <g id="text_3">
      <!-- 100 -->
      <g transform="translate(164.511853 319.042187)scale(0.1 -0.1)">
       <defs>
        <path id="DejaVuSans-31" d="M 794 531 
L 1825 531 
L 1825 4091 
L 703 3866 
L 703 4441 
L 1819 4666 
L 2450 4666 
L 2450 531 
L 3481 531 
L 3481 0 
L 794 0 
L 794 531 
z
" transform="scale(0.015625)"/>
       </defs>
       <use xlink:href="#DejaVuSans-31"/>
       <use xlink:href="#DejaVuSans-30" x="63.623047"/>
       <use xlink:href="#DejaVuSans-30" x="127.246094"/>
      </g>
     </g>
    </g>
    <g id="xtick_4">
     <g id="line2d_7">
      <path d="M 223.68589 304.44375 
L 223.68589 25.918125 
" clip-path="url(#pe36e0f37da)" style="fill: none; stroke: #b0b0b0; stroke-width: 0.8; stroke-linecap: square"/>
     </g>
     <g id="line2d_8">
      <g>
       <use xlink:href="#m73094a1b1e" x="223.68589" y="304.44375" style="stroke: #000000; stroke-width: 0.8"/>
      </g>
     </g>
     <g id="text_4">
      <!-- 150 -->
      <g transform="translate(214.14214 319.042187)scale(0.1 -0.1)">
       <use xlink:href="#DejaVuSans-31"/>
       <use xlink:href="#DejaVuSans-35" x="63.623047"/>
       <use xlink:href="#DejaVuSans-30" x="127.246094"/>
      </g>
     </g>
    </g>
    <g id="xtick_5">
     <g id="line2d_9">
      <path d="M 273.316177 304.44375 
L 273.316177 25.918125 
" clip-path="url(#pe36e0f37da)" style="fill: none; stroke: #b0b0b0; stroke-width: 0.8; stroke-linecap: square"/>
     </g>
     <g id="line2d_10">
      <g>
       <use xlink:href="#m73094a1b1e" x="273.316177" y="304.44375" style="stroke: #000000; stroke-width: 0.8"/>
      </g>
     </g>
     <g id="text_5">
      <!-- 200 -->
      <g transform="translate(263.772427 319.042187)scale(0.1 -0.1)">
       <defs>
        <path id="DejaVuSans-32" d="M 1228 531 
L 3431 531 
L 3431 0 
L 469 0 
L 469 531 
Q 828 903 1448 1529 
Q 2069 2156 2228 2338 
Q 2531 2678 2651 2914 
Q 2772 3150 2772 3378 
Q 2772 3750 2511 3984 
Q 2250 4219 1831 4219 
Q 1534 4219 1204 4116 
Q 875 4013 500 3803 
L 500 4441 
Q 881 4594 1212 4672 
Q 1544 4750 1819 4750 
Q 2544 4750 2975 4387 
Q 3406 4025 3406 3419 
Q 3406 3131 3298 2873 
Q 3191 2616 2906 2266 
Q 2828 2175 2409 1742 
Q 1991 1309 1228 531 
z
" transform="scale(0.015625)"/>
       </defs>
       <use xlink:href="#DejaVuSans-32"/>
       <use xlink:href="#DejaVuSans-30" x="63.623047"/>
       <use xlink:href="#DejaVuSans-30" x="127.246094"/>
      </g>
     </g>
    </g>
    <g id="xtick_6">
     <g id="line2d_11">
      <path d="M 322.946465 304.44375 
L 322.946465 25.918125 
" clip-path="url(#pe36e0f37da)" style="fill: none; stroke: #b0b0b0; stroke-width: 0.8; stroke-linecap: square"/>
     </g>
     <g id="line2d_12">
      <g>
       <use xlink:href="#m73094a1b1e" x="322.946465" y="304.44375" style="stroke: #000000; stroke-width: 0.8"/>
      </g>
     </g>
     <g id="text_6">
      <!-- 250 -->
      <g transform="translate(313.402715 319.042187)scale(0.1 -0.1)">
       <use xlink:href="#DejaVuSans-32"/>
       <use xlink:href="#DejaVuSans-35" x="63.623047"/>
       <use xlink:href="#DejaVuSans-30" x="127.246094"/>
      </g>
     </g>
    </g>
    <g id="xtick_7">
     <g id="line2d_13">
      <path d="M 372.576752 304.44375 
L 372.576752 25.918125 
" clip-path="url(#pe36e0f37da)" style="fill: none; stroke: #b0b0b0; stroke-width: 0.8; stroke-linecap: square"/>
     </g>
     <g id="line2d_14">
      <g>
       <use xlink:href="#m73094a1b1e" x="372.576752" y="304.44375" style="stroke: #000000; stroke-width: 0.8"/>
      </g>
     </g>
     <g id="text_7">
      <!-- 300 -->
      <g transform="translate(363.033002 319.042187)scale(0.1 -0.1)">
       <defs>
        <path id="DejaVuSans-33" d="M 2597 2516 
Q 3050 2419 3304 2112 
Q 3559 1806 3559 1356 
Q 3559 666 3084 287 
Q 2609 -91 1734 -91 
Q 1441 -91 1130 -33 
Q 819 25 488 141 
L 488 750 
Q 750 597 1062 519 
Q 1375 441 1716 441 
Q 2309 441 2620 675 
Q 2931 909 2931 1356 
Q 2931 1769 2642 2001 
Q 2353 2234 1838 2234 
L 1294 2234 
L 1294 2753 
L 1863 2753 
Q 2328 2753 2575 2939 
Q 2822 3125 2822 3475 
Q 2822 3834 2567 4026 
Q 2313 4219 1838 4219 
Q 1578 4219 1281 4162 
Q 984 4106 628 3988 
L 628 4550 
Q 988 4650 1302 4700 
Q 1616 4750 1894 4750 
Q 2613 4750 3031 4423 
Q 3450 4097 3450 3541 
Q 3450 3153 3228 2886 
Q 3006 2619 2597 2516 
z
" transform="scale(0.015625)"/>
       </defs>
       <use xlink:href="#DejaVuSans-33"/>
       <use xlink:href="#DejaVuSans-30" x="63.623047"/>
       <use xlink:href="#DejaVuSans-30" x="127.246094"/>
      </g>
     </g>
    </g>
    <g id="xtick_8">
     <g id="line2d_15">
      <path d="M 422.207039 304.44375 
L 422.207039 25.918125 
" clip-path="url(#pe36e0f37da)" style="fill: none; stroke: #b0b0b0; stroke-width: 0.8; stroke-linecap: square"/>
     </g>
     <g id="line2d_16">
      <g>
       <use xlink:href="#m73094a1b1e" x="422.207039" y="304.44375" style="stroke: #000000; stroke-width: 0.8"/>
      </g>
     </g>
     <g id="text_8">
      <!-- 350 -->
      <g transform="translate(412.663289 319.042187)scale(0.1 -0.1)">
       <use xlink:href="#DejaVuSans-33"/>
       <use xlink:href="#DejaVuSans-35" x="63.623047"/>
       <use xlink:href="#DejaVuSans-30" x="127.246094"/>
      </g>
     </g>
    </g>
    <g id="text_9">
     <!-- Translational Position [mm] -->
     <g transform="translate(185.486719 332.720312)scale(0.1 -0.1)">
      <defs>
       <path id="DejaVuSans-54" d="M -19 4666 
L 3928 4666 
L 3928 4134 
L 2272 4134 
L 2272 0 
L 1638 0 
L 1638 4134 
L -19 4134 
L -19 4666 
z
" transform="scale(0.015625)"/>
       <path id="DejaVuSans-72" d="M 2631 2963 
Q 2534 3019 2420 3045 
Q 2306 3072 2169 3072 
Q 1681 3072 1420 2755 
Q 1159 2438 1159 1844 
L 1159 0 
L 581 0 
L 581 3500 
L 1159 3500 
L 1159 2956 
Q 1341 3275 1631 3429 
Q 1922 3584 2338 3584 
Q 2397 3584 2469 3576 
Q 2541 3569 2628 3553 
L 2631 2963 
z
" transform="scale(0.015625)"/>
       <path id="DejaVuSans-61" d="M 2194 1759 
Q 1497 1759 1228 1600 
Q 959 1441 959 1056 
Q 959 750 1161 570 
Q 1363 391 1709 391 
Q 2188 391 2477 730 
Q 2766 1069 2766 1631 
L 2766 1759 
L 2194 1759 
z
M 3341 1997 
L 3341 0 
L 2766 0 
L 2766 531 
Q 2569 213 2275 61 
Q 1981 -91 1556 -91 
Q 1019 -91 701 211 
Q 384 513 384 1019 
Q 384 1609 779 1909 
Q 1175 2209 1959 2209 
L 2766 2209 
L 2766 2266 
Q 2766 2663 2505 2880 
Q 2244 3097 1772 3097 
Q 1472 3097 1187 3025 
Q 903 2953 641 2809 
L 641 3341 
Q 956 3463 1253 3523 
Q 1550 3584 1831 3584 
Q 2591 3584 2966 3190 
Q 3341 2797 3341 1997 
z
" transform="scale(0.015625)"/>
       <path id="DejaVuSans-6e" d="M 3513 2113 
L 3513 0 
L 2938 0 
L 2938 2094 
Q 2938 2591 2744 2837 
Q 2550 3084 2163 3084 
Q 1697 3084 1428 2787 
Q 1159 2491 1159 1978 
L 1159 0 
L 581 0 
L 581 3500 
L 1159 3500 
L 1159 2956 
Q 1366 3272 1645 3428 
Q 1925 3584 2291 3584 
Q 2894 3584 3203 3211 
Q 3513 2838 3513 2113 
z
" transform="scale(0.015625)"/>
       <path id="DejaVuSans-73" d="M 2834 3397 
L 2834 2853 
Q 2591 2978 2328 3040 
Q 2066 3103 1784 3103 
Q 1356 3103 1142 2972 
Q 928 2841 928 2578 
Q 928 2378 1081 2264 
Q 1234 2150 1697 2047 
L 1894 2003 
Q 2506 1872 2764 1633 
Q 3022 1394 3022 966 
Q 3022 478 2636 193 
Q 2250 -91 1575 -91 
Q 1294 -91 989 -36 
Q 684 19 347 128 
L 347 722 
Q 666 556 975 473 
Q 1284 391 1588 391 
Q 1994 391 2212 530 
Q 2431 669 2431 922 
Q 2431 1156 2273 1281 
Q 2116 1406 1581 1522 
L 1381 1569 
Q 847 1681 609 1914 
Q 372 2147 372 2553 
Q 372 3047 722 3315 
Q 1072 3584 1716 3584 
Q 2034 3584 2315 3537 
Q 2597 3491 2834 3397 
z
" transform="scale(0.015625)"/>
       <path id="DejaVuSans-6c" d="M 603 4863 
L 1178 4863 
L 1178 0 
L 603 0 
L 603 4863 
z
" transform="scale(0.015625)"/>
       <path id="DejaVuSans-74" d="M 1172 4494 
L 1172 3500 
L 2356 3500 
L 2356 3053 
L 1172 3053 
L 1172 1153 
Q 1172 725 1289 603 
Q 1406 481 1766 481 
L 2356 481 
L 2356 0 
L 1766 0 
Q 1100 0 847 248 
Q 594 497 594 1153 
L 594 3053 
L 172 3053 
L 172 3500 
L 594 3500 
L 594 4494 
L 1172 4494 
z
" transform="scale(0.015625)"/>
       <path id="DejaVuSans-69" d="M 603 3500 
L 1178 3500 
L 1178 0 
L 603 0 
L 603 3500 
z
M 603 4863 
L 1178 4863 
L 1178 4134 
L 603 4134 
L 603 4863 
z
" transform="scale(0.015625)"/>
       <path id="DejaVuSans-6f" d="M 1959 3097 
Q 1497 3097 1228 2736 
Q 959 2375 959 1747 
Q 959 1119 1226 758 
Q 1494 397 1959 397 
Q 2419 397 2687 759 
Q 2956 1122 2956 1747 
Q 2956 2369 2687 2733 
Q 2419 3097 1959 3097 
z
M 1959 3584 
Q 2709 3584 3137 3096 
Q 3566 2609 3566 1747 
Q 3566 888 3137 398 
Q 2709 -91 1959 -91 
Q 1206 -91 779 398 
Q 353 888 353 1747 
Q 353 2609 779 3096 
Q 1206 3584 1959 3584 
z
" transform="scale(0.015625)"/>
       <path id="DejaVuSans-20" transform="scale(0.015625)"/>
       <path id="DejaVuSans-50" d="M 1259 4147 
L 1259 2394 
L 2053 2394 
Q 2494 2394 2734 2622 
Q 2975 2850 2975 3272 
Q 2975 3691 2734 3919 
Q 2494 4147 2053 4147 
L 1259 4147 
z
M 628 4666 
L 2053 4666 
Q 2838 4666 3239 4311 
Q 3641 3956 3641 3272 
Q 3641 2581 3239 2228 
Q 2838 1875 2053 1875 
L 1259 1875 
L 1259 0 
L 628 0 
L 628 4666 
z
" transform="scale(0.015625)"/>
       <path id="DejaVuSans-5b" d="M 550 4863 
L 1875 4863 
L 1875 4416 
L 1125 4416 
L 1125 -397 
L 1875 -397 
L 1875 -844 
L 550 -844 
L 550 4863 
z
" transform="scale(0.015625)"/>
       <path id="DejaVuSans-6d" d="M 3328 2828 
Q 3544 3216 3844 3400 
Q 4144 3584 4550 3584 
Q 5097 3584 5394 3201 
Q 5691 2819 5691 2113 
L 5691 0 
L 5113 0 
L 5113 2094 
Q 5113 2597 4934 2840 
Q 4756 3084 4391 3084 
Q 3944 3084 3684 2787 
Q 3425 2491 3425 1978 
L 3425 0 
L 2847 0 
L 2847 2094 
Q 2847 2600 2669 2842 
Q 2491 3084 2119 3084 
Q 1678 3084 1418 2786 
Q 1159 2488 1159 1978 
L 1159 0 
L 581 0 
L 581 3500 
L 1159 3500 
L 1159 2956 
Q 1356 3278 1631 3431 
Q 1906 3584 2284 3584 
Q 2666 3584 2933 3390 
Q 3200 3197 3328 2828 
z
" transform="scale(0.015625)"/>
       <path id="DejaVuSans-5d" d="M 1947 4863 
L 1947 -844 
L 622 -844 
L 622 -397 
L 1369 -397 
L 1369 4416 
L 622 4416 
L 622 4863 
L 1947 4863 
z
" transform="scale(0.015625)"/>
      </defs>
      <use xlink:href="#DejaVuSans-54"/>
      <use xlink:href="#DejaVuSans-72" x="46.333984"/>
      <use xlink:href="#DejaVuSans-61" x="87.447266"/>
      <use xlink:href="#DejaVuSans-6e" x="148.726562"/>
      <use xlink:href="#DejaVuSans-73" x="212.105469"/>
      <use xlink:href="#DejaVuSans-6c" x="264.205078"/>
      <use xlink:href="#DejaVuSans-61" x="291.988281"/>
      <use xlink:href="#DejaVuSans-74" x="353.267578"/>
      <use xlink:href="#DejaVuSans-69" x="392.476562"/>
      <use xlink:href="#DejaVuSans-6f" x="420.259766"/>
      <use xlink:href="#DejaVuSans-6e" x="481.441406"/>
      <use xlink:href="#DejaVuSans-61" x="544.820312"/>
      <use xlink:href="#DejaVuSans-6c" x="606.099609"/>
      <use xlink:href="#DejaVuSans-20" x="633.882812"/>
      <use xlink:href="#DejaVuSans-50" x="665.669922"/>
      <use xlink:href="#DejaVuSans-6f" x="722.347656"/>
      <use xlink:href="#DejaVuSans-73" x="783.529297"/>
      <use xlink:href="#DejaVuSans-69" x="835.628906"/>
      <use xlink:href="#DejaVuSans-74" x="863.412109"/>
      <use xlink:href="#DejaVuSans-69" x="902.621094"/>
      <use xlink:href="#DejaVuSans-6f" x="930.404297"/>
      <use xlink:href="#DejaVuSans-6e" x="991.585938"/>
      <use xlink:href="#DejaVuSans-20" x="1054.964844"/>
      <use xlink:href="#DejaVuSans-5b" x="1086.751953"/>
      <use xlink:href="#DejaVuSans-6d" x="1125.765625"/>
      <use xlink:href="#DejaVuSans-6d" x="1223.177734"/>
      <use xlink:href="#DejaVuSans-5d" x="1320.589844"/>
     </g>
    </g>
   </g>
   <g id="matplotlib.axis_2">
    <g id="ytick_1">
     <g id="line2d_17">
      <path d="M 56.928125 291.866895 
L 450 291.866895 
" clip-path="url(#pe36e0f37da)" style="fill: none; stroke: #b0b0b0; stroke-width: 0.8; stroke-linecap: square"/>
     </g>
     <g id="line2d_18">
      <defs>
       <path id="m7ef14c2da5" d="M 0 0 
L -3.5 0 
" style="stroke: #000000; stroke-width: 0.8"/>
      </defs>
      <g>
       <use xlink:href="#m7ef14c2da5" x="56.928125" y="291.866895" style="stroke: #000000; stroke-width: 0.8"/>
      </g>
     </g>
     <g id="text_10">
      <!-- 0 -->
      <g transform="translate(43.565625 295.666114)scale(0.1 -0.1)">
       <use xlink:href="#DejaVuSans-30"/>
      </g>
     </g>
    </g>
    <g id="ytick_2">
     <g id="line2d_19">
      <path d="M 56.928125 250.166448 
L 450 250.166448 
" clip-path="url(#pe36e0f37da)" style="fill: none; stroke: #b0b0b0; stroke-width: 0.8; stroke-linecap: square"/>
     </g>
     <g id="line2d_20">
      <g>
       <use xlink:href="#m7ef14c2da5" x="56.928125" y="250.166448" style="stroke: #000000; stroke-width: 0.8"/>
      </g>
     </g>
     <g id="text_11">
      <!-- 500 -->
      <g transform="translate(30.840625 253.965667)scale(0.1 -0.1)">
       <use xlink:href="#DejaVuSans-35"/>
       <use xlink:href="#DejaVuSans-30" x="63.623047"/>
       <use xlink:href="#DejaVuSans-30" x="127.246094"/>
      </g>
     </g>
    </g>
    <g id="ytick_3">
     <g id="line2d_21">
      <path d="M 56.928125 208.466001 
L 450 208.466001 
" clip-path="url(#pe36e0f37da)" style="fill: none; stroke: #b0b0b0; stroke-width: 0.8; stroke-linecap: square"/>
     </g>
     <g id="line2d_22">
      <g>
       <use xlink:href="#m7ef14c2da5" x="56.928125" y="208.466001" style="stroke: #000000; stroke-width: 0.8"/>
      </g>
     </g>
     <g id="text_12">
      <!-- 1000 -->
      <g transform="translate(24.478125 212.26522)scale(0.1 -0.1)">
       <use xlink:href="#DejaVuSans-31"/>
       <use xlink:href="#DejaVuSans-30" x="63.623047"/>
       <use xlink:href="#DejaVuSans-30" x="127.246094"/>
       <use xlink:href="#DejaVuSans-30" x="190.869141"/>
      </g>
     </g>
    </g>
    <g id="ytick_4">
     <g id="line2d_23">
      <path d="M 56.928125 166.765554 
L 450 166.765554 
" clip-path="url(#pe36e0f37da)" style="fill: none; stroke: #b0b0b0; stroke-width: 0.8; stroke-linecap: square"/>
     </g>
     <g id="line2d_24">
      <g>
       <use xlink:href="#m7ef14c2da5" x="56.928125" y="166.765554" style="stroke: #000000; stroke-width: 0.8"/>
      </g>
     </g>
     <g id="text_13">
      <!-- 1500 -->
      <g transform="translate(24.478125 170.564773)scale(0.1 -0.1)">
       <use xlink:href="#DejaVuSans-31"/>
       <use xlink:href="#DejaVuSans-35" x="63.623047"/>
       <use xlink:href="#DejaVuSans-30" x="127.246094"/>
       <use xlink:href="#DejaVuSans-30" x="190.869141"/>
      </g>
     </g>
    </g>
    <g id="ytick_5">
     <g id="line2d_25">
      <path d="M 56.928125 125.065108 
L 450 125.065108 
" clip-path="url(#pe36e0f37da)" style="fill: none; stroke: #b0b0b0; stroke-width: 0.8; stroke-linecap: square"/>
     </g>
     <g id="line2d_26">
      <g>
       <use xlink:href="#m7ef14c2da5" x="56.928125" y="125.065108" style="stroke: #000000; stroke-width: 0.8"/>
      </g>
     </g>
     <g id="text_14">
      <!-- 2000 -->
      <g transform="translate(24.478125 128.864326)scale(0.1 -0.1)">
       <use xlink:href="#DejaVuSans-32"/>
       <use xlink:href="#DejaVuSans-30" x="63.623047"/>
       <use xlink:href="#DejaVuSans-30" x="127.246094"/>
       <use xlink:href="#DejaVuSans-30" x="190.869141"/>
      </g>
     </g>
    </g>
    <g id="ytick_6">
     <g id="line2d_27">
      <path d="M 56.928125 83.364661 
L 450 83.364661 
" clip-path="url(#pe36e0f37da)" style="fill: none; stroke: #b0b0b0; stroke-width: 0.8; stroke-linecap: square"/>
     </g>
     <g id="line2d_28">
      <g>
       <use xlink:href="#m7ef14c2da5" x="56.928125" y="83.364661" style="stroke: #000000; stroke-width: 0.8"/>
      </g>
     </g>
     <g id="text_15">
      <!-- 2500 -->
      <g transform="translate(24.478125 87.163879)scale(0.1 -0.1)">
       <use xlink:href="#DejaVuSans-32"/>
       <use xlink:href="#DejaVuSans-35" x="63.623047"/>
       <use xlink:href="#DejaVuSans-30" x="127.246094"/>
       <use xlink:href="#DejaVuSans-30" x="190.869141"/>
      </g>
     </g>
    </g>
    <g id="ytick_7">
     <g id="line2d_29">
      <path d="M 56.928125 41.664214 
L 450 41.664214 
" clip-path="url(#pe36e0f37da)" style="fill: none; stroke: #b0b0b0; stroke-width: 0.8; stroke-linecap: square"/>
     </g>
     <g id="line2d_30">
      <g>
       <use xlink:href="#m7ef14c2da5" x="56.928125" y="41.664214" style="stroke: #000000; stroke-width: 0.8"/>
      </g>
     </g>
     <g id="text_16">
      <!-- 3000 -->
      <g transform="translate(24.478125 45.463433)scale(0.1 -0.1)">
       <use xlink:href="#DejaVuSans-33"/>
       <use xlink:href="#DejaVuSans-30" x="63.623047"/>
       <use xlink:href="#DejaVuSans-30" x="127.246094"/>
       <use xlink:href="#DejaVuSans-30" x="190.869141"/>
      </g>
     </g>
    </g>
    <g id="text_17">
     <!-- Reflector Raw Value -->
     <g transform="translate(18.398438 214.980937)rotate(-90)scale(0.1 -0.1)">
      <defs>
       <path id="DejaVuSans-52" d="M 2841 2188 
Q 3044 2119 3236 1894 
Q 3428 1669 3622 1275 
L 4263 0 
L 3584 0 
L 2988 1197 
Q 2756 1666 2539 1819 
Q 2322 1972 1947 1972 
L 1259 1972 
L 1259 0 
L 628 0 
L 628 4666 
L 2053 4666 
Q 2853 4666 3247 4331 
Q 3641 3997 3641 3322 
Q 3641 2881 3436 2590 
Q 3231 2300 2841 2188 
z
M 1259 4147 
L 1259 2491 
L 2053 2491 
Q 2509 2491 2742 2702 
Q 2975 2913 2975 3322 
Q 2975 3731 2742 3939 
Q 2509 4147 2053 4147 
L 1259 4147 
z
" transform="scale(0.015625)"/>
       <path id="DejaVuSans-65" d="M 3597 1894 
L 3597 1613 
L 953 1613 
Q 991 1019 1311 708 
Q 1631 397 2203 397 
Q 2534 397 2845 478 
Q 3156 559 3463 722 
L 3463 178 
Q 3153 47 2828 -22 
Q 2503 -91 2169 -91 
Q 1331 -91 842 396 
Q 353 884 353 1716 
Q 353 2575 817 3079 
Q 1281 3584 2069 3584 
Q 2775 3584 3186 3129 
Q 3597 2675 3597 1894 
z
M 3022 2063 
Q 3016 2534 2758 2815 
Q 2500 3097 2075 3097 
Q 1594 3097 1305 2825 
Q 1016 2553 972 2059 
L 3022 2063 
z
" transform="scale(0.015625)"/>
       <path id="DejaVuSans-66" d="M 2375 4863 
L 2375 4384 
L 1825 4384 
Q 1516 4384 1395 4259 
Q 1275 4134 1275 3809 
L 1275 3500 
L 2222 3500 
L 2222 3053 
L 1275 3053 
L 1275 0 
L 697 0 
L 697 3053 
L 147 3053 
L 147 3500 
L 697 3500 
L 697 3744 
Q 697 4328 969 4595 
Q 1241 4863 1831 4863 
L 2375 4863 
z
" transform="scale(0.015625)"/>
       <path id="DejaVuSans-63" d="M 3122 3366 
L 3122 2828 
Q 2878 2963 2633 3030 
Q 2388 3097 2138 3097 
Q 1578 3097 1268 2742 
Q 959 2388 959 1747 
Q 959 1106 1268 751 
Q 1578 397 2138 397 
Q 2388 397 2633 464 
Q 2878 531 3122 666 
L 3122 134 
Q 2881 22 2623 -34 
Q 2366 -91 2075 -91 
Q 1284 -91 818 406 
Q 353 903 353 1747 
Q 353 2603 823 3093 
Q 1294 3584 2113 3584 
Q 2378 3584 2631 3529 
Q 2884 3475 3122 3366 
z
" transform="scale(0.015625)"/>
       <path id="DejaVuSans-77" d="M 269 3500 
L 844 3500 
L 1563 769 
L 2278 3500 
L 2956 3500 
L 3675 769 
L 4391 3500 
L 4966 3500 
L 4050 0 
L 3372 0 
L 2619 2869 
L 1863 0 
L 1184 0 
L 269 3500 
z
" transform="scale(0.015625)"/>
       <path id="DejaVuSans-56" d="M 1831 0 
L 50 4666 
L 709 4666 
L 2188 738 
L 3669 4666 
L 4325 4666 
L 2547 0 
L 1831 0 
z
" transform="scale(0.015625)"/>
       <path id="DejaVuSans-75" d="M 544 1381 
L 544 3500 
L 1119 3500 
L 1119 1403 
Q 1119 906 1312 657 
Q 1506 409 1894 409 
Q 2359 409 2629 706 
Q 2900 1003 2900 1516 
L 2900 3500 
L 3475 3500 
L 3475 0 
L 2900 0 
L 2900 538 
Q 2691 219 2414 64 
Q 2138 -91 1772 -91 
Q 1169 -91 856 284 
Q 544 659 544 1381 
z
M 1991 3584 
L 1991 3584 
z
" transform="scale(0.015625)"/>
      </defs>
      <use xlink:href="#DejaVuSans-52"/>
      <use xlink:href="#DejaVuSans-65" x="64.982422"/>
      <use xlink:href="#DejaVuSans-66" x="126.505859"/>
      <use xlink:href="#DejaVuSans-6c" x="161.710938"/>
      <use xlink:href="#DejaVuSans-65" x="189.494141"/>
      <use xlink:href="#DejaVuSans-63" x="251.017578"/>
      <use xlink:href="#DejaVuSans-74" x="305.998047"/>
      <use xlink:href="#DejaVuSans-6f" x="345.207031"/>
      <use xlink:href="#DejaVuSans-72" x="406.388672"/>
      <use xlink:href="#DejaVuSans-20" x="447.501953"/>
      <use xlink:href="#DejaVuSans-52" x="479.289062"/>
      <use xlink:href="#DejaVuSans-61" x="546.521484"/>
      <use xlink:href="#DejaVuSans-77" x="607.800781"/>
      <use xlink:href="#DejaVuSans-20" x="689.587891"/>
      <use xlink:href="#DejaVuSans-56" x="721.375"/>
      <use xlink:href="#DejaVuSans-61" x="782.033203"/>
      <use xlink:href="#DejaVuSans-6c" x="843.3125"/>
      <use xlink:href="#DejaVuSans-75" x="871.095703"/>
      <use xlink:href="#DejaVuSans-65" x="934.474609"/>
     </g>
    </g>
   </g>
   <g id="line2d_31">
    <path d="M 74.795028 227.815009 
L 74.808647 227.564806 
L 74.795346 229.649828 
L 74.904017 227.815009 
L 74.92903 227.981811 
L 74.990075 227.89841 
L 75.067399 227.648207 
L 75.217779 229.900031 
L 75.27813 229.066022 
L 75.415407 230.233635 
L 75.576507 227.89841 
L 75.763415 227.981811 
L 75.867043 228.315414 
L 76.096335 228.232013 
L 76.355405 228.482216 
L 76.647231 229.566428 
L 76.806048 229.149423 
L 76.973798 229.399626 
L 77.150482 229.900031 
L 77.335107 229.232824 
L 77.529657 230.066833 
L 79.680634 232.56886 
L 79.964519 232.56886 
L 81.188402 234.904085 
L 81.853448 234.48708 
L 82.199867 234.48708 
L 82.55522 233.903274 
L 82.918514 234.070076 
L 83.291734 233.903274 
L 83.673887 234.236878 
L 84.064973 233.402869 
L 84.869977 233.48627 
L 85.286871 233.236067 
L 87.976833 233.236067 
L 88.453283 232.652261 
L 88.93966 232.985864 
L 89.426037 232.985864 
L 90.428569 232.235256 
L 90.944724 232.902463 
L 91.977034 230.73404 
L 92.513041 231.317846 
L 93.049048 230.900842 
L 94.130988 231.65145 
L 94.676921 231.818252 
L 95.232781 231.818252 
L 95.78864 231.65145 
L 96.354425 231.317846 
L 96.92021 234.653882 
L 97.485996 230.066833 
L 98.637418 229.232824 
L 99.223056 229.316225 
L 99.798767 228.982621 
L 100.384405 227.89841 
L 100.970042 228.649018 
L 101.555679 227.89841 
L 102.151243 228.649018 
L 103.928007 227.564806 
L 105.119134 227.815009 
L 105.714697 227.815009 
L 106.310261 227.648207 
L 106.905824 227.064401 
L 107.501388 227.314603 
L 108.096951 227.064401 
L 108.692515 227.648207 
L 109.288078 226.981 
L 110.479205 226.981 
L 111.074768 226.647396 
L 111.670332 226.814198 
L 112.265895 226.563995 
L 112.861459 227.815009 
L 113.457022 228.232013 
L 114.052586 227.731608 
L 114.648149 229.149423 
L 115.243713 226.647396 
L 115.839276 226.480594 
L 116.434839 226.647396 
L 117.030403 226.647396 
L 117.625966 226.480594 
L 118.22153 226.647396 
L 118.817093 226.981 
L 120.603784 227.481405 
L 121.199347 227.398004 
L 121.79491 227.815009 
L 122.390474 228.982621 
L 122.986037 228.065211 
L 123.581601 228.815819 
L 124.177164 228.398815 
L 124.772728 228.982621 
L 125.368291 229.149423 
L 125.963855 229.149423 
L 127.154981 229.566428 
L 127.750545 229.316225 
L 128.346108 229.900031 
L 128.941672 231.484648 
L 130.132799 231.234445 
L 130.728362 232.902463 
L 131.323926 230.900842 
L 131.919489 230.400436 
L 132.515052 230.817441 
L 133.110616 231.484648 
L 133.706179 231.901653 
L 134.301743 233.069265 
L 134.897306 233.653071 
L 135.49287 234.570481 
L 136.683997 237.906517 
L 137.27956 239.324332 
L 137.875124 241.325954 
L 139.06625 246.58021 
L 140.257377 253.669286 
L 142.044068 264.261199 
L 144.426321 281.358383 
L 146.213012 290.532481 
L 146.808575 291.783494 
L 218.226559 291.783494 
L 218.822122 290.282278 
L 219.417685 288.030454 
L 220.013249 286.946242 
L 220.608812 285.194824 
L 222.395503 277.35514 
L 222.991066 274.352708 
L 224.182193 267.013429 
L 224.777756 263.844195 
L 225.968883 256.83852 
L 226.564447 253.16888 
L 227.16001 250.33325 
L 228.351137 244.078183 
L 229.542264 238.990729 
L 230.733391 235.654693 
L 231.328954 234.904085 
L 231.924518 234.48708 
L 232.520081 233.56967 
L 233.115645 234.48708 
L 233.711208 231.568049 
L 234.306772 230.567238 
L 234.902335 230.984243 
L 235.497899 230.650639 
L 236.093462 230.650639 
L 236.689025 231.317846 
L 237.284589 230.984243 
L 237.880152 231.568049 
L 238.475716 231.067644 
L 239.071279 231.484648 
L 239.666843 230.984243 
L 240.262406 231.234445 
L 240.85797 230.984243 
L 241.453533 232.735661 
L 242.049096 233.56967 
L 242.64466 233.152666 
L 243.240223 233.319468 
L 243.835787 236.238499 
L 244.43135 231.818252 
L 245.622477 231.985053 
L 246.218041 231.901653 
L 246.813604 232.402058 
L 247.409167 231.818252 
L 248.004731 232.318657 
L 248.600294 231.901653 
L 249.195858 232.151855 
L 249.791421 231.985053 
L 250.386985 231.985053 
L 250.982548 232.652261 
L 251.578112 233.56967 
L 252.173675 233.402869 
L 252.769238 233.56967 
L 253.364802 233.319468 
L 253.960365 234.48708 
L 254.555929 231.818252 
L 255.151492 231.734851 
L 255.747056 231.818252 
L 256.342619 231.734851 
L 256.938183 231.818252 
L 257.533746 231.65145 
L 258.12931 231.818252 
L 260.511563 231.818252 
L 261.107127 233.069265 
L 261.70269 236.071697 
L 262.298254 233.402869 
L 262.893817 233.319468 
L 263.489381 232.068454 
L 264.084944 231.65145 
L 265.276071 231.067644 
L 265.871634 231.65145 
L 266.467198 231.568049 
L 267.062761 230.73404 
L 267.658325 231.234445 
L 268.253888 231.234445 
L 268.849452 231.568049 
L 269.445015 231.234445 
L 270.040578 233.319468 
L 270.636142 233.236067 
L 271.231705 232.819062 
L 271.827269 233.069265 
L 272.422832 235.738094 
L 273.018396 231.067644 
L 273.613959 231.151045 
L 274.209523 231.65145 
L 275.400649 231.234445 
L 275.996213 231.568049 
L 276.591776 231.317846 
L 277.18734 231.818252 
L 277.782903 231.65145 
L 278.378467 232.652261 
L 278.97403 233.152666 
L 279.569594 233.819873 
L 280.165157 233.319468 
L 280.76072 233.56967 
L 281.356284 233.986675 
L 281.951847 231.818252 
L 282.547411 232.235256 
L 283.142974 232.068454 
L 283.738538 232.318657 
L 284.334101 231.818252 
L 284.929665 232.318657 
L 285.525228 232.235256 
L 286.120792 232.652261 
L 286.716355 232.56886 
L 287.311918 234.570481 
L 287.907482 235.237688 
L 288.503045 234.570481 
L 289.098609 236.738904 
L 289.694172 234.236878 
L 290.289736 232.819062 
L 290.885299 232.735661 
L 291.480863 232.402058 
L 292.076426 232.402058 
L 292.671989 232.235256 
L 293.267553 232.652261 
L 293.863116 232.402058 
L 294.45868 232.652261 
L 295.054243 233.236067 
L 295.649807 234.48708 
L 296.24537 235.237688 
L 296.840934 234.153477 
L 297.436497 234.320278 
L 298.03206 233.236067 
L 298.627624 231.818252 
L 299.223187 232.318657 
L 299.818751 231.901653 
L 301.605441 232.235256 
L 302.201005 231.818252 
L 302.796568 231.818252 
L 303.392131 233.986675 
L 303.987695 234.48708 
L 304.583258 234.320278 
L 305.178822 235.154287 
L 305.774385 233.319468 
L 306.369949 231.985053 
L 306.965512 231.985053 
L 307.561076 232.402058 
L 308.156639 232.652261 
L 308.752202 232.735661 
L 309.943329 233.653071 
L 311.134456 237.23931 
L 311.73002 238.073319 
L 312.325583 239.657936 
L 312.921147 240.658746 
L 313.51671 242.076562 
L 314.112274 242.243363 
L 314.707837 243.911381 
L 315.898964 248.665232 
L 317.685654 258.506538 
L 319.472345 272.68469 
L 320.067908 275.853924 
L 320.663471 279.857167 
L 321.259035 282.776198 
L 321.854598 284.444216 
L 322.450162 287.780251 
L 323.045725 290.032076 
L 323.641289 291.783494 
L 383.197633 291.783494 
L 384.984324 290.532481 
L 385.579887 290.365679 
L 386.175451 291.783494 
L 389.153268 291.783494 
L 389.748831 285.945432 
L 390.344395 285.194824 
L 391.535522 282.943 
L 392.131085 282.442594 
L 392.726649 287.947053 
L 393.322212 287.863652 
L 393.917775 286.112234 
L 395.108902 284.360815 
L 395.704466 275.019915 
L 396.300029 273.185095 
L 397.491156 270.516266 
L 398.08672 268.598046 
L 398.682283 275.603721 
L 399.87341 272.434487 
L 401.064537 270.933271 
L 401.6601 260.758362 
L 402.255664 260.007754 
L 402.851227 259.67415 
L 404.042354 260.007754 
L 404.637917 270.432866 
L 405.829044 273.268496 
L 406.424608 275.019915 
L 407.020171 278.35595 
L 407.615735 270.015861 
L 408.806862 275.853924 
L 409.898728 281.191581 
L 410.494291 291.783494 
L 412.678024 291.783494 
L 413.273587 289.698472 
L 414.365454 291.36649 
L 414.861757 291.36649 
L 415.35806 291.700093 
L 416.449926 291.783494 
L 417.938834 291.783494 
L 418.435137 290.949485 
L 418.83218 290.615882 
L 419.328482 290.532481 
L 419.824785 290.615882 
L 420.221828 290.115476 
L 420.718131 291.783494 
L 422.40556 291.783494 
L 422.802603 289.281468 
L 423.199645 287.780251 
L 423.596687 287.446648 
L 423.993729 287.696851 
L 424.291511 287.696851 
L 424.688554 291.783494 
L 425.978941 291.783494 
L 426.276723 285.945432 
L 426.574504 285.361625 
L 426.872286 285.361625 
L 427.170068 284.444216 
L 427.46785 285.862031 
L 427.765631 291.783494 
L 428.758237 291.783494 
L 428.956758 286.69604 
L 429.155279 284.777819 
L 429.353801 284.611017 
L 429.552322 282.943 
L 429.750843 285.445026 
L 430.048625 291.783494 
L 430.544927 291.783494 
L 430.644188 285.945432 
L 431.04123 281.691986 
L 431.140491 284.86122 
L 431.339012 291.783494 
L 431.537533 291.783494 
L 431.537533 291.783494 
L 431.736054 282.692797 
L 431.736054 283.193202 
L 431.835315 281.191581 
L 431.934575 291.783494 
L 431.934575 291.783494 
L 432.033836 291.783494 
L 432.033836 291.783494 
L 432.133097 275.853924 
L 432.133097 278.606153 
" clip-path="url(#pe36e0f37da)" style="fill: none; stroke: #1f77b4; stroke-width: 1.5; stroke-linecap: square"/>
   </g>
   <g id="line2d_32">
    <path d="M 74.795028 291.783494 
L 356.992842 291.783494 
L 357.588405 290.782684 
L 358.183969 291.032886 
L 358.779532 290.44908 
L 359.970659 290.532481 
L 360.566222 291.783494 
L 363.54404 291.783494 
L 364.139603 288.697661 
L 364.735167 288.530859 
L 365.33073 289.031265 
L 365.926293 287.947053 
L 366.521857 287.863652 
L 367.11742 291.783494 
L 369.499674 291.783494 
L 370.095238 289.698472 
L 370.690801 286.112234 
L 371.286364 286.362436 
L 371.881928 286.028833 
L 372.477491 286.362436 
L 373.073055 285.194824 
L 373.668618 291.783494 
L 376.050872 291.783494 
L 376.646435 286.946242 
L 377.241999 283.360004 
L 377.837562 282.609396 
L 379.624253 282.442594 
L 380.219816 291.783494 
L 382.60207 291.783494 
L 383.197633 282.525995 
L 383.793197 279.857167 
L 384.38876 279.690365 
L 384.984324 278.689554 
L 385.579887 278.35595 
L 386.175451 287.780251 
L 386.771014 291.616693 
L 387.366577 291.449891 
L 387.962141 290.615882 
L 388.557704 290.282278 
L 389.153268 290.365679 
L 389.748831 278.439351 
L 390.344395 275.019915 
L 390.939958 274.519509 
L 391.535522 274.269307 
L 392.131085 273.018293 
L 392.726649 285.945432 
L 393.322212 287.61345 
L 393.917775 287.029643 
L 395.108902 286.362436 
L 395.704466 272.351086 
L 396.300029 269.181852 
L 396.895593 268.347843 
L 397.491156 268.264442 
L 398.08672 266.930028 
L 398.682283 282.359193 
L 399.277846 282.609396 
L 399.87341 282.525995 
L 400.468973 281.691986 
L 401.064537 281.191581 
L 401.6601 265.428812 
L 402.255664 261.759173 
L 402.851227 260.674961 
L 403.446791 260.674961 
L 404.042354 261.175366 
L 404.637917 276.938135 
L 405.233481 277.188338 
L 405.829044 276.104126 
L 406.424608 275.687122 
L 407.020171 274.60291 
L 407.615735 257.338925 
L 408.211298 253.919489 
L 409.303164 251.584263 
L 409.898728 249.499241 
L 410.494291 269.181852 
L 411.089855 268.764848 
L 411.586158 267.930839 
L 412.678024 265.679015 
L 413.273587 243.911381 
L 413.76989 243.661179 
L 415.35806 239.824737 
L 415.854362 259.257146 
L 416.449926 257.922731 
L 417.442532 254.753497 
L 417.938834 254.08629 
L 418.435137 229.483027 
L 418.83218 231.901653 
L 419.328482 228.315414 
L 419.824785 226.981 
L 420.221828 224.729176 
L 420.718131 244.244985 
L 421.115173 242.660368 
L 421.611476 241.325954 
L 422.008518 239.657936 
L 422.40556 238.740526 
L 422.802603 211.218231 
L 423.199645 213.97046 
L 423.596687 209.883817 
L 423.993729 208.215799 
L 424.291511 206.380979 
L 424.688554 228.732419 
L 424.986335 224.312171 
L 425.681159 220.892735 
L 425.978941 218.474109 
L 426.276723 189.283796 
L 426.574504 192.369629 
L 426.872286 189.033593 
L 427.170068 186.948571 
L 427.46785 183.028729 
L 427.765631 203.211745 
L 428.460455 194.871656 
L 428.758237 191.869224 
L 428.956758 162.678911 
L 429.155279 163.012514 
L 429.750843 150.752583 
L 429.949364 171.93641 
L 430.247146 164.930735 
L 430.445667 162.011704 
L 430.544927 157.257853 
L 430.644188 128.484544 
L 430.842709 129.568756 
L 431.140491 119.310446 
L 431.239751 138.409251 
L 431.537533 126.399522 
L 431.636794 101.546056 
L 431.736054 106.466708 
L 431.736054 103.380875 
L 431.835315 102.630267 
L 431.835315 99.294231 
L 431.934575 110.38655 
L 431.934575 106.800312 
L 432.033836 101.379254 
L 432.133097 43.665835 
L 432.133097 65.767072 
" clip-path="url(#pe36e0f37da)" style="fill: none; stroke: #ff7f0e; stroke-width: 1.5; stroke-linecap: square"/>
   </g>
   <g id="line2d_33">
    <path d="M 74.795028 291.783494 
L 376.050872 291.783494 
L 376.646435 289.615071 
L 377.241999 289.031265 
L 377.837562 288.280657 
L 378.433126 287.863652 
L 379.028689 287.863652 
L 379.624253 291.783494 
L 382.60207 291.783494 
L 383.197633 285.111423 
L 384.38876 284.444216 
L 384.984324 283.693608 
L 385.579887 283.443405 
L 386.175451 291.783494 
L 389.153268 291.783494 
L 389.748831 279.606964 
L 390.344395 279.27336 
L 390.939958 278.772955 
L 391.535522 279.106558 
L 392.131085 277.438541 
L 392.726649 290.615882 
L 393.322212 290.365679 
L 393.917775 289.53167 
L 394.513339 289.114666 
L 395.108902 288.947864 
L 395.704466 274.269307 
L 396.300029 273.6855 
L 396.895593 272.68469 
L 397.491156 273.101694 
L 398.08672 271.850681 
L 398.682283 285.695229 
L 399.277846 285.194824 
L 399.87341 283.94381 
L 401.064537 283.0264 
L 401.6601 268.264442 
L 402.255664 266.513023 
L 402.851227 265.595614 
L 403.446791 265.178609 
L 404.042354 264.261199 
L 404.637917 278.606153 
L 405.829044 277.104937 
L 406.424608 276.687933 
L 407.020171 275.853924 
L 407.615735 257.505727 
L 408.211298 256.338114 
L 408.806862 255.587506 
L 409.303164 253.752687 
L 409.898728 252.668475 
L 410.494291 269.432055 
L 411.089855 268.681447 
L 411.586158 267.430433 
L 412.181721 266.429623 
L 412.678024 265.011807 
L 413.273587 245.245796 
L 413.76989 242.910571 
L 414.365454 241.242553 
L 414.861757 240.241742 
L 415.35806 247.330818 
L 415.854362 257.005322 
L 416.449926 255.837709 
L 416.946229 254.503295 
L 417.938834 251.25066 
L 418.435137 228.982621 
L 418.83218 229.316225 
L 419.824785 224.562374 
L 420.221828 238.15672 
L 420.718131 240.575346 
L 421.611476 236.822305 
L 422.008518 234.653882 
L 422.40556 233.48627 
L 422.802603 210.384222 
L 423.199645 208.549402 
L 423.596687 205.630371 
L 423.993729 203.962353 
L 424.291511 217.306496 
L 424.688554 218.55751 
L 424.986335 217.139694 
L 425.978941 209.550213 
L 426.276723 186.364765 
L 426.574504 182.778526 
L 426.872286 181.444112 
L 427.170068 179.192288 
L 427.46785 192.870034 
L 427.765631 191.869224 
L 428.758237 179.609292 
L 428.956758 154.922628 
L 429.353801 149.58497 
L 429.552322 146.248935 
L 429.750843 158.592267 
L 429.949364 158.342064 
L 430.247146 150.418979 
L 430.544927 145.83193 
L 430.644188 119.393847 
L 431.04123 109.802744 
L 431.140491 121.56227 
L 431.339012 117.225424 
L 431.537533 107.217316 
L 431.736054 90.370336 
L 431.736054 90.370336 
L 431.835315 88.368714 
L 431.835315 97.793015 
L 431.934575 90.537138 
L 432.033836 87.701507 
L 432.033836 87.701507 
L 432.133097 38.578381 
L 432.133097 55.34196 
" clip-path="url(#pe36e0f37da)" style="fill: none; stroke: #2ca02c; stroke-width: 1.5; stroke-linecap: square"/>
   </g>
   <g id="line2d_34">
    <path d="M 74.795028 249.582642 
L 74.795346 247.998025 
L 74.863637 250.500052 
L 74.904017 250.083047 
L 75.067399 248.832034 
L 75.112662 250.500052 
L 75.16269 248.49843 
L 75.217779 248.665232 
L 75.343939 250.33325 
L 75.49283 248.248228 
L 75.666636 251.000457 
L 75.867043 247.831223 
L 76.096335 250.500052 
L 76.221403 247.581021 
L 76.355405 248.331629 
L 76.497347 247.831223 
L 76.647231 247.747822 
L 76.806048 247.330818 
L 76.973798 247.831223 
L 77.150482 247.831223 
L 77.335107 247.247417 
L 77.529657 247.831223 
L 77.733141 246.997214 
L 77.945559 247.080615 
L 78.165918 246.413408 
L 78.396202 248.164827 
L 78.63542 247.080615 
L 78.883571 246.997214 
L 79.139664 245.162395 
L 79.405682 245.913003 
L 79.680634 245.162395 
L 79.964519 246.413408 
L 80.256345 244.995593 
L 80.558097 245.162395 
L 80.868783 245.6628 
L 81.188402 245.746201 
L 81.853448 243.911381 
L 82.199867 244.495188 
L 82.55522 244.328386 
L 82.918514 244.328386 
L 83.291734 244.078183 
L 83.673887 245.162395 
L 84.064973 243.82798 
L 84.464001 245.162395 
L 84.869977 244.995593 
L 85.286871 244.411787 
L 86.150438 244.74539 
L 86.597111 244.661989 
L 87.053709 244.328386 
L 87.510308 244.912192 
L 87.976833 245.162395 
L 88.453283 245.245796 
L 88.93966 244.828791 
L 89.426037 245.078994 
L 89.92234 245.746201 
L 90.428569 245.162395 
L 90.944724 245.579399 
L 91.460879 246.663611 
L 91.977034 246.413408 
L 92.513041 244.328386 
L 93.049048 246.246606 
L 93.585055 246.58021 
L 94.130988 247.414219 
L 94.676921 247.414219 
L 95.232781 246.913813 
L 95.78864 247.831223 
L 96.354425 247.831223 
L 96.92021 247.581021 
L 98.637418 247.831223 
L 99.223056 248.081426 
L 99.798767 249.249038 
L 100.384405 249.249038 
L 100.970042 248.581831 
L 101.555679 249.582642 
L 102.151243 249.332439 
L 102.746806 249.666043 
L 103.332444 248.665232 
L 103.928007 249.582642 
L 104.52357 248.915435 
L 105.119134 250.500052 
L 105.714697 250.750255 
L 106.310261 250.083047 
L 107.501388 249.249038 
L 108.096951 249.666043 
L 108.692515 249.666043 
L 109.288078 250.500052 
L 109.883641 250.416651 
L 110.479205 250.083047 
L 111.074768 249.916246 
L 111.670332 250.750255 
L 112.265895 249.999647 
L 113.457022 249.999647 
L 114.052586 250.249849 
L 114.648149 251.25066 
L 115.243713 249.999647 
L 115.839276 250.33325 
L 116.434839 249.749444 
L 117.030403 249.332439 
L 117.625966 251.834466 
L 118.22153 248.665232 
L 118.817093 249.332439 
L 119.412657 247.998025 
L 120.00822 248.164827 
L 120.603784 248.49843 
L 121.199347 247.998025 
L 121.79491 248.248228 
L 122.390474 247.998025 
L 122.986037 248.164827 
L 123.581601 247.414219 
L 124.177164 248.41503 
L 124.772728 248.665232 
L 125.368291 247.414219 
L 125.963855 247.831223 
L 126.559418 247.581021 
L 127.154981 248.331629 
L 127.750545 246.997214 
L 128.346108 247.831223 
L 128.941672 247.747822 
L 129.537235 247.330818 
L 130.132799 247.831223 
L 130.728362 247.831223 
L 131.919489 248.331629 
L 132.515052 247.831223 
L 133.110616 249.582642 
L 133.706179 248.331629 
L 134.301743 248.665232 
L 134.897306 249.666043 
L 135.49287 250.083047 
L 136.088433 251.000457 
L 136.683997 251.667664 
L 137.27956 252.585074 
L 139.06625 256.588317 
L 140.257377 261.091965 
L 142.639631 270.182663 
L 143.235195 272.768091 
L 145.021885 282.609396 
L 145.617448 285.111423 
L 146.213012 289.031265 
L 147.404139 291.783494 
L 221.799939 291.783494 
L 222.395503 291.032886 
L 223.58663 287.61345 
L 224.182193 285.111423 
L 224.777756 283.276603 
L 225.968883 278.105748 
L 227.16001 273.351897 
L 228.351137 268.264442 
L 228.946701 266.513023 
L 230.733391 259.590749 
L 231.328954 258.423137 
L 231.924518 258.589939 
L 232.520081 255.837709 
L 233.711208 254.920299 
L 234.306772 254.169691 
L 234.902335 252.501673 
L 235.497899 252.334872 
L 236.093462 252.751876 
L 236.689025 252.585074 
L 237.284589 252.751876 
L 237.880152 252.084669 
L 238.475716 252.334872 
L 239.071279 252.16807 
L 239.666843 252.251471 
L 240.262406 252.835277 
L 240.85797 251.334061 
L 241.453533 251.917867 
L 242.64466 251.917867 
L 243.240223 255.253903 
L 243.835787 251.751065 
L 244.43135 251.25066 
L 245.026914 252.418272 
L 245.622477 250.500052 
L 246.218041 250.500052 
L 246.813604 250.917056 
L 247.409167 250.500052 
L 248.004731 250.583453 
L 248.600294 249.666043 
L 249.195858 250.083047 
L 249.791421 250.249849 
L 250.982548 251.917867 
L 251.578112 251.000457 
L 252.173675 250.33325 
L 252.769238 251.500863 
L 253.364802 250.500052 
L 253.960365 250.583453 
L 254.555929 250.249849 
L 255.747056 249.999647 
L 256.342619 250.750255 
L 256.938183 250.166448 
L 258.12931 250.249849 
L 258.724873 250.249849 
L 259.320436 249.582642 
L 259.916 250.917056 
L 260.511563 249.582642 
L 261.70269 251.584263 
L 262.298254 250.500052 
L 262.893817 250.583453 
L 263.489381 250.917056 
L 264.084944 249.666043 
L 264.680507 250.500052 
L 265.276071 251.834466 
L 265.871634 249.749444 
L 267.062761 249.832845 
L 267.658325 249.999647 
L 268.253888 250.583453 
L 268.849452 251.417462 
L 269.445015 249.666043 
L 270.040578 250.750255 
L 270.636142 250.249849 
L 271.231705 250.500052 
L 272.422832 250.500052 
L 273.018396 250.249849 
L 273.613959 249.582642 
L 274.209523 250.583453 
L 274.805086 250.583453 
L 275.400649 250.083047 
L 275.996213 248.832034 
L 276.591776 249.332439 
L 277.18734 252.084669 
L 277.782903 249.332439 
L 278.378467 249.916246 
L 278.97403 249.916246 
L 279.569594 250.083047 
L 280.165157 250.083047 
L 280.76072 249.41584 
L 281.356284 249.332439 
L 281.951847 249.499241 
L 282.547411 248.581831 
L 283.142974 250.500052 
L 283.738538 248.331629 
L 284.334101 248.41503 
L 284.929665 247.914624 
L 286.716355 247.664421 
L 287.311918 249.332439 
L 287.907482 249.666043 
L 288.503045 248.49843 
L 289.098609 248.248228 
L 289.694172 251.667664 
L 290.289736 247.664421 
L 290.885299 247.747822 
L 291.480863 247.581021 
L 292.076426 247.831223 
L 292.671989 247.247417 
L 293.267553 247.414219 
L 293.863116 247.831223 
L 294.45868 247.664421 
L 295.054243 248.331629 
L 295.649807 249.332439 
L 296.24537 248.41503 
L 296.840934 249.666043 
L 297.436497 249.41584 
L 298.03206 248.665232 
L 298.627624 247.581021 
L 299.223187 247.831223 
L 299.818751 248.748633 
L 300.414314 248.748633 
L 301.009878 249.332439 
L 301.605441 247.581021 
L 302.201005 247.831223 
L 302.796568 247.747822 
L 303.392131 250.083047 
L 304.583258 250.500052 
L 305.178822 249.249038 
L 305.774385 250.500052 
L 306.369949 248.665232 
L 307.561076 248.248228 
L 308.156639 249.999647 
L 308.752202 248.248228 
L 309.347766 249.999647 
L 309.943329 249.582642 
L 311.134456 251.417462 
L 311.73002 250.666854 
L 312.325583 251.25066 
L 312.921147 251.000457 
L 313.51671 252.16807 
L 314.112274 250.500052 
L 314.707837 250.750255 
L 316.494527 253.585885 
L 317.090091 255.253903 
L 317.685654 257.255524 
L 318.876781 261.675772 
L 320.663471 267.930839 
L 321.259035 271.350275 
L 321.854598 271.683879 
L 322.450162 273.768901 
L 323.045725 276.354329 
L 324.236852 282.525995 
L 325.427979 287.780251 
L 326.023542 291.783494 
L 389.748831 291.783494 
L 390.939958 290.866084 
L 391.535522 290.532481 
L 392.131085 289.948675 
L 392.726649 291.783494 
L 395.108902 291.783494 
L 395.704466 285.695229 
L 396.300029 284.944621 
L 396.895593 283.693608 
L 397.491156 283.360004 
L 398.08672 282.275792 
L 398.682283 287.61345 
L 399.277846 287.279846 
L 399.87341 285.361625 
L 401.064537 282.692797 
L 401.6601 274.352708 
L 402.255664 273.101694 
L 403.446791 269.181852 
L 404.042354 267.847438 
L 404.637917 274.519509 
L 405.233481 273.602099 
L 405.829044 273.101694 
L 406.424608 271.850681 
L 407.020171 272.100883 
L 407.615735 262.593181 
L 408.211298 263.34379 
L 408.806862 263.010186 
L 409.898728 266.012618 
L 410.494291 276.020725 
L 411.586158 280.524374 
L 412.678024 286.529238 
L 413.273587 280.607775 
L 413.76989 282.108991 
L 414.365454 285.111423 
L 414.861757 286.112234 
L 415.35806 287.780251 
L 415.854362 291.783494 
L 417.938834 291.783494 
L 418.435137 291.116287 
L 418.83218 291.36649 
L 419.328482 291.449891 
L 419.824785 290.866084 
L 420.221828 291.116287 
L 420.718131 291.783494 
L 422.40556 291.783494 
L 423.199645 289.448269 
L 423.596687 290.44908 
L 423.993729 288.947864 
L 424.291511 288.697661 
L 424.688554 291.783494 
L 425.978941 291.783494 
L 426.276723 286.946242 
L 426.574504 286.946242 
L 426.872286 287.696851 
L 427.170068 286.612639 
L 427.46785 286.195634 
L 427.765631 291.783494 
L 428.758237 291.783494 
L 428.956758 285.77863 
L 429.155279 285.611828 
L 429.353801 285.194824 
L 429.552322 286.362436 
L 429.750843 285.194824 
L 430.048625 291.783494 
L 430.544927 291.783494 
L 430.644188 285.111423 
L 430.842709 285.361625 
L 430.94197 285.695229 
L 431.140491 285.278225 
L 431.339012 291.783494 
L 431.537533 291.783494 
L 431.537533 291.783494 
L 431.636794 284.360815 
L 431.736054 284.444216 
L 431.736054 285.945432 
L 431.835315 284.944621 
L 432.033836 291.783494 
L 432.033836 291.783494 
L 432.133097 282.275792 
L 432.133097 284.360815 
" clip-path="url(#pe36e0f37da)" style="fill: none; stroke: #d62728; stroke-width: 1.5; stroke-linecap: square"/>
   </g>
   <g id="patch_3">
    <path d="M 56.928125 304.44375 
L 56.928125 25.918125 
" style="fill: none; stroke: #000000; stroke-width: 0.8; stroke-linejoin: miter; stroke-linecap: square"/>
   </g>
   <g id="patch_4">
    <path d="M 450 304.44375 
L 450 25.918125 
" style="fill: none; stroke: #000000; stroke-width: 0.8; stroke-linejoin: miter; stroke-linecap: square"/>
   </g>
   <g id="patch_5">
    <path d="M 56.928125 304.44375 
L 450 304.44375 
" style="fill: none; stroke: #000000; stroke-width: 0.8; stroke-linejoin: miter; stroke-linecap: square"/>
   </g>
   <g id="patch_6">
    <path d="M 56.928125 25.918125 
L 450 25.918125 
" style="fill: none; stroke: #000000; stroke-width: 0.8; stroke-linejoin: miter; stroke-linecap: square"/>
   </g>
   <g id="text_18">
    <!-- Reflector Raw Value -->
    <g transform="translate(193.704062 19.918125)scale(0.12 -0.12)">
     <use xlink:href="#DejaVuSans-52"/>
     <use xlink:href="#DejaVuSans-65" x="64.982422"/>
     <use xlink:href="#DejaVuSans-66" x="126.505859"/>
     <use xlink:href="#DejaVuSans-6c" x="161.710938"/>
     <use xlink:href="#DejaVuSans-65" x="189.494141"/>
     <use xlink:href="#DejaVuSans-63" x="251.017578"/>
     <use xlink:href="#DejaVuSans-74" x="305.998047"/>
     <use xlink:href="#DejaVuSans-6f" x="345.207031"/>
     <use xlink:href="#DejaVuSans-72" x="406.388672"/>
     <use xlink:href="#DejaVuSans-20" x="447.501953"/>
     <use xlink:href="#DejaVuSans-52" x="479.289062"/>
     <use xlink:href="#DejaVuSans-61" x="546.521484"/>
     <use xlink:href="#DejaVuSans-77" x="607.800781"/>
     <use xlink:href="#DejaVuSans-20" x="689.587891"/>
     <use xlink:href="#DejaVuSans-56" x="721.375"/>
     <use xlink:href="#DejaVuSans-61" x="782.033203"/>
     <use xlink:href="#DejaVuSans-6c" x="843.3125"/>
     <use xlink:href="#DejaVuSans-75" x="871.095703"/>
     <use xlink:href="#DejaVuSans-65" x="934.474609"/>
    </g>
   </g>
   <g id="legend_1">
    <g id="patch_7">
     <path d="M 63.928125 92.630625 
L 150.728125 92.630625 
Q 152.728125 92.630625 152.728125 90.630625 
L 152.728125 32.918125 
Q 152.728125 30.918125 150.728125 30.918125 
L 63.928125 30.918125 
Q 61.928125 30.918125 61.928125 32.918125 
L 61.928125 90.630625 
Q 61.928125 92.630625 63.928125 92.630625 
z
" style="fill: #ffffff; opacity: 0.8; stroke: #cccccc; stroke-linejoin: miter"/>
    </g>
    <g id="line2d_35">
     <path d="M 65.928125 39.016562 
L 75.928125 39.016562 
L 85.928125 39.016562 
" style="fill: none; stroke: #1f77b4; stroke-width: 1.5; stroke-linecap: square"/>
    </g>
    <g id="text_19">
     <!-- Left Side -->
     <g transform="translate(93.928125 42.516562)scale(0.1 -0.1)">
      <defs>
       <path id="DejaVuSans-4c" d="M 628 4666 
L 1259 4666 
L 1259 531 
L 3531 531 
L 3531 0 
L 628 0 
L 628 4666 
z
" transform="scale(0.015625)"/>
       <path id="DejaVuSans-53" d="M 3425 4513 
L 3425 3897 
Q 3066 4069 2747 4153 
Q 2428 4238 2131 4238 
Q 1616 4238 1336 4038 
Q 1056 3838 1056 3469 
Q 1056 3159 1242 3001 
Q 1428 2844 1947 2747 
L 2328 2669 
Q 3034 2534 3370 2195 
Q 3706 1856 3706 1288 
Q 3706 609 3251 259 
Q 2797 -91 1919 -91 
Q 1588 -91 1214 -16 
Q 841 59 441 206 
L 441 856 
Q 825 641 1194 531 
Q 1563 422 1919 422 
Q 2459 422 2753 634 
Q 3047 847 3047 1241 
Q 3047 1584 2836 1778 
Q 2625 1972 2144 2069 
L 1759 2144 
Q 1053 2284 737 2584 
Q 422 2884 422 3419 
Q 422 4038 858 4394 
Q 1294 4750 2059 4750 
Q 2388 4750 2728 4690 
Q 3069 4631 3425 4513 
z
" transform="scale(0.015625)"/>
       <path id="DejaVuSans-64" d="M 2906 2969 
L 2906 4863 
L 3481 4863 
L 3481 0 
L 2906 0 
L 2906 525 
Q 2725 213 2448 61 
Q 2172 -91 1784 -91 
Q 1150 -91 751 415 
Q 353 922 353 1747 
Q 353 2572 751 3078 
Q 1150 3584 1784 3584 
Q 2172 3584 2448 3432 
Q 2725 3281 2906 2969 
z
M 947 1747 
Q 947 1113 1208 752 
Q 1469 391 1925 391 
Q 2381 391 2643 752 
Q 2906 1113 2906 1747 
Q 2906 2381 2643 2742 
Q 2381 3103 1925 3103 
Q 1469 3103 1208 2742 
Q 947 2381 947 1747 
z
" transform="scale(0.015625)"/>
      </defs>
      <use xlink:href="#DejaVuSans-4c"/>
      <use xlink:href="#DejaVuSans-65" x="53.962891"/>
      <use xlink:href="#DejaVuSans-66" x="115.486328"/>
      <use xlink:href="#DejaVuSans-74" x="148.941406"/>
      <use xlink:href="#DejaVuSans-20" x="188.150391"/>
      <use xlink:href="#DejaVuSans-53" x="219.9375"/>
      <use xlink:href="#DejaVuSans-69" x="283.414062"/>
      <use xlink:href="#DejaVuSans-64" x="311.197266"/>
      <use xlink:href="#DejaVuSans-65" x="374.673828"/>
     </g>
    </g>
    <g id="line2d_36">
     <path d="M 65.928125 53.694687 
L 75.928125 53.694687 
L 85.928125 53.694687 
" style="fill: none; stroke: #ff7f0e; stroke-width: 1.5; stroke-linecap: square"/>
    </g>
    <g id="text_20">
     <!-- Left Front -->
     <g transform="translate(93.928125 57.194687)scale(0.1 -0.1)">
      <defs>
       <path id="DejaVuSans-46" d="M 628 4666 
L 3309 4666 
L 3309 4134 
L 1259 4134 
L 1259 2759 
L 3109 2759 
L 3109 2228 
L 1259 2228 
L 1259 0 
L 628 0 
L 628 4666 
z
" transform="scale(0.015625)"/>
      </defs>
      <use xlink:href="#DejaVuSans-4c"/>
      <use xlink:href="#DejaVuSans-65" x="53.962891"/>
      <use xlink:href="#DejaVuSans-66" x="115.486328"/>
      <use xlink:href="#DejaVuSans-74" x="148.941406"/>
      <use xlink:href="#DejaVuSans-20" x="188.150391"/>
      <use xlink:href="#DejaVuSans-46" x="219.9375"/>
      <use xlink:href="#DejaVuSans-72" x="270.207031"/>
      <use xlink:href="#DejaVuSans-6f" x="309.070312"/>
      <use xlink:href="#DejaVuSans-6e" x="370.251953"/>
      <use xlink:href="#DejaVuSans-74" x="433.630859"/>
     </g>
    </g>
    <g id="line2d_37">
     <path d="M 65.928125 68.372812 
L 75.928125 68.372812 
L 85.928125 68.372812 
" style="fill: none; stroke: #2ca02c; stroke-width: 1.5; stroke-linecap: square"/>
    </g>
    <g id="text_21">
     <!-- Right Front -->
     <g transform="translate(93.928125 71.872812)scale(0.1 -0.1)">
      <defs>
       <path id="DejaVuSans-67" d="M 2906 1791 
Q 2906 2416 2648 2759 
Q 2391 3103 1925 3103 
Q 1463 3103 1205 2759 
Q 947 2416 947 1791 
Q 947 1169 1205 825 
Q 1463 481 1925 481 
Q 2391 481 2648 825 
Q 2906 1169 2906 1791 
z
M 3481 434 
Q 3481 -459 3084 -895 
Q 2688 -1331 1869 -1331 
Q 1566 -1331 1297 -1286 
Q 1028 -1241 775 -1147 
L 775 -588 
Q 1028 -725 1275 -790 
Q 1522 -856 1778 -856 
Q 2344 -856 2625 -561 
Q 2906 -266 2906 331 
L 2906 616 
Q 2728 306 2450 153 
Q 2172 0 1784 0 
Q 1141 0 747 490 
Q 353 981 353 1791 
Q 353 2603 747 3093 
Q 1141 3584 1784 3584 
Q 2172 3584 2450 3431 
Q 2728 3278 2906 2969 
L 2906 3500 
L 3481 3500 
L 3481 434 
z
" transform="scale(0.015625)"/>
       <path id="DejaVuSans-68" d="M 3513 2113 
L 3513 0 
L 2938 0 
L 2938 2094 
Q 2938 2591 2744 2837 
Q 2550 3084 2163 3084 
Q 1697 3084 1428 2787 
Q 1159 2491 1159 1978 
L 1159 0 
L 581 0 
L 581 4863 
L 1159 4863 
L 1159 2956 
Q 1366 3272 1645 3428 
Q 1925 3584 2291 3584 
Q 2894 3584 3203 3211 
Q 3513 2838 3513 2113 
z
" transform="scale(0.015625)"/>
      </defs>
      <use xlink:href="#DejaVuSans-52"/>
      <use xlink:href="#DejaVuSans-69" x="69.482422"/>
      <use xlink:href="#DejaVuSans-67" x="97.265625"/>
      <use xlink:href="#DejaVuSans-68" x="160.742188"/>
      <use xlink:href="#DejaVuSans-74" x="224.121094"/>
      <use xlink:href="#DejaVuSans-20" x="263.330078"/>
      <use xlink:href="#DejaVuSans-46" x="295.117188"/>
      <use xlink:href="#DejaVuSans-72" x="345.386719"/>
      <use xlink:href="#DejaVuSans-6f" x="384.25"/>
      <use xlink:href="#DejaVuSans-6e" x="445.431641"/>
      <use xlink:href="#DejaVuSans-74" x="508.810547"/>
     </g>
    </g>
    <g id="line2d_38">
     <path d="M 65.928125 83.050937 
L 75.928125 83.050937 
L 85.928125 83.050937 
" style="fill: none; stroke: #d62728; stroke-width: 1.5; stroke-linecap: square"/>
    </g>
    <g id="text_22">
     <!-- Right Side -->
     <g transform="translate(93.928125 86.550937)scale(0.1 -0.1)">
      <use xlink:href="#DejaVuSans-52"/>
      <use xlink:href="#DejaVuSans-69" x="69.482422"/>
      <use xlink:href="#DejaVuSans-67" x="97.265625"/>
      <use xlink:href="#DejaVuSans-68" x="160.742188"/>
      <use xlink:href="#DejaVuSans-74" x="224.121094"/>
      <use xlink:href="#DejaVuSans-20" x="263.330078"/>
      <use xlink:href="#DejaVuSans-53" x="295.117188"/>
      <use xlink:href="#DejaVuSans-69" x="358.59375"/>
      <use xlink:href="#DejaVuSans-64" x="386.376953"/>
      <use xlink:href="#DejaVuSans-65" x="449.853516"/>
     </g>
    </g>
   </g>
  </g>
 </g>
 <defs>
  <clipPath id="pe36e0f37da">
   <rect x="56.928125" y="25.918125" width="393.071875" height="278.525625"/>
  </clipPath>
 </defs>
</svg>
