<?xml version="1.0" encoding="utf-8" standalone="no"?>
<!DOCTYPE svg PUBLIC "-//W3C//DTD SVG 1.1//EN"
  "http://www.w3.org/Graphics/SVG/1.1/DTD/svg11.dtd">
<svg xmlns:xlink="http://www.w3.org/1999/xlink" width="460.8pt" height="345.6pt" viewBox="0 0 460.8 345.6" xmlns="http://www.w3.org/2000/svg" version="1.1">
 <metadata>
  <rdf:RDF xmlns:dc="http://purl.org/dc/elements/1.1/" xmlns:cc="http://creativecommons.org/ns#" xmlns:rdf="http://www.w3.org/1999/02/22-rdf-syntax-ns#">
   <cc:Work>
    <dc:type rdf:resource="http://purl.org/dc/dcmitype/StillImage"/>
    <dc:date>2022-01-16T03:26:24.014112</dc:date>
    <dc:format>image/svg+xml</dc:format>
    <dc:creator>
     <cc:Agent>
      <dc:title>Matplotlib v3.5.1, https://matplotlib.org/</dc:title>
     </cc:Agent>
    </dc:creator>
   </cc:Work>
  </rdf:RDF>
 </metadata>
 <defs>
  <style type="text/css">*{stroke-linejoin: round; stroke-linecap: butt}</style>
 </defs>
 <g id="figure_1">
  <g id="patch_1">
   <path d="M 0 345.6 
L 460.8 345.6 
L 460.8 0 
L 0 0 
z
" style="fill: #ffffff"/>
  </g>
  <g id="axes_1">
   <g id="patch_2">
    <path d="M 56.928125 304.44375 
L 450 304.44375 
L 450 25.918125 
L 56.928125 25.918125 
z
" style="fill: #ffffff"/>
   </g>
   <g id="matplotlib.axis_1">
    <g id="xtick_1">
     <g id="line2d_1">
      <path d="M 74.795028 304.44375 
L 74.795028 25.918125 
" clip-path="url(#p866d74dec0)" style="fill: none; stroke: #b0b0b0; stroke-width: 0.8; stroke-linecap: square"/>
     </g>
     <g id="line2d_2">
      <defs>
       <path id="mfa67ad0c63" d="M 0 0 
L 0 3.5 
" style="stroke: #000000; stroke-width: 0.8"/>
      </defs>
      <g>
       <use xlink:href="#mfa67ad0c63" x="74.795028" y="304.44375" style="stroke: #000000; stroke-width: 0.8"/>
      </g>
     </g>
     <g id="text_1">
      <!-- 0 -->
      <g transform="translate(71.613778 319.042187)scale(0.1 -0.1)">
       <defs>
        <path id="DejaVuSans-30" d="M 2034 4250 
Q 1547 4250 1301 3770 
Q 1056 3291 1056 2328 
Q 1056 1369 1301 889 
Q 1547 409 2034 409 
Q 2525 409 2770 889 
Q 3016 1369 3016 2328 
Q 3016 3291 2770 3770 
Q 2525 4250 2034 4250 
z
M 2034 4750 
Q 2819 4750 3233 4129 
Q 3647 3509 3647 2328 
Q 3647 1150 3233 529 
Q 2819 -91 2034 -91 
Q 1250 -91 836 529 
Q 422 1150 422 2328 
Q 422 3509 836 4129 
Q 1250 4750 2034 4750 
z
" transform="scale(0.015625)"/>
       </defs>
       <use xlink:href="#DejaVuSans-30"/>
      </g>
     </g>
    </g>
    <g id="xtick_2">
     <g id="line2d_3">
      <path d="M 154.203488 304.44375 
L 154.203488 25.918125 
" clip-path="url(#p866d74dec0)" style="fill: none; stroke: #b0b0b0; stroke-width: 0.8; stroke-linecap: square"/>
     </g>
     <g id="line2d_4">
      <g>
       <use xlink:href="#mfa67ad0c63" x="154.203488" y="304.44375" style="stroke: #000000; stroke-width: 0.8"/>
      </g>
     </g>
     <g id="text_2">
      <!-- 100 -->
      <g transform="translate(144.659738 319.042187)scale(0.1 -0.1)">
       <defs>
        <path id="DejaVuSans-31" d="M 794 531 
L 1825 531 
L 1825 4091 
L 703 3866 
L 703 4441 
L 1819 4666 
L 2450 4666 
L 2450 531 
L 3481 531 
L 3481 0 
L 794 0 
L 794 531 
z
" transform="scale(0.015625)"/>
       </defs>
       <use xlink:href="#DejaVuSans-31"/>
       <use xlink:href="#DejaVuSans-30" x="63.623047"/>
       <use xlink:href="#DejaVuSans-30" x="127.246094"/>
      </g>
     </g>
    </g>
    <g id="xtick_3">
     <g id="line2d_5">
      <path d="M 233.611948 304.44375 
L 233.611948 25.918125 
" clip-path="url(#p866d74dec0)" style="fill: none; stroke: #b0b0b0; stroke-width: 0.8; stroke-linecap: square"/>
     </g>
     <g id="line2d_6">
      <g>
       <use xlink:href="#mfa67ad0c63" x="233.611948" y="304.44375" style="stroke: #000000; stroke-width: 0.8"/>
      </g>
     </g>
     <g id="text_3">
      <!-- 200 -->
      <g transform="translate(224.068198 319.042187)scale(0.1 -0.1)">
       <defs>
        <path id="DejaVuSans-32" d="M 1228 531 
L 3431 531 
L 3431 0 
L 469 0 
L 469 531 
Q 828 903 1448 1529 
Q 2069 2156 2228 2338 
Q 2531 2678 2651 2914 
Q 2772 3150 2772 3378 
Q 2772 3750 2511 3984 
Q 2250 4219 1831 4219 
Q 1534 4219 1204 4116 
Q 875 4013 500 3803 
L 500 4441 
Q 881 4594 1212 4672 
Q 1544 4750 1819 4750 
Q 2544 4750 2975 4387 
Q 3406 4025 3406 3419 
Q 3406 3131 3298 2873 
Q 3191 2616 2906 2266 
Q 2828 2175 2409 1742 
Q 1991 1309 1228 531 
z
" transform="scale(0.015625)"/>
       </defs>
       <use xlink:href="#DejaVuSans-32"/>
       <use xlink:href="#DejaVuSans-30" x="63.623047"/>
       <use xlink:href="#DejaVuSans-30" x="127.246094"/>
      </g>
     </g>
    </g>
    <g id="xtick_4">
     <g id="line2d_7">
      <path d="M 313.020407 304.44375 
L 313.020407 25.918125 
" clip-path="url(#p866d74dec0)" style="fill: none; stroke: #b0b0b0; stroke-width: 0.8; stroke-linecap: square"/>
     </g>
     <g id="line2d_8">
      <g>
       <use xlink:href="#mfa67ad0c63" x="313.020407" y="304.44375" style="stroke: #000000; stroke-width: 0.8"/>
      </g>
     </g>
     <g id="text_4">
      <!-- 300 -->
      <g transform="translate(303.476657 319.042187)scale(0.1 -0.1)">
       <defs>
        <path id="DejaVuSans-33" d="M 2597 2516 
Q 3050 2419 3304 2112 
Q 3559 1806 3559 1356 
Q 3559 666 3084 287 
Q 2609 -91 1734 -91 
Q 1441 -91 1130 -33 
Q 819 25 488 141 
L 488 750 
Q 750 597 1062 519 
Q 1375 441 1716 441 
Q 2309 441 2620 675 
Q 2931 909 2931 1356 
Q 2931 1769 2642 2001 
Q 2353 2234 1838 2234 
L 1294 2234 
L 1294 2753 
L 1863 2753 
Q 2328 2753 2575 2939 
Q 2822 3125 2822 3475 
Q 2822 3834 2567 4026 
Q 2313 4219 1838 4219 
Q 1578 4219 1281 4162 
Q 984 4106 628 3988 
L 628 4550 
Q 988 4650 1302 4700 
Q 1616 4750 1894 4750 
Q 2613 4750 3031 4423 
Q 3450 4097 3450 3541 
Q 3450 3153 3228 2886 
Q 3006 2619 2597 2516 
z
" transform="scale(0.015625)"/>
       </defs>
       <use xlink:href="#DejaVuSans-33"/>
       <use xlink:href="#DejaVuSans-30" x="63.623047"/>
       <use xlink:href="#DejaVuSans-30" x="127.246094"/>
      </g>
     </g>
    </g>
    <g id="xtick_5">
     <g id="line2d_9">
      <path d="M 392.428867 304.44375 
L 392.428867 25.918125 
" clip-path="url(#p866d74dec0)" style="fill: none; stroke: #b0b0b0; stroke-width: 0.8; stroke-linecap: square"/>
     </g>
     <g id="line2d_10">
      <g>
       <use xlink:href="#mfa67ad0c63" x="392.428867" y="304.44375" style="stroke: #000000; stroke-width: 0.8"/>
      </g>
     </g>
     <g id="text_5">
      <!-- 400 -->
      <g transform="translate(382.885117 319.042187)scale(0.1 -0.1)">
       <defs>
        <path id="DejaVuSans-34" d="M 2419 4116 
L 825 1625 
L 2419 1625 
L 2419 4116 
z
M 2253 4666 
L 3047 4666 
L 3047 1625 
L 3713 1625 
L 3713 1100 
L 3047 1100 
L 3047 0 
L 2419 0 
L 2419 1100 
L 313 1100 
L 313 1709 
L 2253 4666 
z
" transform="scale(0.015625)"/>
       </defs>
       <use xlink:href="#DejaVuSans-34"/>
       <use xlink:href="#DejaVuSans-30" x="63.623047"/>
       <use xlink:href="#DejaVuSans-30" x="127.246094"/>
      </g>
     </g>
    </g>
    <g id="text_6">
     <!-- Translational Position [mm] -->
     <g transform="translate(185.486719 332.720312)scale(0.1 -0.1)">
      <defs>
       <path id="DejaVuSans-54" d="M -19 4666 
L 3928 4666 
L 3928 4134 
L 2272 4134 
L 2272 0 
L 1638 0 
L 1638 4134 
L -19 4134 
L -19 4666 
z
" transform="scale(0.015625)"/>
       <path id="DejaVuSans-72" d="M 2631 2963 
Q 2534 3019 2420 3045 
Q 2306 3072 2169 3072 
Q 1681 3072 1420 2755 
Q 1159 2438 1159 1844 
L 1159 0 
L 581 0 
L 581 3500 
L 1159 3500 
L 1159 2956 
Q 1341 3275 1631 3429 
Q 1922 3584 2338 3584 
Q 2397 3584 2469 3576 
Q 2541 3569 2628 3553 
L 2631 2963 
z
" transform="scale(0.015625)"/>
       <path id="DejaVuSans-61" d="M 2194 1759 
Q 1497 1759 1228 1600 
Q 959 1441 959 1056 
Q 959 750 1161 570 
Q 1363 391 1709 391 
Q 2188 391 2477 730 
Q 2766 1069 2766 1631 
L 2766 1759 
L 2194 1759 
z
M 3341 1997 
L 3341 0 
L 2766 0 
L 2766 531 
Q 2569 213 2275 61 
Q 1981 -91 1556 -91 
Q 1019 -91 701 211 
Q 384 513 384 1019 
Q 384 1609 779 1909 
Q 1175 2209 1959 2209 
L 2766 2209 
L 2766 2266 
Q 2766 2663 2505 2880 
Q 2244 3097 1772 3097 
Q 1472 3097 1187 3025 
Q 903 2953 641 2809 
L 641 3341 
Q 956 3463 1253 3523 
Q 1550 3584 1831 3584 
Q 2591 3584 2966 3190 
Q 3341 2797 3341 1997 
z
" transform="scale(0.015625)"/>
       <path id="DejaVuSans-6e" d="M 3513 2113 
L 3513 0 
L 2938 0 
L 2938 2094 
Q 2938 2591 2744 2837 
Q 2550 3084 2163 3084 
Q 1697 3084 1428 2787 
Q 1159 2491 1159 1978 
L 1159 0 
L 581 0 
L 581 3500 
L 1159 3500 
L 1159 2956 
Q 1366 3272 1645 3428 
Q 1925 3584 2291 3584 
Q 2894 3584 3203 3211 
Q 3513 2838 3513 2113 
z
" transform="scale(0.015625)"/>
       <path id="DejaVuSans-73" d="M 2834 3397 
L 2834 2853 
Q 2591 2978 2328 3040 
Q 2066 3103 1784 3103 
Q 1356 3103 1142 2972 
Q 928 2841 928 2578 
Q 928 2378 1081 2264 
Q 1234 2150 1697 2047 
L 1894 2003 
Q 2506 1872 2764 1633 
Q 3022 1394 3022 966 
Q 3022 478 2636 193 
Q 2250 -91 1575 -91 
Q 1294 -91 989 -36 
Q 684 19 347 128 
L 347 722 
Q 666 556 975 473 
Q 1284 391 1588 391 
Q 1994 391 2212 530 
Q 2431 669 2431 922 
Q 2431 1156 2273 1281 
Q 2116 1406 1581 1522 
L 1381 1569 
Q 847 1681 609 1914 
Q 372 2147 372 2553 
Q 372 3047 722 3315 
Q 1072 3584 1716 3584 
Q 2034 3584 2315 3537 
Q 2597 3491 2834 3397 
z
" transform="scale(0.015625)"/>
       <path id="DejaVuSans-6c" d="M 603 4863 
L 1178 4863 
L 1178 0 
L 603 0 
L 603 4863 
z
" transform="scale(0.015625)"/>
       <path id="DejaVuSans-74" d="M 1172 4494 
L 1172 3500 
L 2356 3500 
L 2356 3053 
L 1172 3053 
L 1172 1153 
Q 1172 725 1289 603 
Q 1406 481 1766 481 
L 2356 481 
L 2356 0 
L 1766 0 
Q 1100 0 847 248 
Q 594 497 594 1153 
L 594 3053 
L 172 3053 
L 172 3500 
L 594 3500 
L 594 4494 
L 1172 4494 
z
" transform="scale(0.015625)"/>
       <path id="DejaVuSans-69" d="M 603 3500 
L 1178 3500 
L 1178 0 
L 603 0 
L 603 3500 
z
M 603 4863 
L 1178 4863 
L 1178 4134 
L 603 4134 
L 603 4863 
z
" transform="scale(0.015625)"/>
       <path id="DejaVuSans-6f" d="M 1959 3097 
Q 1497 3097 1228 2736 
Q 959 2375 959 1747 
Q 959 1119 1226 758 
Q 1494 397 1959 397 
Q 2419 397 2687 759 
Q 2956 1122 2956 1747 
Q 2956 2369 2687 2733 
Q 2419 3097 1959 3097 
z
M 1959 3584 
Q 2709 3584 3137 3096 
Q 3566 2609 3566 1747 
Q 3566 888 3137 398 
Q 2709 -91 1959 -91 
Q 1206 -91 779 398 
Q 353 888 353 1747 
Q 353 2609 779 3096 
Q 1206 3584 1959 3584 
z
" transform="scale(0.015625)"/>
       <path id="DejaVuSans-20" transform="scale(0.015625)"/>
       <path id="DejaVuSans-50" d="M 1259 4147 
L 1259 2394 
L 2053 2394 
Q 2494 2394 2734 2622 
Q 2975 2850 2975 3272 
Q 2975 3691 2734 3919 
Q 2494 4147 2053 4147 
L 1259 4147 
z
M 628 4666 
L 2053 4666 
Q 2838 4666 3239 4311 
Q 3641 3956 3641 3272 
Q 3641 2581 3239 2228 
Q 2838 1875 2053 1875 
L 1259 1875 
L 1259 0 
L 628 0 
L 628 4666 
z
" transform="scale(0.015625)"/>
       <path id="DejaVuSans-5b" d="M 550 4863 
L 1875 4863 
L 1875 4416 
L 1125 4416 
L 1125 -397 
L 1875 -397 
L 1875 -844 
L 550 -844 
L 550 4863 
z
" transform="scale(0.015625)"/>
       <path id="DejaVuSans-6d" d="M 3328 2828 
Q 3544 3216 3844 3400 
Q 4144 3584 4550 3584 
Q 5097 3584 5394 3201 
Q 5691 2819 5691 2113 
L 5691 0 
L 5113 0 
L 5113 2094 
Q 5113 2597 4934 2840 
Q 4756 3084 4391 3084 
Q 3944 3084 3684 2787 
Q 3425 2491 3425 1978 
L 3425 0 
L 2847 0 
L 2847 2094 
Q 2847 2600 2669 2842 
Q 2491 3084 2119 3084 
Q 1678 3084 1418 2786 
Q 1159 2488 1159 1978 
L 1159 0 
L 581 0 
L 581 3500 
L 1159 3500 
L 1159 2956 
Q 1356 3278 1631 3431 
Q 1906 3584 2284 3584 
Q 2666 3584 2933 3390 
Q 3200 3197 3328 2828 
z
" transform="scale(0.015625)"/>
       <path id="DejaVuSans-5d" d="M 1947 4863 
L 1947 -844 
L 622 -844 
L 622 -397 
L 1369 -397 
L 1369 4416 
L 622 4416 
L 622 4863 
L 1947 4863 
z
" transform="scale(0.015625)"/>
      </defs>
      <use xlink:href="#DejaVuSans-54"/>
      <use xlink:href="#DejaVuSans-72" x="46.333984"/>
      <use xlink:href="#DejaVuSans-61" x="87.447266"/>
      <use xlink:href="#DejaVuSans-6e" x="148.726562"/>
      <use xlink:href="#DejaVuSans-73" x="212.105469"/>
      <use xlink:href="#DejaVuSans-6c" x="264.205078"/>
      <use xlink:href="#DejaVuSans-61" x="291.988281"/>
      <use xlink:href="#DejaVuSans-74" x="353.267578"/>
      <use xlink:href="#DejaVuSans-69" x="392.476562"/>
      <use xlink:href="#DejaVuSans-6f" x="420.259766"/>
      <use xlink:href="#DejaVuSans-6e" x="481.441406"/>
      <use xlink:href="#DejaVuSans-61" x="544.820312"/>
      <use xlink:href="#DejaVuSans-6c" x="606.099609"/>
      <use xlink:href="#DejaVuSans-20" x="633.882812"/>
      <use xlink:href="#DejaVuSans-50" x="665.669922"/>
      <use xlink:href="#DejaVuSans-6f" x="722.347656"/>
      <use xlink:href="#DejaVuSans-73" x="783.529297"/>
      <use xlink:href="#DejaVuSans-69" x="835.628906"/>
      <use xlink:href="#DejaVuSans-74" x="863.412109"/>
      <use xlink:href="#DejaVuSans-69" x="902.621094"/>
      <use xlink:href="#DejaVuSans-6f" x="930.404297"/>
      <use xlink:href="#DejaVuSans-6e" x="991.585938"/>
      <use xlink:href="#DejaVuSans-20" x="1054.964844"/>
      <use xlink:href="#DejaVuSans-5b" x="1086.751953"/>
      <use xlink:href="#DejaVuSans-6d" x="1125.765625"/>
      <use xlink:href="#DejaVuSans-6d" x="1223.177734"/>
      <use xlink:href="#DejaVuSans-5d" x="1320.589844"/>
     </g>
    </g>
   </g>
   <g id="matplotlib.axis_2">
    <g id="ytick_1">
     <g id="line2d_11">
      <path d="M 56.928125 291.922542 
L 450 291.922542 
" clip-path="url(#p866d74dec0)" style="fill: none; stroke: #b0b0b0; stroke-width: 0.8; stroke-linecap: square"/>
     </g>
     <g id="line2d_12">
      <defs>
       <path id="md2c2492d53" d="M 0 0 
L -3.5 0 
" style="stroke: #000000; stroke-width: 0.8"/>
      </defs>
      <g>
       <use xlink:href="#md2c2492d53" x="56.928125" y="291.922542" style="stroke: #000000; stroke-width: 0.8"/>
      </g>
     </g>
     <g id="text_7">
      <!-- 0 -->
      <g transform="translate(43.565625 295.72176)scale(0.1 -0.1)">
       <use xlink:href="#DejaVuSans-30"/>
      </g>
     </g>
    </g>
    <g id="ytick_2">
     <g id="line2d_13">
      <path d="M 56.928125 257.160719 
L 450 257.160719 
" clip-path="url(#p866d74dec0)" style="fill: none; stroke: #b0b0b0; stroke-width: 0.8; stroke-linecap: square"/>
     </g>
     <g id="line2d_14">
      <g>
       <use xlink:href="#md2c2492d53" x="56.928125" y="257.160719" style="stroke: #000000; stroke-width: 0.8"/>
      </g>
     </g>
     <g id="text_8">
      <!-- 250 -->
      <g transform="translate(30.840625 260.959938)scale(0.1 -0.1)">
       <defs>
        <path id="DejaVuSans-35" d="M 691 4666 
L 3169 4666 
L 3169 4134 
L 1269 4134 
L 1269 2991 
Q 1406 3038 1543 3061 
Q 1681 3084 1819 3084 
Q 2600 3084 3056 2656 
Q 3513 2228 3513 1497 
Q 3513 744 3044 326 
Q 2575 -91 1722 -91 
Q 1428 -91 1123 -41 
Q 819 9 494 109 
L 494 744 
Q 775 591 1075 516 
Q 1375 441 1709 441 
Q 2250 441 2565 725 
Q 2881 1009 2881 1497 
Q 2881 1984 2565 2268 
Q 2250 2553 1709 2553 
Q 1456 2553 1204 2497 
Q 953 2441 691 2322 
L 691 4666 
z
" transform="scale(0.015625)"/>
       </defs>
       <use xlink:href="#DejaVuSans-32"/>
       <use xlink:href="#DejaVuSans-35" x="63.623047"/>
       <use xlink:href="#DejaVuSans-30" x="127.246094"/>
      </g>
     </g>
    </g>
    <g id="ytick_3">
     <g id="line2d_15">
      <path d="M 56.928125 222.398897 
L 450 222.398897 
" clip-path="url(#p866d74dec0)" style="fill: none; stroke: #b0b0b0; stroke-width: 0.8; stroke-linecap: square"/>
     </g>
     <g id="line2d_16">
      <g>
       <use xlink:href="#md2c2492d53" x="56.928125" y="222.398897" style="stroke: #000000; stroke-width: 0.8"/>
      </g>
     </g>
     <g id="text_9">
      <!-- 500 -->
      <g transform="translate(30.840625 226.198116)scale(0.1 -0.1)">
       <use xlink:href="#DejaVuSans-35"/>
       <use xlink:href="#DejaVuSans-30" x="63.623047"/>
       <use xlink:href="#DejaVuSans-30" x="127.246094"/>
      </g>
     </g>
    </g>
    <g id="ytick_4">
     <g id="line2d_17">
      <path d="M 56.928125 187.637075 
L 450 187.637075 
" clip-path="url(#p866d74dec0)" style="fill: none; stroke: #b0b0b0; stroke-width: 0.8; stroke-linecap: square"/>
     </g>
     <g id="line2d_18">
      <g>
       <use xlink:href="#md2c2492d53" x="56.928125" y="187.637075" style="stroke: #000000; stroke-width: 0.8"/>
      </g>
     </g>
     <g id="text_10">
      <!-- 750 -->
      <g transform="translate(30.840625 191.436293)scale(0.1 -0.1)">
       <defs>
        <path id="DejaVuSans-37" d="M 525 4666 
L 3525 4666 
L 3525 4397 
L 1831 0 
L 1172 0 
L 2766 4134 
L 525 4134 
L 525 4666 
z
" transform="scale(0.015625)"/>
       </defs>
       <use xlink:href="#DejaVuSans-37"/>
       <use xlink:href="#DejaVuSans-35" x="63.623047"/>
       <use xlink:href="#DejaVuSans-30" x="127.246094"/>
      </g>
     </g>
    </g>
    <g id="ytick_5">
     <g id="line2d_19">
      <path d="M 56.928125 152.875252 
L 450 152.875252 
" clip-path="url(#p866d74dec0)" style="fill: none; stroke: #b0b0b0; stroke-width: 0.8; stroke-linecap: square"/>
     </g>
     <g id="line2d_20">
      <g>
       <use xlink:href="#md2c2492d53" x="56.928125" y="152.875252" style="stroke: #000000; stroke-width: 0.8"/>
      </g>
     </g>
     <g id="text_11">
      <!-- 1000 -->
      <g transform="translate(24.478125 156.674471)scale(0.1 -0.1)">
       <use xlink:href="#DejaVuSans-31"/>
       <use xlink:href="#DejaVuSans-30" x="63.623047"/>
       <use xlink:href="#DejaVuSans-30" x="127.246094"/>
       <use xlink:href="#DejaVuSans-30" x="190.869141"/>
      </g>
     </g>
    </g>
    <g id="ytick_6">
     <g id="line2d_21">
      <path d="M 56.928125 118.11343 
L 450 118.11343 
" clip-path="url(#p866d74dec0)" style="fill: none; stroke: #b0b0b0; stroke-width: 0.8; stroke-linecap: square"/>
     </g>
     <g id="line2d_22">
      <g>
       <use xlink:href="#md2c2492d53" x="56.928125" y="118.11343" style="stroke: #000000; stroke-width: 0.8"/>
      </g>
     </g>
     <g id="text_12">
      <!-- 1250 -->
      <g transform="translate(24.478125 121.912649)scale(0.1 -0.1)">
       <use xlink:href="#DejaVuSans-31"/>
       <use xlink:href="#DejaVuSans-32" x="63.623047"/>
       <use xlink:href="#DejaVuSans-35" x="127.246094"/>
       <use xlink:href="#DejaVuSans-30" x="190.869141"/>
      </g>
     </g>
    </g>
    <g id="ytick_7">
     <g id="line2d_23">
      <path d="M 56.928125 83.351608 
L 450 83.351608 
" clip-path="url(#p866d74dec0)" style="fill: none; stroke: #b0b0b0; stroke-width: 0.8; stroke-linecap: square"/>
     </g>
     <g id="line2d_24">
      <g>
       <use xlink:href="#md2c2492d53" x="56.928125" y="83.351608" style="stroke: #000000; stroke-width: 0.8"/>
      </g>
     </g>
     <g id="text_13">
      <!-- 1500 -->
      <g transform="translate(24.478125 87.150827)scale(0.1 -0.1)">
       <use xlink:href="#DejaVuSans-31"/>
       <use xlink:href="#DejaVuSans-35" x="63.623047"/>
       <use xlink:href="#DejaVuSans-30" x="127.246094"/>
       <use xlink:href="#DejaVuSans-30" x="190.869141"/>
      </g>
     </g>
    </g>
    <g id="ytick_8">
     <g id="line2d_25">
      <path d="M 56.928125 48.589786 
L 450 48.589786 
" clip-path="url(#p866d74dec0)" style="fill: none; stroke: #b0b0b0; stroke-width: 0.8; stroke-linecap: square"/>
     </g>
     <g id="line2d_26">
      <g>
       <use xlink:href="#md2c2492d53" x="56.928125" y="48.589786" style="stroke: #000000; stroke-width: 0.8"/>
      </g>
     </g>
     <g id="text_14">
      <!-- 1750 -->
      <g transform="translate(24.478125 52.389004)scale(0.1 -0.1)">
       <use xlink:href="#DejaVuSans-31"/>
       <use xlink:href="#DejaVuSans-37" x="63.623047"/>
       <use xlink:href="#DejaVuSans-35" x="127.246094"/>
       <use xlink:href="#DejaVuSans-30" x="190.869141"/>
      </g>
     </g>
    </g>
    <g id="text_15">
     <!-- Reflector Raw Value -->
     <g transform="translate(18.398438 214.980937)rotate(-90)scale(0.1 -0.1)">
      <defs>
       <path id="DejaVuSans-52" d="M 2841 2188 
Q 3044 2119 3236 1894 
Q 3428 1669 3622 1275 
L 4263 0 
L 3584 0 
L 2988 1197 
Q 2756 1666 2539 1819 
Q 2322 1972 1947 1972 
L 1259 1972 
L 1259 0 
L 628 0 
L 628 4666 
L 2053 4666 
Q 2853 4666 3247 4331 
Q 3641 3997 3641 3322 
Q 3641 2881 3436 2590 
Q 3231 2300 2841 2188 
z
M 1259 4147 
L 1259 2491 
L 2053 2491 
Q 2509 2491 2742 2702 
Q 2975 2913 2975 3322 
Q 2975 3731 2742 3939 
Q 2509 4147 2053 4147 
L 1259 4147 
z
" transform="scale(0.015625)"/>
       <path id="DejaVuSans-65" d="M 3597 1894 
L 3597 1613 
L 953 1613 
Q 991 1019 1311 708 
Q 1631 397 2203 397 
Q 2534 397 2845 478 
Q 3156 559 3463 722 
L 3463 178 
Q 3153 47 2828 -22 
Q 2503 -91 2169 -91 
Q 1331 -91 842 396 
Q 353 884 353 1716 
Q 353 2575 817 3079 
Q 1281 3584 2069 3584 
Q 2775 3584 3186 3129 
Q 3597 2675 3597 1894 
z
M 3022 2063 
Q 3016 2534 2758 2815 
Q 2500 3097 2075 3097 
Q 1594 3097 1305 2825 
Q 1016 2553 972 2059 
L 3022 2063 
z
" transform="scale(0.015625)"/>
       <path id="DejaVuSans-66" d="M 2375 4863 
L 2375 4384 
L 1825 4384 
Q 1516 4384 1395 4259 
Q 1275 4134 1275 3809 
L 1275 3500 
L 2222 3500 
L 2222 3053 
L 1275 3053 
L 1275 0 
L 697 0 
L 697 3053 
L 147 3053 
L 147 3500 
L 697 3500 
L 697 3744 
Q 697 4328 969 4595 
Q 1241 4863 1831 4863 
L 2375 4863 
z
" transform="scale(0.015625)"/>
       <path id="DejaVuSans-63" d="M 3122 3366 
L 3122 2828 
Q 2878 2963 2633 3030 
Q 2388 3097 2138 3097 
Q 1578 3097 1268 2742 
Q 959 2388 959 1747 
Q 959 1106 1268 751 
Q 1578 397 2138 397 
Q 2388 397 2633 464 
Q 2878 531 3122 666 
L 3122 134 
Q 2881 22 2623 -34 
Q 2366 -91 2075 -91 
Q 1284 -91 818 406 
Q 353 903 353 1747 
Q 353 2603 823 3093 
Q 1294 3584 2113 3584 
Q 2378 3584 2631 3529 
Q 2884 3475 3122 3366 
z
" transform="scale(0.015625)"/>
       <path id="DejaVuSans-77" d="M 269 3500 
L 844 3500 
L 1563 769 
L 2278 3500 
L 2956 3500 
L 3675 769 
L 4391 3500 
L 4966 3500 
L 4050 0 
L 3372 0 
L 2619 2869 
L 1863 0 
L 1184 0 
L 269 3500 
z
" transform="scale(0.015625)"/>
       <path id="DejaVuSans-56" d="M 1831 0 
L 50 4666 
L 709 4666 
L 2188 738 
L 3669 4666 
L 4325 4666 
L 2547 0 
L 1831 0 
z
" transform="scale(0.015625)"/>
       <path id="DejaVuSans-75" d="M 544 1381 
L 544 3500 
L 1119 3500 
L 1119 1403 
Q 1119 906 1312 657 
Q 1506 409 1894 409 
Q 2359 409 2629 706 
Q 2900 1003 2900 1516 
L 2900 3500 
L 3475 3500 
L 3475 0 
L 2900 0 
L 2900 538 
Q 2691 219 2414 64 
Q 2138 -91 1772 -91 
Q 1169 -91 856 284 
Q 544 659 544 1381 
z
M 1991 3584 
L 1991 3584 
z
" transform="scale(0.015625)"/>
      </defs>
      <use xlink:href="#DejaVuSans-52"/>
      <use xlink:href="#DejaVuSans-65" x="64.982422"/>
      <use xlink:href="#DejaVuSans-66" x="126.505859"/>
      <use xlink:href="#DejaVuSans-6c" x="161.710938"/>
      <use xlink:href="#DejaVuSans-65" x="189.494141"/>
      <use xlink:href="#DejaVuSans-63" x="251.017578"/>
      <use xlink:href="#DejaVuSans-74" x="305.998047"/>
      <use xlink:href="#DejaVuSans-6f" x="345.207031"/>
      <use xlink:href="#DejaVuSans-72" x="406.388672"/>
      <use xlink:href="#DejaVuSans-20" x="447.501953"/>
      <use xlink:href="#DejaVuSans-52" x="479.289062"/>
      <use xlink:href="#DejaVuSans-61" x="546.521484"/>
      <use xlink:href="#DejaVuSans-77" x="607.800781"/>
      <use xlink:href="#DejaVuSans-20" x="689.587891"/>
      <use xlink:href="#DejaVuSans-56" x="721.375"/>
      <use xlink:href="#DejaVuSans-61" x="782.033203"/>
      <use xlink:href="#DejaVuSans-6c" x="843.3125"/>
      <use xlink:href="#DejaVuSans-75" x="871.095703"/>
      <use xlink:href="#DejaVuSans-65" x="934.474609"/>
     </g>
    </g>
   </g>
   <g id="line2d_27">
    <path d="M 74.795028 259.941665 
L 74.795283 259.941665 
L 74.797061 260.21976 
L 74.798999 259.802618 
L 74.90223 259.802618 
L 75.049135 260.21976 
L 75.089157 260.21976 
L 75.133229 260.358807 
L 75.291331 259.802618 
L 75.35327 259.802618 
L 75.492314 259.385476 
L 75.569737 259.385476 
L 75.65264 259.524523 
L 75.741577 259.385476 
L 75.936128 258.551192 
L 76.043329 258.829287 
L 76.403844 258.551192 
L 76.538044 258.551192 
L 76.827091 258.273098 
L 76.982731 258.412145 
L 77.145519 258.13405 
L 77.315453 258.13405 
L 77.49174 257.855956 
L 77.675967 256.882625 
L 77.867342 256.743577 
L 78.065863 257.160719 
L 78.270737 256.882625 
L 78.703513 255.909294 
L 79.405484 254.935963 
L 79.654032 255.07501 
L 79.909727 254.240726 
L 80.171775 254.101679 
L 80.718899 253.267395 
L 81.003182 253.128348 
L 81.293817 252.155017 
L 81.592393 252.01597 
L 81.898115 251.45978 
L 82.210984 250.625497 
L 82.530206 250.486449 
L 82.854987 250.069308 
L 83.188503 249.93026 
L 83.529959 249.095977 
L 84.236694 248.261693 
L 84.601973 247.427409 
L 85.340472 246.87122 
L 85.721632 245.897889 
L 86.499835 244.924558 
L 87.301861 243.116943 
L 87.714785 243.116943 
L 88.127709 242.560754 
L 88.540633 241.587423 
L 88.969438 241.170281 
L 89.398244 240.475045 
L 89.82705 240.057903 
L 90.263796 238.945524 
L 90.700543 238.389335 
L 91.14523 237.276957 
L 92.495174 235.608389 
L 92.947802 234.356964 
L 93.408371 233.800775 
L 93.86894 232.827444 
L 94.33745 231.576018 
L 94.798019 230.880782 
L 95.735039 229.073167 
L 96.203549 228.238883 
L 98.101411 223.928417 
L 99.054313 222.25985 
L 99.530764 221.008424 
L 100.007214 218.64462 
L 100.483665 218.227478 
L 103.81882 208.216074 
L 104.295271 206.408459 
L 104.771722 205.157033 
L 105.724623 200.985614 
L 109.536229 186.385649 
L 110.01268 183.465656 
L 110.489131 182.21423 
L 110.965582 179.15519 
L 111.442033 177.069481 
L 111.918483 174.01044 
L 112.394934 172.202826 
L 113.824286 163.720941 
L 115.730089 153.570489 
L 116.682991 143.698131 
L 117.635892 137.858145 
L 118.112343 132.99149 
L 120.971048 111.717255 
L 121.447498 108.797262 
L 121.923949 107.128694 
L 122.4004 102.818228 
L 123.353301 98.64681 
L 123.829752 98.368715 
L 124.782654 93.919202 
L 125.259104 92.250634 
L 125.735555 91.555398 
L 126.212006 89.608736 
L 126.688457 91.833492 
L 127.641358 83.073513 
L 128.59426 78.484953 
L 129.070711 74.452581 
L 130.976514 62.633562 
L 131.452964 63.606893 
L 131.929415 60.547852 
L 132.405866 60.825947 
L 132.882317 61.521183 
L 133.358767 64.719271 
L 133.835218 69.446879 
L 135.741021 113.385822 
L 137.170373 165.389508 
L 139.552627 242.838849 
L 140.505529 263.000705 
L 140.981979 268.979739 
L 141.934881 275.514961 
L 142.887783 278.991144 
L 143.364233 280.103522 
L 143.840684 280.659711 
L 144.317135 280.798758 
L 144.793586 280.798758 
L 145.270036 281.076853 
L 145.746487 281.633042 
L 146.699389 281.911137 
L 147.175839 281.911137 
L 147.65229 282.189231 
L 148.128741 282.328279 
L 148.605192 281.633042 
L 149.081642 282.467326 
L 149.558093 281.633042 
L 150.034544 282.050184 
L 150.510995 282.189231 
L 150.987445 281.772089 
L 151.940347 281.772089 
L 152.416798 281.633042 
L 152.893248 281.633042 
L 153.84615 281.354948 
L 154.362305 281.493995 
L 154.838756 281.076853 
L 156.744559 281.076853 
L 157.69746 280.798758 
L 158.650362 280.798758 
L 159.603263 280.520664 
L 160.079714 279.964475 
L 161.032616 279.964475 
L 161.509066 279.269238 
L 161.985517 279.408286 
L 162.461968 279.269238 
L 162.938419 279.269238 
L 163.414869 278.574002 
L 163.89132 278.852096 
L 165.797123 277.322576 
L 166.750025 277.044482 
L 167.702926 276.349245 
L 168.179377 276.071151 
L 168.655828 276.071151 
L 169.132278 275.654009 
L 170.08518 274.124489 
L 170.561631 274.124489 
L 171.038081 273.985441 
L 172.467434 272.455921 
L 172.943884 272.316874 
L 173.896786 271.621637 
L 174.373237 270.509259 
L 174.849687 269.95307 
L 175.802589 269.396881 
L 176.27904 268.979739 
L 176.755491 268.145455 
L 177.231941 267.867361 
L 177.708392 267.450219 
L 178.184843 267.450219 
L 181.043547 263.139753 
L 181.44059 263.139753 
L 181.91704 262.861658 
L 184.299294 259.524523 
L 184.775745 259.107381 
L 185.728646 257.716908 
L 186.205097 256.743577 
L 186.681548 256.326436 
L 188.587351 253.406442 
L 189.063802 252.572159 
L 190.016703 250.347402 
L 191.446056 247.705504 
L 192.398957 245.897889 
L 193.351859 244.507416 
L 193.828309 243.534085 
L 194.781211 241.170281 
L 195.734112 239.918855 
L 197.639915 235.191248 
L 198.116366 234.217917 
L 200.022169 228.93412 
L 200.49862 227.821741 
L 200.975071 226.153174 
L 201.451521 225.040796 
L 201.927972 223.372228 
L 202.404423 222.955086 
L 202.880874 219.896046 
L 203.357324 218.505573 
L 203.833775 216.558911 
L 204.310226 215.307485 
L 204.786677 214.612249 
L 205.263128 211.97035 
L 206.69248 207.103695 
L 207.168931 205.991317 
L 207.645381 203.071324 
L 208.121832 201.124662 
L 209.074734 198.482763 
L 210.027635 193.755155 
L 210.980537 190.139926 
L 211.456987 187.776122 
L 213.36279 180.823758 
L 214.792143 174.01044 
L 215.268593 172.48092 
L 216.697946 163.164752 
L 217.174396 161.635232 
L 217.650847 156.351435 
L 218.127298 153.153347 
L 219.080199 145.088604 
L 219.55665 142.585753 
L 220.033101 137.719098 
L 220.509552 134.799105 
L 220.986003 129.515308 
L 222.891806 116.027721 
L 223.368256 112.96868 
L 223.844707 111.578208 
L 224.321158 108.519167 
L 224.797609 107.267742 
L 225.75051 103.374417 
L 226.226961 102.957276 
L 226.703412 99.063951 
L 227.179862 97.117289 
L 227.656313 94.197296 
L 228.132764 93.084918 
L 228.609215 91.277303 
L 229.085665 88.35731 
L 229.562116 86.82779 
L 230.038567 86.688743 
L 230.515018 84.463986 
L 230.991468 81.404946 
L 231.94437 70.837352 
L 232.420821 58.323096 
L 232.897271 62.772609 
L 233.373722 68.751642 
L 233.850173 70.837352 
L 234.326624 74.313534 
L 234.803074 82.517324 
L 235.279525 86.82779 
L 235.755976 96.143958 
L 236.232427 107.962978 
L 237.185328 140.500044 
L 238.13823 175.400913 
L 239.091131 205.713222 
L 240.520484 242.004565 
L 241.473385 258.551192 
L 241.949836 264.947368 
L 242.426287 269.396881 
L 243.379188 275.375914 
L 244.33209 279.130191 
L 244.80854 280.103522 
L 245.284991 280.798758 
L 245.761442 280.937806 
L 246.237893 281.2159 
L 246.714343 281.633042 
L 247.667245 281.633042 
L 248.143696 281.772089 
L 248.620146 282.189231 
L 249.096597 282.050184 
L 249.573048 282.189231 
L 250.049499 281.633042 
L 250.525949 281.633042 
L 251.0024 281.911137 
L 251.478851 281.633042 
L 251.955302 281.493995 
L 252.431753 282.050184 
L 252.908203 281.911137 
L 253.384654 281.911137 
L 253.861105 282.050184 
L 254.337556 281.772089 
L 254.814006 282.189231 
L 255.290457 281.493995 
L 255.766908 281.633042 
L 256.243359 280.937806 
L 256.719809 281.633042 
L 257.19626 281.076853 
L 258.625612 281.076853 
L 259.102063 280.798758 
L 260.054965 280.798758 
L 260.531415 280.381617 
L 261.007866 280.381617 
L 261.484317 279.825427 
L 262.437218 279.825427 
L 263.39012 278.991144 
L 263.866571 279.408286 
L 264.343021 279.408286 
L 265.295923 278.713049 
L 265.772374 278.713049 
L 266.248824 278.295907 
L 266.725275 278.434955 
L 267.201726 277.322576 
L 268.154628 276.766387 
L 268.631078 276.349245 
L 269.107529 276.349245 
L 270.060431 276.071151 
L 271.489783 274.54163 
L 271.966234 274.402583 
L 272.442684 274.124489 
L 272.919135 273.985441 
L 273.395586 274.124489 
L 273.872037 273.985441 
L 274.348487 273.290205 
L 275.77784 271.899732 
L 276.25429 271.899732 
L 276.730741 271.621637 
L 278.160093 269.95307 
L 278.636544 269.674975 
L 279.112995 269.257833 
L 279.589446 268.42355 
L 280.542347 267.450219 
L 281.018798 267.172124 
L 281.495249 266.476888 
L 281.971699 266.198793 
L 282.44815 265.503557 
L 282.924601 265.225462 
L 283.401052 264.80832 
L 283.877503 263.695942 
L 284.353953 263.000705 
L 285.306855 262.027374 
L 287.212658 259.385476 
L 287.689109 258.968334 
L 288.165559 258.273098 
L 288.64201 258.13405 
L 289.118461 257.021672 
L 289.594912 256.326436 
L 290.071362 255.909294 
L 291.024264 254.101679 
L 291.500715 253.54549 
L 291.977165 253.267395 
L 292.453616 251.876922 
L 292.930067 251.042639 
L 293.406518 250.486449 
L 294.359419 248.817882 
L 294.83587 247.427409 
L 295.312321 246.732173 
L 295.788771 245.3417 
L 296.265222 245.063605 
L 297.218124 242.560754 
L 297.694574 241.309328 
L 298.171025 240.614092 
L 299.123927 237.972193 
L 299.600378 236.442673 
L 300.076828 235.608389 
L 302.935533 228.795072 
L 303.411984 227.404599 
L 303.888434 227.126505 
L 304.364885 224.623654 
L 304.841336 223.094133 
L 305.317787 222.120802 
L 305.794237 219.339857 
L 306.270688 218.505573 
L 307.70004 214.195107 
L 308.176491 213.360823 
L 308.652942 211.831303 
L 309.129393 210.997019 
L 310.082294 207.38179 
L 310.558745 206.547506 
L 311.035196 203.627513 
L 311.511646 202.23704 
L 311.988097 200.290378 
L 312.940999 197.787527 
L 313.417449 195.006581 
L 313.8939 193.198966 
L 319.134859 165.111414 
L 319.611309 162.052373 
L 320.08776 159.966664 
L 320.564211 158.854286 
L 321.040662 154.682867 
L 322.946465 143.559084 
L 323.422915 143.559084 
L 323.899366 140.082902 
L 324.375817 138.831476 
L 325.805169 133.547679 
L 326.28162 133.686726 
L 326.758071 130.349592 
L 327.234521 129.237213 
L 328.187423 126.039126 
L 328.663874 124.7877 
L 329.140324 124.370558 
L 330.093226 118.669619 
L 330.569677 117.696288 
L 331.046128 119.086761 
L 331.522578 115.749626 
L 331.999029 116.027721 
L 332.47548 115.749626 
L 332.951931 113.107728 
L 333.428381 115.193437 
L 333.904832 113.52487 
L 334.381283 115.610579 
L 334.857734 118.530572 
L 335.810635 129.515308 
L 336.763537 144.115273 
L 337.716438 163.859988 
L 338.66934 186.663744 
L 339.622241 203.627513 
L 341.528044 240.475045 
L 342.480946 256.048341 
L 343.433847 268.840692 
L 343.910298 273.707347 
L 344.863199 278.991144 
L 345.816101 282.189231 
L 346.292552 283.023515 
L 346.769003 283.023515 
L 347.245453 283.162562 
L 347.721904 283.023515 
L 348.198355 283.718752 
L 348.674806 283.857799 
L 349.151256 283.857799 
L 349.627707 284.135893 
L 350.580609 283.857799 
L 351.057059 283.996846 
L 351.53351 284.413988 
L 352.009961 284.553035 
L 352.486412 284.413988 
L 352.962862 284.553035 
L 353.915764 283.996846 
L 354.392215 283.440657 
L 354.868665 283.579704 
L 355.345116 283.30161 
L 356.298018 283.023515 
L 356.774468 283.162562 
L 357.250919 283.162562 
L 358.203821 282.884468 
L 358.680271 282.606373 
L 359.156722 283.023515 
L 359.633173 283.023515 
L 360.109624 282.745421 
L 360.586074 282.745421 
L 361.062525 282.606373 
L 362.015427 281.354948 
L 362.491878 281.354948 
L 362.968328 281.076853 
L 364.397681 280.659711 
L 364.874131 280.381617 
L 365.350582 280.520664 
L 366.303484 279.68638 
L 366.779934 280.520664 
L 367.256385 279.547333 
L 367.732836 279.825427 
L 368.209287 279.269238 
L 368.685737 279.269238 
L 369.162188 278.991144 
L 369.638639 278.15686 
L 370.59154 277.600671 
L 371.067991 277.044482 
L 371.544442 277.044482 
L 372.020893 276.766387 
L 372.497343 276.349245 
L 373.450245 276.071151 
L 373.926696 276.210198 
L 374.879597 275.09782 
L 375.356048 274.958772 
L 376.308949 273.985441 
L 376.7854 273.290205 
L 377.261851 273.151158 
L 377.738302 272.316874 
L 378.214753 272.038779 
L 378.691203 271.899732 
L 379.167654 271.899732 
L 380.120556 270.926401 
L 380.597006 270.787354 
L 381.073457 270.509259 
L 383.932162 267.311171 
L 384.408612 267.033077 
L 384.885063 266.198793 
L 386.790866 263.834989 
L 387.267317 263.695942 
L 387.743768 263.139753 
L 388.220218 263.000705 
L 388.696669 262.027374 
L 389.649571 260.497854 
L 390.126021 259.385476 
L 390.602472 258.968334 
L 391.078923 258.273098 
L 391.555374 257.160719 
L 392.508275 256.048341 
L 392.984726 254.657868 
L 393.461177 254.101679 
L 393.937628 254.101679 
L 394.414078 253.962632 
L 394.890529 252.155017 
L 395.36698 251.737875 
L 395.843431 250.486449 
L 396.319881 249.791213 
L 396.796332 248.40074 
L 397.749234 246.593125 
L 398.225684 246.175983 
L 398.702135 245.202652 
L 399.178586 243.951227 
L 401.084389 240.475045 
L 401.56084 240.335997 
L 403.466643 235.330295 
L 403.943093 234.913153 
L 404.419544 233.800775 
L 404.895995 231.99316 
L 405.372446 231.854113 
L 405.848896 231.019829 
L 406.801798 227.682694 
L 408.707601 222.955086 
L 409.184052 221.564613 
L 409.660503 218.922715 
L 410.136953 217.671289 
L 411.566306 212.665587 
L 412.042756 211.553208 
L 412.519207 209.745594 
L 412.995658 209.328452 
L 415.219095 200.290378 
L 415.695545 197.787527 
L 416.171996 196.258007 
L 416.569039 194.172297 
L 417.045489 193.338014 
L 417.442532 191.947541 
L 417.918982 188.193264 
L 418.316025 187.35898 
L 418.713067 184.021845 
L 419.110109 182.492325 
L 419.58656 179.989474 
L 420.380645 174.01044 
L 420.777687 172.063778 
L 421.889405 164.416177 
L 422.286448 163.581894 
L 422.604081 160.661901 
L 423.7158 153.570489 
L 424.668701 147.035266 
L 424.986335 145.366699 
L 425.303969 144.393368 
L 425.621603 142.863848 
L 425.859828 142.307658 
L 426.177462 140.639091 
L 426.415687 140.639091 
L 426.971547 138.414334 
L 427.209772 138.414334 
L 427.447997 137.719098 
L 427.924448 135.355294 
L 428.162674 134.938152 
L 428.400899 134.799105 
L 428.797941 133.964821 
L 429.194984 133.964821 
L 429.433209 133.825774 
L 429.592026 134.103868 
L 429.750843 133.547679 
L 430.38611 130.210544 
L 430.465519 131.740064 
L 430.624336 128.263882 
L 430.783153 127.707693 
L 431.339012 114.498201 
L 431.41842 117.696288 
L 431.497829 117.418194 
L 431.815463 122.562943 
L 431.894871 122.145801 
L 431.97428 121.033423 
L 431.97428 122.284849 
L 432.053688 123.25818 
L 432.133097 156.907624 
L 432.133097 155.239056 
" clip-path="url(#p866d74dec0)" style="fill: none; stroke: #1f77b4; stroke-width: 1.5; stroke-linecap: square"/>
   </g>
   <g id="line2d_28">
    <path d="M 74.795028 291.783494 
L 93.86894 291.783494 
L 94.798019 291.088258 
L 95.266529 290.949211 
L 95.735039 289.97588 
L 96.203549 290.114927 
L 96.68 289.97588 
L 97.156451 289.697785 
L 97.624961 289.697785 
L 98.101411 289.558738 
L 98.577862 289.141596 
L 99.054313 289.002549 
L 99.530764 288.446359 
L 100.007214 288.168265 
L 100.483665 287.751123 
L 100.960116 287.89017 
L 101.436567 287.473028 
L 101.913017 289.002549 
L 102.389468 289.002549 
L 102.865919 289.41969 
L 103.34237 289.41969 
L 104.295271 289.697785 
L 104.771722 288.585407 
L 105.248173 288.724454 
L 105.724623 289.002549 
L 106.201074 289.697785 
L 107.153976 289.697785 
L 108.106877 290.532069 
L 109.059779 290.810163 
L 110.01268 291.644447 
L 110.489131 291.783494 
L 432.133097 291.783494 
L 432.133097 291.783494 
" clip-path="url(#p866d74dec0)" style="fill: none; stroke: #ff7f0e; stroke-width: 1.5; stroke-linecap: square"/>
   </g>
   <g id="line2d_29">
    <path d="M 74.795028 291.783494 
L 105.248173 291.783494 
L 105.724623 291.227305 
L 106.201074 291.783494 
L 110.01268 291.783494 
L 110.489131 290.671116 
L 110.965582 291.783494 
L 114.777188 291.783494 
L 115.253639 290.393021 
L 115.730089 291.783494 
L 116.20654 291.783494 
L 117.159442 290.532069 
L 117.635892 290.532069 
L 118.112343 290.114927 
L 119.065245 290.393021 
L 119.541695 290.114927 
L 120.018146 289.697785 
L 120.494597 289.558738 
L 120.971048 291.783494 
L 121.447498 289.697785 
L 121.923949 289.697785 
L 122.4004 291.783494 
L 122.876851 289.41969 
L 123.353301 288.863501 
L 123.829752 291.644447 
L 124.306203 290.532069 
L 124.782654 289.97588 
L 125.259104 289.97588 
L 125.735555 289.697785 
L 126.688457 289.697785 
L 127.164908 286.916839 
L 127.641358 285.943508 
L 128.117809 285.943508 
L 128.59426 286.221603 
L 129.070711 285.943508 
L 129.547161 286.082555 
L 130.023612 285.943508 
L 130.500063 285.387319 
L 130.976514 285.248272 
L 131.452964 289.41969 
L 131.929415 291.783494 
L 132.405866 284.274941 
L 132.882317 285.248272 
L 133.358767 284.83113 
L 133.835218 284.692083 
L 134.311669 285.248272 
L 134.78812 287.473028 
L 135.26457 285.943508 
L 135.741021 285.248272 
L 136.217472 285.248272 
L 136.693923 284.83113 
L 137.170373 283.579704 
L 137.646824 284.413988 
L 138.123275 282.050184 
L 140.505529 279.825427 
L 140.981979 278.713049 
L 141.45843 278.852096 
L 141.934881 280.659711 
L 142.411332 277.878765 
L 142.887783 277.461624 
L 143.364233 276.766387 
L 143.840684 277.461624 
L 144.317135 276.349245 
L 144.793586 276.766387 
L 145.270036 279.825427 
L 145.746487 276.210198 
L 146.222938 276.766387 
L 146.699389 276.071151 
L 147.175839 275.654009 
L 147.65229 274.402583 
L 148.128741 276.210198 
L 148.605192 273.290205 
L 149.081642 272.038779 
L 149.558093 271.899732 
L 150.034544 271.899732 
L 150.510995 272.734016 
L 150.987445 274.124489 
L 151.463896 279.547333 
L 151.940347 271.899732 
L 152.416798 271.899732 
L 152.893248 274.263536 
L 153.369699 271.48259 
L 153.84615 270.648306 
L 154.362305 271.204496 
L 154.838756 270.648306 
L 155.791657 271.621637 
L 156.268108 274.402583 
L 156.744559 273.151158 
L 157.221009 273.151158 
L 157.69746 272.873063 
L 158.173911 273.429252 
L 158.650362 275.793056 
L 159.126812 270.926401 
L 159.603263 271.065448 
L 160.079714 272.038779 
L 160.556165 273.290205 
L 161.032616 279.964475 
L 161.509066 273.707347 
L 161.985517 274.819725 
L 162.461968 273.568299 
L 162.938419 275.654009 
L 163.414869 276.349245 
L 163.89132 277.322576 
L 164.367771 277.878765 
L 164.844222 278.017813 
L 165.320672 279.825427 
L 165.797123 283.579704 
L 166.273574 279.408286 
L 166.750025 282.050184 
L 167.226475 282.745421 
L 167.702926 283.162562 
L 168.179377 283.30161 
L 168.655828 288.307312 
L 169.608729 279.825427 
L 170.08518 279.408286 
L 170.561631 283.718752 
L 171.038081 283.023515 
L 171.514532 284.83113 
L 171.990983 283.162562 
L 172.943884 284.413988 
L 173.420335 284.83113 
L 174.373237 286.221603 
L 174.849687 285.943508 
L 175.326138 287.612076 
L 175.802589 288.446359 
L 176.27904 287.89017 
L 176.755491 291.5054 
L 177.231941 291.783494 
L 195.734112 291.783494 
L 196.210563 291.644447 
L 196.687014 291.783494 
L 199.545718 291.783494 
L 200.022169 289.697785 
L 200.49862 291.783494 
L 205.263128 291.783494 
L 205.739578 291.5054 
L 206.216029 291.783494 
L 209.074734 291.783494 
L 209.551184 290.393021 
L 210.504086 290.671116 
L 210.980537 289.697785 
L 211.456987 289.97588 
L 211.933438 289.97588 
L 212.409889 289.697785 
L 212.88634 289.558738 
L 213.839241 289.558738 
L 214.315692 291.783494 
L 214.792143 289.697785 
L 215.268593 289.697785 
L 215.745044 288.863501 
L 216.221495 291.783494 
L 216.697946 290.949211 
L 217.174396 291.5054 
L 217.650847 290.532069 
L 218.127298 290.393021 
L 218.603749 287.89017 
L 219.080199 287.333981 
L 219.55665 287.751123 
L 220.033101 287.473028 
L 220.509552 286.916839 
L 220.986003 283.996846 
L 221.462453 286.499697 
L 221.938904 291.366352 
L 222.415355 286.916839 
L 222.891806 287.89017 
L 223.368256 284.274941 
L 223.844707 285.804461 
L 224.321158 285.943508 
L 224.797609 283.996846 
L 225.274059 285.248272 
L 225.75051 287.194934 
L 226.226961 287.473028 
L 226.703412 286.916839 
L 227.179862 287.194934 
L 228.609215 285.943508 
L 229.085665 281.633042 
L 229.562116 283.162562 
L 230.515018 282.884468 
L 230.991468 283.440657 
L 231.467919 282.884468 
L 231.94437 281.354948 
L 232.420821 281.2159 
L 232.897271 280.798758 
L 233.373722 280.659711 
L 233.850173 280.103522 
L 234.326624 278.434955 
L 234.803074 280.103522 
L 235.279525 278.574002 
L 235.755976 278.295907 
L 236.232427 279.408286 
L 236.708878 279.408286 
L 237.661779 277.600671 
L 238.13823 278.434955 
L 238.614681 275.09782 
L 239.091131 274.680678 
L 239.567582 274.54163 
L 240.520484 273.846394 
L 240.996934 272.594968 
L 241.949836 272.038779 
L 242.426287 271.48259 
L 242.902737 270.648306 
L 243.379188 270.926401 
L 244.33209 268.840692 
L 244.80854 277.739718 
L 245.284991 271.621637 
L 245.761442 271.899732 
L 246.714343 271.899732 
L 247.190794 269.257833 
L 247.667245 271.065448 
L 248.143696 267.867361 
L 248.620146 267.450219 
L 249.096597 266.198793 
L 249.573048 267.450219 
L 250.049499 265.642604 
L 250.525949 264.947368 
L 251.0024 264.947368 
L 251.478851 264.252131 
L 251.955302 263.2788 
L 252.431753 263.000705 
L 253.384654 261.471185 
L 253.861105 261.471185 
L 254.337556 261.332138 
L 254.814006 263.834989 
L 255.290457 263.2788 
L 255.766908 263.974036 
L 256.243359 264.252131 
L 256.719809 269.674975 
L 257.19626 263.974036 
L 257.672711 262.166422 
L 258.149162 261.610233 
L 258.625612 261.74928 
L 259.102063 261.471185 
L 259.578514 262.722611 
L 260.054965 263.000705 
L 260.531415 262.722611 
L 261.007866 263.000705 
L 261.484317 262.583564 
L 261.960768 263.695942 
L 262.437218 263.417847 
L 262.913669 263.695942 
L 263.39012 268.145455 
L 263.866571 263.974036 
L 264.343021 265.503557 
L 264.819472 263.974036 
L 265.295923 264.80832 
L 265.772374 264.80832 
L 266.248824 263.417847 
L 266.725275 263.974036 
L 267.201726 261.193091 
L 267.678177 261.74928 
L 268.154628 262.861658 
L 268.631078 262.722611 
L 269.107529 263.000705 
L 269.58398 263.000705 
L 270.060431 264.669273 
L 270.536881 264.947368 
L 271.013332 265.920699 
L 271.489783 268.42355 
L 271.966234 267.172124 
L 272.442684 267.450219 
L 272.919135 267.450219 
L 273.395586 271.48259 
L 273.872037 271.899732 
L 274.348487 272.594968 
L 274.824938 273.985441 
L 275.77784 275.375914 
L 276.25429 274.124489 
L 276.730741 273.290205 
L 277.207192 276.349245 
L 278.160093 279.825427 
L 278.636544 280.659711 
L 279.589446 283.30161 
L 280.065896 283.857799 
L 280.542347 286.221603 
L 281.018798 285.526366 
L 281.495249 290.949211 
L 281.971699 291.783494 
L 282.44815 290.532069 
L 282.924601 291.644447 
L 283.401052 291.783494 
L 290.071362 291.783494 
L 290.547813 290.532069 
L 291.024264 291.783494 
L 294.359419 291.783494 
L 294.83587 290.810163 
L 295.312321 290.671116 
L 295.788771 290.114927 
L 296.741673 290.114927 
L 297.218124 289.97588 
L 297.694574 289.558738 
L 298.171025 289.41969 
L 298.647476 289.558738 
L 299.123927 289.558738 
L 299.600378 289.697785 
L 300.076828 289.697785 
L 300.553279 291.783494 
L 301.02973 289.41969 
L 301.506181 291.783494 
L 301.982631 290.949211 
L 302.459082 291.783494 
L 303.411984 291.783494 
L 303.888434 289.41969 
L 304.364885 289.141596 
L 304.841336 289.697785 
L 305.317787 289.41969 
L 305.794237 289.97588 
L 306.270688 288.168265 
L 306.747139 289.697785 
L 307.22359 289.697785 
L 307.70004 289.558738 
L 308.176491 289.697785 
L 308.652942 289.558738 
L 309.129393 287.89017 
L 309.605843 291.783494 
L 310.082294 290.253974 
L 310.558745 291.783494 
L 311.511646 291.783494 
L 311.988097 290.949211 
L 312.464548 289.280643 
L 312.940999 287.055886 
L 313.417449 288.863501 
L 313.8939 288.724454 
L 314.370351 289.002549 
L 315.323253 287.473028 
L 315.799703 287.194934 
L 316.276154 291.783494 
L 316.752605 285.109224 
L 317.229056 288.307312 
L 317.705506 288.307312 
L 318.181957 290.532069 
L 318.658408 289.697785 
L 319.134859 290.393021 
L 319.611309 289.836832 
L 320.08776 289.836832 
L 320.564211 289.697785 
L 321.040662 289.41969 
L 321.517112 286.638745 
L 321.993563 286.638745 
L 322.470014 287.194934 
L 322.946465 287.055886 
L 323.422915 291.783494 
L 323.899366 285.943508 
L 324.375817 285.248272 
L 324.852268 282.606373 
L 325.328718 285.526366 
L 325.805169 283.440657 
L 326.28162 285.109224 
L 326.758071 285.248272 
L 327.234521 287.055886 
L 327.710972 287.194934 
L 328.187423 286.221603 
L 328.663874 283.023515 
L 329.140324 285.248272 
L 329.616775 284.970177 
L 330.093226 282.050184 
L 331.999029 280.520664 
L 332.47548 280.242569 
L 333.904832 277.600671 
L 334.381283 278.574002 
L 334.857734 278.15686 
L 335.334184 281.493995 
L 335.810635 281.772089 
L 336.287086 280.520664 
L 336.763537 280.798758 
L 337.239987 279.825427 
L 337.716438 279.269238 
L 338.192889 277.044482 
L 338.66934 272.873063 
L 339.14579 275.09782 
L 339.622241 274.958772 
L 340.098692 274.54163 
L 340.575143 273.429252 
L 341.051593 273.707347 
L 341.528044 274.958772 
L 342.004495 272.316874 
L 342.480946 271.899732 
L 342.957396 272.038779 
L 343.433847 274.819725 
L 344.863199 273.429252 
L 345.33965 272.594968 
L 345.816101 273.151158 
L 346.292552 271.899732 
L 346.769003 267.867361 
L 347.245453 267.867361 
L 347.721904 267.450219 
L 348.198355 266.754982 
L 348.674806 265.086415 
L 349.151256 264.530226 
L 349.627707 264.80832 
L 350.104158 263.2788 
L 350.580609 264.391178 
L 351.057059 263.556895 
L 351.53351 268.284502 
L 352.009961 266.476888 
L 352.486412 267.450219 
L 352.962862 266.476888 
L 353.439313 266.476888 
L 353.915764 265.642604 
L 354.392215 261.471185 
L 355.345116 260.775949 
L 356.298018 259.246429 
L 356.774468 267.450219 
L 357.250919 258.551192 
L 357.72737 258.412145 
L 358.203821 260.775949 
L 358.680271 256.60453 
L 359.156722 266.615935 
L 359.633173 258.829287 
L 360.109624 258.551192 
L 361.062525 257.855956 
L 361.538976 255.770246 
L 362.015427 251.876922 
L 362.491878 251.042639 
L 362.968328 250.903591 
L 363.444779 250.069308 
L 363.92123 253.267395 
L 364.874131 249.652166 
L 365.350582 249.374071 
L 365.827033 248.817882 
L 366.303484 251.598828 
L 366.779934 252.433111 
L 367.256385 249.791213 
L 367.732836 250.486449 
L 368.209287 252.01597 
L 368.685737 251.737875 
L 369.162188 252.155017 
L 369.638639 248.956929 
L 370.11509 249.791213 
L 370.59154 251.598828 
L 371.067991 253.962632 
L 371.544442 252.155017 
L 372.020893 252.989301 
L 372.497343 256.465483 
L 372.973794 254.796915 
L 373.450245 253.962632 
L 373.926696 260.21976 
L 374.403146 261.471185 
L 375.356048 263.000705 
L 375.832499 264.530226 
L 376.308949 260.497854 
L 376.7854 262.305469 
L 377.261851 261.332138 
L 377.738302 263.000705 
L 378.214753 263.695942 
L 378.691203 266.754982 
L 379.167654 265.364509 
L 379.644105 266.615935 
L 380.120556 270.509259 
L 380.597006 273.151158 
L 381.073457 273.846394 
L 381.549908 276.766387 
L 382.026359 277.739718 
L 382.502809 279.825427 
L 382.97926 280.520664 
L 383.455711 276.349245 
L 383.932162 277.878765 
L 384.408612 280.659711 
L 384.885063 281.493995 
L 385.837965 283.996846 
L 386.314415 284.83113 
L 386.790866 283.996846 
L 387.267317 290.393021 
L 387.743768 290.393021 
L 388.696669 291.783494 
L 389.649571 291.783494 
L 390.126021 286.082555 
L 390.602472 287.055886 
L 391.078923 286.082555 
L 391.555374 289.697785 
L 392.031824 286.082555 
L 392.508275 285.804461 
L 392.984726 285.387319 
L 393.461177 289.836832 
L 393.937628 290.114927 
L 394.414078 291.783494 
L 395.36698 289.697785 
L 395.843431 289.280643 
L 396.319881 289.697785 
L 396.796332 283.857799 
L 397.272783 283.857799 
L 397.749234 283.718752 
L 398.225684 283.023515 
L 398.702135 283.023515 
L 399.178586 282.884468 
L 399.655037 284.413988 
L 400.131487 289.002549 
L 400.607938 288.168265 
L 401.084389 288.446359 
L 401.56084 288.168265 
L 402.03729 287.751123 
L 402.513741 288.168265 
L 402.990192 282.606373 
L 403.466643 279.408286 
L 403.943093 281.2159 
L 404.895995 282.745421 
L 405.372446 283.023515 
L 405.848896 283.162562 
L 406.325347 288.168265 
L 406.801798 289.697785 
L 407.278249 289.697785 
L 407.754699 290.114927 
L 408.23115 289.697785 
L 408.707601 284.970177 
L 409.184052 283.718752 
L 409.660503 283.440657 
L 410.136953 284.274941 
L 410.613404 283.023515 
L 411.089855 287.89017 
L 411.566306 283.718752 
L 412.042756 289.697785 
L 412.519207 289.97588 
L 412.995658 289.558738 
L 413.472109 289.697785 
L 413.869151 289.697785 
L 414.345602 283.023515 
L 414.822052 280.937806 
L 415.219095 282.189231 
L 415.695545 282.606373 
L 416.171996 281.493995 
L 416.569039 281.076853 
L 417.045489 287.473028 
L 417.442532 285.943508 
L 417.918982 287.473028 
L 418.316025 287.333981 
L 418.713067 288.168265 
L 419.110109 285.387319 
L 419.58656 286.499697 
L 419.983602 278.295907 
L 420.380645 278.434955 
L 420.777687 278.713049 
L 421.174729 277.878765 
L 421.492363 280.798758 
L 421.889405 276.488293 
L 422.286448 284.135893 
L 422.604081 284.413988 
L 423.001124 283.023515 
L 423.318758 283.857799 
L 423.7158 283.30161 
L 424.033434 283.162562 
L 424.351068 282.884468 
L 424.668701 273.846394 
L 424.986335 273.707347 
L 425.303969 272.177827 
L 425.621603 271.899732 
L 425.859828 270.787354 
L 426.177462 276.488293 
L 426.415687 278.713049 
L 426.733321 279.408286 
L 426.971547 276.349245 
L 427.209772 278.574002 
L 427.447997 277.461624 
L 427.686223 268.006408 
L 427.924448 268.979739 
L 428.400899 267.172124 
L 428.639124 267.033077 
L 428.797941 265.503557 
L 429.036167 275.09782 
L 429.194984 274.819725 
L 429.433209 274.819725 
L 429.750843 273.290205 
L 429.90966 273.985441 
L 430.068477 263.417847 
L 430.227294 263.000705 
L 430.38611 261.332138 
L 430.465519 263.000705 
L 430.624336 261.193091 
L 430.862561 270.509259 
L 430.94197 270.648306 
L 431.100787 270.648306 
L 431.259604 269.814023 
L 431.41842 258.968334 
L 431.497829 259.802618 
L 431.656646 257.021672 
L 431.736054 267.728313 
L 431.815463 267.867361 
L 431.894871 266.198793 
L 432.053688 255.909294 
L 432.053688 265.920699 
L 432.133097 249.235024 
L 432.133097 262.027374 
" clip-path="url(#p866d74dec0)" style="fill: none; stroke: #2ca02c; stroke-width: 1.5; stroke-linecap: square"/>
   </g>
   <g id="line2d_30">
    <path d="M 74.795028 169.839022 
L 74.826792 174.705677 
L 74.811291 169.699974 
L 74.90223 169.978069 
L 74.925099 173.037109 
L 74.951066 169.699974 
L 74.980288 170.117116 
L 75.133229 169.143785 
L 75.181509 169.839022 
L 75.234157 168.031407 
L 75.291331 168.587596 
L 75.569737 165.528556 
L 75.65264 166.640934 
L 75.836073 164.694272 
L 76.156883 163.303799 
L 76.403844 163.303799 
L 76.538044 165.528556 
L 76.679391 164.138083 
L 76.982731 164.972367 
L 77.145519 164.972367 
L 77.315453 165.389508 
L 77.49174 166.362839 
L 78.270737 174.01044 
L 79.405484 189.861831 
L 79.654032 194.589439 
L 79.909727 203.627513 
L 80.171775 203.76656 
L 81.592393 228.656025 
L 83.188503 249.652166 
L 83.879356 260.358807 
L 84.967252 274.124489 
L 85.721632 280.798758 
L 86.499835 284.970177 
L 86.896878 286.082555 
L 87.301861 289.002549 
L 87.714785 289.002549 
L 88.127709 289.697785 
L 88.540633 289.836832 
L 88.969438 289.836832 
L 89.398244 290.949211 
L 89.82705 291.227305 
L 90.700543 291.227305 
L 91.14523 291.644447 
L 91.589918 291.783494 
L 93.86894 291.783494 
L 94.33745 291.644447 
L 94.798019 291.644447 
L 95.266529 291.783494 
L 96.203549 291.783494 
L 96.68 291.5054 
L 97.156451 291.783494 
L 97.624961 291.366352 
L 98.101411 291.227305 
L 98.577862 291.227305 
L 99.054313 291.088258 
L 99.530764 291.088258 
L 100.007214 290.393021 
L 101.436567 290.393021 
L 101.913017 290.532069 
L 102.389468 290.532069 
L 103.34237 290.253974 
L 103.81882 289.97588 
L 104.295271 289.97588 
L 104.771722 290.393021 
L 105.248173 289.697785 
L 108.583328 289.697785 
L 109.059779 289.280643 
L 109.536229 289.280643 
L 110.01268 289.002549 
L 110.489131 288.863501 
L 110.965582 288.863501 
L 111.442033 289.280643 
L 111.918483 288.307312 
L 112.394934 288.307312 
L 112.871385 291.783494 
L 113.347836 291.783494 
L 113.824286 287.89017 
L 114.300737 287.612076 
L 114.777188 287.612076 
L 115.253639 287.333981 
L 115.730089 286.777792 
L 116.20654 286.777792 
L 116.682991 287.194934 
L 117.159442 286.499697 
L 117.635892 286.221603 
L 118.112343 285.804461 
L 118.588794 285.665414 
L 119.065245 285.665414 
L 119.541695 285.248272 
L 120.018146 285.248272 
L 120.494597 284.83113 
L 120.971048 284.83113 
L 121.447498 284.274941 
L 121.923949 284.274941 
L 122.4004 283.718752 
L 122.876851 283.718752 
L 123.353301 283.023515 
L 124.306203 283.023515 
L 125.259104 282.328279 
L 125.735555 282.050184 
L 126.212006 281.493995 
L 126.688457 281.354948 
L 127.164908 280.798758 
L 127.641358 280.520664 
L 128.117809 280.381617 
L 128.59426 279.547333 
L 129.070711 279.269238 
L 130.023612 277.739718 
L 130.500063 277.739718 
L 130.976514 276.488293 
L 131.452964 276.488293 
L 131.929415 276.349245 
L 132.405866 275.932103 
L 132.882317 274.958772 
L 133.835218 274.124489 
L 135.26457 272.177827 
L 135.741021 272.038779 
L 136.217472 271.760685 
L 137.170373 270.926401 
L 137.646824 269.95307 
L 139.076176 267.867361 
L 139.552627 267.589266 
L 140.029078 266.754982 
L 140.505529 266.754982 
L 141.45843 264.80832 
L 141.934881 264.80832 
L 142.411332 263.139753 
L 142.887783 263.139753 
L 143.364233 262.027374 
L 143.840684 262.027374 
L 144.317135 260.21976 
L 144.793586 260.21976 
L 145.270036 258.551192 
L 145.746487 258.551192 
L 146.222938 258.13405 
L 146.699389 256.743577 
L 147.175839 256.187388 
L 148.128741 254.101679 
L 149.081642 252.294064 
L 149.558093 250.486449 
L 150.034544 250.486449 
L 150.510995 249.652166 
L 150.987445 247.427409 
L 151.463896 247.427409 
L 151.940347 245.202652 
L 152.416798 245.202652 
L 153.369699 243.116943 
L 155.315206 238.528383 
L 155.791657 236.859815 
L 156.268108 234.774106 
L 156.744559 234.774106 
L 158.650362 228.93412 
L 159.126812 226.292221 
L 159.603263 226.292221 
L 160.079714 222.955086 
L 160.556165 222.955086 
L 161.032616 218.922715 
L 161.509066 218.922715 
L 161.985517 221.425566 
L 162.461968 215.029391 
L 162.938419 213.917012 
L 164.844222 205.29608 
L 165.320672 203.488466 
L 166.750025 196.536101 
L 167.226475 194.728486 
L 167.702926 192.086588 
L 168.179377 190.41802 
L 169.608729 182.909467 
L 170.08518 180.545663 
L 170.561631 175.957102 
L 171.038081 175.957102 
L 171.990983 170.534258 
L 172.467434 168.726643 
L 172.943884 165.945698 
L 173.420335 164.138083 
L 175.326138 154.126678 
L 175.802589 151.762874 
L 177.708392 139.248618 
L 178.661294 131.601017 
L 179.137744 127.429598 
L 179.614195 120.199139 
L 180.090646 120.199139 
L 180.567097 114.915342 
L 181.043547 106.8506 
L 181.44059 106.8506 
L 181.91704 100.315377 
L 182.393491 100.315377 
L 182.869942 97.117289 
L 183.346393 96.143958 
L 183.822843 96.143958 
L 184.299294 100.037283 
L 184.775745 100.037283 
L 185.252196 112.134397 
L 185.728646 112.134397 
L 186.205097 132.574348 
L 186.681548 132.574348 
L 187.157999 159.271428 
L 187.634449 159.271428 
L 189.063802 201.402756 
L 189.540253 230.185545 
L 190.016703 230.185545 
L 190.493154 252.433111 
L 190.969605 252.433111 
L 191.922506 268.42355 
L 192.398957 274.263536 
L 193.351859 281.493995 
L 193.828309 283.857799 
L 194.30476 287.055886 
L 194.781211 287.055886 
L 195.257662 288.307312 
L 195.734112 288.307312 
L 196.210563 289.697785 
L 198.116366 289.697785 
L 198.592817 289.97588 
L 199.069268 289.697785 
L 199.545718 289.836832 
L 200.022169 289.697785 
L 200.49862 289.697785 
L 200.975071 289.558738 
L 201.451521 289.558738 
L 201.927972 289.280643 
L 202.404423 289.558738 
L 202.880874 289.558738 
L 203.357324 289.141596 
L 203.833775 289.141596 
L 204.310226 288.446359 
L 204.786677 288.446359 
L 205.263128 288.863501 
L 205.739578 288.029218 
L 206.216029 288.029218 
L 206.69248 288.724454 
L 207.168931 287.751123 
L 207.645381 287.89017 
L 208.121832 287.751123 
L 208.598283 287.055886 
L 209.551184 287.055886 
L 210.027635 286.638745 
L 210.504086 286.499697 
L 210.980537 285.943508 
L 211.456987 285.943508 
L 211.933438 285.387319 
L 212.409889 285.665414 
L 212.88634 285.248272 
L 213.36279 285.248272 
L 213.839241 284.553035 
L 214.315692 284.553035 
L 214.792143 284.83113 
L 215.268593 284.83113 
L 215.745044 284.413988 
L 216.221495 284.413988 
L 217.174396 283.023515 
L 217.650847 283.162562 
L 218.127298 283.162562 
L 219.080199 282.606373 
L 219.55665 282.606373 
L 220.033101 281.911137 
L 220.509552 281.772089 
L 220.986003 281.911137 
L 221.462453 280.798758 
L 221.938904 280.798758 
L 222.415355 280.520664 
L 222.891806 280.520664 
L 223.368256 280.103522 
L 223.844707 280.103522 
L 224.321158 278.991144 
L 224.797609 278.991144 
L 225.274059 278.713049 
L 225.75051 278.15686 
L 226.226961 278.15686 
L 226.703412 277.600671 
L 227.179862 276.62734 
L 227.656313 276.62734 
L 228.132764 276.349245 
L 229.085665 275.514961 
L 229.562116 274.680678 
L 230.038567 274.54163 
L 230.515018 273.985441 
L 230.991468 273.707347 
L 231.94437 272.177827 
L 232.897271 271.621637 
L 233.373722 271.48259 
L 233.850173 270.926401 
L 234.326624 269.814023 
L 234.803074 269.814023 
L 235.279525 268.284502 
L 235.755976 268.284502 
L 236.232427 267.589266 
L 236.708878 267.589266 
L 237.661779 266.476888 
L 238.13823 265.642604 
L 238.614681 265.642604 
L 239.091131 264.530226 
L 239.567582 263.974036 
L 240.044033 262.861658 
L 240.520484 262.861658 
L 240.996934 264.252131 
L 241.473385 260.914996 
L 241.949836 260.914996 
L 242.426287 259.524523 
L 242.902737 258.690239 
L 243.379188 258.551192 
L 243.855639 257.299767 
L 244.33209 256.465483 
L 244.80854 254.796915 
L 245.284991 254.796915 
L 245.761442 253.823584 
L 246.714343 252.294064 
L 247.667245 249.791213 
L 248.620146 247.983598 
L 249.573048 245.3417 
L 250.049499 244.785511 
L 250.525949 242.699801 
L 251.0024 242.699801 
L 251.478851 245.3417 
L 251.955302 240.335997 
L 253.861105 236.025531 
L 254.337556 234.217917 
L 254.814006 233.105538 
L 255.290457 230.46364 
L 255.766908 230.46364 
L 256.243359 227.543647 
L 256.719809 227.543647 
L 257.19626 226.431268 
L 257.672711 224.345559 
L 258.625612 221.286519 
L 259.102063 217.254147 
L 259.578514 217.254147 
L 260.054965 215.863674 
L 260.531415 213.638918 
L 261.007866 212.109398 
L 266.248824 190.835162 
L 266.725275 188.054217 
L 267.201726 185.968507 
L 267.678177 183.048514 
L 268.154628 181.658041 
L 269.107529 176.235197 
L 269.58398 173.871393 
L 270.060431 170.812353 
L 270.536881 165.111414 
L 271.013332 165.111414 
L 271.489783 159.271428 
L 271.966234 159.271428 
L 272.442684 153.153347 
L 272.919135 153.153347 
L 273.395586 146.896219 
L 273.872037 146.896219 
L 274.824938 140.221949 
L 275.301389 134.660058 
L 275.77784 134.660058 
L 276.730741 128.263882 
L 277.207192 125.621984 
L 277.683643 120.338187 
L 278.160093 120.338187 
L 278.636544 113.246775 
L 279.112995 109.353451 
L 279.589446 106.572505 
L 280.065896 106.572505 
L 280.542347 98.368715 
L 281.018798 98.368715 
L 281.495249 90.164925 
L 281.971699 90.164925 
L 283.401052 76.121149 
L 284.353953 71.393541 
L 284.830404 71.393541 
L 285.306855 64.997366 
L 285.783306 64.997366 
L 286.736207 60.6869 
L 287.689109 60.6869 
L 288.165559 70.837352 
L 288.64201 70.837352 
L 289.118461 81.822088 
L 289.594912 116.862005 
L 290.071362 116.862005 
L 290.547813 158.854286 
L 291.024264 158.854286 
L 291.500715 196.258007 
L 291.977165 196.258007 
L 292.930067 229.629356 
L 293.882968 252.01597 
L 294.83587 267.450219 
L 295.312321 272.038779 
L 296.265222 278.295907 
L 296.741673 280.798758 
L 297.694574 283.718752 
L 298.647476 285.526366 
L 299.123927 285.526366 
L 299.600378 286.499697 
L 300.076828 287.055886 
L 300.553279 287.055886 
L 301.02973 287.473028 
L 301.982631 287.473028 
L 302.459082 287.89017 
L 302.935533 287.89017 
L 303.411984 288.168265 
L 303.888434 287.473028 
L 304.364885 287.473028 
L 304.841336 287.194934 
L 305.317787 287.333981 
L 306.270688 286.777792 
L 306.747139 286.638745 
L 307.22359 286.638745 
L 307.70004 286.499697 
L 308.176491 286.499697 
L 308.652942 285.526366 
L 309.129393 285.526366 
L 309.605843 285.387319 
L 310.082294 285.387319 
L 310.558745 285.248272 
L 311.511646 285.248272 
L 311.988097 284.970177 
L 312.464548 284.970177 
L 312.940999 284.413988 
L 313.417449 284.274941 
L 313.8939 283.857799 
L 314.846802 283.857799 
L 315.323253 283.023515 
L 315.799703 283.30161 
L 316.276154 283.023515 
L 316.752605 288.585407 
L 317.229056 282.745421 
L 317.705506 282.745421 
L 318.181957 282.328279 
L 318.658408 287.612076 
L 319.134859 281.2159 
L 319.611309 281.2159 
L 320.08776 281.354948 
L 320.564211 280.937806 
L 321.040662 280.937806 
L 321.993563 280.381617 
L 322.470014 279.825427 
L 322.946465 279.825427 
L 323.422915 279.130191 
L 323.899366 279.130191 
L 324.375817 278.574002 
L 324.852268 278.434955 
L 326.28162 277.044482 
L 326.758071 277.044482 
L 327.234521 276.905434 
L 327.710972 276.488293 
L 328.187423 276.349245 
L 328.663874 275.932103 
L 329.140324 275.932103 
L 329.616775 275.09782 
L 330.093226 275.09782 
L 330.569677 274.263536 
L 331.522578 273.707347 
L 332.951931 272.038779 
L 333.428381 271.899732 
L 333.904832 271.204496 
L 334.381283 271.204496 
L 334.857734 270.092117 
L 335.334184 270.092117 
L 335.810635 269.674975 
L 337.239987 267.450219 
L 337.716438 267.450219 
L 338.192889 266.89403 
L 339.14579 265.225462 
L 339.622241 264.669273 
L 340.098692 263.695942 
L 340.575143 263.000705 
L 341.051593 262.027374 
L 341.528044 262.027374 
L 342.004495 260.358807 
L 342.480946 260.358807 
L 342.957396 258.968334 
L 343.433847 258.968334 
L 344.386749 258.13405 
L 345.33965 255.631199 
L 345.816101 255.631199 
L 346.292552 253.962632 
L 346.769003 253.962632 
L 347.721904 250.903591 
L 348.198355 250.903591 
L 348.674806 249.93026 
L 349.151256 248.261693 
L 349.627707 248.261693 
L 350.104158 246.454078 
L 350.580609 246.454078 
L 351.057059 250.486449 
L 351.53351 242.977896 
L 352.009961 242.977896 
L 352.486412 241.448376 
L 352.962862 240.753139 
L 353.439313 239.640761 
L 354.392215 236.581721 
L 354.868665 235.886484 
L 355.821567 232.549349 
L 356.298018 230.324592 
L 356.774468 230.324592 
L 357.250919 227.543647 
L 357.72737 227.543647 
L 358.203821 229.351261 
L 358.680271 223.372228 
L 359.156722 223.372228 
L 359.633173 221.008424 
L 360.109624 221.008424 
L 361.062525 216.141769 
L 361.538976 216.141769 
L 362.015427 214.05606 
L 362.491878 212.526539 
L 362.968328 211.831303 
L 363.444779 209.328452 
L 363.92123 208.355121 
L 364.397681 205.574175 
L 364.874131 201.263709 
L 365.350582 201.263709 
L 365.827033 196.953243 
L 366.303484 196.953243 
L 366.779934 195.006581 
L 367.256385 192.225635 
L 367.732836 191.947541 
L 368.685737 185.412318 
L 369.162188 184.856129 
L 369.638639 180.267568 
L 370.11509 174.427582 
L 370.59154 174.427582 
L 371.067991 173.315204 
L 371.544442 165.111414 
L 372.020893 165.111414 
L 372.497343 161.913326 
L 372.973794 155.378104 
L 373.450245 155.378104 
L 374.879597 143.280989 
L 375.356048 143.280989 
L 376.308949 130.488639 
L 376.7854 130.488639 
L 377.261851 124.231511 
L 377.738302 124.231511 
L 378.691203 117.418194 
L 379.167654 114.776295 
L 379.644105 108.658214 
L 380.120556 108.658214 
L 380.597006 106.8506 
L 381.549908 98.924904 
L 382.026359 92.667776 
L 382.502809 92.667776 
L 383.932162 80.570662 
L 384.408612 80.15352 
L 384.885063 72.644967 
L 385.361514 69.029737 
L 386.314415 59.852616 
L 388.696669 41.220279 
L 389.17312 38.578381 
L 389.649571 38.995523 
L 390.126021 39.690759 
L 390.602472 41.220279 
L 391.555374 50.953589 
L 392.031824 61.938325 
L 392.508275 91.833492 
L 392.984726 91.833492 
L 393.461177 130.766733 
L 393.937628 130.766733 
L 395.36698 194.450392 
L 396.319881 230.046498 
L 396.796332 244.785511 
L 397.272783 267.867361 
L 397.749234 267.867361 
L 398.225684 275.09782 
L 398.702135 279.825427 
L 399.178586 283.023515 
L 399.655037 284.692083 
L 400.131487 286.777792 
L 400.607938 287.473028 
L 401.084389 287.333981 
L 401.56084 288.724454 
L 402.03729 288.724454 
L 402.513741 289.141596 
L 402.990192 288.168265 
L 403.466643 288.168265 
L 403.943093 287.612076 
L 404.419544 287.333981 
L 404.895995 286.499697 
L 405.372446 286.221603 
L 405.848896 286.36065 
L 406.325347 286.36065 
L 406.801798 286.638745 
L 407.278249 286.36065 
L 407.754699 285.804461 
L 408.23115 285.804461 
L 408.707601 284.970177 
L 409.184052 285.248272 
L 409.660503 283.996846 
L 410.136953 283.996846 
L 410.613404 283.857799 
L 411.089855 283.996846 
L 411.566306 288.168265 
L 412.042756 283.996846 
L 412.519207 283.996846 
L 412.995658 283.023515 
L 413.472109 283.023515 
L 413.869151 282.050184 
L 414.345602 282.050184 
L 414.822052 280.798758 
L 415.219095 280.381617 
L 415.695545 280.381617 
L 416.171996 279.269238 
L 416.569039 277.739718 
L 417.045489 277.739718 
L 417.442532 279.130191 
L 417.918982 278.852096 
L 418.713067 275.514961 
L 419.58656 276.349245 
L 419.983602 273.846394 
L 420.380645 274.263536 
L 420.777687 274.124489 
L 421.174729 273.568299 
L 421.492363 272.594968 
L 421.889405 269.95307 
L 422.286448 272.177827 
L 422.604081 272.734016 
L 423.001124 273.151158 
L 423.318758 271.760685 
L 423.7158 271.760685 
L 424.033434 270.370212 
L 424.351068 270.926401 
L 424.668701 269.257833 
L 424.986335 269.257833 
L 425.303969 270.092117 
L 425.621603 274.263536 
L 425.859828 269.535928 
L 426.177462 268.701644 
L 426.415687 269.535928 
L 426.733321 268.840692 
L 426.971547 269.535928 
L 427.447997 267.589266 
L 427.686223 266.89403 
L 427.924448 265.364509 
L 428.162674 267.172124 
L 428.400899 266.615935 
L 428.797941 265.225462 
L 429.036167 266.476888 
L 429.592026 265.225462 
L 429.750843 265.225462 
L 429.90966 264.947368 
L 430.068477 263.000705 
L 430.38611 262.583564 
L 430.465519 263.000705 
L 430.624336 263.000705 
L 430.783153 262.166422 
L 430.862561 263.000705 
L 430.94197 262.027374 
L 431.259604 261.471185 
L 431.497829 258.551192 
L 431.577237 258.13405 
L 431.656646 255.909294 
L 431.736054 257.021672 
L 431.97428 253.128348 
L 432.053688 250.903591 
L 432.053688 253.128348 
L 432.133097 251.598828 
L 432.133097 251.598828 
L 432.133097 246.175983 
L 432.133097 253.128348 
L 432.133097 248.122646 
" clip-path="url(#p866d74dec0)" style="fill: none; stroke: #d62728; stroke-width: 1.5; stroke-linecap: square"/>
   </g>
   <g id="patch_3">
    <path d="M 56.928125 304.44375 
L 56.928125 25.918125 
" style="fill: none; stroke: #000000; stroke-width: 0.8; stroke-linejoin: miter; stroke-linecap: square"/>
   </g>
   <g id="patch_4">
    <path d="M 450 304.44375 
L 450 25.918125 
" style="fill: none; stroke: #000000; stroke-width: 0.8; stroke-linejoin: miter; stroke-linecap: square"/>
   </g>
   <g id="patch_5">
    <path d="M 56.928125 304.44375 
L 450 304.44375 
" style="fill: none; stroke: #000000; stroke-width: 0.8; stroke-linejoin: miter; stroke-linecap: square"/>
   </g>
   <g id="patch_6">
    <path d="M 56.928125 25.918125 
L 450 25.918125 
" style="fill: none; stroke: #000000; stroke-width: 0.8; stroke-linejoin: miter; stroke-linecap: square"/>
   </g>
   <g id="text_16">
    <!-- Reflector Raw Value -->
    <g transform="translate(193.704062 19.918125)scale(0.12 -0.12)">
     <use xlink:href="#DejaVuSans-52"/>
     <use xlink:href="#DejaVuSans-65" x="64.982422"/>
     <use xlink:href="#DejaVuSans-66" x="126.505859"/>
     <use xlink:href="#DejaVuSans-6c" x="161.710938"/>
     <use xlink:href="#DejaVuSans-65" x="189.494141"/>
     <use xlink:href="#DejaVuSans-63" x="251.017578"/>
     <use xlink:href="#DejaVuSans-74" x="305.998047"/>
     <use xlink:href="#DejaVuSans-6f" x="345.207031"/>
     <use xlink:href="#DejaVuSans-72" x="406.388672"/>
     <use xlink:href="#DejaVuSans-20" x="447.501953"/>
     <use xlink:href="#DejaVuSans-52" x="479.289062"/>
     <use xlink:href="#DejaVuSans-61" x="546.521484"/>
     <use xlink:href="#DejaVuSans-77" x="607.800781"/>
     <use xlink:href="#DejaVuSans-20" x="689.587891"/>
     <use xlink:href="#DejaVuSans-56" x="721.375"/>
     <use xlink:href="#DejaVuSans-61" x="782.033203"/>
     <use xlink:href="#DejaVuSans-6c" x="843.3125"/>
     <use xlink:href="#DejaVuSans-75" x="871.095703"/>
     <use xlink:href="#DejaVuSans-65" x="934.474609"/>
    </g>
   </g>
   <g id="legend_1">
    <g id="patch_7">
     <path d="M 63.928125 92.630625 
L 150.728125 92.630625 
Q 152.728125 92.630625 152.728125 90.630625 
L 152.728125 32.918125 
Q 152.728125 30.918125 150.728125 30.918125 
L 63.928125 30.918125 
Q 61.928125 30.918125 61.928125 32.918125 
L 61.928125 90.630625 
Q 61.928125 92.630625 63.928125 92.630625 
z
" style="fill: #ffffff; opacity: 0.8; stroke: #cccccc; stroke-linejoin: miter"/>
    </g>
    <g id="line2d_31">
     <path d="M 65.928125 39.016562 
L 75.928125 39.016562 
L 85.928125 39.016562 
" style="fill: none; stroke: #1f77b4; stroke-width: 1.5; stroke-linecap: square"/>
    </g>
    <g id="text_17">
     <!-- Left Side -->
     <g transform="translate(93.928125 42.516562)scale(0.1 -0.1)">
      <defs>
       <path id="DejaVuSans-4c" d="M 628 4666 
L 1259 4666 
L 1259 531 
L 3531 531 
L 3531 0 
L 628 0 
L 628 4666 
z
" transform="scale(0.015625)"/>
       <path id="DejaVuSans-53" d="M 3425 4513 
L 3425 3897 
Q 3066 4069 2747 4153 
Q 2428 4238 2131 4238 
Q 1616 4238 1336 4038 
Q 1056 3838 1056 3469 
Q 1056 3159 1242 3001 
Q 1428 2844 1947 2747 
L 2328 2669 
Q 3034 2534 3370 2195 
Q 3706 1856 3706 1288 
Q 3706 609 3251 259 
Q 2797 -91 1919 -91 
Q 1588 -91 1214 -16 
Q 841 59 441 206 
L 441 856 
Q 825 641 1194 531 
Q 1563 422 1919 422 
Q 2459 422 2753 634 
Q 3047 847 3047 1241 
Q 3047 1584 2836 1778 
Q 2625 1972 2144 2069 
L 1759 2144 
Q 1053 2284 737 2584 
Q 422 2884 422 3419 
Q 422 4038 858 4394 
Q 1294 4750 2059 4750 
Q 2388 4750 2728 4690 
Q 3069 4631 3425 4513 
z
" transform="scale(0.015625)"/>
       <path id="DejaVuSans-64" d="M 2906 2969 
L 2906 4863 
L 3481 4863 
L 3481 0 
L 2906 0 
L 2906 525 
Q 2725 213 2448 61 
Q 2172 -91 1784 -91 
Q 1150 -91 751 415 
Q 353 922 353 1747 
Q 353 2572 751 3078 
Q 1150 3584 1784 3584 
Q 2172 3584 2448 3432 
Q 2725 3281 2906 2969 
z
M 947 1747 
Q 947 1113 1208 752 
Q 1469 391 1925 391 
Q 2381 391 2643 752 
Q 2906 1113 2906 1747 
Q 2906 2381 2643 2742 
Q 2381 3103 1925 3103 
Q 1469 3103 1208 2742 
Q 947 2381 947 1747 
z
" transform="scale(0.015625)"/>
      </defs>
      <use xlink:href="#DejaVuSans-4c"/>
      <use xlink:href="#DejaVuSans-65" x="53.962891"/>
      <use xlink:href="#DejaVuSans-66" x="115.486328"/>
      <use xlink:href="#DejaVuSans-74" x="148.941406"/>
      <use xlink:href="#DejaVuSans-20" x="188.150391"/>
      <use xlink:href="#DejaVuSans-53" x="219.9375"/>
      <use xlink:href="#DejaVuSans-69" x="283.414062"/>
      <use xlink:href="#DejaVuSans-64" x="311.197266"/>
      <use xlink:href="#DejaVuSans-65" x="374.673828"/>
     </g>
    </g>
    <g id="line2d_32">
     <path d="M 65.928125 53.694687 
L 75.928125 53.694687 
L 85.928125 53.694687 
" style="fill: none; stroke: #ff7f0e; stroke-width: 1.5; stroke-linecap: square"/>
    </g>
    <g id="text_18">
     <!-- Left Front -->
     <g transform="translate(93.928125 57.194687)scale(0.1 -0.1)">
      <defs>
       <path id="DejaVuSans-46" d="M 628 4666 
L 3309 4666 
L 3309 4134 
L 1259 4134 
L 1259 2759 
L 3109 2759 
L 3109 2228 
L 1259 2228 
L 1259 0 
L 628 0 
L 628 4666 
z
" transform="scale(0.015625)"/>
      </defs>
      <use xlink:href="#DejaVuSans-4c"/>
      <use xlink:href="#DejaVuSans-65" x="53.962891"/>
      <use xlink:href="#DejaVuSans-66" x="115.486328"/>
      <use xlink:href="#DejaVuSans-74" x="148.941406"/>
      <use xlink:href="#DejaVuSans-20" x="188.150391"/>
      <use xlink:href="#DejaVuSans-46" x="219.9375"/>
      <use xlink:href="#DejaVuSans-72" x="270.207031"/>
      <use xlink:href="#DejaVuSans-6f" x="309.070312"/>
      <use xlink:href="#DejaVuSans-6e" x="370.251953"/>
      <use xlink:href="#DejaVuSans-74" x="433.630859"/>
     </g>
    </g>
    <g id="line2d_33">
     <path d="M 65.928125 68.372812 
L 75.928125 68.372812 
L 85.928125 68.372812 
" style="fill: none; stroke: #2ca02c; stroke-width: 1.5; stroke-linecap: square"/>
    </g>
    <g id="text_19">
     <!-- Right Front -->
     <g transform="translate(93.928125 71.872812)scale(0.1 -0.1)">
      <defs>
       <path id="DejaVuSans-67" d="M 2906 1791 
Q 2906 2416 2648 2759 
Q 2391 3103 1925 3103 
Q 1463 3103 1205 2759 
Q 947 2416 947 1791 
Q 947 1169 1205 825 
Q 1463 481 1925 481 
Q 2391 481 2648 825 
Q 2906 1169 2906 1791 
z
M 3481 434 
Q 3481 -459 3084 -895 
Q 2688 -1331 1869 -1331 
Q 1566 -1331 1297 -1286 
Q 1028 -1241 775 -1147 
L 775 -588 
Q 1028 -725 1275 -790 
Q 1522 -856 1778 -856 
Q 2344 -856 2625 -561 
Q 2906 -266 2906 331 
L 2906 616 
Q 2728 306 2450 153 
Q 2172 0 1784 0 
Q 1141 0 747 490 
Q 353 981 353 1791 
Q 353 2603 747 3093 
Q 1141 3584 1784 3584 
Q 2172 3584 2450 3431 
Q 2728 3278 2906 2969 
L 2906 3500 
L 3481 3500 
L 3481 434 
z
" transform="scale(0.015625)"/>
       <path id="DejaVuSans-68" d="M 3513 2113 
L 3513 0 
L 2938 0 
L 2938 2094 
Q 2938 2591 2744 2837 
Q 2550 3084 2163 3084 
Q 1697 3084 1428 2787 
Q 1159 2491 1159 1978 
L 1159 0 
L 581 0 
L 581 4863 
L 1159 4863 
L 1159 2956 
Q 1366 3272 1645 3428 
Q 1925 3584 2291 3584 
Q 2894 3584 3203 3211 
Q 3513 2838 3513 2113 
z
" transform="scale(0.015625)"/>
      </defs>
      <use xlink:href="#DejaVuSans-52"/>
      <use xlink:href="#DejaVuSans-69" x="69.482422"/>
      <use xlink:href="#DejaVuSans-67" x="97.265625"/>
      <use xlink:href="#DejaVuSans-68" x="160.742188"/>
      <use xlink:href="#DejaVuSans-74" x="224.121094"/>
      <use xlink:href="#DejaVuSans-20" x="263.330078"/>
      <use xlink:href="#DejaVuSans-46" x="295.117188"/>
      <use xlink:href="#DejaVuSans-72" x="345.386719"/>
      <use xlink:href="#DejaVuSans-6f" x="384.25"/>
      <use xlink:href="#DejaVuSans-6e" x="445.431641"/>
      <use xlink:href="#DejaVuSans-74" x="508.810547"/>
     </g>
    </g>
    <g id="line2d_34">
     <path d="M 65.928125 83.050937 
L 75.928125 83.050937 
L 85.928125 83.050937 
" style="fill: none; stroke: #d62728; stroke-width: 1.5; stroke-linecap: square"/>
    </g>
    <g id="text_20">
     <!-- Right Side -->
     <g transform="translate(93.928125 86.550937)scale(0.1 -0.1)">
      <use xlink:href="#DejaVuSans-52"/>
      <use xlink:href="#DejaVuSans-69" x="69.482422"/>
      <use xlink:href="#DejaVuSans-67" x="97.265625"/>
      <use xlink:href="#DejaVuSans-68" x="160.742188"/>
      <use xlink:href="#DejaVuSans-74" x="224.121094"/>
      <use xlink:href="#DejaVuSans-20" x="263.330078"/>
      <use xlink:href="#DejaVuSans-53" x="295.117188"/>
      <use xlink:href="#DejaVuSans-69" x="358.59375"/>
      <use xlink:href="#DejaVuSans-64" x="386.376953"/>
      <use xlink:href="#DejaVuSans-65" x="449.853516"/>
     </g>
    </g>
   </g>
  </g>
 </g>
 <defs>
  <clipPath id="p866d74dec0">
   <rect x="56.928125" y="25.918125" width="393.071875" height="278.525625"/>
  </clipPath>
 </defs>
</svg>
