<?xml version="1.0" encoding="utf-8" standalone="no"?>
<!DOCTYPE svg PUBLIC "-//W3C//DTD SVG 1.1//EN"
  "http://www.w3.org/Graphics/SVG/1.1/DTD/svg11.dtd">
<svg xmlns:xlink="http://www.w3.org/1999/xlink" width="460.8pt" height="345.6pt" viewBox="0 0 460.8 345.6" xmlns="http://www.w3.org/2000/svg" version="1.1">
 <metadata>
  <rdf:RDF xmlns:dc="http://purl.org/dc/elements/1.1/" xmlns:cc="http://creativecommons.org/ns#" xmlns:rdf="http://www.w3.org/1999/02/22-rdf-syntax-ns#">
   <cc:Work>
    <dc:type rdf:resource="http://purl.org/dc/dcmitype/StillImage"/>
    <dc:date>2022-01-16T03:26:24.642577</dc:date>
    <dc:format>image/svg+xml</dc:format>
    <dc:creator>
     <cc:Agent>
      <dc:title>Matplotlib v3.5.1, https://matplotlib.org/</dc:title>
     </cc:Agent>
    </dc:creator>
   </cc:Work>
  </rdf:RDF>
 </metadata>
 <defs>
  <style type="text/css">*{stroke-linejoin: round; stroke-linecap: butt}</style>
 </defs>
 <g id="figure_1">
  <g id="patch_1">
   <path d="M 0 345.6 
L 460.8 345.6 
L 460.8 0 
L 0 0 
z
" style="fill: #ffffff"/>
  </g>
  <g id="axes_1">
   <g id="patch_2">
    <path d="M 52.582813 304.44375 
L 450 304.44375 
L 450 25.918125 
L 52.582813 25.918125 
z
" style="fill: #ffffff"/>
   </g>
   <g id="matplotlib.axis_1">
    <g id="xtick_1">
     <g id="line2d_1">
      <path d="M 70.64723 304.44375 
L 70.64723 25.918125 
" clip-path="url(#p62dc9b6213)" style="fill: none; stroke: #b0b0b0; stroke-width: 0.8; stroke-linecap: square"/>
     </g>
     <g id="line2d_2">
      <defs>
       <path id="m4f2d2160e0" d="M 0 0 
L 0 3.5 
" style="stroke: #000000; stroke-width: 0.8"/>
      </defs>
      <g>
       <use xlink:href="#m4f2d2160e0" x="70.64723" y="304.44375" style="stroke: #000000; stroke-width: 0.8"/>
      </g>
     </g>
     <g id="text_1">
      <!-- 0 -->
      <g transform="translate(67.46598 319.042187)scale(0.1 -0.1)">
       <defs>
        <path id="DejaVuSans-30" d="M 2034 4250 
Q 1547 4250 1301 3770 
Q 1056 3291 1056 2328 
Q 1056 1369 1301 889 
Q 1547 409 2034 409 
Q 2525 409 2770 889 
Q 3016 1369 3016 2328 
Q 3016 3291 2770 3770 
Q 2525 4250 2034 4250 
z
M 2034 4750 
Q 2819 4750 3233 4129 
Q 3647 3509 3647 2328 
Q 3647 1150 3233 529 
Q 2819 -91 2034 -91 
Q 1250 -91 836 529 
Q 422 1150 422 2328 
Q 422 3509 836 4129 
Q 1250 4750 2034 4750 
z
" transform="scale(0.015625)"/>
       </defs>
       <use xlink:href="#DejaVuSans-30"/>
      </g>
     </g>
    </g>
    <g id="xtick_2">
     <g id="line2d_3">
      <path d="M 150.933531 304.44375 
L 150.933531 25.918125 
" clip-path="url(#p62dc9b6213)" style="fill: none; stroke: #b0b0b0; stroke-width: 0.8; stroke-linecap: square"/>
     </g>
     <g id="line2d_4">
      <g>
       <use xlink:href="#m4f2d2160e0" x="150.933531" y="304.44375" style="stroke: #000000; stroke-width: 0.8"/>
      </g>
     </g>
     <g id="text_2">
      <!-- 100 -->
      <g transform="translate(141.389781 319.042187)scale(0.1 -0.1)">
       <defs>
        <path id="DejaVuSans-31" d="M 794 531 
L 1825 531 
L 1825 4091 
L 703 3866 
L 703 4441 
L 1819 4666 
L 2450 4666 
L 2450 531 
L 3481 531 
L 3481 0 
L 794 0 
L 794 531 
z
" transform="scale(0.015625)"/>
       </defs>
       <use xlink:href="#DejaVuSans-31"/>
       <use xlink:href="#DejaVuSans-30" x="63.623047"/>
       <use xlink:href="#DejaVuSans-30" x="127.246094"/>
      </g>
     </g>
    </g>
    <g id="xtick_3">
     <g id="line2d_5">
      <path d="M 231.219831 304.44375 
L 231.219831 25.918125 
" clip-path="url(#p62dc9b6213)" style="fill: none; stroke: #b0b0b0; stroke-width: 0.8; stroke-linecap: square"/>
     </g>
     <g id="line2d_6">
      <g>
       <use xlink:href="#m4f2d2160e0" x="231.219831" y="304.44375" style="stroke: #000000; stroke-width: 0.8"/>
      </g>
     </g>
     <g id="text_3">
      <!-- 200 -->
      <g transform="translate(221.676081 319.042187)scale(0.1 -0.1)">
       <defs>
        <path id="DejaVuSans-32" d="M 1228 531 
L 3431 531 
L 3431 0 
L 469 0 
L 469 531 
Q 828 903 1448 1529 
Q 2069 2156 2228 2338 
Q 2531 2678 2651 2914 
Q 2772 3150 2772 3378 
Q 2772 3750 2511 3984 
Q 2250 4219 1831 4219 
Q 1534 4219 1204 4116 
Q 875 4013 500 3803 
L 500 4441 
Q 881 4594 1212 4672 
Q 1544 4750 1819 4750 
Q 2544 4750 2975 4387 
Q 3406 4025 3406 3419 
Q 3406 3131 3298 2873 
Q 3191 2616 2906 2266 
Q 2828 2175 2409 1742 
Q 1991 1309 1228 531 
z
" transform="scale(0.015625)"/>
       </defs>
       <use xlink:href="#DejaVuSans-32"/>
       <use xlink:href="#DejaVuSans-30" x="63.623047"/>
       <use xlink:href="#DejaVuSans-30" x="127.246094"/>
      </g>
     </g>
    </g>
    <g id="xtick_4">
     <g id="line2d_7">
      <path d="M 311.506132 304.44375 
L 311.506132 25.918125 
" clip-path="url(#p62dc9b6213)" style="fill: none; stroke: #b0b0b0; stroke-width: 0.8; stroke-linecap: square"/>
     </g>
     <g id="line2d_8">
      <g>
       <use xlink:href="#m4f2d2160e0" x="311.506132" y="304.44375" style="stroke: #000000; stroke-width: 0.8"/>
      </g>
     </g>
     <g id="text_4">
      <!-- 300 -->
      <g transform="translate(301.962382 319.042187)scale(0.1 -0.1)">
       <defs>
        <path id="DejaVuSans-33" d="M 2597 2516 
Q 3050 2419 3304 2112 
Q 3559 1806 3559 1356 
Q 3559 666 3084 287 
Q 2609 -91 1734 -91 
Q 1441 -91 1130 -33 
Q 819 25 488 141 
L 488 750 
Q 750 597 1062 519 
Q 1375 441 1716 441 
Q 2309 441 2620 675 
Q 2931 909 2931 1356 
Q 2931 1769 2642 2001 
Q 2353 2234 1838 2234 
L 1294 2234 
L 1294 2753 
L 1863 2753 
Q 2328 2753 2575 2939 
Q 2822 3125 2822 3475 
Q 2822 3834 2567 4026 
Q 2313 4219 1838 4219 
Q 1578 4219 1281 4162 
Q 984 4106 628 3988 
L 628 4550 
Q 988 4650 1302 4700 
Q 1616 4750 1894 4750 
Q 2613 4750 3031 4423 
Q 3450 4097 3450 3541 
Q 3450 3153 3228 2886 
Q 3006 2619 2597 2516 
z
" transform="scale(0.015625)"/>
       </defs>
       <use xlink:href="#DejaVuSans-33"/>
       <use xlink:href="#DejaVuSans-30" x="63.623047"/>
       <use xlink:href="#DejaVuSans-30" x="127.246094"/>
      </g>
     </g>
    </g>
    <g id="xtick_5">
     <g id="line2d_9">
      <path d="M 391.792432 304.44375 
L 391.792432 25.918125 
" clip-path="url(#p62dc9b6213)" style="fill: none; stroke: #b0b0b0; stroke-width: 0.8; stroke-linecap: square"/>
     </g>
     <g id="line2d_10">
      <g>
       <use xlink:href="#m4f2d2160e0" x="391.792432" y="304.44375" style="stroke: #000000; stroke-width: 0.8"/>
      </g>
     </g>
     <g id="text_5">
      <!-- 400 -->
      <g transform="translate(382.248682 319.042187)scale(0.1 -0.1)">
       <defs>
        <path id="DejaVuSans-34" d="M 2419 4116 
L 825 1625 
L 2419 1625 
L 2419 4116 
z
M 2253 4666 
L 3047 4666 
L 3047 1625 
L 3713 1625 
L 3713 1100 
L 3047 1100 
L 3047 0 
L 2419 0 
L 2419 1100 
L 313 1100 
L 313 1709 
L 2253 4666 
z
" transform="scale(0.015625)"/>
       </defs>
       <use xlink:href="#DejaVuSans-34"/>
       <use xlink:href="#DejaVuSans-30" x="63.623047"/>
       <use xlink:href="#DejaVuSans-30" x="127.246094"/>
      </g>
     </g>
    </g>
    <g id="text_6">
     <!-- Translational Position [mm] -->
     <g transform="translate(183.314062 332.720312)scale(0.1 -0.1)">
      <defs>
       <path id="DejaVuSans-54" d="M -19 4666 
L 3928 4666 
L 3928 4134 
L 2272 4134 
L 2272 0 
L 1638 0 
L 1638 4134 
L -19 4134 
L -19 4666 
z
" transform="scale(0.015625)"/>
       <path id="DejaVuSans-72" d="M 2631 2963 
Q 2534 3019 2420 3045 
Q 2306 3072 2169 3072 
Q 1681 3072 1420 2755 
Q 1159 2438 1159 1844 
L 1159 0 
L 581 0 
L 581 3500 
L 1159 3500 
L 1159 2956 
Q 1341 3275 1631 3429 
Q 1922 3584 2338 3584 
Q 2397 3584 2469 3576 
Q 2541 3569 2628 3553 
L 2631 2963 
z
" transform="scale(0.015625)"/>
       <path id="DejaVuSans-61" d="M 2194 1759 
Q 1497 1759 1228 1600 
Q 959 1441 959 1056 
Q 959 750 1161 570 
Q 1363 391 1709 391 
Q 2188 391 2477 730 
Q 2766 1069 2766 1631 
L 2766 1759 
L 2194 1759 
z
M 3341 1997 
L 3341 0 
L 2766 0 
L 2766 531 
Q 2569 213 2275 61 
Q 1981 -91 1556 -91 
Q 1019 -91 701 211 
Q 384 513 384 1019 
Q 384 1609 779 1909 
Q 1175 2209 1959 2209 
L 2766 2209 
L 2766 2266 
Q 2766 2663 2505 2880 
Q 2244 3097 1772 3097 
Q 1472 3097 1187 3025 
Q 903 2953 641 2809 
L 641 3341 
Q 956 3463 1253 3523 
Q 1550 3584 1831 3584 
Q 2591 3584 2966 3190 
Q 3341 2797 3341 1997 
z
" transform="scale(0.015625)"/>
       <path id="DejaVuSans-6e" d="M 3513 2113 
L 3513 0 
L 2938 0 
L 2938 2094 
Q 2938 2591 2744 2837 
Q 2550 3084 2163 3084 
Q 1697 3084 1428 2787 
Q 1159 2491 1159 1978 
L 1159 0 
L 581 0 
L 581 3500 
L 1159 3500 
L 1159 2956 
Q 1366 3272 1645 3428 
Q 1925 3584 2291 3584 
Q 2894 3584 3203 3211 
Q 3513 2838 3513 2113 
z
" transform="scale(0.015625)"/>
       <path id="DejaVuSans-73" d="M 2834 3397 
L 2834 2853 
Q 2591 2978 2328 3040 
Q 2066 3103 1784 3103 
Q 1356 3103 1142 2972 
Q 928 2841 928 2578 
Q 928 2378 1081 2264 
Q 1234 2150 1697 2047 
L 1894 2003 
Q 2506 1872 2764 1633 
Q 3022 1394 3022 966 
Q 3022 478 2636 193 
Q 2250 -91 1575 -91 
Q 1294 -91 989 -36 
Q 684 19 347 128 
L 347 722 
Q 666 556 975 473 
Q 1284 391 1588 391 
Q 1994 391 2212 530 
Q 2431 669 2431 922 
Q 2431 1156 2273 1281 
Q 2116 1406 1581 1522 
L 1381 1569 
Q 847 1681 609 1914 
Q 372 2147 372 2553 
Q 372 3047 722 3315 
Q 1072 3584 1716 3584 
Q 2034 3584 2315 3537 
Q 2597 3491 2834 3397 
z
" transform="scale(0.015625)"/>
       <path id="DejaVuSans-6c" d="M 603 4863 
L 1178 4863 
L 1178 0 
L 603 0 
L 603 4863 
z
" transform="scale(0.015625)"/>
       <path id="DejaVuSans-74" d="M 1172 4494 
L 1172 3500 
L 2356 3500 
L 2356 3053 
L 1172 3053 
L 1172 1153 
Q 1172 725 1289 603 
Q 1406 481 1766 481 
L 2356 481 
L 2356 0 
L 1766 0 
Q 1100 0 847 248 
Q 594 497 594 1153 
L 594 3053 
L 172 3053 
L 172 3500 
L 594 3500 
L 594 4494 
L 1172 4494 
z
" transform="scale(0.015625)"/>
       <path id="DejaVuSans-69" d="M 603 3500 
L 1178 3500 
L 1178 0 
L 603 0 
L 603 3500 
z
M 603 4863 
L 1178 4863 
L 1178 4134 
L 603 4134 
L 603 4863 
z
" transform="scale(0.015625)"/>
       <path id="DejaVuSans-6f" d="M 1959 3097 
Q 1497 3097 1228 2736 
Q 959 2375 959 1747 
Q 959 1119 1226 758 
Q 1494 397 1959 397 
Q 2419 397 2687 759 
Q 2956 1122 2956 1747 
Q 2956 2369 2687 2733 
Q 2419 3097 1959 3097 
z
M 1959 3584 
Q 2709 3584 3137 3096 
Q 3566 2609 3566 1747 
Q 3566 888 3137 398 
Q 2709 -91 1959 -91 
Q 1206 -91 779 398 
Q 353 888 353 1747 
Q 353 2609 779 3096 
Q 1206 3584 1959 3584 
z
" transform="scale(0.015625)"/>
       <path id="DejaVuSans-20" transform="scale(0.015625)"/>
       <path id="DejaVuSans-50" d="M 1259 4147 
L 1259 2394 
L 2053 2394 
Q 2494 2394 2734 2622 
Q 2975 2850 2975 3272 
Q 2975 3691 2734 3919 
Q 2494 4147 2053 4147 
L 1259 4147 
z
M 628 4666 
L 2053 4666 
Q 2838 4666 3239 4311 
Q 3641 3956 3641 3272 
Q 3641 2581 3239 2228 
Q 2838 1875 2053 1875 
L 1259 1875 
L 1259 0 
L 628 0 
L 628 4666 
z
" transform="scale(0.015625)"/>
       <path id="DejaVuSans-5b" d="M 550 4863 
L 1875 4863 
L 1875 4416 
L 1125 4416 
L 1125 -397 
L 1875 -397 
L 1875 -844 
L 550 -844 
L 550 4863 
z
" transform="scale(0.015625)"/>
       <path id="DejaVuSans-6d" d="M 3328 2828 
Q 3544 3216 3844 3400 
Q 4144 3584 4550 3584 
Q 5097 3584 5394 3201 
Q 5691 2819 5691 2113 
L 5691 0 
L 5113 0 
L 5113 2094 
Q 5113 2597 4934 2840 
Q 4756 3084 4391 3084 
Q 3944 3084 3684 2787 
Q 3425 2491 3425 1978 
L 3425 0 
L 2847 0 
L 2847 2094 
Q 2847 2600 2669 2842 
Q 2491 3084 2119 3084 
Q 1678 3084 1418 2786 
Q 1159 2488 1159 1978 
L 1159 0 
L 581 0 
L 581 3500 
L 1159 3500 
L 1159 2956 
Q 1356 3278 1631 3431 
Q 1906 3584 2284 3584 
Q 2666 3584 2933 3390 
Q 3200 3197 3328 2828 
z
" transform="scale(0.015625)"/>
       <path id="DejaVuSans-5d" d="M 1947 4863 
L 1947 -844 
L 622 -844 
L 622 -397 
L 1369 -397 
L 1369 4416 
L 622 4416 
L 622 4863 
L 1947 4863 
z
" transform="scale(0.015625)"/>
      </defs>
      <use xlink:href="#DejaVuSans-54"/>
      <use xlink:href="#DejaVuSans-72" x="46.333984"/>
      <use xlink:href="#DejaVuSans-61" x="87.447266"/>
      <use xlink:href="#DejaVuSans-6e" x="148.726562"/>
      <use xlink:href="#DejaVuSans-73" x="212.105469"/>
      <use xlink:href="#DejaVuSans-6c" x="264.205078"/>
      <use xlink:href="#DejaVuSans-61" x="291.988281"/>
      <use xlink:href="#DejaVuSans-74" x="353.267578"/>
      <use xlink:href="#DejaVuSans-69" x="392.476562"/>
      <use xlink:href="#DejaVuSans-6f" x="420.259766"/>
      <use xlink:href="#DejaVuSans-6e" x="481.441406"/>
      <use xlink:href="#DejaVuSans-61" x="544.820312"/>
      <use xlink:href="#DejaVuSans-6c" x="606.099609"/>
      <use xlink:href="#DejaVuSans-20" x="633.882812"/>
      <use xlink:href="#DejaVuSans-50" x="665.669922"/>
      <use xlink:href="#DejaVuSans-6f" x="722.347656"/>
      <use xlink:href="#DejaVuSans-73" x="783.529297"/>
      <use xlink:href="#DejaVuSans-69" x="835.628906"/>
      <use xlink:href="#DejaVuSans-74" x="863.412109"/>
      <use xlink:href="#DejaVuSans-69" x="902.621094"/>
      <use xlink:href="#DejaVuSans-6f" x="930.404297"/>
      <use xlink:href="#DejaVuSans-6e" x="991.585938"/>
      <use xlink:href="#DejaVuSans-20" x="1054.964844"/>
      <use xlink:href="#DejaVuSans-5b" x="1086.751953"/>
      <use xlink:href="#DejaVuSans-6d" x="1125.765625"/>
      <use xlink:href="#DejaVuSans-6d" x="1223.177734"/>
      <use xlink:href="#DejaVuSans-5d" x="1320.589844"/>
     </g>
    </g>
   </g>
   <g id="matplotlib.axis_2">
    <g id="ytick_1">
     <g id="line2d_11">
      <path d="M 52.582813 298.65725 
L 450 298.65725 
" clip-path="url(#p62dc9b6213)" style="fill: none; stroke: #b0b0b0; stroke-width: 0.8; stroke-linecap: square"/>
     </g>
     <g id="line2d_12">
      <defs>
       <path id="me92a913e6e" d="M 0 0 
L -3.5 0 
" style="stroke: #000000; stroke-width: 0.8"/>
      </defs>
      <g>
       <use xlink:href="#me92a913e6e" x="52.582813" y="298.65725" style="stroke: #000000; stroke-width: 0.8"/>
      </g>
     </g>
     <g id="text_7">
      <!-- −20 -->
      <g transform="translate(24.478125 302.456469)scale(0.1 -0.1)">
       <defs>
        <path id="DejaVuSans-2212" d="M 678 2272 
L 4684 2272 
L 4684 1741 
L 678 1741 
L 678 2272 
z
" transform="scale(0.015625)"/>
       </defs>
       <use xlink:href="#DejaVuSans-2212"/>
       <use xlink:href="#DejaVuSans-32" x="83.789062"/>
       <use xlink:href="#DejaVuSans-30" x="147.412109"/>
      </g>
     </g>
    </g>
    <g id="ytick_2">
     <g id="line2d_13">
      <path d="M 52.582813 246.385344 
L 450 246.385344 
" clip-path="url(#p62dc9b6213)" style="fill: none; stroke: #b0b0b0; stroke-width: 0.8; stroke-linecap: square"/>
     </g>
     <g id="line2d_14">
      <g>
       <use xlink:href="#me92a913e6e" x="52.582813" y="246.385344" style="stroke: #000000; stroke-width: 0.8"/>
      </g>
     </g>
     <g id="text_8">
      <!-- 0 -->
      <g transform="translate(39.220313 250.184563)scale(0.1 -0.1)">
       <use xlink:href="#DejaVuSans-30"/>
      </g>
     </g>
    </g>
    <g id="ytick_3">
     <g id="line2d_15">
      <path d="M 52.582813 194.113438 
L 450 194.113438 
" clip-path="url(#p62dc9b6213)" style="fill: none; stroke: #b0b0b0; stroke-width: 0.8; stroke-linecap: square"/>
     </g>
     <g id="line2d_16">
      <g>
       <use xlink:href="#me92a913e6e" x="52.582813" y="194.113438" style="stroke: #000000; stroke-width: 0.8"/>
      </g>
     </g>
     <g id="text_9">
      <!-- 20 -->
      <g transform="translate(32.857813 197.912656)scale(0.1 -0.1)">
       <use xlink:href="#DejaVuSans-32"/>
       <use xlink:href="#DejaVuSans-30" x="63.623047"/>
      </g>
     </g>
    </g>
    <g id="ytick_4">
     <g id="line2d_17">
      <path d="M 52.582813 141.841531 
L 450 141.841531 
" clip-path="url(#p62dc9b6213)" style="fill: none; stroke: #b0b0b0; stroke-width: 0.8; stroke-linecap: square"/>
     </g>
     <g id="line2d_18">
      <g>
       <use xlink:href="#me92a913e6e" x="52.582813" y="141.841531" style="stroke: #000000; stroke-width: 0.8"/>
      </g>
     </g>
     <g id="text_10">
      <!-- 40 -->
      <g transform="translate(32.857813 145.64075)scale(0.1 -0.1)">
       <use xlink:href="#DejaVuSans-34"/>
       <use xlink:href="#DejaVuSans-30" x="63.623047"/>
      </g>
     </g>
    </g>
    <g id="ytick_5">
     <g id="line2d_19">
      <path d="M 52.582813 89.569625 
L 450 89.569625 
" clip-path="url(#p62dc9b6213)" style="fill: none; stroke: #b0b0b0; stroke-width: 0.8; stroke-linecap: square"/>
     </g>
     <g id="line2d_20">
      <g>
       <use xlink:href="#me92a913e6e" x="52.582813" y="89.569625" style="stroke: #000000; stroke-width: 0.8"/>
      </g>
     </g>
     <g id="text_11">
      <!-- 60 -->
      <g transform="translate(32.857813 93.368844)scale(0.1 -0.1)">
       <defs>
        <path id="DejaVuSans-36" d="M 2113 2584 
Q 1688 2584 1439 2293 
Q 1191 2003 1191 1497 
Q 1191 994 1439 701 
Q 1688 409 2113 409 
Q 2538 409 2786 701 
Q 3034 994 3034 1497 
Q 3034 2003 2786 2293 
Q 2538 2584 2113 2584 
z
M 3366 4563 
L 3366 3988 
Q 3128 4100 2886 4159 
Q 2644 4219 2406 4219 
Q 1781 4219 1451 3797 
Q 1122 3375 1075 2522 
Q 1259 2794 1537 2939 
Q 1816 3084 2150 3084 
Q 2853 3084 3261 2657 
Q 3669 2231 3669 1497 
Q 3669 778 3244 343 
Q 2819 -91 2113 -91 
Q 1303 -91 875 529 
Q 447 1150 447 2328 
Q 447 3434 972 4092 
Q 1497 4750 2381 4750 
Q 2619 4750 2861 4703 
Q 3103 4656 3366 4563 
z
" transform="scale(0.015625)"/>
       </defs>
       <use xlink:href="#DejaVuSans-36"/>
       <use xlink:href="#DejaVuSans-30" x="63.623047"/>
      </g>
     </g>
    </g>
    <g id="ytick_6">
     <g id="line2d_21">
      <path d="M 52.582813 37.297719 
L 450 37.297719 
" clip-path="url(#p62dc9b6213)" style="fill: none; stroke: #b0b0b0; stroke-width: 0.8; stroke-linecap: square"/>
     </g>
     <g id="line2d_22">
      <g>
       <use xlink:href="#me92a913e6e" x="52.582813" y="37.297719" style="stroke: #000000; stroke-width: 0.8"/>
      </g>
     </g>
     <g id="text_12">
      <!-- 80 -->
      <g transform="translate(32.857813 41.096938)scale(0.1 -0.1)">
       <defs>
        <path id="DejaVuSans-38" d="M 2034 2216 
Q 1584 2216 1326 1975 
Q 1069 1734 1069 1313 
Q 1069 891 1326 650 
Q 1584 409 2034 409 
Q 2484 409 2743 651 
Q 3003 894 3003 1313 
Q 3003 1734 2745 1975 
Q 2488 2216 2034 2216 
z
M 1403 2484 
Q 997 2584 770 2862 
Q 544 3141 544 3541 
Q 544 4100 942 4425 
Q 1341 4750 2034 4750 
Q 2731 4750 3128 4425 
Q 3525 4100 3525 3541 
Q 3525 3141 3298 2862 
Q 3072 2584 2669 2484 
Q 3125 2378 3379 2068 
Q 3634 1759 3634 1313 
Q 3634 634 3220 271 
Q 2806 -91 2034 -91 
Q 1263 -91 848 271 
Q 434 634 434 1313 
Q 434 1759 690 2068 
Q 947 2378 1403 2484 
z
M 1172 3481 
Q 1172 3119 1398 2916 
Q 1625 2713 2034 2713 
Q 2441 2713 2670 2916 
Q 2900 3119 2900 3481 
Q 2900 3844 2670 4047 
Q 2441 4250 2034 4250 
Q 1625 4250 1398 4047 
Q 1172 3844 1172 3481 
z
" transform="scale(0.015625)"/>
       </defs>
       <use xlink:href="#DejaVuSans-38"/>
       <use xlink:href="#DejaVuSans-30" x="63.623047"/>
      </g>
     </g>
    </g>
    <g id="text_13">
     <!-- Wall Distance [mm] -->
     <g transform="translate(18.398438 214.330937)rotate(-90)scale(0.1 -0.1)">
      <defs>
       <path id="DejaVuSans-57" d="M 213 4666 
L 850 4666 
L 1831 722 
L 2809 4666 
L 3519 4666 
L 4500 722 
L 5478 4666 
L 6119 4666 
L 4947 0 
L 4153 0 
L 3169 4050 
L 2175 0 
L 1381 0 
L 213 4666 
z
" transform="scale(0.015625)"/>
       <path id="DejaVuSans-44" d="M 1259 4147 
L 1259 519 
L 2022 519 
Q 2988 519 3436 956 
Q 3884 1394 3884 2338 
Q 3884 3275 3436 3711 
Q 2988 4147 2022 4147 
L 1259 4147 
z
M 628 4666 
L 1925 4666 
Q 3281 4666 3915 4102 
Q 4550 3538 4550 2338 
Q 4550 1131 3912 565 
Q 3275 0 1925 0 
L 628 0 
L 628 4666 
z
" transform="scale(0.015625)"/>
       <path id="DejaVuSans-63" d="M 3122 3366 
L 3122 2828 
Q 2878 2963 2633 3030 
Q 2388 3097 2138 3097 
Q 1578 3097 1268 2742 
Q 959 2388 959 1747 
Q 959 1106 1268 751 
Q 1578 397 2138 397 
Q 2388 397 2633 464 
Q 2878 531 3122 666 
L 3122 134 
Q 2881 22 2623 -34 
Q 2366 -91 2075 -91 
Q 1284 -91 818 406 
Q 353 903 353 1747 
Q 353 2603 823 3093 
Q 1294 3584 2113 3584 
Q 2378 3584 2631 3529 
Q 2884 3475 3122 3366 
z
" transform="scale(0.015625)"/>
       <path id="DejaVuSans-65" d="M 3597 1894 
L 3597 1613 
L 953 1613 
Q 991 1019 1311 708 
Q 1631 397 2203 397 
Q 2534 397 2845 478 
Q 3156 559 3463 722 
L 3463 178 
Q 3153 47 2828 -22 
Q 2503 -91 2169 -91 
Q 1331 -91 842 396 
Q 353 884 353 1716 
Q 353 2575 817 3079 
Q 1281 3584 2069 3584 
Q 2775 3584 3186 3129 
Q 3597 2675 3597 1894 
z
M 3022 2063 
Q 3016 2534 2758 2815 
Q 2500 3097 2075 3097 
Q 1594 3097 1305 2825 
Q 1016 2553 972 2059 
L 3022 2063 
z
" transform="scale(0.015625)"/>
      </defs>
      <use xlink:href="#DejaVuSans-57"/>
      <use xlink:href="#DejaVuSans-61" x="92.501953"/>
      <use xlink:href="#DejaVuSans-6c" x="153.78125"/>
      <use xlink:href="#DejaVuSans-6c" x="181.564453"/>
      <use xlink:href="#DejaVuSans-20" x="209.347656"/>
      <use xlink:href="#DejaVuSans-44" x="241.134766"/>
      <use xlink:href="#DejaVuSans-69" x="318.136719"/>
      <use xlink:href="#DejaVuSans-73" x="345.919922"/>
      <use xlink:href="#DejaVuSans-74" x="398.019531"/>
      <use xlink:href="#DejaVuSans-61" x="437.228516"/>
      <use xlink:href="#DejaVuSans-6e" x="498.507812"/>
      <use xlink:href="#DejaVuSans-63" x="561.886719"/>
      <use xlink:href="#DejaVuSans-65" x="616.867188"/>
      <use xlink:href="#DejaVuSans-20" x="678.390625"/>
      <use xlink:href="#DejaVuSans-5b" x="710.177734"/>
      <use xlink:href="#DejaVuSans-6d" x="749.191406"/>
      <use xlink:href="#DejaVuSans-6d" x="846.603516"/>
      <use xlink:href="#DejaVuSans-5d" x="944.015625"/>
     </g>
    </g>
   </g>
   <g id="line2d_23">
    <path d="M 70.64723 217.844883 
L 70.647487 217.844883 
L 70.649285 217.557388 
L 70.651244 218.001699 
L 70.755617 218.001699 
L 70.904146 217.557388 
L 70.944611 217.557388 
L 70.989169 217.400572 
L 71.149019 218.001699 
L 71.211643 218.001699 
L 71.352224 218.419874 
L 71.430503 218.419874 
L 71.514322 218.289194 
L 71.604243 218.419874 
L 71.800944 219.28236 
L 71.909331 218.994865 
L 72.145372 219.28236 
L 72.409514 219.28236 
L 72.701757 219.569856 
L 72.859118 219.41304 
L 73.023705 219.700536 
L 73.195517 219.700536 
L 73.373753 219.988031 
L 73.560017 220.931539 
L 73.753507 221.064832 
L 73.954223 220.662339 
L 74.161361 220.931539 
L 74.598922 221.854138 
L 75.308653 222.755829 
L 75.559949 222.627762 
L 75.818471 223.383091 
L 76.083416 223.50593 
L 76.636588 224.242964 
L 76.924013 224.36319 
L 77.217861 225.19954 
L 77.519737 225.317152 
L 77.82884 225.784986 
L 78.145168 226.472361 
L 78.467919 226.584746 
L 78.79629 226.924513 
L 79.133492 227.034284 
L 79.478723 227.698137 
L 80.193271 228.348923 
L 80.562588 228.98664 
L 81.309251 229.407429 
L 81.694625 230.128781 
L 82.481431 230.834452 
L 83.292322 232.107273 
L 83.709811 232.107273 
L 84.1273 232.488858 
L 84.544789 233.147484 
L 84.978335 233.424525 
L 85.411881 233.884517 
L 85.845427 234.156331 
L 86.287001 234.872456 
L 86.728576 235.225292 
L 87.178179 235.917895 
L 88.543046 236.93197 
L 89.000678 237.674231 
L 89.466339 237.998316 
L 91.345038 240.183282 
L 92.774135 241.662577 
L 94.211259 243.288233 
L 95.174695 244.106027 
L 95.656413 244.70637 
L 96.138131 245.812182 
L 96.619848 246.003759 
L 101.918744 253.094443 
L 104.327333 256.288256 
L 105.772487 258.11516 
L 106.254204 259.035145 
L 106.735922 259.421957 
L 107.21764 260.349784 
L 107.699358 260.966592 
L 108.181076 261.855214 
L 108.662793 262.367479 
L 110.107947 264.675284 
L 112.034818 267.244448 
L 112.998254 269.570548 
L 114.443407 271.922784 
L 116.851996 275.605339 
L 117.815432 276.703049 
L 118.297149 277.016681 
L 118.778867 277.774623 
L 119.742303 278.532566 
L 120.224021 278.558702 
L 121.187456 279.342781 
L 121.669174 279.630276 
L 122.150892 279.73482 
L 122.63261 280.074587 
L 123.114327 279.682548 
L 124.077763 281.146161 
L 125.041199 281.877968 
L 126.004634 282.975678 
L 127.449788 284.282476 
L 127.931506 284.151796 
L 128.413223 284.596107 
L 129.376659 284.439291 
L 129.858377 283.968844 
L 130.340095 283.263174 
L 131.785248 278.192799 
L 132.266966 275.840563 
L 133.712119 264.233586 
L 134.193837 259.67809 
L 135.157273 247.314216 
L 136.602426 223.877061 
L 137.565862 206.658695 
L 138.529297 195.341827 
L 139.974451 184.286319 
L 140.456168 182.66589 
L 140.937886 182.247715 
L 141.419604 182.247715 
L 141.901322 181.385228 
L 142.38304 179.607984 
L 143.346475 178.693225 
L 143.828193 178.693225 
L 144.309911 177.726195 
L 144.791629 177.255748 
L 145.273346 179.607984 
L 145.755064 176.759165 
L 146.236782 179.607984 
L 146.7185 178.222778 
L 147.200218 177.726195 
L 147.681935 179.137536 
L 148.645371 179.137536 
L 149.127089 179.607984 
L 149.608807 179.607984 
L 150.572242 180.496606 
L 151.094103 180.052295 
L 151.575821 181.385228 
L 153.502692 181.385228 
L 154.466128 182.247715 
L 155.429563 182.247715 
L 156.392999 183.057929 
L 156.874717 184.678359 
L 157.838152 184.678359 
L 158.31987 186.586283 
L 158.801588 186.22038 
L 159.283306 186.586283 
L 159.765024 186.586283 
L 160.246741 188.389664 
L 160.728459 187.683993 
L 161.691895 189.748733 
L 162.173613 190.428268 
L 162.65533 191.395298 
L 163.618766 192.048697 
L 164.100484 192.963456 
L 165.06392 194.191845 
L 165.545637 194.191845 
L 166.027355 195.054332 
L 166.990791 198.086102 
L 167.472509 198.086102 
L 167.954226 198.347462 
L 168.917662 200.62129 
L 169.39938 201.117873 
L 169.881098 201.353097 
L 170.362815 202.058767 
L 170.844533 202.529214 
L 171.326251 204.332595 
L 171.807969 205.195082 
L 172.771404 206.031432 
L 173.253122 206.658695 
L 173.73484 207.860949 
L 174.216558 208.252988 
L 174.698276 208.827979 
L 175.179993 208.827979 
L 176.625147 211.755206 
L 177.106865 212.277925 
L 177.588582 213.480179 
L 178.0703 214.290393 
L 178.471732 214.290393 
L 178.953449 214.630161 
L 180.880321 217.557388 
L 181.362039 218.289194 
L 181.843756 218.707369 
L 182.807192 220.118711 
L 183.28891 221.064832 
L 183.770628 221.462099 
L 186.179217 224.844091 
L 187.142652 226.699744 
L 190.032959 230.633205 
L 190.514677 231.132402 
L 191.478112 232.677036 
L 191.95983 233.424525 
L 192.923266 234.247807 
L 194.368419 236.513794 
L 196.777008 239.955899 
L 198.222162 242.167001 
L 198.703879 242.731538 
L 199.185597 243.562661 
L 199.667315 243.766521 
L 200.149033 245.231441 
L 200.630751 245.876215 
L 201.112468 246.758827 
L 201.594186 247.314216 
L 202.075904 247.618699 
L 202.557622 248.751954 
L 204.002775 250.744821 
L 204.484493 251.183905 
L 204.966211 252.310364 
L 205.447929 253.042171 
L 206.411364 254.009201 
L 207.3748 255.674062 
L 213.155414 263.180307 
L 214.118849 264.821645 
L 214.600567 265.218912 
L 215.082285 266.559686 
L 216.04572 268.313408 
L 216.527438 269.251689 
L 217.009156 269.821453 
L 217.490874 270.903481 
L 217.972592 271.535971 
L 218.454309 272.651977 
L 220.381181 275.34398 
L 220.862898 275.918971 
L 221.344616 276.18033 
L 221.826334 276.755321 
L 222.308052 276.990545 
L 223.271487 277.696216 
L 223.753205 277.748488 
L 224.234923 278.454158 
L 224.716641 278.793926 
L 225.198359 279.290509 
L 225.680076 279.47346 
L 226.161794 279.787092 
L 226.643512 280.257539 
L 227.12523 280.518899 
L 227.606948 280.545034 
L 228.570383 281.407521 
L 229.533819 283.054086 
L 230.015537 284.909739 
L 230.497254 284.25634 
L 230.978972 283.367717 
L 231.46069 283.054086 
L 231.942408 282.531367 
L 232.424126 281.224569 
L 232.905843 280.518899 
L 233.387561 278.950741 
L 233.869279 276.859865 
L 234.350997 273.958774 
L 235.314432 265.791289 
L 236.277868 256.570525 
L 237.241304 245.748149 
L 239.168175 219.28236 
L 240.13161 206.031432 
L 242.058482 186.952186 
L 242.540199 184.286319 
L 243.021917 182.247715 
L 243.503635 181.803404 
L 243.985353 180.940917 
L 244.467071 179.607984 
L 245.430506 179.607984 
L 245.912224 179.137536 
L 246.393942 177.726195 
L 246.87566 178.222778 
L 247.357378 177.726195 
L 247.839095 179.607984 
L 248.320813 179.607984 
L 248.802531 178.693225 
L 249.284249 179.607984 
L 249.765967 180.052295 
L 250.247684 178.222778 
L 250.729402 178.693225 
L 251.21112 178.693225 
L 251.692838 178.222778 
L 252.174556 179.137536 
L 252.656273 177.726195 
L 253.137991 180.052295 
L 253.619709 179.607984 
L 254.101427 181.803404 
L 254.583145 179.607984 
L 255.064862 181.385228 
L 256.510016 181.385228 
L 256.991734 182.247715 
L 257.955169 182.247715 
L 258.436887 183.476105 
L 258.918605 183.476105 
L 259.400323 185.070398 
L 260.363758 185.070398 
L 261.327194 187.31809 
L 261.808912 186.22038 
L 262.290629 186.22038 
L 262.772347 187.31809 
L 263.254065 188.023761 
L 263.735783 188.023761 
L 264.217501 189.069199 
L 264.699218 188.729431 
L 265.180936 191.395298 
L 266.144372 192.67596 
L 266.62609 193.590719 
L 267.107807 193.590719 
L 268.071243 194.191845 
L 268.552961 195.341827 
L 269.034679 196.178178 
L 269.516396 197.275888 
L 269.998114 197.563383 
L 270.479832 198.086102 
L 270.96155 198.347462 
L 271.443268 198.086102 
L 271.924985 198.347462 
L 272.406703 199.628124 
L 272.888421 200.386066 
L 273.370139 201.353097 
L 273.851857 202.058767 
L 274.333574 202.058767 
L 274.815292 202.529214 
L 276.260446 205.195082 
L 276.742164 205.613257 
L 277.223881 206.24052 
L 277.705599 207.46891 
L 278.669035 208.827979 
L 279.150753 209.220018 
L 279.63247 210.134777 
L 280.114188 210.50068 
L 280.595906 211.415439 
L 281.077624 211.755206 
L 281.559342 212.277925 
L 282.041059 213.636995 
L 282.522777 214.447209 
L 283.486213 215.571055 
L 284.931366 218.001699 
L 285.894802 218.864185 
L 286.37652 219.569856 
L 286.858237 219.700536 
L 287.339955 220.798246 
L 287.821673 221.462099 
L 288.303391 221.854138 
L 289.266826 223.50593 
L 289.748544 223.9999 
L 290.230262 224.242964 
L 290.71198 225.434764 
L 291.193698 226.12998 
L 291.675415 226.584746 
L 292.638851 227.917679 
L 293.120569 228.98664 
L 293.602287 229.511972 
L 294.084004 230.533888 
L 294.565722 230.732521 
L 295.529158 232.488858 
L 296.010876 233.333049 
L 296.492593 233.793042 
L 298.419465 236.93197 
L 301.791489 241.518829 
L 302.273207 241.662577 
L 302.754925 242.940625 
L 303.236643 243.698568 
L 303.71836 244.173197 
L 304.200078 245.49071 
L 304.681796 245.876215 
L 306.126949 247.800344 
L 306.608667 248.160236 
L 307.090385 248.810499 
L 307.572103 249.160982 
L 308.535539 250.63505 
L 309.017256 250.964363 
L 309.498974 252.098663 
L 309.980692 252.626609 
L 310.46241 253.350575 
L 311.425845 254.260106 
L 311.907563 255.240205 
L 312.389281 255.864854 
L 314.316152 259.165825 
L 315.279588 260.556258 
L 318.651612 265.650155 
L 319.13333 265.932423 
L 319.615048 266.972634 
L 321.060201 269.02692 
L 321.541919 269.601911 
L 322.023637 269.601911 
L 322.505355 270.383376 
L 323.46879 271.05507 
L 323.950508 271.535971 
L 324.432226 271.805172 
L 324.913944 271.773809 
L 325.395662 272.476866 
L 325.877379 272.704249 
L 326.840815 273.357647 
L 327.322533 273.619007 
L 327.804251 273.697415 
L 328.767686 274.821261 
L 329.249404 275.030348 
L 329.731122 274.742853 
L 330.21284 275.396252 
L 331.176275 275.396252 
L 331.657993 275.892835 
L 332.139711 275.500796 
L 332.621429 275.814427 
L 333.103146 275.422388 
L 333.584864 274.847397 
L 334.5483 272.651977 
L 335.511735 269.473845 
L 336.475171 264.638693 
L 338.402042 252.098663 
L 339.365478 243.766521 
L 340.328914 233.884517 
L 341.292349 221.726072 
L 343.21922 192.963456 
L 344.182656 182.247715 
L 344.664374 177.726195 
L 345.146092 174.72056 
L 345.627809 174.72056 
L 346.109527 174.171705 
L 346.591245 174.72056 
L 347.072963 171.976285 
L 347.554681 171.401294 
L 348.036398 171.401294 
L 348.518116 170.19904 
L 349.481552 171.401294 
L 349.96327 170.800167 
L 350.444987 168.970651 
L 350.926705 168.343388 
L 351.408423 168.970651 
L 351.890141 168.343388 
L 352.853576 170.800167 
L 353.335294 173.100131 
L 353.817012 172.52514 
L 354.29873 173.648986 
L 355.262165 174.72056 
L 355.743883 174.171705 
L 356.225601 174.171705 
L 357.189037 175.243279 
L 357.670754 176.262582 
L 358.152472 174.72056 
L 358.63419 174.72056 
L 359.115908 175.739863 
L 359.597626 175.739863 
L 360.079343 176.262582 
L 361.042779 180.496606 
L 361.524497 180.496606 
L 362.006215 181.385228 
L 363.451368 182.66589 
L 363.933086 183.476105 
L 364.414804 183.057929 
L 365.378239 185.462437 
L 365.859957 183.057929 
L 366.341675 185.82834 
L 366.823393 185.070398 
L 367.30511 186.586283 
L 367.786828 186.586283 
L 368.268546 187.31809 
L 368.750264 189.435102 
L 369.713699 190.768036 
L 370.195417 192.048697 
L 370.677135 192.048697 
L 371.158853 192.67596 
L 371.640571 193.590719 
L 372.604006 194.191845 
L 373.085724 193.878214 
L 374.04916 196.178178 
L 374.530878 196.465673 
L 375.012595 197.275888 
L 375.976031 199.628124 
L 376.457749 199.889483 
L 376.939467 201.353097 
L 377.421184 201.823544 
L 377.902902 202.058767 
L 378.38462 202.058767 
L 379.348056 203.65306 
L 379.829773 203.888284 
L 380.311491 204.332595 
L 381.274927 206.031432 
L 381.756645 206.658695 
L 382.238362 207.860949 
L 382.72008 208.252988 
L 383.201798 209.010931 
L 383.683516 209.40297 
L 384.165234 210.50068 
L 386.092105 213.480179 
L 386.573823 213.636995 
L 387.05554 214.290393 
L 387.537258 214.447209 
L 388.018976 215.571055 
L 388.982412 217.269892 
L 389.464129 218.419874 
L 389.945847 218.864185 
L 390.427565 219.569856 
L 390.909283 220.662339 
L 391.872718 221.726072 
L 392.354436 223.006734 
L 392.836154 223.50593 
L 393.317872 223.50593 
L 393.79959 223.631383 
L 394.281307 225.19954 
L 394.763025 225.552376 
L 395.244743 226.584746 
L 395.726461 227.146669 
L 396.208179 228.241765 
L 397.171614 229.613903 
L 397.653332 229.922307 
L 400.061921 233.333049 
L 400.543639 233.884517 
L 401.025357 233.975993 
L 402.952228 237.09924 
L 403.433946 237.344918 
L 403.915664 237.998316 
L 404.397381 239.030687 
L 404.879099 239.109094 
L 405.360817 239.574314 
L 406.324253 241.372468 
L 408.732842 244.440829 
L 409.214559 245.684116 
L 409.696277 246.257278 
L 410.659713 247.860457 
L 412.104866 249.678474 
L 412.586584 249.848358 
L 415.316318 254.260106 
L 415.798036 254.803734 
L 416.199467 255.530314 
L 416.681185 255.817809 
L 417.082617 256.288256 
L 417.564335 257.532328 
L 417.965766 257.801528 
L 418.367198 258.862648 
L 418.768629 259.335709 
L 419.250347 260.098878 
L 420.05321 261.855214 
L 420.454641 262.406683 
L 421.57865 264.492332 
L 421.980081 264.711874 
L 422.301226 265.47243 
L 424.067525 268.182729 
L 424.709815 269.188963 
L 425.592965 269.884179 
L 425.91411 270.257923 
L 426.154969 270.257923 
L 426.716973 270.751893 
L 426.957832 270.751893 
L 427.198691 270.903481 
L 427.680408 271.415746 
L 428.563558 271.713696 
L 429.526993 271.805172 
L 430.169284 272.508229 
L 430.24957 272.186757 
L 430.410143 272.913336 
L 430.570715 273.01788 
L 431.052433 275.370116 
L 431.132719 275.631475 
L 431.213006 275.030348 
L 431.293292 275.08262 
L 431.694723 274.089454 
L 431.694723 274.141726 
L 431.77501 274.37695 
L 431.77501 274.11559 
L 431.855296 273.906502 
L 431.935582 266.421165 
L 431.935582 266.836727 
" clip-path="url(#p62dc9b6213)" style="fill: none; stroke: #1f77b4; stroke-width: 1.5; stroke-linecap: square"/>
   </g>
   <g id="line2d_24">
    <path d="M 70.64723 267.158199 
L 70.647262 267.233994 
L 70.679345 265.786062 
L 70.755617 267.118995 
L 70.778739 266.261736 
L 70.804993 267.19479 
L 70.834538 267.079791 
L 70.989169 267.348992 
L 71.037984 267.158199 
L 71.091213 267.652169 
L 71.149019 267.50058 
L 71.430503 268.326476 
L 71.514322 268.028527 
L 71.699784 268.548632 
L 72.02414 268.914535 
L 72.273831 268.914535 
L 72.409514 268.326476 
L 72.552424 268.694993 
L 72.859118 268.475451 
L 73.023705 268.475451 
L 73.195517 268.363067 
L 73.560017 267.652169 
L 75.064582 262.422365 
L 75.559949 259.516047 
L 75.818471 256.230757 
L 76.083416 256.175872 
L 77.217861 247.487497 
L 79.133492 231.388534 
L 80.562588 209.951825 
L 82.481431 170.512672 
L 82.882862 164.632082 
L 84.1273 132.092821 
L 84.544789 129.923537 
L 84.978335 129.923537 
L 85.411881 104.205759 
L 85.845427 92.862755 
L 86.728576 92.862755 
L 87.627783 38.578381 
L 90.405689 38.578381 
L 90.871349 61.970059 
L 91.345038 38.578381 
L 92.292417 38.578381 
L 92.774135 75.639162 
L 93.255852 38.578381 
L 93.729542 85.335601 
L 94.211259 61.970059 
L 94.692977 92.862755 
L 95.174695 38.578381 
L 95.656413 99.004704 
L 96.138131 99.004704 
L 96.619848 119.44302 
L 97.583284 119.44302 
L 98.065002 38.578381 
L 98.54672 116.228297 
L 99.510155 122.396382 
L 99.991873 127.597437 
L 100.473591 127.597437 
L 100.955309 119.44302 
L 101.437026 132.092821 
L 103.845615 132.092821 
L 104.327333 134.131425 
L 104.809051 132.092821 
L 105.290769 134.131425 
L 106.254204 141.26654 
L 106.735922 139.619975 
L 107.21764 142.834698 
L 107.699358 137.895002 
L 108.181076 147.14713 
L 108.662793 148.453928 
L 109.144511 153.289079 
L 109.626229 38.578381 
L 110.107947 152.139097 
L 110.589665 154.386789 
L 111.071382 154.386789 
L 111.5531 156.503801 
L 112.034818 156.503801 
L 112.516536 160.371922 
L 112.998254 157.496967 
L 113.479971 162.123031 
L 113.961689 163.821868 
L 114.443407 166.20024 
L 114.925125 166.958182 
L 115.406843 166.958182 
L 115.88856 169.127466 
L 116.370278 169.127466 
L 116.851996 170.512672 
L 117.333714 171.192207 
L 117.815432 173.100131 
L 118.297149 173.727394 
L 119.260585 176.105766 
L 119.742303 178.301186 
L 120.224021 178.850041 
L 120.705738 178.850041 
L 121.187456 180.392062 
L 122.150892 182.352259 
L 122.63261 184.181775 
L 123.114327 184.626087 
L 123.596045 186.377195 
L 124.077763 187.18741 
L 124.559481 187.605585 
L 125.041199 189.957821 
L 125.522917 190.715764 
L 126.004634 192.519144 
L 126.486352 192.858912 
L 127.449788 196.491809 
L 127.931506 197.406568 
L 128.413223 197.720199 
L 128.894941 198.608822 
L 129.376659 200.595154 
L 130.340095 202.215583 
L 131.30353 204.515547 
L 131.785248 205.717801 
L 132.266966 205.953024 
L 132.748684 206.423471 
L 133.712119 207.782541 
L 134.193837 209.324562 
L 135.63899 212.382469 
L 136.120708 212.774508 
L 137.084144 213.898354 
L 137.565862 215.361967 
L 138.047579 216.25059 
L 138.529297 216.407406 
L 139.011015 217.609659 
L 139.974451 219.073273 
L 140.456168 219.700536 
L 140.937886 220.93938 
L 141.419604 221.686868 
L 141.901322 222.991052 
L 142.864757 223.835243 
L 143.346475 225.194313 
L 143.828193 225.724873 
L 144.791629 227.638025 
L 147.681935 232.156931 
L 148.645371 233.847927 
L 149.608807 235.457902 
L 157.838152 248.637479 
L 158.31987 249.814381 
L 158.801588 248.637479 
L 159.283306 251.56549 
L 159.765024 252.051618 
L 161.210177 254.76453 
L 163.618766 258.833898 
L 164.100484 259.469002 
L 164.582202 260.373306 
L 165.06392 260.930002 
L 166.509073 263.337123 
L 166.990791 264.061089 
L 167.472509 264.311994 
L 167.954226 265.422772 
L 168.917662 266.964793 
L 169.39938 267.46399 
L 169.881098 268.216705 
L 170.362815 268.694993 
L 171.807969 270.69178 
L 172.771404 271.813013 
L 175.661711 276.337146 
L 176.625147 277.853031 
L 177.588582 279.682548 
L 178.471732 281.198433 
L 178.953449 281.93024 
L 179.435167 282.348415 
L 179.916885 282.923406 
L 180.398603 283.184766 
L 181.362039 282.949542 
L 181.843756 282.400687 
L 182.325474 281.564337 
L 182.807192 280.205267 
L 183.28891 278.401886 
L 184.252345 273.436055 
L 185.215781 266.102307 
L 186.179217 257.069721 
L 186.660934 251.445264 
L 188.587806 220.633589 
L 192.441548 148.453928 
L 192.923266 148.453928 
L 193.404984 134.131425 
L 193.886701 132.092821 
L 195.331855 132.092821 
L 195.813573 127.597437 
L 196.29529 132.092821 
L 196.777008 129.923537 
L 197.258726 132.092821 
L 197.740444 132.092821 
L 198.222162 134.131425 
L 198.703879 134.131425 
L 199.185597 137.895002 
L 199.667315 134.131425 
L 200.149033 134.131425 
L 200.630751 137.895002 
L 201.112468 139.619975 
L 201.594186 137.895002 
L 202.075904 147.14713 
L 202.557622 142.834698 
L 203.03934 149.734589 
L 203.521057 150.962979 
L 204.002775 144.324447 
L 204.484493 153.289079 
L 204.966211 152.139097 
L 205.447929 153.289079 
L 205.929646 158.490134 
L 206.893082 158.490134 
L 207.3748 161.260545 
L 207.856518 162.123031 
L 208.338235 165.416161 
L 208.819953 165.416161 
L 209.301671 168.421796 
L 209.783389 166.958182 
L 210.265107 169.127466 
L 210.746824 169.127466 
L 211.228542 171.192207 
L 211.71026 172.472868 
L 212.191978 170.512672 
L 212.673696 171.192207 
L 213.155414 174.929648 
L 213.637131 173.100131 
L 214.600567 178.850041 
L 215.082285 178.850041 
L 215.564003 178.301186 
L 216.527438 180.392062 
L 217.009156 180.392062 
L 217.490874 182.822706 
L 217.972592 183.267017 
L 218.454309 182.822706 
L 218.936027 185.932884 
L 219.417745 186.377195 
L 219.899463 170.512672 
L 220.381181 187.18741 
L 220.862898 187.605585 
L 221.344616 188.4158 
L 222.308052 191.44757 
L 222.78977 192.153241 
L 223.271487 193.198679 
L 223.753205 193.564583 
L 224.234923 194.897516 
L 224.716641 197.092936 
L 225.198359 197.092936 
L 225.680076 197.720199 
L 226.643512 199.471308 
L 227.12523 201.144009 
L 227.606948 201.405368 
L 228.088665 202.476943 
L 228.570383 202.999662 
L 229.533819 205.717801 
L 230.497254 206.658695 
L 230.978972 206.893919 
L 231.46069 207.782541 
L 231.942408 209.324562 
L 232.424126 209.53365 
L 232.905843 210.160913 
L 233.387561 211.781342 
L 233.869279 211.99043 
L 235.79615 215.179016 
L 236.277868 215.361967 
L 236.759586 216.747173 
L 237.241304 217.426708 
L 237.723021 218.419874 
L 238.204739 218.759641 
L 238.686457 217.08694 
L 239.168175 220.327799 
L 239.649893 220.93938 
L 240.13161 222.418675 
L 240.613328 223.275934 
L 241.095046 223.417068 
L 241.576764 224.658526 
L 243.985353 228.49267 
L 244.467071 229.211409 
L 245.430506 231.276149 
L 246.393942 232.692718 
L 247.357378 234.663369 
L 247.839095 235.063249 
L 248.320813 236.043347 
L 248.802531 236.524249 
L 249.284249 234.663369 
L 249.765967 238.105474 
L 253.619709 244.010631 
L 254.583145 245.575913 
L 255.064862 246.153701 
L 255.54658 247.210979 
L 256.510016 248.704126 
L 257.473451 250.577551 
L 257.955169 251.199586 
L 258.436887 252.171844 
L 259.88204 254.260106 
L 261.327194 256.75609 
L 262.290629 257.989707 
L 265.662654 263.295305 
L 266.144372 263.723935 
L 267.107807 265.341751 
L 268.071243 266.886385 
L 269.034679 268.438861 
L 269.998114 269.95736 
L 270.479832 270.169061 
L 270.96155 271.478472 
L 272.406703 273.801959 
L 274.815292 277.042817 
L 276.260446 278.63711 
L 276.742164 279.447324 
L 277.223881 279.996179 
L 277.705599 280.727986 
L 278.669035 281.93024 
L 281.559342 286.373352 
L 282.041059 286.791527 
L 283.004495 287.105159 
L 283.486213 287.732422 
L 284.931366 288.699452 
L 285.413084 288.830132 
L 285.894802 288.699452 
L 286.37652 288.281277 
L 286.858237 287.183567 
L 287.339955 285.458594 
L 288.303391 279.316645 
L 288.785109 275.370116 
L 290.230262 258.933215 
L 291.675415 236.997309 
L 294.565722 193.198679 
L 295.04744 186.377195 
L 296.492593 171.845606 
L 296.974311 169.127466 
L 297.456029 167.716125 
L 297.937747 162.123031 
L 298.901182 158.490134 
L 299.3829 155.458363 
L 300.346336 155.458363 
L 300.828054 152.139097 
L 301.309771 152.139097 
L 301.791489 149.734589 
L 302.273207 155.458363 
L 302.754925 155.458363 
L 303.236643 157.496967 
L 303.71836 156.503801 
L 304.681796 160.371922 
L 305.163514 161.260545 
L 305.645232 161.260545 
L 306.126949 162.123031 
L 307.090385 162.123031 
L 307.572103 167.716125 
L 308.053821 165.416161 
L 308.535539 168.421796 
L 309.017256 169.127466 
L 309.980692 169.127466 
L 310.46241 170.512672 
L 310.944128 170.512672 
L 311.425845 173.100131 
L 311.907563 173.727394 
L 312.389281 173.100131 
L 312.870999 175.530775 
L 313.352717 175.530775 
L 313.834434 178.850041 
L 314.316152 177.778467 
L 314.79787 178.850041 
L 315.279588 145.761924 
L 315.761306 179.869343 
L 316.243023 179.869343 
L 316.724741 181.385228 
L 317.206459 154.386789 
L 317.688177 181.855676 
L 318.169895 185.070398 
L 318.651612 184.626087 
L 319.13333 185.932884 
L 319.615048 185.932884 
L 320.578484 187.605585 
L 321.060201 189.199878 
L 321.541919 189.199878 
L 322.023637 191.081667 
L 322.505355 191.081667 
L 322.987073 192.519144 
L 323.46879 192.858912 
L 323.950508 193.878214 
L 324.432226 194.557749 
L 324.913944 196.178178 
L 325.395662 196.178178 
L 325.877379 196.491809 
L 326.359097 197.406568 
L 326.840815 197.720199 
L 327.322533 198.608822 
L 327.804251 198.608822 
L 328.767686 200.307658 
L 329.249404 201.954224 
L 330.21284 202.999662 
L 331.657993 205.953024 
L 332.139711 206.188248 
L 332.621429 206.658695 
L 333.103146 207.33823 
L 333.584864 201.144009 
L 334.066582 209.115475 
L 334.5483 209.742738 
L 335.993453 212.95746 
L 336.475171 212.95746 
L 336.956889 213.715402 
L 337.920324 215.884687 
L 338.402042 216.590357 
L 338.88376 217.766475 
L 339.365478 218.602826 
L 339.847196 218.759641 
L 340.328914 219.700536 
L 340.810631 221.088355 
L 341.774067 221.979591 
L 342.255785 222.991052 
L 343.21922 223.835243 
L 343.700938 225.194313 
L 344.182656 225.591579 
L 344.664374 226.244978 
L 345.146092 227.512572 
L 345.627809 227.760864 
L 346.109527 228.973572 
L 346.591245 229.329021 
L 347.554681 231.166378 
L 348.036398 231.72046 
L 349.481552 233.847927 
L 349.96327 230.71684 
L 350.444987 235.557218 
L 350.926705 236.333456 
L 351.408423 237.371054 
L 351.890141 237.831046 
L 352.371859 238.557626 
L 353.335294 240.473391 
L 353.817012 240.89418 
L 354.780448 242.846536 
L 355.743883 244.086687 
L 356.225601 244.690427 
L 356.707319 245.575913 
L 357.189037 244.615417 
L 357.670754 246.792019 
L 358.152472 247.693187 
L 358.63419 248.033477 
L 359.115908 248.836635 
L 359.597626 249.942447 
L 362.006215 252.940241 
L 362.487932 253.977838 
L 362.96965 254.372491 
L 363.933086 256.387573 
L 365.859957 259.372299 
L 366.341675 260.326261 
L 366.823393 260.420351 
L 367.786828 262.555658 
L 368.268546 262.730769 
L 368.750264 264.144724 
L 369.713699 265.86447 
L 370.195417 266.183328 
L 370.677135 267.652169 
L 372.604006 270.932231 
L 373.567442 272.704249 
L 374.04916 273.383783 
L 374.530878 273.801959 
L 375.012595 275.161028 
L 375.494313 275.34398 
L 375.976031 276.57237 
L 376.457749 277.068953 
L 377.902902 279.212101 
L 379.829773 281.198433 
L 380.793209 282.609775 
L 381.756645 283.681349 
L 383.201798 285.667681 
L 383.683516 285.719953 
L 384.165234 286.896071 
L 385.128669 288.202869 
L 386.573823 289.980114 
L 388.018976 291.417591 
L 388.500694 291.783494 
L 389.464129 291.626679 
L 389.945847 291.417591 
L 390.909283 290.084657 
L 391.391001 288.5165 
L 391.872718 286.45176 
L 392.354436 283.812029 
L 393.317872 276.520098 
L 394.281307 266.102307 
L 395.244743 252.289456 
L 396.208179 235.063249 
L 396.689896 225.194313 
L 398.13505 189.199878 
L 398.616768 178.850041 
L 399.098485 171.845606 
L 399.580203 160.371922 
L 400.061921 155.458363 
L 400.543639 156.503801 
L 401.507074 144.324447 
L 401.988792 139.619975 
L 402.47051 152.139097 
L 402.952228 149.734589 
L 403.433946 154.386789 
L 403.915664 156.503801 
L 404.397381 162.123031 
L 405.360817 165.416161 
L 405.842535 162.985517 
L 406.324253 161.260545 
L 406.80597 162.985517 
L 407.287688 165.416161 
L 407.769406 166.20024 
L 408.251124 170.512672 
L 408.732842 169.127466 
L 409.214559 169.127466 
L 409.696277 174.929648 
L 410.177995 175.530775 
L 410.659713 174.929648 
L 411.141431 149.734589 
L 411.623148 174.929648 
L 412.104866 174.929648 
L 412.586584 178.850041 
L 413.068302 178.850041 
L 413.469733 182.352259 
L 413.951451 182.352259 
L 414.433169 186.377195 
L 414.8346 187.605585 
L 415.316318 187.605585 
L 415.798036 190.715764 
L 416.199467 191.081667 
L 416.681185 194.557749 
L 417.082617 191.081667 
L 417.564335 191.813474 
L 418.367198 199.471308 
L 419.250347 197.720199 
L 419.651778 202.738302 
L 420.05321 201.954224 
L 420.454641 202.215583 
L 420.856073 203.261021 
L 421.177218 204.985994 
L 421.57865 209.324562 
L 421.980081 205.717801 
L 422.301226 204.75077 
L 422.702658 204.018964 
L 423.023803 206.423471 
L 423.425235 206.423471 
L 423.74638 208.671163 
L 424.067525 207.782541 
L 424.38867 210.37 
L 424.709815 210.37 
L 425.030961 209.115475 
L 425.352106 201.954224 
L 425.592965 209.951825 
L 425.91411 211.180215 
L 426.154969 209.951825 
L 426.476114 210.971127 
L 426.716973 209.951825 
L 427.198691 212.774508 
L 427.43955 213.715402 
L 427.680408 215.701735 
L 427.921267 213.349499 
L 428.162126 214.081306 
L 428.563558 215.884687 
L 428.804417 214.264257 
L 429.366421 215.884687 
L 429.526993 215.884687 
L 429.687566 216.25059 
L 429.848139 218.602826 
L 430.169284 219.073273 
L 430.24957 218.602826 
L 430.410143 218.602826 
L 430.570715 219.54372 
L 430.651002 218.602826 
L 430.731288 219.700536 
L 431.052433 220.327799 
L 431.293292 223.417068 
L 431.373578 223.835243 
L 431.453865 225.986232 
L 431.534151 224.927726 
L 431.935582 231.053994 
L 431.935582 234.054401 
L 431.935582 228.49267 
L 431.935582 232.799875 
" clip-path="url(#p62dc9b6213)" style="fill: none; stroke: #ff7f0e; stroke-width: 1.5; stroke-linecap: square"/>
   </g>
   <g id="patch_3">
    <path d="M 52.582813 304.44375 
L 52.582813 25.918125 
" style="fill: none; stroke: #000000; stroke-width: 0.8; stroke-linejoin: miter; stroke-linecap: square"/>
   </g>
   <g id="patch_4">
    <path d="M 450 304.44375 
L 450 25.918125 
" style="fill: none; stroke: #000000; stroke-width: 0.8; stroke-linejoin: miter; stroke-linecap: square"/>
   </g>
   <g id="patch_5">
    <path d="M 52.582813 304.44375 
L 450 304.44375 
" style="fill: none; stroke: #000000; stroke-width: 0.8; stroke-linejoin: miter; stroke-linecap: square"/>
   </g>
   <g id="patch_6">
    <path d="M 52.582813 25.918125 
L 450 25.918125 
" style="fill: none; stroke: #000000; stroke-width: 0.8; stroke-linejoin: miter; stroke-linecap: square"/>
   </g>
   <g id="text_14">
    <!-- Side Wall Distance [mm] -->
    <g transform="translate(177.427656 19.918125)scale(0.12 -0.12)">
     <defs>
      <path id="DejaVuSans-53" d="M 3425 4513 
L 3425 3897 
Q 3066 4069 2747 4153 
Q 2428 4238 2131 4238 
Q 1616 4238 1336 4038 
Q 1056 3838 1056 3469 
Q 1056 3159 1242 3001 
Q 1428 2844 1947 2747 
L 2328 2669 
Q 3034 2534 3370 2195 
Q 3706 1856 3706 1288 
Q 3706 609 3251 259 
Q 2797 -91 1919 -91 
Q 1588 -91 1214 -16 
Q 841 59 441 206 
L 441 856 
Q 825 641 1194 531 
Q 1563 422 1919 422 
Q 2459 422 2753 634 
Q 3047 847 3047 1241 
Q 3047 1584 2836 1778 
Q 2625 1972 2144 2069 
L 1759 2144 
Q 1053 2284 737 2584 
Q 422 2884 422 3419 
Q 422 4038 858 4394 
Q 1294 4750 2059 4750 
Q 2388 4750 2728 4690 
Q 3069 4631 3425 4513 
z
" transform="scale(0.015625)"/>
      <path id="DejaVuSans-64" d="M 2906 2969 
L 2906 4863 
L 3481 4863 
L 3481 0 
L 2906 0 
L 2906 525 
Q 2725 213 2448 61 
Q 2172 -91 1784 -91 
Q 1150 -91 751 415 
Q 353 922 353 1747 
Q 353 2572 751 3078 
Q 1150 3584 1784 3584 
Q 2172 3584 2448 3432 
Q 2725 3281 2906 2969 
z
M 947 1747 
Q 947 1113 1208 752 
Q 1469 391 1925 391 
Q 2381 391 2643 752 
Q 2906 1113 2906 1747 
Q 2906 2381 2643 2742 
Q 2381 3103 1925 3103 
Q 1469 3103 1208 2742 
Q 947 2381 947 1747 
z
" transform="scale(0.015625)"/>
     </defs>
     <use xlink:href="#DejaVuSans-53"/>
     <use xlink:href="#DejaVuSans-69" x="63.476562"/>
     <use xlink:href="#DejaVuSans-64" x="91.259766"/>
     <use xlink:href="#DejaVuSans-65" x="154.736328"/>
     <use xlink:href="#DejaVuSans-20" x="216.259766"/>
     <use xlink:href="#DejaVuSans-57" x="248.046875"/>
     <use xlink:href="#DejaVuSans-61" x="340.548828"/>
     <use xlink:href="#DejaVuSans-6c" x="401.828125"/>
     <use xlink:href="#DejaVuSans-6c" x="429.611328"/>
     <use xlink:href="#DejaVuSans-20" x="457.394531"/>
     <use xlink:href="#DejaVuSans-44" x="489.181641"/>
     <use xlink:href="#DejaVuSans-69" x="566.183594"/>
     <use xlink:href="#DejaVuSans-73" x="593.966797"/>
     <use xlink:href="#DejaVuSans-74" x="646.066406"/>
     <use xlink:href="#DejaVuSans-61" x="685.275391"/>
     <use xlink:href="#DejaVuSans-6e" x="746.554688"/>
     <use xlink:href="#DejaVuSans-63" x="809.933594"/>
     <use xlink:href="#DejaVuSans-65" x="864.914062"/>
     <use xlink:href="#DejaVuSans-20" x="926.4375"/>
     <use xlink:href="#DejaVuSans-5b" x="958.224609"/>
     <use xlink:href="#DejaVuSans-6d" x="997.238281"/>
     <use xlink:href="#DejaVuSans-6d" x="1094.650391"/>
     <use xlink:href="#DejaVuSans-5d" x="1192.0625"/>
    </g>
   </g>
   <g id="legend_1">
    <g id="patch_7">
     <path d="M 404.051562 63.274375 
L 443 63.274375 
Q 445 63.274375 445 61.274375 
L 445 32.918125 
Q 445 30.918125 443 30.918125 
L 404.051562 30.918125 
Q 402.051562 30.918125 402.051562 32.918125 
L 402.051562 61.274375 
Q 402.051562 63.274375 404.051562 63.274375 
z
" style="fill: #ffffff; opacity: 0.8; stroke: #cccccc; stroke-linejoin: miter"/>
    </g>
    <g id="line2d_25">
     <path d="M 406.051562 39.016562 
L 416.051562 39.016562 
L 426.051562 39.016562 
" style="fill: none; stroke: #1f77b4; stroke-width: 1.5; stroke-linecap: square"/>
    </g>
    <g id="text_15">
     <!-- L -->
     <g transform="translate(434.051562 42.516562)scale(0.1 -0.1)">
      <defs>
       <path id="DejaVuSans-4c" d="M 628 4666 
L 1259 4666 
L 1259 531 
L 3531 531 
L 3531 0 
L 628 0 
L 628 4666 
z
" transform="scale(0.015625)"/>
      </defs>
      <use xlink:href="#DejaVuSans-4c"/>
     </g>
    </g>
    <g id="line2d_26">
     <path d="M 406.051562 53.694687 
L 416.051562 53.694687 
L 426.051562 53.694687 
" style="fill: none; stroke: #ff7f0e; stroke-width: 1.5; stroke-linecap: square"/>
    </g>
    <g id="text_16">
     <!-- R -->
     <g transform="translate(434.051562 57.194687)scale(0.1 -0.1)">
      <defs>
       <path id="DejaVuSans-52" d="M 2841 2188 
Q 3044 2119 3236 1894 
Q 3428 1669 3622 1275 
L 4263 0 
L 3584 0 
L 2988 1197 
Q 2756 1666 2539 1819 
Q 2322 1972 1947 1972 
L 1259 1972 
L 1259 0 
L 628 0 
L 628 4666 
L 2053 4666 
Q 2853 4666 3247 4331 
Q 3641 3997 3641 3322 
Q 3641 2881 3436 2590 
Q 3231 2300 2841 2188 
z
M 1259 4147 
L 1259 2491 
L 2053 2491 
Q 2509 2491 2742 2702 
Q 2975 2913 2975 3322 
Q 2975 3731 2742 3939 
Q 2509 4147 2053 4147 
L 1259 4147 
z
" transform="scale(0.015625)"/>
      </defs>
      <use xlink:href="#DejaVuSans-52"/>
     </g>
    </g>
   </g>
  </g>
 </g>
 <defs>
  <clipPath id="p62dc9b6213">
   <rect x="52.582813" y="25.918125" width="397.417187" height="278.525625"/>
  </clipPath>
 </defs>
</svg>
