<?xml version="1.0" encoding="utf-8" standalone="no"?>
<!DOCTYPE svg PUBLIC "-//W3C//DTD SVG 1.1//EN"
  "http://www.w3.org/Graphics/SVG/1.1/DTD/svg11.dtd">
<svg xmlns:xlink="http://www.w3.org/1999/xlink" width="460.8pt" height="345.6pt" viewBox="0 0 460.8 345.6" xmlns="http://www.w3.org/2000/svg" version="1.1">
 <metadata>
  <rdf:RDF xmlns:dc="http://purl.org/dc/elements/1.1/" xmlns:cc="http://creativecommons.org/ns#" xmlns:rdf="http://www.w3.org/1999/02/22-rdf-syntax-ns#">
   <cc:Work>
    <dc:type rdf:resource="http://purl.org/dc/dcmitype/StillImage"/>
    <dc:date>2022-01-16T02:34:12.747338</dc:date>
    <dc:format>image/svg+xml</dc:format>
    <dc:creator>
     <cc:Agent>
      <dc:title>Matplotlib v3.5.1, https://matplotlib.org/</dc:title>
     </cc:Agent>
    </dc:creator>
   </cc:Work>
  </rdf:RDF>
 </metadata>
 <defs>
  <style type="text/css">*{stroke-linejoin: round; stroke-linecap: butt}</style>
 </defs>
 <g id="figure_1">
  <g id="patch_1">
   <path d="M 0 345.6 
L 460.8 345.6 
L 460.8 0 
L 0 0 
z
" style="fill: #ffffff"/>
  </g>
  <g id="axes_1">
   <g id="patch_2">
    <path d="M 52.582813 304.44375 
L 450 304.44375 
L 450 25.918125 
L 52.582813 25.918125 
z
" style="fill: #ffffff"/>
   </g>
   <g id="matplotlib.axis_1">
    <g id="xtick_1">
     <g id="line2d_1">
      <path d="M 70.64723 304.44375 
L 70.64723 25.918125 
" clip-path="url(#pc5e42e7cd0)" style="fill: none; stroke: #b0b0b0; stroke-width: 0.8; stroke-linecap: square"/>
     </g>
     <g id="line2d_2">
      <defs>
       <path id="m9163f9804d" d="M 0 0 
L 0 3.5 
" style="stroke: #000000; stroke-width: 0.8"/>
      </defs>
      <g>
       <use xlink:href="#m9163f9804d" x="70.64723" y="304.44375" style="stroke: #000000; stroke-width: 0.8"/>
      </g>
     </g>
     <g id="text_1">
      <!-- 0 -->
      <g transform="translate(67.46598 319.042187)scale(0.1 -0.1)">
       <defs>
        <path id="DejaVuSans-30" d="M 2034 4250 
Q 1547 4250 1301 3770 
Q 1056 3291 1056 2328 
Q 1056 1369 1301 889 
Q 1547 409 2034 409 
Q 2525 409 2770 889 
Q 3016 1369 3016 2328 
Q 3016 3291 2770 3770 
Q 2525 4250 2034 4250 
z
M 2034 4750 
Q 2819 4750 3233 4129 
Q 3647 3509 3647 2328 
Q 3647 1150 3233 529 
Q 2819 -91 2034 -91 
Q 1250 -91 836 529 
Q 422 1150 422 2328 
Q 422 3509 836 4129 
Q 1250 4750 2034 4750 
z
" transform="scale(0.015625)"/>
       </defs>
       <use xlink:href="#DejaVuSans-30"/>
      </g>
     </g>
    </g>
    <g id="xtick_2">
     <g id="line2d_3">
      <path d="M 150.933531 304.44375 
L 150.933531 25.918125 
" clip-path="url(#pc5e42e7cd0)" style="fill: none; stroke: #b0b0b0; stroke-width: 0.8; stroke-linecap: square"/>
     </g>
     <g id="line2d_4">
      <g>
       <use xlink:href="#m9163f9804d" x="150.933531" y="304.44375" style="stroke: #000000; stroke-width: 0.8"/>
      </g>
     </g>
     <g id="text_2">
      <!-- 100 -->
      <g transform="translate(141.389781 319.042187)scale(0.1 -0.1)">
       <defs>
        <path id="DejaVuSans-31" d="M 794 531 
L 1825 531 
L 1825 4091 
L 703 3866 
L 703 4441 
L 1819 4666 
L 2450 4666 
L 2450 531 
L 3481 531 
L 3481 0 
L 794 0 
L 794 531 
z
" transform="scale(0.015625)"/>
       </defs>
       <use xlink:href="#DejaVuSans-31"/>
       <use xlink:href="#DejaVuSans-30" x="63.623047"/>
       <use xlink:href="#DejaVuSans-30" x="127.246094"/>
      </g>
     </g>
    </g>
    <g id="xtick_3">
     <g id="line2d_5">
      <path d="M 231.219831 304.44375 
L 231.219831 25.918125 
" clip-path="url(#pc5e42e7cd0)" style="fill: none; stroke: #b0b0b0; stroke-width: 0.8; stroke-linecap: square"/>
     </g>
     <g id="line2d_6">
      <g>
       <use xlink:href="#m9163f9804d" x="231.219831" y="304.44375" style="stroke: #000000; stroke-width: 0.8"/>
      </g>
     </g>
     <g id="text_3">
      <!-- 200 -->
      <g transform="translate(221.676081 319.042187)scale(0.1 -0.1)">
       <defs>
        <path id="DejaVuSans-32" d="M 1228 531 
L 3431 531 
L 3431 0 
L 469 0 
L 469 531 
Q 828 903 1448 1529 
Q 2069 2156 2228 2338 
Q 2531 2678 2651 2914 
Q 2772 3150 2772 3378 
Q 2772 3750 2511 3984 
Q 2250 4219 1831 4219 
Q 1534 4219 1204 4116 
Q 875 4013 500 3803 
L 500 4441 
Q 881 4594 1212 4672 
Q 1544 4750 1819 4750 
Q 2544 4750 2975 4387 
Q 3406 4025 3406 3419 
Q 3406 3131 3298 2873 
Q 3191 2616 2906 2266 
Q 2828 2175 2409 1742 
Q 1991 1309 1228 531 
z
" transform="scale(0.015625)"/>
       </defs>
       <use xlink:href="#DejaVuSans-32"/>
       <use xlink:href="#DejaVuSans-30" x="63.623047"/>
       <use xlink:href="#DejaVuSans-30" x="127.246094"/>
      </g>
     </g>
    </g>
    <g id="xtick_4">
     <g id="line2d_7">
      <path d="M 311.506132 304.44375 
L 311.506132 25.918125 
" clip-path="url(#pc5e42e7cd0)" style="fill: none; stroke: #b0b0b0; stroke-width: 0.8; stroke-linecap: square"/>
     </g>
     <g id="line2d_8">
      <g>
       <use xlink:href="#m9163f9804d" x="311.506132" y="304.44375" style="stroke: #000000; stroke-width: 0.8"/>
      </g>
     </g>
     <g id="text_4">
      <!-- 300 -->
      <g transform="translate(301.962382 319.042187)scale(0.1 -0.1)">
       <defs>
        <path id="DejaVuSans-33" d="M 2597 2516 
Q 3050 2419 3304 2112 
Q 3559 1806 3559 1356 
Q 3559 666 3084 287 
Q 2609 -91 1734 -91 
Q 1441 -91 1130 -33 
Q 819 25 488 141 
L 488 750 
Q 750 597 1062 519 
Q 1375 441 1716 441 
Q 2309 441 2620 675 
Q 2931 909 2931 1356 
Q 2931 1769 2642 2001 
Q 2353 2234 1838 2234 
L 1294 2234 
L 1294 2753 
L 1863 2753 
Q 2328 2753 2575 2939 
Q 2822 3125 2822 3475 
Q 2822 3834 2567 4026 
Q 2313 4219 1838 4219 
Q 1578 4219 1281 4162 
Q 984 4106 628 3988 
L 628 4550 
Q 988 4650 1302 4700 
Q 1616 4750 1894 4750 
Q 2613 4750 3031 4423 
Q 3450 4097 3450 3541 
Q 3450 3153 3228 2886 
Q 3006 2619 2597 2516 
z
" transform="scale(0.015625)"/>
       </defs>
       <use xlink:href="#DejaVuSans-33"/>
       <use xlink:href="#DejaVuSans-30" x="63.623047"/>
       <use xlink:href="#DejaVuSans-30" x="127.246094"/>
      </g>
     </g>
    </g>
    <g id="xtick_5">
     <g id="line2d_9">
      <path d="M 391.792432 304.44375 
L 391.792432 25.918125 
" clip-path="url(#pc5e42e7cd0)" style="fill: none; stroke: #b0b0b0; stroke-width: 0.8; stroke-linecap: square"/>
     </g>
     <g id="line2d_10">
      <g>
       <use xlink:href="#m9163f9804d" x="391.792432" y="304.44375" style="stroke: #000000; stroke-width: 0.8"/>
      </g>
     </g>
     <g id="text_5">
      <!-- 400 -->
      <g transform="translate(382.248682 319.042187)scale(0.1 -0.1)">
       <defs>
        <path id="DejaVuSans-34" d="M 2419 4116 
L 825 1625 
L 2419 1625 
L 2419 4116 
z
M 2253 4666 
L 3047 4666 
L 3047 1625 
L 3713 1625 
L 3713 1100 
L 3047 1100 
L 3047 0 
L 2419 0 
L 2419 1100 
L 313 1100 
L 313 1709 
L 2253 4666 
z
" transform="scale(0.015625)"/>
       </defs>
       <use xlink:href="#DejaVuSans-34"/>
       <use xlink:href="#DejaVuSans-30" x="63.623047"/>
       <use xlink:href="#DejaVuSans-30" x="127.246094"/>
      </g>
     </g>
    </g>
    <g id="text_6">
     <!-- Translational Position [mm] -->
     <g transform="translate(183.314062 332.720312)scale(0.1 -0.1)">
      <defs>
       <path id="DejaVuSans-54" d="M -19 4666 
L 3928 4666 
L 3928 4134 
L 2272 4134 
L 2272 0 
L 1638 0 
L 1638 4134 
L -19 4134 
L -19 4666 
z
" transform="scale(0.015625)"/>
       <path id="DejaVuSans-72" d="M 2631 2963 
Q 2534 3019 2420 3045 
Q 2306 3072 2169 3072 
Q 1681 3072 1420 2755 
Q 1159 2438 1159 1844 
L 1159 0 
L 581 0 
L 581 3500 
L 1159 3500 
L 1159 2956 
Q 1341 3275 1631 3429 
Q 1922 3584 2338 3584 
Q 2397 3584 2469 3576 
Q 2541 3569 2628 3553 
L 2631 2963 
z
" transform="scale(0.015625)"/>
       <path id="DejaVuSans-61" d="M 2194 1759 
Q 1497 1759 1228 1600 
Q 959 1441 959 1056 
Q 959 750 1161 570 
Q 1363 391 1709 391 
Q 2188 391 2477 730 
Q 2766 1069 2766 1631 
L 2766 1759 
L 2194 1759 
z
M 3341 1997 
L 3341 0 
L 2766 0 
L 2766 531 
Q 2569 213 2275 61 
Q 1981 -91 1556 -91 
Q 1019 -91 701 211 
Q 384 513 384 1019 
Q 384 1609 779 1909 
Q 1175 2209 1959 2209 
L 2766 2209 
L 2766 2266 
Q 2766 2663 2505 2880 
Q 2244 3097 1772 3097 
Q 1472 3097 1187 3025 
Q 903 2953 641 2809 
L 641 3341 
Q 956 3463 1253 3523 
Q 1550 3584 1831 3584 
Q 2591 3584 2966 3190 
Q 3341 2797 3341 1997 
z
" transform="scale(0.015625)"/>
       <path id="DejaVuSans-6e" d="M 3513 2113 
L 3513 0 
L 2938 0 
L 2938 2094 
Q 2938 2591 2744 2837 
Q 2550 3084 2163 3084 
Q 1697 3084 1428 2787 
Q 1159 2491 1159 1978 
L 1159 0 
L 581 0 
L 581 3500 
L 1159 3500 
L 1159 2956 
Q 1366 3272 1645 3428 
Q 1925 3584 2291 3584 
Q 2894 3584 3203 3211 
Q 3513 2838 3513 2113 
z
" transform="scale(0.015625)"/>
       <path id="DejaVuSans-73" d="M 2834 3397 
L 2834 2853 
Q 2591 2978 2328 3040 
Q 2066 3103 1784 3103 
Q 1356 3103 1142 2972 
Q 928 2841 928 2578 
Q 928 2378 1081 2264 
Q 1234 2150 1697 2047 
L 1894 2003 
Q 2506 1872 2764 1633 
Q 3022 1394 3022 966 
Q 3022 478 2636 193 
Q 2250 -91 1575 -91 
Q 1294 -91 989 -36 
Q 684 19 347 128 
L 347 722 
Q 666 556 975 473 
Q 1284 391 1588 391 
Q 1994 391 2212 530 
Q 2431 669 2431 922 
Q 2431 1156 2273 1281 
Q 2116 1406 1581 1522 
L 1381 1569 
Q 847 1681 609 1914 
Q 372 2147 372 2553 
Q 372 3047 722 3315 
Q 1072 3584 1716 3584 
Q 2034 3584 2315 3537 
Q 2597 3491 2834 3397 
z
" transform="scale(0.015625)"/>
       <path id="DejaVuSans-6c" d="M 603 4863 
L 1178 4863 
L 1178 0 
L 603 0 
L 603 4863 
z
" transform="scale(0.015625)"/>
       <path id="DejaVuSans-74" d="M 1172 4494 
L 1172 3500 
L 2356 3500 
L 2356 3053 
L 1172 3053 
L 1172 1153 
Q 1172 725 1289 603 
Q 1406 481 1766 481 
L 2356 481 
L 2356 0 
L 1766 0 
Q 1100 0 847 248 
Q 594 497 594 1153 
L 594 3053 
L 172 3053 
L 172 3500 
L 594 3500 
L 594 4494 
L 1172 4494 
z
" transform="scale(0.015625)"/>
       <path id="DejaVuSans-69" d="M 603 3500 
L 1178 3500 
L 1178 0 
L 603 0 
L 603 3500 
z
M 603 4863 
L 1178 4863 
L 1178 4134 
L 603 4134 
L 603 4863 
z
" transform="scale(0.015625)"/>
       <path id="DejaVuSans-6f" d="M 1959 3097 
Q 1497 3097 1228 2736 
Q 959 2375 959 1747 
Q 959 1119 1226 758 
Q 1494 397 1959 397 
Q 2419 397 2687 759 
Q 2956 1122 2956 1747 
Q 2956 2369 2687 2733 
Q 2419 3097 1959 3097 
z
M 1959 3584 
Q 2709 3584 3137 3096 
Q 3566 2609 3566 1747 
Q 3566 888 3137 398 
Q 2709 -91 1959 -91 
Q 1206 -91 779 398 
Q 353 888 353 1747 
Q 353 2609 779 3096 
Q 1206 3584 1959 3584 
z
" transform="scale(0.015625)"/>
       <path id="DejaVuSans-20" transform="scale(0.015625)"/>
       <path id="DejaVuSans-50" d="M 1259 4147 
L 1259 2394 
L 2053 2394 
Q 2494 2394 2734 2622 
Q 2975 2850 2975 3272 
Q 2975 3691 2734 3919 
Q 2494 4147 2053 4147 
L 1259 4147 
z
M 628 4666 
L 2053 4666 
Q 2838 4666 3239 4311 
Q 3641 3956 3641 3272 
Q 3641 2581 3239 2228 
Q 2838 1875 2053 1875 
L 1259 1875 
L 1259 0 
L 628 0 
L 628 4666 
z
" transform="scale(0.015625)"/>
       <path id="DejaVuSans-5b" d="M 550 4863 
L 1875 4863 
L 1875 4416 
L 1125 4416 
L 1125 -397 
L 1875 -397 
L 1875 -844 
L 550 -844 
L 550 4863 
z
" transform="scale(0.015625)"/>
       <path id="DejaVuSans-6d" d="M 3328 2828 
Q 3544 3216 3844 3400 
Q 4144 3584 4550 3584 
Q 5097 3584 5394 3201 
Q 5691 2819 5691 2113 
L 5691 0 
L 5113 0 
L 5113 2094 
Q 5113 2597 4934 2840 
Q 4756 3084 4391 3084 
Q 3944 3084 3684 2787 
Q 3425 2491 3425 1978 
L 3425 0 
L 2847 0 
L 2847 2094 
Q 2847 2600 2669 2842 
Q 2491 3084 2119 3084 
Q 1678 3084 1418 2786 
Q 1159 2488 1159 1978 
L 1159 0 
L 581 0 
L 581 3500 
L 1159 3500 
L 1159 2956 
Q 1356 3278 1631 3431 
Q 1906 3584 2284 3584 
Q 2666 3584 2933 3390 
Q 3200 3197 3328 2828 
z
" transform="scale(0.015625)"/>
       <path id="DejaVuSans-5d" d="M 1947 4863 
L 1947 -844 
L 622 -844 
L 622 -397 
L 1369 -397 
L 1369 4416 
L 622 4416 
L 622 4863 
L 1947 4863 
z
" transform="scale(0.015625)"/>
      </defs>
      <use xlink:href="#DejaVuSans-54"/>
      <use xlink:href="#DejaVuSans-72" x="46.333984"/>
      <use xlink:href="#DejaVuSans-61" x="87.447266"/>
      <use xlink:href="#DejaVuSans-6e" x="148.726562"/>
      <use xlink:href="#DejaVuSans-73" x="212.105469"/>
      <use xlink:href="#DejaVuSans-6c" x="264.205078"/>
      <use xlink:href="#DejaVuSans-61" x="291.988281"/>
      <use xlink:href="#DejaVuSans-74" x="353.267578"/>
      <use xlink:href="#DejaVuSans-69" x="392.476562"/>
      <use xlink:href="#DejaVuSans-6f" x="420.259766"/>
      <use xlink:href="#DejaVuSans-6e" x="481.441406"/>
      <use xlink:href="#DejaVuSans-61" x="544.820312"/>
      <use xlink:href="#DejaVuSans-6c" x="606.099609"/>
      <use xlink:href="#DejaVuSans-20" x="633.882812"/>
      <use xlink:href="#DejaVuSans-50" x="665.669922"/>
      <use xlink:href="#DejaVuSans-6f" x="722.347656"/>
      <use xlink:href="#DejaVuSans-73" x="783.529297"/>
      <use xlink:href="#DejaVuSans-69" x="835.628906"/>
      <use xlink:href="#DejaVuSans-74" x="863.412109"/>
      <use xlink:href="#DejaVuSans-69" x="902.621094"/>
      <use xlink:href="#DejaVuSans-6f" x="930.404297"/>
      <use xlink:href="#DejaVuSans-6e" x="991.585938"/>
      <use xlink:href="#DejaVuSans-20" x="1054.964844"/>
      <use xlink:href="#DejaVuSans-5b" x="1086.751953"/>
      <use xlink:href="#DejaVuSans-6d" x="1125.765625"/>
      <use xlink:href="#DejaVuSans-6d" x="1223.177734"/>
      <use xlink:href="#DejaVuSans-5d" x="1320.589844"/>
     </g>
    </g>
   </g>
   <g id="matplotlib.axis_2">
    <g id="ytick_1">
     <g id="line2d_11">
      <path d="M 52.582813 288.586398 
L 450 288.586398 
" clip-path="url(#pc5e42e7cd0)" style="fill: none; stroke: #b0b0b0; stroke-width: 0.8; stroke-linecap: square"/>
     </g>
     <g id="line2d_12">
      <defs>
       <path id="m7a1e6f521b" d="M 0 0 
L -3.5 0 
" style="stroke: #000000; stroke-width: 0.8"/>
      </defs>
      <g>
       <use xlink:href="#m7a1e6f521b" x="52.582813" y="288.586398" style="stroke: #000000; stroke-width: 0.8"/>
      </g>
     </g>
     <g id="text_7">
      <!-- −80 -->
      <g transform="translate(24.478125 292.385617)scale(0.1 -0.1)">
       <defs>
        <path id="DejaVuSans-2212" d="M 678 2272 
L 4684 2272 
L 4684 1741 
L 678 1741 
L 678 2272 
z
" transform="scale(0.015625)"/>
        <path id="DejaVuSans-38" d="M 2034 2216 
Q 1584 2216 1326 1975 
Q 1069 1734 1069 1313 
Q 1069 891 1326 650 
Q 1584 409 2034 409 
Q 2484 409 2743 651 
Q 3003 894 3003 1313 
Q 3003 1734 2745 1975 
Q 2488 2216 2034 2216 
z
M 1403 2484 
Q 997 2584 770 2862 
Q 544 3141 544 3541 
Q 544 4100 942 4425 
Q 1341 4750 2034 4750 
Q 2731 4750 3128 4425 
Q 3525 4100 3525 3541 
Q 3525 3141 3298 2862 
Q 3072 2584 2669 2484 
Q 3125 2378 3379 2068 
Q 3634 1759 3634 1313 
Q 3634 634 3220 271 
Q 2806 -91 2034 -91 
Q 1263 -91 848 271 
Q 434 634 434 1313 
Q 434 1759 690 2068 
Q 947 2378 1403 2484 
z
M 1172 3481 
Q 1172 3119 1398 2916 
Q 1625 2713 2034 2713 
Q 2441 2713 2670 2916 
Q 2900 3119 2900 3481 
Q 2900 3844 2670 4047 
Q 2441 4250 2034 4250 
Q 1625 4250 1398 4047 
Q 1172 3844 1172 3481 
z
" transform="scale(0.015625)"/>
       </defs>
       <use xlink:href="#DejaVuSans-2212"/>
       <use xlink:href="#DejaVuSans-38" x="83.789062"/>
       <use xlink:href="#DejaVuSans-30" x="147.412109"/>
      </g>
     </g>
    </g>
    <g id="ytick_2">
     <g id="line2d_13">
      <path d="M 52.582813 239.775774 
L 450 239.775774 
" clip-path="url(#pc5e42e7cd0)" style="fill: none; stroke: #b0b0b0; stroke-width: 0.8; stroke-linecap: square"/>
     </g>
     <g id="line2d_14">
      <g>
       <use xlink:href="#m7a1e6f521b" x="52.582813" y="239.775774" style="stroke: #000000; stroke-width: 0.8"/>
      </g>
     </g>
     <g id="text_8">
      <!-- −60 -->
      <g transform="translate(24.478125 243.574993)scale(0.1 -0.1)">
       <defs>
        <path id="DejaVuSans-36" d="M 2113 2584 
Q 1688 2584 1439 2293 
Q 1191 2003 1191 1497 
Q 1191 994 1439 701 
Q 1688 409 2113 409 
Q 2538 409 2786 701 
Q 3034 994 3034 1497 
Q 3034 2003 2786 2293 
Q 2538 2584 2113 2584 
z
M 3366 4563 
L 3366 3988 
Q 3128 4100 2886 4159 
Q 2644 4219 2406 4219 
Q 1781 4219 1451 3797 
Q 1122 3375 1075 2522 
Q 1259 2794 1537 2939 
Q 1816 3084 2150 3084 
Q 2853 3084 3261 2657 
Q 3669 2231 3669 1497 
Q 3669 778 3244 343 
Q 2819 -91 2113 -91 
Q 1303 -91 875 529 
Q 447 1150 447 2328 
Q 447 3434 972 4092 
Q 1497 4750 2381 4750 
Q 2619 4750 2861 4703 
Q 3103 4656 3366 4563 
z
" transform="scale(0.015625)"/>
       </defs>
       <use xlink:href="#DejaVuSans-2212"/>
       <use xlink:href="#DejaVuSans-36" x="83.789062"/>
       <use xlink:href="#DejaVuSans-30" x="147.412109"/>
      </g>
     </g>
    </g>
    <g id="ytick_3">
     <g id="line2d_15">
      <path d="M 52.582813 190.96515 
L 450 190.96515 
" clip-path="url(#pc5e42e7cd0)" style="fill: none; stroke: #b0b0b0; stroke-width: 0.8; stroke-linecap: square"/>
     </g>
     <g id="line2d_16">
      <g>
       <use xlink:href="#m7a1e6f521b" x="52.582813" y="190.96515" style="stroke: #000000; stroke-width: 0.8"/>
      </g>
     </g>
     <g id="text_9">
      <!-- −40 -->
      <g transform="translate(24.478125 194.764369)scale(0.1 -0.1)">
       <use xlink:href="#DejaVuSans-2212"/>
       <use xlink:href="#DejaVuSans-34" x="83.789062"/>
       <use xlink:href="#DejaVuSans-30" x="147.412109"/>
      </g>
     </g>
    </g>
    <g id="ytick_4">
     <g id="line2d_17">
      <path d="M 52.582813 142.154525 
L 450 142.154525 
" clip-path="url(#pc5e42e7cd0)" style="fill: none; stroke: #b0b0b0; stroke-width: 0.8; stroke-linecap: square"/>
     </g>
     <g id="line2d_18">
      <g>
       <use xlink:href="#m7a1e6f521b" x="52.582813" y="142.154525" style="stroke: #000000; stroke-width: 0.8"/>
      </g>
     </g>
     <g id="text_10">
      <!-- −20 -->
      <g transform="translate(24.478125 145.953744)scale(0.1 -0.1)">
       <use xlink:href="#DejaVuSans-2212"/>
       <use xlink:href="#DejaVuSans-32" x="83.789062"/>
       <use xlink:href="#DejaVuSans-30" x="147.412109"/>
      </g>
     </g>
    </g>
    <g id="ytick_5">
     <g id="line2d_19">
      <path d="M 52.582813 93.343901 
L 450 93.343901 
" clip-path="url(#pc5e42e7cd0)" style="fill: none; stroke: #b0b0b0; stroke-width: 0.8; stroke-linecap: square"/>
     </g>
     <g id="line2d_20">
      <g>
       <use xlink:href="#m7a1e6f521b" x="52.582813" y="93.343901" style="stroke: #000000; stroke-width: 0.8"/>
      </g>
     </g>
     <g id="text_11">
      <!-- 0 -->
      <g transform="translate(39.220313 97.14312)scale(0.1 -0.1)">
       <use xlink:href="#DejaVuSans-30"/>
      </g>
     </g>
    </g>
    <g id="ytick_6">
     <g id="line2d_21">
      <path d="M 52.582813 44.533277 
L 450 44.533277 
" clip-path="url(#pc5e42e7cd0)" style="fill: none; stroke: #b0b0b0; stroke-width: 0.8; stroke-linecap: square"/>
     </g>
     <g id="line2d_22">
      <g>
       <use xlink:href="#m7a1e6f521b" x="52.582813" y="44.533277" style="stroke: #000000; stroke-width: 0.8"/>
      </g>
     </g>
     <g id="text_12">
      <!-- 20 -->
      <g transform="translate(32.857813 48.332496)scale(0.1 -0.1)">
       <use xlink:href="#DejaVuSans-32"/>
       <use xlink:href="#DejaVuSans-30" x="63.623047"/>
      </g>
     </g>
    </g>
    <g id="text_13">
     <!-- Wall Distance [mm] -->
     <g transform="translate(18.398438 214.330937)rotate(-90)scale(0.1 -0.1)">
      <defs>
       <path id="DejaVuSans-57" d="M 213 4666 
L 850 4666 
L 1831 722 
L 2809 4666 
L 3519 4666 
L 4500 722 
L 5478 4666 
L 6119 4666 
L 4947 0 
L 4153 0 
L 3169 4050 
L 2175 0 
L 1381 0 
L 213 4666 
z
" transform="scale(0.015625)"/>
       <path id="DejaVuSans-44" d="M 1259 4147 
L 1259 519 
L 2022 519 
Q 2988 519 3436 956 
Q 3884 1394 3884 2338 
Q 3884 3275 3436 3711 
Q 2988 4147 2022 4147 
L 1259 4147 
z
M 628 4666 
L 1925 4666 
Q 3281 4666 3915 4102 
Q 4550 3538 4550 2338 
Q 4550 1131 3912 565 
Q 3275 0 1925 0 
L 628 0 
L 628 4666 
z
" transform="scale(0.015625)"/>
       <path id="DejaVuSans-63" d="M 3122 3366 
L 3122 2828 
Q 2878 2963 2633 3030 
Q 2388 3097 2138 3097 
Q 1578 3097 1268 2742 
Q 959 2388 959 1747 
Q 959 1106 1268 751 
Q 1578 397 2138 397 
Q 2388 397 2633 464 
Q 2878 531 3122 666 
L 3122 134 
Q 2881 22 2623 -34 
Q 2366 -91 2075 -91 
Q 1284 -91 818 406 
Q 353 903 353 1747 
Q 353 2603 823 3093 
Q 1294 3584 2113 3584 
Q 2378 3584 2631 3529 
Q 2884 3475 3122 3366 
z
" transform="scale(0.015625)"/>
       <path id="DejaVuSans-65" d="M 3597 1894 
L 3597 1613 
L 953 1613 
Q 991 1019 1311 708 
Q 1631 397 2203 397 
Q 2534 397 2845 478 
Q 3156 559 3463 722 
L 3463 178 
Q 3153 47 2828 -22 
Q 2503 -91 2169 -91 
Q 1331 -91 842 396 
Q 353 884 353 1716 
Q 353 2575 817 3079 
Q 1281 3584 2069 3584 
Q 2775 3584 3186 3129 
Q 3597 2675 3597 1894 
z
M 3022 2063 
Q 3016 2534 2758 2815 
Q 2500 3097 2075 3097 
Q 1594 3097 1305 2825 
Q 1016 2553 972 2059 
L 3022 2063 
z
" transform="scale(0.015625)"/>
      </defs>
      <use xlink:href="#DejaVuSans-57"/>
      <use xlink:href="#DejaVuSans-61" x="92.501953"/>
      <use xlink:href="#DejaVuSans-6c" x="153.78125"/>
      <use xlink:href="#DejaVuSans-6c" x="181.564453"/>
      <use xlink:href="#DejaVuSans-20" x="209.347656"/>
      <use xlink:href="#DejaVuSans-44" x="241.134766"/>
      <use xlink:href="#DejaVuSans-69" x="318.136719"/>
      <use xlink:href="#DejaVuSans-73" x="345.919922"/>
      <use xlink:href="#DejaVuSans-74" x="398.019531"/>
      <use xlink:href="#DejaVuSans-61" x="437.228516"/>
      <use xlink:href="#DejaVuSans-6e" x="498.507812"/>
      <use xlink:href="#DejaVuSans-63" x="561.886719"/>
      <use xlink:href="#DejaVuSans-65" x="616.867188"/>
      <use xlink:href="#DejaVuSans-20" x="678.390625"/>
      <use xlink:href="#DejaVuSans-5b" x="710.177734"/>
      <use xlink:href="#DejaVuSans-6d" x="749.191406"/>
      <use xlink:href="#DejaVuSans-6d" x="846.603516"/>
      <use xlink:href="#DejaVuSans-5d" x="944.015625"/>
     </g>
    </g>
   </g>
   <g id="line2d_23">
    <path d="M 70.64723 291.783494 
L 80.931905 291.783494 
L 81.309251 204.461287 
L 81.694625 186.840652 
L 82.088028 186.840652 
L 82.481431 168.585479 
L 82.882862 168.585479 
L 83.292322 152.258325 
L 84.1273 138.981835 
L 84.544789 133.783503 
L 84.978335 133.783503 
L 85.411881 124.16781 
L 85.845427 124.16781 
L 86.287001 116.3093 
L 86.728576 116.3093 
L 87.178179 109.163425 
L 87.627783 109.163425 
L 88.085415 102.098087 
L 88.543046 102.098087 
L 89.000678 96.650821 
L 89.466339 96.650821 
L 89.931999 91.622106 
L 91.818728 85.48295 
L 92.292417 84.465249 
L 93.255852 83.142481 
L 94.211259 83.18397 
L 94.692977 83.352366 
L 95.174695 83.352366 
L 95.656413 84.030834 
L 96.138131 85.168122 
L 96.619848 88.353015 
L 97.101566 88.353015 
L 97.583284 92.565616 
L 98.54672 98.842418 
L 99.510155 106.952303 
L 99.991873 106.952303 
L 100.473591 117.158605 
L 100.955309 117.158605 
L 101.437026 128.43874 
L 101.918744 128.43874 
L 102.400462 141.031881 
L 102.88218 141.031881 
L 103.363898 152.624404 
L 103.845615 152.624404 
L 104.327333 159.848377 
L 104.809051 159.848377 
L 105.290769 166.169353 
L 105.772487 169.220017 
L 106.254204 169.220017 
L 106.735922 169.87896 
L 107.21764 169.220017 
L 107.699358 169.87896 
L 110.589665 169.87896 
L 111.071382 169.220017 
L 111.5531 169.220017 
L 112.034818 167.975346 
L 112.516536 169.220017 
L 112.998254 168.585479 
L 113.961689 168.585479 
L 114.443407 166.169353 
L 114.925125 165.583625 
L 115.88856 165.583625 
L 116.370278 166.75508 
L 116.851996 165.583625 
L 117.333714 165.583625 
L 117.815432 164.460981 
L 118.297149 164.460981 
L 118.778867 162.337719 
L 119.260585 162.337719 
L 119.742303 161.825207 
L 120.224021 161.825207 
L 120.705738 161.312696 
L 121.187456 161.312696 
L 121.669174 160.336483 
L 122.150892 160.336483 
L 122.63261 158.457274 
L 124.077763 158.457274 
L 124.559481 156.236391 
L 125.041199 156.236391 
L 125.522917 154.186344 
L 126.004634 154.186344 
L 126.486352 153.795859 
L 126.96807 154.576829 
L 127.449788 154.576829 
L 127.931506 153.795859 
L 128.894941 153.795859 
L 129.376659 153.014889 
L 130.340095 149.036824 
L 130.821812 149.720172 
L 131.30353 148.719554 
L 131.785248 148.036206 
L 132.266966 148.37788 
L 132.748684 148.37788 
L 133.230401 146.44986 
L 133.712119 146.44986 
L 134.193837 146.132591 
L 134.675555 146.132591 
L 135.157273 144.05814 
L 135.63899 144.05814 
L 136.120708 143.203954 
L 136.602426 143.203954 
L 137.084144 142.642632 
L 137.565862 142.642632 
L 138.047579 140.250911 
L 138.529297 140.494964 
L 139.011015 139.7384 
L 139.492733 139.7384 
L 139.974451 138.249676 
L 140.456168 138.249676 
L 140.937886 135.931171 
L 141.419604 135.931171 
L 141.901322 135.272227 
L 142.38304 135.272227 
L 142.864757 134.198394 
L 143.346475 134.198394 
L 143.828193 132.563238 
L 144.309911 132.563238 
L 144.791629 131.367378 
L 145.273346 131.367378 
L 145.755064 129.512574 
L 146.236782 128.951252 
L 147.200218 128.951252 
L 147.681935 127.389312 
L 148.163653 127.389312 
L 148.645371 126.217857 
L 149.127089 126.217857 
L 149.608807 124.777943 
L 150.090524 124.314242 
L 150.572242 124.314242 
L 151.094103 122.801113 
L 151.575821 122.068954 
L 152.057539 122.068954 
L 152.539257 120.946309 
L 153.020974 120.946309 
L 153.502692 119.189127 
L 153.98441 119.189127 
L 154.466128 118.042077 
L 154.947846 118.042077 
L 155.429563 116.914552 
L 155.911281 116.3093 
L 156.392999 115.48196 
L 156.874717 115.48196 
L 157.356435 114.225086 
L 157.838152 114.225086 
L 158.31987 112.907199 
L 159.765024 111.030431 
L 160.246741 110.132315 
L 160.728459 109.644209 
L 161.210177 108.785142 
L 161.691895 108.594781 
L 162.173613 107.58196 
L 162.65533 107.042603 
L 164.100484 104.970592 
L 164.582202 104.63868 
L 165.545637 103.184123 
L 166.509073 101.871117 
L 166.990791 101.121874 
L 167.472509 100.682579 
L 167.954226 99.67708 
L 168.435944 99.396419 
L 168.917662 98.498303 
L 169.39938 98.027281 
L 169.881098 97.231667 
L 170.362815 97.231667 
L 170.844533 96.458019 
L 171.326251 94.964414 
L 172.289687 93.654581 
L 172.771404 92.678612 
L 173.253122 92.678612 
L 173.73484 91.513015 
L 174.216558 90.919477 
L 174.698276 90.600744 
L 175.179993 90.600744 
L 175.661711 89.253571 
L 176.143429 89.253571 
L 176.625147 88.01134 
L 177.106865 88.01134 
L 177.588582 86.76667 
L 178.0703 86.76667 
L 178.471732 85.302351 
L 178.953449 85.302351 
L 179.435167 84.030834 
L 179.916885 84.030834 
L 180.398603 82.561634 
L 181.843756 80.118663 
L 182.325474 79.628116 
L 183.28891 78.276061 
L 183.770628 78.276061 
L 184.252345 77.082642 
L 184.734063 77.082642 
L 185.215781 75.864817 
L 185.697499 75.864817 
L 186.179217 74.854437 
L 186.660934 74.854437 
L 187.142652 73.936797 
L 187.62437 73.936797 
L 188.106088 73.014276 
L 188.587806 73.014276 
L 189.069523 72.060028 
L 189.551241 71.65246 
L 190.032959 71.420609 
L 190.514677 71.420609 
L 190.996395 70.681128 
L 191.478112 70.681128 
L 191.95983 69.765929 
L 192.441548 69.360801 
L 193.404984 69.331515 
L 193.886701 68.499293 
L 194.368419 68.328456 
L 194.850137 67.767134 
L 195.331855 67.498676 
L 196.29529 65.814709 
L 196.777008 64.887307 
L 197.258726 65.326603 
L 198.222162 65.399819 
L 198.703879 65.08255 
L 199.185597 65.204576 
L 199.667315 65.204576 
L 200.149033 65.741493 
L 200.630751 66.522463 
L 201.594186 69.441338 
L 202.557622 75.208314 
L 203.521057 82.073528 
L 204.966211 94.782594 
L 206.893082 116.072568 
L 207.856518 128.951252 
L 210.746824 166.169353 
L 211.228542 169.87896 
L 212.191978 172.612355 
L 213.155414 178.079145 
L 213.637131 177.224959 
L 214.118849 178.079145 
L 214.600567 178.079145 
L 215.082285 178.933331 
L 215.564003 178.079145 
L 216.04572 178.933331 
L 217.009156 177.224959 
L 217.972592 174.076674 
L 218.454309 174.833238 
L 218.936027 174.076674 
L 219.417745 172.612355 
L 219.899463 174.833238 
L 220.381181 171.904601 
L 220.862898 171.221252 
L 221.344616 169.87896 
L 221.826334 170.537904 
L 223.271487 170.537904 
L 223.753205 169.87896 
L 224.716641 169.87896 
L 225.198359 169.220017 
L 225.680076 167.975346 
L 226.161794 167.365213 
L 226.643512 164.460981 
L 228.088665 164.460981 
L 228.570383 162.337719 
L 229.052101 162.337719 
L 229.533819 161.312696 
L 230.015537 161.312696 
L 230.978972 160.336483 
L 231.46069 159.384676 
L 231.942408 159.384676 
L 232.424126 157.554277 
L 232.905843 157.554277 
L 233.387561 155.8215 
L 233.869279 155.8215 
L 234.350997 154.576829 
L 234.832715 154.576829 
L 235.314432 154.186344 
L 235.79615 154.186344 
L 236.277868 153.405374 
L 236.759586 151.86784 
L 237.241304 151.50176 
L 237.723021 150.086252 
L 238.204739 150.427926 
L 238.686457 148.37788 
L 239.168175 148.036206 
L 240.13161 146.767129 
L 240.613328 146.44986 
L 241.095046 145.229595 
L 241.576764 144.936731 
L 242.058482 143.765276 
L 242.540199 143.203954 
L 243.021917 143.203954 
L 243.503635 141.544393 
L 243.985353 141.544393 
L 244.948789 138.981835 
L 245.430506 138.737782 
L 245.912224 138.249676 
L 246.393942 138.249676 
L 246.87566 135.711523 
L 247.357378 135.711523 
L 247.839095 135.05258 
L 248.320813 135.05258 
L 248.802531 133.173371 
L 249.284249 133.173371 
L 249.765967 131.953105 
L 250.247684 131.953105 
L 250.729402 130.049491 
L 251.21112 130.049491 
L 251.692838 128.780414 
L 252.174556 128.43874 
L 252.656273 127.389312 
L 253.137991 126.705963 
L 253.619709 126.217857 
L 254.101427 125.558913 
L 254.583145 125.558913 
L 255.064862 125.095212 
L 255.54658 123.704109 
L 258.436887 119.189127 
L 258.918605 119.0671 
L 260.363758 116.792525 
L 260.845476 116.3093 
L 261.327194 115.367255 
L 261.808912 115.020699 
L 262.290629 114.112822 
L 264.217501 111.645445 
L 264.699218 111.645445 
L 265.180936 110.132315 
L 265.662654 109.839452 
L 266.144372 109.839452 
L 266.62609 109.068244 
L 267.107807 107.58196 
L 267.589525 107.58196 
L 268.071243 106.161571 
L 268.552961 106.161571 
L 269.034679 104.970592 
L 269.516396 104.970592 
L 269.998114 103.821102 
L 270.479832 103.821102 
L 270.96155 102.637444 
L 271.443268 102.637444 
L 271.924985 101.343962 
L 272.406703 101.343962 
L 272.888421 100.033397 
L 273.370139 100.033397 
L 273.851857 98.634973 
L 274.333574 98.364074 
L 275.29701 96.714275 
L 275.778728 96.331111 
L 276.260446 96.331111 
L 276.742164 94.662032 
L 277.223881 94.662032 
L 277.705599 93.538192 
L 278.187317 93.538192 
L 278.669035 92.173666 
L 279.150753 92.173666 
L 279.63247 90.866762 
L 280.114188 90.866762 
L 280.595906 89.456135 
L 281.077624 89.456135 
L 281.559342 88.255394 
L 282.041059 88.255394 
L 282.522777 87.191322 
L 283.004495 87.191322 
L 283.486213 85.890519 
L 283.967931 85.890519 
L 284.449648 84.28953 
L 284.931366 84.28953 
L 285.413084 83.059503 
L 285.894802 83.059503 
L 286.37652 81.592743 
L 286.858237 81.592743 
L 287.339955 80.118663 
L 287.821673 80.118663 
L 288.303391 78.63482 
L 288.785109 78.63482 
L 289.266826 77.150977 
L 289.748544 77.150977 
L 290.230262 75.767195 
L 290.71198 75.767195 
L 291.193698 74.534727 
L 291.675415 74.534727 
L 292.157133 73.287616 
L 292.638851 73.287616 
L 293.120569 72.147888 
L 293.602287 72.147888 
L 294.084004 71.105781 
L 294.565722 71.105781 
L 295.04744 70.234511 
L 295.529158 70.234511 
L 296.010876 69.360801 
L 296.492593 69.360801 
L 296.974311 68.499293 
L 297.456029 68.499293 
L 297.937747 68.035592 
L 298.419465 68.035592 
L 298.901182 67.449865 
L 299.3829 67.449865 
L 300.346336 66.302815 
L 300.828054 66.009952 
L 301.309771 66.009952 
L 301.791489 65.521845 
L 302.273207 65.521845 
L 303.236643 64.936118 
L 303.71836 64.911712 
L 304.200078 65.277792 
L 304.681796 66.009952 
L 305.163514 66.986164 
L 305.645232 68.328456 
L 306.126949 68.328456 
L 306.608667 72.684804 
L 307.090385 72.684804 
L 307.572103 78.854467 
L 308.053821 78.854467 
L 308.535539 86.027189 
L 309.017256 86.027189 
L 309.498974 95.025427 
L 309.980692 95.025427 
L 310.46241 106.510567 
L 310.944128 106.510567 
L 311.425845 120.799877 
L 311.907563 120.799877 
L 312.389281 138.737782 
L 312.870999 148.37788 
L 313.352717 148.37788 
L 313.834434 166.75508 
L 314.316152 171.904601 
L 314.79787 171.904601 
L 315.279588 178.933331 
L 315.761306 178.933331 
L 316.243023 184.668579 
L 316.724741 184.668579 
L 317.206459 189.183562 
L 317.688177 189.183562 
L 318.169895 194.455109 
L 318.651612 194.455109 
L 319.13333 193.039601 
L 319.615048 197.456963 
L 320.096766 195.919428 
L 320.578484 195.919428 
L 321.060201 200.75168 
L 321.541919 200.75168 
L 322.023637 197.456963 
L 322.505355 197.456963 
L 322.987073 194.455109 
L 323.46879 194.455109 
L 323.950508 186.840652 
L 324.432226 186.840652 
L 324.913944 184.668579 
L 325.395662 184.668579 
L 325.877379 181.666726 
L 327.322533 181.666726 
L 327.804251 179.811922 
L 328.285968 179.811922 
L 328.767686 176.419584 
L 329.249404 176.419584 
L 329.731122 171.904601 
L 330.21284 174.076674 
L 330.694557 171.221252 
L 331.176275 171.221252 
L 331.657993 169.87896 
L 332.139711 169.87896 
L 332.621429 167.975346 
L 333.103146 167.975346 
L 333.584864 164.460981 
L 334.066582 164.460981 
L 334.5483 162.337719 
L 335.030018 162.337719 
L 335.511735 160.824589 
L 335.993453 160.824589 
L 336.475171 159.384676 
L 336.956889 159.384676 
L 337.438607 155.40661 
L 337.920324 155.40661 
L 338.402042 153.795859 
L 338.88376 153.795859 
L 339.847196 153.014889 
L 340.328914 153.014889 
L 341.292349 148.719554 
L 341.774067 148.719554 
L 342.255785 147.401668 
L 342.737503 147.401668 
L 343.21922 144.936731 
L 343.700938 144.936731 
L 344.182656 143.203954 
L 344.664374 143.203954 
L 345.146092 141.812851 
L 345.627809 141.812851 
L 346.109527 139.7384 
L 346.591245 139.7384 
L 348.518116 137.541921 
L 348.999834 135.272227 
L 349.481552 135.272227 
L 350.444987 133.368613 
L 350.926705 132.953723 
L 352.371859 130.610813 
L 352.853576 129.512574 
L 353.335294 128.951252 
L 353.817012 128.609577 
L 354.29873 127.730986 
L 354.780448 127.389312 
L 355.262165 127.389312 
L 355.743883 125.72975 
L 356.225601 124.777943 
L 358.152472 122.361817 
L 358.63419 120.946309 
L 360.079343 119.189127 
L 360.561061 118.28613 
L 361.042779 117.895645 
L 361.524497 116.792525 
L 362.487932 115.250109 
L 362.96965 115.250109 
L 363.451368 114.112822 
L 363.933086 114.112822 
L 365.378239 111.335497 
L 365.859957 111.030431 
L 366.341675 110.132315 
L 367.30511 108.877882 
L 367.786828 108.594781 
L 368.268546 107.67226 
L 368.750264 107.220762 
L 369.231982 106.24943 
L 369.713699 105.732038 
L 370.195417 105.732038 
L 370.677135 105.221967 
L 371.158853 104.472724 
L 371.640571 104.065155 
L 372.122289 102.559347 
L 372.604006 101.946774 
L 373.085724 101.946774 
L 373.567442 100.609363 
L 374.04916 100.609363 
L 374.530878 99.257308 
L 375.012595 98.432409 
L 375.494313 98.227404 
L 375.976031 98.227404 
L 376.457749 96.331111 
L 376.939467 96.331111 
L 377.421184 94.903645 
L 378.38462 93.538192 
L 378.866338 93.538192 
L 379.348056 92.791853 
L 379.829773 91.786598 
L 380.311491 91.786598 
L 380.793209 90.493361 
L 381.274927 90.493361 
L 381.756645 89.102258 
L 382.238362 89.102258 
L 382.72008 87.767287 
L 383.201798 87.767287 
L 383.683516 86.442079 
L 384.165234 86.442079 
L 384.646951 85.348721 
L 385.610387 83.989345 
L 386.573823 82.769079 
L 387.05554 82.769079 
L 387.537258 81.475598 
L 388.018976 81.475598 
L 388.500694 79.96735 
L 388.982412 79.96735 
L 389.464129 78.346837 
L 389.945847 78.346837 
L 390.427565 76.943531 
L 390.909283 76.943531 
L 391.391001 75.503618 
L 392.354436 73.71959 
L 393.317872 72.060028 
L 393.79959 71.508468 
L 394.281307 70.568864 
L 396.208179 68.157619 
L 396.689896 67.937971 
L 397.171614 67.498676 
L 397.653332 67.327838 
L 398.13505 66.888543 
L 398.616768 66.888543 
L 399.098485 66.400437 
L 400.061921 66.327221 
L 400.543639 66.034357 
L 401.025357 65.375413 
L 401.507074 65.375413 
L 401.988792 64.887307 
L 402.47051 64.887307 
L 402.952228 64.521228 
L 403.433946 64.521228 
L 403.915664 63.984311 
L 404.397381 63.984311 
L 404.879099 63.227746 
L 405.360817 63.227746 
L 405.842535 60.421135 
L 406.324253 60.274703 
L 406.80597 60.39673 
L 407.769406 60.347919 
L 408.251124 59.737786 
L 409.214559 59.688976 
L 409.696277 60.177082 
L 410.659713 62.690829 
L 411.141431 62.690829 
L 411.623148 67.498676 
L 412.104866 70.568864 
L 412.586584 70.568864 
L 413.068302 74.503 
L 413.469733 82.481097 
L 414.433169 92.229311 
L 415.316318 103.821102 
L 416.199467 116.072568 
L 416.681185 116.072568 
L 417.082617 128.609577 
L 417.564335 128.609577 
L 417.965766 135.931171 
L 418.367198 135.931171 
L 418.768629 138.981835 
L 419.250347 138.981835 
L 419.651778 139.494346 
L 420.05321 139.494346 
L 420.454641 140.250911 
L 420.856073 140.250911 
L 421.177218 141.812851 
L 421.57865 141.812851 
L 421.980081 142.349768 
L 422.301226 142.349768 
L 422.702658 142.642632 
L 423.023803 142.08131 
L 423.425235 140.494964 
L 423.74638 140.494964 
L 424.38867 139.225888 
L 425.030961 138.737782 
L 425.352106 139.225888 
L 425.592965 139.225888 
L 425.91411 138.981835 
L 426.154969 138.981835 
L 426.476114 137.785975 
L 426.716973 138.030028 
L 426.957832 136.394872 
L 427.43955 135.491875 
L 427.680408 135.272227 
L 428.964989 135.272227 
L 429.848139 131.757862 
L 430.008711 131.953105 
L 430.24957 130.806055 
L 430.410143 131.56262 
L 430.731288 130.806055 
L 430.972147 130.610813 
L 431.132719 128.951252 
L 431.293292 128.609577 
L 431.453865 128.07266 
L 431.453865 128.07266 
L 431.534151 128.609577 
L 431.855296 126.217857 
L 431.855296 127.047637 
L 431.935582 127.047637 
L 431.935582 123.704109 
L 431.935582 124.16781 
" clip-path="url(#pc5e42e7cd0)" style="fill: none; stroke: #1f77b4; stroke-width: 1.5; stroke-linecap: square"/>
   </g>
   <g id="line2d_24">
    <path d="M 70.64723 139.958047 
L 70.647262 139.958047 
L 70.717786 143.130738 
L 70.755617 140.836639 
L 70.778739 140.836639 
L 70.904146 141.739635 
L 70.944611 140.836639 
L 70.989169 141.739635 
L 71.211643 139.518752 
L 71.352224 140.836639 
L 71.514322 139.958047 
L 71.604243 140.836639 
L 71.800944 139.103861 
L 72.02414 139.103861 
L 72.145372 139.518752 
L 72.409514 137.859191 
L 72.552424 137.468706 
L 72.701757 138.274081 
L 72.859118 137.859191 
L 73.023705 137.078221 
L 73.195517 137.468706 
L 73.373753 137.468706 
L 73.560017 137.078221 
L 74.161361 137.078221 
L 74.376529 136.687736 
L 74.598922 137.078221 
L 74.828541 136.297251 
L 75.064582 136.297251 
L 75.308653 135.540686 
L 75.559949 135.906766 
L 75.818471 135.540686 
L 76.083416 135.906766 
L 76.356389 135.906766 
L 76.636588 134.784121 
L 76.924013 134.442447 
L 77.217861 134.442447 
L 77.519737 133.368613 
L 77.82884 133.710287 
L 78.145168 131.660241 
L 78.467919 133.026939 
L 78.79629 131.660241 
L 79.133492 131.660241 
L 79.478723 131.342972 
L 79.831983 130.36676 
L 80.931905 129.414953 
L 81.309251 128.511956 
L 81.694625 128.219092 
L 82.088028 128.219092 
L 82.481431 127.633365 
L 82.882862 127.633365 
L 83.292322 126.486315 
L 83.709811 125.924993 
L 84.1273 125.656534 
L 84.544789 124.826754 
L 84.978335 124.826754 
L 85.411881 123.533272 
L 85.845427 123.533272 
L 86.287001 122.020143 
L 86.728576 122.020143 
L 87.178179 120.140934 
L 87.627783 120.140934 
L 88.085415 119.457585 
L 88.543046 119.457585 
L 89.000678 118.334941 
L 89.466339 118.334941 
L 90.405689 116.44841 
L 90.871349 115.049986 
L 91.345038 114.659501 
L 91.818728 114.659501 
L 92.292417 113.151253 
L 92.774135 113.336733 
L 93.255852 112.423974 
L 93.729542 112.065216 
L 94.692977 111.015788 
L 95.174695 111.015788 
L 95.656413 110.000527 
L 96.138131 109.668614 
L 96.619848 108.218939 
L 97.101566 108.218939 
L 97.583284 107.440409 
L 99.510155 105.64906 
L 99.991873 105.64906 
L 100.473591 104.370221 
L 100.955309 104.370221 
L 101.437026 103.140193 
L 101.918744 103.140193 
L 102.400462 102.476369 
L 102.88218 102.476369 
L 103.363898 101.190209 
L 103.845615 101.190209 
L 104.327333 100.077327 
L 104.809051 100.077327 
L 105.290769 98.649616 
L 105.772487 98.534911 
L 106.254204 97.846681 
L 107.21764 96.843623 
L 108.181076 95.23995 
L 108.662793 95.032017 
L 109.626229 93.614312 
L 110.589665 92.928523 
L 111.5531 91.415149 
L 112.034818 90.595863 
L 112.516536 90.149246 
L 113.961689 88.42135 
L 114.443407 87.921041 
L 114.925125 87.105903 
L 115.406843 86.786194 
L 115.88856 86.786194 
L 116.370278 85.612298 
L 116.851996 84.92895 
L 117.333714 84.92895 
L 117.815432 83.96494 
L 118.297149 83.96494 
L 118.778867 82.124779 
L 119.260585 82.124779 
L 119.742303 80.911835 
L 120.224021 80.911835 
L 120.705738 79.615913 
L 121.187456 79.615913 
L 121.669174 78.066176 
L 122.150892 78.066176 
L 122.63261 76.765373 
L 123.114327 76.765373 
L 123.596045 75.625645 
L 124.077763 75.625645 
L 124.559481 74.097872 
L 125.041199 74.097872 
L 125.522917 72.843439 
L 126.004634 72.843439 
L 126.486352 71.442574 
L 126.96807 70.764106 
L 127.449788 70.764106 
L 127.931506 69.31199 
L 128.413223 69.31199 
L 128.894941 68.011187 
L 129.858377 66.254005 
L 130.821812 64.789686 
L 131.30353 63.984311 
L 132.266966 62.642018 
L 132.748684 62.642018 
L 133.230401 61.348537 
L 133.712119 61.348537 
L 134.193837 59.884218 
L 134.675555 59.884218 
L 135.157273 58.395494 
L 135.63899 58.395494 
L 136.120708 56.809149 
L 136.602426 56.809149 
L 137.084144 55.29602 
L 137.565862 55.29602 
L 138.047579 53.904917 
L 138.529297 53.392405 
L 139.011015 52.63584 
L 139.492733 52.63584 
L 139.974451 51.366764 
L 140.456168 51.366764 
L 140.937886 50.122093 
L 141.419604 50.122093 
L 141.901322 48.999449 
L 142.38304 48.999449 
L 142.864757 47.974426 
L 143.346475 47.974426 
L 143.828193 46.802971 
L 144.309911 46.802971 
L 144.791629 45.704732 
L 145.273346 45.704732 
L 145.755064 44.338034 
L 146.7185 42.995742 
L 147.200218 42.995742 
L 147.681935 41.677855 
L 148.163653 41.677855 
L 148.645371 40.262347 
L 149.127089 40.262347 
L 150.090524 39.505783 
L 150.572242 39.505783 
L 151.094103 38.822434 
L 151.575821 38.578381 
L 152.057539 38.578381 
L 152.539257 38.89565 
L 153.020974 38.89565 
L 153.502692 41.775477 
L 153.98441 41.775477 
L 154.466128 47.827994 
L 154.947846 47.827994 
L 155.429563 57.224039 
L 156.392999 69.31199 
L 156.874717 69.31199 
L 157.356435 84.184588 
L 157.838152 84.184588 
L 158.31987 102.34458 
L 159.765024 129.122089 
L 160.246741 137.078221 
L 161.210177 150.037441 
L 162.65533 159.701945 
L 163.137048 164.949087 
L 163.618766 165.9253 
L 164.100484 167.95094 
L 165.06392 167.95094 
L 165.545637 170.123013 
L 166.027355 170.123013 
L 166.509073 171.270063 
L 166.990791 169.024774 
L 167.472509 171.270063 
L 167.954226 167.95094 
L 168.435944 166.925917 
L 168.917662 167.95094 
L 169.39938 165.9253 
L 169.881098 167.95094 
L 170.844533 167.95094 
L 171.326251 165.9253 
L 171.807969 164.949087 
L 172.289687 164.949087 
L 172.771404 164.021685 
L 173.253122 164.021685 
L 173.73484 163.094283 
L 174.216558 160.50732 
L 174.698276 161.361506 
L 175.179993 161.361506 
L 175.661711 158.1156 
L 176.143429 158.1156 
L 176.625147 160.50732 
L 177.106865 160.50732 
L 177.588582 155.186962 
L 178.0703 155.186962 
L 178.471732 153.820265 
L 179.916885 153.820265 
L 180.398603 153.161321 
L 180.880321 153.161321 
L 181.362039 152.502378 
L 181.843756 150.037441 
L 182.325474 151.257707 
L 182.807192 149.451714 
L 183.28891 148.865986 
L 183.770628 148.865986 
L 184.252345 146.132591 
L 184.734063 146.132591 
L 185.215781 144.595057 
L 185.697499 144.595057 
L 186.179217 143.618844 
L 186.660934 143.618844 
L 187.142652 141.739635 
L 187.62437 141.739635 
L 188.106088 139.518752 
L 188.587806 139.518752 
L 189.069523 137.078221 
L 190.514677 137.078221 
L 190.996395 135.174606 
L 191.478112 135.174606 
L 191.95983 132.660859 
L 192.441548 132.001916 
L 192.923266 132.001916 
L 194.368419 128.219092 
L 194.850137 127.633365 
L 195.331855 126.486315 
L 195.813573 126.193451 
L 196.29529 125.656534 
L 197.258726 124.045784 
L 197.740444 123.533272 
L 198.222162 122.264196 
L 198.703879 121.77609 
L 199.185597 120.604635 
L 199.667315 120.140934 
L 200.149033 118.993884 
L 200.630751 118.554589 
L 201.112468 118.334941 
L 201.594186 117.488076 
L 202.075904 117.278191 
L 202.557622 116.653415 
L 203.03934 115.245228 
L 204.002775 114.085976 
L 204.966211 112.243375 
L 205.447929 112.243375 
L 205.929646 111.535621 
L 206.893082 109.502658 
L 207.3748 108.853477 
L 207.856518 108.533767 
L 208.338235 107.286656 
L 208.819953 106.98159 
L 209.301671 106.088355 
L 209.783389 105.505068 
L 210.746824 103.95289 
L 213.637131 99.713688 
L 214.118849 98.766762 
L 214.600567 98.766762 
L 215.082285 97.175535 
L 215.564003 96.516592 
L 216.04572 95.23995 
L 216.527438 94.825548 
L 217.009156 93.912789 
L 217.490874 93.4168 
L 219.417745 90.505563 
L 219.899463 89.534232 
L 221.344616 87.840503 
L 221.826334 86.866731 
L 222.308052 86.390828 
L 222.78977 85.458545 
L 223.271487 84.853293 
L 223.753205 84.038156 
L 224.234923 83.747732 
L 224.716641 83.747732 
L 225.198359 82.820331 
L 225.680076 81.580541 
L 226.161794 80.648258 
L 226.643512 80.191878 
L 227.12523 80.191878 
L 227.606948 78.800776 
L 228.088665 78.800776 
L 228.570383 77.055796 
L 229.052101 77.055796 
L 229.533819 75.794041 
L 230.015537 75.794041 
L 230.497254 74.310198 
L 230.978972 73.831854 
L 231.46069 73.048444 
L 231.942408 73.048444 
L 232.424126 71.735438 
L 232.905843 71.735438 
L 233.387561 70.288203 
L 233.869279 70.288203 
L 234.350997 69.26562 
L 234.832715 69.26562 
L 235.314432 67.889161 
L 235.79615 67.889161 
L 236.277868 66.302815 
L 236.759586 65.351008 
L 238.686457 62.715234 
L 240.613328 59.640165 
L 241.576764 58.127036 
L 242.540199 56.809149 
L 243.021917 56.809149 
L 243.503635 55.515667 
L 243.985353 55.515667 
L 244.467071 54.56386 
L 244.948789 53.953727 
L 245.430506 53.563242 
L 246.393942 53.490026 
L 246.87566 51.757249 
L 247.357378 51.757249 
L 247.839095 50.439362 
L 248.320813 50.439362 
L 248.802531 49.219097 
L 249.284249 49.219097 
L 249.765967 48.072047 
L 250.247684 48.072047 
L 250.729402 46.412486 
L 251.21112 46.412486 
L 251.692838 45.729137 
L 252.174556 45.387463 
L 253.137991 44.484466 
L 253.619709 44.216008 
L 254.101427 43.703496 
L 254.583145 43.703496 
L 255.064862 43.459443 
L 255.54658 45.021383 
L 256.028298 46.144027 
L 256.510016 48.096452 
L 257.473451 54.344212 
L 258.436887 62.983693 
L 259.400323 73.463334 
L 260.363758 86.468925 
L 261.808912 110.334879 
L 262.772347 126.486315 
L 264.217501 149.451714 
L 264.699218 149.451714 
L 265.662654 159.701945 
L 266.144372 159.701945 
L 266.62609 160.50732 
L 267.107807 164.949087 
L 267.589525 164.949087 
L 268.071243 167.95094 
L 268.552961 167.95094 
L 269.034679 169.024774 
L 269.516396 169.024774 
L 269.998114 167.95094 
L 271.443268 167.95094 
L 271.924985 164.949087 
L 272.406703 164.949087 
L 272.888421 165.9253 
L 273.370139 165.9253 
L 273.851857 163.094283 
L 274.333574 163.094283 
L 274.815292 158.1156 
L 275.29701 160.50732 
L 275.778728 158.89657 
L 276.260446 158.89657 
L 276.742164 157.359035 
L 277.223881 157.359035 
L 277.705599 155.186962 
L 278.187317 155.186962 
L 278.669035 154.503613 
L 279.150753 154.503613 
L 279.63247 153.161321 
L 280.114188 153.161321 
L 280.595906 151.86784 
L 281.077624 151.86784 
L 281.559342 149.451714 
L 282.041059 149.451714 
L 282.522777 148.304664 
L 283.004495 148.304664 
L 283.486213 145.107568 
L 283.967931 145.107568 
L 284.449648 144.10695 
L 284.931366 144.10695 
L 285.413084 142.667037 
L 285.894802 142.667037 
L 286.37652 139.958047 
L 287.821673 139.958047 
L 288.303391 137.468706 
L 288.785109 137.468706 
L 289.266826 137.078221 
L 289.748544 137.078221 
L 290.230262 136.297251 
L 290.71198 136.297251 
L 291.193698 134.784121 
L 291.675415 134.784121 
L 292.157133 132.660859 
L 292.638851 132.660859 
L 293.120569 131.342972 
L 293.602287 131.342972 
L 294.084004 129.732222 
L 294.565722 129.732222 
L 295.04744 128.219092 
L 295.529158 128.219092 
L 296.010876 126.754774 
L 296.492593 126.754774 
L 296.974311 125.095212 
L 297.456029 125.095212 
L 297.937747 124.558295 
L 298.419465 124.558295 
L 298.901182 122.776708 
L 299.3829 122.776708 
L 299.864618 121.068336 
L 300.346336 119.896881 
L 301.309771 119.896881 
L 301.791489 118.554589 
L 302.273207 118.554589 
L 302.754925 117.068305 
L 303.71836 115.049986 
L 304.200078 114.659501 
L 304.681796 113.895615 
L 305.163514 112.785173 
L 305.645232 112.065216 
L 306.126949 112.065216 
L 306.608667 111.015788 
L 307.090385 111.015788 
L 307.572103 109.014552 
L 308.053821 109.014552 
L 308.535539 107.440409 
L 309.017256 107.440409 
L 309.498974 106.532532 
L 309.980692 106.532532 
L 310.46241 104.648442 
L 310.944128 104.648442 
L 311.425845 103.140193 
L 311.907563 103.140193 
L 312.389281 102.34458 
L 312.870999 101.317117 
L 313.352717 101.317117 
L 313.834434 99.594102 
L 314.316152 98.766762 
L 314.79787 98.766762 
L 315.279588 97.065711 
L 315.761306 97.065711 
L 316.243023 95.659965 
L 316.724741 95.659965 
L 317.206459 94.416515 
L 317.688177 94.416515 
L 318.169895 93.025656 
L 318.651612 93.025656 
L 319.615048 90.866762 
L 320.096766 90.324964 
L 320.578484 89.534232 
L 321.541919 88.760584 
L 322.023637 87.757525 
L 322.505355 87.757525 
L 322.987073 86.468925 
L 323.46879 86.468925 
L 323.950508 85.153478 
L 324.432226 85.153478 
L 324.913944 83.894164 
L 325.395662 83.894164 
L 325.877379 82.610445 
L 326.359097 82.610445 
L 326.840815 81.377977 
L 327.322533 81.377977 
L 327.804251 79.999076 
L 328.285968 79.999076 
L 328.767686 78.676309 
L 329.249404 78.676309 
L 329.731122 77.231514 
L 330.694557 76.133275 
L 331.176275 76.133275 
L 332.139711 74.04418 
L 332.621429 73.255889 
L 333.103146 73.255889 
L 333.584864 72.084434 
L 334.066582 72.084434 
L 334.5483 70.810476 
L 335.030018 70.810476 
L 335.511735 69.31199 
L 335.993453 69.31199 
L 336.475171 67.84035 
L 336.956889 67.84035 
L 337.438607 66.473652 
L 337.920324 66.473652 
L 338.402042 64.911712 
L 339.847196 62.764045 
L 340.328914 62.764045 
L 340.810631 62.105102 
L 341.292349 60.44554 
L 341.774067 60.44554 
L 342.255785 59.005627 
L 342.737503 59.005627 
L 343.21922 57.785361 
L 343.700938 57.785361 
L 344.182656 56.565096 
L 344.664374 56.565096 
L 345.146092 55.34483 
L 345.627809 55.34483 
L 346.109527 54.417428 
L 346.591245 54.417428 
L 347.072963 54.002538 
L 348.036398 53.441216 
L 348.518116 52.879894 
L 348.999834 51.732844 
L 350.926705 49.682798 
L 351.408423 49.292313 
L 352.371859 48.364911 
L 352.853576 47.852399 
L 353.335294 47.12024 
L 353.817012 46.802971 
L 355.262165 46.75416 
L 355.743883 46.461297 
L 356.707319 46.412486 
L 357.189037 46.144027 
L 357.670754 46.241649 
L 358.152472 46.70535 
L 359.115908 49.219097 
L 359.597626 51.269143 
L 360.079343 53.904917 
L 361.042779 61.104484 
L 362.006215 70.051471 
L 362.487932 75.457248 
L 362.96965 75.457248 
L 363.451368 88.255394 
L 363.933086 88.255394 
L 364.414804 104.789993 
L 365.378239 125.363671 
L 366.823393 164.021685 
L 367.30511 187.768054 
L 367.786828 196.822425 
L 368.268546 202.557673 
L 368.750264 240.483528 
L 369.231982 240.483528 
L 369.713699 275.065855 
L 375.976031 275.065855 
L 376.457749 240.483528 
L 377.902902 240.483528 
L 378.38462 231.404752 
L 378.866338 231.404752 
L 379.348056 213.784117 
L 379.829773 205.876796 
L 380.311491 205.876796 
L 380.793209 189.793695 
L 381.274927 189.793695 
L 381.756645 187.768054 
L 383.201798 187.768054 
L 383.683516 182.350075 
L 384.165234 182.350075 
L 384.646951 184.058446 
L 385.610387 173.710594 
L 386.092105 171.270063 
L 386.573823 165.9253 
L 387.05554 165.9253 
L 387.537258 161.361506 
L 388.018976 161.361506 
L 388.500694 158.1156 
L 388.982412 158.1156 
L 389.464129 155.186962 
L 389.945847 155.186962 
L 390.427565 153.161321 
L 390.909283 153.161321 
L 391.391001 151.257707 
L 391.872718 150.647574 
L 392.836154 147.206425 
L 393.317872 146.669508 
L 393.79959 144.10695 
L 394.281307 143.618844 
L 394.763025 142.667037 
L 395.244743 140.836639 
L 396.208179 138.274081 
L 396.689896 137.468706 
L 398.13505 136.297251 
L 398.616768 136.297251 
L 399.098485 133.710287 
L 399.580203 133.026939 
L 400.061921 133.026939 
L 400.543639 131.660241 
L 401.025357 128.511956 
L 401.507074 128.511956 
L 401.988792 126.486315 
L 402.47051 126.486315 
L 402.952228 125.656534 
L 403.433946 125.656534 
L 403.915664 123.264814 
L 404.397381 123.264814 
L 404.879099 122.020143 
L 405.360817 122.020143 
L 405.842535 120.140934 
L 406.324253 119.677233 
L 407.287688 117.700403 
L 407.769406 117.700403 
L 408.251124 115.640594 
L 408.732842 115.640594 
L 409.214559 113.522213 
L 409.696277 113.151253 
L 410.177995 112.243375 
L 411.141431 112.243375 
L 411.623148 110.503276 
L 412.104866 109.83213 
L 412.586584 109.83213 
L 413.068302 109.178068 
L 413.469733 106.98159 
L 414.433169 106.681404 
L 414.8346 105.073094 
L 415.798036 103.95289 
L 416.199467 103.005964 
L 416.681185 103.005964 
L 417.082617 102.476369 
L 417.564335 102.476369 
L 417.965766 100.814367 
L 418.367198 100.814367 
L 418.768629 98.766762 
L 419.250347 98.766762 
L 419.651778 98.303061 
L 420.05321 98.303061 
L 420.454641 96.626416 
L 420.856073 96.626416 
L 421.177218 95.449103 
L 421.57865 95.449103 
L 421.980081 94.825548 
L 422.301226 94.825548 
L 423.425235 92.068235 
L 423.74638 91.880315 
L 425.030961 89.534232 
L 425.352106 89.358514 
L 425.592965 89.358514 
L 425.91411 89.014399 
L 426.154969 89.014399 
L 426.957832 87.266978 
L 427.43955 86.468925 
L 427.680408 86.390828 
L 428.162126 85.612298 
L 428.563558 85.687955 
L 428.804417 85.004606 
L 428.964989 85.004606 
L 429.205848 84.111372 
L 429.366421 84.184588 
L 429.526993 83.174208 
L 429.687566 83.174208 
L 430.410143 81.243747 
L 430.570715 81.312082 
L 430.731288 80.780046 
L 431.373578 77.94659 
L 431.453865 77.707418 
L 431.453865 77.707418 
L 431.534151 77.94659 
L 431.614437 77.885576 
L 431.694723 77.646404 
L 431.694723 77.646404 
L 431.935582 75.850173 
L 431.935582 73.778162 
L 431.935582 74.742172 
" clip-path="url(#pc5e42e7cd0)" style="fill: none; stroke: #ff7f0e; stroke-width: 1.5; stroke-linecap: square"/>
   </g>
   <g id="patch_3">
    <path d="M 52.582813 304.44375 
L 52.582813 25.918125 
" style="fill: none; stroke: #000000; stroke-width: 0.8; stroke-linejoin: miter; stroke-linecap: square"/>
   </g>
   <g id="patch_4">
    <path d="M 450 304.44375 
L 450 25.918125 
" style="fill: none; stroke: #000000; stroke-width: 0.8; stroke-linejoin: miter; stroke-linecap: square"/>
   </g>
   <g id="patch_5">
    <path d="M 52.582813 304.44375 
L 450 304.44375 
" style="fill: none; stroke: #000000; stroke-width: 0.8; stroke-linejoin: miter; stroke-linecap: square"/>
   </g>
   <g id="patch_6">
    <path d="M 52.582813 25.918125 
L 450 25.918125 
" style="fill: none; stroke: #000000; stroke-width: 0.8; stroke-linejoin: miter; stroke-linecap: square"/>
   </g>
   <g id="text_14">
    <!-- Side Wall Distance [mm] -->
    <g transform="translate(177.427656 19.918125)scale(0.12 -0.12)">
     <defs>
      <path id="DejaVuSans-53" d="M 3425 4513 
L 3425 3897 
Q 3066 4069 2747 4153 
Q 2428 4238 2131 4238 
Q 1616 4238 1336 4038 
Q 1056 3838 1056 3469 
Q 1056 3159 1242 3001 
Q 1428 2844 1947 2747 
L 2328 2669 
Q 3034 2534 3370 2195 
Q 3706 1856 3706 1288 
Q 3706 609 3251 259 
Q 2797 -91 1919 -91 
Q 1588 -91 1214 -16 
Q 841 59 441 206 
L 441 856 
Q 825 641 1194 531 
Q 1563 422 1919 422 
Q 2459 422 2753 634 
Q 3047 847 3047 1241 
Q 3047 1584 2836 1778 
Q 2625 1972 2144 2069 
L 1759 2144 
Q 1053 2284 737 2584 
Q 422 2884 422 3419 
Q 422 4038 858 4394 
Q 1294 4750 2059 4750 
Q 2388 4750 2728 4690 
Q 3069 4631 3425 4513 
z
" transform="scale(0.015625)"/>
      <path id="DejaVuSans-64" d="M 2906 2969 
L 2906 4863 
L 3481 4863 
L 3481 0 
L 2906 0 
L 2906 525 
Q 2725 213 2448 61 
Q 2172 -91 1784 -91 
Q 1150 -91 751 415 
Q 353 922 353 1747 
Q 353 2572 751 3078 
Q 1150 3584 1784 3584 
Q 2172 3584 2448 3432 
Q 2725 3281 2906 2969 
z
M 947 1747 
Q 947 1113 1208 752 
Q 1469 391 1925 391 
Q 2381 391 2643 752 
Q 2906 1113 2906 1747 
Q 2906 2381 2643 2742 
Q 2381 3103 1925 3103 
Q 1469 3103 1208 2742 
Q 947 2381 947 1747 
z
" transform="scale(0.015625)"/>
     </defs>
     <use xlink:href="#DejaVuSans-53"/>
     <use xlink:href="#DejaVuSans-69" x="63.476562"/>
     <use xlink:href="#DejaVuSans-64" x="91.259766"/>
     <use xlink:href="#DejaVuSans-65" x="154.736328"/>
     <use xlink:href="#DejaVuSans-20" x="216.259766"/>
     <use xlink:href="#DejaVuSans-57" x="248.046875"/>
     <use xlink:href="#DejaVuSans-61" x="340.548828"/>
     <use xlink:href="#DejaVuSans-6c" x="401.828125"/>
     <use xlink:href="#DejaVuSans-6c" x="429.611328"/>
     <use xlink:href="#DejaVuSans-20" x="457.394531"/>
     <use xlink:href="#DejaVuSans-44" x="489.181641"/>
     <use xlink:href="#DejaVuSans-69" x="566.183594"/>
     <use xlink:href="#DejaVuSans-73" x="593.966797"/>
     <use xlink:href="#DejaVuSans-74" x="646.066406"/>
     <use xlink:href="#DejaVuSans-61" x="685.275391"/>
     <use xlink:href="#DejaVuSans-6e" x="746.554688"/>
     <use xlink:href="#DejaVuSans-63" x="809.933594"/>
     <use xlink:href="#DejaVuSans-65" x="864.914062"/>
     <use xlink:href="#DejaVuSans-20" x="926.4375"/>
     <use xlink:href="#DejaVuSans-5b" x="958.224609"/>
     <use xlink:href="#DejaVuSans-6d" x="997.238281"/>
     <use xlink:href="#DejaVuSans-6d" x="1094.650391"/>
     <use xlink:href="#DejaVuSans-5d" x="1192.0625"/>
    </g>
   </g>
   <g id="legend_1">
    <g id="patch_7">
     <path d="M 59.582813 63.274375 
L 98.53125 63.274375 
Q 100.53125 63.274375 100.53125 61.274375 
L 100.53125 32.918125 
Q 100.53125 30.918125 98.53125 30.918125 
L 59.582813 30.918125 
Q 57.582813 30.918125 57.582813 32.918125 
L 57.582813 61.274375 
Q 57.582813 63.274375 59.582813 63.274375 
z
" style="fill: #ffffff; opacity: 0.8; stroke: #cccccc; stroke-linejoin: miter"/>
    </g>
    <g id="line2d_25">
     <path d="M 61.582813 39.016562 
L 71.582813 39.016562 
L 81.582813 39.016562 
" style="fill: none; stroke: #1f77b4; stroke-width: 1.5; stroke-linecap: square"/>
    </g>
    <g id="text_15">
     <!-- L -->
     <g transform="translate(89.582813 42.516562)scale(0.1 -0.1)">
      <defs>
       <path id="DejaVuSans-4c" d="M 628 4666 
L 1259 4666 
L 1259 531 
L 3531 531 
L 3531 0 
L 628 0 
L 628 4666 
z
" transform="scale(0.015625)"/>
      </defs>
      <use xlink:href="#DejaVuSans-4c"/>
     </g>
    </g>
    <g id="line2d_26">
     <path d="M 61.582813 53.694687 
L 71.582813 53.694687 
L 81.582813 53.694687 
" style="fill: none; stroke: #ff7f0e; stroke-width: 1.5; stroke-linecap: square"/>
    </g>
    <g id="text_16">
     <!-- R -->
     <g transform="translate(89.582813 57.194687)scale(0.1 -0.1)">
      <defs>
       <path id="DejaVuSans-52" d="M 2841 2188 
Q 3044 2119 3236 1894 
Q 3428 1669 3622 1275 
L 4263 0 
L 3584 0 
L 2988 1197 
Q 2756 1666 2539 1819 
Q 2322 1972 1947 1972 
L 1259 1972 
L 1259 0 
L 628 0 
L 628 4666 
L 2053 4666 
Q 2853 4666 3247 4331 
Q 3641 3997 3641 3322 
Q 3641 2881 3436 2590 
Q 3231 2300 2841 2188 
z
M 1259 4147 
L 1259 2491 
L 2053 2491 
Q 2509 2491 2742 2702 
Q 2975 2913 2975 3322 
Q 2975 3731 2742 3939 
Q 2509 4147 2053 4147 
L 1259 4147 
z
" transform="scale(0.015625)"/>
      </defs>
      <use xlink:href="#DejaVuSans-52"/>
     </g>
    </g>
   </g>
  </g>
 </g>
 <defs>
  <clipPath id="pc5e42e7cd0">
   <rect x="52.582813" y="25.918125" width="397.417187" height="278.525625"/>
  </clipPath>
 </defs>
</svg>
