<?xml version="1.0" encoding="utf-8" standalone="no"?>
<!DOCTYPE svg PUBLIC "-//W3C//DTD SVG 1.1//EN"
  "http://www.w3.org/Graphics/SVG/1.1/DTD/svg11.dtd">
<svg xmlns:xlink="http://www.w3.org/1999/xlink" width="460.8pt" height="345.6pt" viewBox="0 0 460.8 345.6" xmlns="http://www.w3.org/2000/svg" version="1.1">
 <metadata>
  <rdf:RDF xmlns:dc="http://purl.org/dc/elements/1.1/" xmlns:cc="http://creativecommons.org/ns#" xmlns:rdf="http://www.w3.org/1999/02/22-rdf-syntax-ns#">
   <cc:Work>
    <dc:type rdf:resource="http://purl.org/dc/dcmitype/StillImage"/>
    <dc:date>2022-01-15T16:32:25.502027</dc:date>
    <dc:format>image/svg+xml</dc:format>
    <dc:creator>
     <cc:Agent>
      <dc:title>Matplotlib v3.5.1, https://matplotlib.org/</dc:title>
     </cc:Agent>
    </dc:creator>
   </cc:Work>
  </rdf:RDF>
 </metadata>
 <defs>
  <style type="text/css">*{stroke-linejoin: round; stroke-linecap: butt}</style>
 </defs>
 <g id="figure_1">
  <g id="patch_1">
   <path d="M 0 345.6 
L 460.8 345.6 
L 460.8 0 
L 0 0 
z
" style="fill: #ffffff"/>
  </g>
  <g id="axes_1">
   <g id="patch_2">
    <path d="M 58.945313 168.517812 
L 450 168.517812 
L 450 48.331875 
L 58.945313 48.331875 
z
" style="fill: #ffffff"/>
   </g>
   <g id="matplotlib.axis_1">
    <g id="xtick_1">
     <g id="line2d_1">
      <path d="M 76.720526 168.517812 
L 76.720526 48.331875 
" clip-path="url(#pb020ae489e)" style="fill: none; stroke: #b0b0b0; stroke-width: 0.8; stroke-linecap: square"/>
     </g>
     <g id="line2d_2">
      <defs>
       <path id="m0ccde13385" d="M 0 0 
L 0 3.5 
" style="stroke: #000000; stroke-width: 0.8"/>
      </defs>
      <g>
       <use xlink:href="#m0ccde13385" x="76.720526" y="168.517812" style="stroke: #000000; stroke-width: 0.8"/>
      </g>
     </g>
    </g>
    <g id="xtick_2">
     <g id="line2d_3">
      <path d="M 126.096117 168.517812 
L 126.096117 48.331875 
" clip-path="url(#pb020ae489e)" style="fill: none; stroke: #b0b0b0; stroke-width: 0.8; stroke-linecap: square"/>
     </g>
     <g id="line2d_4">
      <g>
       <use xlink:href="#m0ccde13385" x="126.096117" y="168.517812" style="stroke: #000000; stroke-width: 0.8"/>
      </g>
     </g>
    </g>
    <g id="xtick_3">
     <g id="line2d_5">
      <path d="M 175.471709 168.517812 
L 175.471709 48.331875 
" clip-path="url(#pb020ae489e)" style="fill: none; stroke: #b0b0b0; stroke-width: 0.8; stroke-linecap: square"/>
     </g>
     <g id="line2d_6">
      <g>
       <use xlink:href="#m0ccde13385" x="175.471709" y="168.517812" style="stroke: #000000; stroke-width: 0.8"/>
      </g>
     </g>
    </g>
    <g id="xtick_4">
     <g id="line2d_7">
      <path d="M 224.847301 168.517812 
L 224.847301 48.331875 
" clip-path="url(#pb020ae489e)" style="fill: none; stroke: #b0b0b0; stroke-width: 0.8; stroke-linecap: square"/>
     </g>
     <g id="line2d_8">
      <g>
       <use xlink:href="#m0ccde13385" x="224.847301" y="168.517812" style="stroke: #000000; stroke-width: 0.8"/>
      </g>
     </g>
    </g>
    <g id="xtick_5">
     <g id="line2d_9">
      <path d="M 274.222893 168.517812 
L 274.222893 48.331875 
" clip-path="url(#pb020ae489e)" style="fill: none; stroke: #b0b0b0; stroke-width: 0.8; stroke-linecap: square"/>
     </g>
     <g id="line2d_10">
      <g>
       <use xlink:href="#m0ccde13385" x="274.222893" y="168.517812" style="stroke: #000000; stroke-width: 0.8"/>
      </g>
     </g>
    </g>
    <g id="xtick_6">
     <g id="line2d_11">
      <path d="M 323.598485 168.517812 
L 323.598485 48.331875 
" clip-path="url(#pb020ae489e)" style="fill: none; stroke: #b0b0b0; stroke-width: 0.8; stroke-linecap: square"/>
     </g>
     <g id="line2d_12">
      <g>
       <use xlink:href="#m0ccde13385" x="323.598485" y="168.517812" style="stroke: #000000; stroke-width: 0.8"/>
      </g>
     </g>
    </g>
    <g id="xtick_7">
     <g id="line2d_13">
      <path d="M 372.974077 168.517812 
L 372.974077 48.331875 
" clip-path="url(#pb020ae489e)" style="fill: none; stroke: #b0b0b0; stroke-width: 0.8; stroke-linecap: square"/>
     </g>
     <g id="line2d_14">
      <g>
       <use xlink:href="#m0ccde13385" x="372.974077" y="168.517812" style="stroke: #000000; stroke-width: 0.8"/>
      </g>
     </g>
    </g>
    <g id="xtick_8">
     <g id="line2d_15">
      <path d="M 422.349669 168.517812 
L 422.349669 48.331875 
" clip-path="url(#pb020ae489e)" style="fill: none; stroke: #b0b0b0; stroke-width: 0.8; stroke-linecap: square"/>
     </g>
     <g id="line2d_16">
      <g>
       <use xlink:href="#m0ccde13385" x="422.349669" y="168.517812" style="stroke: #000000; stroke-width: 0.8"/>
      </g>
     </g>
    </g>
   </g>
   <g id="matplotlib.axis_2">
    <g id="ytick_1">
     <g id="line2d_17">
      <path d="M 58.945313 163.096327 
L 450 163.096327 
" clip-path="url(#pb020ae489e)" style="fill: none; stroke: #b0b0b0; stroke-width: 0.8; stroke-linecap: square"/>
     </g>
     <g id="line2d_18">
      <defs>
       <path id="m41740355cd" d="M 0 0 
L -3.5 0 
" style="stroke: #000000; stroke-width: 0.8"/>
      </defs>
      <g>
       <use xlink:href="#m41740355cd" x="58.945313" y="163.096327" style="stroke: #000000; stroke-width: 0.8"/>
      </g>
     </g>
     <g id="text_1">
      <!-- 0 -->
      <g transform="translate(45.582813 166.895546)scale(0.1 -0.1)">
       <defs>
        <path id="DejaVuSans-30" d="M 2034 4250 
Q 1547 4250 1301 3770 
Q 1056 3291 1056 2328 
Q 1056 1369 1301 889 
Q 1547 409 2034 409 
Q 2525 409 2770 889 
Q 3016 1369 3016 2328 
Q 3016 3291 2770 3770 
Q 2525 4250 2034 4250 
z
M 2034 4750 
Q 2819 4750 3233 4129 
Q 3647 3509 3647 2328 
Q 3647 1150 3233 529 
Q 2819 -91 2034 -91 
Q 1250 -91 836 529 
Q 422 1150 422 2328 
Q 422 3509 836 4129 
Q 1250 4750 2034 4750 
z
" transform="scale(0.015625)"/>
       </defs>
       <use xlink:href="#DejaVuSans-30"/>
      </g>
     </g>
    </g>
    <g id="ytick_2">
     <g id="line2d_19">
      <path d="M 58.945313 142.340259 
L 450 142.340259 
" clip-path="url(#pb020ae489e)" style="fill: none; stroke: #b0b0b0; stroke-width: 0.8; stroke-linecap: square"/>
     </g>
     <g id="line2d_20">
      <g>
       <use xlink:href="#m41740355cd" x="58.945313" y="142.340259" style="stroke: #000000; stroke-width: 0.8"/>
      </g>
     </g>
     <g id="text_2">
      <!-- 500 -->
      <g transform="translate(32.857813 146.139478)scale(0.1 -0.1)">
       <defs>
        <path id="DejaVuSans-35" d="M 691 4666 
L 3169 4666 
L 3169 4134 
L 1269 4134 
L 1269 2991 
Q 1406 3038 1543 3061 
Q 1681 3084 1819 3084 
Q 2600 3084 3056 2656 
Q 3513 2228 3513 1497 
Q 3513 744 3044 326 
Q 2575 -91 1722 -91 
Q 1428 -91 1123 -41 
Q 819 9 494 109 
L 494 744 
Q 775 591 1075 516 
Q 1375 441 1709 441 
Q 2250 441 2565 725 
Q 2881 1009 2881 1497 
Q 2881 1984 2565 2268 
Q 2250 2553 1709 2553 
Q 1456 2553 1204 2497 
Q 953 2441 691 2322 
L 691 4666 
z
" transform="scale(0.015625)"/>
       </defs>
       <use xlink:href="#DejaVuSans-35"/>
       <use xlink:href="#DejaVuSans-30" x="63.623047"/>
       <use xlink:href="#DejaVuSans-30" x="127.246094"/>
      </g>
     </g>
    </g>
    <g id="ytick_3">
     <g id="line2d_21">
      <path d="M 58.945313 121.584191 
L 450 121.584191 
" clip-path="url(#pb020ae489e)" style="fill: none; stroke: #b0b0b0; stroke-width: 0.8; stroke-linecap: square"/>
     </g>
     <g id="line2d_22">
      <g>
       <use xlink:href="#m41740355cd" x="58.945313" y="121.584191" style="stroke: #000000; stroke-width: 0.8"/>
      </g>
     </g>
     <g id="text_3">
      <!-- 1000 -->
      <g transform="translate(26.495313 125.38341)scale(0.1 -0.1)">
       <defs>
        <path id="DejaVuSans-31" d="M 794 531 
L 1825 531 
L 1825 4091 
L 703 3866 
L 703 4441 
L 1819 4666 
L 2450 4666 
L 2450 531 
L 3481 531 
L 3481 0 
L 794 0 
L 794 531 
z
" transform="scale(0.015625)"/>
       </defs>
       <use xlink:href="#DejaVuSans-31"/>
       <use xlink:href="#DejaVuSans-30" x="63.623047"/>
       <use xlink:href="#DejaVuSans-30" x="127.246094"/>
       <use xlink:href="#DejaVuSans-30" x="190.869141"/>
      </g>
     </g>
    </g>
    <g id="ytick_4">
     <g id="line2d_23">
      <path d="M 58.945313 100.828123 
L 450 100.828123 
" clip-path="url(#pb020ae489e)" style="fill: none; stroke: #b0b0b0; stroke-width: 0.8; stroke-linecap: square"/>
     </g>
     <g id="line2d_24">
      <g>
       <use xlink:href="#m41740355cd" x="58.945313" y="100.828123" style="stroke: #000000; stroke-width: 0.8"/>
      </g>
     </g>
     <g id="text_4">
      <!-- 1500 -->
      <g transform="translate(26.495313 104.627342)scale(0.1 -0.1)">
       <use xlink:href="#DejaVuSans-31"/>
       <use xlink:href="#DejaVuSans-35" x="63.623047"/>
       <use xlink:href="#DejaVuSans-30" x="127.246094"/>
       <use xlink:href="#DejaVuSans-30" x="190.869141"/>
      </g>
     </g>
    </g>
    <g id="ytick_5">
     <g id="line2d_25">
      <path d="M 58.945313 80.072055 
L 450 80.072055 
" clip-path="url(#pb020ae489e)" style="fill: none; stroke: #b0b0b0; stroke-width: 0.8; stroke-linecap: square"/>
     </g>
     <g id="line2d_26">
      <g>
       <use xlink:href="#m41740355cd" x="58.945313" y="80.072055" style="stroke: #000000; stroke-width: 0.8"/>
      </g>
     </g>
     <g id="text_5">
      <!-- 2000 -->
      <g transform="translate(26.495313 83.871273)scale(0.1 -0.1)">
       <defs>
        <path id="DejaVuSans-32" d="M 1228 531 
L 3431 531 
L 3431 0 
L 469 0 
L 469 531 
Q 828 903 1448 1529 
Q 2069 2156 2228 2338 
Q 2531 2678 2651 2914 
Q 2772 3150 2772 3378 
Q 2772 3750 2511 3984 
Q 2250 4219 1831 4219 
Q 1534 4219 1204 4116 
Q 875 4013 500 3803 
L 500 4441 
Q 881 4594 1212 4672 
Q 1544 4750 1819 4750 
Q 2544 4750 2975 4387 
Q 3406 4025 3406 3419 
Q 3406 3131 3298 2873 
Q 3191 2616 2906 2266 
Q 2828 2175 2409 1742 
Q 1991 1309 1228 531 
z
" transform="scale(0.015625)"/>
       </defs>
       <use xlink:href="#DejaVuSans-32"/>
       <use xlink:href="#DejaVuSans-30" x="63.623047"/>
       <use xlink:href="#DejaVuSans-30" x="127.246094"/>
       <use xlink:href="#DejaVuSans-30" x="190.869141"/>
      </g>
     </g>
    </g>
    <g id="ytick_6">
     <g id="line2d_27">
      <path d="M 58.945313 59.315986 
L 450 59.315986 
" clip-path="url(#pb020ae489e)" style="fill: none; stroke: #b0b0b0; stroke-width: 0.8; stroke-linecap: square"/>
     </g>
     <g id="line2d_28">
      <g>
       <use xlink:href="#m41740355cd" x="58.945313" y="59.315986" style="stroke: #000000; stroke-width: 0.8"/>
      </g>
     </g>
     <g id="text_6">
      <!-- 2500 -->
      <g transform="translate(26.495313 63.115205)scale(0.1 -0.1)">
       <use xlink:href="#DejaVuSans-32"/>
       <use xlink:href="#DejaVuSans-35" x="63.623047"/>
       <use xlink:href="#DejaVuSans-30" x="127.246094"/>
       <use xlink:href="#DejaVuSans-30" x="190.869141"/>
      </g>
     </g>
    </g>
    <g id="text_7">
     <!-- reflector value -->
     <g transform="translate(20.415625 144.74125)rotate(-90)scale(0.1 -0.1)">
      <defs>
       <path id="DejaVuSans-72" d="M 2631 2963 
Q 2534 3019 2420 3045 
Q 2306 3072 2169 3072 
Q 1681 3072 1420 2755 
Q 1159 2438 1159 1844 
L 1159 0 
L 581 0 
L 581 3500 
L 1159 3500 
L 1159 2956 
Q 1341 3275 1631 3429 
Q 1922 3584 2338 3584 
Q 2397 3584 2469 3576 
Q 2541 3569 2628 3553 
L 2631 2963 
z
" transform="scale(0.015625)"/>
       <path id="DejaVuSans-65" d="M 3597 1894 
L 3597 1613 
L 953 1613 
Q 991 1019 1311 708 
Q 1631 397 2203 397 
Q 2534 397 2845 478 
Q 3156 559 3463 722 
L 3463 178 
Q 3153 47 2828 -22 
Q 2503 -91 2169 -91 
Q 1331 -91 842 396 
Q 353 884 353 1716 
Q 353 2575 817 3079 
Q 1281 3584 2069 3584 
Q 2775 3584 3186 3129 
Q 3597 2675 3597 1894 
z
M 3022 2063 
Q 3016 2534 2758 2815 
Q 2500 3097 2075 3097 
Q 1594 3097 1305 2825 
Q 1016 2553 972 2059 
L 3022 2063 
z
" transform="scale(0.015625)"/>
       <path id="DejaVuSans-66" d="M 2375 4863 
L 2375 4384 
L 1825 4384 
Q 1516 4384 1395 4259 
Q 1275 4134 1275 3809 
L 1275 3500 
L 2222 3500 
L 2222 3053 
L 1275 3053 
L 1275 0 
L 697 0 
L 697 3053 
L 147 3053 
L 147 3500 
L 697 3500 
L 697 3744 
Q 697 4328 969 4595 
Q 1241 4863 1831 4863 
L 2375 4863 
z
" transform="scale(0.015625)"/>
       <path id="DejaVuSans-6c" d="M 603 4863 
L 1178 4863 
L 1178 0 
L 603 0 
L 603 4863 
z
" transform="scale(0.015625)"/>
       <path id="DejaVuSans-63" d="M 3122 3366 
L 3122 2828 
Q 2878 2963 2633 3030 
Q 2388 3097 2138 3097 
Q 1578 3097 1268 2742 
Q 959 2388 959 1747 
Q 959 1106 1268 751 
Q 1578 397 2138 397 
Q 2388 397 2633 464 
Q 2878 531 3122 666 
L 3122 134 
Q 2881 22 2623 -34 
Q 2366 -91 2075 -91 
Q 1284 -91 818 406 
Q 353 903 353 1747 
Q 353 2603 823 3093 
Q 1294 3584 2113 3584 
Q 2378 3584 2631 3529 
Q 2884 3475 3122 3366 
z
" transform="scale(0.015625)"/>
       <path id="DejaVuSans-74" d="M 1172 4494 
L 1172 3500 
L 2356 3500 
L 2356 3053 
L 1172 3053 
L 1172 1153 
Q 1172 725 1289 603 
Q 1406 481 1766 481 
L 2356 481 
L 2356 0 
L 1766 0 
Q 1100 0 847 248 
Q 594 497 594 1153 
L 594 3053 
L 172 3053 
L 172 3500 
L 594 3500 
L 594 4494 
L 1172 4494 
z
" transform="scale(0.015625)"/>
       <path id="DejaVuSans-6f" d="M 1959 3097 
Q 1497 3097 1228 2736 
Q 959 2375 959 1747 
Q 959 1119 1226 758 
Q 1494 397 1959 397 
Q 2419 397 2687 759 
Q 2956 1122 2956 1747 
Q 2956 2369 2687 2733 
Q 2419 3097 1959 3097 
z
M 1959 3584 
Q 2709 3584 3137 3096 
Q 3566 2609 3566 1747 
Q 3566 888 3137 398 
Q 2709 -91 1959 -91 
Q 1206 -91 779 398 
Q 353 888 353 1747 
Q 353 2609 779 3096 
Q 1206 3584 1959 3584 
z
" transform="scale(0.015625)"/>
       <path id="DejaVuSans-20" transform="scale(0.015625)"/>
       <path id="DejaVuSans-76" d="M 191 3500 
L 800 3500 
L 1894 563 
L 2988 3500 
L 3597 3500 
L 2284 0 
L 1503 0 
L 191 3500 
z
" transform="scale(0.015625)"/>
       <path id="DejaVuSans-61" d="M 2194 1759 
Q 1497 1759 1228 1600 
Q 959 1441 959 1056 
Q 959 750 1161 570 
Q 1363 391 1709 391 
Q 2188 391 2477 730 
Q 2766 1069 2766 1631 
L 2766 1759 
L 2194 1759 
z
M 3341 1997 
L 3341 0 
L 2766 0 
L 2766 531 
Q 2569 213 2275 61 
Q 1981 -91 1556 -91 
Q 1019 -91 701 211 
Q 384 513 384 1019 
Q 384 1609 779 1909 
Q 1175 2209 1959 2209 
L 2766 2209 
L 2766 2266 
Q 2766 2663 2505 2880 
Q 2244 3097 1772 3097 
Q 1472 3097 1187 3025 
Q 903 2953 641 2809 
L 641 3341 
Q 956 3463 1253 3523 
Q 1550 3584 1831 3584 
Q 2591 3584 2966 3190 
Q 3341 2797 3341 1997 
z
" transform="scale(0.015625)"/>
       <path id="DejaVuSans-75" d="M 544 1381 
L 544 3500 
L 1119 3500 
L 1119 1403 
Q 1119 906 1312 657 
Q 1506 409 1894 409 
Q 2359 409 2629 706 
Q 2900 1003 2900 1516 
L 2900 3500 
L 3475 3500 
L 3475 0 
L 2900 0 
L 2900 538 
Q 2691 219 2414 64 
Q 2138 -91 1772 -91 
Q 1169 -91 856 284 
Q 544 659 544 1381 
z
M 1991 3584 
L 1991 3584 
z
" transform="scale(0.015625)"/>
      </defs>
      <use xlink:href="#DejaVuSans-72"/>
      <use xlink:href="#DejaVuSans-65" x="38.863281"/>
      <use xlink:href="#DejaVuSans-66" x="100.386719"/>
      <use xlink:href="#DejaVuSans-6c" x="135.591797"/>
      <use xlink:href="#DejaVuSans-65" x="163.375"/>
      <use xlink:href="#DejaVuSans-63" x="224.898438"/>
      <use xlink:href="#DejaVuSans-74" x="279.878906"/>
      <use xlink:href="#DejaVuSans-6f" x="319.087891"/>
      <use xlink:href="#DejaVuSans-72" x="380.269531"/>
      <use xlink:href="#DejaVuSans-20" x="421.382812"/>
      <use xlink:href="#DejaVuSans-76" x="453.169922"/>
      <use xlink:href="#DejaVuSans-61" x="512.349609"/>
      <use xlink:href="#DejaVuSans-6c" x="573.628906"/>
      <use xlink:href="#DejaVuSans-75" x="601.412109"/>
      <use xlink:href="#DejaVuSans-65" x="664.791016"/>
     </g>
    </g>
   </g>
   <g id="line2d_29">
    <path d="M 76.720526 54.832676 
L 76.74075 54.209994 
L 76.720842 54.957212 
L 76.828954 54.376042 
L 76.85384 54.293018 
L 76.914572 54.417554 
L 77.036529 54.832676 
L 77.0863 54.832676 
L 77.33772 54.043945 
L 77.414746 55.081748 
L 77.497994 53.794872 
L 77.58766 54.542091 
L 77.683942 54.459066 
L 77.787038 54.376042 
L 78.015154 54.832676 
L 78.272894 54.832676 
L 78.414108 55.870479 
L 78.563223 55.247797 
L 78.721225 55.70443 
L 78.888114 55.247797 
L 79.063891 56.202576 
L 79.247568 56.161064 
L 79.643561 57.198867 
L 79.854888 57.364916 
L 81.042865 59.482035 
L 81.307518 59.855644 
L 81.581059 59.77262 
L 81.863487 60.395302 
L 82.454019 60.810423 
L 82.76311 60.851935 
L 83.081089 61.433105 
L 83.406968 60.976472 
L 83.742722 61.267057 
L 84.440893 61.474617 
L 85.173627 61.391593 
L 85.553819 61.059496 
L 85.942899 61.350081 
L 86.339878 61.267057 
L 86.743771 61.059496 
L 87.158526 60.436814 
L 87.583156 60.768911 
L 88.017661 60.229253 
L 88.462041 60.768911 
L 88.916297 60.104717 
L 89.370552 60.146229 
L 90.308688 60.644375 
L 90.792569 60.35379 
L 91.27645 60.519838 
L 91.770206 60.146229 
L 92.787343 60.187741 
L 93.814355 60.93496 
L 94.347612 60.146229 
L 94.880868 60.270765 
L 95.414125 60.56135 
L 95.957256 60.519838 
L 96.500388 60.810423 
L 97.053394 60.810423 
L 97.606401 60.685887 
L 98.732164 61.391593 
L 99.295046 60.93496 
L 99.867803 61.101008 
L 100.44056 61.059496 
L 101.595949 60.395302 
L 102.178581 60.229253 
L 104.528859 60.104717 
L 105.111491 59.731108 
L 105.703998 59.855644 
L 106.296505 59.731108 
L 107.481519 58.859353 
L 108.074026 58.817841 
L 108.666533 58.02911 
L 109.259041 57.697013 
L 109.851548 57.904574 
L 110.444055 57.863062 
L 111.036562 57.613989 
L 111.629069 57.489452 
L 112.814083 57.44794 
L 113.40659 56.410137 
L 113.999097 56.576185 
L 115.184112 57.115843 
L 115.776619 56.244088 
L 116.369126 56.368625 
L 116.961633 56.161064 
L 118.146647 56.161064 
L 118.739154 55.911991 
L 119.331661 55.870479 
L 120.516676 55.247797 
L 122.294197 55.372333 
L 123.479211 55.123261 
L 124.664225 55.081748 
L 125.256732 55.49687 
L 126.441747 55.413845 
L 127.034254 55.49687 
L 127.626761 55.289309 
L 128.219268 55.70443 
L 128.811775 55.621406 
L 129.404282 55.745943 
L 129.996789 55.662918 
L 130.589296 56.07804 
L 131.181803 55.995015 
L 132.366818 56.119552 
L 132.959325 56.2856 
L 133.551832 56.327112 
L 134.144339 56.534673 
L 134.736846 56.617697 
L 135.329353 57.032819 
L 135.92186 57.281892 
L 136.514367 57.240379 
L 137.106874 57.44794 
L 138.291889 57.572477 
L 138.884396 57.780037 
L 139.476903 58.319695 
L 140.661917 58.527256 
L 141.254424 58.817841 
L 141.846931 58.817841 
L 142.439438 59.315986 
L 143.031945 59.565059 
L 144.21696 60.893447 
L 144.809467 62.429397 
L 145.401974 64.338955 
L 145.994481 67.825974 
L 146.586988 72.931967 
L 147.772002 90.989746 
L 150.142031 135.656805 
L 150.734538 144.581915 
L 151.327045 151.389905 
L 151.919552 156.578922 
L 152.512059 160.065942 
L 153.104566 161.9755 
L 153.697073 163.054815 
L 223.563536 163.054815 
L 224.156043 162.598182 
L 225.341057 158.820577 
L 225.933564 156.412874 
L 227.118578 149.687907 
L 228.303593 139.849531 
L 229.488607 127.811011 
L 232.451142 87.627263 
L 233.636156 72.101724 
L 234.228664 67.327829 
L 235.413678 61.848227 
L 236.598692 59.648083 
L 237.191199 59.357498 
L 237.783706 58.817841 
L 238.376213 58.817841 
L 238.96872 58.61028 
L 239.561228 58.817841 
L 240.746242 58.859353 
L 241.338749 58.942377 
L 241.931256 59.232962 
L 243.11627 58.817841 
L 243.708777 58.61028 
L 244.301284 58.817841 
L 244.893791 58.817841 
L 245.486299 58.942377 
L 246.078806 58.817841 
L 246.671313 58.817841 
L 247.26382 58.983889 
L 247.856327 59.025401 
L 248.448834 58.817841 
L 249.041341 59.149938 
L 249.633848 59.108426 
L 250.226355 59.482035 
L 250.818862 59.066913 
L 251.41137 59.731108 
L 252.003877 60.021693 
L 252.596384 59.523547 
L 253.188891 59.606571 
L 253.781398 59.897156 
L 254.373905 59.77262 
L 254.966412 60.021693 
L 255.558919 59.855644 
L 256.151426 59.897156 
L 256.743933 60.063205 
L 257.336441 59.606571 
L 258.521455 60.146229 
L 259.706469 60.146229 
L 260.298976 60.021693 
L 260.891483 60.602863 
L 261.48399 60.146229 
L 262.076497 60.270765 
L 262.669004 60.063205 
L 263.854019 60.270765 
L 265.039033 60.104717 
L 265.63154 60.395302 
L 266.224047 60.146229 
L 266.816554 60.312278 
L 267.409061 60.063205 
L 268.594076 60.146229 
L 270.371597 59.855644 
L 270.964104 59.689596 
L 271.556611 59.731108 
L 272.149118 59.482035 
L 274.519147 59.482035 
L 276.296668 59.066913 
L 276.889175 59.315986 
L 277.481682 59.274474 
L 278.074189 59.648083 
L 278.666696 59.274474 
L 279.259203 59.648083 
L 279.85171 59.357498 
L 280.444218 59.440523 
L 281.036725 59.357498 
L 283.99926 59.482035 
L 284.591767 59.897156 
L 285.184274 60.104717 
L 285.776781 59.855644 
L 286.369289 60.187741 
L 286.961796 60.104717 
L 287.554303 60.644375 
L 288.14681 60.56135 
L 288.739317 60.187741 
L 289.331824 60.685887 
L 289.924331 60.602863 
L 290.516838 60.93496 
L 291.109345 60.851935 
L 292.29436 61.433105 
L 293.479374 61.433105 
L 294.071881 61.682178 
L 294.664388 61.51613 
L 295.256895 61.599154 
L 295.849402 62.055787 
L 296.441909 62.014275 
L 297.034416 61.557642 
L 297.626924 61.640666 
L 298.219431 61.599154 
L 299.404445 62.138812 
L 299.996952 62.138812 
L 300.589459 61.72369 
L 301.181966 62.138812 
L 301.774473 62.014275 
L 302.36698 62.097299 
L 303.551995 61.848227 
L 304.144502 61.474617 
L 307.107037 61.433105 
L 307.699544 61.059496 
L 308.292051 61.225545 
L 308.884558 60.893447 
L 310.069573 61.51613 
L 310.66208 61.059496 
L 311.254587 60.768911 
L 313.624615 60.727399 
L 314.809629 60.976472 
L 315.402137 61.391593 
L 316.587151 61.682178 
L 317.179658 61.931251 
L 317.772165 62.014275 
L 318.957179 62.803006 
L 319.549686 62.927542 
L 320.142193 63.301151 
L 320.734701 64.089882 
L 321.327208 65.459783 
L 321.919715 67.452365 
L 322.512222 70.524263 
L 323.104729 75.422695 
L 324.289743 92.774768 
L 325.474757 113.821421 
L 326.659772 135.407732 
L 327.844786 150.850247 
L 328.437293 156.205313 
L 329.0298 160.024429 
L 329.622307 162.473645 
L 330.214814 163.054815 
L 382.355439 162.971791 
L 384.13296 162.432133 
L 384.725468 163.054815 
L 387.688003 163.054815 
L 388.28051 160.564087 
L 388.873017 160.605599 
L 389.465524 160.024429 
L 390.650539 159.484772 
L 391.243046 161.186769 
L 391.835553 161.103745 
L 392.42806 160.481063 
L 394.205581 159.111162 
L 394.798088 155.914728 
L 397.168117 153.008878 
L 397.760624 154.835412 
L 398.353131 154.00517 
L 400.130652 150.020004 
L 400.723159 148.151958 
L 401.315666 142.962941 
L 401.908174 141.094895 
L 403.093188 135.656805 
L 403.685695 132.418859 
L 404.278202 132.83398 
L 406.055723 120.297315 
L 406.64823 115.274346 
L 407.240737 105.560506 
L 408.425752 94.891887 
L 409.512015 88.000873 
L 410.104522 91.778477 
L 410.697029 93.106865 
L 411.289536 96.469348 
L 412.375799 109.296599 
L 412.869555 113.157227 
L 413.462062 122.123849 
L 413.955818 131.422567 
L 415.042081 147.570788 
L 415.535837 157.201604 
L 416.029593 161.477354 
L 416.6221 163.054815 
L 423.33718 163.054815 
L 423.732185 162.930279 
L 424.423443 163.054815 
L 425.80596 163.054815 
L 426.102214 162.681206 
L 426.398467 162.847255 
L 426.694721 162.432133 
L 426.990974 162.349109 
L 427.287228 163.054815 
L 428.570993 163.054815 
L 428.867247 161.560378 
L 429.064749 161.560378 
L 429.459754 161.020721 
L 429.657256 163.054815 
L 430.546017 163.054815 
L 430.644768 160.439551 
L 430.743519 161.062233 
L 431.039773 160.439551 
L 431.237275 163.054815 
L 431.63228 163.054815 
L 431.63228 159.982917 
L 431.731031 159.982917 
L 431.829782 159.609308 
L 432.027285 163.054815 
L 432.027285 163.054815 
L 432.126036 163.054815 
L 432.224787 157.990335 
L 432.224787 158.48848 
" clip-path="url(#pb020ae489e)" style="fill: none; stroke: #1f77b4; stroke-width: 1.5; stroke-linecap: square"/>
   </g>
   <g id="line2d_30">
    <path d="M 76.720526 163.054815 
L 342.657463 162.971791 
L 343.24997 162.681206 
L 343.842478 162.888767 
L 344.434985 162.722718 
L 345.027492 163.013303 
L 346.805013 163.054815 
L 347.990027 163.054815 
L 348.582534 162.805743 
L 349.175041 162.432133 
L 349.767549 162.515158 
L 350.952563 162.432133 
L 351.54507 162.390621 
L 352.137577 163.054815 
L 355.100112 163.054815 
L 355.69262 162.390621 
L 356.877634 162.307597 
L 358.062648 162.390621 
L 358.655155 162.266085 
L 359.247662 163.054815 
L 361.617691 163.054815 
L 362.210198 162.307597 
L 362.802705 162.224573 
L 363.987719 162.349109 
L 364.580226 162.18306 
L 365.172733 162.349109 
L 365.76524 163.054815 
L 368.135269 163.054815 
L 368.727776 162.266085 
L 369.91279 162.017012 
L 371.097804 161.9755 
L 371.690311 161.767939 
L 372.282818 163.054815 
L 374.652847 163.054815 
L 375.245354 161.726427 
L 375.837861 161.39433 
L 376.430368 161.352818 
L 377.022875 161.601891 
L 377.615382 161.311306 
L 378.207889 161.601891 
L 378.800397 163.054815 
L 381.170425 163.054815 
L 381.762932 160.647111 
L 382.355439 160.854672 
L 382.947946 160.273502 
L 384.13296 160.148966 
L 384.725468 159.899893 
L 385.317975 163.054815 
L 387.688003 163.054815 
L 388.28051 159.484772 
L 388.873017 158.986626 
L 389.465524 159.06965 
L 390.058031 158.571505 
L 390.650539 158.48848 
L 391.243046 162.930279 
L 391.835553 163.054815 
L 393.613074 163.054815 
L 394.205581 162.681206 
L 394.798088 157.11858 
L 395.983103 156.911019 
L 397.168117 156.080776 
L 397.760624 161.352818 
L 398.353131 161.892476 
L 399.538145 161.186769 
L 400.723159 160.854672 
L 401.315666 154.295755 
L 401.908174 153.922145 
L 402.500681 153.756097 
L 403.685695 153.05039 
L 404.278202 159.526284 
L 406.055723 158.654529 
L 406.64823 158.363944 
L 407.240737 150.850247 
L 407.833245 150.476638 
L 408.425752 149.853956 
L 409.018259 149.687907 
L 409.512015 149.14825 
L 410.104522 156.495898 
L 410.697029 155.790191 
L 411.289536 155.582631 
L 412.375799 154.461803 
L 412.869555 146.491473 
L 413.462062 146.076352 
L 414.548325 144.789475 
L 415.042081 144.49889 
L 415.535837 152.26166 
L 416.029593 151.805026 
L 416.6221 150.974784 
L 417.115856 150.767223 
L 417.609612 149.895468 
L 418.103368 140.970359 
L 418.597124 140.347677 
L 418.992128 139.392898 
L 419.485884 138.936264 
L 419.97964 137.898461 
L 420.374645 146.616009 
L 420.868401 145.951815 
L 421.263406 145.163085 
L 421.757161 144.789475 
L 422.152166 144.042257 
L 422.547171 134.079344 
L 422.942176 133.041541 
L 423.33718 132.501883 
L 423.732185 131.713152 
L 424.12719 130.675349 
L 424.423443 139.64197 
L 424.818448 138.936264 
L 425.114702 138.022997 
L 425.509706 137.732412 
L 425.80596 136.777633 
L 426.102214 126.275062 
L 426.990974 123.70131 
L 427.287228 122.123849 
L 427.583481 131.215007 
L 427.879735 130.177203 
L 428.077237 129.014863 
L 428.373491 128.433694 
L 428.570993 127.229842 
L 429.064749 114.693176 
L 429.657256 111.206157 
L 429.854759 121.044533 
L 430.052261 120.338827 
L 430.151012 118.346244 
L 430.546017 116.685759 
L 430.743519 104.066069 
L 430.941022 103.69246 
L 431.138524 100.413001 
L 431.237275 110.002305 
L 431.336026 108.922989 
L 431.63228 105.892603 
L 431.731031 92.567208 
L 431.928533 88.582043 
L 432.027285 98.711004 
L 432.027285 95.265496 
L 432.126036 93.646523 
L 432.224787 66.788171 
L 432.224787 71.728115 
" clip-path="url(#pb020ae489e)" style="fill: none; stroke: #ff7f0e; stroke-width: 1.5; stroke-linecap: square"/>
   </g>
   <g id="line2d_31">
    <path d="M 76.720526 163.054815 
L 381.170425 163.054815 
L 381.762932 161.767939 
L 382.355439 161.850963 
L 382.947946 161.518866 
L 383.540453 161.518866 
L 384.13296 161.352818 
L 384.725468 163.054815 
L 387.688003 163.054815 
L 388.28051 160.23199 
L 389.465524 159.982917 
L 390.058031 160.148966 
L 390.650539 159.692332 
L 391.243046 163.054815 
L 394.205581 163.054815 
L 394.798088 157.782774 
L 395.390595 157.990335 
L 395.983103 157.575213 
L 396.57561 157.782774 
L 397.168117 157.11858 
L 397.760624 162.515158 
L 398.945638 161.850963 
L 399.538145 161.560378 
L 400.723159 161.311306 
L 401.315666 155.997752 
L 401.908174 154.918437 
L 402.500681 154.876924 
L 403.093188 154.461803 
L 403.685695 154.461803 
L 404.278202 159.858381 
L 404.870709 159.899893 
L 405.463216 159.360235 
L 406.055723 159.360235 
L 406.64823 158.571505 
L 407.240737 152.469221 
L 407.833245 151.805026 
L 408.425752 151.68049 
L 409.018259 150.767223 
L 409.512015 155.125997 
L 410.104522 156.53741 
L 410.697029 156.371361 
L 411.783292 155.292046 
L 412.375799 154.959949 
L 412.869555 148.234983 
L 413.462062 147.363228 
L 413.955818 147.446252 
L 414.548325 146.491473 
L 415.042081 152.095611 
L 415.535837 153.133415 
L 416.029593 152.220148 
L 416.6221 151.514441 
L 417.115856 151.306881 
L 417.609612 150.476638 
L 418.103368 143.12899 
L 418.597124 141.883626 
L 418.992128 142.215723 
L 419.485884 140.098604 
L 419.97964 147.114155 
L 420.374645 146.657521 
L 420.868401 146.491473 
L 421.263406 145.287621 
L 421.757161 145.038548 
L 422.152166 143.91772 
L 422.547171 135.864366 
L 422.942176 134.411441 
L 423.33718 134.162368 
L 423.732185 132.667931 
L 424.12719 139.849531 
L 424.423443 139.0608 
L 424.818448 138.936264 
L 425.114702 137.400315 
L 425.509706 137.358803 
L 425.80596 135.573781 
L 426.102214 127.437402 
L 426.398467 125.486332 
L 426.694721 125.859941 
L 426.990974 123.742822 
L 427.287228 131.339543 
L 427.879735 128.599742 
L 428.077237 128.433694 
L 428.570993 125.320283 
L 429.064749 114.070494 
L 429.262251 114.56864 
L 429.459754 111.911863 
L 429.657256 120.214291 
L 429.854759 117.972635 
L 430.052261 117.017856 
L 430.151012 117.474489 
L 430.546017 113.862934 
L 430.743519 102.198023 
L 431.039773 101.326268 
L 431.237275 107.843674 
L 431.434777 103.900021 
L 431.533529 104.356654 
L 431.63228 101.326268 
L 431.731031 88.997164 
L 431.829782 90.076479 
L 431.829782 86.464924 
L 431.928533 95.514569 
L 431.928533 92.60872 
L 432.027285 92.982329 
L 432.126036 73.96977 
L 432.126036 74.966062 
L 432.224787 82.189174 
L 432.224787 75.837817 
L 432.224787 60.187741 
L 432.224787 67.327829 
" clip-path="url(#pb020ae489e)" style="fill: none; stroke: #2ca02c; stroke-width: 1.5; stroke-linecap: square"/>
   </g>
   <g id="line2d_32">
    <path d="M 76.720526 157.243116 
L 76.788782 157.11858 
L 76.773101 157.782774 
L 76.828954 157.69975 
L 76.88228 157.69975 
L 77.036529 157.11858 
L 77.0863 157.69975 
L 77.141107 157.450677 
L 77.201148 157.69975 
L 77.26662 157.243116 
L 77.33772 157.367653 
L 77.414746 157.201604 
L 77.497994 157.326141 
L 77.89764 157.077068 
L 78.13958 157.492189 
L 78.272894 157.11858 
L 78.414108 157.409165 
L 78.721225 156.994043 
L 79.063891 157.284628 
L 79.441121 156.869507 
L 79.643561 157.077068 
L 79.854888 156.869507 
L 80.074116 157.077068 
L 80.541209 156.661946 
L 80.788087 156.869507 
L 81.042865 156.53741 
L 81.307518 156.869507 
L 81.581059 156.911019 
L 81.863487 157.11858 
L 82.153816 156.869507 
L 82.454019 156.827995 
L 82.76311 156.661946 
L 83.081089 156.703458 
L 83.406968 156.329849 
L 83.742722 156.412874 
L 84.087364 156.869507 
L 84.440893 156.412874 
L 84.802322 156.578922 
L 85.173627 156.578922 
L 85.553819 156.911019 
L 85.942899 156.661946 
L 86.339878 156.869507 
L 86.743771 156.53741 
L 87.158526 156.53741 
L 87.583156 156.952531 
L 88.017661 156.412874 
L 88.916297 156.786483 
L 89.370552 156.412874 
L 89.834683 156.412874 
L 90.792569 156.744971 
L 91.27645 157.077068 
L 91.770206 156.454386 
L 92.787343 156.827995 
L 93.814355 156.786483 
L 94.880868 156.703458 
L 95.414125 156.744971 
L 95.957256 156.495898 
L 96.500388 156.661946 
L 97.053394 157.035556 
L 97.606401 156.53741 
L 99.295046 156.661946 
L 99.867803 156.827995 
L 100.44056 157.326141 
L 101.023192 156.703458 
L 101.595949 157.160092 
L 102.178581 157.077068 
L 102.761213 157.575213 
L 103.343845 157.284628 
L 104.528859 157.11858 
L 105.111491 157.367653 
L 105.703998 157.160092 
L 106.296505 157.492189 
L 106.889012 156.994043 
L 108.074026 157.69975 
L 109.259041 157.243116 
L 109.851548 157.533701 
L 110.444055 157.533701 
L 111.036562 157.409165 
L 111.629069 157.616725 
L 112.221576 157.533701 
L 113.40659 157.69975 
L 113.999097 157.782774 
L 114.591605 157.69975 
L 115.184112 157.11858 
L 116.369126 157.575213 
L 116.961633 157.741262 
L 117.55414 157.326141 
L 118.146647 157.741262 
L 119.331661 157.782774 
L 119.924168 157.575213 
L 120.516676 157.533701 
L 121.109183 158.156383 
L 121.70169 157.533701 
L 122.294197 157.741262 
L 123.479211 157.782774 
L 124.071718 157.990335 
L 127.034254 158.197895 
L 128.219268 158.696041 
L 128.811775 159.028138 
L 130.589296 159.360235 
L 131.181803 160.148966 
L 131.77431 160.190478 
L 132.366818 160.439551 
L 132.959325 160.81316 
L 133.551832 160.979209 
L 134.144339 161.477354 
L 134.736846 161.518866 
L 135.329353 161.684915 
L 135.92186 162.390621 
L 136.514367 162.515158 
L 137.106874 163.054815 
L 218.823479 163.054815 
L 219.415986 162.888767 
L 220.601 161.9755 
L 221.193507 162.224573 
L 221.786014 161.518866 
L 222.971029 160.688624 
L 223.563536 160.647111 
L 224.156043 159.775357 
L 225.341057 159.692332 
L 225.933564 159.194187 
L 226.526071 159.152675 
L 227.118578 158.696041 
L 229.488607 158.156383 
L 230.673621 158.239408 
L 231.266128 158.031847 
L 231.858635 158.197895 
L 232.451142 157.865798 
L 233.043649 158.322432 
L 233.636156 158.156383 
L 234.228664 157.658238 
L 235.413678 157.782774 
L 236.598692 157.782774 
L 237.191199 157.990335 
L 237.783706 158.363944 
L 238.376213 157.990335 
L 238.96872 157.90731 
L 239.561228 158.197895 
L 240.153735 157.824286 
L 240.746242 158.197895 
L 241.338749 157.990335 
L 241.931256 158.156383 
L 242.523763 157.782774 
L 243.11627 158.156383 
L 243.708777 157.782774 
L 244.893791 157.782774 
L 245.486299 157.990335 
L 246.078806 157.782774 
L 246.671313 157.865798 
L 247.26382 157.782774 
L 247.856327 157.90731 
L 249.041341 157.575213 
L 249.633848 157.990335 
L 250.226355 157.948823 
L 250.818862 157.69975 
L 252.003877 157.533701 
L 252.596384 157.782774 
L 253.188891 157.243116 
L 253.781398 157.11858 
L 254.966412 157.11858 
L 255.558919 157.326141 
L 256.151426 157.11858 
L 256.743933 157.11858 
L 257.336441 157.409165 
L 257.928948 157.326141 
L 258.521455 157.69975 
L 259.113962 157.533701 
L 259.706469 157.575213 
L 260.298976 157.741262 
L 260.891483 157.367653 
L 261.48399 157.284628 
L 262.076497 157.077068 
L 262.669004 157.533701 
L 263.261512 157.616725 
L 263.854019 157.450677 
L 264.446526 157.077068 
L 265.039033 157.492189 
L 265.63154 157.533701 
L 266.816554 157.11858 
L 267.409061 157.782774 
L 268.001568 157.533701 
L 268.594076 157.782774 
L 269.186583 157.782774 
L 269.77909 157.533701 
L 270.371597 157.616725 
L 270.964104 157.11858 
L 271.556611 157.160092 
L 272.149118 157.658238 
L 272.741625 157.11858 
L 273.334132 157.533701 
L 273.926639 157.450677 
L 274.519147 157.11858 
L 275.111654 157.533701 
L 275.704161 157.243116 
L 276.296668 157.533701 
L 276.889175 157.948823 
L 279.259203 157.69975 
L 279.85171 157.11858 
L 280.444218 157.782774 
L 281.036725 157.533701 
L 281.629232 157.11858 
L 282.221739 157.409165 
L 282.814246 157.492189 
L 283.406753 157.11858 
L 283.99926 157.575213 
L 284.591767 157.533701 
L 285.184274 157.658238 
L 285.776781 157.575213 
L 286.369289 157.782774 
L 287.554303 157.782774 
L 288.14681 157.11858 
L 288.739317 157.492189 
L 289.331824 157.11858 
L 289.924331 157.367653 
L 291.109345 157.326141 
L 291.701853 157.035556 
L 292.29436 157.326141 
L 292.886867 157.326141 
L 293.479374 157.575213 
L 294.071881 157.533701 
L 294.664388 157.616725 
L 295.849402 157.409165 
L 296.441909 156.952531 
L 297.034416 157.492189 
L 298.219431 157.243116 
L 298.811938 156.994043 
L 299.404445 157.243116 
L 299.996952 157.326141 
L 300.589459 157.741262 
L 301.181966 157.948823 
L 301.774473 157.782774 
L 302.36698 158.073359 
L 304.144502 157.741262 
L 304.737009 157.575213 
L 305.922023 158.322432 
L 306.51453 158.446968 
L 307.107037 158.239408 
L 307.699544 158.86209 
L 308.292051 158.820577 
L 308.884558 159.775357 
L 310.66208 160.647111 
L 311.254587 161.103745 
L 311.847094 160.896184 
L 312.439601 161.186769 
L 313.032108 161.767939 
L 314.217122 162.432133 
L 314.809629 163.054815 
L 394.205581 163.054815 
L 394.798088 162.058524 
L 395.390595 162.349109 
L 396.57561 161.435842 
L 397.168117 161.684915 
L 397.760624 163.054815 
L 400.723159 163.054815 
L 401.315666 161.767939 
L 401.908174 161.892476 
L 402.500681 161.684915 
L 403.093188 162.307597 
L 403.685695 162.349109 
L 404.278202 163.054815 
L 425.80596 163.054815 
L 426.398467 162.473645 
L 426.694721 162.432133 
L 426.990974 162.888767 
L 427.287228 162.432133 
L 427.583481 163.054815 
L 428.570993 163.054815 
L 428.867247 161.39433 
L 429.064749 161.477354 
L 429.262251 161.103745 
L 429.657256 161.643403 
L 429.854759 163.054815 
L 430.546017 163.054815 
L 430.743519 160.356526 
L 430.941022 160.315014 
L 431.138524 160.439551 
L 431.336026 163.054815 
L 431.63228 163.054815 
L 431.731031 159.692332 
L 431.829782 159.775357 
L 431.928533 159.484772 
L 432.027285 163.054815 
L 432.027285 163.054815 
L 432.126036 163.054815 
L 432.224787 157.243116 
L 432.224787 157.782774 
" clip-path="url(#pb020ae489e)" style="fill: none; stroke: #d62728; stroke-width: 1.5; stroke-linecap: square"/>
   </g>
   <g id="patch_3">
    <path d="M 58.945313 168.517812 
L 58.945313 48.331875 
" style="fill: none; stroke: #000000; stroke-width: 0.8; stroke-linejoin: miter; stroke-linecap: square"/>
   </g>
   <g id="patch_4">
    <path d="M 450 168.517812 
L 450 48.331875 
" style="fill: none; stroke: #000000; stroke-width: 0.8; stroke-linejoin: miter; stroke-linecap: square"/>
   </g>
   <g id="patch_5">
    <path d="M 58.945313 168.517812 
L 450 168.517812 
" style="fill: none; stroke: #000000; stroke-width: 0.8; stroke-linejoin: miter; stroke-linecap: square"/>
   </g>
   <g id="patch_6">
    <path d="M 58.945313 48.331875 
L 450 48.331875 
" style="fill: none; stroke: #000000; stroke-width: 0.8; stroke-linejoin: miter; stroke-linecap: square"/>
   </g>
   <g id="text_8">
    <!-- Reflector Raw Value -->
    <g transform="translate(194.712656 42.331875)scale(0.12 -0.12)">
     <defs>
      <path id="DejaVuSans-52" d="M 2841 2188 
Q 3044 2119 3236 1894 
Q 3428 1669 3622 1275 
L 4263 0 
L 3584 0 
L 2988 1197 
Q 2756 1666 2539 1819 
Q 2322 1972 1947 1972 
L 1259 1972 
L 1259 0 
L 628 0 
L 628 4666 
L 2053 4666 
Q 2853 4666 3247 4331 
Q 3641 3997 3641 3322 
Q 3641 2881 3436 2590 
Q 3231 2300 2841 2188 
z
M 1259 4147 
L 1259 2491 
L 2053 2491 
Q 2509 2491 2742 2702 
Q 2975 2913 2975 3322 
Q 2975 3731 2742 3939 
Q 2509 4147 2053 4147 
L 1259 4147 
z
" transform="scale(0.015625)"/>
      <path id="DejaVuSans-77" d="M 269 3500 
L 844 3500 
L 1563 769 
L 2278 3500 
L 2956 3500 
L 3675 769 
L 4391 3500 
L 4966 3500 
L 4050 0 
L 3372 0 
L 2619 2869 
L 1863 0 
L 1184 0 
L 269 3500 
z
" transform="scale(0.015625)"/>
      <path id="DejaVuSans-56" d="M 1831 0 
L 50 4666 
L 709 4666 
L 2188 738 
L 3669 4666 
L 4325 4666 
L 2547 0 
L 1831 0 
z
" transform="scale(0.015625)"/>
     </defs>
     <use xlink:href="#DejaVuSans-52"/>
     <use xlink:href="#DejaVuSans-65" x="64.982422"/>
     <use xlink:href="#DejaVuSans-66" x="126.505859"/>
     <use xlink:href="#DejaVuSans-6c" x="161.710938"/>
     <use xlink:href="#DejaVuSans-65" x="189.494141"/>
     <use xlink:href="#DejaVuSans-63" x="251.017578"/>
     <use xlink:href="#DejaVuSans-74" x="305.998047"/>
     <use xlink:href="#DejaVuSans-6f" x="345.207031"/>
     <use xlink:href="#DejaVuSans-72" x="406.388672"/>
     <use xlink:href="#DejaVuSans-20" x="447.501953"/>
     <use xlink:href="#DejaVuSans-52" x="479.289062"/>
     <use xlink:href="#DejaVuSans-61" x="546.521484"/>
     <use xlink:href="#DejaVuSans-77" x="607.800781"/>
     <use xlink:href="#DejaVuSans-20" x="689.587891"/>
     <use xlink:href="#DejaVuSans-56" x="721.375"/>
     <use xlink:href="#DejaVuSans-61" x="782.033203"/>
     <use xlink:href="#DejaVuSans-6c" x="843.3125"/>
     <use xlink:href="#DejaVuSans-75" x="871.095703"/>
     <use xlink:href="#DejaVuSans-65" x="934.474609"/>
    </g>
   </g>
   <g id="legend_1">
    <g id="patch_7">
     <path d="M 65.945312 139.281094 
L 133.360938 139.281094 
Q 135.360938 139.281094 135.360938 137.281094 
L 135.360938 79.568594 
Q 135.360938 77.568594 133.360938 77.568594 
L 65.945312 77.568594 
Q 63.945312 77.568594 63.945312 79.568594 
L 63.945312 137.281094 
Q 63.945312 139.281094 65.945312 139.281094 
z
" style="fill: #ffffff; opacity: 0.8; stroke: #cccccc; stroke-linejoin: miter"/>
    </g>
    <g id="line2d_33">
     <path d="M 67.945312 85.667031 
L 77.945312 85.667031 
L 87.945312 85.667031 
" style="fill: none; stroke: #1f77b4; stroke-width: 1.5; stroke-linecap: square"/>
    </g>
    <g id="text_9">
     <!-- L Side -->
     <g transform="translate(95.945312 89.167031)scale(0.1 -0.1)">
      <defs>
       <path id="DejaVuSans-4c" d="M 628 4666 
L 1259 4666 
L 1259 531 
L 3531 531 
L 3531 0 
L 628 0 
L 628 4666 
z
" transform="scale(0.015625)"/>
       <path id="DejaVuSans-53" d="M 3425 4513 
L 3425 3897 
Q 3066 4069 2747 4153 
Q 2428 4238 2131 4238 
Q 1616 4238 1336 4038 
Q 1056 3838 1056 3469 
Q 1056 3159 1242 3001 
Q 1428 2844 1947 2747 
L 2328 2669 
Q 3034 2534 3370 2195 
Q 3706 1856 3706 1288 
Q 3706 609 3251 259 
Q 2797 -91 1919 -91 
Q 1588 -91 1214 -16 
Q 841 59 441 206 
L 441 856 
Q 825 641 1194 531 
Q 1563 422 1919 422 
Q 2459 422 2753 634 
Q 3047 847 3047 1241 
Q 3047 1584 2836 1778 
Q 2625 1972 2144 2069 
L 1759 2144 
Q 1053 2284 737 2584 
Q 422 2884 422 3419 
Q 422 4038 858 4394 
Q 1294 4750 2059 4750 
Q 2388 4750 2728 4690 
Q 3069 4631 3425 4513 
z
" transform="scale(0.015625)"/>
       <path id="DejaVuSans-69" d="M 603 3500 
L 1178 3500 
L 1178 0 
L 603 0 
L 603 3500 
z
M 603 4863 
L 1178 4863 
L 1178 4134 
L 603 4134 
L 603 4863 
z
" transform="scale(0.015625)"/>
       <path id="DejaVuSans-64" d="M 2906 2969 
L 2906 4863 
L 3481 4863 
L 3481 0 
L 2906 0 
L 2906 525 
Q 2725 213 2448 61 
Q 2172 -91 1784 -91 
Q 1150 -91 751 415 
Q 353 922 353 1747 
Q 353 2572 751 3078 
Q 1150 3584 1784 3584 
Q 2172 3584 2448 3432 
Q 2725 3281 2906 2969 
z
M 947 1747 
Q 947 1113 1208 752 
Q 1469 391 1925 391 
Q 2381 391 2643 752 
Q 2906 1113 2906 1747 
Q 2906 2381 2643 2742 
Q 2381 3103 1925 3103 
Q 1469 3103 1208 2742 
Q 947 2381 947 1747 
z
" transform="scale(0.015625)"/>
      </defs>
      <use xlink:href="#DejaVuSans-4c"/>
      <use xlink:href="#DejaVuSans-20" x="55.712891"/>
      <use xlink:href="#DejaVuSans-53" x="87.5"/>
      <use xlink:href="#DejaVuSans-69" x="150.976562"/>
      <use xlink:href="#DejaVuSans-64" x="178.759766"/>
      <use xlink:href="#DejaVuSans-65" x="242.236328"/>
     </g>
    </g>
    <g id="line2d_34">
     <path d="M 67.945312 100.345156 
L 77.945312 100.345156 
L 87.945312 100.345156 
" style="fill: none; stroke: #ff7f0e; stroke-width: 1.5; stroke-linecap: square"/>
    </g>
    <g id="text_10">
     <!-- L Front -->
     <g transform="translate(95.945312 103.845156)scale(0.1 -0.1)">
      <defs>
       <path id="DejaVuSans-46" d="M 628 4666 
L 3309 4666 
L 3309 4134 
L 1259 4134 
L 1259 2759 
L 3109 2759 
L 3109 2228 
L 1259 2228 
L 1259 0 
L 628 0 
L 628 4666 
z
" transform="scale(0.015625)"/>
       <path id="DejaVuSans-6e" d="M 3513 2113 
L 3513 0 
L 2938 0 
L 2938 2094 
Q 2938 2591 2744 2837 
Q 2550 3084 2163 3084 
Q 1697 3084 1428 2787 
Q 1159 2491 1159 1978 
L 1159 0 
L 581 0 
L 581 3500 
L 1159 3500 
L 1159 2956 
Q 1366 3272 1645 3428 
Q 1925 3584 2291 3584 
Q 2894 3584 3203 3211 
Q 3513 2838 3513 2113 
z
" transform="scale(0.015625)"/>
      </defs>
      <use xlink:href="#DejaVuSans-4c"/>
      <use xlink:href="#DejaVuSans-20" x="55.712891"/>
      <use xlink:href="#DejaVuSans-46" x="87.5"/>
      <use xlink:href="#DejaVuSans-72" x="137.769531"/>
      <use xlink:href="#DejaVuSans-6f" x="176.632812"/>
      <use xlink:href="#DejaVuSans-6e" x="237.814453"/>
      <use xlink:href="#DejaVuSans-74" x="301.193359"/>
     </g>
    </g>
    <g id="line2d_35">
     <path d="M 67.945312 115.023281 
L 77.945312 115.023281 
L 87.945312 115.023281 
" style="fill: none; stroke: #2ca02c; stroke-width: 1.5; stroke-linecap: square"/>
    </g>
    <g id="text_11">
     <!-- R Front -->
     <g transform="translate(95.945312 118.523281)scale(0.1 -0.1)">
      <use xlink:href="#DejaVuSans-52"/>
      <use xlink:href="#DejaVuSans-20" x="69.482422"/>
      <use xlink:href="#DejaVuSans-46" x="101.269531"/>
      <use xlink:href="#DejaVuSans-72" x="151.539062"/>
      <use xlink:href="#DejaVuSans-6f" x="190.402344"/>
      <use xlink:href="#DejaVuSans-6e" x="251.583984"/>
      <use xlink:href="#DejaVuSans-74" x="314.962891"/>
     </g>
    </g>
    <g id="line2d_36">
     <path d="M 67.945312 129.701406 
L 77.945312 129.701406 
L 87.945312 129.701406 
" style="fill: none; stroke: #d62728; stroke-width: 1.5; stroke-linecap: square"/>
    </g>
    <g id="text_12">
     <!-- R Side -->
     <g transform="translate(95.945312 133.201406)scale(0.1 -0.1)">
      <use xlink:href="#DejaVuSans-52"/>
      <use xlink:href="#DejaVuSans-20" x="69.482422"/>
      <use xlink:href="#DejaVuSans-53" x="101.269531"/>
      <use xlink:href="#DejaVuSans-69" x="164.746094"/>
      <use xlink:href="#DejaVuSans-64" x="192.529297"/>
      <use xlink:href="#DejaVuSans-65" x="256.005859"/>
     </g>
    </g>
   </g>
  </g>
  <g id="axes_2">
   <g id="patch_8">
    <path d="M 58.945313 318.121875 
L 450 318.121875 
L 450 197.935938 
L 58.945313 197.935938 
z
" style="fill: #ffffff"/>
   </g>
   <g id="matplotlib.axis_3">
    <g id="xtick_9">
     <g id="line2d_37">
      <path d="M 76.720526 318.121875 
L 76.720526 197.935938 
" clip-path="url(#p24c0503fef)" style="fill: none; stroke: #b0b0b0; stroke-width: 0.8; stroke-linecap: square"/>
     </g>
     <g id="line2d_38">
      <g>
       <use xlink:href="#m0ccde13385" x="76.720526" y="318.121875" style="stroke: #000000; stroke-width: 0.8"/>
      </g>
     </g>
     <g id="text_13">
      <!-- 0 -->
      <g transform="translate(73.539276 332.720312)scale(0.1 -0.1)">
       <use xlink:href="#DejaVuSans-30"/>
      </g>
     </g>
    </g>
    <g id="xtick_10">
     <g id="line2d_39">
      <path d="M 126.096117 318.121875 
L 126.096117 197.935938 
" clip-path="url(#p24c0503fef)" style="fill: none; stroke: #b0b0b0; stroke-width: 0.8; stroke-linecap: square"/>
     </g>
     <g id="line2d_40">
      <g>
       <use xlink:href="#m0ccde13385" x="126.096117" y="318.121875" style="stroke: #000000; stroke-width: 0.8"/>
      </g>
     </g>
     <g id="text_14">
      <!-- 50 -->
      <g transform="translate(119.733617 332.720312)scale(0.1 -0.1)">
       <use xlink:href="#DejaVuSans-35"/>
       <use xlink:href="#DejaVuSans-30" x="63.623047"/>
      </g>
     </g>
    </g>
    <g id="xtick_11">
     <g id="line2d_41">
      <path d="M 175.471709 318.121875 
L 175.471709 197.935938 
" clip-path="url(#p24c0503fef)" style="fill: none; stroke: #b0b0b0; stroke-width: 0.8; stroke-linecap: square"/>
     </g>
     <g id="line2d_42">
      <g>
       <use xlink:href="#m0ccde13385" x="175.471709" y="318.121875" style="stroke: #000000; stroke-width: 0.8"/>
      </g>
     </g>
     <g id="text_15">
      <!-- 100 -->
      <g transform="translate(165.927959 332.720312)scale(0.1 -0.1)">
       <use xlink:href="#DejaVuSans-31"/>
       <use xlink:href="#DejaVuSans-30" x="63.623047"/>
       <use xlink:href="#DejaVuSans-30" x="127.246094"/>
      </g>
     </g>
    </g>
    <g id="xtick_12">
     <g id="line2d_43">
      <path d="M 224.847301 318.121875 
L 224.847301 197.935938 
" clip-path="url(#p24c0503fef)" style="fill: none; stroke: #b0b0b0; stroke-width: 0.8; stroke-linecap: square"/>
     </g>
     <g id="line2d_44">
      <g>
       <use xlink:href="#m0ccde13385" x="224.847301" y="318.121875" style="stroke: #000000; stroke-width: 0.8"/>
      </g>
     </g>
     <g id="text_16">
      <!-- 150 -->
      <g transform="translate(215.303551 332.720312)scale(0.1 -0.1)">
       <use xlink:href="#DejaVuSans-31"/>
       <use xlink:href="#DejaVuSans-35" x="63.623047"/>
       <use xlink:href="#DejaVuSans-30" x="127.246094"/>
      </g>
     </g>
    </g>
    <g id="xtick_13">
     <g id="line2d_45">
      <path d="M 274.222893 318.121875 
L 274.222893 197.935938 
" clip-path="url(#p24c0503fef)" style="fill: none; stroke: #b0b0b0; stroke-width: 0.8; stroke-linecap: square"/>
     </g>
     <g id="line2d_46">
      <g>
       <use xlink:href="#m0ccde13385" x="274.222893" y="318.121875" style="stroke: #000000; stroke-width: 0.8"/>
      </g>
     </g>
     <g id="text_17">
      <!-- 200 -->
      <g transform="translate(264.679143 332.720312)scale(0.1 -0.1)">
       <use xlink:href="#DejaVuSans-32"/>
       <use xlink:href="#DejaVuSans-30" x="63.623047"/>
       <use xlink:href="#DejaVuSans-30" x="127.246094"/>
      </g>
     </g>
    </g>
    <g id="xtick_14">
     <g id="line2d_47">
      <path d="M 323.598485 318.121875 
L 323.598485 197.935938 
" clip-path="url(#p24c0503fef)" style="fill: none; stroke: #b0b0b0; stroke-width: 0.8; stroke-linecap: square"/>
     </g>
     <g id="line2d_48">
      <g>
       <use xlink:href="#m0ccde13385" x="323.598485" y="318.121875" style="stroke: #000000; stroke-width: 0.8"/>
      </g>
     </g>
     <g id="text_18">
      <!-- 250 -->
      <g transform="translate(314.054735 332.720312)scale(0.1 -0.1)">
       <use xlink:href="#DejaVuSans-32"/>
       <use xlink:href="#DejaVuSans-35" x="63.623047"/>
       <use xlink:href="#DejaVuSans-30" x="127.246094"/>
      </g>
     </g>
    </g>
    <g id="xtick_15">
     <g id="line2d_49">
      <path d="M 372.974077 318.121875 
L 372.974077 197.935938 
" clip-path="url(#p24c0503fef)" style="fill: none; stroke: #b0b0b0; stroke-width: 0.8; stroke-linecap: square"/>
     </g>
     <g id="line2d_50">
      <g>
       <use xlink:href="#m0ccde13385" x="372.974077" y="318.121875" style="stroke: #000000; stroke-width: 0.8"/>
      </g>
     </g>
     <g id="text_19">
      <!-- 300 -->
      <g transform="translate(363.430327 332.720312)scale(0.1 -0.1)">
       <defs>
        <path id="DejaVuSans-33" d="M 2597 2516 
Q 3050 2419 3304 2112 
Q 3559 1806 3559 1356 
Q 3559 666 3084 287 
Q 2609 -91 1734 -91 
Q 1441 -91 1130 -33 
Q 819 25 488 141 
L 488 750 
Q 750 597 1062 519 
Q 1375 441 1716 441 
Q 2309 441 2620 675 
Q 2931 909 2931 1356 
Q 2931 1769 2642 2001 
Q 2353 2234 1838 2234 
L 1294 2234 
L 1294 2753 
L 1863 2753 
Q 2328 2753 2575 2939 
Q 2822 3125 2822 3475 
Q 2822 3834 2567 4026 
Q 2313 4219 1838 4219 
Q 1578 4219 1281 4162 
Q 984 4106 628 3988 
L 628 4550 
Q 988 4650 1302 4700 
Q 1616 4750 1894 4750 
Q 2613 4750 3031 4423 
Q 3450 4097 3450 3541 
Q 3450 3153 3228 2886 
Q 3006 2619 2597 2516 
z
" transform="scale(0.015625)"/>
       </defs>
       <use xlink:href="#DejaVuSans-33"/>
       <use xlink:href="#DejaVuSans-30" x="63.623047"/>
       <use xlink:href="#DejaVuSans-30" x="127.246094"/>
      </g>
     </g>
    </g>
    <g id="xtick_16">
     <g id="line2d_51">
      <path d="M 422.349669 318.121875 
L 422.349669 197.935938 
" clip-path="url(#p24c0503fef)" style="fill: none; stroke: #b0b0b0; stroke-width: 0.8; stroke-linecap: square"/>
     </g>
     <g id="line2d_52">
      <g>
       <use xlink:href="#m0ccde13385" x="422.349669" y="318.121875" style="stroke: #000000; stroke-width: 0.8"/>
      </g>
     </g>
     <g id="text_20">
      <!-- 350 -->
      <g transform="translate(412.805919 332.720312)scale(0.1 -0.1)">
       <use xlink:href="#DejaVuSans-33"/>
       <use xlink:href="#DejaVuSans-35" x="63.623047"/>
       <use xlink:href="#DejaVuSans-30" x="127.246094"/>
      </g>
     </g>
    </g>
   </g>
   <g id="matplotlib.axis_4">
    <g id="ytick_7">
     <g id="line2d_53">
      <path d="M 58.945313 308.469941 
L 450 308.469941 
" clip-path="url(#p24c0503fef)" style="fill: none; stroke: #b0b0b0; stroke-width: 0.8; stroke-linecap: square"/>
     </g>
     <g id="line2d_54">
      <g>
       <use xlink:href="#m41740355cd" x="58.945313" y="308.469941" style="stroke: #000000; stroke-width: 0.8"/>
      </g>
     </g>
     <g id="text_21">
      <!-- 100 -->
      <g transform="translate(24.478125 312.26916)scale(0.1 -0.1)">
       <defs>
        <path id="DejaVuSans-2212" d="M 678 2272 
L 4684 2272 
L 4684 1741 
L 678 1741 
L 678 2272 
z
" transform="scale(0.015625)"/>
       </defs>
       <use xlink:href="#DejaVuSans-2212"/>
       <use xlink:href="#DejaVuSans-31" x="83.789062"/>
       <use xlink:href="#DejaVuSans-30" x="147.412109"/>
       <use xlink:href="#DejaVuSans-30" x="211.035156"/>
      </g>
     </g>
    </g>
    <g id="ytick_8">
     <g id="line2d_55">
      <path d="M 58.945313 286.188364 
L 450 286.188364 
" clip-path="url(#p24c0503fef)" style="fill: none; stroke: #b0b0b0; stroke-width: 0.8; stroke-linecap: square"/>
     </g>
     <g id="line2d_56">
      <g>
       <use xlink:href="#m41740355cd" x="58.945313" y="286.188364" style="stroke: #000000; stroke-width: 0.8"/>
      </g>
     </g>
     <g id="text_22">
      <!-- 75 -->
      <g transform="translate(30.840625 289.987583)scale(0.1 -0.1)">
       <defs>
        <path id="DejaVuSans-37" d="M 525 4666 
L 3525 4666 
L 3525 4397 
L 1831 0 
L 1172 0 
L 2766 4134 
L 525 4134 
L 525 4666 
z
" transform="scale(0.015625)"/>
       </defs>
       <use xlink:href="#DejaVuSans-2212"/>
       <use xlink:href="#DejaVuSans-37" x="83.789062"/>
       <use xlink:href="#DejaVuSans-35" x="147.412109"/>
      </g>
     </g>
    </g>
    <g id="ytick_9">
     <g id="line2d_57">
      <path d="M 58.945313 263.906786 
L 450 263.906786 
" clip-path="url(#p24c0503fef)" style="fill: none; stroke: #b0b0b0; stroke-width: 0.8; stroke-linecap: square"/>
     </g>
     <g id="line2d_58">
      <g>
       <use xlink:href="#m41740355cd" x="58.945313" y="263.906786" style="stroke: #000000; stroke-width: 0.8"/>
      </g>
     </g>
     <g id="text_23">
      <!-- 50 -->
      <g transform="translate(30.840625 267.706005)scale(0.1 -0.1)">
       <use xlink:href="#DejaVuSans-2212"/>
       <use xlink:href="#DejaVuSans-35" x="83.789062"/>
       <use xlink:href="#DejaVuSans-30" x="147.412109"/>
      </g>
     </g>
    </g>
    <g id="ytick_10">
     <g id="line2d_59">
      <path d="M 58.945313 241.625209 
L 450 241.625209 
" clip-path="url(#p24c0503fef)" style="fill: none; stroke: #b0b0b0; stroke-width: 0.8; stroke-linecap: square"/>
     </g>
     <g id="line2d_60">
      <g>
       <use xlink:href="#m41740355cd" x="58.945313" y="241.625209" style="stroke: #000000; stroke-width: 0.8"/>
      </g>
     </g>
     <g id="text_24">
      <!-- 25 -->
      <g transform="translate(30.840625 245.424428)scale(0.1 -0.1)">
       <use xlink:href="#DejaVuSans-2212"/>
       <use xlink:href="#DejaVuSans-32" x="83.789062"/>
       <use xlink:href="#DejaVuSans-35" x="147.412109"/>
      </g>
     </g>
    </g>
    <g id="ytick_11">
     <g id="line2d_61">
      <path d="M 58.945313 219.343631 
L 450 219.343631 
" clip-path="url(#p24c0503fef)" style="fill: none; stroke: #b0b0b0; stroke-width: 0.8; stroke-linecap: square"/>
     </g>
     <g id="line2d_62">
      <g>
       <use xlink:href="#m41740355cd" x="58.945313" y="219.343631" style="stroke: #000000; stroke-width: 0.8"/>
      </g>
     </g>
     <g id="text_25">
      <!-- 0 -->
      <g transform="translate(45.582813 223.14285)scale(0.1 -0.1)">
       <use xlink:href="#DejaVuSans-30"/>
      </g>
     </g>
    </g>
    <g id="text_26">
     <!-- wall distance [mm] -->
     <g transform="translate(18.398438 305.967188)rotate(-90)scale(0.1 -0.1)">
      <defs>
       <path id="DejaVuSans-73" d="M 2834 3397 
L 2834 2853 
Q 2591 2978 2328 3040 
Q 2066 3103 1784 3103 
Q 1356 3103 1142 2972 
Q 928 2841 928 2578 
Q 928 2378 1081 2264 
Q 1234 2150 1697 2047 
L 1894 2003 
Q 2506 1872 2764 1633 
Q 3022 1394 3022 966 
Q 3022 478 2636 193 
Q 2250 -91 1575 -91 
Q 1294 -91 989 -36 
Q 684 19 347 128 
L 347 722 
Q 666 556 975 473 
Q 1284 391 1588 391 
Q 1994 391 2212 530 
Q 2431 669 2431 922 
Q 2431 1156 2273 1281 
Q 2116 1406 1581 1522 
L 1381 1569 
Q 847 1681 609 1914 
Q 372 2147 372 2553 
Q 372 3047 722 3315 
Q 1072 3584 1716 3584 
Q 2034 3584 2315 3537 
Q 2597 3491 2834 3397 
z
" transform="scale(0.015625)"/>
       <path id="DejaVuSans-5b" d="M 550 4863 
L 1875 4863 
L 1875 4416 
L 1125 4416 
L 1125 -397 
L 1875 -397 
L 1875 -844 
L 550 -844 
L 550 4863 
z
" transform="scale(0.015625)"/>
       <path id="DejaVuSans-6d" d="M 3328 2828 
Q 3544 3216 3844 3400 
Q 4144 3584 4550 3584 
Q 5097 3584 5394 3201 
Q 5691 2819 5691 2113 
L 5691 0 
L 5113 0 
L 5113 2094 
Q 5113 2597 4934 2840 
Q 4756 3084 4391 3084 
Q 3944 3084 3684 2787 
Q 3425 2491 3425 1978 
L 3425 0 
L 2847 0 
L 2847 2094 
Q 2847 2600 2669 2842 
Q 2491 3084 2119 3084 
Q 1678 3084 1418 2786 
Q 1159 2488 1159 1978 
L 1159 0 
L 581 0 
L 581 3500 
L 1159 3500 
L 1159 2956 
Q 1356 3278 1631 3431 
Q 1906 3584 2284 3584 
Q 2666 3584 2933 3390 
Q 3200 3197 3328 2828 
z
" transform="scale(0.015625)"/>
       <path id="DejaVuSans-5d" d="M 1947 4863 
L 1947 -844 
L 622 -844 
L 622 -397 
L 1369 -397 
L 1369 4416 
L 622 4416 
L 622 4863 
L 1947 4863 
z
" transform="scale(0.015625)"/>
      </defs>
      <use xlink:href="#DejaVuSans-77"/>
      <use xlink:href="#DejaVuSans-61" x="81.787109"/>
      <use xlink:href="#DejaVuSans-6c" x="143.066406"/>
      <use xlink:href="#DejaVuSans-6c" x="170.849609"/>
      <use xlink:href="#DejaVuSans-20" x="198.632812"/>
      <use xlink:href="#DejaVuSans-64" x="230.419922"/>
      <use xlink:href="#DejaVuSans-69" x="293.896484"/>
      <use xlink:href="#DejaVuSans-73" x="321.679688"/>
      <use xlink:href="#DejaVuSans-74" x="373.779297"/>
      <use xlink:href="#DejaVuSans-61" x="412.988281"/>
      <use xlink:href="#DejaVuSans-6e" x="474.267578"/>
      <use xlink:href="#DejaVuSans-63" x="537.646484"/>
      <use xlink:href="#DejaVuSans-65" x="592.626953"/>
      <use xlink:href="#DejaVuSans-20" x="654.150391"/>
      <use xlink:href="#DejaVuSans-5b" x="685.9375"/>
      <use xlink:href="#DejaVuSans-6d" x="724.951172"/>
      <use xlink:href="#DejaVuSans-6d" x="822.363281"/>
      <use xlink:href="#DejaVuSans-5d" x="919.775391"/>
     </g>
    </g>
   </g>
   <g id="line2d_63">
    <path d="M 76.720526 203.505886 
L 76.74075 203.443498 
L 76.720842 203.523711 
L 76.828954 203.461323 
L 76.991499 203.461323 
L 77.141107 203.479148 
L 77.33772 203.425673 
L 77.414746 203.532624 
L 77.497994 203.398935 
L 77.683942 203.470236 
L 78.272894 203.505886 
L 78.414108 203.62175 
L 78.563223 203.550449 
L 79.063891 203.657401 
L 79.441121 203.728702 
L 82.454019 204.165421 
L 104.528859 204.085207 
L 107.481519 203.942605 
L 108.666533 203.853479 
L 111.036562 203.808916 
L 123.479211 203.541537 
L 127.626761 203.559362 
L 129.404282 203.603925 
L 132.366818 203.648488 
L 143.031945 204.022819 
L 144.809467 204.343674 
L 145.401974 204.566489 
L 145.994481 204.97647 
L 146.586988 205.609267 
L 147.179495 206.732259 
L 147.772002 208.185017 
L 148.364509 210.154709 
L 148.957016 212.523686 
L 150.142031 219.294826 
L 151.327045 229.09405 
L 151.919552 235.823086 
L 152.512059 244.637678 
L 153.104566 256.072584 
L 153.697073 293.978003 
L 223.563536 293.978003 
L 224.156043 265.395196 
L 224.74855 248.104692 
L 225.341057 240.671557 
L 226.526071 231.188518 
L 227.711085 224.185864 
L 228.8961 218.75112 
L 230.081114 214.115482 
L 231.266128 210.574494 
L 232.451142 207.659172 
L 233.636156 205.511228 
L 234.228664 204.922995 
L 235.413678 204.281285 
L 236.598692 204.031731 
L 239.561228 203.942605 
L 251.41137 204.040644 
L 252.596384 204.022819 
L 263.854019 204.103033 
L 268.001568 204.085207 
L 275.704161 203.987168 
L 277.481682 203.987168 
L 279.259203 204.031731 
L 281.036725 203.996081 
L 304.144502 204.236722 
L 318.364672 204.343674 
L 320.734701 204.539751 
L 321.919715 204.931907 
L 322.512222 205.306238 
L 323.104729 205.939034 
L 324.289743 208.470222 
L 324.88225 210.217097 
L 325.474757 212.562011 
L 326.067264 215.517439 
L 327.252279 223.3151 
L 327.844786 228.577117 
L 328.437293 235.181377 
L 329.0298 244.477251 
L 329.622307 262.828358 
L 330.214814 293.978003 
L 381.762932 293.978003 
L 382.355439 281.339893 
L 382.947946 271.598387 
L 383.540453 265.395196 
L 384.13296 262.08861 
L 384.725468 293.978003 
L 387.688003 293.978003 
L 388.28051 246.696496 
L 388.873017 246.892574 
L 389.465524 244.477251 
L 390.650539 242.614511 
L 391.243046 249.940694 
L 391.835553 249.459412 
L 392.42806 246.331078 
L 393.020567 244.637678 
L 393.613074 243.434473 
L 394.205581 241.482607 
L 394.798088 234.709007 
L 395.983103 232.65019 
L 396.57561 231.83914 
L 397.168117 230.805275 
L 397.760624 233.104734 
L 398.353131 231.999567 
L 398.945638 230.430944 
L 399.538145 229.29904 
L 400.723159 226.283006 
L 401.315666 222.855208 
L 401.908174 221.834712 
L 403.685695 218.012084 
L 404.278202 218.168947 
L 405.463216 215.455051 
L 406.64823 212.906038 
L 407.240737 210.779484 
L 408.425752 208.826727 
L 409.512015 207.712648 
L 410.104522 208.309794 
L 410.697029 208.523697 
L 411.289536 209.094106 
L 412.869555 212.407822 
L 413.462062 214.684108 
L 414.548325 221.242913 
L 415.042081 225.844505 
L 415.535837 236.981728 
L 416.029593 251.839084 
L 416.6221 293.978003 
L 423.33718 293.978003 
L 423.732185 278.033306 
L 424.12719 293.978003 
L 425.80596 293.978003 
L 426.102214 267.498577 
L 426.398467 273.372 
L 426.694721 262.08861 
L 426.990974 260.73389 
L 427.287228 293.978003 
L 428.570993 293.978003 
L 428.867247 252.445143 
L 429.064749 252.445143 
L 429.459754 248.987042 
L 429.657256 293.978003 
L 430.546017 293.978003 
L 430.644768 246.143913 
L 430.743519 249.218771 
L 431.039773 246.143913 
L 431.237275 293.978003 
L 431.63228 293.978003 
L 431.63228 244.325736 
L 431.731031 244.325736 
L 431.829782 243.015579 
L 432.027285 293.978003 
L 432.027285 293.978003 
L 432.126036 293.978003 
L 432.224787 238.630565 
L 432.224787 239.815945 
" clip-path="url(#p24c0503fef)" style="fill: none; stroke: #1f77b4; stroke-width: 1.5; stroke-linecap: square"/>
   </g>
   <g id="line2d_64">
    <path d="M 76.720526 312.213246 
L 341.472449 312.213246 
L 342.064956 299.55731 
L 342.657463 299.55731 
L 343.24997 285.715994 
L 343.842478 293.683886 
L 344.434985 286.928112 
L 345.027492 304.227529 
L 345.619999 312.213246 
L 347.990027 312.213246 
L 348.582534 289.815805 
L 349.175041 280.306027 
L 349.767549 281.847913 
L 350.360056 280.306027 
L 350.952563 280.306027 
L 351.54507 279.610842 
L 352.137577 312.213246 
L 355.100112 312.213246 
L 355.69262 279.610842 
L 356.285127 278.336336 
L 356.877634 278.336336 
L 358.062648 279.610842 
L 358.655155 277.748102 
L 359.247662 312.213246 
L 361.617691 312.213246 
L 362.210198 278.336336 
L 362.802705 277.186607 
L 363.395212 278.336336 
L 363.987719 278.951307 
L 364.580226 276.651849 
L 365.172733 278.951307 
L 365.76524 312.213246 
L 368.135269 312.213246 
L 368.727776 277.748102 
L 369.91279 274.72672 
L 370.505297 274.72672 
L 371.097804 274.290001 
L 371.690311 272.338135 
L 372.282818 312.213246 
L 374.652847 312.213246 
L 375.245354 271.98163 
L 375.837861 269.486093 
L 376.430368 269.209802 
L 377.022875 270.983415 
L 377.615382 268.942423 
L 378.207889 270.983415 
L 378.800397 312.213246 
L 381.170425 312.213246 
L 381.762932 265.306069 
L 382.355439 266.322109 
L 382.947946 263.666145 
L 383.540453 263.336378 
L 384.13296 263.175951 
L 384.725468 262.240124 
L 385.317975 312.213246 
L 387.688003 312.213246 
L 388.28051 260.831929 
L 388.873017 259.352432 
L 389.465524 259.58416 
L 390.058031 258.247266 
L 390.650539 258.033363 
L 391.243046 296.250724 
L 391.835553 312.213246 
L 393.613074 312.213246 
L 394.798088 255.038719 
L 395.983103 254.646563 
L 396.57561 253.826601 
L 397.168117 253.202717 
L 397.760624 269.209802 
L 398.353131 273.470039 
L 398.945638 270.359531 
L 399.538145 268.167024 
L 400.723159 266.322109 
L 401.315666 250.591316 
L 401.908174 250.118946 
L 402.500681 249.905043 
L 403.685695 249.067256 
L 404.278202 260.965618 
L 405.463216 258.897888 
L 406.055723 258.452256 
L 406.64823 257.730333 
L 407.240737 246.794535 
L 407.833245 246.446942 
L 408.425752 245.894359 
L 409.018259 245.751757 
L 409.512015 245.297213 
L 410.104522 253.897902 
L 410.697029 252.730347 
L 411.289536 252.409492 
L 411.783292 251.55388 
L 412.375799 250.814131 
L 412.869555 243.291871 
L 413.462062 243.006667 
L 414.548325 242.168879 
L 415.042081 241.990627 
L 415.535837 248.202731 
L 416.029593 247.730361 
L 416.6221 246.910399 
L 417.115856 246.714321 
L 417.609612 245.93001 
L 418.103368 239.994197 
L 418.597124 239.673343 
L 418.992128 239.200973 
L 419.485884 238.978158 
L 419.97964 238.496875 
L 420.374645 243.380997 
L 420.868401 242.926453 
L 421.263406 242.40952 
L 421.757161 242.168879 
L 422.152166 241.705423 
L 422.547171 236.874777 
L 422.942176 236.464796 
L 423.732185 235.974601 
L 424.12719 235.60027 
L 424.423443 239.316838 
L 424.818448 238.978158 
L 425.114702 238.550351 
L 425.509706 238.416662 
L 425.80596 237.997768 
L 426.102214 234.129686 
L 426.990974 233.354287 
L 427.287228 232.908656 
L 427.583481 235.787436 
L 428.570993 234.432716 
L 428.867247 231.723276 
L 429.262251 230.662673 
L 429.657256 230.190303 
L 429.854759 232.605626 
L 430.052261 232.418461 
L 430.151012 231.892616 
L 430.546017 231.473722 
L 430.743519 228.701894 
L 430.941022 228.630593 
L 431.138524 228.01473 
L 431.237275 229.922924 
L 431.336026 229.691196 
L 431.63228 229.067312 
L 431.731031 226.658228 
L 431.928533 226.026322 
L 432.027285 227.706353 
L 432.027285 227.107424 
L 432.126036 226.835589 
L 432.224787 223.07535 
L 432.224787 223.681409 
" clip-path="url(#p24c0503fef)" style="fill: none; stroke: #ff7f0e; stroke-width: 1.5; stroke-linecap: square"/>
   </g>
   <g id="line2d_65">
    <path d="M 76.720526 312.658878 
L 377.022875 312.658878 
L 377.615382 300.011854 
L 378.207889 312.658878 
L 381.170425 312.658878 
L 381.762932 272.792679 
L 382.355439 273.532428 
L 382.947946 270.814075 
L 383.540453 270.814075 
L 384.13296 269.664346 
L 384.725468 312.658878 
L 387.688003 312.658878 
L 388.28051 263.95135 
L 388.873017 263.621582 
L 389.465524 262.997698 
L 390.058031 263.621582 
L 390.650539 261.963833 
L 391.243046 312.658878 
L 394.205581 312.658878 
L 394.798088 256.847983 
L 395.390595 257.302527 
L 395.983103 256.402351 
L 396.57561 256.847983 
L 397.168117 255.493263 
L 397.760624 282.293544 
L 398.353131 276.58946 
L 398.945638 273.532428 
L 399.538145 271.117105 
L 400.723159 269.388054 
L 401.315666 253.514659 
L 401.908174 251.883647 
L 402.500681 251.830171 
L 403.093188 251.259763 
L 403.685695 251.259763 
L 404.278202 262.543154 
L 404.870709 262.694669 
L 405.463216 260.894317 
L 406.055723 260.894317 
L 406.64823 258.692897 
L 407.240737 248.871178 
L 407.833245 248.175993 
L 408.425752 248.051216 
L 409.018259 247.168865 
L 409.512015 252.186677 
L 410.104522 254.423747 
L 410.697029 254.138543 
L 411.289536 253.051202 
L 411.783292 252.427318 
L 412.375799 251.946036 
L 412.869555 245.020921 
L 413.462062 244.361387 
L 413.955818 244.423775 
L 414.548325 243.746415 
L 415.042081 248.479022 
L 415.535837 249.619839 
L 416.029593 248.612712 
L 416.6221 247.881876 
L 417.115856 247.676885 
L 417.609612 246.901486 
L 418.103368 241.625209 
L 418.597124 240.930024 
L 418.992128 241.108276 
L 419.485884 239.994197 
L 419.97964 244.183134 
L 420.374645 243.862279 
L 420.868401 243.746415 
L 421.263406 242.935366 
L 421.757161 242.774938 
L 422.152166 242.088666 
L 422.547171 238.051244 
L 422.942176 237.454098 
L 423.33718 237.356059 
L 423.732185 236.776738 
L 424.12719 239.869421 
L 424.423443 239.486177 
L 424.818448 239.432702 
L 425.114702 238.719691 
L 425.509706 238.701866 
L 425.80596 237.93538 
L 426.102214 234.949648 
L 426.398467 234.343589 
L 426.694721 234.450541 
L 426.990974 233.817744 
L 427.287228 236.286543 
L 427.879735 235.332891 
L 428.077237 235.279416 
L 428.570993 234.290114 
L 428.867247 231.919354 
L 429.064749 231.29547 
L 429.262251 231.411334 
L 429.459754 230.796362 
L 429.657256 232.828442 
L 430.052261 232.00848 
L 430.151012 232.115432 
L 430.546017 231.241994 
L 430.743519 228.799933 
L 431.039773 228.630593 
L 431.237275 229.914012 
L 431.434777 229.120788 
L 431.533529 229.209914 
L 431.63228 228.630593 
L 431.731031 226.541472 
L 431.829782 226.709921 
L 431.829782 226.154664 
L 431.928533 227.599402 
L 431.928533 227.115446 
L 432.027285 227.176943 
L 432.027285 227.081578 
L 432.126036 224.417592 
L 432.126036 224.546825 
L 432.224787 225.529889 
L 432.224787 224.660907 
L 432.224787 222.764299 
L 432.224787 223.5905 
" clip-path="url(#p24c0503fef)" style="fill: none; stroke: #2ca02c; stroke-width: 1.5; stroke-linecap: square"/>
   </g>
   <g id="line2d_66">
    <path d="M 76.720526 235.386367 
L 76.788782 235.145726 
L 76.773101 236.500446 
L 76.828954 236.322193 
L 76.88228 236.322193 
L 77.036529 235.145726 
L 77.0863 236.322193 
L 77.141107 235.805261 
L 77.201148 236.322193 
L 77.26662 235.386367 
L 77.33772 235.635921 
L 77.414746 235.306154 
L 77.497994 235.555707 
L 77.787038 235.145726 
L 77.89764 235.065513 
L 78.13958 235.885475 
L 78.272894 235.145726 
L 78.414108 235.716135 
L 78.721225 234.913998 
L 79.063891 235.466581 
L 79.441121 234.673357 
L 79.643561 235.065513 
L 79.854888 234.673357 
L 80.074116 235.065513 
L 80.541209 234.299026 
L 80.788087 234.673357 
L 81.042865 234.07621 
L 81.307518 234.673357 
L 81.581059 234.75357 
L 81.863487 235.145726 
L 82.153816 234.673357 
L 82.454019 234.602056 
L 82.76311 234.299026 
L 83.081089 234.370327 
L 83.406968 233.719705 
L 83.742722 233.862307 
L 84.087364 234.673357 
L 84.440893 233.862307 
L 84.802322 234.156424 
L 85.173627 234.156424 
L 85.553819 234.75357 
L 85.942899 234.299026 
L 86.339878 234.673357 
L 86.743771 234.07621 
L 87.158526 234.07621 
L 87.583156 234.833784 
L 88.017661 233.862307 
L 88.916297 234.521842 
L 89.370552 233.862307 
L 89.834683 233.862307 
L 90.308688 234.07621 
L 90.792569 234.450541 
L 91.27645 235.065513 
L 91.770206 233.933608 
L 92.787343 234.602056 
L 93.814355 234.521842 
L 94.347612 234.370327 
L 95.414125 234.450541 
L 95.957256 234.004909 
L 96.500388 234.299026 
L 97.053394 234.985299 
L 97.606401 234.07621 
L 98.169283 234.156424 
L 98.732164 234.370327 
L 99.295046 234.299026 
L 99.867803 234.602056 
L 100.44056 235.555707 
L 101.023192 234.370327 
L 101.595949 235.22594 
L 102.178581 235.065513 
L 102.761213 236.063727 
L 103.343845 235.466581 
L 103.936352 235.386367 
L 104.528859 235.145726 
L 105.111491 235.635921 
L 105.703998 235.22594 
L 106.296505 235.885475 
L 106.889012 234.913998 
L 107.481519 235.716135 
L 108.074026 236.322193 
L 109.259041 235.386367 
L 109.851548 235.974601 
L 110.444055 235.974601 
L 111.036562 235.716135 
L 111.629069 236.143941 
L 112.221576 235.974601 
L 112.814083 236.233067 
L 113.999097 236.500446 
L 114.591605 236.322193 
L 115.184112 235.145726 
L 116.369126 236.063727 
L 116.961633 236.41132 
L 117.55414 235.555707 
L 118.146647 236.41132 
L 119.331661 236.500446 
L 119.924168 236.063727 
L 120.516676 235.974601 
L 121.109183 237.338233 
L 121.70169 235.974601 
L 122.294197 236.41132 
L 123.479211 236.500446 
L 124.071718 236.963903 
L 125.256732 237.151068 
L 125.849239 237.053029 
L 126.441747 237.534311 
L 127.034254 237.436272 
L 127.626761 237.93538 
L 128.219268 238.666215 
L 128.811775 239.575304 
L 129.404282 239.931809 
L 129.996789 240.047673 
L 130.589296 240.555693 
L 131.181803 243.282958 
L 131.77431 243.443386 
L 132.366818 244.477251 
L 132.959325 246.215214 
L 133.551832 247.079739 
L 134.144339 250.172422 
L 134.736846 250.466539 
L 135.329353 251.749958 
L 135.92186 259.71785 
L 136.514367 261.95492 
L 137.106874 292.302429 
L 218.823479 292.302429 
L 219.415986 273.790894 
L 220.008493 260.413035 
L 220.601 254.397009 
L 221.193507 257.284702 
L 221.786014 250.466539 
L 222.971029 245.609155 
L 223.563536 245.404164 
L 224.156043 241.910413 
L 224.74855 241.910413 
L 225.341057 241.625209 
L 225.933564 240.047673 
L 226.526071 239.931809 
L 227.118578 238.666215 
L 228.303593 238.033419 
L 228.8961 237.837341 
L 229.488607 237.338233 
L 230.081114 237.534311 
L 230.673621 237.534311 
L 231.266128 237.053029 
L 231.858635 237.436272 
L 232.451142 236.678699 
L 233.043649 237.730389 
L 233.636156 237.338233 
L 234.228664 236.233067 
L 235.413678 236.500446 
L 236.598692 236.500446 
L 237.191199 236.963903 
L 237.783706 237.837341 
L 238.376213 236.963903 
L 238.96872 236.776738 
L 239.561228 237.436272 
L 240.153735 236.589572 
L 240.746242 237.436272 
L 241.338749 236.963903 
L 241.931256 237.338233 
L 242.523763 236.500446 
L 243.11627 237.338233 
L 243.708777 236.500446 
L 244.893791 236.500446 
L 245.486299 236.963903 
L 246.078806 236.500446 
L 246.671313 236.678699 
L 247.26382 236.500446 
L 247.856327 236.776738 
L 248.448834 236.500446 
L 249.041341 236.063727 
L 249.633848 236.963903 
L 250.226355 236.865864 
L 250.818862 236.322193 
L 251.41137 236.233067 
L 252.003877 235.974601 
L 252.596384 236.500446 
L 253.188891 235.386367 
L 253.781398 235.145726 
L 254.966412 235.145726 
L 255.558919 235.555707 
L 256.151426 235.145726 
L 256.743933 235.145726 
L 257.336441 235.716135 
L 257.928948 235.555707 
L 258.521455 236.322193 
L 259.113962 235.974601 
L 259.706469 236.063727 
L 260.298976 236.41132 
L 260.891483 235.635921 
L 261.48399 235.466581 
L 262.076497 235.065513 
L 262.669004 235.974601 
L 263.261512 236.143941 
L 263.854019 235.805261 
L 264.446526 235.065513 
L 265.039033 235.885475 
L 265.63154 235.974601 
L 266.224047 235.635921 
L 266.816554 235.145726 
L 267.409061 236.500446 
L 268.001568 235.974601 
L 268.594076 236.500446 
L 269.186583 236.500446 
L 269.77909 235.974601 
L 270.371597 236.143941 
L 270.964104 235.145726 
L 271.556611 235.22594 
L 272.149118 236.233067 
L 272.741625 235.145726 
L 273.334132 235.974601 
L 273.926639 235.805261 
L 274.519147 235.145726 
L 275.111654 235.974601 
L 275.704161 235.386367 
L 276.296668 235.974601 
L 276.889175 236.865864 
L 278.666696 236.41132 
L 279.259203 236.322193 
L 279.85171 235.145726 
L 280.444218 236.500446 
L 281.036725 235.974601 
L 281.629232 235.145726 
L 282.221739 235.716135 
L 282.814246 235.885475 
L 283.406753 235.145726 
L 283.99926 236.063727 
L 284.591767 235.974601 
L 285.184274 236.233067 
L 285.776781 236.063727 
L 286.369289 236.500446 
L 286.961796 236.41132 
L 287.554303 236.500446 
L 288.14681 235.145726 
L 288.739317 235.885475 
L 289.331824 235.145726 
L 289.924331 235.635921 
L 291.109345 235.555707 
L 291.701853 234.985299 
L 292.29436 235.555707 
L 292.886867 235.555707 
L 293.479374 236.063727 
L 294.071881 235.974601 
L 294.664388 236.143941 
L 295.849402 235.716135 
L 296.441909 234.833784 
L 297.034416 235.885475 
L 298.219431 235.386367 
L 298.811938 234.913998 
L 299.404445 235.386367 
L 299.996952 235.555707 
L 300.589459 236.41132 
L 301.181966 236.865864 
L 301.774473 236.500446 
L 302.36698 237.151068 
L 303.551995 236.678699 
L 304.737009 236.063727 
L 305.922023 237.730389 
L 306.51453 238.033419 
L 307.107037 237.534311 
L 307.699544 239.111847 
L 308.292051 238.995983 
L 308.884558 241.910413 
L 309.477066 242.962104 
L 310.66208 245.404164 
L 311.254587 247.783837 
L 311.847094 246.64302 
L 312.439601 248.274032 
L 314.217122 260.413035 
L 314.809629 292.302429 
L 394.205581 292.302429 
L 394.798088 255.27936 
L 395.390595 259.058315 
L 395.983103 253.184891 
L 396.57561 249.878305 
L 397.168117 251.749958 
L 397.760624 292.302429 
L 400.723159 292.302429 
L 401.315666 252.445143 
L 401.908174 253.577047 
L 402.500681 251.749958 
L 403.093188 258.443344 
L 403.685695 259.058315 
L 404.278202 292.302429 
L 425.80596 292.302429 
L 426.102214 265.823002 
L 426.398467 261.161696 
L 426.694721 260.413035 
L 426.990974 273.790894 
L 427.287228 260.413035 
L 427.583481 292.302429 
L 428.570993 292.302429 
L 428.867247 249.593101 
L 429.064749 250.172422 
L 429.262251 247.783837 
L 429.657256 251.411278 
L 429.854759 292.302429 
L 430.546017 292.302429 
L 430.743519 244.120746 
L 430.941022 243.942493 
L 431.039773 244.655503 
L 431.138524 244.477251 
L 431.336026 292.302429 
L 431.63228 292.302429 
L 431.731031 241.625209 
L 431.829782 241.910413 
L 431.928533 240.938936 
L 431.928533 292.302429 
L 432.027285 292.302429 
L 432.126036 292.302429 
L 432.224787 235.386367 
L 432.224787 236.500446 
" clip-path="url(#p24c0503fef)" style="fill: none; stroke: #d62728; stroke-width: 1.5; stroke-linecap: square"/>
   </g>
   <g id="patch_9">
    <path d="M 58.945313 318.121875 
L 58.945313 197.935937 
" style="fill: none; stroke: #000000; stroke-width: 0.8; stroke-linejoin: miter; stroke-linecap: square"/>
   </g>
   <g id="patch_10">
    <path d="M 450 318.121875 
L 450 197.935937 
" style="fill: none; stroke: #000000; stroke-width: 0.8; stroke-linejoin: miter; stroke-linecap: square"/>
   </g>
   <g id="patch_11">
    <path d="M 58.945313 318.121875 
L 450 318.121875 
" style="fill: none; stroke: #000000; stroke-width: 0.8; stroke-linejoin: miter; stroke-linecap: square"/>
   </g>
   <g id="patch_12">
    <path d="M 58.945313 197.935938 
L 450 197.935938 
" style="fill: none; stroke: #000000; stroke-width: 0.8; stroke-linejoin: miter; stroke-linecap: square"/>
   </g>
   <g id="text_27">
    <!-- Wall Distance [mm] -->
    <g transform="translate(195.492656 191.935938)scale(0.12 -0.12)">
     <defs>
      <path id="DejaVuSans-57" d="M 213 4666 
L 850 4666 
L 1831 722 
L 2809 4666 
L 3519 4666 
L 4500 722 
L 5478 4666 
L 6119 4666 
L 4947 0 
L 4153 0 
L 3169 4050 
L 2175 0 
L 1381 0 
L 213 4666 
z
" transform="scale(0.015625)"/>
      <path id="DejaVuSans-44" d="M 1259 4147 
L 1259 519 
L 2022 519 
Q 2988 519 3436 956 
Q 3884 1394 3884 2338 
Q 3884 3275 3436 3711 
Q 2988 4147 2022 4147 
L 1259 4147 
z
M 628 4666 
L 1925 4666 
Q 3281 4666 3915 4102 
Q 4550 3538 4550 2338 
Q 4550 1131 3912 565 
Q 3275 0 1925 0 
L 628 0 
L 628 4666 
z
" transform="scale(0.015625)"/>
     </defs>
     <use xlink:href="#DejaVuSans-57"/>
     <use xlink:href="#DejaVuSans-61" x="92.501953"/>
     <use xlink:href="#DejaVuSans-6c" x="153.78125"/>
     <use xlink:href="#DejaVuSans-6c" x="181.564453"/>
     <use xlink:href="#DejaVuSans-20" x="209.347656"/>
     <use xlink:href="#DejaVuSans-44" x="241.134766"/>
     <use xlink:href="#DejaVuSans-69" x="318.136719"/>
     <use xlink:href="#DejaVuSans-73" x="345.919922"/>
     <use xlink:href="#DejaVuSans-74" x="398.019531"/>
     <use xlink:href="#DejaVuSans-61" x="437.228516"/>
     <use xlink:href="#DejaVuSans-6e" x="498.507812"/>
     <use xlink:href="#DejaVuSans-63" x="561.886719"/>
     <use xlink:href="#DejaVuSans-65" x="616.867188"/>
     <use xlink:href="#DejaVuSans-20" x="678.390625"/>
     <use xlink:href="#DejaVuSans-5b" x="710.177734"/>
     <use xlink:href="#DejaVuSans-6d" x="749.191406"/>
     <use xlink:href="#DejaVuSans-6d" x="846.603516"/>
     <use xlink:href="#DejaVuSans-5d" x="944.015625"/>
    </g>
   </g>
   <g id="legend_2">
    <g id="patch_13">
     <path d="M 220.764844 288.885156 
L 288.180469 288.885156 
Q 290.180469 288.885156 290.180469 286.885156 
L 290.180469 229.172656 
Q 290.180469 227.172656 288.180469 227.172656 
L 220.764844 227.172656 
Q 218.764844 227.172656 218.764844 229.172656 
L 218.764844 286.885156 
Q 218.764844 288.885156 220.764844 288.885156 
z
" style="fill: #ffffff; opacity: 0.8; stroke: #cccccc; stroke-linejoin: miter"/>
    </g>
    <g id="line2d_67">
     <path d="M 222.764844 235.271094 
L 232.764844 235.271094 
L 242.764844 235.271094 
" style="fill: none; stroke: #1f77b4; stroke-width: 1.5; stroke-linecap: square"/>
    </g>
    <g id="text_28">
     <!-- L Side -->
     <g transform="translate(250.764844 238.771094)scale(0.1 -0.1)">
      <use xlink:href="#DejaVuSans-4c"/>
      <use xlink:href="#DejaVuSans-20" x="55.712891"/>
      <use xlink:href="#DejaVuSans-53" x="87.5"/>
      <use xlink:href="#DejaVuSans-69" x="150.976562"/>
      <use xlink:href="#DejaVuSans-64" x="178.759766"/>
      <use xlink:href="#DejaVuSans-65" x="242.236328"/>
     </g>
    </g>
    <g id="line2d_68">
     <path d="M 222.764844 249.949219 
L 232.764844 249.949219 
L 242.764844 249.949219 
" style="fill: none; stroke: #ff7f0e; stroke-width: 1.5; stroke-linecap: square"/>
    </g>
    <g id="text_29">
     <!-- L Front -->
     <g transform="translate(250.764844 253.449219)scale(0.1 -0.1)">
      <use xlink:href="#DejaVuSans-4c"/>
      <use xlink:href="#DejaVuSans-20" x="55.712891"/>
      <use xlink:href="#DejaVuSans-46" x="87.5"/>
      <use xlink:href="#DejaVuSans-72" x="137.769531"/>
      <use xlink:href="#DejaVuSans-6f" x="176.632812"/>
      <use xlink:href="#DejaVuSans-6e" x="237.814453"/>
      <use xlink:href="#DejaVuSans-74" x="301.193359"/>
     </g>
    </g>
    <g id="line2d_69">
     <path d="M 222.764844 264.627344 
L 232.764844 264.627344 
L 242.764844 264.627344 
" style="fill: none; stroke: #2ca02c; stroke-width: 1.5; stroke-linecap: square"/>
    </g>
    <g id="text_30">
     <!-- R Front -->
     <g transform="translate(250.764844 268.127344)scale(0.1 -0.1)">
      <use xlink:href="#DejaVuSans-52"/>
      <use xlink:href="#DejaVuSans-20" x="69.482422"/>
      <use xlink:href="#DejaVuSans-46" x="101.269531"/>
      <use xlink:href="#DejaVuSans-72" x="151.539062"/>
      <use xlink:href="#DejaVuSans-6f" x="190.402344"/>
      <use xlink:href="#DejaVuSans-6e" x="251.583984"/>
      <use xlink:href="#DejaVuSans-74" x="314.962891"/>
     </g>
    </g>
    <g id="line2d_70">
     <path d="M 222.764844 279.305469 
L 232.764844 279.305469 
L 242.764844 279.305469 
" style="fill: none; stroke: #d62728; stroke-width: 1.5; stroke-linecap: square"/>
    </g>
    <g id="text_31">
     <!-- R Side -->
     <g transform="translate(250.764844 282.805469)scale(0.1 -0.1)">
      <use xlink:href="#DejaVuSans-52"/>
      <use xlink:href="#DejaVuSans-20" x="69.482422"/>
      <use xlink:href="#DejaVuSans-53" x="101.269531"/>
      <use xlink:href="#DejaVuSans-69" x="164.746094"/>
      <use xlink:href="#DejaVuSans-64" x="192.529297"/>
      <use xlink:href="#DejaVuSans-65" x="256.005859"/>
     </g>
    </g>
   </g>
  </g>
  <g id="text_32">
   <!-- Reflector raw and distance -->
   <g transform="translate(150.065625 16.030125)scale(0.12 -0.12)">
    <use xlink:href="#DejaVuSans-52"/>
    <use xlink:href="#DejaVuSans-65" x="64.982422"/>
    <use xlink:href="#DejaVuSans-66" x="126.505859"/>
    <use xlink:href="#DejaVuSans-6c" x="161.710938"/>
    <use xlink:href="#DejaVuSans-65" x="189.494141"/>
    <use xlink:href="#DejaVuSans-63" x="251.017578"/>
    <use xlink:href="#DejaVuSans-74" x="305.998047"/>
    <use xlink:href="#DejaVuSans-6f" x="345.207031"/>
    <use xlink:href="#DejaVuSans-72" x="406.388672"/>
    <use xlink:href="#DejaVuSans-20" x="447.501953"/>
    <use xlink:href="#DejaVuSans-72" x="479.289062"/>
    <use xlink:href="#DejaVuSans-61" x="520.402344"/>
    <use xlink:href="#DejaVuSans-77" x="581.681641"/>
    <use xlink:href="#DejaVuSans-20" x="663.46875"/>
    <use xlink:href="#DejaVuSans-61" x="695.255859"/>
    <use xlink:href="#DejaVuSans-6e" x="756.535156"/>
    <use xlink:href="#DejaVuSans-64" x="819.914062"/>
    <use xlink:href="#DejaVuSans-20" x="883.390625"/>
    <use xlink:href="#DejaVuSans-64" x="915.177734"/>
    <use xlink:href="#DejaVuSans-69" x="978.654297"/>
    <use xlink:href="#DejaVuSans-73" x="1006.4375"/>
    <use xlink:href="#DejaVuSans-74" x="1058.537109"/>
    <use xlink:href="#DejaVuSans-61" x="1097.746094"/>
    <use xlink:href="#DejaVuSans-6e" x="1159.025391"/>
    <use xlink:href="#DejaVuSans-63" x="1222.404297"/>
    <use xlink:href="#DejaVuSans-65" x="1277.384766"/>
   </g>
  </g>
 </g>
 <defs>
  <clipPath id="pb020ae489e">
   <rect x="58.945313" y="48.331875" width="391.054687" height="120.185937"/>
  </clipPath>
  <clipPath id="p24c0503fef">
   <rect x="58.945313" y="197.935938" width="391.054687" height="120.185937"/>
  </clipPath>
 </defs>
</svg>
