<?xml version="1.0" encoding="utf-8" standalone="no"?>
<!DOCTYPE svg PUBLIC "-//W3C//DTD SVG 1.1//EN"
  "http://www.w3.org/Graphics/SVG/1.1/DTD/svg11.dtd">
<svg xmlns:xlink="http://www.w3.org/1999/xlink" width="460.8pt" height="345.6pt" viewBox="0 0 460.8 345.6" xmlns="http://www.w3.org/2000/svg" version="1.1">
 <metadata>
  <rdf:RDF xmlns:dc="http://purl.org/dc/elements/1.1/" xmlns:cc="http://creativecommons.org/ns#" xmlns:rdf="http://www.w3.org/1999/02/22-rdf-syntax-ns#">
   <cc:Work>
    <dc:type rdf:resource="http://purl.org/dc/dcmitype/StillImage"/>
    <dc:date>2022-01-16T03:24:26.138773</dc:date>
    <dc:format>image/svg+xml</dc:format>
    <dc:creator>
     <cc:Agent>
      <dc:title>Matplotlib v3.5.1, https://matplotlib.org/</dc:title>
     </cc:Agent>
    </dc:creator>
   </cc:Work>
  </rdf:RDF>
 </metadata>
 <defs>
  <style type="text/css">*{stroke-linejoin: round; stroke-linecap: butt}</style>
 </defs>
 <g id="figure_1">
  <g id="patch_1">
   <path d="M 0 345.6 
L 460.8 345.6 
L 460.8 0 
L 0 0 
z
" style="fill: #ffffff"/>
  </g>
  <g id="axes_1">
   <g id="patch_2">
    <path d="M 56.928125 161.67875 
L 450 161.67875 
L 450 48.331875 
L 56.928125 48.331875 
z
" style="fill: #ffffff"/>
   </g>
   <g id="matplotlib.axis_1">
    <g id="xtick_1">
     <g id="line2d_1">
      <path d="M 74.795028 161.67875 
L 74.795028 48.331875 
" clip-path="url(#p3190221870)" style="fill: none; stroke: #b0b0b0; stroke-width: 0.8; stroke-linecap: square"/>
     </g>
     <g id="line2d_2">
      <defs>
       <path id="mebd7c86776" d="M 0 0 
L 0 3.5 
" style="stroke: #000000; stroke-width: 0.8"/>
      </defs>
      <g>
       <use xlink:href="#mebd7c86776" x="74.795028" y="161.67875" style="stroke: #000000; stroke-width: 0.8"/>
      </g>
     </g>
    </g>
    <g id="xtick_2">
     <g id="line2d_3">
      <path d="M 154.203488 161.67875 
L 154.203488 48.331875 
" clip-path="url(#p3190221870)" style="fill: none; stroke: #b0b0b0; stroke-width: 0.8; stroke-linecap: square"/>
     </g>
     <g id="line2d_4">
      <g>
       <use xlink:href="#mebd7c86776" x="154.203488" y="161.67875" style="stroke: #000000; stroke-width: 0.8"/>
      </g>
     </g>
    </g>
    <g id="xtick_3">
     <g id="line2d_5">
      <path d="M 233.611948 161.67875 
L 233.611948 48.331875 
" clip-path="url(#p3190221870)" style="fill: none; stroke: #b0b0b0; stroke-width: 0.8; stroke-linecap: square"/>
     </g>
     <g id="line2d_6">
      <g>
       <use xlink:href="#mebd7c86776" x="233.611948" y="161.67875" style="stroke: #000000; stroke-width: 0.8"/>
      </g>
     </g>
    </g>
    <g id="xtick_4">
     <g id="line2d_7">
      <path d="M 313.020407 161.67875 
L 313.020407 48.331875 
" clip-path="url(#p3190221870)" style="fill: none; stroke: #b0b0b0; stroke-width: 0.8; stroke-linecap: square"/>
     </g>
     <g id="line2d_8">
      <g>
       <use xlink:href="#mebd7c86776" x="313.020407" y="161.67875" style="stroke: #000000; stroke-width: 0.8"/>
      </g>
     </g>
    </g>
    <g id="xtick_5">
     <g id="line2d_9">
      <path d="M 392.428867 161.67875 
L 392.428867 48.331875 
" clip-path="url(#p3190221870)" style="fill: none; stroke: #b0b0b0; stroke-width: 0.8; stroke-linecap: square"/>
     </g>
     <g id="line2d_10">
      <g>
       <use xlink:href="#mebd7c86776" x="392.428867" y="161.67875" style="stroke: #000000; stroke-width: 0.8"/>
      </g>
     </g>
    </g>
   </g>
   <g id="matplotlib.axis_2">
    <g id="ytick_1">
     <g id="line2d_11">
      <path d="M 56.928125 156.556077 
L 450 156.556077 
" clip-path="url(#p3190221870)" style="fill: none; stroke: #b0b0b0; stroke-width: 0.8; stroke-linecap: square"/>
     </g>
     <g id="line2d_12">
      <defs>
       <path id="m54dc9e1e85" d="M 0 0 
L -3.5 0 
" style="stroke: #000000; stroke-width: 0.8"/>
      </defs>
      <g>
       <use xlink:href="#m54dc9e1e85" x="56.928125" y="156.556077" style="stroke: #000000; stroke-width: 0.8"/>
      </g>
     </g>
     <g id="text_1">
      <!-- 0 -->
      <g transform="translate(43.565625 160.355296)scale(0.1 -0.1)">
       <defs>
        <path id="DejaVuSans-30" d="M 2034 4250 
Q 1547 4250 1301 3770 
Q 1056 3291 1056 2328 
Q 1056 1369 1301 889 
Q 1547 409 2034 409 
Q 2525 409 2770 889 
Q 3016 1369 3016 2328 
Q 3016 3291 2770 3770 
Q 2525 4250 2034 4250 
z
M 2034 4750 
Q 2819 4750 3233 4129 
Q 3647 3509 3647 2328 
Q 3647 1150 3233 529 
Q 2819 -91 2034 -91 
Q 1250 -91 836 529 
Q 422 1150 422 2328 
Q 422 3509 836 4129 
Q 1250 4750 2034 4750 
z
" transform="scale(0.015625)"/>
       </defs>
       <use xlink:href="#DejaVuSans-30"/>
      </g>
     </g>
    </g>
    <g id="ytick_2">
     <g id="line2d_13">
      <path d="M 56.928125 127.098497 
L 450 127.098497 
" clip-path="url(#p3190221870)" style="fill: none; stroke: #b0b0b0; stroke-width: 0.8; stroke-linecap: square"/>
     </g>
     <g id="line2d_14">
      <g>
       <use xlink:href="#m54dc9e1e85" x="56.928125" y="127.098497" style="stroke: #000000; stroke-width: 0.8"/>
      </g>
     </g>
     <g id="text_2">
      <!-- 1000 -->
      <g transform="translate(24.478125 130.897716)scale(0.1 -0.1)">
       <defs>
        <path id="DejaVuSans-31" d="M 794 531 
L 1825 531 
L 1825 4091 
L 703 3866 
L 703 4441 
L 1819 4666 
L 2450 4666 
L 2450 531 
L 3481 531 
L 3481 0 
L 794 0 
L 794 531 
z
" transform="scale(0.015625)"/>
       </defs>
       <use xlink:href="#DejaVuSans-31"/>
       <use xlink:href="#DejaVuSans-30" x="63.623047"/>
       <use xlink:href="#DejaVuSans-30" x="127.246094"/>
       <use xlink:href="#DejaVuSans-30" x="190.869141"/>
      </g>
     </g>
    </g>
    <g id="ytick_3">
     <g id="line2d_15">
      <path d="M 56.928125 97.640918 
L 450 97.640918 
" clip-path="url(#p3190221870)" style="fill: none; stroke: #b0b0b0; stroke-width: 0.8; stroke-linecap: square"/>
     </g>
     <g id="line2d_16">
      <g>
       <use xlink:href="#m54dc9e1e85" x="56.928125" y="97.640918" style="stroke: #000000; stroke-width: 0.8"/>
      </g>
     </g>
     <g id="text_3">
      <!-- 2000 -->
      <g transform="translate(24.478125 101.440136)scale(0.1 -0.1)">
       <defs>
        <path id="DejaVuSans-32" d="M 1228 531 
L 3431 531 
L 3431 0 
L 469 0 
L 469 531 
Q 828 903 1448 1529 
Q 2069 2156 2228 2338 
Q 2531 2678 2651 2914 
Q 2772 3150 2772 3378 
Q 2772 3750 2511 3984 
Q 2250 4219 1831 4219 
Q 1534 4219 1204 4116 
Q 875 4013 500 3803 
L 500 4441 
Q 881 4594 1212 4672 
Q 1544 4750 1819 4750 
Q 2544 4750 2975 4387 
Q 3406 4025 3406 3419 
Q 3406 3131 3298 2873 
Q 3191 2616 2906 2266 
Q 2828 2175 2409 1742 
Q 1991 1309 1228 531 
z
" transform="scale(0.015625)"/>
       </defs>
       <use xlink:href="#DejaVuSans-32"/>
       <use xlink:href="#DejaVuSans-30" x="63.623047"/>
       <use xlink:href="#DejaVuSans-30" x="127.246094"/>
       <use xlink:href="#DejaVuSans-30" x="190.869141"/>
      </g>
     </g>
    </g>
    <g id="ytick_4">
     <g id="line2d_17">
      <path d="M 56.928125 68.183338 
L 450 68.183338 
" clip-path="url(#p3190221870)" style="fill: none; stroke: #b0b0b0; stroke-width: 0.8; stroke-linecap: square"/>
     </g>
     <g id="line2d_18">
      <g>
       <use xlink:href="#m54dc9e1e85" x="56.928125" y="68.183338" style="stroke: #000000; stroke-width: 0.8"/>
      </g>
     </g>
     <g id="text_4">
      <!-- 3000 -->
      <g transform="translate(24.478125 71.982557)scale(0.1 -0.1)">
       <defs>
        <path id="DejaVuSans-33" d="M 2597 2516 
Q 3050 2419 3304 2112 
Q 3559 1806 3559 1356 
Q 3559 666 3084 287 
Q 2609 -91 1734 -91 
Q 1441 -91 1130 -33 
Q 819 25 488 141 
L 488 750 
Q 750 597 1062 519 
Q 1375 441 1716 441 
Q 2309 441 2620 675 
Q 2931 909 2931 1356 
Q 2931 1769 2642 2001 
Q 2353 2234 1838 2234 
L 1294 2234 
L 1294 2753 
L 1863 2753 
Q 2328 2753 2575 2939 
Q 2822 3125 2822 3475 
Q 2822 3834 2567 4026 
Q 2313 4219 1838 4219 
Q 1578 4219 1281 4162 
Q 984 4106 628 3988 
L 628 4550 
Q 988 4650 1302 4700 
Q 1616 4750 1894 4750 
Q 2613 4750 3031 4423 
Q 3450 4097 3450 3541 
Q 3450 3153 3228 2886 
Q 3006 2619 2597 2516 
z
" transform="scale(0.015625)"/>
       </defs>
       <use xlink:href="#DejaVuSans-33"/>
       <use xlink:href="#DejaVuSans-30" x="63.623047"/>
       <use xlink:href="#DejaVuSans-30" x="127.246094"/>
       <use xlink:href="#DejaVuSans-30" x="190.869141"/>
      </g>
     </g>
    </g>
    <g id="text_5">
     <!-- reflector value -->
     <g transform="translate(18.398438 141.321719)rotate(-90)scale(0.1 -0.1)">
      <defs>
       <path id="DejaVuSans-72" d="M 2631 2963 
Q 2534 3019 2420 3045 
Q 2306 3072 2169 3072 
Q 1681 3072 1420 2755 
Q 1159 2438 1159 1844 
L 1159 0 
L 581 0 
L 581 3500 
L 1159 3500 
L 1159 2956 
Q 1341 3275 1631 3429 
Q 1922 3584 2338 3584 
Q 2397 3584 2469 3576 
Q 2541 3569 2628 3553 
L 2631 2963 
z
" transform="scale(0.015625)"/>
       <path id="DejaVuSans-65" d="M 3597 1894 
L 3597 1613 
L 953 1613 
Q 991 1019 1311 708 
Q 1631 397 2203 397 
Q 2534 397 2845 478 
Q 3156 559 3463 722 
L 3463 178 
Q 3153 47 2828 -22 
Q 2503 -91 2169 -91 
Q 1331 -91 842 396 
Q 353 884 353 1716 
Q 353 2575 817 3079 
Q 1281 3584 2069 3584 
Q 2775 3584 3186 3129 
Q 3597 2675 3597 1894 
z
M 3022 2063 
Q 3016 2534 2758 2815 
Q 2500 3097 2075 3097 
Q 1594 3097 1305 2825 
Q 1016 2553 972 2059 
L 3022 2063 
z
" transform="scale(0.015625)"/>
       <path id="DejaVuSans-66" d="M 2375 4863 
L 2375 4384 
L 1825 4384 
Q 1516 4384 1395 4259 
Q 1275 4134 1275 3809 
L 1275 3500 
L 2222 3500 
L 2222 3053 
L 1275 3053 
L 1275 0 
L 697 0 
L 697 3053 
L 147 3053 
L 147 3500 
L 697 3500 
L 697 3744 
Q 697 4328 969 4595 
Q 1241 4863 1831 4863 
L 2375 4863 
z
" transform="scale(0.015625)"/>
       <path id="DejaVuSans-6c" d="M 603 4863 
L 1178 4863 
L 1178 0 
L 603 0 
L 603 4863 
z
" transform="scale(0.015625)"/>
       <path id="DejaVuSans-63" d="M 3122 3366 
L 3122 2828 
Q 2878 2963 2633 3030 
Q 2388 3097 2138 3097 
Q 1578 3097 1268 2742 
Q 959 2388 959 1747 
Q 959 1106 1268 751 
Q 1578 397 2138 397 
Q 2388 397 2633 464 
Q 2878 531 3122 666 
L 3122 134 
Q 2881 22 2623 -34 
Q 2366 -91 2075 -91 
Q 1284 -91 818 406 
Q 353 903 353 1747 
Q 353 2603 823 3093 
Q 1294 3584 2113 3584 
Q 2378 3584 2631 3529 
Q 2884 3475 3122 3366 
z
" transform="scale(0.015625)"/>
       <path id="DejaVuSans-74" d="M 1172 4494 
L 1172 3500 
L 2356 3500 
L 2356 3053 
L 1172 3053 
L 1172 1153 
Q 1172 725 1289 603 
Q 1406 481 1766 481 
L 2356 481 
L 2356 0 
L 1766 0 
Q 1100 0 847 248 
Q 594 497 594 1153 
L 594 3053 
L 172 3053 
L 172 3500 
L 594 3500 
L 594 4494 
L 1172 4494 
z
" transform="scale(0.015625)"/>
       <path id="DejaVuSans-6f" d="M 1959 3097 
Q 1497 3097 1228 2736 
Q 959 2375 959 1747 
Q 959 1119 1226 758 
Q 1494 397 1959 397 
Q 2419 397 2687 759 
Q 2956 1122 2956 1747 
Q 2956 2369 2687 2733 
Q 2419 3097 1959 3097 
z
M 1959 3584 
Q 2709 3584 3137 3096 
Q 3566 2609 3566 1747 
Q 3566 888 3137 398 
Q 2709 -91 1959 -91 
Q 1206 -91 779 398 
Q 353 888 353 1747 
Q 353 2609 779 3096 
Q 1206 3584 1959 3584 
z
" transform="scale(0.015625)"/>
       <path id="DejaVuSans-20" transform="scale(0.015625)"/>
       <path id="DejaVuSans-76" d="M 191 3500 
L 800 3500 
L 1894 563 
L 2988 3500 
L 3597 3500 
L 2284 0 
L 1503 0 
L 191 3500 
z
" transform="scale(0.015625)"/>
       <path id="DejaVuSans-61" d="M 2194 1759 
Q 1497 1759 1228 1600 
Q 959 1441 959 1056 
Q 959 750 1161 570 
Q 1363 391 1709 391 
Q 2188 391 2477 730 
Q 2766 1069 2766 1631 
L 2766 1759 
L 2194 1759 
z
M 3341 1997 
L 3341 0 
L 2766 0 
L 2766 531 
Q 2569 213 2275 61 
Q 1981 -91 1556 -91 
Q 1019 -91 701 211 
Q 384 513 384 1019 
Q 384 1609 779 1909 
Q 1175 2209 1959 2209 
L 2766 2209 
L 2766 2266 
Q 2766 2663 2505 2880 
Q 2244 3097 1772 3097 
Q 1472 3097 1187 3025 
Q 903 2953 641 2809 
L 641 3341 
Q 956 3463 1253 3523 
Q 1550 3584 1831 3584 
Q 2591 3584 2966 3190 
Q 3341 2797 3341 1997 
z
" transform="scale(0.015625)"/>
       <path id="DejaVuSans-75" d="M 544 1381 
L 544 3500 
L 1119 3500 
L 1119 1403 
Q 1119 906 1312 657 
Q 1506 409 1894 409 
Q 2359 409 2629 706 
Q 2900 1003 2900 1516 
L 2900 3500 
L 3475 3500 
L 3475 0 
L 2900 0 
L 2900 538 
Q 2691 219 2414 64 
Q 2138 -91 1772 -91 
Q 1169 -91 856 284 
Q 544 659 544 1381 
z
M 1991 3584 
L 1991 3584 
z
" transform="scale(0.015625)"/>
      </defs>
      <use xlink:href="#DejaVuSans-72"/>
      <use xlink:href="#DejaVuSans-65" x="38.863281"/>
      <use xlink:href="#DejaVuSans-66" x="100.386719"/>
      <use xlink:href="#DejaVuSans-6c" x="135.591797"/>
      <use xlink:href="#DejaVuSans-65" x="163.375"/>
      <use xlink:href="#DejaVuSans-63" x="224.898438"/>
      <use xlink:href="#DejaVuSans-74" x="279.878906"/>
      <use xlink:href="#DejaVuSans-6f" x="319.087891"/>
      <use xlink:href="#DejaVuSans-72" x="380.269531"/>
      <use xlink:href="#DejaVuSans-20" x="421.382812"/>
      <use xlink:href="#DejaVuSans-76" x="453.169922"/>
      <use xlink:href="#DejaVuSans-61" x="512.349609"/>
      <use xlink:href="#DejaVuSans-6c" x="573.628906"/>
      <use xlink:href="#DejaVuSans-75" x="601.412109"/>
      <use xlink:href="#DejaVuSans-65" x="664.791016"/>
     </g>
    </g>
   </g>
   <g id="line2d_19">
    <path d="M 74.795028 150.31107 
L 74.864813 150.222697 
L 74.90223 150.252155 
L 74.980288 150.252155 
L 75.012925 150.281612 
L 75.133229 150.281612 
L 75.181509 150.340528 
L 75.234157 150.281612 
L 75.35327 150.222697 
L 75.569737 150.222697 
L 75.836073 150.016494 
L 76.538044 149.957579 
L 76.679391 149.810291 
L 76.982731 149.869206 
L 78.270737 149.486258 
L 78.930621 149.397885 
L 79.164082 149.22114 
L 79.909727 149.162224 
L 80.171775 148.985479 
L 80.441764 148.985479 
L 81.293817 148.631988 
L 81.592393 148.631988 
L 81.898115 148.514158 
L 82.210984 148.514158 
L 83.879356 147.983921 
L 84.236694 147.983921 
L 84.601973 147.63043 
L 84.967252 147.63043 
L 85.340472 147.453685 
L 85.721632 147.453685 
L 86.110734 147.247482 
L 86.499835 147.247482 
L 86.896878 146.835076 
L 87.301861 146.835076 
L 87.714785 146.628873 
L 88.127709 146.628873 
L 88.540633 146.245924 
L 88.969438 146.245924 
L 89.398244 146.039721 
L 89.82705 145.980806 
L 91.14523 145.480027 
L 91.589918 145.480027 
L 92.495174 144.920333 
L 93.408371 144.625757 
L 95.735039 143.535827 
L 97.624961 142.711014 
L 98.101411 142.445896 
L 98.577862 142.328066 
L 99.054313 141.945117 
L 99.530764 141.856745 
L 101.436567 140.678441 
L 102.389468 140.118747 
L 102.865919 140.118747 
L 103.34237 139.559053 
L 104.771722 138.645868 
L 105.248173 138.557496 
L 106.677525 137.52648 
L 108.106877 136.642753 
L 108.583328 136.112517 
L 109.059779 135.817941 
L 110.489131 134.49235 
L 110.965582 134.256689 
L 111.442033 134.256689 
L 111.918483 133.137301 
L 113.347836 131.664422 
L 113.824286 131.664422 
L 114.300737 130.486119 
L 115.253639 129.248901 
L 115.730089 129.248901 
L 116.20654 127.834937 
L 117.159442 126.509346 
L 117.635892 126.509346 
L 118.112343 124.977552 
L 118.588794 124.977552 
L 119.065245 123.887621 
L 119.541695 123.887621 
L 120.018146 122.886063 
L 120.971048 121.972878 
L 121.447498 121.972878 
L 121.923949 121.501557 
L 122.876851 121.206981 
L 125.259104 121.206981 
L 126.212006 120.73566 
L 128.59426 119.351154 
L 129.070711 118.938748 
L 129.547161 118.79146 
L 130.500063 118.938748 
L 130.976514 119.468984 
L 131.452964 119.468984 
L 132.405866 122.738775 
L 132.882317 124.123282 
L 133.358767 125.920194 
L 137.646824 146.599415 
L 138.599726 150.016494 
L 139.552627 152.402558 
L 140.029078 153.22737 
L 140.981979 154.111098 
L 141.45843 154.317301 
L 141.934881 154.317301 
L 142.411332 154.611877 
L 144.317135 154.759165 
L 146.222938 154.81808 
L 147.175839 154.906452 
L 149.081642 154.847537 
L 149.558093 154.93591 
L 150.034544 154.847537 
L 150.987445 154.93591 
L 151.940347 154.847537 
L 153.369699 154.847537 
L 153.84615 154.670792 
L 154.838756 154.729707 
L 162.938419 154.140555 
L 163.89132 154.052183 
L 171.514532 153.138998 
L 171.990983 152.844422 
L 172.467434 152.844422 
L 172.943884 152.638219 
L 173.896786 152.608761 
L 174.849687 152.373101 
L 176.27904 152.284728 
L 176.755491 152.01961 
L 177.231941 152.01961 
L 178.661294 151.666119 
L 179.137744 151.666119 
L 179.614195 151.371543 
L 180.090646 151.371543 
L 180.567097 151.16534 
L 181.043547 151.16534 
L 181.44059 150.929679 
L 181.91704 150.929679 
L 182.393491 150.782391 
L 182.869942 150.782391 
L 183.346393 150.4289 
L 183.822843 150.4289 
L 186.205097 149.780834 
L 186.681548 149.545173 
L 187.634449 149.486258 
L 188.1109 149.073852 
L 188.587351 149.073852 
L 189.063802 148.690903 
L 189.540253 148.690903 
L 190.016703 148.337412 
L 190.493154 148.337412 
L 190.969605 147.983921 
L 191.446056 147.925006 
L 192.875408 147.159109 
L 193.351859 147.041279 
L 195.257662 146.216466 
L 195.734112 146.098636 
L 196.210563 146.098636 
L 196.687014 145.627315 
L 198.592817 144.773045 
L 199.069268 144.773045 
L 199.545718 144.360639 
L 200.022169 144.360639 
L 200.49862 143.918775 
L 200.975071 143.918775 
L 201.451521 143.417996 
L 202.880874 142.711014 
L 204.310226 141.827287 
L 204.786677 141.562169 
L 205.263128 141.06139 
L 205.739578 140.94356 
L 206.69248 140.20712 
L 207.168931 140.20712 
L 207.645381 139.588511 
L 208.121832 139.588511 
L 208.598283 139.028817 
L 209.074734 139.028817 
L 209.551184 138.321835 
L 210.027635 138.115632 
L 212.88634 135.994686 
L 213.36279 135.994686 
L 213.839241 135.052044 
L 214.315692 135.052044 
L 214.792143 133.962113 
L 215.268593 133.962113 
L 215.745044 132.960556 
L 216.221495 132.518692 
L 216.697946 131.900083 
L 217.174396 131.900083 
L 217.650847 130.692322 
L 218.127298 130.309373 
L 219.080199 129.248901 
L 219.55665 128.748122 
L 220.986003 127.805479 
L 221.938904 127.628734 
L 222.415355 127.422531 
L 222.891806 127.481446 
L 223.844707 127.3047 
L 224.321158 127.393073 
L 224.797609 127.18687 
L 225.274059 127.3047 
L 226.226961 127.245785 
L 227.179862 127.275243 
L 227.656313 127.010125 
L 228.132764 126.244227 
L 229.085665 124.034909 
L 229.562116 124.034909 
L 230.038567 126.155855 
L 230.991468 127.834937 
L 231.467919 127.834937 
L 231.94437 129.396188 
L 232.897271 131.664422 
L 233.373722 131.664422 
L 233.850173 135.258247 
L 234.326624 135.258247 
L 234.803074 139.11719 
L 235.755976 142.799387 
L 236.232427 142.799387 
L 236.708878 146.245924 
L 238.13823 150.487815 
L 238.614681 150.487815 
L 239.091131 152.343643 
L 239.567582 152.343643 
L 240.044033 153.698692 
L 240.520484 154.170013 
L 240.996934 154.405674 
L 241.473385 154.405674 
L 241.949836 154.93591 
L 242.426287 154.93591 
L 242.902737 155.142113 
L 243.855639 155.230486 
L 244.33209 155.289401 
L 244.80854 155.230486 
L 245.761442 155.318859 
L 246.714343 155.289401 
L 247.667245 155.436689 
L 248.620146 155.348316 
L 249.096597 155.407231 
L 249.573048 155.259943 
L 250.525949 155.289401 
L 251.478851 155.230486 
L 255.290457 155.142113 
L 256.243359 155.05374 
L 257.19626 155.112655 
L 259.578514 154.81808 
L 260.054965 154.93591 
L 261.007866 154.81808 
L 261.960768 154.788622 
L 262.913669 154.641334 
L 264.343021 154.582419 
L 268.154628 154.199471 
L 269.58398 154.111098 
L 270.536881 154.08164 
L 271.013332 153.787064 
L 271.489783 153.787064 
L 271.966234 153.639777 
L 272.442684 153.639777 
L 272.919135 153.521946 
L 273.395586 153.521946 
L 273.872037 153.315743 
L 276.730741 153.080082 
L 278.160093 152.726592 
L 279.589446 152.461473 
L 280.542347 152.314185 
L 281.018798 152.314185 
L 281.495249 152.166898 
L 281.971699 152.166898 
L 282.44815 151.901779 
L 283.877503 151.666119 
L 284.830404 151.371543 
L 285.783306 151.224255 
L 286.259756 150.988594 
L 286.736207 150.900222 
L 287.212658 150.694019 
L 287.689109 150.635103 
L 288.165559 150.4289 
L 288.64201 150.4289 
L 291.024264 149.633546 
L 291.977165 149.486258 
L 295.312321 148.337412 
L 295.788771 148.278497 
L 296.265222 148.013379 
L 296.741673 147.895548 
L 297.218124 147.659888 
L 297.694574 147.600973 
L 298.171025 147.306397 
L 299.123927 147.041279 
L 300.076828 146.65833 
L 302.935533 145.656772 
L 303.411984 145.185451 
L 303.888434 145.185451 
L 304.364885 144.773045 
L 304.841336 144.773045 
L 305.317787 144.242809 
L 306.270688 144.213351 
L 306.747139 143.683115 
L 307.70004 143.211793 
L 309.129393 142.711014 
L 309.605843 142.062948 
L 310.082294 141.856745 
L 310.558745 141.503254 
L 311.035196 141.002475 
L 311.511646 140.737357 
L 311.988097 140.324951 
L 313.417449 139.411766 
L 314.846802 138.439665 
L 315.323253 138.439665 
L 315.799703 137.703226 
L 316.276154 137.379193 
L 316.752605 137.231905 
L 317.229056 137.231905 
L 317.705506 136.701668 
L 318.181957 136.701668 
L 318.658408 136.289262 
L 320.564211 136.230347 
L 321.040662 136.141974 
L 321.993563 136.230347 
L 323.422915 136.083059 
L 323.899366 136.112517 
L 324.375817 135.994686 
L 327.710972 136.289262 
L 328.187423 136.466008 
L 328.663874 136.466008 
L 329.140324 137.379193 
L 330.569677 139.323393 
L 331.522578 141.090848 
L 333.428381 145.421112 
L 334.381283 147.424227 
L 334.857734 147.424227 
L 335.334184 149.309512 
L 335.810635 150.281612 
L 336.287086 150.281612 
L 336.763537 151.872322 
L 337.239987 151.872322 
L 337.716438 153.256828 
L 338.192889 153.256828 
L 338.66934 154.346758 
L 339.14579 154.346758 
L 339.622241 155.230486 
L 340.098692 155.613434 
L 341.528044 156.02584 
L 342.480946 156.084756 
L 351.53351 155.996383 
L 352.486412 155.937468 
L 355.345116 155.90801 
L 356.298018 155.67235 
L 359.156722 155.613434 
L 360.109624 155.525062 
L 361.062525 155.554519 
L 364.874131 155.142113 
L 366.779934 155.083198 
L 367.732836 154.876995 
L 368.685737 154.93591 
L 369.162188 154.670792 
L 370.11509 154.582419 
L 371.067991 154.523504 
L 372.973794 154.287843 
L 373.450245 154.346758 
L 375.832499 154.022725 
L 376.308949 153.816522 
L 377.738302 153.639777 
L 378.691203 153.521946 
L 379.167654 153.345201 
L 382.026359 153.080082 
L 383.455711 152.638219 
L 383.932162 152.638219 
L 384.408612 152.373101 
L 385.837965 152.166898 
L 386.790866 152.25527 
L 387.267317 152.049067 
L 387.743768 152.049067 
L 389.17312 151.430458 
L 390.602472 151.194797 
L 392.031824 150.841306 
L 392.508275 150.900222 
L 397.749234 149.309512 
L 398.225684 149.309512 
L 398.702135 149.044394 
L 401.084389 148.514158 
L 401.56084 148.042836 
L 402.03729 148.042836 
L 402.513741 147.718803 
L 402.990192 147.718803 
L 403.466643 147.335854 
L 403.943093 147.335854 
L 406.801798 145.980806 
L 409.184052 144.773045 
L 409.660503 144.743587 
L 410.613404 144.124978 
L 413.472109 142.239693 
L 414.345602 141.679999 
L 414.822052 141.679999 
L 415.695545 141.149763 
L 416.569039 140.94356 
L 417.045489 140.531154 
L 417.442532 140.383866 
L 417.918982 140.383866 
L 418.316025 140.118747 
L 418.713067 140.236578 
L 419.110109 140.08929 
L 419.58656 140.472238 
L 420.380645 140.442781 
L 420.777687 140.531154 
L 421.492363 140.501696 
L 421.889405 140.236578 
L 423.7158 140.20712 
L 424.033434 140.501696 
L 424.668701 140.442781 
L 424.986335 140.236578 
L 425.303969 140.236578 
L 425.621603 139.559053 
L 425.859828 139.559053 
L 426.177462 139.382308 
L 426.415687 139.382308 
L 426.971547 140.501696 
L 427.447997 140.884645 
L 427.686223 140.884645 
L 427.924448 141.06139 
L 428.162674 141.06139 
L 428.639124 141.797829 
L 428.797941 141.945117 
L 429.036167 141.945117 
L 429.194984 142.328066 
L 429.433209 142.328066 
L 429.750843 143.476912 
L 429.90966 143.476912 
L 430.227294 144.242809 
L 430.38611 144.242809 
L 430.465519 144.979248 
L 430.624336 144.979248 
L 430.94197 146.628873 
L 431.100787 146.628873 
L 431.339012 147.600973 
L 431.497829 147.600973 
L 431.656646 147.777718 
L 431.656646 148.278497 
L 431.736054 148.278497 
L 431.97428 149.486258 
L 431.97428 149.397885 
L 432.053688 149.604088 
L 432.053688 149.604088 
L 432.133097 150.723476 
L 432.133097 150.870764 
L 432.133097 150.222697 
L 432.133097 150.811849 
" clip-path="url(#p3190221870)" style="fill: none; stroke: #1f77b4; stroke-width: 1.5; stroke-linecap: square"/>
   </g>
   <g id="line2d_20">
    <path d="M 74.795028 156.526619 
L 432.133097 156.526619 
L 432.133097 156.526619 
" clip-path="url(#p3190221870)" style="fill: none; stroke: #ff7f0e; stroke-width: 1.5; stroke-linecap: square"/>
   </g>
   <g id="line2d_21">
    <path d="M 74.795028 156.526619 
L 93.408371 156.526619 
L 93.86894 156.232044 
L 94.33745 156.526619 
L 95.266529 156.526619 
L 95.735039 156.143671 
L 96.203549 156.526619 
L 104.771722 156.526619 
L 105.248173 156.320416 
L 105.724623 156.526619 
L 106.201074 156.438247 
L 106.677525 156.526619 
L 107.153976 156.232044 
L 107.630426 156.526619 
L 108.106877 155.996383 
L 108.583328 156.497162 
L 112.394934 156.526619 
L 112.871385 156.290959 
L 113.824286 156.408789 
L 114.300737 156.143671 
L 115.253639 156.173128 
L 115.730089 156.084756 
L 117.159442 156.084756 
L 117.635892 155.966925 
L 118.112343 156.084756 
L 120.018146 155.760722 
L 120.494597 156.349874 
L 121.923949 155.760722 
L 122.4004 156.02584 
L 122.876851 155.583977 
L 123.353301 155.318859 
L 123.829752 155.466146 
L 124.306203 155.436689 
L 124.782654 155.289401 
L 125.259104 155.407231 
L 125.735555 155.142113 
L 126.212006 154.670792 
L 126.688457 156.467704 
L 127.164908 154.994825 
L 127.641358 155.024283 
L 128.117809 154.759165 
L 129.070711 155.142113 
L 130.023612 154.258386 
L 130.500063 155.142113 
L 130.976514 154.906452 
L 131.929415 154.994825 
L 132.405866 154.700249 
L 132.882317 153.904895 
L 133.358767 153.96381 
L 133.835218 153.875437 
L 134.311669 153.96381 
L 134.78812 153.934352 
L 135.26457 153.728149 
L 135.741021 153.757607 
L 136.217472 154.199471 
L 136.693923 153.433573 
L 137.170373 153.433573 
L 137.646824 153.197913 
L 138.123275 153.256828 
L 139.076176 152.932795 
L 139.552627 152.962252 
L 140.029078 153.256828 
L 140.505529 153.315743 
L 141.45843 153.168455 
L 141.934881 152.785507 
L 142.411332 152.932795 
L 142.887783 152.314185 
L 143.364233 152.01961 
L 143.840684 152.049067 
L 144.793586 151.754491 
L 145.270036 151.371543 
L 145.746487 151.401 
L 146.222938 153.256828 
L 146.699389 151.135882 
L 147.175839 150.752934 
L 147.65229 150.635103 
L 148.128741 150.752934 
L 148.605192 150.723476 
L 149.081642 150.487815 
L 149.558093 150.487815 
L 150.034544 150.959137 
L 150.987445 150.900222 
L 151.463896 150.517273 
L 151.940347 150.4289 
L 152.893248 149.515715 
L 153.369699 149.663003 
L 154.362305 149.515715 
L 155.791657 148.808733 
L 156.268108 149.280055 
L 156.744559 148.749818 
L 157.221009 148.808733 
L 157.69746 148.514158 
L 158.650362 148.425785 
L 159.126812 148.219582 
L 159.603263 148.455242 
L 160.079714 148.013379 
L 160.556165 148.337412 
L 161.032616 148.072294 
L 161.509066 148.072294 
L 161.985517 147.129651 
L 162.461968 146.65833 
L 162.938419 146.452127 
L 163.414869 146.65833 
L 163.89132 146.717245 
L 164.367771 146.481585 
L 164.844222 146.599415 
L 165.320672 146.452127 
L 166.750025 146.481585 
L 167.226475 146.187009 
L 167.702926 146.628873 
L 168.179377 146.717245 
L 168.655828 147.335854 
L 169.132278 147.39477 
L 169.608729 147.276939 
L 170.08518 147.453685 
L 170.561631 147.777718 
L 171.038081 147.129651 
L 171.514532 147.218024 
L 171.990983 147.424227 
L 172.467434 147.453685 
L 172.943884 147.807176 
L 173.896786 148.013379 
L 174.373237 147.571515 
L 174.849687 148.160667 
L 175.326138 148.072294 
L 175.802589 148.337412 
L 176.27904 148.897106 
L 176.755491 149.014937 
L 177.231941 149.898664 
L 179.137744 151.106425 
L 179.614195 150.929679 
L 180.567097 151.990152 
L 181.44059 152.844422 
L 181.91704 152.785507 
L 182.393491 153.610319 
L 182.869942 154.052183 
L 183.346393 154.199471 
L 183.822843 154.670792 
L 184.299294 154.93591 
L 184.775745 155.701807 
L 185.252196 155.377774 
L 185.728646 156.02584 
L 186.205097 156.349874 
L 186.681548 156.526619 
L 187.157999 156.349874 
L 187.634449 156.467704 
L 188.1109 155.760722 
L 188.587351 155.79018 
L 189.063802 155.142113 
L 189.540253 155.878553 
L 190.493154 155.525062 
L 190.969605 155.996383 
L 191.446056 155.083198 
L 191.922506 155.525062 
L 192.398957 155.466146 
L 192.875408 155.67235 
L 193.351859 155.289401 
L 193.828309 155.289401 
L 194.30476 156.084756 
L 194.781211 155.937468 
L 195.734112 155.966925 
L 196.210563 155.79018 
L 196.687014 155.112655 
L 197.163465 154.788622 
L 197.639915 155.083198 
L 198.116366 155.024283 
L 198.592817 155.083198 
L 199.069268 154.93591 
L 199.545718 154.994825 
L 200.022169 154.670792 
L 200.49862 155.024283 
L 200.975071 155.112655 
L 201.451521 155.083198 
L 201.927972 155.318859 
L 202.404423 155.731265 
L 202.880874 155.819637 
L 203.357324 156.055298 
L 204.310226 155.701807 
L 204.786677 155.142113 
L 207.168931 155.142113 
L 207.645381 155.259943 
L 209.074734 155.259943 
L 209.551184 155.348316 
L 210.027635 155.289401 
L 210.504086 156.055298 
L 210.980537 156.526619 
L 211.456987 155.878553 
L 212.409889 155.878553 
L 212.88634 155.583977 
L 213.36279 155.142113 
L 215.745044 154.994825 
L 216.221495 154.670792 
L 216.697946 154.965368 
L 217.174396 154.788622 
L 217.650847 154.93591 
L 218.127298 154.405674 
L 219.080199 156.408789 
L 219.55665 155.083198 
L 220.033101 155.466146 
L 220.509552 155.318859 
L 220.986003 154.700249 
L 221.462453 154.611877 
L 221.938904 154.641334 
L 222.415355 154.199471 
L 222.891806 154.405674 
L 223.844707 154.258386 
L 226.226961 154.022725 
L 226.703412 154.523504 
L 227.179862 154.494046 
L 227.656313 153.787064 
L 228.132764 154.346758 
L 228.609215 153.787064 
L 230.038567 153.197913 
L 230.515018 153.22737 
L 232.897271 152.726592 
L 233.373722 151.872322 
L 233.850173 152.667676 
L 234.326624 152.314185 
L 234.803074 152.903337 
L 235.279525 154.199471 
L 235.755976 152.785507 
L 236.232427 152.225813 
L 236.708878 152.608761 
L 237.185328 152.402558 
L 237.661779 151.577746 
L 238.614681 151.342085 
L 239.567582 151.04751 
L 240.044033 151.018052 
L 241.473385 150.605646 
L 241.949836 150.694019 
L 242.426287 150.340528 
L 242.902737 150.4289 
L 243.379188 150.782391 
L 244.80854 150.31107 
L 245.284991 149.898664 
L 245.761442 150.222697 
L 246.237893 148.631988 
L 247.190794 148.337412 
L 248.143696 148.4847 
L 248.620146 148.249039 
L 249.096597 148.160667 
L 249.573048 147.866091 
L 250.525949 147.600973 
L 251.0024 147.542058 
L 251.478851 147.041279 
L 252.431753 147.571515 
L 252.908203 147.129651 
L 253.384654 147.39477 
L 253.861105 146.687788 
L 254.337556 146.275382 
L 254.814006 145.332739 
L 255.290457 145.185451 
L 256.243359 144.390096 
L 257.19626 143.800945 
L 257.672711 143.830402 
L 258.149162 144.036606 
L 258.625612 142.976133 
L 259.102063 142.416439 
L 259.578514 142.386981 
L 260.054965 141.738914 
L 260.531415 142.475354 
L 261.007866 142.357524 
L 261.484317 141.768372 
L 261.960768 141.503254 
L 262.437218 141.002475 
L 262.913669 140.059832 
L 263.39012 139.559053 
L 263.866571 139.293935 
L 264.343021 138.822614 
L 264.819472 138.557496 
L 265.295923 138.086174 
L 266.725275 137.143532 
L 268.154628 135.729568 
L 268.631078 136.083059 
L 270.536881 134.403977 
L 271.013332 133.166759 
L 271.489783 132.813268 
L 271.966234 132.78381 
L 272.442684 131.870625 
L 273.395586 131.252016 
L 273.872037 131.281474 
L 274.348487 130.545034 
L 274.824938 130.191543 
L 275.301389 130.044255 
L 275.77784 129.720222 
L 276.25429 130.162086 
L 277.207192 129.955882 
L 277.683643 129.955882 
L 278.160093 129.838052 
L 278.636544 129.926425 
L 279.112995 129.484561 
L 280.065896 129.98534 
L 280.542347 130.515576 
L 281.018798 130.72178 
L 281.495249 131.546592 
L 281.971699 131.752795 
L 282.44815 133.932656 
L 282.924601 132.813268 
L 283.401052 133.402419 
L 283.877503 133.785368 
L 284.353953 134.934213 
L 285.306855 135.847398 
L 285.783306 136.613295 
L 286.259756 137.644311 
L 286.736207 137.614853 
L 289.118461 141.562169 
L 290.547813 145.421112 
L 291.500715 147.895548 
L 291.977165 149.663003 
L 292.453616 150.959137 
L 292.930067 151.371543 
L 293.406518 151.990152 
L 293.882968 152.314185 
L 294.359419 151.842864 
L 294.83587 151.842864 
L 295.312321 152.314185 
L 296.265222 151.960694 
L 296.741673 152.107982 
L 297.694574 151.872322 
L 298.171025 151.960694 
L 298.647476 152.756049 
L 299.123927 152.932795 
L 300.076828 152.844422 
L 300.553279 152.962252 
L 301.02973 152.962252 
L 301.506181 152.049067 
L 302.935533 152.314185 
L 303.411984 151.813407 
L 303.888434 152.461473 
L 304.364885 152.608761 
L 304.841336 154.376216 
L 305.317787 152.962252 
L 305.794237 152.962252 
L 306.270688 154.08164 
L 306.747139 154.199471 
L 307.22359 154.494046 
L 307.70004 154.641334 
L 308.176491 154.670792 
L 308.652942 153.875437 
L 309.129393 153.787064 
L 309.605843 153.993267 
L 311.511646 154.199471 
L 311.988097 155.466146 
L 312.464548 154.199471 
L 312.940999 154.228928 
L 313.417449 155.05374 
L 314.370351 155.142113 
L 314.846802 154.965368 
L 315.323253 155.083198 
L 315.799703 154.199471 
L 316.276154 153.934352 
L 316.752605 154.140555 
L 317.705506 154.199471 
L 318.658408 153.904895 
L 319.134859 154.022725 
L 319.611309 153.698692 
L 320.08776 154.670792 
L 320.564211 154.81808 
L 321.040662 154.670792 
L 321.517112 154.729707 
L 321.993563 154.140555 
L 322.470014 154.611877 
L 322.946465 153.433573 
L 323.422915 153.050625 
L 323.899366 153.256828 
L 324.375817 153.315743 
L 324.852268 153.22737 
L 325.805169 153.197913 
L 326.758071 152.99171 
L 327.234521 153.816522 
L 327.710972 153.875437 
L 329.140324 153.433573 
L 329.616775 152.461473 
L 330.569677 152.402558 
L 331.046128 151.931237 
L 331.522578 152.196355 
L 331.999029 151.931237 
L 332.47548 151.931237 
L 333.428381 151.666119 
L 333.904832 152.549846 
L 334.381283 152.520388 
L 334.857734 152.343643 
L 335.810635 152.225813 
L 336.287086 150.900222 
L 336.763537 150.900222 
L 337.239987 150.517273 
L 337.716438 150.517273 
L 338.192889 150.281612 
L 338.66934 150.458358 
L 339.622241 149.987037 
L 340.098692 150.163782 
L 340.575143 150.988594 
L 341.051593 150.811849 
L 341.528044 150.811849 
L 342.480946 150.163782 
L 342.957396 149.132767 
L 343.910298 148.985479 
L 344.386749 148.631988 
L 344.863199 148.690903 
L 345.33965 148.396327 
L 346.769003 148.042836 
L 347.245453 148.543615 
L 348.198355 147.954464 
L 348.674806 147.5126 
L 349.151256 147.600973 
L 349.627707 146.275382 
L 350.104158 145.921891 
L 350.580609 145.80406 
L 351.53351 145.362197 
L 352.009961 145.273824 
L 352.962862 144.242809 
L 353.439313 145.597857 
L 353.915764 144.773045 
L 354.868665 144.301724 
L 355.345116 144.625757 
L 356.298018 142.828845 
L 356.774468 142.563727 
L 358.203821 140.855187 
L 358.680271 141.002475 
L 359.156722 140.324951 
L 360.109624 139.883087 
L 360.586074 140.383866 
L 362.491878 138.38075 
L 362.968328 137.231905 
L 363.92123 136.348177 
L 364.397681 136.377635 
L 364.874131 135.317162 
L 366.303484 133.696995 
L 366.779934 132.960556 
L 367.256385 133.461334 
L 367.732836 132.724895 
L 368.209287 132.312489 
L 369.162188 131.016355 
L 369.638639 129.484561 
L 370.11509 129.042697 
L 370.59154 128.15897 
L 371.544442 127.06904 
L 372.497343 125.213212 
L 372.973794 124.50623 
L 373.450245 124.653518 
L 373.926696 124.034909 
L 374.403146 123.121724 
L 374.879597 122.620945 
L 375.832499 120.647287 
L 376.308949 118.850375 
L 376.7854 117.524784 
L 377.261851 116.876717 
L 377.738302 115.639499 
L 378.214753 114.991432 
L 379.167654 112.782114 
L 379.644105 110.955744 
L 380.120556 111.338692 
L 381.073457 108.186731 
L 382.502809 103.591349 
L 382.97926 101.14637 
L 386.314415 90.512183 
L 386.790866 90.453268 
L 389.649571 80.673352 
L 390.126021 79.701252 
L 390.602472 79.1121 
L 391.078923 78.169457 
L 391.555374 77.933797 
L 392.031824 77.374103 
L 392.508275 78.788067 
L 392.984726 78.817524 
L 393.461177 79.671794 
L 394.414078 83.059416 
L 394.890529 85.180361 
L 395.36698 86.005174 
L 395.843431 88.597441 
L 396.796332 96.050208 
L 397.749234 106.419276 
L 398.225684 112.516995 
L 398.702135 120.264339 
L 400.607938 137.40865 
L 401.084389 138.26292 
L 401.56084 139.853629 
L 402.513741 141.945117 
L 402.990192 141.974575 
L 403.466643 142.711014 
L 403.943093 142.88776 
L 404.419544 144.773045 
L 404.895995 145.244366 
L 405.372446 146.187009 
L 405.848896 146.452127 
L 406.325347 147.247482 
L 406.801798 146.65833 
L 408.707601 150.31107 
L 409.184052 151.076967 
L 410.136953 153.698692 
L 410.613404 153.875437 
L 411.089855 154.346758 
L 412.042756 154.582419 
L 412.519207 152.962252 
L 412.995658 152.932795 
L 413.472109 153.050625 
L 413.869151 151.666119 
L 414.345602 153.10954 
L 414.822052 152.873879 
L 415.219095 154.552961 
L 415.695545 154.611877 
L 416.171996 154.464589 
L 416.569039 154.464589 
L 417.045489 154.287843 
L 417.442532 152.225813 
L 417.918982 152.049067 
L 418.316025 152.284728 
L 418.713067 151.931237 
L 419.110109 152.01961 
L 419.58656 151.990152 
L 419.983602 153.639777 
L 420.777687 153.639777 
L 421.174729 153.404116 
L 421.492363 153.345201 
L 421.889405 151.16534 
L 423.318758 150.929679 
L 423.7158 150.694019 
L 424.033434 152.697134 
L 424.351068 152.343643 
L 424.668701 152.461473 
L 425.303969 152.196355 
L 425.621603 150.016494 
L 425.859828 149.928121 
L 426.177462 149.486258 
L 426.415687 149.545173 
L 426.733321 149.486258 
L 426.971547 149.633546 
L 427.209772 151.401 
L 428.162674 151.16534 
L 428.400899 148.867649 
L 428.639124 148.749818 
L 428.797941 148.543615 
L 429.433209 148.219582 
L 429.592026 150.4289 
L 429.90966 150.4289 
L 430.227294 150.163782 
L 430.38611 147.600973 
L 430.465519 148.337412 
L 430.624336 147.5126 
L 430.862561 147.276939 
L 430.94197 148.690903 
L 431.180195 149.486258 
L 431.259604 149.486258 
L 431.339012 149.162224 
L 431.41842 149.280055 
L 431.577237 146.65833 
L 431.736054 146.65833 
L 431.815463 149.014937 
L 431.894871 148.956021 
L 431.97428 148.543615 
L 431.97428 148.543615 
L 432.053688 145.980806 
L 432.053688 148.543615 
L 432.133097 148.543615 
L 432.133097 148.543615 
L 432.133097 145.126536 
L 432.133097 148.956021 
L 432.133097 147.807176 
" clip-path="url(#p3190221870)" style="fill: none; stroke: #2ca02c; stroke-width: 1.5; stroke-linecap: square"/>
   </g>
   <g id="line2d_22">
    <path d="M 74.795028 137.909429 
L 74.818184 137.762141 
L 74.90223 137.997802 
L 75.049135 137.379193 
L 75.181509 137.202447 
L 75.492314 135.935771 
L 75.741577 135.140416 
L 76.156883 133.932656 
L 76.679391 132.253574 
L 77.145519 131.134186 
L 77.867342 128.335716 
L 78.703513 126.038024 
L 78.930621 125.743449 
L 79.654032 126.21477 
L 80.441764 127.805479 
L 82.210984 134.374519 
L 84.601973 144.920333 
L 85.721632 148.720361 
L 86.499835 150.811849 
L 88.127709 153.757607 
L 88.969438 154.876995 
L 89.82705 155.583977 
L 90.700543 156.055298 
L 91.589918 156.143671 
L 92.042546 156.290959 
L 92.947802 156.261501 
L 93.408371 156.408789 
L 94.33745 156.379331 
L 95.266529 156.497162 
L 100.483665 156.408789 
L 101.913017 156.408789 
L 102.389468 156.408789 
L 102.865919 156.261501 
L 103.34237 156.261501 
L 104.295271 156.114213 
L 104.771722 156.202586 
L 105.724623 156.114213 
L 108.106877 156.02584 
L 109.059779 156.055298 
L 111.918483 155.760722 
L 112.394934 155.79018 
L 112.871385 155.67235 
L 113.824286 155.642892 
L 116.20654 155.436689 
L 117.159442 155.318859 
L 118.112343 155.259943 
L 119.065245 155.171571 
L 120.494597 155.112655 
L 121.447498 154.93591 
L 121.923949 154.965368 
L 123.353301 154.700249 
L 124.782654 154.582419 
L 125.259104 154.435131 
L 125.735555 154.405674 
L 126.688457 154.199471 
L 127.164908 154.199471 
L 128.59426 153.934352 
L 130.976514 153.551404 
L 133.835218 152.962252 
L 134.78812 152.697134 
L 135.26457 152.697134 
L 135.741021 152.461473 
L 137.170373 152.13744 
L 138.123275 151.842864 
L 144.793586 149.751376 
L 145.270036 149.486258 
L 145.746487 149.427343 
L 146.699389 149.014937 
L 150.510995 147.276939 
L 151.463896 146.805618 
L 151.940347 146.65833 
L 152.893248 146.039721 
L 159.126812 142.445896 
L 159.603263 142.004033 
L 160.079714 141.768372 
L 160.556165 141.17922 
L 161.032616 141.002475 
L 161.985517 140.148205 
L 163.89132 138.645868 
L 164.367771 138.086174 
L 164.844222 137.732683 
L 168.179377 134.197774 
L 172.943884 127.658191 
L 173.420335 126.715549 
L 173.896786 126.067482 
L 174.373237 125.124839 
L 174.849687 124.594603 
L 176.27904 122.149624 
L 176.755491 121.4721 
L 177.708392 119.76356 
L 178.184843 119.203866 
L 179.137744 117.348038 
L 179.614195 116.493769 
L 181.44059 111.780556 
L 181.91704 109.983643 
L 182.393491 108.864255 
L 183.346393 105.623922 
L 183.822843 103.856467 
L 185.728646 99.526203 
L 186.681548 99.585118 
L 187.634449 101.706064 
L 188.587351 106.74331 
L 189.540253 114.225535 
L 191.922506 135.817941 
L 192.875408 142.88776 
L 193.828309 147.807176 
L 194.30476 149.663003 
L 195.257662 152.049067 
L 195.734112 152.932795 
L 197.163465 154.376216 
L 197.639915 154.670792 
L 198.116366 154.81808 
L 198.592817 155.083198 
L 199.545718 155.289401 
L 200.49862 155.436689 
L 202.880874 155.67235 
L 205.263128 155.583977 
L 206.69248 155.466146 
L 207.168931 155.466146 
L 208.121832 155.318859 
L 208.598283 155.318859 
L 209.551184 155.142113 
L 211.456987 155.083198 
L 213.839241 154.700249 
L 215.745044 154.523504 
L 216.697946 154.376216 
L 219.080199 154.170013 
L 219.55665 154.199471 
L 220.509552 153.934352 
L 223.844707 153.551404 
L 224.321158 153.286286 
L 225.274059 153.256828 
L 225.75051 153.256828 
L 226.226961 153.10954 
L 227.656313 152.932795 
L 230.991468 152.284728 
L 231.94437 151.990152 
L 233.850173 151.489373 
L 237.185328 150.605646 
L 237.661779 150.4289 
L 238.13823 150.399443 
L 246.714343 147.129651 
L 250.525949 145.097078 
L 251.955302 144.419554 
L 252.431753 143.97769 
L 252.908203 143.830402 
L 258.625612 139.853629 
L 261.007866 137.850514 
L 261.484317 137.231905 
L 261.960768 136.907871 
L 266.725275 131.576049 
L 267.201726 130.751237 
L 267.678177 130.221001 
L 269.107529 128.011682 
L 269.58398 127.127955 
L 270.060431 126.538803 
L 270.536881 125.301585 
L 271.013332 124.624061 
L 272.442684 121.855048 
L 272.919135 121.148066 
L 273.395586 119.940305 
L 274.348487 117.966648 
L 274.824938 116.994547 
L 275.301389 115.610041 
L 275.77784 114.667399 
L 278.636544 107.126258 
L 280.065896 102.884367 
L 281.495249 99.349457 
L 283.401052 93.575772 
L 285.783306 84.355549 
L 287.212658 76.814409 
L 287.689109 74.074854 
L 288.165559 72.042281 
L 288.64201 71.246926 
L 291.500715 62.55694 
L 291.977165 61.967789 
L 292.453616 62.704228 
L 292.930067 64.795716 
L 293.406518 70.127538 
L 293.882968 77.28573 
L 295.312321 107.83324 
L 296.265222 124.800806 
L 297.218124 137.438108 
L 297.694574 141.768372 
L 298.171025 144.655215 
L 299.123927 148.573073 
L 300.076828 151.076967 
L 300.553279 151.872322 
L 301.506181 152.638219 
L 303.411984 153.728149 
L 305.317787 154.228928 
L 306.747139 154.552961 
L 308.176491 154.523504 
L 309.129393 154.405674 
L 309.605843 154.464589 
L 311.035196 154.199471 
L 313.8939 154.111098 
L 316.752605 153.757607 
L 317.229056 153.580861 
L 317.705506 153.610319 
L 319.134859 153.345201 
L 320.564211 153.256828 
L 322.470014 153.050625 
L 322.946465 152.873879 
L 324.375817 152.697134 
L 328.663874 152.107982 
L 331.999029 151.312628 
L 332.47548 151.342085 
L 332.951931 151.076967 
L 336.763537 150.104867 
L 338.192889 149.515715 
L 339.622241 149.162224 
L 340.575143 148.838191 
L 341.051593 148.573073 
L 342.004495 148.337412 
L 342.480946 147.983921 
L 350.580609 144.419554 
L 351.057059 143.97769 
L 352.009961 143.624199 
L 352.486412 143.359081 
L 352.962862 142.946675 
L 353.439313 142.799387 
L 356.298018 140.560611 
L 359.633173 137.762141 
L 360.109624 137.29082 
L 361.062525 136.701668 
L 361.538976 135.994686 
L 362.491878 135.199332 
L 362.968328 134.433435 
L 364.874131 132.430319 
L 365.350582 131.605507 
L 365.827033 131.134186 
L 366.303484 130.309373 
L 366.779934 129.838052 
L 367.732836 128.335716 
L 368.209287 127.805479 
L 370.11509 124.182197 
L 370.59154 123.4163 
L 371.067991 122.296912 
L 372.497343 119.616272 
L 372.973794 118.379054 
L 373.450245 117.554241 
L 375.356048 112.811571 
L 378.214753 104.504534 
L 379.644105 99.968066 
L 380.120556 98.554103 
L 383.455711 85.592768 
L 386.314415 71.718247 
L 387.743768 65.856189 
L 389.649571 59.846843 
L 390.602472 57.69644 
L 391.555374 56.635967 
L 393.937628 54.456106 
L 394.414078 54.27936 
L 394.890529 53.837497 
L 395.36698 53.837497 
L 395.843431 53.660751 
L 396.319881 53.719666 
L 396.796332 53.484006 
L 397.749234 53.955327 
L 398.225684 54.367733 
L 398.702135 55.310376 
L 399.178586 58.491794 
L 399.655037 70.304284 
L 400.607938 110.896828 
L 401.084389 126.686091 
L 401.56084 138.027259 
L 402.03729 143.918775 
L 402.513741 148.249039 
L 402.990192 150.723476 
L 403.943093 152.343643 
L 404.419544 152.932795 
L 404.895995 153.315743 
L 406.325347 153.904895 
L 406.801798 153.875437 
L 407.754699 154.170013 
L 408.23115 154.140555 
L 408.707601 154.228928 
L 409.184052 154.052183 
L 409.660503 154.405674 
L 410.136953 154.258386 
L 410.613404 154.317301 
L 411.089855 154.228928 
L 411.566306 154.376216 
L 412.042756 154.317301 
L 412.519207 154.022725 
L 414.822052 153.492489 
L 415.219095 153.728149 
L 415.695545 153.698692 
L 416.171996 153.315743 
L 416.569039 153.374658 
L 417.045489 153.315743 
L 417.442532 152.99171 
L 418.316025 152.814964 
L 418.713067 152.461473 
L 419.110109 152.579304 
L 420.380645 152.373101 
L 420.777687 152.432016 
L 421.174729 152.13744 
L 421.492363 152.225813 
L 421.889405 151.754491 
L 422.286448 151.518831 
L 423.318758 151.312628 
L 423.7158 151.16534 
L 424.033434 151.28317 
L 424.351068 150.959137 
L 425.303969 150.929679 
L 425.859828 149.751376 
L 426.415687 149.810291 
L 427.209772 149.751376 
L 427.447997 149.486258 
L 428.162674 149.397885 
L 428.400899 148.956021 
L 428.639124 148.808733 
L 429.036167 148.013379 
L 429.194984 147.895548 
L 429.433209 148.219582 
L 429.592026 148.219582 
L 429.90966 148.396327 
L 430.068477 148.219582 
L 430.38611 147.39477 
L 430.465519 147.600973 
L 430.783153 147.424227 
L 430.862561 147.218024 
L 430.94197 147.542058 
L 431.180195 147.453685 
L 431.736054 146.452127 
L 431.894871 146.923448 
L 431.894871 146.835076 
L 431.97428 146.835076 
L 431.97428 146.746703 
L 432.053688 145.921891 
L 432.053688 146.452127 
L 432.133097 146.511042 
L 432.133097 146.511042 
L 432.133097 143.359081 
L 432.133097 143.830402 
" clip-path="url(#p3190221870)" style="fill: none; stroke: #d62728; stroke-width: 1.5; stroke-linecap: square"/>
   </g>
   <g id="patch_3">
    <path d="M 56.928125 161.67875 
L 56.928125 48.331875 
" style="fill: none; stroke: #000000; stroke-width: 0.8; stroke-linejoin: miter; stroke-linecap: square"/>
   </g>
   <g id="patch_4">
    <path d="M 450 161.67875 
L 450 48.331875 
" style="fill: none; stroke: #000000; stroke-width: 0.8; stroke-linejoin: miter; stroke-linecap: square"/>
   </g>
   <g id="patch_5">
    <path d="M 56.928125 161.67875 
L 450 161.67875 
" style="fill: none; stroke: #000000; stroke-width: 0.8; stroke-linejoin: miter; stroke-linecap: square"/>
   </g>
   <g id="patch_6">
    <path d="M 56.928125 48.331875 
L 450 48.331875 
" style="fill: none; stroke: #000000; stroke-width: 0.8; stroke-linejoin: miter; stroke-linecap: square"/>
   </g>
   <g id="text_6">
    <!-- Reflector Raw Value -->
    <g transform="translate(193.704062 42.331875)scale(0.12 -0.12)">
     <defs>
      <path id="DejaVuSans-52" d="M 2841 2188 
Q 3044 2119 3236 1894 
Q 3428 1669 3622 1275 
L 4263 0 
L 3584 0 
L 2988 1197 
Q 2756 1666 2539 1819 
Q 2322 1972 1947 1972 
L 1259 1972 
L 1259 0 
L 628 0 
L 628 4666 
L 2053 4666 
Q 2853 4666 3247 4331 
Q 3641 3997 3641 3322 
Q 3641 2881 3436 2590 
Q 3231 2300 2841 2188 
z
M 1259 4147 
L 1259 2491 
L 2053 2491 
Q 2509 2491 2742 2702 
Q 2975 2913 2975 3322 
Q 2975 3731 2742 3939 
Q 2509 4147 2053 4147 
L 1259 4147 
z
" transform="scale(0.015625)"/>
      <path id="DejaVuSans-77" d="M 269 3500 
L 844 3500 
L 1563 769 
L 2278 3500 
L 2956 3500 
L 3675 769 
L 4391 3500 
L 4966 3500 
L 4050 0 
L 3372 0 
L 2619 2869 
L 1863 0 
L 1184 0 
L 269 3500 
z
" transform="scale(0.015625)"/>
      <path id="DejaVuSans-56" d="M 1831 0 
L 50 4666 
L 709 4666 
L 2188 738 
L 3669 4666 
L 4325 4666 
L 2547 0 
L 1831 0 
z
" transform="scale(0.015625)"/>
     </defs>
     <use xlink:href="#DejaVuSans-52"/>
     <use xlink:href="#DejaVuSans-65" x="64.982422"/>
     <use xlink:href="#DejaVuSans-66" x="126.505859"/>
     <use xlink:href="#DejaVuSans-6c" x="161.710938"/>
     <use xlink:href="#DejaVuSans-65" x="189.494141"/>
     <use xlink:href="#DejaVuSans-63" x="251.017578"/>
     <use xlink:href="#DejaVuSans-74" x="305.998047"/>
     <use xlink:href="#DejaVuSans-6f" x="345.207031"/>
     <use xlink:href="#DejaVuSans-72" x="406.388672"/>
     <use xlink:href="#DejaVuSans-20" x="447.501953"/>
     <use xlink:href="#DejaVuSans-52" x="479.289062"/>
     <use xlink:href="#DejaVuSans-61" x="546.521484"/>
     <use xlink:href="#DejaVuSans-77" x="607.800781"/>
     <use xlink:href="#DejaVuSans-20" x="689.587891"/>
     <use xlink:href="#DejaVuSans-56" x="721.375"/>
     <use xlink:href="#DejaVuSans-61" x="782.033203"/>
     <use xlink:href="#DejaVuSans-6c" x="843.3125"/>
     <use xlink:href="#DejaVuSans-75" x="871.095703"/>
     <use xlink:href="#DejaVuSans-65" x="934.474609"/>
    </g>
   </g>
   <g id="legend_1">
    <g id="patch_7">
     <path d="M 63.928125 115.044375 
L 131.34375 115.044375 
Q 133.34375 115.044375 133.34375 113.044375 
L 133.34375 55.331875 
Q 133.34375 53.331875 131.34375 53.331875 
L 63.928125 53.331875 
Q 61.928125 53.331875 61.928125 55.331875 
L 61.928125 113.044375 
Q 61.928125 115.044375 63.928125 115.044375 
z
" style="fill: #ffffff; opacity: 0.8; stroke: #cccccc; stroke-linejoin: miter"/>
    </g>
    <g id="line2d_23">
     <path d="M 65.928125 61.430313 
L 75.928125 61.430313 
L 85.928125 61.430313 
" style="fill: none; stroke: #1f77b4; stroke-width: 1.5; stroke-linecap: square"/>
    </g>
    <g id="text_7">
     <!-- L Side -->
     <g transform="translate(93.928125 64.930313)scale(0.1 -0.1)">
      <defs>
       <path id="DejaVuSans-4c" d="M 628 4666 
L 1259 4666 
L 1259 531 
L 3531 531 
L 3531 0 
L 628 0 
L 628 4666 
z
" transform="scale(0.015625)"/>
       <path id="DejaVuSans-53" d="M 3425 4513 
L 3425 3897 
Q 3066 4069 2747 4153 
Q 2428 4238 2131 4238 
Q 1616 4238 1336 4038 
Q 1056 3838 1056 3469 
Q 1056 3159 1242 3001 
Q 1428 2844 1947 2747 
L 2328 2669 
Q 3034 2534 3370 2195 
Q 3706 1856 3706 1288 
Q 3706 609 3251 259 
Q 2797 -91 1919 -91 
Q 1588 -91 1214 -16 
Q 841 59 441 206 
L 441 856 
Q 825 641 1194 531 
Q 1563 422 1919 422 
Q 2459 422 2753 634 
Q 3047 847 3047 1241 
Q 3047 1584 2836 1778 
Q 2625 1972 2144 2069 
L 1759 2144 
Q 1053 2284 737 2584 
Q 422 2884 422 3419 
Q 422 4038 858 4394 
Q 1294 4750 2059 4750 
Q 2388 4750 2728 4690 
Q 3069 4631 3425 4513 
z
" transform="scale(0.015625)"/>
       <path id="DejaVuSans-69" d="M 603 3500 
L 1178 3500 
L 1178 0 
L 603 0 
L 603 3500 
z
M 603 4863 
L 1178 4863 
L 1178 4134 
L 603 4134 
L 603 4863 
z
" transform="scale(0.015625)"/>
       <path id="DejaVuSans-64" d="M 2906 2969 
L 2906 4863 
L 3481 4863 
L 3481 0 
L 2906 0 
L 2906 525 
Q 2725 213 2448 61 
Q 2172 -91 1784 -91 
Q 1150 -91 751 415 
Q 353 922 353 1747 
Q 353 2572 751 3078 
Q 1150 3584 1784 3584 
Q 2172 3584 2448 3432 
Q 2725 3281 2906 2969 
z
M 947 1747 
Q 947 1113 1208 752 
Q 1469 391 1925 391 
Q 2381 391 2643 752 
Q 2906 1113 2906 1747 
Q 2906 2381 2643 2742 
Q 2381 3103 1925 3103 
Q 1469 3103 1208 2742 
Q 947 2381 947 1747 
z
" transform="scale(0.015625)"/>
      </defs>
      <use xlink:href="#DejaVuSans-4c"/>
      <use xlink:href="#DejaVuSans-20" x="55.712891"/>
      <use xlink:href="#DejaVuSans-53" x="87.5"/>
      <use xlink:href="#DejaVuSans-69" x="150.976562"/>
      <use xlink:href="#DejaVuSans-64" x="178.759766"/>
      <use xlink:href="#DejaVuSans-65" x="242.236328"/>
     </g>
    </g>
    <g id="line2d_24">
     <path d="M 65.928125 76.108438 
L 75.928125 76.108438 
L 85.928125 76.108438 
" style="fill: none; stroke: #ff7f0e; stroke-width: 1.5; stroke-linecap: square"/>
    </g>
    <g id="text_8">
     <!-- L Front -->
     <g transform="translate(93.928125 79.608438)scale(0.1 -0.1)">
      <defs>
       <path id="DejaVuSans-46" d="M 628 4666 
L 3309 4666 
L 3309 4134 
L 1259 4134 
L 1259 2759 
L 3109 2759 
L 3109 2228 
L 1259 2228 
L 1259 0 
L 628 0 
L 628 4666 
z
" transform="scale(0.015625)"/>
       <path id="DejaVuSans-6e" d="M 3513 2113 
L 3513 0 
L 2938 0 
L 2938 2094 
Q 2938 2591 2744 2837 
Q 2550 3084 2163 3084 
Q 1697 3084 1428 2787 
Q 1159 2491 1159 1978 
L 1159 0 
L 581 0 
L 581 3500 
L 1159 3500 
L 1159 2956 
Q 1366 3272 1645 3428 
Q 1925 3584 2291 3584 
Q 2894 3584 3203 3211 
Q 3513 2838 3513 2113 
z
" transform="scale(0.015625)"/>
      </defs>
      <use xlink:href="#DejaVuSans-4c"/>
      <use xlink:href="#DejaVuSans-20" x="55.712891"/>
      <use xlink:href="#DejaVuSans-46" x="87.5"/>
      <use xlink:href="#DejaVuSans-72" x="137.769531"/>
      <use xlink:href="#DejaVuSans-6f" x="176.632812"/>
      <use xlink:href="#DejaVuSans-6e" x="237.814453"/>
      <use xlink:href="#DejaVuSans-74" x="301.193359"/>
     </g>
    </g>
    <g id="line2d_25">
     <path d="M 65.928125 90.786563 
L 75.928125 90.786563 
L 85.928125 90.786563 
" style="fill: none; stroke: #2ca02c; stroke-width: 1.5; stroke-linecap: square"/>
    </g>
    <g id="text_9">
     <!-- R Front -->
     <g transform="translate(93.928125 94.286563)scale(0.1 -0.1)">
      <use xlink:href="#DejaVuSans-52"/>
      <use xlink:href="#DejaVuSans-20" x="69.482422"/>
      <use xlink:href="#DejaVuSans-46" x="101.269531"/>
      <use xlink:href="#DejaVuSans-72" x="151.539062"/>
      <use xlink:href="#DejaVuSans-6f" x="190.402344"/>
      <use xlink:href="#DejaVuSans-6e" x="251.583984"/>
      <use xlink:href="#DejaVuSans-74" x="314.962891"/>
     </g>
    </g>
    <g id="line2d_26">
     <path d="M 65.928125 105.464688 
L 75.928125 105.464688 
L 85.928125 105.464688 
" style="fill: none; stroke: #d62728; stroke-width: 1.5; stroke-linecap: square"/>
    </g>
    <g id="text_10">
     <!-- R Side -->
     <g transform="translate(93.928125 108.964688)scale(0.1 -0.1)">
      <use xlink:href="#DejaVuSans-52"/>
      <use xlink:href="#DejaVuSans-20" x="69.482422"/>
      <use xlink:href="#DejaVuSans-53" x="101.269531"/>
      <use xlink:href="#DejaVuSans-69" x="164.746094"/>
      <use xlink:href="#DejaVuSans-64" x="192.529297"/>
      <use xlink:href="#DejaVuSans-65" x="256.005859"/>
     </g>
    </g>
   </g>
  </g>
  <g id="axes_2">
   <g id="patch_8">
    <path d="M 56.928125 304.44375 
L 450 304.44375 
L 450 191.096875 
L 56.928125 191.096875 
z
" style="fill: #ffffff"/>
   </g>
   <g id="matplotlib.axis_3">
    <g id="xtick_6">
     <g id="line2d_27">
      <path d="M 74.795028 304.44375 
L 74.795028 191.096875 
" clip-path="url(#pd5cd2e38be)" style="fill: none; stroke: #b0b0b0; stroke-width: 0.8; stroke-linecap: square"/>
     </g>
     <g id="line2d_28">
      <g>
       <use xlink:href="#mebd7c86776" x="74.795028" y="304.44375" style="stroke: #000000; stroke-width: 0.8"/>
      </g>
     </g>
     <g id="text_11">
      <!-- 0 -->
      <g transform="translate(71.613778 319.042187)scale(0.1 -0.1)">
       <use xlink:href="#DejaVuSans-30"/>
      </g>
     </g>
    </g>
    <g id="xtick_7">
     <g id="line2d_29">
      <path d="M 154.203488 304.44375 
L 154.203488 191.096875 
" clip-path="url(#pd5cd2e38be)" style="fill: none; stroke: #b0b0b0; stroke-width: 0.8; stroke-linecap: square"/>
     </g>
     <g id="line2d_30">
      <g>
       <use xlink:href="#mebd7c86776" x="154.203488" y="304.44375" style="stroke: #000000; stroke-width: 0.8"/>
      </g>
     </g>
     <g id="text_12">
      <!-- 100 -->
      <g transform="translate(144.659738 319.042187)scale(0.1 -0.1)">
       <use xlink:href="#DejaVuSans-31"/>
       <use xlink:href="#DejaVuSans-30" x="63.623047"/>
       <use xlink:href="#DejaVuSans-30" x="127.246094"/>
      </g>
     </g>
    </g>
    <g id="xtick_8">
     <g id="line2d_31">
      <path d="M 233.611948 304.44375 
L 233.611948 191.096875 
" clip-path="url(#pd5cd2e38be)" style="fill: none; stroke: #b0b0b0; stroke-width: 0.8; stroke-linecap: square"/>
     </g>
     <g id="line2d_32">
      <g>
       <use xlink:href="#mebd7c86776" x="233.611948" y="304.44375" style="stroke: #000000; stroke-width: 0.8"/>
      </g>
     </g>
     <g id="text_13">
      <!-- 200 -->
      <g transform="translate(224.068198 319.042187)scale(0.1 -0.1)">
       <use xlink:href="#DejaVuSans-32"/>
       <use xlink:href="#DejaVuSans-30" x="63.623047"/>
       <use xlink:href="#DejaVuSans-30" x="127.246094"/>
      </g>
     </g>
    </g>
    <g id="xtick_9">
     <g id="line2d_33">
      <path d="M 313.020407 304.44375 
L 313.020407 191.096875 
" clip-path="url(#pd5cd2e38be)" style="fill: none; stroke: #b0b0b0; stroke-width: 0.8; stroke-linecap: square"/>
     </g>
     <g id="line2d_34">
      <g>
       <use xlink:href="#mebd7c86776" x="313.020407" y="304.44375" style="stroke: #000000; stroke-width: 0.8"/>
      </g>
     </g>
     <g id="text_14">
      <!-- 300 -->
      <g transform="translate(303.476657 319.042187)scale(0.1 -0.1)">
       <use xlink:href="#DejaVuSans-33"/>
       <use xlink:href="#DejaVuSans-30" x="63.623047"/>
       <use xlink:href="#DejaVuSans-30" x="127.246094"/>
      </g>
     </g>
    </g>
    <g id="xtick_10">
     <g id="line2d_35">
      <path d="M 392.428867 304.44375 
L 392.428867 191.096875 
" clip-path="url(#pd5cd2e38be)" style="fill: none; stroke: #b0b0b0; stroke-width: 0.8; stroke-linecap: square"/>
     </g>
     <g id="line2d_36">
      <g>
       <use xlink:href="#mebd7c86776" x="392.428867" y="304.44375" style="stroke: #000000; stroke-width: 0.8"/>
      </g>
     </g>
     <g id="text_15">
      <!-- 400 -->
      <g transform="translate(382.885117 319.042187)scale(0.1 -0.1)">
       <defs>
        <path id="DejaVuSans-34" d="M 2419 4116 
L 825 1625 
L 2419 1625 
L 2419 4116 
z
M 2253 4666 
L 3047 4666 
L 3047 1625 
L 3713 1625 
L 3713 1100 
L 3047 1100 
L 3047 0 
L 2419 0 
L 2419 1100 
L 313 1100 
L 313 1709 
L 2253 4666 
z
" transform="scale(0.015625)"/>
       </defs>
       <use xlink:href="#DejaVuSans-34"/>
       <use xlink:href="#DejaVuSans-30" x="63.623047"/>
       <use xlink:href="#DejaVuSans-30" x="127.246094"/>
      </g>
     </g>
    </g>
    <g id="text_16">
     <!-- Translational Position [mm] -->
     <g transform="translate(185.486719 332.720312)scale(0.1 -0.1)">
      <defs>
       <path id="DejaVuSans-54" d="M -19 4666 
L 3928 4666 
L 3928 4134 
L 2272 4134 
L 2272 0 
L 1638 0 
L 1638 4134 
L -19 4134 
L -19 4666 
z
" transform="scale(0.015625)"/>
       <path id="DejaVuSans-73" d="M 2834 3397 
L 2834 2853 
Q 2591 2978 2328 3040 
Q 2066 3103 1784 3103 
Q 1356 3103 1142 2972 
Q 928 2841 928 2578 
Q 928 2378 1081 2264 
Q 1234 2150 1697 2047 
L 1894 2003 
Q 2506 1872 2764 1633 
Q 3022 1394 3022 966 
Q 3022 478 2636 193 
Q 2250 -91 1575 -91 
Q 1294 -91 989 -36 
Q 684 19 347 128 
L 347 722 
Q 666 556 975 473 
Q 1284 391 1588 391 
Q 1994 391 2212 530 
Q 2431 669 2431 922 
Q 2431 1156 2273 1281 
Q 2116 1406 1581 1522 
L 1381 1569 
Q 847 1681 609 1914 
Q 372 2147 372 2553 
Q 372 3047 722 3315 
Q 1072 3584 1716 3584 
Q 2034 3584 2315 3537 
Q 2597 3491 2834 3397 
z
" transform="scale(0.015625)"/>
       <path id="DejaVuSans-50" d="M 1259 4147 
L 1259 2394 
L 2053 2394 
Q 2494 2394 2734 2622 
Q 2975 2850 2975 3272 
Q 2975 3691 2734 3919 
Q 2494 4147 2053 4147 
L 1259 4147 
z
M 628 4666 
L 2053 4666 
Q 2838 4666 3239 4311 
Q 3641 3956 3641 3272 
Q 3641 2581 3239 2228 
Q 2838 1875 2053 1875 
L 1259 1875 
L 1259 0 
L 628 0 
L 628 4666 
z
" transform="scale(0.015625)"/>
       <path id="DejaVuSans-5b" d="M 550 4863 
L 1875 4863 
L 1875 4416 
L 1125 4416 
L 1125 -397 
L 1875 -397 
L 1875 -844 
L 550 -844 
L 550 4863 
z
" transform="scale(0.015625)"/>
       <path id="DejaVuSans-6d" d="M 3328 2828 
Q 3544 3216 3844 3400 
Q 4144 3584 4550 3584 
Q 5097 3584 5394 3201 
Q 5691 2819 5691 2113 
L 5691 0 
L 5113 0 
L 5113 2094 
Q 5113 2597 4934 2840 
Q 4756 3084 4391 3084 
Q 3944 3084 3684 2787 
Q 3425 2491 3425 1978 
L 3425 0 
L 2847 0 
L 2847 2094 
Q 2847 2600 2669 2842 
Q 2491 3084 2119 3084 
Q 1678 3084 1418 2786 
Q 1159 2488 1159 1978 
L 1159 0 
L 581 0 
L 581 3500 
L 1159 3500 
L 1159 2956 
Q 1356 3278 1631 3431 
Q 1906 3584 2284 3584 
Q 2666 3584 2933 3390 
Q 3200 3197 3328 2828 
z
" transform="scale(0.015625)"/>
       <path id="DejaVuSans-5d" d="M 1947 4863 
L 1947 -844 
L 622 -844 
L 622 -397 
L 1369 -397 
L 1369 4416 
L 622 4416 
L 622 4863 
L 1947 4863 
z
" transform="scale(0.015625)"/>
      </defs>
      <use xlink:href="#DejaVuSans-54"/>
      <use xlink:href="#DejaVuSans-72" x="46.333984"/>
      <use xlink:href="#DejaVuSans-61" x="87.447266"/>
      <use xlink:href="#DejaVuSans-6e" x="148.726562"/>
      <use xlink:href="#DejaVuSans-73" x="212.105469"/>
      <use xlink:href="#DejaVuSans-6c" x="264.205078"/>
      <use xlink:href="#DejaVuSans-61" x="291.988281"/>
      <use xlink:href="#DejaVuSans-74" x="353.267578"/>
      <use xlink:href="#DejaVuSans-69" x="392.476562"/>
      <use xlink:href="#DejaVuSans-6f" x="420.259766"/>
      <use xlink:href="#DejaVuSans-6e" x="481.441406"/>
      <use xlink:href="#DejaVuSans-61" x="544.820312"/>
      <use xlink:href="#DejaVuSans-6c" x="606.099609"/>
      <use xlink:href="#DejaVuSans-20" x="633.882812"/>
      <use xlink:href="#DejaVuSans-50" x="665.669922"/>
      <use xlink:href="#DejaVuSans-6f" x="722.347656"/>
      <use xlink:href="#DejaVuSans-73" x="783.529297"/>
      <use xlink:href="#DejaVuSans-69" x="835.628906"/>
      <use xlink:href="#DejaVuSans-74" x="863.412109"/>
      <use xlink:href="#DejaVuSans-69" x="902.621094"/>
      <use xlink:href="#DejaVuSans-6f" x="930.404297"/>
      <use xlink:href="#DejaVuSans-6e" x="991.585938"/>
      <use xlink:href="#DejaVuSans-20" x="1054.964844"/>
      <use xlink:href="#DejaVuSans-5b" x="1086.751953"/>
      <use xlink:href="#DejaVuSans-6d" x="1125.765625"/>
      <use xlink:href="#DejaVuSans-6d" x="1223.177734"/>
      <use xlink:href="#DejaVuSans-5d" x="1320.589844"/>
     </g>
    </g>
   </g>
   <g id="matplotlib.axis_4">
    <g id="ytick_5">
     <g id="line2d_37">
      <path d="M 56.928125 290.444526 
L 450 290.444526 
" clip-path="url(#pd5cd2e38be)" style="fill: none; stroke: #b0b0b0; stroke-width: 0.8; stroke-linecap: square"/>
     </g>
     <g id="line2d_38">
      <g>
       <use xlink:href="#m54dc9e1e85" x="56.928125" y="290.444526" style="stroke: #000000; stroke-width: 0.8"/>
      </g>
     </g>
     <g id="text_17">
      <!-- 100 -->
      <g transform="translate(30.840625 294.243745)scale(0.1 -0.1)">
       <use xlink:href="#DejaVuSans-31"/>
       <use xlink:href="#DejaVuSans-30" x="63.623047"/>
       <use xlink:href="#DejaVuSans-30" x="127.246094"/>
      </g>
     </g>
    </g>
    <g id="ytick_6">
     <g id="line2d_39">
      <path d="M 56.928125 264.423664 
L 450 264.423664 
" clip-path="url(#pd5cd2e38be)" style="fill: none; stroke: #b0b0b0; stroke-width: 0.8; stroke-linecap: square"/>
     </g>
     <g id="line2d_40">
      <g>
       <use xlink:href="#m54dc9e1e85" x="56.928125" y="264.423664" style="stroke: #000000; stroke-width: 0.8"/>
      </g>
     </g>
     <g id="text_18">
      <!-- 150 -->
      <g transform="translate(30.840625 268.222883)scale(0.1 -0.1)">
       <defs>
        <path id="DejaVuSans-35" d="M 691 4666 
L 3169 4666 
L 3169 4134 
L 1269 4134 
L 1269 2991 
Q 1406 3038 1543 3061 
Q 1681 3084 1819 3084 
Q 2600 3084 3056 2656 
Q 3513 2228 3513 1497 
Q 3513 744 3044 326 
Q 2575 -91 1722 -91 
Q 1428 -91 1123 -41 
Q 819 9 494 109 
L 494 744 
Q 775 591 1075 516 
Q 1375 441 1709 441 
Q 2250 441 2565 725 
Q 2881 1009 2881 1497 
Q 2881 1984 2565 2268 
Q 2250 2553 1709 2553 
Q 1456 2553 1204 2497 
Q 953 2441 691 2322 
L 691 4666 
z
" transform="scale(0.015625)"/>
       </defs>
       <use xlink:href="#DejaVuSans-31"/>
       <use xlink:href="#DejaVuSans-35" x="63.623047"/>
       <use xlink:href="#DejaVuSans-30" x="127.246094"/>
      </g>
     </g>
    </g>
    <g id="ytick_7">
     <g id="line2d_41">
      <path d="M 56.928125 238.402802 
L 450 238.402802 
" clip-path="url(#pd5cd2e38be)" style="fill: none; stroke: #b0b0b0; stroke-width: 0.8; stroke-linecap: square"/>
     </g>
     <g id="line2d_42">
      <g>
       <use xlink:href="#m54dc9e1e85" x="56.928125" y="238.402802" style="stroke: #000000; stroke-width: 0.8"/>
      </g>
     </g>
     <g id="text_19">
      <!-- 200 -->
      <g transform="translate(30.840625 242.202021)scale(0.1 -0.1)">
       <use xlink:href="#DejaVuSans-32"/>
       <use xlink:href="#DejaVuSans-30" x="63.623047"/>
       <use xlink:href="#DejaVuSans-30" x="127.246094"/>
      </g>
     </g>
    </g>
    <g id="ytick_8">
     <g id="line2d_43">
      <path d="M 56.928125 212.38194 
L 450 212.38194 
" clip-path="url(#pd5cd2e38be)" style="fill: none; stroke: #b0b0b0; stroke-width: 0.8; stroke-linecap: square"/>
     </g>
     <g id="line2d_44">
      <g>
       <use xlink:href="#m54dc9e1e85" x="56.928125" y="212.38194" style="stroke: #000000; stroke-width: 0.8"/>
      </g>
     </g>
     <g id="text_20">
      <!-- 250 -->
      <g transform="translate(30.840625 216.181159)scale(0.1 -0.1)">
       <use xlink:href="#DejaVuSans-32"/>
       <use xlink:href="#DejaVuSans-35" x="63.623047"/>
       <use xlink:href="#DejaVuSans-30" x="127.246094"/>
      </g>
     </g>
    </g>
    <g id="text_21">
     <!-- wall distance [mm] -->
     <g transform="translate(24.760938 295.708594)rotate(-90)scale(0.1 -0.1)">
      <use xlink:href="#DejaVuSans-77"/>
      <use xlink:href="#DejaVuSans-61" x="81.787109"/>
      <use xlink:href="#DejaVuSans-6c" x="143.066406"/>
      <use xlink:href="#DejaVuSans-6c" x="170.849609"/>
      <use xlink:href="#DejaVuSans-20" x="198.632812"/>
      <use xlink:href="#DejaVuSans-64" x="230.419922"/>
      <use xlink:href="#DejaVuSans-69" x="293.896484"/>
      <use xlink:href="#DejaVuSans-73" x="321.679688"/>
      <use xlink:href="#DejaVuSans-74" x="373.779297"/>
      <use xlink:href="#DejaVuSans-61" x="412.988281"/>
      <use xlink:href="#DejaVuSans-6e" x="474.267578"/>
      <use xlink:href="#DejaVuSans-63" x="537.646484"/>
      <use xlink:href="#DejaVuSans-65" x="592.626953"/>
      <use xlink:href="#DejaVuSans-20" x="654.150391"/>
      <use xlink:href="#DejaVuSans-5b" x="685.9375"/>
      <use xlink:href="#DejaVuSans-6d" x="724.951172"/>
      <use xlink:href="#DejaVuSans-6d" x="822.363281"/>
      <use xlink:href="#DejaVuSans-5d" x="919.775391"/>
     </g>
    </g>
   </g>
   <g id="line2d_45">
    <path d="M 74.795028 196.249006 
L 202.404423 196.249006 
L 202.880874 231.116961 
L 210.504086 231.116961 
L 210.980537 230.596544 
L 218.603749 230.596544 
L 219.080199 196.249006 
L 284.353953 196.249006 
L 284.830404 232.157795 
L 291.977165 232.157795 
L 292.453616 239.443637 
L 299.123927 239.443637 
L 299.600378 240.484471 
L 306.270688 240.484471 
L 306.747139 246.209061 
L 313.417449 246.209061 
L 313.8939 245.688644 
L 320.564211 245.688644 
L 321.040662 251.413233 
L 333.904832 251.413233 
L 334.381283 254.535737 
L 347.245453 254.535737 
L 347.721904 252.974485 
L 353.915764 252.974485 
L 354.392215 255.576571 
L 367.256385 255.576571 
L 367.732836 256.617406 
L 380.597006 256.617406 
L 381.073457 260.260326 
L 386.790866 260.260326 
L 387.267317 264.944081 
L 392.984726 264.944081 
L 393.461177 271.189088 
L 398.702135 271.189088 
L 399.178586 273.791175 
L 404.419544 273.791175 
L 404.895995 275.872843 
L 410.136953 275.872843 
L 410.613404 280.556599 
L 415.219095 280.556599 
L 415.695545 283.158685 
L 419.983602 283.158685 
L 420.380645 287.84244 
L 424.033434 287.84244 
L 424.351068 291.485361 
L 427.209772 291.485361 
L 427.447997 292.526195 
L 429.592026 292.526195 
L 429.750843 296.689533 
L 431.100787 296.689533 
L 431.259604 297.730368 
L 432.133097 297.730368 
L 432.133097 299.291619 
L 432.133097 298.771202 
" clip-path="url(#pd5cd2e38be)" style="fill: none; stroke: #1f77b4; stroke-width: 1.5; stroke-linecap: square"/>
   </g>
   <g id="patch_9">
    <path d="M 56.928125 304.44375 
L 56.928125 191.096875 
" style="fill: none; stroke: #000000; stroke-width: 0.8; stroke-linejoin: miter; stroke-linecap: square"/>
   </g>
   <g id="patch_10">
    <path d="M 450 304.44375 
L 450 191.096875 
" style="fill: none; stroke: #000000; stroke-width: 0.8; stroke-linejoin: miter; stroke-linecap: square"/>
   </g>
   <g id="patch_11">
    <path d="M 56.928125 304.44375 
L 450 304.44375 
" style="fill: none; stroke: #000000; stroke-width: 0.8; stroke-linejoin: miter; stroke-linecap: square"/>
   </g>
   <g id="patch_12">
    <path d="M 56.928125 191.096875 
L 450 191.096875 
" style="fill: none; stroke: #000000; stroke-width: 0.8; stroke-linejoin: miter; stroke-linecap: square"/>
   </g>
   <g id="text_22">
    <!-- Front Wall Distance [mm] -->
    <g transform="translate(177.40375 185.096875)scale(0.12 -0.12)">
     <defs>
      <path id="DejaVuSans-57" d="M 213 4666 
L 850 4666 
L 1831 722 
L 2809 4666 
L 3519 4666 
L 4500 722 
L 5478 4666 
L 6119 4666 
L 4947 0 
L 4153 0 
L 3169 4050 
L 2175 0 
L 1381 0 
L 213 4666 
z
" transform="scale(0.015625)"/>
      <path id="DejaVuSans-44" d="M 1259 4147 
L 1259 519 
L 2022 519 
Q 2988 519 3436 956 
Q 3884 1394 3884 2338 
Q 3884 3275 3436 3711 
Q 2988 4147 2022 4147 
L 1259 4147 
z
M 628 4666 
L 1925 4666 
Q 3281 4666 3915 4102 
Q 4550 3538 4550 2338 
Q 4550 1131 3912 565 
Q 3275 0 1925 0 
L 628 0 
L 628 4666 
z
" transform="scale(0.015625)"/>
     </defs>
     <use xlink:href="#DejaVuSans-46"/>
     <use xlink:href="#DejaVuSans-72" x="50.269531"/>
     <use xlink:href="#DejaVuSans-6f" x="89.132812"/>
     <use xlink:href="#DejaVuSans-6e" x="150.314453"/>
     <use xlink:href="#DejaVuSans-74" x="213.693359"/>
     <use xlink:href="#DejaVuSans-20" x="252.902344"/>
     <use xlink:href="#DejaVuSans-57" x="284.689453"/>
     <use xlink:href="#DejaVuSans-61" x="377.191406"/>
     <use xlink:href="#DejaVuSans-6c" x="438.470703"/>
     <use xlink:href="#DejaVuSans-6c" x="466.253906"/>
     <use xlink:href="#DejaVuSans-20" x="494.037109"/>
     <use xlink:href="#DejaVuSans-44" x="525.824219"/>
     <use xlink:href="#DejaVuSans-69" x="602.826172"/>
     <use xlink:href="#DejaVuSans-73" x="630.609375"/>
     <use xlink:href="#DejaVuSans-74" x="682.708984"/>
     <use xlink:href="#DejaVuSans-61" x="721.917969"/>
     <use xlink:href="#DejaVuSans-6e" x="783.197266"/>
     <use xlink:href="#DejaVuSans-63" x="846.576172"/>
     <use xlink:href="#DejaVuSans-65" x="901.556641"/>
     <use xlink:href="#DejaVuSans-20" x="963.080078"/>
     <use xlink:href="#DejaVuSans-5b" x="994.867188"/>
     <use xlink:href="#DejaVuSans-6d" x="1033.880859"/>
     <use xlink:href="#DejaVuSans-6d" x="1131.292969"/>
     <use xlink:href="#DejaVuSans-5d" x="1228.705078"/>
    </g>
   </g>
   <g id="legend_2">
    <g id="patch_13">
     <path d="M 394.721875 213.775 
L 443 213.775 
Q 445 213.775 445 211.775 
L 445 198.096875 
Q 445 196.096875 443 196.096875 
L 394.721875 196.096875 
Q 392.721875 196.096875 392.721875 198.096875 
L 392.721875 211.775 
Q 392.721875 213.775 394.721875 213.775 
z
" style="fill: #ffffff; opacity: 0.8; stroke: #cccccc; stroke-linejoin: miter"/>
    </g>
    <g id="line2d_46">
     <path d="M 396.721875 204.195312 
L 406.721875 204.195312 
L 416.721875 204.195312 
" style="fill: none; stroke: #1f77b4; stroke-width: 1.5; stroke-linecap: square"/>
    </g>
    <g id="text_23">
     <!-- ToF -->
     <g transform="translate(424.721875 207.695312)scale(0.1 -0.1)">
      <use xlink:href="#DejaVuSans-54"/>
      <use xlink:href="#DejaVuSans-6f" x="44.083984"/>
      <use xlink:href="#DejaVuSans-46" x="105.265625"/>
     </g>
    </g>
   </g>
  </g>
  <g id="text_24">
   <!-- Reflector Raw Value and ToF Distance -->
   <g transform="translate(117.629063 16.030125)scale(0.12 -0.12)">
    <use xlink:href="#DejaVuSans-52"/>
    <use xlink:href="#DejaVuSans-65" x="64.982422"/>
    <use xlink:href="#DejaVuSans-66" x="126.505859"/>
    <use xlink:href="#DejaVuSans-6c" x="161.710938"/>
    <use xlink:href="#DejaVuSans-65" x="189.494141"/>
    <use xlink:href="#DejaVuSans-63" x="251.017578"/>
    <use xlink:href="#DejaVuSans-74" x="305.998047"/>
    <use xlink:href="#DejaVuSans-6f" x="345.207031"/>
    <use xlink:href="#DejaVuSans-72" x="406.388672"/>
    <use xlink:href="#DejaVuSans-20" x="447.501953"/>
    <use xlink:href="#DejaVuSans-52" x="479.289062"/>
    <use xlink:href="#DejaVuSans-61" x="546.521484"/>
    <use xlink:href="#DejaVuSans-77" x="607.800781"/>
    <use xlink:href="#DejaVuSans-20" x="689.587891"/>
    <use xlink:href="#DejaVuSans-56" x="721.375"/>
    <use xlink:href="#DejaVuSans-61" x="782.033203"/>
    <use xlink:href="#DejaVuSans-6c" x="843.3125"/>
    <use xlink:href="#DejaVuSans-75" x="871.095703"/>
    <use xlink:href="#DejaVuSans-65" x="934.474609"/>
    <use xlink:href="#DejaVuSans-20" x="995.998047"/>
    <use xlink:href="#DejaVuSans-61" x="1027.785156"/>
    <use xlink:href="#DejaVuSans-6e" x="1089.064453"/>
    <use xlink:href="#DejaVuSans-64" x="1152.443359"/>
    <use xlink:href="#DejaVuSans-20" x="1215.919922"/>
    <use xlink:href="#DejaVuSans-54" x="1247.707031"/>
    <use xlink:href="#DejaVuSans-6f" x="1291.791016"/>
    <use xlink:href="#DejaVuSans-46" x="1352.972656"/>
    <use xlink:href="#DejaVuSans-20" x="1410.492188"/>
    <use xlink:href="#DejaVuSans-44" x="1442.279297"/>
    <use xlink:href="#DejaVuSans-69" x="1519.28125"/>
    <use xlink:href="#DejaVuSans-73" x="1547.064453"/>
    <use xlink:href="#DejaVuSans-74" x="1599.164062"/>
    <use xlink:href="#DejaVuSans-61" x="1638.373047"/>
    <use xlink:href="#DejaVuSans-6e" x="1699.652344"/>
    <use xlink:href="#DejaVuSans-63" x="1763.03125"/>
    <use xlink:href="#DejaVuSans-65" x="1818.011719"/>
   </g>
  </g>
 </g>
 <defs>
  <clipPath id="p3190221870">
   <rect x="56.928125" y="48.331875" width="393.071875" height="113.346875"/>
  </clipPath>
  <clipPath id="pd5cd2e38be">
   <rect x="56.928125" y="191.096875" width="393.071875" height="113.346875"/>
  </clipPath>
 </defs>
</svg>
