<?xml version="1.0" encoding="utf-8" standalone="no"?>
<!DOCTYPE svg PUBLIC "-//W3C//DTD SVG 1.1//EN"
  "http://www.w3.org/Graphics/SVG/1.1/DTD/svg11.dtd">
<svg xmlns:xlink="http://www.w3.org/1999/xlink" width="460.8pt" height="345.6pt" viewBox="0 0 460.8 345.6" xmlns="http://www.w3.org/2000/svg" version="1.1">
 <metadata>
  <rdf:RDF xmlns:dc="http://purl.org/dc/elements/1.1/" xmlns:cc="http://creativecommons.org/ns#" xmlns:rdf="http://www.w3.org/1999/02/22-rdf-syntax-ns#">
   <cc:Work>
    <dc:type rdf:resource="http://purl.org/dc/dcmitype/StillImage"/>
    <dc:date>2022-01-16T02:34:12.121954</dc:date>
    <dc:format>image/svg+xml</dc:format>
    <dc:creator>
     <cc:Agent>
      <dc:title>Matplotlib v3.5.1, https://matplotlib.org/</dc:title>
     </cc:Agent>
    </dc:creator>
   </cc:Work>
  </rdf:RDF>
 </metadata>
 <defs>
  <style type="text/css">*{stroke-linejoin: round; stroke-linecap: butt}</style>
 </defs>
 <g id="figure_1">
  <g id="patch_1">
   <path d="M 0 345.6 
L 460.8 345.6 
L 460.8 0 
L 0 0 
z
" style="fill: #ffffff"/>
  </g>
  <g id="axes_1">
   <g id="patch_2">
    <path d="M 56.928125 304.44375 
L 450 304.44375 
L 450 25.918125 
L 56.928125 25.918125 
z
" style="fill: #ffffff"/>
   </g>
   <g id="matplotlib.axis_1">
    <g id="xtick_1">
     <g id="line2d_1">
      <path d="M 74.795028 304.44375 
L 74.795028 25.918125 
" clip-path="url(#pfeac01a169)" style="fill: none; stroke: #b0b0b0; stroke-width: 0.8; stroke-linecap: square"/>
     </g>
     <g id="line2d_2">
      <defs>
       <path id="m4ad7308648" d="M 0 0 
L 0 3.5 
" style="stroke: #000000; stroke-width: 0.8"/>
      </defs>
      <g>
       <use xlink:href="#m4ad7308648" x="74.795028" y="304.44375" style="stroke: #000000; stroke-width: 0.8"/>
      </g>
     </g>
     <g id="text_1">
      <!-- 0 -->
      <g transform="translate(71.613778 319.042187)scale(0.1 -0.1)">
       <defs>
        <path id="DejaVuSans-30" d="M 2034 4250 
Q 1547 4250 1301 3770 
Q 1056 3291 1056 2328 
Q 1056 1369 1301 889 
Q 1547 409 2034 409 
Q 2525 409 2770 889 
Q 3016 1369 3016 2328 
Q 3016 3291 2770 3770 
Q 2525 4250 2034 4250 
z
M 2034 4750 
Q 2819 4750 3233 4129 
Q 3647 3509 3647 2328 
Q 3647 1150 3233 529 
Q 2819 -91 2034 -91 
Q 1250 -91 836 529 
Q 422 1150 422 2328 
Q 422 3509 836 4129 
Q 1250 4750 2034 4750 
z
" transform="scale(0.015625)"/>
       </defs>
       <use xlink:href="#DejaVuSans-30"/>
      </g>
     </g>
    </g>
    <g id="xtick_2">
     <g id="line2d_3">
      <path d="M 154.203488 304.44375 
L 154.203488 25.918125 
" clip-path="url(#pfeac01a169)" style="fill: none; stroke: #b0b0b0; stroke-width: 0.8; stroke-linecap: square"/>
     </g>
     <g id="line2d_4">
      <g>
       <use xlink:href="#m4ad7308648" x="154.203488" y="304.44375" style="stroke: #000000; stroke-width: 0.8"/>
      </g>
     </g>
     <g id="text_2">
      <!-- 100 -->
      <g transform="translate(144.659738 319.042187)scale(0.1 -0.1)">
       <defs>
        <path id="DejaVuSans-31" d="M 794 531 
L 1825 531 
L 1825 4091 
L 703 3866 
L 703 4441 
L 1819 4666 
L 2450 4666 
L 2450 531 
L 3481 531 
L 3481 0 
L 794 0 
L 794 531 
z
" transform="scale(0.015625)"/>
       </defs>
       <use xlink:href="#DejaVuSans-31"/>
       <use xlink:href="#DejaVuSans-30" x="63.623047"/>
       <use xlink:href="#DejaVuSans-30" x="127.246094"/>
      </g>
     </g>
    </g>
    <g id="xtick_3">
     <g id="line2d_5">
      <path d="M 233.611948 304.44375 
L 233.611948 25.918125 
" clip-path="url(#pfeac01a169)" style="fill: none; stroke: #b0b0b0; stroke-width: 0.8; stroke-linecap: square"/>
     </g>
     <g id="line2d_6">
      <g>
       <use xlink:href="#m4ad7308648" x="233.611948" y="304.44375" style="stroke: #000000; stroke-width: 0.8"/>
      </g>
     </g>
     <g id="text_3">
      <!-- 200 -->
      <g transform="translate(224.068198 319.042187)scale(0.1 -0.1)">
       <defs>
        <path id="DejaVuSans-32" d="M 1228 531 
L 3431 531 
L 3431 0 
L 469 0 
L 469 531 
Q 828 903 1448 1529 
Q 2069 2156 2228 2338 
Q 2531 2678 2651 2914 
Q 2772 3150 2772 3378 
Q 2772 3750 2511 3984 
Q 2250 4219 1831 4219 
Q 1534 4219 1204 4116 
Q 875 4013 500 3803 
L 500 4441 
Q 881 4594 1212 4672 
Q 1544 4750 1819 4750 
Q 2544 4750 2975 4387 
Q 3406 4025 3406 3419 
Q 3406 3131 3298 2873 
Q 3191 2616 2906 2266 
Q 2828 2175 2409 1742 
Q 1991 1309 1228 531 
z
" transform="scale(0.015625)"/>
       </defs>
       <use xlink:href="#DejaVuSans-32"/>
       <use xlink:href="#DejaVuSans-30" x="63.623047"/>
       <use xlink:href="#DejaVuSans-30" x="127.246094"/>
      </g>
     </g>
    </g>
    <g id="xtick_4">
     <g id="line2d_7">
      <path d="M 313.020407 304.44375 
L 313.020407 25.918125 
" clip-path="url(#pfeac01a169)" style="fill: none; stroke: #b0b0b0; stroke-width: 0.8; stroke-linecap: square"/>
     </g>
     <g id="line2d_8">
      <g>
       <use xlink:href="#m4ad7308648" x="313.020407" y="304.44375" style="stroke: #000000; stroke-width: 0.8"/>
      </g>
     </g>
     <g id="text_4">
      <!-- 300 -->
      <g transform="translate(303.476657 319.042187)scale(0.1 -0.1)">
       <defs>
        <path id="DejaVuSans-33" d="M 2597 2516 
Q 3050 2419 3304 2112 
Q 3559 1806 3559 1356 
Q 3559 666 3084 287 
Q 2609 -91 1734 -91 
Q 1441 -91 1130 -33 
Q 819 25 488 141 
L 488 750 
Q 750 597 1062 519 
Q 1375 441 1716 441 
Q 2309 441 2620 675 
Q 2931 909 2931 1356 
Q 2931 1769 2642 2001 
Q 2353 2234 1838 2234 
L 1294 2234 
L 1294 2753 
L 1863 2753 
Q 2328 2753 2575 2939 
Q 2822 3125 2822 3475 
Q 2822 3834 2567 4026 
Q 2313 4219 1838 4219 
Q 1578 4219 1281 4162 
Q 984 4106 628 3988 
L 628 4550 
Q 988 4650 1302 4700 
Q 1616 4750 1894 4750 
Q 2613 4750 3031 4423 
Q 3450 4097 3450 3541 
Q 3450 3153 3228 2886 
Q 3006 2619 2597 2516 
z
" transform="scale(0.015625)"/>
       </defs>
       <use xlink:href="#DejaVuSans-33"/>
       <use xlink:href="#DejaVuSans-30" x="63.623047"/>
       <use xlink:href="#DejaVuSans-30" x="127.246094"/>
      </g>
     </g>
    </g>
    <g id="xtick_5">
     <g id="line2d_9">
      <path d="M 392.428867 304.44375 
L 392.428867 25.918125 
" clip-path="url(#pfeac01a169)" style="fill: none; stroke: #b0b0b0; stroke-width: 0.8; stroke-linecap: square"/>
     </g>
     <g id="line2d_10">
      <g>
       <use xlink:href="#m4ad7308648" x="392.428867" y="304.44375" style="stroke: #000000; stroke-width: 0.8"/>
      </g>
     </g>
     <g id="text_5">
      <!-- 400 -->
      <g transform="translate(382.885117 319.042187)scale(0.1 -0.1)">
       <defs>
        <path id="DejaVuSans-34" d="M 2419 4116 
L 825 1625 
L 2419 1625 
L 2419 4116 
z
M 2253 4666 
L 3047 4666 
L 3047 1625 
L 3713 1625 
L 3713 1100 
L 3047 1100 
L 3047 0 
L 2419 0 
L 2419 1100 
L 313 1100 
L 313 1709 
L 2253 4666 
z
" transform="scale(0.015625)"/>
       </defs>
       <use xlink:href="#DejaVuSans-34"/>
       <use xlink:href="#DejaVuSans-30" x="63.623047"/>
       <use xlink:href="#DejaVuSans-30" x="127.246094"/>
      </g>
     </g>
    </g>
    <g id="text_6">
     <!-- Translational Position [mm] -->
     <g transform="translate(185.486719 332.720312)scale(0.1 -0.1)">
      <defs>
       <path id="DejaVuSans-54" d="M -19 4666 
L 3928 4666 
L 3928 4134 
L 2272 4134 
L 2272 0 
L 1638 0 
L 1638 4134 
L -19 4134 
L -19 4666 
z
" transform="scale(0.015625)"/>
       <path id="DejaVuSans-72" d="M 2631 2963 
Q 2534 3019 2420 3045 
Q 2306 3072 2169 3072 
Q 1681 3072 1420 2755 
Q 1159 2438 1159 1844 
L 1159 0 
L 581 0 
L 581 3500 
L 1159 3500 
L 1159 2956 
Q 1341 3275 1631 3429 
Q 1922 3584 2338 3584 
Q 2397 3584 2469 3576 
Q 2541 3569 2628 3553 
L 2631 2963 
z
" transform="scale(0.015625)"/>
       <path id="DejaVuSans-61" d="M 2194 1759 
Q 1497 1759 1228 1600 
Q 959 1441 959 1056 
Q 959 750 1161 570 
Q 1363 391 1709 391 
Q 2188 391 2477 730 
Q 2766 1069 2766 1631 
L 2766 1759 
L 2194 1759 
z
M 3341 1997 
L 3341 0 
L 2766 0 
L 2766 531 
Q 2569 213 2275 61 
Q 1981 -91 1556 -91 
Q 1019 -91 701 211 
Q 384 513 384 1019 
Q 384 1609 779 1909 
Q 1175 2209 1959 2209 
L 2766 2209 
L 2766 2266 
Q 2766 2663 2505 2880 
Q 2244 3097 1772 3097 
Q 1472 3097 1187 3025 
Q 903 2953 641 2809 
L 641 3341 
Q 956 3463 1253 3523 
Q 1550 3584 1831 3584 
Q 2591 3584 2966 3190 
Q 3341 2797 3341 1997 
z
" transform="scale(0.015625)"/>
       <path id="DejaVuSans-6e" d="M 3513 2113 
L 3513 0 
L 2938 0 
L 2938 2094 
Q 2938 2591 2744 2837 
Q 2550 3084 2163 3084 
Q 1697 3084 1428 2787 
Q 1159 2491 1159 1978 
L 1159 0 
L 581 0 
L 581 3500 
L 1159 3500 
L 1159 2956 
Q 1366 3272 1645 3428 
Q 1925 3584 2291 3584 
Q 2894 3584 3203 3211 
Q 3513 2838 3513 2113 
z
" transform="scale(0.015625)"/>
       <path id="DejaVuSans-73" d="M 2834 3397 
L 2834 2853 
Q 2591 2978 2328 3040 
Q 2066 3103 1784 3103 
Q 1356 3103 1142 2972 
Q 928 2841 928 2578 
Q 928 2378 1081 2264 
Q 1234 2150 1697 2047 
L 1894 2003 
Q 2506 1872 2764 1633 
Q 3022 1394 3022 966 
Q 3022 478 2636 193 
Q 2250 -91 1575 -91 
Q 1294 -91 989 -36 
Q 684 19 347 128 
L 347 722 
Q 666 556 975 473 
Q 1284 391 1588 391 
Q 1994 391 2212 530 
Q 2431 669 2431 922 
Q 2431 1156 2273 1281 
Q 2116 1406 1581 1522 
L 1381 1569 
Q 847 1681 609 1914 
Q 372 2147 372 2553 
Q 372 3047 722 3315 
Q 1072 3584 1716 3584 
Q 2034 3584 2315 3537 
Q 2597 3491 2834 3397 
z
" transform="scale(0.015625)"/>
       <path id="DejaVuSans-6c" d="M 603 4863 
L 1178 4863 
L 1178 0 
L 603 0 
L 603 4863 
z
" transform="scale(0.015625)"/>
       <path id="DejaVuSans-74" d="M 1172 4494 
L 1172 3500 
L 2356 3500 
L 2356 3053 
L 1172 3053 
L 1172 1153 
Q 1172 725 1289 603 
Q 1406 481 1766 481 
L 2356 481 
L 2356 0 
L 1766 0 
Q 1100 0 847 248 
Q 594 497 594 1153 
L 594 3053 
L 172 3053 
L 172 3500 
L 594 3500 
L 594 4494 
L 1172 4494 
z
" transform="scale(0.015625)"/>
       <path id="DejaVuSans-69" d="M 603 3500 
L 1178 3500 
L 1178 0 
L 603 0 
L 603 3500 
z
M 603 4863 
L 1178 4863 
L 1178 4134 
L 603 4134 
L 603 4863 
z
" transform="scale(0.015625)"/>
       <path id="DejaVuSans-6f" d="M 1959 3097 
Q 1497 3097 1228 2736 
Q 959 2375 959 1747 
Q 959 1119 1226 758 
Q 1494 397 1959 397 
Q 2419 397 2687 759 
Q 2956 1122 2956 1747 
Q 2956 2369 2687 2733 
Q 2419 3097 1959 3097 
z
M 1959 3584 
Q 2709 3584 3137 3096 
Q 3566 2609 3566 1747 
Q 3566 888 3137 398 
Q 2709 -91 1959 -91 
Q 1206 -91 779 398 
Q 353 888 353 1747 
Q 353 2609 779 3096 
Q 1206 3584 1959 3584 
z
" transform="scale(0.015625)"/>
       <path id="DejaVuSans-20" transform="scale(0.015625)"/>
       <path id="DejaVuSans-50" d="M 1259 4147 
L 1259 2394 
L 2053 2394 
Q 2494 2394 2734 2622 
Q 2975 2850 2975 3272 
Q 2975 3691 2734 3919 
Q 2494 4147 2053 4147 
L 1259 4147 
z
M 628 4666 
L 2053 4666 
Q 2838 4666 3239 4311 
Q 3641 3956 3641 3272 
Q 3641 2581 3239 2228 
Q 2838 1875 2053 1875 
L 1259 1875 
L 1259 0 
L 628 0 
L 628 4666 
z
" transform="scale(0.015625)"/>
       <path id="DejaVuSans-5b" d="M 550 4863 
L 1875 4863 
L 1875 4416 
L 1125 4416 
L 1125 -397 
L 1875 -397 
L 1875 -844 
L 550 -844 
L 550 4863 
z
" transform="scale(0.015625)"/>
       <path id="DejaVuSans-6d" d="M 3328 2828 
Q 3544 3216 3844 3400 
Q 4144 3584 4550 3584 
Q 5097 3584 5394 3201 
Q 5691 2819 5691 2113 
L 5691 0 
L 5113 0 
L 5113 2094 
Q 5113 2597 4934 2840 
Q 4756 3084 4391 3084 
Q 3944 3084 3684 2787 
Q 3425 2491 3425 1978 
L 3425 0 
L 2847 0 
L 2847 2094 
Q 2847 2600 2669 2842 
Q 2491 3084 2119 3084 
Q 1678 3084 1418 2786 
Q 1159 2488 1159 1978 
L 1159 0 
L 581 0 
L 581 3500 
L 1159 3500 
L 1159 2956 
Q 1356 3278 1631 3431 
Q 1906 3584 2284 3584 
Q 2666 3584 2933 3390 
Q 3200 3197 3328 2828 
z
" transform="scale(0.015625)"/>
       <path id="DejaVuSans-5d" d="M 1947 4863 
L 1947 -844 
L 622 -844 
L 622 -397 
L 1369 -397 
L 1369 4416 
L 622 4416 
L 622 4863 
L 1947 4863 
z
" transform="scale(0.015625)"/>
      </defs>
      <use xlink:href="#DejaVuSans-54"/>
      <use xlink:href="#DejaVuSans-72" x="46.333984"/>
      <use xlink:href="#DejaVuSans-61" x="87.447266"/>
      <use xlink:href="#DejaVuSans-6e" x="148.726562"/>
      <use xlink:href="#DejaVuSans-73" x="212.105469"/>
      <use xlink:href="#DejaVuSans-6c" x="264.205078"/>
      <use xlink:href="#DejaVuSans-61" x="291.988281"/>
      <use xlink:href="#DejaVuSans-74" x="353.267578"/>
      <use xlink:href="#DejaVuSans-69" x="392.476562"/>
      <use xlink:href="#DejaVuSans-6f" x="420.259766"/>
      <use xlink:href="#DejaVuSans-6e" x="481.441406"/>
      <use xlink:href="#DejaVuSans-61" x="544.820312"/>
      <use xlink:href="#DejaVuSans-6c" x="606.099609"/>
      <use xlink:href="#DejaVuSans-20" x="633.882812"/>
      <use xlink:href="#DejaVuSans-50" x="665.669922"/>
      <use xlink:href="#DejaVuSans-6f" x="722.347656"/>
      <use xlink:href="#DejaVuSans-73" x="783.529297"/>
      <use xlink:href="#DejaVuSans-69" x="835.628906"/>
      <use xlink:href="#DejaVuSans-74" x="863.412109"/>
      <use xlink:href="#DejaVuSans-69" x="902.621094"/>
      <use xlink:href="#DejaVuSans-6f" x="930.404297"/>
      <use xlink:href="#DejaVuSans-6e" x="991.585938"/>
      <use xlink:href="#DejaVuSans-20" x="1054.964844"/>
      <use xlink:href="#DejaVuSans-5b" x="1086.751953"/>
      <use xlink:href="#DejaVuSans-6d" x="1125.765625"/>
      <use xlink:href="#DejaVuSans-6d" x="1223.177734"/>
      <use xlink:href="#DejaVuSans-5d" x="1320.589844"/>
     </g>
    </g>
   </g>
   <g id="matplotlib.axis_2">
    <g id="ytick_1">
     <g id="line2d_11">
      <path d="M 56.928125 291.921933 
L 450 291.921933 
" clip-path="url(#pfeac01a169)" style="fill: none; stroke: #b0b0b0; stroke-width: 0.8; stroke-linecap: square"/>
     </g>
     <g id="line2d_12">
      <defs>
       <path id="m2ef565f7dd" d="M 0 0 
L -3.5 0 
" style="stroke: #000000; stroke-width: 0.8"/>
      </defs>
      <g>
       <use xlink:href="#m2ef565f7dd" x="56.928125" y="291.921933" style="stroke: #000000; stroke-width: 0.8"/>
      </g>
     </g>
     <g id="text_7">
      <!-- 0 -->
      <g transform="translate(43.565625 295.721152)scale(0.1 -0.1)">
       <use xlink:href="#DejaVuSans-30"/>
      </g>
     </g>
    </g>
    <g id="ytick_2">
     <g id="line2d_13">
      <path d="M 56.928125 257.312158 
L 450 257.312158 
" clip-path="url(#pfeac01a169)" style="fill: none; stroke: #b0b0b0; stroke-width: 0.8; stroke-linecap: square"/>
     </g>
     <g id="line2d_14">
      <g>
       <use xlink:href="#m2ef565f7dd" x="56.928125" y="257.312158" style="stroke: #000000; stroke-width: 0.8"/>
      </g>
     </g>
     <g id="text_8">
      <!-- 250 -->
      <g transform="translate(30.840625 261.111377)scale(0.1 -0.1)">
       <defs>
        <path id="DejaVuSans-35" d="M 691 4666 
L 3169 4666 
L 3169 4134 
L 1269 4134 
L 1269 2991 
Q 1406 3038 1543 3061 
Q 1681 3084 1819 3084 
Q 2600 3084 3056 2656 
Q 3513 2228 3513 1497 
Q 3513 744 3044 326 
Q 2575 -91 1722 -91 
Q 1428 -91 1123 -41 
Q 819 9 494 109 
L 494 744 
Q 775 591 1075 516 
Q 1375 441 1709 441 
Q 2250 441 2565 725 
Q 2881 1009 2881 1497 
Q 2881 1984 2565 2268 
Q 2250 2553 1709 2553 
Q 1456 2553 1204 2497 
Q 953 2441 691 2322 
L 691 4666 
z
" transform="scale(0.015625)"/>
       </defs>
       <use xlink:href="#DejaVuSans-32"/>
       <use xlink:href="#DejaVuSans-35" x="63.623047"/>
       <use xlink:href="#DejaVuSans-30" x="127.246094"/>
      </g>
     </g>
    </g>
    <g id="ytick_3">
     <g id="line2d_15">
      <path d="M 56.928125 222.702383 
L 450 222.702383 
" clip-path="url(#pfeac01a169)" style="fill: none; stroke: #b0b0b0; stroke-width: 0.8; stroke-linecap: square"/>
     </g>
     <g id="line2d_16">
      <g>
       <use xlink:href="#m2ef565f7dd" x="56.928125" y="222.702383" style="stroke: #000000; stroke-width: 0.8"/>
      </g>
     </g>
     <g id="text_9">
      <!-- 500 -->
      <g transform="translate(30.840625 226.501602)scale(0.1 -0.1)">
       <use xlink:href="#DejaVuSans-35"/>
       <use xlink:href="#DejaVuSans-30" x="63.623047"/>
       <use xlink:href="#DejaVuSans-30" x="127.246094"/>
      </g>
     </g>
    </g>
    <g id="ytick_4">
     <g id="line2d_17">
      <path d="M 56.928125 188.092609 
L 450 188.092609 
" clip-path="url(#pfeac01a169)" style="fill: none; stroke: #b0b0b0; stroke-width: 0.8; stroke-linecap: square"/>
     </g>
     <g id="line2d_18">
      <g>
       <use xlink:href="#m2ef565f7dd" x="56.928125" y="188.092609" style="stroke: #000000; stroke-width: 0.8"/>
      </g>
     </g>
     <g id="text_10">
      <!-- 750 -->
      <g transform="translate(30.840625 191.891827)scale(0.1 -0.1)">
       <defs>
        <path id="DejaVuSans-37" d="M 525 4666 
L 3525 4666 
L 3525 4397 
L 1831 0 
L 1172 0 
L 2766 4134 
L 525 4134 
L 525 4666 
z
" transform="scale(0.015625)"/>
       </defs>
       <use xlink:href="#DejaVuSans-37"/>
       <use xlink:href="#DejaVuSans-35" x="63.623047"/>
       <use xlink:href="#DejaVuSans-30" x="127.246094"/>
      </g>
     </g>
    </g>
    <g id="ytick_5">
     <g id="line2d_19">
      <path d="M 56.928125 153.482834 
L 450 153.482834 
" clip-path="url(#pfeac01a169)" style="fill: none; stroke: #b0b0b0; stroke-width: 0.8; stroke-linecap: square"/>
     </g>
     <g id="line2d_20">
      <g>
       <use xlink:href="#m2ef565f7dd" x="56.928125" y="153.482834" style="stroke: #000000; stroke-width: 0.8"/>
      </g>
     </g>
     <g id="text_11">
      <!-- 1000 -->
      <g transform="translate(24.478125 157.282052)scale(0.1 -0.1)">
       <use xlink:href="#DejaVuSans-31"/>
       <use xlink:href="#DejaVuSans-30" x="63.623047"/>
       <use xlink:href="#DejaVuSans-30" x="127.246094"/>
       <use xlink:href="#DejaVuSans-30" x="190.869141"/>
      </g>
     </g>
    </g>
    <g id="ytick_6">
     <g id="line2d_21">
      <path d="M 56.928125 118.873059 
L 450 118.873059 
" clip-path="url(#pfeac01a169)" style="fill: none; stroke: #b0b0b0; stroke-width: 0.8; stroke-linecap: square"/>
     </g>
     <g id="line2d_22">
      <g>
       <use xlink:href="#m2ef565f7dd" x="56.928125" y="118.873059" style="stroke: #000000; stroke-width: 0.8"/>
      </g>
     </g>
     <g id="text_12">
      <!-- 1250 -->
      <g transform="translate(24.478125 122.672277)scale(0.1 -0.1)">
       <use xlink:href="#DejaVuSans-31"/>
       <use xlink:href="#DejaVuSans-32" x="63.623047"/>
       <use xlink:href="#DejaVuSans-35" x="127.246094"/>
       <use xlink:href="#DejaVuSans-30" x="190.869141"/>
      </g>
     </g>
    </g>
    <g id="ytick_7">
     <g id="line2d_23">
      <path d="M 56.928125 84.263284 
L 450 84.263284 
" clip-path="url(#pfeac01a169)" style="fill: none; stroke: #b0b0b0; stroke-width: 0.8; stroke-linecap: square"/>
     </g>
     <g id="line2d_24">
      <g>
       <use xlink:href="#m2ef565f7dd" x="56.928125" y="84.263284" style="stroke: #000000; stroke-width: 0.8"/>
      </g>
     </g>
     <g id="text_13">
      <!-- 1500 -->
      <g transform="translate(24.478125 88.062502)scale(0.1 -0.1)">
       <use xlink:href="#DejaVuSans-31"/>
       <use xlink:href="#DejaVuSans-35" x="63.623047"/>
       <use xlink:href="#DejaVuSans-30" x="127.246094"/>
       <use xlink:href="#DejaVuSans-30" x="190.869141"/>
      </g>
     </g>
    </g>
    <g id="ytick_8">
     <g id="line2d_25">
      <path d="M 56.928125 49.653509 
L 450 49.653509 
" clip-path="url(#pfeac01a169)" style="fill: none; stroke: #b0b0b0; stroke-width: 0.8; stroke-linecap: square"/>
     </g>
     <g id="line2d_26">
      <g>
       <use xlink:href="#m2ef565f7dd" x="56.928125" y="49.653509" style="stroke: #000000; stroke-width: 0.8"/>
      </g>
     </g>
     <g id="text_14">
      <!-- 1750 -->
      <g transform="translate(24.478125 53.452727)scale(0.1 -0.1)">
       <use xlink:href="#DejaVuSans-31"/>
       <use xlink:href="#DejaVuSans-37" x="63.623047"/>
       <use xlink:href="#DejaVuSans-35" x="127.246094"/>
       <use xlink:href="#DejaVuSans-30" x="190.869141"/>
      </g>
     </g>
    </g>
    <g id="text_15">
     <!-- Reflector Raw Value -->
     <g transform="translate(18.398438 214.980937)rotate(-90)scale(0.1 -0.1)">
      <defs>
       <path id="DejaVuSans-52" d="M 2841 2188 
Q 3044 2119 3236 1894 
Q 3428 1669 3622 1275 
L 4263 0 
L 3584 0 
L 2988 1197 
Q 2756 1666 2539 1819 
Q 2322 1972 1947 1972 
L 1259 1972 
L 1259 0 
L 628 0 
L 628 4666 
L 2053 4666 
Q 2853 4666 3247 4331 
Q 3641 3997 3641 3322 
Q 3641 2881 3436 2590 
Q 3231 2300 2841 2188 
z
M 1259 4147 
L 1259 2491 
L 2053 2491 
Q 2509 2491 2742 2702 
Q 2975 2913 2975 3322 
Q 2975 3731 2742 3939 
Q 2509 4147 2053 4147 
L 1259 4147 
z
" transform="scale(0.015625)"/>
       <path id="DejaVuSans-65" d="M 3597 1894 
L 3597 1613 
L 953 1613 
Q 991 1019 1311 708 
Q 1631 397 2203 397 
Q 2534 397 2845 478 
Q 3156 559 3463 722 
L 3463 178 
Q 3153 47 2828 -22 
Q 2503 -91 2169 -91 
Q 1331 -91 842 396 
Q 353 884 353 1716 
Q 353 2575 817 3079 
Q 1281 3584 2069 3584 
Q 2775 3584 3186 3129 
Q 3597 2675 3597 1894 
z
M 3022 2063 
Q 3016 2534 2758 2815 
Q 2500 3097 2075 3097 
Q 1594 3097 1305 2825 
Q 1016 2553 972 2059 
L 3022 2063 
z
" transform="scale(0.015625)"/>
       <path id="DejaVuSans-66" d="M 2375 4863 
L 2375 4384 
L 1825 4384 
Q 1516 4384 1395 4259 
Q 1275 4134 1275 3809 
L 1275 3500 
L 2222 3500 
L 2222 3053 
L 1275 3053 
L 1275 0 
L 697 0 
L 697 3053 
L 147 3053 
L 147 3500 
L 697 3500 
L 697 3744 
Q 697 4328 969 4595 
Q 1241 4863 1831 4863 
L 2375 4863 
z
" transform="scale(0.015625)"/>
       <path id="DejaVuSans-63" d="M 3122 3366 
L 3122 2828 
Q 2878 2963 2633 3030 
Q 2388 3097 2138 3097 
Q 1578 3097 1268 2742 
Q 959 2388 959 1747 
Q 959 1106 1268 751 
Q 1578 397 2138 397 
Q 2388 397 2633 464 
Q 2878 531 3122 666 
L 3122 134 
Q 2881 22 2623 -34 
Q 2366 -91 2075 -91 
Q 1284 -91 818 406 
Q 353 903 353 1747 
Q 353 2603 823 3093 
Q 1294 3584 2113 3584 
Q 2378 3584 2631 3529 
Q 2884 3475 3122 3366 
z
" transform="scale(0.015625)"/>
       <path id="DejaVuSans-77" d="M 269 3500 
L 844 3500 
L 1563 769 
L 2278 3500 
L 2956 3500 
L 3675 769 
L 4391 3500 
L 4966 3500 
L 4050 0 
L 3372 0 
L 2619 2869 
L 1863 0 
L 1184 0 
L 269 3500 
z
" transform="scale(0.015625)"/>
       <path id="DejaVuSans-56" d="M 1831 0 
L 50 4666 
L 709 4666 
L 2188 738 
L 3669 4666 
L 4325 4666 
L 2547 0 
L 1831 0 
z
" transform="scale(0.015625)"/>
       <path id="DejaVuSans-75" d="M 544 1381 
L 544 3500 
L 1119 3500 
L 1119 1403 
Q 1119 906 1312 657 
Q 1506 409 1894 409 
Q 2359 409 2629 706 
Q 2900 1003 2900 1516 
L 2900 3500 
L 3475 3500 
L 3475 0 
L 2900 0 
L 2900 538 
Q 2691 219 2414 64 
Q 2138 -91 1772 -91 
Q 1169 -91 856 284 
Q 544 659 544 1381 
z
M 1991 3584 
L 1991 3584 
z
" transform="scale(0.015625)"/>
      </defs>
      <use xlink:href="#DejaVuSans-52"/>
      <use xlink:href="#DejaVuSans-65" x="64.982422"/>
      <use xlink:href="#DejaVuSans-66" x="126.505859"/>
      <use xlink:href="#DejaVuSans-6c" x="161.710938"/>
      <use xlink:href="#DejaVuSans-65" x="189.494141"/>
      <use xlink:href="#DejaVuSans-63" x="251.017578"/>
      <use xlink:href="#DejaVuSans-74" x="305.998047"/>
      <use xlink:href="#DejaVuSans-6f" x="345.207031"/>
      <use xlink:href="#DejaVuSans-72" x="406.388672"/>
      <use xlink:href="#DejaVuSans-20" x="447.501953"/>
      <use xlink:href="#DejaVuSans-52" x="479.289062"/>
      <use xlink:href="#DejaVuSans-61" x="546.521484"/>
      <use xlink:href="#DejaVuSans-77" x="607.800781"/>
      <use xlink:href="#DejaVuSans-20" x="689.587891"/>
      <use xlink:href="#DejaVuSans-56" x="721.375"/>
      <use xlink:href="#DejaVuSans-61" x="782.033203"/>
      <use xlink:href="#DejaVuSans-6c" x="843.3125"/>
      <use xlink:href="#DejaVuSans-75" x="871.095703"/>
      <use xlink:href="#DejaVuSans-65" x="934.474609"/>
     </g>
    </g>
   </g>
   <g id="line2d_27">
    <path d="M 74.795028 291.783494 
L 84.967252 291.783494 
L 85.721632 288.045639 
L 86.110734 286.107491 
L 86.499835 284.999978 
L 88.540633 271.017629 
L 89.82705 259.804062 
L 91.14523 246.23703 
L 93.86894 212.181012 
L 94.798019 203.32091 
L 95.735039 195.014564 
L 96.203549 191.830464 
L 97.156451 187.538852 
L 97.624961 187.538852 
L 98.101411 187.677291 
L 98.577862 188.231048 
L 99.054313 190.446073 
L 100.007214 197.506467 
L 102.389468 228.516826 
L 103.81882 249.836447 
L 104.771722 262.157527 
L 105.724623 271.986703 
L 106.677525 278.354902 
L 107.153976 280.431488 
L 107.630426 281.400562 
L 108.106877 282.784953 
L 108.583328 283.754027 
L 109.536229 285.138418 
L 110.01268 285.138418 
L 110.489131 285.276857 
L 110.965582 285.138418 
L 111.442033 285.276857 
L 114.300737 285.276857 
L 114.777188 285.138418 
L 115.253639 285.138418 
L 115.730089 284.861539 
L 116.20654 285.138418 
L 116.682991 284.999978 
L 117.635892 284.999978 
L 118.112343 284.446222 
L 118.588794 284.307783 
L 119.065245 284.307783 
L 119.541695 284.7231 
L 120.018146 284.584661 
L 120.494597 284.307783 
L 120.971048 283.892466 
L 121.447498 284.030905 
L 121.923949 283.615587 
L 122.4004 283.477148 
L 122.876851 283.477148 
L 123.353301 283.338709 
L 123.829752 283.061831 
L 124.306203 283.20027 
L 124.782654 282.923392 
L 125.259104 282.923392 
L 126.212006 282.369636 
L 126.688457 282.231196 
L 127.164908 282.369636 
L 127.641358 281.815879 
L 128.59426 281.539001 
L 129.070711 280.985245 
L 129.547161 281.123684 
L 130.023612 280.846805 
L 130.500063 281.123684 
L 131.452964 280.846805 
L 132.405866 280.846805 
L 132.882317 280.569927 
L 133.835218 279.047097 
L 134.311669 279.323975 
L 135.26457 278.63178 
L 135.741021 278.770219 
L 136.217472 278.493341 
L 136.693923 277.939584 
L 137.170373 278.078023 
L 137.646824 277.801145 
L 138.123275 277.10895 
L 139.076176 276.555193 
L 139.552627 276.416754 
L 140.029078 276.416754 
L 140.505529 276.139876 
L 140.981979 275.724559 
L 141.45843 274.893924 
L 141.934881 275.032363 
L 143.840684 273.509533 
L 144.317135 272.40202 
L 144.793586 271.986703 
L 145.270036 271.986703 
L 147.175839 270.186995 
L 147.65229 269.633238 
L 148.128741 269.35636 
L 148.605192 268.525726 
L 149.558093 267.556652 
L 150.034544 267.556652 
L 151.463896 265.618504 
L 151.940347 265.341626 
L 152.416798 264.510992 
L 153.369699 263.680357 
L 154.838756 261.603771 
L 155.315206 260.634697 
L 155.791657 260.496258 
L 156.268108 259.111867 
L 157.221009 258.419671 
L 158.173911 256.619963 
L 158.650362 256.204646 
L 159.126812 255.51245 
L 159.603263 254.543376 
L 160.079714 254.128059 
L 160.556165 253.020546 
L 161.032616 252.46679 
L 161.985517 250.528643 
L 162.461968 249.836447 
L 162.938419 248.867373 
L 163.414869 247.621421 
L 163.89132 246.929226 
L 164.367771 245.683274 
L 164.844222 245.406396 
L 165.320672 243.883566 
L 165.797123 243.052931 
L 167.226475 239.730393 
L 167.702926 239.176636 
L 168.655828 236.684733 
L 169.608729 234.331268 
L 170.08518 232.946877 
L 170.561631 232.116242 
L 171.038081 230.178095 
L 171.514532 229.624338 
L 171.990983 227.82463 
L 172.467434 226.855556 
L 173.420335 223.533018 
L 173.896786 222.840823 
L 174.373237 220.21048 
L 175.326138 217.164819 
L 175.802589 214.811355 
L 178.184843 207.750961 
L 181.043547 196.537394 
L 181.91704 192.245782 
L 182.393491 190.446073 
L 185.728646 172.587429 
L 188.587351 157.636007 
L 189.063802 156.113176 
L 189.540253 153.205955 
L 190.016703 152.098443 
L 190.493154 148.637465 
L 190.969605 147.94527 
L 191.922506 143.515218 
L 192.398957 141.577071 
L 192.875408 140.469558 
L 193.351859 138.392972 
L 193.828309 136.870142 
L 195.257662 130.225065 
L 195.734112 130.086626 
L 196.687014 125.795014 
L 197.163465 124.82594 
L 197.639915 121.78028 
L 198.116366 120.395889 
L 198.592817 116.242716 
L 199.545718 105.582905 
L 200.022169 108.074809 
L 200.49862 108.351687 
L 200.975071 108.490126 
L 201.451521 106.690418 
L 201.927972 107.382613 
L 202.404423 107.382613 
L 202.880874 110.566713 
L 203.357324 114.996764 
L 204.310226 130.640382 
L 208.121832 230.731851 
L 209.074734 247.759861 
L 210.027635 261.465331 
L 210.504086 267.556652 
L 211.456987 276.278315 
L 212.409889 280.846805 
L 212.88634 283.061831 
L 213.36279 284.446222 
L 213.839241 285.276857 
L 214.792143 285.830613 
L 215.745044 286.799687 
L 216.221495 286.661248 
L 216.697946 286.799687 
L 217.174396 287.215004 
L 217.650847 286.938126 
L 218.127298 286.799687 
L 218.603749 286.938126 
L 219.55665 286.661248 
L 220.509552 286.107491 
L 220.986003 286.24593 
L 221.462453 286.107491 
L 221.938904 285.830613 
L 222.415355 286.24593 
L 222.891806 285.692174 
L 223.368256 285.553735 
L 223.844707 285.276857 
L 224.321158 285.415296 
L 225.75051 285.415296 
L 226.226961 285.276857 
L 226.703412 285.276857 
L 227.179862 285.138418 
L 227.656313 285.276857 
L 228.132764 284.861539 
L 228.609215 284.7231 
L 229.085665 284.030905 
L 229.562116 283.754027 
L 230.038567 284.030905 
L 230.515018 283.892466 
L 230.991468 283.477148 
L 232.420821 283.061831 
L 232.897271 283.061831 
L 233.373722 282.923392 
L 234.803074 282.092757 
L 235.279525 282.092757 
L 235.755976 281.539001 
L 236.232427 281.954318 
L 236.708878 281.123684 
L 237.185328 281.123684 
L 238.614681 280.708366 
L 239.091131 280.15461 
L 239.567582 280.016171 
L 240.044033 279.462414 
L 240.520484 279.600854 
L 240.996934 278.770219 
L 241.473385 278.63178 
L 242.426287 278.078023 
L 242.902737 277.939584 
L 243.379188 277.385828 
L 243.855639 277.247389 
L 244.33209 276.693632 
L 244.80854 276.416754 
L 245.284991 275.862998 
L 245.761442 275.58612 
L 246.237893 275.724559 
L 247.190794 274.201729 
L 247.667245 274.06329 
L 248.143696 273.786411 
L 249.096597 272.263581 
L 249.573048 271.986703 
L 250.049499 271.848264 
L 250.525949 271.432947 
L 251.0024 270.602312 
L 251.955302 269.771677 
L 253.384654 267.83353 
L 254.337556 267.141335 
L 254.814006 266.3107 
L 256.243359 264.78787 
L 256.719809 264.372553 
L 257.19626 263.403479 
L 257.672711 263.126601 
L 260.054965 259.527184 
L 260.531415 258.696549 
L 261.007866 258.55811 
L 262.437218 256.066207 
L 262.913669 255.51245 
L 263.39012 254.404937 
L 263.866571 253.98962 
L 264.819472 252.051473 
L 265.295923 251.220838 
L 265.772374 250.113325 
L 266.248824 249.698008 
L 267.201726 247.621421 
L 267.678177 247.206104 
L 271.489783 238.484441 
L 271.966234 237.792245 
L 272.442684 236.546293 
L 272.919135 235.715659 
L 273.395586 234.192829 
L 273.872037 233.362194 
L 274.824938 230.87029 
L 275.77784 228.101508 
L 276.25429 227.547752 
L 277.207192 224.086774 
L 277.683643 223.25614 
L 279.112995 217.857015 
L 279.589446 216.887941 
L 280.065896 214.672916 
L 280.542347 213.565403 
L 281.018798 211.627256 
L 281.495249 210.242865 
L 282.44815 206.505009 
L 282.924601 205.120618 
L 283.877503 201.105884 
L 284.353953 200.13681 
L 284.830404 197.09115 
L 285.306855 196.260515 
L 285.783306 194.04549 
L 286.259756 191.276708 
L 287.689109 184.631631 
L 288.165559 182.278166 
L 288.64201 178.955628 
L 289.118461 177.017481 
L 289.594912 173.833381 
L 290.071362 171.479917 
L 290.547813 168.157378 
L 291.024264 165.665474 
L 291.500715 161.65074 
L 291.977165 159.989471 
L 292.453616 156.805372 
L 292.930067 154.728785 
L 295.312321 141.023315 
L 296.741673 134.655116 
L 297.218124 131.747895 
L 297.694574 130.225065 
L 298.171025 127.456283 
L 298.647476 125.795014 
L 299.123927 123.579988 
L 299.600378 123.30311 
L 300.076828 121.226523 
L 300.553279 120.11901 
L 301.02973 117.765546 
L 301.506181 116.796472 
L 301.982631 113.750812 
L 302.459082 112.089543 
L 302.935533 109.597639 
L 303.411984 109.320761 
L 303.888434 108.074809 
L 304.364885 107.382613 
L 304.841336 105.859783 
L 305.317787 105.721344 
L 305.794237 107.797931 
L 306.270688 112.089543 
L 306.747139 117.627107 
L 307.22359 124.82594 
L 308.176491 146.422439 
L 310.082294 196.675833 
L 311.988097 242.222297 
L 312.940999 260.357819 
L 313.8939 274.06329 
L 314.370351 278.770219 
L 315.323253 284.584661 
L 316.276154 286.522809 
L 317.705506 287.76876 
L 318.181957 287.76876 
L 319.134859 288.876273 
L 319.611309 288.876273 
L 320.08776 289.014712 
L 320.564211 288.737834 
L 321.040662 289.153151 
L 321.517112 289.014712 
L 321.993563 289.014712 
L 322.470014 289.43003 
L 322.946465 289.43003 
L 323.422915 289.153151 
L 324.375817 288.876273 
L 324.852268 288.322517 
L 325.328718 288.045639 
L 325.805169 288.045639 
L 326.28162 287.76876 
L 326.758071 287.630321 
L 327.234521 287.353443 
L 327.710972 287.491882 
L 329.140324 287.076565 
L 329.616775 287.076565 
L 330.093226 286.522809 
L 330.569677 286.522809 
L 331.046128 285.692174 
L 331.522578 286.107491 
L 331.999029 285.553735 
L 332.951931 285.276857 
L 333.428381 285.276857 
L 335.334184 283.754027 
L 335.810635 283.477148 
L 336.287086 283.061831 
L 336.763537 283.061831 
L 337.239987 282.646514 
L 337.716438 282.646514 
L 338.192889 281.815879 
L 339.14579 281.123684 
L 339.622241 280.846805 
L 340.098692 280.846805 
L 341.051593 280.569927 
L 341.528044 279.739293 
L 342.004495 279.462414 
L 342.480946 278.908658 
L 343.910298 278.078023 
L 344.386749 277.247389 
L 344.863199 277.10895 
L 345.33965 276.416754 
L 345.816101 276.139876 
L 346.292552 275.724559 
L 346.769003 275.58612 
L 347.245453 274.617046 
L 348.674806 273.786411 
L 349.627707 272.955777 
L 350.104158 271.986703 
L 350.580609 271.986703 
L 354.392215 267.556652 
L 354.868665 267.279774 
L 355.345116 266.587578 
L 355.821567 266.3107 
L 356.298018 265.341626 
L 356.774468 264.926309 
L 357.250919 264.095674 
L 359.156722 261.880649 
L 359.633173 260.496258 
L 361.062525 258.696549 
L 361.538976 257.727476 
L 362.015427 257.312158 
L 362.491878 256.066207 
L 363.444779 254.266498 
L 363.92123 254.266498 
L 364.397681 252.882107 
L 364.874131 251.913034 
L 365.350582 251.636155 
L 366.303484 249.282691 
L 366.779934 248.867373 
L 367.256385 247.621421 
L 368.209287 245.821713 
L 368.685737 245.406396 
L 369.162188 244.022005 
L 369.638639 243.329809 
L 370.11509 241.806979 
L 371.067991 240.14571 
L 371.544442 238.899758 
L 372.020893 238.207563 
L 372.497343 236.546293 
L 373.450245 234.469707 
L 373.926696 232.53156 
L 374.403146 231.977803 
L 374.879597 230.316534 
L 375.356048 229.34746 
L 375.832499 227.686191 
L 376.308949 227.270874 
L 377.261851 223.25614 
L 379.167654 216.887941 
L 379.644105 215.088233 
L 380.120556 214.257598 
L 380.597006 212.596329 
L 381.073457 210.381304 
L 381.549908 209.273791 
L 382.026359 206.920326 
L 382.502809 205.535935 
L 384.885063 195.845198 
L 385.361514 194.599246 
L 386.790866 188.092609 
L 387.267317 186.2929 
L 387.743768 183.524118 
L 388.220218 181.862849 
L 388.696669 178.67875 
L 389.17312 176.463724 
L 390.126021 170.372404 
L 391.078923 164.83484 
L 391.555374 160.958545 
L 392.031824 158.881958 
L 392.984726 151.129369 
L 393.937628 143.515218 
L 394.414078 140.884875 
L 394.890529 136.316385 
L 396.796332 123.995305 
L 397.272783 122.749353 
L 397.749234 120.395889 
L 398.225684 119.426815 
L 398.702135 117.07335 
L 399.178586 116.658033 
L 399.655037 114.304568 
L 400.131487 113.889251 
L 400.607938 112.227982 
L 401.084389 109.597639 
L 401.56084 108.351687 
L 402.03729 106.136661 
L 402.513741 105.582905 
L 402.990192 103.921636 
L 403.466643 103.367879 
L 403.943093 101.014415 
L 404.419544 100.18378 
L 405.372446 95.476851 
L 405.848896 88.831774 
L 406.325347 77.20289 
L 406.801798 76.095377 
L 407.278249 76.926011 
L 407.754699 76.649133 
L 408.23115 73.880351 
L 408.707601 72.357521 
L 409.184052 70.004056 
L 409.660503 72.080643 
L 410.136953 75.54162 
L 411.089855 92.154312 
L 412.519207 136.316385 
L 413.869151 185.323827 
L 415.695545 237.792245 
L 417.045489 262.711283 
L 417.442532 267.279774 
L 418.316025 272.40202 
L 418.713067 274.201729 
L 419.110109 274.201729 
L 419.983602 274.478607 
L 420.380645 275.032363 
L 420.777687 274.893924 
L 421.492363 275.724559 
L 421.889405 276.001437 
L 422.286448 276.001437 
L 422.604081 276.139876 
L 423.001124 276.139876 
L 423.318758 275.862998 
L 423.7158 275.032363 
L 424.033434 275.032363 
L 424.668701 274.340168 
L 425.303969 274.06329 
L 425.621603 274.340168 
L 425.859828 274.201729 
L 426.177462 274.201729 
L 426.733321 273.509533 
L 426.971547 273.647972 
L 427.209772 272.678899 
L 427.924448 271.986703 
L 429.194984 271.986703 
L 430.068477 269.633238 
L 430.227294 269.771677 
L 430.38611 268.941043 
L 430.465519 269.079482 
L 430.624336 269.494799 
L 430.94197 268.941043 
L 431.100787 268.802604 
L 431.259604 267.556652 
L 431.656646 266.864456 
L 431.656646 267.279774 
L 431.736054 267.279774 
L 432.133097 264.78787 
L 432.133097 264.926309 
L 432.133097 263.126601 
L 432.133097 263.541918 
" clip-path="url(#pfeac01a169)" style="fill: none; stroke: #1f77b4; stroke-width: 1.5; stroke-linecap: square"/>
   </g>
   <g id="line2d_28">
    <path d="M 74.795028 291.783494 
L 373.450245 291.783494 
L 374.403146 290.675982 
L 375.832499 290.260664 
L 376.308949 290.399103 
L 376.7854 289.983786 
L 377.261851 290.260664 
L 377.738302 289.706908 
L 378.214753 289.706908 
L 378.691203 291.783494 
L 379.644105 291.783494 
L 380.120556 291.645055 
L 380.597006 291.783494 
L 381.073457 288.876273 
L 381.549908 288.737834 
L 382.026359 288.184078 
L 382.502809 288.184078 
L 382.97926 288.460956 
L 383.455711 288.460956 
L 383.932162 288.322517 
L 384.408612 288.460956 
L 384.885063 288.322517 
L 385.361514 291.091299 
L 385.837965 291.783494 
L 387.743768 291.783494 
L 388.220218 289.568469 
L 388.696669 289.291591 
L 389.17312 289.568469 
L 389.649571 289.706908 
L 391.078923 289.706908 
L 391.555374 289.983786 
L 392.031824 290.122225 
L 392.508275 291.783494 
L 394.414078 291.783494 
L 394.890529 291.645055 
L 395.36698 291.783494 
L 431.180195 291.783494 
L 431.339012 291.368177 
L 431.41842 291.783494 
L 431.577237 291.368177 
L 431.656646 291.368177 
L 431.656646 291.783494 
L 431.736054 291.783494 
L 431.894871 291.783494 
L 431.97428 291.091299 
L 431.97428 291.091299 
L 432.053688 290.95286 
L 432.053688 290.95286 
L 432.053688 291.783494 
L 432.133097 289.153151 
L 432.133097 291.783494 
" clip-path="url(#pfeac01a169)" style="fill: none; stroke: #ff7f0e; stroke-width: 1.5; stroke-linecap: square"/>
   </g>
   <g id="line2d_29">
    <path d="M 74.795028 288.876273 
L 74.811291 291.783494 
L 74.90223 289.153151 
L 74.925099 289.706908 
L 74.980288 288.737834 
L 75.012925 288.737834 
L 75.089157 288.876273 
L 75.133229 285.415296 
L 75.234157 286.107491 
L 75.291331 289.291591 
L 75.35327 289.014712 
L 75.420211 289.014712 
L 75.492314 287.9072 
L 75.741577 291.645055 
L 75.836073 291.091299 
L 75.936128 291.645055 
L 76.156883 291.506616 
L 76.538044 288.876273 
L 76.679391 289.153151 
L 76.827091 288.876273 
L 77.145519 289.291591 
L 77.315453 289.291591 
L 77.49174 291.783494 
L 77.675967 288.876273 
L 77.867342 288.737834 
L 78.065863 291.783494 
L 78.270737 289.43003 
L 78.483551 290.399103 
L 78.703513 286.938126 
L 78.930621 288.737834 
L 79.164082 288.460956 
L 79.405484 287.9072 
L 79.654032 290.122225 
L 79.909727 287.76876 
L 80.171775 289.706908 
L 80.441764 289.983786 
L 80.718899 287.353443 
L 81.003182 288.322517 
L 81.293817 287.215004 
L 81.592393 287.491882 
L 81.898115 286.938126 
L 82.210984 286.799687 
L 82.530206 286.799687 
L 82.854987 286.24593 
L 83.529959 285.692174 
L 83.879356 285.553735 
L 84.236694 282.784953 
L 84.601973 285.415296 
L 84.967252 283.20027 
L 85.340472 285.138418 
L 85.721632 285.415296 
L 86.110734 285.415296 
L 86.499835 285.276857 
L 86.896878 285.276857 
L 87.301861 286.522809 
L 87.714785 287.076565 
L 88.127709 286.522809 
L 88.540633 286.384369 
L 88.969438 286.384369 
L 89.398244 281.400562 
L 89.82705 281.400562 
L 90.263796 283.477148 
L 90.700543 283.477148 
L 91.14523 283.338709 
L 91.589918 283.338709 
L 92.042546 284.584661 
L 92.495174 284.584661 
L 92.947802 282.923392 
L 93.408371 282.923392 
L 93.86894 282.784953 
L 94.798019 282.092757 
L 95.266529 281.815879 
L 96.203549 280.846805 
L 96.68 280.846805 
L 97.156451 277.939584 
L 97.624961 283.338709 
L 98.577862 282.369636 
L 99.054313 282.369636 
L 99.530764 282.508075 
L 100.007214 282.508075 
L 100.483665 278.216463 
L 100.960116 278.216463 
L 101.436567 276.001437 
L 101.913017 278.354902 
L 102.389468 278.63178 
L 102.865919 277.247389 
L 103.34237 276.832072 
L 103.81882 276.832072 
L 104.295271 276.693632 
L 104.771722 276.693632 
L 105.248173 275.309241 
L 105.724623 275.309241 
L 106.201074 274.340168 
L 106.677525 274.340168 
L 107.153976 273.371094 
L 107.630426 273.371094 
L 108.106877 273.232655 
L 108.583328 273.232655 
L 109.059779 274.340168 
L 110.489131 272.817338 
L 110.965582 270.463873 
L 111.918483 268.525726 
L 112.871385 267.83353 
L 113.347836 267.83353 
L 113.824286 267.695091 
L 114.300737 265.618504 
L 114.777188 267.279774 
L 115.730089 266.033822 
L 116.20654 265.756944 
L 116.682991 265.203187 
L 117.159442 265.203187 
L 117.635892 264.372553 
L 118.112343 264.372553 
L 118.588794 264.510992 
L 119.065245 263.818796 
L 119.541695 263.818796 
L 120.018146 265.064748 
L 120.494597 264.095674 
L 121.447498 263.403479 
L 121.923949 263.403479 
L 122.4004 260.911575 
L 122.876851 260.911575 
L 123.353301 258.973428 
L 123.829752 258.973428 
L 124.306203 258.142793 
L 124.782654 258.142793 
L 125.259104 257.312158 
L 125.735555 257.312158 
L 126.212006 257.865915 
L 126.688457 257.865915 
L 127.164908 256.758402 
L 127.641358 256.758402 
L 128.117809 256.481524 
L 128.59426 256.481524 
L 129.070711 256.204646 
L 129.547161 256.204646 
L 130.023612 257.173719 
L 130.500063 258.696549 
L 130.976514 258.696549 
L 131.452964 258.281232 
L 131.929415 258.281232 
L 132.405866 260.773136 
L 132.882317 258.696549 
L 133.358767 258.696549 
L 133.835218 257.312158 
L 134.311669 260.08094 
L 134.78812 260.08094 
L 135.26457 261.188453 
L 135.741021 260.911575 
L 136.217472 260.911575 
L 136.693923 260.634697 
L 137.170373 260.634697 
L 137.646824 262.295966 
L 138.123275 262.295966 
L 138.599726 262.157527 
L 139.076176 262.157527 
L 139.552627 264.095674 
L 140.029078 264.095674 
L 140.505529 265.480065 
L 140.981979 265.480065 
L 141.45843 268.387286 
L 141.934881 269.217921 
L 142.411332 269.35636 
L 142.887783 270.186995 
L 143.364233 271.432947 
L 143.840684 271.432947 
L 144.317135 270.048556 
L 144.793586 270.048556 
L 145.270036 272.40202 
L 145.746487 272.40202 
L 146.222938 275.447681 
L 146.699389 275.447681 
L 147.175839 277.801145 
L 147.65229 277.801145 
L 148.128741 281.262123 
L 148.605192 281.262123 
L 149.558093 285.553735 
L 150.034544 286.522809 
L 150.510995 286.522809 
L 150.987445 289.291591 
L 151.463896 289.291591 
L 151.940347 291.783494 
L 161.985517 291.783494 
L 162.461968 291.645055 
L 162.938419 291.783494 
L 164.844222 291.783494 
L 165.320672 290.122225 
L 165.797123 291.091299 
L 166.273574 290.95286 
L 166.750025 291.783494 
L 167.226475 291.783494 
L 167.702926 291.506616 
L 168.179377 291.091299 
L 169.132278 291.783494 
L 169.608729 291.783494 
L 170.08518 288.460956 
L 170.561631 291.645055 
L 171.038081 291.783494 
L 177.231941 291.783494 
L 177.708392 291.091299 
L 178.184843 291.091299 
L 178.661294 291.506616 
L 179.137744 291.506616 
L 179.614195 291.783494 
L 185.728646 291.783494 
L 186.205097 290.537542 
L 187.634449 290.537542 
L 188.1109 289.983786 
L 188.587351 289.983786 
L 189.063802 289.706908 
L 190.493154 289.706908 
L 190.969605 288.737834 
L 191.446056 288.737834 
L 191.922506 289.568469 
L 192.398957 288.184078 
L 192.875408 289.014712 
L 193.351859 289.014712 
L 193.828309 289.291591 
L 194.30476 289.291591 
L 194.781211 289.983786 
L 195.257662 289.706908 
L 195.734112 289.568469 
L 196.210563 289.568469 
L 196.687014 287.9072 
L 197.163465 287.353443 
L 197.639915 286.24593 
L 198.116366 286.107491 
L 198.592817 286.107491 
L 199.545718 285.276857 
L 200.022169 285.276857 
L 200.49862 284.861539 
L 200.975071 284.861539 
L 201.451521 282.231196 
L 201.927972 282.923392 
L 202.404423 284.169344 
L 202.880874 283.061831 
L 203.357324 286.107491 
L 203.833775 282.784953 
L 204.310226 284.446222 
L 204.786677 283.061831 
L 205.263128 280.569927 
L 205.739578 283.061831 
L 206.216029 282.784953 
L 206.69248 282.784953 
L 207.645381 278.63178 
L 208.121832 279.047097 
L 208.598283 277.10895 
L 209.551184 276.416754 
L 210.027635 276.278315 
L 210.504086 276.693632 
L 210.980537 276.416754 
L 211.456987 276.416754 
L 211.933438 276.139876 
L 212.409889 276.278315 
L 212.88634 274.893924 
L 213.36279 274.201729 
L 213.839241 274.06329 
L 214.315692 272.955777 
L 214.792143 273.371094 
L 215.268593 274.617046 
L 215.745044 275.170802 
L 216.221495 273.786411 
L 216.697946 273.371094 
L 217.174396 273.371094 
L 218.127298 270.325434 
L 218.603749 270.740751 
L 219.080199 270.463873 
L 219.55665 270.463873 
L 220.509552 269.494799 
L 220.986003 269.079482 
L 221.462453 269.35636 
L 221.938904 269.35636 
L 222.415355 268.802604 
L 222.891806 268.941043 
L 223.368256 267.971969 
L 224.321158 267.695091 
L 224.797609 267.695091 
L 225.274059 268.664165 
L 225.75051 269.910117 
L 226.226961 269.633238 
L 226.703412 267.695091 
L 227.179862 267.695091 
L 227.656313 270.048556 
L 228.132764 268.525726 
L 228.609215 267.556652 
L 229.562116 267.556652 
L 230.038567 269.35636 
L 230.515018 269.35636 
L 230.991468 267.556652 
L 232.420821 267.556652 
L 233.373722 268.525726 
L 233.850173 268.248847 
L 234.326624 268.248847 
L 234.803074 269.079482 
L 235.279525 269.079482 
L 235.755976 269.494799 
L 236.232427 269.494799 
L 236.708878 267.83353 
L 237.185328 267.83353 
L 237.661779 270.463873 
L 238.13823 270.602312 
L 238.614681 270.186995 
L 239.091131 269.35636 
L 239.567582 269.633238 
L 240.044033 270.463873 
L 240.520484 271.709825 
L 240.996934 271.571386 
L 241.473385 271.709825 
L 241.949836 272.678899 
L 242.426287 273.92485 
L 242.902737 272.817338 
L 243.379188 275.170802 
L 243.855639 276.001437 
L 244.33209 276.555193 
L 244.80854 277.524267 
L 245.284991 277.524267 
L 245.761442 280.708366 
L 246.237893 280.708366 
L 246.714343 281.67744 
L 247.190794 285.138418 
L 247.667245 285.415296 
L 248.143696 286.799687 
L 248.620146 286.799687 
L 249.096597 286.938126 
L 249.573048 286.938126 
L 250.049499 289.291591 
L 250.525949 289.291591 
L 251.0024 290.537542 
L 251.478851 290.537542 
L 251.955302 291.783494 
L 262.437218 291.783494 
L 262.913669 291.645055 
L 263.39012 289.983786 
L 263.866571 291.783494 
L 268.631078 291.783494 
L 269.107529 291.091299 
L 269.58398 291.091299 
L 270.060431 291.645055 
L 270.536881 291.645055 
L 271.013332 291.229738 
L 271.489783 291.229738 
L 271.966234 290.399103 
L 272.442684 290.399103 
L 272.919135 291.368177 
L 273.395586 291.368177 
L 273.872037 289.568469 
L 274.348487 289.568469 
L 274.824938 291.783494 
L 278.160093 291.783494 
L 278.636544 291.645055 
L 279.112995 291.645055 
L 279.589446 291.783494 
L 281.971699 291.783494 
L 282.44815 291.645055 
L 283.877503 291.645055 
L 284.353953 291.783494 
L 287.689109 291.783494 
L 288.165559 290.537542 
L 288.64201 290.537542 
L 289.118461 289.845347 
L 289.594912 289.845347 
L 290.071362 289.983786 
L 290.547813 289.983786 
L 291.024264 289.845347 
L 291.500715 289.845347 
L 291.977165 286.799687 
L 292.453616 286.799687 
L 292.930067 289.43003 
L 293.406518 289.43003 
L 293.882968 287.76876 
L 294.359419 287.76876 
L 294.83587 289.706908 
L 295.788771 289.706908 
L 296.265222 291.783494 
L 296.741673 289.43003 
L 297.218124 289.43003 
L 297.694574 286.522809 
L 298.171025 286.522809 
L 298.647476 285.692174 
L 299.123927 285.692174 
L 299.600378 285.276857 
L 300.076828 285.276857 
L 300.553279 284.861539 
L 301.02973 284.861539 
L 301.506181 283.20027 
L 301.982631 283.061831 
L 302.459082 282.092757 
L 302.935533 282.092757 
L 303.411984 280.846805 
L 303.888434 280.846805 
L 304.364885 283.061831 
L 304.841336 280.569927 
L 305.317787 283.754027 
L 305.794237 283.754027 
L 306.270688 283.061831 
L 307.22359 280.846805 
L 307.70004 280.846805 
L 308.176491 289.706908 
L 308.652942 289.706908 
L 309.129393 279.462414 
L 309.605843 279.462414 
L 310.082294 278.63178 
L 310.558745 278.63178 
L 311.035196 278.493341 
L 311.511646 278.493341 
L 311.988097 277.801145 
L 312.464548 277.801145 
L 312.940999 277.10895 
L 313.417449 277.10895 
L 313.8939 278.63178 
L 314.370351 278.354902 
L 314.846802 278.354902 
L 315.323253 277.247389 
L 315.799703 275.58612 
L 316.276154 275.58612 
L 316.752605 275.032363 
L 317.229056 275.032363 
L 317.705506 274.478607 
L 318.181957 274.478607 
L 318.658408 272.40202 
L 319.134859 272.40202 
L 319.611309 273.371094 
L 320.08776 273.371094 
L 320.564211 273.509533 
L 321.040662 272.40202 
L 321.517112 271.986703 
L 321.993563 271.986703 
L 322.470014 274.201729 
L 322.946465 274.06329 
L 323.422915 274.06329 
L 323.899366 272.263581 
L 324.375817 274.06329 
L 324.852268 274.06329 
L 325.328718 271.156068 
L 325.805169 271.156068 
L 326.28162 271.571386 
L 326.758071 271.571386 
L 327.234521 270.87919 
L 327.710972 270.87919 
L 328.187423 270.602312 
L 328.663874 270.602312 
L 329.140324 271.294508 
L 329.616775 271.294508 
L 330.093226 270.325434 
L 330.569677 270.325434 
L 331.046128 272.125142 
L 331.522578 271.986703 
L 331.999029 272.678899 
L 332.47548 272.678899 
L 332.951931 273.509533 
L 333.904832 269.771677 
L 334.381283 269.771677 
L 334.857734 270.048556 
L 335.334184 270.048556 
L 335.810635 269.079482 
L 336.287086 269.079482 
L 336.763537 271.848264 
L 337.239987 271.848264 
L 337.716438 271.432947 
L 338.192889 271.432947 
L 338.66934 272.678899 
L 339.14579 272.678899 
L 339.622241 276.693632 
L 340.098692 276.693632 
L 340.575143 275.58612 
L 341.051593 278.63178 
L 341.528044 278.770219 
L 342.004495 278.770219 
L 342.480946 277.662706 
L 342.957396 277.662706 
L 343.433847 278.493341 
L 343.910298 278.493341 
L 344.386749 280.708366 
L 344.863199 280.708366 
L 345.33965 281.815879 
L 345.816101 281.815879 
L 346.292552 283.061831 
L 346.769003 283.061831 
L 347.245453 284.307783 
L 347.721904 284.307783 
L 348.198355 287.76876 
L 348.674806 287.76876 
L 349.151256 290.122225 
L 349.627707 290.122225 
L 350.104158 290.95286 
L 350.580609 289.706908 
L 351.057059 287.76876 
L 351.53351 291.783494 
L 352.009961 288.876273 
L 352.486412 291.783494 
L 357.250919 291.783494 
L 357.72737 291.091299 
L 358.203821 291.783494 
L 358.680271 290.95286 
L 359.156722 291.783494 
L 365.827033 291.783494 
L 366.303484 290.95286 
L 366.779934 291.783494 
L 371.544442 291.783494 
L 372.020893 291.091299 
L 372.497343 291.091299 
L 372.973794 291.783494 
L 375.356048 291.783494 
L 375.832499 291.229738 
L 376.308949 291.783494 
L 389.649571 291.783494 
L 390.126021 290.95286 
L 390.602472 290.95286 
L 391.078923 290.537542 
L 391.555374 290.537542 
L 392.031824 291.783494 
L 393.937628 291.783494 
L 394.890529 288.876273 
L 395.36698 288.184078 
L 395.843431 287.76876 
L 396.319881 287.9072 
L 396.796332 287.9072 
L 397.272783 287.630321 
L 397.749234 285.553735 
L 398.225684 288.322517 
L 398.702135 289.706908 
L 399.178586 289.983786 
L 399.655037 289.568469 
L 400.131487 288.322517 
L 400.607938 289.568469 
L 401.084389 289.568469 
L 401.56084 284.030905 
L 402.03729 284.030905 
L 402.513741 284.584661 
L 402.990192 284.584661 
L 403.466643 283.477148 
L 403.943093 283.477148 
L 404.419544 283.20027 
L 404.895995 283.20027 
L 405.372446 287.353443 
L 405.848896 287.353443 
L 406.325347 286.522809 
L 406.801798 286.938126 
L 407.278249 291.783494 
L 407.754699 281.539001 
L 408.23115 281.539001 
L 408.707601 280.846805 
L 409.184052 280.846805 
L 409.660503 280.569927 
L 410.136953 280.846805 
L 410.613404 279.462414 
L 411.089855 285.276857 
L 411.566306 283.615587 
L 412.042756 283.061831 
L 412.519207 283.20027 
L 412.995658 279.047097 
L 413.472109 279.047097 
L 413.869151 277.385828 
L 414.345602 274.893924 
L 414.822052 276.832072 
L 415.695545 275.862998 
L 416.171996 274.893924 
L 416.569039 279.323975 
L 417.045489 280.569927 
L 417.442532 280.016171 
L 417.918982 280.431488 
L 418.316025 279.600854 
L 418.713067 279.600854 
L 419.110109 272.125142 
L 419.58656 272.125142 
L 419.983602 272.540459 
L 420.380645 272.540459 
L 420.777687 271.709825 
L 421.174729 271.709825 
L 421.492363 276.416754 
L 422.604081 276.139876 
L 423.001124 275.309241 
L 423.318758 270.602312 
L 423.7158 268.525726 
L 424.033434 268.248847 
L 424.351068 268.664165 
L 424.668701 267.556652 
L 424.986335 267.695091 
L 425.303969 267.279774 
L 425.621603 273.92485 
L 426.177462 272.125142 
L 426.415687 272.125142 
L 426.733321 271.986703 
L 426.971547 267.556652 
L 427.209772 265.203187 
L 427.447997 264.095674 
L 427.686223 266.033822 
L 428.162674 263.818796 
L 428.400899 263.126601 
L 428.797941 271.848264 
L 429.194984 268.941043 
L 429.433209 269.35636 
L 429.592026 263.680357 
L 429.750843 263.126601 
L 429.90966 263.126601 
L 430.227294 264.095674 
L 430.465519 263.818796 
L 430.624336 271.017629 
L 430.94197 272.125142 
L 431.180195 272.263581 
L 431.339012 267.141335 
L 431.497829 267.279774 
L 431.577237 266.3107 
L 431.736054 272.40202 
L 431.815463 271.986703 
L 431.815463 271.986703 
L 432.053688 264.234113 
L 432.133097 278.493341 
L 432.133097 263.126601 
L 432.133097 273.786411 
" clip-path="url(#pfeac01a169)" style="fill: none; stroke: #2ca02c; stroke-width: 1.5; stroke-linecap: square"/>
   </g>
   <g id="line2d_30">
    <path d="M 74.795028 281.815879 
L 74.864813 282.784953 
L 74.90223 282.092757 
L 74.925099 282.092757 
L 75.049135 282.369636 
L 75.089157 282.092757 
L 75.133229 282.369636 
L 75.35327 281.67744 
L 75.492314 282.092757 
L 75.65264 281.815879 
L 75.741577 282.092757 
L 75.936128 281.539001 
L 76.043329 281.539001 
L 76.156883 281.262123 
L 76.27679 281.67744 
L 76.538044 281.123684 
L 76.679391 280.985245 
L 76.827091 281.262123 
L 77.145519 280.846805 
L 77.315453 280.985245 
L 77.49174 280.985245 
L 77.675967 280.846805 
L 78.270737 280.846805 
L 78.483551 280.708366 
L 78.703513 280.846805 
L 78.930621 280.569927 
L 79.164082 280.569927 
L 79.405484 280.293049 
L 79.654032 280.431488 
L 79.909727 280.293049 
L 80.171775 280.431488 
L 80.441764 280.431488 
L 80.718899 280.016171 
L 81.003182 279.877732 
L 81.293817 279.877732 
L 81.592393 279.462414 
L 81.898115 279.600854 
L 82.210984 278.770219 
L 82.530206 279.323975 
L 82.854987 278.770219 
L 83.188503 278.770219 
L 83.529959 278.63178 
L 83.879356 278.216463 
L 84.967252 277.801145 
L 85.340472 277.385828 
L 86.499835 276.970511 
L 86.896878 276.416754 
L 87.301861 276.416754 
L 87.714785 276.139876 
L 88.127709 276.001437 
L 88.969438 275.032363 
L 89.398244 274.893924 
L 89.82705 274.06329 
L 90.263796 274.06329 
L 90.700543 273.647972 
L 91.14523 272.955777 
L 91.589918 272.540459 
L 92.042546 272.540459 
L 93.408371 271.156068 
L 93.86894 271.294508 
L 94.33745 270.602312 
L 94.798019 269.633238 
L 95.266529 269.35636 
L 95.735039 269.35636 
L 96.203549 268.248847 
L 96.68 268.387286 
L 97.156451 267.695091 
L 97.624961 267.418213 
L 98.577862 266.587578 
L 99.054313 265.756944 
L 99.530764 265.480065 
L 100.960116 263.818796 
L 101.436567 263.541918 
L 103.34237 261.880649 
L 104.295271 260.634697 
L 104.771722 260.357819 
L 105.248173 259.388745 
L 106.677525 258.281232 
L 107.630426 256.204646 
L 108.106877 256.066207 
L 108.583328 255.097133 
L 109.059779 254.404937 
L 109.536229 254.266498 
L 110.01268 253.435864 
L 110.965582 252.189912 
L 111.918483 250.113325 
L 112.394934 249.836447 
L 113.347836 247.8983 
L 114.300737 246.929226 
L 115.730089 243.468248 
L 116.20654 242.776053 
L 117.635892 240.007271 
L 118.112343 239.176636 
L 118.588794 237.792245 
L 119.065245 237.238489 
L 119.541695 235.715659 
L 120.018146 235.161902 
L 120.971048 232.669999 
L 121.447498 232.116242 
L 122.4004 228.516826 
L 122.876851 227.686191 
L 123.353301 226.024922 
L 123.829752 224.917409 
L 124.306203 223.25614 
L 124.782654 222.425505 
L 125.259104 219.795162 
L 126.212006 216.749502 
L 126.688457 214.672916 
L 127.164908 213.98072 
L 128.59426 208.581595 
L 130.500063 200.967445 
L 132.405866 192.661099 
L 133.358767 186.985096 
L 134.311669 182.001288 
L 134.78812 179.094067 
L 135.26457 177.017481 
L 138.599726 157.220689 
L 140.029078 146.699318 
L 141.45843 136.593263 
L 141.934881 133.96292 
L 143.840684 119.426815 
L 144.317135 116.796472 
L 145.270036 110.428274 
L 145.746487 107.93637 
L 148.605192 85.924553 
L 150.987445 62.805223 
L 151.940347 52.422291 
L 152.416798 51.176339 
L 152.893248 49.51507 
L 153.369699 46.469409 
L 153.84615 44.531262 
L 154.362305 41.208724 
L 154.838756 39.132137 
L 155.315206 38.578381 
L 155.791657 41.624041 
L 156.268108 50.345704 
L 156.744559 63.635858 
L 157.69746 103.506319 
L 160.079714 215.365111 
L 161.032616 246.929226 
L 161.509066 258.55811 
L 161.985517 267.279774 
L 162.461968 273.509533 
L 163.414869 280.846805 
L 164.367771 284.584661 
L 166.273574 287.353443 
L 166.750025 287.491882 
L 167.226475 287.76876 
L 168.179377 287.76876 
L 168.655828 288.045639 
L 169.132278 288.045639 
L 169.608729 288.184078 
L 170.08518 287.9072 
L 170.561631 288.184078 
L 171.038081 287.76876 
L 171.514532 287.630321 
L 171.990983 287.76876 
L 172.467434 287.491882 
L 172.943884 287.76876 
L 173.420335 287.76876 
L 173.896786 287.491882 
L 174.373237 287.491882 
L 174.849687 287.353443 
L 175.326138 287.353443 
L 176.27904 287.076565 
L 176.755491 287.076565 
L 177.231941 286.661248 
L 177.708392 286.799687 
L 178.184843 286.799687 
L 178.661294 286.24593 
L 179.137744 286.107491 
L 179.614195 286.661248 
L 180.090646 285.969052 
L 181.043547 285.415296 
L 181.44059 285.415296 
L 181.91704 285.276857 
L 182.393491 285.415296 
L 182.869942 285.138418 
L 183.346393 285.276857 
L 183.822843 285.276857 
L 184.299294 285.138418 
L 184.775745 284.584661 
L 185.252196 284.861539 
L 185.728646 284.446222 
L 186.205097 284.307783 
L 186.681548 283.754027 
L 187.157999 283.615587 
L 187.634449 283.338709 
L 189.063802 282.923392 
L 189.540253 282.369636 
L 190.016703 282.369636 
L 190.493154 281.67744 
L 190.969605 281.67744 
L 191.922506 280.846805 
L 192.875408 280.846805 
L 195.734112 278.354902 
L 196.210563 278.216463 
L 197.163465 277.247389 
L 197.639915 276.970511 
L 198.116366 276.416754 
L 198.592817 276.278315 
L 199.069268 276.001437 
L 201.451521 273.92485 
L 201.927972 273.232655 
L 202.404423 272.955777 
L 202.880874 272.263581 
L 203.357324 271.986703 
L 203.833775 271.848264 
L 204.310226 271.294508 
L 204.786677 271.156068 
L 205.263128 270.740751 
L 205.739578 269.771677 
L 206.69248 268.941043 
L 207.645381 267.556652 
L 208.121832 267.556652 
L 208.598283 267.002895 
L 209.551184 265.341626 
L 210.027635 264.78787 
L 210.504086 264.510992 
L 210.980537 263.403479 
L 211.456987 263.126601 
L 211.933438 262.295966 
L 212.409889 261.74221 
L 213.36279 260.21938 
L 214.792143 258.004354 
L 216.697946 254.543376 
L 217.174396 254.266498 
L 217.650847 252.605229 
L 218.127298 251.774594 
L 218.603749 250.113325 
L 219.080199 249.559569 
L 219.55665 248.313617 
L 220.033101 247.621421 
L 220.509552 246.652348 
L 220.986003 245.406396 
L 221.462453 244.7142 
L 222.415355 241.806979 
L 223.368256 240.007271 
L 223.844707 239.038197 
L 224.321158 237.376928 
L 224.797609 236.546293 
L 225.274059 234.885024 
L 225.75051 233.777511 
L 226.226961 232.254681 
L 226.703412 231.700925 
L 227.179862 229.901217 
L 228.132764 227.409313 
L 228.609215 225.471165 
L 229.085665 224.502092 
L 229.562116 222.702383 
L 230.038567 221.456432 
L 230.515018 219.102967 
L 234.326624 205.535935 
L 234.803074 203.736227 
L 235.755976 199.583054 
L 236.232427 197.368028 
L 236.708878 196.537394 
L 237.185328 194.876124 
L 240.520484 176.879041 
L 241.473385 171.756795 
L 244.33209 153.344394 
L 246.237893 141.577071 
L 246.714343 139.777363 
L 247.190794 136.870142 
L 247.667245 134.931994 
L 248.143696 134.516677 
L 248.620146 128.702235 
L 249.573048 122.195597 
L 251.478851 108.074809 
L 251.955302 104.89071 
L 252.908203 94.784655 
L 253.384654 92.292751 
L 254.337556 88.278018 
L 255.290457 82.463575 
L 255.766908 80.525428 
L 256.243359 77.06445 
L 256.719809 75.54162 
L 257.19626 76.926011 
L 258.625612 105.167588 
L 259.578514 138.66985 
L 261.007866 192.245782 
L 261.960768 223.25614 
L 262.913669 248.452056 
L 263.866571 266.033822 
L 264.343021 272.40202 
L 265.295923 279.877732 
L 265.772374 282.646514 
L 266.248824 284.446222 
L 266.725275 285.276857 
L 267.201726 285.692174 
L 267.678177 286.522809 
L 268.154628 286.661248 
L 268.631078 287.215004 
L 269.58398 287.491882 
L 270.060431 287.76876 
L 270.536881 287.76876 
L 271.013332 287.9072 
L 271.489783 287.9072 
L 272.442684 287.630321 
L 272.919135 287.76876 
L 273.395586 287.76876 
L 273.872037 287.353443 
L 274.348487 287.491882 
L 274.824938 287.491882 
L 275.301389 286.522809 
L 275.77784 287.076565 
L 276.25429 287.076565 
L 276.730741 286.24593 
L 277.207192 286.661248 
L 278.160093 286.107491 
L 278.636544 286.107491 
L 279.112995 285.830613 
L 279.589446 285.692174 
L 280.065896 285.415296 
L 280.542347 285.553735 
L 281.018798 285.276857 
L 281.495249 285.276857 
L 281.971699 284.861539 
L 282.44815 284.999978 
L 282.924601 284.446222 
L 283.401052 284.446222 
L 284.353953 284.169344 
L 284.830404 283.615587 
L 285.783306 283.061831 
L 286.259756 283.061831 
L 286.736207 282.923392 
L 287.212658 282.646514 
L 287.689109 282.784953 
L 288.165559 281.815879 
L 288.64201 282.092757 
L 289.118461 281.815879 
L 289.594912 281.262123 
L 290.071362 280.985245 
L 290.547813 280.846805 
L 291.024264 280.846805 
L 291.977165 280.569927 
L 292.453616 280.016171 
L 292.930067 280.016171 
L 293.406518 279.462414 
L 293.882968 279.185536 
L 294.359419 278.770219 
L 294.83587 278.63178 
L 295.312321 278.354902 
L 297.218124 276.693632 
L 298.171025 276.416754 
L 299.123927 275.032363 
L 299.600378 275.447681 
L 300.076828 275.170802 
L 301.02973 273.92485 
L 301.506181 273.509533 
L 301.982631 272.817338 
L 302.459082 272.817338 
L 302.935533 271.986703 
L 303.411984 271.986703 
L 304.364885 271.017629 
L 305.317787 269.633238 
L 305.794237 269.35636 
L 306.270688 268.802604 
L 306.747139 267.971969 
L 307.70004 266.864456 
L 308.176491 266.587578 
L 308.652942 265.480065 
L 309.605843 264.372553 
L 310.082294 263.541918 
L 310.558745 262.988162 
L 311.035196 262.711283 
L 311.511646 261.603771 
L 313.417449 258.696549 
L 313.8939 258.55811 
L 315.323253 255.51245 
L 315.799703 254.543376 
L 316.276154 253.851181 
L 316.752605 252.46679 
L 317.229056 251.774594 
L 318.181957 249.836447 
L 318.658408 249.005812 
L 320.08776 245.683274 
L 320.564211 245.406396 
L 321.040662 243.883566 
L 321.517112 243.052931 
L 321.993563 241.806979 
L 322.946465 240.561027 
L 323.422915 238.899758 
L 323.899366 238.346002 
L 324.375817 236.684733 
L 324.852268 235.854098 
L 325.805169 233.085316 
L 326.28162 231.977803 
L 326.758071 230.454973 
L 327.234521 229.485899 
L 327.710972 227.82463 
L 328.187423 226.993996 
L 328.663874 225.332726 
L 329.616775 222.563944 
L 330.093226 221.179553 
L 330.569677 218.964528 
L 331.522578 216.472624 
L 332.47548 213.703842 
L 332.951931 212.319451 
L 333.904832 207.8894 
L 334.857734 204.705301 
L 335.334184 203.32091 
L 338.66934 187.677291 
L 339.14579 184.631631 
L 340.098692 179.786263 
L 341.528044 172.172112 
L 342.480946 165.665474 
L 344.863199 152.098443 
L 346.292552 143.515218 
L 347.721904 137.008581 
L 348.198355 135.901068 
L 348.674806 134.239799 
L 349.151256 131.471017 
L 349.627707 131.747895 
L 350.104158 125.518135 
L 352.009961 114.304568 
L 352.486412 112.089543 
L 354.868665 97.276559 
L 356.298018 96.861242 
L 356.774468 95.199973 
L 357.250919 95.338412 
L 357.72737 94.784655 
L 358.203821 93.123386 
L 358.680271 93.815582 
L 359.156722 96.722803 
L 360.109624 111.674225 
L 361.062525 136.593263 
L 363.92123 228.101508 
L 365.350582 261.050014 
L 366.303484 275.862998 
L 366.779934 281.123684 
L 367.256385 284.584661 
L 368.209287 289.706908 
L 368.685737 290.260664 
L 369.162188 290.537542 
L 369.638639 291.506616 
L 370.11509 291.506616 
L 370.59154 291.783494 
L 376.7854 291.783494 
L 377.261851 291.506616 
L 378.691203 291.506616 
L 379.167654 291.368177 
L 379.644105 290.95286 
L 380.120556 290.95286 
L 381.073457 290.399103 
L 381.549908 289.845347 
L 382.026359 289.983786 
L 382.502809 289.706908 
L 383.455711 289.706908 
L 383.932162 289.568469 
L 384.408612 289.291591 
L 384.885063 288.876273 
L 385.361514 289.43003 
L 386.790866 288.184078 
L 387.267317 287.491882 
L 387.743768 287.491882 
L 388.220218 286.799687 
L 389.17312 286.24593 
L 389.649571 286.107491 
L 390.602472 285.415296 
L 391.078923 285.276857 
L 391.555374 284.999978 
L 392.508275 284.7231 
L 393.461177 283.892466 
L 393.937628 283.754027 
L 394.414078 283.061831 
L 394.890529 282.923392 
L 395.36698 282.646514 
L 396.319881 281.67744 
L 397.272783 280.985245 
L 398.702135 280.569927 
L 400.607938 278.770219 
L 402.03729 276.832072 
L 402.990192 276.139876 
L 403.466643 276.001437 
L 403.943093 275.58612 
L 404.419544 274.755485 
L 404.895995 274.201729 
L 405.372446 274.06329 
L 405.848896 273.786411 
L 406.325347 272.955777 
L 406.801798 272.678899 
L 407.754699 271.432947 
L 408.23115 270.602312 
L 409.184052 269.35636 
L 409.660503 268.525726 
L 410.136953 268.248847 
L 410.613404 267.556652 
L 411.089855 267.556652 
L 411.566306 267.141335 
L 412.042756 266.172261 
L 413.472109 264.372553 
L 413.869151 263.126601 
L 414.822052 262.849722 
L 415.219095 261.326892 
L 416.171996 260.21938 
L 416.569039 259.250306 
L 417.045489 259.250306 
L 417.442532 258.696549 
L 418.316025 256.896841 
L 418.713067 256.066207 
L 419.110109 254.543376 
L 419.983602 253.98962 
L 420.380645 252.743668 
L 420.777687 251.913034 
L 421.174729 250.805521 
L 421.492363 250.390203 
L 421.889405 250.113325 
L 422.286448 249.559569 
L 422.604081 248.867373 
L 423.001124 248.313617 
L 423.7158 245.683274 
L 424.033434 245.406396 
L 425.621603 241.530101 
L 425.859828 241.66854 
L 426.733321 239.730393 
L 427.686223 236.684733 
L 427.924448 236.546293 
L 428.400899 235.161902 
L 428.639124 235.300342 
L 429.433209 232.39312 
L 429.592026 232.53156 
L 429.750843 230.593412 
L 430.227294 228.655265 
L 430.624336 226.717117 
L 430.783153 226.855556 
L 431.100787 223.948335 
L 431.656646 218.964528 
L 431.656646 219.518284 
L 431.736054 219.518284 
L 431.815463 219.241406 
L 431.97428 217.857015 
L 432.053688 216.472624 
L 432.133097 216.334185 
L 432.133097 209.273791 
L 432.133097 211.765695 
" clip-path="url(#pfeac01a169)" style="fill: none; stroke: #d62728; stroke-width: 1.5; stroke-linecap: square"/>
   </g>
   <g id="patch_3">
    <path d="M 56.928125 304.44375 
L 56.928125 25.918125 
" style="fill: none; stroke: #000000; stroke-width: 0.8; stroke-linejoin: miter; stroke-linecap: square"/>
   </g>
   <g id="patch_4">
    <path d="M 450 304.44375 
L 450 25.918125 
" style="fill: none; stroke: #000000; stroke-width: 0.8; stroke-linejoin: miter; stroke-linecap: square"/>
   </g>
   <g id="patch_5">
    <path d="M 56.928125 304.44375 
L 450 304.44375 
" style="fill: none; stroke: #000000; stroke-width: 0.8; stroke-linejoin: miter; stroke-linecap: square"/>
   </g>
   <g id="patch_6">
    <path d="M 56.928125 25.918125 
L 450 25.918125 
" style="fill: none; stroke: #000000; stroke-width: 0.8; stroke-linejoin: miter; stroke-linecap: square"/>
   </g>
   <g id="text_16">
    <!-- Reflector Raw Value -->
    <g transform="translate(193.704062 19.918125)scale(0.12 -0.12)">
     <use xlink:href="#DejaVuSans-52"/>
     <use xlink:href="#DejaVuSans-65" x="64.982422"/>
     <use xlink:href="#DejaVuSans-66" x="126.505859"/>
     <use xlink:href="#DejaVuSans-6c" x="161.710938"/>
     <use xlink:href="#DejaVuSans-65" x="189.494141"/>
     <use xlink:href="#DejaVuSans-63" x="251.017578"/>
     <use xlink:href="#DejaVuSans-74" x="305.998047"/>
     <use xlink:href="#DejaVuSans-6f" x="345.207031"/>
     <use xlink:href="#DejaVuSans-72" x="406.388672"/>
     <use xlink:href="#DejaVuSans-20" x="447.501953"/>
     <use xlink:href="#DejaVuSans-52" x="479.289062"/>
     <use xlink:href="#DejaVuSans-61" x="546.521484"/>
     <use xlink:href="#DejaVuSans-77" x="607.800781"/>
     <use xlink:href="#DejaVuSans-20" x="689.587891"/>
     <use xlink:href="#DejaVuSans-56" x="721.375"/>
     <use xlink:href="#DejaVuSans-61" x="782.033203"/>
     <use xlink:href="#DejaVuSans-6c" x="843.3125"/>
     <use xlink:href="#DejaVuSans-75" x="871.095703"/>
     <use xlink:href="#DejaVuSans-65" x="934.474609"/>
    </g>
   </g>
   <g id="legend_1">
    <g id="patch_7">
     <path d="M 63.928125 92.630625 
L 150.728125 92.630625 
Q 152.728125 92.630625 152.728125 90.630625 
L 152.728125 32.918125 
Q 152.728125 30.918125 150.728125 30.918125 
L 63.928125 30.918125 
Q 61.928125 30.918125 61.928125 32.918125 
L 61.928125 90.630625 
Q 61.928125 92.630625 63.928125 92.630625 
z
" style="fill: #ffffff; opacity: 0.8; stroke: #cccccc; stroke-linejoin: miter"/>
    </g>
    <g id="line2d_31">
     <path d="M 65.928125 39.016562 
L 75.928125 39.016562 
L 85.928125 39.016562 
" style="fill: none; stroke: #1f77b4; stroke-width: 1.5; stroke-linecap: square"/>
    </g>
    <g id="text_17">
     <!-- Left Side -->
     <g transform="translate(93.928125 42.516562)scale(0.1 -0.1)">
      <defs>
       <path id="DejaVuSans-4c" d="M 628 4666 
L 1259 4666 
L 1259 531 
L 3531 531 
L 3531 0 
L 628 0 
L 628 4666 
z
" transform="scale(0.015625)"/>
       <path id="DejaVuSans-53" d="M 3425 4513 
L 3425 3897 
Q 3066 4069 2747 4153 
Q 2428 4238 2131 4238 
Q 1616 4238 1336 4038 
Q 1056 3838 1056 3469 
Q 1056 3159 1242 3001 
Q 1428 2844 1947 2747 
L 2328 2669 
Q 3034 2534 3370 2195 
Q 3706 1856 3706 1288 
Q 3706 609 3251 259 
Q 2797 -91 1919 -91 
Q 1588 -91 1214 -16 
Q 841 59 441 206 
L 441 856 
Q 825 641 1194 531 
Q 1563 422 1919 422 
Q 2459 422 2753 634 
Q 3047 847 3047 1241 
Q 3047 1584 2836 1778 
Q 2625 1972 2144 2069 
L 1759 2144 
Q 1053 2284 737 2584 
Q 422 2884 422 3419 
Q 422 4038 858 4394 
Q 1294 4750 2059 4750 
Q 2388 4750 2728 4690 
Q 3069 4631 3425 4513 
z
" transform="scale(0.015625)"/>
       <path id="DejaVuSans-64" d="M 2906 2969 
L 2906 4863 
L 3481 4863 
L 3481 0 
L 2906 0 
L 2906 525 
Q 2725 213 2448 61 
Q 2172 -91 1784 -91 
Q 1150 -91 751 415 
Q 353 922 353 1747 
Q 353 2572 751 3078 
Q 1150 3584 1784 3584 
Q 2172 3584 2448 3432 
Q 2725 3281 2906 2969 
z
M 947 1747 
Q 947 1113 1208 752 
Q 1469 391 1925 391 
Q 2381 391 2643 752 
Q 2906 1113 2906 1747 
Q 2906 2381 2643 2742 
Q 2381 3103 1925 3103 
Q 1469 3103 1208 2742 
Q 947 2381 947 1747 
z
" transform="scale(0.015625)"/>
      </defs>
      <use xlink:href="#DejaVuSans-4c"/>
      <use xlink:href="#DejaVuSans-65" x="53.962891"/>
      <use xlink:href="#DejaVuSans-66" x="115.486328"/>
      <use xlink:href="#DejaVuSans-74" x="148.941406"/>
      <use xlink:href="#DejaVuSans-20" x="188.150391"/>
      <use xlink:href="#DejaVuSans-53" x="219.9375"/>
      <use xlink:href="#DejaVuSans-69" x="283.414062"/>
      <use xlink:href="#DejaVuSans-64" x="311.197266"/>
      <use xlink:href="#DejaVuSans-65" x="374.673828"/>
     </g>
    </g>
    <g id="line2d_32">
     <path d="M 65.928125 53.694687 
L 75.928125 53.694687 
L 85.928125 53.694687 
" style="fill: none; stroke: #ff7f0e; stroke-width: 1.5; stroke-linecap: square"/>
    </g>
    <g id="text_18">
     <!-- Left Front -->
     <g transform="translate(93.928125 57.194687)scale(0.1 -0.1)">
      <defs>
       <path id="DejaVuSans-46" d="M 628 4666 
L 3309 4666 
L 3309 4134 
L 1259 4134 
L 1259 2759 
L 3109 2759 
L 3109 2228 
L 1259 2228 
L 1259 0 
L 628 0 
L 628 4666 
z
" transform="scale(0.015625)"/>
      </defs>
      <use xlink:href="#DejaVuSans-4c"/>
      <use xlink:href="#DejaVuSans-65" x="53.962891"/>
      <use xlink:href="#DejaVuSans-66" x="115.486328"/>
      <use xlink:href="#DejaVuSans-74" x="148.941406"/>
      <use xlink:href="#DejaVuSans-20" x="188.150391"/>
      <use xlink:href="#DejaVuSans-46" x="219.9375"/>
      <use xlink:href="#DejaVuSans-72" x="270.207031"/>
      <use xlink:href="#DejaVuSans-6f" x="309.070312"/>
      <use xlink:href="#DejaVuSans-6e" x="370.251953"/>
      <use xlink:href="#DejaVuSans-74" x="433.630859"/>
     </g>
    </g>
    <g id="line2d_33">
     <path d="M 65.928125 68.372812 
L 75.928125 68.372812 
L 85.928125 68.372812 
" style="fill: none; stroke: #2ca02c; stroke-width: 1.5; stroke-linecap: square"/>
    </g>
    <g id="text_19">
     <!-- Right Front -->
     <g transform="translate(93.928125 71.872812)scale(0.1 -0.1)">
      <defs>
       <path id="DejaVuSans-67" d="M 2906 1791 
Q 2906 2416 2648 2759 
Q 2391 3103 1925 3103 
Q 1463 3103 1205 2759 
Q 947 2416 947 1791 
Q 947 1169 1205 825 
Q 1463 481 1925 481 
Q 2391 481 2648 825 
Q 2906 1169 2906 1791 
z
M 3481 434 
Q 3481 -459 3084 -895 
Q 2688 -1331 1869 -1331 
Q 1566 -1331 1297 -1286 
Q 1028 -1241 775 -1147 
L 775 -588 
Q 1028 -725 1275 -790 
Q 1522 -856 1778 -856 
Q 2344 -856 2625 -561 
Q 2906 -266 2906 331 
L 2906 616 
Q 2728 306 2450 153 
Q 2172 0 1784 0 
Q 1141 0 747 490 
Q 353 981 353 1791 
Q 353 2603 747 3093 
Q 1141 3584 1784 3584 
Q 2172 3584 2450 3431 
Q 2728 3278 2906 2969 
L 2906 3500 
L 3481 3500 
L 3481 434 
z
" transform="scale(0.015625)"/>
       <path id="DejaVuSans-68" d="M 3513 2113 
L 3513 0 
L 2938 0 
L 2938 2094 
Q 2938 2591 2744 2837 
Q 2550 3084 2163 3084 
Q 1697 3084 1428 2787 
Q 1159 2491 1159 1978 
L 1159 0 
L 581 0 
L 581 4863 
L 1159 4863 
L 1159 2956 
Q 1366 3272 1645 3428 
Q 1925 3584 2291 3584 
Q 2894 3584 3203 3211 
Q 3513 2838 3513 2113 
z
" transform="scale(0.015625)"/>
      </defs>
      <use xlink:href="#DejaVuSans-52"/>
      <use xlink:href="#DejaVuSans-69" x="69.482422"/>
      <use xlink:href="#DejaVuSans-67" x="97.265625"/>
      <use xlink:href="#DejaVuSans-68" x="160.742188"/>
      <use xlink:href="#DejaVuSans-74" x="224.121094"/>
      <use xlink:href="#DejaVuSans-20" x="263.330078"/>
      <use xlink:href="#DejaVuSans-46" x="295.117188"/>
      <use xlink:href="#DejaVuSans-72" x="345.386719"/>
      <use xlink:href="#DejaVuSans-6f" x="384.25"/>
      <use xlink:href="#DejaVuSans-6e" x="445.431641"/>
      <use xlink:href="#DejaVuSans-74" x="508.810547"/>
     </g>
    </g>
    <g id="line2d_34">
     <path d="M 65.928125 83.050937 
L 75.928125 83.050937 
L 85.928125 83.050937 
" style="fill: none; stroke: #d62728; stroke-width: 1.5; stroke-linecap: square"/>
    </g>
    <g id="text_20">
     <!-- Right Side -->
     <g transform="translate(93.928125 86.550937)scale(0.1 -0.1)">
      <use xlink:href="#DejaVuSans-52"/>
      <use xlink:href="#DejaVuSans-69" x="69.482422"/>
      <use xlink:href="#DejaVuSans-67" x="97.265625"/>
      <use xlink:href="#DejaVuSans-68" x="160.742188"/>
      <use xlink:href="#DejaVuSans-74" x="224.121094"/>
      <use xlink:href="#DejaVuSans-20" x="263.330078"/>
      <use xlink:href="#DejaVuSans-53" x="295.117188"/>
      <use xlink:href="#DejaVuSans-69" x="358.59375"/>
      <use xlink:href="#DejaVuSans-64" x="386.376953"/>
      <use xlink:href="#DejaVuSans-65" x="449.853516"/>
     </g>
    </g>
   </g>
  </g>
 </g>
 <defs>
  <clipPath id="pfeac01a169">
   <rect x="56.928125" y="25.918125" width="393.071875" height="278.525625"/>
  </clipPath>
 </defs>
</svg>
