<?xml version="1.0" encoding="utf-8" standalone="no"?>
<!DOCTYPE svg PUBLIC "-//W3C//DTD SVG 1.1//EN"
  "http://www.w3.org/Graphics/SVG/1.1/DTD/svg11.dtd">
<svg xmlns:xlink="http://www.w3.org/1999/xlink" width="460.8pt" height="345.6pt" viewBox="0 0 460.8 345.6" xmlns="http://www.w3.org/2000/svg" version="1.1">
 <metadata>
  <rdf:RDF xmlns:dc="http://purl.org/dc/elements/1.1/" xmlns:cc="http://creativecommons.org/ns#" xmlns:rdf="http://www.w3.org/1999/02/22-rdf-syntax-ns#">
   <cc:Work>
    <dc:type rdf:resource="http://purl.org/dc/dcmitype/StillImage"/>
    <dc:date>2022-01-16T03:35:26.153778</dc:date>
    <dc:format>image/svg+xml</dc:format>
    <dc:creator>
     <cc:Agent>
      <dc:title>Matplotlib v3.5.1, https://matplotlib.org/</dc:title>
     </cc:Agent>
    </dc:creator>
   </cc:Work>
  </rdf:RDF>
 </metadata>
 <defs>
  <style type="text/css">*{stroke-linejoin: round; stroke-linecap: butt}</style>
 </defs>
 <g id="figure_1">
  <g id="patch_1">
   <path d="M 0 345.6 
L 460.8 345.6 
L 460.8 0 
L 0 0 
z
" style="fill: #ffffff"/>
  </g>
  <g id="axes_1">
   <g id="patch_2">
    <path d="M 50.565625 161.67875 
L 442.626962 161.67875 
L 442.626962 33.21375 
L 50.565625 33.21375 
z
" style="fill: #ffffff"/>
   </g>
   <g id="matplotlib.axis_1">
    <g id="xtick_1">
     <g id="line2d_1">
      <path d="M 68.386595 161.67875 
L 68.386595 33.21375 
" clip-path="url(#pfabf31980b)" style="fill: none; stroke: #b0b0b0; stroke-width: 0.8; stroke-linecap: square"/>
     </g>
     <g id="line2d_2">
      <defs>
       <path id="mf31c1e5922" d="M 0 0 
L 0 3.5 
" style="stroke: #000000; stroke-width: 0.8"/>
      </defs>
      <g>
       <use xlink:href="#mf31c1e5922" x="68.386595" y="161.67875" style="stroke: #000000; stroke-width: 0.8"/>
      </g>
     </g>
    </g>
    <g id="xtick_2">
     <g id="line2d_3">
      <path d="M 143.107643 161.67875 
L 143.107643 33.21375 
" clip-path="url(#pfabf31980b)" style="fill: none; stroke: #b0b0b0; stroke-width: 0.8; stroke-linecap: square"/>
     </g>
     <g id="line2d_4">
      <g>
       <use xlink:href="#mf31c1e5922" x="143.107643" y="161.67875" style="stroke: #000000; stroke-width: 0.8"/>
      </g>
     </g>
    </g>
    <g id="xtick_3">
     <g id="line2d_5">
      <path d="M 217.82869 161.67875 
L 217.82869 33.21375 
" clip-path="url(#pfabf31980b)" style="fill: none; stroke: #b0b0b0; stroke-width: 0.8; stroke-linecap: square"/>
     </g>
     <g id="line2d_6">
      <g>
       <use xlink:href="#mf31c1e5922" x="217.82869" y="161.67875" style="stroke: #000000; stroke-width: 0.8"/>
      </g>
     </g>
    </g>
    <g id="xtick_4">
     <g id="line2d_7">
      <path d="M 292.549738 161.67875 
L 292.549738 33.21375 
" clip-path="url(#pfabf31980b)" style="fill: none; stroke: #b0b0b0; stroke-width: 0.8; stroke-linecap: square"/>
     </g>
     <g id="line2d_8">
      <g>
       <use xlink:href="#mf31c1e5922" x="292.549738" y="161.67875" style="stroke: #000000; stroke-width: 0.8"/>
      </g>
     </g>
    </g>
    <g id="xtick_5">
     <g id="line2d_9">
      <path d="M 367.270786 161.67875 
L 367.270786 33.21375 
" clip-path="url(#pfabf31980b)" style="fill: none; stroke: #b0b0b0; stroke-width: 0.8; stroke-linecap: square"/>
     </g>
     <g id="line2d_10">
      <g>
       <use xlink:href="#mf31c1e5922" x="367.270786" y="161.67875" style="stroke: #000000; stroke-width: 0.8"/>
      </g>
     </g>
    </g>
    <g id="xtick_6">
     <g id="line2d_11">
      <path d="M 441.991833 161.67875 
L 441.991833 33.21375 
" clip-path="url(#pfabf31980b)" style="fill: none; stroke: #b0b0b0; stroke-width: 0.8; stroke-linecap: square"/>
     </g>
     <g id="line2d_12">
      <g>
       <use xlink:href="#mf31c1e5922" x="441.991833" y="161.67875" style="stroke: #000000; stroke-width: 0.8"/>
      </g>
     </g>
    </g>
   </g>
   <g id="matplotlib.axis_2">
    <g id="ytick_1">
     <g id="line2d_13">
      <path d="M 50.565625 153.24088 
L 442.626962 153.24088 
" clip-path="url(#pfabf31980b)" style="fill: none; stroke: #b0b0b0; stroke-width: 0.8; stroke-linecap: square"/>
     </g>
     <g id="line2d_14">
      <defs>
       <path id="mffb11960df" d="M 0 0 
L -3.5 0 
" style="stroke: #000000; stroke-width: 0.8"/>
      </defs>
      <g>
       <use xlink:href="#mffb11960df" x="50.565625" y="153.24088" style="stroke: #000000; stroke-width: 0.8"/>
      </g>
     </g>
     <g id="text_1">
      <!-- 0 -->
      <g transform="translate(37.203125 157.040098)scale(0.1 -0.1)">
       <defs>
        <path id="DejaVuSans-30" d="M 2034 4250 
Q 1547 4250 1301 3770 
Q 1056 3291 1056 2328 
Q 1056 1369 1301 889 
Q 1547 409 2034 409 
Q 2525 409 2770 889 
Q 3016 1369 3016 2328 
Q 3016 3291 2770 3770 
Q 2525 4250 2034 4250 
z
M 2034 4750 
Q 2819 4750 3233 4129 
Q 3647 3509 3647 2328 
Q 3647 1150 3233 529 
Q 2819 -91 2034 -91 
Q 1250 -91 836 529 
Q 422 1150 422 2328 
Q 422 3509 836 4129 
Q 1250 4750 2034 4750 
z
" transform="scale(0.015625)"/>
       </defs>
       <use xlink:href="#DejaVuSans-30"/>
      </g>
     </g>
    </g>
    <g id="ytick_2">
     <g id="line2d_15">
      <path d="M 50.565625 120.24339 
L 442.626962 120.24339 
" clip-path="url(#pfabf31980b)" style="fill: none; stroke: #b0b0b0; stroke-width: 0.8; stroke-linecap: square"/>
     </g>
     <g id="line2d_16">
      <g>
       <use xlink:href="#mffb11960df" x="50.565625" y="120.24339" style="stroke: #000000; stroke-width: 0.8"/>
      </g>
     </g>
     <g id="text_2">
      <!-- 200 -->
      <g transform="translate(24.478125 124.042609)scale(0.1 -0.1)">
       <defs>
        <path id="DejaVuSans-32" d="M 1228 531 
L 3431 531 
L 3431 0 
L 469 0 
L 469 531 
Q 828 903 1448 1529 
Q 2069 2156 2228 2338 
Q 2531 2678 2651 2914 
Q 2772 3150 2772 3378 
Q 2772 3750 2511 3984 
Q 2250 4219 1831 4219 
Q 1534 4219 1204 4116 
Q 875 4013 500 3803 
L 500 4441 
Q 881 4594 1212 4672 
Q 1544 4750 1819 4750 
Q 2544 4750 2975 4387 
Q 3406 4025 3406 3419 
Q 3406 3131 3298 2873 
Q 3191 2616 2906 2266 
Q 2828 2175 2409 1742 
Q 1991 1309 1228 531 
z
" transform="scale(0.015625)"/>
       </defs>
       <use xlink:href="#DejaVuSans-32"/>
       <use xlink:href="#DejaVuSans-30" x="63.623047"/>
       <use xlink:href="#DejaVuSans-30" x="127.246094"/>
      </g>
     </g>
    </g>
    <g id="ytick_3">
     <g id="line2d_17">
      <path d="M 50.565625 87.245901 
L 442.626962 87.245901 
" clip-path="url(#pfabf31980b)" style="fill: none; stroke: #b0b0b0; stroke-width: 0.8; stroke-linecap: square"/>
     </g>
     <g id="line2d_18">
      <g>
       <use xlink:href="#mffb11960df" x="50.565625" y="87.245901" style="stroke: #000000; stroke-width: 0.8"/>
      </g>
     </g>
     <g id="text_3">
      <!-- 400 -->
      <g transform="translate(24.478125 91.04512)scale(0.1 -0.1)">
       <defs>
        <path id="DejaVuSans-34" d="M 2419 4116 
L 825 1625 
L 2419 1625 
L 2419 4116 
z
M 2253 4666 
L 3047 4666 
L 3047 1625 
L 3713 1625 
L 3713 1100 
L 3047 1100 
L 3047 0 
L 2419 0 
L 2419 1100 
L 313 1100 
L 313 1709 
L 2253 4666 
z
" transform="scale(0.015625)"/>
       </defs>
       <use xlink:href="#DejaVuSans-34"/>
       <use xlink:href="#DejaVuSans-30" x="63.623047"/>
       <use xlink:href="#DejaVuSans-30" x="127.246094"/>
      </g>
     </g>
    </g>
    <g id="ytick_4">
     <g id="line2d_19">
      <path d="M 50.565625 54.248412 
L 442.626962 54.248412 
" clip-path="url(#pfabf31980b)" style="fill: none; stroke: #b0b0b0; stroke-width: 0.8; stroke-linecap: square"/>
     </g>
     <g id="line2d_20">
      <g>
       <use xlink:href="#mffb11960df" x="50.565625" y="54.248412" style="stroke: #000000; stroke-width: 0.8"/>
      </g>
     </g>
     <g id="text_4">
      <!-- 600 -->
      <g transform="translate(24.478125 58.047631)scale(0.1 -0.1)">
       <defs>
        <path id="DejaVuSans-36" d="M 2113 2584 
Q 1688 2584 1439 2293 
Q 1191 2003 1191 1497 
Q 1191 994 1439 701 
Q 1688 409 2113 409 
Q 2538 409 2786 701 
Q 3034 994 3034 1497 
Q 3034 2003 2786 2293 
Q 2538 2584 2113 2584 
z
M 3366 4563 
L 3366 3988 
Q 3128 4100 2886 4159 
Q 2644 4219 2406 4219 
Q 1781 4219 1451 3797 
Q 1122 3375 1075 2522 
Q 1259 2794 1537 2939 
Q 1816 3084 2150 3084 
Q 2853 3084 3261 2657 
Q 3669 2231 3669 1497 
Q 3669 778 3244 343 
Q 2819 -91 2113 -91 
Q 1303 -91 875 529 
Q 447 1150 447 2328 
Q 447 3434 972 4092 
Q 1497 4750 2381 4750 
Q 2619 4750 2861 4703 
Q 3103 4656 3366 4563 
z
" transform="scale(0.015625)"/>
       </defs>
       <use xlink:href="#DejaVuSans-36"/>
       <use xlink:href="#DejaVuSans-30" x="63.623047"/>
       <use xlink:href="#DejaVuSans-30" x="127.246094"/>
      </g>
     </g>
    </g>
    <g id="text_5">
     <!-- trans. vel. [mm/s] -->
     <g transform="translate(18.398438 142.011875)rotate(-90)scale(0.1 -0.1)">
      <defs>
       <path id="DejaVuSans-74" d="M 1172 4494 
L 1172 3500 
L 2356 3500 
L 2356 3053 
L 1172 3053 
L 1172 1153 
Q 1172 725 1289 603 
Q 1406 481 1766 481 
L 2356 481 
L 2356 0 
L 1766 0 
Q 1100 0 847 248 
Q 594 497 594 1153 
L 594 3053 
L 172 3053 
L 172 3500 
L 594 3500 
L 594 4494 
L 1172 4494 
z
" transform="scale(0.015625)"/>
       <path id="DejaVuSans-72" d="M 2631 2963 
Q 2534 3019 2420 3045 
Q 2306 3072 2169 3072 
Q 1681 3072 1420 2755 
Q 1159 2438 1159 1844 
L 1159 0 
L 581 0 
L 581 3500 
L 1159 3500 
L 1159 2956 
Q 1341 3275 1631 3429 
Q 1922 3584 2338 3584 
Q 2397 3584 2469 3576 
Q 2541 3569 2628 3553 
L 2631 2963 
z
" transform="scale(0.015625)"/>
       <path id="DejaVuSans-61" d="M 2194 1759 
Q 1497 1759 1228 1600 
Q 959 1441 959 1056 
Q 959 750 1161 570 
Q 1363 391 1709 391 
Q 2188 391 2477 730 
Q 2766 1069 2766 1631 
L 2766 1759 
L 2194 1759 
z
M 3341 1997 
L 3341 0 
L 2766 0 
L 2766 531 
Q 2569 213 2275 61 
Q 1981 -91 1556 -91 
Q 1019 -91 701 211 
Q 384 513 384 1019 
Q 384 1609 779 1909 
Q 1175 2209 1959 2209 
L 2766 2209 
L 2766 2266 
Q 2766 2663 2505 2880 
Q 2244 3097 1772 3097 
Q 1472 3097 1187 3025 
Q 903 2953 641 2809 
L 641 3341 
Q 956 3463 1253 3523 
Q 1550 3584 1831 3584 
Q 2591 3584 2966 3190 
Q 3341 2797 3341 1997 
z
" transform="scale(0.015625)"/>
       <path id="DejaVuSans-6e" d="M 3513 2113 
L 3513 0 
L 2938 0 
L 2938 2094 
Q 2938 2591 2744 2837 
Q 2550 3084 2163 3084 
Q 1697 3084 1428 2787 
Q 1159 2491 1159 1978 
L 1159 0 
L 581 0 
L 581 3500 
L 1159 3500 
L 1159 2956 
Q 1366 3272 1645 3428 
Q 1925 3584 2291 3584 
Q 2894 3584 3203 3211 
Q 3513 2838 3513 2113 
z
" transform="scale(0.015625)"/>
       <path id="DejaVuSans-73" d="M 2834 3397 
L 2834 2853 
Q 2591 2978 2328 3040 
Q 2066 3103 1784 3103 
Q 1356 3103 1142 2972 
Q 928 2841 928 2578 
Q 928 2378 1081 2264 
Q 1234 2150 1697 2047 
L 1894 2003 
Q 2506 1872 2764 1633 
Q 3022 1394 3022 966 
Q 3022 478 2636 193 
Q 2250 -91 1575 -91 
Q 1294 -91 989 -36 
Q 684 19 347 128 
L 347 722 
Q 666 556 975 473 
Q 1284 391 1588 391 
Q 1994 391 2212 530 
Q 2431 669 2431 922 
Q 2431 1156 2273 1281 
Q 2116 1406 1581 1522 
L 1381 1569 
Q 847 1681 609 1914 
Q 372 2147 372 2553 
Q 372 3047 722 3315 
Q 1072 3584 1716 3584 
Q 2034 3584 2315 3537 
Q 2597 3491 2834 3397 
z
" transform="scale(0.015625)"/>
       <path id="DejaVuSans-2e" d="M 684 794 
L 1344 794 
L 1344 0 
L 684 0 
L 684 794 
z
" transform="scale(0.015625)"/>
       <path id="DejaVuSans-20" transform="scale(0.015625)"/>
       <path id="DejaVuSans-76" d="M 191 3500 
L 800 3500 
L 1894 563 
L 2988 3500 
L 3597 3500 
L 2284 0 
L 1503 0 
L 191 3500 
z
" transform="scale(0.015625)"/>
       <path id="DejaVuSans-65" d="M 3597 1894 
L 3597 1613 
L 953 1613 
Q 991 1019 1311 708 
Q 1631 397 2203 397 
Q 2534 397 2845 478 
Q 3156 559 3463 722 
L 3463 178 
Q 3153 47 2828 -22 
Q 2503 -91 2169 -91 
Q 1331 -91 842 396 
Q 353 884 353 1716 
Q 353 2575 817 3079 
Q 1281 3584 2069 3584 
Q 2775 3584 3186 3129 
Q 3597 2675 3597 1894 
z
M 3022 2063 
Q 3016 2534 2758 2815 
Q 2500 3097 2075 3097 
Q 1594 3097 1305 2825 
Q 1016 2553 972 2059 
L 3022 2063 
z
" transform="scale(0.015625)"/>
       <path id="DejaVuSans-6c" d="M 603 4863 
L 1178 4863 
L 1178 0 
L 603 0 
L 603 4863 
z
" transform="scale(0.015625)"/>
       <path id="DejaVuSans-5b" d="M 550 4863 
L 1875 4863 
L 1875 4416 
L 1125 4416 
L 1125 -397 
L 1875 -397 
L 1875 -844 
L 550 -844 
L 550 4863 
z
" transform="scale(0.015625)"/>
       <path id="DejaVuSans-6d" d="M 3328 2828 
Q 3544 3216 3844 3400 
Q 4144 3584 4550 3584 
Q 5097 3584 5394 3201 
Q 5691 2819 5691 2113 
L 5691 0 
L 5113 0 
L 5113 2094 
Q 5113 2597 4934 2840 
Q 4756 3084 4391 3084 
Q 3944 3084 3684 2787 
Q 3425 2491 3425 1978 
L 3425 0 
L 2847 0 
L 2847 2094 
Q 2847 2600 2669 2842 
Q 2491 3084 2119 3084 
Q 1678 3084 1418 2786 
Q 1159 2488 1159 1978 
L 1159 0 
L 581 0 
L 581 3500 
L 1159 3500 
L 1159 2956 
Q 1356 3278 1631 3431 
Q 1906 3584 2284 3584 
Q 2666 3584 2933 3390 
Q 3200 3197 3328 2828 
z
" transform="scale(0.015625)"/>
       <path id="DejaVuSans-2f" d="M 1625 4666 
L 2156 4666 
L 531 -594 
L 0 -594 
L 1625 4666 
z
" transform="scale(0.015625)"/>
       <path id="DejaVuSans-5d" d="M 1947 4863 
L 1947 -844 
L 622 -844 
L 622 -397 
L 1369 -397 
L 1369 4416 
L 622 4416 
L 622 4863 
L 1947 4863 
z
" transform="scale(0.015625)"/>
      </defs>
      <use xlink:href="#DejaVuSans-74"/>
      <use xlink:href="#DejaVuSans-72" x="39.208984"/>
      <use xlink:href="#DejaVuSans-61" x="80.322266"/>
      <use xlink:href="#DejaVuSans-6e" x="141.601562"/>
      <use xlink:href="#DejaVuSans-73" x="204.980469"/>
      <use xlink:href="#DejaVuSans-2e" x="257.080078"/>
      <use xlink:href="#DejaVuSans-20" x="288.867188"/>
      <use xlink:href="#DejaVuSans-76" x="320.654297"/>
      <use xlink:href="#DejaVuSans-65" x="379.833984"/>
      <use xlink:href="#DejaVuSans-6c" x="441.357422"/>
      <use xlink:href="#DejaVuSans-2e" x="469.140625"/>
      <use xlink:href="#DejaVuSans-20" x="500.927734"/>
      <use xlink:href="#DejaVuSans-5b" x="532.714844"/>
      <use xlink:href="#DejaVuSans-6d" x="571.728516"/>
      <use xlink:href="#DejaVuSans-6d" x="669.140625"/>
      <use xlink:href="#DejaVuSans-2f" x="766.552734"/>
      <use xlink:href="#DejaVuSans-73" x="800.244141"/>
      <use xlink:href="#DejaVuSans-5d" x="852.34375"/>
     </g>
    </g>
   </g>
   <g id="line2d_21">
    <path d="M 68.386595 153.24088 
L 69.133805 153.161686 
L 69.881016 152.924104 
L 71.001832 152.270753 
L 72.122647 151.26103 
L 73.243463 149.894934 
L 74.364279 148.172465 
L 75.485094 146.093623 
L 76.979515 142.767476 
L 78.473936 138.807778 
L 79.968357 134.217827 
L 81.836383 127.585332 
L 87.440462 105.361523 
L 94.912567 76.026755 
L 96.780593 69.955217 
L 98.275014 65.814032 
L 99.769435 62.299799 
L 101.263856 59.429018 
L 102.384672 57.680151 
L 103.505487 56.294256 
L 104.626303 55.271334 
L 105.747119 54.594886 
L 106.494329 54.347404 
L 107.615145 54.248412 
L 349.337734 54.330906 
L 350.084945 54.561888 
L 351.20576 55.221838 
L 352.326576 56.228261 
L 353.447392 57.597657 
L 354.568208 59.313527 
L 356.062629 62.167809 
L 357.55705 65.649044 
L 359.05147 69.757232 
L 360.919497 75.795772 
L 362.787523 82.824238 
L 375.116496 131.446038 
L 376.610917 136.395661 
L 378.105338 140.693584 
L 379.599759 144.364555 
L 381.09418 147.401974 
L 382.214995 149.263032 
L 383.335811 150.769368 
L 384.456627 151.91801 
L 385.577442 152.71094 
L 386.698258 153.147299 
L 387.819074 153.24088 
L 424.805992 153.24088 
L 424.805992 153.24088 
" clip-path="url(#pfabf31980b)" style="fill: none; stroke: #1f77b4; stroke-width: 1.5; stroke-linecap: square"/>
   </g>
   <g id="line2d_22">
    <path d="M 68.386595 153.24088 
L 71.375437 153.24088 
L 71.749042 153.03943 
L 72.122647 153.24088 
L 72.496253 153.03943 
L 72.869858 153.24088 
L 73.617068 152.848209 
L 73.990673 153.03943 
L 74.364279 152.636696 
L 74.737884 152.435246 
L 75.111489 152.455374 
L 75.485094 151.841126 
L 75.8587 151.841126 
L 76.232305 151.247831 
L 76.60591 151.034997 
L 76.979515 150.259556 
L 77.353121 150.038473 
L 78.473936 147.854039 
L 78.847542 147.44982 
L 79.221147 145.859341 
L 79.594752 145.446873 
L 80.341963 142.85822 
L 81.089173 138.870473 
L 81.836383 134.465308 
L 82.957199 125.489991 
L 83.70441 118.906992 
L 84.078015 113.115933 
L 84.45162 111.911524 
L 84.825225 106.730919 
L 85.198831 104.338601 
L 85.572436 98.151571 
L 85.946041 104.124117 
L 86.319646 99.735451 
L 86.693252 97.557617 
L 87.066857 98.927012 
L 87.440462 93.16895 
L 87.814067 96.732679 
L 88.187673 87.773861 
L 88.561278 92.146028 
L 88.934883 87.377891 
L 89.308488 85.958999 
L 89.682093 81.372348 
L 90.055699 87.163407 
L 90.429304 79.986454 
L 90.802909 86.173483 
L 91.176514 78.765546 
L 91.55012 85.183558 
L 91.923725 79.178015 
L 92.29733 76.389727 
L 92.670935 83.962651 
L 93.044541 78.386075 
L 93.418146 76.175244 
L 93.791751 76.983682 
L 94.912567 70.400683 
L 95.286172 67.216425 
L 95.659777 67.595896 
L 96.033383 66.803957 
L 96.406988 60.220958 
L 96.780593 72.182547 
L 97.154198 67.397911 
L 98.275014 70.796653 
L 98.648619 71.192623 
L 99.022224 72.595016 
L 99.39583 72.8095 
L 99.769435 72.182547 
L 100.14304 72.397031 
L 100.516645 70.598668 
L 100.890251 73.188971 
L 101.263856 68.404335 
L 101.637461 70.400683 
L 102.011066 69.410758 
L 102.384672 66.803957 
L 102.758277 71.786577 
L 103.131882 69.196275 
L 103.505487 68.20635 
L 103.879093 70.582169 
L 104.252698 70.004713 
L 104.626303 68.60232 
L 104.999908 68.404335 
L 105.747119 67.595896 
L 106.120724 67.001942 
L 106.494329 67.01844 
L 106.867934 65.797533 
L 107.98875 64.015669 
L 108.362355 62.827759 
L 109.109566 61.606852 
L 109.483171 59.214534 
L 109.856776 60.418942 
L 110.230382 63.421714 
L 110.603987 60.418942 
L 110.977592 61.606852 
L 111.351197 53.819445 
L 111.724803 67.41441 
L 112.098408 61.210882 
L 112.472013 59.412519 
L 112.845618 61.606852 
L 113.219224 61.012897 
L 113.966434 58.818564 
L 114.340039 59.016549 
L 114.713644 58.422594 
L 115.08725 58.818564 
L 115.460855 58.224609 
L 115.83446 52.43355 
L 116.208065 64.213654 
L 116.581671 53.027505 
L 116.955276 63.009245 
L 117.328881 58.010126 
L 118.449697 56.409747 
L 118.823302 57.630655 
L 119.196907 56.030276 
L 119.570513 58.026624 
L 119.944118 56.822216 
L 120.317723 49.051307 
L 120.691328 61.821336 
L 121.064934 55.419823 
L 121.438539 53.835943 
L 121.812144 56.822216 
L 122.185749 55.221838 
L 122.559354 55.023853 
L 122.93296 54.429898 
L 123.306565 54.231913 
L 123.68017 54.825868 
L 124.053775 54.429898 
L 124.427381 54.429898 
L 125.548196 56.030276 
L 125.921802 56.013778 
L 126.295407 55.832291 
L 126.669012 56.211763 
L 127.042617 55.634307 
L 128.163433 55.617808 
L 128.537038 56.228261 
L 128.910644 52.021081 
L 129.284249 59.033048 
L 129.657854 55.221838 
L 130.031459 55.023853 
L 130.405064 51.427127 
L 130.77867 55.617808 
L 131.152275 53.027505 
L 131.52588 54.033928 
L 131.899485 50.222718 
L 132.273091 55.815793 
L 132.646696 51.839595 
L 133.020301 51.443625 
L 133.393906 51.229142 
L 133.767512 50.635187 
L 134.141117 50.437202 
L 134.514722 49.645262 
L 134.888327 49.843247 
L 135.261933 49.628763 
L 135.635538 48.836824 
L 136.009143 49.051307 
L 136.382748 46.230022 
L 136.756354 50.437202 
L 137.129959 45.850551 
L 137.503564 52.631535 
L 137.877169 49.034809 
L 138.250774 49.034809 
L 138.62438 46.840476 
L 138.997985 50.635187 
L 139.37159 48.242869 
L 139.745195 39.053068 
L 140.118801 58.620579 
L 140.492406 41.065915 
L 140.866011 57.218186 
L 141.239616 50.041232 
L 141.613222 50.041232 
L 141.986827 49.843247 
L 142.360432 49.430779 
L 142.734037 50.437202 
L 143.107643 50.833172 
L 143.481248 51.047656 
L 143.854853 50.833172 
L 144.228458 51.823097 
L 144.602064 51.427127 
L 144.975669 50.239217 
L 145.349274 54.825868 
L 145.722879 52.235565 
L 146.096485 53.22549 
L 146.47009 53.027505 
L 146.843695 51.64161 
L 147.2173 55.221838 
L 147.590905 54.825868 
L 147.964511 54.231913 
L 148.338116 53.027505 
L 148.711721 56.624231 
L 149.085326 55.436322 
L 149.458932 55.832291 
L 149.832537 56.409747 
L 150.206142 56.624231 
L 150.579747 56.624231 
L 150.953353 56.426246 
L 151.326958 56.624231 
L 151.700563 57.020201 
L 152.074168 57.020201 
L 152.447774 56.624231 
L 152.821379 57.020201 
L 153.194984 56.426246 
L 153.568589 56.442745 
L 153.942195 56.607732 
L 154.3158 53.835943 
L 154.689405 57.630655 
L 155.810221 53.423475 
L 156.183826 57.020201 
L 156.931036 52.235565 
L 157.304642 54.627883 
L 157.678247 53.241989 
L 158.051852 53.423475 
L 158.425457 52.235565 
L 158.799063 52.43355 
L 159.546273 51.427127 
L 159.919878 51.229142 
L 160.293484 50.437202 
L 160.667089 50.437202 
L 161.040694 51.229142 
L 161.787905 50.239217 
L 162.16151 53.22549 
L 162.535115 49.645262 
L 162.90872 54.215414 
L 163.282325 52.03758 
L 163.655931 45.042112 
L 164.029536 58.620579 
L 164.776746 45.850551 
L 165.150352 59.231033 
L 165.523957 52.82952 
L 165.897562 53.241989 
L 166.271167 52.82952 
L 167.018378 54.033928 
L 167.391983 54.033928 
L 167.765588 54.215414 
L 168.139194 54.215414 
L 168.512799 53.835943 
L 168.886404 55.023853 
L 169.260009 54.231913 
L 169.633615 47.450929 
L 170.00722 59.412519 
L 170.380825 54.825868 
L 170.75443 53.835943 
L 171.128035 56.228261 
L 171.501641 54.627883 
L 171.875246 55.221838 
L 172.248851 53.027505 
L 172.622456 57.43267 
L 172.996062 56.624231 
L 173.369667 56.624231 
L 173.743272 55.436322 
L 174.116877 58.422594 
L 174.490483 57.43267 
L 174.864088 57.614156 
L 175.237693 57.218186 
L 175.611298 58.026624 
L 175.984904 57.43267 
L 176.358509 57.630655 
L 176.732114 58.208111 
L 177.105719 51.427127 
L 177.479325 64.015669 
L 177.85293 57.020201 
L 178.226535 57.812141 
L 178.60014 55.221838 
L 178.973746 59.214534 
L 179.347351 55.617808 
L 179.720956 57.630655 
L 180.094561 56.013778 
L 180.468166 52.235565 
L 180.841772 57.020201 
L 181.215377 54.627883 
L 181.588982 54.429898 
L 181.962587 52.03758 
L 182.336193 54.825868 
L 182.709798 53.423475 
L 183.083403 52.82952 
L 183.457008 52.631535 
L 184.204219 51.839595 
L 184.577824 50.833172 
L 184.951429 51.229142 
L 185.325035 50.833172 
L 185.69864 52.235565 
L 186.072245 51.64161 
L 186.44585 51.625112 
L 186.819456 49.249292 
L 187.193061 53.835943 
L 187.566666 50.420703 
L 187.940271 52.43355 
L 188.313876 45.256596 
L 188.687482 56.228261 
L 189.061087 53.423475 
L 189.434692 52.43355 
L 189.808297 46.642491 
L 190.181903 57.020201 
L 190.555508 52.43355 
L 190.929113 53.62146 
L 191.302718 47.236446 
L 191.676324 60.022973 
L 192.049929 48.242869 
L 192.423534 59.824988 
L 192.797139 46.642491 
L 193.170745 62.200807 
L 193.54435 54.429898 
L 193.917955 54.627883 
L 194.29156 54.033928 
L 194.665166 54.627883 
L 195.038771 53.027505 
L 195.412376 56.030276 
L 195.785981 53.241989 
L 196.159586 57.003702 
L 196.533192 55.221838 
L 196.906797 54.248412 
L 197.280402 57.020201 
L 197.654007 56.228261 
L 198.027613 54.429898 
L 198.401218 57.812141 
L 198.774823 56.624231 
L 199.148428 57.020201 
L 199.522034 57.0367 
L 199.895639 57.43267 
L 200.269244 57.43267 
L 200.642849 57.812141 
L 201.016455 57.43267 
L 201.39006 58.010126 
L 201.763665 57.82864 
L 202.510876 57.020201 
L 202.884481 57.020201 
L 203.258086 56.409747 
L 203.631691 57.43267 
L 204.005296 54.429898 
L 204.378902 57.630655 
L 205.126112 53.027505 
L 205.499717 56.030276 
L 206.246928 51.64161 
L 206.620533 55.617808 
L 206.994138 53.027505 
L 207.367744 53.241989 
L 207.741349 51.427127 
L 208.114954 53.027505 
L 208.488559 44.844128 
L 208.862165 58.224609 
L 209.23577 52.03758 
L 209.609375 51.64161 
L 209.98298 51.427127 
L 210.356586 51.839595 
L 210.730191 51.229142 
L 211.103796 50.833172 
L 211.477401 48.638839 
L 211.851006 53.22549 
L 212.224612 49.645262 
L 212.598217 52.615036 
L 213.345427 50.041232 
L 213.719033 52.648034 
L 214.092638 51.839595 
L 214.466243 43.045764 
L 214.839848 60.006474 
L 215.213454 51.427127 
L 215.587059 53.241989 
L 215.960664 46.840476 
L 216.334269 58.224609 
L 216.707875 47.236446 
L 217.08148 58.818564 
L 217.455085 53.439973 
L 217.82869 53.22549 
L 218.202296 53.835943 
L 218.575901 53.62146 
L 218.949506 47.038461 
L 219.323111 60.220958 
L 219.696717 53.22549 
L 220.070322 55.419823 
L 220.443927 51.839595 
L 220.817532 55.221838 
L 221.191137 53.835943 
L 221.564743 53.835943 
L 221.938348 46.642491 
L 222.311953 62.002822 
L 222.685558 54.842367 
L 223.059164 53.423475 
L 223.432769 57.812141 
L 223.806374 56.624231 
L 224.179979 56.822216 
L 224.92719 57.630655 
L 225.300795 57.812141 
L 226.421611 57.234685 
L 227.168821 57.614156 
L 227.542427 57.43267 
L 227.916032 55.634307 
L 228.289637 56.013778 
L 228.663242 57.82864 
L 229.036847 56.211763 
L 229.410453 55.832291 
L 229.784058 54.01743 
L 230.157663 56.030276 
L 230.531268 55.634307 
L 230.904874 52.021081 
L 231.278479 56.822216 
L 231.652084 54.033928 
L 232.025689 53.423475 
L 232.399295 52.03758 
L 232.7729 52.235565 
L 233.893716 51.64161 
L 234.267321 52.03758 
L 235.014531 52.03758 
L 235.388137 51.64161 
L 235.761742 50.222718 
L 236.135347 53.637958 
L 236.508952 49.645262 
L 236.882557 53.423475 
L 237.256163 51.823097 
L 237.629768 43.854203 
L 238.003373 60.022973 
L 238.376978 46.230022 
L 238.750584 57.630655 
L 239.124189 45.850551 
L 239.497794 59.214534 
L 239.871399 47.236446 
L 240.245005 59.412519 
L 240.61861 48.044884 
L 240.992215 58.818564 
L 241.36582 47.450929 
L 241.739426 59.808489 
L 242.113031 47.648914 
L 242.486636 60.814912 
L 242.860241 48.440854 
L 243.233847 59.808489 
L 243.607452 53.637958 
L 243.981057 56.030276 
L 244.354662 51.64161 
L 244.728267 56.822216 
L 245.101873 55.419823 
L 245.475478 55.634307 
L 245.849083 55.023853 
L 246.222688 56.624231 
L 246.596294 56.426246 
L 246.969899 54.627883 
L 247.343504 58.802065 
L 248.090715 56.624231 
L 248.46432 57.614156 
L 248.837925 58.224609 
L 249.21153 57.812141 
L 249.585136 58.026624 
L 251.079557 58.026624 
L 251.453162 57.416171 
L 251.826767 57.82864 
L 252.200372 55.617808 
L 252.573978 58.422594 
L 253.321188 56.228261 
L 253.694793 53.835943 
L 254.068398 57.218186 
L 254.815609 53.423475 
L 255.189214 55.436322 
L 255.936425 52.82952 
L 256.31003 52.43355 
L 256.683635 52.235565 
L 257.05724 51.823097 
L 257.804451 52.235565 
L 258.178056 51.625112 
L 258.551661 51.229142 
L 258.925267 51.031157 
L 259.298872 49.645262 
L 259.672477 52.235565 
L 260.046082 47.43443 
L 260.419688 53.423475 
L 260.793293 51.047656 
L 261.166898 50.833172 
L 261.540503 43.837704 
L 261.914108 57.82864 
L 262.661319 43.260248 
L 263.034924 57.614156 
L 263.408529 51.047656 
L 263.782135 51.823097 
L 264.15574 51.427127 
L 264.529345 45.256596 
L 264.90295 59.214534 
L 265.276556 46.048536 
L 265.650161 59.627003 
L 266.023766 47.038461 
L 266.397371 59.627003 
L 266.770977 48.044884 
L 267.144582 59.016549 
L 267.518187 54.231913 
L 267.891792 51.823097 
L 268.265398 56.030276 
L 268.639003 53.423475 
L 269.012608 52.631535 
L 269.386213 57.020201 
L 270.133424 53.423475 
L 270.507029 55.832291 
L 270.880634 55.815793 
L 271.254239 55.238337 
L 271.627845 55.617808 
L 272.00145 56.442745 
L 272.375055 56.624231 
L 272.74866 57.020201 
L 273.122266 57.812141 
L 273.869476 57.812141 
L 274.243081 57.630655 
L 274.616687 55.617808 
L 274.990292 59.627003 
L 275.363897 57.020201 
L 275.737502 58.422594 
L 276.111108 57.020201 
L 276.484713 55.023853 
L 276.858318 58.620579 
L 277.231923 57.020201 
L 277.605528 53.835943 
L 277.979134 57.218186 
L 278.352739 56.030276 
L 278.726344 55.436322 
L 279.099949 55.617808 
L 279.473555 55.221838 
L 279.84716 55.221838 
L 280.59437 53.241989 
L 280.967976 54.429898 
L 281.715186 53.423475 
L 282.088791 52.43355 
L 282.462397 54.429898 
L 282.836002 51.427127 
L 283.209607 54.215414 
L 283.956818 50.239217 
L 284.330423 53.22549 
L 284.704028 52.43355 
L 285.077633 48.836824 
L 285.451238 54.215414 
L 285.824844 52.03758 
L 286.198449 51.427127 
L 286.572054 51.031157 
L 286.945659 44.860626 
L 287.319265 58.208111 
L 287.69287 45.636067 
L 288.066475 57.630655 
L 288.44008 52.43355 
L 288.813686 52.235565 
L 289.187291 50.239217 
L 289.560896 54.611384 
L 289.934501 50.239217 
L 290.308107 56.030276 
L 290.681712 46.444506 
L 291.055317 57.43267 
L 291.428922 56.211763 
L 291.802528 53.62146 
L 292.176133 51.823097 
L 292.549738 55.436322 
L 292.923343 46.840476 
L 293.296949 60.418942 
L 293.670554 54.215414 
L 294.044159 53.835943 
L 294.417764 54.627883 
L 294.791369 54.627883 
L 295.164975 53.62146 
L 295.53858 54.429898 
L 295.912185 54.033928 
L 296.28579 53.027505 
L 296.659396 57.416171 
L 297.033001 54.033928 
L 297.406606 58.620579 
L 297.780211 58.224609 
L 298.153817 57.003702 
L 298.527422 55.221838 
L 298.901027 58.818564 
L 299.274632 56.228261 
L 299.648238 57.218186 
L 300.021843 55.023853 
L 300.395448 58.620579 
L 300.769053 56.822216 
L 301.142659 57.82864 
L 301.516264 57.43267 
L 301.889869 57.416171 
L 302.263474 57.020201 
L 302.637079 56.030276 
L 303.010685 56.030276 
L 303.38429 54.01743 
L 303.757895 57.218186 
L 304.1315 52.846019 
L 304.505106 56.228261 
L 305.252316 52.631535 
L 305.625921 57.020201 
L 305.999527 53.62146 
L 306.373132 54.215414 
L 306.746737 50.453701 
L 307.120342 56.211763 
L 307.493948 45.438082 
L 307.867553 58.818564 
L 308.241158 51.839595 
L 308.614763 52.631535 
L 308.988369 51.823097 
L 309.361974 52.03758 
L 309.735579 52.021081 
L 310.109184 51.64161 
L 310.482789 52.631535 
L 310.856395 50.041232 
L 311.23 54.429898 
L 311.603605 52.82952 
L 311.97721 53.027505 
L 312.350816 44.646143 
L 312.724421 60.814912 
L 313.098026 46.642491 
L 313.471631 60.022973 
L 313.845237 51.823097 
L 314.218842 55.634307 
L 314.592447 54.215414 
L 314.966052 54.231913 
L 315.339658 54.033928 
L 315.713263 55.023853 
L 316.086868 55.023853 
L 316.460473 53.027505 
L 316.834079 55.436322 
L 317.207684 53.22549 
L 317.581289 56.228261 
L 317.954894 54.627883 
L 318.328499 51.229142 
L 318.702105 57.0367 
L 319.07571 55.419823 
L 319.449315 55.436322 
L 319.82292 54.231913 
L 320.196526 52.615036 
L 320.570131 57.218186 
L 320.943736 56.228261 
L 321.317341 56.228261 
L 321.690947 56.822216 
L 322.064552 56.822216 
L 322.438157 57.020201 
L 322.811762 55.436322 
L 323.185368 61.012897 
L 323.558973 56.624231 
L 323.932578 60.022973 
L 324.306183 59.033048 
L 324.679789 56.805717 
L 325.053394 60.418942 
L 325.426999 58.422594 
L 325.800604 59.016549 
L 326.17421 56.228261 
L 326.547815 59.412519 
L 327.295025 56.805717 
L 327.66863 56.822216 
L 328.042236 56.228261 
L 328.415841 55.221838 
L 328.789446 52.235565 
L 329.163051 57.0367 
L 329.536657 51.823097 
L 329.910262 56.030276 
L 330.283867 53.439973 
L 330.657472 51.64161 
L 331.031078 54.215414 
L 331.404683 52.235565 
L 331.778288 44.035689 
L 332.151893 60.006474 
L 332.525499 51.64161 
L 332.899104 51.625112 
L 333.272709 51.823097 
L 333.646314 50.635187 
L 334.01992 51.047656 
L 334.76713 48.836824 
L 335.140735 51.229142 
L 335.51434 48.836824 
L 335.887946 52.235565 
L 336.261551 50.635187 
L 336.635156 43.639719 
L 337.008761 57.218186 
L 337.382367 50.833172 
L 337.755972 49.034809 
L 338.129577 53.439973 
L 338.503182 51.427127 
L 338.876788 46.246521 
L 339.250393 57.630655 
L 339.623998 52.82952 
L 339.997603 52.82952 
L 340.371209 51.031157 
L 340.744814 55.436322 
L 341.118419 52.235565 
L 341.492024 55.221838 
L 341.86563 54.231913 
L 342.239235 46.642491 
L 342.61284 59.808489 
L 342.986445 53.241989 
L 343.36005 53.423475 
L 343.733656 54.033928 
L 344.107261 50.239217 
L 344.480866 56.409747 
L 345.228077 54.627883 
L 345.601682 55.040352 
L 345.975287 54.429898 
L 346.348892 57.416171 
L 346.722498 54.429898 
L 347.096103 59.214534 
L 347.469708 58.026624 
L 347.843313 56.030276 
L 348.216919 60.204459 
L 348.590524 58.224609 
L 348.964129 58.224609 
L 349.337734 55.436322 
L 349.71134 59.808489 
L 350.084945 57.218186 
L 350.45855 57.82864 
L 350.832155 57.218186 
L 351.20576 55.436322 
L 351.579366 60.220958 
L 351.952971 56.013778 
L 352.326576 58.637078 
L 352.700181 57.020201 
L 353.073787 56.030276 
L 353.447392 57.218186 
L 353.820997 54.809369 
L 354.194602 59.429018 
L 354.568208 57.218186 
L 354.941813 57.614156 
L 355.315418 55.815793 
L 355.689023 60.220958 
L 356.062629 59.214534 
L 356.436234 57.0367 
L 356.809839 61.606852 
L 357.183444 61.408867 
L 357.55705 61.821336 
L 357.930655 66.391488 
L 358.30426 65.616047 
L 358.677865 60.220958 
L 359.05147 71.588593 
L 359.425076 67.001942 
L 359.798681 66.012017 
L 360.172286 68.404335 
L 360.545891 68.60232 
L 360.919497 70.400683 
L 361.293102 71.192623 
L 361.666707 74.409878 
L 362.040312 71.390608 
L 362.413918 81.966303 
L 362.787523 73.997409 
L 363.161128 86.156984 
L 363.534733 82.774741 
L 363.908339 81.372348 
L 364.655549 94.142376 
L 365.029154 91.568572 
L 365.40276 100.543889 
L 365.776365 99.933436 
L 366.14997 102.738222 
L 366.523575 104.338601 
L 366.897181 104.932555 
L 367.270786 104.520087 
L 367.644391 109.931675 
L 368.017996 105.13054 
L 368.391601 109.931675 
L 368.765207 110.707116 
L 369.512417 114.518326 
L 370.259628 119.302962 
L 370.633233 119.913415 
L 371.006838 124.302082 
L 371.380443 124.087598 
L 371.754049 123.691628 
L 372.127654 121.69528 
L 372.501259 127.882309 
L 372.874864 125.489991 
L 373.24847 127.288354 
L 373.622075 130.076642 
L 374.369285 132.270975 
L 374.742891 133.475384 
L 375.490101 135.273747 
L 375.863706 137.471379 
L 376.237311 134.085837 
L 376.610917 137.662765 
L 376.984522 136.67614 
L 377.358127 136.28017 
L 377.731732 136.659641 
L 378.105338 139.474327 
L 378.478943 136.867525 
L 378.852548 139.464428 
L 379.226153 137.672664 
L 379.599759 137.279994 
L 379.973364 139.464428 
L 380.346969 139.454529 
L 380.720574 138.669188 
L 381.84139 141.267741 
L 382.214995 140.865171 
L 382.588601 140.865171 
L 382.962206 141.861695 
L 383.709416 142.656935 
L 384.083021 142.666834 
L 384.456627 143.844844 
L 384.830232 143.866293 
L 385.203837 144.057678 
L 385.951048 144.862817 
L 386.698258 146.252011 
L 387.071863 145.849442 
L 387.445469 146.261911 
L 387.819074 146.855865 
L 388.192679 146.845966 
L 388.566284 147.84414 
L 388.93989 147.260085 
L 389.313495 148.24671 
L 389.6871 148.055324 
L 390.060705 148.055324 
L 390.434311 148.850564 
L 390.807916 149.243234 
L 391.181521 149.243234 
L 391.555126 149.454418 
L 391.928731 149.847088 
L 392.302337 150.048372 
L 392.675942 150.441043 
L 393.049547 150.249657 
L 393.423152 150.843612 
L 393.796758 150.642327 
L 394.917573 151.85119 
L 395.291179 151.841126 
L 395.664784 152.05264 
L 396.038389 152.435246 
L 396.411994 152.64676 
L 396.7856 152.44531 
L 397.53281 153.230809 
L 397.906415 153.452393 
L 398.280021 153.24088 
L 399.027231 154.237734 
L 399.400836 154.237734 
L 399.774442 154.842083 
L 400.148047 154.640633 
L 400.521652 155.032643 
L 400.895257 155.032643 
L 401.268862 155.245477 
L 401.642468 155.224029 
L 402.016073 155.446762 
L 402.389678 155.436862 
L 403.136889 155.829533 
L 403.510494 155.839432 
L 403.884099 155.638147 
L 404.257704 155.638147 
L 404.63131 155.839432 
L 405.004915 155.638147 
L 405.752125 155.638147 
L 406.125731 155.829533 
L 406.499336 155.436862 
L 406.872941 155.436862 
L 407.246546 155.638147 
L 407.620152 155.436862 
L 408.367362 155.436862 
L 408.740967 155.032643 
L 409.114572 155.233928 
L 409.488178 155.255376 
L 409.861783 154.832018 
L 410.235388 154.630569 
L 410.608993 155.044192 
L 410.982599 155.032643 
L 411.356204 154.640633 
L 412.47702 154.650697 
L 412.850625 154.429119 
L 413.22423 154.832018 
L 413.597835 154.247963 
L 413.971441 154.832018 
L 414.345046 154.449248 
L 414.718651 154.429119 
L 415.092256 154.247963 
L 415.465862 154.429119 
L 415.839467 154.247963 
L 416.586677 154.247963 
L 416.960282 154.036449 
L 417.333888 154.439183 
L 418.081098 154.036449 
L 418.454703 154.247963 
L 419.201914 153.834999 
L 419.575519 153.845064 
L 419.949124 154.036449 
L 420.32273 154.036449 
L 420.696335 153.643614 
L 421.06994 153.643614 
L 421.443545 154.036449 
L 421.817151 153.643614 
L 422.190756 153.834999 
L 422.564361 153.845064 
L 422.937966 153.63355 
L 424.805992 153.643614 
L 424.805992 153.643614 
" clip-path="url(#pfabf31980b)" style="fill: none; stroke: #ff7f0e; stroke-width: 1.5; stroke-linecap: square"/>
   </g>
   <g id="patch_3">
    <path d="M 50.565625 161.67875 
L 50.565625 33.21375 
" style="fill: none; stroke: #000000; stroke-width: 0.8; stroke-linejoin: miter; stroke-linecap: square"/>
   </g>
   <g id="patch_4">
    <path d="M 442.626962 161.67875 
L 442.626962 33.21375 
" style="fill: none; stroke: #000000; stroke-width: 0.8; stroke-linejoin: miter; stroke-linecap: square"/>
   </g>
   <g id="patch_5">
    <path d="M 50.565625 161.67875 
L 442.626962 161.67875 
" style="fill: none; stroke: #000000; stroke-width: 0.8; stroke-linejoin: miter; stroke-linecap: square"/>
   </g>
   <g id="patch_6">
    <path d="M 50.565625 33.21375 
L 442.626962 33.21375 
" style="fill: none; stroke: #000000; stroke-width: 0.8; stroke-linejoin: miter; stroke-linecap: square"/>
   </g>
   <g id="legend_1">
    <g id="patch_7">
     <path d="M 205.3377 156.67875 
L 287.854887 156.67875 
Q 289.854887 156.67875 289.854887 154.67875 
L 289.854887 126.3225 
Q 289.854887 124.3225 287.854887 124.3225 
L 205.3377 124.3225 
Q 203.3377 124.3225 203.3377 126.3225 
L 203.3377 154.67875 
Q 203.3377 156.67875 205.3377 156.67875 
z
" style="fill: #ffffff; opacity: 0.8; stroke: #cccccc; stroke-linejoin: miter"/>
    </g>
    <g id="line2d_23">
     <path d="M 207.3377 132.420937 
L 217.3377 132.420937 
L 227.3377 132.420937 
" style="fill: none; stroke: #1f77b4; stroke-width: 1.5; stroke-linecap: square"/>
    </g>
    <g id="text_6">
     <!-- Reference -->
     <g transform="translate(235.3377 135.920937)scale(0.1 -0.1)">
      <defs>
       <path id="DejaVuSans-52" d="M 2841 2188 
Q 3044 2119 3236 1894 
Q 3428 1669 3622 1275 
L 4263 0 
L 3584 0 
L 2988 1197 
Q 2756 1666 2539 1819 
Q 2322 1972 1947 1972 
L 1259 1972 
L 1259 0 
L 628 0 
L 628 4666 
L 2053 4666 
Q 2853 4666 3247 4331 
Q 3641 3997 3641 3322 
Q 3641 2881 3436 2590 
Q 3231 2300 2841 2188 
z
M 1259 4147 
L 1259 2491 
L 2053 2491 
Q 2509 2491 2742 2702 
Q 2975 2913 2975 3322 
Q 2975 3731 2742 3939 
Q 2509 4147 2053 4147 
L 1259 4147 
z
" transform="scale(0.015625)"/>
       <path id="DejaVuSans-66" d="M 2375 4863 
L 2375 4384 
L 1825 4384 
Q 1516 4384 1395 4259 
Q 1275 4134 1275 3809 
L 1275 3500 
L 2222 3500 
L 2222 3053 
L 1275 3053 
L 1275 0 
L 697 0 
L 697 3053 
L 147 3053 
L 147 3500 
L 697 3500 
L 697 3744 
Q 697 4328 969 4595 
Q 1241 4863 1831 4863 
L 2375 4863 
z
" transform="scale(0.015625)"/>
       <path id="DejaVuSans-63" d="M 3122 3366 
L 3122 2828 
Q 2878 2963 2633 3030 
Q 2388 3097 2138 3097 
Q 1578 3097 1268 2742 
Q 959 2388 959 1747 
Q 959 1106 1268 751 
Q 1578 397 2138 397 
Q 2388 397 2633 464 
Q 2878 531 3122 666 
L 3122 134 
Q 2881 22 2623 -34 
Q 2366 -91 2075 -91 
Q 1284 -91 818 406 
Q 353 903 353 1747 
Q 353 2603 823 3093 
Q 1294 3584 2113 3584 
Q 2378 3584 2631 3529 
Q 2884 3475 3122 3366 
z
" transform="scale(0.015625)"/>
      </defs>
      <use xlink:href="#DejaVuSans-52"/>
      <use xlink:href="#DejaVuSans-65" x="64.982422"/>
      <use xlink:href="#DejaVuSans-66" x="126.505859"/>
      <use xlink:href="#DejaVuSans-65" x="161.710938"/>
      <use xlink:href="#DejaVuSans-72" x="223.234375"/>
      <use xlink:href="#DejaVuSans-65" x="262.097656"/>
      <use xlink:href="#DejaVuSans-6e" x="323.621094"/>
      <use xlink:href="#DejaVuSans-63" x="387"/>
      <use xlink:href="#DejaVuSans-65" x="441.980469"/>
     </g>
    </g>
    <g id="line2d_24">
     <path d="M 207.3377 147.099062 
L 217.3377 147.099062 
L 227.3377 147.099062 
" style="fill: none; stroke: #ff7f0e; stroke-width: 1.5; stroke-linecap: square"/>
    </g>
    <g id="text_7">
     <!-- Estimated -->
     <g transform="translate(235.3377 150.599062)scale(0.1 -0.1)">
      <defs>
       <path id="DejaVuSans-45" d="M 628 4666 
L 3578 4666 
L 3578 4134 
L 1259 4134 
L 1259 2753 
L 3481 2753 
L 3481 2222 
L 1259 2222 
L 1259 531 
L 3634 531 
L 3634 0 
L 628 0 
L 628 4666 
z
" transform="scale(0.015625)"/>
       <path id="DejaVuSans-69" d="M 603 3500 
L 1178 3500 
L 1178 0 
L 603 0 
L 603 3500 
z
M 603 4863 
L 1178 4863 
L 1178 4134 
L 603 4134 
L 603 4863 
z
" transform="scale(0.015625)"/>
       <path id="DejaVuSans-64" d="M 2906 2969 
L 2906 4863 
L 3481 4863 
L 3481 0 
L 2906 0 
L 2906 525 
Q 2725 213 2448 61 
Q 2172 -91 1784 -91 
Q 1150 -91 751 415 
Q 353 922 353 1747 
Q 353 2572 751 3078 
Q 1150 3584 1784 3584 
Q 2172 3584 2448 3432 
Q 2725 3281 2906 2969 
z
M 947 1747 
Q 947 1113 1208 752 
Q 1469 391 1925 391 
Q 2381 391 2643 752 
Q 2906 1113 2906 1747 
Q 2906 2381 2643 2742 
Q 2381 3103 1925 3103 
Q 1469 3103 1208 2742 
Q 947 2381 947 1747 
z
" transform="scale(0.015625)"/>
      </defs>
      <use xlink:href="#DejaVuSans-45"/>
      <use xlink:href="#DejaVuSans-73" x="63.183594"/>
      <use xlink:href="#DejaVuSans-74" x="115.283203"/>
      <use xlink:href="#DejaVuSans-69" x="154.492188"/>
      <use xlink:href="#DejaVuSans-6d" x="182.275391"/>
      <use xlink:href="#DejaVuSans-61" x="279.6875"/>
      <use xlink:href="#DejaVuSans-74" x="340.966797"/>
      <use xlink:href="#DejaVuSans-65" x="380.175781"/>
      <use xlink:href="#DejaVuSans-64" x="441.699219"/>
     </g>
    </g>
   </g>
  </g>
  <g id="axes_2">
   <g id="patch_8">
    <path d="M 50.565625 304.44375 
L 442.626962 304.44375 
L 442.626962 175.97875 
L 50.565625 175.97875 
z
" style="fill: #ffffff"/>
   </g>
   <g id="matplotlib.axis_3">
    <g id="xtick_7">
     <g id="line2d_25">
      <path d="M 68.386595 304.44375 
L 68.386595 175.97875 
" clip-path="url(#pbdccf67690)" style="fill: none; stroke: #b0b0b0; stroke-width: 0.8; stroke-linecap: square"/>
     </g>
     <g id="line2d_26">
      <g>
       <use xlink:href="#mf31c1e5922" x="68.386595" y="304.44375" style="stroke: #000000; stroke-width: 0.8"/>
      </g>
     </g>
     <g id="text_8">
      <!-- 0.0 -->
      <g transform="translate(60.435032 319.042187)scale(0.1 -0.1)">
       <use xlink:href="#DejaVuSans-30"/>
       <use xlink:href="#DejaVuSans-2e" x="63.623047"/>
       <use xlink:href="#DejaVuSans-30" x="95.410156"/>
      </g>
     </g>
    </g>
    <g id="xtick_8">
     <g id="line2d_27">
      <path d="M 143.107643 304.44375 
L 143.107643 175.97875 
" clip-path="url(#pbdccf67690)" style="fill: none; stroke: #b0b0b0; stroke-width: 0.8; stroke-linecap: square"/>
     </g>
     <g id="line2d_28">
      <g>
       <use xlink:href="#mf31c1e5922" x="143.107643" y="304.44375" style="stroke: #000000; stroke-width: 0.8"/>
      </g>
     </g>
     <g id="text_9">
      <!-- 0.2 -->
      <g transform="translate(135.15608 319.042187)scale(0.1 -0.1)">
       <use xlink:href="#DejaVuSans-30"/>
       <use xlink:href="#DejaVuSans-2e" x="63.623047"/>
       <use xlink:href="#DejaVuSans-32" x="95.410156"/>
      </g>
     </g>
    </g>
    <g id="xtick_9">
     <g id="line2d_29">
      <path d="M 217.82869 304.44375 
L 217.82869 175.97875 
" clip-path="url(#pbdccf67690)" style="fill: none; stroke: #b0b0b0; stroke-width: 0.8; stroke-linecap: square"/>
     </g>
     <g id="line2d_30">
      <g>
       <use xlink:href="#mf31c1e5922" x="217.82869" y="304.44375" style="stroke: #000000; stroke-width: 0.8"/>
      </g>
     </g>
     <g id="text_10">
      <!-- 0.4 -->
      <g transform="translate(209.877128 319.042187)scale(0.1 -0.1)">
       <use xlink:href="#DejaVuSans-30"/>
       <use xlink:href="#DejaVuSans-2e" x="63.623047"/>
       <use xlink:href="#DejaVuSans-34" x="95.410156"/>
      </g>
     </g>
    </g>
    <g id="xtick_10">
     <g id="line2d_31">
      <path d="M 292.549738 304.44375 
L 292.549738 175.97875 
" clip-path="url(#pbdccf67690)" style="fill: none; stroke: #b0b0b0; stroke-width: 0.8; stroke-linecap: square"/>
     </g>
     <g id="line2d_32">
      <g>
       <use xlink:href="#mf31c1e5922" x="292.549738" y="304.44375" style="stroke: #000000; stroke-width: 0.8"/>
      </g>
     </g>
     <g id="text_11">
      <!-- 0.6 -->
      <g transform="translate(284.598176 319.042187)scale(0.1 -0.1)">
       <use xlink:href="#DejaVuSans-30"/>
       <use xlink:href="#DejaVuSans-2e" x="63.623047"/>
       <use xlink:href="#DejaVuSans-36" x="95.410156"/>
      </g>
     </g>
    </g>
    <g id="xtick_11">
     <g id="line2d_33">
      <path d="M 367.270786 304.44375 
L 367.270786 175.97875 
" clip-path="url(#pbdccf67690)" style="fill: none; stroke: #b0b0b0; stroke-width: 0.8; stroke-linecap: square"/>
     </g>
     <g id="line2d_34">
      <g>
       <use xlink:href="#mf31c1e5922" x="367.270786" y="304.44375" style="stroke: #000000; stroke-width: 0.8"/>
      </g>
     </g>
     <g id="text_12">
      <!-- 0.8 -->
      <g transform="translate(359.319223 319.042187)scale(0.1 -0.1)">
       <defs>
        <path id="DejaVuSans-38" d="M 2034 2216 
Q 1584 2216 1326 1975 
Q 1069 1734 1069 1313 
Q 1069 891 1326 650 
Q 1584 409 2034 409 
Q 2484 409 2743 651 
Q 3003 894 3003 1313 
Q 3003 1734 2745 1975 
Q 2488 2216 2034 2216 
z
M 1403 2484 
Q 997 2584 770 2862 
Q 544 3141 544 3541 
Q 544 4100 942 4425 
Q 1341 4750 2034 4750 
Q 2731 4750 3128 4425 
Q 3525 4100 3525 3541 
Q 3525 3141 3298 2862 
Q 3072 2584 2669 2484 
Q 3125 2378 3379 2068 
Q 3634 1759 3634 1313 
Q 3634 634 3220 271 
Q 2806 -91 2034 -91 
Q 1263 -91 848 271 
Q 434 634 434 1313 
Q 434 1759 690 2068 
Q 947 2378 1403 2484 
z
M 1172 3481 
Q 1172 3119 1398 2916 
Q 1625 2713 2034 2713 
Q 2441 2713 2670 2916 
Q 2900 3119 2900 3481 
Q 2900 3844 2670 4047 
Q 2441 4250 2034 4250 
Q 1625 4250 1398 4047 
Q 1172 3844 1172 3481 
z
" transform="scale(0.015625)"/>
       </defs>
       <use xlink:href="#DejaVuSans-30"/>
       <use xlink:href="#DejaVuSans-2e" x="63.623047"/>
       <use xlink:href="#DejaVuSans-38" x="95.410156"/>
      </g>
     </g>
    </g>
    <g id="xtick_12">
     <g id="line2d_35">
      <path d="M 441.991833 304.44375 
L 441.991833 175.97875 
" clip-path="url(#pbdccf67690)" style="fill: none; stroke: #b0b0b0; stroke-width: 0.8; stroke-linecap: square"/>
     </g>
     <g id="line2d_36">
      <g>
       <use xlink:href="#mf31c1e5922" x="441.991833" y="304.44375" style="stroke: #000000; stroke-width: 0.8"/>
      </g>
     </g>
     <g id="text_13">
      <!-- 1.0 -->
      <g transform="translate(434.040271 319.042187)scale(0.1 -0.1)">
       <defs>
        <path id="DejaVuSans-31" d="M 794 531 
L 1825 531 
L 1825 4091 
L 703 3866 
L 703 4441 
L 1819 4666 
L 2450 4666 
L 2450 531 
L 3481 531 
L 3481 0 
L 794 0 
L 794 531 
z
" transform="scale(0.015625)"/>
       </defs>
       <use xlink:href="#DejaVuSans-31"/>
       <use xlink:href="#DejaVuSans-2e" x="63.623047"/>
       <use xlink:href="#DejaVuSans-30" x="95.410156"/>
      </g>
     </g>
    </g>
    <g id="text_14">
     <!-- Time [s] -->
     <g transform="translate(226.267387 332.720312)scale(0.1 -0.1)">
      <defs>
       <path id="DejaVuSans-54" d="M -19 4666 
L 3928 4666 
L 3928 4134 
L 2272 4134 
L 2272 0 
L 1638 0 
L 1638 4134 
L -19 4134 
L -19 4666 
z
" transform="scale(0.015625)"/>
      </defs>
      <use xlink:href="#DejaVuSans-54"/>
      <use xlink:href="#DejaVuSans-69" x="57.958984"/>
      <use xlink:href="#DejaVuSans-6d" x="85.742188"/>
      <use xlink:href="#DejaVuSans-65" x="183.154297"/>
      <use xlink:href="#DejaVuSans-20" x="244.677734"/>
      <use xlink:href="#DejaVuSans-5b" x="276.464844"/>
      <use xlink:href="#DejaVuSans-73" x="315.478516"/>
      <use xlink:href="#DejaVuSans-5d" x="367.578125"/>
     </g>
    </g>
   </g>
   <g id="matplotlib.axis_4">
    <g id="ytick_5">
     <g id="line2d_37">
      <path d="M 50.565625 299.532535 
L 442.626962 299.532535 
" clip-path="url(#pbdccf67690)" style="fill: none; stroke: #b0b0b0; stroke-width: 0.8; stroke-linecap: square"/>
     </g>
     <g id="line2d_38">
      <g>
       <use xlink:href="#mffb11960df" x="50.565625" y="299.532535" style="stroke: #000000; stroke-width: 0.8"/>
      </g>
     </g>
     <g id="text_15">
      <!-- −2 -->
      <g transform="translate(28.823438 303.331754)scale(0.1 -0.1)">
       <defs>
        <path id="DejaVuSans-2212" d="M 678 2272 
L 4684 2272 
L 4684 1741 
L 678 1741 
L 678 2272 
z
" transform="scale(0.015625)"/>
       </defs>
       <use xlink:href="#DejaVuSans-2212"/>
       <use xlink:href="#DejaVuSans-32" x="83.789062"/>
      </g>
     </g>
    </g>
    <g id="ytick_6">
     <g id="line2d_39">
      <path d="M 50.565625 268.59575 
L 442.626962 268.59575 
" clip-path="url(#pbdccf67690)" style="fill: none; stroke: #b0b0b0; stroke-width: 0.8; stroke-linecap: square"/>
     </g>
     <g id="line2d_40">
      <g>
       <use xlink:href="#mffb11960df" x="50.565625" y="268.59575" style="stroke: #000000; stroke-width: 0.8"/>
      </g>
     </g>
     <g id="text_16">
      <!-- −1 -->
      <g transform="translate(28.823438 272.394969)scale(0.1 -0.1)">
       <use xlink:href="#DejaVuSans-2212"/>
       <use xlink:href="#DejaVuSans-31" x="83.789062"/>
      </g>
     </g>
    </g>
    <g id="ytick_7">
     <g id="line2d_41">
      <path d="M 50.565625 237.658965 
L 442.626962 237.658965 
" clip-path="url(#pbdccf67690)" style="fill: none; stroke: #b0b0b0; stroke-width: 0.8; stroke-linecap: square"/>
     </g>
     <g id="line2d_42">
      <g>
       <use xlink:href="#mffb11960df" x="50.565625" y="237.658965" style="stroke: #000000; stroke-width: 0.8"/>
      </g>
     </g>
     <g id="text_17">
      <!-- 0 -->
      <g transform="translate(37.203125 241.458184)scale(0.1 -0.1)">
       <use xlink:href="#DejaVuSans-30"/>
      </g>
     </g>
    </g>
    <g id="ytick_8">
     <g id="line2d_43">
      <path d="M 50.565625 206.72218 
L 442.626962 206.72218 
" clip-path="url(#pbdccf67690)" style="fill: none; stroke: #b0b0b0; stroke-width: 0.8; stroke-linecap: square"/>
     </g>
     <g id="line2d_44">
      <g>
       <use xlink:href="#mffb11960df" x="50.565625" y="206.72218" style="stroke: #000000; stroke-width: 0.8"/>
      </g>
     </g>
     <g id="text_18">
      <!-- 1 -->
      <g transform="translate(37.203125 210.521399)scale(0.1 -0.1)">
       <use xlink:href="#DejaVuSans-31"/>
      </g>
     </g>
    </g>
    <g id="text_19">
     <!-- rot. vel. [rad/s] -->
     <g transform="translate(22.74375 277.439375)rotate(-90)scale(0.1 -0.1)">
      <defs>
       <path id="DejaVuSans-6f" d="M 1959 3097 
Q 1497 3097 1228 2736 
Q 959 2375 959 1747 
Q 959 1119 1226 758 
Q 1494 397 1959 397 
Q 2419 397 2687 759 
Q 2956 1122 2956 1747 
Q 2956 2369 2687 2733 
Q 2419 3097 1959 3097 
z
M 1959 3584 
Q 2709 3584 3137 3096 
Q 3566 2609 3566 1747 
Q 3566 888 3137 398 
Q 2709 -91 1959 -91 
Q 1206 -91 779 398 
Q 353 888 353 1747 
Q 353 2609 779 3096 
Q 1206 3584 1959 3584 
z
" transform="scale(0.015625)"/>
      </defs>
      <use xlink:href="#DejaVuSans-72"/>
      <use xlink:href="#DejaVuSans-6f" x="38.863281"/>
      <use xlink:href="#DejaVuSans-74" x="100.044922"/>
      <use xlink:href="#DejaVuSans-2e" x="139.253906"/>
      <use xlink:href="#DejaVuSans-20" x="171.041016"/>
      <use xlink:href="#DejaVuSans-76" x="202.828125"/>
      <use xlink:href="#DejaVuSans-65" x="262.007812"/>
      <use xlink:href="#DejaVuSans-6c" x="323.53125"/>
      <use xlink:href="#DejaVuSans-2e" x="351.314453"/>
      <use xlink:href="#DejaVuSans-20" x="383.101562"/>
      <use xlink:href="#DejaVuSans-5b" x="414.888672"/>
      <use xlink:href="#DejaVuSans-72" x="453.902344"/>
      <use xlink:href="#DejaVuSans-61" x="495.015625"/>
      <use xlink:href="#DejaVuSans-64" x="556.294922"/>
      <use xlink:href="#DejaVuSans-2f" x="619.771484"/>
      <use xlink:href="#DejaVuSans-73" x="653.462891"/>
      <use xlink:href="#DejaVuSans-5d" x="705.5625"/>
     </g>
    </g>
   </g>
   <g id="line2d_45">
    <path d="M 68.386595 237.658965 
L 424.805992 237.658965 
L 424.805992 237.658965 
" clip-path="url(#pbdccf67690)" style="fill: none; stroke: #1f77b4; stroke-width: 1.5; stroke-linecap: square"/>
   </g>
   <g id="line2d_46">
    <path d="M 68.386595 237.658965 
L 70.254621 237.709671 
L 71.749042 237.512139 
L 72.122647 237.21595 
L 72.869858 235.075744 
L 73.617068 239.421743 
L 73.990673 237.446275 
L 74.364279 233.989863 
L 74.737884 232.572958 
L 75.111489 233.098883 
L 75.485094 233.364939 
L 75.8587 233.231911 
L 76.232305 233.463937 
L 76.60591 233.890865 
L 78.473936 232.112 
L 78.847542 231.258144 
L 79.221147 231.388079 
L 79.594752 235.63539 
L 79.968357 241.167197 
L 80.341963 243.174994 
L 81.089173 241.82615 
L 81.462778 240.179076 
L 82.209989 234.812472 
L 82.583594 233.658839 
L 82.957199 233.559841 
L 83.70441 237.051057 
L 84.078015 237.709671 
L 84.45162 237.413358 
L 84.825225 234.153827 
L 85.572436 219.403168 
L 86.319646 225.890612 
L 87.066857 205.020657 
L 87.440462 200.689507 
L 87.814067 201.648547 
L 88.187673 200.442013 
L 88.561278 199.668593 
L 88.934883 210.317035 
L 89.682093 241.529157 
L 90.055699 245.807714 
L 90.429304 241.659092 
L 90.802909 231.815007 
L 91.176514 225.658586 
L 91.55012 226.218542 
L 91.923725 231.849037 
L 92.29733 235.503909 
L 92.670935 234.05483 
L 93.044541 234.286856 
L 93.418146 236.524513 
L 94.165356 245.052857 
L 94.538962 245.346756 
L 94.912567 242.253078 
L 95.286172 241.46419 
L 95.659777 243.437957 
L 96.033383 243.502924 
L 96.780593 245.247759 
L 97.154198 244.161877 
L 97.527803 244.260875 
L 97.901409 250.318298 
L 98.275014 252.722086 
L 98.648619 249.792372 
L 99.39583 241.167197 
L 99.769435 242.779003 
L 100.14304 245.151855 
L 100.516645 246.797692 
L 100.890251 249.331414 
L 101.263856 250.584354 
L 101.637461 241.891117 
L 102.384672 210.614028 
L 102.758277 207.322354 
L 103.505487 212.949755 
L 103.879093 213.806704 
L 104.252698 220.226087 
L 104.626303 223.387826 
L 104.999908 223.684819 
L 105.747119 245.216822 
L 106.494329 250.123396 
L 107.24154 260.558374 
L 107.615145 257.430665 
L 108.362355 240.244662 
L 108.735961 236.985471 
L 109.109566 245.708717 
L 109.483171 259.339464 
L 109.856776 265.761941 
L 110.230382 264.280069 
L 110.977592 251.274244 
L 111.351197 250.024398 
L 111.724803 244.325842 
L 112.098408 242.649069 
L 112.472013 242.451073 
L 113.219224 232.013002 
L 113.966434 234.119797 
L 114.713644 223.059896 
L 115.08725 224.770701 
L 115.460855 225.921549 
L 115.83446 222.79384 
L 116.208065 216.705481 
L 116.581671 216.046527 
L 116.955276 216.34352 
L 117.328881 211.535944 
L 117.702486 208.538169 
L 118.076092 208.538169 
L 118.449697 206.227192 
L 118.823302 209.166186 
L 119.196907 208.012244 
L 119.570513 204.98972 
L 119.944118 209.429149 
L 120.317723 218.61428 
L 121.438539 231.883067 
L 121.812144 238.993578 
L 122.185749 243.799917 
L 122.559354 245.281789 
L 122.93296 243.403926 
L 123.306565 246.138738 
L 124.053775 257.925653 
L 124.427381 258.287614 
L 124.800986 263.45715 
L 125.174591 274.906854 
L 125.548196 277.35086 
L 126.669012 268.592657 
L 127.416223 258.123649 
L 128.163433 251.438209 
L 128.910644 239.092576 
L 129.284249 234.91116 
L 129.657854 231.982065 
L 130.031459 233.890865 
L 130.405064 239.224057 
L 130.77867 241.167197 
L 131.52588 241.891117 
L 131.899485 239.355848 
L 132.273091 241.529157 
L 133.020301 250.615291 
L 133.393906 249.628407 
L 134.141117 250.386359 
L 134.514722 251.769233 
L 134.888327 254.074023 
L 135.261933 251.602174 
L 135.635538 246.995687 
L 136.382748 242.15408 
L 136.756354 235.174432 
L 137.129959 235.339016 
L 137.503564 233.924895 
L 137.877169 231.849037 
L 138.250774 227.669477 
L 138.62438 220.721075 
L 138.997985 218.054325 
L 139.37159 219.898157 
L 139.745195 222.301945 
L 140.118801 223.981813 
L 140.492406 222.629875 
L 140.866011 217.494369 
L 141.239616 210.283004 
L 141.613222 208.869193 
L 141.986827 211.371979 
L 142.360432 211.832937 
L 142.734037 211.105923 
L 143.481248 190.696925 
L 143.854853 189.799759 
L 144.975669 217.559336 
L 145.349274 220.786043 
L 145.722879 231.388079 
L 146.096485 235.536702 
L 146.47009 236.195037 
L 147.964511 260.162383 
L 148.338116 262.928131 
L 148.711721 268.558626 
L 149.085326 269.554791 
L 149.458932 266.683857 
L 149.832537 264.969959 
L 150.206142 262.337239 
L 150.579747 256.805742 
L 150.953353 253.251105 
L 151.326958 255.784828 
L 151.700563 263.652052 
L 152.074168 266.386864 
L 153.568589 242.779003 
L 153.942195 244.195908 
L 154.3158 237.676745 
L 154.689405 237.775504 
L 155.06301 240.409555 
L 155.810221 238.236555 
L 157.304642 248.935423 
L 157.678247 249.956337 
L 158.051852 250.485356 
L 158.425457 250.550324 
L 158.799063 250.352328 
L 159.172668 252.063132 
L 159.546273 251.438209 
L 160.667089 241.659092 
L 161.040694 244.031943 
L 161.414299 240.475141 
L 161.787905 234.549818 
L 162.16151 231.354048 
L 162.535115 229.677275 
L 163.282325 220.88504 
L 163.655931 222.892838 
L 164.029536 226.187605 
L 164.403141 225.330656 
L 164.776746 223.783817 
L 165.150352 219.997155 
L 165.523957 214.40069 
L 165.897562 211.074986 
L 166.271167 211.798907 
L 166.644773 218.648311 
L 167.018378 217.197376 
L 167.765588 196.389294 
L 168.139194 195.894305 
L 168.512799 201.401053 
L 170.380825 220.48905 
L 171.128035 235.767181 
L 171.501641 236.952369 
L 171.875246 238.730306 
L 172.248851 243.502924 
L 172.996062 268.719497 
L 173.369667 270.32821 
L 174.116877 256.839772 
L 174.490483 257.529662 
L 174.864088 261.019332 
L 175.237693 261.446259 
L 175.611298 266.847822 
L 175.984904 269.956969 
L 176.358509 267.373747 
L 176.732114 262.006215 
L 177.105719 259.868483 
L 177.85293 246.00571 
L 178.226535 233.627902 
L 178.60014 227.174489 
L 178.973746 236.623202 
L 179.347351 241.331162 
L 180.468166 249.266447 
L 180.841772 246.927626 
L 181.215377 243.437957 
L 181.962587 256.805742 
L 182.336193 258.055588 
L 182.709798 252.623088 
L 183.083403 253.152107 
L 183.457008 251.964135 
L 183.830614 250.089365 
L 184.204219 249.20148 
L 184.577824 245.117824 
L 184.951429 243.635952 
L 185.325035 243.833948 
L 185.69864 240.277764 
L 186.44585 217.460338 
L 186.819456 216.111494 
L 187.193061 221.345998 
L 187.566666 224.538675 
L 187.940271 226.119544 
L 188.313876 226.054577 
L 188.687482 225.62765 
L 189.061087 226.515535 
L 189.434692 224.442771 
L 189.808297 223.452794 
L 190.555508 200.039835 
L 190.929113 205.76314 
L 191.302718 205.422835 
L 191.676324 200.070771 
L 192.049929 198.245501 
L 192.797139 197.998007 
L 193.170745 200.689507 
L 193.917955 220.854104 
L 194.29156 222.564908 
L 194.665166 222.926868 
L 195.038771 228.195403 
L 195.412376 229.708211 
L 195.785981 232.705986 
L 196.159586 237.150055 
L 196.533192 244.984796 
L 196.906797 260.790399 
L 197.280402 266.615796 
L 198.027613 255.159905 
L 198.401218 258.089618 
L 198.774823 266.123901 
L 199.148428 270.668515 
L 199.522034 273.762193 
L 199.895639 278.155217 
L 200.269244 279.268941 
L 200.642849 275.370906 
L 201.016455 274.721234 
L 201.39006 269.36917 
L 201.763665 265.72791 
L 202.13727 260.097415 
L 202.510876 241.79212 
L 202.884481 242.188111 
L 203.258086 246.401701 
L 203.631691 246.828628 
L 204.005296 243.273992 
L 204.378902 236.195037 
L 204.752507 232.804984 
L 205.126112 236.096348 
L 205.873323 250.055335 
L 206.246928 254.039993 
L 206.620533 250.318298 
L 206.994138 249.266447 
L 207.741349 240.047285 
L 208.114954 238.53262 
L 208.488559 235.174432 
L 208.862165 243.011029 
L 209.23577 246.00571 
L 209.609375 242.878001 
L 209.98298 237.775504 
L 210.356586 228.195403 
L 210.730191 222.46591 
L 211.103796 220.588047 
L 211.477401 220.786043 
L 211.851006 228.656361 
L 212.224612 231.982065 
L 212.598217 229.544247 
L 212.971822 228.62233 
L 213.345427 229.117319 
L 213.719033 229.182286 
L 214.092638 228.919323 
L 214.466243 222.79384 
L 214.839848 223.059896 
L 215.587059 200.442013 
L 215.960664 197.812386 
L 216.334269 197.626765 
L 216.707875 201.988852 
L 217.08148 202.607588 
L 217.455085 202.700398 
L 217.82869 204.773163 
L 218.202296 205.175341 
L 218.575901 205.206278 
L 219.323111 216.705481 
L 219.696717 219.273234 
L 220.070322 224.770701 
L 220.443927 227.601416 
L 220.817532 227.075491 
L 221.191137 230.138233 
L 221.938348 238.664411 
L 222.311953 248.508496 
L 223.059164 278.186154 
L 223.432769 278.000533 
L 223.806374 280.011424 
L 224.179979 281.341706 
L 224.553585 278.743016 
L 225.300795 281.620137 
L 225.6744 279.980487 
L 226.048006 272.555659 
L 226.421611 261.084299 
L 227.916032 246.927626 
L 228.289637 246.268673 
L 229.410453 251.076249 
L 229.784058 253.712063 
L 230.157663 253.807967 
L 230.531268 250.287361 
L 230.904874 253.579035 
L 231.278479 257.857592 
L 231.652084 255.552802 
L 232.025689 250.649321 
L 232.399295 243.174994 
L 232.7729 243.011029 
L 233.146505 247.521612 
L 233.52011 248.904487 
L 233.893716 244.755864 
L 234.640926 224.176714 
L 235.014531 219.239203 
L 235.388137 215.783565 
L 235.761742 217.033411 
L 236.135347 222.79384 
L 236.508952 231.422109 
L 236.882557 236.820578 
L 237.256163 234.515788 
L 237.629768 228.984291 
L 238.003373 226.614533 
L 238.376978 221.216064 
L 238.750584 225.132661 
L 239.124189 222.168917 
L 239.871399 202.483841 
L 240.245005 194.687771 
L 240.61861 196.1418 
L 240.992215 199.049857 
L 241.36582 204.865973 
L 241.739426 206.041571 
L 242.113031 203.659438 
L 242.486636 199.173605 
L 242.860241 199.668593 
L 243.233847 202.947892 
L 243.607452 203.752249 
L 243.981057 205.113467 
L 244.354662 207.353291 
L 245.101873 227.635447 
L 245.475478 225.890612 
L 245.849083 229.380282 
L 246.596294 253.77703 
L 246.969899 260.855367 
L 247.343504 271.534745 
L 247.717109 287.065011 
L 248.090715 293.376115 
L 248.46432 285.456298 
L 248.837925 280.784844 
L 249.585136 279.887677 
L 249.958741 280.72297 
L 250.332346 275.494653 
L 250.705951 273.947814 
L 251.079557 275.123412 
L 251.453162 267.67074 
L 252.573978 232.47396 
L 252.947583 228.096405 
L 253.321188 230.664158 
L 254.068398 248.542526 
L 254.442004 250.2193 
L 254.815609 250.188363 
L 255.562819 254.336986 
L 255.936425 254.763914 
L 256.31003 243.76898 
L 256.683635 236.787785 
L 257.05724 243.932945 
L 257.430846 248.805489 
L 257.804451 244.919829 
L 258.925267 228.393398 
L 259.298872 224.442771 
L 259.672477 224.275712 
L 260.046082 232.47396 
L 260.419688 234.713474 
L 260.793293 234.317792 
L 261.166898 236.063555 
L 261.540503 232.968949 
L 261.914108 226.450568 
L 262.287714 221.939985 
L 262.661319 223.124864 
L 263.034924 226.416538 
L 264.15574 207.223356 
L 264.529345 207.421352 
L 264.90295 209.723048 
L 265.276556 210.911021 
L 266.023766 211.010019 
L 266.770977 201.803231 
L 267.518187 196.946156 
L 267.891792 198.338311 
L 268.265398 201.648547 
L 269.012608 224.572705 
L 269.386213 223.551791 
L 269.759818 223.387826 
L 270.507029 228.885293 
L 270.880634 234.746576 
L 271.254239 247.94854 
L 271.627845 268.230696 
L 272.00145 281.620137 
L 272.375055 277.691165 
L 272.74866 276.763062 
L 273.122266 281.403579 
L 273.495871 282.176999 
L 273.869476 282.084189 
L 274.243081 280.227981 
L 274.616687 273.762193 
L 274.990292 277.907723 
L 275.363897 284.404447 
L 275.737502 278.619269 
L 276.858318 234.317792 
L 277.231923 227.502419 
L 277.605528 230.302198 
L 278.352739 251.503177 
L 278.726344 254.896942 
L 279.099949 255.026876 
L 279.84716 246.729631 
L 280.220765 241.990115 
L 280.59437 242.946062 
L 280.967976 249.89137 
L 281.341581 251.998165 
L 282.088791 245.974773 
L 282.836002 234.943953 
L 283.209607 235.569495 
L 283.956818 239.059473 
L 284.330423 239.355848 
L 284.704028 238.499827 
L 285.077633 240.343659 
L 285.451238 239.454536 
L 285.824844 237.676745 
L 286.198449 234.252825 
L 286.572054 228.687298 
L 286.945659 230.992088 
L 287.319265 231.354048 
L 288.066475 222.267915 
L 288.44008 222.13798 
L 289.187291 215.025613 
L 289.934501 208.176209 
L 290.308107 205.453772 
L 290.681712 201.060748 
L 291.055317 200.194519 
L 291.802528 186.582333 
L 292.176133 187.510437 
L 292.549738 192.924374 
L 292.923343 195.801495 
L 293.296949 201.215432 
L 293.670554 199.854214 
L 294.044159 202.638525 
L 294.791369 220.260117 
L 295.912185 235.372118 
L 296.28579 249.758342 
L 297.033001 285.549109 
L 298.527422 298.604432 
L 298.901027 298.264127 
L 299.274632 297.336024 
L 299.648238 290.2515 
L 300.395448 260.459376 
L 301.142659 235.767181 
L 301.516264 227.372484 
L 301.889869 224.934666 
L 302.263474 229.807209 
L 303.010685 247.651547 
L 303.38429 250.779256 
L 303.757895 251.964135 
L 304.1315 250.2193 
L 304.505106 249.167449 
L 304.878711 254.927879 
L 305.252316 257.003737 
L 305.625921 254.698946 
L 306.746737 236.985471 
L 307.120342 238.17066 
L 307.867553 243.898915 
L 308.241158 244.393903 
L 308.988369 246.961657 
L 309.361974 244.09691 
L 309.735579 240.047285 
L 310.109184 239.191264 
L 310.482789 237.577973 
L 310.856395 233.658839 
L 311.23 232.210997 
L 311.603605 231.422109 
L 311.97721 229.776272 
L 312.350816 232.047032 
L 312.724421 231.026119 
L 313.098026 225.166691 
L 313.471631 213.608709 
L 313.845237 212.0959 
L 314.218842 212.389799 
L 314.592447 207.913246 
L 314.966052 205.732203 
L 315.339658 206.926363 
L 315.713263 202.236346 
L 316.460473 188.840718 
L 316.834079 186.767954 
L 317.207684 193.357489 
L 317.581289 195.894305 
L 317.954894 197.379271 
L 318.702105 207.517256 
L 319.07571 212.983785 
L 319.449315 220.854104 
L 320.196526 244.557868 
L 320.943736 267.868736 
L 321.690947 281.372643 
L 322.064552 282.795735 
L 322.438157 272.246291 
L 322.811762 271.163503 
L 323.185368 275.52559 
L 323.932578 274.442803 
L 324.306183 268.558626 
L 324.679789 258.584607 
L 325.053394 254.336986 
L 325.426999 252.360125 
L 325.800604 248.904487 
L 326.547815 239.718118 
L 326.92142 235.99766 
L 327.295025 237.709671 
L 327.66863 243.372989 
L 328.042236 246.00571 
L 328.789446 243.471987 
L 329.536657 249.594377 
L 329.910262 249.365445 
L 331.031078 247.026624 
L 331.404683 247.323617 
L 332.151893 251.438209 
L 333.646314 249.133419 
L 334.393525 243.536954 
L 334.76713 240.014183 
L 335.140735 241.133166 
L 335.51434 240.376452 
L 335.887946 234.878367 
L 336.635156 227.864379 
L 337.755972 208.770195 
L 338.129577 201.957915 
L 338.503182 200.163582 
L 338.876788 203.968806 
L 339.250393 204.216301 
L 339.623998 200.967938 
L 340.371209 186.211092 
L 340.744814 192.645943 
L 341.118419 196.079926 
L 341.86563 184.10739 
L 342.239235 182.838982 
L 342.61284 188.160109 
L 342.986445 197.998007 
L 343.733656 230.599191 
L 344.107261 237.182848 
L 344.480866 235.075744 
L 344.854471 234.153827 
L 345.228077 238.467034 
L 345.601682 246.466668 
L 346.348892 270.266337 
L 346.722498 287.467189 
L 347.096103 289.818385 
L 347.843313 269.152612 
L 348.216919 266.516798 
L 348.590524 266.417801 
L 348.964129 266.584859 
L 349.337734 267.735708 
L 349.71134 270.080716 
L 350.084945 268.097668 
L 350.832155 248.836426 
L 351.20576 248.047538 
L 351.579366 251.636205 
L 351.952971 252.592151 
L 352.326576 250.748319 
L 352.700181 247.58658 
L 353.447392 245.67778 
L 353.820997 249.594377 
L 354.568208 262.928131 
L 354.941813 265.956843 
L 355.315418 261.51432 
L 355.689023 255.487834 
L 356.062629 253.712063 
L 356.436234 255.3579 
L 356.809839 256.344783 
L 357.183444 254.074023 
L 357.55705 248.474465 
L 357.930655 244.557868 
L 358.30426 243.700919 
L 358.677865 245.083794 
L 359.05147 243.932945 
L 359.425076 246.961657 
L 359.798681 251.636205 
L 360.172286 250.089365 
L 360.919497 231.685072 
L 361.293102 228.161372 
L 361.666707 227.734445 
L 362.040312 230.89309 
L 362.413918 242.847064 
L 362.787523 251.076249 
L 363.161128 244.195908 
L 363.908339 211.931935 
L 364.281944 206.103444 
L 365.029154 212.160867 
L 365.40276 207.978214 
L 366.523575 181.941815 
L 366.897181 181.818068 
L 367.270786 190.851609 
L 367.644391 208.770195 
L 368.391601 229.776272 
L 368.765207 234.187858 
L 369.138812 234.977055 
L 369.512417 236.590409 
L 369.886022 238.697513 
L 370.259628 238.664411 
L 370.633233 225.593619 
L 371.006838 200.132645 
L 371.380443 195.739621 
L 372.127654 233.463937 
L 372.501259 240.738722 
L 372.874864 235.799974 
L 373.24847 227.109522 
L 373.622075 225.98961 
L 374.742891 255.224872 
L 375.116496 254.797944 
L 375.490101 247.060654 
L 375.863706 245.151855 
L 376.610917 262.897194 
L 376.984522 265.464948 
L 377.731732 259.407525 
L 378.105338 260.230444 
L 378.852548 266.154838 
L 379.226153 264.771964 
L 379.599759 260.558374 
L 380.346969 243.864884 
L 380.720574 243.338959 
L 381.09418 246.961657 
L 381.467785 253.084046 
L 381.84139 256.409751 
L 382.214995 254.599949 
L 382.588601 249.594377 
L 383.335811 236.919576 
L 383.709416 233.132914 
L 384.083021 232.013002 
L 384.456627 234.286856 
L 385.203837 243.308022 
L 385.577442 244.031943 
L 385.951048 241.365192 
L 387.071863 225.791614 
L 387.445469 223.814754 
L 387.819074 224.077717 
L 388.192679 224.705733 
L 388.566284 224.572705 
L 389.313495 221.939985 
L 389.6871 221.905954 
L 390.434311 224.145778 
L 390.807916 225.09863 
L 391.181521 226.416538 
L 391.555126 227.239456 
L 391.928731 226.648563 
L 393.049547 223.090833 
L 393.423152 221.707959 
L 394.170363 220.260117 
L 394.543968 219.799159 
L 394.917573 220.656108 
L 396.038389 227.140458 
L 397.159205 230.53113 
L 397.53281 232.542021 
L 398.280021 234.746576 
L 398.653626 235.27343 
L 399.774442 236.030453 
L 400.895257 238.302141 
L 401.268862 238.236555 
L 402.389678 237.545056 
L 403.136889 237.545056 
L 403.884099 237.709671 
L 404.63131 237.808452 
L 406.125731 237.577973 
L 406.872941 237.709671 
L 407.993757 237.610889 
L 408.367362 237.545056 
L 408.740967 238.335243 
L 409.488178 244.458871 
L 409.861783 244.42484 
L 410.982599 237.742587 
L 411.356204 236.458618 
L 411.729809 236.162244 
L 412.103414 236.557306 
L 413.22423 238.269348 
L 413.597835 238.433932 
L 413.971441 238.236555 
L 414.718651 237.347432 
L 415.092256 237.182848 
L 415.839467 237.512139 
L 416.586677 237.808452 
L 417.333888 237.709671 
L 419.201914 237.479192 
L 419.949124 237.775504 
L 422.190756 237.577973 
L 422.937966 237.742587 
L 424.058782 237.610889 
L 424.805992 237.643822 
L 424.805992 237.643822 
" clip-path="url(#pbdccf67690)" style="fill: none; stroke: #ff7f0e; stroke-width: 1.5; stroke-linecap: square"/>
   </g>
   <g id="patch_9">
    <path d="M 50.565625 304.44375 
L 50.565625 175.97875 
" style="fill: none; stroke: #000000; stroke-width: 0.8; stroke-linejoin: miter; stroke-linecap: square"/>
   </g>
   <g id="patch_10">
    <path d="M 442.626962 304.44375 
L 442.626962 175.97875 
" style="fill: none; stroke: #000000; stroke-width: 0.8; stroke-linejoin: miter; stroke-linecap: square"/>
   </g>
   <g id="patch_11">
    <path d="M 50.565625 304.44375 
L 442.626962 304.44375 
" style="fill: none; stroke: #000000; stroke-width: 0.8; stroke-linejoin: miter; stroke-linecap: square"/>
   </g>
   <g id="patch_12">
    <path d="M 50.565625 175.97875 
L 442.626962 175.97875 
" style="fill: none; stroke: #000000; stroke-width: 0.8; stroke-linejoin: miter; stroke-linecap: square"/>
   </g>
   <g id="legend_2">
    <g id="patch_13">
     <path d="M 353.109775 299.44375 
L 435.626962 299.44375 
Q 437.626962 299.44375 437.626962 297.44375 
L 437.626962 269.0875 
Q 437.626962 267.0875 435.626962 267.0875 
L 353.109775 267.0875 
Q 351.109775 267.0875 351.109775 269.0875 
L 351.109775 297.44375 
Q 351.109775 299.44375 353.109775 299.44375 
z
" style="fill: #ffffff; opacity: 0.8; stroke: #cccccc; stroke-linejoin: miter"/>
    </g>
    <g id="line2d_47">
     <path d="M 355.109775 275.185937 
L 365.109775 275.185937 
L 375.109775 275.185937 
" style="fill: none; stroke: #1f77b4; stroke-width: 1.5; stroke-linecap: square"/>
    </g>
    <g id="text_20">
     <!-- Reference -->
     <g transform="translate(383.109775 278.685937)scale(0.1 -0.1)">
      <use xlink:href="#DejaVuSans-52"/>
      <use xlink:href="#DejaVuSans-65" x="64.982422"/>
      <use xlink:href="#DejaVuSans-66" x="126.505859"/>
      <use xlink:href="#DejaVuSans-65" x="161.710938"/>
      <use xlink:href="#DejaVuSans-72" x="223.234375"/>
      <use xlink:href="#DejaVuSans-65" x="262.097656"/>
      <use xlink:href="#DejaVuSans-6e" x="323.621094"/>
      <use xlink:href="#DejaVuSans-63" x="387"/>
      <use xlink:href="#DejaVuSans-65" x="441.980469"/>
     </g>
    </g>
    <g id="line2d_48">
     <path d="M 355.109775 289.864062 
L 365.109775 289.864062 
L 375.109775 289.864062 
" style="fill: none; stroke: #ff7f0e; stroke-width: 1.5; stroke-linecap: square"/>
    </g>
    <g id="text_21">
     <!-- Estimated -->
     <g transform="translate(383.109775 293.364062)scale(0.1 -0.1)">
      <use xlink:href="#DejaVuSans-45"/>
      <use xlink:href="#DejaVuSans-73" x="63.183594"/>
      <use xlink:href="#DejaVuSans-74" x="115.283203"/>
      <use xlink:href="#DejaVuSans-69" x="154.492188"/>
      <use xlink:href="#DejaVuSans-6d" x="182.275391"/>
      <use xlink:href="#DejaVuSans-61" x="279.6875"/>
      <use xlink:href="#DejaVuSans-74" x="340.966797"/>
      <use xlink:href="#DejaVuSans-65" x="380.175781"/>
      <use xlink:href="#DejaVuSans-64" x="441.699219"/>
     </g>
    </g>
   </g>
  </g>
  <g id="text_22">
   <!-- Translational and Rotational Velocity -->
   <g transform="translate(121.384688 16.030125)scale(0.12 -0.12)">
    <defs>
     <path id="DejaVuSans-56" d="M 1831 0 
L 50 4666 
L 709 4666 
L 2188 738 
L 3669 4666 
L 4325 4666 
L 2547 0 
L 1831 0 
z
" transform="scale(0.015625)"/>
     <path id="DejaVuSans-79" d="M 2059 -325 
Q 1816 -950 1584 -1140 
Q 1353 -1331 966 -1331 
L 506 -1331 
L 506 -850 
L 844 -850 
Q 1081 -850 1212 -737 
Q 1344 -625 1503 -206 
L 1606 56 
L 191 3500 
L 800 3500 
L 1894 763 
L 2988 3500 
L 3597 3500 
L 2059 -325 
z
" transform="scale(0.015625)"/>
    </defs>
    <use xlink:href="#DejaVuSans-54"/>
    <use xlink:href="#DejaVuSans-72" x="46.333984"/>
    <use xlink:href="#DejaVuSans-61" x="87.447266"/>
    <use xlink:href="#DejaVuSans-6e" x="148.726562"/>
    <use xlink:href="#DejaVuSans-73" x="212.105469"/>
    <use xlink:href="#DejaVuSans-6c" x="264.205078"/>
    <use xlink:href="#DejaVuSans-61" x="291.988281"/>
    <use xlink:href="#DejaVuSans-74" x="353.267578"/>
    <use xlink:href="#DejaVuSans-69" x="392.476562"/>
    <use xlink:href="#DejaVuSans-6f" x="420.259766"/>
    <use xlink:href="#DejaVuSans-6e" x="481.441406"/>
    <use xlink:href="#DejaVuSans-61" x="544.820312"/>
    <use xlink:href="#DejaVuSans-6c" x="606.099609"/>
    <use xlink:href="#DejaVuSans-20" x="633.882812"/>
    <use xlink:href="#DejaVuSans-61" x="665.669922"/>
    <use xlink:href="#DejaVuSans-6e" x="726.949219"/>
    <use xlink:href="#DejaVuSans-64" x="790.328125"/>
    <use xlink:href="#DejaVuSans-20" x="853.804688"/>
    <use xlink:href="#DejaVuSans-52" x="885.591797"/>
    <use xlink:href="#DejaVuSans-6f" x="950.574219"/>
    <use xlink:href="#DejaVuSans-74" x="1011.755859"/>
    <use xlink:href="#DejaVuSans-61" x="1050.964844"/>
    <use xlink:href="#DejaVuSans-74" x="1112.244141"/>
    <use xlink:href="#DejaVuSans-69" x="1151.453125"/>
    <use xlink:href="#DejaVuSans-6f" x="1179.236328"/>
    <use xlink:href="#DejaVuSans-6e" x="1240.417969"/>
    <use xlink:href="#DejaVuSans-61" x="1303.796875"/>
    <use xlink:href="#DejaVuSans-6c" x="1365.076172"/>
    <use xlink:href="#DejaVuSans-20" x="1392.859375"/>
    <use xlink:href="#DejaVuSans-56" x="1424.646484"/>
    <use xlink:href="#DejaVuSans-65" x="1485.304688"/>
    <use xlink:href="#DejaVuSans-6c" x="1546.828125"/>
    <use xlink:href="#DejaVuSans-6f" x="1574.611328"/>
    <use xlink:href="#DejaVuSans-63" x="1635.792969"/>
    <use xlink:href="#DejaVuSans-69" x="1690.773438"/>
    <use xlink:href="#DejaVuSans-74" x="1718.556641"/>
    <use xlink:href="#DejaVuSans-79" x="1757.765625"/>
   </g>
  </g>
 </g>
 <defs>
  <clipPath id="pfabf31980b">
   <rect x="50.565625" y="33.21375" width="392.061337" height="128.465"/>
  </clipPath>
  <clipPath id="pbdccf67690">
   <rect x="50.565625" y="175.97875" width="392.061337" height="128.465"/>
  </clipPath>
 </defs>
</svg>
