<?xml version="1.0" encoding="utf-8" standalone="no"?>
<!DOCTYPE svg PUBLIC "-//W3C//DTD SVG 1.1//EN"
  "http://www.w3.org/Graphics/SVG/1.1/DTD/svg11.dtd">
<svg xmlns:xlink="http://www.w3.org/1999/xlink" width="460.8pt" height="345.6pt" viewBox="0 0 460.8 345.6" xmlns="http://www.w3.org/2000/svg" version="1.1">
 <metadata>
  <rdf:RDF xmlns:dc="http://purl.org/dc/elements/1.1/" xmlns:cc="http://creativecommons.org/ns#" xmlns:rdf="http://www.w3.org/1999/02/22-rdf-syntax-ns#">
   <cc:Work>
    <dc:type rdf:resource="http://purl.org/dc/dcmitype/StillImage"/>
    <dc:date>2022-01-16T03:29:07.395998</dc:date>
    <dc:format>image/svg+xml</dc:format>
    <dc:creator>
     <cc:Agent>
      <dc:title>Matplotlib v3.5.1, https://matplotlib.org/</dc:title>
     </cc:Agent>
    </dc:creator>
   </cc:Work>
  </rdf:RDF>
 </metadata>
 <defs>
  <style type="text/css">*{stroke-linejoin: round; stroke-linecap: butt}</style>
 </defs>
 <g id="figure_1">
  <g id="patch_1">
   <path d="M 0 345.6 
L 460.8 345.6 
L 460.8 0 
L 0 0 
z
" style="fill: #ffffff"/>
  </g>
  <g id="axes_1">
   <g id="patch_2">
    <path d="M 56.928125 304.44375 
L 450 304.44375 
L 450 25.918125 
L 56.928125 25.918125 
z
" style="fill: #ffffff"/>
   </g>
   <g id="matplotlib.axis_1">
    <g id="xtick_1">
     <g id="line2d_1">
      <path d="M 74.795028 304.44375 
L 74.795028 25.918125 
" clip-path="url(#p4d0109562d)" style="fill: none; stroke: #b0b0b0; stroke-width: 0.8; stroke-linecap: square"/>
     </g>
     <g id="line2d_2">
      <defs>
       <path id="mb5d6ff6f9d" d="M 0 0 
L 0 3.5 
" style="stroke: #000000; stroke-width: 0.8"/>
      </defs>
      <g>
       <use xlink:href="#mb5d6ff6f9d" x="74.795028" y="304.44375" style="stroke: #000000; stroke-width: 0.8"/>
      </g>
     </g>
     <g id="text_1">
      <!-- 0 -->
      <g transform="translate(71.613778 319.042187)scale(0.1 -0.1)">
       <defs>
        <path id="DejaVuSans-30" d="M 2034 4250 
Q 1547 4250 1301 3770 
Q 1056 3291 1056 2328 
Q 1056 1369 1301 889 
Q 1547 409 2034 409 
Q 2525 409 2770 889 
Q 3016 1369 3016 2328 
Q 3016 3291 2770 3770 
Q 2525 4250 2034 4250 
z
M 2034 4750 
Q 2819 4750 3233 4129 
Q 3647 3509 3647 2328 
Q 3647 1150 3233 529 
Q 2819 -91 2034 -91 
Q 1250 -91 836 529 
Q 422 1150 422 2328 
Q 422 3509 836 4129 
Q 1250 4750 2034 4750 
z
" transform="scale(0.015625)"/>
       </defs>
       <use xlink:href="#DejaVuSans-30"/>
      </g>
     </g>
    </g>
    <g id="xtick_2">
     <g id="line2d_3">
      <path d="M 154.203488 304.44375 
L 154.203488 25.918125 
" clip-path="url(#p4d0109562d)" style="fill: none; stroke: #b0b0b0; stroke-width: 0.8; stroke-linecap: square"/>
     </g>
     <g id="line2d_4">
      <g>
       <use xlink:href="#mb5d6ff6f9d" x="154.203488" y="304.44375" style="stroke: #000000; stroke-width: 0.8"/>
      </g>
     </g>
     <g id="text_2">
      <!-- 100 -->
      <g transform="translate(144.659738 319.042187)scale(0.1 -0.1)">
       <defs>
        <path id="DejaVuSans-31" d="M 794 531 
L 1825 531 
L 1825 4091 
L 703 3866 
L 703 4441 
L 1819 4666 
L 2450 4666 
L 2450 531 
L 3481 531 
L 3481 0 
L 794 0 
L 794 531 
z
" transform="scale(0.015625)"/>
       </defs>
       <use xlink:href="#DejaVuSans-31"/>
       <use xlink:href="#DejaVuSans-30" x="63.623047"/>
       <use xlink:href="#DejaVuSans-30" x="127.246094"/>
      </g>
     </g>
    </g>
    <g id="xtick_3">
     <g id="line2d_5">
      <path d="M 233.611948 304.44375 
L 233.611948 25.918125 
" clip-path="url(#p4d0109562d)" style="fill: none; stroke: #b0b0b0; stroke-width: 0.8; stroke-linecap: square"/>
     </g>
     <g id="line2d_6">
      <g>
       <use xlink:href="#mb5d6ff6f9d" x="233.611948" y="304.44375" style="stroke: #000000; stroke-width: 0.8"/>
      </g>
     </g>
     <g id="text_3">
      <!-- 200 -->
      <g transform="translate(224.068198 319.042187)scale(0.1 -0.1)">
       <defs>
        <path id="DejaVuSans-32" d="M 1228 531 
L 3431 531 
L 3431 0 
L 469 0 
L 469 531 
Q 828 903 1448 1529 
Q 2069 2156 2228 2338 
Q 2531 2678 2651 2914 
Q 2772 3150 2772 3378 
Q 2772 3750 2511 3984 
Q 2250 4219 1831 4219 
Q 1534 4219 1204 4116 
Q 875 4013 500 3803 
L 500 4441 
Q 881 4594 1212 4672 
Q 1544 4750 1819 4750 
Q 2544 4750 2975 4387 
Q 3406 4025 3406 3419 
Q 3406 3131 3298 2873 
Q 3191 2616 2906 2266 
Q 2828 2175 2409 1742 
Q 1991 1309 1228 531 
z
" transform="scale(0.015625)"/>
       </defs>
       <use xlink:href="#DejaVuSans-32"/>
       <use xlink:href="#DejaVuSans-30" x="63.623047"/>
       <use xlink:href="#DejaVuSans-30" x="127.246094"/>
      </g>
     </g>
    </g>
    <g id="xtick_4">
     <g id="line2d_7">
      <path d="M 313.020407 304.44375 
L 313.020407 25.918125 
" clip-path="url(#p4d0109562d)" style="fill: none; stroke: #b0b0b0; stroke-width: 0.8; stroke-linecap: square"/>
     </g>
     <g id="line2d_8">
      <g>
       <use xlink:href="#mb5d6ff6f9d" x="313.020407" y="304.44375" style="stroke: #000000; stroke-width: 0.8"/>
      </g>
     </g>
     <g id="text_4">
      <!-- 300 -->
      <g transform="translate(303.476657 319.042187)scale(0.1 -0.1)">
       <defs>
        <path id="DejaVuSans-33" d="M 2597 2516 
Q 3050 2419 3304 2112 
Q 3559 1806 3559 1356 
Q 3559 666 3084 287 
Q 2609 -91 1734 -91 
Q 1441 -91 1130 -33 
Q 819 25 488 141 
L 488 750 
Q 750 597 1062 519 
Q 1375 441 1716 441 
Q 2309 441 2620 675 
Q 2931 909 2931 1356 
Q 2931 1769 2642 2001 
Q 2353 2234 1838 2234 
L 1294 2234 
L 1294 2753 
L 1863 2753 
Q 2328 2753 2575 2939 
Q 2822 3125 2822 3475 
Q 2822 3834 2567 4026 
Q 2313 4219 1838 4219 
Q 1578 4219 1281 4162 
Q 984 4106 628 3988 
L 628 4550 
Q 988 4650 1302 4700 
Q 1616 4750 1894 4750 
Q 2613 4750 3031 4423 
Q 3450 4097 3450 3541 
Q 3450 3153 3228 2886 
Q 3006 2619 2597 2516 
z
" transform="scale(0.015625)"/>
       </defs>
       <use xlink:href="#DejaVuSans-33"/>
       <use xlink:href="#DejaVuSans-30" x="63.623047"/>
       <use xlink:href="#DejaVuSans-30" x="127.246094"/>
      </g>
     </g>
    </g>
    <g id="xtick_5">
     <g id="line2d_9">
      <path d="M 392.428867 304.44375 
L 392.428867 25.918125 
" clip-path="url(#p4d0109562d)" style="fill: none; stroke: #b0b0b0; stroke-width: 0.8; stroke-linecap: square"/>
     </g>
     <g id="line2d_10">
      <g>
       <use xlink:href="#mb5d6ff6f9d" x="392.428867" y="304.44375" style="stroke: #000000; stroke-width: 0.8"/>
      </g>
     </g>
     <g id="text_5">
      <!-- 400 -->
      <g transform="translate(382.885117 319.042187)scale(0.1 -0.1)">
       <defs>
        <path id="DejaVuSans-34" d="M 2419 4116 
L 825 1625 
L 2419 1625 
L 2419 4116 
z
M 2253 4666 
L 3047 4666 
L 3047 1625 
L 3713 1625 
L 3713 1100 
L 3047 1100 
L 3047 0 
L 2419 0 
L 2419 1100 
L 313 1100 
L 313 1709 
L 2253 4666 
z
" transform="scale(0.015625)"/>
       </defs>
       <use xlink:href="#DejaVuSans-34"/>
       <use xlink:href="#DejaVuSans-30" x="63.623047"/>
       <use xlink:href="#DejaVuSans-30" x="127.246094"/>
      </g>
     </g>
    </g>
    <g id="text_6">
     <!-- Translational Position [mm] -->
     <g transform="translate(185.486719 332.720312)scale(0.1 -0.1)">
      <defs>
       <path id="DejaVuSans-54" d="M -19 4666 
L 3928 4666 
L 3928 4134 
L 2272 4134 
L 2272 0 
L 1638 0 
L 1638 4134 
L -19 4134 
L -19 4666 
z
" transform="scale(0.015625)"/>
       <path id="DejaVuSans-72" d="M 2631 2963 
Q 2534 3019 2420 3045 
Q 2306 3072 2169 3072 
Q 1681 3072 1420 2755 
Q 1159 2438 1159 1844 
L 1159 0 
L 581 0 
L 581 3500 
L 1159 3500 
L 1159 2956 
Q 1341 3275 1631 3429 
Q 1922 3584 2338 3584 
Q 2397 3584 2469 3576 
Q 2541 3569 2628 3553 
L 2631 2963 
z
" transform="scale(0.015625)"/>
       <path id="DejaVuSans-61" d="M 2194 1759 
Q 1497 1759 1228 1600 
Q 959 1441 959 1056 
Q 959 750 1161 570 
Q 1363 391 1709 391 
Q 2188 391 2477 730 
Q 2766 1069 2766 1631 
L 2766 1759 
L 2194 1759 
z
M 3341 1997 
L 3341 0 
L 2766 0 
L 2766 531 
Q 2569 213 2275 61 
Q 1981 -91 1556 -91 
Q 1019 -91 701 211 
Q 384 513 384 1019 
Q 384 1609 779 1909 
Q 1175 2209 1959 2209 
L 2766 2209 
L 2766 2266 
Q 2766 2663 2505 2880 
Q 2244 3097 1772 3097 
Q 1472 3097 1187 3025 
Q 903 2953 641 2809 
L 641 3341 
Q 956 3463 1253 3523 
Q 1550 3584 1831 3584 
Q 2591 3584 2966 3190 
Q 3341 2797 3341 1997 
z
" transform="scale(0.015625)"/>
       <path id="DejaVuSans-6e" d="M 3513 2113 
L 3513 0 
L 2938 0 
L 2938 2094 
Q 2938 2591 2744 2837 
Q 2550 3084 2163 3084 
Q 1697 3084 1428 2787 
Q 1159 2491 1159 1978 
L 1159 0 
L 581 0 
L 581 3500 
L 1159 3500 
L 1159 2956 
Q 1366 3272 1645 3428 
Q 1925 3584 2291 3584 
Q 2894 3584 3203 3211 
Q 3513 2838 3513 2113 
z
" transform="scale(0.015625)"/>
       <path id="DejaVuSans-73" d="M 2834 3397 
L 2834 2853 
Q 2591 2978 2328 3040 
Q 2066 3103 1784 3103 
Q 1356 3103 1142 2972 
Q 928 2841 928 2578 
Q 928 2378 1081 2264 
Q 1234 2150 1697 2047 
L 1894 2003 
Q 2506 1872 2764 1633 
Q 3022 1394 3022 966 
Q 3022 478 2636 193 
Q 2250 -91 1575 -91 
Q 1294 -91 989 -36 
Q 684 19 347 128 
L 347 722 
Q 666 556 975 473 
Q 1284 391 1588 391 
Q 1994 391 2212 530 
Q 2431 669 2431 922 
Q 2431 1156 2273 1281 
Q 2116 1406 1581 1522 
L 1381 1569 
Q 847 1681 609 1914 
Q 372 2147 372 2553 
Q 372 3047 722 3315 
Q 1072 3584 1716 3584 
Q 2034 3584 2315 3537 
Q 2597 3491 2834 3397 
z
" transform="scale(0.015625)"/>
       <path id="DejaVuSans-6c" d="M 603 4863 
L 1178 4863 
L 1178 0 
L 603 0 
L 603 4863 
z
" transform="scale(0.015625)"/>
       <path id="DejaVuSans-74" d="M 1172 4494 
L 1172 3500 
L 2356 3500 
L 2356 3053 
L 1172 3053 
L 1172 1153 
Q 1172 725 1289 603 
Q 1406 481 1766 481 
L 2356 481 
L 2356 0 
L 1766 0 
Q 1100 0 847 248 
Q 594 497 594 1153 
L 594 3053 
L 172 3053 
L 172 3500 
L 594 3500 
L 594 4494 
L 1172 4494 
z
" transform="scale(0.015625)"/>
       <path id="DejaVuSans-69" d="M 603 3500 
L 1178 3500 
L 1178 0 
L 603 0 
L 603 3500 
z
M 603 4863 
L 1178 4863 
L 1178 4134 
L 603 4134 
L 603 4863 
z
" transform="scale(0.015625)"/>
       <path id="DejaVuSans-6f" d="M 1959 3097 
Q 1497 3097 1228 2736 
Q 959 2375 959 1747 
Q 959 1119 1226 758 
Q 1494 397 1959 397 
Q 2419 397 2687 759 
Q 2956 1122 2956 1747 
Q 2956 2369 2687 2733 
Q 2419 3097 1959 3097 
z
M 1959 3584 
Q 2709 3584 3137 3096 
Q 3566 2609 3566 1747 
Q 3566 888 3137 398 
Q 2709 -91 1959 -91 
Q 1206 -91 779 398 
Q 353 888 353 1747 
Q 353 2609 779 3096 
Q 1206 3584 1959 3584 
z
" transform="scale(0.015625)"/>
       <path id="DejaVuSans-20" transform="scale(0.015625)"/>
       <path id="DejaVuSans-50" d="M 1259 4147 
L 1259 2394 
L 2053 2394 
Q 2494 2394 2734 2622 
Q 2975 2850 2975 3272 
Q 2975 3691 2734 3919 
Q 2494 4147 2053 4147 
L 1259 4147 
z
M 628 4666 
L 2053 4666 
Q 2838 4666 3239 4311 
Q 3641 3956 3641 3272 
Q 3641 2581 3239 2228 
Q 2838 1875 2053 1875 
L 1259 1875 
L 1259 0 
L 628 0 
L 628 4666 
z
" transform="scale(0.015625)"/>
       <path id="DejaVuSans-5b" d="M 550 4863 
L 1875 4863 
L 1875 4416 
L 1125 4416 
L 1125 -397 
L 1875 -397 
L 1875 -844 
L 550 -844 
L 550 4863 
z
" transform="scale(0.015625)"/>
       <path id="DejaVuSans-6d" d="M 3328 2828 
Q 3544 3216 3844 3400 
Q 4144 3584 4550 3584 
Q 5097 3584 5394 3201 
Q 5691 2819 5691 2113 
L 5691 0 
L 5113 0 
L 5113 2094 
Q 5113 2597 4934 2840 
Q 4756 3084 4391 3084 
Q 3944 3084 3684 2787 
Q 3425 2491 3425 1978 
L 3425 0 
L 2847 0 
L 2847 2094 
Q 2847 2600 2669 2842 
Q 2491 3084 2119 3084 
Q 1678 3084 1418 2786 
Q 1159 2488 1159 1978 
L 1159 0 
L 581 0 
L 581 3500 
L 1159 3500 
L 1159 2956 
Q 1356 3278 1631 3431 
Q 1906 3584 2284 3584 
Q 2666 3584 2933 3390 
Q 3200 3197 3328 2828 
z
" transform="scale(0.015625)"/>
       <path id="DejaVuSans-5d" d="M 1947 4863 
L 1947 -844 
L 622 -844 
L 622 -397 
L 1369 -397 
L 1369 4416 
L 622 4416 
L 622 4863 
L 1947 4863 
z
" transform="scale(0.015625)"/>
      </defs>
      <use xlink:href="#DejaVuSans-54"/>
      <use xlink:href="#DejaVuSans-72" x="46.333984"/>
      <use xlink:href="#DejaVuSans-61" x="87.447266"/>
      <use xlink:href="#DejaVuSans-6e" x="148.726562"/>
      <use xlink:href="#DejaVuSans-73" x="212.105469"/>
      <use xlink:href="#DejaVuSans-6c" x="264.205078"/>
      <use xlink:href="#DejaVuSans-61" x="291.988281"/>
      <use xlink:href="#DejaVuSans-74" x="353.267578"/>
      <use xlink:href="#DejaVuSans-69" x="392.476562"/>
      <use xlink:href="#DejaVuSans-6f" x="420.259766"/>
      <use xlink:href="#DejaVuSans-6e" x="481.441406"/>
      <use xlink:href="#DejaVuSans-61" x="544.820312"/>
      <use xlink:href="#DejaVuSans-6c" x="606.099609"/>
      <use xlink:href="#DejaVuSans-20" x="633.882812"/>
      <use xlink:href="#DejaVuSans-50" x="665.669922"/>
      <use xlink:href="#DejaVuSans-6f" x="722.347656"/>
      <use xlink:href="#DejaVuSans-73" x="783.529297"/>
      <use xlink:href="#DejaVuSans-69" x="835.628906"/>
      <use xlink:href="#DejaVuSans-74" x="863.412109"/>
      <use xlink:href="#DejaVuSans-69" x="902.621094"/>
      <use xlink:href="#DejaVuSans-6f" x="930.404297"/>
      <use xlink:href="#DejaVuSans-6e" x="991.585938"/>
      <use xlink:href="#DejaVuSans-20" x="1054.964844"/>
      <use xlink:href="#DejaVuSans-5b" x="1086.751953"/>
      <use xlink:href="#DejaVuSans-6d" x="1125.765625"/>
      <use xlink:href="#DejaVuSans-6d" x="1223.177734"/>
      <use xlink:href="#DejaVuSans-5d" x="1320.589844"/>
     </g>
    </g>
   </g>
   <g id="matplotlib.axis_2">
    <g id="ytick_1">
     <g id="line2d_11">
      <path d="M 56.928125 291.91676 
L 450 291.91676 
" clip-path="url(#p4d0109562d)" style="fill: none; stroke: #b0b0b0; stroke-width: 0.8; stroke-linecap: square"/>
     </g>
     <g id="line2d_12">
      <defs>
       <path id="ma08abd21b9" d="M 0 0 
L -3.5 0 
" style="stroke: #000000; stroke-width: 0.8"/>
      </defs>
      <g>
       <use xlink:href="#ma08abd21b9" x="56.928125" y="291.91676" style="stroke: #000000; stroke-width: 0.8"/>
      </g>
     </g>
     <g id="text_7">
      <!-- 0 -->
      <g transform="translate(43.565625 295.715979)scale(0.1 -0.1)">
       <use xlink:href="#DejaVuSans-30"/>
      </g>
     </g>
    </g>
    <g id="ytick_2">
     <g id="line2d_13">
      <path d="M 56.928125 258.600298 
L 450 258.600298 
" clip-path="url(#p4d0109562d)" style="fill: none; stroke: #b0b0b0; stroke-width: 0.8; stroke-linecap: square"/>
     </g>
     <g id="line2d_14">
      <g>
       <use xlink:href="#ma08abd21b9" x="56.928125" y="258.600298" style="stroke: #000000; stroke-width: 0.8"/>
      </g>
     </g>
     <g id="text_8">
      <!-- 250 -->
      <g transform="translate(30.840625 262.399517)scale(0.1 -0.1)">
       <defs>
        <path id="DejaVuSans-35" d="M 691 4666 
L 3169 4666 
L 3169 4134 
L 1269 4134 
L 1269 2991 
Q 1406 3038 1543 3061 
Q 1681 3084 1819 3084 
Q 2600 3084 3056 2656 
Q 3513 2228 3513 1497 
Q 3513 744 3044 326 
Q 2575 -91 1722 -91 
Q 1428 -91 1123 -41 
Q 819 9 494 109 
L 494 744 
Q 775 591 1075 516 
Q 1375 441 1709 441 
Q 2250 441 2565 725 
Q 2881 1009 2881 1497 
Q 2881 1984 2565 2268 
Q 2250 2553 1709 2553 
Q 1456 2553 1204 2497 
Q 953 2441 691 2322 
L 691 4666 
z
" transform="scale(0.015625)"/>
       </defs>
       <use xlink:href="#DejaVuSans-32"/>
       <use xlink:href="#DejaVuSans-35" x="63.623047"/>
       <use xlink:href="#DejaVuSans-30" x="127.246094"/>
      </g>
     </g>
    </g>
    <g id="ytick_3">
     <g id="line2d_15">
      <path d="M 56.928125 225.283836 
L 450 225.283836 
" clip-path="url(#p4d0109562d)" style="fill: none; stroke: #b0b0b0; stroke-width: 0.8; stroke-linecap: square"/>
     </g>
     <g id="line2d_16">
      <g>
       <use xlink:href="#ma08abd21b9" x="56.928125" y="225.283836" style="stroke: #000000; stroke-width: 0.8"/>
      </g>
     </g>
     <g id="text_9">
      <!-- 500 -->
      <g transform="translate(30.840625 229.083054)scale(0.1 -0.1)">
       <use xlink:href="#DejaVuSans-35"/>
       <use xlink:href="#DejaVuSans-30" x="63.623047"/>
       <use xlink:href="#DejaVuSans-30" x="127.246094"/>
      </g>
     </g>
    </g>
    <g id="ytick_4">
     <g id="line2d_17">
      <path d="M 56.928125 191.967373 
L 450 191.967373 
" clip-path="url(#p4d0109562d)" style="fill: none; stroke: #b0b0b0; stroke-width: 0.8; stroke-linecap: square"/>
     </g>
     <g id="line2d_18">
      <g>
       <use xlink:href="#ma08abd21b9" x="56.928125" y="191.967373" style="stroke: #000000; stroke-width: 0.8"/>
      </g>
     </g>
     <g id="text_10">
      <!-- 750 -->
      <g transform="translate(30.840625 195.766592)scale(0.1 -0.1)">
       <defs>
        <path id="DejaVuSans-37" d="M 525 4666 
L 3525 4666 
L 3525 4397 
L 1831 0 
L 1172 0 
L 2766 4134 
L 525 4134 
L 525 4666 
z
" transform="scale(0.015625)"/>
       </defs>
       <use xlink:href="#DejaVuSans-37"/>
       <use xlink:href="#DejaVuSans-35" x="63.623047"/>
       <use xlink:href="#DejaVuSans-30" x="127.246094"/>
      </g>
     </g>
    </g>
    <g id="ytick_5">
     <g id="line2d_19">
      <path d="M 56.928125 158.650911 
L 450 158.650911 
" clip-path="url(#p4d0109562d)" style="fill: none; stroke: #b0b0b0; stroke-width: 0.8; stroke-linecap: square"/>
     </g>
     <g id="line2d_20">
      <g>
       <use xlink:href="#ma08abd21b9" x="56.928125" y="158.650911" style="stroke: #000000; stroke-width: 0.8"/>
      </g>
     </g>
     <g id="text_11">
      <!-- 1000 -->
      <g transform="translate(24.478125 162.45013)scale(0.1 -0.1)">
       <use xlink:href="#DejaVuSans-31"/>
       <use xlink:href="#DejaVuSans-30" x="63.623047"/>
       <use xlink:href="#DejaVuSans-30" x="127.246094"/>
       <use xlink:href="#DejaVuSans-30" x="190.869141"/>
      </g>
     </g>
    </g>
    <g id="ytick_6">
     <g id="line2d_21">
      <path d="M 56.928125 125.334449 
L 450 125.334449 
" clip-path="url(#p4d0109562d)" style="fill: none; stroke: #b0b0b0; stroke-width: 0.8; stroke-linecap: square"/>
     </g>
     <g id="line2d_22">
      <g>
       <use xlink:href="#ma08abd21b9" x="56.928125" y="125.334449" style="stroke: #000000; stroke-width: 0.8"/>
      </g>
     </g>
     <g id="text_12">
      <!-- 1250 -->
      <g transform="translate(24.478125 129.133667)scale(0.1 -0.1)">
       <use xlink:href="#DejaVuSans-31"/>
       <use xlink:href="#DejaVuSans-32" x="63.623047"/>
       <use xlink:href="#DejaVuSans-35" x="127.246094"/>
       <use xlink:href="#DejaVuSans-30" x="190.869141"/>
      </g>
     </g>
    </g>
    <g id="ytick_7">
     <g id="line2d_23">
      <path d="M 56.928125 92.017986 
L 450 92.017986 
" clip-path="url(#p4d0109562d)" style="fill: none; stroke: #b0b0b0; stroke-width: 0.8; stroke-linecap: square"/>
     </g>
     <g id="line2d_24">
      <g>
       <use xlink:href="#ma08abd21b9" x="56.928125" y="92.017986" style="stroke: #000000; stroke-width: 0.8"/>
      </g>
     </g>
     <g id="text_13">
      <!-- 1500 -->
      <g transform="translate(24.478125 95.817205)scale(0.1 -0.1)">
       <use xlink:href="#DejaVuSans-31"/>
       <use xlink:href="#DejaVuSans-35" x="63.623047"/>
       <use xlink:href="#DejaVuSans-30" x="127.246094"/>
       <use xlink:href="#DejaVuSans-30" x="190.869141"/>
      </g>
     </g>
    </g>
    <g id="ytick_8">
     <g id="line2d_25">
      <path d="M 56.928125 58.701524 
L 450 58.701524 
" clip-path="url(#p4d0109562d)" style="fill: none; stroke: #b0b0b0; stroke-width: 0.8; stroke-linecap: square"/>
     </g>
     <g id="line2d_26">
      <g>
       <use xlink:href="#ma08abd21b9" x="56.928125" y="58.701524" style="stroke: #000000; stroke-width: 0.8"/>
      </g>
     </g>
     <g id="text_14">
      <!-- 1750 -->
      <g transform="translate(24.478125 62.500743)scale(0.1 -0.1)">
       <use xlink:href="#DejaVuSans-31"/>
       <use xlink:href="#DejaVuSans-37" x="63.623047"/>
       <use xlink:href="#DejaVuSans-35" x="127.246094"/>
       <use xlink:href="#DejaVuSans-30" x="190.869141"/>
      </g>
     </g>
    </g>
    <g id="text_15">
     <!-- Reflector Raw Value -->
     <g transform="translate(18.398438 214.980937)rotate(-90)scale(0.1 -0.1)">
      <defs>
       <path id="DejaVuSans-52" d="M 2841 2188 
Q 3044 2119 3236 1894 
Q 3428 1669 3622 1275 
L 4263 0 
L 3584 0 
L 2988 1197 
Q 2756 1666 2539 1819 
Q 2322 1972 1947 1972 
L 1259 1972 
L 1259 0 
L 628 0 
L 628 4666 
L 2053 4666 
Q 2853 4666 3247 4331 
Q 3641 3997 3641 3322 
Q 3641 2881 3436 2590 
Q 3231 2300 2841 2188 
z
M 1259 4147 
L 1259 2491 
L 2053 2491 
Q 2509 2491 2742 2702 
Q 2975 2913 2975 3322 
Q 2975 3731 2742 3939 
Q 2509 4147 2053 4147 
L 1259 4147 
z
" transform="scale(0.015625)"/>
       <path id="DejaVuSans-65" d="M 3597 1894 
L 3597 1613 
L 953 1613 
Q 991 1019 1311 708 
Q 1631 397 2203 397 
Q 2534 397 2845 478 
Q 3156 559 3463 722 
L 3463 178 
Q 3153 47 2828 -22 
Q 2503 -91 2169 -91 
Q 1331 -91 842 396 
Q 353 884 353 1716 
Q 353 2575 817 3079 
Q 1281 3584 2069 3584 
Q 2775 3584 3186 3129 
Q 3597 2675 3597 1894 
z
M 3022 2063 
Q 3016 2534 2758 2815 
Q 2500 3097 2075 3097 
Q 1594 3097 1305 2825 
Q 1016 2553 972 2059 
L 3022 2063 
z
" transform="scale(0.015625)"/>
       <path id="DejaVuSans-66" d="M 2375 4863 
L 2375 4384 
L 1825 4384 
Q 1516 4384 1395 4259 
Q 1275 4134 1275 3809 
L 1275 3500 
L 2222 3500 
L 2222 3053 
L 1275 3053 
L 1275 0 
L 697 0 
L 697 3053 
L 147 3053 
L 147 3500 
L 697 3500 
L 697 3744 
Q 697 4328 969 4595 
Q 1241 4863 1831 4863 
L 2375 4863 
z
" transform="scale(0.015625)"/>
       <path id="DejaVuSans-63" d="M 3122 3366 
L 3122 2828 
Q 2878 2963 2633 3030 
Q 2388 3097 2138 3097 
Q 1578 3097 1268 2742 
Q 959 2388 959 1747 
Q 959 1106 1268 751 
Q 1578 397 2138 397 
Q 2388 397 2633 464 
Q 2878 531 3122 666 
L 3122 134 
Q 2881 22 2623 -34 
Q 2366 -91 2075 -91 
Q 1284 -91 818 406 
Q 353 903 353 1747 
Q 353 2603 823 3093 
Q 1294 3584 2113 3584 
Q 2378 3584 2631 3529 
Q 2884 3475 3122 3366 
z
" transform="scale(0.015625)"/>
       <path id="DejaVuSans-77" d="M 269 3500 
L 844 3500 
L 1563 769 
L 2278 3500 
L 2956 3500 
L 3675 769 
L 4391 3500 
L 4966 3500 
L 4050 0 
L 3372 0 
L 2619 2869 
L 1863 0 
L 1184 0 
L 269 3500 
z
" transform="scale(0.015625)"/>
       <path id="DejaVuSans-56" d="M 1831 0 
L 50 4666 
L 709 4666 
L 2188 738 
L 3669 4666 
L 4325 4666 
L 2547 0 
L 1831 0 
z
" transform="scale(0.015625)"/>
       <path id="DejaVuSans-75" d="M 544 1381 
L 544 3500 
L 1119 3500 
L 1119 1403 
Q 1119 906 1312 657 
Q 1506 409 1894 409 
Q 2359 409 2629 706 
Q 2900 1003 2900 1516 
L 2900 3500 
L 3475 3500 
L 3475 0 
L 2900 0 
L 2900 538 
Q 2691 219 2414 64 
Q 2138 -91 1772 -91 
Q 1169 -91 856 284 
Q 544 659 544 1381 
z
M 1991 3584 
L 1991 3584 
z
" transform="scale(0.015625)"/>
      </defs>
      <use xlink:href="#DejaVuSans-52"/>
      <use xlink:href="#DejaVuSans-65" x="64.982422"/>
      <use xlink:href="#DejaVuSans-66" x="126.505859"/>
      <use xlink:href="#DejaVuSans-6c" x="161.710938"/>
      <use xlink:href="#DejaVuSans-65" x="189.494141"/>
      <use xlink:href="#DejaVuSans-63" x="251.017578"/>
      <use xlink:href="#DejaVuSans-74" x="305.998047"/>
      <use xlink:href="#DejaVuSans-6f" x="345.207031"/>
      <use xlink:href="#DejaVuSans-72" x="406.388672"/>
      <use xlink:href="#DejaVuSans-20" x="447.501953"/>
      <use xlink:href="#DejaVuSans-52" x="479.289062"/>
      <use xlink:href="#DejaVuSans-61" x="546.521484"/>
      <use xlink:href="#DejaVuSans-77" x="607.800781"/>
      <use xlink:href="#DejaVuSans-20" x="689.587891"/>
      <use xlink:href="#DejaVuSans-56" x="721.375"/>
      <use xlink:href="#DejaVuSans-61" x="782.033203"/>
      <use xlink:href="#DejaVuSans-6c" x="843.3125"/>
      <use xlink:href="#DejaVuSans-75" x="871.095703"/>
      <use xlink:href="#DejaVuSans-65" x="934.474609"/>
     </g>
    </g>
   </g>
   <g id="line2d_27">
    <path d="M 74.795028 262.731539 
L 74.849916 262.331742 
L 74.795283 262.864805 
L 74.90223 262.731539 
L 74.925099 262.731539 
L 75.049135 262.598273 
L 75.133229 262.598273 
L 75.181509 262.198476 
L 75.234157 262.465007 
L 75.35327 262.198476 
L 75.420211 262.331742 
L 75.65264 262.06521 
L 75.836073 262.06521 
L 76.043329 261.532147 
L 76.156883 261.798678 
L 76.27679 261.398881 
L 76.403844 261.398881 
L 76.538044 261.665412 
L 76.827091 261.132349 
L 76.982731 261.132349 
L 77.675967 259.932956 
L 77.867342 259.932956 
L 78.483551 259.533159 
L 78.703513 259.533159 
L 78.930621 259.133361 
L 79.164082 259.000095 
L 79.405484 259.000095 
L 79.909727 257.800703 
L 80.171775 257.800703 
L 80.441764 257.667437 
L 81.293817 256.201513 
L 82.210984 255.401917 
L 82.530206 255.268652 
L 82.854987 254.469057 
L 83.188503 254.335791 
L 83.879356 253.136398 
L 84.236694 252.7366 
L 84.967252 251.403942 
L 85.340472 251.004144 
L 85.721632 250.071283 
L 86.110734 249.804752 
L 86.499835 249.005157 
L 87.714785 247.272701 
L 88.127709 246.606371 
L 88.540633 246.33984 
L 89.398244 244.607384 
L 89.82705 244.07432 
L 90.263796 243.141459 
L 90.700543 242.741662 
L 92.042546 240.476142 
L 92.495174 239.809813 
L 92.947802 238.61042 
L 93.408371 237.810825 
L 93.86894 236.744699 
L 95.735039 233.413052 
L 96.203549 232.480191 
L 96.68 231.813862 
L 97.156451 230.614469 
L 97.624961 229.814874 
L 99.054313 226.083431 
L 99.530764 225.417101 
L 100.007214 223.817911 
L 100.483665 221.818923 
L 100.960116 220.886062 
L 101.913017 218.220746 
L 102.389468 217.287885 
L 102.865919 215.155631 
L 103.81882 212.62358 
L 104.771722 208.892136 
L 105.248173 207.559478 
L 106.677525 202.761907 
L 107.153976 201.429249 
L 108.106877 197.831071 
L 111.442033 184.504486 
L 113.824286 173.843218 
L 115.730089 162.249089 
L 118.112343 144.791263 
L 119.065245 137.195109 
L 121.923949 116.272371 
L 122.4004 114.006851 
L 122.876851 110.941737 
L 123.353301 109.342547 
L 123.829752 107.077027 
L 124.782654 103.612115 
L 125.735555 99.61414 
L 126.688457 96.015962 
L 127.164908 93.617176 
L 128.59426 82.556111 
L 130.500063 72.294641 
L 130.976514 69.895855 
L 131.452964 68.696463 
L 131.929415 69.895855 
L 132.405866 71.495045 
L 132.882317 74.826692 
L 133.358767 80.690389 
L 134.311669 99.214342 
L 135.26457 125.60098 
L 138.123275 215.288897 
L 138.599726 229.148545 
L 140.029078 258.467032 
L 140.505529 265.396856 
L 140.981979 270.594224 
L 141.45843 272.99301 
L 141.934881 276.324656 
L 143.364233 280.322631 
L 143.840684 281.255492 
L 144.317135 281.255492 
L 145.746487 282.321619 
L 146.222938 282.454885 
L 146.699389 282.721417 
L 147.175839 282.854682 
L 147.65229 282.721417 
L 148.128741 282.987948 
L 148.605192 282.721417 
L 149.081642 282.987948 
L 149.558093 282.588151 
L 150.510995 282.321619 
L 150.987445 281.921821 
L 151.463896 282.188353 
L 151.940347 281.921821 
L 152.416798 281.522024 
L 152.893248 282.188353 
L 153.369699 281.921821 
L 153.84615 281.921821 
L 154.362305 281.522024 
L 154.838756 281.65529 
L 156.268108 281.255492 
L 158.650362 281.255492 
L 159.126812 280.855695 
L 159.603263 280.988961 
L 160.556165 280.322631 
L 161.509066 279.789568 
L 161.985517 279.256504 
L 162.461968 279.256504 
L 163.414869 278.723441 
L 163.89132 278.723441 
L 164.367771 278.456909 
L 164.844222 277.79058 
L 165.320672 277.657314 
L 165.797123 277.657314 
L 166.750025 276.990985 
L 167.226475 276.990985 
L 167.702926 276.857719 
L 168.179377 276.324656 
L 168.655828 276.058124 
L 169.132278 276.324656 
L 169.608729 275.258529 
L 170.08518 274.991997 
L 171.038081 274.725466 
L 171.514532 274.192402 
L 172.467434 272.726478 
L 172.943884 272.726478 
L 173.420335 272.32668 
L 173.896786 272.193414 
L 175.326138 270.72749 
L 175.802589 270.460958 
L 176.755491 269.394832 
L 177.231941 269.1283 
L 177.708392 268.595237 
L 178.184843 268.461971 
L 178.661294 268.461971 
L 179.614195 267.662376 
L 180.090646 266.729515 
L 180.567097 266.329717 
L 181.043547 265.663388 
L 181.44059 265.396856 
L 181.91704 264.197464 
L 182.393491 264.197464 
L 182.869942 262.864805 
L 183.346393 262.331742 
L 183.822843 261.398881 
L 184.775745 259.932956 
L 185.252196 259.932956 
L 186.681548 257.400905 
L 187.634449 255.668449 
L 188.587351 254.602322 
L 189.540253 252.336803 
L 190.016703 251.670474 
L 190.493154 251.270676 
L 190.969605 249.938018 
L 191.922506 248.472093 
L 192.398957 247.272701 
L 192.875408 246.473106 
L 197.163465 236.611433 
L 197.639915 235.278774 
L 198.116366 234.345913 
L 200.975071 226.349962 
L 201.451521 225.550367 
L 201.927972 224.350975 
L 202.404423 222.085455 
L 202.880874 221.152594 
L 203.833775 217.820948 
L 204.310226 216.888087 
L 204.786677 214.889099 
L 205.263128 213.423175 
L 205.739578 212.62358 
L 206.69248 208.75887 
L 207.168931 207.559478 
L 207.645381 205.693756 
L 208.121832 204.494363 
L 211.456987 191.967373 
L 215.268593 173.843218 
L 216.221495 167.97952 
L 216.697946 165.314203 
L 219.080199 145.590858 
L 221.462453 124.401588 
L 223.844707 105.477837 
L 224.797609 99.61414 
L 225.274059 97.748418 
L 225.75051 94.949835 
L 226.226961 92.950847 
L 228.609215 79.357731 
L 230.038567 72.294641 
L 231.467919 67.363804 
L 231.94437 62.966031 
L 232.420821 55.236612 
L 232.897271 42.842888 
L 233.373722 38.578381 
L 233.850173 44.841876 
L 234.326624 47.640458 
L 234.803074 48.440054 
L 235.279525 50.305775 
L 235.755976 53.770687 
L 236.232427 59.501119 
L 236.708878 67.630336 
L 237.185328 78.691401 
L 238.13823 110.675205 
L 240.996934 207.292946 
L 242.426287 241.942067 
L 242.902737 251.13741 
L 243.855639 263.264603 
L 244.33209 267.928907 
L 245.284991 274.192402 
L 245.761442 276.990985 
L 246.237893 278.190378 
L 248.143696 280.455897 
L 248.620146 280.589163 
L 249.096597 280.988961 
L 249.573048 280.855695 
L 250.049499 280.589163 
L 250.525949 280.855695 
L 251.0024 280.988961 
L 251.478851 281.255492 
L 251.955302 280.988961 
L 252.431753 281.122226 
L 253.384654 281.122226 
L 254.337556 280.589163 
L 254.814006 280.855695 
L 255.290457 280.855695 
L 255.766908 280.589163 
L 256.243359 280.455897 
L 256.719809 280.0561 
L 257.19626 279.922834 
L 257.672711 279.38977 
L 258.149162 279.789568 
L 258.625612 280.455897 
L 259.102063 279.656302 
L 259.578514 279.38977 
L 260.054965 279.523036 
L 261.007866 279.256504 
L 261.484317 278.856707 
L 261.960768 278.989973 
L 262.437218 278.856707 
L 262.913669 278.856707 
L 263.866571 278.190378 
L 264.343021 278.190378 
L 264.819472 277.79058 
L 265.295923 277.79058 
L 265.772374 276.990985 
L 266.725275 276.990985 
L 267.201726 276.591187 
L 267.678177 276.724453 
L 268.154628 276.591187 
L 268.631078 275.924858 
L 269.107529 275.525061 
L 269.58398 275.658327 
L 270.060431 274.991997 
L 270.536881 274.858731 
L 271.013332 274.858731 
L 271.489783 274.725466 
L 271.966234 274.059136 
L 272.919135 274.059136 
L 273.395586 273.925871 
L 273.872037 273.659339 
L 274.824938 272.726478 
L 275.301389 272.593212 
L 275.77784 272.193414 
L 276.25429 271.260554 
L 276.730741 271.260554 
L 279.112995 268.461971 
L 279.589446 267.795641 
L 280.065896 267.395844 
L 280.542347 266.596249 
L 281.018798 266.196451 
L 282.44815 264.197464 
L 282.924601 264.064198 
L 283.401052 263.797666 
L 283.877503 262.731539 
L 284.353953 262.331742 
L 284.830404 261.665412 
L 285.783306 259.932956 
L 286.259756 259.932956 
L 286.736207 258.600298 
L 287.212658 257.933969 
L 287.689109 257.667437 
L 288.165559 256.468044 
L 288.64201 255.668449 
L 289.118461 255.268652 
L 290.547813 252.7366 
L 291.024264 251.537208 
L 291.977165 250.604347 
L 292.453616 249.404954 
L 292.930067 248.871891 
L 293.882968 247.139435 
L 294.359419 246.473106 
L 295.312321 244.07432 
L 295.788771 242.874928 
L 296.265222 242.075333 
L 296.741673 240.87594 
L 297.218124 240.076345 
L 297.694574 239.010218 
L 298.171025 238.343889 
L 300.076828 233.546318 
L 300.553279 232.746723 
L 301.02973 231.680596 
L 301.506181 230.081406 
L 301.982631 229.415077 
L 303.411984 225.950165 
L 303.888434 225.017304 
L 304.364885 223.817911 
L 304.841336 221.685658 
L 305.317787 220.752797 
L 305.794237 218.887075 
L 307.22359 214.755833 
L 310.558745 202.228844 
L 311.988097 195.832083 
L 313.417449 189.302056 
L 314.370351 185.437347 
L 315.323253 180.373244 
L 315.799703 177.974459 
L 316.276154 174.909344 
L 317.229056 170.111774 
L 319.611309 153.453543 
L 324.852268 116.005839 
L 326.758071 106.410698 
L 330.093226 91.085125 
L 330.569677 88.68634 
L 331.999029 78.691401 
L 332.47548 76.15935 
L 333.904832 66.564209 
L 335.334184 57.768663 
L 336.287086 55.236612 
L 336.763537 55.503144 
L 337.239987 56.436004 
L 337.716438 58.83479 
L 338.192889 63.499094 
L 338.66934 70.162387 
L 339.14579 79.357731 
L 340.098692 104.944774 
L 343.433847 227.549355 
L 344.386749 252.203537 
L 344.863199 261.798678 
L 345.33965 268.461971 
L 345.816101 272.060149 
L 346.769003 276.857719 
L 347.245453 278.323644 
L 347.721904 279.256504 
L 348.198355 279.789568 
L 348.674806 280.988961 
L 349.151256 281.255492 
L 349.627707 281.255492 
L 351.057059 281.65529 
L 351.53351 281.65529 
L 352.009961 281.388758 
L 352.486412 281.255492 
L 353.439313 281.255492 
L 353.915764 281.388758 
L 354.392215 280.855695 
L 354.868665 281.255492 
L 355.345116 281.122226 
L 355.821567 281.255492 
L 356.298018 281.255492 
L 356.774468 281.122226 
L 357.250919 281.255492 
L 357.72737 281.122226 
L 358.203821 281.255492 
L 358.680271 281.122226 
L 359.633173 281.122226 
L 360.586074 280.189365 
L 361.062525 280.455897 
L 361.538976 279.789568 
L 362.491878 279.523036 
L 362.968328 279.256504 
L 363.444779 279.256504 
L 363.92123 279.123239 
L 364.397681 278.856707 
L 364.874131 278.723441 
L 365.350582 278.323644 
L 365.827033 278.989973 
L 366.303484 279.123239 
L 366.779934 278.856707 
L 367.256385 278.723441 
L 367.732836 278.190378 
L 368.209287 278.057112 
L 368.685737 277.390783 
L 369.162188 276.990985 
L 369.638639 276.990985 
L 370.11509 276.857719 
L 372.497343 274.991997 
L 372.973794 274.858731 
L 373.450245 274.858731 
L 373.926696 274.5922 
L 374.879597 273.659339 
L 375.832499 272.726478 
L 376.308949 272.726478 
L 377.261851 271.260554 
L 377.738302 270.994022 
L 378.214753 270.327693 
L 378.691203 270.194427 
L 379.167654 269.661363 
L 379.644105 268.861768 
L 380.120556 268.595237 
L 380.597006 268.461971 
L 381.073457 268.195439 
L 382.502809 266.996046 
L 384.408612 264.463995 
L 384.885063 264.197464 
L 385.837965 262.731539 
L 386.314415 262.06521 
L 387.267317 260.199488 
L 387.743768 259.932956 
L 388.696669 259.000095 
L 389.17312 258.2005 
L 389.649571 257.933969 
L 390.602472 255.934981 
L 391.555374 254.735588 
L 392.508275 253.136398 
L 392.984726 251.80374 
L 393.937628 251.004144 
L 394.414078 249.938018 
L 394.890529 249.271688 
L 395.36698 248.338827 
L 395.843431 247.93903 
L 397.272783 245.67351 
L 397.749234 245.007181 
L 398.702135 243.141459 
L 399.655037 241.942067 
L 400.607938 239.27675 
L 401.084389 238.61042 
L 401.56084 237.67756 
L 403.943093 231.813862 
L 404.895995 228.748748 
L 405.372446 227.549355 
L 405.848896 225.816899 
L 406.325347 223.151582 
L 407.278249 220.886062 
L 408.23115 217.554416 
L 409.184052 214.356036 
L 409.660503 213.023377 
L 410.136953 212.223782 
L 410.613404 209.691731 
L 411.089855 208.625604 
L 412.519207 203.561502 
L 412.995658 200.896185 
L 413.869151 197.298007 
L 414.822052 192.900234 
L 415.219095 190.234917 
L 416.171996 186.236942 
L 416.569039 183.838156 
L 417.442532 179.573649 
L 418.316025 174.642813 
L 420.380645 161.58276 
L 423.318758 137.061843 
L 424.033434 130.398551 
L 425.303969 119.204219 
L 425.859828 114.539915 
L 426.733321 107.343559 
L 427.924448 98.814545 
L 428.400899 95.74943 
L 428.639124 94.416772 
L 428.797941 92.284518 
L 429.194984 91.351657 
L 429.433209 89.485935 
L 429.592026 89.352669 
L 429.90966 85.887757 
L 430.862561 75.759553 
L 430.94197 75.759553 
L 431.339012 71.894843 
L 431.577237 68.962994 
L 431.656646 68.829728 
L 431.736054 68.030133 
L 431.97428 64.698487 
L 432.053688 64.431955 
L 432.133097 46.3078 
L 432.133097 46.707597 
" clip-path="url(#p4d0109562d)" style="fill: none; stroke: #1f77b4; stroke-width: 1.5; stroke-linecap: square"/>
   </g>
   <g id="line2d_28">
    <path d="M 74.795028 291.783494 
L 93.408371 291.783494 
L 93.86894 291.516963 
L 94.33745 291.783494 
L 94.798019 291.250431 
L 95.266529 291.516963 
L 95.735039 291.117165 
L 96.203549 290.31757 
L 96.68 290.051038 
L 97.156451 290.051038 
L 97.624961 289.784507 
L 98.101411 290.051038 
L 99.054313 289.784507 
L 99.530764 290.051038 
L 100.483665 290.051038 
L 100.960116 289.917772 
L 101.436567 291.117165 
L 101.913017 291.117165 
L 102.389468 291.650228 
L 102.865919 291.383697 
L 103.34237 291.516963 
L 103.81882 291.516963 
L 104.295271 291.783494 
L 104.771722 290.983899 
L 105.724623 290.983899 
L 106.201074 291.250431 
L 106.677525 291.117165 
L 107.153976 290.584102 
L 107.630426 290.31757 
L 108.583328 290.584102 
L 109.536229 290.584102 
L 110.01268 290.450836 
L 110.489131 290.450836 
L 110.965582 289.917772 
L 111.442033 289.917772 
L 112.394934 290.184304 
L 112.871385 290.051038 
L 113.347836 290.983899 
L 113.824286 291.117165 
L 114.300737 290.184304 
L 114.777188 290.983899 
L 115.253639 290.584102 
L 115.730089 290.450836 
L 116.20654 289.784507 
L 117.159442 289.784507 
L 117.635892 289.917772 
L 118.112343 290.184304 
L 119.541695 291.516963 
L 120.018146 291.383697 
L 120.494597 291.783494 
L 197.163465 291.783494 
L 197.639915 291.650228 
L 198.116366 291.783494 
L 198.592817 291.783494 
L 199.069268 291.516963 
L 199.545718 291.516963 
L 200.022169 291.383697 
L 200.49862 291.783494 
L 201.451521 291.783494 
L 201.927972 291.650228 
L 202.404423 291.383697 
L 202.880874 290.983899 
L 203.357324 289.784507 
L 203.833775 289.784507 
L 204.786677 289.517975 
L 205.263128 289.118177 
L 205.739578 288.451848 
L 206.216029 288.585114 
L 206.69248 287.652253 
L 207.168931 287.652253 
L 208.121832 287.11919 
L 208.598283 286.719392 
L 209.074734 285.653265 
L 209.551184 285.786531 
L 210.027635 285.519999 
L 210.504086 285.519999 
L 210.980537 286.186329 
L 211.456987 286.319594 
L 212.409889 286.053063 
L 212.88634 286.319594 
L 213.839241 285.519999 
L 214.792143 285.519999 
L 215.268593 285.653265 
L 215.745044 285.919797 
L 216.221495 286.319594 
L 217.174396 287.518987 
L 217.650847 288.052051 
L 218.127298 289.118177 
L 218.603749 289.384709 
L 220.033101 290.717368 
L 220.509552 291.650228 
L 220.986003 291.650228 
L 221.462453 291.783494 
L 299.123927 291.783494 
L 299.600378 291.516963 
L 300.076828 291.783494 
L 301.02973 290.850633 
L 301.506181 290.584102 
L 301.982631 290.450836 
L 302.459082 291.117165 
L 302.935533 290.983899 
L 303.411984 290.584102 
L 303.888434 289.917772 
L 304.364885 289.784507 
L 304.841336 289.517975 
L 305.317787 288.851646 
L 305.794237 286.985924 
L 306.747139 286.719392 
L 307.22359 286.053063 
L 307.70004 286.186329 
L 308.176491 285.786531 
L 309.129393 286.053063 
L 309.605843 286.319594 
L 310.082294 286.319594 
L 310.558745 287.252455 
L 311.035196 287.385721 
L 311.511646 287.785519 
L 311.988097 287.918785 
L 312.464548 289.651241 
L 312.940999 289.784507 
L 313.8939 290.450836 
L 314.370351 290.450836 
L 314.846802 290.584102 
L 315.323253 289.784507 
L 315.799703 289.517975 
L 316.276154 289.384709 
L 316.752605 289.651241 
L 317.229056 289.784507 
L 317.705506 289.784507 
L 318.181957 290.051038 
L 318.658408 290.983899 
L 319.134859 290.850633 
L 319.611309 291.516963 
L 320.08776 291.783494 
L 395.36698 291.783494 
L 395.843431 291.650228 
L 396.319881 291.783494 
L 398.225684 291.783494 
L 398.702135 291.650228 
L 399.178586 288.451848 
L 399.655037 287.785519 
L 400.131487 287.652253 
L 402.513741 285.519999 
L 402.990192 288.052051 
L 403.466643 288.451848 
L 403.943093 288.318582 
L 404.419544 288.318582 
L 404.895995 288.585114 
L 405.372446 288.984911 
L 405.848896 288.585114 
L 406.325347 285.519999 
L 406.801798 285.519999 
L 407.278249 285.653265 
L 407.754699 285.653265 
L 408.23115 285.519999 
L 408.707601 285.653265 
L 409.184052 285.653265 
L 409.660503 285.519999 
L 410.136953 288.851646 
L 410.613404 288.851646 
L 411.089855 288.984911 
L 411.566306 288.851646 
L 412.042756 289.384709 
L 412.519207 288.984911 
L 412.995658 285.519999 
L 414.345602 285.519999 
L 414.822052 285.653265 
L 415.219095 286.45286 
L 415.695545 286.186329 
L 416.569039 289.917772 
L 417.045489 290.051038 
L 417.442532 290.584102 
L 417.918982 290.584102 
L 418.316025 290.983899 
L 418.713067 290.983899 
L 419.110109 287.518987 
L 419.58656 287.785519 
L 419.983602 288.185316 
L 420.380645 288.318582 
L 420.777687 288.851646 
L 421.174729 288.851646 
L 421.492363 288.984911 
L 421.889405 291.783494 
L 423.7158 291.783494 
L 424.033434 290.31757 
L 424.351068 290.184304 
L 424.986335 290.584102 
L 425.303969 290.450836 
L 425.859828 290.450836 
L 426.177462 291.783494 
L 427.447997 291.783494 
L 427.686223 290.184304 
L 428.400899 291.650228 
L 428.639124 291.650228 
L 428.797941 291.783494 
L 432.133097 291.783494 
L 432.133097 291.783494 
" clip-path="url(#p4d0109562d)" style="fill: none; stroke: #ff7f0e; stroke-width: 1.5; stroke-linecap: square"/>
   </g>
   <g id="line2d_29">
    <path d="M 74.795028 291.783494 
L 117.159442 291.783494 
L 117.635892 291.516963 
L 118.112343 291.783494 
L 119.065245 291.783494 
L 120.018146 291.516963 
L 120.494597 291.650228 
L 120.971048 291.383697 
L 121.923949 290.184304 
L 122.4004 289.784507 
L 122.876851 289.784507 
L 123.353301 290.184304 
L 123.829752 289.651241 
L 124.306203 291.383697 
L 124.782654 290.983899 
L 125.259104 290.983899 
L 125.735555 290.450836 
L 126.212006 290.983899 
L 126.688457 289.784507 
L 127.164908 289.384709 
L 127.641358 287.785519 
L 128.117809 287.652253 
L 129.547161 286.186329 
L 130.500063 286.186329 
L 130.976514 286.985924 
L 131.452964 285.519999 
L 131.929415 285.519999 
L 132.405866 285.386734 
L 132.882317 284.320607 
L 133.358767 284.187341 
L 133.835218 283.920809 
L 134.311669 283.387746 
L 134.78812 283.25448 
L 135.26457 282.588151 
L 135.741021 284.85367 
L 136.217472 284.187341 
L 136.693923 284.320607 
L 137.170373 284.054075 
L 137.646824 284.054075 
L 138.123275 283.387746 
L 138.599726 281.921821 
L 139.076176 281.255492 
L 139.552627 281.122226 
L 140.029078 280.722429 
L 140.505529 280.722429 
L 140.981979 280.988961 
L 141.45843 280.455897 
L 141.934881 280.589163 
L 142.411332 279.523036 
L 142.887783 279.922834 
L 143.364233 279.123239 
L 143.840684 279.38977 
L 144.793586 278.723441 
L 145.270036 278.456909 
L 145.746487 279.123239 
L 146.222938 279.256504 
L 146.699389 281.255492 
L 147.175839 281.255492 
L 147.65229 281.921821 
L 148.128741 281.788556 
L 148.605192 281.522024 
L 149.081642 281.388758 
L 149.558093 279.922834 
L 150.034544 280.455897 
L 150.987445 279.123239 
L 151.463896 279.123239 
L 151.940347 282.588151 
L 152.416798 278.323644 
L 152.893248 277.657314 
L 153.369699 277.657314 
L 153.84615 277.79058 
L 154.362305 277.390783 
L 154.838756 277.390783 
L 155.315206 277.257517 
L 155.791657 276.990985 
L 156.268108 276.857719 
L 156.744559 276.990985 
L 157.221009 276.990985 
L 157.69746 279.523036 
L 158.173911 279.123239 
L 158.650362 279.123239 
L 159.603263 280.589163 
L 160.079714 279.922834 
L 160.556165 278.723441 
L 161.032616 278.323644 
L 161.509066 279.256504 
L 161.985517 279.123239 
L 162.461968 279.256504 
L 162.938419 279.256504 
L 163.414869 279.38977 
L 164.844222 280.455897 
L 165.320672 280.0561 
L 165.797123 281.255492 
L 166.273574 281.122226 
L 166.750025 281.255492 
L 167.226475 282.055087 
L 167.702926 282.055087 
L 168.655828 284.85367 
L 169.132278 285.519999 
L 169.608729 285.786531 
L 170.08518 286.319594 
L 170.561631 287.918785 
L 171.038081 287.252455 
L 171.990983 288.052051 
L 172.943884 289.784507 
L 173.420335 291.383697 
L 173.896786 291.383697 
L 174.373237 291.783494 
L 196.210563 291.783494 
L 196.687014 291.516963 
L 197.163465 291.783494 
L 202.404423 291.783494 
L 202.880874 289.384709 
L 203.357324 291.783494 
L 214.792143 291.783494 
L 215.268593 290.051038 
L 215.745044 291.117165 
L 216.221495 290.983899 
L 216.697946 290.717368 
L 217.174396 290.717368 
L 217.650847 289.784507 
L 219.080199 289.784507 
L 219.55665 289.517975 
L 220.033101 289.118177 
L 220.509552 289.384709 
L 220.986003 289.784507 
L 221.462453 290.584102 
L 222.415355 290.584102 
L 222.891806 289.917772 
L 223.368256 289.917772 
L 223.844707 288.318582 
L 224.321158 285.786531 
L 224.797609 287.252455 
L 225.274059 285.786531 
L 225.75051 286.319594 
L 226.226961 286.319594 
L 227.179862 285.519999 
L 228.609215 285.519999 
L 229.085665 285.253468 
L 229.562116 284.720404 
L 230.038567 284.587138 
L 230.515018 284.320607 
L 230.991468 283.920809 
L 231.467919 285.519999 
L 231.94437 285.519999 
L 232.420821 285.653265 
L 232.897271 285.120202 
L 233.373722 285.120202 
L 233.850173 284.720404 
L 234.326624 281.255492 
L 234.803074 282.055087 
L 235.279525 281.388758 
L 235.755976 280.0561 
L 236.232427 281.522024 
L 236.708878 281.122226 
L 237.185328 281.388758 
L 238.13823 281.122226 
L 238.614681 281.255492 
L 239.091131 281.255492 
L 239.567582 281.122226 
L 240.044033 281.255492 
L 240.996934 280.988961 
L 241.473385 280.589163 
L 241.949836 282.721417 
L 242.426287 282.854682 
L 242.902737 279.789568 
L 243.379188 282.721417 
L 243.855639 282.055087 
L 244.33209 282.188353 
L 244.80854 280.589163 
L 245.761442 279.523036 
L 246.237893 278.723441 
L 246.714343 278.456909 
L 247.190794 278.856707 
L 247.667245 277.257517 
L 248.143696 276.990985 
L 249.096597 276.990985 
L 250.525949 274.991997 
L 251.0024 274.858731 
L 251.478851 274.458934 
L 251.955302 273.792605 
L 252.431753 275.658327 
L 252.908203 276.19139 
L 253.384654 276.19139 
L 253.861105 275.525061 
L 254.337556 275.391795 
L 254.814006 275.125263 
L 255.290457 273.659339 
L 256.243359 272.859744 
L 256.719809 272.859744 
L 257.19626 272.459946 
L 258.149162 272.726478 
L 258.625612 272.593212 
L 259.102063 272.593212 
L 259.578514 272.726478 
L 260.054965 272.193414 
L 260.531415 272.459946 
L 261.007866 272.593212 
L 261.484317 272.99301 
L 261.960768 273.925871 
L 262.437218 276.724453 
L 262.913669 276.724453 
L 263.39012 274.858731 
L 263.866571 277.390783 
L 264.343021 276.990985 
L 264.819472 279.123239 
L 265.295923 277.124251 
L 265.772374 277.657314 
L 266.248824 277.657314 
L 266.725275 279.123239 
L 267.201726 278.323644 
L 267.678177 280.455897 
L 268.154628 281.255492 
L 268.631078 281.522024 
L 269.107529 282.721417 
L 269.58398 283.387746 
L 270.060431 284.986936 
L 271.013332 285.919797 
L 271.489783 287.11919 
L 271.966234 286.985924 
L 272.919135 291.250431 
L 273.395586 291.783494 
L 305.317787 291.783494 
L 305.794237 291.650228 
L 306.270688 291.783494 
L 311.511646 291.783494 
L 311.988097 291.650228 
L 312.464548 291.783494 
L 314.846802 291.783494 
L 315.323253 289.784507 
L 315.799703 291.117165 
L 316.276154 291.250431 
L 316.752605 289.517975 
L 317.229056 290.184304 
L 318.181957 290.184304 
L 318.658408 290.983899 
L 319.134859 289.917772 
L 319.611309 289.917772 
L 320.08776 289.784507 
L 320.564211 289.784507 
L 321.040662 289.651241 
L 321.517112 290.983899 
L 321.993563 290.584102 
L 322.470014 291.117165 
L 322.946465 291.117165 
L 323.422915 289.384709 
L 323.899366 290.983899 
L 324.375817 288.984911 
L 324.852268 287.518987 
L 325.328718 288.052051 
L 325.805169 287.518987 
L 326.758071 287.518987 
L 327.234521 286.852658 
L 327.710972 288.052051 
L 328.187423 285.386734 
L 328.663874 287.385721 
L 329.140324 285.919797 
L 329.616775 286.186329 
L 330.093226 285.786531 
L 330.569677 285.653265 
L 331.046128 288.185316 
L 331.522578 288.052051 
L 331.999029 287.785519 
L 332.47548 287.652253 
L 332.951931 287.652253 
L 333.428381 284.320607 
L 333.904832 284.587138 
L 334.381283 284.320607 
L 334.857734 284.320607 
L 335.334184 284.986936 
L 335.810635 285.253468 
L 336.287086 282.987948 
L 336.763537 284.320607 
L 337.239987 284.587138 
L 337.716438 284.320607 
L 338.192889 284.587138 
L 339.14579 283.654278 
L 339.622241 286.319594 
L 340.098692 285.519999 
L 341.051593 285.519999 
L 341.528044 287.385721 
L 342.480946 281.788556 
L 342.957396 280.988961 
L 343.910298 279.789568 
L 344.386749 279.656302 
L 344.863199 279.123239 
L 345.33965 278.323644 
L 345.816101 278.323644 
L 346.292552 277.79058 
L 346.769003 277.923846 
L 347.245453 278.590175 
L 348.198355 277.257517 
L 348.674806 280.322631 
L 349.151256 279.656302 
L 349.627707 279.523036 
L 350.104158 278.723441 
L 351.057059 278.723441 
L 351.53351 276.990985 
L 352.009961 281.122226 
L 352.486412 275.391795 
L 353.439313 274.858731 
L 353.915764 283.920809 
L 354.392215 274.858731 
L 354.868665 274.858731 
L 355.345116 273.925871 
L 355.821567 273.925871 
L 356.298018 273.659339 
L 356.774468 274.325668 
L 357.250919 276.990985 
L 358.680271 276.990985 
L 359.156722 277.124251 
L 359.633173 276.990985 
L 360.109624 274.858731 
L 360.586074 274.858731 
L 361.062525 276.058124 
L 361.538976 275.125263 
L 362.015427 277.124251 
L 362.491878 276.990985 
L 362.968328 276.990985 
L 363.92123 278.190378 
L 364.397681 279.38977 
L 364.874131 279.789568 
L 365.350582 281.921821 
L 365.827033 283.387746 
L 366.303484 283.787543 
L 366.779934 285.253468 
L 367.256385 285.519999 
L 367.732836 286.186329 
L 368.209287 284.587138 
L 368.685737 285.519999 
L 369.162188 285.519999 
L 369.638639 284.587138 
L 370.11509 283.387746 
L 370.59154 287.518987 
L 371.544442 286.852658 
L 372.020893 287.518987 
L 372.497343 287.652253 
L 372.973794 288.052051 
L 373.450245 291.117165 
L 373.926696 291.117165 
L 374.403146 291.250431 
L 374.879597 291.783494 
L 375.832499 291.783494 
L 376.308949 290.450836 
L 376.7854 289.517975 
L 377.261851 290.584102 
L 377.738302 291.117165 
L 378.214753 291.383697 
L 378.691203 290.450836 
L 379.167654 291.783494 
L 418.713067 291.783494 
L 419.110109 291.250431 
L 419.58656 291.117165 
L 419.983602 291.650228 
L 420.777687 289.917772 
L 421.174729 289.784507 
L 421.492363 291.783494 
L 423.318758 291.783494 
L 423.7158 289.784507 
L 424.033434 289.118177 
L 424.351068 288.984911 
L 424.668701 288.585114 
L 424.986335 288.851646 
L 425.303969 288.185316 
L 425.621603 288.185316 
L 425.859828 291.783494 
L 427.209772 291.783494 
L 427.447997 287.785519 
L 427.686223 291.783494 
L 427.924448 286.053063 
L 428.162674 286.985924 
L 428.400899 286.319594 
L 428.639124 286.852658 
L 428.797941 285.653265 
L 429.036167 291.783494 
L 429.750843 291.783494 
L 429.90966 290.717368 
L 430.068477 285.519999 
L 430.227294 285.253468 
L 430.38611 282.854682 
L 430.465519 285.253468 
L 430.624336 285.386734 
L 430.783153 285.120202 
L 430.862561 291.383697 
L 430.94197 289.251443 
L 431.100787 291.250431 
L 431.180195 291.117165 
L 431.259604 290.983899 
L 431.339012 290.450836 
L 431.497829 283.387746 
L 431.577237 283.654278 
L 431.736054 282.987948 
L 431.815463 289.917772 
L 431.894871 289.784507 
L 431.97428 289.784507 
L 431.97428 289.784507 
L 431.97428 281.921821 
L 432.053688 282.588151 
L 432.133097 289.651241 
L 432.133097 279.922834 
L 432.133097 281.255492 
" clip-path="url(#p4d0109562d)" style="fill: none; stroke: #2ca02c; stroke-width: 1.5; stroke-linecap: square"/>
   </g>
   <g id="line2d_30">
    <path d="M 74.795028 110.408673 
L 74.79506 109.742344 
L 74.882219 113.07399 
L 74.90223 110.541939 
L 75.049135 112.807459 
L 75.089157 112.540927 
L 75.291331 114.539915 
L 75.35327 114.273383 
L 75.569737 116.672168 
L 75.741577 118.53789 
L 76.156883 121.869536 
L 76.827091 136.395514 
L 76.982731 136.262248 
L 77.315453 141.32635 
L 77.49174 147.323314 
L 77.675967 149.05577 
L 79.405484 197.831071 
L 80.171775 216.754821 
L 82.530206 260.199488 
L 83.529959 271.793617 
L 84.601973 279.922834 
L 85.340472 283.387746 
L 85.721632 284.320607 
L 86.110734 285.786531 
L 86.499835 286.45286 
L 86.896878 287.785519 
L 87.301861 287.918785 
L 87.714785 288.851646 
L 88.127709 289.118177 
L 88.540633 289.784507 
L 88.969438 289.784507 
L 89.82705 290.051038 
L 90.263796 290.051038 
L 90.700543 291.117165 
L 91.14523 290.983899 
L 91.589918 290.983899 
L 92.042546 291.117165 
L 92.495174 291.516963 
L 93.408371 290.983899 
L 93.86894 291.250431 
L 94.33745 291.250431 
L 94.798019 290.850633 
L 95.266529 291.650228 
L 96.203549 290.584102 
L 96.68 290.983899 
L 97.624961 290.983899 
L 98.101411 290.450836 
L 98.577862 290.584102 
L 99.054313 290.450836 
L 99.530764 290.717368 
L 100.007214 290.584102 
L 100.483665 290.584102 
L 100.960116 290.184304 
L 101.436567 290.184304 
L 101.913017 289.917772 
L 102.389468 289.917772 
L 102.865919 290.051038 
L 103.34237 290.051038 
L 103.81882 289.784507 
L 105.248173 289.784507 
L 105.724623 289.384709 
L 106.201074 289.651241 
L 107.153976 289.384709 
L 107.630426 289.118177 
L 108.106877 289.118177 
L 108.583328 288.851646 
L 109.059779 288.984911 
L 109.536229 288.851646 
L 110.01268 288.052051 
L 110.489131 288.318582 
L 111.442033 287.785519 
L 111.918483 287.785519 
L 112.394934 287.518987 
L 112.871385 287.518987 
L 113.347836 287.252455 
L 113.824286 287.518987 
L 114.300737 286.985924 
L 114.777188 286.719392 
L 115.253639 286.719392 
L 116.20654 285.653265 
L 116.682991 285.519999 
L 118.112343 285.519999 
L 118.588794 285.253468 
L 119.541695 284.587138 
L 120.018146 284.720404 
L 120.494597 284.054075 
L 120.971048 283.920809 
L 121.447498 283.521012 
L 122.4004 283.25448 
L 122.876851 282.987948 
L 123.829752 282.721417 
L 124.306203 281.921821 
L 124.782654 282.055087 
L 125.259104 281.522024 
L 125.735555 281.255492 
L 126.212006 281.255492 
L 126.688457 280.988961 
L 127.164908 280.589163 
L 127.641358 279.922834 
L 130.023612 277.79058 
L 130.500063 277.124251 
L 130.976514 276.990985 
L 131.929415 276.19139 
L 132.405866 276.058124 
L 132.882317 275.125263 
L 133.835218 274.5922 
L 134.311669 273.792605 
L 134.78812 273.659339 
L 136.217472 272.193414 
L 136.693923 271.260554 
L 138.123275 269.927895 
L 139.076176 268.461971 
L 139.552627 268.195439 
L 140.505529 266.462983 
L 141.45843 265.530122 
L 141.934881 264.197464 
L 142.411332 263.6644 
L 143.840684 261.398881 
L 144.317135 260.199488 
L 144.793586 259.666425 
L 146.699389 255.668449 
L 147.175839 255.268652 
L 147.65229 254.069259 
L 148.605192 252.869866 
L 149.081642 251.403942 
L 150.034544 249.671486 
L 150.510995 248.472093 
L 150.987445 248.072296 
L 152.893248 244.207586 
L 153.369699 242.874928 
L 153.84615 242.608396 
L 154.362305 240.87594 
L 154.838756 240.342876 
L 155.315206 238.743686 
L 155.791657 238.343889 
L 157.221009 234.479179 
L 157.69746 233.546318 
L 160.079714 227.416089 
L 161.509066 221.818923 
L 161.985517 220.619531 
L 162.461968 218.354011 
L 163.414869 215.955226 
L 163.89132 213.423175 
L 164.367771 212.357048 
L 165.797123 205.827022 
L 166.273574 204.227831 
L 168.179377 195.432285 
L 169.132278 191.567576 
L 169.608729 188.635727 
L 170.08518 186.503473 
L 170.561631 183.704891 
L 171.514532 179.040586 
L 174.849687 163.18195 
L 175.326138 160.116835 
L 175.802589 158.117847 
L 176.27904 155.585796 
L 176.755491 151.987618 
L 177.708392 146.923516 
L 178.661294 140.526755 
L 180.090646 132.131007 
L 180.567097 132.131007 
L 181.44059 126.400575 
L 181.91704 125.734246 
L 182.393491 127.466702 
L 182.869942 127.333436 
L 183.822843 132.930602 
L 184.775745 145.324326 
L 185.728646 161.849291 
L 187.634449 205.427224 
L 189.540253 249.138423 
L 190.493154 264.863793 
L 190.969605 271.793617 
L 191.922506 280.455897 
L 192.875408 284.85367 
L 193.351859 285.919797 
L 193.828309 287.385721 
L 194.781211 289.251443 
L 195.257662 289.784507 
L 195.734112 289.917772 
L 196.210563 289.917772 
L 197.163465 290.450836 
L 197.639915 290.450836 
L 198.592817 290.717368 
L 199.069268 290.584102 
L 199.545718 290.584102 
L 200.022169 290.184304 
L 200.49862 290.051038 
L 200.975071 290.184304 
L 201.451521 289.784507 
L 201.927972 289.917772 
L 202.404423 289.784507 
L 202.880874 289.784507 
L 203.357324 289.384709 
L 203.833775 289.517975 
L 204.310226 289.251443 
L 204.786677 288.451848 
L 205.263128 288.451848 
L 205.739578 288.318582 
L 206.216029 288.585114 
L 207.645381 287.785519 
L 208.121832 287.652253 
L 209.074734 287.652253 
L 209.551184 286.985924 
L 210.027635 286.985924 
L 210.504086 286.586126 
L 210.980537 286.45286 
L 211.933438 285.919797 
L 212.409889 285.786531 
L 212.88634 285.519999 
L 213.839241 285.519999 
L 214.315692 285.120202 
L 214.792143 285.253468 
L 215.268593 284.85367 
L 215.745044 285.253468 
L 216.221495 284.187341 
L 216.697946 284.054075 
L 217.174396 284.320607 
L 217.650847 283.787543 
L 218.127298 283.521012 
L 218.603749 283.387746 
L 219.55665 283.387746 
L 220.033101 282.987948 
L 220.509552 283.121214 
L 220.986003 282.721417 
L 221.462453 282.055087 
L 221.938904 282.454885 
L 222.415355 281.65529 
L 222.891806 281.388758 
L 223.368256 281.255492 
L 223.844707 281.255492 
L 225.274059 280.0561 
L 225.75051 280.0561 
L 226.226961 279.38977 
L 229.085665 276.990985 
L 229.562116 276.990985 
L 230.991468 275.125263 
L 231.467919 274.858731 
L 231.94437 274.458934 
L 232.897271 273.126275 
L 233.373722 272.726478 
L 233.850173 272.593212 
L 234.326624 272.060149 
L 235.279525 270.460958 
L 236.232427 269.261566 
L 236.708878 268.461971 
L 237.185328 268.461971 
L 238.614681 265.92992 
L 239.567582 264.997059 
L 241.473385 261.798678 
L 241.949836 261.265615 
L 242.426287 260.332754 
L 242.902737 259.79969 
L 243.379188 259.000095 
L 243.855639 257.933969 
L 244.33209 257.400905 
L 246.237893 254.335791 
L 246.714343 253.136398 
L 247.667245 251.937005 
L 248.143696 251.270676 
L 248.620146 250.071283 
L 249.573048 248.472093 
L 250.049499 247.272701 
L 250.525949 247.139435 
L 251.0024 245.67351 
L 252.908203 241.942067 
L 253.384654 241.409003 
L 253.861105 240.076345 
L 254.337556 239.410016 
L 254.814006 237.944091 
L 255.290457 236.877964 
L 255.766908 234.745711 
L 256.243359 234.345913 
L 256.719809 233.013255 
L 257.19626 232.080394 
L 258.149162 229.814874 
L 259.102063 226.483228 
L 259.578514 225.15057 
L 260.054965 222.88505 
L 261.007866 219.68667 
L 262.913669 213.156643 
L 264.343021 207.15968 
L 264.819472 205.160692 
L 265.295923 203.694768 
L 265.772374 200.629653 
L 266.248824 199.696792 
L 266.725275 196.764944 
L 267.201726 194.765956 
L 271.966234 168.512584 
L 272.442684 166.113798 
L 273.395586 162.382355 
L 273.872037 159.850304 
L 274.824938 156.651923 
L 275.301389 155.585796 
L 275.77784 152.520682 
L 276.25429 150.788226 
L 277.207192 145.457592 
L 277.683643 144.791263 
L 278.636544 138.394502 
L 280.065896 131.997741 
L 280.542347 127.466702 
L 281.018798 124.135056 
L 281.495249 122.935663 
L 281.971699 122.535866 
L 282.44815 121.203207 
L 282.924601 120.670144 
L 283.877503 117.471763 
L 284.353953 116.139105 
L 284.830404 115.33951 
L 285.306855 115.472776 
L 285.783306 116.805434 
L 286.259756 119.470751 
L 287.212658 132.797336 
L 288.165559 153.720074 
L 291.024264 231.280799 
L 291.977165 250.737613 
L 292.453616 259.533159 
L 293.406518 272.32668 
L 293.882968 276.990985 
L 294.359419 280.322631 
L 295.312321 284.587138 
L 295.788771 285.519999 
L 296.265222 286.719392 
L 296.741673 287.385721 
L 297.218124 288.318582 
L 297.694574 288.451848 
L 298.171025 289.251443 
L 298.647476 289.384709 
L 299.123927 289.384709 
L 299.600378 289.251443 
L 300.076828 289.251443 
L 300.553279 289.384709 
L 301.02973 289.384709 
L 301.506181 288.984911 
L 301.982631 289.118177 
L 302.459082 288.851646 
L 302.935533 288.451848 
L 303.411984 288.851646 
L 303.888434 288.318582 
L 304.841336 287.785519 
L 305.317787 287.785519 
L 305.794237 287.518987 
L 306.270688 287.385721 
L 306.747139 287.385721 
L 307.22359 287.252455 
L 307.70004 286.852658 
L 308.176491 287.252455 
L 308.652942 286.852658 
L 309.129393 286.719392 
L 309.605843 286.319594 
L 310.082294 286.45286 
L 310.558745 286.186329 
L 311.035196 286.45286 
L 311.988097 285.919797 
L 312.464548 285.786531 
L 312.940999 285.786531 
L 313.417449 285.519999 
L 313.8939 285.653265 
L 314.370351 285.519999 
L 314.846802 285.519999 
L 315.323253 285.253468 
L 315.799703 285.120202 
L 316.752605 284.320607 
L 317.229056 284.587138 
L 317.705506 284.054075 
L 318.181957 283.787543 
L 318.658408 283.654278 
L 319.134859 283.387746 
L 319.611309 283.387746 
L 320.08776 282.987948 
L 321.040662 282.987948 
L 321.993563 282.055087 
L 322.470014 281.788556 
L 322.946465 281.921821 
L 323.422915 281.255492 
L 323.899366 281.255492 
L 324.375817 280.988961 
L 324.852268 280.589163 
L 325.328718 280.455897 
L 325.805169 280.189365 
L 326.28162 279.523036 
L 326.758071 279.38977 
L 327.710972 278.856707 
L 328.663874 278.190378 
L 329.140324 277.390783 
L 329.616775 277.390783 
L 331.046128 276.324656 
L 331.522578 276.058124 
L 331.999029 275.258529 
L 333.428381 273.925871 
L 333.904832 273.126275 
L 334.381283 272.593212 
L 334.857734 272.32668 
L 335.334184 271.793617 
L 335.810635 270.860756 
L 336.287086 270.594224 
L 337.716438 268.461971 
L 338.192889 268.461971 
L 338.66934 267.662376 
L 339.14579 266.596249 
L 340.098692 266.063185 
L 341.528044 264.197464 
L 342.004495 264.064198 
L 342.957396 262.731539 
L 343.910298 262.198476 
L 344.386749 261.132349 
L 345.33965 259.932956 
L 345.816101 259.399893 
L 347.721904 256.334778 
L 348.198355 255.668449 
L 348.674806 255.268652 
L 350.104158 252.203537 
L 350.580609 251.403942 
L 351.057059 251.270676 
L 352.009961 248.871891 
L 352.486412 247.93903 
L 352.962862 247.672498 
L 354.392215 243.941054 
L 357.72737 236.611433 
L 358.203821 234.878977 
L 358.680271 233.946116 
L 359.156722 232.346926 
L 359.633173 231.414065 
L 360.109624 230.747735 
L 360.586074 228.34895 
L 361.062525 227.549355 
L 362.015427 224.084443 
L 362.491878 221.685658 
L 362.968328 220.086467 
L 363.444779 217.820948 
L 364.397681 214.622568 
L 364.874131 213.023377 
L 365.350582 210.624592 
L 365.827033 209.158668 
L 367.256385 203.028439 
L 367.732836 201.429249 
L 368.685737 195.965349 
L 369.162188 193.433298 
L 369.638639 191.567576 
L 370.11509 188.369195 
L 370.59154 187.036537 
L 371.067991 183.571625 
L 371.544442 181.972435 
L 372.020893 179.173852 
L 372.497343 177.707927 
L 372.973794 178.90732 
L 373.450245 174.509547 
L 373.926696 172.777091 
L 374.403146 170.511571 
L 374.879597 169.445445 
L 376.308949 164.647874 
L 376.7854 162.249089 
L 377.261851 161.449494 
L 377.738302 159.583772 
L 378.691203 154.919467 
L 379.167654 153.320277 
L 379.644105 151.321289 
L 380.597006 146.523719 
L 382.97926 135.862451 
L 384.408612 127.733234 
L 384.885063 125.201183 
L 386.314415 120.003815 
L 386.790866 119.204219 
L 387.267317 119.470751 
L 387.743768 119.604017 
L 388.220218 121.603005 
L 389.17312 131.997741 
L 390.126021 149.855365 
L 392.031824 198.4974 
L 393.937628 250.870879 
L 394.890529 268.861768 
L 395.36698 276.591187 
L 396.319881 287.385721 
L 396.796332 290.051038 
L 397.272783 291.783494 
L 414.822052 291.783494 
L 415.219095 291.650228 
L 415.695545 291.250431 
L 416.171996 291.783494 
L 417.918982 291.783494 
L 418.316025 291.516963 
L 418.713067 291.650228 
L 419.110109 290.983899 
L 419.58656 291.117165 
L 419.983602 290.717368 
L 420.380645 290.850633 
L 420.777687 290.051038 
L 421.174729 289.784507 
L 421.492363 289.784507 
L 421.889405 291.250431 
L 422.286448 290.450836 
L 422.604081 290.184304 
L 423.001124 290.051038 
L 423.318758 290.184304 
L 424.033434 289.384709 
L 424.351068 288.851646 
L 424.668701 288.851646 
L 424.986335 288.185316 
L 425.859828 287.385721 
L 426.177462 288.185316 
L 426.733321 286.319594 
L 426.971547 286.319594 
L 427.209772 286.852658 
L 427.447997 286.053063 
L 427.686223 284.85367 
L 427.924448 284.85367 
L 428.162674 284.453873 
L 428.400899 284.720404 
L 428.639124 285.253468 
L 428.797941 285.253468 
L 429.036167 284.85367 
L 429.194984 284.85367 
L 429.433209 284.320607 
L 429.592026 283.387746 
L 429.750843 283.387746 
L 430.068477 281.921821 
L 430.38611 282.987948 
L 430.465519 281.788556 
L 430.624336 281.522024 
L 430.862561 281.788556 
L 430.94197 282.055087 
L 431.100787 282.055087 
L 431.259604 281.255492 
L 431.41842 281.522024 
L 431.497829 281.522024 
L 431.656646 281.255492 
L 431.656646 281.255492 
L 431.736054 281.122226 
L 431.815463 281.255492 
L 431.815463 281.122226 
L 431.894871 280.589163 
L 431.894871 280.855695 
L 432.053688 281.522024 
L 432.053688 281.388758 
L 432.133097 282.188353 
L 432.133097 281.255492 
L 432.133097 278.856707 
L 432.133097 279.123239 
" clip-path="url(#p4d0109562d)" style="fill: none; stroke: #d62728; stroke-width: 1.5; stroke-linecap: square"/>
   </g>
   <g id="patch_3">
    <path d="M 56.928125 304.44375 
L 56.928125 25.918125 
" style="fill: none; stroke: #000000; stroke-width: 0.8; stroke-linejoin: miter; stroke-linecap: square"/>
   </g>
   <g id="patch_4">
    <path d="M 450 304.44375 
L 450 25.918125 
" style="fill: none; stroke: #000000; stroke-width: 0.8; stroke-linejoin: miter; stroke-linecap: square"/>
   </g>
   <g id="patch_5">
    <path d="M 56.928125 304.44375 
L 450 304.44375 
" style="fill: none; stroke: #000000; stroke-width: 0.8; stroke-linejoin: miter; stroke-linecap: square"/>
   </g>
   <g id="patch_6">
    <path d="M 56.928125 25.918125 
L 450 25.918125 
" style="fill: none; stroke: #000000; stroke-width: 0.8; stroke-linejoin: miter; stroke-linecap: square"/>
   </g>
   <g id="text_16">
    <!-- Reflector Raw Value -->
    <g transform="translate(193.704062 19.918125)scale(0.12 -0.12)">
     <use xlink:href="#DejaVuSans-52"/>
     <use xlink:href="#DejaVuSans-65" x="64.982422"/>
     <use xlink:href="#DejaVuSans-66" x="126.505859"/>
     <use xlink:href="#DejaVuSans-6c" x="161.710938"/>
     <use xlink:href="#DejaVuSans-65" x="189.494141"/>
     <use xlink:href="#DejaVuSans-63" x="251.017578"/>
     <use xlink:href="#DejaVuSans-74" x="305.998047"/>
     <use xlink:href="#DejaVuSans-6f" x="345.207031"/>
     <use xlink:href="#DejaVuSans-72" x="406.388672"/>
     <use xlink:href="#DejaVuSans-20" x="447.501953"/>
     <use xlink:href="#DejaVuSans-52" x="479.289062"/>
     <use xlink:href="#DejaVuSans-61" x="546.521484"/>
     <use xlink:href="#DejaVuSans-77" x="607.800781"/>
     <use xlink:href="#DejaVuSans-20" x="689.587891"/>
     <use xlink:href="#DejaVuSans-56" x="721.375"/>
     <use xlink:href="#DejaVuSans-61" x="782.033203"/>
     <use xlink:href="#DejaVuSans-6c" x="843.3125"/>
     <use xlink:href="#DejaVuSans-75" x="871.095703"/>
     <use xlink:href="#DejaVuSans-65" x="934.474609"/>
    </g>
   </g>
   <g id="legend_1">
    <g id="patch_7">
     <path d="M 63.928125 92.630625 
L 150.728125 92.630625 
Q 152.728125 92.630625 152.728125 90.630625 
L 152.728125 32.918125 
Q 152.728125 30.918125 150.728125 30.918125 
L 63.928125 30.918125 
Q 61.928125 30.918125 61.928125 32.918125 
L 61.928125 90.630625 
Q 61.928125 92.630625 63.928125 92.630625 
z
" style="fill: #ffffff; opacity: 0.8; stroke: #cccccc; stroke-linejoin: miter"/>
    </g>
    <g id="line2d_31">
     <path d="M 65.928125 39.016562 
L 75.928125 39.016562 
L 85.928125 39.016562 
" style="fill: none; stroke: #1f77b4; stroke-width: 1.5; stroke-linecap: square"/>
    </g>
    <g id="text_17">
     <!-- Left Side -->
     <g transform="translate(93.928125 42.516562)scale(0.1 -0.1)">
      <defs>
       <path id="DejaVuSans-4c" d="M 628 4666 
L 1259 4666 
L 1259 531 
L 3531 531 
L 3531 0 
L 628 0 
L 628 4666 
z
" transform="scale(0.015625)"/>
       <path id="DejaVuSans-53" d="M 3425 4513 
L 3425 3897 
Q 3066 4069 2747 4153 
Q 2428 4238 2131 4238 
Q 1616 4238 1336 4038 
Q 1056 3838 1056 3469 
Q 1056 3159 1242 3001 
Q 1428 2844 1947 2747 
L 2328 2669 
Q 3034 2534 3370 2195 
Q 3706 1856 3706 1288 
Q 3706 609 3251 259 
Q 2797 -91 1919 -91 
Q 1588 -91 1214 -16 
Q 841 59 441 206 
L 441 856 
Q 825 641 1194 531 
Q 1563 422 1919 422 
Q 2459 422 2753 634 
Q 3047 847 3047 1241 
Q 3047 1584 2836 1778 
Q 2625 1972 2144 2069 
L 1759 2144 
Q 1053 2284 737 2584 
Q 422 2884 422 3419 
Q 422 4038 858 4394 
Q 1294 4750 2059 4750 
Q 2388 4750 2728 4690 
Q 3069 4631 3425 4513 
z
" transform="scale(0.015625)"/>
       <path id="DejaVuSans-64" d="M 2906 2969 
L 2906 4863 
L 3481 4863 
L 3481 0 
L 2906 0 
L 2906 525 
Q 2725 213 2448 61 
Q 2172 -91 1784 -91 
Q 1150 -91 751 415 
Q 353 922 353 1747 
Q 353 2572 751 3078 
Q 1150 3584 1784 3584 
Q 2172 3584 2448 3432 
Q 2725 3281 2906 2969 
z
M 947 1747 
Q 947 1113 1208 752 
Q 1469 391 1925 391 
Q 2381 391 2643 752 
Q 2906 1113 2906 1747 
Q 2906 2381 2643 2742 
Q 2381 3103 1925 3103 
Q 1469 3103 1208 2742 
Q 947 2381 947 1747 
z
" transform="scale(0.015625)"/>
      </defs>
      <use xlink:href="#DejaVuSans-4c"/>
      <use xlink:href="#DejaVuSans-65" x="53.962891"/>
      <use xlink:href="#DejaVuSans-66" x="115.486328"/>
      <use xlink:href="#DejaVuSans-74" x="148.941406"/>
      <use xlink:href="#DejaVuSans-20" x="188.150391"/>
      <use xlink:href="#DejaVuSans-53" x="219.9375"/>
      <use xlink:href="#DejaVuSans-69" x="283.414062"/>
      <use xlink:href="#DejaVuSans-64" x="311.197266"/>
      <use xlink:href="#DejaVuSans-65" x="374.673828"/>
     </g>
    </g>
    <g id="line2d_32">
     <path d="M 65.928125 53.694687 
L 75.928125 53.694687 
L 85.928125 53.694687 
" style="fill: none; stroke: #ff7f0e; stroke-width: 1.5; stroke-linecap: square"/>
    </g>
    <g id="text_18">
     <!-- Left Front -->
     <g transform="translate(93.928125 57.194687)scale(0.1 -0.1)">
      <defs>
       <path id="DejaVuSans-46" d="M 628 4666 
L 3309 4666 
L 3309 4134 
L 1259 4134 
L 1259 2759 
L 3109 2759 
L 3109 2228 
L 1259 2228 
L 1259 0 
L 628 0 
L 628 4666 
z
" transform="scale(0.015625)"/>
      </defs>
      <use xlink:href="#DejaVuSans-4c"/>
      <use xlink:href="#DejaVuSans-65" x="53.962891"/>
      <use xlink:href="#DejaVuSans-66" x="115.486328"/>
      <use xlink:href="#DejaVuSans-74" x="148.941406"/>
      <use xlink:href="#DejaVuSans-20" x="188.150391"/>
      <use xlink:href="#DejaVuSans-46" x="219.9375"/>
      <use xlink:href="#DejaVuSans-72" x="270.207031"/>
      <use xlink:href="#DejaVuSans-6f" x="309.070312"/>
      <use xlink:href="#DejaVuSans-6e" x="370.251953"/>
      <use xlink:href="#DejaVuSans-74" x="433.630859"/>
     </g>
    </g>
    <g id="line2d_33">
     <path d="M 65.928125 68.372812 
L 75.928125 68.372812 
L 85.928125 68.372812 
" style="fill: none; stroke: #2ca02c; stroke-width: 1.5; stroke-linecap: square"/>
    </g>
    <g id="text_19">
     <!-- Right Front -->
     <g transform="translate(93.928125 71.872812)scale(0.1 -0.1)">
      <defs>
       <path id="DejaVuSans-67" d="M 2906 1791 
Q 2906 2416 2648 2759 
Q 2391 3103 1925 3103 
Q 1463 3103 1205 2759 
Q 947 2416 947 1791 
Q 947 1169 1205 825 
Q 1463 481 1925 481 
Q 2391 481 2648 825 
Q 2906 1169 2906 1791 
z
M 3481 434 
Q 3481 -459 3084 -895 
Q 2688 -1331 1869 -1331 
Q 1566 -1331 1297 -1286 
Q 1028 -1241 775 -1147 
L 775 -588 
Q 1028 -725 1275 -790 
Q 1522 -856 1778 -856 
Q 2344 -856 2625 -561 
Q 2906 -266 2906 331 
L 2906 616 
Q 2728 306 2450 153 
Q 2172 0 1784 0 
Q 1141 0 747 490 
Q 353 981 353 1791 
Q 353 2603 747 3093 
Q 1141 3584 1784 3584 
Q 2172 3584 2450 3431 
Q 2728 3278 2906 2969 
L 2906 3500 
L 3481 3500 
L 3481 434 
z
" transform="scale(0.015625)"/>
       <path id="DejaVuSans-68" d="M 3513 2113 
L 3513 0 
L 2938 0 
L 2938 2094 
Q 2938 2591 2744 2837 
Q 2550 3084 2163 3084 
Q 1697 3084 1428 2787 
Q 1159 2491 1159 1978 
L 1159 0 
L 581 0 
L 581 4863 
L 1159 4863 
L 1159 2956 
Q 1366 3272 1645 3428 
Q 1925 3584 2291 3584 
Q 2894 3584 3203 3211 
Q 3513 2838 3513 2113 
z
" transform="scale(0.015625)"/>
      </defs>
      <use xlink:href="#DejaVuSans-52"/>
      <use xlink:href="#DejaVuSans-69" x="69.482422"/>
      <use xlink:href="#DejaVuSans-67" x="97.265625"/>
      <use xlink:href="#DejaVuSans-68" x="160.742188"/>
      <use xlink:href="#DejaVuSans-74" x="224.121094"/>
      <use xlink:href="#DejaVuSans-20" x="263.330078"/>
      <use xlink:href="#DejaVuSans-46" x="295.117188"/>
      <use xlink:href="#DejaVuSans-72" x="345.386719"/>
      <use xlink:href="#DejaVuSans-6f" x="384.25"/>
      <use xlink:href="#DejaVuSans-6e" x="445.431641"/>
      <use xlink:href="#DejaVuSans-74" x="508.810547"/>
     </g>
    </g>
    <g id="line2d_34">
     <path d="M 65.928125 83.050937 
L 75.928125 83.050937 
L 85.928125 83.050937 
" style="fill: none; stroke: #d62728; stroke-width: 1.5; stroke-linecap: square"/>
    </g>
    <g id="text_20">
     <!-- Right Side -->
     <g transform="translate(93.928125 86.550937)scale(0.1 -0.1)">
      <use xlink:href="#DejaVuSans-52"/>
      <use xlink:href="#DejaVuSans-69" x="69.482422"/>
      <use xlink:href="#DejaVuSans-67" x="97.265625"/>
      <use xlink:href="#DejaVuSans-68" x="160.742188"/>
      <use xlink:href="#DejaVuSans-74" x="224.121094"/>
      <use xlink:href="#DejaVuSans-20" x="263.330078"/>
      <use xlink:href="#DejaVuSans-53" x="295.117188"/>
      <use xlink:href="#DejaVuSans-69" x="358.59375"/>
      <use xlink:href="#DejaVuSans-64" x="386.376953"/>
      <use xlink:href="#DejaVuSans-65" x="449.853516"/>
     </g>
    </g>
   </g>
  </g>
 </g>
 <defs>
  <clipPath id="p4d0109562d">
   <rect x="56.928125" y="25.918125" width="393.071875" height="278.525625"/>
  </clipPath>
 </defs>
</svg>
