<?xml version="1.0" encoding="utf-8" standalone="no"?>
<!DOCTYPE svg PUBLIC "-//W3C//DTD SVG 1.1//EN"
  "http://www.w3.org/Graphics/SVG/1.1/DTD/svg11.dtd">
<svg xmlns:xlink="http://www.w3.org/1999/xlink" width="460.8pt" height="345.6pt" viewBox="0 0 460.8 345.6" xmlns="http://www.w3.org/2000/svg" version="1.1">
 <metadata>
  <rdf:RDF xmlns:dc="http://purl.org/dc/elements/1.1/" xmlns:cc="http://creativecommons.org/ns#" xmlns:rdf="http://www.w3.org/1999/02/22-rdf-syntax-ns#">
   <cc:Work>
    <dc:type rdf:resource="http://purl.org/dc/dcmitype/StillImage"/>
    <dc:date>2022-01-15T23:46:46.269324</dc:date>
    <dc:format>image/svg+xml</dc:format>
    <dc:creator>
     <cc:Agent>
      <dc:title>Matplotlib v3.5.1, https://matplotlib.org/</dc:title>
     </cc:Agent>
    </dc:creator>
   </cc:Work>
  </rdf:RDF>
 </metadata>
 <defs>
  <style type="text/css">*{stroke-linejoin: round; stroke-linecap: butt}</style>
 </defs>
 <g id="figure_1">
  <g id="patch_1">
   <path d="M 0 345.6 
L 460.8 345.6 
L 460.8 0 
L 0 0 
z
" style="fill: #ffffff"/>
  </g>
  <g id="axes_1">
   <g id="patch_2">
    <path d="M 50.565625 161.67875 
L 450 161.67875 
L 450 33.21375 
L 50.565625 33.21375 
z
" style="fill: #ffffff"/>
   </g>
   <g id="matplotlib.axis_1">
    <g id="xtick_1">
     <g id="line2d_1">
      <path d="M 68.721733 161.67875 
L 68.721733 33.21375 
" clip-path="url(#p83dd123322)" style="fill: none; stroke: #b0b0b0; stroke-width: 0.8; stroke-linecap: square"/>
     </g>
     <g id="line2d_2">
      <defs>
       <path id="mc51b788318" d="M 0 0 
L 0 3.5 
" style="stroke: #000000; stroke-width: 0.8"/>
      </defs>
      <g>
       <use xlink:href="#mc51b788318" x="68.721733" y="161.67875" style="stroke: #000000; stroke-width: 0.8"/>
      </g>
     </g>
    </g>
    <g id="xtick_2">
     <g id="line2d_3">
      <path d="M 124.244999 161.67875 
L 124.244999 33.21375 
" clip-path="url(#p83dd123322)" style="fill: none; stroke: #b0b0b0; stroke-width: 0.8; stroke-linecap: square"/>
     </g>
     <g id="line2d_4">
      <g>
       <use xlink:href="#mc51b788318" x="124.244999" y="161.67875" style="stroke: #000000; stroke-width: 0.8"/>
      </g>
     </g>
    </g>
    <g id="xtick_3">
     <g id="line2d_5">
      <path d="M 179.768265 161.67875 
L 179.768265 33.21375 
" clip-path="url(#p83dd123322)" style="fill: none; stroke: #b0b0b0; stroke-width: 0.8; stroke-linecap: square"/>
     </g>
     <g id="line2d_6">
      <g>
       <use xlink:href="#mc51b788318" x="179.768265" y="161.67875" style="stroke: #000000; stroke-width: 0.8"/>
      </g>
     </g>
    </g>
    <g id="xtick_4">
     <g id="line2d_7">
      <path d="M 235.291531 161.67875 
L 235.291531 33.21375 
" clip-path="url(#p83dd123322)" style="fill: none; stroke: #b0b0b0; stroke-width: 0.8; stroke-linecap: square"/>
     </g>
     <g id="line2d_8">
      <g>
       <use xlink:href="#mc51b788318" x="235.291531" y="161.67875" style="stroke: #000000; stroke-width: 0.8"/>
      </g>
     </g>
    </g>
    <g id="xtick_5">
     <g id="line2d_9">
      <path d="M 290.814797 161.67875 
L 290.814797 33.21375 
" clip-path="url(#p83dd123322)" style="fill: none; stroke: #b0b0b0; stroke-width: 0.8; stroke-linecap: square"/>
     </g>
     <g id="line2d_10">
      <g>
       <use xlink:href="#mc51b788318" x="290.814797" y="161.67875" style="stroke: #000000; stroke-width: 0.8"/>
      </g>
     </g>
    </g>
    <g id="xtick_6">
     <g id="line2d_11">
      <path d="M 346.338063 161.67875 
L 346.338063 33.21375 
" clip-path="url(#p83dd123322)" style="fill: none; stroke: #b0b0b0; stroke-width: 0.8; stroke-linecap: square"/>
     </g>
     <g id="line2d_12">
      <g>
       <use xlink:href="#mc51b788318" x="346.338063" y="161.67875" style="stroke: #000000; stroke-width: 0.8"/>
      </g>
     </g>
    </g>
    <g id="xtick_7">
     <g id="line2d_13">
      <path d="M 401.861328 161.67875 
L 401.861328 33.21375 
" clip-path="url(#p83dd123322)" style="fill: none; stroke: #b0b0b0; stroke-width: 0.8; stroke-linecap: square"/>
     </g>
     <g id="line2d_14">
      <g>
       <use xlink:href="#mc51b788318" x="401.861328" y="161.67875" style="stroke: #000000; stroke-width: 0.8"/>
      </g>
     </g>
    </g>
   </g>
   <g id="matplotlib.axis_2">
    <g id="ytick_1">
     <g id="line2d_15">
      <path d="M 50.565625 153.223167 
L 450 153.223167 
" clip-path="url(#p83dd123322)" style="fill: none; stroke: #b0b0b0; stroke-width: 0.8; stroke-linecap: square"/>
     </g>
     <g id="line2d_16">
      <defs>
       <path id="m6cc481b9af" d="M 0 0 
L -3.5 0 
" style="stroke: #000000; stroke-width: 0.8"/>
      </defs>
      <g>
       <use xlink:href="#m6cc481b9af" x="50.565625" y="153.223167" style="stroke: #000000; stroke-width: 0.8"/>
      </g>
     </g>
     <g id="text_1">
      <!-- 0 -->
      <g transform="translate(37.203125 157.022386)scale(0.1 -0.1)">
       <defs>
        <path id="DejaVuSans-30" d="M 2034 4250 
Q 1547 4250 1301 3770 
Q 1056 3291 1056 2328 
Q 1056 1369 1301 889 
Q 1547 409 2034 409 
Q 2525 409 2770 889 
Q 3016 1369 3016 2328 
Q 3016 3291 2770 3770 
Q 2525 4250 2034 4250 
z
M 2034 4750 
Q 2819 4750 3233 4129 
Q 3647 3509 3647 2328 
Q 3647 1150 3233 529 
Q 2819 -91 2034 -91 
Q 1250 -91 836 529 
Q 422 1150 422 2328 
Q 422 3509 836 4129 
Q 1250 4750 2034 4750 
z
" transform="scale(0.015625)"/>
       </defs>
       <use xlink:href="#DejaVuSans-30"/>
      </g>
     </g>
    </g>
    <g id="ytick_2">
     <g id="line2d_17">
      <path d="M 50.565625 121.278539 
L 450 121.278539 
" clip-path="url(#p83dd123322)" style="fill: none; stroke: #b0b0b0; stroke-width: 0.8; stroke-linecap: square"/>
     </g>
     <g id="line2d_18">
      <g>
       <use xlink:href="#m6cc481b9af" x="50.565625" y="121.278539" style="stroke: #000000; stroke-width: 0.8"/>
      </g>
     </g>
     <g id="text_2">
      <!-- 200 -->
      <g transform="translate(24.478125 125.077758)scale(0.1 -0.1)">
       <defs>
        <path id="DejaVuSans-32" d="M 1228 531 
L 3431 531 
L 3431 0 
L 469 0 
L 469 531 
Q 828 903 1448 1529 
Q 2069 2156 2228 2338 
Q 2531 2678 2651 2914 
Q 2772 3150 2772 3378 
Q 2772 3750 2511 3984 
Q 2250 4219 1831 4219 
Q 1534 4219 1204 4116 
Q 875 4013 500 3803 
L 500 4441 
Q 881 4594 1212 4672 
Q 1544 4750 1819 4750 
Q 2544 4750 2975 4387 
Q 3406 4025 3406 3419 
Q 3406 3131 3298 2873 
Q 3191 2616 2906 2266 
Q 2828 2175 2409 1742 
Q 1991 1309 1228 531 
z
" transform="scale(0.015625)"/>
       </defs>
       <use xlink:href="#DejaVuSans-32"/>
       <use xlink:href="#DejaVuSans-30" x="63.623047"/>
       <use xlink:href="#DejaVuSans-30" x="127.246094"/>
      </g>
     </g>
    </g>
    <g id="ytick_3">
     <g id="line2d_19">
      <path d="M 50.565625 89.333912 
L 450 89.333912 
" clip-path="url(#p83dd123322)" style="fill: none; stroke: #b0b0b0; stroke-width: 0.8; stroke-linecap: square"/>
     </g>
     <g id="line2d_20">
      <g>
       <use xlink:href="#m6cc481b9af" x="50.565625" y="89.333912" style="stroke: #000000; stroke-width: 0.8"/>
      </g>
     </g>
     <g id="text_3">
      <!-- 400 -->
      <g transform="translate(24.478125 93.133131)scale(0.1 -0.1)">
       <defs>
        <path id="DejaVuSans-34" d="M 2419 4116 
L 825 1625 
L 2419 1625 
L 2419 4116 
z
M 2253 4666 
L 3047 4666 
L 3047 1625 
L 3713 1625 
L 3713 1100 
L 3047 1100 
L 3047 0 
L 2419 0 
L 2419 1100 
L 313 1100 
L 313 1709 
L 2253 4666 
z
" transform="scale(0.015625)"/>
       </defs>
       <use xlink:href="#DejaVuSans-34"/>
       <use xlink:href="#DejaVuSans-30" x="63.623047"/>
       <use xlink:href="#DejaVuSans-30" x="127.246094"/>
      </g>
     </g>
    </g>
    <g id="ytick_4">
     <g id="line2d_21">
      <path d="M 50.565625 57.389284 
L 450 57.389284 
" clip-path="url(#p83dd123322)" style="fill: none; stroke: #b0b0b0; stroke-width: 0.8; stroke-linecap: square"/>
     </g>
     <g id="line2d_22">
      <g>
       <use xlink:href="#m6cc481b9af" x="50.565625" y="57.389284" style="stroke: #000000; stroke-width: 0.8"/>
      </g>
     </g>
     <g id="text_4">
      <!-- 600 -->
      <g transform="translate(24.478125 61.188503)scale(0.1 -0.1)">
       <defs>
        <path id="DejaVuSans-36" d="M 2113 2584 
Q 1688 2584 1439 2293 
Q 1191 2003 1191 1497 
Q 1191 994 1439 701 
Q 1688 409 2113 409 
Q 2538 409 2786 701 
Q 3034 994 3034 1497 
Q 3034 2003 2786 2293 
Q 2538 2584 2113 2584 
z
M 3366 4563 
L 3366 3988 
Q 3128 4100 2886 4159 
Q 2644 4219 2406 4219 
Q 1781 4219 1451 3797 
Q 1122 3375 1075 2522 
Q 1259 2794 1537 2939 
Q 1816 3084 2150 3084 
Q 2853 3084 3261 2657 
Q 3669 2231 3669 1497 
Q 3669 778 3244 343 
Q 2819 -91 2113 -91 
Q 1303 -91 875 529 
Q 447 1150 447 2328 
Q 447 3434 972 4092 
Q 1497 4750 2381 4750 
Q 2619 4750 2861 4703 
Q 3103 4656 3366 4563 
z
" transform="scale(0.015625)"/>
       </defs>
       <use xlink:href="#DejaVuSans-36"/>
       <use xlink:href="#DejaVuSans-30" x="63.623047"/>
       <use xlink:href="#DejaVuSans-30" x="127.246094"/>
      </g>
     </g>
    </g>
    <g id="text_5">
     <!-- trans. vel. [mm/s] -->
     <g transform="translate(18.398438 142.011875)rotate(-90)scale(0.1 -0.1)">
      <defs>
       <path id="DejaVuSans-74" d="M 1172 4494 
L 1172 3500 
L 2356 3500 
L 2356 3053 
L 1172 3053 
L 1172 1153 
Q 1172 725 1289 603 
Q 1406 481 1766 481 
L 2356 481 
L 2356 0 
L 1766 0 
Q 1100 0 847 248 
Q 594 497 594 1153 
L 594 3053 
L 172 3053 
L 172 3500 
L 594 3500 
L 594 4494 
L 1172 4494 
z
" transform="scale(0.015625)"/>
       <path id="DejaVuSans-72" d="M 2631 2963 
Q 2534 3019 2420 3045 
Q 2306 3072 2169 3072 
Q 1681 3072 1420 2755 
Q 1159 2438 1159 1844 
L 1159 0 
L 581 0 
L 581 3500 
L 1159 3500 
L 1159 2956 
Q 1341 3275 1631 3429 
Q 1922 3584 2338 3584 
Q 2397 3584 2469 3576 
Q 2541 3569 2628 3553 
L 2631 2963 
z
" transform="scale(0.015625)"/>
       <path id="DejaVuSans-61" d="M 2194 1759 
Q 1497 1759 1228 1600 
Q 959 1441 959 1056 
Q 959 750 1161 570 
Q 1363 391 1709 391 
Q 2188 391 2477 730 
Q 2766 1069 2766 1631 
L 2766 1759 
L 2194 1759 
z
M 3341 1997 
L 3341 0 
L 2766 0 
L 2766 531 
Q 2569 213 2275 61 
Q 1981 -91 1556 -91 
Q 1019 -91 701 211 
Q 384 513 384 1019 
Q 384 1609 779 1909 
Q 1175 2209 1959 2209 
L 2766 2209 
L 2766 2266 
Q 2766 2663 2505 2880 
Q 2244 3097 1772 3097 
Q 1472 3097 1187 3025 
Q 903 2953 641 2809 
L 641 3341 
Q 956 3463 1253 3523 
Q 1550 3584 1831 3584 
Q 2591 3584 2966 3190 
Q 3341 2797 3341 1997 
z
" transform="scale(0.015625)"/>
       <path id="DejaVuSans-6e" d="M 3513 2113 
L 3513 0 
L 2938 0 
L 2938 2094 
Q 2938 2591 2744 2837 
Q 2550 3084 2163 3084 
Q 1697 3084 1428 2787 
Q 1159 2491 1159 1978 
L 1159 0 
L 581 0 
L 581 3500 
L 1159 3500 
L 1159 2956 
Q 1366 3272 1645 3428 
Q 1925 3584 2291 3584 
Q 2894 3584 3203 3211 
Q 3513 2838 3513 2113 
z
" transform="scale(0.015625)"/>
       <path id="DejaVuSans-73" d="M 2834 3397 
L 2834 2853 
Q 2591 2978 2328 3040 
Q 2066 3103 1784 3103 
Q 1356 3103 1142 2972 
Q 928 2841 928 2578 
Q 928 2378 1081 2264 
Q 1234 2150 1697 2047 
L 1894 2003 
Q 2506 1872 2764 1633 
Q 3022 1394 3022 966 
Q 3022 478 2636 193 
Q 2250 -91 1575 -91 
Q 1294 -91 989 -36 
Q 684 19 347 128 
L 347 722 
Q 666 556 975 473 
Q 1284 391 1588 391 
Q 1994 391 2212 530 
Q 2431 669 2431 922 
Q 2431 1156 2273 1281 
Q 2116 1406 1581 1522 
L 1381 1569 
Q 847 1681 609 1914 
Q 372 2147 372 2553 
Q 372 3047 722 3315 
Q 1072 3584 1716 3584 
Q 2034 3584 2315 3537 
Q 2597 3491 2834 3397 
z
" transform="scale(0.015625)"/>
       <path id="DejaVuSans-2e" d="M 684 794 
L 1344 794 
L 1344 0 
L 684 0 
L 684 794 
z
" transform="scale(0.015625)"/>
       <path id="DejaVuSans-20" transform="scale(0.015625)"/>
       <path id="DejaVuSans-76" d="M 191 3500 
L 800 3500 
L 1894 563 
L 2988 3500 
L 3597 3500 
L 2284 0 
L 1503 0 
L 191 3500 
z
" transform="scale(0.015625)"/>
       <path id="DejaVuSans-65" d="M 3597 1894 
L 3597 1613 
L 953 1613 
Q 991 1019 1311 708 
Q 1631 397 2203 397 
Q 2534 397 2845 478 
Q 3156 559 3463 722 
L 3463 178 
Q 3153 47 2828 -22 
Q 2503 -91 2169 -91 
Q 1331 -91 842 396 
Q 353 884 353 1716 
Q 353 2575 817 3079 
Q 1281 3584 2069 3584 
Q 2775 3584 3186 3129 
Q 3597 2675 3597 1894 
z
M 3022 2063 
Q 3016 2534 2758 2815 
Q 2500 3097 2075 3097 
Q 1594 3097 1305 2825 
Q 1016 2553 972 2059 
L 3022 2063 
z
" transform="scale(0.015625)"/>
       <path id="DejaVuSans-6c" d="M 603 4863 
L 1178 4863 
L 1178 0 
L 603 0 
L 603 4863 
z
" transform="scale(0.015625)"/>
       <path id="DejaVuSans-5b" d="M 550 4863 
L 1875 4863 
L 1875 4416 
L 1125 4416 
L 1125 -397 
L 1875 -397 
L 1875 -844 
L 550 -844 
L 550 4863 
z
" transform="scale(0.015625)"/>
       <path id="DejaVuSans-6d" d="M 3328 2828 
Q 3544 3216 3844 3400 
Q 4144 3584 4550 3584 
Q 5097 3584 5394 3201 
Q 5691 2819 5691 2113 
L 5691 0 
L 5113 0 
L 5113 2094 
Q 5113 2597 4934 2840 
Q 4756 3084 4391 3084 
Q 3944 3084 3684 2787 
Q 3425 2491 3425 1978 
L 3425 0 
L 2847 0 
L 2847 2094 
Q 2847 2600 2669 2842 
Q 2491 3084 2119 3084 
Q 1678 3084 1418 2786 
Q 1159 2488 1159 1978 
L 1159 0 
L 581 0 
L 581 3500 
L 1159 3500 
L 1159 2956 
Q 1356 3278 1631 3431 
Q 1906 3584 2284 3584 
Q 2666 3584 2933 3390 
Q 3200 3197 3328 2828 
z
" transform="scale(0.015625)"/>
       <path id="DejaVuSans-2f" d="M 1625 4666 
L 2156 4666 
L 531 -594 
L 0 -594 
L 1625 4666 
z
" transform="scale(0.015625)"/>
       <path id="DejaVuSans-5d" d="M 1947 4863 
L 1947 -844 
L 622 -844 
L 622 -397 
L 1369 -397 
L 1369 4416 
L 622 4416 
L 622 4863 
L 1947 4863 
z
" transform="scale(0.015625)"/>
      </defs>
      <use xlink:href="#DejaVuSans-74"/>
      <use xlink:href="#DejaVuSans-72" x="39.208984"/>
      <use xlink:href="#DejaVuSans-61" x="80.322266"/>
      <use xlink:href="#DejaVuSans-6e" x="141.601562"/>
      <use xlink:href="#DejaVuSans-73" x="204.980469"/>
      <use xlink:href="#DejaVuSans-2e" x="257.080078"/>
      <use xlink:href="#DejaVuSans-20" x="288.867188"/>
      <use xlink:href="#DejaVuSans-76" x="320.654297"/>
      <use xlink:href="#DejaVuSans-65" x="379.833984"/>
      <use xlink:href="#DejaVuSans-6c" x="441.357422"/>
      <use xlink:href="#DejaVuSans-2e" x="469.140625"/>
      <use xlink:href="#DejaVuSans-20" x="500.927734"/>
      <use xlink:href="#DejaVuSans-5b" x="532.714844"/>
      <use xlink:href="#DejaVuSans-6d" x="571.728516"/>
      <use xlink:href="#DejaVuSans-6d" x="669.140625"/>
      <use xlink:href="#DejaVuSans-2f" x="766.552734"/>
      <use xlink:href="#DejaVuSans-73" x="800.244141"/>
      <use xlink:href="#DejaVuSans-5d" x="852.34375"/>
     </g>
    </g>
   </g>
   <g id="line2d_23">
    <path d="M 68.721733 153.223167 
L 69.832198 153.1465 
L 70.942664 152.916498 
L 72.608362 152.283995 
L 74.27406 151.306489 
L 75.939758 149.983982 
L 77.605456 148.316472 
L 79.271153 146.303961 
L 80.936851 143.946447 
L 82.602549 141.243932 
L 84.268247 138.196414 
L 85.933945 134.807089 
L 88.154876 129.743866 
L 90.931039 122.684103 
L 107.588019 79.766496 
L 109.80895 74.831051 
L 112.02988 70.518526 
L 113.695578 67.675454 
L 115.361276 65.183773 
L 117.026974 63.043483 
L 118.692672 61.238612 
L 120.35837 59.785131 
L 122.024068 58.667069 
L 123.689766 57.900398 
L 125.355464 57.485118 
L 127.021162 57.389284 
L 319.686895 57.469146 
L 321.352593 57.868454 
L 322.463058 58.331651 
L 324.128756 59.305962 
L 325.794454 60.631664 
L 327.460152 62.292785 
L 329.12585 64.305296 
L 330.791548 66.669199 
L 332.457246 69.36852 
L 334.122944 72.419232 
L 335.788642 75.805362 
L 338.009573 80.868586 
L 340.785736 87.928348 
L 357.442716 130.845955 
L 359.663646 135.7814 
L 361.884577 140.097119 
L 363.550275 142.933802 
L 365.215973 145.425483 
L 366.881671 147.572162 
L 368.547369 149.375436 
L 370.213067 150.832111 
L 371.878765 151.943784 
L 373.544463 152.710775 
L 375.210161 153.132891 
L 376.875859 153.223167 
L 431.843892 153.223167 
L 431.843892 153.223167 
" clip-path="url(#p83dd123322)" style="fill: none; stroke: #1f77b4; stroke-width: 1.5; stroke-linecap: square"/>
   </g>
   <g id="line2d_24">
    <path d="M 68.721733 153.223167 
L 69.276966 153.158479 
L 69.832198 153.271962 
L 70.387431 153.160715 
L 70.942664 153.215692 
L 71.497896 153.148193 
L 72.053129 153.209859 
L 72.608362 153.11973 
L 73.163594 153.214254 
L 74.829292 153.184929 
L 75.384525 153.186239 
L 75.939758 153.01377 
L 77.050223 151.760263 
L 78.715921 150.327386 
L 79.271153 149.958426 
L 79.826386 149.325922 
L 80.381619 148.92342 
L 80.936851 147.993831 
L 81.492084 147.549801 
L 82.602549 145.636318 
L 83.157782 143.695682 
L 83.713015 143.104706 
L 84.268247 141.218376 
L 84.82348 140.378232 
L 85.378713 138.055858 
L 85.933945 137.107102 
L 86.489178 134.695283 
L 87.044411 133.529304 
L 87.599643 129.855672 
L 88.154876 128.434136 
L 88.710109 124.153556 
L 89.265341 123.019522 
L 89.820574 118.754914 
L 90.375807 116.694485 
L 90.931039 116.071565 
L 91.486272 112.413905 
L 92.041505 112.03057 
L 92.596737 107.095125 
L 93.15197 105.673589 
L 93.707203 100.84995 
L 94.262435 101.137452 
L 94.817668 96.553398 
L 95.372901 97.591598 
L 95.928133 92.480458 
L 96.483366 92.672125 
L 97.038599 88.072099 
L 97.593831 89.924887 
L 98.149064 86.842231 
L 98.704297 88.966549 
L 99.259529 87.369317 
L 99.814762 89.685303 
L 100.369995 86.666535 
L 100.925227 89.541552 
L 101.48046 87.369317 
L 102.035693 89.301967 
L 102.590925 84.717913 
L 103.146158 86.970009 
L 103.70139 83.488045 
L 104.256623 84.55819 
L 104.811856 88.663075 
L 105.367088 88.024182 
L 105.922321 90.947116 
L 106.477554 87.289456 
L 107.032786 88.806825 
L 107.588019 85.835975 
L 108.143252 88.695019 
L 108.698484 87.193622 
L 109.253717 89.637386 
L 109.80895 86.794314 
L 110.364182 88.758909 
L 110.919415 85.260972 
L 111.474648 86.842231 
L 112.02988 81.411644 
L 112.585113 82.274149 
L 113.140346 77.210926 
L 113.695578 79.942191 
L 114.250811 76.715784 
L 114.806044 82.00262 
L 115.361276 80.022053 
L 115.916509 81.603312 
L 116.471742 79.463022 
L 117.026974 82.114426 
L 118.13744 75.262303 
L 118.692672 74.847023 
L 119.247905 70.901862 
L 119.803138 72.802567 
L 120.35837 68.410181 
L 120.913603 72.818539 
L 121.468836 72.770622 
L 122.024068 76.955369 
L 122.579301 74.527577 
L 123.134534 77.498427 
L 123.689766 69.815744 
L 124.244999 69.927551 
L 124.800232 62.388619 
L 125.355464 62.995566 
L 125.910697 56.526779 
L 126.46593 58.219845 
L 127.021162 53.987182 
L 127.576395 56.989977 
L 128.131627 55.248994 
L 128.68686 60.727498 
L 129.242093 59.002488 
L 129.797325 64.385158 
L 130.352558 61.797643 
L 130.907791 65.742804 
L 131.463023 61.621948 
L 132.018256 64.864327 
L 132.573489 61.302501 
L 133.128721 65.055995 
L 133.683954 59.385824 
L 134.239187 61.190695 
L 134.794419 56.846226 
L 135.349652 58.922626 
L 135.904885 55.296911 
L 136.460117 59.641381 
L 137.01535 55.472607 
L 137.570583 57.724703 
L 138.125815 52.86912 
L 138.681048 56.574696 
L 139.236281 52.038559 
L 139.791513 54.642046 
L 140.346746 49.339238 
L 140.901979 53.124677 
L 141.457211 48.141315 
L 142.012444 52.789258 
L 142.567677 48.364927 
L 143.122909 51.671196 
L 143.678142 48.955903 
L 144.233375 54.53024 
L 144.788607 54.067043 
L 145.34384 55.121216 
L 145.899073 49.786463 
L 146.454305 53.07676 
L 147.009538 48.380899 
L 147.564771 52.134393 
L 148.120003 45.985052 
L 148.675236 48.604512 
L 149.230469 42.870451 
L 149.785701 47.853813 
L 150.340934 44.03643 
L 150.896167 45.873246 
L 151.451399 39.053068 
L 152.006632 44.371849 
L 152.561864 43.237814 
L 153.117097 48.173259 
L 153.67233 45.521855 
L 154.227562 51.463556 
L 154.782795 46.592 
L 155.338028 52.789258 
L 155.89326 50.04202 
L 156.448493 50.585079 
L 157.003726 49.578823 
L 157.558958 54.881631 
L 158.114191 52.150365 
L 158.669424 55.328856 
L 159.224656 50.648968 
L 159.779889 54.594129 
L 160.335122 51.032303 
L 160.890354 54.673991 
L 161.445587 51.415639 
L 162.00082 56.287195 
L 162.556052 50.537162 
L 163.111285 55.344828 
L 163.666518 53.364261 
L 164.22175 58.571236 
L 164.776983 53.508012 
L 165.332216 57.996232 
L 165.887448 55.712191 
L 166.442681 59.353879 
L 166.997914 56.654558 
L 167.553146 60.903193 
L 168.108379 56.207333 
L 168.663612 59.034433 
L 169.218844 56.351084 
L 169.774077 61.318474 
L 170.32931 57.660814 
L 170.884542 61.542086 
L 171.439775 58.331651 
L 171.995008 62.180978 
L 172.55024 58.267762 
L 173.105473 61.43028 
L 173.660706 58.60318 
L 174.215938 61.286529 
L 174.771171 56.111499 
L 175.326404 60.679581 
L 175.881636 59.130267 
L 176.436869 62.388619 
L 176.992101 60.136522 
L 177.547334 64.049739 
L 178.102567 61.190695 
L 178.657799 66.445586 
L 179.213032 64.385158 
L 179.768265 68.250458 
L 180.323497 64.81641 
L 180.87873 68.074762 
L 181.433963 64.337241 
L 181.989195 66.445586 
L 182.544428 61.957366 
L 183.099661 64.656687 
L 183.654893 60.791387 
L 184.210126 61.015 
L 184.765359 58.219845 
L 185.320591 62.101117 
L 185.875824 56.67053 
L 186.431057 59.258045 
L 186.986289 55.169133 
L 187.541522 59.01846 
L 188.096755 55.392745 
L 188.651987 60.360135 
L 189.20722 57.996232 
L 189.762453 61.382363 
L 190.317685 58.906654 
L 190.872918 63.794182 
L 191.428151 61.653892 
L 191.983383 63.283068 
L 192.538616 59.050405 
L 193.093849 60.711526 
L 193.649081 55.488579 
L 194.204314 59.449713 
L 194.759547 55.935804 
L 195.314779 60.072633 
L 195.870012 53.332317 
L 196.425245 56.974004 
L 196.980477 53.204538 
L 197.53571 54.705936 
L 198.090943 53.316344 
L 198.646175 55.951776 
L 199.201408 51.096193 
L 199.756641 55.169133 
L 200.311873 52.230227 
L 200.867106 56.383029 
L 201.422338 51.303833 
L 201.977571 55.504551 
L 202.532804 53.060787 
L 203.088036 58.124011 
L 203.643269 53.028843 
L 204.198502 57.612897 
L 204.753734 52.517729 
L 205.308967 56.015665 
L 205.8642 53.827458 
L 206.419432 55.121216 
L 206.974665 55.488579 
L 207.529898 57.804565 
L 208.08513 54.130932 
L 208.640363 58.379568 
L 209.195596 53.49204 
L 209.750828 56.846226 
L 210.306061 49.786463 
L 210.861294 54.178849 
L 211.416526 50.888553 
L 211.971759 56.702475 
L 212.526992 54.11496 
L 213.082224 56.638586 
L 213.637457 54.673991 
L 214.19269 57.325395 
L 214.747922 63.203207 
L 215.303155 60.312218 
L 215.858388 59.49763 
L 216.41362 62.500425 
L 216.968853 57.596924 
L 217.524086 61.350418 
L 218.079318 58.251789 
L 218.634551 62.228895 
L 219.189784 57.580952 
L 219.745016 59.817076 
L 220.300249 55.408717 
L 220.855482 58.443457 
L 221.410714 53.939265 
L 221.965947 55.728164 
L 222.52118 49.818408 
L 223.076412 55.073299 
L 223.631645 52.80523 
L 224.186878 54.498296 
L 224.74211 57.740675 
L 225.297343 55.201077 
L 225.852575 60.74347 
L 226.407808 59.178183 
L 226.963041 63.394874 
L 227.518273 59.305962 
L 228.073506 61.877505 
L 228.628739 56.526779 
L 229.183971 60.615692 
L 229.739204 57.501091 
L 230.294437 60.519858 
L 230.849669 55.600385 
L 231.404902 58.635125 
L 231.960135 55.121216 
L 232.515367 57.77262 
L 233.0706 53.891348 
L 233.625833 57.117755 
L 234.181065 50.425356 
L 234.736298 54.865659 
L 235.291531 52.421895 
L 235.846763 57.229561 
L 236.401996 52.725369 
L 236.957229 57.277478 
L 237.512461 54.370517 
L 238.067694 59.162211 
L 238.622927 56.383029 
L 239.178159 60.264301 
L 239.733392 56.414973 
L 240.288625 59.417768 
L 240.843857 56.574696 
L 241.39909 60.887221 
L 241.954323 56.383029 
L 242.509555 59.801104 
L 243.064788 56.031638 
L 243.620021 60.056661 
L 244.175253 55.42469 
L 244.730486 59.162211 
L 245.285719 54.80177 
L 245.840951 57.133727 
L 246.396184 53.460095 
L 246.951417 59.066377 
L 247.506649 56.974004 
L 248.061882 56.798309 
L 248.617115 60.264301 
L 249.172347 57.165672 
L 249.72758 62.516397 
L 250.282813 61.893477 
L 250.838045 66.765033 
L 251.393278 62.404591 
L 251.94851 62.755982 
L 252.503743 58.459429 
L 253.058976 62.388619 
L 253.614208 58.39554 
L 254.169441 62.149034 
L 254.724674 57.836509 
L 255.279906 57.596924 
L 255.835139 59.928882 
L 256.390372 56.894143 
L 256.945604 60.471941 
L 257.500837 54.130932 
L 258.05607 56.383029 
L 258.611302 52.469812 
L 259.166535 57.804565 
L 259.721768 55.472607 
L 260.277 59.960827 
L 260.832233 56.510807 
L 261.387466 59.258045 
L 261.942698 57.820537 
L 262.497931 58.523319 
L 263.053164 61.84556 
L 263.608396 56.750392 
L 264.163629 60.184439 
L 264.718862 55.887887 
L 265.274094 59.49763 
L 265.829327 56.031638 
L 266.38456 59.641381 
L 266.939792 53.460095 
L 267.495025 56.718447 
L 268.050258 53.891348 
L 268.60549 58.986516 
L 269.160723 54.73788 
L 269.715956 56.94206 
L 270.271188 50.840636 
L 270.826421 56.143444 
L 271.381654 50.680913 
L 271.936886 55.360801 
L 272.492119 52.405922 
L 273.047352 56.191361 
L 273.602584 53.779541 
L 274.157817 55.089271 
L 274.71305 55.328856 
L 275.268282 58.060122 
L 275.823515 54.450379 
L 276.378747 57.964288 
L 276.93398 55.600385 
L 277.489213 60.711526 
L 278.044445 57.309423 
L 278.599678 61.398335 
L 279.154911 55.664274 
L 279.710143 59.417768 
L 280.265376 54.11496 
L 280.820609 56.25525 
L 281.375841 52.230227 
L 281.931074 56.702475 
L 282.486307 54.290655 
L 283.041539 58.139983 
L 283.596772 56.446918 
L 284.152005 60.408052 
L 284.707237 56.319139 
L 285.26247 61.558058 
L 285.817703 60.280273 
L 286.372935 64.8803 
L 286.928168 60.104578 
L 287.483401 63.666404 
L 288.038633 57.964288 
L 288.593866 57.788592 
L 289.149099 61.989311 
L 289.704331 58.635125 
L 290.259564 62.596259 
L 290.814797 55.63233 
L 291.370029 59.194156 
L 291.925262 56.383029 
L 292.480495 59.641381 
L 293.035727 54.977465 
L 293.59096 52.917037 
L 294.146193 56.750392 
L 294.701425 53.747597 
L 295.256658 58.587208 
L 295.811891 55.568441 
L 296.367123 59.513602 
L 296.922356 56.686503 
L 297.477589 61.590003 
L 298.032821 58.267762 
L 298.588054 61.302501 
L 299.143287 56.159416 
L 299.698519 60.615692 
L 300.253752 55.999693 
L 300.808984 56.814281 
L 301.364217 56.430946 
L 301.91945 60.999027 
L 302.474682 54.402462 
L 303.029915 56.798309 
L 303.585148 53.939265 
L 304.14038 58.1879 
L 304.695613 53.955237 
L 305.250846 56.974004 
L 305.806078 50.66494 
L 306.361311 55.776081 
L 306.916544 52.102449 
L 307.471776 56.542752 
L 308.027009 52.517729 
L 308.582242 56.526779 
L 309.137474 54.083015 
L 309.692707 58.714986 
L 310.24794 54.977465 
L 310.803172 58.539291 
L 311.358405 53.891348 
L 311.913638 58.251789 
L 312.46887 57.517063 
L 313.024103 60.024716 
L 313.579336 56.04761 
L 314.134568 59.849021 
L 314.689801 54.594129 
L 315.245034 58.890682 
L 315.800266 54.817742 
L 316.355499 58.730959 
L 316.910732 53.268427 
L 317.465964 54.929548 
L 318.021197 52.166338 
L 318.57643 57.996232 
L 319.131662 56.159416 
L 319.686895 59.657353 
L 320.242128 57.101783 
L 320.79736 62.308757 
L 321.352593 59.513602 
L 321.907826 64.592798 
L 322.463058 61.526114 
L 323.018291 64.465019 
L 323.573524 59.801104 
L 324.128756 63.682376 
L 324.683989 61.494169 
L 325.239221 62.069172 
L 325.794454 63.714321 
L 326.349687 66.190029 
L 326.904919 60.759443 
L 327.460152 62.803899 
L 328.015385 59.896938 
L 328.570617 64.992106 
L 329.12585 62.436536 
L 329.681083 67.707399 
L 330.236315 63.905988 
L 330.791548 67.899067 
L 331.346781 65.29558 
L 331.902013 70.758111 
L 332.457246 70.087274 
L 333.012479 73.776878 
L 333.567711 71.365059 
L 334.122944 76.140781 
L 334.678177 74.224103 
L 335.233409 77.194953 
L 335.788642 75.469944 
L 336.343875 79.670662 
L 336.899107 78.776212 
L 338.009573 82.785263 
L 338.564805 87.52904 
L 339.120038 85.628335 
L 339.675271 90.276278 
L 340.230503 91.1867 
L 340.785736 95.339502 
L 341.340969 95.515197 
L 341.896201 100.179113 
L 342.451434 100.370781 
L 343.006667 103.277742 
L 343.561899 102.558988 
L 344.117132 106.02498 
L 344.672365 104.986779 
L 345.227597 108.516661 
L 345.78283 107.430543 
L 346.338063 110.672923 
L 346.893295 109.698612 
L 347.448528 112.621545 
L 348.003761 111.870847 
L 348.558993 113.659746 
L 349.114226 111.279871 
L 349.669458 111.152092 
L 350.224691 111.663206 
L 350.779924 108.740273 
L 351.335156 110.497228 
L 351.890389 109.251387 
L 352.445622 112.23821 
L 353.000854 111.503483 
L 354.11132 114.905586 
L 354.666552 118.020187 
L 355.221785 118.547274 
L 355.777018 121.677847 
L 356.33225 122.093127 
L 356.887483 125.271618 
L 357.442716 126.501486 
L 357.997948 129.408447 
L 358.553181 129.791783 
L 360.774112 136.819601 
L 361.329344 138.653222 
L 361.884577 139.654686 
L 362.43981 141.406849 
L 362.995042 141.996227 
L 363.550275 142.929011 
L 364.105508 142.419494 
L 364.66074 142.259771 
L 365.215973 143.072761 
L 365.771206 142.0122 
L 366.326438 142.623939 
L 366.881671 141.737476 
L 367.436904 142.256576 
L 367.992136 141.480322 
L 368.547369 142.048936 
L 369.102602 141.978658 
L 369.657834 142.584009 
L 370.213067 142.959358 
L 370.7683 143.864988 
L 371.323532 145.078884 
L 371.878765 145.949375 
L 372.433998 146.048403 
L 372.98923 146.342294 
L 373.544463 145.741735 
L 374.099695 146.302363 
L 374.654928 146.375836 
L 375.210161 146.802297 
L 375.765393 146.390211 
L 376.320626 146.771949 
L 376.875859 146.680907 
L 377.431091 147.009937 
L 377.986324 146.786324 
L 378.541557 147.235146 
L 379.096789 147.235146 
L 379.652022 147.465148 
L 380.207255 147.568968 
L 380.762487 148.016193 
L 381.31772 147.933137 
L 381.872953 148.434667 
L 382.428185 148.512932 
L 382.983418 148.830781 
L 383.538651 149.567104 
L 384.093883 150.03669 
L 384.649116 150.678777 
L 385.204349 151.082877 
L 386.314814 152.15957 
L 387.425279 153.036131 
L 388.535745 153.790024 
L 390.201443 154.216006 
L 390.756675 154.284048 
L 391.311908 154.215048 
L 392.422373 154.451118 
L 393.532839 154.487375 
L 394.088071 154.677925 
L 394.643304 154.70955 
L 395.753769 155.021649 
L 399.640398 155.839432 
L 400.19563 155.574291 
L 400.750863 155.663736 
L 401.306096 155.438527 
L 403.527026 155.131858 
L 404.637492 154.989705 
L 405.747957 154.865121 
L 406.858422 155.058386 
L 410.189818 154.820398 
L 411.855516 154.399528 
L 412.410749 154.524272 
L 414.076447 154.230541 
L 414.63168 154.258652 
L 416.297378 154.028491 
L 416.85261 154.072894 
L 417.407843 153.857268 
L 417.963076 153.922594 
L 420.739239 153.57296 
L 421.294472 153.599794 
L 422.404937 153.452849 
L 426.846798 153.065424 
L 429.067729 153.067006 
L 430.178194 152.979429 
L 430.733427 153.142395 
L 431.843892 153.117718 
L 431.843892 153.117718 
" clip-path="url(#p83dd123322)" style="fill: none; stroke: #ff7f0e; stroke-width: 1.5; stroke-linecap: square"/>
   </g>
   <g id="patch_3">
    <path d="M 50.565625 161.67875 
L 50.565625 33.21375 
" style="fill: none; stroke: #000000; stroke-width: 0.8; stroke-linejoin: miter; stroke-linecap: square"/>
   </g>
   <g id="patch_4">
    <path d="M 450 161.67875 
L 450 33.21375 
" style="fill: none; stroke: #000000; stroke-width: 0.8; stroke-linejoin: miter; stroke-linecap: square"/>
   </g>
   <g id="patch_5">
    <path d="M 50.565625 161.67875 
L 450 161.67875 
" style="fill: none; stroke: #000000; stroke-width: 0.8; stroke-linejoin: miter; stroke-linecap: square"/>
   </g>
   <g id="patch_6">
    <path d="M 50.565625 33.21375 
L 450 33.21375 
" style="fill: none; stroke: #000000; stroke-width: 0.8; stroke-linejoin: miter; stroke-linecap: square"/>
   </g>
   <g id="legend_1">
    <g id="patch_7">
     <path d="M 360.482812 70.57 
L 443 70.57 
Q 445 70.57 445 68.57 
L 445 40.21375 
Q 445 38.21375 443 38.21375 
L 360.482812 38.21375 
Q 358.482812 38.21375 358.482812 40.21375 
L 358.482812 68.57 
Q 358.482812 70.57 360.482812 70.57 
z
" style="fill: #ffffff; opacity: 0.8; stroke: #cccccc; stroke-linejoin: miter"/>
    </g>
    <g id="line2d_25">
     <path d="M 362.482812 46.312187 
L 372.482812 46.312187 
L 382.482812 46.312187 
" style="fill: none; stroke: #1f77b4; stroke-width: 1.5; stroke-linecap: square"/>
    </g>
    <g id="text_6">
     <!-- Reference -->
     <g transform="translate(390.482812 49.812187)scale(0.1 -0.1)">
      <defs>
       <path id="DejaVuSans-52" d="M 2841 2188 
Q 3044 2119 3236 1894 
Q 3428 1669 3622 1275 
L 4263 0 
L 3584 0 
L 2988 1197 
Q 2756 1666 2539 1819 
Q 2322 1972 1947 1972 
L 1259 1972 
L 1259 0 
L 628 0 
L 628 4666 
L 2053 4666 
Q 2853 4666 3247 4331 
Q 3641 3997 3641 3322 
Q 3641 2881 3436 2590 
Q 3231 2300 2841 2188 
z
M 1259 4147 
L 1259 2491 
L 2053 2491 
Q 2509 2491 2742 2702 
Q 2975 2913 2975 3322 
Q 2975 3731 2742 3939 
Q 2509 4147 2053 4147 
L 1259 4147 
z
" transform="scale(0.015625)"/>
       <path id="DejaVuSans-66" d="M 2375 4863 
L 2375 4384 
L 1825 4384 
Q 1516 4384 1395 4259 
Q 1275 4134 1275 3809 
L 1275 3500 
L 2222 3500 
L 2222 3053 
L 1275 3053 
L 1275 0 
L 697 0 
L 697 3053 
L 147 3053 
L 147 3500 
L 697 3500 
L 697 3744 
Q 697 4328 969 4595 
Q 1241 4863 1831 4863 
L 2375 4863 
z
" transform="scale(0.015625)"/>
       <path id="DejaVuSans-63" d="M 3122 3366 
L 3122 2828 
Q 2878 2963 2633 3030 
Q 2388 3097 2138 3097 
Q 1578 3097 1268 2742 
Q 959 2388 959 1747 
Q 959 1106 1268 751 
Q 1578 397 2138 397 
Q 2388 397 2633 464 
Q 2878 531 3122 666 
L 3122 134 
Q 2881 22 2623 -34 
Q 2366 -91 2075 -91 
Q 1284 -91 818 406 
Q 353 903 353 1747 
Q 353 2603 823 3093 
Q 1294 3584 2113 3584 
Q 2378 3584 2631 3529 
Q 2884 3475 3122 3366 
z
" transform="scale(0.015625)"/>
      </defs>
      <use xlink:href="#DejaVuSans-52"/>
      <use xlink:href="#DejaVuSans-65" x="64.982422"/>
      <use xlink:href="#DejaVuSans-66" x="126.505859"/>
      <use xlink:href="#DejaVuSans-65" x="161.710938"/>
      <use xlink:href="#DejaVuSans-72" x="223.234375"/>
      <use xlink:href="#DejaVuSans-65" x="262.097656"/>
      <use xlink:href="#DejaVuSans-6e" x="323.621094"/>
      <use xlink:href="#DejaVuSans-63" x="387"/>
      <use xlink:href="#DejaVuSans-65" x="441.980469"/>
     </g>
    </g>
    <g id="line2d_26">
     <path d="M 362.482812 60.990312 
L 372.482812 60.990312 
L 382.482812 60.990312 
" style="fill: none; stroke: #ff7f0e; stroke-width: 1.5; stroke-linecap: square"/>
    </g>
    <g id="text_7">
     <!-- Estimated -->
     <g transform="translate(390.482812 64.490312)scale(0.1 -0.1)">
      <defs>
       <path id="DejaVuSans-45" d="M 628 4666 
L 3578 4666 
L 3578 4134 
L 1259 4134 
L 1259 2753 
L 3481 2753 
L 3481 2222 
L 1259 2222 
L 1259 531 
L 3634 531 
L 3634 0 
L 628 0 
L 628 4666 
z
" transform="scale(0.015625)"/>
       <path id="DejaVuSans-69" d="M 603 3500 
L 1178 3500 
L 1178 0 
L 603 0 
L 603 3500 
z
M 603 4863 
L 1178 4863 
L 1178 4134 
L 603 4134 
L 603 4863 
z
" transform="scale(0.015625)"/>
       <path id="DejaVuSans-64" d="M 2906 2969 
L 2906 4863 
L 3481 4863 
L 3481 0 
L 2906 0 
L 2906 525 
Q 2725 213 2448 61 
Q 2172 -91 1784 -91 
Q 1150 -91 751 415 
Q 353 922 353 1747 
Q 353 2572 751 3078 
Q 1150 3584 1784 3584 
Q 2172 3584 2448 3432 
Q 2725 3281 2906 2969 
z
M 947 1747 
Q 947 1113 1208 752 
Q 1469 391 1925 391 
Q 2381 391 2643 752 
Q 2906 1113 2906 1747 
Q 2906 2381 2643 2742 
Q 2381 3103 1925 3103 
Q 1469 3103 1208 2742 
Q 947 2381 947 1747 
z
" transform="scale(0.015625)"/>
      </defs>
      <use xlink:href="#DejaVuSans-45"/>
      <use xlink:href="#DejaVuSans-73" x="63.183594"/>
      <use xlink:href="#DejaVuSans-74" x="115.283203"/>
      <use xlink:href="#DejaVuSans-69" x="154.492188"/>
      <use xlink:href="#DejaVuSans-6d" x="182.275391"/>
      <use xlink:href="#DejaVuSans-61" x="279.6875"/>
      <use xlink:href="#DejaVuSans-74" x="340.966797"/>
      <use xlink:href="#DejaVuSans-65" x="380.175781"/>
      <use xlink:href="#DejaVuSans-64" x="441.699219"/>
     </g>
    </g>
   </g>
  </g>
  <g id="axes_2">
   <g id="patch_8">
    <path d="M 50.565625 304.44375 
L 450 304.44375 
L 450 175.97875 
L 50.565625 175.97875 
z
" style="fill: #ffffff"/>
   </g>
   <g id="matplotlib.axis_3">
    <g id="xtick_8">
     <g id="line2d_27">
      <path d="M 68.721733 304.44375 
L 68.721733 175.97875 
" clip-path="url(#p7b8cf2df89)" style="fill: none; stroke: #b0b0b0; stroke-width: 0.8; stroke-linecap: square"/>
     </g>
     <g id="line2d_28">
      <g>
       <use xlink:href="#mc51b788318" x="68.721733" y="304.44375" style="stroke: #000000; stroke-width: 0.8"/>
      </g>
     </g>
     <g id="text_8">
      <!-- 0.0 -->
      <g transform="translate(60.77017 319.042187)scale(0.1 -0.1)">
       <use xlink:href="#DejaVuSans-30"/>
       <use xlink:href="#DejaVuSans-2e" x="63.623047"/>
       <use xlink:href="#DejaVuSans-30" x="95.410156"/>
      </g>
     </g>
    </g>
    <g id="xtick_9">
     <g id="line2d_29">
      <path d="M 124.244999 304.44375 
L 124.244999 175.97875 
" clip-path="url(#p7b8cf2df89)" style="fill: none; stroke: #b0b0b0; stroke-width: 0.8; stroke-linecap: square"/>
     </g>
     <g id="line2d_30">
      <g>
       <use xlink:href="#mc51b788318" x="124.244999" y="304.44375" style="stroke: #000000; stroke-width: 0.8"/>
      </g>
     </g>
     <g id="text_9">
      <!-- 0.1 -->
      <g transform="translate(116.293436 319.042187)scale(0.1 -0.1)">
       <defs>
        <path id="DejaVuSans-31" d="M 794 531 
L 1825 531 
L 1825 4091 
L 703 3866 
L 703 4441 
L 1819 4666 
L 2450 4666 
L 2450 531 
L 3481 531 
L 3481 0 
L 794 0 
L 794 531 
z
" transform="scale(0.015625)"/>
       </defs>
       <use xlink:href="#DejaVuSans-30"/>
       <use xlink:href="#DejaVuSans-2e" x="63.623047"/>
       <use xlink:href="#DejaVuSans-31" x="95.410156"/>
      </g>
     </g>
    </g>
    <g id="xtick_10">
     <g id="line2d_31">
      <path d="M 179.768265 304.44375 
L 179.768265 175.97875 
" clip-path="url(#p7b8cf2df89)" style="fill: none; stroke: #b0b0b0; stroke-width: 0.8; stroke-linecap: square"/>
     </g>
     <g id="line2d_32">
      <g>
       <use xlink:href="#mc51b788318" x="179.768265" y="304.44375" style="stroke: #000000; stroke-width: 0.8"/>
      </g>
     </g>
     <g id="text_10">
      <!-- 0.2 -->
      <g transform="translate(171.816702 319.042187)scale(0.1 -0.1)">
       <use xlink:href="#DejaVuSans-30"/>
       <use xlink:href="#DejaVuSans-2e" x="63.623047"/>
       <use xlink:href="#DejaVuSans-32" x="95.410156"/>
      </g>
     </g>
    </g>
    <g id="xtick_11">
     <g id="line2d_33">
      <path d="M 235.291531 304.44375 
L 235.291531 175.97875 
" clip-path="url(#p7b8cf2df89)" style="fill: none; stroke: #b0b0b0; stroke-width: 0.8; stroke-linecap: square"/>
     </g>
     <g id="line2d_34">
      <g>
       <use xlink:href="#mc51b788318" x="235.291531" y="304.44375" style="stroke: #000000; stroke-width: 0.8"/>
      </g>
     </g>
     <g id="text_11">
      <!-- 0.3 -->
      <g transform="translate(227.339968 319.042187)scale(0.1 -0.1)">
       <defs>
        <path id="DejaVuSans-33" d="M 2597 2516 
Q 3050 2419 3304 2112 
Q 3559 1806 3559 1356 
Q 3559 666 3084 287 
Q 2609 -91 1734 -91 
Q 1441 -91 1130 -33 
Q 819 25 488 141 
L 488 750 
Q 750 597 1062 519 
Q 1375 441 1716 441 
Q 2309 441 2620 675 
Q 2931 909 2931 1356 
Q 2931 1769 2642 2001 
Q 2353 2234 1838 2234 
L 1294 2234 
L 1294 2753 
L 1863 2753 
Q 2328 2753 2575 2939 
Q 2822 3125 2822 3475 
Q 2822 3834 2567 4026 
Q 2313 4219 1838 4219 
Q 1578 4219 1281 4162 
Q 984 4106 628 3988 
L 628 4550 
Q 988 4650 1302 4700 
Q 1616 4750 1894 4750 
Q 2613 4750 3031 4423 
Q 3450 4097 3450 3541 
Q 3450 3153 3228 2886 
Q 3006 2619 2597 2516 
z
" transform="scale(0.015625)"/>
       </defs>
       <use xlink:href="#DejaVuSans-30"/>
       <use xlink:href="#DejaVuSans-2e" x="63.623047"/>
       <use xlink:href="#DejaVuSans-33" x="95.410156"/>
      </g>
     </g>
    </g>
    <g id="xtick_12">
     <g id="line2d_35">
      <path d="M 290.814797 304.44375 
L 290.814797 175.97875 
" clip-path="url(#p7b8cf2df89)" style="fill: none; stroke: #b0b0b0; stroke-width: 0.8; stroke-linecap: square"/>
     </g>
     <g id="line2d_36">
      <g>
       <use xlink:href="#mc51b788318" x="290.814797" y="304.44375" style="stroke: #000000; stroke-width: 0.8"/>
      </g>
     </g>
     <g id="text_12">
      <!-- 0.4 -->
      <g transform="translate(282.863234 319.042187)scale(0.1 -0.1)">
       <use xlink:href="#DejaVuSans-30"/>
       <use xlink:href="#DejaVuSans-2e" x="63.623047"/>
       <use xlink:href="#DejaVuSans-34" x="95.410156"/>
      </g>
     </g>
    </g>
    <g id="xtick_13">
     <g id="line2d_37">
      <path d="M 346.338063 304.44375 
L 346.338063 175.97875 
" clip-path="url(#p7b8cf2df89)" style="fill: none; stroke: #b0b0b0; stroke-width: 0.8; stroke-linecap: square"/>
     </g>
     <g id="line2d_38">
      <g>
       <use xlink:href="#mc51b788318" x="346.338063" y="304.44375" style="stroke: #000000; stroke-width: 0.8"/>
      </g>
     </g>
     <g id="text_13">
      <!-- 0.5 -->
      <g transform="translate(338.3865 319.042187)scale(0.1 -0.1)">
       <defs>
        <path id="DejaVuSans-35" d="M 691 4666 
L 3169 4666 
L 3169 4134 
L 1269 4134 
L 1269 2991 
Q 1406 3038 1543 3061 
Q 1681 3084 1819 3084 
Q 2600 3084 3056 2656 
Q 3513 2228 3513 1497 
Q 3513 744 3044 326 
Q 2575 -91 1722 -91 
Q 1428 -91 1123 -41 
Q 819 9 494 109 
L 494 744 
Q 775 591 1075 516 
Q 1375 441 1709 441 
Q 2250 441 2565 725 
Q 2881 1009 2881 1497 
Q 2881 1984 2565 2268 
Q 2250 2553 1709 2553 
Q 1456 2553 1204 2497 
Q 953 2441 691 2322 
L 691 4666 
z
" transform="scale(0.015625)"/>
       </defs>
       <use xlink:href="#DejaVuSans-30"/>
       <use xlink:href="#DejaVuSans-2e" x="63.623047"/>
       <use xlink:href="#DejaVuSans-35" x="95.410156"/>
      </g>
     </g>
    </g>
    <g id="xtick_14">
     <g id="line2d_39">
      <path d="M 401.861328 304.44375 
L 401.861328 175.97875 
" clip-path="url(#p7b8cf2df89)" style="fill: none; stroke: #b0b0b0; stroke-width: 0.8; stroke-linecap: square"/>
     </g>
     <g id="line2d_40">
      <g>
       <use xlink:href="#mc51b788318" x="401.861328" y="304.44375" style="stroke: #000000; stroke-width: 0.8"/>
      </g>
     </g>
     <g id="text_14">
      <!-- 0.6 -->
      <g transform="translate(393.909766 319.042187)scale(0.1 -0.1)">
       <use xlink:href="#DejaVuSans-30"/>
       <use xlink:href="#DejaVuSans-2e" x="63.623047"/>
       <use xlink:href="#DejaVuSans-36" x="95.410156"/>
      </g>
     </g>
    </g>
    <g id="text_15">
     <!-- Time [s] -->
     <g transform="translate(229.953906 332.720312)scale(0.1 -0.1)">
      <defs>
       <path id="DejaVuSans-54" d="M -19 4666 
L 3928 4666 
L 3928 4134 
L 2272 4134 
L 2272 0 
L 1638 0 
L 1638 4134 
L -19 4134 
L -19 4666 
z
" transform="scale(0.015625)"/>
      </defs>
      <use xlink:href="#DejaVuSans-54"/>
      <use xlink:href="#DejaVuSans-69" x="57.958984"/>
      <use xlink:href="#DejaVuSans-6d" x="85.742188"/>
      <use xlink:href="#DejaVuSans-65" x="183.154297"/>
      <use xlink:href="#DejaVuSans-20" x="244.677734"/>
      <use xlink:href="#DejaVuSans-5b" x="276.464844"/>
      <use xlink:href="#DejaVuSans-73" x="315.478516"/>
      <use xlink:href="#DejaVuSans-5d" x="367.578125"/>
     </g>
    </g>
   </g>
   <g id="matplotlib.axis_4">
    <g id="ytick_5">
     <g id="line2d_41">
      <path d="M 50.565625 282.261532 
L 450 282.261532 
" clip-path="url(#p7b8cf2df89)" style="fill: none; stroke: #b0b0b0; stroke-width: 0.8; stroke-linecap: square"/>
     </g>
     <g id="line2d_42">
      <g>
       <use xlink:href="#m6cc481b9af" x="50.565625" y="282.261532" style="stroke: #000000; stroke-width: 0.8"/>
      </g>
     </g>
     <g id="text_16">
      <!-- −1 -->
      <g transform="translate(28.823438 286.060751)scale(0.1 -0.1)">
       <defs>
        <path id="DejaVuSans-2212" d="M 678 2272 
L 4684 2272 
L 4684 1741 
L 678 1741 
L 678 2272 
z
" transform="scale(0.015625)"/>
       </defs>
       <use xlink:href="#DejaVuSans-2212"/>
       <use xlink:href="#DejaVuSans-31" x="83.789062"/>
      </g>
     </g>
    </g>
    <g id="ytick_6">
     <g id="line2d_43">
      <path d="M 50.565625 249.575732 
L 450 249.575732 
" clip-path="url(#p7b8cf2df89)" style="fill: none; stroke: #b0b0b0; stroke-width: 0.8; stroke-linecap: square"/>
     </g>
     <g id="line2d_44">
      <g>
       <use xlink:href="#m6cc481b9af" x="50.565625" y="249.575732" style="stroke: #000000; stroke-width: 0.8"/>
      </g>
     </g>
     <g id="text_17">
      <!-- 0 -->
      <g transform="translate(37.203125 253.37495)scale(0.1 -0.1)">
       <use xlink:href="#DejaVuSans-30"/>
      </g>
     </g>
    </g>
    <g id="ytick_7">
     <g id="line2d_45">
      <path d="M 50.565625 216.889932 
L 450 216.889932 
" clip-path="url(#p7b8cf2df89)" style="fill: none; stroke: #b0b0b0; stroke-width: 0.8; stroke-linecap: square"/>
     </g>
     <g id="line2d_46">
      <g>
       <use xlink:href="#m6cc481b9af" x="50.565625" y="216.889932" style="stroke: #000000; stroke-width: 0.8"/>
      </g>
     </g>
     <g id="text_18">
      <!-- 1 -->
      <g transform="translate(37.203125 220.68915)scale(0.1 -0.1)">
       <use xlink:href="#DejaVuSans-31"/>
      </g>
     </g>
    </g>
    <g id="ytick_8">
     <g id="line2d_47">
      <path d="M 50.565625 184.204132 
L 450 184.204132 
" clip-path="url(#p7b8cf2df89)" style="fill: none; stroke: #b0b0b0; stroke-width: 0.8; stroke-linecap: square"/>
     </g>
     <g id="line2d_48">
      <g>
       <use xlink:href="#m6cc481b9af" x="50.565625" y="184.204132" style="stroke: #000000; stroke-width: 0.8"/>
      </g>
     </g>
     <g id="text_19">
      <!-- 2 -->
      <g transform="translate(37.203125 188.00335)scale(0.1 -0.1)">
       <use xlink:href="#DejaVuSans-32"/>
      </g>
     </g>
    </g>
    <g id="text_20">
     <!-- rot. vel. [rad/s] -->
     <g transform="translate(22.74375 277.439375)rotate(-90)scale(0.1 -0.1)">
      <defs>
       <path id="DejaVuSans-6f" d="M 1959 3097 
Q 1497 3097 1228 2736 
Q 959 2375 959 1747 
Q 959 1119 1226 758 
Q 1494 397 1959 397 
Q 2419 397 2687 759 
Q 2956 1122 2956 1747 
Q 2956 2369 2687 2733 
Q 2419 3097 1959 3097 
z
M 1959 3584 
Q 2709 3584 3137 3096 
Q 3566 2609 3566 1747 
Q 3566 888 3137 398 
Q 2709 -91 1959 -91 
Q 1206 -91 779 398 
Q 353 888 353 1747 
Q 353 2609 779 3096 
Q 1206 3584 1959 3584 
z
" transform="scale(0.015625)"/>
      </defs>
      <use xlink:href="#DejaVuSans-72"/>
      <use xlink:href="#DejaVuSans-6f" x="38.863281"/>
      <use xlink:href="#DejaVuSans-74" x="100.044922"/>
      <use xlink:href="#DejaVuSans-2e" x="139.253906"/>
      <use xlink:href="#DejaVuSans-20" x="171.041016"/>
      <use xlink:href="#DejaVuSans-76" x="202.828125"/>
      <use xlink:href="#DejaVuSans-65" x="262.007812"/>
      <use xlink:href="#DejaVuSans-6c" x="323.53125"/>
      <use xlink:href="#DejaVuSans-2e" x="351.314453"/>
      <use xlink:href="#DejaVuSans-20" x="383.101562"/>
      <use xlink:href="#DejaVuSans-5b" x="414.888672"/>
      <use xlink:href="#DejaVuSans-72" x="453.902344"/>
      <use xlink:href="#DejaVuSans-61" x="495.015625"/>
      <use xlink:href="#DejaVuSans-64" x="556.294922"/>
      <use xlink:href="#DejaVuSans-2f" x="619.771484"/>
      <use xlink:href="#DejaVuSans-73" x="653.462891"/>
      <use xlink:href="#DejaVuSans-5d" x="705.5625"/>
     </g>
    </g>
   </g>
   <g id="line2d_49">
    <path d="M 68.721733 249.575732 
L 431.843892 249.575732 
L 431.843892 249.575732 
" clip-path="url(#p7b8cf2df89)" style="fill: none; stroke: #1f77b4; stroke-width: 1.5; stroke-linecap: square"/>
   </g>
   <g id="line2d_50">
    <path d="M 68.721733 249.575732 
L 70.387431 249.433189 
L 70.942664 249.954887 
L 71.497896 250.21572 
L 72.053129 250.337638 
L 72.608362 250.337638 
L 73.163594 250.21572 
L 73.718827 250.21572 
L 74.27406 250.076805 
L 75.939758 250.094129 
L 76.49499 251.050842 
L 77.050223 257.554336 
L 77.605456 259.433769 
L 78.160688 260.094022 
L 79.271153 258.16556 
L 79.826386 258.773516 
L 80.381619 259.103642 
L 81.492084 258.008668 
L 82.047317 258.632967 
L 82.602549 261.313203 
L 83.157782 262.00941 
L 83.713015 262.198988 
L 84.268247 259.695255 
L 84.82348 250.163749 
L 85.378713 248.424538 
L 85.933945 249.781064 
L 86.489178 252.076849 
L 87.044411 257.312461 
L 87.599643 257.884462 
L 88.710109 262.198988 
L 89.265341 269.608859 
L 89.820574 271.435995 
L 90.375807 278.617065 
L 90.931039 283.144048 
L 92.041505 285.46474 
L 92.596737 283.993879 
L 93.15197 285.987713 
L 93.707203 289.779266 
L 94.262435 295.956882 
L 94.817668 295.368538 
L 95.372901 291.152069 
L 95.928133 293.276646 
L 96.483366 296.90477 
L 97.038599 298.604432 
L 97.593831 298.048773 
L 98.149064 297.721915 
L 98.704297 292.328758 
L 99.259529 290.106124 
L 99.814762 285.824284 
L 100.369995 285.922341 
L 100.925227 288.635263 
L 101.48046 289.844637 
L 102.035693 284.386109 
L 102.590925 280.391904 
L 103.146158 274.201213 
L 103.70139 272.338123 
L 104.256623 262.826555 
L 104.811856 256.008297 
L 105.367088 253.782394 
L 105.922321 247.937519 
L 106.477554 246.319899 
L 107.032786 242.633268 
L 107.588019 241.642888 
L 108.143252 235.363946 
L 108.698484 186.688252 
L 109.253717 181.818068 
L 109.80895 203.390696 
L 110.364182 218.769365 
L 110.919415 217.151418 
L 111.474648 214.732669 
L 112.02988 213.16375 
L 113.695578 203.488754 
L 114.250811 206.561219 
L 114.806044 208.65311 
L 115.361276 205.515273 
L 115.916509 204.240527 
L 116.471742 205.057672 
L 117.026974 207.280306 
L 117.582207 205.907503 
L 118.13744 200.677775 
L 119.247905 202.606237 
L 119.803138 215.419071 
L 120.35837 218.648428 
L 120.913603 215.876672 
L 121.468836 215.157584 
L 122.024068 221.01488 
L 123.134534 226.090984 
L 123.689766 224.770478 
L 124.244999 221.691476 
L 124.800232 223.29308 
L 125.355464 229.519725 
L 125.910697 233.919233 
L 126.46593 246.459141 
L 127.021162 241.848809 
L 127.576395 230.039429 
L 128.131627 228.77122 
L 128.68686 235.1711 
L 129.242093 239.606563 
L 129.797325 249.033147 
L 130.352558 252.807377 
L 130.907791 253.223467 
L 131.463023 249.850619 
L 132.018256 242.894754 
L 132.573489 242.580971 
L 133.128721 241.832466 
L 133.683954 245.71227 
L 134.239187 252.14647 
L 134.794419 252.89334 
L 135.349652 251.624805 
L 135.904885 251.676775 
L 136.460117 257.936759 
L 137.01535 259.816193 
L 137.570583 264.581783 
L 138.125815 264.63408 
L 139.791513 274.479043 
L 140.346746 273.95607 
L 140.901979 275.992395 
L 141.457211 277.381542 
L 142.012444 284.811024 
L 142.567677 285.46474 
L 143.122909 279.816634 
L 143.678142 278.355579 
L 144.233375 274.982404 
L 144.788607 274.165259 
L 145.34384 276.443459 
L 145.899073 277.433839 
L 146.454305 277.505748 
L 147.009538 275.52172 
L 147.564771 268.494273 
L 148.120003 266.111478 
L 148.675236 259.22458 
L 149.230469 260.911167 
L 149.785701 258.842156 
L 150.340934 257.276506 
L 150.896167 250.424582 
L 151.451399 248.563452 
L 152.006632 244.56173 
L 152.561864 247.224315 
L 153.117097 246.493788 
L 154.227562 248.146055 
L 154.782795 247.520122 
L 155.338028 243.675945 
L 155.89326 243.329475 
L 156.448493 245.362532 
L 157.003726 244.581341 
L 157.558958 239.01495 
L 158.114191 236.700795 
L 158.669424 228.163264 
L 159.224656 227.656634 
L 159.779889 225.031964 
L 160.335122 226.597614 
L 160.890354 226.960427 
L 161.445587 226.597614 
L 163.111285 221.204457 
L 163.666518 221.570538 
L 164.22175 223.655892 
L 164.776983 223.466315 
L 165.887448 231.065763 
L 166.442681 244.042026 
L 167.553146 246.406843 
L 168.108379 246.685326 
L 168.663612 246.284272 
L 169.218844 244.963765 
L 169.774077 242.665954 
L 170.32931 244.267558 
L 170.884542 249.554947 
L 171.439775 250.28534 
L 171.995008 252.616165 
L 172.55024 253.311719 
L 173.105473 253.10253 
L 173.660706 254.704134 
L 174.215938 254.632225 
L 174.771171 256.841785 
L 175.326404 263.398557 
L 175.881636 264.130718 
L 176.436869 265.696368 
L 176.992101 268.007254 
L 177.547334 271.939356 
L 178.102567 274.825512 
L 178.657799 276.16563 
L 179.213032 277.139667 
L 179.768265 278.584379 
L 180.323497 276.23427 
L 180.87873 267.938614 
L 181.433963 268.461587 
L 181.989195 275.626314 
L 182.544428 274.982404 
L 183.099661 266.546199 
L 184.210126 260.754275 
L 184.765359 261.3655 
L 185.320591 258.423778 
L 185.875824 257.381101 
L 186.431057 255.956 
L 186.986289 255.956 
L 187.541522 254.929666 
L 188.096755 253.050232 
L 188.651987 252.650812 
L 189.20722 252.476923 
L 189.762453 248.98085 
L 190.317685 247.798278 
L 190.872918 246.215631 
L 191.428151 245.78091 
L 191.983383 242.979737 
L 192.538616 242.21489 
L 193.093849 239.900735 
L 193.649081 238.73712 
L 194.204314 231.572393 
L 194.759547 230.804277 
L 195.314779 228.12731 
L 195.870012 227.346119 
L 196.425245 226.179236 
L 196.980477 226.090984 
L 197.53571 228.267859 
L 198.090943 231.033077 
L 198.646175 230.892528 
L 199.201408 228.493391 
L 199.756641 221.518241 
L 200.311873 222.439981 
L 200.867106 228.735266 
L 201.422338 229.970789 
L 201.977571 232.474521 
L 202.532804 234.233017 
L 203.088036 235.396632 
L 203.643269 235.050162 
L 204.753734 239.972644 
L 205.308967 239.7275 
L 205.8642 239.606563 
L 206.974665 248.581103 
L 207.529898 249.937564 
L 208.08513 246.911185 
L 208.640363 243.152972 
L 209.195596 245.937802 
L 209.750828 252.772403 
L 210.306061 253.81508 
L 210.861294 252.912952 
L 211.416526 252.965249 
L 211.971759 257.832165 
L 212.526992 260.041725 
L 213.082224 265.225693 
L 213.637457 266.722702 
L 214.747922 278.234641 
L 215.303155 278.130047 
L 215.858388 279.486507 
L 216.41362 276.479414 
L 216.968853 274.966061 
L 217.524086 271.3314 
L 218.079318 271.74651 
L 218.634551 271.74651 
L 219.189784 270.965319 
L 219.745016 268.791714 
L 220.300249 267.105126 
L 220.855482 264.163404 
L 221.410714 263.434511 
L 221.965947 259.590661 
L 222.52118 259.035002 
L 223.076412 255.400341 
L 223.631645 254.73682 
L 224.186878 255.03426 
L 224.74211 254.112521 
L 225.297343 253.468611 
L 225.852575 251.189757 
L 226.407808 250.511526 
L 226.963041 250.650768 
L 227.518273 248.9985 
L 228.073506 243.381773 
L 228.628739 241.623277 
L 229.183971 236.632155 
L 230.294437 232.598727 
L 230.849669 231.830611 
L 231.404902 224.718181 
L 231.960135 224.299803 
L 232.515367 226.283831 
L 233.0706 227.378805 
L 233.625833 231.274952 
L 234.181065 231.676988 
L 235.291531 233.935576 
L 235.846763 235.292037 
L 236.401996 233.814639 
L 237.512461 237.050533 
L 238.067694 238.459291 
L 238.622927 237.710786 
L 239.178159 238.459291 
L 240.288625 237.51794 
L 240.843857 237.292408 
L 241.954323 240.5806 
L 242.509555 243.50271 
L 243.064788 244.581341 
L 243.620021 246.303883 
L 244.175253 246.980806 
L 244.730486 246.406843 
L 245.285719 246.199289 
L 246.396184 251.572507 
L 246.951417 259.15594 
L 247.506649 259.191894 
L 248.061882 257.799479 
L 248.617115 258.443389 
L 249.172347 260.319554 
L 249.72758 263.208979 
L 250.282813 263.695997 
L 250.838045 264.774629 
L 251.393278 265.34663 
L 251.94851 268.582524 
L 252.503743 267.660785 
L 253.058976 267.190109 
L 253.614208 266.565811 
L 254.169441 267.696739 
L 254.724674 267.644442 
L 255.279906 269.903031 
L 255.835139 269.069543 
L 256.390372 266.252027 
L 256.945604 259.244191 
L 257.500837 258.704876 
L 259.166535 253.919675 
L 260.277 255.102901 
L 261.387466 257.711227 
L 261.942698 257.103271 
L 262.497931 251.607154 
L 263.053164 244.42445 
L 263.608396 245.71227 
L 264.163629 250.128775 
L 264.718862 250.720388 
L 265.274094 242.424079 
L 266.38456 237.171471 
L 266.939792 237.328362 
L 267.495025 238.858058 
L 268.050258 238.057256 
L 268.60549 232.092097 
L 269.160723 230.755248 
L 269.715956 232.598727 
L 270.271188 234.023828 
L 270.826421 236.563515 
L 271.381654 237.642146 
L 271.936886 241.832466 
L 273.047352 239.050904 
L 273.602584 239.345076 
L 274.157817 239.361419 
L 274.71305 240.423708 
L 275.268282 241.884763 
L 275.823515 241.15587 
L 276.93398 241.15587 
L 278.044445 243.659602 
L 278.599678 245.588064 
L 279.154911 245.414829 
L 279.710143 244.823216 
L 280.820609 247.937519 
L 281.375841 250.250693 
L 281.931074 254.338053 
L 283.041539 259.678913 
L 283.596772 259.747553 
L 284.152005 261.139968 
L 284.707237 261.695626 
L 285.26247 261.313203 
L 285.817703 261.973456 
L 286.372935 261.921158 
L 286.928168 261.728312 
L 287.483401 263.084773 
L 288.038633 265.173396 
L 288.593866 268.389678 
L 289.149099 265.121098 
L 289.704331 263.71234 
L 290.259564 263.120727 
L 290.814797 264.947863 
L 291.370029 268.425633 
L 292.480495 264.147061 
L 293.035727 263.764638 
L 293.59096 261.780609 
L 294.146193 259.345517 
L 294.701425 258.616624 
L 295.256658 256.269784 
L 295.811891 255.730468 
L 296.922356 256.269784 
L 298.032821 253.328062 
L 298.588054 249.207036 
L 299.143287 247.832925 
L 299.698519 242.267187 
L 300.253752 241.973015 
L 300.808984 241.276807 
L 301.364217 239.920346 
L 301.91945 236.337983 
L 302.474682 234.18072 
L 303.029915 232.700053 
L 303.585148 231.866565 
L 304.14038 229.797554 
L 304.695613 231.291295 
L 305.250846 233.170729 
L 305.806078 230.144024 
L 306.361311 228.12731 
L 306.916544 230.33687 
L 307.471776 235.919604 
L 308.027009 237.155128 
L 308.582242 235.935947 
L 309.137474 236.056885 
L 309.692707 235.88365 
L 310.24794 234.981522 
L 310.803172 234.422595 
L 311.358405 235.726758 
L 311.913638 235.88365 
L 313.024103 236.998236 
L 313.579336 236.753092 
L 314.134568 235.154757 
L 314.689801 234.929225 
L 315.800266 241.031664 
L 316.355499 248.963527 
L 316.910732 249.83323 
L 317.465964 251.137786 
L 318.021197 251.102812 
L 318.57643 249.885397 
L 319.131662 251.850663 
L 319.686895 259.119985 
L 320.242128 261.381843 
L 320.79736 265.974198 
L 321.352593 264.964206 
L 321.907826 262.774258 
L 322.463058 264.738674 
L 323.018291 269.870345 
L 323.573524 270.514255 
L 324.128756 267.850363 
L 324.683989 266.876326 
L 325.239221 270.514255 
L 325.794454 275.296188 
L 326.349687 276.322522 
L 326.904919 276.149287 
L 327.460152 280.339607 
L 328.015385 281.817005 
L 328.570617 285.726227 
L 329.12585 284.22268 
L 329.681083 282.009851 
L 330.236315 282.147131 
L 330.791548 275.851846 
L 331.346781 272.861096 
L 331.902013 265.748666 
L 332.457246 266.895937 
L 333.012479 269.540218 
L 333.567711 269.138183 
L 334.122944 260.061336 
L 335.233409 253.991583 
L 335.788642 253.886989 
L 336.343875 254.269413 
L 336.899107 254.197504 
L 338.009573 242.564628 
L 338.564805 238.926698 
L 339.120038 239.747112 
L 339.675271 238.527931 
L 340.230503 238.16185 
L 340.785736 232.180349 
L 341.340969 228.300544 
L 341.896201 221.204457 
L 343.006667 223.047936 
L 343.561899 219.360978 
L 344.117132 207.01882 
L 344.672365 205.940189 
L 345.227597 202.835038 
L 345.78283 202.965781 
L 346.338063 209.176083 
L 346.893295 210.875744 
L 347.448528 219.501527 
L 348.003761 225.849109 
L 348.558993 246.563408 
L 349.114226 251.189757 
L 349.669458 264.006512 
L 350.224691 271.661527 
L 350.779924 273.155268 
L 351.335156 272.929736 
L 351.890389 271.730167 
L 352.445622 267.435253 
L 353.000854 266.304324 
L 353.556087 264.424891 
L 354.11132 265.330287 
L 354.666552 265.572162 
L 355.221785 266.670405 
L 355.777018 268.304695 
L 356.33225 268.095506 
L 356.887483 266.287981 
L 357.442716 266.807686 
L 357.997948 270.409661 
L 359.108414 273.331771 
L 360.218879 272.668249 
L 360.774112 271.74651 
L 361.329344 270.079534 
L 361.884577 269.608859 
L 362.43981 268.441976 
L 362.995042 266.964577 
L 363.550275 260.21496 
L 364.105508 256.129235 
L 364.66074 245.172954 
L 365.215973 237.4493 
L 365.771206 234.752721 
L 366.326438 233.049791 
L 366.881671 233.866936 
L 367.436904 235.641775 
L 367.992136 236.213777 
L 368.547369 238.197805 
L 369.102602 239.01495 
L 369.657834 242.979737 
L 370.213067 244.842828 
L 370.7683 246.284272 
L 371.323532 244.947422 
L 371.878765 246.493788 
L 372.433998 248.372241 
L 372.98923 251.172433 
L 373.544463 250.702738 
L 374.099695 248.337594 
L 374.654928 247.780954 
L 375.210161 245.970488 
L 375.765393 245.398486 
L 376.320626 246.042397 
L 376.875859 247.346233 
L 377.431091 249.311467 
L 377.986324 248.876582 
L 378.541557 248.285296 
L 379.096789 249.067794 
L 379.652022 251.172433 
L 380.207255 251.172433 
L 380.762487 249.694087 
L 381.31772 248.789638 
L 381.872953 246.911185 
L 382.428185 246.303883 
L 382.983418 244.754576 
L 383.538651 244.355809 
L 384.093883 244.666325 
L 384.649116 246.163334 
L 385.204349 246.372196 
L 386.314814 246.12738 
L 387.425279 246.580732 
L 387.980512 246.928836 
L 388.535745 247.033103 
L 389.090977 247.780954 
L 389.64621 248.267973 
L 390.201443 249.554947 
L 390.756675 250.128775 
L 391.311908 251.607154 
L 391.867141 251.729072 
L 392.422373 251.311675 
L 393.532839 250.007184 
L 394.088071 249.728865 
L 394.643304 249.085445 
L 395.198537 248.893906 
L 395.753769 248.337594 
L 396.309002 248.232999 
L 396.864235 248.00714 
L 398.529932 247.902546 
L 399.640398 248.181029 
L 400.750863 248.754991 
L 401.306096 249.92024 
L 401.861328 250.21572 
L 402.416561 251.120136 
L 402.971794 251.294351 
L 403.527026 251.781043 
L 404.082259 251.972581 
L 404.637492 251.989905 
L 405.747957 251.850663 
L 406.858422 251.798693 
L 407.413655 251.694098 
L 408.52412 251.189757 
L 409.634586 248.30262 
L 410.745051 246.094694 
L 411.300284 245.640361 
L 411.855516 244.649982 
L 412.410749 244.460404 
L 412.965982 244.110666 
L 413.521214 244.110666 
L 414.63168 244.319855 
L 415.186912 244.738233 
L 415.742145 244.927811 
L 416.297378 245.555378 
L 416.85261 245.78091 
L 417.407843 246.546085 
L 417.963076 246.789594 
L 418.518308 247.572092 
L 419.073541 247.832925 
L 419.628774 248.685371 
L 420.184006 248.963527 
L 420.739239 249.694087 
L 421.294472 249.92024 
L 421.849704 250.563823 
L 422.404937 250.789682 
L 422.960169 251.172433 
L 425.736333 251.572507 
L 426.291565 251.242054 
L 426.846798 251.102812 
L 427.402031 250.581147 
L 427.957263 250.441905 
L 428.512496 250.041831 
L 430.178194 249.885397 
L 431.288659 250.024508 
L 431.843892 250.111452 
L 431.843892 250.111452 
" clip-path="url(#p7b8cf2df89)" style="fill: none; stroke: #ff7f0e; stroke-width: 1.5; stroke-linecap: square"/>
   </g>
   <g id="patch_9">
    <path d="M 50.565625 304.44375 
L 50.565625 175.97875 
" style="fill: none; stroke: #000000; stroke-width: 0.8; stroke-linejoin: miter; stroke-linecap: square"/>
   </g>
   <g id="patch_10">
    <path d="M 450 304.44375 
L 450 175.97875 
" style="fill: none; stroke: #000000; stroke-width: 0.8; stroke-linejoin: miter; stroke-linecap: square"/>
   </g>
   <g id="patch_11">
    <path d="M 50.565625 304.44375 
L 450 304.44375 
" style="fill: none; stroke: #000000; stroke-width: 0.8; stroke-linejoin: miter; stroke-linecap: square"/>
   </g>
   <g id="patch_12">
    <path d="M 50.565625 175.97875 
L 450 175.97875 
" style="fill: none; stroke: #000000; stroke-width: 0.8; stroke-linejoin: miter; stroke-linecap: square"/>
   </g>
   <g id="legend_2">
    <g id="patch_13">
     <path d="M 360.482812 213.335 
L 443 213.335 
Q 445 213.335 445 211.335 
L 445 182.97875 
Q 445 180.97875 443 180.97875 
L 360.482812 180.97875 
Q 358.482812 180.97875 358.482812 182.97875 
L 358.482812 211.335 
Q 358.482812 213.335 360.482812 213.335 
z
" style="fill: #ffffff; opacity: 0.8; stroke: #cccccc; stroke-linejoin: miter"/>
    </g>
    <g id="line2d_51">
     <path d="M 362.482812 189.077187 
L 372.482812 189.077187 
L 382.482812 189.077187 
" style="fill: none; stroke: #1f77b4; stroke-width: 1.5; stroke-linecap: square"/>
    </g>
    <g id="text_21">
     <!-- Reference -->
     <g transform="translate(390.482812 192.577187)scale(0.1 -0.1)">
      <use xlink:href="#DejaVuSans-52"/>
      <use xlink:href="#DejaVuSans-65" x="64.982422"/>
      <use xlink:href="#DejaVuSans-66" x="126.505859"/>
      <use xlink:href="#DejaVuSans-65" x="161.710938"/>
      <use xlink:href="#DejaVuSans-72" x="223.234375"/>
      <use xlink:href="#DejaVuSans-65" x="262.097656"/>
      <use xlink:href="#DejaVuSans-6e" x="323.621094"/>
      <use xlink:href="#DejaVuSans-63" x="387"/>
      <use xlink:href="#DejaVuSans-65" x="441.980469"/>
     </g>
    </g>
    <g id="line2d_52">
     <path d="M 362.482812 203.755312 
L 372.482812 203.755312 
L 382.482812 203.755312 
" style="fill: none; stroke: #ff7f0e; stroke-width: 1.5; stroke-linecap: square"/>
    </g>
    <g id="text_22">
     <!-- Estimated -->
     <g transform="translate(390.482812 207.255312)scale(0.1 -0.1)">
      <use xlink:href="#DejaVuSans-45"/>
      <use xlink:href="#DejaVuSans-73" x="63.183594"/>
      <use xlink:href="#DejaVuSans-74" x="115.283203"/>
      <use xlink:href="#DejaVuSans-69" x="154.492188"/>
      <use xlink:href="#DejaVuSans-6d" x="182.275391"/>
      <use xlink:href="#DejaVuSans-61" x="279.6875"/>
      <use xlink:href="#DejaVuSans-74" x="340.966797"/>
      <use xlink:href="#DejaVuSans-65" x="380.175781"/>
      <use xlink:href="#DejaVuSans-64" x="441.699219"/>
     </g>
    </g>
   </g>
  </g>
  <g id="text_23">
   <!-- Translational and Rotational Velocity -->
   <g transform="translate(121.384688 16.030125)scale(0.12 -0.12)">
    <defs>
     <path id="DejaVuSans-56" d="M 1831 0 
L 50 4666 
L 709 4666 
L 2188 738 
L 3669 4666 
L 4325 4666 
L 2547 0 
L 1831 0 
z
" transform="scale(0.015625)"/>
     <path id="DejaVuSans-79" d="M 2059 -325 
Q 1816 -950 1584 -1140 
Q 1353 -1331 966 -1331 
L 506 -1331 
L 506 -850 
L 844 -850 
Q 1081 -850 1212 -737 
Q 1344 -625 1503 -206 
L 1606 56 
L 191 3500 
L 800 3500 
L 1894 763 
L 2988 3500 
L 3597 3500 
L 2059 -325 
z
" transform="scale(0.015625)"/>
    </defs>
    <use xlink:href="#DejaVuSans-54"/>
    <use xlink:href="#DejaVuSans-72" x="46.333984"/>
    <use xlink:href="#DejaVuSans-61" x="87.447266"/>
    <use xlink:href="#DejaVuSans-6e" x="148.726562"/>
    <use xlink:href="#DejaVuSans-73" x="212.105469"/>
    <use xlink:href="#DejaVuSans-6c" x="264.205078"/>
    <use xlink:href="#DejaVuSans-61" x="291.988281"/>
    <use xlink:href="#DejaVuSans-74" x="353.267578"/>
    <use xlink:href="#DejaVuSans-69" x="392.476562"/>
    <use xlink:href="#DejaVuSans-6f" x="420.259766"/>
    <use xlink:href="#DejaVuSans-6e" x="481.441406"/>
    <use xlink:href="#DejaVuSans-61" x="544.820312"/>
    <use xlink:href="#DejaVuSans-6c" x="606.099609"/>
    <use xlink:href="#DejaVuSans-20" x="633.882812"/>
    <use xlink:href="#DejaVuSans-61" x="665.669922"/>
    <use xlink:href="#DejaVuSans-6e" x="726.949219"/>
    <use xlink:href="#DejaVuSans-64" x="790.328125"/>
    <use xlink:href="#DejaVuSans-20" x="853.804688"/>
    <use xlink:href="#DejaVuSans-52" x="885.591797"/>
    <use xlink:href="#DejaVuSans-6f" x="950.574219"/>
    <use xlink:href="#DejaVuSans-74" x="1011.755859"/>
    <use xlink:href="#DejaVuSans-61" x="1050.964844"/>
    <use xlink:href="#DejaVuSans-74" x="1112.244141"/>
    <use xlink:href="#DejaVuSans-69" x="1151.453125"/>
    <use xlink:href="#DejaVuSans-6f" x="1179.236328"/>
    <use xlink:href="#DejaVuSans-6e" x="1240.417969"/>
    <use xlink:href="#DejaVuSans-61" x="1303.796875"/>
    <use xlink:href="#DejaVuSans-6c" x="1365.076172"/>
    <use xlink:href="#DejaVuSans-20" x="1392.859375"/>
    <use xlink:href="#DejaVuSans-56" x="1424.646484"/>
    <use xlink:href="#DejaVuSans-65" x="1485.304688"/>
    <use xlink:href="#DejaVuSans-6c" x="1546.828125"/>
    <use xlink:href="#DejaVuSans-6f" x="1574.611328"/>
    <use xlink:href="#DejaVuSans-63" x="1635.792969"/>
    <use xlink:href="#DejaVuSans-69" x="1690.773438"/>
    <use xlink:href="#DejaVuSans-74" x="1718.556641"/>
    <use xlink:href="#DejaVuSans-79" x="1757.765625"/>
   </g>
  </g>
 </g>
 <defs>
  <clipPath id="p83dd123322">
   <rect x="50.565625" y="33.21375" width="399.434375" height="128.465"/>
  </clipPath>
  <clipPath id="p7b8cf2df89">
   <rect x="50.565625" y="175.97875" width="399.434375" height="128.465"/>
  </clipPath>
 </defs>
</svg>
