<?xml version="1.0" encoding="utf-8" standalone="no"?>
<!DOCTYPE svg PUBLIC "-//W3C//DTD SVG 1.1//EN"
  "http://www.w3.org/Graphics/SVG/1.1/DTD/svg11.dtd">
<svg xmlns:xlink="http://www.w3.org/1999/xlink" width="576pt" height="720pt" viewBox="0 0 576 720" xmlns="http://www.w3.org/2000/svg" version="1.1">
 <metadata>
  <rdf:RDF xmlns:dc="http://purl.org/dc/elements/1.1/" xmlns:cc="http://creativecommons.org/ns#" xmlns:rdf="http://www.w3.org/1999/02/22-rdf-syntax-ns#">
   <cc:Work>
    <dc:type rdf:resource="http://purl.org/dc/dcmitype/StillImage"/>
    <dc:date>2022-01-09T00:39:37.071063</dc:date>
    <dc:format>image/svg+xml</dc:format>
    <dc:creator>
     <cc:Agent>
      <dc:title>Matplotlib v3.5.1, https://matplotlib.org/</dc:title>
     </cc:Agent>
    </dc:creator>
   </cc:Work>
  </rdf:RDF>
 </metadata>
 <defs>
  <style type="text/css">*{stroke-linejoin: round; stroke-linecap: butt}</style>
 </defs>
 <g id="figure_1">
  <g id="patch_1">
   <path d="M 0 720 
L 576 720 
L 576 0 
L 0 0 
z
" style="fill: #ffffff"/>
  </g>
  <g id="axes_1">
   <g id="patch_2">
    <path d="M 59.42 323.44 
L 565.2 323.44 
L 565.2 25.44 
L 59.42 25.44 
z
" style="fill: #ffffff"/>
   </g>
   <g id="matplotlib.axis_1">
    <g id="xtick_1">
     <g id="line2d_1">
      <path d="M 82.41 323.44 
L 82.41 25.44 
" clip-path="url(#p678cba97f0)" style="fill: none; stroke: #b0b0b0; stroke-width: 0.8; stroke-linecap: square"/>
     </g>
     <g id="line2d_2">
      <defs>
       <path id="m3ae812cf6f" d="M 0 0 
L 0 3.5 
" style="stroke: #000000; stroke-width: 0.8"/>
      </defs>
      <g>
       <use xlink:href="#m3ae812cf6f" x="82.41" y="323.44" style="stroke: #000000; stroke-width: 0.8"/>
      </g>
     </g>
     <g id="text_1">
      <!-- 0 -->
      <g transform="translate(79.22875 338.038438)scale(0.1 -0.1)">
       <defs>
        <path id="DejaVuSans-30" d="M 2034 4250 
Q 1547 4250 1301 3770 
Q 1056 3291 1056 2328 
Q 1056 1369 1301 889 
Q 1547 409 2034 409 
Q 2525 409 2770 889 
Q 3016 1369 3016 2328 
Q 3016 3291 2770 3770 
Q 2525 4250 2034 4250 
z
M 2034 4750 
Q 2819 4750 3233 4129 
Q 3647 3509 3647 2328 
Q 3647 1150 3233 529 
Q 2819 -91 2034 -91 
Q 1250 -91 836 529 
Q 422 1150 422 2328 
Q 422 3509 836 4129 
Q 1250 4750 2034 4750 
z
" transform="scale(0.015625)"/>
       </defs>
       <use xlink:href="#DejaVuSans-30"/>
      </g>
     </g>
    </g>
    <g id="xtick_2">
     <g id="line2d_3">
      <path d="M 167.558148 323.44 
L 167.558148 25.44 
" clip-path="url(#p678cba97f0)" style="fill: none; stroke: #b0b0b0; stroke-width: 0.8; stroke-linecap: square"/>
     </g>
     <g id="line2d_4">
      <g>
       <use xlink:href="#m3ae812cf6f" x="167.558148" y="323.44" style="stroke: #000000; stroke-width: 0.8"/>
      </g>
     </g>
     <g id="text_2">
      <!-- 50 -->
      <g transform="translate(161.195648 338.038438)scale(0.1 -0.1)">
       <defs>
        <path id="DejaVuSans-35" d="M 691 4666 
L 3169 4666 
L 3169 4134 
L 1269 4134 
L 1269 2991 
Q 1406 3038 1543 3061 
Q 1681 3084 1819 3084 
Q 2600 3084 3056 2656 
Q 3513 2228 3513 1497 
Q 3513 744 3044 326 
Q 2575 -91 1722 -91 
Q 1428 -91 1123 -41 
Q 819 9 494 109 
L 494 744 
Q 775 591 1075 516 
Q 1375 441 1709 441 
Q 2250 441 2565 725 
Q 2881 1009 2881 1497 
Q 2881 1984 2565 2268 
Q 2250 2553 1709 2553 
Q 1456 2553 1204 2497 
Q 953 2441 691 2322 
L 691 4666 
z
" transform="scale(0.015625)"/>
       </defs>
       <use xlink:href="#DejaVuSans-35"/>
       <use xlink:href="#DejaVuSans-30" x="63.623047"/>
      </g>
     </g>
    </g>
    <g id="xtick_3">
     <g id="line2d_5">
      <path d="M 252.706296 323.44 
L 252.706296 25.44 
" clip-path="url(#p678cba97f0)" style="fill: none; stroke: #b0b0b0; stroke-width: 0.8; stroke-linecap: square"/>
     </g>
     <g id="line2d_6">
      <g>
       <use xlink:href="#m3ae812cf6f" x="252.706296" y="323.44" style="stroke: #000000; stroke-width: 0.8"/>
      </g>
     </g>
     <g id="text_3">
      <!-- 100 -->
      <g transform="translate(243.162546 338.038438)scale(0.1 -0.1)">
       <defs>
        <path id="DejaVuSans-31" d="M 794 531 
L 1825 531 
L 1825 4091 
L 703 3866 
L 703 4441 
L 1819 4666 
L 2450 4666 
L 2450 531 
L 3481 531 
L 3481 0 
L 794 0 
L 794 531 
z
" transform="scale(0.015625)"/>
       </defs>
       <use xlink:href="#DejaVuSans-31"/>
       <use xlink:href="#DejaVuSans-30" x="63.623047"/>
       <use xlink:href="#DejaVuSans-30" x="127.246094"/>
      </g>
     </g>
    </g>
    <g id="xtick_4">
     <g id="line2d_7">
      <path d="M 337.854444 323.44 
L 337.854444 25.44 
" clip-path="url(#p678cba97f0)" style="fill: none; stroke: #b0b0b0; stroke-width: 0.8; stroke-linecap: square"/>
     </g>
     <g id="line2d_8">
      <g>
       <use xlink:href="#m3ae812cf6f" x="337.854444" y="323.44" style="stroke: #000000; stroke-width: 0.8"/>
      </g>
     </g>
     <g id="text_4">
      <!-- 150 -->
      <g transform="translate(328.310694 338.038438)scale(0.1 -0.1)">
       <use xlink:href="#DejaVuSans-31"/>
       <use xlink:href="#DejaVuSans-35" x="63.623047"/>
       <use xlink:href="#DejaVuSans-30" x="127.246094"/>
      </g>
     </g>
    </g>
    <g id="xtick_5">
     <g id="line2d_9">
      <path d="M 423.002593 323.44 
L 423.002593 25.44 
" clip-path="url(#p678cba97f0)" style="fill: none; stroke: #b0b0b0; stroke-width: 0.8; stroke-linecap: square"/>
     </g>
     <g id="line2d_10">
      <g>
       <use xlink:href="#m3ae812cf6f" x="423.002593" y="323.44" style="stroke: #000000; stroke-width: 0.8"/>
      </g>
     </g>
     <g id="text_5">
      <!-- 200 -->
      <g transform="translate(413.458843 338.038438)scale(0.1 -0.1)">
       <defs>
        <path id="DejaVuSans-32" d="M 1228 531 
L 3431 531 
L 3431 0 
L 469 0 
L 469 531 
Q 828 903 1448 1529 
Q 2069 2156 2228 2338 
Q 2531 2678 2651 2914 
Q 2772 3150 2772 3378 
Q 2772 3750 2511 3984 
Q 2250 4219 1831 4219 
Q 1534 4219 1204 4116 
Q 875 4013 500 3803 
L 500 4441 
Q 881 4594 1212 4672 
Q 1544 4750 1819 4750 
Q 2544 4750 2975 4387 
Q 3406 4025 3406 3419 
Q 3406 3131 3298 2873 
Q 3191 2616 2906 2266 
Q 2828 2175 2409 1742 
Q 1991 1309 1228 531 
z
" transform="scale(0.015625)"/>
       </defs>
       <use xlink:href="#DejaVuSans-32"/>
       <use xlink:href="#DejaVuSans-30" x="63.623047"/>
       <use xlink:href="#DejaVuSans-30" x="127.246094"/>
      </g>
     </g>
    </g>
    <g id="xtick_6">
     <g id="line2d_11">
      <path d="M 508.150741 323.44 
L 508.150741 25.44 
" clip-path="url(#p678cba97f0)" style="fill: none; stroke: #b0b0b0; stroke-width: 0.8; stroke-linecap: square"/>
     </g>
     <g id="line2d_12">
      <g>
       <use xlink:href="#m3ae812cf6f" x="508.150741" y="323.44" style="stroke: #000000; stroke-width: 0.8"/>
      </g>
     </g>
     <g id="text_6">
      <!-- 250 -->
      <g transform="translate(498.606991 338.038438)scale(0.1 -0.1)">
       <use xlink:href="#DejaVuSans-32"/>
       <use xlink:href="#DejaVuSans-35" x="63.623047"/>
       <use xlink:href="#DejaVuSans-30" x="127.246094"/>
      </g>
     </g>
    </g>
    <g id="text_7">
     <!-- x [mm] -->
     <g transform="translate(294.119375 351.716563)scale(0.1 -0.1)">
      <defs>
       <path id="DejaVuSans-78" d="M 3513 3500 
L 2247 1797 
L 3578 0 
L 2900 0 
L 1881 1375 
L 863 0 
L 184 0 
L 1544 1831 
L 300 3500 
L 978 3500 
L 1906 2253 
L 2834 3500 
L 3513 3500 
z
" transform="scale(0.015625)"/>
       <path id="DejaVuSans-20" transform="scale(0.015625)"/>
       <path id="DejaVuSans-5b" d="M 550 4863 
L 1875 4863 
L 1875 4416 
L 1125 4416 
L 1125 -397 
L 1875 -397 
L 1875 -844 
L 550 -844 
L 550 4863 
z
" transform="scale(0.015625)"/>
       <path id="DejaVuSans-6d" d="M 3328 2828 
Q 3544 3216 3844 3400 
Q 4144 3584 4550 3584 
Q 5097 3584 5394 3201 
Q 5691 2819 5691 2113 
L 5691 0 
L 5113 0 
L 5113 2094 
Q 5113 2597 4934 2840 
Q 4756 3084 4391 3084 
Q 3944 3084 3684 2787 
Q 3425 2491 3425 1978 
L 3425 0 
L 2847 0 
L 2847 2094 
Q 2847 2600 2669 2842 
Q 2491 3084 2119 3084 
Q 1678 3084 1418 2786 
Q 1159 2488 1159 1978 
L 1159 0 
L 581 0 
L 581 3500 
L 1159 3500 
L 1159 2956 
Q 1356 3278 1631 3431 
Q 1906 3584 2284 3584 
Q 2666 3584 2933 3390 
Q 3200 3197 3328 2828 
z
" transform="scale(0.015625)"/>
       <path id="DejaVuSans-5d" d="M 1947 4863 
L 1947 -844 
L 622 -844 
L 622 -397 
L 1369 -397 
L 1369 4416 
L 622 4416 
L 622 4863 
L 1947 4863 
z
" transform="scale(0.015625)"/>
      </defs>
      <use xlink:href="#DejaVuSans-78"/>
      <use xlink:href="#DejaVuSans-20" x="59.179688"/>
      <use xlink:href="#DejaVuSans-5b" x="90.966797"/>
      <use xlink:href="#DejaVuSans-6d" x="129.980469"/>
      <use xlink:href="#DejaVuSans-6d" x="227.392578"/>
      <use xlink:href="#DejaVuSans-5d" x="324.804688"/>
     </g>
    </g>
   </g>
   <g id="matplotlib.axis_2">
    <g id="ytick_1">
     <g id="line2d_13">
      <path d="M 59.42 310.177037 
L 565.2 310.177037 
" clip-path="url(#p678cba97f0)" style="fill: none; stroke: #b0b0b0; stroke-width: 0.8; stroke-linecap: square"/>
     </g>
     <g id="line2d_14">
      <defs>
       <path id="m08527a36cc" d="M 0 0 
L -3.5 0 
" style="stroke: #000000; stroke-width: 0.8"/>
      </defs>
      <g>
       <use xlink:href="#m08527a36cc" x="59.42" y="310.177037" style="stroke: #000000; stroke-width: 0.8"/>
      </g>
     </g>
     <g id="text_8">
      <!-- 0 -->
      <g transform="translate(46.0575 313.976255)scale(0.1 -0.1)">
       <use xlink:href="#DejaVuSans-30"/>
      </g>
     </g>
    </g>
    <g id="ytick_2">
     <g id="line2d_15">
      <path d="M 59.42 253.67879 
L 565.2 253.67879 
" clip-path="url(#p678cba97f0)" style="fill: none; stroke: #b0b0b0; stroke-width: 0.8; stroke-linecap: square"/>
     </g>
     <g id="line2d_16">
      <g>
       <use xlink:href="#m08527a36cc" x="59.42" y="253.67879" style="stroke: #000000; stroke-width: 0.8"/>
      </g>
     </g>
     <g id="text_9">
      <!-- 200 -->
      <g transform="translate(33.3325 257.478009)scale(0.1 -0.1)">
       <use xlink:href="#DejaVuSans-32"/>
       <use xlink:href="#DejaVuSans-30" x="63.623047"/>
       <use xlink:href="#DejaVuSans-30" x="127.246094"/>
      </g>
     </g>
    </g>
    <g id="ytick_3">
     <g id="line2d_17">
      <path d="M 59.42 197.180544 
L 565.2 197.180544 
" clip-path="url(#p678cba97f0)" style="fill: none; stroke: #b0b0b0; stroke-width: 0.8; stroke-linecap: square"/>
     </g>
     <g id="line2d_18">
      <g>
       <use xlink:href="#m08527a36cc" x="59.42" y="197.180544" style="stroke: #000000; stroke-width: 0.8"/>
      </g>
     </g>
     <g id="text_10">
      <!-- 400 -->
      <g transform="translate(33.3325 200.979763)scale(0.1 -0.1)">
       <defs>
        <path id="DejaVuSans-34" d="M 2419 4116 
L 825 1625 
L 2419 1625 
L 2419 4116 
z
M 2253 4666 
L 3047 4666 
L 3047 1625 
L 3713 1625 
L 3713 1100 
L 3047 1100 
L 3047 0 
L 2419 0 
L 2419 1100 
L 313 1100 
L 313 1709 
L 2253 4666 
z
" transform="scale(0.015625)"/>
       </defs>
       <use xlink:href="#DejaVuSans-34"/>
       <use xlink:href="#DejaVuSans-30" x="63.623047"/>
       <use xlink:href="#DejaVuSans-30" x="127.246094"/>
      </g>
     </g>
    </g>
    <g id="ytick_4">
     <g id="line2d_19">
      <path d="M 59.42 140.682298 
L 565.2 140.682298 
" clip-path="url(#p678cba97f0)" style="fill: none; stroke: #b0b0b0; stroke-width: 0.8; stroke-linecap: square"/>
     </g>
     <g id="line2d_20">
      <g>
       <use xlink:href="#m08527a36cc" x="59.42" y="140.682298" style="stroke: #000000; stroke-width: 0.8"/>
      </g>
     </g>
     <g id="text_11">
      <!-- 600 -->
      <g transform="translate(33.3325 144.481517)scale(0.1 -0.1)">
       <defs>
        <path id="DejaVuSans-36" d="M 2113 2584 
Q 1688 2584 1439 2293 
Q 1191 2003 1191 1497 
Q 1191 994 1439 701 
Q 1688 409 2113 409 
Q 2538 409 2786 701 
Q 3034 994 3034 1497 
Q 3034 2003 2786 2293 
Q 2538 2584 2113 2584 
z
M 3366 4563 
L 3366 3988 
Q 3128 4100 2886 4159 
Q 2644 4219 2406 4219 
Q 1781 4219 1451 3797 
Q 1122 3375 1075 2522 
Q 1259 2794 1537 2939 
Q 1816 3084 2150 3084 
Q 2853 3084 3261 2657 
Q 3669 2231 3669 1497 
Q 3669 778 3244 343 
Q 2819 -91 2113 -91 
Q 1303 -91 875 529 
Q 447 1150 447 2328 
Q 447 3434 972 4092 
Q 1497 4750 2381 4750 
Q 2619 4750 2861 4703 
Q 3103 4656 3366 4563 
z
" transform="scale(0.015625)"/>
       </defs>
       <use xlink:href="#DejaVuSans-36"/>
       <use xlink:href="#DejaVuSans-30" x="63.623047"/>
       <use xlink:href="#DejaVuSans-30" x="127.246094"/>
      </g>
     </g>
    </g>
    <g id="ytick_5">
     <g id="line2d_21">
      <path d="M 59.42 84.184052 
L 565.2 84.184052 
" clip-path="url(#p678cba97f0)" style="fill: none; stroke: #b0b0b0; stroke-width: 0.8; stroke-linecap: square"/>
     </g>
     <g id="line2d_22">
      <g>
       <use xlink:href="#m08527a36cc" x="59.42" y="84.184052" style="stroke: #000000; stroke-width: 0.8"/>
      </g>
     </g>
     <g id="text_12">
      <!-- 800 -->
      <g transform="translate(33.3325 87.98327)scale(0.1 -0.1)">
       <defs>
        <path id="DejaVuSans-38" d="M 2034 2216 
Q 1584 2216 1326 1975 
Q 1069 1734 1069 1313 
Q 1069 891 1326 650 
Q 1584 409 2034 409 
Q 2484 409 2743 651 
Q 3003 894 3003 1313 
Q 3003 1734 2745 1975 
Q 2488 2216 2034 2216 
z
M 1403 2484 
Q 997 2584 770 2862 
Q 544 3141 544 3541 
Q 544 4100 942 4425 
Q 1341 4750 2034 4750 
Q 2731 4750 3128 4425 
Q 3525 4100 3525 3541 
Q 3525 3141 3298 2862 
Q 3072 2584 2669 2484 
Q 3125 2378 3379 2068 
Q 3634 1759 3634 1313 
Q 3634 634 3220 271 
Q 2806 -91 2034 -91 
Q 1263 -91 848 271 
Q 434 634 434 1313 
Q 434 1759 690 2068 
Q 947 2378 1403 2484 
z
M 1172 3481 
Q 1172 3119 1398 2916 
Q 1625 2713 2034 2713 
Q 2441 2713 2670 2916 
Q 2900 3119 2900 3481 
Q 2900 3844 2670 4047 
Q 2441 4250 2034 4250 
Q 1625 4250 1398 4047 
Q 1172 3844 1172 3481 
z
" transform="scale(0.015625)"/>
       </defs>
       <use xlink:href="#DejaVuSans-38"/>
       <use xlink:href="#DejaVuSans-30" x="63.623047"/>
       <use xlink:href="#DejaVuSans-30" x="127.246094"/>
      </g>
     </g>
    </g>
    <g id="ytick_6">
     <g id="line2d_23">
      <path d="M 59.42 27.685805 
L 565.2 27.685805 
" clip-path="url(#p678cba97f0)" style="fill: none; stroke: #b0b0b0; stroke-width: 0.8; stroke-linecap: square"/>
     </g>
     <g id="line2d_24">
      <g>
       <use xlink:href="#m08527a36cc" x="59.42" y="27.685805" style="stroke: #000000; stroke-width: 0.8"/>
      </g>
     </g>
     <g id="text_13">
      <!-- 1000 -->
      <g transform="translate(26.97 31.485024)scale(0.1 -0.1)">
       <use xlink:href="#DejaVuSans-31"/>
       <use xlink:href="#DejaVuSans-30" x="63.623047"/>
       <use xlink:href="#DejaVuSans-30" x="127.246094"/>
       <use xlink:href="#DejaVuSans-30" x="190.869141"/>
      </g>
     </g>
    </g>
    <g id="text_14">
     <!-- reflector value -->
     <g transform="translate(20.890313 210.756406)rotate(-90)scale(0.1 -0.1)">
      <defs>
       <path id="DejaVuSans-72" d="M 2631 2963 
Q 2534 3019 2420 3045 
Q 2306 3072 2169 3072 
Q 1681 3072 1420 2755 
Q 1159 2438 1159 1844 
L 1159 0 
L 581 0 
L 581 3500 
L 1159 3500 
L 1159 2956 
Q 1341 3275 1631 3429 
Q 1922 3584 2338 3584 
Q 2397 3584 2469 3576 
Q 2541 3569 2628 3553 
L 2631 2963 
z
" transform="scale(0.015625)"/>
       <path id="DejaVuSans-65" d="M 3597 1894 
L 3597 1613 
L 953 1613 
Q 991 1019 1311 708 
Q 1631 397 2203 397 
Q 2534 397 2845 478 
Q 3156 559 3463 722 
L 3463 178 
Q 3153 47 2828 -22 
Q 2503 -91 2169 -91 
Q 1331 -91 842 396 
Q 353 884 353 1716 
Q 353 2575 817 3079 
Q 1281 3584 2069 3584 
Q 2775 3584 3186 3129 
Q 3597 2675 3597 1894 
z
M 3022 2063 
Q 3016 2534 2758 2815 
Q 2500 3097 2075 3097 
Q 1594 3097 1305 2825 
Q 1016 2553 972 2059 
L 3022 2063 
z
" transform="scale(0.015625)"/>
       <path id="DejaVuSans-66" d="M 2375 4863 
L 2375 4384 
L 1825 4384 
Q 1516 4384 1395 4259 
Q 1275 4134 1275 3809 
L 1275 3500 
L 2222 3500 
L 2222 3053 
L 1275 3053 
L 1275 0 
L 697 0 
L 697 3053 
L 147 3053 
L 147 3500 
L 697 3500 
L 697 3744 
Q 697 4328 969 4595 
Q 1241 4863 1831 4863 
L 2375 4863 
z
" transform="scale(0.015625)"/>
       <path id="DejaVuSans-6c" d="M 603 4863 
L 1178 4863 
L 1178 0 
L 603 0 
L 603 4863 
z
" transform="scale(0.015625)"/>
       <path id="DejaVuSans-63" d="M 3122 3366 
L 3122 2828 
Q 2878 2963 2633 3030 
Q 2388 3097 2138 3097 
Q 1578 3097 1268 2742 
Q 959 2388 959 1747 
Q 959 1106 1268 751 
Q 1578 397 2138 397 
Q 2388 397 2633 464 
Q 2878 531 3122 666 
L 3122 134 
Q 2881 22 2623 -34 
Q 2366 -91 2075 -91 
Q 1284 -91 818 406 
Q 353 903 353 1747 
Q 353 2603 823 3093 
Q 1294 3584 2113 3584 
Q 2378 3584 2631 3529 
Q 2884 3475 3122 3366 
z
" transform="scale(0.015625)"/>
       <path id="DejaVuSans-74" d="M 1172 4494 
L 1172 3500 
L 2356 3500 
L 2356 3053 
L 1172 3053 
L 1172 1153 
Q 1172 725 1289 603 
Q 1406 481 1766 481 
L 2356 481 
L 2356 0 
L 1766 0 
Q 1100 0 847 248 
Q 594 497 594 1153 
L 594 3053 
L 172 3053 
L 172 3500 
L 594 3500 
L 594 4494 
L 1172 4494 
z
" transform="scale(0.015625)"/>
       <path id="DejaVuSans-6f" d="M 1959 3097 
Q 1497 3097 1228 2736 
Q 959 2375 959 1747 
Q 959 1119 1226 758 
Q 1494 397 1959 397 
Q 2419 397 2687 759 
Q 2956 1122 2956 1747 
Q 2956 2369 2687 2733 
Q 2419 3097 1959 3097 
z
M 1959 3584 
Q 2709 3584 3137 3096 
Q 3566 2609 3566 1747 
Q 3566 888 3137 398 
Q 2709 -91 1959 -91 
Q 1206 -91 779 398 
Q 353 888 353 1747 
Q 353 2609 779 3096 
Q 1206 3584 1959 3584 
z
" transform="scale(0.015625)"/>
       <path id="DejaVuSans-76" d="M 191 3500 
L 800 3500 
L 1894 563 
L 2988 3500 
L 3597 3500 
L 2284 0 
L 1503 0 
L 191 3500 
z
" transform="scale(0.015625)"/>
       <path id="DejaVuSans-61" d="M 2194 1759 
Q 1497 1759 1228 1600 
Q 959 1441 959 1056 
Q 959 750 1161 570 
Q 1363 391 1709 391 
Q 2188 391 2477 730 
Q 2766 1069 2766 1631 
L 2766 1759 
L 2194 1759 
z
M 3341 1997 
L 3341 0 
L 2766 0 
L 2766 531 
Q 2569 213 2275 61 
Q 1981 -91 1556 -91 
Q 1019 -91 701 211 
Q 384 513 384 1019 
Q 384 1609 779 1909 
Q 1175 2209 1959 2209 
L 2766 2209 
L 2766 2266 
Q 2766 2663 2505 2880 
Q 2244 3097 1772 3097 
Q 1472 3097 1187 3025 
Q 903 2953 641 2809 
L 641 3341 
Q 956 3463 1253 3523 
Q 1550 3584 1831 3584 
Q 2591 3584 2966 3190 
Q 3341 2797 3341 1997 
z
" transform="scale(0.015625)"/>
       <path id="DejaVuSans-75" d="M 544 1381 
L 544 3500 
L 1119 3500 
L 1119 1403 
Q 1119 906 1312 657 
Q 1506 409 1894 409 
Q 2359 409 2629 706 
Q 2900 1003 2900 1516 
L 2900 3500 
L 3475 3500 
L 3475 0 
L 2900 0 
L 2900 538 
Q 2691 219 2414 64 
Q 2138 -91 1772 -91 
Q 1169 -91 856 284 
Q 544 659 544 1381 
z
M 1991 3584 
L 1991 3584 
z
" transform="scale(0.015625)"/>
      </defs>
      <use xlink:href="#DejaVuSans-72"/>
      <use xlink:href="#DejaVuSans-65" x="38.863281"/>
      <use xlink:href="#DejaVuSans-66" x="100.386719"/>
      <use xlink:href="#DejaVuSans-6c" x="135.591797"/>
      <use xlink:href="#DejaVuSans-65" x="163.375"/>
      <use xlink:href="#DejaVuSans-63" x="224.898438"/>
      <use xlink:href="#DejaVuSans-74" x="279.878906"/>
      <use xlink:href="#DejaVuSans-6f" x="319.087891"/>
      <use xlink:href="#DejaVuSans-72" x="380.269531"/>
      <use xlink:href="#DejaVuSans-20" x="421.382812"/>
      <use xlink:href="#DejaVuSans-76" x="453.169922"/>
      <use xlink:href="#DejaVuSans-61" x="512.349609"/>
      <use xlink:href="#DejaVuSans-6c" x="573.628906"/>
      <use xlink:href="#DejaVuSans-75" x="601.412109"/>
      <use xlink:href="#DejaVuSans-65" x="664.791016"/>
     </g>
    </g>
   </g>
   <g id="line2d_25">
    <path d="M 82.41 97.743631 
L 82.410068 97.743631 
L 82.500666 96.331175 
L 82.596985 96.331175 
L 82.877293 97.743631 
L 83.040777 97.743631 
L 83.238832 97.461139 
L 83.607183 96.613666 
L 83.750743 96.613666 
L 83.905372 96.331175 
L 84.071411 96.613666 
L 84.2492 96.613666 
L 84.439932 96.896157 
L 84.642584 96.613666 
L 85.330581 97.461139 
L 85.587729 98.308613 
L 86.148004 98.873596 
L 86.451131 99.438578 
L 87.815204 102.828473 
L 88.193262 103.393455 
L 89.863869 110.455736 
L 90.320263 111.585701 
L 92.297403 118.365491 
L 93.378784 120.62542 
L 94.51977 123.732824 
L 95.114104 125.14528 
L 95.723764 126.275245 
L 96.347049 127.970192 
L 96.987363 129.382649 
L 97.643004 129.947631 
L 98.313971 131.077596 
L 98.998562 131.642578 
L 99.695074 132.490052 
L 100.410319 133.055035 
L 101.142593 133.337526 
L 101.891896 133.337526 
L 102.65823 132.772543 
L 103.441593 132.772543 
L 104.224956 132.207561 
L 105.025348 131.92507 
L 105.84277 131.077596 
L 106.677222 130.795105 
L 107.511674 129.947631 
L 108.363156 129.66514 
L 109.231667 129.100157 
L 110.117207 128.817666 
L 111.888289 127.687701 
L 112.807889 127.687701 
L 113.727489 127.122719 
L 114.647089 126.840228 
L 115.583719 126.275245 
L 118.427667 125.427771 
L 119.398356 125.427771 
L 120.369044 125.14528 
L 121.339733 125.14528 
L 122.327452 124.862789 
L 123.31517 124.297806 
L 124.319919 124.015315 
L 125.307637 124.015315 
L 126.312385 123.732824 
L 127.317133 124.015315 
L 128.321881 123.732824 
L 129.343659 123.732824 
L 130.365437 124.297806 
L 131.370185 124.580298 
L 134.435519 124.580298 
L 136.479074 124.015315 
L 137.500852 124.015315 
L 138.52263 123.732824 
L 139.544407 123.732824 
L 140.566185 123.450333 
L 141.587963 123.732824 
L 142.609741 123.732824 
L 143.631519 124.297806 
L 144.653296 124.580298 
L 145.675074 125.14528 
L 147.71863 127.40521 
L 149.762185 131.92507 
L 150.783963 134.467491 
L 152.827519 140.682298 
L 153.849296 144.637175 
L 154.871074 149.157035 
L 155.892852 154.241877 
L 156.91463 159.891702 
L 157.936407 166.671491 
L 158.958185 174.298754 
L 159.979963 183.338474 
L 162.023519 204.242825 
L 164.067074 228.537071 
L 168.154185 278.255528 
L 169.175963 287.860229 
L 170.197741 295.487493 
L 171.219519 301.7023 
L 172.241296 306.222159 
L 173.263074 309.047072 
L 174.284852 309.894545 
L 288.809111 309.894545 
L 289.830889 309.612054 
L 290.852667 308.482089 
L 291.874444 306.222159 
L 292.896222 303.679738 
L 293.918 300.007352 
L 294.939778 294.92251 
L 295.961556 288.990194 
L 299.026889 267.23837 
L 302.092222 242.661632 
L 305.157556 217.237422 
L 307.201111 200.570439 
L 309.244667 186.163386 
L 310.266444 179.383597 
L 311.117926 174.581246 
L 312.139704 170.343877 
L 313.161481 166.671491 
L 315.205037 161.304158 
L 317.248593 157.914263 
L 318.27037 157.066789 
L 319.292148 155.654333 
L 320.313926 154.524368 
L 321.335704 153.676894 
L 324.401037 151.981947 
L 326.444593 153.111912 
L 327.46637 153.959386 
L 330.531704 155.654333 
L 331.553481 155.654333 
L 332.575259 155.371842 
L 333.597037 154.806859 
L 334.618815 153.959386 
L 335.640593 152.829421 
L 336.66237 151.981947 
L 337.684148 151.416965 
L 338.705926 150.287 
L 342.793037 152.54693 
L 343.814815 152.829421 
L 344.836593 152.829421 
L 346.880148 152.264438 
L 347.901926 151.699456 
L 349.945481 150.004508 
L 350.967259 149.439526 
L 351.989037 149.439526 
L 354.032593 151.134473 
L 355.05437 152.264438 
L 356.076148 153.111912 
L 357.097926 154.241877 
L 358.119704 154.524368 
L 359.141481 154.524368 
L 360.163259 154.241877 
L 361.185037 153.676894 
L 362.206815 153.394403 
L 364.25037 152.264438 
L 365.272148 152.829421 
L 367.315704 155.089351 
L 368.337481 156.501807 
L 370.381037 158.761737 
L 371.402815 159.044228 
L 372.424593 159.60921 
L 373.44637 158.761737 
L 376.511704 157.066789 
L 377.533481 156.219316 
L 378.555259 156.501807 
L 380.598815 158.761737 
L 381.620593 159.60921 
L 382.64237 160.739175 
L 384.685926 160.739175 
L 385.707704 161.021667 
L 386.729481 159.891702 
L 387.751259 159.044228 
L 388.773037 157.914263 
L 390.816593 157.914263 
L 391.83837 159.326719 
L 392.860148 160.174193 
L 393.881926 161.586649 
L 394.903704 162.716614 
L 395.925481 162.716614 
L 396.947259 162.434123 
L 397.969037 161.86914 
L 398.990815 160.739175 
L 400.012593 159.044228 
L 401.03437 158.196754 
L 402.056148 157.631772 
L 403.077926 157.631772 
L 404.099704 158.761737 
L 405.121481 159.60921 
L 406.143259 161.304158 
L 407.165037 162.434123 
L 408.186815 162.434123 
L 409.208593 162.151631 
L 410.23037 161.021667 
L 413.295704 156.784298 
L 415.339259 156.219316 
L 416.361037 157.349281 
L 417.382815 158.196754 
L 418.404593 159.60921 
L 419.42637 160.739175 
L 420.448148 160.739175 
L 421.469926 161.021667 
L 422.491704 159.60921 
L 423.513481 158.479245 
L 424.535259 157.631772 
L 425.557037 156.219316 
L 426.578815 156.501807 
L 427.600593 157.349281 
L 429.644148 160.739175 
L 430.665926 162.999105 
L 431.687704 164.694053 
L 432.709481 164.694053 
L 433.731259 164.976544 
L 434.753037 163.846579 
L 436.796593 161.021667 
L 437.81837 160.174193 
L 438.840148 160.456684 
L 439.861926 161.021667 
L 442.927259 168.64893 
L 443.949037 170.061386 
L 444.970815 171.756333 
L 445.992593 173.168789 
L 447.01437 173.451281 
L 448.036148 174.016263 
L 449.057926 175.993702 
L 451.101481 182.208509 
L 452.123259 187.293351 
L 454.166815 198.875492 
L 455.188593 203.395351 
L 456.21037 208.762685 
L 458.253926 217.237422 
L 459.275704 222.039772 
L 461.319259 236.446825 
L 462.341037 244.35658 
L 465.40637 274.30065 
L 467.449926 289.555177 
L 468.471704 294.92251 
L 469.493481 299.44237 
L 470.515259 302.832265 
L 471.537037 305.092195 
L 472.558815 306.504651 
L 473.580593 307.069633 
L 474.60237 308.764581 
L 475.624148 309.612054 
L 476.645926 309.894545 
L 537.441704 309.894545 
L 538.463481 308.199598 
L 538.633778 307.634616 
L 538.97437 307.069633 
L 539.655556 307.069633 
L 539.996148 307.634616 
L 540.166444 308.199598 
L 540.507037 308.199598 
L 541.188222 306.222159 
L 541.188222 306.222159 
L 541.358519 306.222159 
L 541.528815 306.787142 
L 541.528815 307.634616 
L 541.699111 307.634616 
L 541.699111 307.352124 
L 541.869407 306.787142 
L 541.869407 305.657177 
L 541.869407 305.657177 
L 542.039704 305.657177 
L 542.039704 305.657177 
L 542.039704 307.917107 
L 542.21 307.917107 
L 542.21 307.917107 
L 542.21 303.96223 
L 542.21 307.352124 
" clip-path="url(#p678cba97f0)" style="fill: none; stroke: #1f77b4; stroke-width: 2; stroke-linecap: square"/>
   </g>
   <g id="line2d_26">
    <path d="M 82.41 309.894545 
L 436.796593 309.894545 
L 437.81837 309.612054 
L 442.927259 309.612054 
L 443.949037 309.329563 
L 444.970815 308.764581 
L 445.992593 308.482089 
L 447.01437 307.634616 
L 448.036148 307.069633 
L 449.057926 306.222159 
L 451.101481 306.222159 
L 452.123259 306.504651 
L 454.166815 307.634616 
L 455.188593 306.787142 
L 457.232148 305.657177 
L 460.297481 300.572335 
L 462.341037 300.572335 
L 463.362815 302.267282 
L 464.384593 303.397247 
L 465.40637 305.092195 
L 466.428148 304.244721 
L 467.449926 303.679738 
L 468.471704 302.832265 
L 470.515259 297.464931 
L 471.537037 296.052475 
L 473.580593 296.052475 
L 475.624148 300.572335 
L 476.645926 303.397247 
L 477.667704 301.984791 
L 478.689481 301.137317 
L 479.711259 298.877387 
L 481.754815 291.250124 
L 484.820148 291.250124 
L 485.841926 294.640019 
L 487.885481 302.267282 
L 489.929037 300.007352 
L 492.99437 283.905352 
L 494.016148 283.622861 
L 496.059704 283.622861 
L 498.103259 293.510054 
L 499.125037 298.312405 
L 500.146815 296.617458 
L 501.168593 295.205001 
L 502.19037 288.142721 
L 503.041852 280.797949 
L 504.06363 273.453177 
L 505.085407 272.323212 
L 506.107185 271.758229 
L 506.958667 270.910756 
L 507.980444 276.278089 
L 508.831926 281.927914 
L 509.853704 287.577738 
L 510.705185 285.6003 
L 511.726963 283.622861 
L 514.281407 257.916159 
L 517.006148 254.243773 
L 518.709111 266.390896 
L 519.390296 264.413457 
L 520.241778 263.001001 
L 521.093259 260.176089 
L 521.774444 250.571387 
L 522.625926 240.966685 
L 523.307111 239.271738 
L 524.158593 237.859281 
L 524.839778 236.446825 
L 526.202148 249.441422 
L 526.883333 248.028966 
L 527.564519 247.181492 
L 528.245704 246.051527 
L 528.756593 236.446825 
L 529.437778 226.559632 
L 531.140741 222.039772 
L 532.162519 235.599352 
L 532.673407 233.904404 
L 533.184296 232.774439 
L 533.695185 231.361983 
L 534.716963 213.000053 
L 535.568444 210.175141 
L 535.909037 203.960334 
L 536.419926 206.220264 
L 537.441704 225.99465 
L 537.782296 224.864685 
L 538.633778 202.547878 
L 538.97437 197.463035 
L 539.485259 195.485597 
L 539.655556 194.355632 
L 539.996148 201.417913 
L 540.166444 207.63272 
L 540.507037 204.807807 
L 540.677333 205.090299 
L 541.017926 187.293351 
L 541.188222 186.445877 
L 541.188222 185.880895 
L 541.358519 185.598404 
L 541.528815 193.508158 
L 541.528815 201.700404 
L 541.699111 199.722965 
L 541.699111 198.028018 
L 541.869407 198.310509 
L 541.869407 179.948579 
L 542.039704 178.818614 
L 542.039704 178.253632 
L 542.039704 195.768088 
L 542.21 194.073141 
L 542.21 194.638123 
L 542.21 168.366439 
L 542.21 187.575842 
" clip-path="url(#p678cba97f0)" style="fill: none; stroke: #ff7f0e; stroke-width: 2; stroke-linecap: square"/>
   </g>
   <g id="line2d_27">
    <path d="M 82.41 309.894545 
L 456.21037 309.894545 
L 458.253926 309.329563 
L 459.275704 308.764581 
L 463.362815 308.764581 
L 465.40637 309.329563 
L 467.449926 307.634616 
L 469.493481 304.809703 
L 470.515259 303.114756 
L 473.580593 303.114756 
L 474.60237 304.244721 
L 475.624148 305.657177 
L 476.645926 306.787142 
L 478.689481 304.527212 
L 481.754815 296.617458 
L 484.820148 296.617458 
L 487.885481 304.527212 
L 488.907259 303.114756 
L 489.929037 301.984791 
L 490.950815 297.18244 
L 491.972593 292.945072 
L 492.99437 287.860229 
L 496.059704 287.860229 
L 499.125037 299.724861 
L 500.146815 298.594896 
L 501.168593 297.18244 
L 502.19037 290.967633 
L 503.041852 284.187843 
L 504.06363 278.255528 
L 506.958667 275.995598 
L 507.980444 280.232966 
L 508.831926 284.752826 
L 509.853704 289.555177 
L 510.705185 288.142721 
L 511.726963 285.6003 
L 514.281407 263.001001 
L 515.303185 261.588545 
L 517.006148 258.763633 
L 518.709111 268.368334 
L 519.390296 266.390896 
L 520.241778 264.695948 
L 521.093259 262.153527 
L 521.774444 253.396299 
L 522.625926 250.288896 
L 524.839778 245.769036 
L 526.202148 256.503703 
L 526.883333 254.526264 
L 527.564519 253.396299 
L 528.245704 245.769036 
L 528.756593 236.446825 
L 529.948667 231.926966 
L 530.629852 230.514509 
L 531.140741 228.819562 
L 532.162519 239.83672 
L 533.184296 236.164334 
L 534.206074 218.649878 
L 535.057556 214.695 
L 535.568444 213.000053 
L 535.909037 209.045176 
L 536.419926 209.045176 
L 537.441704 228.25458 
L 538.463481 200.570439 
L 538.633778 194.073141 
L 538.97437 197.745527 
L 539.314963 196.898053 
L 539.655556 193.790649 
L 539.996148 201.135421 
L 540.166444 207.915211 
L 540.507037 204.525316 
L 541.017926 185.598404 
L 541.188222 184.75093 
L 541.188222 183.620965 
L 541.358519 182.491 
L 541.528815 190.118263 
L 541.528815 198.593 
L 541.699111 197.745527 
L 541.699111 196.898053 
L 541.869407 188.705807 
L 541.869407 179.101105 
L 542.039704 179.101105 
L 542.039704 177.688649 
L 542.039704 193.225667 
L 542.21 192.378193 
L 542.21 169.213912 
L 542.21 187.01086 
" clip-path="url(#p678cba97f0)" style="fill: none; stroke: #2ca02c; stroke-width: 2; stroke-linecap: square"/>
   </g>
   <g id="line2d_28">
    <path d="M 82.41 162.434123 
L 82.410068 162.434123 
L 82.500666 160.174193 
L 82.527709 160.174193 
L 82.877293 162.999105 
L 82.954948 162.716614 
L 83.040777 162.999105 
L 83.238832 162.434123 
L 83.474352 161.304158 
L 83.750743 160.739175 
L 83.905372 160.739175 
L 84.071411 160.456684 
L 84.2492 160.739175 
L 84.439932 160.739175 
L 85.330581 159.60921 
L 85.860203 160.174193 
L 86.767882 160.174193 
L 87.101663 159.891702 
L 87.815204 158.761737 
L 88.58835 156.219316 
L 88.998764 154.524368 
L 89.863869 152.264438 
L 90.320263 151.416965 
L 92.297403 146.897105 
L 92.83043 146.049631 
L 93.378784 144.919666 
L 93.940762 144.072193 
L 95.114104 142.942228 
L 95.723764 142.659736 
L 96.347049 142.094754 
L 96.987363 142.094754 
L 97.643004 141.24728 
L 98.313971 140.682298 
L 98.998562 139.552333 
L 99.695074 138.704859 
L 100.410319 137.292403 
L 101.142593 136.162438 
L 101.891896 135.597456 
L 102.65823 134.467491 
L 104.224956 133.902508 
L 106.677222 133.902508 
L 108.363156 134.467491 
L 109.231667 135.597456 
L 110.117207 137.292403 
L 111.002748 138.422368 
L 112.807889 140.117315 
L 115.583719 140.117315 
L 116.520348 139.552333 
L 118.427667 137.857386 
L 119.398356 137.574894 
L 120.369044 137.574894 
L 121.339733 137.857386 
L 122.327452 138.422368 
L 123.31517 138.422368 
L 124.319919 138.98735 
L 125.307637 139.269842 
L 126.312385 139.269842 
L 127.317133 139.552333 
L 128.321881 140.682298 
L 130.365437 142.377245 
L 131.370185 142.942228 
L 132.391963 143.224719 
L 133.413741 143.224719 
L 134.435519 143.789701 
L 136.479074 143.224719 
L 137.500852 142.377245 
L 139.544407 141.812263 
L 140.566185 141.812263 
L 142.609741 142.377245 
L 143.631519 142.942228 
L 144.653296 143.224719 
L 145.675074 143.789701 
L 146.696852 144.072193 
L 147.71863 145.76714 
L 151.805741 151.416965 
L 152.827519 152.264438 
L 153.849296 153.676894 
L 154.871074 155.654333 
L 156.91463 158.479245 
L 158.958185 163.846579 
L 159.979963 167.236474 
L 161.001741 171.473842 
L 163.045296 181.643526 
L 164.067074 187.575842 
L 166.11063 201.700404 
L 167.132407 209.327667 
L 169.175963 226.842123 
L 171.219519 247.463983 
L 174.284852 277.408054 
L 175.30663 286.165282 
L 176.328407 293.510054 
L 177.350185 299.724861 
L 178.371963 303.96223 
L 179.393741 306.787142 
L 180.415519 309.047072 
L 181.437296 309.894545 
L 298.005111 309.894545 
L 299.026889 309.612054 
L 300.048667 308.764581 
L 301.070444 307.634616 
L 302.092222 305.939668 
L 303.114 303.114756 
L 305.157556 295.487493 
L 306.179333 290.967633 
L 308.222889 279.950475 
L 310.266444 267.520861 
L 311.117926 261.588545 
L 314.183259 245.769036 
L 315.205037 241.531667 
L 317.248593 235.034369 
L 318.27037 233.056931 
L 319.292148 232.209457 
L 320.313926 232.491948 
L 321.335704 235.034369 
L 322.357481 238.706755 
L 323.379259 244.074089 
L 324.401037 250.853878 
L 328.488148 288.425212 
L 329.509926 295.487493 
L 330.531704 301.419809 
L 331.553481 305.939668 
L 332.575259 309.047072 
L 333.597037 309.894545 
L 454.166815 309.894545 
L 455.188593 308.199598 
L 456.21037 305.657177 
L 457.232148 301.984791 
L 458.253926 296.899949 
L 460.297481 283.622861 
L 461.319259 275.995598 
L 463.362815 257.068685 
L 465.40637 235.31686 
L 467.449926 207.067737 
L 470.515259 159.891702 
L 471.537037 146.614614 
L 472.558815 135.314964 
L 473.580593 125.427771 
L 474.60237 119.495455 
L 475.624148 114.975596 
L 476.645926 111.868192 
L 477.667704 107.913315 
L 479.711259 101.980999 
L 481.754815 95.483701 
L 482.776593 94.353736 
L 484.820148 93.788753 
L 486.863704 97.178648 
L 487.885481 98.308613 
L 488.907259 96.613666 
L 489.929037 95.483701 
L 490.950815 92.093806 
L 492.99437 83.90156 
L 494.016148 82.489104 
L 495.037926 81.359139 
L 496.059704 80.794157 
L 499.125037 87.573946 
L 500.146815 86.16149 
L 501.168593 85.596508 
L 502.19037 82.489104 
L 504.06363 74.57935 
L 505.085407 73.449385 
L 506.958667 72.036929 
L 507.980444 74.57935 
L 508.831926 77.121771 
L 509.853704 79.381701 
L 510.705185 79.099209 
L 511.726963 78.251736 
L 512.578444 74.014367 
L 514.281407 64.409665 
L 515.303185 63.844683 
L 516.154667 62.714718 
L 517.006148 62.149736 
L 517.85763 64.409665 
L 518.709111 67.517069 
L 519.390296 66.669595 
L 521.093259 65.53963 
L 521.774444 61.019771 
L 522.625926 56.499911 
L 523.307111 56.499911 
L 524.158593 56.21742 
L 524.839778 56.782402 
L 525.520963 61.302262 
L 526.202148 66.952086 
L 528.245704 65.257139 
L 529.437778 55.087455 
L 529.948667 54.804964 
L 530.629852 54.239981 
L 531.140741 52.262542 
L 532.162519 61.584753 
L 532.673407 62.149736 
L 533.695185 61.019771 
L 534.716963 50.567595 
L 535.568444 50.567595 
L 535.909037 47.1777 
L 536.419926 50.567595 
L 537.441704 64.692157 
L 537.782296 63.844683 
L 538.97437 43.222823 
L 539.314963 43.787805 
L 539.485259 44.352788 
L 539.655556 44.352788 
L 539.996148 50.285104 
L 540.166444 58.194858 
L 540.507037 58.194858 
L 540.677333 58.47735 
L 541.017926 46.047735 
L 541.188222 46.895209 
L 541.358519 45.482753 
L 541.528815 51.69756 
L 541.528815 58.47735 
L 541.699111 58.194858 
L 541.699111 57.912367 
L 541.869407 57.912367 
L 541.869407 44.91777 
L 542.039704 44.635279 
L 542.039704 44.635279 
L 542.039704 44.352788 
L 542.039704 56.499911 
L 542.21 55.652437 
L 542.21 38.985455 
L 542.21 57.064893 
L 542.21 55.652437 
" clip-path="url(#p678cba97f0)" style="fill: none; stroke: #d62728; stroke-width: 2; stroke-linecap: square"/>
   </g>
   <g id="patch_3">
    <path d="M 59.42 323.44 
L 59.42 25.44 
" style="fill: none; stroke: #000000; stroke-width: 0.8; stroke-linejoin: miter; stroke-linecap: square"/>
   </g>
   <g id="patch_4">
    <path d="M 565.2 323.44 
L 565.2 25.44 
" style="fill: none; stroke: #000000; stroke-width: 0.8; stroke-linejoin: miter; stroke-linecap: square"/>
   </g>
   <g id="patch_5">
    <path d="M 59.42 323.44 
L 565.2 323.44 
" style="fill: none; stroke: #000000; stroke-width: 0.8; stroke-linejoin: miter; stroke-linecap: square"/>
   </g>
   <g id="patch_6">
    <path d="M 59.42 25.44 
L 565.2 25.44 
" style="fill: none; stroke: #000000; stroke-width: 0.8; stroke-linejoin: miter; stroke-linecap: square"/>
   </g>
   <g id="text_15">
    <!-- Reflector Value -->
    <g transform="translate(267.074687 19.44)scale(0.12 -0.12)">
     <defs>
      <path id="DejaVuSans-52" d="M 2841 2188 
Q 3044 2119 3236 1894 
Q 3428 1669 3622 1275 
L 4263 0 
L 3584 0 
L 2988 1197 
Q 2756 1666 2539 1819 
Q 2322 1972 1947 1972 
L 1259 1972 
L 1259 0 
L 628 0 
L 628 4666 
L 2053 4666 
Q 2853 4666 3247 4331 
Q 3641 3997 3641 3322 
Q 3641 2881 3436 2590 
Q 3231 2300 2841 2188 
z
M 1259 4147 
L 1259 2491 
L 2053 2491 
Q 2509 2491 2742 2702 
Q 2975 2913 2975 3322 
Q 2975 3731 2742 3939 
Q 2509 4147 2053 4147 
L 1259 4147 
z
" transform="scale(0.015625)"/>
      <path id="DejaVuSans-56" d="M 1831 0 
L 50 4666 
L 709 4666 
L 2188 738 
L 3669 4666 
L 4325 4666 
L 2547 0 
L 1831 0 
z
" transform="scale(0.015625)"/>
     </defs>
     <use xlink:href="#DejaVuSans-52"/>
     <use xlink:href="#DejaVuSans-65" x="64.982422"/>
     <use xlink:href="#DejaVuSans-66" x="126.505859"/>
     <use xlink:href="#DejaVuSans-6c" x="161.710938"/>
     <use xlink:href="#DejaVuSans-65" x="189.494141"/>
     <use xlink:href="#DejaVuSans-63" x="251.017578"/>
     <use xlink:href="#DejaVuSans-74" x="305.998047"/>
     <use xlink:href="#DejaVuSans-6f" x="345.207031"/>
     <use xlink:href="#DejaVuSans-72" x="406.388672"/>
     <use xlink:href="#DejaVuSans-20" x="447.501953"/>
     <use xlink:href="#DejaVuSans-56" x="479.289062"/>
     <use xlink:href="#DejaVuSans-61" x="539.947266"/>
     <use xlink:href="#DejaVuSans-6c" x="601.226562"/>
     <use xlink:href="#DejaVuSans-75" x="629.009766"/>
     <use xlink:href="#DejaVuSans-65" x="692.388672"/>
    </g>
   </g>
   <g id="legend_1">
    <g id="patch_7">
     <path d="M 66.42 48.118125 
L 291.660625 48.118125 
Q 293.660625 48.118125 293.660625 46.118125 
L 293.660625 32.44 
Q 293.660625 30.44 291.660625 30.44 
L 66.42 30.44 
Q 64.42 30.44 64.42 32.44 
L 64.42 46.118125 
Q 64.42 48.118125 66.42 48.118125 
z
" style="fill: #ffffff; opacity: 0.8; stroke: #cccccc; stroke-linejoin: miter"/>
    </g>
    <g id="line2d_29">
     <path d="M 68.42 38.538438 
L 78.42 38.538438 
L 88.42 38.538438 
" style="fill: none; stroke: #1f77b4; stroke-width: 2; stroke-linecap: square"/>
    </g>
    <g id="text_16">
     <!-- SL -->
     <g transform="translate(96.42 42.038438)scale(0.1 -0.1)">
      <defs>
       <path id="DejaVuSans-53" d="M 3425 4513 
L 3425 3897 
Q 3066 4069 2747 4153 
Q 2428 4238 2131 4238 
Q 1616 4238 1336 4038 
Q 1056 3838 1056 3469 
Q 1056 3159 1242 3001 
Q 1428 2844 1947 2747 
L 2328 2669 
Q 3034 2534 3370 2195 
Q 3706 1856 3706 1288 
Q 3706 609 3251 259 
Q 2797 -91 1919 -91 
Q 1588 -91 1214 -16 
Q 841 59 441 206 
L 441 856 
Q 825 641 1194 531 
Q 1563 422 1919 422 
Q 2459 422 2753 634 
Q 3047 847 3047 1241 
Q 3047 1584 2836 1778 
Q 2625 1972 2144 2069 
L 1759 2144 
Q 1053 2284 737 2584 
Q 422 2884 422 3419 
Q 422 4038 858 4394 
Q 1294 4750 2059 4750 
Q 2388 4750 2728 4690 
Q 3069 4631 3425 4513 
z
" transform="scale(0.015625)"/>
       <path id="DejaVuSans-4c" d="M 628 4666 
L 1259 4666 
L 1259 531 
L 3531 531 
L 3531 0 
L 628 0 
L 628 4666 
z
" transform="scale(0.015625)"/>
      </defs>
      <use xlink:href="#DejaVuSans-53"/>
      <use xlink:href="#DejaVuSans-4c" x="63.476562"/>
     </g>
    </g>
    <g id="line2d_30">
     <path d="M 128.340313 38.538438 
L 138.340313 38.538438 
L 148.340313 38.538438 
" style="fill: none; stroke: #ff7f0e; stroke-width: 2; stroke-linecap: square"/>
    </g>
    <g id="text_17">
     <!-- FL -->
     <g transform="translate(156.340313 42.038438)scale(0.1 -0.1)">
      <defs>
       <path id="DejaVuSans-46" d="M 628 4666 
L 3309 4666 
L 3309 4134 
L 1259 4134 
L 1259 2759 
L 3109 2759 
L 3109 2228 
L 1259 2228 
L 1259 0 
L 628 0 
L 628 4666 
z
" transform="scale(0.015625)"/>
      </defs>
      <use xlink:href="#DejaVuSans-46"/>
      <use xlink:href="#DejaVuSans-4c" x="57.519531"/>
     </g>
    </g>
    <g id="line2d_31">
     <path d="M 187.66375 38.538438 
L 197.66375 38.538438 
L 207.66375 38.538438 
" style="fill: none; stroke: #2ca02c; stroke-width: 2; stroke-linecap: square"/>
    </g>
    <g id="text_18">
     <!-- FR -->
     <g transform="translate(215.66375 42.038438)scale(0.1 -0.1)">
      <use xlink:href="#DejaVuSans-46"/>
      <use xlink:href="#DejaVuSans-52" x="57.519531"/>
     </g>
    </g>
    <g id="line2d_32">
     <path d="M 248.36375 38.538438 
L 258.36375 38.538438 
L 268.36375 38.538438 
" style="fill: none; stroke: #d62728; stroke-width: 2; stroke-linecap: square"/>
    </g>
    <g id="text_19">
     <!-- SR -->
     <g transform="translate(276.36375 42.038438)scale(0.1 -0.1)">
      <use xlink:href="#DejaVuSans-53"/>
      <use xlink:href="#DejaVuSans-52" x="63.476562"/>
     </g>
    </g>
   </g>
  </g>
  <g id="axes_2">
   <g id="patch_8">
    <path d="M 59.42 678.04 
L 565.2 678.04 
L 565.2 380.04 
L 59.42 380.04 
z
" style="fill: #ffffff"/>
   </g>
   <g id="matplotlib.axis_3">
    <g id="xtick_7">
     <g id="line2d_33">
      <path d="M 82.41 678.04 
L 82.41 380.04 
" clip-path="url(#p12d64b2775)" style="fill: none; stroke: #b0b0b0; stroke-width: 0.8; stroke-linecap: square"/>
     </g>
     <g id="line2d_34">
      <g>
       <use xlink:href="#m3ae812cf6f" x="82.41" y="678.04" style="stroke: #000000; stroke-width: 0.8"/>
      </g>
     </g>
     <g id="text_20">
      <!-- 0 -->
      <g transform="translate(79.22875 692.638438)scale(0.1 -0.1)">
       <use xlink:href="#DejaVuSans-30"/>
      </g>
     </g>
    </g>
    <g id="xtick_8">
     <g id="line2d_35">
      <path d="M 167.558148 678.04 
L 167.558148 380.04 
" clip-path="url(#p12d64b2775)" style="fill: none; stroke: #b0b0b0; stroke-width: 0.8; stroke-linecap: square"/>
     </g>
     <g id="line2d_36">
      <g>
       <use xlink:href="#m3ae812cf6f" x="167.558148" y="678.04" style="stroke: #000000; stroke-width: 0.8"/>
      </g>
     </g>
     <g id="text_21">
      <!-- 50 -->
      <g transform="translate(161.195648 692.638438)scale(0.1 -0.1)">
       <use xlink:href="#DejaVuSans-35"/>
       <use xlink:href="#DejaVuSans-30" x="63.623047"/>
      </g>
     </g>
    </g>
    <g id="xtick_9">
     <g id="line2d_37">
      <path d="M 252.706296 678.04 
L 252.706296 380.04 
" clip-path="url(#p12d64b2775)" style="fill: none; stroke: #b0b0b0; stroke-width: 0.8; stroke-linecap: square"/>
     </g>
     <g id="line2d_38">
      <g>
       <use xlink:href="#m3ae812cf6f" x="252.706296" y="678.04" style="stroke: #000000; stroke-width: 0.8"/>
      </g>
     </g>
     <g id="text_22">
      <!-- 100 -->
      <g transform="translate(243.162546 692.638438)scale(0.1 -0.1)">
       <use xlink:href="#DejaVuSans-31"/>
       <use xlink:href="#DejaVuSans-30" x="63.623047"/>
       <use xlink:href="#DejaVuSans-30" x="127.246094"/>
      </g>
     </g>
    </g>
    <g id="xtick_10">
     <g id="line2d_39">
      <path d="M 337.854444 678.04 
L 337.854444 380.04 
" clip-path="url(#p12d64b2775)" style="fill: none; stroke: #b0b0b0; stroke-width: 0.8; stroke-linecap: square"/>
     </g>
     <g id="line2d_40">
      <g>
       <use xlink:href="#m3ae812cf6f" x="337.854444" y="678.04" style="stroke: #000000; stroke-width: 0.8"/>
      </g>
     </g>
     <g id="text_23">
      <!-- 150 -->
      <g transform="translate(328.310694 692.638438)scale(0.1 -0.1)">
       <use xlink:href="#DejaVuSans-31"/>
       <use xlink:href="#DejaVuSans-35" x="63.623047"/>
       <use xlink:href="#DejaVuSans-30" x="127.246094"/>
      </g>
     </g>
    </g>
    <g id="xtick_11">
     <g id="line2d_41">
      <path d="M 423.002593 678.04 
L 423.002593 380.04 
" clip-path="url(#p12d64b2775)" style="fill: none; stroke: #b0b0b0; stroke-width: 0.8; stroke-linecap: square"/>
     </g>
     <g id="line2d_42">
      <g>
       <use xlink:href="#m3ae812cf6f" x="423.002593" y="678.04" style="stroke: #000000; stroke-width: 0.8"/>
      </g>
     </g>
     <g id="text_24">
      <!-- 200 -->
      <g transform="translate(413.458843 692.638438)scale(0.1 -0.1)">
       <use xlink:href="#DejaVuSans-32"/>
       <use xlink:href="#DejaVuSans-30" x="63.623047"/>
       <use xlink:href="#DejaVuSans-30" x="127.246094"/>
      </g>
     </g>
    </g>
    <g id="xtick_12">
     <g id="line2d_43">
      <path d="M 508.150741 678.04 
L 508.150741 380.04 
" clip-path="url(#p12d64b2775)" style="fill: none; stroke: #b0b0b0; stroke-width: 0.8; stroke-linecap: square"/>
     </g>
     <g id="line2d_44">
      <g>
       <use xlink:href="#m3ae812cf6f" x="508.150741" y="678.04" style="stroke: #000000; stroke-width: 0.8"/>
      </g>
     </g>
     <g id="text_25">
      <!-- 250 -->
      <g transform="translate(498.606991 692.638438)scale(0.1 -0.1)">
       <use xlink:href="#DejaVuSans-32"/>
       <use xlink:href="#DejaVuSans-35" x="63.623047"/>
       <use xlink:href="#DejaVuSans-30" x="127.246094"/>
      </g>
     </g>
    </g>
    <g id="text_26">
     <!-- x [mm] -->
     <g transform="translate(294.119375 706.316563)scale(0.1 -0.1)">
      <use xlink:href="#DejaVuSans-78"/>
      <use xlink:href="#DejaVuSans-20" x="59.179688"/>
      <use xlink:href="#DejaVuSans-5b" x="90.966797"/>
      <use xlink:href="#DejaVuSans-6d" x="129.980469"/>
      <use xlink:href="#DejaVuSans-6d" x="227.392578"/>
      <use xlink:href="#DejaVuSans-5d" x="324.804688"/>
     </g>
    </g>
   </g>
   <g id="matplotlib.axis_4">
    <g id="ytick_7">
     <g id="line2d_45">
      <path d="M 59.42 653.069731 
L 565.2 653.069731 
" clip-path="url(#p12d64b2775)" style="fill: none; stroke: #b0b0b0; stroke-width: 0.8; stroke-linecap: square"/>
     </g>
     <g id="line2d_46">
      <g>
       <use xlink:href="#m08527a36cc" x="59.42" y="653.069731" style="stroke: #000000; stroke-width: 0.8"/>
      </g>
     </g>
     <g id="text_27">
      <!-- −100 -->
      <g transform="translate(24.952813 656.86895)scale(0.1 -0.1)">
       <defs>
        <path id="DejaVuSans-2212" d="M 678 2272 
L 4684 2272 
L 4684 1741 
L 678 1741 
L 678 2272 
z
" transform="scale(0.015625)"/>
       </defs>
       <use xlink:href="#DejaVuSans-2212"/>
       <use xlink:href="#DejaVuSans-31" x="83.789062"/>
       <use xlink:href="#DejaVuSans-30" x="147.412109"/>
       <use xlink:href="#DejaVuSans-30" x="211.035156"/>
      </g>
     </g>
    </g>
    <g id="ytick_8">
     <g id="line2d_47">
      <path d="M 59.42 604.453499 
L 565.2 604.453499 
" clip-path="url(#p12d64b2775)" style="fill: none; stroke: #b0b0b0; stroke-width: 0.8; stroke-linecap: square"/>
     </g>
     <g id="line2d_48">
      <g>
       <use xlink:href="#m08527a36cc" x="59.42" y="604.453499" style="stroke: #000000; stroke-width: 0.8"/>
      </g>
     </g>
     <g id="text_28">
      <!-- −80 -->
      <g transform="translate(31.315313 608.252718)scale(0.1 -0.1)">
       <use xlink:href="#DejaVuSans-2212"/>
       <use xlink:href="#DejaVuSans-38" x="83.789062"/>
       <use xlink:href="#DejaVuSans-30" x="147.412109"/>
      </g>
     </g>
    </g>
    <g id="ytick_9">
     <g id="line2d_49">
      <path d="M 59.42 555.837267 
L 565.2 555.837267 
" clip-path="url(#p12d64b2775)" style="fill: none; stroke: #b0b0b0; stroke-width: 0.8; stroke-linecap: square"/>
     </g>
     <g id="line2d_50">
      <g>
       <use xlink:href="#m08527a36cc" x="59.42" y="555.837267" style="stroke: #000000; stroke-width: 0.8"/>
      </g>
     </g>
     <g id="text_29">
      <!-- −60 -->
      <g transform="translate(31.315313 559.636486)scale(0.1 -0.1)">
       <use xlink:href="#DejaVuSans-2212"/>
       <use xlink:href="#DejaVuSans-36" x="83.789062"/>
       <use xlink:href="#DejaVuSans-30" x="147.412109"/>
      </g>
     </g>
    </g>
    <g id="ytick_10">
     <g id="line2d_51">
      <path d="M 59.42 507.221035 
L 565.2 507.221035 
" clip-path="url(#p12d64b2775)" style="fill: none; stroke: #b0b0b0; stroke-width: 0.8; stroke-linecap: square"/>
     </g>
     <g id="line2d_52">
      <g>
       <use xlink:href="#m08527a36cc" x="59.42" y="507.221035" style="stroke: #000000; stroke-width: 0.8"/>
      </g>
     </g>
     <g id="text_30">
      <!-- −40 -->
      <g transform="translate(31.315313 511.020254)scale(0.1 -0.1)">
       <use xlink:href="#DejaVuSans-2212"/>
       <use xlink:href="#DejaVuSans-34" x="83.789062"/>
       <use xlink:href="#DejaVuSans-30" x="147.412109"/>
      </g>
     </g>
    </g>
    <g id="ytick_11">
     <g id="line2d_53">
      <path d="M 59.42 458.604803 
L 565.2 458.604803 
" clip-path="url(#p12d64b2775)" style="fill: none; stroke: #b0b0b0; stroke-width: 0.8; stroke-linecap: square"/>
     </g>
     <g id="line2d_54">
      <g>
       <use xlink:href="#m08527a36cc" x="59.42" y="458.604803" style="stroke: #000000; stroke-width: 0.8"/>
      </g>
     </g>
     <g id="text_31">
      <!-- −20 -->
      <g transform="translate(31.315313 462.404022)scale(0.1 -0.1)">
       <use xlink:href="#DejaVuSans-2212"/>
       <use xlink:href="#DejaVuSans-32" x="83.789062"/>
       <use xlink:href="#DejaVuSans-30" x="147.412109"/>
      </g>
     </g>
    </g>
    <g id="ytick_12">
     <g id="line2d_55">
      <path d="M 59.42 409.988571 
L 565.2 409.988571 
" clip-path="url(#p12d64b2775)" style="fill: none; stroke: #b0b0b0; stroke-width: 0.8; stroke-linecap: square"/>
     </g>
     <g id="line2d_56">
      <g>
       <use xlink:href="#m08527a36cc" x="59.42" y="409.988571" style="stroke: #000000; stroke-width: 0.8"/>
      </g>
     </g>
     <g id="text_32">
      <!-- 0 -->
      <g transform="translate(46.0575 413.78779)scale(0.1 -0.1)">
       <use xlink:href="#DejaVuSans-30"/>
      </g>
     </g>
    </g>
    <g id="text_33">
     <!-- wall distance [mm] -->
     <g transform="translate(18.873125 576.978281)rotate(-90)scale(0.1 -0.1)">
      <defs>
       <path id="DejaVuSans-77" d="M 269 3500 
L 844 3500 
L 1563 769 
L 2278 3500 
L 2956 3500 
L 3675 769 
L 4391 3500 
L 4966 3500 
L 4050 0 
L 3372 0 
L 2619 2869 
L 1863 0 
L 1184 0 
L 269 3500 
z
" transform="scale(0.015625)"/>
       <path id="DejaVuSans-64" d="M 2906 2969 
L 2906 4863 
L 3481 4863 
L 3481 0 
L 2906 0 
L 2906 525 
Q 2725 213 2448 61 
Q 2172 -91 1784 -91 
Q 1150 -91 751 415 
Q 353 922 353 1747 
Q 353 2572 751 3078 
Q 1150 3584 1784 3584 
Q 2172 3584 2448 3432 
Q 2725 3281 2906 2969 
z
M 947 1747 
Q 947 1113 1208 752 
Q 1469 391 1925 391 
Q 2381 391 2643 752 
Q 2906 1113 2906 1747 
Q 2906 2381 2643 2742 
Q 2381 3103 1925 3103 
Q 1469 3103 1208 2742 
Q 947 2381 947 1747 
z
" transform="scale(0.015625)"/>
       <path id="DejaVuSans-69" d="M 603 3500 
L 1178 3500 
L 1178 0 
L 603 0 
L 603 3500 
z
M 603 4863 
L 1178 4863 
L 1178 4134 
L 603 4134 
L 603 4863 
z
" transform="scale(0.015625)"/>
       <path id="DejaVuSans-73" d="M 2834 3397 
L 2834 2853 
Q 2591 2978 2328 3040 
Q 2066 3103 1784 3103 
Q 1356 3103 1142 2972 
Q 928 2841 928 2578 
Q 928 2378 1081 2264 
Q 1234 2150 1697 2047 
L 1894 2003 
Q 2506 1872 2764 1633 
Q 3022 1394 3022 966 
Q 3022 478 2636 193 
Q 2250 -91 1575 -91 
Q 1294 -91 989 -36 
Q 684 19 347 128 
L 347 722 
Q 666 556 975 473 
Q 1284 391 1588 391 
Q 1994 391 2212 530 
Q 2431 669 2431 922 
Q 2431 1156 2273 1281 
Q 2116 1406 1581 1522 
L 1381 1569 
Q 847 1681 609 1914 
Q 372 2147 372 2553 
Q 372 3047 722 3315 
Q 1072 3584 1716 3584 
Q 2034 3584 2315 3537 
Q 2597 3491 2834 3397 
z
" transform="scale(0.015625)"/>
       <path id="DejaVuSans-6e" d="M 3513 2113 
L 3513 0 
L 2938 0 
L 2938 2094 
Q 2938 2591 2744 2837 
Q 2550 3084 2163 3084 
Q 1697 3084 1428 2787 
Q 1159 2491 1159 1978 
L 1159 0 
L 581 0 
L 581 3500 
L 1159 3500 
L 1159 2956 
Q 1366 3272 1645 3428 
Q 1925 3584 2291 3584 
Q 2894 3584 3203 3211 
Q 3513 2838 3513 2113 
z
" transform="scale(0.015625)"/>
      </defs>
      <use xlink:href="#DejaVuSans-77"/>
      <use xlink:href="#DejaVuSans-61" x="81.787109"/>
      <use xlink:href="#DejaVuSans-6c" x="143.066406"/>
      <use xlink:href="#DejaVuSans-6c" x="170.849609"/>
      <use xlink:href="#DejaVuSans-20" x="198.632812"/>
      <use xlink:href="#DejaVuSans-64" x="230.419922"/>
      <use xlink:href="#DejaVuSans-69" x="293.896484"/>
      <use xlink:href="#DejaVuSans-73" x="321.679688"/>
      <use xlink:href="#DejaVuSans-74" x="373.779297"/>
      <use xlink:href="#DejaVuSans-61" x="412.988281"/>
      <use xlink:href="#DejaVuSans-6e" x="474.267578"/>
      <use xlink:href="#DejaVuSans-63" x="537.646484"/>
      <use xlink:href="#DejaVuSans-65" x="592.626953"/>
      <use xlink:href="#DejaVuSans-20" x="654.150391"/>
      <use xlink:href="#DejaVuSans-5b" x="685.9375"/>
      <use xlink:href="#DejaVuSans-6d" x="724.951172"/>
      <use xlink:href="#DejaVuSans-6d" x="822.363281"/>
      <use xlink:href="#DejaVuSans-5d" x="919.775391"/>
     </g>
    </g>
   </g>
   <g id="line2d_57">
    <path d="M 82.41 405.810006 
L 82.418515 405.727358 
L 82.527709 405.600956 
L 82.807301 405.686035 
L 83.040777 405.810006 
L 83.474352 405.727358 
L 84.071411 405.600956 
L 84.642584 405.686035 
L 85.087058 405.686035 
L 86.767882 406.06038 
L 89.424504 407.173691 
L 90.320263 407.745175 
L 91.279031 408.192201 
L 92.297403 408.736703 
L 93.378784 409.198071 
L 94.51977 409.666246 
L 97.643004 410.868039 
L 99.695074 411.262803 
L 101.142593 411.511718 
L 102.65823 411.561792 
L 105.025348 411.362223 
L 107.511674 411.114037 
L 109.231667 410.917141 
L 112.807889 410.575369 
L 114.647089 410.47838 
L 127.317133 409.902958 
L 129.343659 409.902958 
L 131.370185 409.998156 
L 134.435519 410.045865 
L 138.52263 409.950505 
L 141.587963 409.85546 
L 146.696852 410.141469 
L 148.740407 410.526996 
L 151.805741 411.763064 
L 153.849296 412.893391 
L 155.892852 414.500158 
L 157.936407 416.666011 
L 158.958185 418.112344 
L 159.979963 419.826066 
L 161.001741 421.984626 
L 162.023519 424.607472 
L 163.045296 427.633833 
L 164.067074 431.360267 
L 165.088852 435.80379 
L 166.11063 441.10296 
L 167.132407 447.666151 
L 168.154185 455.955219 
L 169.175963 465.265227 
L 170.197741 476.495577 
L 171.219519 489.597651 
L 172.241296 506.856413 
L 173.263074 530.751291 
L 175.30663 613.544734 
L 289.830889 613.544734 
L 290.852667 591.788971 
L 291.874444 557.34437 
L 292.896222 530.751291 
L 294.939778 501.144006 
L 295.961556 488.430861 
L 296.983333 478.12422 
L 298.005111 469.081601 
L 299.026889 462.105172 
L 300.048667 455.955219 
L 301.070444 445.964583 
L 302.092222 445.964583 
L 304.135778 437.942905 
L 305.157556 434.637001 
L 307.201111 429.00238 
L 308.222889 426.566706 
L 311.117926 421.022025 
L 314.183259 417.50221 
L 315.205037 417.50221 
L 316.226815 416.96257 
L 318.27037 416.255204 
L 320.313926 415.793349 
L 322.357481 415.394696 
L 325.422815 415.056813 
L 332.575259 415.793349 
L 334.618815 415.620762 
L 339.727704 414.721361 
L 344.836593 415.224539 
L 346.880148 415.168631 
L 348.923704 415.000905 
L 351.989037 414.556066 
L 353.010815 414.556066 
L 357.097926 415.280448 
L 358.119704 415.508944 
L 360.163259 415.564853 
L 363.228593 415.338788 
L 365.272148 415.112722 
L 366.293926 415.224539 
L 372.424593 416.488561 
L 373.44637 416.60524 
L 375.489926 416.313543 
L 378.555259 415.907597 
L 379.577037 415.965937 
L 383.664148 416.84346 
L 386.729481 416.901799 
L 389.794815 416.255204 
L 391.83837 416.255204 
L 394.903704 417.020909 
L 395.925481 417.26156 
L 397.969037 417.200789 
L 398.990815 417.081679 
L 400.012593 416.84346 
L 401.03437 416.488561 
L 403.077926 416.196864 
L 404.099704 416.196864 
L 408.186815 417.200789 
L 410.23037 417.140019 
L 413.295704 416.313543 
L 414.317481 416.024276 
L 416.361037 415.907597 
L 420.448148 416.84346 
L 422.491704 416.901799 
L 424.535259 416.371882 
L 425.557037 416.196864 
L 426.578815 415.907597 
L 427.600593 415.965937 
L 428.62237 416.138525 
L 430.665926 416.84346 
L 432.709481 417.684521 
L 434.753037 417.745291 
L 436.796593 417.200789 
L 437.81837 416.901799 
L 438.840148 416.72435 
L 440.883704 416.901799 
L 443.949037 418.547459 
L 447.01437 419.565969 
L 449.057926 419.760434 
L 450.079704 420.219857 
L 452.123259 421.707514 
L 453.145037 422.978828 
L 460.297481 433.404579 
L 461.319259 436.022563 
L 462.341037 439.012462 
L 463.362815 442.561447 
L 464.384593 447.666151 
L 465.40637 453.767488 
L 467.449926 469.081601 
L 470.515259 499.442438 
L 472.558815 522.875462 
L 473.580593 533.08487 
L 474.60237 538.335424 
L 475.624148 563.056777 
L 476.645926 591.788971 
L 477.667704 613.544734 
L 537.782296 613.544734 
L 538.122889 579.075826 
L 538.633778 552.507055 
L 539.314963 538.335424 
L 539.996148 538.335424 
L 540.336741 552.507055 
L 540.677333 552.507055 
L 541.188222 530.751291 
L 541.188222 530.751291 
L 541.528815 530.751291 
L 541.528815 535.588606 
L 541.699111 544.631226 
L 541.699111 544.631226 
L 541.869407 541.325322 
L 541.869407 526.570295 
L 542.039704 526.570295 
L 542.039704 526.570295 
L 542.039704 535.588606 
L 542.21 548.326059 
L 542.21 548.326059 
L 542.21 516.57966 
L 542.21 538.335424 
" clip-path="url(#p12d64b2775)" style="fill: none; stroke: #1f77b4; stroke-width: 2; stroke-linecap: square"/>
   </g>
   <g id="line2d_58">
    <path d="M 82.41 663.27914 
L 437.81837 663.27914 
L 438.840148 641.499068 
L 443.949037 641.499068 
L 444.970815 628.761615 
L 445.992593 612.742567 
L 447.01437 607.030159 
L 448.036148 594.317015 
L 449.057926 588.021213 
L 450.079704 580.461389 
L 452.123259 580.461389 
L 453.145037 582.77066 
L 454.166815 588.021213 
L 455.188593 594.317015 
L 456.21037 585.298704 
L 457.232148 580.461389 
L 458.253926 576.256084 
L 459.275704 566.289757 
L 460.297481 558.705625 
L 461.319259 552.628596 
L 463.362815 552.628596 
L 464.384593 558.705625 
L 465.40637 563.54294 
L 466.428148 572.561251 
L 467.449926 567.748244 
L 468.471704 564.879886 
L 469.493481 561.039204 
L 470.515259 551.704887 
L 471.537037 543.829058 
L 472.558815 540.523154 
L 474.60237 540.523154 
L 475.624148 545.99248 
L 476.645926 552.628596 
L 477.667704 563.54294 
L 478.689481 557.61176 
L 479.711259 554.524629 
L 480.733037 547.523891 
L 481.754815 538.700045 
L 482.776593 531.358994 
L 485.841926 531.358994 
L 486.863704 537.533256 
L 487.885481 546.746032 
L 488.907259 558.705625 
L 489.929037 554.524629 
L 490.950815 550.829795 
L 491.972593 537.533256 
L 492.99437 528.660793 
L 494.016148 521.052353 
L 495.037926 520.736348 
L 497.081481 520.736348 
L 498.103259 527.396771 
L 499.125037 535.345525 
L 500.146815 545.99248 
L 501.168593 541.811484 
L 502.19037 538.700045 
L 503.041852 526.570295 
L 504.06363 517.551984 
L 505.085407 510.551247 
L 506.107185 509.60323 
L 507.980444 508.460749 
L 509.853704 518.791698 
L 510.705185 525.792436 
L 512.578444 520.736348 
L 513.429926 512.034042 
L 514.281407 504.83884 
L 515.303185 499.491054 
L 516.154667 498.664578 
L 517.85763 497.35194 
L 518.709111 501.046774 
L 519.390296 505.033305 
L 520.241778 503.647742 
L 521.093259 502.699726 
L 521.774444 500.876617 
L 523.307111 490.691516 
L 525.520963 488.698251 
L 526.883333 494.77528 
L 527.564519 494.046036 
L 528.245704 493.632798 
L 528.756593 493.073712 
L 529.948667 484.760336 
L 530.629852 484.225557 
L 531.65163 483.107384 
L 532.673407 488.333629 
L 533.184296 487.628694 
L 534.206074 486.607753 
L 534.716963 483.204617 
L 535.057556 480.044561 
L 535.568444 479.67994 
L 535.909037 477.249128 
L 536.419926 477.249128 
L 536.760519 477.929755 
L 537.782296 484.541563 
L 538.122889 484.128325 
L 538.463481 481.065502 
L 538.633778 478.099912 
L 539.655556 474.526619 
L 539.996148 474.526619 
L 540.336741 478.342993 
L 540.677333 477.492209 
L 540.84763 477.589442 
L 541.188222 472.460429 
L 541.358519 472.241656 
L 541.528815 472.241656 
L 541.528815 474.307846 
L 541.699111 476.592809 
L 541.699111 476.009414 
L 541.869407 475.54756 
L 541.869407 475.620484 
L 541.869407 473.189673 
L 542.039704 470.442856 
L 542.039704 472.679202 
L 542.21 474.915549 
L 542.21 474.599543 
L 542.21 468.182201 
L 542.21 472.9709 
" clip-path="url(#p12d64b2775)" style="fill: none; stroke: #ff7f0e; stroke-width: 2; stroke-linecap: square"/>
   </g>
   <g id="line2d_59">
    <path d="M 82.41 664.494545 
L 457.232148 664.494545 
L 458.253926 642.714474 
L 459.275704 630.001329 
L 460.297481 613.98228 
L 464.384593 613.98228 
L 465.40637 620.983018 
L 466.428148 630.001329 
L 467.449926 608.269873 
L 469.493481 581.676794 
L 471.537037 563.494324 
L 474.60237 563.494324 
L 475.624148 568.96365 
L 477.667704 586.514109 
L 478.689481 577.495798 
L 479.711259 570.495061 
L 480.733037 558.851473 
L 481.754815 550.367941 
L 482.776593 543.02689 
L 485.841926 543.02689 
L 486.863704 549.541465 
L 487.885481 558.851473 
L 488.907259 570.495061 
L 489.929037 563.494324 
L 490.950815 558.851473 
L 491.972593 544.363836 
L 494.016148 527.421079 
L 497.081481 527.421079 
L 498.103259 533.522417 
L 499.125037 541.130857 
L 500.146815 551.194417 
L 501.168593 547.985746 
L 502.19037 544.363836 
L 503.041852 532.112546 
L 504.06363 522.632381 
L 505.085407 516.19073 
L 506.958667 514.562086 
L 507.980444 514.027308 
L 509.853704 523.313008 
L 510.705185 529.876199 
L 511.726963 527.810009 
L 512.578444 524.382565 
L 513.429926 515.899033 
L 514.281407 509.238609 
L 515.303185 503.939439 
L 517.85763 501.241239 
L 518.709111 504.109596 
L 519.390296 507.707197 
L 520.241778 506.273019 
L 521.093259 505.081921 
L 521.774444 503.380353 
L 522.625926 498.1298 
L 523.307111 496.45254 
L 524.158593 495.723296 
L 524.839778 494.848204 
L 525.520963 494.167577 
L 526.202148 496.744237 
L 526.883333 499.879984 
L 527.564519 498.737503 
L 528.245704 498.1298 
L 528.756593 494.167577 
L 529.437778 489.913657 
L 529.948667 488.868408 
L 531.65163 486.826526 
L 532.673407 491.396452 
L 533.695185 489.816424 
L 534.716963 483.131692 
L 535.057556 482.280908 
L 535.568444 481.819054 
L 535.909037 480.020253 
L 536.760519 480.020253 
L 537.441704 484.225557 
L 537.782296 486.607753 
L 538.463481 480.457799 
L 538.633778 477.492209 
L 538.97437 475.693409 
L 539.314963 476.690041 
L 539.485259 476.44696 
L 539.655556 475.596176 
L 539.996148 475.596176 
L 540.336741 479.655632 
L 540.677333 478.634691 
L 541.017926 473.821684 
L 541.188222 473.262597 
L 541.358519 472.70351 
L 541.528815 472.70351 
L 541.528815 474.623852 
L 541.699111 476.933123 
L 541.699111 476.690041 
L 541.869407 476.44696 
L 541.869407 472.071499 
L 542.039704 471.877034 
L 542.039704 471.877034 
L 542.039704 471.536721 
L 542.039704 473.408446 
L 542.21 475.450328 
L 542.21 475.012781 
L 542.21 469.592072 
L 542.21 473.821684 
" clip-path="url(#p12d64b2775)" style="fill: none; stroke: #2ca02c; stroke-width: 2; stroke-linecap: square"/>
   </g>
   <g id="line2d_60">
    <path d="M 82.41 412.635725 
L 82.410545 412.635725 
L 82.500666 412.1588 
L 82.6399 412.217869 
L 83.135292 412.754835 
L 84.2492 412.217869 
L 84.642584 412.27718 
L 85.587729 412.040905 
L 86.451131 412.1588 
L 87.45077 412.099731 
L 88.58835 411.631557 
L 90.320263 410.546929 
L 91.779702 409.93575 
L 93.940762 409.121015 
L 95.114104 408.854111 
L 96.987363 408.589396 
L 97.643004 408.589396 
L 104.224956 407.146952 
L 106.677222 407.095905 
L 109.231667 407.197999 
L 113.727489 408.222587 
L 117.474007 408.118548 
L 120.369044 407.757086 
L 122.327452 407.808376 
L 125.307637 408.014752 
L 129.343659 408.326868 
L 132.391963 408.747885 
L 136.479074 408.854111 
L 142.609741 408.589396 
L 147.71863 408.960581 
L 150.783963 409.825877 
L 157.936407 411.806332 
L 159.979963 412.937146 
L 161.001741 413.671251 
L 162.023519 414.614406 
L 164.067074 417.003893 
L 165.088852 418.486689 
L 166.11063 420.270904 
L 168.154185 424.612334 
L 169.175963 427.364013 
L 170.197741 430.594561 
L 171.219519 434.564076 
L 172.241296 439.522932 
L 173.263074 445.065183 
L 174.284852 451.798531 
L 175.30663 459.868825 
L 176.328407 469.61638 
L 177.350185 481.065502 
L 178.371963 495.723296 
L 179.393741 512.009734 
L 180.415519 531.042989 
L 181.437296 565.487589 
L 182.459074 608.974809 
L 299.026889 608.974809 
L 300.048667 587.243353 
L 301.070444 540.0613 
L 302.092222 540.0613 
L 304.135778 507.998895 
L 305.157556 494.872512 
L 306.179333 485.027725 
L 308.222889 468.887136 
L 309.244667 462.396869 
L 311.117926 451.604066 
L 312.139704 447.520302 
L 314.183259 441.248808 
L 315.205037 438.672148 
L 316.226815 436.678883 
L 318.27037 433.842125 
L 319.292148 433.025373 
L 320.313926 432.682628 
L 321.335704 432.796876 
L 322.357481 433.842125 
L 323.379259 435.414861 
L 324.401037 437.86998 
L 325.422815 441.248808 
L 326.444593 446.791059 
L 327.46637 453.961953 
L 328.488148 462.396869 
L 329.509926 472.727819 
L 330.531704 485.027725 
L 331.553481 501.265547 
L 332.575259 524.042251 
L 334.618815 608.974809 
L 455.188593 608.974809 
L 456.21037 547.937129 
L 457.232148 522.00037 
L 458.253926 503.356045 
L 459.275704 488.212088 
L 460.297481 475.717717 
L 461.319259 466.456325 
L 463.362815 450.972055 
L 465.40637 439.085386 
L 468.471704 423.917122 
L 470.515259 415.523529 
L 471.537037 412.099731 
L 472.558815 409.444312 
L 473.580593 407.34871 
L 474.60237 405.622834 
L 475.624148 404.633493 
L 476.645926 403.896957 
L 477.667704 403.403503 
L 478.689481 402.783646 
L 481.754815 401.368913 
L 482.776593 400.911921 
L 483.79837 400.746626 
L 485.841926 400.666409 
L 488.907259 401.327589 
L 490.950815 400.911921 
L 492.99437 399.856948 
L 494.016148 399.26383 
L 496.059704 398.913794 
L 497.081481 398.836008 
L 500.146815 399.776732 
L 501.168593 399.579836 
L 502.19037 399.499619 
L 505.085407 397.997378 
L 507.980444 397.661926 
L 510.705185 398.643973 
L 512.578444 398.490832 
L 515.303185 396.672585 
L 517.85763 396.38575 
L 518.709111 396.672585 
L 519.390296 397.071238 
L 521.774444 396.816003 
L 523.307111 395.678383 
L 525.520963 395.714846 
L 526.202148 396.278794 
L 526.883333 396.998314 
L 528.756593 396.781972 
L 529.437778 396.171838 
L 529.948667 395.505796 
L 531.140741 395.401271 
L 531.65163 395.15819 
L 532.673407 396.312825 
L 533.184296 396.38575 
L 534.206074 396.242332 
L 534.716963 395.60789 
L 535.057556 394.954001 
L 535.568444 394.954001 
L 535.909037 394.548056 
L 536.419926 394.548056 
L 537.101111 395.505796 
L 537.782296 396.709047 
L 538.122889 396.599661 
L 538.463481 395.81937 
L 538.633778 395.090127 
L 538.97437 394.715782 
L 539.314963 394.078909 
L 539.655556 394.212604 
L 539.996148 394.212604 
L 540.507037 395.889864 
L 540.84763 395.923895 
L 541.188222 394.41193 
L 541.188222 394.479993 
L 541.528815 394.346299 
L 541.528815 395.090127 
L 541.699111 395.923895 
L 541.699111 395.889864 
L 541.869407 395.853402 
L 541.869407 395.853402 
L 541.869407 395.056096 
L 542.039704 394.212604 
L 542.039704 394.954001 
L 542.21 395.678383 
L 542.21 395.539827 
L 542.21 393.585455 
L 542.21 395.748877 
L 542.21 395.60789 
" clip-path="url(#p12d64b2775)" style="fill: none; stroke: #d62728; stroke-width: 2; stroke-linecap: square"/>
   </g>
   <g id="patch_9">
    <path d="M 59.42 678.04 
L 59.42 380.04 
" style="fill: none; stroke: #000000; stroke-width: 0.8; stroke-linejoin: miter; stroke-linecap: square"/>
   </g>
   <g id="patch_10">
    <path d="M 565.2 678.04 
L 565.2 380.04 
" style="fill: none; stroke: #000000; stroke-width: 0.8; stroke-linejoin: miter; stroke-linecap: square"/>
   </g>
   <g id="patch_11">
    <path d="M 59.42 678.04 
L 565.2 678.04 
" style="fill: none; stroke: #000000; stroke-width: 0.8; stroke-linejoin: miter; stroke-linecap: square"/>
   </g>
   <g id="patch_12">
    <path d="M 59.42 380.04 
L 565.2 380.04 
" style="fill: none; stroke: #000000; stroke-width: 0.8; stroke-linejoin: miter; stroke-linecap: square"/>
   </g>
   <g id="text_34">
    <!-- Wall Distance -->
    <g transform="translate(271.6075 374.04)scale(0.12 -0.12)">
     <defs>
      <path id="DejaVuSans-57" d="M 213 4666 
L 850 4666 
L 1831 722 
L 2809 4666 
L 3519 4666 
L 4500 722 
L 5478 4666 
L 6119 4666 
L 4947 0 
L 4153 0 
L 3169 4050 
L 2175 0 
L 1381 0 
L 213 4666 
z
" transform="scale(0.015625)"/>
      <path id="DejaVuSans-44" d="M 1259 4147 
L 1259 519 
L 2022 519 
Q 2988 519 3436 956 
Q 3884 1394 3884 2338 
Q 3884 3275 3436 3711 
Q 2988 4147 2022 4147 
L 1259 4147 
z
M 628 4666 
L 1925 4666 
Q 3281 4666 3915 4102 
Q 4550 3538 4550 2338 
Q 4550 1131 3912 565 
Q 3275 0 1925 0 
L 628 0 
L 628 4666 
z
" transform="scale(0.015625)"/>
     </defs>
     <use xlink:href="#DejaVuSans-57"/>
     <use xlink:href="#DejaVuSans-61" x="92.501953"/>
     <use xlink:href="#DejaVuSans-6c" x="153.78125"/>
     <use xlink:href="#DejaVuSans-6c" x="181.564453"/>
     <use xlink:href="#DejaVuSans-20" x="209.347656"/>
     <use xlink:href="#DejaVuSans-44" x="241.134766"/>
     <use xlink:href="#DejaVuSans-69" x="318.136719"/>
     <use xlink:href="#DejaVuSans-73" x="345.919922"/>
     <use xlink:href="#DejaVuSans-74" x="398.019531"/>
     <use xlink:href="#DejaVuSans-61" x="437.228516"/>
     <use xlink:href="#DejaVuSans-6e" x="498.507812"/>
     <use xlink:href="#DejaVuSans-63" x="561.886719"/>
     <use xlink:href="#DejaVuSans-65" x="616.867188"/>
    </g>
   </g>
   <g id="legend_2">
    <g id="patch_13">
     <path d="M 66.42 402.718125 
L 291.660625 402.718125 
Q 293.660625 402.718125 293.660625 400.718125 
L 293.660625 387.04 
Q 293.660625 385.04 291.660625 385.04 
L 66.42 385.04 
Q 64.42 385.04 64.42 387.04 
L 64.42 400.718125 
Q 64.42 402.718125 66.42 402.718125 
z
" style="fill: #ffffff; opacity: 0.8; stroke: #cccccc; stroke-linejoin: miter"/>
    </g>
    <g id="line2d_61">
     <path d="M 68.42 393.138438 
L 78.42 393.138438 
L 88.42 393.138438 
" style="fill: none; stroke: #1f77b4; stroke-width: 2; stroke-linecap: square"/>
    </g>
    <g id="text_35">
     <!-- SL -->
     <g transform="translate(96.42 396.638438)scale(0.1 -0.1)">
      <use xlink:href="#DejaVuSans-53"/>
      <use xlink:href="#DejaVuSans-4c" x="63.476562"/>
     </g>
    </g>
    <g id="line2d_62">
     <path d="M 128.340313 393.138438 
L 138.340313 393.138438 
L 148.340313 393.138438 
" style="fill: none; stroke: #ff7f0e; stroke-width: 2; stroke-linecap: square"/>
    </g>
    <g id="text_36">
     <!-- FL -->
     <g transform="translate(156.340313 396.638438)scale(0.1 -0.1)">
      <use xlink:href="#DejaVuSans-46"/>
      <use xlink:href="#DejaVuSans-4c" x="57.519531"/>
     </g>
    </g>
    <g id="line2d_63">
     <path d="M 187.66375 393.138438 
L 197.66375 393.138438 
L 207.66375 393.138438 
" style="fill: none; stroke: #2ca02c; stroke-width: 2; stroke-linecap: square"/>
    </g>
    <g id="text_37">
     <!-- FR -->
     <g transform="translate(215.66375 396.638438)scale(0.1 -0.1)">
      <use xlink:href="#DejaVuSans-46"/>
      <use xlink:href="#DejaVuSans-52" x="57.519531"/>
     </g>
    </g>
    <g id="line2d_64">
     <path d="M 248.36375 393.138438 
L 258.36375 393.138438 
L 268.36375 393.138438 
" style="fill: none; stroke: #d62728; stroke-width: 2; stroke-linecap: square"/>
    </g>
    <g id="text_38">
     <!-- SR -->
     <g transform="translate(276.36375 396.638438)scale(0.1 -0.1)">
      <use xlink:href="#DejaVuSans-53"/>
      <use xlink:href="#DejaVuSans-52" x="63.476562"/>
     </g>
    </g>
   </g>
  </g>
 </g>
 <defs>
  <clipPath id="p678cba97f0">
   <rect x="59.42" y="25.44" width="505.78" height="298"/>
  </clipPath>
  <clipPath id="p12d64b2775">
   <rect x="59.42" y="380.04" width="505.78" height="298"/>
  </clipPath>
 </defs>
</svg>
