<?xml version="1.0" encoding="utf-8" standalone="no"?>
<!DOCTYPE svg PUBLIC "-//W3C//DTD SVG 1.1//EN"
  "http://www.w3.org/Graphics/SVG/1.1/DTD/svg11.dtd">
<svg xmlns:xlink="http://www.w3.org/1999/xlink" width="460.8pt" height="345.6pt" viewBox="0 0 460.8 345.6" xmlns="http://www.w3.org/2000/svg" version="1.1">
 <metadata>
  <rdf:RDF xmlns:dc="http://purl.org/dc/elements/1.1/" xmlns:cc="http://creativecommons.org/ns#" xmlns:rdf="http://www.w3.org/1999/02/22-rdf-syntax-ns#">
   <cc:Work>
    <dc:type rdf:resource="http://purl.org/dc/dcmitype/StillImage"/>
    <dc:date>2022-01-16T03:12:51.448322</dc:date>
    <dc:format>image/svg+xml</dc:format>
    <dc:creator>
     <cc:Agent>
      <dc:title>Matplotlib v3.5.1, https://matplotlib.org/</dc:title>
     </cc:Agent>
    </dc:creator>
   </cc:Work>
  </rdf:RDF>
 </metadata>
 <defs>
  <style type="text/css">*{stroke-linejoin: round; stroke-linecap: butt}</style>
 </defs>
 <g id="figure_1">
  <g id="patch_1">
   <path d="M 0 345.6 
L 460.8 345.6 
L 460.8 0 
L 0 0 
z
" style="fill: #ffffff"/>
  </g>
  <g id="axes_1">
   <g id="patch_2">
    <path d="M 50.565625 304.44375 
L 450 304.44375 
L 450 25.918125 
L 50.565625 25.918125 
z
" style="fill: #ffffff"/>
   </g>
   <g id="matplotlib.axis_1">
    <g id="xtick_1">
     <g id="line2d_1">
      <path d="M 68.721733 304.44375 
L 68.721733 25.918125 
" clip-path="url(#p36eee4312d)" style="fill: none; stroke: #b0b0b0; stroke-width: 0.8; stroke-linecap: square"/>
     </g>
     <g id="line2d_2">
      <defs>
       <path id="mee0863de49" d="M 0 0 
L 0 3.5 
" style="stroke: #000000; stroke-width: 0.8"/>
      </defs>
      <g>
       <use xlink:href="#mee0863de49" x="68.721733" y="304.44375" style="stroke: #000000; stroke-width: 0.8"/>
      </g>
     </g>
     <g id="text_1">
      <!-- 0 -->
      <g transform="translate(65.540483 319.042187)scale(0.1 -0.1)">
       <defs>
        <path id="DejaVuSans-30" d="M 2034 4250 
Q 1547 4250 1301 3770 
Q 1056 3291 1056 2328 
Q 1056 1369 1301 889 
Q 1547 409 2034 409 
Q 2525 409 2770 889 
Q 3016 1369 3016 2328 
Q 3016 3291 2770 3770 
Q 2525 4250 2034 4250 
z
M 2034 4750 
Q 2819 4750 3233 4129 
Q 3647 3509 3647 2328 
Q 3647 1150 3233 529 
Q 2819 -91 2034 -91 
Q 1250 -91 836 529 
Q 422 1150 422 2328 
Q 422 3509 836 4129 
Q 1250 4750 2034 4750 
z
" transform="scale(0.015625)"/>
       </defs>
       <use xlink:href="#DejaVuSans-30"/>
      </g>
     </g>
    </g>
    <g id="xtick_2">
     <g id="line2d_3">
      <path d="M 119.155366 304.44375 
L 119.155366 25.918125 
" clip-path="url(#p36eee4312d)" style="fill: none; stroke: #b0b0b0; stroke-width: 0.8; stroke-linecap: square"/>
     </g>
     <g id="line2d_4">
      <g>
       <use xlink:href="#mee0863de49" x="119.155366" y="304.44375" style="stroke: #000000; stroke-width: 0.8"/>
      </g>
     </g>
     <g id="text_2">
      <!-- 50 -->
      <g transform="translate(112.792866 319.042187)scale(0.1 -0.1)">
       <defs>
        <path id="DejaVuSans-35" d="M 691 4666 
L 3169 4666 
L 3169 4134 
L 1269 4134 
L 1269 2991 
Q 1406 3038 1543 3061 
Q 1681 3084 1819 3084 
Q 2600 3084 3056 2656 
Q 3513 2228 3513 1497 
Q 3513 744 3044 326 
Q 2575 -91 1722 -91 
Q 1428 -91 1123 -41 
Q 819 9 494 109 
L 494 744 
Q 775 591 1075 516 
Q 1375 441 1709 441 
Q 2250 441 2565 725 
Q 2881 1009 2881 1497 
Q 2881 1984 2565 2268 
Q 2250 2553 1709 2553 
Q 1456 2553 1204 2497 
Q 953 2441 691 2322 
L 691 4666 
z
" transform="scale(0.015625)"/>
       </defs>
       <use xlink:href="#DejaVuSans-35"/>
       <use xlink:href="#DejaVuSans-30" x="63.623047"/>
      </g>
     </g>
    </g>
    <g id="xtick_3">
     <g id="line2d_5">
      <path d="M 169.588999 304.44375 
L 169.588999 25.918125 
" clip-path="url(#p36eee4312d)" style="fill: none; stroke: #b0b0b0; stroke-width: 0.8; stroke-linecap: square"/>
     </g>
     <g id="line2d_6">
      <g>
       <use xlink:href="#mee0863de49" x="169.588999" y="304.44375" style="stroke: #000000; stroke-width: 0.8"/>
      </g>
     </g>
     <g id="text_3">
      <!-- 100 -->
      <g transform="translate(160.045249 319.042187)scale(0.1 -0.1)">
       <defs>
        <path id="DejaVuSans-31" d="M 794 531 
L 1825 531 
L 1825 4091 
L 703 3866 
L 703 4441 
L 1819 4666 
L 2450 4666 
L 2450 531 
L 3481 531 
L 3481 0 
L 794 0 
L 794 531 
z
" transform="scale(0.015625)"/>
       </defs>
       <use xlink:href="#DejaVuSans-31"/>
       <use xlink:href="#DejaVuSans-30" x="63.623047"/>
       <use xlink:href="#DejaVuSans-30" x="127.246094"/>
      </g>
     </g>
    </g>
    <g id="xtick_4">
     <g id="line2d_7">
      <path d="M 220.022633 304.44375 
L 220.022633 25.918125 
" clip-path="url(#p36eee4312d)" style="fill: none; stroke: #b0b0b0; stroke-width: 0.8; stroke-linecap: square"/>
     </g>
     <g id="line2d_8">
      <g>
       <use xlink:href="#mee0863de49" x="220.022633" y="304.44375" style="stroke: #000000; stroke-width: 0.8"/>
      </g>
     </g>
     <g id="text_4">
      <!-- 150 -->
      <g transform="translate(210.478883 319.042187)scale(0.1 -0.1)">
       <use xlink:href="#DejaVuSans-31"/>
       <use xlink:href="#DejaVuSans-35" x="63.623047"/>
       <use xlink:href="#DejaVuSans-30" x="127.246094"/>
      </g>
     </g>
    </g>
    <g id="xtick_5">
     <g id="line2d_9">
      <path d="M 270.456266 304.44375 
L 270.456266 25.918125 
" clip-path="url(#p36eee4312d)" style="fill: none; stroke: #b0b0b0; stroke-width: 0.8; stroke-linecap: square"/>
     </g>
     <g id="line2d_10">
      <g>
       <use xlink:href="#mee0863de49" x="270.456266" y="304.44375" style="stroke: #000000; stroke-width: 0.8"/>
      </g>
     </g>
     <g id="text_5">
      <!-- 200 -->
      <g transform="translate(260.912516 319.042187)scale(0.1 -0.1)">
       <defs>
        <path id="DejaVuSans-32" d="M 1228 531 
L 3431 531 
L 3431 0 
L 469 0 
L 469 531 
Q 828 903 1448 1529 
Q 2069 2156 2228 2338 
Q 2531 2678 2651 2914 
Q 2772 3150 2772 3378 
Q 2772 3750 2511 3984 
Q 2250 4219 1831 4219 
Q 1534 4219 1204 4116 
Q 875 4013 500 3803 
L 500 4441 
Q 881 4594 1212 4672 
Q 1544 4750 1819 4750 
Q 2544 4750 2975 4387 
Q 3406 4025 3406 3419 
Q 3406 3131 3298 2873 
Q 3191 2616 2906 2266 
Q 2828 2175 2409 1742 
Q 1991 1309 1228 531 
z
" transform="scale(0.015625)"/>
       </defs>
       <use xlink:href="#DejaVuSans-32"/>
       <use xlink:href="#DejaVuSans-30" x="63.623047"/>
       <use xlink:href="#DejaVuSans-30" x="127.246094"/>
      </g>
     </g>
    </g>
    <g id="xtick_6">
     <g id="line2d_11">
      <path d="M 320.889899 304.44375 
L 320.889899 25.918125 
" clip-path="url(#p36eee4312d)" style="fill: none; stroke: #b0b0b0; stroke-width: 0.8; stroke-linecap: square"/>
     </g>
     <g id="line2d_12">
      <g>
       <use xlink:href="#mee0863de49" x="320.889899" y="304.44375" style="stroke: #000000; stroke-width: 0.8"/>
      </g>
     </g>
     <g id="text_6">
      <!-- 250 -->
      <g transform="translate(311.346149 319.042187)scale(0.1 -0.1)">
       <use xlink:href="#DejaVuSans-32"/>
       <use xlink:href="#DejaVuSans-35" x="63.623047"/>
       <use xlink:href="#DejaVuSans-30" x="127.246094"/>
      </g>
     </g>
    </g>
    <g id="xtick_7">
     <g id="line2d_13">
      <path d="M 371.323532 304.44375 
L 371.323532 25.918125 
" clip-path="url(#p36eee4312d)" style="fill: none; stroke: #b0b0b0; stroke-width: 0.8; stroke-linecap: square"/>
     </g>
     <g id="line2d_14">
      <g>
       <use xlink:href="#mee0863de49" x="371.323532" y="304.44375" style="stroke: #000000; stroke-width: 0.8"/>
      </g>
     </g>
     <g id="text_7">
      <!-- 300 -->
      <g transform="translate(361.779782 319.042187)scale(0.1 -0.1)">
       <defs>
        <path id="DejaVuSans-33" d="M 2597 2516 
Q 3050 2419 3304 2112 
Q 3559 1806 3559 1356 
Q 3559 666 3084 287 
Q 2609 -91 1734 -91 
Q 1441 -91 1130 -33 
Q 819 25 488 141 
L 488 750 
Q 750 597 1062 519 
Q 1375 441 1716 441 
Q 2309 441 2620 675 
Q 2931 909 2931 1356 
Q 2931 1769 2642 2001 
Q 2353 2234 1838 2234 
L 1294 2234 
L 1294 2753 
L 1863 2753 
Q 2328 2753 2575 2939 
Q 2822 3125 2822 3475 
Q 2822 3834 2567 4026 
Q 2313 4219 1838 4219 
Q 1578 4219 1281 4162 
Q 984 4106 628 3988 
L 628 4550 
Q 988 4650 1302 4700 
Q 1616 4750 1894 4750 
Q 2613 4750 3031 4423 
Q 3450 4097 3450 3541 
Q 3450 3153 3228 2886 
Q 3006 2619 2597 2516 
z
" transform="scale(0.015625)"/>
       </defs>
       <use xlink:href="#DejaVuSans-33"/>
       <use xlink:href="#DejaVuSans-30" x="63.623047"/>
       <use xlink:href="#DejaVuSans-30" x="127.246094"/>
      </g>
     </g>
    </g>
    <g id="xtick_8">
     <g id="line2d_15">
      <path d="M 421.757165 304.44375 
L 421.757165 25.918125 
" clip-path="url(#p36eee4312d)" style="fill: none; stroke: #b0b0b0; stroke-width: 0.8; stroke-linecap: square"/>
     </g>
     <g id="line2d_16">
      <g>
       <use xlink:href="#mee0863de49" x="421.757165" y="304.44375" style="stroke: #000000; stroke-width: 0.8"/>
      </g>
     </g>
     <g id="text_8">
      <!-- 350 -->
      <g transform="translate(412.213415 319.042187)scale(0.1 -0.1)">
       <use xlink:href="#DejaVuSans-33"/>
       <use xlink:href="#DejaVuSans-35" x="63.623047"/>
       <use xlink:href="#DejaVuSans-30" x="127.246094"/>
      </g>
     </g>
    </g>
    <g id="text_9">
     <!-- Translational Position [mm] -->
     <g transform="translate(182.305469 332.720312)scale(0.1 -0.1)">
      <defs>
       <path id="DejaVuSans-54" d="M -19 4666 
L 3928 4666 
L 3928 4134 
L 2272 4134 
L 2272 0 
L 1638 0 
L 1638 4134 
L -19 4134 
L -19 4666 
z
" transform="scale(0.015625)"/>
       <path id="DejaVuSans-72" d="M 2631 2963 
Q 2534 3019 2420 3045 
Q 2306 3072 2169 3072 
Q 1681 3072 1420 2755 
Q 1159 2438 1159 1844 
L 1159 0 
L 581 0 
L 581 3500 
L 1159 3500 
L 1159 2956 
Q 1341 3275 1631 3429 
Q 1922 3584 2338 3584 
Q 2397 3584 2469 3576 
Q 2541 3569 2628 3553 
L 2631 2963 
z
" transform="scale(0.015625)"/>
       <path id="DejaVuSans-61" d="M 2194 1759 
Q 1497 1759 1228 1600 
Q 959 1441 959 1056 
Q 959 750 1161 570 
Q 1363 391 1709 391 
Q 2188 391 2477 730 
Q 2766 1069 2766 1631 
L 2766 1759 
L 2194 1759 
z
M 3341 1997 
L 3341 0 
L 2766 0 
L 2766 531 
Q 2569 213 2275 61 
Q 1981 -91 1556 -91 
Q 1019 -91 701 211 
Q 384 513 384 1019 
Q 384 1609 779 1909 
Q 1175 2209 1959 2209 
L 2766 2209 
L 2766 2266 
Q 2766 2663 2505 2880 
Q 2244 3097 1772 3097 
Q 1472 3097 1187 3025 
Q 903 2953 641 2809 
L 641 3341 
Q 956 3463 1253 3523 
Q 1550 3584 1831 3584 
Q 2591 3584 2966 3190 
Q 3341 2797 3341 1997 
z
" transform="scale(0.015625)"/>
       <path id="DejaVuSans-6e" d="M 3513 2113 
L 3513 0 
L 2938 0 
L 2938 2094 
Q 2938 2591 2744 2837 
Q 2550 3084 2163 3084 
Q 1697 3084 1428 2787 
Q 1159 2491 1159 1978 
L 1159 0 
L 581 0 
L 581 3500 
L 1159 3500 
L 1159 2956 
Q 1366 3272 1645 3428 
Q 1925 3584 2291 3584 
Q 2894 3584 3203 3211 
Q 3513 2838 3513 2113 
z
" transform="scale(0.015625)"/>
       <path id="DejaVuSans-73" d="M 2834 3397 
L 2834 2853 
Q 2591 2978 2328 3040 
Q 2066 3103 1784 3103 
Q 1356 3103 1142 2972 
Q 928 2841 928 2578 
Q 928 2378 1081 2264 
Q 1234 2150 1697 2047 
L 1894 2003 
Q 2506 1872 2764 1633 
Q 3022 1394 3022 966 
Q 3022 478 2636 193 
Q 2250 -91 1575 -91 
Q 1294 -91 989 -36 
Q 684 19 347 128 
L 347 722 
Q 666 556 975 473 
Q 1284 391 1588 391 
Q 1994 391 2212 530 
Q 2431 669 2431 922 
Q 2431 1156 2273 1281 
Q 2116 1406 1581 1522 
L 1381 1569 
Q 847 1681 609 1914 
Q 372 2147 372 2553 
Q 372 3047 722 3315 
Q 1072 3584 1716 3584 
Q 2034 3584 2315 3537 
Q 2597 3491 2834 3397 
z
" transform="scale(0.015625)"/>
       <path id="DejaVuSans-6c" d="M 603 4863 
L 1178 4863 
L 1178 0 
L 603 0 
L 603 4863 
z
" transform="scale(0.015625)"/>
       <path id="DejaVuSans-74" d="M 1172 4494 
L 1172 3500 
L 2356 3500 
L 2356 3053 
L 1172 3053 
L 1172 1153 
Q 1172 725 1289 603 
Q 1406 481 1766 481 
L 2356 481 
L 2356 0 
L 1766 0 
Q 1100 0 847 248 
Q 594 497 594 1153 
L 594 3053 
L 172 3053 
L 172 3500 
L 594 3500 
L 594 4494 
L 1172 4494 
z
" transform="scale(0.015625)"/>
       <path id="DejaVuSans-69" d="M 603 3500 
L 1178 3500 
L 1178 0 
L 603 0 
L 603 3500 
z
M 603 4863 
L 1178 4863 
L 1178 4134 
L 603 4134 
L 603 4863 
z
" transform="scale(0.015625)"/>
       <path id="DejaVuSans-6f" d="M 1959 3097 
Q 1497 3097 1228 2736 
Q 959 2375 959 1747 
Q 959 1119 1226 758 
Q 1494 397 1959 397 
Q 2419 397 2687 759 
Q 2956 1122 2956 1747 
Q 2956 2369 2687 2733 
Q 2419 3097 1959 3097 
z
M 1959 3584 
Q 2709 3584 3137 3096 
Q 3566 2609 3566 1747 
Q 3566 888 3137 398 
Q 2709 -91 1959 -91 
Q 1206 -91 779 398 
Q 353 888 353 1747 
Q 353 2609 779 3096 
Q 1206 3584 1959 3584 
z
" transform="scale(0.015625)"/>
       <path id="DejaVuSans-20" transform="scale(0.015625)"/>
       <path id="DejaVuSans-50" d="M 1259 4147 
L 1259 2394 
L 2053 2394 
Q 2494 2394 2734 2622 
Q 2975 2850 2975 3272 
Q 2975 3691 2734 3919 
Q 2494 4147 2053 4147 
L 1259 4147 
z
M 628 4666 
L 2053 4666 
Q 2838 4666 3239 4311 
Q 3641 3956 3641 3272 
Q 3641 2581 3239 2228 
Q 2838 1875 2053 1875 
L 1259 1875 
L 1259 0 
L 628 0 
L 628 4666 
z
" transform="scale(0.015625)"/>
       <path id="DejaVuSans-5b" d="M 550 4863 
L 1875 4863 
L 1875 4416 
L 1125 4416 
L 1125 -397 
L 1875 -397 
L 1875 -844 
L 550 -844 
L 550 4863 
z
" transform="scale(0.015625)"/>
       <path id="DejaVuSans-6d" d="M 3328 2828 
Q 3544 3216 3844 3400 
Q 4144 3584 4550 3584 
Q 5097 3584 5394 3201 
Q 5691 2819 5691 2113 
L 5691 0 
L 5113 0 
L 5113 2094 
Q 5113 2597 4934 2840 
Q 4756 3084 4391 3084 
Q 3944 3084 3684 2787 
Q 3425 2491 3425 1978 
L 3425 0 
L 2847 0 
L 2847 2094 
Q 2847 2600 2669 2842 
Q 2491 3084 2119 3084 
Q 1678 3084 1418 2786 
Q 1159 2488 1159 1978 
L 1159 0 
L 581 0 
L 581 3500 
L 1159 3500 
L 1159 2956 
Q 1356 3278 1631 3431 
Q 1906 3584 2284 3584 
Q 2666 3584 2933 3390 
Q 3200 3197 3328 2828 
z
" transform="scale(0.015625)"/>
       <path id="DejaVuSans-5d" d="M 1947 4863 
L 1947 -844 
L 622 -844 
L 622 -397 
L 1369 -397 
L 1369 4416 
L 622 4416 
L 622 4863 
L 1947 4863 
z
" transform="scale(0.015625)"/>
      </defs>
      <use xlink:href="#DejaVuSans-54"/>
      <use xlink:href="#DejaVuSans-72" x="46.333984"/>
      <use xlink:href="#DejaVuSans-61" x="87.447266"/>
      <use xlink:href="#DejaVuSans-6e" x="148.726562"/>
      <use xlink:href="#DejaVuSans-73" x="212.105469"/>
      <use xlink:href="#DejaVuSans-6c" x="264.205078"/>
      <use xlink:href="#DejaVuSans-61" x="291.988281"/>
      <use xlink:href="#DejaVuSans-74" x="353.267578"/>
      <use xlink:href="#DejaVuSans-69" x="392.476562"/>
      <use xlink:href="#DejaVuSans-6f" x="420.259766"/>
      <use xlink:href="#DejaVuSans-6e" x="481.441406"/>
      <use xlink:href="#DejaVuSans-61" x="544.820312"/>
      <use xlink:href="#DejaVuSans-6c" x="606.099609"/>
      <use xlink:href="#DejaVuSans-20" x="633.882812"/>
      <use xlink:href="#DejaVuSans-50" x="665.669922"/>
      <use xlink:href="#DejaVuSans-6f" x="722.347656"/>
      <use xlink:href="#DejaVuSans-73" x="783.529297"/>
      <use xlink:href="#DejaVuSans-69" x="835.628906"/>
      <use xlink:href="#DejaVuSans-74" x="863.412109"/>
      <use xlink:href="#DejaVuSans-69" x="902.621094"/>
      <use xlink:href="#DejaVuSans-6f" x="930.404297"/>
      <use xlink:href="#DejaVuSans-6e" x="991.585938"/>
      <use xlink:href="#DejaVuSans-20" x="1054.964844"/>
      <use xlink:href="#DejaVuSans-5b" x="1086.751953"/>
      <use xlink:href="#DejaVuSans-6d" x="1125.765625"/>
      <use xlink:href="#DejaVuSans-6d" x="1223.177734"/>
      <use xlink:href="#DejaVuSans-5d" x="1320.589844"/>
     </g>
    </g>
   </g>
   <g id="matplotlib.axis_2">
    <g id="ytick_1">
     <g id="line2d_17">
      <path d="M 50.565625 292.193875 
L 450 292.193875 
" clip-path="url(#p36eee4312d)" style="fill: none; stroke: #b0b0b0; stroke-width: 0.8; stroke-linecap: square"/>
     </g>
     <g id="line2d_18">
      <defs>
       <path id="m9230fbe2c0" d="M 0 0 
L -3.5 0 
" style="stroke: #000000; stroke-width: 0.8"/>
      </defs>
      <g>
       <use xlink:href="#m9230fbe2c0" x="50.565625" y="292.193875" style="stroke: #000000; stroke-width: 0.8"/>
      </g>
     </g>
     <g id="text_10">
      <!-- 0 -->
      <g transform="translate(37.203125 295.993094)scale(0.1 -0.1)">
       <use xlink:href="#DejaVuSans-30"/>
      </g>
     </g>
    </g>
    <g id="ytick_2">
     <g id="line2d_19">
      <path d="M 50.565625 251.155769 
L 450 251.155769 
" clip-path="url(#p36eee4312d)" style="fill: none; stroke: #b0b0b0; stroke-width: 0.8; stroke-linecap: square"/>
     </g>
     <g id="line2d_20">
      <g>
       <use xlink:href="#m9230fbe2c0" x="50.565625" y="251.155769" style="stroke: #000000; stroke-width: 0.8"/>
      </g>
     </g>
     <g id="text_11">
      <!-- 100 -->
      <g transform="translate(24.478125 254.954988)scale(0.1 -0.1)">
       <use xlink:href="#DejaVuSans-31"/>
       <use xlink:href="#DejaVuSans-30" x="63.623047"/>
       <use xlink:href="#DejaVuSans-30" x="127.246094"/>
      </g>
     </g>
    </g>
    <g id="ytick_3">
     <g id="line2d_21">
      <path d="M 50.565625 210.117664 
L 450 210.117664 
" clip-path="url(#p36eee4312d)" style="fill: none; stroke: #b0b0b0; stroke-width: 0.8; stroke-linecap: square"/>
     </g>
     <g id="line2d_22">
      <g>
       <use xlink:href="#m9230fbe2c0" x="50.565625" y="210.117664" style="stroke: #000000; stroke-width: 0.8"/>
      </g>
     </g>
     <g id="text_12">
      <!-- 200 -->
      <g transform="translate(24.478125 213.916882)scale(0.1 -0.1)">
       <use xlink:href="#DejaVuSans-32"/>
       <use xlink:href="#DejaVuSans-30" x="63.623047"/>
       <use xlink:href="#DejaVuSans-30" x="127.246094"/>
      </g>
     </g>
    </g>
    <g id="ytick_4">
     <g id="line2d_23">
      <path d="M 50.565625 169.079558 
L 450 169.079558 
" clip-path="url(#p36eee4312d)" style="fill: none; stroke: #b0b0b0; stroke-width: 0.8; stroke-linecap: square"/>
     </g>
     <g id="line2d_24">
      <g>
       <use xlink:href="#m9230fbe2c0" x="50.565625" y="169.079558" style="stroke: #000000; stroke-width: 0.8"/>
      </g>
     </g>
     <g id="text_13">
      <!-- 300 -->
      <g transform="translate(24.478125 172.878776)scale(0.1 -0.1)">
       <use xlink:href="#DejaVuSans-33"/>
       <use xlink:href="#DejaVuSans-30" x="63.623047"/>
       <use xlink:href="#DejaVuSans-30" x="127.246094"/>
      </g>
     </g>
    </g>
    <g id="ytick_5">
     <g id="line2d_25">
      <path d="M 50.565625 128.041452 
L 450 128.041452 
" clip-path="url(#p36eee4312d)" style="fill: none; stroke: #b0b0b0; stroke-width: 0.8; stroke-linecap: square"/>
     </g>
     <g id="line2d_26">
      <g>
       <use xlink:href="#m9230fbe2c0" x="50.565625" y="128.041452" style="stroke: #000000; stroke-width: 0.8"/>
      </g>
     </g>
     <g id="text_14">
      <!-- 400 -->
      <g transform="translate(24.478125 131.84067)scale(0.1 -0.1)">
       <defs>
        <path id="DejaVuSans-34" d="M 2419 4116 
L 825 1625 
L 2419 1625 
L 2419 4116 
z
M 2253 4666 
L 3047 4666 
L 3047 1625 
L 3713 1625 
L 3713 1100 
L 3047 1100 
L 3047 0 
L 2419 0 
L 2419 1100 
L 313 1100 
L 313 1709 
L 2253 4666 
z
" transform="scale(0.015625)"/>
       </defs>
       <use xlink:href="#DejaVuSans-34"/>
       <use xlink:href="#DejaVuSans-30" x="63.623047"/>
       <use xlink:href="#DejaVuSans-30" x="127.246094"/>
      </g>
     </g>
    </g>
    <g id="ytick_6">
     <g id="line2d_27">
      <path d="M 50.565625 87.003346 
L 450 87.003346 
" clip-path="url(#p36eee4312d)" style="fill: none; stroke: #b0b0b0; stroke-width: 0.8; stroke-linecap: square"/>
     </g>
     <g id="line2d_28">
      <g>
       <use xlink:href="#m9230fbe2c0" x="50.565625" y="87.003346" style="stroke: #000000; stroke-width: 0.8"/>
      </g>
     </g>
     <g id="text_15">
      <!-- 500 -->
      <g transform="translate(24.478125 90.802564)scale(0.1 -0.1)">
       <use xlink:href="#DejaVuSans-35"/>
       <use xlink:href="#DejaVuSans-30" x="63.623047"/>
       <use xlink:href="#DejaVuSans-30" x="127.246094"/>
      </g>
     </g>
    </g>
    <g id="ytick_7">
     <g id="line2d_29">
      <path d="M 50.565625 45.96524 
L 450 45.96524 
" clip-path="url(#p36eee4312d)" style="fill: none; stroke: #b0b0b0; stroke-width: 0.8; stroke-linecap: square"/>
     </g>
     <g id="line2d_30">
      <g>
       <use xlink:href="#m9230fbe2c0" x="50.565625" y="45.96524" style="stroke: #000000; stroke-width: 0.8"/>
      </g>
     </g>
     <g id="text_16">
      <!-- 600 -->
      <g transform="translate(24.478125 49.764459)scale(0.1 -0.1)">
       <defs>
        <path id="DejaVuSans-36" d="M 2113 2584 
Q 1688 2584 1439 2293 
Q 1191 2003 1191 1497 
Q 1191 994 1439 701 
Q 1688 409 2113 409 
Q 2538 409 2786 701 
Q 3034 994 3034 1497 
Q 3034 2003 2786 2293 
Q 2538 2584 2113 2584 
z
M 3366 4563 
L 3366 3988 
Q 3128 4100 2886 4159 
Q 2644 4219 2406 4219 
Q 1781 4219 1451 3797 
Q 1122 3375 1075 2522 
Q 1259 2794 1537 2939 
Q 1816 3084 2150 3084 
Q 2853 3084 3261 2657 
Q 3669 2231 3669 1497 
Q 3669 778 3244 343 
Q 2819 -91 2113 -91 
Q 1303 -91 875 529 
Q 447 1150 447 2328 
Q 447 3434 972 4092 
Q 1497 4750 2381 4750 
Q 2619 4750 2861 4703 
Q 3103 4656 3366 4563 
z
" transform="scale(0.015625)"/>
       </defs>
       <use xlink:href="#DejaVuSans-36"/>
       <use xlink:href="#DejaVuSans-30" x="63.623047"/>
       <use xlink:href="#DejaVuSans-30" x="127.246094"/>
      </g>
     </g>
    </g>
    <g id="text_17">
     <!-- Reflector Raw Value -->
     <g transform="translate(18.398438 214.980937)rotate(-90)scale(0.1 -0.1)">
      <defs>
       <path id="DejaVuSans-52" d="M 2841 2188 
Q 3044 2119 3236 1894 
Q 3428 1669 3622 1275 
L 4263 0 
L 3584 0 
L 2988 1197 
Q 2756 1666 2539 1819 
Q 2322 1972 1947 1972 
L 1259 1972 
L 1259 0 
L 628 0 
L 628 4666 
L 2053 4666 
Q 2853 4666 3247 4331 
Q 3641 3997 3641 3322 
Q 3641 2881 3436 2590 
Q 3231 2300 2841 2188 
z
M 1259 4147 
L 1259 2491 
L 2053 2491 
Q 2509 2491 2742 2702 
Q 2975 2913 2975 3322 
Q 2975 3731 2742 3939 
Q 2509 4147 2053 4147 
L 1259 4147 
z
" transform="scale(0.015625)"/>
       <path id="DejaVuSans-65" d="M 3597 1894 
L 3597 1613 
L 953 1613 
Q 991 1019 1311 708 
Q 1631 397 2203 397 
Q 2534 397 2845 478 
Q 3156 559 3463 722 
L 3463 178 
Q 3153 47 2828 -22 
Q 2503 -91 2169 -91 
Q 1331 -91 842 396 
Q 353 884 353 1716 
Q 353 2575 817 3079 
Q 1281 3584 2069 3584 
Q 2775 3584 3186 3129 
Q 3597 2675 3597 1894 
z
M 3022 2063 
Q 3016 2534 2758 2815 
Q 2500 3097 2075 3097 
Q 1594 3097 1305 2825 
Q 1016 2553 972 2059 
L 3022 2063 
z
" transform="scale(0.015625)"/>
       <path id="DejaVuSans-66" d="M 2375 4863 
L 2375 4384 
L 1825 4384 
Q 1516 4384 1395 4259 
Q 1275 4134 1275 3809 
L 1275 3500 
L 2222 3500 
L 2222 3053 
L 1275 3053 
L 1275 0 
L 697 0 
L 697 3053 
L 147 3053 
L 147 3500 
L 697 3500 
L 697 3744 
Q 697 4328 969 4595 
Q 1241 4863 1831 4863 
L 2375 4863 
z
" transform="scale(0.015625)"/>
       <path id="DejaVuSans-63" d="M 3122 3366 
L 3122 2828 
Q 2878 2963 2633 3030 
Q 2388 3097 2138 3097 
Q 1578 3097 1268 2742 
Q 959 2388 959 1747 
Q 959 1106 1268 751 
Q 1578 397 2138 397 
Q 2388 397 2633 464 
Q 2878 531 3122 666 
L 3122 134 
Q 2881 22 2623 -34 
Q 2366 -91 2075 -91 
Q 1284 -91 818 406 
Q 353 903 353 1747 
Q 353 2603 823 3093 
Q 1294 3584 2113 3584 
Q 2378 3584 2631 3529 
Q 2884 3475 3122 3366 
z
" transform="scale(0.015625)"/>
       <path id="DejaVuSans-77" d="M 269 3500 
L 844 3500 
L 1563 769 
L 2278 3500 
L 2956 3500 
L 3675 769 
L 4391 3500 
L 4966 3500 
L 4050 0 
L 3372 0 
L 2619 2869 
L 1863 0 
L 1184 0 
L 269 3500 
z
" transform="scale(0.015625)"/>
       <path id="DejaVuSans-56" d="M 1831 0 
L 50 4666 
L 709 4666 
L 2188 738 
L 3669 4666 
L 4325 4666 
L 2547 0 
L 1831 0 
z
" transform="scale(0.015625)"/>
       <path id="DejaVuSans-75" d="M 544 1381 
L 544 3500 
L 1119 3500 
L 1119 1403 
Q 1119 906 1312 657 
Q 1506 409 1894 409 
Q 2359 409 2629 706 
Q 2900 1003 2900 1516 
L 2900 3500 
L 3475 3500 
L 3475 0 
L 2900 0 
L 2900 538 
Q 2691 219 2414 64 
Q 2138 -91 1772 -91 
Q 1169 -91 856 284 
Q 544 659 544 1381 
z
M 1991 3584 
L 1991 3584 
z
" transform="scale(0.015625)"/>
      </defs>
      <use xlink:href="#DejaVuSans-52"/>
      <use xlink:href="#DejaVuSans-65" x="64.982422"/>
      <use xlink:href="#DejaVuSans-66" x="126.505859"/>
      <use xlink:href="#DejaVuSans-6c" x="161.710938"/>
      <use xlink:href="#DejaVuSans-65" x="189.494141"/>
      <use xlink:href="#DejaVuSans-63" x="251.017578"/>
      <use xlink:href="#DejaVuSans-74" x="305.998047"/>
      <use xlink:href="#DejaVuSans-6f" x="345.207031"/>
      <use xlink:href="#DejaVuSans-72" x="406.388672"/>
      <use xlink:href="#DejaVuSans-20" x="447.501953"/>
      <use xlink:href="#DejaVuSans-52" x="479.289062"/>
      <use xlink:href="#DejaVuSans-61" x="546.521484"/>
      <use xlink:href="#DejaVuSans-77" x="607.800781"/>
      <use xlink:href="#DejaVuSans-20" x="689.587891"/>
      <use xlink:href="#DejaVuSans-56" x="721.375"/>
      <use xlink:href="#DejaVuSans-61" x="782.033203"/>
      <use xlink:href="#DejaVuSans-6c" x="843.3125"/>
      <use xlink:href="#DejaVuSans-75" x="871.095703"/>
      <use xlink:href="#DejaVuSans-65" x="934.474609"/>
     </g>
    </g>
   </g>
   <g id="line2d_31">
    <path d="M 68.721733 89.055251 
L 68.722056 89.465632 
L 68.832485 87.824108 
L 68.919937 88.64487 
L 68.957056 88.234489 
L 68.998513 88.64487 
L 69.044508 88.64487 
L 69.095345 89.055251 
L 69.151327 88.64487 
L 69.279529 88.64487 
L 69.352153 87.413727 
L 69.43083 88.234489 
L 69.515861 87.824108 
L 69.607448 86.592965 
L 69.705794 88.234489 
L 69.811099 87.824108 
L 69.924071 88.64487 
L 70.044103 87.824108 
L 70.171196 88.234489 
L 70.307366 87.824108 
L 70.451607 88.64487 
L 70.765304 88.64487 
L 70.935769 89.465632 
L 71.115313 89.055251 
L 71.302926 89.465632 
L 71.500626 90.696775 
L 71.707404 93.159062 
L 71.92326 93.159062 
L 72.147185 93.979824 
L 72.381197 94.390205 
L 72.624287 93.979824 
L 72.876456 92.748681 
L 73.136693 93.159062 
L 74.27145 93.159062 
L 74.578086 91.517537 
L 74.893801 93.159062 
L 75.218594 91.107156 
L 75.551456 91.107156 
L 75.894404 92.338299 
L 76.246431 89.055251 
L 76.607536 88.64487 
L 76.97671 88.64487 
L 77.355971 87.824108 
L 77.74431 87.824108 
L 78.141727 86.182584 
L 78.547213 85.772203 
L 78.95976 83.720297 
L 79.383403 78.795725 
L 79.817132 78.385343 
L 80.260948 76.333438 
L 80.714851 75.923057 
L 81.17884 75.102295 
L 81.64283 74.691914 
L 82.116906 73.460771 
L 83.095318 71.819246 
L 83.589568 71.819246 
L 84.608327 70.177722 
L 85.132837 70.177722 
L 85.657347 68.946579 
L 86.181857 69.35696 
L 86.72654 68.946579 
L 88.370676 68.946579 
L 88.925446 70.588103 
L 89.490303 70.588103 
L 90.630103 71.408865 
L 91.205047 70.177722 
L 91.77999 71.819246 
L 92.36502 72.229628 
L 92.95005 73.460771 
L 94.725314 74.691914 
L 95.320431 75.512676 
L 95.915548 75.102295 
L 96.520752 75.512676 
L 98.326276 75.512676 
L 98.931479 76.333438 
L 99.536683 76.333438 
L 100.141886 77.564581 
L 100.74709 77.1542 
L 101.352294 79.206106 
L 101.957497 79.206106 
L 102.562701 80.026868 
L 103.167904 80.026868 
L 103.773108 79.206106 
L 104.983515 76.743819 
L 105.588719 77.564581 
L 108.009533 77.564581 
L 108.614737 76.743819 
L 109.21994 78.795725 
L 109.825144 76.743819 
L 110.430348 77.564581 
L 111.640755 77.564581 
L 112.245958 77.1542 
L 112.851162 79.206106 
L 113.456366 82.489154 
L 114.061569 82.489154 
L 114.666773 84.130678 
L 115.271976 84.130678 
L 115.87718 83.309916 
L 117.087587 83.309916 
L 117.692791 82.899535 
L 118.297994 85.772203 
L 118.903198 84.541059 
L 119.508402 85.772203 
L 120.113605 87.413727 
L 120.718809 88.234489 
L 121.324012 88.64487 
L 121.929216 89.465632 
L 122.53442 90.696775 
L 123.744827 94.800586 
L 124.35003 96.031729 
L 124.955234 97.673253 
L 125.560438 101.777064 
L 126.165641 102.597826 
L 126.770845 106.291255 
L 127.376048 108.343161 
L 127.981252 111.215828 
L 128.586456 114.909258 
L 130.402066 133.376405 
L 132.217677 156.768126 
L 134.033288 187.546705 
L 136.454102 227.764049 
L 137.059306 239.254719 
L 137.66451 247.872721 
L 138.874917 268.391774 
L 140.085324 286.038159 
L 140.690528 291.783494 
L 209.633304 291.783494 
L 210.238508 289.731589 
L 210.843711 285.627778 
L 212.659322 269.622917 
L 213.264526 261.004915 
L 213.869729 254.849199 
L 215.080137 239.6651 
L 215.68534 231.86786 
L 216.290544 222.429095 
L 216.895747 215.042236 
L 220.526969 160.051174 
L 222.34258 135.428311 
L 224.15819 114.498877 
L 225.368598 104.23935 
L 225.973801 100.956302 
L 226.579005 96.44211 
L 227.184208 95.621348 
L 227.789412 93.569443 
L 228.394616 93.159062 
L 228.999819 93.159062 
L 229.605023 93.979824 
L 230.210226 96.44211 
L 230.81543 97.673253 
L 231.420634 99.314777 
L 232.025837 101.777064 
L 232.631041 100.956302 
L 233.841448 101.777064 
L 235.657059 101.777064 
L 236.262262 101.366683 
L 236.867466 101.777064 
L 237.47267 100.545921 
L 238.077873 100.956302 
L 239.28828 100.956302 
L 239.893484 101.777064 
L 240.498688 100.545921 
L 241.103891 99.725159 
L 241.709095 97.673253 
L 242.314298 96.852491 
L 242.919502 93.979824 
L 243.524706 94.390205 
L 244.735113 91.107156 
L 245.340316 90.696775 
L 245.94552 88.64487 
L 248.971538 88.64487 
L 249.576742 89.055251 
L 250.181945 88.234489 
L 251.392352 88.234489 
L 251.997556 85.772203 
L 252.60276 84.130678 
L 253.207963 84.130678 
L 253.813167 83.309916 
L 254.41837 84.541059 
L 255.023574 84.130678 
L 255.628778 84.541059 
L 256.233981 85.772203 
L 257.444388 85.772203 
L 258.049592 86.592965 
L 258.654796 87.824108 
L 259.259999 88.64487 
L 259.865203 88.64487 
L 260.470406 91.517537 
L 261.07561 91.107156 
L 262.286017 91.927918 
L 262.891221 92.748681 
L 263.496424 94.390205 
L 264.101628 93.979824 
L 264.706832 94.800586 
L 265.312035 93.979824 
L 265.917239 94.390205 
L 266.522442 94.390205 
L 267.73285 96.031729 
L 268.338053 99.314777 
L 268.943257 99.314777 
L 269.54846 98.083634 
L 270.153664 99.314777 
L 270.758868 97.673253 
L 271.364071 97.673253 
L 271.969275 98.494015 
L 272.574478 98.083634 
L 273.179682 98.904396 
L 273.784886 98.083634 
L 274.390089 99.314777 
L 275.600496 99.314777 
L 277.416107 103.008207 
L 278.021311 101.777064 
L 278.626514 101.777064 
L 279.231718 100.956302 
L 279.836922 99.725159 
L 280.442125 100.545921 
L 281.047329 98.904396 
L 281.652532 98.083634 
L 282.257736 97.673253 
L 282.86294 96.44211 
L 284.073347 95.621348 
L 284.67855 93.159062 
L 285.283754 94.390205 
L 285.888958 95.210967 
L 286.494161 95.621348 
L 287.099365 94.800586 
L 287.704568 93.159062 
L 288.309772 92.338299 
L 288.914976 89.465632 
L 289.520179 88.64487 
L 290.125383 88.64487 
L 290.730586 88.234489 
L 291.940994 86.592965 
L 293.151401 85.772203 
L 293.756604 84.541059 
L 294.361808 86.592965 
L 294.967012 86.182584 
L 295.572215 86.182584 
L 296.177419 87.413727 
L 296.782622 86.182584 
L 297.387826 85.772203 
L 297.99303 85.772203 
L 298.598233 86.592965 
L 299.203437 88.234489 
L 299.80864 87.824108 
L 300.413844 89.055251 
L 301.019048 89.465632 
L 301.624251 90.696775 
L 302.229455 92.338299 
L 302.834658 94.800586 
L 303.439862 96.031729 
L 304.045065 98.904396 
L 304.650269 100.956302 
L 305.255473 100.545921 
L 305.860676 101.366683 
L 306.46588 103.008207 
L 307.071083 105.470493 
L 307.676287 106.291255 
L 309.491898 113.267733 
L 310.097101 115.319639 
L 310.702305 119.013068 
L 313.728323 143.225551 
L 314.93873 158.40965 
L 316.754341 183.032514 
L 317.359545 193.702421 
L 317.964748 202.320423 
L 318.569952 212.990331 
L 319.175155 220.787571 
L 319.780359 230.636716 
L 320.990766 246.641578 
L 321.59597 256.080342 
L 322.201173 261.825677 
L 322.806377 270.443679 
L 323.411581 277.009776 
L 324.016784 285.217397 
L 324.621988 291.783494 
L 395.430809 291.783494 
L 396.036012 290.962732 
L 396.641216 285.627778 
L 397.24642 275.368252 
L 397.851623 270.033298 
L 399.06203 256.080342 
L 399.667234 247.051959 
L 400.272438 240.075481 
L 400.877641 235.97167 
L 401.482845 229.405573 
L 402.088048 219.966809 
L 402.693252 213.400712 
L 403.903659 194.933564 
L 405.114066 175.235273 
L 405.71927 167.438033 
L 406.324474 157.178507 
L 407.534881 141.173646 
L 408.644421 130.093357 
L 409.249624 123.52726 
L 410.964368 99.314777 
L 412.073908 80.026868 
L 413.183448 67.715436 
L 414.292988 57.045528 
L 414.797324 57.045528 
L 415.30166 55.814385 
L 416.4112 49.658669 
L 416.915537 49.248288 
L 417.419873 47.606764 
L 417.924209 42.27181 
L 418.327678 41.451048 
L 418.832015 39.809524 
L 419.336351 38.578381 
L 419.73982 39.809524 
L 420.244156 38.578381 
L 420.647625 44.734097 
L 421.151962 46.375621 
L 421.9589 50.06905 
L 422.362369 48.427526 
L 422.765838 42.682191 
L 423.169307 43.913334 
L 423.875378 48.837907 
L 424.278847 49.248288 
L 424.581449 54.993623 
L 424.984918 59.507815 
L 425.28752 60.328577 
L 425.892723 62.380482 
L 426.195325 63.201244 
L 426.497927 58.276672 
L 426.800529 61.149339 
L 427.103131 61.149339 
L 427.607467 62.790863 
L 428.111803 73.460771 
L 428.414405 74.281533 
L 428.61614 73.05039 
L 428.817874 74.281533 
L 429.019609 70.998484 
L 429.221343 62.790863 
L 429.624812 61.149339 
L 429.725679 59.507815 
L 429.927414 58.276672 
L 430.230016 66.894674 
L 430.330883 63.611625 
L 430.734352 61.55972 
L 430.936087 54.583242 
L 431.238688 55.814385 
L 431.339556 66.073912 
L 431.440423 66.894674 
L 431.54129 69.767341 
L 431.743025 62.380482 
L 431.743025 62.380482 
L 431.743025 71.408865 
L 431.843892 41.040667 
L 431.843892 54.993623 
" clip-path="url(#p36eee4312d)" style="fill: none; stroke: #1f77b4; stroke-width: 1.5; stroke-linecap: square"/>
   </g>
   <g id="line2d_32">
    <path d="M 68.721733 291.783494 
L 422.765838 291.783494 
L 423.169307 290.962732 
L 423.572776 291.373113 
L 423.875378 290.962732 
L 424.278847 286.858922 
L 424.581449 285.627778 
L 424.984918 291.783494 
L 426.195325 291.783494 
L 426.497927 279.882444 
L 426.800529 279.061681 
L 427.103131 280.292825 
L 427.405732 279.472063 
L 427.607467 281.113587 
L 427.910069 281.523968 
L 428.111803 291.783494 
L 429.019609 291.783494 
L 429.221343 276.189014 
L 429.423078 277.009776 
L 429.624812 277.009776 
L 429.725679 274.54749 
L 429.927414 273.726728 
L 430.230016 291.783494 
L 430.734352 291.783494 
L 430.936087 272.495585 
L 431.238688 272.495585 
L 431.238688 272.495585 
L 431.440423 291.783494 
L 431.440423 291.783494 
L 431.54129 291.783494 
L 431.54129 291.783494 
L 431.743025 265.519107 
L 431.743025 291.783494 
L 431.843892 258.95301 
L 431.843892 291.783494 
" clip-path="url(#p36eee4312d)" style="fill: none; stroke: #ff7f0e; stroke-width: 1.5; stroke-linecap: square"/>
   </g>
   <g id="line2d_33">
    <path d="M 68.721733 291.783494 
L 368.196647 291.783494 
L 368.801851 289.321208 
L 369.407054 291.783494 
L 370.012258 291.373113 
L 370.617461 291.783494 
L 371.222665 290.14197 
L 371.827869 291.783494 
L 382.721533 291.783494 
L 383.326737 289.731589 
L 383.93194 291.783494 
L 389.983976 291.783494 
L 390.58918 290.962732 
L 391.194384 290.552351 
L 391.799587 286.448541 
L 392.404791 285.627778 
L 393.009994 288.090065 
L 393.615198 291.783494 
L 396.641216 291.783494 
L 397.24642 286.448541 
L 398.456827 285.627778 
L 399.06203 276.599395 
L 399.667234 285.627778 
L 400.272438 291.783494 
L 403.903659 291.783494 
L 404.508863 283.165492 
L 405.114066 281.934349 
L 405.71927 283.165492 
L 406.324474 281.934349 
L 406.929677 282.34473 
L 407.534881 279.882444 
L 408.140084 291.783494 
L 410.964368 291.783494 
L 411.569571 276.189014 
L 412.073908 274.957871 
L 413.183448 273.316347 
L 413.788651 274.137109 
L 414.292988 273.316347 
L 414.797324 291.783494 
L 417.419873 291.783494 
L 417.924209 270.033298 
L 418.327678 267.981393 
L 418.832015 266.75025 
L 419.336351 266.75025 
L 419.73982 265.929488 
L 420.244156 285.627778 
L 420.647625 291.783494 
L 422.362369 291.783494 
L 422.765838 263.877582 
L 423.169307 260.594534 
L 423.572776 263.877582 
L 423.875378 263.877582 
L 424.278847 265.108725 
L 424.581449 291.783494 
L 425.892723 291.783494 
L 426.195325 291.373113 
L 426.497927 258.542629 
L 426.800529 258.95301 
L 427.103131 255.25958 
L 427.405732 255.25958 
L 427.607467 253.207675 
L 427.910069 286.448541 
L 428.111803 285.627778 
L 428.414405 286.448541 
L 428.61614 284.807016 
L 428.817874 285.627778 
L 429.019609 285.217397 
L 429.221343 248.693483 
L 429.423078 250.745388 
L 429.624812 248.693483 
L 429.725679 246.231197 
L 429.927414 247.46234 
L 430.230016 284.807016 
L 430.330883 291.783494 
L 430.532618 283.575873 
L 430.633485 284.396635 
L 430.734352 283.165492 
L 430.936087 246.231197 
L 431.137821 243.76891 
L 431.238688 242.537767 
L 431.238688 281.523968 
L 431.339556 274.957871 
L 431.440423 280.292825 
L 431.54129 279.882444 
L 431.642158 237.202813 
L 431.743025 238.023576 
L 431.843892 227.353668 
L 431.843892 279.882444 
L 431.843892 274.957871 
" clip-path="url(#p36eee4312d)" style="fill: none; stroke: #2ca02c; stroke-width: 1.5; stroke-linecap: square"/>
   </g>
   <g id="line2d_34">
    <path d="M 68.721733 113.678115 
L 68.721773 113.678115 
L 68.724315 113.267733 
L 68.832485 115.73002 
L 68.857904 114.498877 
L 68.919937 114.909258 
L 68.957056 116.140401 
L 68.998513 114.909258 
L 69.279529 114.909258 
L 69.352153 114.498877 
L 69.607448 115.73002 
L 69.705794 114.909258 
L 69.811099 116.961163 
L 69.924071 114.498877 
L 70.044103 115.73002 
L 70.171196 114.088496 
L 70.307366 114.909258 
L 70.451607 113.678115 
L 70.603916 115.319639 
L 70.765304 114.088496 
L 70.935769 114.909258 
L 71.115313 112.446971 
L 71.302926 114.909258 
L 71.500626 110.805447 
L 71.707404 111.215828 
L 71.92326 110.395066 
L 72.147185 110.395066 
L 72.381197 108.753542 
L 72.624287 109.574304 
L 72.876456 108.753542 
L 73.136693 108.343161 
L 73.407017 110.805447 
L 73.68642 109.984685 
L 73.9749 109.574304 
L 74.27145 108.753542 
L 74.893801 108.753542 
L 75.218594 110.805447 
L 75.551456 109.163923 
L 75.894404 111.215828 
L 76.246431 112.03659 
L 76.607536 112.446971 
L 77.355971 114.909258 
L 77.74431 115.73002 
L 78.141727 116.961163 
L 78.547213 119.013068 
L 78.95976 119.423449 
L 79.383403 119.013068 
L 79.817132 119.423449 
L 80.260948 122.296117 
L 80.714851 121.885736 
L 81.17884 122.296117 
L 81.64283 121.475355 
L 82.116906 125.168784 
L 82.601069 123.52726 
L 83.095318 125.579165 
L 83.589568 123.52726 
L 84.093904 124.758403 
L 84.608327 125.579165 
L 85.132837 126.810308 
L 85.657347 124.348022 
L 86.181857 127.22069 
L 86.72654 125.168784 
L 87.271223 128.041452 
L 87.815906 124.348022 
L 88.370676 127.631071 
L 88.925446 126.810308 
L 89.490303 125.579165 
L 90.05516 125.579165 
L 90.630103 124.758403 
L 91.205047 125.579165 
L 91.77999 123.52726 
L 92.36502 122.296117 
L 92.95005 125.989546 
L 93.545167 123.52726 
L 94.130197 123.937641 
L 94.725314 121.885736 
L 95.320431 121.885736 
L 95.915548 121.475355 
L 96.520752 121.475355 
L 97.125955 120.654593 
L 97.721072 118.602687 
L 98.326276 119.013068 
L 99.536683 119.013068 
L 100.141886 120.244211 
L 100.74709 118.602687 
L 101.352294 118.602687 
L 101.957497 117.781925 
L 102.562701 116.550782 
L 103.167904 116.961163 
L 103.773108 116.961163 
L 104.378312 119.013068 
L 104.983515 119.013068 
L 105.588719 120.244211 
L 106.799126 120.244211 
L 108.009533 118.602687 
L 108.614737 119.423449 
L 109.21994 119.83383 
L 109.825144 119.423449 
L 110.430348 119.83383 
L 111.035551 120.654593 
L 111.640755 119.013068 
L 112.245958 119.423449 
L 112.851162 116.961163 
L 113.456366 117.781925 
L 114.061569 119.013068 
L 114.666773 119.423449 
L 115.271976 117.781925 
L 115.87718 116.961163 
L 116.482384 117.371544 
L 117.087587 117.371544 
L 117.692791 119.013068 
L 118.297994 117.781925 
L 118.903198 120.244211 
L 119.508402 119.013068 
L 120.113605 120.654593 
L 120.718809 121.885736 
L 121.324012 122.706498 
L 121.929216 122.296117 
L 122.53442 125.989546 
L 123.139623 125.989546 
L 123.744827 128.041452 
L 124.35003 128.451833 
L 125.560438 134.607549 
L 126.165641 138.300978 
L 126.770845 141.173646 
L 128.586456 152.664315 
L 129.191659 158.40965 
L 129.796863 162.10308 
L 132.217677 189.188229 
L 134.638492 221.608333 
L 135.243695 231.86786 
L 136.454102 247.051959 
L 137.059306 258.132247 
L 139.48012 291.783494 
L 212.659322 291.783494 
L 213.264526 285.627778 
L 213.869729 278.240919 
L 214.474933 272.495585 
L 218.711358 219.146047 
L 219.316562 211.759188 
L 219.921765 206.013853 
L 221.132173 191.240135 
L 221.737376 183.032514 
L 222.34258 176.876798 
L 223.552987 163.334223 
L 224.15819 157.178507 
L 225.368598 146.91898 
L 227.184208 136.659454 
L 227.789412 132.145262 
L 228.999819 126.810308 
L 229.605023 125.989546 
L 230.210226 124.348022 
L 230.81543 123.52726 
L 231.420634 123.937641 
L 232.631041 121.475355 
L 233.236244 121.064974 
L 233.841448 121.885736 
L 234.446652 121.885736 
L 235.051855 122.296117 
L 235.657059 123.52726 
L 236.262262 123.937641 
L 236.867466 123.937641 
L 237.47267 125.579165 
L 238.077873 125.579165 
L 238.683077 126.399927 
L 239.28828 127.631071 
L 239.893484 127.631071 
L 240.498688 128.041452 
L 241.103891 128.041452 
L 241.709095 128.451833 
L 242.314298 129.272595 
L 242.919502 128.451833 
L 243.524706 129.272595 
L 244.129909 131.734881 
L 244.735113 129.682976 
L 245.340316 131.734881 
L 245.94552 130.503738 
L 246.550724 132.145262 
L 247.155927 130.503738 
L 247.761131 133.376405 
L 248.366334 132.145262 
L 248.971538 132.555643 
L 249.576742 132.555643 
L 250.181945 134.607549 
L 250.787149 134.197168 
L 251.392352 135.428311 
L 251.997556 134.607549 
L 252.60276 135.01793 
L 253.207963 134.197168 
L 253.813167 136.249073 
L 254.41837 133.786786 
L 255.023574 133.376405 
L 255.628778 132.145262 
L 256.233981 134.607549 
L 256.839185 131.734881 
L 257.444388 134.197168 
L 258.049592 130.093357 
L 258.654796 130.503738 
L 259.259999 128.041452 
L 259.865203 129.272595 
L 260.470406 128.041452 
L 261.07561 128.451833 
L 261.680814 128.041452 
L 262.286017 128.041452 
L 262.891221 125.168784 
L 263.496424 126.810308 
L 264.101628 124.348022 
L 264.706832 124.758403 
L 265.312035 122.296117 
L 265.917239 125.579165 
L 266.522442 122.296117 
L 267.127646 124.758403 
L 267.73285 121.064974 
L 268.338053 121.885736 
L 268.943257 121.475355 
L 269.54846 121.475355 
L 270.758868 120.654593 
L 271.364071 120.654593 
L 271.969275 119.423449 
L 272.574478 119.83383 
L 273.179682 117.371544 
L 273.784886 116.961163 
L 274.390089 117.781925 
L 274.995293 116.140401 
L 275.600496 116.140401 
L 276.2057 115.319639 
L 276.810904 116.961163 
L 277.416107 116.550782 
L 278.021311 119.013068 
L 278.626514 115.319639 
L 279.231718 116.961163 
L 279.836922 114.909258 
L 280.442125 115.73002 
L 281.047329 115.73002 
L 281.652532 118.602687 
L 282.257736 119.423449 
L 282.86294 116.961163 
L 283.468143 118.192306 
L 284.073347 119.83383 
L 284.67855 119.423449 
L 285.283754 120.244211 
L 285.888958 121.475355 
L 287.099365 120.654593 
L 287.704568 121.885736 
L 288.309772 122.296117 
L 288.914976 121.885736 
L 289.520179 122.706498 
L 290.125383 125.989546 
L 290.730586 123.52726 
L 291.33579 123.52726 
L 291.940994 125.579165 
L 292.546197 127.22069 
L 293.151401 125.989546 
L 293.756604 125.579165 
L 294.361808 127.22069 
L 294.967012 127.22069 
L 295.572215 126.810308 
L 296.177419 128.041452 
L 296.782622 127.22069 
L 297.387826 125.989546 
L 297.99303 124.348022 
L 298.598233 123.52726 
L 299.203437 123.52726 
L 299.80864 123.937641 
L 300.413844 122.296117 
L 301.019048 121.475355 
L 301.624251 122.296117 
L 302.229455 121.475355 
L 302.834658 119.013068 
L 303.439862 118.602687 
L 304.045065 119.83383 
L 304.650269 119.83383 
L 305.255473 119.013068 
L 305.860676 118.602687 
L 306.46588 116.550782 
L 307.071083 119.013068 
L 307.676287 118.602687 
L 308.281491 120.654593 
L 308.886694 119.423449 
L 309.491898 121.885736 
L 310.097101 122.706498 
L 310.702305 124.348022 
L 311.307509 126.399927 
L 311.912712 128.041452 
L 312.517916 130.914119 
L 313.123119 135.428311 
L 313.728323 136.249073 
L 314.93873 146.508599 
L 315.543934 148.560505 
L 316.754341 160.871936 
L 317.359545 167.438033 
L 318.569952 185.4948 
L 320.385563 219.966809 
L 321.59597 244.589672 
L 322.201173 254.849199 
L 324.016784 290.552351 
L 324.621988 291.783494 
L 399.667234 291.783494 
L 400.272438 288.500446 
L 400.877641 284.396635 
L 402.088048 266.339869 
L 402.693252 258.132247 
L 403.298456 247.051959 
L 403.903659 238.433957 
L 404.508863 225.712144 
L 406.929677 187.136324 
L 409.249624 154.71622 
L 409.854828 150.202029 
L 411.569571 128.041452 
L 412.073908 122.706498 
L 412.679111 119.423449 
L 413.183448 119.83383 
L 413.788651 114.909258 
L 414.292988 114.498877 
L 414.797324 116.961163 
L 415.30166 114.909258 
L 415.906864 114.498877 
L 416.4112 113.678115 
L 416.915537 113.267733 
L 417.419873 113.678115 
L 417.924209 110.805447 
L 418.327678 109.574304 
L 418.832015 109.984685 
L 419.336351 108.753542 
L 419.73982 107.112018 
L 420.244156 105.880874 
L 420.647625 111.215828 
L 421.151962 110.805447 
L 421.555431 109.163923 
L 421.9589 109.574304 
L 422.362369 108.343161 
L 422.765838 101.777064 
L 423.169307 100.545921 
L 423.572776 99.725159 
L 423.875378 97.262872 
L 424.581449 93.979824 
L 424.984918 99.314777 
L 425.590122 95.621348 
L 426.195325 93.569443 
L 426.497927 86.592965 
L 426.800529 83.720297 
L 427.103131 87.003346 
L 427.405732 77.974962 
L 427.607467 80.026868 
L 427.910069 80.026868 
L 428.111803 83.309916 
L 428.414405 80.026868 
L 428.817874 83.720297 
L 429.019609 83.720297 
L 429.221343 77.564581 
L 429.423078 75.512676 
L 429.624812 82.489154 
L 429.725679 77.564581 
L 429.927414 84.130678 
L 430.330883 88.64487 
L 430.633485 88.64487 
L 430.734352 92.338299 
L 430.835219 82.489154 
L 430.936087 84.95144 
L 431.036954 82.489154 
L 431.137821 85.772203 
L 431.238688 79.616487 
L 431.238688 84.95144 
L 431.339556 87.413727 
L 431.440423 86.182584 
L 431.54129 84.130678 
L 431.743025 70.998484 
L 431.743025 75.512676 
L 431.843892 94.390205 
L 431.843892 72.640009 
L 431.843892 94.390205 
" clip-path="url(#p36eee4312d)" style="fill: none; stroke: #d62728; stroke-width: 1.5; stroke-linecap: square"/>
   </g>
   <g id="patch_3">
    <path d="M 50.565625 304.44375 
L 50.565625 25.918125 
" style="fill: none; stroke: #000000; stroke-width: 0.8; stroke-linejoin: miter; stroke-linecap: square"/>
   </g>
   <g id="patch_4">
    <path d="M 450 304.44375 
L 450 25.918125 
" style="fill: none; stroke: #000000; stroke-width: 0.8; stroke-linejoin: miter; stroke-linecap: square"/>
   </g>
   <g id="patch_5">
    <path d="M 50.565625 304.44375 
L 450 304.44375 
" style="fill: none; stroke: #000000; stroke-width: 0.8; stroke-linejoin: miter; stroke-linecap: square"/>
   </g>
   <g id="patch_6">
    <path d="M 50.565625 25.918125 
L 450 25.918125 
" style="fill: none; stroke: #000000; stroke-width: 0.8; stroke-linejoin: miter; stroke-linecap: square"/>
   </g>
   <g id="text_18">
    <!-- Reflector Raw Value -->
    <g transform="translate(190.522812 19.918125)scale(0.12 -0.12)">
     <use xlink:href="#DejaVuSans-52"/>
     <use xlink:href="#DejaVuSans-65" x="64.982422"/>
     <use xlink:href="#DejaVuSans-66" x="126.505859"/>
     <use xlink:href="#DejaVuSans-6c" x="161.710938"/>
     <use xlink:href="#DejaVuSans-65" x="189.494141"/>
     <use xlink:href="#DejaVuSans-63" x="251.017578"/>
     <use xlink:href="#DejaVuSans-74" x="305.998047"/>
     <use xlink:href="#DejaVuSans-6f" x="345.207031"/>
     <use xlink:href="#DejaVuSans-72" x="406.388672"/>
     <use xlink:href="#DejaVuSans-20" x="447.501953"/>
     <use xlink:href="#DejaVuSans-52" x="479.289062"/>
     <use xlink:href="#DejaVuSans-61" x="546.521484"/>
     <use xlink:href="#DejaVuSans-77" x="607.800781"/>
     <use xlink:href="#DejaVuSans-20" x="689.587891"/>
     <use xlink:href="#DejaVuSans-56" x="721.375"/>
     <use xlink:href="#DejaVuSans-61" x="782.033203"/>
     <use xlink:href="#DejaVuSans-6c" x="843.3125"/>
     <use xlink:href="#DejaVuSans-75" x="871.095703"/>
     <use xlink:href="#DejaVuSans-65" x="934.474609"/>
    </g>
   </g>
   <g id="legend_1">
    <g id="patch_7">
     <path d="M 356.2 196.037187 
L 443 196.037187 
Q 445 196.037187 445 194.037187 
L 445 136.324687 
Q 445 134.324687 443 134.324687 
L 356.2 134.324687 
Q 354.2 134.324687 354.2 136.324687 
L 354.2 194.037187 
Q 354.2 196.037187 356.2 196.037187 
z
" style="fill: #ffffff; opacity: 0.8; stroke: #cccccc; stroke-linejoin: miter"/>
    </g>
    <g id="line2d_35">
     <path d="M 358.2 142.423125 
L 368.2 142.423125 
L 378.2 142.423125 
" style="fill: none; stroke: #1f77b4; stroke-width: 1.5; stroke-linecap: square"/>
    </g>
    <g id="text_19">
     <!-- Left Side -->
     <g transform="translate(386.2 145.923125)scale(0.1 -0.1)">
      <defs>
       <path id="DejaVuSans-4c" d="M 628 4666 
L 1259 4666 
L 1259 531 
L 3531 531 
L 3531 0 
L 628 0 
L 628 4666 
z
" transform="scale(0.015625)"/>
       <path id="DejaVuSans-53" d="M 3425 4513 
L 3425 3897 
Q 3066 4069 2747 4153 
Q 2428 4238 2131 4238 
Q 1616 4238 1336 4038 
Q 1056 3838 1056 3469 
Q 1056 3159 1242 3001 
Q 1428 2844 1947 2747 
L 2328 2669 
Q 3034 2534 3370 2195 
Q 3706 1856 3706 1288 
Q 3706 609 3251 259 
Q 2797 -91 1919 -91 
Q 1588 -91 1214 -16 
Q 841 59 441 206 
L 441 856 
Q 825 641 1194 531 
Q 1563 422 1919 422 
Q 2459 422 2753 634 
Q 3047 847 3047 1241 
Q 3047 1584 2836 1778 
Q 2625 1972 2144 2069 
L 1759 2144 
Q 1053 2284 737 2584 
Q 422 2884 422 3419 
Q 422 4038 858 4394 
Q 1294 4750 2059 4750 
Q 2388 4750 2728 4690 
Q 3069 4631 3425 4513 
z
" transform="scale(0.015625)"/>
       <path id="DejaVuSans-64" d="M 2906 2969 
L 2906 4863 
L 3481 4863 
L 3481 0 
L 2906 0 
L 2906 525 
Q 2725 213 2448 61 
Q 2172 -91 1784 -91 
Q 1150 -91 751 415 
Q 353 922 353 1747 
Q 353 2572 751 3078 
Q 1150 3584 1784 3584 
Q 2172 3584 2448 3432 
Q 2725 3281 2906 2969 
z
M 947 1747 
Q 947 1113 1208 752 
Q 1469 391 1925 391 
Q 2381 391 2643 752 
Q 2906 1113 2906 1747 
Q 2906 2381 2643 2742 
Q 2381 3103 1925 3103 
Q 1469 3103 1208 2742 
Q 947 2381 947 1747 
z
" transform="scale(0.015625)"/>
      </defs>
      <use xlink:href="#DejaVuSans-4c"/>
      <use xlink:href="#DejaVuSans-65" x="53.962891"/>
      <use xlink:href="#DejaVuSans-66" x="115.486328"/>
      <use xlink:href="#DejaVuSans-74" x="148.941406"/>
      <use xlink:href="#DejaVuSans-20" x="188.150391"/>
      <use xlink:href="#DejaVuSans-53" x="219.9375"/>
      <use xlink:href="#DejaVuSans-69" x="283.414062"/>
      <use xlink:href="#DejaVuSans-64" x="311.197266"/>
      <use xlink:href="#DejaVuSans-65" x="374.673828"/>
     </g>
    </g>
    <g id="line2d_36">
     <path d="M 358.2 157.10125 
L 368.2 157.10125 
L 378.2 157.10125 
" style="fill: none; stroke: #ff7f0e; stroke-width: 1.5; stroke-linecap: square"/>
    </g>
    <g id="text_20">
     <!-- Left Front -->
     <g transform="translate(386.2 160.60125)scale(0.1 -0.1)">
      <defs>
       <path id="DejaVuSans-46" d="M 628 4666 
L 3309 4666 
L 3309 4134 
L 1259 4134 
L 1259 2759 
L 3109 2759 
L 3109 2228 
L 1259 2228 
L 1259 0 
L 628 0 
L 628 4666 
z
" transform="scale(0.015625)"/>
      </defs>
      <use xlink:href="#DejaVuSans-4c"/>
      <use xlink:href="#DejaVuSans-65" x="53.962891"/>
      <use xlink:href="#DejaVuSans-66" x="115.486328"/>
      <use xlink:href="#DejaVuSans-74" x="148.941406"/>
      <use xlink:href="#DejaVuSans-20" x="188.150391"/>
      <use xlink:href="#DejaVuSans-46" x="219.9375"/>
      <use xlink:href="#DejaVuSans-72" x="270.207031"/>
      <use xlink:href="#DejaVuSans-6f" x="309.070312"/>
      <use xlink:href="#DejaVuSans-6e" x="370.251953"/>
      <use xlink:href="#DejaVuSans-74" x="433.630859"/>
     </g>
    </g>
    <g id="line2d_37">
     <path d="M 358.2 171.779375 
L 368.2 171.779375 
L 378.2 171.779375 
" style="fill: none; stroke: #2ca02c; stroke-width: 1.5; stroke-linecap: square"/>
    </g>
    <g id="text_21">
     <!-- Right Front -->
     <g transform="translate(386.2 175.279375)scale(0.1 -0.1)">
      <defs>
       <path id="DejaVuSans-67" d="M 2906 1791 
Q 2906 2416 2648 2759 
Q 2391 3103 1925 3103 
Q 1463 3103 1205 2759 
Q 947 2416 947 1791 
Q 947 1169 1205 825 
Q 1463 481 1925 481 
Q 2391 481 2648 825 
Q 2906 1169 2906 1791 
z
M 3481 434 
Q 3481 -459 3084 -895 
Q 2688 -1331 1869 -1331 
Q 1566 -1331 1297 -1286 
Q 1028 -1241 775 -1147 
L 775 -588 
Q 1028 -725 1275 -790 
Q 1522 -856 1778 -856 
Q 2344 -856 2625 -561 
Q 2906 -266 2906 331 
L 2906 616 
Q 2728 306 2450 153 
Q 2172 0 1784 0 
Q 1141 0 747 490 
Q 353 981 353 1791 
Q 353 2603 747 3093 
Q 1141 3584 1784 3584 
Q 2172 3584 2450 3431 
Q 2728 3278 2906 2969 
L 2906 3500 
L 3481 3500 
L 3481 434 
z
" transform="scale(0.015625)"/>
       <path id="DejaVuSans-68" d="M 3513 2113 
L 3513 0 
L 2938 0 
L 2938 2094 
Q 2938 2591 2744 2837 
Q 2550 3084 2163 3084 
Q 1697 3084 1428 2787 
Q 1159 2491 1159 1978 
L 1159 0 
L 581 0 
L 581 4863 
L 1159 4863 
L 1159 2956 
Q 1366 3272 1645 3428 
Q 1925 3584 2291 3584 
Q 2894 3584 3203 3211 
Q 3513 2838 3513 2113 
z
" transform="scale(0.015625)"/>
      </defs>
      <use xlink:href="#DejaVuSans-52"/>
      <use xlink:href="#DejaVuSans-69" x="69.482422"/>
      <use xlink:href="#DejaVuSans-67" x="97.265625"/>
      <use xlink:href="#DejaVuSans-68" x="160.742188"/>
      <use xlink:href="#DejaVuSans-74" x="224.121094"/>
      <use xlink:href="#DejaVuSans-20" x="263.330078"/>
      <use xlink:href="#DejaVuSans-46" x="295.117188"/>
      <use xlink:href="#DejaVuSans-72" x="345.386719"/>
      <use xlink:href="#DejaVuSans-6f" x="384.25"/>
      <use xlink:href="#DejaVuSans-6e" x="445.431641"/>
      <use xlink:href="#DejaVuSans-74" x="508.810547"/>
     </g>
    </g>
    <g id="line2d_38">
     <path d="M 358.2 186.4575 
L 368.2 186.4575 
L 378.2 186.4575 
" style="fill: none; stroke: #d62728; stroke-width: 1.5; stroke-linecap: square"/>
    </g>
    <g id="text_22">
     <!-- Right Side -->
     <g transform="translate(386.2 189.9575)scale(0.1 -0.1)">
      <use xlink:href="#DejaVuSans-52"/>
      <use xlink:href="#DejaVuSans-69" x="69.482422"/>
      <use xlink:href="#DejaVuSans-67" x="97.265625"/>
      <use xlink:href="#DejaVuSans-68" x="160.742188"/>
      <use xlink:href="#DejaVuSans-74" x="224.121094"/>
      <use xlink:href="#DejaVuSans-20" x="263.330078"/>
      <use xlink:href="#DejaVuSans-53" x="295.117188"/>
      <use xlink:href="#DejaVuSans-69" x="358.59375"/>
      <use xlink:href="#DejaVuSans-64" x="386.376953"/>
      <use xlink:href="#DejaVuSans-65" x="449.853516"/>
     </g>
    </g>
   </g>
  </g>
 </g>
 <defs>
  <clipPath id="p36eee4312d">
   <rect x="50.565625" y="25.918125" width="399.434375" height="278.525625"/>
  </clipPath>
 </defs>
</svg>
