<?xml version="1.0" encoding="utf-8" standalone="no"?>
<!DOCTYPE svg PUBLIC "-//W3C//DTD SVG 1.1//EN"
  "http://www.w3.org/Graphics/SVG/1.1/DTD/svg11.dtd">
<svg xmlns:xlink="http://www.w3.org/1999/xlink" width="460.8pt" height="345.6pt" viewBox="0 0 460.8 345.6" xmlns="http://www.w3.org/2000/svg" version="1.1">
 <metadata>
  <rdf:RDF xmlns:dc="http://purl.org/dc/elements/1.1/" xmlns:cc="http://creativecommons.org/ns#" xmlns:rdf="http://www.w3.org/1999/02/22-rdf-syntax-ns#">
   <cc:Work>
    <dc:type rdf:resource="http://purl.org/dc/dcmitype/StillImage"/>
    <dc:date>2022-01-15T16:32:21.277302</dc:date>
    <dc:format>image/svg+xml</dc:format>
    <dc:creator>
     <cc:Agent>
      <dc:title>Matplotlib v3.5.1, https://matplotlib.org/</dc:title>
     </cc:Agent>
    </dc:creator>
   </cc:Work>
  </rdf:RDF>
 </metadata>
 <defs>
  <style type="text/css">*{stroke-linejoin: round; stroke-linecap: butt}</style>
 </defs>
 <g id="figure_1">
  <g id="patch_1">
   <path d="M 0 345.6 
L 460.8 345.6 
L 460.8 0 
L 0 0 
z
" style="fill: #ffffff"/>
  </g>
  <g id="axes_1">
   <g id="patch_2">
    <path d="M 58.945313 304.44375 
L 450 304.44375 
L 450 25.918125 
L 58.945313 25.918125 
z
" style="fill: #ffffff"/>
   </g>
   <g id="matplotlib.axis_1">
    <g id="xtick_1">
     <g id="line2d_1">
      <path d="M 76.720526 304.44375 
L 76.720526 25.918125 
" clip-path="url(#p2b2f86e42b)" style="fill: none; stroke: #b0b0b0; stroke-width: 0.8; stroke-linecap: square"/>
     </g>
     <g id="line2d_2">
      <defs>
       <path id="mb3bd638f67" d="M 0 0 
L 0 3.5 
" style="stroke: #000000; stroke-width: 0.8"/>
      </defs>
      <g>
       <use xlink:href="#mb3bd638f67" x="76.720526" y="304.44375" style="stroke: #000000; stroke-width: 0.8"/>
      </g>
     </g>
     <g id="text_1">
      <!-- 0 -->
      <g transform="translate(73.539276 319.042187)scale(0.1 -0.1)">
       <defs>
        <path id="DejaVuSans-30" d="M 2034 4250 
Q 1547 4250 1301 3770 
Q 1056 3291 1056 2328 
Q 1056 1369 1301 889 
Q 1547 409 2034 409 
Q 2525 409 2770 889 
Q 3016 1369 3016 2328 
Q 3016 3291 2770 3770 
Q 2525 4250 2034 4250 
z
M 2034 4750 
Q 2819 4750 3233 4129 
Q 3647 3509 3647 2328 
Q 3647 1150 3233 529 
Q 2819 -91 2034 -91 
Q 1250 -91 836 529 
Q 422 1150 422 2328 
Q 422 3509 836 4129 
Q 1250 4750 2034 4750 
z
" transform="scale(0.015625)"/>
       </defs>
       <use xlink:href="#DejaVuSans-30"/>
      </g>
     </g>
    </g>
    <g id="xtick_2">
     <g id="line2d_3">
      <path d="M 126.096117 304.44375 
L 126.096117 25.918125 
" clip-path="url(#p2b2f86e42b)" style="fill: none; stroke: #b0b0b0; stroke-width: 0.8; stroke-linecap: square"/>
     </g>
     <g id="line2d_4">
      <g>
       <use xlink:href="#mb3bd638f67" x="126.096117" y="304.44375" style="stroke: #000000; stroke-width: 0.8"/>
      </g>
     </g>
     <g id="text_2">
      <!-- 50 -->
      <g transform="translate(119.733617 319.042187)scale(0.1 -0.1)">
       <defs>
        <path id="DejaVuSans-35" d="M 691 4666 
L 3169 4666 
L 3169 4134 
L 1269 4134 
L 1269 2991 
Q 1406 3038 1543 3061 
Q 1681 3084 1819 3084 
Q 2600 3084 3056 2656 
Q 3513 2228 3513 1497 
Q 3513 744 3044 326 
Q 2575 -91 1722 -91 
Q 1428 -91 1123 -41 
Q 819 9 494 109 
L 494 744 
Q 775 591 1075 516 
Q 1375 441 1709 441 
Q 2250 441 2565 725 
Q 2881 1009 2881 1497 
Q 2881 1984 2565 2268 
Q 2250 2553 1709 2553 
Q 1456 2553 1204 2497 
Q 953 2441 691 2322 
L 691 4666 
z
" transform="scale(0.015625)"/>
       </defs>
       <use xlink:href="#DejaVuSans-35"/>
       <use xlink:href="#DejaVuSans-30" x="63.623047"/>
      </g>
     </g>
    </g>
    <g id="xtick_3">
     <g id="line2d_5">
      <path d="M 175.471709 304.44375 
L 175.471709 25.918125 
" clip-path="url(#p2b2f86e42b)" style="fill: none; stroke: #b0b0b0; stroke-width: 0.8; stroke-linecap: square"/>
     </g>
     <g id="line2d_6">
      <g>
       <use xlink:href="#mb3bd638f67" x="175.471709" y="304.44375" style="stroke: #000000; stroke-width: 0.8"/>
      </g>
     </g>
     <g id="text_3">
      <!-- 100 -->
      <g transform="translate(165.927959 319.042187)scale(0.1 -0.1)">
       <defs>
        <path id="DejaVuSans-31" d="M 794 531 
L 1825 531 
L 1825 4091 
L 703 3866 
L 703 4441 
L 1819 4666 
L 2450 4666 
L 2450 531 
L 3481 531 
L 3481 0 
L 794 0 
L 794 531 
z
" transform="scale(0.015625)"/>
       </defs>
       <use xlink:href="#DejaVuSans-31"/>
       <use xlink:href="#DejaVuSans-30" x="63.623047"/>
       <use xlink:href="#DejaVuSans-30" x="127.246094"/>
      </g>
     </g>
    </g>
    <g id="xtick_4">
     <g id="line2d_7">
      <path d="M 224.847301 304.44375 
L 224.847301 25.918125 
" clip-path="url(#p2b2f86e42b)" style="fill: none; stroke: #b0b0b0; stroke-width: 0.8; stroke-linecap: square"/>
     </g>
     <g id="line2d_8">
      <g>
       <use xlink:href="#mb3bd638f67" x="224.847301" y="304.44375" style="stroke: #000000; stroke-width: 0.8"/>
      </g>
     </g>
     <g id="text_4">
      <!-- 150 -->
      <g transform="translate(215.303551 319.042187)scale(0.1 -0.1)">
       <use xlink:href="#DejaVuSans-31"/>
       <use xlink:href="#DejaVuSans-35" x="63.623047"/>
       <use xlink:href="#DejaVuSans-30" x="127.246094"/>
      </g>
     </g>
    </g>
    <g id="xtick_5">
     <g id="line2d_9">
      <path d="M 274.222893 304.44375 
L 274.222893 25.918125 
" clip-path="url(#p2b2f86e42b)" style="fill: none; stroke: #b0b0b0; stroke-width: 0.8; stroke-linecap: square"/>
     </g>
     <g id="line2d_10">
      <g>
       <use xlink:href="#mb3bd638f67" x="274.222893" y="304.44375" style="stroke: #000000; stroke-width: 0.8"/>
      </g>
     </g>
     <g id="text_5">
      <!-- 200 -->
      <g transform="translate(264.679143 319.042187)scale(0.1 -0.1)">
       <defs>
        <path id="DejaVuSans-32" d="M 1228 531 
L 3431 531 
L 3431 0 
L 469 0 
L 469 531 
Q 828 903 1448 1529 
Q 2069 2156 2228 2338 
Q 2531 2678 2651 2914 
Q 2772 3150 2772 3378 
Q 2772 3750 2511 3984 
Q 2250 4219 1831 4219 
Q 1534 4219 1204 4116 
Q 875 4013 500 3803 
L 500 4441 
Q 881 4594 1212 4672 
Q 1544 4750 1819 4750 
Q 2544 4750 2975 4387 
Q 3406 4025 3406 3419 
Q 3406 3131 3298 2873 
Q 3191 2616 2906 2266 
Q 2828 2175 2409 1742 
Q 1991 1309 1228 531 
z
" transform="scale(0.015625)"/>
       </defs>
       <use xlink:href="#DejaVuSans-32"/>
       <use xlink:href="#DejaVuSans-30" x="63.623047"/>
       <use xlink:href="#DejaVuSans-30" x="127.246094"/>
      </g>
     </g>
    </g>
    <g id="xtick_6">
     <g id="line2d_11">
      <path d="M 323.598485 304.44375 
L 323.598485 25.918125 
" clip-path="url(#p2b2f86e42b)" style="fill: none; stroke: #b0b0b0; stroke-width: 0.8; stroke-linecap: square"/>
     </g>
     <g id="line2d_12">
      <g>
       <use xlink:href="#mb3bd638f67" x="323.598485" y="304.44375" style="stroke: #000000; stroke-width: 0.8"/>
      </g>
     </g>
     <g id="text_6">
      <!-- 250 -->
      <g transform="translate(314.054735 319.042187)scale(0.1 -0.1)">
       <use xlink:href="#DejaVuSans-32"/>
       <use xlink:href="#DejaVuSans-35" x="63.623047"/>
       <use xlink:href="#DejaVuSans-30" x="127.246094"/>
      </g>
     </g>
    </g>
    <g id="xtick_7">
     <g id="line2d_13">
      <path d="M 372.974077 304.44375 
L 372.974077 25.918125 
" clip-path="url(#p2b2f86e42b)" style="fill: none; stroke: #b0b0b0; stroke-width: 0.8; stroke-linecap: square"/>
     </g>
     <g id="line2d_14">
      <g>
       <use xlink:href="#mb3bd638f67" x="372.974077" y="304.44375" style="stroke: #000000; stroke-width: 0.8"/>
      </g>
     </g>
     <g id="text_7">
      <!-- 300 -->
      <g transform="translate(363.430327 319.042187)scale(0.1 -0.1)">
       <defs>
        <path id="DejaVuSans-33" d="M 2597 2516 
Q 3050 2419 3304 2112 
Q 3559 1806 3559 1356 
Q 3559 666 3084 287 
Q 2609 -91 1734 -91 
Q 1441 -91 1130 -33 
Q 819 25 488 141 
L 488 750 
Q 750 597 1062 519 
Q 1375 441 1716 441 
Q 2309 441 2620 675 
Q 2931 909 2931 1356 
Q 2931 1769 2642 2001 
Q 2353 2234 1838 2234 
L 1294 2234 
L 1294 2753 
L 1863 2753 
Q 2328 2753 2575 2939 
Q 2822 3125 2822 3475 
Q 2822 3834 2567 4026 
Q 2313 4219 1838 4219 
Q 1578 4219 1281 4162 
Q 984 4106 628 3988 
L 628 4550 
Q 988 4650 1302 4700 
Q 1616 4750 1894 4750 
Q 2613 4750 3031 4423 
Q 3450 4097 3450 3541 
Q 3450 3153 3228 2886 
Q 3006 2619 2597 2516 
z
" transform="scale(0.015625)"/>
       </defs>
       <use xlink:href="#DejaVuSans-33"/>
       <use xlink:href="#DejaVuSans-30" x="63.623047"/>
       <use xlink:href="#DejaVuSans-30" x="127.246094"/>
      </g>
     </g>
    </g>
    <g id="xtick_8">
     <g id="line2d_15">
      <path d="M 422.349669 304.44375 
L 422.349669 25.918125 
" clip-path="url(#p2b2f86e42b)" style="fill: none; stroke: #b0b0b0; stroke-width: 0.8; stroke-linecap: square"/>
     </g>
     <g id="line2d_16">
      <g>
       <use xlink:href="#mb3bd638f67" x="422.349669" y="304.44375" style="stroke: #000000; stroke-width: 0.8"/>
      </g>
     </g>
     <g id="text_8">
      <!-- 350 -->
      <g transform="translate(412.805919 319.042187)scale(0.1 -0.1)">
       <use xlink:href="#DejaVuSans-33"/>
       <use xlink:href="#DejaVuSans-35" x="63.623047"/>
       <use xlink:href="#DejaVuSans-30" x="127.246094"/>
      </g>
     </g>
    </g>
    <g id="text_9">
     <!-- Translational Position [mm] -->
     <g transform="translate(186.495312 332.720312)scale(0.1 -0.1)">
      <defs>
       <path id="DejaVuSans-54" d="M -19 4666 
L 3928 4666 
L 3928 4134 
L 2272 4134 
L 2272 0 
L 1638 0 
L 1638 4134 
L -19 4134 
L -19 4666 
z
" transform="scale(0.015625)"/>
       <path id="DejaVuSans-72" d="M 2631 2963 
Q 2534 3019 2420 3045 
Q 2306 3072 2169 3072 
Q 1681 3072 1420 2755 
Q 1159 2438 1159 1844 
L 1159 0 
L 581 0 
L 581 3500 
L 1159 3500 
L 1159 2956 
Q 1341 3275 1631 3429 
Q 1922 3584 2338 3584 
Q 2397 3584 2469 3576 
Q 2541 3569 2628 3553 
L 2631 2963 
z
" transform="scale(0.015625)"/>
       <path id="DejaVuSans-61" d="M 2194 1759 
Q 1497 1759 1228 1600 
Q 959 1441 959 1056 
Q 959 750 1161 570 
Q 1363 391 1709 391 
Q 2188 391 2477 730 
Q 2766 1069 2766 1631 
L 2766 1759 
L 2194 1759 
z
M 3341 1997 
L 3341 0 
L 2766 0 
L 2766 531 
Q 2569 213 2275 61 
Q 1981 -91 1556 -91 
Q 1019 -91 701 211 
Q 384 513 384 1019 
Q 384 1609 779 1909 
Q 1175 2209 1959 2209 
L 2766 2209 
L 2766 2266 
Q 2766 2663 2505 2880 
Q 2244 3097 1772 3097 
Q 1472 3097 1187 3025 
Q 903 2953 641 2809 
L 641 3341 
Q 956 3463 1253 3523 
Q 1550 3584 1831 3584 
Q 2591 3584 2966 3190 
Q 3341 2797 3341 1997 
z
" transform="scale(0.015625)"/>
       <path id="DejaVuSans-6e" d="M 3513 2113 
L 3513 0 
L 2938 0 
L 2938 2094 
Q 2938 2591 2744 2837 
Q 2550 3084 2163 3084 
Q 1697 3084 1428 2787 
Q 1159 2491 1159 1978 
L 1159 0 
L 581 0 
L 581 3500 
L 1159 3500 
L 1159 2956 
Q 1366 3272 1645 3428 
Q 1925 3584 2291 3584 
Q 2894 3584 3203 3211 
Q 3513 2838 3513 2113 
z
" transform="scale(0.015625)"/>
       <path id="DejaVuSans-73" d="M 2834 3397 
L 2834 2853 
Q 2591 2978 2328 3040 
Q 2066 3103 1784 3103 
Q 1356 3103 1142 2972 
Q 928 2841 928 2578 
Q 928 2378 1081 2264 
Q 1234 2150 1697 2047 
L 1894 2003 
Q 2506 1872 2764 1633 
Q 3022 1394 3022 966 
Q 3022 478 2636 193 
Q 2250 -91 1575 -91 
Q 1294 -91 989 -36 
Q 684 19 347 128 
L 347 722 
Q 666 556 975 473 
Q 1284 391 1588 391 
Q 1994 391 2212 530 
Q 2431 669 2431 922 
Q 2431 1156 2273 1281 
Q 2116 1406 1581 1522 
L 1381 1569 
Q 847 1681 609 1914 
Q 372 2147 372 2553 
Q 372 3047 722 3315 
Q 1072 3584 1716 3584 
Q 2034 3584 2315 3537 
Q 2597 3491 2834 3397 
z
" transform="scale(0.015625)"/>
       <path id="DejaVuSans-6c" d="M 603 4863 
L 1178 4863 
L 1178 0 
L 603 0 
L 603 4863 
z
" transform="scale(0.015625)"/>
       <path id="DejaVuSans-74" d="M 1172 4494 
L 1172 3500 
L 2356 3500 
L 2356 3053 
L 1172 3053 
L 1172 1153 
Q 1172 725 1289 603 
Q 1406 481 1766 481 
L 2356 481 
L 2356 0 
L 1766 0 
Q 1100 0 847 248 
Q 594 497 594 1153 
L 594 3053 
L 172 3053 
L 172 3500 
L 594 3500 
L 594 4494 
L 1172 4494 
z
" transform="scale(0.015625)"/>
       <path id="DejaVuSans-69" d="M 603 3500 
L 1178 3500 
L 1178 0 
L 603 0 
L 603 3500 
z
M 603 4863 
L 1178 4863 
L 1178 4134 
L 603 4134 
L 603 4863 
z
" transform="scale(0.015625)"/>
       <path id="DejaVuSans-6f" d="M 1959 3097 
Q 1497 3097 1228 2736 
Q 959 2375 959 1747 
Q 959 1119 1226 758 
Q 1494 397 1959 397 
Q 2419 397 2687 759 
Q 2956 1122 2956 1747 
Q 2956 2369 2687 2733 
Q 2419 3097 1959 3097 
z
M 1959 3584 
Q 2709 3584 3137 3096 
Q 3566 2609 3566 1747 
Q 3566 888 3137 398 
Q 2709 -91 1959 -91 
Q 1206 -91 779 398 
Q 353 888 353 1747 
Q 353 2609 779 3096 
Q 1206 3584 1959 3584 
z
" transform="scale(0.015625)"/>
       <path id="DejaVuSans-20" transform="scale(0.015625)"/>
       <path id="DejaVuSans-50" d="M 1259 4147 
L 1259 2394 
L 2053 2394 
Q 2494 2394 2734 2622 
Q 2975 2850 2975 3272 
Q 2975 3691 2734 3919 
Q 2494 4147 2053 4147 
L 1259 4147 
z
M 628 4666 
L 2053 4666 
Q 2838 4666 3239 4311 
Q 3641 3956 3641 3272 
Q 3641 2581 3239 2228 
Q 2838 1875 2053 1875 
L 1259 1875 
L 1259 0 
L 628 0 
L 628 4666 
z
" transform="scale(0.015625)"/>
       <path id="DejaVuSans-5b" d="M 550 4863 
L 1875 4863 
L 1875 4416 
L 1125 4416 
L 1125 -397 
L 1875 -397 
L 1875 -844 
L 550 -844 
L 550 4863 
z
" transform="scale(0.015625)"/>
       <path id="DejaVuSans-6d" d="M 3328 2828 
Q 3544 3216 3844 3400 
Q 4144 3584 4550 3584 
Q 5097 3584 5394 3201 
Q 5691 2819 5691 2113 
L 5691 0 
L 5113 0 
L 5113 2094 
Q 5113 2597 4934 2840 
Q 4756 3084 4391 3084 
Q 3944 3084 3684 2787 
Q 3425 2491 3425 1978 
L 3425 0 
L 2847 0 
L 2847 2094 
Q 2847 2600 2669 2842 
Q 2491 3084 2119 3084 
Q 1678 3084 1418 2786 
Q 1159 2488 1159 1978 
L 1159 0 
L 581 0 
L 581 3500 
L 1159 3500 
L 1159 2956 
Q 1356 3278 1631 3431 
Q 1906 3584 2284 3584 
Q 2666 3584 2933 3390 
Q 3200 3197 3328 2828 
z
" transform="scale(0.015625)"/>
       <path id="DejaVuSans-5d" d="M 1947 4863 
L 1947 -844 
L 622 -844 
L 622 -397 
L 1369 -397 
L 1369 4416 
L 622 4416 
L 622 4863 
L 1947 4863 
z
" transform="scale(0.015625)"/>
      </defs>
      <use xlink:href="#DejaVuSans-54"/>
      <use xlink:href="#DejaVuSans-72" x="46.333984"/>
      <use xlink:href="#DejaVuSans-61" x="87.447266"/>
      <use xlink:href="#DejaVuSans-6e" x="148.726562"/>
      <use xlink:href="#DejaVuSans-73" x="212.105469"/>
      <use xlink:href="#DejaVuSans-6c" x="264.205078"/>
      <use xlink:href="#DejaVuSans-61" x="291.988281"/>
      <use xlink:href="#DejaVuSans-74" x="353.267578"/>
      <use xlink:href="#DejaVuSans-69" x="392.476562"/>
      <use xlink:href="#DejaVuSans-6f" x="420.259766"/>
      <use xlink:href="#DejaVuSans-6e" x="481.441406"/>
      <use xlink:href="#DejaVuSans-61" x="544.820312"/>
      <use xlink:href="#DejaVuSans-6c" x="606.099609"/>
      <use xlink:href="#DejaVuSans-20" x="633.882812"/>
      <use xlink:href="#DejaVuSans-50" x="665.669922"/>
      <use xlink:href="#DejaVuSans-6f" x="722.347656"/>
      <use xlink:href="#DejaVuSans-73" x="783.529297"/>
      <use xlink:href="#DejaVuSans-69" x="835.628906"/>
      <use xlink:href="#DejaVuSans-74" x="863.412109"/>
      <use xlink:href="#DejaVuSans-69" x="902.621094"/>
      <use xlink:href="#DejaVuSans-6f" x="930.404297"/>
      <use xlink:href="#DejaVuSans-6e" x="991.585938"/>
      <use xlink:href="#DejaVuSans-20" x="1054.964844"/>
      <use xlink:href="#DejaVuSans-5b" x="1086.751953"/>
      <use xlink:href="#DejaVuSans-6d" x="1125.765625"/>
      <use xlink:href="#DejaVuSans-6d" x="1223.177734"/>
      <use xlink:href="#DejaVuSans-5d" x="1320.589844"/>
     </g>
    </g>
   </g>
   <g id="matplotlib.axis_2">
    <g id="ytick_1">
     <g id="line2d_17">
      <path d="M 58.945313 288.760726 
L 450 288.760726 
" clip-path="url(#p2b2f86e42b)" style="fill: none; stroke: #b0b0b0; stroke-width: 0.8; stroke-linecap: square"/>
     </g>
     <g id="line2d_18">
      <defs>
       <path id="m72be6731e0" d="M 0 0 
L -3.5 0 
" style="stroke: #000000; stroke-width: 0.8"/>
      </defs>
      <g>
       <use xlink:href="#m72be6731e0" x="58.945313" y="288.760726" style="stroke: #000000; stroke-width: 0.8"/>
      </g>
     </g>
     <g id="text_10">
      <!-- −100 -->
      <g transform="translate(24.478125 292.559944)scale(0.1 -0.1)">
       <defs>
        <path id="DejaVuSans-2212" d="M 678 2272 
L 4684 2272 
L 4684 1741 
L 678 1741 
L 678 2272 
z
" transform="scale(0.015625)"/>
       </defs>
       <use xlink:href="#DejaVuSans-2212"/>
       <use xlink:href="#DejaVuSans-31" x="83.789062"/>
       <use xlink:href="#DejaVuSans-30" x="147.412109"/>
       <use xlink:href="#DejaVuSans-30" x="211.035156"/>
      </g>
     </g>
    </g>
    <g id="ytick_2">
     <g id="line2d_19">
      <path d="M 58.945313 256.603612 
L 450 256.603612 
" clip-path="url(#p2b2f86e42b)" style="fill: none; stroke: #b0b0b0; stroke-width: 0.8; stroke-linecap: square"/>
     </g>
     <g id="line2d_20">
      <g>
       <use xlink:href="#m72be6731e0" x="58.945313" y="256.603612" style="stroke: #000000; stroke-width: 0.8"/>
      </g>
     </g>
     <g id="text_11">
      <!-- −50 -->
      <g transform="translate(30.840625 260.402831)scale(0.1 -0.1)">
       <use xlink:href="#DejaVuSans-2212"/>
       <use xlink:href="#DejaVuSans-35" x="83.789062"/>
       <use xlink:href="#DejaVuSans-30" x="147.412109"/>
      </g>
     </g>
    </g>
    <g id="ytick_3">
     <g id="line2d_21">
      <path d="M 58.945313 224.446498 
L 450 224.446498 
" clip-path="url(#p2b2f86e42b)" style="fill: none; stroke: #b0b0b0; stroke-width: 0.8; stroke-linecap: square"/>
     </g>
     <g id="line2d_22">
      <g>
       <use xlink:href="#m72be6731e0" x="58.945313" y="224.446498" style="stroke: #000000; stroke-width: 0.8"/>
      </g>
     </g>
     <g id="text_12">
      <!-- 0 -->
      <g transform="translate(45.582813 228.245717)scale(0.1 -0.1)">
       <use xlink:href="#DejaVuSans-30"/>
      </g>
     </g>
    </g>
    <g id="ytick_4">
     <g id="line2d_23">
      <path d="M 58.945313 192.289384 
L 450 192.289384 
" clip-path="url(#p2b2f86e42b)" style="fill: none; stroke: #b0b0b0; stroke-width: 0.8; stroke-linecap: square"/>
     </g>
     <g id="line2d_24">
      <g>
       <use xlink:href="#m72be6731e0" x="58.945313" y="192.289384" style="stroke: #000000; stroke-width: 0.8"/>
      </g>
     </g>
     <g id="text_13">
      <!-- 50 -->
      <g transform="translate(39.220313 196.088603)scale(0.1 -0.1)">
       <use xlink:href="#DejaVuSans-35"/>
       <use xlink:href="#DejaVuSans-30" x="63.623047"/>
      </g>
     </g>
    </g>
    <g id="ytick_5">
     <g id="line2d_25">
      <path d="M 58.945313 160.132271 
L 450 160.132271 
" clip-path="url(#p2b2f86e42b)" style="fill: none; stroke: #b0b0b0; stroke-width: 0.8; stroke-linecap: square"/>
     </g>
     <g id="line2d_26">
      <g>
       <use xlink:href="#m72be6731e0" x="58.945313" y="160.132271" style="stroke: #000000; stroke-width: 0.8"/>
      </g>
     </g>
     <g id="text_14">
      <!-- 100 -->
      <g transform="translate(32.857813 163.931489)scale(0.1 -0.1)">
       <use xlink:href="#DejaVuSans-31"/>
       <use xlink:href="#DejaVuSans-30" x="63.623047"/>
       <use xlink:href="#DejaVuSans-30" x="127.246094"/>
      </g>
     </g>
    </g>
    <g id="ytick_6">
     <g id="line2d_27">
      <path d="M 58.945313 127.975157 
L 450 127.975157 
" clip-path="url(#p2b2f86e42b)" style="fill: none; stroke: #b0b0b0; stroke-width: 0.8; stroke-linecap: square"/>
     </g>
     <g id="line2d_28">
      <g>
       <use xlink:href="#m72be6731e0" x="58.945313" y="127.975157" style="stroke: #000000; stroke-width: 0.8"/>
      </g>
     </g>
     <g id="text_15">
      <!-- 150 -->
      <g transform="translate(32.857813 131.774376)scale(0.1 -0.1)">
       <use xlink:href="#DejaVuSans-31"/>
       <use xlink:href="#DejaVuSans-35" x="63.623047"/>
       <use xlink:href="#DejaVuSans-30" x="127.246094"/>
      </g>
     </g>
    </g>
    <g id="ytick_7">
     <g id="line2d_29">
      <path d="M 58.945313 95.818043 
L 450 95.818043 
" clip-path="url(#p2b2f86e42b)" style="fill: none; stroke: #b0b0b0; stroke-width: 0.8; stroke-linecap: square"/>
     </g>
     <g id="line2d_30">
      <g>
       <use xlink:href="#m72be6731e0" x="58.945313" y="95.818043" style="stroke: #000000; stroke-width: 0.8"/>
      </g>
     </g>
     <g id="text_16">
      <!-- 200 -->
      <g transform="translate(32.857813 99.617262)scale(0.1 -0.1)">
       <use xlink:href="#DejaVuSans-32"/>
       <use xlink:href="#DejaVuSans-30" x="63.623047"/>
       <use xlink:href="#DejaVuSans-30" x="127.246094"/>
      </g>
     </g>
    </g>
    <g id="ytick_8">
     <g id="line2d_31">
      <path d="M 58.945313 63.660929 
L 450 63.660929 
" clip-path="url(#p2b2f86e42b)" style="fill: none; stroke: #b0b0b0; stroke-width: 0.8; stroke-linecap: square"/>
     </g>
     <g id="line2d_32">
      <g>
       <use xlink:href="#m72be6731e0" x="58.945313" y="63.660929" style="stroke: #000000; stroke-width: 0.8"/>
      </g>
     </g>
     <g id="text_17">
      <!-- 250 -->
      <g transform="translate(32.857813 67.460148)scale(0.1 -0.1)">
       <use xlink:href="#DejaVuSans-32"/>
       <use xlink:href="#DejaVuSans-35" x="63.623047"/>
       <use xlink:href="#DejaVuSans-30" x="127.246094"/>
      </g>
     </g>
    </g>
    <g id="ytick_9">
     <g id="line2d_33">
      <path d="M 58.945313 31.503816 
L 450 31.503816 
" clip-path="url(#p2b2f86e42b)" style="fill: none; stroke: #b0b0b0; stroke-width: 0.8; stroke-linecap: square"/>
     </g>
     <g id="line2d_34">
      <g>
       <use xlink:href="#m72be6731e0" x="58.945313" y="31.503816" style="stroke: #000000; stroke-width: 0.8"/>
      </g>
     </g>
     <g id="text_18">
      <!-- 300 -->
      <g transform="translate(32.857813 35.303034)scale(0.1 -0.1)">
       <use xlink:href="#DejaVuSans-33"/>
       <use xlink:href="#DejaVuSans-30" x="63.623047"/>
       <use xlink:href="#DejaVuSans-30" x="127.246094"/>
      </g>
     </g>
    </g>
    <g id="text_19">
     <!-- Wall Distance [mm] -->
     <g transform="translate(18.398438 214.330937)rotate(-90)scale(0.1 -0.1)">
      <defs>
       <path id="DejaVuSans-57" d="M 213 4666 
L 850 4666 
L 1831 722 
L 2809 4666 
L 3519 4666 
L 4500 722 
L 5478 4666 
L 6119 4666 
L 4947 0 
L 4153 0 
L 3169 4050 
L 2175 0 
L 1381 0 
L 213 4666 
z
" transform="scale(0.015625)"/>
       <path id="DejaVuSans-44" d="M 1259 4147 
L 1259 519 
L 2022 519 
Q 2988 519 3436 956 
Q 3884 1394 3884 2338 
Q 3884 3275 3436 3711 
Q 2988 4147 2022 4147 
L 1259 4147 
z
M 628 4666 
L 1925 4666 
Q 3281 4666 3915 4102 
Q 4550 3538 4550 2338 
Q 4550 1131 3912 565 
Q 3275 0 1925 0 
L 628 0 
L 628 4666 
z
" transform="scale(0.015625)"/>
       <path id="DejaVuSans-63" d="M 3122 3366 
L 3122 2828 
Q 2878 2963 2633 3030 
Q 2388 3097 2138 3097 
Q 1578 3097 1268 2742 
Q 959 2388 959 1747 
Q 959 1106 1268 751 
Q 1578 397 2138 397 
Q 2388 397 2633 464 
Q 2878 531 3122 666 
L 3122 134 
Q 2881 22 2623 -34 
Q 2366 -91 2075 -91 
Q 1284 -91 818 406 
Q 353 903 353 1747 
Q 353 2603 823 3093 
Q 1294 3584 2113 3584 
Q 2378 3584 2631 3529 
Q 2884 3475 3122 3366 
z
" transform="scale(0.015625)"/>
       <path id="DejaVuSans-65" d="M 3597 1894 
L 3597 1613 
L 953 1613 
Q 991 1019 1311 708 
Q 1631 397 2203 397 
Q 2534 397 2845 478 
Q 3156 559 3463 722 
L 3463 178 
Q 3153 47 2828 -22 
Q 2503 -91 2169 -91 
Q 1331 -91 842 396 
Q 353 884 353 1716 
Q 353 2575 817 3079 
Q 1281 3584 2069 3584 
Q 2775 3584 3186 3129 
Q 3597 2675 3597 1894 
z
M 3022 2063 
Q 3016 2534 2758 2815 
Q 2500 3097 2075 3097 
Q 1594 3097 1305 2825 
Q 1016 2553 972 2059 
L 3022 2063 
z
" transform="scale(0.015625)"/>
      </defs>
      <use xlink:href="#DejaVuSans-57"/>
      <use xlink:href="#DejaVuSans-61" x="92.501953"/>
      <use xlink:href="#DejaVuSans-6c" x="153.78125"/>
      <use xlink:href="#DejaVuSans-6c" x="181.564453"/>
      <use xlink:href="#DejaVuSans-20" x="209.347656"/>
      <use xlink:href="#DejaVuSans-44" x="241.134766"/>
      <use xlink:href="#DejaVuSans-69" x="318.136719"/>
      <use xlink:href="#DejaVuSans-73" x="345.919922"/>
      <use xlink:href="#DejaVuSans-74" x="398.019531"/>
      <use xlink:href="#DejaVuSans-61" x="437.228516"/>
      <use xlink:href="#DejaVuSans-6e" x="498.507812"/>
      <use xlink:href="#DejaVuSans-63" x="561.886719"/>
      <use xlink:href="#DejaVuSans-65" x="616.867188"/>
      <use xlink:href="#DejaVuSans-20" x="678.390625"/>
      <use xlink:href="#DejaVuSans-5b" x="710.177734"/>
      <use xlink:href="#DejaVuSans-6d" x="749.191406"/>
      <use xlink:href="#DejaVuSans-6d" x="846.603516"/>
      <use xlink:href="#DejaVuSans-5d" x="944.015625"/>
     </g>
    </g>
   </g>
   <g id="line2d_35">
    <path d="M 76.720526 223.166002 
L 76.720842 223.144778 
L 76.721592 223.40718 
L 76.74075 223.133845 
L 76.828954 223.166002 
L 77.0863 223.274693 
L 77.33772 223.418757 
L 77.414746 223.485644 
L 77.58766 223.176935 
L 78.414108 223.252826 
L 78.721225 223.396247 
L 79.063891 223.373737 
L 79.247568 223.440624 
L 79.441121 223.35187 
L 79.854888 223.496577 
L 84.087364 224.079071 
L 85.942899 224.042926 
L 86.339878 223.923688 
L 92.273837 223.817827 
L 92.787343 223.759622 
L 93.300849 223.852942 
L 94.347612 223.553174 
L 94.880868 223.632923 
L 95.414125 223.575683 
L 97.606401 223.701739 
L 98.732164 223.632923 
L 99.295046 224.103189 
L 99.867803 223.463134 
L 102.761213 223.176935 
L 103.343845 223.274693 
L 103.936352 223.176935 
L 104.528859 223.274693 
L 106.889012 223.155068 
L 108.666533 223.144778 
L 109.851548 223.101688 
L 112.221576 223.058597 
L 115.184112 223.166002 
L 115.776619 223.220669 
L 116.369126 223.155068 
L 116.961633 223.340937 
L 117.55414 223.01615 
L 120.516676 223.01615 
L 122.886704 223.122911 
L 124.071718 223.166002 
L 124.664225 223.31907 
L 125.256732 223.198802 
L 125.849239 223.29656 
L 126.441747 223.241893 
L 127.626761 223.340937 
L 130.589296 223.440624 
L 131.181803 223.656076 
L 132.366818 223.621347 
L 132.959325 223.852942 
L 133.551832 223.575683 
L 134.144339 223.508154 
L 135.92186 223.713316 
L 138.884396 224.588954 
L 140.06941 225.132088 
L 141.254424 226.04342 
L 143.624453 229.071334 
L 144.21696 230.15117 
L 145.401974 233.31543 
L 146.586988 238.164723 
L 147.179495 241.238943 
L 147.772002 246.178276 
L 148.364509 255.291602 
L 148.957016 278.303232 
L 220.008493 278.303232 
L 220.601 253.863826 
L 221.193507 246.525572 
L 221.786014 244.461086 
L 223.563536 237.116401 
L 225.341057 232.286402 
L 225.933564 231.019412 
L 227.711085 228.174794 
L 228.303593 227.347713 
L 230.673621 225.146237 
L 231.858635 224.474295 
L 233.043649 224.139591 
L 234.228664 223.94742 
L 234.821171 224.079071 
L 235.413678 223.66701 
L 236.006185 223.530664 
L 237.191199 223.54224 
L 238.96872 223.58726 
L 239.561228 223.66701 
L 240.153735 223.598837 
L 240.746242 223.656076 
L 241.931256 223.621347 
L 242.523763 223.58726 
L 243.11627 223.829532 
L 243.708777 223.94742 
L 244.893791 223.911854 
L 245.486299 224.336264 
L 246.078806 223.701739 
L 254.966412 223.911854 
L 255.558919 224.079071 
L 256.151426 223.701739 
L 261.48399 223.701739 
L 262.076497 223.701739 
L 262.669004 223.876481 
L 263.261512 224.311438 
L 263.854019 223.923688 
L 264.446526 223.911854 
L 265.039033 223.736469 
L 266.816554 223.598837 
L 268.001568 223.66701 
L 268.594076 223.553174 
L 270.371597 223.66701 
L 270.964104 223.621347 
L 271.556611 223.911854 
L 273.334132 223.876481 
L 273.926639 224.261981 
L 274.519147 223.598837 
L 279.259203 223.678586 
L 281.036725 223.983114 
L 282.221739 223.94742 
L 282.814246 224.006975 
L 283.406753 223.701739 
L 285.184274 223.771199 
L 285.776781 223.701739 
L 287.554303 223.817827 
L 288.14681 223.806121 
L 288.739317 224.091098 
L 289.331824 224.188341 
L 289.924331 224.091098 
L 290.516838 224.41128 
L 291.109345 224.042926 
L 291.701853 223.841237 
L 295.849402 223.817827 
L 297.034416 224.079071 
L 297.626924 224.188341 
L 298.219431 224.0309 
L 298.811938 224.054953 
L 299.996952 223.701739 
L 300.589459 223.771199 
L 301.774473 223.724893 
L 304.144502 223.701739 
L 304.737009 224.006975 
L 306.51453 224.176121 
L 307.699544 223.724893 
L 310.069573 223.829532 
L 311.254587 223.959318 
L 313.624615 224.86274 
L 315.994644 225.568138 
L 317.179658 226.434451 
L 318.957179 228.579974 
L 320.142193 231.482475 
L 321.327208 234.67246 
L 322.512222 239.367399 
L 323.104729 241.052432 
L 323.697236 246.004627 
L 324.289743 252.648287 
L 324.88225 278.303232 
L 384.13296 278.303232 
L 384.725468 263.433783 
L 385.910482 255.291602 
L 386.502989 254.314025 
L 387.095496 278.303232 
L 390.058031 278.303232 
L 390.650539 242.923976 
L 391.243046 241.933537 
L 392.42806 239.521753 
L 393.020567 239.071553 
L 393.613074 246.351924 
L 394.205581 246.178276 
L 394.798088 243.161938 
L 395.983103 240.95596 
L 396.57561 234.247986 
L 397.168117 233.392607 
L 398.945638 231.572515 
L 399.538145 234.543832 
L 400.723159 233.064605 
L 401.908174 232.447188 
L 402.500681 229.159445 
L 403.685695 228.875176 
L 404.870709 228.962 
L 405.463216 232.247814 
L 406.64823 233.431196 
L 407.240737 234.247986 
L 407.833245 236.080942 
L 408.425752 232.09346 
L 409.018259 233.206096 
L 410.697029 238.036094 
L 411.289536 278.303232 
L 413.462062 278.303232 
L 413.955818 251.265531 
L 414.548325 255.291602 
L 415.042081 263.433783 
L 415.535837 263.433783 
L 416.029593 272.547109 
L 416.6221 278.303232 
L 418.597124 278.303232 
L 418.992128 258.40441 
L 419.485884 255.82541 
L 419.97964 255.291602 
L 420.374645 255.82541 
L 420.868401 253.034172 
L 421.263406 278.303232 
L 422.942176 278.303232 
L 423.33718 249.805598 
L 423.732185 246.004627 
L 424.12719 245.355053 
L 424.423443 245.83741 
L 424.818448 245.83741 
L 425.114702 278.303232 
L 426.398467 278.303232 
L 426.694721 242.923976 
L 426.990974 242.145774 
L 427.287228 242.145774 
L 427.583481 241.052432 
L 427.879735 242.80821 
L 428.077237 278.303232 
L 429.064749 278.303232 
L 429.262251 244.049475 
L 429.459754 241.431886 
L 429.657256 241.238943 
L 429.854759 239.521753 
L 430.052261 242.255108 
L 430.151012 278.303232 
L 430.743519 278.303232 
L 431.039773 240.422152 
L 431.138524 240.254935 
L 431.237275 238.434843 
L 431.336026 241.528357 
L 431.533529 278.303232 
L 431.731031 278.303232 
L 431.928533 238.036094 
L 432.027285 240.77588 
L 432.027285 278.303232 
L 432.126036 238.499157 
L 432.224787 238.640648 
L 432.224787 234.67246 
L 432.224787 278.303232 
L 432.224787 237.116401 
" clip-path="url(#p2b2f86e42b)" style="fill: none; stroke: #1f77b4; stroke-width: 1.5; stroke-linecap: square"/>
   </g>
   <g id="line2d_36">
    <path d="M 76.720526 291.461923 
L 358.062648 291.461923 
L 358.655155 270.161051 
L 359.247662 272.341303 
L 359.840169 267.935779 
L 360.432676 268.43743 
L 361.025183 268.43743 
L 361.617691 291.461923 
L 364.580226 291.461923 
L 365.172733 261.259962 
L 365.76524 260.835488 
L 366.357747 262.186087 
L 366.950254 259.497752 
L 367.542762 259.324104 
L 368.135269 291.461923 
L 370.505297 291.461923 
L 371.097804 264.411359 
L 371.690311 256.314198 
L 372.282818 256.680789 
L 372.875326 256.192001 
L 373.467833 256.680789 
L 374.06034 255.085796 
L 374.652847 291.461923 
L 377.022875 291.461923 
L 377.615382 257.613345 
L 378.207889 253.066329 
L 378.800397 252.365304 
L 380.577918 252.217382 
L 381.170425 291.461923 
L 383.540453 291.461923 
L 384.13296 252.294559 
L 384.725468 250.204346 
L 385.317975 250.088581 
L 385.910482 249.439007 
L 386.502989 249.22677 
L 387.095496 259.150455 
L 387.688003 282.329303 
L 388.28051 278.090995 
L 388.873017 268.977669 
L 389.465524 267.016085 
L 390.058031 267.459853 
L 390.650539 249.278221 
L 391.243046 247.400246 
L 391.835553 247.155852 
L 392.42806 247.033655 
L 393.020567 246.46769 
L 393.613074 256.076235 
L 394.205581 258.822453 
L 394.798088 257.754837 
L 395.983103 256.680789 
L 396.57561 246.178276 
L 397.168117 244.93058 
L 397.760624 244.628303 
L 398.353131 244.596146 
L 398.945638 244.145946 
L 399.538145 252.146636 
L 400.130652 252.365304 
L 400.723159 252.294559 
L 401.315666 251.580671 
L 401.908174 251.181923 
L 402.500681 243.657158 
L 403.093188 242.576679 
L 403.685695 242.287265 
L 404.278202 242.287265 
L 404.870709 242.422325 
L 405.463216 248.403548 
L 406.055723 248.538608 
L 406.64823 247.946917 
L 407.240737 247.73468 
L 407.833245 247.19444 
L 408.425752 241.444748 
L 409.018259 240.660115 
L 409.512015 240.370701 
L 410.104522 240.164895 
L 410.697029 239.746853 
L 411.289536 244.93058 
L 412.375799 244.48038 
L 412.869555 244.062338 
L 413.462062 243.734335 
L 413.955818 238.717825 
L 414.548325 238.672805 
L 415.535837 238.209743 
L 416.029593 238.036094 
L 416.6221 241.914242 
L 418.597124 240.692272 
L 418.992128 236.531141 
L 419.485884 236.859144 
L 419.97964 236.376787 
L 420.868401 235.926588 
L 421.263406 238.775708 
L 422.942176 237.868877 
L 423.33718 234.402341 
L 423.732185 234.691755 
L 424.423443 234.100064 
L 424.818448 233.919984 
L 425.114702 236.43467 
L 425.509706 235.875136 
L 426.398467 235.186974 
L 426.694721 232.408599 
L 426.990974 232.659425 
L 427.879735 231.91338 
L 428.077237 233.617707 
L 428.867247 232.871662 
L 429.064749 232.614405 
L 429.262251 230.492036 
L 429.459754 230.513259 
L 430.052261 229.758853 
L 430.151012 231.109452 
L 430.644768 230.448945 
L 430.743519 230.150527 
L 430.941022 228.543314 
L 431.039773 228.598625 
L 431.336026 228.089899 
L 431.434777 229.062973 
L 431.731031 228.437839 
L 431.829782 227.276967 
L 431.928533 227.323917 
L 432.027285 227.17921 
L 432.027285 227.671214 
L 432.126036 226.479471 
L 432.126036 226.697496 
L 432.224787 226.512914 
L 432.224787 225.073112 
L 432.224787 226.802971 
L 432.224787 225.840831 
" clip-path="url(#p2b2f86e42b)" style="fill: none; stroke: #ff7f0e; stroke-width: 1.5; stroke-linecap: square"/>
   </g>
   <g id="line2d_37">
    <path d="M 76.720526 291.783494 
L 372.282818 291.783494 
L 372.875326 286.02094 
L 373.467833 291.783494 
L 377.022875 291.783494 
L 377.615382 264.424222 
L 378.800397 260.558937 
L 379.392904 259.645675 
L 379.985411 259.645675 
L 380.577918 291.783494 
L 383.540453 291.783494 
L 384.13296 255.304464 
L 385.317975 254.526262 
L 385.910482 253.722334 
L 386.502989 253.47794 
L 387.095496 291.783494 
L 390.058031 291.783494 
L 390.650539 250.3587 
L 391.835553 249.812029 
L 392.42806 250.030698 
L 393.020567 249.008102 
L 393.613074 269.29924 
L 394.205581 267.787856 
L 394.798088 264.121945 
L 395.390595 262.758483 
L 395.983103 262.269695 
L 396.57561 247.361657 
L 397.168117 247.091538 
L 397.760624 246.647769 
L 398.353131 246.827849 
L 398.945638 246.294041 
L 399.538145 256.056941 
L 400.130652 255.407367 
L 400.723159 253.986023 
L 401.908174 253.072761 
L 402.500681 244.924148 
L 403.093188 244.332457 
L 403.685695 244.036612 
L 404.278202 243.901552 
L 404.870709 243.625001 
L 405.463216 249.709127 
L 406.64823 248.82159 
L 407.240737 248.590059 
L 407.833245 248.146291 
L 408.425752 241.804908 
L 410.697029 240.711566 
L 411.289536 245.342191 
L 412.375799 244.634734 
L 413.462062 243.850101 
L 413.955818 239.277359 
L 415.042081 238.589197 
L 415.535837 238.428411 
L 416.029593 239.656813 
L 416.6221 241.689143 
L 417.609612 241.110314 
L 418.597124 240.422152 
L 418.992128 236.79483 
L 419.485884 236.833418 
L 420.374645 236.228865 
L 420.868401 238.100409 
L 421.263406 238.479863 
L 422.152166 237.894603 
L 422.942176 237.405815 
L 423.33718 234.640303 
L 424.423443 234.010024 
L 424.818448 235.379917 
L 425.114702 235.521408 
L 425.509706 235.360623 
L 426.398467 234.556695 
L 426.694721 232.498639 
L 426.990974 232.222088 
L 427.583481 231.951968 
L 427.879735 233.026016 
L 428.373491 232.717308 
L 428.570993 232.460051 
L 428.867247 232.260677 
L 429.064749 231.984126 
L 429.262251 230.333179 
L 429.854759 229.823811 
L 430.151012 230.542844 
L 430.743519 229.800014 
L 431.039773 228.197304 
L 431.237275 227.969632 
L 431.336026 228.52402 
L 431.63228 228.115625 
L 431.731031 227.85258 
L 431.928533 227.046079 
L 432.027285 227.439682 
L 432.027285 227.166347 
L 432.126036 227.019067 
L 432.126036 227.019067 
L 432.224787 225.229845 
L 432.224787 225.818321 
" clip-path="url(#p2b2f86e42b)" style="fill: none; stroke: #2ca02c; stroke-width: 1.5; stroke-linecap: square"/>
   </g>
   <g id="line2d_38">
    <path d="M 76.720526 225.40478 
L 76.720842 225.33918 
L 76.721592 225.099288 
L 76.807308 225.586789 
L 76.828954 225.210551 
L 76.85384 225.503181 
L 76.950912 225.355258 
L 77.036529 225.258787 
L 77.0863 225.586789 
L 77.141107 225.194473 
L 77.201148 225.22663 
L 77.33772 225.553346 
L 77.497994 225.14688 
L 77.683942 225.687763 
L 77.89764 225.067709 
L 78.13958 225.586789 
L 78.272894 225.020696 
L 78.414108 225.162315 
L 78.888114 224.973939 
L 79.247568 225.067709 
L 79.441121 224.958439 
L 79.643561 225.067709 
L 79.854888 224.912005 
L 80.074116 224.92744 
L 80.303219 224.804728 
L 80.541209 225.130802 
L 80.788087 224.92744 
L 81.042865 224.912005 
L 81.307518 224.579436 
L 81.581059 224.713852 
L 81.863487 224.579436 
L 82.153816 224.804728 
L 82.454019 224.549851 
L 83.406968 224.683818 
L 84.087364 224.36006 
L 84.440893 224.461689 
L 85.553819 224.388956 
L 85.942899 224.579436 
L 86.339878 224.345589 
L 86.743771 224.579436 
L 89.370552 224.432523 
L 90.308688 224.579436 
L 93.300849 224.653847 
L 93.814355 224.85052 
L 94.347612 224.804728 
L 94.880868 224.432523 
L 95.414125 224.774308 
L 97.053394 224.989503 
L 97.606401 224.896569 
L 98.169283 225.067709 
L 101.595949 225.114723 
L 102.178581 225.33918 
L 102.761213 225.33918 
L 103.343845 225.210551 
L 103.936352 225.40478 
L 104.528859 225.355258 
L 105.111491 225.420859 
L 105.703998 225.22663 
L 106.296505 225.40478 
L 106.889012 225.274865 
L 107.481519 225.586789 
L 108.074026 225.636954 
L 109.851548 225.33918 
L 112.221576 225.570068 
L 113.40659 225.470381 
L 113.999097 225.636954 
L 114.591605 225.486459 
L 116.369126 225.536624 
L 116.961633 225.738571 
L 117.55414 225.486459 
L 118.146647 225.553346 
L 119.331661 225.355258 
L 119.924168 225.858839 
L 120.516676 225.22663 
L 121.109183 225.355258 
L 121.70169 225.099288 
L 124.071718 225.14688 
L 125.849239 224.989503 
L 126.441747 225.178394 
L 127.034254 225.22663 
L 127.626761 224.989503 
L 128.219268 225.067709 
L 128.811775 225.020696 
L 129.404282 225.162315 
L 129.996789 224.912005 
L 130.589296 225.067709 
L 132.959325 225.067709 
L 134.144339 225.162315 
L 134.736846 225.067709 
L 135.329353 225.40478 
L 135.92186 225.162315 
L 136.514367 225.22663 
L 137.699382 225.503181 
L 140.06941 226.320615 
L 141.254424 226.907804 
L 142.439438 228.04102 
L 143.624453 229.223759 
L 145.401974 232.00342 
L 146.586988 235.457094 
L 147.772002 240.627958 
L 148.957016 254.082494 
L 149.549524 277.094125 
L 223.563536 277.094125 
L 224.156043 257.986368 
L 224.74855 248.332802 
L 225.933564 240.627958 
L 227.711085 234.71748 
L 229.488607 231.141609 
L 230.081114 230.243139 
L 230.673621 229.649519 
L 231.858635 228.131703 
L 232.451142 227.646131 
L 233.043649 227.350929 
L 233.636156 227.392733 
L 234.228664 226.732869 
L 236.006185 226.357274 
L 236.598692 225.9984 
L 237.191199 225.963028 
L 237.783706 226.051138 
L 241.338749 225.945663 
L 241.931256 226.068503 
L 242.523763 225.755293 
L 243.11627 225.876203 
L 244.301284 225.876203 
L 244.893791 226.599738 
L 245.486299 225.841474 
L 246.078806 225.738571 
L 246.671313 225.980392 
L 247.26382 225.586789 
L 249.633848 225.603511 
L 250.226355 225.420859 
L 252.003877 225.687763 
L 252.596384 225.876203 
L 253.781398 225.553346 
L 254.373905 225.790022 
L 254.966412 225.586789 
L 256.151426 225.536624 
L 257.336441 225.486459 
L 257.928948 225.636954 
L 258.521455 225.519903 
L 260.298976 225.536624 
L 260.891483 225.40478 
L 261.48399 225.670398 
L 262.076497 225.40478 
L 263.261512 225.806744 
L 263.854019 225.586789 
L 265.039033 225.670398 
L 265.63154 225.420859 
L 266.816554 225.858839 
L 267.409061 225.43758 
L 269.186583 225.486459 
L 270.371597 225.772658 
L 270.964104 225.420859 
L 271.556611 225.636954 
L 272.149118 225.536624 
L 273.926639 225.586789 
L 275.111654 225.40478 
L 275.704161 225.603511 
L 276.889175 225.503181 
L 277.481682 225.258787 
L 278.074189 225.355258 
L 278.666696 225.910933 
L 279.259203 225.355258 
L 279.85171 225.470381 
L 282.221739 225.37198 
L 283.406753 225.388058 
L 283.99926 225.210551 
L 284.591767 225.586789 
L 285.184274 225.162315 
L 286.369289 225.083466 
L 288.14681 225.036324 
L 288.739317 225.355258 
L 289.331824 225.420859 
L 289.924331 225.194473 
L 290.516838 225.14688 
L 291.109345 225.824109 
L 291.701853 225.036324 
L 293.479374 225.067709 
L 294.071881 224.958439 
L 296.441909 225.162315 
L 297.034416 225.355258 
L 297.626924 225.178394 
L 298.219431 225.420859 
L 299.404445 225.22663 
L 299.996952 225.020696 
L 300.589459 225.067709 
L 301.181966 225.242708 
L 301.774473 225.242708 
L 302.36698 225.355258 
L 302.959487 225.020696 
L 304.144502 225.052017 
L 304.737009 225.503181 
L 305.922023 225.586789 
L 306.51453 225.33918 
L 307.107037 225.586789 
L 307.699544 225.22663 
L 308.884558 225.14688 
L 309.477066 225.486459 
L 310.069573 225.14688 
L 310.66208 225.486459 
L 311.254587 225.40478 
L 312.439601 225.772658 
L 313.032108 225.620233 
L 313.624615 225.738571 
L 314.217122 225.687763 
L 314.809629 225.928298 
L 315.402137 225.586789 
L 315.994644 225.636954 
L 317.772165 226.229932 
L 318.957179 227.066017 
L 321.919715 230.126731 
L 322.512222 231.405298 
L 323.104729 231.540357 
L 323.697236 232.447188 
L 324.289743 233.727041 
L 325.474757 237.933192 
L 326.067264 240.730861 
L 326.659772 244.79552 
L 327.252279 277.094125 
L 390.650539 277.094125 
L 391.243046 260.944822 
L 391.835553 256.474983 
L 392.42806 254.082494 
L 393.020567 251.072588 
L 393.613074 277.094125 
L 395.983103 277.094125 
L 396.57561 241.374003 
L 397.168117 240.422152 
L 397.760624 239.045828 
L 398.353131 238.711394 
L 398.945638 237.714523 
L 399.538145 244.461086 
L 400.130652 243.837238 
L 400.723159 240.936666 
L 401.315666 239.303085 
L 401.908174 238.087546 
L 402.500681 232.717308 
L 403.093188 232.144911 
L 403.685695 231.238081 
L 404.278202 230.572428 
L 404.870709 230.097789 
L 405.463216 232.800916 
L 406.055723 232.370011 
L 406.64823 232.144911 
L 407.240737 231.611103 
L 407.833245 231.714006 
L 408.425752 228.45649 
L 409.018259 228.671943 
L 409.512015 228.575472 
L 410.104522 228.943349 
L 410.697029 229.486804 
L 411.289536 233.546961 
L 411.783292 234.974737 
L 412.375799 236.325336 
L 413.462062 242.58311 
L 413.955818 236.383219 
L 414.548325 237.573032 
L 415.042081 240.627958 
L 415.535837 241.952831 
L 416.029593 244.79552 
L 416.6221 277.094125 
L 418.597124 277.094125 
L 418.992128 258.861041 
L 419.485884 262.224675 
L 419.97964 263.73606 
L 420.374645 256.474983 
L 420.868401 258.861041 
L 421.263406 277.094125 
L 422.942176 277.094125 
L 423.33718 254.082494 
L 423.732185 249.149593 
L 424.12719 253.580843 
L 424.423443 247.586757 
L 424.818448 246.905026 
L 425.114702 277.094125 
L 426.398467 277.094125 
L 426.694721 243.251978 
L 426.990974 243.251978 
L 427.287228 244.628303 
L 427.583481 242.711739 
L 427.879735 242.075028 
L 428.077237 277.094125 
L 429.064749 277.094125 
L 429.262251 241.489768 
L 429.459754 241.264669 
L 429.657256 240.730861 
L 429.854759 242.325853 
L 430.052261 240.730861 
L 430.151012 277.094125 
L 430.743519 277.094125 
L 430.941022 240.627958 
L 431.039773 240.936666 
L 431.138524 241.374003 
L 431.336026 240.833763 
L 431.533529 277.094125 
L 431.731031 277.094125 
L 431.829782 239.753284 
L 431.928533 240.422152 
L 432.027285 240.422152 
L 432.027285 277.094125 
L 432.126036 239.213045 
L 432.126036 239.656813 
L 432.224787 240.936666 
L 432.224787 239.939796 
L 432.224787 277.094125 
L 432.224787 237.714523 
L 432.224787 238.878611 
" clip-path="url(#p2b2f86e42b)" style="fill: none; stroke: #d62728; stroke-width: 1.5; stroke-linecap: square"/>
   </g>
   <g id="line2d_39">
    <path d="M 76.720526 38.578381 
L 288.14681 38.578381 
L 288.739317 86.170909 
L 296.441909 86.170909 
L 297.034416 89.38662 
L 304.144502 89.38662 
L 304.737009 96.461185 
L 311.847094 96.461185 
L 312.439601 104.178893 
L 319.549686 104.178893 
L 320.142193 109.324031 
L 326.659772 109.324031 
L 327.252279 113.826027 
L 333.769857 113.826027 
L 334.362364 120.25745 
L 340.879942 120.25745 
L 341.472449 124.759446 
L 347.990027 124.759446 
L 348.582534 128.618299 
L 354.507605 128.618299 
L 355.100112 132.477153 
L 361.025183 132.477153 
L 361.617691 138.265433 
L 367.542762 138.265433 
L 368.135269 142.124287 
L 374.06034 142.124287 
L 374.652847 147.912567 
L 380.577918 147.912567 
L 381.170425 151.128279 
L 387.095496 151.128279 
L 387.688003 155.630275 
L 393.020567 155.630275 
L 393.613074 159.489128 
L 398.945638 159.489128 
L 399.538145 164.634267 
L 404.870709 164.634267 
L 405.463216 166.563693 
L 410.697029 166.563693 
L 411.289536 172.351974 
L 416.029593 172.351974 
L 416.6221 175.567685 
L 420.868401 175.567685 
L 421.263406 180.069681 
L 424.818448 180.069681 
L 425.114702 183.285393 
L 427.879735 183.285393 
L 428.077237 184.571677 
L 430.052261 184.571677 
L 430.151012 187.787388 
L 431.336026 187.787388 
L 431.533529 189.716815 
L 432.224787 189.716815 
L 432.224787 189.716815 
L 432.224787 192.932527 
L 432.224787 191.0031 
" clip-path="url(#p2b2f86e42b)" style="fill: none; stroke: #9467bd; stroke-width: 1.5; stroke-linecap: square"/>
   </g>
   <g id="patch_3">
    <path d="M 58.945313 304.44375 
L 58.945313 25.918125 
" style="fill: none; stroke: #000000; stroke-width: 0.8; stroke-linejoin: miter; stroke-linecap: square"/>
   </g>
   <g id="patch_4">
    <path d="M 450 304.44375 
L 450 25.918125 
" style="fill: none; stroke: #000000; stroke-width: 0.8; stroke-linejoin: miter; stroke-linecap: square"/>
   </g>
   <g id="patch_5">
    <path d="M 58.945313 304.44375 
L 450 304.44375 
" style="fill: none; stroke: #000000; stroke-width: 0.8; stroke-linejoin: miter; stroke-linecap: square"/>
   </g>
   <g id="patch_6">
    <path d="M 58.945313 25.918125 
L 450 25.918125 
" style="fill: none; stroke: #000000; stroke-width: 0.8; stroke-linejoin: miter; stroke-linecap: square"/>
   </g>
   <g id="text_20">
    <!-- Wall Distance [mm] -->
    <g transform="translate(195.492656 19.918125)scale(0.12 -0.12)">
     <use xlink:href="#DejaVuSans-57"/>
     <use xlink:href="#DejaVuSans-61" x="92.501953"/>
     <use xlink:href="#DejaVuSans-6c" x="153.78125"/>
     <use xlink:href="#DejaVuSans-6c" x="181.564453"/>
     <use xlink:href="#DejaVuSans-20" x="209.347656"/>
     <use xlink:href="#DejaVuSans-44" x="241.134766"/>
     <use xlink:href="#DejaVuSans-69" x="318.136719"/>
     <use xlink:href="#DejaVuSans-73" x="345.919922"/>
     <use xlink:href="#DejaVuSans-74" x="398.019531"/>
     <use xlink:href="#DejaVuSans-61" x="437.228516"/>
     <use xlink:href="#DejaVuSans-6e" x="498.507812"/>
     <use xlink:href="#DejaVuSans-63" x="561.886719"/>
     <use xlink:href="#DejaVuSans-65" x="616.867188"/>
     <use xlink:href="#DejaVuSans-20" x="678.390625"/>
     <use xlink:href="#DejaVuSans-5b" x="710.177734"/>
     <use xlink:href="#DejaVuSans-6d" x="749.191406"/>
     <use xlink:href="#DejaVuSans-6d" x="846.603516"/>
     <use xlink:href="#DejaVuSans-5d" x="944.015625"/>
    </g>
   </g>
   <g id="legend_1">
    <g id="patch_7">
     <path d="M 356.2 107.30875 
L 443 107.30875 
Q 445 107.30875 445 105.30875 
L 445 32.918125 
Q 445 30.918125 443 30.918125 
L 356.2 30.918125 
Q 354.2 30.918125 354.2 32.918125 
L 354.2 105.30875 
Q 354.2 107.30875 356.2 107.30875 
z
" style="fill: #ffffff; opacity: 0.8; stroke: #cccccc; stroke-linejoin: miter"/>
    </g>
    <g id="line2d_40">
     <path d="M 358.2 39.016562 
L 368.2 39.016562 
L 378.2 39.016562 
" style="fill: none; stroke: #1f77b4; stroke-width: 1.5; stroke-linecap: square"/>
    </g>
    <g id="text_21">
     <!-- Left Side -->
     <g transform="translate(386.2 42.516562)scale(0.1 -0.1)">
      <defs>
       <path id="DejaVuSans-4c" d="M 628 4666 
L 1259 4666 
L 1259 531 
L 3531 531 
L 3531 0 
L 628 0 
L 628 4666 
z
" transform="scale(0.015625)"/>
       <path id="DejaVuSans-66" d="M 2375 4863 
L 2375 4384 
L 1825 4384 
Q 1516 4384 1395 4259 
Q 1275 4134 1275 3809 
L 1275 3500 
L 2222 3500 
L 2222 3053 
L 1275 3053 
L 1275 0 
L 697 0 
L 697 3053 
L 147 3053 
L 147 3500 
L 697 3500 
L 697 3744 
Q 697 4328 969 4595 
Q 1241 4863 1831 4863 
L 2375 4863 
z
" transform="scale(0.015625)"/>
       <path id="DejaVuSans-53" d="M 3425 4513 
L 3425 3897 
Q 3066 4069 2747 4153 
Q 2428 4238 2131 4238 
Q 1616 4238 1336 4038 
Q 1056 3838 1056 3469 
Q 1056 3159 1242 3001 
Q 1428 2844 1947 2747 
L 2328 2669 
Q 3034 2534 3370 2195 
Q 3706 1856 3706 1288 
Q 3706 609 3251 259 
Q 2797 -91 1919 -91 
Q 1588 -91 1214 -16 
Q 841 59 441 206 
L 441 856 
Q 825 641 1194 531 
Q 1563 422 1919 422 
Q 2459 422 2753 634 
Q 3047 847 3047 1241 
Q 3047 1584 2836 1778 
Q 2625 1972 2144 2069 
L 1759 2144 
Q 1053 2284 737 2584 
Q 422 2884 422 3419 
Q 422 4038 858 4394 
Q 1294 4750 2059 4750 
Q 2388 4750 2728 4690 
Q 3069 4631 3425 4513 
z
" transform="scale(0.015625)"/>
       <path id="DejaVuSans-64" d="M 2906 2969 
L 2906 4863 
L 3481 4863 
L 3481 0 
L 2906 0 
L 2906 525 
Q 2725 213 2448 61 
Q 2172 -91 1784 -91 
Q 1150 -91 751 415 
Q 353 922 353 1747 
Q 353 2572 751 3078 
Q 1150 3584 1784 3584 
Q 2172 3584 2448 3432 
Q 2725 3281 2906 2969 
z
M 947 1747 
Q 947 1113 1208 752 
Q 1469 391 1925 391 
Q 2381 391 2643 752 
Q 2906 1113 2906 1747 
Q 2906 2381 2643 2742 
Q 2381 3103 1925 3103 
Q 1469 3103 1208 2742 
Q 947 2381 947 1747 
z
" transform="scale(0.015625)"/>
      </defs>
      <use xlink:href="#DejaVuSans-4c"/>
      <use xlink:href="#DejaVuSans-65" x="53.962891"/>
      <use xlink:href="#DejaVuSans-66" x="115.486328"/>
      <use xlink:href="#DejaVuSans-74" x="148.941406"/>
      <use xlink:href="#DejaVuSans-20" x="188.150391"/>
      <use xlink:href="#DejaVuSans-53" x="219.9375"/>
      <use xlink:href="#DejaVuSans-69" x="283.414062"/>
      <use xlink:href="#DejaVuSans-64" x="311.197266"/>
      <use xlink:href="#DejaVuSans-65" x="374.673828"/>
     </g>
    </g>
    <g id="line2d_41">
     <path d="M 358.2 53.694687 
L 368.2 53.694687 
L 378.2 53.694687 
" style="fill: none; stroke: #ff7f0e; stroke-width: 1.5; stroke-linecap: square"/>
    </g>
    <g id="text_22">
     <!-- Left Front -->
     <g transform="translate(386.2 57.194687)scale(0.1 -0.1)">
      <defs>
       <path id="DejaVuSans-46" d="M 628 4666 
L 3309 4666 
L 3309 4134 
L 1259 4134 
L 1259 2759 
L 3109 2759 
L 3109 2228 
L 1259 2228 
L 1259 0 
L 628 0 
L 628 4666 
z
" transform="scale(0.015625)"/>
      </defs>
      <use xlink:href="#DejaVuSans-4c"/>
      <use xlink:href="#DejaVuSans-65" x="53.962891"/>
      <use xlink:href="#DejaVuSans-66" x="115.486328"/>
      <use xlink:href="#DejaVuSans-74" x="148.941406"/>
      <use xlink:href="#DejaVuSans-20" x="188.150391"/>
      <use xlink:href="#DejaVuSans-46" x="219.9375"/>
      <use xlink:href="#DejaVuSans-72" x="270.207031"/>
      <use xlink:href="#DejaVuSans-6f" x="309.070312"/>
      <use xlink:href="#DejaVuSans-6e" x="370.251953"/>
      <use xlink:href="#DejaVuSans-74" x="433.630859"/>
     </g>
    </g>
    <g id="line2d_42">
     <path d="M 358.2 68.372812 
L 368.2 68.372812 
L 378.2 68.372812 
" style="fill: none; stroke: #2ca02c; stroke-width: 1.5; stroke-linecap: square"/>
    </g>
    <g id="text_23">
     <!-- Right Front -->
     <g transform="translate(386.2 71.872812)scale(0.1 -0.1)">
      <defs>
       <path id="DejaVuSans-52" d="M 2841 2188 
Q 3044 2119 3236 1894 
Q 3428 1669 3622 1275 
L 4263 0 
L 3584 0 
L 2988 1197 
Q 2756 1666 2539 1819 
Q 2322 1972 1947 1972 
L 1259 1972 
L 1259 0 
L 628 0 
L 628 4666 
L 2053 4666 
Q 2853 4666 3247 4331 
Q 3641 3997 3641 3322 
Q 3641 2881 3436 2590 
Q 3231 2300 2841 2188 
z
M 1259 4147 
L 1259 2491 
L 2053 2491 
Q 2509 2491 2742 2702 
Q 2975 2913 2975 3322 
Q 2975 3731 2742 3939 
Q 2509 4147 2053 4147 
L 1259 4147 
z
" transform="scale(0.015625)"/>
       <path id="DejaVuSans-67" d="M 2906 1791 
Q 2906 2416 2648 2759 
Q 2391 3103 1925 3103 
Q 1463 3103 1205 2759 
Q 947 2416 947 1791 
Q 947 1169 1205 825 
Q 1463 481 1925 481 
Q 2391 481 2648 825 
Q 2906 1169 2906 1791 
z
M 3481 434 
Q 3481 -459 3084 -895 
Q 2688 -1331 1869 -1331 
Q 1566 -1331 1297 -1286 
Q 1028 -1241 775 -1147 
L 775 -588 
Q 1028 -725 1275 -790 
Q 1522 -856 1778 -856 
Q 2344 -856 2625 -561 
Q 2906 -266 2906 331 
L 2906 616 
Q 2728 306 2450 153 
Q 2172 0 1784 0 
Q 1141 0 747 490 
Q 353 981 353 1791 
Q 353 2603 747 3093 
Q 1141 3584 1784 3584 
Q 2172 3584 2450 3431 
Q 2728 3278 2906 2969 
L 2906 3500 
L 3481 3500 
L 3481 434 
z
" transform="scale(0.015625)"/>
       <path id="DejaVuSans-68" d="M 3513 2113 
L 3513 0 
L 2938 0 
L 2938 2094 
Q 2938 2591 2744 2837 
Q 2550 3084 2163 3084 
Q 1697 3084 1428 2787 
Q 1159 2491 1159 1978 
L 1159 0 
L 581 0 
L 581 4863 
L 1159 4863 
L 1159 2956 
Q 1366 3272 1645 3428 
Q 1925 3584 2291 3584 
Q 2894 3584 3203 3211 
Q 3513 2838 3513 2113 
z
" transform="scale(0.015625)"/>
      </defs>
      <use xlink:href="#DejaVuSans-52"/>
      <use xlink:href="#DejaVuSans-69" x="69.482422"/>
      <use xlink:href="#DejaVuSans-67" x="97.265625"/>
      <use xlink:href="#DejaVuSans-68" x="160.742188"/>
      <use xlink:href="#DejaVuSans-74" x="224.121094"/>
      <use xlink:href="#DejaVuSans-20" x="263.330078"/>
      <use xlink:href="#DejaVuSans-46" x="295.117188"/>
      <use xlink:href="#DejaVuSans-72" x="345.386719"/>
      <use xlink:href="#DejaVuSans-6f" x="384.25"/>
      <use xlink:href="#DejaVuSans-6e" x="445.431641"/>
      <use xlink:href="#DejaVuSans-74" x="508.810547"/>
     </g>
    </g>
    <g id="line2d_43">
     <path d="M 358.2 83.050937 
L 368.2 83.050937 
L 378.2 83.050937 
" style="fill: none; stroke: #d62728; stroke-width: 1.5; stroke-linecap: square"/>
    </g>
    <g id="text_24">
     <!-- Right Side -->
     <g transform="translate(386.2 86.550937)scale(0.1 -0.1)">
      <use xlink:href="#DejaVuSans-52"/>
      <use xlink:href="#DejaVuSans-69" x="69.482422"/>
      <use xlink:href="#DejaVuSans-67" x="97.265625"/>
      <use xlink:href="#DejaVuSans-68" x="160.742188"/>
      <use xlink:href="#DejaVuSans-74" x="224.121094"/>
      <use xlink:href="#DejaVuSans-20" x="263.330078"/>
      <use xlink:href="#DejaVuSans-53" x="295.117188"/>
      <use xlink:href="#DejaVuSans-69" x="358.59375"/>
      <use xlink:href="#DejaVuSans-64" x="386.376953"/>
      <use xlink:href="#DejaVuSans-65" x="449.853516"/>
     </g>
    </g>
    <g id="line2d_44">
     <path d="M 358.2 97.729062 
L 368.2 97.729062 
L 378.2 97.729062 
" style="fill: none; stroke: #9467bd; stroke-width: 1.5; stroke-linecap: square"/>
    </g>
    <g id="text_25">
     <!-- ToF -->
     <g transform="translate(386.2 101.229062)scale(0.1 -0.1)">
      <use xlink:href="#DejaVuSans-54"/>
      <use xlink:href="#DejaVuSans-6f" x="44.083984"/>
      <use xlink:href="#DejaVuSans-46" x="105.265625"/>
     </g>
    </g>
   </g>
  </g>
 </g>
 <defs>
  <clipPath id="p2b2f86e42b">
   <rect x="58.945313" y="25.918125" width="391.054687" height="278.525625"/>
  </clipPath>
 </defs>
</svg>
