<?xml version="1.0" encoding="utf-8" standalone="no"?>
<!DOCTYPE svg PUBLIC "-//W3C//DTD SVG 1.1//EN"
  "http://www.w3.org/Graphics/SVG/1.1/DTD/svg11.dtd">
<svg xmlns:xlink="http://www.w3.org/1999/xlink" width="460.8pt" height="345.6pt" viewBox="0 0 460.8 345.6" xmlns="http://www.w3.org/2000/svg" version="1.1">
 <metadata>
  <rdf:RDF xmlns:dc="http://purl.org/dc/elements/1.1/" xmlns:cc="http://creativecommons.org/ns#" xmlns:rdf="http://www.w3.org/1999/02/22-rdf-syntax-ns#">
   <cc:Work>
    <dc:type rdf:resource="http://purl.org/dc/dcmitype/StillImage"/>
    <dc:date>2022-01-15T23:46:41.782698</dc:date>
    <dc:format>image/svg+xml</dc:format>
    <dc:creator>
     <cc:Agent>
      <dc:title>Matplotlib v3.5.1, https://matplotlib.org/</dc:title>
     </cc:Agent>
    </dc:creator>
   </cc:Work>
  </rdf:RDF>
 </metadata>
 <defs>
  <style type="text/css">*{stroke-linejoin: round; stroke-linecap: butt}</style>
 </defs>
 <g id="figure_1">
  <g id="patch_1">
   <path d="M 0 345.6 
L 460.8 345.6 
L 460.8 0 
L 0 0 
z
" style="fill: #ffffff"/>
  </g>
  <g id="axes_1">
   <g id="patch_2">
    <path d="M 56.928125 304.44375 
L 450 304.44375 
L 450 25.918125 
L 56.928125 25.918125 
z
" style="fill: #ffffff"/>
   </g>
   <g id="matplotlib.axis_1">
    <g id="xtick_1">
     <g id="line2d_1">
      <path d="M 74.795028 304.44375 
L 74.795028 25.918125 
" clip-path="url(#pd593d96909)" style="fill: none; stroke: #b0b0b0; stroke-width: 0.8; stroke-linecap: square"/>
     </g>
     <g id="line2d_2">
      <defs>
       <path id="m1a8375627d" d="M 0 0 
L 0 3.5 
" style="stroke: #000000; stroke-width: 0.8"/>
      </defs>
      <g>
       <use xlink:href="#m1a8375627d" x="74.795028" y="304.44375" style="stroke: #000000; stroke-width: 0.8"/>
      </g>
     </g>
     <g id="text_1">
      <!-- 0 -->
      <g transform="translate(71.613778 319.042187)scale(0.1 -0.1)">
       <defs>
        <path id="DejaVuSans-30" d="M 2034 4250 
Q 1547 4250 1301 3770 
Q 1056 3291 1056 2328 
Q 1056 1369 1301 889 
Q 1547 409 2034 409 
Q 2525 409 2770 889 
Q 3016 1369 3016 2328 
Q 3016 3291 2770 3770 
Q 2525 4250 2034 4250 
z
M 2034 4750 
Q 2819 4750 3233 4129 
Q 3647 3509 3647 2328 
Q 3647 1150 3233 529 
Q 2819 -91 2034 -91 
Q 1250 -91 836 529 
Q 422 1150 422 2328 
Q 422 3509 836 4129 
Q 1250 4750 2034 4750 
z
" transform="scale(0.015625)"/>
       </defs>
       <use xlink:href="#DejaVuSans-30"/>
      </g>
     </g>
    </g>
    <g id="xtick_2">
     <g id="line2d_3">
      <path d="M 140.968745 304.44375 
L 140.968745 25.918125 
" clip-path="url(#pd593d96909)" style="fill: none; stroke: #b0b0b0; stroke-width: 0.8; stroke-linecap: square"/>
     </g>
     <g id="line2d_4">
      <g>
       <use xlink:href="#m1a8375627d" x="140.968745" y="304.44375" style="stroke: #000000; stroke-width: 0.8"/>
      </g>
     </g>
     <g id="text_2">
      <!-- 50 -->
      <g transform="translate(134.606245 319.042187)scale(0.1 -0.1)">
       <defs>
        <path id="DejaVuSans-35" d="M 691 4666 
L 3169 4666 
L 3169 4134 
L 1269 4134 
L 1269 2991 
Q 1406 3038 1543 3061 
Q 1681 3084 1819 3084 
Q 2600 3084 3056 2656 
Q 3513 2228 3513 1497 
Q 3513 744 3044 326 
Q 2575 -91 1722 -91 
Q 1428 -91 1123 -41 
Q 819 9 494 109 
L 494 744 
Q 775 591 1075 516 
Q 1375 441 1709 441 
Q 2250 441 2565 725 
Q 2881 1009 2881 1497 
Q 2881 1984 2565 2268 
Q 2250 2553 1709 2553 
Q 1456 2553 1204 2497 
Q 953 2441 691 2322 
L 691 4666 
z
" transform="scale(0.015625)"/>
       </defs>
       <use xlink:href="#DejaVuSans-35"/>
       <use xlink:href="#DejaVuSans-30" x="63.623047"/>
      </g>
     </g>
    </g>
    <g id="xtick_3">
     <g id="line2d_5">
      <path d="M 207.142461 304.44375 
L 207.142461 25.918125 
" clip-path="url(#pd593d96909)" style="fill: none; stroke: #b0b0b0; stroke-width: 0.8; stroke-linecap: square"/>
     </g>
     <g id="line2d_6">
      <g>
       <use xlink:href="#m1a8375627d" x="207.142461" y="304.44375" style="stroke: #000000; stroke-width: 0.8"/>
      </g>
     </g>
     <g id="text_3">
      <!-- 100 -->
      <g transform="translate(197.598711 319.042187)scale(0.1 -0.1)">
       <defs>
        <path id="DejaVuSans-31" d="M 794 531 
L 1825 531 
L 1825 4091 
L 703 3866 
L 703 4441 
L 1819 4666 
L 2450 4666 
L 2450 531 
L 3481 531 
L 3481 0 
L 794 0 
L 794 531 
z
" transform="scale(0.015625)"/>
       </defs>
       <use xlink:href="#DejaVuSans-31"/>
       <use xlink:href="#DejaVuSans-30" x="63.623047"/>
       <use xlink:href="#DejaVuSans-30" x="127.246094"/>
      </g>
     </g>
    </g>
    <g id="xtick_4">
     <g id="line2d_7">
      <path d="M 273.316177 304.44375 
L 273.316177 25.918125 
" clip-path="url(#pd593d96909)" style="fill: none; stroke: #b0b0b0; stroke-width: 0.8; stroke-linecap: square"/>
     </g>
     <g id="line2d_8">
      <g>
       <use xlink:href="#m1a8375627d" x="273.316177" y="304.44375" style="stroke: #000000; stroke-width: 0.8"/>
      </g>
     </g>
     <g id="text_4">
      <!-- 150 -->
      <g transform="translate(263.772427 319.042187)scale(0.1 -0.1)">
       <use xlink:href="#DejaVuSans-31"/>
       <use xlink:href="#DejaVuSans-35" x="63.623047"/>
       <use xlink:href="#DejaVuSans-30" x="127.246094"/>
      </g>
     </g>
    </g>
    <g id="xtick_5">
     <g id="line2d_9">
      <path d="M 339.489894 304.44375 
L 339.489894 25.918125 
" clip-path="url(#pd593d96909)" style="fill: none; stroke: #b0b0b0; stroke-width: 0.8; stroke-linecap: square"/>
     </g>
     <g id="line2d_10">
      <g>
       <use xlink:href="#m1a8375627d" x="339.489894" y="304.44375" style="stroke: #000000; stroke-width: 0.8"/>
      </g>
     </g>
     <g id="text_5">
      <!-- 200 -->
      <g transform="translate(329.946144 319.042187)scale(0.1 -0.1)">
       <defs>
        <path id="DejaVuSans-32" d="M 1228 531 
L 3431 531 
L 3431 0 
L 469 0 
L 469 531 
Q 828 903 1448 1529 
Q 2069 2156 2228 2338 
Q 2531 2678 2651 2914 
Q 2772 3150 2772 3378 
Q 2772 3750 2511 3984 
Q 2250 4219 1831 4219 
Q 1534 4219 1204 4116 
Q 875 4013 500 3803 
L 500 4441 
Q 881 4594 1212 4672 
Q 1544 4750 1819 4750 
Q 2544 4750 2975 4387 
Q 3406 4025 3406 3419 
Q 3406 3131 3298 2873 
Q 3191 2616 2906 2266 
Q 2828 2175 2409 1742 
Q 1991 1309 1228 531 
z
" transform="scale(0.015625)"/>
       </defs>
       <use xlink:href="#DejaVuSans-32"/>
       <use xlink:href="#DejaVuSans-30" x="63.623047"/>
       <use xlink:href="#DejaVuSans-30" x="127.246094"/>
      </g>
     </g>
    </g>
    <g id="xtick_6">
     <g id="line2d_11">
      <path d="M 405.66361 304.44375 
L 405.66361 25.918125 
" clip-path="url(#pd593d96909)" style="fill: none; stroke: #b0b0b0; stroke-width: 0.8; stroke-linecap: square"/>
     </g>
     <g id="line2d_12">
      <g>
       <use xlink:href="#m1a8375627d" x="405.66361" y="304.44375" style="stroke: #000000; stroke-width: 0.8"/>
      </g>
     </g>
     <g id="text_6">
      <!-- 250 -->
      <g transform="translate(396.11986 319.042187)scale(0.1 -0.1)">
       <use xlink:href="#DejaVuSans-32"/>
       <use xlink:href="#DejaVuSans-35" x="63.623047"/>
       <use xlink:href="#DejaVuSans-30" x="127.246094"/>
      </g>
     </g>
    </g>
    <g id="text_7">
     <!-- Translational Position [mm] -->
     <g transform="translate(185.486719 332.720312)scale(0.1 -0.1)">
      <defs>
       <path id="DejaVuSans-54" d="M -19 4666 
L 3928 4666 
L 3928 4134 
L 2272 4134 
L 2272 0 
L 1638 0 
L 1638 4134 
L -19 4134 
L -19 4666 
z
" transform="scale(0.015625)"/>
       <path id="DejaVuSans-72" d="M 2631 2963 
Q 2534 3019 2420 3045 
Q 2306 3072 2169 3072 
Q 1681 3072 1420 2755 
Q 1159 2438 1159 1844 
L 1159 0 
L 581 0 
L 581 3500 
L 1159 3500 
L 1159 2956 
Q 1341 3275 1631 3429 
Q 1922 3584 2338 3584 
Q 2397 3584 2469 3576 
Q 2541 3569 2628 3553 
L 2631 2963 
z
" transform="scale(0.015625)"/>
       <path id="DejaVuSans-61" d="M 2194 1759 
Q 1497 1759 1228 1600 
Q 959 1441 959 1056 
Q 959 750 1161 570 
Q 1363 391 1709 391 
Q 2188 391 2477 730 
Q 2766 1069 2766 1631 
L 2766 1759 
L 2194 1759 
z
M 3341 1997 
L 3341 0 
L 2766 0 
L 2766 531 
Q 2569 213 2275 61 
Q 1981 -91 1556 -91 
Q 1019 -91 701 211 
Q 384 513 384 1019 
Q 384 1609 779 1909 
Q 1175 2209 1959 2209 
L 2766 2209 
L 2766 2266 
Q 2766 2663 2505 2880 
Q 2244 3097 1772 3097 
Q 1472 3097 1187 3025 
Q 903 2953 641 2809 
L 641 3341 
Q 956 3463 1253 3523 
Q 1550 3584 1831 3584 
Q 2591 3584 2966 3190 
Q 3341 2797 3341 1997 
z
" transform="scale(0.015625)"/>
       <path id="DejaVuSans-6e" d="M 3513 2113 
L 3513 0 
L 2938 0 
L 2938 2094 
Q 2938 2591 2744 2837 
Q 2550 3084 2163 3084 
Q 1697 3084 1428 2787 
Q 1159 2491 1159 1978 
L 1159 0 
L 581 0 
L 581 3500 
L 1159 3500 
L 1159 2956 
Q 1366 3272 1645 3428 
Q 1925 3584 2291 3584 
Q 2894 3584 3203 3211 
Q 3513 2838 3513 2113 
z
" transform="scale(0.015625)"/>
       <path id="DejaVuSans-73" d="M 2834 3397 
L 2834 2853 
Q 2591 2978 2328 3040 
Q 2066 3103 1784 3103 
Q 1356 3103 1142 2972 
Q 928 2841 928 2578 
Q 928 2378 1081 2264 
Q 1234 2150 1697 2047 
L 1894 2003 
Q 2506 1872 2764 1633 
Q 3022 1394 3022 966 
Q 3022 478 2636 193 
Q 2250 -91 1575 -91 
Q 1294 -91 989 -36 
Q 684 19 347 128 
L 347 722 
Q 666 556 975 473 
Q 1284 391 1588 391 
Q 1994 391 2212 530 
Q 2431 669 2431 922 
Q 2431 1156 2273 1281 
Q 2116 1406 1581 1522 
L 1381 1569 
Q 847 1681 609 1914 
Q 372 2147 372 2553 
Q 372 3047 722 3315 
Q 1072 3584 1716 3584 
Q 2034 3584 2315 3537 
Q 2597 3491 2834 3397 
z
" transform="scale(0.015625)"/>
       <path id="DejaVuSans-6c" d="M 603 4863 
L 1178 4863 
L 1178 0 
L 603 0 
L 603 4863 
z
" transform="scale(0.015625)"/>
       <path id="DejaVuSans-74" d="M 1172 4494 
L 1172 3500 
L 2356 3500 
L 2356 3053 
L 1172 3053 
L 1172 1153 
Q 1172 725 1289 603 
Q 1406 481 1766 481 
L 2356 481 
L 2356 0 
L 1766 0 
Q 1100 0 847 248 
Q 594 497 594 1153 
L 594 3053 
L 172 3053 
L 172 3500 
L 594 3500 
L 594 4494 
L 1172 4494 
z
" transform="scale(0.015625)"/>
       <path id="DejaVuSans-69" d="M 603 3500 
L 1178 3500 
L 1178 0 
L 603 0 
L 603 3500 
z
M 603 4863 
L 1178 4863 
L 1178 4134 
L 603 4134 
L 603 4863 
z
" transform="scale(0.015625)"/>
       <path id="DejaVuSans-6f" d="M 1959 3097 
Q 1497 3097 1228 2736 
Q 959 2375 959 1747 
Q 959 1119 1226 758 
Q 1494 397 1959 397 
Q 2419 397 2687 759 
Q 2956 1122 2956 1747 
Q 2956 2369 2687 2733 
Q 2419 3097 1959 3097 
z
M 1959 3584 
Q 2709 3584 3137 3096 
Q 3566 2609 3566 1747 
Q 3566 888 3137 398 
Q 2709 -91 1959 -91 
Q 1206 -91 779 398 
Q 353 888 353 1747 
Q 353 2609 779 3096 
Q 1206 3584 1959 3584 
z
" transform="scale(0.015625)"/>
       <path id="DejaVuSans-20" transform="scale(0.015625)"/>
       <path id="DejaVuSans-50" d="M 1259 4147 
L 1259 2394 
L 2053 2394 
Q 2494 2394 2734 2622 
Q 2975 2850 2975 3272 
Q 2975 3691 2734 3919 
Q 2494 4147 2053 4147 
L 1259 4147 
z
M 628 4666 
L 2053 4666 
Q 2838 4666 3239 4311 
Q 3641 3956 3641 3272 
Q 3641 2581 3239 2228 
Q 2838 1875 2053 1875 
L 1259 1875 
L 1259 0 
L 628 0 
L 628 4666 
z
" transform="scale(0.015625)"/>
       <path id="DejaVuSans-5b" d="M 550 4863 
L 1875 4863 
L 1875 4416 
L 1125 4416 
L 1125 -397 
L 1875 -397 
L 1875 -844 
L 550 -844 
L 550 4863 
z
" transform="scale(0.015625)"/>
       <path id="DejaVuSans-6d" d="M 3328 2828 
Q 3544 3216 3844 3400 
Q 4144 3584 4550 3584 
Q 5097 3584 5394 3201 
Q 5691 2819 5691 2113 
L 5691 0 
L 5113 0 
L 5113 2094 
Q 5113 2597 4934 2840 
Q 4756 3084 4391 3084 
Q 3944 3084 3684 2787 
Q 3425 2491 3425 1978 
L 3425 0 
L 2847 0 
L 2847 2094 
Q 2847 2600 2669 2842 
Q 2491 3084 2119 3084 
Q 1678 3084 1418 2786 
Q 1159 2488 1159 1978 
L 1159 0 
L 581 0 
L 581 3500 
L 1159 3500 
L 1159 2956 
Q 1356 3278 1631 3431 
Q 1906 3584 2284 3584 
Q 2666 3584 2933 3390 
Q 3200 3197 3328 2828 
z
" transform="scale(0.015625)"/>
       <path id="DejaVuSans-5d" d="M 1947 4863 
L 1947 -844 
L 622 -844 
L 622 -397 
L 1369 -397 
L 1369 4416 
L 622 4416 
L 622 4863 
L 1947 4863 
z
" transform="scale(0.015625)"/>
      </defs>
      <use xlink:href="#DejaVuSans-54"/>
      <use xlink:href="#DejaVuSans-72" x="46.333984"/>
      <use xlink:href="#DejaVuSans-61" x="87.447266"/>
      <use xlink:href="#DejaVuSans-6e" x="148.726562"/>
      <use xlink:href="#DejaVuSans-73" x="212.105469"/>
      <use xlink:href="#DejaVuSans-6c" x="264.205078"/>
      <use xlink:href="#DejaVuSans-61" x="291.988281"/>
      <use xlink:href="#DejaVuSans-74" x="353.267578"/>
      <use xlink:href="#DejaVuSans-69" x="392.476562"/>
      <use xlink:href="#DejaVuSans-6f" x="420.259766"/>
      <use xlink:href="#DejaVuSans-6e" x="481.441406"/>
      <use xlink:href="#DejaVuSans-61" x="544.820312"/>
      <use xlink:href="#DejaVuSans-6c" x="606.099609"/>
      <use xlink:href="#DejaVuSans-20" x="633.882812"/>
      <use xlink:href="#DejaVuSans-50" x="665.669922"/>
      <use xlink:href="#DejaVuSans-6f" x="722.347656"/>
      <use xlink:href="#DejaVuSans-73" x="783.529297"/>
      <use xlink:href="#DejaVuSans-69" x="835.628906"/>
      <use xlink:href="#DejaVuSans-74" x="863.412109"/>
      <use xlink:href="#DejaVuSans-69" x="902.621094"/>
      <use xlink:href="#DejaVuSans-6f" x="930.404297"/>
      <use xlink:href="#DejaVuSans-6e" x="991.585938"/>
      <use xlink:href="#DejaVuSans-20" x="1054.964844"/>
      <use xlink:href="#DejaVuSans-5b" x="1086.751953"/>
      <use xlink:href="#DejaVuSans-6d" x="1125.765625"/>
      <use xlink:href="#DejaVuSans-6d" x="1223.177734"/>
      <use xlink:href="#DejaVuSans-5d" x="1320.589844"/>
     </g>
    </g>
   </g>
   <g id="matplotlib.axis_2">
    <g id="ytick_1">
     <g id="line2d_13">
      <path d="M 56.928125 292.047525 
L 450 292.047525 
" clip-path="url(#pd593d96909)" style="fill: none; stroke: #b0b0b0; stroke-width: 0.8; stroke-linecap: square"/>
     </g>
     <g id="line2d_14">
      <defs>
       <path id="m488561de28" d="M 0 0 
L -3.5 0 
" style="stroke: #000000; stroke-width: 0.8"/>
      </defs>
      <g>
       <use xlink:href="#m488561de28" x="56.928125" y="292.047525" style="stroke: #000000; stroke-width: 0.8"/>
      </g>
     </g>
     <g id="text_8">
      <!-- 0 -->
      <g transform="translate(43.565625 295.846743)scale(0.1 -0.1)">
       <use xlink:href="#DejaVuSans-30"/>
      </g>
     </g>
    </g>
    <g id="ytick_2">
     <g id="line2d_15">
      <path d="M 56.928125 239.241453 
L 450 239.241453 
" clip-path="url(#pd593d96909)" style="fill: none; stroke: #b0b0b0; stroke-width: 0.8; stroke-linecap: square"/>
     </g>
     <g id="line2d_16">
      <g>
       <use xlink:href="#m488561de28" x="56.928125" y="239.241453" style="stroke: #000000; stroke-width: 0.8"/>
      </g>
     </g>
     <g id="text_9">
      <!-- 200 -->
      <g transform="translate(30.840625 243.040672)scale(0.1 -0.1)">
       <use xlink:href="#DejaVuSans-32"/>
       <use xlink:href="#DejaVuSans-30" x="63.623047"/>
       <use xlink:href="#DejaVuSans-30" x="127.246094"/>
      </g>
     </g>
    </g>
    <g id="ytick_3">
     <g id="line2d_17">
      <path d="M 56.928125 186.435381 
L 450 186.435381 
" clip-path="url(#pd593d96909)" style="fill: none; stroke: #b0b0b0; stroke-width: 0.8; stroke-linecap: square"/>
     </g>
     <g id="line2d_18">
      <g>
       <use xlink:href="#m488561de28" x="56.928125" y="186.435381" style="stroke: #000000; stroke-width: 0.8"/>
      </g>
     </g>
     <g id="text_10">
      <!-- 400 -->
      <g transform="translate(30.840625 190.2346)scale(0.1 -0.1)">
       <defs>
        <path id="DejaVuSans-34" d="M 2419 4116 
L 825 1625 
L 2419 1625 
L 2419 4116 
z
M 2253 4666 
L 3047 4666 
L 3047 1625 
L 3713 1625 
L 3713 1100 
L 3047 1100 
L 3047 0 
L 2419 0 
L 2419 1100 
L 313 1100 
L 313 1709 
L 2253 4666 
z
" transform="scale(0.015625)"/>
       </defs>
       <use xlink:href="#DejaVuSans-34"/>
       <use xlink:href="#DejaVuSans-30" x="63.623047"/>
       <use xlink:href="#DejaVuSans-30" x="127.246094"/>
      </g>
     </g>
    </g>
    <g id="ytick_4">
     <g id="line2d_19">
      <path d="M 56.928125 133.62931 
L 450 133.62931 
" clip-path="url(#pd593d96909)" style="fill: none; stroke: #b0b0b0; stroke-width: 0.8; stroke-linecap: square"/>
     </g>
     <g id="line2d_20">
      <g>
       <use xlink:href="#m488561de28" x="56.928125" y="133.62931" style="stroke: #000000; stroke-width: 0.8"/>
      </g>
     </g>
     <g id="text_11">
      <!-- 600 -->
      <g transform="translate(30.840625 137.428528)scale(0.1 -0.1)">
       <defs>
        <path id="DejaVuSans-36" d="M 2113 2584 
Q 1688 2584 1439 2293 
Q 1191 2003 1191 1497 
Q 1191 994 1439 701 
Q 1688 409 2113 409 
Q 2538 409 2786 701 
Q 3034 994 3034 1497 
Q 3034 2003 2786 2293 
Q 2538 2584 2113 2584 
z
M 3366 4563 
L 3366 3988 
Q 3128 4100 2886 4159 
Q 2644 4219 2406 4219 
Q 1781 4219 1451 3797 
Q 1122 3375 1075 2522 
Q 1259 2794 1537 2939 
Q 1816 3084 2150 3084 
Q 2853 3084 3261 2657 
Q 3669 2231 3669 1497 
Q 3669 778 3244 343 
Q 2819 -91 2113 -91 
Q 1303 -91 875 529 
Q 447 1150 447 2328 
Q 447 3434 972 4092 
Q 1497 4750 2381 4750 
Q 2619 4750 2861 4703 
Q 3103 4656 3366 4563 
z
" transform="scale(0.015625)"/>
       </defs>
       <use xlink:href="#DejaVuSans-36"/>
       <use xlink:href="#DejaVuSans-30" x="63.623047"/>
       <use xlink:href="#DejaVuSans-30" x="127.246094"/>
      </g>
     </g>
    </g>
    <g id="ytick_5">
     <g id="line2d_21">
      <path d="M 56.928125 80.823238 
L 450 80.823238 
" clip-path="url(#pd593d96909)" style="fill: none; stroke: #b0b0b0; stroke-width: 0.8; stroke-linecap: square"/>
     </g>
     <g id="line2d_22">
      <g>
       <use xlink:href="#m488561de28" x="56.928125" y="80.823238" style="stroke: #000000; stroke-width: 0.8"/>
      </g>
     </g>
     <g id="text_12">
      <!-- 800 -->
      <g transform="translate(30.840625 84.622457)scale(0.1 -0.1)">
       <defs>
        <path id="DejaVuSans-38" d="M 2034 2216 
Q 1584 2216 1326 1975 
Q 1069 1734 1069 1313 
Q 1069 891 1326 650 
Q 1584 409 2034 409 
Q 2484 409 2743 651 
Q 3003 894 3003 1313 
Q 3003 1734 2745 1975 
Q 2488 2216 2034 2216 
z
M 1403 2484 
Q 997 2584 770 2862 
Q 544 3141 544 3541 
Q 544 4100 942 4425 
Q 1341 4750 2034 4750 
Q 2731 4750 3128 4425 
Q 3525 4100 3525 3541 
Q 3525 3141 3298 2862 
Q 3072 2584 2669 2484 
Q 3125 2378 3379 2068 
Q 3634 1759 3634 1313 
Q 3634 634 3220 271 
Q 2806 -91 2034 -91 
Q 1263 -91 848 271 
Q 434 634 434 1313 
Q 434 1759 690 2068 
Q 947 2378 1403 2484 
z
M 1172 3481 
Q 1172 3119 1398 2916 
Q 1625 2713 2034 2713 
Q 2441 2713 2670 2916 
Q 2900 3119 2900 3481 
Q 2900 3844 2670 4047 
Q 2441 4250 2034 4250 
Q 1625 4250 1398 4047 
Q 1172 3844 1172 3481 
z
" transform="scale(0.015625)"/>
       </defs>
       <use xlink:href="#DejaVuSans-38"/>
       <use xlink:href="#DejaVuSans-30" x="63.623047"/>
       <use xlink:href="#DejaVuSans-30" x="127.246094"/>
      </g>
     </g>
    </g>
    <g id="ytick_6">
     <g id="line2d_23">
      <path d="M 56.928125 28.017166 
L 450 28.017166 
" clip-path="url(#pd593d96909)" style="fill: none; stroke: #b0b0b0; stroke-width: 0.8; stroke-linecap: square"/>
     </g>
     <g id="line2d_24">
      <g>
       <use xlink:href="#m488561de28" x="56.928125" y="28.017166" style="stroke: #000000; stroke-width: 0.8"/>
      </g>
     </g>
     <g id="text_13">
      <!-- 1000 -->
      <g transform="translate(24.478125 31.816385)scale(0.1 -0.1)">
       <use xlink:href="#DejaVuSans-31"/>
       <use xlink:href="#DejaVuSans-30" x="63.623047"/>
       <use xlink:href="#DejaVuSans-30" x="127.246094"/>
       <use xlink:href="#DejaVuSans-30" x="190.869141"/>
      </g>
     </g>
    </g>
    <g id="text_14">
     <!-- Reflector Raw Value -->
     <g transform="translate(18.398438 214.980937)rotate(-90)scale(0.1 -0.1)">
      <defs>
       <path id="DejaVuSans-52" d="M 2841 2188 
Q 3044 2119 3236 1894 
Q 3428 1669 3622 1275 
L 4263 0 
L 3584 0 
L 2988 1197 
Q 2756 1666 2539 1819 
Q 2322 1972 1947 1972 
L 1259 1972 
L 1259 0 
L 628 0 
L 628 4666 
L 2053 4666 
Q 2853 4666 3247 4331 
Q 3641 3997 3641 3322 
Q 3641 2881 3436 2590 
Q 3231 2300 2841 2188 
z
M 1259 4147 
L 1259 2491 
L 2053 2491 
Q 2509 2491 2742 2702 
Q 2975 2913 2975 3322 
Q 2975 3731 2742 3939 
Q 2509 4147 2053 4147 
L 1259 4147 
z
" transform="scale(0.015625)"/>
       <path id="DejaVuSans-65" d="M 3597 1894 
L 3597 1613 
L 953 1613 
Q 991 1019 1311 708 
Q 1631 397 2203 397 
Q 2534 397 2845 478 
Q 3156 559 3463 722 
L 3463 178 
Q 3153 47 2828 -22 
Q 2503 -91 2169 -91 
Q 1331 -91 842 396 
Q 353 884 353 1716 
Q 353 2575 817 3079 
Q 1281 3584 2069 3584 
Q 2775 3584 3186 3129 
Q 3597 2675 3597 1894 
z
M 3022 2063 
Q 3016 2534 2758 2815 
Q 2500 3097 2075 3097 
Q 1594 3097 1305 2825 
Q 1016 2553 972 2059 
L 3022 2063 
z
" transform="scale(0.015625)"/>
       <path id="DejaVuSans-66" d="M 2375 4863 
L 2375 4384 
L 1825 4384 
Q 1516 4384 1395 4259 
Q 1275 4134 1275 3809 
L 1275 3500 
L 2222 3500 
L 2222 3053 
L 1275 3053 
L 1275 0 
L 697 0 
L 697 3053 
L 147 3053 
L 147 3500 
L 697 3500 
L 697 3744 
Q 697 4328 969 4595 
Q 1241 4863 1831 4863 
L 2375 4863 
z
" transform="scale(0.015625)"/>
       <path id="DejaVuSans-63" d="M 3122 3366 
L 3122 2828 
Q 2878 2963 2633 3030 
Q 2388 3097 2138 3097 
Q 1578 3097 1268 2742 
Q 959 2388 959 1747 
Q 959 1106 1268 751 
Q 1578 397 2138 397 
Q 2388 397 2633 464 
Q 2878 531 3122 666 
L 3122 134 
Q 2881 22 2623 -34 
Q 2366 -91 2075 -91 
Q 1284 -91 818 406 
Q 353 903 353 1747 
Q 353 2603 823 3093 
Q 1294 3584 2113 3584 
Q 2378 3584 2631 3529 
Q 2884 3475 3122 3366 
z
" transform="scale(0.015625)"/>
       <path id="DejaVuSans-77" d="M 269 3500 
L 844 3500 
L 1563 769 
L 2278 3500 
L 2956 3500 
L 3675 769 
L 4391 3500 
L 4966 3500 
L 4050 0 
L 3372 0 
L 2619 2869 
L 1863 0 
L 1184 0 
L 269 3500 
z
" transform="scale(0.015625)"/>
       <path id="DejaVuSans-56" d="M 1831 0 
L 50 4666 
L 709 4666 
L 2188 738 
L 3669 4666 
L 4325 4666 
L 2547 0 
L 1831 0 
z
" transform="scale(0.015625)"/>
       <path id="DejaVuSans-75" d="M 544 1381 
L 544 3500 
L 1119 3500 
L 1119 1403 
Q 1119 906 1312 657 
Q 1506 409 1894 409 
Q 2359 409 2629 706 
Q 2900 1003 2900 1516 
L 2900 3500 
L 3475 3500 
L 3475 0 
L 2900 0 
L 2900 538 
Q 2691 219 2414 64 
Q 2138 -91 1772 -91 
Q 1169 -91 856 284 
Q 544 659 544 1381 
z
M 1991 3584 
L 1991 3584 
z
" transform="scale(0.015625)"/>
      </defs>
      <use xlink:href="#DejaVuSans-52"/>
      <use xlink:href="#DejaVuSans-65" x="64.982422"/>
      <use xlink:href="#DejaVuSans-66" x="126.505859"/>
      <use xlink:href="#DejaVuSans-6c" x="161.710938"/>
      <use xlink:href="#DejaVuSans-65" x="189.494141"/>
      <use xlink:href="#DejaVuSans-63" x="251.017578"/>
      <use xlink:href="#DejaVuSans-74" x="305.998047"/>
      <use xlink:href="#DejaVuSans-6f" x="345.207031"/>
      <use xlink:href="#DejaVuSans-72" x="406.388672"/>
      <use xlink:href="#DejaVuSans-20" x="447.501953"/>
      <use xlink:href="#DejaVuSans-52" x="479.289062"/>
      <use xlink:href="#DejaVuSans-61" x="546.521484"/>
      <use xlink:href="#DejaVuSans-77" x="607.800781"/>
      <use xlink:href="#DejaVuSans-20" x="689.587891"/>
      <use xlink:href="#DejaVuSans-56" x="721.375"/>
      <use xlink:href="#DejaVuSans-61" x="782.033203"/>
      <use xlink:href="#DejaVuSans-6c" x="843.3125"/>
      <use xlink:href="#DejaVuSans-75" x="871.095703"/>
      <use xlink:href="#DejaVuSans-65" x="934.474609"/>
     </g>
    </g>
   </g>
   <g id="line2d_25">
    <path d="M 74.795028 93.496695 
L 74.795081 93.496695 
L 74.886507 92.176543 
L 74.940346 92.176543 
L 75.21854 93.496695 
L 75.285243 93.496695 
L 75.52691 92.968634 
L 75.725431 92.440574 
L 75.837 92.440574 
L 75.957171 92.176543 
L 76.08621 92.440574 
L 76.224381 92.440574 
L 76.37261 92.704604 
L 76.530103 92.440574 
L 77.064787 93.232665 
L 77.264632 94.024756 
L 77.700055 94.552817 
L 78.181799 95.872968 
L 78.995736 98.249242 
L 79.289547 98.777302 
L 80.587876 105.378061 
L 80.942567 106.434183 
L 82.47912 112.770911 
L 83.319527 114.883154 
L 84.206254 117.787488 
L 86.123969 123.068095 
L 86.633506 123.596156 
L 87.154955 124.652277 
L 87.686992 125.180338 
L 88.228293 125.972429 
L 88.784152 126.50049 
L 89.353246 126.76452 
L 89.935575 126.76452 
L 90.531138 126.23646 
L 91.139936 126.23646 
L 91.748735 125.708399 
L 92.370767 125.444369 
L 93.006035 124.652277 
L 93.654538 124.388247 
L 94.30304 123.596156 
L 94.964777 123.332126 
L 95.639749 122.804065 
L 96.327956 122.540035 
L 97.704369 121.483913 
L 98.419045 121.483913 
L 99.133721 120.955852 
L 99.848397 120.691822 
L 100.576308 120.163761 
L 102.78651 119.37167 
L 103.540891 119.37167 
L 104.295271 119.10764 
L 105.049652 119.10764 
L 105.817267 118.84361 
L 106.584882 118.315549 
L 107.365732 118.051519 
L 108.133347 118.051519 
L 108.914197 117.787488 
L 109.695046 118.051519 
L 110.475896 117.787488 
L 111.269981 117.787488 
L 112.064065 118.315549 
L 112.844915 118.579579 
L 115.227169 118.579579 
L 116.815338 118.051519 
L 117.609423 118.051519 
L 118.403507 117.787488 
L 119.197592 117.787488 
L 119.991677 117.523458 
L 120.785761 117.787488 
L 121.579846 117.787488 
L 122.37393 118.315549 
L 123.168015 118.579579 
L 123.9621 119.10764 
L 125.550269 121.219883 
L 127.932523 127.820642 
L 129.520692 133.62931 
L 131.108861 141.55022 
L 132.69703 151.583374 
L 134.285199 165.048922 
L 135.873369 183.002987 
L 137.461538 204.125415 
L 141.431961 262.212094 
L 142.226045 271.189126 
L 143.02013 278.317946 
L 143.814215 284.126614 
L 144.608299 288.3511 
L 145.402384 290.991403 
L 146.196468 291.783494 
L 235.200117 291.783494 
L 235.994201 291.519464 
L 236.788286 290.463343 
L 238.376455 285.974826 
L 239.17054 282.542432 
L 239.964624 277.789885 
L 240.758709 272.245248 
L 243.140963 251.91491 
L 245.523217 228.944269 
L 248.699555 197.260626 
L 250.287724 182.738956 
L 251.875893 169.801469 
L 252.53763 165.312953 
L 254.1258 157.920103 
L 255.713969 152.903526 
L 257.302138 149.735162 
L 258.096223 148.94307 
L 258.890307 147.622919 
L 259.684392 146.566797 
L 260.478476 145.774706 
L 262.86073 144.190524 
L 264.448899 145.246645 
L 265.242984 146.038737 
L 267.625238 147.622919 
L 268.419322 147.622919 
L 269.213407 147.358888 
L 270.007492 146.830828 
L 270.801576 146.038737 
L 271.595661 144.982615 
L 272.389745 144.190524 
L 273.18383 143.662463 
L 273.977915 142.606342 
L 277.154253 144.718585 
L 277.948338 144.982615 
L 278.742422 144.982615 
L 280.330591 144.454554 
L 281.124676 143.926494 
L 282.712845 142.342312 
L 283.50693 141.814251 
L 284.301014 141.814251 
L 285.889184 143.398433 
L 286.683268 144.454554 
L 287.477353 145.246645 
L 288.271437 146.302767 
L 289.065522 146.566797 
L 289.859606 146.566797 
L 290.653691 146.302767 
L 291.447776 145.774706 
L 292.24186 145.510676 
L 293.830029 144.454554 
L 294.624114 144.982615 
L 296.212283 147.094858 
L 297.006368 148.41501 
L 298.594537 150.527253 
L 299.388622 150.791283 
L 300.182706 151.319344 
L 300.976791 150.527253 
L 303.359045 148.94307 
L 304.153129 148.150979 
L 304.947214 148.41501 
L 306.535383 150.527253 
L 307.329468 151.319344 
L 308.123552 152.375465 
L 309.711721 152.375465 
L 310.505806 152.639495 
L 311.299891 151.583374 
L 312.093975 150.791283 
L 312.88806 149.735162 
L 314.476229 149.735162 
L 315.270314 151.055313 
L 316.064398 151.847404 
L 316.858483 153.167556 
L 317.652567 154.223678 
L 318.446652 154.223678 
L 319.240737 153.959647 
L 320.034821 153.431587 
L 320.828906 152.375465 
L 321.62299 150.791283 
L 322.417075 149.999192 
L 323.21116 149.471131 
L 324.005244 149.471131 
L 324.799329 150.527253 
L 325.593413 151.319344 
L 326.387498 152.903526 
L 327.181582 153.959647 
L 327.975667 153.959647 
L 328.769752 153.695617 
L 329.563836 152.639495 
L 331.94609 148.67904 
L 333.534259 148.150979 
L 334.328344 149.207101 
L 335.122428 149.999192 
L 335.916513 151.319344 
L 336.710598 152.375465 
L 337.504682 152.375465 
L 338.298767 152.639495 
L 339.092851 151.319344 
L 339.886936 150.263222 
L 340.681021 149.471131 
L 341.475105 148.150979 
L 342.26919 148.41501 
L 343.063274 149.207101 
L 344.651444 152.375465 
L 345.445528 154.487708 
L 346.239613 156.07189 
L 347.033697 156.07189 
L 347.827782 156.33592 
L 348.621867 155.279799 
L 350.210036 152.639495 
L 351.00412 151.847404 
L 351.798205 152.111435 
L 352.59229 152.639495 
L 354.974543 159.768315 
L 355.768628 161.088467 
L 356.562713 162.672649 
L 357.356797 163.992801 
L 358.150882 164.256831 
L 358.944966 164.784892 
L 359.739051 166.633104 
L 361.32722 172.441772 
L 362.915389 182.474926 
L 363.709474 188.019563 
L 364.503559 192.244049 
L 365.297643 197.260626 
L 367.679897 209.670053 
L 369.268066 223.135601 
L 370.062151 230.528451 
L 372.444404 258.515669 
L 374.032574 272.773309 
L 374.826658 277.789885 
L 375.620743 282.014371 
L 376.414827 285.182735 
L 377.208912 287.294978 
L 378.002997 288.61513 
L 378.797081 289.143191 
L 379.591166 290.727373 
L 380.38525 291.519464 
L 381.179335 291.783494 
L 428.427368 291.783494 
L 429.221453 290.199312 
L 429.353801 289.671251 
L 429.618495 289.143191 
L 430.147885 289.143191 
L 430.41258 289.671251 
L 430.544927 290.199312 
L 430.809622 290.199312 
L 431.339012 288.3511 
L 431.339012 288.3511 
L 431.471359 288.3511 
L 431.603707 288.87916 
L 431.603707 289.671251 
L 431.736054 289.671251 
L 431.736054 289.407221 
L 431.868402 288.87916 
L 431.868402 287.823039 
L 431.868402 287.823039 
L 432.000749 287.823039 
L 432.000749 287.823039 
L 432.000749 289.935282 
L 432.133097 289.935282 
L 432.133097 289.935282 
L 432.133097 286.238857 
L 432.133097 289.407221 
" clip-path="url(#pd593d96909)" style="fill: none; stroke: #1f77b4; stroke-width: 1.5; stroke-linecap: square"/>
   </g>
   <g id="line2d_26">
    <path d="M 74.795028 291.783494 
L 350.210036 291.783494 
L 351.00412 291.519464 
L 354.974543 291.519464 
L 355.768628 291.255434 
L 356.562713 290.727373 
L 357.356797 290.463343 
L 358.150882 289.671251 
L 358.944966 289.143191 
L 359.739051 288.3511 
L 361.32722 288.3511 
L 362.121305 288.61513 
L 363.709474 289.671251 
L 364.503559 288.87916 
L 366.091728 287.823039 
L 368.473981 283.070492 
L 370.062151 283.070492 
L 370.856235 284.654675 
L 371.65032 285.710796 
L 372.444404 287.294978 
L 373.238489 286.502887 
L 374.032574 285.974826 
L 374.826658 285.182735 
L 376.414827 280.166159 
L 377.208912 278.846007 
L 378.797081 278.846007 
L 380.38525 283.070492 
L 381.179335 285.710796 
L 381.97342 284.390644 
L 382.767504 283.598553 
L 383.561589 281.48631 
L 385.149758 274.357491 
L 387.532012 274.357491 
L 388.326096 277.525855 
L 389.914266 284.654675 
L 391.502435 282.542432 
L 393.884689 267.492701 
L 394.678773 267.228671 
L 396.266942 267.228671 
L 398.649196 280.95825 
L 399.443281 279.374067 
L 400.237365 278.053916 
L 401.03145 271.453157 
L 401.693187 264.588367 
L 402.487272 257.723578 
L 403.281356 256.667457 
L 404.075441 256.139396 
L 404.737178 255.347305 
L 405.531263 260.363882 
L 406.193 265.644489 
L 406.987084 270.925096 
L 407.648822 269.076884 
L 408.442906 267.228671 
L 410.428118 243.201908 
L 412.545677 239.769514 
L 413.869151 251.122819 
L 414.398541 249.274607 
L 415.060278 247.954455 
L 415.722015 245.314151 
L 416.251405 236.337119 
L 416.913142 227.360087 
L 417.442532 225.775905 
L 418.104269 224.455753 
L 418.633658 223.135601 
L 419.692438 235.280998 
L 420.221828 233.960846 
L 420.751217 233.168755 
L 421.280607 232.112633 
L 421.677649 223.135601 
L 422.207039 213.894539 
L 423.530513 209.670053 
L 424.324598 222.34351 
L 424.72164 220.759328 
L 425.515725 218.383055 
L 426.30981 201.221081 
L 426.971547 198.580778 
L 427.236242 192.77211 
L 427.633284 194.884353 
L 428.427368 213.366478 
L 428.692063 212.310356 
L 429.618495 186.699412 
L 430.015538 184.851199 
L 430.147885 183.795078 
L 430.544927 196.204505 
L 430.677275 195.148383 
L 430.809622 193.564201 
L 430.94197 193.828231 
L 431.206665 177.194319 
L 431.471359 175.610137 
L 431.603707 183.002987 
L 431.603707 190.659867 
L 431.736054 188.811655 
L 431.736054 187.227472 
L 431.868402 187.491503 
L 431.868402 170.329529 
L 432.000749 169.273408 
L 432.000749 168.745347 
L 432.000749 185.11523 
L 432.133097 183.531047 
L 432.133097 184.059108 
L 432.133097 159.504285 
L 432.133097 177.458349 
" clip-path="url(#pd593d96909)" style="fill: none; stroke: #ff7f0e; stroke-width: 1.5; stroke-linecap: square"/>
   </g>
   <g id="line2d_27">
    <path d="M 74.795028 291.783494 
L 365.297643 291.783494 
L 366.885812 291.255434 
L 367.679897 290.727373 
L 370.856235 290.727373 
L 372.444404 291.255434 
L 374.032574 289.671251 
L 375.620743 287.030948 
L 376.414827 285.446766 
L 378.797081 285.446766 
L 379.591166 286.502887 
L 380.38525 287.823039 
L 381.179335 288.87916 
L 382.767504 286.766918 
L 385.149758 279.374067 
L 387.532012 279.374067 
L 389.914266 286.766918 
L 390.70835 285.446766 
L 391.502435 284.390644 
L 393.884689 271.189126 
L 396.266942 271.189126 
L 398.649196 282.278401 
L 399.443281 281.22228 
L 400.237365 279.902128 
L 401.03145 274.09346 
L 401.693187 267.756732 
L 402.487272 262.212094 
L 404.737178 260.099851 
L 405.531263 264.060307 
L 406.987084 272.773309 
L 407.648822 271.453157 
L 408.442906 269.076884 
L 410.428118 247.954455 
L 411.222202 246.634303 
L 412.545677 243.993999 
L 413.869151 252.971032 
L 414.398541 251.122819 
L 415.060278 249.538637 
L 415.722015 247.162364 
L 416.251405 238.977423 
L 416.913142 236.073089 
L 418.633658 231.848603 
L 419.692438 241.881757 
L 420.221828 240.033544 
L 420.751217 238.977423 
L 421.280607 231.848603 
L 421.677649 223.135601 
L 422.604081 218.911115 
L 423.133471 217.590964 
L 423.530513 216.006781 
L 424.324598 226.303965 
L 425.118683 222.871571 
L 425.912767 206.501689 
L 426.574504 202.805264 
L 426.971547 201.221081 
L 427.236242 197.524656 
L 427.633284 197.524656 
L 428.427368 215.478721 
L 429.353801 183.531047 
L 429.618495 186.963442 
L 429.88319 186.171351 
L 430.147885 183.267017 
L 430.41258 190.131806 
L 430.544927 196.468535 
L 430.809622 193.300171 
L 431.206665 175.610137 
L 431.339012 174.818046 
L 431.339012 173.761924 
L 431.471359 172.705803 
L 431.603707 179.834622 
L 431.603707 187.755533 
L 431.736054 186.963442 
L 431.736054 186.171351 
L 431.868402 178.514471 
L 431.868402 169.537438 
L 432.000749 169.537438 
L 432.000749 168.217287 
L 432.000749 182.738956 
L 432.133097 181.946865 
L 432.133097 160.296376 
L 432.133097 176.930288 
" clip-path="url(#pd593d96909)" style="fill: none; stroke: #2ca02c; stroke-width: 1.5; stroke-linecap: square"/>
   </g>
   <g id="line2d_28">
    <path d="M 74.795028 153.959647 
L 74.795081 153.959647 
L 74.886507 151.847404 
L 75.15819 154.487708 
L 75.21854 154.223678 
L 75.285243 154.487708 
L 75.439163 153.959647 
L 75.6222 152.903526 
L 75.837 152.375465 
L 75.957171 152.375465 
L 76.08621 152.111435 
L 76.224381 152.375465 
L 76.37261 152.375465 
L 77.064787 151.319344 
L 77.476387 151.847404 
L 78.181799 151.847404 
L 78.4412 151.583374 
L 78.995736 150.527253 
L 79.596593 148.150979 
L 79.915551 146.566797 
L 80.587876 144.454554 
L 81.309169 142.606342 
L 82.47912 139.437978 
L 82.893368 138.645886 
L 83.756273 136.797674 
L 84.668147 135.741553 
L 85.141951 135.477522 
L 85.626342 134.949461 
L 86.123969 134.949461 
L 86.633506 134.15737 
L 87.154955 133.62931 
L 87.686992 132.573188 
L 88.228293 131.781097 
L 88.784152 130.460945 
L 89.353246 129.404824 
L 89.935575 128.876763 
L 90.531138 127.820642 
L 91.748735 127.292581 
L 93.654538 127.292581 
L 94.964777 127.820642 
L 95.639749 128.876763 
L 96.327956 130.460945 
L 97.016162 131.517067 
L 98.419045 133.101249 
L 100.576308 133.101249 
L 101.304219 132.573188 
L 102.78651 130.989006 
L 103.540891 130.724976 
L 104.295271 130.724976 
L 105.049652 130.989006 
L 105.817267 131.517067 
L 106.584882 131.517067 
L 107.365732 132.045128 
L 108.133347 132.309158 
L 108.914197 132.309158 
L 109.695046 132.573188 
L 110.475896 133.62931 
L 112.064065 135.213492 
L 112.844915 135.741553 
L 113.639 136.005583 
L 114.433084 136.005583 
L 115.227169 136.533644 
L 116.815338 136.005583 
L 117.609423 135.213492 
L 119.197592 134.685431 
L 119.991677 134.685431 
L 121.579846 135.213492 
L 122.37393 135.741553 
L 123.168015 136.005583 
L 123.9621 136.533644 
L 124.756184 136.797674 
L 125.550269 138.381856 
L 128.726607 143.662463 
L 129.520692 144.454554 
L 130.314776 145.774706 
L 131.108861 147.622919 
L 132.69703 150.263222 
L 134.285199 155.279799 
L 135.079284 158.448163 
L 135.873369 162.408619 
L 137.461538 171.913712 
L 138.255622 177.458349 
L 139.843792 190.659867 
L 141.431961 205.709598 
L 143.02013 223.399632 
L 145.402384 252.442971 
L 146.990553 269.604944 
L 147.784638 276.469734 
L 148.578722 282.278401 
L 149.372807 286.238857 
L 150.166891 288.87916 
L 150.960976 290.991403 
L 151.755061 291.783494 
L 242.346878 291.783494 
L 243.140963 291.519464 
L 243.935047 290.727373 
L 244.729132 289.671251 
L 245.523217 288.087069 
L 246.317301 285.446766 
L 247.90547 278.317946 
L 248.699555 274.09346 
L 250.287724 263.796276 
L 251.875893 252.178941 
L 252.53763 246.634303 
L 254.919884 231.848603 
L 255.713969 227.888148 
L 257.302138 221.815449 
L 258.096223 219.967237 
L 258.890307 219.175146 
L 259.684392 219.439176 
L 260.478476 221.815449 
L 261.272561 225.247844 
L 262.066646 230.264421 
L 262.86073 236.601149 
L 266.037069 271.717187 
L 266.831153 278.317946 
L 267.625238 283.862584 
L 268.419322 288.087069 
L 269.213407 290.991403 
L 270.007492 291.783494 
L 363.709474 291.783494 
L 364.503559 290.199312 
L 365.297643 287.823039 
L 366.091728 284.390644 
L 366.885812 279.638098 
L 368.473981 267.228671 
L 369.268066 260.099851 
L 370.856235 242.409817 
L 372.444404 222.07948 
L 374.032574 195.676444 
L 377.208912 139.173947 
L 378.797081 119.37167 
L 379.591166 113.827033 
L 380.38525 109.602547 
L 381.179335 106.698213 
L 381.97342 103.001788 
L 383.561589 97.457151 
L 385.149758 91.384452 
L 385.943843 90.328331 
L 387.532012 89.80027 
L 389.120181 92.968634 
L 389.914266 94.024756 
L 390.70835 92.440574 
L 391.502435 91.384452 
L 392.296519 88.216088 
L 393.884689 80.559208 
L 394.678773 79.239056 
L 395.472858 78.182934 
L 396.266942 77.654874 
L 398.649196 83.991602 
L 399.443281 82.671451 
L 400.237365 82.14339 
L 401.03145 79.239056 
L 402.487272 71.846206 
L 403.281356 70.790084 
L 404.737178 69.469933 
L 405.531263 71.846206 
L 406.193 74.222479 
L 406.987084 76.334722 
L 407.648822 76.070692 
L 408.442906 75.2786 
L 409.76638 66.829629 
L 410.428118 62.341113 
L 411.222202 61.813052 
L 411.883939 60.756931 
L 412.545677 60.22887 
L 413.207414 62.341113 
L 413.869151 65.245447 
L 414.398541 64.453356 
L 415.722015 63.397234 
L 416.251405 59.172749 
L 416.913142 54.948263 
L 417.442532 54.948263 
L 418.104269 54.684233 
L 418.633658 55.212293 
L 419.163048 59.436779 
L 419.692438 64.717386 
L 421.280607 63.133204 
L 422.207039 53.628111 
L 422.604081 53.364081 
L 423.133471 52.83602 
L 423.530513 50.987808 
L 424.324598 59.700809 
L 424.72164 60.22887 
L 425.515725 59.172749 
L 426.30981 49.403625 
L 426.971547 49.403625 
L 427.236242 46.235261 
L 427.633284 49.403625 
L 428.427368 62.605143 
L 428.692063 61.813052 
L 429.618495 42.538836 
L 429.88319 43.066897 
L 430.015538 43.594957 
L 430.147885 43.594957 
L 430.41258 49.139595 
L 430.544927 56.532445 
L 430.809622 56.532445 
L 430.94197 56.796475 
L 431.206665 45.17914 
L 431.339012 45.971231 
L 431.471359 44.651079 
L 431.603707 50.459747 
L 431.603707 56.796475 
L 431.736054 56.532445 
L 431.736054 56.268415 
L 431.868402 56.268415 
L 431.868402 44.123018 
L 432.000749 43.858988 
L 432.000749 43.858988 
L 432.000749 43.594957 
L 432.000749 54.948263 
L 432.133097 54.156172 
L 432.133097 38.578381 
L 432.133097 55.476324 
L 432.133097 54.156172 
" clip-path="url(#pd593d96909)" style="fill: none; stroke: #d62728; stroke-width: 1.5; stroke-linecap: square"/>
   </g>
   <g id="patch_3">
    <path d="M 56.928125 304.44375 
L 56.928125 25.918125 
" style="fill: none; stroke: #000000; stroke-width: 0.8; stroke-linejoin: miter; stroke-linecap: square"/>
   </g>
   <g id="patch_4">
    <path d="M 450 304.44375 
L 450 25.918125 
" style="fill: none; stroke: #000000; stroke-width: 0.8; stroke-linejoin: miter; stroke-linecap: square"/>
   </g>
   <g id="patch_5">
    <path d="M 56.928125 304.44375 
L 450 304.44375 
" style="fill: none; stroke: #000000; stroke-width: 0.8; stroke-linejoin: miter; stroke-linecap: square"/>
   </g>
   <g id="patch_6">
    <path d="M 56.928125 25.918125 
L 450 25.918125 
" style="fill: none; stroke: #000000; stroke-width: 0.8; stroke-linejoin: miter; stroke-linecap: square"/>
   </g>
   <g id="text_15">
    <!-- Reflector Raw Value -->
    <g transform="translate(193.704062 19.918125)scale(0.12 -0.12)">
     <use xlink:href="#DejaVuSans-52"/>
     <use xlink:href="#DejaVuSans-65" x="64.982422"/>
     <use xlink:href="#DejaVuSans-66" x="126.505859"/>
     <use xlink:href="#DejaVuSans-6c" x="161.710938"/>
     <use xlink:href="#DejaVuSans-65" x="189.494141"/>
     <use xlink:href="#DejaVuSans-63" x="251.017578"/>
     <use xlink:href="#DejaVuSans-74" x="305.998047"/>
     <use xlink:href="#DejaVuSans-6f" x="345.207031"/>
     <use xlink:href="#DejaVuSans-72" x="406.388672"/>
     <use xlink:href="#DejaVuSans-20" x="447.501953"/>
     <use xlink:href="#DejaVuSans-52" x="479.289062"/>
     <use xlink:href="#DejaVuSans-61" x="546.521484"/>
     <use xlink:href="#DejaVuSans-77" x="607.800781"/>
     <use xlink:href="#DejaVuSans-20" x="689.587891"/>
     <use xlink:href="#DejaVuSans-56" x="721.375"/>
     <use xlink:href="#DejaVuSans-61" x="782.033203"/>
     <use xlink:href="#DejaVuSans-6c" x="843.3125"/>
     <use xlink:href="#DejaVuSans-75" x="871.095703"/>
     <use xlink:href="#DejaVuSans-65" x="934.474609"/>
    </g>
   </g>
   <g id="legend_1">
    <g id="patch_7">
     <path d="M 210.064062 92.630625 
L 296.864062 92.630625 
Q 298.864062 92.630625 298.864062 90.630625 
L 298.864062 32.918125 
Q 298.864062 30.918125 296.864062 30.918125 
L 210.064062 30.918125 
Q 208.064062 30.918125 208.064062 32.918125 
L 208.064062 90.630625 
Q 208.064062 92.630625 210.064062 92.630625 
z
" style="fill: #ffffff; opacity: 0.8; stroke: #cccccc; stroke-linejoin: miter"/>
    </g>
    <g id="line2d_29">
     <path d="M 212.064062 39.016562 
L 222.064062 39.016562 
L 232.064062 39.016562 
" style="fill: none; stroke: #1f77b4; stroke-width: 1.5; stroke-linecap: square"/>
    </g>
    <g id="text_16">
     <!-- Left Side -->
     <g transform="translate(240.064062 42.516562)scale(0.1 -0.1)">
      <defs>
       <path id="DejaVuSans-4c" d="M 628 4666 
L 1259 4666 
L 1259 531 
L 3531 531 
L 3531 0 
L 628 0 
L 628 4666 
z
" transform="scale(0.015625)"/>
       <path id="DejaVuSans-53" d="M 3425 4513 
L 3425 3897 
Q 3066 4069 2747 4153 
Q 2428 4238 2131 4238 
Q 1616 4238 1336 4038 
Q 1056 3838 1056 3469 
Q 1056 3159 1242 3001 
Q 1428 2844 1947 2747 
L 2328 2669 
Q 3034 2534 3370 2195 
Q 3706 1856 3706 1288 
Q 3706 609 3251 259 
Q 2797 -91 1919 -91 
Q 1588 -91 1214 -16 
Q 841 59 441 206 
L 441 856 
Q 825 641 1194 531 
Q 1563 422 1919 422 
Q 2459 422 2753 634 
Q 3047 847 3047 1241 
Q 3047 1584 2836 1778 
Q 2625 1972 2144 2069 
L 1759 2144 
Q 1053 2284 737 2584 
Q 422 2884 422 3419 
Q 422 4038 858 4394 
Q 1294 4750 2059 4750 
Q 2388 4750 2728 4690 
Q 3069 4631 3425 4513 
z
" transform="scale(0.015625)"/>
       <path id="DejaVuSans-64" d="M 2906 2969 
L 2906 4863 
L 3481 4863 
L 3481 0 
L 2906 0 
L 2906 525 
Q 2725 213 2448 61 
Q 2172 -91 1784 -91 
Q 1150 -91 751 415 
Q 353 922 353 1747 
Q 353 2572 751 3078 
Q 1150 3584 1784 3584 
Q 2172 3584 2448 3432 
Q 2725 3281 2906 2969 
z
M 947 1747 
Q 947 1113 1208 752 
Q 1469 391 1925 391 
Q 2381 391 2643 752 
Q 2906 1113 2906 1747 
Q 2906 2381 2643 2742 
Q 2381 3103 1925 3103 
Q 1469 3103 1208 2742 
Q 947 2381 947 1747 
z
" transform="scale(0.015625)"/>
      </defs>
      <use xlink:href="#DejaVuSans-4c"/>
      <use xlink:href="#DejaVuSans-65" x="53.962891"/>
      <use xlink:href="#DejaVuSans-66" x="115.486328"/>
      <use xlink:href="#DejaVuSans-74" x="148.941406"/>
      <use xlink:href="#DejaVuSans-20" x="188.150391"/>
      <use xlink:href="#DejaVuSans-53" x="219.9375"/>
      <use xlink:href="#DejaVuSans-69" x="283.414062"/>
      <use xlink:href="#DejaVuSans-64" x="311.197266"/>
      <use xlink:href="#DejaVuSans-65" x="374.673828"/>
     </g>
    </g>
    <g id="line2d_30">
     <path d="M 212.064062 53.694687 
L 222.064062 53.694687 
L 232.064062 53.694687 
" style="fill: none; stroke: #ff7f0e; stroke-width: 1.5; stroke-linecap: square"/>
    </g>
    <g id="text_17">
     <!-- Left Front -->
     <g transform="translate(240.064062 57.194687)scale(0.1 -0.1)">
      <defs>
       <path id="DejaVuSans-46" d="M 628 4666 
L 3309 4666 
L 3309 4134 
L 1259 4134 
L 1259 2759 
L 3109 2759 
L 3109 2228 
L 1259 2228 
L 1259 0 
L 628 0 
L 628 4666 
z
" transform="scale(0.015625)"/>
      </defs>
      <use xlink:href="#DejaVuSans-4c"/>
      <use xlink:href="#DejaVuSans-65" x="53.962891"/>
      <use xlink:href="#DejaVuSans-66" x="115.486328"/>
      <use xlink:href="#DejaVuSans-74" x="148.941406"/>
      <use xlink:href="#DejaVuSans-20" x="188.150391"/>
      <use xlink:href="#DejaVuSans-46" x="219.9375"/>
      <use xlink:href="#DejaVuSans-72" x="270.207031"/>
      <use xlink:href="#DejaVuSans-6f" x="309.070312"/>
      <use xlink:href="#DejaVuSans-6e" x="370.251953"/>
      <use xlink:href="#DejaVuSans-74" x="433.630859"/>
     </g>
    </g>
    <g id="line2d_31">
     <path d="M 212.064062 68.372812 
L 222.064062 68.372812 
L 232.064062 68.372812 
" style="fill: none; stroke: #2ca02c; stroke-width: 1.5; stroke-linecap: square"/>
    </g>
    <g id="text_18">
     <!-- Right Front -->
     <g transform="translate(240.064062 71.872812)scale(0.1 -0.1)">
      <defs>
       <path id="DejaVuSans-67" d="M 2906 1791 
Q 2906 2416 2648 2759 
Q 2391 3103 1925 3103 
Q 1463 3103 1205 2759 
Q 947 2416 947 1791 
Q 947 1169 1205 825 
Q 1463 481 1925 481 
Q 2391 481 2648 825 
Q 2906 1169 2906 1791 
z
M 3481 434 
Q 3481 -459 3084 -895 
Q 2688 -1331 1869 -1331 
Q 1566 -1331 1297 -1286 
Q 1028 -1241 775 -1147 
L 775 -588 
Q 1028 -725 1275 -790 
Q 1522 -856 1778 -856 
Q 2344 -856 2625 -561 
Q 2906 -266 2906 331 
L 2906 616 
Q 2728 306 2450 153 
Q 2172 0 1784 0 
Q 1141 0 747 490 
Q 353 981 353 1791 
Q 353 2603 747 3093 
Q 1141 3584 1784 3584 
Q 2172 3584 2450 3431 
Q 2728 3278 2906 2969 
L 2906 3500 
L 3481 3500 
L 3481 434 
z
" transform="scale(0.015625)"/>
       <path id="DejaVuSans-68" d="M 3513 2113 
L 3513 0 
L 2938 0 
L 2938 2094 
Q 2938 2591 2744 2837 
Q 2550 3084 2163 3084 
Q 1697 3084 1428 2787 
Q 1159 2491 1159 1978 
L 1159 0 
L 581 0 
L 581 4863 
L 1159 4863 
L 1159 2956 
Q 1366 3272 1645 3428 
Q 1925 3584 2291 3584 
Q 2894 3584 3203 3211 
Q 3513 2838 3513 2113 
z
" transform="scale(0.015625)"/>
      </defs>
      <use xlink:href="#DejaVuSans-52"/>
      <use xlink:href="#DejaVuSans-69" x="69.482422"/>
      <use xlink:href="#DejaVuSans-67" x="97.265625"/>
      <use xlink:href="#DejaVuSans-68" x="160.742188"/>
      <use xlink:href="#DejaVuSans-74" x="224.121094"/>
      <use xlink:href="#DejaVuSans-20" x="263.330078"/>
      <use xlink:href="#DejaVuSans-46" x="295.117188"/>
      <use xlink:href="#DejaVuSans-72" x="345.386719"/>
      <use xlink:href="#DejaVuSans-6f" x="384.25"/>
      <use xlink:href="#DejaVuSans-6e" x="445.431641"/>
      <use xlink:href="#DejaVuSans-74" x="508.810547"/>
     </g>
    </g>
    <g id="line2d_32">
     <path d="M 212.064062 83.050937 
L 222.064062 83.050937 
L 232.064062 83.050937 
" style="fill: none; stroke: #d62728; stroke-width: 1.5; stroke-linecap: square"/>
    </g>
    <g id="text_19">
     <!-- Right Side -->
     <g transform="translate(240.064062 86.550937)scale(0.1 -0.1)">
      <use xlink:href="#DejaVuSans-52"/>
      <use xlink:href="#DejaVuSans-69" x="69.482422"/>
      <use xlink:href="#DejaVuSans-67" x="97.265625"/>
      <use xlink:href="#DejaVuSans-68" x="160.742188"/>
      <use xlink:href="#DejaVuSans-74" x="224.121094"/>
      <use xlink:href="#DejaVuSans-20" x="263.330078"/>
      <use xlink:href="#DejaVuSans-53" x="295.117188"/>
      <use xlink:href="#DejaVuSans-69" x="358.59375"/>
      <use xlink:href="#DejaVuSans-64" x="386.376953"/>
      <use xlink:href="#DejaVuSans-65" x="449.853516"/>
     </g>
    </g>
   </g>
  </g>
 </g>
 <defs>
  <clipPath id="pd593d96909">
   <rect x="56.928125" y="25.918125" width="393.071875" height="278.525625"/>
  </clipPath>
 </defs>
</svg>
