<?xml version="1.0" encoding="utf-8" standalone="no"?>
<!DOCTYPE svg PUBLIC "-//W3C//DTD SVG 1.1//EN"
  "http://www.w3.org/Graphics/SVG/1.1/DTD/svg11.dtd">
<svg xmlns:xlink="http://www.w3.org/1999/xlink" width="460.8pt" height="345.6pt" viewBox="0 0 460.8 345.6" xmlns="http://www.w3.org/2000/svg" version="1.1">
 <metadata>
  <rdf:RDF xmlns:dc="http://purl.org/dc/elements/1.1/" xmlns:cc="http://creativecommons.org/ns#" xmlns:rdf="http://www.w3.org/1999/02/22-rdf-syntax-ns#">
   <cc:Work>
    <dc:type rdf:resource="http://purl.org/dc/dcmitype/StillImage"/>
    <dc:date>2022-01-16T03:12:47.813072</dc:date>
    <dc:format>image/svg+xml</dc:format>
    <dc:creator>
     <cc:Agent>
      <dc:title>Matplotlib v3.5.1, https://matplotlib.org/</dc:title>
     </cc:Agent>
    </dc:creator>
   </cc:Work>
  </rdf:RDF>
 </metadata>
 <defs>
  <style type="text/css">*{stroke-linejoin: round; stroke-linecap: butt}</style>
 </defs>
 <g id="figure_1">
  <g id="patch_1">
   <path d="M 0 345.6 
L 460.8 345.6 
L 460.8 0 
L 0 0 
z
" style="fill: #ffffff"/>
  </g>
  <g id="axes_1">
   <g id="patch_2">
    <path d="M 50.565625 161.67875 
L 450 161.67875 
L 450 33.21375 
L 50.565625 33.21375 
z
" style="fill: #ffffff"/>
   </g>
   <g id="matplotlib.axis_1">
    <g id="xtick_1">
     <g id="line2d_1">
      <path d="M 68.721733 161.67875 
L 68.721733 33.21375 
" clip-path="url(#p8215dd74c4)" style="fill: none; stroke: #b0b0b0; stroke-width: 0.8; stroke-linecap: square"/>
     </g>
     <g id="line2d_2">
      <defs>
       <path id="m34f0ef9559" d="M 0 0 
L 0 3.5 
" style="stroke: #000000; stroke-width: 0.8"/>
      </defs>
      <g>
       <use xlink:href="#m34f0ef9559" x="68.721733" y="161.67875" style="stroke: #000000; stroke-width: 0.8"/>
      </g>
     </g>
    </g>
    <g id="xtick_2">
     <g id="line2d_3">
      <path d="M 113.886181 161.67875 
L 113.886181 33.21375 
" clip-path="url(#p8215dd74c4)" style="fill: none; stroke: #b0b0b0; stroke-width: 0.8; stroke-linecap: square"/>
     </g>
     <g id="line2d_4">
      <g>
       <use xlink:href="#m34f0ef9559" x="113.886181" y="161.67875" style="stroke: #000000; stroke-width: 0.8"/>
      </g>
     </g>
    </g>
    <g id="xtick_3">
     <g id="line2d_5">
      <path d="M 159.050628 161.67875 
L 159.050628 33.21375 
" clip-path="url(#p8215dd74c4)" style="fill: none; stroke: #b0b0b0; stroke-width: 0.8; stroke-linecap: square"/>
     </g>
     <g id="line2d_6">
      <g>
       <use xlink:href="#m34f0ef9559" x="159.050628" y="161.67875" style="stroke: #000000; stroke-width: 0.8"/>
      </g>
     </g>
    </g>
    <g id="xtick_4">
     <g id="line2d_7">
      <path d="M 204.215076 161.67875 
L 204.215076 33.21375 
" clip-path="url(#p8215dd74c4)" style="fill: none; stroke: #b0b0b0; stroke-width: 0.8; stroke-linecap: square"/>
     </g>
     <g id="line2d_8">
      <g>
       <use xlink:href="#m34f0ef9559" x="204.215076" y="161.67875" style="stroke: #000000; stroke-width: 0.8"/>
      </g>
     </g>
    </g>
    <g id="xtick_5">
     <g id="line2d_9">
      <path d="M 249.379524 161.67875 
L 249.379524 33.21375 
" clip-path="url(#p8215dd74c4)" style="fill: none; stroke: #b0b0b0; stroke-width: 0.8; stroke-linecap: square"/>
     </g>
     <g id="line2d_10">
      <g>
       <use xlink:href="#m34f0ef9559" x="249.379524" y="161.67875" style="stroke: #000000; stroke-width: 0.8"/>
      </g>
     </g>
    </g>
    <g id="xtick_6">
     <g id="line2d_11">
      <path d="M 294.543971 161.67875 
L 294.543971 33.21375 
" clip-path="url(#p8215dd74c4)" style="fill: none; stroke: #b0b0b0; stroke-width: 0.8; stroke-linecap: square"/>
     </g>
     <g id="line2d_12">
      <g>
       <use xlink:href="#m34f0ef9559" x="294.543971" y="161.67875" style="stroke: #000000; stroke-width: 0.8"/>
      </g>
     </g>
    </g>
    <g id="xtick_7">
     <g id="line2d_13">
      <path d="M 339.708419 161.67875 
L 339.708419 33.21375 
" clip-path="url(#p8215dd74c4)" style="fill: none; stroke: #b0b0b0; stroke-width: 0.8; stroke-linecap: square"/>
     </g>
     <g id="line2d_14">
      <g>
       <use xlink:href="#m34f0ef9559" x="339.708419" y="161.67875" style="stroke: #000000; stroke-width: 0.8"/>
      </g>
     </g>
    </g>
    <g id="xtick_8">
     <g id="line2d_15">
      <path d="M 384.872866 161.67875 
L 384.872866 33.21375 
" clip-path="url(#p8215dd74c4)" style="fill: none; stroke: #b0b0b0; stroke-width: 0.8; stroke-linecap: square"/>
     </g>
     <g id="line2d_16">
      <g>
       <use xlink:href="#m34f0ef9559" x="384.872866" y="161.67875" style="stroke: #000000; stroke-width: 0.8"/>
      </g>
     </g>
    </g>
    <g id="xtick_9">
     <g id="line2d_17">
      <path d="M 430.037314 161.67875 
L 430.037314 33.21375 
" clip-path="url(#p8215dd74c4)" style="fill: none; stroke: #b0b0b0; stroke-width: 0.8; stroke-linecap: square"/>
     </g>
     <g id="line2d_18">
      <g>
       <use xlink:href="#m34f0ef9559" x="430.037314" y="161.67875" style="stroke: #000000; stroke-width: 0.8"/>
      </g>
     </g>
    </g>
   </g>
   <g id="matplotlib.axis_2">
    <g id="ytick_1">
     <g id="line2d_19">
      <path d="M 50.565625 152.419644 
L 450 152.419644 
" clip-path="url(#p8215dd74c4)" style="fill: none; stroke: #b0b0b0; stroke-width: 0.8; stroke-linecap: square"/>
     </g>
     <g id="line2d_20">
      <defs>
       <path id="m78b501bc22" d="M 0 0 
L -3.5 0 
" style="stroke: #000000; stroke-width: 0.8"/>
      </defs>
      <g>
       <use xlink:href="#m78b501bc22" x="50.565625" y="152.419644" style="stroke: #000000; stroke-width: 0.8"/>
      </g>
     </g>
     <g id="text_1">
      <!-- 0 -->
      <g transform="translate(37.203125 156.218863)scale(0.1 -0.1)">
       <defs>
        <path id="DejaVuSans-30" d="M 2034 4250 
Q 1547 4250 1301 3770 
Q 1056 3291 1056 2328 
Q 1056 1369 1301 889 
Q 1547 409 2034 409 
Q 2525 409 2770 889 
Q 3016 1369 3016 2328 
Q 3016 3291 2770 3770 
Q 2525 4250 2034 4250 
z
M 2034 4750 
Q 2819 4750 3233 4129 
Q 3647 3509 3647 2328 
Q 3647 1150 3233 529 
Q 2819 -91 2034 -91 
Q 1250 -91 836 529 
Q 422 1150 422 2328 
Q 422 3509 836 4129 
Q 1250 4750 2034 4750 
z
" transform="scale(0.015625)"/>
       </defs>
       <use xlink:href="#DejaVuSans-30"/>
      </g>
     </g>
    </g>
    <g id="ytick_2">
     <g id="line2d_21">
      <path d="M 50.565625 121.102911 
L 450 121.102911 
" clip-path="url(#p8215dd74c4)" style="fill: none; stroke: #b0b0b0; stroke-width: 0.8; stroke-linecap: square"/>
     </g>
     <g id="line2d_22">
      <g>
       <use xlink:href="#m78b501bc22" x="50.565625" y="121.102911" style="stroke: #000000; stroke-width: 0.8"/>
      </g>
     </g>
     <g id="text_2">
      <!-- 200 -->
      <g transform="translate(24.478125 124.902129)scale(0.1 -0.1)">
       <defs>
        <path id="DejaVuSans-32" d="M 1228 531 
L 3431 531 
L 3431 0 
L 469 0 
L 469 531 
Q 828 903 1448 1529 
Q 2069 2156 2228 2338 
Q 2531 2678 2651 2914 
Q 2772 3150 2772 3378 
Q 2772 3750 2511 3984 
Q 2250 4219 1831 4219 
Q 1534 4219 1204 4116 
Q 875 4013 500 3803 
L 500 4441 
Q 881 4594 1212 4672 
Q 1544 4750 1819 4750 
Q 2544 4750 2975 4387 
Q 3406 4025 3406 3419 
Q 3406 3131 3298 2873 
Q 3191 2616 2906 2266 
Q 2828 2175 2409 1742 
Q 1991 1309 1228 531 
z
" transform="scale(0.015625)"/>
       </defs>
       <use xlink:href="#DejaVuSans-32"/>
       <use xlink:href="#DejaVuSans-30" x="63.623047"/>
       <use xlink:href="#DejaVuSans-30" x="127.246094"/>
      </g>
     </g>
    </g>
    <g id="ytick_3">
     <g id="line2d_23">
      <path d="M 50.565625 89.786177 
L 450 89.786177 
" clip-path="url(#p8215dd74c4)" style="fill: none; stroke: #b0b0b0; stroke-width: 0.8; stroke-linecap: square"/>
     </g>
     <g id="line2d_24">
      <g>
       <use xlink:href="#m78b501bc22" x="50.565625" y="89.786177" style="stroke: #000000; stroke-width: 0.8"/>
      </g>
     </g>
     <g id="text_3">
      <!-- 400 -->
      <g transform="translate(24.478125 93.585396)scale(0.1 -0.1)">
       <defs>
        <path id="DejaVuSans-34" d="M 2419 4116 
L 825 1625 
L 2419 1625 
L 2419 4116 
z
M 2253 4666 
L 3047 4666 
L 3047 1625 
L 3713 1625 
L 3713 1100 
L 3047 1100 
L 3047 0 
L 2419 0 
L 2419 1100 
L 313 1100 
L 313 1709 
L 2253 4666 
z
" transform="scale(0.015625)"/>
       </defs>
       <use xlink:href="#DejaVuSans-34"/>
       <use xlink:href="#DejaVuSans-30" x="63.623047"/>
       <use xlink:href="#DejaVuSans-30" x="127.246094"/>
      </g>
     </g>
    </g>
    <g id="ytick_4">
     <g id="line2d_25">
      <path d="M 50.565625 58.469443 
L 450 58.469443 
" clip-path="url(#p8215dd74c4)" style="fill: none; stroke: #b0b0b0; stroke-width: 0.8; stroke-linecap: square"/>
     </g>
     <g id="line2d_26">
      <g>
       <use xlink:href="#m78b501bc22" x="50.565625" y="58.469443" style="stroke: #000000; stroke-width: 0.8"/>
      </g>
     </g>
     <g id="text_4">
      <!-- 600 -->
      <g transform="translate(24.478125 62.268662)scale(0.1 -0.1)">
       <defs>
        <path id="DejaVuSans-36" d="M 2113 2584 
Q 1688 2584 1439 2293 
Q 1191 2003 1191 1497 
Q 1191 994 1439 701 
Q 1688 409 2113 409 
Q 2538 409 2786 701 
Q 3034 994 3034 1497 
Q 3034 2003 2786 2293 
Q 2538 2584 2113 2584 
z
M 3366 4563 
L 3366 3988 
Q 3128 4100 2886 4159 
Q 2644 4219 2406 4219 
Q 1781 4219 1451 3797 
Q 1122 3375 1075 2522 
Q 1259 2794 1537 2939 
Q 1816 3084 2150 3084 
Q 2853 3084 3261 2657 
Q 3669 2231 3669 1497 
Q 3669 778 3244 343 
Q 2819 -91 2113 -91 
Q 1303 -91 875 529 
Q 447 1150 447 2328 
Q 447 3434 972 4092 
Q 1497 4750 2381 4750 
Q 2619 4750 2861 4703 
Q 3103 4656 3366 4563 
z
" transform="scale(0.015625)"/>
       </defs>
       <use xlink:href="#DejaVuSans-36"/>
       <use xlink:href="#DejaVuSans-30" x="63.623047"/>
       <use xlink:href="#DejaVuSans-30" x="127.246094"/>
      </g>
     </g>
    </g>
    <g id="text_5">
     <!-- trans. vel. [mm/s] -->
     <g transform="translate(18.398438 142.011875)rotate(-90)scale(0.1 -0.1)">
      <defs>
       <path id="DejaVuSans-74" d="M 1172 4494 
L 1172 3500 
L 2356 3500 
L 2356 3053 
L 1172 3053 
L 1172 1153 
Q 1172 725 1289 603 
Q 1406 481 1766 481 
L 2356 481 
L 2356 0 
L 1766 0 
Q 1100 0 847 248 
Q 594 497 594 1153 
L 594 3053 
L 172 3053 
L 172 3500 
L 594 3500 
L 594 4494 
L 1172 4494 
z
" transform="scale(0.015625)"/>
       <path id="DejaVuSans-72" d="M 2631 2963 
Q 2534 3019 2420 3045 
Q 2306 3072 2169 3072 
Q 1681 3072 1420 2755 
Q 1159 2438 1159 1844 
L 1159 0 
L 581 0 
L 581 3500 
L 1159 3500 
L 1159 2956 
Q 1341 3275 1631 3429 
Q 1922 3584 2338 3584 
Q 2397 3584 2469 3576 
Q 2541 3569 2628 3553 
L 2631 2963 
z
" transform="scale(0.015625)"/>
       <path id="DejaVuSans-61" d="M 2194 1759 
Q 1497 1759 1228 1600 
Q 959 1441 959 1056 
Q 959 750 1161 570 
Q 1363 391 1709 391 
Q 2188 391 2477 730 
Q 2766 1069 2766 1631 
L 2766 1759 
L 2194 1759 
z
M 3341 1997 
L 3341 0 
L 2766 0 
L 2766 531 
Q 2569 213 2275 61 
Q 1981 -91 1556 -91 
Q 1019 -91 701 211 
Q 384 513 384 1019 
Q 384 1609 779 1909 
Q 1175 2209 1959 2209 
L 2766 2209 
L 2766 2266 
Q 2766 2663 2505 2880 
Q 2244 3097 1772 3097 
Q 1472 3097 1187 3025 
Q 903 2953 641 2809 
L 641 3341 
Q 956 3463 1253 3523 
Q 1550 3584 1831 3584 
Q 2591 3584 2966 3190 
Q 3341 2797 3341 1997 
z
" transform="scale(0.015625)"/>
       <path id="DejaVuSans-6e" d="M 3513 2113 
L 3513 0 
L 2938 0 
L 2938 2094 
Q 2938 2591 2744 2837 
Q 2550 3084 2163 3084 
Q 1697 3084 1428 2787 
Q 1159 2491 1159 1978 
L 1159 0 
L 581 0 
L 581 3500 
L 1159 3500 
L 1159 2956 
Q 1366 3272 1645 3428 
Q 1925 3584 2291 3584 
Q 2894 3584 3203 3211 
Q 3513 2838 3513 2113 
z
" transform="scale(0.015625)"/>
       <path id="DejaVuSans-73" d="M 2834 3397 
L 2834 2853 
Q 2591 2978 2328 3040 
Q 2066 3103 1784 3103 
Q 1356 3103 1142 2972 
Q 928 2841 928 2578 
Q 928 2378 1081 2264 
Q 1234 2150 1697 2047 
L 1894 2003 
Q 2506 1872 2764 1633 
Q 3022 1394 3022 966 
Q 3022 478 2636 193 
Q 2250 -91 1575 -91 
Q 1294 -91 989 -36 
Q 684 19 347 128 
L 347 722 
Q 666 556 975 473 
Q 1284 391 1588 391 
Q 1994 391 2212 530 
Q 2431 669 2431 922 
Q 2431 1156 2273 1281 
Q 2116 1406 1581 1522 
L 1381 1569 
Q 847 1681 609 1914 
Q 372 2147 372 2553 
Q 372 3047 722 3315 
Q 1072 3584 1716 3584 
Q 2034 3584 2315 3537 
Q 2597 3491 2834 3397 
z
" transform="scale(0.015625)"/>
       <path id="DejaVuSans-2e" d="M 684 794 
L 1344 794 
L 1344 0 
L 684 0 
L 684 794 
z
" transform="scale(0.015625)"/>
       <path id="DejaVuSans-20" transform="scale(0.015625)"/>
       <path id="DejaVuSans-76" d="M 191 3500 
L 800 3500 
L 1894 563 
L 2988 3500 
L 3597 3500 
L 2284 0 
L 1503 0 
L 191 3500 
z
" transform="scale(0.015625)"/>
       <path id="DejaVuSans-65" d="M 3597 1894 
L 3597 1613 
L 953 1613 
Q 991 1019 1311 708 
Q 1631 397 2203 397 
Q 2534 397 2845 478 
Q 3156 559 3463 722 
L 3463 178 
Q 3153 47 2828 -22 
Q 2503 -91 2169 -91 
Q 1331 -91 842 396 
Q 353 884 353 1716 
Q 353 2575 817 3079 
Q 1281 3584 2069 3584 
Q 2775 3584 3186 3129 
Q 3597 2675 3597 1894 
z
M 3022 2063 
Q 3016 2534 2758 2815 
Q 2500 3097 2075 3097 
Q 1594 3097 1305 2825 
Q 1016 2553 972 2059 
L 3022 2063 
z
" transform="scale(0.015625)"/>
       <path id="DejaVuSans-6c" d="M 603 4863 
L 1178 4863 
L 1178 0 
L 603 0 
L 603 4863 
z
" transform="scale(0.015625)"/>
       <path id="DejaVuSans-5b" d="M 550 4863 
L 1875 4863 
L 1875 4416 
L 1125 4416 
L 1125 -397 
L 1875 -397 
L 1875 -844 
L 550 -844 
L 550 4863 
z
" transform="scale(0.015625)"/>
       <path id="DejaVuSans-6d" d="M 3328 2828 
Q 3544 3216 3844 3400 
Q 4144 3584 4550 3584 
Q 5097 3584 5394 3201 
Q 5691 2819 5691 2113 
L 5691 0 
L 5113 0 
L 5113 2094 
Q 5113 2597 4934 2840 
Q 4756 3084 4391 3084 
Q 3944 3084 3684 2787 
Q 3425 2491 3425 1978 
L 3425 0 
L 2847 0 
L 2847 2094 
Q 2847 2600 2669 2842 
Q 2491 3084 2119 3084 
Q 1678 3084 1418 2786 
Q 1159 2488 1159 1978 
L 1159 0 
L 581 0 
L 581 3500 
L 1159 3500 
L 1159 2956 
Q 1356 3278 1631 3431 
Q 1906 3584 2284 3584 
Q 2666 3584 2933 3390 
Q 3200 3197 3328 2828 
z
" transform="scale(0.015625)"/>
       <path id="DejaVuSans-2f" d="M 1625 4666 
L 2156 4666 
L 531 -594 
L 0 -594 
L 1625 4666 
z
" transform="scale(0.015625)"/>
       <path id="DejaVuSans-5d" d="M 1947 4863 
L 1947 -844 
L 622 -844 
L 622 -397 
L 1369 -397 
L 1369 4416 
L 622 4416 
L 622 4863 
L 1947 4863 
z
" transform="scale(0.015625)"/>
      </defs>
      <use xlink:href="#DejaVuSans-74"/>
      <use xlink:href="#DejaVuSans-72" x="39.208984"/>
      <use xlink:href="#DejaVuSans-61" x="80.322266"/>
      <use xlink:href="#DejaVuSans-6e" x="141.601562"/>
      <use xlink:href="#DejaVuSans-73" x="204.980469"/>
      <use xlink:href="#DejaVuSans-2e" x="257.080078"/>
      <use xlink:href="#DejaVuSans-20" x="288.867188"/>
      <use xlink:href="#DejaVuSans-76" x="320.654297"/>
      <use xlink:href="#DejaVuSans-65" x="379.833984"/>
      <use xlink:href="#DejaVuSans-6c" x="441.357422"/>
      <use xlink:href="#DejaVuSans-2e" x="469.140625"/>
      <use xlink:href="#DejaVuSans-20" x="500.927734"/>
      <use xlink:href="#DejaVuSans-5b" x="532.714844"/>
      <use xlink:href="#DejaVuSans-6d" x="571.728516"/>
      <use xlink:href="#DejaVuSans-6d" x="669.140625"/>
      <use xlink:href="#DejaVuSans-2f" x="766.552734"/>
      <use xlink:href="#DejaVuSans-73" x="800.244141"/>
      <use xlink:href="#DejaVuSans-5d" x="852.34375"/>
     </g>
    </g>
   </g>
   <g id="line2d_27">
    <path d="M 68.721733 152.419644 
L 69.625022 152.344484 
L 70.979955 151.949893 
L 72.334889 151.217082 
L 73.689822 150.14605 
L 75.044756 148.736797 
L 76.399689 146.989323 
L 77.754622 144.903628 
L 79.109556 142.479713 
L 80.916134 138.721705 
L 82.722712 134.365547 
L 84.52929 129.401845 
L 87.239156 121.071594 
L 100.788491 79.138487 
L 102.595069 74.456636 
L 104.401647 70.369802 
L 106.208225 66.893645 
L 107.563158 64.670156 
L 108.918091 62.791152 
L 110.273025 61.256632 
L 111.627958 60.050938 
L 112.982892 59.189728 
L 113.886181 58.798269 
L 114.78947 58.563393 
L 116.144403 58.469443 
L 340.611708 58.547735 
L 341.966641 58.939194 
L 342.86993 59.393287 
L 344.224864 60.348447 
L 345.579797 61.648092 
L 346.93473 63.276562 
L 348.289664 65.249516 
L 349.644597 67.566954 
L 351.451175 71.168379 
L 353.257753 75.380479 
L 355.064331 80.187598 
L 357.322553 86.998988 
L 371.775177 131.7506 
L 373.581755 136.432452 
L 375.388332 140.514588 
L 377.19491 143.997009 
L 378.549844 146.214234 
L 379.904777 148.094804 
L 381.259711 149.635587 
L 382.614644 150.838149 
L 383.969578 151.703901 
L 385.324511 152.230648 
L 386.679444 152.419087 
L 431.843892 152.419644 
L 431.843892 152.419644 
" clip-path="url(#p8215dd74c4)" style="fill: none; stroke: #1f77b4; stroke-width: 1.5; stroke-linecap: square"/>
   </g>
   <g id="line2d_28">
    <path d="M 68.721733 152.419644 
L 73.689822 152.419644 
L 74.141467 152.229708 
L 74.593111 152.229708 
L 75.044756 152.039773 
L 75.4964 152.039929 
L 75.948045 151.660057 
L 76.399689 151.470121 
L 76.851334 151.090406 
L 77.302978 151.090249 
L 77.754622 149.95032 
L 78.206267 150.330818 
L 78.657911 148.620925 
L 79.109556 149.001423 
L 79.5612 147.291529 
L 80.012845 147.482561 
L 80.464489 144.823771 
L 80.916134 145.583202 
L 81.367778 141.784482 
L 81.819423 142.924411 
L 82.271067 137.227897 
L 82.722712 138.936225 
L 83.174356 131.719283 
L 83.626001 134.381206 
L 84.077645 124.876577 
L 84.52929 128.68156 
L 84.980934 116.906468 
L 85.432579 122.981915 
L 85.884223 110.455221 
L 86.335868 118.049529 
L 86.787512 103.800415 
L 87.239156 113.492944 
L 87.690801 99.619631 
L 88.142445 107.793299 
L 88.59409 93.544185 
L 89.045734 106.462338 
L 89.497379 92.416783 
L 89.949023 94.875146 
L 90.400668 103.424614 
L 90.852312 86.529237 
L 91.303957 101.717852 
L 91.755601 84.243115 
L 92.207246 100.01109 
L 92.65889 81.017491 
L 93.110535 98.304329 
L 93.562179 79.874431 
L 94.013824 96.581908 
L 94.465468 78.355569 
L 94.917113 97.161268 
L 95.368757 79.310729 
L 95.820402 96.769809 
L 96.272046 78.73137 
L 96.72369 95.063047 
L 97.175335 77.979768 
L 98.078624 87.656639 
L 98.530268 69.2424 
L 98.981913 86.717137 
L 99.433557 64.685815 
L 99.885202 84.431015 
L 100.336846 62.211793 
L 100.788491 84.243115 
L 101.240135 64.106455 
L 101.69178 86.905037 
L 102.143424 67.723538 
L 102.595069 90.130661 
L 103.046713 71.716422 
L 103.498358 92.792583 
L 103.950002 75.317846 
L 104.401647 94.687246 
L 104.853291 76.836707 
L 105.304936 94.875146 
L 105.75658 76.648807 
L 106.208225 94.687246 
L 106.659869 75.317846 
L 107.111513 92.213224 
L 107.563158 76.273006 
L 108.014802 78.73137 
L 108.466447 79.874431 
L 108.918091 90.694362 
L 109.369736 68.287239 
L 109.82138 87.468739 
L 110.273025 64.685815 
L 110.724669 84.806816 
L 111.176314 63.166953 
L 111.627958 84.431015 
L 112.079603 63.166953 
L 112.531247 84.431015 
L 112.982892 62.791152 
L 113.434536 84.431015 
L 113.886181 61.835992 
L 114.337825 84.806816 
L 114.78947 61.648092 
L 115.241114 83.287955 
L 115.692759 60.505031 
L 116.144403 82.348453 
L 116.596047 61.648092 
L 117.047692 78.91927 
L 117.499336 62.023892 
L 117.950981 66.768378 
L 118.402625 82.348453 
L 118.85427 58.798269 
L 119.305914 80.641691 
L 119.757559 57.467308 
L 120.209203 80.062331 
L 120.660848 56.136346 
L 121.112492 78.543469 
L 121.564137 54.241684 
L 122.015781 76.648807 
L 122.467426 52.910723 
L 122.91907 75.881547 
L 123.370715 51.01606 
L 123.822359 74.942045 
L 124.274004 50.0609 
L 124.725648 74.550586 
L 125.177293 48.729939 
L 125.628937 73.798984 
L 126.080581 52.910723 
L 126.98387 68.866599 
L 127.435515 48.354138 
L 127.887159 60.505031 
L 128.338804 59.753429 
L 128.790448 60.505031 
L 129.242093 59.17407 
L 129.693737 71.716422 
L 130.145382 45.504315 
L 130.597026 70.949162 
L 131.048671 44.940614 
L 131.500315 58.610368 
L 131.95196 57.279407 
L 132.403604 58.234568 
L 132.855249 57.467308 
L 133.306893 70.949162 
L 133.758538 44.737055 
L 134.210182 70.761261 
L 134.661827 44.549155 
L 135.113471 60.31713 
L 135.565115 55.572645 
L 136.01676 58.422468 
L 136.468404 59.36197 
L 136.920049 72.468023 
L 137.371693 47.978337 
L 137.823338 73.798984 
L 138.274982 49.685099 
L 138.726627 74.174785 
L 139.178271 50.0609 
L 139.629916 74.942045 
L 140.08156 50.248801 
L 140.533205 74.942045 
L 140.984849 50.436701 
L 141.436494 75.317846 
L 141.888138 50.436701 
L 142.339783 74.362686 
L 142.791427 48.354138 
L 143.243072 72.280123 
L 143.694716 52.910723 
L 144.598005 66.956278 
L 145.049649 46.647376 
L 145.501294 70.761261 
L 145.952938 43.421753 
L 146.404583 69.054499 
L 146.856227 41.511432 
L 147.307872 67.723538 
L 147.759516 39.99257 
L 148.211161 66.956278 
L 148.662805 40.180471 
L 149.11445 68.099339 
L 149.566094 40.57193 
L 150.017739 67.723538 
L 150.469383 41.135631 
L 150.921028 67.347737 
L 151.372672 45.504315 
L 152.275961 64.310014 
L 152.727606 42.466592 
L 153.17925 68.099339 
L 153.630895 40.947731 
L 154.082539 67.535638 
L 154.534183 40.180471 
L 154.985828 67.723538 
L 155.437472 39.99257 
L 155.889117 54.429584 
L 156.340761 52.910723 
L 156.792406 53.662324 
L 157.24405 53.474424 
L 157.695695 54.617485 
L 158.598984 52.910723 
L 159.050628 53.474424 
L 159.502273 67.535638 
L 159.953917 39.80467 
L 160.405562 51.203961 
L 160.857206 70.38546 
L 161.308851 39.616769 
L 161.760495 67.911438 
L 162.21214 40.57193 
L 162.663784 67.347737 
L 163.115429 40.180471 
L 163.567073 68.287239 
L 164.018717 39.80467 
L 164.470362 68.099339 
L 164.922006 41.699332 
L 165.373651 69.2424 
L 165.825295 42.842393 
L 166.27694 69.6182 
L 166.728584 44.549155 
L 167.180229 70.949162 
L 167.631873 49.10574 
L 168.083518 69.054499 
L 168.535162 51.579762 
L 169.438451 64.106455 
L 169.890096 57.467308 
L 170.34174 73.798984 
L 170.793385 48.542039 
L 171.245029 73.423184 
L 171.696674 48.542039 
L 172.148318 73.986885 
L 172.599963 47.978337 
L 173.051607 72.280123 
L 173.503251 46.459476 
L 173.954896 72.092222 
L 174.40654 46.459476 
L 174.858185 72.092222 
L 175.309829 46.459476 
L 175.761474 70.761261 
L 176.213118 47.586878 
L 176.664763 72.092222 
L 177.116407 47.978337 
L 177.568052 71.324962 
L 178.019696 46.068017 
L 178.471341 71.512863 
L 178.922985 45.692216 
L 179.37463 71.512863 
L 179.826274 45.316415 
L 180.277919 70.761261 
L 180.729563 44.361255 
L 181.181208 70.38546 
L 181.632852 43.797553 
L 182.084497 69.806101 
L 182.536141 42.842393 
L 182.987786 67.723538 
L 183.43943 47.211077 
L 184.342719 63.730654 
L 184.794363 42.842393 
L 185.246008 67.535638 
L 185.697652 40.947731 
L 186.149297 67.159837 
L 186.600941 39.80467 
L 187.052586 67.535638 
L 187.50423 39.80467 
L 187.955875 66.580477 
L 188.407519 39.053068 
L 188.859164 67.347737 
L 189.310808 39.428869 
L 189.762453 66.768378 
L 190.214097 39.053068 
L 190.665742 58.031009 
L 191.117386 53.286524 
L 191.569031 62.587594 
L 192.020675 42.466592 
L 192.47232 67.723538 
L 192.923964 41.511432 
L 193.375608 68.678698 
L 193.827253 43.406094 
L 194.278897 69.6182 
L 194.730542 43.985454 
L 195.182186 70.19756 
L 195.633831 44.940614 
L 196.085475 70.949162 
L 196.53712 46.255917 
L 196.988764 72.655924 
L 197.440409 46.835277 
L 197.892053 72.468023 
L 198.343698 53.286524 
L 198.795342 60.692931 
L 199.698631 68.287239 
L 200.150276 47.978337 
L 200.60192 73.611084 
L 201.053565 48.166238 
L 201.505209 73.235283 
L 201.956854 47.398978 
L 202.408498 72.468023 
L 202.860142 47.211077 
L 203.311787 71.904322 
L 203.763431 45.128515 
L 204.215076 72.655924 
L 204.66672 45.316415 
L 205.118365 70.949162 
L 205.570009 48.354138 
L 206.021654 68.099339 
L 206.473298 49.497199 
L 206.924943 61.068732 
L 207.376587 67.535638 
L 207.828232 47.211077 
L 208.279876 72.468023 
L 208.731521 46.835277 
L 209.183165 72.092222 
L 209.63481 45.504315 
L 210.086454 70.761261 
L 210.538099 44.361255 
L 210.989743 70.949162 
L 211.441388 44.940614 
L 211.893032 70.573361 
L 212.344676 44.549155 
L 212.796321 69.054499 
L 213.247965 48.354138 
L 214.151254 65.625317 
L 214.602899 44.361255 
L 215.054543 69.6182 
L 215.506188 42.278692 
L 215.957832 70.949162 
L 216.409477 43.030293 
L 216.861121 69.2424 
L 217.312766 43.406094 
L 217.76441 70.19756 
L 218.216055 43.985454 
L 218.667699 70.19756 
L 219.119344 43.609653 
L 219.570988 70.573361 
L 220.022633 43.609653 
L 220.474277 60.880832 
L 220.925922 54.993286 
L 221.377566 56.903606 
L 221.82921 70.19756 
L 222.280855 45.128515 
L 222.732499 71.904322 
L 223.184144 46.255917 
L 223.635788 72.092222 
L 224.087433 47.398978 
L 224.539077 72.468023 
L 224.990722 47.774779 
L 225.442366 73.423184 
L 225.894011 49.309298 
L 226.345655 74.174785 
L 226.7973 50.436701 
L 227.248944 73.798984 
L 227.700589 54.805385 
L 228.603878 72.468023 
L 229.507167 52.143463 
L 229.958811 75.881547 
L 230.410456 51.391861 
L 230.8621 75.505746 
L 231.313744 50.82816 
L 231.765389 75.505746 
L 232.217033 50.248801 
L 232.668678 74.550586 
L 233.120322 49.497199 
L 233.571967 74.362686 
L 234.023611 48.729939 
L 234.475256 72.468023 
L 234.9269 49.29364 
L 235.378545 73.235283 
L 235.830189 50.624601 
L 236.281834 63.542754 
L 236.733478 56.324247 
L 237.185123 72.655924 
L 237.636767 46.835277 
L 238.088412 72.468023 
L 238.540056 47.023177 
L 238.991701 72.468023 
L 239.443345 46.647376 
L 239.89499 71.904322 
L 240.346634 46.068017 
L 240.798278 71.324962 
L 241.249923 43.797553 
L 241.701567 70.949162 
L 242.153212 45.128515 
L 242.604856 68.866599 
L 243.056501 58.422468 
L 243.508145 43.030293 
L 243.95979 69.6182 
L 244.411434 43.406094 
L 244.863079 69.2424 
L 245.314723 43.030293 
L 245.766368 68.678698 
L 246.218012 42.090791 
L 246.669657 68.678698 
L 247.121301 42.090791 
L 247.572946 67.723538 
L 248.02459 45.128515 
L 248.476235 52.331363 
L 248.927879 54.053784 
L 249.379524 54.617485 
L 249.831168 68.66304 
L 250.282813 41.323531 
L 250.734457 54.993286 
L 251.186101 54.805385 
L 251.637746 54.429584 
L 252.08939 55.760546 
L 252.541035 68.866599 
L 252.992679 42.278692 
L 253.444324 69.4303 
L 253.895968 42.842393 
L 254.347613 61.648092 
L 254.799257 64.106455 
L 255.250902 45.128515 
L 255.702546 70.761261 
L 256.605835 46.647376 
L 257.05748 72.655924 
L 257.509124 48.354138 
L 257.960769 73.235283 
L 258.412413 48.354138 
L 258.864058 74.362686 
L 259.315702 49.873 
L 259.767347 74.566244 
L 260.218991 48.917839 
L 260.670635 72.280123 
L 261.12228 52.534922 
L 262.025569 69.4303 
L 262.477213 49.29364 
L 262.928858 73.611084 
L 263.380502 47.211077 
L 263.832147 72.655924 
L 264.283791 47.211077 
L 264.735436 72.655924 
L 265.18708 47.023177 
L 265.638725 72.843824 
L 266.090369 48.166238 
L 266.542014 72.655924 
L 266.993658 50.436701 
L 267.445303 69.806101 
L 267.896947 49.685099 
L 268.348592 57.279407 
L 268.800236 62.211793 
L 269.251881 55.948446 
L 269.703525 72.092222 
L 270.155169 46.443817 
L 270.606814 72.092222 
L 271.058458 45.692216 
L 271.510103 71.324962 
L 271.961747 45.692216 
L 272.413392 70.761261 
L 272.865036 46.255917 
L 273.316681 66.204676 
L 273.768325 47.211077 
L 274.21997 53.286524 
L 274.671614 69.054499 
L 275.123259 41.887233 
L 275.574903 69.2424 
L 276.026548 42.090791 
L 276.478192 68.678698 
L 276.929837 42.278692 
L 277.381481 67.911438 
L 277.833126 41.135631 
L 278.28477 67.723538 
L 278.736415 39.616769 
L 279.188059 67.723538 
L 279.639703 43.609653 
L 280.542992 64.122114 
L 280.994637 42.278692 
L 281.446281 55.760546 
L 281.897926 55.572645 
L 282.34957 69.4303 
L 282.801215 42.654493 
L 283.252859 69.4303 
L 283.704504 43.218194 
L 284.156148 69.994001 
L 284.607793 44.173354 
L 285.059437 69.2424 
L 285.511082 50.248801 
L 286.414371 69.2424 
L 286.866015 48.917839 
L 287.31766 73.611084 
L 287.769304 48.542039 
L 288.220949 75.881547 
L 288.672593 50.436701 
L 289.124237 74.942045 
L 289.575882 49.29364 
L 290.027526 73.986885 
L 290.479171 48.729939 
L 290.930815 73.611084 
L 291.38246 53.098623 
L 291.834104 62.603252 
L 292.285749 59.94133 
L 292.737393 73.235283 
L 293.189038 48.917839 
L 293.640682 73.798984 
L 294.092327 47.398978 
L 294.543971 73.235283 
L 294.995616 46.459476 
L 295.44726 71.324962 
L 295.898905 46.068017 
L 296.350549 71.324962 
L 296.802194 48.917839 
L 297.253838 61.460191 
L 297.705483 67.911438 
L 298.157127 50.0609 
L 298.608771 68.287239 
L 299.060416 47.398978 
L 299.51206 71.716422 
L 299.963705 45.128515 
L 300.415349 70.761261 
L 300.866994 44.549155 
L 301.318638 69.6182 
L 301.770283 42.654493 
L 302.221927 67.911438 
L 302.673572 47.962679 
L 303.125216 56.136346 
L 303.576861 52.910723 
L 304.028505 55.948446 
L 304.48015 69.4303 
L 304.931794 43.218194 
L 305.383439 70.19756 
L 305.835083 42.654493 
L 306.286728 70.573361 
L 306.738372 43.233852 
L 307.190017 69.6182 
L 307.641661 42.842393 
L 308.093305 61.835992 
L 308.54495 62.979053 
L 308.996594 45.504315 
L 309.448239 64.497914 
L 309.899883 43.218194 
L 310.351528 56.903606 
L 310.803172 59.753429 
L 311.254817 53.286524 
L 311.706461 69.2424 
L 312.158106 43.797553 
L 312.60975 70.573361 
L 313.061395 45.128515 
L 313.513039 71.324962 
L 313.964684 45.880116 
L 314.867973 71.137062 
L 315.319617 50.0609 
L 315.771262 72.843824 
L 316.222906 48.354138 
L 316.674551 74.550586 
L 317.126195 50.248801 
L 317.577839 75.505746 
L 318.029484 51.391861 
L 318.481128 75.129946 
L 318.932773 51.391861 
L 319.384417 74.362686 
L 319.836062 55.572645 
L 320.739351 71.904322 
L 321.190995 51.955563 
L 321.64264 75.505746 
L 322.094284 51.000402 
L 322.545929 75.881547 
L 322.997573 51.01606 
L 323.449218 75.129946 
L 323.900862 48.917839 
L 324.352507 62.791152 
L 324.804151 72.843824 
L 325.255796 52.910723 
L 325.70744 58.218909 
L 326.610729 64.310014 
L 327.062374 57.655208 
L 327.514018 73.798984 
L 327.965662 47.978337 
L 328.417307 73.235283 
L 328.868951 46.271575 
L 329.320596 71.512863 
L 329.77224 44.737055 
L 330.223885 68.866599 
L 330.675529 48.354138 
L 331.578818 64.122114 
L 332.030463 44.361255 
L 332.482107 69.054499 
L 332.933752 40.947731 
L 333.385396 58.986169 
L 333.837041 50.82816 
L 334.288685 67.911438 
L 334.74033 41.323531 
L 335.191974 66.956278 
L 335.643619 45.128515 
L 336.546908 63.542754 
L 336.998552 41.714991 
L 337.450196 55.181186 
L 337.901841 54.038125 
L 338.353485 67.535638 
L 338.80513 41.323531 
L 339.256774 54.805385 
L 339.708419 55.181186 
L 340.160063 69.4303 
L 340.611708 41.699332 
L 341.063352 69.2424 
L 341.514997 46.068017 
L 341.966641 65.625317 
L 342.418286 47.586878 
L 342.86993 53.286524 
L 343.321575 70.181902 
L 343.773219 44.361255 
L 344.224864 72.843824 
L 344.676508 47.023177 
L 345.128153 73.235283 
L 345.579797 48.166238 
L 346.031442 73.423184 
L 346.483086 62.399693 
L 346.93473 54.993286 
L 347.386375 77.603967 
L 347.838019 69.2424 
L 348.289664 57.655208 
L 348.741308 81.581193 
L 349.192953 61.068732 
L 349.644597 84.994717 
L 350.096242 65.249516 
L 350.547886 86.717137 
L 350.999531 64.873715 
L 351.451175 86.529237 
L 351.90282 68.866599 
L 352.354464 76.648807 
L 352.806109 73.798984 
L 353.257753 86.905037 
L 353.709398 66.956278 
L 354.161042 87.844539 
L 354.612687 68.287239 
L 355.064331 89.56696 
L 355.515976 71.137062 
L 355.96762 92.025323 
L 356.419264 77.791868 
L 356.870909 86.717137 
L 357.322553 85.010375 
L 357.774198 91.085821 
L 358.677487 93.544185 
L 359.129131 95.830307 
L 359.580776 97.161268 
L 360.484065 102.860913 
L 360.935709 111.770524 
L 361.387354 102.469454 
L 361.838998 116.718568 
L 362.290643 109.12426 
L 362.742287 114.244546 
L 363.193932 121.275153 
L 363.645576 113.305044 
L 364.097221 123.561274 
L 364.548865 116.342767 
L 365.00051 126.598997 
L 365.452154 120.507893 
L 365.903798 129.636721 
L 366.355443 124.688677 
L 366.807087 127.929959 
L 367.258732 127.538499 
L 367.710376 127.929959 
L 368.162021 126.974798 
L 368.613665 129.433162 
L 369.06531 120.899352 
L 369.516954 129.057361 
L 369.968599 120.899352 
L 370.420243 129.44882 
L 370.871888 123.749175 
L 371.323532 131.907184 
L 371.775177 129.245261 
L 372.226821 132.862344 
L 372.678466 133.613946 
L 373.13011 135.336366 
L 373.581755 138.367826 
L 374.033399 134.944907 
L 374.485044 139.507755 
L 374.936688 136.844267 
L 375.388332 141.407115 
L 375.839977 138.745193 
L 376.291621 141.596581 
L 376.743266 140.074588 
L 377.19491 140.26562 
L 377.646555 140.26562 
L 378.098199 142.356012 
L 378.549844 139.885122 
L 379.001488 142.924411 
L 379.453133 140.456652 
L 379.904777 143.682276 
L 380.356422 141.028183 
L 380.808066 143.873308 
L 381.259711 141.214517 
L 381.711355 143.683842 
L 382.163 140.453521 
L 382.614644 142.356012 
L 383.066289 139.697221 
L 383.517933 142.35288 
L 383.969578 138.934659 
L 384.421222 141.978645 
L 384.872866 138.554161 
L 385.324511 142.16498 
L 385.776155 138.936225 
L 386.2278 141.405549 
L 386.679444 138.934659 
L 387.131089 141.787613 
L 387.582733 138.936225 
L 388.034378 141.973948 
L 388.486022 139.125691 
L 388.937667 142.16498 
L 389.389311 139.506189 
L 389.840956 142.356012 
L 390.2926 139.125691 
L 390.744245 142.924411 
L 391.195889 140.453521 
L 392.099178 141.973948 
L 392.550823 142.356012 
L 393.002467 142.16498 
L 393.454112 144.253806 
L 393.905756 141.405549 
L 394.3574 144.444838 
L 394.809045 142.356012 
L 395.260689 145.010105 
L 395.712334 142.924411 
L 396.163978 145.204269 
L 396.615623 143.873308 
L 397.518912 145.395301 
L 397.970556 145.392169 
L 398.422201 146.532099 
L 398.873845 145.772668 
L 399.32549 146.912597 
L 399.777134 146.154732 
L 400.228779 147.480996 
L 400.680423 146.912597 
L 401.132068 148.429893 
L 401.583712 147.675159 
L 402.035357 148.240426 
L 402.487001 149.192455 
L 402.938646 148.431458 
L 403.39029 149.760854 
L 403.841935 149.380355 
L 404.293579 150.330818 
L 404.745223 150.329253 
L 405.196868 150.9 
L 405.648512 150.52185 
L 406.100157 151.280029 
L 406.551801 151.468712 
L 407.003446 152.039773 
L 407.45509 151.850933 
L 407.906735 152.608328 
L 408.358379 152.422034 
L 408.810024 152.988356 
L 409.261668 152.988356 
L 409.713313 153.370577 
L 410.164957 153.179388 
L 411.068246 153.936784 
L 411.519891 154.131104 
L 411.971535 154.508471 
L 412.42318 154.131104 
L 412.874824 154.887403 
L 413.326469 154.127972 
L 413.778113 155.078435 
L 414.229757 154.699503 
L 414.681402 155.078435 
L 415.133046 154.508471 
L 415.584691 155.455802 
L 416.036335 155.458934 
L 416.48798 154.510036 
L 416.939624 155.455802 
L 417.391269 155.078435 
L 417.842913 155.458934 
L 418.294558 154.887403 
L 418.746202 155.458934 
L 419.197847 155.076869 
L 419.649491 155.839432 
L 420.101136 154.887403 
L 420.55278 155.649966 
L 421.004425 154.887403 
L 421.456069 155.646834 
L 421.907714 155.078435 
L 422.359358 155.078435 
L 422.811003 155.645268 
L 423.262647 155.269467 
L 423.714291 155.076869 
L 425.069225 155.076869 
L 425.520869 154.887403 
L 425.972514 154.510036 
L 426.424158 155.076869 
L 426.875803 155.078435 
L 427.327447 154.319004 
L 427.779092 154.319004 
L 428.230736 154.887403 
L 428.682381 153.939289 
L 429.134025 154.890535 
L 429.58567 153.7481 
L 430.037314 154.317439 
L 430.488959 153.939289 
L 431.392248 153.939289 
L 431.843892 153.370577 
L 431.843892 153.370577 
" clip-path="url(#p8215dd74c4)" style="fill: none; stroke: #ff7f0e; stroke-width: 1.5; stroke-linecap: square"/>
   </g>
   <g id="patch_3">
    <path d="M 50.565625 161.67875 
L 50.565625 33.21375 
" style="fill: none; stroke: #000000; stroke-width: 0.8; stroke-linejoin: miter; stroke-linecap: square"/>
   </g>
   <g id="patch_4">
    <path d="M 450 161.67875 
L 450 33.21375 
" style="fill: none; stroke: #000000; stroke-width: 0.8; stroke-linejoin: miter; stroke-linecap: square"/>
   </g>
   <g id="patch_5">
    <path d="M 50.565625 161.67875 
L 450 161.67875 
" style="fill: none; stroke: #000000; stroke-width: 0.8; stroke-linejoin: miter; stroke-linecap: square"/>
   </g>
   <g id="patch_6">
    <path d="M 50.565625 33.21375 
L 450 33.21375 
" style="fill: none; stroke: #000000; stroke-width: 0.8; stroke-linejoin: miter; stroke-linecap: square"/>
   </g>
   <g id="legend_1">
    <g id="patch_7">
     <path d="M 360.482812 70.57 
L 443 70.57 
Q 445 70.57 445 68.57 
L 445 40.21375 
Q 445 38.21375 443 38.21375 
L 360.482812 38.21375 
Q 358.482812 38.21375 358.482812 40.21375 
L 358.482812 68.57 
Q 358.482812 70.57 360.482812 70.57 
z
" style="fill: #ffffff; opacity: 0.8; stroke: #cccccc; stroke-linejoin: miter"/>
    </g>
    <g id="line2d_29">
     <path d="M 362.482812 46.312187 
L 372.482812 46.312187 
L 382.482812 46.312187 
" style="fill: none; stroke: #1f77b4; stroke-width: 1.5; stroke-linecap: square"/>
    </g>
    <g id="text_6">
     <!-- Reference -->
     <g transform="translate(390.482812 49.812187)scale(0.1 -0.1)">
      <defs>
       <path id="DejaVuSans-52" d="M 2841 2188 
Q 3044 2119 3236 1894 
Q 3428 1669 3622 1275 
L 4263 0 
L 3584 0 
L 2988 1197 
Q 2756 1666 2539 1819 
Q 2322 1972 1947 1972 
L 1259 1972 
L 1259 0 
L 628 0 
L 628 4666 
L 2053 4666 
Q 2853 4666 3247 4331 
Q 3641 3997 3641 3322 
Q 3641 2881 3436 2590 
Q 3231 2300 2841 2188 
z
M 1259 4147 
L 1259 2491 
L 2053 2491 
Q 2509 2491 2742 2702 
Q 2975 2913 2975 3322 
Q 2975 3731 2742 3939 
Q 2509 4147 2053 4147 
L 1259 4147 
z
" transform="scale(0.015625)"/>
       <path id="DejaVuSans-66" d="M 2375 4863 
L 2375 4384 
L 1825 4384 
Q 1516 4384 1395 4259 
Q 1275 4134 1275 3809 
L 1275 3500 
L 2222 3500 
L 2222 3053 
L 1275 3053 
L 1275 0 
L 697 0 
L 697 3053 
L 147 3053 
L 147 3500 
L 697 3500 
L 697 3744 
Q 697 4328 969 4595 
Q 1241 4863 1831 4863 
L 2375 4863 
z
" transform="scale(0.015625)"/>
       <path id="DejaVuSans-63" d="M 3122 3366 
L 3122 2828 
Q 2878 2963 2633 3030 
Q 2388 3097 2138 3097 
Q 1578 3097 1268 2742 
Q 959 2388 959 1747 
Q 959 1106 1268 751 
Q 1578 397 2138 397 
Q 2388 397 2633 464 
Q 2878 531 3122 666 
L 3122 134 
Q 2881 22 2623 -34 
Q 2366 -91 2075 -91 
Q 1284 -91 818 406 
Q 353 903 353 1747 
Q 353 2603 823 3093 
Q 1294 3584 2113 3584 
Q 2378 3584 2631 3529 
Q 2884 3475 3122 3366 
z
" transform="scale(0.015625)"/>
      </defs>
      <use xlink:href="#DejaVuSans-52"/>
      <use xlink:href="#DejaVuSans-65" x="64.982422"/>
      <use xlink:href="#DejaVuSans-66" x="126.505859"/>
      <use xlink:href="#DejaVuSans-65" x="161.710938"/>
      <use xlink:href="#DejaVuSans-72" x="223.234375"/>
      <use xlink:href="#DejaVuSans-65" x="262.097656"/>
      <use xlink:href="#DejaVuSans-6e" x="323.621094"/>
      <use xlink:href="#DejaVuSans-63" x="387"/>
      <use xlink:href="#DejaVuSans-65" x="441.980469"/>
     </g>
    </g>
    <g id="line2d_30">
     <path d="M 362.482812 60.990312 
L 372.482812 60.990312 
L 382.482812 60.990312 
" style="fill: none; stroke: #ff7f0e; stroke-width: 1.5; stroke-linecap: square"/>
    </g>
    <g id="text_7">
     <!-- Estimated -->
     <g transform="translate(390.482812 64.490312)scale(0.1 -0.1)">
      <defs>
       <path id="DejaVuSans-45" d="M 628 4666 
L 3578 4666 
L 3578 4134 
L 1259 4134 
L 1259 2753 
L 3481 2753 
L 3481 2222 
L 1259 2222 
L 1259 531 
L 3634 531 
L 3634 0 
L 628 0 
L 628 4666 
z
" transform="scale(0.015625)"/>
       <path id="DejaVuSans-69" d="M 603 3500 
L 1178 3500 
L 1178 0 
L 603 0 
L 603 3500 
z
M 603 4863 
L 1178 4863 
L 1178 4134 
L 603 4134 
L 603 4863 
z
" transform="scale(0.015625)"/>
       <path id="DejaVuSans-64" d="M 2906 2969 
L 2906 4863 
L 3481 4863 
L 3481 0 
L 2906 0 
L 2906 525 
Q 2725 213 2448 61 
Q 2172 -91 1784 -91 
Q 1150 -91 751 415 
Q 353 922 353 1747 
Q 353 2572 751 3078 
Q 1150 3584 1784 3584 
Q 2172 3584 2448 3432 
Q 2725 3281 2906 2969 
z
M 947 1747 
Q 947 1113 1208 752 
Q 1469 391 1925 391 
Q 2381 391 2643 752 
Q 2906 1113 2906 1747 
Q 2906 2381 2643 2742 
Q 2381 3103 1925 3103 
Q 1469 3103 1208 2742 
Q 947 2381 947 1747 
z
" transform="scale(0.015625)"/>
      </defs>
      <use xlink:href="#DejaVuSans-45"/>
      <use xlink:href="#DejaVuSans-73" x="63.183594"/>
      <use xlink:href="#DejaVuSans-74" x="115.283203"/>
      <use xlink:href="#DejaVuSans-69" x="154.492188"/>
      <use xlink:href="#DejaVuSans-6d" x="182.275391"/>
      <use xlink:href="#DejaVuSans-61" x="279.6875"/>
      <use xlink:href="#DejaVuSans-74" x="340.966797"/>
      <use xlink:href="#DejaVuSans-65" x="380.175781"/>
      <use xlink:href="#DejaVuSans-64" x="441.699219"/>
     </g>
    </g>
   </g>
  </g>
  <g id="axes_2">
   <g id="patch_8">
    <path d="M 50.565625 304.44375 
L 450 304.44375 
L 450 175.97875 
L 50.565625 175.97875 
z
" style="fill: #ffffff"/>
   </g>
   <g id="matplotlib.axis_3">
    <g id="xtick_10">
     <g id="line2d_31">
      <path d="M 68.721733 304.44375 
L 68.721733 175.97875 
" clip-path="url(#pa84229e41c)" style="fill: none; stroke: #b0b0b0; stroke-width: 0.8; stroke-linecap: square"/>
     </g>
     <g id="line2d_32">
      <g>
       <use xlink:href="#m34f0ef9559" x="68.721733" y="304.44375" style="stroke: #000000; stroke-width: 0.8"/>
      </g>
     </g>
     <g id="text_8">
      <!-- 0.0 -->
      <g transform="translate(60.77017 319.042187)scale(0.1 -0.1)">
       <use xlink:href="#DejaVuSans-30"/>
       <use xlink:href="#DejaVuSans-2e" x="63.623047"/>
       <use xlink:href="#DejaVuSans-30" x="95.410156"/>
      </g>
     </g>
    </g>
    <g id="xtick_11">
     <g id="line2d_33">
      <path d="M 113.886181 304.44375 
L 113.886181 175.97875 
" clip-path="url(#pa84229e41c)" style="fill: none; stroke: #b0b0b0; stroke-width: 0.8; stroke-linecap: square"/>
     </g>
     <g id="line2d_34">
      <g>
       <use xlink:href="#m34f0ef9559" x="113.886181" y="304.44375" style="stroke: #000000; stroke-width: 0.8"/>
      </g>
     </g>
     <g id="text_9">
      <!-- 0.1 -->
      <g transform="translate(105.934618 319.042187)scale(0.1 -0.1)">
       <defs>
        <path id="DejaVuSans-31" d="M 794 531 
L 1825 531 
L 1825 4091 
L 703 3866 
L 703 4441 
L 1819 4666 
L 2450 4666 
L 2450 531 
L 3481 531 
L 3481 0 
L 794 0 
L 794 531 
z
" transform="scale(0.015625)"/>
       </defs>
       <use xlink:href="#DejaVuSans-30"/>
       <use xlink:href="#DejaVuSans-2e" x="63.623047"/>
       <use xlink:href="#DejaVuSans-31" x="95.410156"/>
      </g>
     </g>
    </g>
    <g id="xtick_12">
     <g id="line2d_35">
      <path d="M 159.050628 304.44375 
L 159.050628 175.97875 
" clip-path="url(#pa84229e41c)" style="fill: none; stroke: #b0b0b0; stroke-width: 0.8; stroke-linecap: square"/>
     </g>
     <g id="line2d_36">
      <g>
       <use xlink:href="#m34f0ef9559" x="159.050628" y="304.44375" style="stroke: #000000; stroke-width: 0.8"/>
      </g>
     </g>
     <g id="text_10">
      <!-- 0.2 -->
      <g transform="translate(151.099066 319.042187)scale(0.1 -0.1)">
       <use xlink:href="#DejaVuSans-30"/>
       <use xlink:href="#DejaVuSans-2e" x="63.623047"/>
       <use xlink:href="#DejaVuSans-32" x="95.410156"/>
      </g>
     </g>
    </g>
    <g id="xtick_13">
     <g id="line2d_37">
      <path d="M 204.215076 304.44375 
L 204.215076 175.97875 
" clip-path="url(#pa84229e41c)" style="fill: none; stroke: #b0b0b0; stroke-width: 0.8; stroke-linecap: square"/>
     </g>
     <g id="line2d_38">
      <g>
       <use xlink:href="#m34f0ef9559" x="204.215076" y="304.44375" style="stroke: #000000; stroke-width: 0.8"/>
      </g>
     </g>
     <g id="text_11">
      <!-- 0.3 -->
      <g transform="translate(196.263513 319.042187)scale(0.1 -0.1)">
       <defs>
        <path id="DejaVuSans-33" d="M 2597 2516 
Q 3050 2419 3304 2112 
Q 3559 1806 3559 1356 
Q 3559 666 3084 287 
Q 2609 -91 1734 -91 
Q 1441 -91 1130 -33 
Q 819 25 488 141 
L 488 750 
Q 750 597 1062 519 
Q 1375 441 1716 441 
Q 2309 441 2620 675 
Q 2931 909 2931 1356 
Q 2931 1769 2642 2001 
Q 2353 2234 1838 2234 
L 1294 2234 
L 1294 2753 
L 1863 2753 
Q 2328 2753 2575 2939 
Q 2822 3125 2822 3475 
Q 2822 3834 2567 4026 
Q 2313 4219 1838 4219 
Q 1578 4219 1281 4162 
Q 984 4106 628 3988 
L 628 4550 
Q 988 4650 1302 4700 
Q 1616 4750 1894 4750 
Q 2613 4750 3031 4423 
Q 3450 4097 3450 3541 
Q 3450 3153 3228 2886 
Q 3006 2619 2597 2516 
z
" transform="scale(0.015625)"/>
       </defs>
       <use xlink:href="#DejaVuSans-30"/>
       <use xlink:href="#DejaVuSans-2e" x="63.623047"/>
       <use xlink:href="#DejaVuSans-33" x="95.410156"/>
      </g>
     </g>
    </g>
    <g id="xtick_14">
     <g id="line2d_39">
      <path d="M 249.379524 304.44375 
L 249.379524 175.97875 
" clip-path="url(#pa84229e41c)" style="fill: none; stroke: #b0b0b0; stroke-width: 0.8; stroke-linecap: square"/>
     </g>
     <g id="line2d_40">
      <g>
       <use xlink:href="#m34f0ef9559" x="249.379524" y="304.44375" style="stroke: #000000; stroke-width: 0.8"/>
      </g>
     </g>
     <g id="text_12">
      <!-- 0.4 -->
      <g transform="translate(241.427961 319.042187)scale(0.1 -0.1)">
       <use xlink:href="#DejaVuSans-30"/>
       <use xlink:href="#DejaVuSans-2e" x="63.623047"/>
       <use xlink:href="#DejaVuSans-34" x="95.410156"/>
      </g>
     </g>
    </g>
    <g id="xtick_15">
     <g id="line2d_41">
      <path d="M 294.543971 304.44375 
L 294.543971 175.97875 
" clip-path="url(#pa84229e41c)" style="fill: none; stroke: #b0b0b0; stroke-width: 0.8; stroke-linecap: square"/>
     </g>
     <g id="line2d_42">
      <g>
       <use xlink:href="#m34f0ef9559" x="294.543971" y="304.44375" style="stroke: #000000; stroke-width: 0.8"/>
      </g>
     </g>
     <g id="text_13">
      <!-- 0.5 -->
      <g transform="translate(286.592409 319.042187)scale(0.1 -0.1)">
       <defs>
        <path id="DejaVuSans-35" d="M 691 4666 
L 3169 4666 
L 3169 4134 
L 1269 4134 
L 1269 2991 
Q 1406 3038 1543 3061 
Q 1681 3084 1819 3084 
Q 2600 3084 3056 2656 
Q 3513 2228 3513 1497 
Q 3513 744 3044 326 
Q 2575 -91 1722 -91 
Q 1428 -91 1123 -41 
Q 819 9 494 109 
L 494 744 
Q 775 591 1075 516 
Q 1375 441 1709 441 
Q 2250 441 2565 725 
Q 2881 1009 2881 1497 
Q 2881 1984 2565 2268 
Q 2250 2553 1709 2553 
Q 1456 2553 1204 2497 
Q 953 2441 691 2322 
L 691 4666 
z
" transform="scale(0.015625)"/>
       </defs>
       <use xlink:href="#DejaVuSans-30"/>
       <use xlink:href="#DejaVuSans-2e" x="63.623047"/>
       <use xlink:href="#DejaVuSans-35" x="95.410156"/>
      </g>
     </g>
    </g>
    <g id="xtick_16">
     <g id="line2d_43">
      <path d="M 339.708419 304.44375 
L 339.708419 175.97875 
" clip-path="url(#pa84229e41c)" style="fill: none; stroke: #b0b0b0; stroke-width: 0.8; stroke-linecap: square"/>
     </g>
     <g id="line2d_44">
      <g>
       <use xlink:href="#m34f0ef9559" x="339.708419" y="304.44375" style="stroke: #000000; stroke-width: 0.8"/>
      </g>
     </g>
     <g id="text_14">
      <!-- 0.6 -->
      <g transform="translate(331.756856 319.042187)scale(0.1 -0.1)">
       <use xlink:href="#DejaVuSans-30"/>
       <use xlink:href="#DejaVuSans-2e" x="63.623047"/>
       <use xlink:href="#DejaVuSans-36" x="95.410156"/>
      </g>
     </g>
    </g>
    <g id="xtick_17">
     <g id="line2d_45">
      <path d="M 384.872866 304.44375 
L 384.872866 175.97875 
" clip-path="url(#pa84229e41c)" style="fill: none; stroke: #b0b0b0; stroke-width: 0.8; stroke-linecap: square"/>
     </g>
     <g id="line2d_46">
      <g>
       <use xlink:href="#m34f0ef9559" x="384.872866" y="304.44375" style="stroke: #000000; stroke-width: 0.8"/>
      </g>
     </g>
     <g id="text_15">
      <!-- 0.7 -->
      <g transform="translate(376.921304 319.042187)scale(0.1 -0.1)">
       <defs>
        <path id="DejaVuSans-37" d="M 525 4666 
L 3525 4666 
L 3525 4397 
L 1831 0 
L 1172 0 
L 2766 4134 
L 525 4134 
L 525 4666 
z
" transform="scale(0.015625)"/>
       </defs>
       <use xlink:href="#DejaVuSans-30"/>
       <use xlink:href="#DejaVuSans-2e" x="63.623047"/>
       <use xlink:href="#DejaVuSans-37" x="95.410156"/>
      </g>
     </g>
    </g>
    <g id="xtick_18">
     <g id="line2d_47">
      <path d="M 430.037314 304.44375 
L 430.037314 175.97875 
" clip-path="url(#pa84229e41c)" style="fill: none; stroke: #b0b0b0; stroke-width: 0.8; stroke-linecap: square"/>
     </g>
     <g id="line2d_48">
      <g>
       <use xlink:href="#m34f0ef9559" x="430.037314" y="304.44375" style="stroke: #000000; stroke-width: 0.8"/>
      </g>
     </g>
     <g id="text_16">
      <!-- 0.8 -->
      <g transform="translate(422.085752 319.042187)scale(0.1 -0.1)">
       <defs>
        <path id="DejaVuSans-38" d="M 2034 2216 
Q 1584 2216 1326 1975 
Q 1069 1734 1069 1313 
Q 1069 891 1326 650 
Q 1584 409 2034 409 
Q 2484 409 2743 651 
Q 3003 894 3003 1313 
Q 3003 1734 2745 1975 
Q 2488 2216 2034 2216 
z
M 1403 2484 
Q 997 2584 770 2862 
Q 544 3141 544 3541 
Q 544 4100 942 4425 
Q 1341 4750 2034 4750 
Q 2731 4750 3128 4425 
Q 3525 4100 3525 3541 
Q 3525 3141 3298 2862 
Q 3072 2584 2669 2484 
Q 3125 2378 3379 2068 
Q 3634 1759 3634 1313 
Q 3634 634 3220 271 
Q 2806 -91 2034 -91 
Q 1263 -91 848 271 
Q 434 634 434 1313 
Q 434 1759 690 2068 
Q 947 2378 1403 2484 
z
M 1172 3481 
Q 1172 3119 1398 2916 
Q 1625 2713 2034 2713 
Q 2441 2713 2670 2916 
Q 2900 3119 2900 3481 
Q 2900 3844 2670 4047 
Q 2441 4250 2034 4250 
Q 1625 4250 1398 4047 
Q 1172 3844 1172 3481 
z
" transform="scale(0.015625)"/>
       </defs>
       <use xlink:href="#DejaVuSans-30"/>
       <use xlink:href="#DejaVuSans-2e" x="63.623047"/>
       <use xlink:href="#DejaVuSans-38" x="95.410156"/>
      </g>
     </g>
    </g>
    <g id="text_17">
     <!-- Time [s] -->
     <g transform="translate(229.953906 332.720312)scale(0.1 -0.1)">
      <defs>
       <path id="DejaVuSans-54" d="M -19 4666 
L 3928 4666 
L 3928 4134 
L 2272 4134 
L 2272 0 
L 1638 0 
L 1638 4134 
L -19 4134 
L -19 4666 
z
" transform="scale(0.015625)"/>
      </defs>
      <use xlink:href="#DejaVuSans-54"/>
      <use xlink:href="#DejaVuSans-69" x="57.958984"/>
      <use xlink:href="#DejaVuSans-6d" x="85.742188"/>
      <use xlink:href="#DejaVuSans-65" x="183.154297"/>
      <use xlink:href="#DejaVuSans-20" x="244.677734"/>
      <use xlink:href="#DejaVuSans-5b" x="276.464844"/>
      <use xlink:href="#DejaVuSans-73" x="315.478516"/>
      <use xlink:href="#DejaVuSans-5d" x="367.578125"/>
     </g>
    </g>
   </g>
   <g id="matplotlib.axis_4">
    <g id="ytick_5">
     <g id="line2d_49">
      <path d="M 50.565625 294.522331 
L 450 294.522331 
" clip-path="url(#pa84229e41c)" style="fill: none; stroke: #b0b0b0; stroke-width: 0.8; stroke-linecap: square"/>
     </g>
     <g id="line2d_50">
      <g>
       <use xlink:href="#m78b501bc22" x="50.565625" y="294.522331" style="stroke: #000000; stroke-width: 0.8"/>
      </g>
     </g>
     <g id="text_18">
      <!-- 2 -->
      <g transform="translate(28.823438 298.321549)scale(0.1 -0.1)">
       <defs>
        <path id="DejaVuSans-2212" d="M 678 2272 
L 4684 2272 
L 4684 1741 
L 678 1741 
L 678 2272 
z
" transform="scale(0.015625)"/>
       </defs>
       <use xlink:href="#DejaVuSans-2212"/>
       <use xlink:href="#DejaVuSans-32" x="83.789062"/>
      </g>
     </g>
    </g>
    <g id="ytick_6">
     <g id="line2d_51">
      <path d="M 50.565625 262.630915 
L 450 262.630915 
" clip-path="url(#pa84229e41c)" style="fill: none; stroke: #b0b0b0; stroke-width: 0.8; stroke-linecap: square"/>
     </g>
     <g id="line2d_52">
      <g>
       <use xlink:href="#m78b501bc22" x="50.565625" y="262.630915" style="stroke: #000000; stroke-width: 0.8"/>
      </g>
     </g>
     <g id="text_19">
      <!-- 1 -->
      <g transform="translate(28.823438 266.430134)scale(0.1 -0.1)">
       <use xlink:href="#DejaVuSans-2212"/>
       <use xlink:href="#DejaVuSans-31" x="83.789062"/>
      </g>
     </g>
    </g>
    <g id="ytick_7">
     <g id="line2d_53">
      <path d="M 50.565625 230.7395 
L 450 230.7395 
" clip-path="url(#pa84229e41c)" style="fill: none; stroke: #b0b0b0; stroke-width: 0.8; stroke-linecap: square"/>
     </g>
     <g id="line2d_54">
      <g>
       <use xlink:href="#m78b501bc22" x="50.565625" y="230.7395" style="stroke: #000000; stroke-width: 0.8"/>
      </g>
     </g>
     <g id="text_20">
      <!-- 0 -->
      <g transform="translate(37.203125 234.538718)scale(0.1 -0.1)">
       <use xlink:href="#DejaVuSans-30"/>
      </g>
     </g>
    </g>
    <g id="ytick_8">
     <g id="line2d_55">
      <path d="M 50.565625 198.848084 
L 450 198.848084 
" clip-path="url(#pa84229e41c)" style="fill: none; stroke: #b0b0b0; stroke-width: 0.8; stroke-linecap: square"/>
     </g>
     <g id="line2d_56">
      <g>
       <use xlink:href="#m78b501bc22" x="50.565625" y="198.848084" style="stroke: #000000; stroke-width: 0.8"/>
      </g>
     </g>
     <g id="text_21">
      <!-- 1 -->
      <g transform="translate(37.203125 202.647303)scale(0.1 -0.1)">
       <use xlink:href="#DejaVuSans-31"/>
      </g>
     </g>
    </g>
    <g id="text_22">
     <!-- rot. vel. [rad/s] -->
     <g transform="translate(22.74375 277.439375)rotate(-90)scale(0.1 -0.1)">
      <defs>
       <path id="DejaVuSans-6f" d="M 1959 3097 
Q 1497 3097 1228 2736 
Q 959 2375 959 1747 
Q 959 1119 1226 758 
Q 1494 397 1959 397 
Q 2419 397 2687 759 
Q 2956 1122 2956 1747 
Q 2956 2369 2687 2733 
Q 2419 3097 1959 3097 
z
M 1959 3584 
Q 2709 3584 3137 3096 
Q 3566 2609 3566 1747 
Q 3566 888 3137 398 
Q 2709 -91 1959 -91 
Q 1206 -91 779 398 
Q 353 888 353 1747 
Q 353 2609 779 3096 
Q 1206 3584 1959 3584 
z
" transform="scale(0.015625)"/>
      </defs>
      <use xlink:href="#DejaVuSans-72"/>
      <use xlink:href="#DejaVuSans-6f" x="38.863281"/>
      <use xlink:href="#DejaVuSans-74" x="100.044922"/>
      <use xlink:href="#DejaVuSans-2e" x="139.253906"/>
      <use xlink:href="#DejaVuSans-20" x="171.041016"/>
      <use xlink:href="#DejaVuSans-76" x="202.828125"/>
      <use xlink:href="#DejaVuSans-65" x="262.007812"/>
      <use xlink:href="#DejaVuSans-6c" x="323.53125"/>
      <use xlink:href="#DejaVuSans-2e" x="351.314453"/>
      <use xlink:href="#DejaVuSans-20" x="383.101562"/>
      <use xlink:href="#DejaVuSans-5b" x="414.888672"/>
      <use xlink:href="#DejaVuSans-72" x="453.902344"/>
      <use xlink:href="#DejaVuSans-61" x="495.015625"/>
      <use xlink:href="#DejaVuSans-64" x="556.294922"/>
      <use xlink:href="#DejaVuSans-2f" x="619.771484"/>
      <use xlink:href="#DejaVuSans-73" x="653.462891"/>
      <use xlink:href="#DejaVuSans-5d" x="705.5625"/>
     </g>
    </g>
   </g>
   <g id="line2d_57">
    <path d="M 68.721733 230.7395 
L 431.843892 230.7395 
L 431.843892 230.7395 
" clip-path="url(#pa84229e41c)" style="fill: none; stroke: #1f77b4; stroke-width: 1.5; stroke-linecap: square"/>
   </g>
   <g id="line2d_58">
    <path d="M 68.721733 230.7395 
L 69.625022 230.684009 
L 70.528311 230.107093 
L 71.4316 230.378489 
L 72.334889 230.480382 
L 73.238178 230.514314 
L 73.689822 230.548247 
L 74.141467 230.140898 
L 74.593111 224.60997 
L 75.044756 223.659605 
L 75.4964 229.767768 
L 75.948045 233.636835 
L 76.399689 233.500977 
L 77.754622 227.934969 
L 78.206267 225.694278 
L 78.657911 225.219096 
L 79.109556 226.271512 
L 80.012845 230.650076 
L 80.464489 231.159191 
L 80.916134 230.9216 
L 81.367778 231.192996 
L 81.819423 231.905769 
L 82.271067 231.192996 
L 82.722712 229.563982 
L 83.174356 229.733644 
L 84.077645 237.2007 
L 84.52929 240.357951 
L 84.980934 241.748416 
L 85.432579 242.733861 
L 85.884223 244.497456 
L 86.335868 243.786278 
L 86.787512 242.427703 
L 87.239156 244.293351 
L 87.690801 248.534909 
L 88.142445 255.053515 
L 88.59409 254.983354 
L 89.497379 241.815388 
L 89.949023 233.874426 
L 90.400668 228.885333 
L 90.852312 227.528034 
L 91.303957 225.423201 
L 91.755601 223.895602 
L 92.207246 223.01221 
L 93.562179 221.790768 
L 94.465468 208.147621 
L 95.368757 191.54495 
L 95.820402 187.239609 
L 96.272046 187.175826 
L 97.175335 188.419591 
L 97.626979 188.61094 
L 98.078624 187.813654 
L 98.530268 188.132568 
L 98.981913 190.620099 
L 99.433557 191.353601 
L 99.885202 191.257927 
L 100.336846 191.608733 
L 101.240135 198.950137 
L 101.69178 200.815784 
L 102.143424 204.346164 
L 102.595069 212.188263 
L 103.046713 217.989312 
L 103.498358 216.563765 
L 103.950002 213.441596 
L 104.401647 211.847025 
L 104.853291 214.088992 
L 105.304936 222.336112 
L 106.208225 234.41658 
L 106.659869 237.063567 
L 107.111513 237.538749 
L 107.563158 237.369725 
L 108.014802 240.287789 
L 108.918091 256.274956 
L 109.369736 259.56615 
L 109.82138 258.513733 
L 110.273025 253.254839 
L 110.724669 249.928564 
L 111.176314 251.150006 
L 111.627958 253.388783 
L 112.079603 252.065289 
L 112.982892 243.955302 
L 113.434536 241.611283 
L 113.886181 241.10421 
L 114.78947 247.78865 
L 115.241114 247.960864 
L 115.692759 247.348549 
L 116.596047 242.459595 
L 117.047692 237.98204 
L 117.499336 237.844907 
L 117.950981 239.034457 
L 118.402625 239.576611 
L 118.85427 236.827571 
L 119.305914 230.140898 
L 120.660848 221.586663 
L 121.112492 220.537436 
L 122.015781 231.939892 
L 122.467426 231.023397 
L 122.91907 229.122924 
L 123.370715 223.4555 
L 123.822359 224.810885 
L 124.274004 231.939892 
L 124.725648 236.556494 
L 125.177293 237.302753 
L 126.532226 228.138436 
L 126.98387 228.17256 
L 127.435515 235.437105 
L 127.887159 238.35517 
L 128.790448 215.275352 
L 129.242093 215.817506 
L 129.693737 222.336112 
L 130.145382 223.487392 
L 130.597026 223.353448 
L 131.048671 224.268731 
L 131.500315 226.644642 
L 131.95196 228.138436 
L 132.855249 216.563765 
L 133.306893 213.476676 
L 133.758538 208.964041 
L 134.210182 206.92618 
L 134.661827 205.465553 
L 135.113471 207.739411 
L 135.565115 213.951858 
L 136.01676 210.590503 
L 136.468404 211.26979 
L 137.371693 216.190636 
L 137.823338 223.318367 
L 138.274982 225.050071 
L 138.726627 225.085152 
L 140.533205 237.844907 
L 140.984849 237.098648 
L 141.436494 238.049012 
L 141.888138 246.669262 
L 142.339783 250.062508 
L 142.791427 247.281577 
L 143.243072 245.345768 
L 144.146361 237.16562 
L 144.598005 238.253117 
L 145.049649 242.69878 
L 145.501294 248.707123 
L 145.952938 248.9782 
L 146.856227 243.920222 
L 147.307872 243.240934 
L 147.759516 243.276015 
L 148.211161 243.85325 
L 149.566094 255.560588 
L 150.017739 257.394345 
L 150.469383 253.557807 
L 151.824317 219.787988 
L 152.275961 213.849806 
L 152.727606 220.467275 
L 153.17925 231.77023 
L 153.630895 236.79249 
L 154.534183 243.106991 
L 154.985828 238.661327 
L 155.437472 230.412613 
L 155.889117 228.376027 
L 156.340761 233.738568 
L 156.792406 242.494675 
L 157.24405 243.378068 
L 159.050628 218.939676 
L 159.502273 208.418698 
L 159.953917 207.130285 
L 160.857206 225.592225 
L 161.308851 224.064626 
L 162.663784 207.978596 
L 163.115429 207.707519 
L 163.567073 206.824127 
L 164.018717 207.739411 
L 164.470362 211.438815 
L 164.922006 210.150402 
L 166.27694 183.89101 
L 166.728584 189.790922 
L 167.180229 206.824127 
L 167.631873 214.80017 
L 168.083518 216.802951 
L 168.535162 218.059473 
L 169.890096 223.624525 
L 170.793385 233.399244 
L 171.696674 255.968798 
L 172.148318 254.84941 
L 172.599963 250.639743 
L 173.503251 244.360323 
L 173.954896 245.41274 
L 174.40654 254.103151 
L 174.858185 268.435153 
L 175.309829 272.134557 
L 176.213118 258.957024 
L 176.664763 255.732802 
L 177.116407 257.158348 
L 177.568052 259.93928 
L 178.019696 256.070851 
L 178.471341 251.083034 
L 178.922985 250.980981 
L 179.37463 245.176743 
L 179.826274 233.025795 
L 180.277919 232.754399 
L 180.729563 233.059919 
L 181.181208 228.070507 
L 181.632852 232.177484 
L 182.084497 243.342987 
L 182.536141 246.127108 
L 183.43943 234.789709 
L 183.891074 231.498515 
L 184.342719 231.328853 
L 184.794363 231.46471 
L 185.246008 233.025795 
L 185.697652 239.847688 
L 186.149297 244.803614 
L 186.600941 238.591166 
L 187.052586 225.356229 
L 188.407519 207.503414 
L 188.859164 210.762717 
L 189.310808 220.636299 
L 189.762453 226.373565 
L 190.214097 225.76125 
L 190.665742 223.659605 
L 191.117386 216.869923 
L 191.569031 206.620022 
L 192.020675 199.798448 
L 192.47232 196.232988 
L 192.923964 201.223995 
L 193.375608 204.58535 
L 193.827253 202.818565 
L 194.278897 198.848084 
L 194.730542 200.442655 
L 195.182186 201.121942 
L 195.633831 202.786674 
L 196.53712 215.514538 
L 196.988764 216.531874 
L 197.892053 204.21222 
L 198.343698 201.121942 
L 198.795342 201.597124 
L 199.246987 209.471115 
L 199.698631 215.20838 
L 200.150276 218.024392 
L 200.60192 224.166679 
L 201.053565 224.881047 
L 201.505209 222.029954 
L 201.956854 223.761658 
L 203.763431 252.304475 
L 204.215076 261.501959 
L 204.66672 266.968148 
L 205.118365 269.742701 
L 205.570009 267.956782 
L 206.021654 262.586267 
L 206.473298 258.819891 
L 206.924943 260.956616 
L 207.376587 265.373577 
L 207.828232 263.87468 
L 208.279876 258.140604 
L 208.731521 254.205203 
L 209.63481 254.508172 
L 210.086454 252.50858 
L 210.538099 254.84941 
L 211.893032 272.485363 
L 212.344676 268.913524 
L 212.796321 258.752919 
L 213.247965 251.252058 
L 213.69961 246.465157 
L 214.151254 248.365885 
L 214.602899 251.31903 
L 215.054543 244.328432 
L 215.506188 233.059919 
L 215.957832 225.662386 
L 216.409477 222.572108 
L 217.312766 211.100766 
L 217.76441 208.013677 
L 218.216055 208.689775 
L 219.119344 219.213942 
L 219.570988 219.960201 
L 220.474277 199.221214 
L 220.925922 196.583794 
L 221.377566 196.807033 
L 221.82921 201.801229 
L 222.280855 203.497852 
L 223.184144 196.711359 
L 223.635788 195.276246 
L 224.539077 199.390238 
L 224.990722 205.025451 
L 225.442366 214.969195 
L 225.894011 219.689124 
L 226.345655 219.245833 
L 226.7973 217.686343 
L 228.152233 196.009748 
L 228.603878 200.614868 
L 229.507167 213.613809 
L 229.958811 225.014991 
L 230.410456 229.631911 
L 231.313744 244.733453 
L 231.765389 250.639743 
L 232.217033 247.619626 
L 232.668678 247.313468 
L 234.475256 260.822672 
L 234.9269 261.399906 
L 235.378545 263.810897 
L 236.281834 266.362211 
L 236.733478 264.32116 
L 237.185123 265.788165 
L 237.636767 268.690284 
L 238.088412 263.970355 
L 238.540056 253.28673 
L 239.443345 225.254176 
L 239.89499 228.715351 
L 240.798278 250.333585 
L 241.249923 248.9782 
L 241.701567 246.806395 
L 242.604856 238.626247 
L 243.056501 237.777935 
L 243.508145 243.004938 
L 243.95979 250.878928 
L 244.411434 248.298913 
L 244.863079 240.051793 
L 245.314723 233.840302 
L 245.766368 230.378489 
L 246.218012 224.201759 
L 246.669657 225.321148 
L 247.121301 235.197919 
L 247.572946 238.591166 
L 248.02459 235.299972 
L 248.476235 233.36512 
L 248.927879 233.331315 
L 249.379524 229.360515 
L 250.282813 212.797389 
L 250.734457 205.331609 
L 251.186101 201.903282 
L 252.08939 204.346164 
L 252.541035 201.970254 
L 252.992679 198.624844 
L 253.444324 198.915056 
L 254.347613 209.30209 
L 254.799257 211.473895 
L 255.250902 211.237899 
L 255.702546 207.264229 
L 256.154191 206.859208 
L 256.605835 204.990371 
L 257.05748 195.276246 
L 257.509124 193.330869 
L 257.960769 194.957331 
L 258.412413 200.037634 
L 258.864058 208.249673 
L 259.315702 208.351726 
L 259.767347 211.678001 
L 260.218991 217.887259 
L 261.12228 223.997654 
L 261.573924 234.145503 
L 262.025569 248.231941 
L 262.477213 253.863965 
L 263.380502 254.983354 
L 263.832147 255.359672 
L 264.283791 255.528697 
L 264.735436 254.951462 
L 265.638725 265.054663 
L 266.090369 266.904365 
L 266.542014 266.872473 
L 266.993658 264.161703 
L 267.445303 262.382162 
L 267.896947 260.009441 
L 268.348592 256.239875 
L 268.800236 257.158348 
L 269.251881 262.213138 
L 269.703525 261.604012 
L 270.155169 258.548814 
L 271.058458 244.701561 
L 271.510103 243.44504 
L 271.961747 244.733453 
L 272.413392 244.835505 
L 272.865036 245.345768 
L 273.316681 243.44504 
L 273.768325 243.106991 
L 274.21997 243.240934 
L 274.671614 238.422142 
L 275.123259 231.668178 
L 275.574903 227.765306 
L 276.026548 234.282636 
L 276.478192 242.765752 
L 276.929837 238.218037 
L 277.381481 229.292586 
L 277.833126 225.187204 
L 278.28477 223.388528 
L 278.736415 222.878266 
L 279.188059 220.808513 
L 279.639703 214.462121 
L 280.091348 211.065685 
L 280.994637 201.223995 
L 282.34957 184.11425 
L 282.801215 181.818068 
L 283.252859 188.196351 
L 283.704504 196.647576 
L 284.156148 199.935581 
L 285.059437 201.565233 
L 285.511082 199.629424 
L 285.962726 199.291375 
L 286.414371 204.687402 
L 286.866015 204.687402 
L 287.31766 202.343383 
L 287.769304 204.17714 
L 288.672593 201.801229 
L 289.575882 206.17992 
L 290.027526 205.535714 
L 290.479171 211.473895 
L 291.834104 262.181246 
L 292.285749 266.840582 
L 292.737393 266.681125 
L 293.189038 263.842789 
L 293.640682 256.03577 
L 294.092327 252.336366 
L 294.543971 257.19024 
L 294.995616 258.957024 
L 295.44726 259.499178 
L 295.898905 257.531478 
L 296.350549 251.998317 
L 296.802194 248.707123 
L 297.253838 246.873367 
L 298.157127 273.824802 
L 298.608771 278.576623 
L 299.51206 269.934049 
L 299.963705 269.774592 
L 300.415349 268.881633 
L 300.866994 263.236852 
L 301.318638 255.866746 
L 301.770283 254.680385 
L 302.221927 252.744576 
L 302.673572 249.893484 
L 303.125216 242.69878 
L 304.028505 234.757818 
L 304.48015 225.219096 
L 304.931794 220.400303 
L 305.383439 221.146562 
L 305.835083 222.878266 
L 306.738372 234.553713 
L 307.190017 235.233 
L 308.093305 226.746694 
L 308.54495 224.983099 
L 308.996594 224.099707 
L 309.448239 220.840404 
L 309.899883 213.138627 
L 310.351528 197.540536 
L 310.803172 187.813654 
L 311.254817 184.496947 
L 311.706461 183.603987 
L 312.158106 183.029942 
L 313.513039 217.243053 
L 313.964684 217.788396 
L 314.416328 217.176081 
L 314.867973 217.380186 
L 316.222906 201.05497 
L 317.126195 211.033794 
L 318.029484 204.040007 
L 318.481128 203.3958 
L 318.932773 205.940735 
L 319.836062 225.321148 
L 320.739351 244.870586 
L 321.190995 246.500237 
L 321.64264 243.85325 
L 322.094284 243.818169 
L 322.545929 240.491894 
L 322.997573 240.153845 
L 323.449218 248.027836 
L 323.900862 251.861184 
L 324.352507 254.205203 
L 324.804151 255.359672 
L 325.255796 255.359672 
L 326.159085 259.601231 
L 326.610729 257.971579 
L 327.062374 261.128829 
L 327.514018 262.790372 
L 327.965662 261.604012 
L 328.417307 261.262773 
L 328.868951 260.551595 
L 329.320596 258.411681 
L 329.77224 259.837227 
L 330.223885 258.00666 
L 330.675529 253.219758 
L 331.127174 245.856031 
L 331.578818 243.987194 
L 332.030463 242.800833 
L 332.482107 240.016712 
L 332.933752 238.049012 
L 333.837041 232.652666 
L 334.288685 227.663254 
L 334.74033 227.765306 
L 335.191974 240.526975 
L 335.643619 247.415521 
L 336.095263 239.611691 
L 336.546908 226.61275 
L 336.998552 219.245833 
L 337.450196 215.071247 
L 337.901841 213.036575 
L 338.353485 211.611029 
L 338.80513 216.394741 
L 339.256774 218.534655 
L 339.708419 212.864361 
L 340.611708 193.873023 
L 341.063352 193.968697 
L 341.966641 204.110168 
L 342.418286 204.958479 
L 342.86993 202.990779 
L 343.321575 203.328828 
L 344.224864 210.421479 
L 344.676508 207.130285 
L 345.128153 197.349188 
L 345.579797 191.32171 
L 346.031442 197.030273 
L 346.483086 206.92618 
L 346.93473 208.488859 
L 347.386375 206.215001 
L 347.838019 198.497278 
L 348.289664 193.203304 
L 348.741308 191.481167 
L 349.192953 192.055213 
L 349.644597 194.797874 
L 350.096242 199.358347 
L 350.547886 196.934599 
L 350.999531 200.27363 
L 351.90282 228.206364 
L 352.806109 238.795271 
L 353.257753 242.529756 
L 353.709398 244.022274 
L 355.515976 245.074691 
L 355.96762 245.718897 
L 356.419264 247.992755 
L 356.870909 258.583894 
L 357.322553 272.931842 
L 357.774198 279.373908 
L 358.677487 267.095713 
L 359.129131 272.612928 
L 359.580776 287.857025 
L 360.03242 298.604432 
L 360.484065 298.3493 
L 360.935709 291.141841 
L 361.387354 288.590527 
L 361.838998 289.10079 
L 362.742287 284.125729 
L 363.193932 286.549477 
L 364.097221 295.606639 
L 364.548865 294.107742 
L 365.00051 286.358128 
L 365.452154 276.184767 
L 365.903798 271.050249 
L 366.355443 271.688077 
L 366.807087 263.683332 
L 367.710376 221.825849 
L 368.162021 210.864769 
L 369.06531 197.253513 
L 369.516954 190.077945 
L 369.968599 187.71798 
L 370.420243 189.089311 
L 370.871888 193.139521 
L 371.775177 204.958479 
L 372.226821 212.762309 
L 373.13011 218.432602 
L 374.033399 232.448879 
L 375.839977 250.333585 
L 376.291621 258.379789 
L 376.743266 264.384943 
L 377.19491 267.733542 
L 377.646555 268.275696 
L 378.098199 267.669759 
L 378.549844 265.564925 
L 379.001488 260.108304 
L 379.453133 251.759132 
L 379.904777 239.611691 
L 380.356422 231.362658 
L 381.711355 195.59516 
L 382.163 193.681675 
L 382.614644 201.157023 
L 383.066289 206.215001 
L 383.517933 206.415917 
L 383.969578 205.739819 
L 384.421222 209.506195 
L 384.872866 214.631146 
L 385.324511 223.589444 
L 385.776155 229.020871 
L 386.2278 230.072969 
L 386.679444 228.104631 
L 387.131089 225.458281 
L 387.582733 221.4878 
L 388.034378 215.20838 
L 388.486022 213.884886 
L 388.937667 217.278133 
L 389.840956 225.863302 
L 390.2926 225.729358 
L 390.744245 226.102488 
L 391.195889 227.323929 
L 391.647534 226.98588 
L 392.099178 225.254176 
L 392.550823 225.286068 
L 393.002467 227.765306 
L 393.454112 232.482684 
L 393.905756 234.078531 
L 394.3574 234.41658 
L 394.809045 235.264891 
L 395.260689 236.760599 
L 395.712334 235.877207 
L 396.163978 231.702301 
L 396.615623 229.0888 
L 397.067267 227.900845 
L 397.518912 227.900845 
L 397.970556 228.376027 
L 398.422201 229.190534 
L 398.873845 231.159191 
L 399.777134 236.588385 
L 400.228779 238.35517 
L 400.680423 238.897324 
L 402.035357 241.477339 
L 402.487001 241.681444 
L 402.938646 241.442259 
L 403.841935 240.389842 
L 404.745223 238.559275 
L 405.648512 235.810235 
L 406.100157 234.757818 
L 407.003446 232.041626 
L 407.45509 231.057329 
L 407.906735 230.616144 
L 408.358379 229.971235 
L 409.261668 228.240488 
L 409.713313 227.968773 
L 410.164957 228.138436 
L 410.616602 228.511884 
L 411.068246 228.715351 
L 411.519891 228.443956 
L 411.971535 227.799111 
L 412.42318 226.781775 
L 412.874824 226.067407 
L 414.229757 223.184423 
L 417.842913 216.260797 
L 418.746202 214.902223 
L 419.649491 213.511757 
L 420.55278 212.389179 
L 421.004425 211.913997 
L 422.359358 210.998713 
L 422.811003 211.065685 
L 423.262647 212.864361 
L 424.165936 218.636707 
L 424.61758 220.537436 
L 425.520869 222.029954 
L 426.424158 225.490173 
L 427.327447 227.900845 
L 428.230736 230.175022 
L 428.682381 231.159191 
L 429.134025 231.668178 
L 430.488959 233.636835 
L 430.940603 233.976478 
L 431.843892 234.145503 
L 431.843892 234.145503 
" clip-path="url(#pa84229e41c)" style="fill: none; stroke: #ff7f0e; stroke-width: 1.5; stroke-linecap: square"/>
   </g>
   <g id="patch_9">
    <path d="M 50.565625 304.44375 
L 50.565625 175.97875 
" style="fill: none; stroke: #000000; stroke-width: 0.8; stroke-linejoin: miter; stroke-linecap: square"/>
   </g>
   <g id="patch_10">
    <path d="M 450 304.44375 
L 450 175.97875 
" style="fill: none; stroke: #000000; stroke-width: 0.8; stroke-linejoin: miter; stroke-linecap: square"/>
   </g>
   <g id="patch_11">
    <path d="M 50.565625 304.44375 
L 450 304.44375 
" style="fill: none; stroke: #000000; stroke-width: 0.8; stroke-linejoin: miter; stroke-linecap: square"/>
   </g>
   <g id="patch_12">
    <path d="M 50.565625 175.97875 
L 450 175.97875 
" style="fill: none; stroke: #000000; stroke-width: 0.8; stroke-linejoin: miter; stroke-linecap: square"/>
   </g>
   <g id="legend_2">
    <g id="patch_13">
     <path d="M 57.565625 299.44375 
L 140.082813 299.44375 
Q 142.082813 299.44375 142.082813 297.44375 
L 142.082813 269.0875 
Q 142.082813 267.0875 140.082813 267.0875 
L 57.565625 267.0875 
Q 55.565625 267.0875 55.565625 269.0875 
L 55.565625 297.44375 
Q 55.565625 299.44375 57.565625 299.44375 
z
" style="fill: #ffffff; opacity: 0.8; stroke: #cccccc; stroke-linejoin: miter"/>
    </g>
    <g id="line2d_59">
     <path d="M 59.565625 275.185937 
L 69.565625 275.185937 
L 79.565625 275.185937 
" style="fill: none; stroke: #1f77b4; stroke-width: 1.5; stroke-linecap: square"/>
    </g>
    <g id="text_23">
     <!-- Reference -->
     <g transform="translate(87.565625 278.685937)scale(0.1 -0.1)">
      <use xlink:href="#DejaVuSans-52"/>
      <use xlink:href="#DejaVuSans-65" x="64.982422"/>
      <use xlink:href="#DejaVuSans-66" x="126.505859"/>
      <use xlink:href="#DejaVuSans-65" x="161.710938"/>
      <use xlink:href="#DejaVuSans-72" x="223.234375"/>
      <use xlink:href="#DejaVuSans-65" x="262.097656"/>
      <use xlink:href="#DejaVuSans-6e" x="323.621094"/>
      <use xlink:href="#DejaVuSans-63" x="387"/>
      <use xlink:href="#DejaVuSans-65" x="441.980469"/>
     </g>
    </g>
    <g id="line2d_60">
     <path d="M 59.565625 289.864062 
L 69.565625 289.864062 
L 79.565625 289.864062 
" style="fill: none; stroke: #ff7f0e; stroke-width: 1.5; stroke-linecap: square"/>
    </g>
    <g id="text_24">
     <!-- Estimated -->
     <g transform="translate(87.565625 293.364062)scale(0.1 -0.1)">
      <use xlink:href="#DejaVuSans-45"/>
      <use xlink:href="#DejaVuSans-73" x="63.183594"/>
      <use xlink:href="#DejaVuSans-74" x="115.283203"/>
      <use xlink:href="#DejaVuSans-69" x="154.492188"/>
      <use xlink:href="#DejaVuSans-6d" x="182.275391"/>
      <use xlink:href="#DejaVuSans-61" x="279.6875"/>
      <use xlink:href="#DejaVuSans-74" x="340.966797"/>
      <use xlink:href="#DejaVuSans-65" x="380.175781"/>
      <use xlink:href="#DejaVuSans-64" x="441.699219"/>
     </g>
    </g>
   </g>
  </g>
  <g id="text_25">
   <!-- Translational and Rotational Velocity -->
   <g transform="translate(121.384688 16.030125)scale(0.12 -0.12)">
    <defs>
     <path id="DejaVuSans-56" d="M 1831 0 
L 50 4666 
L 709 4666 
L 2188 738 
L 3669 4666 
L 4325 4666 
L 2547 0 
L 1831 0 
z
" transform="scale(0.015625)"/>
     <path id="DejaVuSans-79" d="M 2059 -325 
Q 1816 -950 1584 -1140 
Q 1353 -1331 966 -1331 
L 506 -1331 
L 506 -850 
L 844 -850 
Q 1081 -850 1212 -737 
Q 1344 -625 1503 -206 
L 1606 56 
L 191 3500 
L 800 3500 
L 1894 763 
L 2988 3500 
L 3597 3500 
L 2059 -325 
z
" transform="scale(0.015625)"/>
    </defs>
    <use xlink:href="#DejaVuSans-54"/>
    <use xlink:href="#DejaVuSans-72" x="46.333984"/>
    <use xlink:href="#DejaVuSans-61" x="87.447266"/>
    <use xlink:href="#DejaVuSans-6e" x="148.726562"/>
    <use xlink:href="#DejaVuSans-73" x="212.105469"/>
    <use xlink:href="#DejaVuSans-6c" x="264.205078"/>
    <use xlink:href="#DejaVuSans-61" x="291.988281"/>
    <use xlink:href="#DejaVuSans-74" x="353.267578"/>
    <use xlink:href="#DejaVuSans-69" x="392.476562"/>
    <use xlink:href="#DejaVuSans-6f" x="420.259766"/>
    <use xlink:href="#DejaVuSans-6e" x="481.441406"/>
    <use xlink:href="#DejaVuSans-61" x="544.820312"/>
    <use xlink:href="#DejaVuSans-6c" x="606.099609"/>
    <use xlink:href="#DejaVuSans-20" x="633.882812"/>
    <use xlink:href="#DejaVuSans-61" x="665.669922"/>
    <use xlink:href="#DejaVuSans-6e" x="726.949219"/>
    <use xlink:href="#DejaVuSans-64" x="790.328125"/>
    <use xlink:href="#DejaVuSans-20" x="853.804688"/>
    <use xlink:href="#DejaVuSans-52" x="885.591797"/>
    <use xlink:href="#DejaVuSans-6f" x="950.574219"/>
    <use xlink:href="#DejaVuSans-74" x="1011.755859"/>
    <use xlink:href="#DejaVuSans-61" x="1050.964844"/>
    <use xlink:href="#DejaVuSans-74" x="1112.244141"/>
    <use xlink:href="#DejaVuSans-69" x="1151.453125"/>
    <use xlink:href="#DejaVuSans-6f" x="1179.236328"/>
    <use xlink:href="#DejaVuSans-6e" x="1240.417969"/>
    <use xlink:href="#DejaVuSans-61" x="1303.796875"/>
    <use xlink:href="#DejaVuSans-6c" x="1365.076172"/>
    <use xlink:href="#DejaVuSans-20" x="1392.859375"/>
    <use xlink:href="#DejaVuSans-56" x="1424.646484"/>
    <use xlink:href="#DejaVuSans-65" x="1485.304688"/>
    <use xlink:href="#DejaVuSans-6c" x="1546.828125"/>
    <use xlink:href="#DejaVuSans-6f" x="1574.611328"/>
    <use xlink:href="#DejaVuSans-63" x="1635.792969"/>
    <use xlink:href="#DejaVuSans-69" x="1690.773438"/>
    <use xlink:href="#DejaVuSans-74" x="1718.556641"/>
    <use xlink:href="#DejaVuSans-79" x="1757.765625"/>
   </g>
  </g>
 </g>
 <defs>
  <clipPath id="p8215dd74c4">
   <rect x="50.565625" y="33.21375" width="399.434375" height="128.465"/>
  </clipPath>
  <clipPath id="pa84229e41c">
   <rect x="50.565625" y="175.97875" width="399.434375" height="128.465"/>
  </clipPath>
 </defs>
</svg>
