<?xml version="1.0" encoding="utf-8" standalone="no"?>
<!DOCTYPE svg PUBLIC "-//W3C//DTD SVG 1.1//EN"
  "http://www.w3.org/Graphics/SVG/1.1/DTD/svg11.dtd">
<svg xmlns:xlink="http://www.w3.org/1999/xlink" width="576pt" height="360pt" viewBox="0 0 576 360" xmlns="http://www.w3.org/2000/svg" version="1.1">
 <metadata>
  <rdf:RDF xmlns:dc="http://purl.org/dc/elements/1.1/" xmlns:cc="http://creativecommons.org/ns#" xmlns:rdf="http://www.w3.org/1999/02/22-rdf-syntax-ns#">
   <cc:Work>
    <dc:type rdf:resource="http://purl.org/dc/dcmitype/StillImage"/>
    <dc:date>2022-01-09T23:26:36.693574</dc:date>
    <dc:format>image/svg+xml</dc:format>
    <dc:creator>
     <cc:Agent>
      <dc:title>Matplotlib v3.5.1, https://matplotlib.org/</dc:title>
     </cc:Agent>
    </dc:creator>
   </cc:Work>
  </rdf:RDF>
 </metadata>
 <defs>
  <style type="text/css">*{stroke-linejoin: round; stroke-linecap: butt}</style>
 </defs>
 <g id="figure_1">
  <g id="patch_1">
   <path d="M 0 360 
L 576 360 
L 576 0 
L 0 0 
z
" style="fill: #ffffff"/>
  </g>
  <g id="axes_1">
   <g id="patch_2">
    <path d="M 56.909624 143.44 
L 565.2 143.44 
L 565.2 25.44 
L 56.909624 25.44 
z
" style="fill: #ffffff"/>
   </g>
   <g id="matplotlib.axis_1">
    <g id="xtick_1">
     <g id="line2d_1">
      <path d="M 80.013732 143.44 
L 80.013732 25.44 
" clip-path="url(#p7f3a6d443a)" style="fill: none; stroke: #b0b0b0; stroke-width: 0.8; stroke-linecap: square"/>
     </g>
     <g id="line2d_2">
      <defs>
       <path id="m346fa7ee85" d="M 0 0 
L 0 3.5 
" style="stroke: #000000; stroke-width: 0.8"/>
      </defs>
      <g>
       <use xlink:href="#m346fa7ee85" x="80.013732" y="143.44" style="stroke: #000000; stroke-width: 0.8"/>
      </g>
     </g>
     <g id="text_1">
      <!-- 0.0 -->
      <g transform="translate(72.06217 158.038438)scale(0.1 -0.1)">
       <defs>
        <path id="DejaVuSans-30" d="M 2034 4250 
Q 1547 4250 1301 3770 
Q 1056 3291 1056 2328 
Q 1056 1369 1301 889 
Q 1547 409 2034 409 
Q 2525 409 2770 889 
Q 3016 1369 3016 2328 
Q 3016 3291 2770 3770 
Q 2525 4250 2034 4250 
z
M 2034 4750 
Q 2819 4750 3233 4129 
Q 3647 3509 3647 2328 
Q 3647 1150 3233 529 
Q 2819 -91 2034 -91 
Q 1250 -91 836 529 
Q 422 1150 422 2328 
Q 422 3509 836 4129 
Q 1250 4750 2034 4750 
z
" transform="scale(0.015625)"/>
        <path id="DejaVuSans-2e" d="M 684 794 
L 1344 794 
L 1344 0 
L 684 0 
L 684 794 
z
" transform="scale(0.015625)"/>
       </defs>
       <use xlink:href="#DejaVuSans-30"/>
       <use xlink:href="#DejaVuSans-2e" x="63.623047"/>
       <use xlink:href="#DejaVuSans-30" x="95.410156"/>
      </g>
     </g>
    </g>
    <g id="xtick_2">
     <g id="line2d_3">
      <path d="M 137.486637 143.44 
L 137.486637 25.44 
" clip-path="url(#p7f3a6d443a)" style="fill: none; stroke: #b0b0b0; stroke-width: 0.8; stroke-linecap: square"/>
     </g>
     <g id="line2d_4">
      <g>
       <use xlink:href="#m346fa7ee85" x="137.486637" y="143.44" style="stroke: #000000; stroke-width: 0.8"/>
      </g>
     </g>
     <g id="text_2">
      <!-- 0.1 -->
      <g transform="translate(129.535075 158.038438)scale(0.1 -0.1)">
       <defs>
        <path id="DejaVuSans-31" d="M 794 531 
L 1825 531 
L 1825 4091 
L 703 3866 
L 703 4441 
L 1819 4666 
L 2450 4666 
L 2450 531 
L 3481 531 
L 3481 0 
L 794 0 
L 794 531 
z
" transform="scale(0.015625)"/>
       </defs>
       <use xlink:href="#DejaVuSans-30"/>
       <use xlink:href="#DejaVuSans-2e" x="63.623047"/>
       <use xlink:href="#DejaVuSans-31" x="95.410156"/>
      </g>
     </g>
    </g>
    <g id="xtick_3">
     <g id="line2d_5">
      <path d="M 194.959543 143.44 
L 194.959543 25.44 
" clip-path="url(#p7f3a6d443a)" style="fill: none; stroke: #b0b0b0; stroke-width: 0.8; stroke-linecap: square"/>
     </g>
     <g id="line2d_6">
      <g>
       <use xlink:href="#m346fa7ee85" x="194.959543" y="143.44" style="stroke: #000000; stroke-width: 0.8"/>
      </g>
     </g>
     <g id="text_3">
      <!-- 0.2 -->
      <g transform="translate(187.00798 158.038438)scale(0.1 -0.1)">
       <defs>
        <path id="DejaVuSans-32" d="M 1228 531 
L 3431 531 
L 3431 0 
L 469 0 
L 469 531 
Q 828 903 1448 1529 
Q 2069 2156 2228 2338 
Q 2531 2678 2651 2914 
Q 2772 3150 2772 3378 
Q 2772 3750 2511 3984 
Q 2250 4219 1831 4219 
Q 1534 4219 1204 4116 
Q 875 4013 500 3803 
L 500 4441 
Q 881 4594 1212 4672 
Q 1544 4750 1819 4750 
Q 2544 4750 2975 4387 
Q 3406 4025 3406 3419 
Q 3406 3131 3298 2873 
Q 3191 2616 2906 2266 
Q 2828 2175 2409 1742 
Q 1991 1309 1228 531 
z
" transform="scale(0.015625)"/>
       </defs>
       <use xlink:href="#DejaVuSans-30"/>
       <use xlink:href="#DejaVuSans-2e" x="63.623047"/>
       <use xlink:href="#DejaVuSans-32" x="95.410156"/>
      </g>
     </g>
    </g>
    <g id="xtick_4">
     <g id="line2d_7">
      <path d="M 252.432448 143.44 
L 252.432448 25.44 
" clip-path="url(#p7f3a6d443a)" style="fill: none; stroke: #b0b0b0; stroke-width: 0.8; stroke-linecap: square"/>
     </g>
     <g id="line2d_8">
      <g>
       <use xlink:href="#m346fa7ee85" x="252.432448" y="143.44" style="stroke: #000000; stroke-width: 0.8"/>
      </g>
     </g>
     <g id="text_4">
      <!-- 0.3 -->
      <g transform="translate(244.480886 158.038438)scale(0.1 -0.1)">
       <defs>
        <path id="DejaVuSans-33" d="M 2597 2516 
Q 3050 2419 3304 2112 
Q 3559 1806 3559 1356 
Q 3559 666 3084 287 
Q 2609 -91 1734 -91 
Q 1441 -91 1130 -33 
Q 819 25 488 141 
L 488 750 
Q 750 597 1062 519 
Q 1375 441 1716 441 
Q 2309 441 2620 675 
Q 2931 909 2931 1356 
Q 2931 1769 2642 2001 
Q 2353 2234 1838 2234 
L 1294 2234 
L 1294 2753 
L 1863 2753 
Q 2328 2753 2575 2939 
Q 2822 3125 2822 3475 
Q 2822 3834 2567 4026 
Q 2313 4219 1838 4219 
Q 1578 4219 1281 4162 
Q 984 4106 628 3988 
L 628 4550 
Q 988 4650 1302 4700 
Q 1616 4750 1894 4750 
Q 2613 4750 3031 4423 
Q 3450 4097 3450 3541 
Q 3450 3153 3228 2886 
Q 3006 2619 2597 2516 
z
" transform="scale(0.015625)"/>
       </defs>
       <use xlink:href="#DejaVuSans-30"/>
       <use xlink:href="#DejaVuSans-2e" x="63.623047"/>
       <use xlink:href="#DejaVuSans-33" x="95.410156"/>
      </g>
     </g>
    </g>
    <g id="xtick_5">
     <g id="line2d_9">
      <path d="M 309.905354 143.44 
L 309.905354 25.44 
" clip-path="url(#p7f3a6d443a)" style="fill: none; stroke: #b0b0b0; stroke-width: 0.8; stroke-linecap: square"/>
     </g>
     <g id="line2d_10">
      <g>
       <use xlink:href="#m346fa7ee85" x="309.905354" y="143.44" style="stroke: #000000; stroke-width: 0.8"/>
      </g>
     </g>
     <g id="text_5">
      <!-- 0.4 -->
      <g transform="translate(301.953791 158.038438)scale(0.1 -0.1)">
       <defs>
        <path id="DejaVuSans-34" d="M 2419 4116 
L 825 1625 
L 2419 1625 
L 2419 4116 
z
M 2253 4666 
L 3047 4666 
L 3047 1625 
L 3713 1625 
L 3713 1100 
L 3047 1100 
L 3047 0 
L 2419 0 
L 2419 1100 
L 313 1100 
L 313 1709 
L 2253 4666 
z
" transform="scale(0.015625)"/>
       </defs>
       <use xlink:href="#DejaVuSans-30"/>
       <use xlink:href="#DejaVuSans-2e" x="63.623047"/>
       <use xlink:href="#DejaVuSans-34" x="95.410156"/>
      </g>
     </g>
    </g>
    <g id="xtick_6">
     <g id="line2d_11">
      <path d="M 367.378259 143.44 
L 367.378259 25.44 
" clip-path="url(#p7f3a6d443a)" style="fill: none; stroke: #b0b0b0; stroke-width: 0.8; stroke-linecap: square"/>
     </g>
     <g id="line2d_12">
      <g>
       <use xlink:href="#m346fa7ee85" x="367.378259" y="143.44" style="stroke: #000000; stroke-width: 0.8"/>
      </g>
     </g>
     <g id="text_6">
      <!-- 0.5 -->
      <g transform="translate(359.426697 158.038438)scale(0.1 -0.1)">
       <defs>
        <path id="DejaVuSans-35" d="M 691 4666 
L 3169 4666 
L 3169 4134 
L 1269 4134 
L 1269 2991 
Q 1406 3038 1543 3061 
Q 1681 3084 1819 3084 
Q 2600 3084 3056 2656 
Q 3513 2228 3513 1497 
Q 3513 744 3044 326 
Q 2575 -91 1722 -91 
Q 1428 -91 1123 -41 
Q 819 9 494 109 
L 494 744 
Q 775 591 1075 516 
Q 1375 441 1709 441 
Q 2250 441 2565 725 
Q 2881 1009 2881 1497 
Q 2881 1984 2565 2268 
Q 2250 2553 1709 2553 
Q 1456 2553 1204 2497 
Q 953 2441 691 2322 
L 691 4666 
z
" transform="scale(0.015625)"/>
       </defs>
       <use xlink:href="#DejaVuSans-30"/>
       <use xlink:href="#DejaVuSans-2e" x="63.623047"/>
       <use xlink:href="#DejaVuSans-35" x="95.410156"/>
      </g>
     </g>
    </g>
    <g id="xtick_7">
     <g id="line2d_13">
      <path d="M 424.851165 143.44 
L 424.851165 25.44 
" clip-path="url(#p7f3a6d443a)" style="fill: none; stroke: #b0b0b0; stroke-width: 0.8; stroke-linecap: square"/>
     </g>
     <g id="line2d_14">
      <g>
       <use xlink:href="#m346fa7ee85" x="424.851165" y="143.44" style="stroke: #000000; stroke-width: 0.8"/>
      </g>
     </g>
     <g id="text_7">
      <!-- 0.6 -->
      <g transform="translate(416.899602 158.038438)scale(0.1 -0.1)">
       <defs>
        <path id="DejaVuSans-36" d="M 2113 2584 
Q 1688 2584 1439 2293 
Q 1191 2003 1191 1497 
Q 1191 994 1439 701 
Q 1688 409 2113 409 
Q 2538 409 2786 701 
Q 3034 994 3034 1497 
Q 3034 2003 2786 2293 
Q 2538 2584 2113 2584 
z
M 3366 4563 
L 3366 3988 
Q 3128 4100 2886 4159 
Q 2644 4219 2406 4219 
Q 1781 4219 1451 3797 
Q 1122 3375 1075 2522 
Q 1259 2794 1537 2939 
Q 1816 3084 2150 3084 
Q 2853 3084 3261 2657 
Q 3669 2231 3669 1497 
Q 3669 778 3244 343 
Q 2819 -91 2113 -91 
Q 1303 -91 875 529 
Q 447 1150 447 2328 
Q 447 3434 972 4092 
Q 1497 4750 2381 4750 
Q 2619 4750 2861 4703 
Q 3103 4656 3366 4563 
z
" transform="scale(0.015625)"/>
       </defs>
       <use xlink:href="#DejaVuSans-30"/>
       <use xlink:href="#DejaVuSans-2e" x="63.623047"/>
       <use xlink:href="#DejaVuSans-36" x="95.410156"/>
      </g>
     </g>
    </g>
    <g id="xtick_8">
     <g id="line2d_15">
      <path d="M 482.32407 143.44 
L 482.32407 25.44 
" clip-path="url(#p7f3a6d443a)" style="fill: none; stroke: #b0b0b0; stroke-width: 0.8; stroke-linecap: square"/>
     </g>
     <g id="line2d_16">
      <g>
       <use xlink:href="#m346fa7ee85" x="482.32407" y="143.44" style="stroke: #000000; stroke-width: 0.8"/>
      </g>
     </g>
     <g id="text_8">
      <!-- 0.7 -->
      <g transform="translate(474.372508 158.038438)scale(0.1 -0.1)">
       <defs>
        <path id="DejaVuSans-37" d="M 525 4666 
L 3525 4666 
L 3525 4397 
L 1831 0 
L 1172 0 
L 2766 4134 
L 525 4134 
L 525 4666 
z
" transform="scale(0.015625)"/>
       </defs>
       <use xlink:href="#DejaVuSans-30"/>
       <use xlink:href="#DejaVuSans-2e" x="63.623047"/>
       <use xlink:href="#DejaVuSans-37" x="95.410156"/>
      </g>
     </g>
    </g>
    <g id="xtick_9">
     <g id="line2d_17">
      <path d="M 539.796976 143.44 
L 539.796976 25.44 
" clip-path="url(#p7f3a6d443a)" style="fill: none; stroke: #b0b0b0; stroke-width: 0.8; stroke-linecap: square"/>
     </g>
     <g id="line2d_18">
      <g>
       <use xlink:href="#m346fa7ee85" x="539.796976" y="143.44" style="stroke: #000000; stroke-width: 0.8"/>
      </g>
     </g>
     <g id="text_9">
      <!-- 0.8 -->
      <g transform="translate(531.845413 158.038438)scale(0.1 -0.1)">
       <defs>
        <path id="DejaVuSans-38" d="M 2034 2216 
Q 1584 2216 1326 1975 
Q 1069 1734 1069 1313 
Q 1069 891 1326 650 
Q 1584 409 2034 409 
Q 2484 409 2743 651 
Q 3003 894 3003 1313 
Q 3003 1734 2745 1975 
Q 2488 2216 2034 2216 
z
M 1403 2484 
Q 997 2584 770 2862 
Q 544 3141 544 3541 
Q 544 4100 942 4425 
Q 1341 4750 2034 4750 
Q 2731 4750 3128 4425 
Q 3525 4100 3525 3541 
Q 3525 3141 3298 2862 
Q 3072 2584 2669 2484 
Q 3125 2378 3379 2068 
Q 3634 1759 3634 1313 
Q 3634 634 3220 271 
Q 2806 -91 2034 -91 
Q 1263 -91 848 271 
Q 434 634 434 1313 
Q 434 1759 690 2068 
Q 947 2378 1403 2484 
z
M 1172 3481 
Q 1172 3119 1398 2916 
Q 1625 2713 2034 2713 
Q 2441 2713 2670 2916 
Q 2900 3119 2900 3481 
Q 2900 3844 2670 4047 
Q 2441 4250 2034 4250 
Q 1625 4250 1398 4047 
Q 1172 3844 1172 3481 
z
" transform="scale(0.015625)"/>
       </defs>
       <use xlink:href="#DejaVuSans-30"/>
       <use xlink:href="#DejaVuSans-2e" x="63.623047"/>
       <use xlink:href="#DejaVuSans-38" x="95.410156"/>
      </g>
     </g>
    </g>
    <g id="text_10">
     <!-- Time [ms] -->
     <g transform="translate(285.855593 171.716563)scale(0.1 -0.1)">
      <defs>
       <path id="DejaVuSans-54" d="M -19 4666 
L 3928 4666 
L 3928 4134 
L 2272 4134 
L 2272 0 
L 1638 0 
L 1638 4134 
L -19 4134 
L -19 4666 
z
" transform="scale(0.015625)"/>
       <path id="DejaVuSans-69" d="M 603 3500 
L 1178 3500 
L 1178 0 
L 603 0 
L 603 3500 
z
M 603 4863 
L 1178 4863 
L 1178 4134 
L 603 4134 
L 603 4863 
z
" transform="scale(0.015625)"/>
       <path id="DejaVuSans-6d" d="M 3328 2828 
Q 3544 3216 3844 3400 
Q 4144 3584 4550 3584 
Q 5097 3584 5394 3201 
Q 5691 2819 5691 2113 
L 5691 0 
L 5113 0 
L 5113 2094 
Q 5113 2597 4934 2840 
Q 4756 3084 4391 3084 
Q 3944 3084 3684 2787 
Q 3425 2491 3425 1978 
L 3425 0 
L 2847 0 
L 2847 2094 
Q 2847 2600 2669 2842 
Q 2491 3084 2119 3084 
Q 1678 3084 1418 2786 
Q 1159 2488 1159 1978 
L 1159 0 
L 581 0 
L 581 3500 
L 1159 3500 
L 1159 2956 
Q 1356 3278 1631 3431 
Q 1906 3584 2284 3584 
Q 2666 3584 2933 3390 
Q 3200 3197 3328 2828 
z
" transform="scale(0.015625)"/>
       <path id="DejaVuSans-65" d="M 3597 1894 
L 3597 1613 
L 953 1613 
Q 991 1019 1311 708 
Q 1631 397 2203 397 
Q 2534 397 2845 478 
Q 3156 559 3463 722 
L 3463 178 
Q 3153 47 2828 -22 
Q 2503 -91 2169 -91 
Q 1331 -91 842 396 
Q 353 884 353 1716 
Q 353 2575 817 3079 
Q 1281 3584 2069 3584 
Q 2775 3584 3186 3129 
Q 3597 2675 3597 1894 
z
M 3022 2063 
Q 3016 2534 2758 2815 
Q 2500 3097 2075 3097 
Q 1594 3097 1305 2825 
Q 1016 2553 972 2059 
L 3022 2063 
z
" transform="scale(0.015625)"/>
       <path id="DejaVuSans-20" transform="scale(0.015625)"/>
       <path id="DejaVuSans-5b" d="M 550 4863 
L 1875 4863 
L 1875 4416 
L 1125 4416 
L 1125 -397 
L 1875 -397 
L 1875 -844 
L 550 -844 
L 550 4863 
z
" transform="scale(0.015625)"/>
       <path id="DejaVuSans-73" d="M 2834 3397 
L 2834 2853 
Q 2591 2978 2328 3040 
Q 2066 3103 1784 3103 
Q 1356 3103 1142 2972 
Q 928 2841 928 2578 
Q 928 2378 1081 2264 
Q 1234 2150 1697 2047 
L 1894 2003 
Q 2506 1872 2764 1633 
Q 3022 1394 3022 966 
Q 3022 478 2636 193 
Q 2250 -91 1575 -91 
Q 1294 -91 989 -36 
Q 684 19 347 128 
L 347 722 
Q 666 556 975 473 
Q 1284 391 1588 391 
Q 1994 391 2212 530 
Q 2431 669 2431 922 
Q 2431 1156 2273 1281 
Q 2116 1406 1581 1522 
L 1381 1569 
Q 847 1681 609 1914 
Q 372 2147 372 2553 
Q 372 3047 722 3315 
Q 1072 3584 1716 3584 
Q 2034 3584 2315 3537 
Q 2597 3491 2834 3397 
z
" transform="scale(0.015625)"/>
       <path id="DejaVuSans-5d" d="M 1947 4863 
L 1947 -844 
L 622 -844 
L 622 -397 
L 1369 -397 
L 1369 4416 
L 622 4416 
L 622 4863 
L 1947 4863 
z
" transform="scale(0.015625)"/>
      </defs>
      <use xlink:href="#DejaVuSans-54"/>
      <use xlink:href="#DejaVuSans-69" x="57.958984"/>
      <use xlink:href="#DejaVuSans-6d" x="85.742188"/>
      <use xlink:href="#DejaVuSans-65" x="183.154297"/>
      <use xlink:href="#DejaVuSans-20" x="244.677734"/>
      <use xlink:href="#DejaVuSans-5b" x="276.464844"/>
      <use xlink:href="#DejaVuSans-6d" x="315.478516"/>
      <use xlink:href="#DejaVuSans-73" x="412.890625"/>
      <use xlink:href="#DejaVuSans-5d" x="464.990234"/>
     </g>
    </g>
   </g>
   <g id="matplotlib.axis_2">
    <g id="ytick_1">
     <g id="line2d_19">
      <path d="M 56.909624 132.670897 
L 565.2 132.670897 
" clip-path="url(#p7f3a6d443a)" style="fill: none; stroke: #b0b0b0; stroke-width: 0.8; stroke-linecap: square"/>
     </g>
     <g id="line2d_20">
      <defs>
       <path id="mbe62f19385" d="M 0 0 
L -3.5 0 
" style="stroke: #000000; stroke-width: 0.8"/>
      </defs>
      <g>
       <use xlink:href="#mbe62f19385" x="56.909624" y="132.670897" style="stroke: #000000; stroke-width: 0.8"/>
      </g>
     </g>
     <g id="text_11">
      <!-- $\mathdefault{0}$ -->
      <g transform="translate(43.509624 136.470115)scale(0.1 -0.1)">
       <use xlink:href="#DejaVuSans-30" transform="translate(0 0.78125)"/>
      </g>
     </g>
    </g>
    <g id="ytick_2">
     <g id="line2d_21">
      <path d="M 56.909624 103.772383 
L 565.2 103.772383 
" clip-path="url(#p7f3a6d443a)" style="fill: none; stroke: #b0b0b0; stroke-width: 0.8; stroke-linecap: square"/>
     </g>
     <g id="line2d_22">
      <g>
       <use xlink:href="#mbe62f19385" x="56.909624" y="103.772383" style="stroke: #000000; stroke-width: 0.8"/>
      </g>
     </g>
     <g id="text_12">
      <!-- $\mathdefault{2}$ -->
      <g transform="translate(43.509624 107.571602)scale(0.1 -0.1)">
       <use xlink:href="#DejaVuSans-32" transform="translate(0 0.78125)"/>
      </g>
     </g>
    </g>
    <g id="ytick_3">
     <g id="line2d_23">
      <path d="M 56.909624 74.87387 
L 565.2 74.87387 
" clip-path="url(#p7f3a6d443a)" style="fill: none; stroke: #b0b0b0; stroke-width: 0.8; stroke-linecap: square"/>
     </g>
     <g id="line2d_24">
      <g>
       <use xlink:href="#mbe62f19385" x="56.909624" y="74.87387" style="stroke: #000000; stroke-width: 0.8"/>
      </g>
     </g>
     <g id="text_13">
      <!-- $\mathdefault{4}$ -->
      <g transform="translate(43.509624 78.673088)scale(0.1 -0.1)">
       <use xlink:href="#DejaVuSans-34" transform="translate(0 0.09375)"/>
      </g>
     </g>
    </g>
    <g id="ytick_4">
     <g id="line2d_25">
      <path d="M 56.909624 45.975356 
L 565.2 45.975356 
" clip-path="url(#p7f3a6d443a)" style="fill: none; stroke: #b0b0b0; stroke-width: 0.8; stroke-linecap: square"/>
     </g>
     <g id="line2d_26">
      <g>
       <use xlink:href="#mbe62f19385" x="56.909624" y="45.975356" style="stroke: #000000; stroke-width: 0.8"/>
      </g>
     </g>
     <g id="text_14">
      <!-- $\mathdefault{6}$ -->
      <g transform="translate(43.509624 49.774575)scale(0.1 -0.1)">
       <use xlink:href="#DejaVuSans-36" transform="translate(0 0.78125)"/>
      </g>
     </g>
    </g>
    <g id="text_15">
     <!-- vel. [m/s] -->
     <g transform="translate(37.429937 108.104063)rotate(-90)scale(0.1 -0.1)">
      <defs>
       <path id="DejaVuSans-76" d="M 191 3500 
L 800 3500 
L 1894 563 
L 2988 3500 
L 3597 3500 
L 2284 0 
L 1503 0 
L 191 3500 
z
" transform="scale(0.015625)"/>
       <path id="DejaVuSans-6c" d="M 603 4863 
L 1178 4863 
L 1178 0 
L 603 0 
L 603 4863 
z
" transform="scale(0.015625)"/>
       <path id="DejaVuSans-2f" d="M 1625 4666 
L 2156 4666 
L 531 -594 
L 0 -594 
L 1625 4666 
z
" transform="scale(0.015625)"/>
      </defs>
      <use xlink:href="#DejaVuSans-76"/>
      <use xlink:href="#DejaVuSans-65" x="59.179688"/>
      <use xlink:href="#DejaVuSans-6c" x="120.703125"/>
      <use xlink:href="#DejaVuSans-2e" x="148.486328"/>
      <use xlink:href="#DejaVuSans-20" x="180.273438"/>
      <use xlink:href="#DejaVuSans-5b" x="212.060547"/>
      <use xlink:href="#DejaVuSans-6d" x="251.074219"/>
      <use xlink:href="#DejaVuSans-2f" x="348.486328"/>
      <use xlink:href="#DejaVuSans-73" x="382.177734"/>
      <use xlink:href="#DejaVuSans-5d" x="434.277344"/>
     </g>
    </g>
    <g id="text_16">
     <!-- $\times\mathdefault{10^{2}}\mathdefault{}$ -->
     <g transform="translate(56.909624 22.44)scale(0.1 -0.1)">
      <defs>
       <path id="DejaVuSans-d7" d="M 4488 3438 
L 3059 2003 
L 4488 575 
L 4116 197 
L 2681 1631 
L 1247 197 
L 878 575 
L 2303 2003 
L 878 3438 
L 1247 3816 
L 2681 2381 
L 4116 3816 
L 4488 3438 
z
" transform="scale(0.015625)"/>
      </defs>
      <use xlink:href="#DejaVuSans-d7" transform="translate(0 0.765625)"/>
      <use xlink:href="#DejaVuSans-31" transform="translate(83.789062 0.765625)"/>
      <use xlink:href="#DejaVuSans-30" transform="translate(147.412109 0.765625)"/>
      <use xlink:href="#DejaVuSans-32" transform="translate(211.992188 39.046875)scale(0.7)"/>
     </g>
    </g>
   </g>
   <g id="line2d_27">
    <path d="M 80.013732 132.670897 
L 81.737919 132.514845 
L 83.462106 132.046689 
L 85.186294 131.266429 
L 86.910481 130.174065 
L 88.634668 128.769597 
L 90.358855 127.053026 
L 92.083042 125.02435 
L 93.807229 122.68357 
L 95.531416 120.030687 
L 97.830333 116.010904 
L 100.129249 111.430489 
L 103.002894 105.043918 
L 120.244766 66.218765 
L 122.543682 61.753944 
L 124.842598 57.852645 
L 126.566785 55.280677 
L 128.290973 53.026593 
L 130.01516 51.090393 
L 131.739347 49.457627 
L 133.463534 48.142745 
L 135.187721 47.131297 
L 136.911908 46.437732 
L 138.636096 46.062052 
L 140.360283 45.975356 
L 426.000623 46.047602 
L 427.72481 46.408834 
L 429.448997 47.087949 
L 431.173184 48.070498 
L 432.897372 49.370931 
L 434.621559 50.989248 
L 436.345746 52.910999 
L 438.069933 55.150634 
L 439.79412 57.693703 
L 442.093036 61.580553 
L 444.391953 66.016475 
L 446.690869 71.001469 
L 465.082199 112.427488 
L 467.381115 116.892308 
L 469.680031 120.793608 
L 471.404218 123.361241 
L 473.128405 125.615325 
L 474.852593 127.557305 
L 476.57678 129.188626 
L 478.300967 130.506398 
L 480.025154 131.512933 
L 481.749341 132.207076 
L 483.473528 132.589085 
L 485.197716 132.670897 
L 542.095892 132.670897 
L 542.095892 132.670897 
" clip-path="url(#p7f3a6d443a)" style="fill: none; stroke: #1f77b4; stroke-width: 2; stroke-linecap: square"/>
   </g>
   <g id="line2d_28">
    <path d="M 80.013732 132.670897 
L 80.588461 132.607277 
L 81.16319 132.716108 
L 82.887377 132.642172 
L 85.186294 132.670649 
L 86.910481 132.360382 
L 89.784126 130.57142 
L 90.933584 129.604764 
L 92.657771 127.684458 
L 93.2325 126.668675 
L 93.807229 126.168731 
L 94.956687 124.470943 
L 95.531416 122.953771 
L 96.106146 121.115826 
L 96.680875 119.841402 
L 97.255604 117.817061 
L 97.830333 115.129499 
L 99.55452 108.88742 
L 101.853436 96.706697 
L 102.428165 94.553757 
L 103.577623 90.883646 
L 105.876539 82.286338 
L 106.451269 80.668022 
L 107.025998 79.945559 
L 107.600727 79.974457 
L 108.175456 78.76072 
L 108.750185 77.286895 
L 109.324914 76.925664 
L 109.899643 76.289897 
L 111.049101 74.48374 
L 111.62383 75.581883 
L 112.198559 74.844971 
L 112.773288 73.530089 
L 113.348017 74.975014 
L 113.922746 75.321797 
L 115.072204 78.226097 
L 115.646933 78.775169 
L 116.221662 79.627675 
L 116.796392 79.699921 
L 117.371121 79.035256 
L 117.94585 79.454284 
L 119.095308 77.113504 
L 119.670037 76.246549 
L 120.244766 74.180305 
L 121.968953 69.80218 
L 122.543682 69.310906 
L 123.118411 69.744383 
L 123.69314 70.640237 
L 124.267869 72.128511 
L 124.842598 72.995466 
L 125.417327 72.619785 
L 125.992056 73.024365 
L 126.566785 73.616784 
L 127.141515 71.94067 
L 128.865702 63.646797 
L 129.440431 64.152521 
L 130.01516 62.895436 
L 130.589889 65.221766 
L 131.164618 63.935782 
L 131.739347 64.109173 
L 132.314076 64.080275 
L 132.888805 62.938783 
L 135.187721 50.454626 
L 136.337179 42.955461 
L 136.911908 42.189651 
L 137.486637 44.660474 
L 138.061367 44.602677 
L 138.636096 44.877212 
L 139.210825 46.553326 
L 139.785554 50.093394 
L 140.360283 51.798406 
L 140.935012 51.567218 
L 141.509741 51.711711 
L 142.08447 52.636463 
L 142.659199 52.072942 
L 143.233928 52.11629 
L 143.808657 51.494972 
L 144.383386 52.260783 
L 146.107573 51.061494 
L 146.682302 48.272788 
L 147.257031 49.486525 
L 147.83176 47.391383 
L 148.40649 46.437732 
L 148.981219 47.275789 
L 150.705406 40.513537 
L 151.280135 40.831421 
L 151.854864 43.042157 
L 152.429593 44.226996 
L 153.004322 44.400387 
L 153.579051 43.128852 
L 154.15378 42.131854 
L 154.728509 43.085505 
L 155.303238 41.452739 
L 155.877967 39.343147 
L 156.452696 37.72483 
L 157.027425 35.268457 
L 157.602154 33.866879 
L 158.176883 33.751285 
L 158.751613 33.028822 
L 159.326342 30.803636 
L 159.901071 31.468302 
L 160.4758 34.531545 
L 161.050529 36.424397 
L 161.625258 37.378048 
L 162.199987 34.762733 
L 162.774716 38.880771 
L 163.349445 35.427399 
L 163.924174 36.438847 
L 164.498903 40.84587 
L 165.073632 40.600232 
L 165.648361 41.134855 
L 166.797819 46.553326 
L 167.372548 47.767064 
L 167.947277 47.160195 
L 168.522006 47.275789 
L 169.096736 47.911556 
L 169.671465 48.200542 
L 170.246194 47.506977 
L 171.395652 45.614125 
L 171.970381 43.504533 
L 172.54511 44.169199 
L 173.119839 43.475635 
L 173.694568 43.042157 
L 174.269297 42.160752 
L 174.844026 42.218549 
L 175.418755 42.666476 
L 176.568213 45.065053 
L 177.142942 47.420282 
L 177.717671 45.368487 
L 178.2924 46.68337 
L 178.867129 50.9459 
L 179.441858 49.645467 
L 180.591317 50.801408 
L 181.166046 50.96035 
L 181.740775 52.723159 
L 182.315504 53.08439 
L 182.890233 52.289681 
L 183.464962 52.101841 
L 184.039691 51.451624 
L 184.61442 51.755059 
L 185.189149 50.656915 
L 185.763878 49.833308 
L 186.913336 46.27879 
L 187.488065 46.524428 
L 188.062794 47.217992 
L 188.637523 47.26134 
L 189.212252 46.119849 
L 189.786981 45.773066 
L 190.361711 45.166198 
L 190.93644 47.665919 
L 191.511169 46.611123 
L 192.085898 46.640022 
L 192.660627 47.694818 
L 193.235356 46.885659 
L 193.810085 48.316136 
L 194.384814 48.691816 
L 194.959543 48.142745 
L 195.534272 46.452181 
L 196.109001 45.773066 
L 196.68373 45.758617 
L 197.258459 46.004254 
L 197.833188 44.776068 
L 198.407917 44.255894 
L 198.982646 43.403388 
L 199.557375 43.518982 
L 200.132104 43.099954 
L 200.706834 43.360041 
L 201.281563 42.955461 
L 201.856292 42.175201 
L 202.431021 43.620127 
L 203.00575 45.585226 
L 203.580479 43.880214 
L 204.155208 44.718271 
L 204.729937 43.099954 
L 205.304666 43.042157 
L 205.879395 45.773066 
L 206.454124 45.368487 
L 207.028853 45.859762 
L 207.603582 45.643023 
L 208.178311 43.229997 
L 208.75304 43.316693 
L 209.327769 44.1403 
L 209.902498 44.068054 
L 210.477227 42.666476 
L 211.051956 41.61168 
L 211.626686 41.467188 
L 212.201415 42.160752 
L 212.776144 41.857318 
L 213.350873 42.146303 
L 213.925602 43.302243 
L 214.500331 43.692373 
L 215.07506 44.54488 
L 215.649789 44.747169 
L 216.224518 42.738722 
L 216.799247 44.053605 
L 217.373976 43.345591 
L 217.948705 45.585226 
L 218.523434 49.096395 
L 219.098163 49.659916 
L 219.672892 49.703264 
L 220.247621 48.648468 
L 220.82235 48.012701 
L 221.397079 47.608122 
L 223.121267 43.042157 
L 224.845454 45.31069 
L 225.420183 46.076501 
L 226.569641 51.234885 
L 227.14437 51.119291 
L 227.719099 51.466074 
L 228.293828 49.515424 
L 228.868557 51.740609 
L 229.443286 49.847757 
L 230.018015 48.43173 
L 230.592744 52.087392 
L 231.167473 49.847757 
L 231.742202 48.80741 
L 232.316932 47.189094 
L 232.891661 45.065053 
L 233.46639 44.068054 
L 234.041119 42.276346 
L 234.615848 42.796519 
L 235.190577 43.027708 
L 235.765306 42.507534 
L 236.914764 45.599675 
L 237.489493 45.90311 
L 238.064222 46.784514 
L 238.638951 48.518425 
L 239.21368 50.613567 
L 239.788409 50.223437 
L 240.363138 51.899551 
L 240.937867 48.778512 
L 241.512596 49.616569 
L 242.087325 46.770065 
L 242.662055 45.715269 
L 243.236784 45.325139 
L 243.811513 46.611123 
L 244.960971 44.73272 
L 245.5357 44.689372 
L 246.110429 45.382936 
L 246.685158 44.068054 
L 247.259887 44.226996 
L 248.409345 42.969911 
L 248.984074 43.576779 
L 249.558803 43.851315 
L 250.133532 43.981359 
L 250.708261 42.550882 
L 251.28299 45.252893 
L 251.857719 44.357039 
L 252.432448 44.689372 
L 253.007177 47.015702 
L 253.581907 47.160195 
L 254.156636 46.163196 
L 254.731365 46.379935 
L 255.306094 47.738165 
L 255.880823 48.272788 
L 256.455552 48.272788 
L 257.030281 46.625573 
L 257.60501 46.249892 
L 258.179739 46.336587 
L 258.754468 46.235443 
L 259.329197 45.758617 
L 260.478655 44.617126 
L 261.053384 43.360041 
L 261.628113 46.466631 
L 262.202842 45.021705 
L 262.777571 44.790517 
L 263.3523 46.68337 
L 263.92703 46.29324 
L 264.501759 48.402831 
L 265.076488 49.818858 
L 265.651217 48.0416 
L 266.225946 47.781513 
L 266.800675 47.044601 
L 267.375404 48.243889 
L 268.524862 46.784514 
L 269.099591 46.798964 
L 269.67432 44.790517 
L 270.823778 43.851315 
L 271.398507 45.397386 
L 271.973236 42.045158 
L 272.547965 46.018704 
L 273.122694 43.981359 
L 273.697423 45.079502 
L 274.272153 44.949459 
L 274.846882 45.643023 
L 275.421611 45.397386 
L 275.99634 44.978357 
L 276.571069 46.885659 
L 277.145798 48.330585 
L 277.720527 48.735164 
L 278.295256 48.879657 
L 278.869985 48.171643 
L 279.444714 46.148747 
L 280.019443 46.856761 
L 280.594172 44.096953 
L 281.168901 45.816414 
L 281.74363 43.244446 
L 282.318359 42.767621 
L 282.893088 45.267342 
L 283.467817 45.599675 
L 284.042546 45.354038 
L 284.617275 44.602677 
L 285.192005 43.186649 
L 285.766734 43.793518 
L 286.341463 44.978357 
L 286.916192 43.461185 
L 288.06565 44.096953 
L 288.640379 45.744168 
L 289.215108 46.177646 
L 289.789837 44.848314 
L 290.364566 46.900108 
L 290.939295 43.995808 
L 291.514024 48.012701 
L 292.088753 47.608122 
L 292.663482 48.41728 
L 293.238211 47.362485 
L 294.387669 45.88866 
L 294.962398 45.830863 
L 296.111857 45.281792 
L 296.686586 45.382936 
L 297.261315 43.547881 
L 297.836044 44.906111 
L 298.410773 44.862763 
L 298.985502 47.05905 
L 299.560231 44.660474 
L 300.13496 45.440733 
L 300.709689 48.070498 
L 301.284418 49.168642 
L 301.859147 48.836309 
L 302.433876 48.865207 
L 303.008605 48.359483 
L 303.583334 45.960907 
L 304.158063 46.047602 
L 305.307521 48.966352 
L 305.882251 47.622571 
L 306.45698 45.874211 
L 307.031709 43.649026 
L 307.606438 46.394384 
L 308.181167 43.981359 
L 308.755896 47.217992 
L 309.330625 44.877212 
L 309.905354 44.15475 
L 310.480083 45.541878 
L 311.054812 46.611123 
L 311.629541 45.917559 
L 312.20427 45.411835 
L 313.928457 48.677367 
L 314.503186 48.012701 
L 315.077915 45.643023 
L 315.652644 47.189094 
L 316.227374 45.686371 
L 316.802103 45.614125 
L 317.376832 48.80741 
L 317.951561 47.232441 
L 318.52629 45.180647 
L 319.101019 44.718271 
L 319.675748 44.949459 
L 320.250477 44.963908 
L 320.825206 44.689372 
L 321.399935 44.631575 
L 321.974664 43.1722 
L 322.549393 43.1722 
L 323.124122 42.39194 
L 323.698851 44.54488 
L 324.27358 43.157751 
L 324.848309 42.912114 
L 325.423038 45.671922 
L 325.997767 47.391383 
L 326.572496 47.897107 
L 328.296684 47.304688 
L 328.871413 47.376934 
L 329.446142 46.625573 
L 330.020871 46.336587 
L 330.5956 44.848314 
L 331.170329 45.021705 
L 331.745058 43.793518 
L 332.319787 44.992807 
L 332.894516 47.550325 
L 333.469245 45.484081 
L 334.043974 44.429286 
L 334.618703 44.963908 
L 335.193432 45.729719 
L 336.917619 46.813413 
L 338.067078 45.90311 
L 338.641807 48.61957 
L 339.216536 46.87121 
L 339.791265 46.365486 
L 340.365994 47.506977 
L 340.940723 47.535876 
L 341.515452 47.752615 
L 342.66491 47.44918 
L 343.239639 47.160195 
L 343.814368 45.339589 
L 344.963826 47.333586 
L 345.538555 45.541878 
L 346.113284 46.004254 
L 346.688013 43.663475 
L 347.262742 44.862763 
L 347.837472 48.316136 
L 348.412201 46.66892 
L 348.98693 46.524428 
L 350.711117 46.900108 
L 351.285846 47.319137 
L 351.860575 47.391383 
L 352.435304 44.674923 
L 353.010033 46.29324 
L 353.584762 45.686371 
L 354.159491 46.495529 
L 354.73422 47.969353 
L 355.308949 47.348035 
L 355.883678 45.585226 
L 356.458407 45.90311 
L 358.182594 44.718271 
L 358.757324 43.547881 
L 359.332053 42.088506 
L 359.906782 44.660474 
L 360.481511 44.429286 
L 361.05624 46.972355 
L 361.630969 45.12285 
L 362.205698 45.267342 
L 362.780427 45.859762 
L 363.355156 45.932008 
L 363.929885 46.798964 
L 364.504614 46.408834 
L 365.079343 45.007256 
L 366.228801 45.671922 
L 366.80353 46.524428 
L 367.378259 43.403388 
L 367.952988 43.836866 
L 368.527717 45.874211 
L 369.677176 45.021705 
L 370.826634 42.810969 
L 371.401363 43.518982 
L 371.976092 43.504533 
L 372.550821 44.935009 
L 373.12555 44.804966 
L 373.700279 45.166198 
L 374.275008 44.848314 
L 374.849737 46.235443 
L 375.424466 50.064496 
L 375.999195 49.443178 
L 376.573924 47.83931 
L 377.148653 47.637021 
L 377.723382 48.113846 
L 378.298111 47.723716 
L 378.87284 48.532874 
L 380.022299 45.657472 
L 380.597028 43.938011 
L 381.171757 44.790517 
L 381.746486 47.333586 
L 382.321215 45.426284 
L 382.895944 44.053605 
L 383.470673 43.461185 
L 384.045402 44.963908 
L 385.19486 46.914558 
L 385.769589 45.411835 
L 386.344318 47.26134 
L 386.919047 45.657472 
L 387.493776 47.637021 
L 388.068505 50.526872 
L 388.643234 50.194539 
L 389.217963 49.284236 
L 389.792693 48.070498 
L 390.367422 47.608122 
L 390.942151 46.813413 
L 391.51688 47.26134 
L 392.091609 45.628574 
L 392.666338 46.047602 
L 393.241067 43.547881 
L 393.815796 43.446736 
L 394.390525 46.625573 
L 394.965254 44.53043 
L 395.539983 43.533432 
L 396.114712 43.966909 
L 396.689441 45.079502 
L 397.838899 44.631575 
L 398.413628 43.735721 
L 398.988357 44.487083 
L 399.563086 44.226996 
L 400.137815 49.905554 
L 400.712545 47.579223 
L 401.287274 46.553326 
L 401.862003 45.960907 
L 402.436732 46.018704 
L 403.011461 46.640022 
L 403.58619 45.989805 
L 404.160919 46.726717 
L 404.735648 44.212547 
L 405.310377 44.790517 
L 405.885106 42.969911 
L 406.459835 47.001253 
L 407.609293 42.926563 
L 408.184022 42.377491 
L 409.33348 44.559329 
L 409.908209 44.660474 
L 410.482938 46.163196 
L 411.057668 45.411835 
L 411.632397 47.593673 
L 412.207126 48.070498 
L 412.781855 52.535319 
L 413.356584 51.047045 
L 414.506042 45.989805 
L 415.080771 46.596674 
L 415.6555 48.171643 
L 416.230229 47.521426 
L 416.804958 45.70082 
L 417.379687 46.741167 
L 417.954416 43.634576 
L 418.529145 44.400387 
L 419.103874 46.134298 
L 419.678603 45.209545 
L 420.253332 43.793518 
L 420.828061 44.487083 
L 421.402791 46.495529 
L 421.97752 47.290238 
L 422.552249 45.469632 
L 423.126978 47.940455 
L 423.701707 47.391383 
L 424.276436 47.65147 
L 424.851165 49.443178 
L 425.425894 48.735164 
L 426.000623 48.489527 
L 426.575352 47.087949 
L 427.150081 47.203543 
L 427.72481 46.640022 
L 428.299539 44.660474 
L 428.874268 45.773066 
L 429.448997 43.981359 
L 430.023726 45.079502 
L 430.598455 47.709267 
L 431.173184 46.957905 
L 431.747913 46.957905 
L 432.322643 46.264341 
L 432.897372 45.238444 
L 433.472101 46.466631 
L 434.04683 46.582225 
L 434.621559 49.920003 
L 435.196288 49.732163 
L 435.771017 51.35048 
L 436.345746 56.292125 
L 436.920475 57.37582 
L 437.495204 57.867094 
L 438.069933 58.14163 
L 438.644662 58.604006 
L 439.219391 57.708152 
L 439.79412 56.20543 
L 440.368849 58.546209 
L 440.943578 57.534761 
L 441.518307 62.519755 
L 442.093036 62.635349 
L 442.667766 64.427057 
L 443.242495 66.840083 
L 443.817224 67.66369 
L 444.966682 73.602335 
L 445.541411 74.758275 
L 446.11614 78.572879 
L 446.690869 79.714371 
L 447.265598 83.760162 
L 447.840327 86.014247 
L 448.989785 91.533863 
L 449.564514 93.686802 
L 450.713972 95.203974 
L 451.288701 95.073931 
L 451.86343 95.86864 
L 452.438159 94.279221 
L 453.012889 93.903541 
L 453.587618 94.192526 
L 454.162347 93.556759 
L 455.311805 92.632006 
L 455.886534 92.689803 
L 456.461263 92.863194 
L 457.610721 94.206975 
L 458.18545 92.588658 
L 458.760179 93.209976 
L 459.334908 95.319568 
L 459.909637 96.013132 
L 460.484366 96.331016 
L 461.059095 97.299116 
L 461.633824 97.385812 
L 462.208553 99.018578 
L 462.783282 99.813287 
L 465.082199 111.285997 
L 465.656928 112.918763 
L 466.231657 113.410037 
L 466.806386 113.713472 
L 467.381115 114.161399 
L 467.955844 115.086151 
L 468.530573 115.678571 
L 469.105302 116.588874 
L 469.680031 117.23909 
L 470.829489 118.149394 
L 471.404218 117.528076 
L 471.978947 117.44138 
L 472.553676 117.094598 
L 473.128405 117.022352 
L 473.703134 117.788162 
L 474.277864 118.134944 
L 474.852593 118.792386 
L 475.427322 118.484616 
L 476.002051 119.256207 
L 476.57678 119.459941 
L 477.151509 119.530743 
L 477.726238 119.419483 
L 478.300967 119.446937 
L 480.025154 120.571089 
L 480.599883 121.676457 
L 481.174612 121.995786 
L 481.749341 122.79483 
L 482.32407 122.871411 
L 483.473528 123.579424 
L 484.622987 123.482614 
L 485.772445 123.148836 
L 486.347174 123.287549 
L 486.921903 123.014458 
L 487.496632 123.297664 
L 488.071361 124.105377 
L 488.64609 124.330786 
L 489.220819 124.742589 
L 490.370277 126.154282 
L 491.519735 127.762484 
L 493.243922 131.126271 
L 494.39338 133.036318 
L 495.542839 134.332561 
L 497.267026 135.672007 
L 497.841755 135.839619 
L 498.416484 136.20085 
L 498.991213 136.355457 
L 500.140671 136.895859 
L 501.864858 137.511398 
L 502.439587 137.622657 
L 503.014316 137.915977 
L 503.589045 137.829281 
L 504.163774 138.076364 
L 504.738503 137.879854 
L 505.313233 137.963659 
L 507.03742 137.770039 
L 508.186878 137.602428 
L 508.761607 137.55908 
L 510.485794 137.051911 
L 512.209981 136.78749 
L 512.78471 136.796159 
L 514.508897 136.417589 
L 515.083626 136.145943 
L 515.658355 136.10982 
L 516.233085 135.829504 
L 517.382543 135.42637 
L 518.532001 134.859959 
L 519.10673 134.475609 
L 522.555104 133.093682 
L 523.704562 132.718594 
L 524.85402 132.3796 
L 528.877124 132.013022 
L 536.348601 131.93962 
L 538.647518 132.170085 
L 539.222247 132.339575 
L 539.796976 132.337986 
L 540.946434 132.561415 
L 542.095892 132.659086 
L 542.095892 132.659086 
" clip-path="url(#p7f3a6d443a)" style="fill: none; stroke: #ff7f0e; stroke-width: 2; stroke-linecap: square"/>
   </g>
   <g id="patch_3">
    <path d="M 56.909624 143.44 
L 56.909624 25.44 
" style="fill: none; stroke: #000000; stroke-width: 0.8; stroke-linejoin: miter; stroke-linecap: square"/>
   </g>
   <g id="patch_4">
    <path d="M 565.2 143.44 
L 565.2 25.44 
" style="fill: none; stroke: #000000; stroke-width: 0.8; stroke-linejoin: miter; stroke-linecap: square"/>
   </g>
   <g id="patch_5">
    <path d="M 56.909624 143.44 
L 565.2 143.44 
" style="fill: none; stroke: #000000; stroke-width: 0.8; stroke-linejoin: miter; stroke-linecap: square"/>
   </g>
   <g id="patch_6">
    <path d="M 56.909624 25.44 
L 565.2 25.44 
" style="fill: none; stroke: #000000; stroke-width: 0.8; stroke-linejoin: miter; stroke-linecap: square"/>
   </g>
   <g id="text_17">
    <!-- Translational Velocity -->
    <g transform="translate(247.577625 19.44)scale(0.12 -0.12)">
     <defs>
      <path id="DejaVuSans-72" d="M 2631 2963 
Q 2534 3019 2420 3045 
Q 2306 3072 2169 3072 
Q 1681 3072 1420 2755 
Q 1159 2438 1159 1844 
L 1159 0 
L 581 0 
L 581 3500 
L 1159 3500 
L 1159 2956 
Q 1341 3275 1631 3429 
Q 1922 3584 2338 3584 
Q 2397 3584 2469 3576 
Q 2541 3569 2628 3553 
L 2631 2963 
z
" transform="scale(0.015625)"/>
      <path id="DejaVuSans-61" d="M 2194 1759 
Q 1497 1759 1228 1600 
Q 959 1441 959 1056 
Q 959 750 1161 570 
Q 1363 391 1709 391 
Q 2188 391 2477 730 
Q 2766 1069 2766 1631 
L 2766 1759 
L 2194 1759 
z
M 3341 1997 
L 3341 0 
L 2766 0 
L 2766 531 
Q 2569 213 2275 61 
Q 1981 -91 1556 -91 
Q 1019 -91 701 211 
Q 384 513 384 1019 
Q 384 1609 779 1909 
Q 1175 2209 1959 2209 
L 2766 2209 
L 2766 2266 
Q 2766 2663 2505 2880 
Q 2244 3097 1772 3097 
Q 1472 3097 1187 3025 
Q 903 2953 641 2809 
L 641 3341 
Q 956 3463 1253 3523 
Q 1550 3584 1831 3584 
Q 2591 3584 2966 3190 
Q 3341 2797 3341 1997 
z
" transform="scale(0.015625)"/>
      <path id="DejaVuSans-6e" d="M 3513 2113 
L 3513 0 
L 2938 0 
L 2938 2094 
Q 2938 2591 2744 2837 
Q 2550 3084 2163 3084 
Q 1697 3084 1428 2787 
Q 1159 2491 1159 1978 
L 1159 0 
L 581 0 
L 581 3500 
L 1159 3500 
L 1159 2956 
Q 1366 3272 1645 3428 
Q 1925 3584 2291 3584 
Q 2894 3584 3203 3211 
Q 3513 2838 3513 2113 
z
" transform="scale(0.015625)"/>
      <path id="DejaVuSans-74" d="M 1172 4494 
L 1172 3500 
L 2356 3500 
L 2356 3053 
L 1172 3053 
L 1172 1153 
Q 1172 725 1289 603 
Q 1406 481 1766 481 
L 2356 481 
L 2356 0 
L 1766 0 
Q 1100 0 847 248 
Q 594 497 594 1153 
L 594 3053 
L 172 3053 
L 172 3500 
L 594 3500 
L 594 4494 
L 1172 4494 
z
" transform="scale(0.015625)"/>
      <path id="DejaVuSans-6f" d="M 1959 3097 
Q 1497 3097 1228 2736 
Q 959 2375 959 1747 
Q 959 1119 1226 758 
Q 1494 397 1959 397 
Q 2419 397 2687 759 
Q 2956 1122 2956 1747 
Q 2956 2369 2687 2733 
Q 2419 3097 1959 3097 
z
M 1959 3584 
Q 2709 3584 3137 3096 
Q 3566 2609 3566 1747 
Q 3566 888 3137 398 
Q 2709 -91 1959 -91 
Q 1206 -91 779 398 
Q 353 888 353 1747 
Q 353 2609 779 3096 
Q 1206 3584 1959 3584 
z
" transform="scale(0.015625)"/>
      <path id="DejaVuSans-56" d="M 1831 0 
L 50 4666 
L 709 4666 
L 2188 738 
L 3669 4666 
L 4325 4666 
L 2547 0 
L 1831 0 
z
" transform="scale(0.015625)"/>
      <path id="DejaVuSans-63" d="M 3122 3366 
L 3122 2828 
Q 2878 2963 2633 3030 
Q 2388 3097 2138 3097 
Q 1578 3097 1268 2742 
Q 959 2388 959 1747 
Q 959 1106 1268 751 
Q 1578 397 2138 397 
Q 2388 397 2633 464 
Q 2878 531 3122 666 
L 3122 134 
Q 2881 22 2623 -34 
Q 2366 -91 2075 -91 
Q 1284 -91 818 406 
Q 353 903 353 1747 
Q 353 2603 823 3093 
Q 1294 3584 2113 3584 
Q 2378 3584 2631 3529 
Q 2884 3475 3122 3366 
z
" transform="scale(0.015625)"/>
      <path id="DejaVuSans-79" d="M 2059 -325 
Q 1816 -950 1584 -1140 
Q 1353 -1331 966 -1331 
L 506 -1331 
L 506 -850 
L 844 -850 
Q 1081 -850 1212 -737 
Q 1344 -625 1503 -206 
L 1606 56 
L 191 3500 
L 800 3500 
L 1894 763 
L 2988 3500 
L 3597 3500 
L 2059 -325 
z
" transform="scale(0.015625)"/>
     </defs>
     <use xlink:href="#DejaVuSans-54"/>
     <use xlink:href="#DejaVuSans-72" x="46.333984"/>
     <use xlink:href="#DejaVuSans-61" x="87.447266"/>
     <use xlink:href="#DejaVuSans-6e" x="148.726562"/>
     <use xlink:href="#DejaVuSans-73" x="212.105469"/>
     <use xlink:href="#DejaVuSans-6c" x="264.205078"/>
     <use xlink:href="#DejaVuSans-61" x="291.988281"/>
     <use xlink:href="#DejaVuSans-74" x="353.267578"/>
     <use xlink:href="#DejaVuSans-69" x="392.476562"/>
     <use xlink:href="#DejaVuSans-6f" x="420.259766"/>
     <use xlink:href="#DejaVuSans-6e" x="481.441406"/>
     <use xlink:href="#DejaVuSans-61" x="544.820312"/>
     <use xlink:href="#DejaVuSans-6c" x="606.099609"/>
     <use xlink:href="#DejaVuSans-20" x="633.882812"/>
     <use xlink:href="#DejaVuSans-56" x="665.669922"/>
     <use xlink:href="#DejaVuSans-65" x="726.328125"/>
     <use xlink:href="#DejaVuSans-6c" x="787.851562"/>
     <use xlink:href="#DejaVuSans-6f" x="815.634766"/>
     <use xlink:href="#DejaVuSans-63" x="876.816406"/>
     <use xlink:href="#DejaVuSans-69" x="931.796875"/>
     <use xlink:href="#DejaVuSans-74" x="959.580078"/>
     <use xlink:href="#DejaVuSans-79" x="998.789062"/>
    </g>
   </g>
   <g id="legend_1">
    <g id="patch_7">
     <path d="M 475.682812 62.79625 
L 558.2 62.79625 
Q 560.2 62.79625 560.2 60.79625 
L 560.2 32.44 
Q 560.2 30.44 558.2 30.44 
L 475.682812 30.44 
Q 473.682812 30.44 473.682812 32.44 
L 473.682812 60.79625 
Q 473.682812 62.79625 475.682812 62.79625 
z
" style="fill: #ffffff; opacity: 0.8; stroke: #cccccc; stroke-linejoin: miter"/>
    </g>
    <g id="line2d_29">
     <path d="M 477.682812 38.538437 
L 487.682812 38.538437 
L 497.682812 38.538437 
" style="fill: none; stroke: #1f77b4; stroke-width: 2; stroke-linecap: square"/>
    </g>
    <g id="text_18">
     <!-- Reference -->
     <g transform="translate(505.682812 42.038437)scale(0.1 -0.1)">
      <defs>
       <path id="DejaVuSans-52" d="M 2841 2188 
Q 3044 2119 3236 1894 
Q 3428 1669 3622 1275 
L 4263 0 
L 3584 0 
L 2988 1197 
Q 2756 1666 2539 1819 
Q 2322 1972 1947 1972 
L 1259 1972 
L 1259 0 
L 628 0 
L 628 4666 
L 2053 4666 
Q 2853 4666 3247 4331 
Q 3641 3997 3641 3322 
Q 3641 2881 3436 2590 
Q 3231 2300 2841 2188 
z
M 1259 4147 
L 1259 2491 
L 2053 2491 
Q 2509 2491 2742 2702 
Q 2975 2913 2975 3322 
Q 2975 3731 2742 3939 
Q 2509 4147 2053 4147 
L 1259 4147 
z
" transform="scale(0.015625)"/>
       <path id="DejaVuSans-66" d="M 2375 4863 
L 2375 4384 
L 1825 4384 
Q 1516 4384 1395 4259 
Q 1275 4134 1275 3809 
L 1275 3500 
L 2222 3500 
L 2222 3053 
L 1275 3053 
L 1275 0 
L 697 0 
L 697 3053 
L 147 3053 
L 147 3500 
L 697 3500 
L 697 3744 
Q 697 4328 969 4595 
Q 1241 4863 1831 4863 
L 2375 4863 
z
" transform="scale(0.015625)"/>
      </defs>
      <use xlink:href="#DejaVuSans-52"/>
      <use xlink:href="#DejaVuSans-65" x="64.982422"/>
      <use xlink:href="#DejaVuSans-66" x="126.505859"/>
      <use xlink:href="#DejaVuSans-65" x="161.710938"/>
      <use xlink:href="#DejaVuSans-72" x="223.234375"/>
      <use xlink:href="#DejaVuSans-65" x="262.097656"/>
      <use xlink:href="#DejaVuSans-6e" x="323.621094"/>
      <use xlink:href="#DejaVuSans-63" x="387"/>
      <use xlink:href="#DejaVuSans-65" x="441.980469"/>
     </g>
    </g>
    <g id="line2d_30">
     <path d="M 477.682812 53.216563 
L 487.682812 53.216563 
L 497.682812 53.216563 
" style="fill: none; stroke: #ff7f0e; stroke-width: 2; stroke-linecap: square"/>
    </g>
    <g id="text_19">
     <!-- Estimated -->
     <g transform="translate(505.682812 56.716563)scale(0.1 -0.1)">
      <defs>
       <path id="DejaVuSans-45" d="M 628 4666 
L 3578 4666 
L 3578 4134 
L 1259 4134 
L 1259 2753 
L 3481 2753 
L 3481 2222 
L 1259 2222 
L 1259 531 
L 3634 531 
L 3634 0 
L 628 0 
L 628 4666 
z
" transform="scale(0.015625)"/>
       <path id="DejaVuSans-64" d="M 2906 2969 
L 2906 4863 
L 3481 4863 
L 3481 0 
L 2906 0 
L 2906 525 
Q 2725 213 2448 61 
Q 2172 -91 1784 -91 
Q 1150 -91 751 415 
Q 353 922 353 1747 
Q 353 2572 751 3078 
Q 1150 3584 1784 3584 
Q 2172 3584 2448 3432 
Q 2725 3281 2906 2969 
z
M 947 1747 
Q 947 1113 1208 752 
Q 1469 391 1925 391 
Q 2381 391 2643 752 
Q 2906 1113 2906 1747 
Q 2906 2381 2643 2742 
Q 2381 3103 1925 3103 
Q 1469 3103 1208 2742 
Q 947 2381 947 1747 
z
" transform="scale(0.015625)"/>
      </defs>
      <use xlink:href="#DejaVuSans-45"/>
      <use xlink:href="#DejaVuSans-73" x="63.183594"/>
      <use xlink:href="#DejaVuSans-74" x="115.283203"/>
      <use xlink:href="#DejaVuSans-69" x="154.492188"/>
      <use xlink:href="#DejaVuSans-6d" x="182.275391"/>
      <use xlink:href="#DejaVuSans-61" x="279.6875"/>
      <use xlink:href="#DejaVuSans-74" x="340.966797"/>
      <use xlink:href="#DejaVuSans-65" x="380.175781"/>
      <use xlink:href="#DejaVuSans-64" x="441.699219"/>
     </g>
    </g>
   </g>
  </g>
  <g id="axes_2">
   <g id="patch_8">
    <path d="M 56.909624 318.04 
L 565.2 318.04 
L 565.2 200.04 
L 56.909624 200.04 
z
" style="fill: #ffffff"/>
   </g>
   <g id="matplotlib.axis_3">
    <g id="xtick_10">
     <g id="line2d_31">
      <path d="M 80.013732 318.04 
L 80.013732 200.04 
" clip-path="url(#p5fba947781)" style="fill: none; stroke: #b0b0b0; stroke-width: 0.8; stroke-linecap: square"/>
     </g>
     <g id="line2d_32">
      <g>
       <use xlink:href="#m346fa7ee85" x="80.013732" y="318.04" style="stroke: #000000; stroke-width: 0.8"/>
      </g>
     </g>
     <g id="text_20">
      <!-- 0.0 -->
      <g transform="translate(72.06217 332.638438)scale(0.1 -0.1)">
       <use xlink:href="#DejaVuSans-30"/>
       <use xlink:href="#DejaVuSans-2e" x="63.623047"/>
       <use xlink:href="#DejaVuSans-30" x="95.410156"/>
      </g>
     </g>
    </g>
    <g id="xtick_11">
     <g id="line2d_33">
      <path d="M 137.486637 318.04 
L 137.486637 200.04 
" clip-path="url(#p5fba947781)" style="fill: none; stroke: #b0b0b0; stroke-width: 0.8; stroke-linecap: square"/>
     </g>
     <g id="line2d_34">
      <g>
       <use xlink:href="#m346fa7ee85" x="137.486637" y="318.04" style="stroke: #000000; stroke-width: 0.8"/>
      </g>
     </g>
     <g id="text_21">
      <!-- 0.1 -->
      <g transform="translate(129.535075 332.638438)scale(0.1 -0.1)">
       <use xlink:href="#DejaVuSans-30"/>
       <use xlink:href="#DejaVuSans-2e" x="63.623047"/>
       <use xlink:href="#DejaVuSans-31" x="95.410156"/>
      </g>
     </g>
    </g>
    <g id="xtick_12">
     <g id="line2d_35">
      <path d="M 194.959543 318.04 
L 194.959543 200.04 
" clip-path="url(#p5fba947781)" style="fill: none; stroke: #b0b0b0; stroke-width: 0.8; stroke-linecap: square"/>
     </g>
     <g id="line2d_36">
      <g>
       <use xlink:href="#m346fa7ee85" x="194.959543" y="318.04" style="stroke: #000000; stroke-width: 0.8"/>
      </g>
     </g>
     <g id="text_22">
      <!-- 0.2 -->
      <g transform="translate(187.00798 332.638438)scale(0.1 -0.1)">
       <use xlink:href="#DejaVuSans-30"/>
       <use xlink:href="#DejaVuSans-2e" x="63.623047"/>
       <use xlink:href="#DejaVuSans-32" x="95.410156"/>
      </g>
     </g>
    </g>
    <g id="xtick_13">
     <g id="line2d_37">
      <path d="M 252.432448 318.04 
L 252.432448 200.04 
" clip-path="url(#p5fba947781)" style="fill: none; stroke: #b0b0b0; stroke-width: 0.8; stroke-linecap: square"/>
     </g>
     <g id="line2d_38">
      <g>
       <use xlink:href="#m346fa7ee85" x="252.432448" y="318.04" style="stroke: #000000; stroke-width: 0.8"/>
      </g>
     </g>
     <g id="text_23">
      <!-- 0.3 -->
      <g transform="translate(244.480886 332.638438)scale(0.1 -0.1)">
       <use xlink:href="#DejaVuSans-30"/>
       <use xlink:href="#DejaVuSans-2e" x="63.623047"/>
       <use xlink:href="#DejaVuSans-33" x="95.410156"/>
      </g>
     </g>
    </g>
    <g id="xtick_14">
     <g id="line2d_39">
      <path d="M 309.905354 318.04 
L 309.905354 200.04 
" clip-path="url(#p5fba947781)" style="fill: none; stroke: #b0b0b0; stroke-width: 0.8; stroke-linecap: square"/>
     </g>
     <g id="line2d_40">
      <g>
       <use xlink:href="#m346fa7ee85" x="309.905354" y="318.04" style="stroke: #000000; stroke-width: 0.8"/>
      </g>
     </g>
     <g id="text_24">
      <!-- 0.4 -->
      <g transform="translate(301.953791 332.638438)scale(0.1 -0.1)">
       <use xlink:href="#DejaVuSans-30"/>
       <use xlink:href="#DejaVuSans-2e" x="63.623047"/>
       <use xlink:href="#DejaVuSans-34" x="95.410156"/>
      </g>
     </g>
    </g>
    <g id="xtick_15">
     <g id="line2d_41">
      <path d="M 367.378259 318.04 
L 367.378259 200.04 
" clip-path="url(#p5fba947781)" style="fill: none; stroke: #b0b0b0; stroke-width: 0.8; stroke-linecap: square"/>
     </g>
     <g id="line2d_42">
      <g>
       <use xlink:href="#m346fa7ee85" x="367.378259" y="318.04" style="stroke: #000000; stroke-width: 0.8"/>
      </g>
     </g>
     <g id="text_25">
      <!-- 0.5 -->
      <g transform="translate(359.426697 332.638438)scale(0.1 -0.1)">
       <use xlink:href="#DejaVuSans-30"/>
       <use xlink:href="#DejaVuSans-2e" x="63.623047"/>
       <use xlink:href="#DejaVuSans-35" x="95.410156"/>
      </g>
     </g>
    </g>
    <g id="xtick_16">
     <g id="line2d_43">
      <path d="M 424.851165 318.04 
L 424.851165 200.04 
" clip-path="url(#p5fba947781)" style="fill: none; stroke: #b0b0b0; stroke-width: 0.8; stroke-linecap: square"/>
     </g>
     <g id="line2d_44">
      <g>
       <use xlink:href="#m346fa7ee85" x="424.851165" y="318.04" style="stroke: #000000; stroke-width: 0.8"/>
      </g>
     </g>
     <g id="text_26">
      <!-- 0.6 -->
      <g transform="translate(416.899602 332.638438)scale(0.1 -0.1)">
       <use xlink:href="#DejaVuSans-30"/>
       <use xlink:href="#DejaVuSans-2e" x="63.623047"/>
       <use xlink:href="#DejaVuSans-36" x="95.410156"/>
      </g>
     </g>
    </g>
    <g id="xtick_17">
     <g id="line2d_45">
      <path d="M 482.32407 318.04 
L 482.32407 200.04 
" clip-path="url(#p5fba947781)" style="fill: none; stroke: #b0b0b0; stroke-width: 0.8; stroke-linecap: square"/>
     </g>
     <g id="line2d_46">
      <g>
       <use xlink:href="#m346fa7ee85" x="482.32407" y="318.04" style="stroke: #000000; stroke-width: 0.8"/>
      </g>
     </g>
     <g id="text_27">
      <!-- 0.7 -->
      <g transform="translate(474.372508 332.638438)scale(0.1 -0.1)">
       <use xlink:href="#DejaVuSans-30"/>
       <use xlink:href="#DejaVuSans-2e" x="63.623047"/>
       <use xlink:href="#DejaVuSans-37" x="95.410156"/>
      </g>
     </g>
    </g>
    <g id="xtick_18">
     <g id="line2d_47">
      <path d="M 539.796976 318.04 
L 539.796976 200.04 
" clip-path="url(#p5fba947781)" style="fill: none; stroke: #b0b0b0; stroke-width: 0.8; stroke-linecap: square"/>
     </g>
     <g id="line2d_48">
      <g>
       <use xlink:href="#m346fa7ee85" x="539.796976" y="318.04" style="stroke: #000000; stroke-width: 0.8"/>
      </g>
     </g>
     <g id="text_28">
      <!-- 0.8 -->
      <g transform="translate(531.845413 332.638438)scale(0.1 -0.1)">
       <use xlink:href="#DejaVuSans-30"/>
       <use xlink:href="#DejaVuSans-2e" x="63.623047"/>
       <use xlink:href="#DejaVuSans-38" x="95.410156"/>
      </g>
     </g>
    </g>
    <g id="text_29">
     <!-- Time [ms] -->
     <g transform="translate(285.855593 346.316563)scale(0.1 -0.1)">
      <use xlink:href="#DejaVuSans-54"/>
      <use xlink:href="#DejaVuSans-69" x="57.958984"/>
      <use xlink:href="#DejaVuSans-6d" x="85.742188"/>
      <use xlink:href="#DejaVuSans-65" x="183.154297"/>
      <use xlink:href="#DejaVuSans-20" x="244.677734"/>
      <use xlink:href="#DejaVuSans-5b" x="276.464844"/>
      <use xlink:href="#DejaVuSans-6d" x="315.478516"/>
      <use xlink:href="#DejaVuSans-73" x="412.890625"/>
      <use xlink:href="#DejaVuSans-5d" x="464.990234"/>
     </g>
    </g>
   </g>
   <g id="matplotlib.axis_4">
    <g id="ytick_5">
     <g id="line2d_49">
      <path d="M 56.909624 303.069225 
L 565.2 303.069225 
" clip-path="url(#p5fba947781)" style="fill: none; stroke: #b0b0b0; stroke-width: 0.8; stroke-linecap: square"/>
     </g>
     <g id="line2d_50">
      <g>
       <use xlink:href="#mbe62f19385" x="56.909624" y="303.069225" style="stroke: #000000; stroke-width: 0.8"/>
      </g>
     </g>
     <g id="text_30">
      <!-- $\mathdefault{1}$ -->
      <g transform="translate(35.109624 306.868443)scale(0.1 -0.1)">
       <defs>
        <path id="DejaVuSans-2212" d="M 678 2272 
L 4684 2272 
L 4684 1741 
L 678 1741 
L 678 2272 
z
" transform="scale(0.015625)"/>
       </defs>
       <use xlink:href="#DejaVuSans-2212" transform="translate(0 0.09375)"/>
       <use xlink:href="#DejaVuSans-31" transform="translate(83.789062 0.09375)"/>
      </g>
     </g>
    </g>
    <g id="ytick_6">
     <g id="line2d_51">
      <path d="M 56.909624 261.116652 
L 565.2 261.116652 
" clip-path="url(#p5fba947781)" style="fill: none; stroke: #b0b0b0; stroke-width: 0.8; stroke-linecap: square"/>
     </g>
     <g id="line2d_52">
      <g>
       <use xlink:href="#mbe62f19385" x="56.909624" y="261.116652" style="stroke: #000000; stroke-width: 0.8"/>
      </g>
     </g>
     <g id="text_31">
      <!-- $\mathdefault{0}$ -->
      <g transform="translate(43.509624 264.915871)scale(0.1 -0.1)">
       <use xlink:href="#DejaVuSans-30" transform="translate(0 0.78125)"/>
      </g>
     </g>
    </g>
    <g id="ytick_7">
     <g id="line2d_53">
      <path d="M 56.909624 219.16408 
L 565.2 219.16408 
" clip-path="url(#p5fba947781)" style="fill: none; stroke: #b0b0b0; stroke-width: 0.8; stroke-linecap: square"/>
     </g>
     <g id="line2d_54">
      <g>
       <use xlink:href="#mbe62f19385" x="56.909624" y="219.16408" style="stroke: #000000; stroke-width: 0.8"/>
      </g>
     </g>
     <g id="text_32">
      <!-- $\mathdefault{1}$ -->
      <g transform="translate(43.509624 222.963299)scale(0.1 -0.1)">
       <use xlink:href="#DejaVuSans-31" transform="translate(0 0.09375)"/>
      </g>
     </g>
    </g>
    <g id="text_33">
     <!-- vel. [rad/s] -->
     <g transform="translate(29.029937 286.1275)rotate(-90)scale(0.1 -0.1)">
      <use xlink:href="#DejaVuSans-76"/>
      <use xlink:href="#DejaVuSans-65" x="59.179688"/>
      <use xlink:href="#DejaVuSans-6c" x="120.703125"/>
      <use xlink:href="#DejaVuSans-2e" x="148.486328"/>
      <use xlink:href="#DejaVuSans-20" x="180.273438"/>
      <use xlink:href="#DejaVuSans-5b" x="212.060547"/>
      <use xlink:href="#DejaVuSans-72" x="251.074219"/>
      <use xlink:href="#DejaVuSans-61" x="292.1875"/>
      <use xlink:href="#DejaVuSans-64" x="353.466797"/>
      <use xlink:href="#DejaVuSans-2f" x="416.943359"/>
      <use xlink:href="#DejaVuSans-73" x="450.634766"/>
      <use xlink:href="#DejaVuSans-5d" x="502.734375"/>
     </g>
    </g>
   </g>
   <g id="line2d_55">
    <path d="M 80.013732 261.116652 
L 542.095892 261.116652 
L 542.095892 261.116652 
" clip-path="url(#p5fba947781)" style="fill: none; stroke: #1f77b4; stroke-width: 2; stroke-linecap: square"/>
   </g>
   <g id="line2d_56">
    <path d="M 80.013732 261.116652 
L 80.588461 260.953792 
L 81.16319 260.909155 
L 83.462106 261.199341 
L 84.611564 261.020791 
L 85.761023 261.087743 
L 86.335752 261.46725 
L 87.48521 263.364891 
L 89.209397 265.262406 
L 89.784126 266.155156 
L 90.358855 266.759273 
L 90.933584 266.893522 
L 92.083042 266.826397 
L 92.657771 266.578877 
L 93.2325 266.532729 
L 93.807229 266.734102 
L 94.381958 267.271095 
L 95.531416 269.461019 
L 96.106146 270.732182 
L 97.255604 277.339712 
L 98.979791 282.94038 
L 100.129249 287.408329 
L 101.853436 297.497923 
L 102.428165 297.653148 
L 103.002894 296.516233 
L 103.577623 298.433465 
L 104.152352 302.230173 
L 104.727081 305.082948 
L 105.30181 307.306434 
L 105.876539 310.49483 
L 106.451269 312.676364 
L 107.025998 310.998261 
L 107.600727 306.047857 
L 108.175456 302.184025 
L 108.750185 296.96093 
L 109.324914 295.131798 
L 109.899643 294.171084 
L 110.474372 291.024641 
L 111.62383 282.092938 
L 112.198559 281.090272 
L 112.773288 280.733675 
L 113.348017 278.010953 
L 113.922746 271.957197 
L 114.497475 261.868862 
L 115.072204 254.500732 
L 116.221662 246.601062 
L 117.371121 233.608351 
L 117.94585 222.042027 
L 118.520579 221.018384 
L 119.670037 239.456539 
L 120.244766 243.026703 
L 120.819495 241.084299 
L 121.394224 237.400863 
L 121.968953 231.754047 
L 122.543682 223.89633 
L 123.118411 212.577526 
L 123.69314 212.703384 
L 124.267869 216.05959 
L 124.842598 215.178586 
L 125.992056 207.669075 
L 126.566785 205.445589 
L 127.141515 205.403636 
L 127.716244 208.508127 
L 128.865702 236.083552 
L 129.440431 242.850502 
L 130.01516 235.391335 
L 130.589889 208.298364 
L 131.164618 206.242688 
L 131.739347 210.773566 
L 132.314076 218.283076 
L 132.888805 221.731577 
L 133.463534 221.576353 
L 134.038263 218.492839 
L 134.612992 221.886802 
L 135.76245 232.467241 
L 136.337179 244.457286 
L 136.911908 249.055288 
L 137.486637 245.640348 
L 138.061367 239.859284 
L 138.636096 236.666693 
L 139.210825 239.88026 
L 139.785554 245.438976 
L 140.360283 246.777263 
L 140.935012 245.883673 
L 141.509741 252.91912 
L 142.08447 252.335979 
L 142.659199 271.667724 
L 143.233928 274.36947 
L 143.808657 261.444931 
L 144.383386 252.986244 
L 144.958115 252.961072 
L 146.107573 262.04758 
L 146.682302 263.877971 
L 147.83176 265.999932 
L 148.40649 266.268428 
L 149.555948 280.196682 
L 150.130677 285.465925 
L 150.705406 286.871336 
L 151.280135 286.581864 
L 151.854864 286.51474 
L 153.004322 294.10396 
L 153.579051 294.640953 
L 154.15378 292.765673 
L 154.728509 293.008998 
L 155.303238 295.018526 
L 155.877967 294.036836 
L 157.027425 305.376616 
L 157.602154 306.299573 
L 158.176883 306.886909 
L 158.751613 308.439154 
L 159.326342 302.855266 
L 159.901071 304.327802 
L 160.4758 268.74363 
L 161.050529 266.532729 
L 161.625258 270.283289 
L 162.199987 257.31491 
L 162.774716 253.363817 
L 163.349445 253.519041 
L 163.924174 256.66968 
L 164.498903 255.952291 
L 165.648361 255.549546 
L 166.22309 250.171226 
L 166.797819 252.625452 
L 167.372548 254.211259 
L 167.947277 254.7944 
L 168.522006 253.787538 
L 169.096736 250.594947 
L 169.671465 249.525157 
L 170.246194 247.893202 
L 170.820923 247.826077 
L 171.395652 248.698691 
L 171.970381 248.874892 
L 172.54511 247.649877 
L 173.119839 248.02745 
L 173.694568 249.25666 
L 174.269297 249.411885 
L 174.844026 249.101436 
L 175.418755 249.277636 
L 175.993484 247.851249 
L 176.568213 246.017922 
L 177.142942 245.573224 
L 178.2924 243.676968 
L 178.867129 248.900063 
L 179.441858 249.747505 
L 180.016588 251.13194 
L 180.591317 253.875638 
L 181.166046 255.708966 
L 181.740775 258.520627 
L 183.464962 272.649414 
L 184.039691 274.45757 
L 184.61442 277.406836 
L 185.189149 278.879371 
L 185.763878 273.589152 
L 186.338607 263.40936 
L 186.913336 258.944768 
L 187.488065 262.918096 
L 188.637523 268.789778 
L 189.212252 275.552532 
L 189.786981 276.693642 
L 190.361711 273.253531 
L 190.93644 271.5125 
L 192.085898 278.20813 
L 192.660627 276.534223 
L 193.235356 276.936967 
L 193.810085 277.13834 
L 194.384814 275.707757 
L 194.959543 273.010207 
L 195.534272 273.077331 
L 196.109001 274.126145 
L 196.68373 273.878625 
L 197.258459 271.957197 
L 197.833188 268.252785 
L 198.407917 268.810754 
L 198.982646 269.771468 
L 199.557375 267.405343 
L 200.132104 263.498719 
L 200.706834 264.815611 
L 201.856292 262.248533 
L 202.431021 263.92286 
L 203.00575 264.525718 
L 203.580479 262.337892 
L 204.155208 256.577384 
L 204.729937 254.102182 
L 205.304666 250.460699 
L 205.879395 249.499985 
L 206.454124 246.575891 
L 207.028853 245.061403 
L 207.603582 245.862697 
L 208.178311 244.633487 
L 208.75304 242.045013 
L 209.327769 240.194905 
L 209.902498 239.188043 
L 210.477227 240.060656 
L 211.051956 243.093827 
L 211.626686 245.283752 
L 212.201415 244.054541 
L 212.776144 241.843641 
L 213.350873 241.709392 
L 213.925602 242.00306 
L 214.500331 241.709392 
L 215.07506 242.468734 
L 215.649789 244.27689 
L 216.224518 246.575891 
L 216.799247 247.268108 
L 217.373976 247.066736 
L 217.948705 250.527823 
L 218.523434 257.850645 
L 219.098163 262.181409 
L 219.672892 263.40936 
L 220.247621 262.04758 
L 220.82235 262.672673 
L 221.397079 262.136939 
L 221.971809 261.846627 
L 222.546538 262.427251 
L 223.121267 262.605549 
L 223.695996 261.712798 
L 224.270725 262.449486 
L 224.845454 263.900625 
L 225.994912 272.317989 
L 226.569641 276.714619 
L 227.14437 279.26114 
L 227.719099 279.592565 
L 228.293828 281.824442 
L 228.868557 284.928932 
L 229.443286 284.370963 
L 230.018015 283.544497 
L 230.592744 280.821776 
L 231.167473 279.168844 
L 231.742202 276.358022 
L 232.316932 274.327517 
L 232.891661 273.47588 
L 233.46639 273.299679 
L 234.041119 272.137593 
L 234.615848 271.290151 
L 235.190577 272.762686 
L 235.765306 272.762686 
L 236.340035 270.107089 
L 236.914764 268.588405 
L 237.489493 267.740963 
L 238.064222 267.627692 
L 238.638951 268.051413 
L 239.21368 267.829064 
L 239.788409 265.97476 
L 240.363138 260.7752 
L 240.937867 261.46725 
L 242.087325 258.810939 
L 242.662055 254.412631 
L 243.236784 251.668933 
L 243.811513 251.178088 
L 244.386242 251.912258 
L 244.960971 253.808514 
L 245.5357 252.872972 
L 246.110429 250.125078 
L 246.685158 243.676968 
L 247.259887 241.243719 
L 247.834616 239.993532 
L 248.409345 241.445091 
L 248.984074 244.390162 
L 249.558803 246.466814 
L 250.133532 244.478262 
L 250.708261 245.216627 
L 251.28299 245.749425 
L 251.857719 243.987417 
L 252.432448 246.508767 
L 253.007177 245.103355 
L 253.581907 244.792906 
L 254.731365 244.834859 
L 255.306094 246.244465 
L 256.455552 252.092654 
L 257.60501 256.935659 
L 258.179739 256.019415 
L 258.754468 255.61667 
L 259.329197 254.660151 
L 259.903926 255.662818 
L 261.053384 259.971767 
L 261.628113 264.458594 
L 262.202842 266.759273 
L 262.777571 275.376332 
L 263.3523 276.223774 
L 263.92703 275.107835 
L 264.501759 275.59868 
L 265.076488 277.251612 
L 265.651217 277.763433 
L 266.225946 275.955277 
L 266.800675 276.781743 
L 267.375404 279.080744 
L 267.950133 279.416364 
L 268.524862 277.876705 
L 269.099591 276.001425 
L 269.67432 279.147868 
L 270.249049 283.590645 
L 270.823778 282.583784 
L 271.398507 280.08341 
L 271.973236 281.002172 
L 272.547965 282.697055 
L 273.122694 281.937714 
L 274.272153 279.483488 
L 275.421611 278.20813 
L 275.99634 279.235968 
L 276.571069 278.946496 
L 277.145798 275.149788 
L 279.444714 251.958406 
L 280.019443 249.613257 
L 281.168901 251.178088 
L 281.74363 251.576637 
L 282.318359 251.710886 
L 282.893088 248.652543 
L 283.467817 250.372599 
L 284.042546 247.268108 
L 284.617275 247.112884 
L 285.192005 248.610591 
L 285.766734 251.018668 
L 286.341463 251.375265 
L 286.916192 251.509513 
L 287.490921 250.439723 
L 288.06565 248.807768 
L 288.640379 250.23835 
L 289.215108 250.683048 
L 289.789837 248.36307 
L 290.364566 245.128527 
L 290.939295 244.234937 
L 291.514024 246.286418 
L 292.088753 249.701357 
L 292.663482 250.125078 
L 293.238211 248.409218 
L 293.81294 247.670853 
L 294.387669 248.140722 
L 294.962398 248.942016 
L 295.537128 246.689163 
L 296.111857 246.710139 
L 296.686586 250.506847 
L 297.261315 257.091723 
L 297.836044 261.601205 
L 298.410773 263.208408 
L 298.985502 265.509087 
L 299.560231 266.469801 
L 300.13496 263.208408 
L 300.709689 263.02969 
L 301.284418 264.525718 
L 301.859147 267.673839 
L 302.433876 269.192522 
L 303.008605 262.025345 
L 304.158063 271.399228 
L 304.732792 272.58229 
L 305.307521 272.049493 
L 305.882251 273.207384 
L 306.45698 275.01554 
L 307.031709 274.70509 
L 307.606438 271.491523 
L 308.181167 272.183741 
L 308.755896 275.443456 
L 309.330625 276.668471 
L 310.480083 280.800799 
L 311.054812 280.842752 
L 311.629541 277.650161 
L 312.20427 276.043378 
L 312.778999 279.26114 
L 313.353728 278.879371 
L 313.928457 275.665804 
L 314.503186 273.857649 
L 315.077915 270.908383 
L 315.652644 261.400252 
L 316.227374 259.413378 
L 316.802103 255.218121 
L 317.376832 254.412631 
L 317.951561 253.363817 
L 318.52629 253.342841 
L 319.101019 250.418746 
L 319.675748 251.933234 
L 320.250477 252.940096 
L 321.399935 252.738724 
L 322.549393 249.525157 
L 323.124122 246.911511 
L 323.698851 243.118999 
L 324.27358 243.54272 
L 324.848309 250.036978 
L 325.997767 252.91912 
L 326.572496 250.729195 
L 327.147226 247.159032 
L 328.296684 244.234937 
L 328.871413 241.822664 
L 329.446142 242.695278 
L 330.020871 245.015255 
L 330.5956 245.950797 
L 331.170329 247.851249 
L 331.745058 247.649877 
L 332.319787 244.679635 
L 332.894516 245.908845 
L 333.469245 248.543466 
L 336.34289 268.634553 
L 337.492349 270.509833 
L 338.067078 270.799306 
L 339.216536 272.452237 
L 340.365994 280.24283 
L 340.940723 279.949162 
L 341.515452 278.052906 
L 342.090181 274.927439 
L 342.66491 272.607462 
L 343.239639 272.49419 
L 343.814368 273.052159 
L 344.389097 270.484662 
L 344.963826 272.607462 
L 345.538555 278.073882 
L 346.113284 287.651654 
L 346.688013 286.044871 
L 347.262742 280.641379 
L 347.837472 283.523521 
L 348.412201 284.484235 
L 348.98693 286.065847 
L 349.561659 284.391939 
L 351.285846 275.418284 
L 351.860575 270.665058 
L 352.435304 263.833501 
L 353.010033 260.150065 
L 353.584762 260.1723 
L 354.159491 260.797519 
L 354.73422 261.846627 
L 355.308949 261.690564 
L 355.883678 259.235079 
L 356.458407 253.296693 
L 357.033136 249.076264 
L 357.607865 249.411885 
L 358.757324 254.056034 
L 359.332053 254.211259 
L 359.906782 249.701357 
L 360.481511 247.737977 
L 361.05624 248.807768 
L 361.630969 250.439723 
L 362.205698 252.738724 
L 362.780427 253.162445 
L 363.355156 249.659405 
L 363.929885 245.371852 
L 364.504614 244.994279 
L 365.079343 246.890535 
L 365.654072 247.066736 
L 366.228801 245.707473 
L 366.80353 244.860031 
L 367.378259 244.27689 
L 367.952988 244.167813 
L 368.527717 245.5061 
L 369.102447 244.860031 
L 369.677176 243.651796 
L 370.251905 245.061403 
L 370.826634 248.342094 
L 371.401363 252.7597 
L 371.976092 259.034127 
L 372.550821 263.744142 
L 373.12555 265.999932 
L 373.700279 266.109008 
L 374.275008 263.789031 
L 374.849737 263.855736 
L 375.424466 266.666978 
L 375.999195 268.076584 
L 377.148653 264.168282 
L 377.723382 265.061453 
L 378.298111 269.146375 
L 378.87284 271.734848 
L 379.44757 273.186407 
L 380.022299 272.850787 
L 381.171757 274.45757 
L 381.746486 273.811501 
L 382.321215 275.040711 
L 382.895944 275.774881 
L 384.045402 279.840085 
L 384.620131 281.245496 
L 385.769589 280.641379 
L 386.344318 281.400721 
L 386.919047 281.379745 
L 388.643234 272.74171 
L 389.217963 266.914498 
L 389.792693 263.364891 
L 390.367422 261.802157 
L 390.942151 259.65922 
L 391.51688 255.910338 
L 392.091609 253.296693 
L 392.666338 253.00722 
L 393.241067 250.909591 
L 393.815796 246.353542 
L 394.390525 245.841721 
L 394.965254 246.48779 
L 395.539983 248.610591 
L 396.114712 251.354289 
L 396.689441 252.851996 
L 397.26417 251.110964 
L 397.838899 247.691829 
L 398.413628 247.494652 
L 398.988357 246.265442 
L 399.563086 246.244465 
L 400.712545 242.984751 
L 401.287274 240.639602 
L 401.862003 239.993532 
L 403.011461 238.407725 
L 403.58619 238.697198 
L 404.160919 239.410391 
L 405.310377 240.417253 
L 405.885106 240.014508 
L 406.459835 241.621292 
L 407.034564 242.493906 
L 407.609293 242.246385 
L 408.184022 245.619372 
L 409.33348 254.681128 
L 409.908209 256.556408 
L 410.482938 260.306548 
L 411.057668 266.377505 
L 411.632397 273.966725 
L 412.207126 273.878625 
L 413.356584 271.290151 
L 413.931313 270.841259 
L 414.506042 269.63722 
L 415.080771 270.086112 
L 415.6555 272.74171 
L 416.804958 275.26306 
L 417.379687 272.917911 
L 417.954416 272.561314 
L 418.529145 269.125398 
L 419.103874 270.841259 
L 420.253332 276.735595 
L 420.828061 278.833224 
L 421.97752 285.176453 
L 422.552249 287.139833 
L 423.126978 284.236715 
L 423.701707 286.200095 
L 424.276436 288.679492 
L 424.851165 283.120776 
L 426.000623 274.885487 
L 427.150081 272.473214 
L 428.299539 265.509087 
L 428.874268 265.509087 
L 429.448997 266.356529 
L 430.023726 261.177022 
L 430.598455 259.212425 
L 431.747913 259.391143 
L 432.897372 256.935659 
L 433.472101 255.016748 
L 434.04683 253.611337 
L 434.621559 248.832939 
L 435.196288 247.180008 
L 435.771017 242.716254 
L 436.345746 240.86195 
L 436.920475 243.853169 
L 437.495204 249.995025 
L 438.069933 254.54688 
L 438.644662 256.376012 
L 439.219391 258.899878 
L 439.79412 262.136939 
L 440.368849 260.752882 
L 440.943578 258.743815 
L 441.518307 252.134607 
L 442.093036 251.509513 
L 442.667766 252.604475 
L 443.242495 254.525903 
L 443.817224 255.595694 
L 444.966682 249.995025 
L 445.541411 252.159778 
L 446.11614 260.283894 
L 446.690869 262.628204 
L 447.265598 262.092469 
L 447.840327 257.761705 
L 448.415056 250.259327 
L 448.989785 244.700611 
L 449.564514 241.063323 
L 450.139243 238.944718 
L 450.713972 238.160205 
L 451.288701 237.044266 
L 451.86343 237.627407 
L 452.438159 237.560283 
L 453.012889 236.800941 
L 453.587618 239.255167 
L 454.162347 243.362324 
L 454.737076 252.382127 
L 455.311805 263.699672 
L 455.886534 270.61891 
L 456.461263 271.109755 
L 457.035992 269.012126 
L 457.610721 270.551786 
L 458.18545 273.610128 
L 458.760179 273.6353 
L 459.334908 274.214245 
L 459.909637 277.205464 
L 460.484366 281.157396 
L 461.059095 281.22452 
L 462.208553 266.599854 
L 462.783282 263.186173 
L 463.358012 264.056689 
L 463.932741 264.681782 
L 464.50747 264.078923 
L 465.082199 255.285245 
L 465.656928 248.451171 
L 466.231657 236.910018 
L 466.806386 229.966867 
L 467.381115 231.665947 
L 468.530573 247.448504 
L 469.105302 253.116297 
L 469.680031 251.933234 
L 470.25476 246.802435 
L 470.829489 247.29328 
L 471.404218 251.534685 
L 472.553676 267.896188 
L 473.703134 284.72756 
L 474.277864 287.630678 
L 474.852593 281.581117 
L 475.427322 279.324069 
L 476.002051 278.812247 
L 476.57678 282.407583 
L 478.300967 299.750776 
L 478.875696 301.290436 
L 479.450425 300.266793 
L 480.025154 298.701962 
L 480.599883 296.784729 
L 481.174612 295.287022 
L 481.749341 290.978493 
L 482.32407 291.24699 
L 482.898799 293.923564 
L 483.473528 299.037582 
L 484.048257 302.855266 
L 484.622987 303.111177 
L 485.197716 301.047111 
L 485.772445 298.034916 
L 486.347174 290.957517 
L 486.921903 287.718778 
L 487.496632 278.543751 
L 488.071361 274.524694 
L 488.64609 273.165431 
L 489.795548 269.435847 
L 490.370277 267.896188 
L 490.945006 265.395815 
L 491.519735 261.110066 
L 492.094464 252.180754 
L 492.669193 250.192203 
L 493.243922 246.999612 
L 493.818651 246.643015 
L 494.96811 244.927155 
L 495.542839 244.566363 
L 496.117568 245.17048 
L 496.692297 247.024783 
L 497.267026 249.390908 
L 497.841755 250.976716 
L 498.416484 250.372599 
L 498.991213 248.161698 
L 499.565942 247.758953 
L 500.140671 246.957659 
L 500.7154 245.908845 
L 501.290129 245.191456 
L 501.864858 245.552248 
L 503.014316 247.985497 
L 503.589045 249.969854 
L 504.163774 250.909591 
L 504.738503 252.7597 
L 505.313233 253.116297 
L 505.887962 253.208592 
L 506.462691 253.141468 
L 507.03742 253.363817 
L 507.612149 254.144135 
L 508.186878 255.218121 
L 508.761607 255.729942 
L 509.336336 255.885167 
L 509.911065 256.241763 
L 510.485794 257.493628 
L 511.060523 257.940004 
L 512.209981 259.279549 
L 513.359439 260.574206 
L 514.508897 262.00311 
L 515.083626 263.40936 
L 515.658355 263.945095 
L 516.233085 265.105922 
L 517.957272 265.710459 
L 518.532001 265.844707 
L 519.10673 265.150812 
L 519.681459 264.012219 
L 520.830917 262.717562 
L 521.405646 262.248533 
L 521.980375 260.507501 
L 522.555104 259.435613 
L 523.129833 257.739051 
L 523.704562 256.535431 
L 524.279291 256.107515 
L 524.85402 256.220787 
L 525.428749 256.980129 
L 526.003478 258.230315 
L 527.152937 261.980875 
L 527.727666 265.061453 
L 528.302395 267.02777 
L 528.877124 268.118537 
L 530.026582 271.042631 
L 531.17604 273.38778 
L 531.750769 274.193269 
L 532.325498 275.242083 
L 532.900227 275.242083 
L 533.474956 274.45757 
L 534.049685 274.059021 
L 535.773872 271.957197 
L 536.923331 270.774134 
L 537.49806 269.926693 
L 538.072789 266.444629 
L 538.647518 265.150812 
L 539.222247 261.110066 
L 539.796976 258.989237 
L 540.371705 258.007128 
L 540.946434 256.690656 
L 541.521163 255.708966 
L 542.095892 255.285245 
L 542.095892 255.285245 
" clip-path="url(#p5fba947781)" style="fill: none; stroke: #ff7f0e; stroke-width: 2; stroke-linecap: square"/>
   </g>
   <g id="patch_9">
    <path d="M 56.909624 318.04 
L 56.909624 200.04 
" style="fill: none; stroke: #000000; stroke-width: 0.8; stroke-linejoin: miter; stroke-linecap: square"/>
   </g>
   <g id="patch_10">
    <path d="M 565.2 318.04 
L 565.2 200.04 
" style="fill: none; stroke: #000000; stroke-width: 0.8; stroke-linejoin: miter; stroke-linecap: square"/>
   </g>
   <g id="patch_11">
    <path d="M 56.909624 318.04 
L 565.2 318.04 
" style="fill: none; stroke: #000000; stroke-width: 0.8; stroke-linejoin: miter; stroke-linecap: square"/>
   </g>
   <g id="patch_12">
    <path d="M 56.909624 200.04 
L 565.2 200.04 
" style="fill: none; stroke: #000000; stroke-width: 0.8; stroke-linejoin: miter; stroke-linecap: square"/>
   </g>
   <g id="text_34">
    <!-- Rotational Velocity -->
    <g transform="translate(255.17325 194.04)scale(0.12 -0.12)">
     <use xlink:href="#DejaVuSans-52"/>
     <use xlink:href="#DejaVuSans-6f" x="64.982422"/>
     <use xlink:href="#DejaVuSans-74" x="126.164062"/>
     <use xlink:href="#DejaVuSans-61" x="165.373047"/>
     <use xlink:href="#DejaVuSans-74" x="226.652344"/>
     <use xlink:href="#DejaVuSans-69" x="265.861328"/>
     <use xlink:href="#DejaVuSans-6f" x="293.644531"/>
     <use xlink:href="#DejaVuSans-6e" x="354.826172"/>
     <use xlink:href="#DejaVuSans-61" x="418.205078"/>
     <use xlink:href="#DejaVuSans-6c" x="479.484375"/>
     <use xlink:href="#DejaVuSans-20" x="507.267578"/>
     <use xlink:href="#DejaVuSans-56" x="539.054688"/>
     <use xlink:href="#DejaVuSans-65" x="599.712891"/>
     <use xlink:href="#DejaVuSans-6c" x="661.236328"/>
     <use xlink:href="#DejaVuSans-6f" x="689.019531"/>
     <use xlink:href="#DejaVuSans-63" x="750.201172"/>
     <use xlink:href="#DejaVuSans-69" x="805.181641"/>
     <use xlink:href="#DejaVuSans-74" x="832.964844"/>
     <use xlink:href="#DejaVuSans-79" x="872.173828"/>
    </g>
   </g>
   <g id="legend_2">
    <g id="patch_13">
     <path d="M 475.682812 237.39625 
L 558.2 237.39625 
Q 560.2 237.39625 560.2 235.39625 
L 560.2 207.04 
Q 560.2 205.04 558.2 205.04 
L 475.682812 205.04 
Q 473.682812 205.04 473.682812 207.04 
L 473.682812 235.39625 
Q 473.682812 237.39625 475.682812 237.39625 
z
" style="fill: #ffffff; opacity: 0.8; stroke: #cccccc; stroke-linejoin: miter"/>
    </g>
    <g id="line2d_57">
     <path d="M 477.682812 213.138438 
L 487.682812 213.138438 
L 497.682812 213.138438 
" style="fill: none; stroke: #1f77b4; stroke-width: 2; stroke-linecap: square"/>
    </g>
    <g id="text_35">
     <!-- Reference -->
     <g transform="translate(505.682812 216.638438)scale(0.1 -0.1)">
      <use xlink:href="#DejaVuSans-52"/>
      <use xlink:href="#DejaVuSans-65" x="64.982422"/>
      <use xlink:href="#DejaVuSans-66" x="126.505859"/>
      <use xlink:href="#DejaVuSans-65" x="161.710938"/>
      <use xlink:href="#DejaVuSans-72" x="223.234375"/>
      <use xlink:href="#DejaVuSans-65" x="262.097656"/>
      <use xlink:href="#DejaVuSans-6e" x="323.621094"/>
      <use xlink:href="#DejaVuSans-63" x="387"/>
      <use xlink:href="#DejaVuSans-65" x="441.980469"/>
     </g>
    </g>
    <g id="line2d_58">
     <path d="M 477.682812 227.816563 
L 487.682812 227.816563 
L 497.682812 227.816563 
" style="fill: none; stroke: #ff7f0e; stroke-width: 2; stroke-linecap: square"/>
    </g>
    <g id="text_36">
     <!-- Estimated -->
     <g transform="translate(505.682812 231.316563)scale(0.1 -0.1)">
      <use xlink:href="#DejaVuSans-45"/>
      <use xlink:href="#DejaVuSans-73" x="63.183594"/>
      <use xlink:href="#DejaVuSans-74" x="115.283203"/>
      <use xlink:href="#DejaVuSans-69" x="154.492188"/>
      <use xlink:href="#DejaVuSans-6d" x="182.275391"/>
      <use xlink:href="#DejaVuSans-61" x="279.6875"/>
      <use xlink:href="#DejaVuSans-74" x="340.966797"/>
      <use xlink:href="#DejaVuSans-65" x="380.175781"/>
      <use xlink:href="#DejaVuSans-64" x="441.699219"/>
     </g>
    </g>
   </g>
  </g>
 </g>
 <defs>
  <clipPath id="p7f3a6d443a">
   <rect x="56.909624" y="25.44" width="508.290376" height="118"/>
  </clipPath>
  <clipPath id="p5fba947781">
   <rect x="56.909624" y="200.04" width="508.290376" height="118"/>
  </clipPath>
 </defs>
</svg>
