<?xml version="1.0" encoding="utf-8" standalone="no"?>
<!DOCTYPE svg PUBLIC "-//W3C//DTD SVG 1.1//EN"
  "http://www.w3.org/Graphics/SVG/1.1/DTD/svg11.dtd">
<svg xmlns:xlink="http://www.w3.org/1999/xlink" width="460.8pt" height="345.6pt" viewBox="0 0 460.8 345.6" xmlns="http://www.w3.org/2000/svg" version="1.1">
 <metadata>
  <rdf:RDF xmlns:dc="http://purl.org/dc/elements/1.1/" xmlns:cc="http://creativecommons.org/ns#" xmlns:rdf="http://www.w3.org/1999/02/22-rdf-syntax-ns#">
   <cc:Work>
    <dc:type rdf:resource="http://purl.org/dc/dcmitype/StillImage"/>
    <dc:date>2022-01-16T02:34:08.357117</dc:date>
    <dc:format>image/svg+xml</dc:format>
    <dc:creator>
     <cc:Agent>
      <dc:title>Matplotlib v3.5.1, https://matplotlib.org/</dc:title>
     </cc:Agent>
    </dc:creator>
   </cc:Work>
  </rdf:RDF>
 </metadata>
 <defs>
  <style type="text/css">*{stroke-linejoin: round; stroke-linecap: butt}</style>
 </defs>
 <g id="figure_1">
  <g id="patch_1">
   <path d="M 0 345.6 
L 460.8 345.6 
L 460.8 0 
L 0 0 
z
" style="fill: #ffffff"/>
  </g>
  <g id="axes_1">
   <g id="patch_2">
    <path d="M 50.565625 161.67875 
L 442.626962 161.67875 
L 442.626962 33.21375 
L 50.565625 33.21375 
z
" style="fill: #ffffff"/>
   </g>
   <g id="matplotlib.axis_1">
    <g id="xtick_1">
     <g id="line2d_1">
      <path d="M 68.386595 161.67875 
L 68.386595 33.21375 
" clip-path="url(#p0c3ebd3027)" style="fill: none; stroke: #b0b0b0; stroke-width: 0.8; stroke-linecap: square"/>
     </g>
     <g id="line2d_2">
      <defs>
       <path id="maaa5c140b2" d="M 0 0 
L 0 3.5 
" style="stroke: #000000; stroke-width: 0.8"/>
      </defs>
      <g>
       <use xlink:href="#maaa5c140b2" x="68.386595" y="161.67875" style="stroke: #000000; stroke-width: 0.8"/>
      </g>
     </g>
    </g>
    <g id="xtick_2">
     <g id="line2d_3">
      <path d="M 143.107643 161.67875 
L 143.107643 33.21375 
" clip-path="url(#p0c3ebd3027)" style="fill: none; stroke: #b0b0b0; stroke-width: 0.8; stroke-linecap: square"/>
     </g>
     <g id="line2d_4">
      <g>
       <use xlink:href="#maaa5c140b2" x="143.107643" y="161.67875" style="stroke: #000000; stroke-width: 0.8"/>
      </g>
     </g>
    </g>
    <g id="xtick_3">
     <g id="line2d_5">
      <path d="M 217.82869 161.67875 
L 217.82869 33.21375 
" clip-path="url(#p0c3ebd3027)" style="fill: none; stroke: #b0b0b0; stroke-width: 0.8; stroke-linecap: square"/>
     </g>
     <g id="line2d_6">
      <g>
       <use xlink:href="#maaa5c140b2" x="217.82869" y="161.67875" style="stroke: #000000; stroke-width: 0.8"/>
      </g>
     </g>
    </g>
    <g id="xtick_4">
     <g id="line2d_7">
      <path d="M 292.549738 161.67875 
L 292.549738 33.21375 
" clip-path="url(#p0c3ebd3027)" style="fill: none; stroke: #b0b0b0; stroke-width: 0.8; stroke-linecap: square"/>
     </g>
     <g id="line2d_8">
      <g>
       <use xlink:href="#maaa5c140b2" x="292.549738" y="161.67875" style="stroke: #000000; stroke-width: 0.8"/>
      </g>
     </g>
    </g>
    <g id="xtick_5">
     <g id="line2d_9">
      <path d="M 367.270786 161.67875 
L 367.270786 33.21375 
" clip-path="url(#p0c3ebd3027)" style="fill: none; stroke: #b0b0b0; stroke-width: 0.8; stroke-linecap: square"/>
     </g>
     <g id="line2d_10">
      <g>
       <use xlink:href="#maaa5c140b2" x="367.270786" y="161.67875" style="stroke: #000000; stroke-width: 0.8"/>
      </g>
     </g>
    </g>
    <g id="xtick_6">
     <g id="line2d_11">
      <path d="M 441.991833 161.67875 
L 441.991833 33.21375 
" clip-path="url(#p0c3ebd3027)" style="fill: none; stroke: #b0b0b0; stroke-width: 0.8; stroke-linecap: square"/>
     </g>
     <g id="line2d_12">
      <g>
       <use xlink:href="#maaa5c140b2" x="441.991833" y="161.67875" style="stroke: #000000; stroke-width: 0.8"/>
      </g>
     </g>
    </g>
   </g>
   <g id="matplotlib.axis_2">
    <g id="ytick_1">
     <g id="line2d_13">
      <path d="M 50.565625 152.773472 
L 442.626962 152.773472 
" clip-path="url(#p0c3ebd3027)" style="fill: none; stroke: #b0b0b0; stroke-width: 0.8; stroke-linecap: square"/>
     </g>
     <g id="line2d_14">
      <defs>
       <path id="m5950ac5a90" d="M 0 0 
L -3.5 0 
" style="stroke: #000000; stroke-width: 0.8"/>
      </defs>
      <g>
       <use xlink:href="#m5950ac5a90" x="50.565625" y="152.773472" style="stroke: #000000; stroke-width: 0.8"/>
      </g>
     </g>
     <g id="text_1">
      <!-- 0 -->
      <g transform="translate(37.203125 156.57269)scale(0.1 -0.1)">
       <defs>
        <path id="DejaVuSans-30" d="M 2034 4250 
Q 1547 4250 1301 3770 
Q 1056 3291 1056 2328 
Q 1056 1369 1301 889 
Q 1547 409 2034 409 
Q 2525 409 2770 889 
Q 3016 1369 3016 2328 
Q 3016 3291 2770 3770 
Q 2525 4250 2034 4250 
z
M 2034 4750 
Q 2819 4750 3233 4129 
Q 3647 3509 3647 2328 
Q 3647 1150 3233 529 
Q 2819 -91 2034 -91 
Q 1250 -91 836 529 
Q 422 1150 422 2328 
Q 422 3509 836 4129 
Q 1250 4750 2034 4750 
z
" transform="scale(0.015625)"/>
       </defs>
       <use xlink:href="#DejaVuSans-30"/>
      </g>
     </g>
    </g>
    <g id="ytick_2">
     <g id="line2d_15">
      <path d="M 50.565625 121.149333 
L 442.626962 121.149333 
" clip-path="url(#p0c3ebd3027)" style="fill: none; stroke: #b0b0b0; stroke-width: 0.8; stroke-linecap: square"/>
     </g>
     <g id="line2d_16">
      <g>
       <use xlink:href="#m5950ac5a90" x="50.565625" y="121.149333" style="stroke: #000000; stroke-width: 0.8"/>
      </g>
     </g>
     <g id="text_2">
      <!-- 200 -->
      <g transform="translate(24.478125 124.948551)scale(0.1 -0.1)">
       <defs>
        <path id="DejaVuSans-32" d="M 1228 531 
L 3431 531 
L 3431 0 
L 469 0 
L 469 531 
Q 828 903 1448 1529 
Q 2069 2156 2228 2338 
Q 2531 2678 2651 2914 
Q 2772 3150 2772 3378 
Q 2772 3750 2511 3984 
Q 2250 4219 1831 4219 
Q 1534 4219 1204 4116 
Q 875 4013 500 3803 
L 500 4441 
Q 881 4594 1212 4672 
Q 1544 4750 1819 4750 
Q 2544 4750 2975 4387 
Q 3406 4025 3406 3419 
Q 3406 3131 3298 2873 
Q 3191 2616 2906 2266 
Q 2828 2175 2409 1742 
Q 1991 1309 1228 531 
z
" transform="scale(0.015625)"/>
       </defs>
       <use xlink:href="#DejaVuSans-32"/>
       <use xlink:href="#DejaVuSans-30" x="63.623047"/>
       <use xlink:href="#DejaVuSans-30" x="127.246094"/>
      </g>
     </g>
    </g>
    <g id="ytick_3">
     <g id="line2d_17">
      <path d="M 50.565625 89.525194 
L 442.626962 89.525194 
" clip-path="url(#p0c3ebd3027)" style="fill: none; stroke: #b0b0b0; stroke-width: 0.8; stroke-linecap: square"/>
     </g>
     <g id="line2d_18">
      <g>
       <use xlink:href="#m5950ac5a90" x="50.565625" y="89.525194" style="stroke: #000000; stroke-width: 0.8"/>
      </g>
     </g>
     <g id="text_3">
      <!-- 400 -->
      <g transform="translate(24.478125 93.324413)scale(0.1 -0.1)">
       <defs>
        <path id="DejaVuSans-34" d="M 2419 4116 
L 825 1625 
L 2419 1625 
L 2419 4116 
z
M 2253 4666 
L 3047 4666 
L 3047 1625 
L 3713 1625 
L 3713 1100 
L 3047 1100 
L 3047 0 
L 2419 0 
L 2419 1100 
L 313 1100 
L 313 1709 
L 2253 4666 
z
" transform="scale(0.015625)"/>
       </defs>
       <use xlink:href="#DejaVuSans-34"/>
       <use xlink:href="#DejaVuSans-30" x="63.623047"/>
       <use xlink:href="#DejaVuSans-30" x="127.246094"/>
      </g>
     </g>
    </g>
    <g id="ytick_4">
     <g id="line2d_19">
      <path d="M 50.565625 57.901055 
L 442.626962 57.901055 
" clip-path="url(#p0c3ebd3027)" style="fill: none; stroke: #b0b0b0; stroke-width: 0.8; stroke-linecap: square"/>
     </g>
     <g id="line2d_20">
      <g>
       <use xlink:href="#m5950ac5a90" x="50.565625" y="57.901055" style="stroke: #000000; stroke-width: 0.8"/>
      </g>
     </g>
     <g id="text_4">
      <!-- 600 -->
      <g transform="translate(24.478125 61.700274)scale(0.1 -0.1)">
       <defs>
        <path id="DejaVuSans-36" d="M 2113 2584 
Q 1688 2584 1439 2293 
Q 1191 2003 1191 1497 
Q 1191 994 1439 701 
Q 1688 409 2113 409 
Q 2538 409 2786 701 
Q 3034 994 3034 1497 
Q 3034 2003 2786 2293 
Q 2538 2584 2113 2584 
z
M 3366 4563 
L 3366 3988 
Q 3128 4100 2886 4159 
Q 2644 4219 2406 4219 
Q 1781 4219 1451 3797 
Q 1122 3375 1075 2522 
Q 1259 2794 1537 2939 
Q 1816 3084 2150 3084 
Q 2853 3084 3261 2657 
Q 3669 2231 3669 1497 
Q 3669 778 3244 343 
Q 2819 -91 2113 -91 
Q 1303 -91 875 529 
Q 447 1150 447 2328 
Q 447 3434 972 4092 
Q 1497 4750 2381 4750 
Q 2619 4750 2861 4703 
Q 3103 4656 3366 4563 
z
" transform="scale(0.015625)"/>
       </defs>
       <use xlink:href="#DejaVuSans-36"/>
       <use xlink:href="#DejaVuSans-30" x="63.623047"/>
       <use xlink:href="#DejaVuSans-30" x="127.246094"/>
      </g>
     </g>
    </g>
    <g id="text_5">
     <!-- trans. vel. [mm/s] -->
     <g transform="translate(18.398438 142.011875)rotate(-90)scale(0.1 -0.1)">
      <defs>
       <path id="DejaVuSans-74" d="M 1172 4494 
L 1172 3500 
L 2356 3500 
L 2356 3053 
L 1172 3053 
L 1172 1153 
Q 1172 725 1289 603 
Q 1406 481 1766 481 
L 2356 481 
L 2356 0 
L 1766 0 
Q 1100 0 847 248 
Q 594 497 594 1153 
L 594 3053 
L 172 3053 
L 172 3500 
L 594 3500 
L 594 4494 
L 1172 4494 
z
" transform="scale(0.015625)"/>
       <path id="DejaVuSans-72" d="M 2631 2963 
Q 2534 3019 2420 3045 
Q 2306 3072 2169 3072 
Q 1681 3072 1420 2755 
Q 1159 2438 1159 1844 
L 1159 0 
L 581 0 
L 581 3500 
L 1159 3500 
L 1159 2956 
Q 1341 3275 1631 3429 
Q 1922 3584 2338 3584 
Q 2397 3584 2469 3576 
Q 2541 3569 2628 3553 
L 2631 2963 
z
" transform="scale(0.015625)"/>
       <path id="DejaVuSans-61" d="M 2194 1759 
Q 1497 1759 1228 1600 
Q 959 1441 959 1056 
Q 959 750 1161 570 
Q 1363 391 1709 391 
Q 2188 391 2477 730 
Q 2766 1069 2766 1631 
L 2766 1759 
L 2194 1759 
z
M 3341 1997 
L 3341 0 
L 2766 0 
L 2766 531 
Q 2569 213 2275 61 
Q 1981 -91 1556 -91 
Q 1019 -91 701 211 
Q 384 513 384 1019 
Q 384 1609 779 1909 
Q 1175 2209 1959 2209 
L 2766 2209 
L 2766 2266 
Q 2766 2663 2505 2880 
Q 2244 3097 1772 3097 
Q 1472 3097 1187 3025 
Q 903 2953 641 2809 
L 641 3341 
Q 956 3463 1253 3523 
Q 1550 3584 1831 3584 
Q 2591 3584 2966 3190 
Q 3341 2797 3341 1997 
z
" transform="scale(0.015625)"/>
       <path id="DejaVuSans-6e" d="M 3513 2113 
L 3513 0 
L 2938 0 
L 2938 2094 
Q 2938 2591 2744 2837 
Q 2550 3084 2163 3084 
Q 1697 3084 1428 2787 
Q 1159 2491 1159 1978 
L 1159 0 
L 581 0 
L 581 3500 
L 1159 3500 
L 1159 2956 
Q 1366 3272 1645 3428 
Q 1925 3584 2291 3584 
Q 2894 3584 3203 3211 
Q 3513 2838 3513 2113 
z
" transform="scale(0.015625)"/>
       <path id="DejaVuSans-73" d="M 2834 3397 
L 2834 2853 
Q 2591 2978 2328 3040 
Q 2066 3103 1784 3103 
Q 1356 3103 1142 2972 
Q 928 2841 928 2578 
Q 928 2378 1081 2264 
Q 1234 2150 1697 2047 
L 1894 2003 
Q 2506 1872 2764 1633 
Q 3022 1394 3022 966 
Q 3022 478 2636 193 
Q 2250 -91 1575 -91 
Q 1294 -91 989 -36 
Q 684 19 347 128 
L 347 722 
Q 666 556 975 473 
Q 1284 391 1588 391 
Q 1994 391 2212 530 
Q 2431 669 2431 922 
Q 2431 1156 2273 1281 
Q 2116 1406 1581 1522 
L 1381 1569 
Q 847 1681 609 1914 
Q 372 2147 372 2553 
Q 372 3047 722 3315 
Q 1072 3584 1716 3584 
Q 2034 3584 2315 3537 
Q 2597 3491 2834 3397 
z
" transform="scale(0.015625)"/>
       <path id="DejaVuSans-2e" d="M 684 794 
L 1344 794 
L 1344 0 
L 684 0 
L 684 794 
z
" transform="scale(0.015625)"/>
       <path id="DejaVuSans-20" transform="scale(0.015625)"/>
       <path id="DejaVuSans-76" d="M 191 3500 
L 800 3500 
L 1894 563 
L 2988 3500 
L 3597 3500 
L 2284 0 
L 1503 0 
L 191 3500 
z
" transform="scale(0.015625)"/>
       <path id="DejaVuSans-65" d="M 3597 1894 
L 3597 1613 
L 953 1613 
Q 991 1019 1311 708 
Q 1631 397 2203 397 
Q 2534 397 2845 478 
Q 3156 559 3463 722 
L 3463 178 
Q 3153 47 2828 -22 
Q 2503 -91 2169 -91 
Q 1331 -91 842 396 
Q 353 884 353 1716 
Q 353 2575 817 3079 
Q 1281 3584 2069 3584 
Q 2775 3584 3186 3129 
Q 3597 2675 3597 1894 
z
M 3022 2063 
Q 3016 2534 2758 2815 
Q 2500 3097 2075 3097 
Q 1594 3097 1305 2825 
Q 1016 2553 972 2059 
L 3022 2063 
z
" transform="scale(0.015625)"/>
       <path id="DejaVuSans-6c" d="M 603 4863 
L 1178 4863 
L 1178 0 
L 603 0 
L 603 4863 
z
" transform="scale(0.015625)"/>
       <path id="DejaVuSans-5b" d="M 550 4863 
L 1875 4863 
L 1875 4416 
L 1125 4416 
L 1125 -397 
L 1875 -397 
L 1875 -844 
L 550 -844 
L 550 4863 
z
" transform="scale(0.015625)"/>
       <path id="DejaVuSans-6d" d="M 3328 2828 
Q 3544 3216 3844 3400 
Q 4144 3584 4550 3584 
Q 5097 3584 5394 3201 
Q 5691 2819 5691 2113 
L 5691 0 
L 5113 0 
L 5113 2094 
Q 5113 2597 4934 2840 
Q 4756 3084 4391 3084 
Q 3944 3084 3684 2787 
Q 3425 2491 3425 1978 
L 3425 0 
L 2847 0 
L 2847 2094 
Q 2847 2600 2669 2842 
Q 2491 3084 2119 3084 
Q 1678 3084 1418 2786 
Q 1159 2488 1159 1978 
L 1159 0 
L 581 0 
L 581 3500 
L 1159 3500 
L 1159 2956 
Q 1356 3278 1631 3431 
Q 1906 3584 2284 3584 
Q 2666 3584 2933 3390 
Q 3200 3197 3328 2828 
z
" transform="scale(0.015625)"/>
       <path id="DejaVuSans-2f" d="M 1625 4666 
L 2156 4666 
L 531 -594 
L 0 -594 
L 1625 4666 
z
" transform="scale(0.015625)"/>
       <path id="DejaVuSans-5d" d="M 1947 4863 
L 1947 -844 
L 622 -844 
L 622 -397 
L 1369 -397 
L 1369 4416 
L 622 4416 
L 622 4863 
L 1947 4863 
z
" transform="scale(0.015625)"/>
      </defs>
      <use xlink:href="#DejaVuSans-74"/>
      <use xlink:href="#DejaVuSans-72" x="39.208984"/>
      <use xlink:href="#DejaVuSans-61" x="80.322266"/>
      <use xlink:href="#DejaVuSans-6e" x="141.601562"/>
      <use xlink:href="#DejaVuSans-73" x="204.980469"/>
      <use xlink:href="#DejaVuSans-2e" x="257.080078"/>
      <use xlink:href="#DejaVuSans-20" x="288.867188"/>
      <use xlink:href="#DejaVuSans-76" x="320.654297"/>
      <use xlink:href="#DejaVuSans-65" x="379.833984"/>
      <use xlink:href="#DejaVuSans-6c" x="441.357422"/>
      <use xlink:href="#DejaVuSans-2e" x="469.140625"/>
      <use xlink:href="#DejaVuSans-20" x="500.927734"/>
      <use xlink:href="#DejaVuSans-5b" x="532.714844"/>
      <use xlink:href="#DejaVuSans-6d" x="571.728516"/>
      <use xlink:href="#DejaVuSans-6d" x="669.140625"/>
      <use xlink:href="#DejaVuSans-2f" x="766.552734"/>
      <use xlink:href="#DejaVuSans-73" x="800.244141"/>
      <use xlink:href="#DejaVuSans-5d" x="852.34375"/>
     </g>
    </g>
   </g>
   <g id="line2d_21">
    <path d="M 68.386595 152.773472 
L 69.133805 152.697574 
L 70.254621 152.299109 
L 71.375437 151.559105 
L 72.496253 150.477559 
L 73.617068 149.054473 
L 74.737884 147.289846 
L 75.8587 145.183678 
L 77.353121 141.844169 
L 78.847542 137.897477 
L 80.341963 133.340438 
L 82.209989 126.794241 
L 92.670935 86.963639 
L 94.912567 78.772987 
L 96.780593 72.954145 
L 98.275014 68.985316 
L 99.769435 65.617345 
L 101.263856 62.866045 
L 102.384672 61.189965 
L 103.505487 59.861752 
L 104.626303 58.881403 
L 105.747119 58.233108 
L 106.494329 57.995927 
L 107.615145 57.901055 
L 349.337734 57.980115 
L 350.45855 58.375417 
L 351.579366 59.118584 
L 352.700181 60.193805 
L 353.820997 61.616891 
L 354.941813 63.387843 
L 356.436234 66.26564 
L 357.55705 68.827195 
L 359.05147 72.7644 
L 360.919497 78.551618 
L 362.787523 85.287559 
L 375.116496 131.885728 
L 376.610917 136.629349 
L 378.105338 140.748393 
L 379.599759 144.266578 
L 381.09418 147.17758 
L 382.214995 148.961182 
L 383.335811 150.404824 
L 384.456627 151.50566 
L 385.577442 152.265588 
L 386.698258 152.683785 
L 387.819074 152.773472 
L 424.805992 152.773472 
L 424.805992 152.773472 
" clip-path="url(#p0c3ebd3027)" style="fill: none; stroke: #1f77b4; stroke-width: 1.5; stroke-linecap: square"/>
   </g>
   <g id="line2d_22">
    <path d="M 68.386595 152.773472 
L 68.7602 152.965272 
L 69.133805 152.581671 
L 69.507411 152.773472 
L 71.375437 152.773472 
L 71.749042 152.965272 
L 72.496253 152.581671 
L 72.869858 152.965272 
L 73.243463 152.773472 
L 73.617068 152.389871 
L 73.990673 151.622827 
L 74.364279 151.431185 
L 74.737884 150.855468 
L 75.111489 151.239385 
L 75.485094 150.279908 
L 75.8587 150.472815 
L 76.232305 148.937464 
L 76.60591 149.321697 
L 76.979515 147.212367 
L 77.353121 147.595019 
L 77.726726 144.336151 
L 78.100331 144.910129 
L 78.473936 140.500143 
L 78.847542 141.651262 
L 79.221147 135.316947 
L 79.594752 137.815254 
L 79.968357 130.1464 
L 80.341963 133.213942 
L 80.715568 126.304067 
L 81.089173 124.960041 
L 81.462778 128.23314 
L 81.836383 122.667291 
L 82.209989 114.998438 
L 82.583594 121.702755 
L 82.957199 109.0531 
L 83.330804 117.101443 
L 83.70441 104.262043 
L 84.078015 114.033901 
L 84.45162 101.384246 
L 84.825225 112.310386 
L 85.198831 98.885939 
L 85.572436 110.397125 
L 85.946041 96.972679 
L 86.319646 108.67361 
L 86.693252 94.284627 
L 87.066857 107.519329 
L 87.440462 92.371366 
L 87.814067 105.400512 
L 88.187673 90.442294 
L 88.561278 104.641532 
L 88.934883 91.217085 
L 89.308488 95.438908 
L 89.682093 95.438908 
L 90.055699 91.40683 
L 90.429304 91.40683 
L 90.802909 96.782934 
L 91.176514 76.448612 
L 91.55012 91.02734 
L 91.923725 68.004967 
L 92.29733 85.461492 
L 92.670935 62.059629 
L 93.044541 82.583695 
L 93.418146 60.525858 
L 93.791751 82.014461 
L 94.165356 58.233108 
L 94.538962 80.86018 
L 94.912567 56.319848 
L 95.286172 77.792638 
L 95.659777 54.786077 
L 96.033383 77.602893 
L 96.406988 56.114291 
L 96.780593 79.516154 
L 97.154198 57.078827 
L 97.527803 78.946919 
L 97.901409 60.336114 
L 98.275014 69.159248 
L 98.648619 67.435733 
L 99.022224 66.281452 
L 99.39583 79.705899 
L 99.769435 55.545057 
L 100.14304 79.136664 
L 100.516645 55.355312 
L 100.890251 77.982383 
L 101.263856 55.734801 
L 101.637461 78.551618 
L 102.011066 57.078827 
L 102.384672 79.705899 
L 102.758277 58.043364 
L 103.131882 69.159248 
L 103.505487 70.503274 
L 103.879093 77.602893 
L 104.252698 59.387389 
L 104.626303 80.48069 
L 104.999908 59.197645 
L 105.373514 81.239669 
L 105.747119 59.577134 
L 106.120724 80.290945 
L 106.494329 63.988702 
L 106.867934 71.072509 
L 107.24154 68.590014 
L 107.615145 74.535352 
L 107.98875 69.159248 
L 108.362355 82.583695 
L 108.735961 62.265186 
L 109.109566 82.583695 
L 109.483171 61.30065 
L 109.856776 82.393951 
L 110.230382 60.92116 
L 110.603987 81.824716 
L 110.977592 59.387389 
L 111.351197 81.239669 
L 111.724803 58.422853 
L 112.098408 80.085388 
L 112.472013 56.509593 
L 112.845618 77.982383 
L 113.219224 53.442051 
L 113.592829 75.879378 
L 113.966434 52.477515 
L 114.340039 75.879378 
L 114.713644 54.011286 
L 115.08725 62.644676 
L 115.460855 59.766879 
L 115.83446 74.725097 
L 116.208065 56.319848 
L 116.581671 63.024165 
L 116.955276 65.127171 
L 117.328881 60.146369 
L 117.702486 76.069123 
L 118.076092 52.098025 
L 118.449697 75.689633 
L 118.823302 52.098025 
L 119.196907 75.484076 
L 119.570513 51.718536 
L 119.944118 75.484076 
L 120.317723 51.718536 
L 120.691328 75.689633 
L 121.064934 50.754 
L 121.438539 74.535352 
L 121.812144 49.789463 
L 122.185749 73.760561 
L 122.559354 48.255693 
L 122.93296 72.037045 
L 123.306565 46.532177 
L 123.68017 58.802343 
L 124.053775 65.127171 
L 124.427381 65.522472 
L 124.800986 50.37451 
L 125.174591 58.612598 
L 125.548196 56.889083 
L 125.921802 56.319848 
L 126.295407 56.319848 
L 127.042617 55.924546 
L 127.416223 55.355312 
L 127.789828 54.58052 
L 128.163433 49.789463 
L 128.537038 66.281452 
L 128.910644 39.622303 
L 129.284249 66.471197 
L 129.657854 40.017604 
L 130.031459 66.091707 
L 130.405064 39.053068 
L 130.77867 65.712217 
L 131.152275 39.82786 
L 131.52588 66.676753 
L 131.899485 40.017604 
L 132.273091 68.210524 
L 132.646696 47.101412 
L 133.020301 65.142983 
L 133.393906 45.188151 
L 133.767512 70.123785 
L 134.141117 45.567641 
L 134.514722 71.072509 
L 134.888327 46.342432 
L 135.261933 71.278066 
L 135.635538 45.773198 
L 136.009143 71.072509 
L 136.382748 46.721922 
L 136.756354 71.072509 
L 137.129959 45.567641 
L 137.503564 71.467811 
L 137.877169 45.188151 
L 138.250774 69.744295 
L 138.62438 44.03387 
L 138.997985 69.93404 
L 139.37159 43.844125 
L 139.745195 69.93404 
L 140.118801 43.844125 
L 140.492406 68.779759 
L 140.866011 48.065948 
L 141.239616 53.631796 
L 141.613222 69.744295 
L 142.360432 45.567641 
L 142.734037 69.93404 
L 143.107643 45.377896 
L 143.481248 70.123785 
L 143.854853 44.998406 
L 144.228458 69.93404 
L 144.602064 44.998406 
L 144.975669 70.693019 
L 145.349274 44.808661 
L 145.722879 69.744295 
L 146.096485 44.618917 
L 146.47009 69.159248 
L 146.843695 44.239427 
L 147.2173 68.969504 
L 147.590905 42.310354 
L 147.964511 68.210524 
L 148.338116 42.310354 
L 148.711721 67.815222 
L 149.085326 45.188151 
L 149.832537 56.889083 
L 150.206142 64.747681 
L 150.579747 40.966329 
L 150.953353 67.056243 
L 151.326958 40.966329 
L 151.700563 66.676753 
L 152.074168 40.586839 
L 152.447774 66.660941 
L 152.821379 40.397094 
L 153.194984 66.471197 
L 153.568589 40.207349 
L 153.942195 66.471197 
L 154.3158 40.966329 
L 154.689405 66.676753 
L 155.06301 40.586839 
L 155.436615 66.866498 
L 155.810221 40.207349 
L 156.183826 67.056243 
L 156.557431 41.74112 
L 156.931036 66.676753 
L 157.304642 47.306968 
L 157.678247 55.734801 
L 158.051852 53.821541 
L 158.425457 57.078827 
L 158.799063 70.123785 
L 159.172668 44.239427 
L 159.546273 69.538738 
L 159.919878 43.844125 
L 160.293484 70.123785 
L 160.667089 43.844125 
L 161.040694 69.93404 
L 161.414299 43.274891 
L 161.787905 70.313529 
L 162.16151 44.618917 
L 162.535115 70.503274 
L 162.90872 44.998406 
L 163.282325 69.93404 
L 163.655931 44.618917 
L 164.029536 69.744295 
L 164.403141 44.429172 
L 164.776746 69.744295 
L 165.150352 47.876203 
L 165.523957 52.477515 
L 165.897562 71.467811 
L 166.271167 46.911667 
L 166.644773 61.110905 
L 167.018378 59.181833 
L 167.391983 58.992088 
L 167.765588 58.612598 
L 168.139194 58.612598 
L 168.512799 54.975822 
L 168.886404 71.278066 
L 169.260009 46.532177 
L 169.633615 71.467811 
L 170.00722 46.532177 
L 170.380825 70.882764 
L 170.75443 45.962943 
L 171.128035 70.693019 
L 171.501641 45.773198 
L 171.875246 70.693019 
L 172.248851 45.188151 
L 172.622456 70.503274 
L 172.996062 44.998406 
L 173.369667 68.969504 
L 173.743272 47.876203 
L 174.116877 57.268572 
L 174.490483 55.165567 
L 174.864088 58.422853 
L 175.237693 54.390776 
L 175.611298 69.93404 
L 175.984904 44.03387 
L 176.358509 69.744295 
L 176.732114 43.844125 
L 177.105719 69.348993 
L 177.479325 43.844125 
L 177.85293 68.969504 
L 178.226535 42.12061 
L 178.60014 69.744295 
L 178.973746 43.085146 
L 179.347351 68.590014 
L 179.720956 42.310354 
L 180.094561 68.779759 
L 180.468166 43.464636 
L 180.841772 69.744295 
L 181.215377 44.239427 
L 181.588982 70.123785 
L 181.962587 48.635182 
L 182.336193 58.043364 
L 182.709798 54.390776 
L 183.083403 71.8473 
L 183.457008 60.92116 
L 183.830614 46.721922 
L 184.204219 73.001581 
L 184.577824 48.255693 
L 184.951429 72.22679 
L 185.325035 47.686458 
L 185.69864 71.8473 
L 186.072245 45.773198 
L 186.44585 71.072509 
L 186.819456 46.342432 
L 187.193061 71.467811 
L 187.566666 46.342432 
L 187.940271 71.657555 
L 188.313876 45.962943 
L 188.687482 70.882764 
L 189.061087 45.377896 
L 189.434692 71.072509 
L 189.808297 45.962943 
L 190.181903 70.123785 
L 190.555508 51.133489 
L 190.929113 59.766879 
L 191.302718 55.165567 
L 191.676324 72.811836 
L 192.049929 47.101412 
L 192.423534 72.22679 
L 192.797139 47.496713 
L 193.170745 72.037045 
L 193.54435 47.496713 
L 193.917955 71.8473 
L 194.29156 46.721922 
L 194.665166 71.278066 
L 195.038771 45.773198 
L 195.412376 70.503274 
L 195.785981 44.998406 
L 196.159586 70.313529 
L 196.533192 44.998406 
L 196.906797 70.313529 
L 197.280402 44.239427 
L 197.654007 69.538738 
L 198.027613 42.310354 
L 198.401218 67.815222 
L 198.774823 46.532177 
L 199.148428 52.477515 
L 199.522034 69.159248 
L 200.269244 43.844125 
L 200.642849 69.728483 
L 201.016455 43.65438 
L 201.39006 69.348993 
L 201.763665 43.65438 
L 202.13727 69.744295 
L 202.510876 44.03387 
L 202.884481 69.744295 
L 203.258086 44.239427 
L 203.631691 69.93404 
L 204.005296 43.464636 
L 204.378902 68.779759 
L 204.752507 44.03387 
L 205.126112 69.744295 
L 205.499717 44.618917 
L 205.873323 70.503274 
L 206.246928 44.429172 
L 206.620533 70.313529 
L 206.994138 48.840739 
L 207.741349 67.056243 
L 208.114954 51.323234 
L 208.488559 59.766879 
L 208.862165 56.699338 
L 209.23577 72.416535 
L 209.609375 48.445437 
L 209.98298 72.037045 
L 210.356586 46.911667 
L 210.730191 72.416535 
L 211.103796 47.306968 
L 211.477401 72.416535 
L 211.851006 46.911667 
L 212.224612 72.416535 
L 212.598217 46.911667 
L 212.971822 71.072509 
L 213.345427 45.962943 
L 213.719033 70.882764 
L 214.092638 46.152687 
L 214.466243 71.467811 
L 214.839848 46.342432 
L 215.213454 71.467811 
L 215.587059 49.220229 
L 216.334269 68.004967 
L 216.707875 46.911667 
L 217.08148 72.037045 
L 217.455085 47.306968 
L 217.82869 72.416535 
L 218.202296 48.065948 
L 218.575901 72.037045 
L 218.949506 47.101412 
L 219.323111 71.657555 
L 219.696717 46.152687 
L 220.070322 70.693019 
L 220.443927 45.962943 
L 220.817532 71.072509 
L 221.191137 44.808661 
L 221.564743 71.657555 
L 221.938348 44.618917 
L 222.311953 70.123785 
L 222.685558 44.239427 
L 223.059164 60.92116 
L 223.432769 53.442051 
L 223.806374 57.078827 
L 224.179979 70.123785 
L 224.553585 43.844125 
L 224.92719 68.779759 
L 225.300795 42.705656 
L 225.6744 68.400269 
L 226.048006 43.274891 
L 226.421611 68.400269 
L 226.795216 43.274891 
L 227.168821 68.969504 
L 227.542427 42.895401 
L 227.916032 68.779759 
L 228.289637 42.689844 
L 228.663242 68.590014 
L 229.036847 43.085146 
L 229.410453 68.590014 
L 229.784058 43.085146 
L 230.157663 69.159248 
L 230.531268 43.464636 
L 230.904874 70.503274 
L 231.278479 46.532177 
L 232.025689 63.403655 
L 232.399295 53.821541 
L 232.7729 71.8473 
L 233.146505 47.306968 
L 233.52011 72.22679 
L 233.893716 47.496713 
L 234.267321 71.278066 
L 234.640926 45.567641 
L 235.014531 71.657555 
L 235.388137 46.532177 
L 235.761742 70.882764 
L 236.135347 45.567641 
L 236.508952 72.22679 
L 236.882557 45.773198 
L 237.256163 70.882764 
L 237.629768 45.188151 
L 238.003373 70.503274 
L 238.376978 48.840739 
L 238.750584 58.043364 
L 239.124189 54.201031 
L 239.497794 55.924546 
L 239.871399 74.345607 
L 240.245005 45.962943 
L 240.61861 71.278066 
L 240.992215 46.721922 
L 241.36582 71.657555 
L 241.739426 47.101412 
L 242.113031 71.8473 
L 242.486636 46.721922 
L 242.860241 71.657555 
L 243.233847 46.342432 
L 243.607452 71.467811 
L 243.981057 47.101412 
L 244.354662 71.278066 
L 244.728267 46.721922 
L 245.101873 71.072509 
L 245.475478 45.962943 
L 245.849083 63.21391 
L 246.222688 54.975822 
L 246.596294 57.648062 
L 246.969899 54.390776 
L 247.343504 70.882764 
L 247.717109 45.377896 
L 248.090715 70.123785 
L 248.46432 44.618917 
L 248.837925 69.93404 
L 249.21153 42.895401 
L 249.585136 70.313529 
L 249.958741 44.223615 
L 250.332346 69.348993 
L 250.705951 43.464636 
L 251.079557 68.969504 
L 251.453162 42.895401 
L 251.826767 68.779759 
L 252.200372 42.310354 
L 252.573978 68.400269 
L 252.947583 41.930865 
L 253.321188 62.265186 
L 253.694793 62.059629 
L 254.068398 47.876203 
L 254.442004 63.403655 
L 254.815609 57.268572 
L 255.189214 42.895401 
L 255.562819 69.728483 
L 255.936425 44.429172 
L 256.31003 70.123785 
L 256.683635 45.773198 
L 257.05724 71.072509 
L 257.430846 46.152687 
L 257.804451 72.037045 
L 258.178056 47.101412 
L 258.551661 71.467811 
L 258.925267 47.496713 
L 259.298872 72.22679 
L 259.672477 47.306968 
L 260.046082 72.037045 
L 260.419688 47.101412 
L 260.793293 72.037045 
L 261.166898 49.599718 
L 261.540503 61.30065 
L 261.914108 59.766879 
L 262.287714 65.712217 
L 262.661319 46.342432 
L 263.034924 71.088321 
L 263.408529 46.532177 
L 263.782135 71.467811 
L 264.15574 46.152687 
L 264.529345 71.072509 
L 264.90295 46.721922 
L 265.276556 71.467811 
L 265.650161 46.721922 
L 266.023766 72.22679 
L 266.397371 47.686458 
L 266.770977 72.22679 
L 267.144582 47.101412 
L 267.518187 72.037045 
L 267.891792 47.496713 
L 268.265398 70.503274 
L 268.639003 51.512979 
L 269.012608 58.802343 
L 269.386213 55.924546 
L 269.759818 64.368191 
L 270.133424 56.509593 
L 270.507029 58.422853 
L 271.254239 58.043364 
L 271.627845 54.390776 
L 272.00145 70.693019 
L 272.375055 44.808661 
L 272.74866 70.123785 
L 273.122266 44.03387 
L 273.495871 68.969504 
L 273.869476 43.464636 
L 274.243081 68.779759 
L 274.616687 43.085146 
L 274.990292 68.779759 
L 275.363897 45.377896 
L 276.111108 59.181833 
L 276.484713 63.403655 
L 276.858318 43.464636 
L 277.231923 68.400269 
L 277.605528 42.689844 
L 277.979134 68.400269 
L 278.352739 43.085146 
L 278.726344 68.590014 
L 279.099949 42.895401 
L 279.473555 68.969504 
L 279.84716 43.085146 
L 280.220765 69.538738 
L 280.59437 44.429172 
L 280.967976 70.123785 
L 281.341581 44.429172 
L 281.715186 70.693019 
L 282.088791 45.377896 
L 282.462397 70.123785 
L 282.836002 50.37451 
L 283.209607 61.68014 
L 283.583212 65.901962 
L 283.956818 60.715603 
L 284.330423 47.306968 
L 284.704028 71.657555 
L 285.077633 47.101412 
L 285.451238 71.657555 
L 285.824844 47.101412 
L 286.198449 71.8473 
L 286.572054 45.757386 
L 286.945659 72.416535 
L 287.319265 47.291156 
L 287.69287 71.278066 
L 288.066475 46.152687 
L 288.44008 70.313529 
L 288.813686 45.773198 
L 289.187291 69.744295 
L 289.560896 50.184765 
L 290.308107 67.056243 
L 290.681712 59.577134 
L 291.055317 47.686458 
L 291.428922 70.693019 
L 291.802528 44.998406 
L 292.176133 70.693019 
L 292.549738 45.757386 
L 292.923343 71.072509 
L 293.296949 45.583453 
L 293.670554 70.123785 
L 294.044159 44.618917 
L 294.417764 69.159248 
L 294.791369 44.03387 
L 295.164975 69.538738 
L 295.53858 43.844125 
L 295.912185 68.590014 
L 296.28579 48.065948 
L 296.659396 52.857005 
L 297.033001 56.130103 
L 297.406606 71.072509 
L 297.780211 43.65438 
L 298.153817 68.969504 
L 298.527422 42.895401 
L 298.901027 68.590014 
L 299.274632 42.895401 
L 299.648238 68.590014 
L 300.021843 42.310354 
L 300.395448 67.435733 
L 300.769053 40.397094 
L 301.142659 66.850686 
L 301.516264 41.171885 
L 301.889869 67.815222 
L 302.263474 41.36163 
L 302.637079 69.348993 
L 303.010685 42.12061 
L 303.38429 67.815222 
L 304.1315 42.689844 
L 304.505106 68.969504 
L 304.878711 43.844125 
L 305.252316 70.123785 
L 305.625921 44.998406 
L 305.999527 70.693019 
L 306.373132 45.188151 
L 306.746737 71.278066 
L 307.120342 47.117224 
L 307.493948 72.416535 
L 307.867553 47.876203 
L 308.241158 72.811836 
L 308.614763 52.098025 
L 308.988369 56.319848 
L 309.361974 72.22679 
L 309.735579 51.133489 
L 310.109184 58.422853 
L 310.482789 72.811836 
L 310.856395 47.306968 
L 311.23 73.570816 
L 311.603605 47.876203 
L 311.97721 72.622092 
L 312.350816 47.876203 
L 312.724421 71.8473 
L 313.098026 46.532177 
L 313.471631 72.037045 
L 313.845237 47.496713 
L 314.218842 72.037045 
L 314.592447 47.306968 
L 314.966052 72.60628 
L 315.339658 47.117224 
L 315.713263 72.22679 
L 316.086868 48.635182 
L 316.460473 72.811836 
L 316.834079 48.065948 
L 317.207684 72.622092 
L 317.581289 47.496713 
L 317.954894 72.432347 
L 318.328499 46.152687 
L 318.702105 72.416535 
L 319.07571 46.911667 
L 319.449315 71.467811 
L 319.82292 46.342432 
L 320.196526 71.072509 
L 320.570131 49.030484 
L 320.943736 53.252307 
L 321.317341 70.313529 
L 321.690947 48.445437 
L 322.064552 54.975822 
L 322.438157 70.313529 
L 322.811762 44.03387 
L 323.185368 69.744295 
L 323.558973 43.65438 
L 323.932578 68.590014 
L 324.306183 42.310354 
L 324.679789 68.969504 
L 325.053394 42.310354 
L 325.426999 68.194712 
L 325.800604 41.36163 
L 326.17421 67.815222 
L 326.92142 46.152687 
L 327.295025 63.988702 
L 327.66863 41.156073 
L 328.042236 68.400269 
L 328.415841 41.36163 
L 328.789446 67.625478 
L 329.163051 42.12061 
L 329.536657 67.815222 
L 329.910262 43.085146 
L 330.283867 68.969504 
L 330.657472 43.65438 
L 331.031078 69.348993 
L 331.404683 44.998406 
L 331.778288 69.744295 
L 332.151893 49.409974 
L 332.525499 61.68014 
L 332.899104 53.252307 
L 333.272709 71.8473 
L 333.646314 46.152687 
L 334.01992 71.072509 
L 334.393525 46.721922 
L 334.76713 70.882764 
L 335.140735 46.342432 
L 335.51434 71.467811 
L 335.887946 46.721922 
L 336.261551 71.278066 
L 336.635156 45.567641 
L 337.008761 69.744295 
L 337.382367 49.030484 
L 337.755972 59.0079 
L 338.129577 58.422853 
L 338.503182 56.509593 
L 338.876788 71.657555 
L 339.250393 46.721922 
L 339.623998 71.8473 
L 339.997603 47.686458 
L 340.371209 72.22679 
L 340.744814 46.911667 
L 341.118419 73.381071 
L 341.492024 47.686458 
L 341.86563 71.8473 
L 342.239235 46.721922 
L 342.61284 71.657555 
L 342.986445 46.721922 
L 343.733656 72.796024 
L 344.107261 47.306968 
L 344.480866 71.8473 
L 344.854471 46.342432 
L 345.228077 70.693019 
L 345.601682 45.188151 
L 345.975287 70.313529 
L 346.348892 44.808661 
L 346.722498 70.123785 
L 347.096103 43.464636 
L 347.469708 70.123785 
L 347.843313 46.721922 
L 348.216919 50.564255 
L 348.590524 56.889083 
L 348.964129 54.770265 
L 349.337734 68.400269 
L 349.71134 42.500099 
L 350.084945 68.400269 
L 350.45855 42.689844 
L 350.832155 68.969504 
L 351.20576 43.085146 
L 351.579366 69.159248 
L 351.952971 43.464636 
L 352.326576 71.088321 
L 352.700181 47.291156 
L 353.073787 56.319848 
L 353.447392 62.265186 
L 353.820997 55.924546 
L 354.194602 72.416535 
L 354.568208 48.840739 
L 354.941813 73.760561 
L 355.315418 50.754 
L 355.689023 75.484076 
L 356.062629 53.631796 
L 356.436234 71.8473 
L 356.809839 69.159248 
L 357.183444 63.21391 
L 357.55705 82.963185 
L 358.30426 65.522472 
L 358.677865 86.995263 
L 359.05147 68.590014 
L 359.425076 89.303825 
L 359.798681 71.278066 
L 360.172286 91.217085 
L 360.545891 73.001581 
L 360.919497 86.615773 
L 361.293102 88.149544 
L 361.666707 76.828102 
L 362.040312 92.371366 
L 362.413918 80.86018 
L 362.787523 88.718778 
L 363.161128 90.062804 
L 363.534733 94.474372 
L 363.908339 96.782934 
L 364.655549 102.918017 
L 365.40276 106.934282 
L 365.776365 117.291188 
L 366.14997 109.0531 
L 366.523575 118.445469 
L 366.897181 112.310386 
L 367.270786 122.477547 
L 367.644391 114.998438 
L 368.017996 124.390807 
L 368.391601 116.532208 
L 368.765207 125.734833 
L 369.138812 117.307 
L 369.512417 125.545088 
L 369.886022 116.721953 
L 370.259628 125.734833 
L 370.633233 117.291188 
L 371.006838 126.889114 
L 371.380443 120.168984 
L 371.754049 123.236526 
L 372.127654 128.612629 
L 372.501259 122.477547 
L 372.874864 126.889114 
L 373.24847 129.371609 
L 373.622075 134.178478 
L 373.99568 132.059661 
L 374.369285 139.160861 
L 374.742891 138.197906 
L 375.490101 143.951918 
L 375.863706 142.992125 
L 376.237311 142.418147 
L 376.610917 145.48727 
L 376.984522 143.37794 
L 377.358127 145.868341 
L 377.731732 144.143244 
L 378.105338 146.254155 
L 378.478943 143.951918 
L 378.852548 145.868341 
L 379.226153 143.185033 
L 379.599759 143.376359 
L 379.973364 143.188195 
L 380.346969 143.566104 
L 380.720574 140.693051 
L 381.09418 143.566104 
L 381.467785 140.308817 
L 381.84139 143.185033 
L 382.214995 140.308817 
L 382.588601 142.992125 
L 382.962206 140.882795 
L 383.335811 142.037076 
L 383.709416 141.841007 
L 384.083021 143.759011 
L 384.456627 141.077284 
L 384.830232 143.950337 
L 385.203837 141.459936 
L 385.577442 144.336151 
L 385.951048 142.226821 
L 386.324653 144.717222 
L 386.698258 142.802381 
L 387.071863 144.720385 
L 387.445469 143.759011 
L 387.819074 145.869922 
L 388.192679 143.951918 
L 388.566284 146.252574 
L 388.93989 144.529059 
L 389.313495 147.019459 
L 389.6871 145.48727 
L 390.060705 147.209204 
L 390.434311 146.254155 
L 390.807916 147.405274 
L 391.181521 147.402112 
L 391.555126 147.595019 
L 391.928731 148.746137 
L 392.302337 148.170578 
L 392.675942 148.172159 
L 393.049547 149.511442 
L 393.423152 148.746137 
L 393.796758 150.283071 
L 394.170363 149.320116 
L 394.543968 150.469653 
L 394.917573 149.900419 
L 395.291179 151.236538 
L 395.664784 151.048375 
L 396.411994 151.815576 
L 396.7856 151.813205 
L 397.159205 152.389871 
L 397.53281 152.389871 
L 398.280021 153.157072 
L 398.653626 153.347766 
L 399.027231 153.733739 
L 399.400836 153.540673 
L 400.148047 154.498568 
L 400.521652 154.310405 
L 400.895257 154.882802 
L 401.268862 154.882802 
L 401.642468 154.691476 
L 402.016073 155.649687 
L 402.389678 154.884383 
L 402.763283 155.839432 
L 403.136889 155.268616 
L 403.510494 155.839432 
L 404.63131 155.268616 
L 405.004915 155.45678 
L 405.37852 155.458361 
L 405.752125 155.268616 
L 406.125731 155.649687 
L 406.499336 155.072546 
L 406.872941 155.458361 
L 407.246546 154.691476 
L 407.620152 155.265454 
L 408.367362 154.882802 
L 408.740967 154.884383 
L 409.114572 154.498568 
L 409.488178 154.689894 
L 410.235388 154.689894 
L 410.608993 154.114968 
L 410.982599 154.501731 
L 411.356204 154.308033 
L 412.103414 154.308033 
L 412.47702 153.926804 
L 412.850625 154.498568 
L 413.22423 153.731367 
L 413.597835 154.308033 
L 413.971441 153.540673 
L 414.345046 154.308033 
L 414.718651 153.731367 
L 415.092256 154.114968 
L 415.465862 153.733739 
L 416.586677 153.731367 
L 416.960282 153.540673 
L 417.333888 153.540673 
L 417.707493 153.731367 
L 418.081098 153.540673 
L 418.454703 153.540673 
L 418.828309 153.159444 
L 419.201914 153.731367 
L 419.575519 153.157072 
L 419.949124 153.540673 
L 420.32273 153.347766 
L 420.696335 153.540673 
L 421.06994 153.157072 
L 421.443545 153.347766 
L 421.817151 153.159444 
L 423.311572 153.159444 
L 423.685177 153.345236 
L 424.058782 152.966537 
L 424.432387 153.157072 
L 424.805992 153.157072 
L 424.805992 153.157072 
" clip-path="url(#p0c3ebd3027)" style="fill: none; stroke: #ff7f0e; stroke-width: 1.5; stroke-linecap: square"/>
   </g>
   <g id="patch_3">
    <path d="M 50.565625 161.67875 
L 50.565625 33.21375 
" style="fill: none; stroke: #000000; stroke-width: 0.8; stroke-linejoin: miter; stroke-linecap: square"/>
   </g>
   <g id="patch_4">
    <path d="M 442.626962 161.67875 
L 442.626962 33.21375 
" style="fill: none; stroke: #000000; stroke-width: 0.8; stroke-linejoin: miter; stroke-linecap: square"/>
   </g>
   <g id="patch_5">
    <path d="M 50.565625 161.67875 
L 442.626962 161.67875 
" style="fill: none; stroke: #000000; stroke-width: 0.8; stroke-linejoin: miter; stroke-linecap: square"/>
   </g>
   <g id="patch_6">
    <path d="M 50.565625 33.21375 
L 442.626962 33.21375 
" style="fill: none; stroke: #000000; stroke-width: 0.8; stroke-linejoin: miter; stroke-linecap: square"/>
   </g>
   <g id="legend_1">
    <g id="patch_7">
     <path d="M 205.3377 156.67875 
L 287.854887 156.67875 
Q 289.854887 156.67875 289.854887 154.67875 
L 289.854887 126.3225 
Q 289.854887 124.3225 287.854887 124.3225 
L 205.3377 124.3225 
Q 203.3377 124.3225 203.3377 126.3225 
L 203.3377 154.67875 
Q 203.3377 156.67875 205.3377 156.67875 
z
" style="fill: #ffffff; opacity: 0.8; stroke: #cccccc; stroke-linejoin: miter"/>
    </g>
    <g id="line2d_23">
     <path d="M 207.3377 132.420937 
L 217.3377 132.420937 
L 227.3377 132.420937 
" style="fill: none; stroke: #1f77b4; stroke-width: 1.5; stroke-linecap: square"/>
    </g>
    <g id="text_6">
     <!-- Reference -->
     <g transform="translate(235.3377 135.920937)scale(0.1 -0.1)">
      <defs>
       <path id="DejaVuSans-52" d="M 2841 2188 
Q 3044 2119 3236 1894 
Q 3428 1669 3622 1275 
L 4263 0 
L 3584 0 
L 2988 1197 
Q 2756 1666 2539 1819 
Q 2322 1972 1947 1972 
L 1259 1972 
L 1259 0 
L 628 0 
L 628 4666 
L 2053 4666 
Q 2853 4666 3247 4331 
Q 3641 3997 3641 3322 
Q 3641 2881 3436 2590 
Q 3231 2300 2841 2188 
z
M 1259 4147 
L 1259 2491 
L 2053 2491 
Q 2509 2491 2742 2702 
Q 2975 2913 2975 3322 
Q 2975 3731 2742 3939 
Q 2509 4147 2053 4147 
L 1259 4147 
z
" transform="scale(0.015625)"/>
       <path id="DejaVuSans-66" d="M 2375 4863 
L 2375 4384 
L 1825 4384 
Q 1516 4384 1395 4259 
Q 1275 4134 1275 3809 
L 1275 3500 
L 2222 3500 
L 2222 3053 
L 1275 3053 
L 1275 0 
L 697 0 
L 697 3053 
L 147 3053 
L 147 3500 
L 697 3500 
L 697 3744 
Q 697 4328 969 4595 
Q 1241 4863 1831 4863 
L 2375 4863 
z
" transform="scale(0.015625)"/>
       <path id="DejaVuSans-63" d="M 3122 3366 
L 3122 2828 
Q 2878 2963 2633 3030 
Q 2388 3097 2138 3097 
Q 1578 3097 1268 2742 
Q 959 2388 959 1747 
Q 959 1106 1268 751 
Q 1578 397 2138 397 
Q 2388 397 2633 464 
Q 2878 531 3122 666 
L 3122 134 
Q 2881 22 2623 -34 
Q 2366 -91 2075 -91 
Q 1284 -91 818 406 
Q 353 903 353 1747 
Q 353 2603 823 3093 
Q 1294 3584 2113 3584 
Q 2378 3584 2631 3529 
Q 2884 3475 3122 3366 
z
" transform="scale(0.015625)"/>
      </defs>
      <use xlink:href="#DejaVuSans-52"/>
      <use xlink:href="#DejaVuSans-65" x="64.982422"/>
      <use xlink:href="#DejaVuSans-66" x="126.505859"/>
      <use xlink:href="#DejaVuSans-65" x="161.710938"/>
      <use xlink:href="#DejaVuSans-72" x="223.234375"/>
      <use xlink:href="#DejaVuSans-65" x="262.097656"/>
      <use xlink:href="#DejaVuSans-6e" x="323.621094"/>
      <use xlink:href="#DejaVuSans-63" x="387"/>
      <use xlink:href="#DejaVuSans-65" x="441.980469"/>
     </g>
    </g>
    <g id="line2d_24">
     <path d="M 207.3377 147.099062 
L 217.3377 147.099062 
L 227.3377 147.099062 
" style="fill: none; stroke: #ff7f0e; stroke-width: 1.5; stroke-linecap: square"/>
    </g>
    <g id="text_7">
     <!-- Estimated -->
     <g transform="translate(235.3377 150.599062)scale(0.1 -0.1)">
      <defs>
       <path id="DejaVuSans-45" d="M 628 4666 
L 3578 4666 
L 3578 4134 
L 1259 4134 
L 1259 2753 
L 3481 2753 
L 3481 2222 
L 1259 2222 
L 1259 531 
L 3634 531 
L 3634 0 
L 628 0 
L 628 4666 
z
" transform="scale(0.015625)"/>
       <path id="DejaVuSans-69" d="M 603 3500 
L 1178 3500 
L 1178 0 
L 603 0 
L 603 3500 
z
M 603 4863 
L 1178 4863 
L 1178 4134 
L 603 4134 
L 603 4863 
z
" transform="scale(0.015625)"/>
       <path id="DejaVuSans-64" d="M 2906 2969 
L 2906 4863 
L 3481 4863 
L 3481 0 
L 2906 0 
L 2906 525 
Q 2725 213 2448 61 
Q 2172 -91 1784 -91 
Q 1150 -91 751 415 
Q 353 922 353 1747 
Q 353 2572 751 3078 
Q 1150 3584 1784 3584 
Q 2172 3584 2448 3432 
Q 2725 3281 2906 2969 
z
M 947 1747 
Q 947 1113 1208 752 
Q 1469 391 1925 391 
Q 2381 391 2643 752 
Q 2906 1113 2906 1747 
Q 2906 2381 2643 2742 
Q 2381 3103 1925 3103 
Q 1469 3103 1208 2742 
Q 947 2381 947 1747 
z
" transform="scale(0.015625)"/>
      </defs>
      <use xlink:href="#DejaVuSans-45"/>
      <use xlink:href="#DejaVuSans-73" x="63.183594"/>
      <use xlink:href="#DejaVuSans-74" x="115.283203"/>
      <use xlink:href="#DejaVuSans-69" x="154.492188"/>
      <use xlink:href="#DejaVuSans-6d" x="182.275391"/>
      <use xlink:href="#DejaVuSans-61" x="279.6875"/>
      <use xlink:href="#DejaVuSans-74" x="340.966797"/>
      <use xlink:href="#DejaVuSans-65" x="380.175781"/>
      <use xlink:href="#DejaVuSans-64" x="441.699219"/>
     </g>
    </g>
   </g>
  </g>
  <g id="axes_2">
   <g id="patch_8">
    <path d="M 50.565625 304.44375 
L 442.626962 304.44375 
L 442.626962 175.97875 
L 50.565625 175.97875 
z
" style="fill: #ffffff"/>
   </g>
   <g id="matplotlib.axis_3">
    <g id="xtick_7">
     <g id="line2d_25">
      <path d="M 68.386595 304.44375 
L 68.386595 175.97875 
" clip-path="url(#pdc1b3d72df)" style="fill: none; stroke: #b0b0b0; stroke-width: 0.8; stroke-linecap: square"/>
     </g>
     <g id="line2d_26">
      <g>
       <use xlink:href="#maaa5c140b2" x="68.386595" y="304.44375" style="stroke: #000000; stroke-width: 0.8"/>
      </g>
     </g>
     <g id="text_8">
      <!-- 0.0 -->
      <g transform="translate(60.435032 319.042187)scale(0.1 -0.1)">
       <use xlink:href="#DejaVuSans-30"/>
       <use xlink:href="#DejaVuSans-2e" x="63.623047"/>
       <use xlink:href="#DejaVuSans-30" x="95.410156"/>
      </g>
     </g>
    </g>
    <g id="xtick_8">
     <g id="line2d_27">
      <path d="M 143.107643 304.44375 
L 143.107643 175.97875 
" clip-path="url(#pdc1b3d72df)" style="fill: none; stroke: #b0b0b0; stroke-width: 0.8; stroke-linecap: square"/>
     </g>
     <g id="line2d_28">
      <g>
       <use xlink:href="#maaa5c140b2" x="143.107643" y="304.44375" style="stroke: #000000; stroke-width: 0.8"/>
      </g>
     </g>
     <g id="text_9">
      <!-- 0.2 -->
      <g transform="translate(135.15608 319.042187)scale(0.1 -0.1)">
       <use xlink:href="#DejaVuSans-30"/>
       <use xlink:href="#DejaVuSans-2e" x="63.623047"/>
       <use xlink:href="#DejaVuSans-32" x="95.410156"/>
      </g>
     </g>
    </g>
    <g id="xtick_9">
     <g id="line2d_29">
      <path d="M 217.82869 304.44375 
L 217.82869 175.97875 
" clip-path="url(#pdc1b3d72df)" style="fill: none; stroke: #b0b0b0; stroke-width: 0.8; stroke-linecap: square"/>
     </g>
     <g id="line2d_30">
      <g>
       <use xlink:href="#maaa5c140b2" x="217.82869" y="304.44375" style="stroke: #000000; stroke-width: 0.8"/>
      </g>
     </g>
     <g id="text_10">
      <!-- 0.4 -->
      <g transform="translate(209.877128 319.042187)scale(0.1 -0.1)">
       <use xlink:href="#DejaVuSans-30"/>
       <use xlink:href="#DejaVuSans-2e" x="63.623047"/>
       <use xlink:href="#DejaVuSans-34" x="95.410156"/>
      </g>
     </g>
    </g>
    <g id="xtick_10">
     <g id="line2d_31">
      <path d="M 292.549738 304.44375 
L 292.549738 175.97875 
" clip-path="url(#pdc1b3d72df)" style="fill: none; stroke: #b0b0b0; stroke-width: 0.8; stroke-linecap: square"/>
     </g>
     <g id="line2d_32">
      <g>
       <use xlink:href="#maaa5c140b2" x="292.549738" y="304.44375" style="stroke: #000000; stroke-width: 0.8"/>
      </g>
     </g>
     <g id="text_11">
      <!-- 0.6 -->
      <g transform="translate(284.598176 319.042187)scale(0.1 -0.1)">
       <use xlink:href="#DejaVuSans-30"/>
       <use xlink:href="#DejaVuSans-2e" x="63.623047"/>
       <use xlink:href="#DejaVuSans-36" x="95.410156"/>
      </g>
     </g>
    </g>
    <g id="xtick_11">
     <g id="line2d_33">
      <path d="M 367.270786 304.44375 
L 367.270786 175.97875 
" clip-path="url(#pdc1b3d72df)" style="fill: none; stroke: #b0b0b0; stroke-width: 0.8; stroke-linecap: square"/>
     </g>
     <g id="line2d_34">
      <g>
       <use xlink:href="#maaa5c140b2" x="367.270786" y="304.44375" style="stroke: #000000; stroke-width: 0.8"/>
      </g>
     </g>
     <g id="text_12">
      <!-- 0.8 -->
      <g transform="translate(359.319223 319.042187)scale(0.1 -0.1)">
       <defs>
        <path id="DejaVuSans-38" d="M 2034 2216 
Q 1584 2216 1326 1975 
Q 1069 1734 1069 1313 
Q 1069 891 1326 650 
Q 1584 409 2034 409 
Q 2484 409 2743 651 
Q 3003 894 3003 1313 
Q 3003 1734 2745 1975 
Q 2488 2216 2034 2216 
z
M 1403 2484 
Q 997 2584 770 2862 
Q 544 3141 544 3541 
Q 544 4100 942 4425 
Q 1341 4750 2034 4750 
Q 2731 4750 3128 4425 
Q 3525 4100 3525 3541 
Q 3525 3141 3298 2862 
Q 3072 2584 2669 2484 
Q 3125 2378 3379 2068 
Q 3634 1759 3634 1313 
Q 3634 634 3220 271 
Q 2806 -91 2034 -91 
Q 1263 -91 848 271 
Q 434 634 434 1313 
Q 434 1759 690 2068 
Q 947 2378 1403 2484 
z
M 1172 3481 
Q 1172 3119 1398 2916 
Q 1625 2713 2034 2713 
Q 2441 2713 2670 2916 
Q 2900 3119 2900 3481 
Q 2900 3844 2670 4047 
Q 2441 4250 2034 4250 
Q 1625 4250 1398 4047 
Q 1172 3844 1172 3481 
z
" transform="scale(0.015625)"/>
       </defs>
       <use xlink:href="#DejaVuSans-30"/>
       <use xlink:href="#DejaVuSans-2e" x="63.623047"/>
       <use xlink:href="#DejaVuSans-38" x="95.410156"/>
      </g>
     </g>
    </g>
    <g id="xtick_12">
     <g id="line2d_35">
      <path d="M 441.991833 304.44375 
L 441.991833 175.97875 
" clip-path="url(#pdc1b3d72df)" style="fill: none; stroke: #b0b0b0; stroke-width: 0.8; stroke-linecap: square"/>
     </g>
     <g id="line2d_36">
      <g>
       <use xlink:href="#maaa5c140b2" x="441.991833" y="304.44375" style="stroke: #000000; stroke-width: 0.8"/>
      </g>
     </g>
     <g id="text_13">
      <!-- 1.0 -->
      <g transform="translate(434.040271 319.042187)scale(0.1 -0.1)">
       <defs>
        <path id="DejaVuSans-31" d="M 794 531 
L 1825 531 
L 1825 4091 
L 703 3866 
L 703 4441 
L 1819 4666 
L 2450 4666 
L 2450 531 
L 3481 531 
L 3481 0 
L 794 0 
L 794 531 
z
" transform="scale(0.015625)"/>
       </defs>
       <use xlink:href="#DejaVuSans-31"/>
       <use xlink:href="#DejaVuSans-2e" x="63.623047"/>
       <use xlink:href="#DejaVuSans-30" x="95.410156"/>
      </g>
     </g>
    </g>
    <g id="text_14">
     <!-- Time [s] -->
     <g transform="translate(226.267387 332.720312)scale(0.1 -0.1)">
      <defs>
       <path id="DejaVuSans-54" d="M -19 4666 
L 3928 4666 
L 3928 4134 
L 2272 4134 
L 2272 0 
L 1638 0 
L 1638 4134 
L -19 4134 
L -19 4666 
z
" transform="scale(0.015625)"/>
      </defs>
      <use xlink:href="#DejaVuSans-54"/>
      <use xlink:href="#DejaVuSans-69" x="57.958984"/>
      <use xlink:href="#DejaVuSans-6d" x="85.742188"/>
      <use xlink:href="#DejaVuSans-65" x="183.154297"/>
      <use xlink:href="#DejaVuSans-20" x="244.677734"/>
      <use xlink:href="#DejaVuSans-5b" x="276.464844"/>
      <use xlink:href="#DejaVuSans-73" x="315.478516"/>
      <use xlink:href="#DejaVuSans-5d" x="367.578125"/>
     </g>
    </g>
   </g>
   <g id="matplotlib.axis_4">
    <g id="ytick_5">
     <g id="line2d_37">
      <path d="M 50.565625 275.547092 
L 442.626962 275.547092 
" clip-path="url(#pdc1b3d72df)" style="fill: none; stroke: #b0b0b0; stroke-width: 0.8; stroke-linecap: square"/>
     </g>
     <g id="line2d_38">
      <g>
       <use xlink:href="#m5950ac5a90" x="50.565625" y="275.547092" style="stroke: #000000; stroke-width: 0.8"/>
      </g>
     </g>
     <g id="text_15">
      <!-- −1 -->
      <g transform="translate(28.823438 279.346311)scale(0.1 -0.1)">
       <defs>
        <path id="DejaVuSans-2212" d="M 678 2272 
L 4684 2272 
L 4684 1741 
L 678 1741 
L 678 2272 
z
" transform="scale(0.015625)"/>
       </defs>
       <use xlink:href="#DejaVuSans-2212"/>
       <use xlink:href="#DejaVuSans-31" x="83.789062"/>
      </g>
     </g>
    </g>
    <g id="ytick_6">
     <g id="line2d_39">
      <path d="M 50.565625 238.055482 
L 442.626962 238.055482 
" clip-path="url(#pdc1b3d72df)" style="fill: none; stroke: #b0b0b0; stroke-width: 0.8; stroke-linecap: square"/>
     </g>
     <g id="line2d_40">
      <g>
       <use xlink:href="#m5950ac5a90" x="50.565625" y="238.055482" style="stroke: #000000; stroke-width: 0.8"/>
      </g>
     </g>
     <g id="text_16">
      <!-- 0 -->
      <g transform="translate(37.203125 241.854701)scale(0.1 -0.1)">
       <use xlink:href="#DejaVuSans-30"/>
      </g>
     </g>
    </g>
    <g id="ytick_7">
     <g id="line2d_41">
      <path d="M 50.565625 200.563873 
L 442.626962 200.563873 
" clip-path="url(#pdc1b3d72df)" style="fill: none; stroke: #b0b0b0; stroke-width: 0.8; stroke-linecap: square"/>
     </g>
     <g id="line2d_42">
      <g>
       <use xlink:href="#m5950ac5a90" x="50.565625" y="200.563873" style="stroke: #000000; stroke-width: 0.8"/>
      </g>
     </g>
     <g id="text_17">
      <!-- 1 -->
      <g transform="translate(37.203125 204.363092)scale(0.1 -0.1)">
       <use xlink:href="#DejaVuSans-31"/>
      </g>
     </g>
    </g>
    <g id="text_18">
     <!-- rot. vel. [rad/s] -->
     <g transform="translate(22.74375 277.439375)rotate(-90)scale(0.1 -0.1)">
      <defs>
       <path id="DejaVuSans-6f" d="M 1959 3097 
Q 1497 3097 1228 2736 
Q 959 2375 959 1747 
Q 959 1119 1226 758 
Q 1494 397 1959 397 
Q 2419 397 2687 759 
Q 2956 1122 2956 1747 
Q 2956 2369 2687 2733 
Q 2419 3097 1959 3097 
z
M 1959 3584 
Q 2709 3584 3137 3096 
Q 3566 2609 3566 1747 
Q 3566 888 3137 398 
Q 2709 -91 1959 -91 
Q 1206 -91 779 398 
Q 353 888 353 1747 
Q 353 2609 779 3096 
Q 1206 3584 1959 3584 
z
" transform="scale(0.015625)"/>
      </defs>
      <use xlink:href="#DejaVuSans-72"/>
      <use xlink:href="#DejaVuSans-6f" x="38.863281"/>
      <use xlink:href="#DejaVuSans-74" x="100.044922"/>
      <use xlink:href="#DejaVuSans-2e" x="139.253906"/>
      <use xlink:href="#DejaVuSans-20" x="171.041016"/>
      <use xlink:href="#DejaVuSans-76" x="202.828125"/>
      <use xlink:href="#DejaVuSans-65" x="262.007812"/>
      <use xlink:href="#DejaVuSans-6c" x="323.53125"/>
      <use xlink:href="#DejaVuSans-2e" x="351.314453"/>
      <use xlink:href="#DejaVuSans-20" x="383.101562"/>
      <use xlink:href="#DejaVuSans-5b" x="414.888672"/>
      <use xlink:href="#DejaVuSans-72" x="453.902344"/>
      <use xlink:href="#DejaVuSans-61" x="495.015625"/>
      <use xlink:href="#DejaVuSans-64" x="556.294922"/>
      <use xlink:href="#DejaVuSans-2f" x="619.771484"/>
      <use xlink:href="#DejaVuSans-73" x="653.462891"/>
      <use xlink:href="#DejaVuSans-5d" x="705.5625"/>
     </g>
    </g>
   </g>
   <g id="line2d_43">
    <path d="M 68.386595 238.055482 
L 424.805992 238.055482 
L 424.805992 238.055482 
" clip-path="url(#pdc1b3d72df)" style="fill: none; stroke: #1f77b4; stroke-width: 1.5; stroke-linecap: square"/>
   </g>
   <g id="line2d_44">
    <path d="M 68.386595 238.055482 
L 71.749042 238.068848 
L 73.617068 238.108758 
L 73.990673 235.914337 
L 74.364279 231.164525 
L 74.737884 230.249729 
L 75.485094 235.395453 
L 75.8587 236.871872 
L 76.232305 236.153533 
L 76.979515 233.001613 
L 77.353121 232.12431 
L 77.726726 232.604202 
L 78.100331 231.644417 
L 78.473936 226.418087 
L 79.594752 204.594221 
L 79.968357 204.313034 
L 80.341963 208.103436 
L 80.715568 209.501873 
L 81.089173 208.223409 
L 81.462778 207.706025 
L 82.209989 207.027426 
L 82.583594 207.743516 
L 82.957199 207.863489 
L 83.330804 208.860766 
L 83.70441 216.044159 
L 84.078015 226.53806 
L 84.45162 229.931051 
L 84.825225 228.851292 
L 85.198831 229.931051 
L 86.693252 260.812889 
L 87.066857 265.281889 
L 87.440462 264.123399 
L 87.814067 260.812889 
L 88.561278 262.128845 
L 88.934883 261.16906 
L 89.682093 254.188122 
L 90.055699 251.994863 
L 90.429304 253.869443 
L 90.802909 256.981247 
L 91.55012 252.673461 
L 91.923725 249.599149 
L 92.29733 252.114836 
L 92.670935 263.606014 
L 93.044541 268.712372 
L 93.418146 260.932863 
L 93.791751 243.094355 
L 94.165356 232.604202 
L 94.538962 229.811078 
L 94.912567 230.64714 
L 95.286172 229.968542 
L 95.659777 228.172694 
L 96.033383 225.42081 
L 96.406988 218.357391 
L 96.780593 207.863489 
L 97.154198 201.999802 
L 97.527803 203.038319 
L 97.901409 211.095266 
L 98.275014 215.166855 
L 98.648619 214.765695 
L 99.769435 201.002525 
L 100.14304 206.108882 
L 100.516645 219.155962 
L 100.890251 236.472962 
L 101.263856 239.465167 
L 102.011066 218.638578 
L 102.384672 217.281382 
L 102.758277 228.015229 
L 103.131882 235.11614 
L 103.505487 230.448435 
L 103.879093 221.791622 
L 104.252698 224.820944 
L 104.626303 234.637372 
L 104.999908 236.871872 
L 105.373514 234.557515 
L 105.747119 225.780729 
L 106.120724 225.698248 
L 106.494329 237.669694 
L 106.867934 236.552819 
L 107.24154 224.022373 
L 107.615145 225.102131 
L 107.98875 242.618211 
L 108.362355 253.588256 
L 108.735961 249.201738 
L 109.109566 246.329881 
L 109.483171 249.081765 
L 110.603987 269.709648 
L 111.351197 267.793827 
L 111.724803 269.987086 
L 112.098408 266.237925 
L 112.472013 258.139738 
L 112.845618 245.610042 
L 113.592829 233.24156 
L 113.966434 236.472962 
L 114.340039 242.419506 
L 114.713644 245.328855 
L 115.08725 242.895649 
L 115.460855 241.659926 
L 116.208065 260.374238 
L 116.581671 264.164639 
L 116.955276 258.21847 
L 117.702486 237.031587 
L 118.076092 238.866801 
L 118.823302 261.967631 
L 119.196907 244.492792 
L 119.570513 220.314453 
L 119.944118 211.653891 
L 120.317723 212.692409 
L 120.691328 207.226132 
L 121.064934 211.297721 
L 121.438539 223.385016 
L 121.812144 225.859462 
L 122.185749 223.265042 
L 122.559354 229.252453 
L 123.306565 250.120282 
L 123.68017 248.241953 
L 124.053775 242.179559 
L 124.427381 238.547747 
L 124.800986 238.866801 
L 125.174591 245.969961 
L 125.548196 246.648559 
L 125.921802 250.915105 
L 126.295407 247.844542 
L 127.042617 234.478033 
L 127.416223 227.257899 
L 127.789828 227.055444 
L 128.537038 241.300756 
L 128.910644 245.730015 
L 130.031459 232.045577 
L 130.405064 230.808354 
L 130.77867 231.085792 
L 131.152275 230.369703 
L 131.52588 225.499542 
L 131.899485 223.906149 
L 132.273091 228.333908 
L 133.020301 216.122891 
L 133.393906 217.798766 
L 134.141117 226.178141 
L 134.514722 228.052721 
L 134.888327 228.093962 
L 135.261933 238.18854 
L 135.635538 244.414059 
L 136.009143 242.258292 
L 136.756354 259.215747 
L 137.129959 260.970354 
L 137.503564 259.294479 
L 137.877169 251.634943 
L 138.250774 248.084488 
L 138.62438 251.51497 
L 138.997985 250.836372 
L 139.37159 248.241953 
L 139.745195 247.364649 
L 140.118801 252.471006 
L 140.492406 261.57022 
L 140.866011 265.840514 
L 141.239616 268.749863 
L 141.613222 260.651676 
L 141.986827 248.560631 
L 142.360432 250.199015 
L 142.734037 259.973077 
L 143.107643 261.607712 
L 143.854853 242.179559 
L 144.228458 239.505283 
L 144.975669 218.117445 
L 145.349274 219.275935 
L 146.096485 228.971265 
L 146.47009 236.712158 
L 146.843695 235.036658 
L 147.2173 237.989047 
L 147.590905 235.594908 
L 147.964511 227.257899 
L 148.338116 231.524444 
L 148.711721 237.35064 
L 149.085326 238.507631 
L 149.458932 242.138319 
L 149.832537 237.590212 
L 150.206142 236.074051 
L 150.579747 232.12431 
L 150.953353 225.222105 
L 151.326958 222.908872 
L 151.700563 219.515882 
L 152.074168 212.212516 
L 152.447774 215.444293 
L 153.194984 233.758944 
L 153.568589 224.66348 
L 153.942195 212.771141 
L 154.3158 212.37373 
L 155.06301 221.750381 
L 155.436615 227.816524 
L 155.810221 230.568408 
L 156.183826 243.416783 
L 156.557431 242.217051 
L 156.931036 233.361533 
L 157.304642 230.965819 
L 157.678247 230.009783 
L 158.051852 230.845846 
L 158.799063 224.862185 
L 159.172668 227.535337 
L 159.546273 227.257899 
L 159.919878 227.576578 
L 160.293484 231.884364 
L 161.040694 243.536756 
L 161.414299 243.135596 
L 161.787905 248.043247 
L 162.16151 258.975801 
L 162.535115 261.810166 
L 163.655931 246.888506 
L 164.029536 244.931444 
L 164.403141 247.207184 
L 164.776746 256.741301 
L 165.150352 261.768925 
L 165.523957 255.346613 
L 165.897562 254.386828 
L 166.271167 261.528979 
L 166.644773 265.281889 
L 167.018378 265.559327 
L 167.391983 261.930139 
L 167.765588 255.702783 
L 168.139194 252.272301 
L 168.512799 246.089934 
L 168.886404 235.874221 
L 169.260009 229.372426 
L 169.633615 227.973989 
L 170.75443 243.814194 
L 171.128035 241.46047 
L 171.501641 230.129756 
L 171.875246 230.167248 
L 172.248851 236.672417 
L 172.622456 240.781872 
L 172.996062 247.885782 
L 173.369667 249.003032 
L 173.743272 237.550096 
L 174.116877 232.922881 
L 174.490483 230.725873 
L 174.864088 227.576578 
L 175.237693 226.140649 
L 175.984904 219.875801 
L 176.358509 216.325346 
L 176.732114 219.83456 
L 177.105719 229.968542 
L 177.479325 233.162827 
L 177.85293 232.761667 
L 178.226535 230.928327 
L 178.60014 228.015229 
L 179.347351 216.883971 
L 179.720956 216.644024 
L 180.094561 225.698248 
L 180.468166 226.339354 
L 180.841772 215.766721 
L 181.215377 214.885668 
L 181.588982 218.796043 
L 183.083403 243.214328 
L 183.830614 228.573854 
L 184.204219 233.680212 
L 184.577824 243.135596 
L 184.951429 248.841819 
L 185.325035 250.836372 
L 185.69864 249.119256 
L 186.072245 246.28864 
L 186.44585 246.888506 
L 186.819456 248.403167 
L 187.193061 245.531309 
L 187.566666 240.423078 
L 187.940271 237.949156 
L 188.313876 239.505283 
L 188.687482 249.400443 
L 189.061087 255.425345 
L 189.434692 255.586559 
L 189.808297 263.084881 
L 190.181903 272.900184 
L 190.555508 274.21614 
L 190.929113 271.745443 
L 191.302718 270.545711 
L 191.676324 266.03922 
L 192.049929 267.872559 
L 192.423534 263.725987 
L 193.54435 234.517774 
L 193.917955 232.562962 
L 194.29156 235.794738 
L 194.665166 237.071328 
L 195.038771 242.138319 
L 195.412376 250.037801 
L 195.785981 248.403167 
L 196.159586 242.337024 
L 196.533192 244.81147 
L 196.906797 248.841819 
L 197.280402 245.88748 
L 197.654007 232.604202 
L 198.027613 224.820944 
L 198.401218 233.601479 
L 198.774823 239.624881 
L 199.148428 237.669694 
L 199.895639 209.700578 
L 200.269244 208.782034 
L 200.642849 211.533918 
L 201.016455 211.057774 
L 201.763665 222.267766 
L 202.510876 226.178141 
L 203.258086 219.155962 
L 203.631691 220.591891 
L 204.005296 220.753105 
L 204.378902 230.167248 
L 204.752507 233.601479 
L 205.499717 221.551676 
L 205.873323 218.676069 
L 206.620533 208.860766 
L 207.367744 228.333908 
L 208.114954 237.510354 
L 208.488559 234.637372 
L 208.862165 230.808354 
L 209.23577 233.758944 
L 209.609375 240.462819 
L 209.98298 242.696944 
L 210.730191 257.659845 
L 211.103796 256.422622 
L 211.477401 248.16322 
L 212.224612 227.854016 
L 212.598217 233.95765 
L 212.971822 247.40589 
L 213.345427 252.99214 
L 213.719033 254.787988 
L 214.092638 259.973077 
L 214.466243 273.818729 
L 214.839848 279.633677 
L 215.213454 279.558694 
L 215.587059 273.301345 
L 215.960664 259.455693 
L 216.334269 256.583836 
L 216.707875 260.891622 
L 217.08148 257.46114 
L 217.455085 250.199015 
L 217.82869 240.143765 
L 218.202296 233.560238 
L 218.575901 223.943641 
L 218.949506 227.895256 
L 219.323111 239.305828 
L 219.696717 237.789554 
L 220.070322 233.920158 
L 220.817532 248.52314 
L 221.191137 245.130149 
L 221.564743 233.601479 
L 221.938348 226.099408 
L 222.311953 234.996542 
L 222.685558 237.270783 
L 223.059164 232.724176 
L 223.806374 217.840007 
L 224.179979 216.164132 
L 224.553585 221.750381 
L 224.92719 229.571131 
L 225.300795 234.077623 
L 225.6744 229.691104 
L 226.048006 223.744935 
L 226.421611 227.734042 
L 226.795216 229.049998 
L 227.168821 227.137926 
L 227.542427 229.049998 
L 227.916032 230.369703 
L 228.289637 227.854016 
L 228.663242 228.333908 
L 229.036847 227.854016 
L 229.784058 221.191756 
L 230.904874 239.824337 
L 231.278479 240.50256 
L 231.652084 235.236113 
L 232.025689 237.031587 
L 232.399295 242.498238 
L 232.7729 240.861729 
L 233.146505 236.313247 
L 234.267321 246.967238 
L 234.640926 245.88748 
L 235.014531 243.574247 
L 235.388137 239.465167 
L 235.761742 236.792015 
L 236.135347 243.056863 
L 236.508952 245.771256 
L 236.882557 247.484622 
L 237.256163 249.797855 
L 237.629768 250.037801 
L 238.003373 249.28047 
L 238.376978 253.509524 
L 239.124189 270.1483 
L 239.497794 275.584584 
L 239.871399 273.061398 
L 240.245005 269.510943 
L 240.61861 268.033773 
L 241.36582 252.793434 
L 241.739426 249.959068 
L 242.113031 244.654006 
L 242.486636 242.138319 
L 242.860241 238.427962 
L 243.233847 241.220899 
L 243.981057 231.127033 
L 244.728267 232.641694 
L 245.101873 232.165551 
L 245.475478 232.641694 
L 245.849083 229.252453 
L 246.222688 227.456604 
L 246.596294 227.696551 
L 246.969899 228.77256 
L 247.343504 228.813801 
L 247.717109 224.344801 
L 248.090715 224.022373 
L 248.46432 230.965819 
L 248.837925 234.637372 
L 249.21153 227.854016 
L 249.585136 214.649471 
L 249.958741 214.008364 
L 250.332346 219.594614 
L 250.705951 222.507712 
L 251.079557 219.995774 
L 251.453162 218.559846 
L 251.826767 221.150516 
L 252.200372 219.155962 
L 252.573978 227.65531 
L 252.947583 226.219381 
L 253.321188 215.684239 
L 253.694793 212.651168 
L 254.068398 212.534944 
L 254.442004 214.728203 
L 254.815609 221.750381 
L 255.189214 235.236113 
L 255.562819 254.907961 
L 255.936425 252.673461 
L 256.31003 244.372819 
L 256.683635 248.721845 
L 257.05724 258.019765 
L 257.430846 258.338443 
L 257.804451 256.223916 
L 258.178056 255.863997 
L 258.551661 255.98397 
L 258.925267 257.10122 
L 259.298872 259.774372 
L 259.672477 259.137014 
L 260.793293 230.009783 
L 261.166898 223.624962 
L 261.540503 213.532221 
L 261.914108 216.122891 
L 262.661319 245.250122 
L 263.408529 259.455693 
L 263.782135 272.581506 
L 264.15574 280.083577 
L 264.529345 284.245145 
L 264.90295 272.540265 
L 265.276556 256.981247 
L 265.650161 248.324434 
L 266.023766 246.768533 
L 266.397371 250.997586 
L 266.770977 251.353756 
L 267.144582 254.907961 
L 267.518187 252.471006 
L 267.891792 240.063908 
L 268.265398 234.437917 
L 268.639003 237.390381 
L 269.012608 237.989047 
L 269.759818 224.700971 
L 270.133424 224.423533 
L 270.507029 230.928327 
L 270.880634 232.484229 
L 271.627845 222.06906 
L 272.00145 221.469194 
L 272.375055 224.820944 
L 273.122266 237.190926 
L 273.495871 238.866801 
L 274.243081 221.870355 
L 274.990292 233.99889 
L 275.363897 230.887087 
L 276.111108 219.755828 
L 276.484713 228.015229 
L 276.858318 231.884364 
L 277.605528 208.26465 
L 277.979134 206.03015 
L 278.352739 210.619123 
L 279.099949 221.829114 
L 279.84716 244.732738 
L 280.220765 241.181158 
L 280.59437 236.113792 
L 280.967976 236.273506 
L 281.341581 237.310899 
L 281.715186 238.986399 
L 282.088791 236.632301 
L 282.462397 235.794738 
L 282.836002 239.265712 
L 283.583212 232.802908 
L 283.956818 231.843123 
L 284.330423 232.682935 
L 285.077633 243.855434 
L 285.451238 239.305828 
L 285.824844 237.270783 
L 286.198449 237.270783 
L 286.572054 241.699667 
L 286.945659 249.081765 
L 287.319265 251.676184 
L 287.69287 253.112113 
L 288.066475 250.157774 
L 288.44008 249.520417 
L 289.187291 259.054533 
L 289.560896 255.702783 
L 289.934501 247.484622 
L 290.308107 247.645836 
L 291.055317 264.843237 
L 291.428922 270.466979 
L 291.802528 270.785658 
L 292.176133 255.106666 
L 292.549738 247.04597 
L 292.923343 252.99214 
L 293.296949 251.676184 
L 293.670554 238.627604 
L 294.044159 229.52989 
L 294.417764 224.982158 
L 295.164975 233.001613 
L 295.53858 230.129756 
L 296.28579 217.082676 
L 296.659396 218.278658 
L 297.033001 227.775283 
L 297.406606 240.542676 
L 297.780211 246.089934 
L 298.153817 242.097078 
L 298.901027 231.404471 
L 299.274632 230.767114 
L 299.648238 230.527167 
L 300.021843 229.691104 
L 300.395448 231.164525 
L 300.769053 235.874221 
L 301.142659 239.066256 
L 301.889869 224.742212 
L 302.263474 227.535337 
L 302.637079 227.696551 
L 303.010685 226.658033 
L 303.38429 224.464774 
L 303.757895 228.573854 
L 304.1315 228.971265 
L 304.878711 242.618211 
L 305.625921 229.331185 
L 305.999527 221.390462 
L 306.373132 218.158685 
L 306.746737 229.012506 
L 307.120342 235.195997 
L 307.493948 231.404471 
L 307.867553 230.009783 
L 308.988369 238.946658 
L 309.361974 230.568408 
L 309.735579 225.938194 
L 310.109184 228.851292 
L 310.856395 246.007453 
L 311.23 251.275024 
L 311.603605 253.708229 
L 311.97721 263.204854 
L 312.350816 267.433908 
L 312.724421 268.153747 
L 313.098026 261.528979 
L 313.471631 258.615881 
L 314.218842 254.469309 
L 314.592447 251.353756 
L 314.966052 253.869443 
L 315.339658 254.585533 
L 315.713263 246.127426 
L 316.086868 243.296809 
L 316.460473 241.939613 
L 316.834079 245.291363 
L 317.207684 251.556211 
L 317.581289 241.860881 
L 317.954894 229.012506 
L 318.328499 223.025096 
L 318.702105 222.350247 
L 319.07571 229.728596 
L 319.449315 231.805631 
L 319.82292 230.767114 
L 320.570131 241.021444 
L 320.943736 238.148649 
L 321.317341 238.228431 
L 321.690947 236.712158 
L 322.064552 238.148649 
L 322.438157 242.696944 
L 322.811762 245.568801 
L 323.185368 247.40589 
L 323.558973 243.176836 
L 323.932578 233.721452 
L 324.306183 228.892533 
L 324.679789 230.725873 
L 325.053394 237.111444 
L 325.426999 233.560238 
L 325.800604 225.900703 
L 326.547815 217.240141 
L 327.295025 209.303167 
L 327.66863 211.856346 
L 329.536657 242.816917 
L 329.910262 247.885782 
L 330.657472 251.316265 
L 331.031078 261.409006 
L 331.404683 259.935586 
L 332.525499 235.076399 
L 332.899104 235.236113 
L 333.272709 234.836828 
L 333.646314 232.761667 
L 334.01992 233.320292 
L 334.393525 237.35064 
L 335.140735 248.961792 
L 335.51434 249.917828 
L 335.887946 252.793434 
L 336.261551 251.994863 
L 336.635156 240.70239 
L 337.008761 235.994194 
L 337.382367 244.132872 
L 337.755972 246.768533 
L 338.129577 246.768533 
L 338.503182 248.643113 
L 339.250393 262.447524 
L 339.623998 254.626774 
L 339.997603 249.677881 
L 340.744814 250.438961 
L 341.118419 252.710953 
L 341.492024 251.51497 
L 341.86563 246.967238 
L 342.239235 237.789554 
L 342.61284 222.466471 
L 342.986445 225.462051 
L 343.36005 232.802908 
L 343.733656 228.573854 
L 344.107261 221.829114 
L 344.480866 218.357391 
L 344.854471 221.949087 
L 345.228077 232.12431 
L 345.601682 233.24156 
L 345.975287 233.758944 
L 346.348892 242.059586 
L 346.722498 247.765809 
L 347.096103 246.127426 
L 348.216919 226.976712 
L 348.590524 221.270489 
L 348.964129 218.957257 
L 349.337734 229.091239 
L 349.71134 229.931051 
L 350.084945 222.867631 
L 351.20576 212.452462 
L 351.579366 210.019257 
L 351.952971 211.653891 
L 352.700181 224.224828 
L 353.447392 250.39772 
L 353.820997 252.392274 
L 354.194602 252.590979 
L 354.568208 256.103943 
L 354.941813 263.725987 
L 355.315418 266.515363 
L 355.689023 259.414452 
L 356.062629 257.419899 
L 356.436234 252.872167 
L 357.183444 231.925604 
L 357.55705 230.369703 
L 357.930655 234.996542 
L 358.30426 244.534033 
L 358.677865 261.2103 
L 359.05147 267.955041 
L 359.798681 244.174113 
L 360.172286 250.75764 
L 360.545891 266.635336 
L 360.919497 260.171783 
L 361.666707 242.419506 
L 362.040312 247.087211 
L 362.413918 260.812889 
L 362.787523 268.592398 
L 363.161128 258.735854 
L 363.908339 214.368284 
L 364.281944 218.278658 
L 365.029154 282.333073 
L 365.40276 285.557352 
L 365.776365 258.615881 
L 366.14997 240.063908 
L 366.523575 246.607319 
L 367.270786 298.604432 
L 367.644391 298.042058 
L 368.391601 245.448828 
L 368.765207 239.305828 
L 369.512417 265.161916 
L 369.886022 257.498631 
L 370.259628 237.111444 
L 370.633233 228.135203 
L 371.006838 229.88981 
L 371.380443 235.11614 
L 371.754049 236.113792 
L 372.874864 191.303445 
L 373.24847 190.516122 
L 373.622075 196.364813 
L 373.99568 198.764276 
L 374.369285 195.352539 
L 375.116496 181.818068 
L 375.490101 183.467699 
L 376.984522 228.292667 
L 377.731732 248.883059 
L 378.478943 274.058675 
L 378.852548 278.846354 
L 379.226153 280.121068 
L 379.599759 282.108124 
L 379.973364 285.594843 
L 380.346969 285.29491 
L 380.720574 277.496656 
L 381.09418 262.008872 
L 382.214995 232.562962 
L 382.588601 226.579301 
L 382.962206 228.333908 
L 383.335811 234.557515 
L 383.709416 237.151185 
L 384.456627 228.093962 
L 384.830232 226.736766 
L 385.203837 228.532614 
L 385.577442 230.928327 
L 386.324653 230.6059 
L 386.698258 231.925604 
L 387.071863 231.606926 
L 387.445469 228.77256 
L 387.819074 224.66348 
L 388.192679 222.466471 
L 388.566284 221.232997 
L 388.93989 221.113024 
L 389.6871 221.671649 
L 390.434311 218.638578 
L 390.807916 219.755828 
L 391.555126 224.543506 
L 392.302337 226.976712 
L 392.675942 227.854016 
L 393.049547 227.216658 
L 393.423152 225.938194 
L 393.796758 225.180864 
L 394.170363 225.582024 
L 395.664784 230.808354 
L 397.53281 239.545024 
L 397.906415 240.582417 
L 398.280021 241.181158 
L 398.653626 241.340497 
L 399.027231 241.300756 
L 399.400836 240.901845 
L 399.774442 240.263363 
L 400.521652 238.348142 
L 400.895257 237.949156 
L 401.268862 238.547747 
L 402.763283 244.972684 
L 403.510494 248.444407 
L 404.257704 251.556211 
L 405.004915 264.243372 
L 405.37852 265.956738 
L 406.125731 256.261408 
L 406.499336 248.16322 
L 407.246546 226.298114 
L 407.620152 224.104855 
L 407.993757 226.778006 
L 409.114572 242.696944 
L 409.488178 244.534033 
L 409.861783 244.331578 
L 410.235388 242.179559 
L 410.608993 238.587488 
L 410.982599 236.153533 
L 411.356204 234.797087 
L 411.729809 234.836828 
L 412.103414 235.874221 
L 412.47702 237.669694 
L 413.22423 239.345569 
L 413.597835 239.146113 
L 414.718651 237.35064 
L 415.092256 237.35064 
L 415.465862 237.949156 
L 416.213072 238.547747 
L 416.586677 238.507631 
L 417.707493 237.989047 
L 418.828309 237.789554 
L 419.201914 237.909265 
L 419.575519 237.909265 
L 420.696335 238.308251 
L 422.564361 237.989047 
L 423.311572 237.989047 
L 423.685177 237.869337 
L 424.432387 238.02895 
L 424.805992 238.228431 
L 424.805992 238.228431 
" clip-path="url(#pdc1b3d72df)" style="fill: none; stroke: #ff7f0e; stroke-width: 1.5; stroke-linecap: square"/>
   </g>
   <g id="patch_9">
    <path d="M 50.565625 304.44375 
L 50.565625 175.97875 
" style="fill: none; stroke: #000000; stroke-width: 0.8; stroke-linejoin: miter; stroke-linecap: square"/>
   </g>
   <g id="patch_10">
    <path d="M 442.626962 304.44375 
L 442.626962 175.97875 
" style="fill: none; stroke: #000000; stroke-width: 0.8; stroke-linejoin: miter; stroke-linecap: square"/>
   </g>
   <g id="patch_11">
    <path d="M 50.565625 304.44375 
L 442.626962 304.44375 
" style="fill: none; stroke: #000000; stroke-width: 0.8; stroke-linejoin: miter; stroke-linecap: square"/>
   </g>
   <g id="patch_12">
    <path d="M 50.565625 175.97875 
L 442.626962 175.97875 
" style="fill: none; stroke: #000000; stroke-width: 0.8; stroke-linejoin: miter; stroke-linecap: square"/>
   </g>
   <g id="legend_2">
    <g id="patch_13">
     <path d="M 57.565625 299.44375 
L 140.082813 299.44375 
Q 142.082813 299.44375 142.082813 297.44375 
L 142.082813 269.0875 
Q 142.082813 267.0875 140.082813 267.0875 
L 57.565625 267.0875 
Q 55.565625 267.0875 55.565625 269.0875 
L 55.565625 297.44375 
Q 55.565625 299.44375 57.565625 299.44375 
z
" style="fill: #ffffff; opacity: 0.8; stroke: #cccccc; stroke-linejoin: miter"/>
    </g>
    <g id="line2d_45">
     <path d="M 59.565625 275.185937 
L 69.565625 275.185937 
L 79.565625 275.185937 
" style="fill: none; stroke: #1f77b4; stroke-width: 1.5; stroke-linecap: square"/>
    </g>
    <g id="text_19">
     <!-- Reference -->
     <g transform="translate(87.565625 278.685937)scale(0.1 -0.1)">
      <use xlink:href="#DejaVuSans-52"/>
      <use xlink:href="#DejaVuSans-65" x="64.982422"/>
      <use xlink:href="#DejaVuSans-66" x="126.505859"/>
      <use xlink:href="#DejaVuSans-65" x="161.710938"/>
      <use xlink:href="#DejaVuSans-72" x="223.234375"/>
      <use xlink:href="#DejaVuSans-65" x="262.097656"/>
      <use xlink:href="#DejaVuSans-6e" x="323.621094"/>
      <use xlink:href="#DejaVuSans-63" x="387"/>
      <use xlink:href="#DejaVuSans-65" x="441.980469"/>
     </g>
    </g>
    <g id="line2d_46">
     <path d="M 59.565625 289.864062 
L 69.565625 289.864062 
L 79.565625 289.864062 
" style="fill: none; stroke: #ff7f0e; stroke-width: 1.5; stroke-linecap: square"/>
    </g>
    <g id="text_20">
     <!-- Estimated -->
     <g transform="translate(87.565625 293.364062)scale(0.1 -0.1)">
      <use xlink:href="#DejaVuSans-45"/>
      <use xlink:href="#DejaVuSans-73" x="63.183594"/>
      <use xlink:href="#DejaVuSans-74" x="115.283203"/>
      <use xlink:href="#DejaVuSans-69" x="154.492188"/>
      <use xlink:href="#DejaVuSans-6d" x="182.275391"/>
      <use xlink:href="#DejaVuSans-61" x="279.6875"/>
      <use xlink:href="#DejaVuSans-74" x="340.966797"/>
      <use xlink:href="#DejaVuSans-65" x="380.175781"/>
      <use xlink:href="#DejaVuSans-64" x="441.699219"/>
     </g>
    </g>
   </g>
  </g>
  <g id="text_21">
   <!-- Translational and Rotational Velocity -->
   <g transform="translate(121.384688 16.030125)scale(0.12 -0.12)">
    <defs>
     <path id="DejaVuSans-56" d="M 1831 0 
L 50 4666 
L 709 4666 
L 2188 738 
L 3669 4666 
L 4325 4666 
L 2547 0 
L 1831 0 
z
" transform="scale(0.015625)"/>
     <path id="DejaVuSans-79" d="M 2059 -325 
Q 1816 -950 1584 -1140 
Q 1353 -1331 966 -1331 
L 506 -1331 
L 506 -850 
L 844 -850 
Q 1081 -850 1212 -737 
Q 1344 -625 1503 -206 
L 1606 56 
L 191 3500 
L 800 3500 
L 1894 763 
L 2988 3500 
L 3597 3500 
L 2059 -325 
z
" transform="scale(0.015625)"/>
    </defs>
    <use xlink:href="#DejaVuSans-54"/>
    <use xlink:href="#DejaVuSans-72" x="46.333984"/>
    <use xlink:href="#DejaVuSans-61" x="87.447266"/>
    <use xlink:href="#DejaVuSans-6e" x="148.726562"/>
    <use xlink:href="#DejaVuSans-73" x="212.105469"/>
    <use xlink:href="#DejaVuSans-6c" x="264.205078"/>
    <use xlink:href="#DejaVuSans-61" x="291.988281"/>
    <use xlink:href="#DejaVuSans-74" x="353.267578"/>
    <use xlink:href="#DejaVuSans-69" x="392.476562"/>
    <use xlink:href="#DejaVuSans-6f" x="420.259766"/>
    <use xlink:href="#DejaVuSans-6e" x="481.441406"/>
    <use xlink:href="#DejaVuSans-61" x="544.820312"/>
    <use xlink:href="#DejaVuSans-6c" x="606.099609"/>
    <use xlink:href="#DejaVuSans-20" x="633.882812"/>
    <use xlink:href="#DejaVuSans-61" x="665.669922"/>
    <use xlink:href="#DejaVuSans-6e" x="726.949219"/>
    <use xlink:href="#DejaVuSans-64" x="790.328125"/>
    <use xlink:href="#DejaVuSans-20" x="853.804688"/>
    <use xlink:href="#DejaVuSans-52" x="885.591797"/>
    <use xlink:href="#DejaVuSans-6f" x="950.574219"/>
    <use xlink:href="#DejaVuSans-74" x="1011.755859"/>
    <use xlink:href="#DejaVuSans-61" x="1050.964844"/>
    <use xlink:href="#DejaVuSans-74" x="1112.244141"/>
    <use xlink:href="#DejaVuSans-69" x="1151.453125"/>
    <use xlink:href="#DejaVuSans-6f" x="1179.236328"/>
    <use xlink:href="#DejaVuSans-6e" x="1240.417969"/>
    <use xlink:href="#DejaVuSans-61" x="1303.796875"/>
    <use xlink:href="#DejaVuSans-6c" x="1365.076172"/>
    <use xlink:href="#DejaVuSans-20" x="1392.859375"/>
    <use xlink:href="#DejaVuSans-56" x="1424.646484"/>
    <use xlink:href="#DejaVuSans-65" x="1485.304688"/>
    <use xlink:href="#DejaVuSans-6c" x="1546.828125"/>
    <use xlink:href="#DejaVuSans-6f" x="1574.611328"/>
    <use xlink:href="#DejaVuSans-63" x="1635.792969"/>
    <use xlink:href="#DejaVuSans-69" x="1690.773438"/>
    <use xlink:href="#DejaVuSans-74" x="1718.556641"/>
    <use xlink:href="#DejaVuSans-79" x="1757.765625"/>
   </g>
  </g>
 </g>
 <defs>
  <clipPath id="p0c3ebd3027">
   <rect x="50.565625" y="33.21375" width="392.061337" height="128.465"/>
  </clipPath>
  <clipPath id="pdc1b3d72df">
   <rect x="50.565625" y="175.97875" width="392.061337" height="128.465"/>
  </clipPath>
 </defs>
</svg>
