<?xml version="1.0" encoding="utf-8" standalone="no"?>
<!DOCTYPE svg PUBLIC "-//W3C//DTD SVG 1.1//EN"
  "http://www.w3.org/Graphics/SVG/1.1/DTD/svg11.dtd">
<svg xmlns:xlink="http://www.w3.org/1999/xlink" width="460.8pt" height="345.6pt" viewBox="0 0 460.8 345.6" xmlns="http://www.w3.org/2000/svg" version="1.1">
 <metadata>
  <rdf:RDF xmlns:dc="http://purl.org/dc/elements/1.1/" xmlns:cc="http://creativecommons.org/ns#" xmlns:rdf="http://www.w3.org/1999/02/22-rdf-syntax-ns#">
   <cc:Work>
    <dc:type rdf:resource="http://purl.org/dc/dcmitype/StillImage"/>
    <dc:date>2022-01-15T16:13:31.751806</dc:date>
    <dc:format>image/svg+xml</dc:format>
    <dc:creator>
     <cc:Agent>
      <dc:title>Matplotlib v3.5.1, https://matplotlib.org/</dc:title>
     </cc:Agent>
    </dc:creator>
   </cc:Work>
  </rdf:RDF>
 </metadata>
 <defs>
  <style type="text/css">*{stroke-linejoin: round; stroke-linecap: butt}</style>
 </defs>
 <g id="figure_1">
  <g id="patch_1">
   <path d="M 0 345.6 
L 460.8 345.6 
L 460.8 0 
L 0 0 
z
" style="fill: #ffffff"/>
  </g>
  <g id="axes_1">
   <g id="patch_2">
    <path d="M 50.565625 161.67875 
L 450 161.67875 
L 450 33.21375 
L 50.565625 33.21375 
z
" style="fill: #ffffff"/>
   </g>
   <g id="matplotlib.axis_1">
    <g id="xtick_1">
     <g id="line2d_1">
      <path d="M 68.721733 161.67875 
L 68.721733 33.21375 
" clip-path="url(#p7e1361c183)" style="fill: none; stroke: #b0b0b0; stroke-width: 0.8; stroke-linecap: square"/>
     </g>
     <g id="line2d_2">
      <defs>
       <path id="mea21c78e22" d="M 0 0 
L 0 3.5 
" style="stroke: #000000; stroke-width: 0.8"/>
      </defs>
      <g>
       <use xlink:href="#mea21c78e22" x="68.721733" y="161.67875" style="stroke: #000000; stroke-width: 0.8"/>
      </g>
     </g>
    </g>
    <g id="xtick_2">
     <g id="line2d_3">
      <path d="M 129.041028 161.67875 
L 129.041028 33.21375 
" clip-path="url(#p7e1361c183)" style="fill: none; stroke: #b0b0b0; stroke-width: 0.8; stroke-linecap: square"/>
     </g>
     <g id="line2d_4">
      <g>
       <use xlink:href="#mea21c78e22" x="129.041028" y="161.67875" style="stroke: #000000; stroke-width: 0.8"/>
      </g>
     </g>
    </g>
    <g id="xtick_3">
     <g id="line2d_5">
      <path d="M 189.360324 161.67875 
L 189.360324 33.21375 
" clip-path="url(#p7e1361c183)" style="fill: none; stroke: #b0b0b0; stroke-width: 0.8; stroke-linecap: square"/>
     </g>
     <g id="line2d_6">
      <g>
       <use xlink:href="#mea21c78e22" x="189.360324" y="161.67875" style="stroke: #000000; stroke-width: 0.8"/>
      </g>
     </g>
    </g>
    <g id="xtick_4">
     <g id="line2d_7">
      <path d="M 249.67962 161.67875 
L 249.67962 33.21375 
" clip-path="url(#p7e1361c183)" style="fill: none; stroke: #b0b0b0; stroke-width: 0.8; stroke-linecap: square"/>
     </g>
     <g id="line2d_8">
      <g>
       <use xlink:href="#mea21c78e22" x="249.67962" y="161.67875" style="stroke: #000000; stroke-width: 0.8"/>
      </g>
     </g>
    </g>
    <g id="xtick_5">
     <g id="line2d_9">
      <path d="M 309.998915 161.67875 
L 309.998915 33.21375 
" clip-path="url(#p7e1361c183)" style="fill: none; stroke: #b0b0b0; stroke-width: 0.8; stroke-linecap: square"/>
     </g>
     <g id="line2d_10">
      <g>
       <use xlink:href="#mea21c78e22" x="309.998915" y="161.67875" style="stroke: #000000; stroke-width: 0.8"/>
      </g>
     </g>
    </g>
    <g id="xtick_6">
     <g id="line2d_11">
      <path d="M 370.318211 161.67875 
L 370.318211 33.21375 
" clip-path="url(#p7e1361c183)" style="fill: none; stroke: #b0b0b0; stroke-width: 0.8; stroke-linecap: square"/>
     </g>
     <g id="line2d_12">
      <g>
       <use xlink:href="#mea21c78e22" x="370.318211" y="161.67875" style="stroke: #000000; stroke-width: 0.8"/>
      </g>
     </g>
    </g>
    <g id="xtick_7">
     <g id="line2d_13">
      <path d="M 430.637506 161.67875 
L 430.637506 33.21375 
" clip-path="url(#p7e1361c183)" style="fill: none; stroke: #b0b0b0; stroke-width: 0.8; stroke-linecap: square"/>
     </g>
     <g id="line2d_14">
      <g>
       <use xlink:href="#mea21c78e22" x="430.637506" y="161.67875" style="stroke: #000000; stroke-width: 0.8"/>
      </g>
     </g>
    </g>
   </g>
   <g id="matplotlib.axis_2">
    <g id="ytick_1">
     <g id="line2d_15">
      <path d="M 50.565625 155.78954 
L 450 155.78954 
" clip-path="url(#p7e1361c183)" style="fill: none; stroke: #b0b0b0; stroke-width: 0.8; stroke-linecap: square"/>
     </g>
     <g id="line2d_16">
      <defs>
       <path id="m970d9c8c87" d="M 0 0 
L -3.5 0 
" style="stroke: #000000; stroke-width: 0.8"/>
      </defs>
      <g>
       <use xlink:href="#m970d9c8c87" x="50.565625" y="155.78954" style="stroke: #000000; stroke-width: 0.8"/>
      </g>
     </g>
     <g id="text_1">
      <!-- 0 -->
      <g transform="translate(37.203125 159.588758)scale(0.1 -0.1)">
       <defs>
        <path id="DejaVuSans-30" d="M 2034 4250 
Q 1547 4250 1301 3770 
Q 1056 3291 1056 2328 
Q 1056 1369 1301 889 
Q 1547 409 2034 409 
Q 2525 409 2770 889 
Q 3016 1369 3016 2328 
Q 3016 3291 2770 3770 
Q 2525 4250 2034 4250 
z
M 2034 4750 
Q 2819 4750 3233 4129 
Q 3647 3509 3647 2328 
Q 3647 1150 3233 529 
Q 2819 -91 2034 -91 
Q 1250 -91 836 529 
Q 422 1150 422 2328 
Q 422 3509 836 4129 
Q 1250 4750 2034 4750 
z
" transform="scale(0.015625)"/>
       </defs>
       <use xlink:href="#DejaVuSans-30"/>
      </g>
     </g>
    </g>
    <g id="ytick_2">
     <g id="line2d_17">
      <path d="M 50.565625 123.126845 
L 450 123.126845 
" clip-path="url(#p7e1361c183)" style="fill: none; stroke: #b0b0b0; stroke-width: 0.8; stroke-linecap: square"/>
     </g>
     <g id="line2d_18">
      <g>
       <use xlink:href="#m970d9c8c87" x="50.565625" y="123.126845" style="stroke: #000000; stroke-width: 0.8"/>
      </g>
     </g>
     <g id="text_2">
      <!-- 200 -->
      <g transform="translate(24.478125 126.926063)scale(0.1 -0.1)">
       <defs>
        <path id="DejaVuSans-32" d="M 1228 531 
L 3431 531 
L 3431 0 
L 469 0 
L 469 531 
Q 828 903 1448 1529 
Q 2069 2156 2228 2338 
Q 2531 2678 2651 2914 
Q 2772 3150 2772 3378 
Q 2772 3750 2511 3984 
Q 2250 4219 1831 4219 
Q 1534 4219 1204 4116 
Q 875 4013 500 3803 
L 500 4441 
Q 881 4594 1212 4672 
Q 1544 4750 1819 4750 
Q 2544 4750 2975 4387 
Q 3406 4025 3406 3419 
Q 3406 3131 3298 2873 
Q 3191 2616 2906 2266 
Q 2828 2175 2409 1742 
Q 1991 1309 1228 531 
z
" transform="scale(0.015625)"/>
       </defs>
       <use xlink:href="#DejaVuSans-32"/>
       <use xlink:href="#DejaVuSans-30" x="63.623047"/>
       <use xlink:href="#DejaVuSans-30" x="127.246094"/>
      </g>
     </g>
    </g>
    <g id="ytick_3">
     <g id="line2d_19">
      <path d="M 50.565625 90.46415 
L 450 90.46415 
" clip-path="url(#p7e1361c183)" style="fill: none; stroke: #b0b0b0; stroke-width: 0.8; stroke-linecap: square"/>
     </g>
     <g id="line2d_20">
      <g>
       <use xlink:href="#m970d9c8c87" x="50.565625" y="90.46415" style="stroke: #000000; stroke-width: 0.8"/>
      </g>
     </g>
     <g id="text_3">
      <!-- 400 -->
      <g transform="translate(24.478125 94.263369)scale(0.1 -0.1)">
       <defs>
        <path id="DejaVuSans-34" d="M 2419 4116 
L 825 1625 
L 2419 1625 
L 2419 4116 
z
M 2253 4666 
L 3047 4666 
L 3047 1625 
L 3713 1625 
L 3713 1100 
L 3047 1100 
L 3047 0 
L 2419 0 
L 2419 1100 
L 313 1100 
L 313 1709 
L 2253 4666 
z
" transform="scale(0.015625)"/>
       </defs>
       <use xlink:href="#DejaVuSans-34"/>
       <use xlink:href="#DejaVuSans-30" x="63.623047"/>
       <use xlink:href="#DejaVuSans-30" x="127.246094"/>
      </g>
     </g>
    </g>
    <g id="ytick_4">
     <g id="line2d_21">
      <path d="M 50.565625 57.801455 
L 450 57.801455 
" clip-path="url(#p7e1361c183)" style="fill: none; stroke: #b0b0b0; stroke-width: 0.8; stroke-linecap: square"/>
     </g>
     <g id="line2d_22">
      <g>
       <use xlink:href="#m970d9c8c87" x="50.565625" y="57.801455" style="stroke: #000000; stroke-width: 0.8"/>
      </g>
     </g>
     <g id="text_4">
      <!-- 600 -->
      <g transform="translate(24.478125 61.600674)scale(0.1 -0.1)">
       <defs>
        <path id="DejaVuSans-36" d="M 2113 2584 
Q 1688 2584 1439 2293 
Q 1191 2003 1191 1497 
Q 1191 994 1439 701 
Q 1688 409 2113 409 
Q 2538 409 2786 701 
Q 3034 994 3034 1497 
Q 3034 2003 2786 2293 
Q 2538 2584 2113 2584 
z
M 3366 4563 
L 3366 3988 
Q 3128 4100 2886 4159 
Q 2644 4219 2406 4219 
Q 1781 4219 1451 3797 
Q 1122 3375 1075 2522 
Q 1259 2794 1537 2939 
Q 1816 3084 2150 3084 
Q 2853 3084 3261 2657 
Q 3669 2231 3669 1497 
Q 3669 778 3244 343 
Q 2819 -91 2113 -91 
Q 1303 -91 875 529 
Q 447 1150 447 2328 
Q 447 3434 972 4092 
Q 1497 4750 2381 4750 
Q 2619 4750 2861 4703 
Q 3103 4656 3366 4563 
z
" transform="scale(0.015625)"/>
       </defs>
       <use xlink:href="#DejaVuSans-36"/>
       <use xlink:href="#DejaVuSans-30" x="63.623047"/>
       <use xlink:href="#DejaVuSans-30" x="127.246094"/>
      </g>
     </g>
    </g>
    <g id="text_5">
     <!-- trans. vel. [mm/s] -->
     <g transform="translate(18.398438 142.011875)rotate(-90)scale(0.1 -0.1)">
      <defs>
       <path id="DejaVuSans-74" d="M 1172 4494 
L 1172 3500 
L 2356 3500 
L 2356 3053 
L 1172 3053 
L 1172 1153 
Q 1172 725 1289 603 
Q 1406 481 1766 481 
L 2356 481 
L 2356 0 
L 1766 0 
Q 1100 0 847 248 
Q 594 497 594 1153 
L 594 3053 
L 172 3053 
L 172 3500 
L 594 3500 
L 594 4494 
L 1172 4494 
z
" transform="scale(0.015625)"/>
       <path id="DejaVuSans-72" d="M 2631 2963 
Q 2534 3019 2420 3045 
Q 2306 3072 2169 3072 
Q 1681 3072 1420 2755 
Q 1159 2438 1159 1844 
L 1159 0 
L 581 0 
L 581 3500 
L 1159 3500 
L 1159 2956 
Q 1341 3275 1631 3429 
Q 1922 3584 2338 3584 
Q 2397 3584 2469 3576 
Q 2541 3569 2628 3553 
L 2631 2963 
z
" transform="scale(0.015625)"/>
       <path id="DejaVuSans-61" d="M 2194 1759 
Q 1497 1759 1228 1600 
Q 959 1441 959 1056 
Q 959 750 1161 570 
Q 1363 391 1709 391 
Q 2188 391 2477 730 
Q 2766 1069 2766 1631 
L 2766 1759 
L 2194 1759 
z
M 3341 1997 
L 3341 0 
L 2766 0 
L 2766 531 
Q 2569 213 2275 61 
Q 1981 -91 1556 -91 
Q 1019 -91 701 211 
Q 384 513 384 1019 
Q 384 1609 779 1909 
Q 1175 2209 1959 2209 
L 2766 2209 
L 2766 2266 
Q 2766 2663 2505 2880 
Q 2244 3097 1772 3097 
Q 1472 3097 1187 3025 
Q 903 2953 641 2809 
L 641 3341 
Q 956 3463 1253 3523 
Q 1550 3584 1831 3584 
Q 2591 3584 2966 3190 
Q 3341 2797 3341 1997 
z
" transform="scale(0.015625)"/>
       <path id="DejaVuSans-6e" d="M 3513 2113 
L 3513 0 
L 2938 0 
L 2938 2094 
Q 2938 2591 2744 2837 
Q 2550 3084 2163 3084 
Q 1697 3084 1428 2787 
Q 1159 2491 1159 1978 
L 1159 0 
L 581 0 
L 581 3500 
L 1159 3500 
L 1159 2956 
Q 1366 3272 1645 3428 
Q 1925 3584 2291 3584 
Q 2894 3584 3203 3211 
Q 3513 2838 3513 2113 
z
" transform="scale(0.015625)"/>
       <path id="DejaVuSans-73" d="M 2834 3397 
L 2834 2853 
Q 2591 2978 2328 3040 
Q 2066 3103 1784 3103 
Q 1356 3103 1142 2972 
Q 928 2841 928 2578 
Q 928 2378 1081 2264 
Q 1234 2150 1697 2047 
L 1894 2003 
Q 2506 1872 2764 1633 
Q 3022 1394 3022 966 
Q 3022 478 2636 193 
Q 2250 -91 1575 -91 
Q 1294 -91 989 -36 
Q 684 19 347 128 
L 347 722 
Q 666 556 975 473 
Q 1284 391 1588 391 
Q 1994 391 2212 530 
Q 2431 669 2431 922 
Q 2431 1156 2273 1281 
Q 2116 1406 1581 1522 
L 1381 1569 
Q 847 1681 609 1914 
Q 372 2147 372 2553 
Q 372 3047 722 3315 
Q 1072 3584 1716 3584 
Q 2034 3584 2315 3537 
Q 2597 3491 2834 3397 
z
" transform="scale(0.015625)"/>
       <path id="DejaVuSans-2e" d="M 684 794 
L 1344 794 
L 1344 0 
L 684 0 
L 684 794 
z
" transform="scale(0.015625)"/>
       <path id="DejaVuSans-20" transform="scale(0.015625)"/>
       <path id="DejaVuSans-76" d="M 191 3500 
L 800 3500 
L 1894 563 
L 2988 3500 
L 3597 3500 
L 2284 0 
L 1503 0 
L 191 3500 
z
" transform="scale(0.015625)"/>
       <path id="DejaVuSans-65" d="M 3597 1894 
L 3597 1613 
L 953 1613 
Q 991 1019 1311 708 
Q 1631 397 2203 397 
Q 2534 397 2845 478 
Q 3156 559 3463 722 
L 3463 178 
Q 3153 47 2828 -22 
Q 2503 -91 2169 -91 
Q 1331 -91 842 396 
Q 353 884 353 1716 
Q 353 2575 817 3079 
Q 1281 3584 2069 3584 
Q 2775 3584 3186 3129 
Q 3597 2675 3597 1894 
z
M 3022 2063 
Q 3016 2534 2758 2815 
Q 2500 3097 2075 3097 
Q 1594 3097 1305 2825 
Q 1016 2553 972 2059 
L 3022 2063 
z
" transform="scale(0.015625)"/>
       <path id="DejaVuSans-6c" d="M 603 4863 
L 1178 4863 
L 1178 0 
L 603 0 
L 603 4863 
z
" transform="scale(0.015625)"/>
       <path id="DejaVuSans-5b" d="M 550 4863 
L 1875 4863 
L 1875 4416 
L 1125 4416 
L 1125 -397 
L 1875 -397 
L 1875 -844 
L 550 -844 
L 550 4863 
z
" transform="scale(0.015625)"/>
       <path id="DejaVuSans-6d" d="M 3328 2828 
Q 3544 3216 3844 3400 
Q 4144 3584 4550 3584 
Q 5097 3584 5394 3201 
Q 5691 2819 5691 2113 
L 5691 0 
L 5113 0 
L 5113 2094 
Q 5113 2597 4934 2840 
Q 4756 3084 4391 3084 
Q 3944 3084 3684 2787 
Q 3425 2491 3425 1978 
L 3425 0 
L 2847 0 
L 2847 2094 
Q 2847 2600 2669 2842 
Q 2491 3084 2119 3084 
Q 1678 3084 1418 2786 
Q 1159 2488 1159 1978 
L 1159 0 
L 581 0 
L 581 3500 
L 1159 3500 
L 1159 2956 
Q 1356 3278 1631 3431 
Q 1906 3584 2284 3584 
Q 2666 3584 2933 3390 
Q 3200 3197 3328 2828 
z
" transform="scale(0.015625)"/>
       <path id="DejaVuSans-2f" d="M 1625 4666 
L 2156 4666 
L 531 -594 
L 0 -594 
L 1625 4666 
z
" transform="scale(0.015625)"/>
       <path id="DejaVuSans-5d" d="M 1947 4863 
L 1947 -844 
L 622 -844 
L 622 -397 
L 1369 -397 
L 1369 4416 
L 622 4416 
L 622 4863 
L 1947 4863 
z
" transform="scale(0.015625)"/>
      </defs>
      <use xlink:href="#DejaVuSans-74"/>
      <use xlink:href="#DejaVuSans-72" x="39.208984"/>
      <use xlink:href="#DejaVuSans-61" x="80.322266"/>
      <use xlink:href="#DejaVuSans-6e" x="141.601562"/>
      <use xlink:href="#DejaVuSans-73" x="204.980469"/>
      <use xlink:href="#DejaVuSans-2e" x="257.080078"/>
      <use xlink:href="#DejaVuSans-20" x="288.867188"/>
      <use xlink:href="#DejaVuSans-76" x="320.654297"/>
      <use xlink:href="#DejaVuSans-65" x="379.833984"/>
      <use xlink:href="#DejaVuSans-6c" x="441.357422"/>
      <use xlink:href="#DejaVuSans-2e" x="469.140625"/>
      <use xlink:href="#DejaVuSans-20" x="500.927734"/>
      <use xlink:href="#DejaVuSans-5b" x="532.714844"/>
      <use xlink:href="#DejaVuSans-6d" x="571.728516"/>
      <use xlink:href="#DejaVuSans-6d" x="669.140625"/>
      <use xlink:href="#DejaVuSans-2f" x="766.552734"/>
      <use xlink:href="#DejaVuSans-73" x="800.244141"/>
      <use xlink:href="#DejaVuSans-5d" x="852.34375"/>
     </g>
    </g>
   </g>
   <g id="line2d_23">
    <path d="M 68.721733 155.78954 
L 71.134505 155.711149 
L 73.547277 155.475978 
L 75.960048 155.084025 
L 78.37282 154.535292 
L 80.785592 153.829778 
L 83.198364 152.967483 
L 86.817522 151.380076 
L 90.436679 149.439912 
L 94.055837 147.14699 
L 97.674995 144.501312 
L 101.294153 141.502877 
L 104.91331 138.151684 
L 108.532468 134.444468 
L 112.151626 130.394294 
L 119.389941 121.624361 
L 151.962361 82.037175 
L 155.581519 78.084989 
L 159.200676 74.475761 
L 162.819834 71.225823 
L 166.438992 68.318843 
L 170.058149 65.771153 
L 173.677307 63.582752 
L 177.296465 61.73731 
L 179.709237 60.708435 
L 183.328394 59.450921 
L 185.741166 58.813999 
L 188.153938 58.324058 
L 190.56671 57.997431 
L 194.185868 57.801455 
L 431.843892 57.801455 
L 431.843892 57.801455 
" clip-path="url(#p7e1361c183)" style="fill: none; stroke: #1f77b4; stroke-width: 2; stroke-linecap: square"/>
   </g>
   <g id="line2d_24">
    <path d="M 68.721733 155.78954 
L 69.928119 155.723398 
L 71.134505 155.839432 
L 72.340891 155.725684 
L 73.547277 155.781896 
L 74.753663 155.71288 
L 75.960048 155.775932 
L 77.166434 155.683778 
L 78.37282 155.780427 
L 81.991978 155.750442 
L 83.198364 155.751781 
L 84.40475 155.575436 
L 86.817522 154.293751 
L 90.436679 152.828666 
L 91.643065 152.451412 
L 92.849451 151.804691 
L 94.055837 151.393141 
L 95.262223 150.442656 
L 96.468609 149.988645 
L 97.674995 148.904243 
L 98.881381 148.03215 
L 100.087767 146.047891 
L 101.294153 145.443631 
L 102.500538 143.514899 
L 103.706924 142.65587 
L 104.91331 140.281292 
L 106.119696 139.31121 
L 107.326082 136.845177 
L 108.532468 135.652988 
L 109.738854 131.896778 
L 110.94524 130.443288 
L 112.151626 126.066487 
L 113.358012 124.906962 
L 114.564398 120.546492 
L 115.770783 118.439748 
L 116.977169 117.802825 
L 118.183555 114.062947 
L 119.389941 113.670995 
L 120.596327 108.624608 
L 121.802713 107.171118 
L 123.009099 102.239051 
L 124.215485 102.533016 
L 125.421871 97.845919 
L 126.628257 98.907456 
L 127.834643 93.681425 
L 129.041028 93.877401 
L 130.247414 89.173973 
L 131.4538 91.06841 
L 132.660186 87.91646 
L 133.866572 90.088529 
L 135.072958 88.455394 
L 136.279344 90.82344 
L 137.48573 87.736815 
L 138.692116 90.676457 
L 139.898502 88.455394 
L 141.104888 90.431487 
L 142.311274 85.74439 
L 143.517659 88.04711 
L 144.724045 84.486877 
L 145.930431 85.581077 
L 147.136817 89.778233 
L 148.343203 89.124979 
L 149.549589 92.113616 
L 150.755975 88.373737 
L 151.962361 89.925215 
L 153.168747 86.887585 
L 154.375133 89.810896 
L 155.581519 88.275749 
L 156.787904 90.774445 
L 157.99429 87.867466 
L 159.200676 89.876221 
L 160.407062 86.299656 
L 161.613448 87.91646 
L 162.819834 82.363802 
L 164.02622 83.245694 
L 165.232606 78.068657 
L 166.438992 80.861318 
L 167.645378 77.562385 
L 168.851764 82.968061 
L 170.058149 80.942974 
L 171.264535 82.559778 
L 172.470921 80.371377 
L 173.677307 83.082381 
L 176.090079 76.076233 
L 177.296465 75.651618 
L 178.502851 71.617775 
L 179.709237 73.561205 
L 180.915623 69.070085 
L 182.122009 73.577537 
L 183.328394 73.528543 
L 184.53478 77.807356 
L 185.741166 75.324991 
L 186.947552 78.362621 
L 188.153938 70.507243 
L 189.360324 70.621563 
L 190.56671 62.913167 
L 191.773096 63.533758 
L 192.979482 56.919562 
L 194.185868 58.650685 
L 195.392254 54.322878 
L 196.598639 57.393171 
L 197.805025 55.613054 
L 199.011411 61.214707 
L 200.217797 59.450921 
L 201.424183 64.954585 
L 202.630569 62.308907 
L 203.836955 66.34275 
L 205.043341 62.129262 
L 206.249727 65.444526 
L 207.456113 61.802635 
L 208.662499 65.640502 
L 209.868884 59.842873 
L 211.07527 61.688316 
L 212.281656 57.246189 
L 213.488042 59.369264 
L 214.694428 55.662049 
L 215.900814 60.104175 
L 217.1072 55.841693 
L 218.313586 58.144413 
L 219.519972 53.179684 
L 220.726358 56.968556 
L 221.932744 52.330454 
L 223.13913 54.992463 
L 224.345515 49.570456 
L 225.551901 53.440985 
L 226.758287 48.345605 
L 227.964673 53.098027 
L 229.171059 48.574244 
L 230.377445 51.954833 
L 231.583831 49.178504 
L 232.790217 54.878144 
L 233.996603 54.404535 
L 235.202989 55.482404 
L 236.409375 50.027734 
L 237.61576 53.391991 
L 238.822146 48.590575 
L 240.028532 52.428442 
L 241.234918 46.140873 
L 242.441304 48.819214 
L 243.64769 42.95626 
L 244.854076 48.051641 
L 246.060462 44.148449 
L 247.266848 46.026554 
L 248.473234 39.053068 
L 249.67962 44.491407 
L 250.886005 43.331881 
L 252.092391 48.378268 
L 253.298777 45.667264 
L 254.505163 51.742525 
L 255.711549 46.761464 
L 256.917935 53.098027 
L 258.124321 50.289035 
L 259.330707 50.844301 
L 260.537093 49.815426 
L 261.743479 55.237433 
L 262.949865 52.444773 
L 264.15625 55.694711 
L 265.362636 50.909626 
L 266.569022 54.943469 
L 267.775408 51.301579 
L 268.981794 55.025126 
L 270.18818 51.693531 
L 271.394566 56.674592 
L 272.600952 50.795307 
L 273.807338 55.711043 
L 275.013724 53.685955 
L 276.22011 59.009975 
L 277.426495 53.832938 
L 278.632881 58.422046 
L 279.839267 56.086664 
L 281.045653 59.810211 
L 282.252039 57.050213 
L 283.458425 61.394351 
L 284.664811 56.592935 
L 285.871197 59.483584 
L 287.077583 56.739917 
L 288.283969 61.818966 
L 289.490355 58.079088 
L 290.696741 62.047605 
L 291.903126 58.765005 
L 293.109512 62.700859 
L 294.315898 58.699679 
L 295.522284 61.933286 
L 296.72867 59.042637 
L 297.935056 61.786304 
L 299.141442 56.494947 
L 300.347828 61.165713 
L 301.554214 59.581572 
L 302.7606 62.913167 
L 303.966986 60.610447 
L 305.173371 64.611627 
L 306.379757 61.688316 
L 307.586143 67.061329 
L 308.792529 64.954585 
L 309.998915 68.906771 
L 311.205301 65.395532 
L 312.411687 68.727126 
L 313.618073 64.905591 
L 314.824459 67.061329 
L 316.030845 62.47222 
L 317.237231 65.232218 
L 318.443616 61.280032 
L 319.650002 61.508671 
L 320.856388 58.650685 
L 322.062774 62.619203 
L 323.26916 57.066544 
L 324.475546 59.712223 
L 325.681932 55.531398 
L 326.888318 59.467252 
L 328.094704 55.760037 
L 329.30109 60.839086 
L 330.507476 58.422046 
L 331.713861 61.884292 
L 332.920247 59.352933 
L 334.126633 64.350325 
L 335.333019 62.161925 
L 336.539405 63.827722 
L 337.745791 59.499915 
L 338.952177 61.198375 
L 340.158563 55.858025 
L 341.364949 59.908199 
L 342.571335 56.315302 
L 343.777721 60.545121 
L 344.984106 53.653293 
L 346.190492 57.37684 
L 347.396878 53.522642 
L 348.603264 55.057789 
L 349.80965 53.636961 
L 351.016036 56.331634 
L 352.222422 51.366904 
L 353.428808 55.531398 
L 354.635194 52.52643 
L 355.84158 56.77258 
L 357.047966 51.579212 
L 358.254351 55.874356 
L 359.460737 53.37566 
L 360.667123 58.552697 
L 361.873509 53.342997 
L 363.079895 58.030094 
L 364.286281 52.820394 
L 365.492667 56.396959 
L 366.699053 54.159565 
L 367.905439 55.482404 
L 369.111825 55.858025 
L 370.318211 58.22607 
L 371.524597 54.46986 
L 372.730982 58.813999 
L 373.937368 53.816606 
L 375.143754 57.246189 
L 376.35014 50.027734 
L 377.556526 54.518854 
L 378.762912 51.154597 
L 379.969298 57.099207 
L 381.175684 54.453529 
L 382.38207 57.033882 
L 383.588456 55.025126 
L 384.794842 57.73613 
L 386.001227 63.746065 
L 387.207613 60.790092 
L 388.413999 59.957193 
L 389.620385 63.027486 
L 390.826771 58.013763 
L 392.033157 61.851629 
L 393.239543 58.683348 
L 394.445929 62.749853 
L 395.652315 57.997431 
L 396.858701 60.28382 
L 398.065087 55.776368 
L 399.271472 58.879324 
L 400.477858 54.273884 
L 401.684244 56.102995 
L 402.89063 50.060396 
L 404.097016 55.43341 
L 405.303402 53.114358 
L 406.509788 54.845481 
L 407.716174 58.160745 
L 408.92256 55.56406 
L 410.128946 61.231038 
L 411.335332 59.630566 
L 412.541717 63.942042 
L 413.748103 59.761217 
L 414.954489 62.390564 
L 416.160875 56.919562 
L 417.367261 61.100387 
L 418.573647 57.915774 
L 419.780033 61.002399 
L 420.986419 55.972344 
L 422.192805 59.0753 
L 423.399191 55.482404 
L 424.605577 58.193407 
L 425.811962 54.22489 
L 427.018348 57.523822 
L 428.224734 50.680988 
L 429.43112 55.221102 
L 430.637506 52.722406 
L 431.843892 57.638142 
L 431.843892 57.638142 
" clip-path="url(#p7e1361c183)" style="fill: none; stroke: #ff7f0e; stroke-width: 2; stroke-linecap: square"/>
   </g>
   <g id="patch_3">
    <path d="M 50.565625 161.67875 
L 50.565625 33.21375 
" style="fill: none; stroke: #000000; stroke-width: 0.8; stroke-linejoin: miter; stroke-linecap: square"/>
   </g>
   <g id="patch_4">
    <path d="M 450 161.67875 
L 450 33.21375 
" style="fill: none; stroke: #000000; stroke-width: 0.8; stroke-linejoin: miter; stroke-linecap: square"/>
   </g>
   <g id="patch_5">
    <path d="M 50.565625 161.67875 
L 450 161.67875 
" style="fill: none; stroke: #000000; stroke-width: 0.8; stroke-linejoin: miter; stroke-linecap: square"/>
   </g>
   <g id="patch_6">
    <path d="M 50.565625 33.21375 
L 450 33.21375 
" style="fill: none; stroke: #000000; stroke-width: 0.8; stroke-linejoin: miter; stroke-linecap: square"/>
   </g>
   <g id="legend_1">
    <g id="patch_7">
     <path d="M 57.565625 70.57 
L 140.082813 70.57 
Q 142.082813 70.57 142.082813 68.57 
L 142.082813 40.21375 
Q 142.082813 38.21375 140.082813 38.21375 
L 57.565625 38.21375 
Q 55.565625 38.21375 55.565625 40.21375 
L 55.565625 68.57 
Q 55.565625 70.57 57.565625 70.57 
z
" style="fill: #ffffff; opacity: 0.8; stroke: #cccccc; stroke-linejoin: miter"/>
    </g>
    <g id="line2d_25">
     <path d="M 59.565625 46.312187 
L 69.565625 46.312187 
L 79.565625 46.312187 
" style="fill: none; stroke: #1f77b4; stroke-width: 2; stroke-linecap: square"/>
    </g>
    <g id="text_6">
     <!-- Reference -->
     <g transform="translate(87.565625 49.812187)scale(0.1 -0.1)">
      <defs>
       <path id="DejaVuSans-52" d="M 2841 2188 
Q 3044 2119 3236 1894 
Q 3428 1669 3622 1275 
L 4263 0 
L 3584 0 
L 2988 1197 
Q 2756 1666 2539 1819 
Q 2322 1972 1947 1972 
L 1259 1972 
L 1259 0 
L 628 0 
L 628 4666 
L 2053 4666 
Q 2853 4666 3247 4331 
Q 3641 3997 3641 3322 
Q 3641 2881 3436 2590 
Q 3231 2300 2841 2188 
z
M 1259 4147 
L 1259 2491 
L 2053 2491 
Q 2509 2491 2742 2702 
Q 2975 2913 2975 3322 
Q 2975 3731 2742 3939 
Q 2509 4147 2053 4147 
L 1259 4147 
z
" transform="scale(0.015625)"/>
       <path id="DejaVuSans-66" d="M 2375 4863 
L 2375 4384 
L 1825 4384 
Q 1516 4384 1395 4259 
Q 1275 4134 1275 3809 
L 1275 3500 
L 2222 3500 
L 2222 3053 
L 1275 3053 
L 1275 0 
L 697 0 
L 697 3053 
L 147 3053 
L 147 3500 
L 697 3500 
L 697 3744 
Q 697 4328 969 4595 
Q 1241 4863 1831 4863 
L 2375 4863 
z
" transform="scale(0.015625)"/>
       <path id="DejaVuSans-63" d="M 3122 3366 
L 3122 2828 
Q 2878 2963 2633 3030 
Q 2388 3097 2138 3097 
Q 1578 3097 1268 2742 
Q 959 2388 959 1747 
Q 959 1106 1268 751 
Q 1578 397 2138 397 
Q 2388 397 2633 464 
Q 2878 531 3122 666 
L 3122 134 
Q 2881 22 2623 -34 
Q 2366 -91 2075 -91 
Q 1284 -91 818 406 
Q 353 903 353 1747 
Q 353 2603 823 3093 
Q 1294 3584 2113 3584 
Q 2378 3584 2631 3529 
Q 2884 3475 3122 3366 
z
" transform="scale(0.015625)"/>
      </defs>
      <use xlink:href="#DejaVuSans-52"/>
      <use xlink:href="#DejaVuSans-65" x="64.982422"/>
      <use xlink:href="#DejaVuSans-66" x="126.505859"/>
      <use xlink:href="#DejaVuSans-65" x="161.710938"/>
      <use xlink:href="#DejaVuSans-72" x="223.234375"/>
      <use xlink:href="#DejaVuSans-65" x="262.097656"/>
      <use xlink:href="#DejaVuSans-6e" x="323.621094"/>
      <use xlink:href="#DejaVuSans-63" x="387"/>
      <use xlink:href="#DejaVuSans-65" x="441.980469"/>
     </g>
    </g>
    <g id="line2d_26">
     <path d="M 59.565625 60.990312 
L 69.565625 60.990312 
L 79.565625 60.990312 
" style="fill: none; stroke: #ff7f0e; stroke-width: 2; stroke-linecap: square"/>
    </g>
    <g id="text_7">
     <!-- Estimated -->
     <g transform="translate(87.565625 64.490312)scale(0.1 -0.1)">
      <defs>
       <path id="DejaVuSans-45" d="M 628 4666 
L 3578 4666 
L 3578 4134 
L 1259 4134 
L 1259 2753 
L 3481 2753 
L 3481 2222 
L 1259 2222 
L 1259 531 
L 3634 531 
L 3634 0 
L 628 0 
L 628 4666 
z
" transform="scale(0.015625)"/>
       <path id="DejaVuSans-69" d="M 603 3500 
L 1178 3500 
L 1178 0 
L 603 0 
L 603 3500 
z
M 603 4863 
L 1178 4863 
L 1178 4134 
L 603 4134 
L 603 4863 
z
" transform="scale(0.015625)"/>
       <path id="DejaVuSans-64" d="M 2906 2969 
L 2906 4863 
L 3481 4863 
L 3481 0 
L 2906 0 
L 2906 525 
Q 2725 213 2448 61 
Q 2172 -91 1784 -91 
Q 1150 -91 751 415 
Q 353 922 353 1747 
Q 353 2572 751 3078 
Q 1150 3584 1784 3584 
Q 2172 3584 2448 3432 
Q 2725 3281 2906 2969 
z
M 947 1747 
Q 947 1113 1208 752 
Q 1469 391 1925 391 
Q 2381 391 2643 752 
Q 2906 1113 2906 1747 
Q 2906 2381 2643 2742 
Q 2381 3103 1925 3103 
Q 1469 3103 1208 2742 
Q 947 2381 947 1747 
z
" transform="scale(0.015625)"/>
      </defs>
      <use xlink:href="#DejaVuSans-45"/>
      <use xlink:href="#DejaVuSans-73" x="63.183594"/>
      <use xlink:href="#DejaVuSans-74" x="115.283203"/>
      <use xlink:href="#DejaVuSans-69" x="154.492188"/>
      <use xlink:href="#DejaVuSans-6d" x="182.275391"/>
      <use xlink:href="#DejaVuSans-61" x="279.6875"/>
      <use xlink:href="#DejaVuSans-74" x="340.966797"/>
      <use xlink:href="#DejaVuSans-65" x="380.175781"/>
      <use xlink:href="#DejaVuSans-64" x="441.699219"/>
     </g>
    </g>
   </g>
  </g>
  <g id="axes_2">
   <g id="patch_8">
    <path d="M 50.565625 304.44375 
L 450 304.44375 
L 450 175.97875 
L 50.565625 175.97875 
z
" style="fill: #ffffff"/>
   </g>
   <g id="matplotlib.axis_3">
    <g id="xtick_8">
     <g id="line2d_27">
      <path d="M 68.721733 304.44375 
L 68.721733 175.97875 
" clip-path="url(#pa9f603b2e6)" style="fill: none; stroke: #b0b0b0; stroke-width: 0.8; stroke-linecap: square"/>
     </g>
     <g id="line2d_28">
      <g>
       <use xlink:href="#mea21c78e22" x="68.721733" y="304.44375" style="stroke: #000000; stroke-width: 0.8"/>
      </g>
     </g>
     <g id="text_8">
      <!-- 0.00 -->
      <g transform="translate(57.58892 319.042187)scale(0.1 -0.1)">
       <use xlink:href="#DejaVuSans-30"/>
       <use xlink:href="#DejaVuSans-2e" x="63.623047"/>
       <use xlink:href="#DejaVuSans-30" x="95.410156"/>
       <use xlink:href="#DejaVuSans-30" x="159.033203"/>
      </g>
     </g>
    </g>
    <g id="xtick_9">
     <g id="line2d_29">
      <path d="M 129.041028 304.44375 
L 129.041028 175.97875 
" clip-path="url(#pa9f603b2e6)" style="fill: none; stroke: #b0b0b0; stroke-width: 0.8; stroke-linecap: square"/>
     </g>
     <g id="line2d_30">
      <g>
       <use xlink:href="#mea21c78e22" x="129.041028" y="304.44375" style="stroke: #000000; stroke-width: 0.8"/>
      </g>
     </g>
     <g id="text_9">
      <!-- 0.05 -->
      <g transform="translate(117.908216 319.042187)scale(0.1 -0.1)">
       <defs>
        <path id="DejaVuSans-35" d="M 691 4666 
L 3169 4666 
L 3169 4134 
L 1269 4134 
L 1269 2991 
Q 1406 3038 1543 3061 
Q 1681 3084 1819 3084 
Q 2600 3084 3056 2656 
Q 3513 2228 3513 1497 
Q 3513 744 3044 326 
Q 2575 -91 1722 -91 
Q 1428 -91 1123 -41 
Q 819 9 494 109 
L 494 744 
Q 775 591 1075 516 
Q 1375 441 1709 441 
Q 2250 441 2565 725 
Q 2881 1009 2881 1497 
Q 2881 1984 2565 2268 
Q 2250 2553 1709 2553 
Q 1456 2553 1204 2497 
Q 953 2441 691 2322 
L 691 4666 
z
" transform="scale(0.015625)"/>
       </defs>
       <use xlink:href="#DejaVuSans-30"/>
       <use xlink:href="#DejaVuSans-2e" x="63.623047"/>
       <use xlink:href="#DejaVuSans-30" x="95.410156"/>
       <use xlink:href="#DejaVuSans-35" x="159.033203"/>
      </g>
     </g>
    </g>
    <g id="xtick_10">
     <g id="line2d_31">
      <path d="M 189.360324 304.44375 
L 189.360324 175.97875 
" clip-path="url(#pa9f603b2e6)" style="fill: none; stroke: #b0b0b0; stroke-width: 0.8; stroke-linecap: square"/>
     </g>
     <g id="line2d_32">
      <g>
       <use xlink:href="#mea21c78e22" x="189.360324" y="304.44375" style="stroke: #000000; stroke-width: 0.8"/>
      </g>
     </g>
     <g id="text_10">
      <!-- 0.10 -->
      <g transform="translate(178.227512 319.042187)scale(0.1 -0.1)">
       <defs>
        <path id="DejaVuSans-31" d="M 794 531 
L 1825 531 
L 1825 4091 
L 703 3866 
L 703 4441 
L 1819 4666 
L 2450 4666 
L 2450 531 
L 3481 531 
L 3481 0 
L 794 0 
L 794 531 
z
" transform="scale(0.015625)"/>
       </defs>
       <use xlink:href="#DejaVuSans-30"/>
       <use xlink:href="#DejaVuSans-2e" x="63.623047"/>
       <use xlink:href="#DejaVuSans-31" x="95.410156"/>
       <use xlink:href="#DejaVuSans-30" x="159.033203"/>
      </g>
     </g>
    </g>
    <g id="xtick_11">
     <g id="line2d_33">
      <path d="M 249.67962 304.44375 
L 249.67962 175.97875 
" clip-path="url(#pa9f603b2e6)" style="fill: none; stroke: #b0b0b0; stroke-width: 0.8; stroke-linecap: square"/>
     </g>
     <g id="line2d_34">
      <g>
       <use xlink:href="#mea21c78e22" x="249.67962" y="304.44375" style="stroke: #000000; stroke-width: 0.8"/>
      </g>
     </g>
     <g id="text_11">
      <!-- 0.15 -->
      <g transform="translate(238.546807 319.042187)scale(0.1 -0.1)">
       <use xlink:href="#DejaVuSans-30"/>
       <use xlink:href="#DejaVuSans-2e" x="63.623047"/>
       <use xlink:href="#DejaVuSans-31" x="95.410156"/>
       <use xlink:href="#DejaVuSans-35" x="159.033203"/>
      </g>
     </g>
    </g>
    <g id="xtick_12">
     <g id="line2d_35">
      <path d="M 309.998915 304.44375 
L 309.998915 175.97875 
" clip-path="url(#pa9f603b2e6)" style="fill: none; stroke: #b0b0b0; stroke-width: 0.8; stroke-linecap: square"/>
     </g>
     <g id="line2d_36">
      <g>
       <use xlink:href="#mea21c78e22" x="309.998915" y="304.44375" style="stroke: #000000; stroke-width: 0.8"/>
      </g>
     </g>
     <g id="text_12">
      <!-- 0.20 -->
      <g transform="translate(298.866103 319.042187)scale(0.1 -0.1)">
       <use xlink:href="#DejaVuSans-30"/>
       <use xlink:href="#DejaVuSans-2e" x="63.623047"/>
       <use xlink:href="#DejaVuSans-32" x="95.410156"/>
       <use xlink:href="#DejaVuSans-30" x="159.033203"/>
      </g>
     </g>
    </g>
    <g id="xtick_13">
     <g id="line2d_37">
      <path d="M 370.318211 304.44375 
L 370.318211 175.97875 
" clip-path="url(#pa9f603b2e6)" style="fill: none; stroke: #b0b0b0; stroke-width: 0.8; stroke-linecap: square"/>
     </g>
     <g id="line2d_38">
      <g>
       <use xlink:href="#mea21c78e22" x="370.318211" y="304.44375" style="stroke: #000000; stroke-width: 0.8"/>
      </g>
     </g>
     <g id="text_13">
      <!-- 0.25 -->
      <g transform="translate(359.185398 319.042187)scale(0.1 -0.1)">
       <use xlink:href="#DejaVuSans-30"/>
       <use xlink:href="#DejaVuSans-2e" x="63.623047"/>
       <use xlink:href="#DejaVuSans-32" x="95.410156"/>
       <use xlink:href="#DejaVuSans-35" x="159.033203"/>
      </g>
     </g>
    </g>
    <g id="xtick_14">
     <g id="line2d_39">
      <path d="M 430.637506 304.44375 
L 430.637506 175.97875 
" clip-path="url(#pa9f603b2e6)" style="fill: none; stroke: #b0b0b0; stroke-width: 0.8; stroke-linecap: square"/>
     </g>
     <g id="line2d_40">
      <g>
       <use xlink:href="#mea21c78e22" x="430.637506" y="304.44375" style="stroke: #000000; stroke-width: 0.8"/>
      </g>
     </g>
     <g id="text_14">
      <!-- 0.30 -->
      <g transform="translate(419.504694 319.042187)scale(0.1 -0.1)">
       <defs>
        <path id="DejaVuSans-33" d="M 2597 2516 
Q 3050 2419 3304 2112 
Q 3559 1806 3559 1356 
Q 3559 666 3084 287 
Q 2609 -91 1734 -91 
Q 1441 -91 1130 -33 
Q 819 25 488 141 
L 488 750 
Q 750 597 1062 519 
Q 1375 441 1716 441 
Q 2309 441 2620 675 
Q 2931 909 2931 1356 
Q 2931 1769 2642 2001 
Q 2353 2234 1838 2234 
L 1294 2234 
L 1294 2753 
L 1863 2753 
Q 2328 2753 2575 2939 
Q 2822 3125 2822 3475 
Q 2822 3834 2567 4026 
Q 2313 4219 1838 4219 
Q 1578 4219 1281 4162 
Q 984 4106 628 3988 
L 628 4550 
Q 988 4650 1302 4700 
Q 1616 4750 1894 4750 
Q 2613 4750 3031 4423 
Q 3450 4097 3450 3541 
Q 3450 3153 3228 2886 
Q 3006 2619 2597 2516 
z
" transform="scale(0.015625)"/>
       </defs>
       <use xlink:href="#DejaVuSans-30"/>
       <use xlink:href="#DejaVuSans-2e" x="63.623047"/>
       <use xlink:href="#DejaVuSans-33" x="95.410156"/>
       <use xlink:href="#DejaVuSans-30" x="159.033203"/>
      </g>
     </g>
    </g>
    <g id="text_15">
     <!-- Time [s] -->
     <g transform="translate(229.953906 332.720312)scale(0.1 -0.1)">
      <defs>
       <path id="DejaVuSans-54" d="M -19 4666 
L 3928 4666 
L 3928 4134 
L 2272 4134 
L 2272 0 
L 1638 0 
L 1638 4134 
L -19 4134 
L -19 4666 
z
" transform="scale(0.015625)"/>
      </defs>
      <use xlink:href="#DejaVuSans-54"/>
      <use xlink:href="#DejaVuSans-69" x="57.958984"/>
      <use xlink:href="#DejaVuSans-6d" x="85.742188"/>
      <use xlink:href="#DejaVuSans-65" x="183.154297"/>
      <use xlink:href="#DejaVuSans-20" x="244.677734"/>
      <use xlink:href="#DejaVuSans-5b" x="276.464844"/>
      <use xlink:href="#DejaVuSans-73" x="315.478516"/>
      <use xlink:href="#DejaVuSans-5d" x="367.578125"/>
     </g>
    </g>
   </g>
   <g id="matplotlib.axis_4">
    <g id="ytick_5">
     <g id="line2d_41">
      <path d="M 50.565625 282.261532 
L 450 282.261532 
" clip-path="url(#pa9f603b2e6)" style="fill: none; stroke: #b0b0b0; stroke-width: 0.8; stroke-linecap: square"/>
     </g>
     <g id="line2d_42">
      <g>
       <use xlink:href="#m970d9c8c87" x="50.565625" y="282.261532" style="stroke: #000000; stroke-width: 0.8"/>
      </g>
     </g>
     <g id="text_16">
      <!-- −1 -->
      <g transform="translate(28.823438 286.060751)scale(0.1 -0.1)">
       <defs>
        <path id="DejaVuSans-2212" d="M 678 2272 
L 4684 2272 
L 4684 1741 
L 678 1741 
L 678 2272 
z
" transform="scale(0.015625)"/>
       </defs>
       <use xlink:href="#DejaVuSans-2212"/>
       <use xlink:href="#DejaVuSans-31" x="83.789062"/>
      </g>
     </g>
    </g>
    <g id="ytick_6">
     <g id="line2d_43">
      <path d="M 50.565625 249.575732 
L 450 249.575732 
" clip-path="url(#pa9f603b2e6)" style="fill: none; stroke: #b0b0b0; stroke-width: 0.8; stroke-linecap: square"/>
     </g>
     <g id="line2d_44">
      <g>
       <use xlink:href="#m970d9c8c87" x="50.565625" y="249.575732" style="stroke: #000000; stroke-width: 0.8"/>
      </g>
     </g>
     <g id="text_17">
      <!-- 0 -->
      <g transform="translate(37.203125 253.37495)scale(0.1 -0.1)">
       <use xlink:href="#DejaVuSans-30"/>
      </g>
     </g>
    </g>
    <g id="ytick_7">
     <g id="line2d_45">
      <path d="M 50.565625 216.889932 
L 450 216.889932 
" clip-path="url(#pa9f603b2e6)" style="fill: none; stroke: #b0b0b0; stroke-width: 0.8; stroke-linecap: square"/>
     </g>
     <g id="line2d_46">
      <g>
       <use xlink:href="#m970d9c8c87" x="50.565625" y="216.889932" style="stroke: #000000; stroke-width: 0.8"/>
      </g>
     </g>
     <g id="text_18">
      <!-- 1 -->
      <g transform="translate(37.203125 220.68915)scale(0.1 -0.1)">
       <use xlink:href="#DejaVuSans-31"/>
      </g>
     </g>
    </g>
    <g id="ytick_8">
     <g id="line2d_47">
      <path d="M 50.565625 184.204132 
L 450 184.204132 
" clip-path="url(#pa9f603b2e6)" style="fill: none; stroke: #b0b0b0; stroke-width: 0.8; stroke-linecap: square"/>
     </g>
     <g id="line2d_48">
      <g>
       <use xlink:href="#m970d9c8c87" x="50.565625" y="184.204132" style="stroke: #000000; stroke-width: 0.8"/>
      </g>
     </g>
     <g id="text_19">
      <!-- 2 -->
      <g transform="translate(37.203125 188.00335)scale(0.1 -0.1)">
       <use xlink:href="#DejaVuSans-32"/>
      </g>
     </g>
    </g>
    <g id="text_20">
     <!-- rot. vel. [rad/s] -->
     <g transform="translate(22.74375 277.439375)rotate(-90)scale(0.1 -0.1)">
      <defs>
       <path id="DejaVuSans-6f" d="M 1959 3097 
Q 1497 3097 1228 2736 
Q 959 2375 959 1747 
Q 959 1119 1226 758 
Q 1494 397 1959 397 
Q 2419 397 2687 759 
Q 2956 1122 2956 1747 
Q 2956 2369 2687 2733 
Q 2419 3097 1959 3097 
z
M 1959 3584 
Q 2709 3584 3137 3096 
Q 3566 2609 3566 1747 
Q 3566 888 3137 398 
Q 2709 -91 1959 -91 
Q 1206 -91 779 398 
Q 353 888 353 1747 
Q 353 2609 779 3096 
Q 1206 3584 1959 3584 
z
" transform="scale(0.015625)"/>
      </defs>
      <use xlink:href="#DejaVuSans-72"/>
      <use xlink:href="#DejaVuSans-6f" x="38.863281"/>
      <use xlink:href="#DejaVuSans-74" x="100.044922"/>
      <use xlink:href="#DejaVuSans-2e" x="139.253906"/>
      <use xlink:href="#DejaVuSans-20" x="171.041016"/>
      <use xlink:href="#DejaVuSans-76" x="202.828125"/>
      <use xlink:href="#DejaVuSans-65" x="262.007812"/>
      <use xlink:href="#DejaVuSans-6c" x="323.53125"/>
      <use xlink:href="#DejaVuSans-2e" x="351.314453"/>
      <use xlink:href="#DejaVuSans-20" x="383.101562"/>
      <use xlink:href="#DejaVuSans-5b" x="414.888672"/>
      <use xlink:href="#DejaVuSans-72" x="453.902344"/>
      <use xlink:href="#DejaVuSans-61" x="495.015625"/>
      <use xlink:href="#DejaVuSans-64" x="556.294922"/>
      <use xlink:href="#DejaVuSans-2f" x="619.771484"/>
      <use xlink:href="#DejaVuSans-73" x="653.462891"/>
      <use xlink:href="#DejaVuSans-5d" x="705.5625"/>
     </g>
    </g>
   </g>
   <g id="line2d_49">
    <path d="M 68.721733 249.575732 
L 431.843892 249.575732 
L 431.843892 249.575732 
" clip-path="url(#pa9f603b2e6)" style="fill: none; stroke: #1f77b4; stroke-width: 2; stroke-linecap: square"/>
   </g>
   <g id="line2d_50">
    <path d="M 68.721733 249.575732 
L 72.340891 249.433189 
L 73.547277 249.954887 
L 74.753663 250.21572 
L 75.960048 250.337638 
L 77.166434 250.337638 
L 78.37282 250.21572 
L 79.579206 250.21572 
L 80.785592 250.076805 
L 84.40475 250.094129 
L 85.611136 251.050842 
L 86.817522 257.554336 
L 88.023908 259.433769 
L 89.230293 260.094022 
L 90.436679 259.015391 
L 91.643065 258.16556 
L 92.849451 258.773516 
L 94.055837 259.103642 
L 96.468609 258.008668 
L 97.674995 258.632967 
L 98.881381 261.313203 
L 100.087767 262.00941 
L 101.294153 262.198988 
L 102.500538 259.695255 
L 103.706924 250.163749 
L 104.91331 248.424538 
L 106.119696 249.781064 
L 107.326082 252.076849 
L 108.532468 257.312461 
L 109.738854 257.884462 
L 112.151626 262.198988 
L 113.358012 269.608859 
L 114.564398 271.435995 
L 115.770783 278.617065 
L 116.977169 283.144048 
L 119.389941 285.46474 
L 120.596327 283.993879 
L 121.802713 285.987713 
L 123.009099 289.779266 
L 124.215485 295.956882 
L 125.421871 295.368538 
L 126.628257 291.152069 
L 127.834643 293.276646 
L 129.041028 296.90477 
L 130.247414 298.604432 
L 131.4538 298.048773 
L 132.660186 297.721915 
L 133.866572 292.328758 
L 135.072958 290.106124 
L 136.279344 285.824284 
L 137.48573 285.922341 
L 138.692116 288.635263 
L 139.898502 289.844637 
L 141.104888 284.386109 
L 142.311274 280.391904 
L 143.517659 274.201213 
L 144.724045 272.338123 
L 145.930431 262.826555 
L 147.136817 256.008297 
L 148.343203 253.782394 
L 149.549589 247.937519 
L 150.755975 246.319899 
L 151.962361 242.633268 
L 153.168747 241.642888 
L 154.375133 235.363946 
L 155.581519 186.688252 
L 156.787904 181.818068 
L 157.99429 203.390696 
L 159.200676 218.769365 
L 160.407062 217.151418 
L 161.613448 214.732669 
L 162.819834 213.16375 
L 164.02622 209.797113 
L 166.438992 203.488754 
L 167.645378 206.561219 
L 168.851764 208.65311 
L 170.058149 205.515273 
L 171.264535 204.240527 
L 172.470921 205.057672 
L 173.677307 207.280306 
L 174.883693 205.907503 
L 176.090079 200.677775 
L 177.296465 201.756406 
L 178.502851 202.606237 
L 179.709237 215.419071 
L 180.915623 218.648428 
L 182.122009 215.876672 
L 183.328394 215.157584 
L 184.53478 221.01488 
L 185.741166 223.70819 
L 186.947552 226.090984 
L 188.153938 224.770478 
L 189.360324 221.691476 
L 190.56671 223.29308 
L 191.773096 229.519725 
L 192.979482 233.919233 
L 194.185868 246.459141 
L 195.392254 241.848809 
L 196.598639 230.039429 
L 197.805025 228.77122 
L 199.011411 235.1711 
L 200.217797 239.606563 
L 201.424183 249.033147 
L 202.630569 252.807377 
L 203.836955 253.223467 
L 205.043341 249.850619 
L 206.249727 242.894754 
L 207.456113 242.580971 
L 208.662499 241.832466 
L 209.868884 245.71227 
L 211.07527 252.14647 
L 212.281656 252.89334 
L 213.488042 251.624805 
L 214.694428 251.676775 
L 215.900814 257.936759 
L 217.1072 259.816193 
L 218.313586 264.581783 
L 219.519972 264.63408 
L 223.13913 274.479043 
L 224.345515 273.95607 
L 225.551901 275.992395 
L 226.758287 277.381542 
L 227.964673 284.811024 
L 229.171059 285.46474 
L 230.377445 279.816634 
L 231.583831 278.355579 
L 232.790217 274.982404 
L 233.996603 274.165259 
L 235.202989 276.443459 
L 236.409375 277.433839 
L 237.61576 277.505748 
L 238.822146 275.52172 
L 240.028532 268.494273 
L 241.234918 266.111478 
L 242.441304 259.22458 
L 243.64769 260.911167 
L 244.854076 258.842156 
L 246.060462 257.276506 
L 247.266848 250.424582 
L 248.473234 248.563452 
L 249.67962 244.56173 
L 250.886005 247.224315 
L 252.092391 246.493788 
L 254.505163 248.146055 
L 255.711549 247.520122 
L 256.917935 243.675945 
L 258.124321 243.329475 
L 259.330707 245.362532 
L 260.537093 244.581341 
L 261.743479 239.01495 
L 262.949865 236.700795 
L 264.15625 228.163264 
L 265.362636 227.656634 
L 266.569022 225.031964 
L 267.775408 226.597614 
L 268.981794 226.960427 
L 270.18818 226.597614 
L 271.394566 224.85873 
L 272.600952 223.345377 
L 273.807338 221.204457 
L 275.013724 221.570538 
L 276.22011 223.655892 
L 277.426495 223.466315 
L 279.839267 231.065763 
L 281.045653 244.042026 
L 282.252039 245.346189 
L 283.458425 246.406843 
L 284.664811 246.685326 
L 285.871197 246.284272 
L 287.077583 244.963765 
L 288.283969 242.665954 
L 289.490355 244.267558 
L 290.696741 249.554947 
L 291.903126 250.28534 
L 293.109512 252.616165 
L 294.315898 253.311719 
L 295.522284 253.10253 
L 296.72867 254.704134 
L 297.935056 254.632225 
L 299.141442 256.841785 
L 300.347828 263.398557 
L 301.554214 264.130718 
L 302.7606 265.696368 
L 303.966986 268.007254 
L 305.173371 271.939356 
L 306.379757 274.825512 
L 307.586143 276.16563 
L 308.792529 277.139667 
L 309.998915 278.584379 
L 311.205301 276.23427 
L 312.411687 267.938614 
L 313.618073 268.461587 
L 314.824459 275.626314 
L 316.030845 274.982404 
L 317.237231 266.546199 
L 319.650002 260.754275 
L 320.856388 261.3655 
L 322.062774 258.423778 
L 323.26916 257.381101 
L 324.475546 255.956 
L 325.681932 255.956 
L 326.888318 254.929666 
L 328.094704 253.050232 
L 329.30109 252.650812 
L 330.507476 252.476923 
L 331.713861 248.98085 
L 332.920247 247.798278 
L 334.126633 246.215631 
L 335.333019 245.78091 
L 336.539405 242.979737 
L 337.745791 242.21489 
L 338.952177 239.900735 
L 340.158563 238.73712 
L 341.364949 231.572393 
L 342.571335 230.804277 
L 343.777721 228.12731 
L 344.984106 227.346119 
L 346.190492 226.179236 
L 347.396878 226.090984 
L 348.603264 228.267859 
L 349.80965 231.033077 
L 351.016036 230.892528 
L 352.222422 228.493391 
L 353.428808 221.518241 
L 354.635194 222.439981 
L 355.84158 228.735266 
L 357.047966 229.970789 
L 358.254351 232.474521 
L 359.460737 234.233017 
L 360.667123 235.396632 
L 361.873509 235.050162 
L 364.286281 239.972644 
L 365.492667 239.7275 
L 366.699053 239.606563 
L 367.905439 243.711899 
L 369.111825 248.581103 
L 370.318211 249.937564 
L 371.524597 246.911185 
L 372.730982 243.152972 
L 373.937368 245.937802 
L 375.143754 252.772403 
L 376.35014 253.81508 
L 377.556526 252.912952 
L 378.762912 252.965249 
L 379.969298 257.832165 
L 381.175684 260.041725 
L 382.38207 265.225693 
L 383.588456 266.722702 
L 386.001227 278.234641 
L 387.207613 278.130047 
L 388.413999 279.486507 
L 389.620385 276.479414 
L 390.826771 274.966061 
L 392.033157 271.3314 
L 393.239543 271.74651 
L 394.445929 271.74651 
L 395.652315 270.965319 
L 396.858701 268.791714 
L 398.065087 267.105126 
L 399.271472 264.163404 
L 400.477858 263.434511 
L 401.684244 259.590661 
L 402.89063 259.035002 
L 404.097016 255.400341 
L 405.303402 254.73682 
L 406.509788 255.03426 
L 407.716174 254.112521 
L 408.92256 253.468611 
L 410.128946 251.189757 
L 411.335332 250.511526 
L 412.541717 250.650768 
L 413.748103 248.9985 
L 414.954489 243.381773 
L 416.160875 241.623277 
L 417.367261 236.632155 
L 419.780033 232.598727 
L 420.986419 231.830611 
L 422.192805 224.718181 
L 423.399191 224.299803 
L 424.605577 226.283831 
L 425.811962 227.378805 
L 427.018348 231.274952 
L 428.224734 231.676988 
L 429.43112 232.719665 
L 431.843892 235.292037 
L 431.843892 235.292037 
" clip-path="url(#pa9f603b2e6)" style="fill: none; stroke: #ff7f0e; stroke-width: 2; stroke-linecap: square"/>
   </g>
   <g id="patch_9">
    <path d="M 50.565625 304.44375 
L 50.565625 175.97875 
" style="fill: none; stroke: #000000; stroke-width: 0.8; stroke-linejoin: miter; stroke-linecap: square"/>
   </g>
   <g id="patch_10">
    <path d="M 450 304.44375 
L 450 175.97875 
" style="fill: none; stroke: #000000; stroke-width: 0.8; stroke-linejoin: miter; stroke-linecap: square"/>
   </g>
   <g id="patch_11">
    <path d="M 50.565625 304.44375 
L 450 304.44375 
" style="fill: none; stroke: #000000; stroke-width: 0.8; stroke-linejoin: miter; stroke-linecap: square"/>
   </g>
   <g id="patch_12">
    <path d="M 50.565625 175.97875 
L 450 175.97875 
" style="fill: none; stroke: #000000; stroke-width: 0.8; stroke-linejoin: miter; stroke-linecap: square"/>
   </g>
   <g id="legend_2">
    <g id="patch_13">
     <path d="M 360.482812 213.335 
L 443 213.335 
Q 445 213.335 445 211.335 
L 445 182.97875 
Q 445 180.97875 443 180.97875 
L 360.482812 180.97875 
Q 358.482812 180.97875 358.482812 182.97875 
L 358.482812 211.335 
Q 358.482812 213.335 360.482812 213.335 
z
" style="fill: #ffffff; opacity: 0.8; stroke: #cccccc; stroke-linejoin: miter"/>
    </g>
    <g id="line2d_51">
     <path d="M 362.482812 189.077187 
L 372.482812 189.077187 
L 382.482812 189.077187 
" style="fill: none; stroke: #1f77b4; stroke-width: 2; stroke-linecap: square"/>
    </g>
    <g id="text_21">
     <!-- Reference -->
     <g transform="translate(390.482812 192.577187)scale(0.1 -0.1)">
      <use xlink:href="#DejaVuSans-52"/>
      <use xlink:href="#DejaVuSans-65" x="64.982422"/>
      <use xlink:href="#DejaVuSans-66" x="126.505859"/>
      <use xlink:href="#DejaVuSans-65" x="161.710938"/>
      <use xlink:href="#DejaVuSans-72" x="223.234375"/>
      <use xlink:href="#DejaVuSans-65" x="262.097656"/>
      <use xlink:href="#DejaVuSans-6e" x="323.621094"/>
      <use xlink:href="#DejaVuSans-63" x="387"/>
      <use xlink:href="#DejaVuSans-65" x="441.980469"/>
     </g>
    </g>
    <g id="line2d_52">
     <path d="M 362.482812 203.755312 
L 372.482812 203.755312 
L 382.482812 203.755312 
" style="fill: none; stroke: #ff7f0e; stroke-width: 2; stroke-linecap: square"/>
    </g>
    <g id="text_22">
     <!-- Estimated -->
     <g transform="translate(390.482812 207.255312)scale(0.1 -0.1)">
      <use xlink:href="#DejaVuSans-45"/>
      <use xlink:href="#DejaVuSans-73" x="63.183594"/>
      <use xlink:href="#DejaVuSans-74" x="115.283203"/>
      <use xlink:href="#DejaVuSans-69" x="154.492188"/>
      <use xlink:href="#DejaVuSans-6d" x="182.275391"/>
      <use xlink:href="#DejaVuSans-61" x="279.6875"/>
      <use xlink:href="#DejaVuSans-74" x="340.966797"/>
      <use xlink:href="#DejaVuSans-65" x="380.175781"/>
      <use xlink:href="#DejaVuSans-64" x="441.699219"/>
     </g>
    </g>
   </g>
  </g>
  <g id="text_23">
   <!-- Translational and Rotational Velocity -->
   <g transform="translate(121.384688 16.030125)scale(0.12 -0.12)">
    <defs>
     <path id="DejaVuSans-56" d="M 1831 0 
L 50 4666 
L 709 4666 
L 2188 738 
L 3669 4666 
L 4325 4666 
L 2547 0 
L 1831 0 
z
" transform="scale(0.015625)"/>
     <path id="DejaVuSans-79" d="M 2059 -325 
Q 1816 -950 1584 -1140 
Q 1353 -1331 966 -1331 
L 506 -1331 
L 506 -850 
L 844 -850 
Q 1081 -850 1212 -737 
Q 1344 -625 1503 -206 
L 1606 56 
L 191 3500 
L 800 3500 
L 1894 763 
L 2988 3500 
L 3597 3500 
L 2059 -325 
z
" transform="scale(0.015625)"/>
    </defs>
    <use xlink:href="#DejaVuSans-54"/>
    <use xlink:href="#DejaVuSans-72" x="46.333984"/>
    <use xlink:href="#DejaVuSans-61" x="87.447266"/>
    <use xlink:href="#DejaVuSans-6e" x="148.726562"/>
    <use xlink:href="#DejaVuSans-73" x="212.105469"/>
    <use xlink:href="#DejaVuSans-6c" x="264.205078"/>
    <use xlink:href="#DejaVuSans-61" x="291.988281"/>
    <use xlink:href="#DejaVuSans-74" x="353.267578"/>
    <use xlink:href="#DejaVuSans-69" x="392.476562"/>
    <use xlink:href="#DejaVuSans-6f" x="420.259766"/>
    <use xlink:href="#DejaVuSans-6e" x="481.441406"/>
    <use xlink:href="#DejaVuSans-61" x="544.820312"/>
    <use xlink:href="#DejaVuSans-6c" x="606.099609"/>
    <use xlink:href="#DejaVuSans-20" x="633.882812"/>
    <use xlink:href="#DejaVuSans-61" x="665.669922"/>
    <use xlink:href="#DejaVuSans-6e" x="726.949219"/>
    <use xlink:href="#DejaVuSans-64" x="790.328125"/>
    <use xlink:href="#DejaVuSans-20" x="853.804688"/>
    <use xlink:href="#DejaVuSans-52" x="885.591797"/>
    <use xlink:href="#DejaVuSans-6f" x="950.574219"/>
    <use xlink:href="#DejaVuSans-74" x="1011.755859"/>
    <use xlink:href="#DejaVuSans-61" x="1050.964844"/>
    <use xlink:href="#DejaVuSans-74" x="1112.244141"/>
    <use xlink:href="#DejaVuSans-69" x="1151.453125"/>
    <use xlink:href="#DejaVuSans-6f" x="1179.236328"/>
    <use xlink:href="#DejaVuSans-6e" x="1240.417969"/>
    <use xlink:href="#DejaVuSans-61" x="1303.796875"/>
    <use xlink:href="#DejaVuSans-6c" x="1365.076172"/>
    <use xlink:href="#DejaVuSans-20" x="1392.859375"/>
    <use xlink:href="#DejaVuSans-56" x="1424.646484"/>
    <use xlink:href="#DejaVuSans-65" x="1485.304688"/>
    <use xlink:href="#DejaVuSans-6c" x="1546.828125"/>
    <use xlink:href="#DejaVuSans-6f" x="1574.611328"/>
    <use xlink:href="#DejaVuSans-63" x="1635.792969"/>
    <use xlink:href="#DejaVuSans-69" x="1690.773438"/>
    <use xlink:href="#DejaVuSans-74" x="1718.556641"/>
    <use xlink:href="#DejaVuSans-79" x="1757.765625"/>
   </g>
  </g>
 </g>
 <defs>
  <clipPath id="p7e1361c183">
   <rect x="50.565625" y="33.21375" width="399.434375" height="128.465"/>
  </clipPath>
  <clipPath id="pa9f603b2e6">
   <rect x="50.565625" y="175.97875" width="399.434375" height="128.465"/>
  </clipPath>
 </defs>
</svg>
