<?xml version="1.0" encoding="utf-8" standalone="no"?>
<!DOCTYPE svg PUBLIC "-//W3C//DTD SVG 1.1//EN"
  "http://www.w3.org/Graphics/SVG/1.1/DTD/svg11.dtd">
<svg xmlns:xlink="http://www.w3.org/1999/xlink" width="460.8pt" height="345.6pt" viewBox="0 0 460.8 345.6" xmlns="http://www.w3.org/2000/svg" version="1.1">
 <metadata>
  <rdf:RDF xmlns:dc="http://purl.org/dc/elements/1.1/" xmlns:cc="http://creativecommons.org/ns#" xmlns:rdf="http://www.w3.org/1999/02/22-rdf-syntax-ns#">
   <cc:Work>
    <dc:type rdf:resource="http://purl.org/dc/dcmitype/StillImage"/>
    <dc:date>2022-01-15T16:13:43.999696</dc:date>
    <dc:format>image/svg+xml</dc:format>
    <dc:creator>
     <cc:Agent>
      <dc:title>Matplotlib v3.5.1, https://matplotlib.org/</dc:title>
     </cc:Agent>
    </dc:creator>
   </cc:Work>
  </rdf:RDF>
 </metadata>
 <defs>
  <style type="text/css">*{stroke-linejoin: round; stroke-linecap: butt}</style>
 </defs>
 <g id="figure_1">
  <g id="patch_1">
   <path d="M 0 345.6 
L 460.8 345.6 
L 460.8 0 
L 0 0 
z
" style="fill: #ffffff"/>
  </g>
  <g id="axes_1">
   <g id="patch_2">
    <path d="M 50.565625 161.67875 
L 450 161.67875 
L 450 33.21375 
L 50.565625 33.21375 
z
" style="fill: #ffffff"/>
   </g>
   <g id="matplotlib.axis_1">
    <g id="xtick_1">
     <g id="line2d_1">
      <path d="M 68.721733 161.67875 
L 68.721733 33.21375 
" clip-path="url(#pcde3439677)" style="fill: none; stroke: #b0b0b0; stroke-width: 0.8; stroke-linecap: square"/>
     </g>
     <g id="line2d_2">
      <defs>
       <path id="ma3e4b2b86a" d="M 0 0 
L 0 3.5 
" style="stroke: #000000; stroke-width: 0.8"/>
      </defs>
      <g>
       <use xlink:href="#ma3e4b2b86a" x="68.721733" y="161.67875" style="stroke: #000000; stroke-width: 0.8"/>
      </g>
     </g>
    </g>
    <g id="xtick_2">
     <g id="line2d_3">
      <path d="M 113.886181 161.67875 
L 113.886181 33.21375 
" clip-path="url(#pcde3439677)" style="fill: none; stroke: #b0b0b0; stroke-width: 0.8; stroke-linecap: square"/>
     </g>
     <g id="line2d_4">
      <g>
       <use xlink:href="#ma3e4b2b86a" x="113.886181" y="161.67875" style="stroke: #000000; stroke-width: 0.8"/>
      </g>
     </g>
    </g>
    <g id="xtick_3">
     <g id="line2d_5">
      <path d="M 159.050628 161.67875 
L 159.050628 33.21375 
" clip-path="url(#pcde3439677)" style="fill: none; stroke: #b0b0b0; stroke-width: 0.8; stroke-linecap: square"/>
     </g>
     <g id="line2d_6">
      <g>
       <use xlink:href="#ma3e4b2b86a" x="159.050628" y="161.67875" style="stroke: #000000; stroke-width: 0.8"/>
      </g>
     </g>
    </g>
    <g id="xtick_4">
     <g id="line2d_7">
      <path d="M 204.215076 161.67875 
L 204.215076 33.21375 
" clip-path="url(#pcde3439677)" style="fill: none; stroke: #b0b0b0; stroke-width: 0.8; stroke-linecap: square"/>
     </g>
     <g id="line2d_8">
      <g>
       <use xlink:href="#ma3e4b2b86a" x="204.215076" y="161.67875" style="stroke: #000000; stroke-width: 0.8"/>
      </g>
     </g>
    </g>
    <g id="xtick_5">
     <g id="line2d_9">
      <path d="M 249.379524 161.67875 
L 249.379524 33.21375 
" clip-path="url(#pcde3439677)" style="fill: none; stroke: #b0b0b0; stroke-width: 0.8; stroke-linecap: square"/>
     </g>
     <g id="line2d_10">
      <g>
       <use xlink:href="#ma3e4b2b86a" x="249.379524" y="161.67875" style="stroke: #000000; stroke-width: 0.8"/>
      </g>
     </g>
    </g>
    <g id="xtick_6">
     <g id="line2d_11">
      <path d="M 294.543971 161.67875 
L 294.543971 33.21375 
" clip-path="url(#pcde3439677)" style="fill: none; stroke: #b0b0b0; stroke-width: 0.8; stroke-linecap: square"/>
     </g>
     <g id="line2d_12">
      <g>
       <use xlink:href="#ma3e4b2b86a" x="294.543971" y="161.67875" style="stroke: #000000; stroke-width: 0.8"/>
      </g>
     </g>
    </g>
    <g id="xtick_7">
     <g id="line2d_13">
      <path d="M 339.708419 161.67875 
L 339.708419 33.21375 
" clip-path="url(#pcde3439677)" style="fill: none; stroke: #b0b0b0; stroke-width: 0.8; stroke-linecap: square"/>
     </g>
     <g id="line2d_14">
      <g>
       <use xlink:href="#ma3e4b2b86a" x="339.708419" y="161.67875" style="stroke: #000000; stroke-width: 0.8"/>
      </g>
     </g>
    </g>
    <g id="xtick_8">
     <g id="line2d_15">
      <path d="M 384.872866 161.67875 
L 384.872866 33.21375 
" clip-path="url(#pcde3439677)" style="fill: none; stroke: #b0b0b0; stroke-width: 0.8; stroke-linecap: square"/>
     </g>
     <g id="line2d_16">
      <g>
       <use xlink:href="#ma3e4b2b86a" x="384.872866" y="161.67875" style="stroke: #000000; stroke-width: 0.8"/>
      </g>
     </g>
    </g>
    <g id="xtick_9">
     <g id="line2d_17">
      <path d="M 430.037314 161.67875 
L 430.037314 33.21375 
" clip-path="url(#pcde3439677)" style="fill: none; stroke: #b0b0b0; stroke-width: 0.8; stroke-linecap: square"/>
     </g>
     <g id="line2d_18">
      <g>
       <use xlink:href="#ma3e4b2b86a" x="430.037314" y="161.67875" style="stroke: #000000; stroke-width: 0.8"/>
      </g>
     </g>
    </g>
   </g>
   <g id="matplotlib.axis_2">
    <g id="ytick_1">
     <g id="line2d_19">
      <path d="M 50.565625 151.001593 
L 450 151.001593 
" clip-path="url(#pcde3439677)" style="fill: none; stroke: #b0b0b0; stroke-width: 0.8; stroke-linecap: square"/>
     </g>
     <g id="line2d_20">
      <defs>
       <path id="m99e3ddfce8" d="M 0 0 
L -3.5 0 
" style="stroke: #000000; stroke-width: 0.8"/>
      </defs>
      <g>
       <use xlink:href="#m99e3ddfce8" x="50.565625" y="151.001593" style="stroke: #000000; stroke-width: 0.8"/>
      </g>
     </g>
     <g id="text_1">
      <!-- 0 -->
      <g transform="translate(37.203125 154.800812)scale(0.1 -0.1)">
       <defs>
        <path id="DejaVuSans-30" d="M 2034 4250 
Q 1547 4250 1301 3770 
Q 1056 3291 1056 2328 
Q 1056 1369 1301 889 
Q 1547 409 2034 409 
Q 2525 409 2770 889 
Q 3016 1369 3016 2328 
Q 3016 3291 2770 3770 
Q 2525 4250 2034 4250 
z
M 2034 4750 
Q 2819 4750 3233 4129 
Q 3647 3509 3647 2328 
Q 3647 1150 3233 529 
Q 2819 -91 2034 -91 
Q 1250 -91 836 529 
Q 422 1150 422 2328 
Q 422 3509 836 4129 
Q 1250 4750 2034 4750 
z
" transform="scale(0.015625)"/>
       </defs>
       <use xlink:href="#DejaVuSans-30"/>
      </g>
     </g>
    </g>
    <g id="ytick_2">
     <g id="line2d_21">
      <path d="M 50.565625 118.781554 
L 450 118.781554 
" clip-path="url(#pcde3439677)" style="fill: none; stroke: #b0b0b0; stroke-width: 0.8; stroke-linecap: square"/>
     </g>
     <g id="line2d_22">
      <g>
       <use xlink:href="#m99e3ddfce8" x="50.565625" y="118.781554" style="stroke: #000000; stroke-width: 0.8"/>
      </g>
     </g>
     <g id="text_2">
      <!-- 200 -->
      <g transform="translate(24.478125 122.580773)scale(0.1 -0.1)">
       <defs>
        <path id="DejaVuSans-32" d="M 1228 531 
L 3431 531 
L 3431 0 
L 469 0 
L 469 531 
Q 828 903 1448 1529 
Q 2069 2156 2228 2338 
Q 2531 2678 2651 2914 
Q 2772 3150 2772 3378 
Q 2772 3750 2511 3984 
Q 2250 4219 1831 4219 
Q 1534 4219 1204 4116 
Q 875 4013 500 3803 
L 500 4441 
Q 881 4594 1212 4672 
Q 1544 4750 1819 4750 
Q 2544 4750 2975 4387 
Q 3406 4025 3406 3419 
Q 3406 3131 3298 2873 
Q 3191 2616 2906 2266 
Q 2828 2175 2409 1742 
Q 1991 1309 1228 531 
z
" transform="scale(0.015625)"/>
       </defs>
       <use xlink:href="#DejaVuSans-32"/>
       <use xlink:href="#DejaVuSans-30" x="63.623047"/>
       <use xlink:href="#DejaVuSans-30" x="127.246094"/>
      </g>
     </g>
    </g>
    <g id="ytick_3">
     <g id="line2d_23">
      <path d="M 50.565625 86.561515 
L 450 86.561515 
" clip-path="url(#pcde3439677)" style="fill: none; stroke: #b0b0b0; stroke-width: 0.8; stroke-linecap: square"/>
     </g>
     <g id="line2d_24">
      <g>
       <use xlink:href="#m99e3ddfce8" x="50.565625" y="86.561515" style="stroke: #000000; stroke-width: 0.8"/>
      </g>
     </g>
     <g id="text_3">
      <!-- 400 -->
      <g transform="translate(24.478125 90.360734)scale(0.1 -0.1)">
       <defs>
        <path id="DejaVuSans-34" d="M 2419 4116 
L 825 1625 
L 2419 1625 
L 2419 4116 
z
M 2253 4666 
L 3047 4666 
L 3047 1625 
L 3713 1625 
L 3713 1100 
L 3047 1100 
L 3047 0 
L 2419 0 
L 2419 1100 
L 313 1100 
L 313 1709 
L 2253 4666 
z
" transform="scale(0.015625)"/>
       </defs>
       <use xlink:href="#DejaVuSans-34"/>
       <use xlink:href="#DejaVuSans-30" x="63.623047"/>
       <use xlink:href="#DejaVuSans-30" x="127.246094"/>
      </g>
     </g>
    </g>
    <g id="ytick_4">
     <g id="line2d_25">
      <path d="M 50.565625 54.341477 
L 450 54.341477 
" clip-path="url(#pcde3439677)" style="fill: none; stroke: #b0b0b0; stroke-width: 0.8; stroke-linecap: square"/>
     </g>
     <g id="line2d_26">
      <g>
       <use xlink:href="#m99e3ddfce8" x="50.565625" y="54.341477" style="stroke: #000000; stroke-width: 0.8"/>
      </g>
     </g>
     <g id="text_4">
      <!-- 600 -->
      <g transform="translate(24.478125 58.140695)scale(0.1 -0.1)">
       <defs>
        <path id="DejaVuSans-36" d="M 2113 2584 
Q 1688 2584 1439 2293 
Q 1191 2003 1191 1497 
Q 1191 994 1439 701 
Q 1688 409 2113 409 
Q 2538 409 2786 701 
Q 3034 994 3034 1497 
Q 3034 2003 2786 2293 
Q 2538 2584 2113 2584 
z
M 3366 4563 
L 3366 3988 
Q 3128 4100 2886 4159 
Q 2644 4219 2406 4219 
Q 1781 4219 1451 3797 
Q 1122 3375 1075 2522 
Q 1259 2794 1537 2939 
Q 1816 3084 2150 3084 
Q 2853 3084 3261 2657 
Q 3669 2231 3669 1497 
Q 3669 778 3244 343 
Q 2819 -91 2113 -91 
Q 1303 -91 875 529 
Q 447 1150 447 2328 
Q 447 3434 972 4092 
Q 1497 4750 2381 4750 
Q 2619 4750 2861 4703 
Q 3103 4656 3366 4563 
z
" transform="scale(0.015625)"/>
       </defs>
       <use xlink:href="#DejaVuSans-36"/>
       <use xlink:href="#DejaVuSans-30" x="63.623047"/>
       <use xlink:href="#DejaVuSans-30" x="127.246094"/>
      </g>
     </g>
    </g>
    <g id="text_5">
     <!-- trans. vel. [mm/s] -->
     <g transform="translate(18.398438 142.011875)rotate(-90)scale(0.1 -0.1)">
      <defs>
       <path id="DejaVuSans-74" d="M 1172 4494 
L 1172 3500 
L 2356 3500 
L 2356 3053 
L 1172 3053 
L 1172 1153 
Q 1172 725 1289 603 
Q 1406 481 1766 481 
L 2356 481 
L 2356 0 
L 1766 0 
Q 1100 0 847 248 
Q 594 497 594 1153 
L 594 3053 
L 172 3053 
L 172 3500 
L 594 3500 
L 594 4494 
L 1172 4494 
z
" transform="scale(0.015625)"/>
       <path id="DejaVuSans-72" d="M 2631 2963 
Q 2534 3019 2420 3045 
Q 2306 3072 2169 3072 
Q 1681 3072 1420 2755 
Q 1159 2438 1159 1844 
L 1159 0 
L 581 0 
L 581 3500 
L 1159 3500 
L 1159 2956 
Q 1341 3275 1631 3429 
Q 1922 3584 2338 3584 
Q 2397 3584 2469 3576 
Q 2541 3569 2628 3553 
L 2631 2963 
z
" transform="scale(0.015625)"/>
       <path id="DejaVuSans-61" d="M 2194 1759 
Q 1497 1759 1228 1600 
Q 959 1441 959 1056 
Q 959 750 1161 570 
Q 1363 391 1709 391 
Q 2188 391 2477 730 
Q 2766 1069 2766 1631 
L 2766 1759 
L 2194 1759 
z
M 3341 1997 
L 3341 0 
L 2766 0 
L 2766 531 
Q 2569 213 2275 61 
Q 1981 -91 1556 -91 
Q 1019 -91 701 211 
Q 384 513 384 1019 
Q 384 1609 779 1909 
Q 1175 2209 1959 2209 
L 2766 2209 
L 2766 2266 
Q 2766 2663 2505 2880 
Q 2244 3097 1772 3097 
Q 1472 3097 1187 3025 
Q 903 2953 641 2809 
L 641 3341 
Q 956 3463 1253 3523 
Q 1550 3584 1831 3584 
Q 2591 3584 2966 3190 
Q 3341 2797 3341 1997 
z
" transform="scale(0.015625)"/>
       <path id="DejaVuSans-6e" d="M 3513 2113 
L 3513 0 
L 2938 0 
L 2938 2094 
Q 2938 2591 2744 2837 
Q 2550 3084 2163 3084 
Q 1697 3084 1428 2787 
Q 1159 2491 1159 1978 
L 1159 0 
L 581 0 
L 581 3500 
L 1159 3500 
L 1159 2956 
Q 1366 3272 1645 3428 
Q 1925 3584 2291 3584 
Q 2894 3584 3203 3211 
Q 3513 2838 3513 2113 
z
" transform="scale(0.015625)"/>
       <path id="DejaVuSans-73" d="M 2834 3397 
L 2834 2853 
Q 2591 2978 2328 3040 
Q 2066 3103 1784 3103 
Q 1356 3103 1142 2972 
Q 928 2841 928 2578 
Q 928 2378 1081 2264 
Q 1234 2150 1697 2047 
L 1894 2003 
Q 2506 1872 2764 1633 
Q 3022 1394 3022 966 
Q 3022 478 2636 193 
Q 2250 -91 1575 -91 
Q 1294 -91 989 -36 
Q 684 19 347 128 
L 347 722 
Q 666 556 975 473 
Q 1284 391 1588 391 
Q 1994 391 2212 530 
Q 2431 669 2431 922 
Q 2431 1156 2273 1281 
Q 2116 1406 1581 1522 
L 1381 1569 
Q 847 1681 609 1914 
Q 372 2147 372 2553 
Q 372 3047 722 3315 
Q 1072 3584 1716 3584 
Q 2034 3584 2315 3537 
Q 2597 3491 2834 3397 
z
" transform="scale(0.015625)"/>
       <path id="DejaVuSans-2e" d="M 684 794 
L 1344 794 
L 1344 0 
L 684 0 
L 684 794 
z
" transform="scale(0.015625)"/>
       <path id="DejaVuSans-20" transform="scale(0.015625)"/>
       <path id="DejaVuSans-76" d="M 191 3500 
L 800 3500 
L 1894 563 
L 2988 3500 
L 3597 3500 
L 2284 0 
L 1503 0 
L 191 3500 
z
" transform="scale(0.015625)"/>
       <path id="DejaVuSans-65" d="M 3597 1894 
L 3597 1613 
L 953 1613 
Q 991 1019 1311 708 
Q 1631 397 2203 397 
Q 2534 397 2845 478 
Q 3156 559 3463 722 
L 3463 178 
Q 3153 47 2828 -22 
Q 2503 -91 2169 -91 
Q 1331 -91 842 396 
Q 353 884 353 1716 
Q 353 2575 817 3079 
Q 1281 3584 2069 3584 
Q 2775 3584 3186 3129 
Q 3597 2675 3597 1894 
z
M 3022 2063 
Q 3016 2534 2758 2815 
Q 2500 3097 2075 3097 
Q 1594 3097 1305 2825 
Q 1016 2553 972 2059 
L 3022 2063 
z
" transform="scale(0.015625)"/>
       <path id="DejaVuSans-6c" d="M 603 4863 
L 1178 4863 
L 1178 0 
L 603 0 
L 603 4863 
z
" transform="scale(0.015625)"/>
       <path id="DejaVuSans-5b" d="M 550 4863 
L 1875 4863 
L 1875 4416 
L 1125 4416 
L 1125 -397 
L 1875 -397 
L 1875 -844 
L 550 -844 
L 550 4863 
z
" transform="scale(0.015625)"/>
       <path id="DejaVuSans-6d" d="M 3328 2828 
Q 3544 3216 3844 3400 
Q 4144 3584 4550 3584 
Q 5097 3584 5394 3201 
Q 5691 2819 5691 2113 
L 5691 0 
L 5113 0 
L 5113 2094 
Q 5113 2597 4934 2840 
Q 4756 3084 4391 3084 
Q 3944 3084 3684 2787 
Q 3425 2491 3425 1978 
L 3425 0 
L 2847 0 
L 2847 2094 
Q 2847 2600 2669 2842 
Q 2491 3084 2119 3084 
Q 1678 3084 1418 2786 
Q 1159 2488 1159 1978 
L 1159 0 
L 581 0 
L 581 3500 
L 1159 3500 
L 1159 2956 
Q 1356 3278 1631 3431 
Q 1906 3584 2284 3584 
Q 2666 3584 2933 3390 
Q 3200 3197 3328 2828 
z
" transform="scale(0.015625)"/>
       <path id="DejaVuSans-2f" d="M 1625 4666 
L 2156 4666 
L 531 -594 
L 0 -594 
L 1625 4666 
z
" transform="scale(0.015625)"/>
       <path id="DejaVuSans-5d" d="M 1947 4863 
L 1947 -844 
L 622 -844 
L 622 -397 
L 1369 -397 
L 1369 4416 
L 622 4416 
L 622 4863 
L 1947 4863 
z
" transform="scale(0.015625)"/>
      </defs>
      <use xlink:href="#DejaVuSans-74"/>
      <use xlink:href="#DejaVuSans-72" x="39.208984"/>
      <use xlink:href="#DejaVuSans-61" x="80.322266"/>
      <use xlink:href="#DejaVuSans-6e" x="141.601562"/>
      <use xlink:href="#DejaVuSans-73" x="204.980469"/>
      <use xlink:href="#DejaVuSans-2e" x="257.080078"/>
      <use xlink:href="#DejaVuSans-20" x="288.867188"/>
      <use xlink:href="#DejaVuSans-76" x="320.654297"/>
      <use xlink:href="#DejaVuSans-65" x="379.833984"/>
      <use xlink:href="#DejaVuSans-6c" x="441.357422"/>
      <use xlink:href="#DejaVuSans-2e" x="469.140625"/>
      <use xlink:href="#DejaVuSans-20" x="500.927734"/>
      <use xlink:href="#DejaVuSans-5b" x="532.714844"/>
      <use xlink:href="#DejaVuSans-6d" x="571.728516"/>
      <use xlink:href="#DejaVuSans-6d" x="669.140625"/>
      <use xlink:href="#DejaVuSans-2f" x="766.552734"/>
      <use xlink:href="#DejaVuSans-73" x="800.244141"/>
      <use xlink:href="#DejaVuSans-5d" x="852.34375"/>
     </g>
    </g>
   </g>
   <g id="line2d_27">
    <path d="M 68.721733 151.001593 
L 69.625022 150.924265 
L 70.528311 150.692281 
L 71.883244 150.054324 
L 73.238178 149.068391 
L 74.593111 147.734481 
L 75.948045 146.052595 
L 77.302978 144.022733 
L 78.657911 141.644894 
L 80.464489 137.933145 
L 82.271067 133.602772 
L 84.077645 128.656996 
L 86.335868 121.649138 
L 100.788491 75.606702 
L 102.595069 70.789806 
L 104.401647 66.585091 
L 106.208225 63.008667 
L 107.563158 60.721044 
L 108.918091 58.787842 
L 110.273025 57.20906 
L 111.627958 55.968589 
L 112.982892 55.082537 
L 113.886181 54.679787 
L 114.78947 54.438137 
L 116.144403 54.341477 
L 340.611708 54.422027 
L 341.966641 54.824777 
L 342.86993 55.291968 
L 344.224864 56.274679 
L 345.579797 57.611811 
L 346.93473 59.287253 
L 348.289664 61.317115 
L 349.644597 63.701398 
L 351.451175 67.406702 
L 353.257753 71.740298 
L 355.064331 76.686074 
L 357.322553 83.693932 
L 371.775177 129.736367 
L 373.581755 134.553263 
L 375.388332 138.753145 
L 377.19491 142.336014 
L 378.549844 144.617192 
L 379.904777 146.552006 
L 381.259711 148.137232 
L 382.614644 149.374481 
L 383.969578 150.265204 
L 385.324511 150.807145 
L 386.2278 150.975028 
L 388.486022 151.001593 
L 431.843892 151.001593 
L 431.843892 151.001593 
" clip-path="url(#pcde3439677)" style="fill: none; stroke: #1f77b4; stroke-width: 2; stroke-linecap: square"/>
   </g>
   <g id="line2d_28">
    <path d="M 68.721733 151.001593 
L 74.593111 150.850723 
L 75.044756 150.746249 
L 75.948045 149.092556 
L 76.851334 146.909648 
L 77.302978 145.94788 
L 77.754622 145.416249 
L 78.206267 144.406151 
L 78.657911 143.766583 
L 79.109556 142.545444 
L 79.5612 141.793106 
L 80.012845 140.117664 
L 80.464489 138.983519 
L 80.916134 138.32623 
L 81.367778 136.307644 
L 81.819423 135.445758 
L 82.271067 133.232242 
L 82.722712 132.2012 
L 83.174356 129.333617 
L 83.626001 128.463676 
L 84.077645 125.515542 
L 84.52929 124.919472 
L 84.980934 121.149727 
L 85.432579 120.054246 
L 85.884223 115.28568 
L 86.335868 113.578018 
L 86.787512 107.681751 
L 87.239156 106.489609 
L 87.690801 100.947763 
L 88.142445 100.593342 
L 88.59409 96.243637 
L 89.045734 96.018097 
L 89.497379 90.879001 
L 89.949023 90.879001 
L 90.400668 84.805523 
L 90.852312 85.933225 
L 91.303957 81.390199 
L 91.755601 83.774482 
L 92.207246 81.035779 
L 92.65889 83.565052 
L 93.110535 82.679001 
L 93.562179 86.690396 
L 94.013824 86.609845 
L 94.465468 90.46014 
L 94.917113 87.979197 
L 95.368757 90.21849 
L 95.820402 88.655818 
L 96.272046 92.763873 
L 96.72369 91.636172 
L 97.175335 95.083716 
L 97.626979 93.553264 
L 98.078624 96.050317 
L 98.530268 94.423205 
L 98.981913 96.823598 
L 99.433557 93.247173 
L 99.885202 94.954835 
L 100.336846 92.490003 
L 100.788491 92.941083 
L 101.240135 88.188627 
L 101.69178 87.914757 
L 102.143424 80.906899 
L 102.595069 80.874679 
L 103.046713 75.542262 
L 103.498358 76.637743 
L 103.950002 72.497468 
L 104.401647 74.559551 
L 104.853291 72.062498 
L 105.304936 73.335189 
L 105.75658 76.847174 
L 106.208225 75.107292 
L 106.659869 78.619276 
L 107.111513 77.249924 
L 107.563158 79.843637 
L 108.014802 74.01181 
L 108.466447 74.17291 
L 108.918091 69.984305 
L 109.369736 72.755229 
L 109.82138 67.374482 
L 110.273025 71.289217 
L 110.724669 70.000415 
L 111.176314 73.73794 
L 111.627958 72.368588 
L 112.079603 74.10847 
L 112.531247 66.858962 
L 112.982892 67.326152 
L 113.434536 61.542655 
L 113.886181 63.926938 
L 114.337825 58.433422 
L 114.78947 60.479394 
L 115.241114 57.06407 
L 115.692759 62.203166 
L 116.144403 60.576054 
L 116.596047 64.071928 
L 117.047692 61.429885 
L 117.950981 60.189414 
L 118.402625 60.721044 
L 118.85427 57.33794 
L 119.305914 60.173304 
L 119.757559 53.020455 
L 120.209203 56.77409 
L 120.660848 53.229885 
L 121.112492 56.88686 
L 121.564137 52.537154 
L 122.015781 56.242459 
L 122.467426 51.796094 
L 122.91907 55.034207 
L 123.370715 48.235779 
L 123.822359 51.844424 
L 124.274004 47.059748 
L 124.725648 49.589021 
L 125.177293 40.68018 
L 125.628937 44.079394 
L 126.080581 42.097862 
L 126.532226 46.818098 
L 126.98387 44.933225 
L 127.435515 50.620062 
L 127.887159 46.979198 
L 128.338804 48.96073 
L 128.790448 46.141477 
L 129.242093 44.884895 
L 129.693737 40.47075 
L 130.145382 42.758373 
L 130.597026 39.053068 
L 131.048671 44.562695 
L 131.500315 40.51908 
L 131.95196 44.659355 
L 132.403604 40.100219 
L 132.855249 46.882538 
L 133.306893 44.578805 
L 133.758538 50.056211 
L 134.210182 45.835386 
L 134.661827 50.346192 
L 135.113471 47.059748 
L 135.565115 52.408274 
L 136.01676 49.02517 
L 136.468404 51.892754 
L 136.920049 48.52576 
L 137.371693 53.342655 
L 137.823338 50.072321 
L 138.274982 55.533618 
L 138.726627 49.524581 
L 139.178271 53.149335 
L 139.629916 49.26682 
L 140.08156 51.892754 
L 140.533205 56.178019 
L 140.984849 52.053854 
L 141.436494 54.712007 
L 141.888138 51.473893 
L 142.339783 57.12851 
L 142.791427 53.729296 
L 143.243072 57.06407 
L 143.694716 51.328903 
L 144.146361 54.470357 
L 144.598005 50.652282 
L 145.049649 55.324188 
L 145.501294 52.424384 
L 145.952938 56.87075 
L 146.404583 52.875465 
L 146.856227 57.644031 
L 147.307872 55.420848 
L 147.759516 59.528903 
L 148.211161 53.680966 
L 148.662805 57.22517 
L 149.11445 52.649925 
L 149.566094 55.823598 
L 150.017739 53.439316 
L 150.469383 57.772911 
L 150.921028 53.616526 
L 151.372672 56.065249 
L 151.824317 51.441673 
L 152.275961 55.710828 
L 152.727606 50.378412 
L 153.17925 53.890396 
L 153.630895 50.249532 
L 154.082539 55.485288 
L 154.534183 53.374875 
L 154.985828 58.562302 
L 155.437472 55.372518 
L 155.889117 59.770553 
L 156.340761 55.614168 
L 156.792406 60.946585 
L 157.24405 58.352871 
L 157.695695 61.864856 
L 158.147339 57.06407 
L 158.598984 60.124974 
L 159.050628 55.823598 
L 159.502273 59.335583 
L 159.953917 56.709649 
L 160.405562 57.03185 
L 160.857206 59.979983 
L 161.308851 53.342655 
L 161.760495 55.871928 
L 162.21214 54.728117 
L 162.663784 59.754443 
L 163.115429 55.630278 
L 163.567073 57.772911 
L 164.018717 53.020455 
L 164.470362 57.19295 
L 164.922006 54.840887 
L 165.373651 58.336761 
L 165.825295 54.083716 
L 166.27694 57.692361 
L 166.728584 53.858176 
L 167.180229 60.624384 
L 167.631873 55.710828 
L 168.083518 60.366624 
L 168.535162 55.855818 
L 168.986807 58.916722 
L 169.438451 54.873107 
L 169.890096 58.578412 
L 170.34174 54.534797 
L 170.793385 56.645209 
L 171.245029 51.490003 
L 171.696674 55.227528 
L 172.148318 52.150514 
L 172.599963 54.712007 
L 173.051607 48.89629 
L 173.503251 51.747763 
L 173.954896 48.7513 
L 174.40654 52.988235 
L 174.858185 49.524581 
L 175.309829 53.358765 
L 175.761474 46.721437 
L 176.213118 52.279394 
L 176.664763 49.379591 
L 177.116407 54.260926 
L 177.568052 49.653461 
L 178.019696 52.939905 
L 178.471341 50.458962 
L 178.922985 51.586663 
L 179.37463 51.167803 
L 179.826274 55.469178 
L 180.277919 49.862891 
L 180.729563 53.471536 
L 181.181208 48.60631 
L 181.632852 52.698255 
L 182.084497 47.462498 
L 182.536141 51.473893 
L 182.987786 47.172518 
L 183.43943 52.875465 
L 183.891074 50.877822 
L 184.342719 54.196486 
L 184.794363 53.117115 
L 185.246008 51.361123 
L 185.697652 55.114758 
L 186.149297 54.051496 
L 186.600941 59.222812 
L 187.052586 56.596879 
L 187.50423 55.904148 
L 187.955875 57.33794 
L 188.407519 53.229885 
L 188.859164 56.693539 
L 189.310808 52.086074 
L 189.762453 56.725759 
L 190.214097 51.892754 
L 190.665742 55.549728 
L 191.117386 49.2346 
L 191.569031 55.082537 
L 192.020675 52.069964 
L 192.47232 55.549728 
L 192.923964 51.522223 
L 193.375608 55.888038 
L 193.827253 53.809846 
L 194.278897 57.627921 
L 194.730542 54.309257 
L 195.633831 56.564659 
L 196.085475 60.527724 
L 196.53712 57.53126 
L 196.988764 61.059355 
L 197.440409 55.646388 
L 197.892053 59.174482 
L 198.343698 55.743048 
L 198.795342 59.416133 
L 199.246987 55.388628 
L 199.698631 59.754443 
L 200.150276 55.694718 
L 200.60192 58.771732 
L 201.053565 52.585484 
L 201.505209 54.760337 
L 201.956854 50.136762 
L 202.408498 54.051496 
L 202.860142 53.052675 
L 203.311787 57.37016 
L 203.763431 53.471536 
L 204.215076 56.75798 
L 204.66672 54.148156 
L 205.118365 59.158372 
L 205.570009 54.293147 
L 206.021654 56.564659 
L 206.473298 51.715543 
L 206.924943 55.001987 
L 207.376587 50.507292 
L 207.828232 55.710828 
L 208.279876 53.310435 
L 208.731521 57.627921 
L 209.183165 51.006703 
L 209.63481 54.180376 
L 210.086454 49.814561 
L 210.538099 54.405917 
L 210.989743 48.76741 
L 211.441388 52.231064 
L 211.893032 47.816919 
L 212.344676 52.972125 
L 212.796321 50.023991 
L 213.247965 54.776447 
L 213.69961 51.667213 
L 214.151254 54.744227 
L 214.602899 51.151693 
L 215.054543 55.404738 
L 215.506188 52.907685 
L 215.957832 56.77409 
L 216.409477 52.601594 
L 216.861121 56.661319 
L 217.312766 53.906506 
L 217.76441 56.500219 
L 218.216055 53.809846 
L 218.667699 57.772911 
L 219.119344 52.134404 
L 219.570988 55.888038 
L 220.022633 51.634993 
L 220.474277 55.501398 
L 220.925922 50.458962 
L 221.377566 55.308078 
L 221.82921 52.569374 
L 222.280855 58.272321 
L 222.732499 54.663677 
L 223.184144 58.965052 
L 223.635788 55.920258 
L 224.087433 59.545013 
L 224.539077 56.097469 
L 224.990722 59.367803 
L 225.442366 55.195308 
L 225.894011 53.825956 
L 226.345655 57.56348 
L 226.7973 52.359944 
L 227.248944 56.693539 
L 227.700589 51.973304 
L 228.152233 56.387449 
L 228.603878 52.907685 
L 229.055522 55.936369 
L 229.507167 52.069964 
L 229.958811 55.356408 
L 230.410456 50.958373 
L 230.8621 54.470357 
L 231.313744 50.442852 
L 231.765389 51.683323 
L 232.217033 55.936369 
L 232.668678 53.648746 
L 233.120322 56.9513 
L 233.571967 52.521044 
L 234.023611 56.355229 
L 234.475256 53.149335 
L 234.9269 57.41849 
L 235.378545 53.229885 
L 235.830189 55.662498 
L 236.281834 51.522223 
L 236.733478 56.145799 
L 237.185123 52.601594 
L 237.636767 56.596879 
L 238.088412 52.472714 
L 238.540056 55.839708 
L 238.991701 49.927331 
L 239.443345 54.148156 
L 239.89499 49.363481 
L 240.346634 53.374875 
L 240.798278 48.074679 
L 241.249923 53.004345 
L 241.701567 50.958373 
L 242.153212 56.564659 
L 242.604856 52.134404 
L 243.056501 56.548549 
L 243.508145 52.311614 
L 243.95979 56.274679 
L 244.411434 53.455426 
L 244.863079 57.08018 
L 245.314723 53.777626 
L 245.766368 51.779984 
L 246.218012 52.746585 
L 246.669657 57.772911 
L 247.121301 54.438137 
L 247.572946 59.174482 
L 248.02459 54.712007 
L 248.476235 57.49904 
L 248.927879 51.506113 
L 249.379524 54.712007 
L 249.831168 50.201202 
L 250.282813 54.518687 
L 250.734457 50.716722 
L 251.186101 56.645209 
L 251.637746 55.372518 
L 252.08939 57.12851 
L 252.541035 56.323009 
L 252.992679 59.625563 
L 253.444324 55.581948 
L 253.895968 60.302184 
L 254.347613 57.901791 
L 254.799257 61.639315 
L 255.250902 55.678608 
L 255.702546 57.57959 
L 256.154191 53.229885 
L 256.605835 56.467999 
L 257.05748 52.214954 
L 257.509124 57.01574 
L 257.960769 52.811025 
L 258.412413 56.645209 
L 258.864058 52.456604 
L 259.315702 55.952479 
L 259.767347 49.524581 
L 260.218991 53.890396 
L 260.670635 51.618883 
L 261.12228 57.17684 
L 261.573924 54.132046 
L 262.025569 57.917901 
L 262.477213 53.036565 
L 262.928858 57.41849 
L 263.380502 55.195308 
L 263.832147 55.952479 
L 264.283791 51.812204 
L 264.735436 54.567017 
L 265.18708 49.605131 
L 265.638725 53.680966 
L 266.090369 51.006703 
L 266.542014 54.953657 
L 266.993658 50.523402 
L 267.445303 53.697076 
L 267.896947 49.427921 
L 268.348592 53.648746 
L 268.800236 49.444031 
L 269.251881 53.358765 
L 269.703525 48.84796 
L 270.155169 48.332439 
L 270.606814 52.086074 
L 271.058458 50.201202 
L 271.510103 54.132046 
L 271.961747 50.700612 
L 272.413392 55.791378 
L 272.865036 53.600416 
L 273.316681 57.660141 
L 273.768325 52.311614 
L 274.21997 55.952479 
L 274.671614 51.570553 
L 275.123259 54.454247 
L 275.574903 51.280573 
L 276.026548 52.617705 
L 276.478192 57.48293 
L 276.929837 52.698255 
L 277.381481 56.596879 
L 277.833126 52.585484 
L 278.28477 55.581948 
L 278.736415 49.862891 
L 279.188059 54.647567 
L 279.639703 51.747763 
L 280.091348 57.03185 
L 280.542992 54.518687 
L 280.994637 59.271143 
L 281.446281 57.16073 
L 281.897926 58.062891 
L 282.34957 61.284895 
L 282.801215 58.320651 
L 283.252859 60.849924 
L 283.704504 55.275858 
L 284.156148 59.238922 
L 284.607793 55.050317 
L 285.059437 58.691182 
L 285.511082 53.213775 
L 285.962726 56.661319 
L 286.414371 52.553264 
L 286.866015 52.972125 
L 287.31766 52.408274 
L 287.769304 52.504934 
L 288.220949 54.244816 
L 288.672593 51.280573 
L 289.124237 55.694718 
L 289.575882 53.165445 
L 290.027526 57.853461 
L 290.479171 54.309257 
L 290.930815 59.818883 
L 291.38246 56.339119 
L 291.834104 59.351693 
L 292.285749 56.596879 
L 292.737393 55.308078 
L 293.189038 53.471536 
L 293.640682 57.03185 
L 294.092327 52.682145 
L 294.543971 56.419669 
L 294.995616 51.844424 
L 295.44726 55.678608 
L 295.898905 51.828314 
L 296.350549 55.179198 
L 296.802194 50.297862 
L 297.253838 54.196486 
L 297.705483 50.652282 
L 298.157127 50.716722 
L 298.608771 53.342655 
L 299.060416 49.347371 
L 299.51206 52.956015 
L 299.963705 49.717901 
L 300.415349 54.228706 
L 300.866994 51.715543 
L 301.318638 56.77409 
L 301.770283 53.439316 
L 302.221927 57.756801 
L 302.673572 53.825956 
L 303.125216 57.54737 
L 303.576861 52.714365 
L 304.028505 53.455426 
L 304.48015 57.2735 
L 304.931794 53.068785 
L 305.383439 57.38627 
L 305.835083 53.729296 
L 306.286728 56.451889 
L 306.738372 51.377233 
L 307.190017 55.614168 
L 307.641661 49.927331 
L 308.093305 53.455426 
L 308.54495 49.05739 
L 308.996594 54.164266 
L 309.448239 51.908864 
L 309.899883 56.242459 
L 310.351528 53.407095 
L 310.803172 58.707292 
L 311.254817 55.984699 
L 311.706461 59.561123 
L 312.158106 55.678608 
L 312.60975 59.061712 
L 313.061395 54.679787 
L 313.513039 53.697076 
L 313.964684 54.035386 
L 314.416328 58.046781 
L 314.867973 52.746585 
L 315.319617 56.500219 
L 315.771262 52.295504 
L 316.222906 55.404738 
L 316.674551 50.249532 
L 317.126195 54.132046 
L 317.577839 47.816919 
L 318.029484 48.187449 
L 318.481128 49.10572 
L 318.932773 52.875465 
L 319.384417 51.393343 
L 319.836062 57.19295 
L 320.287706 54.808667 
L 320.739351 59.512793 
L 321.190995 55.807488 
L 321.64264 58.723402 
L 322.094284 53.648746 
L 322.545929 56.96741 
L 322.997573 52.295504 
L 323.449218 51.602773 
L 323.900862 52.698255 
L 324.352507 56.290789 
L 324.804151 51.119473 
L 325.255796 54.728117 
L 325.70744 49.508471 
L 326.159085 53.890396 
L 326.610729 49.395701 
L 327.062374 52.649925 
L 327.514018 49.05739 
L 327.965662 53.004345 
L 328.417307 50.265642 
L 328.868951 53.101005 
L 329.320596 50.281752 
L 329.77224 55.453068 
L 330.223885 52.746585 
L 330.675529 57.28961 
L 331.127174 54.051496 
L 331.578818 57.28961 
L 332.030463 54.599237 
L 332.482107 58.626742 
L 332.933752 54.631457 
L 333.385396 58.707292 
L 333.837041 55.259748 
L 334.288685 59.512793 
L 334.74033 53.390985 
L 335.191974 56.580769 
L 335.643619 52.730475 
L 336.095263 56.661319 
L 336.546908 51.232243 
L 336.998552 54.389807 
L 337.450196 50.636172 
L 338.80513 57.869571 
L 339.256774 55.726938 
L 339.708419 60.882144 
L 340.160063 57.37016 
L 340.611708 61.880966 
L 341.063352 58.610632 
L 341.514997 60.994915 
L 341.966641 57.692361 
L 342.418286 61.284895 
L 342.86993 56.91908 
L 343.321575 59.996093 
L 343.773219 55.372518 
L 344.224864 58.916722 
L 344.676508 53.197665 
L 345.128153 57.25739 
L 345.579797 53.390985 
L 346.031442 58.385091 
L 346.483086 55.920258 
L 346.93473 58.916722 
L 347.386375 57.28961 
L 347.838019 61.478215 
L 348.289664 58.095111 
L 348.741308 62.976447 
L 349.192953 61.413775 
L 349.644597 66.697861 
L 350.096242 63.910828 
L 350.547886 67.970553 
L 350.999531 65.038529 
L 351.451175 68.647174 
L 351.90282 66.375661 
L 352.354464 70.693146 
L 352.806109 68.969374 
L 353.257753 74.382341 
L 353.709398 74.623991 
L 354.161042 79.473107 
L 354.612687 80.101398 
L 355.064331 85.047174 
L 355.515976 84.934403 
L 355.96762 88.478608 
L 356.419264 86.255425 
L 356.870909 90.25071 
L 357.322553 87.415346 
L 357.774198 90.2346 
L 358.225842 88.365838 
L 358.677487 92.280572 
L 359.129131 91.023991 
L 359.580776 95.357586 
L 360.03242 95.534796 
L 360.484065 99.352871 
L 360.935709 98.257389 
L 361.387354 100.464462 
L 361.838998 99.417311 
L 362.290643 102.526545 
L 362.742287 101.704934 
L 363.193932 106.135189 
L 363.645576 107.794521 
L 364.097221 111.741476 
L 364.548865 113.948548 
L 365.00051 116.816132 
L 365.452154 121.343047 
L 366.807087 127.545405 
L 367.258732 126.852674 
L 367.710376 127.625955 
L 368.162021 125.386662 
L 368.613665 126.047173 
L 369.06531 124.065641 
L 369.516954 123.45346 
L 369.968599 124.597271 
L 370.420243 122.728509 
L 370.871888 122.325758 
L 371.323532 122.905719 
L 371.775177 120.376446 
L 372.226821 120.859747 
L 372.678466 122.841279 
L 373.13011 123.26014 
L 373.581755 125.579982 
L 374.033399 126.159943 
L 374.485044 127.287644 
L 374.936688 129.381947 
L 375.388332 129.688037 
L 375.839977 131.58902 
L 376.291621 131.70179 
L 376.743266 133.232242 
L 377.19491 133.361122 
L 377.646555 134.521043 
L 378.098199 134.859354 
L 378.549844 135.624579 
L 379.001488 136.773224 
L 379.453133 136.674953 
L 379.904777 137.791377 
L 380.356422 137.702772 
L 380.808066 138.778921 
L 381.259711 138.463165 
L 381.711355 139.379825 
L 382.163 139.410434 
L 382.614644 140.310984 
L 383.066289 140.425365 
L 383.517933 140.668627 
L 383.969578 141.422575 
L 384.421222 140.994049 
L 384.872866 141.620729 
L 385.324511 141.367801 
L 385.776155 141.818882 
L 386.2278 140.908666 
L 386.679444 141.480572 
L 387.131089 141.20509 
L 388.034378 141.180925 
L 388.486022 141.826937 
L 388.937667 141.644894 
L 389.389311 141.720611 
L 389.840956 142.368234 
L 390.2926 142.516446 
L 390.744245 143.486269 
L 391.195889 143.642536 
L 391.647534 144.617192 
L 392.099178 145.258371 
L 393.905756 148.734913 
L 394.809045 149.802041 
L 395.260689 150.493322 
L 396.163978 151.40386 
L 398.873845 153.352045 
L 399.32549 153.595306 
L 399.777134 154.073774 
L 401.583712 155.380296 
L 402.487001 155.530119 
L 402.938646 155.839432 
L 403.39029 155.609059 
L 403.841935 155.818489 
L 406.551801 155.660611 
L 407.45509 155.534952 
L 407.906735 155.78788 
L 408.358379 155.514009 
L 408.810024 155.543007 
L 409.261668 155.12898 
L 409.713313 155.217585 
L 410.164957 154.908273 
L 410.616602 154.937271 
L 411.068246 154.526465 
L 411.519891 154.515188 
L 411.971535 154.22843 
L 412.42318 154.165601 
L 412.874824 153.903007 
L 413.326469 153.933617 
L 413.778113 153.643636 
L 414.229757 153.688744 
L 415.584691 153.016956 
L 416.036335 152.912241 
L 417.391269 152.274285 
L 417.842913 152.240776 
L 418.746202 151.900049 
L 421.456069 150.814556 
L 421.907714 150.776697 
L 422.811003 150.514265 
L 424.61758 150.413577 
L 426.424158 150.537302 
L 427.779092 150.505404 
L 428.682381 150.566139 
L 431.392248 150.654583 
L 431.843892 150.665055 
L 431.843892 150.665055 
" clip-path="url(#pcde3439677)" style="fill: none; stroke: #ff7f0e; stroke-width: 2; stroke-linecap: square"/>
   </g>
   <g id="patch_3">
    <path d="M 50.565625 161.67875 
L 50.565625 33.21375 
" style="fill: none; stroke: #000000; stroke-width: 0.8; stroke-linejoin: miter; stroke-linecap: square"/>
   </g>
   <g id="patch_4">
    <path d="M 450 161.67875 
L 450 33.21375 
" style="fill: none; stroke: #000000; stroke-width: 0.8; stroke-linejoin: miter; stroke-linecap: square"/>
   </g>
   <g id="patch_5">
    <path d="M 50.565625 161.67875 
L 450 161.67875 
" style="fill: none; stroke: #000000; stroke-width: 0.8; stroke-linejoin: miter; stroke-linecap: square"/>
   </g>
   <g id="patch_6">
    <path d="M 50.565625 33.21375 
L 450 33.21375 
" style="fill: none; stroke: #000000; stroke-width: 0.8; stroke-linejoin: miter; stroke-linecap: square"/>
   </g>
   <g id="legend_1">
    <g id="patch_7">
     <path d="M 360.482812 70.57 
L 443 70.57 
Q 445 70.57 445 68.57 
L 445 40.21375 
Q 445 38.21375 443 38.21375 
L 360.482812 38.21375 
Q 358.482812 38.21375 358.482812 40.21375 
L 358.482812 68.57 
Q 358.482812 70.57 360.482812 70.57 
z
" style="fill: #ffffff; opacity: 0.8; stroke: #cccccc; stroke-linejoin: miter"/>
    </g>
    <g id="line2d_29">
     <path d="M 362.482812 46.312187 
L 372.482812 46.312187 
L 382.482812 46.312187 
" style="fill: none; stroke: #1f77b4; stroke-width: 2; stroke-linecap: square"/>
    </g>
    <g id="text_6">
     <!-- Reference -->
     <g transform="translate(390.482812 49.812187)scale(0.1 -0.1)">
      <defs>
       <path id="DejaVuSans-52" d="M 2841 2188 
Q 3044 2119 3236 1894 
Q 3428 1669 3622 1275 
L 4263 0 
L 3584 0 
L 2988 1197 
Q 2756 1666 2539 1819 
Q 2322 1972 1947 1972 
L 1259 1972 
L 1259 0 
L 628 0 
L 628 4666 
L 2053 4666 
Q 2853 4666 3247 4331 
Q 3641 3997 3641 3322 
Q 3641 2881 3436 2590 
Q 3231 2300 2841 2188 
z
M 1259 4147 
L 1259 2491 
L 2053 2491 
Q 2509 2491 2742 2702 
Q 2975 2913 2975 3322 
Q 2975 3731 2742 3939 
Q 2509 4147 2053 4147 
L 1259 4147 
z
" transform="scale(0.015625)"/>
       <path id="DejaVuSans-66" d="M 2375 4863 
L 2375 4384 
L 1825 4384 
Q 1516 4384 1395 4259 
Q 1275 4134 1275 3809 
L 1275 3500 
L 2222 3500 
L 2222 3053 
L 1275 3053 
L 1275 0 
L 697 0 
L 697 3053 
L 147 3053 
L 147 3500 
L 697 3500 
L 697 3744 
Q 697 4328 969 4595 
Q 1241 4863 1831 4863 
L 2375 4863 
z
" transform="scale(0.015625)"/>
       <path id="DejaVuSans-63" d="M 3122 3366 
L 3122 2828 
Q 2878 2963 2633 3030 
Q 2388 3097 2138 3097 
Q 1578 3097 1268 2742 
Q 959 2388 959 1747 
Q 959 1106 1268 751 
Q 1578 397 2138 397 
Q 2388 397 2633 464 
Q 2878 531 3122 666 
L 3122 134 
Q 2881 22 2623 -34 
Q 2366 -91 2075 -91 
Q 1284 -91 818 406 
Q 353 903 353 1747 
Q 353 2603 823 3093 
Q 1294 3584 2113 3584 
Q 2378 3584 2631 3529 
Q 2884 3475 3122 3366 
z
" transform="scale(0.015625)"/>
      </defs>
      <use xlink:href="#DejaVuSans-52"/>
      <use xlink:href="#DejaVuSans-65" x="64.982422"/>
      <use xlink:href="#DejaVuSans-66" x="126.505859"/>
      <use xlink:href="#DejaVuSans-65" x="161.710938"/>
      <use xlink:href="#DejaVuSans-72" x="223.234375"/>
      <use xlink:href="#DejaVuSans-65" x="262.097656"/>
      <use xlink:href="#DejaVuSans-6e" x="323.621094"/>
      <use xlink:href="#DejaVuSans-63" x="387"/>
      <use xlink:href="#DejaVuSans-65" x="441.980469"/>
     </g>
    </g>
    <g id="line2d_30">
     <path d="M 362.482812 60.990312 
L 372.482812 60.990312 
L 382.482812 60.990312 
" style="fill: none; stroke: #ff7f0e; stroke-width: 2; stroke-linecap: square"/>
    </g>
    <g id="text_7">
     <!-- Estimated -->
     <g transform="translate(390.482812 64.490312)scale(0.1 -0.1)">
      <defs>
       <path id="DejaVuSans-45" d="M 628 4666 
L 3578 4666 
L 3578 4134 
L 1259 4134 
L 1259 2753 
L 3481 2753 
L 3481 2222 
L 1259 2222 
L 1259 531 
L 3634 531 
L 3634 0 
L 628 0 
L 628 4666 
z
" transform="scale(0.015625)"/>
       <path id="DejaVuSans-69" d="M 603 3500 
L 1178 3500 
L 1178 0 
L 603 0 
L 603 3500 
z
M 603 4863 
L 1178 4863 
L 1178 4134 
L 603 4134 
L 603 4863 
z
" transform="scale(0.015625)"/>
       <path id="DejaVuSans-64" d="M 2906 2969 
L 2906 4863 
L 3481 4863 
L 3481 0 
L 2906 0 
L 2906 525 
Q 2725 213 2448 61 
Q 2172 -91 1784 -91 
Q 1150 -91 751 415 
Q 353 922 353 1747 
Q 353 2572 751 3078 
Q 1150 3584 1784 3584 
Q 2172 3584 2448 3432 
Q 2725 3281 2906 2969 
z
M 947 1747 
Q 947 1113 1208 752 
Q 1469 391 1925 391 
Q 2381 391 2643 752 
Q 2906 1113 2906 1747 
Q 2906 2381 2643 2742 
Q 2381 3103 1925 3103 
Q 1469 3103 1208 2742 
Q 947 2381 947 1747 
z
" transform="scale(0.015625)"/>
      </defs>
      <use xlink:href="#DejaVuSans-45"/>
      <use xlink:href="#DejaVuSans-73" x="63.183594"/>
      <use xlink:href="#DejaVuSans-74" x="115.283203"/>
      <use xlink:href="#DejaVuSans-69" x="154.492188"/>
      <use xlink:href="#DejaVuSans-6d" x="182.275391"/>
      <use xlink:href="#DejaVuSans-61" x="279.6875"/>
      <use xlink:href="#DejaVuSans-74" x="340.966797"/>
      <use xlink:href="#DejaVuSans-65" x="380.175781"/>
      <use xlink:href="#DejaVuSans-64" x="441.699219"/>
     </g>
    </g>
   </g>
  </g>
  <g id="axes_2">
   <g id="patch_8">
    <path d="M 50.565625 304.44375 
L 450 304.44375 
L 450 175.97875 
L 50.565625 175.97875 
z
" style="fill: #ffffff"/>
   </g>
   <g id="matplotlib.axis_3">
    <g id="xtick_10">
     <g id="line2d_31">
      <path d="M 68.721733 304.44375 
L 68.721733 175.97875 
" clip-path="url(#pe96747977a)" style="fill: none; stroke: #b0b0b0; stroke-width: 0.8; stroke-linecap: square"/>
     </g>
     <g id="line2d_32">
      <g>
       <use xlink:href="#ma3e4b2b86a" x="68.721733" y="304.44375" style="stroke: #000000; stroke-width: 0.8"/>
      </g>
     </g>
     <g id="text_8">
      <!-- 0.0 -->
      <g transform="translate(60.77017 319.042187)scale(0.1 -0.1)">
       <use xlink:href="#DejaVuSans-30"/>
       <use xlink:href="#DejaVuSans-2e" x="63.623047"/>
       <use xlink:href="#DejaVuSans-30" x="95.410156"/>
      </g>
     </g>
    </g>
    <g id="xtick_11">
     <g id="line2d_33">
      <path d="M 113.886181 304.44375 
L 113.886181 175.97875 
" clip-path="url(#pe96747977a)" style="fill: none; stroke: #b0b0b0; stroke-width: 0.8; stroke-linecap: square"/>
     </g>
     <g id="line2d_34">
      <g>
       <use xlink:href="#ma3e4b2b86a" x="113.886181" y="304.44375" style="stroke: #000000; stroke-width: 0.8"/>
      </g>
     </g>
     <g id="text_9">
      <!-- 0.1 -->
      <g transform="translate(105.934618 319.042187)scale(0.1 -0.1)">
       <defs>
        <path id="DejaVuSans-31" d="M 794 531 
L 1825 531 
L 1825 4091 
L 703 3866 
L 703 4441 
L 1819 4666 
L 2450 4666 
L 2450 531 
L 3481 531 
L 3481 0 
L 794 0 
L 794 531 
z
" transform="scale(0.015625)"/>
       </defs>
       <use xlink:href="#DejaVuSans-30"/>
       <use xlink:href="#DejaVuSans-2e" x="63.623047"/>
       <use xlink:href="#DejaVuSans-31" x="95.410156"/>
      </g>
     </g>
    </g>
    <g id="xtick_12">
     <g id="line2d_35">
      <path d="M 159.050628 304.44375 
L 159.050628 175.97875 
" clip-path="url(#pe96747977a)" style="fill: none; stroke: #b0b0b0; stroke-width: 0.8; stroke-linecap: square"/>
     </g>
     <g id="line2d_36">
      <g>
       <use xlink:href="#ma3e4b2b86a" x="159.050628" y="304.44375" style="stroke: #000000; stroke-width: 0.8"/>
      </g>
     </g>
     <g id="text_10">
      <!-- 0.2 -->
      <g transform="translate(151.099066 319.042187)scale(0.1 -0.1)">
       <use xlink:href="#DejaVuSans-30"/>
       <use xlink:href="#DejaVuSans-2e" x="63.623047"/>
       <use xlink:href="#DejaVuSans-32" x="95.410156"/>
      </g>
     </g>
    </g>
    <g id="xtick_13">
     <g id="line2d_37">
      <path d="M 204.215076 304.44375 
L 204.215076 175.97875 
" clip-path="url(#pe96747977a)" style="fill: none; stroke: #b0b0b0; stroke-width: 0.8; stroke-linecap: square"/>
     </g>
     <g id="line2d_38">
      <g>
       <use xlink:href="#ma3e4b2b86a" x="204.215076" y="304.44375" style="stroke: #000000; stroke-width: 0.8"/>
      </g>
     </g>
     <g id="text_11">
      <!-- 0.3 -->
      <g transform="translate(196.263513 319.042187)scale(0.1 -0.1)">
       <defs>
        <path id="DejaVuSans-33" d="M 2597 2516 
Q 3050 2419 3304 2112 
Q 3559 1806 3559 1356 
Q 3559 666 3084 287 
Q 2609 -91 1734 -91 
Q 1441 -91 1130 -33 
Q 819 25 488 141 
L 488 750 
Q 750 597 1062 519 
Q 1375 441 1716 441 
Q 2309 441 2620 675 
Q 2931 909 2931 1356 
Q 2931 1769 2642 2001 
Q 2353 2234 1838 2234 
L 1294 2234 
L 1294 2753 
L 1863 2753 
Q 2328 2753 2575 2939 
Q 2822 3125 2822 3475 
Q 2822 3834 2567 4026 
Q 2313 4219 1838 4219 
Q 1578 4219 1281 4162 
Q 984 4106 628 3988 
L 628 4550 
Q 988 4650 1302 4700 
Q 1616 4750 1894 4750 
Q 2613 4750 3031 4423 
Q 3450 4097 3450 3541 
Q 3450 3153 3228 2886 
Q 3006 2619 2597 2516 
z
" transform="scale(0.015625)"/>
       </defs>
       <use xlink:href="#DejaVuSans-30"/>
       <use xlink:href="#DejaVuSans-2e" x="63.623047"/>
       <use xlink:href="#DejaVuSans-33" x="95.410156"/>
      </g>
     </g>
    </g>
    <g id="xtick_14">
     <g id="line2d_39">
      <path d="M 249.379524 304.44375 
L 249.379524 175.97875 
" clip-path="url(#pe96747977a)" style="fill: none; stroke: #b0b0b0; stroke-width: 0.8; stroke-linecap: square"/>
     </g>
     <g id="line2d_40">
      <g>
       <use xlink:href="#ma3e4b2b86a" x="249.379524" y="304.44375" style="stroke: #000000; stroke-width: 0.8"/>
      </g>
     </g>
     <g id="text_12">
      <!-- 0.4 -->
      <g transform="translate(241.427961 319.042187)scale(0.1 -0.1)">
       <use xlink:href="#DejaVuSans-30"/>
       <use xlink:href="#DejaVuSans-2e" x="63.623047"/>
       <use xlink:href="#DejaVuSans-34" x="95.410156"/>
      </g>
     </g>
    </g>
    <g id="xtick_15">
     <g id="line2d_41">
      <path d="M 294.543971 304.44375 
L 294.543971 175.97875 
" clip-path="url(#pe96747977a)" style="fill: none; stroke: #b0b0b0; stroke-width: 0.8; stroke-linecap: square"/>
     </g>
     <g id="line2d_42">
      <g>
       <use xlink:href="#ma3e4b2b86a" x="294.543971" y="304.44375" style="stroke: #000000; stroke-width: 0.8"/>
      </g>
     </g>
     <g id="text_13">
      <!-- 0.5 -->
      <g transform="translate(286.592409 319.042187)scale(0.1 -0.1)">
       <defs>
        <path id="DejaVuSans-35" d="M 691 4666 
L 3169 4666 
L 3169 4134 
L 1269 4134 
L 1269 2991 
Q 1406 3038 1543 3061 
Q 1681 3084 1819 3084 
Q 2600 3084 3056 2656 
Q 3513 2228 3513 1497 
Q 3513 744 3044 326 
Q 2575 -91 1722 -91 
Q 1428 -91 1123 -41 
Q 819 9 494 109 
L 494 744 
Q 775 591 1075 516 
Q 1375 441 1709 441 
Q 2250 441 2565 725 
Q 2881 1009 2881 1497 
Q 2881 1984 2565 2268 
Q 2250 2553 1709 2553 
Q 1456 2553 1204 2497 
Q 953 2441 691 2322 
L 691 4666 
z
" transform="scale(0.015625)"/>
       </defs>
       <use xlink:href="#DejaVuSans-30"/>
       <use xlink:href="#DejaVuSans-2e" x="63.623047"/>
       <use xlink:href="#DejaVuSans-35" x="95.410156"/>
      </g>
     </g>
    </g>
    <g id="xtick_16">
     <g id="line2d_43">
      <path d="M 339.708419 304.44375 
L 339.708419 175.97875 
" clip-path="url(#pe96747977a)" style="fill: none; stroke: #b0b0b0; stroke-width: 0.8; stroke-linecap: square"/>
     </g>
     <g id="line2d_44">
      <g>
       <use xlink:href="#ma3e4b2b86a" x="339.708419" y="304.44375" style="stroke: #000000; stroke-width: 0.8"/>
      </g>
     </g>
     <g id="text_14">
      <!-- 0.6 -->
      <g transform="translate(331.756856 319.042187)scale(0.1 -0.1)">
       <use xlink:href="#DejaVuSans-30"/>
       <use xlink:href="#DejaVuSans-2e" x="63.623047"/>
       <use xlink:href="#DejaVuSans-36" x="95.410156"/>
      </g>
     </g>
    </g>
    <g id="xtick_17">
     <g id="line2d_45">
      <path d="M 384.872866 304.44375 
L 384.872866 175.97875 
" clip-path="url(#pe96747977a)" style="fill: none; stroke: #b0b0b0; stroke-width: 0.8; stroke-linecap: square"/>
     </g>
     <g id="line2d_46">
      <g>
       <use xlink:href="#ma3e4b2b86a" x="384.872866" y="304.44375" style="stroke: #000000; stroke-width: 0.8"/>
      </g>
     </g>
     <g id="text_15">
      <!-- 0.7 -->
      <g transform="translate(376.921304 319.042187)scale(0.1 -0.1)">
       <defs>
        <path id="DejaVuSans-37" d="M 525 4666 
L 3525 4666 
L 3525 4397 
L 1831 0 
L 1172 0 
L 2766 4134 
L 525 4134 
L 525 4666 
z
" transform="scale(0.015625)"/>
       </defs>
       <use xlink:href="#DejaVuSans-30"/>
       <use xlink:href="#DejaVuSans-2e" x="63.623047"/>
       <use xlink:href="#DejaVuSans-37" x="95.410156"/>
      </g>
     </g>
    </g>
    <g id="xtick_18">
     <g id="line2d_47">
      <path d="M 430.037314 304.44375 
L 430.037314 175.97875 
" clip-path="url(#pe96747977a)" style="fill: none; stroke: #b0b0b0; stroke-width: 0.8; stroke-linecap: square"/>
     </g>
     <g id="line2d_48">
      <g>
       <use xlink:href="#ma3e4b2b86a" x="430.037314" y="304.44375" style="stroke: #000000; stroke-width: 0.8"/>
      </g>
     </g>
     <g id="text_16">
      <!-- 0.8 -->
      <g transform="translate(422.085752 319.042187)scale(0.1 -0.1)">
       <defs>
        <path id="DejaVuSans-38" d="M 2034 2216 
Q 1584 2216 1326 1975 
Q 1069 1734 1069 1313 
Q 1069 891 1326 650 
Q 1584 409 2034 409 
Q 2484 409 2743 651 
Q 3003 894 3003 1313 
Q 3003 1734 2745 1975 
Q 2488 2216 2034 2216 
z
M 1403 2484 
Q 997 2584 770 2862 
Q 544 3141 544 3541 
Q 544 4100 942 4425 
Q 1341 4750 2034 4750 
Q 2731 4750 3128 4425 
Q 3525 4100 3525 3541 
Q 3525 3141 3298 2862 
Q 3072 2584 2669 2484 
Q 3125 2378 3379 2068 
Q 3634 1759 3634 1313 
Q 3634 634 3220 271 
Q 2806 -91 2034 -91 
Q 1263 -91 848 271 
Q 434 634 434 1313 
Q 434 1759 690 2068 
Q 947 2378 1403 2484 
z
M 1172 3481 
Q 1172 3119 1398 2916 
Q 1625 2713 2034 2713 
Q 2441 2713 2670 2916 
Q 2900 3119 2900 3481 
Q 2900 3844 2670 4047 
Q 2441 4250 2034 4250 
Q 1625 4250 1398 4047 
Q 1172 3844 1172 3481 
z
" transform="scale(0.015625)"/>
       </defs>
       <use xlink:href="#DejaVuSans-30"/>
       <use xlink:href="#DejaVuSans-2e" x="63.623047"/>
       <use xlink:href="#DejaVuSans-38" x="95.410156"/>
      </g>
     </g>
    </g>
    <g id="text_17">
     <!-- Time [s] -->
     <g transform="translate(229.953906 332.720312)scale(0.1 -0.1)">
      <defs>
       <path id="DejaVuSans-54" d="M -19 4666 
L 3928 4666 
L 3928 4134 
L 2272 4134 
L 2272 0 
L 1638 0 
L 1638 4134 
L -19 4134 
L -19 4666 
z
" transform="scale(0.015625)"/>
      </defs>
      <use xlink:href="#DejaVuSans-54"/>
      <use xlink:href="#DejaVuSans-69" x="57.958984"/>
      <use xlink:href="#DejaVuSans-6d" x="85.742188"/>
      <use xlink:href="#DejaVuSans-65" x="183.154297"/>
      <use xlink:href="#DejaVuSans-20" x="244.677734"/>
      <use xlink:href="#DejaVuSans-5b" x="276.464844"/>
      <use xlink:href="#DejaVuSans-73" x="315.478516"/>
      <use xlink:href="#DejaVuSans-5d" x="367.578125"/>
     </g>
    </g>
   </g>
   <g id="matplotlib.axis_4">
    <g id="ytick_5">
     <g id="line2d_49">
      <path d="M 50.565625 277.755778 
L 450 277.755778 
" clip-path="url(#pe96747977a)" style="fill: none; stroke: #b0b0b0; stroke-width: 0.8; stroke-linecap: square"/>
     </g>
     <g id="line2d_50">
      <g>
       <use xlink:href="#m99e3ddfce8" x="50.565625" y="277.755778" style="stroke: #000000; stroke-width: 0.8"/>
      </g>
     </g>
     <g id="text_18">
      <!-- −1 -->
      <g transform="translate(28.823438 281.554996)scale(0.1 -0.1)">
       <defs>
        <path id="DejaVuSans-2212" d="M 678 2272 
L 4684 2272 
L 4684 1741 
L 678 1741 
L 678 2272 
z
" transform="scale(0.015625)"/>
       </defs>
       <use xlink:href="#DejaVuSans-2212"/>
       <use xlink:href="#DejaVuSans-31" x="83.789062"/>
      </g>
     </g>
    </g>
    <g id="ytick_6">
     <g id="line2d_51">
      <path d="M 50.565625 235.380464 
L 450 235.380464 
" clip-path="url(#pe96747977a)" style="fill: none; stroke: #b0b0b0; stroke-width: 0.8; stroke-linecap: square"/>
     </g>
     <g id="line2d_52">
      <g>
       <use xlink:href="#m99e3ddfce8" x="50.565625" y="235.380464" style="stroke: #000000; stroke-width: 0.8"/>
      </g>
     </g>
     <g id="text_19">
      <!-- 0 -->
      <g transform="translate(37.203125 239.179683)scale(0.1 -0.1)">
       <use xlink:href="#DejaVuSans-30"/>
      </g>
     </g>
    </g>
    <g id="ytick_7">
     <g id="line2d_53">
      <path d="M 50.565625 193.005151 
L 450 193.005151 
" clip-path="url(#pe96747977a)" style="fill: none; stroke: #b0b0b0; stroke-width: 0.8; stroke-linecap: square"/>
     </g>
     <g id="line2d_54">
      <g>
       <use xlink:href="#m99e3ddfce8" x="50.565625" y="193.005151" style="stroke: #000000; stroke-width: 0.8"/>
      </g>
     </g>
     <g id="text_20">
      <!-- 1 -->
      <g transform="translate(37.203125 196.80437)scale(0.1 -0.1)">
       <use xlink:href="#DejaVuSans-31"/>
      </g>
     </g>
    </g>
    <g id="text_21">
     <!-- rot. vel. [rad/s] -->
     <g transform="translate(22.74375 277.439375)rotate(-90)scale(0.1 -0.1)">
      <defs>
       <path id="DejaVuSans-6f" d="M 1959 3097 
Q 1497 3097 1228 2736 
Q 959 2375 959 1747 
Q 959 1119 1226 758 
Q 1494 397 1959 397 
Q 2419 397 2687 759 
Q 2956 1122 2956 1747 
Q 2956 2369 2687 2733 
Q 2419 3097 1959 3097 
z
M 1959 3584 
Q 2709 3584 3137 3096 
Q 3566 2609 3566 1747 
Q 3566 888 3137 398 
Q 2709 -91 1959 -91 
Q 1206 -91 779 398 
Q 353 888 353 1747 
Q 353 2609 779 3096 
Q 1206 3584 1959 3584 
z
" transform="scale(0.015625)"/>
      </defs>
      <use xlink:href="#DejaVuSans-72"/>
      <use xlink:href="#DejaVuSans-6f" x="38.863281"/>
      <use xlink:href="#DejaVuSans-74" x="100.044922"/>
      <use xlink:href="#DejaVuSans-2e" x="139.253906"/>
      <use xlink:href="#DejaVuSans-20" x="171.041016"/>
      <use xlink:href="#DejaVuSans-76" x="202.828125"/>
      <use xlink:href="#DejaVuSans-65" x="262.007812"/>
      <use xlink:href="#DejaVuSans-6c" x="323.53125"/>
      <use xlink:href="#DejaVuSans-2e" x="351.314453"/>
      <use xlink:href="#DejaVuSans-20" x="383.101562"/>
      <use xlink:href="#DejaVuSans-5b" x="414.888672"/>
      <use xlink:href="#DejaVuSans-72" x="453.902344"/>
      <use xlink:href="#DejaVuSans-61" x="495.015625"/>
      <use xlink:href="#DejaVuSans-64" x="556.294922"/>
      <use xlink:href="#DejaVuSans-2f" x="619.771484"/>
      <use xlink:href="#DejaVuSans-73" x="653.462891"/>
      <use xlink:href="#DejaVuSans-5d" x="705.5625"/>
     </g>
    </g>
   </g>
   <g id="line2d_55">
    <path d="M 68.721733 235.380464 
L 431.843892 235.380464 
L 431.843892 235.380464 
" clip-path="url(#pe96747977a)" style="fill: none; stroke: #1f77b4; stroke-width: 2; stroke-linecap: square"/>
   </g>
   <g id="line2d_56">
    <path d="M 68.721733 235.380464 
L 69.173377 235.387003 
L 69.625022 235.72523 
L 70.076666 235.589925 
L 70.979955 235.883035 
L 72.334889 236.288991 
L 73.238178 236.401709 
L 74.141467 236.627146 
L 74.593111 236.559345 
L 75.4964 234.101577 
L 76.399689 240.821455 
L 76.851334 242.626643 
L 77.302978 239.940048 
L 77.754622 234.620251 
L 78.206267 234.12446 
L 78.657911 232.974394 
L 79.109556 232.230283 
L 79.5612 231.71161 
L 80.012845 232.320543 
L 80.916134 235.838118 
L 81.367778 236.041095 
L 81.819423 234.12446 
L 82.271067 234.079118 
L 82.722712 238.160285 
L 83.174356 240.910443 
L 83.626001 247.834569 
L 84.077645 250.877116 
L 84.52929 256.356244 
L 84.980934 257.733442 
L 85.432579 265.51355 
L 85.884223 271.285067 
L 86.335868 284.917206 
L 87.239156 292.205759 
L 88.142445 290.553122 
L 88.59409 290.764999 
L 89.045734 294.155024 
L 89.497379 295.977162 
L 89.949023 298.604432 
L 90.400668 297.884051 
L 91.303957 292.544762 
L 92.207246 279.832168 
L 92.65889 262.602366 
L 93.110535 256.402857 
L 93.562179 245.262387 
L 94.465468 241.85965 
L 94.917113 240.054461 
L 95.368757 231.260736 
L 95.820402 227.248642 
L 96.272046 216.514975 
L 96.72369 212.387619 
L 97.175335 203.933744 
L 97.626979 203.234552 
L 98.078624 204.878714 
L 98.981913 210.404455 
L 99.433557 207.518696 
L 99.885202 202.759948 
L 100.336846 204.04392 
L 100.788491 211.552826 
L 101.240135 222.489894 
L 101.69178 236.604687 
L 102.143424 231.666692 
L 102.595069 220.731318 
L 103.046713 220.684706 
L 103.498358 230.380177 
L 103.950002 235.635055 
L 104.401647 242.28764 
L 104.853291 237.078019 
L 105.304936 220.121114 
L 105.75658 218.654928 
L 106.208225 221.837314 
L 106.659869 232.29766 
L 107.111513 234.327438 
L 107.563158 239.91886 
L 108.014802 243.122434 
L 108.466447 242.423241 
L 108.918091 242.397816 
L 109.82138 229.409783 
L 110.273025 214.980988 
L 110.724669 214.125007 
L 111.176314 199.039396 
L 111.627958 197.259632 
L 112.079603 200.458969 
L 112.531247 202.374333 
L 112.982892 204.878714 
L 113.434536 203.437953 
L 113.886181 193.242453 
L 114.337825 192.496647 
L 114.78947 199.149571 
L 115.241114 199.780964 
L 115.692759 191.945768 
L 116.596047 182.750325 
L 117.047692 181.818068 
L 117.950981 195.768021 
L 118.402625 204.586324 
L 118.85427 209.095057 
L 119.305914 226.435036 
L 119.757559 226.774038 
L 120.209203 220.64233 
L 120.660848 216.468362 
L 121.112492 209.455248 
L 121.564137 212.09523 
L 122.015781 217.256543 
L 122.467426 218.184562 
L 122.91907 224.227282 
L 123.370715 223.977267 
L 124.274004 218.722729 
L 124.725648 213.582603 
L 125.177293 217.214167 
L 125.628937 223.888279 
L 126.080581 226.570637 
L 126.532226 229.930999 
L 126.98387 232.410802 
L 127.435515 246.368383 
L 127.887159 246.32177 
L 128.338804 251.758523 
L 128.790448 253.559474 
L 129.242093 250.898304 
L 129.693737 250.563539 
L 130.597026 247.495566 
L 131.048671 251.033905 
L 131.500315 258.11482 
L 131.95196 268.759499 
L 132.403604 264.882157 
L 132.855249 256.74186 
L 133.306893 257.890231 
L 133.758538 260.754802 
L 134.210182 261.161605 
L 135.113471 262.737967 
L 135.565115 265.962728 
L 136.01676 267.674691 
L 136.468404 270.674863 
L 136.920049 268.149294 
L 137.371693 268.509484 
L 137.823338 265.712714 
L 138.274982 258.208046 
L 138.726627 254.305279 
L 139.178271 248.487149 
L 139.629916 247.720156 
L 140.08156 244.156392 
L 140.533205 244.025028 
L 140.984849 243.008021 
L 141.436494 238.498864 
L 141.888138 237.686953 
L 142.339783 240.639241 
L 142.791427 241.609635 
L 143.694716 236.762323 
L 144.146361 235.838118 
L 144.598005 235.206598 
L 145.049649 234.056659 
L 145.952938 232.29766 
L 146.404583 231.192936 
L 146.856227 231.373455 
L 147.759516 231.260736 
L 148.211161 230.176776 
L 148.662805 226.142646 
L 149.566094 222.917885 
L 150.017739 218.451527 
L 150.469383 211.463837 
L 150.921028 209.184046 
L 151.372672 210.404455 
L 151.824317 212.836798 
L 152.275961 210.357842 
L 152.727606 207.154268 
L 153.17925 208.014487 
L 153.630895 206.501688 
L 154.082539 207.404282 
L 154.534183 207.607684 
L 154.985828 213.582603 
L 155.437472 215.455592 
L 155.889117 221.858502 
L 156.340761 222.60007 
L 156.792406 228.443625 
L 157.24405 229.477583 
L 157.695695 237.21362 
L 158.147339 238.475981 
L 159.050628 245.016611 
L 159.502273 251.508509 
L 159.953917 251.466133 
L 160.857206 252.567891 
L 161.760495 247.991358 
L 162.21214 248.283747 
L 162.663784 248.059158 
L 163.115429 248.669363 
L 163.567073 249.817734 
L 164.018717 250.266912 
L 164.470362 252.72468 
L 164.922006 253.987464 
L 165.373651 254.394267 
L 165.825295 253.584899 
L 166.27694 258.657224 
L 166.728584 258.996226 
L 167.180229 254.487493 
L 167.631873 251.983112 
L 168.083518 248.419348 
L 168.535162 248.080346 
L 169.438451 242.037626 
L 169.890096 235.770317 
L 170.34174 238.56624 
L 170.793385 239.039996 
L 171.245029 237.934848 
L 171.696674 230.875968 
L 172.148318 231.756527 
L 172.599963 228.104623 
L 173.051607 226.278247 
L 173.503251 221.811889 
L 173.954896 223.434863 
L 174.40654 227.33763 
L 174.858185 229.278419 
L 175.309829 232.861676 
L 175.761474 229.795398 
L 176.213118 225.193439 
L 176.664763 224.655272 
L 177.116407 222.646683 
L 177.568052 222.375481 
L 178.019696 220.93472 
L 178.471341 220.053313 
L 179.37463 214.641986 
L 179.826274 214.417397 
L 180.277919 216.222585 
L 180.729563 216.875165 
L 181.181208 215.387791 
L 181.632852 215.294566 
L 182.084497 215.633568 
L 182.536141 215.633568 
L 182.987786 216.989578 
L 183.43943 222.803471 
L 183.891074 223.706065 
L 184.342719 228.443625 
L 184.794363 229.231806 
L 185.246008 231.395914 
L 185.697652 234.755852 
L 186.149297 235.770317 
L 186.600941 237.664494 
L 187.052586 238.678959 
L 187.50423 241.202832 
L 187.955875 240.257863 
L 188.407519 239.581129 
L 188.859164 239.152715 
L 189.310808 240.007848 
L 189.762453 241.677436 
L 190.214097 242.736819 
L 190.665742 242.762244 
L 191.117386 244.813209 
L 191.569031 250.334712 
L 192.020675 252.546704 
L 192.47232 256.648634 
L 192.923964 257.39444 
L 193.375608 255.432463 
L 193.827253 256.784235 
L 194.278897 259.966621 
L 194.730542 259.737794 
L 196.085475 256.267256 
L 196.53712 255.839266 
L 197.440409 248.148146 
L 197.892053 246.300583 
L 198.343698 246.978588 
L 198.795342 244.203005 
L 199.246987 243.639413 
L 200.150276 239.965473 
L 200.60192 231.846787 
L 201.053565 230.651379 
L 201.505209 230.0666 
L 201.956854 230.473403 
L 202.408498 234.079118 
L 202.860142 234.597792 
L 203.311787 231.643809 
L 203.763431 231.440831 
L 204.215076 232.748957 
L 204.66672 232.771416 
L 205.118365 234.101577 
L 205.570009 234.282096 
L 206.021654 230.223389 
L 206.473298 228.600414 
L 206.924943 223.706065 
L 207.376587 224.790873 
L 207.828232 221.138121 
L 208.731521 218.947318 
L 209.183165 220.303328 
L 210.086454 217.798947 
L 210.538099 213.222413 
L 210.989743 210.493443 
L 211.441388 208.959456 
L 211.893032 210.243428 
L 212.344676 215.002176 
L 212.796321 216.468362 
L 213.247965 221.159309 
L 213.69961 221.926302 
L 214.151254 228.981792 
L 214.602899 228.960604 
L 215.054543 228.77839 
L 215.506188 229.591996 
L 215.957832 238.543781 
L 216.409477 239.829872 
L 216.861121 239.378151 
L 217.312766 239.107373 
L 217.76441 234.552874 
L 218.216055 234.169378 
L 218.667699 237.82213 
L 219.119344 238.543781 
L 219.570988 241.092657 
L 220.022633 241.677436 
L 220.474277 244.719983 
L 221.377566 248.148146 
L 221.82921 248.440536 
L 222.280855 253.809488 
L 223.184144 255.724852 
L 223.635788 255.974867 
L 224.087433 260.055609 
L 224.539077 260.212398 
L 224.990722 256.674059 
L 226.7973 253.110295 
L 227.248944 248.398161 
L 227.700589 247.474379 
L 228.603878 242.152039 
L 229.055522 238.386145 
L 229.507167 235.838118 
L 229.958811 228.240224 
L 230.410456 226.210446 
L 230.8621 229.028405 
L 231.765389 237.686953 
L 232.217033 234.034201 
L 232.668678 232.974394 
L 233.120322 233.808764 
L 233.571967 233.447726 
L 234.023611 231.440831 
L 234.475256 230.833593 
L 235.378545 232.478179 
L 235.830189 228.892804 
L 236.281834 226.820651 
L 236.733478 223.032298 
L 237.636767 224.629847 
L 238.088412 222.850084 
L 238.991701 218.27355 
L 239.443345 211.349424 
L 239.89499 210.44683 
L 240.798278 213.201225 
L 241.249923 216.536162 
L 242.153212 219.311745 
L 243.056501 218.116762 
L 243.508145 219.040543 
L 243.95979 223.278075 
L 244.411434 226.456223 
L 244.863079 233.673163 
L 245.314723 234.507533 
L 245.766368 238.160285 
L 246.218012 238.047566 
L 246.669657 235.860577 
L 247.121301 235.274272 
L 247.572946 235.815235 
L 248.476235 235.003663 
L 248.927879 237.709411 
L 249.379524 242.016438 
L 249.831168 242.423241 
L 250.734457 249.593144 
L 251.186101 255.09346 
L 251.637746 254.957859 
L 252.541035 260.462412 
L 252.992679 260.212398 
L 253.444324 260.598013 
L 253.895968 259.83102 
L 254.347613 261.000579 
L 254.799257 262.85238 
L 255.250902 262.309976 
L 255.702546 259.873395 
L 256.154191 258.432635 
L 256.605835 255.161261 
L 257.05748 254.665469 
L 257.509124 252.928082 
L 257.960769 250.021135 
L 258.412413 246.029381 
L 258.864058 243.482624 
L 259.315702 236.46951 
L 259.767347 235.341907 
L 260.218991 231.801869 
L 260.670635 231.463714 
L 261.573924 232.117565 
L 262.025569 232.951935 
L 262.477213 232.974394 
L 262.928858 228.532614 
L 263.380502 227.583407 
L 263.832147 230.041175 
L 264.283791 230.380177 
L 264.735436 229.524196 
L 265.18708 229.570809 
L 266.542014 218.680353 
L 266.993658 217.120942 
L 267.445303 216.332761 
L 267.896947 215.027601 
L 268.348592 208.103475 
L 268.800236 206.590676 
L 269.251881 204.565136 
L 269.703525 206.569489 
L 270.155169 214.892 
L 270.606814 217.616733 
L 271.058458 216.48955 
L 271.510103 214.641986 
L 271.961747 215.294566 
L 272.413392 217.527745 
L 272.865036 217.574358 
L 273.768325 219.557522 
L 274.21997 225.757031 
L 274.671614 228.015635 
L 275.123259 231.036995 
L 275.574903 230.562391 
L 276.026548 232.027306 
L 276.929837 232.816334 
L 277.381481 235.138967 
L 277.833126 236.086013 
L 278.28477 241.317246 
L 278.736415 242.804619 
L 279.188059 246.796374 
L 279.639703 248.398161 
L 280.091348 253.673887 
L 280.542992 254.890059 
L 280.994637 259.131827 
L 281.446281 260.665814 
L 281.897926 265.195735 
L 282.34957 267.971318 
L 282.801215 268.039118 
L 283.252859 263.187145 
L 283.704504 261.970973 
L 284.607793 263.369359 
L 285.059437 260.864978 
L 285.511082 260.055609 
L 286.414371 254.462068 
L 286.866015 247.135376 
L 287.31766 243.23261 
L 287.769304 243.097009 
L 288.220949 243.325836 
L 288.672593 242.601218 
L 289.124237 241.296058 
L 290.027526 235.522294 
L 290.479171 233.943941 
L 290.930815 239.804447 
L 291.38246 240.529065 
L 291.834104 242.851232 
L 292.285749 238.56624 
L 292.737393 231.756527 
L 293.640682 226.863026 
L 294.092327 225.261239 
L 294.543971 225.261239 
L 294.995616 224.60866 
L 295.44726 221.837314 
L 295.898905 223.074673 
L 296.350549 222.646683 
L 296.802194 222.761096 
L 297.253838 214.709786 
L 298.157127 209.387447 
L 298.608771 213.561415 
L 299.060416 214.980988 
L 299.51206 217.438757 
L 299.963705 217.574358 
L 300.415349 220.663518 
L 300.866994 220.527917 
L 301.318638 213.514803 
L 301.770283 213.493615 
L 302.221927 217.078566 
L 302.673572 217.981161 
L 303.576861 225.286665 
L 304.028505 232.996853 
L 305.383439 223.278075 
L 305.835083 225.083263 
L 306.286728 226.388423 
L 306.738372 228.689402 
L 307.190017 236.536887 
L 307.641661 238.183168 
L 308.093305 238.047566 
L 308.54495 239.581129 
L 308.996594 245.037798 
L 309.448239 248.508336 
L 309.899883 257.237651 
L 310.351528 260.504788 
L 310.803172 264.653331 
L 311.254817 263.254945 
L 311.706461 258.250421 
L 312.158106 255.004472 
L 312.60975 255.81384 
L 313.061395 256.966449 
L 313.513039 255.161261 
L 313.964684 252.0043 
L 314.416328 250.966105 
L 315.319617 250.292337 
L 315.771262 248.69055 
L 317.126195 233.921482 
L 317.577839 235.973295 
L 318.029484 240.889255 
L 318.481128 242.669018 
L 318.932773 240.168875 
L 319.384417 237.033101 
L 319.836062 229.210619 
L 320.287706 229.680985 
L 320.739351 235.792861 
L 321.190995 236.875042 
L 321.64264 236.717405 
L 322.094284 236.063554 
L 322.545929 230.380177 
L 323.449218 222.061903 
L 323.900862 220.909295 
L 324.352507 220.549105 
L 324.804151 220.663518 
L 325.255796 223.684878 
L 325.70744 225.824831 
L 326.159085 222.23988 
L 326.610729 219.964325 
L 327.062374 210.764645 
L 327.514018 211.485025 
L 327.965662 217.866747 
L 328.868951 220.074501 
L 329.320596 220.167727 
L 329.77224 222.036478 
L 330.223885 222.400906 
L 330.675529 222.061903 
L 331.127174 222.333105 
L 331.578818 222.333105 
L 332.030463 222.536507 
L 332.482107 222.083091 
L 332.933752 221.837314 
L 333.385396 219.943138 
L 333.837041 220.663518 
L 334.288685 225.68923 
L 334.74033 226.096033 
L 335.643619 228.214799 
L 336.095263 232.433261 
L 336.546908 232.681157 
L 336.998552 235.567382 
L 337.450196 236.018213 
L 337.901841 243.097009 
L 338.353485 246.571785 
L 338.80513 246.050568 
L 339.256774 245.194587 
L 339.708419 251.779711 
L 340.160063 255.229061 
L 340.611708 264.182965 
L 341.063352 263.754974 
L 341.514997 259.83102 
L 341.966641 259.737794 
L 342.418286 261.881985 
L 342.86993 260.034422 
L 343.321575 256.38167 
L 343.773219 257.483428 
L 344.224864 263.593948 
L 344.676508 264.204152 
L 345.128153 262.759154 
L 345.579797 261.746384 
L 346.031442 247.991358 
L 346.483086 246.503984 
L 346.93473 249.254142 
L 347.838019 263.979563 
L 348.289664 261.271781 
L 348.741308 255.229061 
L 349.192953 255.02566 
L 349.644597 256.313869 
L 350.096242 258.928426 
L 350.547886 256.063855 
L 350.999531 252.411103 
L 351.451175 247.359965 
L 351.90282 244.630995 
L 352.354464 236.717405 
L 352.806109 236.37925 
L 353.257753 234.755852 
L 353.709398 232.636239 
L 354.161042 221.811889 
L 354.612687 217.820134 
L 355.064331 210.900246 
L 355.515976 211.938441 
L 355.96762 220.392316 
L 356.419264 221.879689 
L 356.870909 222.761096 
L 357.322553 221.722901 
L 357.774198 213.942793 
L 358.225842 212.904598 
L 358.677487 213.718204 
L 359.580776 219.782111 
L 360.03242 219.28632 
L 360.484065 221.159309 
L 360.935709 221.451699 
L 361.838998 230.42679 
L 362.290643 242.376629 
L 363.193932 245.105599 
L 363.645576 246.008193 
L 364.097221 248.508336 
L 365.452154 249.34313 
L 366.807087 249.864346 
L 367.258732 249.817734 
L 368.162021 248.98294 
L 368.613665 247.020963 
L 369.06531 246.008193 
L 369.968599 237.934848 
L 371.775177 229.435208 
L 372.226821 222.578882 
L 372.678466 218.091336 
L 373.13011 218.184562 
L 373.581755 220.752506 
L 374.033399 221.337285 
L 374.485044 222.30768 
L 374.936688 222.286492 
L 375.388332 222.803471 
L 375.839977 223.706065 
L 376.291621 223.231462 
L 376.743266 221.22711 
L 377.646555 219.21852 
L 378.098199 219.082919 
L 378.549844 216.290386 
L 379.001488 210.675657 
L 379.453133 208.328064 
L 379.904777 204.450723 
L 380.356422 204.179521 
L 380.808066 206.997479 
L 381.259711 210.561243 
L 381.711355 221.044896 
L 382.163 224.426446 
L 382.614644 230.42679 
L 383.066289 231.192936 
L 383.517933 229.795398 
L 383.969578 227.223216 
L 384.421222 226.435036 
L 384.872866 226.617249 
L 385.324511 227.947834 
L 385.776155 234.732969 
L 386.2278 236.920383 
L 386.679444 240.707041 
L 387.131089 240.257863 
L 387.582733 238.137826 
L 388.034378 237.190738 
L 388.486022 238.431063 
L 388.937667 240.257863 
L 389.389311 245.444601 
L 389.840956 249.186341 
L 390.2926 250.427938 
L 390.744245 251.194931 
L 391.195889 249.614332 
L 391.647534 243.571612 
L 392.099178 241.698623 
L 392.550823 237.73187 
L 393.002467 236.108472 
L 393.905756 235.409551 
L 394.3574 235.770317 
L 394.809045 237.416174 
L 395.260689 237.98019 
L 395.712334 239.986661 
L 396.163978 240.707041 
L 396.615623 242.28764 
L 397.067267 242.330016 
L 397.518912 241.296058 
L 397.970556 239.084914 
L 398.422201 237.88993 
L 399.32549 231.914587 
L 399.777134 230.697992 
L 400.228779 227.316442 
L 400.680423 226.638437 
L 401.132068 224.833249 
L 401.583712 224.519671 
L 402.035357 223.434863 
L 402.487001 223.142474 
L 402.938646 223.345875 
L 403.39029 224.60866 
L 403.841935 225.057838 
L 404.293579 226.481648 
L 404.745223 226.952014 
L 405.196868 228.532614 
L 405.648512 229.680985 
L 406.100157 233.515527 
L 406.551801 234.304555 
L 407.003446 235.995754 
L 407.45509 236.536887 
L 407.906735 236.356791 
L 408.358379 235.296815 
L 408.810024 234.823229 
L 409.261668 233.493068 
L 409.713313 233.087112 
L 410.164957 232.027306 
L 410.616602 231.689151 
L 411.068246 230.765793 
L 411.519891 230.71918 
L 412.42318 230.833593 
L 413.326469 231.373455 
L 414.229757 232.929052 
L 414.681402 235.499751 
L 415.133046 236.536887 
L 415.584691 238.183168 
L 416.036335 238.588699 
L 416.48798 240.143449 
L 416.939624 240.821455 
L 417.391269 242.063051 
L 417.842913 242.21984 
L 418.746202 242.715631 
L 419.197847 242.919033 
L 419.649491 242.694443 
L 421.907714 236.920383 
L 422.359358 234.552874 
L 422.811003 233.650704 
L 423.262647 231.553973 
L 423.714291 230.901394 
L 424.165936 229.435208 
L 424.61758 229.117393 
L 425.069225 228.600414 
L 425.972514 229.117393 
L 426.424158 230.312377 
L 426.875803 230.943769 
L 427.327447 232.929052 
L 427.779092 233.785881 
L 428.230736 235.973295 
L 428.682381 236.762323 
L 429.134025 238.588699 
L 429.58567 239.197633 
L 430.037314 240.482452 
L 430.488959 240.774842 
L 430.940603 241.338433 
L 431.392248 241.385046 
L 431.843892 241.181645 
L 431.843892 241.181645 
" clip-path="url(#pe96747977a)" style="fill: none; stroke: #ff7f0e; stroke-width: 2; stroke-linecap: square"/>
   </g>
   <g id="patch_9">
    <path d="M 50.565625 304.44375 
L 50.565625 175.97875 
" style="fill: none; stroke: #000000; stroke-width: 0.8; stroke-linejoin: miter; stroke-linecap: square"/>
   </g>
   <g id="patch_10">
    <path d="M 450 304.44375 
L 450 175.97875 
" style="fill: none; stroke: #000000; stroke-width: 0.8; stroke-linejoin: miter; stroke-linecap: square"/>
   </g>
   <g id="patch_11">
    <path d="M 50.565625 304.44375 
L 450 304.44375 
" style="fill: none; stroke: #000000; stroke-width: 0.8; stroke-linejoin: miter; stroke-linecap: square"/>
   </g>
   <g id="patch_12">
    <path d="M 50.565625 175.97875 
L 450 175.97875 
" style="fill: none; stroke: #000000; stroke-width: 0.8; stroke-linejoin: miter; stroke-linecap: square"/>
   </g>
   <g id="legend_2">
    <g id="patch_13">
     <path d="M 360.482812 299.44375 
L 443 299.44375 
Q 445 299.44375 445 297.44375 
L 445 269.0875 
Q 445 267.0875 443 267.0875 
L 360.482812 267.0875 
Q 358.482812 267.0875 358.482812 269.0875 
L 358.482812 297.44375 
Q 358.482812 299.44375 360.482812 299.44375 
z
" style="fill: #ffffff; opacity: 0.8; stroke: #cccccc; stroke-linejoin: miter"/>
    </g>
    <g id="line2d_57">
     <path d="M 362.482812 275.185937 
L 372.482812 275.185937 
L 382.482812 275.185937 
" style="fill: none; stroke: #1f77b4; stroke-width: 2; stroke-linecap: square"/>
    </g>
    <g id="text_22">
     <!-- Reference -->
     <g transform="translate(390.482812 278.685937)scale(0.1 -0.1)">
      <use xlink:href="#DejaVuSans-52"/>
      <use xlink:href="#DejaVuSans-65" x="64.982422"/>
      <use xlink:href="#DejaVuSans-66" x="126.505859"/>
      <use xlink:href="#DejaVuSans-65" x="161.710938"/>
      <use xlink:href="#DejaVuSans-72" x="223.234375"/>
      <use xlink:href="#DejaVuSans-65" x="262.097656"/>
      <use xlink:href="#DejaVuSans-6e" x="323.621094"/>
      <use xlink:href="#DejaVuSans-63" x="387"/>
      <use xlink:href="#DejaVuSans-65" x="441.980469"/>
     </g>
    </g>
    <g id="line2d_58">
     <path d="M 362.482812 289.864062 
L 372.482812 289.864062 
L 382.482812 289.864062 
" style="fill: none; stroke: #ff7f0e; stroke-width: 2; stroke-linecap: square"/>
    </g>
    <g id="text_23">
     <!-- Estimated -->
     <g transform="translate(390.482812 293.364062)scale(0.1 -0.1)">
      <use xlink:href="#DejaVuSans-45"/>
      <use xlink:href="#DejaVuSans-73" x="63.183594"/>
      <use xlink:href="#DejaVuSans-74" x="115.283203"/>
      <use xlink:href="#DejaVuSans-69" x="154.492188"/>
      <use xlink:href="#DejaVuSans-6d" x="182.275391"/>
      <use xlink:href="#DejaVuSans-61" x="279.6875"/>
      <use xlink:href="#DejaVuSans-74" x="340.966797"/>
      <use xlink:href="#DejaVuSans-65" x="380.175781"/>
      <use xlink:href="#DejaVuSans-64" x="441.699219"/>
     </g>
    </g>
   </g>
  </g>
  <g id="text_24">
   <!-- Translational and Rotational Velocity -->
   <g transform="translate(121.384688 16.030125)scale(0.12 -0.12)">
    <defs>
     <path id="DejaVuSans-56" d="M 1831 0 
L 50 4666 
L 709 4666 
L 2188 738 
L 3669 4666 
L 4325 4666 
L 2547 0 
L 1831 0 
z
" transform="scale(0.015625)"/>
     <path id="DejaVuSans-79" d="M 2059 -325 
Q 1816 -950 1584 -1140 
Q 1353 -1331 966 -1331 
L 506 -1331 
L 506 -850 
L 844 -850 
Q 1081 -850 1212 -737 
Q 1344 -625 1503 -206 
L 1606 56 
L 191 3500 
L 800 3500 
L 1894 763 
L 2988 3500 
L 3597 3500 
L 2059 -325 
z
" transform="scale(0.015625)"/>
    </defs>
    <use xlink:href="#DejaVuSans-54"/>
    <use xlink:href="#DejaVuSans-72" x="46.333984"/>
    <use xlink:href="#DejaVuSans-61" x="87.447266"/>
    <use xlink:href="#DejaVuSans-6e" x="148.726562"/>
    <use xlink:href="#DejaVuSans-73" x="212.105469"/>
    <use xlink:href="#DejaVuSans-6c" x="264.205078"/>
    <use xlink:href="#DejaVuSans-61" x="291.988281"/>
    <use xlink:href="#DejaVuSans-74" x="353.267578"/>
    <use xlink:href="#DejaVuSans-69" x="392.476562"/>
    <use xlink:href="#DejaVuSans-6f" x="420.259766"/>
    <use xlink:href="#DejaVuSans-6e" x="481.441406"/>
    <use xlink:href="#DejaVuSans-61" x="544.820312"/>
    <use xlink:href="#DejaVuSans-6c" x="606.099609"/>
    <use xlink:href="#DejaVuSans-20" x="633.882812"/>
    <use xlink:href="#DejaVuSans-61" x="665.669922"/>
    <use xlink:href="#DejaVuSans-6e" x="726.949219"/>
    <use xlink:href="#DejaVuSans-64" x="790.328125"/>
    <use xlink:href="#DejaVuSans-20" x="853.804688"/>
    <use xlink:href="#DejaVuSans-52" x="885.591797"/>
    <use xlink:href="#DejaVuSans-6f" x="950.574219"/>
    <use xlink:href="#DejaVuSans-74" x="1011.755859"/>
    <use xlink:href="#DejaVuSans-61" x="1050.964844"/>
    <use xlink:href="#DejaVuSans-74" x="1112.244141"/>
    <use xlink:href="#DejaVuSans-69" x="1151.453125"/>
    <use xlink:href="#DejaVuSans-6f" x="1179.236328"/>
    <use xlink:href="#DejaVuSans-6e" x="1240.417969"/>
    <use xlink:href="#DejaVuSans-61" x="1303.796875"/>
    <use xlink:href="#DejaVuSans-6c" x="1365.076172"/>
    <use xlink:href="#DejaVuSans-20" x="1392.859375"/>
    <use xlink:href="#DejaVuSans-56" x="1424.646484"/>
    <use xlink:href="#DejaVuSans-65" x="1485.304688"/>
    <use xlink:href="#DejaVuSans-6c" x="1546.828125"/>
    <use xlink:href="#DejaVuSans-6f" x="1574.611328"/>
    <use xlink:href="#DejaVuSans-63" x="1635.792969"/>
    <use xlink:href="#DejaVuSans-69" x="1690.773438"/>
    <use xlink:href="#DejaVuSans-74" x="1718.556641"/>
    <use xlink:href="#DejaVuSans-79" x="1757.765625"/>
   </g>
  </g>
 </g>
 <defs>
  <clipPath id="pcde3439677">
   <rect x="50.565625" y="33.21375" width="399.434375" height="128.465"/>
  </clipPath>
  <clipPath id="pe96747977a">
   <rect x="50.565625" y="175.97875" width="399.434375" height="128.465"/>
  </clipPath>
 </defs>
</svg>
