<?xml version="1.0" encoding="utf-8" standalone="no"?>
<!DOCTYPE svg PUBLIC "-//W3C//DTD SVG 1.1//EN"
  "http://www.w3.org/Graphics/SVG/1.1/DTD/svg11.dtd">
<svg xmlns:xlink="http://www.w3.org/1999/xlink" width="460.8pt" height="345.6pt" viewBox="0 0 460.8 345.6" xmlns="http://www.w3.org/2000/svg" version="1.1">
 <metadata>
  <rdf:RDF xmlns:dc="http://purl.org/dc/elements/1.1/" xmlns:cc="http://creativecommons.org/ns#" xmlns:rdf="http://www.w3.org/1999/02/22-rdf-syntax-ns#">
   <cc:Work>
    <dc:type rdf:resource="http://purl.org/dc/dcmitype/StillImage"/>
    <dc:date>2022-01-16T03:24:26.007296</dc:date>
    <dc:format>image/svg+xml</dc:format>
    <dc:creator>
     <cc:Agent>
      <dc:title>Matplotlib v3.5.1, https://matplotlib.org/</dc:title>
     </cc:Agent>
    </dc:creator>
   </cc:Work>
  </rdf:RDF>
 </metadata>
 <defs>
  <style type="text/css">*{stroke-linejoin: round; stroke-linecap: butt}</style>
 </defs>
 <g id="figure_1">
  <g id="patch_1">
   <path d="M 0 345.6 
L 460.8 345.6 
L 460.8 0 
L 0 0 
z
" style="fill: #ffffff"/>
  </g>
  <g id="axes_1">
   <g id="patch_2">
    <path d="M 52.582813 304.44375 
L 450 304.44375 
L 450 25.918125 
L 52.582813 25.918125 
z
" style="fill: #ffffff"/>
   </g>
   <g id="matplotlib.axis_1">
    <g id="xtick_1">
     <g id="line2d_1">
      <path d="M 70.64723 304.44375 
L 70.64723 25.918125 
" clip-path="url(#pf343516985)" style="fill: none; stroke: #b0b0b0; stroke-width: 0.8; stroke-linecap: square"/>
     </g>
     <g id="line2d_2">
      <defs>
       <path id="mebefff1411" d="M 0 0 
L 0 3.5 
" style="stroke: #000000; stroke-width: 0.8"/>
      </defs>
      <g>
       <use xlink:href="#mebefff1411" x="70.64723" y="304.44375" style="stroke: #000000; stroke-width: 0.8"/>
      </g>
     </g>
     <g id="text_1">
      <!-- 0 -->
      <g transform="translate(67.46598 319.042187)scale(0.1 -0.1)">
       <defs>
        <path id="DejaVuSans-30" d="M 2034 4250 
Q 1547 4250 1301 3770 
Q 1056 3291 1056 2328 
Q 1056 1369 1301 889 
Q 1547 409 2034 409 
Q 2525 409 2770 889 
Q 3016 1369 3016 2328 
Q 3016 3291 2770 3770 
Q 2525 4250 2034 4250 
z
M 2034 4750 
Q 2819 4750 3233 4129 
Q 3647 3509 3647 2328 
Q 3647 1150 3233 529 
Q 2819 -91 2034 -91 
Q 1250 -91 836 529 
Q 422 1150 422 2328 
Q 422 3509 836 4129 
Q 1250 4750 2034 4750 
z
" transform="scale(0.015625)"/>
       </defs>
       <use xlink:href="#DejaVuSans-30"/>
      </g>
     </g>
    </g>
    <g id="xtick_2">
     <g id="line2d_3">
      <path d="M 150.933531 304.44375 
L 150.933531 25.918125 
" clip-path="url(#pf343516985)" style="fill: none; stroke: #b0b0b0; stroke-width: 0.8; stroke-linecap: square"/>
     </g>
     <g id="line2d_4">
      <g>
       <use xlink:href="#mebefff1411" x="150.933531" y="304.44375" style="stroke: #000000; stroke-width: 0.8"/>
      </g>
     </g>
     <g id="text_2">
      <!-- 100 -->
      <g transform="translate(141.389781 319.042187)scale(0.1 -0.1)">
       <defs>
        <path id="DejaVuSans-31" d="M 794 531 
L 1825 531 
L 1825 4091 
L 703 3866 
L 703 4441 
L 1819 4666 
L 2450 4666 
L 2450 531 
L 3481 531 
L 3481 0 
L 794 0 
L 794 531 
z
" transform="scale(0.015625)"/>
       </defs>
       <use xlink:href="#DejaVuSans-31"/>
       <use xlink:href="#DejaVuSans-30" x="63.623047"/>
       <use xlink:href="#DejaVuSans-30" x="127.246094"/>
      </g>
     </g>
    </g>
    <g id="xtick_3">
     <g id="line2d_5">
      <path d="M 231.219831 304.44375 
L 231.219831 25.918125 
" clip-path="url(#pf343516985)" style="fill: none; stroke: #b0b0b0; stroke-width: 0.8; stroke-linecap: square"/>
     </g>
     <g id="line2d_6">
      <g>
       <use xlink:href="#mebefff1411" x="231.219831" y="304.44375" style="stroke: #000000; stroke-width: 0.8"/>
      </g>
     </g>
     <g id="text_3">
      <!-- 200 -->
      <g transform="translate(221.676081 319.042187)scale(0.1 -0.1)">
       <defs>
        <path id="DejaVuSans-32" d="M 1228 531 
L 3431 531 
L 3431 0 
L 469 0 
L 469 531 
Q 828 903 1448 1529 
Q 2069 2156 2228 2338 
Q 2531 2678 2651 2914 
Q 2772 3150 2772 3378 
Q 2772 3750 2511 3984 
Q 2250 4219 1831 4219 
Q 1534 4219 1204 4116 
Q 875 4013 500 3803 
L 500 4441 
Q 881 4594 1212 4672 
Q 1544 4750 1819 4750 
Q 2544 4750 2975 4387 
Q 3406 4025 3406 3419 
Q 3406 3131 3298 2873 
Q 3191 2616 2906 2266 
Q 2828 2175 2409 1742 
Q 1991 1309 1228 531 
z
" transform="scale(0.015625)"/>
       </defs>
       <use xlink:href="#DejaVuSans-32"/>
       <use xlink:href="#DejaVuSans-30" x="63.623047"/>
       <use xlink:href="#DejaVuSans-30" x="127.246094"/>
      </g>
     </g>
    </g>
    <g id="xtick_4">
     <g id="line2d_7">
      <path d="M 311.506132 304.44375 
L 311.506132 25.918125 
" clip-path="url(#pf343516985)" style="fill: none; stroke: #b0b0b0; stroke-width: 0.8; stroke-linecap: square"/>
     </g>
     <g id="line2d_8">
      <g>
       <use xlink:href="#mebefff1411" x="311.506132" y="304.44375" style="stroke: #000000; stroke-width: 0.8"/>
      </g>
     </g>
     <g id="text_4">
      <!-- 300 -->
      <g transform="translate(301.962382 319.042187)scale(0.1 -0.1)">
       <defs>
        <path id="DejaVuSans-33" d="M 2597 2516 
Q 3050 2419 3304 2112 
Q 3559 1806 3559 1356 
Q 3559 666 3084 287 
Q 2609 -91 1734 -91 
Q 1441 -91 1130 -33 
Q 819 25 488 141 
L 488 750 
Q 750 597 1062 519 
Q 1375 441 1716 441 
Q 2309 441 2620 675 
Q 2931 909 2931 1356 
Q 2931 1769 2642 2001 
Q 2353 2234 1838 2234 
L 1294 2234 
L 1294 2753 
L 1863 2753 
Q 2328 2753 2575 2939 
Q 2822 3125 2822 3475 
Q 2822 3834 2567 4026 
Q 2313 4219 1838 4219 
Q 1578 4219 1281 4162 
Q 984 4106 628 3988 
L 628 4550 
Q 988 4650 1302 4700 
Q 1616 4750 1894 4750 
Q 2613 4750 3031 4423 
Q 3450 4097 3450 3541 
Q 3450 3153 3228 2886 
Q 3006 2619 2597 2516 
z
" transform="scale(0.015625)"/>
       </defs>
       <use xlink:href="#DejaVuSans-33"/>
       <use xlink:href="#DejaVuSans-30" x="63.623047"/>
       <use xlink:href="#DejaVuSans-30" x="127.246094"/>
      </g>
     </g>
    </g>
    <g id="xtick_5">
     <g id="line2d_9">
      <path d="M 391.792432 304.44375 
L 391.792432 25.918125 
" clip-path="url(#pf343516985)" style="fill: none; stroke: #b0b0b0; stroke-width: 0.8; stroke-linecap: square"/>
     </g>
     <g id="line2d_10">
      <g>
       <use xlink:href="#mebefff1411" x="391.792432" y="304.44375" style="stroke: #000000; stroke-width: 0.8"/>
      </g>
     </g>
     <g id="text_5">
      <!-- 400 -->
      <g transform="translate(382.248682 319.042187)scale(0.1 -0.1)">
       <defs>
        <path id="DejaVuSans-34" d="M 2419 4116 
L 825 1625 
L 2419 1625 
L 2419 4116 
z
M 2253 4666 
L 3047 4666 
L 3047 1625 
L 3713 1625 
L 3713 1100 
L 3047 1100 
L 3047 0 
L 2419 0 
L 2419 1100 
L 313 1100 
L 313 1709 
L 2253 4666 
z
" transform="scale(0.015625)"/>
       </defs>
       <use xlink:href="#DejaVuSans-34"/>
       <use xlink:href="#DejaVuSans-30" x="63.623047"/>
       <use xlink:href="#DejaVuSans-30" x="127.246094"/>
      </g>
     </g>
    </g>
    <g id="text_6">
     <!-- Translational Position [mm] -->
     <g transform="translate(183.314062 332.720312)scale(0.1 -0.1)">
      <defs>
       <path id="DejaVuSans-54" d="M -19 4666 
L 3928 4666 
L 3928 4134 
L 2272 4134 
L 2272 0 
L 1638 0 
L 1638 4134 
L -19 4134 
L -19 4666 
z
" transform="scale(0.015625)"/>
       <path id="DejaVuSans-72" d="M 2631 2963 
Q 2534 3019 2420 3045 
Q 2306 3072 2169 3072 
Q 1681 3072 1420 2755 
Q 1159 2438 1159 1844 
L 1159 0 
L 581 0 
L 581 3500 
L 1159 3500 
L 1159 2956 
Q 1341 3275 1631 3429 
Q 1922 3584 2338 3584 
Q 2397 3584 2469 3576 
Q 2541 3569 2628 3553 
L 2631 2963 
z
" transform="scale(0.015625)"/>
       <path id="DejaVuSans-61" d="M 2194 1759 
Q 1497 1759 1228 1600 
Q 959 1441 959 1056 
Q 959 750 1161 570 
Q 1363 391 1709 391 
Q 2188 391 2477 730 
Q 2766 1069 2766 1631 
L 2766 1759 
L 2194 1759 
z
M 3341 1997 
L 3341 0 
L 2766 0 
L 2766 531 
Q 2569 213 2275 61 
Q 1981 -91 1556 -91 
Q 1019 -91 701 211 
Q 384 513 384 1019 
Q 384 1609 779 1909 
Q 1175 2209 1959 2209 
L 2766 2209 
L 2766 2266 
Q 2766 2663 2505 2880 
Q 2244 3097 1772 3097 
Q 1472 3097 1187 3025 
Q 903 2953 641 2809 
L 641 3341 
Q 956 3463 1253 3523 
Q 1550 3584 1831 3584 
Q 2591 3584 2966 3190 
Q 3341 2797 3341 1997 
z
" transform="scale(0.015625)"/>
       <path id="DejaVuSans-6e" d="M 3513 2113 
L 3513 0 
L 2938 0 
L 2938 2094 
Q 2938 2591 2744 2837 
Q 2550 3084 2163 3084 
Q 1697 3084 1428 2787 
Q 1159 2491 1159 1978 
L 1159 0 
L 581 0 
L 581 3500 
L 1159 3500 
L 1159 2956 
Q 1366 3272 1645 3428 
Q 1925 3584 2291 3584 
Q 2894 3584 3203 3211 
Q 3513 2838 3513 2113 
z
" transform="scale(0.015625)"/>
       <path id="DejaVuSans-73" d="M 2834 3397 
L 2834 2853 
Q 2591 2978 2328 3040 
Q 2066 3103 1784 3103 
Q 1356 3103 1142 2972 
Q 928 2841 928 2578 
Q 928 2378 1081 2264 
Q 1234 2150 1697 2047 
L 1894 2003 
Q 2506 1872 2764 1633 
Q 3022 1394 3022 966 
Q 3022 478 2636 193 
Q 2250 -91 1575 -91 
Q 1294 -91 989 -36 
Q 684 19 347 128 
L 347 722 
Q 666 556 975 473 
Q 1284 391 1588 391 
Q 1994 391 2212 530 
Q 2431 669 2431 922 
Q 2431 1156 2273 1281 
Q 2116 1406 1581 1522 
L 1381 1569 
Q 847 1681 609 1914 
Q 372 2147 372 2553 
Q 372 3047 722 3315 
Q 1072 3584 1716 3584 
Q 2034 3584 2315 3537 
Q 2597 3491 2834 3397 
z
" transform="scale(0.015625)"/>
       <path id="DejaVuSans-6c" d="M 603 4863 
L 1178 4863 
L 1178 0 
L 603 0 
L 603 4863 
z
" transform="scale(0.015625)"/>
       <path id="DejaVuSans-74" d="M 1172 4494 
L 1172 3500 
L 2356 3500 
L 2356 3053 
L 1172 3053 
L 1172 1153 
Q 1172 725 1289 603 
Q 1406 481 1766 481 
L 2356 481 
L 2356 0 
L 1766 0 
Q 1100 0 847 248 
Q 594 497 594 1153 
L 594 3053 
L 172 3053 
L 172 3500 
L 594 3500 
L 594 4494 
L 1172 4494 
z
" transform="scale(0.015625)"/>
       <path id="DejaVuSans-69" d="M 603 3500 
L 1178 3500 
L 1178 0 
L 603 0 
L 603 3500 
z
M 603 4863 
L 1178 4863 
L 1178 4134 
L 603 4134 
L 603 4863 
z
" transform="scale(0.015625)"/>
       <path id="DejaVuSans-6f" d="M 1959 3097 
Q 1497 3097 1228 2736 
Q 959 2375 959 1747 
Q 959 1119 1226 758 
Q 1494 397 1959 397 
Q 2419 397 2687 759 
Q 2956 1122 2956 1747 
Q 2956 2369 2687 2733 
Q 2419 3097 1959 3097 
z
M 1959 3584 
Q 2709 3584 3137 3096 
Q 3566 2609 3566 1747 
Q 3566 888 3137 398 
Q 2709 -91 1959 -91 
Q 1206 -91 779 398 
Q 353 888 353 1747 
Q 353 2609 779 3096 
Q 1206 3584 1959 3584 
z
" transform="scale(0.015625)"/>
       <path id="DejaVuSans-20" transform="scale(0.015625)"/>
       <path id="DejaVuSans-50" d="M 1259 4147 
L 1259 2394 
L 2053 2394 
Q 2494 2394 2734 2622 
Q 2975 2850 2975 3272 
Q 2975 3691 2734 3919 
Q 2494 4147 2053 4147 
L 1259 4147 
z
M 628 4666 
L 2053 4666 
Q 2838 4666 3239 4311 
Q 3641 3956 3641 3272 
Q 3641 2581 3239 2228 
Q 2838 1875 2053 1875 
L 1259 1875 
L 1259 0 
L 628 0 
L 628 4666 
z
" transform="scale(0.015625)"/>
       <path id="DejaVuSans-5b" d="M 550 4863 
L 1875 4863 
L 1875 4416 
L 1125 4416 
L 1125 -397 
L 1875 -397 
L 1875 -844 
L 550 -844 
L 550 4863 
z
" transform="scale(0.015625)"/>
       <path id="DejaVuSans-6d" d="M 3328 2828 
Q 3544 3216 3844 3400 
Q 4144 3584 4550 3584 
Q 5097 3584 5394 3201 
Q 5691 2819 5691 2113 
L 5691 0 
L 5113 0 
L 5113 2094 
Q 5113 2597 4934 2840 
Q 4756 3084 4391 3084 
Q 3944 3084 3684 2787 
Q 3425 2491 3425 1978 
L 3425 0 
L 2847 0 
L 2847 2094 
Q 2847 2600 2669 2842 
Q 2491 3084 2119 3084 
Q 1678 3084 1418 2786 
Q 1159 2488 1159 1978 
L 1159 0 
L 581 0 
L 581 3500 
L 1159 3500 
L 1159 2956 
Q 1356 3278 1631 3431 
Q 1906 3584 2284 3584 
Q 2666 3584 2933 3390 
Q 3200 3197 3328 2828 
z
" transform="scale(0.015625)"/>
       <path id="DejaVuSans-5d" d="M 1947 4863 
L 1947 -844 
L 622 -844 
L 622 -397 
L 1369 -397 
L 1369 4416 
L 622 4416 
L 622 4863 
L 1947 4863 
z
" transform="scale(0.015625)"/>
      </defs>
      <use xlink:href="#DejaVuSans-54"/>
      <use xlink:href="#DejaVuSans-72" x="46.333984"/>
      <use xlink:href="#DejaVuSans-61" x="87.447266"/>
      <use xlink:href="#DejaVuSans-6e" x="148.726562"/>
      <use xlink:href="#DejaVuSans-73" x="212.105469"/>
      <use xlink:href="#DejaVuSans-6c" x="264.205078"/>
      <use xlink:href="#DejaVuSans-61" x="291.988281"/>
      <use xlink:href="#DejaVuSans-74" x="353.267578"/>
      <use xlink:href="#DejaVuSans-69" x="392.476562"/>
      <use xlink:href="#DejaVuSans-6f" x="420.259766"/>
      <use xlink:href="#DejaVuSans-6e" x="481.441406"/>
      <use xlink:href="#DejaVuSans-61" x="544.820312"/>
      <use xlink:href="#DejaVuSans-6c" x="606.099609"/>
      <use xlink:href="#DejaVuSans-20" x="633.882812"/>
      <use xlink:href="#DejaVuSans-50" x="665.669922"/>
      <use xlink:href="#DejaVuSans-6f" x="722.347656"/>
      <use xlink:href="#DejaVuSans-73" x="783.529297"/>
      <use xlink:href="#DejaVuSans-69" x="835.628906"/>
      <use xlink:href="#DejaVuSans-74" x="863.412109"/>
      <use xlink:href="#DejaVuSans-69" x="902.621094"/>
      <use xlink:href="#DejaVuSans-6f" x="930.404297"/>
      <use xlink:href="#DejaVuSans-6e" x="991.585938"/>
      <use xlink:href="#DejaVuSans-20" x="1054.964844"/>
      <use xlink:href="#DejaVuSans-5b" x="1086.751953"/>
      <use xlink:href="#DejaVuSans-6d" x="1125.765625"/>
      <use xlink:href="#DejaVuSans-6d" x="1223.177734"/>
      <use xlink:href="#DejaVuSans-5d" x="1320.589844"/>
     </g>
    </g>
   </g>
   <g id="matplotlib.axis_2">
    <g id="ytick_1">
     <g id="line2d_11">
      <path d="M 52.582813 279.844914 
L 450 279.844914 
" clip-path="url(#pf343516985)" style="fill: none; stroke: #b0b0b0; stroke-width: 0.8; stroke-linecap: square"/>
     </g>
     <g id="line2d_12">
      <defs>
       <path id="m768aa87082" d="M 0 0 
L -3.5 0 
" style="stroke: #000000; stroke-width: 0.8"/>
      </defs>
      <g>
       <use xlink:href="#m768aa87082" x="52.582813" y="279.844914" style="stroke: #000000; stroke-width: 0.8"/>
      </g>
     </g>
     <g id="text_7">
      <!-- −20 -->
      <g transform="translate(24.478125 283.644133)scale(0.1 -0.1)">
       <defs>
        <path id="DejaVuSans-2212" d="M 678 2272 
L 4684 2272 
L 4684 1741 
L 678 1741 
L 678 2272 
z
" transform="scale(0.015625)"/>
       </defs>
       <use xlink:href="#DejaVuSans-2212"/>
       <use xlink:href="#DejaVuSans-32" x="83.789062"/>
       <use xlink:href="#DejaVuSans-30" x="147.412109"/>
      </g>
     </g>
    </g>
    <g id="ytick_2">
     <g id="line2d_13">
      <path d="M 52.582813 238.606297 
L 450 238.606297 
" clip-path="url(#pf343516985)" style="fill: none; stroke: #b0b0b0; stroke-width: 0.8; stroke-linecap: square"/>
     </g>
     <g id="line2d_14">
      <g>
       <use xlink:href="#m768aa87082" x="52.582813" y="238.606297" style="stroke: #000000; stroke-width: 0.8"/>
      </g>
     </g>
     <g id="text_8">
      <!-- 0 -->
      <g transform="translate(39.220313 242.405515)scale(0.1 -0.1)">
       <use xlink:href="#DejaVuSans-30"/>
      </g>
     </g>
    </g>
    <g id="ytick_3">
     <g id="line2d_15">
      <path d="M 52.582813 197.367679 
L 450 197.367679 
" clip-path="url(#pf343516985)" style="fill: none; stroke: #b0b0b0; stroke-width: 0.8; stroke-linecap: square"/>
     </g>
     <g id="line2d_16">
      <g>
       <use xlink:href="#m768aa87082" x="52.582813" y="197.367679" style="stroke: #000000; stroke-width: 0.8"/>
      </g>
     </g>
     <g id="text_9">
      <!-- 20 -->
      <g transform="translate(32.857813 201.166897)scale(0.1 -0.1)">
       <use xlink:href="#DejaVuSans-32"/>
       <use xlink:href="#DejaVuSans-30" x="63.623047"/>
      </g>
     </g>
    </g>
    <g id="ytick_4">
     <g id="line2d_17">
      <path d="M 52.582813 156.129061 
L 450 156.129061 
" clip-path="url(#pf343516985)" style="fill: none; stroke: #b0b0b0; stroke-width: 0.8; stroke-linecap: square"/>
     </g>
     <g id="line2d_18">
      <g>
       <use xlink:href="#m768aa87082" x="52.582813" y="156.129061" style="stroke: #000000; stroke-width: 0.8"/>
      </g>
     </g>
     <g id="text_10">
      <!-- 40 -->
      <g transform="translate(32.857813 159.92828)scale(0.1 -0.1)">
       <use xlink:href="#DejaVuSans-34"/>
       <use xlink:href="#DejaVuSans-30" x="63.623047"/>
      </g>
     </g>
    </g>
    <g id="ytick_5">
     <g id="line2d_19">
      <path d="M 52.582813 114.890443 
L 450 114.890443 
" clip-path="url(#pf343516985)" style="fill: none; stroke: #b0b0b0; stroke-width: 0.8; stroke-linecap: square"/>
     </g>
     <g id="line2d_20">
      <g>
       <use xlink:href="#m768aa87082" x="52.582813" y="114.890443" style="stroke: #000000; stroke-width: 0.8"/>
      </g>
     </g>
     <g id="text_11">
      <!-- 60 -->
      <g transform="translate(32.857813 118.689662)scale(0.1 -0.1)">
       <defs>
        <path id="DejaVuSans-36" d="M 2113 2584 
Q 1688 2584 1439 2293 
Q 1191 2003 1191 1497 
Q 1191 994 1439 701 
Q 1688 409 2113 409 
Q 2538 409 2786 701 
Q 3034 994 3034 1497 
Q 3034 2003 2786 2293 
Q 2538 2584 2113 2584 
z
M 3366 4563 
L 3366 3988 
Q 3128 4100 2886 4159 
Q 2644 4219 2406 4219 
Q 1781 4219 1451 3797 
Q 1122 3375 1075 2522 
Q 1259 2794 1537 2939 
Q 1816 3084 2150 3084 
Q 2853 3084 3261 2657 
Q 3669 2231 3669 1497 
Q 3669 778 3244 343 
Q 2819 -91 2113 -91 
Q 1303 -91 875 529 
Q 447 1150 447 2328 
Q 447 3434 972 4092 
Q 1497 4750 2381 4750 
Q 2619 4750 2861 4703 
Q 3103 4656 3366 4563 
z
" transform="scale(0.015625)"/>
       </defs>
       <use xlink:href="#DejaVuSans-36"/>
       <use xlink:href="#DejaVuSans-30" x="63.623047"/>
      </g>
     </g>
    </g>
    <g id="ytick_6">
     <g id="line2d_21">
      <path d="M 52.582813 73.651825 
L 450 73.651825 
" clip-path="url(#pf343516985)" style="fill: none; stroke: #b0b0b0; stroke-width: 0.8; stroke-linecap: square"/>
     </g>
     <g id="line2d_22">
      <g>
       <use xlink:href="#m768aa87082" x="52.582813" y="73.651825" style="stroke: #000000; stroke-width: 0.8"/>
      </g>
     </g>
     <g id="text_12">
      <!-- 80 -->
      <g transform="translate(32.857813 77.451044)scale(0.1 -0.1)">
       <defs>
        <path id="DejaVuSans-38" d="M 2034 2216 
Q 1584 2216 1326 1975 
Q 1069 1734 1069 1313 
Q 1069 891 1326 650 
Q 1584 409 2034 409 
Q 2484 409 2743 651 
Q 3003 894 3003 1313 
Q 3003 1734 2745 1975 
Q 2488 2216 2034 2216 
z
M 1403 2484 
Q 997 2584 770 2862 
Q 544 3141 544 3541 
Q 544 4100 942 4425 
Q 1341 4750 2034 4750 
Q 2731 4750 3128 4425 
Q 3525 4100 3525 3541 
Q 3525 3141 3298 2862 
Q 3072 2584 2669 2484 
Q 3125 2378 3379 2068 
Q 3634 1759 3634 1313 
Q 3634 634 3220 271 
Q 2806 -91 2034 -91 
Q 1263 -91 848 271 
Q 434 634 434 1313 
Q 434 1759 690 2068 
Q 947 2378 1403 2484 
z
M 1172 3481 
Q 1172 3119 1398 2916 
Q 1625 2713 2034 2713 
Q 2441 2713 2670 2916 
Q 2900 3119 2900 3481 
Q 2900 3844 2670 4047 
Q 2441 4250 2034 4250 
Q 1625 4250 1398 4047 
Q 1172 3844 1172 3481 
z
" transform="scale(0.015625)"/>
       </defs>
       <use xlink:href="#DejaVuSans-38"/>
       <use xlink:href="#DejaVuSans-30" x="63.623047"/>
      </g>
     </g>
    </g>
    <g id="ytick_7">
     <g id="line2d_23">
      <path d="M 52.582813 32.413207 
L 450 32.413207 
" clip-path="url(#pf343516985)" style="fill: none; stroke: #b0b0b0; stroke-width: 0.8; stroke-linecap: square"/>
     </g>
     <g id="line2d_24">
      <g>
       <use xlink:href="#m768aa87082" x="52.582813" y="32.413207" style="stroke: #000000; stroke-width: 0.8"/>
      </g>
     </g>
     <g id="text_13">
      <!-- 100 -->
      <g transform="translate(26.495313 36.212426)scale(0.1 -0.1)">
       <use xlink:href="#DejaVuSans-31"/>
       <use xlink:href="#DejaVuSans-30" x="63.623047"/>
       <use xlink:href="#DejaVuSans-30" x="127.246094"/>
      </g>
     </g>
    </g>
    <g id="text_14">
     <!-- Wall Distance [mm] -->
     <g transform="translate(18.398438 214.330937)rotate(-90)scale(0.1 -0.1)">
      <defs>
       <path id="DejaVuSans-57" d="M 213 4666 
L 850 4666 
L 1831 722 
L 2809 4666 
L 3519 4666 
L 4500 722 
L 5478 4666 
L 6119 4666 
L 4947 0 
L 4153 0 
L 3169 4050 
L 2175 0 
L 1381 0 
L 213 4666 
z
" transform="scale(0.015625)"/>
       <path id="DejaVuSans-44" d="M 1259 4147 
L 1259 519 
L 2022 519 
Q 2988 519 3436 956 
Q 3884 1394 3884 2338 
Q 3884 3275 3436 3711 
Q 2988 4147 2022 4147 
L 1259 4147 
z
M 628 4666 
L 1925 4666 
Q 3281 4666 3915 4102 
Q 4550 3538 4550 2338 
Q 4550 1131 3912 565 
Q 3275 0 1925 0 
L 628 0 
L 628 4666 
z
" transform="scale(0.015625)"/>
       <path id="DejaVuSans-63" d="M 3122 3366 
L 3122 2828 
Q 2878 2963 2633 3030 
Q 2388 3097 2138 3097 
Q 1578 3097 1268 2742 
Q 959 2388 959 1747 
Q 959 1106 1268 751 
Q 1578 397 2138 397 
Q 2388 397 2633 464 
Q 2878 531 3122 666 
L 3122 134 
Q 2881 22 2623 -34 
Q 2366 -91 2075 -91 
Q 1284 -91 818 406 
Q 353 903 353 1747 
Q 353 2603 823 3093 
Q 1294 3584 2113 3584 
Q 2378 3584 2631 3529 
Q 2884 3475 3122 3366 
z
" transform="scale(0.015625)"/>
       <path id="DejaVuSans-65" d="M 3597 1894 
L 3597 1613 
L 953 1613 
Q 991 1019 1311 708 
Q 1631 397 2203 397 
Q 2534 397 2845 478 
Q 3156 559 3463 722 
L 3463 178 
Q 3153 47 2828 -22 
Q 2503 -91 2169 -91 
Q 1331 -91 842 396 
Q 353 884 353 1716 
Q 353 2575 817 3079 
Q 1281 3584 2069 3584 
Q 2775 3584 3186 3129 
Q 3597 2675 3597 1894 
z
M 3022 2063 
Q 3016 2534 2758 2815 
Q 2500 3097 2075 3097 
Q 1594 3097 1305 2825 
Q 1016 2553 972 2059 
L 3022 2063 
z
" transform="scale(0.015625)"/>
      </defs>
      <use xlink:href="#DejaVuSans-57"/>
      <use xlink:href="#DejaVuSans-61" x="92.501953"/>
      <use xlink:href="#DejaVuSans-6c" x="153.78125"/>
      <use xlink:href="#DejaVuSans-6c" x="181.564453"/>
      <use xlink:href="#DejaVuSans-20" x="209.347656"/>
      <use xlink:href="#DejaVuSans-44" x="241.134766"/>
      <use xlink:href="#DejaVuSans-69" x="318.136719"/>
      <use xlink:href="#DejaVuSans-73" x="345.919922"/>
      <use xlink:href="#DejaVuSans-74" x="398.019531"/>
      <use xlink:href="#DejaVuSans-61" x="437.228516"/>
      <use xlink:href="#DejaVuSans-6e" x="498.507812"/>
      <use xlink:href="#DejaVuSans-63" x="561.886719"/>
      <use xlink:href="#DejaVuSans-65" x="616.867188"/>
      <use xlink:href="#DejaVuSans-20" x="678.390625"/>
      <use xlink:href="#DejaVuSans-5b" x="710.177734"/>
      <use xlink:href="#DejaVuSans-6d" x="749.191406"/>
      <use xlink:href="#DejaVuSans-6d" x="846.603516"/>
      <use xlink:href="#DejaVuSans-5d" x="944.015625"/>
     </g>
    </g>
   </g>
   <g id="line2d_25">
    <path d="M 70.64723 214.172416 
L 70.647262 214.172416 
L 70.658245 213.924984 
L 70.679345 214.296131 
L 70.755617 214.172416 
L 70.778739 214.172416 
L 70.804993 214.296131 
L 70.867536 214.172416 
L 70.989169 214.0487 
L 71.037984 214.0487 
L 71.091213 213.801268 
L 71.211643 214.296131 
L 71.430503 214.296131 
L 71.514322 214.172416 
L 71.604243 214.790995 
L 71.800944 214.543563 
L 72.145372 215.388955 
L 72.273831 215.388955 
L 72.409514 215.265239 
L 72.552424 215.388955 
L 72.701757 215.986915 
L 72.859118 215.986915 
L 73.195517 215.863199 
L 73.954223 217.224073 
L 74.828541 217.224073 
L 75.064582 217.657079 
L 75.308653 217.657079 
L 75.559949 218.419993 
L 76.356389 218.419993 
L 76.636588 219.151979 
L 76.924013 219.459206 
L 77.217861 220.162325 
L 77.519737 220.162325 
L 77.82884 220.459243 
L 78.145168 220.459243 
L 78.79629 221.040707 
L 79.133492 221.704649 
L 79.478723 221.799498 
L 79.831983 222.26137 
L 80.193271 222.26137 
L 80.562588 222.626332 
L 80.931905 222.626332 
L 81.309251 223.517086 
L 81.694625 223.517086 
L 82.088028 224.121232 
L 82.481431 224.121232 
L 82.882862 225.047039 
L 83.292322 225.047039 
L 83.709811 226.02027 
L 84.1273 226.02027 
L 84.544789 226.649159 
L 84.978335 226.649159 
L 85.411881 227.416198 
L 85.845427 227.791469 
L 86.287001 227.939928 
L 86.728576 228.455411 
L 87.178179 229.170901 
L 87.627783 229.170901 
L 90.405689 231.667899 
L 90.871349 231.98956 
L 92.292417 233.474151 
L 92.774135 233.832927 
L 93.255852 233.832927 
L 93.729542 234.766981 
L 94.211259 235.109262 
L 94.692977 235.612373 
L 95.174695 235.835061 
L 95.656413 236.540242 
L 96.138131 236.701691 
L 96.619848 237.281712 
L 97.101566 238.204632 
L 97.583284 238.204632 
L 98.54672 239.145285 
L 99.028437 239.145285 
L 100.473591 241.02288 
L 100.955309 241.292993 
L 101.437026 241.958996 
L 101.918744 242.088898 
L 102.400462 242.649743 
L 102.88218 242.649743 
L 103.363898 243.571426 
L 104.809051 244.779718 
L 105.290769 245.478712 
L 105.772487 245.858108 
L 107.21764 247.507652 
L 107.699358 247.507652 
L 108.662793 249.093277 
L 109.626229 250.109809 
L 110.107947 250.109809 
L 111.071382 251.946989 
L 111.5531 252.569693 
L 112.034818 252.569693 
L 112.516536 253.72025 
L 112.998254 254.522341 
L 113.479971 255.062567 
L 113.961689 255.062567 
L 114.443407 256.316221 
L 114.925125 256.316221 
L 115.406843 257.48946 
L 115.88856 257.48946 
L 116.370278 258.378152 
L 117.333714 259.122509 
L 117.815432 259.122509 
L 118.297149 259.617372 
L 119.260585 259.98852 
L 120.224021 260.050378 
L 122.150892 260.050378 
L 123.114327 260.400906 
L 125.522917 261.411252 
L 126.004634 261.699923 
L 126.486352 261.803019 
L 127.931506 261.699923 
L 129.858377 257.757511 
L 130.340095 256.23993 
L 131.30353 251.796469 
L 131.785248 251.796469 
L 132.266966 246.530297 
L 133.230401 240.100578 
L 134.675555 226.337808 
L 135.63899 215.162142 
L 137.084144 197.182105 
L 137.565862 193.388152 
L 138.047579 193.388152 
L 138.529297 186.625019 
L 139.011015 183.284691 
L 139.492733 182.872305 
L 139.974451 182.068152 
L 140.456168 182.068152 
L 140.937886 181.22276 
L 141.419604 180.789754 
L 141.901322 180.789754 
L 142.38304 179.903124 
L 142.864757 179.903124 
L 143.346475 180.33613 
L 143.828193 180.33613 
L 144.309911 178.975255 
L 146.236782 178.975255 
L 146.7185 178.026767 
L 147.200218 179.449499 
L 149.127089 179.449499 
L 149.608807 180.33613 
L 150.090524 180.789754 
L 150.572242 179.449499 
L 151.094103 182.068152 
L 151.575821 181.22276 
L 152.057539 181.22276 
L 153.020974 182.068152 
L 153.502692 182.872305 
L 154.466128 182.872305 
L 154.947846 184.831139 
L 155.911281 184.831139 
L 156.392999 184.439372 
L 156.874717 185.923962 
L 157.838152 185.923962 
L 158.31987 186.274491 
L 158.801588 187.655984 
L 159.283306 188.006512 
L 159.765024 188.006512 
L 160.246741 188.645711 
L 160.728459 188.645711 
L 161.210177 189.614819 
L 161.691895 190.233398 
L 162.173613 191.140647 
L 162.65533 192.295329 
L 163.137048 192.56338 
L 163.618766 192.56338 
L 164.100484 193.388152 
L 164.582202 193.676822 
L 165.06392 194.460356 
L 165.545637 194.728407 
L 166.027355 194.728407 
L 166.509073 196.233617 
L 166.990791 196.955293 
L 167.472509 196.955293 
L 167.954226 197.182105 
L 168.435944 197.182105 
L 168.917662 198.563599 
L 169.39938 198.563599 
L 169.881098 200.501814 
L 170.362815 201.51216 
L 170.844533 201.326586 
L 171.326251 201.718353 
L 171.807969 202.68746 
L 172.289687 202.68746 
L 172.771404 203.635949 
L 173.253122 203.635949 
L 173.73484 204.543198 
L 174.216558 204.543198 
L 174.698276 205.945311 
L 175.179993 205.945311 
L 175.661711 206.935038 
L 176.143429 206.935038 
L 176.625147 208.213435 
L 177.106865 208.213435 
L 177.588582 208.97635 
L 178.0703 208.97635 
L 178.471732 210.440321 
L 178.953449 210.440321 
L 179.435167 211.141377 
L 179.916885 211.141377 
L 180.398603 212.378536 
L 180.880321 212.378536 
L 181.362039 213.409501 
L 181.843756 213.924984 
L 182.325474 214.790995 
L 182.807192 214.790995 
L 183.770628 216.090011 
L 184.252345 216.997261 
L 184.734063 216.997261 
L 185.215781 217.780795 
L 185.697499 217.780795 
L 186.179217 219.253013 
L 186.660934 219.253013 
L 187.142652 220.556154 
L 187.62437 220.556154 
L 188.106088 221.704649 
L 188.587806 222.354157 
L 189.069523 222.535607 
L 189.551241 223.428423 
L 190.032959 223.950092 
L 190.514677 224.797545 
L 190.996395 225.129516 
L 191.478112 225.781086 
L 191.95983 226.179039 
L 192.923266 227.341968 
L 193.404984 227.341968 
L 193.886701 228.455411 
L 194.368419 228.816249 
L 194.850137 229.38328 
L 195.331855 230.144132 
L 195.813573 230.618376 
L 196.29529 230.618376 
L 196.777008 231.148293 
L 197.258726 231.148293 
L 197.740444 231.925641 
L 198.222162 231.925641 
L 198.703879 232.987535 
L 199.185597 233.713335 
L 199.667315 234.127783 
L 200.149033 234.127783 
L 200.630751 235.723717 
L 201.112468 235.723717 
L 202.557622 237.229545 
L 203.03934 238.305255 
L 203.521057 238.305255 
L 204.002775 238.900947 
L 204.484493 238.900947 
L 204.966211 239.77005 
L 205.447929 239.77005 
L 205.929646 240.84143 
L 206.411364 240.84143 
L 206.893082 241.827033 
L 207.3748 242.435302 
L 207.856518 242.734282 
L 208.338235 242.734282 
L 208.819953 243.695142 
L 209.783389 244.542596 
L 210.265107 245.169423 
L 210.746824 245.169423 
L 211.228542 246.047805 
L 211.71026 246.047805 
L 212.191978 247.293211 
L 212.673696 247.293211 
L 213.155414 248.654086 
L 214.118849 249.786086 
L 214.600567 249.786086 
L 215.082285 250.903652 
L 215.564003 251.734611 
L 216.04572 252.126377 
L 216.527438 252.126377 
L 217.009156 253.664578 
L 217.490874 253.664578 
L 217.972592 253.942939 
L 218.454309 253.942939 
L 218.936027 254.551208 
L 219.899463 254.714101 
L 220.381181 254.901736 
L 220.862898 254.848126 
L 221.826334 255.008957 
L 222.308052 254.928542 
L 222.78977 255.116177 
L 223.271487 255.008957 
L 224.716641 255.062567 
L 225.198359 255.035762 
L 225.680076 255.277008 
L 226.643512 256.821394 
L 227.12523 256.821394 
L 227.606948 257.046145 
L 228.570383 255.196593 
L 229.052101 255.196593 
L 229.533819 253.664578 
L 230.015537 253.035689 
L 230.497254 251.887193 
L 230.978972 251.887193 
L 231.46069 248.72213 
L 231.942408 248.72213 
L 232.424126 243.979688 
L 233.387561 238.35536 
L 233.869279 238.35536 
L 234.350997 230.950347 
L 235.314432 222.985108 
L 235.79615 217.991112 
L 236.277868 217.991112 
L 236.759586 208.35777 
L 237.241304 208.35777 
L 237.723021 197.429537 
L 238.686457 188.336421 
L 239.168175 188.336421 
L 239.649893 181.22276 
L 240.13161 181.22276 
L 240.613328 174.95449 
L 241.095046 174.95449 
L 241.576764 174.397769 
L 242.058482 173.263707 
L 242.540199 171.469827 
L 243.021917 172.686366 
L 243.503635 172.686366 
L 243.985353 170.851247 
L 244.467071 170.851247 
L 244.948789 170.212049 
L 245.430506 168.871794 
L 245.912224 168.191357 
L 246.393942 168.191357 
L 246.87566 168.871794 
L 247.357378 168.871794 
L 247.839095 172.088406 
L 249.284249 172.088406 
L 249.765967 172.686366 
L 250.247684 172.686366 
L 250.729402 174.397769 
L 251.21112 174.397769 
L 251.692838 173.841047 
L 252.174556 173.841047 
L 252.656273 174.397769 
L 255.064862 174.397769 
L 255.54658 176.026694 
L 256.510016 176.026694 
L 256.991734 179.449499 
L 257.473451 179.903124 
L 257.955169 179.903124 
L 258.436887 178.026767 
L 258.918605 179.449499 
L 259.400323 179.903124 
L 259.88204 179.903124 
L 260.363758 180.33613 
L 260.845476 182.068152 
L 261.327194 182.480538 
L 261.808912 182.480538 
L 262.290629 183.284691 
L 262.772347 183.284691 
L 263.254065 184.068224 
L 264.217501 184.831139 
L 265.180936 187.655984 
L 265.662654 187.655984 
L 266.144372 188.006512 
L 267.107807 188.006512 
L 267.589525 188.336421 
L 268.071243 188.97562 
L 268.552961 188.97562 
L 269.034679 191.140647 
L 269.516396 191.140647 
L 269.998114 192.295329 
L 270.479832 192.295329 
L 270.96155 194.192305 
L 271.443268 194.192305 
L 271.924985 195.738753 
L 272.406703 196.460429 
L 272.888421 196.707861 
L 273.370139 196.707861 
L 273.851857 197.429537 
L 274.333574 197.429537 
L 274.815292 198.336786 
L 275.29701 198.336786 
L 275.778728 199.450229 
L 276.260446 199.450229 
L 276.742164 200.9142 
L 277.223881 200.9142 
L 277.705599 201.326586 
L 278.187317 202.68746 
L 278.669035 203.264801 
L 279.150753 203.264801 
L 279.63247 203.821522 
L 280.114188 203.821522 
L 280.595906 205.244255 
L 281.077624 206.110266 
L 281.559342 206.440175 
L 282.041059 206.935038 
L 282.522777 208.522725 
L 283.004495 208.522725 
L 283.486213 209.429974 
L 283.967931 209.429974 
L 284.449648 209.718645 
L 284.931366 210.873326 
L 285.413084 211.285712 
L 285.894802 211.285712 
L 286.37652 212.502251 
L 286.858237 213.409501 
L 287.339955 213.409501 
L 288.785109 215.512671 
L 289.266826 215.863199 
L 289.748544 216.667352 
L 290.230262 216.770448 
L 290.71198 217.883891 
L 291.193698 217.883891 
L 292.157133 219.04682 
L 292.638851 219.964379 
L 293.120569 220.459243 
L 293.602287 220.556154 
L 294.084004 221.232467 
L 294.565722 221.422165 
L 295.04744 222.26137 
L 295.529158 222.26137 
L 296.010876 223.33976 
L 296.492593 223.517086 
L 296.974311 224.376912 
L 297.456029 224.630529 
L 297.937747 225.129516 
L 298.419465 225.129516 
L 298.901182 226.179039 
L 299.3829 226.649159 
L 299.864618 227.416198 
L 300.346336 227.791469 
L 300.828054 228.309014 
L 301.309771 228.309014 
L 301.791489 229.170901 
L 302.273207 229.170901 
L 302.754925 230.212176 
L 303.236643 230.212176 
L 303.71836 231.280256 
L 304.200078 231.280256 
L 305.163514 232.742165 
L 305.645232 233.171047 
L 306.126949 233.773131 
L 307.090385 234.536045 
L 307.572103 234.536045 
L 308.053821 235.612373 
L 308.535539 236.325801 
L 309.017256 236.701691 
L 309.498974 237.333879 
L 309.980692 238.204632 
L 310.46241 238.654298 
L 310.944128 239.339107 
L 311.907563 240.334195 
L 312.389281 240.334195 
L 312.870999 241.24763 
L 313.352717 241.73837 
L 313.834434 241.73837 
L 314.316152 242.649743 
L 314.79787 243.321933 
L 315.279588 243.775557 
L 315.761306 243.775557 
L 316.243023 244.222996 
L 316.724741 244.222996 
L 317.688177 245.247776 
L 321.060201 245.324067 
L 322.505355 245.515827 
L 322.987073 245.478712 
L 323.46879 245.631295 
L 326.840815 245.324067 
L 327.322533 245.014778 
L 328.285968 243.775557 
L 329.731122 240.932155 
L 330.21284 239.674995 
L 330.694557 238.053081 
L 332.139711 231.797801 
L 333.103146 226.727513 
L 333.584864 226.727513 
L 334.066582 224.036693 
L 334.5483 217.883891 
L 335.030018 217.883891 
L 335.511735 210.295985 
L 335.993453 210.295985 
L 336.475171 201.51216 
L 336.956889 201.51216 
L 337.438607 191.140647 
L 337.920324 191.140647 
L 338.402042 178.975255 
L 338.88376 172.686366 
L 339.365478 163.61387 
L 339.847196 163.61387 
L 340.328914 148.314343 
L 340.810631 148.314343 
L 341.292349 145.180208 
L 344.664374 145.180208 
L 345.146092 146.788514 
L 345.627809 145.180208 
L 346.109527 145.180208 
L 346.591245 141.613067 
L 347.072963 141.613067 
L 347.554681 145.180208 
L 348.999834 145.180208 
L 349.481552 146.788514 
L 349.96327 149.757694 
L 350.444987 148.314343 
L 350.926705 149.757694 
L 351.408423 152.417585 
L 352.371859 152.417585 
L 352.853576 148.314343 
L 353.335294 151.118569 
L 354.29873 151.118569 
L 354.780448 153.654744 
L 355.743883 161.902467 
L 356.225601 161.902467 
L 356.707319 160.995218 
L 357.189037 163.61387 
L 357.670754 162.768478 
L 358.152472 162.768478 
L 358.63419 163.61387 
L 359.115908 163.61387 
L 359.597626 160.995218 
L 360.079343 165.222176 
L 360.561061 165.222176 
L 361.042779 167.4903 
L 361.524497 167.4903 
L 362.006215 170.212049 
L 362.487932 172.088406 
L 362.96965 172.088406 
L 363.451368 174.397769 
L 364.896521 174.397769 
L 365.378239 176.026694 
L 365.859957 176.026694 
L 366.341675 175.490592 
L 366.823393 177.03704 
L 367.30511 177.03704 
L 367.786828 178.026767 
L 368.268546 179.449499 
L 368.750264 182.068152 
L 369.231982 183.284691 
L 370.195417 183.284691 
L 371.158853 184.831139 
L 371.640571 185.923962 
L 372.604006 185.923962 
L 373.085724 186.975547 
L 373.567442 186.975547 
L 374.04916 188.006512 
L 374.530878 188.336421 
L 375.012595 188.336421 
L 375.494313 189.924108 
L 375.976031 192.006658 
L 376.457749 192.295329 
L 376.939467 192.85205 
L 377.421184 193.676822 
L 378.38462 194.728407 
L 378.866338 196.233617 
L 379.348056 196.460429 
L 379.829773 196.460429 
L 380.311491 196.707861 
L 380.793209 196.707861 
L 381.274927 197.182105 
L 382.72008 200.9142 
L 383.201798 201.51216 
L 383.683516 201.51216 
L 384.165234 203.264801 
L 384.646951 203.635949 
L 385.128669 203.821522 
L 385.610387 204.543198 
L 387.05554 204.543198 
L 387.537258 206.605129 
L 388.018976 206.605129 
L 388.500694 207.904146 
L 388.982412 208.66706 
L 389.464129 208.97635 
L 389.945847 208.97635 
L 390.909283 210.584656 
L 391.391001 211.141377 
L 391.872718 211.141377 
L 392.354436 211.966149 
L 392.836154 211.966149 
L 393.317872 213.285785 
L 393.79959 213.285785 
L 394.281307 213.553836 
L 395.244743 215.512671 
L 396.208179 216.543636 
L 396.689896 216.543636 
L 397.171614 217.450886 
L 397.653332 217.883891 
L 398.616768 217.883891 
L 399.098485 219.253013 
L 399.580203 219.253013 
L 400.061921 220.261297 
L 400.543639 220.261297 
L 401.025357 221.517013 
L 401.507074 221.517013 
L 401.988792 222.354157 
L 402.47051 222.354157 
L 402.952228 223.428423 
L 403.433946 223.428423 
L 403.915664 224.880023 
L 404.397381 224.880023 
L 404.879099 225.211994 
L 405.360817 225.939855 
L 405.842535 226.257392 
L 406.324253 227.265677 
L 407.287688 228.527578 
L 408.251124 229.523491 
L 409.214559 230.818384 
L 409.696277 230.884365 
L 410.659713 232.243178 
L 411.141431 232.243178 
L 411.623148 233.292701 
L 412.104866 233.292701 
L 412.586584 234.824715 
L 413.951451 236.540242 
L 414.433169 236.540242 
L 414.8346 237.019641 
L 415.316318 237.019641 
L 415.798036 237.951427 
L 416.199467 237.951427 
L 416.681185 238.305255 
L 417.082617 238.998888 
L 417.564335 238.998888 
L 417.965766 239.242402 
L 418.367198 239.674995 
L 418.768629 239.483442 
L 419.250347 239.722626 
L 419.651778 239.096624 
L 421.177218 238.998888 
L 421.57865 239.387356 
L 423.425235 239.483442 
L 423.74638 238.95002 
L 424.067525 239.096624 
L 425.030961 239.145285 
L 425.352106 240.053772 
L 425.592965 240.053772 
L 425.91411 240.84143 
L 426.154969 240.84143 
L 426.716973 239.77005 
L 427.198691 238.654298 
L 427.43955 238.654298 
L 427.680408 238.204632 
L 427.921267 238.204632 
L 428.162126 237.900498 
L 428.563558 236.808087 
L 428.804417 236.808087 
L 428.964989 236.272191 
L 429.205848 236.272191 
L 429.526993 234.245313 
L 429.687566 234.245313 
L 430.008711 232.368956 
L 430.169284 232.368956 
L 430.24957 231.214274 
L 430.410143 231.214274 
L 430.731288 228.014158 
L 430.89186 228.014158 
L 431.132719 224.121232 
L 431.293292 223.517086 
L 431.453865 223.517086 
L 431.453865 222.077859 
L 431.534151 222.077859 
L 431.935582 212.646587 
L 431.935582 213.162069 
L 431.935582 211.430047 
L 431.935582 214.296131 
L 431.935582 211.698098 
" clip-path="url(#pf343516985)" style="fill: none; stroke: #1f77b4; stroke-width: 1.5; stroke-linecap: square"/>
   </g>
   <g id="line2d_26">
    <path d="M 70.64723 44.86727 
L 431.935582 44.86727 
L 431.935582 44.86727 
" clip-path="url(#pf343516985)" style="fill: none; stroke: #ff7f0e; stroke-width: 1.5; stroke-linecap: square"/>
   </g>
   <g id="line2d_27">
    <path d="M 70.64723 38.578381 
L 89.466339 38.578381 
L 89.931999 102.374523 
L 90.405689 38.578381 
L 91.345038 38.578381 
L 91.818728 108.787128 
L 92.292417 38.578381 
L 97.101566 38.578381 
L 97.583284 67.795941 
L 98.065002 38.578381 
L 100.955309 38.578381 
L 101.437026 93.899987 
L 101.918744 38.578381 
L 102.400462 75.445705 
L 102.88218 75.445705 
L 103.363898 102.374523 
L 103.845615 38.578381 
L 104.327333 116.911135 
L 104.809051 57.012043 
L 105.290769 57.012043 
L 105.772487 38.578381 
L 108.662793 38.578381 
L 109.144511 97.034121 
L 109.626229 86.250223 
L 110.107947 86.250223 
L 110.589665 108.787128 
L 111.071382 106.807674 
L 112.034818 106.807674 
L 112.516536 110.622246 
L 112.998254 112.333649 
L 114.925125 112.333649 
L 115.406843 116.911135 
L 115.88856 116.911135 
L 116.370278 126.251682 
L 116.851996 90.353465 
L 117.333714 106.807674 
L 117.815432 106.807674 
L 118.297149 126.251682 
L 118.778867 115.467784 
L 119.260585 131.592083 
L 119.742303 138.025308 
L 120.224021 134.643741 
L 120.705738 135.344797 
L 121.187456 138.643887 
L 121.669174 136.045854 
L 122.150892 136.045854 
L 122.63261 149.221592 
L 123.114327 67.795941 
L 123.596045 144.2111 
L 124.077763 143.695618 
L 124.559481 147.943195 
L 125.041199 145.180208 
L 125.522917 141.571829 
L 126.486352 154.479516 
L 126.96807 141.571829 
L 127.449788 145.675071 
L 127.931506 145.675071 
L 128.413223 144.2111 
L 128.894941 148.809206 
L 129.376659 158.294088 
L 129.858377 157.696128 
L 130.340095 158.582759 
L 130.821812 157.696128 
L 131.30353 158.005418 
L 131.785248 158.005418 
L 132.266966 159.73744 
L 132.748684 155.159953 
L 133.230401 162.644763 
L 133.712119 162.644763 
L 134.193837 164.582978 
L 134.675555 164.108733 
L 135.63899 166.60367 
L 136.120708 166.376857 
L 136.602426 164.108733 
L 137.084144 163.634489 
L 137.565862 164.582978 
L 138.047579 164.582978 
L 138.529297 164.80979 
L 139.011015 166.60367 
L 139.492733 170.78939 
L 139.974451 172.583269 
L 140.456168 172.418315 
L 140.937886 173.098752 
L 141.419604 174.088479 
L 141.901322 176.129791 
L 142.38304 175.985455 
L 142.864757 175.985455 
L 143.346475 177.32571 
L 143.828193 177.32571 
L 144.309911 179.676312 
L 144.791629 179.676312 
L 145.273346 179.263925 
L 145.755064 179.263925 
L 146.236782 180.31551 
L 146.7185 178.171102 
L 147.681935 178.171102 
L 148.163653 180.191794 
L 148.645371 180.583561 
L 149.127089 180.583561 
L 149.608807 184.274418 
L 150.090524 183.717696 
L 150.572242 183.820793 
L 151.094103 184.274418 
L 151.575821 185.037332 
L 152.057539 185.573434 
L 152.539257 186.831212 
L 153.020974 185.161048 
L 153.502692 187.016786 
L 153.98441 186.831212 
L 154.466128 187.820939 
L 154.947846 187.820939 
L 155.429563 188.109609 
L 155.911281 188.769427 
L 156.392999 188.006512 
L 156.874717 188.006512 
L 157.356435 188.398279 
L 157.838152 189.243671 
L 158.31987 189.243671 
L 158.801588 192.047897 
L 159.283306 193.346913 
L 159.765024 193.883016 
L 160.246741 193.346913 
L 160.728459 193.346913 
L 161.210177 193.821158 
L 161.691895 193.491249 
L 162.173613 193.883016 
L 162.65533 193.821158 
L 163.137048 193.883016 
L 163.618766 193.821158 
L 164.100484 194.584072 
L 164.582202 193.429391 
L 165.06392 193.181959 
L 165.545637 191.449937 
L 166.027355 191.449937 
L 166.509073 191.614892 
L 166.990791 191.120028 
L 167.472509 191.120028 
L 167.954226 192.047897 
L 168.435944 192.047897 
L 168.917662 191.202505 
L 169.39938 191.202505 
L 169.881098 190.068443 
L 170.362815 189.614819 
L 170.844533 189.429245 
L 171.326251 190.7695 
L 171.807969 188.955001 
L 172.289687 188.955001 
L 172.771404 188.398279 
L 173.253122 188.398279 
L 173.73484 186.109536 
L 174.216558 186.109536 
L 174.698276 181.470192 
L 175.179993 181.470192 
L 175.661711 178.872159 
L 176.143429 178.872159 
L 176.625147 178.315437 
L 177.106865 178.315437 
L 177.588582 172.748224 
L 178.0703 172.748224 
L 178.471732 167.242868 
L 178.953449 167.242868 
L 179.435167 161.098314 
L 179.916885 161.098314 
L 180.398603 155.159953 
L 180.880321 155.159953 
L 181.362039 145.180208 
L 181.843756 128.169278 
L 182.325474 136.726291 
L 182.807192 136.726291 
L 183.770628 38.578381 
L 184.252345 90.353465 
L 184.734063 90.353465 
L 185.215781 126.251682 
L 185.697499 126.251682 
L 186.179217 141.571829 
L 186.660934 141.571829 
L 187.142652 127.22079 
L 187.62437 127.22079 
L 188.106088 116.911135 
L 188.587806 142.644033 
L 189.069523 133.159151 
L 189.551241 134.643741 
L 190.032959 129.055908 
L 190.514677 138.643887 
L 190.996395 138.643887 
L 191.478112 112.333649 
L 191.95983 119.571026 
L 192.923266 119.571026 
L 193.404984 118.27201 
L 193.886701 142.107931 
L 194.368419 147.51019 
L 194.850137 142.644033 
L 195.331855 143.695618 
L 195.813573 142.644033 
L 196.29529 142.644033 
L 196.777008 144.2111 
L 197.258726 144.2111 
L 197.740444 143.695618 
L 198.222162 143.695618 
L 198.703879 142.644033 
L 199.185597 138.025308 
L 199.667315 127.22079 
L 200.149033 127.22079 
L 200.630751 124.210371 
L 201.112468 113.941955 
L 202.075904 141.571829 
L 203.521057 141.571829 
L 204.002775 141.015107 
L 204.484493 141.015107 
L 204.966211 139.262466 
L 205.447929 139.262466 
L 205.929646 140.437767 
L 206.411364 140.437767 
L 206.893082 137.36549 
L 207.3748 138.643887 
L 207.856518 113.941955 
L 208.338235 113.941955 
L 208.819953 38.578381 
L 209.301671 123.117547 
L 209.783389 121.983485 
L 210.265107 131.592083 
L 210.746824 131.592083 
L 211.228542 142.107931 
L 211.71026 142.107931 
L 212.191978 141.571829 
L 212.673696 141.571829 
L 213.155414 144.2111 
L 213.637131 149.221592 
L 214.118849 144.705964 
L 214.600567 144.705964 
L 215.082285 145.180208 
L 215.564003 152.726875 
L 216.04572 133.922065 
L 216.527438 133.922065 
L 217.009156 81.384066 
L 217.490874 134.643741 
L 217.972592 138.025308 
L 218.454309 138.025308 
L 218.936027 150.046365 
L 219.417745 149.633979 
L 219.899463 155.159953 
L 220.381181 152.726875 
L 220.862898 154.149607 
L 221.344616 154.479516 
L 221.826334 155.159953 
L 222.308052 155.159953 
L 222.78977 155.819771 
L 223.271487 157.386839 
L 223.753205 157.077549 
L 224.234923 151.221665 
L 224.716641 151.221665 
L 225.198359 151.613432 
L 225.680076 153.448551 
L 226.161794 159.44877 
L 226.643512 161.613797 
L 227.12523 161.613797 
L 227.606948 164.582978 
L 228.088665 164.356165 
L 228.570383 165.263415 
L 229.052101 165.263415 
L 230.015537 167.861448 
L 230.497254 168.067641 
L 230.978972 168.067641 
L 231.46069 168.480027 
L 231.942408 168.480027 
L 232.424126 166.809863 
L 232.905843 155.159953 
L 233.387561 167.655255 
L 233.869279 167.655255 
L 234.832715 170.232668 
L 235.314432 175.057586 
L 235.79615 175.531831 
L 236.277868 175.531831 
L 236.759586 177.03704 
L 237.241304 177.03704 
L 238.204739 178.583488 
L 238.686457 178.995874 
L 239.168175 178.995874 
L 239.649893 179.408261 
L 240.13161 179.408261 
L 240.613328 180.583561 
L 241.095046 180.583561 
L 241.576764 178.995874 
L 242.058482 180.459845 
L 242.540199 181.078425 
L 243.021917 182.789827 
L 243.503635 182.789827 
L 243.985353 187.429172 
L 244.467071 187.429172 
L 244.948789 188.398279 
L 246.393942 187.924035 
L 247.357378 189.88287 
L 247.839095 190.315875 
L 248.320813 190.315875 
L 248.802531 190.851977 
L 249.284249 190.851977 
L 249.765967 191.532414 
L 250.247684 190.7695 
L 250.729402 190.7695 
L 251.21112 191.284983 
L 251.692838 193.264436 
L 252.174556 193.264436 
L 252.656273 196.687242 
L 253.137991 197.03777 
L 253.619709 197.986258 
L 254.101427 197.986258 
L 254.583145 199.470848 
L 255.064862 199.470848 
L 255.54658 200.089428 
L 256.028298 200.02757 
L 256.510016 201.759592 
L 256.991734 202.831796 
L 257.473451 202.893654 
L 257.955169 204.068954 
L 258.436887 202.728699 
L 258.918605 202.934892 
L 259.400323 204.027716 
L 259.88204 204.50196 
L 260.363758 205.367971 
L 260.845476 206.935038 
L 261.327194 207.718572 
L 261.808912 208.130958 
L 262.290629 208.852634 
L 262.772347 209.244401 
L 263.254065 209.945457 
L 263.735783 210.357843 
L 264.217501 210.935184 
L 264.699218 211.265093 
L 266.144372 213.14145 
L 266.62609 212.687825 
L 267.107807 212.687825 
L 267.589525 213.73941 
L 268.071243 214.234273 
L 268.552961 214.234273 
L 269.034679 216.213727 
L 269.516396 216.213727 
L 269.998114 216.646733 
L 270.479832 216.646733 
L 270.96155 217.945749 
L 271.443268 217.945749 
L 271.924985 218.283906 
L 272.406703 219.048882 
L 272.888421 219.407658 
L 273.370139 219.407658 
L 273.851857 219.877778 
L 274.333574 219.877778 
L 274.815292 219.584984 
L 277.223881 219.673647 
L 277.705599 219.908707 
L 278.187317 219.613851 
L 278.669035 219.077749 
L 279.150753 219.077749 
L 279.63247 218.003483 
L 280.114188 218.003483 
L 280.595906 215.327097 
L 281.077624 216.626113 
L 281.559342 215.945676 
L 282.041059 215.512671 
L 282.522777 215.512671 
L 283.004495 214.131177 
L 283.486213 213.512598 
L 284.449648 210.564036 
L 284.931366 210.605275 
L 285.413084 209.429974 
L 285.894802 209.429974 
L 286.37652 207.223708 
L 287.339955 204.398863 
L 288.785109 196.481048 
L 289.748544 189.779773 
L 290.230262 183.717696 
L 290.71198 183.717696 
L 291.193698 176.129791 
L 291.675415 172.748224 
L 292.157133 170.78939 
L 292.638851 173.593616 
L 293.120569 173.593616 
L 293.602287 170.78939 
L 294.565722 172.933798 
L 295.04744 172.067787 
L 295.529158 172.067787 
L 296.010876 173.428661 
L 296.492593 172.933798 
L 296.974311 167.861448 
L 297.456029 166.60367 
L 297.937747 167.036675 
L 298.419465 167.036675 
L 298.901182 166.376857 
L 299.3829 166.376857 
L 299.864618 172.418315 
L 300.828054 170.78939 
L 301.309771 170.78939 
L 301.791489 173.75857 
L 302.273207 173.75857 
L 302.754925 168.892413 
L 303.236643 168.892413 
L 303.71836 166.376857 
L 304.681796 166.376857 
L 305.163514 155.159953 
L 305.645232 155.159953 
L 306.126949 149.633979 
L 306.608667 149.221592 
L 307.090385 158.582759 
L 307.572103 158.582759 
L 308.053821 157.386839 
L 309.017256 156.768259 
L 309.498974 157.077549 
L 309.980692 155.159953 
L 310.46241 134.643741 
L 310.944128 155.159953 
L 311.425845 154.830044 
L 311.907563 143.180135 
L 312.389281 143.180135 
L 312.870999 141.571829 
L 313.352717 144.705964 
L 313.834434 144.705964 
L 314.316152 155.159953 
L 314.79787 158.005418 
L 315.279588 155.819771 
L 315.761306 155.819771 
L 316.243023 155.159953 
L 316.724741 155.159953 
L 317.206459 158.294088 
L 317.688177 157.077549 
L 318.169895 160.294161 
L 318.651612 149.221592 
L 319.13333 147.056565 
L 319.615048 149.221592 
L 320.096766 149.221592 
L 320.578484 155.819771 
L 321.060201 150.046365 
L 321.541919 162.644763 
L 322.023637 165.71704 
L 322.505355 164.108733 
L 322.987073 163.634489 
L 323.46879 164.356165 
L 323.950508 164.108733 
L 324.432226 164.108733 
L 324.913944 165.490227 
L 325.395662 166.170664 
L 325.877379 159.160099 
L 326.359097 158.582759 
L 326.840815 158.582759 
L 327.322533 160.294161 
L 327.804251 162.644763 
L 328.285968 169.861521 
L 328.767686 170.232668 
L 329.249404 170.232668 
L 329.731122 173.098752 
L 330.21284 171.531685 
L 330.694557 173.098752 
L 331.176275 173.098752 
L 332.139711 174.583342 
L 332.621429 169.28418 
L 333.103146 169.469754 
L 333.584864 169.469754 
L 334.066582 170.603816 
L 334.5483 171.346111 
L 335.030018 171.346111 
L 335.511735 178.459772 
L 335.993453 178.459772 
L 336.475171 180.191794 
L 336.956889 180.191794 
L 337.438607 180.459845 
L 337.920324 180.459845 
L 338.402042 182.439299 
L 338.88376 181.717623 
L 339.365478 178.026767 
L 339.847196 178.026767 
L 340.328914 178.872159 
L 340.810631 180.583561 
L 341.292349 181.717623 
L 341.774067 185.69715 
L 342.255785 186.109536 
L 342.737503 186.212633 
L 343.21922 187.429172 
L 343.700938 187.429172 
L 344.182656 188.212706 
L 344.664374 188.583853 
L 345.146092 189.243671 
L 345.627809 189.326148 
L 346.109527 187.717842 
L 346.591245 188.583853 
L 347.072963 188.583853 
L 347.554681 190.934454 
L 348.036398 190.934454 
L 348.518116 190.687023 
L 348.999834 195.24389 
L 349.481552 195.55318 
L 349.96327 196.192378 
L 350.444987 196.625384 
L 350.926705 196.831577 
L 351.408423 197.841923 
L 351.890141 199.140939 
L 352.371859 196.048043 
L 352.853576 197.986258 
L 353.335294 198.378025 
L 354.29873 198.316167 
L 355.262165 202.048262 
L 355.743883 202.543125 
L 357.189037 205.615402 
L 357.670754 205.367971 
L 358.152472 205.367971 
L 358.63419 206.935038 
L 359.115908 206.935038 
L 359.597626 207.223708 
L 360.079343 207.16185 
L 360.561061 207.677333 
L 361.042779 207.677333 
L 362.006215 211.141377 
L 362.487932 211.780576 
L 362.96965 211.780576 
L 363.451368 212.296058 
L 363.933086 213.656933 
L 365.859957 216.461159 
L 366.341675 215.883818 
L 366.823393 216.72921 
L 367.30511 216.72921 
L 367.786828 217.182835 
L 368.750264 220.110776 
L 369.231982 220.54172 
L 369.713699 221.382988 
L 370.677135 222.385086 
L 371.640571 224.009888 
L 372.122289 224.603724 
L 372.604006 224.603724 
L 373.085724 224.480008 
L 373.567442 225.727476 
L 374.04916 226.123367 
L 374.530878 226.123367 
L 375.494313 228.927593 
L 375.976031 229.845152 
L 376.457749 230.284344 
L 376.939467 231.100868 
L 377.421184 231.51944 
L 378.866338 233.985509 
L 379.348056 233.760759 
L 380.311491 235.552577 
L 380.793209 235.552577 
L 381.274927 237.080262 
L 381.756645 237.967923 
L 382.238362 239.168585 
L 384.646951 242.649743 
L 385.610387 243.839477 
L 386.092105 243.839477 
L 386.573823 244.507543 
L 387.05554 244.507543 
L 387.537258 245.091069 
L 388.018976 246.253998 
L 388.500694 247.056089 
L 389.464129 247.872614 
L 391.391001 248.666457 
L 391.872718 248.666457 
L 392.354436 248.188089 
L 392.836154 248.17778 
L 393.317872 247.882924 
L 393.79959 246.684942 
L 394.281307 245.905532 
L 394.763025 245.596242 
L 395.244743 244.60033 
L 396.208179 241.509495 
L 396.689896 241.509495 
L 397.171614 236.507251 
L 397.653332 233.057641 
L 398.13505 233.057641 
L 398.616768 227.908999 
L 399.098485 219.702514 
L 399.580203 219.702514 
L 400.543639 210.893945 
L 401.025357 207.264947 
L 401.507074 207.264947 
L 401.988792 203.697807 
L 402.47051 203.697807 
L 402.952228 202.275074 
L 403.433946 202.275074 
L 403.915664 201.924546 
L 404.397381 196.893435 
L 404.879099 194.584072 
L 405.360817 193.883016 
L 405.842535 191.717988 
L 406.324253 193.346913 
L 407.287688 187.532268 
L 407.769406 184.728042 
L 408.732842 177.614381 
L 409.214559 170.78939 
L 409.696277 160.294161 
L 410.177995 158.582759 
L 410.659713 153.448551 
L 411.141431 153.448551 
L 411.623148 150.438132 
L 412.104866 150.438132 
L 412.586584 166.60367 
L 413.068302 165.71704 
L 413.469733 174.583342 
L 413.951451 165.263415 
L 414.433169 165.263415 
L 414.8346 150.829898 
L 415.316318 150.829898 
L 415.798036 151.98458 
L 416.199467 151.98458 
L 416.681185 154.149607 
L 417.082617 171.346111 
L 417.564335 171.346111 
L 417.965766 170.974963 
L 418.367198 173.098752 
L 418.768629 172.583269 
L 419.250347 172.748224 
L 419.651778 160.830263 
L 420.454641 160.830263 
L 420.856073 162.892194 
L 421.177218 162.892194 
L 421.57865 177.181375 
L 421.980081 177.181375 
L 422.301226 178.026767 
L 422.702658 178.026767 
L 423.023803 178.315437 
L 423.425235 178.315437 
L 423.74638 168.273834 
L 424.067525 168.273834 
L 424.38867 169.861521 
L 424.709815 170.78939 
L 425.030961 170.78939 
L 425.352106 182.315583 
L 425.592965 182.315583 
L 425.91411 184.398133 
L 426.476114 184.398133 
L 426.716973 183.820793 
L 426.957832 175.985455 
L 427.198691 176.294745 
L 427.43955 176.294745 
L 427.680408 176.72775 
L 427.921267 176.72775 
L 428.162126 186.625019 
L 428.402985 187.016786 
L 428.563558 187.717842 
L 428.804417 187.717842 
L 428.964989 188.212706 
L 429.205848 188.212706 
L 429.366421 180.583561 
L 429.687566 180.583561 
L 430.008711 181.717623 
L 430.169284 181.717623 
L 430.24957 188.398279 
L 430.410143 188.398279 
L 430.651002 191.614892 
L 430.731288 187.222979 
L 430.89186 187.222979 
L 431.052433 184.398133 
L 431.132719 185.573434 
L 431.213006 185.161048 
L 431.373578 193.346913 
L 431.453865 193.346913 
L 431.453865 193.491249 
L 431.534151 193.491249 
L 431.614437 186.212633 
L 431.694723 186.625019 
L 431.77501 186.315729 
L 431.855296 194.810884 
L 431.855296 194.810884 
L 431.935582 186.315729 
L 431.935582 196.893435 
L 431.935582 190.687023 
" clip-path="url(#pf343516985)" style="fill: none; stroke: #2ca02c; stroke-width: 1.5; stroke-linecap: square"/>
   </g>
   <g id="line2d_28">
    <path d="M 70.64723 246.289051 
L 70.647262 246.289051 
L 70.702724 246.456068 
L 70.755617 246.161211 
L 70.904146 247.03547 
L 70.944611 247.074647 
L 71.699784 250.264454 
L 71.800944 250.264454 
L 71.909331 250.872723 
L 72.02414 250.872723 
L 72.701757 253.658392 
L 72.859118 253.658392 
L 73.023705 254.534713 
L 73.195517 254.534713 
L 73.560017 256.58221 
L 73.954223 257.835864 
L 74.161361 258.295675 
L 74.376529 258.295675 
L 74.598922 259.39056 
L 74.828541 259.39056 
L 75.064582 259.555514 
L 75.308653 259.555514 
L 75.559949 259.246225 
L 75.818471 259.246225 
L 76.083416 258.295675 
L 76.356389 258.295675 
L 76.924013 256.004869 
L 77.217861 255.054319 
L 77.519737 255.054319 
L 77.82884 252.551135 
L 78.145168 252.551135 
L 78.467919 249.078844 
L 79.478723 242.693044 
L 79.831983 239.638087 
L 80.193271 239.638087 
L 80.562588 233.742202 
L 80.931905 233.742202 
L 81.309251 226.948139 
L 81.694625 226.948139 
L 82.088028 219.00352 
L 82.481431 219.00352 
L 82.882862 211.161996 
L 83.292322 211.161996 
L 83.709811 200.687387 
L 84.1273 200.687387 
L 84.544789 189.532341 
L 84.978335 189.532341 
L 85.411881 175.346257 
L 86.287001 158.087895 
L 86.728576 150.046365 
L 87.178179 148.438059 
L 87.627783 148.438059 
L 88.085415 133.117912 
L 88.543046 133.117912 
L 89.000678 135.922138 
L 89.466339 117.488476 
L 89.931999 122.334014 
L 90.405689 122.334014 
L 90.871349 103.900351 
L 91.345038 93.116453 
L 92.292417 93.116453 
L 92.774135 74.662171 
L 94.211259 74.662171 
L 94.692977 103.900351 
L 95.174695 93.116453 
L 95.656413 111.550115 
L 96.138131 117.488476 
L 99.028437 117.488476 
L 99.510155 135.922138 
L 99.991873 144.891538 
L 100.473591 146.726656 
L 100.955309 140.788295 
L 101.437026 146.726656 
L 101.918744 146.726656 
L 102.400462 148.438059 
L 103.845615 148.438059 
L 104.327333 151.572194 
L 104.809051 150.046365 
L 105.290769 150.046365 
L 106.254204 155.675436 
L 107.21764 158.087895 
L 107.699358 158.087895 
L 108.181076 162.356092 
L 108.662793 161.345746 
L 109.144511 165.160318 
L 109.626229 164.253069 
L 110.107947 164.253069 
L 110.589665 166.871721 
L 111.5531 168.480027 
L 112.034818 168.480027 
L 112.516536 171.449207 
L 112.998254 173.4699 
L 113.479971 174.109098 
L 113.961689 174.109098 
L 114.443407 175.346257 
L 114.925125 175.346257 
L 115.406843 177.098898 
L 115.88856 177.098898 
L 116.851996 178.212341 
L 117.333714 179.800028 
L 117.815432 179.800028 
L 118.297149 180.789754 
L 118.778867 182.70735 
L 119.260585 183.160975 
L 119.742303 184.892997 
L 120.224021 185.326002 
L 120.705738 186.542542 
L 121.187456 186.542542 
L 121.669174 188.460137 
L 122.150892 188.460137 
L 122.63261 190.583926 
L 123.114327 191.264363 
L 123.596045 191.264363 
L 124.077763 192.56338 
L 124.559481 193.181959 
L 125.041199 194.089209 
L 125.522917 194.687169 
L 126.004634 195.55318 
L 126.486352 195.821231 
L 126.96807 196.934673 
L 127.449788 197.718207 
L 127.931506 197.718207 
L 128.413223 199.491468 
L 129.376659 200.9142 
L 129.858377 202.048262 
L 130.340095 202.481267 
L 130.821812 203.759665 
L 131.30353 204.378244 
L 131.785248 204.378244 
L 132.266966 205.945311 
L 132.748684 206.522652 
L 133.230401 207.450521 
L 133.712119 207.986623 
L 134.193837 209.203162 
L 134.675555 209.698025 
L 136.120708 212.2342 
L 136.602426 212.54349 
L 137.565862 213.842507 
L 138.047579 213.842507 
L 138.529297 214.543563 
L 139.011015 216.41992 
L 139.492733 216.687971 
L 139.974451 217.430266 
L 140.456168 217.92513 
L 140.937886 219.00352 
L 141.419604 219.467454 
L 141.901322 220.486048 
L 142.38304 220.706675 
L 142.864757 220.706675 
L 143.346475 222.201574 
L 143.828193 222.201574 
L 144.309911 223.816066 
L 144.791629 223.816066 
L 145.273346 225.242922 
L 145.755064 225.242922 
L 146.236782 226.422347 
L 147.200218 227.719301 
L 147.681935 227.719301 
L 148.163653 229.038937 
L 148.645371 229.43689 
L 149.127089 229.43689 
L 149.608807 231.051382 
L 151.094103 232.989597 
L 151.575821 233.470027 
L 153.502692 236.123732 
L 153.98441 236.307244 
L 154.466128 237.091396 
L 154.947846 237.091396 
L 155.429563 238.366906 
L 155.911281 238.871667 
L 156.392999 239.692109 
L 156.874717 239.692109 
L 157.356435 241.158967 
L 157.838152 241.462071 
L 158.801588 242.884803 
L 159.765024 244.008556 
L 160.246741 244.507543 
L 160.728459 244.507543 
L 161.210177 246.035434 
L 161.691895 246.540607 
L 163.137048 248.544803 
L 163.618766 249.041729 
L 165.545637 251.878946 
L 166.027355 251.878946 
L 166.509073 253.272811 
L 166.990791 253.973868 
L 167.472509 253.973868 
L 167.954226 255.264636 
L 168.435944 255.264636 
L 168.917662 256.553343 
L 169.39938 256.553343 
L 169.881098 257.945146 
L 170.362815 258.798786 
L 170.844533 259.369941 
L 171.326251 260.174094 
L 171.807969 260.627719 
L 172.289687 260.627719 
L 172.771404 261.864877 
L 173.253122 261.864877 
L 173.73484 263.102036 
L 174.216558 263.102036 
L 174.698276 264.380433 
L 175.179993 264.380433 
L 175.661711 265.34954 
L 176.143429 265.34954 
L 176.625147 266.627937 
L 177.106865 266.627937 
L 177.588582 268.071289 
L 178.0703 268.071289 
L 178.471732 269.597118 
L 178.953449 269.597118 
L 179.435167 271.267282 
L 179.916885 271.267282 
L 180.398603 273.019923 
L 180.880321 273.019923 
L 181.362039 274.504513 
L 182.325474 275.679814 
L 182.807192 275.679814 
L 183.28891 276.009723 
L 183.770628 276.009723 
L 184.252345 275.49424 
L 184.734063 275.49424 
L 185.215781 273.782838 
L 185.697499 273.782838 
L 186.179217 270.42189 
L 186.660934 270.42189 
L 187.142652 265.163966 
L 187.62437 265.163966 
L 188.106088 258.26887 
L 189.069523 249.11802 
L 190.032959 238.025244 
L 192.441548 208.502106 
L 192.923266 202.70808 
L 193.404984 202.70808 
L 193.886701 192.872669 
L 194.850137 185.326002 
L 195.331855 183.160975 
L 195.813573 178.748443 
L 196.29529 178.748443 
L 196.777008 174.727678 
L 197.258726 174.727678 
L 197.740444 171.449207 
L 198.222162 171.449207 
L 198.703879 169.263561 
L 199.185597 166.026329 
L 199.667315 165.160318 
L 201.112468 165.160318 
L 201.594186 164.253069 
L 202.075904 166.871721 
L 202.557622 167.696493 
L 203.03934 167.696493 
L 203.521057 170.748151 
L 204.484493 170.748151 
L 204.966211 173.4699 
L 205.447929 173.4699 
L 205.929646 174.109098 
L 206.411364 174.109098 
L 206.893082 177.655619 
L 208.338235 177.655619 
L 208.819953 178.212341 
L 209.301671 180.294891 
L 209.783389 180.789754 
L 210.265107 184.047605 
L 210.746824 184.047605 
L 211.228542 184.892997 
L 211.71026 184.892997 
L 212.191978 185.738389 
L 212.673696 185.738389 
L 213.637131 188.810666 
L 214.118849 189.181813 
L 214.600567 189.181813 
L 215.082285 191.264363 
L 216.527438 191.264363 
L 217.009156 191.594272 
L 217.972592 194.089209 
L 218.454309 194.089209 
L 218.936027 195.55318 
L 219.417745 196.377952 
L 219.899463 196.646003 
L 220.381181 197.182105 
L 220.862898 197.986258 
L 221.344616 197.718207 
L 221.826334 199.965712 
L 222.308052 199.71828 
L 222.78977 200.213143 
L 223.271487 200.213143 
L 223.753205 201.367825 
L 224.234923 201.594637 
L 224.716641 201.594637 
L 225.198359 201.821449 
L 225.680076 203.347278 
L 226.161794 203.965858 
L 226.643512 204.770011 
L 227.12523 204.770011 
L 228.088665 206.893799 
L 228.570383 207.079373 
L 229.052101 207.079373 
L 229.533819 208.852634 
L 230.015537 209.698025 
L 230.497254 210.027934 
L 230.978972 210.027934 
L 231.46069 211.615621 
L 231.942408 211.615621 
L 233.387561 213.698171 
L 233.869279 213.698171 
L 234.832715 215.904437 
L 235.314432 216.687971 
L 235.79615 216.811687 
L 236.277868 216.811687 
L 236.759586 218.290092 
L 237.241304 218.290092 
L 237.723021 219.467454 
L 238.204739 220.263359 
L 238.686457 220.59533 
L 239.168175 220.59533 
L 239.649893 222.098478 
L 240.13161 222.098478 
L 240.613328 223.420176 
L 241.095046 223.420176 
L 241.576764 223.816066 
L 242.058482 225.150136 
L 242.540199 225.612008 
L 243.021917 226.422347 
L 243.503635 226.422347 
L 243.985353 227.381145 
L 244.467071 227.381145 
L 244.948789 228.878107 
L 245.912224 229.985364 
L 246.393942 229.985364 
L 246.87566 231.420467 
L 247.839095 232.641131 
L 248.320813 232.641131 
L 248.802531 233.808183 
L 249.284249 233.808183 
L 250.247684 235.814442 
L 250.729402 235.814442 
L 251.21112 236.792828 
L 251.692838 237.269134 
L 252.174556 237.269134 
L 252.656273 238.592463 
L 253.619709 239.799536 
L 254.101427 239.799536 
L 254.583145 241.107419 
L 255.064862 241.107419 
L 256.028298 242.257976 
L 256.510016 243.359047 
L 258.436887 245.907594 
L 258.918605 246.37359 
L 259.400323 247.237539 
L 259.88204 247.680854 
L 261.327194 249.751033 
L 261.808912 250.264454 
L 263.254065 252.318137 
L 263.735783 252.848053 
L 264.217501 253.594472 
L 264.699218 254.068716 
L 265.180936 254.932665 
L 266.144372 256.178072 
L 266.62609 256.922429 
L 267.107807 256.922429 
L 267.589525 258.427638 
L 268.071243 258.955493 
L 268.552961 258.955493 
L 269.034679 260.607099 
L 269.516396 260.607099 
L 269.998114 262.07107 
L 270.479832 262.07107 
L 270.96155 263.349467 
L 271.443268 263.349467 
L 271.924985 264.875296 
L 272.888421 266.298028 
L 273.370139 266.298028 
L 273.851857 267.823857 
L 274.333574 267.823857 
L 274.815292 269.287828 
L 275.29701 269.287828 
L 275.778728 270.875515 
L 276.260446 270.875515 
L 276.742164 272.236389 
L 277.223881 272.236389 
L 277.705599 273.638502 
L 278.187317 274.422036 
L 278.669035 274.958138 
L 279.150753 274.958138 
L 279.63247 276.11282 
L 280.114188 276.11282 
L 280.595906 277.267501 
L 281.077624 278.112892 
L 281.559342 278.669614 
L 282.041059 279.411909 
L 282.522777 279.411909 
L 283.486213 280.793403 
L 283.967931 282.298612 
L 285.413084 284.958503 
L 285.894802 284.958503 
L 286.37652 286.504951 
L 286.858237 286.752383 
L 289.748544 289.329797 
L 290.230262 289.494751 
L 290.71198 289.494751 
L 291.193698 288.690598 
L 291.675415 287.102911 
L 292.157133 284.793549 
L 293.120569 276.69016 
L 294.084004 266.586699 
L 295.04744 254.068716 
L 295.529158 254.068716 
L 296.010876 240.119548 
L 297.456029 223.717094 
L 297.937747 219.236518 
L 298.419465 219.236518 
L 298.901182 209.533071 
L 299.864618 204.770011 
L 300.828054 200.213143 
L 301.309771 200.213143 
L 301.791489 196.109901 
L 302.273207 196.109901 
L 302.754925 192.56338 
L 303.236643 192.56338 
L 303.71836 190.913835 
L 304.200078 190.913835 
L 304.681796 189.532341 
L 305.163514 186.934308 
L 306.126949 186.934308 
L 306.608667 187.326075 
L 307.090385 188.460137 
L 307.572103 188.460137 
L 308.053821 188.08899 
L 308.535539 189.532341 
L 309.017256 189.88287 
L 309.498974 191.264363 
L 311.425845 191.264363 
L 311.907563 191.594272 
L 312.389281 191.594272 
L 312.870999 192.233471 
L 313.352717 193.491249 
L 313.834434 193.491249 
L 314.316152 195.264509 
L 314.79787 196.109901 
L 315.279588 195.821231 
L 315.761306 195.821231 
L 316.243023 197.182105 
L 316.724741 197.182105 
L 317.206459 198.996604 
L 318.169895 199.965712 
L 318.651612 199.71828 
L 319.13333 200.213143 
L 319.615048 200.439956 
L 320.096766 200.439956 
L 320.578484 200.687387 
L 321.541919 203.120466 
L 322.023637 203.347278 
L 322.505355 203.965858 
L 323.46879 204.770011 
L 323.950508 205.574164 
L 324.432226 205.574164 
L 324.913944 206.337078 
L 325.395662 206.708226 
L 325.877379 206.893799 
L 326.840815 206.893799 
L 327.322533 207.615475 
L 328.285968 209.86298 
L 328.767686 210.027934 
L 329.249404 211.161996 
L 329.731122 211.306332 
L 330.694557 212.54349 
L 331.176275 212.378536 
L 331.657993 213.698171 
L 332.139711 214.275512 
L 332.621429 214.543563 
L 333.103146 214.955949 
L 333.584864 214.955949 
L 334.066582 215.492051 
L 334.5483 216.687971 
L 335.030018 216.687971 
L 335.511735 218.048846 
L 335.993453 218.048846 
L 336.475171 219.69839 
L 336.956889 219.69839 
L 337.438607 220.706675 
L 337.920324 220.706675 
L 338.402042 221.677844 
L 339.365478 222.818092 
L 339.847196 222.818092 
L 341.774067 226.245021 
L 342.737503 227.207943 
L 343.21922 228.139935 
L 343.700938 228.139935 
L 344.182656 229.358537 
L 344.664374 229.43689 
L 345.146092 230.294653 
L 346.109527 231.420467 
L 346.591245 231.785429 
L 347.072963 231.785429 
L 347.554681 232.571025 
L 348.036398 232.571025 
L 349.96327 235.814442 
L 350.926705 236.551582 
L 351.408423 237.091396 
L 351.890141 237.910189 
L 352.371859 238.196591 
L 353.335294 239.530042 
L 353.817012 239.530042 
L 354.29873 240.954836 
L 354.780448 241.31155 
L 355.262165 242.20849 
L 357.189037 244.641568 
L 357.670754 245.128184 
L 358.152472 245.128184 
L 358.63419 246.497306 
L 359.115908 246.497306 
L 359.597626 247.520024 
L 360.079343 247.959215 
L 360.561061 248.889146 
L 361.042779 248.889146 
L 362.006215 250.835609 
L 362.487932 251.396454 
L 362.96965 251.396454 
L 363.451368 252.617117 
L 363.933086 253.142909 
L 364.414804 254.037787 
L 364.896521 254.534713 
L 365.378239 255.384228 
L 365.859957 255.858472 
L 366.823393 257.314196 
L 367.30511 257.314196 
L 367.786828 257.809059 
L 368.268546 259.493657 
L 368.750264 260.132855 
L 370.195417 262.462837 
L 371.640571 264.483529 
L 372.122289 265.34954 
L 372.604006 265.34954 
L 373.085724 265.926881 
L 373.567442 267.349613 
L 374.04916 268.277482 
L 374.530878 268.277482 
L 375.012595 269.782692 
L 376.939467 272.937446 
L 378.38462 275.040615 
L 380.311491 278.17475 
L 380.793209 278.17475 
L 381.274927 279.597483 
L 382.238362 281.143931 
L 383.201798 282.731618 
L 385.610387 286.608048 
L 386.092105 286.608048 
L 386.573823 287.72149 
L 387.05554 287.72149 
L 387.537258 288.381308 
L 388.018976 289.288558 
L 388.500694 289.783421 
L 389.945847 290.670052 
L 391.391001 291.061819 
L 391.872718 291.061819 
L 393.317872 291.453585 
L 394.281307 291.680398 
L 397.171614 291.659778 
L 397.653332 291.556682 
L 398.13505 291.30925 
L 398.616768 291.30925 
L 399.098485 287.041053 
L 399.580203 287.041053 
L 400.061921 270.112601 
L 400.543639 270.112601 
L 401.025357 246.119973 
L 401.507074 246.119973 
L 401.988792 224.776926 
L 402.47051 224.776926 
L 402.952228 211.161996 
L 403.433946 211.161996 
L 403.915664 206.708226 
L 404.397381 199.71828 
L 405.360817 195.264509 
L 405.842535 194.398498 
L 406.324253 194.687169 
L 406.80597 192.872669 
L 407.287688 191.594272 
L 407.769406 191.903562 
L 408.251124 190.913835 
L 408.732842 192.872669 
L 409.214559 188.810666 
L 409.696277 190.583926 
L 410.177995 189.88287 
L 410.659713 190.913835 
L 411.141431 190.913835 
L 411.623148 189.88287 
L 412.104866 189.88287 
L 412.586584 194.089209 
L 413.068302 195.55318 
L 413.951451 197.182105 
L 414.433169 197.182105 
L 414.8346 196.109901 
L 415.316318 196.109901 
L 415.798036 199.71828 
L 416.681185 199.71828 
L 417.082617 202.254455 
L 417.564335 202.254455 
L 417.965766 203.553471 
L 418.367198 205.945311 
L 418.768629 205.182397 
L 419.250347 205.759737 
L 419.651778 205.574164 
L 420.05321 205.574164 
L 420.454641 206.151504 
L 420.856073 207.986623 
L 421.177218 207.986623 
L 421.57865 210.192889 
L 421.980081 210.192889 
L 422.301226 211.615621 
L 422.702658 211.615621 
L 423.023803 212.54349 
L 423.425235 212.54349 
L 423.74638 212.687825 
L 424.067525 212.687825 
L 424.38867 214.399228 
L 425.030961 214.399228 
L 425.352106 218.048846 
L 425.592965 218.048846 
L 425.91411 219.12105 
L 426.154969 219.12105 
L 426.476114 219.236518 
L 426.716973 218.88599 
L 426.957832 219.467454 
L 427.198691 220.486048 
L 427.43955 220.486048 
L 427.680408 220.263359 
L 427.921267 220.263359 
L 428.162126 222.409829 
L 428.402985 222.919126 
L 428.563558 224.395469 
L 428.804417 224.395469 
L 428.964989 225.884183 
L 429.205848 225.884183 
L 429.526993 224.395469 
L 429.687566 224.395469 
L 429.848139 224.869713 
L 430.008711 225.974908 
L 430.169284 225.974908 
L 430.24957 226.774937 
L 430.410143 226.774937 
L 430.651002 227.294544 
L 430.731288 226.948139 
L 430.89186 226.948139 
L 431.052433 227.719301 
L 431.213006 228.222413 
L 431.373578 229.595659 
L 431.453865 229.595659 
L 431.453865 229.909072 
L 431.534151 229.909072 
L 431.694723 228.715214 
L 431.694723 228.715214 
L 431.77501 229.199768 
L 431.855296 231.125611 
L 431.855296 231.125611 
L 431.935582 229.830719 
L 431.935582 230.826631 
L 431.935582 237.032012 
L 431.935582 236.123732 
" clip-path="url(#pf343516985)" style="fill: none; stroke: #d62728; stroke-width: 1.5; stroke-linecap: square"/>
   </g>
   <g id="patch_3">
    <path d="M 52.582813 304.44375 
L 52.582813 25.918125 
" style="fill: none; stroke: #000000; stroke-width: 0.8; stroke-linejoin: miter; stroke-linecap: square"/>
   </g>
   <g id="patch_4">
    <path d="M 450 304.44375 
L 450 25.918125 
" style="fill: none; stroke: #000000; stroke-width: 0.8; stroke-linejoin: miter; stroke-linecap: square"/>
   </g>
   <g id="patch_5">
    <path d="M 52.582813 304.44375 
L 450 304.44375 
" style="fill: none; stroke: #000000; stroke-width: 0.8; stroke-linejoin: miter; stroke-linecap: square"/>
   </g>
   <g id="patch_6">
    <path d="M 52.582813 25.918125 
L 450 25.918125 
" style="fill: none; stroke: #000000; stroke-width: 0.8; stroke-linejoin: miter; stroke-linecap: square"/>
   </g>
   <g id="text_15">
    <!-- Wall Distance [mm] -->
    <g transform="translate(192.311406 19.918125)scale(0.12 -0.12)">
     <use xlink:href="#DejaVuSans-57"/>
     <use xlink:href="#DejaVuSans-61" x="92.501953"/>
     <use xlink:href="#DejaVuSans-6c" x="153.78125"/>
     <use xlink:href="#DejaVuSans-6c" x="181.564453"/>
     <use xlink:href="#DejaVuSans-20" x="209.347656"/>
     <use xlink:href="#DejaVuSans-44" x="241.134766"/>
     <use xlink:href="#DejaVuSans-69" x="318.136719"/>
     <use xlink:href="#DejaVuSans-73" x="345.919922"/>
     <use xlink:href="#DejaVuSans-74" x="398.019531"/>
     <use xlink:href="#DejaVuSans-61" x="437.228516"/>
     <use xlink:href="#DejaVuSans-6e" x="498.507812"/>
     <use xlink:href="#DejaVuSans-63" x="561.886719"/>
     <use xlink:href="#DejaVuSans-65" x="616.867188"/>
     <use xlink:href="#DejaVuSans-20" x="678.390625"/>
     <use xlink:href="#DejaVuSans-5b" x="710.177734"/>
     <use xlink:href="#DejaVuSans-6d" x="749.191406"/>
     <use xlink:href="#DejaVuSans-6d" x="846.603516"/>
     <use xlink:href="#DejaVuSans-5d" x="944.015625"/>
    </g>
   </g>
   <g id="legend_1">
    <g id="patch_7">
     <path d="M 59.582813 299.44375 
L 146.382813 299.44375 
Q 148.382813 299.44375 148.382813 297.44375 
L 148.382813 239.73125 
Q 148.382813 237.73125 146.382813 237.73125 
L 59.582813 237.73125 
Q 57.582813 237.73125 57.582813 239.73125 
L 57.582813 297.44375 
Q 57.582813 299.44375 59.582813 299.44375 
z
" style="fill: #ffffff; opacity: 0.8; stroke: #cccccc; stroke-linejoin: miter"/>
    </g>
    <g id="line2d_29">
     <path d="M 61.582813 245.829687 
L 71.582813 245.829687 
L 81.582813 245.829687 
" style="fill: none; stroke: #1f77b4; stroke-width: 1.5; stroke-linecap: square"/>
    </g>
    <g id="text_16">
     <!-- Left Side -->
     <g transform="translate(89.582813 249.329687)scale(0.1 -0.1)">
      <defs>
       <path id="DejaVuSans-4c" d="M 628 4666 
L 1259 4666 
L 1259 531 
L 3531 531 
L 3531 0 
L 628 0 
L 628 4666 
z
" transform="scale(0.015625)"/>
       <path id="DejaVuSans-66" d="M 2375 4863 
L 2375 4384 
L 1825 4384 
Q 1516 4384 1395 4259 
Q 1275 4134 1275 3809 
L 1275 3500 
L 2222 3500 
L 2222 3053 
L 1275 3053 
L 1275 0 
L 697 0 
L 697 3053 
L 147 3053 
L 147 3500 
L 697 3500 
L 697 3744 
Q 697 4328 969 4595 
Q 1241 4863 1831 4863 
L 2375 4863 
z
" transform="scale(0.015625)"/>
       <path id="DejaVuSans-53" d="M 3425 4513 
L 3425 3897 
Q 3066 4069 2747 4153 
Q 2428 4238 2131 4238 
Q 1616 4238 1336 4038 
Q 1056 3838 1056 3469 
Q 1056 3159 1242 3001 
Q 1428 2844 1947 2747 
L 2328 2669 
Q 3034 2534 3370 2195 
Q 3706 1856 3706 1288 
Q 3706 609 3251 259 
Q 2797 -91 1919 -91 
Q 1588 -91 1214 -16 
Q 841 59 441 206 
L 441 856 
Q 825 641 1194 531 
Q 1563 422 1919 422 
Q 2459 422 2753 634 
Q 3047 847 3047 1241 
Q 3047 1584 2836 1778 
Q 2625 1972 2144 2069 
L 1759 2144 
Q 1053 2284 737 2584 
Q 422 2884 422 3419 
Q 422 4038 858 4394 
Q 1294 4750 2059 4750 
Q 2388 4750 2728 4690 
Q 3069 4631 3425 4513 
z
" transform="scale(0.015625)"/>
       <path id="DejaVuSans-64" d="M 2906 2969 
L 2906 4863 
L 3481 4863 
L 3481 0 
L 2906 0 
L 2906 525 
Q 2725 213 2448 61 
Q 2172 -91 1784 -91 
Q 1150 -91 751 415 
Q 353 922 353 1747 
Q 353 2572 751 3078 
Q 1150 3584 1784 3584 
Q 2172 3584 2448 3432 
Q 2725 3281 2906 2969 
z
M 947 1747 
Q 947 1113 1208 752 
Q 1469 391 1925 391 
Q 2381 391 2643 752 
Q 2906 1113 2906 1747 
Q 2906 2381 2643 2742 
Q 2381 3103 1925 3103 
Q 1469 3103 1208 2742 
Q 947 2381 947 1747 
z
" transform="scale(0.015625)"/>
      </defs>
      <use xlink:href="#DejaVuSans-4c"/>
      <use xlink:href="#DejaVuSans-65" x="53.962891"/>
      <use xlink:href="#DejaVuSans-66" x="115.486328"/>
      <use xlink:href="#DejaVuSans-74" x="148.941406"/>
      <use xlink:href="#DejaVuSans-20" x="188.150391"/>
      <use xlink:href="#DejaVuSans-53" x="219.9375"/>
      <use xlink:href="#DejaVuSans-69" x="283.414062"/>
      <use xlink:href="#DejaVuSans-64" x="311.197266"/>
      <use xlink:href="#DejaVuSans-65" x="374.673828"/>
     </g>
    </g>
    <g id="line2d_30">
     <path d="M 61.582813 260.507812 
L 71.582813 260.507812 
L 81.582813 260.507812 
" style="fill: none; stroke: #ff7f0e; stroke-width: 1.5; stroke-linecap: square"/>
    </g>
    <g id="text_17">
     <!-- Left Front -->
     <g transform="translate(89.582813 264.007812)scale(0.1 -0.1)">
      <defs>
       <path id="DejaVuSans-46" d="M 628 4666 
L 3309 4666 
L 3309 4134 
L 1259 4134 
L 1259 2759 
L 3109 2759 
L 3109 2228 
L 1259 2228 
L 1259 0 
L 628 0 
L 628 4666 
z
" transform="scale(0.015625)"/>
      </defs>
      <use xlink:href="#DejaVuSans-4c"/>
      <use xlink:href="#DejaVuSans-65" x="53.962891"/>
      <use xlink:href="#DejaVuSans-66" x="115.486328"/>
      <use xlink:href="#DejaVuSans-74" x="148.941406"/>
      <use xlink:href="#DejaVuSans-20" x="188.150391"/>
      <use xlink:href="#DejaVuSans-46" x="219.9375"/>
      <use xlink:href="#DejaVuSans-72" x="270.207031"/>
      <use xlink:href="#DejaVuSans-6f" x="309.070312"/>
      <use xlink:href="#DejaVuSans-6e" x="370.251953"/>
      <use xlink:href="#DejaVuSans-74" x="433.630859"/>
     </g>
    </g>
    <g id="line2d_31">
     <path d="M 61.582813 275.185937 
L 71.582813 275.185937 
L 81.582813 275.185937 
" style="fill: none; stroke: #2ca02c; stroke-width: 1.5; stroke-linecap: square"/>
    </g>
    <g id="text_18">
     <!-- Right Front -->
     <g transform="translate(89.582813 278.685937)scale(0.1 -0.1)">
      <defs>
       <path id="DejaVuSans-52" d="M 2841 2188 
Q 3044 2119 3236 1894 
Q 3428 1669 3622 1275 
L 4263 0 
L 3584 0 
L 2988 1197 
Q 2756 1666 2539 1819 
Q 2322 1972 1947 1972 
L 1259 1972 
L 1259 0 
L 628 0 
L 628 4666 
L 2053 4666 
Q 2853 4666 3247 4331 
Q 3641 3997 3641 3322 
Q 3641 2881 3436 2590 
Q 3231 2300 2841 2188 
z
M 1259 4147 
L 1259 2491 
L 2053 2491 
Q 2509 2491 2742 2702 
Q 2975 2913 2975 3322 
Q 2975 3731 2742 3939 
Q 2509 4147 2053 4147 
L 1259 4147 
z
" transform="scale(0.015625)"/>
       <path id="DejaVuSans-67" d="M 2906 1791 
Q 2906 2416 2648 2759 
Q 2391 3103 1925 3103 
Q 1463 3103 1205 2759 
Q 947 2416 947 1791 
Q 947 1169 1205 825 
Q 1463 481 1925 481 
Q 2391 481 2648 825 
Q 2906 1169 2906 1791 
z
M 3481 434 
Q 3481 -459 3084 -895 
Q 2688 -1331 1869 -1331 
Q 1566 -1331 1297 -1286 
Q 1028 -1241 775 -1147 
L 775 -588 
Q 1028 -725 1275 -790 
Q 1522 -856 1778 -856 
Q 2344 -856 2625 -561 
Q 2906 -266 2906 331 
L 2906 616 
Q 2728 306 2450 153 
Q 2172 0 1784 0 
Q 1141 0 747 490 
Q 353 981 353 1791 
Q 353 2603 747 3093 
Q 1141 3584 1784 3584 
Q 2172 3584 2450 3431 
Q 2728 3278 2906 2969 
L 2906 3500 
L 3481 3500 
L 3481 434 
z
" transform="scale(0.015625)"/>
       <path id="DejaVuSans-68" d="M 3513 2113 
L 3513 0 
L 2938 0 
L 2938 2094 
Q 2938 2591 2744 2837 
Q 2550 3084 2163 3084 
Q 1697 3084 1428 2787 
Q 1159 2491 1159 1978 
L 1159 0 
L 581 0 
L 581 4863 
L 1159 4863 
L 1159 2956 
Q 1366 3272 1645 3428 
Q 1925 3584 2291 3584 
Q 2894 3584 3203 3211 
Q 3513 2838 3513 2113 
z
" transform="scale(0.015625)"/>
      </defs>
      <use xlink:href="#DejaVuSans-52"/>
      <use xlink:href="#DejaVuSans-69" x="69.482422"/>
      <use xlink:href="#DejaVuSans-67" x="97.265625"/>
      <use xlink:href="#DejaVuSans-68" x="160.742188"/>
      <use xlink:href="#DejaVuSans-74" x="224.121094"/>
      <use xlink:href="#DejaVuSans-20" x="263.330078"/>
      <use xlink:href="#DejaVuSans-46" x="295.117188"/>
      <use xlink:href="#DejaVuSans-72" x="345.386719"/>
      <use xlink:href="#DejaVuSans-6f" x="384.25"/>
      <use xlink:href="#DejaVuSans-6e" x="445.431641"/>
      <use xlink:href="#DejaVuSans-74" x="508.810547"/>
     </g>
    </g>
    <g id="line2d_32">
     <path d="M 61.582813 289.864062 
L 71.582813 289.864062 
L 81.582813 289.864062 
" style="fill: none; stroke: #d62728; stroke-width: 1.5; stroke-linecap: square"/>
    </g>
    <g id="text_19">
     <!-- Right Side -->
     <g transform="translate(89.582813 293.364062)scale(0.1 -0.1)">
      <use xlink:href="#DejaVuSans-52"/>
      <use xlink:href="#DejaVuSans-69" x="69.482422"/>
      <use xlink:href="#DejaVuSans-67" x="97.265625"/>
      <use xlink:href="#DejaVuSans-68" x="160.742188"/>
      <use xlink:href="#DejaVuSans-74" x="224.121094"/>
      <use xlink:href="#DejaVuSans-20" x="263.330078"/>
      <use xlink:href="#DejaVuSans-53" x="295.117188"/>
      <use xlink:href="#DejaVuSans-69" x="358.59375"/>
      <use xlink:href="#DejaVuSans-64" x="386.376953"/>
      <use xlink:href="#DejaVuSans-65" x="449.853516"/>
     </g>
    </g>
   </g>
  </g>
 </g>
 <defs>
  <clipPath id="pf343516985">
   <rect x="52.582813" y="25.918125" width="397.417187" height="278.525625"/>
  </clipPath>
 </defs>
</svg>
