<?xml version="1.0" encoding="utf-8" standalone="no"?>
<!DOCTYPE svg PUBLIC "-//W3C//DTD SVG 1.1//EN"
  "http://www.w3.org/Graphics/SVG/1.1/DTD/svg11.dtd">
<svg xmlns:xlink="http://www.w3.org/1999/xlink" width="576pt" height="360pt" viewBox="0 0 576 360" xmlns="http://www.w3.org/2000/svg" version="1.1">
 <metadata>
  <rdf:RDF xmlns:dc="http://purl.org/dc/elements/1.1/" xmlns:cc="http://creativecommons.org/ns#" xmlns:rdf="http://www.w3.org/1999/02/22-rdf-syntax-ns#">
   <cc:Work>
    <dc:type rdf:resource="http://purl.org/dc/dcmitype/StillImage"/>
    <dc:date>2022-01-09T23:18:18.775673</dc:date>
    <dc:format>image/svg+xml</dc:format>
    <dc:creator>
     <cc:Agent>
      <dc:title>Matplotlib v3.5.1, https://matplotlib.org/</dc:title>
     </cc:Agent>
    </dc:creator>
   </cc:Work>
  </rdf:RDF>
 </metadata>
 <defs>
  <style type="text/css">*{stroke-linejoin: round; stroke-linecap: butt}</style>
 </defs>
 <g id="figure_1">
  <g id="patch_1">
   <path d="M 0 360 
L 576 360 
L 576 0 
L 0 0 
z
" style="fill: #ffffff"/>
  </g>
  <g id="axes_1">
   <g id="patch_2">
    <path d="M 59.42 143.44 
L 565.2 143.44 
L 565.2 25.44 
L 59.42 25.44 
z
" style="fill: #ffffff"/>
   </g>
   <g id="matplotlib.axis_1">
    <g id="xtick_1">
     <g id="line2d_1">
      <path d="M 82.41 143.44 
L 82.41 25.44 
" clip-path="url(#pcc4b47737f)" style="fill: none; stroke: #b0b0b0; stroke-width: 0.8; stroke-linecap: square"/>
     </g>
     <g id="line2d_2">
      <defs>
       <path id="m5b3430c408" d="M 0 0 
L 0 3.5 
" style="stroke: #000000; stroke-width: 0.8"/>
      </defs>
      <g>
       <use xlink:href="#m5b3430c408" x="82.41" y="143.44" style="stroke: #000000; stroke-width: 0.8"/>
      </g>
     </g>
     <g id="text_1">
      <!-- 0 -->
      <g transform="translate(79.22875 158.038438)scale(0.1 -0.1)">
       <defs>
        <path id="DejaVuSans-30" d="M 2034 4250 
Q 1547 4250 1301 3770 
Q 1056 3291 1056 2328 
Q 1056 1369 1301 889 
Q 1547 409 2034 409 
Q 2525 409 2770 889 
Q 3016 1369 3016 2328 
Q 3016 3291 2770 3770 
Q 2525 4250 2034 4250 
z
M 2034 4750 
Q 2819 4750 3233 4129 
Q 3647 3509 3647 2328 
Q 3647 1150 3233 529 
Q 2819 -91 2034 -91 
Q 1250 -91 836 529 
Q 422 1150 422 2328 
Q 422 3509 836 4129 
Q 1250 4750 2034 4750 
z
" transform="scale(0.015625)"/>
       </defs>
       <use xlink:href="#DejaVuSans-30"/>
      </g>
     </g>
    </g>
    <g id="xtick_2">
     <g id="line2d_3">
      <path d="M 167.558148 143.44 
L 167.558148 25.44 
" clip-path="url(#pcc4b47737f)" style="fill: none; stroke: #b0b0b0; stroke-width: 0.8; stroke-linecap: square"/>
     </g>
     <g id="line2d_4">
      <g>
       <use xlink:href="#m5b3430c408" x="167.558148" y="143.44" style="stroke: #000000; stroke-width: 0.8"/>
      </g>
     </g>
     <g id="text_2">
      <!-- 50 -->
      <g transform="translate(161.195648 158.038438)scale(0.1 -0.1)">
       <defs>
        <path id="DejaVuSans-35" d="M 691 4666 
L 3169 4666 
L 3169 4134 
L 1269 4134 
L 1269 2991 
Q 1406 3038 1543 3061 
Q 1681 3084 1819 3084 
Q 2600 3084 3056 2656 
Q 3513 2228 3513 1497 
Q 3513 744 3044 326 
Q 2575 -91 1722 -91 
Q 1428 -91 1123 -41 
Q 819 9 494 109 
L 494 744 
Q 775 591 1075 516 
Q 1375 441 1709 441 
Q 2250 441 2565 725 
Q 2881 1009 2881 1497 
Q 2881 1984 2565 2268 
Q 2250 2553 1709 2553 
Q 1456 2553 1204 2497 
Q 953 2441 691 2322 
L 691 4666 
z
" transform="scale(0.015625)"/>
       </defs>
       <use xlink:href="#DejaVuSans-35"/>
       <use xlink:href="#DejaVuSans-30" x="63.623047"/>
      </g>
     </g>
    </g>
    <g id="xtick_3">
     <g id="line2d_5">
      <path d="M 252.706296 143.44 
L 252.706296 25.44 
" clip-path="url(#pcc4b47737f)" style="fill: none; stroke: #b0b0b0; stroke-width: 0.8; stroke-linecap: square"/>
     </g>
     <g id="line2d_6">
      <g>
       <use xlink:href="#m5b3430c408" x="252.706296" y="143.44" style="stroke: #000000; stroke-width: 0.8"/>
      </g>
     </g>
     <g id="text_3">
      <!-- 100 -->
      <g transform="translate(243.162546 158.038438)scale(0.1 -0.1)">
       <defs>
        <path id="DejaVuSans-31" d="M 794 531 
L 1825 531 
L 1825 4091 
L 703 3866 
L 703 4441 
L 1819 4666 
L 2450 4666 
L 2450 531 
L 3481 531 
L 3481 0 
L 794 0 
L 794 531 
z
" transform="scale(0.015625)"/>
       </defs>
       <use xlink:href="#DejaVuSans-31"/>
       <use xlink:href="#DejaVuSans-30" x="63.623047"/>
       <use xlink:href="#DejaVuSans-30" x="127.246094"/>
      </g>
     </g>
    </g>
    <g id="xtick_4">
     <g id="line2d_7">
      <path d="M 337.854444 143.44 
L 337.854444 25.44 
" clip-path="url(#pcc4b47737f)" style="fill: none; stroke: #b0b0b0; stroke-width: 0.8; stroke-linecap: square"/>
     </g>
     <g id="line2d_8">
      <g>
       <use xlink:href="#m5b3430c408" x="337.854444" y="143.44" style="stroke: #000000; stroke-width: 0.8"/>
      </g>
     </g>
     <g id="text_4">
      <!-- 150 -->
      <g transform="translate(328.310694 158.038438)scale(0.1 -0.1)">
       <use xlink:href="#DejaVuSans-31"/>
       <use xlink:href="#DejaVuSans-35" x="63.623047"/>
       <use xlink:href="#DejaVuSans-30" x="127.246094"/>
      </g>
     </g>
    </g>
    <g id="xtick_5">
     <g id="line2d_9">
      <path d="M 423.002593 143.44 
L 423.002593 25.44 
" clip-path="url(#pcc4b47737f)" style="fill: none; stroke: #b0b0b0; stroke-width: 0.8; stroke-linecap: square"/>
     </g>
     <g id="line2d_10">
      <g>
       <use xlink:href="#m5b3430c408" x="423.002593" y="143.44" style="stroke: #000000; stroke-width: 0.8"/>
      </g>
     </g>
     <g id="text_5">
      <!-- 200 -->
      <g transform="translate(413.458843 158.038438)scale(0.1 -0.1)">
       <defs>
        <path id="DejaVuSans-32" d="M 1228 531 
L 3431 531 
L 3431 0 
L 469 0 
L 469 531 
Q 828 903 1448 1529 
Q 2069 2156 2228 2338 
Q 2531 2678 2651 2914 
Q 2772 3150 2772 3378 
Q 2772 3750 2511 3984 
Q 2250 4219 1831 4219 
Q 1534 4219 1204 4116 
Q 875 4013 500 3803 
L 500 4441 
Q 881 4594 1212 4672 
Q 1544 4750 1819 4750 
Q 2544 4750 2975 4387 
Q 3406 4025 3406 3419 
Q 3406 3131 3298 2873 
Q 3191 2616 2906 2266 
Q 2828 2175 2409 1742 
Q 1991 1309 1228 531 
z
" transform="scale(0.015625)"/>
       </defs>
       <use xlink:href="#DejaVuSans-32"/>
       <use xlink:href="#DejaVuSans-30" x="63.623047"/>
       <use xlink:href="#DejaVuSans-30" x="127.246094"/>
      </g>
     </g>
    </g>
    <g id="xtick_6">
     <g id="line2d_11">
      <path d="M 508.150741 143.44 
L 508.150741 25.44 
" clip-path="url(#pcc4b47737f)" style="fill: none; stroke: #b0b0b0; stroke-width: 0.8; stroke-linecap: square"/>
     </g>
     <g id="line2d_12">
      <g>
       <use xlink:href="#m5b3430c408" x="508.150741" y="143.44" style="stroke: #000000; stroke-width: 0.8"/>
      </g>
     </g>
     <g id="text_6">
      <!-- 250 -->
      <g transform="translate(498.606991 158.038438)scale(0.1 -0.1)">
       <use xlink:href="#DejaVuSans-32"/>
       <use xlink:href="#DejaVuSans-35" x="63.623047"/>
       <use xlink:href="#DejaVuSans-30" x="127.246094"/>
      </g>
     </g>
    </g>
    <g id="text_7">
     <!-- x [mm] -->
     <g transform="translate(294.119375 171.716563)scale(0.1 -0.1)">
      <defs>
       <path id="DejaVuSans-78" d="M 3513 3500 
L 2247 1797 
L 3578 0 
L 2900 0 
L 1881 1375 
L 863 0 
L 184 0 
L 1544 1831 
L 300 3500 
L 978 3500 
L 1906 2253 
L 2834 3500 
L 3513 3500 
z
" transform="scale(0.015625)"/>
       <path id="DejaVuSans-20" transform="scale(0.015625)"/>
       <path id="DejaVuSans-5b" d="M 550 4863 
L 1875 4863 
L 1875 4416 
L 1125 4416 
L 1125 -397 
L 1875 -397 
L 1875 -844 
L 550 -844 
L 550 4863 
z
" transform="scale(0.015625)"/>
       <path id="DejaVuSans-6d" d="M 3328 2828 
Q 3544 3216 3844 3400 
Q 4144 3584 4550 3584 
Q 5097 3584 5394 3201 
Q 5691 2819 5691 2113 
L 5691 0 
L 5113 0 
L 5113 2094 
Q 5113 2597 4934 2840 
Q 4756 3084 4391 3084 
Q 3944 3084 3684 2787 
Q 3425 2491 3425 1978 
L 3425 0 
L 2847 0 
L 2847 2094 
Q 2847 2600 2669 2842 
Q 2491 3084 2119 3084 
Q 1678 3084 1418 2786 
Q 1159 2488 1159 1978 
L 1159 0 
L 581 0 
L 581 3500 
L 1159 3500 
L 1159 2956 
Q 1356 3278 1631 3431 
Q 1906 3584 2284 3584 
Q 2666 3584 2933 3390 
Q 3200 3197 3328 2828 
z
" transform="scale(0.015625)"/>
       <path id="DejaVuSans-5d" d="M 1947 4863 
L 1947 -844 
L 622 -844 
L 622 -397 
L 1369 -397 
L 1369 4416 
L 622 4416 
L 622 4863 
L 1947 4863 
z
" transform="scale(0.015625)"/>
      </defs>
      <use xlink:href="#DejaVuSans-78"/>
      <use xlink:href="#DejaVuSans-20" x="59.179688"/>
      <use xlink:href="#DejaVuSans-5b" x="90.966797"/>
      <use xlink:href="#DejaVuSans-6d" x="129.980469"/>
      <use xlink:href="#DejaVuSans-6d" x="227.392578"/>
      <use xlink:href="#DejaVuSans-5d" x="324.804688"/>
     </g>
    </g>
   </g>
   <g id="matplotlib.axis_2">
    <g id="ytick_1">
     <g id="line2d_13">
      <path d="M 59.42 138.207825 
L 565.2 138.207825 
" clip-path="url(#pcc4b47737f)" style="fill: none; stroke: #b0b0b0; stroke-width: 0.8; stroke-linecap: square"/>
     </g>
     <g id="line2d_14">
      <defs>
       <path id="me36d35f4a6" d="M 0 0 
L -3.5 0 
" style="stroke: #000000; stroke-width: 0.8"/>
      </defs>
      <g>
       <use xlink:href="#me36d35f4a6" x="59.42" y="138.207825" style="stroke: #000000; stroke-width: 0.8"/>
      </g>
     </g>
     <g id="text_8">
      <!-- 0 -->
      <g transform="translate(46.0575 142.007044)scale(0.1 -0.1)">
       <use xlink:href="#DejaVuSans-30"/>
      </g>
     </g>
    </g>
    <g id="ytick_2">
     <g id="line2d_15">
      <path d="M 59.42 111.91549 
L 565.2 111.91549 
" clip-path="url(#pcc4b47737f)" style="fill: none; stroke: #b0b0b0; stroke-width: 0.8; stroke-linecap: square"/>
     </g>
     <g id="line2d_16">
      <g>
       <use xlink:href="#me36d35f4a6" x="59.42" y="111.91549" style="stroke: #000000; stroke-width: 0.8"/>
      </g>
     </g>
     <g id="text_9">
      <!-- 200 -->
      <g transform="translate(33.3325 115.714709)scale(0.1 -0.1)">
       <use xlink:href="#DejaVuSans-32"/>
       <use xlink:href="#DejaVuSans-30" x="63.623047"/>
       <use xlink:href="#DejaVuSans-30" x="127.246094"/>
      </g>
     </g>
    </g>
    <g id="ytick_3">
     <g id="line2d_17">
      <path d="M 59.42 85.623155 
L 565.2 85.623155 
" clip-path="url(#pcc4b47737f)" style="fill: none; stroke: #b0b0b0; stroke-width: 0.8; stroke-linecap: square"/>
     </g>
     <g id="line2d_18">
      <g>
       <use xlink:href="#me36d35f4a6" x="59.42" y="85.623155" style="stroke: #000000; stroke-width: 0.8"/>
      </g>
     </g>
     <g id="text_10">
      <!-- 400 -->
      <g transform="translate(33.3325 89.422374)scale(0.1 -0.1)">
       <defs>
        <path id="DejaVuSans-34" d="M 2419 4116 
L 825 1625 
L 2419 1625 
L 2419 4116 
z
M 2253 4666 
L 3047 4666 
L 3047 1625 
L 3713 1625 
L 3713 1100 
L 3047 1100 
L 3047 0 
L 2419 0 
L 2419 1100 
L 313 1100 
L 313 1709 
L 2253 4666 
z
" transform="scale(0.015625)"/>
       </defs>
       <use xlink:href="#DejaVuSans-34"/>
       <use xlink:href="#DejaVuSans-30" x="63.623047"/>
       <use xlink:href="#DejaVuSans-30" x="127.246094"/>
      </g>
     </g>
    </g>
    <g id="ytick_4">
     <g id="line2d_19">
      <path d="M 59.42 59.33082 
L 565.2 59.33082 
" clip-path="url(#pcc4b47737f)" style="fill: none; stroke: #b0b0b0; stroke-width: 0.8; stroke-linecap: square"/>
     </g>
     <g id="line2d_20">
      <g>
       <use xlink:href="#me36d35f4a6" x="59.42" y="59.33082" style="stroke: #000000; stroke-width: 0.8"/>
      </g>
     </g>
     <g id="text_11">
      <!-- 600 -->
      <g transform="translate(33.3325 63.130039)scale(0.1 -0.1)">
       <defs>
        <path id="DejaVuSans-36" d="M 2113 2584 
Q 1688 2584 1439 2293 
Q 1191 2003 1191 1497 
Q 1191 994 1439 701 
Q 1688 409 2113 409 
Q 2538 409 2786 701 
Q 3034 994 3034 1497 
Q 3034 2003 2786 2293 
Q 2538 2584 2113 2584 
z
M 3366 4563 
L 3366 3988 
Q 3128 4100 2886 4159 
Q 2644 4219 2406 4219 
Q 1781 4219 1451 3797 
Q 1122 3375 1075 2522 
Q 1259 2794 1537 2939 
Q 1816 3084 2150 3084 
Q 2853 3084 3261 2657 
Q 3669 2231 3669 1497 
Q 3669 778 3244 343 
Q 2819 -91 2113 -91 
Q 1303 -91 875 529 
Q 447 1150 447 2328 
Q 447 3434 972 4092 
Q 1497 4750 2381 4750 
Q 2619 4750 2861 4703 
Q 3103 4656 3366 4563 
z
" transform="scale(0.015625)"/>
       </defs>
       <use xlink:href="#DejaVuSans-36"/>
       <use xlink:href="#DejaVuSans-30" x="63.623047"/>
       <use xlink:href="#DejaVuSans-30" x="127.246094"/>
      </g>
     </g>
    </g>
    <g id="ytick_5">
     <g id="line2d_21">
      <path d="M 59.42 33.038485 
L 565.2 33.038485 
" clip-path="url(#pcc4b47737f)" style="fill: none; stroke: #b0b0b0; stroke-width: 0.8; stroke-linecap: square"/>
     </g>
     <g id="line2d_22">
      <g>
       <use xlink:href="#me36d35f4a6" x="59.42" y="33.038485" style="stroke: #000000; stroke-width: 0.8"/>
      </g>
     </g>
     <g id="text_12">
      <!-- 800 -->
      <g transform="translate(33.3325 36.837704)scale(0.1 -0.1)">
       <defs>
        <path id="DejaVuSans-38" d="M 2034 2216 
Q 1584 2216 1326 1975 
Q 1069 1734 1069 1313 
Q 1069 891 1326 650 
Q 1584 409 2034 409 
Q 2484 409 2743 651 
Q 3003 894 3003 1313 
Q 3003 1734 2745 1975 
Q 2488 2216 2034 2216 
z
M 1403 2484 
Q 997 2584 770 2862 
Q 544 3141 544 3541 
Q 544 4100 942 4425 
Q 1341 4750 2034 4750 
Q 2731 4750 3128 4425 
Q 3525 4100 3525 3541 
Q 3525 3141 3298 2862 
Q 3072 2584 2669 2484 
Q 3125 2378 3379 2068 
Q 3634 1759 3634 1313 
Q 3634 634 3220 271 
Q 2806 -91 2034 -91 
Q 1263 -91 848 271 
Q 434 634 434 1313 
Q 434 1759 690 2068 
Q 947 2378 1403 2484 
z
M 1172 3481 
Q 1172 3119 1398 2916 
Q 1625 2713 2034 2713 
Q 2441 2713 2670 2916 
Q 2900 3119 2900 3481 
Q 2900 3844 2670 4047 
Q 2441 4250 2034 4250 
Q 1625 4250 1398 4047 
Q 1172 3844 1172 3481 
z
" transform="scale(0.015625)"/>
       </defs>
       <use xlink:href="#DejaVuSans-38"/>
       <use xlink:href="#DejaVuSans-30" x="63.623047"/>
       <use xlink:href="#DejaVuSans-30" x="127.246094"/>
      </g>
     </g>
    </g>
    <g id="text_13">
     <!-- reflector value -->
     <g transform="translate(27.252813 120.756406)rotate(-90)scale(0.1 -0.1)">
      <defs>
       <path id="DejaVuSans-72" d="M 2631 2963 
Q 2534 3019 2420 3045 
Q 2306 3072 2169 3072 
Q 1681 3072 1420 2755 
Q 1159 2438 1159 1844 
L 1159 0 
L 581 0 
L 581 3500 
L 1159 3500 
L 1159 2956 
Q 1341 3275 1631 3429 
Q 1922 3584 2338 3584 
Q 2397 3584 2469 3576 
Q 2541 3569 2628 3553 
L 2631 2963 
z
" transform="scale(0.015625)"/>
       <path id="DejaVuSans-65" d="M 3597 1894 
L 3597 1613 
L 953 1613 
Q 991 1019 1311 708 
Q 1631 397 2203 397 
Q 2534 397 2845 478 
Q 3156 559 3463 722 
L 3463 178 
Q 3153 47 2828 -22 
Q 2503 -91 2169 -91 
Q 1331 -91 842 396 
Q 353 884 353 1716 
Q 353 2575 817 3079 
Q 1281 3584 2069 3584 
Q 2775 3584 3186 3129 
Q 3597 2675 3597 1894 
z
M 3022 2063 
Q 3016 2534 2758 2815 
Q 2500 3097 2075 3097 
Q 1594 3097 1305 2825 
Q 1016 2553 972 2059 
L 3022 2063 
z
" transform="scale(0.015625)"/>
       <path id="DejaVuSans-66" d="M 2375 4863 
L 2375 4384 
L 1825 4384 
Q 1516 4384 1395 4259 
Q 1275 4134 1275 3809 
L 1275 3500 
L 2222 3500 
L 2222 3053 
L 1275 3053 
L 1275 0 
L 697 0 
L 697 3053 
L 147 3053 
L 147 3500 
L 697 3500 
L 697 3744 
Q 697 4328 969 4595 
Q 1241 4863 1831 4863 
L 2375 4863 
z
" transform="scale(0.015625)"/>
       <path id="DejaVuSans-6c" d="M 603 4863 
L 1178 4863 
L 1178 0 
L 603 0 
L 603 4863 
z
" transform="scale(0.015625)"/>
       <path id="DejaVuSans-63" d="M 3122 3366 
L 3122 2828 
Q 2878 2963 2633 3030 
Q 2388 3097 2138 3097 
Q 1578 3097 1268 2742 
Q 959 2388 959 1747 
Q 959 1106 1268 751 
Q 1578 397 2138 397 
Q 2388 397 2633 464 
Q 2878 531 3122 666 
L 3122 134 
Q 2881 22 2623 -34 
Q 2366 -91 2075 -91 
Q 1284 -91 818 406 
Q 353 903 353 1747 
Q 353 2603 823 3093 
Q 1294 3584 2113 3584 
Q 2378 3584 2631 3529 
Q 2884 3475 3122 3366 
z
" transform="scale(0.015625)"/>
       <path id="DejaVuSans-74" d="M 1172 4494 
L 1172 3500 
L 2356 3500 
L 2356 3053 
L 1172 3053 
L 1172 1153 
Q 1172 725 1289 603 
Q 1406 481 1766 481 
L 2356 481 
L 2356 0 
L 1766 0 
Q 1100 0 847 248 
Q 594 497 594 1153 
L 594 3053 
L 172 3053 
L 172 3500 
L 594 3500 
L 594 4494 
L 1172 4494 
z
" transform="scale(0.015625)"/>
       <path id="DejaVuSans-6f" d="M 1959 3097 
Q 1497 3097 1228 2736 
Q 959 2375 959 1747 
Q 959 1119 1226 758 
Q 1494 397 1959 397 
Q 2419 397 2687 759 
Q 2956 1122 2956 1747 
Q 2956 2369 2687 2733 
Q 2419 3097 1959 3097 
z
M 1959 3584 
Q 2709 3584 3137 3096 
Q 3566 2609 3566 1747 
Q 3566 888 3137 398 
Q 2709 -91 1959 -91 
Q 1206 -91 779 398 
Q 353 888 353 1747 
Q 353 2609 779 3096 
Q 1206 3584 1959 3584 
z
" transform="scale(0.015625)"/>
       <path id="DejaVuSans-76" d="M 191 3500 
L 800 3500 
L 1894 563 
L 2988 3500 
L 3597 3500 
L 2284 0 
L 1503 0 
L 191 3500 
z
" transform="scale(0.015625)"/>
       <path id="DejaVuSans-61" d="M 2194 1759 
Q 1497 1759 1228 1600 
Q 959 1441 959 1056 
Q 959 750 1161 570 
Q 1363 391 1709 391 
Q 2188 391 2477 730 
Q 2766 1069 2766 1631 
L 2766 1759 
L 2194 1759 
z
M 3341 1997 
L 3341 0 
L 2766 0 
L 2766 531 
Q 2569 213 2275 61 
Q 1981 -91 1556 -91 
Q 1019 -91 701 211 
Q 384 513 384 1019 
Q 384 1609 779 1909 
Q 1175 2209 1959 2209 
L 2766 2209 
L 2766 2266 
Q 2766 2663 2505 2880 
Q 2244 3097 1772 3097 
Q 1472 3097 1187 3025 
Q 903 2953 641 2809 
L 641 3341 
Q 956 3463 1253 3523 
Q 1550 3584 1831 3584 
Q 2591 3584 2966 3190 
Q 3341 2797 3341 1997 
z
" transform="scale(0.015625)"/>
       <path id="DejaVuSans-75" d="M 544 1381 
L 544 3500 
L 1119 3500 
L 1119 1403 
Q 1119 906 1312 657 
Q 1506 409 1894 409 
Q 2359 409 2629 706 
Q 2900 1003 2900 1516 
L 2900 3500 
L 3475 3500 
L 3475 0 
L 2900 0 
L 2900 538 
Q 2691 219 2414 64 
Q 2138 -91 1772 -91 
Q 1169 -91 856 284 
Q 544 659 544 1381 
z
M 1991 3584 
L 1991 3584 
z
" transform="scale(0.015625)"/>
      </defs>
      <use xlink:href="#DejaVuSans-72"/>
      <use xlink:href="#DejaVuSans-65" x="38.863281"/>
      <use xlink:href="#DejaVuSans-66" x="100.386719"/>
      <use xlink:href="#DejaVuSans-6c" x="135.591797"/>
      <use xlink:href="#DejaVuSans-65" x="163.375"/>
      <use xlink:href="#DejaVuSans-63" x="224.898438"/>
      <use xlink:href="#DejaVuSans-74" x="279.878906"/>
      <use xlink:href="#DejaVuSans-6f" x="319.087891"/>
      <use xlink:href="#DejaVuSans-72" x="380.269531"/>
      <use xlink:href="#DejaVuSans-20" x="421.382812"/>
      <use xlink:href="#DejaVuSans-76" x="453.169922"/>
      <use xlink:href="#DejaVuSans-61" x="512.349609"/>
      <use xlink:href="#DejaVuSans-6c" x="573.628906"/>
      <use xlink:href="#DejaVuSans-75" x="601.412109"/>
      <use xlink:href="#DejaVuSans-65" x="664.791016"/>
     </g>
    </g>
   </g>
   <g id="line2d_23">
    <path d="M 82.41 46.973422 
L 82.459658 45.658806 
L 82.444877 51.968966 
L 82.500666 46.053191 
L 82.527709 46.053191 
L 82.559656 45.790267 
L 82.596985 46.184652 
L 82.688945 45.658806 
L 82.744632 46.053191 
L 82.807301 45.921729 
L 82.877293 46.447576 
L 82.954948 46.316114 
L 83.040777 45.658806 
L 83.135292 45.921729 
L 83.238832 45.658806 
L 83.351739 45.790267 
L 83.474352 46.184652 
L 83.750743 45.790267 
L 84.071411 48.945348 
L 84.2492 47.104884 
L 84.439932 49.734118 
L 84.642584 46.973422 
L 84.857158 45.790267 
L 85.330581 46.316114 
L 85.587729 46.184652 
L 85.860203 47.630731 
L 86.148004 45.395882 
L 86.767882 47.762193 
L 87.101663 47.367807 
L 87.45077 47.893654 
L 87.815204 47.762193 
L 88.193262 47.762193 
L 88.58835 47.893654 
L 88.998764 49.208271 
L 89.424504 48.945348 
L 89.863869 48.419501 
L 90.320263 49.997041 
L 90.791984 50.785811 
L 91.279031 50.259964 
L 92.297403 51.968966 
L 92.83043 53.283583 
L 93.378784 56.17574 
L 93.940762 52.757736 
L 94.51977 54.861123 
L 95.114104 51.968966 
L 95.723764 52.100428 
L 96.347049 52.757736 
L 96.987363 53.677968 
L 97.643004 53.677968 
L 98.313971 53.940891 
L 98.998562 53.80943 
L 99.695074 54.992585 
L 100.410319 54.072353 
L 101.142593 54.861123 
L 101.891896 54.335276 
L 102.65823 56.17574 
L 103.441593 54.861123 
L 104.224956 54.992585 
L 105.025348 55.649893 
L 105.84277 55.255508 
L 106.677222 55.38697 
L 107.511674 55.38697 
L 109.231667 54.335276 
L 110.117207 54.335276 
L 111.002748 53.80943 
L 111.888289 53.546506 
L 112.807889 54.729661 
L 113.727489 56.17574 
L 115.583719 54.729661 
L 116.520348 53.940891 
L 117.474007 51.968966 
L 118.427667 51.837504 
L 119.398356 51.574581 
L 120.369044 51.706043 
L 121.339733 51.311658 
L 122.327452 51.706043 
L 123.31517 51.706043 
L 124.319919 50.259964 
L 125.307637 51.574581 
L 126.312385 51.706043 
L 127.317133 49.997041 
L 128.321881 50.654349 
L 129.343659 51.048734 
L 130.365437 50.917273 
L 131.370185 51.968966 
L 132.391963 51.443119 
L 133.413741 51.706043 
L 134.435519 51.706043 
L 135.457296 51.968966 
L 136.479074 53.677968 
L 137.500852 56.570125 
L 138.52263 55.518431 
L 139.544407 56.17574 
L 140.566185 58.673512 
L 141.587963 56.833048 
L 142.609741 59.067897 
L 143.631519 59.988128 
L 144.653296 61.69713 
L 145.675074 64.194902 
L 146.696852 65.903904 
L 147.71863 68.796061 
L 149.762185 76.815223 
L 150.783963 79.181533 
L 151.805741 83.519768 
L 153.849296 91.144545 
L 156.91463 106.3941 
L 157.936407 112.309875 
L 159.979963 122.563886 
L 162.023519 131.634742 
L 163.045296 135.44713 
L 164.067074 137.681979 
L 165.088852 138.076364 
L 288.809111 138.076364 
L 289.830889 136.104439 
L 290.852667 133.606667 
L 291.874444 128.874046 
L 293.918 123.089733 
L 295.961556 115.07057 
L 299.026889 102.187326 
L 300.048667 97.060321 
L 303.114 86.543387 
L 304.135778 81.547843 
L 306.179333 74.185989 
L 307.201111 68.138752 
L 308.222889 64.589287 
L 309.244667 62.4859 
L 310.266444 60.11959 
L 311.117926 57.490357 
L 312.139704 56.044278 
L 313.161481 54.335276 
L 314.183259 53.80943 
L 315.205037 52.757736 
L 316.226815 54.335276 
L 317.248593 54.729661 
L 318.27037 54.466738 
L 319.292148 56.570125 
L 320.313926 54.861123 
L 321.335704 58.147665 
L 322.357481 51.968966 
L 323.379259 52.231889 
L 324.401037 52.363351 
L 325.422815 52.889198 
L 326.444593 52.626275 
L 327.46637 52.889198 
L 329.509926 53.677968 
L 330.531704 53.940891 
L 331.553481 56.044278 
L 332.575259 58.410588 
L 333.597037 56.307201 
L 334.618815 56.833048 
L 335.640593 56.17574 
L 336.66237 53.546506 
L 337.684148 53.677968 
L 338.705926 53.677968 
L 339.727704 53.940891 
L 340.749481 54.072353 
L 341.771259 54.072353 
L 342.793037 53.80943 
L 343.814815 54.072353 
L 344.836593 56.17574 
L 345.85837 57.621818 
L 346.880148 58.147665 
L 347.901926 56.96451 
L 348.923704 57.095971 
L 349.945481 61.039822 
L 350.967259 54.203815 
L 353.010815 53.940891 
L 354.032593 53.677968 
L 355.05437 54.072353 
L 356.076148 54.335276 
L 357.097926 53.80943 
L 358.119704 54.072353 
L 359.141481 56.96451 
L 360.163259 57.490357 
L 361.185037 56.438663 
L 362.206815 56.96451 
L 363.228593 57.358895 
L 364.25037 53.415045 
L 365.272148 52.889198 
L 366.293926 52.626275 
L 367.315704 52.889198 
L 368.337481 53.283583 
L 369.359259 52.231889 
L 370.381037 53.677968 
L 371.402815 54.729661 
L 372.424593 56.833048 
L 373.44637 56.96451 
L 374.468148 56.044278 
L 375.489926 56.17574 
L 376.511704 54.729661 
L 377.533481 52.231889 
L 378.555259 52.626275 
L 379.577037 51.968966 
L 380.598815 52.231889 
L 381.620593 51.968966 
L 383.664148 51.968966 
L 384.685926 56.17574 
L 385.707704 56.307201 
L 386.729481 56.17574 
L 387.751259 58.410588 
L 388.773037 54.861123 
L 389.794815 51.968966 
L 390.816593 52.363351 
L 391.83837 51.837504 
L 392.860148 52.757736 
L 393.881926 52.626275 
L 394.903704 52.231889 
L 395.925481 52.757736 
L 396.947259 56.833048 
L 397.969037 58.147665 
L 398.990815 56.96451 
L 400.012593 57.884742 
L 401.03437 60.11959 
L 402.056148 53.415045 
L 403.077926 53.546506 
L 404.099704 53.02066 
L 405.121481 53.80943 
L 406.143259 54.072353 
L 407.165037 53.415045 
L 408.186815 56.438663 
L 409.208593 58.54205 
L 410.23037 59.199358 
L 411.252148 58.673512 
L 412.273926 59.593743 
L 413.295704 61.039822 
L 414.317481 53.80943 
L 415.339259 54.072353 
L 416.361037 53.80943 
L 417.382815 54.072353 
L 418.404593 53.80943 
L 419.42637 53.677968 
L 420.448148 56.96451 
L 421.469926 58.410588 
L 422.491704 59.199358 
L 423.513481 58.279127 
L 424.535259 61.960053 
L 425.557037 60.382513 
L 426.578815 53.02066 
L 427.600593 52.231889 
L 428.62237 52.889198 
L 429.644148 52.626275 
L 430.665926 51.968966 
L 431.687704 52.100428 
L 432.709481 57.490357 
L 433.731259 59.593743 
L 434.753037 58.147665 
L 435.774815 58.54205 
L 436.796593 60.11959 
L 437.81837 51.837504 
L 439.861926 52.100428 
L 440.883704 52.363351 
L 441.905481 52.231889 
L 442.927259 52.363351 
L 443.949037 60.382513 
L 444.970815 59.462282 
L 445.992593 60.382513 
L 447.01437 61.039822 
L 448.036148 64.589287 
L 449.057926 56.17574 
L 450.079704 58.279127 
L 451.101481 59.725205 
L 452.123259 62.222977 
L 453.145037 63.669055 
L 454.166815 68.796061 
L 455.188593 77.209608 
L 456.21037 81.416381 
L 457.232148 84.702923 
L 458.253926 91.013084 
L 459.275704 92.722086 
L 460.297481 91.670392 
L 464.384593 112.441337 
L 465.40637 123.089733 
L 466.428148 130.057201 
L 468.471704 137.287594 
L 469.493481 138.076364 
L 534.206074 138.076364 
L 534.716963 136.2359 
L 535.057556 136.104439 
L 535.568444 136.761747 
L 536.419926 136.104439 
L 536.760519 138.076364 
L 538.122889 138.076364 
L 538.633778 134.263975 
L 538.97437 134.65836 
L 539.314963 135.841515 
L 539.485259 133.86959 
L 539.655556 138.076364 
L 540.507037 138.076364 
L 540.677333 133.212282 
L 540.84763 132.160588 
L 541.017926 131.897665 
L 541.188222 132.817897 
L 541.188222 131.897665 
L 541.358519 138.076364 
L 541.699111 138.076364 
L 541.699111 138.076364 
L 541.869407 130.451586 
L 541.869407 130.71451 
L 542.039704 130.977433 
L 542.039704 129.92574 
L 542.039704 138.076364 
L 542.039704 138.076364 
L 542.21 138.076364 
L 542.21 138.076364 
L 542.21 127.690891 
L 542.21 138.076364 
" clip-path="url(#pcc4b47737f)" style="fill: none; stroke: #1f77b4; stroke-width: 2; stroke-linecap: square"/>
   </g>
   <g id="line2d_24">
    <path d="M 82.41 138.076364 
L 441.905481 138.076364 
L 442.927259 137.944902 
L 443.949037 138.076364 
L 449.057926 138.076364 
L 450.079704 136.104439 
L 451.101481 135.841515 
L 452.123259 135.841515 
L 453.145037 134.65836 
L 454.166815 134.789822 
L 455.188593 138.076364 
L 459.275704 138.076364 
L 460.297481 136.761747 
L 461.319259 131.897665 
L 462.341037 131.766203 
L 463.362815 131.50328 
L 464.384593 131.50328 
L 465.40637 131.108895 
L 466.428148 138.076364 
L 470.515259 138.076364 
L 471.537037 132.160588 
L 472.558815 129.13697 
L 473.580593 127.427968 
L 474.60237 126.902121 
L 475.624148 126.507736 
L 476.645926 126.639198 
L 477.667704 138.076364 
L 481.754815 138.076364 
L 482.776593 128.3482 
L 483.79837 122.300963 
L 484.820148 123.484118 
L 485.841926 121.249269 
L 486.863704 120.723422 
L 487.885481 133.08082 
L 488.907259 138.076364 
L 492.99437 138.076364 
L 494.016148 121.380731 
L 495.037926 116.648111 
L 496.059704 116.648111 
L 497.081481 115.07057 
L 498.103259 114.939109 
L 499.125037 134.001052 
L 500.146815 137.550517 
L 501.168593 136.630285 
L 502.19037 136.104439 
L 503.041852 135.972977 
L 504.06363 135.315668 
L 505.085407 115.596417 
L 506.107185 108.76041 
L 507.980444 108.366025 
L 508.831926 107.051408 
L 509.853704 130.057201 
L 510.705185 132.029127 
L 512.578444 131.50328 
L 513.429926 130.451586 
L 514.281407 108.628948 
L 515.303185 100.741248 
L 516.154667 101.004171 
L 517.006148 100.741248 
L 517.85763 98.900784 
L 518.709111 125.718966 
L 519.390296 125.718966 
L 521.093259 124.272888 
L 521.774444 124.141426 
L 522.625926 102.713173 
L 523.307111 91.013084 
L 524.158593 91.801854 
L 524.839778 90.75016 
L 525.520963 91.933316 
L 526.202148 118.751497 
L 526.883333 119.277344 
L 527.564519 118.094189 
L 528.245704 117.436881 
L 528.756593 116.779572 
L 529.437778 86.280463 
L 529.948667 84.834385 
L 530.629852 83.519768 
L 531.140741 81.679305 
L 531.65163 82.205152 
L 532.162519 111.652567 
L 532.673407 110.863797 
L 533.184296 110.863797 
L 534.206074 108.891872 
L 534.716963 77.209608 
L 535.057556 75.763529 
L 535.568444 77.34107 
L 535.909037 74.185989 
L 536.419926 73.528681 
L 536.760519 102.844635 
L 537.101111 102.844635 
L 537.441704 102.187326 
L 537.782296 102.187326 
L 538.122889 101.530018 
L 538.463481 66.42975 
L 538.633778 67.349982 
L 538.97437 66.824135 
L 539.314963 65.115134 
L 539.485259 67.481444 
L 539.655556 94.431087 
L 539.996148 94.431087 
L 540.166444 96.928859 
L 540.336741 94.036702 
L 540.507037 93.379394 
L 540.677333 56.833048 
L 540.84763 58.279127 
L 541.017926 61.302745 
L 541.188222 57.227433 
L 541.188222 59.067897 
L 541.358519 88.646774 
L 541.528815 86.937772 
L 541.699111 87.069234 
L 541.699111 88.38385 
L 541.869407 45.921729 
L 541.869407 54.335276 
L 542.039704 49.734118 
L 542.039704 51.574581 
L 542.039704 81.416381 
L 542.21 81.416381 
L 542.21 82.599537 
L 542.21 30.803636 
L 542.21 76.946684 
" clip-path="url(#pcc4b47737f)" style="fill: none; stroke: #ff7f0e; stroke-width: 2; stroke-linecap: square"/>
   </g>
   <g id="line2d_25">
    <path d="M 82.41 138.076364 
L 470.515259 138.076364 
L 471.537037 134.65836 
L 472.558815 135.315668 
L 473.580593 134.65836 
L 474.60237 134.263975 
L 475.624148 134.65836 
L 476.645926 138.076364 
L 481.754815 138.076364 
L 482.776593 130.057201 
L 483.79837 129.794278 
L 484.820148 129.794278 
L 485.841926 128.479661 
L 486.863704 128.611123 
L 487.885481 138.076364 
L 492.99437 138.076364 
L 494.016148 123.615579 
L 495.037926 123.484118 
L 496.059704 123.484118 
L 497.081481 121.643654 
L 498.103259 121.249269 
L 499.125037 138.076364 
L 504.06363 138.076364 
L 505.085407 116.911034 
L 506.107185 115.07057 
L 506.958667 114.807647 
L 507.980444 113.887415 
L 508.831926 112.967184 
L 509.853704 135.44713 
L 510.705185 134.65836 
L 513.429926 132.423512 
L 514.281407 107.051408 
L 516.154667 105.342406 
L 517.006148 104.948021 
L 517.85763 103.23902 
L 518.709111 128.479661 
L 519.390296 127.953815 
L 520.241778 126.507736 
L 521.093259 126.244813 
L 521.774444 125.324581 
L 522.625926 98.506399 
L 523.307111 96.928859 
L 524.158593 95.614242 
L 524.839778 94.168164 
L 525.520963 95.745704 
L 526.202148 120.460499 
L 526.883333 119.671729 
L 527.564519 119.277344 
L 528.245704 117.831266 
L 528.756593 117.042496 
L 529.437778 86.937772 
L 529.948667 85.623155 
L 530.629852 85.623155 
L 531.140741 84.177077 
L 531.65163 83.125383 
L 532.162519 112.441337 
L 532.673407 112.046952 
L 533.184296 110.863797 
L 533.695185 110.075027 
L 534.206074 109.023333 
L 534.716963 79.444456 
L 535.057556 76.683761 
L 535.568444 75.763529 
L 535.909037 74.185989 
L 536.419926 72.608449 
L 536.760519 104.02779 
L 537.101111 103.107558 
L 537.441704 102.713173 
L 537.782296 101.135633 
L 538.122889 100.741248 
L 538.463481 69.058984 
L 538.633778 66.955597 
L 539.314963 65.246595 
L 539.655556 95.877166 
L 539.996148 96.008627 
L 540.166444 94.036702 
L 540.507037 92.590624 
L 540.677333 60.645437 
L 540.84763 59.067897 
L 541.017926 58.936435 
L 541.188222 56.96451 
L 541.188222 75.500606 
L 541.358519 88.38385 
L 541.528815 87.463619 
L 541.528815 86.411925 
L 541.699111 85.623155 
L 541.869407 51.443119 
L 542.039704 50.917273 
L 542.039704 81.28492 
L 542.039704 81.153458 
L 542.21 79.312995 
L 542.21 37.902567 
L 542.21 74.843298 
" clip-path="url(#pcc4b47737f)" style="fill: none; stroke: #2ca02c; stroke-width: 2; stroke-linecap: square"/>
   </g>
   <g id="line2d_26">
    <path d="M 82.41 60.645437 
L 82.433365 64.457825 
L 82.410545 60.513975 
L 82.500666 61.828592 
L 82.527709 62.222977 
L 82.559656 61.302745 
L 82.596985 61.69713 
L 82.6399 61.302745 
L 82.688945 61.69713 
L 82.807301 64.589287 
L 82.877293 61.171283 
L 82.954948 62.4859 
L 83.135292 61.171283 
L 83.351739 62.4859 
L 83.474352 62.222977 
L 83.607183 62.4859 
L 83.750743 61.171283 
L 83.905372 62.222977 
L 84.071411 62.4859 
L 84.2492 62.354439 
L 84.439932 63.27467 
L 84.642584 63.669055 
L 84.857158 61.434207 
L 85.087058 62.354439 
L 85.330581 62.4859 
L 85.587729 61.828592 
L 85.860203 60.382513 
L 86.148004 62.4859 
L 86.451131 59.988128 
L 86.767882 60.645437 
L 87.101663 62.091515 
L 87.815204 59.593743 
L 88.193262 61.039822 
L 88.58835 60.382513 
L 88.998764 60.382513 
L 89.424504 61.434207 
L 89.863869 59.199358 
L 90.320263 60.251052 
L 90.791984 59.988128 
L 91.279031 60.251052 
L 92.297403 61.565668 
L 92.83043 58.936435 
L 93.378784 58.673512 
L 93.940762 60.776898 
L 94.51977 58.410588 
L 95.723764 58.673512 
L 96.347049 58.936435 
L 96.987363 57.75328 
L 97.643004 57.75328 
L 98.313971 59.462282 
L 98.998562 58.016203 
L 99.695074 58.147665 
L 100.410319 57.884742 
L 101.142593 56.17574 
L 101.891896 58.410588 
L 102.65823 56.307201 
L 103.441593 57.490357 
L 104.224956 56.044278 
L 105.025348 56.96451 
L 105.84277 58.804973 
L 106.677222 56.833048 
L 107.511674 56.701586 
L 108.363156 56.438663 
L 109.231667 57.490357 
L 110.117207 57.884742 
L 111.002748 57.095971 
L 111.888289 56.96451 
L 112.807889 58.673512 
L 113.727489 57.621818 
L 114.647089 59.33082 
L 115.583719 58.410588 
L 116.520348 58.936435 
L 117.474007 60.11959 
L 118.427667 59.593743 
L 119.398356 58.016203 
L 120.369044 59.067897 
L 121.339733 59.067897 
L 122.327452 57.884742 
L 123.31517 58.147665 
L 124.319919 58.147665 
L 125.307637 58.279127 
L 127.317133 59.067897 
L 128.321881 57.227433 
L 129.343659 59.462282 
L 130.365437 57.884742 
L 131.370185 57.358895 
L 132.391963 59.988128 
L 133.413741 56.307201 
L 134.435519 57.095971 
L 135.457296 58.673512 
L 136.479074 58.804973 
L 137.500852 59.067897 
L 138.52263 57.884742 
L 139.544407 58.673512 
L 140.566185 58.147665 
L 142.609741 58.147665 
L 143.631519 60.382513 
L 144.653296 62.222977 
L 145.675074 61.039822 
L 146.696852 60.382513 
L 147.71863 60.382513 
L 149.762185 61.171283 
L 151.805741 64.589287 
L 152.827519 69.453369 
L 153.849296 67.481444 
L 154.871074 71.293832 
L 156.91463 76.289376 
L 157.936407 80.49615 
L 158.958185 85.491693 
L 159.979963 93.510856 
L 161.001741 95.219857 
L 162.023519 99.952478 
L 163.045296 106.3941 
L 164.067074 110.33795 
L 165.088852 115.727879 
L 167.132407 127.296506 
L 169.175963 136.367362 
L 170.197741 138.076364 
L 296.983333 138.076364 
L 299.026889 134.789822 
L 301.070444 127.690891 
L 302.092222 124.667273 
L 304.135778 117.568342 
L 305.157556 112.441337 
L 306.179333 108.103102 
L 307.201111 102.318788 
L 308.222889 98.243476 
L 309.244667 93.642317 
L 310.266444 87.332157 
L 311.117926 84.702923 
L 312.139704 79.312995 
L 313.161481 76.420838 
L 314.183259 73.134296 
L 315.205037 71.556756 
L 316.226815 72.871373 
L 317.248593 68.796061 
L 319.292148 68.007291 
L 320.313926 66.955597 
L 321.335704 68.007291 
L 322.357481 64.983672 
L 323.379259 65.772442 
L 324.401037 65.64098 
L 325.422815 65.378057 
L 327.46637 64.589287 
L 328.488148 63.537594 
L 329.509926 64.983672 
L 330.531704 64.589287 
L 331.553481 66.824135 
L 332.575259 64.457825 
L 333.597037 66.42975 
L 334.618815 63.800517 
L 335.640593 64.589287 
L 336.66237 64.194902 
L 337.684148 63.27467 
L 338.705926 63.406132 
L 339.727704 64.194902 
L 340.749481 61.69713 
L 341.771259 62.4859 
L 342.793037 61.565668 
L 343.814815 62.617362 
L 344.836593 64.194902 
L 345.85837 62.880285 
L 346.880148 62.748824 
L 347.901926 62.880285 
L 348.923704 62.222977 
L 349.945481 62.091515 
L 350.967259 61.565668 
L 351.989037 61.171283 
L 353.010815 60.382513 
L 354.032593 62.091515 
L 355.05437 64.457825 
L 356.076148 62.4859 
L 357.097926 62.617362 
L 358.119704 60.251052 
L 359.141481 62.748824 
L 360.163259 67.875829 
L 361.185037 63.537594 
L 363.228593 62.4859 
L 364.25037 61.828592 
L 365.272148 62.617362 
L 366.293926 63.669055 
L 367.315704 60.382513 
L 368.337481 62.091515 
L 369.359259 60.513975 
L 370.381037 60.776898 
L 371.402815 61.828592 
L 372.424593 62.617362 
L 373.44637 62.4859 
L 374.468148 63.800517 
L 375.489926 62.222977 
L 376.511704 66.692674 
L 377.533481 61.960053 
L 378.555259 60.382513 
L 379.577037 60.776898 
L 380.598815 60.382513 
L 383.664148 60.382513 
L 384.685926 63.406132 
L 385.707704 62.4859 
L 386.729481 62.4859 
L 387.751259 63.800517 
L 388.773037 62.4859 
L 389.794815 60.11959 
L 390.816593 60.645437 
L 391.83837 60.251052 
L 392.860148 59.988128 
L 393.881926 60.382513 
L 394.903704 61.828592 
L 395.925481 58.279127 
L 396.947259 61.434207 
L 397.969037 61.171283 
L 398.990815 62.4859 
L 400.012593 60.382513 
L 401.03437 62.4859 
L 402.056148 58.936435 
L 403.077926 57.884742 
L 404.099704 59.067897 
L 405.121481 59.067897 
L 406.143259 56.833048 
L 407.165037 57.75328 
L 408.186815 58.016203 
L 409.208593 61.565668 
L 410.23037 60.382513 
L 411.252148 61.171283 
L 412.273926 59.067897 
L 413.295704 61.828592 
L 414.317481 57.490357 
L 415.339259 56.17574 
L 416.361037 55.912816 
L 417.382815 57.095971 
L 418.404593 56.17574 
L 419.42637 57.884742 
L 420.448148 61.69713 
L 421.469926 64.589287 
L 422.491704 59.988128 
L 423.513481 60.513975 
L 424.535259 59.593743 
L 425.557037 61.960053 
L 426.578815 57.490357 
L 427.600593 56.17574 
L 428.62237 56.307201 
L 430.665926 57.358895 
L 431.687704 56.17574 
L 432.709481 61.039822 
L 433.731259 60.382513 
L 434.753037 61.565668 
L 435.774815 60.382513 
L 436.796593 62.222977 
L 437.81837 56.96451 
L 438.840148 56.96451 
L 439.861926 56.044278 
L 441.905481 58.54205 
L 442.927259 56.17574 
L 443.949037 61.039822 
L 444.970815 65.246595 
L 445.992593 64.983672 
L 447.01437 61.302745 
L 448.036148 63.27467 
L 449.057926 56.833048 
L 450.079704 56.96451 
L 451.101481 57.358895 
L 454.166815 59.33082 
L 455.188593 66.298289 
L 456.21037 64.589287 
L 457.232148 67.612906 
L 458.253926 66.824135 
L 459.275704 72.739911 
L 460.297481 65.246595 
L 461.319259 66.824135 
L 462.341037 68.796061 
L 463.362815 72.608449 
L 465.40637 81.153458 
L 466.428148 90.487237 
L 468.471704 97.980553 
L 469.493481 104.553636 
L 470.515259 106.657023 
L 471.537037 106.657023 
L 473.580593 117.042496 
L 474.60237 123.484118 
L 475.624148 126.639198 
L 476.645926 135.052745 
L 477.667704 138.076364 
L 534.206074 138.076364 
L 534.716963 137.944902 
L 535.057556 138.076364 
L 535.568444 138.076364 
L 535.909037 137.944902 
L 536.760519 138.076364 
L 538.122889 138.076364 
L 538.463481 137.81344 
L 538.633778 136.761747 
L 538.97437 136.761747 
L 539.314963 136.630285 
L 539.485259 135.841515 
L 539.655556 138.076364 
L 540.507037 138.076364 
L 540.677333 136.104439 
L 540.84763 135.578592 
L 541.017926 135.710053 
L 541.188222 134.921283 
L 541.188222 135.184207 
L 541.358519 138.076364 
L 541.699111 138.076364 
L 541.699111 138.076364 
L 541.869407 134.789822 
L 541.869407 135.841515 
L 542.039704 134.001052 
L 542.039704 132.029127 
L 542.039704 138.076364 
L 542.039704 138.076364 
L 542.21 138.076364 
L 542.21 138.076364 
L 542.21 131.50328 
L 542.21 138.076364 
" clip-path="url(#pcc4b47737f)" style="fill: none; stroke: #d62728; stroke-width: 2; stroke-linecap: square"/>
   </g>
   <g id="patch_3">
    <path d="M 59.42 143.44 
L 59.42 25.44 
" style="fill: none; stroke: #000000; stroke-width: 0.8; stroke-linejoin: miter; stroke-linecap: square"/>
   </g>
   <g id="patch_4">
    <path d="M 565.2 143.44 
L 565.2 25.44 
" style="fill: none; stroke: #000000; stroke-width: 0.8; stroke-linejoin: miter; stroke-linecap: square"/>
   </g>
   <g id="patch_5">
    <path d="M 59.42 143.44 
L 565.2 143.44 
" style="fill: none; stroke: #000000; stroke-width: 0.8; stroke-linejoin: miter; stroke-linecap: square"/>
   </g>
   <g id="patch_6">
    <path d="M 59.42 25.44 
L 565.2 25.44 
" style="fill: none; stroke: #000000; stroke-width: 0.8; stroke-linejoin: miter; stroke-linecap: square"/>
   </g>
   <g id="text_14">
    <!-- Reflector Raw Value -->
    <g transform="translate(252.55 19.44)scale(0.12 -0.12)">
     <defs>
      <path id="DejaVuSans-52" d="M 2841 2188 
Q 3044 2119 3236 1894 
Q 3428 1669 3622 1275 
L 4263 0 
L 3584 0 
L 2988 1197 
Q 2756 1666 2539 1819 
Q 2322 1972 1947 1972 
L 1259 1972 
L 1259 0 
L 628 0 
L 628 4666 
L 2053 4666 
Q 2853 4666 3247 4331 
Q 3641 3997 3641 3322 
Q 3641 2881 3436 2590 
Q 3231 2300 2841 2188 
z
M 1259 4147 
L 1259 2491 
L 2053 2491 
Q 2509 2491 2742 2702 
Q 2975 2913 2975 3322 
Q 2975 3731 2742 3939 
Q 2509 4147 2053 4147 
L 1259 4147 
z
" transform="scale(0.015625)"/>
      <path id="DejaVuSans-77" d="M 269 3500 
L 844 3500 
L 1563 769 
L 2278 3500 
L 2956 3500 
L 3675 769 
L 4391 3500 
L 4966 3500 
L 4050 0 
L 3372 0 
L 2619 2869 
L 1863 0 
L 1184 0 
L 269 3500 
z
" transform="scale(0.015625)"/>
      <path id="DejaVuSans-56" d="M 1831 0 
L 50 4666 
L 709 4666 
L 2188 738 
L 3669 4666 
L 4325 4666 
L 2547 0 
L 1831 0 
z
" transform="scale(0.015625)"/>
     </defs>
     <use xlink:href="#DejaVuSans-52"/>
     <use xlink:href="#DejaVuSans-65" x="64.982422"/>
     <use xlink:href="#DejaVuSans-66" x="126.505859"/>
     <use xlink:href="#DejaVuSans-6c" x="161.710938"/>
     <use xlink:href="#DejaVuSans-65" x="189.494141"/>
     <use xlink:href="#DejaVuSans-63" x="251.017578"/>
     <use xlink:href="#DejaVuSans-74" x="305.998047"/>
     <use xlink:href="#DejaVuSans-6f" x="345.207031"/>
     <use xlink:href="#DejaVuSans-72" x="406.388672"/>
     <use xlink:href="#DejaVuSans-20" x="447.501953"/>
     <use xlink:href="#DejaVuSans-52" x="479.289062"/>
     <use xlink:href="#DejaVuSans-61" x="546.521484"/>
     <use xlink:href="#DejaVuSans-77" x="607.800781"/>
     <use xlink:href="#DejaVuSans-20" x="689.587891"/>
     <use xlink:href="#DejaVuSans-56" x="721.375"/>
     <use xlink:href="#DejaVuSans-61" x="782.033203"/>
     <use xlink:href="#DejaVuSans-6c" x="843.3125"/>
     <use xlink:href="#DejaVuSans-75" x="871.095703"/>
     <use xlink:href="#DejaVuSans-65" x="934.474609"/>
    </g>
   </g>
   <g id="legend_1">
    <g id="patch_7">
     <path d="M 199.689687 48.118125 
L 424.930313 48.118125 
Q 426.930313 48.118125 426.930313 46.118125 
L 426.930313 32.44 
Q 426.930313 30.44 424.930313 30.44 
L 199.689687 30.44 
Q 197.689687 30.44 197.689687 32.44 
L 197.689687 46.118125 
Q 197.689687 48.118125 199.689687 48.118125 
z
" style="fill: #ffffff; opacity: 0.8; stroke: #cccccc; stroke-linejoin: miter"/>
    </g>
    <g id="line2d_27">
     <path d="M 201.689687 38.538437 
L 211.689687 38.538437 
L 221.689687 38.538437 
" style="fill: none; stroke: #1f77b4; stroke-width: 2; stroke-linecap: square"/>
    </g>
    <g id="text_15">
     <!-- SL -->
     <g transform="translate(229.689687 42.038437)scale(0.1 -0.1)">
      <defs>
       <path id="DejaVuSans-53" d="M 3425 4513 
L 3425 3897 
Q 3066 4069 2747 4153 
Q 2428 4238 2131 4238 
Q 1616 4238 1336 4038 
Q 1056 3838 1056 3469 
Q 1056 3159 1242 3001 
Q 1428 2844 1947 2747 
L 2328 2669 
Q 3034 2534 3370 2195 
Q 3706 1856 3706 1288 
Q 3706 609 3251 259 
Q 2797 -91 1919 -91 
Q 1588 -91 1214 -16 
Q 841 59 441 206 
L 441 856 
Q 825 641 1194 531 
Q 1563 422 1919 422 
Q 2459 422 2753 634 
Q 3047 847 3047 1241 
Q 3047 1584 2836 1778 
Q 2625 1972 2144 2069 
L 1759 2144 
Q 1053 2284 737 2584 
Q 422 2884 422 3419 
Q 422 4038 858 4394 
Q 1294 4750 2059 4750 
Q 2388 4750 2728 4690 
Q 3069 4631 3425 4513 
z
" transform="scale(0.015625)"/>
       <path id="DejaVuSans-4c" d="M 628 4666 
L 1259 4666 
L 1259 531 
L 3531 531 
L 3531 0 
L 628 0 
L 628 4666 
z
" transform="scale(0.015625)"/>
      </defs>
      <use xlink:href="#DejaVuSans-53"/>
      <use xlink:href="#DejaVuSans-4c" x="63.476562"/>
     </g>
    </g>
    <g id="line2d_28">
     <path d="M 261.61 38.538437 
L 271.61 38.538437 
L 281.61 38.538437 
" style="fill: none; stroke: #ff7f0e; stroke-width: 2; stroke-linecap: square"/>
    </g>
    <g id="text_16">
     <!-- FL -->
     <g transform="translate(289.61 42.038437)scale(0.1 -0.1)">
      <defs>
       <path id="DejaVuSans-46" d="M 628 4666 
L 3309 4666 
L 3309 4134 
L 1259 4134 
L 1259 2759 
L 3109 2759 
L 3109 2228 
L 1259 2228 
L 1259 0 
L 628 0 
L 628 4666 
z
" transform="scale(0.015625)"/>
      </defs>
      <use xlink:href="#DejaVuSans-46"/>
      <use xlink:href="#DejaVuSans-4c" x="57.519531"/>
     </g>
    </g>
    <g id="line2d_29">
     <path d="M 320.933437 38.538437 
L 330.933437 38.538437 
L 340.933437 38.538437 
" style="fill: none; stroke: #2ca02c; stroke-width: 2; stroke-linecap: square"/>
    </g>
    <g id="text_17">
     <!-- FR -->
     <g transform="translate(348.933437 42.038437)scale(0.1 -0.1)">
      <use xlink:href="#DejaVuSans-46"/>
      <use xlink:href="#DejaVuSans-52" x="57.519531"/>
     </g>
    </g>
    <g id="line2d_30">
     <path d="M 381.633438 38.538437 
L 391.633438 38.538437 
L 401.633438 38.538437 
" style="fill: none; stroke: #d62728; stroke-width: 2; stroke-linecap: square"/>
    </g>
    <g id="text_18">
     <!-- SR -->
     <g transform="translate(409.633438 42.038437)scale(0.1 -0.1)">
      <use xlink:href="#DejaVuSans-53"/>
      <use xlink:href="#DejaVuSans-52" x="63.476562"/>
     </g>
    </g>
   </g>
  </g>
  <g id="axes_2">
   <g id="patch_8">
    <path d="M 59.42 318.04 
L 565.2 318.04 
L 565.2 200.04 
L 59.42 200.04 
z
" style="fill: #ffffff"/>
   </g>
   <g id="matplotlib.axis_3">
    <g id="xtick_7">
     <g id="line2d_31">
      <path d="M 82.41 318.04 
L 82.41 200.04 
" clip-path="url(#p79f7c34502)" style="fill: none; stroke: #b0b0b0; stroke-width: 0.8; stroke-linecap: square"/>
     </g>
     <g id="line2d_32">
      <g>
       <use xlink:href="#m5b3430c408" x="82.41" y="318.04" style="stroke: #000000; stroke-width: 0.8"/>
      </g>
     </g>
     <g id="text_19">
      <!-- 0 -->
      <g transform="translate(79.22875 332.638438)scale(0.1 -0.1)">
       <use xlink:href="#DejaVuSans-30"/>
      </g>
     </g>
    </g>
    <g id="xtick_8">
     <g id="line2d_33">
      <path d="M 167.558148 318.04 
L 167.558148 200.04 
" clip-path="url(#p79f7c34502)" style="fill: none; stroke: #b0b0b0; stroke-width: 0.8; stroke-linecap: square"/>
     </g>
     <g id="line2d_34">
      <g>
       <use xlink:href="#m5b3430c408" x="167.558148" y="318.04" style="stroke: #000000; stroke-width: 0.8"/>
      </g>
     </g>
     <g id="text_20">
      <!-- 50 -->
      <g transform="translate(161.195648 332.638438)scale(0.1 -0.1)">
       <use xlink:href="#DejaVuSans-35"/>
       <use xlink:href="#DejaVuSans-30" x="63.623047"/>
      </g>
     </g>
    </g>
    <g id="xtick_9">
     <g id="line2d_35">
      <path d="M 252.706296 318.04 
L 252.706296 200.04 
" clip-path="url(#p79f7c34502)" style="fill: none; stroke: #b0b0b0; stroke-width: 0.8; stroke-linecap: square"/>
     </g>
     <g id="line2d_36">
      <g>
       <use xlink:href="#m5b3430c408" x="252.706296" y="318.04" style="stroke: #000000; stroke-width: 0.8"/>
      </g>
     </g>
     <g id="text_21">
      <!-- 100 -->
      <g transform="translate(243.162546 332.638438)scale(0.1 -0.1)">
       <use xlink:href="#DejaVuSans-31"/>
       <use xlink:href="#DejaVuSans-30" x="63.623047"/>
       <use xlink:href="#DejaVuSans-30" x="127.246094"/>
      </g>
     </g>
    </g>
    <g id="xtick_10">
     <g id="line2d_37">
      <path d="M 337.854444 318.04 
L 337.854444 200.04 
" clip-path="url(#p79f7c34502)" style="fill: none; stroke: #b0b0b0; stroke-width: 0.8; stroke-linecap: square"/>
     </g>
     <g id="line2d_38">
      <g>
       <use xlink:href="#m5b3430c408" x="337.854444" y="318.04" style="stroke: #000000; stroke-width: 0.8"/>
      </g>
     </g>
     <g id="text_22">
      <!-- 150 -->
      <g transform="translate(328.310694 332.638438)scale(0.1 -0.1)">
       <use xlink:href="#DejaVuSans-31"/>
       <use xlink:href="#DejaVuSans-35" x="63.623047"/>
       <use xlink:href="#DejaVuSans-30" x="127.246094"/>
      </g>
     </g>
    </g>
    <g id="xtick_11">
     <g id="line2d_39">
      <path d="M 423.002593 318.04 
L 423.002593 200.04 
" clip-path="url(#p79f7c34502)" style="fill: none; stroke: #b0b0b0; stroke-width: 0.8; stroke-linecap: square"/>
     </g>
     <g id="line2d_40">
      <g>
       <use xlink:href="#m5b3430c408" x="423.002593" y="318.04" style="stroke: #000000; stroke-width: 0.8"/>
      </g>
     </g>
     <g id="text_23">
      <!-- 200 -->
      <g transform="translate(413.458843 332.638438)scale(0.1 -0.1)">
       <use xlink:href="#DejaVuSans-32"/>
       <use xlink:href="#DejaVuSans-30" x="63.623047"/>
       <use xlink:href="#DejaVuSans-30" x="127.246094"/>
      </g>
     </g>
    </g>
    <g id="xtick_12">
     <g id="line2d_41">
      <path d="M 508.150741 318.04 
L 508.150741 200.04 
" clip-path="url(#p79f7c34502)" style="fill: none; stroke: #b0b0b0; stroke-width: 0.8; stroke-linecap: square"/>
     </g>
     <g id="line2d_42">
      <g>
       <use xlink:href="#m5b3430c408" x="508.150741" y="318.04" style="stroke: #000000; stroke-width: 0.8"/>
      </g>
     </g>
     <g id="text_24">
      <!-- 250 -->
      <g transform="translate(498.606991 332.638438)scale(0.1 -0.1)">
       <use xlink:href="#DejaVuSans-32"/>
       <use xlink:href="#DejaVuSans-35" x="63.623047"/>
       <use xlink:href="#DejaVuSans-30" x="127.246094"/>
      </g>
     </g>
    </g>
    <g id="text_25">
     <!-- x [mm] -->
     <g transform="translate(294.119375 346.316563)scale(0.1 -0.1)">
      <use xlink:href="#DejaVuSans-78"/>
      <use xlink:href="#DejaVuSans-20" x="59.179688"/>
      <use xlink:href="#DejaVuSans-5b" x="90.966797"/>
      <use xlink:href="#DejaVuSans-6d" x="129.980469"/>
      <use xlink:href="#DejaVuSans-6d" x="227.392578"/>
      <use xlink:href="#DejaVuSans-5d" x="324.804688"/>
     </g>
    </g>
   </g>
   <g id="matplotlib.axis_4">
    <g id="ytick_6">
     <g id="line2d_43">
      <path d="M 59.42 307.916833 
L 565.2 307.916833 
" clip-path="url(#p79f7c34502)" style="fill: none; stroke: #b0b0b0; stroke-width: 0.8; stroke-linecap: square"/>
     </g>
     <g id="line2d_44">
      <g>
       <use xlink:href="#me36d35f4a6" x="59.42" y="307.916833" style="stroke: #000000; stroke-width: 0.8"/>
      </g>
     </g>
     <g id="text_26">
      <!-- 100 -->
      <g transform="translate(24.952813 311.716052)scale(0.1 -0.1)">
       <defs>
        <path id="DejaVuSans-2212" d="M 678 2272 
L 4684 2272 
L 4684 1741 
L 678 1741 
L 678 2272 
z
" transform="scale(0.015625)"/>
       </defs>
       <use xlink:href="#DejaVuSans-2212"/>
       <use xlink:href="#DejaVuSans-31" x="83.789062"/>
       <use xlink:href="#DejaVuSans-30" x="147.412109"/>
       <use xlink:href="#DejaVuSans-30" x="211.035156"/>
      </g>
     </g>
    </g>
    <g id="ytick_7">
     <g id="line2d_45">
      <path d="M 59.42 282.600182 
L 565.2 282.600182 
" clip-path="url(#p79f7c34502)" style="fill: none; stroke: #b0b0b0; stroke-width: 0.8; stroke-linecap: square"/>
     </g>
     <g id="line2d_46">
      <g>
       <use xlink:href="#me36d35f4a6" x="59.42" y="282.600182" style="stroke: #000000; stroke-width: 0.8"/>
      </g>
     </g>
     <g id="text_27">
      <!-- 75 -->
      <g transform="translate(31.315313 286.399401)scale(0.1 -0.1)">
       <defs>
        <path id="DejaVuSans-37" d="M 525 4666 
L 3525 4666 
L 3525 4397 
L 1831 0 
L 1172 0 
L 2766 4134 
L 525 4134 
L 525 4666 
z
" transform="scale(0.015625)"/>
       </defs>
       <use xlink:href="#DejaVuSans-2212"/>
       <use xlink:href="#DejaVuSans-37" x="83.789062"/>
       <use xlink:href="#DejaVuSans-35" x="147.412109"/>
      </g>
     </g>
    </g>
    <g id="ytick_8">
     <g id="line2d_47">
      <path d="M 59.42 257.283531 
L 565.2 257.283531 
" clip-path="url(#p79f7c34502)" style="fill: none; stroke: #b0b0b0; stroke-width: 0.8; stroke-linecap: square"/>
     </g>
     <g id="line2d_48">
      <g>
       <use xlink:href="#me36d35f4a6" x="59.42" y="257.283531" style="stroke: #000000; stroke-width: 0.8"/>
      </g>
     </g>
     <g id="text_28">
      <!-- 50 -->
      <g transform="translate(31.315313 261.082749)scale(0.1 -0.1)">
       <use xlink:href="#DejaVuSans-2212"/>
       <use xlink:href="#DejaVuSans-35" x="83.789062"/>
       <use xlink:href="#DejaVuSans-30" x="147.412109"/>
      </g>
     </g>
    </g>
    <g id="ytick_9">
     <g id="line2d_49">
      <path d="M 59.42 231.96688 
L 565.2 231.96688 
" clip-path="url(#p79f7c34502)" style="fill: none; stroke: #b0b0b0; stroke-width: 0.8; stroke-linecap: square"/>
     </g>
     <g id="line2d_50">
      <g>
       <use xlink:href="#me36d35f4a6" x="59.42" y="231.96688" style="stroke: #000000; stroke-width: 0.8"/>
      </g>
     </g>
     <g id="text_29">
      <!-- 25 -->
      <g transform="translate(31.315313 235.766098)scale(0.1 -0.1)">
       <use xlink:href="#DejaVuSans-2212"/>
       <use xlink:href="#DejaVuSans-32" x="83.789062"/>
       <use xlink:href="#DejaVuSans-35" x="147.412109"/>
      </g>
     </g>
    </g>
    <g id="ytick_10">
     <g id="line2d_51">
      <path d="M 59.42 206.650228 
L 565.2 206.650228 
" clip-path="url(#p79f7c34502)" style="fill: none; stroke: #b0b0b0; stroke-width: 0.8; stroke-linecap: square"/>
     </g>
     <g id="line2d_52">
      <g>
       <use xlink:href="#me36d35f4a6" x="59.42" y="206.650228" style="stroke: #000000; stroke-width: 0.8"/>
      </g>
     </g>
     <g id="text_30">
      <!-- 0 -->
      <g transform="translate(46.0575 210.449447)scale(0.1 -0.1)">
       <use xlink:href="#DejaVuSans-30"/>
      </g>
     </g>
    </g>
    <g id="text_31">
     <!-- wall distance [mm] -->
     <g transform="translate(18.873125 306.978281)rotate(-90)scale(0.1 -0.1)">
      <defs>
       <path id="DejaVuSans-64" d="M 2906 2969 
L 2906 4863 
L 3481 4863 
L 3481 0 
L 2906 0 
L 2906 525 
Q 2725 213 2448 61 
Q 2172 -91 1784 -91 
Q 1150 -91 751 415 
Q 353 922 353 1747 
Q 353 2572 751 3078 
Q 1150 3584 1784 3584 
Q 2172 3584 2448 3432 
Q 2725 3281 2906 2969 
z
M 947 1747 
Q 947 1113 1208 752 
Q 1469 391 1925 391 
Q 2381 391 2643 752 
Q 2906 1113 2906 1747 
Q 2906 2381 2643 2742 
Q 2381 3103 1925 3103 
Q 1469 3103 1208 2742 
Q 947 2381 947 1747 
z
" transform="scale(0.015625)"/>
       <path id="DejaVuSans-69" d="M 603 3500 
L 1178 3500 
L 1178 0 
L 603 0 
L 603 3500 
z
M 603 4863 
L 1178 4863 
L 1178 4134 
L 603 4134 
L 603 4863 
z
" transform="scale(0.015625)"/>
       <path id="DejaVuSans-73" d="M 2834 3397 
L 2834 2853 
Q 2591 2978 2328 3040 
Q 2066 3103 1784 3103 
Q 1356 3103 1142 2972 
Q 928 2841 928 2578 
Q 928 2378 1081 2264 
Q 1234 2150 1697 2047 
L 1894 2003 
Q 2506 1872 2764 1633 
Q 3022 1394 3022 966 
Q 3022 478 2636 193 
Q 2250 -91 1575 -91 
Q 1294 -91 989 -36 
Q 684 19 347 128 
L 347 722 
Q 666 556 975 473 
Q 1284 391 1588 391 
Q 1994 391 2212 530 
Q 2431 669 2431 922 
Q 2431 1156 2273 1281 
Q 2116 1406 1581 1522 
L 1381 1569 
Q 847 1681 609 1914 
Q 372 2147 372 2553 
Q 372 3047 722 3315 
Q 1072 3584 1716 3584 
Q 2034 3584 2315 3537 
Q 2597 3491 2834 3397 
z
" transform="scale(0.015625)"/>
       <path id="DejaVuSans-6e" d="M 3513 2113 
L 3513 0 
L 2938 0 
L 2938 2094 
Q 2938 2591 2744 2837 
Q 2550 3084 2163 3084 
Q 1697 3084 1428 2787 
Q 1159 2491 1159 1978 
L 1159 0 
L 581 0 
L 581 3500 
L 1159 3500 
L 1159 2956 
Q 1366 3272 1645 3428 
Q 1925 3584 2291 3584 
Q 2894 3584 3203 3211 
Q 3513 2838 3513 2113 
z
" transform="scale(0.015625)"/>
      </defs>
      <use xlink:href="#DejaVuSans-77"/>
      <use xlink:href="#DejaVuSans-61" x="81.787109"/>
      <use xlink:href="#DejaVuSans-6c" x="143.066406"/>
      <use xlink:href="#DejaVuSans-6c" x="170.849609"/>
      <use xlink:href="#DejaVuSans-20" x="198.632812"/>
      <use xlink:href="#DejaVuSans-64" x="230.419922"/>
      <use xlink:href="#DejaVuSans-69" x="293.896484"/>
      <use xlink:href="#DejaVuSans-73" x="321.679688"/>
      <use xlink:href="#DejaVuSans-74" x="373.779297"/>
      <use xlink:href="#DejaVuSans-61" x="412.988281"/>
      <use xlink:href="#DejaVuSans-6e" x="474.267578"/>
      <use xlink:href="#DejaVuSans-63" x="537.646484"/>
      <use xlink:href="#DejaVuSans-65" x="592.626953"/>
      <use xlink:href="#DejaVuSans-20" x="654.150391"/>
      <use xlink:href="#DejaVuSans-5b" x="685.9375"/>
      <use xlink:href="#DejaVuSans-6d" x="724.951172"/>
      <use xlink:href="#DejaVuSans-6d" x="822.363281"/>
      <use xlink:href="#DejaVuSans-5d" x="919.775391"/>
     </g>
    </g>
   </g>
   <g id="line2d_53">
    <path d="M 82.41 205.958172 
L 82.410068 205.958172 
L 82.478119 205.771234 
L 82.459658 206.693996 
L 82.500666 205.789867 
L 82.6399 205.845665 
L 82.877293 205.808399 
L 83.040777 205.864399 
L 83.238832 205.808399 
L 83.474352 205.789867 
L 83.750743 205.808399 
L 83.905372 205.789867 
L 84.2492 206.243744 
L 84.439932 205.977008 
L 84.642584 206.359694 
L 84.857158 205.958172 
L 85.087058 205.789867 
L 86.148004 206.052654 
L 86.451131 205.734171 
L 87.101663 206.071692 
L 87.45077 206.01478 
L 88.193262 206.071692 
L 88.998764 206.090629 
L 89.424504 206.282225 
L 90.320263 206.166984 
L 91.279031 206.515949 
L 91.779702 206.437568 
L 93.378784 206.894686 
L 93.940762 207.347449 
L 94.51977 206.814078 
L 95.114104 207.139751 
L 95.723764 206.693996 
L 96.987363 206.814078 
L 97.643004 206.955547 
L 99.695074 206.975902 
L 100.410319 207.160409 
L 101.142593 207.016611 
L 101.891896 207.139751 
L 102.65823 207.057523 
L 103.441593 207.347449 
L 104.224956 207.139751 
L 108.363156 207.222486 
L 111.888289 206.975902 
L 112.807889 206.935192 
L 114.647089 207.347449 
L 117.474007 206.996256 
L 118.427667 206.693996 
L 124.319919 206.654221 
L 125.307637 206.437568 
L 126.312385 206.63437 
L 127.317133 206.654221 
L 128.321881 206.398581 
L 130.365437 206.555301 
L 131.370185 206.535594 
L 132.391963 206.693996 
L 133.413741 206.614562 
L 136.479074 206.693996 
L 137.500852 206.955547 
L 138.52263 207.410437 
L 139.544407 207.243144 
L 140.566185 207.347449 
L 141.587963 207.752009 
L 142.609741 207.452564 
L 143.631519 207.81682 
L 144.653296 207.969732 
L 145.675074 208.258342 
L 146.696852 208.691763 
L 147.71863 208.996576 
L 148.740407 209.530251 
L 150.783963 211.134314 
L 151.805741 211.647735 
L 154.871074 214.607758 
L 156.91463 217.728795 
L 157.936407 219.723747 
L 159.979963 225.374424 
L 161.001741 228.999768 
L 162.023519 233.708665 
L 163.045296 240.331501 
L 164.067074 251.663234 
L 165.088852 273.334288 
L 166.11063 291.450883 
L 289.830889 291.450883 
L 290.852667 255.217692 
L 292.896222 235.744124 
L 293.918 232.361819 
L 296.983333 223.885804 
L 298.005111 221.698446 
L 300.048667 218.103481 
L 301.070444 216.362708 
L 305.157556 212.182423 
L 307.201111 210.586461 
L 308.222889 209.406705 
L 309.244667 208.761637 
L 311.117926 207.990998 
L 312.139704 207.55859 
L 315.205037 206.975902 
L 316.226815 206.814078 
L 317.248593 207.057523 
L 319.292148 207.07808 
L 320.313926 207.410437 
L 321.335704 207.139751 
L 322.357481 207.665932 
L 323.379259 206.693996 
L 331.553481 206.996256 
L 333.597037 207.708464 
L 334.618815 207.368411 
L 335.640593 207.452564 
L 336.66237 207.347449 
L 337.684148 206.935192 
L 344.836593 207.016611 
L 346.880148 207.579856 
L 347.901926 207.665932 
L 348.923704 207.473728 
L 349.945481 207.494893 
L 350.967259 208.145936 
L 351.989037 207.037067 
L 356.076148 207.016611 
L 357.097926 207.057523 
L 358.119704 206.975902 
L 359.141481 207.016611 
L 360.163259 207.473728 
L 361.185037 207.55859 
L 362.206815 207.389474 
L 364.25037 207.537324 
L 365.272148 206.914939 
L 367.315704 206.794027 
L 369.359259 206.894686 
L 370.381037 206.733895 
L 373.44637 207.452564 
L 374.468148 207.473728 
L 375.489926 207.326588 
L 376.511704 207.347449 
L 377.533481 207.119093 
L 378.555259 206.733895 
L 379.577037 206.794027 
L 380.598815 206.693996 
L 382.64237 206.693996 
L 384.685926 206.693996 
L 385.707704 207.347449 
L 387.751259 207.347449 
L 388.773037 207.708464 
L 390.816593 206.693996 
L 391.83837 206.753925 
L 392.860148 206.674097 
L 393.881926 206.814078 
L 396.947259 206.814078 
L 397.969037 207.452564 
L 398.990815 207.665932 
L 400.012593 207.473728 
L 401.03437 207.62259 
L 402.056148 207.990998 
L 403.077926 206.914939 
L 408.186815 206.914939 
L 409.208593 207.389474 
L 410.23037 207.72973 
L 411.252148 207.838086 
L 412.273926 207.752009 
L 414.317481 208.145936 
L 415.339259 206.975902 
L 418.404593 207.016611 
L 420.448148 206.955547 
L 421.469926 207.473728 
L 423.513481 207.838086 
L 424.535259 207.687198 
L 425.557037 208.302899 
L 426.578815 208.035555 
L 427.600593 206.85428 
L 428.62237 206.733895 
L 429.644148 206.834128 
L 432.709481 206.713925 
L 433.731259 207.55859 
L 434.753037 207.903909 
L 435.774815 207.665932 
L 436.796593 207.72973 
L 437.81837 207.990998 
L 438.840148 206.674097 
L 443.949037 206.753925 
L 444.970815 208.035555 
L 445.992593 207.88163 
L 448.036148 208.145936 
L 449.057926 208.761637 
L 450.079704 207.347449 
L 454.166815 208.59961 
L 455.188593 209.530251 
L 456.21037 211.218365 
L 457.232148 212.152043 
L 458.253926 212.931796 
L 459.275704 214.571302 
L 460.297481 215.053331 
L 461.319259 214.754595 
L 463.362815 217.911075 
L 465.40637 222.478199 
L 466.428148 229.445341 
L 468.471704 245.374578 
L 469.493481 266.022839 
L 470.515259 291.450883 
L 534.716963 291.450883 
L 535.057556 256.058205 
L 535.568444 255.217692 
L 535.909037 260.118996 
L 536.419926 257.931637 
L 536.760519 291.450883 
L 538.463481 291.450883 
L 538.633778 250.478415 
L 538.97437 247.00497 
L 539.314963 248.382196 
L 539.485259 253.67844 
L 539.655556 291.450883 
L 540.677333 291.450883 
L 540.84763 243.916339 
L 541.017926 241.415054 
L 541.188222 240.868214 
L 541.188222 242.923926 
L 541.358519 240.868214 
L 541.528815 291.450883 
L 541.528815 291.450883 
L 541.869407 291.450883 
L 541.869407 238.164396 
L 541.869407 239.572002 
L 542.039704 238.620095 
L 542.039704 239.085922 
L 542.039704 291.450883 
L 542.039704 291.450883 
L 542.21 291.450883 
L 542.21 291.450883 
L 542.21 234.184618 
L 542.21 291.450883 
" clip-path="url(#p79f7c34502)" style="fill: none; stroke: #1f77b4; stroke-width: 2; stroke-linecap: square"/>
   </g>
   <g id="line2d_54">
    <path d="M 82.41 312.170031 
L 442.927259 312.170031 
L 443.949037 303.096543 
L 444.970815 312.170031 
L 450.079704 312.170031 
L 451.101481 275.916586 
L 452.123259 274.377334 
L 453.145037 274.377334 
L 454.166815 269.08109 
L 455.188593 269.577297 
L 456.21037 312.170031 
L 460.297481 312.170031 
L 461.319259 280.81789 
L 462.341037 261.567108 
L 463.362815 261.293688 
L 464.384593 260.777229 
L 465.40637 260.777229 
L 466.428148 260.027856 
L 467.449926 312.170031 
L 471.537037 312.170031 
L 472.558815 262.124074 
L 473.580593 256.827831 
L 474.60237 254.569586 
L 475.624148 253.941733 
L 476.645926 253.49616 
L 477.667704 253.64806 
L 478.689481 312.170031 
L 482.776593 312.170031 
L 483.79837 255.734152 
L 484.820148 249.486002 
L 485.841926 250.498668 
L 486.863704 248.645489 
L 487.885481 248.25055 
L 488.907259 264.281053 
L 489.929037 312.170031 
L 494.016148 312.170031 
L 495.037926 248.746756 
L 496.059704 245.506225 
L 497.081481 245.506225 
L 498.103259 244.584698 
L 499.125037 244.513812 
L 501.168593 291.116703 
L 502.19037 279.683704 
L 503.041852 275.916586 
L 504.06363 275.126707 
L 505.085407 271.764655 
L 506.107185 244.888498 
L 506.958667 241.435307 
L 508.831926 241.263154 
L 509.853704 240.696061 
L 510.705185 258.22531 
L 511.726963 261.840528 
L 513.429926 260.777229 
L 514.281407 258.873416 
L 515.303185 241.374547 
L 516.154667 238.285916 
L 517.006148 238.377056 
L 517.85763 238.285916 
L 518.709111 252.108807 
L 519.390296 252.108807 
L 520.241778 252.64552 
L 521.093259 251.977161 
L 521.774444 251.217661 
L 522.625926 251.086015 
L 523.307111 238.994782 
L 524.158593 235.278297 
L 524.839778 235.490957 
L 525.520963 235.197284 
L 526.202148 235.531464 
L 526.883333 246.85307 
L 527.564519 247.207504 
L 528.245704 246.417624 
L 529.437778 245.587238 
L 529.948667 234.022592 
L 531.140741 233.344105 
L 531.65163 232.918786 
L 532.162519 233.040306 
L 532.673407 242.79228 
L 533.184296 242.407466 
L 533.695185 242.407466 
L 534.716963 241.496067 
L 535.057556 231.916246 
L 535.568444 231.612446 
L 535.909037 231.946626 
L 536.419926 231.288393 
L 536.760519 239.440355 
L 537.101111 239.440355 
L 537.782296 238.802375 
L 538.122889 238.802375 
L 538.463481 238.569462 
L 538.633778 229.789647 
L 538.97437 229.961801 
L 539.314963 229.870661 
L 539.485259 229.556734 
L 539.655556 236.736537 
L 539.996148 236.736537 
L 540.166444 236.260584 
L 540.336741 237.020083 
L 540.507037 236.139064 
L 540.677333 235.946657 
L 540.84763 228.159255 
L 541.017926 228.392168 
L 541.188222 228.888375 
L 541.188222 228.220015 
L 541.358519 228.523815 
L 541.528815 234.630191 
L 541.528815 234.356771 
L 541.699111 234.194745 
L 541.699111 234.225125 
L 541.869407 234.569431 
L 541.869407 226.508609 
L 541.869407 227.379502 
L 542.039704 227.764315 
L 542.039704 227.065576 
L 542.039704 232.888406 
L 542.039704 232.766886 
L 542.21 232.858026 
L 542.21 232.858026 
L 542.21 233.131445 
L 542.21 224.523784 
L 542.21 231.916246 
" clip-path="url(#p79f7c34502)" style="fill: none; stroke: #ff7f0e; stroke-width: 2; stroke-linecap: square"/>
   </g>
   <g id="line2d_55">
    <path d="M 82.41 312.676364 
L 471.537037 312.676364 
L 472.558815 269.59755 
L 473.580593 272.270988 
L 474.60237 269.59755 
L 475.624148 268.220324 
L 476.645926 269.59755 
L 477.667704 312.676364 
L 482.776593 312.676364 
L 483.79837 258.731643 
L 484.820148 258.31645 
L 485.841926 258.31645 
L 486.863704 256.422765 
L 487.885481 256.594918 
L 488.907259 312.676364 
L 494.016148 312.676364 
L 495.037926 251.126521 
L 496.059704 251.005001 
L 497.081481 251.005001 
L 498.103259 249.465749 
L 499.125037 249.161949 
L 500.146815 312.676364 
L 505.085407 312.676364 
L 506.107185 246.184711 
L 506.958667 245.101158 
L 507.980444 244.949258 
L 509.853704 243.966972 
L 510.705185 272.878588 
L 512.578444 266.974745 
L 514.281407 263.217754 
L 515.303185 241.212521 
L 517.006148 240.513781 
L 517.85763 240.361881 
L 518.709111 256.422765 
L 519.390296 256.422765 
L 520.241778 255.734152 
L 521.093259 254.012619 
L 521.774444 253.718946 
L 522.625926 252.746787 
L 523.307111 238.042876 
L 525.520963 236.685903 
L 526.202148 237.161856 
L 526.883333 248.564476 
L 527.564519 247.997383 
L 528.245704 247.723963 
L 528.756593 246.76193 
L 529.437778 246.265724 
L 529.948667 234.701078 
L 530.629852 234.377025 
L 531.140741 234.377025 
L 532.162519 233.769425 
L 532.673407 243.693552 
L 533.184296 243.491019 
L 533.695185 242.913799 
L 534.716963 242.06316 
L 535.057556 232.918786 
L 535.568444 232.321313 
L 536.419926 231.804853 
L 536.760519 239.997321 
L 537.101111 239.997321 
L 537.441704 239.653015 
L 537.782296 239.511242 
L 538.122889 238.944149 
L 538.463481 238.802375 
L 538.633778 230.792187 
L 538.97437 230.407374 
L 539.485259 230.093447 
L 539.655556 237.202363 
L 540.166444 237.24287 
L 540.507037 236.45299 
L 540.677333 236.230204 
L 540.84763 229.293441 
L 541.017926 229.030148 
L 541.188222 229.009895 
L 541.188222 228.685842 
L 541.528815 235.075764 
L 541.528815 234.842851 
L 541.869407 234.377025 
L 541.869407 227.845329 
L 541.869407 228.331408 
L 542.039704 227.754189 
L 542.039704 233.333979 
L 542.039704 233.182079 
L 542.21 233.303599 
L 542.21 225.93139 
L 542.21 232.017513 
" clip-path="url(#p79f7c34502)" style="fill: none; stroke: #2ca02c; stroke-width: 2; stroke-linecap: square"/>
   </g>
   <g id="line2d_56">
    <path d="M 82.41 206.177617 
L 82.410068 206.177617 
L 82.444877 206.836154 
L 82.411839 206.15544 
L 82.500666 206.378429 
L 82.744632 206.355948 
L 82.877293 206.859546 
L 82.954948 206.266529 
L 83.040777 206.491341 
L 83.238832 206.266529 
L 83.474352 206.491341 
L 83.905372 206.266529 
L 84.2492 206.491341 
L 84.439932 206.468759 
L 84.857158 206.697186 
L 85.087058 206.311188 
L 85.330581 206.468759 
L 85.587729 206.491341 
L 85.860203 206.378429 
L 86.148004 206.133364 
L 86.451131 206.491341 
L 86.767882 206.067338 
L 87.101663 206.177617 
L 87.45077 206.423492 
L 88.193262 206.001616 
L 88.58835 206.24425 
L 89.424504 206.133364 
L 89.863869 206.311188 
L 90.320263 205.936197 
L 90.791984 206.111287 
L 91.779702 206.111287 
L 92.83043 206.333568 
L 93.378784 205.892855 
L 93.940762 205.849513 
L 94.51977 206.199794 
L 95.114104 205.806374 
L 96.987363 205.892855 
L 97.643004 205.699234 
L 98.313971 205.699234 
L 98.998562 205.979742 
L 99.695074 205.741968 
L 101.142593 205.720601 
L 101.891896 205.445156 
L 102.65823 205.806374 
L 103.441593 205.466422 
L 104.224956 205.6566 
L 105.025348 205.424902 
L 105.84277 205.571739 
L 106.677222 205.871184 
L 107.511674 205.550473 
L 109.231667 205.487688 
L 111.002748 205.720601 
L 112.807889 205.571739 
L 113.727489 205.849513 
L 114.647089 205.677866 
L 115.583719 205.95797 
L 116.520348 205.806374 
L 119.398356 206.001616 
L 120.369044 205.741968 
L 121.339733 205.914526 
L 122.327452 205.914526 
L 123.31517 205.720601 
L 128.321881 205.914526 
L 129.343659 205.614271 
L 130.365437 205.979742 
L 131.370185 205.720601 
L 132.391963 205.635537 
L 133.413741 206.067338 
L 134.435519 205.466422 
L 135.457296 205.593005 
L 136.479074 205.849513 
L 138.52263 205.914526 
L 139.544407 205.720601 
L 140.566185 205.849513 
L 142.609741 205.763437 
L 143.631519 205.763437 
L 145.675074 206.446075 
L 147.71863 206.133364 
L 149.762185 206.199794 
L 150.783963 206.266529 
L 152.827519 206.859546 
L 153.849296 207.753022 
L 154.871074 207.383196 
L 155.892852 208.107455 
L 157.936407 209.121133 
L 158.958185 210.040634 
L 159.979963 211.223428 
L 161.001741 213.379394 
L 162.023519 213.888765 
L 163.045296 215.412828 
L 164.067074 217.819935 
L 165.088852 219.551594 
L 166.11063 222.356679 
L 167.132407 226.457976 
L 168.154185 231.804853 
L 169.175963 238.964402 
L 170.197741 255.065792 
L 171.219519 289.547071 
L 298.005111 289.547071 
L 299.026889 256.027825 
L 301.070444 237.42515 
L 302.092222 232.290933 
L 304.135778 225.84025 
L 305.157556 223.480738 
L 306.179333 220.574386 
L 307.201111 218.549054 
L 308.222889 216.247264 
L 310.266444 213.417875 
L 311.117926 211.688242 
L 312.139704 211.028996 
L 313.161481 209.775316 
L 315.205037 208.472014 
L 316.226815 208.159101 
L 317.248593 208.419356 
L 318.27037 207.628362 
L 320.313926 207.480716 
L 321.335704 207.286385 
L 322.357481 207.480716 
L 323.379259 206.929724 
L 324.401037 207.071194 
L 327.46637 206.929724 
L 328.488148 206.859546 
L 329.509926 206.674147 
L 330.531704 206.929724 
L 331.553481 206.859546 
L 332.575259 207.262284 
L 333.597037 206.836154 
L 334.618815 207.190283 
L 335.640593 206.720244 
L 336.66237 206.859546 
L 339.727704 206.651165 
L 340.749481 206.789672 
L 341.771259 206.355948 
L 342.793037 206.491341 
L 343.814815 206.333568 
L 345.85837 206.789672 
L 346.880148 206.559625 
L 350.967259 206.423492 
L 354.032593 206.133364 
L 355.05437 206.423492 
L 356.076148 206.836154 
L 357.097926 206.491341 
L 358.119704 206.514126 
L 359.141481 206.111287 
L 360.163259 206.53681 
L 361.185037 207.45631 
L 362.206815 206.674147 
L 365.272148 206.378429 
L 367.315704 206.697186 
L 368.337481 206.133364 
L 369.359259 206.423492 
L 370.381037 206.15544 
L 371.402815 206.199794 
L 373.44637 206.514126 
L 374.468148 206.491341 
L 375.489926 206.720244 
L 376.511704 206.446075 
L 377.533481 207.238283 
L 378.555259 206.401011 
L 379.577037 206.133364 
L 380.598815 206.199794 
L 382.64237 206.133364 
L 384.685926 206.133364 
L 385.707704 206.651165 
L 386.729481 206.491341 
L 387.751259 206.491341 
L 388.773037 206.720244 
L 389.794815 206.491341 
L 390.816593 206.089313 
L 391.83837 206.177617 
L 393.881926 206.067338 
L 394.903704 206.133364 
L 395.925481 206.378429 
L 396.947259 205.784905 
L 397.969037 206.311188 
L 398.990815 206.266529 
L 400.012593 206.491341 
L 401.03437 206.133364 
L 402.056148 206.491341 
L 403.077926 205.892855 
L 404.099704 205.720601 
L 405.121481 205.914526 
L 406.143259 205.914526 
L 407.165037 205.550473 
L 409.208593 205.741968 
L 410.23037 206.333568 
L 411.252148 206.133364 
L 412.273926 206.266529 
L 413.295704 205.914526 
L 414.317481 206.378429 
L 415.339259 205.6566 
L 416.361037 205.445156 
L 417.382815 205.403636 
L 418.404593 205.593005 
L 419.42637 205.445156 
L 420.448148 205.720601 
L 421.469926 206.355948 
L 422.491704 206.859546 
L 423.513481 206.067338 
L 424.535259 206.15544 
L 425.557037 206.001616 
L 426.578815 206.401011 
L 427.600593 205.6566 
L 428.62237 205.445156 
L 430.665926 205.550473 
L 431.687704 205.635537 
L 432.709481 205.445156 
L 433.731259 206.24425 
L 434.753037 206.133364 
L 435.774815 206.333568 
L 436.796593 206.133364 
L 437.81837 206.446075 
L 438.840148 205.571739 
L 439.861926 205.571739 
L 440.883704 205.424902 
L 442.927259 205.827943 
L 443.949037 205.445156 
L 445.992593 206.976712 
L 447.01437 206.929724 
L 448.036148 206.288808 
L 449.057926 206.628223 
L 450.079704 205.550473 
L 452.123259 205.635537 
L 455.188593 205.95797 
L 456.21037 207.166384 
L 457.232148 206.859546 
L 458.253926 207.4075 
L 459.275704 207.262284 
L 460.297481 208.393027 
L 461.319259 206.976712 
L 463.362815 207.628362 
L 464.384593 208.366697 
L 466.428148 210.190509 
L 467.449926 212.524704 
L 469.493481 214.75662 
L 470.515259 217.090815 
L 471.537037 217.931328 
L 472.558815 217.931328 
L 473.580593 220.311093 
L 474.60237 223.146558 
L 475.624148 227.885835 
L 476.645926 231.045353 
L 477.667704 248.017636 
L 478.689481 289.547071 
L 534.716963 289.547071 
L 535.057556 280.493837 
L 535.568444 289.547071 
L 535.909037 289.547071 
L 536.419926 280.493837 
L 536.760519 289.547071 
L 538.463481 289.547071 
L 538.633778 275.187466 
L 538.97437 258.215184 
L 539.314963 258.215184 
L 539.485259 257.080998 
L 539.655556 289.547071 
L 540.677333 289.547071 
L 540.84763 253.31388 
L 541.017926 250.397402 
L 541.188222 251.075888 
L 541.188222 247.480923 
L 541.358519 248.574603 
L 541.528815 289.547071 
L 541.528815 289.547071 
L 541.869407 289.547071 
L 541.869407 246.97459 
L 541.869407 248.574603 
L 542.039704 251.774627 
L 542.039704 244.260645 
L 542.039704 289.547071 
L 542.039704 289.547071 
L 542.21 289.547071 
L 542.21 289.547071 
L 542.21 238.164396 
L 542.21 289.547071 
" clip-path="url(#p79f7c34502)" style="fill: none; stroke: #d62728; stroke-width: 2; stroke-linecap: square"/>
   </g>
   <g id="patch_9">
    <path d="M 59.42 318.04 
L 59.42 200.04 
" style="fill: none; stroke: #000000; stroke-width: 0.8; stroke-linejoin: miter; stroke-linecap: square"/>
   </g>
   <g id="patch_10">
    <path d="M 565.2 318.04 
L 565.2 200.04 
" style="fill: none; stroke: #000000; stroke-width: 0.8; stroke-linejoin: miter; stroke-linecap: square"/>
   </g>
   <g id="patch_11">
    <path d="M 59.42 318.04 
L 565.2 318.04 
" style="fill: none; stroke: #000000; stroke-width: 0.8; stroke-linejoin: miter; stroke-linecap: square"/>
   </g>
   <g id="patch_12">
    <path d="M 59.42 200.04 
L 565.2 200.04 
" style="fill: none; stroke: #000000; stroke-width: 0.8; stroke-linejoin: miter; stroke-linecap: square"/>
   </g>
   <g id="text_32">
    <!-- Wall Distance -->
    <g transform="translate(271.6075 194.04)scale(0.12 -0.12)">
     <defs>
      <path id="DejaVuSans-57" d="M 213 4666 
L 850 4666 
L 1831 722 
L 2809 4666 
L 3519 4666 
L 4500 722 
L 5478 4666 
L 6119 4666 
L 4947 0 
L 4153 0 
L 3169 4050 
L 2175 0 
L 1381 0 
L 213 4666 
z
" transform="scale(0.015625)"/>
      <path id="DejaVuSans-44" d="M 1259 4147 
L 1259 519 
L 2022 519 
Q 2988 519 3436 956 
Q 3884 1394 3884 2338 
Q 3884 3275 3436 3711 
Q 2988 4147 2022 4147 
L 1259 4147 
z
M 628 4666 
L 1925 4666 
Q 3281 4666 3915 4102 
Q 4550 3538 4550 2338 
Q 4550 1131 3912 565 
Q 3275 0 1925 0 
L 628 0 
L 628 4666 
z
" transform="scale(0.015625)"/>
     </defs>
     <use xlink:href="#DejaVuSans-57"/>
     <use xlink:href="#DejaVuSans-61" x="92.501953"/>
     <use xlink:href="#DejaVuSans-6c" x="153.78125"/>
     <use xlink:href="#DejaVuSans-6c" x="181.564453"/>
     <use xlink:href="#DejaVuSans-20" x="209.347656"/>
     <use xlink:href="#DejaVuSans-44" x="241.134766"/>
     <use xlink:href="#DejaVuSans-69" x="318.136719"/>
     <use xlink:href="#DejaVuSans-73" x="345.919922"/>
     <use xlink:href="#DejaVuSans-74" x="398.019531"/>
     <use xlink:href="#DejaVuSans-61" x="437.228516"/>
     <use xlink:href="#DejaVuSans-6e" x="498.507812"/>
     <use xlink:href="#DejaVuSans-63" x="561.886719"/>
     <use xlink:href="#DejaVuSans-65" x="616.867188"/>
    </g>
   </g>
   <g id="legend_2">
    <g id="patch_13">
     <path d="M 199.689687 267.879063 
L 424.930313 267.879063 
Q 426.930313 267.879063 426.930313 265.879063 
L 426.930313 252.200938 
Q 426.930313 250.200938 424.930313 250.200938 
L 199.689687 250.200938 
Q 197.689687 250.200938 197.689687 252.200938 
L 197.689687 265.879063 
Q 197.689687 267.879063 199.689687 267.879063 
z
" style="fill: #ffffff; opacity: 0.8; stroke: #cccccc; stroke-linejoin: miter"/>
    </g>
    <g id="line2d_57">
     <path d="M 201.689687 258.299375 
L 211.689687 258.299375 
L 221.689687 258.299375 
" style="fill: none; stroke: #1f77b4; stroke-width: 2; stroke-linecap: square"/>
    </g>
    <g id="text_33">
     <!-- SL -->
     <g transform="translate(229.689687 261.799375)scale(0.1 -0.1)">
      <use xlink:href="#DejaVuSans-53"/>
      <use xlink:href="#DejaVuSans-4c" x="63.476562"/>
     </g>
    </g>
    <g id="line2d_58">
     <path d="M 261.61 258.299375 
L 271.61 258.299375 
L 281.61 258.299375 
" style="fill: none; stroke: #ff7f0e; stroke-width: 2; stroke-linecap: square"/>
    </g>
    <g id="text_34">
     <!-- FL -->
     <g transform="translate(289.61 261.799375)scale(0.1 -0.1)">
      <use xlink:href="#DejaVuSans-46"/>
      <use xlink:href="#DejaVuSans-4c" x="57.519531"/>
     </g>
    </g>
    <g id="line2d_59">
     <path d="M 320.933437 258.299375 
L 330.933437 258.299375 
L 340.933437 258.299375 
" style="fill: none; stroke: #2ca02c; stroke-width: 2; stroke-linecap: square"/>
    </g>
    <g id="text_35">
     <!-- FR -->
     <g transform="translate(348.933437 261.799375)scale(0.1 -0.1)">
      <use xlink:href="#DejaVuSans-46"/>
      <use xlink:href="#DejaVuSans-52" x="57.519531"/>
     </g>
    </g>
    <g id="line2d_60">
     <path d="M 381.633438 258.299375 
L 391.633438 258.299375 
L 401.633438 258.299375 
" style="fill: none; stroke: #d62728; stroke-width: 2; stroke-linecap: square"/>
    </g>
    <g id="text_36">
     <!-- SR -->
     <g transform="translate(409.633438 261.799375)scale(0.1 -0.1)">
      <use xlink:href="#DejaVuSans-53"/>
      <use xlink:href="#DejaVuSans-52" x="63.476562"/>
     </g>
    </g>
   </g>
  </g>
 </g>
 <defs>
  <clipPath id="pcc4b47737f">
   <rect x="59.42" y="25.44" width="505.78" height="118"/>
  </clipPath>
  <clipPath id="p79f7c34502">
   <rect x="59.42" y="200.04" width="505.78" height="118"/>
  </clipPath>
 </defs>
</svg>
