<?xml version="1.0" encoding="utf-8" standalone="no"?>
<!DOCTYPE svg PUBLIC "-//W3C//DTD SVG 1.1//EN"
  "http://www.w3.org/Graphics/SVG/1.1/DTD/svg11.dtd">
<svg xmlns:xlink="http://www.w3.org/1999/xlink" width="460.8pt" height="345.6pt" viewBox="0 0 460.8 345.6" xmlns="http://www.w3.org/2000/svg" version="1.1">
 <metadata>
  <rdf:RDF xmlns:dc="http://purl.org/dc/elements/1.1/" xmlns:cc="http://creativecommons.org/ns#" xmlns:rdf="http://www.w3.org/1999/02/22-rdf-syntax-ns#">
   <cc:Work>
    <dc:type rdf:resource="http://purl.org/dc/dcmitype/StillImage"/>
    <dc:date>2022-01-16T03:26:24.287953</dc:date>
    <dc:format>image/svg+xml</dc:format>
    <dc:creator>
     <cc:Agent>
      <dc:title>Matplotlib v3.5.1, https://matplotlib.org/</dc:title>
     </cc:Agent>
    </dc:creator>
   </cc:Work>
  </rdf:RDF>
 </metadata>
 <defs>
  <style type="text/css">*{stroke-linejoin: round; stroke-linecap: butt}</style>
 </defs>
 <g id="figure_1">
  <g id="patch_1">
   <path d="M 0 345.6 
L 460.8 345.6 
L 460.8 0 
L 0 0 
z
" style="fill: #ffffff"/>
  </g>
  <g id="axes_1">
   <g id="patch_2">
    <path d="M 56.928125 161.67875 
L 450 161.67875 
L 450 48.331875 
L 56.928125 48.331875 
z
" style="fill: #ffffff"/>
   </g>
   <g id="matplotlib.axis_1">
    <g id="xtick_1">
     <g id="line2d_1">
      <path d="M 74.795028 161.67875 
L 74.795028 48.331875 
" clip-path="url(#p00a2d9c412)" style="fill: none; stroke: #b0b0b0; stroke-width: 0.8; stroke-linecap: square"/>
     </g>
     <g id="line2d_2">
      <defs>
       <path id="md4544bc6be" d="M 0 0 
L 0 3.5 
" style="stroke: #000000; stroke-width: 0.8"/>
      </defs>
      <g>
       <use xlink:href="#md4544bc6be" x="74.795028" y="161.67875" style="stroke: #000000; stroke-width: 0.8"/>
      </g>
     </g>
    </g>
    <g id="xtick_2">
     <g id="line2d_3">
      <path d="M 154.203488 161.67875 
L 154.203488 48.331875 
" clip-path="url(#p00a2d9c412)" style="fill: none; stroke: #b0b0b0; stroke-width: 0.8; stroke-linecap: square"/>
     </g>
     <g id="line2d_4">
      <g>
       <use xlink:href="#md4544bc6be" x="154.203488" y="161.67875" style="stroke: #000000; stroke-width: 0.8"/>
      </g>
     </g>
    </g>
    <g id="xtick_3">
     <g id="line2d_5">
      <path d="M 233.611948 161.67875 
L 233.611948 48.331875 
" clip-path="url(#p00a2d9c412)" style="fill: none; stroke: #b0b0b0; stroke-width: 0.8; stroke-linecap: square"/>
     </g>
     <g id="line2d_6">
      <g>
       <use xlink:href="#md4544bc6be" x="233.611948" y="161.67875" style="stroke: #000000; stroke-width: 0.8"/>
      </g>
     </g>
    </g>
    <g id="xtick_4">
     <g id="line2d_7">
      <path d="M 313.020407 161.67875 
L 313.020407 48.331875 
" clip-path="url(#p00a2d9c412)" style="fill: none; stroke: #b0b0b0; stroke-width: 0.8; stroke-linecap: square"/>
     </g>
     <g id="line2d_8">
      <g>
       <use xlink:href="#md4544bc6be" x="313.020407" y="161.67875" style="stroke: #000000; stroke-width: 0.8"/>
      </g>
     </g>
    </g>
    <g id="xtick_5">
     <g id="line2d_9">
      <path d="M 392.428867 161.67875 
L 392.428867 48.331875 
" clip-path="url(#p00a2d9c412)" style="fill: none; stroke: #b0b0b0; stroke-width: 0.8; stroke-linecap: square"/>
     </g>
     <g id="line2d_10">
      <g>
       <use xlink:href="#md4544bc6be" x="392.428867" y="161.67875" style="stroke: #000000; stroke-width: 0.8"/>
      </g>
     </g>
    </g>
   </g>
   <g id="matplotlib.axis_2">
    <g id="ytick_1">
     <g id="line2d_11">
      <path d="M 56.928125 156.583205 
L 450 156.583205 
" clip-path="url(#p00a2d9c412)" style="fill: none; stroke: #b0b0b0; stroke-width: 0.8; stroke-linecap: square"/>
     </g>
     <g id="line2d_12">
      <defs>
       <path id="m80f26ee75f" d="M 0 0 
L -3.5 0 
" style="stroke: #000000; stroke-width: 0.8"/>
      </defs>
      <g>
       <use xlink:href="#m80f26ee75f" x="56.928125" y="156.583205" style="stroke: #000000; stroke-width: 0.8"/>
      </g>
     </g>
     <g id="text_1">
      <!-- 0 -->
      <g transform="translate(43.565625 160.382424)scale(0.1 -0.1)">
       <defs>
        <path id="DejaVuSans-30" d="M 2034 4250 
Q 1547 4250 1301 3770 
Q 1056 3291 1056 2328 
Q 1056 1369 1301 889 
Q 1547 409 2034 409 
Q 2525 409 2770 889 
Q 3016 1369 3016 2328 
Q 3016 3291 2770 3770 
Q 2525 4250 2034 4250 
z
M 2034 4750 
Q 2819 4750 3233 4129 
Q 3647 3509 3647 2328 
Q 3647 1150 3233 529 
Q 2819 -91 2034 -91 
Q 1250 -91 836 529 
Q 422 1150 422 2328 
Q 422 3509 836 4129 
Q 1250 4750 2034 4750 
z
" transform="scale(0.015625)"/>
       </defs>
       <use xlink:href="#DejaVuSans-30"/>
      </g>
     </g>
    </g>
    <g id="ytick_2">
     <g id="line2d_13">
      <path d="M 56.928125 128.29034 
L 450 128.29034 
" clip-path="url(#p00a2d9c412)" style="fill: none; stroke: #b0b0b0; stroke-width: 0.8; stroke-linecap: square"/>
     </g>
     <g id="line2d_14">
      <g>
       <use xlink:href="#m80f26ee75f" x="56.928125" y="128.29034" style="stroke: #000000; stroke-width: 0.8"/>
      </g>
     </g>
     <g id="text_2">
      <!-- 500 -->
      <g transform="translate(30.840625 132.089559)scale(0.1 -0.1)">
       <defs>
        <path id="DejaVuSans-35" d="M 691 4666 
L 3169 4666 
L 3169 4134 
L 1269 4134 
L 1269 2991 
Q 1406 3038 1543 3061 
Q 1681 3084 1819 3084 
Q 2600 3084 3056 2656 
Q 3513 2228 3513 1497 
Q 3513 744 3044 326 
Q 2575 -91 1722 -91 
Q 1428 -91 1123 -41 
Q 819 9 494 109 
L 494 744 
Q 775 591 1075 516 
Q 1375 441 1709 441 
Q 2250 441 2565 725 
Q 2881 1009 2881 1497 
Q 2881 1984 2565 2268 
Q 2250 2553 1709 2553 
Q 1456 2553 1204 2497 
Q 953 2441 691 2322 
L 691 4666 
z
" transform="scale(0.015625)"/>
       </defs>
       <use xlink:href="#DejaVuSans-35"/>
       <use xlink:href="#DejaVuSans-30" x="63.623047"/>
       <use xlink:href="#DejaVuSans-30" x="127.246094"/>
      </g>
     </g>
    </g>
    <g id="ytick_3">
     <g id="line2d_15">
      <path d="M 56.928125 99.997475 
L 450 99.997475 
" clip-path="url(#p00a2d9c412)" style="fill: none; stroke: #b0b0b0; stroke-width: 0.8; stroke-linecap: square"/>
     </g>
     <g id="line2d_16">
      <g>
       <use xlink:href="#m80f26ee75f" x="56.928125" y="99.997475" style="stroke: #000000; stroke-width: 0.8"/>
      </g>
     </g>
     <g id="text_3">
      <!-- 1000 -->
      <g transform="translate(24.478125 103.796694)scale(0.1 -0.1)">
       <defs>
        <path id="DejaVuSans-31" d="M 794 531 
L 1825 531 
L 1825 4091 
L 703 3866 
L 703 4441 
L 1819 4666 
L 2450 4666 
L 2450 531 
L 3481 531 
L 3481 0 
L 794 0 
L 794 531 
z
" transform="scale(0.015625)"/>
       </defs>
       <use xlink:href="#DejaVuSans-31"/>
       <use xlink:href="#DejaVuSans-30" x="63.623047"/>
       <use xlink:href="#DejaVuSans-30" x="127.246094"/>
       <use xlink:href="#DejaVuSans-30" x="190.869141"/>
      </g>
     </g>
    </g>
    <g id="ytick_4">
     <g id="line2d_17">
      <path d="M 56.928125 71.704611 
L 450 71.704611 
" clip-path="url(#p00a2d9c412)" style="fill: none; stroke: #b0b0b0; stroke-width: 0.8; stroke-linecap: square"/>
     </g>
     <g id="line2d_18">
      <g>
       <use xlink:href="#m80f26ee75f" x="56.928125" y="71.704611" style="stroke: #000000; stroke-width: 0.8"/>
      </g>
     </g>
     <g id="text_4">
      <!-- 1500 -->
      <g transform="translate(24.478125 75.503829)scale(0.1 -0.1)">
       <use xlink:href="#DejaVuSans-31"/>
       <use xlink:href="#DejaVuSans-35" x="63.623047"/>
       <use xlink:href="#DejaVuSans-30" x="127.246094"/>
       <use xlink:href="#DejaVuSans-30" x="190.869141"/>
      </g>
     </g>
    </g>
    <g id="text_5">
     <!-- reflector value -->
     <g transform="translate(18.398438 141.321719)rotate(-90)scale(0.1 -0.1)">
      <defs>
       <path id="DejaVuSans-72" d="M 2631 2963 
Q 2534 3019 2420 3045 
Q 2306 3072 2169 3072 
Q 1681 3072 1420 2755 
Q 1159 2438 1159 1844 
L 1159 0 
L 581 0 
L 581 3500 
L 1159 3500 
L 1159 2956 
Q 1341 3275 1631 3429 
Q 1922 3584 2338 3584 
Q 2397 3584 2469 3576 
Q 2541 3569 2628 3553 
L 2631 2963 
z
" transform="scale(0.015625)"/>
       <path id="DejaVuSans-65" d="M 3597 1894 
L 3597 1613 
L 953 1613 
Q 991 1019 1311 708 
Q 1631 397 2203 397 
Q 2534 397 2845 478 
Q 3156 559 3463 722 
L 3463 178 
Q 3153 47 2828 -22 
Q 2503 -91 2169 -91 
Q 1331 -91 842 396 
Q 353 884 353 1716 
Q 353 2575 817 3079 
Q 1281 3584 2069 3584 
Q 2775 3584 3186 3129 
Q 3597 2675 3597 1894 
z
M 3022 2063 
Q 3016 2534 2758 2815 
Q 2500 3097 2075 3097 
Q 1594 3097 1305 2825 
Q 1016 2553 972 2059 
L 3022 2063 
z
" transform="scale(0.015625)"/>
       <path id="DejaVuSans-66" d="M 2375 4863 
L 2375 4384 
L 1825 4384 
Q 1516 4384 1395 4259 
Q 1275 4134 1275 3809 
L 1275 3500 
L 2222 3500 
L 2222 3053 
L 1275 3053 
L 1275 0 
L 697 0 
L 697 3053 
L 147 3053 
L 147 3500 
L 697 3500 
L 697 3744 
Q 697 4328 969 4595 
Q 1241 4863 1831 4863 
L 2375 4863 
z
" transform="scale(0.015625)"/>
       <path id="DejaVuSans-6c" d="M 603 4863 
L 1178 4863 
L 1178 0 
L 603 0 
L 603 4863 
z
" transform="scale(0.015625)"/>
       <path id="DejaVuSans-63" d="M 3122 3366 
L 3122 2828 
Q 2878 2963 2633 3030 
Q 2388 3097 2138 3097 
Q 1578 3097 1268 2742 
Q 959 2388 959 1747 
Q 959 1106 1268 751 
Q 1578 397 2138 397 
Q 2388 397 2633 464 
Q 2878 531 3122 666 
L 3122 134 
Q 2881 22 2623 -34 
Q 2366 -91 2075 -91 
Q 1284 -91 818 406 
Q 353 903 353 1747 
Q 353 2603 823 3093 
Q 1294 3584 2113 3584 
Q 2378 3584 2631 3529 
Q 2884 3475 3122 3366 
z
" transform="scale(0.015625)"/>
       <path id="DejaVuSans-74" d="M 1172 4494 
L 1172 3500 
L 2356 3500 
L 2356 3053 
L 1172 3053 
L 1172 1153 
Q 1172 725 1289 603 
Q 1406 481 1766 481 
L 2356 481 
L 2356 0 
L 1766 0 
Q 1100 0 847 248 
Q 594 497 594 1153 
L 594 3053 
L 172 3053 
L 172 3500 
L 594 3500 
L 594 4494 
L 1172 4494 
z
" transform="scale(0.015625)"/>
       <path id="DejaVuSans-6f" d="M 1959 3097 
Q 1497 3097 1228 2736 
Q 959 2375 959 1747 
Q 959 1119 1226 758 
Q 1494 397 1959 397 
Q 2419 397 2687 759 
Q 2956 1122 2956 1747 
Q 2956 2369 2687 2733 
Q 2419 3097 1959 3097 
z
M 1959 3584 
Q 2709 3584 3137 3096 
Q 3566 2609 3566 1747 
Q 3566 888 3137 398 
Q 2709 -91 1959 -91 
Q 1206 -91 779 398 
Q 353 888 353 1747 
Q 353 2609 779 3096 
Q 1206 3584 1959 3584 
z
" transform="scale(0.015625)"/>
       <path id="DejaVuSans-20" transform="scale(0.015625)"/>
       <path id="DejaVuSans-76" d="M 191 3500 
L 800 3500 
L 1894 563 
L 2988 3500 
L 3597 3500 
L 2284 0 
L 1503 0 
L 191 3500 
z
" transform="scale(0.015625)"/>
       <path id="DejaVuSans-61" d="M 2194 1759 
Q 1497 1759 1228 1600 
Q 959 1441 959 1056 
Q 959 750 1161 570 
Q 1363 391 1709 391 
Q 2188 391 2477 730 
Q 2766 1069 2766 1631 
L 2766 1759 
L 2194 1759 
z
M 3341 1997 
L 3341 0 
L 2766 0 
L 2766 531 
Q 2569 213 2275 61 
Q 1981 -91 1556 -91 
Q 1019 -91 701 211 
Q 384 513 384 1019 
Q 384 1609 779 1909 
Q 1175 2209 1959 2209 
L 2766 2209 
L 2766 2266 
Q 2766 2663 2505 2880 
Q 2244 3097 1772 3097 
Q 1472 3097 1187 3025 
Q 903 2953 641 2809 
L 641 3341 
Q 956 3463 1253 3523 
Q 1550 3584 1831 3584 
Q 2591 3584 2966 3190 
Q 3341 2797 3341 1997 
z
" transform="scale(0.015625)"/>
       <path id="DejaVuSans-75" d="M 544 1381 
L 544 3500 
L 1119 3500 
L 1119 1403 
Q 1119 906 1312 657 
Q 1506 409 1894 409 
Q 2359 409 2629 706 
Q 2900 1003 2900 1516 
L 2900 3500 
L 3475 3500 
L 3475 0 
L 2900 0 
L 2900 538 
Q 2691 219 2414 64 
Q 2138 -91 1772 -91 
Q 1169 -91 856 284 
Q 544 659 544 1381 
z
M 1991 3584 
L 1991 3584 
z
" transform="scale(0.015625)"/>
      </defs>
      <use xlink:href="#DejaVuSans-72"/>
      <use xlink:href="#DejaVuSans-65" x="38.863281"/>
      <use xlink:href="#DejaVuSans-66" x="100.386719"/>
      <use xlink:href="#DejaVuSans-6c" x="135.591797"/>
      <use xlink:href="#DejaVuSans-65" x="163.375"/>
      <use xlink:href="#DejaVuSans-63" x="224.898438"/>
      <use xlink:href="#DejaVuSans-74" x="279.878906"/>
      <use xlink:href="#DejaVuSans-6f" x="319.087891"/>
      <use xlink:href="#DejaVuSans-72" x="380.269531"/>
      <use xlink:href="#DejaVuSans-20" x="421.382812"/>
      <use xlink:href="#DejaVuSans-76" x="453.169922"/>
      <use xlink:href="#DejaVuSans-61" x="512.349609"/>
      <use xlink:href="#DejaVuSans-6c" x="573.628906"/>
      <use xlink:href="#DejaVuSans-75" x="601.412109"/>
      <use xlink:href="#DejaVuSans-65" x="664.791016"/>
     </g>
    </g>
   </g>
   <g id="line2d_19">
    <path d="M 74.795028 143.568487 
L 74.795283 143.568487 
L 74.797061 143.681659 
L 74.798999 143.511902 
L 74.90223 143.511902 
L 75.089157 143.681659 
L 75.133229 143.738244 
L 75.291331 143.511902 
L 75.35327 143.511902 
L 75.569737 143.342144 
L 75.741577 143.342144 
L 75.936128 143.00263 
L 76.043329 143.115801 
L 76.403844 143.00263 
L 76.679391 142.946044 
L 77.145519 142.832873 
L 77.315453 142.832873 
L 77.49174 142.719701 
L 77.675967 142.323601 
L 77.867342 142.267015 
L 78.065863 142.436773 
L 78.483551 142.097258 
L 79.164082 141.701158 
L 79.405484 141.531401 
L 79.654032 141.587987 
L 79.909727 141.248472 
L 80.441764 141.022129 
L 81.898115 140.116758 
L 82.210984 139.777243 
L 83.188503 139.494315 
L 83.529959 139.1548 
L 84.236694 138.815286 
L 84.601973 138.475772 
L 85.340472 138.249429 
L 85.721632 137.853329 
L 86.499835 137.457228 
L 87.301861 136.721614 
L 87.714785 136.721614 
L 88.127709 136.495271 
L 88.540633 136.099171 
L 89.82705 135.476728 
L 90.263796 135.024042 
L 90.700543 134.797699 
L 91.14523 134.345013 
L 92.495174 133.665985 
L 92.947802 133.156713 
L 93.408371 132.93037 
L 98.577862 128.573269 
L 99.054313 128.233755 
L 99.530764 127.724483 
L 100.007214 126.762526 
L 100.483665 126.592768 
L 103.81882 122.518596 
L 104.295271 121.782981 
L 104.771722 121.27371 
L 105.724623 119.576138 
L 109.536229 113.634636 
L 110.01268 112.446336 
L 110.489131 111.937064 
L 110.965582 110.692178 
L 111.442033 109.843392 
L 111.918483 108.598506 
L 112.394934 107.862892 
L 114.300737 103.392619 
L 114.777188 102.430662 
L 115.253639 101.185776 
L 115.730089 100.280404 
L 116.682991 96.262817 
L 117.635892 93.886217 
L 118.112343 91.905716 
L 120.971048 83.248099 
L 121.447498 82.059799 
L 121.923949 81.38077 
L 122.4004 79.626613 
L 123.353301 77.929041 
L 123.829752 77.815869 
L 124.782654 76.005126 
L 125.259104 75.326097 
L 125.735555 75.043169 
L 126.212006 74.250968 
L 126.688457 75.15634 
L 127.641358 71.591439 
L 128.59426 69.72411 
L 129.547161 66.838238 
L 130.976514 63.273337 
L 131.452964 63.669437 
L 131.929415 62.424551 
L 132.405866 62.537722 
L 132.882317 62.820651 
L 133.358767 64.122123 
L 133.835218 66.046038 
L 135.741021 83.927128 
L 137.170373 105.090191 
L 139.552627 136.608442 
L 140.505529 144.813373 
L 140.981979 147.24656 
L 141.934881 149.906089 
L 142.887783 151.320732 
L 143.364233 151.773418 
L 143.840684 151.999761 
L 145.270036 152.169518 
L 145.746487 152.395861 
L 148.128741 152.67879 
L 148.605192 152.395861 
L 149.081642 152.735375 
L 149.558093 152.395861 
L 150.510995 152.622204 
L 150.987445 152.452447 
L 152.893248 152.395861 
L 153.84615 152.28269 
L 154.362305 152.339275 
L 154.838756 152.169518 
L 157.221009 152.112932 
L 158.173911 152.056347 
L 159.126812 151.999761 
L 159.603263 151.943175 
L 160.079714 151.716832 
L 161.032616 151.716832 
L 161.509066 151.433904 
L 161.985517 151.490489 
L 162.938419 151.433904 
L 163.414869 151.150975 
L 163.89132 151.264146 
L 165.797123 150.641703 
L 166.750025 150.528532 
L 168.179377 150.132432 
L 168.655828 150.132432 
L 169.132278 149.962675 
L 170.08518 149.340232 
L 171.038081 149.283646 
L 172.467434 148.661203 
L 172.943884 148.604617 
L 173.896786 148.321689 
L 174.373237 147.869003 
L 175.326138 147.529488 
L 176.27904 147.24656 
L 176.755491 146.907045 
L 178.661294 146.341188 
L 179.614195 145.718745 
L 180.090646 145.548988 
L 181.043547 144.869959 
L 181.44059 144.869959 
L 181.91704 144.756788 
L 184.299294 143.39873 
L 185.252196 142.946044 
L 189.063802 140.569444 
L 190.016703 139.664072 
L 193.828309 136.891371 
L 194.781211 135.929414 
L 195.734112 135.420142 
L 197.639915 133.496227 
L 198.116366 133.100127 
L 200.022169 130.94987 
L 200.49862 130.497184 
L 200.975071 129.818155 
L 201.451521 129.365469 
L 201.927972 128.68644 
L 202.404423 128.516683 
L 202.880874 127.271797 
L 203.357324 126.70594 
L 203.833775 125.91374 
L 204.310226 125.404468 
L 204.786677 125.121539 
L 205.263128 124.046411 
L 206.69248 122.06591 
L 207.168931 121.613224 
L 207.645381 120.424924 
L 208.121832 119.632724 
L 209.074734 118.557595 
L 210.027635 116.63368 
L 210.980537 115.162451 
L 211.456987 114.200494 
L 213.36279 111.371207 
L 214.792143 108.598506 
L 215.268593 107.976063 
L 216.697946 104.184819 
L 217.174396 103.562376 
L 217.650847 101.412119 
L 218.127298 100.110647 
L 219.080199 96.828675 
L 219.55665 95.810131 
L 220.033101 93.829631 
L 220.509552 92.641331 
L 220.986003 90.491073 
L 223.368256 83.757371 
L 223.844707 83.191514 
L 224.321158 81.946628 
L 224.797609 81.437356 
L 225.75051 79.852956 
L 226.226961 79.683198 
L 226.703412 78.098798 
L 227.179862 77.306598 
L 227.656313 76.118298 
L 228.132764 75.665612 
L 228.609215 74.929997 
L 229.085665 73.741697 
L 229.562116 73.119254 
L 230.038567 73.062668 
L 230.515018 72.157296 
L 230.991468 70.91241 
L 231.94437 66.611895 
L 232.420821 61.519179 
L 232.897271 63.329923 
L 233.373722 65.763109 
L 233.850173 66.611895 
L 234.326624 68.026538 
L 234.803074 71.365096 
L 235.279525 73.119254 
L 235.755976 76.910498 
L 236.232427 81.720285 
L 237.185328 94.961345 
L 238.13823 109.164364 
L 239.091131 121.500053 
L 240.520484 136.268928 
L 241.473385 143.00263 
L 241.949836 145.605574 
L 242.426287 147.416317 
L 243.379188 149.849503 
L 244.33209 151.377318 
L 245.284991 152.056347 
L 246.237893 152.226104 
L 246.714343 152.395861 
L 248.143696 152.452447 
L 248.620146 152.622204 
L 249.096597 152.565618 
L 249.573048 152.622204 
L 250.049499 152.395861 
L 250.525949 152.395861 
L 251.0024 152.509033 
L 251.955302 152.339275 
L 252.431753 152.565618 
L 253.384654 152.509033 
L 253.861105 152.565618 
L 254.337556 152.452447 
L 254.814006 152.622204 
L 255.290457 152.339275 
L 255.766908 152.395861 
L 256.243359 152.112932 
L 256.719809 152.395861 
L 257.19626 152.169518 
L 258.625612 152.169518 
L 259.578514 152.056347 
L 260.054965 152.056347 
L 260.531415 151.886589 
L 261.007866 151.886589 
L 261.484317 151.660247 
L 262.437218 151.660247 
L 263.39012 151.320732 
L 263.866571 151.490489 
L 264.343021 151.490489 
L 265.295923 151.207561 
L 265.772374 151.207561 
L 266.248824 151.037804 
L 266.725275 151.094389 
L 267.201726 150.641703 
L 269.58398 150.189018 
L 270.060431 150.132432 
L 271.489783 149.509989 
L 273.872037 149.283646 
L 274.824938 148.83096 
L 275.77784 148.43486 
L 276.25429 148.43486 
L 277.207192 148.095346 
L 278.160093 147.64266 
L 279.112995 147.359731 
L 280.065896 146.793874 
L 283.401052 145.548988 
L 283.877503 145.096302 
L 284.830404 144.643616 
L 286.259756 143.851416 
L 286.736207 143.511902 
L 288.64201 142.832873 
L 289.118461 142.380187 
L 291.500715 140.965544 
L 291.977165 140.852372 
L 292.453616 140.286515 
L 295.312321 138.192843 
L 295.788771 137.626986 
L 296.265222 137.513814 
L 297.694574 135.985999 
L 298.171025 135.703071 
L 299.123927 134.627942 
L 299.600378 134.005499 
L 300.553279 133.213299 
L 302.935533 130.893284 
L 303.411984 130.327427 
L 303.888434 130.214255 
L 304.364885 129.195712 
L 304.841336 128.573269 
L 305.317787 128.177169 
L 305.794237 127.045454 
L 306.270688 126.70594 
L 308.652942 123.989825 
L 309.129393 123.65031 
L 310.082294 122.179081 
L 310.558745 121.839567 
L 311.035196 120.651267 
L 311.511646 120.085409 
L 311.988097 119.293209 
L 312.940999 118.274666 
L 313.417449 117.142952 
L 313.8939 116.407337 
L 319.134859 104.97702 
L 319.611309 103.732134 
L 320.08776 102.883348 
L 320.564211 102.430662 
L 321.040662 100.73309 
L 322.946465 96.206232 
L 323.422915 96.206232 
L 323.899366 94.791588 
L 324.375817 94.282317 
L 325.805169 92.132059 
L 326.28162 92.188645 
L 326.758071 90.830587 
L 327.234521 90.377901 
L 328.187423 89.07643 
L 328.663874 88.567158 
L 329.140324 88.397401 
L 330.093226 86.077386 
L 330.569677 85.681286 
L 331.046128 86.247143 
L 331.522578 84.889086 
L 331.999029 85.002257 
L 332.47548 84.889086 
L 332.951931 83.813957 
L 333.428381 84.662743 
L 333.904832 83.983714 
L 334.381283 84.8325 
L 334.857734 86.0208 
L 335.810635 90.491073 
L 336.763537 96.432574 
L 337.716438 104.467748 
L 338.66934 113.747808 
L 339.622241 120.651267 
L 341.528044 135.646485 
L 342.480946 141.984087 
L 343.433847 147.189974 
L 343.910298 149.170474 
L 344.863199 151.320732 
L 345.816101 152.622204 
L 346.292552 152.961718 
L 347.721904 152.961718 
L 348.198355 153.244647 
L 349.627707 153.414404 
L 350.580609 153.301233 
L 351.057059 153.357818 
L 352.009961 153.584161 
L 352.486412 153.527576 
L 352.962862 153.584161 
L 355.821567 153.018304 
L 356.298018 152.961718 
L 357.250919 153.018304 
L 358.680271 152.791961 
L 359.156722 152.961718 
L 359.633173 152.961718 
L 360.586074 152.848547 
L 361.062525 152.791961 
L 362.015427 152.28269 
L 362.491878 152.28269 
L 363.92123 152.056347 
L 365.827033 151.773418 
L 366.303484 151.603661 
L 366.779934 151.943175 
L 367.256385 151.547075 
L 367.732836 151.660247 
L 368.209287 151.433904 
L 368.685737 151.433904 
L 369.162188 151.320732 
L 369.638639 150.981218 
L 373.450245 150.132432 
L 373.926696 150.189018 
L 374.879597 149.736332 
L 375.356048 149.679746 
L 376.308949 149.283646 
L 376.7854 149.000717 
L 377.261851 148.944132 
L 377.738302 148.604617 
L 378.691203 148.43486 
L 379.167654 148.43486 
L 380.120556 148.03876 
L 381.073457 147.869003 
L 383.932162 146.567531 
L 384.408612 146.454359 
L 385.361514 145.888502 
L 387.743768 144.869959 
L 388.220218 144.813373 
L 389.17312 144.134345 
L 392.031824 142.21043 
L 392.508275 141.984087 
L 392.984726 141.41823 
L 393.461177 141.191887 
L 394.414078 141.135301 
L 394.890529 140.399686 
L 395.36698 140.229929 
L 395.843431 139.720658 
L 396.319881 139.437729 
L 397.272783 138.475772 
L 397.749234 138.136257 
L 398.225684 137.9665 
L 401.084389 135.646485 
L 401.56084 135.589899 
L 403.466643 133.552813 
L 403.943093 133.383056 
L 404.419544 132.93037 
L 404.895995 132.194756 
L 405.372446 132.13817 
L 405.848896 131.798655 
L 406.801798 130.440598 
L 408.707601 128.516683 
L 409.184052 127.950826 
L 409.660503 126.875697 
L 410.136953 126.366425 
L 411.566306 124.329339 
L 412.042756 123.876653 
L 412.519207 123.141039 
L 412.995658 122.971282 
L 416.171996 117.652223 
L 416.569039 116.803437 
L 417.045489 116.463923 
L 417.442532 115.898065 
L 417.918982 114.370251 
L 418.316025 114.030736 
L 418.713067 112.672679 
L 419.110109 112.050236 
L 419.58656 111.031693 
L 420.380645 108.598506 
L 420.777687 107.806306 
L 421.889405 104.694091 
L 422.286448 104.354577 
L 422.604081 103.166276 
L 423.7158 100.280404 
L 424.668701 97.620875 
L 424.986335 96.941846 
L 425.303969 96.545746 
L 426.177462 95.017931 
L 426.415687 95.017931 
L 426.971547 94.11256 
L 427.209772 94.11256 
L 427.447997 93.829631 
L 427.924448 92.867673 
L 428.797941 92.301816 
L 429.592026 92.358402 
L 429.90966 91.735959 
L 430.227294 91.113516 
L 430.38611 90.774002 
L 430.465519 91.396445 
L 430.624336 89.981801 
L 430.783153 89.755458 
L 431.339012 84.379814 
L 431.41842 85.681286 
L 431.497829 85.568114 
L 431.815463 87.661786 
L 431.894871 87.492029 
L 431.97428 87.039343 
L 431.97428 87.548615 
L 432.053688 87.944715 
L 432.133097 101.638462 
L 432.133097 100.959433 
" clip-path="url(#p00a2d9c412)" style="fill: none; stroke: #1f77b4; stroke-width: 1.5; stroke-linecap: square"/>
   </g>
   <g id="line2d_20">
    <path d="M 74.795028 156.526619 
L 93.86894 156.526619 
L 94.798019 156.243691 
L 95.266529 156.187105 
L 95.735039 155.791005 
L 96.203549 155.847591 
L 98.101411 155.621248 
L 100.483665 154.885633 
L 100.960116 154.942219 
L 101.436567 154.772462 
L 101.913017 155.394905 
L 102.389468 155.394905 
L 102.865919 155.564662 
L 103.81882 155.621248 
L 104.295271 155.677833 
L 104.771722 155.225148 
L 105.724623 155.394905 
L 106.201074 155.677833 
L 107.153976 155.677833 
L 108.583328 156.073933 
L 109.059779 156.130519 
L 110.489131 156.526619 
L 432.133097 156.526619 
L 432.133097 156.526619 
" clip-path="url(#p00a2d9c412)" style="fill: none; stroke: #ff7f0e; stroke-width: 1.5; stroke-linecap: square"/>
   </g>
   <g id="line2d_21">
    <path d="M 74.795028 156.526619 
L 105.248173 156.526619 
L 105.724623 156.300276 
L 106.201074 156.526619 
L 110.01268 156.526619 
L 110.489131 156.073933 
L 110.965582 156.526619 
L 114.777188 156.526619 
L 115.253639 155.960762 
L 115.730089 156.526619 
L 116.20654 156.526619 
L 117.159442 156.017348 
L 117.635892 156.017348 
L 118.112343 155.847591 
L 119.065245 155.960762 
L 120.494597 155.621248 
L 120.971048 156.526619 
L 121.447498 155.677833 
L 121.923949 155.677833 
L 122.4004 156.526619 
L 122.876851 155.564662 
L 123.353301 155.338319 
L 123.829752 156.470034 
L 124.306203 156.017348 
L 124.782654 155.791005 
L 125.259104 155.791005 
L 126.212006 155.677833 
L 126.688457 155.677833 
L 127.164908 154.546119 
L 127.641358 154.150019 
L 128.117809 154.150019 
L 128.59426 154.26319 
L 129.070711 154.150019 
L 129.547161 154.206604 
L 130.023612 154.150019 
L 130.500063 153.923676 
L 130.976514 153.86709 
L 131.452964 155.564662 
L 131.929415 156.526619 
L 132.405866 153.47099 
L 132.882317 153.86709 
L 133.835218 153.640747 
L 134.311669 153.86709 
L 134.78812 154.772462 
L 135.26457 154.150019 
L 135.741021 153.86709 
L 136.217472 153.86709 
L 136.693923 153.697333 
L 137.170373 153.188061 
L 137.646824 153.527576 
L 138.123275 152.565618 
L 140.505529 151.660247 
L 140.981979 151.207561 
L 141.45843 151.264146 
L 141.934881 151.999761 
L 142.411332 150.868046 
L 143.364233 150.415361 
L 143.840684 150.698289 
L 144.317135 150.245603 
L 144.793586 150.415361 
L 145.270036 151.660247 
L 145.746487 150.189018 
L 146.222938 150.415361 
L 147.65229 149.453403 
L 148.128741 150.189018 
L 148.605192 149.000717 
L 149.081642 148.491446 
L 150.034544 148.43486 
L 150.510995 148.774374 
L 150.987445 149.340232 
L 151.463896 151.547075 
L 151.940347 148.43486 
L 152.416798 148.43486 
L 152.893248 149.396817 
L 153.369699 148.265103 
L 153.84615 147.925588 
L 154.362305 148.151931 
L 154.838756 147.925588 
L 155.791657 148.321689 
L 156.268108 149.453403 
L 156.744559 148.944132 
L 157.221009 148.944132 
L 157.69746 148.83096 
L 158.173911 149.057303 
L 158.650362 150.01926 
L 159.126812 148.03876 
L 159.603263 148.095346 
L 160.556165 149.000717 
L 161.032616 151.716832 
L 161.509066 149.170474 
L 161.985517 149.62316 
L 162.461968 149.113889 
L 162.938419 149.962675 
L 164.367771 150.868046 
L 164.844222 150.924632 
L 165.320672 151.660247 
L 165.797123 153.188061 
L 166.273574 151.490489 
L 166.750025 152.565618 
L 167.702926 153.018304 
L 168.179377 153.07489 
L 168.655828 155.111976 
L 169.608729 151.660247 
L 170.08518 151.490489 
L 170.561631 153.244647 
L 171.038081 152.961718 
L 171.514532 153.697333 
L 171.990983 153.018304 
L 172.943884 153.527576 
L 173.896786 153.980261 
L 174.373237 154.26319 
L 174.849687 154.150019 
L 175.326138 154.829047 
L 175.802589 155.168562 
L 176.27904 154.942219 
L 176.755491 156.413448 
L 177.708392 156.526619 
L 199.545718 156.526619 
L 200.022169 155.677833 
L 200.49862 156.526619 
L 205.263128 156.526619 
L 205.739578 156.413448 
L 206.69248 156.526619 
L 209.074734 156.526619 
L 209.551184 155.960762 
L 210.504086 156.073933 
L 210.980537 155.677833 
L 211.933438 155.791005 
L 212.88634 155.621248 
L 213.839241 155.621248 
L 214.315692 156.526619 
L 214.792143 155.677833 
L 215.268593 155.677833 
L 215.745044 155.338319 
L 216.221495 156.526619 
L 216.697946 156.187105 
L 217.174396 156.413448 
L 217.650847 156.017348 
L 218.127298 155.960762 
L 218.603749 154.942219 
L 219.080199 154.715876 
L 219.55665 154.885633 
L 220.509552 154.546119 
L 220.986003 153.357818 
L 221.462453 154.376362 
L 221.938904 156.356862 
L 222.415355 154.546119 
L 222.891806 154.942219 
L 223.368256 153.47099 
L 223.844707 154.093433 
L 224.321158 154.150019 
L 224.797609 153.357818 
L 225.274059 153.86709 
L 225.75051 154.65929 
L 226.226961 154.772462 
L 226.703412 154.546119 
L 227.179862 154.65929 
L 228.609215 154.150019 
L 229.085665 152.395861 
L 229.562116 153.018304 
L 230.515018 152.905133 
L 230.991468 153.131476 
L 231.467919 152.905133 
L 231.94437 152.28269 
L 232.420821 152.226104 
L 233.850173 151.773418 
L 234.326624 151.094389 
L 234.803074 151.773418 
L 235.279525 151.150975 
L 235.755976 151.037804 
L 236.232427 151.490489 
L 236.708878 151.490489 
L 237.661779 150.754875 
L 238.13823 151.094389 
L 238.614681 149.736332 
L 240.044033 149.340232 
L 240.520484 149.22706 
L 240.996934 148.717789 
L 242.426287 148.265103 
L 242.902737 147.925588 
L 243.379188 148.03876 
L 244.33209 147.189974 
L 244.80854 150.811461 
L 245.284991 148.321689 
L 246.237893 148.43486 
L 246.714343 148.43486 
L 247.190794 147.359731 
L 247.667245 148.095346 
L 248.143696 146.793874 
L 248.620146 146.624117 
L 249.096597 146.114845 
L 249.573048 146.624117 
L 250.049499 145.888502 
L 250.525949 145.605574 
L 251.0024 145.605574 
L 253.384654 144.19093 
L 254.337556 144.134345 
L 254.814006 145.152888 
L 255.290457 144.926545 
L 255.766908 145.209473 
L 256.243359 145.322645 
L 256.719809 147.529488 
L 257.19626 145.209473 
L 257.672711 144.473859 
L 258.149162 144.247516 
L 258.625612 144.304102 
L 259.102063 144.19093 
L 259.578514 144.700202 
L 260.054965 144.813373 
L 260.531415 144.700202 
L 261.007866 144.813373 
L 261.484317 144.643616 
L 261.960768 145.096302 
L 262.437218 144.98313 
L 262.913669 145.096302 
L 263.39012 146.907045 
L 263.866571 145.209473 
L 264.343021 145.831916 
L 264.819472 145.209473 
L 265.295923 145.548988 
L 265.772374 145.548988 
L 266.248824 144.98313 
L 266.725275 145.209473 
L 267.201726 144.077759 
L 267.678177 144.304102 
L 268.154628 144.756788 
L 268.631078 144.700202 
L 269.58398 144.813373 
L 270.060431 145.492402 
L 270.536881 145.605574 
L 271.013332 146.001674 
L 271.489783 147.020217 
L 271.966234 146.510945 
L 272.919135 146.624117 
L 273.395586 148.265103 
L 274.348487 148.717789 
L 274.824938 149.283646 
L 275.77784 149.849503 
L 276.25429 149.340232 
L 276.730741 149.000717 
L 277.207192 150.245603 
L 278.160093 151.660247 
L 278.636544 151.999761 
L 279.589446 153.07489 
L 280.065896 153.301233 
L 280.542347 154.26319 
L 281.018798 153.980261 
L 281.495249 156.187105 
L 281.971699 156.526619 
L 282.44815 156.017348 
L 282.924601 156.470034 
L 283.877503 156.526619 
L 290.071362 156.526619 
L 290.547813 156.017348 
L 291.024264 156.526619 
L 294.359419 156.526619 
L 294.83587 156.130519 
L 295.312321 156.073933 
L 295.788771 155.847591 
L 297.218124 155.791005 
L 298.171025 155.564662 
L 299.600378 155.677833 
L 300.076828 155.677833 
L 300.553279 156.526619 
L 301.02973 155.564662 
L 301.506181 156.526619 
L 301.982631 156.187105 
L 302.459082 156.526619 
L 303.411984 156.526619 
L 303.888434 155.564662 
L 304.364885 155.45149 
L 304.841336 155.677833 
L 305.317787 155.564662 
L 305.794237 155.791005 
L 306.270688 155.05539 
L 306.747139 155.677833 
L 308.652942 155.621248 
L 309.129393 154.942219 
L 309.605843 156.526619 
L 310.082294 155.904176 
L 310.558745 156.526619 
L 311.511646 156.526619 
L 311.988097 156.187105 
L 312.464548 155.508076 
L 312.940999 154.602705 
L 313.417449 155.338319 
L 313.8939 155.281733 
L 314.370351 155.394905 
L 315.323253 154.772462 
L 315.799703 154.65929 
L 316.276154 156.526619 
L 316.752605 153.810504 
L 317.229056 155.111976 
L 317.705506 155.111976 
L 318.181957 156.017348 
L 318.658408 155.677833 
L 319.134859 155.960762 
L 319.611309 155.734419 
L 320.564211 155.677833 
L 321.040662 155.564662 
L 321.517112 154.432947 
L 321.993563 154.432947 
L 322.470014 154.65929 
L 322.946465 154.602705 
L 323.422915 156.526619 
L 323.899366 154.150019 
L 324.375817 153.86709 
L 324.852268 152.791961 
L 325.328718 153.980261 
L 325.805169 153.131476 
L 326.28162 153.810504 
L 326.758071 153.86709 
L 327.234521 154.602705 
L 327.710972 154.65929 
L 328.187423 154.26319 
L 328.663874 152.961718 
L 329.140324 153.86709 
L 329.616775 153.753919 
L 330.093226 152.565618 
L 332.951931 151.490489 
L 333.904832 150.754875 
L 334.381283 151.150975 
L 334.857734 150.981218 
L 335.334184 152.339275 
L 335.810635 152.452447 
L 336.287086 151.943175 
L 336.763537 152.056347 
L 337.239987 151.660247 
L 337.716438 151.433904 
L 338.192889 150.528532 
L 338.66934 148.83096 
L 339.14579 149.736332 
L 339.622241 149.679746 
L 340.098692 149.509989 
L 340.575143 149.057303 
L 341.051593 149.170474 
L 341.528044 149.679746 
L 342.004495 148.604617 
L 342.480946 148.43486 
L 342.957396 148.491446 
L 343.433847 149.62316 
L 344.863199 149.057303 
L 345.33965 148.717789 
L 345.816101 148.944132 
L 346.292552 148.43486 
L 346.769003 146.793874 
L 347.245453 146.793874 
L 348.198355 146.341188 
L 348.674806 145.662159 
L 349.151256 145.435816 
L 349.627707 145.548988 
L 350.104158 144.926545 
L 350.580609 145.379231 
L 351.057059 145.039716 
L 351.53351 146.963631 
L 352.009961 146.228017 
L 352.486412 146.624117 
L 352.962862 146.228017 
L 353.439313 146.228017 
L 353.915764 145.888502 
L 354.392215 144.19093 
L 355.821567 143.568487 
L 356.298018 143.285559 
L 356.774468 146.624117 
L 357.250919 143.00263 
L 357.72737 142.946044 
L 358.203821 143.908002 
L 358.680271 142.21043 
L 359.156722 146.284602 
L 359.633173 143.115801 
L 361.062525 142.719701 
L 361.538976 141.870915 
L 362.015427 140.286515 
L 362.491878 139.947001 
L 362.968328 139.890415 
L 363.444779 139.5509 
L 363.92123 140.852372 
L 364.874131 139.381143 
L 365.827033 139.041629 
L 366.303484 140.173343 
L 366.779934 140.512858 
L 367.256385 139.437729 
L 367.732836 139.720658 
L 368.209287 140.343101 
L 368.685737 140.229929 
L 369.162188 140.399686 
L 369.638639 139.098215 
L 370.11509 139.437729 
L 370.59154 140.173343 
L 371.067991 141.135301 
L 371.544442 140.399686 
L 372.020893 140.739201 
L 372.497343 142.153844 
L 372.973794 141.474815 
L 373.450245 141.135301 
L 373.926696 143.681659 
L 374.403146 144.19093 
L 375.356048 144.813373 
L 375.832499 145.435816 
L 376.308949 143.79483 
L 376.7854 144.530445 
L 377.261851 144.134345 
L 377.738302 144.813373 
L 378.214753 145.096302 
L 378.691203 146.341188 
L 379.167654 145.775331 
L 379.644105 146.284602 
L 380.120556 147.869003 
L 380.597006 148.944132 
L 381.073457 149.22706 
L 381.549908 150.415361 
L 382.026359 150.811461 
L 382.502809 151.660247 
L 382.97926 151.943175 
L 383.455711 150.245603 
L 383.932162 150.868046 
L 384.408612 151.999761 
L 384.885063 152.339275 
L 385.837965 153.357818 
L 386.314415 153.697333 
L 386.790866 153.357818 
L 387.267317 155.960762 
L 387.743768 155.960762 
L 388.696669 156.526619 
L 389.649571 156.526619 
L 390.126021 154.206604 
L 390.602472 154.602705 
L 391.078923 154.206604 
L 391.555374 155.677833 
L 392.031824 154.206604 
L 392.984726 153.923676 
L 393.461177 155.734419 
L 393.937628 155.847591 
L 394.414078 156.526619 
L 395.36698 155.677833 
L 395.843431 155.508076 
L 396.319881 155.677833 
L 396.796332 153.301233 
L 397.749234 153.244647 
L 398.225684 152.961718 
L 399.178586 152.905133 
L 399.655037 153.527576 
L 400.131487 155.394905 
L 400.607938 155.05539 
L 401.084389 155.168562 
L 402.03729 154.885633 
L 402.513741 155.05539 
L 402.990192 152.791961 
L 403.466643 151.490489 
L 403.943093 152.226104 
L 404.895995 152.848547 
L 405.848896 153.018304 
L 406.325347 155.05539 
L 406.801798 155.677833 
L 407.278249 155.677833 
L 407.754699 155.847591 
L 408.23115 155.677833 
L 408.707601 153.753919 
L 409.184052 153.244647 
L 409.660503 153.131476 
L 410.136953 153.47099 
L 410.613404 152.961718 
L 411.089855 154.942219 
L 411.566306 153.244647 
L 412.042756 155.677833 
L 412.519207 155.791005 
L 412.995658 155.621248 
L 413.869151 155.677833 
L 414.345602 152.961718 
L 414.822052 152.112932 
L 415.219095 152.622204 
L 415.695545 152.791961 
L 416.171996 152.339275 
L 416.569039 152.169518 
L 417.045489 154.772462 
L 417.442532 154.150019 
L 417.918982 154.772462 
L 418.316025 154.715876 
L 418.713067 155.05539 
L 419.110109 153.923676 
L 419.58656 154.376362 
L 419.983602 151.037804 
L 420.777687 151.207561 
L 421.174729 150.868046 
L 421.492363 152.056347 
L 421.889405 150.302189 
L 422.286448 153.414404 
L 422.604081 153.527576 
L 423.001124 152.961718 
L 423.318758 153.301233 
L 424.033434 153.018304 
L 424.351068 152.905133 
L 424.668701 149.22706 
L 424.986335 149.170474 
L 425.303969 148.548031 
L 425.621603 148.43486 
L 425.859828 147.982174 
L 426.177462 150.302189 
L 426.415687 151.207561 
L 426.733321 151.490489 
L 426.971547 150.245603 
L 427.209772 151.150975 
L 427.447997 150.698289 
L 427.686223 146.85046 
L 427.924448 147.24656 
L 428.400899 146.510945 
L 428.639124 146.454359 
L 428.797941 145.831916 
L 429.036167 149.736332 
L 429.194984 149.62316 
L 429.433209 149.62316 
L 429.750843 149.000717 
L 429.90966 149.283646 
L 430.068477 144.98313 
L 430.227294 144.813373 
L 430.38611 144.134345 
L 430.465519 144.813373 
L 430.624336 144.077759 
L 430.862561 147.869003 
L 431.100787 147.925588 
L 431.259604 147.586074 
L 431.41842 143.172387 
L 431.497829 143.511902 
L 431.656646 142.380187 
L 431.736054 146.737288 
L 431.815463 146.793874 
L 431.894871 146.114845 
L 432.053688 141.927501 
L 432.053688 146.001674 
L 432.133097 139.211386 
L 432.133097 144.417273 
" clip-path="url(#p00a2d9c412)" style="fill: none; stroke: #2ca02c; stroke-width: 1.5; stroke-linecap: square"/>
   </g>
   <g id="line2d_22">
    <path d="M 74.795028 106.900934 
L 74.826792 108.881435 
L 74.811291 106.844349 
L 74.90223 106.95752 
L 74.925099 108.202406 
L 74.951066 106.844349 
L 74.980288 107.014106 
L 75.133229 106.618006 
L 75.181509 106.900934 
L 75.234157 106.16532 
L 75.291331 106.391663 
L 75.569737 105.146777 
L 75.65264 105.599463 
L 75.836073 104.807262 
L 76.156883 104.241405 
L 76.403844 104.241405 
L 76.538044 105.146777 
L 76.679391 104.58092 
L 76.982731 104.920434 
L 77.145519 104.920434 
L 77.315453 105.090191 
L 77.675967 106.16532 
L 78.483551 109.786807 
L 78.930621 112.050236 
L 79.405484 115.04928 
L 79.654032 116.973194 
L 79.909727 120.651267 
L 80.171775 120.707852 
L 81.592393 130.836698 
L 83.188503 139.381143 
L 83.879356 143.738244 
L 84.967252 149.340232 
L 85.721632 152.056347 
L 86.499835 153.753919 
L 86.896878 154.206604 
L 87.301861 155.394905 
L 87.714785 155.394905 
L 88.127709 155.677833 
L 88.969438 155.734419 
L 89.398244 156.187105 
L 89.82705 156.300276 
L 90.700543 156.300276 
L 91.589918 156.526619 
L 96.203549 156.526619 
L 96.68 156.413448 
L 97.156451 156.526619 
L 98.101411 156.300276 
L 99.530764 156.243691 
L 100.007214 155.960762 
L 103.34237 155.904176 
L 104.295271 155.791005 
L 104.771722 155.960762 
L 105.248173 155.677833 
L 108.583328 155.677833 
L 109.059779 155.508076 
L 109.536229 155.508076 
L 110.489131 155.338319 
L 110.965582 155.338319 
L 111.442033 155.508076 
L 111.918483 155.111976 
L 112.394934 155.111976 
L 112.871385 156.526619 
L 113.347836 156.526619 
L 113.824286 154.942219 
L 116.20654 154.489533 
L 116.682991 154.65929 
L 117.159442 154.376362 
L 119.541695 153.86709 
L 120.018146 153.86709 
L 120.494597 153.697333 
L 120.971048 153.697333 
L 121.447498 153.47099 
L 121.923949 153.47099 
L 122.4004 153.244647 
L 122.876851 153.244647 
L 123.353301 152.961718 
L 124.306203 152.961718 
L 126.212006 152.339275 
L 126.688457 152.28269 
L 127.641358 151.943175 
L 128.117809 151.886589 
L 128.59426 151.547075 
L 129.070711 151.433904 
L 130.023612 150.811461 
L 130.500063 150.811461 
L 130.976514 150.302189 
L 131.929415 150.245603 
L 132.405866 150.075846 
L 132.882317 149.679746 
L 134.311669 149.057303 
L 135.741021 148.491446 
L 137.170373 148.03876 
L 138.123275 147.359731 
L 140.981979 145.888502 
L 141.45843 145.548988 
L 141.934881 145.548988 
L 142.411332 144.869959 
L 142.887783 144.869959 
L 143.364233 144.417273 
L 143.840684 144.417273 
L 144.317135 143.681659 
L 144.793586 143.681659 
L 145.270036 143.00263 
L 145.746487 143.00263 
L 146.222938 142.832873 
L 146.699389 142.267015 
L 147.175839 142.040673 
L 148.128741 141.191887 
L 149.081642 140.456272 
L 149.558093 139.720658 
L 150.034544 139.720658 
L 150.510995 139.381143 
L 150.987445 138.475772 
L 151.463896 138.475772 
L 151.940347 137.5704 
L 152.416798 137.5704 
L 153.84615 136.268928 
L 155.315206 134.854285 
L 156.268108 133.32647 
L 156.744559 133.32647 
L 158.650362 130.94987 
L 159.126812 129.874741 
L 159.603263 129.874741 
L 160.079714 128.516683 
L 160.556165 128.516683 
L 161.032616 126.875697 
L 161.509066 126.875697 
L 161.985517 127.89424 
L 162.461968 125.291297 
L 162.938419 124.838611 
L 164.844222 121.330295 
L 165.320672 120.594681 
L 166.750025 117.765395 
L 167.226475 117.02978 
L 167.702926 115.954651 
L 168.179377 115.275622 
L 169.608729 112.219993 
L 170.08518 111.258036 
L 170.561631 109.390707 
L 171.038081 109.390707 
L 171.990983 107.183863 
L 172.467434 106.448249 
L 172.943884 105.316534 
L 173.420335 104.58092 
L 175.326138 100.506747 
L 175.802589 99.54479 
L 177.708392 94.452074 
L 178.661294 91.339859 
L 179.137744 89.642287 
L 179.614195 86.699829 
L 180.090646 86.699829 
L 180.567097 84.549571 
L 181.043547 81.267599 
L 181.44059 81.267599 
L 181.91704 78.60807 
L 182.393491 78.60807 
L 182.869942 77.306598 
L 183.346393 76.910498 
L 183.822843 76.910498 
L 184.299294 78.494898 
L 184.775745 78.494898 
L 185.252196 83.417857 
L 185.728646 83.417857 
L 186.205097 91.735959 
L 186.681548 91.735959 
L 187.157999 102.600419 
L 187.634449 102.600419 
L 189.063802 119.745895 
L 189.540253 131.459141 
L 190.016703 131.459141 
L 190.493154 140.512858 
L 190.969605 140.512858 
L 191.922506 147.020217 
L 192.398957 149.396817 
L 193.351859 152.339275 
L 193.828309 153.301233 
L 194.30476 154.602705 
L 194.781211 154.602705 
L 195.257662 155.111976 
L 195.734112 155.111976 
L 196.210563 155.677833 
L 198.116366 155.677833 
L 198.592817 155.791005 
L 199.069268 155.677833 
L 199.545718 155.734419 
L 200.975071 155.621248 
L 201.451521 155.621248 
L 201.927972 155.508076 
L 202.880874 155.621248 
L 203.357324 155.45149 
L 203.833775 155.45149 
L 204.310226 155.168562 
L 204.786677 155.168562 
L 205.263128 155.338319 
L 205.739578 154.998805 
L 206.216029 154.998805 
L 206.69248 155.281733 
L 207.168931 154.885633 
L 207.645381 154.942219 
L 208.121832 154.885633 
L 208.598283 154.602705 
L 209.551184 154.602705 
L 210.980537 154.150019 
L 211.456987 154.150019 
L 211.933438 153.923676 
L 212.409889 154.036847 
L 212.88634 153.86709 
L 213.36279 153.86709 
L 213.839241 153.584161 
L 214.315692 153.584161 
L 215.268593 153.697333 
L 215.745044 153.527576 
L 216.221495 153.527576 
L 217.174396 152.961718 
L 218.127298 153.018304 
L 220.509552 152.452447 
L 220.986003 152.509033 
L 221.462453 152.056347 
L 221.938904 152.056347 
L 223.368256 151.773418 
L 223.844707 151.773418 
L 224.321158 151.320732 
L 224.797609 151.320732 
L 226.703412 150.754875 
L 227.179862 150.358775 
L 227.656313 150.358775 
L 229.085665 149.906089 
L 229.562116 149.566575 
L 230.038567 149.509989 
L 232.420821 148.43486 
L 233.850173 148.03876 
L 234.326624 147.586074 
L 234.803074 147.586074 
L 235.279525 146.963631 
L 235.755976 146.963631 
L 236.232427 146.680702 
L 236.708878 146.680702 
L 239.567582 145.209473 
L 240.044033 144.756788 
L 240.520484 144.756788 
L 240.996934 145.322645 
L 241.473385 143.964587 
L 241.949836 143.964587 
L 242.426287 143.39873 
L 242.902737 143.059216 
L 243.379188 143.00263 
L 243.855639 142.493358 
L 244.33209 142.153844 
L 244.80854 141.474815 
L 245.284991 141.474815 
L 246.237893 140.795786 
L 246.714343 140.456272 
L 247.667245 139.437729 
L 248.620146 138.702114 
L 249.573048 137.626986 
L 250.049499 137.400643 
L 250.525949 136.551857 
L 251.0024 136.551857 
L 251.478851 137.626986 
L 251.955302 135.589899 
L 253.861105 133.835742 
L 254.337556 133.100127 
L 254.814006 132.647441 
L 255.290457 131.572313 
L 255.766908 131.572313 
L 256.243359 130.384012 
L 256.719809 130.384012 
L 257.19626 129.931326 
L 258.149162 128.460097 
L 258.625612 127.837654 
L 259.102063 126.196668 
L 259.578514 126.196668 
L 260.054965 125.630811 
L 260.531415 124.725439 
L 261.960768 122.688353 
L 263.866571 119.462966 
L 264.819472 117.878566 
L 265.295923 116.916609 
L 266.248824 115.44538 
L 267.678177 112.276579 
L 268.154628 111.710721 
L 269.107529 109.503878 
L 269.58398 108.541921 
L 270.060431 107.297035 
L 270.536881 104.97702 
L 271.013332 104.97702 
L 271.489783 102.600419 
L 271.966234 102.600419 
L 272.442684 100.110647 
L 272.919135 100.110647 
L 273.395586 97.564289 
L 273.872037 97.564289 
L 274.824938 94.848174 
L 275.301389 92.584745 
L 275.77784 92.584745 
L 276.730741 89.981801 
L 277.207192 88.906672 
L 277.683643 86.756415 
L 278.160093 86.756415 
L 278.636544 83.870542 
L 279.112995 82.286142 
L 279.589446 81.154427 
L 280.065896 81.154427 
L 280.542347 77.815869 
L 281.018798 77.815869 
L 281.495249 74.477311 
L 281.971699 74.477311 
L 283.401052 68.762153 
L 284.353953 66.838238 
L 284.830404 66.838238 
L 285.306855 64.235294 
L 285.783306 64.235294 
L 286.736207 62.481137 
L 287.689109 62.481137 
L 288.165559 66.611895 
L 288.64201 66.611895 
L 289.118461 71.082168 
L 289.594912 85.341771 
L 290.071362 85.341771 
L 290.547813 102.430662 
L 291.024264 102.430662 
L 291.500715 117.652223 
L 291.977165 117.652223 
L 292.930067 131.232798 
L 293.882968 140.343101 
L 294.83587 146.624117 
L 295.312321 148.491446 
L 296.265222 151.037804 
L 296.741673 152.056347 
L 297.694574 153.244647 
L 298.647476 153.980261 
L 299.123927 153.980261 
L 299.600378 154.376362 
L 300.076828 154.602705 
L 300.553279 154.602705 
L 301.02973 154.772462 
L 301.982631 154.772462 
L 302.459082 154.942219 
L 302.935533 154.942219 
L 303.411984 155.05539 
L 303.888434 154.772462 
L 304.364885 154.772462 
L 304.841336 154.65929 
L 305.317787 154.715876 
L 306.747139 154.432947 
L 308.176491 154.376362 
L 308.652942 153.980261 
L 310.082294 153.923676 
L 311.035196 153.86709 
L 311.511646 153.86709 
L 314.370351 153.301233 
L 314.846802 153.301233 
L 315.323253 152.961718 
L 315.799703 153.07489 
L 316.276154 152.961718 
L 316.752605 155.225148 
L 317.229056 152.848547 
L 317.705506 152.848547 
L 318.181957 152.67879 
L 318.658408 154.829047 
L 319.134859 152.226104 
L 320.08776 152.28269 
L 320.564211 152.112932 
L 321.040662 152.112932 
L 322.946465 151.660247 
L 323.422915 151.377318 
L 323.899366 151.377318 
L 324.375817 151.150975 
L 324.852268 151.094389 
L 326.758071 150.528532 
L 327.234521 150.471946 
L 328.663874 150.075846 
L 329.140324 150.075846 
L 329.616775 149.736332 
L 330.093226 149.736332 
L 330.569677 149.396817 
L 331.999029 148.944132 
L 332.951931 148.491446 
L 333.428381 148.43486 
L 333.904832 148.151931 
L 334.381283 148.151931 
L 334.857734 147.699245 
L 335.334184 147.699245 
L 336.287086 147.24656 
L 337.239987 146.624117 
L 337.716438 146.624117 
L 338.66934 146.058259 
L 341.051593 144.417273 
L 341.528044 144.417273 
L 342.004495 143.738244 
L 342.480946 143.738244 
L 342.957396 143.172387 
L 343.433847 143.172387 
L 344.386749 142.832873 
L 345.33965 141.81433 
L 345.816101 141.81433 
L 346.292552 141.135301 
L 346.769003 141.135301 
L 347.721904 139.890415 
L 348.198355 139.890415 
L 348.674806 139.494315 
L 349.151256 138.815286 
L 349.627707 138.815286 
L 350.104158 138.079671 
L 350.580609 138.079671 
L 351.057059 139.720658 
L 351.53351 136.665028 
L 352.009961 136.665028 
L 352.486412 136.042585 
L 352.962862 135.759657 
L 353.439313 135.306971 
L 354.392215 134.062085 
L 354.868665 133.779156 
L 355.821567 132.421099 
L 356.298018 131.515727 
L 356.774468 131.515727 
L 357.250919 130.384012 
L 357.72737 130.384012 
L 358.203821 131.119627 
L 358.680271 128.68644 
L 359.156722 128.68644 
L 359.633173 127.724483 
L 360.109624 127.724483 
L 361.062525 125.743982 
L 361.538976 125.743982 
L 362.491878 124.272753 
L 362.968328 123.989825 
L 363.444779 122.971282 
L 363.92123 122.575182 
L 364.397681 121.443467 
L 364.874131 119.689309 
L 365.350582 119.689309 
L 365.827033 117.935152 
L 366.303484 117.935152 
L 366.779934 117.142952 
L 367.256385 116.011237 
L 367.732836 115.898065 
L 368.685737 113.238536 
L 369.162188 113.012193 
L 369.638639 111.144864 
L 370.11509 108.768264 
L 370.59154 108.768264 
L 371.067991 108.315578 
L 371.544442 104.97702 
L 372.020893 104.97702 
L 372.497343 103.675548 
L 372.973794 101.016019 
L 373.450245 101.016019 
L 374.879597 96.09306 
L 375.356048 96.09306 
L 376.308949 90.887173 
L 376.7854 90.887173 
L 377.261851 88.340815 
L 377.738302 88.340815 
L 378.691203 85.568114 
L 379.167654 84.492986 
L 379.644105 82.003213 
L 380.120556 82.003213 
L 380.597006 81.267599 
L 381.549908 78.042212 
L 382.026359 75.495855 
L 382.502809 75.495855 
L 383.932162 70.572896 
L 384.408612 70.403139 
L 384.885063 67.347509 
L 385.361514 65.87628 
L 386.314415 62.141622 
L 388.696669 54.559135 
L 389.17312 53.484006 
L 390.126021 53.936692 
L 390.602472 54.559135 
L 391.555374 58.520136 
L 392.031824 62.990408 
L 392.508275 75.15634 
L 392.984726 75.15634 
L 393.461177 91.000344 
L 393.937628 91.000344 
L 395.36698 116.916609 
L 396.319881 131.402555 
L 396.796332 137.400643 
L 397.272783 146.793874 
L 397.749234 146.793874 
L 398.225684 149.736332 
L 398.702135 151.660247 
L 399.178586 152.961718 
L 400.131487 154.489533 
L 400.607938 154.772462 
L 401.084389 154.715876 
L 401.56084 155.281733 
L 402.03729 155.281733 
L 402.513741 155.45149 
L 402.990192 155.05539 
L 403.466643 155.05539 
L 405.372446 154.26319 
L 406.801798 154.432947 
L 408.23115 154.093433 
L 408.707601 153.753919 
L 409.184052 153.86709 
L 409.660503 153.357818 
L 411.089855 153.357818 
L 411.566306 155.05539 
L 412.042756 153.357818 
L 412.519207 153.357818 
L 412.995658 152.961718 
L 413.472109 152.961718 
L 413.869151 152.565618 
L 414.345602 152.565618 
L 414.822052 152.056347 
L 415.219095 151.886589 
L 415.695545 151.886589 
L 416.171996 151.433904 
L 416.569039 150.811461 
L 417.045489 150.811461 
L 417.442532 151.377318 
L 417.918982 151.264146 
L 418.713067 149.906089 
L 419.58656 150.245603 
L 419.983602 149.22706 
L 420.380645 149.396817 
L 420.777687 149.340232 
L 421.174729 149.113889 
L 421.492363 148.717789 
L 421.889405 147.64266 
L 422.286448 148.548031 
L 423.001124 148.944132 
L 423.318758 148.378274 
L 423.7158 148.378274 
L 424.033434 147.812417 
L 424.351068 148.03876 
L 424.668701 147.359731 
L 424.986335 147.359731 
L 425.303969 147.699245 
L 425.621603 149.396817 
L 425.859828 147.472903 
L 426.177462 147.133388 
L 426.415687 147.472903 
L 426.733321 147.189974 
L 426.971547 147.472903 
L 427.447997 146.680702 
L 427.686223 146.397774 
L 427.924448 145.775331 
L 428.162674 146.510945 
L 428.400899 146.284602 
L 428.797941 145.718745 
L 429.036167 146.228017 
L 429.592026 145.718745 
L 429.750843 145.718745 
L 429.90966 145.605574 
L 430.068477 144.813373 
L 430.38611 144.643616 
L 430.465519 144.813373 
L 430.624336 144.813373 
L 430.783153 144.473859 
L 430.862561 144.813373 
L 430.94197 144.417273 
L 431.259604 144.19093 
L 431.497829 143.00263 
L 431.577237 142.832873 
L 431.656646 141.927501 
L 431.736054 142.380187 
L 431.97428 140.795786 
L 432.053688 139.890415 
L 432.053688 140.795786 
L 432.133097 140.173343 
L 432.133097 140.173343 
L 432.133097 137.9665 
L 432.133097 140.795786 
L 432.133097 138.7587 
" clip-path="url(#p00a2d9c412)" style="fill: none; stroke: #d62728; stroke-width: 1.5; stroke-linecap: square"/>
   </g>
   <g id="patch_3">
    <path d="M 56.928125 161.67875 
L 56.928125 48.331875 
" style="fill: none; stroke: #000000; stroke-width: 0.8; stroke-linejoin: miter; stroke-linecap: square"/>
   </g>
   <g id="patch_4">
    <path d="M 450 161.67875 
L 450 48.331875 
" style="fill: none; stroke: #000000; stroke-width: 0.8; stroke-linejoin: miter; stroke-linecap: square"/>
   </g>
   <g id="patch_5">
    <path d="M 56.928125 161.67875 
L 450 161.67875 
" style="fill: none; stroke: #000000; stroke-width: 0.8; stroke-linejoin: miter; stroke-linecap: square"/>
   </g>
   <g id="patch_6">
    <path d="M 56.928125 48.331875 
L 450 48.331875 
" style="fill: none; stroke: #000000; stroke-width: 0.8; stroke-linejoin: miter; stroke-linecap: square"/>
   </g>
   <g id="text_6">
    <!-- Reflector Raw Value -->
    <g transform="translate(193.704062 42.331875)scale(0.12 -0.12)">
     <defs>
      <path id="DejaVuSans-52" d="M 2841 2188 
Q 3044 2119 3236 1894 
Q 3428 1669 3622 1275 
L 4263 0 
L 3584 0 
L 2988 1197 
Q 2756 1666 2539 1819 
Q 2322 1972 1947 1972 
L 1259 1972 
L 1259 0 
L 628 0 
L 628 4666 
L 2053 4666 
Q 2853 4666 3247 4331 
Q 3641 3997 3641 3322 
Q 3641 2881 3436 2590 
Q 3231 2300 2841 2188 
z
M 1259 4147 
L 1259 2491 
L 2053 2491 
Q 2509 2491 2742 2702 
Q 2975 2913 2975 3322 
Q 2975 3731 2742 3939 
Q 2509 4147 2053 4147 
L 1259 4147 
z
" transform="scale(0.015625)"/>
      <path id="DejaVuSans-77" d="M 269 3500 
L 844 3500 
L 1563 769 
L 2278 3500 
L 2956 3500 
L 3675 769 
L 4391 3500 
L 4966 3500 
L 4050 0 
L 3372 0 
L 2619 2869 
L 1863 0 
L 1184 0 
L 269 3500 
z
" transform="scale(0.015625)"/>
      <path id="DejaVuSans-56" d="M 1831 0 
L 50 4666 
L 709 4666 
L 2188 738 
L 3669 4666 
L 4325 4666 
L 2547 0 
L 1831 0 
z
" transform="scale(0.015625)"/>
     </defs>
     <use xlink:href="#DejaVuSans-52"/>
     <use xlink:href="#DejaVuSans-65" x="64.982422"/>
     <use xlink:href="#DejaVuSans-66" x="126.505859"/>
     <use xlink:href="#DejaVuSans-6c" x="161.710938"/>
     <use xlink:href="#DejaVuSans-65" x="189.494141"/>
     <use xlink:href="#DejaVuSans-63" x="251.017578"/>
     <use xlink:href="#DejaVuSans-74" x="305.998047"/>
     <use xlink:href="#DejaVuSans-6f" x="345.207031"/>
     <use xlink:href="#DejaVuSans-72" x="406.388672"/>
     <use xlink:href="#DejaVuSans-20" x="447.501953"/>
     <use xlink:href="#DejaVuSans-52" x="479.289062"/>
     <use xlink:href="#DejaVuSans-61" x="546.521484"/>
     <use xlink:href="#DejaVuSans-77" x="607.800781"/>
     <use xlink:href="#DejaVuSans-20" x="689.587891"/>
     <use xlink:href="#DejaVuSans-56" x="721.375"/>
     <use xlink:href="#DejaVuSans-61" x="782.033203"/>
     <use xlink:href="#DejaVuSans-6c" x="843.3125"/>
     <use xlink:href="#DejaVuSans-75" x="871.095703"/>
     <use xlink:href="#DejaVuSans-65" x="934.474609"/>
    </g>
   </g>
   <g id="legend_1">
    <g id="patch_7">
     <path d="M 219.75625 115.044375 
L 287.171875 115.044375 
Q 289.171875 115.044375 289.171875 113.044375 
L 289.171875 55.331875 
Q 289.171875 53.331875 287.171875 53.331875 
L 219.75625 53.331875 
Q 217.75625 53.331875 217.75625 55.331875 
L 217.75625 113.044375 
Q 217.75625 115.044375 219.75625 115.044375 
z
" style="fill: #ffffff; opacity: 0.8; stroke: #cccccc; stroke-linejoin: miter"/>
    </g>
    <g id="line2d_23">
     <path d="M 221.75625 61.430313 
L 231.75625 61.430313 
L 241.75625 61.430313 
" style="fill: none; stroke: #1f77b4; stroke-width: 1.5; stroke-linecap: square"/>
    </g>
    <g id="text_7">
     <!-- L Side -->
     <g transform="translate(249.75625 64.930313)scale(0.1 -0.1)">
      <defs>
       <path id="DejaVuSans-4c" d="M 628 4666 
L 1259 4666 
L 1259 531 
L 3531 531 
L 3531 0 
L 628 0 
L 628 4666 
z
" transform="scale(0.015625)"/>
       <path id="DejaVuSans-53" d="M 3425 4513 
L 3425 3897 
Q 3066 4069 2747 4153 
Q 2428 4238 2131 4238 
Q 1616 4238 1336 4038 
Q 1056 3838 1056 3469 
Q 1056 3159 1242 3001 
Q 1428 2844 1947 2747 
L 2328 2669 
Q 3034 2534 3370 2195 
Q 3706 1856 3706 1288 
Q 3706 609 3251 259 
Q 2797 -91 1919 -91 
Q 1588 -91 1214 -16 
Q 841 59 441 206 
L 441 856 
Q 825 641 1194 531 
Q 1563 422 1919 422 
Q 2459 422 2753 634 
Q 3047 847 3047 1241 
Q 3047 1584 2836 1778 
Q 2625 1972 2144 2069 
L 1759 2144 
Q 1053 2284 737 2584 
Q 422 2884 422 3419 
Q 422 4038 858 4394 
Q 1294 4750 2059 4750 
Q 2388 4750 2728 4690 
Q 3069 4631 3425 4513 
z
" transform="scale(0.015625)"/>
       <path id="DejaVuSans-69" d="M 603 3500 
L 1178 3500 
L 1178 0 
L 603 0 
L 603 3500 
z
M 603 4863 
L 1178 4863 
L 1178 4134 
L 603 4134 
L 603 4863 
z
" transform="scale(0.015625)"/>
       <path id="DejaVuSans-64" d="M 2906 2969 
L 2906 4863 
L 3481 4863 
L 3481 0 
L 2906 0 
L 2906 525 
Q 2725 213 2448 61 
Q 2172 -91 1784 -91 
Q 1150 -91 751 415 
Q 353 922 353 1747 
Q 353 2572 751 3078 
Q 1150 3584 1784 3584 
Q 2172 3584 2448 3432 
Q 2725 3281 2906 2969 
z
M 947 1747 
Q 947 1113 1208 752 
Q 1469 391 1925 391 
Q 2381 391 2643 752 
Q 2906 1113 2906 1747 
Q 2906 2381 2643 2742 
Q 2381 3103 1925 3103 
Q 1469 3103 1208 2742 
Q 947 2381 947 1747 
z
" transform="scale(0.015625)"/>
      </defs>
      <use xlink:href="#DejaVuSans-4c"/>
      <use xlink:href="#DejaVuSans-20" x="55.712891"/>
      <use xlink:href="#DejaVuSans-53" x="87.5"/>
      <use xlink:href="#DejaVuSans-69" x="150.976562"/>
      <use xlink:href="#DejaVuSans-64" x="178.759766"/>
      <use xlink:href="#DejaVuSans-65" x="242.236328"/>
     </g>
    </g>
    <g id="line2d_24">
     <path d="M 221.75625 76.108438 
L 231.75625 76.108438 
L 241.75625 76.108438 
" style="fill: none; stroke: #ff7f0e; stroke-width: 1.5; stroke-linecap: square"/>
    </g>
    <g id="text_8">
     <!-- L Front -->
     <g transform="translate(249.75625 79.608438)scale(0.1 -0.1)">
      <defs>
       <path id="DejaVuSans-46" d="M 628 4666 
L 3309 4666 
L 3309 4134 
L 1259 4134 
L 1259 2759 
L 3109 2759 
L 3109 2228 
L 1259 2228 
L 1259 0 
L 628 0 
L 628 4666 
z
" transform="scale(0.015625)"/>
       <path id="DejaVuSans-6e" d="M 3513 2113 
L 3513 0 
L 2938 0 
L 2938 2094 
Q 2938 2591 2744 2837 
Q 2550 3084 2163 3084 
Q 1697 3084 1428 2787 
Q 1159 2491 1159 1978 
L 1159 0 
L 581 0 
L 581 3500 
L 1159 3500 
L 1159 2956 
Q 1366 3272 1645 3428 
Q 1925 3584 2291 3584 
Q 2894 3584 3203 3211 
Q 3513 2838 3513 2113 
z
" transform="scale(0.015625)"/>
      </defs>
      <use xlink:href="#DejaVuSans-4c"/>
      <use xlink:href="#DejaVuSans-20" x="55.712891"/>
      <use xlink:href="#DejaVuSans-46" x="87.5"/>
      <use xlink:href="#DejaVuSans-72" x="137.769531"/>
      <use xlink:href="#DejaVuSans-6f" x="176.632812"/>
      <use xlink:href="#DejaVuSans-6e" x="237.814453"/>
      <use xlink:href="#DejaVuSans-74" x="301.193359"/>
     </g>
    </g>
    <g id="line2d_25">
     <path d="M 221.75625 90.786563 
L 231.75625 90.786563 
L 241.75625 90.786563 
" style="fill: none; stroke: #2ca02c; stroke-width: 1.5; stroke-linecap: square"/>
    </g>
    <g id="text_9">
     <!-- R Front -->
     <g transform="translate(249.75625 94.286563)scale(0.1 -0.1)">
      <use xlink:href="#DejaVuSans-52"/>
      <use xlink:href="#DejaVuSans-20" x="69.482422"/>
      <use xlink:href="#DejaVuSans-46" x="101.269531"/>
      <use xlink:href="#DejaVuSans-72" x="151.539062"/>
      <use xlink:href="#DejaVuSans-6f" x="190.402344"/>
      <use xlink:href="#DejaVuSans-6e" x="251.583984"/>
      <use xlink:href="#DejaVuSans-74" x="314.962891"/>
     </g>
    </g>
    <g id="line2d_26">
     <path d="M 221.75625 105.464688 
L 231.75625 105.464688 
L 241.75625 105.464688 
" style="fill: none; stroke: #d62728; stroke-width: 1.5; stroke-linecap: square"/>
    </g>
    <g id="text_10">
     <!-- R Side -->
     <g transform="translate(249.75625 108.964688)scale(0.1 -0.1)">
      <use xlink:href="#DejaVuSans-52"/>
      <use xlink:href="#DejaVuSans-20" x="69.482422"/>
      <use xlink:href="#DejaVuSans-53" x="101.269531"/>
      <use xlink:href="#DejaVuSans-69" x="164.746094"/>
      <use xlink:href="#DejaVuSans-64" x="192.529297"/>
      <use xlink:href="#DejaVuSans-65" x="256.005859"/>
     </g>
    </g>
   </g>
  </g>
  <g id="axes_2">
   <g id="patch_8">
    <path d="M 56.928125 304.44375 
L 450 304.44375 
L 450 191.096875 
L 56.928125 191.096875 
z
" style="fill: #ffffff"/>
   </g>
   <g id="matplotlib.axis_3">
    <g id="xtick_6">
     <g id="line2d_27">
      <path d="M 74.795028 304.44375 
L 74.795028 191.096875 
" clip-path="url(#p95a4bba8df)" style="fill: none; stroke: #b0b0b0; stroke-width: 0.8; stroke-linecap: square"/>
     </g>
     <g id="line2d_28">
      <g>
       <use xlink:href="#md4544bc6be" x="74.795028" y="304.44375" style="stroke: #000000; stroke-width: 0.8"/>
      </g>
     </g>
     <g id="text_11">
      <!-- 0 -->
      <g transform="translate(71.613778 319.042187)scale(0.1 -0.1)">
       <use xlink:href="#DejaVuSans-30"/>
      </g>
     </g>
    </g>
    <g id="xtick_7">
     <g id="line2d_29">
      <path d="M 154.203488 304.44375 
L 154.203488 191.096875 
" clip-path="url(#p95a4bba8df)" style="fill: none; stroke: #b0b0b0; stroke-width: 0.8; stroke-linecap: square"/>
     </g>
     <g id="line2d_30">
      <g>
       <use xlink:href="#md4544bc6be" x="154.203488" y="304.44375" style="stroke: #000000; stroke-width: 0.8"/>
      </g>
     </g>
     <g id="text_12">
      <!-- 100 -->
      <g transform="translate(144.659738 319.042187)scale(0.1 -0.1)">
       <use xlink:href="#DejaVuSans-31"/>
       <use xlink:href="#DejaVuSans-30" x="63.623047"/>
       <use xlink:href="#DejaVuSans-30" x="127.246094"/>
      </g>
     </g>
    </g>
    <g id="xtick_8">
     <g id="line2d_31">
      <path d="M 233.611948 304.44375 
L 233.611948 191.096875 
" clip-path="url(#p95a4bba8df)" style="fill: none; stroke: #b0b0b0; stroke-width: 0.8; stroke-linecap: square"/>
     </g>
     <g id="line2d_32">
      <g>
       <use xlink:href="#md4544bc6be" x="233.611948" y="304.44375" style="stroke: #000000; stroke-width: 0.8"/>
      </g>
     </g>
     <g id="text_13">
      <!-- 200 -->
      <g transform="translate(224.068198 319.042187)scale(0.1 -0.1)">
       <defs>
        <path id="DejaVuSans-32" d="M 1228 531 
L 3431 531 
L 3431 0 
L 469 0 
L 469 531 
Q 828 903 1448 1529 
Q 2069 2156 2228 2338 
Q 2531 2678 2651 2914 
Q 2772 3150 2772 3378 
Q 2772 3750 2511 3984 
Q 2250 4219 1831 4219 
Q 1534 4219 1204 4116 
Q 875 4013 500 3803 
L 500 4441 
Q 881 4594 1212 4672 
Q 1544 4750 1819 4750 
Q 2544 4750 2975 4387 
Q 3406 4025 3406 3419 
Q 3406 3131 3298 2873 
Q 3191 2616 2906 2266 
Q 2828 2175 2409 1742 
Q 1991 1309 1228 531 
z
" transform="scale(0.015625)"/>
       </defs>
       <use xlink:href="#DejaVuSans-32"/>
       <use xlink:href="#DejaVuSans-30" x="63.623047"/>
       <use xlink:href="#DejaVuSans-30" x="127.246094"/>
      </g>
     </g>
    </g>
    <g id="xtick_9">
     <g id="line2d_33">
      <path d="M 313.020407 304.44375 
L 313.020407 191.096875 
" clip-path="url(#p95a4bba8df)" style="fill: none; stroke: #b0b0b0; stroke-width: 0.8; stroke-linecap: square"/>
     </g>
     <g id="line2d_34">
      <g>
       <use xlink:href="#md4544bc6be" x="313.020407" y="304.44375" style="stroke: #000000; stroke-width: 0.8"/>
      </g>
     </g>
     <g id="text_14">
      <!-- 300 -->
      <g transform="translate(303.476657 319.042187)scale(0.1 -0.1)">
       <defs>
        <path id="DejaVuSans-33" d="M 2597 2516 
Q 3050 2419 3304 2112 
Q 3559 1806 3559 1356 
Q 3559 666 3084 287 
Q 2609 -91 1734 -91 
Q 1441 -91 1130 -33 
Q 819 25 488 141 
L 488 750 
Q 750 597 1062 519 
Q 1375 441 1716 441 
Q 2309 441 2620 675 
Q 2931 909 2931 1356 
Q 2931 1769 2642 2001 
Q 2353 2234 1838 2234 
L 1294 2234 
L 1294 2753 
L 1863 2753 
Q 2328 2753 2575 2939 
Q 2822 3125 2822 3475 
Q 2822 3834 2567 4026 
Q 2313 4219 1838 4219 
Q 1578 4219 1281 4162 
Q 984 4106 628 3988 
L 628 4550 
Q 988 4650 1302 4700 
Q 1616 4750 1894 4750 
Q 2613 4750 3031 4423 
Q 3450 4097 3450 3541 
Q 3450 3153 3228 2886 
Q 3006 2619 2597 2516 
z
" transform="scale(0.015625)"/>
       </defs>
       <use xlink:href="#DejaVuSans-33"/>
       <use xlink:href="#DejaVuSans-30" x="63.623047"/>
       <use xlink:href="#DejaVuSans-30" x="127.246094"/>
      </g>
     </g>
    </g>
    <g id="xtick_10">
     <g id="line2d_35">
      <path d="M 392.428867 304.44375 
L 392.428867 191.096875 
" clip-path="url(#p95a4bba8df)" style="fill: none; stroke: #b0b0b0; stroke-width: 0.8; stroke-linecap: square"/>
     </g>
     <g id="line2d_36">
      <g>
       <use xlink:href="#md4544bc6be" x="392.428867" y="304.44375" style="stroke: #000000; stroke-width: 0.8"/>
      </g>
     </g>
     <g id="text_15">
      <!-- 400 -->
      <g transform="translate(382.885117 319.042187)scale(0.1 -0.1)">
       <defs>
        <path id="DejaVuSans-34" d="M 2419 4116 
L 825 1625 
L 2419 1625 
L 2419 4116 
z
M 2253 4666 
L 3047 4666 
L 3047 1625 
L 3713 1625 
L 3713 1100 
L 3047 1100 
L 3047 0 
L 2419 0 
L 2419 1100 
L 313 1100 
L 313 1709 
L 2253 4666 
z
" transform="scale(0.015625)"/>
       </defs>
       <use xlink:href="#DejaVuSans-34"/>
       <use xlink:href="#DejaVuSans-30" x="63.623047"/>
       <use xlink:href="#DejaVuSans-30" x="127.246094"/>
      </g>
     </g>
    </g>
    <g id="text_16">
     <!-- Translational Position [mm] -->
     <g transform="translate(185.486719 332.720312)scale(0.1 -0.1)">
      <defs>
       <path id="DejaVuSans-54" d="M -19 4666 
L 3928 4666 
L 3928 4134 
L 2272 4134 
L 2272 0 
L 1638 0 
L 1638 4134 
L -19 4134 
L -19 4666 
z
" transform="scale(0.015625)"/>
       <path id="DejaVuSans-73" d="M 2834 3397 
L 2834 2853 
Q 2591 2978 2328 3040 
Q 2066 3103 1784 3103 
Q 1356 3103 1142 2972 
Q 928 2841 928 2578 
Q 928 2378 1081 2264 
Q 1234 2150 1697 2047 
L 1894 2003 
Q 2506 1872 2764 1633 
Q 3022 1394 3022 966 
Q 3022 478 2636 193 
Q 2250 -91 1575 -91 
Q 1294 -91 989 -36 
Q 684 19 347 128 
L 347 722 
Q 666 556 975 473 
Q 1284 391 1588 391 
Q 1994 391 2212 530 
Q 2431 669 2431 922 
Q 2431 1156 2273 1281 
Q 2116 1406 1581 1522 
L 1381 1569 
Q 847 1681 609 1914 
Q 372 2147 372 2553 
Q 372 3047 722 3315 
Q 1072 3584 1716 3584 
Q 2034 3584 2315 3537 
Q 2597 3491 2834 3397 
z
" transform="scale(0.015625)"/>
       <path id="DejaVuSans-50" d="M 1259 4147 
L 1259 2394 
L 2053 2394 
Q 2494 2394 2734 2622 
Q 2975 2850 2975 3272 
Q 2975 3691 2734 3919 
Q 2494 4147 2053 4147 
L 1259 4147 
z
M 628 4666 
L 2053 4666 
Q 2838 4666 3239 4311 
Q 3641 3956 3641 3272 
Q 3641 2581 3239 2228 
Q 2838 1875 2053 1875 
L 1259 1875 
L 1259 0 
L 628 0 
L 628 4666 
z
" transform="scale(0.015625)"/>
       <path id="DejaVuSans-5b" d="M 550 4863 
L 1875 4863 
L 1875 4416 
L 1125 4416 
L 1125 -397 
L 1875 -397 
L 1875 -844 
L 550 -844 
L 550 4863 
z
" transform="scale(0.015625)"/>
       <path id="DejaVuSans-6d" d="M 3328 2828 
Q 3544 3216 3844 3400 
Q 4144 3584 4550 3584 
Q 5097 3584 5394 3201 
Q 5691 2819 5691 2113 
L 5691 0 
L 5113 0 
L 5113 2094 
Q 5113 2597 4934 2840 
Q 4756 3084 4391 3084 
Q 3944 3084 3684 2787 
Q 3425 2491 3425 1978 
L 3425 0 
L 2847 0 
L 2847 2094 
Q 2847 2600 2669 2842 
Q 2491 3084 2119 3084 
Q 1678 3084 1418 2786 
Q 1159 2488 1159 1978 
L 1159 0 
L 581 0 
L 581 3500 
L 1159 3500 
L 1159 2956 
Q 1356 3278 1631 3431 
Q 1906 3584 2284 3584 
Q 2666 3584 2933 3390 
Q 3200 3197 3328 2828 
z
" transform="scale(0.015625)"/>
       <path id="DejaVuSans-5d" d="M 1947 4863 
L 1947 -844 
L 622 -844 
L 622 -397 
L 1369 -397 
L 1369 4416 
L 622 4416 
L 622 4863 
L 1947 4863 
z
" transform="scale(0.015625)"/>
      </defs>
      <use xlink:href="#DejaVuSans-54"/>
      <use xlink:href="#DejaVuSans-72" x="46.333984"/>
      <use xlink:href="#DejaVuSans-61" x="87.447266"/>
      <use xlink:href="#DejaVuSans-6e" x="148.726562"/>
      <use xlink:href="#DejaVuSans-73" x="212.105469"/>
      <use xlink:href="#DejaVuSans-6c" x="264.205078"/>
      <use xlink:href="#DejaVuSans-61" x="291.988281"/>
      <use xlink:href="#DejaVuSans-74" x="353.267578"/>
      <use xlink:href="#DejaVuSans-69" x="392.476562"/>
      <use xlink:href="#DejaVuSans-6f" x="420.259766"/>
      <use xlink:href="#DejaVuSans-6e" x="481.441406"/>
      <use xlink:href="#DejaVuSans-61" x="544.820312"/>
      <use xlink:href="#DejaVuSans-6c" x="606.099609"/>
      <use xlink:href="#DejaVuSans-20" x="633.882812"/>
      <use xlink:href="#DejaVuSans-50" x="665.669922"/>
      <use xlink:href="#DejaVuSans-6f" x="722.347656"/>
      <use xlink:href="#DejaVuSans-73" x="783.529297"/>
      <use xlink:href="#DejaVuSans-69" x="835.628906"/>
      <use xlink:href="#DejaVuSans-74" x="863.412109"/>
      <use xlink:href="#DejaVuSans-69" x="902.621094"/>
      <use xlink:href="#DejaVuSans-6f" x="930.404297"/>
      <use xlink:href="#DejaVuSans-6e" x="991.585938"/>
      <use xlink:href="#DejaVuSans-20" x="1054.964844"/>
      <use xlink:href="#DejaVuSans-5b" x="1086.751953"/>
      <use xlink:href="#DejaVuSans-6d" x="1125.765625"/>
      <use xlink:href="#DejaVuSans-6d" x="1223.177734"/>
      <use xlink:href="#DejaVuSans-5d" x="1320.589844"/>
     </g>
    </g>
   </g>
   <g id="matplotlib.axis_4">
    <g id="ytick_5">
     <g id="line2d_37">
      <path d="M 56.928125 292.386702 
L 450 292.386702 
" clip-path="url(#p95a4bba8df)" style="fill: none; stroke: #b0b0b0; stroke-width: 0.8; stroke-linecap: square"/>
     </g>
     <g id="line2d_38">
      <g>
       <use xlink:href="#m80f26ee75f" x="56.928125" y="292.386702" style="stroke: #000000; stroke-width: 0.8"/>
      </g>
     </g>
     <g id="text_17">
      <!-- 100 -->
      <g transform="translate(30.840625 296.185921)scale(0.1 -0.1)">
       <use xlink:href="#DejaVuSans-31"/>
       <use xlink:href="#DejaVuSans-30" x="63.623047"/>
       <use xlink:href="#DejaVuSans-30" x="127.246094"/>
      </g>
     </g>
    </g>
    <g id="ytick_6">
     <g id="line2d_39">
      <path d="M 56.928125 265.829327 
L 450 265.829327 
" clip-path="url(#p95a4bba8df)" style="fill: none; stroke: #b0b0b0; stroke-width: 0.8; stroke-linecap: square"/>
     </g>
     <g id="line2d_40">
      <g>
       <use xlink:href="#m80f26ee75f" x="56.928125" y="265.829327" style="stroke: #000000; stroke-width: 0.8"/>
      </g>
     </g>
     <g id="text_18">
      <!-- 150 -->
      <g transform="translate(30.840625 269.628546)scale(0.1 -0.1)">
       <use xlink:href="#DejaVuSans-31"/>
       <use xlink:href="#DejaVuSans-35" x="63.623047"/>
       <use xlink:href="#DejaVuSans-30" x="127.246094"/>
      </g>
     </g>
    </g>
    <g id="ytick_7">
     <g id="line2d_41">
      <path d="M 56.928125 239.271953 
L 450 239.271953 
" clip-path="url(#p95a4bba8df)" style="fill: none; stroke: #b0b0b0; stroke-width: 0.8; stroke-linecap: square"/>
     </g>
     <g id="line2d_42">
      <g>
       <use xlink:href="#m80f26ee75f" x="56.928125" y="239.271953" style="stroke: #000000; stroke-width: 0.8"/>
      </g>
     </g>
     <g id="text_19">
      <!-- 200 -->
      <g transform="translate(30.840625 243.071171)scale(0.1 -0.1)">
       <use xlink:href="#DejaVuSans-32"/>
       <use xlink:href="#DejaVuSans-30" x="63.623047"/>
       <use xlink:href="#DejaVuSans-30" x="127.246094"/>
      </g>
     </g>
    </g>
    <g id="ytick_8">
     <g id="line2d_43">
      <path d="M 56.928125 212.714578 
L 450 212.714578 
" clip-path="url(#p95a4bba8df)" style="fill: none; stroke: #b0b0b0; stroke-width: 0.8; stroke-linecap: square"/>
     </g>
     <g id="line2d_44">
      <g>
       <use xlink:href="#m80f26ee75f" x="56.928125" y="212.714578" style="stroke: #000000; stroke-width: 0.8"/>
      </g>
     </g>
     <g id="text_20">
      <!-- 250 -->
      <g transform="translate(30.840625 216.513797)scale(0.1 -0.1)">
       <use xlink:href="#DejaVuSans-32"/>
       <use xlink:href="#DejaVuSans-35" x="63.623047"/>
       <use xlink:href="#DejaVuSans-30" x="127.246094"/>
      </g>
     </g>
    </g>
    <g id="text_21">
     <!-- wall distance [mm] -->
     <g transform="translate(24.760938 295.708594)rotate(-90)scale(0.1 -0.1)">
      <use xlink:href="#DejaVuSans-77"/>
      <use xlink:href="#DejaVuSans-61" x="81.787109"/>
      <use xlink:href="#DejaVuSans-6c" x="143.066406"/>
      <use xlink:href="#DejaVuSans-6c" x="170.849609"/>
      <use xlink:href="#DejaVuSans-20" x="198.632812"/>
      <use xlink:href="#DejaVuSans-64" x="230.419922"/>
      <use xlink:href="#DejaVuSans-69" x="293.896484"/>
      <use xlink:href="#DejaVuSans-73" x="321.679688"/>
      <use xlink:href="#DejaVuSans-74" x="373.779297"/>
      <use xlink:href="#DejaVuSans-61" x="412.988281"/>
      <use xlink:href="#DejaVuSans-6e" x="474.267578"/>
      <use xlink:href="#DejaVuSans-63" x="537.646484"/>
      <use xlink:href="#DejaVuSans-65" x="592.626953"/>
      <use xlink:href="#DejaVuSans-20" x="654.150391"/>
      <use xlink:href="#DejaVuSans-5b" x="685.9375"/>
      <use xlink:href="#DejaVuSans-6d" x="724.951172"/>
      <use xlink:href="#DejaVuSans-6d" x="822.363281"/>
      <use xlink:href="#DejaVuSans-5d" x="919.775391"/>
     </g>
    </g>
   </g>
   <g id="line2d_45">
    <path d="M 74.795028 196.249006 
L 318.658408 196.249006 
L 319.134859 230.773593 
L 327.234521 230.773593 
L 327.710972 196.249006 
L 335.810635 196.249006 
L 336.287086 235.022773 
L 343.910298 235.022773 
L 344.386749 237.67851 
L 352.009961 237.67851 
L 352.486412 240.334248 
L 359.156722 240.334248 
L 359.633173 242.989985 
L 366.779934 242.989985 
L 367.256385 249.363755 
L 373.926696 249.363755 
L 374.403146 255.737525 
L 380.597006 255.737525 
L 381.073457 257.862115 
L 387.267317 257.862115 
L 387.743768 261.580147 
L 393.937628 261.580147 
L 394.414078 269.016212 
L 400.131487 269.016212 
L 400.607938 271.67195 
L 406.325347 271.67195 
L 406.801798 275.389982 
L 411.566306 275.389982 
L 412.042756 278.04572 
L 417.442532 278.04572 
L 417.918982 281.232605 
L 422.604081 281.232605 
L 423.001124 283.888342 
L 426.177462 283.888342 
L 426.415687 290.262112 
L 429.036167 290.262112 
L 429.194984 291.855554 
L 430.862561 291.855554 
L 430.94197 294.511292 
L 431.736054 294.511292 
L 431.894871 296.104734 
L 431.894871 296.104734 
L 432.053688 296.104734 
L 432.053688 296.104734 
L 432.133097 299.291619 
L 432.133097 298.760472 
" clip-path="url(#p95a4bba8df)" style="fill: none; stroke: #1f77b4; stroke-width: 1.5; stroke-linecap: square"/>
   </g>
   <g id="patch_9">
    <path d="M 56.928125 304.44375 
L 56.928125 191.096875 
" style="fill: none; stroke: #000000; stroke-width: 0.8; stroke-linejoin: miter; stroke-linecap: square"/>
   </g>
   <g id="patch_10">
    <path d="M 450 304.44375 
L 450 191.096875 
" style="fill: none; stroke: #000000; stroke-width: 0.8; stroke-linejoin: miter; stroke-linecap: square"/>
   </g>
   <g id="patch_11">
    <path d="M 56.928125 304.44375 
L 450 304.44375 
" style="fill: none; stroke: #000000; stroke-width: 0.8; stroke-linejoin: miter; stroke-linecap: square"/>
   </g>
   <g id="patch_12">
    <path d="M 56.928125 191.096875 
L 450 191.096875 
" style="fill: none; stroke: #000000; stroke-width: 0.8; stroke-linejoin: miter; stroke-linecap: square"/>
   </g>
   <g id="text_22">
    <!-- Front Wall Distance [mm] -->
    <g transform="translate(177.40375 185.096875)scale(0.12 -0.12)">
     <defs>
      <path id="DejaVuSans-57" d="M 213 4666 
L 850 4666 
L 1831 722 
L 2809 4666 
L 3519 4666 
L 4500 722 
L 5478 4666 
L 6119 4666 
L 4947 0 
L 4153 0 
L 3169 4050 
L 2175 0 
L 1381 0 
L 213 4666 
z
" transform="scale(0.015625)"/>
      <path id="DejaVuSans-44" d="M 1259 4147 
L 1259 519 
L 2022 519 
Q 2988 519 3436 956 
Q 3884 1394 3884 2338 
Q 3884 3275 3436 3711 
Q 2988 4147 2022 4147 
L 1259 4147 
z
M 628 4666 
L 1925 4666 
Q 3281 4666 3915 4102 
Q 4550 3538 4550 2338 
Q 4550 1131 3912 565 
Q 3275 0 1925 0 
L 628 0 
L 628 4666 
z
" transform="scale(0.015625)"/>
     </defs>
     <use xlink:href="#DejaVuSans-46"/>
     <use xlink:href="#DejaVuSans-72" x="50.269531"/>
     <use xlink:href="#DejaVuSans-6f" x="89.132812"/>
     <use xlink:href="#DejaVuSans-6e" x="150.314453"/>
     <use xlink:href="#DejaVuSans-74" x="213.693359"/>
     <use xlink:href="#DejaVuSans-20" x="252.902344"/>
     <use xlink:href="#DejaVuSans-57" x="284.689453"/>
     <use xlink:href="#DejaVuSans-61" x="377.191406"/>
     <use xlink:href="#DejaVuSans-6c" x="438.470703"/>
     <use xlink:href="#DejaVuSans-6c" x="466.253906"/>
     <use xlink:href="#DejaVuSans-20" x="494.037109"/>
     <use xlink:href="#DejaVuSans-44" x="525.824219"/>
     <use xlink:href="#DejaVuSans-69" x="602.826172"/>
     <use xlink:href="#DejaVuSans-73" x="630.609375"/>
     <use xlink:href="#DejaVuSans-74" x="682.708984"/>
     <use xlink:href="#DejaVuSans-61" x="721.917969"/>
     <use xlink:href="#DejaVuSans-6e" x="783.197266"/>
     <use xlink:href="#DejaVuSans-63" x="846.576172"/>
     <use xlink:href="#DejaVuSans-65" x="901.556641"/>
     <use xlink:href="#DejaVuSans-20" x="963.080078"/>
     <use xlink:href="#DejaVuSans-5b" x="994.867188"/>
     <use xlink:href="#DejaVuSans-6d" x="1033.880859"/>
     <use xlink:href="#DejaVuSans-6d" x="1131.292969"/>
     <use xlink:href="#DejaVuSans-5d" x="1228.705078"/>
    </g>
   </g>
   <g id="legend_2">
    <g id="patch_13">
     <path d="M 394.721875 213.775 
L 443 213.775 
Q 445 213.775 445 211.775 
L 445 198.096875 
Q 445 196.096875 443 196.096875 
L 394.721875 196.096875 
Q 392.721875 196.096875 392.721875 198.096875 
L 392.721875 211.775 
Q 392.721875 213.775 394.721875 213.775 
z
" style="fill: #ffffff; opacity: 0.8; stroke: #cccccc; stroke-linejoin: miter"/>
    </g>
    <g id="line2d_46">
     <path d="M 396.721875 204.195312 
L 406.721875 204.195312 
L 416.721875 204.195312 
" style="fill: none; stroke: #1f77b4; stroke-width: 1.5; stroke-linecap: square"/>
    </g>
    <g id="text_23">
     <!-- ToF -->
     <g transform="translate(424.721875 207.695312)scale(0.1 -0.1)">
      <use xlink:href="#DejaVuSans-54"/>
      <use xlink:href="#DejaVuSans-6f" x="44.083984"/>
      <use xlink:href="#DejaVuSans-46" x="105.265625"/>
     </g>
    </g>
   </g>
  </g>
  <g id="text_24">
   <!-- Reflector Raw Value and ToF Distance -->
   <g transform="translate(117.629063 16.030125)scale(0.12 -0.12)">
    <use xlink:href="#DejaVuSans-52"/>
    <use xlink:href="#DejaVuSans-65" x="64.982422"/>
    <use xlink:href="#DejaVuSans-66" x="126.505859"/>
    <use xlink:href="#DejaVuSans-6c" x="161.710938"/>
    <use xlink:href="#DejaVuSans-65" x="189.494141"/>
    <use xlink:href="#DejaVuSans-63" x="251.017578"/>
    <use xlink:href="#DejaVuSans-74" x="305.998047"/>
    <use xlink:href="#DejaVuSans-6f" x="345.207031"/>
    <use xlink:href="#DejaVuSans-72" x="406.388672"/>
    <use xlink:href="#DejaVuSans-20" x="447.501953"/>
    <use xlink:href="#DejaVuSans-52" x="479.289062"/>
    <use xlink:href="#DejaVuSans-61" x="546.521484"/>
    <use xlink:href="#DejaVuSans-77" x="607.800781"/>
    <use xlink:href="#DejaVuSans-20" x="689.587891"/>
    <use xlink:href="#DejaVuSans-56" x="721.375"/>
    <use xlink:href="#DejaVuSans-61" x="782.033203"/>
    <use xlink:href="#DejaVuSans-6c" x="843.3125"/>
    <use xlink:href="#DejaVuSans-75" x="871.095703"/>
    <use xlink:href="#DejaVuSans-65" x="934.474609"/>
    <use xlink:href="#DejaVuSans-20" x="995.998047"/>
    <use xlink:href="#DejaVuSans-61" x="1027.785156"/>
    <use xlink:href="#DejaVuSans-6e" x="1089.064453"/>
    <use xlink:href="#DejaVuSans-64" x="1152.443359"/>
    <use xlink:href="#DejaVuSans-20" x="1215.919922"/>
    <use xlink:href="#DejaVuSans-54" x="1247.707031"/>
    <use xlink:href="#DejaVuSans-6f" x="1291.791016"/>
    <use xlink:href="#DejaVuSans-46" x="1352.972656"/>
    <use xlink:href="#DejaVuSans-20" x="1410.492188"/>
    <use xlink:href="#DejaVuSans-44" x="1442.279297"/>
    <use xlink:href="#DejaVuSans-69" x="1519.28125"/>
    <use xlink:href="#DejaVuSans-73" x="1547.064453"/>
    <use xlink:href="#DejaVuSans-74" x="1599.164062"/>
    <use xlink:href="#DejaVuSans-61" x="1638.373047"/>
    <use xlink:href="#DejaVuSans-6e" x="1699.652344"/>
    <use xlink:href="#DejaVuSans-63" x="1763.03125"/>
    <use xlink:href="#DejaVuSans-65" x="1818.011719"/>
   </g>
  </g>
 </g>
 <defs>
  <clipPath id="p00a2d9c412">
   <rect x="56.928125" y="48.331875" width="393.071875" height="113.346875"/>
  </clipPath>
  <clipPath id="p95a4bba8df">
   <rect x="56.928125" y="191.096875" width="393.071875" height="113.346875"/>
  </clipPath>
 </defs>
</svg>
