<?xml version="1.0" encoding="utf-8" standalone="no"?>
<!DOCTYPE svg PUBLIC "-//W3C//DTD SVG 1.1//EN"
  "http://www.w3.org/Graphics/SVG/1.1/DTD/svg11.dtd">
<svg xmlns:xlink="http://www.w3.org/1999/xlink" width="460.8pt" height="345.6pt" viewBox="0 0 460.8 345.6" xmlns="http://www.w3.org/2000/svg" version="1.1">
 <metadata>
  <rdf:RDF xmlns:dc="http://purl.org/dc/elements/1.1/" xmlns:cc="http://creativecommons.org/ns#" xmlns:rdf="http://www.w3.org/1999/02/22-rdf-syntax-ns#">
   <cc:Work>
    <dc:type rdf:resource="http://purl.org/dc/dcmitype/StillImage"/>
    <dc:date>2022-01-16T03:21:54.327986</dc:date>
    <dc:format>image/svg+xml</dc:format>
    <dc:creator>
     <cc:Agent>
      <dc:title>Matplotlib v3.5.1, https://matplotlib.org/</dc:title>
     </cc:Agent>
    </dc:creator>
   </cc:Work>
  </rdf:RDF>
 </metadata>
 <defs>
  <style type="text/css">*{stroke-linejoin: round; stroke-linecap: butt}</style>
 </defs>
 <g id="figure_1">
  <g id="patch_1">
   <path d="M 0 345.6 
L 460.8 345.6 
L 460.8 0 
L 0 0 
z
" style="fill: #ffffff"/>
  </g>
  <g id="axes_1">
   <g id="patch_2">
    <path d="M 56.928125 161.67875 
L 450 161.67875 
L 450 48.331875 
L 56.928125 48.331875 
z
" style="fill: #ffffff"/>
   </g>
   <g id="matplotlib.axis_1">
    <g id="xtick_1">
     <g id="line2d_1">
      <path d="M 74.795028 161.67875 
L 74.795028 48.331875 
" clip-path="url(#p6e410f9ce3)" style="fill: none; stroke: #b0b0b0; stroke-width: 0.8; stroke-linecap: square"/>
     </g>
     <g id="line2d_2">
      <defs>
       <path id="me5805b5f5b" d="M 0 0 
L 0 3.5 
" style="stroke: #000000; stroke-width: 0.8"/>
      </defs>
      <g>
       <use xlink:href="#me5805b5f5b" x="74.795028" y="161.67875" style="stroke: #000000; stroke-width: 0.8"/>
      </g>
     </g>
    </g>
    <g id="xtick_2">
     <g id="line2d_3">
      <path d="M 124.425316 161.67875 
L 124.425316 48.331875 
" clip-path="url(#p6e410f9ce3)" style="fill: none; stroke: #b0b0b0; stroke-width: 0.8; stroke-linecap: square"/>
     </g>
     <g id="line2d_4">
      <g>
       <use xlink:href="#me5805b5f5b" x="124.425316" y="161.67875" style="stroke: #000000; stroke-width: 0.8"/>
      </g>
     </g>
    </g>
    <g id="xtick_3">
     <g id="line2d_5">
      <path d="M 174.055603 161.67875 
L 174.055603 48.331875 
" clip-path="url(#p6e410f9ce3)" style="fill: none; stroke: #b0b0b0; stroke-width: 0.8; stroke-linecap: square"/>
     </g>
     <g id="line2d_6">
      <g>
       <use xlink:href="#me5805b5f5b" x="174.055603" y="161.67875" style="stroke: #000000; stroke-width: 0.8"/>
      </g>
     </g>
    </g>
    <g id="xtick_4">
     <g id="line2d_7">
      <path d="M 223.68589 161.67875 
L 223.68589 48.331875 
" clip-path="url(#p6e410f9ce3)" style="fill: none; stroke: #b0b0b0; stroke-width: 0.8; stroke-linecap: square"/>
     </g>
     <g id="line2d_8">
      <g>
       <use xlink:href="#me5805b5f5b" x="223.68589" y="161.67875" style="stroke: #000000; stroke-width: 0.8"/>
      </g>
     </g>
    </g>
    <g id="xtick_5">
     <g id="line2d_9">
      <path d="M 273.316177 161.67875 
L 273.316177 48.331875 
" clip-path="url(#p6e410f9ce3)" style="fill: none; stroke: #b0b0b0; stroke-width: 0.8; stroke-linecap: square"/>
     </g>
     <g id="line2d_10">
      <g>
       <use xlink:href="#me5805b5f5b" x="273.316177" y="161.67875" style="stroke: #000000; stroke-width: 0.8"/>
      </g>
     </g>
    </g>
    <g id="xtick_6">
     <g id="line2d_11">
      <path d="M 322.946465 161.67875 
L 322.946465 48.331875 
" clip-path="url(#p6e410f9ce3)" style="fill: none; stroke: #b0b0b0; stroke-width: 0.8; stroke-linecap: square"/>
     </g>
     <g id="line2d_12">
      <g>
       <use xlink:href="#me5805b5f5b" x="322.946465" y="161.67875" style="stroke: #000000; stroke-width: 0.8"/>
      </g>
     </g>
    </g>
    <g id="xtick_7">
     <g id="line2d_13">
      <path d="M 372.576752 161.67875 
L 372.576752 48.331875 
" clip-path="url(#p6e410f9ce3)" style="fill: none; stroke: #b0b0b0; stroke-width: 0.8; stroke-linecap: square"/>
     </g>
     <g id="line2d_14">
      <g>
       <use xlink:href="#me5805b5f5b" x="372.576752" y="161.67875" style="stroke: #000000; stroke-width: 0.8"/>
      </g>
     </g>
    </g>
    <g id="xtick_8">
     <g id="line2d_15">
      <path d="M 422.207039 161.67875 
L 422.207039 48.331875 
" clip-path="url(#p6e410f9ce3)" style="fill: none; stroke: #b0b0b0; stroke-width: 0.8; stroke-linecap: square"/>
     </g>
     <g id="line2d_16">
      <g>
       <use xlink:href="#me5805b5f5b" x="422.207039" y="161.67875" style="stroke: #000000; stroke-width: 0.8"/>
      </g>
     </g>
    </g>
   </g>
   <g id="matplotlib.axis_2">
    <g id="ytick_1">
     <g id="line2d_17">
      <path d="M 56.928125 156.625794 
L 450 156.625794 
" clip-path="url(#p6e410f9ce3)" style="fill: none; stroke: #b0b0b0; stroke-width: 0.8; stroke-linecap: square"/>
     </g>
     <g id="line2d_18">
      <defs>
       <path id="mbc27f9bbb4" d="M 0 0 
L -3.5 0 
" style="stroke: #000000; stroke-width: 0.8"/>
      </defs>
      <g>
       <use xlink:href="#mbc27f9bbb4" x="56.928125" y="156.625794" style="stroke: #000000; stroke-width: 0.8"/>
      </g>
     </g>
     <g id="text_1">
      <!-- 0 -->
      <g transform="translate(43.565625 160.425013)scale(0.1 -0.1)">
       <defs>
        <path id="DejaVuSans-30" d="M 2034 4250 
Q 1547 4250 1301 3770 
Q 1056 3291 1056 2328 
Q 1056 1369 1301 889 
Q 1547 409 2034 409 
Q 2525 409 2770 889 
Q 3016 1369 3016 2328 
Q 3016 3291 2770 3770 
Q 2525 4250 2034 4250 
z
M 2034 4750 
Q 2819 4750 3233 4129 
Q 3647 3509 3647 2328 
Q 3647 1150 3233 529 
Q 2819 -91 2034 -91 
Q 1250 -91 836 529 
Q 422 1150 422 2328 
Q 422 3509 836 4129 
Q 1250 4750 2034 4750 
z
" transform="scale(0.015625)"/>
       </defs>
       <use xlink:href="#DejaVuSans-30"/>
      </g>
     </g>
    </g>
    <g id="ytick_2">
     <g id="line2d_19">
      <path d="M 56.928125 131.832095 
L 450 131.832095 
" clip-path="url(#p6e410f9ce3)" style="fill: none; stroke: #b0b0b0; stroke-width: 0.8; stroke-linecap: square"/>
     </g>
     <g id="line2d_20">
      <g>
       <use xlink:href="#mbc27f9bbb4" x="56.928125" y="131.832095" style="stroke: #000000; stroke-width: 0.8"/>
      </g>
     </g>
     <g id="text_2">
      <!-- 250 -->
      <g transform="translate(30.840625 135.631314)scale(0.1 -0.1)">
       <defs>
        <path id="DejaVuSans-32" d="M 1228 531 
L 3431 531 
L 3431 0 
L 469 0 
L 469 531 
Q 828 903 1448 1529 
Q 2069 2156 2228 2338 
Q 2531 2678 2651 2914 
Q 2772 3150 2772 3378 
Q 2772 3750 2511 3984 
Q 2250 4219 1831 4219 
Q 1534 4219 1204 4116 
Q 875 4013 500 3803 
L 500 4441 
Q 881 4594 1212 4672 
Q 1544 4750 1819 4750 
Q 2544 4750 2975 4387 
Q 3406 4025 3406 3419 
Q 3406 3131 3298 2873 
Q 3191 2616 2906 2266 
Q 2828 2175 2409 1742 
Q 1991 1309 1228 531 
z
" transform="scale(0.015625)"/>
        <path id="DejaVuSans-35" d="M 691 4666 
L 3169 4666 
L 3169 4134 
L 1269 4134 
L 1269 2991 
Q 1406 3038 1543 3061 
Q 1681 3084 1819 3084 
Q 2600 3084 3056 2656 
Q 3513 2228 3513 1497 
Q 3513 744 3044 326 
Q 2575 -91 1722 -91 
Q 1428 -91 1123 -41 
Q 819 9 494 109 
L 494 744 
Q 775 591 1075 516 
Q 1375 441 1709 441 
Q 2250 441 2565 725 
Q 2881 1009 2881 1497 
Q 2881 1984 2565 2268 
Q 2250 2553 1709 2553 
Q 1456 2553 1204 2497 
Q 953 2441 691 2322 
L 691 4666 
z
" transform="scale(0.015625)"/>
       </defs>
       <use xlink:href="#DejaVuSans-32"/>
       <use xlink:href="#DejaVuSans-35" x="63.623047"/>
       <use xlink:href="#DejaVuSans-30" x="127.246094"/>
      </g>
     </g>
    </g>
    <g id="ytick_3">
     <g id="line2d_21">
      <path d="M 56.928125 107.038396 
L 450 107.038396 
" clip-path="url(#p6e410f9ce3)" style="fill: none; stroke: #b0b0b0; stroke-width: 0.8; stroke-linecap: square"/>
     </g>
     <g id="line2d_22">
      <g>
       <use xlink:href="#mbc27f9bbb4" x="56.928125" y="107.038396" style="stroke: #000000; stroke-width: 0.8"/>
      </g>
     </g>
     <g id="text_3">
      <!-- 500 -->
      <g transform="translate(30.840625 110.837615)scale(0.1 -0.1)">
       <use xlink:href="#DejaVuSans-35"/>
       <use xlink:href="#DejaVuSans-30" x="63.623047"/>
       <use xlink:href="#DejaVuSans-30" x="127.246094"/>
      </g>
     </g>
    </g>
    <g id="ytick_4">
     <g id="line2d_23">
      <path d="M 56.928125 82.244697 
L 450 82.244697 
" clip-path="url(#p6e410f9ce3)" style="fill: none; stroke: #b0b0b0; stroke-width: 0.8; stroke-linecap: square"/>
     </g>
     <g id="line2d_24">
      <g>
       <use xlink:href="#mbc27f9bbb4" x="56.928125" y="82.244697" style="stroke: #000000; stroke-width: 0.8"/>
      </g>
     </g>
     <g id="text_4">
      <!-- 750 -->
      <g transform="translate(30.840625 86.043915)scale(0.1 -0.1)">
       <defs>
        <path id="DejaVuSans-37" d="M 525 4666 
L 3525 4666 
L 3525 4397 
L 1831 0 
L 1172 0 
L 2766 4134 
L 525 4134 
L 525 4666 
z
" transform="scale(0.015625)"/>
       </defs>
       <use xlink:href="#DejaVuSans-37"/>
       <use xlink:href="#DejaVuSans-35" x="63.623047"/>
       <use xlink:href="#DejaVuSans-30" x="127.246094"/>
      </g>
     </g>
    </g>
    <g id="ytick_5">
     <g id="line2d_25">
      <path d="M 56.928125 57.450998 
L 450 57.450998 
" clip-path="url(#p6e410f9ce3)" style="fill: none; stroke: #b0b0b0; stroke-width: 0.8; stroke-linecap: square"/>
     </g>
     <g id="line2d_26">
      <g>
       <use xlink:href="#mbc27f9bbb4" x="56.928125" y="57.450998" style="stroke: #000000; stroke-width: 0.8"/>
      </g>
     </g>
     <g id="text_5">
      <!-- 1000 -->
      <g transform="translate(24.478125 61.250216)scale(0.1 -0.1)">
       <defs>
        <path id="DejaVuSans-31" d="M 794 531 
L 1825 531 
L 1825 4091 
L 703 3866 
L 703 4441 
L 1819 4666 
L 2450 4666 
L 2450 531 
L 3481 531 
L 3481 0 
L 794 0 
L 794 531 
z
" transform="scale(0.015625)"/>
       </defs>
       <use xlink:href="#DejaVuSans-31"/>
       <use xlink:href="#DejaVuSans-30" x="63.623047"/>
       <use xlink:href="#DejaVuSans-30" x="127.246094"/>
       <use xlink:href="#DejaVuSans-30" x="190.869141"/>
      </g>
     </g>
    </g>
    <g id="text_6">
     <!-- reflector value -->
     <g transform="translate(18.398438 141.321719)rotate(-90)scale(0.1 -0.1)">
      <defs>
       <path id="DejaVuSans-72" d="M 2631 2963 
Q 2534 3019 2420 3045 
Q 2306 3072 2169 3072 
Q 1681 3072 1420 2755 
Q 1159 2438 1159 1844 
L 1159 0 
L 581 0 
L 581 3500 
L 1159 3500 
L 1159 2956 
Q 1341 3275 1631 3429 
Q 1922 3584 2338 3584 
Q 2397 3584 2469 3576 
Q 2541 3569 2628 3553 
L 2631 2963 
z
" transform="scale(0.015625)"/>
       <path id="DejaVuSans-65" d="M 3597 1894 
L 3597 1613 
L 953 1613 
Q 991 1019 1311 708 
Q 1631 397 2203 397 
Q 2534 397 2845 478 
Q 3156 559 3463 722 
L 3463 178 
Q 3153 47 2828 -22 
Q 2503 -91 2169 -91 
Q 1331 -91 842 396 
Q 353 884 353 1716 
Q 353 2575 817 3079 
Q 1281 3584 2069 3584 
Q 2775 3584 3186 3129 
Q 3597 2675 3597 1894 
z
M 3022 2063 
Q 3016 2534 2758 2815 
Q 2500 3097 2075 3097 
Q 1594 3097 1305 2825 
Q 1016 2553 972 2059 
L 3022 2063 
z
" transform="scale(0.015625)"/>
       <path id="DejaVuSans-66" d="M 2375 4863 
L 2375 4384 
L 1825 4384 
Q 1516 4384 1395 4259 
Q 1275 4134 1275 3809 
L 1275 3500 
L 2222 3500 
L 2222 3053 
L 1275 3053 
L 1275 0 
L 697 0 
L 697 3053 
L 147 3053 
L 147 3500 
L 697 3500 
L 697 3744 
Q 697 4328 969 4595 
Q 1241 4863 1831 4863 
L 2375 4863 
z
" transform="scale(0.015625)"/>
       <path id="DejaVuSans-6c" d="M 603 4863 
L 1178 4863 
L 1178 0 
L 603 0 
L 603 4863 
z
" transform="scale(0.015625)"/>
       <path id="DejaVuSans-63" d="M 3122 3366 
L 3122 2828 
Q 2878 2963 2633 3030 
Q 2388 3097 2138 3097 
Q 1578 3097 1268 2742 
Q 959 2388 959 1747 
Q 959 1106 1268 751 
Q 1578 397 2138 397 
Q 2388 397 2633 464 
Q 2878 531 3122 666 
L 3122 134 
Q 2881 22 2623 -34 
Q 2366 -91 2075 -91 
Q 1284 -91 818 406 
Q 353 903 353 1747 
Q 353 2603 823 3093 
Q 1294 3584 2113 3584 
Q 2378 3584 2631 3529 
Q 2884 3475 3122 3366 
z
" transform="scale(0.015625)"/>
       <path id="DejaVuSans-74" d="M 1172 4494 
L 1172 3500 
L 2356 3500 
L 2356 3053 
L 1172 3053 
L 1172 1153 
Q 1172 725 1289 603 
Q 1406 481 1766 481 
L 2356 481 
L 2356 0 
L 1766 0 
Q 1100 0 847 248 
Q 594 497 594 1153 
L 594 3053 
L 172 3053 
L 172 3500 
L 594 3500 
L 594 4494 
L 1172 4494 
z
" transform="scale(0.015625)"/>
       <path id="DejaVuSans-6f" d="M 1959 3097 
Q 1497 3097 1228 2736 
Q 959 2375 959 1747 
Q 959 1119 1226 758 
Q 1494 397 1959 397 
Q 2419 397 2687 759 
Q 2956 1122 2956 1747 
Q 2956 2369 2687 2733 
Q 2419 3097 1959 3097 
z
M 1959 3584 
Q 2709 3584 3137 3096 
Q 3566 2609 3566 1747 
Q 3566 888 3137 398 
Q 2709 -91 1959 -91 
Q 1206 -91 779 398 
Q 353 888 353 1747 
Q 353 2609 779 3096 
Q 1206 3584 1959 3584 
z
" transform="scale(0.015625)"/>
       <path id="DejaVuSans-20" transform="scale(0.015625)"/>
       <path id="DejaVuSans-76" d="M 191 3500 
L 800 3500 
L 1894 563 
L 2988 3500 
L 3597 3500 
L 2284 0 
L 1503 0 
L 191 3500 
z
" transform="scale(0.015625)"/>
       <path id="DejaVuSans-61" d="M 2194 1759 
Q 1497 1759 1228 1600 
Q 959 1441 959 1056 
Q 959 750 1161 570 
Q 1363 391 1709 391 
Q 2188 391 2477 730 
Q 2766 1069 2766 1631 
L 2766 1759 
L 2194 1759 
z
M 3341 1997 
L 3341 0 
L 2766 0 
L 2766 531 
Q 2569 213 2275 61 
Q 1981 -91 1556 -91 
Q 1019 -91 701 211 
Q 384 513 384 1019 
Q 384 1609 779 1909 
Q 1175 2209 1959 2209 
L 2766 2209 
L 2766 2266 
Q 2766 2663 2505 2880 
Q 2244 3097 1772 3097 
Q 1472 3097 1187 3025 
Q 903 2953 641 2809 
L 641 3341 
Q 956 3463 1253 3523 
Q 1550 3584 1831 3584 
Q 2591 3584 2966 3190 
Q 3341 2797 3341 1997 
z
" transform="scale(0.015625)"/>
       <path id="DejaVuSans-75" d="M 544 1381 
L 544 3500 
L 1119 3500 
L 1119 1403 
Q 1119 906 1312 657 
Q 1506 409 1894 409 
Q 2359 409 2629 706 
Q 2900 1003 2900 1516 
L 2900 3500 
L 3475 3500 
L 3475 0 
L 2900 0 
L 2900 538 
Q 2691 219 2414 64 
Q 2138 -91 1772 -91 
Q 1169 -91 856 284 
Q 544 659 544 1381 
z
M 1991 3584 
L 1991 3584 
z
" transform="scale(0.015625)"/>
      </defs>
      <use xlink:href="#DejaVuSans-72"/>
      <use xlink:href="#DejaVuSans-65" x="38.863281"/>
      <use xlink:href="#DejaVuSans-66" x="100.386719"/>
      <use xlink:href="#DejaVuSans-6c" x="135.591797"/>
      <use xlink:href="#DejaVuSans-65" x="163.375"/>
      <use xlink:href="#DejaVuSans-63" x="224.898438"/>
      <use xlink:href="#DejaVuSans-74" x="279.878906"/>
      <use xlink:href="#DejaVuSans-6f" x="319.087891"/>
      <use xlink:href="#DejaVuSans-72" x="380.269531"/>
      <use xlink:href="#DejaVuSans-20" x="421.382812"/>
      <use xlink:href="#DejaVuSans-76" x="453.169922"/>
      <use xlink:href="#DejaVuSans-61" x="512.349609"/>
      <use xlink:href="#DejaVuSans-6c" x="573.628906"/>
      <use xlink:href="#DejaVuSans-75" x="601.412109"/>
      <use xlink:href="#DejaVuSans-65" x="664.791016"/>
     </g>
    </g>
   </g>
   <g id="line2d_27">
    <path d="M 74.795028 156.526619 
L 95.78864 156.526619 
L 96.92021 155.931571 
L 97.485996 155.237347 
L 98.061707 155.038997 
L 98.637418 155.038997 
L 99.223056 154.642298 
L 99.798767 154.642298 
L 100.384405 153.8489 
L 100.970042 153.551375 
L 101.555679 152.857152 
L 102.151243 152.460453 
L 102.746806 151.865404 
L 103.928007 150.972831 
L 105.119134 149.881908 
L 105.714697 149.584384 
L 106.310261 148.790985 
L 106.905824 148.493461 
L 107.501388 147.898412 
L 108.096951 146.906664 
L 108.692515 146.41079 
L 109.288078 145.518217 
L 109.883641 145.022343 
L 110.479205 144.12977 
L 111.074768 143.534721 
L 111.670332 142.443798 
L 112.265895 142.047099 
L 113.457022 139.964428 
L 114.648149 138.080107 
L 115.243713 136.592485 
L 115.839276 135.699912 
L 116.434839 134.01394 
L 117.030403 132.823843 
L 119.412657 126.278306 
L 120.00822 124.195636 
L 120.603784 122.608839 
L 121.79491 117.947623 
L 122.986037 113.286408 
L 124.177164 108.129319 
L 124.772728 104.559026 
L 127.750545 90.476205 
L 128.346108 87.005087 
L 128.941672 84.525717 
L 130.728362 75.599985 
L 132.515052 66.773428 
L 133.110616 64.294059 
L 133.706179 62.310563 
L 134.301743 59.136969 
L 134.897306 56.955124 
L 135.49287 54.178229 
L 136.088433 53.484006 
L 137.27956 53.484006 
L 137.875124 55.368327 
L 138.470687 58.046046 
L 139.06625 61.318815 
L 140.257377 70.839595 
L 141.448504 84.525717 
L 144.426321 125.782432 
L 146.213012 147.005839 
L 146.808575 152.063753 
L 147.404139 156.12992 
L 147.999702 156.526619 
L 192.121027 156.526619 
L 193.907718 155.038997 
L 194.503281 154.939823 
L 195.098845 154.047249 
L 195.694408 153.551375 
L 196.885535 152.162928 
L 197.481098 151.766229 
L 198.076662 151.17118 
L 199.863352 148.69181 
L 200.458916 147.997587 
L 201.054479 147.105014 
L 201.650043 145.815741 
L 202.245606 145.220693 
L 203.436733 142.840497 
L 204.032296 141.947924 
L 205.818987 137.980932 
L 206.41455 136.989184 
L 211.079797 125.881607 
L 211.675361 123.798936 
L 212.270924 122.410489 
L 212.866488 120.228644 
L 214.057614 116.658351 
L 214.653178 113.980632 
L 215.248741 111.897961 
L 216.439868 106.443347 
L 218.226559 97.61679 
L 222.395503 74.013189 
L 223.58663 69.153624 
L 224.777756 62.905611 
L 225.968883 59.434493 
L 226.564447 57.946872 
L 227.755574 58.244396 
L 228.946701 63.004786 
L 229.542264 67.566827 
L 230.137827 73.021441 
L 232.520081 103.567278 
L 233.711208 121.418741 
L 235.497899 145.518217 
L 236.093462 151.865404 
L 236.689025 156.32827 
L 237.284589 156.526619 
L 278.97403 156.526619 
L 281.356284 154.939823 
L 281.951847 154.245599 
L 282.547411 153.8489 
L 283.142974 153.154676 
L 283.738538 152.162928 
L 284.334101 151.766229 
L 285.525228 150.576132 
L 286.120792 150.278607 
L 286.716355 149.286859 
L 287.907482 148.592636 
L 288.503045 148.096762 
L 289.098609 147.204188 
L 289.694172 146.807489 
L 291.480863 144.427294 
L 292.076426 143.832245 
L 292.671989 142.642148 
L 293.267553 142.146274 
L 293.863116 141.055351 
L 294.45868 140.261953 
L 296.24537 136.790835 
L 296.840934 135.799087 
L 299.818751 128.658501 
L 301.605441 123.898111 
L 302.796568 120.129469 
L 303.987695 116.460002 
L 305.178822 111.997136 
L 305.774385 110.01364 
L 306.369949 107.435095 
L 306.965512 104.261502 
L 308.156639 98.906063 
L 309.347766 93.153924 
L 310.538893 87.005087 
L 312.325583 77.186782 
L 312.921147 75.401636 
L 314.112274 70.839595 
L 314.707837 68.955274 
L 315.3034 68.360225 
L 315.898964 68.360225 
L 316.494527 69.451148 
L 317.090091 71.831343 
L 317.685654 75.69916 
L 318.281218 80.757075 
L 319.472345 93.550623 
L 323.045725 137.584233 
L 324.236852 149.584384 
L 324.832416 153.8489 
L 325.427979 156.526619 
L 367.712984 156.526619 
L 368.904111 156.030745 
L 369.499674 155.931571 
L 370.095238 155.237347 
L 371.286364 155.038997 
L 371.881928 154.443949 
L 372.477491 153.551375 
L 373.073055 153.154676 
L 373.668618 152.361278 
L 374.264182 151.865404 
L 374.859745 151.567879 
L 375.455309 150.774481 
L 376.050872 150.774481 
L 376.646435 150.278607 
L 377.837562 148.89016 
L 378.433126 148.592636 
L 379.028689 147.799237 
L 380.219816 145.518217 
L 380.81538 145.220693 
L 381.410943 144.228945 
L 382.006506 143.633896 
L 382.60207 142.642148 
L 383.197633 142.344623 
L 383.793197 141.551225 
L 384.984324 139.17103 
L 385.579887 138.476806 
L 386.175451 136.69166 
L 386.771014 135.699912 
L 387.366577 134.41064 
L 387.962141 132.823843 
L 389.748831 129.352725 
L 390.939958 125.782432 
L 391.535522 124.195636 
L 394.513339 112.393835 
L 396.300029 104.559026 
L 396.895593 101.583782 
L 398.682283 94.145672 
L 400.468973 86.509213 
L 401.064537 85.120766 
L 401.6601 83.236445 
L 403.446791 79.963676 
L 404.637917 80.6579 
L 405.233481 81.649648 
L 406.424608 84.327367 
L 407.020171 86.806737 
L 408.211298 93.649798 
L 408.806862 97.914315 
L 409.898728 109.021892 
L 411.089855 119.137721 
L 412.181721 131.237046 
L 414.365454 151.865404 
L 414.861757 155.634046 
L 415.35806 156.526619 
L 432.133097 156.526619 
L 432.133097 156.526619 
" clip-path="url(#p6e410f9ce3)" style="fill: none; stroke: #1f77b4; stroke-width: 1.5; stroke-linecap: square"/>
   </g>
   <g id="line2d_28">
    <path d="M 74.795028 156.526619 
L 417.938834 156.526619 
L 418.435137 154.543123 
L 418.83218 154.543123 
L 419.328482 154.939823 
L 419.824785 153.65055 
L 420.221828 153.551375 
L 420.718131 156.526619 
L 422.802603 156.526619 
L 423.199645 151.865404 
L 423.993729 151.865404 
L 424.291511 152.559627 
L 424.688554 152.063753 
L 424.986335 156.526619 
L 426.574504 156.526619 
L 426.872286 152.857152 
L 427.170068 152.460453 
L 427.46785 152.559627 
L 427.765631 152.857152 
L 427.964152 152.857152 
L 428.261934 156.526619 
L 429.353801 156.526619 
L 429.552322 151.865404 
L 429.750843 151.766229 
L 429.949364 151.964579 
L 430.048625 151.667054 
L 430.247146 151.865404 
L 430.544927 156.526619 
L 430.94197 156.526619 
L 431.04123 151.567879 
L 431.140491 151.865404 
L 431.239751 150.873656 
L 431.438273 151.17118 
L 431.636794 156.526619 
L 431.736054 156.526619 
L 431.736054 156.526619 
L 431.835315 150.179432 
L 431.934575 150.278607 
L 432.033836 156.526619 
L 432.033836 156.526619 
L 432.133097 156.526619 
L 432.133097 148.592636 
L 432.133097 156.526619 
" clip-path="url(#p6e410f9ce3)" style="fill: none; stroke: #ff7f0e; stroke-width: 1.5; stroke-linecap: square"/>
   </g>
   <g id="line2d_29">
    <path d="M 74.795028 156.526619 
L 407.615735 156.526619 
L 408.211298 155.931571 
L 408.806862 156.526619 
L 412.181721 156.526619 
L 413.273587 154.146424 
L 413.76989 154.146424 
L 414.365454 155.138172 
L 414.861757 155.138172 
L 415.35806 156.526619 
L 417.938834 156.526619 
L 418.435137 155.038997 
L 418.83218 155.038997 
L 419.328482 152.757977 
L 419.824785 152.757977 
L 420.221828 155.832396 
L 420.718131 155.832396 
L 421.115173 156.526619 
L 422.802603 156.526619 
L 423.199645 151.567879 
L 424.291511 151.468705 
L 424.688554 152.658802 
L 424.986335 152.658802 
L 425.383378 156.526619 
L 426.574504 156.526619 
L 426.872286 150.278607 
L 427.170068 150.278607 
L 427.46785 150.476957 
L 427.765631 150.476957 
L 427.964152 156.526619 
L 429.353801 156.526619 
L 429.552322 148.989335 
L 429.750843 148.989335 
L 430.048625 149.683558 
L 430.247146 156.526619 
L 430.842709 156.526619 
L 431.04123 149.683558 
L 431.239751 148.394286 
L 431.438273 148.295111 
L 431.636794 156.526619 
L 431.736054 156.526619 
L 431.835315 147.997587 
L 431.934575 147.997587 
L 431.934575 146.708314 
L 432.033836 156.526619 
L 432.033836 156.526619 
L 432.133097 146.509965 
L 432.133097 149.881908 
" clip-path="url(#p6e410f9ce3)" style="fill: none; stroke: #2ca02c; stroke-width: 1.5; stroke-linecap: square"/>
   </g>
   <g id="line2d_30">
    <path d="M 74.795028 156.526619 
L 112.861459 156.526619 
L 113.457022 156.32827 
L 115.243713 156.427445 
L 116.434839 156.526619 
L 203.436733 156.427445 
L 205.818987 155.336522 
L 207.605677 154.741473 
L 208.10198 154.840648 
L 208.697543 154.543123 
L 209.293107 154.543123 
L 210.484234 155.038997 
L 211.079797 155.038997 
L 211.675361 155.336522 
L 212.866488 156.427445 
L 214.057614 156.526619 
L 290.289736 156.526619 
L 290.885299 156.12992 
L 291.480863 156.030745 
L 292.671989 155.138172 
L 294.45868 154.741473 
L 295.054243 154.146424 
L 295.649807 154.543123 
L 296.24537 153.948075 
L 297.436497 153.65055 
L 298.03206 153.65055 
L 298.627624 153.452201 
L 299.223187 153.948075 
L 299.818751 153.8489 
L 300.414314 154.443949 
L 301.605441 155.038997 
L 302.201005 155.038997 
L 303.987695 156.526619 
L 379.028689 156.526619 
L 379.624253 156.229095 
L 380.219816 155.534871 
L 382.006506 154.840648 
L 382.60207 154.543123 
L 383.197633 154.642298 
L 383.793197 154.146424 
L 385.579887 153.353026 
L 386.175451 152.559627 
L 386.771014 152.460453 
L 387.366577 152.063753 
L 387.962141 152.162928 
L 388.557704 151.964579 
L 389.153268 152.063753 
L 389.748831 152.757977 
L 390.344395 156.526619 
L 390.939958 152.857152 
L 391.535522 153.452201 
L 392.131085 153.65055 
L 392.726649 154.245599 
L 393.322212 154.047249 
L 393.917775 154.642298 
L 394.513339 155.038997 
L 395.108902 155.138172 
L 395.704466 156.229095 
L 396.300029 156.526619 
L 432.133097 156.526619 
L 432.133097 156.526619 
" clip-path="url(#p6e410f9ce3)" style="fill: none; stroke: #d62728; stroke-width: 1.5; stroke-linecap: square"/>
   </g>
   <g id="patch_3">
    <path d="M 56.928125 161.67875 
L 56.928125 48.331875 
" style="fill: none; stroke: #000000; stroke-width: 0.8; stroke-linejoin: miter; stroke-linecap: square"/>
   </g>
   <g id="patch_4">
    <path d="M 450 161.67875 
L 450 48.331875 
" style="fill: none; stroke: #000000; stroke-width: 0.8; stroke-linejoin: miter; stroke-linecap: square"/>
   </g>
   <g id="patch_5">
    <path d="M 56.928125 161.67875 
L 450 161.67875 
" style="fill: none; stroke: #000000; stroke-width: 0.8; stroke-linejoin: miter; stroke-linecap: square"/>
   </g>
   <g id="patch_6">
    <path d="M 56.928125 48.331875 
L 450 48.331875 
" style="fill: none; stroke: #000000; stroke-width: 0.8; stroke-linejoin: miter; stroke-linecap: square"/>
   </g>
   <g id="text_7">
    <!-- Reflector Raw Value -->
    <g transform="translate(193.704062 42.331875)scale(0.12 -0.12)">
     <defs>
      <path id="DejaVuSans-52" d="M 2841 2188 
Q 3044 2119 3236 1894 
Q 3428 1669 3622 1275 
L 4263 0 
L 3584 0 
L 2988 1197 
Q 2756 1666 2539 1819 
Q 2322 1972 1947 1972 
L 1259 1972 
L 1259 0 
L 628 0 
L 628 4666 
L 2053 4666 
Q 2853 4666 3247 4331 
Q 3641 3997 3641 3322 
Q 3641 2881 3436 2590 
Q 3231 2300 2841 2188 
z
M 1259 4147 
L 1259 2491 
L 2053 2491 
Q 2509 2491 2742 2702 
Q 2975 2913 2975 3322 
Q 2975 3731 2742 3939 
Q 2509 4147 2053 4147 
L 1259 4147 
z
" transform="scale(0.015625)"/>
      <path id="DejaVuSans-77" d="M 269 3500 
L 844 3500 
L 1563 769 
L 2278 3500 
L 2956 3500 
L 3675 769 
L 4391 3500 
L 4966 3500 
L 4050 0 
L 3372 0 
L 2619 2869 
L 1863 0 
L 1184 0 
L 269 3500 
z
" transform="scale(0.015625)"/>
      <path id="DejaVuSans-56" d="M 1831 0 
L 50 4666 
L 709 4666 
L 2188 738 
L 3669 4666 
L 4325 4666 
L 2547 0 
L 1831 0 
z
" transform="scale(0.015625)"/>
     </defs>
     <use xlink:href="#DejaVuSans-52"/>
     <use xlink:href="#DejaVuSans-65" x="64.982422"/>
     <use xlink:href="#DejaVuSans-66" x="126.505859"/>
     <use xlink:href="#DejaVuSans-6c" x="161.710938"/>
     <use xlink:href="#DejaVuSans-65" x="189.494141"/>
     <use xlink:href="#DejaVuSans-63" x="251.017578"/>
     <use xlink:href="#DejaVuSans-74" x="305.998047"/>
     <use xlink:href="#DejaVuSans-6f" x="345.207031"/>
     <use xlink:href="#DejaVuSans-72" x="406.388672"/>
     <use xlink:href="#DejaVuSans-20" x="447.501953"/>
     <use xlink:href="#DejaVuSans-52" x="479.289062"/>
     <use xlink:href="#DejaVuSans-61" x="546.521484"/>
     <use xlink:href="#DejaVuSans-77" x="607.800781"/>
     <use xlink:href="#DejaVuSans-20" x="689.587891"/>
     <use xlink:href="#DejaVuSans-56" x="721.375"/>
     <use xlink:href="#DejaVuSans-61" x="782.033203"/>
     <use xlink:href="#DejaVuSans-6c" x="843.3125"/>
     <use xlink:href="#DejaVuSans-75" x="871.095703"/>
     <use xlink:href="#DejaVuSans-65" x="934.474609"/>
    </g>
   </g>
   <g id="legend_1">
    <g id="patch_7">
     <path d="M 219.75625 135.861562 
L 287.171875 135.861562 
Q 289.171875 135.861562 289.171875 133.861562 
L 289.171875 76.149062 
Q 289.171875 74.149062 287.171875 74.149062 
L 219.75625 74.149062 
Q 217.75625 74.149062 217.75625 76.149062 
L 217.75625 133.861562 
Q 217.75625 135.861562 219.75625 135.861562 
z
" style="fill: #ffffff; opacity: 0.8; stroke: #cccccc; stroke-linejoin: miter"/>
    </g>
    <g id="line2d_31">
     <path d="M 221.75625 82.2475 
L 231.75625 82.2475 
L 241.75625 82.2475 
" style="fill: none; stroke: #1f77b4; stroke-width: 1.5; stroke-linecap: square"/>
    </g>
    <g id="text_8">
     <!-- L Side -->
     <g transform="translate(249.75625 85.7475)scale(0.1 -0.1)">
      <defs>
       <path id="DejaVuSans-4c" d="M 628 4666 
L 1259 4666 
L 1259 531 
L 3531 531 
L 3531 0 
L 628 0 
L 628 4666 
z
" transform="scale(0.015625)"/>
       <path id="DejaVuSans-53" d="M 3425 4513 
L 3425 3897 
Q 3066 4069 2747 4153 
Q 2428 4238 2131 4238 
Q 1616 4238 1336 4038 
Q 1056 3838 1056 3469 
Q 1056 3159 1242 3001 
Q 1428 2844 1947 2747 
L 2328 2669 
Q 3034 2534 3370 2195 
Q 3706 1856 3706 1288 
Q 3706 609 3251 259 
Q 2797 -91 1919 -91 
Q 1588 -91 1214 -16 
Q 841 59 441 206 
L 441 856 
Q 825 641 1194 531 
Q 1563 422 1919 422 
Q 2459 422 2753 634 
Q 3047 847 3047 1241 
Q 3047 1584 2836 1778 
Q 2625 1972 2144 2069 
L 1759 2144 
Q 1053 2284 737 2584 
Q 422 2884 422 3419 
Q 422 4038 858 4394 
Q 1294 4750 2059 4750 
Q 2388 4750 2728 4690 
Q 3069 4631 3425 4513 
z
" transform="scale(0.015625)"/>
       <path id="DejaVuSans-69" d="M 603 3500 
L 1178 3500 
L 1178 0 
L 603 0 
L 603 3500 
z
M 603 4863 
L 1178 4863 
L 1178 4134 
L 603 4134 
L 603 4863 
z
" transform="scale(0.015625)"/>
       <path id="DejaVuSans-64" d="M 2906 2969 
L 2906 4863 
L 3481 4863 
L 3481 0 
L 2906 0 
L 2906 525 
Q 2725 213 2448 61 
Q 2172 -91 1784 -91 
Q 1150 -91 751 415 
Q 353 922 353 1747 
Q 353 2572 751 3078 
Q 1150 3584 1784 3584 
Q 2172 3584 2448 3432 
Q 2725 3281 2906 2969 
z
M 947 1747 
Q 947 1113 1208 752 
Q 1469 391 1925 391 
Q 2381 391 2643 752 
Q 2906 1113 2906 1747 
Q 2906 2381 2643 2742 
Q 2381 3103 1925 3103 
Q 1469 3103 1208 2742 
Q 947 2381 947 1747 
z
" transform="scale(0.015625)"/>
      </defs>
      <use xlink:href="#DejaVuSans-4c"/>
      <use xlink:href="#DejaVuSans-20" x="55.712891"/>
      <use xlink:href="#DejaVuSans-53" x="87.5"/>
      <use xlink:href="#DejaVuSans-69" x="150.976562"/>
      <use xlink:href="#DejaVuSans-64" x="178.759766"/>
      <use xlink:href="#DejaVuSans-65" x="242.236328"/>
     </g>
    </g>
    <g id="line2d_32">
     <path d="M 221.75625 96.925625 
L 231.75625 96.925625 
L 241.75625 96.925625 
" style="fill: none; stroke: #ff7f0e; stroke-width: 1.5; stroke-linecap: square"/>
    </g>
    <g id="text_9">
     <!-- L Front -->
     <g transform="translate(249.75625 100.425625)scale(0.1 -0.1)">
      <defs>
       <path id="DejaVuSans-46" d="M 628 4666 
L 3309 4666 
L 3309 4134 
L 1259 4134 
L 1259 2759 
L 3109 2759 
L 3109 2228 
L 1259 2228 
L 1259 0 
L 628 0 
L 628 4666 
z
" transform="scale(0.015625)"/>
       <path id="DejaVuSans-6e" d="M 3513 2113 
L 3513 0 
L 2938 0 
L 2938 2094 
Q 2938 2591 2744 2837 
Q 2550 3084 2163 3084 
Q 1697 3084 1428 2787 
Q 1159 2491 1159 1978 
L 1159 0 
L 581 0 
L 581 3500 
L 1159 3500 
L 1159 2956 
Q 1366 3272 1645 3428 
Q 1925 3584 2291 3584 
Q 2894 3584 3203 3211 
Q 3513 2838 3513 2113 
z
" transform="scale(0.015625)"/>
      </defs>
      <use xlink:href="#DejaVuSans-4c"/>
      <use xlink:href="#DejaVuSans-20" x="55.712891"/>
      <use xlink:href="#DejaVuSans-46" x="87.5"/>
      <use xlink:href="#DejaVuSans-72" x="137.769531"/>
      <use xlink:href="#DejaVuSans-6f" x="176.632812"/>
      <use xlink:href="#DejaVuSans-6e" x="237.814453"/>
      <use xlink:href="#DejaVuSans-74" x="301.193359"/>
     </g>
    </g>
    <g id="line2d_33">
     <path d="M 221.75625 111.60375 
L 231.75625 111.60375 
L 241.75625 111.60375 
" style="fill: none; stroke: #2ca02c; stroke-width: 1.5; stroke-linecap: square"/>
    </g>
    <g id="text_10">
     <!-- R Front -->
     <g transform="translate(249.75625 115.10375)scale(0.1 -0.1)">
      <use xlink:href="#DejaVuSans-52"/>
      <use xlink:href="#DejaVuSans-20" x="69.482422"/>
      <use xlink:href="#DejaVuSans-46" x="101.269531"/>
      <use xlink:href="#DejaVuSans-72" x="151.539062"/>
      <use xlink:href="#DejaVuSans-6f" x="190.402344"/>
      <use xlink:href="#DejaVuSans-6e" x="251.583984"/>
      <use xlink:href="#DejaVuSans-74" x="314.962891"/>
     </g>
    </g>
    <g id="line2d_34">
     <path d="M 221.75625 126.281875 
L 231.75625 126.281875 
L 241.75625 126.281875 
" style="fill: none; stroke: #d62728; stroke-width: 1.5; stroke-linecap: square"/>
    </g>
    <g id="text_11">
     <!-- R Side -->
     <g transform="translate(249.75625 129.781875)scale(0.1 -0.1)">
      <use xlink:href="#DejaVuSans-52"/>
      <use xlink:href="#DejaVuSans-20" x="69.482422"/>
      <use xlink:href="#DejaVuSans-53" x="101.269531"/>
      <use xlink:href="#DejaVuSans-69" x="164.746094"/>
      <use xlink:href="#DejaVuSans-64" x="192.529297"/>
      <use xlink:href="#DejaVuSans-65" x="256.005859"/>
     </g>
    </g>
   </g>
  </g>
  <g id="axes_2">
   <g id="patch_8">
    <path d="M 56.928125 304.44375 
L 450 304.44375 
L 450 191.096875 
L 56.928125 191.096875 
z
" style="fill: #ffffff"/>
   </g>
   <g id="matplotlib.axis_3">
    <g id="xtick_9">
     <g id="line2d_35">
      <path d="M 74.795028 304.44375 
L 74.795028 191.096875 
" clip-path="url(#p74a8995d3d)" style="fill: none; stroke: #b0b0b0; stroke-width: 0.8; stroke-linecap: square"/>
     </g>
     <g id="line2d_36">
      <g>
       <use xlink:href="#me5805b5f5b" x="74.795028" y="304.44375" style="stroke: #000000; stroke-width: 0.8"/>
      </g>
     </g>
     <g id="text_12">
      <!-- 0 -->
      <g transform="translate(71.613778 319.042187)scale(0.1 -0.1)">
       <use xlink:href="#DejaVuSans-30"/>
      </g>
     </g>
    </g>
    <g id="xtick_10">
     <g id="line2d_37">
      <path d="M 124.425316 304.44375 
L 124.425316 191.096875 
" clip-path="url(#p74a8995d3d)" style="fill: none; stroke: #b0b0b0; stroke-width: 0.8; stroke-linecap: square"/>
     </g>
     <g id="line2d_38">
      <g>
       <use xlink:href="#me5805b5f5b" x="124.425316" y="304.44375" style="stroke: #000000; stroke-width: 0.8"/>
      </g>
     </g>
     <g id="text_13">
      <!-- 50 -->
      <g transform="translate(118.062816 319.042187)scale(0.1 -0.1)">
       <use xlink:href="#DejaVuSans-35"/>
       <use xlink:href="#DejaVuSans-30" x="63.623047"/>
      </g>
     </g>
    </g>
    <g id="xtick_11">
     <g id="line2d_39">
      <path d="M 174.055603 304.44375 
L 174.055603 191.096875 
" clip-path="url(#p74a8995d3d)" style="fill: none; stroke: #b0b0b0; stroke-width: 0.8; stroke-linecap: square"/>
     </g>
     <g id="line2d_40">
      <g>
       <use xlink:href="#me5805b5f5b" x="174.055603" y="304.44375" style="stroke: #000000; stroke-width: 0.8"/>
      </g>
     </g>
     <g id="text_14">
      <!-- 100 -->
      <g transform="translate(164.511853 319.042187)scale(0.1 -0.1)">
       <use xlink:href="#DejaVuSans-31"/>
       <use xlink:href="#DejaVuSans-30" x="63.623047"/>
       <use xlink:href="#DejaVuSans-30" x="127.246094"/>
      </g>
     </g>
    </g>
    <g id="xtick_12">
     <g id="line2d_41">
      <path d="M 223.68589 304.44375 
L 223.68589 191.096875 
" clip-path="url(#p74a8995d3d)" style="fill: none; stroke: #b0b0b0; stroke-width: 0.8; stroke-linecap: square"/>
     </g>
     <g id="line2d_42">
      <g>
       <use xlink:href="#me5805b5f5b" x="223.68589" y="304.44375" style="stroke: #000000; stroke-width: 0.8"/>
      </g>
     </g>
     <g id="text_15">
      <!-- 150 -->
      <g transform="translate(214.14214 319.042187)scale(0.1 -0.1)">
       <use xlink:href="#DejaVuSans-31"/>
       <use xlink:href="#DejaVuSans-35" x="63.623047"/>
       <use xlink:href="#DejaVuSans-30" x="127.246094"/>
      </g>
     </g>
    </g>
    <g id="xtick_13">
     <g id="line2d_43">
      <path d="M 273.316177 304.44375 
L 273.316177 191.096875 
" clip-path="url(#p74a8995d3d)" style="fill: none; stroke: #b0b0b0; stroke-width: 0.8; stroke-linecap: square"/>
     </g>
     <g id="line2d_44">
      <g>
       <use xlink:href="#me5805b5f5b" x="273.316177" y="304.44375" style="stroke: #000000; stroke-width: 0.8"/>
      </g>
     </g>
     <g id="text_16">
      <!-- 200 -->
      <g transform="translate(263.772427 319.042187)scale(0.1 -0.1)">
       <use xlink:href="#DejaVuSans-32"/>
       <use xlink:href="#DejaVuSans-30" x="63.623047"/>
       <use xlink:href="#DejaVuSans-30" x="127.246094"/>
      </g>
     </g>
    </g>
    <g id="xtick_14">
     <g id="line2d_45">
      <path d="M 322.946465 304.44375 
L 322.946465 191.096875 
" clip-path="url(#p74a8995d3d)" style="fill: none; stroke: #b0b0b0; stroke-width: 0.8; stroke-linecap: square"/>
     </g>
     <g id="line2d_46">
      <g>
       <use xlink:href="#me5805b5f5b" x="322.946465" y="304.44375" style="stroke: #000000; stroke-width: 0.8"/>
      </g>
     </g>
     <g id="text_17">
      <!-- 250 -->
      <g transform="translate(313.402715 319.042187)scale(0.1 -0.1)">
       <use xlink:href="#DejaVuSans-32"/>
       <use xlink:href="#DejaVuSans-35" x="63.623047"/>
       <use xlink:href="#DejaVuSans-30" x="127.246094"/>
      </g>
     </g>
    </g>
    <g id="xtick_15">
     <g id="line2d_47">
      <path d="M 372.576752 304.44375 
L 372.576752 191.096875 
" clip-path="url(#p74a8995d3d)" style="fill: none; stroke: #b0b0b0; stroke-width: 0.8; stroke-linecap: square"/>
     </g>
     <g id="line2d_48">
      <g>
       <use xlink:href="#me5805b5f5b" x="372.576752" y="304.44375" style="stroke: #000000; stroke-width: 0.8"/>
      </g>
     </g>
     <g id="text_18">
      <!-- 300 -->
      <g transform="translate(363.033002 319.042187)scale(0.1 -0.1)">
       <defs>
        <path id="DejaVuSans-33" d="M 2597 2516 
Q 3050 2419 3304 2112 
Q 3559 1806 3559 1356 
Q 3559 666 3084 287 
Q 2609 -91 1734 -91 
Q 1441 -91 1130 -33 
Q 819 25 488 141 
L 488 750 
Q 750 597 1062 519 
Q 1375 441 1716 441 
Q 2309 441 2620 675 
Q 2931 909 2931 1356 
Q 2931 1769 2642 2001 
Q 2353 2234 1838 2234 
L 1294 2234 
L 1294 2753 
L 1863 2753 
Q 2328 2753 2575 2939 
Q 2822 3125 2822 3475 
Q 2822 3834 2567 4026 
Q 2313 4219 1838 4219 
Q 1578 4219 1281 4162 
Q 984 4106 628 3988 
L 628 4550 
Q 988 4650 1302 4700 
Q 1616 4750 1894 4750 
Q 2613 4750 3031 4423 
Q 3450 4097 3450 3541 
Q 3450 3153 3228 2886 
Q 3006 2619 2597 2516 
z
" transform="scale(0.015625)"/>
       </defs>
       <use xlink:href="#DejaVuSans-33"/>
       <use xlink:href="#DejaVuSans-30" x="63.623047"/>
       <use xlink:href="#DejaVuSans-30" x="127.246094"/>
      </g>
     </g>
    </g>
    <g id="xtick_16">
     <g id="line2d_49">
      <path d="M 422.207039 304.44375 
L 422.207039 191.096875 
" clip-path="url(#p74a8995d3d)" style="fill: none; stroke: #b0b0b0; stroke-width: 0.8; stroke-linecap: square"/>
     </g>
     <g id="line2d_50">
      <g>
       <use xlink:href="#me5805b5f5b" x="422.207039" y="304.44375" style="stroke: #000000; stroke-width: 0.8"/>
      </g>
     </g>
     <g id="text_19">
      <!-- 350 -->
      <g transform="translate(412.663289 319.042187)scale(0.1 -0.1)">
       <use xlink:href="#DejaVuSans-33"/>
       <use xlink:href="#DejaVuSans-35" x="63.623047"/>
       <use xlink:href="#DejaVuSans-30" x="127.246094"/>
      </g>
     </g>
    </g>
    <g id="text_20">
     <!-- Translational Position [mm] -->
     <g transform="translate(185.486719 332.720312)scale(0.1 -0.1)">
      <defs>
       <path id="DejaVuSans-54" d="M -19 4666 
L 3928 4666 
L 3928 4134 
L 2272 4134 
L 2272 0 
L 1638 0 
L 1638 4134 
L -19 4134 
L -19 4666 
z
" transform="scale(0.015625)"/>
       <path id="DejaVuSans-73" d="M 2834 3397 
L 2834 2853 
Q 2591 2978 2328 3040 
Q 2066 3103 1784 3103 
Q 1356 3103 1142 2972 
Q 928 2841 928 2578 
Q 928 2378 1081 2264 
Q 1234 2150 1697 2047 
L 1894 2003 
Q 2506 1872 2764 1633 
Q 3022 1394 3022 966 
Q 3022 478 2636 193 
Q 2250 -91 1575 -91 
Q 1294 -91 989 -36 
Q 684 19 347 128 
L 347 722 
Q 666 556 975 473 
Q 1284 391 1588 391 
Q 1994 391 2212 530 
Q 2431 669 2431 922 
Q 2431 1156 2273 1281 
Q 2116 1406 1581 1522 
L 1381 1569 
Q 847 1681 609 1914 
Q 372 2147 372 2553 
Q 372 3047 722 3315 
Q 1072 3584 1716 3584 
Q 2034 3584 2315 3537 
Q 2597 3491 2834 3397 
z
" transform="scale(0.015625)"/>
       <path id="DejaVuSans-50" d="M 1259 4147 
L 1259 2394 
L 2053 2394 
Q 2494 2394 2734 2622 
Q 2975 2850 2975 3272 
Q 2975 3691 2734 3919 
Q 2494 4147 2053 4147 
L 1259 4147 
z
M 628 4666 
L 2053 4666 
Q 2838 4666 3239 4311 
Q 3641 3956 3641 3272 
Q 3641 2581 3239 2228 
Q 2838 1875 2053 1875 
L 1259 1875 
L 1259 0 
L 628 0 
L 628 4666 
z
" transform="scale(0.015625)"/>
       <path id="DejaVuSans-5b" d="M 550 4863 
L 1875 4863 
L 1875 4416 
L 1125 4416 
L 1125 -397 
L 1875 -397 
L 1875 -844 
L 550 -844 
L 550 4863 
z
" transform="scale(0.015625)"/>
       <path id="DejaVuSans-6d" d="M 3328 2828 
Q 3544 3216 3844 3400 
Q 4144 3584 4550 3584 
Q 5097 3584 5394 3201 
Q 5691 2819 5691 2113 
L 5691 0 
L 5113 0 
L 5113 2094 
Q 5113 2597 4934 2840 
Q 4756 3084 4391 3084 
Q 3944 3084 3684 2787 
Q 3425 2491 3425 1978 
L 3425 0 
L 2847 0 
L 2847 2094 
Q 2847 2600 2669 2842 
Q 2491 3084 2119 3084 
Q 1678 3084 1418 2786 
Q 1159 2488 1159 1978 
L 1159 0 
L 581 0 
L 581 3500 
L 1159 3500 
L 1159 2956 
Q 1356 3278 1631 3431 
Q 1906 3584 2284 3584 
Q 2666 3584 2933 3390 
Q 3200 3197 3328 2828 
z
" transform="scale(0.015625)"/>
       <path id="DejaVuSans-5d" d="M 1947 4863 
L 1947 -844 
L 622 -844 
L 622 -397 
L 1369 -397 
L 1369 4416 
L 622 4416 
L 622 4863 
L 1947 4863 
z
" transform="scale(0.015625)"/>
      </defs>
      <use xlink:href="#DejaVuSans-54"/>
      <use xlink:href="#DejaVuSans-72" x="46.333984"/>
      <use xlink:href="#DejaVuSans-61" x="87.447266"/>
      <use xlink:href="#DejaVuSans-6e" x="148.726562"/>
      <use xlink:href="#DejaVuSans-73" x="212.105469"/>
      <use xlink:href="#DejaVuSans-6c" x="264.205078"/>
      <use xlink:href="#DejaVuSans-61" x="291.988281"/>
      <use xlink:href="#DejaVuSans-74" x="353.267578"/>
      <use xlink:href="#DejaVuSans-69" x="392.476562"/>
      <use xlink:href="#DejaVuSans-6f" x="420.259766"/>
      <use xlink:href="#DejaVuSans-6e" x="481.441406"/>
      <use xlink:href="#DejaVuSans-61" x="544.820312"/>
      <use xlink:href="#DejaVuSans-6c" x="606.099609"/>
      <use xlink:href="#DejaVuSans-20" x="633.882812"/>
      <use xlink:href="#DejaVuSans-50" x="665.669922"/>
      <use xlink:href="#DejaVuSans-6f" x="722.347656"/>
      <use xlink:href="#DejaVuSans-73" x="783.529297"/>
      <use xlink:href="#DejaVuSans-69" x="835.628906"/>
      <use xlink:href="#DejaVuSans-74" x="863.412109"/>
      <use xlink:href="#DejaVuSans-69" x="902.621094"/>
      <use xlink:href="#DejaVuSans-6f" x="930.404297"/>
      <use xlink:href="#DejaVuSans-6e" x="991.585938"/>
      <use xlink:href="#DejaVuSans-20" x="1054.964844"/>
      <use xlink:href="#DejaVuSans-5b" x="1086.751953"/>
      <use xlink:href="#DejaVuSans-6d" x="1125.765625"/>
      <use xlink:href="#DejaVuSans-6d" x="1223.177734"/>
      <use xlink:href="#DejaVuSans-5d" x="1320.589844"/>
     </g>
    </g>
   </g>
   <g id="matplotlib.axis_4">
    <g id="ytick_6">
     <g id="line2d_51">
      <path d="M 56.928125 290.943725 
L 450 290.943725 
" clip-path="url(#p74a8995d3d)" style="fill: none; stroke: #b0b0b0; stroke-width: 0.8; stroke-linecap: square"/>
     </g>
     <g id="line2d_52">
      <g>
       <use xlink:href="#mbc27f9bbb4" x="56.928125" y="290.943725" style="stroke: #000000; stroke-width: 0.8"/>
      </g>
     </g>
     <g id="text_21">
      <!-- 0 -->
      <g transform="translate(43.565625 294.742944)scale(0.1 -0.1)">
       <use xlink:href="#DejaVuSans-30"/>
      </g>
     </g>
    </g>
    <g id="ytick_7">
     <g id="line2d_53">
      <path d="M 56.928125 266.540385 
L 450 266.540385 
" clip-path="url(#p74a8995d3d)" style="fill: none; stroke: #b0b0b0; stroke-width: 0.8; stroke-linecap: square"/>
     </g>
     <g id="line2d_54">
      <g>
       <use xlink:href="#mbc27f9bbb4" x="56.928125" y="266.540385" style="stroke: #000000; stroke-width: 0.8"/>
      </g>
     </g>
     <g id="text_22">
      <!-- 25 -->
      <g transform="translate(37.203125 270.339604)scale(0.1 -0.1)">
       <use xlink:href="#DejaVuSans-32"/>
       <use xlink:href="#DejaVuSans-35" x="63.623047"/>
      </g>
     </g>
    </g>
    <g id="ytick_8">
     <g id="line2d_55">
      <path d="M 56.928125 242.137046 
L 450 242.137046 
" clip-path="url(#p74a8995d3d)" style="fill: none; stroke: #b0b0b0; stroke-width: 0.8; stroke-linecap: square"/>
     </g>
     <g id="line2d_56">
      <g>
       <use xlink:href="#mbc27f9bbb4" x="56.928125" y="242.137046" style="stroke: #000000; stroke-width: 0.8"/>
      </g>
     </g>
     <g id="text_23">
      <!-- 50 -->
      <g transform="translate(37.203125 245.936264)scale(0.1 -0.1)">
       <use xlink:href="#DejaVuSans-35"/>
       <use xlink:href="#DejaVuSans-30" x="63.623047"/>
      </g>
     </g>
    </g>
    <g id="ytick_9">
     <g id="line2d_57">
      <path d="M 56.928125 217.733706 
L 450 217.733706 
" clip-path="url(#p74a8995d3d)" style="fill: none; stroke: #b0b0b0; stroke-width: 0.8; stroke-linecap: square"/>
     </g>
     <g id="line2d_58">
      <g>
       <use xlink:href="#mbc27f9bbb4" x="56.928125" y="217.733706" style="stroke: #000000; stroke-width: 0.8"/>
      </g>
     </g>
     <g id="text_24">
      <!-- 75 -->
      <g transform="translate(37.203125 221.532925)scale(0.1 -0.1)">
       <use xlink:href="#DejaVuSans-37"/>
       <use xlink:href="#DejaVuSans-35" x="63.623047"/>
      </g>
     </g>
    </g>
    <g id="ytick_10">
     <g id="line2d_59">
      <path d="M 56.928125 193.330366 
L 450 193.330366 
" clip-path="url(#p74a8995d3d)" style="fill: none; stroke: #b0b0b0; stroke-width: 0.8; stroke-linecap: square"/>
     </g>
     <g id="line2d_60">
      <g>
       <use xlink:href="#mbc27f9bbb4" x="56.928125" y="193.330366" style="stroke: #000000; stroke-width: 0.8"/>
      </g>
     </g>
     <g id="text_25">
      <!-- 100 -->
      <g transform="translate(30.840625 197.129585)scale(0.1 -0.1)">
       <use xlink:href="#DejaVuSans-31"/>
       <use xlink:href="#DejaVuSans-30" x="63.623047"/>
       <use xlink:href="#DejaVuSans-30" x="127.246094"/>
      </g>
     </g>
    </g>
    <g id="text_26">
     <!-- wall distance [mm] -->
     <g transform="translate(24.760938 295.708594)rotate(-90)scale(0.1 -0.1)">
      <use xlink:href="#DejaVuSans-77"/>
      <use xlink:href="#DejaVuSans-61" x="81.787109"/>
      <use xlink:href="#DejaVuSans-6c" x="143.066406"/>
      <use xlink:href="#DejaVuSans-6c" x="170.849609"/>
      <use xlink:href="#DejaVuSans-20" x="198.632812"/>
      <use xlink:href="#DejaVuSans-64" x="230.419922"/>
      <use xlink:href="#DejaVuSans-69" x="293.896484"/>
      <use xlink:href="#DejaVuSans-73" x="321.679688"/>
      <use xlink:href="#DejaVuSans-74" x="373.779297"/>
      <use xlink:href="#DejaVuSans-61" x="412.988281"/>
      <use xlink:href="#DejaVuSans-6e" x="474.267578"/>
      <use xlink:href="#DejaVuSans-63" x="537.646484"/>
      <use xlink:href="#DejaVuSans-65" x="592.626953"/>
      <use xlink:href="#DejaVuSans-20" x="654.150391"/>
      <use xlink:href="#DejaVuSans-5b" x="685.9375"/>
      <use xlink:href="#DejaVuSans-6d" x="724.951172"/>
      <use xlink:href="#DejaVuSans-6d" x="822.363281"/>
      <use xlink:href="#DejaVuSans-5d" x="919.775391"/>
     </g>
    </g>
   </g>
   <g id="line2d_61">
    <path d="M 74.795028 211.789052 
L 95.78864 211.789052 
L 96.354425 229.252082 
L 96.92021 229.252082 
L 97.485996 245.026401 
L 98.061707 245.026401 
L 98.637418 246.715112 
L 99.223056 246.715112 
L 99.798767 249.526377 
L 100.384405 253.762797 
L 100.970042 255.041532 
L 101.555679 255.041532 
L 102.151243 258.867975 
L 102.746806 260.546925 
L 103.332444 260.546925 
L 103.928007 262.713942 
L 104.52357 263.973154 
L 105.119134 264.939526 
L 105.714697 264.939526 
L 106.310261 266.823464 
L 106.905824 266.823464 
L 107.501388 268.190051 
L 108.096951 268.190051 
L 108.692515 270.171602 
L 109.288078 270.171602 
L 109.883641 271.772461 
L 110.479205 271.772461 
L 111.074768 273.29523 
L 111.670332 273.29523 
L 112.265895 274.300647 
L 112.861459 275.55986 
L 113.457022 275.55986 
L 114.052586 276.985015 
L 114.648149 277.678069 
L 115.243713 278.654203 
L 115.839276 278.654203 
L 116.434839 280.176971 
L 117.030403 280.82122 
L 118.817093 283.119038 
L 123.581601 289.126164 
L 124.177164 289.787007 
L 124.772728 290.681828 
L 125.963855 291.957928 
L 126.559418 291.957928 
L 127.154981 293.176142 
L 131.323926 296.705841 
L 132.515052 297.554102 
L 135.49287 299.206696 
L 136.683997 299.291619 
L 137.875124 299.291619 
L 138.470687 299.0593 
L 139.661814 297.651715 
L 140.257377 296.97135 
L 141.448504 294.781882 
L 142.639631 291.539557 
L 143.235195 289.394601 
L 143.830758 289.394601 
L 144.426321 284.086386 
L 145.021885 284.086386 
L 145.617448 275.716041 
L 146.213012 275.716041 
L 146.808575 260.010052 
L 147.404139 260.010052 
L 147.999702 211.789052 
L 192.121027 211.789052 
L 192.716591 234.357261 
L 193.312154 234.357261 
L 193.907718 241.990626 
L 195.098845 252.825708 
L 196.885535 259.736734 
L 197.481098 260.810481 
L 198.076662 262.26492 
L 199.267789 265.827808 
L 201.054479 269.283321 
L 201.650043 270.88418 
L 202.245606 271.557712 
L 203.436733 273.939478 
L 204.032296 274.730146 
L 204.62786 275.872222 
L 205.223423 275.872222 
L 205.818987 277.746399 
L 206.41455 278.400408 
L 208.10198 280.772413 
L 208.697543 281.336618 
L 209.293107 282.21221 
L 209.88867 282.673921 
L 211.675361 284.872174 
L 212.270924 285.393429 
L 212.866488 286.172384 
L 214.057614 287.350577 
L 214.653178 288.167601 
L 215.248741 288.167601 
L 215.844305 288.767923 
L 216.439868 290.217481 
L 220.013249 294.323099 
L 221.799939 295.987407 
L 222.395503 295.987407 
L 222.991066 296.854214 
L 223.58663 297.216359 
L 224.182193 297.216359 
L 224.777756 298.085118 
L 225.37332 298.335985 
L 225.968883 298.335985 
L 227.16001 298.708868 
L 227.755574 298.708868 
L 228.351137 298.414075 
L 228.946701 298.414075 
L 229.542264 297.442822 
L 230.137827 297.442822 
L 230.733391 295.489579 
L 231.328954 295.489579 
L 231.924518 292.67441 
L 232.520081 292.67441 
L 233.115645 288.399921 
L 233.711208 288.399921 
L 234.306772 285.753623 
L 234.902335 277.404752 
L 235.497899 277.404752 
L 236.093462 271.225826 
L 236.689025 225.630627 
L 237.284589 225.630627 
L 237.880152 211.789052 
L 278.97403 211.789052 
L 279.569594 232.063347 
L 280.165157 239.46244 
L 280.76072 244.099074 
L 281.356284 247.476496 
L 281.951847 247.476496 
L 283.738538 259.736734 
L 284.334101 260.810481 
L 284.929665 260.810481 
L 285.525228 263.572939 
L 286.120792 263.572939 
L 286.716355 266.003512 
L 287.311918 266.50134 
L 288.503045 267.897211 
L 289.098609 269.146662 
L 289.694172 269.673774 
L 290.289736 269.673774 
L 292.076426 272.406948 
L 292.671989 274.124943 
L 293.267553 274.564203 
L 293.863116 275.481769 
L 294.45868 276.106494 
L 295.649807 277.883058 
L 297.436497 279.952461 
L 298.03206 280.82122 
L 298.627624 281.43716 
L 299.223187 281.43716 
L 299.818751 282.85353 
L 302.201005 285.611107 
L 302.796568 285.611107 
L 303.392131 286.840059 
L 303.987695 286.840059 
L 304.583258 288.138317 
L 305.178822 288.138317 
L 305.774385 289.288202 
L 306.369949 289.288202 
L 306.965512 290.753574 
L 311.73002 295.439796 
L 312.325583 295.439796 
L 312.921147 296.283176 
L 313.51671 296.283176 
L 314.112274 296.97135 
L 314.707837 296.97135 
L 315.3034 297.329591 
L 315.898964 297.329591 
L 316.494527 297.173409 
L 317.090091 297.173409 
L 317.685654 296.82493 
L 318.281218 295.424178 
L 318.876781 294.376787 
L 319.472345 294.376787 
L 320.067908 291.517203 
L 320.663471 291.517203 
L 321.259035 287.444286 
L 321.854598 284.947336 
L 323.045725 278.009955 
L 323.641289 272.709549 
L 324.236852 272.709549 
L 324.832416 253.762797 
L 325.427979 253.762797 
L 326.023542 211.789052 
L 367.712984 211.789052 
L 368.308547 229.252082 
L 368.904111 234.357261 
L 369.499674 234.357261 
L 370.095238 245.026401 
L 370.690801 245.904921 
L 371.286364 245.904921 
L 371.881928 246.715112 
L 372.477491 255.041532 
L 373.073055 255.041532 
L 373.668618 259.160815 
L 374.264182 259.160815 
L 374.859745 261.318071 
L 375.455309 261.318071 
L 376.050872 263.153202 
L 376.646435 263.153202 
L 377.241999 265.486161 
L 377.837562 265.486161 
L 378.433126 267.145588 
L 379.028689 267.145588 
L 379.624253 269.79091 
L 380.219816 269.79091 
L 380.81538 271.557712 
L 381.410943 271.557712 
L 382.006506 273.197616 
L 382.60207 273.197616 
L 384.38876 276.106494 
L 384.984324 276.106494 
L 386.175451 278.585874 
L 386.771014 279.200838 
L 387.366577 279.200838 
L 387.962141 280.82122 
L 388.557704 280.82122 
L 389.153268 282.118501 
L 389.748831 282.537262 
L 390.344395 282.537262 
L 390.939958 284.086386 
L 391.535522 284.086386 
L 392.131085 284.718921 
L 392.726649 286.240713 
L 393.322212 287.224656 
L 395.704466 289.965639 
L 396.300029 290.681828 
L 396.895593 290.681828 
L 397.491156 291.914978 
L 398.08672 291.914978 
L 399.277846 292.977987 
L 399.87341 294.013665 
L 400.468973 294.013665 
L 401.064537 294.677436 
L 401.6601 295.005417 
L 402.255664 295.190882 
L 402.851227 295.190882 
L 404.042354 295.506173 
L 405.233481 295.27483 
L 406.424608 294.817023 
L 407.020171 294.376787 
L 408.211298 293.077553 
L 408.806862 292.194152 
L 409.303164 290.989886 
L 409.898728 290.989886 
L 410.494291 288.196885 
L 411.089855 286.544291 
L 411.586158 286.544291 
L 412.181721 281.635315 
L 412.678024 279.015372 
L 413.273587 274.652055 
L 413.76989 274.652055 
L 414.365454 260.546925 
L 414.861757 260.546925 
L 415.35806 211.789052 
L 432.133097 211.789052 
L 432.133097 211.789052 
" clip-path="url(#p74a8995d3d)" style="fill: none; stroke: #1f77b4; stroke-width: 1.5; stroke-linecap: square"/>
   </g>
   <g id="line2d_62">
    <path d="M 74.795028 199.226213 
L 417.938834 199.226213 
L 418.435137 237.56874 
L 418.83218 237.56874 
L 419.328482 234.913657 
L 419.824785 234.913657 
L 420.221828 242.478692 
L 420.718131 242.478692 
L 421.115173 199.226213 
L 422.802603 199.226213 
L 423.199645 247.984086 
L 424.291511 247.984086 
L 424.688554 247.447212 
L 424.986335 247.447212 
L 425.383378 199.226213 
L 426.574504 199.226213 
L 426.872286 245.045924 
L 427.170068 245.045924 
L 427.46785 246.002535 
L 427.765631 246.002535 
L 427.964152 245.045924 
L 428.261934 245.045924 
L 428.460455 199.226213 
L 429.353801 199.226213 
L 429.552322 247.984086 
L 429.750843 247.984086 
L 430.048625 247.72053 
L 430.247146 247.984086 
L 430.544927 199.226213 
L 431.04123 199.226213 
L 431.239751 247.984086 
L 431.438273 249.702081 
L 431.636794 199.226213 
L 431.835315 199.226213 
L 431.835315 251.605541 
L 431.934575 251.605541 
L 432.133097 199.226213 
L 432.133097 199.226213 
L 432.133097 254.572987 
L 432.133097 199.226213 
" clip-path="url(#p74a8995d3d)" style="fill: none; stroke: #ff7f0e; stroke-width: 1.5; stroke-linecap: square"/>
   </g>
   <g id="line2d_63">
    <path d="M 74.795028 196.249006 
L 412.181721 196.249006 
L 412.678024 227.543848 
L 413.273587 236.787834 
L 413.76989 236.787834 
L 414.365454 245.006878 
L 414.861757 245.006878 
L 415.35806 231.926688 
L 415.854362 196.249006 
L 417.938834 196.249006 
L 418.435137 218.817214 
L 418.83218 218.817214 
L 419.328482 235.177213 
L 419.824785 235.177213 
L 420.221828 238.212989 
L 420.718131 238.212989 
L 421.115173 196.249006 
L 422.802603 196.249006 
L 423.199645 233.976569 
L 423.596687 233.976569 
L 423.993729 246.715112 
L 424.291511 246.715112 
L 424.688554 244.196687 
L 424.986335 244.196687 
L 425.383378 242.712964 
L 425.681159 196.249006 
L 426.574504 196.249006 
L 426.872286 245.260673 
L 427.170068 245.260673 
L 427.46785 246.715112 
L 427.765631 246.715112 
L 427.964152 252.347403 
L 428.261934 252.347403 
L 428.460455 196.249006 
L 429.353801 196.249006 
L 429.552322 248.228119 
L 429.750843 248.228119 
L 430.048625 251.439599 
L 430.247146 251.439599 
L 430.544927 196.249006 
L 431.04123 196.249006 
L 431.239751 251.439599 
L 431.438273 239.081747 
L 431.636794 196.249006 
L 431.835315 196.249006 
L 431.934575 252.786663 
L 431.934575 252.786663 
L 432.033836 249.575184 
L 432.033836 196.249006 
L 432.133097 254.494897 
L 432.133097 220.75972 
" clip-path="url(#p74a8995d3d)" style="fill: none; stroke: #2ca02c; stroke-width: 1.5; stroke-linecap: square"/>
   </g>
   <g id="line2d_64">
    <path d="M 74.795028 213.331343 
L 113.457022 213.331343 
L 114.052586 227.172918 
L 114.648149 227.172918 
L 115.243713 222.067739 
L 115.839276 222.067739 
L 116.434839 213.331343 
L 202.84117 213.331343 
L 203.436733 222.067739 
L 204.032296 233.605638 
L 204.62786 237.842058 
L 205.223423 237.842058 
L 205.818987 245.641365 
L 206.41455 247.447212 
L 207.010114 248.257403 
L 207.605677 250.42442 
L 208.10198 249.741126 
L 208.697543 251.683632 
L 209.293107 251.683632 
L 209.88867 249.741126 
L 210.484234 248.257403 
L 211.079797 248.257403 
L 211.675361 245.641365 
L 212.270924 237.842058 
L 212.866488 222.067739 
L 213.462051 213.331343 
L 290.885299 213.331343 
L 291.480863 233.605638 
L 292.076426 235.899552 
L 292.671989 247.447212 
L 293.267553 248.257403 
L 293.863116 249.741126 
L 294.45868 250.42442 
L 295.054243 253.879933 
L 295.649807 251.683632 
L 296.24537 254.846305 
L 296.840934 255.744348 
L 297.436497 256.173847 
L 298.03206 256.173847 
L 298.627624 256.984037 
L 299.223187 256.984037 
L 299.818751 255.305088 
L 300.414314 252.269312 
L 301.605441 248.257403 
L 302.796568 248.257403 
L 303.392131 233.605638 
L 303.987695 233.605638 
L 304.583258 213.331343 
L 379.028689 213.331343 
L 379.624253 230.794373 
L 380.219816 230.794373 
L 380.81538 245.641365 
L 381.410943 245.641365 
L 382.006506 249.741126 
L 382.60207 249.741126 
L 384.38876 255.305088 
L 384.984324 255.305088 
L 385.579887 257.374491 
L 386.175451 260.107665 
L 386.771014 260.410266 
L 387.366577 260.410266 
L 387.962141 261.279025 
L 388.557704 261.279025 
L 389.153268 261.562104 
L 389.748831 259.473178 
L 390.344395 259.473178 
L 390.939958 259.151054 
L 391.535522 259.151054 
L 392.131085 256.984037 
L 392.726649 253.362582 
L 393.322212 254.367999 
L 394.513339 248.257403 
L 395.108902 247.447212 
L 396.300029 213.331343 
L 432.133097 213.331343 
L 432.133097 213.331343 
" clip-path="url(#p74a8995d3d)" style="fill: none; stroke: #d62728; stroke-width: 1.5; stroke-linecap: square"/>
   </g>
   <g id="patch_9">
    <path d="M 56.928125 304.44375 
L 56.928125 191.096875 
" style="fill: none; stroke: #000000; stroke-width: 0.8; stroke-linejoin: miter; stroke-linecap: square"/>
   </g>
   <g id="patch_10">
    <path d="M 450 304.44375 
L 450 191.096875 
" style="fill: none; stroke: #000000; stroke-width: 0.8; stroke-linejoin: miter; stroke-linecap: square"/>
   </g>
   <g id="patch_11">
    <path d="M 56.928125 304.44375 
L 450 304.44375 
" style="fill: none; stroke: #000000; stroke-width: 0.8; stroke-linejoin: miter; stroke-linecap: square"/>
   </g>
   <g id="patch_12">
    <path d="M 56.928125 191.096875 
L 450 191.096875 
" style="fill: none; stroke: #000000; stroke-width: 0.8; stroke-linejoin: miter; stroke-linecap: square"/>
   </g>
   <g id="text_27">
    <!-- Wall Distance [mm] -->
    <g transform="translate(194.484062 185.096875)scale(0.12 -0.12)">
     <defs>
      <path id="DejaVuSans-57" d="M 213 4666 
L 850 4666 
L 1831 722 
L 2809 4666 
L 3519 4666 
L 4500 722 
L 5478 4666 
L 6119 4666 
L 4947 0 
L 4153 0 
L 3169 4050 
L 2175 0 
L 1381 0 
L 213 4666 
z
" transform="scale(0.015625)"/>
      <path id="DejaVuSans-44" d="M 1259 4147 
L 1259 519 
L 2022 519 
Q 2988 519 3436 956 
Q 3884 1394 3884 2338 
Q 3884 3275 3436 3711 
Q 2988 4147 2022 4147 
L 1259 4147 
z
M 628 4666 
L 1925 4666 
Q 3281 4666 3915 4102 
Q 4550 3538 4550 2338 
Q 4550 1131 3912 565 
Q 3275 0 1925 0 
L 628 0 
L 628 4666 
z
" transform="scale(0.015625)"/>
     </defs>
     <use xlink:href="#DejaVuSans-57"/>
     <use xlink:href="#DejaVuSans-61" x="92.501953"/>
     <use xlink:href="#DejaVuSans-6c" x="153.78125"/>
     <use xlink:href="#DejaVuSans-6c" x="181.564453"/>
     <use xlink:href="#DejaVuSans-20" x="209.347656"/>
     <use xlink:href="#DejaVuSans-44" x="241.134766"/>
     <use xlink:href="#DejaVuSans-69" x="318.136719"/>
     <use xlink:href="#DejaVuSans-73" x="345.919922"/>
     <use xlink:href="#DejaVuSans-74" x="398.019531"/>
     <use xlink:href="#DejaVuSans-61" x="437.228516"/>
     <use xlink:href="#DejaVuSans-6e" x="498.507812"/>
     <use xlink:href="#DejaVuSans-63" x="561.886719"/>
     <use xlink:href="#DejaVuSans-65" x="616.867188"/>
     <use xlink:href="#DejaVuSans-20" x="678.390625"/>
     <use xlink:href="#DejaVuSans-5b" x="710.177734"/>
     <use xlink:href="#DejaVuSans-6d" x="749.191406"/>
     <use xlink:href="#DejaVuSans-6d" x="846.603516"/>
     <use xlink:href="#DejaVuSans-5d" x="944.015625"/>
    </g>
   </g>
   <g id="legend_2">
    <g id="patch_13">
     <path d="M 219.75625 278.626562 
L 287.171875 278.626562 
Q 289.171875 278.626562 289.171875 276.626562 
L 289.171875 218.914062 
Q 289.171875 216.914062 287.171875 216.914062 
L 219.75625 216.914062 
Q 217.75625 216.914062 217.75625 218.914062 
L 217.75625 276.626562 
Q 217.75625 278.626562 219.75625 278.626562 
z
" style="fill: #ffffff; opacity: 0.8; stroke: #cccccc; stroke-linejoin: miter"/>
    </g>
    <g id="line2d_65">
     <path d="M 221.75625 225.0125 
L 231.75625 225.0125 
L 241.75625 225.0125 
" style="fill: none; stroke: #1f77b4; stroke-width: 1.5; stroke-linecap: square"/>
    </g>
    <g id="text_28">
     <!-- L Side -->
     <g transform="translate(249.75625 228.5125)scale(0.1 -0.1)">
      <use xlink:href="#DejaVuSans-4c"/>
      <use xlink:href="#DejaVuSans-20" x="55.712891"/>
      <use xlink:href="#DejaVuSans-53" x="87.5"/>
      <use xlink:href="#DejaVuSans-69" x="150.976562"/>
      <use xlink:href="#DejaVuSans-64" x="178.759766"/>
      <use xlink:href="#DejaVuSans-65" x="242.236328"/>
     </g>
    </g>
    <g id="line2d_66">
     <path d="M 221.75625 239.690625 
L 231.75625 239.690625 
L 241.75625 239.690625 
" style="fill: none; stroke: #ff7f0e; stroke-width: 1.5; stroke-linecap: square"/>
    </g>
    <g id="text_29">
     <!-- L Front -->
     <g transform="translate(249.75625 243.190625)scale(0.1 -0.1)">
      <use xlink:href="#DejaVuSans-4c"/>
      <use xlink:href="#DejaVuSans-20" x="55.712891"/>
      <use xlink:href="#DejaVuSans-46" x="87.5"/>
      <use xlink:href="#DejaVuSans-72" x="137.769531"/>
      <use xlink:href="#DejaVuSans-6f" x="176.632812"/>
      <use xlink:href="#DejaVuSans-6e" x="237.814453"/>
      <use xlink:href="#DejaVuSans-74" x="301.193359"/>
     </g>
    </g>
    <g id="line2d_67">
     <path d="M 221.75625 254.36875 
L 231.75625 254.36875 
L 241.75625 254.36875 
" style="fill: none; stroke: #2ca02c; stroke-width: 1.5; stroke-linecap: square"/>
    </g>
    <g id="text_30">
     <!-- R Front -->
     <g transform="translate(249.75625 257.86875)scale(0.1 -0.1)">
      <use xlink:href="#DejaVuSans-52"/>
      <use xlink:href="#DejaVuSans-20" x="69.482422"/>
      <use xlink:href="#DejaVuSans-46" x="101.269531"/>
      <use xlink:href="#DejaVuSans-72" x="151.539062"/>
      <use xlink:href="#DejaVuSans-6f" x="190.402344"/>
      <use xlink:href="#DejaVuSans-6e" x="251.583984"/>
      <use xlink:href="#DejaVuSans-74" x="314.962891"/>
     </g>
    </g>
    <g id="line2d_68">
     <path d="M 221.75625 269.046875 
L 231.75625 269.046875 
L 241.75625 269.046875 
" style="fill: none; stroke: #d62728; stroke-width: 1.5; stroke-linecap: square"/>
    </g>
    <g id="text_31">
     <!-- R Side -->
     <g transform="translate(249.75625 272.546875)scale(0.1 -0.1)">
      <use xlink:href="#DejaVuSans-52"/>
      <use xlink:href="#DejaVuSans-20" x="69.482422"/>
      <use xlink:href="#DejaVuSans-53" x="101.269531"/>
      <use xlink:href="#DejaVuSans-69" x="164.746094"/>
      <use xlink:href="#DejaVuSans-64" x="192.529297"/>
      <use xlink:href="#DejaVuSans-65" x="256.005859"/>
     </g>
    </g>
   </g>
  </g>
  <g id="text_32">
   <!-- Reflector Raw Value and Wall Distance -->
   <g transform="translate(114.835313 16.030125)scale(0.12 -0.12)">
    <use xlink:href="#DejaVuSans-52"/>
    <use xlink:href="#DejaVuSans-65" x="64.982422"/>
    <use xlink:href="#DejaVuSans-66" x="126.505859"/>
    <use xlink:href="#DejaVuSans-6c" x="161.710938"/>
    <use xlink:href="#DejaVuSans-65" x="189.494141"/>
    <use xlink:href="#DejaVuSans-63" x="251.017578"/>
    <use xlink:href="#DejaVuSans-74" x="305.998047"/>
    <use xlink:href="#DejaVuSans-6f" x="345.207031"/>
    <use xlink:href="#DejaVuSans-72" x="406.388672"/>
    <use xlink:href="#DejaVuSans-20" x="447.501953"/>
    <use xlink:href="#DejaVuSans-52" x="479.289062"/>
    <use xlink:href="#DejaVuSans-61" x="546.521484"/>
    <use xlink:href="#DejaVuSans-77" x="607.800781"/>
    <use xlink:href="#DejaVuSans-20" x="689.587891"/>
    <use xlink:href="#DejaVuSans-56" x="721.375"/>
    <use xlink:href="#DejaVuSans-61" x="782.033203"/>
    <use xlink:href="#DejaVuSans-6c" x="843.3125"/>
    <use xlink:href="#DejaVuSans-75" x="871.095703"/>
    <use xlink:href="#DejaVuSans-65" x="934.474609"/>
    <use xlink:href="#DejaVuSans-20" x="995.998047"/>
    <use xlink:href="#DejaVuSans-61" x="1027.785156"/>
    <use xlink:href="#DejaVuSans-6e" x="1089.064453"/>
    <use xlink:href="#DejaVuSans-64" x="1152.443359"/>
    <use xlink:href="#DejaVuSans-20" x="1215.919922"/>
    <use xlink:href="#DejaVuSans-57" x="1247.707031"/>
    <use xlink:href="#DejaVuSans-61" x="1340.208984"/>
    <use xlink:href="#DejaVuSans-6c" x="1401.488281"/>
    <use xlink:href="#DejaVuSans-6c" x="1429.271484"/>
    <use xlink:href="#DejaVuSans-20" x="1457.054688"/>
    <use xlink:href="#DejaVuSans-44" x="1488.841797"/>
    <use xlink:href="#DejaVuSans-69" x="1565.84375"/>
    <use xlink:href="#DejaVuSans-73" x="1593.626953"/>
    <use xlink:href="#DejaVuSans-74" x="1645.726562"/>
    <use xlink:href="#DejaVuSans-61" x="1684.935547"/>
    <use xlink:href="#DejaVuSans-6e" x="1746.214844"/>
    <use xlink:href="#DejaVuSans-63" x="1809.59375"/>
    <use xlink:href="#DejaVuSans-65" x="1864.574219"/>
   </g>
  </g>
 </g>
 <defs>
  <clipPath id="p6e410f9ce3">
   <rect x="56.928125" y="48.331875" width="393.071875" height="113.346875"/>
  </clipPath>
  <clipPath id="p74a8995d3d">
   <rect x="56.928125" y="191.096875" width="393.071875" height="113.346875"/>
  </clipPath>
 </defs>
</svg>
