<?xml version="1.0" encoding="utf-8" standalone="no"?>
<!DOCTYPE svg PUBLIC "-//W3C//DTD SVG 1.1//EN"
  "http://www.w3.org/Graphics/SVG/1.1/DTD/svg11.dtd">
<svg xmlns:xlink="http://www.w3.org/1999/xlink" width="460.8pt" height="345.6pt" viewBox="0 0 460.8 345.6" xmlns="http://www.w3.org/2000/svg" version="1.1">
 <metadata>
  <rdf:RDF xmlns:dc="http://purl.org/dc/elements/1.1/" xmlns:cc="http://creativecommons.org/ns#" xmlns:rdf="http://www.w3.org/1999/02/22-rdf-syntax-ns#">
   <cc:Work>
    <dc:type rdf:resource="http://purl.org/dc/dcmitype/StillImage"/>
    <dc:date>2022-01-16T02:34:12.385719</dc:date>
    <dc:format>image/svg+xml</dc:format>
    <dc:creator>
     <cc:Agent>
      <dc:title>Matplotlib v3.5.1, https://matplotlib.org/</dc:title>
     </cc:Agent>
    </dc:creator>
   </cc:Work>
  </rdf:RDF>
 </metadata>
 <defs>
  <style type="text/css">*{stroke-linejoin: round; stroke-linecap: butt}</style>
 </defs>
 <g id="figure_1">
  <g id="patch_1">
   <path d="M 0 345.6 
L 460.8 345.6 
L 460.8 0 
L 0 0 
z
" style="fill: #ffffff"/>
  </g>
  <g id="axes_1">
   <g id="patch_2">
    <path d="M 56.928125 161.67875 
L 450 161.67875 
L 450 48.331875 
L 56.928125 48.331875 
z
" style="fill: #ffffff"/>
   </g>
   <g id="matplotlib.axis_1">
    <g id="xtick_1">
     <g id="line2d_1">
      <path d="M 74.795028 161.67875 
L 74.795028 48.331875 
" clip-path="url(#p6c59c321be)" style="fill: none; stroke: #b0b0b0; stroke-width: 0.8; stroke-linecap: square"/>
     </g>
     <g id="line2d_2">
      <defs>
       <path id="m6fedeb76d0" d="M 0 0 
L 0 3.5 
" style="stroke: #000000; stroke-width: 0.8"/>
      </defs>
      <g>
       <use xlink:href="#m6fedeb76d0" x="74.795028" y="161.67875" style="stroke: #000000; stroke-width: 0.8"/>
      </g>
     </g>
    </g>
    <g id="xtick_2">
     <g id="line2d_3">
      <path d="M 154.203488 161.67875 
L 154.203488 48.331875 
" clip-path="url(#p6c59c321be)" style="fill: none; stroke: #b0b0b0; stroke-width: 0.8; stroke-linecap: square"/>
     </g>
     <g id="line2d_4">
      <g>
       <use xlink:href="#m6fedeb76d0" x="154.203488" y="161.67875" style="stroke: #000000; stroke-width: 0.8"/>
      </g>
     </g>
    </g>
    <g id="xtick_3">
     <g id="line2d_5">
      <path d="M 233.611948 161.67875 
L 233.611948 48.331875 
" clip-path="url(#p6c59c321be)" style="fill: none; stroke: #b0b0b0; stroke-width: 0.8; stroke-linecap: square"/>
     </g>
     <g id="line2d_6">
      <g>
       <use xlink:href="#m6fedeb76d0" x="233.611948" y="161.67875" style="stroke: #000000; stroke-width: 0.8"/>
      </g>
     </g>
    </g>
    <g id="xtick_4">
     <g id="line2d_7">
      <path d="M 313.020407 161.67875 
L 313.020407 48.331875 
" clip-path="url(#p6c59c321be)" style="fill: none; stroke: #b0b0b0; stroke-width: 0.8; stroke-linecap: square"/>
     </g>
     <g id="line2d_8">
      <g>
       <use xlink:href="#m6fedeb76d0" x="313.020407" y="161.67875" style="stroke: #000000; stroke-width: 0.8"/>
      </g>
     </g>
    </g>
    <g id="xtick_5">
     <g id="line2d_9">
      <path d="M 392.428867 161.67875 
L 392.428867 48.331875 
" clip-path="url(#p6c59c321be)" style="fill: none; stroke: #b0b0b0; stroke-width: 0.8; stroke-linecap: square"/>
     </g>
     <g id="line2d_10">
      <g>
       <use xlink:href="#m6fedeb76d0" x="392.428867" y="161.67875" style="stroke: #000000; stroke-width: 0.8"/>
      </g>
     </g>
    </g>
   </g>
   <g id="matplotlib.axis_2">
    <g id="ytick_1">
     <g id="line2d_11">
      <path d="M 56.928125 156.582958 
L 450 156.582958 
" clip-path="url(#p6c59c321be)" style="fill: none; stroke: #b0b0b0; stroke-width: 0.8; stroke-linecap: square"/>
     </g>
     <g id="line2d_12">
      <defs>
       <path id="m1c5ea39786" d="M 0 0 
L -3.5 0 
" style="stroke: #000000; stroke-width: 0.8"/>
      </defs>
      <g>
       <use xlink:href="#m1c5ea39786" x="56.928125" y="156.582958" style="stroke: #000000; stroke-width: 0.8"/>
      </g>
     </g>
     <g id="text_1">
      <!-- 0 -->
      <g transform="translate(43.565625 160.382176)scale(0.1 -0.1)">
       <defs>
        <path id="DejaVuSans-30" d="M 2034 4250 
Q 1547 4250 1301 3770 
Q 1056 3291 1056 2328 
Q 1056 1369 1301 889 
Q 1547 409 2034 409 
Q 2525 409 2770 889 
Q 3016 1369 3016 2328 
Q 3016 3291 2770 3770 
Q 2525 4250 2034 4250 
z
M 2034 4750 
Q 2819 4750 3233 4129 
Q 3647 3509 3647 2328 
Q 3647 1150 3233 529 
Q 2819 -91 2034 -91 
Q 1250 -91 836 529 
Q 422 1150 422 2328 
Q 422 3509 836 4129 
Q 1250 4750 2034 4750 
z
" transform="scale(0.015625)"/>
       </defs>
       <use xlink:href="#DejaVuSans-30"/>
      </g>
     </g>
    </g>
    <g id="ytick_2">
     <g id="line2d_13">
      <path d="M 56.928125 128.413845 
L 450 128.413845 
" clip-path="url(#p6c59c321be)" style="fill: none; stroke: #b0b0b0; stroke-width: 0.8; stroke-linecap: square"/>
     </g>
     <g id="line2d_14">
      <g>
       <use xlink:href="#m1c5ea39786" x="56.928125" y="128.413845" style="stroke: #000000; stroke-width: 0.8"/>
      </g>
     </g>
     <g id="text_2">
      <!-- 500 -->
      <g transform="translate(30.840625 132.213064)scale(0.1 -0.1)">
       <defs>
        <path id="DejaVuSans-35" d="M 691 4666 
L 3169 4666 
L 3169 4134 
L 1269 4134 
L 1269 2991 
Q 1406 3038 1543 3061 
Q 1681 3084 1819 3084 
Q 2600 3084 3056 2656 
Q 3513 2228 3513 1497 
Q 3513 744 3044 326 
Q 2575 -91 1722 -91 
Q 1428 -91 1123 -41 
Q 819 9 494 109 
L 494 744 
Q 775 591 1075 516 
Q 1375 441 1709 441 
Q 2250 441 2565 725 
Q 2881 1009 2881 1497 
Q 2881 1984 2565 2268 
Q 2250 2553 1709 2553 
Q 1456 2553 1204 2497 
Q 953 2441 691 2322 
L 691 4666 
z
" transform="scale(0.015625)"/>
       </defs>
       <use xlink:href="#DejaVuSans-35"/>
       <use xlink:href="#DejaVuSans-30" x="63.623047"/>
       <use xlink:href="#DejaVuSans-30" x="127.246094"/>
      </g>
     </g>
    </g>
    <g id="ytick_3">
     <g id="line2d_15">
      <path d="M 56.928125 100.244732 
L 450 100.244732 
" clip-path="url(#p6c59c321be)" style="fill: none; stroke: #b0b0b0; stroke-width: 0.8; stroke-linecap: square"/>
     </g>
     <g id="line2d_16">
      <g>
       <use xlink:href="#m1c5ea39786" x="56.928125" y="100.244732" style="stroke: #000000; stroke-width: 0.8"/>
      </g>
     </g>
     <g id="text_3">
      <!-- 1000 -->
      <g transform="translate(24.478125 104.043951)scale(0.1 -0.1)">
       <defs>
        <path id="DejaVuSans-31" d="M 794 531 
L 1825 531 
L 1825 4091 
L 703 3866 
L 703 4441 
L 1819 4666 
L 2450 4666 
L 2450 531 
L 3481 531 
L 3481 0 
L 794 0 
L 794 531 
z
" transform="scale(0.015625)"/>
       </defs>
       <use xlink:href="#DejaVuSans-31"/>
       <use xlink:href="#DejaVuSans-30" x="63.623047"/>
       <use xlink:href="#DejaVuSans-30" x="127.246094"/>
       <use xlink:href="#DejaVuSans-30" x="190.869141"/>
      </g>
     </g>
    </g>
    <g id="ytick_4">
     <g id="line2d_17">
      <path d="M 56.928125 72.07562 
L 450 72.07562 
" clip-path="url(#p6c59c321be)" style="fill: none; stroke: #b0b0b0; stroke-width: 0.8; stroke-linecap: square"/>
     </g>
     <g id="line2d_18">
      <g>
       <use xlink:href="#m1c5ea39786" x="56.928125" y="72.07562" style="stroke: #000000; stroke-width: 0.8"/>
      </g>
     </g>
     <g id="text_4">
      <!-- 1500 -->
      <g transform="translate(24.478125 75.874839)scale(0.1 -0.1)">
       <use xlink:href="#DejaVuSans-31"/>
       <use xlink:href="#DejaVuSans-35" x="63.623047"/>
       <use xlink:href="#DejaVuSans-30" x="127.246094"/>
       <use xlink:href="#DejaVuSans-30" x="190.869141"/>
      </g>
     </g>
    </g>
    <g id="text_5">
     <!-- reflector value -->
     <g transform="translate(18.398438 141.321719)rotate(-90)scale(0.1 -0.1)">
      <defs>
       <path id="DejaVuSans-72" d="M 2631 2963 
Q 2534 3019 2420 3045 
Q 2306 3072 2169 3072 
Q 1681 3072 1420 2755 
Q 1159 2438 1159 1844 
L 1159 0 
L 581 0 
L 581 3500 
L 1159 3500 
L 1159 2956 
Q 1341 3275 1631 3429 
Q 1922 3584 2338 3584 
Q 2397 3584 2469 3576 
Q 2541 3569 2628 3553 
L 2631 2963 
z
" transform="scale(0.015625)"/>
       <path id="DejaVuSans-65" d="M 3597 1894 
L 3597 1613 
L 953 1613 
Q 991 1019 1311 708 
Q 1631 397 2203 397 
Q 2534 397 2845 478 
Q 3156 559 3463 722 
L 3463 178 
Q 3153 47 2828 -22 
Q 2503 -91 2169 -91 
Q 1331 -91 842 396 
Q 353 884 353 1716 
Q 353 2575 817 3079 
Q 1281 3584 2069 3584 
Q 2775 3584 3186 3129 
Q 3597 2675 3597 1894 
z
M 3022 2063 
Q 3016 2534 2758 2815 
Q 2500 3097 2075 3097 
Q 1594 3097 1305 2825 
Q 1016 2553 972 2059 
L 3022 2063 
z
" transform="scale(0.015625)"/>
       <path id="DejaVuSans-66" d="M 2375 4863 
L 2375 4384 
L 1825 4384 
Q 1516 4384 1395 4259 
Q 1275 4134 1275 3809 
L 1275 3500 
L 2222 3500 
L 2222 3053 
L 1275 3053 
L 1275 0 
L 697 0 
L 697 3053 
L 147 3053 
L 147 3500 
L 697 3500 
L 697 3744 
Q 697 4328 969 4595 
Q 1241 4863 1831 4863 
L 2375 4863 
z
" transform="scale(0.015625)"/>
       <path id="DejaVuSans-6c" d="M 603 4863 
L 1178 4863 
L 1178 0 
L 603 0 
L 603 4863 
z
" transform="scale(0.015625)"/>
       <path id="DejaVuSans-63" d="M 3122 3366 
L 3122 2828 
Q 2878 2963 2633 3030 
Q 2388 3097 2138 3097 
Q 1578 3097 1268 2742 
Q 959 2388 959 1747 
Q 959 1106 1268 751 
Q 1578 397 2138 397 
Q 2388 397 2633 464 
Q 2878 531 3122 666 
L 3122 134 
Q 2881 22 2623 -34 
Q 2366 -91 2075 -91 
Q 1284 -91 818 406 
Q 353 903 353 1747 
Q 353 2603 823 3093 
Q 1294 3584 2113 3584 
Q 2378 3584 2631 3529 
Q 2884 3475 3122 3366 
z
" transform="scale(0.015625)"/>
       <path id="DejaVuSans-74" d="M 1172 4494 
L 1172 3500 
L 2356 3500 
L 2356 3053 
L 1172 3053 
L 1172 1153 
Q 1172 725 1289 603 
Q 1406 481 1766 481 
L 2356 481 
L 2356 0 
L 1766 0 
Q 1100 0 847 248 
Q 594 497 594 1153 
L 594 3053 
L 172 3053 
L 172 3500 
L 594 3500 
L 594 4494 
L 1172 4494 
z
" transform="scale(0.015625)"/>
       <path id="DejaVuSans-6f" d="M 1959 3097 
Q 1497 3097 1228 2736 
Q 959 2375 959 1747 
Q 959 1119 1226 758 
Q 1494 397 1959 397 
Q 2419 397 2687 759 
Q 2956 1122 2956 1747 
Q 2956 2369 2687 2733 
Q 2419 3097 1959 3097 
z
M 1959 3584 
Q 2709 3584 3137 3096 
Q 3566 2609 3566 1747 
Q 3566 888 3137 398 
Q 2709 -91 1959 -91 
Q 1206 -91 779 398 
Q 353 888 353 1747 
Q 353 2609 779 3096 
Q 1206 3584 1959 3584 
z
" transform="scale(0.015625)"/>
       <path id="DejaVuSans-20" transform="scale(0.015625)"/>
       <path id="DejaVuSans-76" d="M 191 3500 
L 800 3500 
L 1894 563 
L 2988 3500 
L 3597 3500 
L 2284 0 
L 1503 0 
L 191 3500 
z
" transform="scale(0.015625)"/>
       <path id="DejaVuSans-61" d="M 2194 1759 
Q 1497 1759 1228 1600 
Q 959 1441 959 1056 
Q 959 750 1161 570 
Q 1363 391 1709 391 
Q 2188 391 2477 730 
Q 2766 1069 2766 1631 
L 2766 1759 
L 2194 1759 
z
M 3341 1997 
L 3341 0 
L 2766 0 
L 2766 531 
Q 2569 213 2275 61 
Q 1981 -91 1556 -91 
Q 1019 -91 701 211 
Q 384 513 384 1019 
Q 384 1609 779 1909 
Q 1175 2209 1959 2209 
L 2766 2209 
L 2766 2266 
Q 2766 2663 2505 2880 
Q 2244 3097 1772 3097 
Q 1472 3097 1187 3025 
Q 903 2953 641 2809 
L 641 3341 
Q 956 3463 1253 3523 
Q 1550 3584 1831 3584 
Q 2591 3584 2966 3190 
Q 3341 2797 3341 1997 
z
" transform="scale(0.015625)"/>
       <path id="DejaVuSans-75" d="M 544 1381 
L 544 3500 
L 1119 3500 
L 1119 1403 
Q 1119 906 1312 657 
Q 1506 409 1894 409 
Q 2359 409 2629 706 
Q 2900 1003 2900 1516 
L 2900 3500 
L 3475 3500 
L 3475 0 
L 2900 0 
L 2900 538 
Q 2691 219 2414 64 
Q 2138 -91 1772 -91 
Q 1169 -91 856 284 
Q 544 659 544 1381 
z
M 1991 3584 
L 1991 3584 
z
" transform="scale(0.015625)"/>
      </defs>
      <use xlink:href="#DejaVuSans-72"/>
      <use xlink:href="#DejaVuSans-65" x="38.863281"/>
      <use xlink:href="#DejaVuSans-66" x="100.386719"/>
      <use xlink:href="#DejaVuSans-6c" x="135.591797"/>
      <use xlink:href="#DejaVuSans-65" x="163.375"/>
      <use xlink:href="#DejaVuSans-63" x="224.898438"/>
      <use xlink:href="#DejaVuSans-74" x="279.878906"/>
      <use xlink:href="#DejaVuSans-6f" x="319.087891"/>
      <use xlink:href="#DejaVuSans-72" x="380.269531"/>
      <use xlink:href="#DejaVuSans-20" x="421.382812"/>
      <use xlink:href="#DejaVuSans-76" x="453.169922"/>
      <use xlink:href="#DejaVuSans-61" x="512.349609"/>
      <use xlink:href="#DejaVuSans-6c" x="573.628906"/>
      <use xlink:href="#DejaVuSans-75" x="601.412109"/>
      <use xlink:href="#DejaVuSans-65" x="664.791016"/>
     </g>
    </g>
   </g>
   <g id="line2d_19">
    <path d="M 74.795028 156.526619 
L 84.967252 156.526619 
L 85.721632 155.005487 
L 86.110734 154.216752 
L 86.499835 153.766046 
L 88.540633 148.075886 
L 89.82705 143.512489 
L 91.14523 137.991343 
L 93.86894 124.13214 
L 94.798019 120.526494 
L 95.735039 117.1462 
L 96.203549 115.850421 
L 97.156451 114.103936 
L 98.101411 114.160274 
L 98.577862 114.385627 
L 99.054313 115.287039 
L 100.007214 118.160288 
L 102.389468 130.78005 
L 103.81882 139.456137 
L 104.771722 144.470239 
L 105.724623 148.470253 
L 106.677525 151.061811 
L 107.153976 151.906885 
L 107.630426 152.301252 
L 108.583328 153.259002 
L 109.536229 153.822385 
L 115.253639 153.822385 
L 115.730089 153.709708 
L 116.20654 153.822385 
L 117.159442 153.766046 
L 117.635892 153.766046 
L 118.112343 153.540693 
L 119.065245 153.484355 
L 119.541695 153.65337 
L 120.494597 153.484355 
L 120.971048 153.31534 
L 121.447498 153.371679 
L 122.4004 153.146326 
L 123.353301 153.089988 
L 123.829752 152.977311 
L 124.306203 153.033649 
L 126.212006 152.69562 
L 126.688457 152.639282 
L 127.164908 152.69562 
L 127.641358 152.470267 
L 128.59426 152.357591 
L 129.070711 152.132238 
L 129.547161 152.188576 
L 130.023612 152.0759 
L 130.500063 152.188576 
L 131.929415 152.0759 
L 132.405866 152.0759 
L 132.882317 151.963223 
L 133.835218 151.343503 
L 134.311669 151.456179 
L 135.26457 151.174488 
L 135.741021 151.230826 
L 140.981979 149.991385 
L 141.45843 149.653356 
L 141.934881 149.709694 
L 143.840684 149.089974 
L 144.317135 148.639268 
L 144.793586 148.470253 
L 145.270036 148.470253 
L 148.128741 147.399827 
L 149.081642 146.836445 
L 149.558093 146.66743 
L 150.034544 146.66743 
L 151.463896 145.878695 
L 151.940347 145.766018 
L 152.416798 145.427989 
L 153.84615 144.808269 
L 154.838756 144.244886 
L 155.315206 143.850519 
L 155.791657 143.79418 
L 156.268108 143.230798 
L 157.221009 142.949107 
L 158.173911 142.21671 
L 159.126812 141.766004 
L 159.603263 141.371637 
L 160.079714 141.202622 
L 160.556165 140.751916 
L 161.032616 140.526563 
L 161.985517 139.737828 
L 162.938419 139.06177 
L 163.414869 138.554726 
L 163.89132 138.273034 
L 164.367771 137.76599 
L 164.844222 137.653314 
L 165.320672 137.033593 
L 166.273574 136.244858 
L 168.179377 134.554712 
L 169.608729 133.146256 
L 170.08518 132.582874 
L 170.561631 132.244844 
L 171.038081 131.456109 
L 171.514532 131.230756 
L 171.990983 130.498359 
L 172.467434 130.103992 
L 173.420335 128.751874 
L 173.896786 128.470183 
L 174.373237 127.399757 
L 175.326138 126.160316 
L 175.802589 125.202566 
L 178.184843 122.329317 
L 181.043547 117.76592 
L 181.91704 116.019435 
L 182.393491 115.287039 
L 185.728646 108.019408 
L 188.587351 101.934879 
L 189.063802 101.315159 
L 189.540253 100.132056 
L 190.016703 99.68135 
L 190.493154 98.272895 
L 190.969605 97.991203 
L 191.922506 96.18838 
L 192.398957 95.399645 
L 192.875408 94.948939 
L 195.257662 90.779911 
L 195.734112 90.723572 
L 196.687014 88.977087 
L 197.163465 88.58272 
L 197.639915 87.343279 
L 198.116366 86.779897 
L 198.592817 85.08975 
L 199.545718 80.751707 
L 200.022169 81.765795 
L 200.975071 81.934809 
L 201.451521 81.202412 
L 201.927972 81.484104 
L 202.404423 81.484104 
L 202.880874 82.779883 
L 203.357324 84.582706 
L 204.310226 90.948925 
L 208.121832 131.681462 
L 209.074734 138.611064 
L 210.027635 144.188548 
L 210.504086 146.66743 
L 211.456987 150.216738 
L 212.409889 152.0759 
L 212.88634 152.977311 
L 213.36279 153.540693 
L 213.839241 153.878723 
L 215.268593 154.329429 
L 215.745044 154.498443 
L 216.221495 154.442105 
L 216.697946 154.498443 
L 217.174396 154.667458 
L 218.127298 154.498443 
L 218.603749 154.554781 
L 220.033101 154.329429 
L 220.509552 154.216752 
L 220.986003 154.27309 
L 221.938904 154.104076 
L 222.415355 154.27309 
L 222.891806 154.047737 
L 224.321158 153.935061 
L 226.703412 153.878723 
L 227.179862 153.822385 
L 227.656313 153.878723 
L 229.562116 153.259002 
L 230.038567 153.371679 
L 230.515018 153.31534 
L 231.467919 153.089988 
L 234.326624 152.69562 
L 235.755976 152.357591 
L 236.232427 152.526605 
L 236.708878 152.188576 
L 237.661779 152.132238 
L 238.614681 152.019561 
L 239.091131 151.794208 
L 239.567582 151.73787 
L 240.044033 151.512517 
L 240.520484 151.568856 
L 240.996934 151.230826 
L 241.949836 151.061811 
L 244.80854 150.273076 
L 245.761442 149.935047 
L 246.237893 149.991385 
L 247.190794 149.371665 
L 248.143696 149.20265 
L 249.096597 148.58293 
L 250.525949 148.2449 
L 251.0024 147.906871 
L 252.431753 147.28715 
L 253.384654 146.780106 
L 254.814006 146.160386 
L 258.625612 144.301224 
L 260.531415 143.061784 
L 261.007866 143.005445 
L 263.39012 141.315299 
L 263.866571 141.146284 
L 264.819472 140.357549 
L 268.154628 137.935005 
L 271.489783 134.836403 
L 271.966234 134.554712 
L 272.442684 134.047668 
L 272.919135 133.709638 
L 273.395586 133.089918 
L 273.872037 132.751888 
L 275.77784 130.611036 
L 276.25429 130.385683 
L 277.207192 128.977227 
L 277.683643 128.639198 
L 279.112995 126.442007 
L 279.589446 126.04764 
L 280.065896 125.146228 
L 280.542347 124.695522 
L 281.018798 123.906787 
L 281.495249 123.343405 
L 282.44815 121.822273 
L 282.924601 121.25889 
L 283.877503 119.625082 
L 284.353953 119.230714 
L 284.830404 117.991273 
L 285.306855 117.653244 
L 287.689109 112.920833 
L 288.165559 111.963083 
L 288.64201 110.610966 
L 289.118461 109.822231 
L 289.594912 108.526452 
L 290.071362 107.568702 
L 290.547813 106.216584 
L 291.024264 105.202496 
L 291.500715 103.568688 
L 291.977165 102.892629 
L 292.453616 101.59685 
L 292.930067 100.751777 
L 295.312321 95.174292 
L 296.741673 92.582734 
L 297.218124 91.399631 
L 297.694574 90.779911 
L 298.171025 89.653146 
L 298.647476 88.977087 
L 299.123927 88.075676 
L 299.600378 87.962999 
L 300.076828 87.117926 
L 300.553279 86.66722 
L 301.02973 85.70947 
L 301.506181 85.315103 
L 301.982631 84.075662 
L 302.459082 83.399603 
L 302.935533 82.385515 
L 303.411984 82.272839 
L 303.888434 81.765795 
L 304.364885 81.484104 
L 304.841336 80.864383 
L 305.317787 80.808045 
L 305.794237 81.653118 
L 306.270688 83.399603 
L 306.747139 85.653132 
L 307.22359 88.58272 
L 308.176491 97.371483 
L 310.558745 122.611008 
L 311.988097 136.357535 
L 312.940999 143.737842 
L 313.8939 149.315327 
L 314.370351 151.230826 
L 315.323253 153.597032 
L 316.276154 154.385767 
L 317.705506 154.892811 
L 318.181957 154.892811 
L 319.134859 155.343517 
L 320.564211 155.287178 
L 321.040662 155.456193 
L 321.993563 155.399855 
L 322.470014 155.568869 
L 322.946465 155.568869 
L 326.28162 154.892811 
L 329.140324 154.61112 
L 329.616775 154.61112 
L 330.093226 154.385767 
L 330.569677 154.385767 
L 331.046128 154.047737 
L 331.522578 154.216752 
L 331.999029 153.991399 
L 333.904832 153.709708 
L 334.857734 153.371679 
L 338.192889 152.470267 
L 339.622241 152.0759 
L 340.575143 152.019561 
L 341.051593 151.963223 
L 341.528044 151.625194 
L 343.910298 150.949135 
L 344.386749 150.611106 
L 344.863199 150.554767 
L 345.33965 150.273076 
L 346.769003 149.935047 
L 347.245453 149.540679 
L 349.627707 148.864621 
L 350.104158 148.470253 
L 350.580609 148.470253 
L 355.345116 146.273062 
L 355.821567 146.160386 
L 356.298018 145.766018 
L 356.774468 145.597004 
L 357.72737 145.033621 
L 358.203821 144.864607 
L 358.680271 144.526577 
L 359.156722 144.357563 
L 359.633173 143.79418 
L 361.062525 143.061784 
L 361.538976 142.667416 
L 362.015427 142.498401 
L 362.491878 141.991357 
L 363.444779 141.25896 
L 363.92123 141.25896 
L 364.874131 140.301211 
L 365.350582 140.188534 
L 366.303484 139.230784 
L 366.779934 139.06177 
L 367.256385 138.554726 
L 369.638639 136.808241 
L 370.11509 136.18852 
L 371.067991 135.512461 
L 371.544442 135.005417 
L 372.020893 134.723726 
L 372.497343 134.047668 
L 373.450245 133.202594 
L 373.926696 132.413859 
L 374.403146 132.188506 
L 374.879597 131.512447 
L 375.356048 131.11808 
L 375.832499 130.442021 
L 376.308949 130.273006 
L 377.261851 128.639198 
L 379.167654 126.04764 
L 379.644105 125.315243 
L 380.120556 124.977213 
L 380.597006 124.301155 
L 381.073457 123.399743 
L 381.549908 122.949037 
L 382.026359 121.991287 
L 382.502809 121.427905 
L 384.885063 117.484229 
L 385.361514 116.977185 
L 386.790866 114.329289 
L 387.267317 113.596892 
L 387.743768 112.470127 
L 388.220218 111.794069 
L 388.696669 110.498289 
L 389.17312 109.596878 
L 390.126021 107.117996 
L 392.031824 102.441923 
L 392.984726 99.286983 
L 393.937628 96.18838 
L 394.414078 95.117954 
L 394.890529 93.258793 
L 396.796332 88.244691 
L 397.272783 87.737647 
L 397.749234 86.779897 
L 398.225684 86.385529 
L 398.702135 85.427779 
L 399.178586 85.258765 
L 399.655037 84.301015 
L 400.131487 84.132 
L 400.607938 83.455941 
L 401.084389 82.385515 
L 401.56084 81.878471 
L 402.03729 80.97706 
L 402.513741 80.751707 
L 402.990192 80.075648 
L 403.466643 79.850295 
L 403.943093 78.892545 
L 404.419544 78.554516 
L 405.372446 76.639016 
L 405.848896 73.934781 
L 406.325347 69.20237 
L 406.801798 68.751665 
L 407.278249 69.089694 
L 407.754699 68.977018 
L 408.23115 67.850253 
L 408.707601 67.230533 
L 409.184052 66.272783 
L 409.660503 67.117856 
L 410.136953 68.526312 
L 411.089855 75.286899 
L 412.519207 93.258793 
L 413.869151 113.202524 
L 415.695545 134.554712 
L 417.045489 144.695592 
L 417.442532 146.554753 
L 418.316025 148.639268 
L 418.713067 149.371665 
L 419.58656 149.428003 
L 419.983602 149.484341 
L 420.380645 149.709694 
L 420.777687 149.653356 
L 421.492363 149.991385 
L 422.286448 150.104062 
L 423.001124 150.1604 
L 423.318758 150.047723 
L 423.7158 149.709694 
L 424.033434 149.709694 
L 424.668701 149.428003 
L 425.303969 149.315327 
L 425.621603 149.428003 
L 426.971547 149.146312 
L 427.209772 148.751944 
L 427.924448 148.470253 
L 429.194984 148.470253 
L 430.068477 147.512503 
L 430.227294 147.568842 
L 430.38611 147.230812 
L 430.465519 147.28715 
L 430.624336 147.456165 
L 430.94197 147.230812 
L 431.100787 147.174474 
L 431.259604 146.66743 
L 431.656646 146.385739 
L 431.736054 146.554753 
L 432.133097 145.540665 
L 432.133097 145.597004 
L 432.133097 144.864607 
L 432.133097 145.033621 
" clip-path="url(#p6c59c321be)" style="fill: none; stroke: #1f77b4; stroke-width: 1.5; stroke-linecap: square"/>
   </g>
   <g id="line2d_20">
    <path d="M 74.795028 156.526619 
L 373.450245 156.526619 
L 374.403146 156.075914 
L 375.832499 155.906899 
L 376.308949 155.963237 
L 376.7854 155.794222 
L 377.261851 155.906899 
L 377.738302 155.681546 
L 378.214753 155.681546 
L 378.691203 156.526619 
L 380.597006 156.526619 
L 381.073457 155.343517 
L 381.549908 155.287178 
L 382.026359 155.061825 
L 382.502809 155.061825 
L 383.455711 155.174502 
L 383.932162 155.118164 
L 384.408612 155.174502 
L 384.885063 155.118164 
L 385.361514 156.244928 
L 385.837965 156.526619 
L 387.743768 156.526619 
L 388.220218 155.625208 
L 388.696669 155.512531 
L 389.649571 155.681546 
L 391.078923 155.681546 
L 392.031824 155.850561 
L 392.508275 156.526619 
L 431.180195 156.526619 
L 431.339012 156.357605 
L 431.41842 156.526619 
L 431.577237 156.357605 
L 431.656646 156.357605 
L 431.656646 156.526619 
L 431.736054 156.526619 
L 431.894871 156.526619 
L 431.97428 156.244928 
L 431.97428 156.244928 
L 432.053688 156.18859 
L 432.053688 156.18859 
L 432.053688 156.526619 
L 432.133097 155.456193 
L 432.133097 156.526619 
" clip-path="url(#p6c59c321be)" style="fill: none; stroke: #ff7f0e; stroke-width: 1.5; stroke-linecap: square"/>
   </g>
   <g id="line2d_21">
    <path d="M 74.795028 155.343517 
L 74.811291 156.526619 
L 74.90223 155.456193 
L 74.925099 155.681546 
L 74.980288 155.287178 
L 75.089157 155.343517 
L 75.133229 153.935061 
L 75.234157 154.216752 
L 75.291331 155.512531 
L 75.35327 155.399855 
L 75.420211 155.399855 
L 75.492314 154.949149 
L 75.741577 156.470281 
L 75.836073 156.244928 
L 75.936128 156.470281 
L 76.156883 156.413943 
L 76.538044 155.343517 
L 76.679391 155.456193 
L 76.827091 155.343517 
L 77.145519 155.512531 
L 77.315453 155.512531 
L 77.49174 156.526619 
L 77.675967 155.343517 
L 77.867342 155.287178 
L 78.065863 156.526619 
L 78.270737 155.568869 
L 78.483551 155.963237 
L 78.703513 154.554781 
L 78.930621 155.287178 
L 79.405484 154.949149 
L 79.654032 155.850561 
L 79.909727 154.892811 
L 80.171775 155.681546 
L 80.441764 155.794222 
L 80.718899 154.723796 
L 81.003182 155.118164 
L 81.293817 154.667458 
L 81.592393 154.780134 
L 81.898115 154.554781 
L 82.854987 154.27309 
L 83.879356 153.991399 
L 84.236694 152.864635 
L 84.601973 153.935061 
L 84.967252 153.033649 
L 85.340472 153.822385 
L 86.110734 153.935061 
L 86.896878 153.878723 
L 87.301861 154.385767 
L 87.714785 154.61112 
L 88.127709 154.385767 
L 88.969438 154.329429 
L 89.398244 152.301252 
L 89.82705 152.301252 
L 90.263796 153.146326 
L 91.589918 153.089988 
L 92.042546 153.597032 
L 92.495174 153.597032 
L 92.947802 152.920973 
L 93.86894 152.864635 
L 96.203549 152.0759 
L 96.68 152.0759 
L 97.156451 150.892797 
L 97.624961 153.089988 
L 99.054313 152.69562 
L 100.007214 152.751958 
L 100.483665 151.005473 
L 100.960116 151.005473 
L 101.436567 150.104062 
L 101.913017 151.061811 
L 102.389468 151.174488 
L 102.865919 150.611106 
L 103.34237 150.442091 
L 104.771722 150.385753 
L 105.248173 149.822371 
L 105.724623 149.822371 
L 106.201074 149.428003 
L 106.677525 149.428003 
L 107.153976 149.033635 
L 108.583328 148.977297 
L 109.059779 149.428003 
L 110.489131 148.808282 
L 110.965582 147.850533 
L 111.918483 147.061798 
L 112.871385 146.780106 
L 113.824286 146.723768 
L 114.300737 145.878695 
L 114.777188 146.554753 
L 115.730089 146.047709 
L 117.159442 145.70968 
L 117.635892 145.371651 
L 118.588794 145.427989 
L 119.065245 145.146298 
L 119.541695 145.146298 
L 120.018146 145.653342 
L 120.494597 145.258974 
L 121.447498 144.977283 
L 121.923949 144.977283 
L 122.4004 143.963195 
L 122.876851 143.963195 
L 123.353301 143.17446 
L 123.829752 143.17446 
L 124.306203 142.836431 
L 124.782654 142.836431 
L 125.259104 142.498401 
L 125.735555 142.498401 
L 126.212006 142.723754 
L 126.688457 142.723754 
L 127.164908 142.273048 
L 127.641358 142.273048 
L 129.070711 142.047695 
L 129.547161 142.047695 
L 130.023612 142.442063 
L 130.500063 143.061784 
L 130.976514 143.061784 
L 131.452964 142.892769 
L 131.929415 142.892769 
L 132.405866 143.906857 
L 132.882317 143.061784 
L 133.358767 143.061784 
L 133.835218 142.498401 
L 134.311669 143.625166 
L 134.78812 143.625166 
L 135.26457 144.075872 
L 136.693923 143.850519 
L 137.170373 143.850519 
L 137.646824 144.526577 
L 139.076176 144.470239 
L 139.552627 145.258974 
L 140.029078 145.258974 
L 140.505529 145.822357 
L 140.981979 145.822357 
L 141.45843 147.005459 
L 141.934881 147.343489 
L 142.411332 147.399827 
L 142.887783 147.737856 
L 143.364233 148.2449 
L 143.840684 148.2449 
L 144.317135 147.681518 
L 144.793586 147.681518 
L 145.270036 148.639268 
L 145.746487 148.639268 
L 146.222938 149.878709 
L 146.699389 149.878709 
L 147.175839 150.836459 
L 147.65229 150.836459 
L 148.128741 152.244914 
L 148.605192 152.244914 
L 149.558093 153.991399 
L 150.034544 154.385767 
L 150.510995 154.385767 
L 150.987445 155.512531 
L 151.463896 155.512531 
L 151.940347 156.526619 
L 164.844222 156.526619 
L 165.320672 155.850561 
L 165.797123 156.244928 
L 166.273574 156.18859 
L 166.750025 156.526619 
L 167.226475 156.526619 
L 168.179377 156.244928 
L 169.132278 156.526619 
L 169.608729 156.526619 
L 170.08518 155.174502 
L 170.561631 156.470281 
L 171.514532 156.526619 
L 177.231941 156.526619 
L 177.708392 156.244928 
L 178.184843 156.244928 
L 178.661294 156.413943 
L 179.137744 156.413943 
L 180.090646 156.526619 
L 185.728646 156.526619 
L 186.205097 156.019575 
L 187.634449 156.019575 
L 188.1109 155.794222 
L 188.587351 155.794222 
L 189.540253 155.681546 
L 190.493154 155.681546 
L 190.969605 155.287178 
L 191.446056 155.287178 
L 191.922506 155.625208 
L 192.398957 155.061825 
L 192.875408 155.399855 
L 193.351859 155.399855 
L 194.781211 155.794222 
L 195.734112 155.625208 
L 196.210563 155.625208 
L 196.687014 154.949149 
L 197.163465 154.723796 
L 197.639915 154.27309 
L 199.069268 154.047737 
L 199.545718 153.878723 
L 200.022169 153.878723 
L 200.49862 153.709708 
L 200.975071 153.709708 
L 201.451521 152.639282 
L 201.927972 152.920973 
L 202.404423 153.428017 
L 202.880874 152.977311 
L 203.357324 154.216752 
L 203.833775 152.864635 
L 204.310226 153.540693 
L 204.786677 152.977311 
L 205.263128 151.963223 
L 205.739578 152.977311 
L 206.69248 152.864635 
L 207.645381 151.174488 
L 208.121832 151.343503 
L 208.598283 150.554767 
L 209.551184 150.273076 
L 210.027635 150.216738 
L 210.504086 150.385753 
L 211.933438 150.1604 
L 212.409889 150.216738 
L 212.88634 149.653356 
L 213.36279 149.371665 
L 213.839241 149.315327 
L 214.315692 148.864621 
L 214.792143 149.033635 
L 215.268593 149.540679 
L 215.745044 149.766032 
L 216.221495 149.20265 
L 216.697946 149.033635 
L 217.174396 149.033635 
L 218.127298 147.794194 
L 218.603749 147.963209 
L 221.462453 147.399827 
L 221.938904 147.399827 
L 222.415355 147.174474 
L 222.891806 147.230812 
L 223.368256 146.836445 
L 224.797609 146.723768 
L 225.75051 147.62518 
L 226.226961 147.512503 
L 226.703412 146.723768 
L 227.179862 146.723768 
L 227.656313 147.681518 
L 228.132764 147.061798 
L 228.609215 146.66743 
L 229.562116 146.66743 
L 230.038567 147.399827 
L 230.515018 147.399827 
L 230.991468 146.66743 
L 232.420821 146.66743 
L 233.373722 147.061798 
L 234.326624 146.949121 
L 234.803074 147.28715 
L 235.279525 147.28715 
L 235.755976 147.456165 
L 236.232427 147.456165 
L 236.708878 146.780106 
L 237.185328 146.780106 
L 237.661779 147.850533 
L 238.13823 147.906871 
L 238.614681 147.737856 
L 239.091131 147.399827 
L 239.567582 147.512503 
L 240.044033 147.850533 
L 240.520484 148.357577 
L 240.996934 148.301238 
L 241.473385 148.357577 
L 242.426287 149.258988 
L 242.902737 148.808282 
L 243.379188 149.766032 
L 244.80854 150.723782 
L 245.284991 150.723782 
L 245.761442 152.019561 
L 246.237893 152.019561 
L 246.714343 152.413929 
L 247.190794 153.822385 
L 247.667245 153.935061 
L 248.143696 154.498443 
L 249.573048 154.554781 
L 250.049499 155.512531 
L 250.525949 155.512531 
L 251.0024 156.019575 
L 251.478851 156.019575 
L 251.955302 156.526619 
L 262.913669 156.470281 
L 263.39012 155.794222 
L 263.866571 156.526619 
L 268.631078 156.526619 
L 269.107529 156.244928 
L 269.58398 156.244928 
L 270.060431 156.470281 
L 270.536881 156.470281 
L 271.013332 156.301266 
L 271.489783 156.301266 
L 271.966234 155.963237 
L 272.442684 155.963237 
L 272.919135 156.357605 
L 273.395586 156.357605 
L 273.872037 155.625208 
L 274.348487 155.625208 
L 274.824938 156.526619 
L 287.689109 156.526619 
L 288.165559 156.019575 
L 288.64201 156.019575 
L 289.118461 155.737884 
L 291.500715 155.737884 
L 291.977165 154.498443 
L 292.453616 154.498443 
L 292.930067 155.568869 
L 293.406518 155.568869 
L 293.882968 154.892811 
L 294.359419 154.892811 
L 294.83587 155.681546 
L 295.788771 155.681546 
L 296.265222 156.526619 
L 296.741673 155.568869 
L 297.218124 155.568869 
L 297.694574 154.385767 
L 298.171025 154.385767 
L 298.647476 154.047737 
L 299.123927 154.047737 
L 299.600378 153.878723 
L 300.076828 153.878723 
L 300.553279 153.709708 
L 301.02973 153.709708 
L 301.506181 153.033649 
L 301.982631 152.977311 
L 302.459082 152.582944 
L 302.935533 152.582944 
L 303.411984 152.0759 
L 303.888434 152.0759 
L 304.364885 152.977311 
L 304.841336 151.963223 
L 305.317787 153.259002 
L 305.794237 153.259002 
L 306.270688 152.977311 
L 307.22359 152.0759 
L 307.70004 152.0759 
L 308.176491 155.681546 
L 308.652942 155.681546 
L 309.129393 151.512517 
L 309.605843 151.512517 
L 310.082294 151.174488 
L 311.511646 151.11815 
L 311.988097 150.836459 
L 312.464548 150.836459 
L 312.940999 150.554767 
L 313.417449 150.554767 
L 313.8939 151.174488 
L 314.846802 151.061811 
L 315.323253 150.611106 
L 315.799703 149.935047 
L 316.276154 149.935047 
L 316.752605 149.709694 
L 317.229056 149.709694 
L 317.705506 149.484341 
L 318.181957 149.484341 
L 318.658408 148.639268 
L 319.134859 148.639268 
L 319.611309 149.033635 
L 320.564211 149.089974 
L 321.040662 148.639268 
L 321.517112 148.470253 
L 321.993563 148.470253 
L 322.470014 149.371665 
L 323.422915 149.315327 
L 323.899366 148.58293 
L 324.375817 149.315327 
L 324.852268 149.315327 
L 325.328718 148.132224 
L 325.805169 148.132224 
L 326.28162 148.301238 
L 326.758071 148.301238 
L 327.234521 148.019547 
L 327.710972 148.019547 
L 328.663874 147.906871 
L 329.140324 148.188562 
L 329.616775 148.188562 
L 330.093226 147.794194 
L 330.569677 147.794194 
L 331.046128 148.526591 
L 331.522578 148.470253 
L 331.999029 148.751944 
L 332.47548 148.751944 
L 332.951931 149.089974 
L 333.904832 147.568842 
L 334.381283 147.568842 
L 335.334184 147.681518 
L 335.810635 147.28715 
L 336.287086 147.28715 
L 336.763537 148.413915 
L 337.239987 148.413915 
L 337.716438 148.2449 
L 338.192889 148.2449 
L 338.66934 148.751944 
L 339.14579 148.751944 
L 339.622241 150.385753 
L 340.098692 150.385753 
L 340.575143 149.935047 
L 341.051593 151.174488 
L 342.004495 151.230826 
L 342.480946 150.78012 
L 342.957396 150.78012 
L 343.433847 151.11815 
L 343.910298 151.11815 
L 344.386749 152.019561 
L 344.863199 152.019561 
L 345.33965 152.470267 
L 345.816101 152.470267 
L 346.292552 152.977311 
L 346.769003 152.977311 
L 347.245453 153.484355 
L 347.721904 153.484355 
L 348.198355 154.892811 
L 348.674806 154.892811 
L 349.151256 155.850561 
L 349.627707 155.850561 
L 350.104158 156.18859 
L 350.580609 155.681546 
L 351.057059 154.892811 
L 351.53351 156.526619 
L 352.009961 155.343517 
L 352.486412 156.526619 
L 357.250919 156.526619 
L 357.72737 156.244928 
L 358.203821 156.526619 
L 358.680271 156.18859 
L 359.156722 156.526619 
L 365.827033 156.526619 
L 366.303484 156.18859 
L 366.779934 156.526619 
L 371.544442 156.526619 
L 372.020893 156.244928 
L 372.497343 156.244928 
L 372.973794 156.526619 
L 375.356048 156.526619 
L 375.832499 156.301266 
L 376.308949 156.526619 
L 389.649571 156.526619 
L 390.126021 156.18859 
L 390.602472 156.18859 
L 391.078923 156.019575 
L 391.555374 156.019575 
L 392.031824 156.526619 
L 393.937628 156.526619 
L 394.890529 155.343517 
L 395.843431 154.892811 
L 396.796332 154.949149 
L 397.272783 154.836473 
L 397.749234 153.991399 
L 398.225684 155.118164 
L 398.702135 155.681546 
L 399.178586 155.794222 
L 399.655037 155.625208 
L 400.131487 155.118164 
L 400.607938 155.625208 
L 401.084389 155.625208 
L 401.56084 153.371679 
L 402.03729 153.371679 
L 402.513741 153.597032 
L 402.990192 153.597032 
L 403.466643 153.146326 
L 403.943093 153.146326 
L 404.895995 153.033649 
L 405.372446 154.723796 
L 405.848896 154.723796 
L 406.325347 154.385767 
L 406.801798 154.554781 
L 407.278249 156.526619 
L 407.754699 152.357591 
L 408.23115 152.357591 
L 408.707601 152.0759 
L 409.184052 152.0759 
L 409.660503 151.963223 
L 410.136953 152.0759 
L 410.613404 151.512517 
L 411.089855 153.878723 
L 411.566306 153.202664 
L 412.042756 152.977311 
L 412.519207 153.033649 
L 412.995658 151.343503 
L 413.472109 151.343503 
L 414.345602 149.653356 
L 414.822052 150.442091 
L 415.695545 150.047723 
L 416.171996 149.653356 
L 416.569039 151.456179 
L 417.045489 151.963223 
L 417.442532 151.73787 
L 417.918982 151.906885 
L 418.316025 151.568856 
L 418.713067 151.568856 
L 419.110109 148.526591 
L 419.58656 148.526591 
L 419.983602 148.695606 
L 420.380645 148.695606 
L 420.777687 148.357577 
L 421.174729 148.357577 
L 421.492363 150.273076 
L 422.604081 150.1604 
L 423.001124 149.822371 
L 423.318758 147.906871 
L 423.7158 147.061798 
L 424.033434 146.949121 
L 424.351068 147.118136 
L 424.668701 146.66743 
L 424.986335 146.723768 
L 425.303969 146.554753 
L 425.621603 149.258988 
L 426.177462 148.526591 
L 426.733321 148.470253 
L 427.209772 145.70968 
L 427.447997 145.258974 
L 427.686223 146.047709 
L 428.162674 145.146298 
L 428.400899 144.864607 
L 428.797941 148.413915 
L 429.194984 147.230812 
L 429.433209 147.399827 
L 429.592026 145.08996 
L 429.750843 144.864607 
L 429.90966 144.864607 
L 430.227294 145.258974 
L 430.465519 145.146298 
L 430.624336 148.075886 
L 430.94197 148.526591 
L 431.180195 148.58293 
L 431.339012 146.498415 
L 431.497829 146.554753 
L 431.577237 146.160386 
L 431.736054 148.639268 
L 431.815463 148.470253 
L 431.815463 148.470253 
L 432.053688 145.315313 
L 432.133097 151.11815 
L 432.133097 144.864607 
L 432.133097 149.20265 
" clip-path="url(#p6c59c321be)" style="fill: none; stroke: #2ca02c; stroke-width: 1.5; stroke-linecap: square"/>
   </g>
   <g id="line2d_22">
    <path d="M 74.795028 152.470267 
L 74.864813 152.864635 
L 74.90223 152.582944 
L 74.951066 152.639282 
L 75.049135 152.69562 
L 75.234157 152.470267 
L 75.291331 152.582944 
L 75.35327 152.413929 
L 75.492314 152.582944 
L 75.65264 152.470267 
L 75.741577 152.582944 
L 75.936128 152.357591 
L 76.043329 152.357591 
L 76.156883 152.244914 
L 76.27679 152.413929 
L 76.538044 152.188576 
L 76.679391 152.132238 
L 76.827091 152.244914 
L 77.315453 152.132238 
L 78.270737 152.0759 
L 78.930621 151.963223 
L 79.164082 151.963223 
L 79.405484 151.850547 
L 79.654032 151.906885 
L 79.909727 151.850547 
L 80.441764 151.906885 
L 81.003182 151.681532 
L 81.293817 151.681532 
L 81.592393 151.512517 
L 81.898115 151.568856 
L 82.210984 151.230826 
L 82.530206 151.456179 
L 82.854987 151.230826 
L 83.529959 151.174488 
L 84.236694 150.949135 
L 86.499835 150.498429 
L 86.896878 150.273076 
L 87.301861 150.273076 
L 89.398244 149.653356 
L 89.82705 149.315327 
L 90.263796 149.315327 
L 92.495174 148.526591 
L 92.947802 148.413915 
L 93.408371 148.132224 
L 93.86894 148.188562 
L 95.266529 147.399827 
L 95.735039 147.399827 
L 96.203549 146.949121 
L 96.68 147.005459 
L 97.156451 146.723768 
L 98.577862 146.273062 
L 99.054313 145.935033 
L 100.007214 145.597004 
L 100.960116 145.146298 
L 101.913017 144.864607 
L 102.865919 144.470239 
L 103.34237 144.357563 
L 104.295271 143.850519 
L 104.771722 143.737842 
L 105.248173 143.343475 
L 106.677525 142.892769 
L 107.630426 142.047695 
L 108.106877 141.991357 
L 109.059779 141.315299 
L 109.536229 141.25896 
L 110.489131 140.695578 
L 111.442033 140.019519 
L 111.918483 139.568814 
L 112.394934 139.456137 
L 113.347836 138.667402 
L 114.300737 138.273034 
L 115.730089 136.864579 
L 116.682991 136.18852 
L 118.112343 135.118094 
L 118.588794 134.554712 
L 119.065245 134.329359 
L 119.541695 133.709638 
L 120.018146 133.484285 
L 120.971048 132.470197 
L 121.447498 132.244844 
L 122.4004 130.78005 
L 122.876851 130.442021 
L 123.353301 129.765962 
L 123.829752 129.315257 
L 124.306203 128.639198 
L 124.782654 128.301169 
L 125.259104 127.230742 
L 126.212006 125.991301 
L 126.688457 125.146228 
L 127.164908 124.864537 
L 128.59426 122.667346 
L 130.500063 119.568744 
L 132.405866 116.18845 
L 133.835218 112.920833 
L 137.646824 104.301085 
L 141.45843 93.371469 
L 141.934881 92.301043 
L 143.840684 86.385529 
L 144.317135 85.315103 
L 145.270036 82.723544 
L 145.746487 81.709456 
L 148.605192 72.751679 
L 150.987445 63.343195 
L 151.940347 59.117828 
L 152.416798 58.610784 
L 152.893248 57.934725 
L 153.369699 56.695285 
L 153.84615 55.906549 
L 154.362305 54.554432 
L 154.838756 53.709359 
L 155.315206 53.484006 
L 155.791657 54.723447 
L 156.268108 58.272755 
L 156.744559 63.681224 
L 157.69746 79.906633 
L 160.079714 125.427919 
L 161.032616 138.273034 
L 161.509066 143.005445 
L 161.985517 146.554753 
L 162.461968 149.089974 
L 163.414869 152.0759 
L 164.367771 153.597032 
L 166.273574 154.723796 
L 169.608729 155.061825 
L 170.08518 154.949149 
L 170.561631 155.061825 
L 171.514532 154.836473 
L 171.990983 154.892811 
L 172.467434 154.780134 
L 173.420335 154.892811 
L 174.373237 154.780134 
L 176.27904 154.61112 
L 176.755491 154.61112 
L 177.231941 154.442105 
L 178.184843 154.498443 
L 178.661294 154.27309 
L 179.137744 154.216752 
L 179.614195 154.442105 
L 180.090646 154.160414 
L 181.44059 153.935061 
L 181.91704 153.878723 
L 182.393491 153.935061 
L 182.869942 153.822385 
L 183.822843 153.878723 
L 184.299294 153.822385 
L 184.775745 153.597032 
L 185.252196 153.709708 
L 186.681548 153.259002 
L 189.063802 152.920973 
L 189.540253 152.69562 
L 190.016703 152.69562 
L 190.493154 152.413929 
L 190.969605 152.413929 
L 191.922506 152.0759 
L 192.875408 152.0759 
L 198.116366 150.273076 
L 199.069268 150.104062 
L 202.404423 148.864621 
L 202.880874 148.58293 
L 205.263128 147.963209 
L 205.739578 147.568842 
L 207.168931 146.949121 
L 207.645381 146.66743 
L 208.121832 146.66743 
L 209.074734 146.104048 
L 210.027635 145.540665 
L 210.504086 145.427989 
L 210.980537 144.977283 
L 211.456987 144.864607 
L 212.88634 143.963195 
L 215.745044 142.160372 
L 217.174396 141.25896 
L 217.650847 140.582902 
L 218.127298 140.244872 
L 218.603749 139.568814 
L 219.080199 139.343461 
L 219.55665 138.836417 
L 220.509552 138.160358 
L 220.986003 137.653314 
L 221.462453 137.371623 
L 222.891806 135.850491 
L 223.844707 135.061756 
L 224.321158 134.385697 
L 224.797609 134.047668 
L 225.274059 133.371609 
L 225.75051 132.920903 
L 226.226961 132.301183 
L 226.703412 132.07583 
L 227.179862 131.343433 
L 228.132764 130.329345 
L 228.609215 129.54061 
L 229.085665 129.146242 
L 229.562116 128.413845 
L 230.038567 127.906801 
L 230.515018 126.949051 
L 234.803074 120.695508 
L 235.755976 119.005361 
L 236.232427 118.10395 
L 236.708878 117.76592 
L 237.185328 117.089862 
L 240.520484 109.765893 
L 241.473385 107.681378 
L 244.33209 100.188394 
L 246.237893 95.399645 
L 246.714343 94.667248 
L 247.190794 93.484145 
L 247.667245 92.69541 
L 248.143696 92.526396 
L 248.620146 90.16019 
L 249.573048 87.512294 
L 251.478851 81.765795 
L 251.955302 80.470015 
L 252.908203 76.357325 
L 253.384654 75.343237 
L 254.337556 73.709428 
L 255.290457 71.343223 
L 255.766908 70.554488 
L 256.243359 69.146032 
L 256.719809 68.526312 
L 257.19626 69.089694 
L 258.625612 80.582692 
L 259.578514 94.216542 
L 261.007866 116.019435 
L 261.960768 128.639198 
L 262.913669 138.892755 
L 263.866571 146.047709 
L 264.343021 148.639268 
L 265.295923 151.681532 
L 265.772374 152.808296 
L 266.248824 153.540693 
L 266.725275 153.878723 
L 267.201726 154.047737 
L 267.678177 154.385767 
L 268.154628 154.442105 
L 268.631078 154.667458 
L 271.489783 154.949149 
L 272.442684 154.836473 
L 273.395586 154.892811 
L 273.872037 154.723796 
L 274.824938 154.780134 
L 275.301389 154.385767 
L 275.77784 154.61112 
L 276.25429 154.61112 
L 276.730741 154.27309 
L 277.207192 154.442105 
L 279.112995 154.104076 
L 282.44815 153.766046 
L 282.924601 153.540693 
L 283.877503 153.484355 
L 284.353953 153.428017 
L 285.306855 153.089988 
L 286.259756 152.977311 
L 287.689109 152.864635 
L 288.165559 152.470267 
L 288.64201 152.582944 
L 291.500715 152.019561 
L 291.977165 151.963223 
L 292.453616 151.73787 
L 292.930067 151.73787 
L 293.882968 151.399841 
L 294.83587 151.174488 
L 296.741673 150.611106 
L 297.218124 150.385753 
L 298.171025 150.273076 
L 299.123927 149.709694 
L 299.600378 149.878709 
L 300.076828 149.766032 
L 301.02973 149.258988 
L 304.841336 147.794194 
L 305.317787 147.512503 
L 306.270688 147.174474 
L 307.22359 146.611092 
L 309.605843 145.371651 
L 310.558745 144.808269 
L 311.035196 144.695592 
L 311.511646 144.244886 
L 313.417449 143.061784 
L 313.8939 143.005445 
L 315.323253 141.766004 
L 320.08776 137.76599 
L 320.564211 137.653314 
L 321.040662 137.033593 
L 321.517112 136.695564 
L 321.993563 136.18852 
L 322.946465 135.681476 
L 323.422915 135.005417 
L 323.899366 134.780064 
L 324.375817 134.104006 
L 324.852268 133.765976 
L 325.805169 132.639212 
L 326.28162 132.188506 
L 326.758071 131.568786 
L 327.234521 131.174418 
L 327.710972 130.498359 
L 328.187423 130.16033 
L 329.140324 128.977227 
L 330.093226 127.794125 
L 330.569677 126.892713 
L 331.522578 125.878625 
L 332.47548 124.75186 
L 332.951931 124.188478 
L 333.904832 122.385655 
L 335.810635 119.625082 
L 338.66934 114.160274 
L 339.14579 112.920833 
L 340.575143 109.991245 
L 342.957396 104.13207 
L 343.910298 101.822203 
L 346.769003 95.286969 
L 347.721904 93.540484 
L 348.198355 93.089778 
L 348.674806 92.413719 
L 349.151256 91.286955 
L 349.627707 91.399631 
L 350.104158 88.864411 
L 352.009961 84.301015 
L 352.486412 83.399603 
L 354.868665 77.371413 
L 356.298018 77.202398 
L 356.774468 76.52634 
L 357.250919 76.582678 
L 357.72737 76.357325 
L 358.203821 75.681266 
L 358.680271 75.962957 
L 359.156722 77.14606 
L 360.109624 83.230589 
L 361.062525 93.371469 
L 363.92123 130.611036 
L 365.350582 144.019533 
L 366.303484 150.047723 
L 366.779934 152.188576 
L 367.732836 154.667458 
L 368.209287 155.681546 
L 369.638639 156.413943 
L 370.11509 156.413943 
L 371.067991 156.526619 
L 376.7854 156.526619 
L 377.738302 156.413943 
L 379.167654 156.357605 
L 379.644105 156.18859 
L 380.120556 156.18859 
L 382.502809 155.681546 
L 383.932162 155.625208 
L 384.885063 155.343517 
L 385.361514 155.568869 
L 389.17312 154.27309 
L 389.649571 154.216752 
L 390.602472 153.935061 
L 392.508275 153.65337 
L 394.890529 152.920973 
L 395.843431 152.582944 
L 397.272783 152.132238 
L 398.702135 151.963223 
L 400.607938 151.230826 
L 402.03729 150.442091 
L 402.990192 150.1604 
L 403.466643 150.104062 
L 403.943093 149.935047 
L 404.895995 149.371665 
L 405.848896 149.20265 
L 406.325347 148.864621 
L 407.278249 148.526591 
L 410.613404 146.66743 
L 411.089855 146.66743 
L 411.566306 146.498415 
L 412.042756 146.104048 
L 413.472109 145.371651 
L 413.869151 144.864607 
L 414.822052 144.75193 
L 415.219095 144.13221 
L 416.171996 143.681504 
L 416.569039 143.287136 
L 417.045489 143.287136 
L 417.442532 143.061784 
L 419.110109 141.371637 
L 419.983602 141.146284 
L 420.777687 140.301211 
L 421.174729 139.850505 
L 423.001124 138.836417 
L 423.7158 137.76599 
L 424.033434 137.653314 
L 425.621603 136.075844 
L 425.859828 136.132182 
L 426.971547 135.005417 
L 427.686223 134.104006 
L 427.924448 134.047668 
L 428.400899 133.484285 
L 428.639124 133.540623 
L 429.433209 132.357521 
L 429.592026 132.413859 
L 429.750843 131.625124 
L 430.227294 130.836389 
L 430.624336 130.047654 
L 430.783153 130.103992 
L 431.100787 128.920889 
L 431.656646 126.892713 
L 431.656646 127.118066 
L 431.736054 127.118066 
L 431.815463 127.005389 
L 431.97428 126.442007 
L 432.053688 125.878625 
L 432.133097 125.822287 
L 432.133097 122.949037 
L 432.133097 123.963125 
" clip-path="url(#p6c59c321be)" style="fill: none; stroke: #d62728; stroke-width: 1.5; stroke-linecap: square"/>
   </g>
   <g id="patch_3">
    <path d="M 56.928125 161.67875 
L 56.928125 48.331875 
" style="fill: none; stroke: #000000; stroke-width: 0.8; stroke-linejoin: miter; stroke-linecap: square"/>
   </g>
   <g id="patch_4">
    <path d="M 450 161.67875 
L 450 48.331875 
" style="fill: none; stroke: #000000; stroke-width: 0.8; stroke-linejoin: miter; stroke-linecap: square"/>
   </g>
   <g id="patch_5">
    <path d="M 56.928125 161.67875 
L 450 161.67875 
" style="fill: none; stroke: #000000; stroke-width: 0.8; stroke-linejoin: miter; stroke-linecap: square"/>
   </g>
   <g id="patch_6">
    <path d="M 56.928125 48.331875 
L 450 48.331875 
" style="fill: none; stroke: #000000; stroke-width: 0.8; stroke-linejoin: miter; stroke-linecap: square"/>
   </g>
   <g id="text_6">
    <!-- Reflector Raw Value -->
    <g transform="translate(193.704062 42.331875)scale(0.12 -0.12)">
     <defs>
      <path id="DejaVuSans-52" d="M 2841 2188 
Q 3044 2119 3236 1894 
Q 3428 1669 3622 1275 
L 4263 0 
L 3584 0 
L 2988 1197 
Q 2756 1666 2539 1819 
Q 2322 1972 1947 1972 
L 1259 1972 
L 1259 0 
L 628 0 
L 628 4666 
L 2053 4666 
Q 2853 4666 3247 4331 
Q 3641 3997 3641 3322 
Q 3641 2881 3436 2590 
Q 3231 2300 2841 2188 
z
M 1259 4147 
L 1259 2491 
L 2053 2491 
Q 2509 2491 2742 2702 
Q 2975 2913 2975 3322 
Q 2975 3731 2742 3939 
Q 2509 4147 2053 4147 
L 1259 4147 
z
" transform="scale(0.015625)"/>
      <path id="DejaVuSans-77" d="M 269 3500 
L 844 3500 
L 1563 769 
L 2278 3500 
L 2956 3500 
L 3675 769 
L 4391 3500 
L 4966 3500 
L 4050 0 
L 3372 0 
L 2619 2869 
L 1863 0 
L 1184 0 
L 269 3500 
z
" transform="scale(0.015625)"/>
      <path id="DejaVuSans-56" d="M 1831 0 
L 50 4666 
L 709 4666 
L 2188 738 
L 3669 4666 
L 4325 4666 
L 2547 0 
L 1831 0 
z
" transform="scale(0.015625)"/>
     </defs>
     <use xlink:href="#DejaVuSans-52"/>
     <use xlink:href="#DejaVuSans-65" x="64.982422"/>
     <use xlink:href="#DejaVuSans-66" x="126.505859"/>
     <use xlink:href="#DejaVuSans-6c" x="161.710938"/>
     <use xlink:href="#DejaVuSans-65" x="189.494141"/>
     <use xlink:href="#DejaVuSans-63" x="251.017578"/>
     <use xlink:href="#DejaVuSans-74" x="305.998047"/>
     <use xlink:href="#DejaVuSans-6f" x="345.207031"/>
     <use xlink:href="#DejaVuSans-72" x="406.388672"/>
     <use xlink:href="#DejaVuSans-20" x="447.501953"/>
     <use xlink:href="#DejaVuSans-52" x="479.289062"/>
     <use xlink:href="#DejaVuSans-61" x="546.521484"/>
     <use xlink:href="#DejaVuSans-77" x="607.800781"/>
     <use xlink:href="#DejaVuSans-20" x="689.587891"/>
     <use xlink:href="#DejaVuSans-56" x="721.375"/>
     <use xlink:href="#DejaVuSans-61" x="782.033203"/>
     <use xlink:href="#DejaVuSans-6c" x="843.3125"/>
     <use xlink:href="#DejaVuSans-75" x="871.095703"/>
     <use xlink:href="#DejaVuSans-65" x="934.474609"/>
    </g>
   </g>
   <g id="legend_1">
    <g id="patch_7">
     <path d="M 63.928125 115.044375 
L 131.34375 115.044375 
Q 133.34375 115.044375 133.34375 113.044375 
L 133.34375 55.331875 
Q 133.34375 53.331875 131.34375 53.331875 
L 63.928125 53.331875 
Q 61.928125 53.331875 61.928125 55.331875 
L 61.928125 113.044375 
Q 61.928125 115.044375 63.928125 115.044375 
z
" style="fill: #ffffff; opacity: 0.8; stroke: #cccccc; stroke-linejoin: miter"/>
    </g>
    <g id="line2d_23">
     <path d="M 65.928125 61.430313 
L 75.928125 61.430313 
L 85.928125 61.430313 
" style="fill: none; stroke: #1f77b4; stroke-width: 1.5; stroke-linecap: square"/>
    </g>
    <g id="text_7">
     <!-- L Side -->
     <g transform="translate(93.928125 64.930313)scale(0.1 -0.1)">
      <defs>
       <path id="DejaVuSans-4c" d="M 628 4666 
L 1259 4666 
L 1259 531 
L 3531 531 
L 3531 0 
L 628 0 
L 628 4666 
z
" transform="scale(0.015625)"/>
       <path id="DejaVuSans-53" d="M 3425 4513 
L 3425 3897 
Q 3066 4069 2747 4153 
Q 2428 4238 2131 4238 
Q 1616 4238 1336 4038 
Q 1056 3838 1056 3469 
Q 1056 3159 1242 3001 
Q 1428 2844 1947 2747 
L 2328 2669 
Q 3034 2534 3370 2195 
Q 3706 1856 3706 1288 
Q 3706 609 3251 259 
Q 2797 -91 1919 -91 
Q 1588 -91 1214 -16 
Q 841 59 441 206 
L 441 856 
Q 825 641 1194 531 
Q 1563 422 1919 422 
Q 2459 422 2753 634 
Q 3047 847 3047 1241 
Q 3047 1584 2836 1778 
Q 2625 1972 2144 2069 
L 1759 2144 
Q 1053 2284 737 2584 
Q 422 2884 422 3419 
Q 422 4038 858 4394 
Q 1294 4750 2059 4750 
Q 2388 4750 2728 4690 
Q 3069 4631 3425 4513 
z
" transform="scale(0.015625)"/>
       <path id="DejaVuSans-69" d="M 603 3500 
L 1178 3500 
L 1178 0 
L 603 0 
L 603 3500 
z
M 603 4863 
L 1178 4863 
L 1178 4134 
L 603 4134 
L 603 4863 
z
" transform="scale(0.015625)"/>
       <path id="DejaVuSans-64" d="M 2906 2969 
L 2906 4863 
L 3481 4863 
L 3481 0 
L 2906 0 
L 2906 525 
Q 2725 213 2448 61 
Q 2172 -91 1784 -91 
Q 1150 -91 751 415 
Q 353 922 353 1747 
Q 353 2572 751 3078 
Q 1150 3584 1784 3584 
Q 2172 3584 2448 3432 
Q 2725 3281 2906 2969 
z
M 947 1747 
Q 947 1113 1208 752 
Q 1469 391 1925 391 
Q 2381 391 2643 752 
Q 2906 1113 2906 1747 
Q 2906 2381 2643 2742 
Q 2381 3103 1925 3103 
Q 1469 3103 1208 2742 
Q 947 2381 947 1747 
z
" transform="scale(0.015625)"/>
      </defs>
      <use xlink:href="#DejaVuSans-4c"/>
      <use xlink:href="#DejaVuSans-20" x="55.712891"/>
      <use xlink:href="#DejaVuSans-53" x="87.5"/>
      <use xlink:href="#DejaVuSans-69" x="150.976562"/>
      <use xlink:href="#DejaVuSans-64" x="178.759766"/>
      <use xlink:href="#DejaVuSans-65" x="242.236328"/>
     </g>
    </g>
    <g id="line2d_24">
     <path d="M 65.928125 76.108438 
L 75.928125 76.108438 
L 85.928125 76.108438 
" style="fill: none; stroke: #ff7f0e; stroke-width: 1.5; stroke-linecap: square"/>
    </g>
    <g id="text_8">
     <!-- L Front -->
     <g transform="translate(93.928125 79.608438)scale(0.1 -0.1)">
      <defs>
       <path id="DejaVuSans-46" d="M 628 4666 
L 3309 4666 
L 3309 4134 
L 1259 4134 
L 1259 2759 
L 3109 2759 
L 3109 2228 
L 1259 2228 
L 1259 0 
L 628 0 
L 628 4666 
z
" transform="scale(0.015625)"/>
       <path id="DejaVuSans-6e" d="M 3513 2113 
L 3513 0 
L 2938 0 
L 2938 2094 
Q 2938 2591 2744 2837 
Q 2550 3084 2163 3084 
Q 1697 3084 1428 2787 
Q 1159 2491 1159 1978 
L 1159 0 
L 581 0 
L 581 3500 
L 1159 3500 
L 1159 2956 
Q 1366 3272 1645 3428 
Q 1925 3584 2291 3584 
Q 2894 3584 3203 3211 
Q 3513 2838 3513 2113 
z
" transform="scale(0.015625)"/>
      </defs>
      <use xlink:href="#DejaVuSans-4c"/>
      <use xlink:href="#DejaVuSans-20" x="55.712891"/>
      <use xlink:href="#DejaVuSans-46" x="87.5"/>
      <use xlink:href="#DejaVuSans-72" x="137.769531"/>
      <use xlink:href="#DejaVuSans-6f" x="176.632812"/>
      <use xlink:href="#DejaVuSans-6e" x="237.814453"/>
      <use xlink:href="#DejaVuSans-74" x="301.193359"/>
     </g>
    </g>
    <g id="line2d_25">
     <path d="M 65.928125 90.786563 
L 75.928125 90.786563 
L 85.928125 90.786563 
" style="fill: none; stroke: #2ca02c; stroke-width: 1.5; stroke-linecap: square"/>
    </g>
    <g id="text_9">
     <!-- R Front -->
     <g transform="translate(93.928125 94.286563)scale(0.1 -0.1)">
      <use xlink:href="#DejaVuSans-52"/>
      <use xlink:href="#DejaVuSans-20" x="69.482422"/>
      <use xlink:href="#DejaVuSans-46" x="101.269531"/>
      <use xlink:href="#DejaVuSans-72" x="151.539062"/>
      <use xlink:href="#DejaVuSans-6f" x="190.402344"/>
      <use xlink:href="#DejaVuSans-6e" x="251.583984"/>
      <use xlink:href="#DejaVuSans-74" x="314.962891"/>
     </g>
    </g>
    <g id="line2d_26">
     <path d="M 65.928125 105.464688 
L 75.928125 105.464688 
L 85.928125 105.464688 
" style="fill: none; stroke: #d62728; stroke-width: 1.5; stroke-linecap: square"/>
    </g>
    <g id="text_10">
     <!-- R Side -->
     <g transform="translate(93.928125 108.964688)scale(0.1 -0.1)">
      <use xlink:href="#DejaVuSans-52"/>
      <use xlink:href="#DejaVuSans-20" x="69.482422"/>
      <use xlink:href="#DejaVuSans-53" x="101.269531"/>
      <use xlink:href="#DejaVuSans-69" x="164.746094"/>
      <use xlink:href="#DejaVuSans-64" x="192.529297"/>
      <use xlink:href="#DejaVuSans-65" x="256.005859"/>
     </g>
    </g>
   </g>
  </g>
  <g id="axes_2">
   <g id="patch_8">
    <path d="M 56.928125 304.44375 
L 450 304.44375 
L 450 191.096875 
L 56.928125 191.096875 
z
" style="fill: #ffffff"/>
   </g>
   <g id="matplotlib.axis_3">
    <g id="xtick_6">
     <g id="line2d_27">
      <path d="M 74.795028 304.44375 
L 74.795028 191.096875 
" clip-path="url(#p4510b86d4c)" style="fill: none; stroke: #b0b0b0; stroke-width: 0.8; stroke-linecap: square"/>
     </g>
     <g id="line2d_28">
      <g>
       <use xlink:href="#m6fedeb76d0" x="74.795028" y="304.44375" style="stroke: #000000; stroke-width: 0.8"/>
      </g>
     </g>
     <g id="text_11">
      <!-- 0 -->
      <g transform="translate(71.613778 319.042187)scale(0.1 -0.1)">
       <use xlink:href="#DejaVuSans-30"/>
      </g>
     </g>
    </g>
    <g id="xtick_7">
     <g id="line2d_29">
      <path d="M 154.203488 304.44375 
L 154.203488 191.096875 
" clip-path="url(#p4510b86d4c)" style="fill: none; stroke: #b0b0b0; stroke-width: 0.8; stroke-linecap: square"/>
     </g>
     <g id="line2d_30">
      <g>
       <use xlink:href="#m6fedeb76d0" x="154.203488" y="304.44375" style="stroke: #000000; stroke-width: 0.8"/>
      </g>
     </g>
     <g id="text_12">
      <!-- 100 -->
      <g transform="translate(144.659738 319.042187)scale(0.1 -0.1)">
       <use xlink:href="#DejaVuSans-31"/>
       <use xlink:href="#DejaVuSans-30" x="63.623047"/>
       <use xlink:href="#DejaVuSans-30" x="127.246094"/>
      </g>
     </g>
    </g>
    <g id="xtick_8">
     <g id="line2d_31">
      <path d="M 233.611948 304.44375 
L 233.611948 191.096875 
" clip-path="url(#p4510b86d4c)" style="fill: none; stroke: #b0b0b0; stroke-width: 0.8; stroke-linecap: square"/>
     </g>
     <g id="line2d_32">
      <g>
       <use xlink:href="#m6fedeb76d0" x="233.611948" y="304.44375" style="stroke: #000000; stroke-width: 0.8"/>
      </g>
     </g>
     <g id="text_13">
      <!-- 200 -->
      <g transform="translate(224.068198 319.042187)scale(0.1 -0.1)">
       <defs>
        <path id="DejaVuSans-32" d="M 1228 531 
L 3431 531 
L 3431 0 
L 469 0 
L 469 531 
Q 828 903 1448 1529 
Q 2069 2156 2228 2338 
Q 2531 2678 2651 2914 
Q 2772 3150 2772 3378 
Q 2772 3750 2511 3984 
Q 2250 4219 1831 4219 
Q 1534 4219 1204 4116 
Q 875 4013 500 3803 
L 500 4441 
Q 881 4594 1212 4672 
Q 1544 4750 1819 4750 
Q 2544 4750 2975 4387 
Q 3406 4025 3406 3419 
Q 3406 3131 3298 2873 
Q 3191 2616 2906 2266 
Q 2828 2175 2409 1742 
Q 1991 1309 1228 531 
z
" transform="scale(0.015625)"/>
       </defs>
       <use xlink:href="#DejaVuSans-32"/>
       <use xlink:href="#DejaVuSans-30" x="63.623047"/>
       <use xlink:href="#DejaVuSans-30" x="127.246094"/>
      </g>
     </g>
    </g>
    <g id="xtick_9">
     <g id="line2d_33">
      <path d="M 313.020407 304.44375 
L 313.020407 191.096875 
" clip-path="url(#p4510b86d4c)" style="fill: none; stroke: #b0b0b0; stroke-width: 0.8; stroke-linecap: square"/>
     </g>
     <g id="line2d_34">
      <g>
       <use xlink:href="#m6fedeb76d0" x="313.020407" y="304.44375" style="stroke: #000000; stroke-width: 0.8"/>
      </g>
     </g>
     <g id="text_14">
      <!-- 300 -->
      <g transform="translate(303.476657 319.042187)scale(0.1 -0.1)">
       <defs>
        <path id="DejaVuSans-33" d="M 2597 2516 
Q 3050 2419 3304 2112 
Q 3559 1806 3559 1356 
Q 3559 666 3084 287 
Q 2609 -91 1734 -91 
Q 1441 -91 1130 -33 
Q 819 25 488 141 
L 488 750 
Q 750 597 1062 519 
Q 1375 441 1716 441 
Q 2309 441 2620 675 
Q 2931 909 2931 1356 
Q 2931 1769 2642 2001 
Q 2353 2234 1838 2234 
L 1294 2234 
L 1294 2753 
L 1863 2753 
Q 2328 2753 2575 2939 
Q 2822 3125 2822 3475 
Q 2822 3834 2567 4026 
Q 2313 4219 1838 4219 
Q 1578 4219 1281 4162 
Q 984 4106 628 3988 
L 628 4550 
Q 988 4650 1302 4700 
Q 1616 4750 1894 4750 
Q 2613 4750 3031 4423 
Q 3450 4097 3450 3541 
Q 3450 3153 3228 2886 
Q 3006 2619 2597 2516 
z
" transform="scale(0.015625)"/>
       </defs>
       <use xlink:href="#DejaVuSans-33"/>
       <use xlink:href="#DejaVuSans-30" x="63.623047"/>
       <use xlink:href="#DejaVuSans-30" x="127.246094"/>
      </g>
     </g>
    </g>
    <g id="xtick_10">
     <g id="line2d_35">
      <path d="M 392.428867 304.44375 
L 392.428867 191.096875 
" clip-path="url(#p4510b86d4c)" style="fill: none; stroke: #b0b0b0; stroke-width: 0.8; stroke-linecap: square"/>
     </g>
     <g id="line2d_36">
      <g>
       <use xlink:href="#m6fedeb76d0" x="392.428867" y="304.44375" style="stroke: #000000; stroke-width: 0.8"/>
      </g>
     </g>
     <g id="text_15">
      <!-- 400 -->
      <g transform="translate(382.885117 319.042187)scale(0.1 -0.1)">
       <defs>
        <path id="DejaVuSans-34" d="M 2419 4116 
L 825 1625 
L 2419 1625 
L 2419 4116 
z
M 2253 4666 
L 3047 4666 
L 3047 1625 
L 3713 1625 
L 3713 1100 
L 3047 1100 
L 3047 0 
L 2419 0 
L 2419 1100 
L 313 1100 
L 313 1709 
L 2253 4666 
z
" transform="scale(0.015625)"/>
       </defs>
       <use xlink:href="#DejaVuSans-34"/>
       <use xlink:href="#DejaVuSans-30" x="63.623047"/>
       <use xlink:href="#DejaVuSans-30" x="127.246094"/>
      </g>
     </g>
    </g>
    <g id="text_16">
     <!-- Translational Position [mm] -->
     <g transform="translate(185.486719 332.720312)scale(0.1 -0.1)">
      <defs>
       <path id="DejaVuSans-54" d="M -19 4666 
L 3928 4666 
L 3928 4134 
L 2272 4134 
L 2272 0 
L 1638 0 
L 1638 4134 
L -19 4134 
L -19 4666 
z
" transform="scale(0.015625)"/>
       <path id="DejaVuSans-73" d="M 2834 3397 
L 2834 2853 
Q 2591 2978 2328 3040 
Q 2066 3103 1784 3103 
Q 1356 3103 1142 2972 
Q 928 2841 928 2578 
Q 928 2378 1081 2264 
Q 1234 2150 1697 2047 
L 1894 2003 
Q 2506 1872 2764 1633 
Q 3022 1394 3022 966 
Q 3022 478 2636 193 
Q 2250 -91 1575 -91 
Q 1294 -91 989 -36 
Q 684 19 347 128 
L 347 722 
Q 666 556 975 473 
Q 1284 391 1588 391 
Q 1994 391 2212 530 
Q 2431 669 2431 922 
Q 2431 1156 2273 1281 
Q 2116 1406 1581 1522 
L 1381 1569 
Q 847 1681 609 1914 
Q 372 2147 372 2553 
Q 372 3047 722 3315 
Q 1072 3584 1716 3584 
Q 2034 3584 2315 3537 
Q 2597 3491 2834 3397 
z
" transform="scale(0.015625)"/>
       <path id="DejaVuSans-50" d="M 1259 4147 
L 1259 2394 
L 2053 2394 
Q 2494 2394 2734 2622 
Q 2975 2850 2975 3272 
Q 2975 3691 2734 3919 
Q 2494 4147 2053 4147 
L 1259 4147 
z
M 628 4666 
L 2053 4666 
Q 2838 4666 3239 4311 
Q 3641 3956 3641 3272 
Q 3641 2581 3239 2228 
Q 2838 1875 2053 1875 
L 1259 1875 
L 1259 0 
L 628 0 
L 628 4666 
z
" transform="scale(0.015625)"/>
       <path id="DejaVuSans-5b" d="M 550 4863 
L 1875 4863 
L 1875 4416 
L 1125 4416 
L 1125 -397 
L 1875 -397 
L 1875 -844 
L 550 -844 
L 550 4863 
z
" transform="scale(0.015625)"/>
       <path id="DejaVuSans-6d" d="M 3328 2828 
Q 3544 3216 3844 3400 
Q 4144 3584 4550 3584 
Q 5097 3584 5394 3201 
Q 5691 2819 5691 2113 
L 5691 0 
L 5113 0 
L 5113 2094 
Q 5113 2597 4934 2840 
Q 4756 3084 4391 3084 
Q 3944 3084 3684 2787 
Q 3425 2491 3425 1978 
L 3425 0 
L 2847 0 
L 2847 2094 
Q 2847 2600 2669 2842 
Q 2491 3084 2119 3084 
Q 1678 3084 1418 2786 
Q 1159 2488 1159 1978 
L 1159 0 
L 581 0 
L 581 3500 
L 1159 3500 
L 1159 2956 
Q 1356 3278 1631 3431 
Q 1906 3584 2284 3584 
Q 2666 3584 2933 3390 
Q 3200 3197 3328 2828 
z
" transform="scale(0.015625)"/>
       <path id="DejaVuSans-5d" d="M 1947 4863 
L 1947 -844 
L 622 -844 
L 622 -397 
L 1369 -397 
L 1369 4416 
L 622 4416 
L 622 4863 
L 1947 4863 
z
" transform="scale(0.015625)"/>
      </defs>
      <use xlink:href="#DejaVuSans-54"/>
      <use xlink:href="#DejaVuSans-72" x="46.333984"/>
      <use xlink:href="#DejaVuSans-61" x="87.447266"/>
      <use xlink:href="#DejaVuSans-6e" x="148.726562"/>
      <use xlink:href="#DejaVuSans-73" x="212.105469"/>
      <use xlink:href="#DejaVuSans-6c" x="264.205078"/>
      <use xlink:href="#DejaVuSans-61" x="291.988281"/>
      <use xlink:href="#DejaVuSans-74" x="353.267578"/>
      <use xlink:href="#DejaVuSans-69" x="392.476562"/>
      <use xlink:href="#DejaVuSans-6f" x="420.259766"/>
      <use xlink:href="#DejaVuSans-6e" x="481.441406"/>
      <use xlink:href="#DejaVuSans-61" x="544.820312"/>
      <use xlink:href="#DejaVuSans-6c" x="606.099609"/>
      <use xlink:href="#DejaVuSans-20" x="633.882812"/>
      <use xlink:href="#DejaVuSans-50" x="665.669922"/>
      <use xlink:href="#DejaVuSans-6f" x="722.347656"/>
      <use xlink:href="#DejaVuSans-73" x="783.529297"/>
      <use xlink:href="#DejaVuSans-69" x="835.628906"/>
      <use xlink:href="#DejaVuSans-74" x="863.412109"/>
      <use xlink:href="#DejaVuSans-69" x="902.621094"/>
      <use xlink:href="#DejaVuSans-6f" x="930.404297"/>
      <use xlink:href="#DejaVuSans-6e" x="991.585938"/>
      <use xlink:href="#DejaVuSans-20" x="1054.964844"/>
      <use xlink:href="#DejaVuSans-5b" x="1086.751953"/>
      <use xlink:href="#DejaVuSans-6d" x="1125.765625"/>
      <use xlink:href="#DejaVuSans-6d" x="1223.177734"/>
      <use xlink:href="#DejaVuSans-5d" x="1320.589844"/>
     </g>
    </g>
   </g>
   <g id="matplotlib.axis_4">
    <g id="ytick_5">
     <g id="line2d_37">
      <path d="M 56.928125 301.028293 
L 450 301.028293 
" clip-path="url(#p4510b86d4c)" style="fill: none; stroke: #b0b0b0; stroke-width: 0.8; stroke-linecap: square"/>
     </g>
     <g id="line2d_38">
      <g>
       <use xlink:href="#m1c5ea39786" x="56.928125" y="301.028293" style="stroke: #000000; stroke-width: 0.8"/>
      </g>
     </g>
     <g id="text_17">
      <!-- 100 -->
      <g transform="translate(30.840625 304.827511)scale(0.1 -0.1)">
       <use xlink:href="#DejaVuSans-31"/>
       <use xlink:href="#DejaVuSans-30" x="63.623047"/>
       <use xlink:href="#DejaVuSans-30" x="127.246094"/>
      </g>
     </g>
    </g>
    <g id="ytick_6">
     <g id="line2d_39">
      <path d="M 56.928125 272.083738 
L 450 272.083738 
" clip-path="url(#p4510b86d4c)" style="fill: none; stroke: #b0b0b0; stroke-width: 0.8; stroke-linecap: square"/>
     </g>
     <g id="line2d_40">
      <g>
       <use xlink:href="#m1c5ea39786" x="56.928125" y="272.083738" style="stroke: #000000; stroke-width: 0.8"/>
      </g>
     </g>
     <g id="text_18">
      <!-- 150 -->
      <g transform="translate(30.840625 275.882957)scale(0.1 -0.1)">
       <use xlink:href="#DejaVuSans-31"/>
       <use xlink:href="#DejaVuSans-35" x="63.623047"/>
       <use xlink:href="#DejaVuSans-30" x="127.246094"/>
      </g>
     </g>
    </g>
    <g id="ytick_7">
     <g id="line2d_41">
      <path d="M 56.928125 243.139184 
L 450 243.139184 
" clip-path="url(#p4510b86d4c)" style="fill: none; stroke: #b0b0b0; stroke-width: 0.8; stroke-linecap: square"/>
     </g>
     <g id="line2d_42">
      <g>
       <use xlink:href="#m1c5ea39786" x="56.928125" y="243.139184" style="stroke: #000000; stroke-width: 0.8"/>
      </g>
     </g>
     <g id="text_19">
      <!-- 200 -->
      <g transform="translate(30.840625 246.938403)scale(0.1 -0.1)">
       <use xlink:href="#DejaVuSans-32"/>
       <use xlink:href="#DejaVuSans-30" x="63.623047"/>
       <use xlink:href="#DejaVuSans-30" x="127.246094"/>
      </g>
     </g>
    </g>
    <g id="ytick_8">
     <g id="line2d_43">
      <path d="M 56.928125 214.194629 
L 450 214.194629 
" clip-path="url(#p4510b86d4c)" style="fill: none; stroke: #b0b0b0; stroke-width: 0.8; stroke-linecap: square"/>
     </g>
     <g id="line2d_44">
      <g>
       <use xlink:href="#m1c5ea39786" x="56.928125" y="214.194629" style="stroke: #000000; stroke-width: 0.8"/>
      </g>
     </g>
     <g id="text_20">
      <!-- 250 -->
      <g transform="translate(30.840625 217.993848)scale(0.1 -0.1)">
       <use xlink:href="#DejaVuSans-32"/>
       <use xlink:href="#DejaVuSans-35" x="63.623047"/>
       <use xlink:href="#DejaVuSans-30" x="127.246094"/>
      </g>
     </g>
    </g>
    <g id="text_21">
     <!-- wall distance [mm] -->
     <g transform="translate(24.760938 295.708594)rotate(-90)scale(0.1 -0.1)">
      <use xlink:href="#DejaVuSans-77"/>
      <use xlink:href="#DejaVuSans-61" x="81.787109"/>
      <use xlink:href="#DejaVuSans-6c" x="143.066406"/>
      <use xlink:href="#DejaVuSans-6c" x="170.849609"/>
      <use xlink:href="#DejaVuSans-20" x="198.632812"/>
      <use xlink:href="#DejaVuSans-64" x="230.419922"/>
      <use xlink:href="#DejaVuSans-69" x="293.896484"/>
      <use xlink:href="#DejaVuSans-73" x="321.679688"/>
      <use xlink:href="#DejaVuSans-74" x="373.779297"/>
      <use xlink:href="#DejaVuSans-61" x="412.988281"/>
      <use xlink:href="#DejaVuSans-6e" x="474.267578"/>
      <use xlink:href="#DejaVuSans-63" x="537.646484"/>
      <use xlink:href="#DejaVuSans-65" x="592.626953"/>
      <use xlink:href="#DejaVuSans-20" x="654.150391"/>
      <use xlink:href="#DejaVuSans-5b" x="685.9375"/>
      <use xlink:href="#DejaVuSans-6d" x="724.951172"/>
      <use xlink:href="#DejaVuSans-6d" x="822.363281"/>
      <use xlink:href="#DejaVuSans-5d" x="919.775391"/>
     </g>
    </g>
   </g>
   <g id="line2d_45">
    <path d="M 74.795028 236.771382 
L 74.826792 236.771382 
L 74.925099 196.249006 
L 348.198355 196.249006 
L 348.674806 239.665837 
L 356.298018 239.665837 
L 356.774468 240.823619 
L 363.92123 240.823619 
L 364.397681 246.61253 
L 371.544442 246.61253 
L 372.020893 250.664768 
L 378.691203 250.664768 
L 379.167654 257.03257 
L 385.837965 257.03257 
L 386.314415 261.084808 
L 392.508275 261.084808 
L 392.984726 265.137045 
L 399.178586 265.137045 
L 399.655037 269.768174 
L 405.372446 269.768174 
L 405.848896 273.24152 
L 411.566306 273.24152 
L 412.042756 278.45154 
L 417.045489 278.45154 
L 417.442532 281.345996 
L 421.889405 281.345996 
L 422.286448 285.398233 
L 425.859828 285.398233 
L 426.177462 289.450471 
L 428.797941 289.450471 
L 429.036167 290.029362 
L 430.783153 290.029362 
L 430.94197 292.344926 
L 431.656646 292.344926 
L 431.656646 292.344926 
L 431.815463 294.0816 
L 431.815463 294.0816 
L 432.053688 294.0816 
L 432.053688 294.0816 
L 432.133097 299.291619 
L 432.133097 298.712728 
" clip-path="url(#p4510b86d4c)" style="fill: none; stroke: #1f77b4; stroke-width: 1.5; stroke-linecap: square"/>
   </g>
   <g id="patch_9">
    <path d="M 56.928125 304.44375 
L 56.928125 191.096875 
" style="fill: none; stroke: #000000; stroke-width: 0.8; stroke-linejoin: miter; stroke-linecap: square"/>
   </g>
   <g id="patch_10">
    <path d="M 450 304.44375 
L 450 191.096875 
" style="fill: none; stroke: #000000; stroke-width: 0.8; stroke-linejoin: miter; stroke-linecap: square"/>
   </g>
   <g id="patch_11">
    <path d="M 56.928125 304.44375 
L 450 304.44375 
" style="fill: none; stroke: #000000; stroke-width: 0.8; stroke-linejoin: miter; stroke-linecap: square"/>
   </g>
   <g id="patch_12">
    <path d="M 56.928125 191.096875 
L 450 191.096875 
" style="fill: none; stroke: #000000; stroke-width: 0.8; stroke-linejoin: miter; stroke-linecap: square"/>
   </g>
   <g id="text_22">
    <!-- Front Wall Distance [mm] -->
    <g transform="translate(177.40375 185.096875)scale(0.12 -0.12)">
     <defs>
      <path id="DejaVuSans-57" d="M 213 4666 
L 850 4666 
L 1831 722 
L 2809 4666 
L 3519 4666 
L 4500 722 
L 5478 4666 
L 6119 4666 
L 4947 0 
L 4153 0 
L 3169 4050 
L 2175 0 
L 1381 0 
L 213 4666 
z
" transform="scale(0.015625)"/>
      <path id="DejaVuSans-44" d="M 1259 4147 
L 1259 519 
L 2022 519 
Q 2988 519 3436 956 
Q 3884 1394 3884 2338 
Q 3884 3275 3436 3711 
Q 2988 4147 2022 4147 
L 1259 4147 
z
M 628 4666 
L 1925 4666 
Q 3281 4666 3915 4102 
Q 4550 3538 4550 2338 
Q 4550 1131 3912 565 
Q 3275 0 1925 0 
L 628 0 
L 628 4666 
z
" transform="scale(0.015625)"/>
     </defs>
     <use xlink:href="#DejaVuSans-46"/>
     <use xlink:href="#DejaVuSans-72" x="50.269531"/>
     <use xlink:href="#DejaVuSans-6f" x="89.132812"/>
     <use xlink:href="#DejaVuSans-6e" x="150.314453"/>
     <use xlink:href="#DejaVuSans-74" x="213.693359"/>
     <use xlink:href="#DejaVuSans-20" x="252.902344"/>
     <use xlink:href="#DejaVuSans-57" x="284.689453"/>
     <use xlink:href="#DejaVuSans-61" x="377.191406"/>
     <use xlink:href="#DejaVuSans-6c" x="438.470703"/>
     <use xlink:href="#DejaVuSans-6c" x="466.253906"/>
     <use xlink:href="#DejaVuSans-20" x="494.037109"/>
     <use xlink:href="#DejaVuSans-44" x="525.824219"/>
     <use xlink:href="#DejaVuSans-69" x="602.826172"/>
     <use xlink:href="#DejaVuSans-73" x="630.609375"/>
     <use xlink:href="#DejaVuSans-74" x="682.708984"/>
     <use xlink:href="#DejaVuSans-61" x="721.917969"/>
     <use xlink:href="#DejaVuSans-6e" x="783.197266"/>
     <use xlink:href="#DejaVuSans-63" x="846.576172"/>
     <use xlink:href="#DejaVuSans-65" x="901.556641"/>
     <use xlink:href="#DejaVuSans-20" x="963.080078"/>
     <use xlink:href="#DejaVuSans-5b" x="994.867188"/>
     <use xlink:href="#DejaVuSans-6d" x="1033.880859"/>
     <use xlink:href="#DejaVuSans-6d" x="1131.292969"/>
     <use xlink:href="#DejaVuSans-5d" x="1228.705078"/>
    </g>
   </g>
   <g id="legend_2">
    <g id="patch_13">
     <path d="M 394.721875 213.775 
L 443 213.775 
Q 445 213.775 445 211.775 
L 445 198.096875 
Q 445 196.096875 443 196.096875 
L 394.721875 196.096875 
Q 392.721875 196.096875 392.721875 198.096875 
L 392.721875 211.775 
Q 392.721875 213.775 394.721875 213.775 
z
" style="fill: #ffffff; opacity: 0.8; stroke: #cccccc; stroke-linejoin: miter"/>
    </g>
    <g id="line2d_46">
     <path d="M 396.721875 204.195312 
L 406.721875 204.195312 
L 416.721875 204.195312 
" style="fill: none; stroke: #1f77b4; stroke-width: 1.5; stroke-linecap: square"/>
    </g>
    <g id="text_23">
     <!-- ToF -->
     <g transform="translate(424.721875 207.695312)scale(0.1 -0.1)">
      <use xlink:href="#DejaVuSans-54"/>
      <use xlink:href="#DejaVuSans-6f" x="44.083984"/>
      <use xlink:href="#DejaVuSans-46" x="105.265625"/>
     </g>
    </g>
   </g>
  </g>
  <g id="text_24">
   <!-- Reflector Raw Value and ToF Distance -->
   <g transform="translate(117.629063 16.030125)scale(0.12 -0.12)">
    <use xlink:href="#DejaVuSans-52"/>
    <use xlink:href="#DejaVuSans-65" x="64.982422"/>
    <use xlink:href="#DejaVuSans-66" x="126.505859"/>
    <use xlink:href="#DejaVuSans-6c" x="161.710938"/>
    <use xlink:href="#DejaVuSans-65" x="189.494141"/>
    <use xlink:href="#DejaVuSans-63" x="251.017578"/>
    <use xlink:href="#DejaVuSans-74" x="305.998047"/>
    <use xlink:href="#DejaVuSans-6f" x="345.207031"/>
    <use xlink:href="#DejaVuSans-72" x="406.388672"/>
    <use xlink:href="#DejaVuSans-20" x="447.501953"/>
    <use xlink:href="#DejaVuSans-52" x="479.289062"/>
    <use xlink:href="#DejaVuSans-61" x="546.521484"/>
    <use xlink:href="#DejaVuSans-77" x="607.800781"/>
    <use xlink:href="#DejaVuSans-20" x="689.587891"/>
    <use xlink:href="#DejaVuSans-56" x="721.375"/>
    <use xlink:href="#DejaVuSans-61" x="782.033203"/>
    <use xlink:href="#DejaVuSans-6c" x="843.3125"/>
    <use xlink:href="#DejaVuSans-75" x="871.095703"/>
    <use xlink:href="#DejaVuSans-65" x="934.474609"/>
    <use xlink:href="#DejaVuSans-20" x="995.998047"/>
    <use xlink:href="#DejaVuSans-61" x="1027.785156"/>
    <use xlink:href="#DejaVuSans-6e" x="1089.064453"/>
    <use xlink:href="#DejaVuSans-64" x="1152.443359"/>
    <use xlink:href="#DejaVuSans-20" x="1215.919922"/>
    <use xlink:href="#DejaVuSans-54" x="1247.707031"/>
    <use xlink:href="#DejaVuSans-6f" x="1291.791016"/>
    <use xlink:href="#DejaVuSans-46" x="1352.972656"/>
    <use xlink:href="#DejaVuSans-20" x="1410.492188"/>
    <use xlink:href="#DejaVuSans-44" x="1442.279297"/>
    <use xlink:href="#DejaVuSans-69" x="1519.28125"/>
    <use xlink:href="#DejaVuSans-73" x="1547.064453"/>
    <use xlink:href="#DejaVuSans-74" x="1599.164062"/>
    <use xlink:href="#DejaVuSans-61" x="1638.373047"/>
    <use xlink:href="#DejaVuSans-6e" x="1699.652344"/>
    <use xlink:href="#DejaVuSans-63" x="1763.03125"/>
    <use xlink:href="#DejaVuSans-65" x="1818.011719"/>
   </g>
  </g>
 </g>
 <defs>
  <clipPath id="p6c59c321be">
   <rect x="56.928125" y="48.331875" width="393.071875" height="113.346875"/>
  </clipPath>
  <clipPath id="p4510b86d4c">
   <rect x="56.928125" y="191.096875" width="393.071875" height="113.346875"/>
  </clipPath>
 </defs>
</svg>
