<?xml version="1.0" encoding="utf-8" standalone="no"?>
<!DOCTYPE svg PUBLIC "-//W3C//DTD SVG 1.1//EN"
  "http://www.w3.org/Graphics/SVG/1.1/DTD/svg11.dtd">
<svg xmlns:xlink="http://www.w3.org/1999/xlink" width="460.8pt" height="345.6pt" viewBox="0 0 460.8 345.6" xmlns="http://www.w3.org/2000/svg" version="1.1">
 <metadata>
  <rdf:RDF xmlns:dc="http://purl.org/dc/elements/1.1/" xmlns:cc="http://creativecommons.org/ns#" xmlns:rdf="http://www.w3.org/1999/02/22-rdf-syntax-ns#">
   <cc:Work>
    <dc:type rdf:resource="http://purl.org/dc/dcmitype/StillImage"/>
    <dc:date>2022-01-15T23:46:54.023497</dc:date>
    <dc:format>image/svg+xml</dc:format>
    <dc:creator>
     <cc:Agent>
      <dc:title>Matplotlib v3.5.1, https://matplotlib.org/</dc:title>
     </cc:Agent>
    </dc:creator>
   </cc:Work>
  </rdf:RDF>
 </metadata>
 <defs>
  <style type="text/css">*{stroke-linejoin: round; stroke-linecap: butt}</style>
 </defs>
 <g id="figure_1">
  <g id="patch_1">
   <path d="M 0 345.6 
L 460.8 345.6 
L 460.8 0 
L 0 0 
z
" style="fill: #ffffff"/>
  </g>
  <g id="axes_1">
   <g id="patch_2">
    <path d="M 58.945313 161.67875 
L 450 161.67875 
L 450 48.331875 
L 58.945313 48.331875 
z
" style="fill: #ffffff"/>
   </g>
   <g id="matplotlib.axis_1">
    <g id="xtick_1">
     <g id="line2d_1">
      <path d="M 76.720526 161.67875 
L 76.720526 48.331875 
" clip-path="url(#pb3e7c5bbc8)" style="fill: none; stroke: #b0b0b0; stroke-width: 0.8; stroke-linecap: square"/>
     </g>
     <g id="line2d_2">
      <defs>
       <path id="m8b4dc51caf" d="M 0 0 
L 0 3.5 
" style="stroke: #000000; stroke-width: 0.8"/>
      </defs>
      <g>
       <use xlink:href="#m8b4dc51caf" x="76.720526" y="161.67875" style="stroke: #000000; stroke-width: 0.8"/>
      </g>
     </g>
    </g>
    <g id="xtick_2">
     <g id="line2d_3">
      <path d="M 142.554648 161.67875 
L 142.554648 48.331875 
" clip-path="url(#pb3e7c5bbc8)" style="fill: none; stroke: #b0b0b0; stroke-width: 0.8; stroke-linecap: square"/>
     </g>
     <g id="line2d_4">
      <g>
       <use xlink:href="#m8b4dc51caf" x="142.554648" y="161.67875" style="stroke: #000000; stroke-width: 0.8"/>
      </g>
     </g>
    </g>
    <g id="xtick_3">
     <g id="line2d_5">
      <path d="M 208.388771 161.67875 
L 208.388771 48.331875 
" clip-path="url(#pb3e7c5bbc8)" style="fill: none; stroke: #b0b0b0; stroke-width: 0.8; stroke-linecap: square"/>
     </g>
     <g id="line2d_6">
      <g>
       <use xlink:href="#m8b4dc51caf" x="208.388771" y="161.67875" style="stroke: #000000; stroke-width: 0.8"/>
      </g>
     </g>
    </g>
    <g id="xtick_4">
     <g id="line2d_7">
      <path d="M 274.222893 161.67875 
L 274.222893 48.331875 
" clip-path="url(#pb3e7c5bbc8)" style="fill: none; stroke: #b0b0b0; stroke-width: 0.8; stroke-linecap: square"/>
     </g>
     <g id="line2d_8">
      <g>
       <use xlink:href="#m8b4dc51caf" x="274.222893" y="161.67875" style="stroke: #000000; stroke-width: 0.8"/>
      </g>
     </g>
    </g>
    <g id="xtick_5">
     <g id="line2d_9">
      <path d="M 340.057015 161.67875 
L 340.057015 48.331875 
" clip-path="url(#pb3e7c5bbc8)" style="fill: none; stroke: #b0b0b0; stroke-width: 0.8; stroke-linecap: square"/>
     </g>
     <g id="line2d_10">
      <g>
       <use xlink:href="#m8b4dc51caf" x="340.057015" y="161.67875" style="stroke: #000000; stroke-width: 0.8"/>
      </g>
     </g>
    </g>
    <g id="xtick_6">
     <g id="line2d_11">
      <path d="M 405.891138 161.67875 
L 405.891138 48.331875 
" clip-path="url(#pb3e7c5bbc8)" style="fill: none; stroke: #b0b0b0; stroke-width: 0.8; stroke-linecap: square"/>
     </g>
     <g id="line2d_12">
      <g>
       <use xlink:href="#m8b4dc51caf" x="405.891138" y="161.67875" style="stroke: #000000; stroke-width: 0.8"/>
      </g>
     </g>
    </g>
   </g>
   <g id="matplotlib.axis_2">
    <g id="ytick_1">
     <g id="line2d_13">
      <path d="M 58.945313 156.61439 
L 450 156.61439 
" clip-path="url(#pb3e7c5bbc8)" style="fill: none; stroke: #b0b0b0; stroke-width: 0.8; stroke-linecap: square"/>
     </g>
     <g id="line2d_14">
      <defs>
       <path id="m3fa0ac9e76" d="M 0 0 
L -3.5 0 
" style="stroke: #000000; stroke-width: 0.8"/>
      </defs>
      <g>
       <use xlink:href="#m3fa0ac9e76" x="58.945313" y="156.61439" style="stroke: #000000; stroke-width: 0.8"/>
      </g>
     </g>
     <g id="text_1">
      <!-- 0 -->
      <g transform="translate(45.582813 160.413609)scale(0.1 -0.1)">
       <defs>
        <path id="DejaVuSans-30" d="M 2034 4250 
Q 1547 4250 1301 3770 
Q 1056 3291 1056 2328 
Q 1056 1369 1301 889 
Q 1547 409 2034 409 
Q 2525 409 2770 889 
Q 3016 1369 3016 2328 
Q 3016 3291 2770 3770 
Q 2525 4250 2034 4250 
z
M 2034 4750 
Q 2819 4750 3233 4129 
Q 3647 3509 3647 2328 
Q 3647 1150 3233 529 
Q 2819 -91 2034 -91 
Q 1250 -91 836 529 
Q 422 1150 422 2328 
Q 422 3509 836 4129 
Q 1250 4750 2034 4750 
z
" transform="scale(0.015625)"/>
       </defs>
       <use xlink:href="#DejaVuSans-30"/>
      </g>
     </g>
    </g>
    <g id="ytick_2">
     <g id="line2d_15">
      <path d="M 58.945313 112.72912 
L 450 112.72912 
" clip-path="url(#pb3e7c5bbc8)" style="fill: none; stroke: #b0b0b0; stroke-width: 0.8; stroke-linecap: square"/>
     </g>
     <g id="line2d_16">
      <g>
       <use xlink:href="#m3fa0ac9e76" x="58.945313" y="112.72912" style="stroke: #000000; stroke-width: 0.8"/>
      </g>
     </g>
     <g id="text_2">
      <!-- 500 -->
      <g transform="translate(32.857813 116.528339)scale(0.1 -0.1)">
       <defs>
        <path id="DejaVuSans-35" d="M 691 4666 
L 3169 4666 
L 3169 4134 
L 1269 4134 
L 1269 2991 
Q 1406 3038 1543 3061 
Q 1681 3084 1819 3084 
Q 2600 3084 3056 2656 
Q 3513 2228 3513 1497 
Q 3513 744 3044 326 
Q 2575 -91 1722 -91 
Q 1428 -91 1123 -41 
Q 819 9 494 109 
L 494 744 
Q 775 591 1075 516 
Q 1375 441 1709 441 
Q 2250 441 2565 725 
Q 2881 1009 2881 1497 
Q 2881 1984 2565 2268 
Q 2250 2553 1709 2553 
Q 1456 2553 1204 2497 
Q 953 2441 691 2322 
L 691 4666 
z
" transform="scale(0.015625)"/>
       </defs>
       <use xlink:href="#DejaVuSans-35"/>
       <use xlink:href="#DejaVuSans-30" x="63.623047"/>
       <use xlink:href="#DejaVuSans-30" x="127.246094"/>
      </g>
     </g>
    </g>
    <g id="ytick_3">
     <g id="line2d_17">
      <path d="M 58.945313 68.84385 
L 450 68.84385 
" clip-path="url(#pb3e7c5bbc8)" style="fill: none; stroke: #b0b0b0; stroke-width: 0.8; stroke-linecap: square"/>
     </g>
     <g id="line2d_18">
      <g>
       <use xlink:href="#m3fa0ac9e76" x="58.945313" y="68.84385" style="stroke: #000000; stroke-width: 0.8"/>
      </g>
     </g>
     <g id="text_3">
      <!-- 1000 -->
      <g transform="translate(26.495313 72.643069)scale(0.1 -0.1)">
       <defs>
        <path id="DejaVuSans-31" d="M 794 531 
L 1825 531 
L 1825 4091 
L 703 3866 
L 703 4441 
L 1819 4666 
L 2450 4666 
L 2450 531 
L 3481 531 
L 3481 0 
L 794 0 
L 794 531 
z
" transform="scale(0.015625)"/>
       </defs>
       <use xlink:href="#DejaVuSans-31"/>
       <use xlink:href="#DejaVuSans-30" x="63.623047"/>
       <use xlink:href="#DejaVuSans-30" x="127.246094"/>
       <use xlink:href="#DejaVuSans-30" x="190.869141"/>
      </g>
     </g>
    </g>
    <g id="text_4">
     <!-- reflector value -->
     <g transform="translate(20.415625 141.321719)rotate(-90)scale(0.1 -0.1)">
      <defs>
       <path id="DejaVuSans-72" d="M 2631 2963 
Q 2534 3019 2420 3045 
Q 2306 3072 2169 3072 
Q 1681 3072 1420 2755 
Q 1159 2438 1159 1844 
L 1159 0 
L 581 0 
L 581 3500 
L 1159 3500 
L 1159 2956 
Q 1341 3275 1631 3429 
Q 1922 3584 2338 3584 
Q 2397 3584 2469 3576 
Q 2541 3569 2628 3553 
L 2631 2963 
z
" transform="scale(0.015625)"/>
       <path id="DejaVuSans-65" d="M 3597 1894 
L 3597 1613 
L 953 1613 
Q 991 1019 1311 708 
Q 1631 397 2203 397 
Q 2534 397 2845 478 
Q 3156 559 3463 722 
L 3463 178 
Q 3153 47 2828 -22 
Q 2503 -91 2169 -91 
Q 1331 -91 842 396 
Q 353 884 353 1716 
Q 353 2575 817 3079 
Q 1281 3584 2069 3584 
Q 2775 3584 3186 3129 
Q 3597 2675 3597 1894 
z
M 3022 2063 
Q 3016 2534 2758 2815 
Q 2500 3097 2075 3097 
Q 1594 3097 1305 2825 
Q 1016 2553 972 2059 
L 3022 2063 
z
" transform="scale(0.015625)"/>
       <path id="DejaVuSans-66" d="M 2375 4863 
L 2375 4384 
L 1825 4384 
Q 1516 4384 1395 4259 
Q 1275 4134 1275 3809 
L 1275 3500 
L 2222 3500 
L 2222 3053 
L 1275 3053 
L 1275 0 
L 697 0 
L 697 3053 
L 147 3053 
L 147 3500 
L 697 3500 
L 697 3744 
Q 697 4328 969 4595 
Q 1241 4863 1831 4863 
L 2375 4863 
z
" transform="scale(0.015625)"/>
       <path id="DejaVuSans-6c" d="M 603 4863 
L 1178 4863 
L 1178 0 
L 603 0 
L 603 4863 
z
" transform="scale(0.015625)"/>
       <path id="DejaVuSans-63" d="M 3122 3366 
L 3122 2828 
Q 2878 2963 2633 3030 
Q 2388 3097 2138 3097 
Q 1578 3097 1268 2742 
Q 959 2388 959 1747 
Q 959 1106 1268 751 
Q 1578 397 2138 397 
Q 2388 397 2633 464 
Q 2878 531 3122 666 
L 3122 134 
Q 2881 22 2623 -34 
Q 2366 -91 2075 -91 
Q 1284 -91 818 406 
Q 353 903 353 1747 
Q 353 2603 823 3093 
Q 1294 3584 2113 3584 
Q 2378 3584 2631 3529 
Q 2884 3475 3122 3366 
z
" transform="scale(0.015625)"/>
       <path id="DejaVuSans-74" d="M 1172 4494 
L 1172 3500 
L 2356 3500 
L 2356 3053 
L 1172 3053 
L 1172 1153 
Q 1172 725 1289 603 
Q 1406 481 1766 481 
L 2356 481 
L 2356 0 
L 1766 0 
Q 1100 0 847 248 
Q 594 497 594 1153 
L 594 3053 
L 172 3053 
L 172 3500 
L 594 3500 
L 594 4494 
L 1172 4494 
z
" transform="scale(0.015625)"/>
       <path id="DejaVuSans-6f" d="M 1959 3097 
Q 1497 3097 1228 2736 
Q 959 2375 959 1747 
Q 959 1119 1226 758 
Q 1494 397 1959 397 
Q 2419 397 2687 759 
Q 2956 1122 2956 1747 
Q 2956 2369 2687 2733 
Q 2419 3097 1959 3097 
z
M 1959 3584 
Q 2709 3584 3137 3096 
Q 3566 2609 3566 1747 
Q 3566 888 3137 398 
Q 2709 -91 1959 -91 
Q 1206 -91 779 398 
Q 353 888 353 1747 
Q 353 2609 779 3096 
Q 1206 3584 1959 3584 
z
" transform="scale(0.015625)"/>
       <path id="DejaVuSans-20" transform="scale(0.015625)"/>
       <path id="DejaVuSans-76" d="M 191 3500 
L 800 3500 
L 1894 563 
L 2988 3500 
L 3597 3500 
L 2284 0 
L 1503 0 
L 191 3500 
z
" transform="scale(0.015625)"/>
       <path id="DejaVuSans-61" d="M 2194 1759 
Q 1497 1759 1228 1600 
Q 959 1441 959 1056 
Q 959 750 1161 570 
Q 1363 391 1709 391 
Q 2188 391 2477 730 
Q 2766 1069 2766 1631 
L 2766 1759 
L 2194 1759 
z
M 3341 1997 
L 3341 0 
L 2766 0 
L 2766 531 
Q 2569 213 2275 61 
Q 1981 -91 1556 -91 
Q 1019 -91 701 211 
Q 384 513 384 1019 
Q 384 1609 779 1909 
Q 1175 2209 1959 2209 
L 2766 2209 
L 2766 2266 
Q 2766 2663 2505 2880 
Q 2244 3097 1772 3097 
Q 1472 3097 1187 3025 
Q 903 2953 641 2809 
L 641 3341 
Q 956 3463 1253 3523 
Q 1550 3584 1831 3584 
Q 2591 3584 2966 3190 
Q 3341 2797 3341 1997 
z
" transform="scale(0.015625)"/>
       <path id="DejaVuSans-75" d="M 544 1381 
L 544 3500 
L 1119 3500 
L 1119 1403 
Q 1119 906 1312 657 
Q 1506 409 1894 409 
Q 2359 409 2629 706 
Q 2900 1003 2900 1516 
L 2900 3500 
L 3475 3500 
L 3475 0 
L 2900 0 
L 2900 538 
Q 2691 219 2414 64 
Q 2138 -91 1772 -91 
Q 1169 -91 856 284 
Q 544 659 544 1381 
z
M 1991 3584 
L 1991 3584 
z
" transform="scale(0.015625)"/>
      </defs>
      <use xlink:href="#DejaVuSans-72"/>
      <use xlink:href="#DejaVuSans-65" x="38.863281"/>
      <use xlink:href="#DejaVuSans-66" x="100.386719"/>
      <use xlink:href="#DejaVuSans-6c" x="135.591797"/>
      <use xlink:href="#DejaVuSans-65" x="163.375"/>
      <use xlink:href="#DejaVuSans-63" x="224.898438"/>
      <use xlink:href="#DejaVuSans-74" x="279.878906"/>
      <use xlink:href="#DejaVuSans-6f" x="319.087891"/>
      <use xlink:href="#DejaVuSans-72" x="380.269531"/>
      <use xlink:href="#DejaVuSans-20" x="421.382812"/>
      <use xlink:href="#DejaVuSans-76" x="453.169922"/>
      <use xlink:href="#DejaVuSans-61" x="512.349609"/>
      <use xlink:href="#DejaVuSans-6c" x="573.628906"/>
      <use xlink:href="#DejaVuSans-75" x="601.412109"/>
      <use xlink:href="#DejaVuSans-65" x="664.791016"/>
     </g>
    </g>
   </g>
   <g id="line2d_19">
    <path d="M 76.720526 98.422522 
L 76.747491 98.510293 
L 76.936198 99.124686 
L 77.141864 98.598063 
L 77.208225 98.510293 
L 77.448651 98.685834 
L 77.543452 98.598063 
L 77.876704 98.949145 
L 78.142543 99.036916 
L 78.446696 99.124686 
L 78.978636 99.475768 
L 79.388124 100.002392 
L 80.617906 100.880097 
L 81.497449 100.967868 
L 82.143941 101.40672 
L 82.836516 102.021114 
L 83.201237 102.284426 
L 84.365184 103.513213 
L 85.201277 104.127607 
L 86.542977 105.093083 
L 87.496255 105.531936 
L 88.49825 106.321871 
L 90.084852 107.287347 
L 90.637859 107.462888 
L 92.981554 107.375117 
L 94.206068 107.111805 
L 95.48325 107.024035 
L 96.128425 107.111805 
L 100.223307 106.497412 
L 103.093675 105.883018 
L 105.318868 105.795247 
L 106.819886 105.531936 
L 109.124081 105.005313 
L 111.441442 104.039837 
L 112.218284 103.776525 
L 113.798303 103.513213 
L 115.365155 103.249902 
L 116.945174 103.162131 
L 120.895222 102.811049 
L 122.475241 102.811049 
L 124.05526 103.600984 
L 128.005307 105.795247 
L 129.585326 106.936264 
L 130.375335 107.462888 
L 131.165345 108.428364 
L 132.745364 111.06148 
L 134.325383 114.747842 
L 135.905402 119.487452 
L 137.485421 125.104766 
L 139.855449 135.286149 
L 142.225477 145.994155 
L 143.015487 148.978353 
L 143.805496 151.523699 
L 144.595506 153.45465 
L 145.385515 154.858979 
L 146.175525 155.912226 
L 146.965534 156.438849 
L 148.545553 156.526619 
L 237.092448 156.438849 
L 237.882457 156.175537 
L 238.672467 155.648914 
L 239.462476 154.771209 
L 240.252486 153.717962 
L 241.832505 150.909305 
L 242.622514 149.241665 
L 244.202533 144.940908 
L 245.782552 140.113528 
L 248.15258 132.389721 
L 249.732599 127.3868 
L 251.312618 123.437126 
L 252.102628 121.769486 
L 253.550979 119.399681 
L 254.340988 118.609746 
L 255.921007 117.468729 
L 256.711016 117.117647 
L 257.501026 116.591024 
L 259.081045 115.97663 
L 260.661064 115.274466 
L 263.821102 114.660072 
L 265.401121 115.098925 
L 267.771149 115.801089 
L 269.351168 115.888859 
L 270.141177 115.888859 
L 274.881234 114.221219 
L 275.671244 114.30899 
L 278.041272 115.274466 
L 279.621291 115.625548 
L 281.20131 115.625548 
L 281.991319 115.450007 
L 285.151357 114.133449 
L 285.941367 113.870137 
L 286.731376 113.957908 
L 288.311395 114.572301 
L 290.681424 115.362236 
L 292.261443 115.537777 
L 293.841461 115.098925 
L 295.42148 114.660072 
L 297.001499 114.39676 
L 298.581518 115.186695 
L 300.161537 116.064401 
L 300.951547 116.327712 
L 303.321575 116.503253 
L 306.481613 115.537777 
L 307.271622 115.625548 
L 311.22167 117.732041 
L 312.801689 117.907582 
L 313.591698 117.732041 
L 315.171717 116.854335 
L 316.751736 116.239942 
L 317.541746 116.327712 
L 320.701783 117.732041 
L 322.281802 117.64427 
L 323.071812 117.5565 
L 325.44184 116.327712 
L 326.23185 115.97663 
L 327.021859 116.064401 
L 330.181897 117.5565 
L 332.551926 117.468729 
L 334.921954 116.239942 
L 335.711963 116.064401 
L 336.501973 116.239942 
L 338.872001 117.5565 
L 339.662011 117.819811 
L 341.24203 117.819811 
L 342.032039 117.5565 
L 344.402068 116.327712 
L 345.192077 116.415483 
L 345.982086 116.678794 
L 348.352115 118.434205 
L 349.142124 118.873058 
L 350.722143 119.048599 
L 352.302162 118.434205 
L 353.092172 118.083123 
L 353.882181 117.907582 
L 354.672191 118.170893 
L 355.4622 118.785287 
L 357.832229 121.769486 
L 359.412247 122.998273 
L 360.202257 123.788208 
L 361.782276 124.490372 
L 362.572285 125.016996 
L 364.152304 127.737882 
L 368.102352 137.568183 
L 368.892361 139.499135 
L 370.47238 142.483333 
L 372.842408 148.276189 
L 374.422427 152.225863 
L 375.212437 153.805733 
L 376.002446 155.122291 
L 376.792456 156.087767 
L 377.582465 156.526619 
L 429.459754 156.438849 
L 430.5131 155.824455 
L 430.908104 155.912226 
L 431.039773 156.087767 
L 431.434777 155.736684 
L 431.434777 155.561143 
L 431.566446 155.210061 
L 431.829782 155.210061 
L 431.829782 155.473373 
L 431.96145 155.824455 
L 431.96145 155.736684 
L 431.96145 155.473373 
L 432.093119 155.385602 
L 432.093119 154.771209 
L 432.093119 154.771209 
L 432.224787 154.771209 
L 432.224787 155.473373 
L 432.224787 154.156815 
L 432.224787 154.507897 
" clip-path="url(#pb3e7c5bbc8)" style="fill: none; stroke: #1f77b4; stroke-width: 1.5; stroke-linecap: square"/>
   </g>
   <g id="line2d_20">
    <path d="M 76.720526 156.526619 
L 359.412247 156.438849 
L 360.992266 156.175537 
L 362.572285 155.824455 
L 365.732323 155.912226 
L 367.312342 156.175537 
L 368.892361 155.824455 
L 369.682371 155.473373 
L 371.26239 154.507897 
L 373.632418 154.507897 
L 375.212437 155.210061 
L 376.002446 155.210061 
L 377.582465 154.771209 
L 379.162484 153.279109 
L 379.952494 152.489174 
L 381.532513 152.489174 
L 382.322522 152.752486 
L 383.902541 154.244585 
L 384.692551 154.244585 
L 386.272569 153.805733 
L 388.642598 150.11937 
L 390.222617 150.11937 
L 391.012626 150.821534 
L 392.592645 152.928027 
L 393.382655 152.840257 
L 394.962674 152.138092 
L 396.542693 148.802812 
L 397.332702 148.363959 
L 398.912721 148.363959 
L 399.70273 149.680517 
L 400.49274 150.470452 
L 401.282749 151.874781 
L 402.7311 154.94675 
L 403.52111 154.069044 
L 404.96946 149.417206 
L 406.417811 144.940908 
L 408.656171 143.799891 
L 409.314512 144.414285 
L 410.631195 147.837336 
L 411.421204 147.661795 
L 412.079545 147.047401 
L 414.054569 138.972511 
L 414.581242 138.445888 
L 415.897925 137.655953 
L 417.082939 141.342316 
L 417.609612 141.166775 
L 418.794626 140.025758 
L 419.847972 134.320673 
L 421.427991 132.828574 
L 422.349669 136.866018 
L 422.744673 136.339395 
L 423.271346 136.076084 
L 423.666351 135.373919 
L 424.45636 129.581064 
L 425.641375 128.176735 
L 426.431384 132.565262 
L 426.694721 132.126409 
L 427.353062 131.248704 
L 428.27474 124.753684 
L 428.801413 123.700437 
L 429.328086 128.001194 
L 429.459754 127.123489 
L 429.986427 125.80693 
L 430.249763 119.662993 
L 430.5131 119.22414 
L 430.776436 118.258664 
L 431.039773 123.086044 
L 431.303109 121.945027 
L 431.434777 121.506174 
L 431.434777 118.521976 
L 431.566446 115.537777 
L 431.698114 115.274466 
L 431.698114 114.923383 
L 431.829782 114.572301 
L 431.829782 117.380959 
L 431.96145 119.838534 
L 431.96145 118.873058 
L 432.093119 118.609746 
L 432.093119 112.641349 
L 432.224787 112.465808 
L 432.224787 118.258664 
L 432.224787 109.218298 
L 432.224787 110.710398 
" clip-path="url(#pb3e7c5bbc8)" style="fill: none; stroke: #ff7f0e; stroke-width: 1.5; stroke-linecap: square"/>
   </g>
   <g id="line2d_21">
    <path d="M 76.720526 156.526619 
L 375.212437 156.438849 
L 379.162484 154.595667 
L 381.532513 154.595667 
L 383.112532 155.385602 
L 383.902541 155.824455 
L 385.48256 155.03452 
L 387.852588 152.401404 
L 390.222617 152.401404 
L 392.592645 154.771209 
L 394.172664 153.893503 
L 395.752683 151.084846 
L 396.542693 149.504976 
L 398.912721 149.504976 
L 399.70273 150.11937 
L 400.49274 150.997075 
L 401.282749 152.225863 
L 402.7311 154.94675 
L 404.311119 150.733764 
L 404.96946 148.627271 
L 405.75947 147.047401 
L 406.417811 145.29199 
L 408.656171 144.238744 
L 410.631195 148.5395 
L 412.079545 147.398483 
L 414.054569 140.025758 
L 415.239583 139.148052 
L 415.897925 138.7092 
L 417.082939 141.781169 
L 418.794626 139.850217 
L 419.847972 134.496214 
L 421.427991 133.091885 
L 422.349669 136.514936 
L 423.271346 135.46169 
L 423.666351 134.759525 
L 424.061356 131.687557 
L 424.45636 129.493293 
L 425.641375 128.088964 
L 426.431384 131.687557 
L 427.089725 130.63431 
L 427.353062 129.317752 
L 427.748067 126.245783 
L 428.011403 122.998273 
L 428.801413 121.506174 
L 429.328086 125.368078 
L 429.459754 124.841454 
L 429.986427 124.13929 
L 430.249763 119.136369 
L 430.776436 117.907582 
L 431.039773 122.383879 
L 431.303109 121.857256 
L 431.434777 120.452927 
L 431.434777 117.64427 
L 431.698114 115.97663 
L 431.829782 115.713318 
L 431.829782 118.083123 
L 431.96145 120.277386 
L 431.96145 120.014075 
L 432.093119 118.083123 
L 432.093119 113.957908 
L 432.224787 113.782366 
L 432.224787 118.434205 
L 432.224787 110.359315 
L 432.224787 111.675874 
" clip-path="url(#pb3e7c5bbc8)" style="fill: none; stroke: #2ca02c; stroke-width: 1.5; stroke-linecap: square"/>
   </g>
   <g id="line2d_22">
    <path d="M 76.720526 104.65423 
L 76.721948 104.56646 
L 76.773193 105.180854 
L 76.811535 105.093083 
L 76.836236 105.180854 
L 76.865097 105.005313 
L 76.898278 105.093083 
L 76.936198 105.093083 
L 77.081823 104.742001 
L 77.281301 104.65423 
L 77.361355 104.56646 
L 77.448651 104.65423 
L 77.543452 104.56646 
L 77.646153 104.65423 
L 77.876704 104.56646 
L 78.290011 104.478689 
L 78.446696 104.303148 
L 78.612598 104.478689 
L 80.899676 103.337672 
L 81.191979 103.337672 
L 82.483645 102.108885 
L 82.836516 102.196655 
L 83.964912 101.143409 
L 85.201277 100.353474 
L 85.635782 100.177933 
L 86.083454 99.563539 
L 86.542977 99.300227 
L 87.014349 98.861375 
L 88.49825 98.246981 
L 89.017023 97.983669 
L 89.546329 97.544817 
L 91.783373 96.754882 
L 92.37588 96.754882 
L 92.981554 96.4038 
L 98.827624 96.49157 
L 99.512299 96.579341 
L 100.223307 96.49157 
L 100.934316 96.667111 
L 101.645324 97.018193 
L 103.831017 97.632587 
L 106.819886 98.685834 
L 107.583562 98.685834 
L 108.347238 99.036916 
L 111.441442 99.65131 
L 112.218284 99.73908 
L 113.798303 100.177933 
L 116.155165 100.529015 
L 116.945174 100.704556 
L 118.525193 100.792327 
L 119.315203 100.967868 
L 120.895222 101.055638 
L 121.685231 101.143409 
L 123.26525 101.055638 
L 124.845269 101.40672 
L 125.635279 101.31895 
L 134.325383 103.249902 
L 135.115392 103.600984 
L 136.695411 104.56646 
L 138.27543 106.14633 
L 139.855449 108.428364 
L 141.435468 111.588103 
L 143.015487 116.064401 
L 144.595506 121.593945 
L 146.175525 127.825653 
L 150.915582 148.5395 
L 151.705591 151.084846 
L 152.495601 153.191339 
L 153.28561 154.771209 
L 154.075619 155.824455 
L 154.865629 156.351078 
L 155.655638 156.526619 
L 244.992543 156.438849 
L 246.572562 155.648914 
L 247.362571 155.03452 
L 248.15258 154.244585 
L 249.732599 151.962551 
L 251.312618 148.978353 
L 252.892637 145.555302 
L 254.340988 141.868939 
L 256.711016 136.076084 
L 258.291035 131.950868 
L 259.871054 128.352276 
L 260.661064 127.035718 
L 261.451073 126.245783 
L 262.241083 125.71916 
L 263.031092 126.158013 
L 263.821102 127.3868 
L 264.611111 129.229981 
L 265.401121 131.950868 
L 266.98114 138.972511 
L 268.561158 146.169696 
L 269.351168 149.329435 
L 270.141177 151.962551 
L 270.931187 153.981274 
L 271.721196 155.385602 
L 272.511206 156.263308 
L 273.301215 156.526619 
L 366.522333 156.526619 
L 367.312342 155.999996 
L 368.102352 155.297832 
L 368.892361 154.069044 
L 369.682371 152.313633 
L 370.47238 150.11937 
L 372.052399 144.414285 
L 373.632418 137.480412 
L 375.212437 128.615588 
L 377.582465 112.290267 
L 379.952494 95.087242 
L 380.742503 90.786485 
L 381.532513 87.187893 
L 382.322522 84.818088 
L 383.112532 82.974907 
L 383.902541 82.009431 
L 384.692551 80.868414 
L 385.48256 80.078479 
L 386.272569 79.551856 
L 387.062579 78.761921 
L 387.852588 78.235298 
L 389.432607 77.796445 
L 390.222617 77.357592 
L 392.592645 78.147527 
L 394.172664 77.00651 
L 396.542693 73.846771 
L 397.332702 73.320148 
L 398.912721 72.530213 
L 399.70273 72.705754 
L 400.49274 72.530213 
L 402.7311 73.583459 
L 404.311119 71.125884 
L 404.96946 69.809326 
L 406.417811 67.702833 
L 407.866162 66.912898 
L 408.656171 66.737357 
L 410.631195 68.931621 
L 412.079545 67.966145 
L 414.054569 63.577618 
L 414.581242 63.138765 
L 415.239583 62.787683 
L 415.897925 62.787683 
L 417.082939 64.806405 
L 417.609612 64.455323 
L 418.794626 63.9287 
L 419.321299 62.875453 
L 419.847972 61.471125 
L 420.374645 61.120043 
L 420.901318 61.120043 
L 421.427991 60.944502 
L 422.349669 64.104241 
L 422.744673 64.104241 
L 423.271346 63.840929 
L 423.666351 63.9287 
L 424.45636 61.558895 
L 425.24637 61.997748 
L 425.641375 61.909977 
L 426.431384 65.157487 
L 427.353062 64.543094 
L 428.27474 60.505649 
L 428.801413 59.715714 
L 429.328086 62.699912 
L 429.459754 62.26106 
L 429.986427 61.646666 
L 430.249763 57.696992 
L 430.644768 57.521451 
L 430.776436 57.345909 
L 431.039773 61.032272 
L 431.434777 60.242337 
L 431.434777 58.135844 
L 431.566446 55.678269 
L 431.698114 55.414958 
L 431.698114 54.800564 
L 431.829782 54.800564 
L 431.829782 56.555975 
L 431.96145 58.399156 
L 431.96145 58.135844 
L 432.093119 58.399156 
L 432.093119 54.449482 
L 432.093119 54.712793 
L 432.224787 54.712793 
L 432.224787 59.364632 
L 432.224787 53.484006 
L 432.224787 54.800564 
" clip-path="url(#pb3e7c5bbc8)" style="fill: none; stroke: #d62728; stroke-width: 1.5; stroke-linecap: square"/>
   </g>
   <g id="patch_3">
    <path d="M 58.945313 161.67875 
L 58.945313 48.331875 
" style="fill: none; stroke: #000000; stroke-width: 0.8; stroke-linejoin: miter; stroke-linecap: square"/>
   </g>
   <g id="patch_4">
    <path d="M 450 161.67875 
L 450 48.331875 
" style="fill: none; stroke: #000000; stroke-width: 0.8; stroke-linejoin: miter; stroke-linecap: square"/>
   </g>
   <g id="patch_5">
    <path d="M 58.945313 161.67875 
L 450 161.67875 
" style="fill: none; stroke: #000000; stroke-width: 0.8; stroke-linejoin: miter; stroke-linecap: square"/>
   </g>
   <g id="patch_6">
    <path d="M 58.945313 48.331875 
L 450 48.331875 
" style="fill: none; stroke: #000000; stroke-width: 0.8; stroke-linejoin: miter; stroke-linecap: square"/>
   </g>
   <g id="text_5">
    <!-- Reflector Raw Value -->
    <g transform="translate(194.712656 42.331875)scale(0.12 -0.12)">
     <defs>
      <path id="DejaVuSans-52" d="M 2841 2188 
Q 3044 2119 3236 1894 
Q 3428 1669 3622 1275 
L 4263 0 
L 3584 0 
L 2988 1197 
Q 2756 1666 2539 1819 
Q 2322 1972 1947 1972 
L 1259 1972 
L 1259 0 
L 628 0 
L 628 4666 
L 2053 4666 
Q 2853 4666 3247 4331 
Q 3641 3997 3641 3322 
Q 3641 2881 3436 2590 
Q 3231 2300 2841 2188 
z
M 1259 4147 
L 1259 2491 
L 2053 2491 
Q 2509 2491 2742 2702 
Q 2975 2913 2975 3322 
Q 2975 3731 2742 3939 
Q 2509 4147 2053 4147 
L 1259 4147 
z
" transform="scale(0.015625)"/>
      <path id="DejaVuSans-77" d="M 269 3500 
L 844 3500 
L 1563 769 
L 2278 3500 
L 2956 3500 
L 3675 769 
L 4391 3500 
L 4966 3500 
L 4050 0 
L 3372 0 
L 2619 2869 
L 1863 0 
L 1184 0 
L 269 3500 
z
" transform="scale(0.015625)"/>
      <path id="DejaVuSans-56" d="M 1831 0 
L 50 4666 
L 709 4666 
L 2188 738 
L 3669 4666 
L 4325 4666 
L 2547 0 
L 1831 0 
z
" transform="scale(0.015625)"/>
     </defs>
     <use xlink:href="#DejaVuSans-52"/>
     <use xlink:href="#DejaVuSans-65" x="64.982422"/>
     <use xlink:href="#DejaVuSans-66" x="126.505859"/>
     <use xlink:href="#DejaVuSans-6c" x="161.710938"/>
     <use xlink:href="#DejaVuSans-65" x="189.494141"/>
     <use xlink:href="#DejaVuSans-63" x="251.017578"/>
     <use xlink:href="#DejaVuSans-74" x="305.998047"/>
     <use xlink:href="#DejaVuSans-6f" x="345.207031"/>
     <use xlink:href="#DejaVuSans-72" x="406.388672"/>
     <use xlink:href="#DejaVuSans-20" x="447.501953"/>
     <use xlink:href="#DejaVuSans-52" x="479.289062"/>
     <use xlink:href="#DejaVuSans-61" x="546.521484"/>
     <use xlink:href="#DejaVuSans-77" x="607.800781"/>
     <use xlink:href="#DejaVuSans-20" x="689.587891"/>
     <use xlink:href="#DejaVuSans-56" x="721.375"/>
     <use xlink:href="#DejaVuSans-61" x="782.033203"/>
     <use xlink:href="#DejaVuSans-6c" x="843.3125"/>
     <use xlink:href="#DejaVuSans-75" x="871.095703"/>
     <use xlink:href="#DejaVuSans-65" x="934.474609"/>
    </g>
   </g>
   <g id="legend_1">
    <g id="patch_7">
     <path d="M 220.764844 115.044375 
L 288.180469 115.044375 
Q 290.180469 115.044375 290.180469 113.044375 
L 290.180469 55.331875 
Q 290.180469 53.331875 288.180469 53.331875 
L 220.764844 53.331875 
Q 218.764844 53.331875 218.764844 55.331875 
L 218.764844 113.044375 
Q 218.764844 115.044375 220.764844 115.044375 
z
" style="fill: #ffffff; opacity: 0.8; stroke: #cccccc; stroke-linejoin: miter"/>
    </g>
    <g id="line2d_23">
     <path d="M 222.764844 61.430313 
L 232.764844 61.430313 
L 242.764844 61.430313 
" style="fill: none; stroke: #1f77b4; stroke-width: 1.5; stroke-linecap: square"/>
    </g>
    <g id="text_6">
     <!-- L Side -->
     <g transform="translate(250.764844 64.930313)scale(0.1 -0.1)">
      <defs>
       <path id="DejaVuSans-4c" d="M 628 4666 
L 1259 4666 
L 1259 531 
L 3531 531 
L 3531 0 
L 628 0 
L 628 4666 
z
" transform="scale(0.015625)"/>
       <path id="DejaVuSans-53" d="M 3425 4513 
L 3425 3897 
Q 3066 4069 2747 4153 
Q 2428 4238 2131 4238 
Q 1616 4238 1336 4038 
Q 1056 3838 1056 3469 
Q 1056 3159 1242 3001 
Q 1428 2844 1947 2747 
L 2328 2669 
Q 3034 2534 3370 2195 
Q 3706 1856 3706 1288 
Q 3706 609 3251 259 
Q 2797 -91 1919 -91 
Q 1588 -91 1214 -16 
Q 841 59 441 206 
L 441 856 
Q 825 641 1194 531 
Q 1563 422 1919 422 
Q 2459 422 2753 634 
Q 3047 847 3047 1241 
Q 3047 1584 2836 1778 
Q 2625 1972 2144 2069 
L 1759 2144 
Q 1053 2284 737 2584 
Q 422 2884 422 3419 
Q 422 4038 858 4394 
Q 1294 4750 2059 4750 
Q 2388 4750 2728 4690 
Q 3069 4631 3425 4513 
z
" transform="scale(0.015625)"/>
       <path id="DejaVuSans-69" d="M 603 3500 
L 1178 3500 
L 1178 0 
L 603 0 
L 603 3500 
z
M 603 4863 
L 1178 4863 
L 1178 4134 
L 603 4134 
L 603 4863 
z
" transform="scale(0.015625)"/>
       <path id="DejaVuSans-64" d="M 2906 2969 
L 2906 4863 
L 3481 4863 
L 3481 0 
L 2906 0 
L 2906 525 
Q 2725 213 2448 61 
Q 2172 -91 1784 -91 
Q 1150 -91 751 415 
Q 353 922 353 1747 
Q 353 2572 751 3078 
Q 1150 3584 1784 3584 
Q 2172 3584 2448 3432 
Q 2725 3281 2906 2969 
z
M 947 1747 
Q 947 1113 1208 752 
Q 1469 391 1925 391 
Q 2381 391 2643 752 
Q 2906 1113 2906 1747 
Q 2906 2381 2643 2742 
Q 2381 3103 1925 3103 
Q 1469 3103 1208 2742 
Q 947 2381 947 1747 
z
" transform="scale(0.015625)"/>
      </defs>
      <use xlink:href="#DejaVuSans-4c"/>
      <use xlink:href="#DejaVuSans-20" x="55.712891"/>
      <use xlink:href="#DejaVuSans-53" x="87.5"/>
      <use xlink:href="#DejaVuSans-69" x="150.976562"/>
      <use xlink:href="#DejaVuSans-64" x="178.759766"/>
      <use xlink:href="#DejaVuSans-65" x="242.236328"/>
     </g>
    </g>
    <g id="line2d_24">
     <path d="M 222.764844 76.108438 
L 232.764844 76.108438 
L 242.764844 76.108438 
" style="fill: none; stroke: #ff7f0e; stroke-width: 1.5; stroke-linecap: square"/>
    </g>
    <g id="text_7">
     <!-- L Front -->
     <g transform="translate(250.764844 79.608438)scale(0.1 -0.1)">
      <defs>
       <path id="DejaVuSans-46" d="M 628 4666 
L 3309 4666 
L 3309 4134 
L 1259 4134 
L 1259 2759 
L 3109 2759 
L 3109 2228 
L 1259 2228 
L 1259 0 
L 628 0 
L 628 4666 
z
" transform="scale(0.015625)"/>
       <path id="DejaVuSans-6e" d="M 3513 2113 
L 3513 0 
L 2938 0 
L 2938 2094 
Q 2938 2591 2744 2837 
Q 2550 3084 2163 3084 
Q 1697 3084 1428 2787 
Q 1159 2491 1159 1978 
L 1159 0 
L 581 0 
L 581 3500 
L 1159 3500 
L 1159 2956 
Q 1366 3272 1645 3428 
Q 1925 3584 2291 3584 
Q 2894 3584 3203 3211 
Q 3513 2838 3513 2113 
z
" transform="scale(0.015625)"/>
      </defs>
      <use xlink:href="#DejaVuSans-4c"/>
      <use xlink:href="#DejaVuSans-20" x="55.712891"/>
      <use xlink:href="#DejaVuSans-46" x="87.5"/>
      <use xlink:href="#DejaVuSans-72" x="137.769531"/>
      <use xlink:href="#DejaVuSans-6f" x="176.632812"/>
      <use xlink:href="#DejaVuSans-6e" x="237.814453"/>
      <use xlink:href="#DejaVuSans-74" x="301.193359"/>
     </g>
    </g>
    <g id="line2d_25">
     <path d="M 222.764844 90.786563 
L 232.764844 90.786563 
L 242.764844 90.786563 
" style="fill: none; stroke: #2ca02c; stroke-width: 1.5; stroke-linecap: square"/>
    </g>
    <g id="text_8">
     <!-- R Front -->
     <g transform="translate(250.764844 94.286563)scale(0.1 -0.1)">
      <use xlink:href="#DejaVuSans-52"/>
      <use xlink:href="#DejaVuSans-20" x="69.482422"/>
      <use xlink:href="#DejaVuSans-46" x="101.269531"/>
      <use xlink:href="#DejaVuSans-72" x="151.539062"/>
      <use xlink:href="#DejaVuSans-6f" x="190.402344"/>
      <use xlink:href="#DejaVuSans-6e" x="251.583984"/>
      <use xlink:href="#DejaVuSans-74" x="314.962891"/>
     </g>
    </g>
    <g id="line2d_26">
     <path d="M 222.764844 105.464688 
L 232.764844 105.464688 
L 242.764844 105.464688 
" style="fill: none; stroke: #d62728; stroke-width: 1.5; stroke-linecap: square"/>
    </g>
    <g id="text_9">
     <!-- R Side -->
     <g transform="translate(250.764844 108.964688)scale(0.1 -0.1)">
      <use xlink:href="#DejaVuSans-52"/>
      <use xlink:href="#DejaVuSans-20" x="69.482422"/>
      <use xlink:href="#DejaVuSans-53" x="101.269531"/>
      <use xlink:href="#DejaVuSans-69" x="164.746094"/>
      <use xlink:href="#DejaVuSans-64" x="192.529297"/>
      <use xlink:href="#DejaVuSans-65" x="256.005859"/>
     </g>
    </g>
   </g>
  </g>
  <g id="axes_2">
   <g id="patch_8">
    <path d="M 58.945313 304.44375 
L 450 304.44375 
L 450 191.096875 
L 58.945313 191.096875 
z
" style="fill: #ffffff"/>
   </g>
   <g id="matplotlib.axis_3">
    <g id="xtick_7">
     <g id="line2d_27">
      <path d="M 76.720526 304.44375 
L 76.720526 191.096875 
" clip-path="url(#p027b9f95fc)" style="fill: none; stroke: #b0b0b0; stroke-width: 0.8; stroke-linecap: square"/>
     </g>
     <g id="line2d_28">
      <g>
       <use xlink:href="#m8b4dc51caf" x="76.720526" y="304.44375" style="stroke: #000000; stroke-width: 0.8"/>
      </g>
     </g>
     <g id="text_10">
      <!-- 0 -->
      <g transform="translate(73.539276 319.042187)scale(0.1 -0.1)">
       <use xlink:href="#DejaVuSans-30"/>
      </g>
     </g>
    </g>
    <g id="xtick_8">
     <g id="line2d_29">
      <path d="M 142.554648 304.44375 
L 142.554648 191.096875 
" clip-path="url(#p027b9f95fc)" style="fill: none; stroke: #b0b0b0; stroke-width: 0.8; stroke-linecap: square"/>
     </g>
     <g id="line2d_30">
      <g>
       <use xlink:href="#m8b4dc51caf" x="142.554648" y="304.44375" style="stroke: #000000; stroke-width: 0.8"/>
      </g>
     </g>
     <g id="text_11">
      <!-- 50 -->
      <g transform="translate(136.192148 319.042187)scale(0.1 -0.1)">
       <use xlink:href="#DejaVuSans-35"/>
       <use xlink:href="#DejaVuSans-30" x="63.623047"/>
      </g>
     </g>
    </g>
    <g id="xtick_9">
     <g id="line2d_31">
      <path d="M 208.388771 304.44375 
L 208.388771 191.096875 
" clip-path="url(#p027b9f95fc)" style="fill: none; stroke: #b0b0b0; stroke-width: 0.8; stroke-linecap: square"/>
     </g>
     <g id="line2d_32">
      <g>
       <use xlink:href="#m8b4dc51caf" x="208.388771" y="304.44375" style="stroke: #000000; stroke-width: 0.8"/>
      </g>
     </g>
     <g id="text_12">
      <!-- 100 -->
      <g transform="translate(198.845021 319.042187)scale(0.1 -0.1)">
       <use xlink:href="#DejaVuSans-31"/>
       <use xlink:href="#DejaVuSans-30" x="63.623047"/>
       <use xlink:href="#DejaVuSans-30" x="127.246094"/>
      </g>
     </g>
    </g>
    <g id="xtick_10">
     <g id="line2d_33">
      <path d="M 274.222893 304.44375 
L 274.222893 191.096875 
" clip-path="url(#p027b9f95fc)" style="fill: none; stroke: #b0b0b0; stroke-width: 0.8; stroke-linecap: square"/>
     </g>
     <g id="line2d_34">
      <g>
       <use xlink:href="#m8b4dc51caf" x="274.222893" y="304.44375" style="stroke: #000000; stroke-width: 0.8"/>
      </g>
     </g>
     <g id="text_13">
      <!-- 150 -->
      <g transform="translate(264.679143 319.042187)scale(0.1 -0.1)">
       <use xlink:href="#DejaVuSans-31"/>
       <use xlink:href="#DejaVuSans-35" x="63.623047"/>
       <use xlink:href="#DejaVuSans-30" x="127.246094"/>
      </g>
     </g>
    </g>
    <g id="xtick_11">
     <g id="line2d_35">
      <path d="M 340.057015 304.44375 
L 340.057015 191.096875 
" clip-path="url(#p027b9f95fc)" style="fill: none; stroke: #b0b0b0; stroke-width: 0.8; stroke-linecap: square"/>
     </g>
     <g id="line2d_36">
      <g>
       <use xlink:href="#m8b4dc51caf" x="340.057015" y="304.44375" style="stroke: #000000; stroke-width: 0.8"/>
      </g>
     </g>
     <g id="text_14">
      <!-- 200 -->
      <g transform="translate(330.513265 319.042187)scale(0.1 -0.1)">
       <defs>
        <path id="DejaVuSans-32" d="M 1228 531 
L 3431 531 
L 3431 0 
L 469 0 
L 469 531 
Q 828 903 1448 1529 
Q 2069 2156 2228 2338 
Q 2531 2678 2651 2914 
Q 2772 3150 2772 3378 
Q 2772 3750 2511 3984 
Q 2250 4219 1831 4219 
Q 1534 4219 1204 4116 
Q 875 4013 500 3803 
L 500 4441 
Q 881 4594 1212 4672 
Q 1544 4750 1819 4750 
Q 2544 4750 2975 4387 
Q 3406 4025 3406 3419 
Q 3406 3131 3298 2873 
Q 3191 2616 2906 2266 
Q 2828 2175 2409 1742 
Q 1991 1309 1228 531 
z
" transform="scale(0.015625)"/>
       </defs>
       <use xlink:href="#DejaVuSans-32"/>
       <use xlink:href="#DejaVuSans-30" x="63.623047"/>
       <use xlink:href="#DejaVuSans-30" x="127.246094"/>
      </g>
     </g>
    </g>
    <g id="xtick_12">
     <g id="line2d_37">
      <path d="M 405.891138 304.44375 
L 405.891138 191.096875 
" clip-path="url(#p027b9f95fc)" style="fill: none; stroke: #b0b0b0; stroke-width: 0.8; stroke-linecap: square"/>
     </g>
     <g id="line2d_38">
      <g>
       <use xlink:href="#m8b4dc51caf" x="405.891138" y="304.44375" style="stroke: #000000; stroke-width: 0.8"/>
      </g>
     </g>
     <g id="text_15">
      <!-- 250 -->
      <g transform="translate(396.347388 319.042187)scale(0.1 -0.1)">
       <use xlink:href="#DejaVuSans-32"/>
       <use xlink:href="#DejaVuSans-35" x="63.623047"/>
       <use xlink:href="#DejaVuSans-30" x="127.246094"/>
      </g>
     </g>
    </g>
    <g id="text_16">
     <!-- Translational Position [mm] -->
     <g transform="translate(186.495312 332.720312)scale(0.1 -0.1)">
      <defs>
       <path id="DejaVuSans-54" d="M -19 4666 
L 3928 4666 
L 3928 4134 
L 2272 4134 
L 2272 0 
L 1638 0 
L 1638 4134 
L -19 4134 
L -19 4666 
z
" transform="scale(0.015625)"/>
       <path id="DejaVuSans-73" d="M 2834 3397 
L 2834 2853 
Q 2591 2978 2328 3040 
Q 2066 3103 1784 3103 
Q 1356 3103 1142 2972 
Q 928 2841 928 2578 
Q 928 2378 1081 2264 
Q 1234 2150 1697 2047 
L 1894 2003 
Q 2506 1872 2764 1633 
Q 3022 1394 3022 966 
Q 3022 478 2636 193 
Q 2250 -91 1575 -91 
Q 1294 -91 989 -36 
Q 684 19 347 128 
L 347 722 
Q 666 556 975 473 
Q 1284 391 1588 391 
Q 1994 391 2212 530 
Q 2431 669 2431 922 
Q 2431 1156 2273 1281 
Q 2116 1406 1581 1522 
L 1381 1569 
Q 847 1681 609 1914 
Q 372 2147 372 2553 
Q 372 3047 722 3315 
Q 1072 3584 1716 3584 
Q 2034 3584 2315 3537 
Q 2597 3491 2834 3397 
z
" transform="scale(0.015625)"/>
       <path id="DejaVuSans-50" d="M 1259 4147 
L 1259 2394 
L 2053 2394 
Q 2494 2394 2734 2622 
Q 2975 2850 2975 3272 
Q 2975 3691 2734 3919 
Q 2494 4147 2053 4147 
L 1259 4147 
z
M 628 4666 
L 2053 4666 
Q 2838 4666 3239 4311 
Q 3641 3956 3641 3272 
Q 3641 2581 3239 2228 
Q 2838 1875 2053 1875 
L 1259 1875 
L 1259 0 
L 628 0 
L 628 4666 
z
" transform="scale(0.015625)"/>
       <path id="DejaVuSans-5b" d="M 550 4863 
L 1875 4863 
L 1875 4416 
L 1125 4416 
L 1125 -397 
L 1875 -397 
L 1875 -844 
L 550 -844 
L 550 4863 
z
" transform="scale(0.015625)"/>
       <path id="DejaVuSans-6d" d="M 3328 2828 
Q 3544 3216 3844 3400 
Q 4144 3584 4550 3584 
Q 5097 3584 5394 3201 
Q 5691 2819 5691 2113 
L 5691 0 
L 5113 0 
L 5113 2094 
Q 5113 2597 4934 2840 
Q 4756 3084 4391 3084 
Q 3944 3084 3684 2787 
Q 3425 2491 3425 1978 
L 3425 0 
L 2847 0 
L 2847 2094 
Q 2847 2600 2669 2842 
Q 2491 3084 2119 3084 
Q 1678 3084 1418 2786 
Q 1159 2488 1159 1978 
L 1159 0 
L 581 0 
L 581 3500 
L 1159 3500 
L 1159 2956 
Q 1356 3278 1631 3431 
Q 1906 3584 2284 3584 
Q 2666 3584 2933 3390 
Q 3200 3197 3328 2828 
z
" transform="scale(0.015625)"/>
       <path id="DejaVuSans-5d" d="M 1947 4863 
L 1947 -844 
L 622 -844 
L 622 -397 
L 1369 -397 
L 1369 4416 
L 622 4416 
L 622 4863 
L 1947 4863 
z
" transform="scale(0.015625)"/>
      </defs>
      <use xlink:href="#DejaVuSans-54"/>
      <use xlink:href="#DejaVuSans-72" x="46.333984"/>
      <use xlink:href="#DejaVuSans-61" x="87.447266"/>
      <use xlink:href="#DejaVuSans-6e" x="148.726562"/>
      <use xlink:href="#DejaVuSans-73" x="212.105469"/>
      <use xlink:href="#DejaVuSans-6c" x="264.205078"/>
      <use xlink:href="#DejaVuSans-61" x="291.988281"/>
      <use xlink:href="#DejaVuSans-74" x="353.267578"/>
      <use xlink:href="#DejaVuSans-69" x="392.476562"/>
      <use xlink:href="#DejaVuSans-6f" x="420.259766"/>
      <use xlink:href="#DejaVuSans-6e" x="481.441406"/>
      <use xlink:href="#DejaVuSans-61" x="544.820312"/>
      <use xlink:href="#DejaVuSans-6c" x="606.099609"/>
      <use xlink:href="#DejaVuSans-20" x="633.882812"/>
      <use xlink:href="#DejaVuSans-50" x="665.669922"/>
      <use xlink:href="#DejaVuSans-6f" x="722.347656"/>
      <use xlink:href="#DejaVuSans-73" x="783.529297"/>
      <use xlink:href="#DejaVuSans-69" x="835.628906"/>
      <use xlink:href="#DejaVuSans-74" x="863.412109"/>
      <use xlink:href="#DejaVuSans-69" x="902.621094"/>
      <use xlink:href="#DejaVuSans-6f" x="930.404297"/>
      <use xlink:href="#DejaVuSans-6e" x="991.585938"/>
      <use xlink:href="#DejaVuSans-20" x="1054.964844"/>
      <use xlink:href="#DejaVuSans-5b" x="1086.751953"/>
      <use xlink:href="#DejaVuSans-6d" x="1125.765625"/>
      <use xlink:href="#DejaVuSans-6d" x="1223.177734"/>
      <use xlink:href="#DejaVuSans-5d" x="1320.589844"/>
     </g>
    </g>
   </g>
   <g id="matplotlib.axis_4">
    <g id="ytick_4">
     <g id="line2d_39">
      <path d="M 58.945313 295.045457 
L 450 295.045457 
" clip-path="url(#p027b9f95fc)" style="fill: none; stroke: #b0b0b0; stroke-width: 0.8; stroke-linecap: square"/>
     </g>
     <g id="line2d_40">
      <g>
       <use xlink:href="#m3fa0ac9e76" x="58.945313" y="295.045457" style="stroke: #000000; stroke-width: 0.8"/>
      </g>
     </g>
     <g id="text_17">
      <!-- −100 -->
      <g transform="translate(24.478125 298.844676)scale(0.1 -0.1)">
       <defs>
        <path id="DejaVuSans-2212" d="M 678 2272 
L 4684 2272 
L 4684 1741 
L 678 1741 
L 678 2272 
z
" transform="scale(0.015625)"/>
       </defs>
       <use xlink:href="#DejaVuSans-2212"/>
       <use xlink:href="#DejaVuSans-31" x="83.789062"/>
       <use xlink:href="#DejaVuSans-30" x="147.412109"/>
       <use xlink:href="#DejaVuSans-30" x="211.035156"/>
      </g>
     </g>
    </g>
    <g id="ytick_5">
     <g id="line2d_41">
      <path d="M 58.945313 249.873518 
L 450 249.873518 
" clip-path="url(#p027b9f95fc)" style="fill: none; stroke: #b0b0b0; stroke-width: 0.8; stroke-linecap: square"/>
     </g>
     <g id="line2d_42">
      <g>
       <use xlink:href="#m3fa0ac9e76" x="58.945313" y="249.873518" style="stroke: #000000; stroke-width: 0.8"/>
      </g>
     </g>
     <g id="text_18">
      <!-- −50 -->
      <g transform="translate(30.840625 253.672737)scale(0.1 -0.1)">
       <use xlink:href="#DejaVuSans-2212"/>
       <use xlink:href="#DejaVuSans-35" x="83.789062"/>
       <use xlink:href="#DejaVuSans-30" x="147.412109"/>
      </g>
     </g>
    </g>
    <g id="ytick_6">
     <g id="line2d_43">
      <path d="M 58.945313 204.701579 
L 450 204.701579 
" clip-path="url(#p027b9f95fc)" style="fill: none; stroke: #b0b0b0; stroke-width: 0.8; stroke-linecap: square"/>
     </g>
     <g id="line2d_44">
      <g>
       <use xlink:href="#m3fa0ac9e76" x="58.945313" y="204.701579" style="stroke: #000000; stroke-width: 0.8"/>
      </g>
     </g>
     <g id="text_19">
      <!-- 0 -->
      <g transform="translate(45.582813 208.500798)scale(0.1 -0.1)">
       <use xlink:href="#DejaVuSans-30"/>
      </g>
     </g>
    </g>
    <g id="text_20">
     <!-- wall distance [mm] -->
     <g transform="translate(18.398438 295.708594)rotate(-90)scale(0.1 -0.1)">
      <use xlink:href="#DejaVuSans-77"/>
      <use xlink:href="#DejaVuSans-61" x="81.787109"/>
      <use xlink:href="#DejaVuSans-6c" x="143.066406"/>
      <use xlink:href="#DejaVuSans-6c" x="170.849609"/>
      <use xlink:href="#DejaVuSans-20" x="198.632812"/>
      <use xlink:href="#DejaVuSans-64" x="230.419922"/>
      <use xlink:href="#DejaVuSans-69" x="293.896484"/>
      <use xlink:href="#DejaVuSans-73" x="321.679688"/>
      <use xlink:href="#DejaVuSans-74" x="373.779297"/>
      <use xlink:href="#DejaVuSans-61" x="412.988281"/>
      <use xlink:href="#DejaVuSans-6e" x="474.267578"/>
      <use xlink:href="#DejaVuSans-63" x="537.646484"/>
      <use xlink:href="#DejaVuSans-65" x="592.626953"/>
      <use xlink:href="#DejaVuSans-20" x="654.150391"/>
      <use xlink:href="#DejaVuSans-5b" x="685.9375"/>
      <use xlink:href="#DejaVuSans-6d" x="724.951172"/>
      <use xlink:href="#DejaVuSans-6d" x="822.363281"/>
      <use xlink:href="#DejaVuSans-5d" x="919.775391"/>
     </g>
    </g>
   </g>
   <g id="line2d_45">
    <path d="M 76.720526 204.616891 
L 76.836236 204.705141 
L 76.979254 204.758405 
L 77.281301 204.63449 
L 78.142543 204.740626 
L 79.177455 204.829867 
L 79.845013 204.973966 
L 81.191979 205.119871 
L 81.81477 205.138301 
L 83.577808 205.417373 
L 85.635782 205.820036 
L 90.084852 206.502132 
L 92.37588 206.606028 
L 111.441442 205.858884 
L 115.365155 205.645672 
L 123.26525 205.530936 
L 128.005307 206.075709 
L 131.165345 206.585249 
L 132.745364 207.117374 
L 134.325383 207.929566 
L 135.905402 209.108553 
L 137.485421 210.742874 
L 138.27543 211.768277 
L 139.06544 213.035802 
L 139.855449 214.540027 
L 140.645458 216.319802 
L 141.435468 218.533227 
L 142.225477 221.261612 
L 143.015487 224.441716 
L 143.805496 228.290365 
L 144.595506 233.01535 
L 145.385515 238.580533 
L 146.175525 245.428599 
L 146.965534 256.11628 
L 147.755544 272.269765 
L 148.545553 280.355542 
L 237.092448 280.355542 
L 237.882457 272.269765 
L 239.462476 252.403147 
L 240.252486 244.859433 
L 241.042495 239.592385 
L 241.832505 235.228775 
L 242.622514 231.687295 
L 244.202533 225.878184 
L 244.992543 223.339521 
L 246.572562 219.310184 
L 248.15258 216.175251 
L 249.732599 213.630264 
L 251.312618 211.833325 
L 252.892637 210.595614 
L 253.550979 210.162866 
L 255.130997 209.583762 
L 257.501026 209.134753 
L 259.081045 208.903473 
L 263.031092 208.47976 
L 264.611111 208.430974 
L 270.931187 208.776991 
L 276.461253 208.333403 
L 279.621291 208.652317 
L 281.991319 208.702006 
L 283.571338 208.553842 
L 285.941367 208.285521 
L 287.521386 208.237638 
L 291.471433 208.627924 
L 293.841461 208.627924 
L 297.791509 208.357796 
L 302.531566 208.928769 
L 305.691604 208.827584 
L 308.061632 208.702006 
L 312.801689 209.343447 
L 314.381708 209.317248 
L 317.541746 208.878176 
L 319.121765 209.005561 
L 322.281802 209.317248 
L 324.651831 209.134753 
L 327.021859 208.802288 
L 328.601878 208.928769 
L 331.761916 209.264848 
L 333.341935 209.238648 
L 336.501973 208.827584 
L 338.081992 209.005561 
L 340.45202 209.343447 
L 342.822049 209.264848 
L 345.192077 208.903473 
L 346.772096 209.005561 
L 349.932134 209.664168 
L 352.302162 209.637065 
L 354.672191 209.369647 
L 356.25221 209.637065 
L 358.622238 210.595614 
L 363.362295 211.735753 
L 364.942314 212.785549 
L 366.522333 214.585199 
L 371.26239 221.117062 
L 372.052399 222.743251 
L 373.632418 227.26948 
L 374.422427 230.657375 
L 375.212437 234.749953 
L 376.002446 239.95376 
L 376.792456 247.325821 
L 377.582465 259.468038 
L 378.372475 280.355542 
L 429.459754 280.355542 
L 430.249763 256.11628 
L 430.5131 254.743053 
L 430.908104 254.743053 
L 431.039773 256.11628 
L 431.171441 259.468038 
L 431.434777 256.11628 
L 431.434777 253.514376 
L 431.829782 248.030503 
L 431.829782 248.030503 
L 431.96145 250.451719 
L 431.96145 254.743053 
L 431.96145 253.514376 
L 432.093119 249.584418 
L 432.093119 244.859433 
L 432.093119 244.859433 
L 432.224787 244.859433 
L 432.224787 244.859433 
L 432.224787 250.451719 
L 432.224787 241.507675 
L 432.224787 243.305518 
" clip-path="url(#p027b9f95fc)" style="fill: none; stroke: #1f77b4; stroke-width: 1.5; stroke-linecap: square"/>
   </g>
   <g id="line2d_46">
    <path d="M 76.720526 298.8399 
L 359.412247 298.8399 
L 360.202257 290.745088 
L 360.992266 286.011069 
L 361.782276 280.057408 
L 362.572285 276.136483 
L 363.362295 273.209342 
L 365.732323 273.209342 
L 366.522333 274.582569 
L 367.312342 277.934327 
L 368.102352 280.057408 
L 368.892361 276.136483 
L 369.682371 273.209342 
L 371.26239 264.500192 
L 372.052399 261.771807 
L 374.422427 261.771807 
L 375.212437 263.903922 
L 376.002446 266.496792 
L 376.792456 266.496792 
L 377.582465 265.123565 
L 378.372475 263.334756 
L 379.162484 259.567416 
L 379.952494 256.414415 
L 380.742503 253.938992 
L 382.322522 253.938992 
L 383.112532 254.706915 
L 384.692551 260.39858 
L 385.48256 260.39858 
L 386.272569 259.169903 
L 387.062579 258.420049 
L 387.852588 254.191955 
L 388.642598 251.09316 
L 389.432607 248.644841 
L 391.012626 248.644841 
L 391.802636 249.981931 
L 392.592645 252.321837 
L 393.382655 255.248979 
L 394.172664 254.977947 
L 395.752683 252.990382 
L 396.542693 249.466971 
L 397.332702 246.494657 
L 398.122711 245.86225 
L 399.70273 245.86225 
L 400.49274 247.885953 
L 401.282749 249.295317 
L 401.941091 252.321837 
L 402.7311 256.730618 
L 403.52111 264.500192 
L 404.311119 259.567416 
L 404.96946 251.897221 
L 406.417811 243.919856 
L 407.20782 241.814844 
L 407.866162 241.381193 
L 409.314512 240.721683 
L 409.972854 241.299884 
L 410.631195 243.20614 
L 411.421204 245.139499 
L 412.079545 244.904605 
L 412.737887 244.136682 
L 414.054569 239.086459 
L 414.581242 236.999515 
L 416.424598 236.159317 
L 417.082939 237.171169 
L 417.609612 238.679911 
L 418.267953 238.544396 
L 419.321299 237.713232 
L 420.374645 234.27113 
L 421.822996 233.512242 
L 422.349669 234.451818 
L 422.744673 235.680495 
L 424.061356 234.831262 
L 424.851365 232.021568 
L 426.036379 231.434332 
L 426.431384 232.410046 
L 426.694721 233.38576 
L 427.748067 232.762387 
L 428.27474 230.305034 
L 429.064749 229.726833 
L 429.328086 230.503791 
L 429.459754 231.362057 
L 430.118095 230.503791 
L 430.249763 229.392561 
L 430.644768 228.245194 
L 430.908104 227.947059 
L 431.171441 229.510008 
L 431.434777 228.976979 
L 431.698114 227.070723 
L 431.829782 226.871967 
L 431.96145 227.685062 
L 431.96145 228.434916 
L 431.96145 228.190987 
L 432.093119 228.055471 
L 432.093119 226.375075 
L 432.224787 226.3028 
L 432.224787 227.947059 
L 432.224787 225.480671 
L 432.224787 225.851081 
" clip-path="url(#p027b9f95fc)" style="fill: none; stroke: #ff7f0e; stroke-width: 1.5; stroke-linecap: square"/>
   </g>
   <g id="line2d_47">
    <path d="M 76.720526 299.291619 
L 370.47238 299.291619 
L 371.26239 291.196808 
L 376.002446 291.196808 
L 376.792456 278.39508 
L 378.372475 268.51146 
L 379.162484 264.951911 
L 379.952494 262.729452 
L 382.322522 262.729452 
L 383.112532 264.951911 
L 383.902541 268.51146 
L 384.692551 273.661061 
L 387.062579 260.434717 
L 388.642598 254.146783 
L 391.012626 254.146783 
L 392.592645 259.251213 
L 393.382655 263.786475 
L 394.172664 261.302019 
L 394.962674 259.251213 
L 395.752683 254.643675 
L 396.542693 250.984748 
L 397.332702 248.048572 
L 399.70273 248.048572 
L 400.49274 249.105595 
L 401.282749 250.795026 
L 401.941091 253.676995 
L 402.7311 257.832814 
L 403.52111 264.951911 
L 404.311119 255.429666 
L 404.96946 250.261997 
L 405.75947 246.693413 
L 406.417811 244.588401 
L 407.20782 242.627939 
L 409.314512 241.588984 
L 409.972854 242.989314 
L 411.421204 246.566932 
L 412.737887 245.022052 
L 413.396228 242.266563 
L 414.581242 238.173986 
L 416.424598 237.279581 
L 417.082939 238.300467 
L 417.609612 239.474938 
L 418.267953 239.005149 
L 419.321299 238.047504 
L 420.374645 234.822228 
L 421.822996 234.099477 
L 422.349669 234.957744 
L 422.744673 235.933458 
L 423.271346 235.680495 
L 424.061356 234.957744 
L 424.45636 233.421898 
L 424.851365 232.446184 
L 426.036379 231.849914 
L 426.431384 232.554597 
L 426.694721 233.421898 
L 427.089725 233.223141 
L 427.748067 232.364874 
L 428.27474 229.943658 
L 429.064749 229.437733 
L 429.328086 230.061106 
L 429.459754 230.792891 
L 430.118095 230.341172 
L 430.249763 229.320286 
L 430.644768 228.507191 
L 430.908104 228.2994 
L 431.171441 229.726833 
L 431.434777 229.55518 
L 431.434777 229.085392 
L 431.698114 227.802509 
L 431.829782 227.648924 
L 431.96145 228.344572 
L 431.96145 229.031185 
L 431.96145 228.976979 
L 432.093119 228.949876 
L 432.093119 227.215273 
L 432.224787 227.115895 
L 432.224787 228.452984 
L 432.224787 226.221491 
L 432.224787 226.52866 
" clip-path="url(#p027b9f95fc)" style="fill: none; stroke: #2ca02c; stroke-width: 1.5; stroke-linecap: square"/>
   </g>
   <g id="line2d_48">
    <path d="M 76.720526 204.240464 
L 76.773193 204.319515 
L 76.865097 204.359266 
L 77.081823 204.260159 
L 79.177455 204.161955 
L 82.483645 203.796333 
L 82.836516 203.683403 
L 83.577808 203.626487 
L 90.637859 202.711303 
L 94.838076 202.522485 
L 100.223307 202.556815 
L 101.645324 202.573981 
L 106.069377 202.884764 
L 110.664599 203.133209 
L 130.375335 203.701472 
L 135.905402 204.006563 
L 139.06544 204.580157 
L 140.645458 205.11951 
L 142.225477 205.91038 
L 143.805496 207.130926 
L 145.385515 208.840232 
L 146.965534 211.124125 
L 147.755544 212.640095 
L 148.545553 214.431615 
L 149.335563 216.599868 
L 150.125572 219.201771 
L 150.915582 222.273463 
L 151.705591 225.941425 
L 152.495601 230.35924 
L 153.28561 235.951526 
L 154.075619 243.160968 
L 154.865629 253.044588 
L 156.445648 278.657078 
L 244.992543 278.657078 
L 245.782552 270.580335 
L 246.572562 257.769573 
L 247.362571 250.704682 
L 248.15258 244.958811 
L 249.732599 235.653392 
L 251.312618 229.293183 
L 252.102628 226.591901 
L 253.550979 222.273463 
L 255.130997 218.921705 
L 256.711016 216.374008 
L 258.291035 213.880517 
L 259.871054 212.087191 
L 260.661064 211.339144 
L 261.451073 210.808825 
L 263.031092 210.301092 
L 263.821102 210.467325 
L 264.611111 210.947955 
L 265.401121 211.706843 
L 266.19113 212.927389 
L 266.98114 214.621337 
L 267.771149 216.834762 
L 268.561158 219.563147 
L 269.351168 222.942008 
L 270.141177 227.142998 
L 270.931187 232.373909 
L 271.721196 239.005149 
L 272.511206 247.894987 
L 274.091225 278.657078 
L 367.312342 278.657078 
L 368.102352 255.97173 
L 369.682371 239.402663 
L 370.47238 233.286382 
L 371.26239 228.480088 
L 372.052399 224.405579 
L 373.632418 218.316401 
L 375.212437 213.567024 
L 376.792456 209.408495 
L 378.372475 206.093778 
L 379.952494 203.331966 
L 380.742503 202.270425 
L 381.532513 201.482627 
L 382.322522 200.861964 
L 383.902541 200.175351 
L 387.852588 199.526682 
L 391.012626 199.318891 
L 393.382655 199.435434 
L 396.542693 198.962936 
L 398.122711 198.738883 
L 401.282749 198.629567 
L 403.52111 198.775924 
L 407.866162 197.921271 
L 409.314512 197.85261 
L 411.421204 198.140806 
L 413.396228 197.830024 
L 415.239583 197.394566 
L 416.424598 197.351201 
L 418.267953 197.559895 
L 419.847972 197.362042 
L 420.374645 197.188582 
L 421.822996 197.124438 
L 423.271346 197.515627 
L 424.45636 197.351201 
L 424.851365 197.199423 
L 426.036379 197.242788 
L 426.694721 197.649336 
L 427.748067 197.57164 
L 428.27474 197.124438 
L 429.064749 196.97537 
L 429.459754 197.34036 
L 430.118095 197.210265 
L 430.249763 196.97537 
L 430.644768 196.725118 
L 430.908104 196.694401 
L 431.171441 197.135279 
L 431.434777 197.039515 
L 431.829782 196.398977 
L 431.829782 196.398977 
L 431.96145 196.601347 
L 431.96145 196.818172 
L 431.96145 196.787455 
L 432.093119 196.787455 
L 432.093119 196.818172 
L 432.093119 196.358322 
L 432.224787 196.389039 
L 432.224787 196.389039 
L 432.224787 196.933812 
L 432.224787 196.249006 
L 432.224787 196.398977 
" clip-path="url(#p027b9f95fc)" style="fill: none; stroke: #d62728; stroke-width: 1.5; stroke-linecap: square"/>
   </g>
   <g id="patch_9">
    <path d="M 58.945313 304.44375 
L 58.945313 191.096875 
" style="fill: none; stroke: #000000; stroke-width: 0.8; stroke-linejoin: miter; stroke-linecap: square"/>
   </g>
   <g id="patch_10">
    <path d="M 450 304.44375 
L 450 191.096875 
" style="fill: none; stroke: #000000; stroke-width: 0.8; stroke-linejoin: miter; stroke-linecap: square"/>
   </g>
   <g id="patch_11">
    <path d="M 58.945313 304.44375 
L 450 304.44375 
" style="fill: none; stroke: #000000; stroke-width: 0.8; stroke-linejoin: miter; stroke-linecap: square"/>
   </g>
   <g id="patch_12">
    <path d="M 58.945313 191.096875 
L 450 191.096875 
" style="fill: none; stroke: #000000; stroke-width: 0.8; stroke-linejoin: miter; stroke-linecap: square"/>
   </g>
   <g id="text_21">
    <!-- Wall Distance [mm] -->
    <g transform="translate(195.492656 185.096875)scale(0.12 -0.12)">
     <defs>
      <path id="DejaVuSans-57" d="M 213 4666 
L 850 4666 
L 1831 722 
L 2809 4666 
L 3519 4666 
L 4500 722 
L 5478 4666 
L 6119 4666 
L 4947 0 
L 4153 0 
L 3169 4050 
L 2175 0 
L 1381 0 
L 213 4666 
z
" transform="scale(0.015625)"/>
      <path id="DejaVuSans-44" d="M 1259 4147 
L 1259 519 
L 2022 519 
Q 2988 519 3436 956 
Q 3884 1394 3884 2338 
Q 3884 3275 3436 3711 
Q 2988 4147 2022 4147 
L 1259 4147 
z
M 628 4666 
L 1925 4666 
Q 3281 4666 3915 4102 
Q 4550 3538 4550 2338 
Q 4550 1131 3912 565 
Q 3275 0 1925 0 
L 628 0 
L 628 4666 
z
" transform="scale(0.015625)"/>
     </defs>
     <use xlink:href="#DejaVuSans-57"/>
     <use xlink:href="#DejaVuSans-61" x="92.501953"/>
     <use xlink:href="#DejaVuSans-6c" x="153.78125"/>
     <use xlink:href="#DejaVuSans-6c" x="181.564453"/>
     <use xlink:href="#DejaVuSans-20" x="209.347656"/>
     <use xlink:href="#DejaVuSans-44" x="241.134766"/>
     <use xlink:href="#DejaVuSans-69" x="318.136719"/>
     <use xlink:href="#DejaVuSans-73" x="345.919922"/>
     <use xlink:href="#DejaVuSans-74" x="398.019531"/>
     <use xlink:href="#DejaVuSans-61" x="437.228516"/>
     <use xlink:href="#DejaVuSans-6e" x="498.507812"/>
     <use xlink:href="#DejaVuSans-63" x="561.886719"/>
     <use xlink:href="#DejaVuSans-65" x="616.867188"/>
     <use xlink:href="#DejaVuSans-20" x="678.390625"/>
     <use xlink:href="#DejaVuSans-5b" x="710.177734"/>
     <use xlink:href="#DejaVuSans-6d" x="749.191406"/>
     <use xlink:href="#DejaVuSans-6d" x="846.603516"/>
     <use xlink:href="#DejaVuSans-5d" x="944.015625"/>
    </g>
   </g>
   <g id="legend_2">
    <g id="patch_13">
     <path d="M 65.945312 278.626562 
L 133.360938 278.626562 
Q 135.360938 278.626562 135.360938 276.626562 
L 135.360938 218.914062 
Q 135.360938 216.914062 133.360938 216.914062 
L 65.945312 216.914062 
Q 63.945312 216.914062 63.945312 218.914062 
L 63.945312 276.626562 
Q 63.945312 278.626562 65.945312 278.626562 
z
" style="fill: #ffffff; opacity: 0.8; stroke: #cccccc; stroke-linejoin: miter"/>
    </g>
    <g id="line2d_49">
     <path d="M 67.945312 225.0125 
L 77.945312 225.0125 
L 87.945312 225.0125 
" style="fill: none; stroke: #1f77b4; stroke-width: 1.5; stroke-linecap: square"/>
    </g>
    <g id="text_22">
     <!-- L Side -->
     <g transform="translate(95.945312 228.5125)scale(0.1 -0.1)">
      <use xlink:href="#DejaVuSans-4c"/>
      <use xlink:href="#DejaVuSans-20" x="55.712891"/>
      <use xlink:href="#DejaVuSans-53" x="87.5"/>
      <use xlink:href="#DejaVuSans-69" x="150.976562"/>
      <use xlink:href="#DejaVuSans-64" x="178.759766"/>
      <use xlink:href="#DejaVuSans-65" x="242.236328"/>
     </g>
    </g>
    <g id="line2d_50">
     <path d="M 67.945312 239.690625 
L 77.945312 239.690625 
L 87.945312 239.690625 
" style="fill: none; stroke: #ff7f0e; stroke-width: 1.5; stroke-linecap: square"/>
    </g>
    <g id="text_23">
     <!-- L Front -->
     <g transform="translate(95.945312 243.190625)scale(0.1 -0.1)">
      <use xlink:href="#DejaVuSans-4c"/>
      <use xlink:href="#DejaVuSans-20" x="55.712891"/>
      <use xlink:href="#DejaVuSans-46" x="87.5"/>
      <use xlink:href="#DejaVuSans-72" x="137.769531"/>
      <use xlink:href="#DejaVuSans-6f" x="176.632812"/>
      <use xlink:href="#DejaVuSans-6e" x="237.814453"/>
      <use xlink:href="#DejaVuSans-74" x="301.193359"/>
     </g>
    </g>
    <g id="line2d_51">
     <path d="M 67.945312 254.36875 
L 77.945312 254.36875 
L 87.945312 254.36875 
" style="fill: none; stroke: #2ca02c; stroke-width: 1.5; stroke-linecap: square"/>
    </g>
    <g id="text_24">
     <!-- R Front -->
     <g transform="translate(95.945312 257.86875)scale(0.1 -0.1)">
      <use xlink:href="#DejaVuSans-52"/>
      <use xlink:href="#DejaVuSans-20" x="69.482422"/>
      <use xlink:href="#DejaVuSans-46" x="101.269531"/>
      <use xlink:href="#DejaVuSans-72" x="151.539062"/>
      <use xlink:href="#DejaVuSans-6f" x="190.402344"/>
      <use xlink:href="#DejaVuSans-6e" x="251.583984"/>
      <use xlink:href="#DejaVuSans-74" x="314.962891"/>
     </g>
    </g>
    <g id="line2d_52">
     <path d="M 67.945312 269.046875 
L 77.945312 269.046875 
L 87.945312 269.046875 
" style="fill: none; stroke: #d62728; stroke-width: 1.5; stroke-linecap: square"/>
    </g>
    <g id="text_25">
     <!-- R Side -->
     <g transform="translate(95.945312 272.546875)scale(0.1 -0.1)">
      <use xlink:href="#DejaVuSans-52"/>
      <use xlink:href="#DejaVuSans-20" x="69.482422"/>
      <use xlink:href="#DejaVuSans-53" x="101.269531"/>
      <use xlink:href="#DejaVuSans-69" x="164.746094"/>
      <use xlink:href="#DejaVuSans-64" x="192.529297"/>
      <use xlink:href="#DejaVuSans-65" x="256.005859"/>
     </g>
    </g>
   </g>
  </g>
  <g id="text_26">
   <!-- Reflector Raw Value and Wall Distance -->
   <g transform="translate(114.835313 16.030125)scale(0.12 -0.12)">
    <use xlink:href="#DejaVuSans-52"/>
    <use xlink:href="#DejaVuSans-65" x="64.982422"/>
    <use xlink:href="#DejaVuSans-66" x="126.505859"/>
    <use xlink:href="#DejaVuSans-6c" x="161.710938"/>
    <use xlink:href="#DejaVuSans-65" x="189.494141"/>
    <use xlink:href="#DejaVuSans-63" x="251.017578"/>
    <use xlink:href="#DejaVuSans-74" x="305.998047"/>
    <use xlink:href="#DejaVuSans-6f" x="345.207031"/>
    <use xlink:href="#DejaVuSans-72" x="406.388672"/>
    <use xlink:href="#DejaVuSans-20" x="447.501953"/>
    <use xlink:href="#DejaVuSans-52" x="479.289062"/>
    <use xlink:href="#DejaVuSans-61" x="546.521484"/>
    <use xlink:href="#DejaVuSans-77" x="607.800781"/>
    <use xlink:href="#DejaVuSans-20" x="689.587891"/>
    <use xlink:href="#DejaVuSans-56" x="721.375"/>
    <use xlink:href="#DejaVuSans-61" x="782.033203"/>
    <use xlink:href="#DejaVuSans-6c" x="843.3125"/>
    <use xlink:href="#DejaVuSans-75" x="871.095703"/>
    <use xlink:href="#DejaVuSans-65" x="934.474609"/>
    <use xlink:href="#DejaVuSans-20" x="995.998047"/>
    <use xlink:href="#DejaVuSans-61" x="1027.785156"/>
    <use xlink:href="#DejaVuSans-6e" x="1089.064453"/>
    <use xlink:href="#DejaVuSans-64" x="1152.443359"/>
    <use xlink:href="#DejaVuSans-20" x="1215.919922"/>
    <use xlink:href="#DejaVuSans-57" x="1247.707031"/>
    <use xlink:href="#DejaVuSans-61" x="1340.208984"/>
    <use xlink:href="#DejaVuSans-6c" x="1401.488281"/>
    <use xlink:href="#DejaVuSans-6c" x="1429.271484"/>
    <use xlink:href="#DejaVuSans-20" x="1457.054688"/>
    <use xlink:href="#DejaVuSans-44" x="1488.841797"/>
    <use xlink:href="#DejaVuSans-69" x="1565.84375"/>
    <use xlink:href="#DejaVuSans-73" x="1593.626953"/>
    <use xlink:href="#DejaVuSans-74" x="1645.726562"/>
    <use xlink:href="#DejaVuSans-61" x="1684.935547"/>
    <use xlink:href="#DejaVuSans-6e" x="1746.214844"/>
    <use xlink:href="#DejaVuSans-63" x="1809.59375"/>
    <use xlink:href="#DejaVuSans-65" x="1864.574219"/>
   </g>
  </g>
 </g>
 <defs>
  <clipPath id="pb3e7c5bbc8">
   <rect x="58.945313" y="48.331875" width="391.054687" height="113.346875"/>
  </clipPath>
  <clipPath id="p027b9f95fc">
   <rect x="58.945313" y="191.096875" width="391.054687" height="113.346875"/>
  </clipPath>
 </defs>
</svg>
