<?xml version="1.0" encoding="utf-8" standalone="no"?>
<!DOCTYPE svg PUBLIC "-//W3C//DTD SVG 1.1//EN"
  "http://www.w3.org/Graphics/SVG/1.1/DTD/svg11.dtd">
<svg xmlns:xlink="http://www.w3.org/1999/xlink" width="460.8pt" height="345.6pt" viewBox="0 0 460.8 345.6" xmlns="http://www.w3.org/2000/svg" version="1.1">
 <metadata>
  <rdf:RDF xmlns:dc="http://purl.org/dc/elements/1.1/" xmlns:cc="http://creativecommons.org/ns#" xmlns:rdf="http://www.w3.org/1999/02/22-rdf-syntax-ns#">
   <cc:Work>
    <dc:type rdf:resource="http://purl.org/dc/dcmitype/StillImage"/>
    <dc:date>2022-01-16T03:12:52.177813</dc:date>
    <dc:format>image/svg+xml</dc:format>
    <dc:creator>
     <cc:Agent>
      <dc:title>Matplotlib v3.5.1, https://matplotlib.org/</dc:title>
     </cc:Agent>
    </dc:creator>
   </cc:Work>
  </rdf:RDF>
 </metadata>
 <defs>
  <style type="text/css">*{stroke-linejoin: round; stroke-linecap: butt}</style>
 </defs>
 <g id="figure_1">
  <g id="patch_1">
   <path d="M 0 345.6 
L 460.8 345.6 
L 460.8 0 
L 0 0 
z
" style="fill: #ffffff"/>
  </g>
  <g id="axes_1">
   <g id="patch_2">
    <path d="M 44.203125 304.44375 
L 450 304.44375 
L 450 25.918125 
L 44.203125 25.918125 
z
" style="fill: #ffffff"/>
   </g>
   <g id="matplotlib.axis_1">
    <g id="xtick_1">
     <g id="line2d_1">
      <path d="M 62.648438 304.44375 
L 62.648438 25.918125 
" clip-path="url(#p909bcd8623)" style="fill: none; stroke: #b0b0b0; stroke-width: 0.8; stroke-linecap: square"/>
     </g>
     <g id="line2d_2">
      <defs>
       <path id="mca810198e4" d="M 0 0 
L 0 3.5 
" style="stroke: #000000; stroke-width: 0.8"/>
      </defs>
      <g>
       <use xlink:href="#mca810198e4" x="62.648438" y="304.44375" style="stroke: #000000; stroke-width: 0.8"/>
      </g>
     </g>
     <g id="text_1">
      <!-- 0 -->
      <g transform="translate(59.467188 319.042187)scale(0.1 -0.1)">
       <defs>
        <path id="DejaVuSans-30" d="M 2034 4250 
Q 1547 4250 1301 3770 
Q 1056 3291 1056 2328 
Q 1056 1369 1301 889 
Q 1547 409 2034 409 
Q 2525 409 2770 889 
Q 3016 1369 3016 2328 
Q 3016 3291 2770 3770 
Q 2525 4250 2034 4250 
z
M 2034 4750 
Q 2819 4750 3233 4129 
Q 3647 3509 3647 2328 
Q 3647 1150 3233 529 
Q 2819 -91 2034 -91 
Q 1250 -91 836 529 
Q 422 1150 422 2328 
Q 422 3509 836 4129 
Q 1250 4750 2034 4750 
z
" transform="scale(0.015625)"/>
       </defs>
       <use xlink:href="#DejaVuSans-30"/>
      </g>
     </g>
    </g>
    <g id="xtick_2">
     <g id="line2d_3">
      <path d="M 113.885417 304.44375 
L 113.885417 25.918125 
" clip-path="url(#p909bcd8623)" style="fill: none; stroke: #b0b0b0; stroke-width: 0.8; stroke-linecap: square"/>
     </g>
     <g id="line2d_4">
      <g>
       <use xlink:href="#mca810198e4" x="113.885417" y="304.44375" style="stroke: #000000; stroke-width: 0.8"/>
      </g>
     </g>
     <g id="text_2">
      <!-- 50 -->
      <g transform="translate(107.522917 319.042187)scale(0.1 -0.1)">
       <defs>
        <path id="DejaVuSans-35" d="M 691 4666 
L 3169 4666 
L 3169 4134 
L 1269 4134 
L 1269 2991 
Q 1406 3038 1543 3061 
Q 1681 3084 1819 3084 
Q 2600 3084 3056 2656 
Q 3513 2228 3513 1497 
Q 3513 744 3044 326 
Q 2575 -91 1722 -91 
Q 1428 -91 1123 -41 
Q 819 9 494 109 
L 494 744 
Q 775 591 1075 516 
Q 1375 441 1709 441 
Q 2250 441 2565 725 
Q 2881 1009 2881 1497 
Q 2881 1984 2565 2268 
Q 2250 2553 1709 2553 
Q 1456 2553 1204 2497 
Q 953 2441 691 2322 
L 691 4666 
z
" transform="scale(0.015625)"/>
       </defs>
       <use xlink:href="#DejaVuSans-35"/>
       <use xlink:href="#DejaVuSans-30" x="63.623047"/>
      </g>
     </g>
    </g>
    <g id="xtick_3">
     <g id="line2d_5">
      <path d="M 165.122396 304.44375 
L 165.122396 25.918125 
" clip-path="url(#p909bcd8623)" style="fill: none; stroke: #b0b0b0; stroke-width: 0.8; stroke-linecap: square"/>
     </g>
     <g id="line2d_6">
      <g>
       <use xlink:href="#mca810198e4" x="165.122396" y="304.44375" style="stroke: #000000; stroke-width: 0.8"/>
      </g>
     </g>
     <g id="text_3">
      <!-- 100 -->
      <g transform="translate(155.578646 319.042187)scale(0.1 -0.1)">
       <defs>
        <path id="DejaVuSans-31" d="M 794 531 
L 1825 531 
L 1825 4091 
L 703 3866 
L 703 4441 
L 1819 4666 
L 2450 4666 
L 2450 531 
L 3481 531 
L 3481 0 
L 794 0 
L 794 531 
z
" transform="scale(0.015625)"/>
       </defs>
       <use xlink:href="#DejaVuSans-31"/>
       <use xlink:href="#DejaVuSans-30" x="63.623047"/>
       <use xlink:href="#DejaVuSans-30" x="127.246094"/>
      </g>
     </g>
    </g>
    <g id="xtick_4">
     <g id="line2d_7">
      <path d="M 216.359375 304.44375 
L 216.359375 25.918125 
" clip-path="url(#p909bcd8623)" style="fill: none; stroke: #b0b0b0; stroke-width: 0.8; stroke-linecap: square"/>
     </g>
     <g id="line2d_8">
      <g>
       <use xlink:href="#mca810198e4" x="216.359375" y="304.44375" style="stroke: #000000; stroke-width: 0.8"/>
      </g>
     </g>
     <g id="text_4">
      <!-- 150 -->
      <g transform="translate(206.815625 319.042187)scale(0.1 -0.1)">
       <use xlink:href="#DejaVuSans-31"/>
       <use xlink:href="#DejaVuSans-35" x="63.623047"/>
       <use xlink:href="#DejaVuSans-30" x="127.246094"/>
      </g>
     </g>
    </g>
    <g id="xtick_5">
     <g id="line2d_9">
      <path d="M 267.596354 304.44375 
L 267.596354 25.918125 
" clip-path="url(#p909bcd8623)" style="fill: none; stroke: #b0b0b0; stroke-width: 0.8; stroke-linecap: square"/>
     </g>
     <g id="line2d_10">
      <g>
       <use xlink:href="#mca810198e4" x="267.596354" y="304.44375" style="stroke: #000000; stroke-width: 0.8"/>
      </g>
     </g>
     <g id="text_5">
      <!-- 200 -->
      <g transform="translate(258.052604 319.042187)scale(0.1 -0.1)">
       <defs>
        <path id="DejaVuSans-32" d="M 1228 531 
L 3431 531 
L 3431 0 
L 469 0 
L 469 531 
Q 828 903 1448 1529 
Q 2069 2156 2228 2338 
Q 2531 2678 2651 2914 
Q 2772 3150 2772 3378 
Q 2772 3750 2511 3984 
Q 2250 4219 1831 4219 
Q 1534 4219 1204 4116 
Q 875 4013 500 3803 
L 500 4441 
Q 881 4594 1212 4672 
Q 1544 4750 1819 4750 
Q 2544 4750 2975 4387 
Q 3406 4025 3406 3419 
Q 3406 3131 3298 2873 
Q 3191 2616 2906 2266 
Q 2828 2175 2409 1742 
Q 1991 1309 1228 531 
z
" transform="scale(0.015625)"/>
       </defs>
       <use xlink:href="#DejaVuSans-32"/>
       <use xlink:href="#DejaVuSans-30" x="63.623047"/>
       <use xlink:href="#DejaVuSans-30" x="127.246094"/>
      </g>
     </g>
    </g>
    <g id="xtick_6">
     <g id="line2d_11">
      <path d="M 318.833333 304.44375 
L 318.833333 25.918125 
" clip-path="url(#p909bcd8623)" style="fill: none; stroke: #b0b0b0; stroke-width: 0.8; stroke-linecap: square"/>
     </g>
     <g id="line2d_12">
      <g>
       <use xlink:href="#mca810198e4" x="318.833333" y="304.44375" style="stroke: #000000; stroke-width: 0.8"/>
      </g>
     </g>
     <g id="text_6">
      <!-- 250 -->
      <g transform="translate(309.289583 319.042187)scale(0.1 -0.1)">
       <use xlink:href="#DejaVuSans-32"/>
       <use xlink:href="#DejaVuSans-35" x="63.623047"/>
       <use xlink:href="#DejaVuSans-30" x="127.246094"/>
      </g>
     </g>
    </g>
    <g id="xtick_7">
     <g id="line2d_13">
      <path d="M 370.070313 304.44375 
L 370.070313 25.918125 
" clip-path="url(#p909bcd8623)" style="fill: none; stroke: #b0b0b0; stroke-width: 0.8; stroke-linecap: square"/>
     </g>
     <g id="line2d_14">
      <g>
       <use xlink:href="#mca810198e4" x="370.070313" y="304.44375" style="stroke: #000000; stroke-width: 0.8"/>
      </g>
     </g>
     <g id="text_7">
      <!-- 300 -->
      <g transform="translate(360.526563 319.042187)scale(0.1 -0.1)">
       <defs>
        <path id="DejaVuSans-33" d="M 2597 2516 
Q 3050 2419 3304 2112 
Q 3559 1806 3559 1356 
Q 3559 666 3084 287 
Q 2609 -91 1734 -91 
Q 1441 -91 1130 -33 
Q 819 25 488 141 
L 488 750 
Q 750 597 1062 519 
Q 1375 441 1716 441 
Q 2309 441 2620 675 
Q 2931 909 2931 1356 
Q 2931 1769 2642 2001 
Q 2353 2234 1838 2234 
L 1294 2234 
L 1294 2753 
L 1863 2753 
Q 2328 2753 2575 2939 
Q 2822 3125 2822 3475 
Q 2822 3834 2567 4026 
Q 2313 4219 1838 4219 
Q 1578 4219 1281 4162 
Q 984 4106 628 3988 
L 628 4550 
Q 988 4650 1302 4700 
Q 1616 4750 1894 4750 
Q 2613 4750 3031 4423 
Q 3450 4097 3450 3541 
Q 3450 3153 3228 2886 
Q 3006 2619 2597 2516 
z
" transform="scale(0.015625)"/>
       </defs>
       <use xlink:href="#DejaVuSans-33"/>
       <use xlink:href="#DejaVuSans-30" x="63.623047"/>
       <use xlink:href="#DejaVuSans-30" x="127.246094"/>
      </g>
     </g>
    </g>
    <g id="xtick_8">
     <g id="line2d_15">
      <path d="M 421.307292 304.44375 
L 421.307292 25.918125 
" clip-path="url(#p909bcd8623)" style="fill: none; stroke: #b0b0b0; stroke-width: 0.8; stroke-linecap: square"/>
     </g>
     <g id="line2d_16">
      <g>
       <use xlink:href="#mca810198e4" x="421.307292" y="304.44375" style="stroke: #000000; stroke-width: 0.8"/>
      </g>
     </g>
     <g id="text_8">
      <!-- 350 -->
      <g transform="translate(411.763542 319.042187)scale(0.1 -0.1)">
       <use xlink:href="#DejaVuSans-33"/>
       <use xlink:href="#DejaVuSans-35" x="63.623047"/>
       <use xlink:href="#DejaVuSans-30" x="127.246094"/>
      </g>
     </g>
    </g>
    <g id="text_9">
     <!-- Translational Position [mm] -->
     <g transform="translate(179.124219 332.720312)scale(0.1 -0.1)">
      <defs>
       <path id="DejaVuSans-54" d="M -19 4666 
L 3928 4666 
L 3928 4134 
L 2272 4134 
L 2272 0 
L 1638 0 
L 1638 4134 
L -19 4134 
L -19 4666 
z
" transform="scale(0.015625)"/>
       <path id="DejaVuSans-72" d="M 2631 2963 
Q 2534 3019 2420 3045 
Q 2306 3072 2169 3072 
Q 1681 3072 1420 2755 
Q 1159 2438 1159 1844 
L 1159 0 
L 581 0 
L 581 3500 
L 1159 3500 
L 1159 2956 
Q 1341 3275 1631 3429 
Q 1922 3584 2338 3584 
Q 2397 3584 2469 3576 
Q 2541 3569 2628 3553 
L 2631 2963 
z
" transform="scale(0.015625)"/>
       <path id="DejaVuSans-61" d="M 2194 1759 
Q 1497 1759 1228 1600 
Q 959 1441 959 1056 
Q 959 750 1161 570 
Q 1363 391 1709 391 
Q 2188 391 2477 730 
Q 2766 1069 2766 1631 
L 2766 1759 
L 2194 1759 
z
M 3341 1997 
L 3341 0 
L 2766 0 
L 2766 531 
Q 2569 213 2275 61 
Q 1981 -91 1556 -91 
Q 1019 -91 701 211 
Q 384 513 384 1019 
Q 384 1609 779 1909 
Q 1175 2209 1959 2209 
L 2766 2209 
L 2766 2266 
Q 2766 2663 2505 2880 
Q 2244 3097 1772 3097 
Q 1472 3097 1187 3025 
Q 903 2953 641 2809 
L 641 3341 
Q 956 3463 1253 3523 
Q 1550 3584 1831 3584 
Q 2591 3584 2966 3190 
Q 3341 2797 3341 1997 
z
" transform="scale(0.015625)"/>
       <path id="DejaVuSans-6e" d="M 3513 2113 
L 3513 0 
L 2938 0 
L 2938 2094 
Q 2938 2591 2744 2837 
Q 2550 3084 2163 3084 
Q 1697 3084 1428 2787 
Q 1159 2491 1159 1978 
L 1159 0 
L 581 0 
L 581 3500 
L 1159 3500 
L 1159 2956 
Q 1366 3272 1645 3428 
Q 1925 3584 2291 3584 
Q 2894 3584 3203 3211 
Q 3513 2838 3513 2113 
z
" transform="scale(0.015625)"/>
       <path id="DejaVuSans-73" d="M 2834 3397 
L 2834 2853 
Q 2591 2978 2328 3040 
Q 2066 3103 1784 3103 
Q 1356 3103 1142 2972 
Q 928 2841 928 2578 
Q 928 2378 1081 2264 
Q 1234 2150 1697 2047 
L 1894 2003 
Q 2506 1872 2764 1633 
Q 3022 1394 3022 966 
Q 3022 478 2636 193 
Q 2250 -91 1575 -91 
Q 1294 -91 989 -36 
Q 684 19 347 128 
L 347 722 
Q 666 556 975 473 
Q 1284 391 1588 391 
Q 1994 391 2212 530 
Q 2431 669 2431 922 
Q 2431 1156 2273 1281 
Q 2116 1406 1581 1522 
L 1381 1569 
Q 847 1681 609 1914 
Q 372 2147 372 2553 
Q 372 3047 722 3315 
Q 1072 3584 1716 3584 
Q 2034 3584 2315 3537 
Q 2597 3491 2834 3397 
z
" transform="scale(0.015625)"/>
       <path id="DejaVuSans-6c" d="M 603 4863 
L 1178 4863 
L 1178 0 
L 603 0 
L 603 4863 
z
" transform="scale(0.015625)"/>
       <path id="DejaVuSans-74" d="M 1172 4494 
L 1172 3500 
L 2356 3500 
L 2356 3053 
L 1172 3053 
L 1172 1153 
Q 1172 725 1289 603 
Q 1406 481 1766 481 
L 2356 481 
L 2356 0 
L 1766 0 
Q 1100 0 847 248 
Q 594 497 594 1153 
L 594 3053 
L 172 3053 
L 172 3500 
L 594 3500 
L 594 4494 
L 1172 4494 
z
" transform="scale(0.015625)"/>
       <path id="DejaVuSans-69" d="M 603 3500 
L 1178 3500 
L 1178 0 
L 603 0 
L 603 3500 
z
M 603 4863 
L 1178 4863 
L 1178 4134 
L 603 4134 
L 603 4863 
z
" transform="scale(0.015625)"/>
       <path id="DejaVuSans-6f" d="M 1959 3097 
Q 1497 3097 1228 2736 
Q 959 2375 959 1747 
Q 959 1119 1226 758 
Q 1494 397 1959 397 
Q 2419 397 2687 759 
Q 2956 1122 2956 1747 
Q 2956 2369 2687 2733 
Q 2419 3097 1959 3097 
z
M 1959 3584 
Q 2709 3584 3137 3096 
Q 3566 2609 3566 1747 
Q 3566 888 3137 398 
Q 2709 -91 1959 -91 
Q 1206 -91 779 398 
Q 353 888 353 1747 
Q 353 2609 779 3096 
Q 1206 3584 1959 3584 
z
" transform="scale(0.015625)"/>
       <path id="DejaVuSans-20" transform="scale(0.015625)"/>
       <path id="DejaVuSans-50" d="M 1259 4147 
L 1259 2394 
L 2053 2394 
Q 2494 2394 2734 2622 
Q 2975 2850 2975 3272 
Q 2975 3691 2734 3919 
Q 2494 4147 2053 4147 
L 1259 4147 
z
M 628 4666 
L 2053 4666 
Q 2838 4666 3239 4311 
Q 3641 3956 3641 3272 
Q 3641 2581 3239 2228 
Q 2838 1875 2053 1875 
L 1259 1875 
L 1259 0 
L 628 0 
L 628 4666 
z
" transform="scale(0.015625)"/>
       <path id="DejaVuSans-5b" d="M 550 4863 
L 1875 4863 
L 1875 4416 
L 1125 4416 
L 1125 -397 
L 1875 -397 
L 1875 -844 
L 550 -844 
L 550 4863 
z
" transform="scale(0.015625)"/>
       <path id="DejaVuSans-6d" d="M 3328 2828 
Q 3544 3216 3844 3400 
Q 4144 3584 4550 3584 
Q 5097 3584 5394 3201 
Q 5691 2819 5691 2113 
L 5691 0 
L 5113 0 
L 5113 2094 
Q 5113 2597 4934 2840 
Q 4756 3084 4391 3084 
Q 3944 3084 3684 2787 
Q 3425 2491 3425 1978 
L 3425 0 
L 2847 0 
L 2847 2094 
Q 2847 2600 2669 2842 
Q 2491 3084 2119 3084 
Q 1678 3084 1418 2786 
Q 1159 2488 1159 1978 
L 1159 0 
L 581 0 
L 581 3500 
L 1159 3500 
L 1159 2956 
Q 1356 3278 1631 3431 
Q 1906 3584 2284 3584 
Q 2666 3584 2933 3390 
Q 3200 3197 3328 2828 
z
" transform="scale(0.015625)"/>
       <path id="DejaVuSans-5d" d="M 1947 4863 
L 1947 -844 
L 622 -844 
L 622 -397 
L 1369 -397 
L 1369 4416 
L 622 4416 
L 622 4863 
L 1947 4863 
z
" transform="scale(0.015625)"/>
      </defs>
      <use xlink:href="#DejaVuSans-54"/>
      <use xlink:href="#DejaVuSans-72" x="46.333984"/>
      <use xlink:href="#DejaVuSans-61" x="87.447266"/>
      <use xlink:href="#DejaVuSans-6e" x="148.726562"/>
      <use xlink:href="#DejaVuSans-73" x="212.105469"/>
      <use xlink:href="#DejaVuSans-6c" x="264.205078"/>
      <use xlink:href="#DejaVuSans-61" x="291.988281"/>
      <use xlink:href="#DejaVuSans-74" x="353.267578"/>
      <use xlink:href="#DejaVuSans-69" x="392.476562"/>
      <use xlink:href="#DejaVuSans-6f" x="420.259766"/>
      <use xlink:href="#DejaVuSans-6e" x="481.441406"/>
      <use xlink:href="#DejaVuSans-61" x="544.820312"/>
      <use xlink:href="#DejaVuSans-6c" x="606.099609"/>
      <use xlink:href="#DejaVuSans-20" x="633.882812"/>
      <use xlink:href="#DejaVuSans-50" x="665.669922"/>
      <use xlink:href="#DejaVuSans-6f" x="722.347656"/>
      <use xlink:href="#DejaVuSans-73" x="783.529297"/>
      <use xlink:href="#DejaVuSans-69" x="835.628906"/>
      <use xlink:href="#DejaVuSans-74" x="863.412109"/>
      <use xlink:href="#DejaVuSans-69" x="902.621094"/>
      <use xlink:href="#DejaVuSans-6f" x="930.404297"/>
      <use xlink:href="#DejaVuSans-6e" x="991.585938"/>
      <use xlink:href="#DejaVuSans-20" x="1054.964844"/>
      <use xlink:href="#DejaVuSans-5b" x="1086.751953"/>
      <use xlink:href="#DejaVuSans-6d" x="1125.765625"/>
      <use xlink:href="#DejaVuSans-6d" x="1223.177734"/>
      <use xlink:href="#DejaVuSans-5d" x="1320.589844"/>
     </g>
    </g>
   </g>
   <g id="matplotlib.axis_2">
    <g id="ytick_1">
     <g id="line2d_17">
      <path d="M 44.203125 286.177477 
L 450 286.177477 
" clip-path="url(#p909bcd8623)" style="fill: none; stroke: #b0b0b0; stroke-width: 0.8; stroke-linecap: square"/>
     </g>
     <g id="line2d_18">
      <defs>
       <path id="m6eb4fa1d52" d="M 0 0 
L -3.5 0 
" style="stroke: #000000; stroke-width: 0.8"/>
      </defs>
      <g>
       <use xlink:href="#m6eb4fa1d52" x="44.203125" y="286.177477" style="stroke: #000000; stroke-width: 0.8"/>
      </g>
     </g>
     <g id="text_10">
      <!-- 0 -->
      <g transform="translate(30.840625 289.976696)scale(0.1 -0.1)">
       <use xlink:href="#DejaVuSans-30"/>
      </g>
     </g>
    </g>
    <g id="ytick_2">
     <g id="line2d_19">
      <path d="M 44.203125 225.109751 
L 450 225.109751 
" clip-path="url(#p909bcd8623)" style="fill: none; stroke: #b0b0b0; stroke-width: 0.8; stroke-linecap: square"/>
     </g>
     <g id="line2d_20">
      <g>
       <use xlink:href="#m6eb4fa1d52" x="44.203125" y="225.109751" style="stroke: #000000; stroke-width: 0.8"/>
      </g>
     </g>
     <g id="text_11">
      <!-- 20 -->
      <g transform="translate(24.478125 228.908969)scale(0.1 -0.1)">
       <use xlink:href="#DejaVuSans-32"/>
       <use xlink:href="#DejaVuSans-30" x="63.623047"/>
      </g>
     </g>
    </g>
    <g id="ytick_3">
     <g id="line2d_21">
      <path d="M 44.203125 164.042024 
L 450 164.042024 
" clip-path="url(#p909bcd8623)" style="fill: none; stroke: #b0b0b0; stroke-width: 0.8; stroke-linecap: square"/>
     </g>
     <g id="line2d_22">
      <g>
       <use xlink:href="#m6eb4fa1d52" x="44.203125" y="164.042024" style="stroke: #000000; stroke-width: 0.8"/>
      </g>
     </g>
     <g id="text_12">
      <!-- 40 -->
      <g transform="translate(24.478125 167.841243)scale(0.1 -0.1)">
       <defs>
        <path id="DejaVuSans-34" d="M 2419 4116 
L 825 1625 
L 2419 1625 
L 2419 4116 
z
M 2253 4666 
L 3047 4666 
L 3047 1625 
L 3713 1625 
L 3713 1100 
L 3047 1100 
L 3047 0 
L 2419 0 
L 2419 1100 
L 313 1100 
L 313 1709 
L 2253 4666 
z
" transform="scale(0.015625)"/>
       </defs>
       <use xlink:href="#DejaVuSans-34"/>
       <use xlink:href="#DejaVuSans-30" x="63.623047"/>
      </g>
     </g>
    </g>
    <g id="ytick_4">
     <g id="line2d_23">
      <path d="M 44.203125 102.974298 
L 450 102.974298 
" clip-path="url(#p909bcd8623)" style="fill: none; stroke: #b0b0b0; stroke-width: 0.8; stroke-linecap: square"/>
     </g>
     <g id="line2d_24">
      <g>
       <use xlink:href="#m6eb4fa1d52" x="44.203125" y="102.974298" style="stroke: #000000; stroke-width: 0.8"/>
      </g>
     </g>
     <g id="text_13">
      <!-- 60 -->
      <g transform="translate(24.478125 106.773517)scale(0.1 -0.1)">
       <defs>
        <path id="DejaVuSans-36" d="M 2113 2584 
Q 1688 2584 1439 2293 
Q 1191 2003 1191 1497 
Q 1191 994 1439 701 
Q 1688 409 2113 409 
Q 2538 409 2786 701 
Q 3034 994 3034 1497 
Q 3034 2003 2786 2293 
Q 2538 2584 2113 2584 
z
M 3366 4563 
L 3366 3988 
Q 3128 4100 2886 4159 
Q 2644 4219 2406 4219 
Q 1781 4219 1451 3797 
Q 1122 3375 1075 2522 
Q 1259 2794 1537 2939 
Q 1816 3084 2150 3084 
Q 2853 3084 3261 2657 
Q 3669 2231 3669 1497 
Q 3669 778 3244 343 
Q 2819 -91 2113 -91 
Q 1303 -91 875 529 
Q 447 1150 447 2328 
Q 447 3434 972 4092 
Q 1497 4750 2381 4750 
Q 2619 4750 2861 4703 
Q 3103 4656 3366 4563 
z
" transform="scale(0.015625)"/>
       </defs>
       <use xlink:href="#DejaVuSans-36"/>
       <use xlink:href="#DejaVuSans-30" x="63.623047"/>
      </g>
     </g>
    </g>
    <g id="ytick_5">
     <g id="line2d_25">
      <path d="M 44.203125 41.906572 
L 450 41.906572 
" clip-path="url(#p909bcd8623)" style="fill: none; stroke: #b0b0b0; stroke-width: 0.8; stroke-linecap: square"/>
     </g>
     <g id="line2d_26">
      <g>
       <use xlink:href="#m6eb4fa1d52" x="44.203125" y="41.906572" style="stroke: #000000; stroke-width: 0.8"/>
      </g>
     </g>
     <g id="text_14">
      <!-- 80 -->
      <g transform="translate(24.478125 45.705791)scale(0.1 -0.1)">
       <defs>
        <path id="DejaVuSans-38" d="M 2034 2216 
Q 1584 2216 1326 1975 
Q 1069 1734 1069 1313 
Q 1069 891 1326 650 
Q 1584 409 2034 409 
Q 2484 409 2743 651 
Q 3003 894 3003 1313 
Q 3003 1734 2745 1975 
Q 2488 2216 2034 2216 
z
M 1403 2484 
Q 997 2584 770 2862 
Q 544 3141 544 3541 
Q 544 4100 942 4425 
Q 1341 4750 2034 4750 
Q 2731 4750 3128 4425 
Q 3525 4100 3525 3541 
Q 3525 3141 3298 2862 
Q 3072 2584 2669 2484 
Q 3125 2378 3379 2068 
Q 3634 1759 3634 1313 
Q 3634 634 3220 271 
Q 2806 -91 2034 -91 
Q 1263 -91 848 271 
Q 434 634 434 1313 
Q 434 1759 690 2068 
Q 947 2378 1403 2484 
z
M 1172 3481 
Q 1172 3119 1398 2916 
Q 1625 2713 2034 2713 
Q 2441 2713 2670 2916 
Q 2900 3119 2900 3481 
Q 2900 3844 2670 4047 
Q 2441 4250 2034 4250 
Q 1625 4250 1398 4047 
Q 1172 3844 1172 3481 
z
" transform="scale(0.015625)"/>
       </defs>
       <use xlink:href="#DejaVuSans-38"/>
       <use xlink:href="#DejaVuSans-30" x="63.623047"/>
      </g>
     </g>
    </g>
    <g id="text_15">
     <!-- Wall Distance [mm] -->
     <g transform="translate(18.398438 214.330937)rotate(-90)scale(0.1 -0.1)">
      <defs>
       <path id="DejaVuSans-57" d="M 213 4666 
L 850 4666 
L 1831 722 
L 2809 4666 
L 3519 4666 
L 4500 722 
L 5478 4666 
L 6119 4666 
L 4947 0 
L 4153 0 
L 3169 4050 
L 2175 0 
L 1381 0 
L 213 4666 
z
" transform="scale(0.015625)"/>
       <path id="DejaVuSans-44" d="M 1259 4147 
L 1259 519 
L 2022 519 
Q 2988 519 3436 956 
Q 3884 1394 3884 2338 
Q 3884 3275 3436 3711 
Q 2988 4147 2022 4147 
L 1259 4147 
z
M 628 4666 
L 1925 4666 
Q 3281 4666 3915 4102 
Q 4550 3538 4550 2338 
Q 4550 1131 3912 565 
Q 3275 0 1925 0 
L 628 0 
L 628 4666 
z
" transform="scale(0.015625)"/>
       <path id="DejaVuSans-63" d="M 3122 3366 
L 3122 2828 
Q 2878 2963 2633 3030 
Q 2388 3097 2138 3097 
Q 1578 3097 1268 2742 
Q 959 2388 959 1747 
Q 959 1106 1268 751 
Q 1578 397 2138 397 
Q 2388 397 2633 464 
Q 2878 531 3122 666 
L 3122 134 
Q 2881 22 2623 -34 
Q 2366 -91 2075 -91 
Q 1284 -91 818 406 
Q 353 903 353 1747 
Q 353 2603 823 3093 
Q 1294 3584 2113 3584 
Q 2378 3584 2631 3529 
Q 2884 3475 3122 3366 
z
" transform="scale(0.015625)"/>
       <path id="DejaVuSans-65" d="M 3597 1894 
L 3597 1613 
L 953 1613 
Q 991 1019 1311 708 
Q 1631 397 2203 397 
Q 2534 397 2845 478 
Q 3156 559 3463 722 
L 3463 178 
Q 3153 47 2828 -22 
Q 2503 -91 2169 -91 
Q 1331 -91 842 396 
Q 353 884 353 1716 
Q 353 2575 817 3079 
Q 1281 3584 2069 3584 
Q 2775 3584 3186 3129 
Q 3597 2675 3597 1894 
z
M 3022 2063 
Q 3016 2534 2758 2815 
Q 2500 3097 2075 3097 
Q 1594 3097 1305 2825 
Q 1016 2553 972 2059 
L 3022 2063 
z
" transform="scale(0.015625)"/>
      </defs>
      <use xlink:href="#DejaVuSans-57"/>
      <use xlink:href="#DejaVuSans-61" x="92.501953"/>
      <use xlink:href="#DejaVuSans-6c" x="153.78125"/>
      <use xlink:href="#DejaVuSans-6c" x="181.564453"/>
      <use xlink:href="#DejaVuSans-20" x="209.347656"/>
      <use xlink:href="#DejaVuSans-44" x="241.134766"/>
      <use xlink:href="#DejaVuSans-69" x="318.136719"/>
      <use xlink:href="#DejaVuSans-73" x="345.919922"/>
      <use xlink:href="#DejaVuSans-74" x="398.019531"/>
      <use xlink:href="#DejaVuSans-61" x="437.228516"/>
      <use xlink:href="#DejaVuSans-6e" x="498.507812"/>
      <use xlink:href="#DejaVuSans-63" x="561.886719"/>
      <use xlink:href="#DejaVuSans-65" x="616.867188"/>
      <use xlink:href="#DejaVuSans-20" x="678.390625"/>
      <use xlink:href="#DejaVuSans-5b" x="710.177734"/>
      <use xlink:href="#DejaVuSans-6d" x="749.191406"/>
      <use xlink:href="#DejaVuSans-6d" x="846.603516"/>
      <use xlink:href="#DejaVuSans-5d" x="944.015625"/>
     </g>
    </g>
   </g>
   <g id="line2d_27">
    <path d="M 62.648438 283.038596 
L 62.651061 283.117984 
L 62.760954 283.277981 
L 62.786777 283.277981 
L 62.887509 283.117984 
L 62.929626 283.198899 
L 62.976354 283.117984 
L 63.2889 283.117984 
L 63.368829 283.357064 
L 63.455215 283.198899 
L 63.548261 283.277981 
L 63.648173 283.514619 
L 63.755156 283.198899 
L 63.869927 283.277981 
L 63.991871 283.117984 
L 64.120988 283.277981 
L 64.259328 283.198899 
L 64.405866 283.277981 
L 64.560602 283.117984 
L 64.897741 283.117984 
L 65.080145 282.959208 
L 65.270746 283.038596 
L 65.471595 282.959208 
L 65.681667 282.721044 
L 65.900961 282.235555 
L 66.128453 282.235555 
L 66.613155 281.991284 
L 66.86934 282.073726 
L 67.133723 282.317997 
L 67.692206 282.235555 
L 68.598076 282.235555 
L 68.918819 282.559214 
L 69.248785 282.235555 
L 69.586949 282.638602 
L 69.935361 282.638602 
L 70.292995 282.397385 
L 70.659852 283.038596 
L 72.21848 283.277981 
L 72.630426 283.593091 
L 73.049544 283.671563 
L 73.479935 284.061175 
L 73.920573 284.98116 
L 74.371458 285.056884 
L 74.832591 285.433061 
L 76.256979 285.731683 
L 77.250977 286.10157 
L 77.753099 286.24856 
L 78.265469 286.24856 
L 79.320951 286.54083 
L 79.853815 286.54083 
L 80.38668 286.758842 
L 80.940039 286.686477 
L 82.046758 286.758842 
L 83.173971 286.758842 
L 83.747826 286.468068 
L 84.905781 286.395061 
L 85.489883 286.321872 
L 86.073984 286.54083 
L 86.668333 286.24856 
L 87.262682 286.175146 
L 87.867279 285.954 
L 91.505104 285.582677 
L 93.339388 285.582677 
L 93.954232 285.433061 
L 94.569076 285.433061 
L 95.183919 285.207722 
L 95.798763 285.28314 
L 96.413607 284.905436 
L 97.028451 284.905436 
L 97.643294 284.753072 
L 98.258138 284.753072 
L 99.487826 285.132303 
L 100.102669 285.358253 
L 100.717513 285.207722 
L 103.176888 285.207722 
L 103.791732 285.358253 
L 104.406576 284.98116 
L 105.021419 285.358253 
L 105.636263 285.207722 
L 107.480794 285.28314 
L 108.095638 284.905436 
L 108.710482 284.293232 
L 109.325326 284.293232 
L 109.940169 283.983619 
L 110.555013 283.983619 
L 111.169857 284.138731 
L 113.014388 284.215982 
L 113.629232 283.671563 
L 114.244076 283.905758 
L 116.088607 283.198899 
L 117.318294 282.959208 
L 117.933138 282.721044 
L 119.162826 281.908843 
L 120.392513 281.331753 
L 121.007357 280.492072 
L 121.622201 280.321082 
L 122.237044 279.545522 
L 122.851888 279.108888 
L 123.466732 278.48905 
L 124.081576 277.67685 
L 125.926107 273.341041 
L 127.155794 269.496828 
L 127.770638 267.066332 
L 129.615169 256.907716 
L 130.230013 253.017702 
L 131.459701 242.972061 
L 132.074544 237.811838 
L 133.304232 223.063982 
L 134.533919 198.575824 
L 135.148763 179.766964 
L 135.763607 145.294232 
L 136.378451 38.578381 
L 206.419401 38.578381 
L 207.034245 109.172672 
L 207.649089 147.828543 
L 208.263932 171.248016 
L 208.878776 187.675234 
L 209.49362 196.468987 
L 210.108464 209.201608 
L 211.952995 229.750898 
L 213.182682 240.926292 
L 214.41237 249.44524 
L 215.027214 253.842116 
L 216.871745 263.7015 
L 218.716276 271.035734 
L 220.560807 276.37916 
L 221.175651 277.768451 
L 222.405339 279.979103 
L 223.020182 280.660008 
L 223.635026 281.579077 
L 224.24987 281.74396 
L 224.864714 282.153114 
L 226.094401 282.235555 
L 226.709245 282.073726 
L 227.324089 281.579077 
L 228.553776 280.998934 
L 229.16862 280.492072 
L 229.783464 280.660008 
L 231.627995 280.492072 
L 234.08737 280.492072 
L 234.702214 280.745503 
L 235.931901 280.660008 
L 236.546745 280.660008 
L 237.161589 280.492072 
L 239.620964 281.496636 
L 240.235807 282.073726 
L 240.850651 281.991284 
L 242.080339 282.638602 
L 242.695182 282.721044 
L 243.310026 283.117984 
L 248.84362 283.198899 
L 249.458464 283.671563 
L 250.073307 283.983619 
L 250.688151 283.983619 
L 251.302995 284.138731 
L 251.917839 283.905758 
L 252.532682 283.983619 
L 253.147526 283.905758 
L 253.76237 283.671563 
L 254.992057 283.671563 
L 257.451432 283.117984 
L 258.066276 282.559214 
L 258.68112 282.638602 
L 260.525651 282.317997 
L 261.140495 281.991284 
L 261.755339 282.073726 
L 262.370182 281.908843 
L 262.985026 282.073726 
L 265.444401 281.661519 
L 266.059245 280.998934 
L 266.674089 280.998934 
L 267.288932 281.249312 
L 267.903776 280.998934 
L 268.51862 281.331753 
L 269.133464 281.331753 
L 269.748307 281.163817 
L 270.363151 281.249312 
L 270.977995 281.081375 
L 271.592839 281.249312 
L 272.207682 280.998934 
L 273.43737 280.998934 
L 275.281901 280.235587 
L 275.896745 280.492072 
L 276.511589 280.492072 
L 277.741276 280.913439 
L 278.35612 280.745503 
L 278.970964 281.081375 
L 281.430339 281.661519 
L 282.045182 281.74396 
L 282.660026 282.235555 
L 283.889714 281.826402 
L 284.504557 281.74396 
L 285.119401 281.908843 
L 285.734245 282.235555 
L 286.349089 282.397385 
L 286.963932 282.959208 
L 287.578776 283.117984 
L 288.808464 283.198899 
L 290.652995 283.593091 
L 291.267839 283.671563 
L 291.882682 283.905758 
L 292.497526 283.514619 
L 293.727214 283.593091 
L 294.342057 283.357064 
L 294.956901 283.593091 
L 296.186589 283.671563 
L 296.801432 283.514619 
L 297.416276 283.198899 
L 298.03112 283.277981 
L 298.645964 283.038596 
L 299.260807 282.959208 
L 300.490495 282.397385 
L 301.105339 281.908843 
L 301.720182 281.661519 
L 302.335026 281.081375 
L 302.94987 280.660008 
L 303.564714 280.745503 
L 304.179557 280.577567 
L 304.794401 280.235587 
L 305.409245 279.719565 
L 306.024089 279.545522 
L 308.483464 277.585248 
L 309.098307 276.754727 
L 310.327995 274.644837 
L 310.942839 273.035702 
L 312.172526 270.818944 
L 312.78737 268.928898 
L 314.017057 264.08928 
L 315.246745 258.571811 
L 317.70612 241.842308 
L 319.550651 224.132667 
L 320.165495 215.003042 
L 320.780339 208.163457 
L 322.010026 180.866183 
L 322.62487 150.210184 
L 323.239714 38.578381 
L 395.176432 38.578381 
L 395.791276 81.875399 
L 396.40612 147.828543 
L 397.020964 184.896653 
L 398.250651 205.965019 
L 399.480339 223.766261 
L 400.095182 229.445559 
L 400.710026 232.437878 
L 401.32487 236.773686 
L 401.939714 242.300316 
L 402.554557 245.720108 
L 404.399089 257.973348 
L 405.013932 261.289325 
L 405.628776 263.832796 
L 406.24362 266.944197 
L 407.985677 272.831125 
L 409.215365 275.713522 
L 412.084635 284.753072 
L 412.597005 286.027861 
L 413.724219 287.900808 
L 414.236589 288.805221 
L 414.748958 288.805221 
L 415.363802 289.010714 
L 415.876172 289.621697 
L 416.388542 290.024744 
L 416.900911 290.088865 
L 417.413281 290.35451 
L 417.823177 291.206404 
L 418.335547 291.334647 
L 419.257813 291.783494 
L 419.770182 291.591131 
L 420.180078 291.783494 
L 420.692448 290.815571 
L 421.922135 289.957569 
L 422.332031 290.223214 
L 422.741927 291.142283 
L 423.151823 290.946866 
L 423.459245 290.488859 
L 423.869141 290.156039 
L 424.176563 290.088865 
L 424.89388 288.390266 
L 426.123568 287.760047 
L 426.43099 288.598202 
L 426.738411 288.111492 
L 427.045833 288.111492 
L 427.250781 287.900808 
L 427.558203 287.83058 
L 427.763151 286.468068 
L 428.275521 285.80588 
L 428.480469 286.027861 
L 428.685417 285.80588 
L 428.890365 286.395061 
L 429.095313 287.83058 
L 429.402734 288.111492 
L 429.81263 288.598202 
L 430.017578 287.119447 
L 430.325 287.83058 
L 430.427474 287.83058 
L 430.529948 288.041264 
L 430.734896 289.215596 
L 430.939844 289.010714 
L 431.144792 287.119447 
L 431.34974 286.613806 
L 431.34974 287.900808 
L 431.452214 286.321872 
L 431.554688 286.758842 
L 431.554688 291.398768 
L 431.554688 286.613806 
L 431.554688 289.010714 
" clip-path="url(#p909bcd8623)" style="fill: none; stroke: #1f77b4; stroke-width: 1.5; stroke-linecap: square"/>
   </g>
   <g id="line2d_28">
    <path d="M 62.648438 282.5012 
L 62.648478 282.5012 
L 62.653561 282.864553 
L 62.657291 282.409598 
L 62.738492 282.5012 
L 62.760954 282.5012 
L 62.786777 282.317997 
L 62.81629 282.592802 
L 62.849799 282.409598 
L 62.887509 282.5012 
L 62.929626 282.226395 
L 62.976354 282.5012 
L 63.548261 282.5012 
L 63.648173 282.317997 
L 63.755156 282.5012 
L 63.869927 282.043192 
L 63.991871 282.592802 
L 64.120988 282.317997 
L 64.259328 282.684403 
L 64.405866 282.5012 
L 64.560602 282.772951 
L 64.72456 282.409598 
L 64.897741 282.684403 
L 65.080145 282.5012 
L 65.270746 283.044703 
L 65.471595 282.5012 
L 65.681667 283.40317 
L 65.900961 283.313706 
L 66.128453 283.492024 
L 66.366193 283.492024 
L 66.613155 283.846217 
L 66.86934 283.669731 
L 67.408353 283.934154 
L 67.692206 283.40317 
L 68.598076 283.846217 
L 69.248785 283.846217 
L 69.586949 283.40317 
L 69.935361 283.757974 
L 70.292995 283.313706 
L 72.21848 282.317997 
L 72.630426 282.043192 
L 73.049544 281.579077 
L 73.479935 281.484422 
L 73.920573 281.579077 
L 74.371458 281.484422 
L 74.832591 280.824891 
L 75.303971 280.919546 
L 75.775352 280.824891 
L 76.256979 281.014201 
L 76.748854 280.153146 
L 77.250977 280.537873 
L 77.753099 280.055437 
L 78.265469 280.537873 
L 79.853815 279.762312 
L 80.38668 280.345509 
L 80.940039 279.664604 
L 81.493398 280.153146 
L 82.046758 279.469187 
L 82.610365 280.345509 
L 83.173971 279.566896 
L 85.489883 280.250854 
L 86.073984 280.055437 
L 86.668333 280.537873 
L 87.262682 280.824891 
L 87.867279 279.957729 
L 88.461628 280.537873 
L 89.066224 280.443218 
L 89.67082 280.919546 
L 91.505104 281.014201 
L 92.109701 281.203511 
L 92.724544 281.670679 
L 93.954232 281.579077 
L 94.569076 281.579077 
L 95.183919 281.298166 
L 95.798763 281.670679 
L 96.413607 281.670679 
L 97.643294 282.134794 
L 98.872982 282.043192 
L 99.487826 281.579077 
L 100.102669 281.579077 
L 100.717513 281.298166 
L 101.947201 281.298166 
L 103.176888 281.670679 
L 104.406576 281.392821 
L 105.021419 281.484422 
L 106.251107 281.203511 
L 106.865951 281.579077 
L 107.480794 281.484422 
L 108.095638 282.043192 
L 109.940169 281.484422 
L 110.555013 281.856935 
L 111.169857 282.043192 
L 112.399544 281.95159 
L 113.014388 281.579077 
L 113.629232 281.856935 
L 114.244076 281.298166 
L 114.858919 281.579077 
L 116.088607 280.919546 
L 116.703451 280.730236 
L 117.318294 280.824891 
L 117.933138 279.957729 
L 118.547982 279.957729 
L 119.162826 279.469187 
L 119.777669 279.371479 
L 121.007357 277.860053 
L 124.081576 273.066236 
L 124.696419 271.408247 
L 125.311263 270.305975 
L 126.540951 266.251078 
L 128.385482 257.835945 
L 129.000326 254.26959 
L 130.230013 246.20865 
L 132.074544 228.590611 
L 133.304232 206.026086 
L 133.919076 186.728685 
L 134.533919 155.034535 
L 135.148763 43.402731 
L 209.49362 43.402731 
L 210.108464 152.652893 
L 210.723307 182.331808 
L 211.952995 209.079473 
L 213.182682 227.15552 
L 214.41237 238.941591 
L 215.027214 243.857543 
L 216.256901 251.368873 
L 217.486589 257.148933 
L 218.716276 263.396162 
L 221.175651 271.7716 
L 222.405339 274.65705 
L 224.24987 277.34403 
L 224.864714 278.47073 
L 226.094401 279.762312 
L 226.709245 279.957729 
L 227.324089 280.345509 
L 227.938932 280.537873 
L 228.553776 280.443218 
L 229.783464 281.014201 
L 230.398307 281.108856 
L 231.013151 280.919546 
L 232.242839 280.824891 
L 232.857682 280.537873 
L 234.08737 280.443218 
L 234.702214 280.055437 
L 235.317057 280.055437 
L 237.161589 279.566896 
L 239.620964 279.173009 
L 240.235807 279.371479 
L 240.850651 279.173009 
L 241.465495 278.571492 
L 242.080339 279.072247 
L 242.695182 278.571492 
L 243.310026 278.873777 
L 243.92487 278.47073 
L 244.539714 278.873777 
L 245.154557 278.168445 
L 245.769401 278.47073 
L 246.999089 278.369968 
L 247.613932 277.860053 
L 248.228776 277.963868 
L 248.84362 277.655476 
L 249.458464 277.860053 
L 250.073307 277.759291 
L 250.688151 277.963868 
L 251.302995 277.447846 
L 251.917839 278.06463 
L 252.532682 278.168445 
L 253.147526 278.47073 
L 253.76237 277.860053 
L 254.377214 278.571492 
L 254.992057 277.963868 
L 255.606901 278.974539 
L 256.221745 278.873777 
L 256.836589 279.469187 
L 257.451432 279.173009 
L 258.066276 279.469187 
L 258.68112 279.371479 
L 259.910807 279.469187 
L 260.525651 280.153146 
L 261.140495 279.762312 
L 261.755339 280.345509 
L 262.370182 280.250854 
L 262.985026 280.824891 
L 263.59987 280.055437 
L 264.214714 280.824891 
L 264.829557 280.250854 
L 265.444401 281.108856 
L 266.059245 280.919546 
L 268.51862 281.203511 
L 269.133464 281.203511 
L 269.748307 281.484422 
L 270.363151 281.392821 
L 270.977995 281.95159 
L 271.592839 282.043192 
L 272.207682 281.856935 
L 272.822526 282.226395 
L 273.43737 282.226395 
L 274.052214 282.409598 
L 274.667057 282.043192 
L 275.281901 282.134794 
L 275.896745 281.579077 
L 276.511589 282.409598 
L 277.126432 282.043192 
L 277.741276 282.5012 
L 278.35612 282.317997 
L 278.970964 282.317997 
L 279.585807 281.670679 
L 280.200651 281.484422 
L 280.815495 282.043192 
L 282.045182 281.392821 
L 282.660026 281.484422 
L 283.889714 281.014201 
L 285.119401 281.203511 
L 285.734245 280.919546 
L 286.349089 280.824891 
L 286.963932 280.919546 
L 287.578776 280.730236 
L 288.19362 279.957729 
L 288.808464 280.537873 
L 289.423307 280.537873 
L 290.652995 279.664604 
L 291.267839 279.957729 
L 291.882682 280.055437 
L 292.497526 279.664604 
L 293.727214 279.762312 
L 294.342057 279.469187 
L 295.571745 279.957729 
L 296.186589 280.345509 
L 296.801432 280.537873 
L 298.03112 280.443218 
L 298.645964 280.824891 
L 299.260807 281.014201 
L 299.875651 280.824891 
L 300.490495 281.014201 
L 301.105339 281.579077 
L 301.720182 281.670679 
L 302.335026 281.392821 
L 302.94987 281.392821 
L 304.179557 281.670679 
L 304.794401 282.134794 
L 305.409245 281.579077 
L 306.024089 281.670679 
L 306.638932 281.203511 
L 307.253776 281.484422 
L 307.86862 280.919546 
L 308.483464 280.730236 
L 310.327995 279.469187 
L 310.942839 278.773015 
L 311.557682 277.655476 
L 312.172526 277.447846 
L 313.402214 274.766972 
L 314.017057 274.208203 
L 314.631901 272.599068 
L 315.861589 268.657146 
L 317.091276 262.495413 
L 318.320964 253.32304 
L 318.935807 247.124666 
L 320.165495 230.697448 
L 320.780339 221.140349 
L 321.395182 205.384875 
L 322.010026 179.950167 
L 322.62487 98.027812 
L 323.239714 43.402731 
L 399.480339 43.402731 
L 400.095182 129.966233 
L 401.32487 190.667553 
L 401.939714 206.636764 
L 403.169401 228.590611 
L 403.784245 235.491264 
L 404.399089 243.857543 
L 405.013932 249.29257 
L 406.858464 261.884736 
L 407.473307 264.849574 
L 407.985677 267.872426 
L 408.600521 269.930408 
L 409.215365 272.483039 
L 409.830208 273.756302 
L 410.342578 275.970007 
L 410.957422 277.655476 
L 411.469792 279.469187 
L 412.084635 280.730236 
L 412.597005 281.484422 
L 413.211849 281.392821 
L 413.724219 282.5012 
L 414.236589 282.592802 
L 414.748958 282.043192 
L 415.363802 282.5012 
L 417.413281 282.772951 
L 417.823177 283.40317 
L 418.335547 283.669731 
L 418.847917 283.580877 
L 420.180078 284.458421 
L 420.692448 283.313706 
L 421.102344 283.40317 
L 421.51224 283.757974 
L 421.922135 283.669731 
L 422.332031 283.934154 
L 422.741927 285.317033 
L 423.459245 285.739316 
L 424.176563 286.570448 
L 424.586458 286.898076 
L 424.89388 285.822979 
L 425.508724 286.570448 
L 426.123568 286.979602 
L 426.43099 288.33958 
L 426.738411 288.886441 
L 427.045833 288.260803 
L 427.250781 289.957569 
L 427.558203 289.578949 
L 427.763151 289.578949 
L 428.070573 288.963692 
L 428.275521 289.578949 
L 428.685417 288.886441 
L 428.890365 288.886441 
L 429.095313 290.033904 
L 429.30026 290.406417 
L 429.402734 289.118193 
L 429.607682 290.033904 
L 430.017578 287.944472 
L 430.427474 287.944472 
L 430.529948 287.222957 
L 430.632422 289.118193 
L 430.734896 288.652857 
L 430.83737 289.118193 
L 430.939844 288.496524 
L 430.939844 289.655284 
L 431.042318 288.652857 
L 431.144792 288.182025 
L 431.144792 288.418357 
L 431.34974 288.80858 
L 431.452214 291.221671 
L 431.452214 289.731619 
L 431.554688 289.655284 
L 431.554688 286.816551 
L 431.554688 290.925493 
L 431.554688 286.816551 
" clip-path="url(#p909bcd8623)" style="fill: none; stroke: #ff7f0e; stroke-width: 1.5; stroke-linecap: square"/>
   </g>
   <g id="patch_3">
    <path d="M 44.203125 304.44375 
L 44.203125 25.918125 
" style="fill: none; stroke: #000000; stroke-width: 0.8; stroke-linejoin: miter; stroke-linecap: square"/>
   </g>
   <g id="patch_4">
    <path d="M 450 304.44375 
L 450 25.918125 
" style="fill: none; stroke: #000000; stroke-width: 0.8; stroke-linejoin: miter; stroke-linecap: square"/>
   </g>
   <g id="patch_5">
    <path d="M 44.203125 304.44375 
L 450 304.44375 
" style="fill: none; stroke: #000000; stroke-width: 0.8; stroke-linejoin: miter; stroke-linecap: square"/>
   </g>
   <g id="patch_6">
    <path d="M 44.203125 25.918125 
L 450 25.918125 
" style="fill: none; stroke: #000000; stroke-width: 0.8; stroke-linejoin: miter; stroke-linecap: square"/>
   </g>
   <g id="text_16">
    <!-- Side Wall Distance [mm] -->
    <g transform="translate(173.237813 19.918125)scale(0.12 -0.12)">
     <defs>
      <path id="DejaVuSans-53" d="M 3425 4513 
L 3425 3897 
Q 3066 4069 2747 4153 
Q 2428 4238 2131 4238 
Q 1616 4238 1336 4038 
Q 1056 3838 1056 3469 
Q 1056 3159 1242 3001 
Q 1428 2844 1947 2747 
L 2328 2669 
Q 3034 2534 3370 2195 
Q 3706 1856 3706 1288 
Q 3706 609 3251 259 
Q 2797 -91 1919 -91 
Q 1588 -91 1214 -16 
Q 841 59 441 206 
L 441 856 
Q 825 641 1194 531 
Q 1563 422 1919 422 
Q 2459 422 2753 634 
Q 3047 847 3047 1241 
Q 3047 1584 2836 1778 
Q 2625 1972 2144 2069 
L 1759 2144 
Q 1053 2284 737 2584 
Q 422 2884 422 3419 
Q 422 4038 858 4394 
Q 1294 4750 2059 4750 
Q 2388 4750 2728 4690 
Q 3069 4631 3425 4513 
z
" transform="scale(0.015625)"/>
      <path id="DejaVuSans-64" d="M 2906 2969 
L 2906 4863 
L 3481 4863 
L 3481 0 
L 2906 0 
L 2906 525 
Q 2725 213 2448 61 
Q 2172 -91 1784 -91 
Q 1150 -91 751 415 
Q 353 922 353 1747 
Q 353 2572 751 3078 
Q 1150 3584 1784 3584 
Q 2172 3584 2448 3432 
Q 2725 3281 2906 2969 
z
M 947 1747 
Q 947 1113 1208 752 
Q 1469 391 1925 391 
Q 2381 391 2643 752 
Q 2906 1113 2906 1747 
Q 2906 2381 2643 2742 
Q 2381 3103 1925 3103 
Q 1469 3103 1208 2742 
Q 947 2381 947 1747 
z
" transform="scale(0.015625)"/>
     </defs>
     <use xlink:href="#DejaVuSans-53"/>
     <use xlink:href="#DejaVuSans-69" x="63.476562"/>
     <use xlink:href="#DejaVuSans-64" x="91.259766"/>
     <use xlink:href="#DejaVuSans-65" x="154.736328"/>
     <use xlink:href="#DejaVuSans-20" x="216.259766"/>
     <use xlink:href="#DejaVuSans-57" x="248.046875"/>
     <use xlink:href="#DejaVuSans-61" x="340.548828"/>
     <use xlink:href="#DejaVuSans-6c" x="401.828125"/>
     <use xlink:href="#DejaVuSans-6c" x="429.611328"/>
     <use xlink:href="#DejaVuSans-20" x="457.394531"/>
     <use xlink:href="#DejaVuSans-44" x="489.181641"/>
     <use xlink:href="#DejaVuSans-69" x="566.183594"/>
     <use xlink:href="#DejaVuSans-73" x="593.966797"/>
     <use xlink:href="#DejaVuSans-74" x="646.066406"/>
     <use xlink:href="#DejaVuSans-61" x="685.275391"/>
     <use xlink:href="#DejaVuSans-6e" x="746.554688"/>
     <use xlink:href="#DejaVuSans-63" x="809.933594"/>
     <use xlink:href="#DejaVuSans-65" x="864.914062"/>
     <use xlink:href="#DejaVuSans-20" x="926.4375"/>
     <use xlink:href="#DejaVuSans-5b" x="958.224609"/>
     <use xlink:href="#DejaVuSans-6d" x="997.238281"/>
     <use xlink:href="#DejaVuSans-6d" x="1094.650391"/>
     <use xlink:href="#DejaVuSans-5d" x="1192.0625"/>
    </g>
   </g>
   <g id="legend_1">
    <g id="patch_7">
     <path d="M 404.051562 63.274375 
L 443 63.274375 
Q 445 63.274375 445 61.274375 
L 445 32.918125 
Q 445 30.918125 443 30.918125 
L 404.051562 30.918125 
Q 402.051562 30.918125 402.051562 32.918125 
L 402.051562 61.274375 
Q 402.051562 63.274375 404.051562 63.274375 
z
" style="fill: #ffffff; opacity: 0.8; stroke: #cccccc; stroke-linejoin: miter"/>
    </g>
    <g id="line2d_29">
     <path d="M 406.051562 39.016562 
L 416.051562 39.016562 
L 426.051562 39.016562 
" style="fill: none; stroke: #1f77b4; stroke-width: 1.5; stroke-linecap: square"/>
    </g>
    <g id="text_17">
     <!-- L -->
     <g transform="translate(434.051562 42.516562)scale(0.1 -0.1)">
      <defs>
       <path id="DejaVuSans-4c" d="M 628 4666 
L 1259 4666 
L 1259 531 
L 3531 531 
L 3531 0 
L 628 0 
L 628 4666 
z
" transform="scale(0.015625)"/>
      </defs>
      <use xlink:href="#DejaVuSans-4c"/>
     </g>
    </g>
    <g id="line2d_30">
     <path d="M 406.051562 53.694687 
L 416.051562 53.694687 
L 426.051562 53.694687 
" style="fill: none; stroke: #ff7f0e; stroke-width: 1.5; stroke-linecap: square"/>
    </g>
    <g id="text_18">
     <!-- R -->
     <g transform="translate(434.051562 57.194687)scale(0.1 -0.1)">
      <defs>
       <path id="DejaVuSans-52" d="M 2841 2188 
Q 3044 2119 3236 1894 
Q 3428 1669 3622 1275 
L 4263 0 
L 3584 0 
L 2988 1197 
Q 2756 1666 2539 1819 
Q 2322 1972 1947 1972 
L 1259 1972 
L 1259 0 
L 628 0 
L 628 4666 
L 2053 4666 
Q 2853 4666 3247 4331 
Q 3641 3997 3641 3322 
Q 3641 2881 3436 2590 
Q 3231 2300 2841 2188 
z
M 1259 4147 
L 1259 2491 
L 2053 2491 
Q 2509 2491 2742 2702 
Q 2975 2913 2975 3322 
Q 2975 3731 2742 3939 
Q 2509 4147 2053 4147 
L 1259 4147 
z
" transform="scale(0.015625)"/>
      </defs>
      <use xlink:href="#DejaVuSans-52"/>
     </g>
    </g>
   </g>
  </g>
 </g>
 <defs>
  <clipPath id="p909bcd8623">
   <rect x="44.203125" y="25.918125" width="405.796875" height="278.525625"/>
  </clipPath>
 </defs>
</svg>
