<?xml version="1.0" encoding="utf-8" standalone="no"?>
<!DOCTYPE svg PUBLIC "-//W3C//DTD SVG 1.1//EN"
  "http://www.w3.org/Graphics/SVG/1.1/DTD/svg11.dtd">
<svg xmlns:xlink="http://www.w3.org/1999/xlink" width="460.8pt" height="345.6pt" viewBox="0 0 460.8 345.6" xmlns="http://www.w3.org/2000/svg" version="1.1">
 <metadata>
  <rdf:RDF xmlns:dc="http://purl.org/dc/elements/1.1/" xmlns:cc="http://creativecommons.org/ns#" xmlns:rdf="http://www.w3.org/1999/02/22-rdf-syntax-ns#">
   <cc:Work>
    <dc:type rdf:resource="http://purl.org/dc/dcmitype/StillImage"/>
    <dc:date>2022-01-15T16:13:39.625791</dc:date>
    <dc:format>image/svg+xml</dc:format>
    <dc:creator>
     <cc:Agent>
      <dc:title>Matplotlib v3.5.1, https://matplotlib.org/</dc:title>
     </cc:Agent>
    </dc:creator>
   </cc:Work>
  </rdf:RDF>
 </metadata>
 <defs>
  <style type="text/css">*{stroke-linejoin: round; stroke-linecap: butt}</style>
 </defs>
 <g id="figure_1">
  <g id="patch_1">
   <path d="M 0 345.6 
L 460.8 345.6 
L 460.8 0 
L 0 0 
z
" style="fill: #ffffff"/>
  </g>
  <g id="axes_1">
   <g id="patch_2">
    <path d="M 58.945313 168.517812 
L 450 168.517812 
L 450 48.331875 
L 58.945313 48.331875 
z
" style="fill: #ffffff"/>
   </g>
   <g id="matplotlib.axis_1">
    <g id="xtick_1">
     <g id="line2d_1">
      <path d="M 76.720526 168.517812 
L 76.720526 48.331875 
" clip-path="url(#p1916fc60e5)" style="fill: none; stroke: #b0b0b0; stroke-width: 0.8; stroke-linecap: square"/>
     </g>
     <g id="line2d_2">
      <defs>
       <path id="m470acba525" d="M 0 0 
L 0 3.5 
" style="stroke: #000000; stroke-width: 0.8"/>
      </defs>
      <g>
       <use xlink:href="#m470acba525" x="76.720526" y="168.517812" style="stroke: #000000; stroke-width: 0.8"/>
      </g>
     </g>
    </g>
    <g id="xtick_2">
     <g id="line2d_3">
      <path d="M 142.554648 168.517812 
L 142.554648 48.331875 
" clip-path="url(#p1916fc60e5)" style="fill: none; stroke: #b0b0b0; stroke-width: 0.8; stroke-linecap: square"/>
     </g>
     <g id="line2d_4">
      <g>
       <use xlink:href="#m470acba525" x="142.554648" y="168.517812" style="stroke: #000000; stroke-width: 0.8"/>
      </g>
     </g>
    </g>
    <g id="xtick_3">
     <g id="line2d_5">
      <path d="M 208.388771 168.517812 
L 208.388771 48.331875 
" clip-path="url(#p1916fc60e5)" style="fill: none; stroke: #b0b0b0; stroke-width: 0.8; stroke-linecap: square"/>
     </g>
     <g id="line2d_6">
      <g>
       <use xlink:href="#m470acba525" x="208.388771" y="168.517812" style="stroke: #000000; stroke-width: 0.8"/>
      </g>
     </g>
    </g>
    <g id="xtick_4">
     <g id="line2d_7">
      <path d="M 274.222893 168.517812 
L 274.222893 48.331875 
" clip-path="url(#p1916fc60e5)" style="fill: none; stroke: #b0b0b0; stroke-width: 0.8; stroke-linecap: square"/>
     </g>
     <g id="line2d_8">
      <g>
       <use xlink:href="#m470acba525" x="274.222893" y="168.517812" style="stroke: #000000; stroke-width: 0.8"/>
      </g>
     </g>
    </g>
    <g id="xtick_5">
     <g id="line2d_9">
      <path d="M 340.057015 168.517812 
L 340.057015 48.331875 
" clip-path="url(#p1916fc60e5)" style="fill: none; stroke: #b0b0b0; stroke-width: 0.8; stroke-linecap: square"/>
     </g>
     <g id="line2d_10">
      <g>
       <use xlink:href="#m470acba525" x="340.057015" y="168.517812" style="stroke: #000000; stroke-width: 0.8"/>
      </g>
     </g>
    </g>
    <g id="xtick_6">
     <g id="line2d_11">
      <path d="M 405.891138 168.517812 
L 405.891138 48.331875 
" clip-path="url(#p1916fc60e5)" style="fill: none; stroke: #b0b0b0; stroke-width: 0.8; stroke-linecap: square"/>
     </g>
     <g id="line2d_12">
      <g>
       <use xlink:href="#m470acba525" x="405.891138" y="168.517812" style="stroke: #000000; stroke-width: 0.8"/>
      </g>
     </g>
    </g>
   </g>
   <g id="matplotlib.axis_2">
    <g id="ytick_1">
     <g id="line2d_13">
      <path d="M 58.945313 163.147882 
L 450 163.147882 
" clip-path="url(#p1916fc60e5)" style="fill: none; stroke: #b0b0b0; stroke-width: 0.8; stroke-linecap: square"/>
     </g>
     <g id="line2d_14">
      <defs>
       <path id="mdb469fd604" d="M 0 0 
L -3.5 0 
" style="stroke: #000000; stroke-width: 0.8"/>
      </defs>
      <g>
       <use xlink:href="#mdb469fd604" x="58.945313" y="163.147882" style="stroke: #000000; stroke-width: 0.8"/>
      </g>
     </g>
     <g id="text_1">
      <!-- 0 -->
      <g transform="translate(45.582813 166.9471)scale(0.1 -0.1)">
       <defs>
        <path id="DejaVuSans-30" d="M 2034 4250 
Q 1547 4250 1301 3770 
Q 1056 3291 1056 2328 
Q 1056 1369 1301 889 
Q 1547 409 2034 409 
Q 2525 409 2770 889 
Q 3016 1369 3016 2328 
Q 3016 3291 2770 3770 
Q 2525 4250 2034 4250 
z
M 2034 4750 
Q 2819 4750 3233 4129 
Q 3647 3509 3647 2328 
Q 3647 1150 3233 529 
Q 2819 -91 2034 -91 
Q 1250 -91 836 529 
Q 422 1150 422 2328 
Q 422 3509 836 4129 
Q 1250 4750 2034 4750 
z
" transform="scale(0.015625)"/>
       </defs>
       <use xlink:href="#DejaVuSans-30"/>
      </g>
     </g>
    </g>
    <g id="ytick_2">
     <g id="line2d_15">
      <path d="M 58.945313 139.881284 
L 450 139.881284 
" clip-path="url(#p1916fc60e5)" style="fill: none; stroke: #b0b0b0; stroke-width: 0.8; stroke-linecap: square"/>
     </g>
     <g id="line2d_16">
      <g>
       <use xlink:href="#mdb469fd604" x="58.945313" y="139.881284" style="stroke: #000000; stroke-width: 0.8"/>
      </g>
     </g>
     <g id="text_2">
      <!-- 250 -->
      <g transform="translate(32.857813 143.680503)scale(0.1 -0.1)">
       <defs>
        <path id="DejaVuSans-32" d="M 1228 531 
L 3431 531 
L 3431 0 
L 469 0 
L 469 531 
Q 828 903 1448 1529 
Q 2069 2156 2228 2338 
Q 2531 2678 2651 2914 
Q 2772 3150 2772 3378 
Q 2772 3750 2511 3984 
Q 2250 4219 1831 4219 
Q 1534 4219 1204 4116 
Q 875 4013 500 3803 
L 500 4441 
Q 881 4594 1212 4672 
Q 1544 4750 1819 4750 
Q 2544 4750 2975 4387 
Q 3406 4025 3406 3419 
Q 3406 3131 3298 2873 
Q 3191 2616 2906 2266 
Q 2828 2175 2409 1742 
Q 1991 1309 1228 531 
z
" transform="scale(0.015625)"/>
        <path id="DejaVuSans-35" d="M 691 4666 
L 3169 4666 
L 3169 4134 
L 1269 4134 
L 1269 2991 
Q 1406 3038 1543 3061 
Q 1681 3084 1819 3084 
Q 2600 3084 3056 2656 
Q 3513 2228 3513 1497 
Q 3513 744 3044 326 
Q 2575 -91 1722 -91 
Q 1428 -91 1123 -41 
Q 819 9 494 109 
L 494 744 
Q 775 591 1075 516 
Q 1375 441 1709 441 
Q 2250 441 2565 725 
Q 2881 1009 2881 1497 
Q 2881 1984 2565 2268 
Q 2250 2553 1709 2553 
Q 1456 2553 1204 2497 
Q 953 2441 691 2322 
L 691 4666 
z
" transform="scale(0.015625)"/>
       </defs>
       <use xlink:href="#DejaVuSans-32"/>
       <use xlink:href="#DejaVuSans-35" x="63.623047"/>
       <use xlink:href="#DejaVuSans-30" x="127.246094"/>
      </g>
     </g>
    </g>
    <g id="ytick_3">
     <g id="line2d_17">
      <path d="M 58.945313 116.614686 
L 450 116.614686 
" clip-path="url(#p1916fc60e5)" style="fill: none; stroke: #b0b0b0; stroke-width: 0.8; stroke-linecap: square"/>
     </g>
     <g id="line2d_18">
      <g>
       <use xlink:href="#mdb469fd604" x="58.945313" y="116.614686" style="stroke: #000000; stroke-width: 0.8"/>
      </g>
     </g>
     <g id="text_3">
      <!-- 500 -->
      <g transform="translate(32.857813 120.413905)scale(0.1 -0.1)">
       <use xlink:href="#DejaVuSans-35"/>
       <use xlink:href="#DejaVuSans-30" x="63.623047"/>
       <use xlink:href="#DejaVuSans-30" x="127.246094"/>
      </g>
     </g>
    </g>
    <g id="ytick_4">
     <g id="line2d_19">
      <path d="M 58.945313 93.348088 
L 450 93.348088 
" clip-path="url(#p1916fc60e5)" style="fill: none; stroke: #b0b0b0; stroke-width: 0.8; stroke-linecap: square"/>
     </g>
     <g id="line2d_20">
      <g>
       <use xlink:href="#mdb469fd604" x="58.945313" y="93.348088" style="stroke: #000000; stroke-width: 0.8"/>
      </g>
     </g>
     <g id="text_4">
      <!-- 750 -->
      <g transform="translate(32.857813 97.147307)scale(0.1 -0.1)">
       <defs>
        <path id="DejaVuSans-37" d="M 525 4666 
L 3525 4666 
L 3525 4397 
L 1831 0 
L 1172 0 
L 2766 4134 
L 525 4134 
L 525 4666 
z
" transform="scale(0.015625)"/>
       </defs>
       <use xlink:href="#DejaVuSans-37"/>
       <use xlink:href="#DejaVuSans-35" x="63.623047"/>
       <use xlink:href="#DejaVuSans-30" x="127.246094"/>
      </g>
     </g>
    </g>
    <g id="ytick_5">
     <g id="line2d_21">
      <path d="M 58.945313 70.081491 
L 450 70.081491 
" clip-path="url(#p1916fc60e5)" style="fill: none; stroke: #b0b0b0; stroke-width: 0.8; stroke-linecap: square"/>
     </g>
     <g id="line2d_22">
      <g>
       <use xlink:href="#mdb469fd604" x="58.945313" y="70.081491" style="stroke: #000000; stroke-width: 0.8"/>
      </g>
     </g>
     <g id="text_5">
      <!-- 1000 -->
      <g transform="translate(26.495313 73.880709)scale(0.1 -0.1)">
       <defs>
        <path id="DejaVuSans-31" d="M 794 531 
L 1825 531 
L 1825 4091 
L 703 3866 
L 703 4441 
L 1819 4666 
L 2450 4666 
L 2450 531 
L 3481 531 
L 3481 0 
L 794 0 
L 794 531 
z
" transform="scale(0.015625)"/>
       </defs>
       <use xlink:href="#DejaVuSans-31"/>
       <use xlink:href="#DejaVuSans-30" x="63.623047"/>
       <use xlink:href="#DejaVuSans-30" x="127.246094"/>
       <use xlink:href="#DejaVuSans-30" x="190.869141"/>
      </g>
     </g>
    </g>
    <g id="text_6">
     <!-- reflector value -->
     <g transform="translate(20.415625 144.74125)rotate(-90)scale(0.1 -0.1)">
      <defs>
       <path id="DejaVuSans-72" d="M 2631 2963 
Q 2534 3019 2420 3045 
Q 2306 3072 2169 3072 
Q 1681 3072 1420 2755 
Q 1159 2438 1159 1844 
L 1159 0 
L 581 0 
L 581 3500 
L 1159 3500 
L 1159 2956 
Q 1341 3275 1631 3429 
Q 1922 3584 2338 3584 
Q 2397 3584 2469 3576 
Q 2541 3569 2628 3553 
L 2631 2963 
z
" transform="scale(0.015625)"/>
       <path id="DejaVuSans-65" d="M 3597 1894 
L 3597 1613 
L 953 1613 
Q 991 1019 1311 708 
Q 1631 397 2203 397 
Q 2534 397 2845 478 
Q 3156 559 3463 722 
L 3463 178 
Q 3153 47 2828 -22 
Q 2503 -91 2169 -91 
Q 1331 -91 842 396 
Q 353 884 353 1716 
Q 353 2575 817 3079 
Q 1281 3584 2069 3584 
Q 2775 3584 3186 3129 
Q 3597 2675 3597 1894 
z
M 3022 2063 
Q 3016 2534 2758 2815 
Q 2500 3097 2075 3097 
Q 1594 3097 1305 2825 
Q 1016 2553 972 2059 
L 3022 2063 
z
" transform="scale(0.015625)"/>
       <path id="DejaVuSans-66" d="M 2375 4863 
L 2375 4384 
L 1825 4384 
Q 1516 4384 1395 4259 
Q 1275 4134 1275 3809 
L 1275 3500 
L 2222 3500 
L 2222 3053 
L 1275 3053 
L 1275 0 
L 697 0 
L 697 3053 
L 147 3053 
L 147 3500 
L 697 3500 
L 697 3744 
Q 697 4328 969 4595 
Q 1241 4863 1831 4863 
L 2375 4863 
z
" transform="scale(0.015625)"/>
       <path id="DejaVuSans-6c" d="M 603 4863 
L 1178 4863 
L 1178 0 
L 603 0 
L 603 4863 
z
" transform="scale(0.015625)"/>
       <path id="DejaVuSans-63" d="M 3122 3366 
L 3122 2828 
Q 2878 2963 2633 3030 
Q 2388 3097 2138 3097 
Q 1578 3097 1268 2742 
Q 959 2388 959 1747 
Q 959 1106 1268 751 
Q 1578 397 2138 397 
Q 2388 397 2633 464 
Q 2878 531 3122 666 
L 3122 134 
Q 2881 22 2623 -34 
Q 2366 -91 2075 -91 
Q 1284 -91 818 406 
Q 353 903 353 1747 
Q 353 2603 823 3093 
Q 1294 3584 2113 3584 
Q 2378 3584 2631 3529 
Q 2884 3475 3122 3366 
z
" transform="scale(0.015625)"/>
       <path id="DejaVuSans-74" d="M 1172 4494 
L 1172 3500 
L 2356 3500 
L 2356 3053 
L 1172 3053 
L 1172 1153 
Q 1172 725 1289 603 
Q 1406 481 1766 481 
L 2356 481 
L 2356 0 
L 1766 0 
Q 1100 0 847 248 
Q 594 497 594 1153 
L 594 3053 
L 172 3053 
L 172 3500 
L 594 3500 
L 594 4494 
L 1172 4494 
z
" transform="scale(0.015625)"/>
       <path id="DejaVuSans-6f" d="M 1959 3097 
Q 1497 3097 1228 2736 
Q 959 2375 959 1747 
Q 959 1119 1226 758 
Q 1494 397 1959 397 
Q 2419 397 2687 759 
Q 2956 1122 2956 1747 
Q 2956 2369 2687 2733 
Q 2419 3097 1959 3097 
z
M 1959 3584 
Q 2709 3584 3137 3096 
Q 3566 2609 3566 1747 
Q 3566 888 3137 398 
Q 2709 -91 1959 -91 
Q 1206 -91 779 398 
Q 353 888 353 1747 
Q 353 2609 779 3096 
Q 1206 3584 1959 3584 
z
" transform="scale(0.015625)"/>
       <path id="DejaVuSans-20" transform="scale(0.015625)"/>
       <path id="DejaVuSans-76" d="M 191 3500 
L 800 3500 
L 1894 563 
L 2988 3500 
L 3597 3500 
L 2284 0 
L 1503 0 
L 191 3500 
z
" transform="scale(0.015625)"/>
       <path id="DejaVuSans-61" d="M 2194 1759 
Q 1497 1759 1228 1600 
Q 959 1441 959 1056 
Q 959 750 1161 570 
Q 1363 391 1709 391 
Q 2188 391 2477 730 
Q 2766 1069 2766 1631 
L 2766 1759 
L 2194 1759 
z
M 3341 1997 
L 3341 0 
L 2766 0 
L 2766 531 
Q 2569 213 2275 61 
Q 1981 -91 1556 -91 
Q 1019 -91 701 211 
Q 384 513 384 1019 
Q 384 1609 779 1909 
Q 1175 2209 1959 2209 
L 2766 2209 
L 2766 2266 
Q 2766 2663 2505 2880 
Q 2244 3097 1772 3097 
Q 1472 3097 1187 3025 
Q 903 2953 641 2809 
L 641 3341 
Q 956 3463 1253 3523 
Q 1550 3584 1831 3584 
Q 2591 3584 2966 3190 
Q 3341 2797 3341 1997 
z
" transform="scale(0.015625)"/>
       <path id="DejaVuSans-75" d="M 544 1381 
L 544 3500 
L 1119 3500 
L 1119 1403 
Q 1119 906 1312 657 
Q 1506 409 1894 409 
Q 2359 409 2629 706 
Q 2900 1003 2900 1516 
L 2900 3500 
L 3475 3500 
L 3475 0 
L 2900 0 
L 2900 538 
Q 2691 219 2414 64 
Q 2138 -91 1772 -91 
Q 1169 -91 856 284 
Q 544 659 544 1381 
z
M 1991 3584 
L 1991 3584 
z
" transform="scale(0.015625)"/>
      </defs>
      <use xlink:href="#DejaVuSans-72"/>
      <use xlink:href="#DejaVuSans-65" x="38.863281"/>
      <use xlink:href="#DejaVuSans-66" x="100.386719"/>
      <use xlink:href="#DejaVuSans-6c" x="135.591797"/>
      <use xlink:href="#DejaVuSans-65" x="163.375"/>
      <use xlink:href="#DejaVuSans-63" x="224.898438"/>
      <use xlink:href="#DejaVuSans-74" x="279.878906"/>
      <use xlink:href="#DejaVuSans-6f" x="319.087891"/>
      <use xlink:href="#DejaVuSans-72" x="380.269531"/>
      <use xlink:href="#DejaVuSans-20" x="421.382812"/>
      <use xlink:href="#DejaVuSans-76" x="453.169922"/>
      <use xlink:href="#DejaVuSans-61" x="512.349609"/>
      <use xlink:href="#DejaVuSans-6c" x="573.628906"/>
      <use xlink:href="#DejaVuSans-75" x="601.412109"/>
      <use xlink:href="#DejaVuSans-65" x="664.791016"/>
     </g>
    </g>
   </g>
   <g id="line2d_23">
    <path d="M 76.720526 101.444864 
L 76.747491 101.537931 
L 76.936198 102.189396 
L 77.141864 101.630997 
L 77.208225 101.537931 
L 77.448651 101.724064 
L 77.543452 101.630997 
L 77.75715 101.910196 
L 78.142543 102.096329 
L 78.446696 102.189396 
L 78.978636 102.561661 
L 79.388124 103.120059 
L 80.617906 104.050723 
L 81.497449 104.14379 
L 82.143941 104.609122 
L 82.836516 105.260586 
L 83.201237 105.539786 
L 84.365184 106.842715 
L 85.201277 107.49418 
L 86.542977 108.51791 
L 87.496255 108.983242 
L 88.49825 109.82084 
L 90.084852 110.84457 
L 90.637859 111.030703 
L 92.981554 110.937636 
L 94.206068 110.658437 
L 95.48325 110.565371 
L 96.128425 110.658437 
L 100.223307 110.006972 
L 103.093675 109.355508 
L 105.318868 109.262441 
L 106.819886 108.983242 
L 109.124081 108.424844 
L 111.441442 107.401113 
L 112.218284 107.121914 
L 113.798303 106.842715 
L 115.365155 106.563516 
L 116.945174 106.47045 
L 120.895222 106.098184 
L 122.475241 106.098184 
L 124.05526 106.935781 
L 128.005307 109.262441 
L 129.585326 110.472304 
L 130.375335 111.030703 
L 131.165345 112.054433 
L 132.745364 114.846425 
L 134.325383 118.755213 
L 135.905402 123.780798 
L 137.485421 129.737047 
L 139.855449 140.532749 
L 142.225477 151.886848 
L 143.015487 155.051106 
L 143.805496 157.750031 
L 144.595506 159.797492 
L 145.385515 161.286554 
L 146.175525 162.403351 
L 146.965534 162.961749 
L 148.545553 163.054815 
L 237.092448 162.961749 
L 237.882457 162.68255 
L 238.672467 162.124151 
L 239.462476 161.193488 
L 240.252486 160.076691 
L 241.832505 157.098566 
L 242.622514 155.330305 
L 244.202533 150.770052 
L 245.782552 145.6514 
L 248.15258 137.461558 
L 249.732599 132.156773 
L 251.312618 127.968786 
L 252.102628 126.200524 
L 253.550979 123.687732 
L 254.340988 122.850134 
L 255.921007 121.640271 
L 256.711016 121.268006 
L 257.501026 120.709607 
L 259.081045 120.058143 
L 260.661064 119.313612 
L 263.821102 118.662147 
L 265.401121 119.127479 
L 267.771149 119.87201 
L 269.351168 119.965076 
L 270.141177 119.965076 
L 274.881234 118.196815 
L 275.671244 118.289881 
L 278.041272 119.313612 
L 279.621291 119.685877 
L 281.20131 119.685877 
L 281.991319 119.499744 
L 285.151357 118.103748 
L 285.941367 117.824549 
L 286.731376 117.917616 
L 288.311395 118.56908 
L 290.681424 119.406678 
L 292.261443 119.592811 
L 293.841461 119.127479 
L 295.42148 118.662147 
L 297.001499 118.382948 
L 298.581518 119.220545 
L 300.161537 120.151209 
L 300.951547 120.430408 
L 303.321575 120.616541 
L 306.481613 119.592811 
L 307.271622 119.685877 
L 311.22167 121.91947 
L 312.801689 122.105603 
L 313.591698 121.91947 
L 315.171717 120.988807 
L 316.751736 120.337342 
L 317.541746 120.430408 
L 320.701783 121.91947 
L 322.281802 121.826404 
L 323.071812 121.733338 
L 325.44184 120.430408 
L 326.23185 120.058143 
L 327.021859 120.151209 
L 330.181897 121.733338 
L 332.551926 121.640271 
L 334.921954 120.337342 
L 335.711963 120.151209 
L 336.501973 120.337342 
L 338.872001 121.733338 
L 339.662011 122.012537 
L 341.24203 122.012537 
L 342.032039 121.733338 
L 344.402068 120.430408 
L 345.192077 120.523475 
L 345.982086 120.802674 
L 348.352115 122.664002 
L 349.142124 123.129334 
L 350.722143 123.315466 
L 352.302162 122.664002 
L 353.092172 122.291736 
L 353.882181 122.105603 
L 354.672191 122.384802 
L 355.4622 123.036267 
L 357.832229 126.200524 
L 359.412247 127.503454 
L 360.202257 128.341051 
L 361.782276 129.085583 
L 362.572285 129.643981 
L 364.152304 132.529039 
L 368.102352 142.952475 
L 368.892361 144.999935 
L 370.47238 148.164193 
L 372.842408 154.306575 
L 374.422427 158.494562 
L 375.212437 160.169757 
L 376.002446 161.565753 
L 376.792456 162.589483 
L 377.582465 163.054815 
L 429.459754 162.961749 
L 430.5131 162.310284 
L 430.908104 162.403351 
L 431.039773 162.589483 
L 431.434777 162.217218 
L 431.434777 162.031085 
L 431.566446 161.658819 
L 431.829782 161.658819 
L 431.829782 161.938019 
L 431.96145 162.310284 
L 431.96145 162.217218 
L 431.96145 161.938019 
L 432.093119 161.844952 
L 432.093119 161.193488 
L 432.093119 161.193488 
L 432.224787 161.193488 
L 432.224787 161.938019 
L 432.224787 160.542023 
L 432.224787 160.914288 
" clip-path="url(#p1916fc60e5)" style="fill: none; stroke: #1f77b4; stroke-width: 2; stroke-linecap: square"/>
   </g>
   <g id="line2d_24">
    <path d="M 76.720526 163.054815 
L 359.412247 162.961749 
L 360.992266 162.68255 
L 362.572285 162.310284 
L 365.732323 162.403351 
L 367.312342 162.68255 
L 368.892361 162.310284 
L 369.682371 161.938019 
L 371.26239 160.914288 
L 373.632418 160.914288 
L 375.212437 161.658819 
L 376.002446 161.658819 
L 377.582465 161.193488 
L 379.162484 159.611359 
L 379.952494 158.773761 
L 381.532513 158.773761 
L 382.322522 159.052961 
L 383.902541 160.635089 
L 384.692551 160.635089 
L 386.272569 160.169757 
L 388.642598 156.260969 
L 390.222617 156.260969 
L 391.012626 157.0055 
L 392.592645 159.239093 
L 393.382655 159.146027 
L 394.962674 158.401496 
L 396.542693 154.864973 
L 397.332702 154.399641 
L 398.912721 154.399641 
L 399.70273 155.795637 
L 400.49274 156.633234 
L 401.282749 158.122297 
L 402.7311 161.37962 
L 403.52111 160.448956 
L 404.96946 155.516438 
L 406.417811 150.770052 
L 408.656171 149.560189 
L 409.314512 150.211653 
L 410.631195 153.841243 
L 411.421204 153.65511 
L 412.079545 153.003645 
L 414.054569 144.441537 
L 414.581242 143.883139 
L 415.897925 143.045541 
L 417.082939 146.95433 
L 417.609612 146.768197 
L 418.794626 145.558334 
L 419.847972 139.509018 
L 421.427991 137.92689 
L 422.349669 142.207944 
L 422.744673 141.649545 
L 423.271346 141.370346 
L 423.666351 140.625815 
L 424.45636 134.483433 
L 425.641375 132.994371 
L 426.431384 137.647691 
L 426.694721 137.182359 
L 427.353062 136.251695 
L 428.27474 129.364782 
L 428.801413 128.247985 
L 429.328086 132.808238 
L 429.459754 131.877574 
L 429.986427 130.481578 
L 430.249763 123.966931 
L 430.5131 123.501599 
L 430.776436 122.477869 
L 431.039773 127.59652 
L 431.303109 126.386657 
L 431.434777 125.921325 
L 431.434777 122.757068 
L 431.566446 119.592811 
L 431.698114 119.313612 
L 431.698114 118.941346 
L 431.829782 118.56908 
L 431.829782 121.547205 
L 431.96145 124.153064 
L 431.96145 123.129334 
L 432.093119 122.850134 
L 432.093119 116.52162 
L 432.224787 116.335487 
L 432.224787 122.477869 
L 432.224787 112.892031 
L 432.224787 114.474159 
" clip-path="url(#p1916fc60e5)" style="fill: none; stroke: #ff7f0e; stroke-width: 2; stroke-linecap: square"/>
   </g>
   <g id="line2d_25">
    <path d="M 76.720526 163.054815 
L 375.212437 162.961749 
L 379.162484 161.007355 
L 381.532513 161.007355 
L 383.112532 161.844952 
L 383.902541 162.310284 
L 385.48256 161.472687 
L 387.852588 158.680695 
L 390.222617 158.680695 
L 392.592645 161.193488 
L 394.172664 160.262824 
L 395.752683 157.284699 
L 396.542693 155.609504 
L 398.912721 155.609504 
L 399.70273 156.260969 
L 400.49274 157.191633 
L 401.282749 158.494562 
L 402.7311 161.37962 
L 404.311119 156.912434 
L 404.96946 154.67884 
L 405.75947 153.003645 
L 406.417811 151.142317 
L 408.656171 150.025521 
L 410.631195 154.585774 
L 412.079545 153.375911 
L 414.054569 145.558334 
L 415.239583 144.62767 
L 415.897925 144.162338 
L 417.082939 147.419662 
L 418.794626 145.372201 
L 419.847972 139.695151 
L 421.427991 138.206089 
L 422.349669 141.835678 
L 423.271346 140.718881 
L 423.666351 139.97435 
L 424.061356 136.717027 
L 424.45636 134.390367 
L 425.641375 132.901305 
L 426.431384 136.717027 
L 427.089725 135.60023 
L 427.353062 134.204234 
L 427.748067 130.94691 
L 428.011403 127.503454 
L 428.801413 125.921325 
L 429.328086 130.016246 
L 429.459754 129.457848 
L 429.986427 128.713317 
L 430.249763 123.408533 
L 430.776436 122.105603 
L 431.039773 126.851989 
L 431.303109 126.293591 
L 431.434777 124.804529 
L 431.434777 121.826404 
L 431.698114 120.058143 
L 431.829782 119.778943 
L 431.829782 122.291736 
L 431.96145 124.618396 
L 431.96145 124.339197 
L 432.093119 122.291736 
L 432.093119 117.917616 
L 432.224787 117.731483 
L 432.224787 122.664002 
L 432.224787 114.101894 
L 432.224787 115.497889 
" clip-path="url(#p1916fc60e5)" style="fill: none; stroke: #2ca02c; stroke-width: 2; stroke-linecap: square"/>
   </g>
   <g id="line2d_26">
    <path d="M 76.720526 108.052578 
L 76.721948 107.959512 
L 76.773193 108.610977 
L 76.811535 108.51791 
L 76.836236 108.610977 
L 76.865097 108.424844 
L 76.898278 108.51791 
L 76.936198 108.51791 
L 77.081823 108.145645 
L 77.281301 108.052578 
L 77.361355 107.959512 
L 77.448651 108.052578 
L 77.543452 107.959512 
L 77.646153 108.052578 
L 77.876704 107.959512 
L 78.290011 107.866445 
L 78.446696 107.680313 
L 78.612598 107.866445 
L 80.899676 106.656582 
L 81.191979 106.656582 
L 82.483645 105.353653 
L 82.836516 105.446719 
L 83.964912 104.329923 
L 85.201277 103.492325 
L 85.635782 103.306192 
L 86.083454 102.654728 
L 86.542977 102.375528 
L 87.014349 101.910196 
L 88.49825 101.258732 
L 89.017023 100.979532 
L 89.546329 100.514201 
L 91.783373 99.676603 
L 92.37588 99.676603 
L 92.981554 99.304337 
L 98.827624 99.397404 
L 99.512299 99.49047 
L 100.223307 99.397404 
L 100.934316 99.583537 
L 101.645324 99.955802 
L 103.831017 100.607267 
L 106.819886 101.724064 
L 107.583562 101.724064 
L 108.347238 102.096329 
L 111.441442 102.747794 
L 112.218284 102.84086 
L 113.798303 103.306192 
L 116.155165 103.678458 
L 116.945174 103.864591 
L 118.525193 103.957657 
L 119.315203 104.14379 
L 120.895222 104.236856 
L 121.685231 104.329923 
L 123.26525 104.236856 
L 124.845269 104.609122 
L 125.635279 104.516055 
L 134.325383 106.563516 
L 135.115392 106.935781 
L 136.695411 107.959512 
L 138.27543 109.634707 
L 139.855449 112.054433 
L 141.435468 115.404823 
L 143.015487 120.151209 
L 144.595506 126.014392 
L 146.175525 132.622105 
L 150.915582 154.585774 
L 151.705591 157.284699 
L 152.495601 159.518292 
L 153.28561 161.193488 
L 154.075619 162.310284 
L 154.865629 162.868683 
L 155.655638 163.054815 
L 244.992543 162.961749 
L 246.572562 162.124151 
L 247.362571 161.472687 
L 248.15258 160.635089 
L 249.732599 158.215363 
L 251.312618 155.051106 
L 252.892637 151.421516 
L 254.340988 147.512728 
L 256.711016 141.370346 
L 258.291035 136.996226 
L 259.871054 133.180504 
L 260.661064 131.784508 
L 261.451073 130.94691 
L 262.241083 130.388512 
L 263.031092 130.853844 
L 263.821102 132.156773 
L 264.611111 134.111168 
L 265.401121 136.996226 
L 266.98114 144.441537 
L 268.561158 152.072981 
L 269.351168 155.423371 
L 270.141177 158.215363 
L 270.931187 160.35589 
L 271.721196 161.844952 
L 272.511206 162.775616 
L 273.301215 163.054815 
L 366.522333 163.054815 
L 367.312342 162.496417 
L 368.102352 161.751886 
L 368.892361 160.448956 
L 369.682371 158.587629 
L 370.47238 156.260969 
L 372.052399 150.211653 
L 373.632418 142.859408 
L 375.212437 133.459703 
L 377.582465 116.149354 
L 379.952494 97.908342 
L 380.742503 93.348088 
L 381.532513 89.532366 
L 382.322522 87.019574 
L 383.112532 85.06518 
L 383.902541 84.041449 
L 384.692551 82.831586 
L 385.48256 81.993989 
L 386.272569 81.43559 
L 387.062579 80.597993 
L 387.852588 80.039594 
L 389.432607 79.574263 
L 390.222617 79.108931 
L 392.592645 79.946528 
L 394.172664 78.736665 
L 396.542693 75.386275 
L 397.332702 74.827877 
L 398.912721 73.990279 
L 399.70273 74.176412 
L 400.49274 73.990279 
L 402.7311 75.107076 
L 404.311119 72.501217 
L 404.96946 71.105221 
L 406.417811 68.871628 
L 407.866162 68.03403 
L 408.656171 67.847897 
L 410.631195 70.174557 
L 412.079545 69.150827 
L 414.054569 64.497507 
L 414.581242 64.032175 
L 415.239583 63.65991 
L 415.897925 63.65991 
L 417.082939 65.800437 
L 417.609612 65.428171 
L 418.794626 64.869773 
L 419.321299 63.752976 
L 419.847972 62.263914 
L 420.374645 61.891648 
L 420.901318 61.891648 
L 421.427991 61.705515 
L 422.349669 65.055905 
L 422.744673 65.055905 
L 423.271346 64.776706 
L 423.666351 64.869773 
L 424.45636 62.35698 
L 425.24637 62.822312 
L 425.641375 62.729246 
L 426.431384 66.172702 
L 427.353062 65.521237 
L 428.27474 61.240183 
L 428.801413 60.402586 
L 429.328086 63.566843 
L 429.459754 63.101511 
L 429.986427 62.450047 
L 430.249763 58.262059 
L 430.644768 58.075926 
L 430.776436 57.889793 
L 431.039773 61.798582 
L 431.434777 60.960984 
L 431.434777 58.727391 
L 431.566446 56.121532 
L 431.698114 55.842333 
L 431.698114 55.190868 
L 431.829782 55.190868 
L 431.829782 57.052196 
L 431.96145 59.00659 
L 431.96145 58.727391 
L 432.093119 59.00659 
L 432.093119 54.818602 
L 432.093119 55.097802 
L 432.224787 55.097802 
L 432.224787 60.03032 
L 432.224787 53.794872 
L 432.224787 55.190868 
" clip-path="url(#p1916fc60e5)" style="fill: none; stroke: #d62728; stroke-width: 2; stroke-linecap: square"/>
   </g>
   <g id="patch_3">
    <path d="M 58.945313 168.517812 
L 58.945313 48.331875 
" style="fill: none; stroke: #000000; stroke-width: 0.8; stroke-linejoin: miter; stroke-linecap: square"/>
   </g>
   <g id="patch_4">
    <path d="M 450 168.517812 
L 450 48.331875 
" style="fill: none; stroke: #000000; stroke-width: 0.8; stroke-linejoin: miter; stroke-linecap: square"/>
   </g>
   <g id="patch_5">
    <path d="M 58.945313 168.517812 
L 450 168.517812 
" style="fill: none; stroke: #000000; stroke-width: 0.8; stroke-linejoin: miter; stroke-linecap: square"/>
   </g>
   <g id="patch_6">
    <path d="M 58.945313 48.331875 
L 450 48.331875 
" style="fill: none; stroke: #000000; stroke-width: 0.8; stroke-linejoin: miter; stroke-linecap: square"/>
   </g>
   <g id="text_7">
    <!-- Reflector Raw Value -->
    <g transform="translate(194.712656 42.331875)scale(0.12 -0.12)">
     <defs>
      <path id="DejaVuSans-52" d="M 2841 2188 
Q 3044 2119 3236 1894 
Q 3428 1669 3622 1275 
L 4263 0 
L 3584 0 
L 2988 1197 
Q 2756 1666 2539 1819 
Q 2322 1972 1947 1972 
L 1259 1972 
L 1259 0 
L 628 0 
L 628 4666 
L 2053 4666 
Q 2853 4666 3247 4331 
Q 3641 3997 3641 3322 
Q 3641 2881 3436 2590 
Q 3231 2300 2841 2188 
z
M 1259 4147 
L 1259 2491 
L 2053 2491 
Q 2509 2491 2742 2702 
Q 2975 2913 2975 3322 
Q 2975 3731 2742 3939 
Q 2509 4147 2053 4147 
L 1259 4147 
z
" transform="scale(0.015625)"/>
      <path id="DejaVuSans-77" d="M 269 3500 
L 844 3500 
L 1563 769 
L 2278 3500 
L 2956 3500 
L 3675 769 
L 4391 3500 
L 4966 3500 
L 4050 0 
L 3372 0 
L 2619 2869 
L 1863 0 
L 1184 0 
L 269 3500 
z
" transform="scale(0.015625)"/>
      <path id="DejaVuSans-56" d="M 1831 0 
L 50 4666 
L 709 4666 
L 2188 738 
L 3669 4666 
L 4325 4666 
L 2547 0 
L 1831 0 
z
" transform="scale(0.015625)"/>
     </defs>
     <use xlink:href="#DejaVuSans-52"/>
     <use xlink:href="#DejaVuSans-65" x="64.982422"/>
     <use xlink:href="#DejaVuSans-66" x="126.505859"/>
     <use xlink:href="#DejaVuSans-6c" x="161.710938"/>
     <use xlink:href="#DejaVuSans-65" x="189.494141"/>
     <use xlink:href="#DejaVuSans-63" x="251.017578"/>
     <use xlink:href="#DejaVuSans-74" x="305.998047"/>
     <use xlink:href="#DejaVuSans-6f" x="345.207031"/>
     <use xlink:href="#DejaVuSans-72" x="406.388672"/>
     <use xlink:href="#DejaVuSans-20" x="447.501953"/>
     <use xlink:href="#DejaVuSans-52" x="479.289062"/>
     <use xlink:href="#DejaVuSans-61" x="546.521484"/>
     <use xlink:href="#DejaVuSans-77" x="607.800781"/>
     <use xlink:href="#DejaVuSans-20" x="689.587891"/>
     <use xlink:href="#DejaVuSans-56" x="721.375"/>
     <use xlink:href="#DejaVuSans-61" x="782.033203"/>
     <use xlink:href="#DejaVuSans-6c" x="843.3125"/>
     <use xlink:href="#DejaVuSans-75" x="871.095703"/>
     <use xlink:href="#DejaVuSans-65" x="934.474609"/>
    </g>
   </g>
   <g id="legend_1">
    <g id="patch_7">
     <path d="M 220.764844 115.044375 
L 288.180469 115.044375 
Q 290.180469 115.044375 290.180469 113.044375 
L 290.180469 55.331875 
Q 290.180469 53.331875 288.180469 53.331875 
L 220.764844 53.331875 
Q 218.764844 53.331875 218.764844 55.331875 
L 218.764844 113.044375 
Q 218.764844 115.044375 220.764844 115.044375 
z
" style="fill: #ffffff; opacity: 0.8; stroke: #cccccc; stroke-linejoin: miter"/>
    </g>
    <g id="line2d_27">
     <path d="M 222.764844 61.430313 
L 232.764844 61.430313 
L 242.764844 61.430313 
" style="fill: none; stroke: #1f77b4; stroke-width: 2; stroke-linecap: square"/>
    </g>
    <g id="text_8">
     <!-- L Side -->
     <g transform="translate(250.764844 64.930313)scale(0.1 -0.1)">
      <defs>
       <path id="DejaVuSans-4c" d="M 628 4666 
L 1259 4666 
L 1259 531 
L 3531 531 
L 3531 0 
L 628 0 
L 628 4666 
z
" transform="scale(0.015625)"/>
       <path id="DejaVuSans-53" d="M 3425 4513 
L 3425 3897 
Q 3066 4069 2747 4153 
Q 2428 4238 2131 4238 
Q 1616 4238 1336 4038 
Q 1056 3838 1056 3469 
Q 1056 3159 1242 3001 
Q 1428 2844 1947 2747 
L 2328 2669 
Q 3034 2534 3370 2195 
Q 3706 1856 3706 1288 
Q 3706 609 3251 259 
Q 2797 -91 1919 -91 
Q 1588 -91 1214 -16 
Q 841 59 441 206 
L 441 856 
Q 825 641 1194 531 
Q 1563 422 1919 422 
Q 2459 422 2753 634 
Q 3047 847 3047 1241 
Q 3047 1584 2836 1778 
Q 2625 1972 2144 2069 
L 1759 2144 
Q 1053 2284 737 2584 
Q 422 2884 422 3419 
Q 422 4038 858 4394 
Q 1294 4750 2059 4750 
Q 2388 4750 2728 4690 
Q 3069 4631 3425 4513 
z
" transform="scale(0.015625)"/>
       <path id="DejaVuSans-69" d="M 603 3500 
L 1178 3500 
L 1178 0 
L 603 0 
L 603 3500 
z
M 603 4863 
L 1178 4863 
L 1178 4134 
L 603 4134 
L 603 4863 
z
" transform="scale(0.015625)"/>
       <path id="DejaVuSans-64" d="M 2906 2969 
L 2906 4863 
L 3481 4863 
L 3481 0 
L 2906 0 
L 2906 525 
Q 2725 213 2448 61 
Q 2172 -91 1784 -91 
Q 1150 -91 751 415 
Q 353 922 353 1747 
Q 353 2572 751 3078 
Q 1150 3584 1784 3584 
Q 2172 3584 2448 3432 
Q 2725 3281 2906 2969 
z
M 947 1747 
Q 947 1113 1208 752 
Q 1469 391 1925 391 
Q 2381 391 2643 752 
Q 2906 1113 2906 1747 
Q 2906 2381 2643 2742 
Q 2381 3103 1925 3103 
Q 1469 3103 1208 2742 
Q 947 2381 947 1747 
z
" transform="scale(0.015625)"/>
      </defs>
      <use xlink:href="#DejaVuSans-4c"/>
      <use xlink:href="#DejaVuSans-20" x="55.712891"/>
      <use xlink:href="#DejaVuSans-53" x="87.5"/>
      <use xlink:href="#DejaVuSans-69" x="150.976562"/>
      <use xlink:href="#DejaVuSans-64" x="178.759766"/>
      <use xlink:href="#DejaVuSans-65" x="242.236328"/>
     </g>
    </g>
    <g id="line2d_28">
     <path d="M 222.764844 76.108438 
L 232.764844 76.108438 
L 242.764844 76.108438 
" style="fill: none; stroke: #ff7f0e; stroke-width: 2; stroke-linecap: square"/>
    </g>
    <g id="text_9">
     <!-- L Front -->
     <g transform="translate(250.764844 79.608438)scale(0.1 -0.1)">
      <defs>
       <path id="DejaVuSans-46" d="M 628 4666 
L 3309 4666 
L 3309 4134 
L 1259 4134 
L 1259 2759 
L 3109 2759 
L 3109 2228 
L 1259 2228 
L 1259 0 
L 628 0 
L 628 4666 
z
" transform="scale(0.015625)"/>
       <path id="DejaVuSans-6e" d="M 3513 2113 
L 3513 0 
L 2938 0 
L 2938 2094 
Q 2938 2591 2744 2837 
Q 2550 3084 2163 3084 
Q 1697 3084 1428 2787 
Q 1159 2491 1159 1978 
L 1159 0 
L 581 0 
L 581 3500 
L 1159 3500 
L 1159 2956 
Q 1366 3272 1645 3428 
Q 1925 3584 2291 3584 
Q 2894 3584 3203 3211 
Q 3513 2838 3513 2113 
z
" transform="scale(0.015625)"/>
      </defs>
      <use xlink:href="#DejaVuSans-4c"/>
      <use xlink:href="#DejaVuSans-20" x="55.712891"/>
      <use xlink:href="#DejaVuSans-46" x="87.5"/>
      <use xlink:href="#DejaVuSans-72" x="137.769531"/>
      <use xlink:href="#DejaVuSans-6f" x="176.632812"/>
      <use xlink:href="#DejaVuSans-6e" x="237.814453"/>
      <use xlink:href="#DejaVuSans-74" x="301.193359"/>
     </g>
    </g>
    <g id="line2d_29">
     <path d="M 222.764844 90.786563 
L 232.764844 90.786563 
L 242.764844 90.786563 
" style="fill: none; stroke: #2ca02c; stroke-width: 2; stroke-linecap: square"/>
    </g>
    <g id="text_10">
     <!-- R Front -->
     <g transform="translate(250.764844 94.286563)scale(0.1 -0.1)">
      <use xlink:href="#DejaVuSans-52"/>
      <use xlink:href="#DejaVuSans-20" x="69.482422"/>
      <use xlink:href="#DejaVuSans-46" x="101.269531"/>
      <use xlink:href="#DejaVuSans-72" x="151.539062"/>
      <use xlink:href="#DejaVuSans-6f" x="190.402344"/>
      <use xlink:href="#DejaVuSans-6e" x="251.583984"/>
      <use xlink:href="#DejaVuSans-74" x="314.962891"/>
     </g>
    </g>
    <g id="line2d_30">
     <path d="M 222.764844 105.464688 
L 232.764844 105.464688 
L 242.764844 105.464688 
" style="fill: none; stroke: #d62728; stroke-width: 2; stroke-linecap: square"/>
    </g>
    <g id="text_11">
     <!-- R Side -->
     <g transform="translate(250.764844 108.964688)scale(0.1 -0.1)">
      <use xlink:href="#DejaVuSans-52"/>
      <use xlink:href="#DejaVuSans-20" x="69.482422"/>
      <use xlink:href="#DejaVuSans-53" x="101.269531"/>
      <use xlink:href="#DejaVuSans-69" x="164.746094"/>
      <use xlink:href="#DejaVuSans-64" x="192.529297"/>
      <use xlink:href="#DejaVuSans-65" x="256.005859"/>
     </g>
    </g>
   </g>
  </g>
  <g id="axes_2">
   <g id="patch_8">
    <path d="M 58.945313 318.121875 
L 450 318.121875 
L 450 197.935938 
L 58.945313 197.935938 
z
" style="fill: #ffffff"/>
   </g>
   <g id="matplotlib.axis_3">
    <g id="xtick_7">
     <g id="line2d_31">
      <path d="M 76.720526 318.121875 
L 76.720526 197.935938 
" clip-path="url(#p23e355e262)" style="fill: none; stroke: #b0b0b0; stroke-width: 0.8; stroke-linecap: square"/>
     </g>
     <g id="line2d_32">
      <g>
       <use xlink:href="#m470acba525" x="76.720526" y="318.121875" style="stroke: #000000; stroke-width: 0.8"/>
      </g>
     </g>
     <g id="text_12">
      <!-- 0 -->
      <g transform="translate(73.539276 332.720312)scale(0.1 -0.1)">
       <use xlink:href="#DejaVuSans-30"/>
      </g>
     </g>
    </g>
    <g id="xtick_8">
     <g id="line2d_33">
      <path d="M 142.554648 318.121875 
L 142.554648 197.935938 
" clip-path="url(#p23e355e262)" style="fill: none; stroke: #b0b0b0; stroke-width: 0.8; stroke-linecap: square"/>
     </g>
     <g id="line2d_34">
      <g>
       <use xlink:href="#m470acba525" x="142.554648" y="318.121875" style="stroke: #000000; stroke-width: 0.8"/>
      </g>
     </g>
     <g id="text_13">
      <!-- 50 -->
      <g transform="translate(136.192148 332.720312)scale(0.1 -0.1)">
       <use xlink:href="#DejaVuSans-35"/>
       <use xlink:href="#DejaVuSans-30" x="63.623047"/>
      </g>
     </g>
    </g>
    <g id="xtick_9">
     <g id="line2d_35">
      <path d="M 208.388771 318.121875 
L 208.388771 197.935938 
" clip-path="url(#p23e355e262)" style="fill: none; stroke: #b0b0b0; stroke-width: 0.8; stroke-linecap: square"/>
     </g>
     <g id="line2d_36">
      <g>
       <use xlink:href="#m470acba525" x="208.388771" y="318.121875" style="stroke: #000000; stroke-width: 0.8"/>
      </g>
     </g>
     <g id="text_14">
      <!-- 100 -->
      <g transform="translate(198.845021 332.720312)scale(0.1 -0.1)">
       <use xlink:href="#DejaVuSans-31"/>
       <use xlink:href="#DejaVuSans-30" x="63.623047"/>
       <use xlink:href="#DejaVuSans-30" x="127.246094"/>
      </g>
     </g>
    </g>
    <g id="xtick_10">
     <g id="line2d_37">
      <path d="M 274.222893 318.121875 
L 274.222893 197.935938 
" clip-path="url(#p23e355e262)" style="fill: none; stroke: #b0b0b0; stroke-width: 0.8; stroke-linecap: square"/>
     </g>
     <g id="line2d_38">
      <g>
       <use xlink:href="#m470acba525" x="274.222893" y="318.121875" style="stroke: #000000; stroke-width: 0.8"/>
      </g>
     </g>
     <g id="text_15">
      <!-- 150 -->
      <g transform="translate(264.679143 332.720312)scale(0.1 -0.1)">
       <use xlink:href="#DejaVuSans-31"/>
       <use xlink:href="#DejaVuSans-35" x="63.623047"/>
       <use xlink:href="#DejaVuSans-30" x="127.246094"/>
      </g>
     </g>
    </g>
    <g id="xtick_11">
     <g id="line2d_39">
      <path d="M 340.057015 318.121875 
L 340.057015 197.935938 
" clip-path="url(#p23e355e262)" style="fill: none; stroke: #b0b0b0; stroke-width: 0.8; stroke-linecap: square"/>
     </g>
     <g id="line2d_40">
      <g>
       <use xlink:href="#m470acba525" x="340.057015" y="318.121875" style="stroke: #000000; stroke-width: 0.8"/>
      </g>
     </g>
     <g id="text_16">
      <!-- 200 -->
      <g transform="translate(330.513265 332.720312)scale(0.1 -0.1)">
       <use xlink:href="#DejaVuSans-32"/>
       <use xlink:href="#DejaVuSans-30" x="63.623047"/>
       <use xlink:href="#DejaVuSans-30" x="127.246094"/>
      </g>
     </g>
    </g>
    <g id="xtick_12">
     <g id="line2d_41">
      <path d="M 405.891138 318.121875 
L 405.891138 197.935938 
" clip-path="url(#p23e355e262)" style="fill: none; stroke: #b0b0b0; stroke-width: 0.8; stroke-linecap: square"/>
     </g>
     <g id="line2d_42">
      <g>
       <use xlink:href="#m470acba525" x="405.891138" y="318.121875" style="stroke: #000000; stroke-width: 0.8"/>
      </g>
     </g>
     <g id="text_17">
      <!-- 250 -->
      <g transform="translate(396.347388 332.720312)scale(0.1 -0.1)">
       <use xlink:href="#DejaVuSans-32"/>
       <use xlink:href="#DejaVuSans-35" x="63.623047"/>
       <use xlink:href="#DejaVuSans-30" x="127.246094"/>
      </g>
     </g>
    </g>
   </g>
   <g id="matplotlib.axis_4">
    <g id="ytick_6">
     <g id="line2d_43">
      <path d="M 58.945313 308.156513 
L 450 308.156513 
" clip-path="url(#p23e355e262)" style="fill: none; stroke: #b0b0b0; stroke-width: 0.8; stroke-linecap: square"/>
     </g>
     <g id="line2d_44">
      <g>
       <use xlink:href="#mdb469fd604" x="58.945313" y="308.156513" style="stroke: #000000; stroke-width: 0.8"/>
      </g>
     </g>
     <g id="text_18">
      <!-- −100 -->
      <g transform="translate(24.478125 311.955732)scale(0.1 -0.1)">
       <defs>
        <path id="DejaVuSans-2212" d="M 678 2272 
L 4684 2272 
L 4684 1741 
L 678 1741 
L 678 2272 
z
" transform="scale(0.015625)"/>
       </defs>
       <use xlink:href="#DejaVuSans-2212"/>
       <use xlink:href="#DejaVuSans-31" x="83.789062"/>
       <use xlink:href="#DejaVuSans-30" x="147.412109"/>
       <use xlink:href="#DejaVuSans-30" x="211.035156"/>
      </g>
     </g>
    </g>
    <g id="ytick_7">
     <g id="line2d_45">
      <path d="M 58.945313 284.207763 
L 450 284.207763 
" clip-path="url(#p23e355e262)" style="fill: none; stroke: #b0b0b0; stroke-width: 0.8; stroke-linecap: square"/>
     </g>
     <g id="line2d_46">
      <g>
       <use xlink:href="#mdb469fd604" x="58.945313" y="284.207763" style="stroke: #000000; stroke-width: 0.8"/>
      </g>
     </g>
     <g id="text_19">
      <!-- −75 -->
      <g transform="translate(30.840625 288.006982)scale(0.1 -0.1)">
       <use xlink:href="#DejaVuSans-2212"/>
       <use xlink:href="#DejaVuSans-37" x="83.789062"/>
       <use xlink:href="#DejaVuSans-35" x="147.412109"/>
      </g>
     </g>
    </g>
    <g id="ytick_8">
     <g id="line2d_47">
      <path d="M 58.945313 260.259014 
L 450 260.259014 
" clip-path="url(#p23e355e262)" style="fill: none; stroke: #b0b0b0; stroke-width: 0.8; stroke-linecap: square"/>
     </g>
     <g id="line2d_48">
      <g>
       <use xlink:href="#mdb469fd604" x="58.945313" y="260.259014" style="stroke: #000000; stroke-width: 0.8"/>
      </g>
     </g>
     <g id="text_20">
      <!-- −50 -->
      <g transform="translate(30.840625 264.058233)scale(0.1 -0.1)">
       <use xlink:href="#DejaVuSans-2212"/>
       <use xlink:href="#DejaVuSans-35" x="83.789062"/>
       <use xlink:href="#DejaVuSans-30" x="147.412109"/>
      </g>
     </g>
    </g>
    <g id="ytick_9">
     <g id="line2d_49">
      <path d="M 58.945313 236.310264 
L 450 236.310264 
" clip-path="url(#p23e355e262)" style="fill: none; stroke: #b0b0b0; stroke-width: 0.8; stroke-linecap: square"/>
     </g>
     <g id="line2d_50">
      <g>
       <use xlink:href="#mdb469fd604" x="58.945313" y="236.310264" style="stroke: #000000; stroke-width: 0.8"/>
      </g>
     </g>
     <g id="text_21">
      <!-- −25 -->
      <g transform="translate(30.840625 240.109483)scale(0.1 -0.1)">
       <use xlink:href="#DejaVuSans-2212"/>
       <use xlink:href="#DejaVuSans-32" x="83.789062"/>
       <use xlink:href="#DejaVuSans-35" x="147.412109"/>
      </g>
     </g>
    </g>
    <g id="ytick_10">
     <g id="line2d_51">
      <path d="M 58.945313 212.361515 
L 450 212.361515 
" clip-path="url(#p23e355e262)" style="fill: none; stroke: #b0b0b0; stroke-width: 0.8; stroke-linecap: square"/>
     </g>
     <g id="line2d_52">
      <g>
       <use xlink:href="#mdb469fd604" x="58.945313" y="212.361515" style="stroke: #000000; stroke-width: 0.8"/>
      </g>
     </g>
     <g id="text_22">
      <!-- 0 -->
      <g transform="translate(45.582813 216.160733)scale(0.1 -0.1)">
       <use xlink:href="#DejaVuSans-30"/>
      </g>
     </g>
    </g>
    <g id="text_23">
     <!-- wall distance [mm] -->
     <g transform="translate(18.398438 305.967188)rotate(-90)scale(0.1 -0.1)">
      <defs>
       <path id="DejaVuSans-73" d="M 2834 3397 
L 2834 2853 
Q 2591 2978 2328 3040 
Q 2066 3103 1784 3103 
Q 1356 3103 1142 2972 
Q 928 2841 928 2578 
Q 928 2378 1081 2264 
Q 1234 2150 1697 2047 
L 1894 2003 
Q 2506 1872 2764 1633 
Q 3022 1394 3022 966 
Q 3022 478 2636 193 
Q 2250 -91 1575 -91 
Q 1294 -91 989 -36 
Q 684 19 347 128 
L 347 722 
Q 666 556 975 473 
Q 1284 391 1588 391 
Q 1994 391 2212 530 
Q 2431 669 2431 922 
Q 2431 1156 2273 1281 
Q 2116 1406 1581 1522 
L 1381 1569 
Q 847 1681 609 1914 
Q 372 2147 372 2553 
Q 372 3047 722 3315 
Q 1072 3584 1716 3584 
Q 2034 3584 2315 3537 
Q 2597 3491 2834 3397 
z
" transform="scale(0.015625)"/>
       <path id="DejaVuSans-5b" d="M 550 4863 
L 1875 4863 
L 1875 4416 
L 1125 4416 
L 1125 -397 
L 1875 -397 
L 1875 -844 
L 550 -844 
L 550 4863 
z
" transform="scale(0.015625)"/>
       <path id="DejaVuSans-6d" d="M 3328 2828 
Q 3544 3216 3844 3400 
Q 4144 3584 4550 3584 
Q 5097 3584 5394 3201 
Q 5691 2819 5691 2113 
L 5691 0 
L 5113 0 
L 5113 2094 
Q 5113 2597 4934 2840 
Q 4756 3084 4391 3084 
Q 3944 3084 3684 2787 
Q 3425 2491 3425 1978 
L 3425 0 
L 2847 0 
L 2847 2094 
Q 2847 2600 2669 2842 
Q 2491 3084 2119 3084 
Q 1678 3084 1418 2786 
Q 1159 2488 1159 1978 
L 1159 0 
L 581 0 
L 581 3500 
L 1159 3500 
L 1159 2956 
Q 1356 3278 1631 3431 
Q 1906 3584 2284 3584 
Q 2666 3584 2933 3390 
Q 3200 3197 3328 2828 
z
" transform="scale(0.015625)"/>
       <path id="DejaVuSans-5d" d="M 1947 4863 
L 1947 -844 
L 622 -844 
L 622 -397 
L 1369 -397 
L 1369 4416 
L 622 4416 
L 622 4863 
L 1947 4863 
z
" transform="scale(0.015625)"/>
      </defs>
      <use xlink:href="#DejaVuSans-77"/>
      <use xlink:href="#DejaVuSans-61" x="81.787109"/>
      <use xlink:href="#DejaVuSans-6c" x="143.066406"/>
      <use xlink:href="#DejaVuSans-6c" x="170.849609"/>
      <use xlink:href="#DejaVuSans-20" x="198.632812"/>
      <use xlink:href="#DejaVuSans-64" x="230.419922"/>
      <use xlink:href="#DejaVuSans-69" x="293.896484"/>
      <use xlink:href="#DejaVuSans-73" x="321.679688"/>
      <use xlink:href="#DejaVuSans-74" x="373.779297"/>
      <use xlink:href="#DejaVuSans-61" x="412.988281"/>
      <use xlink:href="#DejaVuSans-6e" x="474.267578"/>
      <use xlink:href="#DejaVuSans-63" x="537.646484"/>
      <use xlink:href="#DejaVuSans-65" x="592.626953"/>
      <use xlink:href="#DejaVuSans-20" x="654.150391"/>
      <use xlink:href="#DejaVuSans-5b" x="685.9375"/>
      <use xlink:href="#DejaVuSans-6d" x="724.951172"/>
      <use xlink:href="#DejaVuSans-6d" x="822.363281"/>
      <use xlink:href="#DejaVuSans-5d" x="919.775391"/>
     </g>
    </g>
   </g>
   <g id="line2d_53">
    <path d="M 76.720526 212.271716 
L 76.836236 212.365292 
L 76.979254 212.42177 
L 77.281301 212.290377 
L 78.142543 212.402917 
L 79.177455 212.497544 
L 79.845013 212.650337 
L 81.191979 212.805046 
L 81.81477 212.824588 
L 83.577808 213.120498 
L 85.635782 213.547457 
L 90.084852 214.270709 
L 92.37588 214.380873 
L 111.441442 213.588649 
L 115.365155 213.362572 
L 123.26525 213.240913 
L 128.005307 213.818557 
L 131.165345 214.35884 
L 132.745364 214.923073 
L 134.325383 215.78427 
L 135.905402 217.034395 
L 137.485421 218.767326 
L 138.27543 219.854599 
L 139.06544 221.198603 
L 139.855449 222.79359 
L 140.645458 224.680751 
L 141.435468 227.027729 
L 142.225477 229.920738 
L 143.015487 233.292722 
L 143.805496 237.373589 
L 144.595506 242.383667 
L 145.385515 248.284639 
L 146.175525 255.5459 
L 146.965534 266.878448 
L 147.755544 284.006594 
L 148.545553 292.580246 
L 237.092448 292.580246 
L 237.882457 284.006594 
L 239.462476 262.941274 
L 240.252486 254.942391 
L 241.042495 249.357543 
L 241.832505 244.730645 
L 242.622514 240.975481 
L 244.202533 234.815862 
L 244.992543 232.124023 
L 246.572562 227.851566 
L 248.15258 224.527479 
L 249.732599 221.828934 
L 250.522609 220.783811 
L 252.102628 219.216605 
L 253.550979 218.152322 
L 255.130997 217.538276 
L 256.711016 217.17234 
L 263.031092 216.367662 
L 264.611111 216.315932 
L 270.931187 216.682827 
L 276.461253 216.212474 
L 279.621291 216.55063 
L 281.991319 216.603317 
L 283.571338 216.446213 
L 285.941367 216.161702 
L 287.521386 216.110931 
L 291.471433 216.524765 
L 293.841461 216.524765 
L 297.791509 216.238338 
L 302.531566 216.843763 
L 305.691604 216.736472 
L 308.061632 216.603317 
L 312.011679 217.255681 
L 314.381708 217.255681 
L 317.541746 216.790117 
L 319.121765 216.925188 
L 322.281802 217.255681 
L 324.651831 217.062175 
L 327.021859 216.70965 
L 328.601878 216.843763 
L 331.761916 217.20012 
L 333.341935 217.17234 
L 335.711963 216.790117 
L 337.291982 216.790117 
L 340.45202 217.283462 
L 342.822049 217.20012 
L 345.192077 216.81694 
L 346.772096 216.925188 
L 349.932134 217.623534 
L 351.512153 217.681969 
L 354.672191 217.311242 
L 355.4622 217.395542 
L 356.25221 217.594795 
L 358.622238 218.61118 
L 363.362295 219.820113 
L 364.942314 220.933251 
L 366.522333 222.841487 
L 371.26239 229.767466 
L 372.052399 231.491776 
L 373.632418 236.291105 
L 374.422427 239.883418 
L 375.212437 244.222931 
L 376.002446 249.740723 
L 376.792456 257.557595 
L 377.582465 270.432443 
L 378.372475 292.580246 
L 429.459754 292.580246 
L 430.249763 266.878448 
L 430.5131 265.422364 
L 430.908104 265.422364 
L 431.039773 266.878448 
L 431.171441 270.432443 
L 431.434777 266.878448 
L 431.434777 264.119552 
L 431.829782 258.304796 
L 431.829782 258.304796 
L 431.96145 260.872102 
L 431.96145 265.422364 
L 431.96145 264.119552 
L 432.093119 259.95247 
L 432.093119 254.942391 
L 432.093119 254.942391 
L 432.224787 254.942391 
L 432.224787 254.942391 
L 432.224787 260.872102 
L 432.224787 251.388397 
L 432.224787 253.294717 
" clip-path="url(#p23e355e262)" style="fill: none; stroke: #1f77b4; stroke-width: 2; stroke-linecap: square"/>
   </g>
   <g id="line2d_54">
    <path d="M 76.720526 312.179903 
L 359.412247 312.179903 
L 360.202257 303.596671 
L 360.992266 298.577013 
L 361.782276 292.264123 
L 362.572285 288.10662 
L 363.362295 285.002862 
L 365.732323 285.002862 
L 366.522333 286.458946 
L 367.312342 290.01294 
L 368.102352 292.264123 
L 368.892361 288.10662 
L 369.682371 285.002862 
L 371.26239 275.768224 
L 372.052399 272.875215 
L 374.422427 272.875215 
L 375.212437 275.135977 
L 376.002446 277.885293 
L 376.792456 277.885293 
L 377.582465 276.42921 
L 378.372475 274.532469 
L 379.162484 270.537817 
L 379.952494 267.194572 
L 380.742503 264.569789 
L 382.322522 264.569789 
L 383.112532 265.384046 
L 384.692551 271.419131 
L 385.48256 271.419131 
L 386.272569 270.116319 
L 387.062579 269.321221 
L 387.852588 264.838015 
L 388.642598 261.552246 
L 389.432607 258.956202 
L 391.012626 258.956202 
L 391.802636 260.373968 
L 392.592645 262.855058 
L 393.382655 265.958816 
L 394.172664 265.671431 
L 395.752683 263.563941 
L 396.542693 259.827936 
L 397.332702 256.676281 
L 398.122711 256.005716 
L 399.70273 256.005716 
L 400.49274 258.151524 
L 401.282749 259.645926 
L 401.941091 262.855058 
L 402.7311 267.529854 
L 403.52111 275.768224 
L 404.311119 270.537817 
L 404.96946 262.404822 
L 406.417811 253.946123 
L 407.20782 251.7141 
L 407.866162 251.254284 
L 409.314512 250.55498 
L 409.972854 251.168068 
L 410.631195 253.189343 
L 411.421204 255.239356 
L 412.079545 254.990289 
L 412.737887 254.176031 
L 414.054569 248.821091 
L 414.581242 246.608227 
L 415.897925 245.947241 
L 416.424598 245.717333 
L 417.082939 246.790237 
L 417.609612 248.390014 
L 418.267953 248.246321 
L 419.321299 247.365007 
L 420.374645 243.715218 
L 421.822996 242.91054 
L 422.349669 243.906808 
L 422.744673 245.20962 
L 424.061356 244.309147 
L 424.851365 241.329922 
L 426.036379 240.707255 
L 426.431384 241.741841 
L 426.694721 242.776427 
L 427.748067 242.115441 
L 428.27474 239.509817 
L 429.064749 238.896729 
L 429.328086 239.720566 
L 429.459754 240.630619 
L 430.118095 239.720566 
L 430.249763 238.542288 
L 430.644768 237.325691 
L 430.908104 237.009568 
L 431.171441 238.666821 
L 431.434777 238.101631 
L 431.698114 236.080356 
L 431.829782 235.869607 
L 431.96145 236.731762 
L 431.96145 237.526861 
L 431.96145 237.268214 
L 432.093119 237.124522 
L 432.093119 235.342735 
L 432.224787 235.266099 
L 432.224787 237.009568 
L 432.224787 234.394364 
L 432.224787 234.787124 
" clip-path="url(#p23e355e262)" style="fill: none; stroke: #ff7f0e; stroke-width: 2; stroke-linecap: square"/>
   </g>
   <g id="line2d_55">
    <path d="M 76.720526 312.658878 
L 370.47238 312.658878 
L 371.26239 304.075646 
L 376.002446 304.075646 
L 376.792456 290.501495 
L 378.372475 280.021522 
L 379.162484 276.247199 
L 379.952494 273.890642 
L 382.322522 273.890642 
L 383.112532 276.247199 
L 383.902541 280.021522 
L 384.692551 285.481837 
L 387.062579 271.457449 
L 388.642598 264.790117 
L 391.012626 264.790117 
L 392.592645 270.202535 
L 393.382655 275.011444 
L 394.172664 272.377081 
L 394.962674 270.202535 
L 395.752683 265.31699 
L 396.542693 261.437292 
L 397.332702 258.323955 
L 399.70273 258.323955 
L 400.49274 259.444756 
L 401.282749 261.236123 
L 401.941091 264.291983 
L 402.7311 268.698553 
L 403.52111 276.247199 
L 404.311119 266.150406 
L 404.96946 260.670932 
L 405.75947 256.88703 
L 406.417811 254.655006 
L 407.20782 252.576255 
L 409.314512 251.474612 
L 409.972854 252.959435 
L 411.421204 256.752917 
L 412.737887 255.114822 
L 413.396228 252.193075 
L 414.581242 247.853562 
L 416.424598 246.905191 
L 417.082939 247.987675 
L 417.609612 249.23301 
L 418.267953 248.734876 
L 419.321299 247.719449 
L 420.374645 244.299567 
L 421.822996 243.533207 
L 422.349669 244.44326 
L 422.744673 245.477846 
L 423.271346 245.20962 
L 424.061356 244.44326 
L 424.45636 242.814745 
L 424.851365 241.780159 
L 426.036379 241.147912 
L 426.431384 241.895113 
L 426.694721 242.814745 
L 427.089725 242.603996 
L 427.353062 242.307031 
L 427.748067 241.693943 
L 428.27474 239.126637 
L 429.064749 238.590185 
L 429.328086 239.251171 
L 429.459754 240.02711 
L 430.118095 239.548135 
L 430.249763 238.465652 
L 430.644768 237.603497 
L 430.908104 237.383168 
L 431.171441 238.896729 
L 431.434777 238.714719 
L 431.434777 238.216585 
L 431.698114 236.856296 
L 431.829782 236.693444 
L 431.96145 237.431066 
L 431.96145 238.159108 
L 431.96145 238.101631 
L 432.093119 238.072892 
L 432.093119 236.233628 
L 432.224787 236.128254 
L 432.224787 237.54602 
L 432.224787 235.179883 
L 432.224787 235.505586 
" clip-path="url(#p23e355e262)" style="fill: none; stroke: #2ca02c; stroke-width: 2; stroke-linecap: square"/>
   </g>
   <g id="line2d_56">
    <path d="M 76.720526 211.872577 
L 76.773193 211.956398 
L 76.865097 211.998547 
L 77.081823 211.89346 
L 79.177455 211.789331 
L 82.483645 211.401649 
L 82.836516 211.281905 
L 83.577808 211.221554 
L 90.084852 210.287553 
L 94.838076 210.050939 
L 98.827624 210.06914 
L 102.3695 210.177389 
L 121.685231 211.045291 
L 133.535373 211.441691 
L 135.905402 211.624564 
L 138.27543 212.040793 
L 139.855449 212.493424 
L 141.435468 213.216772 
L 142.225477 213.643252 
L 143.805496 214.937442 
L 145.385515 216.749884 
L 146.965534 219.171581 
L 147.755544 220.779021 
L 148.545553 222.678636 
L 149.335563 224.977716 
L 150.125572 227.736612 
L 150.915582 230.993642 
L 151.705591 234.882919 
L 152.495601 239.567294 
L 153.28561 245.497005 
L 154.075619 253.141445 
L 154.865629 263.621418 
L 156.445648 290.7793 
L 244.992543 290.7793 
L 245.782552 282.215227 
L 246.572562 268.631497 
L 247.362571 261.140328 
L 248.15258 255.047766 
L 249.732599 245.180881 
L 251.312618 238.436913 
L 252.102628 235.572643 
L 253.550979 230.993642 
L 255.130997 227.439647 
L 256.711016 224.738228 
L 258.291035 222.094287 
L 259.871054 220.192756 
L 260.661064 219.399573 
L 261.451073 218.837257 
L 263.031092 218.298889 
L 263.821102 218.475151 
L 264.611111 218.984781 
L 265.401121 219.789459 
L 266.19113 221.083649 
L 266.98114 222.879805 
L 267.771149 225.226783 
L 268.561158 228.119792 
L 269.351168 231.702525 
L 270.141177 236.156992 
L 270.931187 241.703523 
L 271.721196 248.734876 
L 272.511206 258.161103 
L 274.091225 290.7793 
L 367.312342 290.7793 
L 368.102352 266.725176 
L 369.682371 249.156374 
L 370.47238 242.671052 
L 371.26239 237.574758 
L 372.052399 233.254404 
L 373.632418 226.797821 
L 375.212437 221.761878 
L 376.792456 217.352434 
L 378.372475 213.837716 
L 379.952494 210.909263 
L 380.742503 209.783671 
L 381.532513 208.948339 
L 382.322522 208.290227 
L 383.902541 207.562185 
L 387.062579 207.000827 
L 388.642598 206.791036 
L 392.592645 206.749844 
L 393.382655 206.777624 
L 395.752683 206.436594 
L 398.122711 206.039045 
L 401.282749 205.923133 
L 403.52111 206.078321 
L 407.866162 205.1721 
L 409.314512 205.099296 
L 411.421204 205.404882 
L 413.396228 205.075347 
L 415.239583 204.613615 
L 416.424598 204.567634 
L 418.267953 204.78892 
L 419.847972 204.579129 
L 420.374645 204.395203 
L 421.822996 204.327188 
L 423.271346 204.741981 
L 424.45636 204.567634 
L 424.851365 204.406698 
L 426.036379 204.45268 
L 426.694721 204.883757 
L 427.748067 204.801373 
L 428.27474 204.327188 
L 429.064749 204.169126 
L 429.459754 204.556138 
L 430.118095 204.418193 
L 430.249763 204.169126 
L 430.644768 203.903774 
L 430.908104 203.871204 
L 431.171441 204.338684 
L 431.434777 204.237141 
L 431.829782 203.557954 
L 431.829782 203.557954 
L 431.96145 203.772535 
L 431.96145 204.002443 
L 431.96145 203.969873 
L 432.093119 203.969873 
L 432.093119 204.002443 
L 432.093119 203.514847 
L 432.224787 203.547417 
L 432.224787 203.547417 
L 432.224787 204.125061 
L 432.224787 203.398935 
L 432.224787 203.557954 
" clip-path="url(#p23e355e262)" style="fill: none; stroke: #d62728; stroke-width: 2; stroke-linecap: square"/>
   </g>
   <g id="patch_9">
    <path d="M 58.945313 318.121875 
L 58.945313 197.935938 
" style="fill: none; stroke: #000000; stroke-width: 0.8; stroke-linejoin: miter; stroke-linecap: square"/>
   </g>
   <g id="patch_10">
    <path d="M 450 318.121875 
L 450 197.935938 
" style="fill: none; stroke: #000000; stroke-width: 0.8; stroke-linejoin: miter; stroke-linecap: square"/>
   </g>
   <g id="patch_11">
    <path d="M 58.945313 318.121875 
L 450 318.121875 
" style="fill: none; stroke: #000000; stroke-width: 0.8; stroke-linejoin: miter; stroke-linecap: square"/>
   </g>
   <g id="patch_12">
    <path d="M 58.945313 197.935938 
L 450 197.935938 
" style="fill: none; stroke: #000000; stroke-width: 0.8; stroke-linejoin: miter; stroke-linecap: square"/>
   </g>
   <g id="text_24">
    <!-- Wall Distance [mm] -->
    <g transform="translate(195.492656 191.935938)scale(0.12 -0.12)">
     <defs>
      <path id="DejaVuSans-57" d="M 213 4666 
L 850 4666 
L 1831 722 
L 2809 4666 
L 3519 4666 
L 4500 722 
L 5478 4666 
L 6119 4666 
L 4947 0 
L 4153 0 
L 3169 4050 
L 2175 0 
L 1381 0 
L 213 4666 
z
" transform="scale(0.015625)"/>
      <path id="DejaVuSans-44" d="M 1259 4147 
L 1259 519 
L 2022 519 
Q 2988 519 3436 956 
Q 3884 1394 3884 2338 
Q 3884 3275 3436 3711 
Q 2988 4147 2022 4147 
L 1259 4147 
z
M 628 4666 
L 1925 4666 
Q 3281 4666 3915 4102 
Q 4550 3538 4550 2338 
Q 4550 1131 3912 565 
Q 3275 0 1925 0 
L 628 0 
L 628 4666 
z
" transform="scale(0.015625)"/>
     </defs>
     <use xlink:href="#DejaVuSans-57"/>
     <use xlink:href="#DejaVuSans-61" x="92.501953"/>
     <use xlink:href="#DejaVuSans-6c" x="153.78125"/>
     <use xlink:href="#DejaVuSans-6c" x="181.564453"/>
     <use xlink:href="#DejaVuSans-20" x="209.347656"/>
     <use xlink:href="#DejaVuSans-44" x="241.134766"/>
     <use xlink:href="#DejaVuSans-69" x="318.136719"/>
     <use xlink:href="#DejaVuSans-73" x="345.919922"/>
     <use xlink:href="#DejaVuSans-74" x="398.019531"/>
     <use xlink:href="#DejaVuSans-61" x="437.228516"/>
     <use xlink:href="#DejaVuSans-6e" x="498.507812"/>
     <use xlink:href="#DejaVuSans-63" x="561.886719"/>
     <use xlink:href="#DejaVuSans-65" x="616.867188"/>
     <use xlink:href="#DejaVuSans-20" x="678.390625"/>
     <use xlink:href="#DejaVuSans-5b" x="710.177734"/>
     <use xlink:href="#DejaVuSans-6d" x="749.191406"/>
     <use xlink:href="#DejaVuSans-6d" x="846.603516"/>
     <use xlink:href="#DejaVuSans-5d" x="944.015625"/>
    </g>
   </g>
   <g id="legend_2">
    <g id="patch_13">
     <path d="M 65.945312 288.885156 
L 133.360938 288.885156 
Q 135.360938 288.885156 135.360938 286.885156 
L 135.360938 229.172656 
Q 135.360938 227.172656 133.360938 227.172656 
L 65.945312 227.172656 
Q 63.945312 227.172656 63.945312 229.172656 
L 63.945312 286.885156 
Q 63.945312 288.885156 65.945312 288.885156 
z
" style="fill: #ffffff; opacity: 0.8; stroke: #cccccc; stroke-linejoin: miter"/>
    </g>
    <g id="line2d_57">
     <path d="M 67.945312 235.271094 
L 77.945312 235.271094 
L 87.945312 235.271094 
" style="fill: none; stroke: #1f77b4; stroke-width: 2; stroke-linecap: square"/>
    </g>
    <g id="text_25">
     <!-- L Side -->
     <g transform="translate(95.945312 238.771094)scale(0.1 -0.1)">
      <use xlink:href="#DejaVuSans-4c"/>
      <use xlink:href="#DejaVuSans-20" x="55.712891"/>
      <use xlink:href="#DejaVuSans-53" x="87.5"/>
      <use xlink:href="#DejaVuSans-69" x="150.976562"/>
      <use xlink:href="#DejaVuSans-64" x="178.759766"/>
      <use xlink:href="#DejaVuSans-65" x="242.236328"/>
     </g>
    </g>
    <g id="line2d_58">
     <path d="M 67.945312 249.949219 
L 77.945312 249.949219 
L 87.945312 249.949219 
" style="fill: none; stroke: #ff7f0e; stroke-width: 2; stroke-linecap: square"/>
    </g>
    <g id="text_26">
     <!-- L Front -->
     <g transform="translate(95.945312 253.449219)scale(0.1 -0.1)">
      <use xlink:href="#DejaVuSans-4c"/>
      <use xlink:href="#DejaVuSans-20" x="55.712891"/>
      <use xlink:href="#DejaVuSans-46" x="87.5"/>
      <use xlink:href="#DejaVuSans-72" x="137.769531"/>
      <use xlink:href="#DejaVuSans-6f" x="176.632812"/>
      <use xlink:href="#DejaVuSans-6e" x="237.814453"/>
      <use xlink:href="#DejaVuSans-74" x="301.193359"/>
     </g>
    </g>
    <g id="line2d_59">
     <path d="M 67.945312 264.627344 
L 77.945312 264.627344 
L 87.945312 264.627344 
" style="fill: none; stroke: #2ca02c; stroke-width: 2; stroke-linecap: square"/>
    </g>
    <g id="text_27">
     <!-- R Front -->
     <g transform="translate(95.945312 268.127344)scale(0.1 -0.1)">
      <use xlink:href="#DejaVuSans-52"/>
      <use xlink:href="#DejaVuSans-20" x="69.482422"/>
      <use xlink:href="#DejaVuSans-46" x="101.269531"/>
      <use xlink:href="#DejaVuSans-72" x="151.539062"/>
      <use xlink:href="#DejaVuSans-6f" x="190.402344"/>
      <use xlink:href="#DejaVuSans-6e" x="251.583984"/>
      <use xlink:href="#DejaVuSans-74" x="314.962891"/>
     </g>
    </g>
    <g id="line2d_60">
     <path d="M 67.945312 279.305469 
L 77.945312 279.305469 
L 87.945312 279.305469 
" style="fill: none; stroke: #d62728; stroke-width: 2; stroke-linecap: square"/>
    </g>
    <g id="text_28">
     <!-- R Side -->
     <g transform="translate(95.945312 282.805469)scale(0.1 -0.1)">
      <use xlink:href="#DejaVuSans-52"/>
      <use xlink:href="#DejaVuSans-20" x="69.482422"/>
      <use xlink:href="#DejaVuSans-53" x="101.269531"/>
      <use xlink:href="#DejaVuSans-69" x="164.746094"/>
      <use xlink:href="#DejaVuSans-64" x="192.529297"/>
      <use xlink:href="#DejaVuSans-65" x="256.005859"/>
     </g>
    </g>
   </g>
  </g>
  <g id="text_29">
   <!-- Reflector raw and distance -->
   <g transform="translate(150.065625 16.030125)scale(0.12 -0.12)">
    <use xlink:href="#DejaVuSans-52"/>
    <use xlink:href="#DejaVuSans-65" x="64.982422"/>
    <use xlink:href="#DejaVuSans-66" x="126.505859"/>
    <use xlink:href="#DejaVuSans-6c" x="161.710938"/>
    <use xlink:href="#DejaVuSans-65" x="189.494141"/>
    <use xlink:href="#DejaVuSans-63" x="251.017578"/>
    <use xlink:href="#DejaVuSans-74" x="305.998047"/>
    <use xlink:href="#DejaVuSans-6f" x="345.207031"/>
    <use xlink:href="#DejaVuSans-72" x="406.388672"/>
    <use xlink:href="#DejaVuSans-20" x="447.501953"/>
    <use xlink:href="#DejaVuSans-72" x="479.289062"/>
    <use xlink:href="#DejaVuSans-61" x="520.402344"/>
    <use xlink:href="#DejaVuSans-77" x="581.681641"/>
    <use xlink:href="#DejaVuSans-20" x="663.46875"/>
    <use xlink:href="#DejaVuSans-61" x="695.255859"/>
    <use xlink:href="#DejaVuSans-6e" x="756.535156"/>
    <use xlink:href="#DejaVuSans-64" x="819.914062"/>
    <use xlink:href="#DejaVuSans-20" x="883.390625"/>
    <use xlink:href="#DejaVuSans-64" x="915.177734"/>
    <use xlink:href="#DejaVuSans-69" x="978.654297"/>
    <use xlink:href="#DejaVuSans-73" x="1006.4375"/>
    <use xlink:href="#DejaVuSans-74" x="1058.537109"/>
    <use xlink:href="#DejaVuSans-61" x="1097.746094"/>
    <use xlink:href="#DejaVuSans-6e" x="1159.025391"/>
    <use xlink:href="#DejaVuSans-63" x="1222.404297"/>
    <use xlink:href="#DejaVuSans-65" x="1277.384766"/>
   </g>
  </g>
 </g>
 <defs>
  <clipPath id="p1916fc60e5">
   <rect x="58.945313" y="48.331875" width="391.054687" height="120.185937"/>
  </clipPath>
  <clipPath id="p23e355e262">
   <rect x="58.945313" y="197.935938" width="391.054687" height="120.185937"/>
  </clipPath>
 </defs>
</svg>
