<?xml version="1.0" encoding="utf-8" standalone="no"?>
<!DOCTYPE svg PUBLIC "-//W3C//DTD SVG 1.1//EN"
  "http://www.w3.org/Graphics/SVG/1.1/DTD/svg11.dtd">
<svg xmlns:xlink="http://www.w3.org/1999/xlink" width="576pt" height="360pt" viewBox="0 0 576 360" xmlns="http://www.w3.org/2000/svg" version="1.1">
 <metadata>
  <rdf:RDF xmlns:dc="http://purl.org/dc/elements/1.1/" xmlns:cc="http://creativecommons.org/ns#" xmlns:rdf="http://www.w3.org/1999/02/22-rdf-syntax-ns#">
   <cc:Work>
    <dc:type rdf:resource="http://purl.org/dc/dcmitype/StillImage"/>
    <dc:date>2022-01-09T23:26:37.020628</dc:date>
    <dc:format>image/svg+xml</dc:format>
    <dc:creator>
     <cc:Agent>
      <dc:title>Matplotlib v3.5.1, https://matplotlib.org/</dc:title>
     </cc:Agent>
    </dc:creator>
   </cc:Work>
  </rdf:RDF>
 </metadata>
 <defs>
  <style type="text/css">*{stroke-linejoin: round; stroke-linecap: butt}</style>
 </defs>
 <g id="figure_1">
  <g id="patch_1">
   <path d="M 0 360 
L 576 360 
L 576 0 
L 0 0 
z
" style="fill: #ffffff"/>
  </g>
  <g id="axes_1">
   <g id="patch_2">
    <path d="M 59.42 143.44 
L 565.2 143.44 
L 565.2 25.44 
L 59.42 25.44 
z
" style="fill: #ffffff"/>
   </g>
   <g id="matplotlib.axis_1">
    <g id="xtick_1">
     <g id="line2d_1">
      <path d="M 82.41 143.44 
L 82.41 25.44 
" clip-path="url(#p659e123af1)" style="fill: none; stroke: #b0b0b0; stroke-width: 0.8; stroke-linecap: square"/>
     </g>
     <g id="line2d_2">
      <defs>
       <path id="m23ebfe6064" d="M 0 0 
L 0 3.5 
" style="stroke: #000000; stroke-width: 0.8"/>
      </defs>
      <g>
       <use xlink:href="#m23ebfe6064" x="82.41" y="143.44" style="stroke: #000000; stroke-width: 0.8"/>
      </g>
     </g>
     <g id="text_1">
      <!-- 0 -->
      <g transform="translate(79.22875 158.038438)scale(0.1 -0.1)">
       <defs>
        <path id="DejaVuSans-30" d="M 2034 4250 
Q 1547 4250 1301 3770 
Q 1056 3291 1056 2328 
Q 1056 1369 1301 889 
Q 1547 409 2034 409 
Q 2525 409 2770 889 
Q 3016 1369 3016 2328 
Q 3016 3291 2770 3770 
Q 2525 4250 2034 4250 
z
M 2034 4750 
Q 2819 4750 3233 4129 
Q 3647 3509 3647 2328 
Q 3647 1150 3233 529 
Q 2819 -91 2034 -91 
Q 1250 -91 836 529 
Q 422 1150 422 2328 
Q 422 3509 836 4129 
Q 1250 4750 2034 4750 
z
" transform="scale(0.015625)"/>
       </defs>
       <use xlink:href="#DejaVuSans-30"/>
      </g>
     </g>
    </g>
    <g id="xtick_2">
     <g id="line2d_3">
      <path d="M 146.271111 143.44 
L 146.271111 25.44 
" clip-path="url(#p659e123af1)" style="fill: none; stroke: #b0b0b0; stroke-width: 0.8; stroke-linecap: square"/>
     </g>
     <g id="line2d_4">
      <g>
       <use xlink:href="#m23ebfe6064" x="146.271111" y="143.44" style="stroke: #000000; stroke-width: 0.8"/>
      </g>
     </g>
     <g id="text_2">
      <!-- 50 -->
      <g transform="translate(139.908611 158.038438)scale(0.1 -0.1)">
       <defs>
        <path id="DejaVuSans-35" d="M 691 4666 
L 3169 4666 
L 3169 4134 
L 1269 4134 
L 1269 2991 
Q 1406 3038 1543 3061 
Q 1681 3084 1819 3084 
Q 2600 3084 3056 2656 
Q 3513 2228 3513 1497 
Q 3513 744 3044 326 
Q 2575 -91 1722 -91 
Q 1428 -91 1123 -41 
Q 819 9 494 109 
L 494 744 
Q 775 591 1075 516 
Q 1375 441 1709 441 
Q 2250 441 2565 725 
Q 2881 1009 2881 1497 
Q 2881 1984 2565 2268 
Q 2250 2553 1709 2553 
Q 1456 2553 1204 2497 
Q 953 2441 691 2322 
L 691 4666 
z
" transform="scale(0.015625)"/>
       </defs>
       <use xlink:href="#DejaVuSans-35"/>
       <use xlink:href="#DejaVuSans-30" x="63.623047"/>
      </g>
     </g>
    </g>
    <g id="xtick_3">
     <g id="line2d_5">
      <path d="M 210.132222 143.44 
L 210.132222 25.44 
" clip-path="url(#p659e123af1)" style="fill: none; stroke: #b0b0b0; stroke-width: 0.8; stroke-linecap: square"/>
     </g>
     <g id="line2d_6">
      <g>
       <use xlink:href="#m23ebfe6064" x="210.132222" y="143.44" style="stroke: #000000; stroke-width: 0.8"/>
      </g>
     </g>
     <g id="text_3">
      <!-- 100 -->
      <g transform="translate(200.588472 158.038438)scale(0.1 -0.1)">
       <defs>
        <path id="DejaVuSans-31" d="M 794 531 
L 1825 531 
L 1825 4091 
L 703 3866 
L 703 4441 
L 1819 4666 
L 2450 4666 
L 2450 531 
L 3481 531 
L 3481 0 
L 794 0 
L 794 531 
z
" transform="scale(0.015625)"/>
       </defs>
       <use xlink:href="#DejaVuSans-31"/>
       <use xlink:href="#DejaVuSans-30" x="63.623047"/>
       <use xlink:href="#DejaVuSans-30" x="127.246094"/>
      </g>
     </g>
    </g>
    <g id="xtick_4">
     <g id="line2d_7">
      <path d="M 273.993333 143.44 
L 273.993333 25.44 
" clip-path="url(#p659e123af1)" style="fill: none; stroke: #b0b0b0; stroke-width: 0.8; stroke-linecap: square"/>
     </g>
     <g id="line2d_8">
      <g>
       <use xlink:href="#m23ebfe6064" x="273.993333" y="143.44" style="stroke: #000000; stroke-width: 0.8"/>
      </g>
     </g>
     <g id="text_4">
      <!-- 150 -->
      <g transform="translate(264.449583 158.038438)scale(0.1 -0.1)">
       <use xlink:href="#DejaVuSans-31"/>
       <use xlink:href="#DejaVuSans-35" x="63.623047"/>
       <use xlink:href="#DejaVuSans-30" x="127.246094"/>
      </g>
     </g>
    </g>
    <g id="xtick_5">
     <g id="line2d_9">
      <path d="M 337.854444 143.44 
L 337.854444 25.44 
" clip-path="url(#p659e123af1)" style="fill: none; stroke: #b0b0b0; stroke-width: 0.8; stroke-linecap: square"/>
     </g>
     <g id="line2d_10">
      <g>
       <use xlink:href="#m23ebfe6064" x="337.854444" y="143.44" style="stroke: #000000; stroke-width: 0.8"/>
      </g>
     </g>
     <g id="text_5">
      <!-- 200 -->
      <g transform="translate(328.310694 158.038438)scale(0.1 -0.1)">
       <defs>
        <path id="DejaVuSans-32" d="M 1228 531 
L 3431 531 
L 3431 0 
L 469 0 
L 469 531 
Q 828 903 1448 1529 
Q 2069 2156 2228 2338 
Q 2531 2678 2651 2914 
Q 2772 3150 2772 3378 
Q 2772 3750 2511 3984 
Q 2250 4219 1831 4219 
Q 1534 4219 1204 4116 
Q 875 4013 500 3803 
L 500 4441 
Q 881 4594 1212 4672 
Q 1544 4750 1819 4750 
Q 2544 4750 2975 4387 
Q 3406 4025 3406 3419 
Q 3406 3131 3298 2873 
Q 3191 2616 2906 2266 
Q 2828 2175 2409 1742 
Q 1991 1309 1228 531 
z
" transform="scale(0.015625)"/>
       </defs>
       <use xlink:href="#DejaVuSans-32"/>
       <use xlink:href="#DejaVuSans-30" x="63.623047"/>
       <use xlink:href="#DejaVuSans-30" x="127.246094"/>
      </g>
     </g>
    </g>
    <g id="xtick_6">
     <g id="line2d_11">
      <path d="M 401.715556 143.44 
L 401.715556 25.44 
" clip-path="url(#p659e123af1)" style="fill: none; stroke: #b0b0b0; stroke-width: 0.8; stroke-linecap: square"/>
     </g>
     <g id="line2d_12">
      <g>
       <use xlink:href="#m23ebfe6064" x="401.715556" y="143.44" style="stroke: #000000; stroke-width: 0.8"/>
      </g>
     </g>
     <g id="text_6">
      <!-- 250 -->
      <g transform="translate(392.171806 158.038438)scale(0.1 -0.1)">
       <use xlink:href="#DejaVuSans-32"/>
       <use xlink:href="#DejaVuSans-35" x="63.623047"/>
       <use xlink:href="#DejaVuSans-30" x="127.246094"/>
      </g>
     </g>
    </g>
    <g id="xtick_7">
     <g id="line2d_13">
      <path d="M 465.576667 143.44 
L 465.576667 25.44 
" clip-path="url(#p659e123af1)" style="fill: none; stroke: #b0b0b0; stroke-width: 0.8; stroke-linecap: square"/>
     </g>
     <g id="line2d_14">
      <g>
       <use xlink:href="#m23ebfe6064" x="465.576667" y="143.44" style="stroke: #000000; stroke-width: 0.8"/>
      </g>
     </g>
     <g id="text_7">
      <!-- 300 -->
      <g transform="translate(456.032917 158.038438)scale(0.1 -0.1)">
       <defs>
        <path id="DejaVuSans-33" d="M 2597 2516 
Q 3050 2419 3304 2112 
Q 3559 1806 3559 1356 
Q 3559 666 3084 287 
Q 2609 -91 1734 -91 
Q 1441 -91 1130 -33 
Q 819 25 488 141 
L 488 750 
Q 750 597 1062 519 
Q 1375 441 1716 441 
Q 2309 441 2620 675 
Q 2931 909 2931 1356 
Q 2931 1769 2642 2001 
Q 2353 2234 1838 2234 
L 1294 2234 
L 1294 2753 
L 1863 2753 
Q 2328 2753 2575 2939 
Q 2822 3125 2822 3475 
Q 2822 3834 2567 4026 
Q 2313 4219 1838 4219 
Q 1578 4219 1281 4162 
Q 984 4106 628 3988 
L 628 4550 
Q 988 4650 1302 4700 
Q 1616 4750 1894 4750 
Q 2613 4750 3031 4423 
Q 3450 4097 3450 3541 
Q 3450 3153 3228 2886 
Q 3006 2619 2597 2516 
z
" transform="scale(0.015625)"/>
       </defs>
       <use xlink:href="#DejaVuSans-33"/>
       <use xlink:href="#DejaVuSans-30" x="63.623047"/>
       <use xlink:href="#DejaVuSans-30" x="127.246094"/>
      </g>
     </g>
    </g>
    <g id="xtick_8">
     <g id="line2d_15">
      <path d="M 529.437778 143.44 
L 529.437778 25.44 
" clip-path="url(#p659e123af1)" style="fill: none; stroke: #b0b0b0; stroke-width: 0.8; stroke-linecap: square"/>
     </g>
     <g id="line2d_16">
      <g>
       <use xlink:href="#m23ebfe6064" x="529.437778" y="143.44" style="stroke: #000000; stroke-width: 0.8"/>
      </g>
     </g>
     <g id="text_8">
      <!-- 350 -->
      <g transform="translate(519.894028 158.038438)scale(0.1 -0.1)">
       <use xlink:href="#DejaVuSans-33"/>
       <use xlink:href="#DejaVuSans-35" x="63.623047"/>
       <use xlink:href="#DejaVuSans-30" x="127.246094"/>
      </g>
     </g>
    </g>
    <g id="text_9">
     <!-- x [mm] -->
     <g transform="translate(294.119375 171.716563)scale(0.1 -0.1)">
      <defs>
       <path id="DejaVuSans-78" d="M 3513 3500 
L 2247 1797 
L 3578 0 
L 2900 0 
L 1881 1375 
L 863 0 
L 184 0 
L 1544 1831 
L 300 3500 
L 978 3500 
L 1906 2253 
L 2834 3500 
L 3513 3500 
z
" transform="scale(0.015625)"/>
       <path id="DejaVuSans-20" transform="scale(0.015625)"/>
       <path id="DejaVuSans-5b" d="M 550 4863 
L 1875 4863 
L 1875 4416 
L 1125 4416 
L 1125 -397 
L 1875 -397 
L 1875 -844 
L 550 -844 
L 550 4863 
z
" transform="scale(0.015625)"/>
       <path id="DejaVuSans-6d" d="M 3328 2828 
Q 3544 3216 3844 3400 
Q 4144 3584 4550 3584 
Q 5097 3584 5394 3201 
Q 5691 2819 5691 2113 
L 5691 0 
L 5113 0 
L 5113 2094 
Q 5113 2597 4934 2840 
Q 4756 3084 4391 3084 
Q 3944 3084 3684 2787 
Q 3425 2491 3425 1978 
L 3425 0 
L 2847 0 
L 2847 2094 
Q 2847 2600 2669 2842 
Q 2491 3084 2119 3084 
Q 1678 3084 1418 2786 
Q 1159 2488 1159 1978 
L 1159 0 
L 581 0 
L 581 3500 
L 1159 3500 
L 1159 2956 
Q 1356 3278 1631 3431 
Q 1906 3584 2284 3584 
Q 2666 3584 2933 3390 
Q 3200 3197 3328 2828 
z
" transform="scale(0.015625)"/>
       <path id="DejaVuSans-5d" d="M 1947 4863 
L 1947 -844 
L 622 -844 
L 622 -397 
L 1369 -397 
L 1369 4416 
L 622 4416 
L 622 4863 
L 1947 4863 
z
" transform="scale(0.015625)"/>
      </defs>
      <use xlink:href="#DejaVuSans-78"/>
      <use xlink:href="#DejaVuSans-20" x="59.179688"/>
      <use xlink:href="#DejaVuSans-5b" x="90.966797"/>
      <use xlink:href="#DejaVuSans-6d" x="129.980469"/>
      <use xlink:href="#DejaVuSans-6d" x="227.392578"/>
      <use xlink:href="#DejaVuSans-5d" x="324.804688"/>
     </g>
    </g>
   </g>
   <g id="matplotlib.axis_2">
    <g id="ytick_1">
     <g id="line2d_17">
      <path d="M 59.42 138.111697 
L 565.2 138.111697 
" clip-path="url(#p659e123af1)" style="fill: none; stroke: #b0b0b0; stroke-width: 0.8; stroke-linecap: square"/>
     </g>
     <g id="line2d_18">
      <defs>
       <path id="m05fb1ab06f" d="M 0 0 
L -3.5 0 
" style="stroke: #000000; stroke-width: 0.8"/>
      </defs>
      <g>
       <use xlink:href="#m05fb1ab06f" x="59.42" y="138.111697" style="stroke: #000000; stroke-width: 0.8"/>
      </g>
     </g>
     <g id="text_10">
      <!-- 0 -->
      <g transform="translate(46.0575 141.910916)scale(0.1 -0.1)">
       <use xlink:href="#DejaVuSans-30"/>
      </g>
     </g>
    </g>
    <g id="ytick_2">
     <g id="line2d_19">
      <path d="M 59.42 102.778124 
L 565.2 102.778124 
" clip-path="url(#p659e123af1)" style="fill: none; stroke: #b0b0b0; stroke-width: 0.8; stroke-linecap: square"/>
     </g>
     <g id="line2d_20">
      <g>
       <use xlink:href="#m05fb1ab06f" x="59.42" y="102.778124" style="stroke: #000000; stroke-width: 0.8"/>
      </g>
     </g>
     <g id="text_11">
      <!-- 1000 -->
      <g transform="translate(26.97 106.577343)scale(0.1 -0.1)">
       <use xlink:href="#DejaVuSans-31"/>
       <use xlink:href="#DejaVuSans-30" x="63.623047"/>
       <use xlink:href="#DejaVuSans-30" x="127.246094"/>
       <use xlink:href="#DejaVuSans-30" x="190.869141"/>
      </g>
     </g>
    </g>
    <g id="ytick_3">
     <g id="line2d_21">
      <path d="M 59.42 67.444551 
L 565.2 67.444551 
" clip-path="url(#p659e123af1)" style="fill: none; stroke: #b0b0b0; stroke-width: 0.8; stroke-linecap: square"/>
     </g>
     <g id="line2d_22">
      <g>
       <use xlink:href="#m05fb1ab06f" x="59.42" y="67.444551" style="stroke: #000000; stroke-width: 0.8"/>
      </g>
     </g>
     <g id="text_12">
      <!-- 2000 -->
      <g transform="translate(26.97 71.24377)scale(0.1 -0.1)">
       <use xlink:href="#DejaVuSans-32"/>
       <use xlink:href="#DejaVuSans-30" x="63.623047"/>
       <use xlink:href="#DejaVuSans-30" x="127.246094"/>
       <use xlink:href="#DejaVuSans-30" x="190.869141"/>
      </g>
     </g>
    </g>
    <g id="ytick_4">
     <g id="line2d_23">
      <path d="M 59.42 32.110979 
L 565.2 32.110979 
" clip-path="url(#p659e123af1)" style="fill: none; stroke: #b0b0b0; stroke-width: 0.8; stroke-linecap: square"/>
     </g>
     <g id="line2d_24">
      <g>
       <use xlink:href="#m05fb1ab06f" x="59.42" y="32.110979" style="stroke: #000000; stroke-width: 0.8"/>
      </g>
     </g>
     <g id="text_13">
      <!-- 3000 -->
      <g transform="translate(26.97 35.910197)scale(0.1 -0.1)">
       <use xlink:href="#DejaVuSans-33"/>
       <use xlink:href="#DejaVuSans-30" x="63.623047"/>
       <use xlink:href="#DejaVuSans-30" x="127.246094"/>
       <use xlink:href="#DejaVuSans-30" x="190.869141"/>
      </g>
     </g>
    </g>
    <g id="text_14">
     <!-- reflector value -->
     <g transform="translate(20.890313 120.756406)rotate(-90)scale(0.1 -0.1)">
      <defs>
       <path id="DejaVuSans-72" d="M 2631 2963 
Q 2534 3019 2420 3045 
Q 2306 3072 2169 3072 
Q 1681 3072 1420 2755 
Q 1159 2438 1159 1844 
L 1159 0 
L 581 0 
L 581 3500 
L 1159 3500 
L 1159 2956 
Q 1341 3275 1631 3429 
Q 1922 3584 2338 3584 
Q 2397 3584 2469 3576 
Q 2541 3569 2628 3553 
L 2631 2963 
z
" transform="scale(0.015625)"/>
       <path id="DejaVuSans-65" d="M 3597 1894 
L 3597 1613 
L 953 1613 
Q 991 1019 1311 708 
Q 1631 397 2203 397 
Q 2534 397 2845 478 
Q 3156 559 3463 722 
L 3463 178 
Q 3153 47 2828 -22 
Q 2503 -91 2169 -91 
Q 1331 -91 842 396 
Q 353 884 353 1716 
Q 353 2575 817 3079 
Q 1281 3584 2069 3584 
Q 2775 3584 3186 3129 
Q 3597 2675 3597 1894 
z
M 3022 2063 
Q 3016 2534 2758 2815 
Q 2500 3097 2075 3097 
Q 1594 3097 1305 2825 
Q 1016 2553 972 2059 
L 3022 2063 
z
" transform="scale(0.015625)"/>
       <path id="DejaVuSans-66" d="M 2375 4863 
L 2375 4384 
L 1825 4384 
Q 1516 4384 1395 4259 
Q 1275 4134 1275 3809 
L 1275 3500 
L 2222 3500 
L 2222 3053 
L 1275 3053 
L 1275 0 
L 697 0 
L 697 3053 
L 147 3053 
L 147 3500 
L 697 3500 
L 697 3744 
Q 697 4328 969 4595 
Q 1241 4863 1831 4863 
L 2375 4863 
z
" transform="scale(0.015625)"/>
       <path id="DejaVuSans-6c" d="M 603 4863 
L 1178 4863 
L 1178 0 
L 603 0 
L 603 4863 
z
" transform="scale(0.015625)"/>
       <path id="DejaVuSans-63" d="M 3122 3366 
L 3122 2828 
Q 2878 2963 2633 3030 
Q 2388 3097 2138 3097 
Q 1578 3097 1268 2742 
Q 959 2388 959 1747 
Q 959 1106 1268 751 
Q 1578 397 2138 397 
Q 2388 397 2633 464 
Q 2878 531 3122 666 
L 3122 134 
Q 2881 22 2623 -34 
Q 2366 -91 2075 -91 
Q 1284 -91 818 406 
Q 353 903 353 1747 
Q 353 2603 823 3093 
Q 1294 3584 2113 3584 
Q 2378 3584 2631 3529 
Q 2884 3475 3122 3366 
z
" transform="scale(0.015625)"/>
       <path id="DejaVuSans-74" d="M 1172 4494 
L 1172 3500 
L 2356 3500 
L 2356 3053 
L 1172 3053 
L 1172 1153 
Q 1172 725 1289 603 
Q 1406 481 1766 481 
L 2356 481 
L 2356 0 
L 1766 0 
Q 1100 0 847 248 
Q 594 497 594 1153 
L 594 3053 
L 172 3053 
L 172 3500 
L 594 3500 
L 594 4494 
L 1172 4494 
z
" transform="scale(0.015625)"/>
       <path id="DejaVuSans-6f" d="M 1959 3097 
Q 1497 3097 1228 2736 
Q 959 2375 959 1747 
Q 959 1119 1226 758 
Q 1494 397 1959 397 
Q 2419 397 2687 759 
Q 2956 1122 2956 1747 
Q 2956 2369 2687 2733 
Q 2419 3097 1959 3097 
z
M 1959 3584 
Q 2709 3584 3137 3096 
Q 3566 2609 3566 1747 
Q 3566 888 3137 398 
Q 2709 -91 1959 -91 
Q 1206 -91 779 398 
Q 353 888 353 1747 
Q 353 2609 779 3096 
Q 1206 3584 1959 3584 
z
" transform="scale(0.015625)"/>
       <path id="DejaVuSans-76" d="M 191 3500 
L 800 3500 
L 1894 563 
L 2988 3500 
L 3597 3500 
L 2284 0 
L 1503 0 
L 191 3500 
z
" transform="scale(0.015625)"/>
       <path id="DejaVuSans-61" d="M 2194 1759 
Q 1497 1759 1228 1600 
Q 959 1441 959 1056 
Q 959 750 1161 570 
Q 1363 391 1709 391 
Q 2188 391 2477 730 
Q 2766 1069 2766 1631 
L 2766 1759 
L 2194 1759 
z
M 3341 1997 
L 3341 0 
L 2766 0 
L 2766 531 
Q 2569 213 2275 61 
Q 1981 -91 1556 -91 
Q 1019 -91 701 211 
Q 384 513 384 1019 
Q 384 1609 779 1909 
Q 1175 2209 1959 2209 
L 2766 2209 
L 2766 2266 
Q 2766 2663 2505 2880 
Q 2244 3097 1772 3097 
Q 1472 3097 1187 3025 
Q 903 2953 641 2809 
L 641 3341 
Q 956 3463 1253 3523 
Q 1550 3584 1831 3584 
Q 2591 3584 2966 3190 
Q 3341 2797 3341 1997 
z
" transform="scale(0.015625)"/>
       <path id="DejaVuSans-75" d="M 544 1381 
L 544 3500 
L 1119 3500 
L 1119 1403 
Q 1119 906 1312 657 
Q 1506 409 1894 409 
Q 2359 409 2629 706 
Q 2900 1003 2900 1516 
L 2900 3500 
L 3475 3500 
L 3475 0 
L 2900 0 
L 2900 538 
Q 2691 219 2414 64 
Q 2138 -91 1772 -91 
Q 1169 -91 856 284 
Q 544 659 544 1381 
z
M 1991 3584 
L 1991 3584 
z
" transform="scale(0.015625)"/>
      </defs>
      <use xlink:href="#DejaVuSans-72"/>
      <use xlink:href="#DejaVuSans-65" x="38.863281"/>
      <use xlink:href="#DejaVuSans-66" x="100.386719"/>
      <use xlink:href="#DejaVuSans-6c" x="135.591797"/>
      <use xlink:href="#DejaVuSans-65" x="163.375"/>
      <use xlink:href="#DejaVuSans-63" x="224.898438"/>
      <use xlink:href="#DejaVuSans-74" x="279.878906"/>
      <use xlink:href="#DejaVuSans-6f" x="319.087891"/>
      <use xlink:href="#DejaVuSans-72" x="380.269531"/>
      <use xlink:href="#DejaVuSans-20" x="421.382812"/>
      <use xlink:href="#DejaVuSans-76" x="453.169922"/>
      <use xlink:href="#DejaVuSans-61" x="512.349609"/>
      <use xlink:href="#DejaVuSans-6c" x="573.628906"/>
      <use xlink:href="#DejaVuSans-75" x="601.412109"/>
      <use xlink:href="#DejaVuSans-65" x="664.791016"/>
     </g>
    </g>
   </g>
   <g id="line2d_25">
    <path d="M 82.41 110.975513 
L 82.427523 110.869513 
L 82.410409 111.752852 
L 82.498282 110.975513 
L 82.76047 110.904846 
L 82.953969 111.858853 
L 83.031624 111.505517 
L 83.208264 112.000187 
L 83.415557 111.010847 
L 83.656058 111.04618 
L 83.7894 111.187515 
L 84.245368 111.187515 
L 84.417793 111.258182 
L 84.793297 111.717518 
L 84.997652 111.54085 
L 85.440848 111.858853 
L 85.678412 111.576184 
L 85.928747 111.92952 
L 88.696488 112.989527 
L 89.061773 112.989527 
L 90.636588 113.978867 
L 91.492327 113.802199 
L 91.938078 113.802199 
L 92.395323 113.554864 
L 92.862787 113.625531 
L 93.343022 113.554864 
L 93.834753 113.696198 
L 94.337978 113.342863 
L 99.371511 113.272195 
L 99.984578 113.02486 
L 100.610417 113.166195 
L 101.236256 113.166195 
L 102.52625 112.848193 
L 103.190406 113.130861 
L 104.518717 112.212188 
L 105.208417 112.459523 
L 105.898117 112.282855 
L 107.290289 112.600858 
L 108.708006 112.671525 
L 110.151267 112.459523 
L 110.879283 113.872866 
L 111.6073 111.92952 
L 113.088878 111.576184 
L 113.842439 111.611518 
L 114.583228 111.470183 
L 115.336789 111.010847 
L 116.09035 111.328849 
L 116.843911 111.010847 
L 117.610244 111.328849 
L 119.896472 110.869513 
L 122.195472 110.975513 
L 122.961806 110.904846 
L 123.728139 110.657511 
L 124.494472 110.763512 
L 125.260806 110.657511 
L 126.027139 110.904846 
L 126.793472 110.622178 
L 128.326139 110.622178 
L 129.092472 110.480843 
L 129.858806 110.55151 
L 130.625139 110.44551 
L 131.391472 110.975513 
L 132.157806 111.152181 
L 132.924139 110.94018 
L 133.690472 111.54085 
L 134.456806 110.480843 
L 135.223139 110.410176 
L 136.755806 110.480843 
L 137.522139 110.410176 
L 142.886472 110.975513 
L 143.652806 111.470183 
L 144.419139 111.081514 
L 145.185472 111.399516 
L 145.951806 111.222848 
L 146.718139 111.470183 
L 149.783472 111.717518 
L 150.549806 111.611518 
L 151.316139 111.858853 
L 152.082472 112.53019 
L 153.615139 112.42419 
L 154.381472 113.130861 
L 155.147806 112.282855 
L 155.914139 112.070854 
L 158.213139 112.706858 
L 158.979472 113.201528 
L 159.745806 113.448863 
L 160.512139 113.837533 
L 162.044806 115.250876 
L 162.811139 115.851546 
L 163.577472 116.699552 
L 165.110139 118.925567 
L 166.642806 121.928921 
L 168.175472 124.79094 
L 169.708139 128.288964 
L 172.007139 133.659667 
L 173.539806 136.415686 
L 174.306139 137.54636 
L 175.072472 138.076364 
L 266.968611 138.076364 
L 267.734944 137.440359 
L 268.501278 136.486353 
L 269.267611 136.027016 
L 270.033944 135.285011 
L 272.332944 131.963656 
L 273.099278 130.691647 
L 274.631944 127.582292 
L 275.398278 126.239617 
L 276.164611 124.614272 
L 280.762611 116.734886 
L 281.528944 115.710212 
L 283.061611 114.296869 
L 283.827944 113.978867 
L 284.594278 113.802199 
L 285.360611 113.41353 
L 286.126944 113.802199 
L 286.893278 112.565524 
L 287.659611 112.141521 
L 288.425944 112.318189 
L 289.192278 112.176855 
L 289.958611 112.176855 
L 290.724944 112.459523 
L 291.491278 112.318189 
L 292.257611 112.565524 
L 293.023944 112.353523 
L 293.790278 112.53019 
L 294.556611 112.318189 
L 295.322944 112.42419 
L 296.089278 112.318189 
L 296.855611 113.060194 
L 297.621944 113.41353 
L 298.388278 113.236862 
L 299.154611 113.307529 
L 299.920944 114.544204 
L 300.687278 112.671525 
L 303.752611 112.91886 
L 304.518944 112.671525 
L 305.285278 112.883526 
L 306.051611 112.706858 
L 306.817944 112.812859 
L 308.350611 112.742192 
L 309.883278 113.41353 
L 310.649611 113.342863 
L 311.415944 113.41353 
L 312.182278 113.307529 
L 312.948611 113.802199 
L 313.714944 112.671525 
L 316.013944 112.636191 
L 319.079278 112.671525 
L 321.378278 112.671525 
L 322.144611 113.201528 
L 322.910944 114.473537 
L 323.677278 113.342863 
L 324.443611 113.307529 
L 325.209944 112.777525 
L 327.508944 112.353523 
L 328.275278 112.600858 
L 329.041611 112.565524 
L 329.807944 112.212188 
L 330.574278 112.42419 
L 331.340611 112.42419 
L 332.106944 112.565524 
L 332.873278 112.42419 
L 333.639611 113.307529 
L 334.405944 113.272195 
L 335.172278 113.095528 
L 335.938611 113.201528 
L 336.704944 114.332203 
L 337.471278 112.353523 
L 338.237611 112.388856 
L 339.003944 112.600858 
L 340.536611 112.42419 
L 341.302944 112.565524 
L 342.069278 112.459523 
L 342.835611 112.671525 
L 343.601944 112.600858 
L 344.368278 113.02486 
L 345.900944 113.51953 
L 346.667278 113.307529 
L 348.199944 113.590198 
L 348.966278 112.671525 
L 349.732611 112.848193 
L 350.498944 112.777525 
L 351.265278 112.883526 
L 352.031611 112.671525 
L 352.797944 112.883526 
L 353.564278 112.848193 
L 354.330611 113.02486 
L 355.096944 112.989527 
L 355.863278 113.837533 
L 356.629611 114.120201 
L 357.395944 113.837533 
L 358.162278 114.756206 
L 358.928611 113.696198 
L 359.694944 113.095528 
L 364.292944 112.91886 
L 365.059278 113.02486 
L 365.825611 113.272195 
L 366.591944 113.802199 
L 367.358278 114.120201 
L 368.124611 113.660865 
L 368.890944 113.731532 
L 369.657278 113.272195 
L 370.423611 112.671525 
L 371.189944 112.883526 
L 371.956278 112.706858 
L 374.255278 112.848193 
L 375.021611 112.671525 
L 375.787944 112.671525 
L 376.554278 113.590198 
L 377.320611 113.802199 
L 378.086944 113.731532 
L 378.853278 114.084868 
L 379.619611 113.307529 
L 380.385944 112.742192 
L 381.152278 112.742192 
L 382.684944 113.02486 
L 383.451278 113.060194 
L 384.983944 113.448863 
L 386.516611 114.968207 
L 387.282944 115.321543 
L 388.049278 115.992881 
L 388.815611 116.416883 
L 389.581944 117.017554 
L 390.348278 117.088221 
L 391.114611 117.794893 
L 391.880944 118.713566 
L 392.647278 119.808906 
L 394.946278 123.978268 
L 397.245278 129.984975 
L 398.011611 131.327651 
L 398.777944 133.023663 
L 399.544278 134.260338 
L 400.310611 134.967009 
L 401.076944 136.380352 
L 401.843278 137.334359 
L 402.609611 138.076364 
L 479.242944 138.076364 
L 482.308278 137.475693 
L 483.074611 138.076364 
L 486.906278 138.076364 
L 487.672611 135.603014 
L 488.438944 135.285011 
L 489.971611 134.331005 
L 490.737944 134.119003 
L 491.504278 136.451019 
L 492.270611 136.415686 
L 493.036944 135.673681 
L 494.569611 134.931676 
L 495.335944 130.974315 
L 496.102278 130.196977 
L 497.634944 129.066303 
L 498.401278 128.25363 
L 499.167611 131.22165 
L 500.700278 129.878975 
L 502.232944 129.24297 
L 502.999278 124.932275 
L 503.765611 124.614272 
L 504.531944 124.472938 
L 506.064611 124.614272 
L 506.830944 129.030969 
L 508.363611 130.23231 
L 509.129944 130.974315 
L 509.896278 132.387658 
L 510.662611 128.854301 
L 512.195278 131.327651 
L 513.600222 133.589 
L 514.366556 138.076364 
L 517.176444 138.076364 
L 517.942778 137.193024 
L 519.347722 137.899696 
L 519.986333 137.899696 
L 521.263556 138.076364 
L 523.945722 138.076364 
L 524.584333 137.723028 
L 525.095222 137.581694 
L 526.372444 137.581694 
L 526.883333 137.369692 
L 527.521944 138.076364 
L 529.693222 138.076364 
L 530.204111 137.016356 
L 530.715 136.380352 
L 531.225889 136.239018 
L 532.119944 136.345019 
L 532.630833 138.076364 
L 534.291222 138.076364 
L 534.674389 135.603014 
L 535.057556 135.355679 
L 535.440722 135.355679 
L 535.823889 134.967009 
L 536.207056 135.56768 
L 536.590222 138.076364 
L 537.867444 138.076364 
L 538.122889 135.921016 
L 538.378333 135.108344 
L 538.633778 135.037676 
L 538.889222 134.331005 
L 539.144667 135.391012 
L 539.400111 138.076364 
L 540.166444 138.076364 
L 540.294167 135.603014 
L 540.805056 133.801001 
L 540.932778 135.143677 
L 541.0605 138.076364 
L 541.443667 138.076364 
L 541.443667 138.076364 
L 541.699111 134.225004 
L 541.699111 134.437006 
L 541.826833 133.589 
L 541.826833 134.861009 
L 541.954556 138.076364 
L 541.954556 138.076364 
L 542.082278 138.076364 
L 542.082278 138.076364 
L 542.082278 133.836335 
L 542.082278 133.907002 
L 542.21 132.811661 
L 542.21 138.076364 
L 542.21 131.327651 
L 542.21 132.493659 
" clip-path="url(#p659e123af1)" style="fill: none; stroke: #1f77b4; stroke-width: 2; stroke-linecap: square"/>
   </g>
   <g id="line2d_26">
    <path d="M 82.41 138.076364 
L 445.524278 138.076364 
L 446.290611 137.652361 
L 447.056944 137.758361 
L 447.823278 137.511026 
L 449.355944 137.54636 
L 450.122278 138.076364 
L 453.953944 138.076364 
L 454.720278 136.769021 
L 455.486611 136.698354 
L 456.252944 136.910356 
L 457.019278 136.451019 
L 457.785611 136.415686 
L 458.551944 138.076364 
L 461.617278 138.076364 
L 462.383611 137.193024 
L 463.149944 135.673681 
L 463.916278 135.779681 
L 464.682611 135.638347 
L 465.448944 135.779681 
L 466.215278 135.285011 
L 466.981611 138.076364 
L 470.046944 138.076364 
L 470.813278 136.027016 
L 471.579611 134.507673 
L 472.345944 134.189671 
L 474.644944 134.119003 
L 475.411278 138.076364 
L 478.476611 138.076364 
L 479.242944 134.154337 
L 480.009278 133.023663 
L 480.775611 132.952996 
L 481.541944 132.528993 
L 482.308278 132.387658 
L 483.074611 136.380352 
L 483.840944 138.005696 
L 484.607278 137.935029 
L 485.373611 137.581694 
L 486.139944 137.440359 
L 486.906278 137.475693 
L 487.672611 132.422992 
L 488.438944 130.974315 
L 489.971611 130.656313 
L 490.737944 130.12631 
L 491.504278 135.603014 
L 492.270611 136.309685 
L 493.803278 135.921016 
L 494.569611 135.779681 
L 495.335944 129.843641 
L 496.102278 128.500965 
L 496.868611 128.14763 
L 497.634944 128.112296 
L 498.401278 127.546959 
L 499.167611 134.08367 
L 499.933944 134.189671 
L 500.700278 134.154337 
L 501.466611 133.801001 
L 502.232944 133.589 
L 502.999278 126.910955 
L 503.765611 125.356277 
L 504.531944 124.896941 
L 505.298278 124.896941 
L 506.064611 125.108942 
L 506.830944 131.786988 
L 507.597278 131.892988 
L 508.363611 131.433652 
L 509.129944 131.256984 
L 509.896278 130.797648 
L 510.662611 123.483598 
L 511.428944 122.034922 
L 512.833889 121.045582 
L 513.600222 120.162242 
L 514.366556 128.500965 
L 515.132889 128.324298 
L 516.537833 127.440958 
L 517.176444 127.016955 
L 517.942778 117.794893 
L 518.581389 117.688892 
L 520.624944 116.063548 
L 521.263556 124.29627 
L 522.029889 123.730933 
L 523.307111 122.388257 
L 523.945722 122.105589 
L 524.584333 111.682185 
L 525.095222 112.706858 
L 525.733833 111.187515 
L 526.372444 110.622178 
L 526.883333 109.668171 
L 527.521944 117.936227 
L 528.032833 117.264889 
L 528.671444 116.699552 
L 529.182333 115.992881 
L 529.693222 115.604211 
L 530.204111 103.944132 
L 530.715 105.11014 
L 531.225889 103.378795 
L 531.736778 102.672124 
L 532.119944 101.894785 
L 532.630833 111.364183 
L 533.014 109.491503 
L 533.908056 108.042827 
L 534.291222 107.018153 
L 534.674389 94.651403 
L 535.057556 95.958745 
L 535.440722 94.545402 
L 535.823889 93.662063 
L 536.207056 92.001385 
L 536.590222 100.552109 
L 536.845667 99.421435 
L 537.228833 98.290761 
L 537.484278 97.018752 
L 537.867444 95.746743 
L 538.122889 83.379993 
L 538.378333 83.521327 
L 539.144667 78.327292 
L 539.400111 87.302019 
L 539.783278 84.333999 
L 540.038722 83.097324 
L 540.166444 81.083311 
L 540.294167 68.893228 
L 540.549611 69.352564 
L 540.805056 66.631879 
L 540.932778 65.006535 
L 541.0605 73.097923 
L 541.443667 68.009889 
L 541.571389 57.480484 
L 541.699111 59.565165 
L 541.699111 58.257822 
L 541.826833 57.93982 
L 541.826833 56.526477 
L 541.954556 61.225843 
L 541.954556 59.706499 
L 542.082278 58.611158 
L 542.082278 49.353762 
L 542.082278 50.51977 
L 542.21 49.707098 
L 542.21 32.958984 
L 542.21 52.745785 
L 542.21 42.322381 
" clip-path="url(#p659e123af1)" style="fill: none; stroke: #ff7f0e; stroke-width: 2; stroke-linecap: square"/>
   </g>
   <g id="line2d_27">
    <path d="M 82.41 138.076364 
L 470.046944 138.076364 
L 470.813278 137.157691 
L 473.112278 136.415686 
L 473.878611 136.415686 
L 474.644944 138.076364 
L 478.476611 138.076364 
L 479.242944 135.249678 
L 480.775611 134.967009 
L 481.541944 134.649007 
L 482.308278 134.543006 
L 483.074611 138.076364 
L 486.906278 138.076364 
L 487.672611 132.917662 
L 489.205278 132.564326 
L 489.971611 132.705661 
L 490.737944 131.998989 
L 491.504278 137.581694 
L 492.270611 137.475693 
L 493.036944 137.122357 
L 494.569611 136.875022 
L 495.335944 130.656313 
L 496.102278 130.408978 
L 496.868611 129.984975 
L 497.634944 130.161643 
L 498.401278 129.63164 
L 499.167611 135.497013 
L 499.933944 135.285011 
L 500.700278 134.755008 
L 502.232944 134.366338 
L 502.999278 128.112296 
L 503.765611 127.370291 
L 504.531944 126.981622 
L 505.298278 126.804954 
L 506.064611 126.416285 
L 506.830944 132.493659 
L 508.363611 131.857655 
L 509.129944 131.680987 
L 509.896278 131.327651 
L 510.662611 123.554265 
L 511.428944 123.059595 
L 512.195278 122.741593 
L 512.833889 121.964254 
L 513.600222 121.504918 
L 514.366556 128.606966 
L 515.132889 128.288964 
L 515.7715 127.75896 
L 516.537833 127.334957 
L 517.176444 126.734287 
L 517.942778 118.36023 
L 518.581389 117.37089 
L 519.347722 116.664218 
L 519.986333 116.240216 
L 520.624944 119.243569 
L 521.263556 123.342264 
L 522.029889 122.847594 
L 522.6685 122.282257 
L 523.307111 121.504918 
L 523.945722 120.904247 
L 524.584333 111.470183 
L 525.095222 111.611518 
L 526.372444 109.597504 
L 526.883333 115.356876 
L 527.521944 116.38155 
L 528.671444 114.791539 
L 529.182333 113.872866 
L 529.693222 113.378196 
L 530.204111 103.590797 
L 530.715 102.813458 
L 531.225889 101.576783 
L 531.736778 100.870111 
L 532.119944 106.523483 
L 532.630833 107.053487 
L 533.014 106.452816 
L 533.908056 104.368135 
L 534.291222 103.237461 
L 534.674389 93.414728 
L 535.057556 91.895384 
L 535.440722 91.330047 
L 535.823889 90.37604 
L 536.207056 96.170746 
L 536.590222 95.746743 
L 537.484278 92.107385 
L 537.867444 90.552708 
L 538.122889 80.093971 
L 538.633778 77.832622 
L 538.889222 76.419279 
L 539.144667 81.648648 
L 539.400111 81.542647 
L 539.783278 78.185958 
L 540.166444 76.242611 
L 540.294167 65.041868 
L 540.805056 60.978508 
L 540.932778 65.960541 
L 541.188222 64.123196 
L 541.443667 59.883167 
L 541.699111 52.745785 
L 541.699111 52.745785 
L 541.826833 51.897779 
L 541.826833 55.890473 
L 542.082278 51.615111 
L 542.082278 51.615111 
L 542.082278 44.619063 
L 542.21 43.912392 
L 542.21 47.834418 
L 542.21 30.803636 
L 542.21 37.905685 
" clip-path="url(#p659e123af1)" style="fill: none; stroke: #2ca02c; stroke-width: 2; stroke-linecap: square"/>
   </g>
   <g id="line2d_28">
    <path d="M 82.41 120.197576 
L 82.410409 119.526238 
L 82.498282 120.586245 
L 82.522242 119.773573 
L 82.582425 120.197576 
L 82.619209 120.33891 
L 82.660974 120.091575 
L 82.76047 119.879574 
L 82.818711 120.586245 
L 82.883083 119.738239 
L 82.953969 119.808906 
L 83.116304 120.515578 
L 83.307887 119.632239 
L 83.531529 120.798246 
L 83.7894 119.455571 
L 84.084438 120.586245 
L 84.245368 119.34957 
L 84.417793 119.667572 
L 84.600436 119.455571 
L 84.793297 119.420237 
L 84.997652 119.243569 
L 85.213503 119.455571 
L 85.440848 119.455571 
L 85.678412 119.208236 
L 85.928747 119.455571 
L 86.190578 119.102235 
L 86.463903 119.137569 
L 86.747447 118.8549 
L 87.043762 119.596905 
L 87.351573 119.137569 
L 87.670878 119.102235 
L 88.000402 118.324896 
L 88.342697 118.642899 
L 88.696488 118.324896 
L 89.061773 118.8549 
L 89.437277 118.254229 
L 89.825552 118.324896 
L 90.225323 118.536898 
L 90.636588 118.572231 
L 91.492327 117.794893 
L 91.938078 118.042228 
L 93.343022 117.86556 
L 93.834753 118.324896 
L 94.337978 117.759559 
L 94.851422 118.324896 
L 95.373806 118.254229 
L 95.910239 118.006894 
L 97.596172 118.112895 
L 98.183694 117.971561 
L 98.771217 118.218896 
L 99.984578 118.36023 
L 100.610417 118.183562 
L 101.236256 118.289563 
L 101.874867 118.572231 
L 102.52625 118.324896 
L 103.190406 118.501564 
L 103.854561 118.960901 
L 104.518717 118.8549 
L 105.208417 117.971561 
L 105.898117 118.784233 
L 106.587817 118.925567 
L 107.290289 119.278903 
L 107.992761 119.278903 
L 108.708006 119.066901 
L 109.42325 119.455571 
L 113.842439 119.561571 
L 114.583228 120.056241 
L 115.336789 120.056241 
L 116.09035 119.773573 
L 116.843911 120.197576 
L 117.610244 120.091575 
L 118.376578 120.232909 
L 119.130139 119.808906 
L 119.896472 120.197576 
L 120.662806 119.914907 
L 121.429139 120.586245 
L 122.195472 120.692246 
L 123.728139 120.232909 
L 124.494472 120.056241 
L 125.260806 120.232909 
L 126.027139 120.232909 
L 126.793472 120.586245 
L 128.326139 120.409577 
L 129.092472 120.33891 
L 129.858806 120.692246 
L 130.625139 120.374244 
L 132.924139 120.480244 
L 133.690472 120.904247 
L 134.456806 120.374244 
L 135.223139 120.515578 
L 136.755806 120.091575 
L 137.522139 121.151582 
L 138.288472 119.808906 
L 139.054806 120.091575 
L 139.821139 119.526238 
L 141.353806 119.738239 
L 142.120139 119.526238 
L 142.886472 119.632239 
L 143.652806 119.526238 
L 144.419139 119.596905 
L 145.185472 119.278903 
L 145.951806 119.702906 
L 146.718139 119.808906 
L 147.484472 119.278903 
L 148.250806 119.455571 
L 149.017139 119.34957 
L 149.783472 119.667572 
L 150.549806 119.102235 
L 151.316139 119.455571 
L 152.082472 119.420237 
L 152.848806 119.243569 
L 153.615139 119.455571 
L 155.147806 119.561571 
L 155.914139 119.667572 
L 156.680472 119.455571 
L 157.446806 120.197576 
L 158.213139 119.667572 
L 158.979472 119.808906 
L 159.745806 120.232909 
L 160.512139 120.409577 
L 163.577472 122.070255 
L 165.110139 123.165596 
L 166.642806 125.073609 
L 168.941806 127.970962 
L 170.474472 130.020309 
L 172.773472 134.189671 
L 173.539806 135.249678 
L 174.306139 136.910356 
L 175.838806 138.076364 
L 271.566611 138.076364 
L 272.332944 137.758361 
L 273.865611 136.309685 
L 274.631944 135.249678 
L 275.398278 134.472339 
L 276.930944 132.281658 
L 278.463611 130.267644 
L 279.996278 128.112296 
L 280.762611 127.370291 
L 283.061611 124.437605 
L 283.827944 123.942934 
L 284.594278 124.013602 
L 285.360611 122.847594 
L 286.893278 122.458924 
L 287.659611 122.140922 
L 288.425944 121.434251 
L 289.192278 121.363584 
L 289.958611 121.540252 
L 290.724944 121.469584 
L 291.491278 121.540252 
L 292.257611 121.257583 
L 293.023944 121.363584 
L 294.556611 121.32825 
L 295.322944 121.575585 
L 296.089278 120.939581 
L 296.855611 121.186916 
L 298.388278 121.186916 
L 299.154611 122.600259 
L 299.920944 121.116249 
L 300.687278 120.904247 
L 301.453611 121.398917 
L 302.219944 120.586245 
L 302.986278 120.586245 
L 303.752611 120.762913 
L 304.518944 120.586245 
L 305.285278 120.621579 
L 306.051611 120.232909 
L 308.350611 120.798246 
L 309.116944 121.186916 
L 310.649611 120.515578 
L 311.415944 121.010248 
L 312.182278 120.586245 
L 312.948611 120.621579 
L 314.481278 120.409577 
L 315.247611 120.374244 
L 316.013944 120.692246 
L 316.780278 120.444911 
L 319.079278 120.480244 
L 319.845611 120.197576 
L 320.611944 120.762913 
L 321.378278 120.197576 
L 322.910944 121.045582 
L 323.677278 120.586245 
L 325.209944 120.762913 
L 325.976278 120.232909 
L 326.742611 120.586245 
L 327.508944 121.151582 
L 328.275278 120.268243 
L 330.574278 120.374244 
L 332.106944 120.974914 
L 332.873278 120.232909 
L 333.639611 120.692246 
L 334.405944 120.480244 
L 335.938611 120.586245 
L 337.471278 120.480244 
L 338.237611 120.197576 
L 339.003944 120.621579 
L 339.770278 120.621579 
L 340.536611 120.409577 
L 341.302944 119.879574 
L 342.069278 120.091575 
L 342.835611 121.257583 
L 343.601944 120.091575 
L 344.368278 120.33891 
L 346.667278 120.409577 
L 347.433611 120.126909 
L 348.966278 120.162242 
L 349.732611 119.773573 
L 350.498944 120.586245 
L 351.265278 119.667572 
L 352.031611 119.702906 
L 352.797944 119.490904 
L 355.096944 119.384904 
L 355.863278 120.091575 
L 356.629611 120.232909 
L 357.395944 119.738239 
L 358.162278 119.632239 
L 358.928611 121.080915 
L 359.694944 119.384904 
L 361.993944 119.455571 
L 362.760278 119.208236 
L 365.059278 119.384904 
L 365.825611 119.667572 
L 366.591944 120.091575 
L 367.358278 119.702906 
L 368.124611 120.232909 
L 368.890944 120.126909 
L 369.657278 119.808906 
L 370.423611 119.34957 
L 371.189944 119.455571 
L 371.956278 119.84424 
L 372.722611 119.84424 
L 373.488944 120.091575 
L 374.255278 119.34957 
L 375.021611 119.455571 
L 375.787944 119.420237 
L 376.554278 120.409577 
L 378.086944 120.586245 
L 378.853278 120.056241 
L 379.619611 120.586245 
L 380.385944 119.808906 
L 381.918611 119.632239 
L 382.684944 120.374244 
L 383.451278 119.632239 
L 384.217611 120.374244 
L 384.983944 120.197576 
L 386.516611 120.974914 
L 387.282944 120.656912 
L 388.049278 120.904247 
L 388.815611 120.798246 
L 389.581944 121.292917 
L 390.348278 120.586245 
L 391.114611 120.692246 
L 393.413611 121.893587 
L 394.946278 123.448264 
L 396.478944 125.320944 
L 398.777944 127.970962 
L 399.544278 129.419638 
L 400.310611 129.560973 
L 401.076944 130.444312 
L 401.843278 131.539653 
L 403.375944 134.154337 
L 404.908611 136.380352 
L 405.674944 138.076364 
L 487.672611 138.076364 
L 490.737944 137.299025 
L 491.504278 138.076364 
L 494.569611 138.076364 
L 495.335944 135.497013 
L 496.102278 135.179011 
L 496.868611 134.649007 
L 497.634944 134.507673 
L 498.401278 134.048336 
L 499.167611 136.309685 
L 499.933944 136.168351 
L 500.700278 135.355679 
L 502.232944 134.225004 
L 502.999278 130.691647 
L 503.765611 130.161643 
L 504.531944 129.24297 
L 505.298278 128.500965 
L 506.064611 127.935628 
L 506.830944 130.762314 
L 507.597278 130.373645 
L 508.363611 130.161643 
L 509.129944 129.63164 
L 509.896278 129.73764 
L 510.662611 125.709613 
L 511.428944 126.027615 
L 512.195278 125.886281 
L 513.600222 127.15829 
L 514.366556 131.398318 
L 515.7715 133.306331 
L 517.176444 135.850349 
L 517.942778 133.341665 
L 518.581389 133.977669 
L 519.347722 135.249678 
L 519.986333 135.673681 
L 520.624944 136.380352 
L 521.263556 138.076364 
L 523.945722 138.076364 
L 524.584333 137.793695 
L 525.733833 137.935029 
L 526.372444 137.687694 
L 526.883333 137.793695 
L 527.521944 138.076364 
L 529.693222 138.076364 
L 530.715 137.087024 
L 531.225889 137.511026 
L 531.736778 136.875022 
L 532.119944 136.769021 
L 532.630833 138.076364 
L 534.291222 138.076364 
L 534.674389 136.027016 
L 535.057556 136.027016 
L 535.440722 136.345019 
L 535.823889 135.885682 
L 536.207056 135.709014 
L 536.590222 138.076364 
L 537.867444 138.076364 
L 538.122889 135.532346 
L 538.633778 135.285011 
L 538.889222 135.779681 
L 539.144667 135.285011 
L 539.400111 138.076364 
L 540.166444 138.076364 
L 540.294167 135.249678 
L 540.677333 135.497013 
L 540.932778 135.320345 
L 541.0605 138.076364 
L 541.443667 138.076364 
L 541.443667 138.076364 
L 541.571389 134.931676 
L 541.699111 134.967009 
L 541.699111 135.603014 
L 541.826833 135.179011 
L 541.826833 135.179011 
L 541.954556 138.076364 
L 541.954556 138.076364 
L 542.082278 138.076364 
L 542.082278 138.076364 
L 542.082278 134.719674 
L 542.082278 135.355679 
L 542.21 135.285011 
L 542.21 134.048336 
L 542.21 138.076364 
L 542.21 134.931676 
" clip-path="url(#p659e123af1)" style="fill: none; stroke: #d62728; stroke-width: 2; stroke-linecap: square"/>
   </g>
   <g id="patch_3">
    <path d="M 59.42 143.44 
L 59.42 25.44 
" style="fill: none; stroke: #000000; stroke-width: 0.8; stroke-linejoin: miter; stroke-linecap: square"/>
   </g>
   <g id="patch_4">
    <path d="M 565.2 143.44 
L 565.2 25.44 
" style="fill: none; stroke: #000000; stroke-width: 0.8; stroke-linejoin: miter; stroke-linecap: square"/>
   </g>
   <g id="patch_5">
    <path d="M 59.42 143.44 
L 565.2 143.44 
" style="fill: none; stroke: #000000; stroke-width: 0.8; stroke-linejoin: miter; stroke-linecap: square"/>
   </g>
   <g id="patch_6">
    <path d="M 59.42 25.44 
L 565.2 25.44 
" style="fill: none; stroke: #000000; stroke-width: 0.8; stroke-linejoin: miter; stroke-linecap: square"/>
   </g>
   <g id="text_15">
    <!-- Reflector Raw Value -->
    <g transform="translate(252.55 19.44)scale(0.12 -0.12)">
     <defs>
      <path id="DejaVuSans-52" d="M 2841 2188 
Q 3044 2119 3236 1894 
Q 3428 1669 3622 1275 
L 4263 0 
L 3584 0 
L 2988 1197 
Q 2756 1666 2539 1819 
Q 2322 1972 1947 1972 
L 1259 1972 
L 1259 0 
L 628 0 
L 628 4666 
L 2053 4666 
Q 2853 4666 3247 4331 
Q 3641 3997 3641 3322 
Q 3641 2881 3436 2590 
Q 3231 2300 2841 2188 
z
M 1259 4147 
L 1259 2491 
L 2053 2491 
Q 2509 2491 2742 2702 
Q 2975 2913 2975 3322 
Q 2975 3731 2742 3939 
Q 2509 4147 2053 4147 
L 1259 4147 
z
" transform="scale(0.015625)"/>
      <path id="DejaVuSans-77" d="M 269 3500 
L 844 3500 
L 1563 769 
L 2278 3500 
L 2956 3500 
L 3675 769 
L 4391 3500 
L 4966 3500 
L 4050 0 
L 3372 0 
L 2619 2869 
L 1863 0 
L 1184 0 
L 269 3500 
z
" transform="scale(0.015625)"/>
      <path id="DejaVuSans-56" d="M 1831 0 
L 50 4666 
L 709 4666 
L 2188 738 
L 3669 4666 
L 4325 4666 
L 2547 0 
L 1831 0 
z
" transform="scale(0.015625)"/>
     </defs>
     <use xlink:href="#DejaVuSans-52"/>
     <use xlink:href="#DejaVuSans-65" x="64.982422"/>
     <use xlink:href="#DejaVuSans-66" x="126.505859"/>
     <use xlink:href="#DejaVuSans-6c" x="161.710938"/>
     <use xlink:href="#DejaVuSans-65" x="189.494141"/>
     <use xlink:href="#DejaVuSans-63" x="251.017578"/>
     <use xlink:href="#DejaVuSans-74" x="305.998047"/>
     <use xlink:href="#DejaVuSans-6f" x="345.207031"/>
     <use xlink:href="#DejaVuSans-72" x="406.388672"/>
     <use xlink:href="#DejaVuSans-20" x="447.501953"/>
     <use xlink:href="#DejaVuSans-52" x="479.289062"/>
     <use xlink:href="#DejaVuSans-61" x="546.521484"/>
     <use xlink:href="#DejaVuSans-77" x="607.800781"/>
     <use xlink:href="#DejaVuSans-20" x="689.587891"/>
     <use xlink:href="#DejaVuSans-56" x="721.375"/>
     <use xlink:href="#DejaVuSans-61" x="782.033203"/>
     <use xlink:href="#DejaVuSans-6c" x="843.3125"/>
     <use xlink:href="#DejaVuSans-75" x="871.095703"/>
     <use xlink:href="#DejaVuSans-65" x="934.474609"/>
    </g>
   </g>
   <g id="legend_1">
    <g id="patch_7">
     <path d="M 66.42 48.118125 
L 291.660625 48.118125 
Q 293.660625 48.118125 293.660625 46.118125 
L 293.660625 32.44 
Q 293.660625 30.44 291.660625 30.44 
L 66.42 30.44 
Q 64.42 30.44 64.42 32.44 
L 64.42 46.118125 
Q 64.42 48.118125 66.42 48.118125 
z
" style="fill: #ffffff; opacity: 0.8; stroke: #cccccc; stroke-linejoin: miter"/>
    </g>
    <g id="line2d_29">
     <path d="M 68.42 38.538437 
L 78.42 38.538437 
L 88.42 38.538437 
" style="fill: none; stroke: #1f77b4; stroke-width: 2; stroke-linecap: square"/>
    </g>
    <g id="text_16">
     <!-- SL -->
     <g transform="translate(96.42 42.038437)scale(0.1 -0.1)">
      <defs>
       <path id="DejaVuSans-53" d="M 3425 4513 
L 3425 3897 
Q 3066 4069 2747 4153 
Q 2428 4238 2131 4238 
Q 1616 4238 1336 4038 
Q 1056 3838 1056 3469 
Q 1056 3159 1242 3001 
Q 1428 2844 1947 2747 
L 2328 2669 
Q 3034 2534 3370 2195 
Q 3706 1856 3706 1288 
Q 3706 609 3251 259 
Q 2797 -91 1919 -91 
Q 1588 -91 1214 -16 
Q 841 59 441 206 
L 441 856 
Q 825 641 1194 531 
Q 1563 422 1919 422 
Q 2459 422 2753 634 
Q 3047 847 3047 1241 
Q 3047 1584 2836 1778 
Q 2625 1972 2144 2069 
L 1759 2144 
Q 1053 2284 737 2584 
Q 422 2884 422 3419 
Q 422 4038 858 4394 
Q 1294 4750 2059 4750 
Q 2388 4750 2728 4690 
Q 3069 4631 3425 4513 
z
" transform="scale(0.015625)"/>
       <path id="DejaVuSans-4c" d="M 628 4666 
L 1259 4666 
L 1259 531 
L 3531 531 
L 3531 0 
L 628 0 
L 628 4666 
z
" transform="scale(0.015625)"/>
      </defs>
      <use xlink:href="#DejaVuSans-53"/>
      <use xlink:href="#DejaVuSans-4c" x="63.476562"/>
     </g>
    </g>
    <g id="line2d_30">
     <path d="M 128.340313 38.538437 
L 138.340313 38.538437 
L 148.340313 38.538437 
" style="fill: none; stroke: #ff7f0e; stroke-width: 2; stroke-linecap: square"/>
    </g>
    <g id="text_17">
     <!-- FL -->
     <g transform="translate(156.340313 42.038437)scale(0.1 -0.1)">
      <defs>
       <path id="DejaVuSans-46" d="M 628 4666 
L 3309 4666 
L 3309 4134 
L 1259 4134 
L 1259 2759 
L 3109 2759 
L 3109 2228 
L 1259 2228 
L 1259 0 
L 628 0 
L 628 4666 
z
" transform="scale(0.015625)"/>
      </defs>
      <use xlink:href="#DejaVuSans-46"/>
      <use xlink:href="#DejaVuSans-4c" x="57.519531"/>
     </g>
    </g>
    <g id="line2d_31">
     <path d="M 187.66375 38.538437 
L 197.66375 38.538437 
L 207.66375 38.538437 
" style="fill: none; stroke: #2ca02c; stroke-width: 2; stroke-linecap: square"/>
    </g>
    <g id="text_18">
     <!-- FR -->
     <g transform="translate(215.66375 42.038437)scale(0.1 -0.1)">
      <use xlink:href="#DejaVuSans-46"/>
      <use xlink:href="#DejaVuSans-52" x="57.519531"/>
     </g>
    </g>
    <g id="line2d_32">
     <path d="M 248.36375 38.538437 
L 258.36375 38.538437 
L 268.36375 38.538437 
" style="fill: none; stroke: #d62728; stroke-width: 2; stroke-linecap: square"/>
    </g>
    <g id="text_19">
     <!-- SR -->
     <g transform="translate(276.36375 42.038437)scale(0.1 -0.1)">
      <use xlink:href="#DejaVuSans-53"/>
      <use xlink:href="#DejaVuSans-52" x="63.476562"/>
     </g>
    </g>
   </g>
  </g>
  <g id="axes_2">
   <g id="patch_8">
    <path d="M 59.42 318.04 
L 565.2 318.04 
L 565.2 200.04 
L 59.42 200.04 
z
" style="fill: #ffffff"/>
   </g>
   <g id="matplotlib.axis_3">
    <g id="xtick_9">
     <g id="line2d_33">
      <path d="M 82.41 318.04 
L 82.41 200.04 
" clip-path="url(#pd97a828eab)" style="fill: none; stroke: #b0b0b0; stroke-width: 0.8; stroke-linecap: square"/>
     </g>
     <g id="line2d_34">
      <g>
       <use xlink:href="#m23ebfe6064" x="82.41" y="318.04" style="stroke: #000000; stroke-width: 0.8"/>
      </g>
     </g>
     <g id="text_20">
      <!-- 0 -->
      <g transform="translate(79.22875 332.638438)scale(0.1 -0.1)">
       <use xlink:href="#DejaVuSans-30"/>
      </g>
     </g>
    </g>
    <g id="xtick_10">
     <g id="line2d_35">
      <path d="M 146.271111 318.04 
L 146.271111 200.04 
" clip-path="url(#pd97a828eab)" style="fill: none; stroke: #b0b0b0; stroke-width: 0.8; stroke-linecap: square"/>
     </g>
     <g id="line2d_36">
      <g>
       <use xlink:href="#m23ebfe6064" x="146.271111" y="318.04" style="stroke: #000000; stroke-width: 0.8"/>
      </g>
     </g>
     <g id="text_21">
      <!-- 50 -->
      <g transform="translate(139.908611 332.638438)scale(0.1 -0.1)">
       <use xlink:href="#DejaVuSans-35"/>
       <use xlink:href="#DejaVuSans-30" x="63.623047"/>
      </g>
     </g>
    </g>
    <g id="xtick_11">
     <g id="line2d_37">
      <path d="M 210.132222 318.04 
L 210.132222 200.04 
" clip-path="url(#pd97a828eab)" style="fill: none; stroke: #b0b0b0; stroke-width: 0.8; stroke-linecap: square"/>
     </g>
     <g id="line2d_38">
      <g>
       <use xlink:href="#m23ebfe6064" x="210.132222" y="318.04" style="stroke: #000000; stroke-width: 0.8"/>
      </g>
     </g>
     <g id="text_22">
      <!-- 100 -->
      <g transform="translate(200.588472 332.638438)scale(0.1 -0.1)">
       <use xlink:href="#DejaVuSans-31"/>
       <use xlink:href="#DejaVuSans-30" x="63.623047"/>
       <use xlink:href="#DejaVuSans-30" x="127.246094"/>
      </g>
     </g>
    </g>
    <g id="xtick_12">
     <g id="line2d_39">
      <path d="M 273.993333 318.04 
L 273.993333 200.04 
" clip-path="url(#pd97a828eab)" style="fill: none; stroke: #b0b0b0; stroke-width: 0.8; stroke-linecap: square"/>
     </g>
     <g id="line2d_40">
      <g>
       <use xlink:href="#m23ebfe6064" x="273.993333" y="318.04" style="stroke: #000000; stroke-width: 0.8"/>
      </g>
     </g>
     <g id="text_23">
      <!-- 150 -->
      <g transform="translate(264.449583 332.638438)scale(0.1 -0.1)">
       <use xlink:href="#DejaVuSans-31"/>
       <use xlink:href="#DejaVuSans-35" x="63.623047"/>
       <use xlink:href="#DejaVuSans-30" x="127.246094"/>
      </g>
     </g>
    </g>
    <g id="xtick_13">
     <g id="line2d_41">
      <path d="M 337.854444 318.04 
L 337.854444 200.04 
" clip-path="url(#pd97a828eab)" style="fill: none; stroke: #b0b0b0; stroke-width: 0.8; stroke-linecap: square"/>
     </g>
     <g id="line2d_42">
      <g>
       <use xlink:href="#m23ebfe6064" x="337.854444" y="318.04" style="stroke: #000000; stroke-width: 0.8"/>
      </g>
     </g>
     <g id="text_24">
      <!-- 200 -->
      <g transform="translate(328.310694 332.638438)scale(0.1 -0.1)">
       <use xlink:href="#DejaVuSans-32"/>
       <use xlink:href="#DejaVuSans-30" x="63.623047"/>
       <use xlink:href="#DejaVuSans-30" x="127.246094"/>
      </g>
     </g>
    </g>
    <g id="xtick_14">
     <g id="line2d_43">
      <path d="M 401.715556 318.04 
L 401.715556 200.04 
" clip-path="url(#pd97a828eab)" style="fill: none; stroke: #b0b0b0; stroke-width: 0.8; stroke-linecap: square"/>
     </g>
     <g id="line2d_44">
      <g>
       <use xlink:href="#m23ebfe6064" x="401.715556" y="318.04" style="stroke: #000000; stroke-width: 0.8"/>
      </g>
     </g>
     <g id="text_25">
      <!-- 250 -->
      <g transform="translate(392.171806 332.638438)scale(0.1 -0.1)">
       <use xlink:href="#DejaVuSans-32"/>
       <use xlink:href="#DejaVuSans-35" x="63.623047"/>
       <use xlink:href="#DejaVuSans-30" x="127.246094"/>
      </g>
     </g>
    </g>
    <g id="xtick_15">
     <g id="line2d_45">
      <path d="M 465.576667 318.04 
L 465.576667 200.04 
" clip-path="url(#pd97a828eab)" style="fill: none; stroke: #b0b0b0; stroke-width: 0.8; stroke-linecap: square"/>
     </g>
     <g id="line2d_46">
      <g>
       <use xlink:href="#m23ebfe6064" x="465.576667" y="318.04" style="stroke: #000000; stroke-width: 0.8"/>
      </g>
     </g>
     <g id="text_26">
      <!-- 300 -->
      <g transform="translate(456.032917 332.638438)scale(0.1 -0.1)">
       <use xlink:href="#DejaVuSans-33"/>
       <use xlink:href="#DejaVuSans-30" x="63.623047"/>
       <use xlink:href="#DejaVuSans-30" x="127.246094"/>
      </g>
     </g>
    </g>
    <g id="xtick_16">
     <g id="line2d_47">
      <path d="M 529.437778 318.04 
L 529.437778 200.04 
" clip-path="url(#pd97a828eab)" style="fill: none; stroke: #b0b0b0; stroke-width: 0.8; stroke-linecap: square"/>
     </g>
     <g id="line2d_48">
      <g>
       <use xlink:href="#m23ebfe6064" x="529.437778" y="318.04" style="stroke: #000000; stroke-width: 0.8"/>
      </g>
     </g>
     <g id="text_27">
      <!-- 350 -->
      <g transform="translate(519.894028 332.638438)scale(0.1 -0.1)">
       <use xlink:href="#DejaVuSans-33"/>
       <use xlink:href="#DejaVuSans-35" x="63.623047"/>
       <use xlink:href="#DejaVuSans-30" x="127.246094"/>
      </g>
     </g>
    </g>
    <g id="text_28">
     <!-- x [mm] -->
     <g transform="translate(294.119375 346.316563)scale(0.1 -0.1)">
      <use xlink:href="#DejaVuSans-78"/>
      <use xlink:href="#DejaVuSans-20" x="59.179688"/>
      <use xlink:href="#DejaVuSans-5b" x="90.966797"/>
      <use xlink:href="#DejaVuSans-6d" x="129.980469"/>
      <use xlink:href="#DejaVuSans-6d" x="227.392578"/>
      <use xlink:href="#DejaVuSans-5d" x="324.804688"/>
     </g>
    </g>
   </g>
   <g id="matplotlib.axis_4">
    <g id="ytick_5">
     <g id="line2d_49">
      <path d="M 59.42 307.96249 
L 565.2 307.96249 
" clip-path="url(#pd97a828eab)" style="fill: none; stroke: #b0b0b0; stroke-width: 0.8; stroke-linecap: square"/>
     </g>
     <g id="line2d_50">
      <g>
       <use xlink:href="#m05fb1ab06f" x="59.42" y="307.96249" style="stroke: #000000; stroke-width: 0.8"/>
      </g>
     </g>
     <g id="text_29">
      <!-- 100 -->
      <g transform="translate(24.952813 311.761708)scale(0.1 -0.1)">
       <defs>
        <path id="DejaVuSans-2212" d="M 678 2272 
L 4684 2272 
L 4684 1741 
L 678 1741 
L 678 2272 
z
" transform="scale(0.015625)"/>
       </defs>
       <use xlink:href="#DejaVuSans-2212"/>
       <use xlink:href="#DejaVuSans-31" x="83.789062"/>
       <use xlink:href="#DejaVuSans-30" x="147.412109"/>
       <use xlink:href="#DejaVuSans-30" x="211.035156"/>
      </g>
     </g>
    </g>
    <g id="ytick_6">
     <g id="line2d_51">
      <path d="M 59.42 282.888692 
L 565.2 282.888692 
" clip-path="url(#pd97a828eab)" style="fill: none; stroke: #b0b0b0; stroke-width: 0.8; stroke-linecap: square"/>
     </g>
     <g id="line2d_52">
      <g>
       <use xlink:href="#m05fb1ab06f" x="59.42" y="282.888692" style="stroke: #000000; stroke-width: 0.8"/>
      </g>
     </g>
     <g id="text_30">
      <!-- 75 -->
      <g transform="translate(31.315313 286.687911)scale(0.1 -0.1)">
       <defs>
        <path id="DejaVuSans-37" d="M 525 4666 
L 3525 4666 
L 3525 4397 
L 1831 0 
L 1172 0 
L 2766 4134 
L 525 4134 
L 525 4666 
z
" transform="scale(0.015625)"/>
       </defs>
       <use xlink:href="#DejaVuSans-2212"/>
       <use xlink:href="#DejaVuSans-37" x="83.789062"/>
       <use xlink:href="#DejaVuSans-35" x="147.412109"/>
      </g>
     </g>
    </g>
    <g id="ytick_7">
     <g id="line2d_53">
      <path d="M 59.42 257.814894 
L 565.2 257.814894 
" clip-path="url(#pd97a828eab)" style="fill: none; stroke: #b0b0b0; stroke-width: 0.8; stroke-linecap: square"/>
     </g>
     <g id="line2d_54">
      <g>
       <use xlink:href="#m05fb1ab06f" x="59.42" y="257.814894" style="stroke: #000000; stroke-width: 0.8"/>
      </g>
     </g>
     <g id="text_31">
      <!-- 50 -->
      <g transform="translate(31.315313 261.614113)scale(0.1 -0.1)">
       <use xlink:href="#DejaVuSans-2212"/>
       <use xlink:href="#DejaVuSans-35" x="83.789062"/>
       <use xlink:href="#DejaVuSans-30" x="147.412109"/>
      </g>
     </g>
    </g>
    <g id="ytick_8">
     <g id="line2d_55">
      <path d="M 59.42 232.741097 
L 565.2 232.741097 
" clip-path="url(#pd97a828eab)" style="fill: none; stroke: #b0b0b0; stroke-width: 0.8; stroke-linecap: square"/>
     </g>
     <g id="line2d_56">
      <g>
       <use xlink:href="#m05fb1ab06f" x="59.42" y="232.741097" style="stroke: #000000; stroke-width: 0.8"/>
      </g>
     </g>
     <g id="text_32">
      <!-- 25 -->
      <g transform="translate(31.315313 236.540315)scale(0.1 -0.1)">
       <use xlink:href="#DejaVuSans-2212"/>
       <use xlink:href="#DejaVuSans-32" x="83.789062"/>
       <use xlink:href="#DejaVuSans-35" x="147.412109"/>
      </g>
     </g>
    </g>
    <g id="ytick_9">
     <g id="line2d_57">
      <path d="M 59.42 207.667299 
L 565.2 207.667299 
" clip-path="url(#pd97a828eab)" style="fill: none; stroke: #b0b0b0; stroke-width: 0.8; stroke-linecap: square"/>
     </g>
     <g id="line2d_58">
      <g>
       <use xlink:href="#m05fb1ab06f" x="59.42" y="207.667299" style="stroke: #000000; stroke-width: 0.8"/>
      </g>
     </g>
     <g id="text_33">
      <!-- 0 -->
      <g transform="translate(46.0575 211.466518)scale(0.1 -0.1)">
       <use xlink:href="#DejaVuSans-30"/>
      </g>
     </g>
    </g>
    <g id="text_34">
     <!-- wall distance [mm] -->
     <g transform="translate(18.873125 306.978281)rotate(-90)scale(0.1 -0.1)">
      <defs>
       <path id="DejaVuSans-64" d="M 2906 2969 
L 2906 4863 
L 3481 4863 
L 3481 0 
L 2906 0 
L 2906 525 
Q 2725 213 2448 61 
Q 2172 -91 1784 -91 
Q 1150 -91 751 415 
Q 353 922 353 1747 
Q 353 2572 751 3078 
Q 1150 3584 1784 3584 
Q 2172 3584 2448 3432 
Q 2725 3281 2906 2969 
z
M 947 1747 
Q 947 1113 1208 752 
Q 1469 391 1925 391 
Q 2381 391 2643 752 
Q 2906 1113 2906 1747 
Q 2906 2381 2643 2742 
Q 2381 3103 1925 3103 
Q 1469 3103 1208 2742 
Q 947 2381 947 1747 
z
" transform="scale(0.015625)"/>
       <path id="DejaVuSans-69" d="M 603 3500 
L 1178 3500 
L 1178 0 
L 603 0 
L 603 3500 
z
M 603 4863 
L 1178 4863 
L 1178 4134 
L 603 4134 
L 603 4863 
z
" transform="scale(0.015625)"/>
       <path id="DejaVuSans-73" d="M 2834 3397 
L 2834 2853 
Q 2591 2978 2328 3040 
Q 2066 3103 1784 3103 
Q 1356 3103 1142 2972 
Q 928 2841 928 2578 
Q 928 2378 1081 2264 
Q 1234 2150 1697 2047 
L 1894 2003 
Q 2506 1872 2764 1633 
Q 3022 1394 3022 966 
Q 3022 478 2636 193 
Q 2250 -91 1575 -91 
Q 1294 -91 989 -36 
Q 684 19 347 128 
L 347 722 
Q 666 556 975 473 
Q 1284 391 1588 391 
Q 1994 391 2212 530 
Q 2431 669 2431 922 
Q 2431 1156 2273 1281 
Q 2116 1406 1581 1522 
L 1381 1569 
Q 847 1681 609 1914 
Q 372 2147 372 2553 
Q 372 3047 722 3315 
Q 1072 3584 1716 3584 
Q 2034 3584 2315 3537 
Q 2597 3491 2834 3397 
z
" transform="scale(0.015625)"/>
       <path id="DejaVuSans-6e" d="M 3513 2113 
L 3513 0 
L 2938 0 
L 2938 2094 
Q 2938 2591 2744 2837 
Q 2550 3084 2163 3084 
Q 1697 3084 1428 2787 
Q 1159 2491 1159 1978 
L 1159 0 
L 581 0 
L 581 3500 
L 1159 3500 
L 1159 2956 
Q 1366 3272 1645 3428 
Q 1925 3584 2291 3584 
Q 2894 3584 3203 3211 
Q 3513 2838 3513 2113 
z
" transform="scale(0.015625)"/>
      </defs>
      <use xlink:href="#DejaVuSans-77"/>
      <use xlink:href="#DejaVuSans-61" x="81.787109"/>
      <use xlink:href="#DejaVuSans-6c" x="143.066406"/>
      <use xlink:href="#DejaVuSans-6c" x="170.849609"/>
      <use xlink:href="#DejaVuSans-20" x="198.632812"/>
      <use xlink:href="#DejaVuSans-64" x="230.419922"/>
      <use xlink:href="#DejaVuSans-69" x="293.896484"/>
      <use xlink:href="#DejaVuSans-73" x="321.679688"/>
      <use xlink:href="#DejaVuSans-74" x="373.779297"/>
      <use xlink:href="#DejaVuSans-61" x="412.988281"/>
      <use xlink:href="#DejaVuSans-6e" x="474.267578"/>
      <use xlink:href="#DejaVuSans-63" x="537.646484"/>
      <use xlink:href="#DejaVuSans-65" x="592.626953"/>
      <use xlink:href="#DejaVuSans-20" x="654.150391"/>
      <use xlink:href="#DejaVuSans-5b" x="685.9375"/>
      <use xlink:href="#DejaVuSans-6d" x="724.951172"/>
      <use xlink:href="#DejaVuSans-6d" x="822.363281"/>
      <use xlink:href="#DejaVuSans-5d" x="919.775391"/>
     </g>
    </g>
   </g>
   <g id="line2d_59">
    <path d="M 82.41 205.670422 
L 82.410409 205.637324 
L 82.411379 206.046529 
L 82.436158 205.620274 
L 82.498282 205.653371 
L 82.707976 205.687472 
L 82.818711 205.637324 
L 83.031624 206.098682 
L 83.116304 205.926174 
L 83.307887 206.168889 
L 83.531529 205.687472 
L 84.417793 205.77172 
L 84.793297 205.926174 
L 84.997652 206.029478 
L 85.213503 205.943224 
L 85.678412 206.098682 
L 85.928747 205.960275 
L 86.463903 206.185939 
L 90.225323 206.889008 
L 91.058072 207.18869 
L 93.343022 207.000536 
L 93.834753 206.963227 
L 94.337978 207.037946 
L 94.851422 206.851999 
L 99.984578 206.815191 
L 100.610417 206.686913 
L 101.874867 206.760029 
L 103.190406 206.596146 
L 103.854561 206.741675 
L 105.208417 206.274199 
L 105.898117 206.398565 
L 106.587817 206.309302 
L 108.708006 206.505881 
L 110.879283 206.398565 
L 111.6073 207.131923 
L 112.348089 206.133785 
L 114.583228 205.977325 
L 115.336789 205.909124 
L 116.09035 205.687472 
L 116.843911 205.83992 
L 117.610244 205.687472 
L 118.376578 205.83992 
L 121.429139 205.653371 
L 123.728139 205.637324 
L 124.494472 205.519979 
L 126.793472 205.637324 
L 127.559806 205.502929 
L 131.391472 205.420687 
L 132.157806 205.670422 
L 132.924139 205.755672 
L 133.690472 205.653371 
L 134.456806 205.943224 
L 135.223139 205.436734 
L 138.288472 205.403636 
L 143.652806 205.670422 
L 144.419139 205.909124 
L 145.185472 205.721572 
L 145.951806 205.874021 
L 146.718139 205.78877 
L 148.250806 205.943224 
L 151.316139 205.977325 
L 152.082472 206.098682 
L 152.848806 206.434671 
L 154.381472 206.380512 
L 155.147806 206.741675 
L 155.914139 206.309302 
L 156.680472 206.203992 
L 158.979472 206.523934 
L 159.745806 206.778383 
L 161.278472 207.113068 
L 164.343806 208.736446 
L 165.876472 210.157628 
L 168.175472 213.543594 
L 168.941806 214.879526 
L 169.708139 216.563482 
L 170.474472 218.820124 
L 171.240806 221.498006 
L 172.773472 229.060263 
L 173.539806 233.854373 
L 174.306139 241.557044 
L 175.072472 255.768872 
L 175.838806 291.654492 
L 267.734944 291.654492 
L 268.501278 253.542319 
L 269.267611 242.098638 
L 270.033944 238.879162 
L 272.332944 227.425451 
L 274.631944 219.893283 
L 275.398278 217.917467 
L 277.697278 213.481411 
L 278.463611 212.191615 
L 280.762611 209.46158 
L 282.295278 208.152126 
L 283.827944 207.360295 
L 286.126944 206.889008 
L 286.893278 207.094312 
L 287.659611 206.451721 
L 288.425944 206.239095 
L 289.192278 206.327355 
L 290.724944 206.257148 
L 291.491278 206.398565 
L 292.257611 206.327355 
L 293.023944 206.451721 
L 293.790278 206.345408 
L 294.556611 206.434671 
L 295.322944 206.327355 
L 296.855611 206.327355 
L 297.621944 206.705167 
L 298.388278 206.889008 
L 299.154611 206.796737 
L 299.920944 206.833545 
L 300.687278 207.495393 
L 301.453611 206.505881 
L 307.584278 206.578093 
L 309.116944 206.541987 
L 310.649611 206.889008 
L 312.948611 206.833545 
L 313.714944 207.094312 
L 314.481278 206.505881 
L 319.079278 206.505881 
L 322.144611 206.505881 
L 322.910944 206.778383 
L 323.677278 207.456679 
L 324.443611 206.851999 
L 325.209944 206.833545 
L 325.976278 206.56004 
L 328.275278 206.345408 
L 329.041611 206.469774 
L 329.807944 206.451721 
L 330.574278 206.274199 
L 332.106944 206.380512 
L 332.873278 206.451721 
L 333.639611 206.380512 
L 334.405944 206.833545 
L 336.704944 206.778383 
L 337.471278 207.379552 
L 338.237611 206.345408 
L 344.368278 206.469774 
L 345.900944 206.796737 
L 346.667278 206.944672 
L 347.433611 206.833545 
L 348.966278 206.981881 
L 349.732611 206.505881 
L 350.498944 206.596146 
L 352.797944 206.505881 
L 353.564278 206.614199 
L 355.863278 206.66866 
L 356.629611 207.113068 
L 357.395944 207.264714 
L 358.162278 207.113068 
L 358.928611 207.612377 
L 359.694944 207.037946 
L 360.461278 206.723421 
L 365.825611 206.686913 
L 366.591944 206.815191 
L 368.124611 207.264714 
L 368.890944 207.019191 
L 369.657278 207.056702 
L 371.189944 206.505881 
L 371.956278 206.614199 
L 373.488944 206.541987 
L 376.554278 206.505881 
L 377.320611 206.981881 
L 378.086944 207.094312 
L 378.853278 207.056702 
L 379.619611 207.245658 
L 381.152278 206.541987 
L 382.684944 206.632252 
L 385.750278 206.907563 
L 388.815611 208.316409 
L 391.880944 209.416447 
L 392.647278 210.015209 
L 393.413611 210.767423 
L 395.712611 214.113271 
L 396.478944 216.178349 
L 398.777944 223.614234 
L 400.310611 230.935783 
L 401.076944 233.563517 
L 401.843278 241.286247 
L 402.609611 251.64674 
L 403.375944 291.654492 
L 480.009278 291.654492 
L 480.775611 268.466244 
L 482.308278 255.768872 
L 483.074611 254.244385 
L 483.840944 291.654492 
L 487.672611 291.654492 
L 488.438944 236.482107 
L 489.205278 234.937561 
L 490.737944 231.176492 
L 491.504278 230.474425 
L 492.270611 241.827841 
L 493.036944 241.557044 
L 493.803278 236.853199 
L 494.569611 234.937561 
L 495.335944 233.413074 
L 496.102278 222.952286 
L 496.868611 221.61836 
L 499.167611 218.780006 
L 499.933944 223.413644 
L 500.700278 222.149924 
L 501.466611 221.106854 
L 502.999278 220.144021 
L 503.765611 215.01693 
L 504.531944 214.709024 
L 505.298278 214.573626 
L 506.830944 214.709024 
L 507.597278 219.833105 
L 509.129944 221.678537 
L 509.896278 222.952286 
L 510.662611 225.810699 
L 511.428944 219.592397 
L 512.195278 221.327504 
L 512.833889 223.614234 
L 513.600222 225.890935 
L 514.366556 228.859673 
L 515.132889 291.654492 
L 517.942778 291.654492 
L 518.581389 249.490393 
L 519.347722 255.768872 
L 519.986333 268.466244 
L 520.624944 268.466244 
L 521.263556 282.678072 
L 522.029889 291.654492 
L 524.584333 291.654492 
L 525.095222 260.62316 
L 525.733833 256.601322 
L 526.372444 255.768872 
L 526.883333 256.601322 
L 527.521944 252.248511 
L 528.032833 291.654492 
L 530.204111 291.654492 
L 530.715 247.213693 
L 531.225889 241.286247 
L 531.736778 240.273265 
L 532.119944 241.025479 
L 532.630833 241.025479 
L 533.014 291.654492 
L 534.674389 291.654492 
L 535.057556 236.482107 
L 535.440722 235.268535 
L 535.823889 235.268535 
L 536.207056 233.563517 
L 536.590222 236.301576 
L 536.845667 291.654492 
L 538.122889 291.654492 
L 538.378333 238.237273 
L 538.633778 234.155259 
L 538.889222 233.854373 
L 539.144667 231.176492 
L 539.400111 235.439037 
L 539.527833 291.654492 
L 540.294167 291.654492 
L 540.677333 232.580624 
L 540.805056 232.319857 
L 540.932778 229.481503 
L 541.0605 234.305702 
L 541.188222 291.654492 
L 541.571389 291.654492 
L 541.699111 230.815429 
L 541.826833 231.547584 
L 541.826833 228.859673 
L 541.954556 233.132248 
L 541.954556 291.654492 
L 541.954556 291.654492 
L 542.082278 291.654492 
L 542.082278 291.654492 
L 542.082278 229.581798 
L 542.21 229.802447 
L 542.21 223.614234 
L 542.21 291.654492 
L 542.21 227.425451 
" clip-path="url(#pd97a828eab)" style="fill: none; stroke: #1f77b4; stroke-width: 2; stroke-linecap: square"/>
   </g>
   <g id="line2d_60">
    <path d="M 82.41 312.174888 
L 446.290611 312.174888 
L 447.056944 278.95712 
L 447.823278 282.357127 
L 448.589611 275.486907 
L 449.355944 276.269209 
L 450.122278 276.269209 
L 450.888611 312.174888 
L 454.720278 312.174888 
L 455.486611 265.076266 
L 456.252944 264.414318 
L 457.019278 266.520517 
L 457.785611 262.328178 
L 458.551944 262.057381 
L 459.318278 312.174888 
L 462.383611 312.174888 
L 463.149944 269.99073 
L 463.916278 257.363566 
L 464.682611 257.935248 
L 465.448944 257.173005 
L 466.215278 257.935248 
L 466.981611 255.447928 
L 467.747944 312.174888 
L 470.813278 312.174888 
L 471.579611 259.389529 
L 472.345944 252.298659 
L 473.112278 251.205441 
L 475.411278 250.974762 
L 476.177611 312.174888 
L 479.242944 312.174888 
L 480.009278 251.095116 
L 480.775611 247.835523 
L 481.541944 247.654991 
L 482.308278 246.64201 
L 483.074611 246.311036 
L 483.840944 261.786584 
L 484.607278 297.932971 
L 485.373611 291.323518 
L 486.139944 277.111689 
L 486.906278 274.052686 
L 487.672611 274.744722 
L 488.438944 246.391272 
L 489.205278 243.462652 
L 489.971611 243.081531 
L 490.737944 242.89097 
L 491.504278 242.008372 
L 492.270611 256.992474 
L 493.036944 261.275078 
L 493.803278 259.610178 
L 495.335944 257.935248 
L 496.102278 241.557044 
L 496.868611 239.611317 
L 497.634944 239.13993 
L 498.401278 239.089782 
L 499.167611 238.387716 
L 499.933944 250.864438 
L 500.700278 251.205441 
L 501.466611 251.095116 
L 502.232944 249.98184 
L 502.999278 249.36001 
L 503.765611 237.625472 
L 504.531944 235.940513 
L 505.298278 235.489185 
L 506.064611 235.489185 
L 506.830944 235.699805 
L 507.597278 245.027257 
L 508.363611 245.237877 
L 509.129944 244.315162 
L 509.896278 243.984187 
L 510.662611 243.141708 
L 511.428944 234.175318 
L 512.195278 232.951716 
L 512.833889 232.500388 
L 513.600222 232.179443 
L 514.366556 231.527525 
L 515.132889 239.611317 
L 515.7715 239.370609 
L 516.537833 238.909251 
L 517.176444 238.257332 
L 517.942778 237.745827 
L 518.581389 229.922802 
L 519.347722 229.852595 
L 520.624944 229.13047 
L 521.263556 228.859673 
L 522.029889 234.907473 
L 524.584333 233.001864 
L 525.095222 226.512765 
L 525.733833 227.024271 
L 526.372444 226.272057 
L 527.521944 225.56999 
L 528.032833 230.013067 
L 530.204111 228.598905 
L 530.715 223.192994 
L 531.225889 223.644323 
L 531.736778 222.982374 
L 532.630833 222.44078 
L 533.014 226.362322 
L 533.524889 225.489754 
L 534.674389 224.416596 
L 535.057556 220.083843 
L 535.440722 220.474995 
L 535.823889 220.043725 
L 536.207056 219.782958 
L 536.590222 219.31157 
L 536.845667 221.969393 
L 537.867444 220.805969 
L 538.122889 220.404788 
L 538.378333 217.095047 
L 538.633778 217.128144 
L 539.400111 215.951682 
L 539.527833 218.057881 
L 540.166444 217.027849 
L 540.294167 216.562479 
L 540.549611 214.056102 
L 540.677333 214.142356 
L 540.932778 213.639877 
L 541.0605 213.349021 
L 541.188222 214.866488 
L 541.571389 213.891618 
L 541.699111 212.08129 
L 541.699111 212.420288 
L 541.954556 211.928841 
L 541.954556 212.6961 
L 541.954556 212.495509 
L 542.082278 212.443356 
L 542.082278 210.83763 
L 542.082278 211.177631 
L 542.21 210.889783 
L 542.21 208.644475 
L 542.21 211.342115 
L 542.21 209.841699 
" clip-path="url(#pd97a828eab)" style="fill: none; stroke: #ff7f0e; stroke-width: 2; stroke-linecap: square"/>
   </g>
   <g id="line2d_61">
    <path d="M 82.41 312.676364 
L 464.682611 312.676364 
L 465.448944 303.689915 
L 466.215278 312.676364 
L 470.813278 312.676364 
L 471.579611 270.010789 
L 473.112278 263.983048 
L 473.878611 262.558857 
L 474.644944 262.558857 
L 475.411278 312.676364 
L 479.242944 312.676364 
L 480.009278 255.788931 
L 481.541944 254.57536 
L 482.308278 253.32167 
L 483.074611 252.940548 
L 483.840944 312.676364 
L 487.672611 312.676364 
L 488.438944 248.076231 
L 489.205278 247.735228 
L 489.971611 247.223722 
L 490.737944 247.564726 
L 491.504278 245.970032 
L 492.270611 277.613165 
L 493.036944 275.256228 
L 493.803278 269.539402 
L 494.569611 267.413144 
L 495.335944 266.650901 
L 496.102278 243.402475 
L 496.868611 242.981236 
L 497.634944 242.289199 
L 498.401278 242.570025 
L 499.167611 241.737575 
L 499.933944 256.962385 
L 500.700278 255.949404 
L 501.466611 253.73288 
L 502.232944 252.940548 
L 502.999278 252.308688 
L 503.765611 239.601288 
L 504.531944 238.678572 
L 505.298278 238.217214 
L 506.064611 238.006594 
L 506.830944 237.575325 
L 507.597278 247.06325 
L 508.363611 246.270918 
L 509.129944 245.679176 
L 509.896278 245.318113 
L 510.662611 244.626077 
L 511.428944 234.736971 
L 514.366556 233.031953 
L 515.132889 240.253206 
L 515.7715 239.831967 
L 517.942778 237.926358 
L 518.581389 230.79537 
L 519.986333 229.722211 
L 520.624944 229.471473 
L 521.263556 231.387111 
L 522.029889 234.556439 
L 523.307111 233.653783 
L 523.945722 233.031953 
L 524.584333 232.580624 
L 525.095222 226.923975 
L 525.733833 226.984153 
L 526.883333 226.041378 
L 527.521944 228.959968 
L 528.032833 229.551709 
L 528.671444 229.140499 
L 529.693222 228.147577 
L 530.204111 227.87678 
L 530.715 223.564087 
L 531.225889 223.273231 
L 532.119944 222.581194 
L 532.630833 224.717481 
L 533.014 224.938131 
L 533.524889 224.687393 
L 534.674389 223.433703 
L 535.057556 220.224257 
L 535.440722 219.792987 
L 536.207056 219.371748 
L 536.590222 221.046677 
L 536.845667 220.916294 
L 537.228833 220.56526 
L 537.484278 220.16408 
L 537.867444 219.853165 
L 538.122889 219.421895 
L 538.378333 216.847318 
L 539.144667 216.05298 
L 539.400111 217.198351 
L 539.527833 217.17428 
L 540.038722 216.428084 
L 540.294167 216.015871 
L 540.677333 213.516514 
L 540.932778 213.161469 
L 541.0605 214.026014 
L 541.315944 213.700055 
L 541.571389 212.978932 
L 541.826833 211.72123 
L 541.954556 212.335037 
L 541.954556 211.908782 
L 542.082278 211.859638 
L 542.082278 210.760403 
L 542.21 210.574856 
L 542.21 211.125477 
L 542.21 208.888894 
L 542.21 209.806595 
" clip-path="url(#pd97a828eab)" style="fill: none; stroke: #2ca02c; stroke-width: 2; stroke-linecap: square"/>
   </g>
   <g id="line2d_62">
    <path d="M 82.41 209.161697 
L 82.410409 209.059396 
L 82.411379 208.685295 
L 82.498282 209.289072 
L 82.522242 209.445533 
L 82.550239 208.858806 
L 82.619209 209.161697 
L 82.660974 209.263998 
L 82.818711 208.934027 
L 82.883083 209.445533 
L 82.953969 208.833732 
L 83.031624 208.883879 
L 83.208264 209.393379 
L 83.415557 208.759513 
L 83.656058 209.602996 
L 83.932449 208.63605 
L 84.245368 209.445533 
L 84.417793 208.562734 
L 84.600436 208.783584 
L 84.997652 208.611578 
L 85.213503 208.48982 
L 85.440848 208.63605 
L 85.678412 208.63605 
L 85.928747 208.465649 
L 86.190578 208.63605 
L 86.463903 208.393235 
L 86.747447 208.417306 
L 87.043762 208.225943 
L 87.351573 208.73444 
L 87.670878 208.417306 
L 88.000402 208.393235 
L 88.342697 207.874609 
L 88.696488 208.084226 
L 89.061773 207.874609 
L 89.437277 208.225943 
L 89.825552 207.828473 
L 91.058072 208.037388 
L 91.938078 207.532502 
L 92.395323 207.690989 
L 93.834753 207.577565 
L 94.337978 207.874609 
L 94.851422 207.509936 
L 95.373806 207.874609 
L 95.910239 207.828473 
L 96.459444 207.668227 
L 98.183694 207.736643 
L 98.771217 207.645505 
L 99.984578 207.874609 
L 100.610417 207.897677 
L 101.236256 207.782438 
L 101.874867 207.851441 
L 102.52625 208.037388 
L 103.190406 207.874609 
L 103.854561 207.990651 
L 104.518717 208.297353 
L 105.208417 208.225943 
L 105.898117 207.645505 
L 106.587817 208.178503 
L 107.290289 208.273483 
L 107.992761 208.514091 
L 108.708006 208.514091 
L 109.42325 208.369165 
L 110.151267 208.63605 
L 114.583228 208.709366 
L 115.336789 209.059396 
L 116.09035 209.059396 
L 116.843911 208.858806 
L 117.610244 209.161697 
L 118.376578 209.08447 
L 119.130139 209.186771 
L 119.896472 208.883879 
L 120.662806 209.161697 
L 121.429139 208.959101 
L 122.195472 209.445533 
L 122.961806 209.523763 
L 124.494472 209.186771 
L 125.260806 209.059396 
L 126.027139 209.186771 
L 126.793472 209.186771 
L 127.559806 209.445533 
L 129.858806 209.263998 
L 130.625139 209.523763 
L 131.391472 209.289072 
L 133.690472 209.367302 
L 134.456806 209.682229 
L 135.223139 209.289072 
L 135.989472 209.393379 
L 137.522139 209.08447 
L 138.288472 209.869781 
L 139.054806 208.883879 
L 139.821139 209.08447 
L 140.587472 208.685295 
L 142.120139 208.833732 
L 142.886472 208.685295 
L 143.652806 208.759513 
L 144.419139 208.685295 
L 145.185472 208.73444 
L 145.951806 208.514091 
L 146.718139 208.808658 
L 147.484472 208.883879 
L 148.250806 208.514091 
L 149.017139 208.63605 
L 149.783472 208.562734 
L 150.549806 208.783584 
L 151.316139 208.393235 
L 152.082472 208.63605 
L 155.147806 208.63605 
L 156.680472 208.783584 
L 157.446806 208.63605 
L 158.213139 209.161697 
L 158.979472 208.783584 
L 159.745806 208.883879 
L 160.512139 209.186771 
L 161.278472 209.315149 
L 163.577472 210.114501 
L 165.876472 211.505596 
L 166.642806 212.293916 
L 168.941806 215.117226 
L 171.240806 219.451984 
L 172.007139 221.929275 
L 172.773472 224.837835 
L 174.306139 232.901569 
L 175.838806 253.883323 
L 176.605139 289.768942 
L 272.332944 289.768942 
L 273.099278 259.971241 
L 273.865611 244.916933 
L 275.398278 232.901569 
L 277.697278 223.684441 
L 279.996278 218.108028 
L 280.762611 216.706904 
L 281.528944 215.78118 
L 283.061611 213.414213 
L 283.827944 212.656985 
L 284.594278 212.19663 
L 285.360611 212.261822 
L 286.126944 211.232793 
L 287.659611 210.907836 
L 288.425944 210.647069 
L 289.192278 210.087422 
L 289.958611 210.032259 
L 290.724944 210.169664 
L 294.556611 209.9781 
L 295.322944 210.00518 
L 296.089278 210.196744 
L 296.855611 209.708306 
L 297.621944 209.896861 
L 299.154611 209.896861 
L 299.920944 211.025182 
L 300.687278 209.842702 
L 301.453611 209.682229 
L 302.219944 210.059339 
L 302.986278 209.445533 
L 303.752611 209.445533 
L 304.518944 209.575916 
L 305.285278 209.445533 
L 306.051611 209.471609 
L 306.817944 209.186771 
L 309.116944 209.602996 
L 309.883278 209.896861 
L 311.415944 209.393379 
L 312.182278 209.762465 
L 312.948611 209.445533 
L 313.714944 209.471609 
L 315.247611 209.315149 
L 316.013944 209.289072 
L 316.780278 209.523763 
L 317.546611 209.341226 
L 319.845611 209.367302 
L 320.611944 209.161697 
L 321.378278 209.575916 
L 322.144611 209.161697 
L 323.677278 209.788542 
L 324.443611 209.445533 
L 325.976278 209.575916 
L 326.742611 209.186771 
L 327.508944 209.445533 
L 328.275278 209.869781 
L 329.041611 209.212848 
L 331.340611 209.289072 
L 332.873278 209.735386 
L 333.639611 209.186771 
L 334.405944 209.523763 
L 335.172278 209.367302 
L 336.704944 209.445533 
L 338.237611 209.367302 
L 339.003944 209.161697 
L 339.770278 209.471609 
L 340.536611 209.471609 
L 341.302944 209.315149 
L 342.069278 208.934027 
L 342.835611 209.08447 
L 343.601944 209.95102 
L 344.368278 209.08447 
L 345.134611 209.263998 
L 347.433611 209.315149 
L 348.199944 209.110547 
L 349.732611 209.13562 
L 350.498944 208.858806 
L 351.265278 209.445533 
L 352.031611 208.783584 
L 352.797944 208.808658 
L 353.564278 208.660622 
L 355.863278 208.587106 
L 356.629611 209.08447 
L 357.395944 209.186771 
L 358.162278 208.833732 
L 358.928611 208.759513 
L 359.694944 209.815622 
L 360.461278 208.587106 
L 362.760278 208.63605 
L 363.526611 208.465649 
L 365.825611 208.587106 
L 367.358278 209.08447 
L 368.124611 208.808658 
L 368.890944 209.186771 
L 369.657278 209.110547 
L 371.189944 208.562734 
L 371.956278 208.63605 
L 372.722611 208.908953 
L 373.488944 208.908953 
L 374.255278 209.08447 
L 375.021611 208.562734 
L 376.554278 208.611578 
L 377.320611 209.315149 
L 378.853278 209.445533 
L 379.619611 209.059396 
L 380.385944 209.445533 
L 381.152278 208.883879 
L 382.684944 208.759513 
L 383.451278 209.289072 
L 384.217611 208.759513 
L 384.983944 209.289072 
L 385.750278 209.161697 
L 387.282944 209.735386 
L 388.049278 209.497686 
L 388.815611 209.682229 
L 389.581944 209.602996 
L 390.348278 209.9781 
L 391.114611 209.445533 
L 391.880944 209.523763 
L 394.179944 210.448484 
L 394.946278 211.025182 
L 395.712611 211.752322 
L 399.544278 216.52537 
L 400.310611 218.519238 
L 401.076944 218.729858 
L 401.843278 220.144021 
L 402.609611 222.139895 
L 403.375944 225.188869 
L 404.142278 228.6992 
L 404.908611 233.062041 
L 405.674944 239.400697 
L 406.441278 289.768942 
L 488.438944 289.768942 
L 489.205278 264.58482 
L 489.971611 257.614304 
L 490.737944 253.883323 
L 491.504278 249.189508 
L 492.270611 289.768942 
L 495.335944 289.768942 
L 496.102278 234.064993 
L 496.868611 232.580624 
L 497.634944 230.434307 
L 498.401278 229.912772 
L 499.167611 228.358197 
L 499.933944 238.879162 
L 500.700278 237.906299 
L 501.466611 233.382986 
L 502.232944 230.835488 
L 502.999278 228.939909 
L 503.765611 220.56526 
L 504.531944 219.672633 
L 505.298278 218.258471 
L 506.064611 217.220416 
L 506.830944 216.480237 
L 507.597278 220.695644 
L 508.363611 220.023666 
L 509.129944 219.672633 
L 509.896278 218.840183 
L 510.662611 219.000655 
L 511.428944 213.920704 
L 512.195278 214.256693 
L 512.833889 214.10625 
L 513.600222 214.679939 
L 514.366556 215.527433 
L 515.132889 221.859068 
L 515.7715 224.085622 
L 516.537833 226.191821 
L 517.942778 235.950543 
L 518.581389 226.282086 
L 519.347722 228.137547 
L 519.986333 232.901569 
L 520.624944 234.96765 
L 521.263556 239.400697 
L 522.029889 289.768942 
L 524.584333 289.768942 
L 525.095222 261.335255 
L 525.733833 266.580694 
L 526.372444 268.937631 
L 526.883333 257.614304 
L 527.521944 261.335255 
L 528.032833 289.768942 
L 530.204111 289.768942 
L 530.715 253.883323 
L 531.225889 246.190682 
L 531.736778 253.10102 
L 532.119944 243.753508 
L 532.630833 242.690379 
L 533.014 289.768942 
L 534.674389 289.768942 
L 535.057556 236.993613 
L 535.440722 236.993613 
L 535.823889 239.13993 
L 536.207056 236.151133 
L 536.590222 235.158211 
L 536.845667 289.768942 
L 538.122889 289.768942 
L 538.378333 234.245524 
L 538.633778 233.894491 
L 538.889222 233.062041 
L 539.144667 235.549362 
L 539.400111 233.062041 
L 539.527833 289.768942 
L 540.294167 289.768942 
L 540.549611 232.901569 
L 540.805056 234.064993 
L 540.932778 233.222513 
L 541.0605 233.222513 
L 541.188222 289.768942 
L 541.571389 289.768942 
L 541.699111 231.537554 
L 541.699111 231.677968 
L 541.826833 234.606587 
L 541.826833 232.580624 
L 541.954556 232.580624 
L 541.954556 289.768942 
L 541.954556 289.768942 
L 542.082278 289.768942 
L 542.082278 289.768942 
L 542.082278 230.695075 
L 542.082278 231.387111 
L 542.21 233.382986 
L 542.21 231.82841 
L 542.21 289.768942 
L 542.21 228.358197 
L 542.21 230.17354 
" clip-path="url(#pd97a828eab)" style="fill: none; stroke: #d62728; stroke-width: 2; stroke-linecap: square"/>
   </g>
   <g id="patch_9">
    <path d="M 59.42 318.04 
L 59.42 200.04 
" style="fill: none; stroke: #000000; stroke-width: 0.8; stroke-linejoin: miter; stroke-linecap: square"/>
   </g>
   <g id="patch_10">
    <path d="M 565.2 318.04 
L 565.2 200.04 
" style="fill: none; stroke: #000000; stroke-width: 0.8; stroke-linejoin: miter; stroke-linecap: square"/>
   </g>
   <g id="patch_11">
    <path d="M 59.42 318.04 
L 565.2 318.04 
" style="fill: none; stroke: #000000; stroke-width: 0.8; stroke-linejoin: miter; stroke-linecap: square"/>
   </g>
   <g id="patch_12">
    <path d="M 59.42 200.04 
L 565.2 200.04 
" style="fill: none; stroke: #000000; stroke-width: 0.8; stroke-linejoin: miter; stroke-linecap: square"/>
   </g>
   <g id="text_35">
    <!-- Wall Distance -->
    <g transform="translate(271.6075 194.04)scale(0.12 -0.12)">
     <defs>
      <path id="DejaVuSans-57" d="M 213 4666 
L 850 4666 
L 1831 722 
L 2809 4666 
L 3519 4666 
L 4500 722 
L 5478 4666 
L 6119 4666 
L 4947 0 
L 4153 0 
L 3169 4050 
L 2175 0 
L 1381 0 
L 213 4666 
z
" transform="scale(0.015625)"/>
      <path id="DejaVuSans-44" d="M 1259 4147 
L 1259 519 
L 2022 519 
Q 2988 519 3436 956 
Q 3884 1394 3884 2338 
Q 3884 3275 3436 3711 
Q 2988 4147 2022 4147 
L 1259 4147 
z
M 628 4666 
L 1925 4666 
Q 3281 4666 3915 4102 
Q 4550 3538 4550 2338 
Q 4550 1131 3912 565 
Q 3275 0 1925 0 
L 628 0 
L 628 4666 
z
" transform="scale(0.015625)"/>
     </defs>
     <use xlink:href="#DejaVuSans-57"/>
     <use xlink:href="#DejaVuSans-61" x="92.501953"/>
     <use xlink:href="#DejaVuSans-6c" x="153.78125"/>
     <use xlink:href="#DejaVuSans-6c" x="181.564453"/>
     <use xlink:href="#DejaVuSans-20" x="209.347656"/>
     <use xlink:href="#DejaVuSans-44" x="241.134766"/>
     <use xlink:href="#DejaVuSans-69" x="318.136719"/>
     <use xlink:href="#DejaVuSans-73" x="345.919922"/>
     <use xlink:href="#DejaVuSans-74" x="398.019531"/>
     <use xlink:href="#DejaVuSans-61" x="437.228516"/>
     <use xlink:href="#DejaVuSans-6e" x="498.507812"/>
     <use xlink:href="#DejaVuSans-63" x="561.886719"/>
     <use xlink:href="#DejaVuSans-65" x="616.867188"/>
    </g>
   </g>
   <g id="legend_2">
    <g id="patch_13">
     <path d="M 199.689687 267.879063 
L 424.930313 267.879063 
Q 426.930313 267.879063 426.930313 265.879063 
L 426.930313 252.200938 
Q 426.930313 250.200938 424.930313 250.200938 
L 199.689687 250.200938 
Q 197.689687 250.200938 197.689687 252.200938 
L 197.689687 265.879063 
Q 197.689687 267.879063 199.689687 267.879063 
z
" style="fill: #ffffff; opacity: 0.8; stroke: #cccccc; stroke-linejoin: miter"/>
    </g>
    <g id="line2d_63">
     <path d="M 201.689687 258.299375 
L 211.689687 258.299375 
L 221.689687 258.299375 
" style="fill: none; stroke: #1f77b4; stroke-width: 2; stroke-linecap: square"/>
    </g>
    <g id="text_36">
     <!-- SL -->
     <g transform="translate(229.689687 261.799375)scale(0.1 -0.1)">
      <use xlink:href="#DejaVuSans-53"/>
      <use xlink:href="#DejaVuSans-4c" x="63.476562"/>
     </g>
    </g>
    <g id="line2d_64">
     <path d="M 261.61 258.299375 
L 271.61 258.299375 
L 281.61 258.299375 
" style="fill: none; stroke: #ff7f0e; stroke-width: 2; stroke-linecap: square"/>
    </g>
    <g id="text_37">
     <!-- FL -->
     <g transform="translate(289.61 261.799375)scale(0.1 -0.1)">
      <use xlink:href="#DejaVuSans-46"/>
      <use xlink:href="#DejaVuSans-4c" x="57.519531"/>
     </g>
    </g>
    <g id="line2d_65">
     <path d="M 320.933437 258.299375 
L 330.933437 258.299375 
L 340.933437 258.299375 
" style="fill: none; stroke: #2ca02c; stroke-width: 2; stroke-linecap: square"/>
    </g>
    <g id="text_38">
     <!-- FR -->
     <g transform="translate(348.933437 261.799375)scale(0.1 -0.1)">
      <use xlink:href="#DejaVuSans-46"/>
      <use xlink:href="#DejaVuSans-52" x="57.519531"/>
     </g>
    </g>
    <g id="line2d_66">
     <path d="M 381.633438 258.299375 
L 391.633438 258.299375 
L 401.633438 258.299375 
" style="fill: none; stroke: #d62728; stroke-width: 2; stroke-linecap: square"/>
    </g>
    <g id="text_39">
     <!-- SR -->
     <g transform="translate(409.633438 261.799375)scale(0.1 -0.1)">
      <use xlink:href="#DejaVuSans-53"/>
      <use xlink:href="#DejaVuSans-52" x="63.476562"/>
     </g>
    </g>
   </g>
  </g>
 </g>
 <defs>
  <clipPath id="p659e123af1">
   <rect x="59.42" y="25.44" width="505.78" height="118"/>
  </clipPath>
  <clipPath id="pd97a828eab">
   <rect x="59.42" y="200.04" width="505.78" height="118"/>
  </clipPath>
 </defs>
</svg>
