<?xml version="1.0" encoding="utf-8" standalone="no"?>
<!DOCTYPE svg PUBLIC "-//W3C//DTD SVG 1.1//EN"
  "http://www.w3.org/Graphics/SVG/1.1/DTD/svg11.dtd">
<svg xmlns:xlink="http://www.w3.org/1999/xlink" width="460.8pt" height="345.6pt" viewBox="0 0 460.8 345.6" xmlns="http://www.w3.org/2000/svg" version="1.1">
 <metadata>
  <rdf:RDF xmlns:dc="http://purl.org/dc/elements/1.1/" xmlns:cc="http://creativecommons.org/ns#" xmlns:rdf="http://www.w3.org/1999/02/22-rdf-syntax-ns#">
   <cc:Work>
    <dc:type rdf:resource="http://purl.org/dc/dcmitype/StillImage"/>
    <dc:date>2022-01-15T23:47:11.135840</dc:date>
    <dc:format>image/svg+xml</dc:format>
    <dc:creator>
     <cc:Agent>
      <dc:title>Matplotlib v3.5.1, https://matplotlib.org/</dc:title>
     </cc:Agent>
    </dc:creator>
   </cc:Work>
  </rdf:RDF>
 </metadata>
 <defs>
  <style type="text/css">*{stroke-linejoin: round; stroke-linecap: butt}</style>
 </defs>
 <g id="figure_1">
  <g id="patch_1">
   <path d="M 0 345.6 
L 460.8 345.6 
L 460.8 0 
L 0 0 
z
" style="fill: #ffffff"/>
  </g>
  <g id="axes_1">
   <g id="patch_2">
    <path d="M 56.928125 161.67875 
L 450 161.67875 
L 450 48.331875 
L 56.928125 48.331875 
z
" style="fill: #ffffff"/>
   </g>
   <g id="matplotlib.axis_1">
    <g id="xtick_1">
     <g id="line2d_1">
      <path d="M 74.795028 161.67875 
L 74.795028 48.331875 
" clip-path="url(#p920e2bcfc8)" style="fill: none; stroke: #b0b0b0; stroke-width: 0.8; stroke-linecap: square"/>
     </g>
     <g id="line2d_2">
      <defs>
       <path id="m0994bd8af9" d="M 0 0 
L 0 3.5 
" style="stroke: #000000; stroke-width: 0.8"/>
      </defs>
      <g>
       <use xlink:href="#m0994bd8af9" x="74.795028" y="161.67875" style="stroke: #000000; stroke-width: 0.8"/>
      </g>
     </g>
    </g>
    <g id="xtick_2">
     <g id="line2d_3">
      <path d="M 124.425316 161.67875 
L 124.425316 48.331875 
" clip-path="url(#p920e2bcfc8)" style="fill: none; stroke: #b0b0b0; stroke-width: 0.8; stroke-linecap: square"/>
     </g>
     <g id="line2d_4">
      <g>
       <use xlink:href="#m0994bd8af9" x="124.425316" y="161.67875" style="stroke: #000000; stroke-width: 0.8"/>
      </g>
     </g>
    </g>
    <g id="xtick_3">
     <g id="line2d_5">
      <path d="M 174.055603 161.67875 
L 174.055603 48.331875 
" clip-path="url(#p920e2bcfc8)" style="fill: none; stroke: #b0b0b0; stroke-width: 0.8; stroke-linecap: square"/>
     </g>
     <g id="line2d_6">
      <g>
       <use xlink:href="#m0994bd8af9" x="174.055603" y="161.67875" style="stroke: #000000; stroke-width: 0.8"/>
      </g>
     </g>
    </g>
    <g id="xtick_4">
     <g id="line2d_7">
      <path d="M 223.68589 161.67875 
L 223.68589 48.331875 
" clip-path="url(#p920e2bcfc8)" style="fill: none; stroke: #b0b0b0; stroke-width: 0.8; stroke-linecap: square"/>
     </g>
     <g id="line2d_8">
      <g>
       <use xlink:href="#m0994bd8af9" x="223.68589" y="161.67875" style="stroke: #000000; stroke-width: 0.8"/>
      </g>
     </g>
    </g>
    <g id="xtick_5">
     <g id="line2d_9">
      <path d="M 273.316177 161.67875 
L 273.316177 48.331875 
" clip-path="url(#p920e2bcfc8)" style="fill: none; stroke: #b0b0b0; stroke-width: 0.8; stroke-linecap: square"/>
     </g>
     <g id="line2d_10">
      <g>
       <use xlink:href="#m0994bd8af9" x="273.316177" y="161.67875" style="stroke: #000000; stroke-width: 0.8"/>
      </g>
     </g>
    </g>
    <g id="xtick_6">
     <g id="line2d_11">
      <path d="M 322.946465 161.67875 
L 322.946465 48.331875 
" clip-path="url(#p920e2bcfc8)" style="fill: none; stroke: #b0b0b0; stroke-width: 0.8; stroke-linecap: square"/>
     </g>
     <g id="line2d_12">
      <g>
       <use xlink:href="#m0994bd8af9" x="322.946465" y="161.67875" style="stroke: #000000; stroke-width: 0.8"/>
      </g>
     </g>
    </g>
    <g id="xtick_7">
     <g id="line2d_13">
      <path d="M 372.576752 161.67875 
L 372.576752 48.331875 
" clip-path="url(#p920e2bcfc8)" style="fill: none; stroke: #b0b0b0; stroke-width: 0.8; stroke-linecap: square"/>
     </g>
     <g id="line2d_14">
      <g>
       <use xlink:href="#m0994bd8af9" x="372.576752" y="161.67875" style="stroke: #000000; stroke-width: 0.8"/>
      </g>
     </g>
    </g>
    <g id="xtick_8">
     <g id="line2d_15">
      <path d="M 422.207039 161.67875 
L 422.207039 48.331875 
" clip-path="url(#p920e2bcfc8)" style="fill: none; stroke: #b0b0b0; stroke-width: 0.8; stroke-linecap: square"/>
     </g>
     <g id="line2d_16">
      <g>
       <use xlink:href="#m0994bd8af9" x="422.207039" y="161.67875" style="stroke: #000000; stroke-width: 0.8"/>
      </g>
     </g>
    </g>
   </g>
   <g id="matplotlib.axis_2">
    <g id="ytick_1">
     <g id="line2d_17">
      <path d="M 56.928125 156.565769 
L 450 156.565769 
" clip-path="url(#p920e2bcfc8)" style="fill: none; stroke: #b0b0b0; stroke-width: 0.8; stroke-linecap: square"/>
     </g>
     <g id="line2d_18">
      <defs>
       <path id="m1ae81bc4ba" d="M 0 0 
L -3.5 0 
" style="stroke: #000000; stroke-width: 0.8"/>
      </defs>
      <g>
       <use xlink:href="#m1ae81bc4ba" x="56.928125" y="156.565769" style="stroke: #000000; stroke-width: 0.8"/>
      </g>
     </g>
     <g id="text_1">
      <!-- 0 -->
      <g transform="translate(43.565625 160.364988)scale(0.1 -0.1)">
       <defs>
        <path id="DejaVuSans-30" d="M 2034 4250 
Q 1547 4250 1301 3770 
Q 1056 3291 1056 2328 
Q 1056 1369 1301 889 
Q 1547 409 2034 409 
Q 2525 409 2770 889 
Q 3016 1369 3016 2328 
Q 3016 3291 2770 3770 
Q 2525 4250 2034 4250 
z
M 2034 4750 
Q 2819 4750 3233 4129 
Q 3647 3509 3647 2328 
Q 3647 1150 3233 529 
Q 2819 -91 2034 -91 
Q 1250 -91 836 529 
Q 422 1150 422 2328 
Q 422 3509 836 4129 
Q 1250 4750 2034 4750 
z
" transform="scale(0.015625)"/>
       </defs>
       <use xlink:href="#DejaVuSans-30"/>
      </g>
     </g>
    </g>
    <g id="ytick_2">
     <g id="line2d_19">
      <path d="M 56.928125 117.41584 
L 450 117.41584 
" clip-path="url(#p920e2bcfc8)" style="fill: none; stroke: #b0b0b0; stroke-width: 0.8; stroke-linecap: square"/>
     </g>
     <g id="line2d_20">
      <g>
       <use xlink:href="#m1ae81bc4ba" x="56.928125" y="117.41584" style="stroke: #000000; stroke-width: 0.8"/>
      </g>
     </g>
     <g id="text_2">
      <!-- 1000 -->
      <g transform="translate(24.478125 121.215059)scale(0.1 -0.1)">
       <defs>
        <path id="DejaVuSans-31" d="M 794 531 
L 1825 531 
L 1825 4091 
L 703 3866 
L 703 4441 
L 1819 4666 
L 2450 4666 
L 2450 531 
L 3481 531 
L 3481 0 
L 794 0 
L 794 531 
z
" transform="scale(0.015625)"/>
       </defs>
       <use xlink:href="#DejaVuSans-31"/>
       <use xlink:href="#DejaVuSans-30" x="63.623047"/>
       <use xlink:href="#DejaVuSans-30" x="127.246094"/>
       <use xlink:href="#DejaVuSans-30" x="190.869141"/>
      </g>
     </g>
    </g>
    <g id="ytick_3">
     <g id="line2d_21">
      <path d="M 56.928125 78.265911 
L 450 78.265911 
" clip-path="url(#p920e2bcfc8)" style="fill: none; stroke: #b0b0b0; stroke-width: 0.8; stroke-linecap: square"/>
     </g>
     <g id="line2d_22">
      <g>
       <use xlink:href="#m1ae81bc4ba" x="56.928125" y="78.265911" style="stroke: #000000; stroke-width: 0.8"/>
      </g>
     </g>
     <g id="text_3">
      <!-- 2000 -->
      <g transform="translate(24.478125 82.06513)scale(0.1 -0.1)">
       <defs>
        <path id="DejaVuSans-32" d="M 1228 531 
L 3431 531 
L 3431 0 
L 469 0 
L 469 531 
Q 828 903 1448 1529 
Q 2069 2156 2228 2338 
Q 2531 2678 2651 2914 
Q 2772 3150 2772 3378 
Q 2772 3750 2511 3984 
Q 2250 4219 1831 4219 
Q 1534 4219 1204 4116 
Q 875 4013 500 3803 
L 500 4441 
Q 881 4594 1212 4672 
Q 1544 4750 1819 4750 
Q 2544 4750 2975 4387 
Q 3406 4025 3406 3419 
Q 3406 3131 3298 2873 
Q 3191 2616 2906 2266 
Q 2828 2175 2409 1742 
Q 1991 1309 1228 531 
z
" transform="scale(0.015625)"/>
       </defs>
       <use xlink:href="#DejaVuSans-32"/>
       <use xlink:href="#DejaVuSans-30" x="63.623047"/>
       <use xlink:href="#DejaVuSans-30" x="127.246094"/>
       <use xlink:href="#DejaVuSans-30" x="190.869141"/>
      </g>
     </g>
    </g>
    <g id="text_4">
     <!-- reflector value -->
     <g transform="translate(18.398438 141.321719)rotate(-90)scale(0.1 -0.1)">
      <defs>
       <path id="DejaVuSans-72" d="M 2631 2963 
Q 2534 3019 2420 3045 
Q 2306 3072 2169 3072 
Q 1681 3072 1420 2755 
Q 1159 2438 1159 1844 
L 1159 0 
L 581 0 
L 581 3500 
L 1159 3500 
L 1159 2956 
Q 1341 3275 1631 3429 
Q 1922 3584 2338 3584 
Q 2397 3584 2469 3576 
Q 2541 3569 2628 3553 
L 2631 2963 
z
" transform="scale(0.015625)"/>
       <path id="DejaVuSans-65" d="M 3597 1894 
L 3597 1613 
L 953 1613 
Q 991 1019 1311 708 
Q 1631 397 2203 397 
Q 2534 397 2845 478 
Q 3156 559 3463 722 
L 3463 178 
Q 3153 47 2828 -22 
Q 2503 -91 2169 -91 
Q 1331 -91 842 396 
Q 353 884 353 1716 
Q 353 2575 817 3079 
Q 1281 3584 2069 3584 
Q 2775 3584 3186 3129 
Q 3597 2675 3597 1894 
z
M 3022 2063 
Q 3016 2534 2758 2815 
Q 2500 3097 2075 3097 
Q 1594 3097 1305 2825 
Q 1016 2553 972 2059 
L 3022 2063 
z
" transform="scale(0.015625)"/>
       <path id="DejaVuSans-66" d="M 2375 4863 
L 2375 4384 
L 1825 4384 
Q 1516 4384 1395 4259 
Q 1275 4134 1275 3809 
L 1275 3500 
L 2222 3500 
L 2222 3053 
L 1275 3053 
L 1275 0 
L 697 0 
L 697 3053 
L 147 3053 
L 147 3500 
L 697 3500 
L 697 3744 
Q 697 4328 969 4595 
Q 1241 4863 1831 4863 
L 2375 4863 
z
" transform="scale(0.015625)"/>
       <path id="DejaVuSans-6c" d="M 603 4863 
L 1178 4863 
L 1178 0 
L 603 0 
L 603 4863 
z
" transform="scale(0.015625)"/>
       <path id="DejaVuSans-63" d="M 3122 3366 
L 3122 2828 
Q 2878 2963 2633 3030 
Q 2388 3097 2138 3097 
Q 1578 3097 1268 2742 
Q 959 2388 959 1747 
Q 959 1106 1268 751 
Q 1578 397 2138 397 
Q 2388 397 2633 464 
Q 2878 531 3122 666 
L 3122 134 
Q 2881 22 2623 -34 
Q 2366 -91 2075 -91 
Q 1284 -91 818 406 
Q 353 903 353 1747 
Q 353 2603 823 3093 
Q 1294 3584 2113 3584 
Q 2378 3584 2631 3529 
Q 2884 3475 3122 3366 
z
" transform="scale(0.015625)"/>
       <path id="DejaVuSans-74" d="M 1172 4494 
L 1172 3500 
L 2356 3500 
L 2356 3053 
L 1172 3053 
L 1172 1153 
Q 1172 725 1289 603 
Q 1406 481 1766 481 
L 2356 481 
L 2356 0 
L 1766 0 
Q 1100 0 847 248 
Q 594 497 594 1153 
L 594 3053 
L 172 3053 
L 172 3500 
L 594 3500 
L 594 4494 
L 1172 4494 
z
" transform="scale(0.015625)"/>
       <path id="DejaVuSans-6f" d="M 1959 3097 
Q 1497 3097 1228 2736 
Q 959 2375 959 1747 
Q 959 1119 1226 758 
Q 1494 397 1959 397 
Q 2419 397 2687 759 
Q 2956 1122 2956 1747 
Q 2956 2369 2687 2733 
Q 2419 3097 1959 3097 
z
M 1959 3584 
Q 2709 3584 3137 3096 
Q 3566 2609 3566 1747 
Q 3566 888 3137 398 
Q 2709 -91 1959 -91 
Q 1206 -91 779 398 
Q 353 888 353 1747 
Q 353 2609 779 3096 
Q 1206 3584 1959 3584 
z
" transform="scale(0.015625)"/>
       <path id="DejaVuSans-20" transform="scale(0.015625)"/>
       <path id="DejaVuSans-76" d="M 191 3500 
L 800 3500 
L 1894 563 
L 2988 3500 
L 3597 3500 
L 2284 0 
L 1503 0 
L 191 3500 
z
" transform="scale(0.015625)"/>
       <path id="DejaVuSans-61" d="M 2194 1759 
Q 1497 1759 1228 1600 
Q 959 1441 959 1056 
Q 959 750 1161 570 
Q 1363 391 1709 391 
Q 2188 391 2477 730 
Q 2766 1069 2766 1631 
L 2766 1759 
L 2194 1759 
z
M 3341 1997 
L 3341 0 
L 2766 0 
L 2766 531 
Q 2569 213 2275 61 
Q 1981 -91 1556 -91 
Q 1019 -91 701 211 
Q 384 513 384 1019 
Q 384 1609 779 1909 
Q 1175 2209 1959 2209 
L 2766 2209 
L 2766 2266 
Q 2766 2663 2505 2880 
Q 2244 3097 1772 3097 
Q 1472 3097 1187 3025 
Q 903 2953 641 2809 
L 641 3341 
Q 956 3463 1253 3523 
Q 1550 3584 1831 3584 
Q 2591 3584 2966 3190 
Q 3341 2797 3341 1997 
z
" transform="scale(0.015625)"/>
       <path id="DejaVuSans-75" d="M 544 1381 
L 544 3500 
L 1119 3500 
L 1119 1403 
Q 1119 906 1312 657 
Q 1506 409 1894 409 
Q 2359 409 2629 706 
Q 2900 1003 2900 1516 
L 2900 3500 
L 3475 3500 
L 3475 0 
L 2900 0 
L 2900 538 
Q 2691 219 2414 64 
Q 2138 -91 1772 -91 
Q 1169 -91 856 284 
Q 544 659 544 1381 
z
M 1991 3584 
L 1991 3584 
z
" transform="scale(0.015625)"/>
      </defs>
      <use xlink:href="#DejaVuSans-72"/>
      <use xlink:href="#DejaVuSans-65" x="38.863281"/>
      <use xlink:href="#DejaVuSans-66" x="100.386719"/>
      <use xlink:href="#DejaVuSans-6c" x="135.591797"/>
      <use xlink:href="#DejaVuSans-65" x="163.375"/>
      <use xlink:href="#DejaVuSans-63" x="224.898438"/>
      <use xlink:href="#DejaVuSans-74" x="279.878906"/>
      <use xlink:href="#DejaVuSans-6f" x="319.087891"/>
      <use xlink:href="#DejaVuSans-72" x="380.269531"/>
      <use xlink:href="#DejaVuSans-20" x="421.382812"/>
      <use xlink:href="#DejaVuSans-76" x="453.169922"/>
      <use xlink:href="#DejaVuSans-61" x="512.349609"/>
      <use xlink:href="#DejaVuSans-6c" x="573.628906"/>
      <use xlink:href="#DejaVuSans-75" x="601.412109"/>
      <use xlink:href="#DejaVuSans-65" x="664.791016"/>
     </g>
    </g>
   </g>
   <g id="line2d_23">
    <path d="M 74.795028 54.462754 
L 74.815357 53.875505 
L 74.795346 54.580204 
L 74.904017 54.032105 
L 74.92903 53.953805 
L 74.990075 54.071255 
L 75.112662 54.462754 
L 75.16269 54.462754 
L 75.415407 53.718905 
L 75.49283 54.697653 
L 75.576507 53.484006 
L 75.666636 54.188704 
L 75.763415 54.110405 
L 75.867043 54.032105 
L 76.096335 54.462754 
L 76.355405 54.462754 
L 76.497347 55.441502 
L 76.647231 54.854253 
L 76.806048 55.284902 
L 76.973798 54.854253 
L 77.150482 55.754702 
L 77.335107 55.715552 
L 77.733141 56.6943 
L 77.945559 56.8509 
L 79.139664 58.847546 
L 79.405682 59.199895 
L 79.680634 59.121595 
L 79.964519 59.708844 
L 80.558097 60.100344 
L 80.868783 60.139494 
L 81.188402 60.687593 
L 81.515962 60.256943 
L 81.853448 60.530993 
L 82.55522 60.726743 
L 83.291734 60.648443 
L 83.673887 60.335243 
L 84.064973 60.609293 
L 84.464001 60.530993 
L 84.869977 60.335243 
L 85.286871 59.747994 
L 85.713692 60.061194 
L 86.150438 59.552245 
L 86.597111 60.061194 
L 87.053709 59.434795 
L 87.510308 59.473945 
L 88.453283 59.943744 
L 88.93966 59.669694 
L 89.426037 59.826294 
L 89.92234 59.473945 
L 90.944724 59.513095 
L 91.977034 60.217794 
L 92.513041 59.473945 
L 93.049048 59.591395 
L 93.585055 59.865444 
L 94.130988 59.826294 
L 94.676921 60.100344 
L 95.232781 60.100344 
L 95.78864 59.982894 
L 96.92021 60.648443 
L 97.485996 60.217794 
L 98.061707 60.374393 
L 98.637418 60.335243 
L 99.798767 59.708844 
L 100.384405 59.552245 
L 102.746806 59.434795 
L 103.332444 59.082446 
L 103.928007 59.199895 
L 104.52357 59.082446 
L 105.714697 58.260297 
L 106.310261 58.221147 
L 106.905824 57.477298 
L 107.501388 57.164099 
L 108.096951 57.359849 
L 108.692515 57.320699 
L 109.883641 56.968349 
L 111.074768 56.929199 
L 111.670332 55.950451 
L 112.265895 56.107051 
L 113.457022 56.616 
L 114.052586 55.793852 
L 114.648149 55.911301 
L 115.243713 55.715552 
L 116.434839 55.715552 
L 117.030403 55.480652 
L 117.625966 55.441502 
L 118.817093 54.854253 
L 120.603784 54.971703 
L 121.79491 54.736803 
L 122.986037 54.697653 
L 123.581601 55.089153 
L 124.772728 55.010853 
L 125.368291 55.089153 
L 125.963855 54.893403 
L 126.559418 55.284902 
L 127.154981 55.206603 
L 127.750545 55.324052 
L 128.346108 55.245752 
L 128.941672 55.637252 
L 129.537235 55.558952 
L 130.728362 55.676402 
L 131.323926 55.833001 
L 131.919489 55.872151 
L 132.515052 56.067901 
L 133.110616 56.146201 
L 133.706179 56.5377 
L 134.301743 56.7726 
L 134.897306 56.73345 
L 135.49287 56.929199 
L 136.683997 57.046649 
L 137.27956 57.242399 
L 137.875124 57.751348 
L 139.06625 57.947098 
L 139.661814 58.221147 
L 140.257377 58.221147 
L 140.852941 58.690946 
L 141.448504 58.925846 
L 142.639631 60.178644 
L 143.235195 61.627191 
L 143.830758 63.428088 
L 144.426321 66.716682 
L 145.021885 71.532123 
L 146.213012 88.562342 
L 148.595266 130.687666 
L 149.190829 139.104901 
L 149.786392 145.525489 
L 150.381956 150.41923 
L 150.977519 153.707824 
L 151.573083 155.508721 
L 152.168646 156.526619 
L 222.395503 156.526619 
L 222.991066 156.09597 
L 224.182193 152.533327 
L 224.777756 150.262631 
L 225.968883 143.920342 
L 227.16001 134.641809 
L 228.351137 123.288329 
L 231.328954 85.391198 
L 232.520081 70.749124 
L 233.115645 66.246883 
L 234.306772 61.079092 
L 235.497899 59.004146 
L 236.093462 58.730096 
L 236.689025 58.221147 
L 237.284589 58.221147 
L 237.880152 58.025397 
L 238.475716 58.221147 
L 239.666843 58.260297 
L 240.262406 58.338597 
L 240.85797 58.612646 
L 242.64466 58.025397 
L 243.240223 58.221147 
L 243.835787 58.221147 
L 244.43135 58.338597 
L 245.026914 58.221147 
L 245.622477 58.221147 
L 246.218041 58.377747 
L 246.813604 58.416897 
L 247.409167 58.221147 
L 248.004731 58.534347 
L 248.600294 58.495197 
L 249.195858 58.847546 
L 249.791421 58.456047 
L 250.386985 59.082446 
L 250.982548 59.356495 
L 251.578112 58.886696 
L 252.173675 58.964996 
L 252.769238 59.239045 
L 253.364802 59.121595 
L 253.960365 59.356495 
L 254.555929 59.199895 
L 255.151492 59.239045 
L 255.747056 59.395645 
L 256.342619 58.964996 
L 257.533746 59.473945 
L 258.724873 59.473945 
L 259.320436 59.356495 
L 259.916 59.904594 
L 260.511563 59.473945 
L 261.107127 59.591395 
L 261.70269 59.395645 
L 262.893817 59.591395 
L 264.084944 59.434795 
L 264.680507 59.708844 
L 265.276071 59.473945 
L 265.871634 59.630545 
L 266.467198 59.395645 
L 267.658325 59.473945 
L 269.445015 59.199895 
L 270.040578 59.043296 
L 270.636142 59.082446 
L 271.231705 58.847546 
L 273.613959 58.847546 
L 275.400649 58.456047 
L 275.996213 58.690946 
L 276.591776 58.651796 
L 277.18734 59.004146 
L 277.782903 58.651796 
L 278.378467 59.004146 
L 278.97403 58.730096 
L 279.569594 58.808396 
L 280.165157 58.730096 
L 283.142974 58.847546 
L 283.738538 59.239045 
L 284.334101 59.434795 
L 284.929665 59.199895 
L 285.525228 59.513095 
L 286.120792 59.434795 
L 286.716355 59.943744 
L 287.311918 59.865444 
L 287.907482 59.513095 
L 288.503045 59.982894 
L 289.098609 59.904594 
L 289.694172 60.217794 
L 290.289736 60.139494 
L 291.480863 60.687593 
L 292.671989 60.687593 
L 293.267553 60.922492 
L 293.863116 60.765893 
L 294.45868 60.844192 
L 295.054243 61.274842 
L 295.649807 61.235692 
L 296.24537 60.805042 
L 296.840934 60.883342 
L 297.436497 60.844192 
L 298.627624 61.353141 
L 299.223187 61.353141 
L 299.818751 60.961642 
L 300.414314 61.353141 
L 301.009878 61.235692 
L 301.605441 61.313992 
L 302.796568 61.079092 
L 303.392131 60.726743 
L 306.369949 60.687593 
L 306.965512 60.335243 
L 307.561076 60.491843 
L 308.156639 60.178644 
L 309.347766 60.765893 
L 309.943329 60.335243 
L 310.538893 60.061194 
L 312.921147 60.022044 
L 314.112274 60.256943 
L 314.707837 60.648443 
L 315.898964 60.922492 
L 316.494527 61.157392 
L 317.090091 61.235692 
L 318.281218 61.97954 
L 318.876781 62.09699 
L 319.472345 62.449339 
L 320.067908 63.193188 
L 320.663471 64.485136 
L 321.259035 66.364332 
L 321.854598 69.261427 
L 322.450162 73.881119 
L 323.641289 90.245789 
L 324.832416 110.094803 
L 326.023542 130.452766 
L 327.214669 145.01654 
L 327.810233 150.066881 
L 328.405796 153.668674 
L 329.00136 155.97852 
L 329.596923 156.526619 
L 382.006506 156.448319 
L 383.793197 155.93937 
L 384.38876 156.526619 
L 387.366577 156.526619 
L 387.962141 154.177624 
L 388.557704 154.216773 
L 389.153268 153.668674 
L 390.344395 153.159725 
L 390.939958 154.764873 
L 391.535522 154.686573 
L 392.131085 154.099324 
L 393.917775 152.807376 
L 394.513339 149.792831 
L 396.895593 147.052336 
L 397.491156 148.774933 
L 398.08672 147.991935 
L 399.87341 144.233542 
L 400.468973 142.471795 
L 401.064537 137.578054 
L 401.6601 135.816307 
L 402.851227 130.687666 
L 403.446791 127.633972 
L 404.042354 128.025471 
L 405.829044 116.202192 
L 406.424608 111.465051 
L 407.020171 102.303967 
L 408.211298 92.242436 
L 409.303164 85.743547 
L 409.898728 89.306191 
L 410.494291 90.558989 
L 411.089855 93.730133 
L 412.181721 105.827461 
L 412.678024 109.468404 
L 413.273587 117.924789 
L 413.76989 126.694373 
L 414.861757 141.923696 
L 415.35806 151.006479 
L 415.854362 155.038922 
L 416.449926 156.526619 
L 423.199645 156.526619 
L 423.596687 156.40917 
L 424.291511 156.526619 
L 425.681159 156.526619 
L 425.978941 156.17427 
L 426.276723 156.33087 
L 426.574504 155.93937 
L 426.872286 155.861071 
L 427.170068 156.526619 
L 428.460455 156.526619 
L 428.758237 155.117222 
L 428.956758 155.117222 
L 429.353801 154.608273 
L 429.552322 156.526619 
L 430.445667 156.526619 
L 430.544927 154.060174 
L 430.644188 154.647423 
L 430.94197 154.060174 
L 431.140491 156.526619 
L 431.537533 156.526619 
L 431.537533 153.629525 
L 431.636794 153.629525 
L 431.736054 153.277175 
L 431.934575 156.526619 
L 431.934575 156.526619 
L 432.033836 156.526619 
L 432.133097 151.750328 
L 432.133097 152.220127 
" clip-path="url(#p920e2bcfc8)" style="fill: none; stroke: #1f77b4; stroke-width: 1.5; stroke-linecap: square"/>
   </g>
   <g id="line2d_24">
    <path d="M 74.795028 156.526619 
L 342.103756 156.448319 
L 342.699319 156.17427 
L 343.294882 156.37002 
L 343.890446 156.21342 
L 344.486009 156.487469 
L 346.2727 156.526619 
L 347.463827 156.526619 
L 348.654953 155.93937 
L 349.250517 156.01767 
L 350.441644 155.93937 
L 351.037207 155.90022 
L 351.632771 156.526619 
L 354.610588 156.526619 
L 355.206151 155.90022 
L 356.397278 155.821921 
L 357.588405 155.90022 
L 358.183969 155.782771 
L 358.779532 156.526619 
L 361.161786 156.526619 
L 361.757349 155.821921 
L 362.352913 155.743621 
L 363.54404 155.861071 
L 364.139603 155.704471 
L 364.735167 155.861071 
L 365.33073 156.526619 
L 367.712984 156.526619 
L 368.308547 155.782771 
L 369.499674 155.547871 
L 370.690801 155.508721 
L 371.286364 155.312972 
L 371.881928 156.526619 
L 374.264182 156.526619 
L 374.859745 155.273822 
L 375.455309 154.960622 
L 376.050872 154.921472 
L 376.646435 155.156372 
L 377.241999 154.882322 
L 377.837562 155.156372 
L 378.433126 156.526619 
L 380.81538 156.526619 
L 381.410943 154.255923 
L 382.006506 154.451673 
L 382.60207 153.903574 
L 383.793197 153.786124 
L 384.38876 153.551225 
L 384.984324 156.526619 
L 387.366577 156.526619 
L 387.962141 153.159725 
L 388.557704 152.689926 
L 389.153268 152.768226 
L 389.748831 152.298427 
L 390.344395 152.220127 
L 390.939958 156.40917 
L 391.535522 156.526619 
L 393.322212 156.526619 
L 393.917775 156.17427 
L 394.513339 150.928179 
L 395.704466 150.73243 
L 396.895593 149.949431 
L 397.491156 154.921472 
L 398.08672 155.430421 
L 399.277846 154.764873 
L 400.468973 154.451673 
L 401.064537 148.265984 
L 401.6601 147.913635 
L 402.255664 147.757035 
L 403.446791 147.091486 
L 404.042354 153.198875 
L 405.829044 152.376727 
L 406.424608 152.102677 
L 407.020171 145.01654 
L 407.615735 144.664191 
L 408.211298 144.076942 
L 408.806862 143.920342 
L 409.303164 143.411393 
L 409.898728 150.340931 
L 410.494291 149.675382 
L 411.089855 149.479632 
L 412.181721 148.422584 
L 412.678024 140.905798 
L 413.273587 140.514298 
L 414.365454 139.30065 
L 414.861757 139.026601 
L 415.35806 146.347638 
L 415.854362 145.916989 
L 416.449926 145.13399 
L 416.946229 144.93824 
L 417.442532 144.116092 
L 417.938834 135.698857 
L 418.435137 135.111608 
L 418.83218 134.21116 
L 419.328482 133.78051 
L 419.824785 132.801762 
L 420.221828 141.023247 
L 420.718131 140.396848 
L 421.115173 139.653 
L 421.611476 139.30065 
L 422.008518 138.595952 
L 422.40556 129.199969 
L 422.802603 128.221221 
L 423.199645 127.712271 
L 423.993729 125.989675 
L 424.291511 134.446059 
L 424.688554 133.78051 
L 424.986335 132.919212 
L 425.383378 132.645163 
L 425.681159 131.744714 
L 425.978941 121.839782 
L 426.872286 119.412486 
L 427.170068 117.924789 
L 427.46785 126.498624 
L 427.765631 125.519875 
L 427.964152 124.423677 
L 428.261934 123.875578 
L 428.460455 122.74023 
L 428.956758 110.916952 
L 429.552322 107.628358 
L 429.750843 116.906891 
L 429.949364 116.241342 
L 430.048625 114.362146 
L 430.445667 112.796148 
L 430.644188 100.89457 
L 430.842709 100.542221 
L 431.04123 97.449376 
L 431.140491 106.49301 
L 431.239751 105.475112 
L 431.537533 102.617167 
L 431.636794 90.05004 
L 431.835315 86.291646 
L 431.934575 95.844229 
L 431.934575 92.594785 
L 432.033836 91.067938 
L 432.133097 65.737934 
L 432.133097 70.396775 
" clip-path="url(#p920e2bcfc8)" style="fill: none; stroke: #ff7f0e; stroke-width: 1.5; stroke-linecap: square"/>
   </g>
   <g id="line2d_25">
    <path d="M 74.795028 156.526619 
L 380.81538 156.526619 
L 381.410943 155.312972 
L 382.006506 155.391271 
L 382.60207 155.078072 
L 383.197633 155.078072 
L 383.793197 154.921472 
L 384.38876 156.526619 
L 387.366577 156.526619 
L 387.962141 153.864424 
L 389.153268 153.629525 
L 389.748831 153.786124 
L 390.344395 153.355475 
L 390.939958 156.526619 
L 393.917775 156.526619 
L 394.513339 151.554578 
L 395.108902 151.750328 
L 395.704466 151.358829 
L 396.300029 151.554578 
L 396.895593 150.928179 
L 397.491156 156.01767 
L 398.682283 155.391271 
L 399.277846 155.117222 
L 400.468973 154.882322 
L 401.064537 149.871131 
L 401.6601 148.853233 
L 402.255664 148.814083 
L 402.851227 148.422584 
L 403.446791 148.422584 
L 404.042354 153.512075 
L 404.637917 153.551225 
L 405.233481 153.042276 
L 405.829044 153.042276 
L 406.424608 152.298427 
L 407.020171 146.543387 
L 407.615735 145.916989 
L 408.211298 145.799539 
L 408.806862 144.93824 
L 409.303164 149.048983 
L 409.898728 150.38008 
L 410.494291 150.223481 
L 411.586158 149.205583 
L 412.181721 148.892383 
L 412.678024 142.550095 
L 413.273587 141.727946 
L 413.76989 141.806246 
L 414.365454 140.905798 
L 414.861757 146.191038 
L 415.35806 147.169786 
L 415.854362 146.308488 
L 416.449926 145.642939 
L 416.946229 145.447189 
L 417.442532 144.664191 
L 417.938834 137.734653 
L 418.435137 136.560155 
L 418.83218 136.873355 
L 419.328482 134.876708 
L 419.824785 141.493047 
L 420.221828 141.062397 
L 420.718131 140.905798 
L 421.115173 139.77045 
L 421.611476 139.53555 
L 422.008518 138.478502 
L 422.40556 130.883416 
L 422.802603 129.513168 
L 423.199645 129.278269 
L 423.596687 127.868871 
L 423.993729 134.641809 
L 424.291511 133.89796 
L 424.688554 133.78051 
L 424.986335 132.331963 
L 425.383378 132.292813 
L 425.681159 130.609366 
L 425.978941 122.93598 
L 426.276723 121.095933 
L 426.574504 121.448283 
L 426.872286 119.451636 
L 427.170068 126.616073 
L 427.765631 124.032178 
L 427.964152 123.875578 
L 428.460455 120.939334 
L 428.956758 110.329703 
L 429.155279 110.799502 
L 429.353801 108.293907 
L 429.552322 116.123892 
L 429.750843 114.009796 
L 429.949364 113.109348 
L 430.048625 113.539997 
L 430.445667 110.133953 
L 430.644188 99.132823 
L 430.94197 98.310675 
L 431.140491 104.457213 
L 431.339012 100.73797 
L 431.438273 101.168619 
L 431.537533 98.310675 
L 431.636794 86.683146 
L 431.736054 87.701044 
L 431.736054 84.295 
L 431.835315 92.829685 
L 431.835315 90.089189 
L 431.934575 90.441539 
L 432.033836 72.510871 
L 432.033836 73.45047 
L 432.133097 80.262557 
L 432.133097 74.272618 
L 432.133097 59.513095 
L 432.133097 66.246883 
" clip-path="url(#p920e2bcfc8)" style="fill: none; stroke: #2ca02c; stroke-width: 1.5; stroke-linecap: square"/>
   </g>
   <g id="line2d_26">
    <path d="M 74.795028 151.045629 
L 74.863637 150.928179 
L 74.847875 151.554578 
L 74.904017 151.476278 
L 74.957617 151.476278 
L 75.112662 150.928179 
L 75.16269 151.476278 
L 75.217779 151.241379 
L 75.27813 151.476278 
L 75.343939 151.045629 
L 75.415407 151.163079 
L 75.49283 151.006479 
L 75.576507 151.123929 
L 75.978214 150.88903 
L 76.221403 151.280529 
L 76.355405 150.928179 
L 76.497347 151.202229 
L 76.806048 150.81073 
L 77.150482 151.084779 
L 77.529657 150.69328 
L 77.733141 150.88903 
L 77.945559 150.69328 
L 78.165918 150.88903 
L 78.63542 150.49753 
L 78.883571 150.69328 
L 79.139664 150.38008 
L 79.405682 150.69328 
L 79.680634 150.73243 
L 79.964519 150.928179 
L 80.256345 150.69328 
L 80.558097 150.65413 
L 80.868783 150.49753 
L 81.188402 150.53668 
L 81.515962 150.184331 
L 81.853448 150.262631 
L 82.199867 150.69328 
L 82.55522 150.262631 
L 82.918514 150.41923 
L 83.291734 150.41923 
L 83.673887 150.73243 
L 84.064973 150.49753 
L 84.464001 150.69328 
L 84.869977 150.38008 
L 85.286871 150.38008 
L 85.713692 150.77158 
L 86.150438 150.262631 
L 87.053709 150.61498 
L 87.510308 150.262631 
L 87.976833 150.262631 
L 88.93966 150.57583 
L 89.426037 150.88903 
L 89.92234 150.301781 
L 90.944724 150.65413 
L 91.977034 150.61498 
L 93.049048 150.53668 
L 93.585055 150.57583 
L 94.130988 150.340931 
L 94.676921 150.49753 
L 95.232781 150.84988 
L 95.78864 150.38008 
L 97.485996 150.49753 
L 98.061707 150.65413 
L 98.637418 151.123929 
L 99.223056 150.53668 
L 99.798767 150.967329 
L 100.384405 150.88903 
L 100.970042 151.358829 
L 101.555679 151.084779 
L 102.746806 150.928179 
L 103.332444 151.163079 
L 103.928007 150.967329 
L 104.52357 151.280529 
L 105.119134 150.81073 
L 106.310261 151.476278 
L 107.501388 151.045629 
L 108.096951 151.319679 
L 108.692515 151.319679 
L 109.288078 151.202229 
L 109.883641 151.397979 
L 110.479205 151.319679 
L 111.670332 151.476278 
L 112.265895 151.554578 
L 112.861459 151.476278 
L 113.457022 150.928179 
L 115.243713 151.515428 
L 115.839276 151.123929 
L 116.434839 151.515428 
L 117.625966 151.554578 
L 118.22153 151.358829 
L 118.817093 151.319679 
L 119.412657 151.906928 
L 120.00822 151.319679 
L 120.603784 151.515428 
L 121.79491 151.554578 
L 122.390474 151.750328 
L 125.368291 151.946078 
L 126.559418 152.415877 
L 127.154981 152.729076 
L 128.941672 153.042276 
L 129.537235 153.786124 
L 130.132799 153.825274 
L 131.919489 154.569123 
L 132.515052 155.038922 
L 133.110616 155.078072 
L 133.706179 155.234672 
L 134.301743 155.90022 
L 134.897306 156.01767 
L 135.49287 156.526619 
L 217.630995 156.526619 
L 218.226559 156.37002 
L 219.417685 155.508721 
L 220.013249 155.743621 
L 220.608812 155.078072 
L 221.799939 154.295073 
L 222.395503 154.255923 
L 222.991066 153.433775 
L 224.182193 153.355475 
L 224.777756 152.885676 
L 225.37332 152.846526 
L 225.968883 152.415877 
L 228.351137 151.906928 
L 229.542264 151.985228 
L 230.137827 151.789478 
L 230.733391 151.946078 
L 231.328954 151.632878 
L 231.924518 152.063527 
L 232.520081 151.906928 
L 233.115645 151.437129 
L 234.306772 151.554578 
L 235.497899 151.554578 
L 236.093462 151.750328 
L 236.689025 152.102677 
L 237.284589 151.750328 
L 237.880152 151.672028 
L 238.475716 151.946078 
L 239.071279 151.593728 
L 239.666843 151.946078 
L 240.262406 151.750328 
L 240.85797 151.906928 
L 241.453533 151.554578 
L 242.049096 151.906928 
L 242.64466 151.554578 
L 243.835787 151.554578 
L 244.43135 151.750328 
L 245.026914 151.554578 
L 245.622477 151.632878 
L 246.218041 151.554578 
L 246.813604 151.672028 
L 248.004731 151.358829 
L 248.600294 151.750328 
L 249.195858 151.711178 
L 249.791421 151.476278 
L 250.982548 151.319679 
L 251.578112 151.554578 
L 252.173675 151.045629 
L 252.769238 150.928179 
L 253.960365 150.928179 
L 254.555929 151.123929 
L 255.151492 150.928179 
L 255.747056 150.928179 
L 256.342619 151.202229 
L 256.938183 151.123929 
L 257.533746 151.476278 
L 258.12931 151.319679 
L 258.724873 151.358829 
L 259.320436 151.515428 
L 259.916 151.163079 
L 260.511563 151.084779 
L 261.107127 150.88903 
L 261.70269 151.319679 
L 262.298254 151.397979 
L 262.893817 151.241379 
L 263.489381 150.88903 
L 264.084944 151.280529 
L 264.680507 151.319679 
L 265.871634 150.928179 
L 266.467198 151.554578 
L 267.062761 151.319679 
L 267.658325 151.554578 
L 268.253888 151.554578 
L 268.849452 151.319679 
L 269.445015 151.397979 
L 270.040578 150.928179 
L 270.636142 150.967329 
L 271.231705 151.437129 
L 271.827269 150.928179 
L 272.422832 151.319679 
L 273.018396 151.241379 
L 273.613959 150.928179 
L 274.209523 151.319679 
L 274.805086 151.045629 
L 275.996213 151.711178 
L 278.378467 151.476278 
L 278.97403 150.928179 
L 279.569594 151.554578 
L 280.165157 151.319679 
L 280.76072 150.928179 
L 281.356284 151.202229 
L 281.951847 151.280529 
L 282.547411 150.928179 
L 283.142974 151.358829 
L 283.738538 151.319679 
L 284.334101 151.437129 
L 284.929665 151.358829 
L 285.525228 151.554578 
L 286.716355 151.554578 
L 287.311918 150.928179 
L 287.907482 151.280529 
L 288.503045 150.928179 
L 289.098609 151.163079 
L 290.289736 151.123929 
L 290.885299 150.84988 
L 291.480863 151.123929 
L 292.076426 151.123929 
L 292.671989 151.358829 
L 293.267553 151.319679 
L 293.863116 151.397979 
L 295.054243 151.202229 
L 295.649807 150.77158 
L 296.24537 151.280529 
L 297.436497 151.045629 
L 298.03206 150.81073 
L 298.627624 151.045629 
L 299.223187 151.123929 
L 299.818751 151.515428 
L 300.414314 151.711178 
L 301.009878 151.554578 
L 301.605441 151.828628 
L 303.392131 151.515428 
L 303.987695 151.358829 
L 305.178822 152.063527 
L 305.774385 152.180977 
L 306.369949 151.985228 
L 306.965512 152.572476 
L 307.561076 152.533327 
L 308.156639 153.433775 
L 309.943329 154.255923 
L 310.538893 154.686573 
L 311.134456 154.490823 
L 311.73002 154.764873 
L 312.325583 155.312972 
L 313.51671 155.93937 
L 314.112274 156.526619 
L 393.917775 156.526619 
L 394.513339 155.587021 
L 395.108902 155.861071 
L 396.300029 154.999772 
L 396.895593 155.234672 
L 397.491156 156.526619 
L 400.468973 156.526619 
L 401.064537 155.312972 
L 401.6601 155.430421 
L 402.255664 155.234672 
L 402.851227 155.821921 
L 403.446791 155.861071 
L 404.042354 156.526619 
L 425.681159 156.526619 
L 426.276723 155.97852 
L 426.574504 155.93937 
L 426.872286 156.37002 
L 427.170068 155.93937 
L 427.46785 156.526619 
L 428.460455 156.526619 
L 428.758237 154.960622 
L 428.956758 155.038922 
L 429.155279 154.686573 
L 429.552322 155.195522 
L 429.750843 156.526619 
L 430.445667 156.526619 
L 430.644188 153.981874 
L 430.842709 153.942724 
L 431.04123 154.060174 
L 431.239751 156.526619 
L 431.537533 156.526619 
L 431.636794 153.355475 
L 431.736054 153.433775 
L 431.835315 153.159725 
L 431.934575 156.526619 
L 431.934575 156.526619 
L 432.033836 156.526619 
L 432.133097 151.045629 
L 432.133097 151.554578 
" clip-path="url(#p920e2bcfc8)" style="fill: none; stroke: #d62728; stroke-width: 1.5; stroke-linecap: square"/>
   </g>
   <g id="patch_3">
    <path d="M 56.928125 161.67875 
L 56.928125 48.331875 
" style="fill: none; stroke: #000000; stroke-width: 0.8; stroke-linejoin: miter; stroke-linecap: square"/>
   </g>
   <g id="patch_4">
    <path d="M 450 161.67875 
L 450 48.331875 
" style="fill: none; stroke: #000000; stroke-width: 0.8; stroke-linejoin: miter; stroke-linecap: square"/>
   </g>
   <g id="patch_5">
    <path d="M 56.928125 161.67875 
L 450 161.67875 
" style="fill: none; stroke: #000000; stroke-width: 0.8; stroke-linejoin: miter; stroke-linecap: square"/>
   </g>
   <g id="patch_6">
    <path d="M 56.928125 48.331875 
L 450 48.331875 
" style="fill: none; stroke: #000000; stroke-width: 0.8; stroke-linejoin: miter; stroke-linecap: square"/>
   </g>
   <g id="text_5">
    <!-- Reflector Raw Value -->
    <g transform="translate(193.704062 42.331875)scale(0.12 -0.12)">
     <defs>
      <path id="DejaVuSans-52" d="M 2841 2188 
Q 3044 2119 3236 1894 
Q 3428 1669 3622 1275 
L 4263 0 
L 3584 0 
L 2988 1197 
Q 2756 1666 2539 1819 
Q 2322 1972 1947 1972 
L 1259 1972 
L 1259 0 
L 628 0 
L 628 4666 
L 2053 4666 
Q 2853 4666 3247 4331 
Q 3641 3997 3641 3322 
Q 3641 2881 3436 2590 
Q 3231 2300 2841 2188 
z
M 1259 4147 
L 1259 2491 
L 2053 2491 
Q 2509 2491 2742 2702 
Q 2975 2913 2975 3322 
Q 2975 3731 2742 3939 
Q 2509 4147 2053 4147 
L 1259 4147 
z
" transform="scale(0.015625)"/>
      <path id="DejaVuSans-77" d="M 269 3500 
L 844 3500 
L 1563 769 
L 2278 3500 
L 2956 3500 
L 3675 769 
L 4391 3500 
L 4966 3500 
L 4050 0 
L 3372 0 
L 2619 2869 
L 1863 0 
L 1184 0 
L 269 3500 
z
" transform="scale(0.015625)"/>
      <path id="DejaVuSans-56" d="M 1831 0 
L 50 4666 
L 709 4666 
L 2188 738 
L 3669 4666 
L 4325 4666 
L 2547 0 
L 1831 0 
z
" transform="scale(0.015625)"/>
     </defs>
     <use xlink:href="#DejaVuSans-52"/>
     <use xlink:href="#DejaVuSans-65" x="64.982422"/>
     <use xlink:href="#DejaVuSans-66" x="126.505859"/>
     <use xlink:href="#DejaVuSans-6c" x="161.710938"/>
     <use xlink:href="#DejaVuSans-65" x="189.494141"/>
     <use xlink:href="#DejaVuSans-63" x="251.017578"/>
     <use xlink:href="#DejaVuSans-74" x="305.998047"/>
     <use xlink:href="#DejaVuSans-6f" x="345.207031"/>
     <use xlink:href="#DejaVuSans-72" x="406.388672"/>
     <use xlink:href="#DejaVuSans-20" x="447.501953"/>
     <use xlink:href="#DejaVuSans-52" x="479.289062"/>
     <use xlink:href="#DejaVuSans-61" x="546.521484"/>
     <use xlink:href="#DejaVuSans-77" x="607.800781"/>
     <use xlink:href="#DejaVuSans-20" x="689.587891"/>
     <use xlink:href="#DejaVuSans-56" x="721.375"/>
     <use xlink:href="#DejaVuSans-61" x="782.033203"/>
     <use xlink:href="#DejaVuSans-6c" x="843.3125"/>
     <use xlink:href="#DejaVuSans-75" x="871.095703"/>
     <use xlink:href="#DejaVuSans-65" x="934.474609"/>
    </g>
   </g>
   <g id="legend_1">
    <g id="patch_7">
     <path d="M 63.928125 135.861562 
L 131.34375 135.861562 
Q 133.34375 135.861562 133.34375 133.861562 
L 133.34375 76.149062 
Q 133.34375 74.149062 131.34375 74.149062 
L 63.928125 74.149062 
Q 61.928125 74.149062 61.928125 76.149062 
L 61.928125 133.861562 
Q 61.928125 135.861562 63.928125 135.861562 
z
" style="fill: #ffffff; opacity: 0.8; stroke: #cccccc; stroke-linejoin: miter"/>
    </g>
    <g id="line2d_27">
     <path d="M 65.928125 82.2475 
L 75.928125 82.2475 
L 85.928125 82.2475 
" style="fill: none; stroke: #1f77b4; stroke-width: 1.5; stroke-linecap: square"/>
    </g>
    <g id="text_6">
     <!-- L Side -->
     <g transform="translate(93.928125 85.7475)scale(0.1 -0.1)">
      <defs>
       <path id="DejaVuSans-4c" d="M 628 4666 
L 1259 4666 
L 1259 531 
L 3531 531 
L 3531 0 
L 628 0 
L 628 4666 
z
" transform="scale(0.015625)"/>
       <path id="DejaVuSans-53" d="M 3425 4513 
L 3425 3897 
Q 3066 4069 2747 4153 
Q 2428 4238 2131 4238 
Q 1616 4238 1336 4038 
Q 1056 3838 1056 3469 
Q 1056 3159 1242 3001 
Q 1428 2844 1947 2747 
L 2328 2669 
Q 3034 2534 3370 2195 
Q 3706 1856 3706 1288 
Q 3706 609 3251 259 
Q 2797 -91 1919 -91 
Q 1588 -91 1214 -16 
Q 841 59 441 206 
L 441 856 
Q 825 641 1194 531 
Q 1563 422 1919 422 
Q 2459 422 2753 634 
Q 3047 847 3047 1241 
Q 3047 1584 2836 1778 
Q 2625 1972 2144 2069 
L 1759 2144 
Q 1053 2284 737 2584 
Q 422 2884 422 3419 
Q 422 4038 858 4394 
Q 1294 4750 2059 4750 
Q 2388 4750 2728 4690 
Q 3069 4631 3425 4513 
z
" transform="scale(0.015625)"/>
       <path id="DejaVuSans-69" d="M 603 3500 
L 1178 3500 
L 1178 0 
L 603 0 
L 603 3500 
z
M 603 4863 
L 1178 4863 
L 1178 4134 
L 603 4134 
L 603 4863 
z
" transform="scale(0.015625)"/>
       <path id="DejaVuSans-64" d="M 2906 2969 
L 2906 4863 
L 3481 4863 
L 3481 0 
L 2906 0 
L 2906 525 
Q 2725 213 2448 61 
Q 2172 -91 1784 -91 
Q 1150 -91 751 415 
Q 353 922 353 1747 
Q 353 2572 751 3078 
Q 1150 3584 1784 3584 
Q 2172 3584 2448 3432 
Q 2725 3281 2906 2969 
z
M 947 1747 
Q 947 1113 1208 752 
Q 1469 391 1925 391 
Q 2381 391 2643 752 
Q 2906 1113 2906 1747 
Q 2906 2381 2643 2742 
Q 2381 3103 1925 3103 
Q 1469 3103 1208 2742 
Q 947 2381 947 1747 
z
" transform="scale(0.015625)"/>
      </defs>
      <use xlink:href="#DejaVuSans-4c"/>
      <use xlink:href="#DejaVuSans-20" x="55.712891"/>
      <use xlink:href="#DejaVuSans-53" x="87.5"/>
      <use xlink:href="#DejaVuSans-69" x="150.976562"/>
      <use xlink:href="#DejaVuSans-64" x="178.759766"/>
      <use xlink:href="#DejaVuSans-65" x="242.236328"/>
     </g>
    </g>
    <g id="line2d_28">
     <path d="M 65.928125 96.925625 
L 75.928125 96.925625 
L 85.928125 96.925625 
" style="fill: none; stroke: #ff7f0e; stroke-width: 1.5; stroke-linecap: square"/>
    </g>
    <g id="text_7">
     <!-- L Front -->
     <g transform="translate(93.928125 100.425625)scale(0.1 -0.1)">
      <defs>
       <path id="DejaVuSans-46" d="M 628 4666 
L 3309 4666 
L 3309 4134 
L 1259 4134 
L 1259 2759 
L 3109 2759 
L 3109 2228 
L 1259 2228 
L 1259 0 
L 628 0 
L 628 4666 
z
" transform="scale(0.015625)"/>
       <path id="DejaVuSans-6e" d="M 3513 2113 
L 3513 0 
L 2938 0 
L 2938 2094 
Q 2938 2591 2744 2837 
Q 2550 3084 2163 3084 
Q 1697 3084 1428 2787 
Q 1159 2491 1159 1978 
L 1159 0 
L 581 0 
L 581 3500 
L 1159 3500 
L 1159 2956 
Q 1366 3272 1645 3428 
Q 1925 3584 2291 3584 
Q 2894 3584 3203 3211 
Q 3513 2838 3513 2113 
z
" transform="scale(0.015625)"/>
      </defs>
      <use xlink:href="#DejaVuSans-4c"/>
      <use xlink:href="#DejaVuSans-20" x="55.712891"/>
      <use xlink:href="#DejaVuSans-46" x="87.5"/>
      <use xlink:href="#DejaVuSans-72" x="137.769531"/>
      <use xlink:href="#DejaVuSans-6f" x="176.632812"/>
      <use xlink:href="#DejaVuSans-6e" x="237.814453"/>
      <use xlink:href="#DejaVuSans-74" x="301.193359"/>
     </g>
    </g>
    <g id="line2d_29">
     <path d="M 65.928125 111.60375 
L 75.928125 111.60375 
L 85.928125 111.60375 
" style="fill: none; stroke: #2ca02c; stroke-width: 1.5; stroke-linecap: square"/>
    </g>
    <g id="text_8">
     <!-- R Front -->
     <g transform="translate(93.928125 115.10375)scale(0.1 -0.1)">
      <use xlink:href="#DejaVuSans-52"/>
      <use xlink:href="#DejaVuSans-20" x="69.482422"/>
      <use xlink:href="#DejaVuSans-46" x="101.269531"/>
      <use xlink:href="#DejaVuSans-72" x="151.539062"/>
      <use xlink:href="#DejaVuSans-6f" x="190.402344"/>
      <use xlink:href="#DejaVuSans-6e" x="251.583984"/>
      <use xlink:href="#DejaVuSans-74" x="314.962891"/>
     </g>
    </g>
    <g id="line2d_30">
     <path d="M 65.928125 126.281875 
L 75.928125 126.281875 
L 85.928125 126.281875 
" style="fill: none; stroke: #d62728; stroke-width: 1.5; stroke-linecap: square"/>
    </g>
    <g id="text_9">
     <!-- R Side -->
     <g transform="translate(93.928125 129.781875)scale(0.1 -0.1)">
      <use xlink:href="#DejaVuSans-52"/>
      <use xlink:href="#DejaVuSans-20" x="69.482422"/>
      <use xlink:href="#DejaVuSans-53" x="101.269531"/>
      <use xlink:href="#DejaVuSans-69" x="164.746094"/>
      <use xlink:href="#DejaVuSans-64" x="192.529297"/>
      <use xlink:href="#DejaVuSans-65" x="256.005859"/>
     </g>
    </g>
   </g>
  </g>
  <g id="axes_2">
   <g id="patch_8">
    <path d="M 56.928125 304.44375 
L 450 304.44375 
L 450 191.096875 
L 56.928125 191.096875 
z
" style="fill: #ffffff"/>
   </g>
   <g id="matplotlib.axis_3">
    <g id="xtick_9">
     <g id="line2d_31">
      <path d="M 74.795028 304.44375 
L 74.795028 191.096875 
" clip-path="url(#p1f259587c1)" style="fill: none; stroke: #b0b0b0; stroke-width: 0.8; stroke-linecap: square"/>
     </g>
     <g id="line2d_32">
      <g>
       <use xlink:href="#m0994bd8af9" x="74.795028" y="304.44375" style="stroke: #000000; stroke-width: 0.8"/>
      </g>
     </g>
     <g id="text_10">
      <!-- 0 -->
      <g transform="translate(71.613778 319.042187)scale(0.1 -0.1)">
       <use xlink:href="#DejaVuSans-30"/>
      </g>
     </g>
    </g>
    <g id="xtick_10">
     <g id="line2d_33">
      <path d="M 124.425316 304.44375 
L 124.425316 191.096875 
" clip-path="url(#p1f259587c1)" style="fill: none; stroke: #b0b0b0; stroke-width: 0.8; stroke-linecap: square"/>
     </g>
     <g id="line2d_34">
      <g>
       <use xlink:href="#m0994bd8af9" x="124.425316" y="304.44375" style="stroke: #000000; stroke-width: 0.8"/>
      </g>
     </g>
     <g id="text_11">
      <!-- 50 -->
      <g transform="translate(118.062816 319.042187)scale(0.1 -0.1)">
       <defs>
        <path id="DejaVuSans-35" d="M 691 4666 
L 3169 4666 
L 3169 4134 
L 1269 4134 
L 1269 2991 
Q 1406 3038 1543 3061 
Q 1681 3084 1819 3084 
Q 2600 3084 3056 2656 
Q 3513 2228 3513 1497 
Q 3513 744 3044 326 
Q 2575 -91 1722 -91 
Q 1428 -91 1123 -41 
Q 819 9 494 109 
L 494 744 
Q 775 591 1075 516 
Q 1375 441 1709 441 
Q 2250 441 2565 725 
Q 2881 1009 2881 1497 
Q 2881 1984 2565 2268 
Q 2250 2553 1709 2553 
Q 1456 2553 1204 2497 
Q 953 2441 691 2322 
L 691 4666 
z
" transform="scale(0.015625)"/>
       </defs>
       <use xlink:href="#DejaVuSans-35"/>
       <use xlink:href="#DejaVuSans-30" x="63.623047"/>
      </g>
     </g>
    </g>
    <g id="xtick_11">
     <g id="line2d_35">
      <path d="M 174.055603 304.44375 
L 174.055603 191.096875 
" clip-path="url(#p1f259587c1)" style="fill: none; stroke: #b0b0b0; stroke-width: 0.8; stroke-linecap: square"/>
     </g>
     <g id="line2d_36">
      <g>
       <use xlink:href="#m0994bd8af9" x="174.055603" y="304.44375" style="stroke: #000000; stroke-width: 0.8"/>
      </g>
     </g>
     <g id="text_12">
      <!-- 100 -->
      <g transform="translate(164.511853 319.042187)scale(0.1 -0.1)">
       <use xlink:href="#DejaVuSans-31"/>
       <use xlink:href="#DejaVuSans-30" x="63.623047"/>
       <use xlink:href="#DejaVuSans-30" x="127.246094"/>
      </g>
     </g>
    </g>
    <g id="xtick_12">
     <g id="line2d_37">
      <path d="M 223.68589 304.44375 
L 223.68589 191.096875 
" clip-path="url(#p1f259587c1)" style="fill: none; stroke: #b0b0b0; stroke-width: 0.8; stroke-linecap: square"/>
     </g>
     <g id="line2d_38">
      <g>
       <use xlink:href="#m0994bd8af9" x="223.68589" y="304.44375" style="stroke: #000000; stroke-width: 0.8"/>
      </g>
     </g>
     <g id="text_13">
      <!-- 150 -->
      <g transform="translate(214.14214 319.042187)scale(0.1 -0.1)">
       <use xlink:href="#DejaVuSans-31"/>
       <use xlink:href="#DejaVuSans-35" x="63.623047"/>
       <use xlink:href="#DejaVuSans-30" x="127.246094"/>
      </g>
     </g>
    </g>
    <g id="xtick_13">
     <g id="line2d_39">
      <path d="M 273.316177 304.44375 
L 273.316177 191.096875 
" clip-path="url(#p1f259587c1)" style="fill: none; stroke: #b0b0b0; stroke-width: 0.8; stroke-linecap: square"/>
     </g>
     <g id="line2d_40">
      <g>
       <use xlink:href="#m0994bd8af9" x="273.316177" y="304.44375" style="stroke: #000000; stroke-width: 0.8"/>
      </g>
     </g>
     <g id="text_14">
      <!-- 200 -->
      <g transform="translate(263.772427 319.042187)scale(0.1 -0.1)">
       <use xlink:href="#DejaVuSans-32"/>
       <use xlink:href="#DejaVuSans-30" x="63.623047"/>
       <use xlink:href="#DejaVuSans-30" x="127.246094"/>
      </g>
     </g>
    </g>
    <g id="xtick_14">
     <g id="line2d_41">
      <path d="M 322.946465 304.44375 
L 322.946465 191.096875 
" clip-path="url(#p1f259587c1)" style="fill: none; stroke: #b0b0b0; stroke-width: 0.8; stroke-linecap: square"/>
     </g>
     <g id="line2d_42">
      <g>
       <use xlink:href="#m0994bd8af9" x="322.946465" y="304.44375" style="stroke: #000000; stroke-width: 0.8"/>
      </g>
     </g>
     <g id="text_15">
      <!-- 250 -->
      <g transform="translate(313.402715 319.042187)scale(0.1 -0.1)">
       <use xlink:href="#DejaVuSans-32"/>
       <use xlink:href="#DejaVuSans-35" x="63.623047"/>
       <use xlink:href="#DejaVuSans-30" x="127.246094"/>
      </g>
     </g>
    </g>
    <g id="xtick_15">
     <g id="line2d_43">
      <path d="M 372.576752 304.44375 
L 372.576752 191.096875 
" clip-path="url(#p1f259587c1)" style="fill: none; stroke: #b0b0b0; stroke-width: 0.8; stroke-linecap: square"/>
     </g>
     <g id="line2d_44">
      <g>
       <use xlink:href="#m0994bd8af9" x="372.576752" y="304.44375" style="stroke: #000000; stroke-width: 0.8"/>
      </g>
     </g>
     <g id="text_16">
      <!-- 300 -->
      <g transform="translate(363.033002 319.042187)scale(0.1 -0.1)">
       <defs>
        <path id="DejaVuSans-33" d="M 2597 2516 
Q 3050 2419 3304 2112 
Q 3559 1806 3559 1356 
Q 3559 666 3084 287 
Q 2609 -91 1734 -91 
Q 1441 -91 1130 -33 
Q 819 25 488 141 
L 488 750 
Q 750 597 1062 519 
Q 1375 441 1716 441 
Q 2309 441 2620 675 
Q 2931 909 2931 1356 
Q 2931 1769 2642 2001 
Q 2353 2234 1838 2234 
L 1294 2234 
L 1294 2753 
L 1863 2753 
Q 2328 2753 2575 2939 
Q 2822 3125 2822 3475 
Q 2822 3834 2567 4026 
Q 2313 4219 1838 4219 
Q 1578 4219 1281 4162 
Q 984 4106 628 3988 
L 628 4550 
Q 988 4650 1302 4700 
Q 1616 4750 1894 4750 
Q 2613 4750 3031 4423 
Q 3450 4097 3450 3541 
Q 3450 3153 3228 2886 
Q 3006 2619 2597 2516 
z
" transform="scale(0.015625)"/>
       </defs>
       <use xlink:href="#DejaVuSans-33"/>
       <use xlink:href="#DejaVuSans-30" x="63.623047"/>
       <use xlink:href="#DejaVuSans-30" x="127.246094"/>
      </g>
     </g>
    </g>
    <g id="xtick_16">
     <g id="line2d_45">
      <path d="M 422.207039 304.44375 
L 422.207039 191.096875 
" clip-path="url(#p1f259587c1)" style="fill: none; stroke: #b0b0b0; stroke-width: 0.8; stroke-linecap: square"/>
     </g>
     <g id="line2d_46">
      <g>
       <use xlink:href="#m0994bd8af9" x="422.207039" y="304.44375" style="stroke: #000000; stroke-width: 0.8"/>
      </g>
     </g>
     <g id="text_17">
      <!-- 350 -->
      <g transform="translate(412.663289 319.042187)scale(0.1 -0.1)">
       <use xlink:href="#DejaVuSans-33"/>
       <use xlink:href="#DejaVuSans-35" x="63.623047"/>
       <use xlink:href="#DejaVuSans-30" x="127.246094"/>
      </g>
     </g>
    </g>
    <g id="text_18">
     <!-- Translational Position [mm] -->
     <g transform="translate(185.486719 332.720312)scale(0.1 -0.1)">
      <defs>
       <path id="DejaVuSans-54" d="M -19 4666 
L 3928 4666 
L 3928 4134 
L 2272 4134 
L 2272 0 
L 1638 0 
L 1638 4134 
L -19 4134 
L -19 4666 
z
" transform="scale(0.015625)"/>
       <path id="DejaVuSans-73" d="M 2834 3397 
L 2834 2853 
Q 2591 2978 2328 3040 
Q 2066 3103 1784 3103 
Q 1356 3103 1142 2972 
Q 928 2841 928 2578 
Q 928 2378 1081 2264 
Q 1234 2150 1697 2047 
L 1894 2003 
Q 2506 1872 2764 1633 
Q 3022 1394 3022 966 
Q 3022 478 2636 193 
Q 2250 -91 1575 -91 
Q 1294 -91 989 -36 
Q 684 19 347 128 
L 347 722 
Q 666 556 975 473 
Q 1284 391 1588 391 
Q 1994 391 2212 530 
Q 2431 669 2431 922 
Q 2431 1156 2273 1281 
Q 2116 1406 1581 1522 
L 1381 1569 
Q 847 1681 609 1914 
Q 372 2147 372 2553 
Q 372 3047 722 3315 
Q 1072 3584 1716 3584 
Q 2034 3584 2315 3537 
Q 2597 3491 2834 3397 
z
" transform="scale(0.015625)"/>
       <path id="DejaVuSans-50" d="M 1259 4147 
L 1259 2394 
L 2053 2394 
Q 2494 2394 2734 2622 
Q 2975 2850 2975 3272 
Q 2975 3691 2734 3919 
Q 2494 4147 2053 4147 
L 1259 4147 
z
M 628 4666 
L 2053 4666 
Q 2838 4666 3239 4311 
Q 3641 3956 3641 3272 
Q 3641 2581 3239 2228 
Q 2838 1875 2053 1875 
L 1259 1875 
L 1259 0 
L 628 0 
L 628 4666 
z
" transform="scale(0.015625)"/>
       <path id="DejaVuSans-5b" d="M 550 4863 
L 1875 4863 
L 1875 4416 
L 1125 4416 
L 1125 -397 
L 1875 -397 
L 1875 -844 
L 550 -844 
L 550 4863 
z
" transform="scale(0.015625)"/>
       <path id="DejaVuSans-6d" d="M 3328 2828 
Q 3544 3216 3844 3400 
Q 4144 3584 4550 3584 
Q 5097 3584 5394 3201 
Q 5691 2819 5691 2113 
L 5691 0 
L 5113 0 
L 5113 2094 
Q 5113 2597 4934 2840 
Q 4756 3084 4391 3084 
Q 3944 3084 3684 2787 
Q 3425 2491 3425 1978 
L 3425 0 
L 2847 0 
L 2847 2094 
Q 2847 2600 2669 2842 
Q 2491 3084 2119 3084 
Q 1678 3084 1418 2786 
Q 1159 2488 1159 1978 
L 1159 0 
L 581 0 
L 581 3500 
L 1159 3500 
L 1159 2956 
Q 1356 3278 1631 3431 
Q 1906 3584 2284 3584 
Q 2666 3584 2933 3390 
Q 3200 3197 3328 2828 
z
" transform="scale(0.015625)"/>
       <path id="DejaVuSans-5d" d="M 1947 4863 
L 1947 -844 
L 622 -844 
L 622 -397 
L 1369 -397 
L 1369 4416 
L 622 4416 
L 622 4863 
L 1947 4863 
z
" transform="scale(0.015625)"/>
      </defs>
      <use xlink:href="#DejaVuSans-54"/>
      <use xlink:href="#DejaVuSans-72" x="46.333984"/>
      <use xlink:href="#DejaVuSans-61" x="87.447266"/>
      <use xlink:href="#DejaVuSans-6e" x="148.726562"/>
      <use xlink:href="#DejaVuSans-73" x="212.105469"/>
      <use xlink:href="#DejaVuSans-6c" x="264.205078"/>
      <use xlink:href="#DejaVuSans-61" x="291.988281"/>
      <use xlink:href="#DejaVuSans-74" x="353.267578"/>
      <use xlink:href="#DejaVuSans-69" x="392.476562"/>
      <use xlink:href="#DejaVuSans-6f" x="420.259766"/>
      <use xlink:href="#DejaVuSans-6e" x="481.441406"/>
      <use xlink:href="#DejaVuSans-61" x="544.820312"/>
      <use xlink:href="#DejaVuSans-6c" x="606.099609"/>
      <use xlink:href="#DejaVuSans-20" x="633.882812"/>
      <use xlink:href="#DejaVuSans-50" x="665.669922"/>
      <use xlink:href="#DejaVuSans-6f" x="722.347656"/>
      <use xlink:href="#DejaVuSans-73" x="783.529297"/>
      <use xlink:href="#DejaVuSans-69" x="835.628906"/>
      <use xlink:href="#DejaVuSans-74" x="863.412109"/>
      <use xlink:href="#DejaVuSans-69" x="902.621094"/>
      <use xlink:href="#DejaVuSans-6f" x="930.404297"/>
      <use xlink:href="#DejaVuSans-6e" x="991.585938"/>
      <use xlink:href="#DejaVuSans-20" x="1054.964844"/>
      <use xlink:href="#DejaVuSans-5b" x="1086.751953"/>
      <use xlink:href="#DejaVuSans-6d" x="1125.765625"/>
      <use xlink:href="#DejaVuSans-6d" x="1223.177734"/>
      <use xlink:href="#DejaVuSans-5d" x="1320.589844"/>
     </g>
    </g>
   </g>
   <g id="matplotlib.axis_4">
    <g id="ytick_4">
     <g id="line2d_47">
      <path d="M 56.928125 275.415892 
L 450 275.415892 
" clip-path="url(#p1f259587c1)" style="fill: none; stroke: #b0b0b0; stroke-width: 0.8; stroke-linecap: square"/>
     </g>
     <g id="line2d_48">
      <g>
       <use xlink:href="#m1ae81bc4ba" x="56.928125" y="275.415892" style="stroke: #000000; stroke-width: 0.8"/>
      </g>
     </g>
     <g id="text_19">
      <!-- 100 -->
      <g transform="translate(30.840625 279.215111)scale(0.1 -0.1)">
       <use xlink:href="#DejaVuSans-31"/>
       <use xlink:href="#DejaVuSans-30" x="63.623047"/>
       <use xlink:href="#DejaVuSans-30" x="127.246094"/>
      </g>
     </g>
    </g>
    <g id="ytick_5">
     <g id="line2d_49">
      <path d="M 56.928125 233.52865 
L 450 233.52865 
" clip-path="url(#p1f259587c1)" style="fill: none; stroke: #b0b0b0; stroke-width: 0.8; stroke-linecap: square"/>
     </g>
     <g id="line2d_50">
      <g>
       <use xlink:href="#m1ae81bc4ba" x="56.928125" y="233.52865" style="stroke: #000000; stroke-width: 0.8"/>
      </g>
     </g>
     <g id="text_20">
      <!-- 200 -->
      <g transform="translate(30.840625 237.327869)scale(0.1 -0.1)">
       <use xlink:href="#DejaVuSans-32"/>
       <use xlink:href="#DejaVuSans-30" x="63.623047"/>
       <use xlink:href="#DejaVuSans-30" x="127.246094"/>
      </g>
     </g>
    </g>
    <g id="ytick_6">
     <g id="line2d_51">
      <path d="M 56.928125 191.641409 
L 450 191.641409 
" clip-path="url(#p1f259587c1)" style="fill: none; stroke: #b0b0b0; stroke-width: 0.8; stroke-linecap: square"/>
     </g>
     <g id="line2d_52">
      <g>
       <use xlink:href="#m1ae81bc4ba" x="56.928125" y="191.641409" style="stroke: #000000; stroke-width: 0.8"/>
      </g>
     </g>
     <g id="text_21">
      <!-- 300 -->
      <g transform="translate(30.840625 195.440628)scale(0.1 -0.1)">
       <use xlink:href="#DejaVuSans-33"/>
       <use xlink:href="#DejaVuSans-30" x="63.623047"/>
       <use xlink:href="#DejaVuSans-30" x="127.246094"/>
      </g>
     </g>
    </g>
    <g id="text_22">
     <!-- wall distance [mm] -->
     <g transform="translate(24.760938 295.708594)rotate(-90)scale(0.1 -0.1)">
      <use xlink:href="#DejaVuSans-77"/>
      <use xlink:href="#DejaVuSans-61" x="81.787109"/>
      <use xlink:href="#DejaVuSans-6c" x="143.066406"/>
      <use xlink:href="#DejaVuSans-6c" x="170.849609"/>
      <use xlink:href="#DejaVuSans-20" x="198.632812"/>
      <use xlink:href="#DejaVuSans-64" x="230.419922"/>
      <use xlink:href="#DejaVuSans-69" x="293.896484"/>
      <use xlink:href="#DejaVuSans-73" x="321.679688"/>
      <use xlink:href="#DejaVuSans-74" x="373.779297"/>
      <use xlink:href="#DejaVuSans-61" x="412.988281"/>
      <use xlink:href="#DejaVuSans-6e" x="474.267578"/>
      <use xlink:href="#DejaVuSans-63" x="537.646484"/>
      <use xlink:href="#DejaVuSans-65" x="592.626953"/>
      <use xlink:href="#DejaVuSans-20" x="654.150391"/>
      <use xlink:href="#DejaVuSans-5b" x="685.9375"/>
      <use xlink:href="#DejaVuSans-6d" x="724.951172"/>
      <use xlink:href="#DejaVuSans-6d" x="822.363281"/>
      <use xlink:href="#DejaVuSans-5d" x="919.775391"/>
     </g>
    </g>
   </g>
   <g id="line2d_53">
    <path d="M 74.795028 196.249006 
L 267.062761 196.249006 
L 267.658325 226.407819 
L 275.996213 226.407819 
L 276.591776 231.015416 
L 284.334101 231.015416 
L 284.929665 232.690906 
L 292.671989 232.690906 
L 293.267553 234.785268 
L 300.414314 234.785268 
L 301.009878 238.555119 
L 308.156639 238.555119 
L 308.752202 240.649481 
L 315.898964 240.649481 
L 316.494527 244.419333 
L 323.641289 244.419333 
L 324.236852 248.608057 
L 330.78805 248.608057 
L 331.383613 250.283547 
L 337.934811 250.283547 
L 338.530375 252.796781 
L 345.081573 252.796781 
L 345.677136 256.147761 
L 352.228334 256.147761 
L 352.823898 259.917612 
L 358.779532 259.917612 
L 359.375095 262.849719 
L 365.33073 262.849719 
L 365.926293 264.944081 
L 371.881928 264.944081 
L 372.477491 268.295061 
L 378.433126 268.295061 
L 379.028689 271.227168 
L 384.984324 271.227168 
L 385.579887 274.578147 
L 391.535522 274.578147 
L 392.131085 275.834764 
L 398.08672 275.834764 
L 398.682283 281.280106 
L 404.042354 281.280106 
L 404.637917 282.11785 
L 409.898728 282.11785 
L 410.494291 286.725447 
L 415.35806 286.725447 
L 415.854362 288.400937 
L 420.221828 288.400937 
L 420.718131 290.495299 
L 424.291511 290.495299 
L 424.688554 293.008533 
L 427.46785 293.008533 
L 427.765631 294.26515 
L 429.750843 294.26515 
L 430.048625 295.102895 
L 431.140491 295.102895 
L 431.339012 296.778385 
L 432.133097 296.778385 
L 432.133097 296.778385 
L 432.133097 299.291619 
L 432.133097 297.61613 
" clip-path="url(#p1f259587c1)" style="fill: none; stroke: #1f77b4; stroke-width: 1.5; stroke-linecap: square"/>
   </g>
   <g id="patch_9">
    <path d="M 56.928125 304.44375 
L 56.928125 191.096875 
" style="fill: none; stroke: #000000; stroke-width: 0.8; stroke-linejoin: miter; stroke-linecap: square"/>
   </g>
   <g id="patch_10">
    <path d="M 450 304.44375 
L 450 191.096875 
" style="fill: none; stroke: #000000; stroke-width: 0.8; stroke-linejoin: miter; stroke-linecap: square"/>
   </g>
   <g id="patch_11">
    <path d="M 56.928125 304.44375 
L 450 304.44375 
" style="fill: none; stroke: #000000; stroke-width: 0.8; stroke-linejoin: miter; stroke-linecap: square"/>
   </g>
   <g id="patch_12">
    <path d="M 56.928125 191.096875 
L 450 191.096875 
" style="fill: none; stroke: #000000; stroke-width: 0.8; stroke-linejoin: miter; stroke-linecap: square"/>
   </g>
   <g id="text_23">
    <!-- Front Wall Distance [mm] -->
    <g transform="translate(177.40375 185.096875)scale(0.12 -0.12)">
     <defs>
      <path id="DejaVuSans-57" d="M 213 4666 
L 850 4666 
L 1831 722 
L 2809 4666 
L 3519 4666 
L 4500 722 
L 5478 4666 
L 6119 4666 
L 4947 0 
L 4153 0 
L 3169 4050 
L 2175 0 
L 1381 0 
L 213 4666 
z
" transform="scale(0.015625)"/>
      <path id="DejaVuSans-44" d="M 1259 4147 
L 1259 519 
L 2022 519 
Q 2988 519 3436 956 
Q 3884 1394 3884 2338 
Q 3884 3275 3436 3711 
Q 2988 4147 2022 4147 
L 1259 4147 
z
M 628 4666 
L 1925 4666 
Q 3281 4666 3915 4102 
Q 4550 3538 4550 2338 
Q 4550 1131 3912 565 
Q 3275 0 1925 0 
L 628 0 
L 628 4666 
z
" transform="scale(0.015625)"/>
     </defs>
     <use xlink:href="#DejaVuSans-46"/>
     <use xlink:href="#DejaVuSans-72" x="50.269531"/>
     <use xlink:href="#DejaVuSans-6f" x="89.132812"/>
     <use xlink:href="#DejaVuSans-6e" x="150.314453"/>
     <use xlink:href="#DejaVuSans-74" x="213.693359"/>
     <use xlink:href="#DejaVuSans-20" x="252.902344"/>
     <use xlink:href="#DejaVuSans-57" x="284.689453"/>
     <use xlink:href="#DejaVuSans-61" x="377.191406"/>
     <use xlink:href="#DejaVuSans-6c" x="438.470703"/>
     <use xlink:href="#DejaVuSans-6c" x="466.253906"/>
     <use xlink:href="#DejaVuSans-20" x="494.037109"/>
     <use xlink:href="#DejaVuSans-44" x="525.824219"/>
     <use xlink:href="#DejaVuSans-69" x="602.826172"/>
     <use xlink:href="#DejaVuSans-73" x="630.609375"/>
     <use xlink:href="#DejaVuSans-74" x="682.708984"/>
     <use xlink:href="#DejaVuSans-61" x="721.917969"/>
     <use xlink:href="#DejaVuSans-6e" x="783.197266"/>
     <use xlink:href="#DejaVuSans-63" x="846.576172"/>
     <use xlink:href="#DejaVuSans-65" x="901.556641"/>
     <use xlink:href="#DejaVuSans-20" x="963.080078"/>
     <use xlink:href="#DejaVuSans-5b" x="994.867188"/>
     <use xlink:href="#DejaVuSans-6d" x="1033.880859"/>
     <use xlink:href="#DejaVuSans-6d" x="1131.292969"/>
     <use xlink:href="#DejaVuSans-5d" x="1228.705078"/>
    </g>
   </g>
   <g id="legend_2">
    <g id="patch_13">
     <path d="M 394.721875 213.775 
L 443 213.775 
Q 445 213.775 445 211.775 
L 445 198.096875 
Q 445 196.096875 443 196.096875 
L 394.721875 196.096875 
Q 392.721875 196.096875 392.721875 198.096875 
L 392.721875 211.775 
Q 392.721875 213.775 394.721875 213.775 
z
" style="fill: #ffffff; opacity: 0.8; stroke: #cccccc; stroke-linejoin: miter"/>
    </g>
    <g id="line2d_54">
     <path d="M 396.721875 204.195312 
L 406.721875 204.195312 
L 416.721875 204.195312 
" style="fill: none; stroke: #1f77b4; stroke-width: 1.5; stroke-linecap: square"/>
    </g>
    <g id="text_24">
     <!-- ToF -->
     <g transform="translate(424.721875 207.695312)scale(0.1 -0.1)">
      <use xlink:href="#DejaVuSans-54"/>
      <use xlink:href="#DejaVuSans-6f" x="44.083984"/>
      <use xlink:href="#DejaVuSans-46" x="105.265625"/>
     </g>
    </g>
   </g>
  </g>
  <g id="text_25">
   <!-- Reflector Raw Value and ToF Distance -->
   <g transform="translate(117.629063 16.030125)scale(0.12 -0.12)">
    <use xlink:href="#DejaVuSans-52"/>
    <use xlink:href="#DejaVuSans-65" x="64.982422"/>
    <use xlink:href="#DejaVuSans-66" x="126.505859"/>
    <use xlink:href="#DejaVuSans-6c" x="161.710938"/>
    <use xlink:href="#DejaVuSans-65" x="189.494141"/>
    <use xlink:href="#DejaVuSans-63" x="251.017578"/>
    <use xlink:href="#DejaVuSans-74" x="305.998047"/>
    <use xlink:href="#DejaVuSans-6f" x="345.207031"/>
    <use xlink:href="#DejaVuSans-72" x="406.388672"/>
    <use xlink:href="#DejaVuSans-20" x="447.501953"/>
    <use xlink:href="#DejaVuSans-52" x="479.289062"/>
    <use xlink:href="#DejaVuSans-61" x="546.521484"/>
    <use xlink:href="#DejaVuSans-77" x="607.800781"/>
    <use xlink:href="#DejaVuSans-20" x="689.587891"/>
    <use xlink:href="#DejaVuSans-56" x="721.375"/>
    <use xlink:href="#DejaVuSans-61" x="782.033203"/>
    <use xlink:href="#DejaVuSans-6c" x="843.3125"/>
    <use xlink:href="#DejaVuSans-75" x="871.095703"/>
    <use xlink:href="#DejaVuSans-65" x="934.474609"/>
    <use xlink:href="#DejaVuSans-20" x="995.998047"/>
    <use xlink:href="#DejaVuSans-61" x="1027.785156"/>
    <use xlink:href="#DejaVuSans-6e" x="1089.064453"/>
    <use xlink:href="#DejaVuSans-64" x="1152.443359"/>
    <use xlink:href="#DejaVuSans-20" x="1215.919922"/>
    <use xlink:href="#DejaVuSans-54" x="1247.707031"/>
    <use xlink:href="#DejaVuSans-6f" x="1291.791016"/>
    <use xlink:href="#DejaVuSans-46" x="1352.972656"/>
    <use xlink:href="#DejaVuSans-20" x="1410.492188"/>
    <use xlink:href="#DejaVuSans-44" x="1442.279297"/>
    <use xlink:href="#DejaVuSans-69" x="1519.28125"/>
    <use xlink:href="#DejaVuSans-73" x="1547.064453"/>
    <use xlink:href="#DejaVuSans-74" x="1599.164062"/>
    <use xlink:href="#DejaVuSans-61" x="1638.373047"/>
    <use xlink:href="#DejaVuSans-6e" x="1699.652344"/>
    <use xlink:href="#DejaVuSans-63" x="1763.03125"/>
    <use xlink:href="#DejaVuSans-65" x="1818.011719"/>
   </g>
  </g>
 </g>
 <defs>
  <clipPath id="p920e2bcfc8">
   <rect x="56.928125" y="48.331875" width="393.071875" height="113.346875"/>
  </clipPath>
  <clipPath id="p1f259587c1">
   <rect x="56.928125" y="191.096875" width="393.071875" height="113.346875"/>
  </clipPath>
 </defs>
</svg>
