<?xml version="1.0" encoding="utf-8" standalone="no"?>
<!DOCTYPE svg PUBLIC "-//W3C//DTD SVG 1.1//EN"
  "http://www.w3.org/Graphics/SVG/1.1/DTD/svg11.dtd">
<svg xmlns:xlink="http://www.w3.org/1999/xlink" width="460.8pt" height="345.6pt" viewBox="0 0 460.8 345.6" xmlns="http://www.w3.org/2000/svg" version="1.1">
 <metadata>
  <rdf:RDF xmlns:dc="http://purl.org/dc/elements/1.1/" xmlns:cc="http://creativecommons.org/ns#" xmlns:rdf="http://www.w3.org/1999/02/22-rdf-syntax-ns#">
   <cc:Work>
    <dc:type rdf:resource="http://purl.org/dc/dcmitype/StillImage"/>
    <dc:date>2022-01-16T03:35:30.041274</dc:date>
    <dc:format>image/svg+xml</dc:format>
    <dc:creator>
     <cc:Agent>
      <dc:title>Matplotlib v3.5.1, https://matplotlib.org/</dc:title>
     </cc:Agent>
    </dc:creator>
   </cc:Work>
  </rdf:RDF>
 </metadata>
 <defs>
  <style type="text/css">*{stroke-linejoin: round; stroke-linecap: butt}</style>
 </defs>
 <g id="figure_1">
  <g id="patch_1">
   <path d="M 0 345.6 
L 460.8 345.6 
L 460.8 0 
L 0 0 
z
" style="fill: #ffffff"/>
  </g>
  <g id="axes_1">
   <g id="patch_2">
    <path d="M 52.582813 304.44375 
L 450 304.44375 
L 450 25.918125 
L 52.582813 25.918125 
z
" style="fill: #ffffff"/>
   </g>
   <g id="matplotlib.axis_1">
    <g id="xtick_1">
     <g id="line2d_1">
      <path d="M 70.64723 304.44375 
L 70.64723 25.918125 
" clip-path="url(#p917edf067b)" style="fill: none; stroke: #b0b0b0; stroke-width: 0.8; stroke-linecap: square"/>
     </g>
     <g id="line2d_2">
      <defs>
       <path id="mec339d6195" d="M 0 0 
L 0 3.5 
" style="stroke: #000000; stroke-width: 0.8"/>
      </defs>
      <g>
       <use xlink:href="#mec339d6195" x="70.64723" y="304.44375" style="stroke: #000000; stroke-width: 0.8"/>
      </g>
     </g>
     <g id="text_1">
      <!-- 0 -->
      <g transform="translate(67.46598 319.042187)scale(0.1 -0.1)">
       <defs>
        <path id="DejaVuSans-30" d="M 2034 4250 
Q 1547 4250 1301 3770 
Q 1056 3291 1056 2328 
Q 1056 1369 1301 889 
Q 1547 409 2034 409 
Q 2525 409 2770 889 
Q 3016 1369 3016 2328 
Q 3016 3291 2770 3770 
Q 2525 4250 2034 4250 
z
M 2034 4750 
Q 2819 4750 3233 4129 
Q 3647 3509 3647 2328 
Q 3647 1150 3233 529 
Q 2819 -91 2034 -91 
Q 1250 -91 836 529 
Q 422 1150 422 2328 
Q 422 3509 836 4129 
Q 1250 4750 2034 4750 
z
" transform="scale(0.015625)"/>
       </defs>
       <use xlink:href="#DejaVuSans-30"/>
      </g>
     </g>
    </g>
    <g id="xtick_2">
     <g id="line2d_3">
      <path d="M 150.933531 304.44375 
L 150.933531 25.918125 
" clip-path="url(#p917edf067b)" style="fill: none; stroke: #b0b0b0; stroke-width: 0.8; stroke-linecap: square"/>
     </g>
     <g id="line2d_4">
      <g>
       <use xlink:href="#mec339d6195" x="150.933531" y="304.44375" style="stroke: #000000; stroke-width: 0.8"/>
      </g>
     </g>
     <g id="text_2">
      <!-- 100 -->
      <g transform="translate(141.389781 319.042187)scale(0.1 -0.1)">
       <defs>
        <path id="DejaVuSans-31" d="M 794 531 
L 1825 531 
L 1825 4091 
L 703 3866 
L 703 4441 
L 1819 4666 
L 2450 4666 
L 2450 531 
L 3481 531 
L 3481 0 
L 794 0 
L 794 531 
z
" transform="scale(0.015625)"/>
       </defs>
       <use xlink:href="#DejaVuSans-31"/>
       <use xlink:href="#DejaVuSans-30" x="63.623047"/>
       <use xlink:href="#DejaVuSans-30" x="127.246094"/>
      </g>
     </g>
    </g>
    <g id="xtick_3">
     <g id="line2d_5">
      <path d="M 231.219831 304.44375 
L 231.219831 25.918125 
" clip-path="url(#p917edf067b)" style="fill: none; stroke: #b0b0b0; stroke-width: 0.8; stroke-linecap: square"/>
     </g>
     <g id="line2d_6">
      <g>
       <use xlink:href="#mec339d6195" x="231.219831" y="304.44375" style="stroke: #000000; stroke-width: 0.8"/>
      </g>
     </g>
     <g id="text_3">
      <!-- 200 -->
      <g transform="translate(221.676081 319.042187)scale(0.1 -0.1)">
       <defs>
        <path id="DejaVuSans-32" d="M 1228 531 
L 3431 531 
L 3431 0 
L 469 0 
L 469 531 
Q 828 903 1448 1529 
Q 2069 2156 2228 2338 
Q 2531 2678 2651 2914 
Q 2772 3150 2772 3378 
Q 2772 3750 2511 3984 
Q 2250 4219 1831 4219 
Q 1534 4219 1204 4116 
Q 875 4013 500 3803 
L 500 4441 
Q 881 4594 1212 4672 
Q 1544 4750 1819 4750 
Q 2544 4750 2975 4387 
Q 3406 4025 3406 3419 
Q 3406 3131 3298 2873 
Q 3191 2616 2906 2266 
Q 2828 2175 2409 1742 
Q 1991 1309 1228 531 
z
" transform="scale(0.015625)"/>
       </defs>
       <use xlink:href="#DejaVuSans-32"/>
       <use xlink:href="#DejaVuSans-30" x="63.623047"/>
       <use xlink:href="#DejaVuSans-30" x="127.246094"/>
      </g>
     </g>
    </g>
    <g id="xtick_4">
     <g id="line2d_7">
      <path d="M 311.506132 304.44375 
L 311.506132 25.918125 
" clip-path="url(#p917edf067b)" style="fill: none; stroke: #b0b0b0; stroke-width: 0.8; stroke-linecap: square"/>
     </g>
     <g id="line2d_8">
      <g>
       <use xlink:href="#mec339d6195" x="311.506132" y="304.44375" style="stroke: #000000; stroke-width: 0.8"/>
      </g>
     </g>
     <g id="text_4">
      <!-- 300 -->
      <g transform="translate(301.962382 319.042187)scale(0.1 -0.1)">
       <defs>
        <path id="DejaVuSans-33" d="M 2597 2516 
Q 3050 2419 3304 2112 
Q 3559 1806 3559 1356 
Q 3559 666 3084 287 
Q 2609 -91 1734 -91 
Q 1441 -91 1130 -33 
Q 819 25 488 141 
L 488 750 
Q 750 597 1062 519 
Q 1375 441 1716 441 
Q 2309 441 2620 675 
Q 2931 909 2931 1356 
Q 2931 1769 2642 2001 
Q 2353 2234 1838 2234 
L 1294 2234 
L 1294 2753 
L 1863 2753 
Q 2328 2753 2575 2939 
Q 2822 3125 2822 3475 
Q 2822 3834 2567 4026 
Q 2313 4219 1838 4219 
Q 1578 4219 1281 4162 
Q 984 4106 628 3988 
L 628 4550 
Q 988 4650 1302 4700 
Q 1616 4750 1894 4750 
Q 2613 4750 3031 4423 
Q 3450 4097 3450 3541 
Q 3450 3153 3228 2886 
Q 3006 2619 2597 2516 
z
" transform="scale(0.015625)"/>
       </defs>
       <use xlink:href="#DejaVuSans-33"/>
       <use xlink:href="#DejaVuSans-30" x="63.623047"/>
       <use xlink:href="#DejaVuSans-30" x="127.246094"/>
      </g>
     </g>
    </g>
    <g id="xtick_5">
     <g id="line2d_9">
      <path d="M 391.792432 304.44375 
L 391.792432 25.918125 
" clip-path="url(#p917edf067b)" style="fill: none; stroke: #b0b0b0; stroke-width: 0.8; stroke-linecap: square"/>
     </g>
     <g id="line2d_10">
      <g>
       <use xlink:href="#mec339d6195" x="391.792432" y="304.44375" style="stroke: #000000; stroke-width: 0.8"/>
      </g>
     </g>
     <g id="text_5">
      <!-- 400 -->
      <g transform="translate(382.248682 319.042187)scale(0.1 -0.1)">
       <defs>
        <path id="DejaVuSans-34" d="M 2419 4116 
L 825 1625 
L 2419 1625 
L 2419 4116 
z
M 2253 4666 
L 3047 4666 
L 3047 1625 
L 3713 1625 
L 3713 1100 
L 3047 1100 
L 3047 0 
L 2419 0 
L 2419 1100 
L 313 1100 
L 313 1709 
L 2253 4666 
z
" transform="scale(0.015625)"/>
       </defs>
       <use xlink:href="#DejaVuSans-34"/>
       <use xlink:href="#DejaVuSans-30" x="63.623047"/>
       <use xlink:href="#DejaVuSans-30" x="127.246094"/>
      </g>
     </g>
    </g>
    <g id="text_6">
     <!-- Translational Position [mm] -->
     <g transform="translate(183.314062 332.720312)scale(0.1 -0.1)">
      <defs>
       <path id="DejaVuSans-54" d="M -19 4666 
L 3928 4666 
L 3928 4134 
L 2272 4134 
L 2272 0 
L 1638 0 
L 1638 4134 
L -19 4134 
L -19 4666 
z
" transform="scale(0.015625)"/>
       <path id="DejaVuSans-72" d="M 2631 2963 
Q 2534 3019 2420 3045 
Q 2306 3072 2169 3072 
Q 1681 3072 1420 2755 
Q 1159 2438 1159 1844 
L 1159 0 
L 581 0 
L 581 3500 
L 1159 3500 
L 1159 2956 
Q 1341 3275 1631 3429 
Q 1922 3584 2338 3584 
Q 2397 3584 2469 3576 
Q 2541 3569 2628 3553 
L 2631 2963 
z
" transform="scale(0.015625)"/>
       <path id="DejaVuSans-61" d="M 2194 1759 
Q 1497 1759 1228 1600 
Q 959 1441 959 1056 
Q 959 750 1161 570 
Q 1363 391 1709 391 
Q 2188 391 2477 730 
Q 2766 1069 2766 1631 
L 2766 1759 
L 2194 1759 
z
M 3341 1997 
L 3341 0 
L 2766 0 
L 2766 531 
Q 2569 213 2275 61 
Q 1981 -91 1556 -91 
Q 1019 -91 701 211 
Q 384 513 384 1019 
Q 384 1609 779 1909 
Q 1175 2209 1959 2209 
L 2766 2209 
L 2766 2266 
Q 2766 2663 2505 2880 
Q 2244 3097 1772 3097 
Q 1472 3097 1187 3025 
Q 903 2953 641 2809 
L 641 3341 
Q 956 3463 1253 3523 
Q 1550 3584 1831 3584 
Q 2591 3584 2966 3190 
Q 3341 2797 3341 1997 
z
" transform="scale(0.015625)"/>
       <path id="DejaVuSans-6e" d="M 3513 2113 
L 3513 0 
L 2938 0 
L 2938 2094 
Q 2938 2591 2744 2837 
Q 2550 3084 2163 3084 
Q 1697 3084 1428 2787 
Q 1159 2491 1159 1978 
L 1159 0 
L 581 0 
L 581 3500 
L 1159 3500 
L 1159 2956 
Q 1366 3272 1645 3428 
Q 1925 3584 2291 3584 
Q 2894 3584 3203 3211 
Q 3513 2838 3513 2113 
z
" transform="scale(0.015625)"/>
       <path id="DejaVuSans-73" d="M 2834 3397 
L 2834 2853 
Q 2591 2978 2328 3040 
Q 2066 3103 1784 3103 
Q 1356 3103 1142 2972 
Q 928 2841 928 2578 
Q 928 2378 1081 2264 
Q 1234 2150 1697 2047 
L 1894 2003 
Q 2506 1872 2764 1633 
Q 3022 1394 3022 966 
Q 3022 478 2636 193 
Q 2250 -91 1575 -91 
Q 1294 -91 989 -36 
Q 684 19 347 128 
L 347 722 
Q 666 556 975 473 
Q 1284 391 1588 391 
Q 1994 391 2212 530 
Q 2431 669 2431 922 
Q 2431 1156 2273 1281 
Q 2116 1406 1581 1522 
L 1381 1569 
Q 847 1681 609 1914 
Q 372 2147 372 2553 
Q 372 3047 722 3315 
Q 1072 3584 1716 3584 
Q 2034 3584 2315 3537 
Q 2597 3491 2834 3397 
z
" transform="scale(0.015625)"/>
       <path id="DejaVuSans-6c" d="M 603 4863 
L 1178 4863 
L 1178 0 
L 603 0 
L 603 4863 
z
" transform="scale(0.015625)"/>
       <path id="DejaVuSans-74" d="M 1172 4494 
L 1172 3500 
L 2356 3500 
L 2356 3053 
L 1172 3053 
L 1172 1153 
Q 1172 725 1289 603 
Q 1406 481 1766 481 
L 2356 481 
L 2356 0 
L 1766 0 
Q 1100 0 847 248 
Q 594 497 594 1153 
L 594 3053 
L 172 3053 
L 172 3500 
L 594 3500 
L 594 4494 
L 1172 4494 
z
" transform="scale(0.015625)"/>
       <path id="DejaVuSans-69" d="M 603 3500 
L 1178 3500 
L 1178 0 
L 603 0 
L 603 3500 
z
M 603 4863 
L 1178 4863 
L 1178 4134 
L 603 4134 
L 603 4863 
z
" transform="scale(0.015625)"/>
       <path id="DejaVuSans-6f" d="M 1959 3097 
Q 1497 3097 1228 2736 
Q 959 2375 959 1747 
Q 959 1119 1226 758 
Q 1494 397 1959 397 
Q 2419 397 2687 759 
Q 2956 1122 2956 1747 
Q 2956 2369 2687 2733 
Q 2419 3097 1959 3097 
z
M 1959 3584 
Q 2709 3584 3137 3096 
Q 3566 2609 3566 1747 
Q 3566 888 3137 398 
Q 2709 -91 1959 -91 
Q 1206 -91 779 398 
Q 353 888 353 1747 
Q 353 2609 779 3096 
Q 1206 3584 1959 3584 
z
" transform="scale(0.015625)"/>
       <path id="DejaVuSans-20" transform="scale(0.015625)"/>
       <path id="DejaVuSans-50" d="M 1259 4147 
L 1259 2394 
L 2053 2394 
Q 2494 2394 2734 2622 
Q 2975 2850 2975 3272 
Q 2975 3691 2734 3919 
Q 2494 4147 2053 4147 
L 1259 4147 
z
M 628 4666 
L 2053 4666 
Q 2838 4666 3239 4311 
Q 3641 3956 3641 3272 
Q 3641 2581 3239 2228 
Q 2838 1875 2053 1875 
L 1259 1875 
L 1259 0 
L 628 0 
L 628 4666 
z
" transform="scale(0.015625)"/>
       <path id="DejaVuSans-5b" d="M 550 4863 
L 1875 4863 
L 1875 4416 
L 1125 4416 
L 1125 -397 
L 1875 -397 
L 1875 -844 
L 550 -844 
L 550 4863 
z
" transform="scale(0.015625)"/>
       <path id="DejaVuSans-6d" d="M 3328 2828 
Q 3544 3216 3844 3400 
Q 4144 3584 4550 3584 
Q 5097 3584 5394 3201 
Q 5691 2819 5691 2113 
L 5691 0 
L 5113 0 
L 5113 2094 
Q 5113 2597 4934 2840 
Q 4756 3084 4391 3084 
Q 3944 3084 3684 2787 
Q 3425 2491 3425 1978 
L 3425 0 
L 2847 0 
L 2847 2094 
Q 2847 2600 2669 2842 
Q 2491 3084 2119 3084 
Q 1678 3084 1418 2786 
Q 1159 2488 1159 1978 
L 1159 0 
L 581 0 
L 581 3500 
L 1159 3500 
L 1159 2956 
Q 1356 3278 1631 3431 
Q 1906 3584 2284 3584 
Q 2666 3584 2933 3390 
Q 3200 3197 3328 2828 
z
" transform="scale(0.015625)"/>
       <path id="DejaVuSans-5d" d="M 1947 4863 
L 1947 -844 
L 622 -844 
L 622 -397 
L 1369 -397 
L 1369 4416 
L 622 4416 
L 622 4863 
L 1947 4863 
z
" transform="scale(0.015625)"/>
      </defs>
      <use xlink:href="#DejaVuSans-54"/>
      <use xlink:href="#DejaVuSans-72" x="46.333984"/>
      <use xlink:href="#DejaVuSans-61" x="87.447266"/>
      <use xlink:href="#DejaVuSans-6e" x="148.726562"/>
      <use xlink:href="#DejaVuSans-73" x="212.105469"/>
      <use xlink:href="#DejaVuSans-6c" x="264.205078"/>
      <use xlink:href="#DejaVuSans-61" x="291.988281"/>
      <use xlink:href="#DejaVuSans-74" x="353.267578"/>
      <use xlink:href="#DejaVuSans-69" x="392.476562"/>
      <use xlink:href="#DejaVuSans-6f" x="420.259766"/>
      <use xlink:href="#DejaVuSans-6e" x="481.441406"/>
      <use xlink:href="#DejaVuSans-61" x="544.820312"/>
      <use xlink:href="#DejaVuSans-6c" x="606.099609"/>
      <use xlink:href="#DejaVuSans-20" x="633.882812"/>
      <use xlink:href="#DejaVuSans-50" x="665.669922"/>
      <use xlink:href="#DejaVuSans-6f" x="722.347656"/>
      <use xlink:href="#DejaVuSans-73" x="783.529297"/>
      <use xlink:href="#DejaVuSans-69" x="835.628906"/>
      <use xlink:href="#DejaVuSans-74" x="863.412109"/>
      <use xlink:href="#DejaVuSans-69" x="902.621094"/>
      <use xlink:href="#DejaVuSans-6f" x="930.404297"/>
      <use xlink:href="#DejaVuSans-6e" x="991.585938"/>
      <use xlink:href="#DejaVuSans-20" x="1054.964844"/>
      <use xlink:href="#DejaVuSans-5b" x="1086.751953"/>
      <use xlink:href="#DejaVuSans-6d" x="1125.765625"/>
      <use xlink:href="#DejaVuSans-6d" x="1223.177734"/>
      <use xlink:href="#DejaVuSans-5d" x="1320.589844"/>
     </g>
    </g>
   </g>
   <g id="matplotlib.axis_2">
    <g id="ytick_1">
     <g id="line2d_11">
      <path d="M 52.582813 301.452046 
L 450 301.452046 
" clip-path="url(#p917edf067b)" style="fill: none; stroke: #b0b0b0; stroke-width: 0.8; stroke-linecap: square"/>
     </g>
     <g id="line2d_12">
      <defs>
       <path id="m24b2e315c4" d="M 0 0 
L -3.5 0 
" style="stroke: #000000; stroke-width: 0.8"/>
      </defs>
      <g>
       <use xlink:href="#m24b2e315c4" x="52.582813" y="301.452046" style="stroke: #000000; stroke-width: 0.8"/>
      </g>
     </g>
     <g id="text_7">
      <!-- −20 -->
      <g transform="translate(24.478125 305.251265)scale(0.1 -0.1)">
       <defs>
        <path id="DejaVuSans-2212" d="M 678 2272 
L 4684 2272 
L 4684 1741 
L 678 1741 
L 678 2272 
z
" transform="scale(0.015625)"/>
       </defs>
       <use xlink:href="#DejaVuSans-2212"/>
       <use xlink:href="#DejaVuSans-32" x="83.789062"/>
       <use xlink:href="#DejaVuSans-30" x="147.412109"/>
      </g>
     </g>
    </g>
    <g id="ytick_2">
     <g id="line2d_13">
      <path d="M 52.582813 248.618429 
L 450 248.618429 
" clip-path="url(#p917edf067b)" style="fill: none; stroke: #b0b0b0; stroke-width: 0.8; stroke-linecap: square"/>
     </g>
     <g id="line2d_14">
      <g>
       <use xlink:href="#m24b2e315c4" x="52.582813" y="248.618429" style="stroke: #000000; stroke-width: 0.8"/>
      </g>
     </g>
     <g id="text_8">
      <!-- 0 -->
      <g transform="translate(39.220313 252.417647)scale(0.1 -0.1)">
       <use xlink:href="#DejaVuSans-30"/>
      </g>
     </g>
    </g>
    <g id="ytick_3">
     <g id="line2d_15">
      <path d="M 52.582813 195.784811 
L 450 195.784811 
" clip-path="url(#p917edf067b)" style="fill: none; stroke: #b0b0b0; stroke-width: 0.8; stroke-linecap: square"/>
     </g>
     <g id="line2d_16">
      <g>
       <use xlink:href="#m24b2e315c4" x="52.582813" y="195.784811" style="stroke: #000000; stroke-width: 0.8"/>
      </g>
     </g>
     <g id="text_9">
      <!-- 20 -->
      <g transform="translate(32.857813 199.584029)scale(0.1 -0.1)">
       <use xlink:href="#DejaVuSans-32"/>
       <use xlink:href="#DejaVuSans-30" x="63.623047"/>
      </g>
     </g>
    </g>
    <g id="ytick_4">
     <g id="line2d_17">
      <path d="M 52.582813 142.951193 
L 450 142.951193 
" clip-path="url(#p917edf067b)" style="fill: none; stroke: #b0b0b0; stroke-width: 0.8; stroke-linecap: square"/>
     </g>
     <g id="line2d_18">
      <g>
       <use xlink:href="#m24b2e315c4" x="52.582813" y="142.951193" style="stroke: #000000; stroke-width: 0.8"/>
      </g>
     </g>
     <g id="text_10">
      <!-- 40 -->
      <g transform="translate(32.857813 146.750412)scale(0.1 -0.1)">
       <use xlink:href="#DejaVuSans-34"/>
       <use xlink:href="#DejaVuSans-30" x="63.623047"/>
      </g>
     </g>
    </g>
    <g id="ytick_5">
     <g id="line2d_19">
      <path d="M 52.582813 90.117575 
L 450 90.117575 
" clip-path="url(#p917edf067b)" style="fill: none; stroke: #b0b0b0; stroke-width: 0.8; stroke-linecap: square"/>
     </g>
     <g id="line2d_20">
      <g>
       <use xlink:href="#m24b2e315c4" x="52.582813" y="90.117575" style="stroke: #000000; stroke-width: 0.8"/>
      </g>
     </g>
     <g id="text_11">
      <!-- 60 -->
      <g transform="translate(32.857813 93.916794)scale(0.1 -0.1)">
       <defs>
        <path id="DejaVuSans-36" d="M 2113 2584 
Q 1688 2584 1439 2293 
Q 1191 2003 1191 1497 
Q 1191 994 1439 701 
Q 1688 409 2113 409 
Q 2538 409 2786 701 
Q 3034 994 3034 1497 
Q 3034 2003 2786 2293 
Q 2538 2584 2113 2584 
z
M 3366 4563 
L 3366 3988 
Q 3128 4100 2886 4159 
Q 2644 4219 2406 4219 
Q 1781 4219 1451 3797 
Q 1122 3375 1075 2522 
Q 1259 2794 1537 2939 
Q 1816 3084 2150 3084 
Q 2853 3084 3261 2657 
Q 3669 2231 3669 1497 
Q 3669 778 3244 343 
Q 2819 -91 2113 -91 
Q 1303 -91 875 529 
Q 447 1150 447 2328 
Q 447 3434 972 4092 
Q 1497 4750 2381 4750 
Q 2619 4750 2861 4703 
Q 3103 4656 3366 4563 
z
" transform="scale(0.015625)"/>
       </defs>
       <use xlink:href="#DejaVuSans-36"/>
       <use xlink:href="#DejaVuSans-30" x="63.623047"/>
      </g>
     </g>
    </g>
    <g id="ytick_6">
     <g id="line2d_21">
      <path d="M 52.582813 37.283957 
L 450 37.283957 
" clip-path="url(#p917edf067b)" style="fill: none; stroke: #b0b0b0; stroke-width: 0.8; stroke-linecap: square"/>
     </g>
     <g id="line2d_22">
      <g>
       <use xlink:href="#m24b2e315c4" x="52.582813" y="37.283957" style="stroke: #000000; stroke-width: 0.8"/>
      </g>
     </g>
     <g id="text_12">
      <!-- 80 -->
      <g transform="translate(32.857813 41.083176)scale(0.1 -0.1)">
       <defs>
        <path id="DejaVuSans-38" d="M 2034 2216 
Q 1584 2216 1326 1975 
Q 1069 1734 1069 1313 
Q 1069 891 1326 650 
Q 1584 409 2034 409 
Q 2484 409 2743 651 
Q 3003 894 3003 1313 
Q 3003 1734 2745 1975 
Q 2488 2216 2034 2216 
z
M 1403 2484 
Q 997 2584 770 2862 
Q 544 3141 544 3541 
Q 544 4100 942 4425 
Q 1341 4750 2034 4750 
Q 2731 4750 3128 4425 
Q 3525 4100 3525 3541 
Q 3525 3141 3298 2862 
Q 3072 2584 2669 2484 
Q 3125 2378 3379 2068 
Q 3634 1759 3634 1313 
Q 3634 634 3220 271 
Q 2806 -91 2034 -91 
Q 1263 -91 848 271 
Q 434 634 434 1313 
Q 434 1759 690 2068 
Q 947 2378 1403 2484 
z
M 1172 3481 
Q 1172 3119 1398 2916 
Q 1625 2713 2034 2713 
Q 2441 2713 2670 2916 
Q 2900 3119 2900 3481 
Q 2900 3844 2670 4047 
Q 2441 4250 2034 4250 
Q 1625 4250 1398 4047 
Q 1172 3844 1172 3481 
z
" transform="scale(0.015625)"/>
       </defs>
       <use xlink:href="#DejaVuSans-38"/>
       <use xlink:href="#DejaVuSans-30" x="63.623047"/>
      </g>
     </g>
    </g>
    <g id="text_13">
     <!-- Wall Distance [mm] -->
     <g transform="translate(18.398438 214.330937)rotate(-90)scale(0.1 -0.1)">
      <defs>
       <path id="DejaVuSans-57" d="M 213 4666 
L 850 4666 
L 1831 722 
L 2809 4666 
L 3519 4666 
L 4500 722 
L 5478 4666 
L 6119 4666 
L 4947 0 
L 4153 0 
L 3169 4050 
L 2175 0 
L 1381 0 
L 213 4666 
z
" transform="scale(0.015625)"/>
       <path id="DejaVuSans-44" d="M 1259 4147 
L 1259 519 
L 2022 519 
Q 2988 519 3436 956 
Q 3884 1394 3884 2338 
Q 3884 3275 3436 3711 
Q 2988 4147 2022 4147 
L 1259 4147 
z
M 628 4666 
L 1925 4666 
Q 3281 4666 3915 4102 
Q 4550 3538 4550 2338 
Q 4550 1131 3912 565 
Q 3275 0 1925 0 
L 628 0 
L 628 4666 
z
" transform="scale(0.015625)"/>
       <path id="DejaVuSans-63" d="M 3122 3366 
L 3122 2828 
Q 2878 2963 2633 3030 
Q 2388 3097 2138 3097 
Q 1578 3097 1268 2742 
Q 959 2388 959 1747 
Q 959 1106 1268 751 
Q 1578 397 2138 397 
Q 2388 397 2633 464 
Q 2878 531 3122 666 
L 3122 134 
Q 2881 22 2623 -34 
Q 2366 -91 2075 -91 
Q 1284 -91 818 406 
Q 353 903 353 1747 
Q 353 2603 823 3093 
Q 1294 3584 2113 3584 
Q 2378 3584 2631 3529 
Q 2884 3475 3122 3366 
z
" transform="scale(0.015625)"/>
       <path id="DejaVuSans-65" d="M 3597 1894 
L 3597 1613 
L 953 1613 
Q 991 1019 1311 708 
Q 1631 397 2203 397 
Q 2534 397 2845 478 
Q 3156 559 3463 722 
L 3463 178 
Q 3153 47 2828 -22 
Q 2503 -91 2169 -91 
Q 1331 -91 842 396 
Q 353 884 353 1716 
Q 353 2575 817 3079 
Q 1281 3584 2069 3584 
Q 2775 3584 3186 3129 
Q 3597 2675 3597 1894 
z
M 3022 2063 
Q 3016 2534 2758 2815 
Q 2500 3097 2075 3097 
Q 1594 3097 1305 2825 
Q 1016 2553 972 2059 
L 3022 2063 
z
" transform="scale(0.015625)"/>
      </defs>
      <use xlink:href="#DejaVuSans-57"/>
      <use xlink:href="#DejaVuSans-61" x="92.501953"/>
      <use xlink:href="#DejaVuSans-6c" x="153.78125"/>
      <use xlink:href="#DejaVuSans-6c" x="181.564453"/>
      <use xlink:href="#DejaVuSans-20" x="209.347656"/>
      <use xlink:href="#DejaVuSans-44" x="241.134766"/>
      <use xlink:href="#DejaVuSans-69" x="318.136719"/>
      <use xlink:href="#DejaVuSans-73" x="345.919922"/>
      <use xlink:href="#DejaVuSans-74" x="398.019531"/>
      <use xlink:href="#DejaVuSans-61" x="437.228516"/>
      <use xlink:href="#DejaVuSans-6e" x="498.507812"/>
      <use xlink:href="#DejaVuSans-63" x="561.886719"/>
      <use xlink:href="#DejaVuSans-65" x="616.867188"/>
      <use xlink:href="#DejaVuSans-20" x="678.390625"/>
      <use xlink:href="#DejaVuSans-5b" x="710.177734"/>
      <use xlink:href="#DejaVuSans-6d" x="749.191406"/>
      <use xlink:href="#DejaVuSans-6d" x="846.603516"/>
      <use xlink:href="#DejaVuSans-5d" x="944.015625"/>
     </g>
    </g>
   </g>
   <g id="line2d_23">
    <path d="M 70.64723 218.107014 
L 70.702724 218.582517 
L 70.647487 217.948513 
L 70.755617 218.107014 
L 70.778739 218.107014 
L 70.904146 218.265515 
L 70.989169 218.265515 
L 71.037984 218.714601 
L 71.091213 218.424016 
L 71.211643 218.714601 
L 71.279324 218.582517 
L 71.514322 218.873102 
L 71.699784 218.873102 
L 71.909331 219.480688 
L 72.02414 219.190103 
L 72.145372 219.639189 
L 72.273831 219.639189 
L 72.409514 219.322187 
L 72.701757 219.929774 
L 72.859118 219.929774 
L 73.560017 221.224198 
L 73.753507 221.224198 
L 74.376529 221.646867 
L 74.598922 221.646867 
L 74.828541 222.069536 
L 75.064582 222.206903 
L 75.308653 222.206903 
L 75.818471 223.42736 
L 76.083416 223.42736 
L 76.356389 223.559444 
L 77.217861 224.988593 
L 78.145168 225.744114 
L 78.467919 225.868273 
L 78.79629 226.60266 
L 79.133492 226.724177 
L 79.831983 227.7967 
L 80.193271 228.145402 
L 80.562588 228.83488 
L 84.1273 233.101195 
L 84.544789 233.299321 
L 85.411881 234.572611 
L 85.845427 234.953013 
L 86.287001 235.613433 
L 86.728576 235.89081 
L 88.085415 237.425627 
L 88.543046 237.864146 
L 89.000678 238.6408 
L 90.405689 240.302417 
L 90.871349 240.867737 
L 91.345038 241.263989 
L 92.292417 242.34972 
L 92.774135 242.730122 
L 93.255852 243.40375 
L 93.729542 243.844911 
L 95.174695 245.834097 
L 95.656413 246.178308 
L 97.101566 248.425084 
L 98.065002 249.680648 
L 98.54672 250.109393 
L 99.028437 251.069644 
L 99.991873 252.176773 
L 100.955309 253.743289 
L 102.400462 255.502649 
L 105.290769 259.333086 
L 105.772487 259.840289 
L 106.735922 261.316989 
L 107.699358 262.521595 
L 111.5531 268.016291 
L 113.961689 272.464882 
L 117.815432 278.57509 
L 118.297149 279.288344 
L 118.778867 279.711013 
L 119.260585 280.292182 
L 121.187456 281.665856 
L 123.596045 283.409366 
L 124.559481 284.730206 
L 125.522917 285.707628 
L 127.931506 287.451138 
L 128.894941 287.028469 
L 129.376659 286.500133 
L 129.858377 285.575544 
L 130.821812 282.431944 
L 131.30353 280.265766 
L 132.266966 274.129141 
L 133.712119 261.578515 
L 134.675555 251.010471 
L 136.602426 222.756373 
L 137.565862 207.408207 
L 138.047579 203.340018 
L 138.529297 196.735816 
L 139.011015 193.697883 
L 139.492733 189.629694 
L 140.456168 183.791579 
L 140.937886 183.791579 
L 141.419604 182.470739 
L 141.901322 181.572567 
L 142.38304 180.198893 
L 142.864757 179.723391 
L 143.346475 178.745969 
L 143.828193 178.24405 
L 144.309911 178.745969 
L 144.791629 177.74213 
L 145.273346 178.745969 
L 145.755064 177.74213 
L 146.236782 179.221471 
L 147.200218 180.198893 
L 147.681935 181.572567 
L 148.163653 180.647979 
L 148.645371 181.572567 
L 149.127089 182.919825 
L 149.608807 180.647979 
L 150.090524 181.572567 
L 150.572242 181.572567 
L 151.094103 182.919825 
L 151.575821 182.470739 
L 153.020974 183.791579 
L 155.429563 183.791579 
L 155.911281 185.033169 
L 156.392999 184.6105 
L 156.874717 185.85209 
L 158.31987 188.17677 
L 158.801588 189.629694 
L 159.283306 189.629694 
L 160.246741 191.056202 
L 160.728459 191.056202 
L 161.210177 191.716622 
L 161.691895 193.380881 
L 162.173613 193.697883 
L 162.65533 193.697883 
L 163.137048 194.622471 
L 163.618766 195.256474 
L 164.100484 195.256474 
L 164.582202 195.547059 
L 165.06392 196.735816 
L 165.545637 197.316986 
L 166.027355 196.735816 
L 166.509073 198.981245 
L 166.990791 199.535998 
L 167.954226 200.064334 
L 168.435944 201.094589 
L 169.39938 203.815521 
L 169.881098 203.815521 
L 170.362815 204.528774 
L 170.844533 204.740109 
L 171.807969 206.774203 
L 172.771404 207.619541 
L 173.73484 209.2838 
L 174.216558 209.680052 
L 174.698276 210.472556 
L 175.179993 210.657474 
L 175.661711 210.657474 
L 176.625147 211.793397 
L 177.106865 213.087821 
L 177.588582 213.616157 
L 178.0703 214.487911 
L 178.471732 214.83133 
L 178.953449 216.337088 
L 179.435167 216.337088 
L 179.916885 217.948513 
L 180.398603 218.582517 
L 180.880321 219.639189 
L 181.843756 221.224198 
L 182.325474 221.224198 
L 184.734063 225.493154 
L 185.697499 226.481143 
L 186.660934 228.491462 
L 187.142652 229.059423 
L 187.62437 229.397558 
L 188.106088 230.496498 
L 189.069523 231.666762 
L 189.551241 232.596634 
L 190.032959 233.201579 
L 191.478112 235.705892 
L 191.95983 236.075728 
L 192.923266 237.512802 
L 193.404984 238.553624 
L 193.886701 238.894401 
L 194.850137 240.706594 
L 195.331855 241.263989 
L 196.777008 243.699619 
L 197.258726 244.138138 
L 198.703879 246.109888 
L 199.185597 246.720381 
L 199.667315 247.84468 
L 200.149033 248.296936 
L 201.112468 249.865038 
L 201.594186 250.291669 
L 202.075904 251.187992 
L 202.557622 251.830712 
L 203.03934 252.176773 
L 204.002775 253.798765 
L 204.484493 254.287476 
L 204.966211 255.03243 
L 205.447929 255.502649 
L 212.191978 265.010058 
L 214.118849 268.1246 
L 217.009156 274.071024 
L 218.454309 276.725913 
L 219.899463 279.367594 
L 221.826334 281.903608 
L 222.308052 282.37911 
L 222.78977 282.696112 
L 223.753205 283.54145 
L 226.161794 285.786879 
L 227.606948 286.896385 
L 229.052101 287.662472 
L 229.533819 288.322892 
L 230.015537 289.458815 
L 230.497254 291.202325 
L 230.978972 291.783494 
L 231.46069 290.91174 
L 231.942408 290.541904 
L 232.424126 290.40982 
L 232.905843 290.145652 
L 233.387561 289.67015 
L 233.869279 288.824812 
L 234.350997 287.609639 
L 234.832715 285.892546 
L 235.79615 280.345016 
L 236.759586 273.246819 
L 237.723021 264.534556 
L 239.168175 249.121405 
L 241.576764 217.473011 
L 242.540199 206.325117 
L 243.503635 195.256474 
L 243.985353 192.403459 
L 244.467071 191.056202 
L 244.948789 189.286276 
L 245.430506 188.17677 
L 245.912224 186.248343 
L 246.393942 185.85209 
L 246.87566 184.6105 
L 247.357378 185.033169 
L 247.839095 185.85209 
L 248.320813 185.033169 
L 248.802531 184.6105 
L 249.284249 183.791579 
L 249.765967 184.6105 
L 250.247684 184.214248 
L 251.21112 184.214248 
L 252.174556 185.85209 
L 252.656273 185.033169 
L 253.137991 185.033169 
L 253.619709 185.85209 
L 254.101427 186.248343 
L 254.583145 187.410682 
L 255.064862 187.806934 
L 255.54658 189.286276 
L 256.028298 188.17677 
L 256.510016 186.248343 
L 256.991734 188.546605 
L 257.473451 189.286276 
L 257.955169 188.91644 
L 258.918605 189.629694 
L 259.400323 190.686367 
L 259.88204 190.342948 
L 260.363758 190.686367 
L 260.845476 190.686367 
L 261.327194 191.716622 
L 261.808912 192.403459 
L 262.290629 192.403459 
L 262.772347 193.380881 
L 263.254065 193.380881 
L 263.735783 195.256474 
L 264.699218 195.256474 
L 265.180936 196.154646 
L 265.662654 195.864061 
L 266.144372 196.154646 
L 266.62609 197.60757 
L 267.107807 198.452908 
L 267.589525 198.162323 
L 268.071243 199.535998 
L 268.552961 199.800166 
L 269.034679 199.800166 
L 269.516396 200.064334 
L 269.998114 201.358757 
L 270.96155 201.358757 
L 271.443268 201.622925 
L 271.924985 202.124845 
L 272.406703 203.102267 
L 272.888421 203.815521 
L 273.370139 204.053272 
L 273.851857 204.740109 
L 274.333574 206.325117 
L 274.815292 206.325117 
L 275.778728 208.253544 
L 276.260446 208.649797 
L 276.742164 209.86497 
L 278.187317 212.163232 
L 278.669035 213.272738 
L 279.150753 213.801074 
L 280.595906 216.337088 
L 281.077624 216.522006 
L 281.559342 216.839007 
L 282.041059 218.107014 
L 282.522777 218.582517 
L 283.004495 219.322187 
L 283.967931 221.224198 
L 284.449648 221.224198 
L 284.931366 222.619005 
L 285.413084 223.295275 
L 285.894802 223.559444 
L 286.37652 224.734992 
L 286.858237 225.493154 
L 287.339955 225.868273 
L 288.785109 228.145402 
L 289.266826 229.173015 
L 290.230262 229.952311 
L 290.71198 230.927092 
L 291.193698 231.352402 
L 292.157133 232.697018 
L 292.638851 233.201579 
L 293.602287 234.953013 
L 294.084004 235.798351 
L 294.565722 236.350462 
L 295.04744 237.158817 
L 296.492593 238.809867 
L 298.419465 241.734208 
L 299.3829 242.806731 
L 299.864618 243.699619 
L 300.346336 244.064171 
L 301.791489 245.902781 
L 302.754925 246.988247 
L 303.236643 248.039108 
L 303.71836 248.488986 
L 304.200078 249.371043 
L 306.608667 252.575666 
L 307.090385 253.468555 
L 308.535539 255.555483 
L 310.944128 259.518004 
L 312.870999 262.225727 
L 314.316152 264.534556 
L 314.79787 265.438011 
L 315.761306 266.809043 
L 319.615048 273.767231 
L 323.46879 279.341177 
L 325.395662 281.13752 
L 329.249404 284.254704 
L 330.21284 285.390627 
L 333.103146 288.243642 
L 334.066582 289.08898 
L 335.030018 289.458815 
L 335.993453 289.273897 
L 336.475171 288.930479 
L 336.956889 288.243642 
L 337.438607 287.239803 
L 337.920324 285.786879 
L 338.402042 283.858452 
L 338.88376 281.428105 
L 339.847196 274.1899 
L 340.810631 264.534556 
L 341.774067 252.51755 
L 343.21922 228.605054 
L 344.182656 210.657474 
L 345.146092 200.064334 
L 346.109527 192.060041 
L 346.591245 189.629694 
L 347.072963 188.17677 
L 347.554681 184.6105 
L 348.036398 183.791579 
L 348.518116 183.791579 
L 349.96327 182.470739 
L 350.444987 182.470739 
L 350.926705 183.342494 
L 351.408423 183.791579 
L 352.371859 183.791579 
L 352.853576 183.342494 
L 353.335294 185.033169 
L 353.817012 183.791579 
L 354.29873 184.214248 
L 354.780448 183.791579 
L 355.262165 183.791579 
L 355.743883 184.214248 
L 356.225601 183.791579 
L 356.707319 184.214248 
L 357.189037 183.791579 
L 357.670754 184.214248 
L 358.63419 184.214248 
L 359.115908 185.85209 
L 359.597626 187.040847 
L 360.079343 186.248343 
L 360.561061 188.17677 
L 361.524497 188.91644 
L 362.006215 189.629694 
L 362.487932 189.629694 
L 362.96965 189.999529 
L 363.451368 190.686367 
L 363.933086 191.056202 
L 364.414804 192.060041 
L 364.896521 190.342948 
L 365.378239 189.999529 
L 365.859957 190.686367 
L 366.341675 191.056202 
L 366.823393 192.403459 
L 367.30511 192.720461 
L 367.786828 194.331886 
L 368.268546 195.256474 
L 368.750264 195.256474 
L 369.231982 195.547059 
L 370.195417 197.316986 
L 370.677135 197.871739 
L 371.640571 199.535998 
L 372.122289 199.800166 
L 372.604006 199.800166 
L 373.085724 200.328502 
L 373.567442 201.094589 
L 374.530878 203.102267 
L 375.012595 203.815521 
L 375.494313 203.815521 
L 376.457749 206.325117 
L 376.939467 206.774203 
L 377.421184 207.830876 
L 377.902902 208.04221 
L 378.38462 208.861131 
L 378.866338 210.076304 
L 379.348056 210.472556 
L 379.829773 210.657474 
L 380.311491 211.053726 
L 381.756645 212.717985 
L 382.72008 214.329411 
L 383.683516 216.020086 
L 384.165234 216.337088 
L 385.128669 218.107014 
L 385.610387 218.873102 
L 386.573823 220.933613 
L 387.05554 221.224198 
L 388.018976 222.206903 
L 388.500694 223.025824 
L 388.982412 223.295275 
L 389.945847 225.242194 
L 390.909283 226.359625 
L 391.872718 227.7967 
L 392.354436 228.948473 
L 393.317872 229.61946 
L 393.79959 230.496498 
L 394.281307 231.032759 
L 394.763025 231.772429 
L 395.244743 232.084148 
L 396.689896 233.795957 
L 397.171614 234.282026 
L 398.13505 235.613433 
L 399.098485 236.44028 
L 400.061921 238.210206 
L 400.543639 238.6408 
L 401.507074 239.97749 
L 401.988792 240.867737 
L 402.47051 241.263989 
L 405.360817 245.971464 
L 405.842535 247.320042 
L 406.80597 248.425084 
L 407.769406 249.987612 
L 408.732842 251.423894 
L 409.214559 252.002422 
L 409.696277 252.348482 
L 410.177995 253.413079 
L 410.659713 253.851598 
L 412.104866 255.864559 
L 412.586584 256.878965 
L 413.951451 259.005518 
L 414.433169 259.74783 
L 414.8346 260.653927 
L 415.798036 261.966842 
L 416.199467 262.73293 
L 417.564335 264.772307 
L 419.651778 268.481227 
L 420.454641 269.942077 
L 421.57865 272.17958 
L 421.980081 272.747542 
L 423.74638 276.435328 
L 424.709815 278.258088 
L 425.592965 279.631762 
L 426.476114 280.979019 
L 428.804417 283.752784 
L 428.964989 283.805618 
L 429.205848 284.12262 
L 429.366421 284.149037 
L 429.687566 284.730206 
L 430.651002 286.368048 
L 430.731288 286.368048 
L 431.213006 287.160553 
L 431.373578 287.424721 
L 431.453865 287.424721 
L 431.453865 287.556805 
L 431.534151 287.556805 
L 431.935582 288.454976 
L 431.935582 288.270059 
L 431.935582 290.726822 
L 431.935582 290.647572 
" clip-path="url(#p917edf067b)" style="fill: none; stroke: #1f77b4; stroke-width: 1.5; stroke-linecap: square"/>
   </g>
   <g id="line2d_24">
    <path d="M 70.64723 284.571705 
L 70.647262 284.70379 
L 70.735384 284.069786 
L 70.755617 284.545289 
L 70.904146 284.12262 
L 70.944611 284.175453 
L 71.149019 283.805618 
L 71.211643 283.858452 
L 71.430503 283.382949 
L 71.604243 283.013114 
L 72.02414 282.352694 
L 73.560017 276.408912 
L 74.828541 266.991319 
L 77.519737 238.165297 
L 78.79629 220.537361 
L 79.831983 204.23819 
L 82.481431 165.167729 
L 82.882862 155.631261 
L 83.292322 154.521755 
L 83.709811 145.46079 
L 84.1273 142.370023 
L 84.544789 133.097723 
L 84.978335 133.097723 
L 85.845427 128.554032 
L 86.287001 128.554032 
L 86.728576 99.654043 
L 87.178179 104.910988 
L 87.627783 104.910988 
L 88.085415 99.654043 
L 88.543046 76.037416 
L 89.000678 93.446093 
L 89.466339 104.910988 
L 89.931999 93.446093 
L 90.405689 93.446093 
L 90.871349 109.454679 
L 91.345038 62.221425 
L 91.818728 99.654043 
L 92.292417 117.06272 
L 92.774135 104.910988 
L 93.729542 104.910988 
L 94.211259 120.311988 
L 94.692977 117.06272 
L 95.174695 120.311988 
L 95.656413 113.470034 
L 96.138131 117.06272 
L 96.619848 117.06272 
L 97.101566 126.018018 
L 97.583284 126.018018 
L 98.065002 130.905128 
L 98.54672 130.905128 
L 99.028437 128.554032 
L 99.510155 128.554032 
L 99.991873 133.097723 
L 101.437026 133.097723 
L 101.918744 138.962255 
L 102.400462 135.158234 
L 103.363898 138.962255 
L 103.845615 142.370023 
L 104.327333 142.370023 
L 104.809051 145.46079 
L 105.290769 143.955032 
L 105.772487 145.46079 
L 106.254204 153.359416 
L 106.735922 150.929069 
L 107.699358 155.631261 
L 108.181076 155.631261 
L 108.662793 157.771023 
L 109.144511 157.771023 
L 109.626229 159.7787 
L 110.107947 157.771023 
L 110.589665 161.68071 
L 111.071382 163.450637 
L 111.5531 163.450637 
L 112.516536 169.817087 
L 112.998254 170.530341 
L 114.443407 170.530341 
L 114.925125 171.930432 
L 115.406843 173.911693 
L 115.88856 175.1797 
L 116.370278 174.545696 
L 116.851996 177.583629 
L 117.333714 178.138382 
L 117.815432 179.802641 
L 118.778867 180.88573 
L 119.260585 181.915986 
L 120.224021 182.919825 
L 120.705738 185.746423 
L 121.187456 185.297338 
L 121.669174 187.093681 
L 122.150892 187.965435 
L 122.63261 187.965435 
L 123.114327 188.784356 
L 123.596045 190.025946 
L 124.077763 191.98079 
L 124.559481 193.090296 
L 125.041199 193.80355 
L 125.522917 194.860222 
L 126.96807 199.113329 
L 127.449788 199.43033 
L 128.413223 201.200256 
L 128.894941 201.490841 
L 129.376659 203.445685 
L 130.340095 204.502358 
L 130.821812 206.034533 
L 131.30353 206.298701 
L 131.785248 207.276123 
L 132.266966 207.989376 
L 132.748684 208.913965 
L 133.230401 210.498973 
L 134.675555 212.638735 
L 135.63899 214.83133 
L 136.120708 215.227582 
L 137.084144 217.605095 
L 138.047579 218.846685 
L 138.529297 220.537361 
L 139.011015 221.171364 
L 143.346475 229.669651 
L 143.828193 230.042128 
L 144.309911 231.141068 
L 145.273346 232.203023 
L 145.755064 233.460464 
L 146.7185 234.886971 
L 147.200218 235.840618 
L 147.681935 236.154978 
L 149.608807 239.03441 
L 150.090524 239.972207 
L 150.572242 240.157125 
L 151.094103 241.335314 
L 151.575821 241.6893 
L 152.057539 242.730122 
L 152.539257 242.983723 
L 153.98441 245.358594 
L 155.429563 247.131162 
L 156.392999 248.600705 
L 156.874717 249.312398 
L 158.31987 252.147714 
L 158.801588 252.726242 
L 159.283306 253.793481 
L 160.246741 254.887137 
L 160.728459 256.004568 
L 161.210177 256.464221 
L 162.65533 259.153452 
L 163.137048 259.782172 
L 165.06392 263.039365 
L 166.027355 264.378697 
L 166.509073 265.35876 
L 167.954226 267.614756 
L 168.917662 269.065039 
L 171.807969 272.869059 
L 172.289687 273.67213 
L 173.253122 274.823903 
L 173.73484 275.722074 
L 174.698276 276.910831 
L 175.661711 278.390172 
L 177.106865 280.239349 
L 177.588582 280.239349 
L 178.471732 281.428105 
L 178.953449 281.560189 
L 179.435167 281.216771 
L 179.916885 281.243188 
L 180.880321 280.054431 
L 181.843756 277.307083 
L 182.325474 275.484323 
L 182.807192 273.220403 
L 183.770628 267.11812 
L 184.734063 259.311953 
L 185.215781 254.646744 
L 186.179217 242.814656 
L 187.62437 219.692023 
L 189.069523 190.422198 
L 189.551241 183.395327 
L 190.032959 173.911693 
L 190.514677 168.337746 
L 191.95983 140.705764 
L 192.441548 133.097723 
L 192.923266 130.905128 
L 193.404984 130.905128 
L 194.368419 120.311988 
L 194.850137 120.311988 
L 195.813573 113.470034 
L 196.29529 117.06272 
L 196.777008 117.06272 
L 197.258726 126.018018 
L 197.740444 128.554032 
L 198.222162 126.018018 
L 198.703879 133.097723 
L 199.185597 130.905128 
L 199.667315 133.097723 
L 200.149033 133.097723 
L 200.630751 138.962255 
L 201.112468 137.113078 
L 201.594186 140.705764 
L 202.075904 149.634645 
L 202.557622 149.634645 
L 203.03934 150.929069 
L 203.521057 148.313805 
L 204.966211 155.631261 
L 205.447929 156.71435 
L 206.411364 156.71435 
L 206.893082 161.68071 
L 207.3748 161.68071 
L 207.856518 164.322391 
L 208.338235 165.167729 
L 209.301671 168.337746 
L 209.783389 169.103834 
L 210.265107 170.530341 
L 211.228542 170.530341 
L 211.71026 172.617269 
L 212.191978 171.930432 
L 212.673696 173.911693 
L 213.155414 171.930432 
L 213.637131 177.002459 
L 214.118849 177.583629 
L 214.600567 176.394873 
L 215.082285 178.719552 
L 215.564003 179.802641 
L 216.04572 180.357394 
L 217.009156 180.357394 
L 217.490874 181.915986 
L 217.972592 181.38765 
L 218.454309 182.919825 
L 218.936027 185.297338 
L 219.417745 183.897247 
L 219.899463 186.644595 
L 220.381181 187.516349 
L 220.862898 187.965435 
L 221.344616 187.965435 
L 221.826334 189.207025 
L 222.308052 190.818451 
L 222.78977 191.584538 
L 223.271487 191.584538 
L 223.753205 193.460131 
L 224.716641 195.547059 
L 225.198359 196.233896 
L 226.161794 198.796327 
L 226.643512 199.43033 
L 227.12523 199.43033 
L 228.088665 202.336179 
L 228.570383 203.445685 
L 229.052101 203.974021 
L 229.533819 204.766526 
L 230.497254 207.276123 
L 230.978972 207.989376 
L 231.46069 208.227128 
L 231.942408 209.151716 
L 232.905843 211.793397 
L 233.869279 213.642573 
L 234.350997 214.83133 
L 234.832715 214.83133 
L 236.277868 218.318349 
L 237.241304 219.533522 
L 238.204739 221.488366 
L 238.686457 222.28087 
L 239.168175 223.353392 
L 239.649893 223.950412 
L 240.13161 224.972743 
L 240.613328 225.543346 
L 241.095046 226.3834 
L 241.576764 227.469131 
L 242.058482 228.000109 
L 243.503635 230.290446 
L 243.985353 230.900675 
L 244.467071 231.970556 
L 245.430506 233.008736 
L 245.912224 233.571414 
L 246.393942 234.562044 
L 247.357378 235.840618 
L 247.839095 236.77049 
L 248.320813 236.870874 
L 248.802531 237.969813 
L 250.729402 240.614135 
L 251.21112 240.976046 
L 251.692838 241.86365 
L 252.174556 242.299528 
L 252.656273 243.237325 
L 253.137991 243.90567 
L 253.619709 245.200093 
L 254.101427 245.437845 
L 254.583145 246.218197 
L 255.54658 247.4302 
L 256.028298 248.020352 
L 256.991734 249.801902 
L 257.473451 250.489003 
L 257.955169 251.627303 
L 259.400323 253.91764 
L 262.772347 259.41762 
L 263.254065 259.988223 
L 263.735783 261.153204 
L 264.217501 261.499265 
L 264.699218 262.566504 
L 265.180936 263.274474 
L 267.589525 267.738915 
L 270.479832 272.08448 
L 271.443268 273.080394 
L 271.924985 273.740814 
L 273.370139 274.823903 
L 273.851857 275.58999 
L 274.333574 276.012659 
L 275.29701 277.254249 
L 275.778728 277.41275 
L 276.742164 278.865675 
L 278.187317 280.265766 
L 278.669035 281.216771 
L 279.150753 281.903608 
L 279.63247 282.141359 
L 280.114188 282.220609 
L 280.595906 282.484778 
L 281.077624 282.590445 
L 282.522777 283.488616 
L 283.004495 283.647117 
L 283.486213 283.6207 
L 283.967931 283.356532 
L 284.449648 282.828196 
L 284.931366 281.63944 
L 285.413084 280.080848 
L 286.37652 275.299406 
L 287.339955 268.024216 
L 288.303391 258.783617 
L 289.266826 247.206186 
L 290.230262 234.015217 
L 292.157133 199.43033 
L 293.602287 175.1797 
L 294.084004 170.530341 
L 294.565722 163.450637 
L 295.04744 158.774861 
L 295.529158 150.929069 
L 296.010876 149.634645 
L 296.492593 140.705764 
L 296.974311 138.962255 
L 297.456029 138.962255 
L 297.937747 140.705764 
L 298.419465 140.705764 
L 298.901182 138.962255 
L 299.3829 138.962255 
L 299.864618 143.955032 
L 300.346336 142.370023 
L 300.828054 145.46079 
L 301.309771 149.634645 
L 301.791489 145.46079 
L 302.273207 150.929069 
L 303.236643 155.631261 
L 303.71836 155.631261 
L 304.200078 157.771023 
L 304.681796 158.774861 
L 305.163514 158.774861 
L 305.645232 159.7787 
L 306.126949 162.578882 
L 306.608667 159.7787 
L 307.090385 162.578882 
L 307.572103 163.450637 
L 308.053821 165.98665 
L 308.535539 165.167729 
L 309.017256 166.779154 
L 309.498974 165.167729 
L 310.46241 168.337746 
L 310.944128 169.103834 
L 311.425845 169.103834 
L 311.907563 170.530341 
L 312.389281 169.817087 
L 312.870999 170.530341 
L 313.352717 170.530341 
L 313.834434 171.930432 
L 314.316152 172.617269 
L 315.279588 176.394873 
L 315.761306 175.1797 
L 316.243023 177.583629 
L 316.724741 178.719552 
L 317.206459 179.274305 
L 317.688177 180.357394 
L 318.169895 180.357394 
L 318.651612 181.915986 
L 319.615048 181.915986 
L 320.096766 183.897247 
L 320.578484 185.297338 
L 321.060201 186.195509 
L 321.541919 185.746423 
L 322.023637 187.965435 
L 322.505355 187.965435 
L 322.987073 188.784356 
L 323.46879 190.025946 
L 323.950508 190.422198 
L 324.432226 191.214703 
L 324.913944 193.090296 
L 325.395662 193.460131 
L 326.359097 194.860222 
L 326.840815 195.890478 
L 327.322533 196.577315 
L 327.804251 198.505742 
L 328.285968 198.505742 
L 329.249404 200.328502 
L 330.21284 201.490841 
L 330.694557 203.1551 
L 332.139711 205.796781 
L 332.621429 207.276123 
L 333.103146 208.227128 
L 333.584864 208.70263 
L 334.066582 209.600802 
L 334.5483 211.159393 
L 335.030018 211.582062 
L 336.475171 214.83133 
L 336.956889 214.83133 
L 337.438607 215.967253 
L 337.920324 217.446594 
L 338.88376 218.159848 
L 340.328914 220.537361 
L 340.810631 220.695861 
L 341.774067 222.28087 
L 342.737503 222.899023 
L 343.21922 224.098346 
L 344.182656 225.403337 
L 344.664374 225.966015 
L 346.109527 228.52052 
L 347.554681 230.042128 
L 348.999834 232.781552 
L 349.481552 233.460464 
L 349.96327 233.571414 
L 350.926705 235.526258 
L 351.408423 236.258004 
L 351.890141 236.464055 
L 352.853576 238.458524 
L 355.262165 242.212352 
L 356.707319 244.069454 
L 357.189037 245.120843 
L 357.670754 245.672954 
L 358.152472 246.601505 
L 359.115908 247.504696 
L 359.597626 248.815762 
L 360.079343 249.241865 
L 361.042779 251.028962 
L 361.524497 252.213756 
L 362.006215 252.982485 
L 362.487932 254.039158 
L 363.933086 256.178919 
L 364.414804 257.198608 
L 364.896521 257.808836 
L 366.341675 260.244466 
L 366.823393 260.852053 
L 367.786828 262.851805 
L 368.268546 263.73941 
L 368.750264 264.378697 
L 369.231982 265.448577 
L 369.713699 265.884455 
L 370.195417 266.991319 
L 370.677135 267.490597 
L 371.158853 268.346501 
L 371.640571 268.787662 
L 372.122289 268.428394 
L 372.604006 269.730742 
L 375.012595 272.08448 
L 375.494313 272.47809 
L 375.976031 273.114735 
L 376.457749 273.32607 
L 376.939467 273.809498 
L 377.902902 274.990329 
L 378.866338 275.880575 
L 379.829773 277.016498 
L 385.128669 282.431944 
L 385.610387 282.722529 
L 386.092105 282.88103 
L 387.05554 282.801779 
L 387.537258 282.405527 
L 388.500694 280.265766 
L 389.464129 276.223994 
L 390.427565 270.420221 
L 391.391001 261.937784 
L 391.872718 256.804998 
L 392.836154 242.814656 
L 394.281307 214.25016 
L 395.244743 185.297338 
L 396.208179 128.554032 
L 396.689896 38.578381 
L 414.433169 38.578381 
L 415.316318 93.446093 
L 415.798036 38.578381 
L 417.564335 38.578381 
L 417.965766 76.037416 
L 418.367198 62.221425 
L 418.768629 104.910988 
L 419.250347 99.654043 
L 419.651778 113.470034 
L 420.05321 109.454679 
L 420.454641 128.554032 
L 420.856073 133.097723 
L 421.177218 133.097723 
L 421.57865 93.446093 
L 421.980081 120.311988 
L 422.301226 126.018018 
L 422.702658 128.554032 
L 423.023803 126.018018 
L 424.067525 145.46079 
L 424.38867 145.46079 
L 424.709815 152.170659 
L 425.030961 154.521755 
L 425.352106 157.771023 
L 425.592965 158.774861 
L 425.91411 152.170659 
L 426.476114 165.98665 
L 426.716973 165.98665 
L 426.957832 162.578882 
L 427.43955 173.911693 
L 427.680408 173.911693 
L 427.921267 175.787286 
L 428.162126 174.545696 
L 428.402985 171.930432 
L 428.563558 171.930432 
L 428.804417 173.911693 
L 428.964989 173.911693 
L 429.205848 176.394873 
L 429.366421 180.357394 
L 429.526993 180.357394 
L 429.848139 185.746423 
L 430.169284 181.915986 
L 430.24957 186.195509 
L 430.410143 187.093681 
L 430.651002 186.195509 
L 430.731288 185.297338 
L 430.89186 185.297338 
L 431.052433 187.965435 
L 431.213006 187.093681 
L 431.293292 187.093681 
L 431.453865 187.965435 
L 431.453865 187.965435 
L 431.534151 188.388104 
L 431.614437 187.965435 
L 431.614437 188.388104 
L 431.694723 190.025946 
L 431.694723 189.207025 
L 431.855296 187.093681 
L 431.855296 187.516349 
L 431.935582 184.821835 
L 431.935582 187.965435 
L 431.935582 194.860222 
L 431.935582 194.173385 
" clip-path="url(#p917edf067b)" style="fill: none; stroke: #ff7f0e; stroke-width: 1.5; stroke-linecap: square"/>
   </g>
   <g id="patch_3">
    <path d="M 52.582813 304.44375 
L 52.582813 25.918125 
" style="fill: none; stroke: #000000; stroke-width: 0.8; stroke-linejoin: miter; stroke-linecap: square"/>
   </g>
   <g id="patch_4">
    <path d="M 450 304.44375 
L 450 25.918125 
" style="fill: none; stroke: #000000; stroke-width: 0.8; stroke-linejoin: miter; stroke-linecap: square"/>
   </g>
   <g id="patch_5">
    <path d="M 52.582813 304.44375 
L 450 304.44375 
" style="fill: none; stroke: #000000; stroke-width: 0.8; stroke-linejoin: miter; stroke-linecap: square"/>
   </g>
   <g id="patch_6">
    <path d="M 52.582813 25.918125 
L 450 25.918125 
" style="fill: none; stroke: #000000; stroke-width: 0.8; stroke-linejoin: miter; stroke-linecap: square"/>
   </g>
   <g id="text_14">
    <!-- Side Wall Distance [mm] -->
    <g transform="translate(177.427656 19.918125)scale(0.12 -0.12)">
     <defs>
      <path id="DejaVuSans-53" d="M 3425 4513 
L 3425 3897 
Q 3066 4069 2747 4153 
Q 2428 4238 2131 4238 
Q 1616 4238 1336 4038 
Q 1056 3838 1056 3469 
Q 1056 3159 1242 3001 
Q 1428 2844 1947 2747 
L 2328 2669 
Q 3034 2534 3370 2195 
Q 3706 1856 3706 1288 
Q 3706 609 3251 259 
Q 2797 -91 1919 -91 
Q 1588 -91 1214 -16 
Q 841 59 441 206 
L 441 856 
Q 825 641 1194 531 
Q 1563 422 1919 422 
Q 2459 422 2753 634 
Q 3047 847 3047 1241 
Q 3047 1584 2836 1778 
Q 2625 1972 2144 2069 
L 1759 2144 
Q 1053 2284 737 2584 
Q 422 2884 422 3419 
Q 422 4038 858 4394 
Q 1294 4750 2059 4750 
Q 2388 4750 2728 4690 
Q 3069 4631 3425 4513 
z
" transform="scale(0.015625)"/>
      <path id="DejaVuSans-64" d="M 2906 2969 
L 2906 4863 
L 3481 4863 
L 3481 0 
L 2906 0 
L 2906 525 
Q 2725 213 2448 61 
Q 2172 -91 1784 -91 
Q 1150 -91 751 415 
Q 353 922 353 1747 
Q 353 2572 751 3078 
Q 1150 3584 1784 3584 
Q 2172 3584 2448 3432 
Q 2725 3281 2906 2969 
z
M 947 1747 
Q 947 1113 1208 752 
Q 1469 391 1925 391 
Q 2381 391 2643 752 
Q 2906 1113 2906 1747 
Q 2906 2381 2643 2742 
Q 2381 3103 1925 3103 
Q 1469 3103 1208 2742 
Q 947 2381 947 1747 
z
" transform="scale(0.015625)"/>
     </defs>
     <use xlink:href="#DejaVuSans-53"/>
     <use xlink:href="#DejaVuSans-69" x="63.476562"/>
     <use xlink:href="#DejaVuSans-64" x="91.259766"/>
     <use xlink:href="#DejaVuSans-65" x="154.736328"/>
     <use xlink:href="#DejaVuSans-20" x="216.259766"/>
     <use xlink:href="#DejaVuSans-57" x="248.046875"/>
     <use xlink:href="#DejaVuSans-61" x="340.548828"/>
     <use xlink:href="#DejaVuSans-6c" x="401.828125"/>
     <use xlink:href="#DejaVuSans-6c" x="429.611328"/>
     <use xlink:href="#DejaVuSans-20" x="457.394531"/>
     <use xlink:href="#DejaVuSans-44" x="489.181641"/>
     <use xlink:href="#DejaVuSans-69" x="566.183594"/>
     <use xlink:href="#DejaVuSans-73" x="593.966797"/>
     <use xlink:href="#DejaVuSans-74" x="646.066406"/>
     <use xlink:href="#DejaVuSans-61" x="685.275391"/>
     <use xlink:href="#DejaVuSans-6e" x="746.554688"/>
     <use xlink:href="#DejaVuSans-63" x="809.933594"/>
     <use xlink:href="#DejaVuSans-65" x="864.914062"/>
     <use xlink:href="#DejaVuSans-20" x="926.4375"/>
     <use xlink:href="#DejaVuSans-5b" x="958.224609"/>
     <use xlink:href="#DejaVuSans-6d" x="997.238281"/>
     <use xlink:href="#DejaVuSans-6d" x="1094.650391"/>
     <use xlink:href="#DejaVuSans-5d" x="1192.0625"/>
    </g>
   </g>
   <g id="legend_1">
    <g id="patch_7">
     <path d="M 231.817187 63.274375 
L 270.765625 63.274375 
Q 272.765625 63.274375 272.765625 61.274375 
L 272.765625 32.918125 
Q 272.765625 30.918125 270.765625 30.918125 
L 231.817187 30.918125 
Q 229.817187 30.918125 229.817187 32.918125 
L 229.817187 61.274375 
Q 229.817187 63.274375 231.817187 63.274375 
z
" style="fill: #ffffff; opacity: 0.8; stroke: #cccccc; stroke-linejoin: miter"/>
    </g>
    <g id="line2d_25">
     <path d="M 233.817187 39.016562 
L 243.817187 39.016562 
L 253.817187 39.016562 
" style="fill: none; stroke: #1f77b4; stroke-width: 1.5; stroke-linecap: square"/>
    </g>
    <g id="text_15">
     <!-- L -->
     <g transform="translate(261.817187 42.516562)scale(0.1 -0.1)">
      <defs>
       <path id="DejaVuSans-4c" d="M 628 4666 
L 1259 4666 
L 1259 531 
L 3531 531 
L 3531 0 
L 628 0 
L 628 4666 
z
" transform="scale(0.015625)"/>
      </defs>
      <use xlink:href="#DejaVuSans-4c"/>
     </g>
    </g>
    <g id="line2d_26">
     <path d="M 233.817187 53.694687 
L 243.817187 53.694687 
L 253.817187 53.694687 
" style="fill: none; stroke: #ff7f0e; stroke-width: 1.5; stroke-linecap: square"/>
    </g>
    <g id="text_16">
     <!-- R -->
     <g transform="translate(261.817187 57.194687)scale(0.1 -0.1)">
      <defs>
       <path id="DejaVuSans-52" d="M 2841 2188 
Q 3044 2119 3236 1894 
Q 3428 1669 3622 1275 
L 4263 0 
L 3584 0 
L 2988 1197 
Q 2756 1666 2539 1819 
Q 2322 1972 1947 1972 
L 1259 1972 
L 1259 0 
L 628 0 
L 628 4666 
L 2053 4666 
Q 2853 4666 3247 4331 
Q 3641 3997 3641 3322 
Q 3641 2881 3436 2590 
Q 3231 2300 2841 2188 
z
M 1259 4147 
L 1259 2491 
L 2053 2491 
Q 2509 2491 2742 2702 
Q 2975 2913 2975 3322 
Q 2975 3731 2742 3939 
Q 2509 4147 2053 4147 
L 1259 4147 
z
" transform="scale(0.015625)"/>
      </defs>
      <use xlink:href="#DejaVuSans-52"/>
     </g>
    </g>
   </g>
  </g>
 </g>
 <defs>
  <clipPath id="p917edf067b">
   <rect x="52.582813" y="25.918125" width="397.417187" height="278.525625"/>
  </clipPath>
 </defs>
</svg>
