<?xml version="1.0" encoding="utf-8" standalone="no"?>
<!DOCTYPE svg PUBLIC "-//W3C//DTD SVG 1.1//EN"
  "http://www.w3.org/Graphics/SVG/1.1/DTD/svg11.dtd">
<svg xmlns:xlink="http://www.w3.org/1999/xlink" width="460.8pt" height="345.6pt" viewBox="0 0 460.8 345.6" xmlns="http://www.w3.org/2000/svg" version="1.1">
 <metadata>
  <rdf:RDF xmlns:dc="http://purl.org/dc/elements/1.1/" xmlns:cc="http://creativecommons.org/ns#" xmlns:rdf="http://www.w3.org/1999/02/22-rdf-syntax-ns#">
   <cc:Work>
    <dc:type rdf:resource="http://purl.org/dc/dcmitype/StillImage"/>
    <dc:date>2022-01-16T02:34:12.253841</dc:date>
    <dc:format>image/svg+xml</dc:format>
    <dc:creator>
     <cc:Agent>
      <dc:title>Matplotlib v3.5.1, https://matplotlib.org/</dc:title>
     </cc:Agent>
    </dc:creator>
   </cc:Work>
  </rdf:RDF>
 </metadata>
 <defs>
  <style type="text/css">*{stroke-linejoin: round; stroke-linecap: butt}</style>
 </defs>
 <g id="figure_1">
  <g id="patch_1">
   <path d="M 0 345.6 
L 460.8 345.6 
L 460.8 0 
L 0 0 
z
" style="fill: #ffffff"/>
  </g>
  <g id="axes_1">
   <g id="patch_2">
    <path d="M 58.945313 304.44375 
L 450 304.44375 
L 450 25.918125 
L 58.945313 25.918125 
z
" style="fill: #ffffff"/>
   </g>
   <g id="matplotlib.axis_1">
    <g id="xtick_1">
     <g id="line2d_1">
      <path d="M 76.720526 304.44375 
L 76.720526 25.918125 
" clip-path="url(#p11790fabe3)" style="fill: none; stroke: #b0b0b0; stroke-width: 0.8; stroke-linecap: square"/>
     </g>
     <g id="line2d_2">
      <defs>
       <path id="me1c8369a43" d="M 0 0 
L 0 3.5 
" style="stroke: #000000; stroke-width: 0.8"/>
      </defs>
      <g>
       <use xlink:href="#me1c8369a43" x="76.720526" y="304.44375" style="stroke: #000000; stroke-width: 0.8"/>
      </g>
     </g>
     <g id="text_1">
      <!-- 0 -->
      <g transform="translate(73.539276 319.042187)scale(0.1 -0.1)">
       <defs>
        <path id="DejaVuSans-30" d="M 2034 4250 
Q 1547 4250 1301 3770 
Q 1056 3291 1056 2328 
Q 1056 1369 1301 889 
Q 1547 409 2034 409 
Q 2525 409 2770 889 
Q 3016 1369 3016 2328 
Q 3016 3291 2770 3770 
Q 2525 4250 2034 4250 
z
M 2034 4750 
Q 2819 4750 3233 4129 
Q 3647 3509 3647 2328 
Q 3647 1150 3233 529 
Q 2819 -91 2034 -91 
Q 1250 -91 836 529 
Q 422 1150 422 2328 
Q 422 3509 836 4129 
Q 1250 4750 2034 4750 
z
" transform="scale(0.015625)"/>
       </defs>
       <use xlink:href="#DejaVuSans-30"/>
      </g>
     </g>
    </g>
    <g id="xtick_2">
     <g id="line2d_3">
      <path d="M 155.721473 304.44375 
L 155.721473 25.918125 
" clip-path="url(#p11790fabe3)" style="fill: none; stroke: #b0b0b0; stroke-width: 0.8; stroke-linecap: square"/>
     </g>
     <g id="line2d_4">
      <g>
       <use xlink:href="#me1c8369a43" x="155.721473" y="304.44375" style="stroke: #000000; stroke-width: 0.8"/>
      </g>
     </g>
     <g id="text_2">
      <!-- 100 -->
      <g transform="translate(146.177723 319.042187)scale(0.1 -0.1)">
       <defs>
        <path id="DejaVuSans-31" d="M 794 531 
L 1825 531 
L 1825 4091 
L 703 3866 
L 703 4441 
L 1819 4666 
L 2450 4666 
L 2450 531 
L 3481 531 
L 3481 0 
L 794 0 
L 794 531 
z
" transform="scale(0.015625)"/>
       </defs>
       <use xlink:href="#DejaVuSans-31"/>
       <use xlink:href="#DejaVuSans-30" x="63.623047"/>
       <use xlink:href="#DejaVuSans-30" x="127.246094"/>
      </g>
     </g>
    </g>
    <g id="xtick_3">
     <g id="line2d_5">
      <path d="M 234.72242 304.44375 
L 234.72242 25.918125 
" clip-path="url(#p11790fabe3)" style="fill: none; stroke: #b0b0b0; stroke-width: 0.8; stroke-linecap: square"/>
     </g>
     <g id="line2d_6">
      <g>
       <use xlink:href="#me1c8369a43" x="234.72242" y="304.44375" style="stroke: #000000; stroke-width: 0.8"/>
      </g>
     </g>
     <g id="text_3">
      <!-- 200 -->
      <g transform="translate(225.17867 319.042187)scale(0.1 -0.1)">
       <defs>
        <path id="DejaVuSans-32" d="M 1228 531 
L 3431 531 
L 3431 0 
L 469 0 
L 469 531 
Q 828 903 1448 1529 
Q 2069 2156 2228 2338 
Q 2531 2678 2651 2914 
Q 2772 3150 2772 3378 
Q 2772 3750 2511 3984 
Q 2250 4219 1831 4219 
Q 1534 4219 1204 4116 
Q 875 4013 500 3803 
L 500 4441 
Q 881 4594 1212 4672 
Q 1544 4750 1819 4750 
Q 2544 4750 2975 4387 
Q 3406 4025 3406 3419 
Q 3406 3131 3298 2873 
Q 3191 2616 2906 2266 
Q 2828 2175 2409 1742 
Q 1991 1309 1228 531 
z
" transform="scale(0.015625)"/>
       </defs>
       <use xlink:href="#DejaVuSans-32"/>
       <use xlink:href="#DejaVuSans-30" x="63.623047"/>
       <use xlink:href="#DejaVuSans-30" x="127.246094"/>
      </g>
     </g>
    </g>
    <g id="xtick_4">
     <g id="line2d_7">
      <path d="M 313.723366 304.44375 
L 313.723366 25.918125 
" clip-path="url(#p11790fabe3)" style="fill: none; stroke: #b0b0b0; stroke-width: 0.8; stroke-linecap: square"/>
     </g>
     <g id="line2d_8">
      <g>
       <use xlink:href="#me1c8369a43" x="313.723366" y="304.44375" style="stroke: #000000; stroke-width: 0.8"/>
      </g>
     </g>
     <g id="text_4">
      <!-- 300 -->
      <g transform="translate(304.179616 319.042187)scale(0.1 -0.1)">
       <defs>
        <path id="DejaVuSans-33" d="M 2597 2516 
Q 3050 2419 3304 2112 
Q 3559 1806 3559 1356 
Q 3559 666 3084 287 
Q 2609 -91 1734 -91 
Q 1441 -91 1130 -33 
Q 819 25 488 141 
L 488 750 
Q 750 597 1062 519 
Q 1375 441 1716 441 
Q 2309 441 2620 675 
Q 2931 909 2931 1356 
Q 2931 1769 2642 2001 
Q 2353 2234 1838 2234 
L 1294 2234 
L 1294 2753 
L 1863 2753 
Q 2328 2753 2575 2939 
Q 2822 3125 2822 3475 
Q 2822 3834 2567 4026 
Q 2313 4219 1838 4219 
Q 1578 4219 1281 4162 
Q 984 4106 628 3988 
L 628 4550 
Q 988 4650 1302 4700 
Q 1616 4750 1894 4750 
Q 2613 4750 3031 4423 
Q 3450 4097 3450 3541 
Q 3450 3153 3228 2886 
Q 3006 2619 2597 2516 
z
" transform="scale(0.015625)"/>
       </defs>
       <use xlink:href="#DejaVuSans-33"/>
       <use xlink:href="#DejaVuSans-30" x="63.623047"/>
       <use xlink:href="#DejaVuSans-30" x="127.246094"/>
      </g>
     </g>
    </g>
    <g id="xtick_5">
     <g id="line2d_9">
      <path d="M 392.724313 304.44375 
L 392.724313 25.918125 
" clip-path="url(#p11790fabe3)" style="fill: none; stroke: #b0b0b0; stroke-width: 0.8; stroke-linecap: square"/>
     </g>
     <g id="line2d_10">
      <g>
       <use xlink:href="#me1c8369a43" x="392.724313" y="304.44375" style="stroke: #000000; stroke-width: 0.8"/>
      </g>
     </g>
     <g id="text_5">
      <!-- 400 -->
      <g transform="translate(383.180563 319.042187)scale(0.1 -0.1)">
       <defs>
        <path id="DejaVuSans-34" d="M 2419 4116 
L 825 1625 
L 2419 1625 
L 2419 4116 
z
M 2253 4666 
L 3047 4666 
L 3047 1625 
L 3713 1625 
L 3713 1100 
L 3047 1100 
L 3047 0 
L 2419 0 
L 2419 1100 
L 313 1100 
L 313 1709 
L 2253 4666 
z
" transform="scale(0.015625)"/>
       </defs>
       <use xlink:href="#DejaVuSans-34"/>
       <use xlink:href="#DejaVuSans-30" x="63.623047"/>
       <use xlink:href="#DejaVuSans-30" x="127.246094"/>
      </g>
     </g>
    </g>
    <g id="text_6">
     <!-- Translational Position [mm] -->
     <g transform="translate(186.495312 332.720312)scale(0.1 -0.1)">
      <defs>
       <path id="DejaVuSans-54" d="M -19 4666 
L 3928 4666 
L 3928 4134 
L 2272 4134 
L 2272 0 
L 1638 0 
L 1638 4134 
L -19 4134 
L -19 4666 
z
" transform="scale(0.015625)"/>
       <path id="DejaVuSans-72" d="M 2631 2963 
Q 2534 3019 2420 3045 
Q 2306 3072 2169 3072 
Q 1681 3072 1420 2755 
Q 1159 2438 1159 1844 
L 1159 0 
L 581 0 
L 581 3500 
L 1159 3500 
L 1159 2956 
Q 1341 3275 1631 3429 
Q 1922 3584 2338 3584 
Q 2397 3584 2469 3576 
Q 2541 3569 2628 3553 
L 2631 2963 
z
" transform="scale(0.015625)"/>
       <path id="DejaVuSans-61" d="M 2194 1759 
Q 1497 1759 1228 1600 
Q 959 1441 959 1056 
Q 959 750 1161 570 
Q 1363 391 1709 391 
Q 2188 391 2477 730 
Q 2766 1069 2766 1631 
L 2766 1759 
L 2194 1759 
z
M 3341 1997 
L 3341 0 
L 2766 0 
L 2766 531 
Q 2569 213 2275 61 
Q 1981 -91 1556 -91 
Q 1019 -91 701 211 
Q 384 513 384 1019 
Q 384 1609 779 1909 
Q 1175 2209 1959 2209 
L 2766 2209 
L 2766 2266 
Q 2766 2663 2505 2880 
Q 2244 3097 1772 3097 
Q 1472 3097 1187 3025 
Q 903 2953 641 2809 
L 641 3341 
Q 956 3463 1253 3523 
Q 1550 3584 1831 3584 
Q 2591 3584 2966 3190 
Q 3341 2797 3341 1997 
z
" transform="scale(0.015625)"/>
       <path id="DejaVuSans-6e" d="M 3513 2113 
L 3513 0 
L 2938 0 
L 2938 2094 
Q 2938 2591 2744 2837 
Q 2550 3084 2163 3084 
Q 1697 3084 1428 2787 
Q 1159 2491 1159 1978 
L 1159 0 
L 581 0 
L 581 3500 
L 1159 3500 
L 1159 2956 
Q 1366 3272 1645 3428 
Q 1925 3584 2291 3584 
Q 2894 3584 3203 3211 
Q 3513 2838 3513 2113 
z
" transform="scale(0.015625)"/>
       <path id="DejaVuSans-73" d="M 2834 3397 
L 2834 2853 
Q 2591 2978 2328 3040 
Q 2066 3103 1784 3103 
Q 1356 3103 1142 2972 
Q 928 2841 928 2578 
Q 928 2378 1081 2264 
Q 1234 2150 1697 2047 
L 1894 2003 
Q 2506 1872 2764 1633 
Q 3022 1394 3022 966 
Q 3022 478 2636 193 
Q 2250 -91 1575 -91 
Q 1294 -91 989 -36 
Q 684 19 347 128 
L 347 722 
Q 666 556 975 473 
Q 1284 391 1588 391 
Q 1994 391 2212 530 
Q 2431 669 2431 922 
Q 2431 1156 2273 1281 
Q 2116 1406 1581 1522 
L 1381 1569 
Q 847 1681 609 1914 
Q 372 2147 372 2553 
Q 372 3047 722 3315 
Q 1072 3584 1716 3584 
Q 2034 3584 2315 3537 
Q 2597 3491 2834 3397 
z
" transform="scale(0.015625)"/>
       <path id="DejaVuSans-6c" d="M 603 4863 
L 1178 4863 
L 1178 0 
L 603 0 
L 603 4863 
z
" transform="scale(0.015625)"/>
       <path id="DejaVuSans-74" d="M 1172 4494 
L 1172 3500 
L 2356 3500 
L 2356 3053 
L 1172 3053 
L 1172 1153 
Q 1172 725 1289 603 
Q 1406 481 1766 481 
L 2356 481 
L 2356 0 
L 1766 0 
Q 1100 0 847 248 
Q 594 497 594 1153 
L 594 3053 
L 172 3053 
L 172 3500 
L 594 3500 
L 594 4494 
L 1172 4494 
z
" transform="scale(0.015625)"/>
       <path id="DejaVuSans-69" d="M 603 3500 
L 1178 3500 
L 1178 0 
L 603 0 
L 603 3500 
z
M 603 4863 
L 1178 4863 
L 1178 4134 
L 603 4134 
L 603 4863 
z
" transform="scale(0.015625)"/>
       <path id="DejaVuSans-6f" d="M 1959 3097 
Q 1497 3097 1228 2736 
Q 959 2375 959 1747 
Q 959 1119 1226 758 
Q 1494 397 1959 397 
Q 2419 397 2687 759 
Q 2956 1122 2956 1747 
Q 2956 2369 2687 2733 
Q 2419 3097 1959 3097 
z
M 1959 3584 
Q 2709 3584 3137 3096 
Q 3566 2609 3566 1747 
Q 3566 888 3137 398 
Q 2709 -91 1959 -91 
Q 1206 -91 779 398 
Q 353 888 353 1747 
Q 353 2609 779 3096 
Q 1206 3584 1959 3584 
z
" transform="scale(0.015625)"/>
       <path id="DejaVuSans-20" transform="scale(0.015625)"/>
       <path id="DejaVuSans-50" d="M 1259 4147 
L 1259 2394 
L 2053 2394 
Q 2494 2394 2734 2622 
Q 2975 2850 2975 3272 
Q 2975 3691 2734 3919 
Q 2494 4147 2053 4147 
L 1259 4147 
z
M 628 4666 
L 2053 4666 
Q 2838 4666 3239 4311 
Q 3641 3956 3641 3272 
Q 3641 2581 3239 2228 
Q 2838 1875 2053 1875 
L 1259 1875 
L 1259 0 
L 628 0 
L 628 4666 
z
" transform="scale(0.015625)"/>
       <path id="DejaVuSans-5b" d="M 550 4863 
L 1875 4863 
L 1875 4416 
L 1125 4416 
L 1125 -397 
L 1875 -397 
L 1875 -844 
L 550 -844 
L 550 4863 
z
" transform="scale(0.015625)"/>
       <path id="DejaVuSans-6d" d="M 3328 2828 
Q 3544 3216 3844 3400 
Q 4144 3584 4550 3584 
Q 5097 3584 5394 3201 
Q 5691 2819 5691 2113 
L 5691 0 
L 5113 0 
L 5113 2094 
Q 5113 2597 4934 2840 
Q 4756 3084 4391 3084 
Q 3944 3084 3684 2787 
Q 3425 2491 3425 1978 
L 3425 0 
L 2847 0 
L 2847 2094 
Q 2847 2600 2669 2842 
Q 2491 3084 2119 3084 
Q 1678 3084 1418 2786 
Q 1159 2488 1159 1978 
L 1159 0 
L 581 0 
L 581 3500 
L 1159 3500 
L 1159 2956 
Q 1356 3278 1631 3431 
Q 1906 3584 2284 3584 
Q 2666 3584 2933 3390 
Q 3200 3197 3328 2828 
z
" transform="scale(0.015625)"/>
       <path id="DejaVuSans-5d" d="M 1947 4863 
L 1947 -844 
L 622 -844 
L 622 -397 
L 1369 -397 
L 1369 4416 
L 622 4416 
L 622 4863 
L 1947 4863 
z
" transform="scale(0.015625)"/>
      </defs>
      <use xlink:href="#DejaVuSans-54"/>
      <use xlink:href="#DejaVuSans-72" x="46.333984"/>
      <use xlink:href="#DejaVuSans-61" x="87.447266"/>
      <use xlink:href="#DejaVuSans-6e" x="148.726562"/>
      <use xlink:href="#DejaVuSans-73" x="212.105469"/>
      <use xlink:href="#DejaVuSans-6c" x="264.205078"/>
      <use xlink:href="#DejaVuSans-61" x="291.988281"/>
      <use xlink:href="#DejaVuSans-74" x="353.267578"/>
      <use xlink:href="#DejaVuSans-69" x="392.476562"/>
      <use xlink:href="#DejaVuSans-6f" x="420.259766"/>
      <use xlink:href="#DejaVuSans-6e" x="481.441406"/>
      <use xlink:href="#DejaVuSans-61" x="544.820312"/>
      <use xlink:href="#DejaVuSans-6c" x="606.099609"/>
      <use xlink:href="#DejaVuSans-20" x="633.882812"/>
      <use xlink:href="#DejaVuSans-50" x="665.669922"/>
      <use xlink:href="#DejaVuSans-6f" x="722.347656"/>
      <use xlink:href="#DejaVuSans-73" x="783.529297"/>
      <use xlink:href="#DejaVuSans-69" x="835.628906"/>
      <use xlink:href="#DejaVuSans-74" x="863.412109"/>
      <use xlink:href="#DejaVuSans-69" x="902.621094"/>
      <use xlink:href="#DejaVuSans-6f" x="930.404297"/>
      <use xlink:href="#DejaVuSans-6e" x="991.585938"/>
      <use xlink:href="#DejaVuSans-20" x="1054.964844"/>
      <use xlink:href="#DejaVuSans-5b" x="1086.751953"/>
      <use xlink:href="#DejaVuSans-6d" x="1125.765625"/>
      <use xlink:href="#DejaVuSans-6d" x="1223.177734"/>
      <use xlink:href="#DejaVuSans-5d" x="1320.589844"/>
     </g>
    </g>
   </g>
   <g id="matplotlib.axis_2">
    <g id="ytick_1">
     <g id="line2d_11">
      <path d="M 58.945313 298.644098 
L 450 298.644098 
" clip-path="url(#p11790fabe3)" style="fill: none; stroke: #b0b0b0; stroke-width: 0.8; stroke-linecap: square"/>
     </g>
     <g id="line2d_12">
      <defs>
       <path id="m2d72a92dc8" d="M 0 0 
L -3.5 0 
" style="stroke: #000000; stroke-width: 0.8"/>
      </defs>
      <g>
       <use xlink:href="#m2d72a92dc8" x="58.945313" y="298.644098" style="stroke: #000000; stroke-width: 0.8"/>
      </g>
     </g>
     <g id="text_7">
      <!-- −100 -->
      <g transform="translate(24.478125 302.443316)scale(0.1 -0.1)">
       <defs>
        <path id="DejaVuSans-2212" d="M 678 2272 
L 4684 2272 
L 4684 1741 
L 678 1741 
L 678 2272 
z
" transform="scale(0.015625)"/>
       </defs>
       <use xlink:href="#DejaVuSans-2212"/>
       <use xlink:href="#DejaVuSans-31" x="83.789062"/>
       <use xlink:href="#DejaVuSans-30" x="147.412109"/>
       <use xlink:href="#DejaVuSans-30" x="211.035156"/>
      </g>
     </g>
    </g>
    <g id="ytick_2">
     <g id="line2d_13">
      <path d="M 58.945313 256.163582 
L 450 256.163582 
" clip-path="url(#p11790fabe3)" style="fill: none; stroke: #b0b0b0; stroke-width: 0.8; stroke-linecap: square"/>
     </g>
     <g id="line2d_14">
      <g>
       <use xlink:href="#m2d72a92dc8" x="58.945313" y="256.163582" style="stroke: #000000; stroke-width: 0.8"/>
      </g>
     </g>
     <g id="text_8">
      <!-- −80 -->
      <g transform="translate(30.840625 259.962801)scale(0.1 -0.1)">
       <defs>
        <path id="DejaVuSans-38" d="M 2034 2216 
Q 1584 2216 1326 1975 
Q 1069 1734 1069 1313 
Q 1069 891 1326 650 
Q 1584 409 2034 409 
Q 2484 409 2743 651 
Q 3003 894 3003 1313 
Q 3003 1734 2745 1975 
Q 2488 2216 2034 2216 
z
M 1403 2484 
Q 997 2584 770 2862 
Q 544 3141 544 3541 
Q 544 4100 942 4425 
Q 1341 4750 2034 4750 
Q 2731 4750 3128 4425 
Q 3525 4100 3525 3541 
Q 3525 3141 3298 2862 
Q 3072 2584 2669 2484 
Q 3125 2378 3379 2068 
Q 3634 1759 3634 1313 
Q 3634 634 3220 271 
Q 2806 -91 2034 -91 
Q 1263 -91 848 271 
Q 434 634 434 1313 
Q 434 1759 690 2068 
Q 947 2378 1403 2484 
z
M 1172 3481 
Q 1172 3119 1398 2916 
Q 1625 2713 2034 2713 
Q 2441 2713 2670 2916 
Q 2900 3119 2900 3481 
Q 2900 3844 2670 4047 
Q 2441 4250 2034 4250 
Q 1625 4250 1398 4047 
Q 1172 3844 1172 3481 
z
" transform="scale(0.015625)"/>
       </defs>
       <use xlink:href="#DejaVuSans-2212"/>
       <use xlink:href="#DejaVuSans-38" x="83.789062"/>
       <use xlink:href="#DejaVuSans-30" x="147.412109"/>
      </g>
     </g>
    </g>
    <g id="ytick_3">
     <g id="line2d_15">
      <path d="M 58.945313 213.683066 
L 450 213.683066 
" clip-path="url(#p11790fabe3)" style="fill: none; stroke: #b0b0b0; stroke-width: 0.8; stroke-linecap: square"/>
     </g>
     <g id="line2d_16">
      <g>
       <use xlink:href="#m2d72a92dc8" x="58.945313" y="213.683066" style="stroke: #000000; stroke-width: 0.8"/>
      </g>
     </g>
     <g id="text_9">
      <!-- −60 -->
      <g transform="translate(30.840625 217.482285)scale(0.1 -0.1)">
       <defs>
        <path id="DejaVuSans-36" d="M 2113 2584 
Q 1688 2584 1439 2293 
Q 1191 2003 1191 1497 
Q 1191 994 1439 701 
Q 1688 409 2113 409 
Q 2538 409 2786 701 
Q 3034 994 3034 1497 
Q 3034 2003 2786 2293 
Q 2538 2584 2113 2584 
z
M 3366 4563 
L 3366 3988 
Q 3128 4100 2886 4159 
Q 2644 4219 2406 4219 
Q 1781 4219 1451 3797 
Q 1122 3375 1075 2522 
Q 1259 2794 1537 2939 
Q 1816 3084 2150 3084 
Q 2853 3084 3261 2657 
Q 3669 2231 3669 1497 
Q 3669 778 3244 343 
Q 2819 -91 2113 -91 
Q 1303 -91 875 529 
Q 447 1150 447 2328 
Q 447 3434 972 4092 
Q 1497 4750 2381 4750 
Q 2619 4750 2861 4703 
Q 3103 4656 3366 4563 
z
" transform="scale(0.015625)"/>
       </defs>
       <use xlink:href="#DejaVuSans-2212"/>
       <use xlink:href="#DejaVuSans-36" x="83.789062"/>
       <use xlink:href="#DejaVuSans-30" x="147.412109"/>
      </g>
     </g>
    </g>
    <g id="ytick_4">
     <g id="line2d_17">
      <path d="M 58.945313 171.202551 
L 450 171.202551 
" clip-path="url(#p11790fabe3)" style="fill: none; stroke: #b0b0b0; stroke-width: 0.8; stroke-linecap: square"/>
     </g>
     <g id="line2d_18">
      <g>
       <use xlink:href="#m2d72a92dc8" x="58.945313" y="171.202551" style="stroke: #000000; stroke-width: 0.8"/>
      </g>
     </g>
     <g id="text_10">
      <!-- −40 -->
      <g transform="translate(30.840625 175.001769)scale(0.1 -0.1)">
       <use xlink:href="#DejaVuSans-2212"/>
       <use xlink:href="#DejaVuSans-34" x="83.789062"/>
       <use xlink:href="#DejaVuSans-30" x="147.412109"/>
      </g>
     </g>
    </g>
    <g id="ytick_5">
     <g id="line2d_19">
      <path d="M 58.945313 128.722035 
L 450 128.722035 
" clip-path="url(#p11790fabe3)" style="fill: none; stroke: #b0b0b0; stroke-width: 0.8; stroke-linecap: square"/>
     </g>
     <g id="line2d_20">
      <g>
       <use xlink:href="#m2d72a92dc8" x="58.945313" y="128.722035" style="stroke: #000000; stroke-width: 0.8"/>
      </g>
     </g>
     <g id="text_11">
      <!-- −20 -->
      <g transform="translate(30.840625 132.521254)scale(0.1 -0.1)">
       <use xlink:href="#DejaVuSans-2212"/>
       <use xlink:href="#DejaVuSans-32" x="83.789062"/>
       <use xlink:href="#DejaVuSans-30" x="147.412109"/>
      </g>
     </g>
    </g>
    <g id="ytick_6">
     <g id="line2d_21">
      <path d="M 58.945313 86.241519 
L 450 86.241519 
" clip-path="url(#p11790fabe3)" style="fill: none; stroke: #b0b0b0; stroke-width: 0.8; stroke-linecap: square"/>
     </g>
     <g id="line2d_22">
      <g>
       <use xlink:href="#m2d72a92dc8" x="58.945313" y="86.241519" style="stroke: #000000; stroke-width: 0.8"/>
      </g>
     </g>
     <g id="text_12">
      <!-- 0 -->
      <g transform="translate(45.582813 90.040738)scale(0.1 -0.1)">
       <use xlink:href="#DejaVuSans-30"/>
      </g>
     </g>
    </g>
    <g id="ytick_7">
     <g id="line2d_23">
      <path d="M 58.945313 43.761004 
L 450 43.761004 
" clip-path="url(#p11790fabe3)" style="fill: none; stroke: #b0b0b0; stroke-width: 0.8; stroke-linecap: square"/>
     </g>
     <g id="line2d_24">
      <g>
       <use xlink:href="#m2d72a92dc8" x="58.945313" y="43.761004" style="stroke: #000000; stroke-width: 0.8"/>
      </g>
     </g>
     <g id="text_13">
      <!-- 20 -->
      <g transform="translate(39.220313 47.560222)scale(0.1 -0.1)">
       <use xlink:href="#DejaVuSans-32"/>
       <use xlink:href="#DejaVuSans-30" x="63.623047"/>
      </g>
     </g>
    </g>
    <g id="text_14">
     <!-- Wall Distance [mm] -->
     <g transform="translate(18.398438 214.330937)rotate(-90)scale(0.1 -0.1)">
      <defs>
       <path id="DejaVuSans-57" d="M 213 4666 
L 850 4666 
L 1831 722 
L 2809 4666 
L 3519 4666 
L 4500 722 
L 5478 4666 
L 6119 4666 
L 4947 0 
L 4153 0 
L 3169 4050 
L 2175 0 
L 1381 0 
L 213 4666 
z
" transform="scale(0.015625)"/>
       <path id="DejaVuSans-44" d="M 1259 4147 
L 1259 519 
L 2022 519 
Q 2988 519 3436 956 
Q 3884 1394 3884 2338 
Q 3884 3275 3436 3711 
Q 2988 4147 2022 4147 
L 1259 4147 
z
M 628 4666 
L 1925 4666 
Q 3281 4666 3915 4102 
Q 4550 3538 4550 2338 
Q 4550 1131 3912 565 
Q 3275 0 1925 0 
L 628 0 
L 628 4666 
z
" transform="scale(0.015625)"/>
       <path id="DejaVuSans-63" d="M 3122 3366 
L 3122 2828 
Q 2878 2963 2633 3030 
Q 2388 3097 2138 3097 
Q 1578 3097 1268 2742 
Q 959 2388 959 1747 
Q 959 1106 1268 751 
Q 1578 397 2138 397 
Q 2388 397 2633 464 
Q 2878 531 3122 666 
L 3122 134 
Q 2881 22 2623 -34 
Q 2366 -91 2075 -91 
Q 1284 -91 818 406 
Q 353 903 353 1747 
Q 353 2603 823 3093 
Q 1294 3584 2113 3584 
Q 2378 3584 2631 3529 
Q 2884 3475 3122 3366 
z
" transform="scale(0.015625)"/>
       <path id="DejaVuSans-65" d="M 3597 1894 
L 3597 1613 
L 953 1613 
Q 991 1019 1311 708 
Q 1631 397 2203 397 
Q 2534 397 2845 478 
Q 3156 559 3463 722 
L 3463 178 
Q 3153 47 2828 -22 
Q 2503 -91 2169 -91 
Q 1331 -91 842 396 
Q 353 884 353 1716 
Q 353 2575 817 3079 
Q 1281 3584 2069 3584 
Q 2775 3584 3186 3129 
Q 3597 2675 3597 1894 
z
M 3022 2063 
Q 3016 2534 2758 2815 
Q 2500 3097 2075 3097 
Q 1594 3097 1305 2825 
Q 1016 2553 972 2059 
L 3022 2063 
z
" transform="scale(0.015625)"/>
      </defs>
      <use xlink:href="#DejaVuSans-57"/>
      <use xlink:href="#DejaVuSans-61" x="92.501953"/>
      <use xlink:href="#DejaVuSans-6c" x="153.78125"/>
      <use xlink:href="#DejaVuSans-6c" x="181.564453"/>
      <use xlink:href="#DejaVuSans-20" x="209.347656"/>
      <use xlink:href="#DejaVuSans-44" x="241.134766"/>
      <use xlink:href="#DejaVuSans-69" x="318.136719"/>
      <use xlink:href="#DejaVuSans-73" x="345.919922"/>
      <use xlink:href="#DejaVuSans-74" x="398.019531"/>
      <use xlink:href="#DejaVuSans-61" x="437.228516"/>
      <use xlink:href="#DejaVuSans-6e" x="498.507812"/>
      <use xlink:href="#DejaVuSans-63" x="561.886719"/>
      <use xlink:href="#DejaVuSans-65" x="616.867188"/>
      <use xlink:href="#DejaVuSans-20" x="678.390625"/>
      <use xlink:href="#DejaVuSans-5b" x="710.177734"/>
      <use xlink:href="#DejaVuSans-6d" x="749.191406"/>
      <use xlink:href="#DejaVuSans-6d" x="846.603516"/>
      <use xlink:href="#DejaVuSans-5d" x="944.015625"/>
     </g>
    </g>
   </g>
   <g id="line2d_25">
    <path d="M 76.720526 258.946056 
L 86.840547 258.946056 
L 87.211851 182.948413 
L 87.591056 167.612947 
L 87.978161 167.612947 
L 88.365265 151.725234 
L 88.76027 151.725234 
L 89.163175 137.515502 
L 89.984785 125.960801 
L 90.395589 121.436626 
L 90.822195 121.436626 
L 91.2488 113.067965 
L 91.675405 113.067965 
L 92.10991 106.228602 
L 92.544415 106.228602 
L 92.986821 100.009454 
L 93.429226 100.009454 
L 93.879531 93.8604 
L 94.329837 93.8604 
L 94.780142 89.119574 
L 95.238348 89.119574 
L 95.696553 84.743019 
L 97.553075 79.400032 
L 98.019181 78.514313 
L 98.967192 77.363091 
L 99.907304 77.3992 
L 100.381309 77.545758 
L 100.855315 77.545758 
L 101.329321 78.136237 
L 101.803326 79.126033 
L 102.277332 81.897887 
L 102.751338 81.897887 
L 103.225343 85.564167 
L 104.173355 91.026949 
L 105.121366 98.085087 
L 105.595372 98.085087 
L 106.069377 106.967763 
L 106.543383 106.967763 
L 107.017389 116.78501 
L 107.491394 116.78501 
L 107.9654 127.744983 
L 108.439406 127.744983 
L 108.913411 137.834106 
L 109.387417 137.834106 
L 109.861423 144.121222 
L 110.335429 144.121222 
L 110.809434 149.622449 
L 111.28344 152.277481 
L 111.757446 152.277481 
L 112.231451 152.850968 
L 112.705457 152.277481 
L 113.179463 152.850968 
L 116.023497 152.850968 
L 116.497502 152.277481 
L 116.971508 152.277481 
L 117.445514 151.194228 
L 117.919519 152.277481 
L 118.393525 151.725234 
L 119.341536 151.725234 
L 119.815542 149.622449 
L 120.289548 149.112682 
L 121.237559 149.112682 
L 121.711565 150.132215 
L 122.185571 149.112682 
L 122.659576 149.112682 
L 123.133582 148.135631 
L 123.607588 148.135631 
L 124.081593 146.287728 
L 124.555599 146.287728 
L 125.029605 145.841683 
L 125.50361 145.841683 
L 125.977616 145.395637 
L 126.451622 145.395637 
L 126.925627 144.546027 
L 127.399633 144.546027 
L 127.873639 142.910527 
L 129.295656 142.910527 
L 129.769661 140.977664 
L 130.243667 140.977664 
L 130.717673 139.193482 
L 131.191679 139.193482 
L 131.665684 138.853638 
L 132.13969 139.533326 
L 132.613696 139.533326 
L 133.087701 138.853638 
L 134.035713 138.853638 
L 134.509718 138.17395 
L 135.45773 134.711788 
L 135.931735 135.306515 
L 136.405741 134.435664 
L 136.879747 133.840937 
L 137.353752 134.138301 
L 137.827758 134.138301 
L 138.301764 132.46032 
L 138.775769 132.46032 
L 139.249775 132.184197 
L 139.723781 132.184197 
L 140.197786 130.378775 
L 140.671792 130.378775 
L 141.145798 129.635366 
L 141.619804 129.635366 
L 142.093809 129.14684 
L 142.567815 129.14684 
L 143.041821 127.065295 
L 143.515826 127.277697 
L 143.989832 126.619249 
L 144.463838 126.619249 
L 144.937843 125.323594 
L 145.411849 125.323594 
L 145.885855 123.305769 
L 146.35986 123.305769 
L 146.833866 122.732282 
L 147.307872 122.732282 
L 147.781877 121.797711 
L 148.255883 121.797711 
L 148.729889 120.374614 
L 149.203894 120.374614 
L 149.6779 119.333841 
L 150.151906 119.333841 
L 150.625911 117.719581 
L 151.099917 117.231055 
L 152.047929 117.231055 
L 152.521934 115.871679 
L 152.99594 115.871679 
L 153.469946 114.852147 
L 153.943951 114.852147 
L 154.417957 113.598971 
L 154.891963 113.195406 
L 155.365968 113.195406 
L 155.879474 111.87851 
L 156.35348 111.241303 
L 156.827486 111.241303 
L 157.301491 110.264251 
L 157.775497 110.264251 
L 158.249503 108.734952 
L 158.723509 108.734952 
L 159.197514 107.73666 
L 159.67152 107.73666 
L 160.145526 106.75536 
L 160.619531 106.228602 
L 161.093537 105.508557 
L 161.567543 105.508557 
L 162.041548 104.414684 
L 162.515554 104.414684 
L 162.98956 103.26771 
L 164.411577 101.634334 
L 164.885582 100.852693 
L 165.359588 100.427887 
L 165.833594 99.68023 
L 166.307599 99.514556 
L 166.781605 98.633086 
L 167.729616 97.547709 
L 170.573651 94.261841 
L 172.469673 91.753366 
L 172.943679 91.509103 
L 173.417685 90.727462 
L 173.89169 90.317525 
L 174.365696 89.625092 
L 174.839702 89.625092 
L 175.313707 88.951776 
L 175.787713 87.651872 
L 176.735724 86.511908 
L 177.20973 85.66251 
L 177.683736 85.66251 
L 178.157741 84.648075 
L 178.631747 84.131512 
L 179.105753 83.854114 
L 179.579759 83.854114 
L 180.053764 82.681652 
L 180.52777 82.681652 
L 181.001776 81.600523 
L 181.475781 81.600523 
L 181.949787 80.51727 
L 182.423793 80.51727 
L 182.818797 79.242854 
L 183.292803 79.242854 
L 183.766809 78.136237 
L 184.240814 78.136237 
L 184.71482 76.857573 
L 186.136837 74.731424 
L 186.610843 74.304494 
L 187.558854 73.127784 
L 188.03286 73.127784 
L 188.506866 72.089135 
L 188.980871 72.089135 
L 189.454877 71.029247 
L 189.928883 71.029247 
L 190.402888 70.1499 
L 190.876894 70.1499 
L 191.3509 69.351266 
L 191.824905 69.351266 
L 192.298911 68.548384 
L 192.772917 68.548384 
L 193.246922 67.71789 
L 193.720928 67.363178 
L 194.194934 67.161396 
L 194.668939 67.161396 
L 195.142945 66.517816 
L 195.616951 66.517816 
L 196.090956 65.721306 
L 196.564962 65.368718 
L 197.512973 65.34323 
L 197.986979 64.618937 
L 198.460985 64.470255 
L 198.934991 63.981729 
L 199.408996 63.748086 
L 200.357008 62.282508 
L 200.831013 61.475379 
L 201.305019 61.857703 
L 202.25303 61.921424 
L 202.727036 61.645301 
L 203.675047 61.751502 
L 204.149053 62.218788 
L 204.623059 62.898476 
L 205.57107 65.438811 
L 206.519081 70.457884 
L 207.467093 76.432768 
L 208.88911 87.493632 
L 210.785133 106.022571 
L 211.733144 117.231055 
L 214.577178 149.622449 
L 215.051184 152.850968 
L 215.999195 155.229877 
L 216.947206 159.987694 
L 217.421212 159.244285 
L 217.895218 159.987694 
L 218.369223 159.987694 
L 218.843229 160.731103 
L 219.317235 159.987694 
L 219.791241 160.731103 
L 220.739252 159.244285 
L 221.687263 156.504292 
L 222.161269 157.16274 
L 222.635275 156.504292 
L 223.10928 155.229877 
L 223.583286 157.16274 
L 224.057292 154.613909 
L 224.531297 154.019182 
L 225.005303 152.850968 
L 225.479309 153.424455 
L 226.901326 153.424455 
L 227.375331 152.850968 
L 228.323343 152.850968 
L 228.797348 152.277481 
L 229.271354 151.194228 
L 229.74536 150.663221 
L 230.219366 148.135631 
L 231.641383 148.135631 
L 232.115388 146.287728 
L 232.589394 146.287728 
L 233.0634 145.395637 
L 233.537405 145.395637 
L 234.485417 144.546027 
L 234.959422 143.717657 
L 235.433428 143.717657 
L 235.907434 142.124638 
L 236.381439 142.124638 
L 236.855445 140.616579 
L 237.329451 140.616579 
L 237.803456 139.533326 
L 238.277462 139.533326 
L 238.751468 139.193482 
L 239.225473 139.193482 
L 239.699479 138.513794 
L 240.173485 137.175658 
L 240.647491 136.857054 
L 241.121496 135.625119 
L 241.595502 135.922482 
L 242.069508 134.138301 
L 242.543513 133.840937 
L 243.491525 132.736444 
L 243.96553 132.46032 
L 244.439536 131.398307 
L 244.913542 131.143424 
L 245.387547 130.123892 
L 245.861553 129.635366 
L 246.335559 129.635366 
L 246.809564 128.191028 
L 247.28357 128.191028 
L 248.231581 125.960801 
L 248.705587 125.748399 
L 249.179593 125.323594 
L 249.653598 125.323594 
L 250.127604 123.114607 
L 250.60161 123.114607 
L 251.075616 122.54112 
L 251.549621 122.54112 
L 252.023627 120.90562 
L 252.497633 120.90562 
L 252.971638 119.843607 
L 253.445644 119.843607 
L 253.91965 118.186867 
L 254.393655 118.186867 
L 254.867661 117.082374 
L 255.341667 116.78501 
L 255.815672 115.871679 
L 256.763684 114.852147 
L 257.237689 114.27866 
L 257.711695 114.27866 
L 258.185701 113.875095 
L 258.659706 112.6644 
L 261.503741 108.734952 
L 261.977746 108.628751 
L 263.399763 106.649159 
L 263.873769 106.228602 
L 264.347775 105.408728 
L 264.82178 105.107116 
L 265.769792 103.741368 
L 267.191809 102.169589 
L 267.665814 102.169589 
L 268.13982 100.852693 
L 268.613826 100.59781 
L 269.087831 100.59781 
L 269.561837 99.926617 
L 270.035843 98.633086 
L 270.509848 98.633086 
L 270.983854 97.396903 
L 271.45786 97.396903 
L 271.931866 96.360378 
L 272.405871 96.360378 
L 272.879877 95.359962 
L 273.353883 95.359962 
L 273.827888 94.329809 
L 274.301894 94.329809 
L 274.7759 93.204076 
L 275.249905 93.204076 
L 275.723911 92.063474 
L 276.197917 92.063474 
L 276.671922 90.846407 
L 277.145928 90.61064 
L 278.093939 89.174799 
L 278.567945 88.841327 
L 279.041951 88.841327 
L 279.515956 87.388706 
L 279.989962 87.388706 
L 280.463968 86.410613 
L 280.937973 86.410613 
L 281.411979 85.223049 
L 281.885985 85.223049 
L 282.359991 84.085633 
L 282.833996 84.085633 
L 283.308002 82.857946 
L 283.782008 82.857946 
L 284.256013 81.812926 
L 284.730019 81.812926 
L 285.204025 80.88685 
L 285.67803 80.88685 
L 286.152036 79.754745 
L 286.626042 79.754745 
L 287.100047 78.361384 
L 287.574053 78.361384 
L 288.048059 77.290875 
L 288.522064 77.290875 
L 288.99607 76.014335 
L 289.470076 76.014335 
L 289.944081 74.731424 
L 290.418087 74.731424 
L 290.892093 73.440016 
L 291.366098 73.440016 
L 291.840104 72.148608 
L 292.31411 72.148608 
L 292.788116 70.944286 
L 293.262121 70.944286 
L 293.736127 69.871653 
L 294.210133 69.871653 
L 294.684138 68.786275 
L 295.158144 68.786275 
L 295.63215 67.794355 
L 296.106155 67.794355 
L 296.580161 66.887396 
L 297.054167 66.887396 
L 297.528172 66.129119 
L 298.002178 66.129119 
L 298.476184 65.368718 
L 298.950189 65.368718 
L 299.424195 64.618937 
L 299.898201 64.618937 
L 300.372206 64.215372 
L 300.846212 64.215372 
L 301.320218 63.705606 
L 301.794223 63.705606 
L 302.742235 62.707314 
L 303.216241 62.45243 
L 303.690246 62.45243 
L 304.164252 62.027625 
L 304.638258 62.027625 
L 305.586269 61.517859 
L 306.060275 61.496619 
L 306.53428 61.815223 
L 307.008286 62.45243 
L 307.482292 63.302041 
L 307.956297 64.470255 
L 308.430303 64.470255 
L 308.904309 68.261641 
L 309.378314 68.261641 
L 309.85232 73.631178 
L 310.326326 73.631178 
L 310.800331 79.87369 
L 311.274337 79.87369 
L 311.748343 87.704973 
L 312.222348 87.704973 
L 312.696354 97.700638 
L 313.17036 97.700638 
L 313.644366 110.136809 
L 314.118371 110.136809 
L 314.592377 125.748399 
L 315.066383 134.138301 
L 315.540388 134.138301 
L 316.014394 150.132215 
L 316.4884 154.613909 
L 316.962405 154.613909 
L 317.436411 160.731103 
L 317.910417 160.731103 
L 318.384422 165.722564 
L 318.858428 165.722564 
L 319.332434 169.652012 
L 319.806439 169.652012 
L 320.280445 174.239907 
L 320.754451 174.239907 
L 321.228456 173.007973 
L 321.702462 176.852459 
L 322.176468 175.514323 
L 322.650473 175.514323 
L 323.124479 179.719894 
L 323.598485 179.719894 
L 324.072491 176.852459 
L 324.546496 176.852459 
L 325.020502 174.239907 
L 325.494508 174.239907 
L 325.968513 167.612947 
L 326.442519 167.612947 
L 326.916525 165.722564 
L 327.39053 165.722564 
L 327.864536 163.110012 
L 329.286553 163.110012 
L 329.760559 161.495753 
L 330.234564 161.495753 
L 330.70857 158.543357 
L 331.182576 158.543357 
L 331.656581 154.613909 
L 332.130587 156.504292 
L 332.604593 154.019182 
L 333.078598 154.019182 
L 333.552604 152.850968 
L 334.02661 152.850968 
L 334.500616 151.194228 
L 334.974621 151.194228 
L 335.448627 148.135631 
L 335.922633 148.135631 
L 336.396638 146.287728 
L 336.870644 146.287728 
L 337.34465 144.970832 
L 337.818655 144.970832 
L 338.292661 143.717657 
L 338.766667 143.717657 
L 339.240672 140.255495 
L 339.714678 140.255495 
L 340.188684 138.853638 
L 340.662689 138.853638 
L 341.610701 138.17395 
L 342.084706 138.17395 
L 343.032718 134.435664 
L 343.506723 134.435664 
L 343.980729 133.28869 
L 344.454735 133.28869 
L 344.928741 131.143424 
L 345.402746 131.143424 
L 345.876752 129.635366 
L 346.350758 129.635366 
L 346.824763 128.424671 
L 347.298769 128.424671 
L 347.772775 126.619249 
L 348.24678 126.619249 
L 350.142803 124.707626 
L 350.616809 122.732282 
L 351.090814 122.732282 
L 352.038826 121.075542 
L 352.512831 120.714458 
L 354.88286 117.231055 
L 355.356866 116.933692 
L 355.830871 116.169043 
L 356.304877 115.871679 
L 356.778883 115.871679 
L 357.252888 114.427341 
L 357.726894 113.598971 
L 359.622917 111.496186 
L 360.096922 110.264251 
L 361.518939 108.734952 
L 361.992945 107.949063 
L 362.466951 107.609219 
L 362.940956 106.649159 
L 363.888968 105.306775 
L 364.362973 105.306775 
L 364.836979 104.316979 
L 365.310985 104.316979 
L 366.733002 101.899837 
L 367.207008 101.634334 
L 367.681013 100.852693 
L 368.629025 99.760943 
L 369.10303 99.514556 
L 369.577036 98.711675 
L 370.051042 98.31873 
L 370.525047 97.473368 
L 370.999053 97.023074 
L 371.473059 97.023074 
L 371.947064 96.579153 
L 372.42107 95.927077 
L 372.895076 95.572365 
L 373.369081 94.261841 
L 373.843087 93.72871 
L 374.317093 93.72871 
L 374.791098 92.564744 
L 375.265104 92.564744 
L 375.73911 91.388034 
L 376.213116 90.670113 
L 376.687121 90.491695 
L 377.161127 90.491695 
L 377.635133 88.841327 
L 378.109138 88.841327 
L 378.583144 87.598984 
L 379.531155 86.410613 
L 380.005161 86.410613 
L 380.479167 85.761065 
L 380.953172 84.886178 
L 381.427178 84.886178 
L 381.901184 83.760657 
L 382.375189 83.760657 
L 382.849195 82.549962 
L 383.323201 82.549962 
L 383.797206 81.38812 
L 384.271212 81.38812 
L 384.745218 80.234774 
L 385.219223 80.234774 
L 385.693229 79.283211 
L 386.641241 78.100128 
L 387.589252 77.038116 
L 388.063258 77.038116 
L 388.537263 75.912382 
L 389.011269 75.912382 
L 389.485275 74.599734 
L 389.95928 74.599734 
L 390.433286 73.189381 
L 390.907292 73.189381 
L 391.381297 71.968066 
L 391.855303 71.968066 
L 392.329309 70.714891 
L 393.27732 69.162228 
L 394.225331 67.71789 
L 394.699337 67.237861 
L 395.173343 66.420111 
L 397.069366 64.321573 
L 397.543371 64.130411 
L 398.017377 63.748086 
L 398.491383 63.599404 
L 398.965388 63.21708 
L 399.439394 63.21708 
L 399.9134 62.792275 
L 400.861411 62.728554 
L 401.335417 62.473671 
L 401.809422 61.900184 
L 402.283428 61.900184 
L 402.757434 61.475379 
L 403.231439 61.475379 
L 403.705445 61.156775 
L 404.179451 61.156775 
L 404.653456 60.689489 
L 405.127462 60.689489 
L 405.601468 60.031041 
L 406.075473 60.031041 
L 406.549479 57.588411 
L 407.023485 57.46097 
L 407.497491 57.567171 
L 408.445502 57.524691 
L 408.919508 56.993684 
L 409.867519 56.951204 
L 410.341525 57.376009 
L 411.289536 59.563755 
L 411.763542 59.563755 
L 412.237547 63.748086 
L 412.711553 66.420111 
L 413.185559 66.420111 
L 413.659564 69.84404 
L 414.054569 76.78748 
L 415.00258 85.271477 
L 415.871591 95.359962 
L 416.740601 106.022571 
L 417.214607 106.022571 
L 417.609612 116.933692 
L 418.083617 116.933692 
L 418.478622 123.305769 
L 418.873627 123.305769 
L 419.268632 125.960801 
L 419.742637 125.960801 
L 420.137642 126.406847 
L 420.532647 126.406847 
L 420.927652 127.065295 
L 421.322656 127.065295 
L 421.63866 128.424671 
L 422.033665 128.424671 
L 422.42867 128.891957 
L 422.744673 128.891957 
L 423.139678 129.14684 
L 423.455682 128.658314 
L 423.850687 127.277697 
L 424.16669 127.277697 
L 424.798698 126.173204 
L 425.430705 125.748399 
L 425.746709 126.173204 
L 425.983712 126.173204 
L 426.299716 125.960801 
L 426.536719 125.960801 
L 426.852723 124.920029 
L 427.089725 125.132431 
L 427.326728 123.709334 
L 427.800734 122.923445 
L 428.037737 122.732282 
L 429.301752 122.732282 
L 430.170762 119.673685 
L 430.328764 119.843607 
L 430.565767 118.845315 
L 430.723769 119.503763 
L 431.039773 118.845315 
L 431.276776 118.675393 
L 431.434777 117.231055 
L 431.592779 116.933692 
L 431.750781 116.466406 
L 431.750781 116.466406 
L 431.829782 116.933692 
L 432.145786 114.852147 
L 432.145786 115.574315 
L 432.224787 115.574315 
L 432.224787 112.6644 
L 432.224787 113.067965 
" clip-path="url(#p11790fabe3)" style="fill: none; stroke: #1f77b4; stroke-width: 1.5; stroke-linecap: square"/>
   </g>
   <g id="line2d_26">
    <path d="M 76.720526 284.498086 
L 374.317093 284.498086 
L 374.791098 224.281955 
L 375.265104 224.281955 
L 375.73911 218.780728 
L 376.213116 216.401819 
L 376.687121 218.780728 
L 377.161127 218.780728 
L 377.635133 216.401819 
L 378.109138 216.401819 
L 378.583144 208.500443 
L 379.05715 284.498086 
L 381.427178 284.498086 
L 381.901184 198.560003 
L 382.375189 198.560003 
L 382.849195 194.163269 
L 383.323201 194.163269 
L 383.797206 196.287295 
L 385.219223 196.287295 
L 385.693229 235.39061 
L 386.167235 284.498086 
L 388.063258 284.498086 
L 388.537263 206.843703 
L 389.95928 206.843703 
L 390.433286 208.500443 
L 391.855303 208.500443 
L 392.329309 214.192832 
L 392.803314 284.498086 
L 394.699337 284.498086 
L 395.173343 265.509295 
L 395.647348 284.498086 
L 431.276776 284.498086 
L 431.434777 254.3794 
L 431.592779 284.498086 
L 431.750781 246.499265 
L 431.750781 246.499265 
L 431.908783 284.498086 
L 431.908783 284.498086 
L 431.987784 284.498086 
L 431.987784 284.498086 
L 432.145786 231.163798 
L 432.145786 284.498086 
L 432.224787 202.383249 
L 432.224787 284.498086 
" clip-path="url(#p11790fabe3)" style="fill: none; stroke: #ff7f0e; stroke-width: 1.5; stroke-linecap: square"/>
   </g>
   <g id="line2d_27">
    <path d="M 76.720526 205.845411 
L 76.720557 205.845411 
L 76.731364 291.783494 
L 76.827177 223.665987 
L 76.937304 205.845411 
L 76.973329 205.845411 
L 77.056991 207.056106 
L 77.105023 186.261893 
L 77.157401 207.056106 
L 77.214281 189.341731 
L 77.275902 211.070515 
L 77.3425 208.330521 
L 77.573736 208.330521 
L 77.662217 212.557333 
L 77.756228 272.773464 
L 77.855769 242.676018 
L 77.96242 261.664809 
L 78.075392 261.664809 
L 78.194683 291.783494 
L 78.454596 211.070515 
L 78.595218 207.056106 
L 78.74216 209.668658 
L 78.897002 207.056106 
L 79.228016 211.070515 
L 79.403398 211.070515 
L 79.58668 291.783494 
L 79.777072 207.056106 
L 79.974575 205.845411 
L 80.178397 291.783494 
L 80.39012 226.066137 
L 80.608952 226.066137 
L 80.834895 193.568542 
L 81.067158 205.845411 
L 81.307321 203.551463 
L 81.554594 199.494574 
L 81.808977 221.478241 
L 82.06968 198.560003 
L 82.338283 215.785852 
L 82.613996 195.947451 
L 82.89682 195.947451 
L 83.185963 202.48945 
L 83.483007 195.119081 
L 83.78716 196.797061 
L 84.098424 193.568542 
L 84.416008 192.803893 
L 84.739122 192.803893 
L 85.070926 190.000179 
L 85.758234 187.451348 
L 86.113738 176.95866 
L 86.477143 176.95866 
L 86.840547 186.261893 
L 87.211851 178.233076 
L 87.591056 185.114919 
L 87.978161 185.114919 
L 88.365265 185.667166 
L 88.76027 185.667166 
L 89.163175 195.947451 
L 89.57398 191.359555 
L 89.984785 194.333191 
L 90.395589 191.359555 
L 90.822195 191.359555 
L 91.2488 188.683283 
L 91.675405 188.683283 
L 92.10991 179.103927 
L 92.544415 179.103927 
L 92.986821 180.484543 
L 93.429226 180.484543 
L 93.879531 178.233076 
L 95.238348 178.233076 
L 96.162659 175.726726 
L 97.08697 174.197427 
L 97.553075 174.197427 
L 98.019181 173.092934 
L 98.493187 171.669836 
L 98.967192 171.669836 
L 99.433298 165.297759 
L 99.907304 177.362225 
L 100.855315 177.362225 
L 101.329321 175.726726 
L 101.803326 176.13029 
L 102.277332 171.669836 
L 102.751338 171.669836 
L 103.699349 161.729396 
L 104.173355 166.104889 
L 104.64736 166.678376 
L 105.121366 163.959623 
L 105.595372 163.959623 
L 106.069377 162.94009 
L 106.543383 162.94009 
L 107.017389 161.26211 
L 107.491394 161.26211 
L 107.9654 160.327539 
L 108.439406 160.327539 
L 108.913411 158.79824 
L 109.387417 158.79824 
L 109.861423 157.545065 
L 110.335429 157.545065 
L 110.809434 156.143208 
L 111.28344 159.010643 
L 111.757446 157.332662 
L 112.231451 156.737935 
L 112.705457 156.737935 
L 113.179463 153.551896 
L 113.653468 152.17128 
L 114.127474 151.172987 
L 115.075485 150.387098 
L 115.549491 150.387098 
L 116.023497 150.217176 
L 116.497502 147.965709 
L 116.971508 149.74989 
L 117.919519 148.411754 
L 118.393525 148.11439 
L 118.867531 147.540903 
L 119.341536 147.540903 
L 119.815542 146.691293 
L 120.289548 146.691293 
L 120.763554 146.839975 
L 121.237559 146.839975 
L 121.711565 147.392222 
L 122.185571 146.43641 
L 122.659576 146.43641 
L 123.133582 145.756722 
L 123.607588 145.756722 
L 124.081593 144.078741 
L 124.555599 144.078741 
L 125.029605 141.572391 
L 125.50361 141.572391 
L 125.977616 141.232547 
L 126.451622 141.232547 
L 126.925627 145.098274 
L 127.399633 145.098274 
L 127.873639 140.892703 
L 128.347644 140.892703 
L 128.82165 140.021852 
L 129.295656 140.021852 
L 129.769661 139.363404 
L 130.243667 139.363404 
L 130.717673 139.915651 
L 131.191679 139.915651 
L 131.665684 147.26478 
L 132.13969 140.340456 
L 132.613696 140.340456 
L 133.087701 141.572391 
L 133.561707 141.572391 
L 134.035713 143.335332 
L 134.509718 143.335332 
L 134.983724 141.572391 
L 135.45773 141.572391 
L 135.931735 140.446657 
L 136.405741 142.740605 
L 136.879747 142.740605 
L 137.353752 143.696417 
L 137.827758 143.696417 
L 138.301764 144.588508 
L 138.775769 144.588508 
L 139.249775 144.715949 
L 139.723781 144.715949 
L 140.197786 145.480598 
L 140.671792 145.480598 
L 141.145798 146.43641 
L 141.619804 146.43641 
L 142.093809 147.817027 
L 142.567815 147.817027 
L 143.989832 152.17128 
L 144.463838 152.17128 
L 144.937843 153.190812 
L 145.411849 153.190812 
L 145.885855 151.831435 
L 146.35986 151.831435 
L 146.833866 153.721818 
L 147.307872 153.721818 
L 147.781877 158.79824 
L 148.255883 158.79824 
L 148.729889 160.794824 
L 149.203894 160.794824 
L 149.6779 170.671544 
L 150.151906 170.671544 
L 150.625911 177.362225 
L 151.099917 178.233076 
L 151.573923 186.83538 
L 152.047929 186.83538 
L 152.521934 198.560003 
L 152.99594 198.560003 
L 153.469946 215.785852 
L 153.943951 215.785852 
L 154.417957 291.783494 
L 159.67152 291.783494 
L 160.145526 231.567363 
L 160.619531 291.783494 
L 162.515554 291.783494 
L 162.98956 200.450386 
L 163.463565 291.783494 
L 166.781605 291.783494 
L 167.255611 242.676018 
L 167.729616 242.676018 
L 168.203622 238.449207 
L 168.677628 291.783494 
L 169.151634 291.783494 
L 169.625639 261.664809 
L 170.573651 261.664809 
L 171.047656 291.783494 
L 171.521662 291.783494 
L 171.995668 203.551463 
L 172.469673 272.773464 
L 172.943679 291.783494 
L 188.03286 291.783494 
L 188.506866 238.449207 
L 188.980871 238.449207 
L 189.454877 217.548793 
L 189.928883 217.548793 
L 190.402888 215.785852 
L 192.772917 215.785852 
L 193.246922 208.330521 
L 193.720928 214.129112 
L 194.194934 201.448678 
L 194.668939 201.448678 
L 195.142945 207.056106 
L 195.616951 207.056106 
L 196.090956 228.678688 
L 196.564962 215.785852 
L 197.038968 215.785852 
L 197.986979 212.557333 
L 198.460985 195.947451 
L 198.934991 195.947451 
L 199.408996 190.000179 
L 199.883002 189.341731 
L 200.357008 189.341731 
L 201.305019 185.667166 
L 201.779025 185.667166 
L 202.25303 184.010426 
L 202.727036 184.010426 
L 203.201042 175.344401 
L 203.675047 177.362225 
L 204.149053 181.461595 
L 204.623059 177.787031 
L 205.097064 189.341731 
L 205.57107 176.95866 
L 206.045076 182.459887 
L 206.519081 177.787031 
L 206.993087 170.990148 
L 207.467093 177.787031 
L 207.941098 176.95866 
L 208.415104 176.95866 
L 209.363116 166.678376 
L 209.837121 167.549226 
L 210.311127 163.70474 
L 210.785133 162.94009 
L 211.259138 162.451564 
L 211.733144 162.217922 
L 212.20715 162.94009 
L 212.681155 162.451564 
L 213.155161 162.451564 
L 213.629167 161.963038 
L 214.103172 162.217922 
L 214.577178 159.881493 
L 215.051184 158.79824 
L 215.525189 158.585837 
L 215.999195 156.929097 
L 216.473201 157.545065 
L 216.947206 159.435448 
L 217.421212 160.327539 
L 217.895218 157.545065 
L 218.369223 157.545065 
L 218.843229 157.332662 
L 219.791241 153.381974 
L 220.265246 153.912981 
L 220.739252 153.551896 
L 221.213258 153.551896 
L 221.687263 152.850968 
L 222.161269 151.831435 
L 222.635275 151.831435 
L 223.10928 152.17128 
L 223.583286 152.17128 
L 224.057292 151.661513 
L 224.531297 151.661513 
L 225.005303 150.387098 
L 225.479309 150.387098 
L 225.953314 150.217176 
L 226.42732 150.217176 
L 226.901326 152.850968 
L 227.375331 152.850968 
L 227.849337 150.217176 
L 228.797348 150.217176 
L 229.271354 153.02089 
L 229.74536 151.172987 
L 230.219366 150.068494 
L 231.641383 150.068494 
L 232.115388 150.217176 
L 233.537405 150.217176 
L 234.011411 150.705702 
L 234.485417 150.705702 
L 234.959422 151.172987 
L 235.433428 151.172987 
L 235.907434 151.661513 
L 236.381439 151.661513 
L 236.855445 152.001358 
L 237.329451 152.001358 
L 237.803456 161.26211 
L 238.277462 161.26211 
L 238.751468 153.721818 
L 239.699479 153.721818 
L 240.173485 153.190812 
L 240.647491 152.17128 
L 241.121496 152.511124 
L 241.595502 153.551896 
L 242.069508 155.187396 
L 242.543513 154.996234 
L 243.017519 155.187396 
L 243.491525 156.546773 
L 243.96553 158.373435 
L 244.439536 156.737935 
L 244.913542 160.327539 
L 245.387547 161.729396 
L 245.861553 162.706447 
L 246.335559 162.706447 
L 246.809564 166.678376 
L 247.28357 166.678376 
L 247.757576 173.815102 
L 248.231581 173.815102 
L 248.705587 186.261893 
L 249.179593 192.803893 
L 249.653598 192.803893 
L 250.127604 193.568542 
L 250.60161 193.568542 
L 251.075616 199.494574 
L 251.549621 199.494574 
L 252.023627 217.548793 
L 252.497633 217.548793 
L 252.971638 291.783494 
L 263.873769 291.783494 
L 264.347775 272.773464 
L 264.82178 291.783494 
L 267.665814 291.783494 
L 268.13982 231.567363 
L 268.613826 291.783494 
L 270.509848 291.783494 
L 270.983854 242.676018 
L 271.45786 242.676018 
L 271.931866 272.773464 
L 275.249905 272.773464 
L 275.723911 247.667479 
L 276.197917 247.667479 
L 276.671922 272.773464 
L 277.145928 291.783494 
L 279.989962 291.783494 
L 280.463968 231.567363 
L 280.937973 231.567363 
L 281.411979 291.783494 
L 282.833996 291.783494 
L 283.308002 272.773464 
L 283.782008 272.773464 
L 284.256013 291.783494 
L 284.730019 291.783494 
L 285.204025 272.773464 
L 285.67803 272.773464 
L 286.152036 291.783494 
L 288.522064 291.783494 
L 288.99607 238.449207 
L 289.470076 238.449207 
L 289.944081 234.774642 
L 290.418087 234.774642 
L 290.892093 221.478241 
L 291.366098 221.478241 
L 291.840104 215.785852 
L 292.31411 215.785852 
L 292.788116 214.129112 
L 294.210133 214.129112 
L 294.684138 207.056106 
L 295.158144 207.056106 
L 295.63215 291.783494 
L 296.106155 291.783494 
L 296.580161 208.330521 
L 297.054167 208.330521 
L 297.528172 291.783494 
L 298.002178 291.783494 
L 298.476184 200.450386 
L 298.950189 200.450386 
L 299.424195 185.667166 
L 299.898201 185.667166 
L 300.372206 247.667479 
L 300.846212 247.667479 
L 301.320218 184.562673 
L 301.794223 184.562673 
L 302.268229 182.969653 
L 302.742235 178.233076 
L 303.216241 177.787031 
L 303.690246 177.787031 
L 304.164252 177.362225 
L 304.638258 177.362225 
L 305.112263 177.787031 
L 305.586269 177.787031 
L 306.060275 170.990148 
L 306.53428 180.017258 
L 307.008286 180.017258 
L 307.482292 174.197427 
L 308.430303 174.197427 
L 308.904309 170.671544 
L 309.378314 170.671544 
L 309.85232 168.759921 
L 310.326326 168.759921 
L 310.800331 166.975739 
L 311.274337 166.975739 
L 311.748343 167.549226 
L 312.222348 167.549226 
L 312.696354 165.828765 
L 313.17036 165.828765 
L 313.644366 163.959623 
L 314.118371 163.959623 
L 314.592377 167.84659 
L 315.066383 166.104889 
L 315.540388 166.104889 
L 316.014394 166.402252 
L 316.4884 163.959623 
L 316.962405 163.959623 
L 317.436411 161.729396 
L 317.910417 161.729396 
L 318.384422 159.223045 
L 318.858428 159.223045 
L 319.332434 160.327539 
L 319.806439 160.327539 
L 320.280445 158.373435 
L 320.754451 158.373435 
L 321.228456 157.545065 
L 321.702462 157.736227 
L 322.176468 156.143208 
L 322.650473 155.569721 
L 323.124479 155.569721 
L 323.598485 158.585837 
L 324.546496 158.585837 
L 325.020502 155.952045 
L 325.494508 155.952045 
L 325.968513 155.569721 
L 326.442519 155.569721 
L 326.916525 154.996234 
L 327.39053 154.996234 
L 327.864536 155.187396 
L 328.338542 155.187396 
L 328.812547 153.721818 
L 329.286553 153.721818 
L 329.760559 153.551896 
L 330.234564 153.551896 
L 330.70857 154.274065 
L 331.182576 154.274065 
L 331.656581 153.721818 
L 332.130587 155.760883 
L 332.604593 156.546773 
L 333.078598 156.546773 
L 333.552604 157.332662 
L 334.02661 157.736227 
L 334.500616 154.826312 
L 334.974621 154.826312 
L 335.448627 152.511124 
L 335.922633 152.511124 
L 336.396638 154.826312 
L 336.870644 154.826312 
L 337.34465 154.996234 
L 337.818655 154.996234 
L 338.292661 155.569721 
L 338.766667 155.569721 
L 339.240672 152.511124 
L 339.714678 152.511124 
L 340.662689 162.94009 
L 341.136695 162.94009 
L 341.610701 161.028467 
L 342.084706 161.028467 
L 342.558712 166.975739 
L 343.032718 164.745512 
L 343.506723 164.745512 
L 343.980729 165.552642 
L 344.454735 165.552642 
L 344.928741 167.549226 
L 345.402746 167.549226 
L 345.876752 171.669836 
L 346.350758 171.669836 
L 346.824763 176.95866 
L 347.298769 176.95866 
L 347.772775 177.787031 
L 348.24678 177.787031 
L 348.720786 181.950121 
L 349.194792 198.560003 
L 349.668797 198.560003 
L 350.142803 221.478241 
L 350.616809 253.784673 
L 351.090814 215.785852 
L 351.56482 215.785852 
L 352.038826 291.783494 
L 358.2009 291.783494 
L 358.674905 242.676018 
L 359.148911 291.783494 
L 366.733002 291.783494 
L 367.207008 238.449207 
L 367.681013 291.783494 
L 372.42107 291.783494 
L 372.895076 242.676018 
L 373.369081 291.783494 
L 374.317093 291.783494 
L 374.791098 261.664809 
L 375.265104 261.664809 
L 375.73911 253.784673 
L 376.213116 291.783494 
L 376.687121 247.667479 
L 377.161127 247.667479 
L 377.635133 291.783494 
L 391.855303 291.783494 
L 392.329309 242.676018 
L 392.803314 291.783494 
L 394.699337 291.783494 
L 395.173343 226.066137 
L 395.647348 207.056106 
L 396.121354 201.448678 
L 396.59536 198.560003 
L 397.069366 199.494574 
L 397.543371 197.667912 
L 398.017377 197.667912 
L 398.491383 186.83538 
L 398.965388 202.48945 
L 399.439394 202.48945 
L 399.9134 219.439176 
L 400.387405 214.129112 
L 401.335417 214.129112 
L 401.809422 196.797061 
L 402.283428 196.797061 
L 402.757434 184.010426 
L 403.231439 184.010426 
L 403.705445 179.103927 
L 404.179451 179.103927 
L 404.653456 180.973069 
L 405.127462 180.973069 
L 405.601468 195.947451 
L 406.075473 195.947451 
L 406.549479 194.333191 
L 407.023485 193.568542 
L 407.497491 291.783494 
L 408.445502 291.783494 
L 408.919508 172.370765 
L 409.393513 172.370765 
L 409.867519 170.990148 
L 410.341525 171.669836 
L 410.81553 168.441317 
L 411.289536 185.667166 
L 411.763542 185.667166 
L 412.237547 179.571212 
L 412.711553 178.233076 
L 413.185559 178.233076 
L 413.659564 167.549226 
L 414.528575 159.881493 
L 415.00258 163.194973 
L 415.871591 161.495753 
L 416.345597 159.881493 
L 416.740601 168.143953 
L 417.214607 168.143953 
L 417.609612 169.694492 
L 418.083617 169.694492 
L 418.478622 170.671544 
L 418.873627 170.671544 
L 419.268632 167.549226 
L 419.742637 167.549226 
L 420.137642 157.545065 
L 420.532647 157.545065 
L 420.927652 155.760883 
L 421.322656 155.760883 
L 421.63866 155.569721 
L 422.033665 155.569721 
L 422.42867 162.217922 
L 422.744673 162.217922 
L 423.139678 160.561181 
L 423.455682 160.561181 
L 423.850687 153.721818 
L 424.16669 151.172987 
L 424.482694 150.854384 
L 424.798698 151.34291 
L 425.114702 150.068494 
L 425.430705 150.217176 
L 425.746709 149.74989 
L 425.983712 149.74989 
L 426.299716 157.1415 
L 426.536719 157.1415 
L 426.852723 155.569721 
L 427.089725 155.569721 
L 427.326728 150.068494 
L 427.563731 147.540903 
L 427.800734 146.43641 
L 428.037737 148.411754 
L 428.511742 146.160287 
L 428.748745 145.480598 
L 428.906747 145.480598 
L 429.14375 155.378559 
L 429.301752 155.378559 
L 429.538755 151.661513 
L 429.696757 152.17128 
L 429.854759 145.480598 
L 430.170762 145.480598 
L 430.328764 146.43641 
L 430.565767 146.160287 
L 430.723769 154.274065 
L 430.881771 154.274065 
L 431.039773 155.569721 
L 431.276776 155.760883 
L 431.434777 149.601208 
L 431.592779 149.74989 
L 431.750781 148.709118 
L 431.750781 148.709118 
L 431.908783 155.569721 
L 431.908783 155.569721 
L 432.145786 146.563852 
L 432.224787 166.402252 
L 432.224787 145.480598 
L 432.224787 158.161032 
" clip-path="url(#p11790fabe3)" style="fill: none; stroke: #2ca02c; stroke-width: 1.5; stroke-linecap: square"/>
   </g>
   <g id="line2d_28">
    <path d="M 76.720526 126.810412 
L 76.720557 126.810412 
L 76.789952 129.571645 
L 76.827177 127.575061 
L 76.849929 127.575061 
L 76.973329 128.360951 
L 77.157401 126.810412 
L 77.214281 127.575061 
L 77.275902 126.428087 
L 77.414233 127.575061 
L 77.573736 126.810412 
L 77.662217 127.575061 
L 77.855769 126.067003 
L 78.075392 126.067003 
L 78.194683 126.428087 
L 78.454596 124.98375 
L 78.595218 124.643905 
L 78.74216 125.344834 
L 78.897002 124.98375 
L 79.058954 124.304061 
L 79.228016 124.643905 
L 79.403398 124.643905 
L 79.58668 124.304061 
L 80.178397 124.304061 
L 80.39012 123.964217 
L 80.608952 124.304061 
L 80.834895 123.624373 
L 81.067158 123.624373 
L 81.307321 122.965925 
L 81.554594 123.284529 
L 81.808977 122.965925 
L 82.06968 123.284529 
L 82.338283 123.284529 
L 82.613996 122.307477 
L 82.89682 122.010113 
L 83.185963 122.010113 
L 83.483007 121.075542 
L 83.78716 121.372906 
L 84.098424 119.588724 
L 84.416008 120.778178 
L 84.739122 119.588724 
L 85.070926 119.588724 
L 85.41063 119.312601 
L 85.758234 118.46299 
L 86.840547 117.63462 
L 87.211851 116.848731 
L 87.591056 116.593848 
L 87.978161 116.593848 
L 88.365265 116.084082 
L 88.76027 116.084082 
L 89.163175 115.085789 
L 89.57398 114.597263 
L 89.984785 114.363621 
L 90.395589 113.641452 
L 90.822195 113.641452 
L 91.2488 112.515718 
L 91.675405 112.515718 
L 92.10991 111.198822 
L 92.544415 111.198822 
L 92.986821 109.563322 
L 93.429226 109.563322 
L 93.879531 108.968595 
L 94.329837 108.968595 
L 94.780142 107.991543 
L 95.238348 107.991543 
L 96.162659 106.349671 
L 96.620864 105.132605 
L 97.08697 104.79276 
L 97.553075 104.79276 
L 98.019181 103.480113 
L 98.493187 103.641538 
L 98.967192 102.847153 
L 99.433298 102.534921 
L 100.381309 101.62159 
L 100.855315 101.62159 
L 101.329321 100.737995 
L 101.803326 100.449128 
L 102.277332 99.187456 
L 102.751338 99.187456 
L 103.225343 98.509892 
L 105.121366 96.950857 
L 105.595372 96.950857 
L 106.069377 95.837868 
L 106.543383 95.837868 
L 107.017389 94.767359 
L 107.491394 94.767359 
L 107.9654 94.189624 
L 108.439406 94.189624 
L 108.913411 93.070262 
L 109.387417 93.070262 
L 109.861423 92.101706 
L 110.335429 92.101706 
L 110.809434 90.859151 
L 111.28344 90.759322 
L 111.757446 90.160347 
L 112.705457 89.287372 
L 113.653468 87.891675 
L 114.127474 87.710708 
L 115.075485 86.476861 
L 116.023497 85.88001 
L 116.971508 84.562902 
L 117.445514 83.849866 
L 117.919519 83.46117 
L 119.341536 81.957359 
L 119.815542 81.521934 
L 120.289548 80.812509 
L 120.763554 80.534262 
L 121.237559 80.534262 
L 121.711565 79.512606 
L 122.185571 78.917878 
L 122.659576 78.917878 
L 123.133582 78.078888 
L 123.607588 78.078888 
L 124.081593 76.477373 
L 124.555599 76.477373 
L 125.029605 75.421732 
L 125.50361 75.421732 
L 125.977616 74.293874 
L 126.451622 74.293874 
L 126.925627 72.945118 
L 127.399633 72.945118 
L 127.873639 71.813012 
L 128.347644 71.813012 
L 128.82165 70.821092 
L 129.295656 70.821092 
L 129.769661 69.491452 
L 130.243667 69.491452 
L 130.717673 68.399703 
L 131.191679 68.399703 
L 131.665684 67.180512 
L 132.13969 66.590033 
L 132.613696 66.590033 
L 133.087701 65.326237 
L 133.561707 65.326237 
L 134.035713 64.194132 
L 134.983724 62.664833 
L 135.931735 61.390418 
L 136.879747 60.179723 
L 137.353752 59.521275 
L 137.827758 59.521275 
L 138.301764 58.395541 
L 138.775769 58.395541 
L 139.249775 57.121126 
L 139.723781 57.121126 
L 140.197786 55.82547 
L 140.671792 55.82547 
L 141.145798 54.444853 
L 141.619804 54.444853 
L 142.093809 53.127957 
L 142.567815 53.127957 
L 143.041821 51.917263 
L 143.515826 51.471217 
L 143.989832 50.812769 
L 144.463838 50.812769 
L 144.937843 49.708276 
L 145.411849 49.708276 
L 145.885855 48.625023 
L 146.35986 48.625023 
L 146.833866 47.647971 
L 147.307872 47.647971 
L 147.781877 46.75588 
L 148.255883 46.75588 
L 148.729889 45.736348 
L 149.203894 45.736348 
L 149.6779 44.780536 
L 150.151906 44.780536 
L 150.625911 43.591082 
L 151.573923 42.422867 
L 152.047929 42.422867 
L 152.521934 41.275893 
L 152.99594 41.275893 
L 153.469946 40.043958 
L 153.943951 40.043958 
L 154.891963 39.38551 
L 155.365968 39.38551 
L 155.879474 38.790783 
L 156.35348 38.578381 
L 156.827486 38.578381 
L 157.301491 38.854504 
L 157.775497 38.854504 
L 158.249503 41.360854 
L 158.723509 41.360854 
L 159.197514 46.628438 
L 159.67152 46.628438 
L 160.145526 54.805938 
L 161.093537 65.326237 
L 161.567543 65.326237 
L 162.041548 78.27005 
L 162.515554 78.27005 
L 162.98956 94.074926 
L 164.411577 117.379737 
L 164.885582 124.304061 
L 165.833594 135.582638 
L 167.255611 143.99378 
L 167.729616 148.560436 
L 168.203622 149.410046 
L 168.677628 151.172987 
L 169.625639 151.172987 
L 170.099645 153.06337 
L 170.573651 153.06337 
L 171.047656 154.061663 
L 171.521662 152.107559 
L 171.995668 154.061663 
L 172.469673 151.172987 
L 172.943679 150.280897 
L 173.417685 151.172987 
L 173.89169 149.410046 
L 174.365696 151.172987 
L 175.313707 151.172987 
L 175.787713 149.410046 
L 176.261719 148.560436 
L 176.735724 148.560436 
L 177.20973 147.753306 
L 177.683736 147.753306 
L 178.157741 146.946176 
L 178.631747 144.694709 
L 179.105753 145.438118 
L 179.579759 145.438118 
L 180.053764 142.613164 
L 180.52777 142.613164 
L 181.001776 144.694709 
L 181.475781 144.694709 
L 181.949787 140.064333 
L 182.423793 140.064333 
L 182.818797 138.874878 
L 184.240814 138.874878 
L 184.71482 138.301391 
L 185.188826 138.301391 
L 185.662831 137.727904 
L 186.136837 135.582638 
L 186.610843 136.644651 
L 187.084848 135.072872 
L 187.558854 134.563106 
L 188.03286 134.563106 
L 188.506866 132.184197 
L 188.980871 132.184197 
L 189.454877 130.846061 
L 189.928883 130.846061 
L 190.402888 129.99645 
L 190.876894 129.99645 
L 191.3509 128.360951 
L 191.824905 128.360951 
L 192.298911 126.428087 
L 192.772917 126.428087 
L 193.246922 124.304061 
L 194.668939 124.304061 
L 195.142945 122.647321 
L 195.616951 122.647321 
L 196.090956 120.459575 
L 196.564962 119.886088 
L 197.038968 119.886088 
L 198.460985 116.593848 
L 198.934991 116.084082 
L 199.408996 115.085789 
L 199.883002 114.830906 
L 200.357008 114.363621 
L 201.305019 112.961764 
L 201.779025 112.515718 
L 202.25303 111.411225 
L 202.727036 110.98642 
L 203.201042 109.966887 
L 203.675047 109.563322 
L 204.149053 108.56503 
L 204.623059 108.182706 
L 205.097064 107.991543 
L 205.57107 107.254506 
L 206.045076 107.07184 
L 206.519081 106.52809 
L 206.993087 105.302527 
L 207.941098 104.293614 
L 208.88911 102.689975 
L 209.363116 102.689975 
L 209.837121 102.074007 
L 210.785133 100.304694 
L 211.259138 99.739703 
L 211.733144 99.461456 
L 212.20715 98.376079 
L 212.681155 98.110575 
L 213.155161 97.333182 
L 213.629167 96.82554 
L 214.577178 95.474659 
L 217.421212 91.785227 
L 217.895218 90.961105 
L 218.369223 90.961105 
L 218.843229 89.57624 
L 219.317235 89.002753 
L 219.791241 87.891675 
L 220.265246 87.531015 
L 220.739252 86.73663 
L 221.213258 86.304964 
L 223.10928 83.771277 
L 223.583286 82.925915 
L 225.005303 81.451841 
L 225.479309 80.604355 
L 225.953314 80.19017 
L 226.42732 79.378792 
L 226.901326 78.852034 
L 227.375331 78.142609 
L 227.849337 77.88985 
L 228.323343 77.88985 
L 228.797348 77.08272 
L 229.74536 75.192337 
L 230.219366 74.795144 
L 230.693371 74.795144 
L 231.167377 73.58445 
L 231.641383 73.58445 
L 232.115388 72.065771 
L 232.589394 72.065771 
L 233.0634 70.96765 
L 233.537405 70.96765 
L 234.011411 69.676242 
L 234.485417 69.259933 
L 234.959422 68.578121 
L 235.433428 68.578121 
L 235.907434 67.435395 
L 236.381439 67.435395 
L 236.855445 66.175848 
L 237.329451 66.175848 
L 237.803456 65.285881 
L 238.277462 65.285881 
L 238.751468 64.08793 
L 239.225473 64.08793 
L 239.699479 62.707314 
L 240.173485 61.878944 
L 242.543513 58.947788 
L 244.913542 55.591827 
L 245.861553 54.444853 
L 246.335559 54.444853 
L 246.809564 53.31912 
L 247.28357 53.31912 
L 247.757576 52.49075 
L 248.231581 51.959743 
L 248.705587 51.619899 
L 249.653598 51.556178 
L 250.127604 50.04812 
L 250.60161 50.04812 
L 251.075616 48.901146 
L 251.549621 48.901146 
L 252.023627 47.839133 
L 252.497633 47.839133 
L 252.971638 46.840841 
L 253.445644 46.840841 
L 253.91965 45.396503 
L 254.393655 45.396503 
L 254.867661 44.801776 
L 255.815672 44.079607 
L 257.237689 43.038835 
L 257.711695 43.038835 
L 258.185701 42.826432 
L 258.659706 44.185809 
L 259.133712 45.162861 
L 259.607718 46.862081 
L 260.555729 52.299587 
L 261.503741 59.818639 
L 262.451752 68.939205 
L 263.399763 80.258139 
L 264.82178 101.028987 
L 265.769792 115.085789 
L 267.191809 135.072872 
L 267.665814 135.072872 
L 268.613826 143.99378 
L 269.087831 143.99378 
L 269.561837 144.694709 
L 270.035843 148.560436 
L 270.509848 148.560436 
L 270.983854 151.172987 
L 271.45786 151.172987 
L 271.931866 152.107559 
L 272.405871 152.107559 
L 272.879877 151.172987 
L 274.301894 151.172987 
L 274.7759 148.560436 
L 275.249905 148.560436 
L 275.723911 149.410046 
L 276.197917 149.410046 
L 276.671922 146.946176 
L 277.145928 146.946176 
L 277.619934 142.613164 
L 278.093939 144.694709 
L 278.567945 143.292852 
L 279.041951 143.292852 
L 279.515956 141.954716 
L 279.989962 141.954716 
L 280.463968 140.064333 
L 280.937973 140.064333 
L 281.411979 139.469605 
L 281.885985 139.469605 
L 282.359991 138.301391 
L 282.833996 138.301391 
L 283.308002 137.175658 
L 283.782008 137.175658 
L 284.256013 135.072872 
L 284.730019 135.072872 
L 285.204025 134.07458 
L 285.67803 134.07458 
L 286.152036 131.292106 
L 286.626042 131.292106 
L 287.100047 130.421256 
L 287.574053 130.421256 
L 288.048059 129.16808 
L 288.522064 129.16808 
L 288.99607 126.810412 
L 290.418087 126.810412 
L 290.892093 124.643905 
L 291.366098 124.643905 
L 291.840104 124.304061 
L 292.31411 124.304061 
L 292.788116 123.624373 
L 293.262121 123.624373 
L 293.736127 122.307477 
L 294.210133 122.307477 
L 294.684138 120.459575 
L 295.158144 120.459575 
L 295.63215 119.312601 
L 296.106155 119.312601 
L 296.580161 117.910744 
L 297.054167 117.910744 
L 297.528172 116.593848 
L 298.002178 116.593848 
L 298.476184 115.319432 
L 298.950189 115.319432 
L 299.424195 113.875095 
L 299.898201 113.875095 
L 300.372206 113.407809 
L 300.846212 113.407809 
L 301.320218 111.85727 
L 301.794223 111.85727 
L 302.268229 110.370452 
L 302.742235 109.35092 
L 303.690246 109.35092 
L 304.164252 108.182706 
L 304.638258 108.182706 
L 305.112263 106.889174 
L 306.060275 105.132605 
L 306.53428 104.79276 
L 307.008286 104.12794 
L 307.482292 103.161509 
L 307.956297 102.534921 
L 308.430303 102.534921 
L 308.904309 101.62159 
L 309.378314 101.62159 
L 309.85232 99.879889 
L 310.326326 99.879889 
L 310.800331 98.509892 
L 311.274337 98.509892 
L 311.748343 97.719755 
L 312.222348 97.719755 
L 312.696354 96.080007 
L 313.17036 96.080007 
L 313.644366 94.767359 
L 314.118371 94.767359 
L 314.592377 94.074926 
L 315.066383 93.180711 
L 315.540388 93.180711 
L 316.014394 91.681149 
L 316.4884 90.961105 
L 316.962405 90.961105 
L 317.436411 89.480659 
L 317.910417 89.480659 
L 318.384422 88.25722 
L 318.858428 88.25722 
L 319.332434 87.175029 
L 319.806439 87.175029 
L 320.280445 85.964546 
L 320.754451 85.964546 
L 321.702462 84.085633 
L 322.176468 83.614099 
L 322.650473 82.925915 
L 323.598485 82.252599 
L 324.072491 81.379624 
L 324.546496 81.379624 
L 325.020502 80.258139 
L 325.494508 80.258139 
L 325.968513 79.113289 
L 326.442519 79.113289 
L 326.916525 78.017291 
L 327.39053 78.017291 
L 327.864536 76.900054 
L 328.338542 76.900054 
L 328.812547 75.827421 
L 329.286553 75.827421 
L 329.760559 74.627346 
L 330.234564 74.627346 
L 330.70857 73.476124 
L 331.182576 73.476124 
L 331.656581 72.218701 
L 332.604593 71.262889 
L 333.078598 71.262889 
L 334.02661 69.444723 
L 334.500616 68.758663 
L 334.974621 68.758663 
L 335.448627 67.739131 
L 335.922633 67.739131 
L 336.396638 66.630389 
L 336.870644 66.630389 
L 337.34465 65.326237 
L 337.818655 65.326237 
L 338.292661 64.04545 
L 338.766667 64.04545 
L 339.240672 62.855995 
L 339.714678 62.855995 
L 340.188684 61.496619 
L 341.610701 59.627476 
L 342.084706 59.627476 
L 342.558712 59.053989 
L 343.032718 57.609652 
L 343.506723 57.609652 
L 343.980729 56.356476 
L 344.454735 56.356476 
L 344.928741 55.294464 
L 345.402746 55.294464 
L 345.876752 54.232451 
L 346.350758 54.232451 
L 346.824763 53.170438 
L 347.298769 53.170438 
L 347.772775 52.363308 
L 348.24678 52.363308 
L 348.720786 52.002224 
L 349.668797 51.513698 
L 350.142803 51.025172 
L 350.616809 50.02688 
L 352.512831 48.242698 
L 353.934848 47.095724 
L 354.408854 46.649679 
L 354.88286 46.012471 
L 355.356866 45.736348 
L 356.778883 45.693867 
L 357.252888 45.438984 
L 358.2009 45.396503 
L 358.674905 45.162861 
L 359.148911 45.247822 
L 359.622917 45.651387 
L 360.570928 47.839133 
L 361.044934 49.623315 
L 361.518939 51.917263 
L 362.466951 58.183139 
L 363.414962 65.969817 
L 363.888968 70.674534 
L 364.362973 70.674534 
L 364.836979 81.812926 
L 365.310985 81.812926 
L 365.784991 96.2032 
L 366.733002 114.108738 
L 368.155019 147.753306 
L 368.629025 168.420077 
L 369.10303 176.300212 
L 369.577036 181.291673 
L 370.051042 214.299034 
L 370.525047 214.299034 
L 370.999053 244.396479 
L 377.161127 244.396479 
L 377.635133 214.299034 
L 379.05715 214.299034 
L 379.531155 206.397658 
L 380.005161 206.397658 
L 380.479167 191.062192 
L 380.953172 184.180348 
L 381.427178 184.180348 
L 381.901184 170.183018 
L 382.375189 170.183018 
L 382.849195 168.420077 
L 384.271212 168.420077 
L 384.745218 163.70474 
L 385.219223 163.70474 
L 385.693229 165.191558 
L 386.641241 156.185688 
L 387.115246 154.061663 
L 387.589252 149.410046 
L 388.063258 149.410046 
L 388.537263 145.438118 
L 389.011269 145.438118 
L 389.485275 142.613164 
L 389.95928 142.613164 
L 390.433286 140.064333 
L 390.907292 140.064333 
L 391.381297 138.301391 
L 391.855303 138.301391 
L 392.329309 136.644651 
L 392.803314 136.113645 
L 393.751326 133.118768 
L 394.225331 132.651483 
L 394.699337 130.421256 
L 395.173343 129.99645 
L 395.647348 129.16808 
L 396.121354 127.575061 
L 397.069366 125.344834 
L 397.543371 124.643905 
L 398.965388 123.624373 
L 399.439394 123.624373 
L 399.9134 121.372906 
L 400.387405 120.778178 
L 400.861411 120.778178 
L 401.335417 119.588724 
L 401.809422 116.848731 
L 402.283428 116.848731 
L 402.757434 115.085789 
L 403.231439 115.085789 
L 403.705445 114.363621 
L 404.179451 114.363621 
L 404.653456 112.282075 
L 405.127462 112.282075 
L 405.601468 111.198822 
L 406.075473 111.198822 
L 406.549479 109.563322 
L 407.023485 109.159757 
L 407.971496 107.439297 
L 408.445502 107.439297 
L 408.919508 105.646619 
L 409.393513 105.646619 
L 409.867519 103.802964 
L 410.341525 103.480113 
L 410.81553 102.689975 
L 411.763542 102.689975 
L 412.237547 101.175545 
L 412.711553 100.591437 
L 413.185559 100.591437 
L 413.659564 100.022199 
L 414.054569 98.110575 
L 415.00258 97.84932 
L 415.397585 96.449587 
L 416.345597 95.474659 
L 416.740601 94.650537 
L 417.214607 94.650537 
L 417.609612 94.189624 
L 418.083617 94.189624 
L 418.478622 92.743162 
L 418.873627 92.743162 
L 419.268632 90.961105 
L 419.742637 90.961105 
L 420.137642 90.55754 
L 420.532647 90.55754 
L 420.927652 89.098334 
L 421.322656 89.098334 
L 421.63866 88.073704 
L 422.033665 88.073704 
L 422.42867 87.531015 
L 422.744673 87.531015 
L 423.850687 85.131291 
L 424.16669 84.967741 
L 425.430705 82.925915 
L 426.536719 82.473498 
L 427.326728 80.952695 
L 427.800734 80.258139 
L 428.037737 80.19017 
L 428.511742 79.512606 
L 428.906747 79.57845 
L 429.14375 78.983723 
L 429.301752 78.983723 
L 429.538755 78.20633 
L 429.696757 78.27005 
L 429.854759 77.390704 
L 430.01276 77.390704 
L 430.723769 75.710599 
L 430.881771 75.770072 
L 431.197775 74.572122 
L 431.276776 74.572122 
L 431.513778 73.15752 
L 431.592779 73.15752 
L 431.750781 72.632886 
L 431.750781 72.632886 
L 431.829782 72.841041 
L 431.908783 72.736963 
L 432.066785 72.218701 
L 432.066785 72.218701 
L 432.145786 71.711059 
L 432.224787 71.711059 
L 432.224787 69.213205 
L 432.224787 70.052195 
" clip-path="url(#p11790fabe3)" style="fill: none; stroke: #d62728; stroke-width: 1.5; stroke-linecap: square"/>
   </g>
   <g id="patch_3">
    <path d="M 58.945313 304.44375 
L 58.945313 25.918125 
" style="fill: none; stroke: #000000; stroke-width: 0.8; stroke-linejoin: miter; stroke-linecap: square"/>
   </g>
   <g id="patch_4">
    <path d="M 450 304.44375 
L 450 25.918125 
" style="fill: none; stroke: #000000; stroke-width: 0.8; stroke-linejoin: miter; stroke-linecap: square"/>
   </g>
   <g id="patch_5">
    <path d="M 58.945313 304.44375 
L 450 304.44375 
" style="fill: none; stroke: #000000; stroke-width: 0.8; stroke-linejoin: miter; stroke-linecap: square"/>
   </g>
   <g id="patch_6">
    <path d="M 58.945313 25.918125 
L 450 25.918125 
" style="fill: none; stroke: #000000; stroke-width: 0.8; stroke-linejoin: miter; stroke-linecap: square"/>
   </g>
   <g id="text_15">
    <!-- Wall Distance [mm] -->
    <g transform="translate(195.492656 19.918125)scale(0.12 -0.12)">
     <use xlink:href="#DejaVuSans-57"/>
     <use xlink:href="#DejaVuSans-61" x="92.501953"/>
     <use xlink:href="#DejaVuSans-6c" x="153.78125"/>
     <use xlink:href="#DejaVuSans-6c" x="181.564453"/>
     <use xlink:href="#DejaVuSans-20" x="209.347656"/>
     <use xlink:href="#DejaVuSans-44" x="241.134766"/>
     <use xlink:href="#DejaVuSans-69" x="318.136719"/>
     <use xlink:href="#DejaVuSans-73" x="345.919922"/>
     <use xlink:href="#DejaVuSans-74" x="398.019531"/>
     <use xlink:href="#DejaVuSans-61" x="437.228516"/>
     <use xlink:href="#DejaVuSans-6e" x="498.507812"/>
     <use xlink:href="#DejaVuSans-63" x="561.886719"/>
     <use xlink:href="#DejaVuSans-65" x="616.867188"/>
     <use xlink:href="#DejaVuSans-20" x="678.390625"/>
     <use xlink:href="#DejaVuSans-5b" x="710.177734"/>
     <use xlink:href="#DejaVuSans-6d" x="749.191406"/>
     <use xlink:href="#DejaVuSans-6d" x="846.603516"/>
     <use xlink:href="#DejaVuSans-5d" x="944.015625"/>
    </g>
   </g>
   <g id="legend_1">
    <g id="patch_7">
     <path d="M 65.945312 92.630625 
L 152.745313 92.630625 
Q 154.745313 92.630625 154.745313 90.630625 
L 154.745313 32.918125 
Q 154.745313 30.918125 152.745313 30.918125 
L 65.945312 30.918125 
Q 63.945312 30.918125 63.945312 32.918125 
L 63.945312 90.630625 
Q 63.945312 92.630625 65.945312 92.630625 
z
" style="fill: #ffffff; opacity: 0.8; stroke: #cccccc; stroke-linejoin: miter"/>
    </g>
    <g id="line2d_29">
     <path d="M 67.945312 39.016562 
L 77.945312 39.016562 
L 87.945312 39.016562 
" style="fill: none; stroke: #1f77b4; stroke-width: 1.5; stroke-linecap: square"/>
    </g>
    <g id="text_16">
     <!-- Left Side -->
     <g transform="translate(95.945312 42.516562)scale(0.1 -0.1)">
      <defs>
       <path id="DejaVuSans-4c" d="M 628 4666 
L 1259 4666 
L 1259 531 
L 3531 531 
L 3531 0 
L 628 0 
L 628 4666 
z
" transform="scale(0.015625)"/>
       <path id="DejaVuSans-66" d="M 2375 4863 
L 2375 4384 
L 1825 4384 
Q 1516 4384 1395 4259 
Q 1275 4134 1275 3809 
L 1275 3500 
L 2222 3500 
L 2222 3053 
L 1275 3053 
L 1275 0 
L 697 0 
L 697 3053 
L 147 3053 
L 147 3500 
L 697 3500 
L 697 3744 
Q 697 4328 969 4595 
Q 1241 4863 1831 4863 
L 2375 4863 
z
" transform="scale(0.015625)"/>
       <path id="DejaVuSans-53" d="M 3425 4513 
L 3425 3897 
Q 3066 4069 2747 4153 
Q 2428 4238 2131 4238 
Q 1616 4238 1336 4038 
Q 1056 3838 1056 3469 
Q 1056 3159 1242 3001 
Q 1428 2844 1947 2747 
L 2328 2669 
Q 3034 2534 3370 2195 
Q 3706 1856 3706 1288 
Q 3706 609 3251 259 
Q 2797 -91 1919 -91 
Q 1588 -91 1214 -16 
Q 841 59 441 206 
L 441 856 
Q 825 641 1194 531 
Q 1563 422 1919 422 
Q 2459 422 2753 634 
Q 3047 847 3047 1241 
Q 3047 1584 2836 1778 
Q 2625 1972 2144 2069 
L 1759 2144 
Q 1053 2284 737 2584 
Q 422 2884 422 3419 
Q 422 4038 858 4394 
Q 1294 4750 2059 4750 
Q 2388 4750 2728 4690 
Q 3069 4631 3425 4513 
z
" transform="scale(0.015625)"/>
       <path id="DejaVuSans-64" d="M 2906 2969 
L 2906 4863 
L 3481 4863 
L 3481 0 
L 2906 0 
L 2906 525 
Q 2725 213 2448 61 
Q 2172 -91 1784 -91 
Q 1150 -91 751 415 
Q 353 922 353 1747 
Q 353 2572 751 3078 
Q 1150 3584 1784 3584 
Q 2172 3584 2448 3432 
Q 2725 3281 2906 2969 
z
M 947 1747 
Q 947 1113 1208 752 
Q 1469 391 1925 391 
Q 2381 391 2643 752 
Q 2906 1113 2906 1747 
Q 2906 2381 2643 2742 
Q 2381 3103 1925 3103 
Q 1469 3103 1208 2742 
Q 947 2381 947 1747 
z
" transform="scale(0.015625)"/>
      </defs>
      <use xlink:href="#DejaVuSans-4c"/>
      <use xlink:href="#DejaVuSans-65" x="53.962891"/>
      <use xlink:href="#DejaVuSans-66" x="115.486328"/>
      <use xlink:href="#DejaVuSans-74" x="148.941406"/>
      <use xlink:href="#DejaVuSans-20" x="188.150391"/>
      <use xlink:href="#DejaVuSans-53" x="219.9375"/>
      <use xlink:href="#DejaVuSans-69" x="283.414062"/>
      <use xlink:href="#DejaVuSans-64" x="311.197266"/>
      <use xlink:href="#DejaVuSans-65" x="374.673828"/>
     </g>
    </g>
    <g id="line2d_30">
     <path d="M 67.945312 53.694687 
L 77.945312 53.694687 
L 87.945312 53.694687 
" style="fill: none; stroke: #ff7f0e; stroke-width: 1.5; stroke-linecap: square"/>
    </g>
    <g id="text_17">
     <!-- Left Front -->
     <g transform="translate(95.945312 57.194687)scale(0.1 -0.1)">
      <defs>
       <path id="DejaVuSans-46" d="M 628 4666 
L 3309 4666 
L 3309 4134 
L 1259 4134 
L 1259 2759 
L 3109 2759 
L 3109 2228 
L 1259 2228 
L 1259 0 
L 628 0 
L 628 4666 
z
" transform="scale(0.015625)"/>
      </defs>
      <use xlink:href="#DejaVuSans-4c"/>
      <use xlink:href="#DejaVuSans-65" x="53.962891"/>
      <use xlink:href="#DejaVuSans-66" x="115.486328"/>
      <use xlink:href="#DejaVuSans-74" x="148.941406"/>
      <use xlink:href="#DejaVuSans-20" x="188.150391"/>
      <use xlink:href="#DejaVuSans-46" x="219.9375"/>
      <use xlink:href="#DejaVuSans-72" x="270.207031"/>
      <use xlink:href="#DejaVuSans-6f" x="309.070312"/>
      <use xlink:href="#DejaVuSans-6e" x="370.251953"/>
      <use xlink:href="#DejaVuSans-74" x="433.630859"/>
     </g>
    </g>
    <g id="line2d_31">
     <path d="M 67.945312 68.372812 
L 77.945312 68.372812 
L 87.945312 68.372812 
" style="fill: none; stroke: #2ca02c; stroke-width: 1.5; stroke-linecap: square"/>
    </g>
    <g id="text_18">
     <!-- Right Front -->
     <g transform="translate(95.945312 71.872812)scale(0.1 -0.1)">
      <defs>
       <path id="DejaVuSans-52" d="M 2841 2188 
Q 3044 2119 3236 1894 
Q 3428 1669 3622 1275 
L 4263 0 
L 3584 0 
L 2988 1197 
Q 2756 1666 2539 1819 
Q 2322 1972 1947 1972 
L 1259 1972 
L 1259 0 
L 628 0 
L 628 4666 
L 2053 4666 
Q 2853 4666 3247 4331 
Q 3641 3997 3641 3322 
Q 3641 2881 3436 2590 
Q 3231 2300 2841 2188 
z
M 1259 4147 
L 1259 2491 
L 2053 2491 
Q 2509 2491 2742 2702 
Q 2975 2913 2975 3322 
Q 2975 3731 2742 3939 
Q 2509 4147 2053 4147 
L 1259 4147 
z
" transform="scale(0.015625)"/>
       <path id="DejaVuSans-67" d="M 2906 1791 
Q 2906 2416 2648 2759 
Q 2391 3103 1925 3103 
Q 1463 3103 1205 2759 
Q 947 2416 947 1791 
Q 947 1169 1205 825 
Q 1463 481 1925 481 
Q 2391 481 2648 825 
Q 2906 1169 2906 1791 
z
M 3481 434 
Q 3481 -459 3084 -895 
Q 2688 -1331 1869 -1331 
Q 1566 -1331 1297 -1286 
Q 1028 -1241 775 -1147 
L 775 -588 
Q 1028 -725 1275 -790 
Q 1522 -856 1778 -856 
Q 2344 -856 2625 -561 
Q 2906 -266 2906 331 
L 2906 616 
Q 2728 306 2450 153 
Q 2172 0 1784 0 
Q 1141 0 747 490 
Q 353 981 353 1791 
Q 353 2603 747 3093 
Q 1141 3584 1784 3584 
Q 2172 3584 2450 3431 
Q 2728 3278 2906 2969 
L 2906 3500 
L 3481 3500 
L 3481 434 
z
" transform="scale(0.015625)"/>
       <path id="DejaVuSans-68" d="M 3513 2113 
L 3513 0 
L 2938 0 
L 2938 2094 
Q 2938 2591 2744 2837 
Q 2550 3084 2163 3084 
Q 1697 3084 1428 2787 
Q 1159 2491 1159 1978 
L 1159 0 
L 581 0 
L 581 4863 
L 1159 4863 
L 1159 2956 
Q 1366 3272 1645 3428 
Q 1925 3584 2291 3584 
Q 2894 3584 3203 3211 
Q 3513 2838 3513 2113 
z
" transform="scale(0.015625)"/>
      </defs>
      <use xlink:href="#DejaVuSans-52"/>
      <use xlink:href="#DejaVuSans-69" x="69.482422"/>
      <use xlink:href="#DejaVuSans-67" x="97.265625"/>
      <use xlink:href="#DejaVuSans-68" x="160.742188"/>
      <use xlink:href="#DejaVuSans-74" x="224.121094"/>
      <use xlink:href="#DejaVuSans-20" x="263.330078"/>
      <use xlink:href="#DejaVuSans-46" x="295.117188"/>
      <use xlink:href="#DejaVuSans-72" x="345.386719"/>
      <use xlink:href="#DejaVuSans-6f" x="384.25"/>
      <use xlink:href="#DejaVuSans-6e" x="445.431641"/>
      <use xlink:href="#DejaVuSans-74" x="508.810547"/>
     </g>
    </g>
    <g id="line2d_32">
     <path d="M 67.945312 83.050937 
L 77.945312 83.050937 
L 87.945312 83.050937 
" style="fill: none; stroke: #d62728; stroke-width: 1.5; stroke-linecap: square"/>
    </g>
    <g id="text_19">
     <!-- Right Side -->
     <g transform="translate(95.945312 86.550937)scale(0.1 -0.1)">
      <use xlink:href="#DejaVuSans-52"/>
      <use xlink:href="#DejaVuSans-69" x="69.482422"/>
      <use xlink:href="#DejaVuSans-67" x="97.265625"/>
      <use xlink:href="#DejaVuSans-68" x="160.742188"/>
      <use xlink:href="#DejaVuSans-74" x="224.121094"/>
      <use xlink:href="#DejaVuSans-20" x="263.330078"/>
      <use xlink:href="#DejaVuSans-53" x="295.117188"/>
      <use xlink:href="#DejaVuSans-69" x="358.59375"/>
      <use xlink:href="#DejaVuSans-64" x="386.376953"/>
      <use xlink:href="#DejaVuSans-65" x="449.853516"/>
     </g>
    </g>
   </g>
  </g>
 </g>
 <defs>
  <clipPath id="p11790fabe3">
   <rect x="58.945313" y="25.918125" width="391.054687" height="278.525625"/>
  </clipPath>
 </defs>
</svg>
