<?xml version="1.0" encoding="utf-8" standalone="no"?>
<!DOCTYPE svg PUBLIC "-//W3C//DTD SVG 1.1//EN"
  "http://www.w3.org/Graphics/SVG/1.1/DTD/svg11.dtd">
<svg xmlns:xlink="http://www.w3.org/1999/xlink" width="460.8pt" height="345.6pt" viewBox="0 0 460.8 345.6" xmlns="http://www.w3.org/2000/svg" version="1.1">
 <metadata>
  <rdf:RDF xmlns:dc="http://purl.org/dc/elements/1.1/" xmlns:cc="http://creativecommons.org/ns#" xmlns:rdf="http://www.w3.org/1999/02/22-rdf-syntax-ns#">
   <cc:Work>
    <dc:type rdf:resource="http://purl.org/dc/dcmitype/StillImage"/>
    <dc:date>2022-01-16T03:29:07.526072</dc:date>
    <dc:format>image/svg+xml</dc:format>
    <dc:creator>
     <cc:Agent>
      <dc:title>Matplotlib v3.5.1, https://matplotlib.org/</dc:title>
     </cc:Agent>
    </dc:creator>
   </cc:Work>
  </rdf:RDF>
 </metadata>
 <defs>
  <style type="text/css">*{stroke-linejoin: round; stroke-linecap: butt}</style>
 </defs>
 <g id="figure_1">
  <g id="patch_1">
   <path d="M 0 345.6 
L 460.8 345.6 
L 460.8 0 
L 0 0 
z
" style="fill: #ffffff"/>
  </g>
  <g id="axes_1">
   <g id="patch_2">
    <path d="M 52.582813 304.44375 
L 450 304.44375 
L 450 25.918125 
L 52.582813 25.918125 
z
" style="fill: #ffffff"/>
   </g>
   <g id="matplotlib.axis_1">
    <g id="xtick_1">
     <g id="line2d_1">
      <path d="M 70.64723 304.44375 
L 70.64723 25.918125 
" clip-path="url(#pe240523eea)" style="fill: none; stroke: #b0b0b0; stroke-width: 0.8; stroke-linecap: square"/>
     </g>
     <g id="line2d_2">
      <defs>
       <path id="m92b983f237" d="M 0 0 
L 0 3.5 
" style="stroke: #000000; stroke-width: 0.8"/>
      </defs>
      <g>
       <use xlink:href="#m92b983f237" x="70.64723" y="304.44375" style="stroke: #000000; stroke-width: 0.8"/>
      </g>
     </g>
     <g id="text_1">
      <!-- 0 -->
      <g transform="translate(67.46598 319.042187)scale(0.1 -0.1)">
       <defs>
        <path id="DejaVuSans-30" d="M 2034 4250 
Q 1547 4250 1301 3770 
Q 1056 3291 1056 2328 
Q 1056 1369 1301 889 
Q 1547 409 2034 409 
Q 2525 409 2770 889 
Q 3016 1369 3016 2328 
Q 3016 3291 2770 3770 
Q 2525 4250 2034 4250 
z
M 2034 4750 
Q 2819 4750 3233 4129 
Q 3647 3509 3647 2328 
Q 3647 1150 3233 529 
Q 2819 -91 2034 -91 
Q 1250 -91 836 529 
Q 422 1150 422 2328 
Q 422 3509 836 4129 
Q 1250 4750 2034 4750 
z
" transform="scale(0.015625)"/>
       </defs>
       <use xlink:href="#DejaVuSans-30"/>
      </g>
     </g>
    </g>
    <g id="xtick_2">
     <g id="line2d_3">
      <path d="M 150.933531 304.44375 
L 150.933531 25.918125 
" clip-path="url(#pe240523eea)" style="fill: none; stroke: #b0b0b0; stroke-width: 0.8; stroke-linecap: square"/>
     </g>
     <g id="line2d_4">
      <g>
       <use xlink:href="#m92b983f237" x="150.933531" y="304.44375" style="stroke: #000000; stroke-width: 0.8"/>
      </g>
     </g>
     <g id="text_2">
      <!-- 100 -->
      <g transform="translate(141.389781 319.042187)scale(0.1 -0.1)">
       <defs>
        <path id="DejaVuSans-31" d="M 794 531 
L 1825 531 
L 1825 4091 
L 703 3866 
L 703 4441 
L 1819 4666 
L 2450 4666 
L 2450 531 
L 3481 531 
L 3481 0 
L 794 0 
L 794 531 
z
" transform="scale(0.015625)"/>
       </defs>
       <use xlink:href="#DejaVuSans-31"/>
       <use xlink:href="#DejaVuSans-30" x="63.623047"/>
       <use xlink:href="#DejaVuSans-30" x="127.246094"/>
      </g>
     </g>
    </g>
    <g id="xtick_3">
     <g id="line2d_5">
      <path d="M 231.219831 304.44375 
L 231.219831 25.918125 
" clip-path="url(#pe240523eea)" style="fill: none; stroke: #b0b0b0; stroke-width: 0.8; stroke-linecap: square"/>
     </g>
     <g id="line2d_6">
      <g>
       <use xlink:href="#m92b983f237" x="231.219831" y="304.44375" style="stroke: #000000; stroke-width: 0.8"/>
      </g>
     </g>
     <g id="text_3">
      <!-- 200 -->
      <g transform="translate(221.676081 319.042187)scale(0.1 -0.1)">
       <defs>
        <path id="DejaVuSans-32" d="M 1228 531 
L 3431 531 
L 3431 0 
L 469 0 
L 469 531 
Q 828 903 1448 1529 
Q 2069 2156 2228 2338 
Q 2531 2678 2651 2914 
Q 2772 3150 2772 3378 
Q 2772 3750 2511 3984 
Q 2250 4219 1831 4219 
Q 1534 4219 1204 4116 
Q 875 4013 500 3803 
L 500 4441 
Q 881 4594 1212 4672 
Q 1544 4750 1819 4750 
Q 2544 4750 2975 4387 
Q 3406 4025 3406 3419 
Q 3406 3131 3298 2873 
Q 3191 2616 2906 2266 
Q 2828 2175 2409 1742 
Q 1991 1309 1228 531 
z
" transform="scale(0.015625)"/>
       </defs>
       <use xlink:href="#DejaVuSans-32"/>
       <use xlink:href="#DejaVuSans-30" x="63.623047"/>
       <use xlink:href="#DejaVuSans-30" x="127.246094"/>
      </g>
     </g>
    </g>
    <g id="xtick_4">
     <g id="line2d_7">
      <path d="M 311.506132 304.44375 
L 311.506132 25.918125 
" clip-path="url(#pe240523eea)" style="fill: none; stroke: #b0b0b0; stroke-width: 0.8; stroke-linecap: square"/>
     </g>
     <g id="line2d_8">
      <g>
       <use xlink:href="#m92b983f237" x="311.506132" y="304.44375" style="stroke: #000000; stroke-width: 0.8"/>
      </g>
     </g>
     <g id="text_4">
      <!-- 300 -->
      <g transform="translate(301.962382 319.042187)scale(0.1 -0.1)">
       <defs>
        <path id="DejaVuSans-33" d="M 2597 2516 
Q 3050 2419 3304 2112 
Q 3559 1806 3559 1356 
Q 3559 666 3084 287 
Q 2609 -91 1734 -91 
Q 1441 -91 1130 -33 
Q 819 25 488 141 
L 488 750 
Q 750 597 1062 519 
Q 1375 441 1716 441 
Q 2309 441 2620 675 
Q 2931 909 2931 1356 
Q 2931 1769 2642 2001 
Q 2353 2234 1838 2234 
L 1294 2234 
L 1294 2753 
L 1863 2753 
Q 2328 2753 2575 2939 
Q 2822 3125 2822 3475 
Q 2822 3834 2567 4026 
Q 2313 4219 1838 4219 
Q 1578 4219 1281 4162 
Q 984 4106 628 3988 
L 628 4550 
Q 988 4650 1302 4700 
Q 1616 4750 1894 4750 
Q 2613 4750 3031 4423 
Q 3450 4097 3450 3541 
Q 3450 3153 3228 2886 
Q 3006 2619 2597 2516 
z
" transform="scale(0.015625)"/>
       </defs>
       <use xlink:href="#DejaVuSans-33"/>
       <use xlink:href="#DejaVuSans-30" x="63.623047"/>
       <use xlink:href="#DejaVuSans-30" x="127.246094"/>
      </g>
     </g>
    </g>
    <g id="xtick_5">
     <g id="line2d_9">
      <path d="M 391.792432 304.44375 
L 391.792432 25.918125 
" clip-path="url(#pe240523eea)" style="fill: none; stroke: #b0b0b0; stroke-width: 0.8; stroke-linecap: square"/>
     </g>
     <g id="line2d_10">
      <g>
       <use xlink:href="#m92b983f237" x="391.792432" y="304.44375" style="stroke: #000000; stroke-width: 0.8"/>
      </g>
     </g>
     <g id="text_5">
      <!-- 400 -->
      <g transform="translate(382.248682 319.042187)scale(0.1 -0.1)">
       <defs>
        <path id="DejaVuSans-34" d="M 2419 4116 
L 825 1625 
L 2419 1625 
L 2419 4116 
z
M 2253 4666 
L 3047 4666 
L 3047 1625 
L 3713 1625 
L 3713 1100 
L 3047 1100 
L 3047 0 
L 2419 0 
L 2419 1100 
L 313 1100 
L 313 1709 
L 2253 4666 
z
" transform="scale(0.015625)"/>
       </defs>
       <use xlink:href="#DejaVuSans-34"/>
       <use xlink:href="#DejaVuSans-30" x="63.623047"/>
       <use xlink:href="#DejaVuSans-30" x="127.246094"/>
      </g>
     </g>
    </g>
    <g id="text_6">
     <!-- Translational Position [mm] -->
     <g transform="translate(183.314062 332.720312)scale(0.1 -0.1)">
      <defs>
       <path id="DejaVuSans-54" d="M -19 4666 
L 3928 4666 
L 3928 4134 
L 2272 4134 
L 2272 0 
L 1638 0 
L 1638 4134 
L -19 4134 
L -19 4666 
z
" transform="scale(0.015625)"/>
       <path id="DejaVuSans-72" d="M 2631 2963 
Q 2534 3019 2420 3045 
Q 2306 3072 2169 3072 
Q 1681 3072 1420 2755 
Q 1159 2438 1159 1844 
L 1159 0 
L 581 0 
L 581 3500 
L 1159 3500 
L 1159 2956 
Q 1341 3275 1631 3429 
Q 1922 3584 2338 3584 
Q 2397 3584 2469 3576 
Q 2541 3569 2628 3553 
L 2631 2963 
z
" transform="scale(0.015625)"/>
       <path id="DejaVuSans-61" d="M 2194 1759 
Q 1497 1759 1228 1600 
Q 959 1441 959 1056 
Q 959 750 1161 570 
Q 1363 391 1709 391 
Q 2188 391 2477 730 
Q 2766 1069 2766 1631 
L 2766 1759 
L 2194 1759 
z
M 3341 1997 
L 3341 0 
L 2766 0 
L 2766 531 
Q 2569 213 2275 61 
Q 1981 -91 1556 -91 
Q 1019 -91 701 211 
Q 384 513 384 1019 
Q 384 1609 779 1909 
Q 1175 2209 1959 2209 
L 2766 2209 
L 2766 2266 
Q 2766 2663 2505 2880 
Q 2244 3097 1772 3097 
Q 1472 3097 1187 3025 
Q 903 2953 641 2809 
L 641 3341 
Q 956 3463 1253 3523 
Q 1550 3584 1831 3584 
Q 2591 3584 2966 3190 
Q 3341 2797 3341 1997 
z
" transform="scale(0.015625)"/>
       <path id="DejaVuSans-6e" d="M 3513 2113 
L 3513 0 
L 2938 0 
L 2938 2094 
Q 2938 2591 2744 2837 
Q 2550 3084 2163 3084 
Q 1697 3084 1428 2787 
Q 1159 2491 1159 1978 
L 1159 0 
L 581 0 
L 581 3500 
L 1159 3500 
L 1159 2956 
Q 1366 3272 1645 3428 
Q 1925 3584 2291 3584 
Q 2894 3584 3203 3211 
Q 3513 2838 3513 2113 
z
" transform="scale(0.015625)"/>
       <path id="DejaVuSans-73" d="M 2834 3397 
L 2834 2853 
Q 2591 2978 2328 3040 
Q 2066 3103 1784 3103 
Q 1356 3103 1142 2972 
Q 928 2841 928 2578 
Q 928 2378 1081 2264 
Q 1234 2150 1697 2047 
L 1894 2003 
Q 2506 1872 2764 1633 
Q 3022 1394 3022 966 
Q 3022 478 2636 193 
Q 2250 -91 1575 -91 
Q 1294 -91 989 -36 
Q 684 19 347 128 
L 347 722 
Q 666 556 975 473 
Q 1284 391 1588 391 
Q 1994 391 2212 530 
Q 2431 669 2431 922 
Q 2431 1156 2273 1281 
Q 2116 1406 1581 1522 
L 1381 1569 
Q 847 1681 609 1914 
Q 372 2147 372 2553 
Q 372 3047 722 3315 
Q 1072 3584 1716 3584 
Q 2034 3584 2315 3537 
Q 2597 3491 2834 3397 
z
" transform="scale(0.015625)"/>
       <path id="DejaVuSans-6c" d="M 603 4863 
L 1178 4863 
L 1178 0 
L 603 0 
L 603 4863 
z
" transform="scale(0.015625)"/>
       <path id="DejaVuSans-74" d="M 1172 4494 
L 1172 3500 
L 2356 3500 
L 2356 3053 
L 1172 3053 
L 1172 1153 
Q 1172 725 1289 603 
Q 1406 481 1766 481 
L 2356 481 
L 2356 0 
L 1766 0 
Q 1100 0 847 248 
Q 594 497 594 1153 
L 594 3053 
L 172 3053 
L 172 3500 
L 594 3500 
L 594 4494 
L 1172 4494 
z
" transform="scale(0.015625)"/>
       <path id="DejaVuSans-69" d="M 603 3500 
L 1178 3500 
L 1178 0 
L 603 0 
L 603 3500 
z
M 603 4863 
L 1178 4863 
L 1178 4134 
L 603 4134 
L 603 4863 
z
" transform="scale(0.015625)"/>
       <path id="DejaVuSans-6f" d="M 1959 3097 
Q 1497 3097 1228 2736 
Q 959 2375 959 1747 
Q 959 1119 1226 758 
Q 1494 397 1959 397 
Q 2419 397 2687 759 
Q 2956 1122 2956 1747 
Q 2956 2369 2687 2733 
Q 2419 3097 1959 3097 
z
M 1959 3584 
Q 2709 3584 3137 3096 
Q 3566 2609 3566 1747 
Q 3566 888 3137 398 
Q 2709 -91 1959 -91 
Q 1206 -91 779 398 
Q 353 888 353 1747 
Q 353 2609 779 3096 
Q 1206 3584 1959 3584 
z
" transform="scale(0.015625)"/>
       <path id="DejaVuSans-20" transform="scale(0.015625)"/>
       <path id="DejaVuSans-50" d="M 1259 4147 
L 1259 2394 
L 2053 2394 
Q 2494 2394 2734 2622 
Q 2975 2850 2975 3272 
Q 2975 3691 2734 3919 
Q 2494 4147 2053 4147 
L 1259 4147 
z
M 628 4666 
L 2053 4666 
Q 2838 4666 3239 4311 
Q 3641 3956 3641 3272 
Q 3641 2581 3239 2228 
Q 2838 1875 2053 1875 
L 1259 1875 
L 1259 0 
L 628 0 
L 628 4666 
z
" transform="scale(0.015625)"/>
       <path id="DejaVuSans-5b" d="M 550 4863 
L 1875 4863 
L 1875 4416 
L 1125 4416 
L 1125 -397 
L 1875 -397 
L 1875 -844 
L 550 -844 
L 550 4863 
z
" transform="scale(0.015625)"/>
       <path id="DejaVuSans-6d" d="M 3328 2828 
Q 3544 3216 3844 3400 
Q 4144 3584 4550 3584 
Q 5097 3584 5394 3201 
Q 5691 2819 5691 2113 
L 5691 0 
L 5113 0 
L 5113 2094 
Q 5113 2597 4934 2840 
Q 4756 3084 4391 3084 
Q 3944 3084 3684 2787 
Q 3425 2491 3425 1978 
L 3425 0 
L 2847 0 
L 2847 2094 
Q 2847 2600 2669 2842 
Q 2491 3084 2119 3084 
Q 1678 3084 1418 2786 
Q 1159 2488 1159 1978 
L 1159 0 
L 581 0 
L 581 3500 
L 1159 3500 
L 1159 2956 
Q 1356 3278 1631 3431 
Q 1906 3584 2284 3584 
Q 2666 3584 2933 3390 
Q 3200 3197 3328 2828 
z
" transform="scale(0.015625)"/>
       <path id="DejaVuSans-5d" d="M 1947 4863 
L 1947 -844 
L 622 -844 
L 622 -397 
L 1369 -397 
L 1369 4416 
L 622 4416 
L 622 4863 
L 1947 4863 
z
" transform="scale(0.015625)"/>
      </defs>
      <use xlink:href="#DejaVuSans-54"/>
      <use xlink:href="#DejaVuSans-72" x="46.333984"/>
      <use xlink:href="#DejaVuSans-61" x="87.447266"/>
      <use xlink:href="#DejaVuSans-6e" x="148.726562"/>
      <use xlink:href="#DejaVuSans-73" x="212.105469"/>
      <use xlink:href="#DejaVuSans-6c" x="264.205078"/>
      <use xlink:href="#DejaVuSans-61" x="291.988281"/>
      <use xlink:href="#DejaVuSans-74" x="353.267578"/>
      <use xlink:href="#DejaVuSans-69" x="392.476562"/>
      <use xlink:href="#DejaVuSans-6f" x="420.259766"/>
      <use xlink:href="#DejaVuSans-6e" x="481.441406"/>
      <use xlink:href="#DejaVuSans-61" x="544.820312"/>
      <use xlink:href="#DejaVuSans-6c" x="606.099609"/>
      <use xlink:href="#DejaVuSans-20" x="633.882812"/>
      <use xlink:href="#DejaVuSans-50" x="665.669922"/>
      <use xlink:href="#DejaVuSans-6f" x="722.347656"/>
      <use xlink:href="#DejaVuSans-73" x="783.529297"/>
      <use xlink:href="#DejaVuSans-69" x="835.628906"/>
      <use xlink:href="#DejaVuSans-74" x="863.412109"/>
      <use xlink:href="#DejaVuSans-69" x="902.621094"/>
      <use xlink:href="#DejaVuSans-6f" x="930.404297"/>
      <use xlink:href="#DejaVuSans-6e" x="991.585938"/>
      <use xlink:href="#DejaVuSans-20" x="1054.964844"/>
      <use xlink:href="#DejaVuSans-5b" x="1086.751953"/>
      <use xlink:href="#DejaVuSans-6d" x="1125.765625"/>
      <use xlink:href="#DejaVuSans-6d" x="1223.177734"/>
      <use xlink:href="#DejaVuSans-5d" x="1320.589844"/>
     </g>
    </g>
   </g>
   <g id="matplotlib.axis_2">
    <g id="ytick_1">
     <g id="line2d_11">
      <path d="M 52.582813 299.959328 
L 450 299.959328 
" clip-path="url(#pe240523eea)" style="fill: none; stroke: #b0b0b0; stroke-width: 0.8; stroke-linecap: square"/>
     </g>
     <g id="line2d_12">
      <defs>
       <path id="ma50fbd0031" d="M 0 0 
L -3.5 0 
" style="stroke: #000000; stroke-width: 0.8"/>
      </defs>
      <g>
       <use xlink:href="#ma50fbd0031" x="52.582813" y="299.959328" style="stroke: #000000; stroke-width: 0.8"/>
      </g>
     </g>
     <g id="text_7">
      <!-- −20 -->
      <g transform="translate(24.478125 303.758546)scale(0.1 -0.1)">
       <defs>
        <path id="DejaVuSans-2212" d="M 678 2272 
L 4684 2272 
L 4684 1741 
L 678 1741 
L 678 2272 
z
" transform="scale(0.015625)"/>
       </defs>
       <use xlink:href="#DejaVuSans-2212"/>
       <use xlink:href="#DejaVuSans-32" x="83.789062"/>
       <use xlink:href="#DejaVuSans-30" x="147.412109"/>
      </g>
     </g>
    </g>
    <g id="ytick_2">
     <g id="line2d_13">
      <path d="M 52.582813 255.282642 
L 450 255.282642 
" clip-path="url(#pe240523eea)" style="fill: none; stroke: #b0b0b0; stroke-width: 0.8; stroke-linecap: square"/>
     </g>
     <g id="line2d_14">
      <g>
       <use xlink:href="#ma50fbd0031" x="52.582813" y="255.282642" style="stroke: #000000; stroke-width: 0.8"/>
      </g>
     </g>
     <g id="text_8">
      <!-- 0 -->
      <g transform="translate(39.220313 259.081861)scale(0.1 -0.1)">
       <use xlink:href="#DejaVuSans-30"/>
      </g>
     </g>
    </g>
    <g id="ytick_3">
     <g id="line2d_15">
      <path d="M 52.582813 210.605957 
L 450 210.605957 
" clip-path="url(#pe240523eea)" style="fill: none; stroke: #b0b0b0; stroke-width: 0.8; stroke-linecap: square"/>
     </g>
     <g id="line2d_16">
      <g>
       <use xlink:href="#ma50fbd0031" x="52.582813" y="210.605957" style="stroke: #000000; stroke-width: 0.8"/>
      </g>
     </g>
     <g id="text_9">
      <!-- 20 -->
      <g transform="translate(32.857813 214.405176)scale(0.1 -0.1)">
       <use xlink:href="#DejaVuSans-32"/>
       <use xlink:href="#DejaVuSans-30" x="63.623047"/>
      </g>
     </g>
    </g>
    <g id="ytick_4">
     <g id="line2d_17">
      <path d="M 52.582813 165.929272 
L 450 165.929272 
" clip-path="url(#pe240523eea)" style="fill: none; stroke: #b0b0b0; stroke-width: 0.8; stroke-linecap: square"/>
     </g>
     <g id="line2d_18">
      <g>
       <use xlink:href="#ma50fbd0031" x="52.582813" y="165.929272" style="stroke: #000000; stroke-width: 0.8"/>
      </g>
     </g>
     <g id="text_10">
      <!-- 40 -->
      <g transform="translate(32.857813 169.728491)scale(0.1 -0.1)">
       <use xlink:href="#DejaVuSans-34"/>
       <use xlink:href="#DejaVuSans-30" x="63.623047"/>
      </g>
     </g>
    </g>
    <g id="ytick_5">
     <g id="line2d_19">
      <path d="M 52.582813 121.252587 
L 450 121.252587 
" clip-path="url(#pe240523eea)" style="fill: none; stroke: #b0b0b0; stroke-width: 0.8; stroke-linecap: square"/>
     </g>
     <g id="line2d_20">
      <g>
       <use xlink:href="#ma50fbd0031" x="52.582813" y="121.252587" style="stroke: #000000; stroke-width: 0.8"/>
      </g>
     </g>
     <g id="text_11">
      <!-- 60 -->
      <g transform="translate(32.857813 125.051805)scale(0.1 -0.1)">
       <defs>
        <path id="DejaVuSans-36" d="M 2113 2584 
Q 1688 2584 1439 2293 
Q 1191 2003 1191 1497 
Q 1191 994 1439 701 
Q 1688 409 2113 409 
Q 2538 409 2786 701 
Q 3034 994 3034 1497 
Q 3034 2003 2786 2293 
Q 2538 2584 2113 2584 
z
M 3366 4563 
L 3366 3988 
Q 3128 4100 2886 4159 
Q 2644 4219 2406 4219 
Q 1781 4219 1451 3797 
Q 1122 3375 1075 2522 
Q 1259 2794 1537 2939 
Q 1816 3084 2150 3084 
Q 2853 3084 3261 2657 
Q 3669 2231 3669 1497 
Q 3669 778 3244 343 
Q 2819 -91 2113 -91 
Q 1303 -91 875 529 
Q 447 1150 447 2328 
Q 447 3434 972 4092 
Q 1497 4750 2381 4750 
Q 2619 4750 2861 4703 
Q 3103 4656 3366 4563 
z
" transform="scale(0.015625)"/>
       </defs>
       <use xlink:href="#DejaVuSans-36"/>
       <use xlink:href="#DejaVuSans-30" x="63.623047"/>
      </g>
     </g>
    </g>
    <g id="ytick_6">
     <g id="line2d_21">
      <path d="M 52.582813 76.575901 
L 450 76.575901 
" clip-path="url(#pe240523eea)" style="fill: none; stroke: #b0b0b0; stroke-width: 0.8; stroke-linecap: square"/>
     </g>
     <g id="line2d_22">
      <g>
       <use xlink:href="#ma50fbd0031" x="52.582813" y="76.575901" style="stroke: #000000; stroke-width: 0.8"/>
      </g>
     </g>
     <g id="text_12">
      <!-- 80 -->
      <g transform="translate(32.857813 80.37512)scale(0.1 -0.1)">
       <defs>
        <path id="DejaVuSans-38" d="M 2034 2216 
Q 1584 2216 1326 1975 
Q 1069 1734 1069 1313 
Q 1069 891 1326 650 
Q 1584 409 2034 409 
Q 2484 409 2743 651 
Q 3003 894 3003 1313 
Q 3003 1734 2745 1975 
Q 2488 2216 2034 2216 
z
M 1403 2484 
Q 997 2584 770 2862 
Q 544 3141 544 3541 
Q 544 4100 942 4425 
Q 1341 4750 2034 4750 
Q 2731 4750 3128 4425 
Q 3525 4100 3525 3541 
Q 3525 3141 3298 2862 
Q 3072 2584 2669 2484 
Q 3125 2378 3379 2068 
Q 3634 1759 3634 1313 
Q 3634 634 3220 271 
Q 2806 -91 2034 -91 
Q 1263 -91 848 271 
Q 434 634 434 1313 
Q 434 1759 690 2068 
Q 947 2378 1403 2484 
z
M 1172 3481 
Q 1172 3119 1398 2916 
Q 1625 2713 2034 2713 
Q 2441 2713 2670 2916 
Q 2900 3119 2900 3481 
Q 2900 3844 2670 4047 
Q 2441 4250 2034 4250 
Q 1625 4250 1398 4047 
Q 1172 3844 1172 3481 
z
" transform="scale(0.015625)"/>
       </defs>
       <use xlink:href="#DejaVuSans-38"/>
       <use xlink:href="#DejaVuSans-30" x="63.623047"/>
      </g>
     </g>
    </g>
    <g id="ytick_7">
     <g id="line2d_23">
      <path d="M 52.582813 31.899216 
L 450 31.899216 
" clip-path="url(#pe240523eea)" style="fill: none; stroke: #b0b0b0; stroke-width: 0.8; stroke-linecap: square"/>
     </g>
     <g id="line2d_24">
      <g>
       <use xlink:href="#ma50fbd0031" x="52.582813" y="31.899216" style="stroke: #000000; stroke-width: 0.8"/>
      </g>
     </g>
     <g id="text_13">
      <!-- 100 -->
      <g transform="translate(26.495313 35.698435)scale(0.1 -0.1)">
       <use xlink:href="#DejaVuSans-31"/>
       <use xlink:href="#DejaVuSans-30" x="63.623047"/>
       <use xlink:href="#DejaVuSans-30" x="127.246094"/>
      </g>
     </g>
    </g>
    <g id="text_14">
     <!-- Wall Distance [mm] -->
     <g transform="translate(18.398438 214.330937)rotate(-90)scale(0.1 -0.1)">
      <defs>
       <path id="DejaVuSans-57" d="M 213 4666 
L 850 4666 
L 1831 722 
L 2809 4666 
L 3519 4666 
L 4500 722 
L 5478 4666 
L 6119 4666 
L 4947 0 
L 4153 0 
L 3169 4050 
L 2175 0 
L 1381 0 
L 213 4666 
z
" transform="scale(0.015625)"/>
       <path id="DejaVuSans-44" d="M 1259 4147 
L 1259 519 
L 2022 519 
Q 2988 519 3436 956 
Q 3884 1394 3884 2338 
Q 3884 3275 3436 3711 
Q 2988 4147 2022 4147 
L 1259 4147 
z
M 628 4666 
L 1925 4666 
Q 3281 4666 3915 4102 
Q 4550 3538 4550 2338 
Q 4550 1131 3912 565 
Q 3275 0 1925 0 
L 628 0 
L 628 4666 
z
" transform="scale(0.015625)"/>
       <path id="DejaVuSans-63" d="M 3122 3366 
L 3122 2828 
Q 2878 2963 2633 3030 
Q 2388 3097 2138 3097 
Q 1578 3097 1268 2742 
Q 959 2388 959 1747 
Q 959 1106 1268 751 
Q 1578 397 2138 397 
Q 2388 397 2633 464 
Q 2878 531 3122 666 
L 3122 134 
Q 2881 22 2623 -34 
Q 2366 -91 2075 -91 
Q 1284 -91 818 406 
Q 353 903 353 1747 
Q 353 2603 823 3093 
Q 1294 3584 2113 3584 
Q 2378 3584 2631 3529 
Q 2884 3475 3122 3366 
z
" transform="scale(0.015625)"/>
       <path id="DejaVuSans-65" d="M 3597 1894 
L 3597 1613 
L 953 1613 
Q 991 1019 1311 708 
Q 1631 397 2203 397 
Q 2534 397 2845 478 
Q 3156 559 3463 722 
L 3463 178 
Q 3153 47 2828 -22 
Q 2503 -91 2169 -91 
Q 1331 -91 842 396 
Q 353 884 353 1716 
Q 353 2575 817 3079 
Q 1281 3584 2069 3584 
Q 2775 3584 3186 3129 
Q 3597 2675 3597 1894 
z
M 3022 2063 
Q 3016 2534 2758 2815 
Q 2500 3097 2075 3097 
Q 1594 3097 1305 2825 
Q 1016 2553 972 2059 
L 3022 2063 
z
" transform="scale(0.015625)"/>
      </defs>
      <use xlink:href="#DejaVuSans-57"/>
      <use xlink:href="#DejaVuSans-61" x="92.501953"/>
      <use xlink:href="#DejaVuSans-6c" x="153.78125"/>
      <use xlink:href="#DejaVuSans-6c" x="181.564453"/>
      <use xlink:href="#DejaVuSans-20" x="209.347656"/>
      <use xlink:href="#DejaVuSans-44" x="241.134766"/>
      <use xlink:href="#DejaVuSans-69" x="318.136719"/>
      <use xlink:href="#DejaVuSans-73" x="345.919922"/>
      <use xlink:href="#DejaVuSans-74" x="398.019531"/>
      <use xlink:href="#DejaVuSans-61" x="437.228516"/>
      <use xlink:href="#DejaVuSans-6e" x="498.507812"/>
      <use xlink:href="#DejaVuSans-63" x="561.886719"/>
      <use xlink:href="#DejaVuSans-65" x="616.867188"/>
      <use xlink:href="#DejaVuSans-20" x="678.390625"/>
      <use xlink:href="#DejaVuSans-5b" x="710.177734"/>
      <use xlink:href="#DejaVuSans-6d" x="749.191406"/>
      <use xlink:href="#DejaVuSans-6d" x="846.603516"/>
      <use xlink:href="#DejaVuSans-5d" x="944.015625"/>
     </g>
    </g>
   </g>
   <g id="line2d_25">
    <path d="M 70.64723 229.481857 
L 70.702724 229.883947 
L 70.647487 229.347827 
L 70.755617 229.481857 
L 70.778739 229.481857 
L 70.904146 229.615887 
L 70.989169 229.615887 
L 71.037984 229.995639 
L 71.091213 229.749917 
L 71.211643 229.995639 
L 71.279324 229.883947 
L 71.514322 230.129669 
L 71.699784 230.129669 
L 71.909331 230.643451 
L 72.02414 230.397729 
L 72.145372 230.777481 
L 72.273831 230.777481 
L 72.409514 230.509421 
L 72.701757 231.023202 
L 72.859118 231.023202 
L 73.560017 232.117781 
L 73.753507 232.117781 
L 75.308653 232.948768 
L 75.818471 233.980799 
L 76.083416 233.980799 
L 76.356389 234.092491 
L 77.217861 235.300995 
L 78.145168 235.939872 
L 78.467919 236.044862 
L 78.79629 236.665868 
L 79.133492 236.768624 
L 79.831983 237.675561 
L 80.193271 237.970427 
L 80.931905 238.935443 
L 81.309251 239.216906 
L 81.694625 239.866952 
L 82.088028 240.050127 
L 82.481431 240.592948 
L 84.978335 242.913902 
L 85.411881 243.405346 
L 85.845427 243.727018 
L 86.287001 244.285476 
L 86.728576 244.520029 
L 88.085415 245.817887 
L 88.543046 246.188703 
L 89.000678 246.84545 
L 90.405689 248.250532 
L 91.345038 249.063648 
L 95.656413 253.21925 
L 97.101566 255.119148 
L 98.065002 256.180867 
L 98.54672 256.543419 
L 99.028437 257.355417 
L 99.991873 258.291617 
L 100.955309 259.616281 
L 102.400462 261.104015 
L 105.290769 264.343074 
L 105.772487 264.77197 
L 106.735922 266.020684 
L 108.181076 267.606706 
L 111.071382 271.040109 
L 112.034818 272.467529 
L 114.925125 276.93073 
L 118.297149 281.217458 
L 121.187456 283.227909 
L 123.596045 284.70224 
L 124.559481 285.819157 
L 125.522917 286.645676 
L 127.931506 288.120006 
L 128.894941 287.762593 
L 129.376659 287.315826 
L 129.858377 286.533984 
L 130.821812 283.875721 
L 131.30353 282.043977 
L 132.266966 276.85478 
L 133.712119 266.241833 
L 134.675555 257.305379 
L 136.602426 233.413405 
L 137.565862 220.434828 
L 138.047579 216.994723 
L 138.529297 211.410138 
L 139.011015 208.841228 
L 139.492733 205.401123 
L 140.456168 200.46435 
L 140.937886 200.46435 
L 141.419604 199.347433 
L 141.901322 198.587929 
L 142.38304 197.426335 
L 142.864757 197.024245 
L 143.346475 196.197726 
L 143.828193 195.773298 
L 144.309911 196.197726 
L 144.791629 195.348869 
L 145.273346 196.197726 
L 145.755064 195.348869 
L 146.236782 196.599816 
L 147.200218 197.426335 
L 147.681935 198.587929 
L 148.163653 197.806087 
L 148.645371 198.587929 
L 149.127089 199.727184 
L 149.608807 197.806087 
L 150.090524 198.587929 
L 150.572242 198.587929 
L 151.094103 199.727184 
L 151.575821 199.347433 
L 153.020974 200.46435 
L 155.429563 200.46435 
L 155.911281 201.514252 
L 156.392999 201.156838 
L 156.874717 202.20674 
L 158.31987 204.172515 
L 158.801588 205.401123 
L 159.283306 205.401123 
L 160.246741 206.607394 
L 160.728459 206.607394 
L 161.210177 207.165852 
L 161.691895 208.573168 
L 162.173613 208.841228 
L 162.65533 208.841228 
L 163.137048 209.62307 
L 163.618766 210.15919 
L 164.100484 210.15919 
L 164.582202 210.404912 
L 165.06392 211.410138 
L 165.545637 211.901581 
L 166.027355 211.410138 
L 166.509073 213.308897 
L 166.990791 213.778002 
L 167.954226 214.224769 
L 168.435944 215.095964 
L 169.39938 217.396813 
L 169.881098 217.396813 
L 170.362815 217.999949 
L 170.844533 218.178655 
L 171.807969 219.898708 
L 172.771404 220.613535 
L 173.73484 222.02085 
L 174.216558 222.355925 
L 174.698276 223.026076 
L 175.179993 223.182444 
L 175.661711 223.182444 
L 176.625147 224.142993 
L 177.106865 225.237572 
L 177.588582 225.684338 
L 178.0703 226.421504 
L 178.471732 226.711902 
L 178.953449 227.985188 
L 179.435167 227.985188 
L 179.916885 229.347827 
L 180.398603 229.883947 
L 180.880321 230.777481 
L 181.843756 232.117781 
L 182.325474 232.117781 
L 184.734063 235.727657 
L 185.697499 236.563111 
L 186.660934 238.263059 
L 187.142652 238.743334 
L 187.62437 239.029264 
L 188.106088 239.958539 
L 189.069523 240.948128 
L 189.551241 241.734438 
L 190.514677 242.913902 
L 191.478112 244.363661 
L 191.95983 244.676397 
L 192.923266 245.891603 
L 193.404984 246.771734 
L 193.886701 247.059899 
L 194.850137 248.592309 
L 195.331855 249.063648 
L 196.777008 251.123243 
L 197.258726 251.49406 
L 198.703879 253.161393 
L 199.185597 253.677633 
L 199.667315 254.628352 
L 200.149033 255.010785 
L 201.112468 256.336789 
L 201.594186 256.697553 
L 202.075904 257.455493 
L 202.557622 257.998985 
L 203.03934 258.291617 
L 204.002775 259.663191 
L 204.484493 260.076451 
L 204.966211 260.706392 
L 205.447929 261.104015 
L 212.191978 269.143584 
L 214.118849 271.777275 
L 217.009156 276.805636 
L 218.454309 279.050639 
L 219.899463 281.284473 
L 221.826334 283.428954 
L 223.271487 284.523533 
L 224.234923 285.216022 
L 224.716641 285.528758 
L 225.680076 286.399954 
L 228.088665 287.874284 
L 229.052101 288.298713 
L 229.533819 288.857171 
L 230.015537 289.81772 
L 230.497254 291.292051 
L 230.978972 291.783494 
L 231.46069 291.046329 
L 231.942408 290.733592 
L 232.905843 290.398517 
L 233.387561 289.996427 
L 233.869279 289.2816 
L 234.350997 288.254036 
L 234.832715 286.802044 
L 235.79615 282.110992 
L 236.759586 276.108679 
L 237.723021 268.741494 
L 239.168175 255.707965 
L 241.576764 228.945737 
L 242.540199 219.518956 
L 243.503635 210.15919 
L 243.985353 207.746649 
L 244.467071 206.607394 
L 244.948789 205.110725 
L 245.430506 204.172515 
L 245.912224 202.541816 
L 246.393942 202.20674 
L 246.87566 201.156838 
L 247.357378 201.514252 
L 247.839095 202.20674 
L 248.320813 201.514252 
L 248.802531 201.156838 
L 249.284249 200.46435 
L 249.765967 201.156838 
L 250.247684 200.821763 
L 251.21112 200.821763 
L 252.174556 202.20674 
L 252.656273 201.514252 
L 253.137991 201.514252 
L 253.619709 202.20674 
L 254.101427 202.541816 
L 254.583145 203.524703 
L 255.064862 203.859778 
L 255.54658 205.110725 
L 256.028298 204.172515 
L 256.510016 202.541816 
L 256.991734 204.485251 
L 257.473451 205.110725 
L 257.955169 204.797988 
L 258.918605 205.401123 
L 259.400323 206.294657 
L 259.88204 206.004259 
L 260.363758 206.294657 
L 260.845476 206.294657 
L 261.327194 207.165852 
L 261.808912 207.746649 
L 262.290629 207.746649 
L 262.772347 208.573168 
L 263.254065 208.573168 
L 263.735783 210.15919 
L 264.699218 210.15919 
L 265.180936 210.918694 
L 265.662654 210.672972 
L 266.144372 210.918694 
L 266.62609 212.147303 
L 267.107807 212.86213 
L 267.589525 212.616408 
L 268.071243 213.778002 
L 268.552961 214.001385 
L 269.034679 214.001385 
L 269.516396 214.224769 
L 269.998114 215.319348 
L 270.96155 215.319348 
L 271.443268 215.542731 
L 271.924985 215.967159 
L 272.406703 216.793678 
L 272.888421 217.396813 
L 273.370139 217.597858 
L 273.851857 218.178655 
L 274.333574 219.518956 
L 274.815292 219.518956 
L 275.778728 221.149655 
L 276.260446 221.48473 
L 276.742164 222.512294 
L 278.187317 224.45573 
L 278.669035 225.39394 
L 279.150753 225.840707 
L 280.595906 227.985188 
L 281.559342 228.409616 
L 282.041059 229.481857 
L 282.522777 229.883947 
L 283.004495 230.509421 
L 283.967931 232.117781 
L 284.449648 232.117781 
L 284.931366 233.297246 
L 285.413084 233.869107 
L 285.894802 234.092491 
L 286.37652 235.086547 
L 286.858237 235.727657 
L 287.339955 236.044862 
L 288.785109 237.970427 
L 289.266826 238.839388 
L 290.230262 239.49837 
L 290.71198 240.322654 
L 291.193698 240.682302 
L 292.157133 241.819323 
L 292.638851 242.245986 
L 293.602287 243.727018 
L 294.084004 244.441845 
L 294.565722 244.908716 
L 295.04744 245.592269 
L 296.492593 246.988416 
L 298.419465 249.46127 
L 299.3829 250.368207 
L 299.864618 251.123243 
L 300.346336 251.431512 
L 301.791489 252.986261 
L 302.754925 253.904143 
L 303.236643 254.792763 
L 303.71836 255.173185 
L 304.200078 255.919062 
L 306.608667 258.628926 
L 307.572103 259.937953 
L 310.46241 263.827059 
L 311.907563 265.723584 
L 313.352717 267.394492 
L 314.79787 269.505465 
L 315.761306 270.664825 
L 319.615048 276.548745 
L 323.46879 281.262135 
L 325.395662 282.781142 
L 329.731122 285.930849 
L 331.657993 287.606224 
L 333.103146 288.790156 
L 334.066582 289.504983 
L 335.030018 289.81772 
L 335.993453 289.661352 
L 336.475171 289.370953 
L 336.956889 288.790156 
L 337.438607 287.941299 
L 337.920324 286.712691 
L 338.402042 285.081992 
L 338.88376 283.026864 
L 339.847196 276.906158 
L 340.810631 268.741494 
L 341.774067 258.579782 
L 343.21922 238.359114 
L 344.182656 223.182444 
L 345.146092 214.224769 
L 346.109527 207.456251 
L 346.591245 205.401123 
L 347.072963 204.172515 
L 347.554681 201.156838 
L 348.036398 200.46435 
L 348.518116 200.46435 
L 349.96327 199.347433 
L 350.444987 199.347433 
L 350.926705 200.084598 
L 351.408423 200.46435 
L 352.371859 200.46435 
L 352.853576 200.084598 
L 353.335294 201.514252 
L 353.817012 200.46435 
L 354.29873 200.821763 
L 354.780448 200.46435 
L 355.262165 200.46435 
L 355.743883 200.821763 
L 356.225601 200.46435 
L 356.707319 200.821763 
L 357.189037 200.46435 
L 357.670754 200.821763 
L 358.63419 200.821763 
L 359.115908 202.20674 
L 359.597626 203.211966 
L 360.079343 202.541816 
L 360.561061 204.172515 
L 361.524497 204.797988 
L 362.006215 205.401123 
L 362.487932 205.401123 
L 362.96965 205.71386 
L 363.451368 206.294657 
L 363.933086 206.607394 
L 364.414804 207.456251 
L 364.896521 206.004259 
L 365.378239 205.71386 
L 365.859957 206.294657 
L 366.341675 206.607394 
L 366.823393 207.746649 
L 367.30511 208.014709 
L 367.786828 209.377348 
L 368.268546 210.15919 
L 368.750264 210.15919 
L 369.231982 210.404912 
L 370.195417 211.901581 
L 370.677135 212.370686 
L 371.640571 213.778002 
L 372.122289 214.001385 
L 372.604006 214.001385 
L 373.085724 214.448152 
L 373.567442 215.095964 
L 374.530878 216.793678 
L 375.012595 217.396813 
L 375.494313 217.396813 
L 376.457749 219.518956 
L 376.939467 219.898708 
L 377.421184 220.792241 
L 377.902902 220.970948 
L 378.38462 221.663437 
L 378.866338 222.691001 
L 379.348056 223.026076 
L 379.829773 223.182444 
L 380.793209 223.986624 
L 381.756645 224.924835 
L 383.201798 227.002301 
L 383.683516 227.717128 
L 384.165234 227.985188 
L 385.128669 229.481857 
L 385.610387 230.129669 
L 386.573823 231.872059 
L 387.537258 232.475195 
L 388.018976 232.948768 
L 388.500694 233.641256 
L 388.982412 233.869107 
L 389.945847 235.515443 
L 390.909283 236.460355 
L 391.872718 237.675561 
L 392.354436 238.649513 
L 393.317872 239.216906 
L 393.79959 239.958539 
L 394.281307 240.412008 
L 394.763025 241.037481 
L 395.244743 241.301074 
L 396.689896 242.748598 
L 397.171614 243.159624 
L 398.13505 244.285476 
L 399.098485 244.984667 
L 400.061921 246.481335 
L 401.025357 247.345829 
L 402.952228 249.722629 
L 403.433946 250.303426 
L 404.397381 251.737547 
L 404.879099 252.280369 
L 405.360817 253.044341 
L 405.842535 254.184713 
L 406.80597 255.119148 
L 407.769406 256.440439 
L 408.732842 257.654974 
L 409.214559 258.144184 
L 409.696277 258.436816 
L 410.177995 259.337052 
L 410.659713 259.707868 
L 412.104866 261.41005 
L 412.586584 262.267842 
L 413.951451 264.066079 
L 414.433169 264.693786 
L 414.8346 265.459991 
L 416.199467 267.218019 
L 417.564335 268.942539 
L 419.651778 272.078842 
L 420.454641 273.314153 
L 421.57865 275.20621 
L 421.980081 275.686485 
L 423.74638 278.804917 
L 424.709815 280.346263 
L 425.592965 281.507857 
L 426.476114 282.647112 
L 429.205848 285.305375 
L 429.366421 285.327713 
L 429.687566 285.819157 
L 430.651002 287.204134 
L 430.731288 287.204134 
L 431.213006 287.874284 
L 431.373578 288.097668 
L 431.453865 288.097668 
L 431.453865 288.209359 
L 431.534151 288.209359 
L 431.935582 288.968863 
L 431.935582 288.812495 
L 431.935582 290.889961 
L 431.935582 290.822946 
" clip-path="url(#pe240523eea)" style="fill: none; stroke: #1f77b4; stroke-width: 1.5; stroke-linecap: square"/>
   </g>
   <g id="line2d_26">
    <path d="M 70.64723 45.391575 
L 89.466339 45.391575 
L 89.931999 77.045007 
L 90.405689 45.391575 
L 90.871349 91.788313 
L 91.345038 77.045007 
L 92.292417 117.008302 
L 92.774135 121.453632 
L 93.255852 121.453632 
L 93.729542 125.318165 
L 94.211259 121.453632 
L 95.174695 125.318165 
L 95.656413 121.453632 
L 96.619848 121.453632 
L 97.101566 123.441744 
L 97.583284 97.037823 
L 98.065002 97.037823 
L 98.54672 65.362053 
L 99.028437 85.35487 
L 99.510155 77.045007 
L 99.991873 77.045007 
L 100.473591 45.391575 
L 100.955309 101.483154 
L 101.918744 101.483154 
L 102.400462 91.788313 
L 102.88218 97.037823 
L 103.363898 111.758791 
L 103.845615 117.008302 
L 104.809051 111.758791 
L 105.772487 111.758791 
L 106.254204 114.506407 
L 106.735922 114.506407 
L 107.21764 123.441744 
L 107.699358 123.441744 
L 108.662793 119.331489 
L 109.144511 121.453632 
L 109.626229 101.483154 
L 110.107947 97.037823 
L 110.589665 119.331489 
L 111.071382 101.483154 
L 111.5531 111.758791 
L 112.034818 114.506407 
L 112.516536 125.318165 
L 113.479971 125.318165 
L 113.961689 123.441744 
L 114.443407 119.331489 
L 114.925125 111.758791 
L 115.406843 97.037823 
L 115.88856 77.045007 
L 116.370278 85.35487 
L 116.851996 45.391575 
L 194.368419 45.391575 
L 194.850137 65.362053 
L 195.331855 45.391575 
L 195.813573 45.391575 
L 196.29529 77.045007 
L 196.777008 77.045007 
L 197.258726 85.35487 
L 197.740444 45.391575 
L 198.703879 45.391575 
L 200.630751 125.318165 
L 201.112468 125.318165 
L 202.075904 128.691255 
L 202.557622 133.136585 
L 203.03934 139.301968 
L 203.521057 138.162712 
L 204.002775 145.288643 
L 204.484493 145.288643 
L 205.447929 148.684071 
L 205.929646 150.984921 
L 206.411364 156.368461 
L 206.893082 155.742988 
L 207.3748 156.971597 
L 207.856518 156.971597 
L 208.338235 153.799552 
L 208.819953 153.129402 
L 209.783389 154.469702 
L 210.265107 153.129402 
L 211.228542 156.971597 
L 212.191978 156.971597 
L 212.673696 156.368461 
L 213.155414 155.117514 
L 213.637131 153.129402 
L 215.082285 142.451674 
L 215.564003 133.136585 
L 216.04572 130.254939 
L 216.527438 125.318165 
L 217.490874 108.720777 
L 217.972592 65.362053 
L 218.454309 65.362053 
L 218.936027 45.391575 
L 297.456029 45.391575 
L 297.937747 77.045007 
L 298.419465 45.391575 
L 298.901182 91.788313 
L 299.3829 105.325348 
L 299.864618 111.758791 
L 300.346336 114.506407 
L 300.828054 97.037823 
L 301.309771 101.483154 
L 302.273207 123.441744 
L 302.754925 125.318165 
L 303.236643 128.691255 
L 303.71836 135.772509 
L 304.200078 149.465913 
L 305.163514 150.984921 
L 305.645232 154.469702 
L 306.126949 153.799552 
L 306.608667 155.742988 
L 307.572103 154.469702 
L 308.053821 153.129402 
L 308.535539 153.129402 
L 309.017256 147.879891 
L 309.498974 147.031034 
L 309.980692 144.372771 
L 310.46241 143.434561 
L 310.944128 127.060556 
L 311.425845 125.318165 
L 312.389281 114.506407 
L 312.870999 114.506407 
L 313.352717 111.758791 
L 313.834434 125.318165 
L 314.316152 128.691255 
L 314.79787 130.254939 
L 315.279588 127.060556 
L 315.761306 125.318165 
L 316.243023 125.318165 
L 316.724741 121.453632 
L 317.206459 101.483154 
L 317.688177 105.325348 
L 318.651612 45.391575 
L 394.763025 45.391575 
L 395.244743 65.362053 
L 395.726461 45.391575 
L 397.653332 45.391575 
L 398.13505 65.362053 
L 398.616768 139.301968 
L 399.098485 144.372771 
L 399.580203 145.288643 
L 401.507074 155.117514 
L 401.988792 156.971597 
L 402.47051 142.451674 
L 402.952228 139.301968 
L 403.433946 140.396546 
L 403.915664 140.396546 
L 404.397381 138.162712 
L 404.879099 134.476886 
L 405.360817 138.162712 
L 405.842535 156.971597 
L 406.324253 156.971597 
L 406.80597 156.368461 
L 407.287688 156.368461 
L 407.769406 156.971597 
L 408.251124 156.368461 
L 408.732842 156.368461 
L 409.214559 156.971597 
L 409.696277 135.772509 
L 410.177995 135.772509 
L 410.659713 134.476886 
L 411.141431 135.772509 
L 411.623148 130.254939 
L 412.104866 134.476886 
L 412.586584 156.971597 
L 413.951451 156.971597 
L 414.433169 156.368461 
L 414.8346 152.436913 
L 415.316318 153.799552 
L 415.798036 142.451674 
L 416.199467 123.441744 
L 416.681185 121.453632 
L 417.082617 111.758791 
L 417.564335 111.758791 
L 417.965766 101.483154 
L 418.367198 101.483154 
L 418.768629 146.182177 
L 419.250347 144.372771 
L 419.651778 141.446448 
L 420.05321 140.396546 
L 420.454641 135.772509 
L 420.856073 135.772509 
L 421.177218 134.476886 
L 421.57865 45.391575 
L 423.425235 45.391575 
L 423.74638 117.008302 
L 424.067525 119.331489 
L 424.38867 114.506407 
L 424.709815 111.758791 
L 425.030961 114.506407 
L 425.592965 114.506407 
L 425.91411 45.391575 
L 427.198691 45.391575 
L 427.43955 119.331489 
L 427.921267 97.037823 
L 428.162126 65.362053 
L 428.402985 65.362053 
L 428.563558 45.391575 
L 431.935582 45.391575 
L 431.935582 45.391575 
" clip-path="url(#pe240523eea)" style="fill: none; stroke: #ff7f0e; stroke-width: 1.5; stroke-linecap: square"/>
   </g>
   <g id="line2d_27">
    <path d="M 70.64723 38.578381 
L 113.479971 38.578381 
L 113.961689 70.231812 
L 114.443407 38.578381 
L 115.406843 38.578381 
L 115.88856 58.548859 
L 116.370278 70.231812 
L 116.851996 58.548859 
L 117.815432 101.907582 
L 118.297149 112.495956 
L 118.778867 118.482632 
L 119.260585 118.482632 
L 119.742303 112.495956 
L 120.224021 120.225023 
L 120.705738 78.519337 
L 121.187456 94.669959 
L 121.669174 94.669959 
L 122.150892 107.693213 
L 122.63261 94.669959 
L 123.114327 118.482632 
L 123.596045 123.441744 
L 124.077763 137.559577 
L 124.559481 138.475449 
L 125.041199 141.870877 
L 126.004634 146.986357 
L 126.96807 146.986357 
L 127.449788 142.652719 
L 127.931506 150.158402 
L 128.413223 150.158402 
L 128.894941 150.739199 
L 129.376659 155.117514 
L 129.858377 155.608958 
L 130.340095 156.591845 
L 130.821812 158.445927 
L 131.30353 158.892694 
L 131.785248 161.037175 
L 132.266966 153.01771 
L 132.748684 155.608958 
L 133.230401 155.117514 
L 133.712119 156.100401 
L 134.193837 156.100401 
L 134.675555 158.445927 
L 135.157273 163.025287 
L 135.63899 164.87937 
L 136.120708 165.236783 
L 136.602426 166.286685 
L 137.084144 166.286685 
L 137.565862 165.594197 
L 138.047579 166.956836 
L 138.529297 166.621761 
L 139.011015 169.213008 
L 139.492733 168.274798 
L 139.974451 170.12888 
L 140.456168 169.525745 
L 140.937886 170.441617 
L 141.901322 171.603211 
L 142.38304 170.12888 
L 142.864757 169.838482 
L 143.346475 164.87937 
L 143.828193 164.87937 
L 144.309911 163.025287 
L 144.791629 163.405039 
L 145.273346 164.142205 
L 145.755064 164.521956 
L 146.236782 168.274798 
L 146.7185 166.956836 
L 147.681935 170.12888 
L 148.163653 170.12888 
L 148.645371 161.037175 
L 149.127089 171.871271 
L 149.608807 173.256248 
L 150.090524 173.256248 
L 150.572242 172.988188 
L 151.094103 173.792369 
L 151.575821 173.792369 
L 152.057539 174.060429 
L 152.539257 174.574211 
L 153.020974 174.842271 
L 153.502692 174.574211 
L 153.98441 174.574211 
L 154.466128 169.213008 
L 154.947846 170.12888 
L 155.429563 170.12888 
L 155.911281 168.587535 
L 156.392999 166.621761 
L 156.874717 168.274798 
L 157.356435 171.022414 
L 157.838152 171.871271 
L 158.31987 169.838482 
L 158.801588 170.12888 
L 159.283306 169.838482 
L 159.765024 169.838482 
L 160.246741 169.525745 
L 161.210177 167.626986 
L 161.691895 166.956836 
L 162.173613 167.962061 
L 162.65533 164.87937 
L 163.137048 165.236783 
L 163.618766 164.87937 
L 164.100484 162.623197 
L 164.582202 162.623197 
L 165.545637 153.01771 
L 166.027355 150.158402 
L 166.509073 148.929793 
L 166.990791 146.316207 
L 167.472509 136.599028 
L 167.954226 141.044358 
L 168.917662 135.638479 
L 169.39938 128.936977 
L 169.881098 118.482632 
L 170.362815 78.519337 
L 170.844533 78.519337 
L 171.326251 38.578381 
L 193.404984 38.578381 
L 193.886701 70.231812 
L 194.368419 38.578381 
L 199.667315 38.578381 
L 200.149033 123.441744 
L 200.630751 38.578381 
L 212.191978 38.578381 
L 212.673696 114.640437 
L 213.155414 90.224629 
L 213.637131 94.669959 
L 214.118849 101.907582 
L 214.600567 101.907582 
L 215.082285 118.482632 
L 216.527438 118.482632 
L 217.009156 121.87806 
L 217.490874 126.323391 
L 217.972592 123.441744 
L 218.454309 118.482632 
L 218.936027 104.945597 
L 219.899463 104.945597 
L 220.381181 116.62855 
L 220.862898 116.62855 
L 221.826334 148.929793 
L 222.308052 141.044358 
L 222.78977 148.929793 
L 223.271487 146.316207 
L 223.753205 146.316207 
L 224.716641 150.158402 
L 226.161794 150.158402 
L 226.643512 151.319996 
L 227.12523 153.55383 
L 227.606948 154.067612 
L 228.088665 155.117514 
L 228.570383 156.591845 
L 229.052101 150.158402 
L 229.533819 150.158402 
L 230.015537 149.555267 
L 230.497254 151.900793 
L 230.978972 151.900793 
L 231.46069 153.55383 
L 231.942408 164.87937 
L 232.424126 162.623197 
L 232.905843 164.521956 
L 233.387561 167.962061 
L 233.869279 164.142205 
L 234.350997 165.236783 
L 234.832715 164.521956 
L 235.79615 165.236783 
L 236.277868 164.87937 
L 236.759586 164.87937 
L 237.241304 165.236783 
L 237.723021 164.87937 
L 238.686457 165.594197 
L 239.168175 166.621761 
L 239.649893 160.612746 
L 240.13161 160.188318 
L 240.613328 168.587535 
L 241.095046 160.612746 
L 241.576764 162.623197 
L 242.058482 162.243445 
L 242.540199 166.621761 
L 243.503635 169.213008 
L 243.985353 171.022414 
L 244.467071 171.603211 
L 244.948789 170.732016 
L 245.430506 174.060429 
L 245.912224 174.574211 
L 246.87566 174.574211 
L 248.320813 178.193022 
L 248.802531 178.416406 
L 249.284249 179.086556 
L 249.765967 180.181135 
L 250.247684 177.031428 
L 250.729402 176.07088 
L 251.21112 176.07088 
L 251.692838 177.27715 
L 252.174556 177.500533 
L 252.656273 177.969639 
L 253.137991 180.38218 
L 254.101427 181.610788 
L 254.583145 181.610788 
L 255.064862 182.213924 
L 256.028298 181.811834 
L 256.510016 182.012879 
L 256.991734 182.012879 
L 257.473451 181.811834 
L 257.955169 182.616014 
L 258.436887 182.213924 
L 258.918605 182.012879 
L 259.400323 181.409743 
L 259.88204 179.957751 
L 260.363758 175.087992 
L 260.845476 175.087992 
L 261.327194 178.416406 
L 261.808912 173.792369 
L 262.290629 174.574211 
L 262.772347 170.12888 
L 263.254065 174.328489 
L 263.735783 173.256248 
L 264.217501 173.256248 
L 264.699218 170.12888 
L 265.180936 171.871271 
L 265.662654 166.956836 
L 266.144372 164.87937 
L 266.62609 164.142205 
L 267.107807 160.612746 
L 267.589525 158.445927 
L 268.071243 152.459251 
L 268.552961 150.739199 
L 269.034679 148.30432 
L 269.516396 141.870877 
L 269.998114 142.652719 
L 270.479832 127.663691 
L 271.443268 38.578381 
L 303.71836 38.578381 
L 304.200078 58.548859 
L 304.681796 38.578381 
L 309.980692 38.578381 
L 310.46241 58.548859 
L 310.944128 38.578381 
L 313.352717 38.578381 
L 313.834434 118.482632 
L 314.316152 90.224629 
L 314.79787 84.95278 
L 315.279588 121.87806 
L 315.761306 112.495956 
L 316.724741 112.495956 
L 317.206459 94.669959 
L 317.688177 116.62855 
L 318.169895 116.62855 
L 318.651612 118.482632 
L 319.13333 118.482632 
L 319.615048 120.225023 
L 320.096766 94.669959 
L 320.578484 104.945597 
L 321.060201 90.224629 
L 321.541919 90.224629 
L 322.023637 123.441744 
L 322.505355 94.669959 
L 322.987073 127.663691 
L 323.46879 139.346644 
L 323.950508 135.638479 
L 324.432226 139.346644 
L 325.395662 139.346644 
L 325.877379 143.412223 
L 326.359097 135.638479 
L 326.840815 150.739199 
L 327.322533 140.21784 
L 327.804251 148.30432 
L 328.285968 146.986357 
L 328.767686 148.929793 
L 329.249404 149.555267 
L 329.731122 134.610916 
L 330.21284 135.638479 
L 330.694557 137.559577 
L 331.176275 138.475449 
L 331.657993 138.475449 
L 332.139711 155.117514 
L 332.621429 154.067612 
L 333.103146 155.117514 
L 333.584864 155.117514 
L 334.066582 152.459251 
L 334.5483 151.319996 
L 335.030018 159.763889 
L 335.511735 155.117514 
L 335.993453 154.067612 
L 336.475171 155.117514 
L 336.956889 154.067612 
L 337.438607 156.100401 
L 337.920324 157.530055 
L 338.402042 146.316207 
L 338.88376 150.158402 
L 339.847196 150.158402 
L 340.328914 140.21784 
L 341.292349 163.405039 
L 341.774067 165.594197 
L 342.737503 168.587535 
L 343.21922 168.900272 
L 343.700938 170.12888 
L 344.182656 171.871271 
L 344.664374 171.871271 
L 345.146092 172.988188 
L 345.627809 172.720128 
L 346.109527 171.312813 
L 347.072963 174.060429 
L 347.554681 167.291911 
L 348.036398 168.900272 
L 348.518116 169.213008 
L 348.999834 171.022414 
L 349.96327 171.022414 
L 350.444987 174.574211 
L 350.926705 165.236783 
L 351.408423 177.500533 
L 352.371859 178.416406 
L 352.853576 156.591845 
L 353.335294 178.416406 
L 353.817012 178.416406 
L 354.29873 179.957751 
L 354.780448 179.957751 
L 355.262165 180.38218 
L 355.743883 179.309939 
L 356.225601 174.574211 
L 357.670754 174.574211 
L 358.152472 174.328489 
L 358.63419 174.574211 
L 359.115908 178.416406 
L 359.597626 178.416406 
L 360.079343 176.316601 
L 360.561061 177.969639 
L 361.042779 174.328489 
L 361.524497 174.574211 
L 362.006215 174.574211 
L 362.96965 172.16167 
L 363.451368 169.525745 
L 363.933086 168.587535 
L 364.896521 158.445927 
L 365.378239 157.06095 
L 365.859957 151.319996 
L 366.341675 150.158402 
L 366.823393 146.986357 
L 367.30511 154.067612 
L 367.786828 150.158402 
L 368.268546 150.158402 
L 369.231982 158.445927 
L 369.713699 139.346644 
L 370.195417 141.870877 
L 370.677135 143.412223 
L 371.158853 139.346644 
L 371.640571 138.475449 
L 372.122289 135.638479 
L 372.604006 90.224629 
L 373.085724 90.224629 
L 373.567442 84.95278 
L 374.04916 38.578381 
L 375.012595 38.578381 
L 375.494313 107.693213 
L 375.976031 121.87806 
L 376.939467 90.224629 
L 377.421184 78.519337 
L 377.902902 107.693213 
L 378.38462 38.578381 
L 418.367198 38.578381 
L 418.768629 84.95278 
L 419.250347 90.224629 
L 419.651778 58.548859 
L 420.05321 101.907582 
L 420.454641 116.62855 
L 420.856073 118.482632 
L 421.177218 38.578381 
L 423.023803 38.578381 
L 423.425235 118.482632 
L 423.74638 126.323391 
L 424.067525 127.663691 
L 424.38867 131.349518 
L 424.709815 131.349518 
L 425.030961 134.610916 
L 425.352106 134.610916 
L 425.592965 38.578381 
L 426.957832 38.578381 
L 427.198691 137.559577 
L 427.43955 38.578381 
L 427.680408 147.656508 
L 427.921267 147.656508 
L 428.162126 142.652719 
L 428.402985 146.316207 
L 428.563558 143.412223 
L 428.804417 149.555267 
L 428.964989 38.578381 
L 429.526993 38.578381 
L 429.848139 150.158402 
L 430.008711 150.158402 
L 430.24957 160.188318 
L 430.410143 151.319996 
L 430.570715 150.739199 
L 430.651002 78.519337 
L 430.731288 124.916075 
L 430.89186 84.95278 
L 430.972147 90.224629 
L 431.052433 94.669959 
L 431.132719 107.693213 
L 431.293292 158.445927 
L 431.373578 157.530055 
L 431.614437 159.763889 
L 431.614437 116.62855 
L 431.694723 118.482632 
L 431.77501 118.482632 
L 431.77501 118.482632 
L 431.77501 163.025287 
L 431.855296 161.037175 
L 431.935582 161.037175 
L 431.935582 120.225023 
L 431.935582 168.274798 
L 431.935582 164.87937 
" clip-path="url(#pe240523eea)" style="fill: none; stroke: #2ca02c; stroke-width: 1.5; stroke-linecap: square"/>
   </g>
   <g id="line2d_28">
    <path d="M 70.64723 285.685127 
L 70.647262 285.796818 
L 70.735384 285.260698 
L 70.755617 285.662788 
L 70.904146 285.305375 
L 70.944611 285.350052 
L 71.149019 285.037315 
L 71.211643 285.081992 
L 71.430503 284.679901 
L 71.604243 284.367165 
L 72.02414 283.808706 
L 73.560017 278.782579 
L 74.828541 270.81896 
L 77.519737 246.44336 
L 78.79629 231.536984 
L 79.831983 217.754227 
L 82.481431 184.715818 
L 82.882862 176.651676 
L 83.292322 175.713466 
L 83.709811 168.051415 
L 84.1273 165.437828 
L 84.544789 157.59707 
L 84.978335 157.59707 
L 85.845427 153.754875 
L 86.287001 153.754875 
L 86.728576 129.316728 
L 87.178179 133.762059 
L 87.627783 133.762059 
L 88.085415 129.316728 
L 88.543046 109.34625 
L 89.000678 124.067218 
L 89.466339 133.762059 
L 89.931999 124.067218 
L 90.405689 124.067218 
L 90.871349 137.604254 
L 91.345038 97.663297 
L 91.818728 129.316728 
L 92.292417 144.037696 
L 92.774135 133.762059 
L 93.729542 133.762059 
L 94.211259 146.785312 
L 94.692977 144.037696 
L 95.174695 146.785312 
L 95.656413 140.999682 
L 96.138131 144.037696 
L 96.619848 144.037696 
L 97.101566 151.610394 
L 97.583284 151.610394 
L 98.065002 155.742988 
L 98.54672 155.742988 
L 99.028437 153.754875 
L 99.510155 153.754875 
L 99.991873 157.59707 
L 101.437026 157.59707 
L 101.918744 162.556182 
L 102.400462 159.339461 
L 103.363898 162.556182 
L 103.845615 165.437828 
L 104.327333 165.437828 
L 104.809051 168.051415 
L 105.290769 166.778129 
L 105.772487 168.051415 
L 106.254204 174.730579 
L 106.735922 172.675451 
L 107.699358 176.651676 
L 108.181076 176.651676 
L 108.662793 178.461082 
L 109.144511 178.461082 
L 109.626229 180.158796 
L 110.107947 178.461082 
L 110.589665 181.767157 
L 111.071382 183.263826 
L 111.5531 183.263826 
L 112.516536 188.647366 
L 112.998254 189.250502 
L 114.443407 189.250502 
L 114.925125 190.434434 
L 115.406843 192.10981 
L 115.88856 193.18205 
L 116.370278 192.64593 
L 116.851996 195.214839 
L 117.333714 195.683944 
L 117.815432 197.09126 
L 118.778867 198.007132 
L 119.260585 198.878327 
L 120.224021 199.727184 
L 120.705738 202.117387 
L 121.187456 201.737635 
L 121.669174 203.256643 
L 122.150892 203.993808 
L 122.63261 203.993808 
L 123.114327 204.686296 
L 123.596045 205.736199 
L 124.077763 207.389236 
L 124.559481 208.327446 
L 125.041199 208.930582 
L 125.522917 209.824115 
L 126.96807 213.420588 
L 127.449788 213.688649 
L 128.413223 215.185317 
L 128.894941 215.431039 
L 129.376659 217.084077 
L 130.340095 217.97761 
L 130.821812 219.273234 
L 131.30353 219.496618 
L 131.785248 220.323136 
L 132.266966 220.926272 
L 132.748684 221.708114 
L 133.230401 223.048414 
L 134.675555 224.85782 
L 135.63899 226.711902 
L 136.120708 227.046977 
L 137.084144 229.057428 
L 138.047579 230.10733 
L 138.529297 231.536984 
L 139.011015 232.073104 
L 143.346475 239.259349 
L 143.828193 239.57432 
L 144.309911 240.503595 
L 145.273346 241.401596 
L 145.755064 242.464901 
L 146.7185 243.671172 
L 147.200218 244.477586 
L 147.681935 244.743412 
L 149.608807 247.178292 
L 150.090524 247.971303 
L 150.572242 248.127671 
L 151.094103 249.123961 
L 151.575821 249.423295 
L 152.057539 250.303426 
L 152.539257 250.517874 
L 153.98441 252.526091 
L 155.429563 254.024994 
L 156.392999 255.267656 
L 156.874717 255.869471 
L 158.31987 258.267045 
L 158.801588 258.756255 
L 159.283306 259.658724 
L 160.246741 260.583531 
L 160.728459 261.528443 
L 161.210177 261.91713 
L 162.65533 264.191174 
L 163.137048 264.722826 
L 165.06392 267.477144 
L 166.027355 268.609698 
L 166.509073 269.43845 
L 167.954226 271.346145 
L 168.917662 272.57252 
L 171.807969 275.789241 
L 172.289687 276.468327 
L 173.253122 277.442278 
L 173.73484 278.201782 
L 174.698276 279.207007 
L 175.661711 280.457955 
L 177.106865 282.021639 
L 177.588582 282.021639 
L 178.471732 283.026864 
L 178.953449 283.138556 
L 179.435167 282.848157 
L 179.916885 282.870496 
L 180.880321 281.86527 
L 181.843756 279.542083 
L 182.325474 278.000737 
L 182.807192 276.086341 
L 183.770628 270.926184 
L 184.734063 264.325204 
L 185.215781 260.380252 
L 186.179217 250.374909 
L 187.62437 230.822157 
L 189.069523 206.071274 
L 189.551241 200.129275 
L 190.032959 192.10981 
L 190.514677 187.396419 
L 191.95983 164.030513 
L 192.441548 157.59707 
L 192.923266 155.742988 
L 193.404984 155.742988 
L 194.368419 146.785312 
L 194.850137 146.785312 
L 195.813573 140.999682 
L 196.29529 144.037696 
L 196.777008 144.037696 
L 197.258726 151.610394 
L 197.740444 153.754875 
L 198.222162 151.610394 
L 198.703879 157.59707 
L 199.185597 155.742988 
L 199.667315 157.59707 
L 200.149033 157.59707 
L 200.630751 162.556182 
L 201.112468 160.992498 
L 201.594186 164.030513 
L 202.075904 171.580873 
L 202.557622 171.580873 
L 203.03934 172.675451 
L 203.521057 170.463956 
L 204.966211 176.651676 
L 205.447929 177.567548 
L 206.411364 177.567548 
L 206.893082 181.767157 
L 207.3748 181.767157 
L 207.856518 184.000991 
L 208.338235 184.715818 
L 209.301671 187.396419 
L 209.783389 188.044231 
L 210.265107 189.250502 
L 211.228542 189.250502 
L 211.71026 191.015231 
L 212.191978 190.434434 
L 212.673696 192.10981 
L 213.155414 190.434434 
L 213.637131 194.723396 
L 214.118849 195.214839 
L 214.600567 194.209614 
L 215.082285 196.175388 
L 215.564003 197.09126 
L 216.04572 197.560365 
L 217.009156 197.560365 
L 217.490874 198.878327 
L 217.972592 198.43156 
L 218.454309 199.727184 
L 218.936027 201.737635 
L 219.417745 200.553703 
L 219.899463 202.876891 
L 220.381181 203.614056 
L 220.862898 203.993808 
L 221.344616 203.993808 
L 221.826334 205.04371 
L 222.308052 206.406349 
L 222.78977 207.054161 
L 223.271487 207.054161 
L 223.753205 208.640183 
L 224.716641 210.404912 
L 225.198359 210.985709 
L 226.161794 213.152528 
L 226.643512 213.688649 
L 227.12523 213.688649 
L 228.088665 216.145866 
L 228.570383 217.084077 
L 229.052101 217.530843 
L 229.533819 218.200994 
L 230.497254 220.323136 
L 230.978972 220.926272 
L 231.46069 221.127317 
L 231.942408 221.909159 
L 232.905843 224.142993 
L 233.869279 225.706677 
L 234.350997 226.711902 
L 234.832715 226.711902 
L 236.277868 229.660563 
L 237.241304 230.688127 
L 239.168175 233.918252 
L 239.649893 234.423098 
L 240.13161 235.287592 
L 240.613328 235.7701 
L 241.095046 236.480459 
L 241.576764 237.398565 
L 242.058482 237.847566 
L 244.467071 241.205019 
L 245.430506 242.082916 
L 245.912224 242.558723 
L 246.393942 243.39641 
L 247.357378 244.477586 
L 247.839095 245.263896 
L 248.320813 245.348782 
L 248.802531 246.278057 
L 250.729402 248.514125 
L 251.21112 248.82016 
L 251.692838 249.570728 
L 252.174556 249.939311 
L 252.656273 250.732322 
L 253.137991 251.297482 
L 253.619709 252.392061 
L 254.101427 252.593106 
L 254.583145 253.252981 
L 255.54658 254.277864 
L 256.028298 254.776902 
L 256.991734 256.2834 
L 257.473451 256.864421 
L 257.955169 257.82698 
L 259.400323 259.763714 
L 262.772347 264.414557 
L 263.254065 264.897065 
L 263.735783 265.882186 
L 264.217501 266.174818 
L 264.699218 267.077287 
L 265.180936 267.675955 
L 267.589525 271.451135 
L 270.479832 275.125792 
L 271.443268 275.967948 
L 271.924985 276.526406 
L 273.370139 277.442278 
L 273.851857 278.09009 
L 274.333574 278.447504 
L 275.29701 279.497406 
L 275.778728 279.631436 
L 276.742164 280.860045 
L 278.187317 282.043977 
L 278.669035 282.848157 
L 279.150753 283.428954 
L 279.63247 283.629999 
L 280.114188 283.697014 
L 280.595906 283.920398 
L 281.077624 284.009751 
L 282.522777 284.769255 
L 283.004495 284.903285 
L 283.486213 284.880946 
L 283.967931 284.657563 
L 284.449648 284.210796 
L 284.931366 283.205571 
L 285.413084 281.887609 
L 286.37652 277.844369 
L 287.339955 271.692389 
L 288.303391 263.878437 
L 289.266826 254.088435 
L 290.230262 242.934007 
L 292.157133 213.688649 
L 293.602287 193.18205 
L 294.084004 189.250502 
L 294.565722 183.263826 
L 295.04744 179.309939 
L 295.529158 172.675451 
L 296.010876 171.580873 
L 296.492593 164.030513 
L 296.974311 162.556182 
L 297.456029 162.556182 
L 297.937747 164.030513 
L 298.419465 164.030513 
L 298.901182 162.556182 
L 299.3829 162.556182 
L 299.864618 166.778129 
L 300.346336 165.437828 
L 300.828054 168.051415 
L 301.309771 171.580873 
L 301.791489 168.051415 
L 302.273207 172.675451 
L 303.236643 176.651676 
L 303.71836 176.651676 
L 304.200078 178.461082 
L 304.681796 179.309939 
L 305.163514 179.309939 
L 305.645232 180.158796 
L 306.126949 182.526661 
L 306.608667 180.158796 
L 307.090385 182.526661 
L 307.572103 183.263826 
L 308.053821 185.408307 
L 308.535539 184.715818 
L 309.017256 186.078457 
L 309.498974 184.715818 
L 310.46241 187.396419 
L 310.944128 188.044231 
L 311.425845 188.044231 
L 311.907563 189.250502 
L 312.389281 188.647366 
L 312.870999 189.250502 
L 313.352717 189.250502 
L 313.834434 190.434434 
L 314.316152 191.015231 
L 315.279588 194.209614 
L 315.761306 193.18205 
L 316.243023 195.214839 
L 316.724741 196.175388 
L 317.206459 196.644493 
L 317.688177 197.560365 
L 318.169895 197.560365 
L 318.651612 198.878327 
L 319.615048 198.878327 
L 320.096766 200.553703 
L 320.578484 201.737635 
L 321.060201 202.497139 
L 321.541919 202.117387 
L 322.023637 203.993808 
L 322.505355 203.993808 
L 322.987073 204.686296 
L 323.46879 205.736199 
L 323.950508 206.071274 
L 324.432226 206.741424 
L 324.913944 208.327446 
L 325.395662 208.640183 
L 326.359097 209.824115 
L 326.840815 210.695311 
L 327.322533 211.276108 
L 327.804251 212.906807 
L 328.285968 212.906807 
L 329.249404 214.448152 
L 330.21284 215.431039 
L 330.694557 216.838355 
L 332.139711 219.072189 
L 332.621429 220.323136 
L 333.103146 221.127317 
L 333.584864 221.529407 
L 334.066582 222.28891 
L 334.5483 223.606873 
L 335.030018 223.964286 
L 336.475171 226.711902 
L 336.956889 226.711902 
L 337.438607 227.672451 
L 337.920324 228.923398 
L 338.88376 229.526533 
L 340.328914 231.536984 
L 340.810631 231.671014 
L 341.774067 233.011315 
L 342.737503 233.534032 
L 343.21922 234.548193 
L 344.182656 235.651707 
L 344.664374 236.127514 
L 346.109527 238.287631 
L 347.554681 239.57432 
L 348.999834 241.890806 
L 349.481552 242.464901 
L 349.96327 242.558723 
L 350.926705 244.21176 
L 351.408423 244.830532 
L 351.890141 245.004771 
L 352.853576 246.691316 
L 355.262165 249.865594 
L 356.707319 251.43598 
L 357.189037 252.325046 
L 357.670754 252.791917 
L 358.152472 253.57711 
L 359.115908 254.340858 
L 359.597626 255.44951 
L 360.079343 255.809827 
L 361.042779 257.321016 
L 361.524497 258.322891 
L 362.006215 258.972937 
L 362.487932 259.86647 
L 363.933086 261.675876 
L 364.414804 262.538136 
L 364.896521 263.054152 
L 366.341675 265.113747 
L 366.823393 265.627529 
L 367.786828 267.318541 
L 368.268546 268.06911 
L 368.750264 268.609698 
L 369.231982 269.514401 
L 369.713699 269.882983 
L 370.195417 270.81896 
L 370.677135 271.241154 
L 371.158853 271.964917 
L 371.640571 272.337967 
L 372.122289 272.034166 
L 372.604006 273.135446 
L 375.012595 275.125792 
L 375.494313 275.458634 
L 375.976031 275.996988 
L 376.457749 276.175694 
L 377.421184 277.129542 
L 378.38462 277.911384 
L 382.72008 281.86527 
L 384.165234 283.250247 
L 385.610387 284.121443 
L 386.092105 284.255473 
L 387.05554 284.188458 
L 387.537258 283.853383 
L 388.500694 282.043977 
L 389.464129 278.626211 
L 390.427565 273.718477 
L 391.391001 266.545635 
L 391.872718 262.205295 
L 392.836154 250.374909 
L 394.281307 226.220459 
L 395.244743 201.737635 
L 396.208179 153.754875 
L 396.689896 77.67048 
L 414.433169 77.67048 
L 415.316318 124.067218 
L 415.798036 77.67048 
L 417.564335 77.67048 
L 417.965766 109.34625 
L 418.367198 97.663297 
L 418.768629 133.762059 
L 419.250347 129.316728 
L 419.651778 140.999682 
L 420.05321 137.604254 
L 420.454641 153.754875 
L 420.856073 157.59707 
L 421.177218 157.59707 
L 421.57865 124.067218 
L 421.980081 146.785312 
L 422.301226 151.610394 
L 422.702658 153.754875 
L 423.023803 151.610394 
L 424.067525 168.051415 
L 424.38867 168.051415 
L 424.709815 173.725354 
L 425.030961 175.713466 
L 425.352106 178.461082 
L 425.592965 179.309939 
L 425.91411 173.725354 
L 426.476114 185.408307 
L 426.716973 185.408307 
L 426.957832 182.526661 
L 427.43955 192.10981 
L 427.680408 192.10981 
L 427.921267 193.695832 
L 428.162126 192.64593 
L 428.402985 190.434434 
L 428.563558 190.434434 
L 428.804417 192.10981 
L 428.964989 192.10981 
L 429.205848 194.209614 
L 429.366421 197.560365 
L 429.526993 197.560365 
L 429.848139 202.117387 
L 430.169284 198.878327 
L 430.24957 202.497139 
L 430.410143 203.256643 
L 430.651002 202.497139 
L 430.731288 201.737635 
L 430.89186 201.737635 
L 431.052433 203.993808 
L 431.213006 203.256643 
L 431.293292 203.256643 
L 431.453865 203.993808 
L 431.453865 203.993808 
L 431.534151 204.351221 
L 431.614437 203.993808 
L 431.614437 204.351221 
L 431.694723 205.736199 
L 431.694723 205.04371 
L 431.855296 203.256643 
L 431.855296 203.614056 
L 431.935582 201.335545 
L 431.935582 203.993808 
L 431.935582 209.824115 
L 431.935582 209.243318 
" clip-path="url(#pe240523eea)" style="fill: none; stroke: #d62728; stroke-width: 1.5; stroke-linecap: square"/>
   </g>
   <g id="patch_3">
    <path d="M 52.582813 304.44375 
L 52.582813 25.918125 
" style="fill: none; stroke: #000000; stroke-width: 0.8; stroke-linejoin: miter; stroke-linecap: square"/>
   </g>
   <g id="patch_4">
    <path d="M 450 304.44375 
L 450 25.918125 
" style="fill: none; stroke: #000000; stroke-width: 0.8; stroke-linejoin: miter; stroke-linecap: square"/>
   </g>
   <g id="patch_5">
    <path d="M 52.582813 304.44375 
L 450 304.44375 
" style="fill: none; stroke: #000000; stroke-width: 0.8; stroke-linejoin: miter; stroke-linecap: square"/>
   </g>
   <g id="patch_6">
    <path d="M 52.582813 25.918125 
L 450 25.918125 
" style="fill: none; stroke: #000000; stroke-width: 0.8; stroke-linejoin: miter; stroke-linecap: square"/>
   </g>
   <g id="text_15">
    <!-- Wall Distance [mm] -->
    <g transform="translate(192.311406 19.918125)scale(0.12 -0.12)">
     <use xlink:href="#DejaVuSans-57"/>
     <use xlink:href="#DejaVuSans-61" x="92.501953"/>
     <use xlink:href="#DejaVuSans-6c" x="153.78125"/>
     <use xlink:href="#DejaVuSans-6c" x="181.564453"/>
     <use xlink:href="#DejaVuSans-20" x="209.347656"/>
     <use xlink:href="#DejaVuSans-44" x="241.134766"/>
     <use xlink:href="#DejaVuSans-69" x="318.136719"/>
     <use xlink:href="#DejaVuSans-73" x="345.919922"/>
     <use xlink:href="#DejaVuSans-74" x="398.019531"/>
     <use xlink:href="#DejaVuSans-61" x="437.228516"/>
     <use xlink:href="#DejaVuSans-6e" x="498.507812"/>
     <use xlink:href="#DejaVuSans-63" x="561.886719"/>
     <use xlink:href="#DejaVuSans-65" x="616.867188"/>
     <use xlink:href="#DejaVuSans-20" x="678.390625"/>
     <use xlink:href="#DejaVuSans-5b" x="710.177734"/>
     <use xlink:href="#DejaVuSans-6d" x="749.191406"/>
     <use xlink:href="#DejaVuSans-6d" x="846.603516"/>
     <use xlink:href="#DejaVuSans-5d" x="944.015625"/>
    </g>
   </g>
   <g id="legend_1">
    <g id="patch_7">
     <path d="M 59.582813 196.037187 
L 146.382813 196.037187 
Q 148.382813 196.037187 148.382813 194.037187 
L 148.382813 136.324687 
Q 148.382813 134.324687 146.382813 134.324687 
L 59.582813 134.324687 
Q 57.582813 134.324687 57.582813 136.324687 
L 57.582813 194.037187 
Q 57.582813 196.037187 59.582813 196.037187 
z
" style="fill: #ffffff; opacity: 0.8; stroke: #cccccc; stroke-linejoin: miter"/>
    </g>
    <g id="line2d_29">
     <path d="M 61.582813 142.423125 
L 71.582813 142.423125 
L 81.582813 142.423125 
" style="fill: none; stroke: #1f77b4; stroke-width: 1.5; stroke-linecap: square"/>
    </g>
    <g id="text_16">
     <!-- Left Side -->
     <g transform="translate(89.582813 145.923125)scale(0.1 -0.1)">
      <defs>
       <path id="DejaVuSans-4c" d="M 628 4666 
L 1259 4666 
L 1259 531 
L 3531 531 
L 3531 0 
L 628 0 
L 628 4666 
z
" transform="scale(0.015625)"/>
       <path id="DejaVuSans-66" d="M 2375 4863 
L 2375 4384 
L 1825 4384 
Q 1516 4384 1395 4259 
Q 1275 4134 1275 3809 
L 1275 3500 
L 2222 3500 
L 2222 3053 
L 1275 3053 
L 1275 0 
L 697 0 
L 697 3053 
L 147 3053 
L 147 3500 
L 697 3500 
L 697 3744 
Q 697 4328 969 4595 
Q 1241 4863 1831 4863 
L 2375 4863 
z
" transform="scale(0.015625)"/>
       <path id="DejaVuSans-53" d="M 3425 4513 
L 3425 3897 
Q 3066 4069 2747 4153 
Q 2428 4238 2131 4238 
Q 1616 4238 1336 4038 
Q 1056 3838 1056 3469 
Q 1056 3159 1242 3001 
Q 1428 2844 1947 2747 
L 2328 2669 
Q 3034 2534 3370 2195 
Q 3706 1856 3706 1288 
Q 3706 609 3251 259 
Q 2797 -91 1919 -91 
Q 1588 -91 1214 -16 
Q 841 59 441 206 
L 441 856 
Q 825 641 1194 531 
Q 1563 422 1919 422 
Q 2459 422 2753 634 
Q 3047 847 3047 1241 
Q 3047 1584 2836 1778 
Q 2625 1972 2144 2069 
L 1759 2144 
Q 1053 2284 737 2584 
Q 422 2884 422 3419 
Q 422 4038 858 4394 
Q 1294 4750 2059 4750 
Q 2388 4750 2728 4690 
Q 3069 4631 3425 4513 
z
" transform="scale(0.015625)"/>
       <path id="DejaVuSans-64" d="M 2906 2969 
L 2906 4863 
L 3481 4863 
L 3481 0 
L 2906 0 
L 2906 525 
Q 2725 213 2448 61 
Q 2172 -91 1784 -91 
Q 1150 -91 751 415 
Q 353 922 353 1747 
Q 353 2572 751 3078 
Q 1150 3584 1784 3584 
Q 2172 3584 2448 3432 
Q 2725 3281 2906 2969 
z
M 947 1747 
Q 947 1113 1208 752 
Q 1469 391 1925 391 
Q 2381 391 2643 752 
Q 2906 1113 2906 1747 
Q 2906 2381 2643 2742 
Q 2381 3103 1925 3103 
Q 1469 3103 1208 2742 
Q 947 2381 947 1747 
z
" transform="scale(0.015625)"/>
      </defs>
      <use xlink:href="#DejaVuSans-4c"/>
      <use xlink:href="#DejaVuSans-65" x="53.962891"/>
      <use xlink:href="#DejaVuSans-66" x="115.486328"/>
      <use xlink:href="#DejaVuSans-74" x="148.941406"/>
      <use xlink:href="#DejaVuSans-20" x="188.150391"/>
      <use xlink:href="#DejaVuSans-53" x="219.9375"/>
      <use xlink:href="#DejaVuSans-69" x="283.414062"/>
      <use xlink:href="#DejaVuSans-64" x="311.197266"/>
      <use xlink:href="#DejaVuSans-65" x="374.673828"/>
     </g>
    </g>
    <g id="line2d_30">
     <path d="M 61.582813 157.10125 
L 71.582813 157.10125 
L 81.582813 157.10125 
" style="fill: none; stroke: #ff7f0e; stroke-width: 1.5; stroke-linecap: square"/>
    </g>
    <g id="text_17">
     <!-- Left Front -->
     <g transform="translate(89.582813 160.60125)scale(0.1 -0.1)">
      <defs>
       <path id="DejaVuSans-46" d="M 628 4666 
L 3309 4666 
L 3309 4134 
L 1259 4134 
L 1259 2759 
L 3109 2759 
L 3109 2228 
L 1259 2228 
L 1259 0 
L 628 0 
L 628 4666 
z
" transform="scale(0.015625)"/>
      </defs>
      <use xlink:href="#DejaVuSans-4c"/>
      <use xlink:href="#DejaVuSans-65" x="53.962891"/>
      <use xlink:href="#DejaVuSans-66" x="115.486328"/>
      <use xlink:href="#DejaVuSans-74" x="148.941406"/>
      <use xlink:href="#DejaVuSans-20" x="188.150391"/>
      <use xlink:href="#DejaVuSans-46" x="219.9375"/>
      <use xlink:href="#DejaVuSans-72" x="270.207031"/>
      <use xlink:href="#DejaVuSans-6f" x="309.070312"/>
      <use xlink:href="#DejaVuSans-6e" x="370.251953"/>
      <use xlink:href="#DejaVuSans-74" x="433.630859"/>
     </g>
    </g>
    <g id="line2d_31">
     <path d="M 61.582813 171.779375 
L 71.582813 171.779375 
L 81.582813 171.779375 
" style="fill: none; stroke: #2ca02c; stroke-width: 1.5; stroke-linecap: square"/>
    </g>
    <g id="text_18">
     <!-- Right Front -->
     <g transform="translate(89.582813 175.279375)scale(0.1 -0.1)">
      <defs>
       <path id="DejaVuSans-52" d="M 2841 2188 
Q 3044 2119 3236 1894 
Q 3428 1669 3622 1275 
L 4263 0 
L 3584 0 
L 2988 1197 
Q 2756 1666 2539 1819 
Q 2322 1972 1947 1972 
L 1259 1972 
L 1259 0 
L 628 0 
L 628 4666 
L 2053 4666 
Q 2853 4666 3247 4331 
Q 3641 3997 3641 3322 
Q 3641 2881 3436 2590 
Q 3231 2300 2841 2188 
z
M 1259 4147 
L 1259 2491 
L 2053 2491 
Q 2509 2491 2742 2702 
Q 2975 2913 2975 3322 
Q 2975 3731 2742 3939 
Q 2509 4147 2053 4147 
L 1259 4147 
z
" transform="scale(0.015625)"/>
       <path id="DejaVuSans-67" d="M 2906 1791 
Q 2906 2416 2648 2759 
Q 2391 3103 1925 3103 
Q 1463 3103 1205 2759 
Q 947 2416 947 1791 
Q 947 1169 1205 825 
Q 1463 481 1925 481 
Q 2391 481 2648 825 
Q 2906 1169 2906 1791 
z
M 3481 434 
Q 3481 -459 3084 -895 
Q 2688 -1331 1869 -1331 
Q 1566 -1331 1297 -1286 
Q 1028 -1241 775 -1147 
L 775 -588 
Q 1028 -725 1275 -790 
Q 1522 -856 1778 -856 
Q 2344 -856 2625 -561 
Q 2906 -266 2906 331 
L 2906 616 
Q 2728 306 2450 153 
Q 2172 0 1784 0 
Q 1141 0 747 490 
Q 353 981 353 1791 
Q 353 2603 747 3093 
Q 1141 3584 1784 3584 
Q 2172 3584 2450 3431 
Q 2728 3278 2906 2969 
L 2906 3500 
L 3481 3500 
L 3481 434 
z
" transform="scale(0.015625)"/>
       <path id="DejaVuSans-68" d="M 3513 2113 
L 3513 0 
L 2938 0 
L 2938 2094 
Q 2938 2591 2744 2837 
Q 2550 3084 2163 3084 
Q 1697 3084 1428 2787 
Q 1159 2491 1159 1978 
L 1159 0 
L 581 0 
L 581 4863 
L 1159 4863 
L 1159 2956 
Q 1366 3272 1645 3428 
Q 1925 3584 2291 3584 
Q 2894 3584 3203 3211 
Q 3513 2838 3513 2113 
z
" transform="scale(0.015625)"/>
      </defs>
      <use xlink:href="#DejaVuSans-52"/>
      <use xlink:href="#DejaVuSans-69" x="69.482422"/>
      <use xlink:href="#DejaVuSans-67" x="97.265625"/>
      <use xlink:href="#DejaVuSans-68" x="160.742188"/>
      <use xlink:href="#DejaVuSans-74" x="224.121094"/>
      <use xlink:href="#DejaVuSans-20" x="263.330078"/>
      <use xlink:href="#DejaVuSans-46" x="295.117188"/>
      <use xlink:href="#DejaVuSans-72" x="345.386719"/>
      <use xlink:href="#DejaVuSans-6f" x="384.25"/>
      <use xlink:href="#DejaVuSans-6e" x="445.431641"/>
      <use xlink:href="#DejaVuSans-74" x="508.810547"/>
     </g>
    </g>
    <g id="line2d_32">
     <path d="M 61.582813 186.4575 
L 71.582813 186.4575 
L 81.582813 186.4575 
" style="fill: none; stroke: #d62728; stroke-width: 1.5; stroke-linecap: square"/>
    </g>
    <g id="text_19">
     <!-- Right Side -->
     <g transform="translate(89.582813 189.9575)scale(0.1 -0.1)">
      <use xlink:href="#DejaVuSans-52"/>
      <use xlink:href="#DejaVuSans-69" x="69.482422"/>
      <use xlink:href="#DejaVuSans-67" x="97.265625"/>
      <use xlink:href="#DejaVuSans-68" x="160.742188"/>
      <use xlink:href="#DejaVuSans-74" x="224.121094"/>
      <use xlink:href="#DejaVuSans-20" x="263.330078"/>
      <use xlink:href="#DejaVuSans-53" x="295.117188"/>
      <use xlink:href="#DejaVuSans-69" x="358.59375"/>
      <use xlink:href="#DejaVuSans-64" x="386.376953"/>
      <use xlink:href="#DejaVuSans-65" x="449.853516"/>
     </g>
    </g>
   </g>
  </g>
 </g>
 <defs>
  <clipPath id="pe240523eea">
   <rect x="52.582813" y="25.918125" width="397.417187" height="278.525625"/>
  </clipPath>
 </defs>
</svg>
