<?xml version="1.0" encoding="utf-8" standalone="no"?>
<!DOCTYPE svg PUBLIC "-//W3C//DTD SVG 1.1//EN"
  "http://www.w3.org/Graphics/SVG/1.1/DTD/svg11.dtd">
<svg xmlns:xlink="http://www.w3.org/1999/xlink" width="460.8pt" height="345.6pt" viewBox="0 0 460.8 345.6" xmlns="http://www.w3.org/2000/svg" version="1.1">
 <metadata>
  <rdf:RDF xmlns:dc="http://purl.org/dc/elements/1.1/" xmlns:cc="http://creativecommons.org/ns#" xmlns:rdf="http://www.w3.org/1999/02/22-rdf-syntax-ns#">
   <cc:Work>
    <dc:type rdf:resource="http://purl.org/dc/dcmitype/StillImage"/>
    <dc:date>2022-01-16T03:38:20.523357</dc:date>
    <dc:format>image/svg+xml</dc:format>
    <dc:creator>
     <cc:Agent>
      <dc:title>Matplotlib v3.5.1, https://matplotlib.org/</dc:title>
     </cc:Agent>
    </dc:creator>
   </cc:Work>
  </rdf:RDF>
 </metadata>
 <defs>
  <style type="text/css">*{stroke-linejoin: round; stroke-linecap: butt}</style>
 </defs>
 <g id="figure_1">
  <g id="patch_1">
   <path d="M 0 345.6 
L 460.8 345.6 
L 460.8 0 
L 0 0 
z
" style="fill: #ffffff"/>
  </g>
  <g id="axes_1">
   <g id="patch_2">
    <path d="M 50.565625 161.67875 
L 442.626962 161.67875 
L 442.626962 33.21375 
L 50.565625 33.21375 
z
" style="fill: #ffffff"/>
   </g>
   <g id="matplotlib.axis_1">
    <g id="xtick_1">
     <g id="line2d_1">
      <path d="M 68.386595 161.67875 
L 68.386595 33.21375 
" clip-path="url(#p36c41afbcb)" style="fill: none; stroke: #b0b0b0; stroke-width: 0.8; stroke-linecap: square"/>
     </g>
     <g id="line2d_2">
      <defs>
       <path id="m745dcbfd12" d="M 0 0 
L 0 3.5 
" style="stroke: #000000; stroke-width: 0.8"/>
      </defs>
      <g>
       <use xlink:href="#m745dcbfd12" x="68.386595" y="161.67875" style="stroke: #000000; stroke-width: 0.8"/>
      </g>
     </g>
    </g>
    <g id="xtick_2">
     <g id="line2d_3">
      <path d="M 143.107643 161.67875 
L 143.107643 33.21375 
" clip-path="url(#p36c41afbcb)" style="fill: none; stroke: #b0b0b0; stroke-width: 0.8; stroke-linecap: square"/>
     </g>
     <g id="line2d_4">
      <g>
       <use xlink:href="#m745dcbfd12" x="143.107643" y="161.67875" style="stroke: #000000; stroke-width: 0.8"/>
      </g>
     </g>
    </g>
    <g id="xtick_3">
     <g id="line2d_5">
      <path d="M 217.82869 161.67875 
L 217.82869 33.21375 
" clip-path="url(#p36c41afbcb)" style="fill: none; stroke: #b0b0b0; stroke-width: 0.8; stroke-linecap: square"/>
     </g>
     <g id="line2d_6">
      <g>
       <use xlink:href="#m745dcbfd12" x="217.82869" y="161.67875" style="stroke: #000000; stroke-width: 0.8"/>
      </g>
     </g>
    </g>
    <g id="xtick_4">
     <g id="line2d_7">
      <path d="M 292.549738 161.67875 
L 292.549738 33.21375 
" clip-path="url(#p36c41afbcb)" style="fill: none; stroke: #b0b0b0; stroke-width: 0.8; stroke-linecap: square"/>
     </g>
     <g id="line2d_8">
      <g>
       <use xlink:href="#m745dcbfd12" x="292.549738" y="161.67875" style="stroke: #000000; stroke-width: 0.8"/>
      </g>
     </g>
    </g>
    <g id="xtick_5">
     <g id="line2d_9">
      <path d="M 367.270786 161.67875 
L 367.270786 33.21375 
" clip-path="url(#p36c41afbcb)" style="fill: none; stroke: #b0b0b0; stroke-width: 0.8; stroke-linecap: square"/>
     </g>
     <g id="line2d_10">
      <g>
       <use xlink:href="#m745dcbfd12" x="367.270786" y="161.67875" style="stroke: #000000; stroke-width: 0.8"/>
      </g>
     </g>
    </g>
    <g id="xtick_6">
     <g id="line2d_11">
      <path d="M 441.991833 161.67875 
L 441.991833 33.21375 
" clip-path="url(#p36c41afbcb)" style="fill: none; stroke: #b0b0b0; stroke-width: 0.8; stroke-linecap: square"/>
     </g>
     <g id="line2d_12">
      <g>
       <use xlink:href="#m745dcbfd12" x="441.991833" y="161.67875" style="stroke: #000000; stroke-width: 0.8"/>
      </g>
     </g>
    </g>
   </g>
   <g id="matplotlib.axis_2">
    <g id="ytick_1">
     <g id="line2d_13">
      <path d="M 50.565625 152.562845 
L 442.626962 152.562845 
" clip-path="url(#p36c41afbcb)" style="fill: none; stroke: #b0b0b0; stroke-width: 0.8; stroke-linecap: square"/>
     </g>
     <g id="line2d_14">
      <defs>
       <path id="ma43965804e" d="M 0 0 
L -3.5 0 
" style="stroke: #000000; stroke-width: 0.8"/>
      </defs>
      <g>
       <use xlink:href="#ma43965804e" x="50.565625" y="152.562845" style="stroke: #000000; stroke-width: 0.8"/>
      </g>
     </g>
     <g id="text_1">
      <!-- 0 -->
      <g transform="translate(37.203125 156.362063)scale(0.1 -0.1)">
       <defs>
        <path id="DejaVuSans-30" d="M 2034 4250 
Q 1547 4250 1301 3770 
Q 1056 3291 1056 2328 
Q 1056 1369 1301 889 
Q 1547 409 2034 409 
Q 2525 409 2770 889 
Q 3016 1369 3016 2328 
Q 3016 3291 2770 3770 
Q 2525 4250 2034 4250 
z
M 2034 4750 
Q 2819 4750 3233 4129 
Q 3647 3509 3647 2328 
Q 3647 1150 3233 529 
Q 2819 -91 2034 -91 
Q 1250 -91 836 529 
Q 422 1150 422 2328 
Q 422 3509 836 4129 
Q 1250 4750 2034 4750 
z
" transform="scale(0.015625)"/>
       </defs>
       <use xlink:href="#DejaVuSans-30"/>
      </g>
     </g>
    </g>
    <g id="ytick_2">
     <g id="line2d_15">
      <path d="M 50.565625 120.704922 
L 442.626962 120.704922 
" clip-path="url(#p36c41afbcb)" style="fill: none; stroke: #b0b0b0; stroke-width: 0.8; stroke-linecap: square"/>
     </g>
     <g id="line2d_16">
      <g>
       <use xlink:href="#ma43965804e" x="50.565625" y="120.704922" style="stroke: #000000; stroke-width: 0.8"/>
      </g>
     </g>
     <g id="text_2">
      <!-- 200 -->
      <g transform="translate(24.478125 124.504141)scale(0.1 -0.1)">
       <defs>
        <path id="DejaVuSans-32" d="M 1228 531 
L 3431 531 
L 3431 0 
L 469 0 
L 469 531 
Q 828 903 1448 1529 
Q 2069 2156 2228 2338 
Q 2531 2678 2651 2914 
Q 2772 3150 2772 3378 
Q 2772 3750 2511 3984 
Q 2250 4219 1831 4219 
Q 1534 4219 1204 4116 
Q 875 4013 500 3803 
L 500 4441 
Q 881 4594 1212 4672 
Q 1544 4750 1819 4750 
Q 2544 4750 2975 4387 
Q 3406 4025 3406 3419 
Q 3406 3131 3298 2873 
Q 3191 2616 2906 2266 
Q 2828 2175 2409 1742 
Q 1991 1309 1228 531 
z
" transform="scale(0.015625)"/>
       </defs>
       <use xlink:href="#DejaVuSans-32"/>
       <use xlink:href="#DejaVuSans-30" x="63.623047"/>
       <use xlink:href="#DejaVuSans-30" x="127.246094"/>
      </g>
     </g>
    </g>
    <g id="ytick_3">
     <g id="line2d_17">
      <path d="M 50.565625 88.847 
L 442.626962 88.847 
" clip-path="url(#p36c41afbcb)" style="fill: none; stroke: #b0b0b0; stroke-width: 0.8; stroke-linecap: square"/>
     </g>
     <g id="line2d_18">
      <g>
       <use xlink:href="#ma43965804e" x="50.565625" y="88.847" style="stroke: #000000; stroke-width: 0.8"/>
      </g>
     </g>
     <g id="text_3">
      <!-- 400 -->
      <g transform="translate(24.478125 92.646219)scale(0.1 -0.1)">
       <defs>
        <path id="DejaVuSans-34" d="M 2419 4116 
L 825 1625 
L 2419 1625 
L 2419 4116 
z
M 2253 4666 
L 3047 4666 
L 3047 1625 
L 3713 1625 
L 3713 1100 
L 3047 1100 
L 3047 0 
L 2419 0 
L 2419 1100 
L 313 1100 
L 313 1709 
L 2253 4666 
z
" transform="scale(0.015625)"/>
       </defs>
       <use xlink:href="#DejaVuSans-34"/>
       <use xlink:href="#DejaVuSans-30" x="63.623047"/>
       <use xlink:href="#DejaVuSans-30" x="127.246094"/>
      </g>
     </g>
    </g>
    <g id="ytick_4">
     <g id="line2d_19">
      <path d="M 50.565625 56.989078 
L 442.626962 56.989078 
" clip-path="url(#p36c41afbcb)" style="fill: none; stroke: #b0b0b0; stroke-width: 0.8; stroke-linecap: square"/>
     </g>
     <g id="line2d_20">
      <g>
       <use xlink:href="#ma43965804e" x="50.565625" y="56.989078" style="stroke: #000000; stroke-width: 0.8"/>
      </g>
     </g>
     <g id="text_4">
      <!-- 600 -->
      <g transform="translate(24.478125 60.788297)scale(0.1 -0.1)">
       <defs>
        <path id="DejaVuSans-36" d="M 2113 2584 
Q 1688 2584 1439 2293 
Q 1191 2003 1191 1497 
Q 1191 994 1439 701 
Q 1688 409 2113 409 
Q 2538 409 2786 701 
Q 3034 994 3034 1497 
Q 3034 2003 2786 2293 
Q 2538 2584 2113 2584 
z
M 3366 4563 
L 3366 3988 
Q 3128 4100 2886 4159 
Q 2644 4219 2406 4219 
Q 1781 4219 1451 3797 
Q 1122 3375 1075 2522 
Q 1259 2794 1537 2939 
Q 1816 3084 2150 3084 
Q 2853 3084 3261 2657 
Q 3669 2231 3669 1497 
Q 3669 778 3244 343 
Q 2819 -91 2113 -91 
Q 1303 -91 875 529 
Q 447 1150 447 2328 
Q 447 3434 972 4092 
Q 1497 4750 2381 4750 
Q 2619 4750 2861 4703 
Q 3103 4656 3366 4563 
z
" transform="scale(0.015625)"/>
       </defs>
       <use xlink:href="#DejaVuSans-36"/>
       <use xlink:href="#DejaVuSans-30" x="63.623047"/>
       <use xlink:href="#DejaVuSans-30" x="127.246094"/>
      </g>
     </g>
    </g>
    <g id="text_5">
     <!-- trans. vel. [mm/s] -->
     <g transform="translate(18.398438 142.011875)rotate(-90)scale(0.1 -0.1)">
      <defs>
       <path id="DejaVuSans-74" d="M 1172 4494 
L 1172 3500 
L 2356 3500 
L 2356 3053 
L 1172 3053 
L 1172 1153 
Q 1172 725 1289 603 
Q 1406 481 1766 481 
L 2356 481 
L 2356 0 
L 1766 0 
Q 1100 0 847 248 
Q 594 497 594 1153 
L 594 3053 
L 172 3053 
L 172 3500 
L 594 3500 
L 594 4494 
L 1172 4494 
z
" transform="scale(0.015625)"/>
       <path id="DejaVuSans-72" d="M 2631 2963 
Q 2534 3019 2420 3045 
Q 2306 3072 2169 3072 
Q 1681 3072 1420 2755 
Q 1159 2438 1159 1844 
L 1159 0 
L 581 0 
L 581 3500 
L 1159 3500 
L 1159 2956 
Q 1341 3275 1631 3429 
Q 1922 3584 2338 3584 
Q 2397 3584 2469 3576 
Q 2541 3569 2628 3553 
L 2631 2963 
z
" transform="scale(0.015625)"/>
       <path id="DejaVuSans-61" d="M 2194 1759 
Q 1497 1759 1228 1600 
Q 959 1441 959 1056 
Q 959 750 1161 570 
Q 1363 391 1709 391 
Q 2188 391 2477 730 
Q 2766 1069 2766 1631 
L 2766 1759 
L 2194 1759 
z
M 3341 1997 
L 3341 0 
L 2766 0 
L 2766 531 
Q 2569 213 2275 61 
Q 1981 -91 1556 -91 
Q 1019 -91 701 211 
Q 384 513 384 1019 
Q 384 1609 779 1909 
Q 1175 2209 1959 2209 
L 2766 2209 
L 2766 2266 
Q 2766 2663 2505 2880 
Q 2244 3097 1772 3097 
Q 1472 3097 1187 3025 
Q 903 2953 641 2809 
L 641 3341 
Q 956 3463 1253 3523 
Q 1550 3584 1831 3584 
Q 2591 3584 2966 3190 
Q 3341 2797 3341 1997 
z
" transform="scale(0.015625)"/>
       <path id="DejaVuSans-6e" d="M 3513 2113 
L 3513 0 
L 2938 0 
L 2938 2094 
Q 2938 2591 2744 2837 
Q 2550 3084 2163 3084 
Q 1697 3084 1428 2787 
Q 1159 2491 1159 1978 
L 1159 0 
L 581 0 
L 581 3500 
L 1159 3500 
L 1159 2956 
Q 1366 3272 1645 3428 
Q 1925 3584 2291 3584 
Q 2894 3584 3203 3211 
Q 3513 2838 3513 2113 
z
" transform="scale(0.015625)"/>
       <path id="DejaVuSans-73" d="M 2834 3397 
L 2834 2853 
Q 2591 2978 2328 3040 
Q 2066 3103 1784 3103 
Q 1356 3103 1142 2972 
Q 928 2841 928 2578 
Q 928 2378 1081 2264 
Q 1234 2150 1697 2047 
L 1894 2003 
Q 2506 1872 2764 1633 
Q 3022 1394 3022 966 
Q 3022 478 2636 193 
Q 2250 -91 1575 -91 
Q 1294 -91 989 -36 
Q 684 19 347 128 
L 347 722 
Q 666 556 975 473 
Q 1284 391 1588 391 
Q 1994 391 2212 530 
Q 2431 669 2431 922 
Q 2431 1156 2273 1281 
Q 2116 1406 1581 1522 
L 1381 1569 
Q 847 1681 609 1914 
Q 372 2147 372 2553 
Q 372 3047 722 3315 
Q 1072 3584 1716 3584 
Q 2034 3584 2315 3537 
Q 2597 3491 2834 3397 
z
" transform="scale(0.015625)"/>
       <path id="DejaVuSans-2e" d="M 684 794 
L 1344 794 
L 1344 0 
L 684 0 
L 684 794 
z
" transform="scale(0.015625)"/>
       <path id="DejaVuSans-20" transform="scale(0.015625)"/>
       <path id="DejaVuSans-76" d="M 191 3500 
L 800 3500 
L 1894 563 
L 2988 3500 
L 3597 3500 
L 2284 0 
L 1503 0 
L 191 3500 
z
" transform="scale(0.015625)"/>
       <path id="DejaVuSans-65" d="M 3597 1894 
L 3597 1613 
L 953 1613 
Q 991 1019 1311 708 
Q 1631 397 2203 397 
Q 2534 397 2845 478 
Q 3156 559 3463 722 
L 3463 178 
Q 3153 47 2828 -22 
Q 2503 -91 2169 -91 
Q 1331 -91 842 396 
Q 353 884 353 1716 
Q 353 2575 817 3079 
Q 1281 3584 2069 3584 
Q 2775 3584 3186 3129 
Q 3597 2675 3597 1894 
z
M 3022 2063 
Q 3016 2534 2758 2815 
Q 2500 3097 2075 3097 
Q 1594 3097 1305 2825 
Q 1016 2553 972 2059 
L 3022 2063 
z
" transform="scale(0.015625)"/>
       <path id="DejaVuSans-6c" d="M 603 4863 
L 1178 4863 
L 1178 0 
L 603 0 
L 603 4863 
z
" transform="scale(0.015625)"/>
       <path id="DejaVuSans-5b" d="M 550 4863 
L 1875 4863 
L 1875 4416 
L 1125 4416 
L 1125 -397 
L 1875 -397 
L 1875 -844 
L 550 -844 
L 550 4863 
z
" transform="scale(0.015625)"/>
       <path id="DejaVuSans-6d" d="M 3328 2828 
Q 3544 3216 3844 3400 
Q 4144 3584 4550 3584 
Q 5097 3584 5394 3201 
Q 5691 2819 5691 2113 
L 5691 0 
L 5113 0 
L 5113 2094 
Q 5113 2597 4934 2840 
Q 4756 3084 4391 3084 
Q 3944 3084 3684 2787 
Q 3425 2491 3425 1978 
L 3425 0 
L 2847 0 
L 2847 2094 
Q 2847 2600 2669 2842 
Q 2491 3084 2119 3084 
Q 1678 3084 1418 2786 
Q 1159 2488 1159 1978 
L 1159 0 
L 581 0 
L 581 3500 
L 1159 3500 
L 1159 2956 
Q 1356 3278 1631 3431 
Q 1906 3584 2284 3584 
Q 2666 3584 2933 3390 
Q 3200 3197 3328 2828 
z
" transform="scale(0.015625)"/>
       <path id="DejaVuSans-2f" d="M 1625 4666 
L 2156 4666 
L 531 -594 
L 0 -594 
L 1625 4666 
z
" transform="scale(0.015625)"/>
       <path id="DejaVuSans-5d" d="M 1947 4863 
L 1947 -844 
L 622 -844 
L 622 -397 
L 1369 -397 
L 1369 4416 
L 622 4416 
L 622 4863 
L 1947 4863 
z
" transform="scale(0.015625)"/>
      </defs>
      <use xlink:href="#DejaVuSans-74"/>
      <use xlink:href="#DejaVuSans-72" x="39.208984"/>
      <use xlink:href="#DejaVuSans-61" x="80.322266"/>
      <use xlink:href="#DejaVuSans-6e" x="141.601562"/>
      <use xlink:href="#DejaVuSans-73" x="204.980469"/>
      <use xlink:href="#DejaVuSans-2e" x="257.080078"/>
      <use xlink:href="#DejaVuSans-20" x="288.867188"/>
      <use xlink:href="#DejaVuSans-76" x="320.654297"/>
      <use xlink:href="#DejaVuSans-65" x="379.833984"/>
      <use xlink:href="#DejaVuSans-6c" x="441.357422"/>
      <use xlink:href="#DejaVuSans-2e" x="469.140625"/>
      <use xlink:href="#DejaVuSans-20" x="500.927734"/>
      <use xlink:href="#DejaVuSans-5b" x="532.714844"/>
      <use xlink:href="#DejaVuSans-6d" x="571.728516"/>
      <use xlink:href="#DejaVuSans-6d" x="669.140625"/>
      <use xlink:href="#DejaVuSans-2f" x="766.552734"/>
      <use xlink:href="#DejaVuSans-73" x="800.244141"/>
      <use xlink:href="#DejaVuSans-5d" x="852.34375"/>
     </g>
    </g>
   </g>
   <g id="line2d_21">
    <path d="M 68.386595 152.562845 
L 69.133805 152.486386 
L 70.254621 152.084976 
L 71.375437 151.3395 
L 72.496253 150.249959 
L 73.617068 148.816353 
L 74.737884 147.038681 
L 75.8587 144.916943 
L 77.353121 141.552747 
L 78.847542 137.576878 
L 80.341963 132.986151 
L 82.209989 126.391562 
L 92.670935 86.266509 
L 94.912567 78.015307 
L 96.780593 72.153449 
L 98.275014 68.15528 
L 99.769435 64.762411 
L 101.263856 61.990772 
L 102.384672 60.302302 
L 103.505487 58.964269 
L 104.626303 57.976674 
L 105.747119 57.323586 
L 106.494329 57.084652 
L 107.615145 56.989078 
L 349.337734 57.068723 
L 350.45855 57.466947 
L 351.20576 57.928887 
L 352.326576 58.900554 
L 353.447392 60.222657 
L 354.568208 61.879269 
L 356.062629 64.63498 
L 357.55705 67.99599 
L 359.05147 71.962302 
L 360.919497 77.792301 
L 362.787523 84.578039 
L 375.116496 131.520687 
L 376.610917 136.299375 
L 378.105338 140.44887 
L 379.599759 143.993063 
L 381.09418 146.925585 
L 382.214995 148.722372 
L 383.335811 150.176686 
L 384.456627 151.28566 
L 385.577442 152.051206 
L 386.698258 152.472495 
L 387.819074 152.562845 
L 424.805992 152.562845 
L 424.805992 152.562845 
" clip-path="url(#p36c41afbcb)" style="fill: none; stroke: #1f77b4; stroke-width: 1.5; stroke-linecap: square"/>
   </g>
   <g id="line2d_22">
    <path d="M 68.386595 152.562845 
L 70.628226 152.562845 
L 71.001832 152.370104 
L 71.375437 152.755585 
L 71.749042 152.562845 
L 72.869858 152.562845 
L 73.243463 152.370104 
L 73.617068 152.370104 
L 73.990673 151.984623 
L 74.364279 151.984623 
L 75.111489 151.599142 
L 75.485094 151.02108 
L 75.8587 151.213662 
L 76.232305 150.63544 
L 76.60591 150.4427 
L 76.979515 149.478998 
L 77.353121 149.286257 
L 77.726726 148.322555 
L 78.473936 147.551593 
L 78.847542 145.045968 
L 79.221147 145.624189 
L 79.594752 141.769381 
L 79.968357 142.347602 
L 80.341963 137.530684 
L 80.715568 138.494386 
L 81.089173 132.333064 
L 81.462778 134.260468 
L 81.836383 126.550851 
L 82.209989 129.051698 
L 82.583594 119.223529 
L 82.957199 123.460633 
L 83.330804 112.660797 
L 83.70441 118.44301 
L 84.078015 106.113994 
L 84.45162 113.250169 
L 84.825225 99.567191 
L 85.198831 108.041398 
L 85.572436 93.593831 
L 85.946041 104.18659 
L 86.319646 88.767356 
L 86.693252 95.330088 
L 87.066857 92.813312 
L 87.440462 93.593831 
L 87.814067 100.905224 
L 88.187673 87.222246 
L 88.561278 100.522929 
L 88.934883 86.457656 
L 89.308488 99.567191 
L 89.682093 84.721399 
L 90.055699 98.404377 
L 90.429304 82.985143 
L 90.802909 96.66812 
L 91.176514 79.321482 
L 91.55012 93.976126 
L 91.923725 76.056045 
L 92.29733 90.885907 
L 92.670935 71.611865 
L 93.044541 86.839951 
L 93.418146 67.948204 
L 93.791751 85.294842 
L 94.165356 66.610171 
L 94.538962 84.912547 
L 94.912567 66.227876 
L 95.286172 84.912547 
L 95.659777 65.829652 
L 96.033383 82.602848 
L 96.406988 67.374761 
L 96.780593 72.774679 
L 97.154198 72.201236 
L 97.527803 81.631181 
L 97.901409 61.783696 
L 98.275014 79.512629 
L 98.648619 59.473996 
L 99.022224 77.776372 
L 99.39583 58.518259 
L 99.769435 78.556892 
L 100.14304 60.63681 
L 100.516645 80.866591 
L 100.890251 62.564215 
L 101.263856 82.220553 
L 101.637461 64.300471 
L 102.011066 82.602848 
L 102.384672 64.491619 
L 102.758277 82.602848 
L 103.131882 64.300471 
L 103.505487 82.4117 
L 103.879093 64.093395 
L 104.252698 82.985143 
L 104.626303 64.873914 
L 104.999908 83.558585 
L 105.373514 65.065062 
L 105.747119 84.147957 
L 106.120724 65.829652 
L 106.494329 75.657821 
L 106.867934 73.348121 
L 107.24154 82.793995 
L 107.98875 64.491619 
L 108.362355 82.793995 
L 108.735961 64.093395 
L 109.109566 82.985143 
L 109.483171 63.328805 
L 109.856776 82.029405 
L 110.230382 61.210253 
L 110.603987 81.440034 
L 110.977592 60.63681 
L 111.351197 79.910853 
L 111.724803 60.827958 
L 112.098408 79.910853 
L 112.472013 59.282849 
L 112.845618 78.939187 
L 113.219224 57.737739 
L 113.592829 76.820635 
L 113.966434 55.810335 
L 114.340039 76.056045 
L 114.713644 54.456374 
L 115.08725 74.702083 
L 115.460855 53.309488 
L 115.83446 72.774679 
L 116.208065 55.619188 
L 116.581671 61.210253 
L 116.955276 60.238586 
L 117.328881 71.229569 
L 117.702486 48.881237 
L 118.076092 72.010089 
L 118.449697 48.483013 
L 118.823302 69.302165 
L 119.196907 46.953833 
L 119.570513 67.948204 
L 119.944118 43.481319 
L 120.317723 65.829652 
L 120.691328 42.509653 
L 121.064934 65.256209 
L 121.438539 41.17162 
L 121.812144 64.300471 
L 122.185749 40.582248 
L 122.559354 64.093395 
L 122.93296 40.582248 
L 123.306565 63.519952 
L 123.68017 39.626511 
L 124.053775 63.328805 
L 124.427381 40.008806 
L 124.800986 63.902247 
L 125.174591 39.053068 
L 125.548196 64.682766 
L 125.921802 41.17162 
L 126.295407 60.238586 
L 126.669012 42.509653 
L 127.042617 50.410417 
L 127.416223 64.682766 
L 127.789828 41.17162 
L 128.163433 64.300471 
L 128.537038 41.362768 
L 128.910644 64.873914 
L 129.284249 41.362768 
L 129.657854 64.873914 
L 130.031459 42.318505 
L 130.405064 65.829652 
L 130.77867 43.290172 
L 131.152275 66.610171 
L 131.52588 44.437057 
L 131.899485 66.801318 
L 132.273091 44.437057 
L 132.646696 67.374761 
L 133.020301 45.026429 
L 133.393906 67.948204 
L 133.767512 45.026429 
L 134.141117 68.15528 
L 134.514722 45.408724 
L 134.888327 67.757056 
L 135.261933 44.628205 
L 135.635538 65.829652 
L 136.009143 46.173314 
L 136.382748 68.346428 
L 136.756354 45.408724 
L 137.503564 68.346428 
L 137.877169 44.437057 
L 138.250774 67.565908 
L 138.62438 44.835281 
L 138.997985 67.565908 
L 139.37159 44.054762 
L 139.745195 66.610171 
L 140.118801 42.509653 
L 140.492406 67.183613 
L 140.866011 43.099024 
L 141.239616 65.256209 
L 141.613222 41.745063 
L 141.986827 65.256209 
L 142.360432 41.93621 
L 142.734037 64.682766 
L 143.107643 40.964544 
L 143.481248 63.902247 
L 143.854853 39.626511 
L 144.228458 63.328805 
L 144.602064 39.626511 
L 144.975669 63.7111 
L 145.349274 40.391101 
L 145.722879 53.309488 
L 146.096485 51.190936 
L 146.47009 51.573232 
L 146.843695 65.065062 
L 147.2173 40.008806 
L 147.590905 63.902247 
L 147.964511 40.199953 
L 148.338116 64.682766 
L 148.711721 40.964544 
L 149.085326 64.093395 
L 149.458932 41.17162 
L 149.832537 64.491619 
L 150.206142 40.980472 
L 150.579747 65.065062 
L 150.953353 41.93621 
L 151.326958 65.638504 
L 151.700563 42.318505 
L 152.074168 65.638504 
L 152.447774 42.7008 
L 152.821379 66.020799 
L 153.194984 43.481319 
L 153.568589 66.801318 
L 153.942195 44.437057 
L 154.3158 68.15528 
L 154.689405 45.982166 
L 155.06301 67.374761 
L 155.436615 48.100718 
L 155.810221 68.537575 
L 156.183826 46.953833 
L 156.931036 69.875608 
L 157.304642 48.291866 
L 157.678247 70.273832 
L 158.051852 48.881237 
L 158.425457 70.656127 
L 158.799063 48.881237 
L 159.172668 71.038422 
L 159.546273 49.45468 
L 159.919878 71.038422 
L 160.293484 49.263532 
L 160.667089 70.847274 
L 161.040694 48.100718 
L 161.414299 69.493313 
L 161.787905 46.953833 
L 162.16151 69.111018 
L 162.535115 45.791019 
L 162.90872 69.875608 
L 163.282325 46.364461 
L 163.655931 68.91987 
L 164.029536 46.364461 
L 164.403141 66.992466 
L 164.776746 48.483013 
L 165.150352 56.001483 
L 165.523957 54.66345 
L 165.897562 56.973149 
L 166.271167 67.948204 
L 166.644773 45.026429 
L 167.018378 67.183613 
L 167.391983 44.628205 
L 167.765588 66.801318 
L 168.139194 44.245909 
L 168.512799 67.183613 
L 168.886404 44.628205 
L 169.260009 66.801318 
L 169.633615 43.672467 
L 170.00722 66.610171 
L 170.380825 42.907877 
L 170.75443 65.829652 
L 171.128035 41.745063 
L 171.501641 66.211947 
L 171.875246 43.099024 
L 172.248851 66.227876 
L 172.622456 42.907877 
L 172.996062 66.610171 
L 173.369667 42.509653 
L 173.743272 64.093395 
L 174.116877 46.555609 
L 174.490483 53.691783 
L 174.864088 53.118341 
L 175.237693 66.992466 
L 175.611298 43.481319 
L 175.984904 66.610171 
L 176.358509 43.863614 
L 176.732114 67.183613 
L 177.105719 44.819352 
L 177.479325 67.374761 
L 177.85293 45.217576 
L 178.226535 68.346428 
L 178.60014 45.791019 
L 178.973746 69.111018 
L 179.347351 47.14498 
L 179.720956 69.493313 
L 180.094561 47.336128 
L 180.468166 70.464979 
L 180.841772 48.483013 
L 181.215377 70.847274 
L 181.588982 49.45468 
L 181.962587 71.229569 
L 182.336193 49.45468 
L 182.709798 71.229569 
L 183.083403 49.645827 
L 183.457008 62.373067 
L 183.830614 59.856291 
L 184.204219 59.856291 
L 184.577824 71.420717 
L 184.951429 48.674161 
L 185.325035 72.392384 
L 185.69864 49.263532 
L 186.072245 71.229569 
L 186.44585 49.263532 
L 186.819456 70.656127 
L 187.193061 48.69009 
L 187.566666 70.847274 
L 187.940271 48.291866 
L 188.313876 70.082684 
L 188.687482 47.718423 
L 189.061087 69.493313 
L 189.434692 46.364461 
L 189.808297 68.728723 
L 190.181903 45.982166 
L 190.555508 67.948204 
L 190.929113 45.408724 
L 191.302718 67.565908 
L 191.676324 43.863614 
L 192.049929 66.992466 
L 192.423534 43.863614 
L 192.797139 57.164297 
L 193.170745 53.882931 
L 193.54435 65.638504 
L 193.917955 45.599871 
L 194.29156 66.419023 
L 194.665166 42.907877 
L 195.038771 65.447357 
L 195.412376 41.745063 
L 195.785981 65.638504 
L 196.159586 42.127358 
L 196.533192 65.256209 
L 196.906797 42.509653 
L 197.280402 65.065062 
L 197.654007 41.553915 
L 198.027613 65.256209 
L 198.401218 42.127358 
L 198.774823 65.638504 
L 199.148428 42.509653 
L 199.522034 66.020799 
L 199.895639 42.127358 
L 200.269244 66.419023 
L 200.642849 42.907877 
L 201.016455 66.419023 
L 201.39006 43.481319 
L 201.763665 66.419023 
L 202.13727 47.14498 
L 202.510876 53.309488 
L 202.884481 67.374761 
L 203.631691 45.026429 
L 204.005296 68.346428 
L 204.378902 46.555609 
L 204.752507 69.302165 
L 205.126112 46.364461 
L 205.499717 69.68446 
L 205.873323 47.336128 
L 206.246928 70.273832 
L 206.620533 47.718423 
L 206.994138 70.273832 
L 207.367744 47.909571 
L 207.741349 71.038422 
L 208.114954 49.45468 
L 208.488559 70.847274 
L 208.862165 48.881237 
L 209.23577 70.847274 
L 209.609375 48.674161 
L 209.98298 70.656127 
L 210.356586 48.69009 
L 210.730191 70.464979 
L 211.103796 49.45468 
L 211.477401 57.546592 
L 211.851006 68.91987 
L 212.224612 49.072385 
L 212.598217 69.875608 
L 212.971822 46.953833 
L 213.345427 69.111018 
L 213.719033 47.527275 
L 214.092638 69.111018 
L 214.466243 47.14498 
L 214.839848 68.728723 
L 215.213454 45.791019 
L 215.587059 66.992466 
L 215.960664 44.437057 
L 216.334269 66.801318 
L 216.707875 43.863614 
L 217.08148 66.992466 
L 217.455085 43.672467 
L 217.82869 66.211947 
L 218.202296 43.099024 
L 218.575901 65.829652 
L 218.949506 41.93621 
L 219.323111 65.638504 
L 219.696717 42.318505 
L 220.070322 65.638504 
L 220.443927 43.863614 
L 220.817532 63.519952 
L 221.191137 44.245909 
L 221.564743 63.328805 
L 221.938348 42.891948 
L 222.311953 65.638504 
L 222.685558 42.7008 
L 223.059164 65.447357 
L 223.432769 42.907877 
L 223.806374 66.211947 
L 224.179979 43.290172 
L 224.553585 66.020799 
L 224.92719 42.7008 
L 225.300795 65.829652 
L 225.6744 43.863614 
L 226.048006 66.992466 
L 226.421611 44.245909 
L 226.795216 67.374761 
L 227.168821 44.819352 
L 227.542427 67.183613 
L 227.916032 44.628205 
L 228.289637 68.346428 
L 228.663242 46.173314 
L 229.036847 69.302165 
L 229.410453 46.953833 
L 229.784058 68.139351 
L 230.157663 50.999789 
L 230.531268 58.311182 
L 230.904874 69.302165 
L 231.278479 49.45468 
L 231.652084 70.847274 
L 232.025689 49.836975 
L 232.399295 71.229569 
L 232.7729 48.881237 
L 233.146505 70.464979 
L 233.52011 48.291866 
L 233.893716 69.875608 
L 234.267321 48.100718 
L 234.640926 70.273832 
L 235.014531 48.100718 
L 235.388137 70.273832 
L 235.761742 48.483013 
L 236.135347 70.273832 
L 236.508952 47.718423 
L 236.882557 69.68446 
L 237.256163 46.953833 
L 237.629768 70.273832 
L 238.003373 47.718423 
L 238.376978 69.111018 
L 238.750584 51.190936 
L 239.124189 56.782002 
L 239.497794 57.355444 
L 239.871399 68.728723 
L 240.245005 45.982166 
L 240.61861 68.91987 
L 240.992215 45.982166 
L 241.36582 67.948204 
L 241.739426 44.628205 
L 242.113031 67.565908 
L 242.486636 44.054762 
L 242.860241 66.610171 
L 243.233847 44.054762 
L 243.607452 66.610171 
L 243.981057 44.245909 
L 244.354662 66.992466 
L 244.728267 43.290172 
L 245.101873 67.374761 
L 245.475478 43.481319 
L 245.849083 66.020799 
L 246.222688 42.7008 
L 246.596294 65.638504 
L 246.969899 43.099024 
L 247.343504 55.236893 
L 247.717109 52.736046 
L 248.090715 54.265226 
L 248.46432 66.801318 
L 248.837925 43.290172 
L 249.21153 66.419023 
L 249.585136 43.481319 
L 249.958741 66.801318 
L 250.332346 43.672467 
L 250.705951 66.801318 
L 251.079557 44.819352 
L 251.453162 67.948204 
L 251.826767 45.026429 
L 252.200372 68.728723 
L 252.573978 46.953833 
L 252.947583 69.493313 
L 253.321188 47.718423 
L 253.694793 69.68446 
L 254.068398 48.291866 
L 254.442004 70.464979 
L 254.815609 48.291866 
L 255.189214 70.847274 
L 255.562819 51.382084 
L 255.936425 68.537575 
L 256.31003 50.999789 
L 256.683635 70.847274 
L 257.05724 49.836975 
L 257.430846 70.847274 
L 257.804451 48.100718 
L 258.178056 69.68446 
L 258.551661 48.100718 
L 258.925267 69.875608 
L 259.298872 48.291866 
L 259.672477 70.464979 
L 260.046082 47.909571 
L 260.419688 70.273832 
L 260.793293 47.14498 
L 261.166898 69.302165 
L 261.540503 47.718423 
L 261.914108 69.302165 
L 262.287714 47.336128 
L 262.661319 68.728723 
L 263.034924 46.173314 
L 263.408529 67.183613 
L 263.782135 46.953833 
L 264.15574 66.801318 
L 264.529345 46.364461 
L 264.90295 67.757056 
L 265.276556 45.026429 
L 265.650161 67.374761 
L 266.023766 44.628205 
L 266.397371 67.183613 
L 266.770977 43.481319 
L 267.144582 66.610171 
L 267.518187 43.863614 
L 267.891792 66.020799 
L 268.265398 43.672467 
L 268.639003 66.419023 
L 269.012608 43.290172 
L 269.386213 66.211947 
L 269.759818 42.7008 
L 270.133424 65.829652 
L 270.507029 42.891948 
L 270.880634 66.036728 
L 271.254239 42.907877 
L 271.627845 64.491619 
L 272.00145 46.746756 
L 272.375055 54.265226 
L 272.74866 52.337822 
L 273.122266 66.992466 
L 273.495871 43.481319 
L 273.869476 66.610171 
L 274.243081 43.672467 
L 274.616687 67.374761 
L 274.990292 43.863614 
L 275.363897 67.757056 
L 275.737502 44.054762 
L 276.111108 67.757056 
L 276.484713 45.408724 
L 276.858318 68.346428 
L 277.231923 46.173314 
L 277.605528 69.302165 
L 277.979134 47.336128 
L 278.352739 69.493313 
L 278.726344 47.527275 
L 279.099949 70.464979 
L 279.473555 48.483013 
L 279.84716 69.875608 
L 280.220765 52.337822 
L 280.59437 59.091701 
L 280.967976 59.091701 
L 281.341581 71.611865 
L 281.715186 48.69009 
L 282.088791 70.847274 
L 282.462397 49.263532 
L 282.836002 70.847274 
L 283.209607 49.072385 
L 283.583212 70.847274 
L 283.956818 48.881237 
L 284.330423 70.464979 
L 284.704028 47.718423 
L 285.077633 69.302165 
L 285.451238 46.953833 
L 285.824844 69.302165 
L 286.198449 46.937904 
L 286.572054 69.111018 
L 286.945659 46.953833 
L 287.319265 68.728723 
L 287.69287 46.173314 
L 288.066475 67.374761 
L 288.44008 46.364461 
L 288.813686 67.948204 
L 289.187291 45.791019 
L 289.560896 67.565908 
L 289.934501 44.437057 
L 290.308107 67.183613 
L 290.681712 43.863614 
L 291.055317 66.610171 
L 291.428922 43.863614 
L 291.802528 66.610171 
L 292.176133 43.290172 
L 292.549738 66.419023 
L 292.923343 43.099024 
L 293.296949 66.020799 
L 293.670554 42.318505 
L 294.044159 65.447357 
L 294.417764 42.509653 
L 294.791369 65.829652 
L 295.164975 42.509653 
L 295.53858 56.001483 
L 295.912185 52.736046 
L 296.28579 52.544898 
L 296.659396 66.020799 
L 297.033001 41.93621 
L 297.406606 66.211947 
L 297.780211 42.907877 
L 298.153817 65.638504 
L 298.527422 42.509653 
L 298.901027 65.829652 
L 299.274632 42.891948 
L 299.648238 66.227876 
L 300.021843 43.099024 
L 300.395448 66.992466 
L 300.769053 44.245909 
L 301.142659 67.183613 
L 301.516264 45.217576 
L 301.889869 67.757056 
L 302.263474 45.026429 
L 302.637079 67.374761 
L 303.010685 48.69009 
L 303.38429 56.782002 
L 303.757895 57.928887 
L 304.1315 70.273832 
L 304.505106 47.718423 
L 304.878711 71.420717 
L 305.252316 48.674161 
L 305.625921 70.464979 
L 305.999527 47.718423 
L 306.373132 69.875608 
L 306.746737 47.909571 
L 307.120342 69.302165 
L 307.493948 48.100718 
L 307.867553 70.273832 
L 308.241158 47.718423 
L 308.614763 70.066755 
L 308.988369 48.291866 
L 309.361974 70.656127 
L 309.735579 49.645827 
L 310.109184 59.665144 
L 310.482789 57.546592 
L 310.856395 59.282849 
L 311.23 70.066755 
L 311.603605 47.909571 
L 311.97721 69.302165 
L 312.350816 47.336128 
L 312.724421 69.302165 
L 313.098026 46.555609 
L 313.471631 69.111018 
L 313.845237 45.599871 
L 314.218842 68.15528 
L 314.592447 44.628205 
L 314.966052 67.374761 
L 315.339658 44.437057 
L 315.713263 67.374761 
L 316.086868 44.437057 
L 316.460473 65.638504 
L 316.834079 47.336128 
L 317.207684 53.500636 
L 317.581289 53.882931 
L 317.954894 65.829652 
L 318.328499 42.509653 
L 318.702105 66.211947 
L 319.07571 43.099024 
L 319.449315 66.211947 
L 319.82292 42.907877 
L 320.196526 66.020799 
L 320.570131 42.509653 
L 320.943736 66.020799 
L 321.317341 42.907877 
L 321.690947 65.829652 
L 322.064552 42.907877 
L 322.438157 66.227876 
L 322.811762 45.0105 
L 323.185368 53.118341 
L 323.558973 66.610171 
L 323.932578 44.437057 
L 324.306183 66.211947 
L 324.679789 43.863614 
L 325.053394 67.183613 
L 325.426999 44.437057 
L 325.800604 67.374761 
L 326.17421 45.599871 
L 326.547815 67.757056 
L 326.92142 45.982166 
L 327.295025 69.68446 
L 327.66863 47.527275 
L 328.042236 69.875608 
L 328.415841 48.69009 
L 328.789446 71.420717 
L 329.163051 49.645827 
L 329.536657 61.974843 
L 329.910262 58.709406 
L 330.283867 59.473996 
L 330.657472 71.229569 
L 331.031078 49.836975 
L 331.404683 71.229569 
L 331.778288 49.072385 
L 332.151893 71.038422 
L 332.525499 49.072385 
L 332.899104 71.038422 
L 333.272709 49.263532 
L 333.646314 71.038422 
L 334.01992 49.836975 
L 334.393525 71.038422 
L 334.76713 48.881237 
L 335.140735 68.91987 
L 335.51434 52.146674 
L 335.887946 58.709406 
L 336.261551 68.139351 
L 336.635156 48.483013 
L 337.008761 69.493313 
L 337.382367 47.14498 
L 337.755972 69.111018 
L 338.129577 46.746756 
L 338.503182 68.346428 
L 338.876788 45.982166 
L 339.250393 68.139351 
L 339.623998 45.217576 
L 339.997603 68.139351 
L 340.371209 44.245909 
L 340.744814 66.419023 
L 341.118419 45.982166 
L 341.492024 54.074078 
L 341.86563 64.682766 
L 342.239235 43.672467 
L 342.61284 65.829652 
L 342.986445 42.7008 
L 343.36005 66.036728 
L 343.733656 42.318505 
L 344.107261 66.020799 
L 344.480866 42.127358 
L 344.854471 64.682766 
L 345.228077 41.93621 
L 345.601682 64.873914 
L 345.975287 41.745063 
L 346.348892 63.519952 
L 346.722498 45.599871 
L 347.096103 52.927193 
L 347.469708 52.146674 
L 347.843313 66.419023 
L 348.216919 42.7008 
L 348.590524 66.211947 
L 348.964129 43.481319 
L 349.337734 66.419023 
L 349.71134 43.863614 
L 350.084945 66.992466 
L 350.45855 44.628205 
L 350.832155 67.757056 
L 351.20576 45.026429 
L 351.579366 67.757056 
L 351.952971 49.45468 
L 352.326576 57.355444 
L 352.700181 58.709406 
L 353.073787 70.847274 
L 353.447392 48.69009 
L 353.820997 71.420717 
L 354.194602 50.028122 
L 354.568208 72.774679 
L 354.941813 51.190936 
L 355.315418 73.348121 
L 355.689023 53.500636 
L 356.062629 75.275526 
L 356.436234 55.810335 
L 356.809839 77.394077 
L 357.183444 62.94651 
L 357.930655 81.631181 
L 358.30426 65.447357 
L 358.677865 82.985143 
L 359.05147 65.638504 
L 359.425076 84.721399 
L 359.798681 67.565908 
L 360.172286 85.884214 
L 360.545891 68.91987 
L 360.919497 87.413394 
L 361.293102 71.611865 
L 361.666707 88.576208 
L 362.040312 76.820635 
L 362.413918 83.367438 
L 362.787523 84.530252 
L 363.161128 93.593831 
L 363.534733 79.512629 
L 363.908339 95.13894 
L 364.281944 79.894924 
L 364.655549 98.022082 
L 365.029154 82.985143 
L 365.40276 99.949486 
L 365.776365 89.149651 
L 366.14997 104.760032 
L 366.523575 95.90353 
L 366.897181 104.18659 
L 367.270786 105.349404 
L 367.644391 107.085661 
L 368.017996 114.588201 
L 368.391601 105.540552 
L 368.765207 117.104977 
L 369.138812 109.777655 
L 369.512417 119.796972 
L 369.886022 112.676726 
L 370.259628 122.88719 
L 370.633233 116.706753 
L 371.006838 126.550851 
L 371.380443 122.88719 
L 371.754049 129.625141 
L 372.127654 126.933146 
L 372.874864 135.025058 
L 373.24847 133.097654 
L 373.622075 138.878274 
L 373.99568 137.919351 
L 374.369285 142.73149 
L 374.742891 141.963714 
L 375.116496 145.047561 
L 375.490101 143.696785 
L 375.863706 145.240301 
L 376.237311 143.504044 
L 376.610917 144.082266 
L 376.984522 143.50723 
L 377.358127 144.660487 
L 377.731732 142.538749 
L 378.105338 144.660487 
L 378.478943 141.57664 
L 378.852548 143.116971 
L 379.226153 139.652422 
L 379.599759 141.3839 
L 379.973364 136.37902 
L 380.346969 138.88146 
L 380.720574 135.025058 
L 381.09418 136.187873 
L 381.467785 135.025058 
L 381.84139 135.025058 
L 382.214995 137.337944 
L 382.588601 132.906507 
L 382.962206 137.725017 
L 383.335811 133.479949 
L 383.709416 137.916165 
L 384.083021 133.862244 
L 384.456627 137.914572 
L 384.830232 133.479949 
L 385.203837 137.337944 
L 385.577442 134.642763 
L 385.951048 135.789649 
L 386.324653 135.789649 
L 386.698258 135.996725 
L 387.071863 138.878274 
L 387.445469 135.025058 
L 387.819074 139.071015 
L 388.192679 135.407353 
L 388.566284 139.652422 
L 388.93989 136.37902 
L 389.313495 139.841976 
L 389.6871 136.95087 
L 390.060705 138.687127 
L 390.807916 139.456495 
L 391.181521 141.3839 
L 391.555126 139.072607 
L 391.928731 142.541935 
L 392.302337 140.03631 
L 392.675942 143.116971 
L 393.049547 140.614531 
L 393.423152 144.275006 
L 393.796758 141.770973 
L 394.170363 144.660487 
L 394.543968 143.312897 
L 395.291179 145.042782 
L 395.664784 145.047561 
L 396.038389 146.780632 
L 396.411994 145.625782 
L 396.7856 147.358853 
L 397.159205 146.393558 
L 397.53281 148.131408 
L 397.906415 147.742741 
L 398.280021 148.902369 
L 398.653626 148.320962 
L 399.027231 149.286257 
L 399.400836 149.478998 
L 399.774442 150.251552 
L 400.148047 150.4427 
L 400.521652 151.213821 
L 400.895257 151.213821 
L 401.268862 151.792361 
L 401.642468 151.792361 
L 402.016073 152.562845 
L 402.389678 152.754789 
L 402.763283 152.754789 
L 403.136889 153.333328 
L 403.510494 153.527821 
L 404.257704 154.300694 
L 404.63131 154.101423 
L 405.004915 154.684582 
L 405.37852 154.490249 
L 405.752125 155.261211 
L 406.125731 154.682989 
L 406.499336 155.261211 
L 406.872941 154.684582 
L 407.246546 155.645098 
L 407.620152 155.06847 
L 407.993757 155.839432 
L 408.367362 154.684582 
L 408.740967 155.452358 
L 409.114572 155.066877 
L 409.488178 155.457137 
L 409.861783 154.679803 
L 410.235388 155.455544 
L 410.608993 154.487063 
L 410.982599 155.455544 
L 411.356204 154.295915 
L 411.729809 155.262803 
L 412.103414 154.490249 
L 412.47702 154.682989 
L 413.22423 154.679803 
L 413.597835 154.106202 
L 413.971441 154.682989 
L 414.345046 154.297508 
L 414.718651 154.490249 
L 415.092256 153.90932 
L 415.465862 154.297508 
L 415.839467 154.106202 
L 416.213072 154.490249 
L 416.586677 153.911868 
L 416.960282 154.103812 
L 417.333888 154.103812 
L 417.707493 153.914258 
L 418.454703 153.911868 
L 418.828309 153.719765 
L 419.201914 153.717376 
L 419.575519 153.527821 
L 419.949124 153.717376 
L 420.32273 153.525272 
L 420.696335 153.911868 
L 421.06994 153.335718 
L 421.443545 153.527821 
L 421.817151 153.333328 
L 422.190756 153.333328 
L 422.564361 153.525272 
L 422.937966 153.335718 
L 423.311572 153.330939 
L 423.685177 153.143774 
L 424.058782 153.525272 
L 424.432387 152.949281 
L 424.805992 153.333328 
L 424.805992 153.333328 
" clip-path="url(#p36c41afbcb)" style="fill: none; stroke: #ff7f0e; stroke-width: 1.5; stroke-linecap: square"/>
   </g>
   <g id="patch_3">
    <path d="M 50.565625 161.67875 
L 50.565625 33.21375 
" style="fill: none; stroke: #000000; stroke-width: 0.8; stroke-linejoin: miter; stroke-linecap: square"/>
   </g>
   <g id="patch_4">
    <path d="M 442.626962 161.67875 
L 442.626962 33.21375 
" style="fill: none; stroke: #000000; stroke-width: 0.8; stroke-linejoin: miter; stroke-linecap: square"/>
   </g>
   <g id="patch_5">
    <path d="M 50.565625 161.67875 
L 442.626962 161.67875 
" style="fill: none; stroke: #000000; stroke-width: 0.8; stroke-linejoin: miter; stroke-linecap: square"/>
   </g>
   <g id="patch_6">
    <path d="M 50.565625 33.21375 
L 442.626962 33.21375 
" style="fill: none; stroke: #000000; stroke-width: 0.8; stroke-linejoin: miter; stroke-linecap: square"/>
   </g>
   <g id="legend_1">
    <g id="patch_7">
     <path d="M 205.3377 156.67875 
L 287.854887 156.67875 
Q 289.854887 156.67875 289.854887 154.67875 
L 289.854887 126.3225 
Q 289.854887 124.3225 287.854887 124.3225 
L 205.3377 124.3225 
Q 203.3377 124.3225 203.3377 126.3225 
L 203.3377 154.67875 
Q 203.3377 156.67875 205.3377 156.67875 
z
" style="fill: #ffffff; opacity: 0.8; stroke: #cccccc; stroke-linejoin: miter"/>
    </g>
    <g id="line2d_23">
     <path d="M 207.3377 132.420937 
L 217.3377 132.420937 
L 227.3377 132.420937 
" style="fill: none; stroke: #1f77b4; stroke-width: 1.5; stroke-linecap: square"/>
    </g>
    <g id="text_6">
     <!-- Reference -->
     <g transform="translate(235.3377 135.920937)scale(0.1 -0.1)">
      <defs>
       <path id="DejaVuSans-52" d="M 2841 2188 
Q 3044 2119 3236 1894 
Q 3428 1669 3622 1275 
L 4263 0 
L 3584 0 
L 2988 1197 
Q 2756 1666 2539 1819 
Q 2322 1972 1947 1972 
L 1259 1972 
L 1259 0 
L 628 0 
L 628 4666 
L 2053 4666 
Q 2853 4666 3247 4331 
Q 3641 3997 3641 3322 
Q 3641 2881 3436 2590 
Q 3231 2300 2841 2188 
z
M 1259 4147 
L 1259 2491 
L 2053 2491 
Q 2509 2491 2742 2702 
Q 2975 2913 2975 3322 
Q 2975 3731 2742 3939 
Q 2509 4147 2053 4147 
L 1259 4147 
z
" transform="scale(0.015625)"/>
       <path id="DejaVuSans-66" d="M 2375 4863 
L 2375 4384 
L 1825 4384 
Q 1516 4384 1395 4259 
Q 1275 4134 1275 3809 
L 1275 3500 
L 2222 3500 
L 2222 3053 
L 1275 3053 
L 1275 0 
L 697 0 
L 697 3053 
L 147 3053 
L 147 3500 
L 697 3500 
L 697 3744 
Q 697 4328 969 4595 
Q 1241 4863 1831 4863 
L 2375 4863 
z
" transform="scale(0.015625)"/>
       <path id="DejaVuSans-63" d="M 3122 3366 
L 3122 2828 
Q 2878 2963 2633 3030 
Q 2388 3097 2138 3097 
Q 1578 3097 1268 2742 
Q 959 2388 959 1747 
Q 959 1106 1268 751 
Q 1578 397 2138 397 
Q 2388 397 2633 464 
Q 2878 531 3122 666 
L 3122 134 
Q 2881 22 2623 -34 
Q 2366 -91 2075 -91 
Q 1284 -91 818 406 
Q 353 903 353 1747 
Q 353 2603 823 3093 
Q 1294 3584 2113 3584 
Q 2378 3584 2631 3529 
Q 2884 3475 3122 3366 
z
" transform="scale(0.015625)"/>
      </defs>
      <use xlink:href="#DejaVuSans-52"/>
      <use xlink:href="#DejaVuSans-65" x="64.982422"/>
      <use xlink:href="#DejaVuSans-66" x="126.505859"/>
      <use xlink:href="#DejaVuSans-65" x="161.710938"/>
      <use xlink:href="#DejaVuSans-72" x="223.234375"/>
      <use xlink:href="#DejaVuSans-65" x="262.097656"/>
      <use xlink:href="#DejaVuSans-6e" x="323.621094"/>
      <use xlink:href="#DejaVuSans-63" x="387"/>
      <use xlink:href="#DejaVuSans-65" x="441.980469"/>
     </g>
    </g>
    <g id="line2d_24">
     <path d="M 207.3377 147.099062 
L 217.3377 147.099062 
L 227.3377 147.099062 
" style="fill: none; stroke: #ff7f0e; stroke-width: 1.5; stroke-linecap: square"/>
    </g>
    <g id="text_7">
     <!-- Estimated -->
     <g transform="translate(235.3377 150.599062)scale(0.1 -0.1)">
      <defs>
       <path id="DejaVuSans-45" d="M 628 4666 
L 3578 4666 
L 3578 4134 
L 1259 4134 
L 1259 2753 
L 3481 2753 
L 3481 2222 
L 1259 2222 
L 1259 531 
L 3634 531 
L 3634 0 
L 628 0 
L 628 4666 
z
" transform="scale(0.015625)"/>
       <path id="DejaVuSans-69" d="M 603 3500 
L 1178 3500 
L 1178 0 
L 603 0 
L 603 3500 
z
M 603 4863 
L 1178 4863 
L 1178 4134 
L 603 4134 
L 603 4863 
z
" transform="scale(0.015625)"/>
       <path id="DejaVuSans-64" d="M 2906 2969 
L 2906 4863 
L 3481 4863 
L 3481 0 
L 2906 0 
L 2906 525 
Q 2725 213 2448 61 
Q 2172 -91 1784 -91 
Q 1150 -91 751 415 
Q 353 922 353 1747 
Q 353 2572 751 3078 
Q 1150 3584 1784 3584 
Q 2172 3584 2448 3432 
Q 2725 3281 2906 2969 
z
M 947 1747 
Q 947 1113 1208 752 
Q 1469 391 1925 391 
Q 2381 391 2643 752 
Q 2906 1113 2906 1747 
Q 2906 2381 2643 2742 
Q 2381 3103 1925 3103 
Q 1469 3103 1208 2742 
Q 947 2381 947 1747 
z
" transform="scale(0.015625)"/>
      </defs>
      <use xlink:href="#DejaVuSans-45"/>
      <use xlink:href="#DejaVuSans-73" x="63.183594"/>
      <use xlink:href="#DejaVuSans-74" x="115.283203"/>
      <use xlink:href="#DejaVuSans-69" x="154.492188"/>
      <use xlink:href="#DejaVuSans-6d" x="182.275391"/>
      <use xlink:href="#DejaVuSans-61" x="279.6875"/>
      <use xlink:href="#DejaVuSans-74" x="340.966797"/>
      <use xlink:href="#DejaVuSans-65" x="380.175781"/>
      <use xlink:href="#DejaVuSans-64" x="441.699219"/>
     </g>
    </g>
   </g>
  </g>
  <g id="axes_2">
   <g id="patch_8">
    <path d="M 50.565625 304.44375 
L 442.626962 304.44375 
L 442.626962 175.97875 
L 50.565625 175.97875 
z
" style="fill: #ffffff"/>
   </g>
   <g id="matplotlib.axis_3">
    <g id="xtick_7">
     <g id="line2d_25">
      <path d="M 68.386595 304.44375 
L 68.386595 175.97875 
" clip-path="url(#p0ae4c2252e)" style="fill: none; stroke: #b0b0b0; stroke-width: 0.8; stroke-linecap: square"/>
     </g>
     <g id="line2d_26">
      <g>
       <use xlink:href="#m745dcbfd12" x="68.386595" y="304.44375" style="stroke: #000000; stroke-width: 0.8"/>
      </g>
     </g>
     <g id="text_8">
      <!-- 0.0 -->
      <g transform="translate(60.435032 319.042187)scale(0.1 -0.1)">
       <use xlink:href="#DejaVuSans-30"/>
       <use xlink:href="#DejaVuSans-2e" x="63.623047"/>
       <use xlink:href="#DejaVuSans-30" x="95.410156"/>
      </g>
     </g>
    </g>
    <g id="xtick_8">
     <g id="line2d_27">
      <path d="M 143.107643 304.44375 
L 143.107643 175.97875 
" clip-path="url(#p0ae4c2252e)" style="fill: none; stroke: #b0b0b0; stroke-width: 0.8; stroke-linecap: square"/>
     </g>
     <g id="line2d_28">
      <g>
       <use xlink:href="#m745dcbfd12" x="143.107643" y="304.44375" style="stroke: #000000; stroke-width: 0.8"/>
      </g>
     </g>
     <g id="text_9">
      <!-- 0.2 -->
      <g transform="translate(135.15608 319.042187)scale(0.1 -0.1)">
       <use xlink:href="#DejaVuSans-30"/>
       <use xlink:href="#DejaVuSans-2e" x="63.623047"/>
       <use xlink:href="#DejaVuSans-32" x="95.410156"/>
      </g>
     </g>
    </g>
    <g id="xtick_9">
     <g id="line2d_29">
      <path d="M 217.82869 304.44375 
L 217.82869 175.97875 
" clip-path="url(#p0ae4c2252e)" style="fill: none; stroke: #b0b0b0; stroke-width: 0.8; stroke-linecap: square"/>
     </g>
     <g id="line2d_30">
      <g>
       <use xlink:href="#m745dcbfd12" x="217.82869" y="304.44375" style="stroke: #000000; stroke-width: 0.8"/>
      </g>
     </g>
     <g id="text_10">
      <!-- 0.4 -->
      <g transform="translate(209.877128 319.042187)scale(0.1 -0.1)">
       <use xlink:href="#DejaVuSans-30"/>
       <use xlink:href="#DejaVuSans-2e" x="63.623047"/>
       <use xlink:href="#DejaVuSans-34" x="95.410156"/>
      </g>
     </g>
    </g>
    <g id="xtick_10">
     <g id="line2d_31">
      <path d="M 292.549738 304.44375 
L 292.549738 175.97875 
" clip-path="url(#p0ae4c2252e)" style="fill: none; stroke: #b0b0b0; stroke-width: 0.8; stroke-linecap: square"/>
     </g>
     <g id="line2d_32">
      <g>
       <use xlink:href="#m745dcbfd12" x="292.549738" y="304.44375" style="stroke: #000000; stroke-width: 0.8"/>
      </g>
     </g>
     <g id="text_11">
      <!-- 0.6 -->
      <g transform="translate(284.598176 319.042187)scale(0.1 -0.1)">
       <use xlink:href="#DejaVuSans-30"/>
       <use xlink:href="#DejaVuSans-2e" x="63.623047"/>
       <use xlink:href="#DejaVuSans-36" x="95.410156"/>
      </g>
     </g>
    </g>
    <g id="xtick_11">
     <g id="line2d_33">
      <path d="M 367.270786 304.44375 
L 367.270786 175.97875 
" clip-path="url(#p0ae4c2252e)" style="fill: none; stroke: #b0b0b0; stroke-width: 0.8; stroke-linecap: square"/>
     </g>
     <g id="line2d_34">
      <g>
       <use xlink:href="#m745dcbfd12" x="367.270786" y="304.44375" style="stroke: #000000; stroke-width: 0.8"/>
      </g>
     </g>
     <g id="text_12">
      <!-- 0.8 -->
      <g transform="translate(359.319223 319.042187)scale(0.1 -0.1)">
       <defs>
        <path id="DejaVuSans-38" d="M 2034 2216 
Q 1584 2216 1326 1975 
Q 1069 1734 1069 1313 
Q 1069 891 1326 650 
Q 1584 409 2034 409 
Q 2484 409 2743 651 
Q 3003 894 3003 1313 
Q 3003 1734 2745 1975 
Q 2488 2216 2034 2216 
z
M 1403 2484 
Q 997 2584 770 2862 
Q 544 3141 544 3541 
Q 544 4100 942 4425 
Q 1341 4750 2034 4750 
Q 2731 4750 3128 4425 
Q 3525 4100 3525 3541 
Q 3525 3141 3298 2862 
Q 3072 2584 2669 2484 
Q 3125 2378 3379 2068 
Q 3634 1759 3634 1313 
Q 3634 634 3220 271 
Q 2806 -91 2034 -91 
Q 1263 -91 848 271 
Q 434 634 434 1313 
Q 434 1759 690 2068 
Q 947 2378 1403 2484 
z
M 1172 3481 
Q 1172 3119 1398 2916 
Q 1625 2713 2034 2713 
Q 2441 2713 2670 2916 
Q 2900 3119 2900 3481 
Q 2900 3844 2670 4047 
Q 2441 4250 2034 4250 
Q 1625 4250 1398 4047 
Q 1172 3844 1172 3481 
z
" transform="scale(0.015625)"/>
       </defs>
       <use xlink:href="#DejaVuSans-30"/>
       <use xlink:href="#DejaVuSans-2e" x="63.623047"/>
       <use xlink:href="#DejaVuSans-38" x="95.410156"/>
      </g>
     </g>
    </g>
    <g id="xtick_12">
     <g id="line2d_35">
      <path d="M 441.991833 304.44375 
L 441.991833 175.97875 
" clip-path="url(#p0ae4c2252e)" style="fill: none; stroke: #b0b0b0; stroke-width: 0.8; stroke-linecap: square"/>
     </g>
     <g id="line2d_36">
      <g>
       <use xlink:href="#m745dcbfd12" x="441.991833" y="304.44375" style="stroke: #000000; stroke-width: 0.8"/>
      </g>
     </g>
     <g id="text_13">
      <!-- 1.0 -->
      <g transform="translate(434.040271 319.042187)scale(0.1 -0.1)">
       <defs>
        <path id="DejaVuSans-31" d="M 794 531 
L 1825 531 
L 1825 4091 
L 703 3866 
L 703 4441 
L 1819 4666 
L 2450 4666 
L 2450 531 
L 3481 531 
L 3481 0 
L 794 0 
L 794 531 
z
" transform="scale(0.015625)"/>
       </defs>
       <use xlink:href="#DejaVuSans-31"/>
       <use xlink:href="#DejaVuSans-2e" x="63.623047"/>
       <use xlink:href="#DejaVuSans-30" x="95.410156"/>
      </g>
     </g>
    </g>
    <g id="text_14">
     <!-- Time [s] -->
     <g transform="translate(226.267387 332.720312)scale(0.1 -0.1)">
      <defs>
       <path id="DejaVuSans-54" d="M -19 4666 
L 3928 4666 
L 3928 4134 
L 2272 4134 
L 2272 0 
L 1638 0 
L 1638 4134 
L -19 4134 
L -19 4666 
z
" transform="scale(0.015625)"/>
      </defs>
      <use xlink:href="#DejaVuSans-54"/>
      <use xlink:href="#DejaVuSans-69" x="57.958984"/>
      <use xlink:href="#DejaVuSans-6d" x="85.742188"/>
      <use xlink:href="#DejaVuSans-65" x="183.154297"/>
      <use xlink:href="#DejaVuSans-20" x="244.677734"/>
      <use xlink:href="#DejaVuSans-5b" x="276.464844"/>
      <use xlink:href="#DejaVuSans-73" x="315.478516"/>
      <use xlink:href="#DejaVuSans-5d" x="367.578125"/>
     </g>
    </g>
   </g>
   <g id="matplotlib.axis_4">
    <g id="ytick_5">
     <g id="line2d_37">
      <path d="M 50.565625 284.424974 
L 442.626962 284.424974 
" clip-path="url(#p0ae4c2252e)" style="fill: none; stroke: #b0b0b0; stroke-width: 0.8; stroke-linecap: square"/>
     </g>
     <g id="line2d_38">
      <g>
       <use xlink:href="#ma43965804e" x="50.565625" y="284.424974" style="stroke: #000000; stroke-width: 0.8"/>
      </g>
     </g>
     <g id="text_15">
      <!-- −2 -->
      <g transform="translate(28.823438 288.224193)scale(0.1 -0.1)">
       <defs>
        <path id="DejaVuSans-2212" d="M 678 2272 
L 4684 2272 
L 4684 1741 
L 678 1741 
L 678 2272 
z
" transform="scale(0.015625)"/>
       </defs>
       <use xlink:href="#DejaVuSans-2212"/>
       <use xlink:href="#DejaVuSans-32" x="83.789062"/>
      </g>
     </g>
    </g>
    <g id="ytick_6">
     <g id="line2d_39">
      <path d="M 50.565625 262.234899 
L 442.626962 262.234899 
" clip-path="url(#p0ae4c2252e)" style="fill: none; stroke: #b0b0b0; stroke-width: 0.8; stroke-linecap: square"/>
     </g>
     <g id="line2d_40">
      <g>
       <use xlink:href="#ma43965804e" x="50.565625" y="262.234899" style="stroke: #000000; stroke-width: 0.8"/>
      </g>
     </g>
     <g id="text_16">
      <!-- −1 -->
      <g transform="translate(28.823438 266.034118)scale(0.1 -0.1)">
       <use xlink:href="#DejaVuSans-2212"/>
       <use xlink:href="#DejaVuSans-31" x="83.789062"/>
      </g>
     </g>
    </g>
    <g id="ytick_7">
     <g id="line2d_41">
      <path d="M 50.565625 240.044824 
L 442.626962 240.044824 
" clip-path="url(#p0ae4c2252e)" style="fill: none; stroke: #b0b0b0; stroke-width: 0.8; stroke-linecap: square"/>
     </g>
     <g id="line2d_42">
      <g>
       <use xlink:href="#ma43965804e" x="50.565625" y="240.044824" style="stroke: #000000; stroke-width: 0.8"/>
      </g>
     </g>
     <g id="text_17">
      <!-- 0 -->
      <g transform="translate(37.203125 243.844043)scale(0.1 -0.1)">
       <use xlink:href="#DejaVuSans-30"/>
      </g>
     </g>
    </g>
    <g id="ytick_8">
     <g id="line2d_43">
      <path d="M 50.565625 217.85475 
L 442.626962 217.85475 
" clip-path="url(#p0ae4c2252e)" style="fill: none; stroke: #b0b0b0; stroke-width: 0.8; stroke-linecap: square"/>
     </g>
     <g id="line2d_44">
      <g>
       <use xlink:href="#ma43965804e" x="50.565625" y="217.85475" style="stroke: #000000; stroke-width: 0.8"/>
      </g>
     </g>
     <g id="text_18">
      <!-- 1 -->
      <g transform="translate(37.203125 221.653968)scale(0.1 -0.1)">
       <use xlink:href="#DejaVuSans-31"/>
      </g>
     </g>
    </g>
    <g id="ytick_9">
     <g id="line2d_45">
      <path d="M 50.565625 195.664675 
L 442.626962 195.664675 
" clip-path="url(#p0ae4c2252e)" style="fill: none; stroke: #b0b0b0; stroke-width: 0.8; stroke-linecap: square"/>
     </g>
     <g id="line2d_46">
      <g>
       <use xlink:href="#ma43965804e" x="50.565625" y="195.664675" style="stroke: #000000; stroke-width: 0.8"/>
      </g>
     </g>
     <g id="text_19">
      <!-- 2 -->
      <g transform="translate(37.203125 199.463894)scale(0.1 -0.1)">
       <use xlink:href="#DejaVuSans-32"/>
      </g>
     </g>
    </g>
    <g id="text_20">
     <!-- rot. vel. [rad/s] -->
     <g transform="translate(22.74375 277.439375)rotate(-90)scale(0.1 -0.1)">
      <defs>
       <path id="DejaVuSans-6f" d="M 1959 3097 
Q 1497 3097 1228 2736 
Q 959 2375 959 1747 
Q 959 1119 1226 758 
Q 1494 397 1959 397 
Q 2419 397 2687 759 
Q 2956 1122 2956 1747 
Q 2956 2369 2687 2733 
Q 2419 3097 1959 3097 
z
M 1959 3584 
Q 2709 3584 3137 3096 
Q 3566 2609 3566 1747 
Q 3566 888 3137 398 
Q 2709 -91 1959 -91 
Q 1206 -91 779 398 
Q 353 888 353 1747 
Q 353 2609 779 3096 
Q 1206 3584 1959 3584 
z
" transform="scale(0.015625)"/>
      </defs>
      <use xlink:href="#DejaVuSans-72"/>
      <use xlink:href="#DejaVuSans-6f" x="38.863281"/>
      <use xlink:href="#DejaVuSans-74" x="100.044922"/>
      <use xlink:href="#DejaVuSans-2e" x="139.253906"/>
      <use xlink:href="#DejaVuSans-20" x="171.041016"/>
      <use xlink:href="#DejaVuSans-76" x="202.828125"/>
      <use xlink:href="#DejaVuSans-65" x="262.007812"/>
      <use xlink:href="#DejaVuSans-6c" x="323.53125"/>
      <use xlink:href="#DejaVuSans-2e" x="351.314453"/>
      <use xlink:href="#DejaVuSans-20" x="383.101562"/>
      <use xlink:href="#DejaVuSans-5b" x="414.888672"/>
      <use xlink:href="#DejaVuSans-72" x="453.902344"/>
      <use xlink:href="#DejaVuSans-61" x="495.015625"/>
      <use xlink:href="#DejaVuSans-64" x="556.294922"/>
      <use xlink:href="#DejaVuSans-2f" x="619.771484"/>
      <use xlink:href="#DejaVuSans-73" x="653.462891"/>
      <use xlink:href="#DejaVuSans-5d" x="705.5625"/>
     </g>
    </g>
   </g>
   <g id="line2d_47">
    <path d="M 68.386595 240.044824 
L 424.805992 240.044824 
L 424.805992 240.044824 
" clip-path="url(#p0ae4c2252e)" style="fill: none; stroke: #1f77b4; stroke-width: 1.5; stroke-linecap: square"/>
   </g>
   <g id="line2d_48">
    <path d="M 68.386595 240.070099 
L 69.133805 240.070099 
L 69.881016 240.093709 
L 70.628226 239.952026 
L 71.001832 240.093709 
L 72.869858 240.046478 
L 73.243463 240.070099 
L 73.617068 238.912909 
L 73.990673 232.986162 
L 74.364279 231.734641 
L 75.111489 244.886699 
L 75.485094 246.894901 
L 75.8587 246.965909 
L 76.232305 246.020612 
L 76.60591 244.556067 
L 76.979515 243.659588 
L 77.353121 243.399964 
L 77.726726 243.399964 
L 78.473936 243.069332 
L 78.847542 243.612988 
L 79.594752 247.059107 
L 80.715568 255.114104 
L 81.462778 263.166882 
L 81.836383 263.344403 
L 82.583594 253.483134 
L 82.957199 252.892878 
L 83.330804 257.734752 
L 83.70441 266.406633 
L 84.078015 269.335723 
L 84.45162 266.739484 
L 85.198831 256.483232 
L 85.946041 246.659686 
L 86.319646 242.242751 
L 87.066857 217.588469 
L 87.814067 195.731245 
L 88.187673 188.38633 
L 88.561278 187.276827 
L 89.682093 199.303847 
L 90.055699 200.635252 
L 91.176514 194.399841 
L 91.923725 205.295167 
L 92.29733 207.048183 
L 93.044541 201.500665 
L 93.418146 209.866323 
L 93.791751 228.332903 
L 94.538962 250.034796 
L 95.286172 259.931569 
L 95.659777 265.49684 
L 96.033383 273.795928 
L 96.406988 277.23539 
L 97.154198 267.671468 
L 97.527803 269.868285 
L 97.901409 270.223326 
L 98.648619 265.29713 
L 99.022224 255.562344 
L 99.39583 239.290806 
L 99.769435 212.1519 
L 100.14304 196.751989 
L 100.516645 188.852322 
L 100.890251 189.340504 
L 101.263856 196.308187 
L 102.011066 215.746693 
L 102.758277 227.105792 
L 103.505487 238.487969 
L 103.879093 242.31265 
L 104.626303 257.710343 
L 104.999908 257.262103 
L 105.373514 254.168807 
L 106.120724 260.899057 
L 106.494329 261.631329 
L 106.867934 266.295683 
L 107.24154 269.224773 
L 107.615145 264.919898 
L 107.98875 263.300023 
L 108.362355 265.186179 
L 108.735961 263.189072 
L 109.483171 247.720371 
L 109.856776 242.71429 
L 110.230382 239.810275 
L 110.603987 237.921012 
L 110.977592 233.174777 
L 111.351197 232.63112 
L 111.724803 238.015542 
L 112.098408 238.747593 
L 112.845618 226.988184 
L 113.219224 223.941487 
L 113.592829 224.034685 
L 113.966434 227.034784 
L 114.340039 231.190985 
L 114.713644 232.748728 
L 115.08725 237.519594 
L 115.460855 238.015542 
L 115.83446 238.298909 
L 116.208065 241.180069 
L 116.581671 242.219008 
L 116.955276 245.006525 
L 117.328881 244.911108 
L 117.702486 239.786754 
L 118.076092 240.306224 
L 118.449697 245.525773 
L 119.570513 237.093544 
L 119.944118 235.535801 
L 120.317723 240.282702 
L 120.691328 242.195486 
L 121.438539 237.235561 
L 121.812144 236.574297 
L 122.185749 244.107827 
L 122.559354 248.501462 
L 122.93296 246.400062 
L 123.306565 247.059107 
L 123.68017 242.7387 
L 124.053775 235.913033 
L 124.427381 237.850226 
L 124.800986 243.659588 
L 125.174591 246.965909 
L 125.548196 244.438459 
L 126.669012 223.373421 
L 127.042617 212.218471 
L 127.416223 210.154794 
L 127.789828 212.751032 
L 128.163433 214.304338 
L 128.537038 218.484948 
L 129.284249 228.734543 
L 129.657854 225.335024 
L 130.031459 224.201111 
L 130.405064 232.442505 
L 130.77867 237.355387 
L 131.899485 256.907062 
L 132.273091 266.495394 
L 132.646696 265.51903 
L 133.020301 258.229591 
L 133.393906 254.47503 
L 133.767512 257.120087 
L 134.514722 264.254196 
L 134.888327 264.320766 
L 135.261933 261.442714 
L 135.635538 248.312846 
L 136.009143 241.888376 
L 136.382748 243.069332 
L 137.129959 246.848301 
L 137.877169 237.495185 
L 138.250774 237.66161 
L 138.997985 233.811632 
L 139.37159 235.040963 
L 139.745195 242.219008 
L 140.118801 246.138219 
L 140.492406 246.446661 
L 140.866011 247.036917 
L 141.239616 249.539957 
L 141.613222 245.454765 
L 141.986827 243.588579 
L 142.360432 246.209227 
L 142.734037 247.059107 
L 143.107643 246.91931 
L 143.481248 244.722492 
L 143.854853 243.99022 
L 144.228458 245.312748 
L 145.349274 240.707642 
L 145.722879 236.929338 
L 146.096485 235.56021 
L 146.47009 233.505409 
L 146.843695 230.600729 
L 147.2173 231.048968 
L 147.590905 232.276079 
L 147.964511 235.489202 
L 148.338116 236.456689 
L 148.711721 235.134161 
L 149.458932 234.969954 
L 149.832537 236.292483 
L 150.206142 229.633241 
L 150.579747 215.835453 
L 150.953353 212.640082 
L 151.700563 219.124022 
L 152.447774 215.635742 
L 153.568589 228.04887 
L 154.3158 237.968277 
L 154.689405 239.385335 
L 155.06301 244.8401 
L 155.436615 246.752884 
L 155.810221 253.081493 
L 156.183826 255.868567 
L 156.931036 259.434512 
L 157.304642 262.922792 
L 158.051852 277.568241 
L 158.425457 277.523861 
L 158.799063 275.082953 
L 159.172668 266.118162 
L 159.546273 253.742758 
L 159.919878 249.799581 
L 160.667089 256.458823 
L 161.040694 255.868567 
L 161.414299 253.649559 
L 161.787905 252.892878 
L 162.16151 248.501462 
L 162.90872 230.718336 
L 163.282325 228.805552 
L 163.655931 231.475018 
L 164.403141 242.148222 
L 164.776746 243.801604 
L 165.150352 242.596683 
L 165.523957 238.487969 
L 165.897562 238.842122 
L 166.271167 243.424373 
L 166.644773 244.132236 
L 167.018378 244.154426 
L 167.391983 238.535012 
L 167.765588 238.086328 
L 168.139194 240.920223 
L 168.886404 237.401987 
L 169.260009 234.142265 
L 169.633615 233.836042 
L 170.00722 236.811731 
L 170.75443 241.463436 
L 171.128035 240.117319 
L 171.501641 235.134161 
L 171.875246 234.120074 
L 172.248851 236.101648 
L 172.622456 237.000346 
L 172.996062 237.424177 
L 173.369667 237.66161 
L 173.743272 242.03017 
L 174.116877 243.755005 
L 175.237693 214.659379 
L 175.611298 210.376694 
L 175.984904 211.663719 
L 176.358509 217.078097 
L 176.732114 219.618861 
L 177.105719 217.721609 
L 177.479325 216.545535 
L 177.85293 220.138108 
L 178.973746 236.101648 
L 179.347351 238.228123 
L 179.720956 248.17083 
L 180.094561 253.176911 
L 180.468166 247.957805 
L 180.841772 248.643478 
L 181.588982 257.144496 
L 182.336193 269.535434 
L 182.709798 275.881795 
L 183.083403 274.616961 
L 183.457008 265.43027 
L 183.830614 260.191193 
L 184.951429 252.799679 
L 186.072245 238.912909 
L 186.819456 223.892669 
L 187.193061 223.870479 
L 187.566666 227.57844 
L 188.313876 241.180069 
L 188.687482 244.8401 
L 189.061087 243.164749 
L 189.434692 236.41009 
L 189.808297 233.669616 
L 190.181903 238.842122 
L 190.555508 246.280235 
L 190.929113 249.963788 
L 191.302718 246.823892 
L 191.676324 241.062017 
L 192.049929 238.912909 
L 192.423534 237.590602 
L 192.797139 237.992021 
L 193.170745 237.992021 
L 193.54435 231.969856 
L 193.917955 230.505311 
L 194.29156 234.213273 
L 194.665166 241.368906 
L 195.038771 245.714389 
L 195.412376 242.219008 
L 195.785981 240.070099 
L 196.159586 243.612988 
L 196.533192 243.186939 
L 196.906797 240.306224 
L 198.027613 238.865644 
L 198.774823 225.736664 
L 199.148428 225.616838 
L 199.895639 219.927303 
L 200.642849 228.144287 
L 201.016455 229.111775 
L 201.39006 220.091509 
L 201.763665 214.592809 
L 202.13727 216.478965 
L 202.510876 219.927303 
L 203.258086 231.945447 
L 203.631691 235.819834 
L 204.005296 246.138219 
L 204.378902 248.854284 
L 204.752507 247.32095 
L 205.126112 247.886797 
L 205.499717 253.152502 
L 206.246928 267.693658 
L 206.620533 272.176053 
L 206.994138 272.442334 
L 207.367744 266.917005 
L 207.741349 267.671468 
L 208.114954 271.798821 
L 208.488559 270.667128 
L 208.862165 262.856221 
L 209.23577 251.783374 
L 209.609375 245.927413 
L 209.98298 242.785299 
L 210.356586 237.66161 
L 210.730191 230.600729 
L 211.477401 228.781142 
L 212.224612 235.418194 
L 212.598217 235.322777 
L 212.971822 238.582277 
L 213.719033 232.347087 
L 214.466243 240.211783 
L 214.839848 240.872958 
L 215.213454 240.495061 
L 215.587059 241.250855 
L 215.960664 241.39265 
L 216.334269 237.70821 
L 216.707875 232.65553 
L 217.08148 231.333001 
L 217.455085 231.945447 
L 218.202296 241.864854 
L 218.949506 246.116029 
L 219.696717 238.322653 
L 220.070322 241.72306 
L 220.443927 242.973914 
L 220.817532 243.588579 
L 221.191137 242.621092 
L 221.564743 237.968277 
L 221.938348 239.149011 
L 222.685558 232.986162 
L 223.432769 229.655431 
L 224.179979 220.209117 
L 224.553585 215.12537 
L 224.92719 218.935406 
L 225.300795 220.233526 
L 225.6744 220.657356 
L 226.421611 213.483305 
L 226.795216 218.274142 
L 227.168821 225.54583 
L 228.289637 241.156325 
L 228.663242 241.581487 
L 229.036847 243.683997 
L 229.410453 247.178933 
L 230.157663 257.475128 
L 230.904874 270.556177 
L 231.278479 268.204029 
L 231.652084 269.202583 
L 232.025689 276.658448 
L 232.399295 281.473694 
L 232.7729 279.853819 
L 233.146505 272.531094 
L 233.893716 252.657663 
L 234.640926 247.438557 
L 235.014531 244.864509 
L 235.761742 234.519496 
L 236.135347 230.52972 
L 236.508952 230.483121 
L 236.882557 232.961753 
L 237.256163 230.647328 
L 237.629768 229.986064 
L 238.003373 234.284281 
L 238.376978 235.702227 
L 239.124189 233.45881 
L 239.497794 233.409992 
L 239.871399 236.079458 
L 240.245005 237.164553 
L 240.61861 233.623017 
L 240.992215 231.80565 
L 241.36582 225.239607 
L 241.739426 225.215197 
L 242.860241 244.604885 
L 243.607452 236.527698 
L 243.981057 240.046478 
L 244.354662 242.148222 
L 244.728267 240.400753 
L 245.101873 242.973914 
L 245.475478 244.769091 
L 245.849083 241.746803 
L 246.222688 240.282702 
L 246.596294 233.103769 
L 246.969899 228.971977 
L 247.343504 229.773039 
L 247.717109 234.166674 
L 248.090715 234.472897 
L 248.46432 231.80565 
L 249.21153 222.760975 
L 249.585136 220.280125 
L 250.332346 222.523541 
L 251.079557 221.933285 
L 251.453162 223.799471 
L 251.826767 227.671639 
L 252.200372 237.188962 
L 252.573978 240.77865 
L 252.947583 241.39265 
L 253.321188 240.967488 
L 253.694793 242.525675 
L 254.068398 243.164749 
L 254.442004 248.146421 
L 254.815609 256.765046 
L 255.562819 265.696551 
L 255.936425 271.976342 
L 256.683635 277.790142 
L 257.430846 280.1201 
L 257.804451 276.880349 
L 258.178056 266.628534 
L 258.925267 240.14093 
L 259.298872 235.913033 
L 259.672477 236.811731 
L 260.419688 241.676017 
L 260.793293 240.495061 
L 261.166898 234.284281 
L 261.540503 231.144385 
L 262.287714 238.771336 
L 262.661319 239.881173 
L 263.034924 240.329967 
L 263.782135 234.945545 
L 264.15574 234.284281 
L 264.529345 235.251768 
L 264.90295 233.316794 
L 265.276556 229.821857 
L 265.650161 230.671737 
L 266.023766 235.606809 
L 266.397371 239.007438 
L 266.770977 239.810275 
L 267.144582 235.371595 
L 267.518187 233.740624 
L 267.891792 235.15857 
L 268.265398 237.897491 
L 268.639003 239.739489 
L 269.012608 238.983695 
L 269.386213 237.921012 
L 269.759818 234.661512 
L 270.133424 233.953649 
L 270.507029 234.732521 
L 271.254239 223.562037 
L 271.627845 220.186927 
L 272.375055 218.533766 
L 272.74866 222.310517 
L 273.122266 228.144287 
L 273.495871 225.736664 
L 273.869476 220.49315 
L 274.243081 220.280125 
L 274.616687 219.053014 
L 274.990292 219.856294 
L 275.363897 221.602653 
L 275.737502 220.728364 
L 276.111108 228.521519 
L 276.484713 232.466914 
L 276.858318 230.12808 
L 277.231923 233.196967 
L 277.979134 250.460846 
L 278.352739 253.270109 
L 278.726344 249.84618 
L 279.099949 245.217331 
L 279.473555 250.602862 
L 279.84716 262.4568 
L 280.220765 269.735145 
L 280.59437 274.816672 
L 280.967976 275.282663 
L 281.715186 273.307747 
L 282.088791 273.307747 
L 282.462397 270.511797 
L 283.209607 252.846279 
L 283.583212 249.42235 
L 283.956818 251.594758 
L 284.330423 251.641358 
L 284.704028 250.29442 
L 285.077633 249.610966 
L 285.451238 246.517669 
L 285.824844 242.337059 
L 286.198449 243.399964 
L 286.572054 243.848203 
L 287.319265 233.150368 
L 287.69287 231.308592 
L 288.066475 237.472995 
L 288.44008 240.070099 
L 289.187291 229.844047 
L 289.560896 230.057072 
L 290.308107 237.071354 
L 290.681712 239.12549 
L 291.055317 235.418194 
L 291.428922 235.251768 
L 292.549738 239.550651 
L 292.923343 238.629541 
L 293.296949 235.15857 
L 293.670554 234.024657 
L 294.044159 233.45881 
L 294.417764 234.685921 
L 294.791369 228.852151 
L 295.53858 223.184806 
L 295.912185 221.249831 
L 296.28579 221.31862 
L 296.659396 225.523639 
L 297.406606 229.491225 
L 297.780211 228.073279 
L 298.153817 225.523639 
L 298.527422 224.791367 
L 298.901027 225.004392 
L 299.648238 229.562233 
L 300.021843 228.332903 
L 300.395448 232.040864 
L 300.769053 227.789246 
L 301.142659 225.805453 
L 301.516264 227.412015 
L 302.263474 234.827938 
L 302.637079 240.613334 
L 303.010685 243.777195 
L 303.38429 248.619069 
L 303.757895 251.947581 
L 304.1315 257.333112 
L 304.878711 273.529647 
L 305.252316 282.250347 
L 305.625921 282.960429 
L 305.999527 278.611174 
L 306.373132 278.722125 
L 306.746737 278.455844 
L 307.120342 276.547497 
L 307.493948 271.887582 
L 308.614763 242.856307 
L 308.988369 238.062807 
L 309.361974 238.842122 
L 309.735579 241.345385 
L 310.109184 242.71429 
L 310.482789 240.400753 
L 310.856395 236.669714 
L 311.97721 231.82784 
L 312.350816 232.844145 
L 312.724421 233.481 
L 313.098026 232.986162 
L 313.471631 232.890744 
L 313.845237 235.276177 
L 314.218842 238.936652 
L 314.592447 238.251644 
L 314.966052 234.661512 
L 315.713263 243.115931 
L 316.086868 242.71429 
L 316.460473 241.982906 
L 316.834079 240.448018 
L 317.581289 236.552107 
L 317.954894 231.215394 
L 318.328499 232.324897 
L 318.702105 235.56021 
L 319.07571 232.442505 
L 319.449315 227.838064 
L 319.82292 224.67376 
L 320.196526 224.343128 
L 320.943736 225.144189 
L 321.317341 228.02668 
L 321.690947 227.318817 
L 322.064552 224.933384 
L 322.438157 227.57844 
L 322.811762 227.223399 
L 323.185368 225.215197 
L 323.558973 224.649351 
L 323.932578 225.239607 
L 324.306183 226.184904 
L 324.679789 226.750751 
L 325.053394 225.050991 
L 325.426999 222.359335 
L 325.800604 223.373421 
L 326.17421 229.349208 
L 326.547815 230.458712 
L 326.92142 228.805552 
L 327.66863 244.769091 
L 328.042236 250.767069 
L 328.789446 255.633352 
L 329.163051 255.466926 
L 329.536657 258.065384 
L 329.910262 259.811743 
L 330.283867 263.122502 
L 330.657472 269.846095 
L 331.031078 268.825351 
L 332.151893 255.420327 
L 332.525499 252.160605 
L 332.899104 245.337157 
L 333.272709 247.602764 
L 333.646314 251.075511 
L 334.01992 249.728573 
L 334.393525 247.862388 
L 334.76713 244.746901 
L 335.140735 238.535012 
L 335.51434 237.000346 
L 335.887946 234.781339 
L 336.261551 237.495185 
L 336.635156 241.486957 
L 337.008761 239.408857 
L 337.382367 235.063153 
L 337.755972 237.637201 
L 338.129577 241.864854 
L 338.503182 244.036819 
L 339.250393 238.487969 
L 339.623998 243.186939 
L 339.997603 245.689979 
L 340.371209 245.099723 
L 340.744814 243.164749 
L 341.118419 238.133593 
L 341.492024 235.393785 
L 341.86563 233.576418 
L 342.239235 233.527599 
L 342.61284 239.692224 
L 342.986445 239.668703 
L 344.107261 222.807574 
L 344.480866 223.162616 
L 344.854471 225.783263 
L 345.228077 225.193007 
L 345.975287 230.341105 
L 346.348892 230.813753 
L 346.722498 230.764935 
L 347.096103 229.892865 
L 347.469708 230.174679 
L 348.216919 222.028703 
L 348.590524 223.255814 
L 348.964129 222.430343 
L 349.337734 221.272021 
L 349.71134 221.649252 
L 350.084945 221.130005 
L 350.45855 219.736468 
L 350.832155 223.351231 
L 351.579366 234.355289 
L 351.952971 234.921136 
L 352.326576 234.590504 
L 352.700181 236.740722 
L 353.073787 241.439693 
L 353.447392 243.872612 
L 353.820997 245.337157 
L 354.194602 247.769189 
L 356.062629 271.865392 
L 356.436234 273.307747 
L 356.809839 270.955599 
L 357.183444 269.402293 
L 357.55705 270.889028 
L 357.930655 273.862498 
L 358.30426 274.46163 
L 358.677865 270.289896 
L 359.05147 267.982129 
L 359.425076 260.308801 
L 359.798681 250.29442 
L 360.172286 244.107827 
L 360.545891 242.856307 
L 361.293102 247.083516 
L 361.666707 246.280235 
L 362.787523 235.134161 
L 363.161128 232.748728 
L 363.534733 232.016455 
L 363.908339 227.059193 
L 364.281944 225.381623 
L 364.655549 226.018478 
L 365.029154 225.971879 
L 365.40276 224.602751 
L 365.776365 223.657454 
L 366.14997 223.138206 
L 366.897181 218.249733 
L 367.270786 219.572261 
L 368.017996 236.904929 
L 368.391601 238.346174 
L 368.765207 239.03096 
L 369.138812 242.29046 
L 369.886022 262.967172 
L 370.259628 270.911218 
L 370.633233 273.751548 
L 371.006838 278.256133 
L 371.380443 284.713445 
L 371.754049 293.922326 
L 372.127654 298.227201 
L 372.501259 298.604432 
L 372.874864 296.762656 
L 373.24847 293.678235 
L 374.742891 276.303407 
L 375.116496 264.320766 
L 375.863706 223.988086 
L 376.237311 211.286488 
L 376.610917 208.446158 
L 376.984522 210.310124 
L 377.358127 209.533472 
L 378.478943 199.969549 
L 378.852548 199.570128 
L 379.226153 197.839302 
L 379.973364 183.082902 
L 380.346969 181.818068 
L 380.720574 188.741372 
L 381.467785 208.091117 
L 382.214995 216.478965 
L 382.962206 222.523541 
L 383.335811 226.32692 
L 384.456627 247.79138 
L 384.830232 250.343238 
L 385.203837 248.406045 
L 385.951048 239.408857 
L 386.324653 240.731385 
L 386.698258 243.282356 
L 387.071863 242.643282 
L 387.445469 241.250855 
L 387.819074 240.636856 
L 388.192679 240.825693 
L 388.566284 242.432476 
L 388.93989 245.24174 
L 389.313495 247.107925 
L 389.6871 245.124133 
L 390.434311 237.70821 
L 390.807916 236.363491 
L 391.181521 236.055049 
L 391.555126 236.243665 
L 391.928731 238.275388 
L 392.675942 243.801604 
L 393.049547 242.148222 
L 393.796758 232.797546 
L 394.170363 231.80565 
L 394.543968 233.316794 
L 394.917573 235.322777 
L 395.291179 236.669714 
L 396.038389 238.369696 
L 396.7856 240.329967 
L 397.159205 240.37701 
L 397.906415 238.889387 
L 398.653626 236.00845 
L 399.027231 233.978058 
L 399.400836 232.915153 
L 399.774442 233.481 
L 400.895257 237.544003 
L 401.268862 237.754809 
L 403.136889 236.694123 
L 403.510494 236.953747 
L 403.884099 237.637201 
L 404.63131 239.715968 
L 405.004915 240.282702 
L 405.37852 240.566069 
L 405.752125 240.636856 
L 406.872941 240.37701 
L 407.620152 240.235393 
L 409.114572 239.574173 
L 409.861783 239.479643 
L 410.608993 239.267284 
L 411.356204 239.172754 
L 412.103414 239.03096 
L 412.850625 239.101968 
L 414.718651 240.353488 
L 415.465862 240.353488 
L 416.960282 239.952026 
L 418.081098 239.857562 
L 419.201914 240.093709 
L 419.575519 240.211783 
L 423.685177 240.046478 
L 424.805992 240.117319 
L 424.805992 240.117319 
" clip-path="url(#p0ae4c2252e)" style="fill: none; stroke: #ff7f0e; stroke-width: 1.5; stroke-linecap: square"/>
   </g>
   <g id="patch_9">
    <path d="M 50.565625 304.44375 
L 50.565625 175.97875 
" style="fill: none; stroke: #000000; stroke-width: 0.8; stroke-linejoin: miter; stroke-linecap: square"/>
   </g>
   <g id="patch_10">
    <path d="M 442.626962 304.44375 
L 442.626962 175.97875 
" style="fill: none; stroke: #000000; stroke-width: 0.8; stroke-linejoin: miter; stroke-linecap: square"/>
   </g>
   <g id="patch_11">
    <path d="M 50.565625 304.44375 
L 442.626962 304.44375 
" style="fill: none; stroke: #000000; stroke-width: 0.8; stroke-linejoin: miter; stroke-linecap: square"/>
   </g>
   <g id="patch_12">
    <path d="M 50.565625 175.97875 
L 442.626962 175.97875 
" style="fill: none; stroke: #000000; stroke-width: 0.8; stroke-linejoin: miter; stroke-linecap: square"/>
   </g>
   <g id="legend_2">
    <g id="patch_13">
     <path d="M 205.3377 213.335 
L 287.854887 213.335 
Q 289.854887 213.335 289.854887 211.335 
L 289.854887 182.97875 
Q 289.854887 180.97875 287.854887 180.97875 
L 205.3377 180.97875 
Q 203.3377 180.97875 203.3377 182.97875 
L 203.3377 211.335 
Q 203.3377 213.335 205.3377 213.335 
z
" style="fill: #ffffff; opacity: 0.8; stroke: #cccccc; stroke-linejoin: miter"/>
    </g>
    <g id="line2d_49">
     <path d="M 207.3377 189.077187 
L 217.3377 189.077187 
L 227.3377 189.077187 
" style="fill: none; stroke: #1f77b4; stroke-width: 1.5; stroke-linecap: square"/>
    </g>
    <g id="text_21">
     <!-- Reference -->
     <g transform="translate(235.3377 192.577187)scale(0.1 -0.1)">
      <use xlink:href="#DejaVuSans-52"/>
      <use xlink:href="#DejaVuSans-65" x="64.982422"/>
      <use xlink:href="#DejaVuSans-66" x="126.505859"/>
      <use xlink:href="#DejaVuSans-65" x="161.710938"/>
      <use xlink:href="#DejaVuSans-72" x="223.234375"/>
      <use xlink:href="#DejaVuSans-65" x="262.097656"/>
      <use xlink:href="#DejaVuSans-6e" x="323.621094"/>
      <use xlink:href="#DejaVuSans-63" x="387"/>
      <use xlink:href="#DejaVuSans-65" x="441.980469"/>
     </g>
    </g>
    <g id="line2d_50">
     <path d="M 207.3377 203.755312 
L 217.3377 203.755312 
L 227.3377 203.755312 
" style="fill: none; stroke: #ff7f0e; stroke-width: 1.5; stroke-linecap: square"/>
    </g>
    <g id="text_22">
     <!-- Estimated -->
     <g transform="translate(235.3377 207.255312)scale(0.1 -0.1)">
      <use xlink:href="#DejaVuSans-45"/>
      <use xlink:href="#DejaVuSans-73" x="63.183594"/>
      <use xlink:href="#DejaVuSans-74" x="115.283203"/>
      <use xlink:href="#DejaVuSans-69" x="154.492188"/>
      <use xlink:href="#DejaVuSans-6d" x="182.275391"/>
      <use xlink:href="#DejaVuSans-61" x="279.6875"/>
      <use xlink:href="#DejaVuSans-74" x="340.966797"/>
      <use xlink:href="#DejaVuSans-65" x="380.175781"/>
      <use xlink:href="#DejaVuSans-64" x="441.699219"/>
     </g>
    </g>
   </g>
  </g>
  <g id="text_23">
   <!-- Translational and Rotational Velocity -->
   <g transform="translate(121.384688 16.030125)scale(0.12 -0.12)">
    <defs>
     <path id="DejaVuSans-56" d="M 1831 0 
L 50 4666 
L 709 4666 
L 2188 738 
L 3669 4666 
L 4325 4666 
L 2547 0 
L 1831 0 
z
" transform="scale(0.015625)"/>
     <path id="DejaVuSans-79" d="M 2059 -325 
Q 1816 -950 1584 -1140 
Q 1353 -1331 966 -1331 
L 506 -1331 
L 506 -850 
L 844 -850 
Q 1081 -850 1212 -737 
Q 1344 -625 1503 -206 
L 1606 56 
L 191 3500 
L 800 3500 
L 1894 763 
L 2988 3500 
L 3597 3500 
L 2059 -325 
z
" transform="scale(0.015625)"/>
    </defs>
    <use xlink:href="#DejaVuSans-54"/>
    <use xlink:href="#DejaVuSans-72" x="46.333984"/>
    <use xlink:href="#DejaVuSans-61" x="87.447266"/>
    <use xlink:href="#DejaVuSans-6e" x="148.726562"/>
    <use xlink:href="#DejaVuSans-73" x="212.105469"/>
    <use xlink:href="#DejaVuSans-6c" x="264.205078"/>
    <use xlink:href="#DejaVuSans-61" x="291.988281"/>
    <use xlink:href="#DejaVuSans-74" x="353.267578"/>
    <use xlink:href="#DejaVuSans-69" x="392.476562"/>
    <use xlink:href="#DejaVuSans-6f" x="420.259766"/>
    <use xlink:href="#DejaVuSans-6e" x="481.441406"/>
    <use xlink:href="#DejaVuSans-61" x="544.820312"/>
    <use xlink:href="#DejaVuSans-6c" x="606.099609"/>
    <use xlink:href="#DejaVuSans-20" x="633.882812"/>
    <use xlink:href="#DejaVuSans-61" x="665.669922"/>
    <use xlink:href="#DejaVuSans-6e" x="726.949219"/>
    <use xlink:href="#DejaVuSans-64" x="790.328125"/>
    <use xlink:href="#DejaVuSans-20" x="853.804688"/>
    <use xlink:href="#DejaVuSans-52" x="885.591797"/>
    <use xlink:href="#DejaVuSans-6f" x="950.574219"/>
    <use xlink:href="#DejaVuSans-74" x="1011.755859"/>
    <use xlink:href="#DejaVuSans-61" x="1050.964844"/>
    <use xlink:href="#DejaVuSans-74" x="1112.244141"/>
    <use xlink:href="#DejaVuSans-69" x="1151.453125"/>
    <use xlink:href="#DejaVuSans-6f" x="1179.236328"/>
    <use xlink:href="#DejaVuSans-6e" x="1240.417969"/>
    <use xlink:href="#DejaVuSans-61" x="1303.796875"/>
    <use xlink:href="#DejaVuSans-6c" x="1365.076172"/>
    <use xlink:href="#DejaVuSans-20" x="1392.859375"/>
    <use xlink:href="#DejaVuSans-56" x="1424.646484"/>
    <use xlink:href="#DejaVuSans-65" x="1485.304688"/>
    <use xlink:href="#DejaVuSans-6c" x="1546.828125"/>
    <use xlink:href="#DejaVuSans-6f" x="1574.611328"/>
    <use xlink:href="#DejaVuSans-63" x="1635.792969"/>
    <use xlink:href="#DejaVuSans-69" x="1690.773438"/>
    <use xlink:href="#DejaVuSans-74" x="1718.556641"/>
    <use xlink:href="#DejaVuSans-79" x="1757.765625"/>
   </g>
  </g>
 </g>
 <defs>
  <clipPath id="p36c41afbcb">
   <rect x="50.565625" y="33.21375" width="392.061337" height="128.465"/>
  </clipPath>
  <clipPath id="p0ae4c2252e">
   <rect x="50.565625" y="175.97875" width="392.061337" height="128.465"/>
  </clipPath>
 </defs>
</svg>
