<?xml version="1.0" encoding="utf-8" standalone="no"?>
<!DOCTYPE svg PUBLIC "-//W3C//DTD SVG 1.1//EN"
  "http://www.w3.org/Graphics/SVG/1.1/DTD/svg11.dtd">
<svg xmlns:xlink="http://www.w3.org/1999/xlink" width="460.8pt" height="345.6pt" viewBox="0 0 460.8 345.6" xmlns="http://www.w3.org/2000/svg" version="1.1">
 <metadata>
  <rdf:RDF xmlns:dc="http://purl.org/dc/elements/1.1/" xmlns:cc="http://creativecommons.org/ns#" xmlns:rdf="http://www.w3.org/1999/02/22-rdf-syntax-ns#">
   <cc:Work>
    <dc:type rdf:resource="http://purl.org/dc/dcmitype/StillImage"/>
    <dc:date>2022-01-15T23:46:53.099426</dc:date>
    <dc:format>image/svg+xml</dc:format>
    <dc:creator>
     <cc:Agent>
      <dc:title>Matplotlib v3.5.1, https://matplotlib.org/</dc:title>
     </cc:Agent>
    </dc:creator>
   </cc:Work>
  </rdf:RDF>
 </metadata>
 <defs>
  <style type="text/css">*{stroke-linejoin: round; stroke-linecap: butt}</style>
 </defs>
 <g id="figure_1">
  <g id="patch_1">
   <path d="M 0 345.6 
L 460.8 345.6 
L 460.8 0 
L 0 0 
z
" style="fill: #ffffff"/>
  </g>
  <g id="axes_1">
   <g id="patch_2">
    <path d="M 56.928125 304.44375 
L 450 304.44375 
L 450 25.918125 
L 56.928125 25.918125 
z
" style="fill: #ffffff"/>
   </g>
   <g id="matplotlib.axis_1">
    <g id="xtick_1">
     <g id="line2d_1">
      <path d="M 74.795028 304.44375 
L 74.795028 25.918125 
" clip-path="url(#pb7057678b3)" style="fill: none; stroke: #b0b0b0; stroke-width: 0.8; stroke-linecap: square"/>
     </g>
     <g id="line2d_2">
      <defs>
       <path id="m4208f9efbf" d="M 0 0 
L 0 3.5 
" style="stroke: #000000; stroke-width: 0.8"/>
      </defs>
      <g>
       <use xlink:href="#m4208f9efbf" x="74.795028" y="304.44375" style="stroke: #000000; stroke-width: 0.8"/>
      </g>
     </g>
     <g id="text_1">
      <!-- 0 -->
      <g transform="translate(71.613778 319.042187)scale(0.1 -0.1)">
       <defs>
        <path id="DejaVuSans-30" d="M 2034 4250 
Q 1547 4250 1301 3770 
Q 1056 3291 1056 2328 
Q 1056 1369 1301 889 
Q 1547 409 2034 409 
Q 2525 409 2770 889 
Q 3016 1369 3016 2328 
Q 3016 3291 2770 3770 
Q 2525 4250 2034 4250 
z
M 2034 4750 
Q 2819 4750 3233 4129 
Q 3647 3509 3647 2328 
Q 3647 1150 3233 529 
Q 2819 -91 2034 -91 
Q 1250 -91 836 529 
Q 422 1150 422 2328 
Q 422 3509 836 4129 
Q 1250 4750 2034 4750 
z
" transform="scale(0.015625)"/>
       </defs>
       <use xlink:href="#DejaVuSans-30"/>
      </g>
     </g>
    </g>
    <g id="xtick_2">
     <g id="line2d_3">
      <path d="M 140.968745 304.44375 
L 140.968745 25.918125 
" clip-path="url(#pb7057678b3)" style="fill: none; stroke: #b0b0b0; stroke-width: 0.8; stroke-linecap: square"/>
     </g>
     <g id="line2d_4">
      <g>
       <use xlink:href="#m4208f9efbf" x="140.968745" y="304.44375" style="stroke: #000000; stroke-width: 0.8"/>
      </g>
     </g>
     <g id="text_2">
      <!-- 50 -->
      <g transform="translate(134.606245 319.042187)scale(0.1 -0.1)">
       <defs>
        <path id="DejaVuSans-35" d="M 691 4666 
L 3169 4666 
L 3169 4134 
L 1269 4134 
L 1269 2991 
Q 1406 3038 1543 3061 
Q 1681 3084 1819 3084 
Q 2600 3084 3056 2656 
Q 3513 2228 3513 1497 
Q 3513 744 3044 326 
Q 2575 -91 1722 -91 
Q 1428 -91 1123 -41 
Q 819 9 494 109 
L 494 744 
Q 775 591 1075 516 
Q 1375 441 1709 441 
Q 2250 441 2565 725 
Q 2881 1009 2881 1497 
Q 2881 1984 2565 2268 
Q 2250 2553 1709 2553 
Q 1456 2553 1204 2497 
Q 953 2441 691 2322 
L 691 4666 
z
" transform="scale(0.015625)"/>
       </defs>
       <use xlink:href="#DejaVuSans-35"/>
       <use xlink:href="#DejaVuSans-30" x="63.623047"/>
      </g>
     </g>
    </g>
    <g id="xtick_3">
     <g id="line2d_5">
      <path d="M 207.142461 304.44375 
L 207.142461 25.918125 
" clip-path="url(#pb7057678b3)" style="fill: none; stroke: #b0b0b0; stroke-width: 0.8; stroke-linecap: square"/>
     </g>
     <g id="line2d_6">
      <g>
       <use xlink:href="#m4208f9efbf" x="207.142461" y="304.44375" style="stroke: #000000; stroke-width: 0.8"/>
      </g>
     </g>
     <g id="text_3">
      <!-- 100 -->
      <g transform="translate(197.598711 319.042187)scale(0.1 -0.1)">
       <defs>
        <path id="DejaVuSans-31" d="M 794 531 
L 1825 531 
L 1825 4091 
L 703 3866 
L 703 4441 
L 1819 4666 
L 2450 4666 
L 2450 531 
L 3481 531 
L 3481 0 
L 794 0 
L 794 531 
z
" transform="scale(0.015625)"/>
       </defs>
       <use xlink:href="#DejaVuSans-31"/>
       <use xlink:href="#DejaVuSans-30" x="63.623047"/>
       <use xlink:href="#DejaVuSans-30" x="127.246094"/>
      </g>
     </g>
    </g>
    <g id="xtick_4">
     <g id="line2d_7">
      <path d="M 273.316177 304.44375 
L 273.316177 25.918125 
" clip-path="url(#pb7057678b3)" style="fill: none; stroke: #b0b0b0; stroke-width: 0.8; stroke-linecap: square"/>
     </g>
     <g id="line2d_8">
      <g>
       <use xlink:href="#m4208f9efbf" x="273.316177" y="304.44375" style="stroke: #000000; stroke-width: 0.8"/>
      </g>
     </g>
     <g id="text_4">
      <!-- 150 -->
      <g transform="translate(263.772427 319.042187)scale(0.1 -0.1)">
       <use xlink:href="#DejaVuSans-31"/>
       <use xlink:href="#DejaVuSans-35" x="63.623047"/>
       <use xlink:href="#DejaVuSans-30" x="127.246094"/>
      </g>
     </g>
    </g>
    <g id="xtick_5">
     <g id="line2d_9">
      <path d="M 339.489894 304.44375 
L 339.489894 25.918125 
" clip-path="url(#pb7057678b3)" style="fill: none; stroke: #b0b0b0; stroke-width: 0.8; stroke-linecap: square"/>
     </g>
     <g id="line2d_10">
      <g>
       <use xlink:href="#m4208f9efbf" x="339.489894" y="304.44375" style="stroke: #000000; stroke-width: 0.8"/>
      </g>
     </g>
     <g id="text_5">
      <!-- 200 -->
      <g transform="translate(329.946144 319.042187)scale(0.1 -0.1)">
       <defs>
        <path id="DejaVuSans-32" d="M 1228 531 
L 3431 531 
L 3431 0 
L 469 0 
L 469 531 
Q 828 903 1448 1529 
Q 2069 2156 2228 2338 
Q 2531 2678 2651 2914 
Q 2772 3150 2772 3378 
Q 2772 3750 2511 3984 
Q 2250 4219 1831 4219 
Q 1534 4219 1204 4116 
Q 875 4013 500 3803 
L 500 4441 
Q 881 4594 1212 4672 
Q 1544 4750 1819 4750 
Q 2544 4750 2975 4387 
Q 3406 4025 3406 3419 
Q 3406 3131 3298 2873 
Q 3191 2616 2906 2266 
Q 2828 2175 2409 1742 
Q 1991 1309 1228 531 
z
" transform="scale(0.015625)"/>
       </defs>
       <use xlink:href="#DejaVuSans-32"/>
       <use xlink:href="#DejaVuSans-30" x="63.623047"/>
       <use xlink:href="#DejaVuSans-30" x="127.246094"/>
      </g>
     </g>
    </g>
    <g id="xtick_6">
     <g id="line2d_11">
      <path d="M 405.66361 304.44375 
L 405.66361 25.918125 
" clip-path="url(#pb7057678b3)" style="fill: none; stroke: #b0b0b0; stroke-width: 0.8; stroke-linecap: square"/>
     </g>
     <g id="line2d_12">
      <g>
       <use xlink:href="#m4208f9efbf" x="405.66361" y="304.44375" style="stroke: #000000; stroke-width: 0.8"/>
      </g>
     </g>
     <g id="text_6">
      <!-- 250 -->
      <g transform="translate(396.11986 319.042187)scale(0.1 -0.1)">
       <use xlink:href="#DejaVuSans-32"/>
       <use xlink:href="#DejaVuSans-35" x="63.623047"/>
       <use xlink:href="#DejaVuSans-30" x="127.246094"/>
      </g>
     </g>
    </g>
    <g id="text_7">
     <!-- Translational Position [mm] -->
     <g transform="translate(185.486719 332.720312)scale(0.1 -0.1)">
      <defs>
       <path id="DejaVuSans-54" d="M -19 4666 
L 3928 4666 
L 3928 4134 
L 2272 4134 
L 2272 0 
L 1638 0 
L 1638 4134 
L -19 4134 
L -19 4666 
z
" transform="scale(0.015625)"/>
       <path id="DejaVuSans-72" d="M 2631 2963 
Q 2534 3019 2420 3045 
Q 2306 3072 2169 3072 
Q 1681 3072 1420 2755 
Q 1159 2438 1159 1844 
L 1159 0 
L 581 0 
L 581 3500 
L 1159 3500 
L 1159 2956 
Q 1341 3275 1631 3429 
Q 1922 3584 2338 3584 
Q 2397 3584 2469 3576 
Q 2541 3569 2628 3553 
L 2631 2963 
z
" transform="scale(0.015625)"/>
       <path id="DejaVuSans-61" d="M 2194 1759 
Q 1497 1759 1228 1600 
Q 959 1441 959 1056 
Q 959 750 1161 570 
Q 1363 391 1709 391 
Q 2188 391 2477 730 
Q 2766 1069 2766 1631 
L 2766 1759 
L 2194 1759 
z
M 3341 1997 
L 3341 0 
L 2766 0 
L 2766 531 
Q 2569 213 2275 61 
Q 1981 -91 1556 -91 
Q 1019 -91 701 211 
Q 384 513 384 1019 
Q 384 1609 779 1909 
Q 1175 2209 1959 2209 
L 2766 2209 
L 2766 2266 
Q 2766 2663 2505 2880 
Q 2244 3097 1772 3097 
Q 1472 3097 1187 3025 
Q 903 2953 641 2809 
L 641 3341 
Q 956 3463 1253 3523 
Q 1550 3584 1831 3584 
Q 2591 3584 2966 3190 
Q 3341 2797 3341 1997 
z
" transform="scale(0.015625)"/>
       <path id="DejaVuSans-6e" d="M 3513 2113 
L 3513 0 
L 2938 0 
L 2938 2094 
Q 2938 2591 2744 2837 
Q 2550 3084 2163 3084 
Q 1697 3084 1428 2787 
Q 1159 2491 1159 1978 
L 1159 0 
L 581 0 
L 581 3500 
L 1159 3500 
L 1159 2956 
Q 1366 3272 1645 3428 
Q 1925 3584 2291 3584 
Q 2894 3584 3203 3211 
Q 3513 2838 3513 2113 
z
" transform="scale(0.015625)"/>
       <path id="DejaVuSans-73" d="M 2834 3397 
L 2834 2853 
Q 2591 2978 2328 3040 
Q 2066 3103 1784 3103 
Q 1356 3103 1142 2972 
Q 928 2841 928 2578 
Q 928 2378 1081 2264 
Q 1234 2150 1697 2047 
L 1894 2003 
Q 2506 1872 2764 1633 
Q 3022 1394 3022 966 
Q 3022 478 2636 193 
Q 2250 -91 1575 -91 
Q 1294 -91 989 -36 
Q 684 19 347 128 
L 347 722 
Q 666 556 975 473 
Q 1284 391 1588 391 
Q 1994 391 2212 530 
Q 2431 669 2431 922 
Q 2431 1156 2273 1281 
Q 2116 1406 1581 1522 
L 1381 1569 
Q 847 1681 609 1914 
Q 372 2147 372 2553 
Q 372 3047 722 3315 
Q 1072 3584 1716 3584 
Q 2034 3584 2315 3537 
Q 2597 3491 2834 3397 
z
" transform="scale(0.015625)"/>
       <path id="DejaVuSans-6c" d="M 603 4863 
L 1178 4863 
L 1178 0 
L 603 0 
L 603 4863 
z
" transform="scale(0.015625)"/>
       <path id="DejaVuSans-74" d="M 1172 4494 
L 1172 3500 
L 2356 3500 
L 2356 3053 
L 1172 3053 
L 1172 1153 
Q 1172 725 1289 603 
Q 1406 481 1766 481 
L 2356 481 
L 2356 0 
L 1766 0 
Q 1100 0 847 248 
Q 594 497 594 1153 
L 594 3053 
L 172 3053 
L 172 3500 
L 594 3500 
L 594 4494 
L 1172 4494 
z
" transform="scale(0.015625)"/>
       <path id="DejaVuSans-69" d="M 603 3500 
L 1178 3500 
L 1178 0 
L 603 0 
L 603 3500 
z
M 603 4863 
L 1178 4863 
L 1178 4134 
L 603 4134 
L 603 4863 
z
" transform="scale(0.015625)"/>
       <path id="DejaVuSans-6f" d="M 1959 3097 
Q 1497 3097 1228 2736 
Q 959 2375 959 1747 
Q 959 1119 1226 758 
Q 1494 397 1959 397 
Q 2419 397 2687 759 
Q 2956 1122 2956 1747 
Q 2956 2369 2687 2733 
Q 2419 3097 1959 3097 
z
M 1959 3584 
Q 2709 3584 3137 3096 
Q 3566 2609 3566 1747 
Q 3566 888 3137 398 
Q 2709 -91 1959 -91 
Q 1206 -91 779 398 
Q 353 888 353 1747 
Q 353 2609 779 3096 
Q 1206 3584 1959 3584 
z
" transform="scale(0.015625)"/>
       <path id="DejaVuSans-20" transform="scale(0.015625)"/>
       <path id="DejaVuSans-50" d="M 1259 4147 
L 1259 2394 
L 2053 2394 
Q 2494 2394 2734 2622 
Q 2975 2850 2975 3272 
Q 2975 3691 2734 3919 
Q 2494 4147 2053 4147 
L 1259 4147 
z
M 628 4666 
L 2053 4666 
Q 2838 4666 3239 4311 
Q 3641 3956 3641 3272 
Q 3641 2581 3239 2228 
Q 2838 1875 2053 1875 
L 1259 1875 
L 1259 0 
L 628 0 
L 628 4666 
z
" transform="scale(0.015625)"/>
       <path id="DejaVuSans-5b" d="M 550 4863 
L 1875 4863 
L 1875 4416 
L 1125 4416 
L 1125 -397 
L 1875 -397 
L 1875 -844 
L 550 -844 
L 550 4863 
z
" transform="scale(0.015625)"/>
       <path id="DejaVuSans-6d" d="M 3328 2828 
Q 3544 3216 3844 3400 
Q 4144 3584 4550 3584 
Q 5097 3584 5394 3201 
Q 5691 2819 5691 2113 
L 5691 0 
L 5113 0 
L 5113 2094 
Q 5113 2597 4934 2840 
Q 4756 3084 4391 3084 
Q 3944 3084 3684 2787 
Q 3425 2491 3425 1978 
L 3425 0 
L 2847 0 
L 2847 2094 
Q 2847 2600 2669 2842 
Q 2491 3084 2119 3084 
Q 1678 3084 1418 2786 
Q 1159 2488 1159 1978 
L 1159 0 
L 581 0 
L 581 3500 
L 1159 3500 
L 1159 2956 
Q 1356 3278 1631 3431 
Q 1906 3584 2284 3584 
Q 2666 3584 2933 3390 
Q 3200 3197 3328 2828 
z
" transform="scale(0.015625)"/>
       <path id="DejaVuSans-5d" d="M 1947 4863 
L 1947 -844 
L 622 -844 
L 622 -397 
L 1369 -397 
L 1369 4416 
L 622 4416 
L 622 4863 
L 1947 4863 
z
" transform="scale(0.015625)"/>
      </defs>
      <use xlink:href="#DejaVuSans-54"/>
      <use xlink:href="#DejaVuSans-72" x="46.333984"/>
      <use xlink:href="#DejaVuSans-61" x="87.447266"/>
      <use xlink:href="#DejaVuSans-6e" x="148.726562"/>
      <use xlink:href="#DejaVuSans-73" x="212.105469"/>
      <use xlink:href="#DejaVuSans-6c" x="264.205078"/>
      <use xlink:href="#DejaVuSans-61" x="291.988281"/>
      <use xlink:href="#DejaVuSans-74" x="353.267578"/>
      <use xlink:href="#DejaVuSans-69" x="392.476562"/>
      <use xlink:href="#DejaVuSans-6f" x="420.259766"/>
      <use xlink:href="#DejaVuSans-6e" x="481.441406"/>
      <use xlink:href="#DejaVuSans-61" x="544.820312"/>
      <use xlink:href="#DejaVuSans-6c" x="606.099609"/>
      <use xlink:href="#DejaVuSans-20" x="633.882812"/>
      <use xlink:href="#DejaVuSans-50" x="665.669922"/>
      <use xlink:href="#DejaVuSans-6f" x="722.347656"/>
      <use xlink:href="#DejaVuSans-73" x="783.529297"/>
      <use xlink:href="#DejaVuSans-69" x="835.628906"/>
      <use xlink:href="#DejaVuSans-74" x="863.412109"/>
      <use xlink:href="#DejaVuSans-69" x="902.621094"/>
      <use xlink:href="#DejaVuSans-6f" x="930.404297"/>
      <use xlink:href="#DejaVuSans-6e" x="991.585938"/>
      <use xlink:href="#DejaVuSans-20" x="1054.964844"/>
      <use xlink:href="#DejaVuSans-5b" x="1086.751953"/>
      <use xlink:href="#DejaVuSans-6d" x="1125.765625"/>
      <use xlink:href="#DejaVuSans-6d" x="1223.177734"/>
      <use xlink:href="#DejaVuSans-5d" x="1320.589844"/>
     </g>
    </g>
   </g>
   <g id="matplotlib.axis_2">
    <g id="ytick_1">
     <g id="line2d_13">
      <path d="M 56.928125 291.999172 
L 450 291.999172 
" clip-path="url(#pb7057678b3)" style="fill: none; stroke: #b0b0b0; stroke-width: 0.8; stroke-linecap: square"/>
     </g>
     <g id="line2d_14">
      <defs>
       <path id="me380f95d16" d="M 0 0 
L -3.5 0 
" style="stroke: #000000; stroke-width: 0.8"/>
      </defs>
      <g>
       <use xlink:href="#me380f95d16" x="56.928125" y="291.999172" style="stroke: #000000; stroke-width: 0.8"/>
      </g>
     </g>
     <g id="text_8">
      <!-- 0 -->
      <g transform="translate(43.565625 295.79839)scale(0.1 -0.1)">
       <use xlink:href="#DejaVuSans-30"/>
      </g>
     </g>
    </g>
    <g id="ytick_2">
     <g id="line2d_15">
      <path d="M 56.928125 248.863718 
L 450 248.863718 
" clip-path="url(#pb7057678b3)" style="fill: none; stroke: #b0b0b0; stroke-width: 0.8; stroke-linecap: square"/>
     </g>
     <g id="line2d_16">
      <g>
       <use xlink:href="#me380f95d16" x="56.928125" y="248.863718" style="stroke: #000000; stroke-width: 0.8"/>
      </g>
     </g>
     <g id="text_9">
      <!-- 200 -->
      <g transform="translate(30.840625 252.662937)scale(0.1 -0.1)">
       <use xlink:href="#DejaVuSans-32"/>
       <use xlink:href="#DejaVuSans-30" x="63.623047"/>
       <use xlink:href="#DejaVuSans-30" x="127.246094"/>
      </g>
     </g>
    </g>
    <g id="ytick_3">
     <g id="line2d_17">
      <path d="M 56.928125 205.728264 
L 450 205.728264 
" clip-path="url(#pb7057678b3)" style="fill: none; stroke: #b0b0b0; stroke-width: 0.8; stroke-linecap: square"/>
     </g>
     <g id="line2d_18">
      <g>
       <use xlink:href="#me380f95d16" x="56.928125" y="205.728264" style="stroke: #000000; stroke-width: 0.8"/>
      </g>
     </g>
     <g id="text_10">
      <!-- 400 -->
      <g transform="translate(30.840625 209.527483)scale(0.1 -0.1)">
       <defs>
        <path id="DejaVuSans-34" d="M 2419 4116 
L 825 1625 
L 2419 1625 
L 2419 4116 
z
M 2253 4666 
L 3047 4666 
L 3047 1625 
L 3713 1625 
L 3713 1100 
L 3047 1100 
L 3047 0 
L 2419 0 
L 2419 1100 
L 313 1100 
L 313 1709 
L 2253 4666 
z
" transform="scale(0.015625)"/>
       </defs>
       <use xlink:href="#DejaVuSans-34"/>
       <use xlink:href="#DejaVuSans-30" x="63.623047"/>
       <use xlink:href="#DejaVuSans-30" x="127.246094"/>
      </g>
     </g>
    </g>
    <g id="ytick_4">
     <g id="line2d_19">
      <path d="M 56.928125 162.59281 
L 450 162.59281 
" clip-path="url(#pb7057678b3)" style="fill: none; stroke: #b0b0b0; stroke-width: 0.8; stroke-linecap: square"/>
     </g>
     <g id="line2d_20">
      <g>
       <use xlink:href="#me380f95d16" x="56.928125" y="162.59281" style="stroke: #000000; stroke-width: 0.8"/>
      </g>
     </g>
     <g id="text_11">
      <!-- 600 -->
      <g transform="translate(30.840625 166.392029)scale(0.1 -0.1)">
       <defs>
        <path id="DejaVuSans-36" d="M 2113 2584 
Q 1688 2584 1439 2293 
Q 1191 2003 1191 1497 
Q 1191 994 1439 701 
Q 1688 409 2113 409 
Q 2538 409 2786 701 
Q 3034 994 3034 1497 
Q 3034 2003 2786 2293 
Q 2538 2584 2113 2584 
z
M 3366 4563 
L 3366 3988 
Q 3128 4100 2886 4159 
Q 2644 4219 2406 4219 
Q 1781 4219 1451 3797 
Q 1122 3375 1075 2522 
Q 1259 2794 1537 2939 
Q 1816 3084 2150 3084 
Q 2853 3084 3261 2657 
Q 3669 2231 3669 1497 
Q 3669 778 3244 343 
Q 2819 -91 2113 -91 
Q 1303 -91 875 529 
Q 447 1150 447 2328 
Q 447 3434 972 4092 
Q 1497 4750 2381 4750 
Q 2619 4750 2861 4703 
Q 3103 4656 3366 4563 
z
" transform="scale(0.015625)"/>
       </defs>
       <use xlink:href="#DejaVuSans-36"/>
       <use xlink:href="#DejaVuSans-30" x="63.623047"/>
       <use xlink:href="#DejaVuSans-30" x="127.246094"/>
      </g>
     </g>
    </g>
    <g id="ytick_5">
     <g id="line2d_21">
      <path d="M 56.928125 119.457357 
L 450 119.457357 
" clip-path="url(#pb7057678b3)" style="fill: none; stroke: #b0b0b0; stroke-width: 0.8; stroke-linecap: square"/>
     </g>
     <g id="line2d_22">
      <g>
       <use xlink:href="#me380f95d16" x="56.928125" y="119.457357" style="stroke: #000000; stroke-width: 0.8"/>
      </g>
     </g>
     <g id="text_12">
      <!-- 800 -->
      <g transform="translate(30.840625 123.256575)scale(0.1 -0.1)">
       <defs>
        <path id="DejaVuSans-38" d="M 2034 2216 
Q 1584 2216 1326 1975 
Q 1069 1734 1069 1313 
Q 1069 891 1326 650 
Q 1584 409 2034 409 
Q 2484 409 2743 651 
Q 3003 894 3003 1313 
Q 3003 1734 2745 1975 
Q 2488 2216 2034 2216 
z
M 1403 2484 
Q 997 2584 770 2862 
Q 544 3141 544 3541 
Q 544 4100 942 4425 
Q 1341 4750 2034 4750 
Q 2731 4750 3128 4425 
Q 3525 4100 3525 3541 
Q 3525 3141 3298 2862 
Q 3072 2584 2669 2484 
Q 3125 2378 3379 2068 
Q 3634 1759 3634 1313 
Q 3634 634 3220 271 
Q 2806 -91 2034 -91 
Q 1263 -91 848 271 
Q 434 634 434 1313 
Q 434 1759 690 2068 
Q 947 2378 1403 2484 
z
M 1172 3481 
Q 1172 3119 1398 2916 
Q 1625 2713 2034 2713 
Q 2441 2713 2670 2916 
Q 2900 3119 2900 3481 
Q 2900 3844 2670 4047 
Q 2441 4250 2034 4250 
Q 1625 4250 1398 4047 
Q 1172 3844 1172 3481 
z
" transform="scale(0.015625)"/>
       </defs>
       <use xlink:href="#DejaVuSans-38"/>
       <use xlink:href="#DejaVuSans-30" x="63.623047"/>
       <use xlink:href="#DejaVuSans-30" x="127.246094"/>
      </g>
     </g>
    </g>
    <g id="ytick_6">
     <g id="line2d_23">
      <path d="M 56.928125 76.321903 
L 450 76.321903 
" clip-path="url(#pb7057678b3)" style="fill: none; stroke: #b0b0b0; stroke-width: 0.8; stroke-linecap: square"/>
     </g>
     <g id="line2d_24">
      <g>
       <use xlink:href="#me380f95d16" x="56.928125" y="76.321903" style="stroke: #000000; stroke-width: 0.8"/>
      </g>
     </g>
     <g id="text_13">
      <!-- 1000 -->
      <g transform="translate(24.478125 80.121121)scale(0.1 -0.1)">
       <use xlink:href="#DejaVuSans-31"/>
       <use xlink:href="#DejaVuSans-30" x="63.623047"/>
       <use xlink:href="#DejaVuSans-30" x="127.246094"/>
       <use xlink:href="#DejaVuSans-30" x="190.869141"/>
      </g>
     </g>
    </g>
    <g id="ytick_7">
     <g id="line2d_25">
      <path d="M 56.928125 33.186449 
L 450 33.186449 
" clip-path="url(#pb7057678b3)" style="fill: none; stroke: #b0b0b0; stroke-width: 0.8; stroke-linecap: square"/>
     </g>
     <g id="line2d_26">
      <g>
       <use xlink:href="#me380f95d16" x="56.928125" y="33.186449" style="stroke: #000000; stroke-width: 0.8"/>
      </g>
     </g>
     <g id="text_14">
      <!-- 1200 -->
      <g transform="translate(24.478125 36.985668)scale(0.1 -0.1)">
       <use xlink:href="#DejaVuSans-31"/>
       <use xlink:href="#DejaVuSans-32" x="63.623047"/>
       <use xlink:href="#DejaVuSans-30" x="127.246094"/>
       <use xlink:href="#DejaVuSans-30" x="190.869141"/>
      </g>
     </g>
    </g>
    <g id="text_15">
     <!-- Reflector Raw Value -->
     <g transform="translate(18.398438 214.980937)rotate(-90)scale(0.1 -0.1)">
      <defs>
       <path id="DejaVuSans-52" d="M 2841 2188 
Q 3044 2119 3236 1894 
Q 3428 1669 3622 1275 
L 4263 0 
L 3584 0 
L 2988 1197 
Q 2756 1666 2539 1819 
Q 2322 1972 1947 1972 
L 1259 1972 
L 1259 0 
L 628 0 
L 628 4666 
L 2053 4666 
Q 2853 4666 3247 4331 
Q 3641 3997 3641 3322 
Q 3641 2881 3436 2590 
Q 3231 2300 2841 2188 
z
M 1259 4147 
L 1259 2491 
L 2053 2491 
Q 2509 2491 2742 2702 
Q 2975 2913 2975 3322 
Q 2975 3731 2742 3939 
Q 2509 4147 2053 4147 
L 1259 4147 
z
" transform="scale(0.015625)"/>
       <path id="DejaVuSans-65" d="M 3597 1894 
L 3597 1613 
L 953 1613 
Q 991 1019 1311 708 
Q 1631 397 2203 397 
Q 2534 397 2845 478 
Q 3156 559 3463 722 
L 3463 178 
Q 3153 47 2828 -22 
Q 2503 -91 2169 -91 
Q 1331 -91 842 396 
Q 353 884 353 1716 
Q 353 2575 817 3079 
Q 1281 3584 2069 3584 
Q 2775 3584 3186 3129 
Q 3597 2675 3597 1894 
z
M 3022 2063 
Q 3016 2534 2758 2815 
Q 2500 3097 2075 3097 
Q 1594 3097 1305 2825 
Q 1016 2553 972 2059 
L 3022 2063 
z
" transform="scale(0.015625)"/>
       <path id="DejaVuSans-66" d="M 2375 4863 
L 2375 4384 
L 1825 4384 
Q 1516 4384 1395 4259 
Q 1275 4134 1275 3809 
L 1275 3500 
L 2222 3500 
L 2222 3053 
L 1275 3053 
L 1275 0 
L 697 0 
L 697 3053 
L 147 3053 
L 147 3500 
L 697 3500 
L 697 3744 
Q 697 4328 969 4595 
Q 1241 4863 1831 4863 
L 2375 4863 
z
" transform="scale(0.015625)"/>
       <path id="DejaVuSans-63" d="M 3122 3366 
L 3122 2828 
Q 2878 2963 2633 3030 
Q 2388 3097 2138 3097 
Q 1578 3097 1268 2742 
Q 959 2388 959 1747 
Q 959 1106 1268 751 
Q 1578 397 2138 397 
Q 2388 397 2633 464 
Q 2878 531 3122 666 
L 3122 134 
Q 2881 22 2623 -34 
Q 2366 -91 2075 -91 
Q 1284 -91 818 406 
Q 353 903 353 1747 
Q 353 2603 823 3093 
Q 1294 3584 2113 3584 
Q 2378 3584 2631 3529 
Q 2884 3475 3122 3366 
z
" transform="scale(0.015625)"/>
       <path id="DejaVuSans-77" d="M 269 3500 
L 844 3500 
L 1563 769 
L 2278 3500 
L 2956 3500 
L 3675 769 
L 4391 3500 
L 4966 3500 
L 4050 0 
L 3372 0 
L 2619 2869 
L 1863 0 
L 1184 0 
L 269 3500 
z
" transform="scale(0.015625)"/>
       <path id="DejaVuSans-56" d="M 1831 0 
L 50 4666 
L 709 4666 
L 2188 738 
L 3669 4666 
L 4325 4666 
L 2547 0 
L 1831 0 
z
" transform="scale(0.015625)"/>
       <path id="DejaVuSans-75" d="M 544 1381 
L 544 3500 
L 1119 3500 
L 1119 1403 
Q 1119 906 1312 657 
Q 1506 409 1894 409 
Q 2359 409 2629 706 
Q 2900 1003 2900 1516 
L 2900 3500 
L 3475 3500 
L 3475 0 
L 2900 0 
L 2900 538 
Q 2691 219 2414 64 
Q 2138 -91 1772 -91 
Q 1169 -91 856 284 
Q 544 659 544 1381 
z
M 1991 3584 
L 1991 3584 
z
" transform="scale(0.015625)"/>
      </defs>
      <use xlink:href="#DejaVuSans-52"/>
      <use xlink:href="#DejaVuSans-65" x="64.982422"/>
      <use xlink:href="#DejaVuSans-66" x="126.505859"/>
      <use xlink:href="#DejaVuSans-6c" x="161.710938"/>
      <use xlink:href="#DejaVuSans-65" x="189.494141"/>
      <use xlink:href="#DejaVuSans-63" x="251.017578"/>
      <use xlink:href="#DejaVuSans-74" x="305.998047"/>
      <use xlink:href="#DejaVuSans-6f" x="345.207031"/>
      <use xlink:href="#DejaVuSans-72" x="406.388672"/>
      <use xlink:href="#DejaVuSans-20" x="447.501953"/>
      <use xlink:href="#DejaVuSans-52" x="479.289062"/>
      <use xlink:href="#DejaVuSans-61" x="546.521484"/>
      <use xlink:href="#DejaVuSans-77" x="607.800781"/>
      <use xlink:href="#DejaVuSans-20" x="689.587891"/>
      <use xlink:href="#DejaVuSans-56" x="721.375"/>
      <use xlink:href="#DejaVuSans-61" x="782.033203"/>
      <use xlink:href="#DejaVuSans-6c" x="843.3125"/>
      <use xlink:href="#DejaVuSans-75" x="871.095703"/>
      <use xlink:href="#DejaVuSans-65" x="934.474609"/>
     </g>
    </g>
   </g>
   <g id="line2d_27">
    <path d="M 74.795028 149.005142 
L 74.795081 149.005142 
L 74.886507 150.083529 
L 75.011814 150.73056 
L 75.21854 149.436497 
L 75.285243 149.22082 
L 75.52691 149.652174 
L 75.6222 149.436497 
L 75.837 150.083529 
L 76.08621 150.514883 
L 76.37261 150.514883 
L 77.064787 151.59327 
L 77.476387 152.887333 
L 77.935633 153.750042 
L 78.181799 153.96572 
L 78.712512 155.044106 
L 78.995736 155.044106 
L 79.289547 154.828429 
L 80.246419 156.338169 
L 80.942567 157.84791 
L 81.309169 158.494942 
L 82.47912 161.514424 
L 83.319527 163.024165 
L 84.206254 164.533906 
L 84.668147 165.396615 
L 85.141951 165.827969 
L 85.626342 166.475001 
L 86.633506 168.416097 
L 87.686992 170.357192 
L 88.784152 171.219901 
L 89.353246 171.219901 
L 89.935575 171.435578 
L 91.139936 171.004224 
L 91.748735 170.572869 
L 93.006035 170.141515 
L 93.654538 170.141515 
L 94.30304 170.357192 
L 95.639749 169.925837 
L 96.327956 169.925837 
L 97.704369 169.063128 
L 98.419045 168.847451 
L 99.133721 168.416097 
L 99.848397 168.200419 
L 101.304219 167.33771 
L 102.78651 167.33771 
L 104.295271 166.906356 
L 107.365732 165.180937 
L 108.914197 163.455519 
L 110.475896 162.161456 
L 111.269981 161.945778 
L 112.844915 161.083069 
L 113.639 160.867392 
L 114.433084 160.867392 
L 116.021254 160.436038 
L 116.815338 160.004683 
L 117.609423 159.789006 
L 120.785761 159.789006 
L 121.579846 160.651715 
L 123.168015 162.808488 
L 123.9621 163.671197 
L 125.550269 165.827969 
L 126.344353 167.122033 
L 127.932523 169.925837 
L 128.726607 171.219901 
L 129.520692 173.592351 
L 131.108861 180.062669 
L 132.69703 189.121114 
L 134.285199 200.767687 
L 135.873369 214.571032 
L 138.255622 239.589595 
L 140.637876 265.902222 
L 141.431961 273.235249 
L 142.226045 279.48989 
L 143.02013 284.23479 
L 143.814215 287.685626 
L 144.608299 290.273753 
L 145.402384 291.567817 
L 146.196468 291.783494 
L 235.200117 291.783494 
L 235.994201 291.567817 
L 236.788286 290.920785 
L 237.582371 289.626722 
L 238.376455 287.469949 
L 239.17054 284.881822 
L 240.758709 277.980149 
L 241.552794 273.882281 
L 243.140963 263.314095 
L 244.729132 251.451845 
L 246.317301 238.942563 
L 248.699555 220.178641 
L 250.287724 210.473164 
L 251.081809 206.375296 
L 252.53763 200.55201 
L 253.331715 198.610914 
L 254.919884 195.80711 
L 255.713969 194.944401 
L 256.508053 193.650337 
L 257.302138 193.003305 
L 259.684392 190.415178 
L 260.478476 189.983823 
L 261.272561 189.336792 
L 262.066646 188.905437 
L 262.86073 188.905437 
L 263.654815 189.336792 
L 265.242984 190.630855 
L 266.037069 191.06221 
L 266.831153 191.709242 
L 267.625238 191.924919 
L 269.213407 191.924919 
L 270.801576 190.630855 
L 271.595661 189.768146 
L 273.977915 187.827051 
L 274.771999 188.042728 
L 276.360168 189.768146 
L 277.154253 190.415178 
L 278.742422 191.277887 
L 280.330591 191.277887 
L 281.124676 190.846532 
L 281.918761 189.983823 
L 282.712845 188.905437 
L 285.095099 186.964342 
L 285.889184 187.180019 
L 286.683268 188.042728 
L 289.859606 190.630855 
L 291.447776 191.06221 
L 292.24186 190.630855 
L 293.830029 189.336792 
L 294.624114 188.905437 
L 295.418199 188.68976 
L 296.212283 188.258405 
L 297.006368 189.121114 
L 299.388622 192.356273 
L 300.182706 193.003305 
L 300.976791 193.218982 
L 301.770875 193.218982 
L 302.56496 193.43466 
L 303.359045 192.787628 
L 304.153129 192.356273 
L 305.741298 191.06221 
L 306.535383 191.277887 
L 307.329468 192.356273 
L 308.123552 193.650337 
L 308.917637 194.728723 
L 310.505806 196.454141 
L 312.093975 196.885496 
L 312.88806 196.454141 
L 314.476229 194.297369 
L 315.270314 193.650337 
L 316.064398 192.787628 
L 316.858483 193.003305 
L 320.034821 196.454141 
L 320.828906 196.454141 
L 322.417075 196.022787 
L 324.005244 193.866014 
L 325.593413 192.140596 
L 326.387498 192.356273 
L 327.975667 194.081692 
L 328.769752 195.160078 
L 329.563836 196.022787 
L 331.152005 196.022787 
L 331.94609 195.80711 
L 332.740175 194.728723 
L 333.534259 193.866014 
L 334.328344 192.787628 
L 335.122428 192.356273 
L 335.916513 192.787628 
L 338.298767 196.022787 
L 339.092851 196.669819 
L 340.681021 196.669819 
L 341.475105 196.022787 
L 343.063274 193.866014 
L 343.857359 193.003305 
L 344.651444 193.218982 
L 345.445528 193.866014 
L 347.827782 198.17956 
L 348.621867 199.257946 
L 350.210036 199.689301 
L 351.00412 199.042269 
L 352.59229 197.316851 
L 353.386374 196.885496 
L 354.180459 197.532528 
L 354.974543 199.042269 
L 356.562713 204.002846 
L 357.356797 206.375296 
L 358.944966 209.394778 
L 359.739051 211.335873 
L 361.32722 213.061291 
L 362.121305 214.355355 
L 363.709474 221.04135 
L 367.679897 245.197204 
L 368.473981 249.942104 
L 370.062151 257.275131 
L 370.856235 261.804354 
L 373.238489 276.686085 
L 374.032574 281.215308 
L 374.826658 285.097499 
L 375.620743 288.332658 
L 376.414827 290.705108 
L 377.208912 291.783494 
L 429.221453 291.783494 
L 429.88319 290.705108 
L 430.147885 290.058076 
L 430.677275 290.058076 
L 430.809622 290.273753 
L 430.94197 290.705108 
L 431.206665 290.273753 
L 431.339012 289.842399 
L 431.339012 289.411044 
L 431.471359 288.548335 
L 431.736054 288.548335 
L 431.736054 289.195367 
L 431.868402 290.058076 
L 431.868402 289.842399 
L 431.868402 289.195367 
L 432.000749 288.97969 
L 432.000749 287.469949 
L 432.000749 287.469949 
L 432.133097 287.469949 
L 432.133097 289.195367 
L 432.133097 285.960208 
L 432.133097 286.822917 
" clip-path="url(#pb7057678b3)" style="fill: none; stroke: #1f77b4; stroke-width: 1.5; stroke-linecap: square"/>
   </g>
   <g id="line2d_28">
    <path d="M 74.795028 291.783494 
L 358.150882 291.783494 
L 359.739051 291.35214 
L 362.121305 290.058076 
L 364.503559 290.058076 
L 365.297643 290.273753 
L 366.091728 290.705108 
L 366.885812 290.920785 
L 368.473981 290.058076 
L 369.268066 289.195367 
L 370.062151 287.901303 
L 370.856235 286.822917 
L 373.238489 286.822917 
L 374.826658 288.548335 
L 375.620743 288.548335 
L 376.414827 288.116981 
L 377.208912 287.469949 
L 378.797081 283.803435 
L 379.591166 281.86234 
L 381.179335 281.86234 
L 381.97342 282.509372 
L 383.561589 286.175885 
L 384.355673 286.175885 
L 385.149758 285.528854 
L 385.943843 285.097499 
L 388.326096 276.039054 
L 389.914266 276.039054 
L 390.70835 277.764472 
L 392.296519 282.940726 
L 393.090604 282.725049 
L 394.678773 280.999631 
L 396.266942 272.803895 
L 397.061027 271.725508 
L 398.649196 271.725508 
L 399.443281 274.960667 
L 400.237365 276.901763 
L 401.03145 280.352599 
L 402.487272 287.901303 
L 403.281356 285.744531 
L 404.737178 274.313636 
L 406.193 263.314095 
L 407.648822 261.372999 
L 408.442906 260.51029 
L 409.104643 262.020031 
L 410.428118 270.431445 
L 411.222202 270.00009 
L 411.883939 268.490349 
L 413.207414 255.76539 
L 413.869151 248.648041 
L 414.398541 247.353977 
L 415.060278 246.275591 
L 415.722015 245.412882 
L 416.913142 254.471327 
L 417.442532 254.039972 
L 418.633658 251.236168 
L 419.692438 237.217145 
L 421.280607 233.550632 
L 422.207039 243.471786 
L 422.604081 242.177722 
L 423.133471 241.530691 
L 423.530513 239.805273 
L 424.324598 225.570573 
L 425.515725 222.119736 
L 426.30981 232.9036 
L 426.574504 231.825214 
L 426.971547 230.746827 
L 427.236242 229.668441 
L 428.162674 213.708323 
L 428.692063 211.120196 
L 429.221453 221.688382 
L 429.353801 219.531609 
L 429.88319 216.29645 
L 430.147885 201.199041 
L 430.41258 200.120655 
L 430.677275 197.748205 
L 430.94197 209.610455 
L 431.206665 206.80665 
L 431.339012 205.728264 
L 431.339012 198.395237 
L 431.471359 191.06221 
L 431.603707 190.415178 
L 431.603707 189.552469 
L 431.736054 188.68976 
L 431.736054 195.591432 
L 431.868402 201.630396 
L 431.868402 199.257946 
L 432.000749 198.610914 
L 432.000749 183.94486 
L 432.133097 183.513505 
L 432.133097 197.748205 
L 432.133097 175.533446 
L 432.133097 179.19996 
" clip-path="url(#pb7057678b3)" style="fill: none; stroke: #ff7f0e; stroke-width: 1.5; stroke-linecap: square"/>
   </g>
   <g id="line2d_29">
    <path d="M 74.795028 291.783494 
L 369.268066 291.783494 
L 370.062151 291.567817 
L 374.826658 291.567817 
L 375.620743 290.705108 
L 376.414827 290.058076 
L 378.002997 287.901303 
L 378.797081 287.038594 
L 381.179335 287.038594 
L 381.97342 287.901303 
L 383.561589 290.058076 
L 384.355673 289.195367 
L 385.149758 288.116981 
L 387.532012 281.646663 
L 389.914266 281.646663 
L 392.296519 287.469949 
L 393.884689 285.313176 
L 395.472858 278.411504 
L 396.266942 274.529313 
L 398.649196 274.529313 
L 399.443281 276.039054 
L 400.237365 278.195826 
L 401.03145 281.215308 
L 402.487272 287.901303 
L 404.075441 277.548795 
L 404.737178 272.37254 
L 405.531263 268.490349 
L 406.193 264.176804 
L 408.442906 261.588677 
L 410.428118 272.156863 
L 411.883939 269.353058 
L 413.869151 251.236168 
L 414.398541 250.157781 
L 415.722015 248.001009 
L 416.913142 255.549713 
L 418.633658 250.804813 
L 419.692438 237.6485 
L 421.280607 234.197664 
L 422.207039 242.609077 
L 423.133471 240.02095 
L 423.530513 238.295532 
L 423.927556 230.746827 
L 424.324598 225.354896 
L 425.515725 221.904059 
L 426.30981 230.746827 
L 426.971547 228.1587 
L 427.236242 224.923541 
L 427.633284 217.374837 
L 427.897979 209.394778 
L 428.692063 205.728264 
L 429.221453 215.218064 
L 429.353801 213.924 
L 429.88319 212.198582 
L 430.147885 199.904978 
L 430.677275 196.885496 
L 430.94197 207.885037 
L 431.206665 206.590973 
L 431.339012 203.140137 
L 431.339012 196.238464 
L 431.603707 192.140596 
L 431.736054 191.493564 
L 431.736054 197.316851 
L 431.868402 202.708782 
L 431.868402 202.06175 
L 432.000749 197.316851 
L 432.000749 187.180019 
L 432.133097 186.748664 
L 432.133097 198.17956 
L 432.133097 178.337251 
L 432.133097 181.57241 
" clip-path="url(#pb7057678b3)" style="fill: none; stroke: #2ca02c; stroke-width: 1.5; stroke-linecap: square"/>
   </g>
   <g id="line2d_30">
    <path d="M 74.795028 164.318228 
L 74.796458 164.102551 
L 74.847967 165.612292 
L 74.886507 165.396615 
L 74.911335 165.612292 
L 74.940346 165.180937 
L 74.973697 165.396615 
L 75.011814 165.396615 
L 75.15819 164.533906 
L 75.21854 164.533906 
L 75.439163 164.102551 
L 75.52691 164.318228 
L 75.6222 164.102551 
L 75.725431 164.318228 
L 75.957171 164.102551 
L 76.224381 164.102551 
L 76.37261 163.886874 
L 76.530103 163.455519 
L 76.696861 163.886874 
L 77.935633 162.377133 
L 78.181799 162.377133 
L 78.4412 161.514424 
L 78.995736 161.083069 
L 79.289547 161.083069 
L 79.915551 159.573329 
L 80.246419 159.357651 
L 80.587876 158.063588 
L 80.942567 158.279265 
L 82.076784 155.691138 
L 83.319527 153.750042 
L 83.756273 153.318688 
L 84.206254 151.808947 
L 84.668147 151.161915 
L 85.141951 150.083529 
L 86.123969 149.22082 
L 87.154955 147.926756 
L 87.686992 146.84837 
L 89.353246 145.554306 
L 89.935575 144.907274 
L 90.531138 144.907274 
L 91.139936 144.044565 
L 92.370767 144.044565 
L 93.006035 144.260242 
L 93.654538 144.044565 
L 94.30304 144.260242 
L 94.964777 144.260242 
L 95.639749 144.044565 
L 96.327956 144.260242 
L 97.016162 144.260242 
L 97.704369 144.47592 
L 98.419045 144.260242 
L 99.133721 144.691597 
L 99.848397 145.554306 
L 100.576308 145.985661 
L 101.304219 146.201338 
L 102.045365 147.064047 
L 102.78651 147.711079 
L 103.540891 148.573788 
L 104.295271 149.22082 
L 105.049652 149.652174 
L 105.817267 149.652174 
L 106.584882 150.514883 
L 107.365732 150.946238 
L 108.133347 151.59327 
L 110.475896 152.240301 
L 111.269981 152.887333 
L 112.064065 153.318688 
L 113.639 153.750042 
L 115.227169 154.612751 
L 116.021254 154.612751 
L 116.815338 154.828429 
L 117.609423 155.259783 
L 118.403507 155.259783 
L 119.991677 155.691138 
L 120.785761 155.47546 
L 121.579846 155.47546 
L 123.168015 156.338169 
L 123.9621 156.122492 
L 126.344353 157.416556 
L 127.138438 158.063588 
L 127.932523 158.279265 
L 128.726607 158.710619 
L 129.520692 158.926297 
L 130.314776 159.573329 
L 131.108861 159.789006 
L 131.902946 160.22036 
L 132.69703 160.867392 
L 133.491115 161.730101 
L 134.285199 163.024165 
L 135.079284 164.102551 
L 136.667453 167.984742 
L 137.461538 170.572869 
L 138.255622 173.592351 
L 139.843792 181.356733 
L 141.431961 192.356273 
L 143.02013 205.943941 
L 144.608299 221.257027 
L 149.372807 272.156863 
L 150.166891 278.411504 
L 150.960976 283.587758 
L 151.755061 287.469949 
L 152.549145 290.058076 
L 153.34323 291.35214 
L 154.137314 291.783494 
L 243.140963 291.783494 
L 243.935047 291.567817 
L 244.729132 290.705108 
L 245.523217 289.626722 
L 246.317301 288.116981 
L 247.111386 286.175885 
L 248.699555 280.568276 
L 250.287724 273.235249 
L 251.875893 264.823836 
L 253.331715 255.76539 
L 254.919884 246.922622 
L 257.302138 231.393859 
L 258.890307 222.551091 
L 259.684392 219.315932 
L 260.478476 217.374837 
L 261.272561 216.080773 
L 262.066646 217.159159 
L 262.86073 220.178641 
L 263.654815 224.707864 
L 264.448899 231.393859 
L 266.037069 248.648041 
L 267.625238 266.333577 
L 268.419322 274.097958 
L 269.213407 280.568276 
L 270.007492 285.528854 
L 270.801576 288.97969 
L 271.595661 291.136463 
L 272.389745 291.783494 
L 366.091728 291.783494 
L 366.885812 290.489431 
L 367.679897 288.764013 
L 368.473981 285.744531 
L 369.268066 281.430985 
L 370.062151 276.039054 
L 371.65032 262.020031 
L 373.238489 244.981527 
L 374.826658 223.198123 
L 377.208912 183.082151 
L 379.591166 140.809406 
L 380.38525 130.24122 
L 381.179335 121.398452 
L 381.97342 115.575166 
L 382.767504 111.045943 
L 383.561589 108.673493 
L 384.355673 105.869689 
L 385.149758 103.928593 
L 385.943843 102.63453 
L 386.737927 100.693434 
L 387.532012 99.39937 
L 388.326096 98.968016 
L 389.120181 98.320984 
L 389.914266 97.242598 
L 390.70835 97.88963 
L 391.502435 98.752339 
L 392.296519 99.183693 
L 393.884689 96.379889 
L 396.266942 88.615507 
L 397.061027 87.321443 
L 397.855112 86.458734 
L 398.649196 85.380348 
L 399.443281 85.811703 
L 400.237365 85.380348 
L 402.487272 87.968475 
L 404.075441 81.929512 
L 404.737178 78.694353 
L 406.193 73.518098 
L 407.648822 71.577003 
L 408.442906 71.145648 
L 410.428118 76.53758 
L 411.883939 74.16513 
L 413.869151 63.381267 
L 414.398541 62.30288 
L 415.060278 61.440171 
L 415.722015 61.440171 
L 416.913142 66.400748 
L 417.442532 65.538039 
L 418.633658 64.243976 
L 419.163048 61.655848 
L 419.692438 58.205012 
L 420.221828 57.342303 
L 420.751217 57.342303 
L 421.280607 56.910949 
L 422.207039 64.67533 
L 422.604081 64.67533 
L 423.133471 64.028298 
L 423.530513 64.243976 
L 424.324598 58.420689 
L 424.72164 59.067721 
L 425.118683 59.499076 
L 425.515725 59.283398 
L 426.30981 67.263457 
L 426.574504 66.832103 
L 426.971547 66.400748 
L 427.236242 65.753717 
L 427.633284 61.224494 
L 427.897979 56.910949 
L 428.692063 53.891467 
L 429.221453 61.224494 
L 429.353801 60.146108 
L 429.88319 58.636367 
L 430.147885 48.93089 
L 430.544927 48.499535 
L 430.677275 48.068181 
L 430.94197 57.126626 
L 431.339012 55.18553 
L 431.339012 50.009276 
L 431.471359 43.970312 
L 431.603707 43.323281 
L 431.603707 41.81354 
L 431.736054 41.81354 
L 431.736054 46.127085 
L 431.868402 50.656308 
L 431.868402 50.009276 
L 432.000749 50.656308 
L 432.000749 40.950831 
L 432.000749 41.597862 
L 432.133097 41.597862 
L 432.133097 53.028758 
L 432.133097 38.578381 
L 432.133097 41.81354 
" clip-path="url(#pb7057678b3)" style="fill: none; stroke: #d62728; stroke-width: 1.5; stroke-linecap: square"/>
   </g>
   <g id="patch_3">
    <path d="M 56.928125 304.44375 
L 56.928125 25.918125 
" style="fill: none; stroke: #000000; stroke-width: 0.8; stroke-linejoin: miter; stroke-linecap: square"/>
   </g>
   <g id="patch_4">
    <path d="M 450 304.44375 
L 450 25.918125 
" style="fill: none; stroke: #000000; stroke-width: 0.8; stroke-linejoin: miter; stroke-linecap: square"/>
   </g>
   <g id="patch_5">
    <path d="M 56.928125 304.44375 
L 450 304.44375 
" style="fill: none; stroke: #000000; stroke-width: 0.8; stroke-linejoin: miter; stroke-linecap: square"/>
   </g>
   <g id="patch_6">
    <path d="M 56.928125 25.918125 
L 450 25.918125 
" style="fill: none; stroke: #000000; stroke-width: 0.8; stroke-linejoin: miter; stroke-linecap: square"/>
   </g>
   <g id="text_16">
    <!-- Reflector Raw Value -->
    <g transform="translate(193.704062 19.918125)scale(0.12 -0.12)">
     <use xlink:href="#DejaVuSans-52"/>
     <use xlink:href="#DejaVuSans-65" x="64.982422"/>
     <use xlink:href="#DejaVuSans-66" x="126.505859"/>
     <use xlink:href="#DejaVuSans-6c" x="161.710938"/>
     <use xlink:href="#DejaVuSans-65" x="189.494141"/>
     <use xlink:href="#DejaVuSans-63" x="251.017578"/>
     <use xlink:href="#DejaVuSans-74" x="305.998047"/>
     <use xlink:href="#DejaVuSans-6f" x="345.207031"/>
     <use xlink:href="#DejaVuSans-72" x="406.388672"/>
     <use xlink:href="#DejaVuSans-20" x="447.501953"/>
     <use xlink:href="#DejaVuSans-52" x="479.289062"/>
     <use xlink:href="#DejaVuSans-61" x="546.521484"/>
     <use xlink:href="#DejaVuSans-77" x="607.800781"/>
     <use xlink:href="#DejaVuSans-20" x="689.587891"/>
     <use xlink:href="#DejaVuSans-56" x="721.375"/>
     <use xlink:href="#DejaVuSans-61" x="782.033203"/>
     <use xlink:href="#DejaVuSans-6c" x="843.3125"/>
     <use xlink:href="#DejaVuSans-75" x="871.095703"/>
     <use xlink:href="#DejaVuSans-65" x="934.474609"/>
    </g>
   </g>
   <g id="legend_1">
    <g id="patch_7">
     <path d="M 63.928125 92.630625 
L 150.728125 92.630625 
Q 152.728125 92.630625 152.728125 90.630625 
L 152.728125 32.918125 
Q 152.728125 30.918125 150.728125 30.918125 
L 63.928125 30.918125 
Q 61.928125 30.918125 61.928125 32.918125 
L 61.928125 90.630625 
Q 61.928125 92.630625 63.928125 92.630625 
z
" style="fill: #ffffff; opacity: 0.8; stroke: #cccccc; stroke-linejoin: miter"/>
    </g>
    <g id="line2d_31">
     <path d="M 65.928125 39.016562 
L 75.928125 39.016562 
L 85.928125 39.016562 
" style="fill: none; stroke: #1f77b4; stroke-width: 1.5; stroke-linecap: square"/>
    </g>
    <g id="text_17">
     <!-- Left Side -->
     <g transform="translate(93.928125 42.516562)scale(0.1 -0.1)">
      <defs>
       <path id="DejaVuSans-4c" d="M 628 4666 
L 1259 4666 
L 1259 531 
L 3531 531 
L 3531 0 
L 628 0 
L 628 4666 
z
" transform="scale(0.015625)"/>
       <path id="DejaVuSans-53" d="M 3425 4513 
L 3425 3897 
Q 3066 4069 2747 4153 
Q 2428 4238 2131 4238 
Q 1616 4238 1336 4038 
Q 1056 3838 1056 3469 
Q 1056 3159 1242 3001 
Q 1428 2844 1947 2747 
L 2328 2669 
Q 3034 2534 3370 2195 
Q 3706 1856 3706 1288 
Q 3706 609 3251 259 
Q 2797 -91 1919 -91 
Q 1588 -91 1214 -16 
Q 841 59 441 206 
L 441 856 
Q 825 641 1194 531 
Q 1563 422 1919 422 
Q 2459 422 2753 634 
Q 3047 847 3047 1241 
Q 3047 1584 2836 1778 
Q 2625 1972 2144 2069 
L 1759 2144 
Q 1053 2284 737 2584 
Q 422 2884 422 3419 
Q 422 4038 858 4394 
Q 1294 4750 2059 4750 
Q 2388 4750 2728 4690 
Q 3069 4631 3425 4513 
z
" transform="scale(0.015625)"/>
       <path id="DejaVuSans-64" d="M 2906 2969 
L 2906 4863 
L 3481 4863 
L 3481 0 
L 2906 0 
L 2906 525 
Q 2725 213 2448 61 
Q 2172 -91 1784 -91 
Q 1150 -91 751 415 
Q 353 922 353 1747 
Q 353 2572 751 3078 
Q 1150 3584 1784 3584 
Q 2172 3584 2448 3432 
Q 2725 3281 2906 2969 
z
M 947 1747 
Q 947 1113 1208 752 
Q 1469 391 1925 391 
Q 2381 391 2643 752 
Q 2906 1113 2906 1747 
Q 2906 2381 2643 2742 
Q 2381 3103 1925 3103 
Q 1469 3103 1208 2742 
Q 947 2381 947 1747 
z
" transform="scale(0.015625)"/>
      </defs>
      <use xlink:href="#DejaVuSans-4c"/>
      <use xlink:href="#DejaVuSans-65" x="53.962891"/>
      <use xlink:href="#DejaVuSans-66" x="115.486328"/>
      <use xlink:href="#DejaVuSans-74" x="148.941406"/>
      <use xlink:href="#DejaVuSans-20" x="188.150391"/>
      <use xlink:href="#DejaVuSans-53" x="219.9375"/>
      <use xlink:href="#DejaVuSans-69" x="283.414062"/>
      <use xlink:href="#DejaVuSans-64" x="311.197266"/>
      <use xlink:href="#DejaVuSans-65" x="374.673828"/>
     </g>
    </g>
    <g id="line2d_32">
     <path d="M 65.928125 53.694687 
L 75.928125 53.694687 
L 85.928125 53.694687 
" style="fill: none; stroke: #ff7f0e; stroke-width: 1.5; stroke-linecap: square"/>
    </g>
    <g id="text_18">
     <!-- Left Front -->
     <g transform="translate(93.928125 57.194687)scale(0.1 -0.1)">
      <defs>
       <path id="DejaVuSans-46" d="M 628 4666 
L 3309 4666 
L 3309 4134 
L 1259 4134 
L 1259 2759 
L 3109 2759 
L 3109 2228 
L 1259 2228 
L 1259 0 
L 628 0 
L 628 4666 
z
" transform="scale(0.015625)"/>
      </defs>
      <use xlink:href="#DejaVuSans-4c"/>
      <use xlink:href="#DejaVuSans-65" x="53.962891"/>
      <use xlink:href="#DejaVuSans-66" x="115.486328"/>
      <use xlink:href="#DejaVuSans-74" x="148.941406"/>
      <use xlink:href="#DejaVuSans-20" x="188.150391"/>
      <use xlink:href="#DejaVuSans-46" x="219.9375"/>
      <use xlink:href="#DejaVuSans-72" x="270.207031"/>
      <use xlink:href="#DejaVuSans-6f" x="309.070312"/>
      <use xlink:href="#DejaVuSans-6e" x="370.251953"/>
      <use xlink:href="#DejaVuSans-74" x="433.630859"/>
     </g>
    </g>
    <g id="line2d_33">
     <path d="M 65.928125 68.372812 
L 75.928125 68.372812 
L 85.928125 68.372812 
" style="fill: none; stroke: #2ca02c; stroke-width: 1.5; stroke-linecap: square"/>
    </g>
    <g id="text_19">
     <!-- Right Front -->
     <g transform="translate(93.928125 71.872812)scale(0.1 -0.1)">
      <defs>
       <path id="DejaVuSans-67" d="M 2906 1791 
Q 2906 2416 2648 2759 
Q 2391 3103 1925 3103 
Q 1463 3103 1205 2759 
Q 947 2416 947 1791 
Q 947 1169 1205 825 
Q 1463 481 1925 481 
Q 2391 481 2648 825 
Q 2906 1169 2906 1791 
z
M 3481 434 
Q 3481 -459 3084 -895 
Q 2688 -1331 1869 -1331 
Q 1566 -1331 1297 -1286 
Q 1028 -1241 775 -1147 
L 775 -588 
Q 1028 -725 1275 -790 
Q 1522 -856 1778 -856 
Q 2344 -856 2625 -561 
Q 2906 -266 2906 331 
L 2906 616 
Q 2728 306 2450 153 
Q 2172 0 1784 0 
Q 1141 0 747 490 
Q 353 981 353 1791 
Q 353 2603 747 3093 
Q 1141 3584 1784 3584 
Q 2172 3584 2450 3431 
Q 2728 3278 2906 2969 
L 2906 3500 
L 3481 3500 
L 3481 434 
z
" transform="scale(0.015625)"/>
       <path id="DejaVuSans-68" d="M 3513 2113 
L 3513 0 
L 2938 0 
L 2938 2094 
Q 2938 2591 2744 2837 
Q 2550 3084 2163 3084 
Q 1697 3084 1428 2787 
Q 1159 2491 1159 1978 
L 1159 0 
L 581 0 
L 581 4863 
L 1159 4863 
L 1159 2956 
Q 1366 3272 1645 3428 
Q 1925 3584 2291 3584 
Q 2894 3584 3203 3211 
Q 3513 2838 3513 2113 
z
" transform="scale(0.015625)"/>
      </defs>
      <use xlink:href="#DejaVuSans-52"/>
      <use xlink:href="#DejaVuSans-69" x="69.482422"/>
      <use xlink:href="#DejaVuSans-67" x="97.265625"/>
      <use xlink:href="#DejaVuSans-68" x="160.742188"/>
      <use xlink:href="#DejaVuSans-74" x="224.121094"/>
      <use xlink:href="#DejaVuSans-20" x="263.330078"/>
      <use xlink:href="#DejaVuSans-46" x="295.117188"/>
      <use xlink:href="#DejaVuSans-72" x="345.386719"/>
      <use xlink:href="#DejaVuSans-6f" x="384.25"/>
      <use xlink:href="#DejaVuSans-6e" x="445.431641"/>
      <use xlink:href="#DejaVuSans-74" x="508.810547"/>
     </g>
    </g>
    <g id="line2d_34">
     <path d="M 65.928125 83.050937 
L 75.928125 83.050937 
L 85.928125 83.050937 
" style="fill: none; stroke: #d62728; stroke-width: 1.5; stroke-linecap: square"/>
    </g>
    <g id="text_20">
     <!-- Right Side -->
     <g transform="translate(93.928125 86.550937)scale(0.1 -0.1)">
      <use xlink:href="#DejaVuSans-52"/>
      <use xlink:href="#DejaVuSans-69" x="69.482422"/>
      <use xlink:href="#DejaVuSans-67" x="97.265625"/>
      <use xlink:href="#DejaVuSans-68" x="160.742188"/>
      <use xlink:href="#DejaVuSans-74" x="224.121094"/>
      <use xlink:href="#DejaVuSans-20" x="263.330078"/>
      <use xlink:href="#DejaVuSans-53" x="295.117188"/>
      <use xlink:href="#DejaVuSans-69" x="358.59375"/>
      <use xlink:href="#DejaVuSans-64" x="386.376953"/>
      <use xlink:href="#DejaVuSans-65" x="449.853516"/>
     </g>
    </g>
   </g>
  </g>
 </g>
 <defs>
  <clipPath id="pb7057678b3">
   <rect x="56.928125" y="25.918125" width="393.071875" height="278.525625"/>
  </clipPath>
 </defs>
</svg>
