<?xml version="1.0" encoding="utf-8" standalone="no"?>
<!DOCTYPE svg PUBLIC "-//W3C//DTD SVG 1.1//EN"
  "http://www.w3.org/Graphics/SVG/1.1/DTD/svg11.dtd">
<svg xmlns:xlink="http://www.w3.org/1999/xlink" width="460.8pt" height="345.6pt" viewBox="0 0 460.8 345.6" xmlns="http://www.w3.org/2000/svg" version="1.1">
 <metadata>
  <rdf:RDF xmlns:dc="http://purl.org/dc/elements/1.1/" xmlns:cc="http://creativecommons.org/ns#" xmlns:rdf="http://www.w3.org/1999/02/22-rdf-syntax-ns#">
   <cc:Work>
    <dc:type rdf:resource="http://purl.org/dc/dcmitype/StillImage"/>
    <dc:date>2022-01-15T23:47:11.504454</dc:date>
    <dc:format>image/svg+xml</dc:format>
    <dc:creator>
     <cc:Agent>
      <dc:title>Matplotlib v3.5.1, https://matplotlib.org/</dc:title>
     </cc:Agent>
    </dc:creator>
   </cc:Work>
  </rdf:RDF>
 </metadata>
 <defs>
  <style type="text/css">*{stroke-linejoin: round; stroke-linecap: butt}</style>
 </defs>
 <g id="figure_1">
  <g id="patch_1">
   <path d="M 0 345.6 
L 460.8 345.6 
L 460.8 0 
L 0 0 
z
" style="fill: #ffffff"/>
  </g>
  <g id="axes_1">
   <g id="patch_2">
    <path d="M 58.945313 161.67875 
L 450 161.67875 
L 450 48.331875 
L 58.945313 48.331875 
z
" style="fill: #ffffff"/>
   </g>
   <g id="matplotlib.axis_1">
    <g id="xtick_1">
     <g id="line2d_1">
      <path d="M 76.720526 161.67875 
L 76.720526 48.331875 
" clip-path="url(#p512aedbb7d)" style="fill: none; stroke: #b0b0b0; stroke-width: 0.8; stroke-linecap: square"/>
     </g>
     <g id="line2d_2">
      <defs>
       <path id="mefe24dbb5c" d="M 0 0 
L 0 3.5 
" style="stroke: #000000; stroke-width: 0.8"/>
      </defs>
      <g>
       <use xlink:href="#mefe24dbb5c" x="76.720526" y="161.67875" style="stroke: #000000; stroke-width: 0.8"/>
      </g>
     </g>
    </g>
    <g id="xtick_2">
     <g id="line2d_3">
      <path d="M 126.096117 161.67875 
L 126.096117 48.331875 
" clip-path="url(#p512aedbb7d)" style="fill: none; stroke: #b0b0b0; stroke-width: 0.8; stroke-linecap: square"/>
     </g>
     <g id="line2d_4">
      <g>
       <use xlink:href="#mefe24dbb5c" x="126.096117" y="161.67875" style="stroke: #000000; stroke-width: 0.8"/>
      </g>
     </g>
    </g>
    <g id="xtick_3">
     <g id="line2d_5">
      <path d="M 175.471709 161.67875 
L 175.471709 48.331875 
" clip-path="url(#p512aedbb7d)" style="fill: none; stroke: #b0b0b0; stroke-width: 0.8; stroke-linecap: square"/>
     </g>
     <g id="line2d_6">
      <g>
       <use xlink:href="#mefe24dbb5c" x="175.471709" y="161.67875" style="stroke: #000000; stroke-width: 0.8"/>
      </g>
     </g>
    </g>
    <g id="xtick_4">
     <g id="line2d_7">
      <path d="M 224.847301 161.67875 
L 224.847301 48.331875 
" clip-path="url(#p512aedbb7d)" style="fill: none; stroke: #b0b0b0; stroke-width: 0.8; stroke-linecap: square"/>
     </g>
     <g id="line2d_8">
      <g>
       <use xlink:href="#mefe24dbb5c" x="224.847301" y="161.67875" style="stroke: #000000; stroke-width: 0.8"/>
      </g>
     </g>
    </g>
    <g id="xtick_5">
     <g id="line2d_9">
      <path d="M 274.222893 161.67875 
L 274.222893 48.331875 
" clip-path="url(#p512aedbb7d)" style="fill: none; stroke: #b0b0b0; stroke-width: 0.8; stroke-linecap: square"/>
     </g>
     <g id="line2d_10">
      <g>
       <use xlink:href="#mefe24dbb5c" x="274.222893" y="161.67875" style="stroke: #000000; stroke-width: 0.8"/>
      </g>
     </g>
    </g>
    <g id="xtick_6">
     <g id="line2d_11">
      <path d="M 323.598485 161.67875 
L 323.598485 48.331875 
" clip-path="url(#p512aedbb7d)" style="fill: none; stroke: #b0b0b0; stroke-width: 0.8; stroke-linecap: square"/>
     </g>
     <g id="line2d_12">
      <g>
       <use xlink:href="#mefe24dbb5c" x="323.598485" y="161.67875" style="stroke: #000000; stroke-width: 0.8"/>
      </g>
     </g>
    </g>
    <g id="xtick_7">
     <g id="line2d_13">
      <path d="M 372.974077 161.67875 
L 372.974077 48.331875 
" clip-path="url(#p512aedbb7d)" style="fill: none; stroke: #b0b0b0; stroke-width: 0.8; stroke-linecap: square"/>
     </g>
     <g id="line2d_14">
      <g>
       <use xlink:href="#mefe24dbb5c" x="372.974077" y="161.67875" style="stroke: #000000; stroke-width: 0.8"/>
      </g>
     </g>
    </g>
    <g id="xtick_8">
     <g id="line2d_15">
      <path d="M 422.349669 161.67875 
L 422.349669 48.331875 
" clip-path="url(#p512aedbb7d)" style="fill: none; stroke: #b0b0b0; stroke-width: 0.8; stroke-linecap: square"/>
     </g>
     <g id="line2d_16">
      <g>
       <use xlink:href="#mefe24dbb5c" x="422.349669" y="161.67875" style="stroke: #000000; stroke-width: 0.8"/>
      </g>
     </g>
    </g>
   </g>
   <g id="matplotlib.axis_2">
    <g id="ytick_1">
     <g id="line2d_17">
      <path d="M 58.945313 156.565769 
L 450 156.565769 
" clip-path="url(#p512aedbb7d)" style="fill: none; stroke: #b0b0b0; stroke-width: 0.8; stroke-linecap: square"/>
     </g>
     <g id="line2d_18">
      <defs>
       <path id="m84acc07086" d="M 0 0 
L -3.5 0 
" style="stroke: #000000; stroke-width: 0.8"/>
      </defs>
      <g>
       <use xlink:href="#m84acc07086" x="58.945313" y="156.565769" style="stroke: #000000; stroke-width: 0.8"/>
      </g>
     </g>
     <g id="text_1">
      <!-- 0 -->
      <g transform="translate(45.582813 160.364988)scale(0.1 -0.1)">
       <defs>
        <path id="DejaVuSans-30" d="M 2034 4250 
Q 1547 4250 1301 3770 
Q 1056 3291 1056 2328 
Q 1056 1369 1301 889 
Q 1547 409 2034 409 
Q 2525 409 2770 889 
Q 3016 1369 3016 2328 
Q 3016 3291 2770 3770 
Q 2525 4250 2034 4250 
z
M 2034 4750 
Q 2819 4750 3233 4129 
Q 3647 3509 3647 2328 
Q 3647 1150 3233 529 
Q 2819 -91 2034 -91 
Q 1250 -91 836 529 
Q 422 1150 422 2328 
Q 422 3509 836 4129 
Q 1250 4750 2034 4750 
z
" transform="scale(0.015625)"/>
       </defs>
       <use xlink:href="#DejaVuSans-30"/>
      </g>
     </g>
    </g>
    <g id="ytick_2">
     <g id="line2d_19">
      <path d="M 58.945313 117.41584 
L 450 117.41584 
" clip-path="url(#p512aedbb7d)" style="fill: none; stroke: #b0b0b0; stroke-width: 0.8; stroke-linecap: square"/>
     </g>
     <g id="line2d_20">
      <g>
       <use xlink:href="#m84acc07086" x="58.945313" y="117.41584" style="stroke: #000000; stroke-width: 0.8"/>
      </g>
     </g>
     <g id="text_2">
      <!-- 1000 -->
      <g transform="translate(26.495313 121.215059)scale(0.1 -0.1)">
       <defs>
        <path id="DejaVuSans-31" d="M 794 531 
L 1825 531 
L 1825 4091 
L 703 3866 
L 703 4441 
L 1819 4666 
L 2450 4666 
L 2450 531 
L 3481 531 
L 3481 0 
L 794 0 
L 794 531 
z
" transform="scale(0.015625)"/>
       </defs>
       <use xlink:href="#DejaVuSans-31"/>
       <use xlink:href="#DejaVuSans-30" x="63.623047"/>
       <use xlink:href="#DejaVuSans-30" x="127.246094"/>
       <use xlink:href="#DejaVuSans-30" x="190.869141"/>
      </g>
     </g>
    </g>
    <g id="ytick_3">
     <g id="line2d_21">
      <path d="M 58.945313 78.265911 
L 450 78.265911 
" clip-path="url(#p512aedbb7d)" style="fill: none; stroke: #b0b0b0; stroke-width: 0.8; stroke-linecap: square"/>
     </g>
     <g id="line2d_22">
      <g>
       <use xlink:href="#m84acc07086" x="58.945313" y="78.265911" style="stroke: #000000; stroke-width: 0.8"/>
      </g>
     </g>
     <g id="text_3">
      <!-- 2000 -->
      <g transform="translate(26.495313 82.06513)scale(0.1 -0.1)">
       <defs>
        <path id="DejaVuSans-32" d="M 1228 531 
L 3431 531 
L 3431 0 
L 469 0 
L 469 531 
Q 828 903 1448 1529 
Q 2069 2156 2228 2338 
Q 2531 2678 2651 2914 
Q 2772 3150 2772 3378 
Q 2772 3750 2511 3984 
Q 2250 4219 1831 4219 
Q 1534 4219 1204 4116 
Q 875 4013 500 3803 
L 500 4441 
Q 881 4594 1212 4672 
Q 1544 4750 1819 4750 
Q 2544 4750 2975 4387 
Q 3406 4025 3406 3419 
Q 3406 3131 3298 2873 
Q 3191 2616 2906 2266 
Q 2828 2175 2409 1742 
Q 1991 1309 1228 531 
z
" transform="scale(0.015625)"/>
       </defs>
       <use xlink:href="#DejaVuSans-32"/>
       <use xlink:href="#DejaVuSans-30" x="63.623047"/>
       <use xlink:href="#DejaVuSans-30" x="127.246094"/>
       <use xlink:href="#DejaVuSans-30" x="190.869141"/>
      </g>
     </g>
    </g>
    <g id="text_4">
     <!-- reflector value -->
     <g transform="translate(20.415625 141.321719)rotate(-90)scale(0.1 -0.1)">
      <defs>
       <path id="DejaVuSans-72" d="M 2631 2963 
Q 2534 3019 2420 3045 
Q 2306 3072 2169 3072 
Q 1681 3072 1420 2755 
Q 1159 2438 1159 1844 
L 1159 0 
L 581 0 
L 581 3500 
L 1159 3500 
L 1159 2956 
Q 1341 3275 1631 3429 
Q 1922 3584 2338 3584 
Q 2397 3584 2469 3576 
Q 2541 3569 2628 3553 
L 2631 2963 
z
" transform="scale(0.015625)"/>
       <path id="DejaVuSans-65" d="M 3597 1894 
L 3597 1613 
L 953 1613 
Q 991 1019 1311 708 
Q 1631 397 2203 397 
Q 2534 397 2845 478 
Q 3156 559 3463 722 
L 3463 178 
Q 3153 47 2828 -22 
Q 2503 -91 2169 -91 
Q 1331 -91 842 396 
Q 353 884 353 1716 
Q 353 2575 817 3079 
Q 1281 3584 2069 3584 
Q 2775 3584 3186 3129 
Q 3597 2675 3597 1894 
z
M 3022 2063 
Q 3016 2534 2758 2815 
Q 2500 3097 2075 3097 
Q 1594 3097 1305 2825 
Q 1016 2553 972 2059 
L 3022 2063 
z
" transform="scale(0.015625)"/>
       <path id="DejaVuSans-66" d="M 2375 4863 
L 2375 4384 
L 1825 4384 
Q 1516 4384 1395 4259 
Q 1275 4134 1275 3809 
L 1275 3500 
L 2222 3500 
L 2222 3053 
L 1275 3053 
L 1275 0 
L 697 0 
L 697 3053 
L 147 3053 
L 147 3500 
L 697 3500 
L 697 3744 
Q 697 4328 969 4595 
Q 1241 4863 1831 4863 
L 2375 4863 
z
" transform="scale(0.015625)"/>
       <path id="DejaVuSans-6c" d="M 603 4863 
L 1178 4863 
L 1178 0 
L 603 0 
L 603 4863 
z
" transform="scale(0.015625)"/>
       <path id="DejaVuSans-63" d="M 3122 3366 
L 3122 2828 
Q 2878 2963 2633 3030 
Q 2388 3097 2138 3097 
Q 1578 3097 1268 2742 
Q 959 2388 959 1747 
Q 959 1106 1268 751 
Q 1578 397 2138 397 
Q 2388 397 2633 464 
Q 2878 531 3122 666 
L 3122 134 
Q 2881 22 2623 -34 
Q 2366 -91 2075 -91 
Q 1284 -91 818 406 
Q 353 903 353 1747 
Q 353 2603 823 3093 
Q 1294 3584 2113 3584 
Q 2378 3584 2631 3529 
Q 2884 3475 3122 3366 
z
" transform="scale(0.015625)"/>
       <path id="DejaVuSans-74" d="M 1172 4494 
L 1172 3500 
L 2356 3500 
L 2356 3053 
L 1172 3053 
L 1172 1153 
Q 1172 725 1289 603 
Q 1406 481 1766 481 
L 2356 481 
L 2356 0 
L 1766 0 
Q 1100 0 847 248 
Q 594 497 594 1153 
L 594 3053 
L 172 3053 
L 172 3500 
L 594 3500 
L 594 4494 
L 1172 4494 
z
" transform="scale(0.015625)"/>
       <path id="DejaVuSans-6f" d="M 1959 3097 
Q 1497 3097 1228 2736 
Q 959 2375 959 1747 
Q 959 1119 1226 758 
Q 1494 397 1959 397 
Q 2419 397 2687 759 
Q 2956 1122 2956 1747 
Q 2956 2369 2687 2733 
Q 2419 3097 1959 3097 
z
M 1959 3584 
Q 2709 3584 3137 3096 
Q 3566 2609 3566 1747 
Q 3566 888 3137 398 
Q 2709 -91 1959 -91 
Q 1206 -91 779 398 
Q 353 888 353 1747 
Q 353 2609 779 3096 
Q 1206 3584 1959 3584 
z
" transform="scale(0.015625)"/>
       <path id="DejaVuSans-20" transform="scale(0.015625)"/>
       <path id="DejaVuSans-76" d="M 191 3500 
L 800 3500 
L 1894 563 
L 2988 3500 
L 3597 3500 
L 2284 0 
L 1503 0 
L 191 3500 
z
" transform="scale(0.015625)"/>
       <path id="DejaVuSans-61" d="M 2194 1759 
Q 1497 1759 1228 1600 
Q 959 1441 959 1056 
Q 959 750 1161 570 
Q 1363 391 1709 391 
Q 2188 391 2477 730 
Q 2766 1069 2766 1631 
L 2766 1759 
L 2194 1759 
z
M 3341 1997 
L 3341 0 
L 2766 0 
L 2766 531 
Q 2569 213 2275 61 
Q 1981 -91 1556 -91 
Q 1019 -91 701 211 
Q 384 513 384 1019 
Q 384 1609 779 1909 
Q 1175 2209 1959 2209 
L 2766 2209 
L 2766 2266 
Q 2766 2663 2505 2880 
Q 2244 3097 1772 3097 
Q 1472 3097 1187 3025 
Q 903 2953 641 2809 
L 641 3341 
Q 956 3463 1253 3523 
Q 1550 3584 1831 3584 
Q 2591 3584 2966 3190 
Q 3341 2797 3341 1997 
z
" transform="scale(0.015625)"/>
       <path id="DejaVuSans-75" d="M 544 1381 
L 544 3500 
L 1119 3500 
L 1119 1403 
Q 1119 906 1312 657 
Q 1506 409 1894 409 
Q 2359 409 2629 706 
Q 2900 1003 2900 1516 
L 2900 3500 
L 3475 3500 
L 3475 0 
L 2900 0 
L 2900 538 
Q 2691 219 2414 64 
Q 2138 -91 1772 -91 
Q 1169 -91 856 284 
Q 544 659 544 1381 
z
M 1991 3584 
L 1991 3584 
z
" transform="scale(0.015625)"/>
      </defs>
      <use xlink:href="#DejaVuSans-72"/>
      <use xlink:href="#DejaVuSans-65" x="38.863281"/>
      <use xlink:href="#DejaVuSans-66" x="100.386719"/>
      <use xlink:href="#DejaVuSans-6c" x="135.591797"/>
      <use xlink:href="#DejaVuSans-65" x="163.375"/>
      <use xlink:href="#DejaVuSans-63" x="224.898438"/>
      <use xlink:href="#DejaVuSans-74" x="279.878906"/>
      <use xlink:href="#DejaVuSans-6f" x="319.087891"/>
      <use xlink:href="#DejaVuSans-72" x="380.269531"/>
      <use xlink:href="#DejaVuSans-20" x="421.382812"/>
      <use xlink:href="#DejaVuSans-76" x="453.169922"/>
      <use xlink:href="#DejaVuSans-61" x="512.349609"/>
      <use xlink:href="#DejaVuSans-6c" x="573.628906"/>
      <use xlink:href="#DejaVuSans-75" x="601.412109"/>
      <use xlink:href="#DejaVuSans-65" x="664.791016"/>
     </g>
    </g>
   </g>
   <g id="line2d_23">
    <path d="M 76.720526 54.462754 
L 76.74075 53.875505 
L 76.720842 54.580204 
L 76.828954 54.032105 
L 76.85384 53.953805 
L 76.914572 54.071255 
L 77.036529 54.462754 
L 77.0863 54.462754 
L 77.33772 53.718905 
L 77.414746 54.697653 
L 77.497994 53.484006 
L 77.58766 54.188704 
L 77.683942 54.110405 
L 77.787038 54.032105 
L 78.015154 54.462754 
L 78.272894 54.462754 
L 78.414108 55.441502 
L 78.563223 54.854253 
L 78.721225 55.284902 
L 78.888114 54.854253 
L 79.063891 55.754702 
L 79.247568 55.715552 
L 79.643561 56.6943 
L 79.854888 56.8509 
L 81.042865 58.847546 
L 81.307518 59.199895 
L 81.581059 59.121595 
L 81.863487 59.708844 
L 82.454019 60.100344 
L 82.76311 60.139494 
L 83.081089 60.687593 
L 83.406968 60.256943 
L 83.742722 60.530993 
L 84.440893 60.726743 
L 85.173627 60.648443 
L 85.553819 60.335243 
L 85.942899 60.609293 
L 86.339878 60.530993 
L 86.743771 60.335243 
L 87.158526 59.747994 
L 87.583156 60.061194 
L 88.017661 59.552245 
L 88.462041 60.061194 
L 88.916297 59.434795 
L 89.370552 59.473945 
L 90.308688 59.943744 
L 90.792569 59.669694 
L 91.27645 59.826294 
L 91.770206 59.473945 
L 92.787343 59.513095 
L 93.814355 60.217794 
L 94.347612 59.473945 
L 94.880868 59.591395 
L 95.414125 59.865444 
L 95.957256 59.826294 
L 96.500388 60.100344 
L 97.053394 60.100344 
L 97.606401 59.982894 
L 98.732164 60.648443 
L 99.295046 60.217794 
L 99.867803 60.374393 
L 100.44056 60.335243 
L 101.595949 59.708844 
L 102.178581 59.552245 
L 104.528859 59.434795 
L 105.111491 59.082446 
L 105.703998 59.199895 
L 106.296505 59.082446 
L 107.481519 58.260297 
L 108.074026 58.221147 
L 108.666533 57.477298 
L 109.259041 57.164099 
L 109.851548 57.359849 
L 110.444055 57.320699 
L 111.629069 56.968349 
L 112.814083 56.929199 
L 113.40659 55.950451 
L 113.999097 56.107051 
L 115.184112 56.616 
L 115.776619 55.793852 
L 116.369126 55.911301 
L 116.961633 55.715552 
L 118.146647 55.715552 
L 118.739154 55.480652 
L 119.331661 55.441502 
L 120.516676 54.854253 
L 122.294197 54.971703 
L 123.479211 54.736803 
L 124.664225 54.697653 
L 125.256732 55.089153 
L 126.441747 55.010853 
L 127.034254 55.089153 
L 127.626761 54.893403 
L 128.219268 55.284902 
L 128.811775 55.206603 
L 129.404282 55.324052 
L 129.996789 55.245752 
L 130.589296 55.637252 
L 131.181803 55.558952 
L 132.366818 55.676402 
L 132.959325 55.833001 
L 133.551832 55.872151 
L 134.144339 56.067901 
L 134.736846 56.146201 
L 135.329353 56.5377 
L 135.92186 56.7726 
L 136.514367 56.73345 
L 137.106874 56.929199 
L 138.291889 57.046649 
L 138.884396 57.242399 
L 139.476903 57.751348 
L 140.661917 57.947098 
L 141.254424 58.221147 
L 141.846931 58.221147 
L 142.439438 58.690946 
L 143.031945 58.925846 
L 144.21696 60.178644 
L 144.809467 61.627191 
L 145.401974 63.428088 
L 145.994481 66.716682 
L 146.586988 71.532123 
L 147.772002 88.562342 
L 150.142031 130.687666 
L 150.734538 139.104901 
L 151.327045 145.525489 
L 151.919552 150.41923 
L 152.512059 153.707824 
L 153.104566 155.508721 
L 153.697073 156.526619 
L 223.563536 156.526619 
L 224.156043 156.09597 
L 225.341057 152.533327 
L 225.933564 150.262631 
L 227.118578 143.920342 
L 228.303593 134.641809 
L 229.488607 123.288329 
L 232.451142 85.391198 
L 233.636156 70.749124 
L 234.228664 66.246883 
L 235.413678 61.079092 
L 236.598692 59.004146 
L 237.191199 58.730096 
L 237.783706 58.221147 
L 238.376213 58.221147 
L 238.96872 58.025397 
L 239.561228 58.221147 
L 240.746242 58.260297 
L 241.338749 58.338597 
L 241.931256 58.612646 
L 243.708777 58.025397 
L 244.301284 58.221147 
L 244.893791 58.221147 
L 245.486299 58.338597 
L 246.078806 58.221147 
L 246.671313 58.221147 
L 247.26382 58.377747 
L 247.856327 58.416897 
L 248.448834 58.221147 
L 249.041341 58.534347 
L 249.633848 58.495197 
L 250.226355 58.847546 
L 250.818862 58.456047 
L 251.41137 59.082446 
L 252.003877 59.356495 
L 252.596384 58.886696 
L 253.188891 58.964996 
L 253.781398 59.239045 
L 254.373905 59.121595 
L 254.966412 59.356495 
L 255.558919 59.199895 
L 256.151426 59.239045 
L 256.743933 59.395645 
L 257.336441 58.964996 
L 258.521455 59.473945 
L 259.706469 59.473945 
L 260.298976 59.356495 
L 260.891483 59.904594 
L 261.48399 59.473945 
L 262.076497 59.591395 
L 262.669004 59.395645 
L 263.854019 59.591395 
L 265.039033 59.434795 
L 265.63154 59.708844 
L 266.224047 59.473945 
L 266.816554 59.630545 
L 267.409061 59.395645 
L 268.594076 59.473945 
L 270.371597 59.199895 
L 270.964104 59.043296 
L 271.556611 59.082446 
L 272.149118 58.847546 
L 274.519147 58.847546 
L 276.296668 58.456047 
L 276.889175 58.690946 
L 277.481682 58.651796 
L 278.074189 59.004146 
L 278.666696 58.651796 
L 279.259203 59.004146 
L 279.85171 58.730096 
L 280.444218 58.808396 
L 281.036725 58.730096 
L 283.99926 58.847546 
L 284.591767 59.239045 
L 285.184274 59.434795 
L 285.776781 59.199895 
L 286.369289 59.513095 
L 286.961796 59.434795 
L 287.554303 59.943744 
L 288.14681 59.865444 
L 288.739317 59.513095 
L 289.331824 59.982894 
L 289.924331 59.904594 
L 290.516838 60.217794 
L 291.109345 60.139494 
L 292.29436 60.687593 
L 293.479374 60.687593 
L 294.071881 60.922492 
L 294.664388 60.765893 
L 295.256895 60.844192 
L 295.849402 61.274842 
L 296.441909 61.235692 
L 297.034416 60.805042 
L 297.626924 60.883342 
L 298.219431 60.844192 
L 299.404445 61.353141 
L 299.996952 61.353141 
L 300.589459 60.961642 
L 301.181966 61.353141 
L 301.774473 61.235692 
L 302.36698 61.313992 
L 303.551995 61.079092 
L 304.144502 60.726743 
L 307.107037 60.687593 
L 307.699544 60.335243 
L 308.292051 60.491843 
L 308.884558 60.178644 
L 310.069573 60.765893 
L 310.66208 60.335243 
L 311.254587 60.061194 
L 313.624615 60.022044 
L 314.809629 60.256943 
L 315.402137 60.648443 
L 316.587151 60.922492 
L 317.179658 61.157392 
L 317.772165 61.235692 
L 318.957179 61.97954 
L 319.549686 62.09699 
L 320.142193 62.449339 
L 320.734701 63.193188 
L 321.327208 64.485136 
L 321.919715 66.364332 
L 322.512222 69.261427 
L 323.104729 73.881119 
L 324.289743 90.245789 
L 325.474757 110.094803 
L 326.659772 130.452766 
L 327.844786 145.01654 
L 328.437293 150.066881 
L 329.0298 153.668674 
L 329.622307 155.97852 
L 330.214814 156.526619 
L 382.355439 156.448319 
L 384.13296 155.93937 
L 384.725468 156.526619 
L 387.688003 156.526619 
L 388.28051 154.177624 
L 388.873017 154.216773 
L 389.465524 153.668674 
L 390.650539 153.159725 
L 391.243046 154.764873 
L 391.835553 154.686573 
L 392.42806 154.099324 
L 394.205581 152.807376 
L 394.798088 149.792831 
L 397.168117 147.052336 
L 397.760624 148.774933 
L 398.353131 147.991935 
L 400.130652 144.233542 
L 400.723159 142.471795 
L 401.315666 137.578054 
L 401.908174 135.816307 
L 403.093188 130.687666 
L 403.685695 127.633972 
L 404.278202 128.025471 
L 406.055723 116.202192 
L 406.64823 111.465051 
L 407.240737 102.303967 
L 408.425752 92.242436 
L 409.512015 85.743547 
L 410.104522 89.306191 
L 410.697029 90.558989 
L 411.289536 93.730133 
L 412.375799 105.827461 
L 412.869555 109.468404 
L 413.462062 117.924789 
L 413.955818 126.694373 
L 415.042081 141.923696 
L 415.535837 151.006479 
L 416.029593 155.038922 
L 416.6221 156.526619 
L 423.33718 156.526619 
L 423.732185 156.40917 
L 424.423443 156.526619 
L 425.80596 156.526619 
L 426.102214 156.17427 
L 426.398467 156.33087 
L 426.694721 155.93937 
L 426.990974 155.861071 
L 427.287228 156.526619 
L 428.570993 156.526619 
L 428.867247 155.117222 
L 429.064749 155.117222 
L 429.459754 154.608273 
L 429.657256 156.526619 
L 430.546017 156.526619 
L 430.644768 154.060174 
L 430.743519 154.647423 
L 431.039773 154.060174 
L 431.237275 156.526619 
L 431.63228 156.526619 
L 431.63228 153.629525 
L 431.731031 153.629525 
L 431.829782 153.277175 
L 432.027285 156.526619 
L 432.027285 156.526619 
L 432.126036 156.526619 
L 432.224787 151.750328 
L 432.224787 152.220127 
" clip-path="url(#p512aedbb7d)" style="fill: none; stroke: #1f77b4; stroke-width: 1.5; stroke-linecap: square"/>
   </g>
   <g id="line2d_24">
    <path d="M 76.720526 156.526619 
L 342.657463 156.448319 
L 343.24997 156.17427 
L 343.842478 156.37002 
L 344.434985 156.21342 
L 345.027492 156.487469 
L 346.805013 156.526619 
L 347.990027 156.526619 
L 349.175041 155.93937 
L 349.767549 156.01767 
L 350.952563 155.93937 
L 351.54507 155.90022 
L 352.137577 156.526619 
L 355.100112 156.526619 
L 355.69262 155.90022 
L 356.877634 155.821921 
L 358.062648 155.90022 
L 358.655155 155.782771 
L 359.247662 156.526619 
L 361.617691 156.526619 
L 362.210198 155.821921 
L 362.802705 155.743621 
L 363.987719 155.861071 
L 364.580226 155.704471 
L 365.172733 155.861071 
L 365.76524 156.526619 
L 368.135269 156.526619 
L 368.727776 155.782771 
L 369.91279 155.547871 
L 371.097804 155.508721 
L 371.690311 155.312972 
L 372.282818 156.526619 
L 374.652847 156.526619 
L 375.245354 155.273822 
L 375.837861 154.960622 
L 376.430368 154.921472 
L 377.022875 155.156372 
L 377.615382 154.882322 
L 378.207889 155.156372 
L 378.800397 156.526619 
L 381.170425 156.526619 
L 381.762932 154.255923 
L 382.355439 154.451673 
L 382.947946 153.903574 
L 384.13296 153.786124 
L 384.725468 153.551225 
L 385.317975 156.526619 
L 387.688003 156.526619 
L 388.28051 153.159725 
L 388.873017 152.689926 
L 389.465524 152.768226 
L 390.058031 152.298427 
L 390.650539 152.220127 
L 391.243046 156.40917 
L 391.835553 156.526619 
L 393.613074 156.526619 
L 394.205581 156.17427 
L 394.798088 150.928179 
L 395.983103 150.73243 
L 397.168117 149.949431 
L 397.760624 154.921472 
L 398.353131 155.430421 
L 399.538145 154.764873 
L 400.723159 154.451673 
L 401.315666 148.265984 
L 401.908174 147.913635 
L 402.500681 147.757035 
L 403.685695 147.091486 
L 404.278202 153.198875 
L 406.055723 152.376727 
L 406.64823 152.102677 
L 407.240737 145.01654 
L 407.833245 144.664191 
L 408.425752 144.076942 
L 409.018259 143.920342 
L 409.512015 143.411393 
L 410.104522 150.340931 
L 410.697029 149.675382 
L 411.289536 149.479632 
L 412.375799 148.422584 
L 412.869555 140.905798 
L 413.462062 140.514298 
L 414.548325 139.30065 
L 415.042081 139.026601 
L 415.535837 146.347638 
L 416.029593 145.916989 
L 416.6221 145.13399 
L 417.115856 144.93824 
L 417.609612 144.116092 
L 418.103368 135.698857 
L 418.597124 135.111608 
L 418.992128 134.21116 
L 419.485884 133.78051 
L 419.97964 132.801762 
L 420.374645 141.023247 
L 420.868401 140.396848 
L 421.263406 139.653 
L 421.757161 139.30065 
L 422.152166 138.595952 
L 422.547171 129.199969 
L 422.942176 128.221221 
L 423.33718 127.712271 
L 424.12719 125.989675 
L 424.423443 134.446059 
L 424.818448 133.78051 
L 425.114702 132.919212 
L 425.509706 132.645163 
L 425.80596 131.744714 
L 426.102214 121.839782 
L 426.990974 119.412486 
L 427.287228 117.924789 
L 427.583481 126.498624 
L 427.879735 125.519875 
L 428.077237 124.423677 
L 428.373491 123.875578 
L 428.570993 122.74023 
L 429.064749 110.916952 
L 429.657256 107.628358 
L 429.854759 116.906891 
L 430.052261 116.241342 
L 430.151012 114.362146 
L 430.546017 112.796148 
L 430.743519 100.89457 
L 430.941022 100.542221 
L 431.138524 97.449376 
L 431.237275 106.49301 
L 431.336026 105.475112 
L 431.63228 102.617167 
L 431.731031 90.05004 
L 431.928533 86.291646 
L 432.027285 95.844229 
L 432.027285 92.594785 
L 432.126036 91.067938 
L 432.224787 65.737934 
L 432.224787 70.396775 
" clip-path="url(#p512aedbb7d)" style="fill: none; stroke: #ff7f0e; stroke-width: 1.5; stroke-linecap: square"/>
   </g>
   <g id="line2d_25">
    <path d="M 76.720526 156.526619 
L 381.170425 156.526619 
L 381.762932 155.312972 
L 382.355439 155.391271 
L 382.947946 155.078072 
L 383.540453 155.078072 
L 384.13296 154.921472 
L 384.725468 156.526619 
L 387.688003 156.526619 
L 388.28051 153.864424 
L 389.465524 153.629525 
L 390.058031 153.786124 
L 390.650539 153.355475 
L 391.243046 156.526619 
L 394.205581 156.526619 
L 394.798088 151.554578 
L 395.390595 151.750328 
L 395.983103 151.358829 
L 396.57561 151.554578 
L 397.168117 150.928179 
L 397.760624 156.01767 
L 398.945638 155.391271 
L 399.538145 155.117222 
L 400.723159 154.882322 
L 401.315666 149.871131 
L 401.908174 148.853233 
L 402.500681 148.814083 
L 403.093188 148.422584 
L 403.685695 148.422584 
L 404.278202 153.512075 
L 404.870709 153.551225 
L 405.463216 153.042276 
L 406.055723 153.042276 
L 406.64823 152.298427 
L 407.240737 146.543387 
L 407.833245 145.916989 
L 408.425752 145.799539 
L 409.018259 144.93824 
L 409.512015 149.048983 
L 410.104522 150.38008 
L 410.697029 150.223481 
L 411.783292 149.205583 
L 412.375799 148.892383 
L 412.869555 142.550095 
L 413.462062 141.727946 
L 413.955818 141.806246 
L 414.548325 140.905798 
L 415.042081 146.191038 
L 415.535837 147.169786 
L 416.029593 146.308488 
L 416.6221 145.642939 
L 417.115856 145.447189 
L 417.609612 144.664191 
L 418.103368 137.734653 
L 418.597124 136.560155 
L 418.992128 136.873355 
L 419.485884 134.876708 
L 419.97964 141.493047 
L 420.374645 141.062397 
L 420.868401 140.905798 
L 421.263406 139.77045 
L 421.757161 139.53555 
L 422.152166 138.478502 
L 422.547171 130.883416 
L 422.942176 129.513168 
L 423.33718 129.278269 
L 423.732185 127.868871 
L 424.12719 134.641809 
L 424.423443 133.89796 
L 424.818448 133.78051 
L 425.114702 132.331963 
L 425.509706 132.292813 
L 425.80596 130.609366 
L 426.102214 122.93598 
L 426.398467 121.095933 
L 426.694721 121.448283 
L 426.990974 119.451636 
L 427.287228 126.616073 
L 427.879735 124.032178 
L 428.077237 123.875578 
L 428.570993 120.939334 
L 429.064749 110.329703 
L 429.262251 110.799502 
L 429.459754 108.293907 
L 429.657256 116.123892 
L 429.854759 114.009796 
L 430.052261 113.109348 
L 430.151012 113.539997 
L 430.546017 110.133953 
L 430.743519 99.132823 
L 431.039773 98.310675 
L 431.237275 104.457213 
L 431.434777 100.73797 
L 431.533529 101.168619 
L 431.63228 98.310675 
L 431.731031 86.683146 
L 431.829782 87.701044 
L 431.829782 84.295 
L 431.928533 92.829685 
L 431.928533 90.089189 
L 432.027285 90.441539 
L 432.126036 72.510871 
L 432.126036 73.45047 
L 432.224787 80.262557 
L 432.224787 74.272618 
L 432.224787 59.513095 
L 432.224787 66.246883 
" clip-path="url(#p512aedbb7d)" style="fill: none; stroke: #2ca02c; stroke-width: 1.5; stroke-linecap: square"/>
   </g>
   <g id="line2d_26">
    <path d="M 76.720526 151.045629 
L 76.788782 150.928179 
L 76.773101 151.554578 
L 76.828954 151.476278 
L 76.88228 151.476278 
L 77.036529 150.928179 
L 77.0863 151.476278 
L 77.141107 151.241379 
L 77.201148 151.476278 
L 77.26662 151.045629 
L 77.33772 151.163079 
L 77.414746 151.006479 
L 77.497994 151.123929 
L 77.89764 150.88903 
L 78.13958 151.280529 
L 78.272894 150.928179 
L 78.414108 151.202229 
L 78.721225 150.81073 
L 79.063891 151.084779 
L 79.441121 150.69328 
L 79.643561 150.88903 
L 79.854888 150.69328 
L 80.074116 150.88903 
L 80.541209 150.49753 
L 80.788087 150.69328 
L 81.042865 150.38008 
L 81.307518 150.69328 
L 81.581059 150.73243 
L 81.863487 150.928179 
L 82.153816 150.69328 
L 82.454019 150.65413 
L 82.76311 150.49753 
L 83.081089 150.53668 
L 83.406968 150.184331 
L 83.742722 150.262631 
L 84.087364 150.69328 
L 84.440893 150.262631 
L 84.802322 150.41923 
L 85.173627 150.41923 
L 85.553819 150.73243 
L 85.942899 150.49753 
L 86.339878 150.69328 
L 86.743771 150.38008 
L 87.158526 150.38008 
L 87.583156 150.77158 
L 88.017661 150.262631 
L 88.916297 150.61498 
L 89.370552 150.262631 
L 89.834683 150.262631 
L 90.792569 150.57583 
L 91.27645 150.88903 
L 91.770206 150.301781 
L 92.787343 150.65413 
L 93.814355 150.61498 
L 94.880868 150.53668 
L 95.414125 150.57583 
L 95.957256 150.340931 
L 96.500388 150.49753 
L 97.053394 150.84988 
L 97.606401 150.38008 
L 99.295046 150.49753 
L 99.867803 150.65413 
L 100.44056 151.123929 
L 101.023192 150.53668 
L 101.595949 150.967329 
L 102.178581 150.88903 
L 102.761213 151.358829 
L 103.343845 151.084779 
L 104.528859 150.928179 
L 105.111491 151.163079 
L 105.703998 150.967329 
L 106.296505 151.280529 
L 106.889012 150.81073 
L 108.074026 151.476278 
L 109.259041 151.045629 
L 109.851548 151.319679 
L 110.444055 151.319679 
L 111.036562 151.202229 
L 111.629069 151.397979 
L 112.221576 151.319679 
L 113.40659 151.476278 
L 113.999097 151.554578 
L 114.591605 151.476278 
L 115.184112 150.928179 
L 116.961633 151.515428 
L 117.55414 151.123929 
L 118.146647 151.515428 
L 119.331661 151.554578 
L 119.924168 151.358829 
L 120.516676 151.319679 
L 121.109183 151.906928 
L 121.70169 151.319679 
L 122.294197 151.515428 
L 123.479211 151.554578 
L 124.071718 151.750328 
L 127.034254 151.946078 
L 128.219268 152.415877 
L 128.811775 152.729076 
L 130.589296 153.042276 
L 131.181803 153.786124 
L 131.77431 153.825274 
L 133.551832 154.569123 
L 134.144339 155.038922 
L 134.736846 155.078072 
L 135.329353 155.234672 
L 135.92186 155.90022 
L 136.514367 156.01767 
L 137.106874 156.526619 
L 218.823479 156.526619 
L 219.415986 156.37002 
L 220.601 155.508721 
L 221.193507 155.743621 
L 221.786014 155.078072 
L 222.971029 154.295073 
L 223.563536 154.255923 
L 224.156043 153.433775 
L 225.341057 153.355475 
L 225.933564 152.885676 
L 226.526071 152.846526 
L 227.118578 152.415877 
L 229.488607 151.906928 
L 230.673621 151.985228 
L 231.266128 151.789478 
L 231.858635 151.946078 
L 232.451142 151.632878 
L 233.043649 152.063527 
L 233.636156 151.906928 
L 234.228664 151.437129 
L 235.413678 151.554578 
L 236.598692 151.554578 
L 237.191199 151.750328 
L 237.783706 152.102677 
L 238.376213 151.750328 
L 238.96872 151.672028 
L 239.561228 151.946078 
L 240.153735 151.593728 
L 240.746242 151.946078 
L 241.338749 151.750328 
L 241.931256 151.906928 
L 242.523763 151.554578 
L 243.11627 151.906928 
L 243.708777 151.554578 
L 244.893791 151.554578 
L 245.486299 151.750328 
L 246.078806 151.554578 
L 246.671313 151.632878 
L 247.26382 151.554578 
L 247.856327 151.672028 
L 249.041341 151.358829 
L 249.633848 151.750328 
L 250.226355 151.711178 
L 250.818862 151.476278 
L 252.003877 151.319679 
L 252.596384 151.554578 
L 253.188891 151.045629 
L 253.781398 150.928179 
L 254.966412 150.928179 
L 255.558919 151.123929 
L 256.151426 150.928179 
L 256.743933 150.928179 
L 257.336441 151.202229 
L 257.928948 151.123929 
L 258.521455 151.476278 
L 259.113962 151.319679 
L 259.706469 151.358829 
L 260.298976 151.515428 
L 260.891483 151.163079 
L 261.48399 151.084779 
L 262.076497 150.88903 
L 262.669004 151.319679 
L 263.261512 151.397979 
L 263.854019 151.241379 
L 264.446526 150.88903 
L 265.039033 151.280529 
L 265.63154 151.319679 
L 266.816554 150.928179 
L 267.409061 151.554578 
L 268.001568 151.319679 
L 268.594076 151.554578 
L 269.186583 151.554578 
L 269.77909 151.319679 
L 270.371597 151.397979 
L 270.964104 150.928179 
L 271.556611 150.967329 
L 272.149118 151.437129 
L 272.741625 150.928179 
L 273.334132 151.319679 
L 273.926639 151.241379 
L 274.519147 150.928179 
L 275.111654 151.319679 
L 275.704161 151.045629 
L 276.889175 151.711178 
L 279.259203 151.476278 
L 279.85171 150.928179 
L 280.444218 151.554578 
L 281.036725 151.319679 
L 281.629232 150.928179 
L 282.221739 151.202229 
L 282.814246 151.280529 
L 283.406753 150.928179 
L 283.99926 151.358829 
L 284.591767 151.319679 
L 285.184274 151.437129 
L 285.776781 151.358829 
L 286.369289 151.554578 
L 287.554303 151.554578 
L 288.14681 150.928179 
L 288.739317 151.280529 
L 289.331824 150.928179 
L 289.924331 151.163079 
L 291.109345 151.123929 
L 291.701853 150.84988 
L 292.29436 151.123929 
L 292.886867 151.123929 
L 293.479374 151.358829 
L 294.071881 151.319679 
L 294.664388 151.397979 
L 295.849402 151.202229 
L 296.441909 150.77158 
L 297.034416 151.280529 
L 298.219431 151.045629 
L 298.811938 150.81073 
L 299.404445 151.045629 
L 299.996952 151.123929 
L 300.589459 151.515428 
L 301.181966 151.711178 
L 301.774473 151.554578 
L 302.36698 151.828628 
L 304.144502 151.515428 
L 304.737009 151.358829 
L 305.922023 152.063527 
L 306.51453 152.180977 
L 307.107037 151.985228 
L 307.699544 152.572476 
L 308.292051 152.533327 
L 308.884558 153.433775 
L 310.66208 154.255923 
L 311.254587 154.686573 
L 311.847094 154.490823 
L 312.439601 154.764873 
L 313.032108 155.312972 
L 314.217122 155.93937 
L 314.809629 156.526619 
L 394.205581 156.526619 
L 394.798088 155.587021 
L 395.390595 155.861071 
L 396.57561 154.999772 
L 397.168117 155.234672 
L 397.760624 156.526619 
L 400.723159 156.526619 
L 401.315666 155.312972 
L 401.908174 155.430421 
L 402.500681 155.234672 
L 403.093188 155.821921 
L 403.685695 155.861071 
L 404.278202 156.526619 
L 425.80596 156.526619 
L 426.398467 155.97852 
L 426.694721 155.93937 
L 426.990974 156.37002 
L 427.287228 155.93937 
L 427.583481 156.526619 
L 428.570993 156.526619 
L 428.867247 154.960622 
L 429.064749 155.038922 
L 429.262251 154.686573 
L 429.657256 155.195522 
L 429.854759 156.526619 
L 430.546017 156.526619 
L 430.743519 153.981874 
L 430.941022 153.942724 
L 431.138524 154.060174 
L 431.336026 156.526619 
L 431.63228 156.526619 
L 431.731031 153.355475 
L 431.829782 153.433775 
L 431.928533 153.159725 
L 432.027285 156.526619 
L 432.027285 156.526619 
L 432.126036 156.526619 
L 432.224787 151.045629 
L 432.224787 151.554578 
" clip-path="url(#p512aedbb7d)" style="fill: none; stroke: #d62728; stroke-width: 1.5; stroke-linecap: square"/>
   </g>
   <g id="patch_3">
    <path d="M 58.945313 161.67875 
L 58.945313 48.331875 
" style="fill: none; stroke: #000000; stroke-width: 0.8; stroke-linejoin: miter; stroke-linecap: square"/>
   </g>
   <g id="patch_4">
    <path d="M 450 161.67875 
L 450 48.331875 
" style="fill: none; stroke: #000000; stroke-width: 0.8; stroke-linejoin: miter; stroke-linecap: square"/>
   </g>
   <g id="patch_5">
    <path d="M 58.945313 161.67875 
L 450 161.67875 
" style="fill: none; stroke: #000000; stroke-width: 0.8; stroke-linejoin: miter; stroke-linecap: square"/>
   </g>
   <g id="patch_6">
    <path d="M 58.945313 48.331875 
L 450 48.331875 
" style="fill: none; stroke: #000000; stroke-width: 0.8; stroke-linejoin: miter; stroke-linecap: square"/>
   </g>
   <g id="text_5">
    <!-- Reflector Raw Value -->
    <g transform="translate(194.712656 42.331875)scale(0.12 -0.12)">
     <defs>
      <path id="DejaVuSans-52" d="M 2841 2188 
Q 3044 2119 3236 1894 
Q 3428 1669 3622 1275 
L 4263 0 
L 3584 0 
L 2988 1197 
Q 2756 1666 2539 1819 
Q 2322 1972 1947 1972 
L 1259 1972 
L 1259 0 
L 628 0 
L 628 4666 
L 2053 4666 
Q 2853 4666 3247 4331 
Q 3641 3997 3641 3322 
Q 3641 2881 3436 2590 
Q 3231 2300 2841 2188 
z
M 1259 4147 
L 1259 2491 
L 2053 2491 
Q 2509 2491 2742 2702 
Q 2975 2913 2975 3322 
Q 2975 3731 2742 3939 
Q 2509 4147 2053 4147 
L 1259 4147 
z
" transform="scale(0.015625)"/>
      <path id="DejaVuSans-77" d="M 269 3500 
L 844 3500 
L 1563 769 
L 2278 3500 
L 2956 3500 
L 3675 769 
L 4391 3500 
L 4966 3500 
L 4050 0 
L 3372 0 
L 2619 2869 
L 1863 0 
L 1184 0 
L 269 3500 
z
" transform="scale(0.015625)"/>
      <path id="DejaVuSans-56" d="M 1831 0 
L 50 4666 
L 709 4666 
L 2188 738 
L 3669 4666 
L 4325 4666 
L 2547 0 
L 1831 0 
z
" transform="scale(0.015625)"/>
     </defs>
     <use xlink:href="#DejaVuSans-52"/>
     <use xlink:href="#DejaVuSans-65" x="64.982422"/>
     <use xlink:href="#DejaVuSans-66" x="126.505859"/>
     <use xlink:href="#DejaVuSans-6c" x="161.710938"/>
     <use xlink:href="#DejaVuSans-65" x="189.494141"/>
     <use xlink:href="#DejaVuSans-63" x="251.017578"/>
     <use xlink:href="#DejaVuSans-74" x="305.998047"/>
     <use xlink:href="#DejaVuSans-6f" x="345.207031"/>
     <use xlink:href="#DejaVuSans-72" x="406.388672"/>
     <use xlink:href="#DejaVuSans-20" x="447.501953"/>
     <use xlink:href="#DejaVuSans-52" x="479.289062"/>
     <use xlink:href="#DejaVuSans-61" x="546.521484"/>
     <use xlink:href="#DejaVuSans-77" x="607.800781"/>
     <use xlink:href="#DejaVuSans-20" x="689.587891"/>
     <use xlink:href="#DejaVuSans-56" x="721.375"/>
     <use xlink:href="#DejaVuSans-61" x="782.033203"/>
     <use xlink:href="#DejaVuSans-6c" x="843.3125"/>
     <use xlink:href="#DejaVuSans-75" x="871.095703"/>
     <use xlink:href="#DejaVuSans-65" x="934.474609"/>
    </g>
   </g>
   <g id="legend_1">
    <g id="patch_7">
     <path d="M 65.945312 135.861562 
L 133.360938 135.861562 
Q 135.360938 135.861562 135.360938 133.861562 
L 135.360938 76.149062 
Q 135.360938 74.149062 133.360938 74.149062 
L 65.945312 74.149062 
Q 63.945312 74.149062 63.945312 76.149062 
L 63.945312 133.861562 
Q 63.945312 135.861562 65.945312 135.861562 
z
" style="fill: #ffffff; opacity: 0.8; stroke: #cccccc; stroke-linejoin: miter"/>
    </g>
    <g id="line2d_27">
     <path d="M 67.945312 82.2475 
L 77.945312 82.2475 
L 87.945312 82.2475 
" style="fill: none; stroke: #1f77b4; stroke-width: 1.5; stroke-linecap: square"/>
    </g>
    <g id="text_6">
     <!-- L Side -->
     <g transform="translate(95.945312 85.7475)scale(0.1 -0.1)">
      <defs>
       <path id="DejaVuSans-4c" d="M 628 4666 
L 1259 4666 
L 1259 531 
L 3531 531 
L 3531 0 
L 628 0 
L 628 4666 
z
" transform="scale(0.015625)"/>
       <path id="DejaVuSans-53" d="M 3425 4513 
L 3425 3897 
Q 3066 4069 2747 4153 
Q 2428 4238 2131 4238 
Q 1616 4238 1336 4038 
Q 1056 3838 1056 3469 
Q 1056 3159 1242 3001 
Q 1428 2844 1947 2747 
L 2328 2669 
Q 3034 2534 3370 2195 
Q 3706 1856 3706 1288 
Q 3706 609 3251 259 
Q 2797 -91 1919 -91 
Q 1588 -91 1214 -16 
Q 841 59 441 206 
L 441 856 
Q 825 641 1194 531 
Q 1563 422 1919 422 
Q 2459 422 2753 634 
Q 3047 847 3047 1241 
Q 3047 1584 2836 1778 
Q 2625 1972 2144 2069 
L 1759 2144 
Q 1053 2284 737 2584 
Q 422 2884 422 3419 
Q 422 4038 858 4394 
Q 1294 4750 2059 4750 
Q 2388 4750 2728 4690 
Q 3069 4631 3425 4513 
z
" transform="scale(0.015625)"/>
       <path id="DejaVuSans-69" d="M 603 3500 
L 1178 3500 
L 1178 0 
L 603 0 
L 603 3500 
z
M 603 4863 
L 1178 4863 
L 1178 4134 
L 603 4134 
L 603 4863 
z
" transform="scale(0.015625)"/>
       <path id="DejaVuSans-64" d="M 2906 2969 
L 2906 4863 
L 3481 4863 
L 3481 0 
L 2906 0 
L 2906 525 
Q 2725 213 2448 61 
Q 2172 -91 1784 -91 
Q 1150 -91 751 415 
Q 353 922 353 1747 
Q 353 2572 751 3078 
Q 1150 3584 1784 3584 
Q 2172 3584 2448 3432 
Q 2725 3281 2906 2969 
z
M 947 1747 
Q 947 1113 1208 752 
Q 1469 391 1925 391 
Q 2381 391 2643 752 
Q 2906 1113 2906 1747 
Q 2906 2381 2643 2742 
Q 2381 3103 1925 3103 
Q 1469 3103 1208 2742 
Q 947 2381 947 1747 
z
" transform="scale(0.015625)"/>
      </defs>
      <use xlink:href="#DejaVuSans-4c"/>
      <use xlink:href="#DejaVuSans-20" x="55.712891"/>
      <use xlink:href="#DejaVuSans-53" x="87.5"/>
      <use xlink:href="#DejaVuSans-69" x="150.976562"/>
      <use xlink:href="#DejaVuSans-64" x="178.759766"/>
      <use xlink:href="#DejaVuSans-65" x="242.236328"/>
     </g>
    </g>
    <g id="line2d_28">
     <path d="M 67.945312 96.925625 
L 77.945312 96.925625 
L 87.945312 96.925625 
" style="fill: none; stroke: #ff7f0e; stroke-width: 1.5; stroke-linecap: square"/>
    </g>
    <g id="text_7">
     <!-- L Front -->
     <g transform="translate(95.945312 100.425625)scale(0.1 -0.1)">
      <defs>
       <path id="DejaVuSans-46" d="M 628 4666 
L 3309 4666 
L 3309 4134 
L 1259 4134 
L 1259 2759 
L 3109 2759 
L 3109 2228 
L 1259 2228 
L 1259 0 
L 628 0 
L 628 4666 
z
" transform="scale(0.015625)"/>
       <path id="DejaVuSans-6e" d="M 3513 2113 
L 3513 0 
L 2938 0 
L 2938 2094 
Q 2938 2591 2744 2837 
Q 2550 3084 2163 3084 
Q 1697 3084 1428 2787 
Q 1159 2491 1159 1978 
L 1159 0 
L 581 0 
L 581 3500 
L 1159 3500 
L 1159 2956 
Q 1366 3272 1645 3428 
Q 1925 3584 2291 3584 
Q 2894 3584 3203 3211 
Q 3513 2838 3513 2113 
z
" transform="scale(0.015625)"/>
      </defs>
      <use xlink:href="#DejaVuSans-4c"/>
      <use xlink:href="#DejaVuSans-20" x="55.712891"/>
      <use xlink:href="#DejaVuSans-46" x="87.5"/>
      <use xlink:href="#DejaVuSans-72" x="137.769531"/>
      <use xlink:href="#DejaVuSans-6f" x="176.632812"/>
      <use xlink:href="#DejaVuSans-6e" x="237.814453"/>
      <use xlink:href="#DejaVuSans-74" x="301.193359"/>
     </g>
    </g>
    <g id="line2d_29">
     <path d="M 67.945312 111.60375 
L 77.945312 111.60375 
L 87.945312 111.60375 
" style="fill: none; stroke: #2ca02c; stroke-width: 1.5; stroke-linecap: square"/>
    </g>
    <g id="text_8">
     <!-- R Front -->
     <g transform="translate(95.945312 115.10375)scale(0.1 -0.1)">
      <use xlink:href="#DejaVuSans-52"/>
      <use xlink:href="#DejaVuSans-20" x="69.482422"/>
      <use xlink:href="#DejaVuSans-46" x="101.269531"/>
      <use xlink:href="#DejaVuSans-72" x="151.539062"/>
      <use xlink:href="#DejaVuSans-6f" x="190.402344"/>
      <use xlink:href="#DejaVuSans-6e" x="251.583984"/>
      <use xlink:href="#DejaVuSans-74" x="314.962891"/>
     </g>
    </g>
    <g id="line2d_30">
     <path d="M 67.945312 126.281875 
L 77.945312 126.281875 
L 87.945312 126.281875 
" style="fill: none; stroke: #d62728; stroke-width: 1.5; stroke-linecap: square"/>
    </g>
    <g id="text_9">
     <!-- R Side -->
     <g transform="translate(95.945312 129.781875)scale(0.1 -0.1)">
      <use xlink:href="#DejaVuSans-52"/>
      <use xlink:href="#DejaVuSans-20" x="69.482422"/>
      <use xlink:href="#DejaVuSans-53" x="101.269531"/>
      <use xlink:href="#DejaVuSans-69" x="164.746094"/>
      <use xlink:href="#DejaVuSans-64" x="192.529297"/>
      <use xlink:href="#DejaVuSans-65" x="256.005859"/>
     </g>
    </g>
   </g>
  </g>
  <g id="axes_2">
   <g id="patch_8">
    <path d="M 58.945313 304.44375 
L 450 304.44375 
L 450 191.096875 
L 58.945313 191.096875 
z
" style="fill: #ffffff"/>
   </g>
   <g id="matplotlib.axis_3">
    <g id="xtick_9">
     <g id="line2d_31">
      <path d="M 76.720526 304.44375 
L 76.720526 191.096875 
" clip-path="url(#p1dfde60e42)" style="fill: none; stroke: #b0b0b0; stroke-width: 0.8; stroke-linecap: square"/>
     </g>
     <g id="line2d_32">
      <g>
       <use xlink:href="#mefe24dbb5c" x="76.720526" y="304.44375" style="stroke: #000000; stroke-width: 0.8"/>
      </g>
     </g>
     <g id="text_10">
      <!-- 0 -->
      <g transform="translate(73.539276 319.042187)scale(0.1 -0.1)">
       <use xlink:href="#DejaVuSans-30"/>
      </g>
     </g>
    </g>
    <g id="xtick_10">
     <g id="line2d_33">
      <path d="M 126.096117 304.44375 
L 126.096117 191.096875 
" clip-path="url(#p1dfde60e42)" style="fill: none; stroke: #b0b0b0; stroke-width: 0.8; stroke-linecap: square"/>
     </g>
     <g id="line2d_34">
      <g>
       <use xlink:href="#mefe24dbb5c" x="126.096117" y="304.44375" style="stroke: #000000; stroke-width: 0.8"/>
      </g>
     </g>
     <g id="text_11">
      <!-- 50 -->
      <g transform="translate(119.733617 319.042187)scale(0.1 -0.1)">
       <defs>
        <path id="DejaVuSans-35" d="M 691 4666 
L 3169 4666 
L 3169 4134 
L 1269 4134 
L 1269 2991 
Q 1406 3038 1543 3061 
Q 1681 3084 1819 3084 
Q 2600 3084 3056 2656 
Q 3513 2228 3513 1497 
Q 3513 744 3044 326 
Q 2575 -91 1722 -91 
Q 1428 -91 1123 -41 
Q 819 9 494 109 
L 494 744 
Q 775 591 1075 516 
Q 1375 441 1709 441 
Q 2250 441 2565 725 
Q 2881 1009 2881 1497 
Q 2881 1984 2565 2268 
Q 2250 2553 1709 2553 
Q 1456 2553 1204 2497 
Q 953 2441 691 2322 
L 691 4666 
z
" transform="scale(0.015625)"/>
       </defs>
       <use xlink:href="#DejaVuSans-35"/>
       <use xlink:href="#DejaVuSans-30" x="63.623047"/>
      </g>
     </g>
    </g>
    <g id="xtick_11">
     <g id="line2d_35">
      <path d="M 175.471709 304.44375 
L 175.471709 191.096875 
" clip-path="url(#p1dfde60e42)" style="fill: none; stroke: #b0b0b0; stroke-width: 0.8; stroke-linecap: square"/>
     </g>
     <g id="line2d_36">
      <g>
       <use xlink:href="#mefe24dbb5c" x="175.471709" y="304.44375" style="stroke: #000000; stroke-width: 0.8"/>
      </g>
     </g>
     <g id="text_12">
      <!-- 100 -->
      <g transform="translate(165.927959 319.042187)scale(0.1 -0.1)">
       <use xlink:href="#DejaVuSans-31"/>
       <use xlink:href="#DejaVuSans-30" x="63.623047"/>
       <use xlink:href="#DejaVuSans-30" x="127.246094"/>
      </g>
     </g>
    </g>
    <g id="xtick_12">
     <g id="line2d_37">
      <path d="M 224.847301 304.44375 
L 224.847301 191.096875 
" clip-path="url(#p1dfde60e42)" style="fill: none; stroke: #b0b0b0; stroke-width: 0.8; stroke-linecap: square"/>
     </g>
     <g id="line2d_38">
      <g>
       <use xlink:href="#mefe24dbb5c" x="224.847301" y="304.44375" style="stroke: #000000; stroke-width: 0.8"/>
      </g>
     </g>
     <g id="text_13">
      <!-- 150 -->
      <g transform="translate(215.303551 319.042187)scale(0.1 -0.1)">
       <use xlink:href="#DejaVuSans-31"/>
       <use xlink:href="#DejaVuSans-35" x="63.623047"/>
       <use xlink:href="#DejaVuSans-30" x="127.246094"/>
      </g>
     </g>
    </g>
    <g id="xtick_13">
     <g id="line2d_39">
      <path d="M 274.222893 304.44375 
L 274.222893 191.096875 
" clip-path="url(#p1dfde60e42)" style="fill: none; stroke: #b0b0b0; stroke-width: 0.8; stroke-linecap: square"/>
     </g>
     <g id="line2d_40">
      <g>
       <use xlink:href="#mefe24dbb5c" x="274.222893" y="304.44375" style="stroke: #000000; stroke-width: 0.8"/>
      </g>
     </g>
     <g id="text_14">
      <!-- 200 -->
      <g transform="translate(264.679143 319.042187)scale(0.1 -0.1)">
       <use xlink:href="#DejaVuSans-32"/>
       <use xlink:href="#DejaVuSans-30" x="63.623047"/>
       <use xlink:href="#DejaVuSans-30" x="127.246094"/>
      </g>
     </g>
    </g>
    <g id="xtick_14">
     <g id="line2d_41">
      <path d="M 323.598485 304.44375 
L 323.598485 191.096875 
" clip-path="url(#p1dfde60e42)" style="fill: none; stroke: #b0b0b0; stroke-width: 0.8; stroke-linecap: square"/>
     </g>
     <g id="line2d_42">
      <g>
       <use xlink:href="#mefe24dbb5c" x="323.598485" y="304.44375" style="stroke: #000000; stroke-width: 0.8"/>
      </g>
     </g>
     <g id="text_15">
      <!-- 250 -->
      <g transform="translate(314.054735 319.042187)scale(0.1 -0.1)">
       <use xlink:href="#DejaVuSans-32"/>
       <use xlink:href="#DejaVuSans-35" x="63.623047"/>
       <use xlink:href="#DejaVuSans-30" x="127.246094"/>
      </g>
     </g>
    </g>
    <g id="xtick_15">
     <g id="line2d_43">
      <path d="M 372.974077 304.44375 
L 372.974077 191.096875 
" clip-path="url(#p1dfde60e42)" style="fill: none; stroke: #b0b0b0; stroke-width: 0.8; stroke-linecap: square"/>
     </g>
     <g id="line2d_44">
      <g>
       <use xlink:href="#mefe24dbb5c" x="372.974077" y="304.44375" style="stroke: #000000; stroke-width: 0.8"/>
      </g>
     </g>
     <g id="text_16">
      <!-- 300 -->
      <g transform="translate(363.430327 319.042187)scale(0.1 -0.1)">
       <defs>
        <path id="DejaVuSans-33" d="M 2597 2516 
Q 3050 2419 3304 2112 
Q 3559 1806 3559 1356 
Q 3559 666 3084 287 
Q 2609 -91 1734 -91 
Q 1441 -91 1130 -33 
Q 819 25 488 141 
L 488 750 
Q 750 597 1062 519 
Q 1375 441 1716 441 
Q 2309 441 2620 675 
Q 2931 909 2931 1356 
Q 2931 1769 2642 2001 
Q 2353 2234 1838 2234 
L 1294 2234 
L 1294 2753 
L 1863 2753 
Q 2328 2753 2575 2939 
Q 2822 3125 2822 3475 
Q 2822 3834 2567 4026 
Q 2313 4219 1838 4219 
Q 1578 4219 1281 4162 
Q 984 4106 628 3988 
L 628 4550 
Q 988 4650 1302 4700 
Q 1616 4750 1894 4750 
Q 2613 4750 3031 4423 
Q 3450 4097 3450 3541 
Q 3450 3153 3228 2886 
Q 3006 2619 2597 2516 
z
" transform="scale(0.015625)"/>
       </defs>
       <use xlink:href="#DejaVuSans-33"/>
       <use xlink:href="#DejaVuSans-30" x="63.623047"/>
       <use xlink:href="#DejaVuSans-30" x="127.246094"/>
      </g>
     </g>
    </g>
    <g id="xtick_16">
     <g id="line2d_45">
      <path d="M 422.349669 304.44375 
L 422.349669 191.096875 
" clip-path="url(#p1dfde60e42)" style="fill: none; stroke: #b0b0b0; stroke-width: 0.8; stroke-linecap: square"/>
     </g>
     <g id="line2d_46">
      <g>
       <use xlink:href="#mefe24dbb5c" x="422.349669" y="304.44375" style="stroke: #000000; stroke-width: 0.8"/>
      </g>
     </g>
     <g id="text_17">
      <!-- 350 -->
      <g transform="translate(412.805919 319.042187)scale(0.1 -0.1)">
       <use xlink:href="#DejaVuSans-33"/>
       <use xlink:href="#DejaVuSans-35" x="63.623047"/>
       <use xlink:href="#DejaVuSans-30" x="127.246094"/>
      </g>
     </g>
    </g>
    <g id="text_18">
     <!-- Translational Position [mm] -->
     <g transform="translate(186.495312 332.720312)scale(0.1 -0.1)">
      <defs>
       <path id="DejaVuSans-54" d="M -19 4666 
L 3928 4666 
L 3928 4134 
L 2272 4134 
L 2272 0 
L 1638 0 
L 1638 4134 
L -19 4134 
L -19 4666 
z
" transform="scale(0.015625)"/>
       <path id="DejaVuSans-73" d="M 2834 3397 
L 2834 2853 
Q 2591 2978 2328 3040 
Q 2066 3103 1784 3103 
Q 1356 3103 1142 2972 
Q 928 2841 928 2578 
Q 928 2378 1081 2264 
Q 1234 2150 1697 2047 
L 1894 2003 
Q 2506 1872 2764 1633 
Q 3022 1394 3022 966 
Q 3022 478 2636 193 
Q 2250 -91 1575 -91 
Q 1294 -91 989 -36 
Q 684 19 347 128 
L 347 722 
Q 666 556 975 473 
Q 1284 391 1588 391 
Q 1994 391 2212 530 
Q 2431 669 2431 922 
Q 2431 1156 2273 1281 
Q 2116 1406 1581 1522 
L 1381 1569 
Q 847 1681 609 1914 
Q 372 2147 372 2553 
Q 372 3047 722 3315 
Q 1072 3584 1716 3584 
Q 2034 3584 2315 3537 
Q 2597 3491 2834 3397 
z
" transform="scale(0.015625)"/>
       <path id="DejaVuSans-50" d="M 1259 4147 
L 1259 2394 
L 2053 2394 
Q 2494 2394 2734 2622 
Q 2975 2850 2975 3272 
Q 2975 3691 2734 3919 
Q 2494 4147 2053 4147 
L 1259 4147 
z
M 628 4666 
L 2053 4666 
Q 2838 4666 3239 4311 
Q 3641 3956 3641 3272 
Q 3641 2581 3239 2228 
Q 2838 1875 2053 1875 
L 1259 1875 
L 1259 0 
L 628 0 
L 628 4666 
z
" transform="scale(0.015625)"/>
       <path id="DejaVuSans-5b" d="M 550 4863 
L 1875 4863 
L 1875 4416 
L 1125 4416 
L 1125 -397 
L 1875 -397 
L 1875 -844 
L 550 -844 
L 550 4863 
z
" transform="scale(0.015625)"/>
       <path id="DejaVuSans-6d" d="M 3328 2828 
Q 3544 3216 3844 3400 
Q 4144 3584 4550 3584 
Q 5097 3584 5394 3201 
Q 5691 2819 5691 2113 
L 5691 0 
L 5113 0 
L 5113 2094 
Q 5113 2597 4934 2840 
Q 4756 3084 4391 3084 
Q 3944 3084 3684 2787 
Q 3425 2491 3425 1978 
L 3425 0 
L 2847 0 
L 2847 2094 
Q 2847 2600 2669 2842 
Q 2491 3084 2119 3084 
Q 1678 3084 1418 2786 
Q 1159 2488 1159 1978 
L 1159 0 
L 581 0 
L 581 3500 
L 1159 3500 
L 1159 2956 
Q 1356 3278 1631 3431 
Q 1906 3584 2284 3584 
Q 2666 3584 2933 3390 
Q 3200 3197 3328 2828 
z
" transform="scale(0.015625)"/>
       <path id="DejaVuSans-5d" d="M 1947 4863 
L 1947 -844 
L 622 -844 
L 622 -397 
L 1369 -397 
L 1369 4416 
L 622 4416 
L 622 4863 
L 1947 4863 
z
" transform="scale(0.015625)"/>
      </defs>
      <use xlink:href="#DejaVuSans-54"/>
      <use xlink:href="#DejaVuSans-72" x="46.333984"/>
      <use xlink:href="#DejaVuSans-61" x="87.447266"/>
      <use xlink:href="#DejaVuSans-6e" x="148.726562"/>
      <use xlink:href="#DejaVuSans-73" x="212.105469"/>
      <use xlink:href="#DejaVuSans-6c" x="264.205078"/>
      <use xlink:href="#DejaVuSans-61" x="291.988281"/>
      <use xlink:href="#DejaVuSans-74" x="353.267578"/>
      <use xlink:href="#DejaVuSans-69" x="392.476562"/>
      <use xlink:href="#DejaVuSans-6f" x="420.259766"/>
      <use xlink:href="#DejaVuSans-6e" x="481.441406"/>
      <use xlink:href="#DejaVuSans-61" x="544.820312"/>
      <use xlink:href="#DejaVuSans-6c" x="606.099609"/>
      <use xlink:href="#DejaVuSans-20" x="633.882812"/>
      <use xlink:href="#DejaVuSans-50" x="665.669922"/>
      <use xlink:href="#DejaVuSans-6f" x="722.347656"/>
      <use xlink:href="#DejaVuSans-73" x="783.529297"/>
      <use xlink:href="#DejaVuSans-69" x="835.628906"/>
      <use xlink:href="#DejaVuSans-74" x="863.412109"/>
      <use xlink:href="#DejaVuSans-69" x="902.621094"/>
      <use xlink:href="#DejaVuSans-6f" x="930.404297"/>
      <use xlink:href="#DejaVuSans-6e" x="991.585938"/>
      <use xlink:href="#DejaVuSans-20" x="1054.964844"/>
      <use xlink:href="#DejaVuSans-5b" x="1086.751953"/>
      <use xlink:href="#DejaVuSans-6d" x="1125.765625"/>
      <use xlink:href="#DejaVuSans-6d" x="1223.177734"/>
      <use xlink:href="#DejaVuSans-5d" x="1320.589844"/>
     </g>
    </g>
   </g>
   <g id="matplotlib.axis_4">
    <g id="ytick_4">
     <g id="line2d_47">
      <path d="M 58.945313 295.34105 
L 450 295.34105 
" clip-path="url(#p1dfde60e42)" style="fill: none; stroke: #b0b0b0; stroke-width: 0.8; stroke-linecap: square"/>
     </g>
     <g id="line2d_48">
      <g>
       <use xlink:href="#m84acc07086" x="58.945313" y="295.34105" style="stroke: #000000; stroke-width: 0.8"/>
      </g>
     </g>
     <g id="text_19">
      <!-- 100 -->
      <g transform="translate(24.478125 299.140269)scale(0.1 -0.1)">
       <defs>
        <path id="DejaVuSans-2212" d="M 678 2272 
L 4684 2272 
L 4684 1741 
L 678 1741 
L 678 2272 
z
" transform="scale(0.015625)"/>
       </defs>
       <use xlink:href="#DejaVuSans-2212"/>
       <use xlink:href="#DejaVuSans-31" x="83.789062"/>
       <use xlink:href="#DejaVuSans-30" x="147.412109"/>
       <use xlink:href="#DejaVuSans-30" x="211.035156"/>
      </g>
     </g>
    </g>
    <g id="ytick_5">
     <g id="line2d_49">
      <path d="M 58.945313 253.313718 
L 450 253.313718 
" clip-path="url(#p1dfde60e42)" style="fill: none; stroke: #b0b0b0; stroke-width: 0.8; stroke-linecap: square"/>
     </g>
     <g id="line2d_50">
      <g>
       <use xlink:href="#m84acc07086" x="58.945313" y="253.313718" style="stroke: #000000; stroke-width: 0.8"/>
      </g>
     </g>
     <g id="text_20">
      <!-- 50 -->
      <g transform="translate(30.840625 257.112936)scale(0.1 -0.1)">
       <use xlink:href="#DejaVuSans-2212"/>
       <use xlink:href="#DejaVuSans-35" x="83.789062"/>
       <use xlink:href="#DejaVuSans-30" x="147.412109"/>
      </g>
     </g>
    </g>
    <g id="ytick_6">
     <g id="line2d_51">
      <path d="M 58.945313 211.286385 
L 450 211.286385 
" clip-path="url(#p1dfde60e42)" style="fill: none; stroke: #b0b0b0; stroke-width: 0.8; stroke-linecap: square"/>
     </g>
     <g id="line2d_52">
      <g>
       <use xlink:href="#m84acc07086" x="58.945313" y="211.286385" style="stroke: #000000; stroke-width: 0.8"/>
      </g>
     </g>
     <g id="text_21">
      <!-- 0 -->
      <g transform="translate(45.582813 215.085604)scale(0.1 -0.1)">
       <use xlink:href="#DejaVuSans-30"/>
      </g>
     </g>
    </g>
    <g id="text_22">
     <!-- wall distance [mm] -->
     <g transform="translate(18.398438 295.708594)rotate(-90)scale(0.1 -0.1)">
      <use xlink:href="#DejaVuSans-77"/>
      <use xlink:href="#DejaVuSans-61" x="81.787109"/>
      <use xlink:href="#DejaVuSans-6c" x="143.066406"/>
      <use xlink:href="#DejaVuSans-6c" x="170.849609"/>
      <use xlink:href="#DejaVuSans-20" x="198.632812"/>
      <use xlink:href="#DejaVuSans-64" x="230.419922"/>
      <use xlink:href="#DejaVuSans-69" x="293.896484"/>
      <use xlink:href="#DejaVuSans-73" x="321.679688"/>
      <use xlink:href="#DejaVuSans-74" x="373.779297"/>
      <use xlink:href="#DejaVuSans-61" x="412.988281"/>
      <use xlink:href="#DejaVuSans-6e" x="474.267578"/>
      <use xlink:href="#DejaVuSans-63" x="537.646484"/>
      <use xlink:href="#DejaVuSans-65" x="592.626953"/>
      <use xlink:href="#DejaVuSans-20" x="654.150391"/>
      <use xlink:href="#DejaVuSans-5b" x="685.9375"/>
      <use xlink:href="#DejaVuSans-6d" x="724.951172"/>
      <use xlink:href="#DejaVuSans-6d" x="822.363281"/>
      <use xlink:href="#DejaVuSans-5d" x="919.775391"/>
     </g>
    </g>
   </g>
   <g id="line2d_53">
    <path d="M 76.720526 196.349871 
L 76.74075 196.291033 
L 76.720842 196.366682 
L 76.828954 196.307844 
L 77.036529 196.349871 
L 78.888114 196.391899 
L 79.247568 196.484359 
L 79.854888 196.610441 
L 82.153816 196.955065 
L 85.173627 197.030714 
L 87.158526 196.929848 
L 88.462041 196.96347 
L 89.370552 196.896227 
L 91.27645 196.938254 
L 92.787343 196.904632 
L 93.814355 196.980281 
L 94.880868 196.913038 
L 97.053394 196.971876 
L 99.867803 196.997092 
L 104.528859 196.896227 
L 107.481519 196.761739 
L 108.666533 196.677684 
L 111.629069 196.618846 
L 115.184112 196.585224 
L 116.369126 196.509575 
L 121.109183 196.400304 
L 133.551832 196.50117 
L 144.21696 196.980281 
L 145.401974 197.350122 
L 145.994481 197.736773 
L 146.586988 198.333561 
L 147.179495 199.39265 
L 147.772002 200.762741 
L 148.364509 202.620349 
L 148.957016 204.854522 
L 150.142031 211.240357 
L 151.327045 220.481966 
L 151.919552 226.828093 
L 152.512059 235.141099 
L 153.104566 245.925313 
L 153.697073 281.673762 
L 223.563536 281.673762 
L 224.156043 254.717431 
L 224.74855 238.410826 
L 225.341057 231.400667 
L 226.526071 222.45725 
L 227.711085 215.853075 
L 228.8961 210.72759 
L 230.081114 206.355739 
L 231.266128 203.016247 
L 232.451142 200.266819 
L 233.636156 198.241101 
L 234.228664 197.68634 
L 235.413678 197.081147 
L 237.191199 196.812172 
L 238.96872 196.736523 
L 242.523763 196.77855 
L 246.671313 196.761739 
L 253.781398 196.87101 
L 260.298976 196.887821 
L 261.48399 196.896227 
L 265.63154 196.921443 
L 268.594076 196.896227 
L 281.629232 196.820577 
L 305.329516 197.047525 
L 314.809629 196.988687 
L 318.957179 197.182012 
L 320.734701 197.324905 
L 321.919715 197.694746 
L 322.512222 198.047776 
L 323.104729 198.644564 
L 324.289743 201.031716 
L 324.88225 202.679188 
L 325.474757 204.890666 
L 326.067264 207.677918 
L 327.252279 215.031861 
L 327.844786 219.994449 
L 328.437293 226.222899 
L 329.0298 234.989801 
L 329.622307 252.296656 
L 330.214814 281.673762 
L 381.762932 281.673762 
L 382.355439 269.75481 
L 382.947946 260.567635 
L 383.540453 254.717431 
L 384.13296 251.599002 
L 384.725468 281.673762 
L 387.688003 281.673762 
L 388.28051 237.082762 
L 388.873017 237.267682 
L 389.465524 234.989801 
L 390.650539 233.233058 
L 391.243046 240.142352 
L 391.835553 239.688456 
L 392.42806 236.738138 
L 393.020567 235.141099 
L 393.613074 234.006361 
L 394.205581 232.165564 
L 394.798088 225.777409 
L 395.983103 223.835747 
L 396.57561 223.070849 
L 397.168117 222.095815 
L 397.760624 224.264425 
L 398.353131 223.222148 
L 398.945638 221.742786 
L 399.538145 220.675291 
L 400.723159 217.830881 
L 401.315666 214.598139 
L 401.908174 213.635713 
L 403.685695 210.030609 
L 404.278202 210.178545 
L 405.463216 207.61908 
L 406.64823 205.215117 
L 407.240737 203.209572 
L 408.425752 201.367935 
L 409.512015 200.317251 
L 410.104522 200.880418 
L 410.697029 201.082149 
L 411.289536 201.620099 
L 412.869555 204.745251 
L 413.462062 206.892007 
L 414.548325 213.07759 
L 415.042081 217.417332 
L 415.535837 227.920803 
L 416.029593 241.932716 
L 416.6221 281.673762 
L 423.33718 281.673762 
L 423.732185 266.636382 
L 424.12719 281.673762 
L 425.80596 281.673762 
L 426.102214 256.701121 
L 426.398467 262.240323 
L 426.694721 251.599002 
L 426.990974 250.321372 
L 427.287228 281.673762 
L 428.570993 281.673762 
L 428.867247 242.504288 
L 429.064749 242.504288 
L 429.459754 239.242967 
L 429.657256 281.673762 
L 430.546017 281.673762 
L 430.644768 236.561623 
L 430.743519 239.461509 
L 431.039773 236.561623 
L 431.237275 281.673762 
L 431.63228 281.673762 
L 431.63228 234.846908 
L 431.731031 234.846908 
L 431.829782 233.611304 
L 432.027285 281.673762 
L 432.027285 281.673762 
L 432.126036 281.673762 
L 432.224787 229.475815 
L 432.224787 230.593742 
" clip-path="url(#p1dfde60e42)" style="fill: none; stroke: #1f77b4; stroke-width: 1.5; stroke-linecap: square"/>
   </g>
   <g id="line2d_54">
    <path d="M 76.720526 298.871346 
L 341.472449 298.871346 
L 342.064956 286.935584 
L 342.657463 286.935584 
L 343.24997 273.881894 
L 343.842478 281.396381 
L 344.434985 275.025038 
L 345.027492 291.340048 
L 345.619999 298.871346 
L 347.990027 298.871346 
L 348.582534 277.748409 
L 349.175041 268.779776 
L 349.767549 270.233922 
L 350.360056 268.779776 
L 350.952563 268.779776 
L 351.54507 268.12415 
L 352.137577 298.871346 
L 355.100112 298.871346 
L 355.69262 268.12415 
L 356.285127 266.922168 
L 356.877634 266.922168 
L 358.062648 268.12415 
L 358.655155 266.367407 
L 359.247662 298.871346 
L 361.617691 298.871346 
L 362.210198 266.922168 
L 362.802705 265.837863 
L 363.395212 266.922168 
L 363.987719 267.502145 
L 364.580226 265.333535 
L 365.172733 267.502145 
L 365.76524 298.871346 
L 368.135269 298.871346 
L 368.727776 266.367407 
L 369.91279 263.517954 
L 370.505297 263.517954 
L 371.097804 263.106086 
L 371.690311 261.265289 
L 372.282818 298.871346 
L 374.652847 298.871346 
L 375.245354 260.92907 
L 375.837861 258.57554 
L 376.430368 258.31497 
L 377.022875 259.987658 
L 377.615382 258.062806 
L 378.207889 259.987658 
L 378.800397 298.871346 
L 381.170425 298.871346 
L 381.762932 254.633376 
L 382.355439 255.591599 
L 382.947946 253.08677 
L 383.540453 252.775768 
L 384.13296 252.624469 
L 384.725468 251.741895 
L 385.317975 298.871346 
L 387.688003 298.871346 
L 388.28051 250.413832 
L 388.873017 249.018524 
L 389.465524 249.237066 
L 390.058031 247.976246 
L 390.650539 247.774515 
L 391.243046 283.817156 
L 391.835553 298.871346 
L 393.613074 298.871346 
L 394.798088 244.950278 
L 395.983103 244.580438 
L 396.57561 243.807135 
L 397.168117 243.218752 
L 397.760624 258.31497 
L 398.353131 262.332783 
L 398.945638 259.399275 
L 399.538145 257.331531 
L 400.723159 255.591599 
L 401.315666 240.755951 
L 401.908174 240.310461 
L 402.500681 240.10873 
L 403.685695 239.318616 
L 404.278202 250.539914 
L 405.463216 248.589845 
L 406.055723 248.169572 
L 406.64823 247.488729 
L 407.240737 237.175222 
L 407.833245 236.847409 
L 408.425752 236.32627 
L 409.018259 236.191782 
L 409.512015 235.763104 
L 410.104522 243.874379 
L 410.697029 242.773263 
L 411.289536 242.470666 
L 411.783292 241.663741 
L 412.375799 240.966087 
L 412.869555 233.871874 
L 413.462062 233.602899 
L 414.548325 232.812785 
L 415.042081 232.644676 
L 415.535837 238.503286 
L 416.029593 238.057796 
L 416.6221 237.284493 
L 417.115856 237.099573 
L 417.609612 236.359892 
L 418.103368 230.761851 
L 418.597124 230.459254 
L 418.992128 230.013765 
L 419.485884 229.803628 
L 419.97964 229.349733 
L 420.374645 233.955928 
L 422.152166 232.375701 
L 422.547171 227.819938 
L 422.942176 227.433286 
L 423.732185 226.970986 
L 424.12719 226.617956 
L 424.423443 230.123036 
L 424.818448 229.803628 
L 425.114702 229.400165 
L 425.509706 229.274084 
L 425.80596 228.879027 
L 426.102214 225.231054 
L 426.990974 224.499779 
L 427.287228 224.079505 
L 427.583481 226.794471 
L 428.570993 225.51684 
L 428.867247 222.961578 
L 429.262251 221.961328 
L 429.657256 221.515838 
L 429.854759 223.793719 
L 430.052261 223.617205 
L 430.151012 223.121282 
L 430.546017 222.726225 
L 430.743519 220.112125 
L 430.941022 220.044881 
L 431.138524 219.464064 
L 431.237275 221.263674 
L 431.336026 221.045132 
L 431.63228 220.456749 
L 431.731031 218.184752 
L 431.928533 217.588804 
L 432.027285 219.173234 
L 432.027285 218.608387 
L 432.126036 218.35202 
L 432.224787 214.805754 
L 432.224787 215.377326 
" clip-path="url(#p1dfde60e42)" style="fill: none; stroke: #ff7f0e; stroke-width: 1.5; stroke-linecap: square"/>
   </g>
   <g id="line2d_55">
    <path d="M 76.720526 299.291619 
L 377.022875 299.291619 
L 377.615382 287.364262 
L 378.207889 299.291619 
L 381.170425 299.291619 
L 381.762932 261.693968 
L 382.355439 262.391621 
L 382.947946 259.827954 
L 383.540453 259.827954 
L 384.13296 258.743649 
L 384.725468 299.291619 
L 387.688003 299.291619 
L 388.28051 253.355745 
L 388.873017 253.044743 
L 389.465524 252.45636 
L 390.058031 253.044743 
L 390.650539 251.481326 
L 391.243046 299.291619 
L 394.205581 299.291619 
L 394.798088 246.656588 
L 395.390595 247.085267 
L 395.983103 246.236315 
L 396.57561 246.656588 
L 397.168117 245.378957 
L 397.760624 270.654195 
L 398.353131 265.274696 
L 398.945638 262.391621 
L 399.538145 260.11374 
L 400.723159 258.48308 
L 401.315666 243.512944 
L 401.908174 241.974743 
L 402.500681 241.924311 
L 403.093188 241.386361 
L 403.685695 241.386361 
L 404.278202 252.027681 
L 404.870709 252.170574 
L 405.463216 250.47267 
L 406.055723 250.47267 
L 406.64823 248.39652 
L 407.240737 239.133696 
L 407.833245 238.478069 
L 408.425752 238.360393 
L 409.018259 237.528252 
L 409.512015 242.260529 
L 410.104522 244.370301 
L 410.697029 244.101326 
L 411.289536 243.075859 
L 411.783292 242.487477 
L 412.375799 242.033582 
L 412.869555 235.502534 
L 413.462062 234.88053 
L 413.955818 234.939368 
L 414.548325 234.300552 
L 415.042081 238.763855 
L 415.535837 239.839755 
L 416.029593 238.889937 
L 416.6221 238.200689 
L 417.115856 238.007363 
L 417.609612 237.276088 
L 418.103368 232.300051 
L 418.597124 231.644425 
L 418.992128 231.812534 
L 419.485884 230.761851 
L 419.97964 234.71242 
L 420.374645 234.409824 
L 420.868401 234.300552 
L 421.263406 233.535655 
L 421.757161 233.384357 
L 422.152166 232.737136 
L 422.547171 228.929459 
L 422.942176 228.366293 
L 423.33718 228.273833 
L 423.732185 227.727478 
L 424.12719 230.644175 
L 424.423443 230.282739 
L 424.818448 230.232307 
L 425.114702 229.559869 
L 425.509706 229.543058 
L 425.80596 228.820188 
L 426.102214 226.004357 
L 426.398467 225.432785 
L 426.694721 225.533651 
L 426.990974 224.936863 
L 427.287228 227.265177 
L 427.879735 226.365792 
L 428.077237 226.315359 
L 428.570993 225.382353 
L 428.867247 223.146498 
L 429.064749 222.558116 
L 429.262251 222.667387 
L 429.459754 222.08741 
L 429.657256 224.003856 
L 430.052261 223.230553 
L 430.151012 223.331419 
L 430.546017 222.507683 
L 430.743519 220.204585 
L 431.039773 220.044881 
L 431.237275 221.255268 
L 431.434777 220.507182 
L 431.533529 220.591237 
L 431.63228 220.044881 
L 431.731031 218.07464 
L 431.829782 218.233503 
L 431.829782 217.709843 
L 431.928533 219.072369 
L 431.928533 218.615952 
L 432.027285 218.67395 
L 432.027285 218.584011 
L 432.126036 216.071617 
L 432.126036 216.193497 
L 432.224787 217.12062 
L 432.224787 216.301087 
L 432.224787 214.512403 
L 432.224787 215.29159 
" clip-path="url(#p1dfde60e42)" style="fill: none; stroke: #2ca02c; stroke-width: 1.5; stroke-linecap: square"/>
   </g>
   <g id="line2d_56">
    <path d="M 76.720526 226.416225 
L 76.788782 226.189277 
L 76.773101 227.466908 
L 76.828954 227.298799 
L 76.88228 227.298799 
L 77.036529 226.189277 
L 77.0863 227.298799 
L 77.141107 226.811282 
L 77.201148 227.298799 
L 77.26662 226.416225 
L 77.33772 226.651578 
L 77.414746 226.340576 
L 77.497994 226.575929 
L 77.787038 226.189277 
L 77.89764 226.113628 
L 78.13958 226.886931 
L 78.272894 226.189277 
L 78.414108 226.727227 
L 78.721225 225.970735 
L 79.063891 226.491874 
L 79.441121 225.743788 
L 79.643561 226.113628 
L 79.854888 225.743788 
L 80.074116 226.113628 
L 80.541209 225.390758 
L 80.788087 225.743788 
L 81.042865 225.180621 
L 81.307518 225.743788 
L 81.581059 225.819437 
L 81.863487 226.189277 
L 82.153816 225.743788 
L 82.454019 225.676544 
L 82.76311 225.390758 
L 83.081089 225.458002 
L 83.406968 224.844403 
L 83.742722 224.97889 
L 84.087364 225.743788 
L 84.440893 224.97889 
L 84.802322 225.256271 
L 85.173627 225.256271 
L 85.553819 225.819437 
L 85.942899 225.390758 
L 86.339878 225.743788 
L 86.743771 225.180621 
L 87.158526 225.180621 
L 87.583156 225.895086 
L 88.017661 224.97889 
L 88.916297 225.600895 
L 89.370552 224.97889 
L 89.834683 224.97889 
L 90.308688 225.180621 
L 90.792569 225.533651 
L 91.27645 226.113628 
L 91.770206 225.046134 
L 92.787343 225.676544 
L 93.814355 225.600895 
L 94.347612 225.458002 
L 95.414125 225.533651 
L 95.957256 225.113378 
L 96.500388 225.390758 
L 97.053394 226.037979 
L 97.606401 225.180621 
L 98.169283 225.256271 
L 98.732164 225.458002 
L 99.295046 225.390758 
L 99.867803 225.676544 
L 100.44056 226.575929 
L 101.023192 225.458002 
L 101.595949 226.264926 
L 102.178581 226.113628 
L 102.761213 227.05504 
L 103.343845 226.491874 
L 103.936352 226.416225 
L 104.528859 226.189277 
L 105.111491 226.651578 
L 105.703998 226.264926 
L 106.296505 226.886931 
L 106.889012 225.970735 
L 107.481519 226.727227 
L 108.074026 227.298799 
L 109.259041 226.416225 
L 109.851548 226.970986 
L 110.444055 226.970986 
L 111.036562 226.727227 
L 111.629069 227.13069 
L 112.221576 226.970986 
L 112.814083 227.214744 
L 113.999097 227.466908 
L 114.591605 227.298799 
L 115.184112 226.189277 
L 116.369126 227.05504 
L 116.961633 227.382854 
L 117.55414 226.575929 
L 118.146647 227.382854 
L 119.331661 227.466908 
L 119.924168 227.05504 
L 120.516676 226.970986 
L 121.109183 228.257022 
L 121.70169 226.970986 
L 122.294197 227.382854 
L 123.479211 227.466908 
L 124.071718 227.903992 
L 125.256732 228.080507 
L 125.849239 227.988047 
L 126.441747 228.441942 
L 127.034254 228.349482 
L 127.626761 228.820188 
L 128.811775 230.366794 
L 129.404282 230.703013 
L 129.996789 230.812284 
L 130.589296 231.291395 
L 131.181803 233.863468 
L 131.77431 234.014767 
L 132.366818 234.989801 
L 132.959325 236.628867 
L 133.551832 237.444197 
L 134.144339 240.360894 
L 134.736846 240.638274 
L 135.329353 241.848661 
L 135.92186 249.363148 
L 136.514367 251.47292 
L 137.106874 280.093534 
L 218.823479 280.093534 
L 219.415986 262.63538 
L 220.008493 250.018775 
L 220.601 244.345085 
L 221.193507 247.068456 
L 221.786014 240.638274 
L 222.971029 236.057295 
L 223.563536 235.863969 
L 224.156043 232.569026 
L 224.74855 232.569026 
L 225.341057 232.300051 
L 225.933564 230.812284 
L 226.526071 230.703013 
L 227.118578 229.509437 
L 228.303593 228.912648 
L 228.8961 228.727728 
L 229.488607 228.257022 
L 230.081114 228.441942 
L 230.673621 228.441942 
L 231.266128 227.988047 
L 231.858635 228.349482 
L 232.451142 227.635018 
L 233.043649 228.626863 
L 233.636156 228.257022 
L 234.228664 227.214744 
L 235.413678 227.466908 
L 236.598692 227.466908 
L 237.191199 227.903992 
L 237.783706 228.727728 
L 238.376213 227.903992 
L 238.96872 227.727478 
L 239.561228 228.349482 
L 240.153735 227.550963 
L 240.746242 228.349482 
L 241.338749 227.903992 
L 241.931256 228.257022 
L 242.523763 227.466908 
L 243.11627 228.257022 
L 243.708777 227.466908 
L 244.893791 227.466908 
L 245.486299 227.903992 
L 246.078806 227.466908 
L 246.671313 227.635018 
L 247.26382 227.466908 
L 247.856327 227.727478 
L 248.448834 227.466908 
L 249.041341 227.05504 
L 249.633848 227.903992 
L 250.226355 227.811532 
L 250.818862 227.298799 
L 251.41137 227.214744 
L 252.003877 226.970986 
L 252.596384 227.466908 
L 253.188891 226.416225 
L 253.781398 226.189277 
L 254.966412 226.189277 
L 255.558919 226.575929 
L 256.151426 226.189277 
L 256.743933 226.189277 
L 257.336441 226.727227 
L 257.928948 226.575929 
L 258.521455 227.298799 
L 259.113962 226.970986 
L 259.706469 227.05504 
L 260.298976 227.382854 
L 260.891483 226.651578 
L 261.48399 226.491874 
L 262.076497 226.113628 
L 262.669004 226.970986 
L 263.261512 227.13069 
L 263.854019 226.811282 
L 264.446526 226.113628 
L 265.039033 226.886931 
L 265.63154 226.970986 
L 266.224047 226.651578 
L 266.816554 226.189277 
L 267.409061 227.466908 
L 268.001568 226.970986 
L 268.594076 227.466908 
L 269.186583 227.466908 
L 269.77909 226.970986 
L 270.371597 227.13069 
L 270.964104 226.189277 
L 271.556611 226.264926 
L 272.149118 227.214744 
L 272.741625 226.189277 
L 273.334132 226.970986 
L 273.926639 226.811282 
L 274.519147 226.189277 
L 275.111654 226.970986 
L 275.704161 226.416225 
L 276.296668 226.970986 
L 276.889175 227.811532 
L 278.666696 227.382854 
L 279.259203 227.298799 
L 279.85171 226.189277 
L 280.444218 227.466908 
L 281.036725 226.970986 
L 281.629232 226.189277 
L 282.221739 226.727227 
L 282.814246 226.886931 
L 283.406753 226.189277 
L 283.99926 227.05504 
L 284.591767 226.970986 
L 285.184274 227.214744 
L 285.776781 227.05504 
L 286.369289 227.466908 
L 286.961796 227.382854 
L 287.554303 227.466908 
L 288.14681 226.189277 
L 288.739317 226.886931 
L 289.331824 226.189277 
L 289.924331 226.651578 
L 291.109345 226.575929 
L 291.701853 226.037979 
L 292.29436 226.575929 
L 292.886867 226.575929 
L 293.479374 227.05504 
L 294.071881 226.970986 
L 294.664388 227.13069 
L 295.849402 226.727227 
L 296.441909 225.895086 
L 297.034416 226.886931 
L 298.219431 226.416225 
L 298.811938 225.970735 
L 299.404445 226.416225 
L 299.996952 226.575929 
L 300.589459 227.382854 
L 301.181966 227.811532 
L 301.774473 227.466908 
L 302.36698 228.080507 
L 303.551995 227.635018 
L 304.737009 227.05504 
L 305.922023 228.626863 
L 306.51453 228.912648 
L 307.107037 228.441942 
L 307.699544 229.92971 
L 308.292051 229.820439 
L 308.884558 232.569026 
L 309.477066 233.560871 
L 310.66208 235.863969 
L 311.254587 238.108229 
L 311.847094 237.032329 
L 312.439601 238.570529 
L 314.217122 250.018775 
L 314.809629 280.093534 
L 394.205581 280.093534 
L 394.798088 245.177226 
L 395.390595 248.741144 
L 395.983103 243.201941 
L 396.57561 240.083513 
L 397.168117 241.848661 
L 397.760624 280.093534 
L 400.723159 280.093534 
L 401.315666 242.504288 
L 401.908174 243.571782 
L 402.500681 241.848661 
L 403.093188 248.161167 
L 403.685695 248.741144 
L 404.278202 280.093534 
L 425.80596 280.093534 
L 426.102214 255.120893 
L 426.398467 250.724834 
L 426.694721 250.018775 
L 426.990974 262.63538 
L 427.287228 250.018775 
L 427.583481 280.093534 
L 428.570993 280.093534 
L 428.867247 239.814538 
L 429.064749 240.360894 
L 429.262251 238.108229 
L 429.657256 241.529254 
L 429.854759 280.093534 
L 430.546017 280.093534 
L 430.743519 234.653582 
L 430.941022 234.485473 
L 431.039773 235.15791 
L 431.138524 234.989801 
L 431.336026 280.093534 
L 431.63228 280.093534 
L 431.731031 232.300051 
L 431.829782 232.569026 
L 431.928533 231.652831 
L 431.928533 280.093534 
L 432.027285 280.093534 
L 432.126036 280.093534 
L 432.224787 226.416225 
L 432.224787 227.466908 
" clip-path="url(#p1dfde60e42)" style="fill: none; stroke: #d62728; stroke-width: 1.5; stroke-linecap: square"/>
   </g>
   <g id="patch_9">
    <path d="M 58.945313 304.44375 
L 58.945313 191.096875 
" style="fill: none; stroke: #000000; stroke-width: 0.8; stroke-linejoin: miter; stroke-linecap: square"/>
   </g>
   <g id="patch_10">
    <path d="M 450 304.44375 
L 450 191.096875 
" style="fill: none; stroke: #000000; stroke-width: 0.8; stroke-linejoin: miter; stroke-linecap: square"/>
   </g>
   <g id="patch_11">
    <path d="M 58.945313 304.44375 
L 450 304.44375 
" style="fill: none; stroke: #000000; stroke-width: 0.8; stroke-linejoin: miter; stroke-linecap: square"/>
   </g>
   <g id="patch_12">
    <path d="M 58.945313 191.096875 
L 450 191.096875 
" style="fill: none; stroke: #000000; stroke-width: 0.8; stroke-linejoin: miter; stroke-linecap: square"/>
   </g>
   <g id="text_23">
    <!-- Wall Distance [mm] -->
    <g transform="translate(195.492656 185.096875)scale(0.12 -0.12)">
     <defs>
      <path id="DejaVuSans-57" d="M 213 4666 
L 850 4666 
L 1831 722 
L 2809 4666 
L 3519 4666 
L 4500 722 
L 5478 4666 
L 6119 4666 
L 4947 0 
L 4153 0 
L 3169 4050 
L 2175 0 
L 1381 0 
L 213 4666 
z
" transform="scale(0.015625)"/>
      <path id="DejaVuSans-44" d="M 1259 4147 
L 1259 519 
L 2022 519 
Q 2988 519 3436 956 
Q 3884 1394 3884 2338 
Q 3884 3275 3436 3711 
Q 2988 4147 2022 4147 
L 1259 4147 
z
M 628 4666 
L 1925 4666 
Q 3281 4666 3915 4102 
Q 4550 3538 4550 2338 
Q 4550 1131 3912 565 
Q 3275 0 1925 0 
L 628 0 
L 628 4666 
z
" transform="scale(0.015625)"/>
     </defs>
     <use xlink:href="#DejaVuSans-57"/>
     <use xlink:href="#DejaVuSans-61" x="92.501953"/>
     <use xlink:href="#DejaVuSans-6c" x="153.78125"/>
     <use xlink:href="#DejaVuSans-6c" x="181.564453"/>
     <use xlink:href="#DejaVuSans-20" x="209.347656"/>
     <use xlink:href="#DejaVuSans-44" x="241.134766"/>
     <use xlink:href="#DejaVuSans-69" x="318.136719"/>
     <use xlink:href="#DejaVuSans-73" x="345.919922"/>
     <use xlink:href="#DejaVuSans-74" x="398.019531"/>
     <use xlink:href="#DejaVuSans-61" x="437.228516"/>
     <use xlink:href="#DejaVuSans-6e" x="498.507812"/>
     <use xlink:href="#DejaVuSans-63" x="561.886719"/>
     <use xlink:href="#DejaVuSans-65" x="616.867188"/>
     <use xlink:href="#DejaVuSans-20" x="678.390625"/>
     <use xlink:href="#DejaVuSans-5b" x="710.177734"/>
     <use xlink:href="#DejaVuSans-6d" x="749.191406"/>
     <use xlink:href="#DejaVuSans-6d" x="846.603516"/>
     <use xlink:href="#DejaVuSans-5d" x="944.015625"/>
    </g>
   </g>
   <g id="legend_2">
    <g id="patch_13">
     <path d="M 220.764844 278.626562 
L 288.180469 278.626562 
Q 290.180469 278.626562 290.180469 276.626562 
L 290.180469 218.914062 
Q 290.180469 216.914062 288.180469 216.914062 
L 220.764844 216.914062 
Q 218.764844 216.914062 218.764844 218.914062 
L 218.764844 276.626562 
Q 218.764844 278.626562 220.764844 278.626562 
z
" style="fill: #ffffff; opacity: 0.8; stroke: #cccccc; stroke-linejoin: miter"/>
    </g>
    <g id="line2d_57">
     <path d="M 222.764844 225.0125 
L 232.764844 225.0125 
L 242.764844 225.0125 
" style="fill: none; stroke: #1f77b4; stroke-width: 1.5; stroke-linecap: square"/>
    </g>
    <g id="text_24">
     <!-- L Side -->
     <g transform="translate(250.764844 228.5125)scale(0.1 -0.1)">
      <use xlink:href="#DejaVuSans-4c"/>
      <use xlink:href="#DejaVuSans-20" x="55.712891"/>
      <use xlink:href="#DejaVuSans-53" x="87.5"/>
      <use xlink:href="#DejaVuSans-69" x="150.976562"/>
      <use xlink:href="#DejaVuSans-64" x="178.759766"/>
      <use xlink:href="#DejaVuSans-65" x="242.236328"/>
     </g>
    </g>
    <g id="line2d_58">
     <path d="M 222.764844 239.690625 
L 232.764844 239.690625 
L 242.764844 239.690625 
" style="fill: none; stroke: #ff7f0e; stroke-width: 1.5; stroke-linecap: square"/>
    </g>
    <g id="text_25">
     <!-- L Front -->
     <g transform="translate(250.764844 243.190625)scale(0.1 -0.1)">
      <use xlink:href="#DejaVuSans-4c"/>
      <use xlink:href="#DejaVuSans-20" x="55.712891"/>
      <use xlink:href="#DejaVuSans-46" x="87.5"/>
      <use xlink:href="#DejaVuSans-72" x="137.769531"/>
      <use xlink:href="#DejaVuSans-6f" x="176.632812"/>
      <use xlink:href="#DejaVuSans-6e" x="237.814453"/>
      <use xlink:href="#DejaVuSans-74" x="301.193359"/>
     </g>
    </g>
    <g id="line2d_59">
     <path d="M 222.764844 254.36875 
L 232.764844 254.36875 
L 242.764844 254.36875 
" style="fill: none; stroke: #2ca02c; stroke-width: 1.5; stroke-linecap: square"/>
    </g>
    <g id="text_26">
     <!-- R Front -->
     <g transform="translate(250.764844 257.86875)scale(0.1 -0.1)">
      <use xlink:href="#DejaVuSans-52"/>
      <use xlink:href="#DejaVuSans-20" x="69.482422"/>
      <use xlink:href="#DejaVuSans-46" x="101.269531"/>
      <use xlink:href="#DejaVuSans-72" x="151.539062"/>
      <use xlink:href="#DejaVuSans-6f" x="190.402344"/>
      <use xlink:href="#DejaVuSans-6e" x="251.583984"/>
      <use xlink:href="#DejaVuSans-74" x="314.962891"/>
     </g>
    </g>
    <g id="line2d_60">
     <path d="M 222.764844 269.046875 
L 232.764844 269.046875 
L 242.764844 269.046875 
" style="fill: none; stroke: #d62728; stroke-width: 1.5; stroke-linecap: square"/>
    </g>
    <g id="text_27">
     <!-- R Side -->
     <g transform="translate(250.764844 272.546875)scale(0.1 -0.1)">
      <use xlink:href="#DejaVuSans-52"/>
      <use xlink:href="#DejaVuSans-20" x="69.482422"/>
      <use xlink:href="#DejaVuSans-53" x="101.269531"/>
      <use xlink:href="#DejaVuSans-69" x="164.746094"/>
      <use xlink:href="#DejaVuSans-64" x="192.529297"/>
      <use xlink:href="#DejaVuSans-65" x="256.005859"/>
     </g>
    </g>
   </g>
  </g>
  <g id="text_28">
   <!-- Reflector Raw Value and Wall Distance -->
   <g transform="translate(114.835313 16.030125)scale(0.12 -0.12)">
    <use xlink:href="#DejaVuSans-52"/>
    <use xlink:href="#DejaVuSans-65" x="64.982422"/>
    <use xlink:href="#DejaVuSans-66" x="126.505859"/>
    <use xlink:href="#DejaVuSans-6c" x="161.710938"/>
    <use xlink:href="#DejaVuSans-65" x="189.494141"/>
    <use xlink:href="#DejaVuSans-63" x="251.017578"/>
    <use xlink:href="#DejaVuSans-74" x="305.998047"/>
    <use xlink:href="#DejaVuSans-6f" x="345.207031"/>
    <use xlink:href="#DejaVuSans-72" x="406.388672"/>
    <use xlink:href="#DejaVuSans-20" x="447.501953"/>
    <use xlink:href="#DejaVuSans-52" x="479.289062"/>
    <use xlink:href="#DejaVuSans-61" x="546.521484"/>
    <use xlink:href="#DejaVuSans-77" x="607.800781"/>
    <use xlink:href="#DejaVuSans-20" x="689.587891"/>
    <use xlink:href="#DejaVuSans-56" x="721.375"/>
    <use xlink:href="#DejaVuSans-61" x="782.033203"/>
    <use xlink:href="#DejaVuSans-6c" x="843.3125"/>
    <use xlink:href="#DejaVuSans-75" x="871.095703"/>
    <use xlink:href="#DejaVuSans-65" x="934.474609"/>
    <use xlink:href="#DejaVuSans-20" x="995.998047"/>
    <use xlink:href="#DejaVuSans-61" x="1027.785156"/>
    <use xlink:href="#DejaVuSans-6e" x="1089.064453"/>
    <use xlink:href="#DejaVuSans-64" x="1152.443359"/>
    <use xlink:href="#DejaVuSans-20" x="1215.919922"/>
    <use xlink:href="#DejaVuSans-57" x="1247.707031"/>
    <use xlink:href="#DejaVuSans-61" x="1340.208984"/>
    <use xlink:href="#DejaVuSans-6c" x="1401.488281"/>
    <use xlink:href="#DejaVuSans-6c" x="1429.271484"/>
    <use xlink:href="#DejaVuSans-20" x="1457.054688"/>
    <use xlink:href="#DejaVuSans-44" x="1488.841797"/>
    <use xlink:href="#DejaVuSans-69" x="1565.84375"/>
    <use xlink:href="#DejaVuSans-73" x="1593.626953"/>
    <use xlink:href="#DejaVuSans-74" x="1645.726562"/>
    <use xlink:href="#DejaVuSans-61" x="1684.935547"/>
    <use xlink:href="#DejaVuSans-6e" x="1746.214844"/>
    <use xlink:href="#DejaVuSans-63" x="1809.59375"/>
    <use xlink:href="#DejaVuSans-65" x="1864.574219"/>
   </g>
  </g>
 </g>
 <defs>
  <clipPath id="p512aedbb7d">
   <rect x="58.945313" y="48.331875" width="391.054687" height="113.346875"/>
  </clipPath>
  <clipPath id="p1dfde60e42">
   <rect x="58.945313" y="191.096875" width="391.054687" height="113.346875"/>
  </clipPath>
 </defs>
</svg>
