<?xml version="1.0" encoding="utf-8" standalone="no"?>
<!DOCTYPE svg PUBLIC "-//W3C//DTD SVG 1.1//EN"
  "http://www.w3.org/Graphics/SVG/1.1/DTD/svg11.dtd">
<svg xmlns:xlink="http://www.w3.org/1999/xlink" width="460.8pt" height="345.6pt" viewBox="0 0 460.8 345.6" xmlns="http://www.w3.org/2000/svg" version="1.1">
 <metadata>
  <rdf:RDF xmlns:dc="http://purl.org/dc/elements/1.1/" xmlns:cc="http://creativecommons.org/ns#" xmlns:rdf="http://www.w3.org/1999/02/22-rdf-syntax-ns#">
   <cc:Work>
    <dc:type rdf:resource="http://purl.org/dc/dcmitype/StillImage"/>
    <dc:date>2022-01-15T16:32:21.418461</dc:date>
    <dc:format>image/svg+xml</dc:format>
    <dc:creator>
     <cc:Agent>
      <dc:title>Matplotlib v3.5.1, https://matplotlib.org/</dc:title>
     </cc:Agent>
    </dc:creator>
   </cc:Work>
  </rdf:RDF>
 </metadata>
 <defs>
  <style type="text/css">*{stroke-linejoin: round; stroke-linecap: butt}</style>
 </defs>
 <g id="figure_1">
  <g id="patch_1">
   <path d="M 0 345.6 
L 460.8 345.6 
L 460.8 0 
L 0 0 
z
" style="fill: #ffffff"/>
  </g>
  <g id="axes_1">
   <g id="patch_2">
    <path d="M 58.945313 168.517812 
L 450 168.517812 
L 450 48.331875 
L 58.945313 48.331875 
z
" style="fill: #ffffff"/>
   </g>
   <g id="matplotlib.axis_1">
    <g id="xtick_1">
     <g id="line2d_1">
      <path d="M 76.720526 168.517812 
L 76.720526 48.331875 
" clip-path="url(#pe0a7de7b44)" style="fill: none; stroke: #b0b0b0; stroke-width: 0.8; stroke-linecap: square"/>
     </g>
     <g id="line2d_2">
      <defs>
       <path id="m89be2c7aa5" d="M 0 0 
L 0 3.5 
" style="stroke: #000000; stroke-width: 0.8"/>
      </defs>
      <g>
       <use xlink:href="#m89be2c7aa5" x="76.720526" y="168.517812" style="stroke: #000000; stroke-width: 0.8"/>
      </g>
     </g>
    </g>
    <g id="xtick_2">
     <g id="line2d_3">
      <path d="M 126.096117 168.517812 
L 126.096117 48.331875 
" clip-path="url(#pe0a7de7b44)" style="fill: none; stroke: #b0b0b0; stroke-width: 0.8; stroke-linecap: square"/>
     </g>
     <g id="line2d_4">
      <g>
       <use xlink:href="#m89be2c7aa5" x="126.096117" y="168.517812" style="stroke: #000000; stroke-width: 0.8"/>
      </g>
     </g>
    </g>
    <g id="xtick_3">
     <g id="line2d_5">
      <path d="M 175.471709 168.517812 
L 175.471709 48.331875 
" clip-path="url(#pe0a7de7b44)" style="fill: none; stroke: #b0b0b0; stroke-width: 0.8; stroke-linecap: square"/>
     </g>
     <g id="line2d_6">
      <g>
       <use xlink:href="#m89be2c7aa5" x="175.471709" y="168.517812" style="stroke: #000000; stroke-width: 0.8"/>
      </g>
     </g>
    </g>
    <g id="xtick_4">
     <g id="line2d_7">
      <path d="M 224.847301 168.517812 
L 224.847301 48.331875 
" clip-path="url(#pe0a7de7b44)" style="fill: none; stroke: #b0b0b0; stroke-width: 0.8; stroke-linecap: square"/>
     </g>
     <g id="line2d_8">
      <g>
       <use xlink:href="#m89be2c7aa5" x="224.847301" y="168.517812" style="stroke: #000000; stroke-width: 0.8"/>
      </g>
     </g>
    </g>
    <g id="xtick_5">
     <g id="line2d_9">
      <path d="M 274.222893 168.517812 
L 274.222893 48.331875 
" clip-path="url(#pe0a7de7b44)" style="fill: none; stroke: #b0b0b0; stroke-width: 0.8; stroke-linecap: square"/>
     </g>
     <g id="line2d_10">
      <g>
       <use xlink:href="#m89be2c7aa5" x="274.222893" y="168.517812" style="stroke: #000000; stroke-width: 0.8"/>
      </g>
     </g>
    </g>
    <g id="xtick_6">
     <g id="line2d_11">
      <path d="M 323.598485 168.517812 
L 323.598485 48.331875 
" clip-path="url(#pe0a7de7b44)" style="fill: none; stroke: #b0b0b0; stroke-width: 0.8; stroke-linecap: square"/>
     </g>
     <g id="line2d_12">
      <g>
       <use xlink:href="#m89be2c7aa5" x="323.598485" y="168.517812" style="stroke: #000000; stroke-width: 0.8"/>
      </g>
     </g>
    </g>
    <g id="xtick_7">
     <g id="line2d_13">
      <path d="M 372.974077 168.517812 
L 372.974077 48.331875 
" clip-path="url(#pe0a7de7b44)" style="fill: none; stroke: #b0b0b0; stroke-width: 0.8; stroke-linecap: square"/>
     </g>
     <g id="line2d_14">
      <g>
       <use xlink:href="#m89be2c7aa5" x="372.974077" y="168.517812" style="stroke: #000000; stroke-width: 0.8"/>
      </g>
     </g>
    </g>
    <g id="xtick_8">
     <g id="line2d_15">
      <path d="M 422.349669 168.517812 
L 422.349669 48.331875 
" clip-path="url(#pe0a7de7b44)" style="fill: none; stroke: #b0b0b0; stroke-width: 0.8; stroke-linecap: square"/>
     </g>
     <g id="line2d_16">
      <g>
       <use xlink:href="#m89be2c7aa5" x="422.349669" y="168.517812" style="stroke: #000000; stroke-width: 0.8"/>
      </g>
     </g>
    </g>
   </g>
   <g id="matplotlib.axis_2">
    <g id="ytick_1">
     <g id="line2d_17">
      <path d="M 58.945313 163.090803 
L 450 163.090803 
" clip-path="url(#pe0a7de7b44)" style="fill: none; stroke: #b0b0b0; stroke-width: 0.8; stroke-linecap: square"/>
     </g>
     <g id="line2d_18">
      <defs>
       <path id="m38b2284320" d="M 0 0 
L -3.5 0 
" style="stroke: #000000; stroke-width: 0.8"/>
      </defs>
      <g>
       <use xlink:href="#m38b2284320" x="58.945313" y="163.090803" style="stroke: #000000; stroke-width: 0.8"/>
      </g>
     </g>
     <g id="text_1">
      <!-- 0 -->
      <g transform="translate(45.582813 166.890022)scale(0.1 -0.1)">
       <defs>
        <path id="DejaVuSans-30" d="M 2034 4250 
Q 1547 4250 1301 3770 
Q 1056 3291 1056 2328 
Q 1056 1369 1301 889 
Q 1547 409 2034 409 
Q 2525 409 2770 889 
Q 3016 1369 3016 2328 
Q 3016 3291 2770 3770 
Q 2525 4250 2034 4250 
z
M 2034 4750 
Q 2819 4750 3233 4129 
Q 3647 3509 3647 2328 
Q 3647 1150 3233 529 
Q 2819 -91 2034 -91 
Q 1250 -91 836 529 
Q 422 1150 422 2328 
Q 422 3509 836 4129 
Q 1250 4750 2034 4750 
z
" transform="scale(0.015625)"/>
       </defs>
       <use xlink:href="#DejaVuSans-30"/>
      </g>
     </g>
    </g>
    <g id="ytick_2">
     <g id="line2d_19">
      <path d="M 58.945313 127.10268 
L 450 127.10268 
" clip-path="url(#pe0a7de7b44)" style="fill: none; stroke: #b0b0b0; stroke-width: 0.8; stroke-linecap: square"/>
     </g>
     <g id="line2d_20">
      <g>
       <use xlink:href="#m38b2284320" x="58.945313" y="127.10268" style="stroke: #000000; stroke-width: 0.8"/>
      </g>
     </g>
     <g id="text_2">
      <!-- 1000 -->
      <g transform="translate(26.495313 130.901899)scale(0.1 -0.1)">
       <defs>
        <path id="DejaVuSans-31" d="M 794 531 
L 1825 531 
L 1825 4091 
L 703 3866 
L 703 4441 
L 1819 4666 
L 2450 4666 
L 2450 531 
L 3481 531 
L 3481 0 
L 794 0 
L 794 531 
z
" transform="scale(0.015625)"/>
       </defs>
       <use xlink:href="#DejaVuSans-31"/>
       <use xlink:href="#DejaVuSans-30" x="63.623047"/>
       <use xlink:href="#DejaVuSans-30" x="127.246094"/>
       <use xlink:href="#DejaVuSans-30" x="190.869141"/>
      </g>
     </g>
    </g>
    <g id="ytick_3">
     <g id="line2d_21">
      <path d="M 58.945313 91.114556 
L 450 91.114556 
" clip-path="url(#pe0a7de7b44)" style="fill: none; stroke: #b0b0b0; stroke-width: 0.8; stroke-linecap: square"/>
     </g>
     <g id="line2d_22">
      <g>
       <use xlink:href="#m38b2284320" x="58.945313" y="91.114556" style="stroke: #000000; stroke-width: 0.8"/>
      </g>
     </g>
     <g id="text_3">
      <!-- 2000 -->
      <g transform="translate(26.495313 94.913775)scale(0.1 -0.1)">
       <defs>
        <path id="DejaVuSans-32" d="M 1228 531 
L 3431 531 
L 3431 0 
L 469 0 
L 469 531 
Q 828 903 1448 1529 
Q 2069 2156 2228 2338 
Q 2531 2678 2651 2914 
Q 2772 3150 2772 3378 
Q 2772 3750 2511 3984 
Q 2250 4219 1831 4219 
Q 1534 4219 1204 4116 
Q 875 4013 500 3803 
L 500 4441 
Q 881 4594 1212 4672 
Q 1544 4750 1819 4750 
Q 2544 4750 2975 4387 
Q 3406 4025 3406 3419 
Q 3406 3131 3298 2873 
Q 3191 2616 2906 2266 
Q 2828 2175 2409 1742 
Q 1991 1309 1228 531 
z
" transform="scale(0.015625)"/>
       </defs>
       <use xlink:href="#DejaVuSans-32"/>
       <use xlink:href="#DejaVuSans-30" x="63.623047"/>
       <use xlink:href="#DejaVuSans-30" x="127.246094"/>
       <use xlink:href="#DejaVuSans-30" x="190.869141"/>
      </g>
     </g>
    </g>
    <g id="ytick_4">
     <g id="line2d_23">
      <path d="M 58.945313 55.126433 
L 450 55.126433 
" clip-path="url(#pe0a7de7b44)" style="fill: none; stroke: #b0b0b0; stroke-width: 0.8; stroke-linecap: square"/>
     </g>
     <g id="line2d_24">
      <g>
       <use xlink:href="#m38b2284320" x="58.945313" y="55.126433" style="stroke: #000000; stroke-width: 0.8"/>
      </g>
     </g>
     <g id="text_4">
      <!-- 3000 -->
      <g transform="translate(26.495313 58.925651)scale(0.1 -0.1)">
       <defs>
        <path id="DejaVuSans-33" d="M 2597 2516 
Q 3050 2419 3304 2112 
Q 3559 1806 3559 1356 
Q 3559 666 3084 287 
Q 2609 -91 1734 -91 
Q 1441 -91 1130 -33 
Q 819 25 488 141 
L 488 750 
Q 750 597 1062 519 
Q 1375 441 1716 441 
Q 2309 441 2620 675 
Q 2931 909 2931 1356 
Q 2931 1769 2642 2001 
Q 2353 2234 1838 2234 
L 1294 2234 
L 1294 2753 
L 1863 2753 
Q 2328 2753 2575 2939 
Q 2822 3125 2822 3475 
Q 2822 3834 2567 4026 
Q 2313 4219 1838 4219 
Q 1578 4219 1281 4162 
Q 984 4106 628 3988 
L 628 4550 
Q 988 4650 1302 4700 
Q 1616 4750 1894 4750 
Q 2613 4750 3031 4423 
Q 3450 4097 3450 3541 
Q 3450 3153 3228 2886 
Q 3006 2619 2597 2516 
z
" transform="scale(0.015625)"/>
       </defs>
       <use xlink:href="#DejaVuSans-33"/>
       <use xlink:href="#DejaVuSans-30" x="63.623047"/>
       <use xlink:href="#DejaVuSans-30" x="127.246094"/>
       <use xlink:href="#DejaVuSans-30" x="190.869141"/>
      </g>
     </g>
    </g>
    <g id="text_5">
     <!-- reflector value -->
     <g transform="translate(20.415625 144.74125)rotate(-90)scale(0.1 -0.1)">
      <defs>
       <path id="DejaVuSans-72" d="M 2631 2963 
Q 2534 3019 2420 3045 
Q 2306 3072 2169 3072 
Q 1681 3072 1420 2755 
Q 1159 2438 1159 1844 
L 1159 0 
L 581 0 
L 581 3500 
L 1159 3500 
L 1159 2956 
Q 1341 3275 1631 3429 
Q 1922 3584 2338 3584 
Q 2397 3584 2469 3576 
Q 2541 3569 2628 3553 
L 2631 2963 
z
" transform="scale(0.015625)"/>
       <path id="DejaVuSans-65" d="M 3597 1894 
L 3597 1613 
L 953 1613 
Q 991 1019 1311 708 
Q 1631 397 2203 397 
Q 2534 397 2845 478 
Q 3156 559 3463 722 
L 3463 178 
Q 3153 47 2828 -22 
Q 2503 -91 2169 -91 
Q 1331 -91 842 396 
Q 353 884 353 1716 
Q 353 2575 817 3079 
Q 1281 3584 2069 3584 
Q 2775 3584 3186 3129 
Q 3597 2675 3597 1894 
z
M 3022 2063 
Q 3016 2534 2758 2815 
Q 2500 3097 2075 3097 
Q 1594 3097 1305 2825 
Q 1016 2553 972 2059 
L 3022 2063 
z
" transform="scale(0.015625)"/>
       <path id="DejaVuSans-66" d="M 2375 4863 
L 2375 4384 
L 1825 4384 
Q 1516 4384 1395 4259 
Q 1275 4134 1275 3809 
L 1275 3500 
L 2222 3500 
L 2222 3053 
L 1275 3053 
L 1275 0 
L 697 0 
L 697 3053 
L 147 3053 
L 147 3500 
L 697 3500 
L 697 3744 
Q 697 4328 969 4595 
Q 1241 4863 1831 4863 
L 2375 4863 
z
" transform="scale(0.015625)"/>
       <path id="DejaVuSans-6c" d="M 603 4863 
L 1178 4863 
L 1178 0 
L 603 0 
L 603 4863 
z
" transform="scale(0.015625)"/>
       <path id="DejaVuSans-63" d="M 3122 3366 
L 3122 2828 
Q 2878 2963 2633 3030 
Q 2388 3097 2138 3097 
Q 1578 3097 1268 2742 
Q 959 2388 959 1747 
Q 959 1106 1268 751 
Q 1578 397 2138 397 
Q 2388 397 2633 464 
Q 2878 531 3122 666 
L 3122 134 
Q 2881 22 2623 -34 
Q 2366 -91 2075 -91 
Q 1284 -91 818 406 
Q 353 903 353 1747 
Q 353 2603 823 3093 
Q 1294 3584 2113 3584 
Q 2378 3584 2631 3529 
Q 2884 3475 3122 3366 
z
" transform="scale(0.015625)"/>
       <path id="DejaVuSans-74" d="M 1172 4494 
L 1172 3500 
L 2356 3500 
L 2356 3053 
L 1172 3053 
L 1172 1153 
Q 1172 725 1289 603 
Q 1406 481 1766 481 
L 2356 481 
L 2356 0 
L 1766 0 
Q 1100 0 847 248 
Q 594 497 594 1153 
L 594 3053 
L 172 3053 
L 172 3500 
L 594 3500 
L 594 4494 
L 1172 4494 
z
" transform="scale(0.015625)"/>
       <path id="DejaVuSans-6f" d="M 1959 3097 
Q 1497 3097 1228 2736 
Q 959 2375 959 1747 
Q 959 1119 1226 758 
Q 1494 397 1959 397 
Q 2419 397 2687 759 
Q 2956 1122 2956 1747 
Q 2956 2369 2687 2733 
Q 2419 3097 1959 3097 
z
M 1959 3584 
Q 2709 3584 3137 3096 
Q 3566 2609 3566 1747 
Q 3566 888 3137 398 
Q 2709 -91 1959 -91 
Q 1206 -91 779 398 
Q 353 888 353 1747 
Q 353 2609 779 3096 
Q 1206 3584 1959 3584 
z
" transform="scale(0.015625)"/>
       <path id="DejaVuSans-20" transform="scale(0.015625)"/>
       <path id="DejaVuSans-76" d="M 191 3500 
L 800 3500 
L 1894 563 
L 2988 3500 
L 3597 3500 
L 2284 0 
L 1503 0 
L 191 3500 
z
" transform="scale(0.015625)"/>
       <path id="DejaVuSans-61" d="M 2194 1759 
Q 1497 1759 1228 1600 
Q 959 1441 959 1056 
Q 959 750 1161 570 
Q 1363 391 1709 391 
Q 2188 391 2477 730 
Q 2766 1069 2766 1631 
L 2766 1759 
L 2194 1759 
z
M 3341 1997 
L 3341 0 
L 2766 0 
L 2766 531 
Q 2569 213 2275 61 
Q 1981 -91 1556 -91 
Q 1019 -91 701 211 
Q 384 513 384 1019 
Q 384 1609 779 1909 
Q 1175 2209 1959 2209 
L 2766 2209 
L 2766 2266 
Q 2766 2663 2505 2880 
Q 2244 3097 1772 3097 
Q 1472 3097 1187 3025 
Q 903 2953 641 2809 
L 641 3341 
Q 956 3463 1253 3523 
Q 1550 3584 1831 3584 
Q 2591 3584 2966 3190 
Q 3341 2797 3341 1997 
z
" transform="scale(0.015625)"/>
       <path id="DejaVuSans-75" d="M 544 1381 
L 544 3500 
L 1119 3500 
L 1119 1403 
Q 1119 906 1312 657 
Q 1506 409 1894 409 
Q 2359 409 2629 706 
Q 2900 1003 2900 1516 
L 2900 3500 
L 3475 3500 
L 3475 0 
L 2900 0 
L 2900 538 
Q 2691 219 2414 64 
Q 2138 -91 1772 -91 
Q 1169 -91 856 284 
Q 544 659 544 1381 
z
M 1991 3584 
L 1991 3584 
z
" transform="scale(0.015625)"/>
      </defs>
      <use xlink:href="#DejaVuSans-72"/>
      <use xlink:href="#DejaVuSans-65" x="38.863281"/>
      <use xlink:href="#DejaVuSans-66" x="100.386719"/>
      <use xlink:href="#DejaVuSans-6c" x="135.591797"/>
      <use xlink:href="#DejaVuSans-65" x="163.375"/>
      <use xlink:href="#DejaVuSans-63" x="224.898438"/>
      <use xlink:href="#DejaVuSans-74" x="279.878906"/>
      <use xlink:href="#DejaVuSans-6f" x="319.087891"/>
      <use xlink:href="#DejaVuSans-72" x="380.269531"/>
      <use xlink:href="#DejaVuSans-20" x="421.382812"/>
      <use xlink:href="#DejaVuSans-76" x="453.169922"/>
      <use xlink:href="#DejaVuSans-61" x="512.349609"/>
      <use xlink:href="#DejaVuSans-6c" x="573.628906"/>
      <use xlink:href="#DejaVuSans-75" x="601.412109"/>
      <use xlink:href="#DejaVuSans-65" x="664.791016"/>
     </g>
    </g>
   </g>
   <g id="line2d_25">
    <path d="M 76.720526 135.451925 
L 76.734074 135.34396 
L 76.720842 136.243663 
L 76.828954 135.451925 
L 76.85384 135.523901 
L 76.914572 135.487913 
L 76.991499 135.379948 
L 77.141107 136.351628 
L 77.201148 135.991746 
L 77.33772 136.49558 
L 77.497994 135.487913 
L 77.683942 135.523901 
L 77.89764 135.631865 
L 78.272894 135.73983 
L 78.563223 136.207675 
L 78.721225 136.027735 
L 79.063891 136.351628 
L 79.247568 136.063723 
L 79.441121 136.423604 
L 81.581059 137.503248 
L 81.863487 137.503248 
L 83.081089 138.510915 
L 83.742722 138.330974 
L 84.087364 138.330974 
L 84.440893 138.079058 
L 84.802322 138.151034 
L 85.173627 138.079058 
L 85.553819 138.22301 
L 85.942899 137.863129 
L 89.834683 137.791153 
L 90.308688 137.539236 
L 90.792569 137.683188 
L 91.27645 137.683188 
L 92.273837 137.359295 
L 92.787343 137.6472 
L 93.814355 136.711509 
L 94.347612 136.963426 
L 94.880868 136.783485 
L 95.957256 137.107378 
L 97.053394 137.179354 
L 98.169283 136.963426 
L 98.732164 138.402951 
L 99.295046 136.423604 
L 100.44056 136.063723 
L 101.023192 136.099711 
L 101.595949 135.955758 
L 102.178581 135.487913 
L 102.761213 135.811806 
L 103.343845 135.487913 
L 103.936352 135.811806 
L 105.703998 135.34396 
L 107.481519 135.451925 
L 108.074026 135.379948 
L 108.666533 135.128031 
L 109.259041 135.235996 
L 109.851548 135.128031 
L 110.444055 135.379948 
L 111.036562 135.092043 
L 112.221576 135.092043 
L 112.814083 134.948091 
L 113.40659 135.020067 
L 113.999097 134.912103 
L 114.591605 135.451925 
L 115.184112 135.631865 
L 115.776619 135.415936 
L 116.369126 136.027735 
L 116.961633 134.948091 
L 117.55414 134.876115 
L 118.739154 134.948091 
L 119.331661 134.876115 
L 123.479211 135.451925 
L 124.071718 135.955758 
L 124.664225 135.559889 
L 125.256732 135.883782 
L 125.849239 135.703841 
L 126.441747 135.955758 
L 128.811775 136.207675 
L 129.404282 136.099711 
L 129.996789 136.351628 
L 130.589296 137.035402 
L 131.77431 136.927438 
L 132.366818 137.6472 
L 132.959325 136.783485 
L 133.551832 136.567556 
L 135.329353 137.215343 
L 135.92186 137.719176 
L 136.514367 137.971093 
L 137.106874 138.366963 
L 138.291889 139.806488 
L 138.884396 140.418286 
L 139.476903 141.282001 
L 140.661917 143.549252 
L 141.846931 146.608243 
L 143.624453 151.178735 
L 145.994481 158.5563 
L 147.772002 162.514993 
L 148.364509 163.054815 
L 219.415986 163.054815 
L 220.008493 162.407029 
L 220.601 161.43535 
L 221.193507 160.967504 
L 221.786014 160.211754 
L 224.156043 155.533298 
L 225.341057 152.366343 
L 225.933564 150.998794 
L 227.118578 147.975792 
L 227.711085 146.392314 
L 230.673621 140.274333 
L 231.858635 138.834808 
L 232.451142 138.510915 
L 233.043649 138.330974 
L 233.636156 137.935105 
L 234.228664 138.330974 
L 234.821171 137.07139 
L 235.413678 136.639533 
L 236.006185 136.819473 
L 236.598692 136.675521 
L 237.191199 136.675521 
L 237.783706 136.963426 
L 238.376213 136.819473 
L 238.96872 137.07139 
L 239.561228 136.855461 
L 240.153735 137.035402 
L 240.746242 136.819473 
L 241.338749 136.927438 
L 241.931256 136.819473 
L 242.523763 137.575224 
L 243.11627 137.935105 
L 243.708777 137.755164 
L 244.301284 137.827141 
L 244.893791 139.086725 
L 245.486299 137.179354 
L 247.856327 137.431271 
L 248.448834 137.179354 
L 249.041341 137.395283 
L 249.633848 137.215343 
L 250.226355 137.323307 
L 251.41137 137.251331 
L 252.596384 137.935105 
L 253.188891 137.863129 
L 253.781398 137.935105 
L 254.373905 137.827141 
L 254.966412 138.330974 
L 255.558919 137.179354 
L 257.336441 137.143366 
L 259.706469 137.179354 
L 261.48399 137.179354 
L 262.076497 137.719176 
L 262.669004 139.014749 
L 263.261512 137.863129 
L 263.854019 137.827141 
L 264.446526 137.287319 
L 266.224047 136.855461 
L 266.816554 137.107378 
L 267.409061 137.07139 
L 268.001568 136.711509 
L 268.594076 136.927438 
L 269.186583 136.927438 
L 269.77909 137.07139 
L 270.371597 136.927438 
L 270.964104 137.827141 
L 271.556611 137.791153 
L 272.149118 137.611212 
L 272.741625 137.719176 
L 273.334132 138.870796 
L 273.926639 136.855461 
L 274.519147 136.891449 
L 275.111654 137.107378 
L 276.296668 136.927438 
L 276.889175 137.07139 
L 277.481682 136.963426 
L 278.074189 137.179354 
L 278.666696 137.107378 
L 279.259203 137.539236 
L 280.444218 138.043069 
L 281.036725 137.827141 
L 282.221739 138.115046 
L 282.814246 137.179354 
L 283.406753 137.359295 
L 283.99926 137.287319 
L 284.591767 137.395283 
L 285.184274 137.179354 
L 285.776781 137.395283 
L 286.369289 137.359295 
L 286.961796 137.539236 
L 287.554303 137.503248 
L 288.14681 138.366963 
L 288.739317 138.654868 
L 289.331824 138.366963 
L 289.924331 139.302654 
L 290.516838 138.22301 
L 291.109345 137.611212 
L 294.664388 137.431271 
L 295.256895 137.539236 
L 295.849402 137.791153 
L 296.441909 138.330974 
L 297.034416 138.654868 
L 297.626924 138.187022 
L 298.219431 138.258998 
L 298.811938 137.791153 
L 299.404445 137.179354 
L 299.996952 137.395283 
L 300.589459 137.215343 
L 302.36698 137.359295 
L 302.959487 137.179354 
L 303.551995 137.179354 
L 304.144502 138.115046 
L 304.737009 138.330974 
L 305.329516 138.258998 
L 305.922023 138.618879 
L 306.51453 137.827141 
L 307.107037 137.251331 
L 307.699544 137.251331 
L 308.884558 137.539236 
L 309.477066 137.575224 
L 310.66208 137.971093 
L 311.847094 139.518583 
L 312.439601 139.878464 
L 313.032108 140.562238 
L 313.624615 140.994096 
L 314.217122 141.605894 
L 314.809629 141.67787 
L 315.402137 142.397632 
L 316.587151 144.448955 
L 318.364672 148.695554 
L 320.142193 154.813535 
L 320.734701 156.181084 
L 321.327208 157.908514 
L 321.919715 159.168098 
L 322.512222 159.88786 
L 323.104729 161.327385 
L 323.697236 162.299065 
L 324.289743 163.054815 
L 383.540453 163.054815 
L 385.910482 162.443017 
L 386.502989 163.054815 
L 389.465524 163.054815 
L 390.058031 160.535647 
L 390.650539 160.211754 
L 391.835553 159.240074 
L 392.42806 159.024146 
L 393.020567 161.399362 
L 393.613074 161.363374 
L 394.205581 160.607623 
L 395.390595 159.851872 
L 395.983103 155.821203 
L 396.57561 155.029464 
L 397.760624 153.877844 
L 398.353131 153.050117 
L 398.945638 156.073119 
L 400.130652 154.705571 
L 401.315666 154.057784 
L 401.908174 149.667233 
L 402.500681 149.34334 
L 403.093188 149.199388 
L 404.278202 149.34334 
L 404.870709 153.841856 
L 406.64823 155.821203 
L 407.240737 157.260727 
L 407.833245 153.661915 
L 409.018259 156.181084 
L 410.104522 158.484324 
L 410.697029 163.054815 
L 412.869555 163.054815 
L 413.462062 162.155112 
L 414.548325 162.874875 
L 415.042081 162.874875 
L 416.029593 163.054815 
L 418.103368 163.054815 
L 418.597124 162.694934 
L 418.992128 162.550982 
L 419.97964 162.550982 
L 420.374645 162.335053 
L 420.868401 163.054815 
L 422.547171 163.054815 
L 422.942176 161.975172 
L 423.33718 161.327385 
L 423.732185 161.183433 
L 424.423443 161.291397 
L 424.818448 163.054815 
L 426.102214 163.054815 
L 426.398467 160.535647 
L 426.694721 160.28373 
L 426.990974 160.28373 
L 427.287228 159.88786 
L 427.583481 160.499659 
L 427.879735 163.054815 
L 428.867247 163.054815 
L 429.064749 160.85954 
L 429.262251 160.031813 
L 429.459754 159.959837 
L 429.657256 159.240074 
L 429.854759 160.319718 
L 430.151012 163.054815 
L 430.644768 163.054815 
L 430.743519 160.535647 
L 431.138524 158.700252 
L 431.237275 160.067801 
L 431.434777 163.054815 
L 431.63228 163.054815 
L 431.63228 163.054815 
L 431.829782 159.13211 
L 431.829782 159.348039 
L 431.928533 158.484324 
L 432.027285 163.054815 
L 432.027285 163.054815 
L 432.126036 163.054815 
L 432.126036 163.054815 
L 432.224787 156.181084 
L 432.224787 157.368692 
" clip-path="url(#pe0a7de7b44)" style="fill: none; stroke: #1f77b4; stroke-width: 1.5; stroke-linecap: square"/>
   </g>
   <g id="line2d_26">
    <path d="M 76.720526 163.054815 
L 357.470141 163.054815 
L 358.062648 162.622958 
L 358.655155 162.730922 
L 359.247662 162.479005 
L 360.432676 162.514993 
L 361.025183 163.054815 
L 363.987719 163.054815 
L 364.580226 161.723255 
L 365.172733 161.651279 
L 365.76524 161.867207 
L 366.357747 161.399362 
L 366.950254 161.363374 
L 367.542762 163.054815 
L 369.91279 163.054815 
L 370.505297 162.155112 
L 371.097804 160.607623 
L 371.690311 160.715587 
L 372.282818 160.571635 
L 372.875326 160.715587 
L 373.467833 160.211754 
L 374.06034 163.054815 
L 376.430368 163.054815 
L 377.022875 160.967504 
L 377.615382 159.420015 
L 378.207889 159.096122 
L 379.985411 159.024146 
L 380.577918 163.054815 
L 382.947946 163.054815 
L 383.540453 159.060134 
L 384.13296 157.908514 
L 384.725468 157.836537 
L 385.317975 157.40468 
L 385.910482 157.260727 
L 386.502989 161.327385 
L 387.095496 162.982839 
L 387.688003 162.910863 
L 388.28051 162.550982 
L 388.873017 162.407029 
L 389.465524 162.443017 
L 390.058031 157.296716 
L 390.650539 155.821203 
L 391.835553 155.497309 
L 392.42806 154.957488 
L 393.020567 160.535647 
L 393.613074 161.255409 
L 394.798088 160.85954 
L 395.390595 160.715587 
L 395.983103 154.669583 
L 396.57561 153.302034 
L 397.168117 152.942153 
L 397.760624 152.906164 
L 398.353131 152.330355 
L 398.945638 158.988157 
L 399.538145 159.096122 
L 400.130652 159.060134 
L 400.723159 158.700252 
L 401.315666 158.484324 
L 401.908174 151.682568 
L 402.500681 150.099091 
L 403.093188 149.631245 
L 403.685695 149.631245 
L 404.278202 149.847174 
L 404.870709 156.648929 
L 405.463216 156.756894 
L 406.055723 156.289048 
L 406.64823 156.109107 
L 407.240737 155.641262 
L 407.833245 148.19172 
L 408.425752 146.716207 
L 409.512015 145.70854 
L 410.104522 144.808837 
L 410.697029 153.302034 
L 411.289536 153.122093 
L 412.375799 152.22239 
L 412.869555 151.790533 
L 413.462062 142.397632 
L 413.955818 142.289668 
L 415.535837 140.634214 
L 416.029593 149.019447 
L 416.6221 148.443637 
L 417.609612 147.076088 
L 418.103368 146.788183 
L 418.597124 136.171687 
L 418.992128 137.215343 
L 419.485884 135.667853 
L 419.97964 135.092043 
L 420.374645 134.120364 
L 420.868401 142.541585 
L 421.263406 141.857811 
L 421.757161 141.282001 
L 422.152166 140.562238 
L 422.547171 140.166369 
L 422.942176 128.290288 
L 423.33718 129.477896 
L 423.732185 127.714478 
L 424.12719 126.994716 
L 424.423443 126.202977 
L 424.818448 135.847794 
L 425.114702 133.940423 
L 425.80596 132.46491 
L 426.102214 131.421255 
L 426.398467 118.825411 
L 426.694721 120.156972 
L 427.583481 116.126302 
L 427.879735 124.835428 
L 428.570993 121.236616 
L 428.867247 119.941043 
L 429.064749 107.3452 
L 429.262251 107.489153 
L 429.854759 102.198898 
L 430.052261 111.339882 
L 430.348514 108.316879 
L 430.546017 107.057295 
L 430.644768 105.005972 
L 430.743519 92.590069 
L 430.941022 93.057915 
L 431.237275 88.631376 
L 431.336026 96.872656 
L 431.63228 91.690366 
L 431.731031 80.965905 
L 431.829782 83.089205 
L 431.829782 81.757644 
L 431.928533 81.433751 
L 431.928533 79.994226 
L 432.027285 84.780647 
L 432.027285 83.233157 
L 432.126036 80.893929 
L 432.224787 55.990148 
L 432.224787 65.527 
" clip-path="url(#pe0a7de7b44)" style="fill: none; stroke: #ff7f0e; stroke-width: 1.5; stroke-linecap: square"/>
   </g>
   <g id="line2d_27">
    <path d="M 76.720526 163.054815 
L 376.430368 163.054815 
L 377.022875 162.119124 
L 378.800397 161.363374 
L 379.392904 161.363374 
L 379.985411 163.054815 
L 382.947946 163.054815 
L 383.540453 160.175765 
L 384.725468 159.88786 
L 385.317975 159.563967 
L 385.910482 159.456003 
L 386.502989 163.054815 
L 389.465524 163.054815 
L 390.058031 157.800549 
L 391.243046 157.440668 
L 391.835553 157.584621 
L 392.42806 156.864858 
L 393.020567 162.550982 
L 393.613074 162.443017 
L 394.205581 162.083136 
L 395.390595 161.831219 
L 395.983103 155.497309 
L 396.57561 155.245393 
L 397.168117 154.813535 
L 397.760624 154.993476 
L 398.353131 154.453654 
L 398.945638 160.427682 
L 399.538145 160.211754 
L 400.130652 159.671932 
L 401.315666 159.276062 
L 401.908174 152.906164 
L 402.500681 152.150414 
L 403.093188 151.754545 
L 403.685695 151.574604 
L 404.278202 151.178735 
L 404.870709 157.368692 
L 406.055723 156.720906 
L 406.64823 156.540965 
L 407.240737 156.181084 
L 407.833245 148.263697 
L 408.425752 147.759863 
L 409.018259 147.43597 
L 409.512015 146.644231 
L 410.104522 146.176385 
L 410.697029 153.409998 
L 411.289536 153.086105 
L 411.783292 152.546283 
L 412.375799 152.114426 
L 412.869555 151.502628 
L 413.462062 142.973442 
L 413.955818 141.965775 
L 415.042081 140.814155 
L 415.535837 143.873145 
L 416.029593 148.047768 
L 416.6221 147.543934 
L 417.115856 146.968124 
L 418.103368 145.564587 
L 418.597124 135.955758 
L 418.992128 136.099711 
L 419.97964 134.048388 
L 420.374645 139.914452 
L 420.868401 140.958107 
L 422.547171 137.899117 
L 422.942176 127.930407 
L 423.33718 127.138668 
L 423.732185 125.879084 
L 424.12719 125.159321 
L 424.423443 130.917421 
L 424.818448 131.457243 
L 425.114702 130.845445 
L 426.102214 127.570525 
L 426.398467 117.565827 
L 426.694721 116.018338 
L 426.990974 115.442528 
L 427.287228 114.470849 
L 427.583481 120.372901 
L 427.879735 119.941043 
L 428.867247 114.650789 
L 429.064749 103.998305 
L 429.459754 101.695065 
L 429.657256 100.25554 
L 429.854759 105.581782 
L 430.052261 105.473818 
L 430.348514 102.054946 
L 430.644768 100.075599 
L 430.743519 88.667364 
L 431.138524 84.52873 
L 431.237275 89.603055 
L 431.434777 87.731673 
L 431.63228 83.413098 
L 431.829782 76.143497 
L 431.829782 76.143497 
L 431.928533 75.279782 
L 431.928533 79.34644 
L 432.027285 76.215473 
L 432.126036 74.991877 
L 432.126036 74.991877 
L 432.224787 53.794872 
L 432.224787 61.028485 
" clip-path="url(#pe0a7de7b44)" style="fill: none; stroke: #2ca02c; stroke-width: 1.5; stroke-linecap: square"/>
   </g>
   <g id="line2d_28">
    <path d="M 76.720526 144.844825 
L 76.720842 144.16105 
L 76.788782 145.240694 
L 76.828954 145.060754 
L 76.991499 144.520932 
L 77.036529 145.240694 
L 77.0863 144.376979 
L 77.201148 144.700872 
L 77.26662 145.168718 
L 77.414746 144.269015 
L 77.58766 145.456623 
L 77.787038 144.089074 
L 78.015154 145.240694 
L 78.13958 143.98111 
L 78.272894 144.305003 
L 78.563223 144.053086 
L 78.721225 143.873145 
L 78.888114 144.089074 
L 79.063891 144.089074 
L 79.247568 143.837157 
L 79.441121 144.089074 
L 79.643561 143.729193 
L 79.854888 143.765181 
L 80.074116 143.477276 
L 80.303219 144.233027 
L 80.541209 143.765181 
L 80.788087 143.729193 
L 81.042865 142.937454 
L 81.307518 143.261347 
L 81.581059 142.937454 
L 81.863487 143.477276 
L 82.153816 142.865478 
L 82.454019 142.937454 
L 82.76311 143.153383 
L 83.081089 143.189371 
L 83.742722 142.397632 
L 84.087364 142.649549 
L 85.173627 142.469609 
L 85.553819 142.937454 
L 85.942899 142.361644 
L 86.339878 142.937454 
L 86.743771 142.865478 
L 87.158526 142.613561 
L 88.017661 142.757514 
L 88.916297 142.577573 
L 89.370552 142.82949 
L 90.308688 142.973442 
L 90.792569 142.793502 
L 91.27645 142.901466 
L 91.770206 143.189371 
L 92.273837 142.937454 
L 92.787343 143.117395 
L 93.300849 143.58524 
L 93.814355 143.477276 
L 94.347612 142.577573 
L 94.880868 143.4053 
L 95.414125 143.549252 
L 95.957256 143.909134 
L 96.500388 143.909134 
L 97.053394 143.693205 
L 97.606401 144.089074 
L 101.023192 144.197039 
L 101.595949 144.700872 
L 102.178581 144.700872 
L 102.761213 144.412967 
L 103.343845 144.844825 
L 103.936352 144.73686 
L 104.528859 144.880813 
L 105.111491 144.448955 
L 105.703998 144.844825 
L 106.296505 144.55692 
L 106.889012 145.240694 
L 107.481519 145.348659 
L 108.666533 144.880813 
L 109.259041 144.700872 
L 109.851548 144.880813 
L 110.444055 144.880813 
L 111.036562 145.240694 
L 112.221576 145.060754 
L 112.814083 144.988777 
L 113.40659 145.348659 
L 113.999097 145.024765 
L 115.776619 145.13273 
L 116.369126 145.564587 
L 116.961633 145.024765 
L 117.55414 145.168718 
L 118.739154 144.73686 
L 119.331661 145.816504 
L 119.924168 144.448955 
L 120.516676 144.73686 
L 121.109183 144.16105 
L 122.294197 144.376979 
L 122.886704 144.16105 
L 123.479211 144.269015 
L 124.071718 144.16105 
L 124.664225 144.233027 
L 125.256732 143.909134 
L 125.849239 144.340991 
L 126.441747 144.448955 
L 127.034254 143.909134 
L 127.626761 144.089074 
L 128.219268 143.98111 
L 128.811775 144.305003 
L 129.404282 143.729193 
L 129.996789 144.089074 
L 130.589296 144.053086 
L 131.181803 143.873145 
L 131.77431 144.089074 
L 132.959325 144.197039 
L 133.551832 144.305003 
L 134.144339 144.089074 
L 134.736846 144.844825 
L 135.329353 144.305003 
L 135.92186 144.448955 
L 136.514367 144.880813 
L 137.106874 145.060754 
L 139.476903 146.752195 
L 140.661917 147.867827 
L 143.031945 151.574604 
L 144.21696 153.733891 
L 144.809467 154.849523 
L 146.586988 159.096122 
L 147.179495 160.175765 
L 147.772002 161.867207 
L 148.957016 163.054815 
L 222.971029 163.054815 
L 223.563536 162.730922 
L 225.933564 159.384027 
L 227.118578 157.152763 
L 228.303593 155.10144 
L 229.488607 152.906164 
L 230.081114 152.150414 
L 231.858635 149.1634 
L 232.451142 148.659566 
L 233.043649 148.731542 
L 233.636156 147.543934 
L 234.821171 147.148065 
L 235.413678 146.824172 
L 236.006185 146.104409 
L 236.598692 146.032433 
L 237.191199 146.212374 
L 237.783706 146.140397 
L 238.376213 146.212374 
L 238.96872 145.924469 
L 239.561228 146.032433 
L 240.746242 145.996445 
L 241.338749 146.248362 
L 241.931256 145.600575 
L 242.523763 145.852492 
L 243.708777 145.852492 
L 244.301284 147.292017 
L 244.893791 145.780516 
L 245.486299 145.564587 
L 246.078806 146.068421 
L 246.671313 145.240694 
L 247.26382 145.240694 
L 247.856327 145.420635 
L 248.448834 145.240694 
L 249.041341 145.276682 
L 249.633848 144.880813 
L 251.41137 145.456623 
L 252.003877 145.852492 
L 253.188891 145.168718 
L 253.781398 145.672552 
L 254.373905 145.240694 
L 254.966412 145.276682 
L 256.151426 145.060754 
L 256.743933 145.024765 
L 257.336441 145.348659 
L 257.928948 145.096742 
L 259.706469 145.13273 
L 260.298976 144.844825 
L 260.891483 145.420635 
L 261.48399 144.844825 
L 262.669004 145.70854 
L 263.261512 145.240694 
L 264.446526 145.420635 
L 265.039033 144.880813 
L 265.63154 145.240694 
L 266.224047 145.816504 
L 266.816554 144.916801 
L 268.594076 145.024765 
L 269.77909 145.636564 
L 270.371597 144.880813 
L 270.964104 145.348659 
L 271.556611 145.13273 
L 272.741625 145.240694 
L 273.926639 145.13273 
L 274.519147 144.844825 
L 275.111654 145.276682 
L 275.704161 145.276682 
L 276.296668 145.060754 
L 276.889175 144.520932 
L 277.481682 144.73686 
L 278.074189 145.924469 
L 278.666696 144.73686 
L 279.259203 144.988777 
L 281.036725 145.060754 
L 281.629232 144.772849 
L 282.814246 144.808837 
L 283.406753 144.412967 
L 283.99926 145.240694 
L 284.591767 144.305003 
L 285.184274 144.340991 
L 285.776781 144.125062 
L 287.554303 144.017098 
L 288.14681 144.73686 
L 288.739317 144.880813 
L 289.331824 144.376979 
L 289.924331 144.269015 
L 290.516838 145.744528 
L 291.109345 144.017098 
L 292.886867 144.089074 
L 293.479374 143.837157 
L 295.256895 144.017098 
L 295.849402 144.305003 
L 296.441909 144.73686 
L 297.034416 144.340991 
L 297.626924 144.880813 
L 298.219431 144.772849 
L 298.811938 144.448955 
L 299.404445 143.98111 
L 299.996952 144.089074 
L 300.589459 144.484944 
L 301.181966 144.484944 
L 301.774473 144.73686 
L 302.36698 143.98111 
L 302.959487 144.089074 
L 303.551995 144.053086 
L 304.144502 145.060754 
L 305.329516 145.240694 
L 305.922023 144.700872 
L 306.51453 145.240694 
L 307.107037 144.448955 
L 308.292051 144.269015 
L 308.884558 145.024765 
L 309.477066 144.269015 
L 310.069573 145.024765 
L 310.66208 144.844825 
L 311.847094 145.636564 
L 312.439601 145.31267 
L 313.032108 145.564587 
L 313.624615 145.456623 
L 314.217122 145.960457 
L 314.809629 145.240694 
L 315.402137 145.348659 
L 317.179658 146.572255 
L 318.364672 148.155732 
L 319.549686 150.063103 
L 321.327208 152.762212 
L 321.919715 154.237725 
L 322.512222 154.381678 
L 323.104729 155.281381 
L 323.697236 156.397012 
L 324.88225 159.060134 
L 326.067264 161.327385 
L 326.659772 163.054815 
L 390.058031 163.054815 
L 392.42806 162.263077 
L 393.020567 163.054815 
L 395.390595 163.054815 
L 395.983103 160.427682 
L 396.57561 160.103789 
L 397.168117 159.563967 
L 397.760624 159.420015 
L 398.353131 158.952169 
L 398.945638 161.255409 
L 399.538145 161.111457 
L 400.130652 160.28373 
L 401.315666 159.13211 
L 401.908174 155.533298 
L 402.500681 154.993476 
L 403.685695 153.302034 
L 404.278202 152.726224 
L 404.870709 155.605274 
L 405.463216 155.209404 
L 406.055723 154.993476 
L 406.64823 154.453654 
L 407.240737 154.561618 
L 407.833245 150.458972 
L 408.425752 150.782865 
L 409.018259 150.638913 
L 410.104522 151.934485 
L 410.697029 156.25306 
L 412.375799 159.527979 
L 412.869555 160.787564 
L 413.462062 158.232407 
L 413.955818 158.880193 
L 414.548325 160.175765 
L 415.042081 160.607623 
L 415.535837 161.327385 
L 416.029593 163.054815 
L 418.103368 163.054815 
L 418.597124 162.76691 
L 419.485884 162.910863 
L 419.97964 162.658946 
L 420.374645 162.76691 
L 420.868401 163.054815 
L 422.547171 163.054815 
L 423.33718 162.047148 
L 423.732185 162.479005 
L 424.12719 161.831219 
L 424.423443 161.723255 
L 424.818448 163.054815 
L 426.102214 163.054815 
L 426.398467 160.967504 
L 426.694721 160.967504 
L 426.990974 161.291397 
L 427.287228 160.823552 
L 427.583481 160.643611 
L 427.879735 163.054815 
L 428.867247 163.054815 
L 429.064749 160.46367 
L 429.459754 160.211754 
L 429.657256 160.715587 
L 429.854759 160.211754 
L 430.151012 163.054815 
L 430.644768 163.054815 
L 430.743519 160.175765 
L 431.039773 160.427682 
L 431.237275 160.247742 
L 431.434777 163.054815 
L 431.63228 163.054815 
L 431.63228 163.054815 
L 431.731031 159.851872 
L 431.829782 159.88786 
L 431.829782 160.535647 
L 431.928533 160.103789 
L 432.126036 163.054815 
L 432.126036 163.054815 
L 432.224787 158.952169 
L 432.224787 159.851872 
" clip-path="url(#pe0a7de7b44)" style="fill: none; stroke: #d62728; stroke-width: 1.5; stroke-linecap: square"/>
   </g>
   <g id="patch_3">
    <path d="M 58.945313 168.517812 
L 58.945313 48.331875 
" style="fill: none; stroke: #000000; stroke-width: 0.8; stroke-linejoin: miter; stroke-linecap: square"/>
   </g>
   <g id="patch_4">
    <path d="M 450 168.517812 
L 450 48.331875 
" style="fill: none; stroke: #000000; stroke-width: 0.8; stroke-linejoin: miter; stroke-linecap: square"/>
   </g>
   <g id="patch_5">
    <path d="M 58.945313 168.517812 
L 450 168.517812 
" style="fill: none; stroke: #000000; stroke-width: 0.8; stroke-linejoin: miter; stroke-linecap: square"/>
   </g>
   <g id="patch_6">
    <path d="M 58.945313 48.331875 
L 450 48.331875 
" style="fill: none; stroke: #000000; stroke-width: 0.8; stroke-linejoin: miter; stroke-linecap: square"/>
   </g>
   <g id="text_6">
    <!-- Reflector Raw Value -->
    <g transform="translate(194.712656 42.331875)scale(0.12 -0.12)">
     <defs>
      <path id="DejaVuSans-52" d="M 2841 2188 
Q 3044 2119 3236 1894 
Q 3428 1669 3622 1275 
L 4263 0 
L 3584 0 
L 2988 1197 
Q 2756 1666 2539 1819 
Q 2322 1972 1947 1972 
L 1259 1972 
L 1259 0 
L 628 0 
L 628 4666 
L 2053 4666 
Q 2853 4666 3247 4331 
Q 3641 3997 3641 3322 
Q 3641 2881 3436 2590 
Q 3231 2300 2841 2188 
z
M 1259 4147 
L 1259 2491 
L 2053 2491 
Q 2509 2491 2742 2702 
Q 2975 2913 2975 3322 
Q 2975 3731 2742 3939 
Q 2509 4147 2053 4147 
L 1259 4147 
z
" transform="scale(0.015625)"/>
      <path id="DejaVuSans-77" d="M 269 3500 
L 844 3500 
L 1563 769 
L 2278 3500 
L 2956 3500 
L 3675 769 
L 4391 3500 
L 4966 3500 
L 4050 0 
L 3372 0 
L 2619 2869 
L 1863 0 
L 1184 0 
L 269 3500 
z
" transform="scale(0.015625)"/>
      <path id="DejaVuSans-56" d="M 1831 0 
L 50 4666 
L 709 4666 
L 2188 738 
L 3669 4666 
L 4325 4666 
L 2547 0 
L 1831 0 
z
" transform="scale(0.015625)"/>
     </defs>
     <use xlink:href="#DejaVuSans-52"/>
     <use xlink:href="#DejaVuSans-65" x="64.982422"/>
     <use xlink:href="#DejaVuSans-66" x="126.505859"/>
     <use xlink:href="#DejaVuSans-6c" x="161.710938"/>
     <use xlink:href="#DejaVuSans-65" x="189.494141"/>
     <use xlink:href="#DejaVuSans-63" x="251.017578"/>
     <use xlink:href="#DejaVuSans-74" x="305.998047"/>
     <use xlink:href="#DejaVuSans-6f" x="345.207031"/>
     <use xlink:href="#DejaVuSans-72" x="406.388672"/>
     <use xlink:href="#DejaVuSans-20" x="447.501953"/>
     <use xlink:href="#DejaVuSans-52" x="479.289062"/>
     <use xlink:href="#DejaVuSans-61" x="546.521484"/>
     <use xlink:href="#DejaVuSans-77" x="607.800781"/>
     <use xlink:href="#DejaVuSans-20" x="689.587891"/>
     <use xlink:href="#DejaVuSans-56" x="721.375"/>
     <use xlink:href="#DejaVuSans-61" x="782.033203"/>
     <use xlink:href="#DejaVuSans-6c" x="843.3125"/>
     <use xlink:href="#DejaVuSans-75" x="871.095703"/>
     <use xlink:href="#DejaVuSans-65" x="934.474609"/>
    </g>
   </g>
   <g id="legend_1">
    <g id="patch_7">
     <path d="M 65.945312 115.044375 
L 133.360938 115.044375 
Q 135.360938 115.044375 135.360938 113.044375 
L 135.360938 55.331875 
Q 135.360938 53.331875 133.360938 53.331875 
L 65.945312 53.331875 
Q 63.945312 53.331875 63.945312 55.331875 
L 63.945312 113.044375 
Q 63.945312 115.044375 65.945312 115.044375 
z
" style="fill: #ffffff; opacity: 0.8; stroke: #cccccc; stroke-linejoin: miter"/>
    </g>
    <g id="line2d_29">
     <path d="M 67.945312 61.430313 
L 77.945312 61.430313 
L 87.945312 61.430313 
" style="fill: none; stroke: #1f77b4; stroke-width: 1.5; stroke-linecap: square"/>
    </g>
    <g id="text_7">
     <!-- L Side -->
     <g transform="translate(95.945312 64.930313)scale(0.1 -0.1)">
      <defs>
       <path id="DejaVuSans-4c" d="M 628 4666 
L 1259 4666 
L 1259 531 
L 3531 531 
L 3531 0 
L 628 0 
L 628 4666 
z
" transform="scale(0.015625)"/>
       <path id="DejaVuSans-53" d="M 3425 4513 
L 3425 3897 
Q 3066 4069 2747 4153 
Q 2428 4238 2131 4238 
Q 1616 4238 1336 4038 
Q 1056 3838 1056 3469 
Q 1056 3159 1242 3001 
Q 1428 2844 1947 2747 
L 2328 2669 
Q 3034 2534 3370 2195 
Q 3706 1856 3706 1288 
Q 3706 609 3251 259 
Q 2797 -91 1919 -91 
Q 1588 -91 1214 -16 
Q 841 59 441 206 
L 441 856 
Q 825 641 1194 531 
Q 1563 422 1919 422 
Q 2459 422 2753 634 
Q 3047 847 3047 1241 
Q 3047 1584 2836 1778 
Q 2625 1972 2144 2069 
L 1759 2144 
Q 1053 2284 737 2584 
Q 422 2884 422 3419 
Q 422 4038 858 4394 
Q 1294 4750 2059 4750 
Q 2388 4750 2728 4690 
Q 3069 4631 3425 4513 
z
" transform="scale(0.015625)"/>
       <path id="DejaVuSans-69" d="M 603 3500 
L 1178 3500 
L 1178 0 
L 603 0 
L 603 3500 
z
M 603 4863 
L 1178 4863 
L 1178 4134 
L 603 4134 
L 603 4863 
z
" transform="scale(0.015625)"/>
       <path id="DejaVuSans-64" d="M 2906 2969 
L 2906 4863 
L 3481 4863 
L 3481 0 
L 2906 0 
L 2906 525 
Q 2725 213 2448 61 
Q 2172 -91 1784 -91 
Q 1150 -91 751 415 
Q 353 922 353 1747 
Q 353 2572 751 3078 
Q 1150 3584 1784 3584 
Q 2172 3584 2448 3432 
Q 2725 3281 2906 2969 
z
M 947 1747 
Q 947 1113 1208 752 
Q 1469 391 1925 391 
Q 2381 391 2643 752 
Q 2906 1113 2906 1747 
Q 2906 2381 2643 2742 
Q 2381 3103 1925 3103 
Q 1469 3103 1208 2742 
Q 947 2381 947 1747 
z
" transform="scale(0.015625)"/>
      </defs>
      <use xlink:href="#DejaVuSans-4c"/>
      <use xlink:href="#DejaVuSans-20" x="55.712891"/>
      <use xlink:href="#DejaVuSans-53" x="87.5"/>
      <use xlink:href="#DejaVuSans-69" x="150.976562"/>
      <use xlink:href="#DejaVuSans-64" x="178.759766"/>
      <use xlink:href="#DejaVuSans-65" x="242.236328"/>
     </g>
    </g>
    <g id="line2d_30">
     <path d="M 67.945312 76.108438 
L 77.945312 76.108438 
L 87.945312 76.108438 
" style="fill: none; stroke: #ff7f0e; stroke-width: 1.5; stroke-linecap: square"/>
    </g>
    <g id="text_8">
     <!-- L Front -->
     <g transform="translate(95.945312 79.608438)scale(0.1 -0.1)">
      <defs>
       <path id="DejaVuSans-46" d="M 628 4666 
L 3309 4666 
L 3309 4134 
L 1259 4134 
L 1259 2759 
L 3109 2759 
L 3109 2228 
L 1259 2228 
L 1259 0 
L 628 0 
L 628 4666 
z
" transform="scale(0.015625)"/>
       <path id="DejaVuSans-6e" d="M 3513 2113 
L 3513 0 
L 2938 0 
L 2938 2094 
Q 2938 2591 2744 2837 
Q 2550 3084 2163 3084 
Q 1697 3084 1428 2787 
Q 1159 2491 1159 1978 
L 1159 0 
L 581 0 
L 581 3500 
L 1159 3500 
L 1159 2956 
Q 1366 3272 1645 3428 
Q 1925 3584 2291 3584 
Q 2894 3584 3203 3211 
Q 3513 2838 3513 2113 
z
" transform="scale(0.015625)"/>
      </defs>
      <use xlink:href="#DejaVuSans-4c"/>
      <use xlink:href="#DejaVuSans-20" x="55.712891"/>
      <use xlink:href="#DejaVuSans-46" x="87.5"/>
      <use xlink:href="#DejaVuSans-72" x="137.769531"/>
      <use xlink:href="#DejaVuSans-6f" x="176.632812"/>
      <use xlink:href="#DejaVuSans-6e" x="237.814453"/>
      <use xlink:href="#DejaVuSans-74" x="301.193359"/>
     </g>
    </g>
    <g id="line2d_31">
     <path d="M 67.945312 90.786563 
L 77.945312 90.786563 
L 87.945312 90.786563 
" style="fill: none; stroke: #2ca02c; stroke-width: 1.5; stroke-linecap: square"/>
    </g>
    <g id="text_9">
     <!-- R Front -->
     <g transform="translate(95.945312 94.286563)scale(0.1 -0.1)">
      <use xlink:href="#DejaVuSans-52"/>
      <use xlink:href="#DejaVuSans-20" x="69.482422"/>
      <use xlink:href="#DejaVuSans-46" x="101.269531"/>
      <use xlink:href="#DejaVuSans-72" x="151.539062"/>
      <use xlink:href="#DejaVuSans-6f" x="190.402344"/>
      <use xlink:href="#DejaVuSans-6e" x="251.583984"/>
      <use xlink:href="#DejaVuSans-74" x="314.962891"/>
     </g>
    </g>
    <g id="line2d_32">
     <path d="M 67.945312 105.464688 
L 77.945312 105.464688 
L 87.945312 105.464688 
" style="fill: none; stroke: #d62728; stroke-width: 1.5; stroke-linecap: square"/>
    </g>
    <g id="text_10">
     <!-- R Side -->
     <g transform="translate(95.945312 108.964688)scale(0.1 -0.1)">
      <use xlink:href="#DejaVuSans-52"/>
      <use xlink:href="#DejaVuSans-20" x="69.482422"/>
      <use xlink:href="#DejaVuSans-53" x="101.269531"/>
      <use xlink:href="#DejaVuSans-69" x="164.746094"/>
      <use xlink:href="#DejaVuSans-64" x="192.529297"/>
      <use xlink:href="#DejaVuSans-65" x="256.005859"/>
     </g>
    </g>
   </g>
  </g>
  <g id="axes_2">
   <g id="patch_8">
    <path d="M 58.945313 318.121875 
L 450 318.121875 
L 450 197.935938 
L 58.945313 197.935938 
z
" style="fill: #ffffff"/>
   </g>
   <g id="matplotlib.axis_3">
    <g id="xtick_9">
     <g id="line2d_33">
      <path d="M 76.720526 318.121875 
L 76.720526 197.935938 
" clip-path="url(#pc123d72d8c)" style="fill: none; stroke: #b0b0b0; stroke-width: 0.8; stroke-linecap: square"/>
     </g>
     <g id="line2d_34">
      <g>
       <use xlink:href="#m89be2c7aa5" x="76.720526" y="318.121875" style="stroke: #000000; stroke-width: 0.8"/>
      </g>
     </g>
     <g id="text_11">
      <!-- 0 -->
      <g transform="translate(73.539276 332.720312)scale(0.1 -0.1)">
       <use xlink:href="#DejaVuSans-30"/>
      </g>
     </g>
    </g>
    <g id="xtick_10">
     <g id="line2d_35">
      <path d="M 126.096117 318.121875 
L 126.096117 197.935938 
" clip-path="url(#pc123d72d8c)" style="fill: none; stroke: #b0b0b0; stroke-width: 0.8; stroke-linecap: square"/>
     </g>
     <g id="line2d_36">
      <g>
       <use xlink:href="#m89be2c7aa5" x="126.096117" y="318.121875" style="stroke: #000000; stroke-width: 0.8"/>
      </g>
     </g>
     <g id="text_12">
      <!-- 50 -->
      <g transform="translate(119.733617 332.720312)scale(0.1 -0.1)">
       <defs>
        <path id="DejaVuSans-35" d="M 691 4666 
L 3169 4666 
L 3169 4134 
L 1269 4134 
L 1269 2991 
Q 1406 3038 1543 3061 
Q 1681 3084 1819 3084 
Q 2600 3084 3056 2656 
Q 3513 2228 3513 1497 
Q 3513 744 3044 326 
Q 2575 -91 1722 -91 
Q 1428 -91 1123 -41 
Q 819 9 494 109 
L 494 744 
Q 775 591 1075 516 
Q 1375 441 1709 441 
Q 2250 441 2565 725 
Q 2881 1009 2881 1497 
Q 2881 1984 2565 2268 
Q 2250 2553 1709 2553 
Q 1456 2553 1204 2497 
Q 953 2441 691 2322 
L 691 4666 
z
" transform="scale(0.015625)"/>
       </defs>
       <use xlink:href="#DejaVuSans-35"/>
       <use xlink:href="#DejaVuSans-30" x="63.623047"/>
      </g>
     </g>
    </g>
    <g id="xtick_11">
     <g id="line2d_37">
      <path d="M 175.471709 318.121875 
L 175.471709 197.935938 
" clip-path="url(#pc123d72d8c)" style="fill: none; stroke: #b0b0b0; stroke-width: 0.8; stroke-linecap: square"/>
     </g>
     <g id="line2d_38">
      <g>
       <use xlink:href="#m89be2c7aa5" x="175.471709" y="318.121875" style="stroke: #000000; stroke-width: 0.8"/>
      </g>
     </g>
     <g id="text_13">
      <!-- 100 -->
      <g transform="translate(165.927959 332.720312)scale(0.1 -0.1)">
       <use xlink:href="#DejaVuSans-31"/>
       <use xlink:href="#DejaVuSans-30" x="63.623047"/>
       <use xlink:href="#DejaVuSans-30" x="127.246094"/>
      </g>
     </g>
    </g>
    <g id="xtick_12">
     <g id="line2d_39">
      <path d="M 224.847301 318.121875 
L 224.847301 197.935938 
" clip-path="url(#pc123d72d8c)" style="fill: none; stroke: #b0b0b0; stroke-width: 0.8; stroke-linecap: square"/>
     </g>
     <g id="line2d_40">
      <g>
       <use xlink:href="#m89be2c7aa5" x="224.847301" y="318.121875" style="stroke: #000000; stroke-width: 0.8"/>
      </g>
     </g>
     <g id="text_14">
      <!-- 150 -->
      <g transform="translate(215.303551 332.720312)scale(0.1 -0.1)">
       <use xlink:href="#DejaVuSans-31"/>
       <use xlink:href="#DejaVuSans-35" x="63.623047"/>
       <use xlink:href="#DejaVuSans-30" x="127.246094"/>
      </g>
     </g>
    </g>
    <g id="xtick_13">
     <g id="line2d_41">
      <path d="M 274.222893 318.121875 
L 274.222893 197.935938 
" clip-path="url(#pc123d72d8c)" style="fill: none; stroke: #b0b0b0; stroke-width: 0.8; stroke-linecap: square"/>
     </g>
     <g id="line2d_42">
      <g>
       <use xlink:href="#m89be2c7aa5" x="274.222893" y="318.121875" style="stroke: #000000; stroke-width: 0.8"/>
      </g>
     </g>
     <g id="text_15">
      <!-- 200 -->
      <g transform="translate(264.679143 332.720312)scale(0.1 -0.1)">
       <use xlink:href="#DejaVuSans-32"/>
       <use xlink:href="#DejaVuSans-30" x="63.623047"/>
       <use xlink:href="#DejaVuSans-30" x="127.246094"/>
      </g>
     </g>
    </g>
    <g id="xtick_14">
     <g id="line2d_43">
      <path d="M 323.598485 318.121875 
L 323.598485 197.935938 
" clip-path="url(#pc123d72d8c)" style="fill: none; stroke: #b0b0b0; stroke-width: 0.8; stroke-linecap: square"/>
     </g>
     <g id="line2d_44">
      <g>
       <use xlink:href="#m89be2c7aa5" x="323.598485" y="318.121875" style="stroke: #000000; stroke-width: 0.8"/>
      </g>
     </g>
     <g id="text_16">
      <!-- 250 -->
      <g transform="translate(314.054735 332.720312)scale(0.1 -0.1)">
       <use xlink:href="#DejaVuSans-32"/>
       <use xlink:href="#DejaVuSans-35" x="63.623047"/>
       <use xlink:href="#DejaVuSans-30" x="127.246094"/>
      </g>
     </g>
    </g>
    <g id="xtick_15">
     <g id="line2d_45">
      <path d="M 372.974077 318.121875 
L 372.974077 197.935938 
" clip-path="url(#pc123d72d8c)" style="fill: none; stroke: #b0b0b0; stroke-width: 0.8; stroke-linecap: square"/>
     </g>
     <g id="line2d_46">
      <g>
       <use xlink:href="#m89be2c7aa5" x="372.974077" y="318.121875" style="stroke: #000000; stroke-width: 0.8"/>
      </g>
     </g>
     <g id="text_17">
      <!-- 300 -->
      <g transform="translate(363.430327 332.720312)scale(0.1 -0.1)">
       <use xlink:href="#DejaVuSans-33"/>
       <use xlink:href="#DejaVuSans-30" x="63.623047"/>
       <use xlink:href="#DejaVuSans-30" x="127.246094"/>
      </g>
     </g>
    </g>
    <g id="xtick_16">
     <g id="line2d_47">
      <path d="M 422.349669 318.121875 
L 422.349669 197.935938 
" clip-path="url(#pc123d72d8c)" style="fill: none; stroke: #b0b0b0; stroke-width: 0.8; stroke-linecap: square"/>
     </g>
     <g id="line2d_48">
      <g>
       <use xlink:href="#m89be2c7aa5" x="422.349669" y="318.121875" style="stroke: #000000; stroke-width: 0.8"/>
      </g>
     </g>
     <g id="text_18">
      <!-- 350 -->
      <g transform="translate(412.805919 332.720312)scale(0.1 -0.1)">
       <use xlink:href="#DejaVuSans-33"/>
       <use xlink:href="#DejaVuSans-35" x="63.623047"/>
       <use xlink:href="#DejaVuSans-30" x="127.246094"/>
      </g>
     </g>
    </g>
   </g>
   <g id="matplotlib.axis_4">
    <g id="ytick_5">
     <g id="line2d_49">
      <path d="M 58.945313 307.85768 
L 450 307.85768 
" clip-path="url(#pc123d72d8c)" style="fill: none; stroke: #b0b0b0; stroke-width: 0.8; stroke-linecap: square"/>
     </g>
     <g id="line2d_50">
      <g>
       <use xlink:href="#m38b2284320" x="58.945313" y="307.85768" style="stroke: #000000; stroke-width: 0.8"/>
      </g>
     </g>
     <g id="text_19">
      <!-- 100 -->
      <g transform="translate(24.478125 311.656899)scale(0.1 -0.1)">
       <defs>
        <path id="DejaVuSans-2212" d="M 678 2272 
L 4684 2272 
L 4684 1741 
L 678 1741 
L 678 2272 
z
" transform="scale(0.015625)"/>
       </defs>
       <use xlink:href="#DejaVuSans-2212"/>
       <use xlink:href="#DejaVuSans-31" x="83.789062"/>
       <use xlink:href="#DejaVuSans-30" x="147.412109"/>
       <use xlink:href="#DejaVuSans-30" x="211.035156"/>
      </g>
     </g>
    </g>
    <g id="ytick_6">
     <g id="line2d_51">
      <path d="M 58.945313 287.42705 
L 450 287.42705 
" clip-path="url(#pc123d72d8c)" style="fill: none; stroke: #b0b0b0; stroke-width: 0.8; stroke-linecap: square"/>
     </g>
     <g id="line2d_52">
      <g>
       <use xlink:href="#m38b2284320" x="58.945313" y="287.42705" style="stroke: #000000; stroke-width: 0.8"/>
      </g>
     </g>
     <g id="text_20">
      <!-- 80 -->
      <g transform="translate(30.840625 291.226269)scale(0.1 -0.1)">
       <defs>
        <path id="DejaVuSans-38" d="M 2034 2216 
Q 1584 2216 1326 1975 
Q 1069 1734 1069 1313 
Q 1069 891 1326 650 
Q 1584 409 2034 409 
Q 2484 409 2743 651 
Q 3003 894 3003 1313 
Q 3003 1734 2745 1975 
Q 2488 2216 2034 2216 
z
M 1403 2484 
Q 997 2584 770 2862 
Q 544 3141 544 3541 
Q 544 4100 942 4425 
Q 1341 4750 2034 4750 
Q 2731 4750 3128 4425 
Q 3525 4100 3525 3541 
Q 3525 3141 3298 2862 
Q 3072 2584 2669 2484 
Q 3125 2378 3379 2068 
Q 3634 1759 3634 1313 
Q 3634 634 3220 271 
Q 2806 -91 2034 -91 
Q 1263 -91 848 271 
Q 434 634 434 1313 
Q 434 1759 690 2068 
Q 947 2378 1403 2484 
z
M 1172 3481 
Q 1172 3119 1398 2916 
Q 1625 2713 2034 2713 
Q 2441 2713 2670 2916 
Q 2900 3119 2900 3481 
Q 2900 3844 2670 4047 
Q 2441 4250 2034 4250 
Q 1625 4250 1398 4047 
Q 1172 3844 1172 3481 
z
" transform="scale(0.015625)"/>
       </defs>
       <use xlink:href="#DejaVuSans-2212"/>
       <use xlink:href="#DejaVuSans-38" x="83.789062"/>
       <use xlink:href="#DejaVuSans-30" x="147.412109"/>
      </g>
     </g>
    </g>
    <g id="ytick_7">
     <g id="line2d_53">
      <path d="M 58.945313 266.99642 
L 450 266.99642 
" clip-path="url(#pc123d72d8c)" style="fill: none; stroke: #b0b0b0; stroke-width: 0.8; stroke-linecap: square"/>
     </g>
     <g id="line2d_54">
      <g>
       <use xlink:href="#m38b2284320" x="58.945313" y="266.99642" style="stroke: #000000; stroke-width: 0.8"/>
      </g>
     </g>
     <g id="text_21">
      <!-- 60 -->
      <g transform="translate(30.840625 270.795639)scale(0.1 -0.1)">
       <defs>
        <path id="DejaVuSans-36" d="M 2113 2584 
Q 1688 2584 1439 2293 
Q 1191 2003 1191 1497 
Q 1191 994 1439 701 
Q 1688 409 2113 409 
Q 2538 409 2786 701 
Q 3034 994 3034 1497 
Q 3034 2003 2786 2293 
Q 2538 2584 2113 2584 
z
M 3366 4563 
L 3366 3988 
Q 3128 4100 2886 4159 
Q 2644 4219 2406 4219 
Q 1781 4219 1451 3797 
Q 1122 3375 1075 2522 
Q 1259 2794 1537 2939 
Q 1816 3084 2150 3084 
Q 2853 3084 3261 2657 
Q 3669 2231 3669 1497 
Q 3669 778 3244 343 
Q 2819 -91 2113 -91 
Q 1303 -91 875 529 
Q 447 1150 447 2328 
Q 447 3434 972 4092 
Q 1497 4750 2381 4750 
Q 2619 4750 2861 4703 
Q 3103 4656 3366 4563 
z
" transform="scale(0.015625)"/>
       </defs>
       <use xlink:href="#DejaVuSans-2212"/>
       <use xlink:href="#DejaVuSans-36" x="83.789062"/>
       <use xlink:href="#DejaVuSans-30" x="147.412109"/>
      </g>
     </g>
    </g>
    <g id="ytick_8">
     <g id="line2d_55">
      <path d="M 58.945313 246.565791 
L 450 246.565791 
" clip-path="url(#pc123d72d8c)" style="fill: none; stroke: #b0b0b0; stroke-width: 0.8; stroke-linecap: square"/>
     </g>
     <g id="line2d_56">
      <g>
       <use xlink:href="#m38b2284320" x="58.945313" y="246.565791" style="stroke: #000000; stroke-width: 0.8"/>
      </g>
     </g>
     <g id="text_22">
      <!-- 40 -->
      <g transform="translate(30.840625 250.365009)scale(0.1 -0.1)">
       <defs>
        <path id="DejaVuSans-34" d="M 2419 4116 
L 825 1625 
L 2419 1625 
L 2419 4116 
z
M 2253 4666 
L 3047 4666 
L 3047 1625 
L 3713 1625 
L 3713 1100 
L 3047 1100 
L 3047 0 
L 2419 0 
L 2419 1100 
L 313 1100 
L 313 1709 
L 2253 4666 
z
" transform="scale(0.015625)"/>
       </defs>
       <use xlink:href="#DejaVuSans-2212"/>
       <use xlink:href="#DejaVuSans-34" x="83.789062"/>
       <use xlink:href="#DejaVuSans-30" x="147.412109"/>
      </g>
     </g>
    </g>
    <g id="ytick_9">
     <g id="line2d_57">
      <path d="M 58.945313 226.135161 
L 450 226.135161 
" clip-path="url(#pc123d72d8c)" style="fill: none; stroke: #b0b0b0; stroke-width: 0.8; stroke-linecap: square"/>
     </g>
     <g id="line2d_58">
      <g>
       <use xlink:href="#m38b2284320" x="58.945313" y="226.135161" style="stroke: #000000; stroke-width: 0.8"/>
      </g>
     </g>
     <g id="text_23">
      <!-- 20 -->
      <g transform="translate(30.840625 229.93438)scale(0.1 -0.1)">
       <use xlink:href="#DejaVuSans-2212"/>
       <use xlink:href="#DejaVuSans-32" x="83.789062"/>
       <use xlink:href="#DejaVuSans-30" x="147.412109"/>
      </g>
     </g>
    </g>
    <g id="ytick_10">
     <g id="line2d_59">
      <path d="M 58.945313 205.704531 
L 450 205.704531 
" clip-path="url(#pc123d72d8c)" style="fill: none; stroke: #b0b0b0; stroke-width: 0.8; stroke-linecap: square"/>
     </g>
     <g id="line2d_60">
      <g>
       <use xlink:href="#m38b2284320" x="58.945313" y="205.704531" style="stroke: #000000; stroke-width: 0.8"/>
      </g>
     </g>
     <g id="text_24">
      <!-- 0 -->
      <g transform="translate(45.582813 209.50375)scale(0.1 -0.1)">
       <use xlink:href="#DejaVuSans-30"/>
      </g>
     </g>
    </g>
    <g id="text_25">
     <!-- wall distance [mm] -->
     <g transform="translate(18.398438 305.967188)rotate(-90)scale(0.1 -0.1)">
      <defs>
       <path id="DejaVuSans-73" d="M 2834 3397 
L 2834 2853 
Q 2591 2978 2328 3040 
Q 2066 3103 1784 3103 
Q 1356 3103 1142 2972 
Q 928 2841 928 2578 
Q 928 2378 1081 2264 
Q 1234 2150 1697 2047 
L 1894 2003 
Q 2506 1872 2764 1633 
Q 3022 1394 3022 966 
Q 3022 478 2636 193 
Q 2250 -91 1575 -91 
Q 1294 -91 989 -36 
Q 684 19 347 128 
L 347 722 
Q 666 556 975 473 
Q 1284 391 1588 391 
Q 1994 391 2212 530 
Q 2431 669 2431 922 
Q 2431 1156 2273 1281 
Q 2116 1406 1581 1522 
L 1381 1569 
Q 847 1681 609 1914 
Q 372 2147 372 2553 
Q 372 3047 722 3315 
Q 1072 3584 1716 3584 
Q 2034 3584 2315 3537 
Q 2597 3491 2834 3397 
z
" transform="scale(0.015625)"/>
       <path id="DejaVuSans-5b" d="M 550 4863 
L 1875 4863 
L 1875 4416 
L 1125 4416 
L 1125 -397 
L 1875 -397 
L 1875 -844 
L 550 -844 
L 550 4863 
z
" transform="scale(0.015625)"/>
       <path id="DejaVuSans-6d" d="M 3328 2828 
Q 3544 3216 3844 3400 
Q 4144 3584 4550 3584 
Q 5097 3584 5394 3201 
Q 5691 2819 5691 2113 
L 5691 0 
L 5113 0 
L 5113 2094 
Q 5113 2597 4934 2840 
Q 4756 3084 4391 3084 
Q 3944 3084 3684 2787 
Q 3425 2491 3425 1978 
L 3425 0 
L 2847 0 
L 2847 2094 
Q 2847 2600 2669 2842 
Q 2491 3084 2119 3084 
Q 1678 3084 1418 2786 
Q 1159 2488 1159 1978 
L 1159 0 
L 581 0 
L 581 3500 
L 1159 3500 
L 1159 2956 
Q 1356 3278 1631 3431 
Q 1906 3584 2284 3584 
Q 2666 3584 2933 3390 
Q 3200 3197 3328 2828 
z
" transform="scale(0.015625)"/>
       <path id="DejaVuSans-5d" d="M 1947 4863 
L 1947 -844 
L 622 -844 
L 622 -397 
L 1369 -397 
L 1369 4416 
L 622 4416 
L 622 4863 
L 1947 4863 
z
" transform="scale(0.015625)"/>
      </defs>
      <use xlink:href="#DejaVuSans-77"/>
      <use xlink:href="#DejaVuSans-61" x="81.787109"/>
      <use xlink:href="#DejaVuSans-6c" x="143.066406"/>
      <use xlink:href="#DejaVuSans-6c" x="170.849609"/>
      <use xlink:href="#DejaVuSans-20" x="198.632812"/>
      <use xlink:href="#DejaVuSans-64" x="230.419922"/>
      <use xlink:href="#DejaVuSans-69" x="293.896484"/>
      <use xlink:href="#DejaVuSans-73" x="321.679688"/>
      <use xlink:href="#DejaVuSans-74" x="373.779297"/>
      <use xlink:href="#DejaVuSans-61" x="412.988281"/>
      <use xlink:href="#DejaVuSans-6e" x="474.267578"/>
      <use xlink:href="#DejaVuSans-63" x="537.646484"/>
      <use xlink:href="#DejaVuSans-65" x="592.626953"/>
      <use xlink:href="#DejaVuSans-20" x="654.150391"/>
      <use xlink:href="#DejaVuSans-5b" x="685.9375"/>
      <use xlink:href="#DejaVuSans-6d" x="724.951172"/>
      <use xlink:href="#DejaVuSans-6d" x="822.363281"/>
      <use xlink:href="#DejaVuSans-5d" x="919.775391"/>
     </g>
    </g>
   </g>
   <g id="line2d_61">
    <path d="M 76.720526 203.670662 
L 76.720842 203.636951 
L 76.721592 204.053736 
L 76.74075 203.619585 
L 76.828954 203.670662 
L 77.036529 203.636951 
L 77.201148 204.106856 
L 77.26662 203.931153 
L 77.414746 204.178363 
L 77.58766 203.688028 
L 78.272894 203.773837 
L 78.563223 203.931153 
L 78.721225 204.03637 
L 78.888114 203.948519 
L 79.247568 204.106856 
L 79.441121 203.965885 
L 79.854888 204.195729 
L 82.76311 204.911823 
L 83.406968 205.217056 
L 85.173627 205.025417 
L 85.553819 204.987416 
L 85.942899 205.06352 
L 86.339878 204.874128 
L 90.308688 204.836638 
L 90.792569 204.705984 
L 91.770206 204.780454 
L 92.787343 204.613536 
L 93.300849 204.76176 
L 94.347612 204.285624 
L 94.880868 204.412294 
L 95.414125 204.321378 
L 97.053394 204.521598 
L 98.732164 204.412294 
L 99.295046 205.159238 
L 99.867803 204.14261 
L 101.595949 203.983251 
L 102.178581 203.913787 
L 102.761213 203.688028 
L 103.343845 203.843301 
L 103.936352 203.688028 
L 104.528859 203.843301 
L 106.889012 203.653296 
L 108.666533 203.636951 
L 109.259041 203.517432 
L 111.036562 203.636951 
L 111.629069 203.500066 
L 114.591605 203.416301 
L 115.184112 203.670662 
L 115.776619 203.757492 
L 116.369126 203.653296 
L 116.961633 203.948519 
L 117.55414 203.432645 
L 119.924168 203.398935 
L 124.071718 203.670662 
L 124.664225 203.913787 
L 125.256732 203.72276 
L 125.849239 203.878033 
L 126.441747 203.791203 
L 127.626761 203.948519 
L 129.996789 203.983251 
L 130.589296 204.106856 
L 131.181803 204.449069 
L 132.366818 204.393906 
L 132.959325 204.76176 
L 133.551832 204.321378 
L 134.144339 204.214117 
L 135.92186 204.539985 
L 136.514367 204.799148 
L 137.699382 205.140033 
L 140.06941 206.793484 
L 141.254424 208.240994 
L 143.031945 211.689684 
L 143.624453 213.050364 
L 144.21696 214.765516 
L 145.401974 219.79145 
L 146.586988 227.493798 
L 147.179495 232.376718 
L 147.772002 240.22208 
L 148.364509 254.697181 
L 148.957016 291.247578 
L 220.008493 291.247578 
L 220.601 252.429381 
L 221.193507 240.773707 
L 221.786014 237.494591 
L 223.563536 225.828702 
L 225.341057 218.157 
L 225.933564 216.144583 
L 227.711085 211.626349 
L 228.303593 210.31266 
L 230.081114 207.532051 
L 231.266128 206.19834 
L 232.451142 205.39184 
L 234.228664 204.911823 
L 234.821171 205.12093 
L 235.413678 204.466435 
L 236.006185 204.24987 
L 236.598692 204.339765 
L 237.783706 204.268258 
L 238.376213 204.412294 
L 238.96872 204.339765 
L 239.561228 204.466435 
L 240.153735 204.358153 
L 240.746242 204.449069 
L 241.338749 204.339765 
L 242.523763 204.339765 
L 243.11627 204.724576 
L 243.708777 204.911823 
L 244.301284 204.817842 
L 244.893791 204.855332 
L 245.486299 205.529441 
L 246.078806 204.521598 
L 250.818862 204.595148 
L 252.003877 204.558373 
L 253.188891 204.911823 
L 254.966412 204.855332 
L 255.558919 205.12093 
L 256.151426 204.521598 
L 259.706469 204.521598 
L 262.076497 204.521598 
L 262.669004 204.799148 
L 263.261512 205.49001 
L 263.854019 204.874128 
L 264.446526 204.855332 
L 265.039033 204.57676 
L 266.816554 204.358153 
L 267.409061 204.484823 
L 268.001568 204.466435 
L 268.594076 204.285624 
L 269.77909 204.393906 
L 270.371597 204.466435 
L 270.964104 204.393906 
L 271.556611 204.855332 
L 273.334132 204.799148 
L 273.926639 205.411454 
L 274.519147 204.358153 
L 279.259203 204.484823 
L 280.444218 204.817842 
L 281.036725 204.968518 
L 281.629232 204.855332 
L 282.814246 205.006417 
L 283.406753 204.521598 
L 283.99926 204.613536 
L 285.776781 204.521598 
L 286.369289 204.631923 
L 288.14681 204.687392 
L 288.739317 205.140033 
L 289.331824 205.294488 
L 289.924331 205.140033 
L 290.516838 205.648592 
L 291.109345 205.06352 
L 291.701853 204.743168 
L 295.849402 204.705984 
L 296.441909 204.836638 
L 297.626924 205.294488 
L 298.219431 205.044418 
L 298.811938 205.082623 
L 299.996952 204.521598 
L 300.589459 204.631923 
L 301.774473 204.558373 
L 304.144502 204.521598 
L 304.737009 205.006417 
L 305.329516 205.12093 
L 305.922023 205.082623 
L 306.51453 205.275079 
L 307.699544 204.558373 
L 308.884558 204.650311 
L 311.254587 204.930721 
L 313.624615 206.365666 
L 315.994644 207.486082 
L 317.179658 208.862085 
L 318.957179 212.269914 
L 320.142193 216.880086 
L 321.327208 221.946882 
L 322.512222 229.404062 
L 323.104729 232.080474 
L 323.697236 239.946267 
L 324.289743 250.498687 
L 324.88225 291.247578 
L 384.13296 291.247578 
L 384.725468 267.62977 
L 385.910482 254.697181 
L 386.502989 253.144453 
L 387.095496 291.247578 
L 390.058031 291.247578 
L 390.650539 235.053131 
L 391.243046 233.479972 
L 392.42806 229.649229 
L 393.020567 228.934157 
L 393.613074 240.497894 
L 394.205581 240.22208 
L 394.798088 235.431097 
L 395.390595 233.479972 
L 395.983103 231.927244 
L 396.57561 221.272671 
L 397.168117 219.914034 
L 398.945638 217.0231 
L 399.538145 221.742576 
L 400.723159 219.393053 
L 401.908174 218.412383 
L 402.500681 213.190314 
L 403.093188 212.876704 
L 403.685695 212.738797 
L 404.870709 212.876704 
L 405.463216 218.095708 
L 406.64823 219.975326 
L 407.240737 221.272671 
L 407.833245 224.184036 
L 408.425752 217.850541 
L 409.018259 219.61779 
L 410.697029 227.289492 
L 411.289536 291.247578 
L 413.462062 291.247578 
L 413.955818 248.302394 
L 414.548325 254.697181 
L 415.042081 267.62977 
L 415.535837 267.62977 
L 416.029593 282.104871 
L 416.6221 291.247578 
L 418.597124 291.247578 
L 418.992128 259.641394 
L 419.485884 255.545052 
L 419.97964 254.697181 
L 420.374645 255.545052 
L 420.868401 251.111606 
L 421.263406 291.247578 
L 422.942176 291.247578 
L 423.33718 245.983518 
L 423.732185 239.946267 
L 424.12719 238.91452 
L 424.423443 239.680668 
L 424.818448 239.680668 
L 425.114702 291.247578 
L 426.398467 291.247578 
L 426.694721 235.053131 
L 426.990974 233.817078 
L 427.287228 233.817078 
L 427.583481 232.080474 
L 427.879735 234.869255 
L 428.077237 291.247578 
L 429.064749 291.247578 
L 429.262251 236.840811 
L 429.459754 232.683178 
L 429.657256 232.376718 
L 429.854759 229.649229 
L 430.052261 233.990738 
L 430.151012 291.247578 
L 430.743519 291.247578 
L 431.039773 231.079373 
L 431.138524 230.813775 
L 431.237275 227.922841 
L 431.336026 232.836408 
L 431.533529 291.247578 
L 431.731031 291.247578 
L 431.928533 227.289492 
L 432.027285 231.641216 
L 432.027285 291.247578 
L 432.126036 228.024994 
L 432.224787 228.249731 
L 432.224787 221.946882 
L 432.224787 291.247578 
L 432.224787 225.828702 
" clip-path="url(#pc123d72d8c)" style="fill: none; stroke: #1f77b4; stroke-width: 1.5; stroke-linecap: square"/>
   </g>
   <g id="line2d_62">
    <path d="M 76.720526 312.148112 
L 358.062648 312.148112 
L 358.655155 278.314989 
L 359.247662 281.777981 
L 359.840169 274.78049 
L 360.432676 275.577285 
L 361.025183 275.577285 
L 361.617691 312.148112 
L 364.580226 312.148112 
L 365.172733 264.176994 
L 365.76524 263.502783 
L 366.357747 265.647999 
L 366.950254 261.377997 
L 367.542762 261.102184 
L 368.135269 312.148112 
L 370.505297 312.148112 
L 371.097804 269.182498 
L 371.690311 256.321416 
L 372.282818 256.903689 
L 372.875326 256.127325 
L 373.467833 256.903689 
L 374.06034 254.370291 
L 374.652847 312.148112 
L 377.022875 312.148112 
L 377.615382 258.38491 
L 378.207889 251.162682 
L 378.800397 250.049213 
L 380.577918 249.814261 
L 381.170425 312.148112 
L 383.540453 312.148112 
L 384.13296 249.936845 
L 384.725468 246.616867 
L 385.317975 246.432992 
L 385.910482 245.401245 
L 386.502989 245.064139 
L 387.095496 260.82637 
L 387.688003 297.642365 
L 388.28051 290.910472 
L 388.873017 276.435371 
L 389.465524 273.3197 
L 390.058031 274.024557 
L 390.650539 245.145862 
L 391.243046 242.16299 
L 391.835553 241.774808 
L 392.42806 241.580717 
L 393.020567 240.681769 
L 393.613074 255.94345 
L 394.205581 260.305389 
L 394.798088 258.609647 
L 395.983103 256.903689 
L 396.57561 240.22208 
L 397.168117 238.240309 
L 397.760624 237.760189 
L 398.353131 237.709113 
L 398.945638 236.994041 
L 399.538145 249.701892 
L 400.130652 250.049213 
L 400.723159 249.936845 
L 401.315666 248.802945 
L 401.908174 248.169595 
L 402.500681 236.217677 
L 403.093188 234.501504 
L 403.685695 234.041815 
L 404.278202 234.041815 
L 404.870709 234.256336 
L 405.463216 243.756579 
L 406.055723 243.971101 
L 406.64823 243.031292 
L 407.240737 242.694186 
L 407.833245 241.8361 
L 408.425752 232.703608 
L 409.018259 231.45734 
L 409.512015 230.997651 
L 410.104522 230.670761 
L 410.697029 230.006765 
L 411.289536 238.240309 
L 411.783292 237.995142 
L 412.375799 237.525237 
L 412.869555 236.861242 
L 413.462062 236.34026 
L 413.955818 228.372315 
L 414.548325 228.300808 
L 415.535837 227.565305 
L 416.029593 227.289492 
L 416.6221 233.449326 
L 418.597124 231.508417 
L 418.992128 224.899108 
L 419.485884 225.420089 
L 419.97964 224.65394 
L 420.868401 223.938868 
L 421.263406 228.464253 
L 422.942176 227.023893 
L 423.33718 221.517839 
L 423.732185 221.977528 
L 424.12719 221.303317 
L 424.818448 220.75169 
L 425.114702 224.745878 
L 425.509706 223.857146 
L 426.398467 222.764107 
L 426.694721 218.351091 
L 426.990974 218.749488 
L 427.879735 217.564512 
L 428.077237 220.27157 
L 428.867247 219.086594 
L 429.064749 218.677981 
L 429.262251 215.306927 
L 429.459754 215.340638 
L 430.052261 214.142381 
L 430.151012 216.287597 
L 430.644768 215.238485 
L 430.743519 214.764494 
L 430.941022 212.211687 
L 431.039773 212.299538 
L 431.336026 211.491507 
L 431.434777 213.037084 
L 431.731031 212.044156 
L 431.829782 210.200291 
L 431.928533 210.274863 
L 432.027285 210.045019 
L 432.027285 210.82649 
L 432.126036 208.933592 
L 432.126036 209.279891 
L 432.224787 208.986712 
L 432.224787 206.699809 
L 432.224787 209.447423 
L 432.224787 207.919211 
" clip-path="url(#pc123d72d8c)" style="fill: none; stroke: #ff7f0e; stroke-width: 1.5; stroke-linecap: square"/>
   </g>
   <g id="line2d_63">
    <path d="M 76.720526 312.658878 
L 372.282818 312.658878 
L 372.875326 303.505956 
L 373.467833 312.658878 
L 377.022875 312.658878 
L 377.615382 269.202928 
L 378.800397 263.063524 
L 379.392904 261.612949 
L 379.985411 261.612949 
L 380.577918 312.658878 
L 383.540453 312.658878 
L 384.13296 254.717612 
L 385.317975 253.481559 
L 385.910482 252.204644 
L 386.502989 251.816463 
L 387.095496 312.658878 
L 390.058031 312.658878 
L 390.650539 246.862035 
L 391.243046 246.514714 
L 391.835553 245.993733 
L 392.42806 246.341054 
L 393.020567 244.716819 
L 393.613074 276.946137 
L 394.205581 274.545538 
L 394.798088 268.722809 
L 395.390595 266.557162 
L 395.983103 265.780798 
L 396.57561 242.101698 
L 397.168117 241.672655 
L 397.760624 240.967798 
L 398.353131 241.253827 
L 398.945638 240.405956 
L 399.538145 255.912804 
L 400.130652 254.881057 
L 400.723159 252.623472 
L 401.908174 251.172898 
L 402.500681 238.230094 
L 403.093188 237.290285 
L 403.685695 236.82038 
L 404.278202 236.605859 
L 404.870709 236.1666 
L 405.463216 245.830288 
L 406.055723 245.023278 
L 406.64823 244.420575 
L 407.240737 244.052823 
L 407.833245 243.347966 
L 408.425752 233.275666 
L 410.697029 231.539063 
L 411.289536 238.894089 
L 411.783292 238.465046 
L 413.462062 236.524136 
L 413.955818 229.261047 
L 415.042081 228.168009 
L 415.535837 227.912626 
L 416.029593 229.863751 
L 416.6221 233.09179 
L 417.609612 232.172412 
L 418.597124 231.079373 
L 418.992128 225.317936 
L 419.485884 225.379228 
L 420.374645 224.418988 
L 420.868401 227.391645 
L 421.263406 227.994348 
L 421.757161 227.57552 
L 422.547171 226.564204 
L 422.942176 226.288391 
L 423.33718 221.895805 
L 423.732185 221.599561 
L 424.423443 220.894704 
L 424.818448 223.070566 
L 425.114702 223.295303 
L 425.509706 223.039921 
L 426.398467 221.763006 
L 426.694721 218.494105 
L 426.990974 218.054847 
L 427.583481 217.625804 
L 427.879735 219.331761 
L 428.077237 219.198962 
L 428.867247 218.116139 
L 429.064749 217.67688 
L 429.262251 215.054609 
L 429.854759 214.245556 
L 430.052261 215.412145 
L 430.151012 215.387628 
L 430.743519 214.207759 
L 431.039773 211.662103 
L 431.237275 211.300481 
L 431.336026 212.181041 
L 431.533529 211.849043 
L 431.731031 211.114562 
L 431.928533 209.833561 
L 432.027285 210.458739 
L 432.027285 210.024588 
L 432.126036 209.974533 
L 432.224787 206.948757 
L 432.224787 207.883458 
" clip-path="url(#pc123d72d8c)" style="fill: none; stroke: #2ca02c; stroke-width: 1.5; stroke-linecap: square"/>
   </g>
   <g id="line2d_64">
    <path d="M 76.720526 207.226613 
L 76.720842 207.122417 
L 76.721592 206.741386 
L 76.807308 207.515707 
L 76.828954 206.918111 
L 76.85384 207.382907 
L 76.950912 207.147955 
L 77.036529 206.994725 
L 77.0863 207.515707 
L 77.141107 206.892572 
L 77.201148 206.943649 
L 77.33772 207.462587 
L 77.497994 206.816979 
L 77.683942 207.676087 
L 77.89764 206.691228 
L 78.13958 207.515707 
L 78.272894 206.616555 
L 78.414108 206.841496 
L 78.721225 206.666303 
L 78.888114 206.542289 
L 79.063891 206.691228 
L 79.247568 206.691228 
L 79.441121 206.51767 
L 79.643561 206.691228 
L 79.854888 206.443916 
L 80.074116 206.468432 
L 80.303219 206.273524 
L 80.541209 206.791441 
L 80.788087 206.468432 
L 81.042865 206.443916 
L 81.307518 205.915682 
L 81.581059 206.129182 
L 81.863487 205.915682 
L 82.153816 206.273524 
L 82.454019 205.868691 
L 83.406968 206.081476 
L 84.087364 205.567237 
L 84.440893 205.72866 
L 85.553819 205.613135 
L 85.942899 205.915682 
L 86.339878 205.544253 
L 86.743771 205.915682 
L 87.158526 205.868691 
L 87.583156 205.705477 
L 88.916297 205.77516 
L 89.370552 205.682333 
L 90.308688 205.915682 
L 90.792569 205.939177 
L 91.27645 205.821803 
L 91.770206 205.892084 
L 92.273837 206.081476 
L 92.787343 205.915682 
L 93.300849 206.033873 
L 93.814355 206.346257 
L 94.347612 206.273524 
L 94.880868 205.682333 
L 95.414125 206.225206 
L 95.957256 206.321945 
L 96.500388 206.56701 
L 97.053394 206.56701 
L 97.606401 206.419399 
L 98.169283 206.691228 
L 101.595949 206.765902 
L 102.178581 207.122417 
L 102.761213 207.122417 
L 103.343845 206.918111 
L 103.936352 207.226613 
L 104.528859 207.147955 
L 105.111491 207.252151 
L 105.703998 206.943649 
L 106.296505 207.226613 
L 106.889012 207.020264 
L 107.481519 207.515707 
L 108.074026 207.595386 
L 109.259041 207.252151 
L 109.851548 207.122417 
L 110.444055 207.252151 
L 111.036562 207.252151 
L 111.629069 207.515707 
L 113.40659 207.330809 
L 113.999097 207.595386 
L 114.591605 207.356348 
L 116.369126 207.436027 
L 116.961633 207.756788 
L 117.55414 207.356348 
L 118.146647 207.462587 
L 119.331661 207.147955 
L 119.924168 207.947814 
L 120.516676 206.943649 
L 121.109183 207.147955 
L 121.70169 206.741386 
L 122.886704 206.892572 
L 123.479211 206.741386 
L 124.071718 206.816979 
L 124.664225 206.741386 
L 125.256732 206.791441 
L 125.849239 206.56701 
L 126.441747 206.867034 
L 127.034254 206.943649 
L 127.626761 206.56701 
L 128.219268 206.691228 
L 128.811775 206.616555 
L 129.404282 206.841496 
L 129.996789 206.443916 
L 130.589296 206.691228 
L 132.959325 206.691228 
L 134.144339 206.841496 
L 134.736846 206.691228 
L 135.329353 207.226613 
L 135.92186 206.841496 
L 136.514367 206.943649 
L 137.106874 207.252151 
L 137.699382 207.382907 
L 139.476903 208.197068 
L 141.254424 209.613932 
L 141.846931 210.416856 
L 143.624453 213.292467 
L 145.401974 217.707526 
L 146.586988 223.19315 
L 147.772002 231.406263 
L 148.957016 252.776702 
L 149.549524 289.327099 
L 223.563536 289.327099 
L 224.156043 258.977398 
L 224.74855 243.644211 
L 225.933564 231.406263 
L 227.711085 222.018389 
L 229.488607 216.338674 
L 230.081114 214.911595 
L 230.673621 213.968721 
L 231.858635 211.557907 
L 232.451142 210.78665 
L 233.043649 210.317767 
L 233.636156 210.384167 
L 234.228664 209.336076 
L 235.413678 209.005099 
L 236.006185 208.739501 
L 236.598692 208.169487 
L 237.191199 208.113302 
L 237.783706 208.253252 
L 238.376213 208.197068 
L 238.96872 208.253252 
L 239.561228 208.030558 
L 240.153735 208.113302 
L 241.338749 208.085721 
L 241.931256 208.280834 
L 242.523763 207.783348 
L 243.11627 207.975396 
L 244.301284 207.975396 
L 244.893791 209.124619 
L 245.486299 207.920233 
L 246.078806 207.756788 
L 246.671313 208.140884 
L 247.26382 207.515707 
L 247.856327 207.515707 
L 248.448834 207.648506 
L 249.041341 207.515707 
L 249.633848 207.542266 
L 250.226355 207.252151 
L 252.003877 207.676087 
L 252.596384 207.975396 
L 253.781398 207.462587 
L 254.373905 207.83851 
L 254.966412 207.515707 
L 255.558919 207.542266 
L 256.743933 207.382907 
L 257.336441 207.356348 
L 257.928948 207.595386 
L 258.521455 207.409467 
L 260.298976 207.436027 
L 260.891483 207.226613 
L 261.48399 207.648506 
L 262.076497 207.226613 
L 263.261512 207.86507 
L 263.854019 207.515707 
L 265.039033 207.648506 
L 265.63154 207.252151 
L 266.224047 207.515707 
L 266.816554 207.947814 
L 267.409061 207.278711 
L 269.186583 207.356348 
L 270.371597 207.810929 
L 270.964104 207.252151 
L 271.556611 207.595386 
L 272.149118 207.436027 
L 273.334132 207.515707 
L 274.519147 207.436027 
L 275.111654 207.226613 
L 275.704161 207.542266 
L 276.296668 207.542266 
L 276.889175 207.382907 
L 277.481682 206.994725 
L 278.074189 207.147955 
L 278.666696 208.030558 
L 279.259203 207.147955 
L 279.85171 207.330809 
L 281.629232 207.382907 
L 282.221739 207.174515 
L 283.406753 207.200053 
L 283.99926 206.918111 
L 284.591767 207.515707 
L 285.184274 206.841496 
L 285.776781 206.867034 
L 286.369289 206.716256 
L 288.14681 206.641378 
L 288.739317 207.147955 
L 289.331824 207.252151 
L 289.924331 206.892572 
L 290.516838 206.816979 
L 291.109345 207.892652 
L 291.701853 206.641378 
L 293.479374 206.691228 
L 294.071881 206.51767 
L 295.849402 206.641378 
L 297.034416 207.147955 
L 297.626924 206.867034 
L 298.219431 207.252151 
L 298.811938 207.174515 
L 299.996952 206.616555 
L 300.589459 206.691228 
L 301.181966 206.969187 
L 301.774473 206.969187 
L 302.36698 207.147955 
L 302.959487 206.616555 
L 304.144502 206.666303 
L 304.737009 207.382907 
L 305.922023 207.515707 
L 306.51453 207.122417 
L 307.107037 207.515707 
L 307.699544 206.943649 
L 308.884558 206.816979 
L 309.477066 207.356348 
L 310.069573 206.816979 
L 310.66208 207.356348 
L 311.254587 207.226613 
L 312.439601 207.810929 
L 313.032108 207.568826 
L 313.624615 207.756788 
L 314.217122 207.676087 
L 314.809629 208.05814 
L 315.402137 207.515707 
L 315.994644 207.595386 
L 317.772165 208.537238 
L 318.957179 209.865229 
L 321.919715 214.726697 
L 322.512222 216.757502 
L 323.104729 216.972024 
L 323.697236 218.412383 
L 324.289743 220.445231 
L 325.474757 227.126046 
L 326.067264 231.569708 
L 326.659772 238.025787 
L 327.252279 289.327099 
L 390.650539 289.327099 
L 391.243046 263.676443 
L 391.835553 256.576799 
L 392.42806 252.776702 
L 393.020567 247.995935 
L 393.613074 289.327099 
L 395.983103 289.327099 
L 396.57561 232.59124 
L 397.168117 231.079373 
L 397.760624 228.893296 
L 398.353131 228.3621 
L 398.945638 226.778726 
L 399.538145 237.494591 
L 400.130652 236.503706 
L 400.723159 231.896599 
L 401.315666 229.301909 
L 401.908174 227.371214 
L 402.500681 218.841426 
L 403.093188 217.932263 
L 403.685695 216.491904 
L 404.278202 215.434619 
L 404.870709 214.680728 
L 405.463216 218.974225 
L 406.055723 218.289799 
L 406.64823 217.932263 
L 407.240737 217.084392 
L 407.833245 217.247837 
L 408.425752 212.07378 
L 409.018259 212.415993 
L 409.512015 212.262763 
L 410.104522 212.847079 
L 410.697029 213.710273 
L 411.289536 220.159202 
L 411.783292 222.427002 
L 412.375799 224.572218 
L 413.462062 234.511719 
L 413.955818 224.664156 
L 414.548325 226.553989 
L 415.042081 231.406263 
L 415.535837 233.510618 
L 416.029593 238.025787 
L 416.6221 289.327099 
L 418.597124 289.327099 
L 418.992128 260.366681 
L 419.485884 265.709291 
L 419.97964 268.10989 
L 420.374645 256.576799 
L 420.868401 260.366681 
L 421.263406 289.327099 
L 422.942176 289.327099 
L 423.33718 252.776702 
L 423.732185 244.941556 
L 424.12719 251.979908 
L 424.423443 242.459234 
L 424.818448 241.376411 
L 425.114702 289.327099 
L 426.398467 289.327099 
L 426.694721 235.574112 
L 426.990974 235.574112 
L 427.287228 237.760189 
L 427.583481 234.716025 
L 427.879735 233.704709 
L 428.077237 289.327099 
L 429.064749 289.327099 
L 429.262251 232.775116 
L 429.459754 232.41758 
L 429.657256 231.569708 
L 429.854759 234.103107 
L 430.052261 231.569708 
L 430.151012 289.327099 
L 430.743519 289.327099 
L 430.941022 231.406263 
L 431.039773 231.896599 
L 431.138524 232.59124 
L 431.336026 231.733153 
L 431.533529 289.327099 
L 431.731031 289.327099 
L 431.829782 230.016981 
L 431.928533 231.079373 
L 432.027285 231.079373 
L 432.027285 289.327099 
L 432.126036 229.158894 
L 432.126036 229.863751 
L 432.224787 231.896599 
L 432.224787 230.313225 
L 432.224787 289.327099 
L 432.224787 226.778726 
L 432.224787 228.627698 
" clip-path="url(#pc123d72d8c)" style="fill: none; stroke: #d62728; stroke-width: 1.5; stroke-linecap: square"/>
   </g>
   <g id="patch_9">
    <path d="M 58.945313 318.121875 
L 58.945313 197.935938 
" style="fill: none; stroke: #000000; stroke-width: 0.8; stroke-linejoin: miter; stroke-linecap: square"/>
   </g>
   <g id="patch_10">
    <path d="M 450 318.121875 
L 450 197.935938 
" style="fill: none; stroke: #000000; stroke-width: 0.8; stroke-linejoin: miter; stroke-linecap: square"/>
   </g>
   <g id="patch_11">
    <path d="M 58.945313 318.121875 
L 450 318.121875 
" style="fill: none; stroke: #000000; stroke-width: 0.8; stroke-linejoin: miter; stroke-linecap: square"/>
   </g>
   <g id="patch_12">
    <path d="M 58.945313 197.935938 
L 450 197.935938 
" style="fill: none; stroke: #000000; stroke-width: 0.8; stroke-linejoin: miter; stroke-linecap: square"/>
   </g>
   <g id="text_26">
    <!-- Wall Distance [mm] -->
    <g transform="translate(195.492656 191.935938)scale(0.12 -0.12)">
     <defs>
      <path id="DejaVuSans-57" d="M 213 4666 
L 850 4666 
L 1831 722 
L 2809 4666 
L 3519 4666 
L 4500 722 
L 5478 4666 
L 6119 4666 
L 4947 0 
L 4153 0 
L 3169 4050 
L 2175 0 
L 1381 0 
L 213 4666 
z
" transform="scale(0.015625)"/>
      <path id="DejaVuSans-44" d="M 1259 4147 
L 1259 519 
L 2022 519 
Q 2988 519 3436 956 
Q 3884 1394 3884 2338 
Q 3884 3275 3436 3711 
Q 2988 4147 2022 4147 
L 1259 4147 
z
M 628 4666 
L 1925 4666 
Q 3281 4666 3915 4102 
Q 4550 3538 4550 2338 
Q 4550 1131 3912 565 
Q 3275 0 1925 0 
L 628 0 
L 628 4666 
z
" transform="scale(0.015625)"/>
     </defs>
     <use xlink:href="#DejaVuSans-57"/>
     <use xlink:href="#DejaVuSans-61" x="92.501953"/>
     <use xlink:href="#DejaVuSans-6c" x="153.78125"/>
     <use xlink:href="#DejaVuSans-6c" x="181.564453"/>
     <use xlink:href="#DejaVuSans-20" x="209.347656"/>
     <use xlink:href="#DejaVuSans-44" x="241.134766"/>
     <use xlink:href="#DejaVuSans-69" x="318.136719"/>
     <use xlink:href="#DejaVuSans-73" x="345.919922"/>
     <use xlink:href="#DejaVuSans-74" x="398.019531"/>
     <use xlink:href="#DejaVuSans-61" x="437.228516"/>
     <use xlink:href="#DejaVuSans-6e" x="498.507812"/>
     <use xlink:href="#DejaVuSans-63" x="561.886719"/>
     <use xlink:href="#DejaVuSans-65" x="616.867188"/>
     <use xlink:href="#DejaVuSans-20" x="678.390625"/>
     <use xlink:href="#DejaVuSans-5b" x="710.177734"/>
     <use xlink:href="#DejaVuSans-6d" x="749.191406"/>
     <use xlink:href="#DejaVuSans-6d" x="846.603516"/>
     <use xlink:href="#DejaVuSans-5d" x="944.015625"/>
    </g>
   </g>
   <g id="legend_2">
    <g id="patch_13">
     <path d="M 65.945312 288.885156 
L 133.360938 288.885156 
Q 135.360938 288.885156 135.360938 286.885156 
L 135.360938 229.172656 
Q 135.360938 227.172656 133.360938 227.172656 
L 65.945312 227.172656 
Q 63.945312 227.172656 63.945312 229.172656 
L 63.945312 286.885156 
Q 63.945312 288.885156 65.945312 288.885156 
z
" style="fill: #ffffff; opacity: 0.8; stroke: #cccccc; stroke-linejoin: miter"/>
    </g>
    <g id="line2d_65">
     <path d="M 67.945312 235.271094 
L 77.945312 235.271094 
L 87.945312 235.271094 
" style="fill: none; stroke: #1f77b4; stroke-width: 1.5; stroke-linecap: square"/>
    </g>
    <g id="text_27">
     <!-- L Side -->
     <g transform="translate(95.945312 238.771094)scale(0.1 -0.1)">
      <use xlink:href="#DejaVuSans-4c"/>
      <use xlink:href="#DejaVuSans-20" x="55.712891"/>
      <use xlink:href="#DejaVuSans-53" x="87.5"/>
      <use xlink:href="#DejaVuSans-69" x="150.976562"/>
      <use xlink:href="#DejaVuSans-64" x="178.759766"/>
      <use xlink:href="#DejaVuSans-65" x="242.236328"/>
     </g>
    </g>
    <g id="line2d_66">
     <path d="M 67.945312 249.949219 
L 77.945312 249.949219 
L 87.945312 249.949219 
" style="fill: none; stroke: #ff7f0e; stroke-width: 1.5; stroke-linecap: square"/>
    </g>
    <g id="text_28">
     <!-- L Front -->
     <g transform="translate(95.945312 253.449219)scale(0.1 -0.1)">
      <use xlink:href="#DejaVuSans-4c"/>
      <use xlink:href="#DejaVuSans-20" x="55.712891"/>
      <use xlink:href="#DejaVuSans-46" x="87.5"/>
      <use xlink:href="#DejaVuSans-72" x="137.769531"/>
      <use xlink:href="#DejaVuSans-6f" x="176.632812"/>
      <use xlink:href="#DejaVuSans-6e" x="237.814453"/>
      <use xlink:href="#DejaVuSans-74" x="301.193359"/>
     </g>
    </g>
    <g id="line2d_67">
     <path d="M 67.945312 264.627344 
L 77.945312 264.627344 
L 87.945312 264.627344 
" style="fill: none; stroke: #2ca02c; stroke-width: 1.5; stroke-linecap: square"/>
    </g>
    <g id="text_29">
     <!-- R Front -->
     <g transform="translate(95.945312 268.127344)scale(0.1 -0.1)">
      <use xlink:href="#DejaVuSans-52"/>
      <use xlink:href="#DejaVuSans-20" x="69.482422"/>
      <use xlink:href="#DejaVuSans-46" x="101.269531"/>
      <use xlink:href="#DejaVuSans-72" x="151.539062"/>
      <use xlink:href="#DejaVuSans-6f" x="190.402344"/>
      <use xlink:href="#DejaVuSans-6e" x="251.583984"/>
      <use xlink:href="#DejaVuSans-74" x="314.962891"/>
     </g>
    </g>
    <g id="line2d_68">
     <path d="M 67.945312 279.305469 
L 77.945312 279.305469 
L 87.945312 279.305469 
" style="fill: none; stroke: #d62728; stroke-width: 1.5; stroke-linecap: square"/>
    </g>
    <g id="text_30">
     <!-- R Side -->
     <g transform="translate(95.945312 282.805469)scale(0.1 -0.1)">
      <use xlink:href="#DejaVuSans-52"/>
      <use xlink:href="#DejaVuSans-20" x="69.482422"/>
      <use xlink:href="#DejaVuSans-53" x="101.269531"/>
      <use xlink:href="#DejaVuSans-69" x="164.746094"/>
      <use xlink:href="#DejaVuSans-64" x="192.529297"/>
      <use xlink:href="#DejaVuSans-65" x="256.005859"/>
     </g>
    </g>
   </g>
  </g>
  <g id="text_31">
   <!-- Reflector raw and distance -->
   <g transform="translate(150.065625 16.030125)scale(0.12 -0.12)">
    <use xlink:href="#DejaVuSans-52"/>
    <use xlink:href="#DejaVuSans-65" x="64.982422"/>
    <use xlink:href="#DejaVuSans-66" x="126.505859"/>
    <use xlink:href="#DejaVuSans-6c" x="161.710938"/>
    <use xlink:href="#DejaVuSans-65" x="189.494141"/>
    <use xlink:href="#DejaVuSans-63" x="251.017578"/>
    <use xlink:href="#DejaVuSans-74" x="305.998047"/>
    <use xlink:href="#DejaVuSans-6f" x="345.207031"/>
    <use xlink:href="#DejaVuSans-72" x="406.388672"/>
    <use xlink:href="#DejaVuSans-20" x="447.501953"/>
    <use xlink:href="#DejaVuSans-72" x="479.289062"/>
    <use xlink:href="#DejaVuSans-61" x="520.402344"/>
    <use xlink:href="#DejaVuSans-77" x="581.681641"/>
    <use xlink:href="#DejaVuSans-20" x="663.46875"/>
    <use xlink:href="#DejaVuSans-61" x="695.255859"/>
    <use xlink:href="#DejaVuSans-6e" x="756.535156"/>
    <use xlink:href="#DejaVuSans-64" x="819.914062"/>
    <use xlink:href="#DejaVuSans-20" x="883.390625"/>
    <use xlink:href="#DejaVuSans-64" x="915.177734"/>
    <use xlink:href="#DejaVuSans-69" x="978.654297"/>
    <use xlink:href="#DejaVuSans-73" x="1006.4375"/>
    <use xlink:href="#DejaVuSans-74" x="1058.537109"/>
    <use xlink:href="#DejaVuSans-61" x="1097.746094"/>
    <use xlink:href="#DejaVuSans-6e" x="1159.025391"/>
    <use xlink:href="#DejaVuSans-63" x="1222.404297"/>
    <use xlink:href="#DejaVuSans-65" x="1277.384766"/>
   </g>
  </g>
 </g>
 <defs>
  <clipPath id="pe0a7de7b44">
   <rect x="58.945313" y="48.331875" width="391.054687" height="120.185937"/>
  </clipPath>
  <clipPath id="pc123d72d8c">
   <rect x="58.945313" y="197.935938" width="391.054687" height="120.185937"/>
  </clipPath>
 </defs>
</svg>
