<?xml version="1.0" encoding="utf-8" standalone="no"?>
<!DOCTYPE svg PUBLIC "-//W3C//DTD SVG 1.1//EN"
  "http://www.w3.org/Graphics/SVG/1.1/DTD/svg11.dtd">
<svg xmlns:xlink="http://www.w3.org/1999/xlink" width="576pt" height="720pt" viewBox="0 0 576 720" xmlns="http://www.w3.org/2000/svg" version="1.1">
 <metadata>
  <rdf:RDF xmlns:dc="http://purl.org/dc/elements/1.1/" xmlns:cc="http://creativecommons.org/ns#" xmlns:rdf="http://www.w3.org/1999/02/22-rdf-syntax-ns#">
   <cc:Work>
    <dc:type rdf:resource="http://purl.org/dc/dcmitype/StillImage"/>
    <dc:date>2022-01-09T23:10:29.777386</dc:date>
    <dc:format>image/svg+xml</dc:format>
    <dc:creator>
     <cc:Agent>
      <dc:title>Matplotlib v3.5.1, https://matplotlib.org/</dc:title>
     </cc:Agent>
    </dc:creator>
   </cc:Work>
  </rdf:RDF>
 </metadata>
 <defs>
  <style type="text/css">*{stroke-linejoin: round; stroke-linecap: butt}</style>
 </defs>
 <g id="figure_1">
  <g id="patch_1">
   <path d="M 0 720 
L 576 720 
L 576 0 
L 0 0 
z
" style="fill: #ffffff"/>
  </g>
  <g id="axes_1">
   <g id="patch_2">
    <path d="M 59.42 323.44 
L 565.2 323.44 
L 565.2 25.44 
L 59.42 25.44 
z
" style="fill: #ffffff"/>
   </g>
   <g id="matplotlib.axis_1">
    <g id="xtick_1">
     <g id="line2d_1">
      <path d="M 82.41 323.44 
L 82.41 25.44 
" clip-path="url(#p777058a736)" style="fill: none; stroke: #b0b0b0; stroke-width: 0.8; stroke-linecap: square"/>
     </g>
     <g id="line2d_2">
      <defs>
       <path id="mb212e4b77f" d="M 0 0 
L 0 3.5 
" style="stroke: #000000; stroke-width: 0.8"/>
      </defs>
      <g>
       <use xlink:href="#mb212e4b77f" x="82.41" y="323.44" style="stroke: #000000; stroke-width: 0.8"/>
      </g>
     </g>
     <g id="text_1">
      <!-- 0 -->
      <g transform="translate(79.22875 338.038438)scale(0.1 -0.1)">
       <defs>
        <path id="DejaVuSans-30" d="M 2034 4250 
Q 1547 4250 1301 3770 
Q 1056 3291 1056 2328 
Q 1056 1369 1301 889 
Q 1547 409 2034 409 
Q 2525 409 2770 889 
Q 3016 1369 3016 2328 
Q 3016 3291 2770 3770 
Q 2525 4250 2034 4250 
z
M 2034 4750 
Q 2819 4750 3233 4129 
Q 3647 3509 3647 2328 
Q 3647 1150 3233 529 
Q 2819 -91 2034 -91 
Q 1250 -91 836 529 
Q 422 1150 422 2328 
Q 422 3509 836 4129 
Q 1250 4750 2034 4750 
z
" transform="scale(0.015625)"/>
       </defs>
       <use xlink:href="#DejaVuSans-30"/>
      </g>
     </g>
    </g>
    <g id="xtick_2">
     <g id="line2d_3">
      <path d="M 167.558148 323.44 
L 167.558148 25.44 
" clip-path="url(#p777058a736)" style="fill: none; stroke: #b0b0b0; stroke-width: 0.8; stroke-linecap: square"/>
     </g>
     <g id="line2d_4">
      <g>
       <use xlink:href="#mb212e4b77f" x="167.558148" y="323.44" style="stroke: #000000; stroke-width: 0.8"/>
      </g>
     </g>
     <g id="text_2">
      <!-- 50 -->
      <g transform="translate(161.195648 338.038438)scale(0.1 -0.1)">
       <defs>
        <path id="DejaVuSans-35" d="M 691 4666 
L 3169 4666 
L 3169 4134 
L 1269 4134 
L 1269 2991 
Q 1406 3038 1543 3061 
Q 1681 3084 1819 3084 
Q 2600 3084 3056 2656 
Q 3513 2228 3513 1497 
Q 3513 744 3044 326 
Q 2575 -91 1722 -91 
Q 1428 -91 1123 -41 
Q 819 9 494 109 
L 494 744 
Q 775 591 1075 516 
Q 1375 441 1709 441 
Q 2250 441 2565 725 
Q 2881 1009 2881 1497 
Q 2881 1984 2565 2268 
Q 2250 2553 1709 2553 
Q 1456 2553 1204 2497 
Q 953 2441 691 2322 
L 691 4666 
z
" transform="scale(0.015625)"/>
       </defs>
       <use xlink:href="#DejaVuSans-35"/>
       <use xlink:href="#DejaVuSans-30" x="63.623047"/>
      </g>
     </g>
    </g>
    <g id="xtick_3">
     <g id="line2d_5">
      <path d="M 252.706296 323.44 
L 252.706296 25.44 
" clip-path="url(#p777058a736)" style="fill: none; stroke: #b0b0b0; stroke-width: 0.8; stroke-linecap: square"/>
     </g>
     <g id="line2d_6">
      <g>
       <use xlink:href="#mb212e4b77f" x="252.706296" y="323.44" style="stroke: #000000; stroke-width: 0.8"/>
      </g>
     </g>
     <g id="text_3">
      <!-- 100 -->
      <g transform="translate(243.162546 338.038438)scale(0.1 -0.1)">
       <defs>
        <path id="DejaVuSans-31" d="M 794 531 
L 1825 531 
L 1825 4091 
L 703 3866 
L 703 4441 
L 1819 4666 
L 2450 4666 
L 2450 531 
L 3481 531 
L 3481 0 
L 794 0 
L 794 531 
z
" transform="scale(0.015625)"/>
       </defs>
       <use xlink:href="#DejaVuSans-31"/>
       <use xlink:href="#DejaVuSans-30" x="63.623047"/>
       <use xlink:href="#DejaVuSans-30" x="127.246094"/>
      </g>
     </g>
    </g>
    <g id="xtick_4">
     <g id="line2d_7">
      <path d="M 337.854444 323.44 
L 337.854444 25.44 
" clip-path="url(#p777058a736)" style="fill: none; stroke: #b0b0b0; stroke-width: 0.8; stroke-linecap: square"/>
     </g>
     <g id="line2d_8">
      <g>
       <use xlink:href="#mb212e4b77f" x="337.854444" y="323.44" style="stroke: #000000; stroke-width: 0.8"/>
      </g>
     </g>
     <g id="text_4">
      <!-- 150 -->
      <g transform="translate(328.310694 338.038438)scale(0.1 -0.1)">
       <use xlink:href="#DejaVuSans-31"/>
       <use xlink:href="#DejaVuSans-35" x="63.623047"/>
       <use xlink:href="#DejaVuSans-30" x="127.246094"/>
      </g>
     </g>
    </g>
    <g id="xtick_5">
     <g id="line2d_9">
      <path d="M 423.002593 323.44 
L 423.002593 25.44 
" clip-path="url(#p777058a736)" style="fill: none; stroke: #b0b0b0; stroke-width: 0.8; stroke-linecap: square"/>
     </g>
     <g id="line2d_10">
      <g>
       <use xlink:href="#mb212e4b77f" x="423.002593" y="323.44" style="stroke: #000000; stroke-width: 0.8"/>
      </g>
     </g>
     <g id="text_5">
      <!-- 200 -->
      <g transform="translate(413.458843 338.038438)scale(0.1 -0.1)">
       <defs>
        <path id="DejaVuSans-32" d="M 1228 531 
L 3431 531 
L 3431 0 
L 469 0 
L 469 531 
Q 828 903 1448 1529 
Q 2069 2156 2228 2338 
Q 2531 2678 2651 2914 
Q 2772 3150 2772 3378 
Q 2772 3750 2511 3984 
Q 2250 4219 1831 4219 
Q 1534 4219 1204 4116 
Q 875 4013 500 3803 
L 500 4441 
Q 881 4594 1212 4672 
Q 1544 4750 1819 4750 
Q 2544 4750 2975 4387 
Q 3406 4025 3406 3419 
Q 3406 3131 3298 2873 
Q 3191 2616 2906 2266 
Q 2828 2175 2409 1742 
Q 1991 1309 1228 531 
z
" transform="scale(0.015625)"/>
       </defs>
       <use xlink:href="#DejaVuSans-32"/>
       <use xlink:href="#DejaVuSans-30" x="63.623047"/>
       <use xlink:href="#DejaVuSans-30" x="127.246094"/>
      </g>
     </g>
    </g>
    <g id="xtick_6">
     <g id="line2d_11">
      <path d="M 508.150741 323.44 
L 508.150741 25.44 
" clip-path="url(#p777058a736)" style="fill: none; stroke: #b0b0b0; stroke-width: 0.8; stroke-linecap: square"/>
     </g>
     <g id="line2d_12">
      <g>
       <use xlink:href="#mb212e4b77f" x="508.150741" y="323.44" style="stroke: #000000; stroke-width: 0.8"/>
      </g>
     </g>
     <g id="text_6">
      <!-- 250 -->
      <g transform="translate(498.606991 338.038438)scale(0.1 -0.1)">
       <use xlink:href="#DejaVuSans-32"/>
       <use xlink:href="#DejaVuSans-35" x="63.623047"/>
       <use xlink:href="#DejaVuSans-30" x="127.246094"/>
      </g>
     </g>
    </g>
    <g id="text_7">
     <!-- x [mm] -->
     <g transform="translate(294.119375 351.716563)scale(0.1 -0.1)">
      <defs>
       <path id="DejaVuSans-78" d="M 3513 3500 
L 2247 1797 
L 3578 0 
L 2900 0 
L 1881 1375 
L 863 0 
L 184 0 
L 1544 1831 
L 300 3500 
L 978 3500 
L 1906 2253 
L 2834 3500 
L 3513 3500 
z
" transform="scale(0.015625)"/>
       <path id="DejaVuSans-20" transform="scale(0.015625)"/>
       <path id="DejaVuSans-5b" d="M 550 4863 
L 1875 4863 
L 1875 4416 
L 1125 4416 
L 1125 -397 
L 1875 -397 
L 1875 -844 
L 550 -844 
L 550 4863 
z
" transform="scale(0.015625)"/>
       <path id="DejaVuSans-6d" d="M 3328 2828 
Q 3544 3216 3844 3400 
Q 4144 3584 4550 3584 
Q 5097 3584 5394 3201 
Q 5691 2819 5691 2113 
L 5691 0 
L 5113 0 
L 5113 2094 
Q 5113 2597 4934 2840 
Q 4756 3084 4391 3084 
Q 3944 3084 3684 2787 
Q 3425 2491 3425 1978 
L 3425 0 
L 2847 0 
L 2847 2094 
Q 2847 2600 2669 2842 
Q 2491 3084 2119 3084 
Q 1678 3084 1418 2786 
Q 1159 2488 1159 1978 
L 1159 0 
L 581 0 
L 581 3500 
L 1159 3500 
L 1159 2956 
Q 1356 3278 1631 3431 
Q 1906 3584 2284 3584 
Q 2666 3584 2933 3390 
Q 3200 3197 3328 2828 
z
" transform="scale(0.015625)"/>
       <path id="DejaVuSans-5d" d="M 1947 4863 
L 1947 -844 
L 622 -844 
L 622 -397 
L 1369 -397 
L 1369 4416 
L 622 4416 
L 622 4863 
L 1947 4863 
z
" transform="scale(0.015625)"/>
      </defs>
      <use xlink:href="#DejaVuSans-78"/>
      <use xlink:href="#DejaVuSans-20" x="59.179688"/>
      <use xlink:href="#DejaVuSans-5b" x="90.966797"/>
      <use xlink:href="#DejaVuSans-6d" x="129.980469"/>
      <use xlink:href="#DejaVuSans-6d" x="227.392578"/>
      <use xlink:href="#DejaVuSans-5d" x="324.804688"/>
     </g>
    </g>
   </g>
   <g id="matplotlib.axis_2">
    <g id="ytick_1">
     <g id="line2d_13">
      <path d="M 59.42 310.125303 
L 565.2 310.125303 
" clip-path="url(#p777058a736)" style="fill: none; stroke: #b0b0b0; stroke-width: 0.8; stroke-linecap: square"/>
     </g>
     <g id="line2d_14">
      <defs>
       <path id="mb7bd9e3d9e" d="M 0 0 
L -3.5 0 
" style="stroke: #000000; stroke-width: 0.8"/>
      </defs>
      <g>
       <use xlink:href="#mb7bd9e3d9e" x="59.42" y="310.125303" style="stroke: #000000; stroke-width: 0.8"/>
      </g>
     </g>
     <g id="text_8">
      <!-- 0 -->
      <g transform="translate(46.0575 313.924522)scale(0.1 -0.1)">
       <use xlink:href="#DejaVuSans-30"/>
      </g>
     </g>
    </g>
    <g id="ytick_2">
     <g id="line2d_15">
      <path d="M 59.42 263.973839 
L 565.2 263.973839 
" clip-path="url(#p777058a736)" style="fill: none; stroke: #b0b0b0; stroke-width: 0.8; stroke-linecap: square"/>
     </g>
     <g id="line2d_16">
      <g>
       <use xlink:href="#mb7bd9e3d9e" x="59.42" y="263.973839" style="stroke: #000000; stroke-width: 0.8"/>
      </g>
     </g>
     <g id="text_9">
      <!-- 200 -->
      <g transform="translate(33.3325 267.773058)scale(0.1 -0.1)">
       <use xlink:href="#DejaVuSans-32"/>
       <use xlink:href="#DejaVuSans-30" x="63.623047"/>
       <use xlink:href="#DejaVuSans-30" x="127.246094"/>
      </g>
     </g>
    </g>
    <g id="ytick_3">
     <g id="line2d_17">
      <path d="M 59.42 217.822376 
L 565.2 217.822376 
" clip-path="url(#p777058a736)" style="fill: none; stroke: #b0b0b0; stroke-width: 0.8; stroke-linecap: square"/>
     </g>
     <g id="line2d_18">
      <g>
       <use xlink:href="#mb7bd9e3d9e" x="59.42" y="217.822376" style="stroke: #000000; stroke-width: 0.8"/>
      </g>
     </g>
     <g id="text_10">
      <!-- 400 -->
      <g transform="translate(33.3325 221.621594)scale(0.1 -0.1)">
       <defs>
        <path id="DejaVuSans-34" d="M 2419 4116 
L 825 1625 
L 2419 1625 
L 2419 4116 
z
M 2253 4666 
L 3047 4666 
L 3047 1625 
L 3713 1625 
L 3713 1100 
L 3047 1100 
L 3047 0 
L 2419 0 
L 2419 1100 
L 313 1100 
L 313 1709 
L 2253 4666 
z
" transform="scale(0.015625)"/>
       </defs>
       <use xlink:href="#DejaVuSans-34"/>
       <use xlink:href="#DejaVuSans-30" x="63.623047"/>
       <use xlink:href="#DejaVuSans-30" x="127.246094"/>
      </g>
     </g>
    </g>
    <g id="ytick_4">
     <g id="line2d_19">
      <path d="M 59.42 171.670912 
L 565.2 171.670912 
" clip-path="url(#p777058a736)" style="fill: none; stroke: #b0b0b0; stroke-width: 0.8; stroke-linecap: square"/>
     </g>
     <g id="line2d_20">
      <g>
       <use xlink:href="#mb7bd9e3d9e" x="59.42" y="171.670912" style="stroke: #000000; stroke-width: 0.8"/>
      </g>
     </g>
     <g id="text_11">
      <!-- 600 -->
      <g transform="translate(33.3325 175.470131)scale(0.1 -0.1)">
       <defs>
        <path id="DejaVuSans-36" d="M 2113 2584 
Q 1688 2584 1439 2293 
Q 1191 2003 1191 1497 
Q 1191 994 1439 701 
Q 1688 409 2113 409 
Q 2538 409 2786 701 
Q 3034 994 3034 1497 
Q 3034 2003 2786 2293 
Q 2538 2584 2113 2584 
z
M 3366 4563 
L 3366 3988 
Q 3128 4100 2886 4159 
Q 2644 4219 2406 4219 
Q 1781 4219 1451 3797 
Q 1122 3375 1075 2522 
Q 1259 2794 1537 2939 
Q 1816 3084 2150 3084 
Q 2853 3084 3261 2657 
Q 3669 2231 3669 1497 
Q 3669 778 3244 343 
Q 2819 -91 2113 -91 
Q 1303 -91 875 529 
Q 447 1150 447 2328 
Q 447 3434 972 4092 
Q 1497 4750 2381 4750 
Q 2619 4750 2861 4703 
Q 3103 4656 3366 4563 
z
" transform="scale(0.015625)"/>
       </defs>
       <use xlink:href="#DejaVuSans-36"/>
       <use xlink:href="#DejaVuSans-30" x="63.623047"/>
       <use xlink:href="#DejaVuSans-30" x="127.246094"/>
      </g>
     </g>
    </g>
    <g id="ytick_5">
     <g id="line2d_21">
      <path d="M 59.42 125.519449 
L 565.2 125.519449 
" clip-path="url(#p777058a736)" style="fill: none; stroke: #b0b0b0; stroke-width: 0.8; stroke-linecap: square"/>
     </g>
     <g id="line2d_22">
      <g>
       <use xlink:href="#mb7bd9e3d9e" x="59.42" y="125.519449" style="stroke: #000000; stroke-width: 0.8"/>
      </g>
     </g>
     <g id="text_12">
      <!-- 800 -->
      <g transform="translate(33.3325 129.318667)scale(0.1 -0.1)">
       <defs>
        <path id="DejaVuSans-38" d="M 2034 2216 
Q 1584 2216 1326 1975 
Q 1069 1734 1069 1313 
Q 1069 891 1326 650 
Q 1584 409 2034 409 
Q 2484 409 2743 651 
Q 3003 894 3003 1313 
Q 3003 1734 2745 1975 
Q 2488 2216 2034 2216 
z
M 1403 2484 
Q 997 2584 770 2862 
Q 544 3141 544 3541 
Q 544 4100 942 4425 
Q 1341 4750 2034 4750 
Q 2731 4750 3128 4425 
Q 3525 4100 3525 3541 
Q 3525 3141 3298 2862 
Q 3072 2584 2669 2484 
Q 3125 2378 3379 2068 
Q 3634 1759 3634 1313 
Q 3634 634 3220 271 
Q 2806 -91 2034 -91 
Q 1263 -91 848 271 
Q 434 634 434 1313 
Q 434 1759 690 2068 
Q 947 2378 1403 2484 
z
M 1172 3481 
Q 1172 3119 1398 2916 
Q 1625 2713 2034 2713 
Q 2441 2713 2670 2916 
Q 2900 3119 2900 3481 
Q 2900 3844 2670 4047 
Q 2441 4250 2034 4250 
Q 1625 4250 1398 4047 
Q 1172 3844 1172 3481 
z
" transform="scale(0.015625)"/>
       </defs>
       <use xlink:href="#DejaVuSans-38"/>
       <use xlink:href="#DejaVuSans-30" x="63.623047"/>
       <use xlink:href="#DejaVuSans-30" x="127.246094"/>
      </g>
     </g>
    </g>
    <g id="ytick_6">
     <g id="line2d_23">
      <path d="M 59.42 79.367985 
L 565.2 79.367985 
" clip-path="url(#p777058a736)" style="fill: none; stroke: #b0b0b0; stroke-width: 0.8; stroke-linecap: square"/>
     </g>
     <g id="line2d_24">
      <g>
       <use xlink:href="#mb7bd9e3d9e" x="59.42" y="79.367985" style="stroke: #000000; stroke-width: 0.8"/>
      </g>
     </g>
     <g id="text_13">
      <!-- 1000 -->
      <g transform="translate(26.97 83.167204)scale(0.1 -0.1)">
       <use xlink:href="#DejaVuSans-31"/>
       <use xlink:href="#DejaVuSans-30" x="63.623047"/>
       <use xlink:href="#DejaVuSans-30" x="127.246094"/>
       <use xlink:href="#DejaVuSans-30" x="190.869141"/>
      </g>
     </g>
    </g>
    <g id="ytick_7">
     <g id="line2d_25">
      <path d="M 59.42 33.216522 
L 565.2 33.216522 
" clip-path="url(#p777058a736)" style="fill: none; stroke: #b0b0b0; stroke-width: 0.8; stroke-linecap: square"/>
     </g>
     <g id="line2d_26">
      <g>
       <use xlink:href="#mb7bd9e3d9e" x="59.42" y="33.216522" style="stroke: #000000; stroke-width: 0.8"/>
      </g>
     </g>
     <g id="text_14">
      <!-- 1200 -->
      <g transform="translate(26.97 37.01574)scale(0.1 -0.1)">
       <use xlink:href="#DejaVuSans-31"/>
       <use xlink:href="#DejaVuSans-32" x="63.623047"/>
       <use xlink:href="#DejaVuSans-30" x="127.246094"/>
       <use xlink:href="#DejaVuSans-30" x="190.869141"/>
      </g>
     </g>
    </g>
    <g id="text_15">
     <!-- reflector value -->
     <g transform="translate(20.890313 210.756406)rotate(-90)scale(0.1 -0.1)">
      <defs>
       <path id="DejaVuSans-72" d="M 2631 2963 
Q 2534 3019 2420 3045 
Q 2306 3072 2169 3072 
Q 1681 3072 1420 2755 
Q 1159 2438 1159 1844 
L 1159 0 
L 581 0 
L 581 3500 
L 1159 3500 
L 1159 2956 
Q 1341 3275 1631 3429 
Q 1922 3584 2338 3584 
Q 2397 3584 2469 3576 
Q 2541 3569 2628 3553 
L 2631 2963 
z
" transform="scale(0.015625)"/>
       <path id="DejaVuSans-65" d="M 3597 1894 
L 3597 1613 
L 953 1613 
Q 991 1019 1311 708 
Q 1631 397 2203 397 
Q 2534 397 2845 478 
Q 3156 559 3463 722 
L 3463 178 
Q 3153 47 2828 -22 
Q 2503 -91 2169 -91 
Q 1331 -91 842 396 
Q 353 884 353 1716 
Q 353 2575 817 3079 
Q 1281 3584 2069 3584 
Q 2775 3584 3186 3129 
Q 3597 2675 3597 1894 
z
M 3022 2063 
Q 3016 2534 2758 2815 
Q 2500 3097 2075 3097 
Q 1594 3097 1305 2825 
Q 1016 2553 972 2059 
L 3022 2063 
z
" transform="scale(0.015625)"/>
       <path id="DejaVuSans-66" d="M 2375 4863 
L 2375 4384 
L 1825 4384 
Q 1516 4384 1395 4259 
Q 1275 4134 1275 3809 
L 1275 3500 
L 2222 3500 
L 2222 3053 
L 1275 3053 
L 1275 0 
L 697 0 
L 697 3053 
L 147 3053 
L 147 3500 
L 697 3500 
L 697 3744 
Q 697 4328 969 4595 
Q 1241 4863 1831 4863 
L 2375 4863 
z
" transform="scale(0.015625)"/>
       <path id="DejaVuSans-6c" d="M 603 4863 
L 1178 4863 
L 1178 0 
L 603 0 
L 603 4863 
z
" transform="scale(0.015625)"/>
       <path id="DejaVuSans-63" d="M 3122 3366 
L 3122 2828 
Q 2878 2963 2633 3030 
Q 2388 3097 2138 3097 
Q 1578 3097 1268 2742 
Q 959 2388 959 1747 
Q 959 1106 1268 751 
Q 1578 397 2138 397 
Q 2388 397 2633 464 
Q 2878 531 3122 666 
L 3122 134 
Q 2881 22 2623 -34 
Q 2366 -91 2075 -91 
Q 1284 -91 818 406 
Q 353 903 353 1747 
Q 353 2603 823 3093 
Q 1294 3584 2113 3584 
Q 2378 3584 2631 3529 
Q 2884 3475 3122 3366 
z
" transform="scale(0.015625)"/>
       <path id="DejaVuSans-74" d="M 1172 4494 
L 1172 3500 
L 2356 3500 
L 2356 3053 
L 1172 3053 
L 1172 1153 
Q 1172 725 1289 603 
Q 1406 481 1766 481 
L 2356 481 
L 2356 0 
L 1766 0 
Q 1100 0 847 248 
Q 594 497 594 1153 
L 594 3053 
L 172 3053 
L 172 3500 
L 594 3500 
L 594 4494 
L 1172 4494 
z
" transform="scale(0.015625)"/>
       <path id="DejaVuSans-6f" d="M 1959 3097 
Q 1497 3097 1228 2736 
Q 959 2375 959 1747 
Q 959 1119 1226 758 
Q 1494 397 1959 397 
Q 2419 397 2687 759 
Q 2956 1122 2956 1747 
Q 2956 2369 2687 2733 
Q 2419 3097 1959 3097 
z
M 1959 3584 
Q 2709 3584 3137 3096 
Q 3566 2609 3566 1747 
Q 3566 888 3137 398 
Q 2709 -91 1959 -91 
Q 1206 -91 779 398 
Q 353 888 353 1747 
Q 353 2609 779 3096 
Q 1206 3584 1959 3584 
z
" transform="scale(0.015625)"/>
       <path id="DejaVuSans-76" d="M 191 3500 
L 800 3500 
L 1894 563 
L 2988 3500 
L 3597 3500 
L 2284 0 
L 1503 0 
L 191 3500 
z
" transform="scale(0.015625)"/>
       <path id="DejaVuSans-61" d="M 2194 1759 
Q 1497 1759 1228 1600 
Q 959 1441 959 1056 
Q 959 750 1161 570 
Q 1363 391 1709 391 
Q 2188 391 2477 730 
Q 2766 1069 2766 1631 
L 2766 1759 
L 2194 1759 
z
M 3341 1997 
L 3341 0 
L 2766 0 
L 2766 531 
Q 2569 213 2275 61 
Q 1981 -91 1556 -91 
Q 1019 -91 701 211 
Q 384 513 384 1019 
Q 384 1609 779 1909 
Q 1175 2209 1959 2209 
L 2766 2209 
L 2766 2266 
Q 2766 2663 2505 2880 
Q 2244 3097 1772 3097 
Q 1472 3097 1187 3025 
Q 903 2953 641 2809 
L 641 3341 
Q 956 3463 1253 3523 
Q 1550 3584 1831 3584 
Q 2591 3584 2966 3190 
Q 3341 2797 3341 1997 
z
" transform="scale(0.015625)"/>
       <path id="DejaVuSans-75" d="M 544 1381 
L 544 3500 
L 1119 3500 
L 1119 1403 
Q 1119 906 1312 657 
Q 1506 409 1894 409 
Q 2359 409 2629 706 
Q 2900 1003 2900 1516 
L 2900 3500 
L 3475 3500 
L 3475 0 
L 2900 0 
L 2900 538 
Q 2691 219 2414 64 
Q 2138 -91 1772 -91 
Q 1169 -91 856 284 
Q 544 659 544 1381 
z
M 1991 3584 
L 1991 3584 
z
" transform="scale(0.015625)"/>
      </defs>
      <use xlink:href="#DejaVuSans-72"/>
      <use xlink:href="#DejaVuSans-65" x="38.863281"/>
      <use xlink:href="#DejaVuSans-66" x="100.386719"/>
      <use xlink:href="#DejaVuSans-6c" x="135.591797"/>
      <use xlink:href="#DejaVuSans-65" x="163.375"/>
      <use xlink:href="#DejaVuSans-63" x="224.898438"/>
      <use xlink:href="#DejaVuSans-74" x="279.878906"/>
      <use xlink:href="#DejaVuSans-6f" x="319.087891"/>
      <use xlink:href="#DejaVuSans-72" x="380.269531"/>
      <use xlink:href="#DejaVuSans-20" x="421.382812"/>
      <use xlink:href="#DejaVuSans-76" x="453.169922"/>
      <use xlink:href="#DejaVuSans-61" x="512.349609"/>
      <use xlink:href="#DejaVuSans-6c" x="573.628906"/>
      <use xlink:href="#DejaVuSans-75" x="601.412109"/>
      <use xlink:href="#DejaVuSans-65" x="664.791016"/>
     </g>
    </g>
   </g>
   <g id="line2d_27">
    <path d="M 82.41 157.133201 
L 82.410068 157.133201 
L 82.500666 158.05623 
L 82.688945 158.97926 
L 82.954948 157.594716 
L 83.040777 157.363958 
L 83.238832 157.825473 
L 83.351739 157.825473 
L 83.474352 157.594716 
L 83.750743 158.286988 
L 84.071411 158.748502 
L 84.439932 158.748502 
L 85.330581 159.902289 
L 85.587729 160.825318 
L 86.451131 162.209862 
L 86.767882 162.440619 
L 87.101663 163.132891 
L 87.45077 163.594406 
L 87.815204 163.594406 
L 88.193262 163.363649 
L 88.998764 164.286678 
L 90.791984 167.286523 
L 91.779702 169.594096 
L 92.297403 170.517126 
L 92.83043 171.209398 
L 93.940762 173.055456 
L 94.51977 173.747728 
L 95.114104 174.670757 
L 95.723764 175.132272 
L 96.347049 175.824544 
L 96.987363 176.97833 
L 98.998562 179.978176 
L 100.410319 180.901205 
L 101.142593 180.901205 
L 101.891896 181.131962 
L 103.441593 180.670448 
L 104.224956 180.208933 
L 105.84277 179.747418 
L 106.677222 179.747418 
L 107.511674 179.978176 
L 109.231667 179.516661 
L 110.117207 179.516661 
L 111.888289 178.593632 
L 112.807889 178.362874 
L 113.727489 177.90136 
L 114.647089 177.670602 
L 116.520348 176.747573 
L 118.427667 176.747573 
L 120.369044 176.286059 
L 124.319919 174.44 
L 126.312385 172.593941 
L 128.321881 171.209398 
L 129.343659 170.97864 
L 131.370185 170.055611 
L 132.391963 169.824854 
L 133.413741 169.824854 
L 135.457296 169.363339 
L 136.479074 168.901824 
L 137.500852 168.671067 
L 141.587963 168.671067 
L 142.609741 169.594096 
L 144.653296 171.90167 
L 145.675074 172.824699 
L 147.71863 175.132272 
L 148.740407 176.516816 
L 149.762185 178.132117 
L 151.805741 180.901205 
L 152.827519 183.439535 
L 153.849296 186.670138 
L 154.871074 190.362255 
L 156.91463 200.054062 
L 158.958185 212.514957 
L 161.001741 227.283426 
L 163.045296 244.820982 
L 168.154185 290.049416 
L 169.175963 296.741378 
L 170.197741 301.818039 
L 171.219519 305.510156 
L 172.241296 308.279244 
L 173.263074 309.663788 
L 174.284852 309.894545 
L 288.809111 309.894545 
L 289.830889 309.663788 
L 290.852667 308.971516 
L 291.874444 307.586972 
L 292.896222 305.279399 
L 293.918 302.510311 
L 294.939778 299.048952 
L 295.961556 295.126077 
L 296.983333 290.741688 
L 298.005111 285.43427 
L 300.048667 273.434889 
L 306.179333 233.283116 
L 307.201111 227.74494 
L 309.244667 218.514648 
L 311.117926 212.2842 
L 312.139704 210.207384 
L 313.161481 208.592083 
L 314.183259 207.207539 
L 315.205037 206.28451 
L 316.226815 204.899966 
L 317.248593 204.207694 
L 320.313926 201.438606 
L 321.335704 200.977092 
L 322.357481 200.28482 
L 323.379259 199.823305 
L 324.401037 199.823305 
L 325.422815 200.28482 
L 327.46637 201.669363 
L 328.488148 202.130878 
L 329.509926 202.82315 
L 330.531704 203.053907 
L 332.575259 203.053907 
L 334.618815 201.669363 
L 335.640593 200.746334 
L 338.705926 198.669518 
L 339.727704 198.900276 
L 341.771259 200.746334 
L 342.793037 201.438606 
L 344.836593 202.361635 
L 346.880148 202.361635 
L 347.901926 201.900121 
L 348.923704 200.977092 
L 349.945481 199.823305 
L 353.010815 197.746489 
L 354.032593 197.977246 
L 355.05437 198.900276 
L 359.141481 201.669363 
L 361.185037 202.130878 
L 362.206815 201.669363 
L 364.25037 200.28482 
L 365.272148 199.823305 
L 366.293926 199.592548 
L 367.315704 199.131033 
L 368.337481 200.054062 
L 371.402815 203.515422 
L 372.424593 204.207694 
L 373.44637 204.438451 
L 374.468148 204.438451 
L 375.489926 204.669209 
L 376.511704 203.976937 
L 377.533481 203.515422 
L 379.577037 202.130878 
L 380.598815 202.361635 
L 381.620593 203.515422 
L 382.64237 204.899966 
L 383.664148 206.053753 
L 385.707704 207.899811 
L 387.751259 208.361326 
L 388.773037 207.899811 
L 390.816593 205.592238 
L 391.83837 204.899966 
L 392.860148 203.976937 
L 393.881926 204.207694 
L 397.969037 207.899811 
L 398.990815 207.899811 
L 401.03437 207.438296 
L 403.077926 205.130723 
L 405.121481 203.284665 
L 406.143259 203.515422 
L 408.186815 205.361481 
L 409.208593 206.515267 
L 410.23037 207.438296 
L 412.273926 207.438296 
L 413.295704 207.207539 
L 414.317481 206.053753 
L 415.339259 205.130723 
L 416.361037 203.976937 
L 417.382815 203.515422 
L 418.404593 203.976937 
L 421.469926 207.438296 
L 422.491704 208.130568 
L 424.535259 208.130568 
L 425.557037 207.438296 
L 427.600593 205.130723 
L 428.62237 204.207694 
L 429.644148 204.438451 
L 430.665926 205.130723 
L 431.687704 206.746024 
L 432.709481 208.130568 
L 433.731259 209.74587 
L 434.753037 210.899656 
L 436.796593 211.361171 
L 437.81837 210.668899 
L 439.861926 208.82284 
L 440.883704 208.361326 
L 441.905481 209.053598 
L 442.927259 210.668899 
L 444.970815 215.976317 
L 445.992593 218.514648 
L 448.036148 221.74525 
L 449.057926 223.822066 
L 451.101481 225.668125 
L 452.123259 227.052668 
L 454.166815 234.206145 
L 456.21037 245.051739 
L 457.232148 250.820672 
L 461.319259 268.819743 
L 462.341037 272.973375 
L 463.362815 277.819278 
L 464.384593 283.357454 
L 465.40637 288.203358 
L 466.428148 293.741533 
L 467.449926 298.587437 
L 468.471704 302.741069 
L 469.493481 306.202428 
L 470.515259 308.740759 
L 471.537037 309.894545 
L 538.463481 309.894545 
L 539.314963 308.740759 
L 539.655556 308.048487 
L 540.336741 308.048487 
L 540.507037 308.279244 
L 540.677333 308.740759 
L 541.017926 308.279244 
L 541.188222 307.81773 
L 541.188222 307.356215 
L 541.358519 306.433186 
L 541.699111 306.433186 
L 541.699111 307.125458 
L 541.869407 308.048487 
L 541.869407 307.81773 
L 541.869407 307.125458 
L 542.039704 306.8947 
L 542.039704 305.279399 
L 542.039704 305.279399 
L 542.21 305.279399 
L 542.21 307.125458 
L 542.21 303.664098 
L 542.21 304.587127 
" clip-path="url(#p777058a736)" style="fill: none; stroke: #1f77b4; stroke-width: 2; stroke-linecap: square"/>
   </g>
   <g id="line2d_28">
    <path d="M 82.41 309.894545 
L 447.01437 309.894545 
L 449.057926 309.433031 
L 452.123259 308.048487 
L 455.188593 308.048487 
L 456.21037 308.279244 
L 457.232148 308.740759 
L 458.253926 308.971516 
L 460.297481 308.048487 
L 461.319259 307.125458 
L 462.341037 305.740914 
L 463.362815 304.587127 
L 466.428148 304.587127 
L 468.471704 306.433186 
L 469.493481 306.433186 
L 470.515259 305.971671 
L 471.537037 305.279399 
L 472.558815 303.433341 
L 474.60237 299.279709 
L 476.645926 299.279709 
L 477.667704 299.971981 
L 479.711259 303.894855 
L 480.733037 303.894855 
L 481.754815 303.202583 
L 482.776593 302.741069 
L 485.841926 293.049261 
L 487.885481 293.049261 
L 488.907259 294.89532 
L 490.950815 300.433495 
L 491.972593 300.202738 
L 494.016148 298.35668 
L 496.059704 289.587902 
L 497.081481 288.434115 
L 499.125037 288.434115 
L 500.146815 291.895475 
L 501.168593 293.972291 
L 502.19037 297.664408 
L 503.041852 301.587282 
L 504.06363 305.740914 
L 505.085407 303.433341 
L 506.107185 297.202893 
L 507.980444 284.511241 
L 508.831926 279.43458 
L 510.705185 277.357764 
L 511.726963 276.434734 
L 512.578444 278.050036 
L 513.429926 282.895939 
L 514.281407 287.049571 
L 515.303185 286.588056 
L 516.154667 284.972755 
L 517.85763 271.358073 
L 518.709111 263.743082 
L 519.390296 262.358538 
L 520.241778 261.204751 
L 521.093259 260.281722 
L 522.625926 269.97353 
L 523.307111 269.512015 
L 524.839778 266.51217 
L 526.202148 251.512944 
L 528.245704 247.59007 
L 529.437778 258.204906 
L 529.948667 256.820362 
L 530.629852 256.12809 
L 531.140741 254.282032 
L 532.162519 239.052049 
L 533.695185 235.359932 
L 534.716963 246.897798 
L 535.057556 245.744011 
L 535.568444 244.590225 
L 535.909037 243.436438 
L 536.419926 235.359932 
L 536.760519 227.74494 
L 537.782296 223.591309 
L 538.463481 234.898417 
L 538.633778 232.590844 
L 539.314963 229.129484 
L 539.655556 212.976472 
L 539.996148 211.822685 
L 540.336741 209.284355 
L 540.677333 221.976007 
L 541.017926 218.976162 
L 541.188222 217.822376 
L 541.188222 209.976627 
L 541.358519 202.130878 
L 541.528815 201.438606 
L 541.528815 200.515577 
L 541.699111 199.592548 
L 541.699111 206.976782 
L 541.869407 213.437987 
L 541.869407 210.899656 
L 542.039704 210.207384 
L 542.039704 194.515887 
L 542.21 194.054372 
L 542.21 209.284355 
L 542.21 185.516351 
L 542.21 189.439226 
" clip-path="url(#p777058a736)" style="fill: none; stroke: #ff7f0e; stroke-width: 2; stroke-linecap: square"/>
   </g>
   <g id="line2d_29">
    <path d="M 82.41 309.894545 
L 461.319259 309.894545 
L 462.341037 309.663788 
L 468.471704 309.663788 
L 469.493481 308.740759 
L 470.515259 308.048487 
L 472.558815 305.740914 
L 473.580593 304.817884 
L 476.645926 304.817884 
L 477.667704 305.740914 
L 479.711259 308.048487 
L 480.733037 307.125458 
L 481.754815 305.971671 
L 484.820148 299.048952 
L 487.885481 299.048952 
L 490.950815 305.279399 
L 492.99437 302.971826 
L 494.016148 299.510466 
L 496.059704 291.43396 
L 499.125037 291.43396 
L 500.146815 293.049261 
L 501.168593 295.356834 
L 502.19037 298.587437 
L 504.06363 305.740914 
L 506.107185 294.664562 
L 506.958667 289.126387 
L 507.980444 284.972755 
L 508.831926 280.357609 
L 509.853704 279.43458 
L 510.705185 278.51155 
L 511.726963 277.588521 
L 514.281407 288.89563 
L 516.154667 285.895784 
L 518.709111 266.51217 
L 519.390296 265.358383 
L 521.093259 263.05081 
L 521.774444 266.973684 
L 522.625926 271.127316 
L 524.839778 266.050655 
L 526.202148 251.974459 
L 526.883333 250.820672 
L 528.245704 248.282342 
L 528.756593 252.666731 
L 529.437778 257.281877 
L 530.629852 254.512789 
L 531.140741 252.666731 
L 531.65163 244.590225 
L 532.162519 238.821292 
L 533.695185 235.129175 
L 534.716963 244.590225 
L 535.568444 241.821137 
L 535.909037 238.359777 
L 536.419926 230.283271 
L 536.760519 221.74525 
L 537.782296 217.822376 
L 538.463481 227.975698 
L 538.633778 226.591154 
L 539.314963 224.745095 
L 539.655556 211.591928 
L 540.336741 208.361326 
L 540.677333 220.129949 
L 540.84763 218.976162 
L 541.017926 218.745405 
L 541.188222 215.053288 
L 541.188222 207.669054 
L 541.358519 204.669209 
L 541.528815 203.976937 
L 541.528815 203.284665 
L 541.699111 202.592393 
L 541.699111 208.82284 
L 541.869407 214.591773 
L 541.869407 213.899501 
L 542.039704 208.82284 
L 542.039704 197.977246 
L 542.21 197.515732 
L 542.21 209.74587 
L 542.21 188.516196 
L 542.21 191.977556 
" clip-path="url(#p777058a736)" style="fill: none; stroke: #2ca02c; stroke-width: 2; stroke-linecap: square"/>
   </g>
   <g id="line2d_30">
    <path d="M 82.41 173.516971 
L 82.411839 173.286213 
L 82.478119 174.901515 
L 82.500666 174.901515 
L 82.596985 174.44 
L 82.688945 174.670757 
L 82.877293 173.747728 
L 82.954948 173.747728 
L 83.238832 173.286213 
L 83.351739 173.516971 
L 83.474352 173.286213 
L 83.607183 173.516971 
L 83.750743 173.286213 
L 84.2492 173.286213 
L 84.439932 173.055456 
L 84.642584 172.593941 
L 84.857158 173.055456 
L 86.451131 171.440155 
L 86.767882 171.440155 
L 87.101663 170.517126 
L 87.815204 170.055611 
L 88.193262 170.055611 
L 88.998764 168.44031 
L 89.424504 168.209552 
L 89.863869 166.825009 
L 90.320263 167.055766 
L 90.791984 166.132737 
L 91.279031 165.440465 
L 91.779702 164.286678 
L 93.378784 162.209862 
L 93.940762 161.748348 
L 94.51977 160.133046 
L 95.114104 159.440774 
L 95.723764 158.286988 
L 96.987363 157.363958 
L 98.313971 155.979415 
L 98.998562 154.825628 
L 101.142593 153.441084 
L 101.891896 152.748812 
L 102.65823 152.748812 
L 103.441593 151.825783 
L 105.025348 151.825783 
L 105.84277 152.05654 
L 106.677222 151.825783 
L 107.511674 152.05654 
L 108.363156 152.05654 
L 109.231667 151.825783 
L 110.117207 152.05654 
L 111.002748 152.05654 
L 111.888289 152.287298 
L 112.807889 152.05654 
L 113.727489 152.518055 
L 114.647089 153.441084 
L 115.583719 153.902599 
L 116.520348 154.133356 
L 117.474007 155.056385 
L 118.427667 155.748657 
L 119.398356 156.671687 
L 120.369044 157.363958 
L 121.339733 157.825473 
L 122.327452 157.825473 
L 123.31517 158.748502 
L 124.319919 159.210017 
L 125.307637 159.902289 
L 128.321881 160.594561 
L 129.343659 161.286833 
L 130.365437 161.748348 
L 132.391963 162.209862 
L 134.435519 163.132891 
L 135.457296 163.132891 
L 136.479074 163.363649 
L 137.500852 163.825163 
L 138.52263 163.825163 
L 140.566185 164.286678 
L 141.587963 164.055921 
L 142.609741 164.055921 
L 144.653296 164.97895 
L 145.675074 164.748193 
L 148.740407 166.132737 
L 149.762185 166.825009 
L 150.783963 167.055766 
L 151.805741 167.51728 
L 152.827519 167.748038 
L 153.849296 168.44031 
L 154.871074 168.671067 
L 155.892852 169.132582 
L 156.91463 169.824854 
L 157.936407 170.747883 
L 158.958185 172.132427 
L 159.979963 173.286213 
L 162.023519 177.439845 
L 163.045296 180.208933 
L 164.067074 183.439535 
L 166.11063 191.746799 
L 167.132407 197.284974 
L 168.154185 203.515422 
L 170.197741 218.053133 
L 172.241296 234.436903 
L 178.371963 288.89563 
L 179.393741 295.587592 
L 180.415519 301.125767 
L 181.437296 305.279399 
L 182.459074 308.048487 
L 183.480852 309.433031 
L 184.50263 309.894545 
L 299.026889 309.894545 
L 300.048667 309.663788 
L 301.070444 308.740759 
L 302.092222 307.586972 
L 303.114 305.971671 
L 304.135778 303.894855 
L 306.179333 297.895165 
L 307.201111 294.203048 
L 309.244667 285.665027 
L 310.266444 281.049881 
L 312.139704 271.358073 
L 314.183259 261.897023 
L 316.226815 250.359158 
L 318.27037 240.436593 
L 319.292148 235.821446 
L 320.313926 232.360087 
L 321.335704 230.283271 
L 322.357481 228.898727 
L 323.379259 230.052514 
L 324.401037 233.283116 
L 325.422815 238.12902 
L 326.444593 245.282497 
L 328.488148 263.743082 
L 330.531704 282.665182 
L 331.553481 290.972445 
L 332.575259 297.895165 
L 333.597037 303.202583 
L 334.618815 306.8947 
L 335.640593 309.202274 
L 336.66237 309.894545 
L 457.232148 309.894545 
L 458.253926 308.510002 
L 459.275704 306.663943 
L 460.297481 303.433341 
L 461.319259 298.818194 
L 462.341037 293.049261 
L 464.384593 278.050036 
L 466.428148 259.820208 
L 468.471704 236.513718 
L 471.537037 193.592857 
L 474.60237 148.364423 
L 475.624148 137.057315 
L 476.645926 127.596265 
L 477.667704 121.365817 
L 478.689481 116.519913 
L 479.711259 113.981583 
L 480.733037 110.981738 
L 481.754815 108.904922 
L 482.776593 107.520378 
L 483.79837 105.443562 
L 484.820148 104.059018 
L 485.841926 103.597503 
L 486.863704 102.905232 
L 487.885481 101.751445 
L 488.907259 102.443717 
L 489.929037 103.366746 
L 490.950815 103.828261 
L 491.972593 102.21296 
L 492.99437 100.828416 
L 496.059704 92.521152 
L 497.081481 91.136608 
L 498.103259 90.213579 
L 499.125037 89.059792 
L 500.146815 89.521307 
L 501.168593 89.059792 
L 502.19037 89.982822 
L 503.041852 90.905851 
L 504.06363 91.82888 
L 506.107185 85.367675 
L 506.958667 81.906316 
L 508.831926 76.36814 
L 510.705185 74.291324 
L 511.726963 73.82981 
L 514.281407 79.598742 
L 516.154667 77.060412 
L 518.709111 65.522546 
L 519.390296 64.368759 
L 520.241778 63.44573 
L 521.093259 63.44573 
L 522.625926 68.753149 
L 523.307111 67.830119 
L 524.839778 66.445575 
L 525.520963 63.676488 
L 526.202148 59.98437 
L 526.883333 59.061341 
L 527.564519 59.061341 
L 528.245704 58.599827 
L 529.437778 66.90709 
L 529.948667 66.90709 
L 530.629852 66.214818 
L 531.140741 66.445575 
L 532.162519 60.215128 
L 532.673407 60.9074 
L 533.184296 61.368914 
L 533.695185 61.138157 
L 534.716963 69.676178 
L 535.057556 69.214663 
L 535.568444 68.753149 
L 535.909037 68.060877 
L 536.419926 63.214973 
L 536.760519 58.599827 
L 537.782296 55.369224 
L 538.463481 63.214973 
L 538.633778 62.061186 
L 539.314963 60.445885 
L 539.655556 50.061806 
L 540.166444 49.600291 
L 540.336741 49.138777 
L 540.677333 58.830584 
L 541.017926 57.215283 
L 541.188222 56.753768 
L 541.188222 51.215592 
L 541.358519 44.754387 
L 541.528815 44.062116 
L 541.528815 42.446814 
L 541.699111 42.446814 
L 541.699111 47.061961 
L 541.869407 51.907864 
L 541.869407 51.215592 
L 542.039704 51.907864 
L 542.039704 41.523785 
L 542.039704 42.216057 
L 542.21 42.216057 
L 542.21 54.446195 
L 542.21 38.985455 
L 542.21 42.446814 
" clip-path="url(#p777058a736)" style="fill: none; stroke: #d62728; stroke-width: 2; stroke-linecap: square"/>
   </g>
   <g id="patch_3">
    <path d="M 59.42 323.44 
L 59.42 25.44 
" style="fill: none; stroke: #000000; stroke-width: 0.8; stroke-linejoin: miter; stroke-linecap: square"/>
   </g>
   <g id="patch_4">
    <path d="M 565.2 323.44 
L 565.2 25.44 
" style="fill: none; stroke: #000000; stroke-width: 0.8; stroke-linejoin: miter; stroke-linecap: square"/>
   </g>
   <g id="patch_5">
    <path d="M 59.42 323.44 
L 565.2 323.44 
" style="fill: none; stroke: #000000; stroke-width: 0.8; stroke-linejoin: miter; stroke-linecap: square"/>
   </g>
   <g id="patch_6">
    <path d="M 59.42 25.44 
L 565.2 25.44 
" style="fill: none; stroke: #000000; stroke-width: 0.8; stroke-linejoin: miter; stroke-linecap: square"/>
   </g>
   <g id="text_16">
    <!-- Reflector Value -->
    <g transform="translate(267.074687 19.44)scale(0.12 -0.12)">
     <defs>
      <path id="DejaVuSans-52" d="M 2841 2188 
Q 3044 2119 3236 1894 
Q 3428 1669 3622 1275 
L 4263 0 
L 3584 0 
L 2988 1197 
Q 2756 1666 2539 1819 
Q 2322 1972 1947 1972 
L 1259 1972 
L 1259 0 
L 628 0 
L 628 4666 
L 2053 4666 
Q 2853 4666 3247 4331 
Q 3641 3997 3641 3322 
Q 3641 2881 3436 2590 
Q 3231 2300 2841 2188 
z
M 1259 4147 
L 1259 2491 
L 2053 2491 
Q 2509 2491 2742 2702 
Q 2975 2913 2975 3322 
Q 2975 3731 2742 3939 
Q 2509 4147 2053 4147 
L 1259 4147 
z
" transform="scale(0.015625)"/>
      <path id="DejaVuSans-56" d="M 1831 0 
L 50 4666 
L 709 4666 
L 2188 738 
L 3669 4666 
L 4325 4666 
L 2547 0 
L 1831 0 
z
" transform="scale(0.015625)"/>
     </defs>
     <use xlink:href="#DejaVuSans-52"/>
     <use xlink:href="#DejaVuSans-65" x="64.982422"/>
     <use xlink:href="#DejaVuSans-66" x="126.505859"/>
     <use xlink:href="#DejaVuSans-6c" x="161.710938"/>
     <use xlink:href="#DejaVuSans-65" x="189.494141"/>
     <use xlink:href="#DejaVuSans-63" x="251.017578"/>
     <use xlink:href="#DejaVuSans-74" x="305.998047"/>
     <use xlink:href="#DejaVuSans-6f" x="345.207031"/>
     <use xlink:href="#DejaVuSans-72" x="406.388672"/>
     <use xlink:href="#DejaVuSans-20" x="447.501953"/>
     <use xlink:href="#DejaVuSans-56" x="479.289062"/>
     <use xlink:href="#DejaVuSans-61" x="539.947266"/>
     <use xlink:href="#DejaVuSans-6c" x="601.226562"/>
     <use xlink:href="#DejaVuSans-75" x="629.009766"/>
     <use xlink:href="#DejaVuSans-65" x="692.388672"/>
    </g>
   </g>
   <g id="legend_1">
    <g id="patch_7">
     <path d="M 66.42 48.118125 
L 291.660625 48.118125 
Q 293.660625 48.118125 293.660625 46.118125 
L 293.660625 32.44 
Q 293.660625 30.44 291.660625 30.44 
L 66.42 30.44 
Q 64.42 30.44 64.42 32.44 
L 64.42 46.118125 
Q 64.42 48.118125 66.42 48.118125 
z
" style="fill: #ffffff; opacity: 0.8; stroke: #cccccc; stroke-linejoin: miter"/>
    </g>
    <g id="line2d_31">
     <path d="M 68.42 38.538438 
L 78.42 38.538438 
L 88.42 38.538438 
" style="fill: none; stroke: #1f77b4; stroke-width: 2; stroke-linecap: square"/>
    </g>
    <g id="text_17">
     <!-- SL -->
     <g transform="translate(96.42 42.038438)scale(0.1 -0.1)">
      <defs>
       <path id="DejaVuSans-53" d="M 3425 4513 
L 3425 3897 
Q 3066 4069 2747 4153 
Q 2428 4238 2131 4238 
Q 1616 4238 1336 4038 
Q 1056 3838 1056 3469 
Q 1056 3159 1242 3001 
Q 1428 2844 1947 2747 
L 2328 2669 
Q 3034 2534 3370 2195 
Q 3706 1856 3706 1288 
Q 3706 609 3251 259 
Q 2797 -91 1919 -91 
Q 1588 -91 1214 -16 
Q 841 59 441 206 
L 441 856 
Q 825 641 1194 531 
Q 1563 422 1919 422 
Q 2459 422 2753 634 
Q 3047 847 3047 1241 
Q 3047 1584 2836 1778 
Q 2625 1972 2144 2069 
L 1759 2144 
Q 1053 2284 737 2584 
Q 422 2884 422 3419 
Q 422 4038 858 4394 
Q 1294 4750 2059 4750 
Q 2388 4750 2728 4690 
Q 3069 4631 3425 4513 
z
" transform="scale(0.015625)"/>
       <path id="DejaVuSans-4c" d="M 628 4666 
L 1259 4666 
L 1259 531 
L 3531 531 
L 3531 0 
L 628 0 
L 628 4666 
z
" transform="scale(0.015625)"/>
      </defs>
      <use xlink:href="#DejaVuSans-53"/>
      <use xlink:href="#DejaVuSans-4c" x="63.476562"/>
     </g>
    </g>
    <g id="line2d_32">
     <path d="M 128.340313 38.538438 
L 138.340313 38.538438 
L 148.340313 38.538438 
" style="fill: none; stroke: #ff7f0e; stroke-width: 2; stroke-linecap: square"/>
    </g>
    <g id="text_18">
     <!-- FL -->
     <g transform="translate(156.340313 42.038438)scale(0.1 -0.1)">
      <defs>
       <path id="DejaVuSans-46" d="M 628 4666 
L 3309 4666 
L 3309 4134 
L 1259 4134 
L 1259 2759 
L 3109 2759 
L 3109 2228 
L 1259 2228 
L 1259 0 
L 628 0 
L 628 4666 
z
" transform="scale(0.015625)"/>
      </defs>
      <use xlink:href="#DejaVuSans-46"/>
      <use xlink:href="#DejaVuSans-4c" x="57.519531"/>
     </g>
    </g>
    <g id="line2d_33">
     <path d="M 187.66375 38.538438 
L 197.66375 38.538438 
L 207.66375 38.538438 
" style="fill: none; stroke: #2ca02c; stroke-width: 2; stroke-linecap: square"/>
    </g>
    <g id="text_19">
     <!-- FR -->
     <g transform="translate(215.66375 42.038438)scale(0.1 -0.1)">
      <use xlink:href="#DejaVuSans-46"/>
      <use xlink:href="#DejaVuSans-52" x="57.519531"/>
     </g>
    </g>
    <g id="line2d_34">
     <path d="M 248.36375 38.538438 
L 258.36375 38.538438 
L 268.36375 38.538438 
" style="fill: none; stroke: #d62728; stroke-width: 2; stroke-linecap: square"/>
    </g>
    <g id="text_20">
     <!-- SR -->
     <g transform="translate(276.36375 42.038438)scale(0.1 -0.1)">
      <use xlink:href="#DejaVuSans-53"/>
      <use xlink:href="#DejaVuSans-52" x="63.476562"/>
     </g>
    </g>
   </g>
  </g>
  <g id="axes_2">
   <g id="patch_8">
    <path d="M 59.42 678.04 
L 565.2 678.04 
L 565.2 380.04 
L 59.42 380.04 
z
" style="fill: #ffffff"/>
   </g>
   <g id="matplotlib.axis_3">
    <g id="xtick_7">
     <g id="line2d_35">
      <path d="M 82.41 678.04 
L 82.41 380.04 
" clip-path="url(#p85ee154603)" style="fill: none; stroke: #b0b0b0; stroke-width: 0.8; stroke-linecap: square"/>
     </g>
     <g id="line2d_36">
      <g>
       <use xlink:href="#mb212e4b77f" x="82.41" y="678.04" style="stroke: #000000; stroke-width: 0.8"/>
      </g>
     </g>
     <g id="text_21">
      <!-- 0 -->
      <g transform="translate(79.22875 692.638438)scale(0.1 -0.1)">
       <use xlink:href="#DejaVuSans-30"/>
      </g>
     </g>
    </g>
    <g id="xtick_8">
     <g id="line2d_37">
      <path d="M 167.558148 678.04 
L 167.558148 380.04 
" clip-path="url(#p85ee154603)" style="fill: none; stroke: #b0b0b0; stroke-width: 0.8; stroke-linecap: square"/>
     </g>
     <g id="line2d_38">
      <g>
       <use xlink:href="#mb212e4b77f" x="167.558148" y="678.04" style="stroke: #000000; stroke-width: 0.8"/>
      </g>
     </g>
     <g id="text_22">
      <!-- 50 -->
      <g transform="translate(161.195648 692.638438)scale(0.1 -0.1)">
       <use xlink:href="#DejaVuSans-35"/>
       <use xlink:href="#DejaVuSans-30" x="63.623047"/>
      </g>
     </g>
    </g>
    <g id="xtick_9">
     <g id="line2d_39">
      <path d="M 252.706296 678.04 
L 252.706296 380.04 
" clip-path="url(#p85ee154603)" style="fill: none; stroke: #b0b0b0; stroke-width: 0.8; stroke-linecap: square"/>
     </g>
     <g id="line2d_40">
      <g>
       <use xlink:href="#mb212e4b77f" x="252.706296" y="678.04" style="stroke: #000000; stroke-width: 0.8"/>
      </g>
     </g>
     <g id="text_23">
      <!-- 100 -->
      <g transform="translate(243.162546 692.638438)scale(0.1 -0.1)">
       <use xlink:href="#DejaVuSans-31"/>
       <use xlink:href="#DejaVuSans-30" x="63.623047"/>
       <use xlink:href="#DejaVuSans-30" x="127.246094"/>
      </g>
     </g>
    </g>
    <g id="xtick_10">
     <g id="line2d_41">
      <path d="M 337.854444 678.04 
L 337.854444 380.04 
" clip-path="url(#p85ee154603)" style="fill: none; stroke: #b0b0b0; stroke-width: 0.8; stroke-linecap: square"/>
     </g>
     <g id="line2d_42">
      <g>
       <use xlink:href="#mb212e4b77f" x="337.854444" y="678.04" style="stroke: #000000; stroke-width: 0.8"/>
      </g>
     </g>
     <g id="text_24">
      <!-- 150 -->
      <g transform="translate(328.310694 692.638438)scale(0.1 -0.1)">
       <use xlink:href="#DejaVuSans-31"/>
       <use xlink:href="#DejaVuSans-35" x="63.623047"/>
       <use xlink:href="#DejaVuSans-30" x="127.246094"/>
      </g>
     </g>
    </g>
    <g id="xtick_11">
     <g id="line2d_43">
      <path d="M 423.002593 678.04 
L 423.002593 380.04 
" clip-path="url(#p85ee154603)" style="fill: none; stroke: #b0b0b0; stroke-width: 0.8; stroke-linecap: square"/>
     </g>
     <g id="line2d_44">
      <g>
       <use xlink:href="#mb212e4b77f" x="423.002593" y="678.04" style="stroke: #000000; stroke-width: 0.8"/>
      </g>
     </g>
     <g id="text_25">
      <!-- 200 -->
      <g transform="translate(413.458843 692.638438)scale(0.1 -0.1)">
       <use xlink:href="#DejaVuSans-32"/>
       <use xlink:href="#DejaVuSans-30" x="63.623047"/>
       <use xlink:href="#DejaVuSans-30" x="127.246094"/>
      </g>
     </g>
    </g>
    <g id="xtick_12">
     <g id="line2d_45">
      <path d="M 508.150741 678.04 
L 508.150741 380.04 
" clip-path="url(#p85ee154603)" style="fill: none; stroke: #b0b0b0; stroke-width: 0.8; stroke-linecap: square"/>
     </g>
     <g id="line2d_46">
      <g>
       <use xlink:href="#mb212e4b77f" x="508.150741" y="678.04" style="stroke: #000000; stroke-width: 0.8"/>
      </g>
     </g>
     <g id="text_26">
      <!-- 250 -->
      <g transform="translate(498.606991 692.638438)scale(0.1 -0.1)">
       <use xlink:href="#DejaVuSans-32"/>
       <use xlink:href="#DejaVuSans-35" x="63.623047"/>
       <use xlink:href="#DejaVuSans-30" x="127.246094"/>
      </g>
     </g>
    </g>
    <g id="text_27">
     <!-- x [mm] -->
     <g transform="translate(294.119375 706.316563)scale(0.1 -0.1)">
      <use xlink:href="#DejaVuSans-78"/>
      <use xlink:href="#DejaVuSans-20" x="59.179688"/>
      <use xlink:href="#DejaVuSans-5b" x="90.966797"/>
      <use xlink:href="#DejaVuSans-6d" x="129.980469"/>
      <use xlink:href="#DejaVuSans-6d" x="227.392578"/>
      <use xlink:href="#DejaVuSans-5d" x="324.804688"/>
     </g>
    </g>
   </g>
   <g id="matplotlib.axis_4">
    <g id="ytick_8">
     <g id="line2d_47">
      <path d="M 59.42 653.33097 
L 565.2 653.33097 
" clip-path="url(#p85ee154603)" style="fill: none; stroke: #b0b0b0; stroke-width: 0.8; stroke-linecap: square"/>
     </g>
     <g id="line2d_48">
      <g>
       <use xlink:href="#mb7bd9e3d9e" x="59.42" y="653.33097" style="stroke: #000000; stroke-width: 0.8"/>
      </g>
     </g>
     <g id="text_28">
      <!-- −100 -->
      <g transform="translate(24.952813 657.130189)scale(0.1 -0.1)">
       <defs>
        <path id="DejaVuSans-2212" d="M 678 2272 
L 4684 2272 
L 4684 1741 
L 678 1741 
L 678 2272 
z
" transform="scale(0.015625)"/>
       </defs>
       <use xlink:href="#DejaVuSans-2212"/>
       <use xlink:href="#DejaVuSans-31" x="83.789062"/>
       <use xlink:href="#DejaVuSans-30" x="147.412109"/>
       <use xlink:href="#DejaVuSans-30" x="211.035156"/>
      </g>
     </g>
    </g>
    <g id="ytick_9">
     <g id="line2d_49">
      <path d="M 59.42 605.826395 
L 565.2 605.826395 
" clip-path="url(#p85ee154603)" style="fill: none; stroke: #b0b0b0; stroke-width: 0.8; stroke-linecap: square"/>
     </g>
     <g id="line2d_50">
      <g>
       <use xlink:href="#mb7bd9e3d9e" x="59.42" y="605.826395" style="stroke: #000000; stroke-width: 0.8"/>
      </g>
     </g>
     <g id="text_29">
      <!-- −80 -->
      <g transform="translate(31.315313 609.625614)scale(0.1 -0.1)">
       <use xlink:href="#DejaVuSans-2212"/>
       <use xlink:href="#DejaVuSans-38" x="83.789062"/>
       <use xlink:href="#DejaVuSans-30" x="147.412109"/>
      </g>
     </g>
    </g>
    <g id="ytick_10">
     <g id="line2d_51">
      <path d="M 59.42 558.32182 
L 565.2 558.32182 
" clip-path="url(#p85ee154603)" style="fill: none; stroke: #b0b0b0; stroke-width: 0.8; stroke-linecap: square"/>
     </g>
     <g id="line2d_52">
      <g>
       <use xlink:href="#mb7bd9e3d9e" x="59.42" y="558.32182" style="stroke: #000000; stroke-width: 0.8"/>
      </g>
     </g>
     <g id="text_30">
      <!-- −60 -->
      <g transform="translate(31.315313 562.121039)scale(0.1 -0.1)">
       <use xlink:href="#DejaVuSans-2212"/>
       <use xlink:href="#DejaVuSans-36" x="83.789062"/>
       <use xlink:href="#DejaVuSans-30" x="147.412109"/>
      </g>
     </g>
    </g>
    <g id="ytick_11">
     <g id="line2d_53">
      <path d="M 59.42 510.817245 
L 565.2 510.817245 
" clip-path="url(#p85ee154603)" style="fill: none; stroke: #b0b0b0; stroke-width: 0.8; stroke-linecap: square"/>
     </g>
     <g id="line2d_54">
      <g>
       <use xlink:href="#mb7bd9e3d9e" x="59.42" y="510.817245" style="stroke: #000000; stroke-width: 0.8"/>
      </g>
     </g>
     <g id="text_31">
      <!-- −40 -->
      <g transform="translate(31.315313 514.616464)scale(0.1 -0.1)">
       <use xlink:href="#DejaVuSans-2212"/>
       <use xlink:href="#DejaVuSans-34" x="83.789062"/>
       <use xlink:href="#DejaVuSans-30" x="147.412109"/>
      </g>
     </g>
    </g>
    <g id="ytick_12">
     <g id="line2d_55">
      <path d="M 59.42 463.31267 
L 565.2 463.31267 
" clip-path="url(#p85ee154603)" style="fill: none; stroke: #b0b0b0; stroke-width: 0.8; stroke-linecap: square"/>
     </g>
     <g id="line2d_56">
      <g>
       <use xlink:href="#mb7bd9e3d9e" x="59.42" y="463.31267" style="stroke: #000000; stroke-width: 0.8"/>
      </g>
     </g>
     <g id="text_32">
      <!-- −20 -->
      <g transform="translate(31.315313 467.111889)scale(0.1 -0.1)">
       <use xlink:href="#DejaVuSans-2212"/>
       <use xlink:href="#DejaVuSans-32" x="83.789062"/>
       <use xlink:href="#DejaVuSans-30" x="147.412109"/>
      </g>
     </g>
    </g>
    <g id="ytick_13">
     <g id="line2d_57">
      <path d="M 59.42 415.808095 
L 565.2 415.808095 
" clip-path="url(#p85ee154603)" style="fill: none; stroke: #b0b0b0; stroke-width: 0.8; stroke-linecap: square"/>
     </g>
     <g id="line2d_58">
      <g>
       <use xlink:href="#mb7bd9e3d9e" x="59.42" y="415.808095" style="stroke: #000000; stroke-width: 0.8"/>
      </g>
     </g>
     <g id="text_33">
      <!-- 0 -->
      <g transform="translate(46.0575 419.607314)scale(0.1 -0.1)">
       <use xlink:href="#DejaVuSans-30"/>
      </g>
     </g>
    </g>
    <g id="text_34">
     <!-- wall distance [mm] -->
     <g transform="translate(18.873125 576.978281)rotate(-90)scale(0.1 -0.1)">
      <defs>
       <path id="DejaVuSans-77" d="M 269 3500 
L 844 3500 
L 1563 769 
L 2278 3500 
L 2956 3500 
L 3675 769 
L 4391 3500 
L 4966 3500 
L 4050 0 
L 3372 0 
L 2619 2869 
L 1863 0 
L 1184 0 
L 269 3500 
z
" transform="scale(0.015625)"/>
       <path id="DejaVuSans-64" d="M 2906 2969 
L 2906 4863 
L 3481 4863 
L 3481 0 
L 2906 0 
L 2906 525 
Q 2725 213 2448 61 
Q 2172 -91 1784 -91 
Q 1150 -91 751 415 
Q 353 922 353 1747 
Q 353 2572 751 3078 
Q 1150 3584 1784 3584 
Q 2172 3584 2448 3432 
Q 2725 3281 2906 2969 
z
M 947 1747 
Q 947 1113 1208 752 
Q 1469 391 1925 391 
Q 2381 391 2643 752 
Q 2906 1113 2906 1747 
Q 2906 2381 2643 2742 
Q 2381 3103 1925 3103 
Q 1469 3103 1208 2742 
Q 947 2381 947 1747 
z
" transform="scale(0.015625)"/>
       <path id="DejaVuSans-69" d="M 603 3500 
L 1178 3500 
L 1178 0 
L 603 0 
L 603 3500 
z
M 603 4863 
L 1178 4863 
L 1178 4134 
L 603 4134 
L 603 4863 
z
" transform="scale(0.015625)"/>
       <path id="DejaVuSans-73" d="M 2834 3397 
L 2834 2853 
Q 2591 2978 2328 3040 
Q 2066 3103 1784 3103 
Q 1356 3103 1142 2972 
Q 928 2841 928 2578 
Q 928 2378 1081 2264 
Q 1234 2150 1697 2047 
L 1894 2003 
Q 2506 1872 2764 1633 
Q 3022 1394 3022 966 
Q 3022 478 2636 193 
Q 2250 -91 1575 -91 
Q 1294 -91 989 -36 
Q 684 19 347 128 
L 347 722 
Q 666 556 975 473 
Q 1284 391 1588 391 
Q 1994 391 2212 530 
Q 2431 669 2431 922 
Q 2431 1156 2273 1281 
Q 2116 1406 1581 1522 
L 1381 1569 
Q 847 1681 609 1914 
Q 372 2147 372 2553 
Q 372 3047 722 3315 
Q 1072 3584 1716 3584 
Q 2034 3584 2315 3537 
Q 2597 3491 2834 3397 
z
" transform="scale(0.015625)"/>
       <path id="DejaVuSans-6e" d="M 3513 2113 
L 3513 0 
L 2938 0 
L 2938 2094 
Q 2938 2591 2744 2837 
Q 2550 3084 2163 3084 
Q 1697 3084 1428 2787 
Q 1159 2491 1159 1978 
L 1159 0 
L 581 0 
L 581 3500 
L 1159 3500 
L 1159 2956 
Q 1366 3272 1645 3428 
Q 1925 3584 2291 3584 
Q 2894 3584 3203 3211 
Q 3513 2838 3513 2113 
z
" transform="scale(0.015625)"/>
      </defs>
      <use xlink:href="#DejaVuSans-77"/>
      <use xlink:href="#DejaVuSans-61" x="81.787109"/>
      <use xlink:href="#DejaVuSans-6c" x="143.066406"/>
      <use xlink:href="#DejaVuSans-6c" x="170.849609"/>
      <use xlink:href="#DejaVuSans-20" x="198.632812"/>
      <use xlink:href="#DejaVuSans-64" x="230.419922"/>
      <use xlink:href="#DejaVuSans-69" x="293.896484"/>
      <use xlink:href="#DejaVuSans-73" x="321.679688"/>
      <use xlink:href="#DejaVuSans-74" x="373.779297"/>
      <use xlink:href="#DejaVuSans-61" x="412.988281"/>
      <use xlink:href="#DejaVuSans-6e" x="474.267578"/>
      <use xlink:href="#DejaVuSans-63" x="537.646484"/>
      <use xlink:href="#DejaVuSans-65" x="592.626953"/>
      <use xlink:href="#DejaVuSans-20" x="654.150391"/>
      <use xlink:href="#DejaVuSans-5b" x="685.9375"/>
      <use xlink:href="#DejaVuSans-6d" x="724.951172"/>
      <use xlink:href="#DejaVuSans-6d" x="822.363281"/>
      <use xlink:href="#DejaVuSans-5d" x="919.775391"/>
     </g>
    </g>
   </g>
   <g id="line2d_59">
    <path d="M 82.41 415.585441 
L 82.500666 415.678027 
L 82.6399 415.910752 
L 82.877293 415.81746 
L 83.238832 415.678027 
L 83.474352 415.724439 
L 83.607183 415.678027 
L 84.071411 415.864079 
L 84.857158 415.957497 
L 85.587729 416.145377 
L 86.148004 416.42898 
L 87.815204 416.907826 
L 88.998764 416.95628 
L 89.863869 417.198791 
L 92.83043 418.392344 
L 95.114104 419.109663 
L 96.347049 419.420818 
L 97.643004 419.843608 
L 100.410319 420.651186 
L 101.891896 420.760447 
L 103.441593 420.760447 
L 107.511674 420.487295 
L 109.231667 420.487295 
L 115.583719 420.002749 
L 117.474007 419.791353 
L 121.339733 419.684468 
L 126.312385 419.057408 
L 129.343659 418.544358 
L 141.587963 417.988555 
L 142.609741 417.988555 
L 146.696852 418.903018 
L 149.762185 419.736723 
L 152.827519 420.760447 
L 153.849296 421.368505 
L 155.892852 423.090546 
L 156.91463 424.294787 
L 157.936407 425.67717 
L 158.958185 427.394461 
L 159.979963 429.358775 
L 161.001741 431.691249 
L 162.023519 434.387134 
L 163.045296 437.71958 
L 164.067074 441.674336 
L 165.088852 446.353537 
L 166.11063 452.172847 
L 167.132407 459.346038 
L 168.154185 467.706843 
L 169.175963 477.825318 
L 170.197741 490.247764 
L 171.219519 504.879173 
L 172.241296 522.883407 
L 173.263074 550.982363 
L 174.284852 593.451453 
L 175.30663 614.709751 
L 289.830889 614.709751 
L 290.852667 593.451453 
L 291.874444 565.376249 
L 292.896222 541.220173 
L 293.918 521.387013 
L 294.939778 507.539429 
L 295.961556 496.067074 
L 296.983333 486.756178 
L 299.026889 471.483457 
L 300.048667 464.809064 
L 302.092222 454.215544 
L 304.135778 445.9735 
L 306.179333 439.282481 
L 307.201111 436.691106 
L 308.222889 434.558151 
L 309.244667 432.805232 
L 311.117926 430.166353 
L 312.139704 429.287518 
L 313.161481 428.643831 
L 315.205037 427.736494 
L 316.226815 427.463342 
L 317.248593 427.057178 
L 319.292148 426.589258 
L 321.335704 426.064333 
L 325.422815 425.613039 
L 327.46637 425.93607 
L 330.531704 426.458621 
L 332.575259 426.522752 
L 333.597037 426.522752 
L 339.727704 425.294758 
L 340.749481 425.356514 
L 343.814815 426.064333 
L 345.85837 426.325608 
L 347.901926 426.325608 
L 348.923704 426.19497 
L 353.010815 425.230627 
L 354.032593 425.040609 
L 355.05437 425.10474 
L 357.097926 425.548908 
L 360.163259 426.130839 
L 362.206815 426.261477 
L 364.25037 425.93607 
L 366.293926 425.613039 
L 368.337481 425.420646 
L 370.381037 426.000201 
L 372.424593 426.655765 
L 373.44637 426.855284 
L 376.511704 426.990672 
L 380.598815 426.261477 
L 381.620593 426.325608 
L 386.729481 427.943138 
L 388.773037 428.080902 
L 389.794815 427.943138 
L 391.83837 427.259073 
L 393.881926 426.788777 
L 394.903704 426.855284 
L 398.990815 427.943138 
L 401.03437 427.874257 
L 402.056148 427.805375 
L 405.121481 426.855284 
L 406.143259 426.589258 
L 407.165037 426.655765 
L 411.252148 427.805375 
L 414.317481 427.736494 
L 417.382815 426.788777 
L 418.404593 426.655765 
L 419.42637 426.788777 
L 423.513481 428.01202 
L 425.557037 428.01202 
L 426.578815 427.805375 
L 429.644148 426.855284 
L 430.665926 426.92179 
L 431.687704 427.123685 
L 434.753037 428.501317 
L 435.774815 428.855226 
L 437.81837 429.000115 
L 439.861926 428.501317 
L 440.883704 428.22104 
L 441.905481 428.080902 
L 442.927259 428.289922 
L 443.949037 428.783969 
L 447.01437 431.304087 
L 449.057926 432.403818 
L 450.079704 433.133013 
L 452.123259 433.795702 
L 453.145037 434.301626 
L 455.188593 437.061642 
L 456.21037 439.282481 
L 457.232148 441.793097 
L 458.253926 444.61962 
L 460.297481 449.821371 
L 461.319259 453.099186 
L 462.341037 455.711938 
L 463.362815 458.966001 
L 464.384593 463.241413 
L 466.428148 475.141309 
L 467.449926 484.048417 
L 468.471704 494.808203 
L 469.493481 508.489521 
L 470.515259 527.871387 
L 471.537037 559.794462 
L 472.558815 614.709751 
L 538.633778 614.709751 
L 539.655556 550.982363 
L 539.996148 547.372016 
L 540.507037 547.372016 
L 540.677333 550.982363 
L 540.84763 559.794462 
L 541.188222 550.982363 
L 541.188222 544.141704 
L 541.699111 529.724066 
L 541.699111 529.724066 
L 541.869407 536.089679 
L 541.869407 547.372016 
L 541.869407 544.141704 
L 542.039704 533.809459 
L 542.039704 521.387013 
L 542.039704 521.387013 
L 542.21 521.387013 
L 542.21 521.387013 
L 542.21 536.089679 
L 542.21 512.574914 
L 542.21 517.301619 
" clip-path="url(#p85ee154603)" style="fill: none; stroke: #1f77b4; stroke-width: 2; stroke-linecap: square"/>
   </g>
   <g id="line2d_60">
    <path d="M 82.41 663.306931 
L 448.036148 663.306931 
L 449.057926 642.024881 
L 450.079704 629.578683 
L 451.101481 613.925925 
L 452.123259 603.617432 
L 453.145037 595.921691 
L 456.21037 595.921691 
L 457.232148 599.532039 
L 458.253926 608.344138 
L 459.275704 613.925925 
L 460.297481 603.617432 
L 461.319259 595.921691 
L 463.362815 573.024486 
L 464.384593 565.851295 
L 467.449926 565.851295 
L 468.471704 571.456835 
L 469.493481 578.273742 
L 470.515259 578.273742 
L 471.537037 574.663394 
L 472.558815 569.960441 
L 473.580593 560.055737 
L 474.60237 551.766189 
L 475.624148 545.258062 
L 477.667704 545.258062 
L 478.689481 547.277006 
L 479.711259 554.283931 
L 480.733037 562.240948 
L 481.754815 562.240948 
L 482.776593 559.010636 
L 483.79837 557.039197 
L 484.820148 545.923126 
L 485.841926 537.776091 
L 486.863704 531.339221 
L 488.907259 531.339221 
L 489.929037 534.85456 
L 490.950815 541.006402 
L 491.972593 548.702144 
L 492.99437 547.989575 
L 495.037926 542.764072 
L 496.059704 533.50068 
L 497.081481 525.686177 
L 498.103259 524.023517 
L 500.146815 524.023517 
L 501.168593 529.344029 
L 502.19037 533.049386 
L 503.041852 541.006402 
L 504.06363 552.597519 
L 505.085407 573.024486 
L 506.107185 560.055737 
L 506.958667 539.890045 
L 508.831926 518.916775 
L 509.853704 513.382492 
L 510.705185 512.242382 
L 512.578444 510.508465 
L 513.429926 512.028612 
L 514.281407 517.040344 
L 515.303185 522.123334 
L 516.154667 521.505774 
L 517.006148 519.48683 
L 517.85763 512.242382 
L 519.390296 500.722523 
L 520.241778 499.819936 
L 521.774444 498.51356 
L 522.625926 501.173816 
L 523.307111 505.140448 
L 524.158593 504.784164 
L 525.520963 502.598953 
L 526.883333 493.549332 
L 528.756593 491.55414 
L 529.437778 494.024378 
L 529.948667 497.254689 
L 530.629852 496.447111 
L 531.140741 496.067074 
L 531.65163 495.021974 
L 532.673407 487.635012 
L 534.206074 486.091114 
L 534.716963 488.656361 
L 535.057556 491.221608 
L 535.568444 490.675305 
L 535.909037 490.129003 
L 536.419926 489.5827 
L 537.101111 483.122078 
L 538.122889 481.601931 
L 538.463481 483.644628 
L 538.633778 485.901095 
L 539.485259 483.644628 
L 539.655556 480.723097 
L 539.996148 478.06284 
L 540.507037 476.922731 
L 540.84763 481.031876 
L 541.188222 479.630491 
L 541.528815 474.618759 
L 541.699111 474.357484 
L 541.699111 474.096208 
L 541.869407 476.233914 
L 541.869407 478.205354 
L 541.869407 477.564042 
L 542.039704 477.421529 
L 542.039704 472.789833 
L 542.21 472.599814 
L 542.21 476.922731 
L 542.21 470.438356 
L 542.21 471.4122 
" clip-path="url(#p85ee154603)" style="fill: none; stroke: #ff7f0e; stroke-width: 2; stroke-linecap: square"/>
   </g>
   <g id="line2d_61">
    <path d="M 82.41 664.494545 
L 462.341037 664.494545 
L 463.362815 643.212496 
L 469.493481 643.212496 
L 470.515259 609.555504 
L 472.558815 583.570502 
L 473.580593 574.2121 
L 474.60237 568.369038 
L 477.667704 568.369038 
L 478.689481 574.2121 
L 479.711259 583.570502 
L 480.733037 597.109306 
L 481.754815 585.850721 
L 482.776593 575.874761 
L 483.79837 562.335957 
L 485.841926 545.804365 
L 488.907259 545.804365 
L 490.950815 559.224407 
L 491.972593 571.148055 
L 492.99437 564.616176 
L 494.016148 559.224407 
L 495.037926 547.11074 
L 496.059704 537.491064 
L 497.081481 529.77157 
L 500.146815 529.77157 
L 501.168593 532.550588 
L 502.19037 536.992266 
L 503.041852 544.569246 
L 504.06363 555.495298 
L 505.085407 574.2121 
L 506.107185 549.177189 
L 506.958667 535.590881 
L 507.980444 526.208727 
L 508.831926 520.674444 
L 509.853704 515.520198 
L 510.705185 514.570106 
L 512.578444 512.788685 
L 513.429926 516.470289 
L 515.303185 525.876195 
L 516.154667 523.619728 
L 517.006148 521.814554 
L 517.85763 514.570106 
L 519.390296 503.81032 
L 521.774444 501.458844 
L 522.625926 504.142852 
L 523.307111 507.23065 
L 524.158593 505.995531 
L 525.520963 503.477788 
L 526.883333 494.998221 
L 528.245704 493.691846 
L 528.756593 493.098038 
L 529.437778 495.354506 
L 529.948667 497.919753 
L 530.629852 497.254689 
L 531.65163 495.354506 
L 532.162519 491.316617 
L 532.673407 488.75137 
L 534.206074 487.183719 
L 534.716963 489.036397 
L 535.057556 491.316617 
L 535.568444 490.794067 
L 535.909037 490.057746 
L 536.419926 488.537599 
L 537.101111 482.171986 
L 538.122889 480.841858 
L 538.463481 482.480766 
L 538.633778 484.404701 
L 539.485259 483.217087 
L 539.655556 480.533078 
L 540.166444 478.395372 
L 540.507037 477.84907 
L 540.84763 481.601931 
L 541.017926 481.221895 
L 541.188222 481.150638 
L 541.188222 479.915519 
L 541.528815 476.542694 
L 541.699111 476.352676 
L 541.699111 476.138905 
L 541.869407 477.967831 
L 541.869407 479.773005 
L 541.869407 479.630491 
L 542.039704 479.559235 
L 542.039704 474.998795 
L 542.21 474.73752 
L 542.21 478.252859 
L 542.21 472.386044 
L 542.21 473.193622 
" clip-path="url(#p85ee154603)" style="fill: none; stroke: #2ca02c; stroke-width: 2; stroke-linecap: square"/>
   </g>
   <g id="line2d_62">
    <path d="M 82.41 414.595778 
L 82.433365 414.699576 
L 82.527709 414.908121 
L 82.559656 414.855866 
L 82.688945 414.855866 
L 82.807301 414.751593 
L 82.954948 414.647558 
L 84.439932 414.543998 
L 85.087058 414.492456 
L 89.863869 413.428116 
L 90.320263 413.131212 
L 90.791984 413.178717 
L 92.83043 412.447146 
L 95.723764 411.589689 
L 96.347049 411.356916 
L 98.998562 410.893746 
L 99.695074 410.665725 
L 105.025348 410.079043 
L 113.727489 410.124172 
L 117.474007 410.527961 
L 121.339733 411.171648 
L 132.391963 412.109864 
L 149.762185 412.981573 
L 151.805741 413.178717 
L 158.958185 413.980831 
L 162.023519 415.012868 
L 163.045296 415.488864 
L 165.088852 416.906876 
L 167.132407 418.986151 
L 168.154185 420.454042 
L 169.175963 422.195085 
L 171.219519 426.689018 
L 172.241296 429.501289 
L 173.263074 432.693596 
L 174.284852 436.67923 
L 175.30663 441.389308 
L 176.328407 447.089857 
L 177.350185 453.930516 
L 178.371963 462.006294 
L 179.393741 471.649723 
L 180.415519 483.264591 
L 181.437296 497.967257 
L 182.459074 516.921583 
L 183.480852 542.906585 
L 185.524407 610.244321 
L 300.048667 610.244321 
L 301.070444 589.009776 
L 302.092222 555.329032 
L 303.114 536.754743 
L 304.135778 521.648288 
L 306.179333 497.183432 
L 308.222889 480.461821 
L 309.244667 473.359888 
L 311.117926 462.006294 
L 313.161481 453.194195 
L 314.183259 449.583848 
L 315.205037 446.49605 
L 317.248593 439.940419 
L 318.27037 437.434553 
L 320.313926 433.2589 
L 321.335704 431.864641 
L 322.357481 431.057063 
L 323.379259 430.529763 
L 324.401037 430.966805 
L 325.422815 432.230426 
L 326.444593 434.225619 
L 327.46637 437.434553 
L 328.488148 441.888107 
L 329.509926 447.707417 
L 330.531704 454.880608 
L 331.553481 463.763963 
L 332.575259 474.808777 
L 333.597037 488.561352 
L 334.618815 505.995531 
L 335.640593 529.367782 
L 337.684148 610.244321 
L 458.253926 610.244321 
L 459.275704 550.602327 
L 460.297481 527.253828 
L 461.319259 507.040631 
L 462.341037 490.960333 
L 463.362815 478.324116 
L 464.384593 467.611834 
L 465.40637 459.013506 
L 466.428148 451.602792 
L 468.471704 439.116215 
L 470.515259 428.183037 
L 472.558815 419.468322 
L 474.60237 412.207248 
L 475.624148 409.416354 
L 476.645926 407.345155 
L 477.667704 405.713373 
L 478.689481 404.684899 
L 479.711259 403.908199 
L 482.776593 402.725335 
L 486.863704 401.927258 
L 488.907259 401.656482 
L 491.972593 401.962886 
L 494.016148 401.521094 
L 497.081481 400.326354 
L 500.146815 399.844182 
L 501.168593 399.908313 
L 502.19037 399.844182 
L 505.085407 400.228969 
L 509.853704 398.131642 
L 511.726963 397.860866 
L 512.578444 397.801486 
L 515.303185 398.559184 
L 517.006148 398.224276 
L 518.709111 397.267059 
L 519.390296 396.742134 
L 521.093259 396.483234 
L 521.774444 396.483234 
L 522.625926 396.770636 
L 523.307111 397.150673 
L 525.520963 396.85852 
L 526.883333 396.055692 
L 528.245704 395.944057 
L 528.756593 395.887051 
L 529.437778 396.34072 
L 529.948667 396.915525 
L 531.65163 396.85852 
L 532.673407 396.084195 
L 533.695185 396.226709 
L 534.206074 396.198206 
L 535.057556 397.267059 
L 536.419926 397.062789 
L 537.101111 395.887051 
L 538.122889 395.495138 
L 538.463481 395.998687 
L 538.633778 396.454731 
L 539.485259 396.112698 
L 539.655556 395.495138 
L 539.996148 394.863328 
L 540.507037 394.756442 
L 540.84763 395.915554 
L 541.188222 395.66378 
L 541.699111 393.979743 
L 541.699111 393.979743 
L 541.869407 394.511794 
L 541.869407 395.081849 
L 541.869407 395.001091 
L 542.039704 395.001091 
L 542.039704 395.081849 
L 542.039704 393.872857 
L 542.21 393.953615 
L 542.21 393.953615 
L 542.21 395.385878 
L 542.21 393.585455 
L 542.21 393.979743 
" clip-path="url(#p85ee154603)" style="fill: none; stroke: #d62728; stroke-width: 2; stroke-linecap: square"/>
   </g>
   <g id="patch_9">
    <path d="M 59.42 678.04 
L 59.42 380.04 
" style="fill: none; stroke: #000000; stroke-width: 0.8; stroke-linejoin: miter; stroke-linecap: square"/>
   </g>
   <g id="patch_10">
    <path d="M 565.2 678.04 
L 565.2 380.04 
" style="fill: none; stroke: #000000; stroke-width: 0.8; stroke-linejoin: miter; stroke-linecap: square"/>
   </g>
   <g id="patch_11">
    <path d="M 59.42 678.04 
L 565.2 678.04 
" style="fill: none; stroke: #000000; stroke-width: 0.8; stroke-linejoin: miter; stroke-linecap: square"/>
   </g>
   <g id="patch_12">
    <path d="M 59.42 380.04 
L 565.2 380.04 
" style="fill: none; stroke: #000000; stroke-width: 0.8; stroke-linejoin: miter; stroke-linecap: square"/>
   </g>
   <g id="text_35">
    <!-- Wall Distance -->
    <g transform="translate(271.6075 374.04)scale(0.12 -0.12)">
     <defs>
      <path id="DejaVuSans-57" d="M 213 4666 
L 850 4666 
L 1831 722 
L 2809 4666 
L 3519 4666 
L 4500 722 
L 5478 4666 
L 6119 4666 
L 4947 0 
L 4153 0 
L 3169 4050 
L 2175 0 
L 1381 0 
L 213 4666 
z
" transform="scale(0.015625)"/>
      <path id="DejaVuSans-44" d="M 1259 4147 
L 1259 519 
L 2022 519 
Q 2988 519 3436 956 
Q 3884 1394 3884 2338 
Q 3884 3275 3436 3711 
Q 2988 4147 2022 4147 
L 1259 4147 
z
M 628 4666 
L 1925 4666 
Q 3281 4666 3915 4102 
Q 4550 3538 4550 2338 
Q 4550 1131 3912 565 
Q 3275 0 1925 0 
L 628 0 
L 628 4666 
z
" transform="scale(0.015625)"/>
     </defs>
     <use xlink:href="#DejaVuSans-57"/>
     <use xlink:href="#DejaVuSans-61" x="92.501953"/>
     <use xlink:href="#DejaVuSans-6c" x="153.78125"/>
     <use xlink:href="#DejaVuSans-6c" x="181.564453"/>
     <use xlink:href="#DejaVuSans-20" x="209.347656"/>
     <use xlink:href="#DejaVuSans-44" x="241.134766"/>
     <use xlink:href="#DejaVuSans-69" x="318.136719"/>
     <use xlink:href="#DejaVuSans-73" x="345.919922"/>
     <use xlink:href="#DejaVuSans-74" x="398.019531"/>
     <use xlink:href="#DejaVuSans-61" x="437.228516"/>
     <use xlink:href="#DejaVuSans-6e" x="498.507812"/>
     <use xlink:href="#DejaVuSans-63" x="561.886719"/>
     <use xlink:href="#DejaVuSans-65" x="616.867188"/>
    </g>
   </g>
   <g id="legend_2">
    <g id="patch_13">
     <path d="M 66.42 402.718125 
L 291.660625 402.718125 
Q 293.660625 402.718125 293.660625 400.718125 
L 293.660625 387.04 
Q 293.660625 385.04 291.660625 385.04 
L 66.42 385.04 
Q 64.42 385.04 64.42 387.04 
L 64.42 400.718125 
Q 64.42 402.718125 66.42 402.718125 
z
" style="fill: #ffffff; opacity: 0.8; stroke: #cccccc; stroke-linejoin: miter"/>
    </g>
    <g id="line2d_63">
     <path d="M 68.42 393.138438 
L 78.42 393.138438 
L 88.42 393.138438 
" style="fill: none; stroke: #1f77b4; stroke-width: 2; stroke-linecap: square"/>
    </g>
    <g id="text_36">
     <!-- SL -->
     <g transform="translate(96.42 396.638438)scale(0.1 -0.1)">
      <use xlink:href="#DejaVuSans-53"/>
      <use xlink:href="#DejaVuSans-4c" x="63.476562"/>
     </g>
    </g>
    <g id="line2d_64">
     <path d="M 128.340313 393.138438 
L 138.340313 393.138438 
L 148.340313 393.138438 
" style="fill: none; stroke: #ff7f0e; stroke-width: 2; stroke-linecap: square"/>
    </g>
    <g id="text_37">
     <!-- FL -->
     <g transform="translate(156.340313 396.638438)scale(0.1 -0.1)">
      <use xlink:href="#DejaVuSans-46"/>
      <use xlink:href="#DejaVuSans-4c" x="57.519531"/>
     </g>
    </g>
    <g id="line2d_65">
     <path d="M 187.66375 393.138438 
L 197.66375 393.138438 
L 207.66375 393.138438 
" style="fill: none; stroke: #2ca02c; stroke-width: 2; stroke-linecap: square"/>
    </g>
    <g id="text_38">
     <!-- FR -->
     <g transform="translate(215.66375 396.638438)scale(0.1 -0.1)">
      <use xlink:href="#DejaVuSans-46"/>
      <use xlink:href="#DejaVuSans-52" x="57.519531"/>
     </g>
    </g>
    <g id="line2d_66">
     <path d="M 248.36375 393.138438 
L 258.36375 393.138438 
L 268.36375 393.138438 
" style="fill: none; stroke: #d62728; stroke-width: 2; stroke-linecap: square"/>
    </g>
    <g id="text_39">
     <!-- SR -->
     <g transform="translate(276.36375 396.638438)scale(0.1 -0.1)">
      <use xlink:href="#DejaVuSans-53"/>
      <use xlink:href="#DejaVuSans-52" x="63.476562"/>
     </g>
    </g>
   </g>
  </g>
 </g>
 <defs>
  <clipPath id="p777058a736">
   <rect x="59.42" y="25.44" width="505.78" height="298"/>
  </clipPath>
  <clipPath id="p85ee154603">
   <rect x="59.42" y="380.04" width="505.78" height="298"/>
  </clipPath>
 </defs>
</svg>
