<?xml version="1.0" encoding="utf-8" standalone="no"?>
<!DOCTYPE svg PUBLIC "-//W3C//DTD SVG 1.1//EN"
  "http://www.w3.org/Graphics/SVG/1.1/DTD/svg11.dtd">
<svg xmlns:xlink="http://www.w3.org/1999/xlink" width="460.8pt" height="345.6pt" viewBox="0 0 460.8 345.6" xmlns="http://www.w3.org/2000/svg" version="1.1">
 <metadata>
  <rdf:RDF xmlns:dc="http://purl.org/dc/elements/1.1/" xmlns:cc="http://creativecommons.org/ns#" xmlns:rdf="http://www.w3.org/1999/02/22-rdf-syntax-ns#">
   <cc:Work>
    <dc:type rdf:resource="http://purl.org/dc/dcmitype/StillImage"/>
    <dc:date>2022-01-16T03:24:21.492503</dc:date>
    <dc:format>image/svg+xml</dc:format>
    <dc:creator>
     <cc:Agent>
      <dc:title>Matplotlib v3.5.1, https://matplotlib.org/</dc:title>
     </cc:Agent>
    </dc:creator>
   </cc:Work>
  </rdf:RDF>
 </metadata>
 <defs>
  <style type="text/css">*{stroke-linejoin: round; stroke-linecap: butt}</style>
 </defs>
 <g id="figure_1">
  <g id="patch_1">
   <path d="M 0 345.6 
L 460.8 345.6 
L 460.8 0 
L 0 0 
z
" style="fill: #ffffff"/>
  </g>
  <g id="axes_1">
   <g id="patch_2">
    <path d="M 50.565625 161.67875 
L 442.626962 161.67875 
L 442.626962 33.21375 
L 50.565625 33.21375 
z
" style="fill: #ffffff"/>
   </g>
   <g id="matplotlib.axis_1">
    <g id="xtick_1">
     <g id="line2d_1">
      <path d="M 68.386595 161.67875 
L 68.386595 33.21375 
" clip-path="url(#pcbbfa64af8)" style="fill: none; stroke: #b0b0b0; stroke-width: 0.8; stroke-linecap: square"/>
     </g>
     <g id="line2d_2">
      <defs>
       <path id="m89099837fb" d="M 0 0 
L 0 3.5 
" style="stroke: #000000; stroke-width: 0.8"/>
      </defs>
      <g>
       <use xlink:href="#m89099837fb" x="68.386595" y="161.67875" style="stroke: #000000; stroke-width: 0.8"/>
      </g>
     </g>
    </g>
    <g id="xtick_2">
     <g id="line2d_3">
      <path d="M 143.107643 161.67875 
L 143.107643 33.21375 
" clip-path="url(#pcbbfa64af8)" style="fill: none; stroke: #b0b0b0; stroke-width: 0.8; stroke-linecap: square"/>
     </g>
     <g id="line2d_4">
      <g>
       <use xlink:href="#m89099837fb" x="143.107643" y="161.67875" style="stroke: #000000; stroke-width: 0.8"/>
      </g>
     </g>
    </g>
    <g id="xtick_3">
     <g id="line2d_5">
      <path d="M 217.82869 161.67875 
L 217.82869 33.21375 
" clip-path="url(#pcbbfa64af8)" style="fill: none; stroke: #b0b0b0; stroke-width: 0.8; stroke-linecap: square"/>
     </g>
     <g id="line2d_6">
      <g>
       <use xlink:href="#m89099837fb" x="217.82869" y="161.67875" style="stroke: #000000; stroke-width: 0.8"/>
      </g>
     </g>
    </g>
    <g id="xtick_4">
     <g id="line2d_7">
      <path d="M 292.549738 161.67875 
L 292.549738 33.21375 
" clip-path="url(#pcbbfa64af8)" style="fill: none; stroke: #b0b0b0; stroke-width: 0.8; stroke-linecap: square"/>
     </g>
     <g id="line2d_8">
      <g>
       <use xlink:href="#m89099837fb" x="292.549738" y="161.67875" style="stroke: #000000; stroke-width: 0.8"/>
      </g>
     </g>
    </g>
    <g id="xtick_5">
     <g id="line2d_9">
      <path d="M 367.270786 161.67875 
L 367.270786 33.21375 
" clip-path="url(#pcbbfa64af8)" style="fill: none; stroke: #b0b0b0; stroke-width: 0.8; stroke-linecap: square"/>
     </g>
     <g id="line2d_10">
      <g>
       <use xlink:href="#m89099837fb" x="367.270786" y="161.67875" style="stroke: #000000; stroke-width: 0.8"/>
      </g>
     </g>
    </g>
    <g id="xtick_6">
     <g id="line2d_11">
      <path d="M 441.991833 161.67875 
L 441.991833 33.21375 
" clip-path="url(#pcbbfa64af8)" style="fill: none; stroke: #b0b0b0; stroke-width: 0.8; stroke-linecap: square"/>
     </g>
     <g id="line2d_12">
      <g>
       <use xlink:href="#m89099837fb" x="441.991833" y="161.67875" style="stroke: #000000; stroke-width: 0.8"/>
      </g>
     </g>
    </g>
   </g>
   <g id="matplotlib.axis_2">
    <g id="ytick_1">
     <g id="line2d_13">
      <path d="M 50.565625 154.49718 
L 442.626962 154.49718 
" clip-path="url(#pcbbfa64af8)" style="fill: none; stroke: #b0b0b0; stroke-width: 0.8; stroke-linecap: square"/>
     </g>
     <g id="line2d_14">
      <defs>
       <path id="mb8c69433c2" d="M 0 0 
L -3.5 0 
" style="stroke: #000000; stroke-width: 0.8"/>
      </defs>
      <g>
       <use xlink:href="#mb8c69433c2" x="50.565625" y="154.49718" style="stroke: #000000; stroke-width: 0.8"/>
      </g>
     </g>
     <g id="text_1">
      <!-- 0 -->
      <g transform="translate(37.203125 158.296399)scale(0.1 -0.1)">
       <defs>
        <path id="DejaVuSans-30" d="M 2034 4250 
Q 1547 4250 1301 3770 
Q 1056 3291 1056 2328 
Q 1056 1369 1301 889 
Q 1547 409 2034 409 
Q 2525 409 2770 889 
Q 3016 1369 3016 2328 
Q 3016 3291 2770 3770 
Q 2525 4250 2034 4250 
z
M 2034 4750 
Q 2819 4750 3233 4129 
Q 3647 3509 3647 2328 
Q 3647 1150 3233 529 
Q 2819 -91 2034 -91 
Q 1250 -91 836 529 
Q 422 1150 422 2328 
Q 422 3509 836 4129 
Q 1250 4750 2034 4750 
z
" transform="scale(0.015625)"/>
       </defs>
       <use xlink:href="#DejaVuSans-30"/>
      </g>
     </g>
    </g>
    <g id="ytick_2">
     <g id="line2d_15">
      <path d="M 50.565625 122.799181 
L 442.626962 122.799181 
" clip-path="url(#pcbbfa64af8)" style="fill: none; stroke: #b0b0b0; stroke-width: 0.8; stroke-linecap: square"/>
     </g>
     <g id="line2d_16">
      <g>
       <use xlink:href="#mb8c69433c2" x="50.565625" y="122.799181" style="stroke: #000000; stroke-width: 0.8"/>
      </g>
     </g>
     <g id="text_2">
      <!-- 200 -->
      <g transform="translate(24.478125 126.5984)scale(0.1 -0.1)">
       <defs>
        <path id="DejaVuSans-32" d="M 1228 531 
L 3431 531 
L 3431 0 
L 469 0 
L 469 531 
Q 828 903 1448 1529 
Q 2069 2156 2228 2338 
Q 2531 2678 2651 2914 
Q 2772 3150 2772 3378 
Q 2772 3750 2511 3984 
Q 2250 4219 1831 4219 
Q 1534 4219 1204 4116 
Q 875 4013 500 3803 
L 500 4441 
Q 881 4594 1212 4672 
Q 1544 4750 1819 4750 
Q 2544 4750 2975 4387 
Q 3406 4025 3406 3419 
Q 3406 3131 3298 2873 
Q 3191 2616 2906 2266 
Q 2828 2175 2409 1742 
Q 1991 1309 1228 531 
z
" transform="scale(0.015625)"/>
       </defs>
       <use xlink:href="#DejaVuSans-32"/>
       <use xlink:href="#DejaVuSans-30" x="63.623047"/>
       <use xlink:href="#DejaVuSans-30" x="127.246094"/>
      </g>
     </g>
    </g>
    <g id="ytick_3">
     <g id="line2d_17">
      <path d="M 50.565625 91.101182 
L 442.626962 91.101182 
" clip-path="url(#pcbbfa64af8)" style="fill: none; stroke: #b0b0b0; stroke-width: 0.8; stroke-linecap: square"/>
     </g>
     <g id="line2d_18">
      <g>
       <use xlink:href="#mb8c69433c2" x="50.565625" y="91.101182" style="stroke: #000000; stroke-width: 0.8"/>
      </g>
     </g>
     <g id="text_3">
      <!-- 400 -->
      <g transform="translate(24.478125 94.900401)scale(0.1 -0.1)">
       <defs>
        <path id="DejaVuSans-34" d="M 2419 4116 
L 825 1625 
L 2419 1625 
L 2419 4116 
z
M 2253 4666 
L 3047 4666 
L 3047 1625 
L 3713 1625 
L 3713 1100 
L 3047 1100 
L 3047 0 
L 2419 0 
L 2419 1100 
L 313 1100 
L 313 1709 
L 2253 4666 
z
" transform="scale(0.015625)"/>
       </defs>
       <use xlink:href="#DejaVuSans-34"/>
       <use xlink:href="#DejaVuSans-30" x="63.623047"/>
       <use xlink:href="#DejaVuSans-30" x="127.246094"/>
      </g>
     </g>
    </g>
    <g id="ytick_4">
     <g id="line2d_19">
      <path d="M 50.565625 59.403183 
L 442.626962 59.403183 
" clip-path="url(#pcbbfa64af8)" style="fill: none; stroke: #b0b0b0; stroke-width: 0.8; stroke-linecap: square"/>
     </g>
     <g id="line2d_20">
      <g>
       <use xlink:href="#mb8c69433c2" x="50.565625" y="59.403183" style="stroke: #000000; stroke-width: 0.8"/>
      </g>
     </g>
     <g id="text_4">
      <!-- 600 -->
      <g transform="translate(24.478125 63.202402)scale(0.1 -0.1)">
       <defs>
        <path id="DejaVuSans-36" d="M 2113 2584 
Q 1688 2584 1439 2293 
Q 1191 2003 1191 1497 
Q 1191 994 1439 701 
Q 1688 409 2113 409 
Q 2538 409 2786 701 
Q 3034 994 3034 1497 
Q 3034 2003 2786 2293 
Q 2538 2584 2113 2584 
z
M 3366 4563 
L 3366 3988 
Q 3128 4100 2886 4159 
Q 2644 4219 2406 4219 
Q 1781 4219 1451 3797 
Q 1122 3375 1075 2522 
Q 1259 2794 1537 2939 
Q 1816 3084 2150 3084 
Q 2853 3084 3261 2657 
Q 3669 2231 3669 1497 
Q 3669 778 3244 343 
Q 2819 -91 2113 -91 
Q 1303 -91 875 529 
Q 447 1150 447 2328 
Q 447 3434 972 4092 
Q 1497 4750 2381 4750 
Q 2619 4750 2861 4703 
Q 3103 4656 3366 4563 
z
" transform="scale(0.015625)"/>
       </defs>
       <use xlink:href="#DejaVuSans-36"/>
       <use xlink:href="#DejaVuSans-30" x="63.623047"/>
       <use xlink:href="#DejaVuSans-30" x="127.246094"/>
      </g>
     </g>
    </g>
    <g id="text_5">
     <!-- trans. vel. [mm/s] -->
     <g transform="translate(18.398438 142.011875)rotate(-90)scale(0.1 -0.1)">
      <defs>
       <path id="DejaVuSans-74" d="M 1172 4494 
L 1172 3500 
L 2356 3500 
L 2356 3053 
L 1172 3053 
L 1172 1153 
Q 1172 725 1289 603 
Q 1406 481 1766 481 
L 2356 481 
L 2356 0 
L 1766 0 
Q 1100 0 847 248 
Q 594 497 594 1153 
L 594 3053 
L 172 3053 
L 172 3500 
L 594 3500 
L 594 4494 
L 1172 4494 
z
" transform="scale(0.015625)"/>
       <path id="DejaVuSans-72" d="M 2631 2963 
Q 2534 3019 2420 3045 
Q 2306 3072 2169 3072 
Q 1681 3072 1420 2755 
Q 1159 2438 1159 1844 
L 1159 0 
L 581 0 
L 581 3500 
L 1159 3500 
L 1159 2956 
Q 1341 3275 1631 3429 
Q 1922 3584 2338 3584 
Q 2397 3584 2469 3576 
Q 2541 3569 2628 3553 
L 2631 2963 
z
" transform="scale(0.015625)"/>
       <path id="DejaVuSans-61" d="M 2194 1759 
Q 1497 1759 1228 1600 
Q 959 1441 959 1056 
Q 959 750 1161 570 
Q 1363 391 1709 391 
Q 2188 391 2477 730 
Q 2766 1069 2766 1631 
L 2766 1759 
L 2194 1759 
z
M 3341 1997 
L 3341 0 
L 2766 0 
L 2766 531 
Q 2569 213 2275 61 
Q 1981 -91 1556 -91 
Q 1019 -91 701 211 
Q 384 513 384 1019 
Q 384 1609 779 1909 
Q 1175 2209 1959 2209 
L 2766 2209 
L 2766 2266 
Q 2766 2663 2505 2880 
Q 2244 3097 1772 3097 
Q 1472 3097 1187 3025 
Q 903 2953 641 2809 
L 641 3341 
Q 956 3463 1253 3523 
Q 1550 3584 1831 3584 
Q 2591 3584 2966 3190 
Q 3341 2797 3341 1997 
z
" transform="scale(0.015625)"/>
       <path id="DejaVuSans-6e" d="M 3513 2113 
L 3513 0 
L 2938 0 
L 2938 2094 
Q 2938 2591 2744 2837 
Q 2550 3084 2163 3084 
Q 1697 3084 1428 2787 
Q 1159 2491 1159 1978 
L 1159 0 
L 581 0 
L 581 3500 
L 1159 3500 
L 1159 2956 
Q 1366 3272 1645 3428 
Q 1925 3584 2291 3584 
Q 2894 3584 3203 3211 
Q 3513 2838 3513 2113 
z
" transform="scale(0.015625)"/>
       <path id="DejaVuSans-73" d="M 2834 3397 
L 2834 2853 
Q 2591 2978 2328 3040 
Q 2066 3103 1784 3103 
Q 1356 3103 1142 2972 
Q 928 2841 928 2578 
Q 928 2378 1081 2264 
Q 1234 2150 1697 2047 
L 1894 2003 
Q 2506 1872 2764 1633 
Q 3022 1394 3022 966 
Q 3022 478 2636 193 
Q 2250 -91 1575 -91 
Q 1294 -91 989 -36 
Q 684 19 347 128 
L 347 722 
Q 666 556 975 473 
Q 1284 391 1588 391 
Q 1994 391 2212 530 
Q 2431 669 2431 922 
Q 2431 1156 2273 1281 
Q 2116 1406 1581 1522 
L 1381 1569 
Q 847 1681 609 1914 
Q 372 2147 372 2553 
Q 372 3047 722 3315 
Q 1072 3584 1716 3584 
Q 2034 3584 2315 3537 
Q 2597 3491 2834 3397 
z
" transform="scale(0.015625)"/>
       <path id="DejaVuSans-2e" d="M 684 794 
L 1344 794 
L 1344 0 
L 684 0 
L 684 794 
z
" transform="scale(0.015625)"/>
       <path id="DejaVuSans-20" transform="scale(0.015625)"/>
       <path id="DejaVuSans-76" d="M 191 3500 
L 800 3500 
L 1894 563 
L 2988 3500 
L 3597 3500 
L 2284 0 
L 1503 0 
L 191 3500 
z
" transform="scale(0.015625)"/>
       <path id="DejaVuSans-65" d="M 3597 1894 
L 3597 1613 
L 953 1613 
Q 991 1019 1311 708 
Q 1631 397 2203 397 
Q 2534 397 2845 478 
Q 3156 559 3463 722 
L 3463 178 
Q 3153 47 2828 -22 
Q 2503 -91 2169 -91 
Q 1331 -91 842 396 
Q 353 884 353 1716 
Q 353 2575 817 3079 
Q 1281 3584 2069 3584 
Q 2775 3584 3186 3129 
Q 3597 2675 3597 1894 
z
M 3022 2063 
Q 3016 2534 2758 2815 
Q 2500 3097 2075 3097 
Q 1594 3097 1305 2825 
Q 1016 2553 972 2059 
L 3022 2063 
z
" transform="scale(0.015625)"/>
       <path id="DejaVuSans-6c" d="M 603 4863 
L 1178 4863 
L 1178 0 
L 603 0 
L 603 4863 
z
" transform="scale(0.015625)"/>
       <path id="DejaVuSans-5b" d="M 550 4863 
L 1875 4863 
L 1875 4416 
L 1125 4416 
L 1125 -397 
L 1875 -397 
L 1875 -844 
L 550 -844 
L 550 4863 
z
" transform="scale(0.015625)"/>
       <path id="DejaVuSans-6d" d="M 3328 2828 
Q 3544 3216 3844 3400 
Q 4144 3584 4550 3584 
Q 5097 3584 5394 3201 
Q 5691 2819 5691 2113 
L 5691 0 
L 5113 0 
L 5113 2094 
Q 5113 2597 4934 2840 
Q 4756 3084 4391 3084 
Q 3944 3084 3684 2787 
Q 3425 2491 3425 1978 
L 3425 0 
L 2847 0 
L 2847 2094 
Q 2847 2600 2669 2842 
Q 2491 3084 2119 3084 
Q 1678 3084 1418 2786 
Q 1159 2488 1159 1978 
L 1159 0 
L 581 0 
L 581 3500 
L 1159 3500 
L 1159 2956 
Q 1356 3278 1631 3431 
Q 1906 3584 2284 3584 
Q 2666 3584 2933 3390 
Q 3200 3197 3328 2828 
z
" transform="scale(0.015625)"/>
       <path id="DejaVuSans-2f" d="M 1625 4666 
L 2156 4666 
L 531 -594 
L 0 -594 
L 1625 4666 
z
" transform="scale(0.015625)"/>
       <path id="DejaVuSans-5d" d="M 1947 4863 
L 1947 -844 
L 622 -844 
L 622 -397 
L 1369 -397 
L 1369 4416 
L 622 4416 
L 622 4863 
L 1947 4863 
z
" transform="scale(0.015625)"/>
      </defs>
      <use xlink:href="#DejaVuSans-74"/>
      <use xlink:href="#DejaVuSans-72" x="39.208984"/>
      <use xlink:href="#DejaVuSans-61" x="80.322266"/>
      <use xlink:href="#DejaVuSans-6e" x="141.601562"/>
      <use xlink:href="#DejaVuSans-73" x="204.980469"/>
      <use xlink:href="#DejaVuSans-2e" x="257.080078"/>
      <use xlink:href="#DejaVuSans-20" x="288.867188"/>
      <use xlink:href="#DejaVuSans-76" x="320.654297"/>
      <use xlink:href="#DejaVuSans-65" x="379.833984"/>
      <use xlink:href="#DejaVuSans-6c" x="441.357422"/>
      <use xlink:href="#DejaVuSans-2e" x="469.140625"/>
      <use xlink:href="#DejaVuSans-20" x="500.927734"/>
      <use xlink:href="#DejaVuSans-5b" x="532.714844"/>
      <use xlink:href="#DejaVuSans-6d" x="571.728516"/>
      <use xlink:href="#DejaVuSans-6d" x="669.140625"/>
      <use xlink:href="#DejaVuSans-2f" x="766.552734"/>
      <use xlink:href="#DejaVuSans-73" x="800.244141"/>
      <use xlink:href="#DejaVuSans-5d" x="852.34375"/>
     </g>
    </g>
   </g>
   <g id="line2d_21">
    <path d="M 68.386595 154.49718 
L 69.133805 154.421105 
L 70.254621 154.02171 
L 71.375437 153.279977 
L 72.496253 152.195905 
L 73.617068 150.769495 
L 74.737884 149.000747 
L 75.8587 146.88966 
L 77.353121 143.542352 
L 78.847542 139.586441 
L 80.341963 135.01876 
L 82.209989 128.457274 
L 92.670935 88.533644 
L 94.912567 80.323863 
L 96.780593 74.491431 
L 98.275014 70.513332 
L 99.769435 67.137495 
L 101.263856 64.379769 
L 102.384672 62.699775 
L 103.505487 61.368459 
L 104.626303 60.385821 
L 105.747119 59.736012 
L 106.494329 59.498277 
L 107.615145 59.403183 
L 349.337734 59.482428 
L 350.45855 59.878653 
L 351.579366 60.623556 
L 352.700181 61.701288 
L 353.820997 63.127698 
L 354.941813 64.902786 
L 356.436234 67.787304 
L 357.55705 70.354842 
L 359.05147 74.301243 
L 360.919497 80.101977 
L 362.787523 86.85365 
L 375.116496 133.560652 
L 376.610917 138.315352 
L 378.105338 142.444016 
L 379.599759 145.970418 
L 381.09418 148.888219 
L 382.214995 150.675986 
L 383.335811 152.123 
L 384.456627 153.226407 
L 385.577442 153.98811 
L 386.698258 154.407285 
L 387.819074 154.49718 
L 424.805992 154.49718 
L 424.805992 154.49718 
" clip-path="url(#pcbbfa64af8)" style="fill: none; stroke: #1f77b4; stroke-width: 1.5; stroke-linecap: square"/>
   </g>
   <g id="line2d_22">
    <path d="M 68.386595 154.49718 
L 68.7602 154.49718 
L 69.133805 154.305407 
L 69.507411 154.49718 
L 70.254621 154.49718 
L 70.628226 154.305407 
L 71.001832 154.49718 
L 72.496253 154.49718 
L 72.869858 154.305407 
L 73.243463 154.49718 
L 73.617068 154.305407 
L 73.990673 153.921861 
L 74.364279 153.921861 
L 74.737884 153.346701 
L 75.111489 153.538316 
L 75.485094 152.963155 
L 75.8587 152.771224 
L 76.232305 152.195905 
L 76.60591 152.004132 
L 76.979515 151.045268 
L 77.353121 151.237041 
L 77.726726 149.511085 
L 78.100331 149.319312 
L 78.473936 148.743993 
L 78.847542 147.20981 
L 79.221147 147.401583 
L 79.594752 143.566125 
L 79.968357 144.333217 
L 80.341963 138.204409 
L 80.715568 140.499344 
L 81.089173 132.245185 
L 81.462778 135.700267 
L 81.836383 126.507847 
L 82.209989 131.104057 
L 82.583594 120.548623 
L 82.957199 126.30181 
L 83.330804 113.844497 
L 83.70441 120.548623 
L 84.078015 106.553957 
L 84.45162 115.381849 
L 84.825225 100.040018 
L 85.198831 110.579603 
L 85.572436 97.932101 
L 85.946041 106.744145 
L 86.319646 94.477019 
L 86.693252 108.09131 
L 87.066857 93.906455 
L 87.440462 108.471686 
L 87.814067 93.51023 
L 88.187673 108.281498 
L 88.561278 92.749478 
L 88.934883 107.330558 
L 89.308488 90.641561 
L 89.682093 105.603017 
L 90.055699 87.96308 
L 90.429304 103.098875 
L 90.802909 84.698187 
L 91.176514 100.420394 
L 91.55012 81.052917 
L 91.923725 97.932101 
L 92.29733 78.374436 
L 92.670935 94.667207 
L 93.044541 76.25067 
L 93.418146 92.55929 
L 93.791751 73.191813 
L 94.165356 90.451373 
L 94.538962 67.248438 
L 94.912567 87.376667 
L 95.286172 62.065815 
L 95.659777 82.59027 
L 96.033383 55.551877 
L 96.406988 77.027271 
L 96.780593 49.228126 
L 97.154198 73.382001 
L 97.527803 44.235691 
L 97.901409 70.893708 
L 98.275014 44.806255 
L 98.648619 72.811437 
L 99.022224 48.451525 
L 99.39583 75.29973 
L 99.769435 50.74963 
L 100.14304 76.25067 
L 100.516645 57.849982 
L 101.263856 75.29973 
L 101.637461 57.849982 
L 102.011066 81.243105 
L 102.384672 58.04017 
L 102.758277 82.400082 
L 103.131882 59.387334 
L 103.505487 83.54121 
L 103.879093 60.924687 
L 104.252698 84.317811 
L 104.626303 61.685439 
L 104.999908 84.698187 
L 105.373514 60.924687 
L 105.747119 85.458939 
L 106.120724 61.875627 
L 106.494329 84.698187 
L 106.867934 62.065815 
L 107.24154 84.317811 
L 107.615145 62.065815 
L 107.98875 83.351022 
L 108.362355 62.446191 
L 108.735961 83.731398 
L 109.109566 61.495251 
L 109.856776 83.160834 
L 110.230382 59.957898 
L 110.977592 82.780458 
L 111.351197 59.197146 
L 111.724803 82.400082 
L 112.098408 58.420545 
L 112.472013 81.813669 
L 112.845618 55.742065 
L 113.219224 82.003857 
L 113.592829 56.883193 
L 113.966434 79.705752 
L 114.340039 54.204712 
L 114.713644 78.754812 
L 115.08725 53.44396 
L 115.460855 77.978211 
L 115.83446 54.585088 
L 116.208065 66.281649 
L 116.581671 64.950333 
L 116.955276 61.114875 
L 117.328881 64.554108 
L 117.702486 76.646895 
L 118.076092 50.369254 
L 118.449697 75.680106 
L 118.823302 48.641713 
L 119.196907 74.142753 
L 119.570513 47.690773 
L 119.944118 73.572189 
L 120.317723 46.15342 
L 120.691328 64.554108 
L 121.064934 56.122441 
L 121.438539 72.811437 
L 121.812144 45.392668 
L 122.185749 71.844648 
L 122.559354 44.425879 
L 122.93296 71.464272 
L 123.306565 44.045503 
L 123.68017 69.356355 
L 124.053775 48.261337 
L 124.800986 65.901273 
L 125.174591 43.855315 
L 125.921802 70.893708 
L 126.295407 43.268902 
L 126.669012 70.70352 
L 127.042617 43.474939 
L 127.416223 70.513332 
L 127.789828 42.698338 
L 128.163433 71.844648 
L 128.537038 43.855315 
L 128.910644 71.65446 
L 129.284249 44.996443 
L 129.657854 72.034836 
L 130.031459 45.963232 
L 130.405064 72.034836 
L 130.77867 46.343608 
L 131.152275 72.225024 
L 131.52588 48.261337 
L 131.899485 60.528462 
L 132.273091 59.577522 
L 132.646696 55.932253 
L 133.020301 70.893708 
L 133.393906 47.500585 
L 134.141117 72.225024 
L 134.514722 45.582856 
L 134.888327 72.621249 
L 135.261933 44.425879 
L 135.635538 73.762377 
L 136.009143 45.186631 
L 136.382748 72.034836 
L 136.756354 44.616067 
L 137.129959 71.274084 
L 137.503564 43.268902 
L 137.877169 70.513332 
L 138.250774 43.45909 
L 138.62438 70.307295 
L 138.997985 42.50815 
L 139.37159 68.389566 
L 139.745195 43.268902 
L 140.492406 68.975979 
L 140.866011 45.186631 
L 141.239616 51.716419 
L 141.613222 68.785791 
L 141.986827 40.780609 
L 142.360432 68.785791 
L 142.734037 39.639481 
L 143.107643 58.610733 
L 143.481248 49.418314 
L 143.854853 67.628814 
L 144.228458 39.243256 
L 144.602064 67.438626 
L 144.975669 39.243256 
L 145.349274 67.628814 
L 145.722879 39.243256 
L 146.096485 67.628814 
L 146.47009 39.053068 
L 146.843695 65.901273 
L 147.2173 44.235691 
L 147.964511 63.793356 
L 148.338116 41.351173 
L 148.711721 68.595603 
L 149.085326 40.780609 
L 149.458932 59.577522 
L 149.832537 51.526231 
L 150.206142 69.546543 
L 150.579747 42.698338 
L 151.326958 70.117107 
L 151.700563 44.045503 
L 152.074168 70.893708 
L 152.447774 44.996443 
L 152.821379 71.844648 
L 153.194984 45.186631 
L 153.568589 73.191813 
L 153.942195 46.533796 
L 154.3158 71.65446 
L 154.689405 47.880961 
L 155.06301 72.621249 
L 155.436615 48.071149 
L 155.810221 64.36392 
L 156.183826 57.469606 
L 156.557431 73.952565 
L 156.931036 48.261337 
L 157.304642 74.34879 
L 157.678247 47.10436 
L 158.051852 75.109542 
L 158.425457 48.451525 
L 158.799063 73.952565 
L 159.172668 48.831901 
L 159.546273 74.34879 
L 159.919878 48.261337 
L 160.293484 73.952565 
L 160.667089 47.880961 
L 161.040694 73.572189 
L 161.414299 49.988878 
L 161.787905 57.279418 
L 162.16151 72.431061 
L 162.535115 48.071149 
L 162.90872 72.621249 
L 163.282325 46.15342 
L 163.655931 72.431061 
L 164.029536 45.582856 
L 164.403141 72.034836 
L 164.776746 45.773044 
L 165.150352 71.65446 
L 165.523957 44.806255 
L 165.897562 71.464272 
L 166.271167 44.235691 
L 166.644773 70.893708 
L 167.018378 42.50815 
L 167.391983 70.497483 
L 167.765588 42.698338 
L 168.139194 70.117107 
L 168.512799 46.533796 
L 169.260009 57.659794 
L 169.633615 70.497483 
L 170.00722 43.268902 
L 170.380825 70.70352 
L 170.75443 43.665127 
L 171.128035 70.70352 
L 171.501641 43.474939 
L 171.875246 71.083896 
L 172.248851 43.855315 
L 172.622456 71.65446 
L 172.996062 44.045503 
L 173.369667 71.844648 
L 173.743272 44.806255 
L 174.116877 71.844648 
L 174.490483 44.425879 
L 174.864088 71.464272 
L 175.237693 45.773044 
L 175.611298 70.70352 
L 175.984904 47.10436 
L 176.358509 72.811437 
L 176.732114 46.343608 
L 177.105719 73.001625 
L 177.479325 47.690773 
L 177.85293 73.952565 
L 178.226535 48.071149 
L 178.60014 74.142753 
L 178.973746 47.690773 
L 179.347351 74.34879 
L 179.720956 48.071149 
L 180.094561 74.538978 
L 180.468166 48.831901 
L 180.841772 74.538978 
L 181.215377 49.022089 
L 181.588982 73.572189 
L 181.962587 52.667359 
L 182.336193 69.926919 
L 182.709798 50.369254 
L 183.083403 74.919354 
L 183.457008 48.831901 
L 183.830614 73.952565 
L 184.204219 48.451525 
L 184.577824 64.950333 
L 184.951429 57.08923 
L 185.325035 74.142753 
L 185.69864 47.690773 
L 186.072245 73.952565 
L 186.44585 47.880961 
L 186.819456 73.762377 
L 187.193061 47.500585 
L 187.566666 73.572189 
L 187.940271 49.022089 
L 188.313876 57.279418 
L 188.687482 73.001625 
L 189.061087 47.294548 
L 189.434692 73.191813 
L 189.808297 46.533796 
L 190.181903 72.621249 
L 190.555508 45.376819 
L 190.929113 71.65446 
L 191.302718 43.855315 
L 191.676324 71.464272 
L 192.049929 43.665127 
L 192.423534 71.274084 
L 192.797139 44.616067 
L 193.170745 71.844648 
L 193.54435 44.996443 
L 193.917955 71.65446 
L 194.29156 44.235691 
L 195.038771 71.083896 
L 195.412376 46.15342 
L 195.785981 71.083896 
L 196.159586 45.186631 
L 196.533192 71.65446 
L 196.906797 44.996443 
L 197.280402 71.65446 
L 197.654007 44.996443 
L 198.027613 72.431061 
L 198.401218 45.963232 
L 198.774823 72.415212 
L 199.148428 45.773044 
L 199.522034 72.621249 
L 199.895639 46.15342 
L 200.269244 72.811437 
L 200.642849 46.723984 
L 201.39006 73.572189 
L 201.763665 48.261337 
L 202.13727 73.762377 
L 202.510876 47.690773 
L 202.884481 75.29973 
L 203.258086 48.451525 
L 203.631691 75.109542 
L 204.005296 49.022089 
L 204.378902 75.489918 
L 204.752507 49.418314 
L 205.126112 75.29973 
L 205.499717 49.022089 
L 205.873323 74.919354 
L 206.246928 49.228126 
L 206.620533 75.489918 
L 206.994138 52.477171 
L 207.367744 59.76771 
L 207.741349 74.538978 
L 208.114954 50.369254 
L 208.488559 74.729166 
L 208.862165 49.022089 
L 209.23577 73.952565 
L 209.609375 48.261337 
L 209.98298 73.952565 
L 210.356586 48.071149 
L 210.730191 74.142753 
L 211.103796 47.690773 
L 211.477401 73.952565 
L 211.851006 46.914172 
L 212.224612 72.811437 
L 212.598217 46.343608 
L 212.971822 73.001625 
L 213.345427 45.963232 
L 213.719033 70.893708 
L 214.092638 49.79869 
L 214.839848 67.819002 
L 215.213454 45.392668 
L 215.587059 72.225024 
L 215.960664 44.806255 
L 216.334269 71.844648 
L 216.707875 44.806255 
L 217.08148 71.274084 
L 217.455085 43.268902 
L 217.82869 62.065815 
L 218.202296 54.014524 
L 218.575901 71.274084 
L 218.949506 44.045503 
L 219.323111 71.274084 
L 219.696717 44.235691 
L 220.070322 71.274084 
L 220.443927 46.914172 
L 220.817532 67.438626 
L 221.191137 46.15342 
L 221.564743 54.585088 
L 221.938348 70.70352 
L 222.311953 43.665127 
L 222.685558 70.893708 
L 223.059164 43.855315 
L 223.432769 71.083896 
L 223.806374 44.235691 
L 224.179979 71.464272 
L 224.553585 44.235691 
L 224.92719 71.844648 
L 225.300795 45.186631 
L 225.6744 72.034836 
L 226.048006 45.963232 
L 226.421611 72.225024 
L 226.795216 45.963232 
L 227.168821 71.464272 
L 227.542427 47.10436 
L 227.916032 73.191813 
L 228.289637 48.071149 
L 228.663242 73.191813 
L 229.036847 47.500585 
L 229.410453 74.142753 
L 229.784058 47.294548 
L 230.157663 73.572189 
L 230.531268 47.294548 
L 230.904874 73.762377 
L 231.278479 46.914172 
L 231.652084 74.919354 
L 232.025689 47.880961 
L 232.399295 73.762377 
L 232.7729 47.880961 
L 233.52011 72.225024 
L 233.893716 48.831901 
L 234.267321 73.382001 
L 234.640926 48.071149 
L 235.014531 73.762377 
L 235.388137 46.914172 
L 235.761742 72.621249 
L 236.135347 45.963232 
L 236.508952 73.191813 
L 236.882557 45.963232 
L 237.256163 72.415212 
L 237.629768 45.963232 
L 238.003373 72.034836 
L 238.376978 45.376819 
L 238.750584 71.65446 
L 239.124189 44.235691 
L 239.497794 71.844648 
L 239.871399 46.15342 
L 240.245005 54.775276 
L 240.61861 70.513332 
L 240.992215 44.996443 
L 241.36582 70.70352 
L 241.739426 43.268902 
L 242.113031 70.307295 
L 242.486636 42.888526 
L 242.860241 70.513332 
L 243.233847 43.268902 
L 243.607452 70.307295 
L 243.981057 42.888526 
L 244.354662 70.307295 
L 244.728267 42.50815 
L 245.101873 69.926919 
L 245.475478 42.50815 
L 245.849083 70.117107 
L 246.222688 42.50815 
L 246.596294 57.08923 
L 246.969899 57.659794 
L 247.343504 69.926919 
L 247.717109 44.235691 
L 248.090715 71.083896 
L 248.46432 43.665127 
L 248.837925 71.844648 
L 249.21153 44.806255 
L 249.585136 71.65446 
L 249.958741 45.376819 
L 250.332346 72.415212 
L 250.705951 45.963232 
L 251.079557 72.431061 
L 251.453162 45.963232 
L 251.826767 73.191813 
L 252.200372 49.608502 
L 252.573978 57.469606 
L 252.947583 74.158602 
L 253.321188 48.641713 
L 253.694793 73.191813 
L 254.068398 49.79869 
L 254.442004 74.729166 
L 254.815609 48.071149 
L 255.189214 75.680106 
L 255.562819 49.418314 
L 255.936425 75.29973 
L 256.31003 48.641713 
L 256.683635 74.919354 
L 257.05724 48.831901 
L 257.430846 74.538978 
L 257.804451 48.451525 
L 258.178056 73.001625 
L 258.551661 49.988878 
L 258.925267 74.332941 
L 259.298872 49.418314 
L 259.672477 74.142753 
L 260.046082 48.071149 
L 260.419688 73.952565 
L 260.793293 47.310397 
L 261.166898 73.762377 
L 261.540503 47.310397 
L 261.914108 73.762377 
L 262.287714 45.773044 
L 262.661319 74.142753 
L 263.034924 46.15342 
L 263.408529 72.415212 
L 263.782135 48.641713 
L 264.15574 60.148086 
L 264.529345 54.585088 
L 264.90295 72.415212 
L 265.276556 48.641713 
L 265.650161 56.122441 
L 266.023766 71.65446 
L 266.397371 44.616067 
L 266.770977 71.274084 
L 267.144582 44.235691 
L 267.518187 71.083896 
L 267.891792 44.235691 
L 268.265398 71.083896 
L 268.639003 43.268902 
L 269.012608 71.274084 
L 269.386213 45.963232 
L 269.759818 68.389566 
L 270.133424 46.343608 
L 270.507029 55.171501 
L 270.880634 71.083896 
L 271.254239 44.616067 
L 271.627845 71.274084 
L 272.00145 44.425879 
L 272.375055 70.893708 
L 272.74866 44.425879 
L 273.122266 71.274084 
L 273.495871 44.425879 
L 273.869476 72.225024 
L 274.243081 45.773044 
L 274.616687 72.225024 
L 274.990292 48.451525 
L 275.363897 56.122441 
L 275.737502 71.844648 
L 276.111108 48.451525 
L 276.484713 72.811437 
L 276.858318 47.310397 
L 277.231923 73.952565 
L 277.605528 48.261337 
L 277.979134 74.142753 
L 278.352739 48.641713 
L 278.726344 74.538978 
L 279.099949 49.022089 
L 279.84716 74.919354 
L 280.220765 49.022089 
L 280.59437 73.762377 
L 280.967976 49.608502 
L 281.715186 74.332941 
L 282.088791 52.286983 
L 282.462397 59.577522 
L 282.836002 74.919354 
L 283.209607 49.022089 
L 283.583212 74.538978 
L 283.956818 48.451525 
L 284.330423 74.538978 
L 284.704028 47.500585 
L 285.077633 75.29973 
L 285.451238 48.071149 
L 285.824844 72.415212 
L 286.198449 48.451525 
L 286.945659 72.811437 
L 287.69287 45.773044 
L 288.066475 72.811437 
L 288.44008 45.773044 
L 288.813686 72.415212 
L 289.187291 45.392668 
L 289.560896 71.844648 
L 289.934501 44.425879 
L 290.308107 71.464272 
L 290.681712 43.665127 
L 291.055317 69.736731 
L 291.428922 48.261337 
L 292.176133 67.05825 
L 292.549738 44.235691 
L 292.923343 70.513332 
L 293.296949 43.474939 
L 293.670554 70.70352 
L 294.044159 43.268902 
L 294.417764 70.893708 
L 294.791369 43.45909 
L 295.164975 71.083896 
L 295.53858 43.268902 
L 295.912185 71.083896 
L 296.28579 46.343608 
L 296.659396 54.204712 
L 297.033001 70.893708 
L 297.406606 44.616067 
L 297.780211 71.083896 
L 298.153817 45.186631 
L 298.527422 71.65446 
L 298.901027 44.996443 
L 299.274632 72.415212 
L 299.648238 44.806255 
L 300.021843 73.762377 
L 300.395448 47.10436 
L 300.769053 73.382001 
L 301.142659 47.310397 
L 301.516264 72.415212 
L 301.889869 47.880961 
L 302.263474 71.65446 
L 302.637079 47.880961 
L 303.38429 73.762377 
L 303.757895 47.500585 
L 304.505106 73.191813 
L 304.878711 48.071149 
L 305.252316 74.142753 
L 305.625921 48.071149 
L 305.999527 74.332941 
L 306.373132 48.451525 
L 306.746737 73.191813 
L 307.120342 49.608502 
L 307.493948 64.950333 
L 307.867553 69.166167 
L 308.241158 49.212277 
L 308.614763 73.762377 
L 308.988369 47.690773 
L 309.361974 73.952565 
L 309.735579 47.690773 
L 310.109184 73.762377 
L 310.482789 47.10436 
L 310.856395 73.572189 
L 311.23 47.10436 
L 311.603605 72.811437 
L 311.97721 49.228126 
L 312.350816 57.279418 
L 312.724421 71.65446 
L 313.098026 46.914172 
L 313.471631 73.572189 
L 313.845237 45.773044 
L 314.218842 72.415212 
L 314.592447 44.996443 
L 314.966052 73.382001 
L 315.339658 45.773044 
L 315.713263 72.034836 
L 316.086868 45.392668 
L 316.460473 71.844648 
L 316.834079 44.806255 
L 317.207684 70.497483 
L 317.581289 48.831901 
L 317.954894 55.171501 
L 318.328499 71.65446 
L 319.07571 45.186631 
L 319.449315 72.034836 
L 319.82292 44.996443 
L 320.196526 71.844648 
L 320.570131 44.616067 
L 320.943736 72.034836 
L 321.317341 45.186631 
L 321.690947 71.844648 
L 322.064552 44.425879 
L 322.438157 72.811437 
L 322.811762 45.963232 
L 323.185368 71.464272 
L 323.558973 47.690773 
L 323.932578 72.811437 
L 324.306183 47.10436 
L 324.679789 73.572189 
L 325.053394 47.690773 
L 325.426999 73.572189 
L 325.800604 47.500585 
L 326.17421 74.332941 
L 326.547815 48.071149 
L 326.92142 74.538978 
L 327.295025 48.451525 
L 327.66863 73.191813 
L 328.042236 52.477171 
L 328.789446 70.307295 
L 329.163051 49.212277 
L 329.536657 73.762377 
L 329.910262 47.310397 
L 330.283867 74.332941 
L 330.657472 48.261337 
L 331.031078 74.142753 
L 331.404683 48.071149 
L 332.151893 74.158602 
L 332.525499 50.179066 
L 332.899104 70.307295 
L 333.272709 51.716419 
L 333.646314 69.926919 
L 334.01992 48.641713 
L 334.393525 73.762377 
L 334.76713 47.294548 
L 335.140735 73.572189 
L 335.51434 46.914172 
L 335.887946 73.191813 
L 336.261551 46.343608 
L 336.635156 73.001625 
L 337.008761 45.392668 
L 337.382367 72.621249 
L 337.755972 45.186631 
L 338.129577 71.844648 
L 338.503182 46.343608 
L 338.876788 71.274084 
L 339.250393 45.582856 
L 339.623998 71.274084 
L 339.997603 43.268902 
L 340.744814 70.70352 
L 341.118419 43.855315 
L 341.492024 70.70352 
L 341.86563 45.963232 
L 342.239235 54.585088 
L 342.61284 57.279418 
L 342.986445 69.166167 
L 343.36005 44.425879 
L 343.733656 71.083896 
L 344.107261 43.078714 
L 344.480866 70.70352 
L 344.854471 43.078714 
L 345.228077 70.70352 
L 345.601682 43.855315 
L 345.975287 70.893708 
L 346.348892 46.15342 
L 346.722498 54.3949 
L 347.096103 69.926919 
L 347.469708 44.806255 
L 347.843313 71.464272 
L 348.216919 44.806255 
L 348.590524 72.034836 
L 348.964129 45.582856 
L 349.337734 72.415212 
L 349.71134 46.15342 
L 350.084945 73.191813 
L 350.45855 46.533796 
L 350.832155 72.225024 
L 351.20576 48.261337 
L 351.579366 73.001625 
L 351.952971 49.022089 
L 352.326576 75.29973 
L 352.700181 48.641713 
L 353.073787 74.729166 
L 353.447392 49.418314 
L 353.820997 75.29973 
L 354.194602 49.79869 
L 354.568208 76.060482 
L 354.941813 54.204712 
L 355.315418 62.065815 
L 355.689023 66.471837 
L 356.062629 76.837083 
L 356.436234 57.849982 
L 356.809839 64.554108 
L 357.183444 80.086128 
L 357.55705 57.08923 
L 357.930655 72.811437 
L 358.30426 67.438626 
L 358.677865 82.970646 
L 359.05147 63.603168 
L 359.425076 70.70352 
L 359.798681 87.186479 
L 360.172286 68.00919 
L 360.545891 90.070997 
L 360.919497 72.034836 
L 361.293102 93.320042 
L 361.666707 74.142753 
L 362.040312 94.477019 
L 362.413918 75.29973 
L 362.787523 95.824184 
L 363.161128 79.515564 
L 363.534733 86.21969 
L 363.908339 99.84983 
L 364.281944 85.458939 
L 364.655549 105.016604 
L 365.029154 93.129854 
L 365.40276 110.959979 
L 365.776365 100.230206 
L 366.14997 115.381849 
L 366.523575 104.826416 
L 366.897181 118.06033 
L 367.270786 108.281498 
L 368.017996 121.135036 
L 368.391601 113.654309 
L 368.765207 124.590118 
L 369.138812 116.903353 
L 369.512417 127.458787 
L 369.886022 119.027119 
L 370.259628 127.839163 
L 370.633233 119.787871 
L 371.006838 128.409727 
L 371.380443 121.135036 
L 372.127654 127.458787 
L 372.501259 128.99614 
L 372.874864 124.193893 
L 373.24847 131.864809 
L 373.622075 125.541058 
L 373.99568 133.782538 
L 374.369285 127.839163 
L 374.742891 136.28668 
L 375.116496 132.054997 
L 375.490101 139.155349 
L 375.863706 137.427808 
L 376.610917 144.716763 
L 376.984522 146.250946 
L 377.358127 148.55539 
L 377.731732 148.55222 
L 378.105338 149.507915 
L 378.478943 147.404753 
L 378.852548 149.129124 
L 379.226153 146.823095 
L 379.599759 148.937351 
L 379.973364 147.019622 
L 380.346969 148.934181 
L 380.720574 147.21298 
L 381.09418 148.740823 
L 381.467785 147.016452 
L 381.84139 149.130709 
L 382.214995 147.593356 
L 382.588601 149.129124 
L 382.962206 147.593356 
L 383.335811 149.511085 
L 383.709416 148.170259 
L 384.456627 149.129124 
L 384.830232 149.319312 
L 385.203837 149.701273 
L 385.577442 148.362032 
L 385.951048 150.469949 
L 386.324653 148.937351 
L 386.698258 150.086404 
L 387.071863 149.319312 
L 387.445469 151.046853 
L 387.819074 149.511085 
L 388.192679 150.469949 
L 388.566284 149.894631 
L 388.93989 150.853495 
L 389.313495 150.086404 
L 389.6871 151.240211 
L 390.060705 150.086404 
L 390.434311 151.237041 
L 390.807916 149.701273 
L 391.181521 151.622172 
L 391.555126 150.086404 
L 391.928731 151.430399 
L 392.302337 150.468364 
L 392.675942 150.85508 
L 393.049547 151.046853 
L 393.423152 150.853495 
L 393.796758 150.853495 
L 394.170363 151.622172 
L 394.543968 150.661722 
L 394.917573 151.81236 
L 395.291179 150.853495 
L 395.664784 151.81236 
L 396.038389 151.046853 
L 396.411994 151.622172 
L 396.7856 151.619002 
L 397.159205 152.004132 
L 397.906415 151.237041 
L 398.280021 152.386093 
L 398.653626 151.81236 
L 399.027231 152.387678 
L 399.400836 151.81236 
L 399.774442 152.387678 
L 400.148047 152.19749 
L 400.521652 152.576281 
L 400.895257 152.579451 
L 401.268862 152.390848 
L 401.642468 152.771224 
L 402.016073 152.386093 
L 402.389678 152.771224 
L 403.136889 152.771224 
L 403.884099 153.154928 
L 404.257704 152.771224 
L 404.63131 153.348445 
L 405.004915 153.152551 
L 405.37852 153.730564 
L 405.752125 153.154928 
L 406.125731 153.921544 
L 406.499336 153.539584 
L 406.872941 153.730564 
L 407.246546 153.730564 
L 407.620152 154.303664 
L 407.993757 153.921544 
L 408.367362 154.115061 
L 408.740967 154.494761 
L 409.861783 154.49718 
L 410.235388 154.884054 
L 410.608993 154.879299 
L 410.982599 154.68816 
L 411.356204 155.457312 
L 411.729809 155.072816 
L 412.103414 155.261419 
L 412.47702 155.075193 
L 412.850625 155.454777 
L 413.22423 155.263796 
L 413.597835 155.457312 
L 413.971441 155.454777 
L 414.345046 155.839432 
L 414.718651 155.266174 
L 415.092256 155.645916 
L 415.465862 155.266174 
L 415.839467 155.454777 
L 416.213072 155.457312 
L 416.586677 155.645916 
L 416.960282 155.648293 
L 417.333888 155.454777 
L 417.707493 155.457312 
L 418.081098 155.263796 
L 418.454703 155.457312 
L 419.201914 155.454777 
L 419.575519 155.072816 
L 419.949124 155.648293 
L 420.32273 155.266174 
L 420.696335 155.454777 
L 421.443545 155.072816 
L 421.817151 155.457312 
L 422.564361 155.075193 
L 422.937966 155.07028 
L 423.311572 155.454777 
L 423.685177 154.884054 
L 424.058782 155.261419 
L 424.805992 154.879299 
L 424.805992 154.879299 
" clip-path="url(#pcbbfa64af8)" style="fill: none; stroke: #ff7f0e; stroke-width: 1.5; stroke-linecap: square"/>
   </g>
   <g id="patch_3">
    <path d="M 50.565625 161.67875 
L 50.565625 33.21375 
" style="fill: none; stroke: #000000; stroke-width: 0.8; stroke-linejoin: miter; stroke-linecap: square"/>
   </g>
   <g id="patch_4">
    <path d="M 442.626962 161.67875 
L 442.626962 33.21375 
" style="fill: none; stroke: #000000; stroke-width: 0.8; stroke-linejoin: miter; stroke-linecap: square"/>
   </g>
   <g id="patch_5">
    <path d="M 50.565625 161.67875 
L 442.626962 161.67875 
" style="fill: none; stroke: #000000; stroke-width: 0.8; stroke-linejoin: miter; stroke-linecap: square"/>
   </g>
   <g id="patch_6">
    <path d="M 50.565625 33.21375 
L 442.626962 33.21375 
" style="fill: none; stroke: #000000; stroke-width: 0.8; stroke-linejoin: miter; stroke-linecap: square"/>
   </g>
   <g id="legend_1">
    <g id="patch_7">
     <path d="M 205.3377 156.67875 
L 287.854887 156.67875 
Q 289.854887 156.67875 289.854887 154.67875 
L 289.854887 126.3225 
Q 289.854887 124.3225 287.854887 124.3225 
L 205.3377 124.3225 
Q 203.3377 124.3225 203.3377 126.3225 
L 203.3377 154.67875 
Q 203.3377 156.67875 205.3377 156.67875 
z
" style="fill: #ffffff; opacity: 0.8; stroke: #cccccc; stroke-linejoin: miter"/>
    </g>
    <g id="line2d_23">
     <path d="M 207.3377 132.420937 
L 217.3377 132.420937 
L 227.3377 132.420937 
" style="fill: none; stroke: #1f77b4; stroke-width: 1.5; stroke-linecap: square"/>
    </g>
    <g id="text_6">
     <!-- Reference -->
     <g transform="translate(235.3377 135.920937)scale(0.1 -0.1)">
      <defs>
       <path id="DejaVuSans-52" d="M 2841 2188 
Q 3044 2119 3236 1894 
Q 3428 1669 3622 1275 
L 4263 0 
L 3584 0 
L 2988 1197 
Q 2756 1666 2539 1819 
Q 2322 1972 1947 1972 
L 1259 1972 
L 1259 0 
L 628 0 
L 628 4666 
L 2053 4666 
Q 2853 4666 3247 4331 
Q 3641 3997 3641 3322 
Q 3641 2881 3436 2590 
Q 3231 2300 2841 2188 
z
M 1259 4147 
L 1259 2491 
L 2053 2491 
Q 2509 2491 2742 2702 
Q 2975 2913 2975 3322 
Q 2975 3731 2742 3939 
Q 2509 4147 2053 4147 
L 1259 4147 
z
" transform="scale(0.015625)"/>
       <path id="DejaVuSans-66" d="M 2375 4863 
L 2375 4384 
L 1825 4384 
Q 1516 4384 1395 4259 
Q 1275 4134 1275 3809 
L 1275 3500 
L 2222 3500 
L 2222 3053 
L 1275 3053 
L 1275 0 
L 697 0 
L 697 3053 
L 147 3053 
L 147 3500 
L 697 3500 
L 697 3744 
Q 697 4328 969 4595 
Q 1241 4863 1831 4863 
L 2375 4863 
z
" transform="scale(0.015625)"/>
       <path id="DejaVuSans-63" d="M 3122 3366 
L 3122 2828 
Q 2878 2963 2633 3030 
Q 2388 3097 2138 3097 
Q 1578 3097 1268 2742 
Q 959 2388 959 1747 
Q 959 1106 1268 751 
Q 1578 397 2138 397 
Q 2388 397 2633 464 
Q 2878 531 3122 666 
L 3122 134 
Q 2881 22 2623 -34 
Q 2366 -91 2075 -91 
Q 1284 -91 818 406 
Q 353 903 353 1747 
Q 353 2603 823 3093 
Q 1294 3584 2113 3584 
Q 2378 3584 2631 3529 
Q 2884 3475 3122 3366 
z
" transform="scale(0.015625)"/>
      </defs>
      <use xlink:href="#DejaVuSans-52"/>
      <use xlink:href="#DejaVuSans-65" x="64.982422"/>
      <use xlink:href="#DejaVuSans-66" x="126.505859"/>
      <use xlink:href="#DejaVuSans-65" x="161.710938"/>
      <use xlink:href="#DejaVuSans-72" x="223.234375"/>
      <use xlink:href="#DejaVuSans-65" x="262.097656"/>
      <use xlink:href="#DejaVuSans-6e" x="323.621094"/>
      <use xlink:href="#DejaVuSans-63" x="387"/>
      <use xlink:href="#DejaVuSans-65" x="441.980469"/>
     </g>
    </g>
    <g id="line2d_24">
     <path d="M 207.3377 147.099062 
L 217.3377 147.099062 
L 227.3377 147.099062 
" style="fill: none; stroke: #ff7f0e; stroke-width: 1.5; stroke-linecap: square"/>
    </g>
    <g id="text_7">
     <!-- Estimated -->
     <g transform="translate(235.3377 150.599062)scale(0.1 -0.1)">
      <defs>
       <path id="DejaVuSans-45" d="M 628 4666 
L 3578 4666 
L 3578 4134 
L 1259 4134 
L 1259 2753 
L 3481 2753 
L 3481 2222 
L 1259 2222 
L 1259 531 
L 3634 531 
L 3634 0 
L 628 0 
L 628 4666 
z
" transform="scale(0.015625)"/>
       <path id="DejaVuSans-69" d="M 603 3500 
L 1178 3500 
L 1178 0 
L 603 0 
L 603 3500 
z
M 603 4863 
L 1178 4863 
L 1178 4134 
L 603 4134 
L 603 4863 
z
" transform="scale(0.015625)"/>
       <path id="DejaVuSans-64" d="M 2906 2969 
L 2906 4863 
L 3481 4863 
L 3481 0 
L 2906 0 
L 2906 525 
Q 2725 213 2448 61 
Q 2172 -91 1784 -91 
Q 1150 -91 751 415 
Q 353 922 353 1747 
Q 353 2572 751 3078 
Q 1150 3584 1784 3584 
Q 2172 3584 2448 3432 
Q 2725 3281 2906 2969 
z
M 947 1747 
Q 947 1113 1208 752 
Q 1469 391 1925 391 
Q 2381 391 2643 752 
Q 2906 1113 2906 1747 
Q 2906 2381 2643 2742 
Q 2381 3103 1925 3103 
Q 1469 3103 1208 2742 
Q 947 2381 947 1747 
z
" transform="scale(0.015625)"/>
      </defs>
      <use xlink:href="#DejaVuSans-45"/>
      <use xlink:href="#DejaVuSans-73" x="63.183594"/>
      <use xlink:href="#DejaVuSans-74" x="115.283203"/>
      <use xlink:href="#DejaVuSans-69" x="154.492188"/>
      <use xlink:href="#DejaVuSans-6d" x="182.275391"/>
      <use xlink:href="#DejaVuSans-61" x="279.6875"/>
      <use xlink:href="#DejaVuSans-74" x="340.966797"/>
      <use xlink:href="#DejaVuSans-65" x="380.175781"/>
      <use xlink:href="#DejaVuSans-64" x="441.699219"/>
     </g>
    </g>
   </g>
  </g>
  <g id="axes_2">
   <g id="patch_8">
    <path d="M 50.565625 304.44375 
L 442.626962 304.44375 
L 442.626962 175.97875 
L 50.565625 175.97875 
z
" style="fill: #ffffff"/>
   </g>
   <g id="matplotlib.axis_3">
    <g id="xtick_7">
     <g id="line2d_25">
      <path d="M 68.386595 304.44375 
L 68.386595 175.97875 
" clip-path="url(#pdb65ce18ed)" style="fill: none; stroke: #b0b0b0; stroke-width: 0.8; stroke-linecap: square"/>
     </g>
     <g id="line2d_26">
      <g>
       <use xlink:href="#m89099837fb" x="68.386595" y="304.44375" style="stroke: #000000; stroke-width: 0.8"/>
      </g>
     </g>
     <g id="text_8">
      <!-- 0.0 -->
      <g transform="translate(60.435032 319.042187)scale(0.1 -0.1)">
       <use xlink:href="#DejaVuSans-30"/>
       <use xlink:href="#DejaVuSans-2e" x="63.623047"/>
       <use xlink:href="#DejaVuSans-30" x="95.410156"/>
      </g>
     </g>
    </g>
    <g id="xtick_8">
     <g id="line2d_27">
      <path d="M 143.107643 304.44375 
L 143.107643 175.97875 
" clip-path="url(#pdb65ce18ed)" style="fill: none; stroke: #b0b0b0; stroke-width: 0.8; stroke-linecap: square"/>
     </g>
     <g id="line2d_28">
      <g>
       <use xlink:href="#m89099837fb" x="143.107643" y="304.44375" style="stroke: #000000; stroke-width: 0.8"/>
      </g>
     </g>
     <g id="text_9">
      <!-- 0.2 -->
      <g transform="translate(135.15608 319.042187)scale(0.1 -0.1)">
       <use xlink:href="#DejaVuSans-30"/>
       <use xlink:href="#DejaVuSans-2e" x="63.623047"/>
       <use xlink:href="#DejaVuSans-32" x="95.410156"/>
      </g>
     </g>
    </g>
    <g id="xtick_9">
     <g id="line2d_29">
      <path d="M 217.82869 304.44375 
L 217.82869 175.97875 
" clip-path="url(#pdb65ce18ed)" style="fill: none; stroke: #b0b0b0; stroke-width: 0.8; stroke-linecap: square"/>
     </g>
     <g id="line2d_30">
      <g>
       <use xlink:href="#m89099837fb" x="217.82869" y="304.44375" style="stroke: #000000; stroke-width: 0.8"/>
      </g>
     </g>
     <g id="text_10">
      <!-- 0.4 -->
      <g transform="translate(209.877128 319.042187)scale(0.1 -0.1)">
       <use xlink:href="#DejaVuSans-30"/>
       <use xlink:href="#DejaVuSans-2e" x="63.623047"/>
       <use xlink:href="#DejaVuSans-34" x="95.410156"/>
      </g>
     </g>
    </g>
    <g id="xtick_10">
     <g id="line2d_31">
      <path d="M 292.549738 304.44375 
L 292.549738 175.97875 
" clip-path="url(#pdb65ce18ed)" style="fill: none; stroke: #b0b0b0; stroke-width: 0.8; stroke-linecap: square"/>
     </g>
     <g id="line2d_32">
      <g>
       <use xlink:href="#m89099837fb" x="292.549738" y="304.44375" style="stroke: #000000; stroke-width: 0.8"/>
      </g>
     </g>
     <g id="text_11">
      <!-- 0.6 -->
      <g transform="translate(284.598176 319.042187)scale(0.1 -0.1)">
       <use xlink:href="#DejaVuSans-30"/>
       <use xlink:href="#DejaVuSans-2e" x="63.623047"/>
       <use xlink:href="#DejaVuSans-36" x="95.410156"/>
      </g>
     </g>
    </g>
    <g id="xtick_11">
     <g id="line2d_33">
      <path d="M 367.270786 304.44375 
L 367.270786 175.97875 
" clip-path="url(#pdb65ce18ed)" style="fill: none; stroke: #b0b0b0; stroke-width: 0.8; stroke-linecap: square"/>
     </g>
     <g id="line2d_34">
      <g>
       <use xlink:href="#m89099837fb" x="367.270786" y="304.44375" style="stroke: #000000; stroke-width: 0.8"/>
      </g>
     </g>
     <g id="text_12">
      <!-- 0.8 -->
      <g transform="translate(359.319223 319.042187)scale(0.1 -0.1)">
       <defs>
        <path id="DejaVuSans-38" d="M 2034 2216 
Q 1584 2216 1326 1975 
Q 1069 1734 1069 1313 
Q 1069 891 1326 650 
Q 1584 409 2034 409 
Q 2484 409 2743 651 
Q 3003 894 3003 1313 
Q 3003 1734 2745 1975 
Q 2488 2216 2034 2216 
z
M 1403 2484 
Q 997 2584 770 2862 
Q 544 3141 544 3541 
Q 544 4100 942 4425 
Q 1341 4750 2034 4750 
Q 2731 4750 3128 4425 
Q 3525 4100 3525 3541 
Q 3525 3141 3298 2862 
Q 3072 2584 2669 2484 
Q 3125 2378 3379 2068 
Q 3634 1759 3634 1313 
Q 3634 634 3220 271 
Q 2806 -91 2034 -91 
Q 1263 -91 848 271 
Q 434 634 434 1313 
Q 434 1759 690 2068 
Q 947 2378 1403 2484 
z
M 1172 3481 
Q 1172 3119 1398 2916 
Q 1625 2713 2034 2713 
Q 2441 2713 2670 2916 
Q 2900 3119 2900 3481 
Q 2900 3844 2670 4047 
Q 2441 4250 2034 4250 
Q 1625 4250 1398 4047 
Q 1172 3844 1172 3481 
z
" transform="scale(0.015625)"/>
       </defs>
       <use xlink:href="#DejaVuSans-30"/>
       <use xlink:href="#DejaVuSans-2e" x="63.623047"/>
       <use xlink:href="#DejaVuSans-38" x="95.410156"/>
      </g>
     </g>
    </g>
    <g id="xtick_12">
     <g id="line2d_35">
      <path d="M 441.991833 304.44375 
L 441.991833 175.97875 
" clip-path="url(#pdb65ce18ed)" style="fill: none; stroke: #b0b0b0; stroke-width: 0.8; stroke-linecap: square"/>
     </g>
     <g id="line2d_36">
      <g>
       <use xlink:href="#m89099837fb" x="441.991833" y="304.44375" style="stroke: #000000; stroke-width: 0.8"/>
      </g>
     </g>
     <g id="text_13">
      <!-- 1.0 -->
      <g transform="translate(434.040271 319.042187)scale(0.1 -0.1)">
       <defs>
        <path id="DejaVuSans-31" d="M 794 531 
L 1825 531 
L 1825 4091 
L 703 3866 
L 703 4441 
L 1819 4666 
L 2450 4666 
L 2450 531 
L 3481 531 
L 3481 0 
L 794 0 
L 794 531 
z
" transform="scale(0.015625)"/>
       </defs>
       <use xlink:href="#DejaVuSans-31"/>
       <use xlink:href="#DejaVuSans-2e" x="63.623047"/>
       <use xlink:href="#DejaVuSans-30" x="95.410156"/>
      </g>
     </g>
    </g>
    <g id="text_14">
     <!-- Time [s] -->
     <g transform="translate(226.267387 332.720312)scale(0.1 -0.1)">
      <defs>
       <path id="DejaVuSans-54" d="M -19 4666 
L 3928 4666 
L 3928 4134 
L 2272 4134 
L 2272 0 
L 1638 0 
L 1638 4134 
L -19 4134 
L -19 4666 
z
" transform="scale(0.015625)"/>
      </defs>
      <use xlink:href="#DejaVuSans-54"/>
      <use xlink:href="#DejaVuSans-69" x="57.958984"/>
      <use xlink:href="#DejaVuSans-6d" x="85.742188"/>
      <use xlink:href="#DejaVuSans-65" x="183.154297"/>
      <use xlink:href="#DejaVuSans-20" x="244.677734"/>
      <use xlink:href="#DejaVuSans-5b" x="276.464844"/>
      <use xlink:href="#DejaVuSans-73" x="315.478516"/>
      <use xlink:href="#DejaVuSans-5d" x="367.578125"/>
     </g>
    </g>
   </g>
   <g id="matplotlib.axis_4">
    <g id="ytick_5">
     <g id="line2d_37">
      <path d="M 50.565625 291.696164 
L 442.626962 291.696164 
" clip-path="url(#pdb65ce18ed)" style="fill: none; stroke: #b0b0b0; stroke-width: 0.8; stroke-linecap: square"/>
     </g>
     <g id="line2d_38">
      <g>
       <use xlink:href="#mb8c69433c2" x="50.565625" y="291.696164" style="stroke: #000000; stroke-width: 0.8"/>
      </g>
     </g>
     <g id="text_15">
      <!-- −1 -->
      <g transform="translate(28.823438 295.495383)scale(0.1 -0.1)">
       <defs>
        <path id="DejaVuSans-2212" d="M 678 2272 
L 4684 2272 
L 4684 1741 
L 678 1741 
L 678 2272 
z
" transform="scale(0.015625)"/>
       </defs>
       <use xlink:href="#DejaVuSans-2212"/>
       <use xlink:href="#DejaVuSans-31" x="83.789062"/>
      </g>
     </g>
    </g>
    <g id="ytick_6">
     <g id="line2d_39">
      <path d="M 50.565625 265.528482 
L 442.626962 265.528482 
" clip-path="url(#pdb65ce18ed)" style="fill: none; stroke: #b0b0b0; stroke-width: 0.8; stroke-linecap: square"/>
     </g>
     <g id="line2d_40">
      <g>
       <use xlink:href="#mb8c69433c2" x="50.565625" y="265.528482" style="stroke: #000000; stroke-width: 0.8"/>
      </g>
     </g>
     <g id="text_16">
      <!-- 0 -->
      <g transform="translate(37.203125 269.327701)scale(0.1 -0.1)">
       <use xlink:href="#DejaVuSans-30"/>
      </g>
     </g>
    </g>
    <g id="ytick_7">
     <g id="line2d_41">
      <path d="M 50.565625 239.3608 
L 442.626962 239.3608 
" clip-path="url(#pdb65ce18ed)" style="fill: none; stroke: #b0b0b0; stroke-width: 0.8; stroke-linecap: square"/>
     </g>
     <g id="line2d_42">
      <g>
       <use xlink:href="#mb8c69433c2" x="50.565625" y="239.3608" style="stroke: #000000; stroke-width: 0.8"/>
      </g>
     </g>
     <g id="text_17">
      <!-- 1 -->
      <g transform="translate(37.203125 243.160019)scale(0.1 -0.1)">
       <use xlink:href="#DejaVuSans-31"/>
      </g>
     </g>
    </g>
    <g id="ytick_8">
     <g id="line2d_43">
      <path d="M 50.565625 213.193119 
L 442.626962 213.193119 
" clip-path="url(#pdb65ce18ed)" style="fill: none; stroke: #b0b0b0; stroke-width: 0.8; stroke-linecap: square"/>
     </g>
     <g id="line2d_44">
      <g>
       <use xlink:href="#mb8c69433c2" x="50.565625" y="213.193119" style="stroke: #000000; stroke-width: 0.8"/>
      </g>
     </g>
     <g id="text_18">
      <!-- 2 -->
      <g transform="translate(37.203125 216.992337)scale(0.1 -0.1)">
       <use xlink:href="#DejaVuSans-32"/>
      </g>
     </g>
    </g>
    <g id="ytick_9">
     <g id="line2d_45">
      <path d="M 50.565625 187.025437 
L 442.626962 187.025437 
" clip-path="url(#pdb65ce18ed)" style="fill: none; stroke: #b0b0b0; stroke-width: 0.8; stroke-linecap: square"/>
     </g>
     <g id="line2d_46">
      <g>
       <use xlink:href="#mb8c69433c2" x="50.565625" y="187.025437" style="stroke: #000000; stroke-width: 0.8"/>
      </g>
     </g>
     <g id="text_19">
      <!-- 3 -->
      <g transform="translate(37.203125 190.824656)scale(0.1 -0.1)">
       <defs>
        <path id="DejaVuSans-33" d="M 2597 2516 
Q 3050 2419 3304 2112 
Q 3559 1806 3559 1356 
Q 3559 666 3084 287 
Q 2609 -91 1734 -91 
Q 1441 -91 1130 -33 
Q 819 25 488 141 
L 488 750 
Q 750 597 1062 519 
Q 1375 441 1716 441 
Q 2309 441 2620 675 
Q 2931 909 2931 1356 
Q 2931 1769 2642 2001 
Q 2353 2234 1838 2234 
L 1294 2234 
L 1294 2753 
L 1863 2753 
Q 2328 2753 2575 2939 
Q 2822 3125 2822 3475 
Q 2822 3834 2567 4026 
Q 2313 4219 1838 4219 
Q 1578 4219 1281 4162 
Q 984 4106 628 3988 
L 628 4550 
Q 988 4650 1302 4700 
Q 1616 4750 1894 4750 
Q 2613 4750 3031 4423 
Q 3450 4097 3450 3541 
Q 3450 3153 3228 2886 
Q 3006 2619 2597 2516 
z
" transform="scale(0.015625)"/>
       </defs>
       <use xlink:href="#DejaVuSans-33"/>
      </g>
     </g>
    </g>
    <g id="text_20">
     <!-- rot. vel. [rad/s] -->
     <g transform="translate(22.74375 277.439375)rotate(-90)scale(0.1 -0.1)">
      <defs>
       <path id="DejaVuSans-6f" d="M 1959 3097 
Q 1497 3097 1228 2736 
Q 959 2375 959 1747 
Q 959 1119 1226 758 
Q 1494 397 1959 397 
Q 2419 397 2687 759 
Q 2956 1122 2956 1747 
Q 2956 2369 2687 2733 
Q 2419 3097 1959 3097 
z
M 1959 3584 
Q 2709 3584 3137 3096 
Q 3566 2609 3566 1747 
Q 3566 888 3137 398 
Q 2709 -91 1959 -91 
Q 1206 -91 779 398 
Q 353 888 353 1747 
Q 353 2609 779 3096 
Q 1206 3584 1959 3584 
z
" transform="scale(0.015625)"/>
      </defs>
      <use xlink:href="#DejaVuSans-72"/>
      <use xlink:href="#DejaVuSans-6f" x="38.863281"/>
      <use xlink:href="#DejaVuSans-74" x="100.044922"/>
      <use xlink:href="#DejaVuSans-2e" x="139.253906"/>
      <use xlink:href="#DejaVuSans-20" x="171.041016"/>
      <use xlink:href="#DejaVuSans-76" x="202.828125"/>
      <use xlink:href="#DejaVuSans-65" x="262.007812"/>
      <use xlink:href="#DejaVuSans-6c" x="323.53125"/>
      <use xlink:href="#DejaVuSans-2e" x="351.314453"/>
      <use xlink:href="#DejaVuSans-20" x="383.101562"/>
      <use xlink:href="#DejaVuSans-5b" x="414.888672"/>
      <use xlink:href="#DejaVuSans-72" x="453.902344"/>
      <use xlink:href="#DejaVuSans-61" x="495.015625"/>
      <use xlink:href="#DejaVuSans-64" x="556.294922"/>
      <use xlink:href="#DejaVuSans-2f" x="619.771484"/>
      <use xlink:href="#DejaVuSans-73" x="653.462891"/>
      <use xlink:href="#DejaVuSans-5d" x="705.5625"/>
     </g>
    </g>
   </g>
   <g id="line2d_47">
    <path d="M 68.386595 265.528482 
L 424.805992 265.528482 
L 424.805992 265.528482 
" clip-path="url(#pdb65ce18ed)" style="fill: none; stroke: #1f77b4; stroke-width: 1.5; stroke-linecap: square"/>
   </g>
   <g id="line2d_48">
    <path d="M 68.386595 265.528482 
L 68.7602 265.456783 
L 69.133805 265.540318 
L 69.507411 266.682215 
L 69.881016 268.82561 
L 70.254621 268.158334 
L 71.001832 264.398562 
L 71.375437 263.563028 
L 71.749042 263.646502 
L 72.122647 264.482036 
L 73.243463 268.938131 
L 73.990673 272.669642 
L 74.737884 256.906231 
L 75.111489 254.56684 
L 75.8587 263.730239 
L 76.60591 266.097367 
L 76.979515 266.320054 
L 77.726726 263.897189 
L 78.100331 263.423815 
L 78.473936 264.120137 
L 78.847542 266.487266 
L 79.221147 271.332474 
L 80.341963 279.017922 
L 80.715568 286.25852 
L 81.089173 289.963863 
L 81.462778 286.648418 
L 82.209989 273.394487 
L 82.583594 275.34398 
L 83.330804 292.821374 
L 83.70441 296.301676 
L 84.078015 295.359639 
L 84.45162 288.15306 
L 85.198831 257.463603 
L 85.572436 253.258456 
L 85.946041 257.99219 
L 86.319646 257.576124 
L 87.440462 232.531035 
L 87.814067 232.897383 
L 88.187673 234.310438 
L 88.561278 234.28427 
L 89.682093 250.419263 
L 90.055699 251.840168 
L 90.429304 254.038253 
L 90.802909 260.247844 
L 91.176514 271.91863 
L 91.55012 277.180951 
L 91.923725 276.262465 
L 92.29733 272.863283 
L 92.670935 271.583684 
L 93.418146 284.254075 
L 93.791751 285.620028 
L 94.165356 283.78044 
L 94.538962 279.939024 
L 94.912567 278.405598 
L 95.659777 285.005088 
L 96.033383 285.062657 
L 96.406988 285.784885 
L 96.780593 290.241241 
L 97.154198 298.604432 
L 97.527803 293.946584 
L 99.022224 183.335794 
L 99.39583 181.818068 
L 100.516645 224.706899 
L 101.263856 248.079872 
L 101.637461 253.454714 
L 102.011066 256.01653 
L 102.384672 256.126434 
L 102.758277 257.966022 
L 103.131882 268.715706 
L 103.505487 283.419326 
L 103.879093 288.208012 
L 104.626303 282.110942 
L 104.999908 282.639529 
L 105.373514 282.723266 
L 105.747119 287.428215 
L 106.120724 289.825175 
L 106.867934 259.999251 
L 107.24154 254.956739 
L 107.615145 255.404206 
L 107.98875 259.693089 
L 108.362355 258.355921 
L 108.735961 256.516332 
L 109.109566 258.217232 
L 109.483171 261.697533 
L 110.230382 262.922704 
L 110.603987 264.036401 
L 110.977592 262.644804 
L 111.724803 256.071482 
L 112.098408 258.884508 
L 112.472013 260.834 
L 113.219224 269.021868 
L 113.592829 265.261833 
L 113.966434 259.413095 
L 114.340039 258.549561 
L 115.83446 276.819837 
L 116.208065 279.881456 
L 116.955276 275.982471 
L 117.702486 280.048929 
L 118.076092 277.989532 
L 118.449697 274.702871 
L 118.823302 273.310751 
L 119.196907 273.700649 
L 119.570513 275.453884 
L 119.944118 263.173129 
L 120.317723 255.236733 
L 120.691328 257.492387 
L 121.064934 263.312341 
L 121.438539 266.793428 
L 122.185749 265.373229 
L 122.559354 271.303689 
L 122.93296 269.969138 
L 123.306565 265.902418 
L 123.68017 265.484625 
L 124.053775 262.561067 
L 124.427381 261.278851 
L 124.800986 260.862784 
L 125.174591 256.100266 
L 125.548196 257.547339 
L 125.921802 253.425929 
L 126.295407 246.742703 
L 126.669012 246.352805 
L 127.042617 249.194615 
L 127.416223 256.46138 
L 127.789828 259.551784 
L 128.163433 260.276628 
L 128.537038 265.206096 
L 128.910644 266.515004 
L 130.031459 284.115386 
L 130.405064 286.009927 
L 130.77867 285.452555 
L 131.152275 284.560237 
L 131.52588 284.866399 
L 131.899485 289.573965 
L 132.273091 288.877905 
L 132.646696 281.721044 
L 133.020301 271.303689 
L 133.393906 265.206096 
L 133.767512 261.336419 
L 134.514722 267.879648 
L 135.261933 258.133495 
L 135.635538 257.798549 
L 136.009143 257.241177 
L 136.382748 254.763098 
L 136.756354 255.487943 
L 137.129959 255.098044 
L 137.877169 262.226121 
L 138.62438 252.201282 
L 138.997985 253.593402 
L 139.37159 264.036401 
L 140.118801 274.647919 
L 140.492406 274.229236 
L 140.866011 268.577017 
L 141.239616 268.548233 
L 141.613222 270.107826 
L 142.360432 276.429938 
L 142.734037 277.68337 
L 143.481248 278.405598 
L 143.854853 272.167223 
L 144.228458 268.158334 
L 144.602064 268.49328 
L 144.975669 266.320054 
L 146.47009 240.949179 
L 146.843695 241.339077 
L 147.2173 252.813606 
L 147.590905 257.65986 
L 147.964511 253.87078 
L 148.338116 253.983301 
L 148.711721 253.844612 
L 149.085326 253.342193 
L 149.458932 255.404206 
L 149.832537 258.133495 
L 150.206142 254.56684 
L 150.579747 253.203504 
L 150.953353 253.844612 
L 151.326958 257.463603 
L 152.074168 268.130335 
L 152.447774 271.444995 
L 153.568589 277.458328 
L 153.942195 275.231458 
L 154.3158 275.037818 
L 154.689405 277.264687 
L 155.436615 286.815891 
L 155.810221 289.906294 
L 156.183826 288.626695 
L 156.557431 282.749433 
L 156.931036 281.163672 
L 157.304642 275.705094 
L 158.051852 270.107826 
L 158.425457 265.456783 
L 158.799063 262.896013 
L 159.546273 266.013631 
L 159.919878 263.563028 
L 160.293484 258.300968 
L 160.667089 255.014308 
L 161.414299 263.53529 
L 161.787905 261.697533 
L 162.16151 257.492387 
L 162.535115 255.626631 
L 162.90872 259.358143 
L 164.029536 281.579738 
L 164.403141 279.91024 
L 164.776746 274.84156 
L 165.150352 272.141055 
L 165.897562 275.176506 
L 166.271167 274.757823 
L 166.644773 272.112271 
L 167.018378 271.277522 
L 167.391983 275.78883 
L 167.765588 275.176506 
L 169.633615 252.172497 
L 170.00722 252.646132 
L 170.380825 250.751592 
L 170.75443 247.606237 
L 171.128035 246.965129 
L 172.248851 261.891174 
L 172.996062 257.102489 
L 173.369667 259.496831 
L 173.743272 257.686028 
L 174.490483 250.280574 
L 174.864088 248.969573 
L 175.237693 249.110879 
L 175.611298 251.950072 
L 176.358509 259.915514 
L 176.732114 261.08521 
L 177.479325 269.244293 
L 178.60014 286.25852 
L 178.973746 285.591244 
L 179.347351 284.4765 
L 179.720956 285.67498 
L 180.094561 285.813669 
L 180.468166 284.002865 
L 180.841772 286.564681 
L 181.215377 288.320533 
L 181.588982 285.088824 
L 181.962587 278.26691 
L 182.336193 267.879648 
L 182.709798 264.983409 
L 183.830614 272.112271 
L 184.204219 271.66742 
L 184.577824 266.23658 
L 184.951429 254.456936 
L 185.325035 251.141491 
L 186.072245 256.935015 
L 186.44585 255.040475 
L 186.819456 254.708146 
L 187.193061 255.904009 
L 187.940271 269.579239 
L 188.313876 267.239063 
L 188.687482 267.795912 
L 189.061087 271.528732 
L 189.434692 272.61469 
L 189.808297 272.473385 
L 190.181903 271.138833 
L 190.555508 272.141055 
L 191.302718 266.93264 
L 191.676324 272.167223 
L 192.049929 273.839338 
L 193.170745 262.97818 
L 193.54435 262.309857 
L 193.917955 260.499054 
L 194.29156 253.036031 
L 194.665166 253.203504 
L 195.038771 263.451815 
L 195.412376 268.631969 
L 195.785981 268.213286 
L 196.906797 258.217232 
L 197.280402 256.100266 
L 197.654007 256.741375 
L 198.027613 252.952294 
L 198.401218 245.795433 
L 199.148428 241.006748 
L 199.522034 242.398868 
L 200.269244 256.01653 
L 200.642849 258.829556 
L 201.016455 258.549561 
L 201.763665 268.715706 
L 202.884481 262.142384 
L 203.258086 270.107826 
L 203.631691 283.864177 
L 204.005296 285.646196 
L 204.378902 282.249631 
L 204.752507 282.555793 
L 205.126112 283.168116 
L 205.499717 282.333367 
L 205.873323 284.086602 
L 206.620533 274.925297 
L 206.994138 272.863283 
L 207.367744 273.310751 
L 207.741349 274.367925 
L 208.114954 270.832671 
L 208.488559 264.732723 
L 208.862165 262.087432 
L 209.23577 261.501276 
L 209.609375 263.340341 
L 209.98298 258.439657 
L 210.356586 250.139268 
L 210.730191 247.355027 
L 211.103796 248.747148 
L 211.477401 253.677139 
L 211.851006 261.223898 
L 212.224612 263.145391 
L 212.598217 262.254905 
L 212.971822 263.897189 
L 213.345427 267.044114 
L 213.719033 273.088325 
L 214.092638 274.422877 
L 214.839848 265.707417 
L 215.213454 264.175875 
L 215.587059 271.499947 
L 215.960664 274.702871 
L 216.334269 273.755601 
L 216.707875 272.279744 
L 217.08148 269.885401 
L 217.82869 266.849165 
L 218.202296 261.974911 
L 218.949506 266.097367 
L 219.696717 262.03248 
L 220.070322 263.145391 
L 220.817532 269.411766 
L 221.191137 265.540318 
L 221.564743 265.178359 
L 222.311953 255.932793 
L 223.432769 250.055532 
L 223.806374 248.386034 
L 224.179979 245.238062 
L 224.92719 254.56684 
L 225.300795 256.210171 
L 226.048006 263.479553 
L 226.421611 269.969138 
L 226.795216 271.944798 
L 227.168821 267.628962 
L 227.542427 271.583684 
L 227.916032 281.943469 
L 228.663242 285.536292 
L 229.410453 281.663475 
L 229.784058 283.864177 
L 230.157663 281.579738 
L 230.904874 288.987809 
L 231.278479 288.404269 
L 231.652084 286.815891 
L 232.025689 280.967414 
L 232.399295 271.889846 
L 233.146505 262.561067 
L 233.52011 263.284603 
L 233.893716 262.896013 
L 234.267321 258.968244 
L 234.640926 257.437435 
L 235.014531 256.516332 
L 235.388137 255.265517 
L 236.135347 257.186225 
L 236.882557 267.935385 
L 237.256163 268.242071 
L 237.629768 266.877164 
L 238.003373 268.409544 
L 238.376978 273.281966 
L 238.750584 276.456106 
L 239.124189 267.963123 
L 239.497794 267.6567 
L 239.871399 269.634191 
L 240.61861 261.168946 
L 241.36582 261.391372 
L 241.739426 260.360365 
L 242.113031 255.571679 
L 242.860241 268.325807 
L 243.233847 268.158334 
L 243.607452 268.49328 
L 243.981057 265.874419 
L 244.354662 258.968244 
L 245.101873 253.036031 
L 245.475478 255.430374 
L 245.849083 255.681583 
L 246.222688 252.536228 
L 246.596294 250.725425 
L 247.343504 254.344415 
L 247.717109 251.950072 
L 248.090715 247.326243 
L 248.46432 249.110879 
L 248.837925 252.311186 
L 249.21153 246.520278 
L 249.585136 244.709474 
L 249.958741 248.46977 
L 250.705951 259.525616 
L 251.079557 262.699756 
L 251.453162 270.246515 
L 251.826767 280.493779 
L 252.200372 281.441049 
L 252.573978 282.945691 
L 252.947583 285.394986 
L 253.321188 284.254075 
L 254.068398 272.447217 
L 254.442004 276.652364 
L 255.189214 290.827397 
L 255.562819 293.292392 
L 255.936425 291.722332 
L 256.31003 286.425993 
L 257.05724 262.506115 
L 257.430846 257.463603 
L 257.804451 258.60713 
L 258.178056 257.047536 
L 258.551661 259.551784 
L 258.925267 265.345387 
L 259.298872 268.715706 
L 259.672477 267.6567 
L 260.419688 256.322692 
L 260.793293 259.915514 
L 261.166898 264.760461 
L 261.914108 269.244293 
L 262.287714 266.960639 
L 262.661319 261.278851 
L 263.034924 258.243399 
L 263.782135 273.810553 
L 264.15574 273.868122 
L 264.529345 268.519448 
L 264.90295 260.611575 
L 265.276556 259.441879 
L 265.650161 261.417539 
L 266.397371 251.282796 
L 267.518187 269.189341 
L 267.891792 270.217731 
L 268.265398 268.658137 
L 268.639003 268.297023 
L 269.386213 256.26774 
L 269.759818 258.884508 
L 270.133424 258.272184 
L 271.254239 249.806939 
L 271.627845 248.775932 
L 272.00145 246.297853 
L 272.375055 245.685529 
L 273.122266 257.157441 
L 273.495871 259.135717 
L 273.869476 259.135717 
L 274.243081 256.851279 
L 274.616687 257.91107 
L 274.990292 256.293907 
L 275.363897 257.296129 
L 275.737502 268.01886 
L 276.111108 268.631969 
L 276.484713 267.963123 
L 277.231923 273.449439 
L 277.605528 278.099436 
L 277.979134 290.379929 
L 278.352739 294.522273 
L 278.726344 296.720359 
L 279.099949 298.028743 
L 279.473555 296.720359 
L 279.84716 290.521235 
L 280.59437 282.027205 
L 280.967976 276.513675 
L 281.341581 268.325807 
L 281.715186 272.279744 
L 282.088791 271.22257 
L 282.462397 267.044114 
L 283.209607 262.97818 
L 283.583212 259.525616 
L 283.956818 252.758653 
L 284.330423 253.119767 
L 284.704028 262.03248 
L 285.077633 266.347792 
L 285.451238 265.178359 
L 285.824844 266.04163 
L 286.198449 266.320054 
L 286.572054 263.145391 
L 286.945659 261.558845 
L 287.319265 259.274406 
L 288.066475 270.552677 
L 288.44008 268.82561 
L 288.813686 264.704985 
L 289.187291 262.867229 
L 289.560896 267.044114 
L 289.934501 264.871935 
L 290.308107 260.415317 
L 291.055317 272.473385 
L 291.428922 270.607629 
L 291.802528 270.97136 
L 292.176133 271.722372 
L 292.549738 268.351975 
L 292.923343 262.950442 
L 293.296949 255.820272 
L 293.670554 255.849057 
L 294.044159 257.463603 
L 294.417764 255.346637 
L 294.791369 253.928349 
L 295.164975 257.379866 
L 295.53858 261.865007 
L 295.912185 257.157441 
L 296.28579 249.639466 
L 296.659396 248.414818 
L 297.033001 252.981079 
L 297.406606 254.038253 
L 297.780211 253.425929 
L 298.153817 253.370977 
L 298.527422 252.952294 
L 298.901027 253.928349 
L 299.274632 256.045314 
L 299.648238 260.637742 
L 300.021843 266.709953 
L 300.395448 267.851649 
L 300.769053 274.506614 
L 301.516264 290.215073 
L 302.263474 277.042262 
L 302.637079 278.628024 
L 303.010685 286.928412 
L 303.38429 292.062511 
L 303.757895 293.109219 
L 304.1315 293.030716 
L 304.878711 275.286411 
L 305.252316 270.691366 
L 305.625921 275.34398 
L 305.999527 276.874789 
L 307.120342 265.679548 
L 307.493948 263.70224 
L 308.614763 247.020081 
L 308.988369 251.866335 
L 309.361974 258.382088 
L 310.109184 265.651706 
L 310.482789 267.016376 
L 311.23 255.987745 
L 311.603605 258.382088 
L 311.97721 262.058647 
L 312.350816 260.499054 
L 312.724421 259.941682 
L 313.098026 261.391372 
L 313.471631 264.927672 
L 313.845237 266.598479 
L 314.218842 265.596021 
L 314.592447 265.763102 
L 314.966052 267.016376 
L 315.339658 267.266801 
L 316.086868 264.565511 
L 317.207684 254.624409 
L 317.581289 258.662082 
L 317.954894 267.990861 
L 318.702105 259.609352 
L 319.07571 256.822494 
L 319.449315 251.866335 
L 319.82292 248.969573 
L 320.196526 243.819773 
L 320.570131 245.824218 
L 320.943736 255.124212 
L 321.317341 255.291685 
L 321.690947 252.172497 
L 322.064552 254.56684 
L 322.811762 256.628854 
L 323.185368 258.968244 
L 323.558973 254.289463 
L 324.306183 265.540318 
L 324.679789 264.78846 
L 325.053394 260.247844 
L 325.426999 258.93946 
L 325.800604 260.666527 
L 326.17421 261.807438 
L 326.92142 278.350646 
L 327.295025 280.85751 
L 328.042236 291.133559 
L 328.415841 295.882993 
L 328.789446 296.615688 
L 329.163051 294.155926 
L 329.536657 287.456999 
L 329.910262 282.974476 
L 330.283867 281.608523 
L 330.657472 276.984693 
L 331.031078 269.021868 
L 332.151893 252.562396 
L 332.525499 254.650577 
L 332.899104 267.935385 
L 333.272709 274.006811 
L 333.646314 273.504391 
L 334.01992 269.244293 
L 334.76713 255.459158 
L 335.140735 252.952294 
L 335.51434 253.090983 
L 335.887946 258.578346 
L 336.261551 266.821427 
L 336.635156 268.909347 
L 337.008761 264.175875 
L 337.382367 266.20858 
L 337.755972 269.550455 
L 338.129577 265.317518 
L 338.503182 264.704985 
L 338.876788 270.442773 
L 339.250393 274.422877 
L 339.623998 274.229236 
L 340.744814 264.732723 
L 341.118419 259.748041 
L 341.492024 259.470664 
L 342.239235 264.565511 
L 343.36005 255.597847 
L 343.733656 254.48572 
L 344.107261 254.875619 
L 344.480866 257.379866 
L 345.228077 265.206096 
L 345.975287 260.13794 
L 346.348892 259.915514 
L 346.722498 258.075926 
L 347.096103 257.047536 
L 347.469708 257.91107 
L 348.216919 256.851279 
L 348.590524 255.655416 
L 348.964129 257.102489 
L 349.337734 260.025419 
L 349.71134 264.092138 
L 350.084945 265.401072 
L 350.832155 275.898734 
L 351.20576 277.793275 
L 351.579366 278.099436 
L 351.952971 280.020144 
L 352.326576 286.371041 
L 352.700181 290.215073 
L 353.073787 292.664368 
L 353.447392 292.298021 
L 353.820997 290.408714 
L 354.194602 290.0476 
L 354.568208 289.935079 
L 354.941813 288.040539 
L 356.062629 266.487266 
L 356.809839 263.591027 
L 357.183444 263.50729 
L 357.55705 265.261833 
L 357.930655 271.693588 
L 358.30426 271.66742 
L 359.05147 261.974911 
L 359.425076 259.413095 
L 359.798681 259.719257 
L 360.172286 261.417539 
L 361.293102 269.105604 
L 361.666707 270.887623 
L 362.040312 271.66742 
L 362.413918 267.155589 
L 362.787523 253.425929 
L 363.161128 245.460487 
L 363.534733 248.163608 
L 364.281944 269.940353 
L 364.655549 269.856617 
L 365.40276 260.527838 
L 365.776365 254.373199 
L 366.14997 245.128157 
L 366.523575 246.465326 
L 366.897181 258.355921 
L 367.270786 261.08521 
L 367.644391 254.708146 
L 368.017996 244.432097 
L 368.391601 241.50655 
L 368.765207 249.333304 
L 369.512417 268.01886 
L 369.886022 265.51247 
L 370.633233 241.174221 
L 371.006838 242.147658 
L 371.754049 273.281966 
L 372.127654 278.934185 
L 372.874864 269.466718 
L 373.24847 270.581461 
L 373.99568 281.469834 
L 374.369285 279.965192 
L 374.742891 274.1455 
L 375.116496 271.387426 
L 375.490101 270.330252 
L 375.863706 268.548233 
L 376.610917 262.281073 
L 376.984522 260.13794 
L 377.358127 259.161885 
L 377.731732 260.444102 
L 378.478943 271.248737 
L 378.852548 281.80478 
L 379.226153 286.093663 
L 379.599759 278.71176 
L 380.346969 260.276628 
L 380.720574 258.327136 
L 381.09418 258.300968 
L 381.467785 257.743597 
L 381.84139 256.851279 
L 382.214995 257.966022 
L 382.588601 260.805216 
L 382.962206 261.446324 
L 383.709416 257.576124 
L 384.083021 257.047536 
L 384.456627 257.547339 
L 384.830232 255.794104 
L 385.203837 252.172497 
L 385.577442 251.698862 
L 386.324653 253.677139 
L 386.698258 253.258456 
L 387.445469 244.848163 
L 387.819074 244.042199 
L 388.192679 245.907954 
L 388.566284 245.824218 
L 388.93989 243.845941 
L 389.313495 242.814934 
L 389.6871 243.233617 
L 390.060705 244.905732 
L 390.807916 249.137046 
L 391.555126 259.470664 
L 391.928731 260.415317 
L 392.302337 260.166724 
L 392.675942 260.721479 
L 393.049547 261.558845 
L 393.423152 262.783492 
L 393.796758 262.754708 
L 394.543968 259.664305 
L 395.291179 253.287241 
L 395.664784 249.41704 
L 396.038389 249.694418 
L 396.411994 251.782599 
L 396.7856 253.203504 
L 397.159205 253.009863 
L 397.53281 252.285018 
L 397.906415 252.14633 
L 398.653626 252.784821 
L 399.027231 252.926127 
L 399.400836 253.287241 
L 400.148047 261.78127 
L 400.521652 263.423815 
L 400.895257 261.585012 
L 401.642468 259.274406 
L 403.136889 256.545117 
L 403.884099 255.849057 
L 404.63131 255.236733 
L 405.004915 254.56684 
L 405.37852 254.456936 
L 405.752125 255.710368 
L 406.499336 259.245622 
L 406.872941 263.340341 
L 407.246546 268.883179 
L 407.620152 271.554899 
L 407.993757 271.387426 
L 408.740967 270.330252 
L 410.982599 267.768174 
L 411.356204 267.183326 
L 412.103414 265.234096 
L 412.47702 264.732723 
L 412.850625 264.983409 
L 413.22423 265.51247 
L 413.597835 265.707417 
L 414.345046 265.790944 
L 415.839467 265.51247 
L 416.213072 265.623863 
L 417.333888 265.540318 
L 418.081098 265.651706 
L 418.828309 265.484625 
L 419.949124 265.568178 
L 420.696335 265.51247 
L 421.817151 265.568178 
L 424.805992 265.51247 
L 424.805992 265.51247 
" clip-path="url(#pdb65ce18ed)" style="fill: none; stroke: #ff7f0e; stroke-width: 1.5; stroke-linecap: square"/>
   </g>
   <g id="patch_9">
    <path d="M 50.565625 304.44375 
L 50.565625 175.97875 
" style="fill: none; stroke: #000000; stroke-width: 0.8; stroke-linejoin: miter; stroke-linecap: square"/>
   </g>
   <g id="patch_10">
    <path d="M 442.626962 304.44375 
L 442.626962 175.97875 
" style="fill: none; stroke: #000000; stroke-width: 0.8; stroke-linejoin: miter; stroke-linecap: square"/>
   </g>
   <g id="patch_11">
    <path d="M 50.565625 304.44375 
L 442.626962 304.44375 
" style="fill: none; stroke: #000000; stroke-width: 0.8; stroke-linejoin: miter; stroke-linecap: square"/>
   </g>
   <g id="patch_12">
    <path d="M 50.565625 175.97875 
L 442.626962 175.97875 
" style="fill: none; stroke: #000000; stroke-width: 0.8; stroke-linejoin: miter; stroke-linecap: square"/>
   </g>
   <g id="legend_2">
    <g id="patch_13">
     <path d="M 353.109775 213.335 
L 435.626962 213.335 
Q 437.626962 213.335 437.626962 211.335 
L 437.626962 182.97875 
Q 437.626962 180.97875 435.626962 180.97875 
L 353.109775 180.97875 
Q 351.109775 180.97875 351.109775 182.97875 
L 351.109775 211.335 
Q 351.109775 213.335 353.109775 213.335 
z
" style="fill: #ffffff; opacity: 0.8; stroke: #cccccc; stroke-linejoin: miter"/>
    </g>
    <g id="line2d_49">
     <path d="M 355.109775 189.077187 
L 365.109775 189.077187 
L 375.109775 189.077187 
" style="fill: none; stroke: #1f77b4; stroke-width: 1.5; stroke-linecap: square"/>
    </g>
    <g id="text_21">
     <!-- Reference -->
     <g transform="translate(383.109775 192.577187)scale(0.1 -0.1)">
      <use xlink:href="#DejaVuSans-52"/>
      <use xlink:href="#DejaVuSans-65" x="64.982422"/>
      <use xlink:href="#DejaVuSans-66" x="126.505859"/>
      <use xlink:href="#DejaVuSans-65" x="161.710938"/>
      <use xlink:href="#DejaVuSans-72" x="223.234375"/>
      <use xlink:href="#DejaVuSans-65" x="262.097656"/>
      <use xlink:href="#DejaVuSans-6e" x="323.621094"/>
      <use xlink:href="#DejaVuSans-63" x="387"/>
      <use xlink:href="#DejaVuSans-65" x="441.980469"/>
     </g>
    </g>
    <g id="line2d_50">
     <path d="M 355.109775 203.755312 
L 365.109775 203.755312 
L 375.109775 203.755312 
" style="fill: none; stroke: #ff7f0e; stroke-width: 1.5; stroke-linecap: square"/>
    </g>
    <g id="text_22">
     <!-- Estimated -->
     <g transform="translate(383.109775 207.255312)scale(0.1 -0.1)">
      <use xlink:href="#DejaVuSans-45"/>
      <use xlink:href="#DejaVuSans-73" x="63.183594"/>
      <use xlink:href="#DejaVuSans-74" x="115.283203"/>
      <use xlink:href="#DejaVuSans-69" x="154.492188"/>
      <use xlink:href="#DejaVuSans-6d" x="182.275391"/>
      <use xlink:href="#DejaVuSans-61" x="279.6875"/>
      <use xlink:href="#DejaVuSans-74" x="340.966797"/>
      <use xlink:href="#DejaVuSans-65" x="380.175781"/>
      <use xlink:href="#DejaVuSans-64" x="441.699219"/>
     </g>
    </g>
   </g>
  </g>
  <g id="text_23">
   <!-- Translational and Rotational Velocity -->
   <g transform="translate(121.384688 16.030125)scale(0.12 -0.12)">
    <defs>
     <path id="DejaVuSans-56" d="M 1831 0 
L 50 4666 
L 709 4666 
L 2188 738 
L 3669 4666 
L 4325 4666 
L 2547 0 
L 1831 0 
z
" transform="scale(0.015625)"/>
     <path id="DejaVuSans-79" d="M 2059 -325 
Q 1816 -950 1584 -1140 
Q 1353 -1331 966 -1331 
L 506 -1331 
L 506 -850 
L 844 -850 
Q 1081 -850 1212 -737 
Q 1344 -625 1503 -206 
L 1606 56 
L 191 3500 
L 800 3500 
L 1894 763 
L 2988 3500 
L 3597 3500 
L 2059 -325 
z
" transform="scale(0.015625)"/>
    </defs>
    <use xlink:href="#DejaVuSans-54"/>
    <use xlink:href="#DejaVuSans-72" x="46.333984"/>
    <use xlink:href="#DejaVuSans-61" x="87.447266"/>
    <use xlink:href="#DejaVuSans-6e" x="148.726562"/>
    <use xlink:href="#DejaVuSans-73" x="212.105469"/>
    <use xlink:href="#DejaVuSans-6c" x="264.205078"/>
    <use xlink:href="#DejaVuSans-61" x="291.988281"/>
    <use xlink:href="#DejaVuSans-74" x="353.267578"/>
    <use xlink:href="#DejaVuSans-69" x="392.476562"/>
    <use xlink:href="#DejaVuSans-6f" x="420.259766"/>
    <use xlink:href="#DejaVuSans-6e" x="481.441406"/>
    <use xlink:href="#DejaVuSans-61" x="544.820312"/>
    <use xlink:href="#DejaVuSans-6c" x="606.099609"/>
    <use xlink:href="#DejaVuSans-20" x="633.882812"/>
    <use xlink:href="#DejaVuSans-61" x="665.669922"/>
    <use xlink:href="#DejaVuSans-6e" x="726.949219"/>
    <use xlink:href="#DejaVuSans-64" x="790.328125"/>
    <use xlink:href="#DejaVuSans-20" x="853.804688"/>
    <use xlink:href="#DejaVuSans-52" x="885.591797"/>
    <use xlink:href="#DejaVuSans-6f" x="950.574219"/>
    <use xlink:href="#DejaVuSans-74" x="1011.755859"/>
    <use xlink:href="#DejaVuSans-61" x="1050.964844"/>
    <use xlink:href="#DejaVuSans-74" x="1112.244141"/>
    <use xlink:href="#DejaVuSans-69" x="1151.453125"/>
    <use xlink:href="#DejaVuSans-6f" x="1179.236328"/>
    <use xlink:href="#DejaVuSans-6e" x="1240.417969"/>
    <use xlink:href="#DejaVuSans-61" x="1303.796875"/>
    <use xlink:href="#DejaVuSans-6c" x="1365.076172"/>
    <use xlink:href="#DejaVuSans-20" x="1392.859375"/>
    <use xlink:href="#DejaVuSans-56" x="1424.646484"/>
    <use xlink:href="#DejaVuSans-65" x="1485.304688"/>
    <use xlink:href="#DejaVuSans-6c" x="1546.828125"/>
    <use xlink:href="#DejaVuSans-6f" x="1574.611328"/>
    <use xlink:href="#DejaVuSans-63" x="1635.792969"/>
    <use xlink:href="#DejaVuSans-69" x="1690.773438"/>
    <use xlink:href="#DejaVuSans-74" x="1718.556641"/>
    <use xlink:href="#DejaVuSans-79" x="1757.765625"/>
   </g>
  </g>
 </g>
 <defs>
  <clipPath id="pcbbfa64af8">
   <rect x="50.565625" y="33.21375" width="392.061337" height="128.465"/>
  </clipPath>
  <clipPath id="pdb65ce18ed">
   <rect x="50.565625" y="175.97875" width="392.061337" height="128.465"/>
  </clipPath>
 </defs>
</svg>
