<?xml version="1.0" encoding="utf-8" standalone="no"?>
<!DOCTYPE svg PUBLIC "-//W3C//DTD SVG 1.1//EN"
  "http://www.w3.org/Graphics/SVG/1.1/DTD/svg11.dtd">
<svg xmlns:xlink="http://www.w3.org/1999/xlink" width="576pt" height="720pt" viewBox="0 0 576 720" xmlns="http://www.w3.org/2000/svg" version="1.1">
 <metadata>
  <rdf:RDF xmlns:dc="http://purl.org/dc/elements/1.1/" xmlns:cc="http://creativecommons.org/ns#" xmlns:rdf="http://www.w3.org/1999/02/22-rdf-syntax-ns#">
   <cc:Work>
    <dc:type rdf:resource="http://purl.org/dc/dcmitype/StillImage"/>
    <dc:date>2022-01-09T22:59:54.888222</dc:date>
    <dc:format>image/svg+xml</dc:format>
    <dc:creator>
     <cc:Agent>
      <dc:title>Matplotlib v3.5.1, https://matplotlib.org/</dc:title>
     </cc:Agent>
    </dc:creator>
   </cc:Work>
  </rdf:RDF>
 </metadata>
 <defs>
  <style type="text/css">*{stroke-linejoin: round; stroke-linecap: butt}</style>
 </defs>
 <g id="figure_1">
  <g id="patch_1">
   <path d="M 0 720 
L 576 720 
L 576 0 
L 0 0 
z
" style="fill: #ffffff"/>
  </g>
  <g id="axes_1">
   <g id="patch_2">
    <path d="M 62.57 323.44 
L 565.2 323.44 
L 565.2 25.44 
L 62.57 25.44 
z
" style="fill: #ffffff"/>
   </g>
   <g id="matplotlib.axis_1">
    <g id="xtick_1">
     <g id="line2d_1">
      <path d="M 85.416818 323.44 
L 85.416818 25.44 
" clip-path="url(#p17ec7d1e70)" style="fill: none; stroke: #b0b0b0; stroke-width: 0.8; stroke-linecap: square"/>
     </g>
     <g id="line2d_2">
      <defs>
       <path id="m25e01dd613" d="M 0 0 
L 0 3.5 
" style="stroke: #000000; stroke-width: 0.8"/>
      </defs>
      <g>
       <use xlink:href="#m25e01dd613" x="85.416818" y="323.44" style="stroke: #000000; stroke-width: 0.8"/>
      </g>
     </g>
     <g id="text_1">
      <!-- 0 -->
      <g transform="translate(82.235568 338.038438)scale(0.1 -0.1)">
       <defs>
        <path id="DejaVuSans-30" d="M 2034 4250 
Q 1547 4250 1301 3770 
Q 1056 3291 1056 2328 
Q 1056 1369 1301 889 
Q 1547 409 2034 409 
Q 2525 409 2770 889 
Q 3016 1369 3016 2328 
Q 3016 3291 2770 3770 
Q 2525 4250 2034 4250 
z
M 2034 4750 
Q 2819 4750 3233 4129 
Q 3647 3509 3647 2328 
Q 3647 1150 3233 529 
Q 2819 -91 2034 -91 
Q 1250 -91 836 529 
Q 422 1150 422 2328 
Q 422 3509 836 4129 
Q 1250 4750 2034 4750 
z
" transform="scale(0.015625)"/>
       </defs>
       <use xlink:href="#DejaVuSans-30"/>
      </g>
     </g>
    </g>
    <g id="xtick_2">
     <g id="line2d_3">
      <path d="M 170.034663 323.44 
L 170.034663 25.44 
" clip-path="url(#p17ec7d1e70)" style="fill: none; stroke: #b0b0b0; stroke-width: 0.8; stroke-linecap: square"/>
     </g>
     <g id="line2d_4">
      <g>
       <use xlink:href="#m25e01dd613" x="170.034663" y="323.44" style="stroke: #000000; stroke-width: 0.8"/>
      </g>
     </g>
     <g id="text_2">
      <!-- 50 -->
      <g transform="translate(163.672163 338.038438)scale(0.1 -0.1)">
       <defs>
        <path id="DejaVuSans-35" d="M 691 4666 
L 3169 4666 
L 3169 4134 
L 1269 4134 
L 1269 2991 
Q 1406 3038 1543 3061 
Q 1681 3084 1819 3084 
Q 2600 3084 3056 2656 
Q 3513 2228 3513 1497 
Q 3513 744 3044 326 
Q 2575 -91 1722 -91 
Q 1428 -91 1123 -41 
Q 819 9 494 109 
L 494 744 
Q 775 591 1075 516 
Q 1375 441 1709 441 
Q 2250 441 2565 725 
Q 2881 1009 2881 1497 
Q 2881 1984 2565 2268 
Q 2250 2553 1709 2553 
Q 1456 2553 1204 2497 
Q 953 2441 691 2322 
L 691 4666 
z
" transform="scale(0.015625)"/>
       </defs>
       <use xlink:href="#DejaVuSans-35"/>
       <use xlink:href="#DejaVuSans-30" x="63.623047"/>
      </g>
     </g>
    </g>
    <g id="xtick_3">
     <g id="line2d_5">
      <path d="M 254.652508 323.44 
L 254.652508 25.44 
" clip-path="url(#p17ec7d1e70)" style="fill: none; stroke: #b0b0b0; stroke-width: 0.8; stroke-linecap: square"/>
     </g>
     <g id="line2d_6">
      <g>
       <use xlink:href="#m25e01dd613" x="254.652508" y="323.44" style="stroke: #000000; stroke-width: 0.8"/>
      </g>
     </g>
     <g id="text_3">
      <!-- 100 -->
      <g transform="translate(245.108758 338.038438)scale(0.1 -0.1)">
       <defs>
        <path id="DejaVuSans-31" d="M 794 531 
L 1825 531 
L 1825 4091 
L 703 3866 
L 703 4441 
L 1819 4666 
L 2450 4666 
L 2450 531 
L 3481 531 
L 3481 0 
L 794 0 
L 794 531 
z
" transform="scale(0.015625)"/>
       </defs>
       <use xlink:href="#DejaVuSans-31"/>
       <use xlink:href="#DejaVuSans-30" x="63.623047"/>
       <use xlink:href="#DejaVuSans-30" x="127.246094"/>
      </g>
     </g>
    </g>
    <g id="xtick_4">
     <g id="line2d_7">
      <path d="M 339.270354 323.44 
L 339.270354 25.44 
" clip-path="url(#p17ec7d1e70)" style="fill: none; stroke: #b0b0b0; stroke-width: 0.8; stroke-linecap: square"/>
     </g>
     <g id="line2d_8">
      <g>
       <use xlink:href="#m25e01dd613" x="339.270354" y="323.44" style="stroke: #000000; stroke-width: 0.8"/>
      </g>
     </g>
     <g id="text_4">
      <!-- 150 -->
      <g transform="translate(329.726604 338.038438)scale(0.1 -0.1)">
       <use xlink:href="#DejaVuSans-31"/>
       <use xlink:href="#DejaVuSans-35" x="63.623047"/>
       <use xlink:href="#DejaVuSans-30" x="127.246094"/>
      </g>
     </g>
    </g>
    <g id="xtick_5">
     <g id="line2d_9">
      <path d="M 423.888199 323.44 
L 423.888199 25.44 
" clip-path="url(#p17ec7d1e70)" style="fill: none; stroke: #b0b0b0; stroke-width: 0.8; stroke-linecap: square"/>
     </g>
     <g id="line2d_10">
      <g>
       <use xlink:href="#m25e01dd613" x="423.888199" y="323.44" style="stroke: #000000; stroke-width: 0.8"/>
      </g>
     </g>
     <g id="text_5">
      <!-- 200 -->
      <g transform="translate(414.344449 338.038438)scale(0.1 -0.1)">
       <defs>
        <path id="DejaVuSans-32" d="M 1228 531 
L 3431 531 
L 3431 0 
L 469 0 
L 469 531 
Q 828 903 1448 1529 
Q 2069 2156 2228 2338 
Q 2531 2678 2651 2914 
Q 2772 3150 2772 3378 
Q 2772 3750 2511 3984 
Q 2250 4219 1831 4219 
Q 1534 4219 1204 4116 
Q 875 4013 500 3803 
L 500 4441 
Q 881 4594 1212 4672 
Q 1544 4750 1819 4750 
Q 2544 4750 2975 4387 
Q 3406 4025 3406 3419 
Q 3406 3131 3298 2873 
Q 3191 2616 2906 2266 
Q 2828 2175 2409 1742 
Q 1991 1309 1228 531 
z
" transform="scale(0.015625)"/>
       </defs>
       <use xlink:href="#DejaVuSans-32"/>
       <use xlink:href="#DejaVuSans-30" x="63.623047"/>
       <use xlink:href="#DejaVuSans-30" x="127.246094"/>
      </g>
     </g>
    </g>
    <g id="xtick_6">
     <g id="line2d_11">
      <path d="M 508.506044 323.44 
L 508.506044 25.44 
" clip-path="url(#p17ec7d1e70)" style="fill: none; stroke: #b0b0b0; stroke-width: 0.8; stroke-linecap: square"/>
     </g>
     <g id="line2d_12">
      <g>
       <use xlink:href="#m25e01dd613" x="508.506044" y="323.44" style="stroke: #000000; stroke-width: 0.8"/>
      </g>
     </g>
     <g id="text_6">
      <!-- 250 -->
      <g transform="translate(498.962294 338.038438)scale(0.1 -0.1)">
       <use xlink:href="#DejaVuSans-32"/>
       <use xlink:href="#DejaVuSans-35" x="63.623047"/>
       <use xlink:href="#DejaVuSans-30" x="127.246094"/>
      </g>
     </g>
    </g>
    <g id="text_7">
     <!-- x [mm] -->
     <g transform="translate(295.694375 351.716563)scale(0.1 -0.1)">
      <defs>
       <path id="DejaVuSans-78" d="M 3513 3500 
L 2247 1797 
L 3578 0 
L 2900 0 
L 1881 1375 
L 863 0 
L 184 0 
L 1544 1831 
L 300 3500 
L 978 3500 
L 1906 2253 
L 2834 3500 
L 3513 3500 
z
" transform="scale(0.015625)"/>
       <path id="DejaVuSans-20" transform="scale(0.015625)"/>
       <path id="DejaVuSans-5b" d="M 550 4863 
L 1875 4863 
L 1875 4416 
L 1125 4416 
L 1125 -397 
L 1875 -397 
L 1875 -844 
L 550 -844 
L 550 4863 
z
" transform="scale(0.015625)"/>
       <path id="DejaVuSans-6d" d="M 3328 2828 
Q 3544 3216 3844 3400 
Q 4144 3584 4550 3584 
Q 5097 3584 5394 3201 
Q 5691 2819 5691 2113 
L 5691 0 
L 5113 0 
L 5113 2094 
Q 5113 2597 4934 2840 
Q 4756 3084 4391 3084 
Q 3944 3084 3684 2787 
Q 3425 2491 3425 1978 
L 3425 0 
L 2847 0 
L 2847 2094 
Q 2847 2600 2669 2842 
Q 2491 3084 2119 3084 
Q 1678 3084 1418 2786 
Q 1159 2488 1159 1978 
L 1159 0 
L 581 0 
L 581 3500 
L 1159 3500 
L 1159 2956 
Q 1356 3278 1631 3431 
Q 1906 3584 2284 3584 
Q 2666 3584 2933 3390 
Q 3200 3197 3328 2828 
z
" transform="scale(0.015625)"/>
       <path id="DejaVuSans-5d" d="M 1947 4863 
L 1947 -844 
L 622 -844 
L 622 -397 
L 1369 -397 
L 1369 4416 
L 622 4416 
L 622 4863 
L 1947 4863 
z
" transform="scale(0.015625)"/>
      </defs>
      <use xlink:href="#DejaVuSans-78"/>
      <use xlink:href="#DejaVuSans-20" x="59.179688"/>
      <use xlink:href="#DejaVuSans-5b" x="90.966797"/>
      <use xlink:href="#DejaVuSans-6d" x="129.980469"/>
      <use xlink:href="#DejaVuSans-6d" x="227.392578"/>
      <use xlink:href="#DejaVuSans-5d" x="324.804688"/>
     </g>
    </g>
   </g>
   <g id="matplotlib.axis_2">
    <g id="ytick_1">
     <g id="line2d_13">
      <path d="M 62.57 310.177037 
L 565.2 310.177037 
" clip-path="url(#p17ec7d1e70)" style="fill: none; stroke: #b0b0b0; stroke-width: 0.8; stroke-linecap: square"/>
     </g>
     <g id="line2d_14">
      <defs>
       <path id="me0b594f1c1" d="M 0 0 
L -3.5 0 
" style="stroke: #000000; stroke-width: 0.8"/>
      </defs>
      <g>
       <use xlink:href="#me0b594f1c1" x="62.57" y="310.177037" style="stroke: #000000; stroke-width: 0.8"/>
      </g>
     </g>
     <g id="text_8">
      <!-- 0 -->
      <g transform="translate(49.2075 313.976255)scale(0.1 -0.1)">
       <use xlink:href="#DejaVuSans-30"/>
      </g>
     </g>
    </g>
    <g id="ytick_2">
     <g id="line2d_15">
      <path d="M 62.57 253.67879 
L 565.2 253.67879 
" clip-path="url(#p17ec7d1e70)" style="fill: none; stroke: #b0b0b0; stroke-width: 0.8; stroke-linecap: square"/>
     </g>
     <g id="line2d_16">
      <g>
       <use xlink:href="#me0b594f1c1" x="62.57" y="253.67879" style="stroke: #000000; stroke-width: 0.8"/>
      </g>
     </g>
     <g id="text_9">
      <!-- 200 -->
      <g transform="translate(36.4825 257.478009)scale(0.1 -0.1)">
       <use xlink:href="#DejaVuSans-32"/>
       <use xlink:href="#DejaVuSans-30" x="63.623047"/>
       <use xlink:href="#DejaVuSans-30" x="127.246094"/>
      </g>
     </g>
    </g>
    <g id="ytick_3">
     <g id="line2d_17">
      <path d="M 62.57 197.180544 
L 565.2 197.180544 
" clip-path="url(#p17ec7d1e70)" style="fill: none; stroke: #b0b0b0; stroke-width: 0.8; stroke-linecap: square"/>
     </g>
     <g id="line2d_18">
      <g>
       <use xlink:href="#me0b594f1c1" x="62.57" y="197.180544" style="stroke: #000000; stroke-width: 0.8"/>
      </g>
     </g>
     <g id="text_10">
      <!-- 400 -->
      <g transform="translate(36.4825 200.979763)scale(0.1 -0.1)">
       <defs>
        <path id="DejaVuSans-34" d="M 2419 4116 
L 825 1625 
L 2419 1625 
L 2419 4116 
z
M 2253 4666 
L 3047 4666 
L 3047 1625 
L 3713 1625 
L 3713 1100 
L 3047 1100 
L 3047 0 
L 2419 0 
L 2419 1100 
L 313 1100 
L 313 1709 
L 2253 4666 
z
" transform="scale(0.015625)"/>
       </defs>
       <use xlink:href="#DejaVuSans-34"/>
       <use xlink:href="#DejaVuSans-30" x="63.623047"/>
       <use xlink:href="#DejaVuSans-30" x="127.246094"/>
      </g>
     </g>
    </g>
    <g id="ytick_4">
     <g id="line2d_19">
      <path d="M 62.57 140.682298 
L 565.2 140.682298 
" clip-path="url(#p17ec7d1e70)" style="fill: none; stroke: #b0b0b0; stroke-width: 0.8; stroke-linecap: square"/>
     </g>
     <g id="line2d_20">
      <g>
       <use xlink:href="#me0b594f1c1" x="62.57" y="140.682298" style="stroke: #000000; stroke-width: 0.8"/>
      </g>
     </g>
     <g id="text_11">
      <!-- 600 -->
      <g transform="translate(36.4825 144.481517)scale(0.1 -0.1)">
       <defs>
        <path id="DejaVuSans-36" d="M 2113 2584 
Q 1688 2584 1439 2293 
Q 1191 2003 1191 1497 
Q 1191 994 1439 701 
Q 1688 409 2113 409 
Q 2538 409 2786 701 
Q 3034 994 3034 1497 
Q 3034 2003 2786 2293 
Q 2538 2584 2113 2584 
z
M 3366 4563 
L 3366 3988 
Q 3128 4100 2886 4159 
Q 2644 4219 2406 4219 
Q 1781 4219 1451 3797 
Q 1122 3375 1075 2522 
Q 1259 2794 1537 2939 
Q 1816 3084 2150 3084 
Q 2853 3084 3261 2657 
Q 3669 2231 3669 1497 
Q 3669 778 3244 343 
Q 2819 -91 2113 -91 
Q 1303 -91 875 529 
Q 447 1150 447 2328 
Q 447 3434 972 4092 
Q 1497 4750 2381 4750 
Q 2619 4750 2861 4703 
Q 3103 4656 3366 4563 
z
" transform="scale(0.015625)"/>
       </defs>
       <use xlink:href="#DejaVuSans-36"/>
       <use xlink:href="#DejaVuSans-30" x="63.623047"/>
       <use xlink:href="#DejaVuSans-30" x="127.246094"/>
      </g>
     </g>
    </g>
    <g id="ytick_5">
     <g id="line2d_21">
      <path d="M 62.57 84.184052 
L 565.2 84.184052 
" clip-path="url(#p17ec7d1e70)" style="fill: none; stroke: #b0b0b0; stroke-width: 0.8; stroke-linecap: square"/>
     </g>
     <g id="line2d_22">
      <g>
       <use xlink:href="#me0b594f1c1" x="62.57" y="84.184052" style="stroke: #000000; stroke-width: 0.8"/>
      </g>
     </g>
     <g id="text_12">
      <!-- 800 -->
      <g transform="translate(36.4825 87.98327)scale(0.1 -0.1)">
       <defs>
        <path id="DejaVuSans-38" d="M 2034 2216 
Q 1584 2216 1326 1975 
Q 1069 1734 1069 1313 
Q 1069 891 1326 650 
Q 1584 409 2034 409 
Q 2484 409 2743 651 
Q 3003 894 3003 1313 
Q 3003 1734 2745 1975 
Q 2488 2216 2034 2216 
z
M 1403 2484 
Q 997 2584 770 2862 
Q 544 3141 544 3541 
Q 544 4100 942 4425 
Q 1341 4750 2034 4750 
Q 2731 4750 3128 4425 
Q 3525 4100 3525 3541 
Q 3525 3141 3298 2862 
Q 3072 2584 2669 2484 
Q 3125 2378 3379 2068 
Q 3634 1759 3634 1313 
Q 3634 634 3220 271 
Q 2806 -91 2034 -91 
Q 1263 -91 848 271 
Q 434 634 434 1313 
Q 434 1759 690 2068 
Q 947 2378 1403 2484 
z
M 1172 3481 
Q 1172 3119 1398 2916 
Q 1625 2713 2034 2713 
Q 2441 2713 2670 2916 
Q 2900 3119 2900 3481 
Q 2900 3844 2670 4047 
Q 2441 4250 2034 4250 
Q 1625 4250 1398 4047 
Q 1172 3844 1172 3481 
z
" transform="scale(0.015625)"/>
       </defs>
       <use xlink:href="#DejaVuSans-38"/>
       <use xlink:href="#DejaVuSans-30" x="63.623047"/>
       <use xlink:href="#DejaVuSans-30" x="127.246094"/>
      </g>
     </g>
    </g>
    <g id="ytick_6">
     <g id="line2d_23">
      <path d="M 62.57 27.685805 
L 565.2 27.685805 
" clip-path="url(#p17ec7d1e70)" style="fill: none; stroke: #b0b0b0; stroke-width: 0.8; stroke-linecap: square"/>
     </g>
     <g id="line2d_24">
      <g>
       <use xlink:href="#me0b594f1c1" x="62.57" y="27.685805" style="stroke: #000000; stroke-width: 0.8"/>
      </g>
     </g>
     <g id="text_13">
      <!-- 1000 -->
      <g transform="translate(30.12 31.485024)scale(0.1 -0.1)">
       <use xlink:href="#DejaVuSans-31"/>
       <use xlink:href="#DejaVuSans-30" x="63.623047"/>
       <use xlink:href="#DejaVuSans-30" x="127.246094"/>
       <use xlink:href="#DejaVuSans-30" x="190.869141"/>
      </g>
     </g>
    </g>
    <g id="text_14">
     <!-- reflector value -->
     <g transform="translate(24.040313 210.756406)rotate(-90)scale(0.1 -0.1)">
      <defs>
       <path id="DejaVuSans-72" d="M 2631 2963 
Q 2534 3019 2420 3045 
Q 2306 3072 2169 3072 
Q 1681 3072 1420 2755 
Q 1159 2438 1159 1844 
L 1159 0 
L 581 0 
L 581 3500 
L 1159 3500 
L 1159 2956 
Q 1341 3275 1631 3429 
Q 1922 3584 2338 3584 
Q 2397 3584 2469 3576 
Q 2541 3569 2628 3553 
L 2631 2963 
z
" transform="scale(0.015625)"/>
       <path id="DejaVuSans-65" d="M 3597 1894 
L 3597 1613 
L 953 1613 
Q 991 1019 1311 708 
Q 1631 397 2203 397 
Q 2534 397 2845 478 
Q 3156 559 3463 722 
L 3463 178 
Q 3153 47 2828 -22 
Q 2503 -91 2169 -91 
Q 1331 -91 842 396 
Q 353 884 353 1716 
Q 353 2575 817 3079 
Q 1281 3584 2069 3584 
Q 2775 3584 3186 3129 
Q 3597 2675 3597 1894 
z
M 3022 2063 
Q 3016 2534 2758 2815 
Q 2500 3097 2075 3097 
Q 1594 3097 1305 2825 
Q 1016 2553 972 2059 
L 3022 2063 
z
" transform="scale(0.015625)"/>
       <path id="DejaVuSans-66" d="M 2375 4863 
L 2375 4384 
L 1825 4384 
Q 1516 4384 1395 4259 
Q 1275 4134 1275 3809 
L 1275 3500 
L 2222 3500 
L 2222 3053 
L 1275 3053 
L 1275 0 
L 697 0 
L 697 3053 
L 147 3053 
L 147 3500 
L 697 3500 
L 697 3744 
Q 697 4328 969 4595 
Q 1241 4863 1831 4863 
L 2375 4863 
z
" transform="scale(0.015625)"/>
       <path id="DejaVuSans-6c" d="M 603 4863 
L 1178 4863 
L 1178 0 
L 603 0 
L 603 4863 
z
" transform="scale(0.015625)"/>
       <path id="DejaVuSans-63" d="M 3122 3366 
L 3122 2828 
Q 2878 2963 2633 3030 
Q 2388 3097 2138 3097 
Q 1578 3097 1268 2742 
Q 959 2388 959 1747 
Q 959 1106 1268 751 
Q 1578 397 2138 397 
Q 2388 397 2633 464 
Q 2878 531 3122 666 
L 3122 134 
Q 2881 22 2623 -34 
Q 2366 -91 2075 -91 
Q 1284 -91 818 406 
Q 353 903 353 1747 
Q 353 2603 823 3093 
Q 1294 3584 2113 3584 
Q 2378 3584 2631 3529 
Q 2884 3475 3122 3366 
z
" transform="scale(0.015625)"/>
       <path id="DejaVuSans-74" d="M 1172 4494 
L 1172 3500 
L 2356 3500 
L 2356 3053 
L 1172 3053 
L 1172 1153 
Q 1172 725 1289 603 
Q 1406 481 1766 481 
L 2356 481 
L 2356 0 
L 1766 0 
Q 1100 0 847 248 
Q 594 497 594 1153 
L 594 3053 
L 172 3053 
L 172 3500 
L 594 3500 
L 594 4494 
L 1172 4494 
z
" transform="scale(0.015625)"/>
       <path id="DejaVuSans-6f" d="M 1959 3097 
Q 1497 3097 1228 2736 
Q 959 2375 959 1747 
Q 959 1119 1226 758 
Q 1494 397 1959 397 
Q 2419 397 2687 759 
Q 2956 1122 2956 1747 
Q 2956 2369 2687 2733 
Q 2419 3097 1959 3097 
z
M 1959 3584 
Q 2709 3584 3137 3096 
Q 3566 2609 3566 1747 
Q 3566 888 3137 398 
Q 2709 -91 1959 -91 
Q 1206 -91 779 398 
Q 353 888 353 1747 
Q 353 2609 779 3096 
Q 1206 3584 1959 3584 
z
" transform="scale(0.015625)"/>
       <path id="DejaVuSans-76" d="M 191 3500 
L 800 3500 
L 1894 563 
L 2988 3500 
L 3597 3500 
L 2284 0 
L 1503 0 
L 191 3500 
z
" transform="scale(0.015625)"/>
       <path id="DejaVuSans-61" d="M 2194 1759 
Q 1497 1759 1228 1600 
Q 959 1441 959 1056 
Q 959 750 1161 570 
Q 1363 391 1709 391 
Q 2188 391 2477 730 
Q 2766 1069 2766 1631 
L 2766 1759 
L 2194 1759 
z
M 3341 1997 
L 3341 0 
L 2766 0 
L 2766 531 
Q 2569 213 2275 61 
Q 1981 -91 1556 -91 
Q 1019 -91 701 211 
Q 384 513 384 1019 
Q 384 1609 779 1909 
Q 1175 2209 1959 2209 
L 2766 2209 
L 2766 2266 
Q 2766 2663 2505 2880 
Q 2244 3097 1772 3097 
Q 1472 3097 1187 3025 
Q 903 2953 641 2809 
L 641 3341 
Q 956 3463 1253 3523 
Q 1550 3584 1831 3584 
Q 2591 3584 2966 3190 
Q 3341 2797 3341 1997 
z
" transform="scale(0.015625)"/>
       <path id="DejaVuSans-75" d="M 544 1381 
L 544 3500 
L 1119 3500 
L 1119 1403 
Q 1119 906 1312 657 
Q 1506 409 1894 409 
Q 2359 409 2629 706 
Q 2900 1003 2900 1516 
L 2900 3500 
L 3475 3500 
L 3475 0 
L 2900 0 
L 2900 538 
Q 2691 219 2414 64 
Q 2138 -91 1772 -91 
Q 1169 -91 856 284 
Q 544 659 544 1381 
z
M 1991 3584 
L 1991 3584 
z
" transform="scale(0.015625)"/>
      </defs>
      <use xlink:href="#DejaVuSans-72"/>
      <use xlink:href="#DejaVuSans-65" x="38.863281"/>
      <use xlink:href="#DejaVuSans-66" x="100.386719"/>
      <use xlink:href="#DejaVuSans-6c" x="135.591797"/>
      <use xlink:href="#DejaVuSans-65" x="163.375"/>
      <use xlink:href="#DejaVuSans-63" x="224.898438"/>
      <use xlink:href="#DejaVuSans-74" x="279.878906"/>
      <use xlink:href="#DejaVuSans-6f" x="319.087891"/>
      <use xlink:href="#DejaVuSans-72" x="380.269531"/>
      <use xlink:href="#DejaVuSans-20" x="421.382812"/>
      <use xlink:href="#DejaVuSans-76" x="453.169922"/>
      <use xlink:href="#DejaVuSans-61" x="512.349609"/>
      <use xlink:href="#DejaVuSans-6c" x="573.628906"/>
      <use xlink:href="#DejaVuSans-75" x="601.412109"/>
      <use xlink:href="#DejaVuSans-65" x="664.791016"/>
     </g>
    </g>
   </g>
   <g id="line2d_25">
    <path d="M 85.416818 97.743631 
L 85.416886 97.743631 
L 85.506919 96.331175 
L 85.602639 96.331175 
L 85.881201 97.743631 
L 86.043667 97.743631 
L 86.240488 97.461139 
L 86.606545 96.613666 
L 86.749211 96.613666 
L 86.902877 96.331175 
L 87.067882 96.613666 
L 87.244564 96.613666 
L 87.434108 96.896157 
L 87.635498 96.613666 
L 88.31921 97.461139 
L 88.574756 98.308613 
L 89.131542 98.873596 
L 89.432781 99.438578 
L 90.788359 102.828473 
L 91.164062 103.393455 
L 92.824264 110.455736 
L 93.277816 111.585701 
L 95.242642 118.365491 
L 96.317289 120.62542 
L 97.451168 123.732824 
L 98.041801 125.14528 
L 98.647664 126.275245 
L 99.267067 127.970192 
L 99.903393 129.382649 
L 100.554951 129.947631 
L 101.221739 131.077596 
L 101.902067 131.642578 
L 102.594241 132.490052 
L 103.305031 133.055035 
L 104.032744 133.337526 
L 104.777381 133.337526 
L 105.538942 132.772543 
L 106.317426 132.772543 
L 107.09591 132.207561 
L 107.891318 131.92507 
L 108.703649 131.077596 
L 109.532904 130.795105 
L 110.362159 129.947631 
L 111.208337 129.66514 
L 112.071439 129.100157 
L 112.951465 128.817666 
L 114.711516 127.687701 
L 115.625389 127.687701 
L 116.539262 127.122719 
L 117.453134 126.840228 
L 118.383931 126.275245 
L 121.210167 125.427771 
L 122.17481 125.427771 
L 123.139454 125.14528 
L 124.104097 125.14528 
L 125.085664 124.862789 
L 126.067231 124.297806 
L 127.065722 124.015315 
L 128.047289 124.015315 
L 129.045779 123.732824 
L 130.04427 124.015315 
L 131.04276 123.732824 
L 132.058174 123.732824 
L 133.073589 124.297806 
L 134.072079 124.580298 
L 137.118322 124.580298 
L 139.14915 124.015315 
L 140.164564 124.015315 
L 141.179978 123.732824 
L 142.195392 123.732824 
L 143.210806 123.450333 
L 144.226221 123.732824 
L 145.241635 123.732824 
L 146.257049 124.297806 
L 147.272463 124.580298 
L 148.287877 125.14528 
L 150.318705 127.40521 
L 152.349534 131.92507 
L 153.364948 134.467491 
L 155.395776 140.682298 
L 156.41119 144.637175 
L 157.426604 149.157035 
L 159.457433 159.891702 
L 160.472847 166.671491 
L 161.488261 174.298754 
L 162.503675 183.338474 
L 164.534503 204.242825 
L 166.565332 228.537071 
L 170.626988 278.255528 
L 171.642402 287.860229 
L 172.657816 295.487493 
L 173.673231 301.7023 
L 174.688645 306.222159 
L 175.704059 309.047072 
L 176.719473 309.894545 
L 290.530475 309.894545 
L 291.545889 309.612054 
L 292.561303 308.482089 
L 293.576717 306.222159 
L 294.592131 303.679738 
L 295.607545 300.007352 
L 296.62296 294.92251 
L 297.638374 288.990194 
L 300.684616 267.23837 
L 303.730859 242.661632 
L 306.777101 217.237422 
L 308.807929 200.570439 
L 310.838758 186.163386 
L 311.854172 179.383597 
L 312.70035 174.581246 
L 313.715764 170.343877 
L 314.731178 166.671491 
L 316.762007 161.304158 
L 318.792835 157.914263 
L 319.808249 157.066789 
L 320.823663 155.654333 
L 321.839077 154.524368 
L 322.854492 153.676894 
L 325.900734 151.981947 
L 327.931562 153.111912 
L 328.946976 153.959386 
L 331.993219 155.654333 
L 333.008633 155.654333 
L 334.024047 155.371842 
L 335.039461 154.806859 
L 336.054875 153.959386 
L 337.07029 152.829421 
L 338.085704 151.981947 
L 339.101118 151.416965 
L 340.116532 150.287 
L 344.178189 152.54693 
L 345.193603 152.829421 
L 346.209017 152.829421 
L 348.239845 152.264438 
L 349.255259 151.699456 
L 351.286088 150.004508 
L 352.301502 149.439526 
L 353.316916 149.439526 
L 355.347744 151.134473 
L 356.363158 152.264438 
L 357.378572 153.111912 
L 358.393987 154.241877 
L 359.409401 154.524368 
L 360.424815 154.524368 
L 361.440229 154.241877 
L 362.455643 153.676894 
L 363.471057 153.394403 
L 365.501886 152.264438 
L 366.5173 152.829421 
L 368.548128 155.089351 
L 369.563542 156.501807 
L 371.59437 158.761737 
L 372.609785 159.044228 
L 373.625199 159.60921 
L 374.640613 158.761737 
L 377.686855 157.066789 
L 378.702269 156.219316 
L 379.717684 156.501807 
L 381.748512 158.761737 
L 382.763926 159.60921 
L 383.77934 160.739175 
L 385.810168 160.739175 
L 386.825582 161.021667 
L 387.840997 159.891702 
L 388.856411 159.044228 
L 389.871825 157.914263 
L 391.902653 157.914263 
L 392.918067 159.326719 
L 393.933481 160.174193 
L 394.948896 161.586649 
L 395.96431 162.716614 
L 396.979724 162.716614 
L 397.995138 162.434123 
L 399.010552 161.86914 
L 400.025966 160.739175 
L 401.04138 159.044228 
L 402.056795 158.196754 
L 403.072209 157.631772 
L 404.087623 157.631772 
L 405.103037 158.761737 
L 406.118451 159.60921 
L 407.133865 161.304158 
L 408.149279 162.434123 
L 409.164694 162.434123 
L 410.180108 162.151631 
L 411.195522 161.021667 
L 414.241764 156.784298 
L 416.272593 156.219316 
L 417.288007 157.349281 
L 418.303421 158.196754 
L 419.318835 159.60921 
L 420.334249 160.739175 
L 421.349663 160.739175 
L 422.365077 161.021667 
L 423.380492 159.60921 
L 424.395906 158.479245 
L 425.41132 157.631772 
L 426.426734 156.219316 
L 427.442148 156.501807 
L 428.457562 157.349281 
L 430.488391 160.739175 
L 431.503805 162.999105 
L 432.519219 164.694053 
L 433.534633 164.694053 
L 434.550047 164.976544 
L 435.565461 163.846579 
L 437.59629 161.021667 
L 438.611704 160.174193 
L 439.627118 160.456684 
L 440.642532 161.021667 
L 443.688774 168.64893 
L 444.704189 170.061386 
L 445.719603 171.756333 
L 446.735017 173.168789 
L 447.750431 173.451281 
L 448.765845 174.016263 
L 449.781259 175.993702 
L 451.812088 182.208509 
L 453.842916 192.943176 
L 454.85833 198.875492 
L 455.873744 203.395351 
L 456.889158 208.762685 
L 458.919987 217.237422 
L 459.935401 222.039772 
L 461.966229 236.446825 
L 462.981643 244.35658 
L 466.027886 274.30065 
L 468.058714 289.555177 
L 469.074128 294.92251 
L 470.089542 299.44237 
L 471.104956 302.832265 
L 472.12037 305.092195 
L 473.135785 306.504651 
L 474.151199 307.069633 
L 475.166613 308.764581 
L 476.182027 309.612054 
L 477.197441 309.894545 
L 537.614582 309.894545 
L 538.629997 308.199598 
L 538.799232 307.634616 
L 539.137704 307.069633 
L 539.814646 307.069633 
L 540.153118 307.634616 
L 540.322354 308.199598 
L 540.660825 308.199598 
L 541.337768 306.222159 
L 541.337768 306.222159 
L 541.507003 306.222159 
L 541.676239 306.787142 
L 541.676239 307.634616 
L 541.845475 307.634616 
L 541.845475 307.352124 
L 542.01471 306.787142 
L 542.01471 305.657177 
L 542.01471 305.657177 
L 542.183946 305.657177 
L 542.183946 305.657177 
L 542.183946 307.917107 
L 542.353182 307.917107 
L 542.353182 307.917107 
L 542.353182 303.96223 
L 542.353182 307.352124 
" clip-path="url(#p17ec7d1e70)" style="fill: none; stroke: #1f77b4; stroke-width: 2; stroke-linecap: square"/>
   </g>
   <g id="line2d_26">
    <path d="M 85.416818 309.894545 
L 437.59629 309.894545 
L 438.611704 309.612054 
L 443.688774 309.612054 
L 444.704189 309.329563 
L 445.719603 308.764581 
L 446.735017 308.482089 
L 447.750431 307.634616 
L 448.765845 307.069633 
L 449.781259 306.222159 
L 451.812088 306.222159 
L 452.827502 306.504651 
L 454.85833 307.634616 
L 455.873744 306.787142 
L 457.904572 305.657177 
L 460.950815 300.572335 
L 462.981643 300.572335 
L 463.997057 302.267282 
L 465.012471 303.397247 
L 466.027886 305.092195 
L 467.0433 304.244721 
L 468.058714 303.679738 
L 469.074128 302.832265 
L 471.104956 297.464931 
L 472.12037 296.052475 
L 474.151199 296.052475 
L 476.182027 300.572335 
L 477.197441 303.397247 
L 478.212855 301.984791 
L 479.228269 301.137317 
L 480.243684 298.877387 
L 482.274512 291.250124 
L 485.320754 291.250124 
L 486.336168 294.640019 
L 488.366997 302.267282 
L 490.397825 300.007352 
L 493.444067 283.905352 
L 494.459481 283.622861 
L 496.49031 283.622861 
L 499.536552 298.312405 
L 500.551966 296.617458 
L 501.56738 295.205001 
L 502.582795 288.142721 
L 503.428973 280.797949 
L 504.444387 273.453177 
L 505.459801 272.323212 
L 506.475215 271.758229 
L 507.321394 270.910756 
L 508.336808 276.278089 
L 509.182987 281.927914 
L 510.198401 287.577738 
L 511.044579 285.6003 
L 512.059993 283.622861 
L 514.598529 257.916159 
L 517.3063 254.243773 
L 518.998657 266.390896 
L 519.675599 264.413457 
L 520.521778 263.001001 
L 521.367956 260.176089 
L 522.044899 250.571387 
L 522.891077 240.966685 
L 523.56802 239.271738 
L 524.414199 237.859281 
L 525.091141 236.446825 
L 526.445027 249.441422 
L 527.12197 248.028966 
L 527.798912 247.181492 
L 528.475855 246.051527 
L 528.983562 236.446825 
L 529.660505 226.559632 
L 531.352862 222.039772 
L 532.368276 235.599352 
L 532.875983 233.904404 
L 533.38369 232.774439 
L 533.891397 231.361983 
L 534.906811 213.000053 
L 535.75299 210.175141 
L 536.091461 203.960334 
L 536.599168 206.220264 
L 537.614582 225.99465 
L 537.953054 224.864685 
L 538.799232 202.547878 
L 539.137704 197.463035 
L 539.645411 195.485597 
L 539.814646 194.355632 
L 540.153118 201.417913 
L 540.322354 207.63272 
L 540.660825 204.807807 
L 540.830061 205.090299 
L 541.168532 187.293351 
L 541.507003 185.598404 
L 541.676239 193.508158 
L 541.676239 201.700404 
L 541.845475 199.722965 
L 541.845475 198.028018 
L 542.01471 198.310509 
L 542.01471 179.948579 
L 542.183946 178.818614 
L 542.183946 178.253632 
L 542.183946 195.768088 
L 542.353182 194.073141 
L 542.353182 194.638123 
L 542.353182 168.366439 
L 542.353182 187.575842 
" clip-path="url(#p17ec7d1e70)" style="fill: none; stroke: #ff7f0e; stroke-width: 2; stroke-linecap: square"/>
   </g>
   <g id="line2d_27">
    <path d="M 85.416818 309.894545 
L 456.889158 309.894545 
L 458.919987 309.329563 
L 459.935401 308.764581 
L 463.997057 308.764581 
L 466.027886 309.329563 
L 468.058714 307.634616 
L 470.089542 304.809703 
L 471.104956 303.114756 
L 474.151199 303.114756 
L 475.166613 304.244721 
L 476.182027 305.657177 
L 477.197441 306.787142 
L 479.228269 304.527212 
L 482.274512 296.617458 
L 485.320754 296.617458 
L 488.366997 304.527212 
L 489.382411 303.114756 
L 490.397825 301.984791 
L 491.413239 297.18244 
L 492.428653 292.945072 
L 493.444067 287.860229 
L 496.49031 287.860229 
L 499.536552 299.724861 
L 500.551966 298.594896 
L 501.56738 297.18244 
L 502.582795 290.967633 
L 503.428973 284.187843 
L 504.444387 278.255528 
L 507.321394 275.995598 
L 508.336808 280.232966 
L 509.182987 284.752826 
L 510.198401 289.555177 
L 511.044579 288.142721 
L 512.059993 285.6003 
L 514.598529 263.001001 
L 515.613943 261.588545 
L 517.3063 258.763633 
L 518.998657 268.368334 
L 519.675599 266.390896 
L 520.521778 264.695948 
L 521.367956 262.153527 
L 522.044899 253.396299 
L 522.891077 250.288896 
L 525.091141 245.769036 
L 526.445027 256.503703 
L 527.12197 254.526264 
L 527.798912 253.396299 
L 528.475855 245.769036 
L 528.983562 236.446825 
L 530.168212 231.926966 
L 530.845155 230.514509 
L 531.352862 228.819562 
L 532.368276 239.83672 
L 533.38369 236.164334 
L 534.399104 218.649878 
L 535.245283 214.695 
L 535.75299 213.000053 
L 536.091461 209.045176 
L 536.599168 209.045176 
L 537.614582 228.25458 
L 538.629997 200.570439 
L 538.799232 194.073141 
L 539.137704 197.745527 
L 539.476175 196.898053 
L 539.814646 193.790649 
L 540.153118 201.135421 
L 540.322354 207.915211 
L 540.660825 204.525316 
L 541.168532 185.598404 
L 541.337768 184.75093 
L 541.337768 183.620965 
L 541.507003 182.491 
L 541.676239 190.118263 
L 541.676239 198.593 
L 541.845475 197.745527 
L 541.845475 196.898053 
L 542.01471 188.705807 
L 542.01471 179.101105 
L 542.183946 179.101105 
L 542.183946 177.688649 
L 542.183946 193.225667 
L 542.353182 192.378193 
L 542.353182 169.213912 
L 542.353182 187.01086 
" clip-path="url(#p17ec7d1e70)" style="fill: none; stroke: #2ca02c; stroke-width: 2; stroke-linecap: square"/>
   </g>
   <g id="line2d_28">
    <path d="M 85.416818 162.434123 
L 85.416886 162.434123 
L 85.506919 160.174193 
L 85.533794 160.174193 
L 85.881201 162.999105 
L 85.958372 162.716614 
L 86.043667 162.999105 
L 86.240488 162.434123 
L 86.474541 161.304158 
L 86.749211 160.739175 
L 86.902877 160.739175 
L 87.067882 160.456684 
L 87.244564 160.739175 
L 87.434108 160.739175 
L 88.31921 159.60921 
L 88.845533 160.174193 
L 89.747559 160.174193 
L 90.079261 159.891702 
L 90.788359 158.761737 
L 91.556689 156.219316 
L 91.964547 154.524368 
L 92.824264 152.264438 
L 93.277816 151.416965 
L 95.242642 146.897105 
L 95.77235 146.049631 
L 96.317289 144.919666 
L 96.875767 144.072193 
L 98.041801 142.942228 
L 98.647664 142.659736 
L 99.267067 142.094754 
L 99.903393 142.094754 
L 100.554951 141.24728 
L 101.221739 140.682298 
L 101.902067 139.552333 
L 102.594241 138.704859 
L 103.305031 137.292403 
L 104.032744 136.162438 
L 104.777381 135.597456 
L 105.538942 134.467491 
L 107.09591 133.902508 
L 109.532904 133.902508 
L 111.208337 134.467491 
L 112.071439 135.597456 
L 112.951465 137.292403 
L 113.831491 138.422368 
L 115.625389 140.117315 
L 118.383931 140.117315 
L 119.314727 139.552333 
L 121.210167 137.857386 
L 122.17481 137.574894 
L 123.139454 137.574894 
L 124.104097 137.857386 
L 125.085664 138.422368 
L 126.067231 138.422368 
L 127.065722 138.98735 
L 128.047289 139.269842 
L 129.045779 139.269842 
L 130.04427 139.552333 
L 131.04276 140.682298 
L 133.073589 142.377245 
L 134.072079 142.942228 
L 135.087493 143.224719 
L 136.102907 143.224719 
L 137.118322 143.789701 
L 139.14915 143.224719 
L 140.164564 142.377245 
L 142.195392 141.812263 
L 143.210806 141.812263 
L 145.241635 142.377245 
L 146.257049 142.942228 
L 147.272463 143.224719 
L 148.287877 143.789701 
L 149.303291 144.072193 
L 150.318705 145.76714 
L 154.380362 151.416965 
L 155.395776 152.264438 
L 156.41119 153.676894 
L 157.426604 155.654333 
L 159.457433 158.479245 
L 161.488261 163.846579 
L 162.503675 167.236474 
L 163.519089 171.473842 
L 165.549918 181.643526 
L 166.565332 187.575842 
L 168.59616 201.700404 
L 169.611574 209.327667 
L 171.642402 226.842123 
L 173.673231 247.463983 
L 176.719473 277.408054 
L 177.734887 286.165282 
L 178.750301 293.510054 
L 179.765715 299.724861 
L 180.78113 303.96223 
L 181.796544 306.787142 
L 182.811958 309.047072 
L 183.827372 309.894545 
L 299.669202 309.894545 
L 300.684616 309.612054 
L 301.70003 308.764581 
L 302.715444 307.634616 
L 303.730859 305.939668 
L 304.746273 303.114756 
L 306.777101 295.487493 
L 307.792515 290.967633 
L 309.823343 279.950475 
L 311.854172 267.520861 
L 312.70035 261.588545 
L 315.746593 245.769036 
L 316.762007 241.531667 
L 318.792835 235.034369 
L 319.808249 233.056931 
L 320.823663 232.209457 
L 321.839077 232.491948 
L 322.854492 235.034369 
L 323.869906 238.706755 
L 324.88532 244.074089 
L 325.900734 250.853878 
L 329.962391 288.425212 
L 330.977805 295.487493 
L 331.993219 301.419809 
L 333.008633 305.939668 
L 334.024047 309.047072 
L 335.039461 309.894545 
L 454.85833 309.894545 
L 455.873744 308.199598 
L 456.889158 305.657177 
L 457.904572 301.984791 
L 458.919987 296.899949 
L 460.950815 283.622861 
L 461.966229 275.995598 
L 463.997057 257.068685 
L 466.027886 235.31686 
L 468.058714 207.067737 
L 472.12037 146.614614 
L 473.135785 135.314964 
L 474.151199 125.427771 
L 475.166613 119.495455 
L 476.182027 114.975596 
L 477.197441 111.868192 
L 478.212855 107.913315 
L 480.243684 101.980999 
L 482.274512 95.483701 
L 483.289926 94.353736 
L 485.320754 93.788753 
L 487.351582 97.178648 
L 488.366997 98.308613 
L 489.382411 96.613666 
L 490.397825 95.483701 
L 491.413239 92.093806 
L 493.444067 83.90156 
L 494.459481 82.489104 
L 495.474896 81.359139 
L 496.49031 80.794157 
L 499.536552 87.573946 
L 500.551966 86.16149 
L 501.56738 85.596508 
L 502.582795 82.489104 
L 504.444387 74.57935 
L 505.459801 73.449385 
L 507.321394 72.036929 
L 508.336808 74.57935 
L 509.182987 77.121771 
L 510.198401 79.381701 
L 511.044579 79.099209 
L 512.059993 78.251736 
L 513.75235 69.212016 
L 514.598529 64.409665 
L 515.613943 63.844683 
L 516.460121 62.714718 
L 517.3063 62.149736 
L 518.152478 64.409665 
L 518.998657 67.517069 
L 519.675599 66.669595 
L 521.367956 65.53963 
L 522.044899 61.019771 
L 522.891077 56.499911 
L 523.56802 56.499911 
L 524.414199 56.21742 
L 525.091141 56.782402 
L 525.768084 61.302262 
L 526.445027 66.952086 
L 528.475855 65.257139 
L 529.660505 55.087455 
L 530.168212 54.804964 
L 530.845155 54.239981 
L 531.352862 52.262542 
L 532.368276 61.584753 
L 532.875983 62.149736 
L 533.891397 61.019771 
L 534.906811 50.567595 
L 535.75299 50.567595 
L 536.091461 47.1777 
L 536.599168 50.567595 
L 537.614582 64.692157 
L 537.953054 63.844683 
L 539.137704 43.222823 
L 539.476175 43.787805 
L 539.645411 44.352788 
L 539.814646 44.352788 
L 540.153118 50.285104 
L 540.322354 58.194858 
L 540.660825 58.194858 
L 540.830061 58.47735 
L 541.168532 46.047735 
L 541.337768 46.895209 
L 541.507003 45.482753 
L 541.676239 51.69756 
L 541.676239 58.47735 
L 541.845475 58.194858 
L 541.845475 57.912367 
L 542.01471 57.912367 
L 542.01471 44.91777 
L 542.183946 44.635279 
L 542.183946 44.635279 
L 542.183946 44.352788 
L 542.183946 56.499911 
L 542.353182 55.652437 
L 542.353182 38.985455 
L 542.353182 57.064893 
L 542.353182 55.652437 
" clip-path="url(#p17ec7d1e70)" style="fill: none; stroke: #d62728; stroke-width: 2; stroke-linecap: square"/>
   </g>
   <g id="patch_3">
    <path d="M 62.57 323.44 
L 62.57 25.44 
" style="fill: none; stroke: #000000; stroke-width: 0.8; stroke-linejoin: miter; stroke-linecap: square"/>
   </g>
   <g id="patch_4">
    <path d="M 565.2 323.44 
L 565.2 25.44 
" style="fill: none; stroke: #000000; stroke-width: 0.8; stroke-linejoin: miter; stroke-linecap: square"/>
   </g>
   <g id="patch_5">
    <path d="M 62.57 323.44 
L 565.2 323.44 
" style="fill: none; stroke: #000000; stroke-width: 0.8; stroke-linejoin: miter; stroke-linecap: square"/>
   </g>
   <g id="patch_6">
    <path d="M 62.57 25.44 
L 565.2 25.44 
" style="fill: none; stroke: #000000; stroke-width: 0.8; stroke-linejoin: miter; stroke-linecap: square"/>
   </g>
   <g id="text_15">
    <!-- Reflector Value -->
    <g transform="translate(268.649687 19.44)scale(0.12 -0.12)">
     <defs>
      <path id="DejaVuSans-52" d="M 2841 2188 
Q 3044 2119 3236 1894 
Q 3428 1669 3622 1275 
L 4263 0 
L 3584 0 
L 2988 1197 
Q 2756 1666 2539 1819 
Q 2322 1972 1947 1972 
L 1259 1972 
L 1259 0 
L 628 0 
L 628 4666 
L 2053 4666 
Q 2853 4666 3247 4331 
Q 3641 3997 3641 3322 
Q 3641 2881 3436 2590 
Q 3231 2300 2841 2188 
z
M 1259 4147 
L 1259 2491 
L 2053 2491 
Q 2509 2491 2742 2702 
Q 2975 2913 2975 3322 
Q 2975 3731 2742 3939 
Q 2509 4147 2053 4147 
L 1259 4147 
z
" transform="scale(0.015625)"/>
      <path id="DejaVuSans-56" d="M 1831 0 
L 50 4666 
L 709 4666 
L 2188 738 
L 3669 4666 
L 4325 4666 
L 2547 0 
L 1831 0 
z
" transform="scale(0.015625)"/>
     </defs>
     <use xlink:href="#DejaVuSans-52"/>
     <use xlink:href="#DejaVuSans-65" x="64.982422"/>
     <use xlink:href="#DejaVuSans-66" x="126.505859"/>
     <use xlink:href="#DejaVuSans-6c" x="161.710938"/>
     <use xlink:href="#DejaVuSans-65" x="189.494141"/>
     <use xlink:href="#DejaVuSans-63" x="251.017578"/>
     <use xlink:href="#DejaVuSans-74" x="305.998047"/>
     <use xlink:href="#DejaVuSans-6f" x="345.207031"/>
     <use xlink:href="#DejaVuSans-72" x="406.388672"/>
     <use xlink:href="#DejaVuSans-20" x="447.501953"/>
     <use xlink:href="#DejaVuSans-56" x="479.289062"/>
     <use xlink:href="#DejaVuSans-61" x="539.947266"/>
     <use xlink:href="#DejaVuSans-6c" x="601.226562"/>
     <use xlink:href="#DejaVuSans-75" x="629.009766"/>
     <use xlink:href="#DejaVuSans-65" x="692.388672"/>
    </g>
   </g>
   <g id="legend_1">
    <g id="patch_7">
     <path d="M 69.57 48.118125 
L 294.810625 48.118125 
Q 296.810625 48.118125 296.810625 46.118125 
L 296.810625 32.44 
Q 296.810625 30.44 294.810625 30.44 
L 69.57 30.44 
Q 67.57 30.44 67.57 32.44 
L 67.57 46.118125 
Q 67.57 48.118125 69.57 48.118125 
z
" style="fill: #ffffff; opacity: 0.8; stroke: #cccccc; stroke-linejoin: miter"/>
    </g>
    <g id="line2d_29">
     <path d="M 71.57 38.538438 
L 81.57 38.538438 
L 91.57 38.538438 
" style="fill: none; stroke: #1f77b4; stroke-width: 2; stroke-linecap: square"/>
    </g>
    <g id="text_16">
     <!-- SL -->
     <g transform="translate(99.57 42.038438)scale(0.1 -0.1)">
      <defs>
       <path id="DejaVuSans-53" d="M 3425 4513 
L 3425 3897 
Q 3066 4069 2747 4153 
Q 2428 4238 2131 4238 
Q 1616 4238 1336 4038 
Q 1056 3838 1056 3469 
Q 1056 3159 1242 3001 
Q 1428 2844 1947 2747 
L 2328 2669 
Q 3034 2534 3370 2195 
Q 3706 1856 3706 1288 
Q 3706 609 3251 259 
Q 2797 -91 1919 -91 
Q 1588 -91 1214 -16 
Q 841 59 441 206 
L 441 856 
Q 825 641 1194 531 
Q 1563 422 1919 422 
Q 2459 422 2753 634 
Q 3047 847 3047 1241 
Q 3047 1584 2836 1778 
Q 2625 1972 2144 2069 
L 1759 2144 
Q 1053 2284 737 2584 
Q 422 2884 422 3419 
Q 422 4038 858 4394 
Q 1294 4750 2059 4750 
Q 2388 4750 2728 4690 
Q 3069 4631 3425 4513 
z
" transform="scale(0.015625)"/>
       <path id="DejaVuSans-4c" d="M 628 4666 
L 1259 4666 
L 1259 531 
L 3531 531 
L 3531 0 
L 628 0 
L 628 4666 
z
" transform="scale(0.015625)"/>
      </defs>
      <use xlink:href="#DejaVuSans-53"/>
      <use xlink:href="#DejaVuSans-4c" x="63.476562"/>
     </g>
    </g>
    <g id="line2d_30">
     <path d="M 131.490313 38.538438 
L 141.490313 38.538438 
L 151.490313 38.538438 
" style="fill: none; stroke: #ff7f0e; stroke-width: 2; stroke-linecap: square"/>
    </g>
    <g id="text_17">
     <!-- FL -->
     <g transform="translate(159.490313 42.038438)scale(0.1 -0.1)">
      <defs>
       <path id="DejaVuSans-46" d="M 628 4666 
L 3309 4666 
L 3309 4134 
L 1259 4134 
L 1259 2759 
L 3109 2759 
L 3109 2228 
L 1259 2228 
L 1259 0 
L 628 0 
L 628 4666 
z
" transform="scale(0.015625)"/>
      </defs>
      <use xlink:href="#DejaVuSans-46"/>
      <use xlink:href="#DejaVuSans-4c" x="57.519531"/>
     </g>
    </g>
    <g id="line2d_31">
     <path d="M 190.81375 38.538438 
L 200.81375 38.538438 
L 210.81375 38.538438 
" style="fill: none; stroke: #2ca02c; stroke-width: 2; stroke-linecap: square"/>
    </g>
    <g id="text_18">
     <!-- FR -->
     <g transform="translate(218.81375 42.038438)scale(0.1 -0.1)">
      <use xlink:href="#DejaVuSans-46"/>
      <use xlink:href="#DejaVuSans-52" x="57.519531"/>
     </g>
    </g>
    <g id="line2d_32">
     <path d="M 251.51375 38.538438 
L 261.51375 38.538438 
L 271.51375 38.538438 
" style="fill: none; stroke: #d62728; stroke-width: 2; stroke-linecap: square"/>
    </g>
    <g id="text_19">
     <!-- SR -->
     <g transform="translate(279.51375 42.038438)scale(0.1 -0.1)">
      <use xlink:href="#DejaVuSans-53"/>
      <use xlink:href="#DejaVuSans-52" x="63.476562"/>
     </g>
    </g>
   </g>
  </g>
  <g id="axes_2">
   <g id="patch_8">
    <path d="M 62.57 678.04 
L 565.2 678.04 
L 565.2 380.04 
L 62.57 380.04 
z
" style="fill: #ffffff"/>
   </g>
   <g id="matplotlib.axis_3">
    <g id="xtick_7">
     <g id="line2d_33">
      <path d="M 85.416818 678.04 
L 85.416818 380.04 
" clip-path="url(#pda9e1453f3)" style="fill: none; stroke: #b0b0b0; stroke-width: 0.8; stroke-linecap: square"/>
     </g>
     <g id="line2d_34">
      <g>
       <use xlink:href="#m25e01dd613" x="85.416818" y="678.04" style="stroke: #000000; stroke-width: 0.8"/>
      </g>
     </g>
     <g id="text_20">
      <!-- 0 -->
      <g transform="translate(82.235568 692.638438)scale(0.1 -0.1)">
       <use xlink:href="#DejaVuSans-30"/>
      </g>
     </g>
    </g>
    <g id="xtick_8">
     <g id="line2d_35">
      <path d="M 170.034663 678.04 
L 170.034663 380.04 
" clip-path="url(#pda9e1453f3)" style="fill: none; stroke: #b0b0b0; stroke-width: 0.8; stroke-linecap: square"/>
     </g>
     <g id="line2d_36">
      <g>
       <use xlink:href="#m25e01dd613" x="170.034663" y="678.04" style="stroke: #000000; stroke-width: 0.8"/>
      </g>
     </g>
     <g id="text_21">
      <!-- 50 -->
      <g transform="translate(163.672163 692.638438)scale(0.1 -0.1)">
       <use xlink:href="#DejaVuSans-35"/>
       <use xlink:href="#DejaVuSans-30" x="63.623047"/>
      </g>
     </g>
    </g>
    <g id="xtick_9">
     <g id="line2d_37">
      <path d="M 254.652508 678.04 
L 254.652508 380.04 
" clip-path="url(#pda9e1453f3)" style="fill: none; stroke: #b0b0b0; stroke-width: 0.8; stroke-linecap: square"/>
     </g>
     <g id="line2d_38">
      <g>
       <use xlink:href="#m25e01dd613" x="254.652508" y="678.04" style="stroke: #000000; stroke-width: 0.8"/>
      </g>
     </g>
     <g id="text_22">
      <!-- 100 -->
      <g transform="translate(245.108758 692.638438)scale(0.1 -0.1)">
       <use xlink:href="#DejaVuSans-31"/>
       <use xlink:href="#DejaVuSans-30" x="63.623047"/>
       <use xlink:href="#DejaVuSans-30" x="127.246094"/>
      </g>
     </g>
    </g>
    <g id="xtick_10">
     <g id="line2d_39">
      <path d="M 339.270354 678.04 
L 339.270354 380.04 
" clip-path="url(#pda9e1453f3)" style="fill: none; stroke: #b0b0b0; stroke-width: 0.8; stroke-linecap: square"/>
     </g>
     <g id="line2d_40">
      <g>
       <use xlink:href="#m25e01dd613" x="339.270354" y="678.04" style="stroke: #000000; stroke-width: 0.8"/>
      </g>
     </g>
     <g id="text_23">
      <!-- 150 -->
      <g transform="translate(329.726604 692.638438)scale(0.1 -0.1)">
       <use xlink:href="#DejaVuSans-31"/>
       <use xlink:href="#DejaVuSans-35" x="63.623047"/>
       <use xlink:href="#DejaVuSans-30" x="127.246094"/>
      </g>
     </g>
    </g>
    <g id="xtick_11">
     <g id="line2d_41">
      <path d="M 423.888199 678.04 
L 423.888199 380.04 
" clip-path="url(#pda9e1453f3)" style="fill: none; stroke: #b0b0b0; stroke-width: 0.8; stroke-linecap: square"/>
     </g>
     <g id="line2d_42">
      <g>
       <use xlink:href="#m25e01dd613" x="423.888199" y="678.04" style="stroke: #000000; stroke-width: 0.8"/>
      </g>
     </g>
     <g id="text_24">
      <!-- 200 -->
      <g transform="translate(414.344449 692.638438)scale(0.1 -0.1)">
       <use xlink:href="#DejaVuSans-32"/>
       <use xlink:href="#DejaVuSans-30" x="63.623047"/>
       <use xlink:href="#DejaVuSans-30" x="127.246094"/>
      </g>
     </g>
    </g>
    <g id="xtick_12">
     <g id="line2d_43">
      <path d="M 508.506044 678.04 
L 508.506044 380.04 
" clip-path="url(#pda9e1453f3)" style="fill: none; stroke: #b0b0b0; stroke-width: 0.8; stroke-linecap: square"/>
     </g>
     <g id="line2d_44">
      <g>
       <use xlink:href="#m25e01dd613" x="508.506044" y="678.04" style="stroke: #000000; stroke-width: 0.8"/>
      </g>
     </g>
     <g id="text_25">
      <!-- 250 -->
      <g transform="translate(498.962294 692.638438)scale(0.1 -0.1)">
       <use xlink:href="#DejaVuSans-32"/>
       <use xlink:href="#DejaVuSans-35" x="63.623047"/>
       <use xlink:href="#DejaVuSans-30" x="127.246094"/>
      </g>
     </g>
    </g>
    <g id="text_26">
     <!-- x [mm] -->
     <g transform="translate(295.694375 706.316563)scale(0.1 -0.1)">
      <use xlink:href="#DejaVuSans-78"/>
      <use xlink:href="#DejaVuSans-20" x="59.179688"/>
      <use xlink:href="#DejaVuSans-5b" x="90.966797"/>
      <use xlink:href="#DejaVuSans-6d" x="129.980469"/>
      <use xlink:href="#DejaVuSans-6d" x="227.392578"/>
      <use xlink:href="#DejaVuSans-5d" x="324.804688"/>
     </g>
    </g>
   </g>
   <g id="matplotlib.axis_4">
    <g id="ytick_7">
     <g id="line2d_45">
      <path d="M 62.57 659.144659 
L 565.2 659.144659 
" clip-path="url(#pda9e1453f3)" style="fill: none; stroke: #b0b0b0; stroke-width: 0.8; stroke-linecap: square"/>
     </g>
     <g id="line2d_46">
      <g>
       <use xlink:href="#me0b594f1c1" x="62.57" y="659.144659" style="stroke: #000000; stroke-width: 0.8"/>
      </g>
     </g>
     <g id="text_27">
      <!-- −0.04 -->
      <g transform="translate(24.924688 662.943878)scale(0.1 -0.1)">
       <defs>
        <path id="DejaVuSans-2212" d="M 678 2272 
L 4684 2272 
L 4684 1741 
L 678 1741 
L 678 2272 
z
" transform="scale(0.015625)"/>
        <path id="DejaVuSans-2e" d="M 684 794 
L 1344 794 
L 1344 0 
L 684 0 
L 684 794 
z
" transform="scale(0.015625)"/>
       </defs>
       <use xlink:href="#DejaVuSans-2212"/>
       <use xlink:href="#DejaVuSans-30" x="83.789062"/>
       <use xlink:href="#DejaVuSans-2e" x="147.412109"/>
       <use xlink:href="#DejaVuSans-30" x="179.199219"/>
       <use xlink:href="#DejaVuSans-34" x="242.822266"/>
      </g>
     </g>
    </g>
    <g id="ytick_8">
     <g id="line2d_47">
      <path d="M 62.57 593.902148 
L 565.2 593.902148 
" clip-path="url(#pda9e1453f3)" style="fill: none; stroke: #b0b0b0; stroke-width: 0.8; stroke-linecap: square"/>
     </g>
     <g id="line2d_48">
      <g>
       <use xlink:href="#me0b594f1c1" x="62.57" y="593.902148" style="stroke: #000000; stroke-width: 0.8"/>
      </g>
     </g>
     <g id="text_28">
      <!-- −0.03 -->
      <g transform="translate(24.924688 597.701367)scale(0.1 -0.1)">
       <defs>
        <path id="DejaVuSans-33" d="M 2597 2516 
Q 3050 2419 3304 2112 
Q 3559 1806 3559 1356 
Q 3559 666 3084 287 
Q 2609 -91 1734 -91 
Q 1441 -91 1130 -33 
Q 819 25 488 141 
L 488 750 
Q 750 597 1062 519 
Q 1375 441 1716 441 
Q 2309 441 2620 675 
Q 2931 909 2931 1356 
Q 2931 1769 2642 2001 
Q 2353 2234 1838 2234 
L 1294 2234 
L 1294 2753 
L 1863 2753 
Q 2328 2753 2575 2939 
Q 2822 3125 2822 3475 
Q 2822 3834 2567 4026 
Q 2313 4219 1838 4219 
Q 1578 4219 1281 4162 
Q 984 4106 628 3988 
L 628 4550 
Q 988 4650 1302 4700 
Q 1616 4750 1894 4750 
Q 2613 4750 3031 4423 
Q 3450 4097 3450 3541 
Q 3450 3153 3228 2886 
Q 3006 2619 2597 2516 
z
" transform="scale(0.015625)"/>
       </defs>
       <use xlink:href="#DejaVuSans-2212"/>
       <use xlink:href="#DejaVuSans-30" x="83.789062"/>
       <use xlink:href="#DejaVuSans-2e" x="147.412109"/>
       <use xlink:href="#DejaVuSans-30" x="179.199219"/>
       <use xlink:href="#DejaVuSans-33" x="242.822266"/>
      </g>
     </g>
    </g>
    <g id="ytick_9">
     <g id="line2d_49">
      <path d="M 62.57 528.659636 
L 565.2 528.659636 
" clip-path="url(#pda9e1453f3)" style="fill: none; stroke: #b0b0b0; stroke-width: 0.8; stroke-linecap: square"/>
     </g>
     <g id="line2d_50">
      <g>
       <use xlink:href="#me0b594f1c1" x="62.57" y="528.659636" style="stroke: #000000; stroke-width: 0.8"/>
      </g>
     </g>
     <g id="text_29">
      <!-- −0.02 -->
      <g transform="translate(24.924688 532.458855)scale(0.1 -0.1)">
       <use xlink:href="#DejaVuSans-2212"/>
       <use xlink:href="#DejaVuSans-30" x="83.789062"/>
       <use xlink:href="#DejaVuSans-2e" x="147.412109"/>
       <use xlink:href="#DejaVuSans-30" x="179.199219"/>
       <use xlink:href="#DejaVuSans-32" x="242.822266"/>
      </g>
     </g>
    </g>
    <g id="ytick_10">
     <g id="line2d_51">
      <path d="M 62.57 463.417124 
L 565.2 463.417124 
" clip-path="url(#pda9e1453f3)" style="fill: none; stroke: #b0b0b0; stroke-width: 0.8; stroke-linecap: square"/>
     </g>
     <g id="line2d_52">
      <g>
       <use xlink:href="#me0b594f1c1" x="62.57" y="463.417124" style="stroke: #000000; stroke-width: 0.8"/>
      </g>
     </g>
     <g id="text_30">
      <!-- −0.01 -->
      <g transform="translate(24.924688 467.216343)scale(0.1 -0.1)">
       <use xlink:href="#DejaVuSans-2212"/>
       <use xlink:href="#DejaVuSans-30" x="83.789062"/>
       <use xlink:href="#DejaVuSans-2e" x="147.412109"/>
       <use xlink:href="#DejaVuSans-30" x="179.199219"/>
       <use xlink:href="#DejaVuSans-31" x="242.822266"/>
      </g>
     </g>
    </g>
    <g id="ytick_11">
     <g id="line2d_53">
      <path d="M 62.57 398.174613 
L 565.2 398.174613 
" clip-path="url(#pda9e1453f3)" style="fill: none; stroke: #b0b0b0; stroke-width: 0.8; stroke-linecap: square"/>
     </g>
     <g id="line2d_54">
      <g>
       <use xlink:href="#me0b594f1c1" x="62.57" y="398.174613" style="stroke: #000000; stroke-width: 0.8"/>
      </g>
     </g>
     <g id="text_31">
      <!-- 0.00 -->
      <g transform="translate(33.304375 401.973832)scale(0.1 -0.1)">
       <use xlink:href="#DejaVuSans-30"/>
       <use xlink:href="#DejaVuSans-2e" x="63.623047"/>
       <use xlink:href="#DejaVuSans-30" x="95.410156"/>
       <use xlink:href="#DejaVuSans-30" x="159.033203"/>
      </g>
     </g>
    </g>
    <g id="text_32">
     <!-- wall distance [mm] -->
     <g transform="translate(18.845 576.978281)rotate(-90)scale(0.1 -0.1)">
      <defs>
       <path id="DejaVuSans-77" d="M 269 3500 
L 844 3500 
L 1563 769 
L 2278 3500 
L 2956 3500 
L 3675 769 
L 4391 3500 
L 4966 3500 
L 4050 0 
L 3372 0 
L 2619 2869 
L 1863 0 
L 1184 0 
L 269 3500 
z
" transform="scale(0.015625)"/>
       <path id="DejaVuSans-64" d="M 2906 2969 
L 2906 4863 
L 3481 4863 
L 3481 0 
L 2906 0 
L 2906 525 
Q 2725 213 2448 61 
Q 2172 -91 1784 -91 
Q 1150 -91 751 415 
Q 353 922 353 1747 
Q 353 2572 751 3078 
Q 1150 3584 1784 3584 
Q 2172 3584 2448 3432 
Q 2725 3281 2906 2969 
z
M 947 1747 
Q 947 1113 1208 752 
Q 1469 391 1925 391 
Q 2381 391 2643 752 
Q 2906 1113 2906 1747 
Q 2906 2381 2643 2742 
Q 2381 3103 1925 3103 
Q 1469 3103 1208 2742 
Q 947 2381 947 1747 
z
" transform="scale(0.015625)"/>
       <path id="DejaVuSans-69" d="M 603 3500 
L 1178 3500 
L 1178 0 
L 603 0 
L 603 3500 
z
M 603 4863 
L 1178 4863 
L 1178 4134 
L 603 4134 
L 603 4863 
z
" transform="scale(0.015625)"/>
       <path id="DejaVuSans-73" d="M 2834 3397 
L 2834 2853 
Q 2591 2978 2328 3040 
Q 2066 3103 1784 3103 
Q 1356 3103 1142 2972 
Q 928 2841 928 2578 
Q 928 2378 1081 2264 
Q 1234 2150 1697 2047 
L 1894 2003 
Q 2506 1872 2764 1633 
Q 3022 1394 3022 966 
Q 3022 478 2636 193 
Q 2250 -91 1575 -91 
Q 1294 -91 989 -36 
Q 684 19 347 128 
L 347 722 
Q 666 556 975 473 
Q 1284 391 1588 391 
Q 1994 391 2212 530 
Q 2431 669 2431 922 
Q 2431 1156 2273 1281 
Q 2116 1406 1581 1522 
L 1381 1569 
Q 847 1681 609 1914 
Q 372 2147 372 2553 
Q 372 3047 722 3315 
Q 1072 3584 1716 3584 
Q 2034 3584 2315 3537 
Q 2597 3491 2834 3397 
z
" transform="scale(0.015625)"/>
       <path id="DejaVuSans-6e" d="M 3513 2113 
L 3513 0 
L 2938 0 
L 2938 2094 
Q 2938 2591 2744 2837 
Q 2550 3084 2163 3084 
Q 1697 3084 1428 2787 
Q 1159 2491 1159 1978 
L 1159 0 
L 581 0 
L 581 3500 
L 1159 3500 
L 1159 2956 
Q 1366 3272 1645 3428 
Q 1925 3584 2291 3584 
Q 2894 3584 3203 3211 
Q 3513 2838 3513 2113 
z
" transform="scale(0.015625)"/>
      </defs>
      <use xlink:href="#DejaVuSans-77"/>
      <use xlink:href="#DejaVuSans-61" x="81.787109"/>
      <use xlink:href="#DejaVuSans-6c" x="143.066406"/>
      <use xlink:href="#DejaVuSans-6c" x="170.849609"/>
      <use xlink:href="#DejaVuSans-20" x="198.632812"/>
      <use xlink:href="#DejaVuSans-64" x="230.419922"/>
      <use xlink:href="#DejaVuSans-69" x="293.896484"/>
      <use xlink:href="#DejaVuSans-73" x="321.679688"/>
      <use xlink:href="#DejaVuSans-74" x="373.779297"/>
      <use xlink:href="#DejaVuSans-61" x="412.988281"/>
      <use xlink:href="#DejaVuSans-6e" x="474.267578"/>
      <use xlink:href="#DejaVuSans-63" x="537.646484"/>
      <use xlink:href="#DejaVuSans-65" x="592.626953"/>
      <use xlink:href="#DejaVuSans-20" x="654.150391"/>
      <use xlink:href="#DejaVuSans-5b" x="685.9375"/>
      <use xlink:href="#DejaVuSans-6d" x="724.951172"/>
      <use xlink:href="#DejaVuSans-6d" x="822.363281"/>
      <use xlink:href="#DejaVuSans-5d" x="919.775391"/>
     </g>
    </g>
   </g>
   <g id="line2d_55">
    <path d="M 85.416818 398.174613 
L 542.353182 398.174613 
L 542.353182 398.174613 
" clip-path="url(#pda9e1453f3)" style="fill: none; stroke: #1f77b4; stroke-width: 2; stroke-linecap: square"/>
   </g>
   <g id="line2d_56">
    <path d="M 85.416818 398.174613 
L 85.506919 398.300988 
L 85.565543 398.290157 
L 85.645286 399.702592 
L 85.749366 402.434296 
L 85.811645 401.875168 
L 86.137593 399.152598 
L 86.749211 396.579433 
L 86.902877 396.548117 
L 87.067882 396.732101 
L 87.434108 398.76584 
L 87.848735 403.900296 
L 89.131542 427.703374 
L 89.747559 441.528262 
L 90.426195 460.513833 
L 93.746599 557.953524 
L 95.242642 593.96739 
L 96.875767 624.566128 
L 98.041801 642.051121 
L 98.647664 649.423525 
L 99.267067 654.512441 
L 99.903393 658.687962 
L 101.221739 662.863483 
L 101.902067 664.10309 
L 102.594241 664.494545 
L 103.305031 664.298818 
L 104.032744 663.646393 
L 104.777381 660.384267 
L 105.538942 655.556321 
L 107.09591 637.810358 
L 109.532904 609.168896 
L 111.208337 591.488175 
L 112.071439 583.724316 
L 113.831491 573.807454 
L 114.711516 570.153874 
L 116.539262 563.629622 
L 119.314727 552.603638 
L 120.262447 548.689087 
L 121.210167 543.861141 
L 125.085664 516.198316 
L 126.067231 510.652703 
L 127.065722 506.15097 
L 128.047289 503.802239 
L 129.045779 502.171176 
L 130.04427 500.801084 
L 131.04276 498.713323 
L 133.073589 491.210434 
L 136.102907 475.878444 
L 138.133736 466.41828 
L 139.14915 462.190565 
L 140.164564 458.439121 
L 142.195392 452.365043 
L 144.226221 441.67832 
L 145.241635 435.773872 
L 146.257049 430.639287 
L 147.272463 428.192692 
L 148.287877 426.150602 
L 149.303291 423.416941 
L 150.318705 420.004757 
L 153.364948 407.634777 
L 155.395776 399.9603 
L 156.41119 396.675992 
L 157.426604 394.971205 
L 158.442019 394.443394 
L 159.457433 396.977413 
L 161.488261 402.406895 
L 162.503675 404.992455 
L 163.519089 408.541648 
L 164.534503 412.521441 
L 166.565332 422.77104 
L 168.59616 435.702106 
L 169.611574 440.784497 
L 170.626988 445.005688 
L 172.657816 450.107652 
L 174.688645 455.268335 
L 175.704059 457.264756 
L 176.719473 458.732712 
L 177.734887 458.693567 
L 178.750301 458.354306 
L 179.765715 458.334733 
L 180.78113 458.654421 
L 181.796544 460.135426 
L 182.811958 460.944433 
L 183.827372 460.109329 
L 184.842786 459.045876 
L 186.873614 456.383982 
L 188.904443 451.295066 
L 189.919857 449.376936 
L 191.950685 446.016947 
L 192.966099 444.079244 
L 193.981513 441.665271 
L 196.012342 436.087036 
L 197.027756 433.216366 
L 199.058584 428.29708 
L 201.089412 421.707587 
L 203.120241 414.341707 
L 205.151069 407.843553 
L 207.181897 399.780231 
L 208.197311 397.128123 
L 209.212726 395.603405 
L 210.22814 396.655115 
L 211.243554 397.190103 
L 212.258968 396.071847 
L 213.274382 395.200207 
L 214.289796 394.727851 
L 216.320625 393.585455 
L 217.336039 393.60568 
L 218.351453 394.973815 
L 219.366867 396.667511 
L 221.397695 399.06974 
L 222.413109 401.516987 
L 223.428524 404.477692 
L 225.459352 412.952042 
L 228.505594 427.122715 
L 230.536423 436.772083 
L 231.551837 440.934555 
L 233.582665 447.347894 
L 237.644322 458.125957 
L 238.659736 460.611696 
L 239.67515 463.54761 
L 240.690564 466.874978 
L 242.721392 472.224864 
L 243.736806 473.333986 
L 244.752221 474.116896 
L 245.767635 475.356504 
L 246.783049 477.052809 
L 247.798463 479.075327 
L 248.813877 480.510663 
L 250.844705 480.053965 
L 251.86012 479.792995 
L 252.875534 479.271055 
L 254.99098 476.008929 
L 256.006394 474.116896 
L 257.021808 471.702923 
L 259.052636 465.178672 
L 260.068051 462.621166 
L 261.083465 459.561292 
L 263.114293 452.65211 
L 265.145121 446.917293 
L 267.175949 441.854474 
L 270.222192 433.072832 
L 271.237606 430.495753 
L 273.268434 426.385475 
L 275.299263 423.593095 
L 276.314677 422.738418 
L 277.330091 422.444827 
L 278.345505 421.94246 
L 280.376333 420.02433 
L 281.391747 419.495866 
L 283.422576 418.204064 
L 284.43799 417.669075 
L 285.453404 416.997077 
L 286.468818 417.049271 
L 287.484232 417.564687 
L 288.499646 419.319711 
L 289.515061 421.485762 
L 291.545889 428.916884 
L 293.576717 437.548469 
L 295.607545 444.829533 
L 298.653788 452.821741 
L 299.669202 455.09218 
L 301.70003 458.497839 
L 302.715444 459.424283 
L 303.730859 460.181096 
L 304.746273 460.683463 
L 305.761687 461.375034 
L 306.777101 462.555923 
L 308.807929 465.178672 
L 309.823343 466.287795 
L 311.854172 466.222552 
L 313.715764 467.853615 
L 314.731178 469.02798 
L 315.746593 469.680406 
L 317.777421 467.853615 
L 318.792835 466.67925 
L 319.808249 465.243915 
L 321.839077 461.577286 
L 323.869906 457.036407 
L 324.88532 455.314005 
L 325.900734 453.089235 
L 326.916148 450.048934 
L 327.931562 447.504476 
L 329.962391 443.916138 
L 333.008633 437.078723 
L 337.07029 426.848697 
L 339.101118 422.353488 
L 340.116532 420.520173 
L 343.162774 413.3174 
L 347.224431 406.082005 
L 349.255259 401.600497 
L 351.286088 397.784854 
L 352.301502 396.319768 
L 353.316916 395.649728 
L 354.33233 397.586386 
L 355.347744 400.197131 
L 357.378572 407.060643 
L 360.424815 420.937725 
L 361.440229 425.628662 
L 363.471057 433.594772 
L 365.501886 439.173007 
L 367.532714 443.602974 
L 369.563542 447.041254 
L 372.609785 453.539408 
L 373.625199 456.390506 
L 374.640613 458.732712 
L 375.656027 460.396396 
L 376.671441 461.264122 
L 379.717684 465.3744 
L 381.748512 468.571283 
L 382.763926 469.484678 
L 383.77934 469.419436 
L 384.794754 467.20119 
L 385.810168 465.309157 
L 387.840997 462.542875 
L 389.871825 459.443856 
L 390.887239 457.395241 
L 393.933481 450.146798 
L 395.96431 448.222144 
L 396.979724 446.545411 
L 401.04138 437.946448 
L 403.072209 433.118502 
L 404.087623 431.148178 
L 407.133865 427.259725 
L 408.149279 425.635186 
L 413.22635 413.689282 
L 417.288007 405.220804 
L 418.303421 403.660203 
L 419.318835 402.760509 
L 420.334249 402.292068 
L 421.349663 403.457951 
L 422.365077 405.240377 
L 424.395906 411.725482 
L 427.442148 418.804295 
L 429.472976 423.488707 
L 431.503805 427.494598 
L 437.59629 442.963597 
L 439.627118 447.550146 
L 441.657946 453.187099 
L 443.688774 458.067239 
L 444.704189 459.985368 
L 445.719603 461.577286 
L 448.765845 467.853615 
L 449.781259 469.419436 
L 450.796673 469.288951 
L 452.827502 467.72313 
L 453.842916 466.614008 
L 454.85833 464.656732 
L 457.904572 457.982423 
L 458.919987 456.279594 
L 461.966229 454.974743 
L 462.981643 454.21793 
L 463.997057 452.43681 
L 465.012471 450.414292 
L 468.058714 442.970121 
L 470.089542 437.594138 
L 471.104956 435.09535 
L 473.135785 425.048003 
L 476.182027 417.01665 
L 477.197441 414.537435 
L 481.259098 407.080216 
L 483.289926 404.144303 
L 484.30534 403.026046 
L 485.320754 402.31425 
L 486.336168 402.508673 
L 487.351582 402.973852 
L 488.366997 404.95331 
L 491.413239 411.536279 
L 492.428653 413.3174 
L 494.459481 416.396846 
L 495.474896 418.145346 
L 497.505724 422.836282 
L 499.536552 428.277508 
L 501.56738 434.553837 
L 502.582795 437.183111 
L 505.459801 446.995584 
L 506.475215 450.99495 
L 507.321394 455.13785 
L 509.182987 462.19709 
L 510.198401 465.11343 
L 512.059993 472.290106 
L 513.75235 480.119207 
L 514.598529 482.79415 
L 515.613943 482.728908 
L 516.460121 481.945998 
L 517.3063 480.70639 
L 518.152478 479.792995 
L 518.998657 478.61863 
L 519.675599 476.791839 
L 522.044899 467.527403 
L 523.56802 463.80858 
L 524.414199 461.32284 
L 525.768084 453.917815 
L 526.445027 452.880459 
L 527.12197 452.580343 
L 527.798912 453.200147 
L 528.475855 453.232768 
L 528.983562 453.461117 
L 529.660505 454.628958 
L 530.168212 457.949802 
L 530.845155 461.087967 
L 531.352862 462.242759 
L 531.860569 462.542875 
L 532.368276 461.851304 
L 532.875983 461.348937 
L 533.38369 461.10754 
L 533.891397 460.383348 
L 534.906811 453.69599 
L 535.245283 449.546567 
L 535.75299 446.173529 
L 536.091461 445.514579 
L 536.93764 444.875203 
L 537.276111 444.203205 
L 537.953054 441.789232 
L 538.291525 441.593504 
L 538.799232 441.776183 
L 539.137704 441.208574 
L 539.476175 438.683688 
L 539.814646 432.720523 
L 540.153118 429.614979 
L 540.660825 417.779988 
L 541.168532 406.062432 
L 541.337768 403.64585 
L 541.337768 401.736202 
L 541.676239 400.888701 
L 541.676239 400.888701 
L 541.845475 401.019839 
L 541.845475 401.8569 
L 542.01471 402.904695 
L 542.01471 405.488298 
L 542.183946 406.316878 
L 542.183946 407.523865 
L 542.353182 407.778311 
L 542.353182 420.357067 
L 542.353182 402.669822 
L 542.353182 406.342975 
" clip-path="url(#pda9e1453f3)" style="fill: none; stroke: #ff7f0e; stroke-width: 2; stroke-linecap: square"/>
   </g>
   <g id="patch_9">
    <path d="M 62.57 678.04 
L 62.57 380.04 
" style="fill: none; stroke: #000000; stroke-width: 0.8; stroke-linejoin: miter; stroke-linecap: square"/>
   </g>
   <g id="patch_10">
    <path d="M 565.2 678.04 
L 565.2 380.04 
" style="fill: none; stroke: #000000; stroke-width: 0.8; stroke-linejoin: miter; stroke-linecap: square"/>
   </g>
   <g id="patch_11">
    <path d="M 62.57 678.04 
L 565.2 678.04 
" style="fill: none; stroke: #000000; stroke-width: 0.8; stroke-linejoin: miter; stroke-linecap: square"/>
   </g>
   <g id="patch_12">
    <path d="M 62.57 380.04 
L 565.2 380.04 
" style="fill: none; stroke: #000000; stroke-width: 0.8; stroke-linejoin: miter; stroke-linecap: square"/>
   </g>
   <g id="text_33">
    <!-- Wall Distance -->
    <g transform="translate(273.1825 374.04)scale(0.12 -0.12)">
     <defs>
      <path id="DejaVuSans-57" d="M 213 4666 
L 850 4666 
L 1831 722 
L 2809 4666 
L 3519 4666 
L 4500 722 
L 5478 4666 
L 6119 4666 
L 4947 0 
L 4153 0 
L 3169 4050 
L 2175 0 
L 1381 0 
L 213 4666 
z
" transform="scale(0.015625)"/>
      <path id="DejaVuSans-44" d="M 1259 4147 
L 1259 519 
L 2022 519 
Q 2988 519 3436 956 
Q 3884 1394 3884 2338 
Q 3884 3275 3436 3711 
Q 2988 4147 2022 4147 
L 1259 4147 
z
M 628 4666 
L 1925 4666 
Q 3281 4666 3915 4102 
Q 4550 3538 4550 2338 
Q 4550 1131 3912 565 
Q 3275 0 1925 0 
L 628 0 
L 628 4666 
z
" transform="scale(0.015625)"/>
     </defs>
     <use xlink:href="#DejaVuSans-57"/>
     <use xlink:href="#DejaVuSans-61" x="92.501953"/>
     <use xlink:href="#DejaVuSans-6c" x="153.78125"/>
     <use xlink:href="#DejaVuSans-6c" x="181.564453"/>
     <use xlink:href="#DejaVuSans-20" x="209.347656"/>
     <use xlink:href="#DejaVuSans-44" x="241.134766"/>
     <use xlink:href="#DejaVuSans-69" x="318.136719"/>
     <use xlink:href="#DejaVuSans-73" x="345.919922"/>
     <use xlink:href="#DejaVuSans-74" x="398.019531"/>
     <use xlink:href="#DejaVuSans-61" x="437.228516"/>
     <use xlink:href="#DejaVuSans-6e" x="498.507812"/>
     <use xlink:href="#DejaVuSans-63" x="561.886719"/>
     <use xlink:href="#DejaVuSans-65" x="616.867188"/>
    </g>
   </g>
   <g id="legend_2">
    <g id="patch_13">
     <path d="M 454.95625 673.04 
L 558.2 673.04 
Q 560.2 673.04 560.2 671.04 
L 560.2 657.361875 
Q 560.2 655.361875 558.2 655.361875 
L 454.95625 655.361875 
Q 452.95625 655.361875 452.95625 657.361875 
L 452.95625 671.04 
Q 452.95625 673.04 454.95625 673.04 
z
" style="fill: #ffffff; opacity: 0.8; stroke: #cccccc; stroke-linejoin: miter"/>
    </g>
    <g id="line2d_57">
     <path d="M 456.95625 663.460312 
L 466.95625 663.460312 
L 476.95625 663.460312 
" style="fill: none; stroke: #1f77b4; stroke-width: 2; stroke-linecap: square"/>
    </g>
    <g id="text_34">
     <!-- SL -->
     <g transform="translate(484.95625 666.960312)scale(0.1 -0.1)">
      <use xlink:href="#DejaVuSans-53"/>
      <use xlink:href="#DejaVuSans-4c" x="63.476562"/>
     </g>
    </g>
    <g id="line2d_58">
     <path d="M 516.876562 663.460312 
L 526.876562 663.460312 
L 536.876562 663.460312 
" style="fill: none; stroke: #ff7f0e; stroke-width: 2; stroke-linecap: square"/>
    </g>
    <g id="text_35">
     <!-- FL -->
     <g transform="translate(544.876562 666.960312)scale(0.1 -0.1)">
      <use xlink:href="#DejaVuSans-46"/>
      <use xlink:href="#DejaVuSans-4c" x="57.519531"/>
     </g>
    </g>
   </g>
  </g>
 </g>
 <defs>
  <clipPath id="p17ec7d1e70">
   <rect x="62.57" y="25.44" width="502.63" height="298"/>
  </clipPath>
  <clipPath id="pda9e1453f3">
   <rect x="62.57" y="380.04" width="502.63" height="298"/>
  </clipPath>
 </defs>
</svg>
