<?xml version="1.0" encoding="utf-8" standalone="no"?>
<!DOCTYPE svg PUBLIC "-//W3C//DTD SVG 1.1//EN"
  "http://www.w3.org/Graphics/SVG/1.1/DTD/svg11.dtd">
<svg xmlns:xlink="http://www.w3.org/1999/xlink" width="576pt" height="432pt" viewBox="0 0 576 432" xmlns="http://www.w3.org/2000/svg" version="1.1">
 <metadata>
  <rdf:RDF xmlns:dc="http://purl.org/dc/elements/1.1/" xmlns:cc="http://creativecommons.org/ns#" xmlns:rdf="http://www.w3.org/1999/02/22-rdf-syntax-ns#">
   <cc:Work>
    <dc:type rdf:resource="http://purl.org/dc/dcmitype/StillImage"/>
    <dc:date>2022-01-10T00:01:25.653607</dc:date>
    <dc:format>image/svg+xml</dc:format>
    <dc:creator>
     <cc:Agent>
      <dc:title>Matplotlib v3.5.1, https://matplotlib.org/</dc:title>
     </cc:Agent>
    </dc:creator>
   </cc:Work>
  </rdf:RDF>
 </metadata>
 <defs>
  <style type="text/css">*{stroke-linejoin: round; stroke-linecap: butt}</style>
 </defs>
 <g id="figure_1">
  <g id="patch_1">
   <path d="M 0 432 
L 576 432 
L 576 0 
L 0 0 
z
" style="fill: #ffffff"/>
  </g>
  <g id="axes_1">
   <g id="patch_2">
    <path d="M 59.42 390.04 
L 565.2 390.04 
L 565.2 10.8 
L 59.42 10.8 
z
" style="fill: #ffffff"/>
   </g>
   <g id="matplotlib.axis_1">
    <g id="xtick_1">
     <g id="line2d_1">
      <path d="M 82.41 390.04 
L 82.41 10.8 
" clip-path="url(#p42593c9626)" style="fill: none; stroke: #b0b0b0; stroke-width: 0.8; stroke-linecap: square"/>
     </g>
     <g id="line2d_2">
      <defs>
       <path id="mb6e48924e9" d="M 0 0 
L 0 3.5 
" style="stroke: #000000; stroke-width: 0.8"/>
      </defs>
      <g>
       <use xlink:href="#mb6e48924e9" x="82.41" y="390.04" style="stroke: #000000; stroke-width: 0.8"/>
      </g>
     </g>
     <g id="text_1">
      <!-- 0 -->
      <g transform="translate(79.22875 404.638438)scale(0.1 -0.1)">
       <defs>
        <path id="DejaVuSans-30" d="M 2034 4250 
Q 1547 4250 1301 3770 
Q 1056 3291 1056 2328 
Q 1056 1369 1301 889 
Q 1547 409 2034 409 
Q 2525 409 2770 889 
Q 3016 1369 3016 2328 
Q 3016 3291 2770 3770 
Q 2525 4250 2034 4250 
z
M 2034 4750 
Q 2819 4750 3233 4129 
Q 3647 3509 3647 2328 
Q 3647 1150 3233 529 
Q 2819 -91 2034 -91 
Q 1250 -91 836 529 
Q 422 1150 422 2328 
Q 422 3509 836 4129 
Q 1250 4750 2034 4750 
z
" transform="scale(0.015625)"/>
       </defs>
       <use xlink:href="#DejaVuSans-30"/>
      </g>
     </g>
    </g>
    <g id="xtick_2">
     <g id="line2d_3">
      <path d="M 146.271111 390.04 
L 146.271111 10.8 
" clip-path="url(#p42593c9626)" style="fill: none; stroke: #b0b0b0; stroke-width: 0.8; stroke-linecap: square"/>
     </g>
     <g id="line2d_4">
      <g>
       <use xlink:href="#mb6e48924e9" x="146.271111" y="390.04" style="stroke: #000000; stroke-width: 0.8"/>
      </g>
     </g>
     <g id="text_2">
      <!-- 50 -->
      <g transform="translate(139.908611 404.638438)scale(0.1 -0.1)">
       <defs>
        <path id="DejaVuSans-35" d="M 691 4666 
L 3169 4666 
L 3169 4134 
L 1269 4134 
L 1269 2991 
Q 1406 3038 1543 3061 
Q 1681 3084 1819 3084 
Q 2600 3084 3056 2656 
Q 3513 2228 3513 1497 
Q 3513 744 3044 326 
Q 2575 -91 1722 -91 
Q 1428 -91 1123 -41 
Q 819 9 494 109 
L 494 744 
Q 775 591 1075 516 
Q 1375 441 1709 441 
Q 2250 441 2565 725 
Q 2881 1009 2881 1497 
Q 2881 1984 2565 2268 
Q 2250 2553 1709 2553 
Q 1456 2553 1204 2497 
Q 953 2441 691 2322 
L 691 4666 
z
" transform="scale(0.015625)"/>
       </defs>
       <use xlink:href="#DejaVuSans-35"/>
       <use xlink:href="#DejaVuSans-30" x="63.623047"/>
      </g>
     </g>
    </g>
    <g id="xtick_3">
     <g id="line2d_5">
      <path d="M 210.132222 390.04 
L 210.132222 10.8 
" clip-path="url(#p42593c9626)" style="fill: none; stroke: #b0b0b0; stroke-width: 0.8; stroke-linecap: square"/>
     </g>
     <g id="line2d_6">
      <g>
       <use xlink:href="#mb6e48924e9" x="210.132222" y="390.04" style="stroke: #000000; stroke-width: 0.8"/>
      </g>
     </g>
     <g id="text_3">
      <!-- 100 -->
      <g transform="translate(200.588472 404.638438)scale(0.1 -0.1)">
       <defs>
        <path id="DejaVuSans-31" d="M 794 531 
L 1825 531 
L 1825 4091 
L 703 3866 
L 703 4441 
L 1819 4666 
L 2450 4666 
L 2450 531 
L 3481 531 
L 3481 0 
L 794 0 
L 794 531 
z
" transform="scale(0.015625)"/>
       </defs>
       <use xlink:href="#DejaVuSans-31"/>
       <use xlink:href="#DejaVuSans-30" x="63.623047"/>
       <use xlink:href="#DejaVuSans-30" x="127.246094"/>
      </g>
     </g>
    </g>
    <g id="xtick_4">
     <g id="line2d_7">
      <path d="M 273.993333 390.04 
L 273.993333 10.8 
" clip-path="url(#p42593c9626)" style="fill: none; stroke: #b0b0b0; stroke-width: 0.8; stroke-linecap: square"/>
     </g>
     <g id="line2d_8">
      <g>
       <use xlink:href="#mb6e48924e9" x="273.993333" y="390.04" style="stroke: #000000; stroke-width: 0.8"/>
      </g>
     </g>
     <g id="text_4">
      <!-- 150 -->
      <g transform="translate(264.449583 404.638438)scale(0.1 -0.1)">
       <use xlink:href="#DejaVuSans-31"/>
       <use xlink:href="#DejaVuSans-35" x="63.623047"/>
       <use xlink:href="#DejaVuSans-30" x="127.246094"/>
      </g>
     </g>
    </g>
    <g id="xtick_5">
     <g id="line2d_9">
      <path d="M 337.854444 390.04 
L 337.854444 10.8 
" clip-path="url(#p42593c9626)" style="fill: none; stroke: #b0b0b0; stroke-width: 0.8; stroke-linecap: square"/>
     </g>
     <g id="line2d_10">
      <g>
       <use xlink:href="#mb6e48924e9" x="337.854444" y="390.04" style="stroke: #000000; stroke-width: 0.8"/>
      </g>
     </g>
     <g id="text_5">
      <!-- 200 -->
      <g transform="translate(328.310694 404.638438)scale(0.1 -0.1)">
       <defs>
        <path id="DejaVuSans-32" d="M 1228 531 
L 3431 531 
L 3431 0 
L 469 0 
L 469 531 
Q 828 903 1448 1529 
Q 2069 2156 2228 2338 
Q 2531 2678 2651 2914 
Q 2772 3150 2772 3378 
Q 2772 3750 2511 3984 
Q 2250 4219 1831 4219 
Q 1534 4219 1204 4116 
Q 875 4013 500 3803 
L 500 4441 
Q 881 4594 1212 4672 
Q 1544 4750 1819 4750 
Q 2544 4750 2975 4387 
Q 3406 4025 3406 3419 
Q 3406 3131 3298 2873 
Q 3191 2616 2906 2266 
Q 2828 2175 2409 1742 
Q 1991 1309 1228 531 
z
" transform="scale(0.015625)"/>
       </defs>
       <use xlink:href="#DejaVuSans-32"/>
       <use xlink:href="#DejaVuSans-30" x="63.623047"/>
       <use xlink:href="#DejaVuSans-30" x="127.246094"/>
      </g>
     </g>
    </g>
    <g id="xtick_6">
     <g id="line2d_11">
      <path d="M 401.715556 390.04 
L 401.715556 10.8 
" clip-path="url(#p42593c9626)" style="fill: none; stroke: #b0b0b0; stroke-width: 0.8; stroke-linecap: square"/>
     </g>
     <g id="line2d_12">
      <g>
       <use xlink:href="#mb6e48924e9" x="401.715556" y="390.04" style="stroke: #000000; stroke-width: 0.8"/>
      </g>
     </g>
     <g id="text_6">
      <!-- 250 -->
      <g transform="translate(392.171806 404.638438)scale(0.1 -0.1)">
       <use xlink:href="#DejaVuSans-32"/>
       <use xlink:href="#DejaVuSans-35" x="63.623047"/>
       <use xlink:href="#DejaVuSans-30" x="127.246094"/>
      </g>
     </g>
    </g>
    <g id="xtick_7">
     <g id="line2d_13">
      <path d="M 465.576667 390.04 
L 465.576667 10.8 
" clip-path="url(#p42593c9626)" style="fill: none; stroke: #b0b0b0; stroke-width: 0.8; stroke-linecap: square"/>
     </g>
     <g id="line2d_14">
      <g>
       <use xlink:href="#mb6e48924e9" x="465.576667" y="390.04" style="stroke: #000000; stroke-width: 0.8"/>
      </g>
     </g>
     <g id="text_7">
      <!-- 300 -->
      <g transform="translate(456.032917 404.638438)scale(0.1 -0.1)">
       <defs>
        <path id="DejaVuSans-33" d="M 2597 2516 
Q 3050 2419 3304 2112 
Q 3559 1806 3559 1356 
Q 3559 666 3084 287 
Q 2609 -91 1734 -91 
Q 1441 -91 1130 -33 
Q 819 25 488 141 
L 488 750 
Q 750 597 1062 519 
Q 1375 441 1716 441 
Q 2309 441 2620 675 
Q 2931 909 2931 1356 
Q 2931 1769 2642 2001 
Q 2353 2234 1838 2234 
L 1294 2234 
L 1294 2753 
L 1863 2753 
Q 2328 2753 2575 2939 
Q 2822 3125 2822 3475 
Q 2822 3834 2567 4026 
Q 2313 4219 1838 4219 
Q 1578 4219 1281 4162 
Q 984 4106 628 3988 
L 628 4550 
Q 988 4650 1302 4700 
Q 1616 4750 1894 4750 
Q 2613 4750 3031 4423 
Q 3450 4097 3450 3541 
Q 3450 3153 3228 2886 
Q 3006 2619 2597 2516 
z
" transform="scale(0.015625)"/>
       </defs>
       <use xlink:href="#DejaVuSans-33"/>
       <use xlink:href="#DejaVuSans-30" x="63.623047"/>
       <use xlink:href="#DejaVuSans-30" x="127.246094"/>
      </g>
     </g>
    </g>
    <g id="xtick_8">
     <g id="line2d_15">
      <path d="M 529.437778 390.04 
L 529.437778 10.8 
" clip-path="url(#p42593c9626)" style="fill: none; stroke: #b0b0b0; stroke-width: 0.8; stroke-linecap: square"/>
     </g>
     <g id="line2d_16">
      <g>
       <use xlink:href="#mb6e48924e9" x="529.437778" y="390.04" style="stroke: #000000; stroke-width: 0.8"/>
      </g>
     </g>
     <g id="text_8">
      <!-- 350 -->
      <g transform="translate(519.894028 404.638438)scale(0.1 -0.1)">
       <use xlink:href="#DejaVuSans-33"/>
       <use xlink:href="#DejaVuSans-35" x="63.623047"/>
       <use xlink:href="#DejaVuSans-30" x="127.246094"/>
      </g>
     </g>
    </g>
    <g id="text_9">
     <!-- Translational Position (x) [mm] -->
     <g transform="translate(235.882656 418.316562)scale(0.1 -0.1)">
      <defs>
       <path id="DejaVuSans-54" d="M -19 4666 
L 3928 4666 
L 3928 4134 
L 2272 4134 
L 2272 0 
L 1638 0 
L 1638 4134 
L -19 4134 
L -19 4666 
z
" transform="scale(0.015625)"/>
       <path id="DejaVuSans-72" d="M 2631 2963 
Q 2534 3019 2420 3045 
Q 2306 3072 2169 3072 
Q 1681 3072 1420 2755 
Q 1159 2438 1159 1844 
L 1159 0 
L 581 0 
L 581 3500 
L 1159 3500 
L 1159 2956 
Q 1341 3275 1631 3429 
Q 1922 3584 2338 3584 
Q 2397 3584 2469 3576 
Q 2541 3569 2628 3553 
L 2631 2963 
z
" transform="scale(0.015625)"/>
       <path id="DejaVuSans-61" d="M 2194 1759 
Q 1497 1759 1228 1600 
Q 959 1441 959 1056 
Q 959 750 1161 570 
Q 1363 391 1709 391 
Q 2188 391 2477 730 
Q 2766 1069 2766 1631 
L 2766 1759 
L 2194 1759 
z
M 3341 1997 
L 3341 0 
L 2766 0 
L 2766 531 
Q 2569 213 2275 61 
Q 1981 -91 1556 -91 
Q 1019 -91 701 211 
Q 384 513 384 1019 
Q 384 1609 779 1909 
Q 1175 2209 1959 2209 
L 2766 2209 
L 2766 2266 
Q 2766 2663 2505 2880 
Q 2244 3097 1772 3097 
Q 1472 3097 1187 3025 
Q 903 2953 641 2809 
L 641 3341 
Q 956 3463 1253 3523 
Q 1550 3584 1831 3584 
Q 2591 3584 2966 3190 
Q 3341 2797 3341 1997 
z
" transform="scale(0.015625)"/>
       <path id="DejaVuSans-6e" d="M 3513 2113 
L 3513 0 
L 2938 0 
L 2938 2094 
Q 2938 2591 2744 2837 
Q 2550 3084 2163 3084 
Q 1697 3084 1428 2787 
Q 1159 2491 1159 1978 
L 1159 0 
L 581 0 
L 581 3500 
L 1159 3500 
L 1159 2956 
Q 1366 3272 1645 3428 
Q 1925 3584 2291 3584 
Q 2894 3584 3203 3211 
Q 3513 2838 3513 2113 
z
" transform="scale(0.015625)"/>
       <path id="DejaVuSans-73" d="M 2834 3397 
L 2834 2853 
Q 2591 2978 2328 3040 
Q 2066 3103 1784 3103 
Q 1356 3103 1142 2972 
Q 928 2841 928 2578 
Q 928 2378 1081 2264 
Q 1234 2150 1697 2047 
L 1894 2003 
Q 2506 1872 2764 1633 
Q 3022 1394 3022 966 
Q 3022 478 2636 193 
Q 2250 -91 1575 -91 
Q 1294 -91 989 -36 
Q 684 19 347 128 
L 347 722 
Q 666 556 975 473 
Q 1284 391 1588 391 
Q 1994 391 2212 530 
Q 2431 669 2431 922 
Q 2431 1156 2273 1281 
Q 2116 1406 1581 1522 
L 1381 1569 
Q 847 1681 609 1914 
Q 372 2147 372 2553 
Q 372 3047 722 3315 
Q 1072 3584 1716 3584 
Q 2034 3584 2315 3537 
Q 2597 3491 2834 3397 
z
" transform="scale(0.015625)"/>
       <path id="DejaVuSans-6c" d="M 603 4863 
L 1178 4863 
L 1178 0 
L 603 0 
L 603 4863 
z
" transform="scale(0.015625)"/>
       <path id="DejaVuSans-74" d="M 1172 4494 
L 1172 3500 
L 2356 3500 
L 2356 3053 
L 1172 3053 
L 1172 1153 
Q 1172 725 1289 603 
Q 1406 481 1766 481 
L 2356 481 
L 2356 0 
L 1766 0 
Q 1100 0 847 248 
Q 594 497 594 1153 
L 594 3053 
L 172 3053 
L 172 3500 
L 594 3500 
L 594 4494 
L 1172 4494 
z
" transform="scale(0.015625)"/>
       <path id="DejaVuSans-69" d="M 603 3500 
L 1178 3500 
L 1178 0 
L 603 0 
L 603 3500 
z
M 603 4863 
L 1178 4863 
L 1178 4134 
L 603 4134 
L 603 4863 
z
" transform="scale(0.015625)"/>
       <path id="DejaVuSans-6f" d="M 1959 3097 
Q 1497 3097 1228 2736 
Q 959 2375 959 1747 
Q 959 1119 1226 758 
Q 1494 397 1959 397 
Q 2419 397 2687 759 
Q 2956 1122 2956 1747 
Q 2956 2369 2687 2733 
Q 2419 3097 1959 3097 
z
M 1959 3584 
Q 2709 3584 3137 3096 
Q 3566 2609 3566 1747 
Q 3566 888 3137 398 
Q 2709 -91 1959 -91 
Q 1206 -91 779 398 
Q 353 888 353 1747 
Q 353 2609 779 3096 
Q 1206 3584 1959 3584 
z
" transform="scale(0.015625)"/>
       <path id="DejaVuSans-20" transform="scale(0.015625)"/>
       <path id="DejaVuSans-50" d="M 1259 4147 
L 1259 2394 
L 2053 2394 
Q 2494 2394 2734 2622 
Q 2975 2850 2975 3272 
Q 2975 3691 2734 3919 
Q 2494 4147 2053 4147 
L 1259 4147 
z
M 628 4666 
L 2053 4666 
Q 2838 4666 3239 4311 
Q 3641 3956 3641 3272 
Q 3641 2581 3239 2228 
Q 2838 1875 2053 1875 
L 1259 1875 
L 1259 0 
L 628 0 
L 628 4666 
z
" transform="scale(0.015625)"/>
       <path id="DejaVuSans-28" d="M 1984 4856 
Q 1566 4138 1362 3434 
Q 1159 2731 1159 2009 
Q 1159 1288 1364 580 
Q 1569 -128 1984 -844 
L 1484 -844 
Q 1016 -109 783 600 
Q 550 1309 550 2009 
Q 550 2706 781 3412 
Q 1013 4119 1484 4856 
L 1984 4856 
z
" transform="scale(0.015625)"/>
       <path id="DejaVuSans-78" d="M 3513 3500 
L 2247 1797 
L 3578 0 
L 2900 0 
L 1881 1375 
L 863 0 
L 184 0 
L 1544 1831 
L 300 3500 
L 978 3500 
L 1906 2253 
L 2834 3500 
L 3513 3500 
z
" transform="scale(0.015625)"/>
       <path id="DejaVuSans-29" d="M 513 4856 
L 1013 4856 
Q 1481 4119 1714 3412 
Q 1947 2706 1947 2009 
Q 1947 1309 1714 600 
Q 1481 -109 1013 -844 
L 513 -844 
Q 928 -128 1133 580 
Q 1338 1288 1338 2009 
Q 1338 2731 1133 3434 
Q 928 4138 513 4856 
z
" transform="scale(0.015625)"/>
       <path id="DejaVuSans-5b" d="M 550 4863 
L 1875 4863 
L 1875 4416 
L 1125 4416 
L 1125 -397 
L 1875 -397 
L 1875 -844 
L 550 -844 
L 550 4863 
z
" transform="scale(0.015625)"/>
       <path id="DejaVuSans-6d" d="M 3328 2828 
Q 3544 3216 3844 3400 
Q 4144 3584 4550 3584 
Q 5097 3584 5394 3201 
Q 5691 2819 5691 2113 
L 5691 0 
L 5113 0 
L 5113 2094 
Q 5113 2597 4934 2840 
Q 4756 3084 4391 3084 
Q 3944 3084 3684 2787 
Q 3425 2491 3425 1978 
L 3425 0 
L 2847 0 
L 2847 2094 
Q 2847 2600 2669 2842 
Q 2491 3084 2119 3084 
Q 1678 3084 1418 2786 
Q 1159 2488 1159 1978 
L 1159 0 
L 581 0 
L 581 3500 
L 1159 3500 
L 1159 2956 
Q 1356 3278 1631 3431 
Q 1906 3584 2284 3584 
Q 2666 3584 2933 3390 
Q 3200 3197 3328 2828 
z
" transform="scale(0.015625)"/>
       <path id="DejaVuSans-5d" d="M 1947 4863 
L 1947 -844 
L 622 -844 
L 622 -397 
L 1369 -397 
L 1369 4416 
L 622 4416 
L 622 4863 
L 1947 4863 
z
" transform="scale(0.015625)"/>
      </defs>
      <use xlink:href="#DejaVuSans-54"/>
      <use xlink:href="#DejaVuSans-72" x="46.333984"/>
      <use xlink:href="#DejaVuSans-61" x="87.447266"/>
      <use xlink:href="#DejaVuSans-6e" x="148.726562"/>
      <use xlink:href="#DejaVuSans-73" x="212.105469"/>
      <use xlink:href="#DejaVuSans-6c" x="264.205078"/>
      <use xlink:href="#DejaVuSans-61" x="291.988281"/>
      <use xlink:href="#DejaVuSans-74" x="353.267578"/>
      <use xlink:href="#DejaVuSans-69" x="392.476562"/>
      <use xlink:href="#DejaVuSans-6f" x="420.259766"/>
      <use xlink:href="#DejaVuSans-6e" x="481.441406"/>
      <use xlink:href="#DejaVuSans-61" x="544.820312"/>
      <use xlink:href="#DejaVuSans-6c" x="606.099609"/>
      <use xlink:href="#DejaVuSans-20" x="633.882812"/>
      <use xlink:href="#DejaVuSans-50" x="665.669922"/>
      <use xlink:href="#DejaVuSans-6f" x="722.347656"/>
      <use xlink:href="#DejaVuSans-73" x="783.529297"/>
      <use xlink:href="#DejaVuSans-69" x="835.628906"/>
      <use xlink:href="#DejaVuSans-74" x="863.412109"/>
      <use xlink:href="#DejaVuSans-69" x="902.621094"/>
      <use xlink:href="#DejaVuSans-6f" x="930.404297"/>
      <use xlink:href="#DejaVuSans-6e" x="991.585938"/>
      <use xlink:href="#DejaVuSans-20" x="1054.964844"/>
      <use xlink:href="#DejaVuSans-28" x="1086.751953"/>
      <use xlink:href="#DejaVuSans-78" x="1125.765625"/>
      <use xlink:href="#DejaVuSans-29" x="1184.945312"/>
      <use xlink:href="#DejaVuSans-20" x="1223.958984"/>
      <use xlink:href="#DejaVuSans-5b" x="1255.746094"/>
      <use xlink:href="#DejaVuSans-6d" x="1294.759766"/>
      <use xlink:href="#DejaVuSans-6d" x="1392.171875"/>
      <use xlink:href="#DejaVuSans-5d" x="1489.583984"/>
     </g>
    </g>
   </g>
   <g id="matplotlib.axis_2">
    <g id="ytick_1">
     <g id="line2d_17">
      <path d="M 59.42 368.686022 
L 565.2 368.686022 
" clip-path="url(#p42593c9626)" style="fill: none; stroke: #b0b0b0; stroke-width: 0.8; stroke-linecap: square"/>
     </g>
     <g id="line2d_18">
      <defs>
       <path id="md2650360cf" d="M 0 0 
L -3.5 0 
" style="stroke: #000000; stroke-width: 0.8"/>
      </defs>
      <g>
       <use xlink:href="#md2650360cf" x="59.42" y="368.686022" style="stroke: #000000; stroke-width: 0.8"/>
      </g>
     </g>
     <g id="text_10">
      <!-- −100 -->
      <g transform="translate(24.952813 372.48524)scale(0.1 -0.1)">
       <defs>
        <path id="DejaVuSans-2212" d="M 678 2272 
L 4684 2272 
L 4684 1741 
L 678 1741 
L 678 2272 
z
" transform="scale(0.015625)"/>
       </defs>
       <use xlink:href="#DejaVuSans-2212"/>
       <use xlink:href="#DejaVuSans-31" x="83.789062"/>
       <use xlink:href="#DejaVuSans-30" x="147.412109"/>
       <use xlink:href="#DejaVuSans-30" x="211.035156"/>
      </g>
     </g>
    </g>
    <g id="ytick_2">
     <g id="line2d_19">
      <path d="M 59.42 324.900952 
L 565.2 324.900952 
" clip-path="url(#p42593c9626)" style="fill: none; stroke: #b0b0b0; stroke-width: 0.8; stroke-linecap: square"/>
     </g>
     <g id="line2d_20">
      <g>
       <use xlink:href="#md2650360cf" x="59.42" y="324.900952" style="stroke: #000000; stroke-width: 0.8"/>
      </g>
     </g>
     <g id="text_11">
      <!-- −50 -->
      <g transform="translate(31.315313 328.700171)scale(0.1 -0.1)">
       <use xlink:href="#DejaVuSans-2212"/>
       <use xlink:href="#DejaVuSans-35" x="83.789062"/>
       <use xlink:href="#DejaVuSans-30" x="147.412109"/>
      </g>
     </g>
    </g>
    <g id="ytick_3">
     <g id="line2d_21">
      <path d="M 59.42 281.115883 
L 565.2 281.115883 
" clip-path="url(#p42593c9626)" style="fill: none; stroke: #b0b0b0; stroke-width: 0.8; stroke-linecap: square"/>
     </g>
     <g id="line2d_22">
      <g>
       <use xlink:href="#md2650360cf" x="59.42" y="281.115883" style="stroke: #000000; stroke-width: 0.8"/>
      </g>
     </g>
     <g id="text_12">
      <!-- 0 -->
      <g transform="translate(46.0575 284.915102)scale(0.1 -0.1)">
       <use xlink:href="#DejaVuSans-30"/>
      </g>
     </g>
    </g>
    <g id="ytick_4">
     <g id="line2d_23">
      <path d="M 59.42 237.330813 
L 565.2 237.330813 
" clip-path="url(#p42593c9626)" style="fill: none; stroke: #b0b0b0; stroke-width: 0.8; stroke-linecap: square"/>
     </g>
     <g id="line2d_24">
      <g>
       <use xlink:href="#md2650360cf" x="59.42" y="237.330813" style="stroke: #000000; stroke-width: 0.8"/>
      </g>
     </g>
     <g id="text_13">
      <!-- 50 -->
      <g transform="translate(39.695 241.130032)scale(0.1 -0.1)">
       <use xlink:href="#DejaVuSans-35"/>
       <use xlink:href="#DejaVuSans-30" x="63.623047"/>
      </g>
     </g>
    </g>
    <g id="ytick_5">
     <g id="line2d_25">
      <path d="M 59.42 193.545744 
L 565.2 193.545744 
" clip-path="url(#p42593c9626)" style="fill: none; stroke: #b0b0b0; stroke-width: 0.8; stroke-linecap: square"/>
     </g>
     <g id="line2d_26">
      <g>
       <use xlink:href="#md2650360cf" x="59.42" y="193.545744" style="stroke: #000000; stroke-width: 0.8"/>
      </g>
     </g>
     <g id="text_14">
      <!-- 100 -->
      <g transform="translate(33.3325 197.344963)scale(0.1 -0.1)">
       <use xlink:href="#DejaVuSans-31"/>
       <use xlink:href="#DejaVuSans-30" x="63.623047"/>
       <use xlink:href="#DejaVuSans-30" x="127.246094"/>
      </g>
     </g>
    </g>
    <g id="ytick_6">
     <g id="line2d_27">
      <path d="M 59.42 149.760675 
L 565.2 149.760675 
" clip-path="url(#p42593c9626)" style="fill: none; stroke: #b0b0b0; stroke-width: 0.8; stroke-linecap: square"/>
     </g>
     <g id="line2d_28">
      <g>
       <use xlink:href="#md2650360cf" x="59.42" y="149.760675" style="stroke: #000000; stroke-width: 0.8"/>
      </g>
     </g>
     <g id="text_15">
      <!-- 150 -->
      <g transform="translate(33.3325 153.559893)scale(0.1 -0.1)">
       <use xlink:href="#DejaVuSans-31"/>
       <use xlink:href="#DejaVuSans-35" x="63.623047"/>
       <use xlink:href="#DejaVuSans-30" x="127.246094"/>
      </g>
     </g>
    </g>
    <g id="ytick_7">
     <g id="line2d_29">
      <path d="M 59.42 105.975605 
L 565.2 105.975605 
" clip-path="url(#p42593c9626)" style="fill: none; stroke: #b0b0b0; stroke-width: 0.8; stroke-linecap: square"/>
     </g>
     <g id="line2d_30">
      <g>
       <use xlink:href="#md2650360cf" x="59.42" y="105.975605" style="stroke: #000000; stroke-width: 0.8"/>
      </g>
     </g>
     <g id="text_16">
      <!-- 200 -->
      <g transform="translate(33.3325 109.774824)scale(0.1 -0.1)">
       <use xlink:href="#DejaVuSans-32"/>
       <use xlink:href="#DejaVuSans-30" x="63.623047"/>
       <use xlink:href="#DejaVuSans-30" x="127.246094"/>
      </g>
     </g>
    </g>
    <g id="ytick_8">
     <g id="line2d_31">
      <path d="M 59.42 62.190536 
L 565.2 62.190536 
" clip-path="url(#p42593c9626)" style="fill: none; stroke: #b0b0b0; stroke-width: 0.8; stroke-linecap: square"/>
     </g>
     <g id="line2d_32">
      <g>
       <use xlink:href="#md2650360cf" x="59.42" y="62.190536" style="stroke: #000000; stroke-width: 0.8"/>
      </g>
     </g>
     <g id="text_17">
      <!-- 250 -->
      <g transform="translate(33.3325 65.989755)scale(0.1 -0.1)">
       <use xlink:href="#DejaVuSans-32"/>
       <use xlink:href="#DejaVuSans-35" x="63.623047"/>
       <use xlink:href="#DejaVuSans-30" x="127.246094"/>
      </g>
     </g>
    </g>
    <g id="ytick_9">
     <g id="line2d_33">
      <path d="M 59.42 18.405467 
L 565.2 18.405467 
" clip-path="url(#p42593c9626)" style="fill: none; stroke: #b0b0b0; stroke-width: 0.8; stroke-linecap: square"/>
     </g>
     <g id="line2d_34">
      <g>
       <use xlink:href="#md2650360cf" x="59.42" y="18.405467" style="stroke: #000000; stroke-width: 0.8"/>
      </g>
     </g>
     <g id="text_18">
      <!-- 300 -->
      <g transform="translate(33.3325 22.204685)scale(0.1 -0.1)">
       <use xlink:href="#DejaVuSans-33"/>
       <use xlink:href="#DejaVuSans-30" x="63.623047"/>
       <use xlink:href="#DejaVuSans-30" x="127.246094"/>
      </g>
     </g>
    </g>
    <g id="text_19">
     <!-- Wall Distance [mm] -->
     <g transform="translate(18.873125 249.57)rotate(-90)scale(0.1 -0.1)">
      <defs>
       <path id="DejaVuSans-57" d="M 213 4666 
L 850 4666 
L 1831 722 
L 2809 4666 
L 3519 4666 
L 4500 722 
L 5478 4666 
L 6119 4666 
L 4947 0 
L 4153 0 
L 3169 4050 
L 2175 0 
L 1381 0 
L 213 4666 
z
" transform="scale(0.015625)"/>
       <path id="DejaVuSans-44" d="M 1259 4147 
L 1259 519 
L 2022 519 
Q 2988 519 3436 956 
Q 3884 1394 3884 2338 
Q 3884 3275 3436 3711 
Q 2988 4147 2022 4147 
L 1259 4147 
z
M 628 4666 
L 1925 4666 
Q 3281 4666 3915 4102 
Q 4550 3538 4550 2338 
Q 4550 1131 3912 565 
Q 3275 0 1925 0 
L 628 0 
L 628 4666 
z
" transform="scale(0.015625)"/>
       <path id="DejaVuSans-63" d="M 3122 3366 
L 3122 2828 
Q 2878 2963 2633 3030 
Q 2388 3097 2138 3097 
Q 1578 3097 1268 2742 
Q 959 2388 959 1747 
Q 959 1106 1268 751 
Q 1578 397 2138 397 
Q 2388 397 2633 464 
Q 2878 531 3122 666 
L 3122 134 
Q 2881 22 2623 -34 
Q 2366 -91 2075 -91 
Q 1284 -91 818 406 
Q 353 903 353 1747 
Q 353 2603 823 3093 
Q 1294 3584 2113 3584 
Q 2378 3584 2631 3529 
Q 2884 3475 3122 3366 
z
" transform="scale(0.015625)"/>
       <path id="DejaVuSans-65" d="M 3597 1894 
L 3597 1613 
L 953 1613 
Q 991 1019 1311 708 
Q 1631 397 2203 397 
Q 2534 397 2845 478 
Q 3156 559 3463 722 
L 3463 178 
Q 3153 47 2828 -22 
Q 2503 -91 2169 -91 
Q 1331 -91 842 396 
Q 353 884 353 1716 
Q 353 2575 817 3079 
Q 1281 3584 2069 3584 
Q 2775 3584 3186 3129 
Q 3597 2675 3597 1894 
z
M 3022 2063 
Q 3016 2534 2758 2815 
Q 2500 3097 2075 3097 
Q 1594 3097 1305 2825 
Q 1016 2553 972 2059 
L 3022 2063 
z
" transform="scale(0.015625)"/>
      </defs>
      <use xlink:href="#DejaVuSans-57"/>
      <use xlink:href="#DejaVuSans-61" x="92.501953"/>
      <use xlink:href="#DejaVuSans-6c" x="153.78125"/>
      <use xlink:href="#DejaVuSans-6c" x="181.564453"/>
      <use xlink:href="#DejaVuSans-20" x="209.347656"/>
      <use xlink:href="#DejaVuSans-44" x="241.134766"/>
      <use xlink:href="#DejaVuSans-69" x="318.136719"/>
      <use xlink:href="#DejaVuSans-73" x="345.919922"/>
      <use xlink:href="#DejaVuSans-74" x="398.019531"/>
      <use xlink:href="#DejaVuSans-61" x="437.228516"/>
      <use xlink:href="#DejaVuSans-6e" x="498.507812"/>
      <use xlink:href="#DejaVuSans-63" x="561.886719"/>
      <use xlink:href="#DejaVuSans-65" x="616.867188"/>
      <use xlink:href="#DejaVuSans-20" x="678.390625"/>
      <use xlink:href="#DejaVuSans-5b" x="710.177734"/>
      <use xlink:href="#DejaVuSans-6d" x="749.191406"/>
      <use xlink:href="#DejaVuSans-6d" x="846.603516"/>
      <use xlink:href="#DejaVuSans-5d" x="944.015625"/>
     </g>
    </g>
   </g>
   <g id="line2d_35">
    <path d="M 82.41 265.554669 
L 82.436158 265.49337 
L 82.410409 265.572183 
L 82.498282 265.554669 
L 82.660974 265.510884 
L 82.818711 265.554669 
L 84.417793 265.554669 
L 84.600436 265.66851 
L 84.793297 265.598454 
L 85.440848 265.703538 
L 85.928747 265.773595 
L 89.825552 266.202688 
L 118.376578 266.123875 
L 122.195472 265.983763 
L 123.728139 265.896193 
L 126.793472 265.852408 
L 142.886472 265.589697 
L 148.250806 265.607211 
L 150.549806 265.650996 
L 154.381472 265.694781 
L 168.175472 266.062576 
L 170.474472 266.377829 
L 171.240806 266.596754 
L 172.007139 266.999577 
L 172.773472 267.621324 
L 173.539806 268.724708 
L 174.306139 270.152102 
L 175.072472 272.087402 
L 175.838806 274.415016 
L 176.605139 277.505366 
L 177.371472 281.067929 
L 178.137806 285.513655 
L 178.904139 290.696056 
L 179.670472 297.307602 
L 180.436806 305.968288 
L 181.203139 317.203537 
L 181.969472 354.447117 
L 272.332944 354.447117 
L 273.099278 326.363374 
L 273.865611 309.374767 
L 274.631944 302.071417 
L 275.398278 297.027377 
L 276.164611 292.753954 
L 277.697278 285.873569 
L 278.463611 282.94172 
L 280.762611 275.979019 
L 282.295278 272.499857 
L 283.827944 269.635438 
L 284.594278 268.470755 
L 285.360611 267.524997 
L 286.126944 266.947034 
L 287.659611 266.316529 
L 289.192278 266.071333 
L 293.023944 265.983763 
L 308.350611 266.08009 
L 309.883278 266.062576 
L 324.443611 266.141389 
L 329.807944 266.123875 
L 339.770278 266.027548 
L 342.069278 266.027548 
L 344.368278 266.071333 
L 346.667278 266.036305 
L 376.554278 266.272744 
L 394.946278 266.377829 
L 398.011611 266.570483 
L 399.544278 266.955791 
L 400.310611 267.323586 
L 401.076944 267.945334 
L 401.843278 269.074989 
L 402.609611 270.432326 
L 403.375944 272.148701 
L 404.142278 274.452671 
L 404.908611 277.356497 
L 406.441278 285.018008 
L 407.207611 290.188149 
L 407.973944 296.677097 
L 408.740278 305.810662 
L 409.506611 323.841354 
L 410.272944 354.447117 
L 476.943944 354.447117 
L 477.710278 342.029671 
L 478.476611 332.458255 
L 479.242944 326.363374 
L 480.009278 323.114521 
L 480.775611 354.447117 
L 484.607278 354.447117 
L 485.373611 307.991158 
L 486.139944 308.183813 
L 486.906278 305.810662 
L 488.438944 303.980446 
L 489.205278 311.178712 
L 489.971611 310.705833 
L 490.737944 307.632121 
L 491.504278 305.968288 
L 492.270611 304.786091 
L 493.036944 302.868305 
L 493.803278 296.212975 
L 495.335944 294.190105 
L 496.102278 293.393216 
L 496.868611 292.377403 
L 497.634944 294.636712 
L 498.401278 293.550843 
L 499.167611 292.009608 
L 499.933944 290.897467 
L 501.466611 287.934094 
L 502.232944 284.566146 
L 502.999278 283.563468 
L 505.298278 279.807585 
L 506.064611 279.961708 
L 507.597278 277.295198 
L 509.129944 274.790692 
L 509.896278 272.701268 
L 511.428944 270.782607 
L 512.833889 269.68798 
L 513.600222 270.2747 
L 514.366556 270.484868 
L 515.132889 271.045317 
L 517.176444 274.301175 
L 517.942778 276.537716 
L 519.347722 282.982003 
L 519.986333 287.503249 
L 520.624944 298.446013 
L 521.263556 313.043955 
L 522.029889 354.447117 
L 530.715 354.447117 
L 531.225889 338.780819 
L 531.736778 354.447117 
L 533.908056 354.447117 
L 534.291222 328.430029 
L 534.674389 334.200901 
L 535.057556 323.114521 
L 535.440722 321.783455 
L 535.823889 354.447117 
L 537.484278 354.447117 
L 537.867444 313.639432 
L 538.122889 313.639432 
L 538.633778 310.241711 
L 538.889222 354.447117 
L 540.038722 354.447117 
L 540.166444 307.448224 
L 540.294167 310.469393 
L 540.677333 307.448224 
L 540.805056 354.447117 
L 541.443667 354.447117 
L 541.443667 305.661793 
L 541.571389 305.661793 
L 541.699111 304.374512 
L 541.826833 354.447117 
L 541.826833 354.447117 
L 542.082278 354.447117 
L 542.082278 301.12566 
L 542.21 354.447117 
L 542.21 354.447117 
L 542.21 300.066061 
L 542.21 301.230744 
" clip-path="url(#p42593c9626)" style="fill: none; stroke: #1f77b4; stroke-width: 1.5; stroke-linecap: square"/>
   </g>
   <g id="line2d_36">
    <path d="M 82.41 372.363967 
L 424.833278 372.363967 
L 425.599611 359.929008 
L 426.365944 359.929008 
L 427.132278 346.329365 
L 427.898611 354.158136 
L 428.664944 347.520319 
L 429.431278 364.517683 
L 430.197611 372.363967 
L 433.262944 372.363967 
L 434.029278 350.357592 
L 434.795611 341.013858 
L 435.561944 342.528821 
L 436.328278 341.013858 
L 437.094611 341.013858 
L 437.860944 340.330811 
L 438.627278 372.363967 
L 442.458944 372.363967 
L 443.225278 340.330811 
L 443.991611 339.078558 
L 444.757944 339.078558 
L 446.290611 340.330811 
L 447.056944 338.500595 
L 447.823278 372.363967 
L 450.888611 372.363967 
L 451.654944 339.078558 
L 452.421278 337.948903 
L 453.187611 339.078558 
L 453.953944 339.682792 
L 454.720278 337.423482 
L 455.486611 339.682792 
L 456.252944 372.363967 
L 459.318278 372.363967 
L 460.084611 338.500595 
L 461.617278 335.531967 
L 462.383611 335.531967 
L 463.149944 335.102873 
L 463.916278 333.185087 
L 464.682611 372.363967 
L 467.747944 372.363967 
L 468.514278 332.834807 
L 469.280611 330.382843 
L 470.046944 330.111376 
L 470.813278 331.854021 
L 471.579611 329.848665 
L 472.345944 331.854021 
L 473.112278 372.363967 
L 476.177611 372.363967 
L 476.943944 326.275803 
L 477.710278 327.274103 
L 478.476611 324.664513 
L 479.242944 324.340503 
L 480.009278 324.182877 
L 480.775611 323.263391 
L 481.541944 372.363967 
L 484.607278 372.363967 
L 485.373611 321.879782 
L 486.139944 320.426118 
L 486.906278 320.653801 
L 487.672611 319.340248 
L 488.438944 319.13008 
L 489.205278 356.680156 
L 489.971611 372.363967 
L 492.270611 372.363967 
L 493.036944 346.329365 
L 493.803278 316.187723 
L 495.335944 315.802415 
L 496.102278 314.99677 
L 496.868611 314.383779 
L 497.634944 330.111376 
L 498.401278 334.297228 
L 499.167611 331.24103 
L 499.933944 329.086805 
L 501.466611 327.274103 
L 502.232944 311.817974 
L 502.999278 311.353852 
L 503.765611 311.143683 
L 505.298278 310.320524 
L 506.064611 322.011138 
L 507.597278 319.97951 
L 508.363611 319.54166 
L 509.129944 318.832342 
L 509.896278 308.087486 
L 510.662611 307.745962 
L 511.428944 307.203027 
L 512.195278 307.062915 
L 512.833889 306.616307 
L 513.600222 315.066826 
L 514.366556 313.919657 
L 515.132889 313.604404 
L 515.7715 312.763731 
L 516.537833 312.036899 
L 517.176444 304.645979 
L 517.942778 304.365755 
L 519.347722 303.542595 
L 519.986333 303.367455 
L 520.624944 309.471094 
L 521.263556 309.006972 
L 522.029889 308.201327 
L 522.6685 308.008673 
L 523.307111 307.238055 
L 523.945722 301.405884 
L 524.584333 301.090632 
L 525.095222 300.62651 
L 525.733833 300.407584 
L 526.372444 299.934706 
L 526.883333 304.733549 
L 527.521944 304.286942 
L 528.032833 303.779035 
L 528.671444 303.542595 
L 529.182333 303.087231 
L 529.693222 298.340929 
L 530.204111 297.938107 
L 531.225889 297.456471 
L 531.736778 297.088676 
L 532.119944 300.740351 
L 532.630833 300.407584 
L 533.014 299.987248 
L 533.524889 299.855893 
L 533.908056 299.444313 
L 534.291222 295.643769 
L 535.440722 294.881909 
L 535.823889 294.444058 
L 536.207056 297.272573 
L 536.590222 296.913536 
L 536.845667 296.51947 
L 537.228833 296.326816 
L 537.484278 295.941507 
L 537.867444 293.279375 
L 538.122889 292.552543 
L 538.889222 291.773169 
L 539.144667 294.14632 
L 539.400111 293.962422 
L 539.527833 293.445758 
L 540.038722 293.034179 
L 540.294167 290.310747 
L 540.549611 290.240691 
L 540.805056 289.635582 
L 540.932778 291.510458 
L 541.443667 290.669785 
L 541.443667 288.49104 
L 541.699111 287.975252 
L 541.826833 287.681892 
L 541.826833 289.274793 
L 541.954556 289.332589 
L 541.954556 288.744118 
L 542.082278 288.477029 
L 542.082278 286.335939 
L 542.21 286.208086 
L 542.21 287.488362 
L 542.21 284.782445 
L 542.21 285.377922 
" clip-path="url(#p42593c9626)" style="fill: none; stroke: #ff7f0e; stroke-width: 1.5; stroke-linecap: square"/>
   </g>
   <g id="line2d_37">
    <path d="M 82.41 372.801818 
L 470.813278 372.801818 
L 471.579611 360.375615 
L 472.345944 372.801818 
L 476.177611 372.801818 
L 476.943944 333.631695 
L 477.710278 334.358527 
L 478.476611 331.687638 
L 479.242944 331.687638 
L 480.009278 330.557983 
L 480.775611 372.801818 
L 484.607278 372.801818 
L 485.373611 324.944737 
L 486.139944 324.620728 
L 486.906278 324.007737 
L 487.672611 324.620728 
L 488.438944 322.991923 
L 489.205278 372.801818 
L 493.036944 372.801818 
L 493.803278 317.965397 
L 494.569611 318.412005 
L 495.335944 317.527547 
L 496.102278 317.965397 
L 496.868611 316.634331 
L 497.634944 342.966672 
L 498.401278 337.362183 
L 499.167611 334.358527 
L 499.933944 331.985376 
L 501.466611 330.286516 
L 502.232944 314.690274 
L 502.999278 313.087741 
L 503.765611 313.035198 
L 504.531944 312.47475 
L 505.298278 312.47475 
L 506.064611 323.561129 
L 506.830944 323.709998 
L 507.597278 321.941082 
L 508.363611 321.941082 
L 509.129944 319.778099 
L 509.896278 310.12787 
L 510.662611 309.444823 
L 511.428944 309.322225 
L 512.195278 308.45528 
L 512.833889 313.385479 
L 513.600222 315.58349 
L 514.366556 315.303265 
L 515.132889 314.234909 
L 515.7715 313.621918 
L 516.537833 313.14904 
L 517.176444 306.34484 
L 517.942778 305.696821 
L 518.581389 305.75812 
L 519.347722 305.092587 
L 519.986333 309.742561 
L 520.624944 310.863459 
L 521.263556 309.873916 
L 522.029889 309.155841 
L 522.6685 308.95443 
L 523.307111 308.19257 
L 523.945722 303.008418 
L 524.584333 302.32537 
L 525.095222 302.500511 
L 525.733833 301.405884 
L 526.372444 305.521681 
L 526.883333 305.206428 
L 527.521944 305.092587 
L 528.032833 304.295699 
L 528.671444 304.138072 
L 529.182333 303.463782 
L 529.693222 299.496855 
L 530.204111 298.910135 
L 530.715 298.813808 
L 531.225889 298.244602 
L 531.736778 301.283286 
L 532.119944 300.906734 
L 532.630833 300.854192 
L 533.014 300.153631 
L 533.524889 300.136117 
L 533.908056 299.383014 
L 534.291222 296.449414 
L 534.674389 295.853937 
L 535.057556 295.959021 
L 535.440722 295.337273 
L 535.823889 297.762966 
L 536.590222 296.825966 
L 536.845667 296.773424 
L 537.484278 295.801395 
L 537.867444 293.472029 
L 538.122889 292.859038 
L 538.378333 292.97288 
L 538.633778 292.368646 
L 538.889222 294.365245 
L 539.144667 293.796039 
L 539.400111 293.5596 
L 539.527833 293.664684 
L 539.783278 293.086721 
L 540.038722 292.806496 
L 540.294167 290.407075 
L 540.677333 290.240691 
L 540.805056 291.38786 
L 540.932778 291.501701 
L 541.188222 290.722327 
L 541.315944 290.809897 
L 541.443667 290.240691 
L 541.443667 288.692451 
L 541.571389 288.188047 
L 541.699111 288.353555 
L 541.699111 287.807993 
L 541.826833 289.227505 
L 541.826833 288.751999 
L 541.954556 288.812422 
L 541.954556 288.718722 
L 541.954556 288.162652 
L 542.082278 287.955986 
L 542.082278 286.101251 
L 542.082278 286.228228 
L 542.21 287.194126 
L 542.21 286.340317 
L 542.21 284.476825 
L 542.21 285.2886 
" clip-path="url(#p42593c9626)" style="fill: none; stroke: #2ca02c; stroke-width: 1.5; stroke-linecap: square"/>
   </g>
   <g id="line2d_38">
    <path d="M 82.41 296.878508 
L 82.477999 297.973135 
L 82.498282 296.642068 
L 82.522242 296.799695 
L 82.619209 297.797994 
L 82.707976 296.642068 
L 82.883083 297.797994 
L 82.953969 297.290088 
L 83.031624 297.797994 
L 83.116304 296.878508 
L 83.208264 297.123704 
L 83.307887 296.799695 
L 83.415557 297.044891 
L 83.7894 296.642068 
L 83.932449 296.563255 
L 84.245368 297.368901 
L 84.417793 296.642068 
L 84.600436 297.202517 
L 84.793297 296.642068 
L 84.997652 296.414386 
L 85.440848 296.957321 
L 85.928747 296.177947 
L 86.190578 296.563255 
L 86.463903 296.177947 
L 86.747447 296.563255 
L 87.351573 295.810152 
L 87.670878 296.177947 
L 88.000402 295.591227 
L 88.342697 296.177947 
L 88.696488 296.25676 
L 89.061773 296.642068 
L 89.437277 296.177947 
L 89.825552 296.107891 
L 90.225323 295.810152 
L 90.636588 295.880208 
L 91.058072 295.240946 
L 91.492327 295.381058 
L 91.938078 296.177947 
L 92.395323 295.381058 
L 92.862787 295.67004 
L 93.343022 295.67004 
L 93.834753 296.25676 
L 94.337978 295.810152 
L 94.851422 296.177947 
L 95.373806 295.591227 
L 95.910239 295.591227 
L 96.459444 296.335573 
L 97.021422 295.381058 
L 98.183694 296.029078 
L 98.771217 295.381058 
L 99.371511 295.381058 
L 99.984578 295.591227 
L 100.610417 295.959021 
L 101.236256 296.563255 
L 101.874867 295.451115 
L 103.190406 296.107891 
L 104.518717 296.029078 
L 105.208417 295.880208 
L 106.587817 295.959021 
L 107.290289 295.521171 
L 107.992761 295.810152 
L 108.708006 296.484442 
L 109.42325 295.591227 
L 110.151267 295.67004 
L 110.879283 295.880208 
L 111.6073 295.810152 
L 112.348089 296.107891 
L 113.088878 297.044891 
L 113.842439 295.880208 
L 114.583228 296.720882 
L 115.336789 296.563255 
L 116.09035 297.544041 
L 116.843911 296.957321 
L 117.610244 296.878508 
L 118.376578 296.642068 
L 119.130139 297.123704 
L 119.896472 296.720882 
L 120.662806 297.368901 
L 121.429139 296.414386 
L 122.195472 297.202517 
L 122.961806 297.797994 
L 124.494472 296.878508 
L 125.260806 297.456471 
L 126.027139 297.456471 
L 126.793472 297.202517 
L 127.559806 297.622854 
L 128.326139 297.456471 
L 129.092472 297.710424 
L 130.625139 297.973135 
L 131.391472 297.797994 
L 132.157806 296.642068 
L 133.690472 297.544041 
L 134.456806 297.885564 
L 135.223139 297.044891 
L 135.989472 297.885564 
L 137.522139 297.973135 
L 138.288472 297.544041 
L 139.054806 297.456471 
L 139.821139 298.796294 
L 140.587472 297.456471 
L 141.353806 297.885564 
L 142.886472 297.973135 
L 143.652806 298.428499 
L 145.185472 298.612397 
L 145.951806 298.516069 
L 146.718139 298.988948 
L 147.484472 298.892621 
L 148.250806 299.383014 
L 149.017139 300.101089 
L 149.783472 300.994304 
L 150.549806 301.344585 
L 151.316139 301.458426 
L 152.082472 301.957576 
L 152.848806 304.637222 
L 153.615139 304.794848 
L 154.381472 305.810662 
L 155.147806 307.51828 
L 155.914139 308.36771 
L 156.680472 311.406394 
L 157.446806 311.695375 
L 158.213139 312.956385 
L 158.979472 320.785156 
L 159.745806 322.983166 
L 160.512139 352.800798 
L 266.202278 352.800798 
L 266.968611 334.612481 
L 267.734944 321.468203 
L 268.501278 315.557218 
L 269.267611 318.394491 
L 270.033944 311.695375 
L 270.800278 309.059514 
L 271.566611 306.922803 
L 272.332944 306.721391 
L 273.099278 303.288642 
L 273.865611 303.288642 
L 274.631944 303.008418 
L 275.398278 301.458426 
L 276.164611 301.344585 
L 276.930944 300.101089 
L 278.463611 299.479341 
L 279.229944 299.286687 
L 279.996278 298.796294 
L 280.762611 298.988948 
L 281.528944 298.988948 
L 282.295278 298.516069 
L 283.061611 298.892621 
L 283.827944 298.148275 
L 284.594278 299.181603 
L 285.360611 298.796294 
L 286.126944 297.710424 
L 287.659611 297.973135 
L 289.192278 297.973135 
L 289.958611 298.428499 
L 290.724944 299.286687 
L 291.491278 298.428499 
L 292.257611 298.244602 
L 293.023944 298.892621 
L 293.790278 298.060705 
L 294.556611 298.892621 
L 295.322944 298.428499 
L 296.089278 298.796294 
L 296.855611 297.973135 
L 297.621944 298.796294 
L 298.388278 297.973135 
L 299.920944 297.973135 
L 300.687278 298.428499 
L 301.453611 297.973135 
L 302.219944 298.148275 
L 302.986278 297.973135 
L 303.752611 298.244602 
L 304.518944 297.973135 
L 305.285278 297.544041 
L 306.051611 298.428499 
L 306.817944 298.332172 
L 307.584278 297.797994 
L 308.350611 297.710424 
L 309.116944 297.456471 
L 309.883278 297.973135 
L 310.649611 296.878508 
L 311.415944 296.642068 
L 312.948611 296.642068 
L 313.714944 297.044891 
L 314.481278 296.642068 
L 315.247611 296.642068 
L 316.013944 297.202517 
L 316.780278 297.044891 
L 317.546611 297.797994 
L 318.312944 297.456471 
L 319.079278 297.544041 
L 319.845611 297.885564 
L 320.611944 297.123704 
L 321.378278 296.957321 
L 322.144611 296.563255 
L 322.910944 297.456471 
L 323.677278 297.622854 
L 324.443611 297.290088 
L 325.209944 296.563255 
L 325.976278 297.368901 
L 326.742611 297.456471 
L 327.508944 297.123704 
L 328.275278 296.642068 
L 329.041611 297.973135 
L 329.807944 297.456471 
L 330.574278 297.973135 
L 331.340611 297.973135 
L 332.106944 297.456471 
L 332.873278 297.622854 
L 333.639611 296.642068 
L 334.405944 296.720882 
L 335.172278 297.710424 
L 335.938611 296.642068 
L 336.704944 297.456471 
L 337.471278 297.290088 
L 338.237611 296.642068 
L 339.003944 297.456471 
L 339.770278 296.878508 
L 340.536611 297.456471 
L 341.302944 298.332172 
L 343.601944 297.885564 
L 344.368278 297.797994 
L 345.134611 296.642068 
L 345.900944 297.973135 
L 346.667278 297.456471 
L 347.433611 296.642068 
L 348.199944 297.202517 
L 348.966278 297.368901 
L 349.732611 296.642068 
L 350.498944 297.544041 
L 351.265278 297.456471 
L 352.031611 297.710424 
L 352.797944 297.544041 
L 353.564278 297.973135 
L 354.330611 297.885564 
L 355.096944 297.973135 
L 355.863278 296.642068 
L 356.629611 297.368901 
L 357.395944 296.642068 
L 358.162278 297.123704 
L 359.694944 297.044891 
L 360.461278 296.484442 
L 361.227611 297.044891 
L 361.993944 297.044891 
L 362.760278 297.544041 
L 363.526611 297.456471 
L 364.292944 297.622854 
L 365.825611 297.202517 
L 366.591944 296.335573 
L 367.358278 297.368901 
L 368.890944 296.878508 
L 369.657278 296.414386 
L 370.423611 296.878508 
L 371.189944 297.044891 
L 371.956278 297.885564 
L 372.722611 298.332172 
L 373.488944 297.973135 
L 374.255278 298.612397 
L 375.787944 298.148275 
L 377.320611 297.544041 
L 378.853278 299.181603 
L 379.619611 299.479341 
L 380.385944 298.988948 
L 381.152278 300.53894 
L 381.918611 300.425098 
L 382.684944 303.288642 
L 383.451278 304.32197 
L 384.983944 306.721391 
L 385.750278 309.059514 
L 386.516611 307.938616 
L 387.282944 309.54115 
L 389.581944 321.468203 
L 390.348278 352.800798 
L 493.036944 352.800798 
L 493.803278 316.424163 
L 494.569611 320.137137 
L 495.335944 314.366265 
L 496.102278 311.117412 
L 496.868611 312.956385 
L 497.634944 352.800798 
L 501.466611 352.800798 
L 502.232944 313.639432 
L 502.999278 314.751573 
L 503.765611 312.956385 
L 504.531944 319.532903 
L 505.298278 320.137137 
L 506.064611 352.800798 
L 533.908056 352.800798 
L 534.291222 326.78371 
L 534.674389 322.203792 
L 535.057556 321.468203 
L 535.440722 334.612481 
L 535.823889 321.468203 
L 536.207056 352.800798 
L 537.484278 352.800798 
L 537.867444 310.837188 
L 538.122889 311.406394 
L 538.378333 309.059514 
L 538.889222 312.623619 
L 539.144667 352.800798 
L 540.038722 352.800798 
L 540.166444 307.316868 
L 540.294167 305.460381 
L 540.549611 305.285241 
L 540.677333 305.985802 
L 540.805056 305.810662 
L 540.932778 352.800798 
L 541.443667 352.800798 
L 541.443667 303.288642 
L 541.571389 303.008418 
L 541.699111 303.288642 
L 541.826833 302.334128 
L 541.826833 352.800798 
L 542.082278 352.800798 
L 542.082278 299.479341 
L 542.082278 299.689509 
L 542.21 300.21493 
L 542.21 352.800798 
L 542.21 296.878508 
L 542.21 297.973135 
" clip-path="url(#p42593c9626)" style="fill: none; stroke: #d62728; stroke-width: 1.5; stroke-linecap: square"/>
   </g>
   <g id="line2d_39">
    <path d="M 82.41 28.038182 
L 329.807944 28.038182 
L 330.574278 91.088682 
L 341.302944 91.088682 
L 342.069278 100.721397 
L 352.031611 100.721397 
L 352.797944 104.224203 
L 362.760278 104.224203 
L 363.526611 108.602709 
L 372.722611 108.602709 
L 373.488944 116.484022 
L 382.684944 116.484022 
L 383.451278 120.862529 
L 392.647278 120.862529 
L 393.413611 128.743841 
L 402.609611 128.743841 
L 403.375944 137.500855 
L 411.805611 137.500855 
L 412.571944 141.003661 
L 421.001611 141.003661 
L 421.767944 146.257869 
L 430.197611 146.257869 
L 430.963944 153.26348 
L 439.393611 153.26348 
L 440.159944 161.144793 
L 447.823278 161.144793 
L 448.589611 167.274702 
L 456.252944 167.274702 
L 457.019278 171.653209 
L 464.682611 171.653209 
L 465.448944 178.658821 
L 473.112278 178.658821 
L 473.878611 184.78873 
L 481.541944 184.78873 
L 482.308278 191.794341 
L 489.971611 191.794341 
L 490.737944 194.421445 
L 498.401278 194.421445 
L 499.167611 205.805564 
L 506.064611 205.805564 
L 506.830944 207.556966 
L 513.600222 207.556966 
L 514.366556 217.189682 
L 520.624944 217.189682 
L 521.263556 220.692487 
L 526.883333 220.692487 
L 527.521944 225.070994 
L 532.119944 225.070994 
L 532.630833 230.325202 
L 536.207056 230.325202 
L 536.590222 232.952307 
L 539.144667 232.952307 
L 539.400111 234.703709 
L 540.932778 234.703709 
L 541.0605 238.206515 
L 542.21 238.206515 
L 542.21 238.206515 
L 542.21 243.460723 
L 542.21 239.957918 
" clip-path="url(#p42593c9626)" style="fill: none; stroke: #9467bd; stroke-width: 1.5; stroke-linecap: square"/>
   </g>
   <g id="patch_3">
    <path d="M 59.42 390.04 
L 59.42 10.8 
" style="fill: none; stroke: #000000; stroke-width: 0.8; stroke-linejoin: miter; stroke-linecap: square"/>
   </g>
   <g id="patch_4">
    <path d="M 565.2 390.04 
L 565.2 10.8 
" style="fill: none; stroke: #000000; stroke-width: 0.8; stroke-linejoin: miter; stroke-linecap: square"/>
   </g>
   <g id="patch_5">
    <path d="M 59.42 390.04 
L 565.2 390.04 
" style="fill: none; stroke: #000000; stroke-width: 0.8; stroke-linejoin: miter; stroke-linecap: square"/>
   </g>
   <g id="patch_6">
    <path d="M 59.42 10.8 
L 565.2 10.8 
" style="fill: none; stroke: #000000; stroke-width: 0.8; stroke-linejoin: miter; stroke-linecap: square"/>
   </g>
  </g>
 </g>
 <defs>
  <clipPath id="p42593c9626">
   <rect x="59.42" y="10.8" width="505.78" height="379.24"/>
  </clipPath>
 </defs>
</svg>
