<?xml version="1.0" encoding="utf-8" standalone="no"?>
<!DOCTYPE svg PUBLIC "-//W3C//DTD SVG 1.1//EN"
  "http://www.w3.org/Graphics/SVG/1.1/DTD/svg11.dtd">
<svg xmlns:xlink="http://www.w3.org/1999/xlink" width="460.8pt" height="345.6pt" viewBox="0 0 460.8 345.6" xmlns="http://www.w3.org/2000/svg" version="1.1">
 <metadata>
  <rdf:RDF xmlns:dc="http://purl.org/dc/elements/1.1/" xmlns:cc="http://creativecommons.org/ns#" xmlns:rdf="http://www.w3.org/1999/02/22-rdf-syntax-ns#">
   <cc:Work>
    <dc:type rdf:resource="http://purl.org/dc/dcmitype/StillImage"/>
    <dc:date>2022-01-15T16:32:21.624538</dc:date>
    <dc:format>image/svg+xml</dc:format>
    <dc:creator>
     <cc:Agent>
      <dc:title>Matplotlib v3.5.1, https://matplotlib.org/</dc:title>
     </cc:Agent>
    </dc:creator>
   </cc:Work>
  </rdf:RDF>
 </metadata>
 <defs>
  <style type="text/css">*{stroke-linejoin: round; stroke-linecap: butt}</style>
 </defs>
 <g id="figure_1">
  <g id="patch_1">
   <path d="M 0 345.6 
L 460.8 345.6 
L 460.8 0 
L 0 0 
z
" style="fill: #ffffff"/>
  </g>
  <g id="axes_1">
   <g id="patch_2">
    <path d="M 52.582813 304.44375 
L 450 304.44375 
L 450 25.918125 
L 52.582813 25.918125 
z
" style="fill: #ffffff"/>
   </g>
   <g id="matplotlib.axis_1">
    <g id="xtick_1">
     <g id="line2d_1">
      <path d="M 70.64723 304.44375 
L 70.64723 25.918125 
" clip-path="url(#p78699d190e)" style="fill: none; stroke: #b0b0b0; stroke-width: 0.8; stroke-linecap: square"/>
     </g>
     <g id="line2d_2">
      <defs>
       <path id="m9ff8aee141" d="M 0 0 
L 0 3.5 
" style="stroke: #000000; stroke-width: 0.8"/>
      </defs>
      <g>
       <use xlink:href="#m9ff8aee141" x="70.64723" y="304.44375" style="stroke: #000000; stroke-width: 0.8"/>
      </g>
     </g>
     <g id="text_1">
      <!-- 0 -->
      <g transform="translate(67.46598 319.042187)scale(0.1 -0.1)">
       <defs>
        <path id="DejaVuSans-30" d="M 2034 4250 
Q 1547 4250 1301 3770 
Q 1056 3291 1056 2328 
Q 1056 1369 1301 889 
Q 1547 409 2034 409 
Q 2525 409 2770 889 
Q 3016 1369 3016 2328 
Q 3016 3291 2770 3770 
Q 2525 4250 2034 4250 
z
M 2034 4750 
Q 2819 4750 3233 4129 
Q 3647 3509 3647 2328 
Q 3647 1150 3233 529 
Q 2819 -91 2034 -91 
Q 1250 -91 836 529 
Q 422 1150 422 2328 
Q 422 3509 836 4129 
Q 1250 4750 2034 4750 
z
" transform="scale(0.015625)"/>
       </defs>
       <use xlink:href="#DejaVuSans-30"/>
      </g>
     </g>
    </g>
    <g id="xtick_2">
     <g id="line2d_3">
      <path d="M 120.826168 304.44375 
L 120.826168 25.918125 
" clip-path="url(#p78699d190e)" style="fill: none; stroke: #b0b0b0; stroke-width: 0.8; stroke-linecap: square"/>
     </g>
     <g id="line2d_4">
      <g>
       <use xlink:href="#m9ff8aee141" x="120.826168" y="304.44375" style="stroke: #000000; stroke-width: 0.8"/>
      </g>
     </g>
     <g id="text_2">
      <!-- 50 -->
      <g transform="translate(114.463668 319.042187)scale(0.1 -0.1)">
       <defs>
        <path id="DejaVuSans-35" d="M 691 4666 
L 3169 4666 
L 3169 4134 
L 1269 4134 
L 1269 2991 
Q 1406 3038 1543 3061 
Q 1681 3084 1819 3084 
Q 2600 3084 3056 2656 
Q 3513 2228 3513 1497 
Q 3513 744 3044 326 
Q 2575 -91 1722 -91 
Q 1428 -91 1123 -41 
Q 819 9 494 109 
L 494 744 
Q 775 591 1075 516 
Q 1375 441 1709 441 
Q 2250 441 2565 725 
Q 2881 1009 2881 1497 
Q 2881 1984 2565 2268 
Q 2250 2553 1709 2553 
Q 1456 2553 1204 2497 
Q 953 2441 691 2322 
L 691 4666 
z
" transform="scale(0.015625)"/>
       </defs>
       <use xlink:href="#DejaVuSans-35"/>
       <use xlink:href="#DejaVuSans-30" x="63.623047"/>
      </g>
     </g>
    </g>
    <g id="xtick_3">
     <g id="line2d_5">
      <path d="M 171.005106 304.44375 
L 171.005106 25.918125 
" clip-path="url(#p78699d190e)" style="fill: none; stroke: #b0b0b0; stroke-width: 0.8; stroke-linecap: square"/>
     </g>
     <g id="line2d_6">
      <g>
       <use xlink:href="#m9ff8aee141" x="171.005106" y="304.44375" style="stroke: #000000; stroke-width: 0.8"/>
      </g>
     </g>
     <g id="text_3">
      <!-- 100 -->
      <g transform="translate(161.461356 319.042187)scale(0.1 -0.1)">
       <defs>
        <path id="DejaVuSans-31" d="M 794 531 
L 1825 531 
L 1825 4091 
L 703 3866 
L 703 4441 
L 1819 4666 
L 2450 4666 
L 2450 531 
L 3481 531 
L 3481 0 
L 794 0 
L 794 531 
z
" transform="scale(0.015625)"/>
       </defs>
       <use xlink:href="#DejaVuSans-31"/>
       <use xlink:href="#DejaVuSans-30" x="63.623047"/>
       <use xlink:href="#DejaVuSans-30" x="127.246094"/>
      </g>
     </g>
    </g>
    <g id="xtick_4">
     <g id="line2d_7">
      <path d="M 221.184044 304.44375 
L 221.184044 25.918125 
" clip-path="url(#p78699d190e)" style="fill: none; stroke: #b0b0b0; stroke-width: 0.8; stroke-linecap: square"/>
     </g>
     <g id="line2d_8">
      <g>
       <use xlink:href="#m9ff8aee141" x="221.184044" y="304.44375" style="stroke: #000000; stroke-width: 0.8"/>
      </g>
     </g>
     <g id="text_4">
      <!-- 150 -->
      <g transform="translate(211.640294 319.042187)scale(0.1 -0.1)">
       <use xlink:href="#DejaVuSans-31"/>
       <use xlink:href="#DejaVuSans-35" x="63.623047"/>
       <use xlink:href="#DejaVuSans-30" x="127.246094"/>
      </g>
     </g>
    </g>
    <g id="xtick_5">
     <g id="line2d_9">
      <path d="M 271.362981 304.44375 
L 271.362981 25.918125 
" clip-path="url(#p78699d190e)" style="fill: none; stroke: #b0b0b0; stroke-width: 0.8; stroke-linecap: square"/>
     </g>
     <g id="line2d_10">
      <g>
       <use xlink:href="#m9ff8aee141" x="271.362981" y="304.44375" style="stroke: #000000; stroke-width: 0.8"/>
      </g>
     </g>
     <g id="text_5">
      <!-- 200 -->
      <g transform="translate(261.819231 319.042187)scale(0.1 -0.1)">
       <defs>
        <path id="DejaVuSans-32" d="M 1228 531 
L 3431 531 
L 3431 0 
L 469 0 
L 469 531 
Q 828 903 1448 1529 
Q 2069 2156 2228 2338 
Q 2531 2678 2651 2914 
Q 2772 3150 2772 3378 
Q 2772 3750 2511 3984 
Q 2250 4219 1831 4219 
Q 1534 4219 1204 4116 
Q 875 4013 500 3803 
L 500 4441 
Q 881 4594 1212 4672 
Q 1544 4750 1819 4750 
Q 2544 4750 2975 4387 
Q 3406 4025 3406 3419 
Q 3406 3131 3298 2873 
Q 3191 2616 2906 2266 
Q 2828 2175 2409 1742 
Q 1991 1309 1228 531 
z
" transform="scale(0.015625)"/>
       </defs>
       <use xlink:href="#DejaVuSans-32"/>
       <use xlink:href="#DejaVuSans-30" x="63.623047"/>
       <use xlink:href="#DejaVuSans-30" x="127.246094"/>
      </g>
     </g>
    </g>
    <g id="xtick_6">
     <g id="line2d_11">
      <path d="M 321.541919 304.44375 
L 321.541919 25.918125 
" clip-path="url(#p78699d190e)" style="fill: none; stroke: #b0b0b0; stroke-width: 0.8; stroke-linecap: square"/>
     </g>
     <g id="line2d_12">
      <g>
       <use xlink:href="#m9ff8aee141" x="321.541919" y="304.44375" style="stroke: #000000; stroke-width: 0.8"/>
      </g>
     </g>
     <g id="text_6">
      <!-- 250 -->
      <g transform="translate(311.998169 319.042187)scale(0.1 -0.1)">
       <use xlink:href="#DejaVuSans-32"/>
       <use xlink:href="#DejaVuSans-35" x="63.623047"/>
       <use xlink:href="#DejaVuSans-30" x="127.246094"/>
      </g>
     </g>
    </g>
    <g id="xtick_7">
     <g id="line2d_13">
      <path d="M 371.720857 304.44375 
L 371.720857 25.918125 
" clip-path="url(#p78699d190e)" style="fill: none; stroke: #b0b0b0; stroke-width: 0.8; stroke-linecap: square"/>
     </g>
     <g id="line2d_14">
      <g>
       <use xlink:href="#m9ff8aee141" x="371.720857" y="304.44375" style="stroke: #000000; stroke-width: 0.8"/>
      </g>
     </g>
     <g id="text_7">
      <!-- 300 -->
      <g transform="translate(362.177107 319.042187)scale(0.1 -0.1)">
       <defs>
        <path id="DejaVuSans-33" d="M 2597 2516 
Q 3050 2419 3304 2112 
Q 3559 1806 3559 1356 
Q 3559 666 3084 287 
Q 2609 -91 1734 -91 
Q 1441 -91 1130 -33 
Q 819 25 488 141 
L 488 750 
Q 750 597 1062 519 
Q 1375 441 1716 441 
Q 2309 441 2620 675 
Q 2931 909 2931 1356 
Q 2931 1769 2642 2001 
Q 2353 2234 1838 2234 
L 1294 2234 
L 1294 2753 
L 1863 2753 
Q 2328 2753 2575 2939 
Q 2822 3125 2822 3475 
Q 2822 3834 2567 4026 
Q 2313 4219 1838 4219 
Q 1578 4219 1281 4162 
Q 984 4106 628 3988 
L 628 4550 
Q 988 4650 1302 4700 
Q 1616 4750 1894 4750 
Q 2613 4750 3031 4423 
Q 3450 4097 3450 3541 
Q 3450 3153 3228 2886 
Q 3006 2619 2597 2516 
z
" transform="scale(0.015625)"/>
       </defs>
       <use xlink:href="#DejaVuSans-33"/>
       <use xlink:href="#DejaVuSans-30" x="63.623047"/>
       <use xlink:href="#DejaVuSans-30" x="127.246094"/>
      </g>
     </g>
    </g>
    <g id="xtick_8">
     <g id="line2d_15">
      <path d="M 421.899795 304.44375 
L 421.899795 25.918125 
" clip-path="url(#p78699d190e)" style="fill: none; stroke: #b0b0b0; stroke-width: 0.8; stroke-linecap: square"/>
     </g>
     <g id="line2d_16">
      <g>
       <use xlink:href="#m9ff8aee141" x="421.899795" y="304.44375" style="stroke: #000000; stroke-width: 0.8"/>
      </g>
     </g>
     <g id="text_8">
      <!-- 350 -->
      <g transform="translate(412.356045 319.042187)scale(0.1 -0.1)">
       <use xlink:href="#DejaVuSans-33"/>
       <use xlink:href="#DejaVuSans-35" x="63.623047"/>
       <use xlink:href="#DejaVuSans-30" x="127.246094"/>
      </g>
     </g>
    </g>
    <g id="text_9">
     <!-- Translational Position [mm] -->
     <g transform="translate(183.314062 332.720312)scale(0.1 -0.1)">
      <defs>
       <path id="DejaVuSans-54" d="M -19 4666 
L 3928 4666 
L 3928 4134 
L 2272 4134 
L 2272 0 
L 1638 0 
L 1638 4134 
L -19 4134 
L -19 4666 
z
" transform="scale(0.015625)"/>
       <path id="DejaVuSans-72" d="M 2631 2963 
Q 2534 3019 2420 3045 
Q 2306 3072 2169 3072 
Q 1681 3072 1420 2755 
Q 1159 2438 1159 1844 
L 1159 0 
L 581 0 
L 581 3500 
L 1159 3500 
L 1159 2956 
Q 1341 3275 1631 3429 
Q 1922 3584 2338 3584 
Q 2397 3584 2469 3576 
Q 2541 3569 2628 3553 
L 2631 2963 
z
" transform="scale(0.015625)"/>
       <path id="DejaVuSans-61" d="M 2194 1759 
Q 1497 1759 1228 1600 
Q 959 1441 959 1056 
Q 959 750 1161 570 
Q 1363 391 1709 391 
Q 2188 391 2477 730 
Q 2766 1069 2766 1631 
L 2766 1759 
L 2194 1759 
z
M 3341 1997 
L 3341 0 
L 2766 0 
L 2766 531 
Q 2569 213 2275 61 
Q 1981 -91 1556 -91 
Q 1019 -91 701 211 
Q 384 513 384 1019 
Q 384 1609 779 1909 
Q 1175 2209 1959 2209 
L 2766 2209 
L 2766 2266 
Q 2766 2663 2505 2880 
Q 2244 3097 1772 3097 
Q 1472 3097 1187 3025 
Q 903 2953 641 2809 
L 641 3341 
Q 956 3463 1253 3523 
Q 1550 3584 1831 3584 
Q 2591 3584 2966 3190 
Q 3341 2797 3341 1997 
z
" transform="scale(0.015625)"/>
       <path id="DejaVuSans-6e" d="M 3513 2113 
L 3513 0 
L 2938 0 
L 2938 2094 
Q 2938 2591 2744 2837 
Q 2550 3084 2163 3084 
Q 1697 3084 1428 2787 
Q 1159 2491 1159 1978 
L 1159 0 
L 581 0 
L 581 3500 
L 1159 3500 
L 1159 2956 
Q 1366 3272 1645 3428 
Q 1925 3584 2291 3584 
Q 2894 3584 3203 3211 
Q 3513 2838 3513 2113 
z
" transform="scale(0.015625)"/>
       <path id="DejaVuSans-73" d="M 2834 3397 
L 2834 2853 
Q 2591 2978 2328 3040 
Q 2066 3103 1784 3103 
Q 1356 3103 1142 2972 
Q 928 2841 928 2578 
Q 928 2378 1081 2264 
Q 1234 2150 1697 2047 
L 1894 2003 
Q 2506 1872 2764 1633 
Q 3022 1394 3022 966 
Q 3022 478 2636 193 
Q 2250 -91 1575 -91 
Q 1294 -91 989 -36 
Q 684 19 347 128 
L 347 722 
Q 666 556 975 473 
Q 1284 391 1588 391 
Q 1994 391 2212 530 
Q 2431 669 2431 922 
Q 2431 1156 2273 1281 
Q 2116 1406 1581 1522 
L 1381 1569 
Q 847 1681 609 1914 
Q 372 2147 372 2553 
Q 372 3047 722 3315 
Q 1072 3584 1716 3584 
Q 2034 3584 2315 3537 
Q 2597 3491 2834 3397 
z
" transform="scale(0.015625)"/>
       <path id="DejaVuSans-6c" d="M 603 4863 
L 1178 4863 
L 1178 0 
L 603 0 
L 603 4863 
z
" transform="scale(0.015625)"/>
       <path id="DejaVuSans-74" d="M 1172 4494 
L 1172 3500 
L 2356 3500 
L 2356 3053 
L 1172 3053 
L 1172 1153 
Q 1172 725 1289 603 
Q 1406 481 1766 481 
L 2356 481 
L 2356 0 
L 1766 0 
Q 1100 0 847 248 
Q 594 497 594 1153 
L 594 3053 
L 172 3053 
L 172 3500 
L 594 3500 
L 594 4494 
L 1172 4494 
z
" transform="scale(0.015625)"/>
       <path id="DejaVuSans-69" d="M 603 3500 
L 1178 3500 
L 1178 0 
L 603 0 
L 603 3500 
z
M 603 4863 
L 1178 4863 
L 1178 4134 
L 603 4134 
L 603 4863 
z
" transform="scale(0.015625)"/>
       <path id="DejaVuSans-6f" d="M 1959 3097 
Q 1497 3097 1228 2736 
Q 959 2375 959 1747 
Q 959 1119 1226 758 
Q 1494 397 1959 397 
Q 2419 397 2687 759 
Q 2956 1122 2956 1747 
Q 2956 2369 2687 2733 
Q 2419 3097 1959 3097 
z
M 1959 3584 
Q 2709 3584 3137 3096 
Q 3566 2609 3566 1747 
Q 3566 888 3137 398 
Q 2709 -91 1959 -91 
Q 1206 -91 779 398 
Q 353 888 353 1747 
Q 353 2609 779 3096 
Q 1206 3584 1959 3584 
z
" transform="scale(0.015625)"/>
       <path id="DejaVuSans-20" transform="scale(0.015625)"/>
       <path id="DejaVuSans-50" d="M 1259 4147 
L 1259 2394 
L 2053 2394 
Q 2494 2394 2734 2622 
Q 2975 2850 2975 3272 
Q 2975 3691 2734 3919 
Q 2494 4147 2053 4147 
L 1259 4147 
z
M 628 4666 
L 2053 4666 
Q 2838 4666 3239 4311 
Q 3641 3956 3641 3272 
Q 3641 2581 3239 2228 
Q 2838 1875 2053 1875 
L 1259 1875 
L 1259 0 
L 628 0 
L 628 4666 
z
" transform="scale(0.015625)"/>
       <path id="DejaVuSans-5b" d="M 550 4863 
L 1875 4863 
L 1875 4416 
L 1125 4416 
L 1125 -397 
L 1875 -397 
L 1875 -844 
L 550 -844 
L 550 4863 
z
" transform="scale(0.015625)"/>
       <path id="DejaVuSans-6d" d="M 3328 2828 
Q 3544 3216 3844 3400 
Q 4144 3584 4550 3584 
Q 5097 3584 5394 3201 
Q 5691 2819 5691 2113 
L 5691 0 
L 5113 0 
L 5113 2094 
Q 5113 2597 4934 2840 
Q 4756 3084 4391 3084 
Q 3944 3084 3684 2787 
Q 3425 2491 3425 1978 
L 3425 0 
L 2847 0 
L 2847 2094 
Q 2847 2600 2669 2842 
Q 2491 3084 2119 3084 
Q 1678 3084 1418 2786 
Q 1159 2488 1159 1978 
L 1159 0 
L 581 0 
L 581 3500 
L 1159 3500 
L 1159 2956 
Q 1356 3278 1631 3431 
Q 1906 3584 2284 3584 
Q 2666 3584 2933 3390 
Q 3200 3197 3328 2828 
z
" transform="scale(0.015625)"/>
       <path id="DejaVuSans-5d" d="M 1947 4863 
L 1947 -844 
L 622 -844 
L 622 -397 
L 1369 -397 
L 1369 4416 
L 622 4416 
L 622 4863 
L 1947 4863 
z
" transform="scale(0.015625)"/>
      </defs>
      <use xlink:href="#DejaVuSans-54"/>
      <use xlink:href="#DejaVuSans-72" x="46.333984"/>
      <use xlink:href="#DejaVuSans-61" x="87.447266"/>
      <use xlink:href="#DejaVuSans-6e" x="148.726562"/>
      <use xlink:href="#DejaVuSans-73" x="212.105469"/>
      <use xlink:href="#DejaVuSans-6c" x="264.205078"/>
      <use xlink:href="#DejaVuSans-61" x="291.988281"/>
      <use xlink:href="#DejaVuSans-74" x="353.267578"/>
      <use xlink:href="#DejaVuSans-69" x="392.476562"/>
      <use xlink:href="#DejaVuSans-6f" x="420.259766"/>
      <use xlink:href="#DejaVuSans-6e" x="481.441406"/>
      <use xlink:href="#DejaVuSans-61" x="544.820312"/>
      <use xlink:href="#DejaVuSans-6c" x="606.099609"/>
      <use xlink:href="#DejaVuSans-20" x="633.882812"/>
      <use xlink:href="#DejaVuSans-50" x="665.669922"/>
      <use xlink:href="#DejaVuSans-6f" x="722.347656"/>
      <use xlink:href="#DejaVuSans-73" x="783.529297"/>
      <use xlink:href="#DejaVuSans-69" x="835.628906"/>
      <use xlink:href="#DejaVuSans-74" x="863.412109"/>
      <use xlink:href="#DejaVuSans-69" x="902.621094"/>
      <use xlink:href="#DejaVuSans-6f" x="930.404297"/>
      <use xlink:href="#DejaVuSans-6e" x="991.585938"/>
      <use xlink:href="#DejaVuSans-20" x="1054.964844"/>
      <use xlink:href="#DejaVuSans-5b" x="1086.751953"/>
      <use xlink:href="#DejaVuSans-6d" x="1125.765625"/>
      <use xlink:href="#DejaVuSans-6d" x="1223.177734"/>
      <use xlink:href="#DejaVuSans-5d" x="1320.589844"/>
     </g>
    </g>
   </g>
   <g id="matplotlib.axis_2">
    <g id="ytick_1">
     <g id="line2d_17">
      <path d="M 52.582813 280.771632 
L 450 280.771632 
" clip-path="url(#p78699d190e)" style="fill: none; stroke: #b0b0b0; stroke-width: 0.8; stroke-linecap: square"/>
     </g>
     <g id="line2d_18">
      <defs>
       <path id="m40aefd8963" d="M 0 0 
L -3.5 0 
" style="stroke: #000000; stroke-width: 0.8"/>
      </defs>
      <g>
       <use xlink:href="#m40aefd8963" x="52.582813" y="280.771632" style="stroke: #000000; stroke-width: 0.8"/>
      </g>
     </g>
     <g id="text_10">
      <!-- −80 -->
      <g transform="translate(24.478125 284.570851)scale(0.1 -0.1)">
       <defs>
        <path id="DejaVuSans-2212" d="M 678 2272 
L 4684 2272 
L 4684 1741 
L 678 1741 
L 678 2272 
z
" transform="scale(0.015625)"/>
        <path id="DejaVuSans-38" d="M 2034 2216 
Q 1584 2216 1326 1975 
Q 1069 1734 1069 1313 
Q 1069 891 1326 650 
Q 1584 409 2034 409 
Q 2484 409 2743 651 
Q 3003 894 3003 1313 
Q 3003 1734 2745 1975 
Q 2488 2216 2034 2216 
z
M 1403 2484 
Q 997 2584 770 2862 
Q 544 3141 544 3541 
Q 544 4100 942 4425 
Q 1341 4750 2034 4750 
Q 2731 4750 3128 4425 
Q 3525 4100 3525 3541 
Q 3525 3141 3298 2862 
Q 3072 2584 2669 2484 
Q 3125 2378 3379 2068 
Q 3634 1759 3634 1313 
Q 3634 634 3220 271 
Q 2806 -91 2034 -91 
Q 1263 -91 848 271 
Q 434 634 434 1313 
Q 434 1759 690 2068 
Q 947 2378 1403 2484 
z
M 1172 3481 
Q 1172 3119 1398 2916 
Q 1625 2713 2034 2713 
Q 2441 2713 2670 2916 
Q 2900 3119 2900 3481 
Q 2900 3844 2670 4047 
Q 2441 4250 2034 4250 
Q 1625 4250 1398 4047 
Q 1172 3844 1172 3481 
z
" transform="scale(0.015625)"/>
       </defs>
       <use xlink:href="#DejaVuSans-2212"/>
       <use xlink:href="#DejaVuSans-38" x="83.789062"/>
       <use xlink:href="#DejaVuSans-30" x="147.412109"/>
      </g>
     </g>
    </g>
    <g id="ytick_2">
     <g id="line2d_19">
      <path d="M 52.582813 221.884668 
L 450 221.884668 
" clip-path="url(#p78699d190e)" style="fill: none; stroke: #b0b0b0; stroke-width: 0.8; stroke-linecap: square"/>
     </g>
     <g id="line2d_20">
      <g>
       <use xlink:href="#m40aefd8963" x="52.582813" y="221.884668" style="stroke: #000000; stroke-width: 0.8"/>
      </g>
     </g>
     <g id="text_11">
      <!-- −60 -->
      <g transform="translate(24.478125 225.683886)scale(0.1 -0.1)">
       <defs>
        <path id="DejaVuSans-36" d="M 2113 2584 
Q 1688 2584 1439 2293 
Q 1191 2003 1191 1497 
Q 1191 994 1439 701 
Q 1688 409 2113 409 
Q 2538 409 2786 701 
Q 3034 994 3034 1497 
Q 3034 2003 2786 2293 
Q 2538 2584 2113 2584 
z
M 3366 4563 
L 3366 3988 
Q 3128 4100 2886 4159 
Q 2644 4219 2406 4219 
Q 1781 4219 1451 3797 
Q 1122 3375 1075 2522 
Q 1259 2794 1537 2939 
Q 1816 3084 2150 3084 
Q 2853 3084 3261 2657 
Q 3669 2231 3669 1497 
Q 3669 778 3244 343 
Q 2819 -91 2113 -91 
Q 1303 -91 875 529 
Q 447 1150 447 2328 
Q 447 3434 972 4092 
Q 1497 4750 2381 4750 
Q 2619 4750 2861 4703 
Q 3103 4656 3366 4563 
z
" transform="scale(0.015625)"/>
       </defs>
       <use xlink:href="#DejaVuSans-2212"/>
       <use xlink:href="#DejaVuSans-36" x="83.789062"/>
       <use xlink:href="#DejaVuSans-30" x="147.412109"/>
      </g>
     </g>
    </g>
    <g id="ytick_3">
     <g id="line2d_21">
      <path d="M 52.582813 162.997703 
L 450 162.997703 
" clip-path="url(#p78699d190e)" style="fill: none; stroke: #b0b0b0; stroke-width: 0.8; stroke-linecap: square"/>
     </g>
     <g id="line2d_22">
      <g>
       <use xlink:href="#m40aefd8963" x="52.582813" y="162.997703" style="stroke: #000000; stroke-width: 0.8"/>
      </g>
     </g>
     <g id="text_12">
      <!-- −40 -->
      <g transform="translate(24.478125 166.796922)scale(0.1 -0.1)">
       <defs>
        <path id="DejaVuSans-34" d="M 2419 4116 
L 825 1625 
L 2419 1625 
L 2419 4116 
z
M 2253 4666 
L 3047 4666 
L 3047 1625 
L 3713 1625 
L 3713 1100 
L 3047 1100 
L 3047 0 
L 2419 0 
L 2419 1100 
L 313 1100 
L 313 1709 
L 2253 4666 
z
" transform="scale(0.015625)"/>
       </defs>
       <use xlink:href="#DejaVuSans-2212"/>
       <use xlink:href="#DejaVuSans-34" x="83.789062"/>
       <use xlink:href="#DejaVuSans-30" x="147.412109"/>
      </g>
     </g>
    </g>
    <g id="ytick_4">
     <g id="line2d_23">
      <path d="M 52.582813 104.110739 
L 450 104.110739 
" clip-path="url(#p78699d190e)" style="fill: none; stroke: #b0b0b0; stroke-width: 0.8; stroke-linecap: square"/>
     </g>
     <g id="line2d_24">
      <g>
       <use xlink:href="#m40aefd8963" x="52.582813" y="104.110739" style="stroke: #000000; stroke-width: 0.8"/>
      </g>
     </g>
     <g id="text_13">
      <!-- −20 -->
      <g transform="translate(24.478125 107.909958)scale(0.1 -0.1)">
       <use xlink:href="#DejaVuSans-2212"/>
       <use xlink:href="#DejaVuSans-32" x="83.789062"/>
       <use xlink:href="#DejaVuSans-30" x="147.412109"/>
      </g>
     </g>
    </g>
    <g id="ytick_5">
     <g id="line2d_25">
      <path d="M 52.582813 45.223775 
L 450 45.223775 
" clip-path="url(#p78699d190e)" style="fill: none; stroke: #b0b0b0; stroke-width: 0.8; stroke-linecap: square"/>
     </g>
     <g id="line2d_26">
      <g>
       <use xlink:href="#m40aefd8963" x="52.582813" y="45.223775" style="stroke: #000000; stroke-width: 0.8"/>
      </g>
     </g>
     <g id="text_14">
      <!-- 0 -->
      <g transform="translate(39.220313 49.022993)scale(0.1 -0.1)">
       <use xlink:href="#DejaVuSans-30"/>
      </g>
     </g>
    </g>
    <g id="text_15">
     <!-- Wall Distance [mm] -->
     <g transform="translate(18.398438 214.330937)rotate(-90)scale(0.1 -0.1)">
      <defs>
       <path id="DejaVuSans-57" d="M 213 4666 
L 850 4666 
L 1831 722 
L 2809 4666 
L 3519 4666 
L 4500 722 
L 5478 4666 
L 6119 4666 
L 4947 0 
L 4153 0 
L 3169 4050 
L 2175 0 
L 1381 0 
L 213 4666 
z
" transform="scale(0.015625)"/>
       <path id="DejaVuSans-44" d="M 1259 4147 
L 1259 519 
L 2022 519 
Q 2988 519 3436 956 
Q 3884 1394 3884 2338 
Q 3884 3275 3436 3711 
Q 2988 4147 2022 4147 
L 1259 4147 
z
M 628 4666 
L 1925 4666 
Q 3281 4666 3915 4102 
Q 4550 3538 4550 2338 
Q 4550 1131 3912 565 
Q 3275 0 1925 0 
L 628 0 
L 628 4666 
z
" transform="scale(0.015625)"/>
       <path id="DejaVuSans-63" d="M 3122 3366 
L 3122 2828 
Q 2878 2963 2633 3030 
Q 2388 3097 2138 3097 
Q 1578 3097 1268 2742 
Q 959 2388 959 1747 
Q 959 1106 1268 751 
Q 1578 397 2138 397 
Q 2388 397 2633 464 
Q 2878 531 3122 666 
L 3122 134 
Q 2881 22 2623 -34 
Q 2366 -91 2075 -91 
Q 1284 -91 818 406 
Q 353 903 353 1747 
Q 353 2603 823 3093 
Q 1294 3584 2113 3584 
Q 2378 3584 2631 3529 
Q 2884 3475 3122 3366 
z
" transform="scale(0.015625)"/>
       <path id="DejaVuSans-65" d="M 3597 1894 
L 3597 1613 
L 953 1613 
Q 991 1019 1311 708 
Q 1631 397 2203 397 
Q 2534 397 2845 478 
Q 3156 559 3463 722 
L 3463 178 
Q 3153 47 2828 -22 
Q 2503 -91 2169 -91 
Q 1331 -91 842 396 
Q 353 884 353 1716 
Q 353 2575 817 3079 
Q 1281 3584 2069 3584 
Q 2775 3584 3186 3129 
Q 3597 2675 3597 1894 
z
M 3022 2063 
Q 3016 2534 2758 2815 
Q 2500 3097 2075 3097 
Q 1594 3097 1305 2825 
Q 1016 2553 972 2059 
L 3022 2063 
z
" transform="scale(0.015625)"/>
      </defs>
      <use xlink:href="#DejaVuSans-57"/>
      <use xlink:href="#DejaVuSans-61" x="92.501953"/>
      <use xlink:href="#DejaVuSans-6c" x="153.78125"/>
      <use xlink:href="#DejaVuSans-6c" x="181.564453"/>
      <use xlink:href="#DejaVuSans-20" x="209.347656"/>
      <use xlink:href="#DejaVuSans-44" x="241.134766"/>
      <use xlink:href="#DejaVuSans-69" x="318.136719"/>
      <use xlink:href="#DejaVuSans-73" x="345.919922"/>
      <use xlink:href="#DejaVuSans-74" x="398.019531"/>
      <use xlink:href="#DejaVuSans-61" x="437.228516"/>
      <use xlink:href="#DejaVuSans-6e" x="498.507812"/>
      <use xlink:href="#DejaVuSans-63" x="561.886719"/>
      <use xlink:href="#DejaVuSans-65" x="616.867188"/>
      <use xlink:href="#DejaVuSans-20" x="678.390625"/>
      <use xlink:href="#DejaVuSans-5b" x="710.177734"/>
      <use xlink:href="#DejaVuSans-6d" x="749.191406"/>
      <use xlink:href="#DejaVuSans-6d" x="846.603516"/>
      <use xlink:href="#DejaVuSans-5d" x="944.015625"/>
     </g>
    </g>
   </g>
   <g id="line2d_27">
    <path d="M 70.64723 39.361577 
L 70.647551 39.264414 
L 70.648314 40.465708 
L 70.667783 39.21436 
L 70.757423 39.361577 
L 70.968375 39.264414 
L 71.135672 40.618814 
L 71.202209 40.112386 
L 71.352746 40.824918 
L 71.528473 39.411631 
L 71.731095 39.461685 
L 71.843496 39.658956 
L 72.089373 39.611847 
L 72.368368 39.759064 
L 72.680481 40.415654 
L 72.850085 40.16244 
L 73.028723 40.312602 
L 73.215388 40.618814 
L 73.41209 40.212494 
L 73.617823 40.721866 
L 75.873868 42.292087 
L 76.16892 42.292087 
L 77.442462 43.818732 
L 78.133928 43.541668 
L 78.493209 43.541668 
L 78.860519 43.156842 
L 79.237864 43.266372 
L 79.624242 43.156842 
L 80.019652 43.376196 
L 80.423091 42.830314 
L 84.456474 42.722256 
L 84.948227 42.345674 
L 85.439981 42.560317 
L 85.94177 42.560317 
L 86.975456 42.079211 
L 87.497317 42.506436 
L 88.561111 41.134075 
L 89.103043 41.499174 
L 89.644976 41.237127 
L 90.748913 41.708223 
L 91.872921 41.814219 
L 93.017001 41.499174 
L 93.58904 43.652082 
L 94.171116 40.721866 
L 95.345303 40.212494 
L 95.927379 40.262548 
L 96.51949 40.062332 
L 97.111602 39.411631 
L 97.703713 39.859172 
L 98.305861 39.411631 
L 98.908008 39.859172 
L 100.704414 39.21436 
L 101.908708 39.361577 
L 103.113003 39.264414 
L 103.71515 38.919925 
L 104.317297 39.067142 
L 104.919445 38.919925 
L 105.521592 39.264414 
L 106.123739 38.869871 
L 107.328034 38.869871 
L 107.930181 38.675544 
L 108.532328 38.772708 
L 109.134475 38.628435 
L 109.736623 39.361577 
L 110.33877 39.611847 
L 110.940917 39.311523 
L 111.543064 40.16244 
L 112.145212 38.675544 
L 112.747359 38.578381 
L 113.951653 38.675544 
L 114.553801 38.578381 
L 116.360242 38.969979 
L 117.564537 39.164306 
L 118.166684 39.117196 
L 118.768831 39.361577 
L 119.370979 40.062332 
L 119.973126 39.511739 
L 120.575273 39.95928 
L 121.17742 39.70901 
L 121.779568 40.062332 
L 124.188157 40.415654 
L 124.790304 40.262548 
L 125.392451 40.618814 
L 125.994599 41.605171 
L 127.198893 41.446176 
L 127.80104 42.506436 
L 128.403188 41.237127 
L 129.005335 40.927971 
L 129.607482 41.187073 
L 130.209629 41.605171 
L 130.811777 41.867218 
L 131.413924 42.614199 
L 132.016071 42.993431 
L 132.618218 43.596728 
L 133.822513 45.875948 
L 134.42466 46.887626 
L 135.026807 48.36245 
L 136.231102 52.534591 
L 138.037544 62.474711 
L 138.639691 66.396583 
L 139.241838 71.340143 
L 139.843985 77.964927 
L 140.446133 85.826337 
L 141.650427 108.026722 
L 142.252574 122.100707 
L 142.854722 144.713301 
L 143.456869 186.434715 
L 144.059016 291.783494 
L 216.266508 291.783494 
L 216.868655 179.898262 
L 217.470802 146.303249 
L 218.072949 136.851891 
L 219.879391 103.227434 
L 221.685833 81.115379 
L 222.28798 75.315013 
L 224.094422 62.292161 
L 224.696569 58.505729 
L 226.503011 50.491214 
L 227.707305 46.647073 
L 228.309453 45.351029 
L 228.9116 44.32251 
L 229.513747 43.818732 
L 230.115894 43.541668 
L 230.718042 42.93896 
L 231.320189 43.541668 
L 231.922336 41.655225 
L 232.524484 41.031023 
L 233.126631 41.290125 
L 233.728778 41.084021 
L 234.330925 41.084021 
L 234.933073 41.499174 
L 235.53522 41.290125 
L 236.137367 41.655225 
L 236.739514 41.343124 
L 237.341662 41.605171 
L 237.943809 41.290125 
L 238.545956 41.446176 
L 239.148103 41.290125 
L 239.750251 42.399261 
L 240.352398 42.93896 
L 240.954545 42.66808 
L 241.556692 42.776138 
L 242.15884 44.719113 
L 242.760987 41.814219 
L 244.567429 41.867218 
L 245.169576 42.185207 
L 245.771723 41.814219 
L 246.37387 42.132209 
L 246.976018 41.867218 
L 247.578165 42.026212 
L 248.782459 41.920216 
L 249.384607 42.345674 
L 249.986754 42.93896 
L 250.588901 42.830314 
L 251.191048 42.93896 
L 251.793196 42.776138 
L 252.395343 43.541668 
L 252.99749 41.814219 
L 254.803932 41.761221 
L 255.406079 41.814219 
L 256.008226 41.708223 
L 257.212521 41.814219 
L 259.018963 41.814219 
L 259.62111 42.614199 
L 260.223257 44.605461 
L 260.825404 42.830314 
L 261.427552 42.776138 
L 262.029699 41.973214 
L 263.233993 41.552172 
L 263.836141 41.343124 
L 264.438288 41.708223 
L 265.040435 41.655225 
L 265.642582 41.134075 
L 266.24473 41.446176 
L 266.846877 41.446176 
L 267.449024 41.655225 
L 268.051171 41.446176 
L 268.653319 42.776138 
L 269.255466 42.722256 
L 269.857613 42.452849 
L 270.45976 42.614199 
L 271.061908 44.379041 
L 271.664055 41.343124 
L 272.266202 41.393178 
L 272.86835 41.708223 
L 274.072644 41.446176 
L 274.674791 41.655225 
L 275.276939 41.499174 
L 275.879086 41.814219 
L 276.481233 41.708223 
L 277.08338 42.345674 
L 278.287675 43.102372 
L 278.889822 42.776138 
L 280.094117 43.211607 
L 280.696264 41.814219 
L 281.298411 42.079211 
L 281.900558 41.973214 
L 282.502706 42.132209 
L 283.104853 41.814219 
L 283.707 42.132209 
L 284.309147 42.079211 
L 284.911295 42.345674 
L 285.513442 42.292087 
L 286.115589 43.596728 
L 286.717736 44.041913 
L 287.319884 43.596728 
L 287.922031 45.062542 
L 288.524178 43.376196 
L 289.126325 42.452849 
L 289.728473 42.399261 
L 290.33062 42.185207 
L 291.534914 42.079211 
L 292.137062 42.345674 
L 292.739209 42.185207 
L 293.341356 42.345674 
L 293.943503 42.722256 
L 294.545651 43.541668 
L 295.147798 44.041913 
L 295.749945 43.321137 
L 296.352092 43.431255 
L 296.95424 42.722256 
L 297.556387 41.814219 
L 298.158534 42.132209 
L 298.760681 41.867218 
L 300.567123 42.079211 
L 301.16927 41.814219 
L 301.771418 41.814219 
L 302.373565 43.211607 
L 302.975712 43.541668 
L 303.577859 43.431255 
L 304.180007 43.985971 
L 304.782154 42.776138 
L 305.384301 41.920216 
L 305.986448 41.920216 
L 307.190743 42.345674 
L 307.79289 42.399261 
L 308.997185 42.993431 
L 310.201479 45.408974 
L 310.803626 45.993427 
L 311.405774 47.129357 
L 312.007921 47.864855 
L 312.610068 48.930709 
L 313.212216 49.06026 
L 313.814363 50.358718 
L 314.41651 52.116494 
L 315.018657 54.324755 
L 316.825099 64.147101 
L 317.427246 70.209514 
L 319.233688 92.038911 
L 320.437983 113.532653 
L 321.04013 121.246846 
L 321.642277 143.918327 
L 322.244424 174.333444 
L 322.846572 291.783494 
L 383.061297 291.783494 
L 383.663444 223.710164 
L 384.867739 186.434715 
L 385.469886 181.959306 
L 386.072033 291.783494 
L 389.082769 291.783494 
L 389.684917 129.814899 
L 390.287064 125.280603 
L 391.491359 114.239297 
L 392.093506 112.178253 
L 392.695653 145.508275 
L 393.2978 144.713301 
L 393.899948 130.904308 
L 394.502095 125.280603 
L 395.104242 120.805193 
L 395.706389 90.095641 
L 396.308537 86.179658 
L 398.114978 77.847153 
L 398.717126 91.450042 
L 399.92142 84.678041 
L 401.125715 81.851466 
L 401.727862 66.799958 
L 402.330009 65.896043 
L 402.932156 65.498556 
L 404.136451 65.896043 
L 404.738598 80.938718 
L 405.942893 86.356319 
L 406.54504 90.095641 
L 407.147187 98.487034 
L 407.749334 80.232075 
L 408.351482 85.325797 
L 410.057565 107.437852 
L 410.659713 291.783494 
L 412.867586 291.783494 
L 413.369375 168.003095 
L 413.971523 186.434715 
L 414.473312 223.710164 
L 414.975101 223.710164 
L 415.476891 265.431578 
L 416.079038 291.783494 
L 418.086196 291.783494 
L 418.487627 200.68536 
L 418.989416 188.878524 
L 419.491206 186.434715 
L 419.892637 188.878524 
L 420.394427 176.100053 
L 420.795858 291.783494 
L 422.501942 291.783494 
L 422.903374 161.319425 
L 423.304805 143.918327 
L 423.706237 140.944535 
L 424.00731 143.152796 
L 424.408742 143.152796 
L 424.709815 291.783494 
L 426.014468 291.783494 
L 426.315541 129.814899 
L 426.616615 126.252238 
L 426.917689 126.252238 
L 427.218762 121.246846 
L 427.519836 129.284916 
L 427.720552 291.783494 
L 428.72413 291.783494 
L 428.924846 134.967508 
L 429.125562 122.984011 
L 429.326278 122.100707 
L 429.526993 114.239297 
L 429.727709 126.752777 
L 429.828067 291.783494 
L 430.430214 291.783494 
L 430.731288 118.361384 
L 430.831646 117.595854 
L 430.932004 109.263348 
L 431.032362 123.425663 
L 431.233077 291.783494 
L 431.433793 291.783494 
L 431.634509 107.437852 
L 431.734867 119.980776 
L 431.734867 291.783494 
L 431.835225 109.557783 
L 431.935582 110.20554 
L 431.935582 92.038911 
L 431.935582 291.783494 
L 431.935582 103.227434 
" clip-path="url(#p78699d190e)" style="fill: none; stroke: #1f77b4; stroke-width: 1.5; stroke-linecap: square"/>
   </g>
   <g id="line2d_28">
    <path d="M 70.64723 49.610853 
L 70.64727 49.610853 
L 70.648314 48.212288 
L 70.735425 50.444104 
L 70.757423 48.72166 
L 70.782713 50.061339 
L 70.844433 49.911177 
L 70.968375 48.942486 
L 71.018956 50.444104 
L 71.074654 48.648052 
L 71.135672 48.795269 
L 71.274467 50.290998 
L 71.437348 48.43017 
L 71.626322 50.906367 
L 71.843496 48.067721 
L 72.089373 50.444104 
L 72.224856 47.852489 
L 72.368368 48.500834 
L 72.519908 48.067721 
L 72.680481 47.995878 
L 72.850085 47.638435 
L 73.028723 48.067721 
L 73.215388 48.067721 
L 73.41209 47.567476 
L 73.617823 48.067721 
L 73.832589 47.354894 
L 74.055384 47.425558 
L 74.288214 46.863777 
L 74.530076 48.356561 
L 74.780971 47.425558 
L 75.039894 47.354894 
L 75.308853 45.832371 
L 75.586845 46.44774 
L 75.873868 45.832371 
L 76.16892 46.863777 
L 76.474008 45.696931 
L 76.788129 45.832371 
L 77.111281 46.241636 
L 77.442462 46.310239 
L 78.133928 44.828054 
L 78.493209 45.29332 
L 78.860519 45.159794 
L 79.237864 45.159794 
L 79.624242 44.960344 
L 80.019652 45.832371 
L 80.423091 44.761806 
L 80.833554 45.832371 
L 81.255058 45.696931 
L 81.686596 45.2265 
L 82.579782 45.494537 
L 83.041428 45.427347 
L 83.503074 45.159794 
L 83.974756 45.629211 
L 84.456474 45.832371 
L 84.948227 45.900091 
L 85.439981 45.561786 
L 85.94177 45.764357 
L 86.453596 46.310239 
L 86.975456 45.832371 
L 87.497317 46.173032 
L 88.019178 47.073414 
L 88.561111 46.863777 
L 89.103043 45.159794 
L 89.644976 46.724509 
L 90.196944 47.003339 
L 90.748913 47.709688 
L 91.310917 47.709688 
L 91.872921 47.284229 
L 92.444961 48.067721 
L 93.017001 48.067721 
L 93.58904 47.852489 
L 95.345303 48.067721 
L 95.927379 48.282952 
L 96.51949 49.31053 
L 97.111602 49.31053 
L 97.703713 48.72166 
L 98.305861 49.610853 
L 98.908008 49.384139 
L 99.500119 49.684462 
L 100.102267 48.795269 
L 100.704414 49.610853 
L 101.306561 49.016095 
L 101.908708 50.444104 
L 102.510856 50.673763 
L 103.113003 50.061339 
L 104.317297 49.31053 
L 104.919445 49.684462 
L 105.521592 49.684462 
L 106.123739 50.444104 
L 106.725886 50.367551 
L 107.328034 50.061339 
L 107.930181 49.911177 
L 108.532328 50.673763 
L 109.134475 49.984786 
L 110.33877 49.984786 
L 110.940917 50.214445 
L 111.543064 51.13897 
L 112.145212 49.984786 
L 112.747359 50.290998 
L 113.349506 49.761015 
L 113.951653 49.384139 
L 114.553801 51.689563 
L 115.155948 48.795269 
L 115.758095 49.384139 
L 116.360242 48.212288 
L 116.96239 48.356561 
L 117.564537 48.648052 
L 118.166684 48.212288 
L 118.768831 48.43017 
L 119.370979 48.212288 
L 119.973126 48.356561 
L 120.575273 47.709688 
L 121.17742 48.574443 
L 121.779568 48.795269 
L 122.381715 47.709688 
L 122.983862 48.067721 
L 123.58601 47.852489 
L 124.188157 48.500834 
L 124.790304 47.354894 
L 125.392451 48.067721 
L 125.994599 47.995878 
L 126.596746 47.638435 
L 127.198893 48.067721 
L 127.80104 48.067721 
L 129.005335 48.500834 
L 129.607482 48.067721 
L 130.209629 49.610853 
L 130.811777 48.500834 
L 131.413924 48.795269 
L 132.016071 49.684462 
L 132.618218 50.061339 
L 133.220366 50.906367 
L 133.822513 51.530568 
L 134.42466 52.407984 
L 136.231102 56.491795 
L 136.833249 58.806053 
L 138.639691 67.094393 
L 140.446133 79.819866 
L 141.650427 95.631016 
L 142.854722 119.303576 
L 144.059016 180.89934 
L 144.661163 286.24812 
L 219.879391 286.24812 
L 220.481538 198.771534 
L 221.083686 154.576867 
L 222.28798 119.303576 
L 224.094422 92.245016 
L 225.900864 75.87444 
L 226.503011 71.761185 
L 227.105158 69.043552 
L 228.309453 62.09489 
L 228.9116 59.871907 
L 229.513747 58.520451 
L 230.115894 58.711834 
L 230.718042 55.690933 
L 231.922336 54.736964 
L 232.524484 53.971433 
L 233.126631 52.328487 
L 233.728778 52.166548 
L 234.330925 52.569923 
L 234.933073 52.407984 
L 235.53522 52.569923 
L 236.137367 51.928055 
L 236.739514 52.166548 
L 237.341662 52.007553 
L 237.943809 52.08705 
L 238.545956 52.649421 
L 239.148103 51.215523 
L 239.750251 51.769061 
L 240.954545 51.769061 
L 241.556692 55.081452 
L 242.15884 51.610066 
L 242.760987 51.13897 
L 243.363134 52.246045 
L 243.965281 50.444104 
L 244.567429 50.444104 
L 245.169576 50.826869 
L 245.771723 50.444104 
L 246.37387 50.520657 
L 246.976018 49.684462 
L 247.578165 50.061339 
L 248.180312 50.214445 
L 248.782459 50.906367 
L 249.384607 51.769061 
L 249.986754 50.906367 
L 250.588901 50.290998 
L 251.191048 51.374518 
L 251.793196 50.444104 
L 252.395343 50.520657 
L 252.99749 50.214445 
L 254.201785 49.984786 
L 254.803932 50.673763 
L 255.406079 50.137892 
L 256.610374 50.214445 
L 257.212521 50.214445 
L 257.814668 49.610853 
L 258.416815 50.826869 
L 259.018963 49.610853 
L 260.223257 51.451071 
L 260.825404 50.444104 
L 261.427552 50.520657 
L 262.029699 50.826869 
L 262.631846 49.684462 
L 263.233993 50.444104 
L 263.836141 51.689563 
L 264.438288 49.761015 
L 265.642582 49.834624 
L 266.24473 49.984786 
L 266.846877 50.520657 
L 267.449024 51.295021 
L 268.051171 49.684462 
L 268.653319 50.673763 
L 269.255466 50.214445 
L 269.857613 50.444104 
L 271.061908 50.444104 
L 271.664055 50.214445 
L 272.266202 49.610853 
L 272.86835 50.520657 
L 273.470497 50.520657 
L 274.072644 50.061339 
L 274.674791 48.942486 
L 275.276939 49.384139 
L 275.879086 51.928055 
L 276.481233 49.384139 
L 277.08338 49.911177 
L 277.685528 49.911177 
L 278.287675 50.061339 
L 278.889822 50.061339 
L 279.491969 49.460692 
L 280.094117 49.384139 
L 280.696264 49.5343 
L 281.298411 48.72166 
L 281.900558 50.444104 
L 282.502706 48.500834 
L 283.104853 48.574443 
L 283.707 48.139857 
L 285.513442 47.924036 
L 286.115589 49.384139 
L 286.717736 49.684462 
L 287.319884 48.648052 
L 287.922031 48.43017 
L 288.524178 51.530568 
L 289.126325 47.924036 
L 289.728473 47.995878 
L 290.33062 47.852489 
L 290.932767 48.067721 
L 291.534914 47.567476 
L 292.137062 47.709688 
L 292.739209 48.067721 
L 293.341356 47.924036 
L 293.943503 48.500834 
L 294.545651 49.384139 
L 295.147798 48.574443 
L 295.749945 49.684462 
L 296.352092 49.460692 
L 296.95424 48.795269 
L 297.556387 47.852489 
L 298.158534 48.067721 
L 298.760681 48.868878 
L 299.362829 48.868878 
L 299.964976 49.384139 
L 300.567123 47.852489 
L 301.16927 48.067721 
L 301.771418 47.995878 
L 302.373565 50.061339 
L 303.577859 50.444104 
L 304.180007 49.31053 
L 304.782154 50.444104 
L 305.384301 48.795269 
L 306.588596 48.43017 
L 307.190743 49.984786 
L 307.79289 48.43017 
L 308.395037 49.984786 
L 308.997185 49.610853 
L 310.201479 51.295021 
L 310.803626 50.59721 
L 311.405774 51.13897 
L 312.007921 50.906367 
L 312.610068 52.007553 
L 313.212216 50.444104 
L 313.814363 50.673763 
L 315.620805 53.388452 
L 316.222952 55.081452 
L 316.825099 57.216105 
L 319.835835 71.228258 
L 320.437983 77.081622 
L 321.04013 77.699935 
L 321.642277 81.851466 
L 322.244424 87.710719 
L 323.448719 106.966757 
L 324.050866 119.774671 
L 324.653013 138.382952 
L 325.255161 286.24812 
L 389.684917 286.24812 
L 390.287064 212.315536 
L 390.889211 191.852316 
L 391.491359 180.89934 
L 392.093506 167.119791 
L 392.695653 286.24812 
L 395.104242 286.24812 
L 395.706389 122.71902 
L 396.308537 118.361384 
L 396.910684 112.060479 
L 397.512831 110.529418 
L 398.114978 105.965678 
L 398.717126 136.851891 
L 399.319273 133.995873 
L 399.92142 120.716863 
L 400.523567 113.238218 
L 401.125715 107.6734 
L 401.727862 83.088093 
L 402.330009 80.467623 
L 402.932156 76.316092 
L 403.534304 73.268691 
L 404.136451 71.095762 
L 404.738598 83.470858 
L 405.340745 81.498145 
L 405.942893 80.467623 
L 406.54504 78.023814 
L 407.147187 78.494909 
L 407.749334 63.581786 
L 408.351482 64.568142 
L 408.853271 64.12649 
L 409.455418 65.810657 
L 410.057565 68.298632 
L 410.659713 86.886302 
L 411.161502 93.422755 
L 411.763649 99.605886 
L 412.867586 128.254394 
L 413.369375 99.870878 
L 413.971523 105.317922 
L 414.473312 119.303576 
L 414.975101 125.368933 
L 415.476891 138.382952 
L 416.079038 286.24812 
L 418.086196 286.24812 
L 418.487627 202.775848 
L 418.989416 218.174789 
L 419.491206 225.094007 
L 419.892637 191.852316 
L 420.394427 202.775848 
L 420.795858 286.24812 
L 422.501942 286.24812 
L 422.903374 180.89934 
L 423.304805 158.31619 
L 423.706237 178.602749 
L 424.00731 151.161423 
L 424.408742 148.040414 
L 424.709815 286.24812 
L 426.014468 286.24812 
L 426.315541 131.316516 
L 426.616615 131.316516 
L 426.917689 137.617422 
L 427.218762 128.843264 
L 427.519836 125.928359 
L 427.720552 286.24812 
L 428.72413 286.24812 
L 428.924846 123.249002 
L 429.125562 122.21848 
L 429.326278 119.774671 
L 429.526993 127.076655 
L 429.727709 119.774671 
L 429.828067 286.24812 
L 430.430214 286.24812 
L 430.63093 119.303576 
L 430.731288 120.716863 
L 430.831646 122.71902 
L 431.032362 120.245767 
L 431.233077 286.24812 
L 431.433793 286.24812 
L 431.534151 115.299262 
L 431.634509 118.361384 
L 431.734867 118.361384 
L 431.734867 286.24812 
L 431.835225 112.82601 
L 431.835225 114.85761 
L 431.935582 120.716863 
L 431.935582 116.153123 
L 431.935582 286.24812 
L 431.935582 105.965678 
L 431.935582 111.294949 
" clip-path="url(#p78699d190e)" style="fill: none; stroke: #ff7f0e; stroke-width: 1.5; stroke-linecap: square"/>
   </g>
   <g id="patch_3">
    <path d="M 52.582813 304.44375 
L 52.582813 25.918125 
" style="fill: none; stroke: #000000; stroke-width: 0.8; stroke-linejoin: miter; stroke-linecap: square"/>
   </g>
   <g id="patch_4">
    <path d="M 450 304.44375 
L 450 25.918125 
" style="fill: none; stroke: #000000; stroke-width: 0.8; stroke-linejoin: miter; stroke-linecap: square"/>
   </g>
   <g id="patch_5">
    <path d="M 52.582813 304.44375 
L 450 304.44375 
" style="fill: none; stroke: #000000; stroke-width: 0.8; stroke-linejoin: miter; stroke-linecap: square"/>
   </g>
   <g id="patch_6">
    <path d="M 52.582813 25.918125 
L 450 25.918125 
" style="fill: none; stroke: #000000; stroke-width: 0.8; stroke-linejoin: miter; stroke-linecap: square"/>
   </g>
   <g id="text_16">
    <!-- Wall Distance [mm] -->
    <g transform="translate(192.311406 19.918125)scale(0.12 -0.12)">
     <use xlink:href="#DejaVuSans-57"/>
     <use xlink:href="#DejaVuSans-61" x="92.501953"/>
     <use xlink:href="#DejaVuSans-6c" x="153.78125"/>
     <use xlink:href="#DejaVuSans-6c" x="181.564453"/>
     <use xlink:href="#DejaVuSans-20" x="209.347656"/>
     <use xlink:href="#DejaVuSans-44" x="241.134766"/>
     <use xlink:href="#DejaVuSans-69" x="318.136719"/>
     <use xlink:href="#DejaVuSans-73" x="345.919922"/>
     <use xlink:href="#DejaVuSans-74" x="398.019531"/>
     <use xlink:href="#DejaVuSans-61" x="437.228516"/>
     <use xlink:href="#DejaVuSans-6e" x="498.507812"/>
     <use xlink:href="#DejaVuSans-63" x="561.886719"/>
     <use xlink:href="#DejaVuSans-65" x="616.867188"/>
     <use xlink:href="#DejaVuSans-20" x="678.390625"/>
     <use xlink:href="#DejaVuSans-5b" x="710.177734"/>
     <use xlink:href="#DejaVuSans-6d" x="749.191406"/>
     <use xlink:href="#DejaVuSans-6d" x="846.603516"/>
     <use xlink:href="#DejaVuSans-5d" x="944.015625"/>
    </g>
   </g>
   <g id="legend_1">
    <g id="patch_7">
     <path d="M 404.051562 63.274375 
L 443 63.274375 
Q 445 63.274375 445 61.274375 
L 445 32.918125 
Q 445 30.918125 443 30.918125 
L 404.051562 30.918125 
Q 402.051562 30.918125 402.051562 32.918125 
L 402.051562 61.274375 
Q 402.051562 63.274375 404.051562 63.274375 
z
" style="fill: #ffffff; opacity: 0.8; stroke: #cccccc; stroke-linejoin: miter"/>
    </g>
    <g id="line2d_29">
     <path d="M 406.051562 39.016562 
L 416.051562 39.016562 
L 426.051562 39.016562 
" style="fill: none; stroke: #1f77b4; stroke-width: 1.5; stroke-linecap: square"/>
    </g>
    <g id="text_17">
     <!-- L -->
     <g transform="translate(434.051562 42.516562)scale(0.1 -0.1)">
      <defs>
       <path id="DejaVuSans-4c" d="M 628 4666 
L 1259 4666 
L 1259 531 
L 3531 531 
L 3531 0 
L 628 0 
L 628 4666 
z
" transform="scale(0.015625)"/>
      </defs>
      <use xlink:href="#DejaVuSans-4c"/>
     </g>
    </g>
    <g id="line2d_30">
     <path d="M 406.051562 53.694687 
L 416.051562 53.694687 
L 426.051562 53.694687 
" style="fill: none; stroke: #ff7f0e; stroke-width: 1.5; stroke-linecap: square"/>
    </g>
    <g id="text_18">
     <!-- R -->
     <g transform="translate(434.051562 57.194687)scale(0.1 -0.1)">
      <defs>
       <path id="DejaVuSans-52" d="M 2841 2188 
Q 3044 2119 3236 1894 
Q 3428 1669 3622 1275 
L 4263 0 
L 3584 0 
L 2988 1197 
Q 2756 1666 2539 1819 
Q 2322 1972 1947 1972 
L 1259 1972 
L 1259 0 
L 628 0 
L 628 4666 
L 2053 4666 
Q 2853 4666 3247 4331 
Q 3641 3997 3641 3322 
Q 3641 2881 3436 2590 
Q 3231 2300 2841 2188 
z
M 1259 4147 
L 1259 2491 
L 2053 2491 
Q 2509 2491 2742 2702 
Q 2975 2913 2975 3322 
Q 2975 3731 2742 3939 
Q 2509 4147 2053 4147 
L 1259 4147 
z
" transform="scale(0.015625)"/>
      </defs>
      <use xlink:href="#DejaVuSans-52"/>
     </g>
    </g>
   </g>
  </g>
 </g>
 <defs>
  <clipPath id="p78699d190e">
   <rect x="52.582813" y="25.918125" width="397.417187" height="278.525625"/>
  </clipPath>
 </defs>
</svg>
