<?xml version="1.0" encoding="utf-8" standalone="no"?>
<!DOCTYPE svg PUBLIC "-//W3C//DTD SVG 1.1//EN"
  "http://www.w3.org/Graphics/SVG/1.1/DTD/svg11.dtd">
<svg xmlns:xlink="http://www.w3.org/1999/xlink" width="460.8pt" height="345.6pt" viewBox="0 0 460.8 345.6" xmlns="http://www.w3.org/2000/svg" version="1.1">
 <metadata>
  <rdf:RDF xmlns:dc="http://purl.org/dc/elements/1.1/" xmlns:cc="http://creativecommons.org/ns#" xmlns:rdf="http://www.w3.org/1999/02/22-rdf-syntax-ns#">
   <cc:Work>
    <dc:type rdf:resource="http://purl.org/dc/dcmitype/StillImage"/>
    <dc:date>2022-01-15T23:47:11.963151</dc:date>
    <dc:format>image/svg+xml</dc:format>
    <dc:creator>
     <cc:Agent>
      <dc:title>Matplotlib v3.5.1, https://matplotlib.org/</dc:title>
     </cc:Agent>
    </dc:creator>
   </cc:Work>
  </rdf:RDF>
 </metadata>
 <defs>
  <style type="text/css">*{stroke-linejoin: round; stroke-linecap: butt}</style>
 </defs>
 <g id="figure_1">
  <g id="patch_1">
   <path d="M 0 345.6 
L 460.8 345.6 
L 460.8 0 
L 0 0 
z
" style="fill: #ffffff"/>
  </g>
  <g id="axes_1">
   <g id="patch_2">
    <path d="M 52.582813 304.44375 
L 450 304.44375 
L 450 25.918125 
L 52.582813 25.918125 
z
" style="fill: #ffffff"/>
   </g>
   <g id="matplotlib.axis_1">
    <g id="xtick_1">
     <g id="line2d_1">
      <path d="M 70.64723 304.44375 
L 70.64723 25.918125 
" clip-path="url(#p61ec8defe1)" style="fill: none; stroke: #b0b0b0; stroke-width: 0.8; stroke-linecap: square"/>
     </g>
     <g id="line2d_2">
      <defs>
       <path id="mf338de383f" d="M 0 0 
L 0 3.5 
" style="stroke: #000000; stroke-width: 0.8"/>
      </defs>
      <g>
       <use xlink:href="#mf338de383f" x="70.64723" y="304.44375" style="stroke: #000000; stroke-width: 0.8"/>
      </g>
     </g>
     <g id="text_1">
      <!-- 0 -->
      <g transform="translate(67.46598 319.042187)scale(0.1 -0.1)">
       <defs>
        <path id="DejaVuSans-30" d="M 2034 4250 
Q 1547 4250 1301 3770 
Q 1056 3291 1056 2328 
Q 1056 1369 1301 889 
Q 1547 409 2034 409 
Q 2525 409 2770 889 
Q 3016 1369 3016 2328 
Q 3016 3291 2770 3770 
Q 2525 4250 2034 4250 
z
M 2034 4750 
Q 2819 4750 3233 4129 
Q 3647 3509 3647 2328 
Q 3647 1150 3233 529 
Q 2819 -91 2034 -91 
Q 1250 -91 836 529 
Q 422 1150 422 2328 
Q 422 3509 836 4129 
Q 1250 4750 2034 4750 
z
" transform="scale(0.015625)"/>
       </defs>
       <use xlink:href="#DejaVuSans-30"/>
      </g>
     </g>
    </g>
    <g id="xtick_2">
     <g id="line2d_3">
      <path d="M 120.826168 304.44375 
L 120.826168 25.918125 
" clip-path="url(#p61ec8defe1)" style="fill: none; stroke: #b0b0b0; stroke-width: 0.8; stroke-linecap: square"/>
     </g>
     <g id="line2d_4">
      <g>
       <use xlink:href="#mf338de383f" x="120.826168" y="304.44375" style="stroke: #000000; stroke-width: 0.8"/>
      </g>
     </g>
     <g id="text_2">
      <!-- 50 -->
      <g transform="translate(114.463668 319.042187)scale(0.1 -0.1)">
       <defs>
        <path id="DejaVuSans-35" d="M 691 4666 
L 3169 4666 
L 3169 4134 
L 1269 4134 
L 1269 2991 
Q 1406 3038 1543 3061 
Q 1681 3084 1819 3084 
Q 2600 3084 3056 2656 
Q 3513 2228 3513 1497 
Q 3513 744 3044 326 
Q 2575 -91 1722 -91 
Q 1428 -91 1123 -41 
Q 819 9 494 109 
L 494 744 
Q 775 591 1075 516 
Q 1375 441 1709 441 
Q 2250 441 2565 725 
Q 2881 1009 2881 1497 
Q 2881 1984 2565 2268 
Q 2250 2553 1709 2553 
Q 1456 2553 1204 2497 
Q 953 2441 691 2322 
L 691 4666 
z
" transform="scale(0.015625)"/>
       </defs>
       <use xlink:href="#DejaVuSans-35"/>
       <use xlink:href="#DejaVuSans-30" x="63.623047"/>
      </g>
     </g>
    </g>
    <g id="xtick_3">
     <g id="line2d_5">
      <path d="M 171.005106 304.44375 
L 171.005106 25.918125 
" clip-path="url(#p61ec8defe1)" style="fill: none; stroke: #b0b0b0; stroke-width: 0.8; stroke-linecap: square"/>
     </g>
     <g id="line2d_6">
      <g>
       <use xlink:href="#mf338de383f" x="171.005106" y="304.44375" style="stroke: #000000; stroke-width: 0.8"/>
      </g>
     </g>
     <g id="text_3">
      <!-- 100 -->
      <g transform="translate(161.461356 319.042187)scale(0.1 -0.1)">
       <defs>
        <path id="DejaVuSans-31" d="M 794 531 
L 1825 531 
L 1825 4091 
L 703 3866 
L 703 4441 
L 1819 4666 
L 2450 4666 
L 2450 531 
L 3481 531 
L 3481 0 
L 794 0 
L 794 531 
z
" transform="scale(0.015625)"/>
       </defs>
       <use xlink:href="#DejaVuSans-31"/>
       <use xlink:href="#DejaVuSans-30" x="63.623047"/>
       <use xlink:href="#DejaVuSans-30" x="127.246094"/>
      </g>
     </g>
    </g>
    <g id="xtick_4">
     <g id="line2d_7">
      <path d="M 221.184044 304.44375 
L 221.184044 25.918125 
" clip-path="url(#p61ec8defe1)" style="fill: none; stroke: #b0b0b0; stroke-width: 0.8; stroke-linecap: square"/>
     </g>
     <g id="line2d_8">
      <g>
       <use xlink:href="#mf338de383f" x="221.184044" y="304.44375" style="stroke: #000000; stroke-width: 0.8"/>
      </g>
     </g>
     <g id="text_4">
      <!-- 150 -->
      <g transform="translate(211.640294 319.042187)scale(0.1 -0.1)">
       <use xlink:href="#DejaVuSans-31"/>
       <use xlink:href="#DejaVuSans-35" x="63.623047"/>
       <use xlink:href="#DejaVuSans-30" x="127.246094"/>
      </g>
     </g>
    </g>
    <g id="xtick_5">
     <g id="line2d_9">
      <path d="M 271.362981 304.44375 
L 271.362981 25.918125 
" clip-path="url(#p61ec8defe1)" style="fill: none; stroke: #b0b0b0; stroke-width: 0.8; stroke-linecap: square"/>
     </g>
     <g id="line2d_10">
      <g>
       <use xlink:href="#mf338de383f" x="271.362981" y="304.44375" style="stroke: #000000; stroke-width: 0.8"/>
      </g>
     </g>
     <g id="text_5">
      <!-- 200 -->
      <g transform="translate(261.819231 319.042187)scale(0.1 -0.1)">
       <defs>
        <path id="DejaVuSans-32" d="M 1228 531 
L 3431 531 
L 3431 0 
L 469 0 
L 469 531 
Q 828 903 1448 1529 
Q 2069 2156 2228 2338 
Q 2531 2678 2651 2914 
Q 2772 3150 2772 3378 
Q 2772 3750 2511 3984 
Q 2250 4219 1831 4219 
Q 1534 4219 1204 4116 
Q 875 4013 500 3803 
L 500 4441 
Q 881 4594 1212 4672 
Q 1544 4750 1819 4750 
Q 2544 4750 2975 4387 
Q 3406 4025 3406 3419 
Q 3406 3131 3298 2873 
Q 3191 2616 2906 2266 
Q 2828 2175 2409 1742 
Q 1991 1309 1228 531 
z
" transform="scale(0.015625)"/>
       </defs>
       <use xlink:href="#DejaVuSans-32"/>
       <use xlink:href="#DejaVuSans-30" x="63.623047"/>
       <use xlink:href="#DejaVuSans-30" x="127.246094"/>
      </g>
     </g>
    </g>
    <g id="xtick_6">
     <g id="line2d_11">
      <path d="M 321.541919 304.44375 
L 321.541919 25.918125 
" clip-path="url(#p61ec8defe1)" style="fill: none; stroke: #b0b0b0; stroke-width: 0.8; stroke-linecap: square"/>
     </g>
     <g id="line2d_12">
      <g>
       <use xlink:href="#mf338de383f" x="321.541919" y="304.44375" style="stroke: #000000; stroke-width: 0.8"/>
      </g>
     </g>
     <g id="text_6">
      <!-- 250 -->
      <g transform="translate(311.998169 319.042187)scale(0.1 -0.1)">
       <use xlink:href="#DejaVuSans-32"/>
       <use xlink:href="#DejaVuSans-35" x="63.623047"/>
       <use xlink:href="#DejaVuSans-30" x="127.246094"/>
      </g>
     </g>
    </g>
    <g id="xtick_7">
     <g id="line2d_13">
      <path d="M 371.720857 304.44375 
L 371.720857 25.918125 
" clip-path="url(#p61ec8defe1)" style="fill: none; stroke: #b0b0b0; stroke-width: 0.8; stroke-linecap: square"/>
     </g>
     <g id="line2d_14">
      <g>
       <use xlink:href="#mf338de383f" x="371.720857" y="304.44375" style="stroke: #000000; stroke-width: 0.8"/>
      </g>
     </g>
     <g id="text_7">
      <!-- 300 -->
      <g transform="translate(362.177107 319.042187)scale(0.1 -0.1)">
       <defs>
        <path id="DejaVuSans-33" d="M 2597 2516 
Q 3050 2419 3304 2112 
Q 3559 1806 3559 1356 
Q 3559 666 3084 287 
Q 2609 -91 1734 -91 
Q 1441 -91 1130 -33 
Q 819 25 488 141 
L 488 750 
Q 750 597 1062 519 
Q 1375 441 1716 441 
Q 2309 441 2620 675 
Q 2931 909 2931 1356 
Q 2931 1769 2642 2001 
Q 2353 2234 1838 2234 
L 1294 2234 
L 1294 2753 
L 1863 2753 
Q 2328 2753 2575 2939 
Q 2822 3125 2822 3475 
Q 2822 3834 2567 4026 
Q 2313 4219 1838 4219 
Q 1578 4219 1281 4162 
Q 984 4106 628 3988 
L 628 4550 
Q 988 4650 1302 4700 
Q 1616 4750 1894 4750 
Q 2613 4750 3031 4423 
Q 3450 4097 3450 3541 
Q 3450 3153 3228 2886 
Q 3006 2619 2597 2516 
z
" transform="scale(0.015625)"/>
       </defs>
       <use xlink:href="#DejaVuSans-33"/>
       <use xlink:href="#DejaVuSans-30" x="63.623047"/>
       <use xlink:href="#DejaVuSans-30" x="127.246094"/>
      </g>
     </g>
    </g>
    <g id="xtick_8">
     <g id="line2d_15">
      <path d="M 421.899795 304.44375 
L 421.899795 25.918125 
" clip-path="url(#p61ec8defe1)" style="fill: none; stroke: #b0b0b0; stroke-width: 0.8; stroke-linecap: square"/>
     </g>
     <g id="line2d_16">
      <g>
       <use xlink:href="#mf338de383f" x="421.899795" y="304.44375" style="stroke: #000000; stroke-width: 0.8"/>
      </g>
     </g>
     <g id="text_8">
      <!-- 350 -->
      <g transform="translate(412.356045 319.042187)scale(0.1 -0.1)">
       <use xlink:href="#DejaVuSans-33"/>
       <use xlink:href="#DejaVuSans-35" x="63.623047"/>
       <use xlink:href="#DejaVuSans-30" x="127.246094"/>
      </g>
     </g>
    </g>
    <g id="text_9">
     <!-- Translational Position [mm] -->
     <g transform="translate(183.314062 332.720312)scale(0.1 -0.1)">
      <defs>
       <path id="DejaVuSans-54" d="M -19 4666 
L 3928 4666 
L 3928 4134 
L 2272 4134 
L 2272 0 
L 1638 0 
L 1638 4134 
L -19 4134 
L -19 4666 
z
" transform="scale(0.015625)"/>
       <path id="DejaVuSans-72" d="M 2631 2963 
Q 2534 3019 2420 3045 
Q 2306 3072 2169 3072 
Q 1681 3072 1420 2755 
Q 1159 2438 1159 1844 
L 1159 0 
L 581 0 
L 581 3500 
L 1159 3500 
L 1159 2956 
Q 1341 3275 1631 3429 
Q 1922 3584 2338 3584 
Q 2397 3584 2469 3576 
Q 2541 3569 2628 3553 
L 2631 2963 
z
" transform="scale(0.015625)"/>
       <path id="DejaVuSans-61" d="M 2194 1759 
Q 1497 1759 1228 1600 
Q 959 1441 959 1056 
Q 959 750 1161 570 
Q 1363 391 1709 391 
Q 2188 391 2477 730 
Q 2766 1069 2766 1631 
L 2766 1759 
L 2194 1759 
z
M 3341 1997 
L 3341 0 
L 2766 0 
L 2766 531 
Q 2569 213 2275 61 
Q 1981 -91 1556 -91 
Q 1019 -91 701 211 
Q 384 513 384 1019 
Q 384 1609 779 1909 
Q 1175 2209 1959 2209 
L 2766 2209 
L 2766 2266 
Q 2766 2663 2505 2880 
Q 2244 3097 1772 3097 
Q 1472 3097 1187 3025 
Q 903 2953 641 2809 
L 641 3341 
Q 956 3463 1253 3523 
Q 1550 3584 1831 3584 
Q 2591 3584 2966 3190 
Q 3341 2797 3341 1997 
z
" transform="scale(0.015625)"/>
       <path id="DejaVuSans-6e" d="M 3513 2113 
L 3513 0 
L 2938 0 
L 2938 2094 
Q 2938 2591 2744 2837 
Q 2550 3084 2163 3084 
Q 1697 3084 1428 2787 
Q 1159 2491 1159 1978 
L 1159 0 
L 581 0 
L 581 3500 
L 1159 3500 
L 1159 2956 
Q 1366 3272 1645 3428 
Q 1925 3584 2291 3584 
Q 2894 3584 3203 3211 
Q 3513 2838 3513 2113 
z
" transform="scale(0.015625)"/>
       <path id="DejaVuSans-73" d="M 2834 3397 
L 2834 2853 
Q 2591 2978 2328 3040 
Q 2066 3103 1784 3103 
Q 1356 3103 1142 2972 
Q 928 2841 928 2578 
Q 928 2378 1081 2264 
Q 1234 2150 1697 2047 
L 1894 2003 
Q 2506 1872 2764 1633 
Q 3022 1394 3022 966 
Q 3022 478 2636 193 
Q 2250 -91 1575 -91 
Q 1294 -91 989 -36 
Q 684 19 347 128 
L 347 722 
Q 666 556 975 473 
Q 1284 391 1588 391 
Q 1994 391 2212 530 
Q 2431 669 2431 922 
Q 2431 1156 2273 1281 
Q 2116 1406 1581 1522 
L 1381 1569 
Q 847 1681 609 1914 
Q 372 2147 372 2553 
Q 372 3047 722 3315 
Q 1072 3584 1716 3584 
Q 2034 3584 2315 3537 
Q 2597 3491 2834 3397 
z
" transform="scale(0.015625)"/>
       <path id="DejaVuSans-6c" d="M 603 4863 
L 1178 4863 
L 1178 0 
L 603 0 
L 603 4863 
z
" transform="scale(0.015625)"/>
       <path id="DejaVuSans-74" d="M 1172 4494 
L 1172 3500 
L 2356 3500 
L 2356 3053 
L 1172 3053 
L 1172 1153 
Q 1172 725 1289 603 
Q 1406 481 1766 481 
L 2356 481 
L 2356 0 
L 1766 0 
Q 1100 0 847 248 
Q 594 497 594 1153 
L 594 3053 
L 172 3053 
L 172 3500 
L 594 3500 
L 594 4494 
L 1172 4494 
z
" transform="scale(0.015625)"/>
       <path id="DejaVuSans-69" d="M 603 3500 
L 1178 3500 
L 1178 0 
L 603 0 
L 603 3500 
z
M 603 4863 
L 1178 4863 
L 1178 4134 
L 603 4134 
L 603 4863 
z
" transform="scale(0.015625)"/>
       <path id="DejaVuSans-6f" d="M 1959 3097 
Q 1497 3097 1228 2736 
Q 959 2375 959 1747 
Q 959 1119 1226 758 
Q 1494 397 1959 397 
Q 2419 397 2687 759 
Q 2956 1122 2956 1747 
Q 2956 2369 2687 2733 
Q 2419 3097 1959 3097 
z
M 1959 3584 
Q 2709 3584 3137 3096 
Q 3566 2609 3566 1747 
Q 3566 888 3137 398 
Q 2709 -91 1959 -91 
Q 1206 -91 779 398 
Q 353 888 353 1747 
Q 353 2609 779 3096 
Q 1206 3584 1959 3584 
z
" transform="scale(0.015625)"/>
       <path id="DejaVuSans-20" transform="scale(0.015625)"/>
       <path id="DejaVuSans-50" d="M 1259 4147 
L 1259 2394 
L 2053 2394 
Q 2494 2394 2734 2622 
Q 2975 2850 2975 3272 
Q 2975 3691 2734 3919 
Q 2494 4147 2053 4147 
L 1259 4147 
z
M 628 4666 
L 2053 4666 
Q 2838 4666 3239 4311 
Q 3641 3956 3641 3272 
Q 3641 2581 3239 2228 
Q 2838 1875 2053 1875 
L 1259 1875 
L 1259 0 
L 628 0 
L 628 4666 
z
" transform="scale(0.015625)"/>
       <path id="DejaVuSans-5b" d="M 550 4863 
L 1875 4863 
L 1875 4416 
L 1125 4416 
L 1125 -397 
L 1875 -397 
L 1875 -844 
L 550 -844 
L 550 4863 
z
" transform="scale(0.015625)"/>
       <path id="DejaVuSans-6d" d="M 3328 2828 
Q 3544 3216 3844 3400 
Q 4144 3584 4550 3584 
Q 5097 3584 5394 3201 
Q 5691 2819 5691 2113 
L 5691 0 
L 5113 0 
L 5113 2094 
Q 5113 2597 4934 2840 
Q 4756 3084 4391 3084 
Q 3944 3084 3684 2787 
Q 3425 2491 3425 1978 
L 3425 0 
L 2847 0 
L 2847 2094 
Q 2847 2600 2669 2842 
Q 2491 3084 2119 3084 
Q 1678 3084 1418 2786 
Q 1159 2488 1159 1978 
L 1159 0 
L 581 0 
L 581 3500 
L 1159 3500 
L 1159 2956 
Q 1356 3278 1631 3431 
Q 1906 3584 2284 3584 
Q 2666 3584 2933 3390 
Q 3200 3197 3328 2828 
z
" transform="scale(0.015625)"/>
       <path id="DejaVuSans-5d" d="M 1947 4863 
L 1947 -844 
L 622 -844 
L 622 -397 
L 1369 -397 
L 1369 4416 
L 622 4416 
L 622 4863 
L 1947 4863 
z
" transform="scale(0.015625)"/>
      </defs>
      <use xlink:href="#DejaVuSans-54"/>
      <use xlink:href="#DejaVuSans-72" x="46.333984"/>
      <use xlink:href="#DejaVuSans-61" x="87.447266"/>
      <use xlink:href="#DejaVuSans-6e" x="148.726562"/>
      <use xlink:href="#DejaVuSans-73" x="212.105469"/>
      <use xlink:href="#DejaVuSans-6c" x="264.205078"/>
      <use xlink:href="#DejaVuSans-61" x="291.988281"/>
      <use xlink:href="#DejaVuSans-74" x="353.267578"/>
      <use xlink:href="#DejaVuSans-69" x="392.476562"/>
      <use xlink:href="#DejaVuSans-6f" x="420.259766"/>
      <use xlink:href="#DejaVuSans-6e" x="481.441406"/>
      <use xlink:href="#DejaVuSans-61" x="544.820312"/>
      <use xlink:href="#DejaVuSans-6c" x="606.099609"/>
      <use xlink:href="#DejaVuSans-20" x="633.882812"/>
      <use xlink:href="#DejaVuSans-50" x="665.669922"/>
      <use xlink:href="#DejaVuSans-6f" x="722.347656"/>
      <use xlink:href="#DejaVuSans-73" x="783.529297"/>
      <use xlink:href="#DejaVuSans-69" x="835.628906"/>
      <use xlink:href="#DejaVuSans-74" x="863.412109"/>
      <use xlink:href="#DejaVuSans-69" x="902.621094"/>
      <use xlink:href="#DejaVuSans-6f" x="930.404297"/>
      <use xlink:href="#DejaVuSans-6e" x="991.585938"/>
      <use xlink:href="#DejaVuSans-20" x="1054.964844"/>
      <use xlink:href="#DejaVuSans-5b" x="1086.751953"/>
      <use xlink:href="#DejaVuSans-6d" x="1125.765625"/>
      <use xlink:href="#DejaVuSans-6d" x="1223.177734"/>
      <use xlink:href="#DejaVuSans-5d" x="1320.589844"/>
     </g>
    </g>
   </g>
   <g id="matplotlib.axis_2">
    <g id="ytick_1">
     <g id="line2d_17">
      <path d="M 52.582813 282.465506 
L 450 282.465506 
" clip-path="url(#p61ec8defe1)" style="fill: none; stroke: #b0b0b0; stroke-width: 0.8; stroke-linecap: square"/>
     </g>
     <g id="line2d_18">
      <defs>
       <path id="m0b232d2063" d="M 0 0 
L -3.5 0 
" style="stroke: #000000; stroke-width: 0.8"/>
      </defs>
      <g>
       <use xlink:href="#m0b232d2063" x="52.582813" y="282.465506" style="stroke: #000000; stroke-width: 0.8"/>
      </g>
     </g>
     <g id="text_10">
      <!-- −80 -->
      <g transform="translate(24.478125 286.264725)scale(0.1 -0.1)">
       <defs>
        <path id="DejaVuSans-2212" d="M 678 2272 
L 4684 2272 
L 4684 1741 
L 678 1741 
L 678 2272 
z
" transform="scale(0.015625)"/>
        <path id="DejaVuSans-38" d="M 2034 2216 
Q 1584 2216 1326 1975 
Q 1069 1734 1069 1313 
Q 1069 891 1326 650 
Q 1584 409 2034 409 
Q 2484 409 2743 651 
Q 3003 894 3003 1313 
Q 3003 1734 2745 1975 
Q 2488 2216 2034 2216 
z
M 1403 2484 
Q 997 2584 770 2862 
Q 544 3141 544 3541 
Q 544 4100 942 4425 
Q 1341 4750 2034 4750 
Q 2731 4750 3128 4425 
Q 3525 4100 3525 3541 
Q 3525 3141 3298 2862 
Q 3072 2584 2669 2484 
Q 3125 2378 3379 2068 
Q 3634 1759 3634 1313 
Q 3634 634 3220 271 
Q 2806 -91 2034 -91 
Q 1263 -91 848 271 
Q 434 634 434 1313 
Q 434 1759 690 2068 
Q 947 2378 1403 2484 
z
M 1172 3481 
Q 1172 3119 1398 2916 
Q 1625 2713 2034 2713 
Q 2441 2713 2670 2916 
Q 2900 3119 2900 3481 
Q 2900 3844 2670 4047 
Q 2441 4250 2034 4250 
Q 1625 4250 1398 4047 
Q 1172 3844 1172 3481 
z
" transform="scale(0.015625)"/>
       </defs>
       <use xlink:href="#DejaVuSans-2212"/>
       <use xlink:href="#DejaVuSans-38" x="83.789062"/>
       <use xlink:href="#DejaVuSans-30" x="147.412109"/>
      </g>
     </g>
    </g>
    <g id="ytick_2">
     <g id="line2d_19">
      <path d="M 52.582813 232.636693 
L 450 232.636693 
" clip-path="url(#p61ec8defe1)" style="fill: none; stroke: #b0b0b0; stroke-width: 0.8; stroke-linecap: square"/>
     </g>
     <g id="line2d_20">
      <g>
       <use xlink:href="#m0b232d2063" x="52.582813" y="232.636693" style="stroke: #000000; stroke-width: 0.8"/>
      </g>
     </g>
     <g id="text_11">
      <!-- −60 -->
      <g transform="translate(24.478125 236.435912)scale(0.1 -0.1)">
       <defs>
        <path id="DejaVuSans-36" d="M 2113 2584 
Q 1688 2584 1439 2293 
Q 1191 2003 1191 1497 
Q 1191 994 1439 701 
Q 1688 409 2113 409 
Q 2538 409 2786 701 
Q 3034 994 3034 1497 
Q 3034 2003 2786 2293 
Q 2538 2584 2113 2584 
z
M 3366 4563 
L 3366 3988 
Q 3128 4100 2886 4159 
Q 2644 4219 2406 4219 
Q 1781 4219 1451 3797 
Q 1122 3375 1075 2522 
Q 1259 2794 1537 2939 
Q 1816 3084 2150 3084 
Q 2853 3084 3261 2657 
Q 3669 2231 3669 1497 
Q 3669 778 3244 343 
Q 2819 -91 2113 -91 
Q 1303 -91 875 529 
Q 447 1150 447 2328 
Q 447 3434 972 4092 
Q 1497 4750 2381 4750 
Q 2619 4750 2861 4703 
Q 3103 4656 3366 4563 
z
" transform="scale(0.015625)"/>
       </defs>
       <use xlink:href="#DejaVuSans-2212"/>
       <use xlink:href="#DejaVuSans-36" x="83.789062"/>
       <use xlink:href="#DejaVuSans-30" x="147.412109"/>
      </g>
     </g>
    </g>
    <g id="ytick_3">
     <g id="line2d_21">
      <path d="M 52.582813 182.80788 
L 450 182.80788 
" clip-path="url(#p61ec8defe1)" style="fill: none; stroke: #b0b0b0; stroke-width: 0.8; stroke-linecap: square"/>
     </g>
     <g id="line2d_22">
      <g>
       <use xlink:href="#m0b232d2063" x="52.582813" y="182.80788" style="stroke: #000000; stroke-width: 0.8"/>
      </g>
     </g>
     <g id="text_12">
      <!-- −40 -->
      <g transform="translate(24.478125 186.607099)scale(0.1 -0.1)">
       <defs>
        <path id="DejaVuSans-34" d="M 2419 4116 
L 825 1625 
L 2419 1625 
L 2419 4116 
z
M 2253 4666 
L 3047 4666 
L 3047 1625 
L 3713 1625 
L 3713 1100 
L 3047 1100 
L 3047 0 
L 2419 0 
L 2419 1100 
L 313 1100 
L 313 1709 
L 2253 4666 
z
" transform="scale(0.015625)"/>
       </defs>
       <use xlink:href="#DejaVuSans-2212"/>
       <use xlink:href="#DejaVuSans-34" x="83.789062"/>
       <use xlink:href="#DejaVuSans-30" x="147.412109"/>
      </g>
     </g>
    </g>
    <g id="ytick_4">
     <g id="line2d_23">
      <path d="M 52.582813 132.979067 
L 450 132.979067 
" clip-path="url(#p61ec8defe1)" style="fill: none; stroke: #b0b0b0; stroke-width: 0.8; stroke-linecap: square"/>
     </g>
     <g id="line2d_24">
      <g>
       <use xlink:href="#m0b232d2063" x="52.582813" y="132.979067" style="stroke: #000000; stroke-width: 0.8"/>
      </g>
     </g>
     <g id="text_13">
      <!-- −20 -->
      <g transform="translate(24.478125 136.778286)scale(0.1 -0.1)">
       <use xlink:href="#DejaVuSans-2212"/>
       <use xlink:href="#DejaVuSans-32" x="83.789062"/>
       <use xlink:href="#DejaVuSans-30" x="147.412109"/>
      </g>
     </g>
    </g>
    <g id="ytick_5">
     <g id="line2d_25">
      <path d="M 52.582813 83.150254 
L 450 83.150254 
" clip-path="url(#p61ec8defe1)" style="fill: none; stroke: #b0b0b0; stroke-width: 0.8; stroke-linecap: square"/>
     </g>
     <g id="line2d_26">
      <g>
       <use xlink:href="#m0b232d2063" x="52.582813" y="83.150254" style="stroke: #000000; stroke-width: 0.8"/>
      </g>
     </g>
     <g id="text_14">
      <!-- 0 -->
      <g transform="translate(39.220313 86.949473)scale(0.1 -0.1)">
       <use xlink:href="#DejaVuSans-30"/>
      </g>
     </g>
    </g>
    <g id="ytick_6">
     <g id="line2d_27">
      <path d="M 52.582813 33.321441 
L 450 33.321441 
" clip-path="url(#p61ec8defe1)" style="fill: none; stroke: #b0b0b0; stroke-width: 0.8; stroke-linecap: square"/>
     </g>
     <g id="line2d_28">
      <g>
       <use xlink:href="#m0b232d2063" x="52.582813" y="33.321441" style="stroke: #000000; stroke-width: 0.8"/>
      </g>
     </g>
     <g id="text_15">
      <!-- 20 -->
      <g transform="translate(32.857813 37.12066)scale(0.1 -0.1)">
       <use xlink:href="#DejaVuSans-32"/>
       <use xlink:href="#DejaVuSans-30" x="63.623047"/>
      </g>
     </g>
    </g>
    <g id="text_16">
     <!-- Wall Distance [mm] -->
     <g transform="translate(18.398438 214.330937)rotate(-90)scale(0.1 -0.1)">
      <defs>
       <path id="DejaVuSans-57" d="M 213 4666 
L 850 4666 
L 1831 722 
L 2809 4666 
L 3519 4666 
L 4500 722 
L 5478 4666 
L 6119 4666 
L 4947 0 
L 4153 0 
L 3169 4050 
L 2175 0 
L 1381 0 
L 213 4666 
z
" transform="scale(0.015625)"/>
       <path id="DejaVuSans-44" d="M 1259 4147 
L 1259 519 
L 2022 519 
Q 2988 519 3436 956 
Q 3884 1394 3884 2338 
Q 3884 3275 3436 3711 
Q 2988 4147 2022 4147 
L 1259 4147 
z
M 628 4666 
L 1925 4666 
Q 3281 4666 3915 4102 
Q 4550 3538 4550 2338 
Q 4550 1131 3912 565 
Q 3275 0 1925 0 
L 628 0 
L 628 4666 
z
" transform="scale(0.015625)"/>
       <path id="DejaVuSans-63" d="M 3122 3366 
L 3122 2828 
Q 2878 2963 2633 3030 
Q 2388 3097 2138 3097 
Q 1578 3097 1268 2742 
Q 959 2388 959 1747 
Q 959 1106 1268 751 
Q 1578 397 2138 397 
Q 2388 397 2633 464 
Q 2878 531 3122 666 
L 3122 134 
Q 2881 22 2623 -34 
Q 2366 -91 2075 -91 
Q 1284 -91 818 406 
Q 353 903 353 1747 
Q 353 2603 823 3093 
Q 1294 3584 2113 3584 
Q 2378 3584 2631 3529 
Q 2884 3475 3122 3366 
z
" transform="scale(0.015625)"/>
       <path id="DejaVuSans-65" d="M 3597 1894 
L 3597 1613 
L 953 1613 
Q 991 1019 1311 708 
Q 1631 397 2203 397 
Q 2534 397 2845 478 
Q 3156 559 3463 722 
L 3463 178 
Q 3153 47 2828 -22 
Q 2503 -91 2169 -91 
Q 1331 -91 842 396 
Q 353 884 353 1716 
Q 353 2575 817 3079 
Q 1281 3584 2069 3584 
Q 2775 3584 3186 3129 
Q 3597 2675 3597 1894 
z
M 3022 2063 
Q 3016 2534 2758 2815 
Q 2500 3097 2075 3097 
Q 1594 3097 1305 2825 
Q 1016 2553 972 2059 
L 3022 2063 
z
" transform="scale(0.015625)"/>
      </defs>
      <use xlink:href="#DejaVuSans-57"/>
      <use xlink:href="#DejaVuSans-61" x="92.501953"/>
      <use xlink:href="#DejaVuSans-6c" x="153.78125"/>
      <use xlink:href="#DejaVuSans-6c" x="181.564453"/>
      <use xlink:href="#DejaVuSans-20" x="209.347656"/>
      <use xlink:href="#DejaVuSans-44" x="241.134766"/>
      <use xlink:href="#DejaVuSans-69" x="318.136719"/>
      <use xlink:href="#DejaVuSans-73" x="345.919922"/>
      <use xlink:href="#DejaVuSans-74" x="398.019531"/>
      <use xlink:href="#DejaVuSans-61" x="437.228516"/>
      <use xlink:href="#DejaVuSans-6e" x="498.507812"/>
      <use xlink:href="#DejaVuSans-63" x="561.886719"/>
      <use xlink:href="#DejaVuSans-65" x="616.867188"/>
      <use xlink:href="#DejaVuSans-20" x="678.390625"/>
      <use xlink:href="#DejaVuSans-5b" x="710.177734"/>
      <use xlink:href="#DejaVuSans-6d" x="749.191406"/>
      <use xlink:href="#DejaVuSans-6d" x="846.603516"/>
      <use xlink:href="#DejaVuSans-5d" x="944.015625"/>
     </g>
    </g>
   </g>
   <g id="line2d_29">
    <path d="M 70.64723 38.877354 
L 70.667783 38.702953 
L 70.647551 38.927182 
L 70.757423 38.752782 
L 70.844433 38.752782 
L 70.968375 38.877354 
L 71.074654 38.80261 
L 71.274467 38.653124 
L 71.352746 38.952097 
L 71.437348 38.578381 
L 71.626322 38.777696 
L 71.731095 38.752782 
L 71.962922 38.877354 
L 72.224856 38.877354 
L 72.368368 39.201241 
L 72.519908 39.001926 
L 72.680481 39.151412 
L 72.850085 39.001926 
L 73.028723 39.300898 
L 73.215388 39.275984 
L 73.617823 39.599871 
L 74.055384 39.774272 
L 74.288214 39.973587 
L 74.530076 40.023416 
L 75.039894 40.297475 
L 75.308853 40.422047 
L 75.586845 40.397132 
L 76.16892 40.671191 
L 78.133928 40.89542 
L 79.237864 40.89542 
L 79.624242 40.795763 
L 80.019652 40.89542 
L 80.833554 40.795763 
L 81.255058 40.596448 
L 81.686596 40.696105 
L 82.128171 40.521704 
L 82.579782 40.696105 
L 83.041428 40.49679 
L 83.974756 40.571533 
L 84.456474 40.671191 
L 84.948227 40.571533 
L 85.439981 40.621362 
L 85.94177 40.49679 
L 87.497317 40.646276 
L 88.019178 40.745934 
L 88.561111 40.49679 
L 91.310917 40.72102 
L 91.872921 40.671191 
L 93.017001 40.89542 
L 93.58904 40.745934 
L 94.753192 40.795763 
L 96.51949 40.521704 
L 98.908008 40.49679 
L 99.500119 40.372218 
L 100.704414 40.372218 
L 101.908708 40.098159 
L 102.510856 40.098159 
L 103.113003 39.849015 
L 103.71515 39.749358 
L 104.919445 39.799187 
L 106.725886 39.674615 
L 107.328034 39.674615 
L 107.930181 39.350727 
L 109.736623 39.574957 
L 110.33877 39.300898 
L 110.940917 39.350727 
L 112.145212 39.300898 
L 114.553801 39.101583 
L 115.155948 39.001926 
L 117.564537 39.001926 
L 119.370979 38.952097 
L 119.973126 39.076669 
L 122.381715 39.02684 
L 122.983862 39.151412 
L 124.790304 39.126498 
L 125.392451 39.25107 
L 127.198893 39.275984 
L 136.833249 40.098159 
L 139.241838 40.745934 
L 139.843985 41.219308 
L 140.446133 41.842168 
L 141.04828 42.988231 
L 141.650427 44.757154 
L 142.252574 47.896369 
L 142.854722 51.957417 
L 143.456869 57.463501 
L 144.059016 64.08575 
L 145.263311 83.013823 
L 146.467605 110.406615 
L 147.069752 129.216992 
L 147.6719 153.85734 
L 148.274047 185.822523 
L 148.876194 291.783494 
L 219.879391 291.783494 
L 220.481538 211.882993 
L 221.083686 163.549044 
L 221.685833 142.770429 
L 222.890127 116.2615 
L 224.094422 96.686251 
L 225.298716 81.493944 
L 226.503011 68.535463 
L 227.707305 58.636969 
L 228.9116 50.487467 
L 229.513747 47.173851 
L 230.115894 44.483095 
L 230.718042 42.838744 
L 231.922336 41.044907 
L 233.126631 40.347304 
L 235.53522 40.023416 
L 236.739514 40.098159 
L 237.943809 40.123074 
L 238.545956 40.222732 
L 240.352398 40.023416 
L 241.556692 40.098159 
L 244.567429 40.147988 
L 245.169576 40.098159 
L 245.771723 40.197817 
L 246.37387 40.172903 
L 246.976018 40.297475 
L 247.578165 40.172903 
L 248.782459 40.471876 
L 249.384607 40.322389 
L 253.599637 40.471876 
L 254.201785 40.347304 
L 256.008226 40.49679 
L 257.212521 40.471876 
L 257.814668 40.646276 
L 258.416815 40.49679 
L 259.018963 40.546619 
L 260.223257 40.49679 
L 261.427552 40.49679 
L 267.449024 40.422047 
L 269.857613 40.297475 
L 272.86835 40.222732 
L 273.470497 40.172903 
L 275.276939 40.347304 
L 275.879086 40.222732 
L 276.481233 40.347304 
L 277.08338 40.247646 
L 278.287675 40.247646 
L 284.309147 40.49679 
L 284.911295 40.671191 
L 287.319884 40.646276 
L 287.922031 40.745934 
L 288.524178 40.72102 
L 289.728473 40.920335 
L 290.932767 40.920335 
L 291.534914 40.995078 
L 292.739209 40.970164 
L 293.341356 41.11965 
L 293.943503 41.094736 
L 294.545651 40.945249 
L 299.964976 41.11965 
L 303.577859 40.920335 
L 304.782154 40.920335 
L 305.384301 40.795763 
L 305.986448 40.845592 
L 306.588596 40.745934 
L 307.79289 40.945249 
L 308.997185 40.696105 
L 312.610068 40.770848 
L 313.814363 40.945249 
L 316.222952 41.219308 
L 318.631541 41.767425 
L 319.233688 42.215884 
L 319.835835 42.863659 
L 320.437983 43.910064 
L 321.04013 45.678987 
L 321.642277 48.892945 
L 322.244424 52.754678 
L 322.846572 57.637902 
L 323.448719 64.192882 
L 324.050866 72.454499 
L 325.255161 94.252114 
L 325.857308 108.961579 
L 326.459455 127.423154 
L 327.061602 153.40888 
L 327.66375 204.707643 
L 328.265897 291.783494 
L 380.652708 291.783494 
L 381.254855 256.454866 
L 381.857002 229.22342 
L 382.45915 211.882993 
L 383.061297 202.639748 
L 383.663444 291.783494 
L 386.67418 291.783494 
L 387.276328 159.612568 
L 387.878475 160.160685 
L 388.480622 153.40888 
L 389.684917 148.201769 
L 390.287064 168.681412 
L 390.889211 167.336034 
L 391.491359 158.591077 
L 392.093506 153.85734 
L 392.695653 150.493895 
L 393.2978 145.03764 
L 393.899948 126.102691 
L 395.104242 120.347463 
L 395.706389 118.080252 
L 396.308537 115.190181 
L 396.910684 121.618098 
L 397.512831 118.528711 
L 398.114978 114.143776 
L 398.717126 110.979646 
L 399.92142 102.548611 
L 400.523567 92.96653 
L 401.125715 90.113831 
L 402.932156 79.428042 
L 403.534304 79.866535 
L 404.738598 72.280098 
L 405.942893 65.154578 
L 406.54504 59.210001 
L 407.749334 53.751254 
L 408.853271 50.636953 
L 409.455418 52.306219 
L 410.057565 52.904164 
L 410.659713 54.498686 
L 412.265439 63.761863 
L 412.867586 70.125002 
L 413.971523 88.459514 
L 414.473312 101.322822 
L 414.975101 132.455865 
L 415.476891 173.98818 
L 416.079038 291.783494 
L 422.903374 291.783494 
L 423.304805 247.211621 
L 423.706237 291.783494 
L 425.41232 291.783494 
L 425.713394 217.762792 
L 426.014468 234.181386 
L 426.315541 202.639748 
L 426.616615 198.852758 
L 426.917689 291.783494 
L 428.222341 291.783494 
L 428.523415 175.68236 
L 428.72413 175.68236 
L 429.125562 166.01557 
L 429.326278 291.783494 
L 430.229499 291.783494 
L 430.329856 158.067874 
L 430.430214 166.663345 
L 430.731288 158.067874 
L 430.932004 291.783494 
L 431.333435 291.783494 
L 431.333435 152.985336 
L 431.433793 152.985336 
L 431.534151 149.322918 
L 431.734867 291.783494 
L 431.734867 291.783494 
L 431.835225 291.783494 
L 431.935582 137.06503 
L 431.935582 140.378646 
" clip-path="url(#p61ec8defe1)" style="fill: none; stroke: #1f77b4; stroke-width: 1.5; stroke-linecap: square"/>
   </g>
   <g id="line2d_30">
    <path d="M 70.64723 127.996186 
L 70.716597 127.323497 
L 70.700661 131.110487 
L 70.757423 130.612198 
L 70.811616 130.612198 
L 70.968375 127.323497 
L 71.018956 130.612198 
L 71.074654 129.167163 
L 71.135672 130.612198 
L 71.202209 127.996186 
L 71.274467 128.693789 
L 71.352746 127.771956 
L 71.437348 128.469559 
L 71.731095 127.323497 
L 71.843496 127.099267 
L 72.089373 129.391393 
L 72.224856 127.323497 
L 72.368368 128.918019 
L 72.680481 126.675722 
L 73.028723 128.220415 
L 73.41209 126.003033 
L 73.617823 127.099267 
L 73.832589 126.003033 
L 74.055384 127.099267 
L 74.530076 124.956628 
L 74.780971 126.003033 
L 75.039894 124.333768 
L 75.308853 126.003033 
L 75.586845 126.227263 
L 75.873868 127.323497 
L 76.16892 126.003033 
L 76.474008 125.803718 
L 76.788129 124.956628 
L 77.111281 125.155943 
L 77.442462 123.337192 
L 77.783679 123.735822 
L 78.133928 126.003033 
L 78.493209 123.735822 
L 78.860519 124.557998 
L 79.237864 124.557998 
L 79.624242 126.227263 
L 80.019652 124.956628 
L 80.423091 126.003033 
L 80.833554 124.333768 
L 81.255058 124.333768 
L 81.686596 126.451493 
L 82.128171 123.735822 
L 83.041428 125.579488 
L 83.503074 123.735822 
L 83.974756 123.735822 
L 84.456474 124.333768 
L 84.948227 125.380173 
L 85.439981 127.099267 
L 85.94177 123.935137 
L 86.975456 125.803718 
L 87.497317 125.803718 
L 88.019178 125.579488 
L 88.561111 125.155943 
L 89.103043 125.155943 
L 89.644976 125.380173 
L 90.196944 124.134453 
L 90.748913 124.956628 
L 91.310917 126.875037 
L 91.872921 124.333768 
L 92.444961 124.557998 
L 93.017001 125.155943 
L 93.58904 124.956628 
L 94.171116 125.803718 
L 94.753192 128.469559 
L 95.345303 125.155943 
L 95.927379 127.547726 
L 96.51949 127.099267 
L 97.111602 129.889681 
L 97.703713 128.220415 
L 98.305861 127.996186 
L 98.908008 127.323497 
L 99.500119 128.693789 
L 100.102267 127.547726 
L 100.704414 129.391393 
L 101.306561 126.675722 
L 101.908708 128.918019 
L 102.510856 130.612198 
L 103.71515 127.996186 
L 104.317297 129.640537 
L 104.919445 129.640537 
L 105.521592 128.918019 
L 106.123739 130.11391 
L 106.725886 129.640537 
L 107.328034 130.363054 
L 107.930181 130.612198 
L 108.532328 131.110487 
L 109.134475 130.612198 
L 109.736623 127.323497 
L 110.940917 129.889681 
L 111.543064 130.861342 
L 112.145212 128.469559 
L 112.747359 130.861342 
L 113.349506 130.861342 
L 113.951653 131.110487 
L 114.553801 129.889681 
L 115.155948 129.640537 
L 115.758095 133.452441 
L 116.360242 129.640537 
L 116.96239 130.861342 
L 117.564537 131.110487 
L 118.166684 131.110487 
L 118.768831 132.406036 
L 119.973126 132.929238 
L 120.575273 132.65518 
L 121.17742 134.000558 
L 121.779568 133.726499 
L 122.381715 135.121706 
L 122.983862 137.164687 
L 123.58601 139.705957 
L 124.188157 140.702533 
L 124.790304 141.02642 
L 125.392451 142.446542 
L 125.994599 150.07035 
L 126.596746 150.518809 
L 127.198893 153.40888 
L 127.80104 158.26719 
L 128.403188 160.683887 
L 129.005335 169.329186 
L 129.607482 170.151362 
L 130.209629 173.739036 
L 130.811777 196.012516 
L 131.413924 202.266032 
L 132.016071 287.099586 
L 215.062213 287.099586 
L 215.66436 235.352364 
L 216.266508 197.955839 
L 216.868655 181.138615 
L 217.470802 189.210883 
L 218.072949 170.151362 
L 218.675097 162.652125 
L 219.277244 156.57301 
L 219.879391 155.999979 
L 220.481538 146.233531 
L 221.083686 146.233531 
L 221.685833 145.43627 
L 222.28798 141.02642 
L 222.890127 140.702533 
L 223.492275 137.164687 
L 224.696569 135.395764 
L 225.298716 134.847648 
L 225.900864 133.452441 
L 226.503011 134.000558 
L 227.105158 134.000558 
L 227.707305 132.65518 
L 228.309453 133.726499 
L 228.9116 131.608775 
L 229.513747 134.548675 
L 230.115894 133.452441 
L 230.718042 130.363054 
L 231.320189 130.861342 
L 231.922336 131.110487 
L 233.126631 131.110487 
L 233.728778 132.406036 
L 234.330925 134.847648 
L 234.933073 132.406036 
L 235.53522 131.882833 
L 236.137367 133.726499 
L 236.739514 131.359631 
L 237.341662 133.726499 
L 237.943809 132.406036 
L 238.545956 133.452441 
L 239.148103 131.110487 
L 239.750251 133.452441 
L 240.352398 131.110487 
L 241.556692 131.110487 
L 242.15884 132.406036 
L 242.760987 131.110487 
L 243.363134 131.608775 
L 243.965281 131.110487 
L 244.567429 131.882833 
L 245.169576 131.110487 
L 245.771723 129.889681 
L 246.37387 132.406036 
L 246.976018 132.131977 
L 247.578165 130.612198 
L 248.180312 130.363054 
L 248.782459 129.640537 
L 249.384607 131.110487 
L 249.986754 127.996186 
L 250.588901 127.323497 
L 251.793196 127.323497 
L 252.395343 128.469559 
L 252.99749 127.323497 
L 253.599637 127.323497 
L 254.201785 128.918019 
L 254.803932 128.469559 
L 255.406079 130.612198 
L 256.008226 129.640537 
L 256.610374 129.889681 
L 257.212521 130.861342 
L 257.814668 128.693789 
L 258.416815 128.220415 
L 259.018963 127.099267 
L 259.62111 129.640537 
L 260.223257 130.11391 
L 260.825404 129.167163 
L 261.427552 127.099267 
L 262.029699 129.391393 
L 262.631846 129.640537 
L 263.233993 128.693789 
L 263.836141 127.323497 
L 264.438288 131.110487 
L 265.040435 129.640537 
L 265.642582 131.110487 
L 266.24473 131.110487 
L 266.846877 129.640537 
L 267.449024 130.11391 
L 268.051171 127.323497 
L 268.653319 127.547726 
L 269.255466 130.363054 
L 269.857613 127.323497 
L 270.45976 129.640537 
L 271.061908 129.167163 
L 271.664055 127.323497 
L 272.266202 129.640537 
L 272.86835 127.996186 
L 273.470497 129.640537 
L 274.072644 132.131977 
L 275.276939 131.110487 
L 276.481233 130.612198 
L 277.08338 127.323497 
L 277.685528 131.110487 
L 278.287675 129.640537 
L 278.889822 127.323497 
L 279.491969 128.918019 
L 280.094117 129.391393 
L 280.696264 127.323497 
L 281.298411 129.889681 
L 281.900558 129.640537 
L 282.502706 130.363054 
L 283.104853 129.889681 
L 283.707 131.110487 
L 284.309147 130.861342 
L 284.911295 131.110487 
L 285.513442 127.323497 
L 286.115589 129.391393 
L 286.717736 127.323497 
L 287.319884 128.693789 
L 287.922031 128.693789 
L 288.524178 128.469559 
L 289.126325 126.875037 
L 289.728473 128.469559 
L 290.33062 128.469559 
L 290.932767 129.889681 
L 291.534914 129.640537 
L 292.137062 130.11391 
L 292.739209 129.391393 
L 293.341356 128.918019 
L 293.943503 126.451493 
L 294.545651 129.391393 
L 295.749945 127.996186 
L 296.352092 126.675722 
L 296.95424 127.996186 
L 297.556387 128.469559 
L 298.158534 130.861342 
L 298.760681 132.131977 
L 299.362829 131.110487 
L 299.964976 132.929238 
L 300.567123 132.406036 
L 302.373565 129.889681 
L 303.577859 134.548675 
L 304.180007 135.395764 
L 304.782154 134.000558 
L 305.384301 138.410408 
L 305.986448 138.08652 
L 306.588596 146.233531 
L 307.190743 149.173431 
L 308.395037 155.999979 
L 308.997185 162.652125 
L 309.599332 159.463081 
L 310.201479 164.022418 
L 312.007921 197.955839 
L 312.610068 287.099586 
L 393.2978 287.099586 
L 393.899948 183.605141 
L 394.502095 194.16885 
L 395.104242 177.750256 
L 395.706389 168.507011 
L 396.308537 173.739036 
L 396.910684 287.099586 
L 399.92142 287.099586 
L 400.523567 175.68236 
L 401.125715 178.846489 
L 401.727862 173.739036 
L 402.330009 192.449755 
L 402.932156 194.16885 
L 403.534304 287.099586 
L 425.41232 287.099586 
L 425.713394 213.078884 
L 426.014468 200.048649 
L 426.315541 197.955839 
L 426.616615 235.352364 
L 426.917689 197.955839 
L 427.218762 287.099586 
L 428.222341 287.099586 
L 428.523415 167.70975 
L 428.72413 169.329186 
L 428.924846 162.652125 
L 429.326278 172.792289 
L 429.526993 287.099586 
L 430.229499 287.099586 
L 430.430214 152.412304 
L 430.63093 151.914016 
L 430.731288 153.907169 
L 430.831646 153.40888 
L 431.032362 287.099586 
L 431.333435 287.099586 
L 431.433793 145.43627 
L 431.534151 146.233531 
L 431.634509 143.517861 
L 431.634509 287.099586 
L 431.734867 287.099586 
L 431.835225 287.099586 
L 431.935582 127.996186 
L 431.935582 131.110487 
" clip-path="url(#p61ec8defe1)" style="fill: none; stroke: #ff7f0e; stroke-width: 1.5; stroke-linecap: square"/>
   </g>
   <g id="patch_3">
    <path d="M 52.582813 304.44375 
L 52.582813 25.918125 
" style="fill: none; stroke: #000000; stroke-width: 0.8; stroke-linejoin: miter; stroke-linecap: square"/>
   </g>
   <g id="patch_4">
    <path d="M 450 304.44375 
L 450 25.918125 
" style="fill: none; stroke: #000000; stroke-width: 0.8; stroke-linejoin: miter; stroke-linecap: square"/>
   </g>
   <g id="patch_5">
    <path d="M 52.582813 304.44375 
L 450 304.44375 
" style="fill: none; stroke: #000000; stroke-width: 0.8; stroke-linejoin: miter; stroke-linecap: square"/>
   </g>
   <g id="patch_6">
    <path d="M 52.582813 25.918125 
L 450 25.918125 
" style="fill: none; stroke: #000000; stroke-width: 0.8; stroke-linejoin: miter; stroke-linecap: square"/>
   </g>
   <g id="text_17">
    <!-- Side Wall Distance [mm] -->
    <g transform="translate(177.427656 19.918125)scale(0.12 -0.12)">
     <defs>
      <path id="DejaVuSans-53" d="M 3425 4513 
L 3425 3897 
Q 3066 4069 2747 4153 
Q 2428 4238 2131 4238 
Q 1616 4238 1336 4038 
Q 1056 3838 1056 3469 
Q 1056 3159 1242 3001 
Q 1428 2844 1947 2747 
L 2328 2669 
Q 3034 2534 3370 2195 
Q 3706 1856 3706 1288 
Q 3706 609 3251 259 
Q 2797 -91 1919 -91 
Q 1588 -91 1214 -16 
Q 841 59 441 206 
L 441 856 
Q 825 641 1194 531 
Q 1563 422 1919 422 
Q 2459 422 2753 634 
Q 3047 847 3047 1241 
Q 3047 1584 2836 1778 
Q 2625 1972 2144 2069 
L 1759 2144 
Q 1053 2284 737 2584 
Q 422 2884 422 3419 
Q 422 4038 858 4394 
Q 1294 4750 2059 4750 
Q 2388 4750 2728 4690 
Q 3069 4631 3425 4513 
z
" transform="scale(0.015625)"/>
      <path id="DejaVuSans-64" d="M 2906 2969 
L 2906 4863 
L 3481 4863 
L 3481 0 
L 2906 0 
L 2906 525 
Q 2725 213 2448 61 
Q 2172 -91 1784 -91 
Q 1150 -91 751 415 
Q 353 922 353 1747 
Q 353 2572 751 3078 
Q 1150 3584 1784 3584 
Q 2172 3584 2448 3432 
Q 2725 3281 2906 2969 
z
M 947 1747 
Q 947 1113 1208 752 
Q 1469 391 1925 391 
Q 2381 391 2643 752 
Q 2906 1113 2906 1747 
Q 2906 2381 2643 2742 
Q 2381 3103 1925 3103 
Q 1469 3103 1208 2742 
Q 947 2381 947 1747 
z
" transform="scale(0.015625)"/>
     </defs>
     <use xlink:href="#DejaVuSans-53"/>
     <use xlink:href="#DejaVuSans-69" x="63.476562"/>
     <use xlink:href="#DejaVuSans-64" x="91.259766"/>
     <use xlink:href="#DejaVuSans-65" x="154.736328"/>
     <use xlink:href="#DejaVuSans-20" x="216.259766"/>
     <use xlink:href="#DejaVuSans-57" x="248.046875"/>
     <use xlink:href="#DejaVuSans-61" x="340.548828"/>
     <use xlink:href="#DejaVuSans-6c" x="401.828125"/>
     <use xlink:href="#DejaVuSans-6c" x="429.611328"/>
     <use xlink:href="#DejaVuSans-20" x="457.394531"/>
     <use xlink:href="#DejaVuSans-44" x="489.181641"/>
     <use xlink:href="#DejaVuSans-69" x="566.183594"/>
     <use xlink:href="#DejaVuSans-73" x="593.966797"/>
     <use xlink:href="#DejaVuSans-74" x="646.066406"/>
     <use xlink:href="#DejaVuSans-61" x="685.275391"/>
     <use xlink:href="#DejaVuSans-6e" x="746.554688"/>
     <use xlink:href="#DejaVuSans-63" x="809.933594"/>
     <use xlink:href="#DejaVuSans-65" x="864.914062"/>
     <use xlink:href="#DejaVuSans-20" x="926.4375"/>
     <use xlink:href="#DejaVuSans-5b" x="958.224609"/>
     <use xlink:href="#DejaVuSans-6d" x="997.238281"/>
     <use xlink:href="#DejaVuSans-6d" x="1094.650391"/>
     <use xlink:href="#DejaVuSans-5d" x="1192.0625"/>
    </g>
   </g>
   <g id="legend_1">
    <g id="patch_7">
     <path d="M 59.582813 299.44375 
L 98.53125 299.44375 
Q 100.53125 299.44375 100.53125 297.44375 
L 100.53125 269.0875 
Q 100.53125 267.0875 98.53125 267.0875 
L 59.582813 267.0875 
Q 57.582813 267.0875 57.582813 269.0875 
L 57.582813 297.44375 
Q 57.582813 299.44375 59.582813 299.44375 
z
" style="fill: #ffffff; opacity: 0.8; stroke: #cccccc; stroke-linejoin: miter"/>
    </g>
    <g id="line2d_31">
     <path d="M 61.582813 275.185937 
L 71.582813 275.185937 
L 81.582813 275.185937 
" style="fill: none; stroke: #1f77b4; stroke-width: 1.5; stroke-linecap: square"/>
    </g>
    <g id="text_18">
     <!-- L -->
     <g transform="translate(89.582813 278.685937)scale(0.1 -0.1)">
      <defs>
       <path id="DejaVuSans-4c" d="M 628 4666 
L 1259 4666 
L 1259 531 
L 3531 531 
L 3531 0 
L 628 0 
L 628 4666 
z
" transform="scale(0.015625)"/>
      </defs>
      <use xlink:href="#DejaVuSans-4c"/>
     </g>
    </g>
    <g id="line2d_32">
     <path d="M 61.582813 289.864062 
L 71.582813 289.864062 
L 81.582813 289.864062 
" style="fill: none; stroke: #ff7f0e; stroke-width: 1.5; stroke-linecap: square"/>
    </g>
    <g id="text_19">
     <!-- R -->
     <g transform="translate(89.582813 293.364062)scale(0.1 -0.1)">
      <defs>
       <path id="DejaVuSans-52" d="M 2841 2188 
Q 3044 2119 3236 1894 
Q 3428 1669 3622 1275 
L 4263 0 
L 3584 0 
L 2988 1197 
Q 2756 1666 2539 1819 
Q 2322 1972 1947 1972 
L 1259 1972 
L 1259 0 
L 628 0 
L 628 4666 
L 2053 4666 
Q 2853 4666 3247 4331 
Q 3641 3997 3641 3322 
Q 3641 2881 3436 2590 
Q 3231 2300 2841 2188 
z
M 1259 4147 
L 1259 2491 
L 2053 2491 
Q 2509 2491 2742 2702 
Q 2975 2913 2975 3322 
Q 2975 3731 2742 3939 
Q 2509 4147 2053 4147 
L 1259 4147 
z
" transform="scale(0.015625)"/>
      </defs>
      <use xlink:href="#DejaVuSans-52"/>
     </g>
    </g>
   </g>
  </g>
 </g>
 <defs>
  <clipPath id="p61ec8defe1">
   <rect x="52.582813" y="25.918125" width="397.417187" height="278.525625"/>
  </clipPath>
 </defs>
</svg>
