<?xml version="1.0" encoding="utf-8" standalone="no"?>
<!DOCTYPE svg PUBLIC "-//W3C//DTD SVG 1.1//EN"
  "http://www.w3.org/Graphics/SVG/1.1/DTD/svg11.dtd">
<svg xmlns:xlink="http://www.w3.org/1999/xlink" width="460.8pt" height="345.6pt" viewBox="0 0 460.8 345.6" xmlns="http://www.w3.org/2000/svg" version="1.1">
 <metadata>
  <rdf:RDF xmlns:dc="http://purl.org/dc/elements/1.1/" xmlns:cc="http://creativecommons.org/ns#" xmlns:rdf="http://www.w3.org/1999/02/22-rdf-syntax-ns#">
   <cc:Work>
    <dc:type rdf:resource="http://purl.org/dc/dcmitype/StillImage"/>
    <dc:date>2022-01-15T23:47:02.938509</dc:date>
    <dc:format>image/svg+xml</dc:format>
    <dc:creator>
     <cc:Agent>
      <dc:title>Matplotlib v3.5.1, https://matplotlib.org/</dc:title>
     </cc:Agent>
    </dc:creator>
   </cc:Work>
  </rdf:RDF>
 </metadata>
 <defs>
  <style type="text/css">*{stroke-linejoin: round; stroke-linecap: butt}</style>
 </defs>
 <g id="figure_1">
  <g id="patch_1">
   <path d="M 0 345.6 
L 460.8 345.6 
L 460.8 0 
L 0 0 
z
" style="fill: #ffffff"/>
  </g>
  <g id="axes_1">
   <g id="patch_2">
    <path d="M 58.945313 161.67875 
L 450 161.67875 
L 450 48.331875 
L 58.945313 48.331875 
z
" style="fill: #ffffff"/>
   </g>
   <g id="matplotlib.axis_1">
    <g id="xtick_1">
     <g id="line2d_1">
      <path d="M 76.720526 161.67875 
L 76.720526 48.331875 
" clip-path="url(#pa2c2ac6326)" style="fill: none; stroke: #b0b0b0; stroke-width: 0.8; stroke-linecap: square"/>
     </g>
     <g id="line2d_2">
      <defs>
       <path id="m776454e4d4" d="M 0 0 
L 0 3.5 
" style="stroke: #000000; stroke-width: 0.8"/>
      </defs>
      <g>
       <use xlink:href="#m776454e4d4" x="76.720526" y="161.67875" style="stroke: #000000; stroke-width: 0.8"/>
      </g>
     </g>
    </g>
    <g id="xtick_2">
     <g id="line2d_3">
      <path d="M 126.096117 161.67875 
L 126.096117 48.331875 
" clip-path="url(#pa2c2ac6326)" style="fill: none; stroke: #b0b0b0; stroke-width: 0.8; stroke-linecap: square"/>
     </g>
     <g id="line2d_4">
      <g>
       <use xlink:href="#m776454e4d4" x="126.096117" y="161.67875" style="stroke: #000000; stroke-width: 0.8"/>
      </g>
     </g>
    </g>
    <g id="xtick_3">
     <g id="line2d_5">
      <path d="M 175.471709 161.67875 
L 175.471709 48.331875 
" clip-path="url(#pa2c2ac6326)" style="fill: none; stroke: #b0b0b0; stroke-width: 0.8; stroke-linecap: square"/>
     </g>
     <g id="line2d_6">
      <g>
       <use xlink:href="#m776454e4d4" x="175.471709" y="161.67875" style="stroke: #000000; stroke-width: 0.8"/>
      </g>
     </g>
    </g>
    <g id="xtick_4">
     <g id="line2d_7">
      <path d="M 224.847301 161.67875 
L 224.847301 48.331875 
" clip-path="url(#pa2c2ac6326)" style="fill: none; stroke: #b0b0b0; stroke-width: 0.8; stroke-linecap: square"/>
     </g>
     <g id="line2d_8">
      <g>
       <use xlink:href="#m776454e4d4" x="224.847301" y="161.67875" style="stroke: #000000; stroke-width: 0.8"/>
      </g>
     </g>
    </g>
    <g id="xtick_5">
     <g id="line2d_9">
      <path d="M 274.222893 161.67875 
L 274.222893 48.331875 
" clip-path="url(#pa2c2ac6326)" style="fill: none; stroke: #b0b0b0; stroke-width: 0.8; stroke-linecap: square"/>
     </g>
     <g id="line2d_10">
      <g>
       <use xlink:href="#m776454e4d4" x="274.222893" y="161.67875" style="stroke: #000000; stroke-width: 0.8"/>
      </g>
     </g>
    </g>
    <g id="xtick_6">
     <g id="line2d_11">
      <path d="M 323.598485 161.67875 
L 323.598485 48.331875 
" clip-path="url(#pa2c2ac6326)" style="fill: none; stroke: #b0b0b0; stroke-width: 0.8; stroke-linecap: square"/>
     </g>
     <g id="line2d_12">
      <g>
       <use xlink:href="#m776454e4d4" x="323.598485" y="161.67875" style="stroke: #000000; stroke-width: 0.8"/>
      </g>
     </g>
    </g>
    <g id="xtick_7">
     <g id="line2d_13">
      <path d="M 372.974077 161.67875 
L 372.974077 48.331875 
" clip-path="url(#pa2c2ac6326)" style="fill: none; stroke: #b0b0b0; stroke-width: 0.8; stroke-linecap: square"/>
     </g>
     <g id="line2d_14">
      <g>
       <use xlink:href="#m776454e4d4" x="372.974077" y="161.67875" style="stroke: #000000; stroke-width: 0.8"/>
      </g>
     </g>
    </g>
    <g id="xtick_8">
     <g id="line2d_15">
      <path d="M 422.349669 161.67875 
L 422.349669 48.331875 
" clip-path="url(#pa2c2ac6326)" style="fill: none; stroke: #b0b0b0; stroke-width: 0.8; stroke-linecap: square"/>
     </g>
     <g id="line2d_16">
      <g>
       <use xlink:href="#m776454e4d4" x="422.349669" y="161.67875" style="stroke: #000000; stroke-width: 0.8"/>
      </g>
     </g>
    </g>
   </g>
   <g id="matplotlib.axis_2">
    <g id="ytick_1">
     <g id="line2d_17">
      <path d="M 58.945313 156.56056 
L 450 156.56056 
" clip-path="url(#pa2c2ac6326)" style="fill: none; stroke: #b0b0b0; stroke-width: 0.8; stroke-linecap: square"/>
     </g>
     <g id="line2d_18">
      <defs>
       <path id="m50b1252398" d="M 0 0 
L -3.5 0 
" style="stroke: #000000; stroke-width: 0.8"/>
      </defs>
      <g>
       <use xlink:href="#m50b1252398" x="58.945313" y="156.56056" style="stroke: #000000; stroke-width: 0.8"/>
      </g>
     </g>
     <g id="text_1">
      <!-- 0 -->
      <g transform="translate(45.582813 160.359778)scale(0.1 -0.1)">
       <defs>
        <path id="DejaVuSans-30" d="M 2034 4250 
Q 1547 4250 1301 3770 
Q 1056 3291 1056 2328 
Q 1056 1369 1301 889 
Q 1547 409 2034 409 
Q 2525 409 2770 889 
Q 3016 1369 3016 2328 
Q 3016 3291 2770 3770 
Q 2525 4250 2034 4250 
z
M 2034 4750 
Q 2819 4750 3233 4129 
Q 3647 3509 3647 2328 
Q 3647 1150 3233 529 
Q 2819 -91 2034 -91 
Q 1250 -91 836 529 
Q 422 1150 422 2328 
Q 422 3509 836 4129 
Q 1250 4750 2034 4750 
z
" transform="scale(0.015625)"/>
       </defs>
       <use xlink:href="#DejaVuSans-30"/>
      </g>
     </g>
    </g>
    <g id="ytick_2">
     <g id="line2d_19">
      <path d="M 58.945313 122.620305 
L 450 122.620305 
" clip-path="url(#pa2c2ac6326)" style="fill: none; stroke: #b0b0b0; stroke-width: 0.8; stroke-linecap: square"/>
     </g>
     <g id="line2d_20">
      <g>
       <use xlink:href="#m50b1252398" x="58.945313" y="122.620305" style="stroke: #000000; stroke-width: 0.8"/>
      </g>
     </g>
     <g id="text_2">
      <!-- 1000 -->
      <g transform="translate(26.495313 126.419524)scale(0.1 -0.1)">
       <defs>
        <path id="DejaVuSans-31" d="M 794 531 
L 1825 531 
L 1825 4091 
L 703 3866 
L 703 4441 
L 1819 4666 
L 2450 4666 
L 2450 531 
L 3481 531 
L 3481 0 
L 794 0 
L 794 531 
z
" transform="scale(0.015625)"/>
       </defs>
       <use xlink:href="#DejaVuSans-31"/>
       <use xlink:href="#DejaVuSans-30" x="63.623047"/>
       <use xlink:href="#DejaVuSans-30" x="127.246094"/>
       <use xlink:href="#DejaVuSans-30" x="190.869141"/>
      </g>
     </g>
    </g>
    <g id="ytick_3">
     <g id="line2d_21">
      <path d="M 58.945313 88.68005 
L 450 88.68005 
" clip-path="url(#pa2c2ac6326)" style="fill: none; stroke: #b0b0b0; stroke-width: 0.8; stroke-linecap: square"/>
     </g>
     <g id="line2d_22">
      <g>
       <use xlink:href="#m50b1252398" x="58.945313" y="88.68005" style="stroke: #000000; stroke-width: 0.8"/>
      </g>
     </g>
     <g id="text_3">
      <!-- 2000 -->
      <g transform="translate(26.495313 92.479269)scale(0.1 -0.1)">
       <defs>
        <path id="DejaVuSans-32" d="M 1228 531 
L 3431 531 
L 3431 0 
L 469 0 
L 469 531 
Q 828 903 1448 1529 
Q 2069 2156 2228 2338 
Q 2531 2678 2651 2914 
Q 2772 3150 2772 3378 
Q 2772 3750 2511 3984 
Q 2250 4219 1831 4219 
Q 1534 4219 1204 4116 
Q 875 4013 500 3803 
L 500 4441 
Q 881 4594 1212 4672 
Q 1544 4750 1819 4750 
Q 2544 4750 2975 4387 
Q 3406 4025 3406 3419 
Q 3406 3131 3298 2873 
Q 3191 2616 2906 2266 
Q 2828 2175 2409 1742 
Q 1991 1309 1228 531 
z
" transform="scale(0.015625)"/>
       </defs>
       <use xlink:href="#DejaVuSans-32"/>
       <use xlink:href="#DejaVuSans-30" x="63.623047"/>
       <use xlink:href="#DejaVuSans-30" x="127.246094"/>
       <use xlink:href="#DejaVuSans-30" x="190.869141"/>
      </g>
     </g>
    </g>
    <g id="ytick_4">
     <g id="line2d_23">
      <path d="M 58.945313 54.739795 
L 450 54.739795 
" clip-path="url(#pa2c2ac6326)" style="fill: none; stroke: #b0b0b0; stroke-width: 0.8; stroke-linecap: square"/>
     </g>
     <g id="line2d_24">
      <g>
       <use xlink:href="#m50b1252398" x="58.945313" y="54.739795" style="stroke: #000000; stroke-width: 0.8"/>
      </g>
     </g>
     <g id="text_4">
      <!-- 3000 -->
      <g transform="translate(26.495313 58.539014)scale(0.1 -0.1)">
       <defs>
        <path id="DejaVuSans-33" d="M 2597 2516 
Q 3050 2419 3304 2112 
Q 3559 1806 3559 1356 
Q 3559 666 3084 287 
Q 2609 -91 1734 -91 
Q 1441 -91 1130 -33 
Q 819 25 488 141 
L 488 750 
Q 750 597 1062 519 
Q 1375 441 1716 441 
Q 2309 441 2620 675 
Q 2931 909 2931 1356 
Q 2931 1769 2642 2001 
Q 2353 2234 1838 2234 
L 1294 2234 
L 1294 2753 
L 1863 2753 
Q 2328 2753 2575 2939 
Q 2822 3125 2822 3475 
Q 2822 3834 2567 4026 
Q 2313 4219 1838 4219 
Q 1578 4219 1281 4162 
Q 984 4106 628 3988 
L 628 4550 
Q 988 4650 1302 4700 
Q 1616 4750 1894 4750 
Q 2613 4750 3031 4423 
Q 3450 4097 3450 3541 
Q 3450 3153 3228 2886 
Q 3006 2619 2597 2516 
z
" transform="scale(0.015625)"/>
       </defs>
       <use xlink:href="#DejaVuSans-33"/>
       <use xlink:href="#DejaVuSans-30" x="63.623047"/>
       <use xlink:href="#DejaVuSans-30" x="127.246094"/>
       <use xlink:href="#DejaVuSans-30" x="190.869141"/>
      </g>
     </g>
    </g>
    <g id="text_5">
     <!-- reflector value -->
     <g transform="translate(20.415625 141.321719)rotate(-90)scale(0.1 -0.1)">
      <defs>
       <path id="DejaVuSans-72" d="M 2631 2963 
Q 2534 3019 2420 3045 
Q 2306 3072 2169 3072 
Q 1681 3072 1420 2755 
Q 1159 2438 1159 1844 
L 1159 0 
L 581 0 
L 581 3500 
L 1159 3500 
L 1159 2956 
Q 1341 3275 1631 3429 
Q 1922 3584 2338 3584 
Q 2397 3584 2469 3576 
Q 2541 3569 2628 3553 
L 2631 2963 
z
" transform="scale(0.015625)"/>
       <path id="DejaVuSans-65" d="M 3597 1894 
L 3597 1613 
L 953 1613 
Q 991 1019 1311 708 
Q 1631 397 2203 397 
Q 2534 397 2845 478 
Q 3156 559 3463 722 
L 3463 178 
Q 3153 47 2828 -22 
Q 2503 -91 2169 -91 
Q 1331 -91 842 396 
Q 353 884 353 1716 
Q 353 2575 817 3079 
Q 1281 3584 2069 3584 
Q 2775 3584 3186 3129 
Q 3597 2675 3597 1894 
z
M 3022 2063 
Q 3016 2534 2758 2815 
Q 2500 3097 2075 3097 
Q 1594 3097 1305 2825 
Q 1016 2553 972 2059 
L 3022 2063 
z
" transform="scale(0.015625)"/>
       <path id="DejaVuSans-66" d="M 2375 4863 
L 2375 4384 
L 1825 4384 
Q 1516 4384 1395 4259 
Q 1275 4134 1275 3809 
L 1275 3500 
L 2222 3500 
L 2222 3053 
L 1275 3053 
L 1275 0 
L 697 0 
L 697 3053 
L 147 3053 
L 147 3500 
L 697 3500 
L 697 3744 
Q 697 4328 969 4595 
Q 1241 4863 1831 4863 
L 2375 4863 
z
" transform="scale(0.015625)"/>
       <path id="DejaVuSans-6c" d="M 603 4863 
L 1178 4863 
L 1178 0 
L 603 0 
L 603 4863 
z
" transform="scale(0.015625)"/>
       <path id="DejaVuSans-63" d="M 3122 3366 
L 3122 2828 
Q 2878 2963 2633 3030 
Q 2388 3097 2138 3097 
Q 1578 3097 1268 2742 
Q 959 2388 959 1747 
Q 959 1106 1268 751 
Q 1578 397 2138 397 
Q 2388 397 2633 464 
Q 2878 531 3122 666 
L 3122 134 
Q 2881 22 2623 -34 
Q 2366 -91 2075 -91 
Q 1284 -91 818 406 
Q 353 903 353 1747 
Q 353 2603 823 3093 
Q 1294 3584 2113 3584 
Q 2378 3584 2631 3529 
Q 2884 3475 3122 3366 
z
" transform="scale(0.015625)"/>
       <path id="DejaVuSans-74" d="M 1172 4494 
L 1172 3500 
L 2356 3500 
L 2356 3053 
L 1172 3053 
L 1172 1153 
Q 1172 725 1289 603 
Q 1406 481 1766 481 
L 2356 481 
L 2356 0 
L 1766 0 
Q 1100 0 847 248 
Q 594 497 594 1153 
L 594 3053 
L 172 3053 
L 172 3500 
L 594 3500 
L 594 4494 
L 1172 4494 
z
" transform="scale(0.015625)"/>
       <path id="DejaVuSans-6f" d="M 1959 3097 
Q 1497 3097 1228 2736 
Q 959 2375 959 1747 
Q 959 1119 1226 758 
Q 1494 397 1959 397 
Q 2419 397 2687 759 
Q 2956 1122 2956 1747 
Q 2956 2369 2687 2733 
Q 2419 3097 1959 3097 
z
M 1959 3584 
Q 2709 3584 3137 3096 
Q 3566 2609 3566 1747 
Q 3566 888 3137 398 
Q 2709 -91 1959 -91 
Q 1206 -91 779 398 
Q 353 888 353 1747 
Q 353 2609 779 3096 
Q 1206 3584 1959 3584 
z
" transform="scale(0.015625)"/>
       <path id="DejaVuSans-20" transform="scale(0.015625)"/>
       <path id="DejaVuSans-76" d="M 191 3500 
L 800 3500 
L 1894 563 
L 2988 3500 
L 3597 3500 
L 2284 0 
L 1503 0 
L 191 3500 
z
" transform="scale(0.015625)"/>
       <path id="DejaVuSans-61" d="M 2194 1759 
Q 1497 1759 1228 1600 
Q 959 1441 959 1056 
Q 959 750 1161 570 
Q 1363 391 1709 391 
Q 2188 391 2477 730 
Q 2766 1069 2766 1631 
L 2766 1759 
L 2194 1759 
z
M 3341 1997 
L 3341 0 
L 2766 0 
L 2766 531 
Q 2569 213 2275 61 
Q 1981 -91 1556 -91 
Q 1019 -91 701 211 
Q 384 513 384 1019 
Q 384 1609 779 1909 
Q 1175 2209 1959 2209 
L 2766 2209 
L 2766 2266 
Q 2766 2663 2505 2880 
Q 2244 3097 1772 3097 
Q 1472 3097 1187 3025 
Q 903 2953 641 2809 
L 641 3341 
Q 956 3463 1253 3523 
Q 1550 3584 1831 3584 
Q 2591 3584 2966 3190 
Q 3341 2797 3341 1997 
z
" transform="scale(0.015625)"/>
       <path id="DejaVuSans-75" d="M 544 1381 
L 544 3500 
L 1119 3500 
L 1119 1403 
Q 1119 906 1312 657 
Q 1506 409 1894 409 
Q 2359 409 2629 706 
Q 2900 1003 2900 1516 
L 2900 3500 
L 3475 3500 
L 3475 0 
L 2900 0 
L 2900 538 
Q 2691 219 2414 64 
Q 2138 -91 1772 -91 
Q 1169 -91 856 284 
Q 544 659 544 1381 
z
M 1991 3584 
L 1991 3584 
z
" transform="scale(0.015625)"/>
      </defs>
      <use xlink:href="#DejaVuSans-72"/>
      <use xlink:href="#DejaVuSans-65" x="38.863281"/>
      <use xlink:href="#DejaVuSans-66" x="100.386719"/>
      <use xlink:href="#DejaVuSans-6c" x="135.591797"/>
      <use xlink:href="#DejaVuSans-65" x="163.375"/>
      <use xlink:href="#DejaVuSans-63" x="224.898438"/>
      <use xlink:href="#DejaVuSans-74" x="279.878906"/>
      <use xlink:href="#DejaVuSans-6f" x="319.087891"/>
      <use xlink:href="#DejaVuSans-72" x="380.269531"/>
      <use xlink:href="#DejaVuSans-20" x="421.382812"/>
      <use xlink:href="#DejaVuSans-76" x="453.169922"/>
      <use xlink:href="#DejaVuSans-61" x="512.349609"/>
      <use xlink:href="#DejaVuSans-6c" x="573.628906"/>
      <use xlink:href="#DejaVuSans-75" x="601.412109"/>
      <use xlink:href="#DejaVuSans-65" x="664.791016"/>
     </g>
    </g>
   </g>
   <g id="line2d_25">
    <path d="M 76.720526 130.494444 
L 76.734074 130.392623 
L 76.720842 131.241129 
L 76.828954 130.494444 
L 76.85384 130.562324 
L 76.914572 130.528384 
L 76.991499 130.426563 
L 77.141107 131.34295 
L 77.201148 131.003548 
L 77.33772 131.478711 
L 77.497994 130.528384 
L 77.683942 130.562324 
L 77.89764 130.664145 
L 78.272894 130.765966 
L 78.563223 131.207189 
L 78.721225 131.037488 
L 79.063891 131.34295 
L 79.247568 131.071428 
L 79.441121 131.410831 
L 81.581059 132.429038 
L 81.863487 132.429038 
L 83.081089 133.379366 
L 83.742722 133.209664 
L 84.087364 133.209664 
L 84.440893 132.972082 
L 84.802322 133.039963 
L 85.173627 132.972082 
L 85.553819 133.107843 
L 85.942899 132.768441 
L 89.834683 132.70056 
L 90.308688 132.462979 
L 90.792569 132.59874 
L 91.27645 132.59874 
L 92.273837 132.293277 
L 92.787343 132.564799 
L 93.814355 131.682353 
L 94.347612 131.919935 
L 94.880868 131.750233 
L 95.957256 132.055696 
L 97.053394 132.123576 
L 98.169283 131.919935 
L 98.732164 133.277545 
L 99.295046 131.410831 
L 100.44056 131.071428 
L 101.023192 131.105368 
L 101.595949 130.969607 
L 102.178581 130.528384 
L 102.761213 130.833846 
L 103.343845 130.528384 
L 103.936352 130.833846 
L 105.703998 130.392623 
L 107.481519 130.494444 
L 108.074026 130.426563 
L 108.666533 130.188982 
L 109.259041 130.290802 
L 109.851548 130.188982 
L 110.444055 130.426563 
L 111.036562 130.155041 
L 112.221576 130.155041 
L 112.814083 130.01928 
L 113.40659 130.087161 
L 113.999097 129.98534 
L 114.591605 130.494444 
L 115.184112 130.664145 
L 115.776619 130.460504 
L 116.369126 131.037488 
L 116.961633 130.01928 
L 117.55414 129.9514 
L 118.739154 130.01928 
L 119.331661 129.9514 
L 123.479211 130.494444 
L 124.071718 130.969607 
L 124.664225 130.596265 
L 125.256732 130.901727 
L 125.849239 130.732026 
L 126.441747 130.969607 
L 128.811775 131.207189 
L 129.404282 131.105368 
L 129.996789 131.34295 
L 130.589296 131.987815 
L 131.77431 131.885994 
L 132.366818 132.564799 
L 132.959325 131.750233 
L 133.551832 131.546592 
L 135.329353 132.157516 
L 135.92186 132.63268 
L 136.514367 132.870262 
L 137.106874 133.243605 
L 138.291889 134.601215 
L 138.884396 135.178199 
L 139.476903 135.992765 
L 140.661917 138.131001 
L 141.846931 141.015923 
L 143.624453 145.326335 
L 145.994481 152.284087 
L 147.772002 156.017515 
L 148.364509 156.526619 
L 219.415986 156.526619 
L 220.008493 155.915695 
L 220.601 154.999308 
L 221.193507 154.558085 
L 221.786014 153.845339 
L 224.156043 149.433106 
L 225.341057 146.446364 
L 225.933564 145.156634 
L 227.118578 142.305653 
L 227.711085 140.812281 
L 230.673621 135.042438 
L 231.858635 133.684828 
L 232.451142 133.379366 
L 233.043649 133.209664 
L 233.636156 132.836321 
L 234.228664 133.209664 
L 234.821171 132.021755 
L 235.413678 131.614472 
L 236.006185 131.784174 
L 236.598692 131.648413 
L 237.191199 131.648413 
L 237.783706 131.919935 
L 238.376213 131.784174 
L 238.96872 132.021755 
L 239.561228 131.818114 
L 240.153735 131.987815 
L 240.746242 131.784174 
L 241.338749 131.885994 
L 241.931256 131.784174 
L 242.523763 132.496919 
L 243.11627 132.836321 
L 243.708777 132.66662 
L 244.301284 132.734501 
L 244.893791 133.92241 
L 245.486299 132.123576 
L 247.856327 132.361158 
L 248.448834 132.123576 
L 249.041341 132.327218 
L 249.633848 132.157516 
L 250.226355 132.259337 
L 251.41137 132.191457 
L 252.596384 132.836321 
L 253.188891 132.768441 
L 253.781398 132.836321 
L 254.373905 132.734501 
L 254.966412 133.209664 
L 255.558919 132.123576 
L 257.336441 132.089636 
L 259.706469 132.123576 
L 261.48399 132.123576 
L 262.076497 132.63268 
L 262.669004 133.854529 
L 263.261512 132.768441 
L 263.854019 132.734501 
L 264.446526 132.225397 
L 266.224047 131.818114 
L 266.816554 132.055696 
L 267.409061 132.021755 
L 268.001568 131.682353 
L 268.594076 131.885994 
L 269.186583 131.885994 
L 269.77909 132.021755 
L 270.371597 131.885994 
L 270.964104 132.734501 
L 271.556611 132.70056 
L 272.149118 132.530859 
L 272.741625 132.63268 
L 273.334132 133.718768 
L 273.926639 131.818114 
L 274.519147 131.852054 
L 275.111654 132.055696 
L 276.296668 131.885994 
L 276.889175 132.021755 
L 277.481682 131.919935 
L 278.074189 132.123576 
L 278.666696 132.055696 
L 279.259203 132.462979 
L 280.444218 132.938142 
L 281.036725 132.734501 
L 282.221739 133.006023 
L 282.814246 132.123576 
L 283.406753 132.293277 
L 283.99926 132.225397 
L 284.591767 132.327218 
L 285.184274 132.123576 
L 285.776781 132.327218 
L 286.369289 132.293277 
L 286.961796 132.462979 
L 287.554303 132.429038 
L 288.14681 133.243605 
L 288.739317 133.515127 
L 289.331824 133.243605 
L 289.924331 134.126051 
L 290.516838 133.107843 
L 291.109345 132.530859 
L 294.664388 132.361158 
L 295.256895 132.462979 
L 295.849402 132.70056 
L 296.441909 133.209664 
L 297.034416 133.515127 
L 297.626924 133.073903 
L 298.219431 133.141784 
L 299.404445 132.123576 
L 299.996952 132.327218 
L 300.589459 132.157516 
L 302.36698 132.293277 
L 302.959487 132.123576 
L 303.551995 132.123576 
L 304.144502 133.006023 
L 304.737009 133.209664 
L 305.329516 133.141784 
L 305.922023 133.481186 
L 306.51453 132.734501 
L 307.107037 132.191457 
L 307.699544 132.191457 
L 308.884558 132.462979 
L 309.477066 132.496919 
L 310.66208 132.870262 
L 311.847094 134.329693 
L 312.439601 134.669095 
L 313.032108 135.31396 
L 313.624615 135.721243 
L 314.217122 136.298227 
L 314.809629 136.366108 
L 315.402137 137.044913 
L 316.587151 138.979508 
L 318.364672 142.984458 
L 320.142193 148.754301 
L 320.734701 150.044031 
L 321.327208 151.673163 
L 321.919715 152.861072 
L 322.512222 153.539877 
L 323.104729 154.897487 
L 324.289743 156.526619 
L 383.540453 156.526619 
L 385.910482 155.949635 
L 386.502989 156.526619 
L 389.465524 156.526619 
L 390.058031 154.150801 
L 390.650539 153.845339 
L 391.835553 152.928952 
L 392.42806 152.725311 
L 393.020567 154.965368 
L 393.613074 154.931427 
L 394.205581 154.218682 
L 395.390595 153.505937 
L 395.983103 149.704628 
L 396.57561 148.957942 
L 397.760624 147.871854 
L 398.353131 147.091228 
L 398.945638 149.94221 
L 400.130652 148.65248 
L 401.315666 148.041556 
L 401.908174 143.900845 
L 402.500681 143.595382 
L 403.093188 143.459621 
L 404.278202 143.595382 
L 404.870709 147.837914 
L 406.64823 149.704628 
L 407.240737 151.062238 
L 407.833245 147.668213 
L 409.018259 150.044031 
L 410.104522 152.216207 
L 410.697029 156.526619 
L 412.869555 156.526619 
L 413.462062 155.678113 
L 414.548325 156.356918 
L 415.042081 156.356918 
L 416.029593 156.526619 
L 418.103368 156.526619 
L 418.597124 156.187217 
L 418.992128 156.051456 
L 420.374645 155.847814 
L 420.868401 156.526619 
L 422.547171 156.526619 
L 422.942176 155.508412 
L 423.33718 154.897487 
L 423.732185 154.761726 
L 424.423443 154.863547 
L 424.818448 156.526619 
L 426.102214 156.526619 
L 426.398467 154.150801 
L 426.694721 153.91322 
L 426.990974 153.91322 
L 427.287228 153.539877 
L 427.583481 154.116861 
L 427.879735 156.526619 
L 428.867247 156.526619 
L 429.064749 154.456264 
L 429.262251 153.675638 
L 429.459754 153.607757 
L 429.657256 152.928952 
L 429.854759 153.94716 
L 430.151012 156.526619 
L 430.644768 156.526619 
L 430.743519 154.150801 
L 431.138524 152.419848 
L 431.237275 153.709578 
L 431.434777 156.526619 
L 431.63228 156.526619 
L 431.63228 156.526619 
L 431.829782 152.827132 
L 431.829782 153.030773 
L 431.928533 152.216207 
L 432.027285 156.526619 
L 432.027285 156.526619 
L 432.126036 156.526619 
L 432.126036 156.526619 
L 432.224787 150.044031 
L 432.224787 151.164059 
" clip-path="url(#pa2c2ac6326)" style="fill: none; stroke: #1f77b4; stroke-width: 1.5; stroke-linecap: square"/>
   </g>
   <g id="line2d_26">
    <path d="M 76.720526 156.526619 
L 357.470141 156.526619 
L 358.062648 156.119336 
L 358.655155 156.221157 
L 359.247662 155.983575 
L 360.432676 156.017515 
L 361.025183 156.526619 
L 363.987719 156.526619 
L 364.580226 155.27083 
L 365.172733 155.202949 
L 365.76524 155.406591 
L 366.357747 154.965368 
L 366.950254 154.931427 
L 367.542762 156.526619 
L 369.91279 156.526619 
L 370.505297 155.678113 
L 371.097804 154.218682 
L 371.690311 154.320503 
L 372.282818 154.184742 
L 372.875326 154.320503 
L 373.467833 153.845339 
L 374.06034 156.526619 
L 376.430368 156.526619 
L 377.022875 154.558085 
L 377.615382 153.098654 
L 378.207889 152.793191 
L 379.985411 152.725311 
L 380.577918 156.526619 
L 382.947946 156.526619 
L 383.540453 152.759251 
L 384.13296 151.673163 
L 384.725468 151.605282 
L 385.317975 151.197999 
L 385.910482 151.062238 
L 386.502989 154.897487 
L 387.095496 156.458739 
L 387.688003 156.390858 
L 388.28051 156.051456 
L 388.873017 155.915695 
L 389.465524 155.949635 
L 390.058031 151.096179 
L 390.650539 149.704628 
L 391.835553 149.399166 
L 392.42806 148.890062 
L 393.020567 154.150801 
L 393.613074 154.829607 
L 394.798088 154.456264 
L 395.390595 154.320503 
L 395.983103 148.61854 
L 396.57561 147.32881 
L 397.168117 146.989408 
L 397.760624 146.955467 
L 398.353131 146.412423 
L 398.945638 152.691371 
L 399.538145 152.793191 
L 400.130652 152.759251 
L 400.723159 152.419848 
L 401.315666 152.216207 
L 401.908174 145.801499 
L 402.500681 144.308128 
L 403.093188 143.866904 
L 403.685695 143.866904 
L 404.278202 144.070546 
L 404.870709 150.485254 
L 405.463216 150.587075 
L 406.055723 150.145851 
L 406.64823 149.97615 
L 407.240737 149.534927 
L 407.833245 142.509294 
L 408.425752 141.117744 
L 409.512015 140.167416 
L 410.104522 139.31891 
L 410.697029 147.32881 
L 411.289536 147.159109 
L 412.375799 146.310603 
L 412.869555 145.90332 
L 413.462062 137.044913 
L 413.955818 136.943092 
L 415.535837 135.381841 
L 416.029593 143.28992 
L 416.6221 142.746876 
L 417.609612 141.457146 
L 418.103368 141.185624 
L 418.597124 131.173249 
L 418.992128 132.157516 
L 419.485884 130.698085 
L 419.97964 130.155041 
L 420.374645 129.238654 
L 420.868401 137.180674 
L 421.263406 136.535809 
L 421.757161 135.992765 
L 422.152166 135.31396 
L 422.547171 134.940617 
L 422.942176 123.740333 
L 423.33718 124.860362 
L 423.732185 123.197289 
L 424.12719 122.518484 
L 424.423443 121.771798 
L 424.818448 130.867787 
L 425.114702 129.068953 
L 425.80596 127.677403 
L 426.102214 126.693135 
L 426.398467 114.814046 
L 426.694721 116.069836 
L 427.583481 112.268527 
L 427.879735 120.482069 
L 428.570993 117.088043 
L 428.867247 115.866194 
L 429.064749 103.987105 
L 429.262251 104.122866 
L 429.854759 99.133648 
L 430.052261 107.754473 
L 430.348514 104.903492 
L 430.546017 103.715583 
L 430.644768 101.780988 
L 430.743519 90.0716 
L 430.941022 90.512824 
L 431.237275 86.338172 
L 431.336026 94.110491 
L 431.63228 89.223094 
L 431.731031 79.108898 
L 431.829782 81.111373 
L 431.829782 79.855584 
L 431.928533 79.550121 
L 431.928533 78.192511 
L 432.027285 82.706565 
L 432.027285 81.247134 
L 432.126036 79.041018 
L 432.224787 55.554361 
L 432.224787 64.548529 
" clip-path="url(#pa2c2ac6326)" style="fill: none; stroke: #ff7f0e; stroke-width: 1.5; stroke-linecap: square"/>
   </g>
   <g id="line2d_27">
    <path d="M 76.720526 156.526619 
L 376.430368 156.526619 
L 377.022875 155.644173 
L 378.800397 154.931427 
L 379.392904 154.931427 
L 379.985411 156.526619 
L 382.947946 156.526619 
L 383.540453 153.811399 
L 384.725468 153.539877 
L 385.317975 153.234415 
L 385.910482 153.132594 
L 386.502989 156.526619 
L 389.465524 156.526619 
L 390.058031 151.571342 
L 391.243046 151.23194 
L 391.835553 151.367701 
L 392.42806 150.688895 
L 393.020567 156.051456 
L 393.613074 155.949635 
L 394.205581 155.610232 
L 395.390595 155.372651 
L 395.983103 149.399166 
L 396.57561 149.161584 
L 397.168117 148.754301 
L 397.760624 148.924002 
L 398.353131 148.414898 
L 398.945638 154.048981 
L 399.538145 153.845339 
L 400.130652 153.336235 
L 401.315666 152.962893 
L 401.908174 146.955467 
L 402.500681 146.242722 
L 403.093188 145.869379 
L 403.685695 145.699678 
L 404.278202 145.326335 
L 404.870709 151.164059 
L 406.055723 150.553134 
L 406.64823 150.383433 
L 407.240737 150.044031 
L 407.833245 142.577175 
L 408.425752 142.102011 
L 409.018259 141.796549 
L 409.512015 141.049863 
L 410.104522 140.60864 
L 410.697029 147.430631 
L 411.289536 147.125169 
L 411.783292 146.616065 
L 412.375799 146.208782 
L 412.869555 145.631798 
L 413.462062 137.587957 
L 413.955818 136.63763 
L 415.042081 135.551542 
L 415.535837 138.436463 
L 416.029593 142.373533 
L 416.6221 141.898369 
L 417.115856 141.355325 
L 418.103368 140.031655 
L 418.597124 130.969607 
L 418.992128 131.105368 
L 419.97964 129.170774 
L 420.374645 134.703035 
L 420.868401 135.687303 
L 422.547171 132.802381 
L 422.942176 123.400931 
L 423.33718 122.654245 
L 423.732185 121.466336 
L 424.12719 120.787531 
L 424.423443 126.217972 
L 424.818448 126.727076 
L 425.114702 126.150091 
L 426.102214 123.061528 
L 426.398467 113.626137 
L 426.694721 112.166706 
L 426.990974 111.623662 
L 427.287228 110.707275 
L 427.583481 116.273477 
L 427.879735 115.866194 
L 428.867247 110.876977 
L 429.064749 100.830661 
L 429.459754 98.658485 
L 429.657256 97.300875 
L 429.854759 102.324032 
L 430.052261 102.222212 
L 430.348514 98.997887 
L 430.644768 97.131173 
L 430.743519 86.372113 
L 431.138524 82.468983 
L 431.237275 87.254559 
L 431.434777 85.489666 
L 431.63228 81.416835 
L 431.829782 74.560904 
L 431.829782 74.560904 
L 431.928533 73.746338 
L 431.928533 77.581587 
L 432.027285 74.628784 
L 432.126036 73.474816 
L 432.126036 73.474816 
L 432.224787 53.484006 
L 432.224787 60.305997 
" clip-path="url(#pa2c2ac6326)" style="fill: none; stroke: #2ca02c; stroke-width: 1.5; stroke-linecap: square"/>
   </g>
   <g id="line2d_28">
    <path d="M 76.720526 139.35285 
L 76.720842 138.707986 
L 76.788782 139.726193 
L 76.828954 139.556492 
L 76.991499 139.047388 
L 77.036529 139.726193 
L 77.0863 138.911627 
L 77.201148 139.217089 
L 77.26662 139.658313 
L 77.414746 138.809806 
L 77.58766 139.929835 
L 77.787038 138.640105 
L 78.015154 139.726193 
L 78.13958 138.538284 
L 78.272894 138.843747 
L 78.563223 138.606165 
L 78.721225 138.436463 
L 78.888114 138.640105 
L 79.063891 138.640105 
L 79.247568 138.402523 
L 79.441121 138.640105 
L 79.643561 138.300702 
L 79.854888 138.334643 
L 80.074116 138.063121 
L 80.303219 138.775866 
L 80.541209 138.334643 
L 80.788087 138.300702 
L 81.042865 137.554017 
L 81.307518 137.859479 
L 81.581059 137.554017 
L 81.863487 138.063121 
L 82.153816 137.486136 
L 82.454019 137.554017 
L 82.76311 137.757658 
L 83.081089 137.791599 
L 83.742722 137.044913 
L 84.087364 137.282495 
L 85.173627 137.112794 
L 85.553819 137.554017 
L 85.942899 137.010973 
L 86.339878 137.554017 
L 86.743771 137.486136 
L 87.158526 137.248555 
L 88.462041 137.350375 
L 88.916297 137.214614 
L 89.370552 137.452196 
L 90.308688 137.587957 
L 90.792569 137.418256 
L 91.27645 137.520077 
L 91.770206 137.791599 
L 92.273837 137.554017 
L 92.787343 137.723718 
L 93.300849 138.164941 
L 93.814355 138.063121 
L 94.347612 137.214614 
L 94.880868 137.99524 
L 95.414125 138.131001 
L 95.957256 138.470404 
L 96.500388 138.470404 
L 97.053394 138.266762 
L 97.606401 138.640105 
L 101.023192 138.741926 
L 101.595949 139.217089 
L 102.178581 139.217089 
L 102.761213 138.945567 
L 103.343845 139.35285 
L 103.936352 139.25103 
L 104.528859 139.386791 
L 105.111491 138.979508 
L 105.703998 139.35285 
L 106.296505 139.081328 
L 106.889012 139.726193 
L 107.481519 139.828014 
L 108.666533 139.386791 
L 109.259041 139.217089 
L 109.851548 139.386791 
L 110.444055 139.386791 
L 111.036562 139.726193 
L 112.221576 139.556492 
L 112.814083 139.488611 
L 113.40659 139.828014 
L 113.999097 139.522552 
L 115.776619 139.624372 
L 116.369126 140.031655 
L 116.961633 139.522552 
L 117.55414 139.658313 
L 118.739154 139.25103 
L 119.331661 140.269237 
L 119.924168 138.979508 
L 120.516676 139.25103 
L 121.109183 138.707986 
L 122.294197 138.911627 
L 122.886704 138.707986 
L 123.479211 138.809806 
L 124.071718 138.707986 
L 124.664225 138.775866 
L 125.256732 138.470404 
L 125.849239 138.877687 
L 126.441747 138.979508 
L 127.034254 138.470404 
L 127.626761 138.640105 
L 128.219268 138.538284 
L 128.811775 138.843747 
L 129.404282 138.300702 
L 129.996789 138.640105 
L 130.589296 138.606165 
L 131.181803 138.436463 
L 131.77431 138.640105 
L 132.959325 138.741926 
L 133.551832 138.843747 
L 134.144339 138.640105 
L 134.736846 139.35285 
L 135.329353 138.843747 
L 135.92186 138.979508 
L 136.514367 139.386791 
L 137.106874 139.556492 
L 139.476903 141.151684 
L 140.661917 142.203832 
L 143.031945 145.699678 
L 144.21696 147.736093 
L 144.809467 148.788241 
L 146.586988 152.793191 
L 147.179495 153.811399 
L 147.772002 155.406591 
L 148.957016 156.526619 
L 222.971029 156.526619 
L 223.563536 156.221157 
L 225.933564 153.064713 
L 227.118578 150.960418 
L 228.303593 149.025823 
L 229.488607 146.955467 
L 230.081114 146.242722 
L 231.858635 143.425681 
L 232.451142 142.950517 
L 233.043649 143.018398 
L 233.636156 141.898369 
L 234.821171 141.525027 
L 235.413678 141.219564 
L 236.006185 140.540759 
L 236.598692 140.472879 
L 237.191199 140.64258 
L 237.783706 140.5747 
L 238.376213 140.64258 
L 238.96872 140.371058 
L 239.561228 140.472879 
L 240.746242 140.438939 
L 241.338749 140.67652 
L 241.931256 140.065596 
L 242.523763 140.303178 
L 243.708777 140.303178 
L 244.301284 141.660788 
L 244.893791 140.235297 
L 245.486299 140.031655 
L 246.078806 140.506819 
L 246.671313 139.726193 
L 247.26382 139.726193 
L 247.856327 139.895894 
L 248.448834 139.726193 
L 249.041341 139.760133 
L 249.633848 139.386791 
L 251.41137 139.929835 
L 252.003877 140.303178 
L 253.188891 139.658313 
L 253.781398 140.133476 
L 254.373905 139.726193 
L 254.966412 139.760133 
L 256.151426 139.556492 
L 256.743933 139.522552 
L 257.336441 139.828014 
L 257.928948 139.590432 
L 259.706469 139.624372 
L 260.298976 139.35285 
L 260.891483 139.895894 
L 261.48399 139.35285 
L 262.669004 140.167416 
L 263.261512 139.726193 
L 264.446526 139.895894 
L 265.039033 139.386791 
L 265.63154 139.726193 
L 266.224047 140.269237 
L 266.816554 139.420731 
L 268.594076 139.522552 
L 269.77909 140.099536 
L 270.371597 139.386791 
L 270.964104 139.828014 
L 271.556611 139.624372 
L 272.741625 139.726193 
L 273.926639 139.624372 
L 274.519147 139.35285 
L 275.111654 139.760133 
L 275.704161 139.760133 
L 276.296668 139.556492 
L 276.889175 139.047388 
L 277.481682 139.25103 
L 278.074189 140.371058 
L 278.666696 139.25103 
L 279.259203 139.488611 
L 281.036725 139.556492 
L 281.629232 139.28497 
L 282.814246 139.31891 
L 283.406753 138.945567 
L 283.99926 139.726193 
L 284.591767 138.843747 
L 285.184274 138.877687 
L 285.776781 138.674045 
L 287.554303 138.572225 
L 288.14681 139.25103 
L 288.739317 139.386791 
L 289.331824 138.911627 
L 289.924331 138.809806 
L 290.516838 140.201357 
L 291.109345 138.572225 
L 292.886867 138.640105 
L 293.479374 138.402523 
L 295.256895 138.572225 
L 295.849402 138.843747 
L 296.441909 139.25103 
L 297.034416 138.877687 
L 297.626924 139.386791 
L 298.219431 139.28497 
L 298.811938 138.979508 
L 299.404445 138.538284 
L 299.996952 138.640105 
L 300.589459 139.013448 
L 301.181966 139.013448 
L 301.774473 139.25103 
L 302.36698 138.538284 
L 302.959487 138.640105 
L 303.551995 138.606165 
L 304.144502 139.556492 
L 305.329516 139.726193 
L 305.922023 139.217089 
L 306.51453 139.726193 
L 307.107037 138.979508 
L 308.292051 138.809806 
L 308.884558 139.522552 
L 309.477066 138.809806 
L 310.069573 139.522552 
L 310.66208 139.35285 
L 311.847094 140.099536 
L 312.439601 139.794074 
L 313.032108 140.031655 
L 313.624615 139.929835 
L 314.217122 140.404998 
L 314.809629 139.726193 
L 315.402137 139.828014 
L 317.179658 140.981983 
L 318.364672 142.475354 
L 319.549686 144.274187 
L 321.327208 146.819706 
L 321.919715 148.211257 
L 322.512222 148.347018 
L 323.104729 149.195524 
L 323.697236 150.247672 
L 324.88225 152.759251 
L 326.067264 154.897487 
L 326.659772 156.526619 
L 390.058031 156.526619 
L 392.42806 155.779934 
L 393.020567 156.526619 
L 395.390595 156.526619 
L 395.983103 154.048981 
L 396.57561 153.743518 
L 397.168117 153.234415 
L 397.760624 153.098654 
L 398.353131 152.65743 
L 398.945638 154.829607 
L 399.538145 154.693846 
L 400.130652 153.91322 
L 401.315666 152.827132 
L 401.908174 149.433106 
L 402.500681 148.924002 
L 403.685695 147.32881 
L 404.278202 146.785766 
L 404.870709 149.500987 
L 405.463216 149.127644 
L 406.055723 148.924002 
L 406.64823 148.414898 
L 407.240737 148.516719 
L 407.833245 144.64753 
L 408.425752 144.952992 
L 409.018259 144.817231 
L 410.104522 146.039081 
L 410.697029 150.111911 
L 412.375799 153.200474 
L 412.869555 154.388383 
L 413.462062 151.978625 
L 413.955818 152.58955 
L 414.548325 153.811399 
L 415.042081 154.218682 
L 415.535837 154.897487 
L 416.029593 156.526619 
L 418.103368 156.526619 
L 418.597124 156.255097 
L 419.485884 156.390858 
L 419.97964 156.153277 
L 420.374645 156.255097 
L 420.868401 156.526619 
L 422.547171 156.526619 
L 423.33718 155.576292 
L 423.732185 155.983575 
L 424.12719 155.372651 
L 424.423443 155.27083 
L 424.818448 156.526619 
L 426.102214 156.526619 
L 426.398467 154.558085 
L 426.694721 154.558085 
L 426.990974 154.863547 
L 427.287228 154.422324 
L 427.583481 154.252622 
L 427.879735 156.526619 
L 428.867247 156.526619 
L 429.064749 154.082921 
L 429.459754 153.845339 
L 429.657256 154.320503 
L 429.854759 153.845339 
L 430.151012 156.526619 
L 430.644768 156.526619 
L 430.743519 153.811399 
L 431.039773 154.048981 
L 431.237275 153.879279 
L 431.434777 156.526619 
L 431.63228 156.526619 
L 431.63228 156.526619 
L 431.731031 153.505937 
L 431.829782 153.539877 
L 431.829782 154.150801 
L 431.928533 153.743518 
L 432.126036 156.526619 
L 432.126036 156.526619 
L 432.224787 152.65743 
L 432.224787 153.505937 
" clip-path="url(#pa2c2ac6326)" style="fill: none; stroke: #d62728; stroke-width: 1.5; stroke-linecap: square"/>
   </g>
   <g id="patch_3">
    <path d="M 58.945313 161.67875 
L 58.945313 48.331875 
" style="fill: none; stroke: #000000; stroke-width: 0.8; stroke-linejoin: miter; stroke-linecap: square"/>
   </g>
   <g id="patch_4">
    <path d="M 450 161.67875 
L 450 48.331875 
" style="fill: none; stroke: #000000; stroke-width: 0.8; stroke-linejoin: miter; stroke-linecap: square"/>
   </g>
   <g id="patch_5">
    <path d="M 58.945313 161.67875 
L 450 161.67875 
" style="fill: none; stroke: #000000; stroke-width: 0.8; stroke-linejoin: miter; stroke-linecap: square"/>
   </g>
   <g id="patch_6">
    <path d="M 58.945313 48.331875 
L 450 48.331875 
" style="fill: none; stroke: #000000; stroke-width: 0.8; stroke-linejoin: miter; stroke-linecap: square"/>
   </g>
   <g id="text_6">
    <!-- Reflector Raw Value -->
    <g transform="translate(194.712656 42.331875)scale(0.12 -0.12)">
     <defs>
      <path id="DejaVuSans-52" d="M 2841 2188 
Q 3044 2119 3236 1894 
Q 3428 1669 3622 1275 
L 4263 0 
L 3584 0 
L 2988 1197 
Q 2756 1666 2539 1819 
Q 2322 1972 1947 1972 
L 1259 1972 
L 1259 0 
L 628 0 
L 628 4666 
L 2053 4666 
Q 2853 4666 3247 4331 
Q 3641 3997 3641 3322 
Q 3641 2881 3436 2590 
Q 3231 2300 2841 2188 
z
M 1259 4147 
L 1259 2491 
L 2053 2491 
Q 2509 2491 2742 2702 
Q 2975 2913 2975 3322 
Q 2975 3731 2742 3939 
Q 2509 4147 2053 4147 
L 1259 4147 
z
" transform="scale(0.015625)"/>
      <path id="DejaVuSans-77" d="M 269 3500 
L 844 3500 
L 1563 769 
L 2278 3500 
L 2956 3500 
L 3675 769 
L 4391 3500 
L 4966 3500 
L 4050 0 
L 3372 0 
L 2619 2869 
L 1863 0 
L 1184 0 
L 269 3500 
z
" transform="scale(0.015625)"/>
      <path id="DejaVuSans-56" d="M 1831 0 
L 50 4666 
L 709 4666 
L 2188 738 
L 3669 4666 
L 4325 4666 
L 2547 0 
L 1831 0 
z
" transform="scale(0.015625)"/>
     </defs>
     <use xlink:href="#DejaVuSans-52"/>
     <use xlink:href="#DejaVuSans-65" x="64.982422"/>
     <use xlink:href="#DejaVuSans-66" x="126.505859"/>
     <use xlink:href="#DejaVuSans-6c" x="161.710938"/>
     <use xlink:href="#DejaVuSans-65" x="189.494141"/>
     <use xlink:href="#DejaVuSans-63" x="251.017578"/>
     <use xlink:href="#DejaVuSans-74" x="305.998047"/>
     <use xlink:href="#DejaVuSans-6f" x="345.207031"/>
     <use xlink:href="#DejaVuSans-72" x="406.388672"/>
     <use xlink:href="#DejaVuSans-20" x="447.501953"/>
     <use xlink:href="#DejaVuSans-52" x="479.289062"/>
     <use xlink:href="#DejaVuSans-61" x="546.521484"/>
     <use xlink:href="#DejaVuSans-77" x="607.800781"/>
     <use xlink:href="#DejaVuSans-20" x="689.587891"/>
     <use xlink:href="#DejaVuSans-56" x="721.375"/>
     <use xlink:href="#DejaVuSans-61" x="782.033203"/>
     <use xlink:href="#DejaVuSans-6c" x="843.3125"/>
     <use xlink:href="#DejaVuSans-75" x="871.095703"/>
     <use xlink:href="#DejaVuSans-65" x="934.474609"/>
    </g>
   </g>
   <g id="legend_1">
    <g id="patch_7">
     <path d="M 65.945312 115.044375 
L 133.360938 115.044375 
Q 135.360938 115.044375 135.360938 113.044375 
L 135.360938 55.331875 
Q 135.360938 53.331875 133.360938 53.331875 
L 65.945312 53.331875 
Q 63.945312 53.331875 63.945312 55.331875 
L 63.945312 113.044375 
Q 63.945312 115.044375 65.945312 115.044375 
z
" style="fill: #ffffff; opacity: 0.8; stroke: #cccccc; stroke-linejoin: miter"/>
    </g>
    <g id="line2d_29">
     <path d="M 67.945312 61.430313 
L 77.945312 61.430313 
L 87.945312 61.430313 
" style="fill: none; stroke: #1f77b4; stroke-width: 1.5; stroke-linecap: square"/>
    </g>
    <g id="text_7">
     <!-- L Side -->
     <g transform="translate(95.945312 64.930313)scale(0.1 -0.1)">
      <defs>
       <path id="DejaVuSans-4c" d="M 628 4666 
L 1259 4666 
L 1259 531 
L 3531 531 
L 3531 0 
L 628 0 
L 628 4666 
z
" transform="scale(0.015625)"/>
       <path id="DejaVuSans-53" d="M 3425 4513 
L 3425 3897 
Q 3066 4069 2747 4153 
Q 2428 4238 2131 4238 
Q 1616 4238 1336 4038 
Q 1056 3838 1056 3469 
Q 1056 3159 1242 3001 
Q 1428 2844 1947 2747 
L 2328 2669 
Q 3034 2534 3370 2195 
Q 3706 1856 3706 1288 
Q 3706 609 3251 259 
Q 2797 -91 1919 -91 
Q 1588 -91 1214 -16 
Q 841 59 441 206 
L 441 856 
Q 825 641 1194 531 
Q 1563 422 1919 422 
Q 2459 422 2753 634 
Q 3047 847 3047 1241 
Q 3047 1584 2836 1778 
Q 2625 1972 2144 2069 
L 1759 2144 
Q 1053 2284 737 2584 
Q 422 2884 422 3419 
Q 422 4038 858 4394 
Q 1294 4750 2059 4750 
Q 2388 4750 2728 4690 
Q 3069 4631 3425 4513 
z
" transform="scale(0.015625)"/>
       <path id="DejaVuSans-69" d="M 603 3500 
L 1178 3500 
L 1178 0 
L 603 0 
L 603 3500 
z
M 603 4863 
L 1178 4863 
L 1178 4134 
L 603 4134 
L 603 4863 
z
" transform="scale(0.015625)"/>
       <path id="DejaVuSans-64" d="M 2906 2969 
L 2906 4863 
L 3481 4863 
L 3481 0 
L 2906 0 
L 2906 525 
Q 2725 213 2448 61 
Q 2172 -91 1784 -91 
Q 1150 -91 751 415 
Q 353 922 353 1747 
Q 353 2572 751 3078 
Q 1150 3584 1784 3584 
Q 2172 3584 2448 3432 
Q 2725 3281 2906 2969 
z
M 947 1747 
Q 947 1113 1208 752 
Q 1469 391 1925 391 
Q 2381 391 2643 752 
Q 2906 1113 2906 1747 
Q 2906 2381 2643 2742 
Q 2381 3103 1925 3103 
Q 1469 3103 1208 2742 
Q 947 2381 947 1747 
z
" transform="scale(0.015625)"/>
      </defs>
      <use xlink:href="#DejaVuSans-4c"/>
      <use xlink:href="#DejaVuSans-20" x="55.712891"/>
      <use xlink:href="#DejaVuSans-53" x="87.5"/>
      <use xlink:href="#DejaVuSans-69" x="150.976562"/>
      <use xlink:href="#DejaVuSans-64" x="178.759766"/>
      <use xlink:href="#DejaVuSans-65" x="242.236328"/>
     </g>
    </g>
    <g id="line2d_30">
     <path d="M 67.945312 76.108438 
L 77.945312 76.108438 
L 87.945312 76.108438 
" style="fill: none; stroke: #ff7f0e; stroke-width: 1.5; stroke-linecap: square"/>
    </g>
    <g id="text_8">
     <!-- L Front -->
     <g transform="translate(95.945312 79.608438)scale(0.1 -0.1)">
      <defs>
       <path id="DejaVuSans-46" d="M 628 4666 
L 3309 4666 
L 3309 4134 
L 1259 4134 
L 1259 2759 
L 3109 2759 
L 3109 2228 
L 1259 2228 
L 1259 0 
L 628 0 
L 628 4666 
z
" transform="scale(0.015625)"/>
       <path id="DejaVuSans-6e" d="M 3513 2113 
L 3513 0 
L 2938 0 
L 2938 2094 
Q 2938 2591 2744 2837 
Q 2550 3084 2163 3084 
Q 1697 3084 1428 2787 
Q 1159 2491 1159 1978 
L 1159 0 
L 581 0 
L 581 3500 
L 1159 3500 
L 1159 2956 
Q 1366 3272 1645 3428 
Q 1925 3584 2291 3584 
Q 2894 3584 3203 3211 
Q 3513 2838 3513 2113 
z
" transform="scale(0.015625)"/>
      </defs>
      <use xlink:href="#DejaVuSans-4c"/>
      <use xlink:href="#DejaVuSans-20" x="55.712891"/>
      <use xlink:href="#DejaVuSans-46" x="87.5"/>
      <use xlink:href="#DejaVuSans-72" x="137.769531"/>
      <use xlink:href="#DejaVuSans-6f" x="176.632812"/>
      <use xlink:href="#DejaVuSans-6e" x="237.814453"/>
      <use xlink:href="#DejaVuSans-74" x="301.193359"/>
     </g>
    </g>
    <g id="line2d_31">
     <path d="M 67.945312 90.786563 
L 77.945312 90.786563 
L 87.945312 90.786563 
" style="fill: none; stroke: #2ca02c; stroke-width: 1.5; stroke-linecap: square"/>
    </g>
    <g id="text_9">
     <!-- R Front -->
     <g transform="translate(95.945312 94.286563)scale(0.1 -0.1)">
      <use xlink:href="#DejaVuSans-52"/>
      <use xlink:href="#DejaVuSans-20" x="69.482422"/>
      <use xlink:href="#DejaVuSans-46" x="101.269531"/>
      <use xlink:href="#DejaVuSans-72" x="151.539062"/>
      <use xlink:href="#DejaVuSans-6f" x="190.402344"/>
      <use xlink:href="#DejaVuSans-6e" x="251.583984"/>
      <use xlink:href="#DejaVuSans-74" x="314.962891"/>
     </g>
    </g>
    <g id="line2d_32">
     <path d="M 67.945312 105.464688 
L 77.945312 105.464688 
L 87.945312 105.464688 
" style="fill: none; stroke: #d62728; stroke-width: 1.5; stroke-linecap: square"/>
    </g>
    <g id="text_10">
     <!-- R Side -->
     <g transform="translate(95.945312 108.964688)scale(0.1 -0.1)">
      <use xlink:href="#DejaVuSans-52"/>
      <use xlink:href="#DejaVuSans-20" x="69.482422"/>
      <use xlink:href="#DejaVuSans-53" x="101.269531"/>
      <use xlink:href="#DejaVuSans-69" x="164.746094"/>
      <use xlink:href="#DejaVuSans-64" x="192.529297"/>
      <use xlink:href="#DejaVuSans-65" x="256.005859"/>
     </g>
    </g>
   </g>
  </g>
  <g id="axes_2">
   <g id="patch_8">
    <path d="M 58.945313 304.44375 
L 450 304.44375 
L 450 191.096875 
L 58.945313 191.096875 
z
" style="fill: #ffffff"/>
   </g>
   <g id="matplotlib.axis_3">
    <g id="xtick_9">
     <g id="line2d_33">
      <path d="M 76.720526 304.44375 
L 76.720526 191.096875 
" clip-path="url(#p50ddb24fbb)" style="fill: none; stroke: #b0b0b0; stroke-width: 0.8; stroke-linecap: square"/>
     </g>
     <g id="line2d_34">
      <g>
       <use xlink:href="#m776454e4d4" x="76.720526" y="304.44375" style="stroke: #000000; stroke-width: 0.8"/>
      </g>
     </g>
     <g id="text_11">
      <!-- 0 -->
      <g transform="translate(73.539276 319.042187)scale(0.1 -0.1)">
       <use xlink:href="#DejaVuSans-30"/>
      </g>
     </g>
    </g>
    <g id="xtick_10">
     <g id="line2d_35">
      <path d="M 126.096117 304.44375 
L 126.096117 191.096875 
" clip-path="url(#p50ddb24fbb)" style="fill: none; stroke: #b0b0b0; stroke-width: 0.8; stroke-linecap: square"/>
     </g>
     <g id="line2d_36">
      <g>
       <use xlink:href="#m776454e4d4" x="126.096117" y="304.44375" style="stroke: #000000; stroke-width: 0.8"/>
      </g>
     </g>
     <g id="text_12">
      <!-- 50 -->
      <g transform="translate(119.733617 319.042187)scale(0.1 -0.1)">
       <defs>
        <path id="DejaVuSans-35" d="M 691 4666 
L 3169 4666 
L 3169 4134 
L 1269 4134 
L 1269 2991 
Q 1406 3038 1543 3061 
Q 1681 3084 1819 3084 
Q 2600 3084 3056 2656 
Q 3513 2228 3513 1497 
Q 3513 744 3044 326 
Q 2575 -91 1722 -91 
Q 1428 -91 1123 -41 
Q 819 9 494 109 
L 494 744 
Q 775 591 1075 516 
Q 1375 441 1709 441 
Q 2250 441 2565 725 
Q 2881 1009 2881 1497 
Q 2881 1984 2565 2268 
Q 2250 2553 1709 2553 
Q 1456 2553 1204 2497 
Q 953 2441 691 2322 
L 691 4666 
z
" transform="scale(0.015625)"/>
       </defs>
       <use xlink:href="#DejaVuSans-35"/>
       <use xlink:href="#DejaVuSans-30" x="63.623047"/>
      </g>
     </g>
    </g>
    <g id="xtick_11">
     <g id="line2d_37">
      <path d="M 175.471709 304.44375 
L 175.471709 191.096875 
" clip-path="url(#p50ddb24fbb)" style="fill: none; stroke: #b0b0b0; stroke-width: 0.8; stroke-linecap: square"/>
     </g>
     <g id="line2d_38">
      <g>
       <use xlink:href="#m776454e4d4" x="175.471709" y="304.44375" style="stroke: #000000; stroke-width: 0.8"/>
      </g>
     </g>
     <g id="text_13">
      <!-- 100 -->
      <g transform="translate(165.927959 319.042187)scale(0.1 -0.1)">
       <use xlink:href="#DejaVuSans-31"/>
       <use xlink:href="#DejaVuSans-30" x="63.623047"/>
       <use xlink:href="#DejaVuSans-30" x="127.246094"/>
      </g>
     </g>
    </g>
    <g id="xtick_12">
     <g id="line2d_39">
      <path d="M 224.847301 304.44375 
L 224.847301 191.096875 
" clip-path="url(#p50ddb24fbb)" style="fill: none; stroke: #b0b0b0; stroke-width: 0.8; stroke-linecap: square"/>
     </g>
     <g id="line2d_40">
      <g>
       <use xlink:href="#m776454e4d4" x="224.847301" y="304.44375" style="stroke: #000000; stroke-width: 0.8"/>
      </g>
     </g>
     <g id="text_14">
      <!-- 150 -->
      <g transform="translate(215.303551 319.042187)scale(0.1 -0.1)">
       <use xlink:href="#DejaVuSans-31"/>
       <use xlink:href="#DejaVuSans-35" x="63.623047"/>
       <use xlink:href="#DejaVuSans-30" x="127.246094"/>
      </g>
     </g>
    </g>
    <g id="xtick_13">
     <g id="line2d_41">
      <path d="M 274.222893 304.44375 
L 274.222893 191.096875 
" clip-path="url(#p50ddb24fbb)" style="fill: none; stroke: #b0b0b0; stroke-width: 0.8; stroke-linecap: square"/>
     </g>
     <g id="line2d_42">
      <g>
       <use xlink:href="#m776454e4d4" x="274.222893" y="304.44375" style="stroke: #000000; stroke-width: 0.8"/>
      </g>
     </g>
     <g id="text_15">
      <!-- 200 -->
      <g transform="translate(264.679143 319.042187)scale(0.1 -0.1)">
       <use xlink:href="#DejaVuSans-32"/>
       <use xlink:href="#DejaVuSans-30" x="63.623047"/>
       <use xlink:href="#DejaVuSans-30" x="127.246094"/>
      </g>
     </g>
    </g>
    <g id="xtick_14">
     <g id="line2d_43">
      <path d="M 323.598485 304.44375 
L 323.598485 191.096875 
" clip-path="url(#p50ddb24fbb)" style="fill: none; stroke: #b0b0b0; stroke-width: 0.8; stroke-linecap: square"/>
     </g>
     <g id="line2d_44">
      <g>
       <use xlink:href="#m776454e4d4" x="323.598485" y="304.44375" style="stroke: #000000; stroke-width: 0.8"/>
      </g>
     </g>
     <g id="text_16">
      <!-- 250 -->
      <g transform="translate(314.054735 319.042187)scale(0.1 -0.1)">
       <use xlink:href="#DejaVuSans-32"/>
       <use xlink:href="#DejaVuSans-35" x="63.623047"/>
       <use xlink:href="#DejaVuSans-30" x="127.246094"/>
      </g>
     </g>
    </g>
    <g id="xtick_15">
     <g id="line2d_45">
      <path d="M 372.974077 304.44375 
L 372.974077 191.096875 
" clip-path="url(#p50ddb24fbb)" style="fill: none; stroke: #b0b0b0; stroke-width: 0.8; stroke-linecap: square"/>
     </g>
     <g id="line2d_46">
      <g>
       <use xlink:href="#m776454e4d4" x="372.974077" y="304.44375" style="stroke: #000000; stroke-width: 0.8"/>
      </g>
     </g>
     <g id="text_17">
      <!-- 300 -->
      <g transform="translate(363.430327 319.042187)scale(0.1 -0.1)">
       <use xlink:href="#DejaVuSans-33"/>
       <use xlink:href="#DejaVuSans-30" x="63.623047"/>
       <use xlink:href="#DejaVuSans-30" x="127.246094"/>
      </g>
     </g>
    </g>
    <g id="xtick_16">
     <g id="line2d_47">
      <path d="M 422.349669 304.44375 
L 422.349669 191.096875 
" clip-path="url(#p50ddb24fbb)" style="fill: none; stroke: #b0b0b0; stroke-width: 0.8; stroke-linecap: square"/>
     </g>
     <g id="line2d_48">
      <g>
       <use xlink:href="#m776454e4d4" x="422.349669" y="304.44375" style="stroke: #000000; stroke-width: 0.8"/>
      </g>
     </g>
     <g id="text_18">
      <!-- 350 -->
      <g transform="translate(412.805919 319.042187)scale(0.1 -0.1)">
       <use xlink:href="#DejaVuSans-33"/>
       <use xlink:href="#DejaVuSans-35" x="63.623047"/>
       <use xlink:href="#DejaVuSans-30" x="127.246094"/>
      </g>
     </g>
    </g>
    <g id="text_19">
     <!-- Translational Position [mm] -->
     <g transform="translate(186.495312 332.720312)scale(0.1 -0.1)">
      <defs>
       <path id="DejaVuSans-54" d="M -19 4666 
L 3928 4666 
L 3928 4134 
L 2272 4134 
L 2272 0 
L 1638 0 
L 1638 4134 
L -19 4134 
L -19 4666 
z
" transform="scale(0.015625)"/>
       <path id="DejaVuSans-73" d="M 2834 3397 
L 2834 2853 
Q 2591 2978 2328 3040 
Q 2066 3103 1784 3103 
Q 1356 3103 1142 2972 
Q 928 2841 928 2578 
Q 928 2378 1081 2264 
Q 1234 2150 1697 2047 
L 1894 2003 
Q 2506 1872 2764 1633 
Q 3022 1394 3022 966 
Q 3022 478 2636 193 
Q 2250 -91 1575 -91 
Q 1294 -91 989 -36 
Q 684 19 347 128 
L 347 722 
Q 666 556 975 473 
Q 1284 391 1588 391 
Q 1994 391 2212 530 
Q 2431 669 2431 922 
Q 2431 1156 2273 1281 
Q 2116 1406 1581 1522 
L 1381 1569 
Q 847 1681 609 1914 
Q 372 2147 372 2553 
Q 372 3047 722 3315 
Q 1072 3584 1716 3584 
Q 2034 3584 2315 3537 
Q 2597 3491 2834 3397 
z
" transform="scale(0.015625)"/>
       <path id="DejaVuSans-50" d="M 1259 4147 
L 1259 2394 
L 2053 2394 
Q 2494 2394 2734 2622 
Q 2975 2850 2975 3272 
Q 2975 3691 2734 3919 
Q 2494 4147 2053 4147 
L 1259 4147 
z
M 628 4666 
L 2053 4666 
Q 2838 4666 3239 4311 
Q 3641 3956 3641 3272 
Q 3641 2581 3239 2228 
Q 2838 1875 2053 1875 
L 1259 1875 
L 1259 0 
L 628 0 
L 628 4666 
z
" transform="scale(0.015625)"/>
       <path id="DejaVuSans-5b" d="M 550 4863 
L 1875 4863 
L 1875 4416 
L 1125 4416 
L 1125 -397 
L 1875 -397 
L 1875 -844 
L 550 -844 
L 550 4863 
z
" transform="scale(0.015625)"/>
       <path id="DejaVuSans-6d" d="M 3328 2828 
Q 3544 3216 3844 3400 
Q 4144 3584 4550 3584 
Q 5097 3584 5394 3201 
Q 5691 2819 5691 2113 
L 5691 0 
L 5113 0 
L 5113 2094 
Q 5113 2597 4934 2840 
Q 4756 3084 4391 3084 
Q 3944 3084 3684 2787 
Q 3425 2491 3425 1978 
L 3425 0 
L 2847 0 
L 2847 2094 
Q 2847 2600 2669 2842 
Q 2491 3084 2119 3084 
Q 1678 3084 1418 2786 
Q 1159 2488 1159 1978 
L 1159 0 
L 581 0 
L 581 3500 
L 1159 3500 
L 1159 2956 
Q 1356 3278 1631 3431 
Q 1906 3584 2284 3584 
Q 2666 3584 2933 3390 
Q 3200 3197 3328 2828 
z
" transform="scale(0.015625)"/>
       <path id="DejaVuSans-5d" d="M 1947 4863 
L 1947 -844 
L 622 -844 
L 622 -397 
L 1369 -397 
L 1369 4416 
L 622 4416 
L 622 4863 
L 1947 4863 
z
" transform="scale(0.015625)"/>
      </defs>
      <use xlink:href="#DejaVuSans-54"/>
      <use xlink:href="#DejaVuSans-72" x="46.333984"/>
      <use xlink:href="#DejaVuSans-61" x="87.447266"/>
      <use xlink:href="#DejaVuSans-6e" x="148.726562"/>
      <use xlink:href="#DejaVuSans-73" x="212.105469"/>
      <use xlink:href="#DejaVuSans-6c" x="264.205078"/>
      <use xlink:href="#DejaVuSans-61" x="291.988281"/>
      <use xlink:href="#DejaVuSans-74" x="353.267578"/>
      <use xlink:href="#DejaVuSans-69" x="392.476562"/>
      <use xlink:href="#DejaVuSans-6f" x="420.259766"/>
      <use xlink:href="#DejaVuSans-6e" x="481.441406"/>
      <use xlink:href="#DejaVuSans-61" x="544.820312"/>
      <use xlink:href="#DejaVuSans-6c" x="606.099609"/>
      <use xlink:href="#DejaVuSans-20" x="633.882812"/>
      <use xlink:href="#DejaVuSans-50" x="665.669922"/>
      <use xlink:href="#DejaVuSans-6f" x="722.347656"/>
      <use xlink:href="#DejaVuSans-73" x="783.529297"/>
      <use xlink:href="#DejaVuSans-69" x="835.628906"/>
      <use xlink:href="#DejaVuSans-74" x="863.412109"/>
      <use xlink:href="#DejaVuSans-69" x="902.621094"/>
      <use xlink:href="#DejaVuSans-6f" x="930.404297"/>
      <use xlink:href="#DejaVuSans-6e" x="991.585938"/>
      <use xlink:href="#DejaVuSans-20" x="1054.964844"/>
      <use xlink:href="#DejaVuSans-5b" x="1086.751953"/>
      <use xlink:href="#DejaVuSans-6d" x="1125.765625"/>
      <use xlink:href="#DejaVuSans-6d" x="1223.177734"/>
      <use xlink:href="#DejaVuSans-5d" x="1320.589844"/>
     </g>
    </g>
   </g>
   <g id="matplotlib.axis_4">
    <g id="ytick_5">
     <g id="line2d_49">
      <path d="M 58.945313 294.763629 
L 450 294.763629 
" clip-path="url(#p50ddb24fbb)" style="fill: none; stroke: #b0b0b0; stroke-width: 0.8; stroke-linecap: square"/>
     </g>
     <g id="line2d_50">
      <g>
       <use xlink:href="#m50b1252398" x="58.945313" y="294.763629" style="stroke: #000000; stroke-width: 0.8"/>
      </g>
     </g>
     <g id="text_20">
      <!-- 100 -->
      <g transform="translate(24.478125 298.562848)scale(0.1 -0.1)">
       <defs>
        <path id="DejaVuSans-2212" d="M 678 2272 
L 4684 2272 
L 4684 1741 
L 678 1741 
L 678 2272 
z
" transform="scale(0.015625)"/>
       </defs>
       <use xlink:href="#DejaVuSans-2212"/>
       <use xlink:href="#DejaVuSans-31" x="83.789062"/>
       <use xlink:href="#DejaVuSans-30" x="147.412109"/>
       <use xlink:href="#DejaVuSans-30" x="211.035156"/>
      </g>
     </g>
    </g>
    <g id="ytick_6">
     <g id="line2d_51">
      <path d="M 58.945313 270.678573 
L 450 270.678573 
" clip-path="url(#p50ddb24fbb)" style="fill: none; stroke: #b0b0b0; stroke-width: 0.8; stroke-linecap: square"/>
     </g>
     <g id="line2d_52">
      <g>
       <use xlink:href="#m50b1252398" x="58.945313" y="270.678573" style="stroke: #000000; stroke-width: 0.8"/>
      </g>
     </g>
     <g id="text_21">
      <!-- 75 -->
      <g transform="translate(30.840625 274.477791)scale(0.1 -0.1)">
       <defs>
        <path id="DejaVuSans-37" d="M 525 4666 
L 3525 4666 
L 3525 4397 
L 1831 0 
L 1172 0 
L 2766 4134 
L 525 4134 
L 525 4666 
z
" transform="scale(0.015625)"/>
       </defs>
       <use xlink:href="#DejaVuSans-2212"/>
       <use xlink:href="#DejaVuSans-37" x="83.789062"/>
       <use xlink:href="#DejaVuSans-35" x="147.412109"/>
      </g>
     </g>
    </g>
    <g id="ytick_7">
     <g id="line2d_53">
      <path d="M 58.945313 246.593517 
L 450 246.593517 
" clip-path="url(#p50ddb24fbb)" style="fill: none; stroke: #b0b0b0; stroke-width: 0.8; stroke-linecap: square"/>
     </g>
     <g id="line2d_54">
      <g>
       <use xlink:href="#m50b1252398" x="58.945313" y="246.593517" style="stroke: #000000; stroke-width: 0.8"/>
      </g>
     </g>
     <g id="text_22">
      <!-- 50 -->
      <g transform="translate(30.840625 250.392735)scale(0.1 -0.1)">
       <use xlink:href="#DejaVuSans-2212"/>
       <use xlink:href="#DejaVuSans-35" x="83.789062"/>
       <use xlink:href="#DejaVuSans-30" x="147.412109"/>
      </g>
     </g>
    </g>
    <g id="ytick_8">
     <g id="line2d_55">
      <path d="M 58.945313 222.508461 
L 450 222.508461 
" clip-path="url(#p50ddb24fbb)" style="fill: none; stroke: #b0b0b0; stroke-width: 0.8; stroke-linecap: square"/>
     </g>
     <g id="line2d_56">
      <g>
       <use xlink:href="#m50b1252398" x="58.945313" y="222.508461" style="stroke: #000000; stroke-width: 0.8"/>
      </g>
     </g>
     <g id="text_23">
      <!-- 25 -->
      <g transform="translate(30.840625 226.307679)scale(0.1 -0.1)">
       <use xlink:href="#DejaVuSans-2212"/>
       <use xlink:href="#DejaVuSans-32" x="83.789062"/>
       <use xlink:href="#DejaVuSans-35" x="147.412109"/>
      </g>
     </g>
    </g>
    <g id="ytick_9">
     <g id="line2d_57">
      <path d="M 58.945313 198.423405 
L 450 198.423405 
" clip-path="url(#p50ddb24fbb)" style="fill: none; stroke: #b0b0b0; stroke-width: 0.8; stroke-linecap: square"/>
     </g>
     <g id="line2d_58">
      <g>
       <use xlink:href="#m50b1252398" x="58.945313" y="198.423405" style="stroke: #000000; stroke-width: 0.8"/>
      </g>
     </g>
     <g id="text_24">
      <!-- 0 -->
      <g transform="translate(45.582813 202.222623)scale(0.1 -0.1)">
       <use xlink:href="#DejaVuSans-30"/>
      </g>
     </g>
    </g>
    <g id="text_25">
     <!-- wall distance [mm] -->
     <g transform="translate(18.398438 295.708594)rotate(-90)scale(0.1 -0.1)">
      <use xlink:href="#DejaVuSans-77"/>
      <use xlink:href="#DejaVuSans-61" x="81.787109"/>
      <use xlink:href="#DejaVuSans-6c" x="143.066406"/>
      <use xlink:href="#DejaVuSans-6c" x="170.849609"/>
      <use xlink:href="#DejaVuSans-20" x="198.632812"/>
      <use xlink:href="#DejaVuSans-64" x="230.419922"/>
      <use xlink:href="#DejaVuSans-69" x="293.896484"/>
      <use xlink:href="#DejaVuSans-73" x="321.679688"/>
      <use xlink:href="#DejaVuSans-74" x="373.779297"/>
      <use xlink:href="#DejaVuSans-61" x="412.988281"/>
      <use xlink:href="#DejaVuSans-6e" x="474.267578"/>
      <use xlink:href="#DejaVuSans-63" x="537.646484"/>
      <use xlink:href="#DejaVuSans-65" x="592.626953"/>
      <use xlink:href="#DejaVuSans-20" x="654.150391"/>
      <use xlink:href="#DejaVuSans-5b" x="685.9375"/>
      <use xlink:href="#DejaVuSans-6d" x="724.951172"/>
      <use xlink:href="#DejaVuSans-6d" x="822.363281"/>
      <use xlink:href="#DejaVuSans-5d" x="919.775391"/>
     </g>
    </g>
   </g>
   <g id="line2d_59">
    <path d="M 76.720526 196.505271 
L 76.720842 196.473478 
L 76.721592 196.866547 
L 76.74075 196.457101 
L 76.828954 196.505271 
L 77.036529 196.473478 
L 77.201148 196.916643 
L 77.26662 196.750938 
L 77.414746 196.984082 
L 77.58766 196.521649 
L 78.272894 196.602574 
L 78.563223 196.750938 
L 78.721225 196.850169 
L 78.888114 196.767316 
L 79.247568 196.916643 
L 79.441121 196.783694 
L 79.854888 197.000459 
L 82.76311 197.675804 
L 83.406968 197.963669 
L 85.173627 197.782935 
L 88.017661 197.604898 
L 90.308688 197.604898 
L 90.792569 197.481679 
L 91.770206 197.551911 
L 92.787343 197.394491 
L 93.300849 197.534281 
L 94.347612 197.085239 
L 94.880868 197.204701 
L 95.414125 197.118958 
L 97.053394 197.307785 
L 98.732164 197.204701 
L 99.295046 197.90914 
L 99.867803 196.950363 
L 101.595949 196.800072 
L 102.178581 196.73456 
L 102.761213 196.521649 
L 103.343845 196.668086 
L 103.936352 196.521649 
L 104.528859 196.668086 
L 106.889012 196.488893 
L 108.666533 196.473478 
L 109.259041 196.36076 
L 111.036562 196.473478 
L 111.629069 196.344383 
L 114.591605 196.265384 
L 115.184112 196.505271 
L 115.776619 196.58716 
L 116.369126 196.488893 
L 116.961633 196.767316 
L 117.55414 196.280798 
L 119.924168 196.249006 
L 124.071718 196.505271 
L 124.664225 196.73456 
L 125.256732 196.554404 
L 125.849239 196.700841 
L 126.441747 196.618952 
L 127.626761 196.767316 
L 129.996789 196.800072 
L 130.589296 196.916643 
L 131.181803 197.239383 
L 132.366818 197.187359 
L 132.959325 197.534281 
L 133.551832 197.118958 
L 134.144339 197.017801 
L 135.92186 197.325126 
L 136.514367 197.569541 
L 137.699382 197.891028 
L 140.06941 199.450391 
L 141.254424 200.815532 
L 143.031945 204.067978 
L 143.624453 205.35123 
L 144.21696 206.968782 
L 145.401974 211.708721 
L 146.586988 218.972774 
L 147.179495 223.577837 
L 147.772002 230.976766 
L 148.364509 244.628176 
L 148.957016 279.098708 
L 220.008493 279.098708 
L 220.601 242.489423 
L 221.193507 231.497004 
L 221.786014 228.404482 
L 223.563536 217.402429 
L 225.341057 210.167278 
L 225.933564 208.269375 
L 227.711085 204.008247 
L 228.303593 202.769312 
L 230.081114 200.146931 
L 231.266128 198.889113 
L 232.451142 198.128507 
L 234.228664 197.675804 
L 234.821171 197.873013 
L 235.413678 197.255761 
L 236.006185 197.05152 
L 236.598692 197.136299 
L 237.783706 197.068861 
L 238.376213 197.204701 
L 238.96872 197.136299 
L 239.561228 197.255761 
L 240.153735 197.15364 
L 240.746242 197.239383 
L 241.338749 197.136299 
L 242.523763 197.136299 
L 243.11627 197.499213 
L 243.708777 197.675804 
L 244.301284 197.587171 
L 244.893791 197.622528 
L 245.486299 198.258277 
L 246.078806 197.307785 
L 250.818862 197.37715 
L 252.003877 197.342467 
L 253.188891 197.675804 
L 254.966412 197.622528 
L 255.558919 197.873013 
L 256.151426 197.307785 
L 259.706469 197.307785 
L 262.076497 197.307785 
L 262.669004 197.569541 
L 263.261512 198.22109 
L 263.854019 197.640255 
L 264.446526 197.622528 
L 265.039033 197.359808 
L 266.816554 197.15364 
L 267.409061 197.273102 
L 268.001568 197.255761 
L 268.594076 197.085239 
L 269.77909 197.187359 
L 270.371597 197.255761 
L 270.964104 197.187359 
L 271.556611 197.622528 
L 273.334132 197.569541 
L 273.926639 198.147004 
L 274.519147 197.15364 
L 279.259203 197.273102 
L 280.444218 197.587171 
L 281.036725 197.729273 
L 281.629232 197.622528 
L 282.814246 197.765015 
L 283.406753 197.307785 
L 283.99926 197.394491 
L 285.776781 197.307785 
L 286.369289 197.411832 
L 288.14681 197.464145 
L 288.739317 197.891028 
L 289.331824 198.036695 
L 289.924331 197.891028 
L 290.516838 198.370649 
L 291.109345 197.81887 
L 291.701853 197.516747 
L 295.849402 197.481679 
L 296.441909 197.604898 
L 297.626924 198.036695 
L 298.219431 197.800854 
L 298.811938 197.836885 
L 299.996952 197.307785 
L 300.589459 197.411832 
L 301.774473 197.342467 
L 304.144502 197.307785 
L 304.737009 197.765015 
L 305.329516 197.873013 
L 305.922023 197.836885 
L 306.51453 198.01839 
L 307.699544 197.342467 
L 308.884558 197.429173 
L 311.254587 197.693627 
L 313.624615 199.046918 
L 315.994644 200.103578 
L 317.179658 201.401281 
L 318.957179 204.615191 
L 320.142193 208.963025 
L 321.327208 213.7415 
L 322.512222 220.774337 
L 323.104729 223.29845 
L 323.697236 230.716648 
L 324.289743 240.668593 
L 324.88225 279.098708 
L 384.13296 279.098708 
L 384.725468 256.824848 
L 385.910482 244.628176 
L 386.502989 243.163805 
L 387.095496 279.098708 
L 390.058031 279.098708 
L 390.650539 226.101951 
L 391.243046 224.618312 
L 392.42806 221.005553 
L 393.020567 220.331172 
L 393.613074 231.236885 
L 394.205581 230.976766 
L 394.798088 226.45841 
L 395.390595 224.618312 
L 395.983103 223.15394 
L 396.57561 213.105655 
L 397.168117 211.82433 
L 398.945638 209.097901 
L 399.538145 213.54882 
L 400.723159 211.332995 
L 401.908174 210.408128 
L 402.500681 205.483216 
L 403.093188 205.187452 
L 403.685695 205.057392 
L 404.870709 205.187452 
L 405.463216 210.109474 
L 406.64823 211.882134 
L 407.240737 213.105655 
L 407.833245 215.851351 
L 408.425752 209.878257 
L 409.018259 211.544943 
L 410.697029 218.780094 
L 411.289536 279.098708 
L 413.462062 279.098708 
L 413.955818 238.597278 
L 414.548325 244.628176 
L 415.042081 256.824848 
L 415.535837 256.824848 
L 416.029593 270.476258 
L 416.6221 279.098708 
L 418.597124 279.098708 
L 418.992128 249.291043 
L 419.485884 245.4278 
L 419.97964 244.628176 
L 420.374645 245.4278 
L 420.868401 241.246634 
L 421.263406 279.098708 
L 422.942176 279.098708 
L 423.33718 236.410355 
L 423.732185 230.716648 
L 424.12719 229.743611 
L 424.423443 230.466163 
L 424.818448 230.466163 
L 425.114702 279.098708 
L 426.398467 279.098708 
L 426.694721 226.101951 
L 426.990974 224.936234 
L 427.287228 224.936234 
L 427.583481 223.29845 
L 427.879735 225.928539 
L 428.077237 279.098708 
L 429.064749 279.098708 
L 429.262251 227.787905 
L 429.459754 223.866858 
L 429.657256 223.577837 
L 429.854759 221.005553 
L 430.052261 225.100013 
L 430.151012 279.098708 
L 430.743519 279.098708 
L 431.039773 222.354316 
L 431.138524 222.103832 
L 431.237275 219.377403 
L 431.336026 224.011368 
L 431.533529 279.098708 
L 431.731031 279.098708 
L 431.928533 218.780094 
L 432.027285 222.884187 
L 432.027285 279.098708 
L 432.126036 219.473744 
L 432.224787 219.685692 
L 432.224787 213.7415 
L 432.224787 279.098708 
L 432.224787 217.402429 
" clip-path="url(#p50ddb24fbb)" style="fill: none; stroke: #1f77b4; stroke-width: 1.5; stroke-linecap: square"/>
   </g>
   <g id="line2d_60">
    <path d="M 76.720526 298.809918 
L 358.062648 298.809918 
L 358.655155 266.902036 
L 359.247662 270.16797 
L 359.840169 263.568664 
L 360.432676 264.320118 
L 361.025183 264.320118 
L 361.617691 298.809918 
L 364.580226 298.809918 
L 365.172733 253.568549 
L 365.76524 252.932703 
L 366.357747 254.955848 
L 366.950254 250.928827 
L 367.542762 250.668708 
L 368.135269 298.809918 
L 370.505297 298.809918 
L 371.097804 258.28922 
L 371.690311 246.159986 
L 372.282818 246.709125 
L 372.875326 245.976939 
L 373.467833 246.709125 
L 374.06034 244.319887 
L 374.652847 298.809918 
L 377.022875 298.809918 
L 377.615382 248.106058 
L 378.207889 241.294804 
L 378.800397 240.244696 
L 380.577918 240.023113 
L 381.170425 298.809918 
L 383.540453 298.809918 
L 384.13296 240.138722 
L 384.725468 237.007664 
L 385.317975 236.834252 
L 385.910482 235.861216 
L 386.502989 235.543293 
L 387.095496 250.40859 
L 387.688003 285.129606 
L 388.28051 278.780786 
L 388.873017 265.129376 
L 389.465524 262.190999 
L 390.058031 262.855747 
L 390.650539 235.620365 
L 391.243046 232.807231 
L 391.835553 232.441138 
L 392.42806 232.258091 
L 393.020567 231.410297 
L 393.613074 245.803527 
L 394.205581 249.917254 
L 394.798088 248.318007 
L 395.983103 246.709125 
L 396.57561 230.976766 
L 397.168117 229.107766 
L 397.760624 228.654967 
L 398.353131 228.606797 
L 398.945638 227.932415 
L 399.538145 239.917139 
L 400.130652 240.244696 
L 400.723159 240.138722 
L 401.315666 239.069345 
L 401.908174 238.472036 
L 402.500681 227.20023 
L 403.093188 225.581714 
L 403.685695 225.148183 
L 404.278202 225.148183 
L 404.870709 225.350497 
L 405.463216 234.310138 
L 406.055723 234.512453 
L 406.64823 233.626122 
L 407.240737 233.3082 
L 407.833245 232.498942 
L 408.425752 223.886126 
L 409.018259 222.710775 
L 409.512015 222.277244 
L 410.104522 221.968955 
L 410.697029 221.342744 
L 411.289536 229.107766 
L 411.783292 228.876549 
L 412.375799 228.433384 
L 412.869555 227.807173 
L 413.462062 227.315838 
L 413.955818 219.8013 
L 414.548325 219.733862 
L 415.535837 219.040213 
L 416.029593 218.780094 
L 416.6221 224.589409 
L 418.597124 222.758945 
L 418.992128 216.525733 
L 419.485884 217.017068 
L 419.97964 216.294516 
L 420.868401 215.620135 
L 421.263406 219.888007 
L 422.942176 218.529609 
L 423.33718 213.336871 
L 423.732185 213.770402 
L 424.12719 213.134557 
L 424.818448 212.61432 
L 425.114702 216.381222 
L 425.509706 215.543062 
L 426.398467 214.512222 
L 426.694721 210.350324 
L 426.990974 210.726051 
L 427.879735 209.608505 
L 428.077237 212.161521 
L 428.867247 211.043974 
L 429.064749 210.658613 
L 429.262251 207.479386 
L 429.459754 207.511178 
L 430.052261 206.381107 
L 430.151012 208.404252 
L 430.644768 207.414838 
L 430.743519 206.967819 
L 430.941022 204.560277 
L 431.039773 204.643129 
L 431.336026 203.881078 
L 431.434777 205.338706 
L 431.731031 204.402279 
L 431.829782 202.663338 
L 431.928533 202.733666 
L 432.027285 202.516901 
L 432.027285 203.253903 
L 432.126036 201.468719 
L 432.126036 201.795312 
L 432.224787 201.518816 
L 432.224787 199.362047 
L 432.224787 201.95331 
L 432.224787 200.512061 
" clip-path="url(#p50ddb24fbb)" style="fill: none; stroke: #ff7f0e; stroke-width: 1.5; stroke-linecap: square"/>
   </g>
   <g id="line2d_61">
    <path d="M 76.720526 299.291619 
L 372.282818 299.291619 
L 372.875326 290.659535 
L 373.467833 299.291619 
L 377.022875 299.291619 
L 377.615382 258.308488 
L 378.800397 252.51844 
L 379.392904 251.150409 
L 379.985411 251.150409 
L 380.577918 299.291619 
L 383.540453 299.291619 
L 384.13296 244.647444 
L 385.317975 243.481727 
L 385.910482 242.277475 
L 386.502989 241.911382 
L 387.095496 299.291619 
L 390.058031 299.291619 
L 390.650539 237.238881 
L 391.243046 236.911324 
L 391.835553 236.419989 
L 392.42806 236.747546 
L 393.020567 235.215736 
L 393.613074 265.611077 
L 394.205581 263.347082 
L 394.798088 257.855689 
L 395.390595 255.813276 
L 395.983103 255.08109 
L 396.57561 232.749426 
L 397.168117 232.344797 
L 397.760624 231.68005 
L 398.353131 231.949803 
L 398.945638 231.150179 
L 399.538145 245.774625 
L 400.130652 244.801588 
L 400.723159 242.67247 
L 401.908174 241.304438 
L 402.500681 229.098132 
L 403.093188 228.211802 
L 403.685695 227.768637 
L 404.278202 227.566322 
L 404.870709 227.152059 
L 405.463216 236.265845 
L 406.055723 235.504757 
L 406.64823 234.93635 
L 407.240737 234.589525 
L 407.833245 233.924777 
L 408.425752 224.425631 
L 410.697029 222.787847 
L 411.289536 229.724343 
L 411.783292 229.319714 
L 413.462062 227.48925 
L 413.955818 220.63946 
L 415.042081 219.60862 
L 415.535837 219.367769 
L 416.029593 221.207868 
L 416.6221 224.252219 
L 417.609612 223.385157 
L 418.597124 222.354316 
L 418.992128 216.920728 
L 419.485884 216.978532 
L 420.374645 216.072934 
L 420.868401 218.876434 
L 421.263406 219.444841 
L 421.757161 219.049847 
L 422.547171 218.096078 
L 422.942176 217.83596 
L 423.33718 213.69333 
L 423.732185 213.413943 
L 424.423443 212.749196 
L 424.818448 214.801243 
L 425.114702 215.013191 
L 425.509706 214.772341 
L 426.398467 213.568088 
L 426.694721 210.485201 
L 426.990974 210.070938 
L 427.583481 209.666309 
L 427.879735 211.27519 
L 428.077237 211.149948 
L 428.867247 210.128742 
L 429.064749 209.714479 
L 429.262251 207.241425 
L 429.854759 206.478411 
L 430.052261 207.578616 
L 430.151012 207.555494 
L 430.743519 206.442765 
L 431.039773 204.041966 
L 431.237275 203.700922 
L 431.336026 204.531375 
L 431.533529 204.218269 
L 431.731031 203.525583 
L 431.928533 202.317476 
L 432.027285 202.907079 
L 432.027285 202.497633 
L 432.126036 202.450426 
L 432.224787 199.596828 
L 432.224787 200.478342 
" clip-path="url(#p50ddb24fbb)" style="fill: none; stroke: #2ca02c; stroke-width: 1.5; stroke-linecap: square"/>
   </g>
   <g id="line2d_62">
    <path d="M 76.720526 199.858874 
L 76.720842 199.760607 
L 76.721592 199.401258 
L 76.807308 200.131517 
L 76.828954 199.567926 
L 76.85384 200.006274 
L 76.950912 199.784692 
L 77.036529 199.640182 
L 77.0863 200.131517 
L 77.141107 199.543841 
L 77.201148 199.592011 
L 77.33772 200.08142 
L 77.497994 199.47255 
L 77.683942 200.282771 
L 77.89764 199.353955 
L 78.13958 200.131517 
L 78.272894 199.28353 
L 78.414108 199.495671 
L 78.721225 199.330448 
L 78.888114 199.213491 
L 79.063891 199.353955 
L 79.247568 199.353955 
L 79.441121 199.190273 
L 79.643561 199.353955 
L 79.854888 199.120715 
L 80.074116 199.143837 
L 80.303219 198.96002 
L 80.541209 199.448465 
L 80.788087 199.143837 
L 81.042865 199.120715 
L 81.307518 198.62254 
L 81.581059 198.823891 
L 81.863487 198.62254 
L 82.153816 198.96002 
L 82.454019 198.578223 
L 83.406968 198.7789 
L 84.087364 198.293923 
L 84.440893 198.44616 
L 85.553819 198.337209 
L 85.942899 198.62254 
L 86.339878 198.272247 
L 86.743771 198.62254 
L 89.370552 198.40247 
L 90.308688 198.62254 
L 90.792569 198.644698 
L 91.27645 198.534003 
L 92.273837 198.7789 
L 92.787343 198.62254 
L 93.300849 198.734005 
L 93.814355 199.028614 
L 94.347612 198.96002 
L 94.880868 198.40247 
L 95.414125 198.914451 
L 95.957256 199.005685 
L 96.500388 199.236805 
L 97.053394 199.236805 
L 97.606401 199.097593 
L 98.169283 199.353955 
L 101.595949 199.424379 
L 102.178581 199.760607 
L 102.761213 199.760607 
L 103.343845 199.567926 
L 103.936352 199.858874 
L 104.528859 199.784692 
L 105.111491 199.882959 
L 105.703998 199.592011 
L 106.296505 199.858874 
L 106.889012 199.664267 
L 107.481519 200.131517 
L 108.074026 200.206662 
L 109.259041 199.882959 
L 109.851548 199.760607 
L 110.444055 199.882959 
L 111.036562 199.882959 
L 111.629069 200.131517 
L 113.40659 199.957141 
L 113.999097 200.206662 
L 114.591605 199.981226 
L 116.369126 200.056371 
L 116.961633 200.35888 
L 117.55414 199.981226 
L 118.146647 200.08142 
L 119.331661 199.784692 
L 119.924168 200.539036 
L 120.516676 199.592011 
L 121.109183 199.784692 
L 121.70169 199.401258 
L 122.886704 199.543841 
L 123.479211 199.401258 
L 124.071718 199.47255 
L 124.664225 199.401258 
L 125.256732 199.448465 
L 125.849239 199.236805 
L 126.441747 199.519756 
L 127.034254 199.592011 
L 127.626761 199.236805 
L 128.219268 199.353955 
L 128.811775 199.28353 
L 129.404282 199.495671 
L 129.996789 199.120715 
L 130.589296 199.353955 
L 132.959325 199.353955 
L 134.144339 199.495671 
L 134.736846 199.353955 
L 135.329353 199.858874 
L 135.92186 199.495671 
L 136.514367 199.592011 
L 137.106874 199.882959 
L 137.699382 200.006274 
L 140.06941 201.230759 
L 141.254424 202.110345 
L 141.846931 202.867579 
L 143.624453 205.579556 
L 145.401974 209.743381 
L 146.586988 214.916851 
L 147.772002 222.662605 
L 148.957016 242.81698 
L 149.549524 277.287512 
L 223.563536 277.287512 
L 224.156043 248.664831 
L 224.74855 234.204164 
L 225.933564 222.662605 
L 227.711085 213.808938 
L 229.488607 208.452422 
L 230.081114 207.106549 
L 230.673621 206.217329 
L 231.858635 203.943699 
L 232.451142 203.216331 
L 233.043649 202.774129 
L 233.636156 202.83675 
L 234.228664 201.8483 
L 235.413678 201.536157 
L 236.006185 201.285673 
L 236.598692 200.748094 
L 237.191199 200.695107 
L 237.783706 200.827093 
L 240.746242 200.643083 
L 241.338749 200.669095 
L 241.931256 200.853105 
L 242.523763 200.383928 
L 243.11627 200.565048 
L 244.301284 200.565048 
L 244.893791 201.648875 
L 245.486299 200.513024 
L 246.078806 200.35888 
L 246.671313 200.721119 
L 247.26382 200.131517 
L 247.856327 200.131517 
L 248.448834 200.256759 
L 249.041341 200.131517 
L 249.633848 200.156565 
L 250.226355 199.882959 
L 252.003877 200.282771 
L 252.596384 200.565048 
L 253.781398 200.08142 
L 254.373905 200.435952 
L 254.966412 200.131517 
L 255.558919 200.156565 
L 256.743933 200.006274 
L 257.336441 199.981226 
L 257.928948 200.206662 
L 258.521455 200.031323 
L 260.298976 200.056371 
L 260.891483 199.858874 
L 261.48399 200.256759 
L 262.076497 199.858874 
L 263.261512 200.461 
L 263.854019 200.131517 
L 265.039033 200.256759 
L 265.63154 199.882959 
L 266.224047 200.131517 
L 266.816554 200.539036 
L 267.409061 199.908007 
L 269.186583 199.981226 
L 270.371597 200.40994 
L 270.964104 199.882959 
L 271.556611 200.206662 
L 272.149118 200.056371 
L 273.334132 200.131517 
L 274.519147 200.056371 
L 275.111654 199.858874 
L 275.704161 200.156565 
L 276.296668 200.156565 
L 276.889175 200.006274 
L 277.481682 199.640182 
L 278.074189 199.784692 
L 278.666696 200.617071 
L 279.259203 199.784692 
L 279.85171 199.957141 
L 281.629232 200.006274 
L 282.221739 199.80974 
L 283.406753 199.833825 
L 283.99926 199.567926 
L 284.591767 200.131517 
L 285.184274 199.495671 
L 285.776781 199.519756 
L 286.369289 199.377558 
L 288.14681 199.306941 
L 288.739317 199.784692 
L 289.331824 199.882959 
L 289.924331 199.543841 
L 290.516838 199.47255 
L 291.109345 200.487012 
L 291.701853 199.306941 
L 293.479374 199.353955 
L 294.071881 199.190273 
L 295.849402 199.306941 
L 297.034416 199.784692 
L 297.626924 199.519756 
L 298.219431 199.882959 
L 298.811938 199.80974 
L 299.996952 199.28353 
L 300.589459 199.353955 
L 301.181966 199.616097 
L 301.774473 199.616097 
L 302.36698 199.784692 
L 302.959487 199.28353 
L 304.144502 199.330448 
L 304.737009 200.006274 
L 305.922023 200.131517 
L 306.51453 199.760607 
L 307.107037 200.131517 
L 307.699544 199.592011 
L 308.884558 199.47255 
L 309.477066 199.981226 
L 310.069573 199.47255 
L 310.66208 199.981226 
L 311.254587 199.858874 
L 312.439601 200.40994 
L 313.032108 200.181614 
L 313.624615 200.35888 
L 314.217122 200.282771 
L 314.809629 200.643083 
L 315.402137 200.131517 
L 315.994644 200.206662 
L 317.772165 201.094919 
L 318.957179 202.347342 
L 321.919715 206.932173 
L 322.512222 208.847417 
L 323.104729 209.049731 
L 323.697236 210.408128 
L 324.289743 212.325299 
L 325.474757 218.62595 
L 326.067264 222.816749 
L 326.659772 228.905451 
L 327.252279 277.287512 
L 390.650539 277.287512 
L 391.243046 253.096482 
L 391.835553 246.400836 
L 392.42806 242.81698 
L 393.020567 238.308257 
L 393.613074 277.287512 
L 395.983103 277.287512 
L 396.57561 223.780152 
L 397.168117 222.354316 
L 397.760624 220.292635 
L 398.353131 219.791666 
L 398.945638 218.298393 
L 399.538145 228.404482 
L 400.130652 227.469982 
L 400.723159 223.125038 
L 401.315666 220.677996 
L 401.908174 218.857166 
L 402.500681 210.812757 
L 403.093188 209.955329 
L 403.685695 208.596932 
L 404.278202 207.599811 
L 404.870709 206.88882 
L 405.463216 210.938 
L 406.055723 210.29252 
L 406.64823 209.955329 
L 407.240737 209.155706 
L 407.833245 209.30985 
L 408.425752 204.430218 
L 409.018259 204.752957 
L 409.512015 204.608447 
L 410.104522 205.159513 
L 410.697029 205.973588 
L 411.289536 212.055546 
L 411.783292 214.194299 
L 412.375799 216.217444 
L 413.462062 225.591348 
L 413.955818 216.30415 
L 414.548325 218.086444 
L 415.042081 222.662605 
L 415.535837 224.647214 
L 416.029593 228.905451 
L 416.6221 277.287512 
L 418.597124 277.287512 
L 418.992128 249.975059 
L 419.485884 255.013652 
L 419.97964 257.277648 
L 420.374645 246.400836 
L 420.868401 249.975059 
L 421.263406 277.287512 
L 422.942176 277.287512 
L 423.33718 242.81698 
L 423.732185 235.427685 
L 424.12719 242.065526 
L 424.423443 233.086617 
L 424.818448 232.065411 
L 425.114702 277.287512 
L 426.398467 277.287512 
L 426.694721 226.593286 
L 426.990974 226.593286 
L 427.287228 228.654967 
L 427.583481 225.784028 
L 427.879735 224.83026 
L 428.077237 277.287512 
L 429.064749 277.287512 
L 429.262251 223.953564 
L 429.459754 223.616373 
L 429.657256 222.816749 
L 429.854759 225.205987 
L 430.052261 222.816749 
L 430.151012 277.287512 
L 430.743519 277.287512 
L 430.941022 222.662605 
L 431.039773 223.125038 
L 431.138524 223.780152 
L 431.336026 222.970894 
L 431.533529 277.287512 
L 431.731031 277.287512 
L 431.829782 221.352378 
L 431.928533 222.354316 
L 432.027285 222.354316 
L 432.027285 277.287512 
L 432.126036 220.54312 
L 432.126036 221.207868 
L 432.224787 223.125038 
L 432.224787 221.631765 
L 432.224787 277.287512 
L 432.224787 218.298393 
L 432.224787 220.042151 
" clip-path="url(#p50ddb24fbb)" style="fill: none; stroke: #d62728; stroke-width: 1.5; stroke-linecap: square"/>
   </g>
   <g id="patch_9">
    <path d="M 58.945313 304.44375 
L 58.945313 191.096875 
" style="fill: none; stroke: #000000; stroke-width: 0.8; stroke-linejoin: miter; stroke-linecap: square"/>
   </g>
   <g id="patch_10">
    <path d="M 450 304.44375 
L 450 191.096875 
" style="fill: none; stroke: #000000; stroke-width: 0.8; stroke-linejoin: miter; stroke-linecap: square"/>
   </g>
   <g id="patch_11">
    <path d="M 58.945313 304.44375 
L 450 304.44375 
" style="fill: none; stroke: #000000; stroke-width: 0.8; stroke-linejoin: miter; stroke-linecap: square"/>
   </g>
   <g id="patch_12">
    <path d="M 58.945313 191.096875 
L 450 191.096875 
" style="fill: none; stroke: #000000; stroke-width: 0.8; stroke-linejoin: miter; stroke-linecap: square"/>
   </g>
   <g id="text_26">
    <!-- Wall Distance [mm] -->
    <g transform="translate(195.492656 185.096875)scale(0.12 -0.12)">
     <defs>
      <path id="DejaVuSans-57" d="M 213 4666 
L 850 4666 
L 1831 722 
L 2809 4666 
L 3519 4666 
L 4500 722 
L 5478 4666 
L 6119 4666 
L 4947 0 
L 4153 0 
L 3169 4050 
L 2175 0 
L 1381 0 
L 213 4666 
z
" transform="scale(0.015625)"/>
      <path id="DejaVuSans-44" d="M 1259 4147 
L 1259 519 
L 2022 519 
Q 2988 519 3436 956 
Q 3884 1394 3884 2338 
Q 3884 3275 3436 3711 
Q 2988 4147 2022 4147 
L 1259 4147 
z
M 628 4666 
L 1925 4666 
Q 3281 4666 3915 4102 
Q 4550 3538 4550 2338 
Q 4550 1131 3912 565 
Q 3275 0 1925 0 
L 628 0 
L 628 4666 
z
" transform="scale(0.015625)"/>
     </defs>
     <use xlink:href="#DejaVuSans-57"/>
     <use xlink:href="#DejaVuSans-61" x="92.501953"/>
     <use xlink:href="#DejaVuSans-6c" x="153.78125"/>
     <use xlink:href="#DejaVuSans-6c" x="181.564453"/>
     <use xlink:href="#DejaVuSans-20" x="209.347656"/>
     <use xlink:href="#DejaVuSans-44" x="241.134766"/>
     <use xlink:href="#DejaVuSans-69" x="318.136719"/>
     <use xlink:href="#DejaVuSans-73" x="345.919922"/>
     <use xlink:href="#DejaVuSans-74" x="398.019531"/>
     <use xlink:href="#DejaVuSans-61" x="437.228516"/>
     <use xlink:href="#DejaVuSans-6e" x="498.507812"/>
     <use xlink:href="#DejaVuSans-63" x="561.886719"/>
     <use xlink:href="#DejaVuSans-65" x="616.867188"/>
     <use xlink:href="#DejaVuSans-20" x="678.390625"/>
     <use xlink:href="#DejaVuSans-5b" x="710.177734"/>
     <use xlink:href="#DejaVuSans-6d" x="749.191406"/>
     <use xlink:href="#DejaVuSans-6d" x="846.603516"/>
     <use xlink:href="#DejaVuSans-5d" x="944.015625"/>
    </g>
   </g>
   <g id="legend_2">
    <g id="patch_13">
     <path d="M 65.945312 278.626562 
L 133.360938 278.626562 
Q 135.360938 278.626562 135.360938 276.626562 
L 135.360938 218.914062 
Q 135.360938 216.914062 133.360938 216.914062 
L 65.945312 216.914062 
Q 63.945312 216.914062 63.945312 218.914062 
L 63.945312 276.626562 
Q 63.945312 278.626562 65.945312 278.626562 
z
" style="fill: #ffffff; opacity: 0.8; stroke: #cccccc; stroke-linejoin: miter"/>
    </g>
    <g id="line2d_63">
     <path d="M 67.945312 225.0125 
L 77.945312 225.0125 
L 87.945312 225.0125 
" style="fill: none; stroke: #1f77b4; stroke-width: 1.5; stroke-linecap: square"/>
    </g>
    <g id="text_27">
     <!-- L Side -->
     <g transform="translate(95.945312 228.5125)scale(0.1 -0.1)">
      <use xlink:href="#DejaVuSans-4c"/>
      <use xlink:href="#DejaVuSans-20" x="55.712891"/>
      <use xlink:href="#DejaVuSans-53" x="87.5"/>
      <use xlink:href="#DejaVuSans-69" x="150.976562"/>
      <use xlink:href="#DejaVuSans-64" x="178.759766"/>
      <use xlink:href="#DejaVuSans-65" x="242.236328"/>
     </g>
    </g>
    <g id="line2d_64">
     <path d="M 67.945312 239.690625 
L 77.945312 239.690625 
L 87.945312 239.690625 
" style="fill: none; stroke: #ff7f0e; stroke-width: 1.5; stroke-linecap: square"/>
    </g>
    <g id="text_28">
     <!-- L Front -->
     <g transform="translate(95.945312 243.190625)scale(0.1 -0.1)">
      <use xlink:href="#DejaVuSans-4c"/>
      <use xlink:href="#DejaVuSans-20" x="55.712891"/>
      <use xlink:href="#DejaVuSans-46" x="87.5"/>
      <use xlink:href="#DejaVuSans-72" x="137.769531"/>
      <use xlink:href="#DejaVuSans-6f" x="176.632812"/>
      <use xlink:href="#DejaVuSans-6e" x="237.814453"/>
      <use xlink:href="#DejaVuSans-74" x="301.193359"/>
     </g>
    </g>
    <g id="line2d_65">
     <path d="M 67.945312 254.36875 
L 77.945312 254.36875 
L 87.945312 254.36875 
" style="fill: none; stroke: #2ca02c; stroke-width: 1.5; stroke-linecap: square"/>
    </g>
    <g id="text_29">
     <!-- R Front -->
     <g transform="translate(95.945312 257.86875)scale(0.1 -0.1)">
      <use xlink:href="#DejaVuSans-52"/>
      <use xlink:href="#DejaVuSans-20" x="69.482422"/>
      <use xlink:href="#DejaVuSans-46" x="101.269531"/>
      <use xlink:href="#DejaVuSans-72" x="151.539062"/>
      <use xlink:href="#DejaVuSans-6f" x="190.402344"/>
      <use xlink:href="#DejaVuSans-6e" x="251.583984"/>
      <use xlink:href="#DejaVuSans-74" x="314.962891"/>
     </g>
    </g>
    <g id="line2d_66">
     <path d="M 67.945312 269.046875 
L 77.945312 269.046875 
L 87.945312 269.046875 
" style="fill: none; stroke: #d62728; stroke-width: 1.5; stroke-linecap: square"/>
    </g>
    <g id="text_30">
     <!-- R Side -->
     <g transform="translate(95.945312 272.546875)scale(0.1 -0.1)">
      <use xlink:href="#DejaVuSans-52"/>
      <use xlink:href="#DejaVuSans-20" x="69.482422"/>
      <use xlink:href="#DejaVuSans-53" x="101.269531"/>
      <use xlink:href="#DejaVuSans-69" x="164.746094"/>
      <use xlink:href="#DejaVuSans-64" x="192.529297"/>
      <use xlink:href="#DejaVuSans-65" x="256.005859"/>
     </g>
    </g>
   </g>
  </g>
  <g id="text_31">
   <!-- Reflector Raw Value and Wall Distance -->
   <g transform="translate(114.835313 16.030125)scale(0.12 -0.12)">
    <use xlink:href="#DejaVuSans-52"/>
    <use xlink:href="#DejaVuSans-65" x="64.982422"/>
    <use xlink:href="#DejaVuSans-66" x="126.505859"/>
    <use xlink:href="#DejaVuSans-6c" x="161.710938"/>
    <use xlink:href="#DejaVuSans-65" x="189.494141"/>
    <use xlink:href="#DejaVuSans-63" x="251.017578"/>
    <use xlink:href="#DejaVuSans-74" x="305.998047"/>
    <use xlink:href="#DejaVuSans-6f" x="345.207031"/>
    <use xlink:href="#DejaVuSans-72" x="406.388672"/>
    <use xlink:href="#DejaVuSans-20" x="447.501953"/>
    <use xlink:href="#DejaVuSans-52" x="479.289062"/>
    <use xlink:href="#DejaVuSans-61" x="546.521484"/>
    <use xlink:href="#DejaVuSans-77" x="607.800781"/>
    <use xlink:href="#DejaVuSans-20" x="689.587891"/>
    <use xlink:href="#DejaVuSans-56" x="721.375"/>
    <use xlink:href="#DejaVuSans-61" x="782.033203"/>
    <use xlink:href="#DejaVuSans-6c" x="843.3125"/>
    <use xlink:href="#DejaVuSans-75" x="871.095703"/>
    <use xlink:href="#DejaVuSans-65" x="934.474609"/>
    <use xlink:href="#DejaVuSans-20" x="995.998047"/>
    <use xlink:href="#DejaVuSans-61" x="1027.785156"/>
    <use xlink:href="#DejaVuSans-6e" x="1089.064453"/>
    <use xlink:href="#DejaVuSans-64" x="1152.443359"/>
    <use xlink:href="#DejaVuSans-20" x="1215.919922"/>
    <use xlink:href="#DejaVuSans-57" x="1247.707031"/>
    <use xlink:href="#DejaVuSans-61" x="1340.208984"/>
    <use xlink:href="#DejaVuSans-6c" x="1401.488281"/>
    <use xlink:href="#DejaVuSans-6c" x="1429.271484"/>
    <use xlink:href="#DejaVuSans-20" x="1457.054688"/>
    <use xlink:href="#DejaVuSans-44" x="1488.841797"/>
    <use xlink:href="#DejaVuSans-69" x="1565.84375"/>
    <use xlink:href="#DejaVuSans-73" x="1593.626953"/>
    <use xlink:href="#DejaVuSans-74" x="1645.726562"/>
    <use xlink:href="#DejaVuSans-61" x="1684.935547"/>
    <use xlink:href="#DejaVuSans-6e" x="1746.214844"/>
    <use xlink:href="#DejaVuSans-63" x="1809.59375"/>
    <use xlink:href="#DejaVuSans-65" x="1864.574219"/>
   </g>
  </g>
 </g>
 <defs>
  <clipPath id="pa2c2ac6326">
   <rect x="58.945313" y="48.331875" width="391.054687" height="113.346875"/>
  </clipPath>
  <clipPath id="p50ddb24fbb">
   <rect x="58.945313" y="191.096875" width="391.054687" height="113.346875"/>
  </clipPath>
 </defs>
</svg>
