<?xml version="1.0" encoding="utf-8" standalone="no"?>
<!DOCTYPE svg PUBLIC "-//W3C//DTD SVG 1.1//EN"
  "http://www.w3.org/Graphics/SVG/1.1/DTD/svg11.dtd">
<svg xmlns:xlink="http://www.w3.org/1999/xlink" width="460.8pt" height="345.6pt" viewBox="0 0 460.8 345.6" xmlns="http://www.w3.org/2000/svg" version="1.1">
 <metadata>
  <rdf:RDF xmlns:dc="http://purl.org/dc/elements/1.1/" xmlns:cc="http://creativecommons.org/ns#" xmlns:rdf="http://www.w3.org/1999/02/22-rdf-syntax-ns#">
   <cc:Work>
    <dc:type rdf:resource="http://purl.org/dc/dcmitype/StillImage"/>
    <dc:date>2022-01-15T23:46:53.336615</dc:date>
    <dc:format>image/svg+xml</dc:format>
    <dc:creator>
     <cc:Agent>
      <dc:title>Matplotlib v3.5.1, https://matplotlib.org/</dc:title>
     </cc:Agent>
    </dc:creator>
   </cc:Work>
  </rdf:RDF>
 </metadata>
 <defs>
  <style type="text/css">*{stroke-linejoin: round; stroke-linecap: butt}</style>
 </defs>
 <g id="figure_1">
  <g id="patch_1">
   <path d="M 0 345.6 
L 460.8 345.6 
L 460.8 0 
L 0 0 
z
" style="fill: #ffffff"/>
  </g>
  <g id="axes_1">
   <g id="patch_2">
    <path d="M 58.945313 304.44375 
L 450 304.44375 
L 450 25.918125 
L 58.945313 25.918125 
z
" style="fill: #ffffff"/>
   </g>
   <g id="matplotlib.axis_1">
    <g id="xtick_1">
     <g id="line2d_1">
      <path d="M 76.720526 304.44375 
L 76.720526 25.918125 
" clip-path="url(#pc039beee5a)" style="fill: none; stroke: #b0b0b0; stroke-width: 0.8; stroke-linecap: square"/>
     </g>
     <g id="line2d_2">
      <defs>
       <path id="m6411a41720" d="M 0 0 
L 0 3.5 
" style="stroke: #000000; stroke-width: 0.8"/>
      </defs>
      <g>
       <use xlink:href="#m6411a41720" x="76.720526" y="304.44375" style="stroke: #000000; stroke-width: 0.8"/>
      </g>
     </g>
     <g id="text_1">
      <!-- 0 -->
      <g transform="translate(73.539276 319.042187)scale(0.1 -0.1)">
       <defs>
        <path id="DejaVuSans-30" d="M 2034 4250 
Q 1547 4250 1301 3770 
Q 1056 3291 1056 2328 
Q 1056 1369 1301 889 
Q 1547 409 2034 409 
Q 2525 409 2770 889 
Q 3016 1369 3016 2328 
Q 3016 3291 2770 3770 
Q 2525 4250 2034 4250 
z
M 2034 4750 
Q 2819 4750 3233 4129 
Q 3647 3509 3647 2328 
Q 3647 1150 3233 529 
Q 2819 -91 2034 -91 
Q 1250 -91 836 529 
Q 422 1150 422 2328 
Q 422 3509 836 4129 
Q 1250 4750 2034 4750 
z
" transform="scale(0.015625)"/>
       </defs>
       <use xlink:href="#DejaVuSans-30"/>
      </g>
     </g>
    </g>
    <g id="xtick_2">
     <g id="line2d_3">
      <path d="M 142.554648 304.44375 
L 142.554648 25.918125 
" clip-path="url(#pc039beee5a)" style="fill: none; stroke: #b0b0b0; stroke-width: 0.8; stroke-linecap: square"/>
     </g>
     <g id="line2d_4">
      <g>
       <use xlink:href="#m6411a41720" x="142.554648" y="304.44375" style="stroke: #000000; stroke-width: 0.8"/>
      </g>
     </g>
     <g id="text_2">
      <!-- 50 -->
      <g transform="translate(136.192148 319.042187)scale(0.1 -0.1)">
       <defs>
        <path id="DejaVuSans-35" d="M 691 4666 
L 3169 4666 
L 3169 4134 
L 1269 4134 
L 1269 2991 
Q 1406 3038 1543 3061 
Q 1681 3084 1819 3084 
Q 2600 3084 3056 2656 
Q 3513 2228 3513 1497 
Q 3513 744 3044 326 
Q 2575 -91 1722 -91 
Q 1428 -91 1123 -41 
Q 819 9 494 109 
L 494 744 
Q 775 591 1075 516 
Q 1375 441 1709 441 
Q 2250 441 2565 725 
Q 2881 1009 2881 1497 
Q 2881 1984 2565 2268 
Q 2250 2553 1709 2553 
Q 1456 2553 1204 2497 
Q 953 2441 691 2322 
L 691 4666 
z
" transform="scale(0.015625)"/>
       </defs>
       <use xlink:href="#DejaVuSans-35"/>
       <use xlink:href="#DejaVuSans-30" x="63.623047"/>
      </g>
     </g>
    </g>
    <g id="xtick_3">
     <g id="line2d_5">
      <path d="M 208.388771 304.44375 
L 208.388771 25.918125 
" clip-path="url(#pc039beee5a)" style="fill: none; stroke: #b0b0b0; stroke-width: 0.8; stroke-linecap: square"/>
     </g>
     <g id="line2d_6">
      <g>
       <use xlink:href="#m6411a41720" x="208.388771" y="304.44375" style="stroke: #000000; stroke-width: 0.8"/>
      </g>
     </g>
     <g id="text_3">
      <!-- 100 -->
      <g transform="translate(198.845021 319.042187)scale(0.1 -0.1)">
       <defs>
        <path id="DejaVuSans-31" d="M 794 531 
L 1825 531 
L 1825 4091 
L 703 3866 
L 703 4441 
L 1819 4666 
L 2450 4666 
L 2450 531 
L 3481 531 
L 3481 0 
L 794 0 
L 794 531 
z
" transform="scale(0.015625)"/>
       </defs>
       <use xlink:href="#DejaVuSans-31"/>
       <use xlink:href="#DejaVuSans-30" x="63.623047"/>
       <use xlink:href="#DejaVuSans-30" x="127.246094"/>
      </g>
     </g>
    </g>
    <g id="xtick_4">
     <g id="line2d_7">
      <path d="M 274.222893 304.44375 
L 274.222893 25.918125 
" clip-path="url(#pc039beee5a)" style="fill: none; stroke: #b0b0b0; stroke-width: 0.8; stroke-linecap: square"/>
     </g>
     <g id="line2d_8">
      <g>
       <use xlink:href="#m6411a41720" x="274.222893" y="304.44375" style="stroke: #000000; stroke-width: 0.8"/>
      </g>
     </g>
     <g id="text_4">
      <!-- 150 -->
      <g transform="translate(264.679143 319.042187)scale(0.1 -0.1)">
       <use xlink:href="#DejaVuSans-31"/>
       <use xlink:href="#DejaVuSans-35" x="63.623047"/>
       <use xlink:href="#DejaVuSans-30" x="127.246094"/>
      </g>
     </g>
    </g>
    <g id="xtick_5">
     <g id="line2d_9">
      <path d="M 340.057015 304.44375 
L 340.057015 25.918125 
" clip-path="url(#pc039beee5a)" style="fill: none; stroke: #b0b0b0; stroke-width: 0.8; stroke-linecap: square"/>
     </g>
     <g id="line2d_10">
      <g>
       <use xlink:href="#m6411a41720" x="340.057015" y="304.44375" style="stroke: #000000; stroke-width: 0.8"/>
      </g>
     </g>
     <g id="text_5">
      <!-- 200 -->
      <g transform="translate(330.513265 319.042187)scale(0.1 -0.1)">
       <defs>
        <path id="DejaVuSans-32" d="M 1228 531 
L 3431 531 
L 3431 0 
L 469 0 
L 469 531 
Q 828 903 1448 1529 
Q 2069 2156 2228 2338 
Q 2531 2678 2651 2914 
Q 2772 3150 2772 3378 
Q 2772 3750 2511 3984 
Q 2250 4219 1831 4219 
Q 1534 4219 1204 4116 
Q 875 4013 500 3803 
L 500 4441 
Q 881 4594 1212 4672 
Q 1544 4750 1819 4750 
Q 2544 4750 2975 4387 
Q 3406 4025 3406 3419 
Q 3406 3131 3298 2873 
Q 3191 2616 2906 2266 
Q 2828 2175 2409 1742 
Q 1991 1309 1228 531 
z
" transform="scale(0.015625)"/>
       </defs>
       <use xlink:href="#DejaVuSans-32"/>
       <use xlink:href="#DejaVuSans-30" x="63.623047"/>
       <use xlink:href="#DejaVuSans-30" x="127.246094"/>
      </g>
     </g>
    </g>
    <g id="xtick_6">
     <g id="line2d_11">
      <path d="M 405.891138 304.44375 
L 405.891138 25.918125 
" clip-path="url(#pc039beee5a)" style="fill: none; stroke: #b0b0b0; stroke-width: 0.8; stroke-linecap: square"/>
     </g>
     <g id="line2d_12">
      <g>
       <use xlink:href="#m6411a41720" x="405.891138" y="304.44375" style="stroke: #000000; stroke-width: 0.8"/>
      </g>
     </g>
     <g id="text_6">
      <!-- 250 -->
      <g transform="translate(396.347388 319.042187)scale(0.1 -0.1)">
       <use xlink:href="#DejaVuSans-32"/>
       <use xlink:href="#DejaVuSans-35" x="63.623047"/>
       <use xlink:href="#DejaVuSans-30" x="127.246094"/>
      </g>
     </g>
    </g>
    <g id="text_7">
     <!-- Translational Position [mm] -->
     <g transform="translate(186.495312 332.720312)scale(0.1 -0.1)">
      <defs>
       <path id="DejaVuSans-54" d="M -19 4666 
L 3928 4666 
L 3928 4134 
L 2272 4134 
L 2272 0 
L 1638 0 
L 1638 4134 
L -19 4134 
L -19 4666 
z
" transform="scale(0.015625)"/>
       <path id="DejaVuSans-72" d="M 2631 2963 
Q 2534 3019 2420 3045 
Q 2306 3072 2169 3072 
Q 1681 3072 1420 2755 
Q 1159 2438 1159 1844 
L 1159 0 
L 581 0 
L 581 3500 
L 1159 3500 
L 1159 2956 
Q 1341 3275 1631 3429 
Q 1922 3584 2338 3584 
Q 2397 3584 2469 3576 
Q 2541 3569 2628 3553 
L 2631 2963 
z
" transform="scale(0.015625)"/>
       <path id="DejaVuSans-61" d="M 2194 1759 
Q 1497 1759 1228 1600 
Q 959 1441 959 1056 
Q 959 750 1161 570 
Q 1363 391 1709 391 
Q 2188 391 2477 730 
Q 2766 1069 2766 1631 
L 2766 1759 
L 2194 1759 
z
M 3341 1997 
L 3341 0 
L 2766 0 
L 2766 531 
Q 2569 213 2275 61 
Q 1981 -91 1556 -91 
Q 1019 -91 701 211 
Q 384 513 384 1019 
Q 384 1609 779 1909 
Q 1175 2209 1959 2209 
L 2766 2209 
L 2766 2266 
Q 2766 2663 2505 2880 
Q 2244 3097 1772 3097 
Q 1472 3097 1187 3025 
Q 903 2953 641 2809 
L 641 3341 
Q 956 3463 1253 3523 
Q 1550 3584 1831 3584 
Q 2591 3584 2966 3190 
Q 3341 2797 3341 1997 
z
" transform="scale(0.015625)"/>
       <path id="DejaVuSans-6e" d="M 3513 2113 
L 3513 0 
L 2938 0 
L 2938 2094 
Q 2938 2591 2744 2837 
Q 2550 3084 2163 3084 
Q 1697 3084 1428 2787 
Q 1159 2491 1159 1978 
L 1159 0 
L 581 0 
L 581 3500 
L 1159 3500 
L 1159 2956 
Q 1366 3272 1645 3428 
Q 1925 3584 2291 3584 
Q 2894 3584 3203 3211 
Q 3513 2838 3513 2113 
z
" transform="scale(0.015625)"/>
       <path id="DejaVuSans-73" d="M 2834 3397 
L 2834 2853 
Q 2591 2978 2328 3040 
Q 2066 3103 1784 3103 
Q 1356 3103 1142 2972 
Q 928 2841 928 2578 
Q 928 2378 1081 2264 
Q 1234 2150 1697 2047 
L 1894 2003 
Q 2506 1872 2764 1633 
Q 3022 1394 3022 966 
Q 3022 478 2636 193 
Q 2250 -91 1575 -91 
Q 1294 -91 989 -36 
Q 684 19 347 128 
L 347 722 
Q 666 556 975 473 
Q 1284 391 1588 391 
Q 1994 391 2212 530 
Q 2431 669 2431 922 
Q 2431 1156 2273 1281 
Q 2116 1406 1581 1522 
L 1381 1569 
Q 847 1681 609 1914 
Q 372 2147 372 2553 
Q 372 3047 722 3315 
Q 1072 3584 1716 3584 
Q 2034 3584 2315 3537 
Q 2597 3491 2834 3397 
z
" transform="scale(0.015625)"/>
       <path id="DejaVuSans-6c" d="M 603 4863 
L 1178 4863 
L 1178 0 
L 603 0 
L 603 4863 
z
" transform="scale(0.015625)"/>
       <path id="DejaVuSans-74" d="M 1172 4494 
L 1172 3500 
L 2356 3500 
L 2356 3053 
L 1172 3053 
L 1172 1153 
Q 1172 725 1289 603 
Q 1406 481 1766 481 
L 2356 481 
L 2356 0 
L 1766 0 
Q 1100 0 847 248 
Q 594 497 594 1153 
L 594 3053 
L 172 3053 
L 172 3500 
L 594 3500 
L 594 4494 
L 1172 4494 
z
" transform="scale(0.015625)"/>
       <path id="DejaVuSans-69" d="M 603 3500 
L 1178 3500 
L 1178 0 
L 603 0 
L 603 3500 
z
M 603 4863 
L 1178 4863 
L 1178 4134 
L 603 4134 
L 603 4863 
z
" transform="scale(0.015625)"/>
       <path id="DejaVuSans-6f" d="M 1959 3097 
Q 1497 3097 1228 2736 
Q 959 2375 959 1747 
Q 959 1119 1226 758 
Q 1494 397 1959 397 
Q 2419 397 2687 759 
Q 2956 1122 2956 1747 
Q 2956 2369 2687 2733 
Q 2419 3097 1959 3097 
z
M 1959 3584 
Q 2709 3584 3137 3096 
Q 3566 2609 3566 1747 
Q 3566 888 3137 398 
Q 2709 -91 1959 -91 
Q 1206 -91 779 398 
Q 353 888 353 1747 
Q 353 2609 779 3096 
Q 1206 3584 1959 3584 
z
" transform="scale(0.015625)"/>
       <path id="DejaVuSans-20" transform="scale(0.015625)"/>
       <path id="DejaVuSans-50" d="M 1259 4147 
L 1259 2394 
L 2053 2394 
Q 2494 2394 2734 2622 
Q 2975 2850 2975 3272 
Q 2975 3691 2734 3919 
Q 2494 4147 2053 4147 
L 1259 4147 
z
M 628 4666 
L 2053 4666 
Q 2838 4666 3239 4311 
Q 3641 3956 3641 3272 
Q 3641 2581 3239 2228 
Q 2838 1875 2053 1875 
L 1259 1875 
L 1259 0 
L 628 0 
L 628 4666 
z
" transform="scale(0.015625)"/>
       <path id="DejaVuSans-5b" d="M 550 4863 
L 1875 4863 
L 1875 4416 
L 1125 4416 
L 1125 -397 
L 1875 -397 
L 1875 -844 
L 550 -844 
L 550 4863 
z
" transform="scale(0.015625)"/>
       <path id="DejaVuSans-6d" d="M 3328 2828 
Q 3544 3216 3844 3400 
Q 4144 3584 4550 3584 
Q 5097 3584 5394 3201 
Q 5691 2819 5691 2113 
L 5691 0 
L 5113 0 
L 5113 2094 
Q 5113 2597 4934 2840 
Q 4756 3084 4391 3084 
Q 3944 3084 3684 2787 
Q 3425 2491 3425 1978 
L 3425 0 
L 2847 0 
L 2847 2094 
Q 2847 2600 2669 2842 
Q 2491 3084 2119 3084 
Q 1678 3084 1418 2786 
Q 1159 2488 1159 1978 
L 1159 0 
L 581 0 
L 581 3500 
L 1159 3500 
L 1159 2956 
Q 1356 3278 1631 3431 
Q 1906 3584 2284 3584 
Q 2666 3584 2933 3390 
Q 3200 3197 3328 2828 
z
" transform="scale(0.015625)"/>
       <path id="DejaVuSans-5d" d="M 1947 4863 
L 1947 -844 
L 622 -844 
L 622 -397 
L 1369 -397 
L 1369 4416 
L 622 4416 
L 622 4863 
L 1947 4863 
z
" transform="scale(0.015625)"/>
      </defs>
      <use xlink:href="#DejaVuSans-54"/>
      <use xlink:href="#DejaVuSans-72" x="46.333984"/>
      <use xlink:href="#DejaVuSans-61" x="87.447266"/>
      <use xlink:href="#DejaVuSans-6e" x="148.726562"/>
      <use xlink:href="#DejaVuSans-73" x="212.105469"/>
      <use xlink:href="#DejaVuSans-6c" x="264.205078"/>
      <use xlink:href="#DejaVuSans-61" x="291.988281"/>
      <use xlink:href="#DejaVuSans-74" x="353.267578"/>
      <use xlink:href="#DejaVuSans-69" x="392.476562"/>
      <use xlink:href="#DejaVuSans-6f" x="420.259766"/>
      <use xlink:href="#DejaVuSans-6e" x="481.441406"/>
      <use xlink:href="#DejaVuSans-61" x="544.820312"/>
      <use xlink:href="#DejaVuSans-6c" x="606.099609"/>
      <use xlink:href="#DejaVuSans-20" x="633.882812"/>
      <use xlink:href="#DejaVuSans-50" x="665.669922"/>
      <use xlink:href="#DejaVuSans-6f" x="722.347656"/>
      <use xlink:href="#DejaVuSans-73" x="783.529297"/>
      <use xlink:href="#DejaVuSans-69" x="835.628906"/>
      <use xlink:href="#DejaVuSans-74" x="863.412109"/>
      <use xlink:href="#DejaVuSans-69" x="902.621094"/>
      <use xlink:href="#DejaVuSans-6f" x="930.404297"/>
      <use xlink:href="#DejaVuSans-6e" x="991.585938"/>
      <use xlink:href="#DejaVuSans-20" x="1054.964844"/>
      <use xlink:href="#DejaVuSans-5b" x="1086.751953"/>
      <use xlink:href="#DejaVuSans-6d" x="1125.765625"/>
      <use xlink:href="#DejaVuSans-6d" x="1223.177734"/>
      <use xlink:href="#DejaVuSans-5d" x="1320.589844"/>
     </g>
    </g>
   </g>
   <g id="matplotlib.axis_2">
    <g id="ytick_1">
     <g id="line2d_13">
      <path d="M 58.945313 281.349462 
L 450 281.349462 
" clip-path="url(#pc039beee5a)" style="fill: none; stroke: #b0b0b0; stroke-width: 0.8; stroke-linecap: square"/>
     </g>
     <g id="line2d_14">
      <defs>
       <path id="m64ba52fb2a" d="M 0 0 
L -3.5 0 
" style="stroke: #000000; stroke-width: 0.8"/>
      </defs>
      <g>
       <use xlink:href="#m64ba52fb2a" x="58.945313" y="281.349462" style="stroke: #000000; stroke-width: 0.8"/>
      </g>
     </g>
     <g id="text_8">
      <!-- −100 -->
      <g transform="translate(24.478125 285.14868)scale(0.1 -0.1)">
       <defs>
        <path id="DejaVuSans-2212" d="M 678 2272 
L 4684 2272 
L 4684 1741 
L 678 1741 
L 678 2272 
z
" transform="scale(0.015625)"/>
       </defs>
       <use xlink:href="#DejaVuSans-2212"/>
       <use xlink:href="#DejaVuSans-31" x="83.789062"/>
       <use xlink:href="#DejaVuSans-30" x="147.412109"/>
       <use xlink:href="#DejaVuSans-30" x="211.035156"/>
      </g>
     </g>
    </g>
    <g id="ytick_2">
     <g id="line2d_15">
      <path d="M 58.945313 236.949322 
L 450 236.949322 
" clip-path="url(#pc039beee5a)" style="fill: none; stroke: #b0b0b0; stroke-width: 0.8; stroke-linecap: square"/>
     </g>
     <g id="line2d_16">
      <g>
       <use xlink:href="#m64ba52fb2a" x="58.945313" y="236.949322" style="stroke: #000000; stroke-width: 0.8"/>
      </g>
     </g>
     <g id="text_9">
      <!-- −80 -->
      <g transform="translate(30.840625 240.748541)scale(0.1 -0.1)">
       <defs>
        <path id="DejaVuSans-38" d="M 2034 2216 
Q 1584 2216 1326 1975 
Q 1069 1734 1069 1313 
Q 1069 891 1326 650 
Q 1584 409 2034 409 
Q 2484 409 2743 651 
Q 3003 894 3003 1313 
Q 3003 1734 2745 1975 
Q 2488 2216 2034 2216 
z
M 1403 2484 
Q 997 2584 770 2862 
Q 544 3141 544 3541 
Q 544 4100 942 4425 
Q 1341 4750 2034 4750 
Q 2731 4750 3128 4425 
Q 3525 4100 3525 3541 
Q 3525 3141 3298 2862 
Q 3072 2584 2669 2484 
Q 3125 2378 3379 2068 
Q 3634 1759 3634 1313 
Q 3634 634 3220 271 
Q 2806 -91 2034 -91 
Q 1263 -91 848 271 
Q 434 634 434 1313 
Q 434 1759 690 2068 
Q 947 2378 1403 2484 
z
M 1172 3481 
Q 1172 3119 1398 2916 
Q 1625 2713 2034 2713 
Q 2441 2713 2670 2916 
Q 2900 3119 2900 3481 
Q 2900 3844 2670 4047 
Q 2441 4250 2034 4250 
Q 1625 4250 1398 4047 
Q 1172 3844 1172 3481 
z
" transform="scale(0.015625)"/>
       </defs>
       <use xlink:href="#DejaVuSans-2212"/>
       <use xlink:href="#DejaVuSans-38" x="83.789062"/>
       <use xlink:href="#DejaVuSans-30" x="147.412109"/>
      </g>
     </g>
    </g>
    <g id="ytick_3">
     <g id="line2d_17">
      <path d="M 58.945313 192.549183 
L 450 192.549183 
" clip-path="url(#pc039beee5a)" style="fill: none; stroke: #b0b0b0; stroke-width: 0.8; stroke-linecap: square"/>
     </g>
     <g id="line2d_18">
      <g>
       <use xlink:href="#m64ba52fb2a" x="58.945313" y="192.549183" style="stroke: #000000; stroke-width: 0.8"/>
      </g>
     </g>
     <g id="text_10">
      <!-- −60 -->
      <g transform="translate(30.840625 196.348402)scale(0.1 -0.1)">
       <defs>
        <path id="DejaVuSans-36" d="M 2113 2584 
Q 1688 2584 1439 2293 
Q 1191 2003 1191 1497 
Q 1191 994 1439 701 
Q 1688 409 2113 409 
Q 2538 409 2786 701 
Q 3034 994 3034 1497 
Q 3034 2003 2786 2293 
Q 2538 2584 2113 2584 
z
M 3366 4563 
L 3366 3988 
Q 3128 4100 2886 4159 
Q 2644 4219 2406 4219 
Q 1781 4219 1451 3797 
Q 1122 3375 1075 2522 
Q 1259 2794 1537 2939 
Q 1816 3084 2150 3084 
Q 2853 3084 3261 2657 
Q 3669 2231 3669 1497 
Q 3669 778 3244 343 
Q 2819 -91 2113 -91 
Q 1303 -91 875 529 
Q 447 1150 447 2328 
Q 447 3434 972 4092 
Q 1497 4750 2381 4750 
Q 2619 4750 2861 4703 
Q 3103 4656 3366 4563 
z
" transform="scale(0.015625)"/>
       </defs>
       <use xlink:href="#DejaVuSans-2212"/>
       <use xlink:href="#DejaVuSans-36" x="83.789062"/>
       <use xlink:href="#DejaVuSans-30" x="147.412109"/>
      </g>
     </g>
    </g>
    <g id="ytick_4">
     <g id="line2d_19">
      <path d="M 58.945313 148.149044 
L 450 148.149044 
" clip-path="url(#pc039beee5a)" style="fill: none; stroke: #b0b0b0; stroke-width: 0.8; stroke-linecap: square"/>
     </g>
     <g id="line2d_20">
      <g>
       <use xlink:href="#m64ba52fb2a" x="58.945313" y="148.149044" style="stroke: #000000; stroke-width: 0.8"/>
      </g>
     </g>
     <g id="text_11">
      <!-- −40 -->
      <g transform="translate(30.840625 151.948263)scale(0.1 -0.1)">
       <defs>
        <path id="DejaVuSans-34" d="M 2419 4116 
L 825 1625 
L 2419 1625 
L 2419 4116 
z
M 2253 4666 
L 3047 4666 
L 3047 1625 
L 3713 1625 
L 3713 1100 
L 3047 1100 
L 3047 0 
L 2419 0 
L 2419 1100 
L 313 1100 
L 313 1709 
L 2253 4666 
z
" transform="scale(0.015625)"/>
       </defs>
       <use xlink:href="#DejaVuSans-2212"/>
       <use xlink:href="#DejaVuSans-34" x="83.789062"/>
       <use xlink:href="#DejaVuSans-30" x="147.412109"/>
      </g>
     </g>
    </g>
    <g id="ytick_5">
     <g id="line2d_21">
      <path d="M 58.945313 103.748905 
L 450 103.748905 
" clip-path="url(#pc039beee5a)" style="fill: none; stroke: #b0b0b0; stroke-width: 0.8; stroke-linecap: square"/>
     </g>
     <g id="line2d_22">
      <g>
       <use xlink:href="#m64ba52fb2a" x="58.945313" y="103.748905" style="stroke: #000000; stroke-width: 0.8"/>
      </g>
     </g>
     <g id="text_12">
      <!-- −20 -->
      <g transform="translate(30.840625 107.548124)scale(0.1 -0.1)">
       <use xlink:href="#DejaVuSans-2212"/>
       <use xlink:href="#DejaVuSans-32" x="83.789062"/>
       <use xlink:href="#DejaVuSans-30" x="147.412109"/>
      </g>
     </g>
    </g>
    <g id="ytick_6">
     <g id="line2d_23">
      <path d="M 58.945313 59.348766 
L 450 59.348766 
" clip-path="url(#pc039beee5a)" style="fill: none; stroke: #b0b0b0; stroke-width: 0.8; stroke-linecap: square"/>
     </g>
     <g id="line2d_24">
      <g>
       <use xlink:href="#m64ba52fb2a" x="58.945313" y="59.348766" style="stroke: #000000; stroke-width: 0.8"/>
      </g>
     </g>
     <g id="text_13">
      <!-- 0 -->
      <g transform="translate(45.582813 63.147985)scale(0.1 -0.1)">
       <use xlink:href="#DejaVuSans-30"/>
      </g>
     </g>
    </g>
    <g id="text_14">
     <!-- Wall Distance [mm] -->
     <g transform="translate(18.398438 214.330937)rotate(-90)scale(0.1 -0.1)">
      <defs>
       <path id="DejaVuSans-57" d="M 213 4666 
L 850 4666 
L 1831 722 
L 2809 4666 
L 3519 4666 
L 4500 722 
L 5478 4666 
L 6119 4666 
L 4947 0 
L 4153 0 
L 3169 4050 
L 2175 0 
L 1381 0 
L 213 4666 
z
" transform="scale(0.015625)"/>
       <path id="DejaVuSans-44" d="M 1259 4147 
L 1259 519 
L 2022 519 
Q 2988 519 3436 956 
Q 3884 1394 3884 2338 
Q 3884 3275 3436 3711 
Q 2988 4147 2022 4147 
L 1259 4147 
z
M 628 4666 
L 1925 4666 
Q 3281 4666 3915 4102 
Q 4550 3538 4550 2338 
Q 4550 1131 3912 565 
Q 3275 0 1925 0 
L 628 0 
L 628 4666 
z
" transform="scale(0.015625)"/>
       <path id="DejaVuSans-63" d="M 3122 3366 
L 3122 2828 
Q 2878 2963 2633 3030 
Q 2388 3097 2138 3097 
Q 1578 3097 1268 2742 
Q 959 2388 959 1747 
Q 959 1106 1268 751 
Q 1578 397 2138 397 
Q 2388 397 2633 464 
Q 2878 531 3122 666 
L 3122 134 
Q 2881 22 2623 -34 
Q 2366 -91 2075 -91 
Q 1284 -91 818 406 
Q 353 903 353 1747 
Q 353 2603 823 3093 
Q 1294 3584 2113 3584 
Q 2378 3584 2631 3529 
Q 2884 3475 3122 3366 
z
" transform="scale(0.015625)"/>
       <path id="DejaVuSans-65" d="M 3597 1894 
L 3597 1613 
L 953 1613 
Q 991 1019 1311 708 
Q 1631 397 2203 397 
Q 2534 397 2845 478 
Q 3156 559 3463 722 
L 3463 178 
Q 3153 47 2828 -22 
Q 2503 -91 2169 -91 
Q 1331 -91 842 396 
Q 353 884 353 1716 
Q 353 2575 817 3079 
Q 1281 3584 2069 3584 
Q 2775 3584 3186 3129 
Q 3597 2675 3597 1894 
z
M 3022 2063 
Q 3016 2534 2758 2815 
Q 2500 3097 2075 3097 
Q 1594 3097 1305 2825 
Q 1016 2553 972 2059 
L 3022 2063 
z
" transform="scale(0.015625)"/>
      </defs>
      <use xlink:href="#DejaVuSans-57"/>
      <use xlink:href="#DejaVuSans-61" x="92.501953"/>
      <use xlink:href="#DejaVuSans-6c" x="153.78125"/>
      <use xlink:href="#DejaVuSans-6c" x="181.564453"/>
      <use xlink:href="#DejaVuSans-20" x="209.347656"/>
      <use xlink:href="#DejaVuSans-44" x="241.134766"/>
      <use xlink:href="#DejaVuSans-69" x="318.136719"/>
      <use xlink:href="#DejaVuSans-73" x="345.919922"/>
      <use xlink:href="#DejaVuSans-74" x="398.019531"/>
      <use xlink:href="#DejaVuSans-61" x="437.228516"/>
      <use xlink:href="#DejaVuSans-6e" x="498.507812"/>
      <use xlink:href="#DejaVuSans-63" x="561.886719"/>
      <use xlink:href="#DejaVuSans-65" x="616.867188"/>
      <use xlink:href="#DejaVuSans-20" x="678.390625"/>
      <use xlink:href="#DejaVuSans-5b" x="710.177734"/>
      <use xlink:href="#DejaVuSans-6d" x="749.191406"/>
      <use xlink:href="#DejaVuSans-6d" x="846.603516"/>
      <use xlink:href="#DejaVuSans-5d" x="944.015625"/>
     </g>
    </g>
   </g>
   <g id="line2d_25">
    <path d="M 76.720526 59.140662 
L 76.790626 59.227198 
L 76.936198 59.444714 
L 76.979254 59.488404 
L 77.027708 59.401091 
L 77.361355 59.227198 
L 77.543452 59.270577 
L 77.646153 59.227198 
L 78.005081 59.401091 
L 78.612598 59.488404 
L 79.177455 59.664007 
L 79.610644 59.929076 
L 80.899676 60.376629 
L 81.81477 60.421917 
L 82.483645 60.64858 
L 84.777305 61.764133 
L 88.49825 63.120558 
L 90.637859 63.87536 
L 91.783373 63.97748 
L 92.981554 63.97748 
L 96.128425 63.722179 
L 97.458274 63.722179 
L 102.3695 63.269298 
L 104.568359 63.071717 
L 106.819886 62.971817 
L 110.664599 62.385735 
L 113.008294 61.906214 
L 122.475241 61.386732 
L 123.26525 61.386732 
L 126.425288 62.241435 
L 128.795316 63.020657 
L 131.165345 63.97748 
L 131.955354 64.545802 
L 133.535373 66.155307 
L 135.115392 68.572895 
L 136.695411 72.013905 
L 137.485421 74.193952 
L 138.27543 76.71366 
L 139.06544 79.82833 
L 139.855449 83.524642 
L 140.645458 87.898055 
L 141.435468 93.337072 
L 142.225477 100.041493 
L 143.015487 107.855918 
L 143.805496 117.313147 
L 144.595506 128.923784 
L 145.385515 142.599027 
L 146.175525 159.426679 
L 146.965534 185.689362 
L 147.755544 225.383086 
L 148.545553 245.252148 
L 237.092448 245.252148 
L 237.882457 225.383086 
L 239.462476 176.565133 
L 240.252486 158.028075 
L 241.042495 145.085435 
L 241.832505 134.362801 
L 242.622514 125.660374 
L 244.202533 111.385729 
L 244.992543 105.147509 
L 246.572562 95.246278 
L 248.15258 87.542854 
L 249.732599 81.289095 
L 250.522609 78.867067 
L 251.312618 76.873501 
L 252.892637 73.832091 
L 253.550979 72.768708 
L 254.340988 71.947305 
L 255.130997 71.345683 
L 256.711016 70.497641 
L 257.501026 70.24234 
L 258.291035 69.862719 
L 259.871054 69.425377 
L 261.451073 68.934756 
L 264.611111 68.512955 
L 266.19113 68.814875 
L 268.561158 69.303277 
L 270.141177 69.363217 
L 270.931187 69.363217 
L 275.671244 68.215474 
L 276.461253 68.273194 
L 278.831282 68.934756 
L 280.411301 69.178957 
L 281.991319 69.178957 
L 282.781329 69.056856 
L 285.941367 68.155533 
L 286.731376 67.977933 
L 287.521386 68.037873 
L 289.891414 68.632835 
L 291.471433 68.996916 
L 293.051452 69.119016 
L 294.631471 68.814875 
L 296.21149 68.512955 
L 297.791509 68.333134 
L 299.371528 68.874816 
L 301.741556 69.674018 
L 304.111585 69.800559 
L 307.271622 69.119016 
L 308.061632 69.178957 
L 312.011679 70.690781 
L 313.591698 70.819542 
L 314.381708 70.690781 
L 315.961727 70.051419 
L 317.541746 69.611858 
L 318.331755 69.674018 
L 321.491793 70.690781 
L 323.071812 70.626401 
L 323.861821 70.562021 
L 326.23185 69.674018 
L 327.021859 69.425377 
L 327.811869 69.487538 
L 330.971907 70.562021 
L 333.341935 70.497641 
L 335.711963 69.611858 
L 336.501973 69.487538 
L 337.291982 69.611858 
L 340.45202 70.755162 
L 342.032039 70.755162 
L 342.822049 70.562021 
L 345.192077 69.674018 
L 345.982086 69.736178 
L 346.772096 69.924879 
L 349.142124 71.212483 
L 349.932134 71.543264 
L 351.512153 71.678684 
L 353.092172 71.212483 
L 353.882181 70.950522 
L 354.672191 70.819542 
L 355.4622 71.014902 
L 356.25221 71.476664 
L 358.622238 73.832091 
L 360.202257 74.859954 
L 360.992266 75.541497 
L 362.572285 76.160878 
L 363.362295 76.63374 
L 364.942314 79.213388 
L 366.522333 83.635642 
L 368.102352 88.608457 
L 368.892361 91.139265 
L 369.682371 94.202875 
L 370.47238 96.644883 
L 371.26239 99.686292 
L 372.052399 103.682305 
L 373.632418 114.80454 
L 374.422427 123.129566 
L 375.212437 133.186197 
L 376.002446 145.973437 
L 376.792456 164.088694 
L 377.582465 193.925588 
L 378.372475 245.252148 
L 429.459754 245.252148 
L 430.249763 185.689362 
L 430.5131 182.314951 
L 430.908104 182.314951 
L 431.039773 185.689362 
L 431.171441 193.925588 
L 431.434777 185.689362 
L 431.434777 179.295742 
L 431.829782 165.8203 
L 431.829782 165.8203 
L 431.96145 171.769918 
L 431.96145 182.314951 
L 431.96145 179.295742 
L 432.093119 169.638711 
L 432.093119 158.028075 
L 432.093119 158.028075 
L 432.224787 158.028075 
L 432.224787 158.028075 
L 432.224787 171.769918 
L 432.224787 149.791849 
L 432.224787 154.209663 
" clip-path="url(#pc039beee5a)" style="fill: none; stroke: #1f77b4; stroke-width: 1.5; stroke-linecap: square"/>
   </g>
   <g id="line2d_26">
    <path d="M 76.720526 290.673491 
L 359.412247 290.673491 
L 360.202257 270.782228 
L 360.992266 259.149392 
L 361.782276 244.519546 
L 362.572285 234.884716 
L 363.362295 227.691893 
L 365.732323 227.691893 
L 366.522333 231.066304 
L 367.312342 239.30253 
L 368.102352 244.519546 
L 368.892361 234.884716 
L 369.682371 227.691893 
L 371.26239 206.291026 
L 372.052399 199.586605 
L 374.422427 199.586605 
L 375.212437 204.825822 
L 376.002446 211.197242 
L 376.792456 211.197242 
L 377.582465 207.822831 
L 378.372475 203.427217 
L 379.162484 194.169788 
L 379.952494 186.421964 
L 380.742503 180.339145 
L 382.322522 180.339145 
L 383.112532 182.226151 
L 384.692551 196.212195 
L 385.48256 196.212195 
L 386.272569 193.192985 
L 387.062579 191.35038 
L 387.852588 180.960747 
L 388.642598 173.346123 
L 389.432607 167.329904 
L 391.012626 167.329904 
L 391.802636 170.615515 
L 392.592645 176.365333 
L 393.382655 183.558155 
L 394.172664 182.892153 
L 395.752683 178.008138 
L 396.542693 169.350111 
L 397.332702 162.046288 
L 398.122711 160.492283 
L 399.70273 160.492283 
L 400.49274 165.465098 
L 401.282749 168.928309 
L 401.941091 176.365333 
L 402.7311 187.198967 
L 403.52111 206.291026 
L 404.311119 194.169788 
L 404.96946 175.321929 
L 406.417811 155.719268 
L 407.20782 150.546652 
L 407.866162 149.481048 
L 409.314512 147.860443 
L 409.972854 149.281248 
L 410.631195 153.965462 
L 411.421204 158.716277 
L 412.079545 158.139075 
L 412.737887 156.25207 
L 414.054569 143.842231 
L 414.581242 138.714015 
L 415.897925 137.18221 
L 416.424598 136.649408 
L 417.082939 139.135816 
L 417.609612 142.843227 
L 418.267953 142.510226 
L 419.321299 140.46782 
L 420.374645 132.009594 
L 421.822996 130.144788 
L 422.349669 132.453595 
L 422.744673 135.472804 
L 423.271346 134.718002 
L 423.666351 134.362801 
L 424.061356 133.385998 
L 424.851365 126.481776 
L 426.036379 125.038772 
L 426.431384 127.436379 
L 426.694721 129.833987 
L 427.748067 128.302182 
L 428.27474 122.263763 
L 429.064749 120.842959 
L 429.328086 122.752165 
L 429.459754 124.861171 
L 430.118095 122.752165 
L 430.249763 120.021556 
L 430.644768 117.202147 
L 430.908104 116.469545 
L 431.171441 120.310157 
L 431.434777 119.000353 
L 431.698114 114.316138 
L 431.829782 114.071937 
L 431.829782 113.827737 
L 431.96145 115.825743 
L 431.96145 117.668349 
L 431.96145 117.068947 
L 432.093119 116.935746 
L 432.093119 112.606733 
L 432.224787 112.429132 
L 432.224787 116.469545 
L 432.224787 110.408926 
L 432.224787 111.319129 
" clip-path="url(#pc039beee5a)" style="fill: none; stroke: #ff7f0e; stroke-width: 1.5; stroke-linecap: square"/>
   </g>
   <g id="line2d_27">
    <path d="M 76.720526 291.783494 
L 370.47238 291.783494 
L 371.26239 271.892232 
L 376.002446 271.892232 
L 376.792456 240.434733 
L 378.372475 216.147857 
L 379.162484 207.40103 
L 379.952494 201.939813 
L 382.322522 201.939813 
L 383.112532 207.40103 
L 383.902541 216.147857 
L 384.692551 228.801897 
L 387.062579 196.300995 
L 388.642598 180.849747 
L 391.012626 180.849747 
L 392.592645 193.392786 
L 393.382655 204.537221 
L 394.172664 198.432202 
L 394.962674 193.392786 
L 395.752683 182.07075 
L 396.542693 173.079722 
L 397.332702 165.8647 
L 399.70273 165.8647 
L 400.49274 168.462108 
L 401.282749 172.613521 
L 401.941091 179.695343 
L 402.7311 189.907375 
L 403.52111 207.40103 
L 404.311119 184.002156 
L 404.96946 171.303717 
L 405.75947 162.534689 
L 406.417811 157.362073 
L 407.20782 152.544658 
L 407.866162 151.656655 
L 409.314512 149.99165 
L 409.972854 153.432661 
L 411.421204 162.223888 
L 412.079545 160.114882 
L 412.737887 158.427676 
L 413.396228 151.656655 
L 414.581242 141.600024 
L 416.424598 139.402217 
L 417.082939 141.910825 
L 417.609612 144.796834 
L 418.267953 143.64243 
L 419.321299 141.289223 
L 420.374645 133.363798 
L 421.427991 132.142794 
L 421.822996 131.587792 
L 422.349669 133.696799 
L 422.744673 136.094406 
L 423.271346 135.472804 
L 424.061356 133.696799 
L 424.45636 129.922787 
L 424.851365 127.525179 
L 426.036379 126.059975 
L 426.431384 127.79158 
L 426.694721 129.922787 
L 427.089725 129.434385 
L 427.353062 128.746183 
L 427.748067 127.325379 
L 428.27474 121.37576 
L 429.064749 120.132556 
L 429.328086 121.664361 
L 429.459754 123.462567 
L 430.118095 122.352563 
L 430.249763 119.843955 
L 430.644768 117.845949 
L 430.908104 117.335348 
L 431.171441 120.842959 
L 431.434777 120.421157 
L 431.434777 119.266754 
L 431.698114 116.114344 
L 431.829782 115.936743 
L 431.829782 115.736943 
L 431.96145 117.446348 
L 431.96145 119.133553 
L 431.96145 119.000353 
L 432.093119 118.933753 
L 432.093119 114.671339 
L 432.224787 114.427138 
L 432.224787 117.712749 
L 432.224787 112.229332 
L 432.224787 112.984134 
" clip-path="url(#pc039beee5a)" style="fill: none; stroke: #2ca02c; stroke-width: 1.5; stroke-linecap: square"/>
   </g>
   <g id="line2d_28">
    <path d="M 76.720526 58.215674 
L 76.73859 58.312689 
L 76.865097 58.507605 
L 77.027708 58.361307 
L 77.208225 58.26407 
L 77.448651 58.167278 
L 77.75715 58.215674 
L 78.142543 58.167278 
L 78.446696 58.119104 
L 78.612598 58.022756 
L 78.79035 58.119104 
L 82.483645 57.124319 
L 82.836516 56.846818 
L 83.201237 56.891218 
L 84.777305 56.207456 
L 87.014349 55.406033 
L 87.496255 55.188473 
L 89.546329 54.755571 
L 90.084852 54.542451 
L 94.206068 53.994109 
L 100.934316 54.036289 
L 103.831017 54.41369 
L 106.819886 55.015312 
L 115.365155 55.892215 
L 128.795316 56.706958 
L 130.375335 56.891218 
L 135.905402 57.640914 
L 138.27543 58.605507 
L 139.06544 59.050397 
L 140.645458 60.375741 
L 142.225477 62.319135 
L 143.015487 63.691099 
L 143.805496 65.318364 
L 145.385515 69.518618 
L 146.965534 75.130795 
L 147.755544 78.855967 
L 148.545553 83.258241 
L 149.335563 88.586257 
L 150.125572 94.979877 
L 150.915582 102.527901 
L 151.705591 111.541129 
L 152.495601 122.396963 
L 153.28561 136.138806 
L 154.075619 153.854462 
L 154.865629 178.141338 
L 156.445648 241.078535 
L 244.992543 241.078535 
L 245.782552 221.231673 
L 246.572562 189.751975 
L 247.362571 172.39152 
L 248.15258 158.272276 
L 249.732599 135.406204 
L 251.312618 119.777355 
L 252.102628 113.139534 
L 253.550979 102.527901 
L 255.130997 94.291675 
L 255.921007 90.917265 
L 259.081045 79.561929 
L 260.661064 75.659157 
L 261.451073 74.356013 
L 262.241083 73.60121 
L 263.031092 73.108369 
L 263.821102 73.51685 
L 264.611111 74.697894 
L 265.401121 76.5627 
L 266.19113 79.561929 
L 266.98114 83.724442 
L 267.771149 89.163459 
L 268.561158 95.86788 
L 269.351168 104.170706 
L 270.141177 114.493739 
L 270.931187 127.347579 
L 271.721196 143.64243 
L 272.511206 165.487298 
L 274.091225 241.078535 
L 367.312342 241.078535 
L 368.102352 185.334161 
L 369.682371 144.619233 
L 370.47238 129.589786 
L 371.26239 117.779349 
L 372.052399 107.767118 
L 373.632418 92.804271 
L 375.212437 81.133694 
L 376.792456 70.915002 
L 378.372475 62.769797 
L 379.952494 55.983235 
L 380.742503 53.374727 
L 381.532513 51.438881 
L 382.322522 49.913736 
L 383.112532 48.952473 
L 383.902541 48.226531 
L 386.272569 47.120967 
L 389.432607 46.375045 
L 391.012626 46.121964 
L 393.382655 46.408345 
L 394.962674 45.995424 
L 397.332702 44.87876 
L 399.70273 44.428099 
L 400.49274 44.488039 
L 401.282749 44.428099 
L 403.52111 44.78774 
L 407.20782 42.827474 
L 408.656171 42.574393 
L 409.314512 42.518893 
L 411.421204 43.227075 
L 412.737887 42.914054 
L 414.581242 41.52877 
L 415.897925 41.286789 
L 416.424598 41.286789 
L 417.082939 41.55541 
L 417.609612 41.910611 
L 419.321299 41.63755 
L 420.901318 40.782848 
L 421.822996 40.729567 
L 422.349669 41.153589 
L 422.744673 41.69083 
L 424.061356 41.63755 
L 424.851365 40.913828 
L 425.641375 41.047028 
L 426.036379 41.020388 
L 426.694721 42.019391 
L 427.748067 41.828471 
L 428.27474 40.729567 
L 429.064749 40.363266 
L 429.459754 41.260149 
L 430.118095 40.940468 
L 430.249763 40.363266 
L 430.644768 39.748324 
L 430.908104 39.672844 
L 431.171441 40.756208 
L 431.434777 40.520887 
L 431.829782 38.946902 
L 431.829782 38.946902 
L 431.96145 39.444183 
L 431.96145 39.976985 
L 431.96145 39.901505 
L 432.093119 39.901505 
L 432.093119 39.976985 
L 432.093119 38.847002 
L 432.224787 38.922482 
L 432.224787 38.922482 
L 432.224787 40.261146 
L 432.224787 38.578381 
L 432.224787 38.946902 
" clip-path="url(#pc039beee5a)" style="fill: none; stroke: #d62728; stroke-width: 1.5; stroke-linecap: square"/>
   </g>
   <g id="patch_3">
    <path d="M 58.945313 304.44375 
L 58.945313 25.918125 
" style="fill: none; stroke: #000000; stroke-width: 0.8; stroke-linejoin: miter; stroke-linecap: square"/>
   </g>
   <g id="patch_4">
    <path d="M 450 304.44375 
L 450 25.918125 
" style="fill: none; stroke: #000000; stroke-width: 0.8; stroke-linejoin: miter; stroke-linecap: square"/>
   </g>
   <g id="patch_5">
    <path d="M 58.945313 304.44375 
L 450 304.44375 
" style="fill: none; stroke: #000000; stroke-width: 0.8; stroke-linejoin: miter; stroke-linecap: square"/>
   </g>
   <g id="patch_6">
    <path d="M 58.945313 25.918125 
L 450 25.918125 
" style="fill: none; stroke: #000000; stroke-width: 0.8; stroke-linejoin: miter; stroke-linecap: square"/>
   </g>
   <g id="text_15">
    <!-- Wall Distance [mm] -->
    <g transform="translate(195.492656 19.918125)scale(0.12 -0.12)">
     <use xlink:href="#DejaVuSans-57"/>
     <use xlink:href="#DejaVuSans-61" x="92.501953"/>
     <use xlink:href="#DejaVuSans-6c" x="153.78125"/>
     <use xlink:href="#DejaVuSans-6c" x="181.564453"/>
     <use xlink:href="#DejaVuSans-20" x="209.347656"/>
     <use xlink:href="#DejaVuSans-44" x="241.134766"/>
     <use xlink:href="#DejaVuSans-69" x="318.136719"/>
     <use xlink:href="#DejaVuSans-73" x="345.919922"/>
     <use xlink:href="#DejaVuSans-74" x="398.019531"/>
     <use xlink:href="#DejaVuSans-61" x="437.228516"/>
     <use xlink:href="#DejaVuSans-6e" x="498.507812"/>
     <use xlink:href="#DejaVuSans-63" x="561.886719"/>
     <use xlink:href="#DejaVuSans-65" x="616.867188"/>
     <use xlink:href="#DejaVuSans-20" x="678.390625"/>
     <use xlink:href="#DejaVuSans-5b" x="710.177734"/>
     <use xlink:href="#DejaVuSans-6d" x="749.191406"/>
     <use xlink:href="#DejaVuSans-6d" x="846.603516"/>
     <use xlink:href="#DejaVuSans-5d" x="944.015625"/>
    </g>
   </g>
   <g id="legend_1">
    <g id="patch_7">
     <path d="M 65.945312 196.037187 
L 152.745313 196.037187 
Q 154.745313 196.037187 154.745313 194.037187 
L 154.745313 136.324687 
Q 154.745313 134.324687 152.745313 134.324687 
L 65.945312 134.324687 
Q 63.945312 134.324687 63.945312 136.324687 
L 63.945312 194.037187 
Q 63.945312 196.037187 65.945312 196.037187 
z
" style="fill: #ffffff; opacity: 0.8; stroke: #cccccc; stroke-linejoin: miter"/>
    </g>
    <g id="line2d_29">
     <path d="M 67.945312 142.423125 
L 77.945312 142.423125 
L 87.945312 142.423125 
" style="fill: none; stroke: #1f77b4; stroke-width: 1.5; stroke-linecap: square"/>
    </g>
    <g id="text_16">
     <!-- Left Side -->
     <g transform="translate(95.945312 145.923125)scale(0.1 -0.1)">
      <defs>
       <path id="DejaVuSans-4c" d="M 628 4666 
L 1259 4666 
L 1259 531 
L 3531 531 
L 3531 0 
L 628 0 
L 628 4666 
z
" transform="scale(0.015625)"/>
       <path id="DejaVuSans-66" d="M 2375 4863 
L 2375 4384 
L 1825 4384 
Q 1516 4384 1395 4259 
Q 1275 4134 1275 3809 
L 1275 3500 
L 2222 3500 
L 2222 3053 
L 1275 3053 
L 1275 0 
L 697 0 
L 697 3053 
L 147 3053 
L 147 3500 
L 697 3500 
L 697 3744 
Q 697 4328 969 4595 
Q 1241 4863 1831 4863 
L 2375 4863 
z
" transform="scale(0.015625)"/>
       <path id="DejaVuSans-53" d="M 3425 4513 
L 3425 3897 
Q 3066 4069 2747 4153 
Q 2428 4238 2131 4238 
Q 1616 4238 1336 4038 
Q 1056 3838 1056 3469 
Q 1056 3159 1242 3001 
Q 1428 2844 1947 2747 
L 2328 2669 
Q 3034 2534 3370 2195 
Q 3706 1856 3706 1288 
Q 3706 609 3251 259 
Q 2797 -91 1919 -91 
Q 1588 -91 1214 -16 
Q 841 59 441 206 
L 441 856 
Q 825 641 1194 531 
Q 1563 422 1919 422 
Q 2459 422 2753 634 
Q 3047 847 3047 1241 
Q 3047 1584 2836 1778 
Q 2625 1972 2144 2069 
L 1759 2144 
Q 1053 2284 737 2584 
Q 422 2884 422 3419 
Q 422 4038 858 4394 
Q 1294 4750 2059 4750 
Q 2388 4750 2728 4690 
Q 3069 4631 3425 4513 
z
" transform="scale(0.015625)"/>
       <path id="DejaVuSans-64" d="M 2906 2969 
L 2906 4863 
L 3481 4863 
L 3481 0 
L 2906 0 
L 2906 525 
Q 2725 213 2448 61 
Q 2172 -91 1784 -91 
Q 1150 -91 751 415 
Q 353 922 353 1747 
Q 353 2572 751 3078 
Q 1150 3584 1784 3584 
Q 2172 3584 2448 3432 
Q 2725 3281 2906 2969 
z
M 947 1747 
Q 947 1113 1208 752 
Q 1469 391 1925 391 
Q 2381 391 2643 752 
Q 2906 1113 2906 1747 
Q 2906 2381 2643 2742 
Q 2381 3103 1925 3103 
Q 1469 3103 1208 2742 
Q 947 2381 947 1747 
z
" transform="scale(0.015625)"/>
      </defs>
      <use xlink:href="#DejaVuSans-4c"/>
      <use xlink:href="#DejaVuSans-65" x="53.962891"/>
      <use xlink:href="#DejaVuSans-66" x="115.486328"/>
      <use xlink:href="#DejaVuSans-74" x="148.941406"/>
      <use xlink:href="#DejaVuSans-20" x="188.150391"/>
      <use xlink:href="#DejaVuSans-53" x="219.9375"/>
      <use xlink:href="#DejaVuSans-69" x="283.414062"/>
      <use xlink:href="#DejaVuSans-64" x="311.197266"/>
      <use xlink:href="#DejaVuSans-65" x="374.673828"/>
     </g>
    </g>
    <g id="line2d_30">
     <path d="M 67.945312 157.10125 
L 77.945312 157.10125 
L 87.945312 157.10125 
" style="fill: none; stroke: #ff7f0e; stroke-width: 1.5; stroke-linecap: square"/>
    </g>
    <g id="text_17">
     <!-- Left Front -->
     <g transform="translate(95.945312 160.60125)scale(0.1 -0.1)">
      <defs>
       <path id="DejaVuSans-46" d="M 628 4666 
L 3309 4666 
L 3309 4134 
L 1259 4134 
L 1259 2759 
L 3109 2759 
L 3109 2228 
L 1259 2228 
L 1259 0 
L 628 0 
L 628 4666 
z
" transform="scale(0.015625)"/>
      </defs>
      <use xlink:href="#DejaVuSans-4c"/>
      <use xlink:href="#DejaVuSans-65" x="53.962891"/>
      <use xlink:href="#DejaVuSans-66" x="115.486328"/>
      <use xlink:href="#DejaVuSans-74" x="148.941406"/>
      <use xlink:href="#DejaVuSans-20" x="188.150391"/>
      <use xlink:href="#DejaVuSans-46" x="219.9375"/>
      <use xlink:href="#DejaVuSans-72" x="270.207031"/>
      <use xlink:href="#DejaVuSans-6f" x="309.070312"/>
      <use xlink:href="#DejaVuSans-6e" x="370.251953"/>
      <use xlink:href="#DejaVuSans-74" x="433.630859"/>
     </g>
    </g>
    <g id="line2d_31">
     <path d="M 67.945312 171.779375 
L 77.945312 171.779375 
L 87.945312 171.779375 
" style="fill: none; stroke: #2ca02c; stroke-width: 1.5; stroke-linecap: square"/>
    </g>
    <g id="text_18">
     <!-- Right Front -->
     <g transform="translate(95.945312 175.279375)scale(0.1 -0.1)">
      <defs>
       <path id="DejaVuSans-52" d="M 2841 2188 
Q 3044 2119 3236 1894 
Q 3428 1669 3622 1275 
L 4263 0 
L 3584 0 
L 2988 1197 
Q 2756 1666 2539 1819 
Q 2322 1972 1947 1972 
L 1259 1972 
L 1259 0 
L 628 0 
L 628 4666 
L 2053 4666 
Q 2853 4666 3247 4331 
Q 3641 3997 3641 3322 
Q 3641 2881 3436 2590 
Q 3231 2300 2841 2188 
z
M 1259 4147 
L 1259 2491 
L 2053 2491 
Q 2509 2491 2742 2702 
Q 2975 2913 2975 3322 
Q 2975 3731 2742 3939 
Q 2509 4147 2053 4147 
L 1259 4147 
z
" transform="scale(0.015625)"/>
       <path id="DejaVuSans-67" d="M 2906 1791 
Q 2906 2416 2648 2759 
Q 2391 3103 1925 3103 
Q 1463 3103 1205 2759 
Q 947 2416 947 1791 
Q 947 1169 1205 825 
Q 1463 481 1925 481 
Q 2391 481 2648 825 
Q 2906 1169 2906 1791 
z
M 3481 434 
Q 3481 -459 3084 -895 
Q 2688 -1331 1869 -1331 
Q 1566 -1331 1297 -1286 
Q 1028 -1241 775 -1147 
L 775 -588 
Q 1028 -725 1275 -790 
Q 1522 -856 1778 -856 
Q 2344 -856 2625 -561 
Q 2906 -266 2906 331 
L 2906 616 
Q 2728 306 2450 153 
Q 2172 0 1784 0 
Q 1141 0 747 490 
Q 353 981 353 1791 
Q 353 2603 747 3093 
Q 1141 3584 1784 3584 
Q 2172 3584 2450 3431 
Q 2728 3278 2906 2969 
L 2906 3500 
L 3481 3500 
L 3481 434 
z
" transform="scale(0.015625)"/>
       <path id="DejaVuSans-68" d="M 3513 2113 
L 3513 0 
L 2938 0 
L 2938 2094 
Q 2938 2591 2744 2837 
Q 2550 3084 2163 3084 
Q 1697 3084 1428 2787 
Q 1159 2491 1159 1978 
L 1159 0 
L 581 0 
L 581 4863 
L 1159 4863 
L 1159 2956 
Q 1366 3272 1645 3428 
Q 1925 3584 2291 3584 
Q 2894 3584 3203 3211 
Q 3513 2838 3513 2113 
z
" transform="scale(0.015625)"/>
      </defs>
      <use xlink:href="#DejaVuSans-52"/>
      <use xlink:href="#DejaVuSans-69" x="69.482422"/>
      <use xlink:href="#DejaVuSans-67" x="97.265625"/>
      <use xlink:href="#DejaVuSans-68" x="160.742188"/>
      <use xlink:href="#DejaVuSans-74" x="224.121094"/>
      <use xlink:href="#DejaVuSans-20" x="263.330078"/>
      <use xlink:href="#DejaVuSans-46" x="295.117188"/>
      <use xlink:href="#DejaVuSans-72" x="345.386719"/>
      <use xlink:href="#DejaVuSans-6f" x="384.25"/>
      <use xlink:href="#DejaVuSans-6e" x="445.431641"/>
      <use xlink:href="#DejaVuSans-74" x="508.810547"/>
     </g>
    </g>
    <g id="line2d_32">
     <path d="M 67.945312 186.4575 
L 77.945312 186.4575 
L 87.945312 186.4575 
" style="fill: none; stroke: #d62728; stroke-width: 1.5; stroke-linecap: square"/>
    </g>
    <g id="text_19">
     <!-- Right Side -->
     <g transform="translate(95.945312 189.9575)scale(0.1 -0.1)">
      <use xlink:href="#DejaVuSans-52"/>
      <use xlink:href="#DejaVuSans-69" x="69.482422"/>
      <use xlink:href="#DejaVuSans-67" x="97.265625"/>
      <use xlink:href="#DejaVuSans-68" x="160.742188"/>
      <use xlink:href="#DejaVuSans-74" x="224.121094"/>
      <use xlink:href="#DejaVuSans-20" x="263.330078"/>
      <use xlink:href="#DejaVuSans-53" x="295.117188"/>
      <use xlink:href="#DejaVuSans-69" x="358.59375"/>
      <use xlink:href="#DejaVuSans-64" x="386.376953"/>
      <use xlink:href="#DejaVuSans-65" x="449.853516"/>
     </g>
    </g>
   </g>
  </g>
 </g>
 <defs>
  <clipPath id="pc039beee5a">
   <rect x="58.945313" y="25.918125" width="391.054687" height="278.525625"/>
  </clipPath>
 </defs>
</svg>
