<?xml version="1.0" encoding="utf-8" standalone="no"?>
<!DOCTYPE svg PUBLIC "-//W3C//DTD SVG 1.1//EN"
  "http://www.w3.org/Graphics/SVG/1.1/DTD/svg11.dtd">
<svg xmlns:xlink="http://www.w3.org/1999/xlink" width="460.8pt" height="345.6pt" viewBox="0 0 460.8 345.6" xmlns="http://www.w3.org/2000/svg" version="1.1">
 <metadata>
  <rdf:RDF xmlns:dc="http://purl.org/dc/elements/1.1/" xmlns:cc="http://creativecommons.org/ns#" xmlns:rdf="http://www.w3.org/1999/02/22-rdf-syntax-ns#">
   <cc:Work>
    <dc:type rdf:resource="http://purl.org/dc/dcmitype/StillImage"/>
    <dc:date>2022-01-15T23:47:02.556735</dc:date>
    <dc:format>image/svg+xml</dc:format>
    <dc:creator>
     <cc:Agent>
      <dc:title>Matplotlib v3.5.1, https://matplotlib.org/</dc:title>
     </cc:Agent>
    </dc:creator>
   </cc:Work>
  </rdf:RDF>
 </metadata>
 <defs>
  <style type="text/css">*{stroke-linejoin: round; stroke-linecap: butt}</style>
 </defs>
 <g id="figure_1">
  <g id="patch_1">
   <path d="M 0 345.6 
L 460.8 345.6 
L 460.8 0 
L 0 0 
z
" style="fill: #ffffff"/>
  </g>
  <g id="axes_1">
   <g id="patch_2">
    <path d="M 56.928125 161.67875 
L 450 161.67875 
L 450 48.331875 
L 56.928125 48.331875 
z
" style="fill: #ffffff"/>
   </g>
   <g id="matplotlib.axis_1">
    <g id="xtick_1">
     <g id="line2d_1">
      <path d="M 74.795028 161.67875 
L 74.795028 48.331875 
" clip-path="url(#pc599e9d32d)" style="fill: none; stroke: #b0b0b0; stroke-width: 0.8; stroke-linecap: square"/>
     </g>
     <g id="line2d_2">
      <defs>
       <path id="m3185c914a2" d="M 0 0 
L 0 3.5 
" style="stroke: #000000; stroke-width: 0.8"/>
      </defs>
      <g>
       <use xlink:href="#m3185c914a2" x="74.795028" y="161.67875" style="stroke: #000000; stroke-width: 0.8"/>
      </g>
     </g>
    </g>
    <g id="xtick_2">
     <g id="line2d_3">
      <path d="M 124.425316 161.67875 
L 124.425316 48.331875 
" clip-path="url(#pc599e9d32d)" style="fill: none; stroke: #b0b0b0; stroke-width: 0.8; stroke-linecap: square"/>
     </g>
     <g id="line2d_4">
      <g>
       <use xlink:href="#m3185c914a2" x="124.425316" y="161.67875" style="stroke: #000000; stroke-width: 0.8"/>
      </g>
     </g>
    </g>
    <g id="xtick_3">
     <g id="line2d_5">
      <path d="M 174.055603 161.67875 
L 174.055603 48.331875 
" clip-path="url(#pc599e9d32d)" style="fill: none; stroke: #b0b0b0; stroke-width: 0.8; stroke-linecap: square"/>
     </g>
     <g id="line2d_6">
      <g>
       <use xlink:href="#m3185c914a2" x="174.055603" y="161.67875" style="stroke: #000000; stroke-width: 0.8"/>
      </g>
     </g>
    </g>
    <g id="xtick_4">
     <g id="line2d_7">
      <path d="M 223.68589 161.67875 
L 223.68589 48.331875 
" clip-path="url(#pc599e9d32d)" style="fill: none; stroke: #b0b0b0; stroke-width: 0.8; stroke-linecap: square"/>
     </g>
     <g id="line2d_8">
      <g>
       <use xlink:href="#m3185c914a2" x="223.68589" y="161.67875" style="stroke: #000000; stroke-width: 0.8"/>
      </g>
     </g>
    </g>
    <g id="xtick_5">
     <g id="line2d_9">
      <path d="M 273.316177 161.67875 
L 273.316177 48.331875 
" clip-path="url(#pc599e9d32d)" style="fill: none; stroke: #b0b0b0; stroke-width: 0.8; stroke-linecap: square"/>
     </g>
     <g id="line2d_10">
      <g>
       <use xlink:href="#m3185c914a2" x="273.316177" y="161.67875" style="stroke: #000000; stroke-width: 0.8"/>
      </g>
     </g>
    </g>
    <g id="xtick_6">
     <g id="line2d_11">
      <path d="M 322.946465 161.67875 
L 322.946465 48.331875 
" clip-path="url(#pc599e9d32d)" style="fill: none; stroke: #b0b0b0; stroke-width: 0.8; stroke-linecap: square"/>
     </g>
     <g id="line2d_12">
      <g>
       <use xlink:href="#m3185c914a2" x="322.946465" y="161.67875" style="stroke: #000000; stroke-width: 0.8"/>
      </g>
     </g>
    </g>
    <g id="xtick_7">
     <g id="line2d_13">
      <path d="M 372.576752 161.67875 
L 372.576752 48.331875 
" clip-path="url(#pc599e9d32d)" style="fill: none; stroke: #b0b0b0; stroke-width: 0.8; stroke-linecap: square"/>
     </g>
     <g id="line2d_14">
      <g>
       <use xlink:href="#m3185c914a2" x="372.576752" y="161.67875" style="stroke: #000000; stroke-width: 0.8"/>
      </g>
     </g>
    </g>
    <g id="xtick_8">
     <g id="line2d_15">
      <path d="M 422.207039 161.67875 
L 422.207039 48.331875 
" clip-path="url(#pc599e9d32d)" style="fill: none; stroke: #b0b0b0; stroke-width: 0.8; stroke-linecap: square"/>
     </g>
     <g id="line2d_16">
      <g>
       <use xlink:href="#m3185c914a2" x="422.207039" y="161.67875" style="stroke: #000000; stroke-width: 0.8"/>
      </g>
     </g>
    </g>
   </g>
   <g id="matplotlib.axis_2">
    <g id="ytick_1">
     <g id="line2d_17">
      <path d="M 56.928125 156.56056 
L 450 156.56056 
" clip-path="url(#pc599e9d32d)" style="fill: none; stroke: #b0b0b0; stroke-width: 0.8; stroke-linecap: square"/>
     </g>
     <g id="line2d_18">
      <defs>
       <path id="mc9199f042f" d="M 0 0 
L -3.5 0 
" style="stroke: #000000; stroke-width: 0.8"/>
      </defs>
      <g>
       <use xlink:href="#mc9199f042f" x="56.928125" y="156.56056" style="stroke: #000000; stroke-width: 0.8"/>
      </g>
     </g>
     <g id="text_1">
      <!-- 0 -->
      <g transform="translate(43.565625 160.359778)scale(0.1 -0.1)">
       <defs>
        <path id="DejaVuSans-30" d="M 2034 4250 
Q 1547 4250 1301 3770 
Q 1056 3291 1056 2328 
Q 1056 1369 1301 889 
Q 1547 409 2034 409 
Q 2525 409 2770 889 
Q 3016 1369 3016 2328 
Q 3016 3291 2770 3770 
Q 2525 4250 2034 4250 
z
M 2034 4750 
Q 2819 4750 3233 4129 
Q 3647 3509 3647 2328 
Q 3647 1150 3233 529 
Q 2819 -91 2034 -91 
Q 1250 -91 836 529 
Q 422 1150 422 2328 
Q 422 3509 836 4129 
Q 1250 4750 2034 4750 
z
" transform="scale(0.015625)"/>
       </defs>
       <use xlink:href="#DejaVuSans-30"/>
      </g>
     </g>
    </g>
    <g id="ytick_2">
     <g id="line2d_19">
      <path d="M 56.928125 122.620305 
L 450 122.620305 
" clip-path="url(#pc599e9d32d)" style="fill: none; stroke: #b0b0b0; stroke-width: 0.8; stroke-linecap: square"/>
     </g>
     <g id="line2d_20">
      <g>
       <use xlink:href="#mc9199f042f" x="56.928125" y="122.620305" style="stroke: #000000; stroke-width: 0.8"/>
      </g>
     </g>
     <g id="text_2">
      <!-- 1000 -->
      <g transform="translate(24.478125 126.419524)scale(0.1 -0.1)">
       <defs>
        <path id="DejaVuSans-31" d="M 794 531 
L 1825 531 
L 1825 4091 
L 703 3866 
L 703 4441 
L 1819 4666 
L 2450 4666 
L 2450 531 
L 3481 531 
L 3481 0 
L 794 0 
L 794 531 
z
" transform="scale(0.015625)"/>
       </defs>
       <use xlink:href="#DejaVuSans-31"/>
       <use xlink:href="#DejaVuSans-30" x="63.623047"/>
       <use xlink:href="#DejaVuSans-30" x="127.246094"/>
       <use xlink:href="#DejaVuSans-30" x="190.869141"/>
      </g>
     </g>
    </g>
    <g id="ytick_3">
     <g id="line2d_21">
      <path d="M 56.928125 88.68005 
L 450 88.68005 
" clip-path="url(#pc599e9d32d)" style="fill: none; stroke: #b0b0b0; stroke-width: 0.8; stroke-linecap: square"/>
     </g>
     <g id="line2d_22">
      <g>
       <use xlink:href="#mc9199f042f" x="56.928125" y="88.68005" style="stroke: #000000; stroke-width: 0.8"/>
      </g>
     </g>
     <g id="text_3">
      <!-- 2000 -->
      <g transform="translate(24.478125 92.479269)scale(0.1 -0.1)">
       <defs>
        <path id="DejaVuSans-32" d="M 1228 531 
L 3431 531 
L 3431 0 
L 469 0 
L 469 531 
Q 828 903 1448 1529 
Q 2069 2156 2228 2338 
Q 2531 2678 2651 2914 
Q 2772 3150 2772 3378 
Q 2772 3750 2511 3984 
Q 2250 4219 1831 4219 
Q 1534 4219 1204 4116 
Q 875 4013 500 3803 
L 500 4441 
Q 881 4594 1212 4672 
Q 1544 4750 1819 4750 
Q 2544 4750 2975 4387 
Q 3406 4025 3406 3419 
Q 3406 3131 3298 2873 
Q 3191 2616 2906 2266 
Q 2828 2175 2409 1742 
Q 1991 1309 1228 531 
z
" transform="scale(0.015625)"/>
       </defs>
       <use xlink:href="#DejaVuSans-32"/>
       <use xlink:href="#DejaVuSans-30" x="63.623047"/>
       <use xlink:href="#DejaVuSans-30" x="127.246094"/>
       <use xlink:href="#DejaVuSans-30" x="190.869141"/>
      </g>
     </g>
    </g>
    <g id="ytick_4">
     <g id="line2d_23">
      <path d="M 56.928125 54.739795 
L 450 54.739795 
" clip-path="url(#pc599e9d32d)" style="fill: none; stroke: #b0b0b0; stroke-width: 0.8; stroke-linecap: square"/>
     </g>
     <g id="line2d_24">
      <g>
       <use xlink:href="#mc9199f042f" x="56.928125" y="54.739795" style="stroke: #000000; stroke-width: 0.8"/>
      </g>
     </g>
     <g id="text_4">
      <!-- 3000 -->
      <g transform="translate(24.478125 58.539014)scale(0.1 -0.1)">
       <defs>
        <path id="DejaVuSans-33" d="M 2597 2516 
Q 3050 2419 3304 2112 
Q 3559 1806 3559 1356 
Q 3559 666 3084 287 
Q 2609 -91 1734 -91 
Q 1441 -91 1130 -33 
Q 819 25 488 141 
L 488 750 
Q 750 597 1062 519 
Q 1375 441 1716 441 
Q 2309 441 2620 675 
Q 2931 909 2931 1356 
Q 2931 1769 2642 2001 
Q 2353 2234 1838 2234 
L 1294 2234 
L 1294 2753 
L 1863 2753 
Q 2328 2753 2575 2939 
Q 2822 3125 2822 3475 
Q 2822 3834 2567 4026 
Q 2313 4219 1838 4219 
Q 1578 4219 1281 4162 
Q 984 4106 628 3988 
L 628 4550 
Q 988 4650 1302 4700 
Q 1616 4750 1894 4750 
Q 2613 4750 3031 4423 
Q 3450 4097 3450 3541 
Q 3450 3153 3228 2886 
Q 3006 2619 2597 2516 
z
" transform="scale(0.015625)"/>
       </defs>
       <use xlink:href="#DejaVuSans-33"/>
       <use xlink:href="#DejaVuSans-30" x="63.623047"/>
       <use xlink:href="#DejaVuSans-30" x="127.246094"/>
       <use xlink:href="#DejaVuSans-30" x="190.869141"/>
      </g>
     </g>
    </g>
    <g id="text_5">
     <!-- reflector value -->
     <g transform="translate(18.398438 141.321719)rotate(-90)scale(0.1 -0.1)">
      <defs>
       <path id="DejaVuSans-72" d="M 2631 2963 
Q 2534 3019 2420 3045 
Q 2306 3072 2169 3072 
Q 1681 3072 1420 2755 
Q 1159 2438 1159 1844 
L 1159 0 
L 581 0 
L 581 3500 
L 1159 3500 
L 1159 2956 
Q 1341 3275 1631 3429 
Q 1922 3584 2338 3584 
Q 2397 3584 2469 3576 
Q 2541 3569 2628 3553 
L 2631 2963 
z
" transform="scale(0.015625)"/>
       <path id="DejaVuSans-65" d="M 3597 1894 
L 3597 1613 
L 953 1613 
Q 991 1019 1311 708 
Q 1631 397 2203 397 
Q 2534 397 2845 478 
Q 3156 559 3463 722 
L 3463 178 
Q 3153 47 2828 -22 
Q 2503 -91 2169 -91 
Q 1331 -91 842 396 
Q 353 884 353 1716 
Q 353 2575 817 3079 
Q 1281 3584 2069 3584 
Q 2775 3584 3186 3129 
Q 3597 2675 3597 1894 
z
M 3022 2063 
Q 3016 2534 2758 2815 
Q 2500 3097 2075 3097 
Q 1594 3097 1305 2825 
Q 1016 2553 972 2059 
L 3022 2063 
z
" transform="scale(0.015625)"/>
       <path id="DejaVuSans-66" d="M 2375 4863 
L 2375 4384 
L 1825 4384 
Q 1516 4384 1395 4259 
Q 1275 4134 1275 3809 
L 1275 3500 
L 2222 3500 
L 2222 3053 
L 1275 3053 
L 1275 0 
L 697 0 
L 697 3053 
L 147 3053 
L 147 3500 
L 697 3500 
L 697 3744 
Q 697 4328 969 4595 
Q 1241 4863 1831 4863 
L 2375 4863 
z
" transform="scale(0.015625)"/>
       <path id="DejaVuSans-6c" d="M 603 4863 
L 1178 4863 
L 1178 0 
L 603 0 
L 603 4863 
z
" transform="scale(0.015625)"/>
       <path id="DejaVuSans-63" d="M 3122 3366 
L 3122 2828 
Q 2878 2963 2633 3030 
Q 2388 3097 2138 3097 
Q 1578 3097 1268 2742 
Q 959 2388 959 1747 
Q 959 1106 1268 751 
Q 1578 397 2138 397 
Q 2388 397 2633 464 
Q 2878 531 3122 666 
L 3122 134 
Q 2881 22 2623 -34 
Q 2366 -91 2075 -91 
Q 1284 -91 818 406 
Q 353 903 353 1747 
Q 353 2603 823 3093 
Q 1294 3584 2113 3584 
Q 2378 3584 2631 3529 
Q 2884 3475 3122 3366 
z
" transform="scale(0.015625)"/>
       <path id="DejaVuSans-74" d="M 1172 4494 
L 1172 3500 
L 2356 3500 
L 2356 3053 
L 1172 3053 
L 1172 1153 
Q 1172 725 1289 603 
Q 1406 481 1766 481 
L 2356 481 
L 2356 0 
L 1766 0 
Q 1100 0 847 248 
Q 594 497 594 1153 
L 594 3053 
L 172 3053 
L 172 3500 
L 594 3500 
L 594 4494 
L 1172 4494 
z
" transform="scale(0.015625)"/>
       <path id="DejaVuSans-6f" d="M 1959 3097 
Q 1497 3097 1228 2736 
Q 959 2375 959 1747 
Q 959 1119 1226 758 
Q 1494 397 1959 397 
Q 2419 397 2687 759 
Q 2956 1122 2956 1747 
Q 2956 2369 2687 2733 
Q 2419 3097 1959 3097 
z
M 1959 3584 
Q 2709 3584 3137 3096 
Q 3566 2609 3566 1747 
Q 3566 888 3137 398 
Q 2709 -91 1959 -91 
Q 1206 -91 779 398 
Q 353 888 353 1747 
Q 353 2609 779 3096 
Q 1206 3584 1959 3584 
z
" transform="scale(0.015625)"/>
       <path id="DejaVuSans-20" transform="scale(0.015625)"/>
       <path id="DejaVuSans-76" d="M 191 3500 
L 800 3500 
L 1894 563 
L 2988 3500 
L 3597 3500 
L 2284 0 
L 1503 0 
L 191 3500 
z
" transform="scale(0.015625)"/>
       <path id="DejaVuSans-61" d="M 2194 1759 
Q 1497 1759 1228 1600 
Q 959 1441 959 1056 
Q 959 750 1161 570 
Q 1363 391 1709 391 
Q 2188 391 2477 730 
Q 2766 1069 2766 1631 
L 2766 1759 
L 2194 1759 
z
M 3341 1997 
L 3341 0 
L 2766 0 
L 2766 531 
Q 2569 213 2275 61 
Q 1981 -91 1556 -91 
Q 1019 -91 701 211 
Q 384 513 384 1019 
Q 384 1609 779 1909 
Q 1175 2209 1959 2209 
L 2766 2209 
L 2766 2266 
Q 2766 2663 2505 2880 
Q 2244 3097 1772 3097 
Q 1472 3097 1187 3025 
Q 903 2953 641 2809 
L 641 3341 
Q 956 3463 1253 3523 
Q 1550 3584 1831 3584 
Q 2591 3584 2966 3190 
Q 3341 2797 3341 1997 
z
" transform="scale(0.015625)"/>
       <path id="DejaVuSans-75" d="M 544 1381 
L 544 3500 
L 1119 3500 
L 1119 1403 
Q 1119 906 1312 657 
Q 1506 409 1894 409 
Q 2359 409 2629 706 
Q 2900 1003 2900 1516 
L 2900 3500 
L 3475 3500 
L 3475 0 
L 2900 0 
L 2900 538 
Q 2691 219 2414 64 
Q 2138 -91 1772 -91 
Q 1169 -91 856 284 
Q 544 659 544 1381 
z
M 1991 3584 
L 1991 3584 
z
" transform="scale(0.015625)"/>
      </defs>
      <use xlink:href="#DejaVuSans-72"/>
      <use xlink:href="#DejaVuSans-65" x="38.863281"/>
      <use xlink:href="#DejaVuSans-66" x="100.386719"/>
      <use xlink:href="#DejaVuSans-6c" x="135.591797"/>
      <use xlink:href="#DejaVuSans-65" x="163.375"/>
      <use xlink:href="#DejaVuSans-63" x="224.898438"/>
      <use xlink:href="#DejaVuSans-74" x="279.878906"/>
      <use xlink:href="#DejaVuSans-6f" x="319.087891"/>
      <use xlink:href="#DejaVuSans-72" x="380.269531"/>
      <use xlink:href="#DejaVuSans-20" x="421.382812"/>
      <use xlink:href="#DejaVuSans-76" x="453.169922"/>
      <use xlink:href="#DejaVuSans-61" x="512.349609"/>
      <use xlink:href="#DejaVuSans-6c" x="573.628906"/>
      <use xlink:href="#DejaVuSans-75" x="601.412109"/>
      <use xlink:href="#DejaVuSans-65" x="664.791016"/>
     </g>
    </g>
   </g>
   <g id="line2d_25">
    <path d="M 74.795028 130.494444 
L 74.808647 130.392623 
L 74.795346 131.241129 
L 74.904017 130.494444 
L 74.92903 130.562324 
L 74.990075 130.528384 
L 75.067399 130.426563 
L 75.217779 131.34295 
L 75.27813 131.003548 
L 75.415407 131.478711 
L 75.576507 130.528384 
L 75.763415 130.562324 
L 75.978214 130.664145 
L 76.355405 130.765966 
L 76.647231 131.207189 
L 76.806048 131.037488 
L 77.150482 131.34295 
L 77.335107 131.071428 
L 77.529657 131.410831 
L 79.680634 132.429038 
L 79.964519 132.429038 
L 81.188402 133.379366 
L 81.853448 133.209664 
L 82.199867 133.209664 
L 82.55522 132.972082 
L 82.918514 133.039963 
L 83.291734 132.972082 
L 83.673887 133.107843 
L 84.064973 132.768441 
L 87.976833 132.70056 
L 88.453283 132.462979 
L 88.93966 132.59874 
L 89.426037 132.59874 
L 90.428569 132.293277 
L 90.944724 132.564799 
L 91.977034 131.682353 
L 92.513041 131.919935 
L 93.049048 131.750233 
L 94.130988 132.055696 
L 95.232781 132.123576 
L 96.354425 131.919935 
L 96.92021 133.277545 
L 97.485996 131.410831 
L 98.637418 131.071428 
L 99.223056 131.105368 
L 99.798767 130.969607 
L 100.384405 130.528384 
L 100.970042 130.833846 
L 101.555679 130.528384 
L 102.151243 130.833846 
L 103.928007 130.392623 
L 105.714697 130.494444 
L 106.310261 130.426563 
L 106.905824 130.188982 
L 107.501388 130.290802 
L 108.096951 130.188982 
L 108.692515 130.426563 
L 109.288078 130.155041 
L 110.479205 130.155041 
L 111.074768 130.01928 
L 111.670332 130.087161 
L 112.265895 129.98534 
L 112.861459 130.494444 
L 113.457022 130.664145 
L 114.052586 130.460504 
L 114.648149 131.037488 
L 115.243713 130.01928 
L 115.839276 129.9514 
L 117.030403 130.01928 
L 117.625966 129.9514 
L 121.79491 130.494444 
L 122.390474 130.969607 
L 122.986037 130.596265 
L 123.581601 130.901727 
L 124.177164 130.732026 
L 124.772728 130.969607 
L 127.154981 131.207189 
L 127.750545 131.105368 
L 128.346108 131.34295 
L 128.941672 131.987815 
L 130.132799 131.885994 
L 130.728362 132.564799 
L 131.323926 131.750233 
L 131.919489 131.546592 
L 133.706179 132.157516 
L 134.301743 132.63268 
L 134.897306 132.870262 
L 135.49287 133.243605 
L 136.683997 134.601215 
L 137.27956 135.178199 
L 137.875124 135.992765 
L 139.06625 138.131001 
L 140.257377 141.015923 
L 142.044068 145.326335 
L 144.426321 152.284087 
L 146.213012 156.017515 
L 146.808575 156.526619 
L 218.226559 156.526619 
L 218.822122 155.915695 
L 219.417685 154.999308 
L 220.013249 154.558085 
L 220.608812 153.845339 
L 222.991066 149.433106 
L 224.182193 146.446364 
L 224.777756 145.156634 
L 225.968883 142.305653 
L 226.564447 140.812281 
L 229.542264 135.042438 
L 230.733391 133.684828 
L 231.328954 133.379366 
L 231.924518 133.209664 
L 232.520081 132.836321 
L 233.115645 133.209664 
L 233.711208 132.021755 
L 234.306772 131.614472 
L 234.902335 131.784174 
L 235.497899 131.648413 
L 236.093462 131.648413 
L 236.689025 131.919935 
L 237.284589 131.784174 
L 237.880152 132.021755 
L 238.475716 131.818114 
L 239.071279 131.987815 
L 239.666843 131.784174 
L 240.262406 131.885994 
L 240.85797 131.784174 
L 241.453533 132.496919 
L 242.049096 132.836321 
L 242.64466 132.66662 
L 243.240223 132.734501 
L 243.835787 133.92241 
L 244.43135 132.123576 
L 246.813604 132.361158 
L 247.409167 132.123576 
L 248.004731 132.327218 
L 248.600294 132.157516 
L 249.195858 132.259337 
L 250.386985 132.191457 
L 251.578112 132.836321 
L 252.173675 132.768441 
L 252.769238 132.836321 
L 253.364802 132.734501 
L 253.960365 133.209664 
L 254.555929 132.123576 
L 256.342619 132.089636 
L 258.724873 132.123576 
L 260.511563 132.123576 
L 261.107127 132.63268 
L 261.70269 133.854529 
L 262.298254 132.768441 
L 262.893817 132.734501 
L 263.489381 132.225397 
L 265.276071 131.818114 
L 265.871634 132.055696 
L 266.467198 132.021755 
L 267.062761 131.682353 
L 267.658325 131.885994 
L 268.253888 131.885994 
L 268.849452 132.021755 
L 269.445015 131.885994 
L 270.040578 132.734501 
L 270.636142 132.70056 
L 271.231705 132.530859 
L 271.827269 132.63268 
L 272.422832 133.718768 
L 273.018396 131.818114 
L 273.613959 131.852054 
L 274.209523 132.055696 
L 275.400649 131.885994 
L 275.996213 132.021755 
L 276.591776 131.919935 
L 277.18734 132.123576 
L 277.782903 132.055696 
L 278.378467 132.462979 
L 279.569594 132.938142 
L 280.165157 132.734501 
L 281.356284 133.006023 
L 281.951847 132.123576 
L 282.547411 132.293277 
L 283.142974 132.225397 
L 283.738538 132.327218 
L 284.334101 132.123576 
L 284.929665 132.327218 
L 285.525228 132.293277 
L 286.120792 132.462979 
L 286.716355 132.429038 
L 287.311918 133.243605 
L 287.907482 133.515127 
L 288.503045 133.243605 
L 289.098609 134.126051 
L 289.694172 133.107843 
L 290.289736 132.530859 
L 293.863116 132.361158 
L 294.45868 132.462979 
L 295.054243 132.70056 
L 295.649807 133.209664 
L 296.24537 133.515127 
L 296.840934 133.073903 
L 297.436497 133.141784 
L 298.627624 132.123576 
L 299.223187 132.327218 
L 299.818751 132.157516 
L 301.605441 132.293277 
L 302.201005 132.123576 
L 302.796568 132.123576 
L 303.392131 133.006023 
L 303.987695 133.209664 
L 304.583258 133.141784 
L 305.178822 133.481186 
L 305.774385 132.734501 
L 306.369949 132.191457 
L 306.965512 132.191457 
L 308.156639 132.462979 
L 308.752202 132.496919 
L 309.943329 132.870262 
L 311.134456 134.329693 
L 311.73002 134.669095 
L 312.325583 135.31396 
L 312.921147 135.721243 
L 313.51671 136.298227 
L 314.112274 136.366108 
L 314.707837 137.044913 
L 315.898964 138.979508 
L 317.685654 142.984458 
L 319.472345 148.754301 
L 320.067908 150.044031 
L 320.663471 151.673163 
L 321.259035 152.861072 
L 321.854598 153.539877 
L 322.450162 154.897487 
L 323.641289 156.526619 
L 383.197633 156.526619 
L 385.579887 155.949635 
L 386.175451 156.526619 
L 389.153268 156.526619 
L 389.748831 154.150801 
L 390.344395 153.845339 
L 391.535522 152.928952 
L 392.131085 152.725311 
L 392.726649 154.965368 
L 393.322212 154.931427 
L 393.917775 154.218682 
L 395.108902 153.505937 
L 395.704466 149.704628 
L 396.300029 148.957942 
L 397.491156 147.871854 
L 398.08672 147.091228 
L 398.682283 149.94221 
L 399.87341 148.65248 
L 401.064537 148.041556 
L 401.6601 143.900845 
L 402.255664 143.595382 
L 402.851227 143.459621 
L 404.042354 143.595382 
L 404.637917 147.837914 
L 406.424608 149.704628 
L 407.020171 151.062238 
L 407.615735 147.668213 
L 408.806862 150.044031 
L 409.898728 152.216207 
L 410.494291 156.526619 
L 412.678024 156.526619 
L 413.273587 155.678113 
L 414.365454 156.356918 
L 414.861757 156.356918 
L 415.854362 156.526619 
L 417.938834 156.526619 
L 418.435137 156.187217 
L 418.83218 156.051456 
L 420.221828 155.847814 
L 420.718131 156.526619 
L 422.40556 156.526619 
L 422.802603 155.508412 
L 423.199645 154.897487 
L 423.596687 154.761726 
L 424.291511 154.863547 
L 424.688554 156.526619 
L 425.978941 156.526619 
L 426.276723 154.150801 
L 426.574504 153.91322 
L 426.872286 153.91322 
L 427.170068 153.539877 
L 427.46785 154.116861 
L 427.765631 156.526619 
L 428.758237 156.526619 
L 428.956758 154.456264 
L 429.155279 153.675638 
L 429.353801 153.607757 
L 429.552322 152.928952 
L 429.750843 153.94716 
L 430.048625 156.526619 
L 430.544927 156.526619 
L 430.644188 154.150801 
L 431.04123 152.419848 
L 431.140491 153.709578 
L 431.339012 156.526619 
L 431.537533 156.526619 
L 431.537533 156.526619 
L 431.736054 152.827132 
L 431.736054 153.030773 
L 431.835315 152.216207 
L 431.934575 156.526619 
L 431.934575 156.526619 
L 432.033836 156.526619 
L 432.033836 156.526619 
L 432.133097 150.044031 
L 432.133097 151.164059 
" clip-path="url(#pc599e9d32d)" style="fill: none; stroke: #1f77b4; stroke-width: 1.5; stroke-linecap: square"/>
   </g>
   <g id="line2d_26">
    <path d="M 74.795028 156.526619 
L 356.992842 156.526619 
L 357.588405 156.119336 
L 358.183969 156.221157 
L 358.779532 155.983575 
L 359.970659 156.017515 
L 360.566222 156.526619 
L 363.54404 156.526619 
L 364.139603 155.27083 
L 364.735167 155.202949 
L 365.33073 155.406591 
L 365.926293 154.965368 
L 366.521857 154.931427 
L 367.11742 156.526619 
L 369.499674 156.526619 
L 370.095238 155.678113 
L 370.690801 154.218682 
L 371.286364 154.320503 
L 371.881928 154.184742 
L 372.477491 154.320503 
L 373.073055 153.845339 
L 373.668618 156.526619 
L 376.050872 156.526619 
L 376.646435 154.558085 
L 377.241999 153.098654 
L 377.837562 152.793191 
L 379.624253 152.725311 
L 380.219816 156.526619 
L 382.60207 156.526619 
L 383.197633 152.759251 
L 383.793197 151.673163 
L 384.38876 151.605282 
L 384.984324 151.197999 
L 385.579887 151.062238 
L 386.175451 154.897487 
L 386.771014 156.458739 
L 387.366577 156.390858 
L 387.962141 156.051456 
L 388.557704 155.915695 
L 389.153268 155.949635 
L 389.748831 151.096179 
L 390.344395 149.704628 
L 391.535522 149.399166 
L 392.131085 148.890062 
L 392.726649 154.150801 
L 393.322212 154.829607 
L 394.513339 154.456264 
L 395.108902 154.320503 
L 395.704466 148.61854 
L 396.300029 147.32881 
L 396.895593 146.989408 
L 397.491156 146.955467 
L 398.08672 146.412423 
L 398.682283 152.691371 
L 399.277846 152.793191 
L 399.87341 152.759251 
L 400.468973 152.419848 
L 401.064537 152.216207 
L 401.6601 145.801499 
L 402.255664 144.308128 
L 402.851227 143.866904 
L 403.446791 143.866904 
L 404.042354 144.070546 
L 404.637917 150.485254 
L 405.233481 150.587075 
L 405.829044 150.145851 
L 406.424608 149.97615 
L 407.020171 149.534927 
L 407.615735 142.509294 
L 408.211298 141.117744 
L 409.303164 140.167416 
L 409.898728 139.31891 
L 410.494291 147.32881 
L 411.089855 147.159109 
L 412.181721 146.310603 
L 412.678024 145.90332 
L 413.273587 137.044913 
L 413.76989 136.943092 
L 415.35806 135.381841 
L 415.854362 143.28992 
L 416.449926 142.746876 
L 417.442532 141.457146 
L 417.938834 141.185624 
L 418.435137 131.173249 
L 418.83218 132.157516 
L 419.328482 130.698085 
L 419.824785 130.155041 
L 420.221828 129.238654 
L 420.718131 137.180674 
L 421.115173 136.535809 
L 421.611476 135.992765 
L 422.008518 135.31396 
L 422.40556 134.940617 
L 422.802603 123.740333 
L 423.199645 124.860362 
L 423.596687 123.197289 
L 423.993729 122.518484 
L 424.291511 121.771798 
L 424.688554 130.867787 
L 424.986335 129.068953 
L 425.681159 127.677403 
L 425.978941 126.693135 
L 426.276723 114.814046 
L 426.574504 116.069836 
L 427.46785 112.268527 
L 427.765631 120.482069 
L 428.460455 117.088043 
L 428.758237 115.866194 
L 428.956758 103.987105 
L 429.155279 104.122866 
L 429.750843 99.133648 
L 429.949364 107.754473 
L 430.247146 104.903492 
L 430.445667 103.715583 
L 430.544927 101.780988 
L 430.644188 90.0716 
L 430.842709 90.512824 
L 431.140491 86.338172 
L 431.239751 94.110491 
L 431.537533 89.223094 
L 431.636794 79.108898 
L 431.736054 81.111373 
L 431.736054 79.855584 
L 431.835315 79.550121 
L 431.835315 78.192511 
L 431.934575 82.706565 
L 431.934575 81.247134 
L 432.033836 79.041018 
L 432.133097 55.554361 
L 432.133097 64.548529 
" clip-path="url(#pc599e9d32d)" style="fill: none; stroke: #ff7f0e; stroke-width: 1.5; stroke-linecap: square"/>
   </g>
   <g id="line2d_27">
    <path d="M 74.795028 156.526619 
L 376.050872 156.526619 
L 376.646435 155.644173 
L 378.433126 154.931427 
L 379.028689 154.931427 
L 379.624253 156.526619 
L 382.60207 156.526619 
L 383.197633 153.811399 
L 384.38876 153.539877 
L 384.984324 153.234415 
L 385.579887 153.132594 
L 386.175451 156.526619 
L 389.153268 156.526619 
L 389.748831 151.571342 
L 390.939958 151.23194 
L 391.535522 151.367701 
L 392.131085 150.688895 
L 392.726649 156.051456 
L 393.322212 155.949635 
L 393.917775 155.610232 
L 395.108902 155.372651 
L 395.704466 149.399166 
L 396.300029 149.161584 
L 396.895593 148.754301 
L 397.491156 148.924002 
L 398.08672 148.414898 
L 398.682283 154.048981 
L 399.277846 153.845339 
L 399.87341 153.336235 
L 401.064537 152.962893 
L 401.6601 146.955467 
L 402.255664 146.242722 
L 402.851227 145.869379 
L 403.446791 145.699678 
L 404.042354 145.326335 
L 404.637917 151.164059 
L 405.829044 150.553134 
L 406.424608 150.383433 
L 407.020171 150.044031 
L 407.615735 142.577175 
L 408.211298 142.102011 
L 408.806862 141.796549 
L 409.303164 141.049863 
L 409.898728 140.60864 
L 410.494291 147.430631 
L 411.089855 147.125169 
L 411.586158 146.616065 
L 412.181721 146.208782 
L 412.678024 145.631798 
L 413.273587 137.587957 
L 413.76989 136.63763 
L 414.861757 135.551542 
L 415.35806 138.436463 
L 415.854362 142.373533 
L 416.449926 141.898369 
L 416.946229 141.355325 
L 417.938834 140.031655 
L 418.435137 130.969607 
L 418.83218 131.105368 
L 419.824785 129.170774 
L 420.221828 134.703035 
L 420.718131 135.687303 
L 422.40556 132.802381 
L 422.802603 123.400931 
L 423.199645 122.654245 
L 423.596687 121.466336 
L 423.993729 120.787531 
L 424.291511 126.217972 
L 424.688554 126.727076 
L 424.986335 126.150091 
L 425.978941 123.061528 
L 426.276723 113.626137 
L 426.574504 112.166706 
L 426.872286 111.623662 
L 427.170068 110.707275 
L 427.46785 116.273477 
L 427.765631 115.866194 
L 428.758237 110.876977 
L 428.956758 100.830661 
L 429.353801 98.658485 
L 429.552322 97.300875 
L 429.750843 102.324032 
L 429.949364 102.222212 
L 430.247146 98.997887 
L 430.544927 97.131173 
L 430.644188 86.372113 
L 431.04123 82.468983 
L 431.140491 87.254559 
L 431.339012 85.489666 
L 431.537533 81.416835 
L 431.736054 74.560904 
L 431.736054 74.560904 
L 431.835315 73.746338 
L 431.835315 77.581587 
L 431.934575 74.628784 
L 432.033836 73.474816 
L 432.033836 73.474816 
L 432.133097 53.484006 
L 432.133097 60.305997 
" clip-path="url(#pc599e9d32d)" style="fill: none; stroke: #2ca02c; stroke-width: 1.5; stroke-linecap: square"/>
   </g>
   <g id="line2d_28">
    <path d="M 74.795028 139.35285 
L 74.795346 138.707986 
L 74.863637 139.726193 
L 74.904017 139.556492 
L 75.067399 139.047388 
L 75.112662 139.726193 
L 75.16269 138.911627 
L 75.27813 139.217089 
L 75.343939 139.658313 
L 75.49283 138.809806 
L 75.666636 139.929835 
L 75.867043 138.640105 
L 76.096335 139.726193 
L 76.221403 138.538284 
L 76.355405 138.843747 
L 76.647231 138.606165 
L 76.806048 138.436463 
L 76.973798 138.640105 
L 77.150482 138.640105 
L 77.335107 138.402523 
L 77.529657 138.640105 
L 77.733141 138.300702 
L 77.945559 138.334643 
L 78.165918 138.063121 
L 78.396202 138.775866 
L 78.63542 138.334643 
L 78.883571 138.300702 
L 79.139664 137.554017 
L 79.405682 137.859479 
L 79.680634 137.554017 
L 79.964519 138.063121 
L 80.256345 137.486136 
L 80.558097 137.554017 
L 80.868783 137.757658 
L 81.188402 137.791599 
L 81.853448 137.044913 
L 82.199867 137.282495 
L 83.291734 137.112794 
L 83.673887 137.554017 
L 84.064973 137.010973 
L 84.464001 137.554017 
L 84.869977 137.486136 
L 85.286871 137.248555 
L 86.597111 137.350375 
L 87.053709 137.214614 
L 87.510308 137.452196 
L 88.453283 137.587957 
L 88.93966 137.418256 
L 89.426037 137.520077 
L 89.92234 137.791599 
L 90.428569 137.554017 
L 90.944724 137.723718 
L 91.460879 138.164941 
L 91.977034 138.063121 
L 92.513041 137.214614 
L 93.049048 137.99524 
L 93.585055 138.131001 
L 94.130988 138.470404 
L 94.676921 138.470404 
L 95.232781 138.266762 
L 95.78864 138.640105 
L 99.223056 138.741926 
L 99.798767 139.217089 
L 100.384405 139.217089 
L 100.970042 138.945567 
L 101.555679 139.35285 
L 102.151243 139.25103 
L 102.746806 139.386791 
L 103.332444 138.979508 
L 103.928007 139.35285 
L 104.52357 139.081328 
L 105.119134 139.726193 
L 105.714697 139.828014 
L 106.905824 139.386791 
L 107.501388 139.217089 
L 108.096951 139.386791 
L 108.692515 139.386791 
L 109.288078 139.726193 
L 110.479205 139.556492 
L 111.074768 139.488611 
L 111.670332 139.828014 
L 112.265895 139.522552 
L 114.052586 139.624372 
L 114.648149 140.031655 
L 115.243713 139.522552 
L 115.839276 139.658313 
L 117.030403 139.25103 
L 117.625966 140.269237 
L 118.22153 138.979508 
L 118.817093 139.25103 
L 119.412657 138.707986 
L 120.603784 138.911627 
L 121.199347 138.707986 
L 121.79491 138.809806 
L 122.390474 138.707986 
L 122.986037 138.775866 
L 123.581601 138.470404 
L 124.177164 138.877687 
L 124.772728 138.979508 
L 125.368291 138.470404 
L 125.963855 138.640105 
L 126.559418 138.538284 
L 127.154981 138.843747 
L 127.750545 138.300702 
L 128.346108 138.640105 
L 128.941672 138.606165 
L 129.537235 138.436463 
L 130.132799 138.640105 
L 131.323926 138.741926 
L 131.919489 138.843747 
L 132.515052 138.640105 
L 133.110616 139.35285 
L 133.706179 138.843747 
L 134.301743 138.979508 
L 134.897306 139.386791 
L 135.49287 139.556492 
L 137.875124 141.151684 
L 139.06625 142.203832 
L 141.448504 145.699678 
L 142.639631 147.736093 
L 143.235195 148.788241 
L 145.021885 152.793191 
L 145.617448 153.811399 
L 146.213012 155.406591 
L 147.404139 156.526619 
L 221.799939 156.526619 
L 222.395503 156.221157 
L 224.777756 153.064713 
L 225.968883 150.960418 
L 227.16001 149.025823 
L 228.351137 146.955467 
L 228.946701 146.242722 
L 230.733391 143.425681 
L 231.328954 142.950517 
L 231.924518 143.018398 
L 232.520081 141.898369 
L 233.711208 141.525027 
L 234.306772 141.219564 
L 234.902335 140.540759 
L 235.497899 140.472879 
L 236.093462 140.64258 
L 236.689025 140.5747 
L 237.284589 140.64258 
L 237.880152 140.371058 
L 238.475716 140.472879 
L 239.666843 140.438939 
L 240.262406 140.67652 
L 240.85797 140.065596 
L 241.453533 140.303178 
L 242.64466 140.303178 
L 243.240223 141.660788 
L 243.835787 140.235297 
L 244.43135 140.031655 
L 245.026914 140.506819 
L 245.622477 139.726193 
L 246.218041 139.726193 
L 246.813604 139.895894 
L 247.409167 139.726193 
L 248.004731 139.760133 
L 248.600294 139.386791 
L 250.386985 139.929835 
L 250.982548 140.303178 
L 252.173675 139.658313 
L 252.769238 140.133476 
L 253.364802 139.726193 
L 253.960365 139.760133 
L 255.151492 139.556492 
L 255.747056 139.522552 
L 256.342619 139.828014 
L 256.938183 139.590432 
L 258.724873 139.624372 
L 259.320436 139.35285 
L 259.916 139.895894 
L 260.511563 139.35285 
L 261.70269 140.167416 
L 262.298254 139.726193 
L 263.489381 139.895894 
L 264.084944 139.386791 
L 264.680507 139.726193 
L 265.276071 140.269237 
L 265.871634 139.420731 
L 267.658325 139.522552 
L 268.849452 140.099536 
L 269.445015 139.386791 
L 270.040578 139.828014 
L 270.636142 139.624372 
L 271.827269 139.726193 
L 273.018396 139.624372 
L 273.613959 139.35285 
L 274.209523 139.760133 
L 274.805086 139.760133 
L 275.400649 139.556492 
L 275.996213 139.047388 
L 276.591776 139.25103 
L 277.18734 140.371058 
L 277.782903 139.25103 
L 278.378467 139.488611 
L 280.165157 139.556492 
L 280.76072 139.28497 
L 281.951847 139.31891 
L 282.547411 138.945567 
L 283.142974 139.726193 
L 283.738538 138.843747 
L 284.334101 138.877687 
L 284.929665 138.674045 
L 286.716355 138.572225 
L 287.311918 139.25103 
L 287.907482 139.386791 
L 288.503045 138.911627 
L 289.098609 138.809806 
L 289.694172 140.201357 
L 290.289736 138.572225 
L 292.076426 138.640105 
L 292.671989 138.402523 
L 294.45868 138.572225 
L 295.054243 138.843747 
L 295.649807 139.25103 
L 296.24537 138.877687 
L 296.840934 139.386791 
L 297.436497 139.28497 
L 298.03206 138.979508 
L 298.627624 138.538284 
L 299.223187 138.640105 
L 299.818751 139.013448 
L 300.414314 139.013448 
L 301.009878 139.25103 
L 301.605441 138.538284 
L 302.201005 138.640105 
L 302.796568 138.606165 
L 303.392131 139.556492 
L 304.583258 139.726193 
L 305.178822 139.217089 
L 305.774385 139.726193 
L 306.369949 138.979508 
L 307.561076 138.809806 
L 308.156639 139.522552 
L 308.752202 138.809806 
L 309.347766 139.522552 
L 309.943329 139.35285 
L 311.134456 140.099536 
L 311.73002 139.794074 
L 312.325583 140.031655 
L 312.921147 139.929835 
L 313.51671 140.404998 
L 314.112274 139.726193 
L 314.707837 139.828014 
L 316.494527 140.981983 
L 317.685654 142.475354 
L 318.876781 144.274187 
L 320.663471 146.819706 
L 321.259035 148.211257 
L 321.854598 148.347018 
L 322.450162 149.195524 
L 323.045725 150.247672 
L 324.236852 152.759251 
L 325.427979 154.897487 
L 326.023542 156.526619 
L 389.748831 156.526619 
L 392.131085 155.779934 
L 392.726649 156.526619 
L 395.108902 156.526619 
L 395.704466 154.048981 
L 396.300029 153.743518 
L 396.895593 153.234415 
L 397.491156 153.098654 
L 398.08672 152.65743 
L 398.682283 154.829607 
L 399.277846 154.693846 
L 399.87341 153.91322 
L 401.064537 152.827132 
L 401.6601 149.433106 
L 402.255664 148.924002 
L 403.446791 147.32881 
L 404.042354 146.785766 
L 404.637917 149.500987 
L 405.233481 149.127644 
L 405.829044 148.924002 
L 406.424608 148.414898 
L 407.020171 148.516719 
L 407.615735 144.64753 
L 408.211298 144.952992 
L 408.806862 144.817231 
L 409.898728 146.039081 
L 410.494291 150.111911 
L 412.181721 153.200474 
L 412.678024 154.388383 
L 413.273587 151.978625 
L 413.76989 152.58955 
L 414.365454 153.811399 
L 414.861757 154.218682 
L 415.35806 154.897487 
L 415.854362 156.526619 
L 417.938834 156.526619 
L 418.435137 156.255097 
L 419.328482 156.390858 
L 419.824785 156.153277 
L 420.221828 156.255097 
L 420.718131 156.526619 
L 422.40556 156.526619 
L 423.199645 155.576292 
L 423.596687 155.983575 
L 423.993729 155.372651 
L 424.291511 155.27083 
L 424.688554 156.526619 
L 425.978941 156.526619 
L 426.276723 154.558085 
L 426.574504 154.558085 
L 426.872286 154.863547 
L 427.170068 154.422324 
L 427.46785 154.252622 
L 427.765631 156.526619 
L 428.758237 156.526619 
L 428.956758 154.082921 
L 429.353801 153.845339 
L 429.552322 154.320503 
L 429.750843 153.845339 
L 430.048625 156.526619 
L 430.544927 156.526619 
L 430.644188 153.811399 
L 430.94197 154.048981 
L 431.140491 153.879279 
L 431.339012 156.526619 
L 431.537533 156.526619 
L 431.537533 156.526619 
L 431.636794 153.505937 
L 431.736054 153.539877 
L 431.736054 154.150801 
L 431.835315 153.743518 
L 432.033836 156.526619 
L 432.033836 156.526619 
L 432.133097 152.65743 
L 432.133097 153.505937 
" clip-path="url(#pc599e9d32d)" style="fill: none; stroke: #d62728; stroke-width: 1.5; stroke-linecap: square"/>
   </g>
   <g id="patch_3">
    <path d="M 56.928125 161.67875 
L 56.928125 48.331875 
" style="fill: none; stroke: #000000; stroke-width: 0.8; stroke-linejoin: miter; stroke-linecap: square"/>
   </g>
   <g id="patch_4">
    <path d="M 450 161.67875 
L 450 48.331875 
" style="fill: none; stroke: #000000; stroke-width: 0.8; stroke-linejoin: miter; stroke-linecap: square"/>
   </g>
   <g id="patch_5">
    <path d="M 56.928125 161.67875 
L 450 161.67875 
" style="fill: none; stroke: #000000; stroke-width: 0.8; stroke-linejoin: miter; stroke-linecap: square"/>
   </g>
   <g id="patch_6">
    <path d="M 56.928125 48.331875 
L 450 48.331875 
" style="fill: none; stroke: #000000; stroke-width: 0.8; stroke-linejoin: miter; stroke-linecap: square"/>
   </g>
   <g id="text_6">
    <!-- Reflector Raw Value -->
    <g transform="translate(193.704062 42.331875)scale(0.12 -0.12)">
     <defs>
      <path id="DejaVuSans-52" d="M 2841 2188 
Q 3044 2119 3236 1894 
Q 3428 1669 3622 1275 
L 4263 0 
L 3584 0 
L 2988 1197 
Q 2756 1666 2539 1819 
Q 2322 1972 1947 1972 
L 1259 1972 
L 1259 0 
L 628 0 
L 628 4666 
L 2053 4666 
Q 2853 4666 3247 4331 
Q 3641 3997 3641 3322 
Q 3641 2881 3436 2590 
Q 3231 2300 2841 2188 
z
M 1259 4147 
L 1259 2491 
L 2053 2491 
Q 2509 2491 2742 2702 
Q 2975 2913 2975 3322 
Q 2975 3731 2742 3939 
Q 2509 4147 2053 4147 
L 1259 4147 
z
" transform="scale(0.015625)"/>
      <path id="DejaVuSans-77" d="M 269 3500 
L 844 3500 
L 1563 769 
L 2278 3500 
L 2956 3500 
L 3675 769 
L 4391 3500 
L 4966 3500 
L 4050 0 
L 3372 0 
L 2619 2869 
L 1863 0 
L 1184 0 
L 269 3500 
z
" transform="scale(0.015625)"/>
      <path id="DejaVuSans-56" d="M 1831 0 
L 50 4666 
L 709 4666 
L 2188 738 
L 3669 4666 
L 4325 4666 
L 2547 0 
L 1831 0 
z
" transform="scale(0.015625)"/>
     </defs>
     <use xlink:href="#DejaVuSans-52"/>
     <use xlink:href="#DejaVuSans-65" x="64.982422"/>
     <use xlink:href="#DejaVuSans-66" x="126.505859"/>
     <use xlink:href="#DejaVuSans-6c" x="161.710938"/>
     <use xlink:href="#DejaVuSans-65" x="189.494141"/>
     <use xlink:href="#DejaVuSans-63" x="251.017578"/>
     <use xlink:href="#DejaVuSans-74" x="305.998047"/>
     <use xlink:href="#DejaVuSans-6f" x="345.207031"/>
     <use xlink:href="#DejaVuSans-72" x="406.388672"/>
     <use xlink:href="#DejaVuSans-20" x="447.501953"/>
     <use xlink:href="#DejaVuSans-52" x="479.289062"/>
     <use xlink:href="#DejaVuSans-61" x="546.521484"/>
     <use xlink:href="#DejaVuSans-77" x="607.800781"/>
     <use xlink:href="#DejaVuSans-20" x="689.587891"/>
     <use xlink:href="#DejaVuSans-56" x="721.375"/>
     <use xlink:href="#DejaVuSans-61" x="782.033203"/>
     <use xlink:href="#DejaVuSans-6c" x="843.3125"/>
     <use xlink:href="#DejaVuSans-75" x="871.095703"/>
     <use xlink:href="#DejaVuSans-65" x="934.474609"/>
    </g>
   </g>
   <g id="legend_1">
    <g id="patch_7">
     <path d="M 63.928125 115.044375 
L 131.34375 115.044375 
Q 133.34375 115.044375 133.34375 113.044375 
L 133.34375 55.331875 
Q 133.34375 53.331875 131.34375 53.331875 
L 63.928125 53.331875 
Q 61.928125 53.331875 61.928125 55.331875 
L 61.928125 113.044375 
Q 61.928125 115.044375 63.928125 115.044375 
z
" style="fill: #ffffff; opacity: 0.8; stroke: #cccccc; stroke-linejoin: miter"/>
    </g>
    <g id="line2d_29">
     <path d="M 65.928125 61.430313 
L 75.928125 61.430313 
L 85.928125 61.430313 
" style="fill: none; stroke: #1f77b4; stroke-width: 1.5; stroke-linecap: square"/>
    </g>
    <g id="text_7">
     <!-- L Side -->
     <g transform="translate(93.928125 64.930313)scale(0.1 -0.1)">
      <defs>
       <path id="DejaVuSans-4c" d="M 628 4666 
L 1259 4666 
L 1259 531 
L 3531 531 
L 3531 0 
L 628 0 
L 628 4666 
z
" transform="scale(0.015625)"/>
       <path id="DejaVuSans-53" d="M 3425 4513 
L 3425 3897 
Q 3066 4069 2747 4153 
Q 2428 4238 2131 4238 
Q 1616 4238 1336 4038 
Q 1056 3838 1056 3469 
Q 1056 3159 1242 3001 
Q 1428 2844 1947 2747 
L 2328 2669 
Q 3034 2534 3370 2195 
Q 3706 1856 3706 1288 
Q 3706 609 3251 259 
Q 2797 -91 1919 -91 
Q 1588 -91 1214 -16 
Q 841 59 441 206 
L 441 856 
Q 825 641 1194 531 
Q 1563 422 1919 422 
Q 2459 422 2753 634 
Q 3047 847 3047 1241 
Q 3047 1584 2836 1778 
Q 2625 1972 2144 2069 
L 1759 2144 
Q 1053 2284 737 2584 
Q 422 2884 422 3419 
Q 422 4038 858 4394 
Q 1294 4750 2059 4750 
Q 2388 4750 2728 4690 
Q 3069 4631 3425 4513 
z
" transform="scale(0.015625)"/>
       <path id="DejaVuSans-69" d="M 603 3500 
L 1178 3500 
L 1178 0 
L 603 0 
L 603 3500 
z
M 603 4863 
L 1178 4863 
L 1178 4134 
L 603 4134 
L 603 4863 
z
" transform="scale(0.015625)"/>
       <path id="DejaVuSans-64" d="M 2906 2969 
L 2906 4863 
L 3481 4863 
L 3481 0 
L 2906 0 
L 2906 525 
Q 2725 213 2448 61 
Q 2172 -91 1784 -91 
Q 1150 -91 751 415 
Q 353 922 353 1747 
Q 353 2572 751 3078 
Q 1150 3584 1784 3584 
Q 2172 3584 2448 3432 
Q 2725 3281 2906 2969 
z
M 947 1747 
Q 947 1113 1208 752 
Q 1469 391 1925 391 
Q 2381 391 2643 752 
Q 2906 1113 2906 1747 
Q 2906 2381 2643 2742 
Q 2381 3103 1925 3103 
Q 1469 3103 1208 2742 
Q 947 2381 947 1747 
z
" transform="scale(0.015625)"/>
      </defs>
      <use xlink:href="#DejaVuSans-4c"/>
      <use xlink:href="#DejaVuSans-20" x="55.712891"/>
      <use xlink:href="#DejaVuSans-53" x="87.5"/>
      <use xlink:href="#DejaVuSans-69" x="150.976562"/>
      <use xlink:href="#DejaVuSans-64" x="178.759766"/>
      <use xlink:href="#DejaVuSans-65" x="242.236328"/>
     </g>
    </g>
    <g id="line2d_30">
     <path d="M 65.928125 76.108438 
L 75.928125 76.108438 
L 85.928125 76.108438 
" style="fill: none; stroke: #ff7f0e; stroke-width: 1.5; stroke-linecap: square"/>
    </g>
    <g id="text_8">
     <!-- L Front -->
     <g transform="translate(93.928125 79.608438)scale(0.1 -0.1)">
      <defs>
       <path id="DejaVuSans-46" d="M 628 4666 
L 3309 4666 
L 3309 4134 
L 1259 4134 
L 1259 2759 
L 3109 2759 
L 3109 2228 
L 1259 2228 
L 1259 0 
L 628 0 
L 628 4666 
z
" transform="scale(0.015625)"/>
       <path id="DejaVuSans-6e" d="M 3513 2113 
L 3513 0 
L 2938 0 
L 2938 2094 
Q 2938 2591 2744 2837 
Q 2550 3084 2163 3084 
Q 1697 3084 1428 2787 
Q 1159 2491 1159 1978 
L 1159 0 
L 581 0 
L 581 3500 
L 1159 3500 
L 1159 2956 
Q 1366 3272 1645 3428 
Q 1925 3584 2291 3584 
Q 2894 3584 3203 3211 
Q 3513 2838 3513 2113 
z
" transform="scale(0.015625)"/>
      </defs>
      <use xlink:href="#DejaVuSans-4c"/>
      <use xlink:href="#DejaVuSans-20" x="55.712891"/>
      <use xlink:href="#DejaVuSans-46" x="87.5"/>
      <use xlink:href="#DejaVuSans-72" x="137.769531"/>
      <use xlink:href="#DejaVuSans-6f" x="176.632812"/>
      <use xlink:href="#DejaVuSans-6e" x="237.814453"/>
      <use xlink:href="#DejaVuSans-74" x="301.193359"/>
     </g>
    </g>
    <g id="line2d_31">
     <path d="M 65.928125 90.786563 
L 75.928125 90.786563 
L 85.928125 90.786563 
" style="fill: none; stroke: #2ca02c; stroke-width: 1.5; stroke-linecap: square"/>
    </g>
    <g id="text_9">
     <!-- R Front -->
     <g transform="translate(93.928125 94.286563)scale(0.1 -0.1)">
      <use xlink:href="#DejaVuSans-52"/>
      <use xlink:href="#DejaVuSans-20" x="69.482422"/>
      <use xlink:href="#DejaVuSans-46" x="101.269531"/>
      <use xlink:href="#DejaVuSans-72" x="151.539062"/>
      <use xlink:href="#DejaVuSans-6f" x="190.402344"/>
      <use xlink:href="#DejaVuSans-6e" x="251.583984"/>
      <use xlink:href="#DejaVuSans-74" x="314.962891"/>
     </g>
    </g>
    <g id="line2d_32">
     <path d="M 65.928125 105.464688 
L 75.928125 105.464688 
L 85.928125 105.464688 
" style="fill: none; stroke: #d62728; stroke-width: 1.5; stroke-linecap: square"/>
    </g>
    <g id="text_10">
     <!-- R Side -->
     <g transform="translate(93.928125 108.964688)scale(0.1 -0.1)">
      <use xlink:href="#DejaVuSans-52"/>
      <use xlink:href="#DejaVuSans-20" x="69.482422"/>
      <use xlink:href="#DejaVuSans-53" x="101.269531"/>
      <use xlink:href="#DejaVuSans-69" x="164.746094"/>
      <use xlink:href="#DejaVuSans-64" x="192.529297"/>
      <use xlink:href="#DejaVuSans-65" x="256.005859"/>
     </g>
    </g>
   </g>
  </g>
  <g id="axes_2">
   <g id="patch_8">
    <path d="M 56.928125 304.44375 
L 450 304.44375 
L 450 191.096875 
L 56.928125 191.096875 
z
" style="fill: #ffffff"/>
   </g>
   <g id="matplotlib.axis_3">
    <g id="xtick_9">
     <g id="line2d_33">
      <path d="M 74.795028 304.44375 
L 74.795028 191.096875 
" clip-path="url(#pf86157b86e)" style="fill: none; stroke: #b0b0b0; stroke-width: 0.8; stroke-linecap: square"/>
     </g>
     <g id="line2d_34">
      <g>
       <use xlink:href="#m3185c914a2" x="74.795028" y="304.44375" style="stroke: #000000; stroke-width: 0.8"/>
      </g>
     </g>
     <g id="text_11">
      <!-- 0 -->
      <g transform="translate(71.613778 319.042187)scale(0.1 -0.1)">
       <use xlink:href="#DejaVuSans-30"/>
      </g>
     </g>
    </g>
    <g id="xtick_10">
     <g id="line2d_35">
      <path d="M 124.425316 304.44375 
L 124.425316 191.096875 
" clip-path="url(#pf86157b86e)" style="fill: none; stroke: #b0b0b0; stroke-width: 0.8; stroke-linecap: square"/>
     </g>
     <g id="line2d_36">
      <g>
       <use xlink:href="#m3185c914a2" x="124.425316" y="304.44375" style="stroke: #000000; stroke-width: 0.8"/>
      </g>
     </g>
     <g id="text_12">
      <!-- 50 -->
      <g transform="translate(118.062816 319.042187)scale(0.1 -0.1)">
       <defs>
        <path id="DejaVuSans-35" d="M 691 4666 
L 3169 4666 
L 3169 4134 
L 1269 4134 
L 1269 2991 
Q 1406 3038 1543 3061 
Q 1681 3084 1819 3084 
Q 2600 3084 3056 2656 
Q 3513 2228 3513 1497 
Q 3513 744 3044 326 
Q 2575 -91 1722 -91 
Q 1428 -91 1123 -41 
Q 819 9 494 109 
L 494 744 
Q 775 591 1075 516 
Q 1375 441 1709 441 
Q 2250 441 2565 725 
Q 2881 1009 2881 1497 
Q 2881 1984 2565 2268 
Q 2250 2553 1709 2553 
Q 1456 2553 1204 2497 
Q 953 2441 691 2322 
L 691 4666 
z
" transform="scale(0.015625)"/>
       </defs>
       <use xlink:href="#DejaVuSans-35"/>
       <use xlink:href="#DejaVuSans-30" x="63.623047"/>
      </g>
     </g>
    </g>
    <g id="xtick_11">
     <g id="line2d_37">
      <path d="M 174.055603 304.44375 
L 174.055603 191.096875 
" clip-path="url(#pf86157b86e)" style="fill: none; stroke: #b0b0b0; stroke-width: 0.8; stroke-linecap: square"/>
     </g>
     <g id="line2d_38">
      <g>
       <use xlink:href="#m3185c914a2" x="174.055603" y="304.44375" style="stroke: #000000; stroke-width: 0.8"/>
      </g>
     </g>
     <g id="text_13">
      <!-- 100 -->
      <g transform="translate(164.511853 319.042187)scale(0.1 -0.1)">
       <use xlink:href="#DejaVuSans-31"/>
       <use xlink:href="#DejaVuSans-30" x="63.623047"/>
       <use xlink:href="#DejaVuSans-30" x="127.246094"/>
      </g>
     </g>
    </g>
    <g id="xtick_12">
     <g id="line2d_39">
      <path d="M 223.68589 304.44375 
L 223.68589 191.096875 
" clip-path="url(#pf86157b86e)" style="fill: none; stroke: #b0b0b0; stroke-width: 0.8; stroke-linecap: square"/>
     </g>
     <g id="line2d_40">
      <g>
       <use xlink:href="#m3185c914a2" x="223.68589" y="304.44375" style="stroke: #000000; stroke-width: 0.8"/>
      </g>
     </g>
     <g id="text_14">
      <!-- 150 -->
      <g transform="translate(214.14214 319.042187)scale(0.1 -0.1)">
       <use xlink:href="#DejaVuSans-31"/>
       <use xlink:href="#DejaVuSans-35" x="63.623047"/>
       <use xlink:href="#DejaVuSans-30" x="127.246094"/>
      </g>
     </g>
    </g>
    <g id="xtick_13">
     <g id="line2d_41">
      <path d="M 273.316177 304.44375 
L 273.316177 191.096875 
" clip-path="url(#pf86157b86e)" style="fill: none; stroke: #b0b0b0; stroke-width: 0.8; stroke-linecap: square"/>
     </g>
     <g id="line2d_42">
      <g>
       <use xlink:href="#m3185c914a2" x="273.316177" y="304.44375" style="stroke: #000000; stroke-width: 0.8"/>
      </g>
     </g>
     <g id="text_15">
      <!-- 200 -->
      <g transform="translate(263.772427 319.042187)scale(0.1 -0.1)">
       <use xlink:href="#DejaVuSans-32"/>
       <use xlink:href="#DejaVuSans-30" x="63.623047"/>
       <use xlink:href="#DejaVuSans-30" x="127.246094"/>
      </g>
     </g>
    </g>
    <g id="xtick_14">
     <g id="line2d_43">
      <path d="M 322.946465 304.44375 
L 322.946465 191.096875 
" clip-path="url(#pf86157b86e)" style="fill: none; stroke: #b0b0b0; stroke-width: 0.8; stroke-linecap: square"/>
     </g>
     <g id="line2d_44">
      <g>
       <use xlink:href="#m3185c914a2" x="322.946465" y="304.44375" style="stroke: #000000; stroke-width: 0.8"/>
      </g>
     </g>
     <g id="text_16">
      <!-- 250 -->
      <g transform="translate(313.402715 319.042187)scale(0.1 -0.1)">
       <use xlink:href="#DejaVuSans-32"/>
       <use xlink:href="#DejaVuSans-35" x="63.623047"/>
       <use xlink:href="#DejaVuSans-30" x="127.246094"/>
      </g>
     </g>
    </g>
    <g id="xtick_15">
     <g id="line2d_45">
      <path d="M 372.576752 304.44375 
L 372.576752 191.096875 
" clip-path="url(#pf86157b86e)" style="fill: none; stroke: #b0b0b0; stroke-width: 0.8; stroke-linecap: square"/>
     </g>
     <g id="line2d_46">
      <g>
       <use xlink:href="#m3185c914a2" x="372.576752" y="304.44375" style="stroke: #000000; stroke-width: 0.8"/>
      </g>
     </g>
     <g id="text_17">
      <!-- 300 -->
      <g transform="translate(363.033002 319.042187)scale(0.1 -0.1)">
       <use xlink:href="#DejaVuSans-33"/>
       <use xlink:href="#DejaVuSans-30" x="63.623047"/>
       <use xlink:href="#DejaVuSans-30" x="127.246094"/>
      </g>
     </g>
    </g>
    <g id="xtick_16">
     <g id="line2d_47">
      <path d="M 422.207039 304.44375 
L 422.207039 191.096875 
" clip-path="url(#pf86157b86e)" style="fill: none; stroke: #b0b0b0; stroke-width: 0.8; stroke-linecap: square"/>
     </g>
     <g id="line2d_48">
      <g>
       <use xlink:href="#m3185c914a2" x="422.207039" y="304.44375" style="stroke: #000000; stroke-width: 0.8"/>
      </g>
     </g>
     <g id="text_18">
      <!-- 350 -->
      <g transform="translate(412.663289 319.042187)scale(0.1 -0.1)">
       <use xlink:href="#DejaVuSans-33"/>
       <use xlink:href="#DejaVuSans-35" x="63.623047"/>
       <use xlink:href="#DejaVuSans-30" x="127.246094"/>
      </g>
     </g>
    </g>
    <g id="text_19">
     <!-- Translational Position [mm] -->
     <g transform="translate(185.486719 332.720312)scale(0.1 -0.1)">
      <defs>
       <path id="DejaVuSans-54" d="M -19 4666 
L 3928 4666 
L 3928 4134 
L 2272 4134 
L 2272 0 
L 1638 0 
L 1638 4134 
L -19 4134 
L -19 4666 
z
" transform="scale(0.015625)"/>
       <path id="DejaVuSans-73" d="M 2834 3397 
L 2834 2853 
Q 2591 2978 2328 3040 
Q 2066 3103 1784 3103 
Q 1356 3103 1142 2972 
Q 928 2841 928 2578 
Q 928 2378 1081 2264 
Q 1234 2150 1697 2047 
L 1894 2003 
Q 2506 1872 2764 1633 
Q 3022 1394 3022 966 
Q 3022 478 2636 193 
Q 2250 -91 1575 -91 
Q 1294 -91 989 -36 
Q 684 19 347 128 
L 347 722 
Q 666 556 975 473 
Q 1284 391 1588 391 
Q 1994 391 2212 530 
Q 2431 669 2431 922 
Q 2431 1156 2273 1281 
Q 2116 1406 1581 1522 
L 1381 1569 
Q 847 1681 609 1914 
Q 372 2147 372 2553 
Q 372 3047 722 3315 
Q 1072 3584 1716 3584 
Q 2034 3584 2315 3537 
Q 2597 3491 2834 3397 
z
" transform="scale(0.015625)"/>
       <path id="DejaVuSans-50" d="M 1259 4147 
L 1259 2394 
L 2053 2394 
Q 2494 2394 2734 2622 
Q 2975 2850 2975 3272 
Q 2975 3691 2734 3919 
Q 2494 4147 2053 4147 
L 1259 4147 
z
M 628 4666 
L 2053 4666 
Q 2838 4666 3239 4311 
Q 3641 3956 3641 3272 
Q 3641 2581 3239 2228 
Q 2838 1875 2053 1875 
L 1259 1875 
L 1259 0 
L 628 0 
L 628 4666 
z
" transform="scale(0.015625)"/>
       <path id="DejaVuSans-5b" d="M 550 4863 
L 1875 4863 
L 1875 4416 
L 1125 4416 
L 1125 -397 
L 1875 -397 
L 1875 -844 
L 550 -844 
L 550 4863 
z
" transform="scale(0.015625)"/>
       <path id="DejaVuSans-6d" d="M 3328 2828 
Q 3544 3216 3844 3400 
Q 4144 3584 4550 3584 
Q 5097 3584 5394 3201 
Q 5691 2819 5691 2113 
L 5691 0 
L 5113 0 
L 5113 2094 
Q 5113 2597 4934 2840 
Q 4756 3084 4391 3084 
Q 3944 3084 3684 2787 
Q 3425 2491 3425 1978 
L 3425 0 
L 2847 0 
L 2847 2094 
Q 2847 2600 2669 2842 
Q 2491 3084 2119 3084 
Q 1678 3084 1418 2786 
Q 1159 2488 1159 1978 
L 1159 0 
L 581 0 
L 581 3500 
L 1159 3500 
L 1159 2956 
Q 1356 3278 1631 3431 
Q 1906 3584 2284 3584 
Q 2666 3584 2933 3390 
Q 3200 3197 3328 2828 
z
" transform="scale(0.015625)"/>
       <path id="DejaVuSans-5d" d="M 1947 4863 
L 1947 -844 
L 622 -844 
L 622 -397 
L 1369 -397 
L 1369 4416 
L 622 4416 
L 622 4863 
L 1947 4863 
z
" transform="scale(0.015625)"/>
      </defs>
      <use xlink:href="#DejaVuSans-54"/>
      <use xlink:href="#DejaVuSans-72" x="46.333984"/>
      <use xlink:href="#DejaVuSans-61" x="87.447266"/>
      <use xlink:href="#DejaVuSans-6e" x="148.726562"/>
      <use xlink:href="#DejaVuSans-73" x="212.105469"/>
      <use xlink:href="#DejaVuSans-6c" x="264.205078"/>
      <use xlink:href="#DejaVuSans-61" x="291.988281"/>
      <use xlink:href="#DejaVuSans-74" x="353.267578"/>
      <use xlink:href="#DejaVuSans-69" x="392.476562"/>
      <use xlink:href="#DejaVuSans-6f" x="420.259766"/>
      <use xlink:href="#DejaVuSans-6e" x="481.441406"/>
      <use xlink:href="#DejaVuSans-61" x="544.820312"/>
      <use xlink:href="#DejaVuSans-6c" x="606.099609"/>
      <use xlink:href="#DejaVuSans-20" x="633.882812"/>
      <use xlink:href="#DejaVuSans-50" x="665.669922"/>
      <use xlink:href="#DejaVuSans-6f" x="722.347656"/>
      <use xlink:href="#DejaVuSans-73" x="783.529297"/>
      <use xlink:href="#DejaVuSans-69" x="835.628906"/>
      <use xlink:href="#DejaVuSans-74" x="863.412109"/>
      <use xlink:href="#DejaVuSans-69" x="902.621094"/>
      <use xlink:href="#DejaVuSans-6f" x="930.404297"/>
      <use xlink:href="#DejaVuSans-6e" x="991.585938"/>
      <use xlink:href="#DejaVuSans-20" x="1054.964844"/>
      <use xlink:href="#DejaVuSans-5b" x="1086.751953"/>
      <use xlink:href="#DejaVuSans-6d" x="1125.765625"/>
      <use xlink:href="#DejaVuSans-6d" x="1223.177734"/>
      <use xlink:href="#DejaVuSans-5d" x="1320.589844"/>
     </g>
    </g>
   </g>
   <g id="matplotlib.axis_4">
    <g id="ytick_5">
     <g id="line2d_49">
      <path d="M 56.928125 277.395064 
L 450 277.395064 
" clip-path="url(#pf86157b86e)" style="fill: none; stroke: #b0b0b0; stroke-width: 0.8; stroke-linecap: square"/>
     </g>
     <g id="line2d_50">
      <g>
       <use xlink:href="#mc9199f042f" x="56.928125" y="277.395064" style="stroke: #000000; stroke-width: 0.8"/>
      </g>
     </g>
     <g id="text_20">
      <!-- 100 -->
      <g transform="translate(30.840625 281.194283)scale(0.1 -0.1)">
       <use xlink:href="#DejaVuSans-31"/>
       <use xlink:href="#DejaVuSans-30" x="63.623047"/>
       <use xlink:href="#DejaVuSans-30" x="127.246094"/>
      </g>
     </g>
    </g>
    <g id="ytick_6">
     <g id="line2d_51">
      <path d="M 56.928125 234.460642 
L 450 234.460642 
" clip-path="url(#pf86157b86e)" style="fill: none; stroke: #b0b0b0; stroke-width: 0.8; stroke-linecap: square"/>
     </g>
     <g id="line2d_52">
      <g>
       <use xlink:href="#mc9199f042f" x="56.928125" y="234.460642" style="stroke: #000000; stroke-width: 0.8"/>
      </g>
     </g>
     <g id="text_21">
      <!-- 200 -->
      <g transform="translate(30.840625 238.25986)scale(0.1 -0.1)">
       <use xlink:href="#DejaVuSans-32"/>
       <use xlink:href="#DejaVuSans-30" x="63.623047"/>
       <use xlink:href="#DejaVuSans-30" x="127.246094"/>
      </g>
     </g>
    </g>
    <g id="ytick_7">
     <g id="line2d_53">
      <path d="M 56.928125 191.526219 
L 450 191.526219 
" clip-path="url(#pf86157b86e)" style="fill: none; stroke: #b0b0b0; stroke-width: 0.8; stroke-linecap: square"/>
     </g>
     <g id="line2d_54">
      <g>
       <use xlink:href="#mc9199f042f" x="56.928125" y="191.526219" style="stroke: #000000; stroke-width: 0.8"/>
      </g>
     </g>
     <g id="text_22">
      <!-- 300 -->
      <g transform="translate(30.840625 195.325438)scale(0.1 -0.1)">
       <use xlink:href="#DejaVuSans-33"/>
       <use xlink:href="#DejaVuSans-30" x="63.623047"/>
       <use xlink:href="#DejaVuSans-30" x="127.246094"/>
      </g>
     </g>
    </g>
    <g id="text_23">
     <!-- wall distance [mm] -->
     <g transform="translate(24.760938 295.708594)rotate(-90)scale(0.1 -0.1)">
      <use xlink:href="#DejaVuSans-77"/>
      <use xlink:href="#DejaVuSans-61" x="81.787109"/>
      <use xlink:href="#DejaVuSans-6c" x="143.066406"/>
      <use xlink:href="#DejaVuSans-6c" x="170.849609"/>
      <use xlink:href="#DejaVuSans-20" x="198.632812"/>
      <use xlink:href="#DejaVuSans-64" x="230.419922"/>
      <use xlink:href="#DejaVuSans-69" x="293.896484"/>
      <use xlink:href="#DejaVuSans-73" x="321.679688"/>
      <use xlink:href="#DejaVuSans-74" x="373.779297"/>
      <use xlink:href="#DejaVuSans-61" x="412.988281"/>
      <use xlink:href="#DejaVuSans-6e" x="474.267578"/>
      <use xlink:href="#DejaVuSans-63" x="537.646484"/>
      <use xlink:href="#DejaVuSans-65" x="592.626953"/>
      <use xlink:href="#DejaVuSans-20" x="654.150391"/>
      <use xlink:href="#DejaVuSans-5b" x="685.9375"/>
      <use xlink:href="#DejaVuSans-6d" x="724.951172"/>
      <use xlink:href="#DejaVuSans-6d" x="822.363281"/>
      <use xlink:href="#DejaVuSans-5d" x="919.775391"/>
     </g>
    </g>
   </g>
   <g id="line2d_55">
    <path d="M 74.795028 196.249006 
L 287.311918 196.249006 
L 287.907482 228.020478 
L 295.649807 228.020478 
L 296.24537 230.167199 
L 303.392131 230.167199 
L 303.987695 234.889986 
L 311.134456 234.889986 
L 311.73002 240.042116 
L 318.876781 240.042116 
L 319.472345 243.47687 
L 326.023542 243.47687 
L 326.619106 246.48228 
L 333.170304 246.48228 
L 333.765867 250.775722 
L 340.317065 250.775722 
L 340.912629 253.781132 
L 347.463827 253.781132 
L 348.05939 256.357197 
L 354.015024 256.357197 
L 354.610588 258.933262 
L 360.566222 258.933262 
L 361.161786 262.79736 
L 367.11742 262.79736 
L 367.712984 265.373426 
L 373.668618 265.373426 
L 374.264182 269.237524 
L 380.219816 269.237524 
L 380.81538 271.384245 
L 386.771014 271.384245 
L 387.366577 274.389654 
L 392.726649 274.389654 
L 393.322212 276.96572 
L 398.682283 276.96572 
L 399.277846 280.400473 
L 404.637917 280.400473 
L 405.233481 281.688506 
L 410.494291 281.688506 
L 411.089855 285.552604 
L 415.854362 285.552604 
L 416.449926 287.699325 
L 420.718131 287.699325 
L 421.115173 290.704735 
L 424.688554 290.704735 
L 424.986335 292.851456 
L 427.765631 292.851456 
L 427.964152 293.710144 
L 429.949364 293.710144 
L 430.048625 295.856866 
L 431.239751 295.856866 
L 431.438273 297.144898 
L 432.133097 297.144898 
L 432.133097 297.144898 
L 432.133097 299.291619 
L 432.133097 298.003587 
" clip-path="url(#pf86157b86e)" style="fill: none; stroke: #1f77b4; stroke-width: 1.5; stroke-linecap: square"/>
   </g>
   <g id="patch_9">
    <path d="M 56.928125 304.44375 
L 56.928125 191.096875 
" style="fill: none; stroke: #000000; stroke-width: 0.8; stroke-linejoin: miter; stroke-linecap: square"/>
   </g>
   <g id="patch_10">
    <path d="M 450 304.44375 
L 450 191.096875 
" style="fill: none; stroke: #000000; stroke-width: 0.8; stroke-linejoin: miter; stroke-linecap: square"/>
   </g>
   <g id="patch_11">
    <path d="M 56.928125 304.44375 
L 450 304.44375 
" style="fill: none; stroke: #000000; stroke-width: 0.8; stroke-linejoin: miter; stroke-linecap: square"/>
   </g>
   <g id="patch_12">
    <path d="M 56.928125 191.096875 
L 450 191.096875 
" style="fill: none; stroke: #000000; stroke-width: 0.8; stroke-linejoin: miter; stroke-linecap: square"/>
   </g>
   <g id="text_24">
    <!-- Front Wall Distance [mm] -->
    <g transform="translate(177.40375 185.096875)scale(0.12 -0.12)">
     <defs>
      <path id="DejaVuSans-57" d="M 213 4666 
L 850 4666 
L 1831 722 
L 2809 4666 
L 3519 4666 
L 4500 722 
L 5478 4666 
L 6119 4666 
L 4947 0 
L 4153 0 
L 3169 4050 
L 2175 0 
L 1381 0 
L 213 4666 
z
" transform="scale(0.015625)"/>
      <path id="DejaVuSans-44" d="M 1259 4147 
L 1259 519 
L 2022 519 
Q 2988 519 3436 956 
Q 3884 1394 3884 2338 
Q 3884 3275 3436 3711 
Q 2988 4147 2022 4147 
L 1259 4147 
z
M 628 4666 
L 1925 4666 
Q 3281 4666 3915 4102 
Q 4550 3538 4550 2338 
Q 4550 1131 3912 565 
Q 3275 0 1925 0 
L 628 0 
L 628 4666 
z
" transform="scale(0.015625)"/>
     </defs>
     <use xlink:href="#DejaVuSans-46"/>
     <use xlink:href="#DejaVuSans-72" x="50.269531"/>
     <use xlink:href="#DejaVuSans-6f" x="89.132812"/>
     <use xlink:href="#DejaVuSans-6e" x="150.314453"/>
     <use xlink:href="#DejaVuSans-74" x="213.693359"/>
     <use xlink:href="#DejaVuSans-20" x="252.902344"/>
     <use xlink:href="#DejaVuSans-57" x="284.689453"/>
     <use xlink:href="#DejaVuSans-61" x="377.191406"/>
     <use xlink:href="#DejaVuSans-6c" x="438.470703"/>
     <use xlink:href="#DejaVuSans-6c" x="466.253906"/>
     <use xlink:href="#DejaVuSans-20" x="494.037109"/>
     <use xlink:href="#DejaVuSans-44" x="525.824219"/>
     <use xlink:href="#DejaVuSans-69" x="602.826172"/>
     <use xlink:href="#DejaVuSans-73" x="630.609375"/>
     <use xlink:href="#DejaVuSans-74" x="682.708984"/>
     <use xlink:href="#DejaVuSans-61" x="721.917969"/>
     <use xlink:href="#DejaVuSans-6e" x="783.197266"/>
     <use xlink:href="#DejaVuSans-63" x="846.576172"/>
     <use xlink:href="#DejaVuSans-65" x="901.556641"/>
     <use xlink:href="#DejaVuSans-20" x="963.080078"/>
     <use xlink:href="#DejaVuSans-5b" x="994.867188"/>
     <use xlink:href="#DejaVuSans-6d" x="1033.880859"/>
     <use xlink:href="#DejaVuSans-6d" x="1131.292969"/>
     <use xlink:href="#DejaVuSans-5d" x="1228.705078"/>
    </g>
   </g>
   <g id="legend_2">
    <g id="patch_13">
     <path d="M 394.721875 213.775 
L 443 213.775 
Q 445 213.775 445 211.775 
L 445 198.096875 
Q 445 196.096875 443 196.096875 
L 394.721875 196.096875 
Q 392.721875 196.096875 392.721875 198.096875 
L 392.721875 211.775 
Q 392.721875 213.775 394.721875 213.775 
z
" style="fill: #ffffff; opacity: 0.8; stroke: #cccccc; stroke-linejoin: miter"/>
    </g>
    <g id="line2d_56">
     <path d="M 396.721875 204.195312 
L 406.721875 204.195312 
L 416.721875 204.195312 
" style="fill: none; stroke: #1f77b4; stroke-width: 1.5; stroke-linecap: square"/>
    </g>
    <g id="text_25">
     <!-- ToF -->
     <g transform="translate(424.721875 207.695312)scale(0.1 -0.1)">
      <use xlink:href="#DejaVuSans-54"/>
      <use xlink:href="#DejaVuSans-6f" x="44.083984"/>
      <use xlink:href="#DejaVuSans-46" x="105.265625"/>
     </g>
    </g>
   </g>
  </g>
  <g id="text_26">
   <!-- Reflector Raw Value and ToF Distance -->
   <g transform="translate(117.629063 16.030125)scale(0.12 -0.12)">
    <use xlink:href="#DejaVuSans-52"/>
    <use xlink:href="#DejaVuSans-65" x="64.982422"/>
    <use xlink:href="#DejaVuSans-66" x="126.505859"/>
    <use xlink:href="#DejaVuSans-6c" x="161.710938"/>
    <use xlink:href="#DejaVuSans-65" x="189.494141"/>
    <use xlink:href="#DejaVuSans-63" x="251.017578"/>
    <use xlink:href="#DejaVuSans-74" x="305.998047"/>
    <use xlink:href="#DejaVuSans-6f" x="345.207031"/>
    <use xlink:href="#DejaVuSans-72" x="406.388672"/>
    <use xlink:href="#DejaVuSans-20" x="447.501953"/>
    <use xlink:href="#DejaVuSans-52" x="479.289062"/>
    <use xlink:href="#DejaVuSans-61" x="546.521484"/>
    <use xlink:href="#DejaVuSans-77" x="607.800781"/>
    <use xlink:href="#DejaVuSans-20" x="689.587891"/>
    <use xlink:href="#DejaVuSans-56" x="721.375"/>
    <use xlink:href="#DejaVuSans-61" x="782.033203"/>
    <use xlink:href="#DejaVuSans-6c" x="843.3125"/>
    <use xlink:href="#DejaVuSans-75" x="871.095703"/>
    <use xlink:href="#DejaVuSans-65" x="934.474609"/>
    <use xlink:href="#DejaVuSans-20" x="995.998047"/>
    <use xlink:href="#DejaVuSans-61" x="1027.785156"/>
    <use xlink:href="#DejaVuSans-6e" x="1089.064453"/>
    <use xlink:href="#DejaVuSans-64" x="1152.443359"/>
    <use xlink:href="#DejaVuSans-20" x="1215.919922"/>
    <use xlink:href="#DejaVuSans-54" x="1247.707031"/>
    <use xlink:href="#DejaVuSans-6f" x="1291.791016"/>
    <use xlink:href="#DejaVuSans-46" x="1352.972656"/>
    <use xlink:href="#DejaVuSans-20" x="1410.492188"/>
    <use xlink:href="#DejaVuSans-44" x="1442.279297"/>
    <use xlink:href="#DejaVuSans-69" x="1519.28125"/>
    <use xlink:href="#DejaVuSans-73" x="1547.064453"/>
    <use xlink:href="#DejaVuSans-74" x="1599.164062"/>
    <use xlink:href="#DejaVuSans-61" x="1638.373047"/>
    <use xlink:href="#DejaVuSans-6e" x="1699.652344"/>
    <use xlink:href="#DejaVuSans-63" x="1763.03125"/>
    <use xlink:href="#DejaVuSans-65" x="1818.011719"/>
   </g>
  </g>
 </g>
 <defs>
  <clipPath id="pc599e9d32d">
   <rect x="56.928125" y="48.331875" width="393.071875" height="113.346875"/>
  </clipPath>
  <clipPath id="pf86157b86e">
   <rect x="56.928125" y="191.096875" width="393.071875" height="113.346875"/>
  </clipPath>
 </defs>
</svg>
