<?xml version="1.0" encoding="utf-8" standalone="no"?>
<!DOCTYPE svg PUBLIC "-//W3C//DTD SVG 1.1//EN"
  "http://www.w3.org/Graphics/SVG/1.1/DTD/svg11.dtd">
<svg xmlns:xlink="http://www.w3.org/1999/xlink" width="460.8pt" height="345.6pt" viewBox="0 0 460.8 345.6" xmlns="http://www.w3.org/2000/svg" version="1.1">
 <metadata>
  <rdf:RDF xmlns:dc="http://purl.org/dc/elements/1.1/" xmlns:cc="http://creativecommons.org/ns#" xmlns:rdf="http://www.w3.org/1999/02/22-rdf-syntax-ns#">
   <cc:Work>
    <dc:type rdf:resource="http://purl.org/dc/dcmitype/StillImage"/>
    <dc:date>2022-01-15T23:47:10.531194</dc:date>
    <dc:format>image/svg+xml</dc:format>
    <dc:creator>
     <cc:Agent>
      <dc:title>Matplotlib v3.5.1, https://matplotlib.org/</dc:title>
     </cc:Agent>
    </dc:creator>
   </cc:Work>
  </rdf:RDF>
 </metadata>
 <defs>
  <style type="text/css">*{stroke-linejoin: round; stroke-linecap: butt}</style>
 </defs>
 <g id="figure_1">
  <g id="patch_1">
   <path d="M 0 345.6 
L 460.8 345.6 
L 460.8 0 
L 0 0 
z
" style="fill: #ffffff"/>
  </g>
  <g id="axes_1">
   <g id="patch_2">
    <path d="M 56.928125 304.44375 
L 450 304.44375 
L 450 25.918125 
L 56.928125 25.918125 
z
" style="fill: #ffffff"/>
   </g>
   <g id="matplotlib.axis_1">
    <g id="xtick_1">
     <g id="line2d_1">
      <path d="M 74.795028 304.44375 
L 74.795028 25.918125 
" clip-path="url(#p701bda51d7)" style="fill: none; stroke: #b0b0b0; stroke-width: 0.8; stroke-linecap: square"/>
     </g>
     <g id="line2d_2">
      <defs>
       <path id="md569f48e65" d="M 0 0 
L 0 3.5 
" style="stroke: #000000; stroke-width: 0.8"/>
      </defs>
      <g>
       <use xlink:href="#md569f48e65" x="74.795028" y="304.44375" style="stroke: #000000; stroke-width: 0.8"/>
      </g>
     </g>
     <g id="text_1">
      <!-- 0 -->
      <g transform="translate(71.613778 319.042187)scale(0.1 -0.1)">
       <defs>
        <path id="DejaVuSans-30" d="M 2034 4250 
Q 1547 4250 1301 3770 
Q 1056 3291 1056 2328 
Q 1056 1369 1301 889 
Q 1547 409 2034 409 
Q 2525 409 2770 889 
Q 3016 1369 3016 2328 
Q 3016 3291 2770 3770 
Q 2525 4250 2034 4250 
z
M 2034 4750 
Q 2819 4750 3233 4129 
Q 3647 3509 3647 2328 
Q 3647 1150 3233 529 
Q 2819 -91 2034 -91 
Q 1250 -91 836 529 
Q 422 1150 422 2328 
Q 422 3509 836 4129 
Q 1250 4750 2034 4750 
z
" transform="scale(0.015625)"/>
       </defs>
       <use xlink:href="#DejaVuSans-30"/>
      </g>
     </g>
    </g>
    <g id="xtick_2">
     <g id="line2d_3">
      <path d="M 124.425316 304.44375 
L 124.425316 25.918125 
" clip-path="url(#p701bda51d7)" style="fill: none; stroke: #b0b0b0; stroke-width: 0.8; stroke-linecap: square"/>
     </g>
     <g id="line2d_4">
      <g>
       <use xlink:href="#md569f48e65" x="124.425316" y="304.44375" style="stroke: #000000; stroke-width: 0.8"/>
      </g>
     </g>
     <g id="text_2">
      <!-- 50 -->
      <g transform="translate(118.062816 319.042187)scale(0.1 -0.1)">
       <defs>
        <path id="DejaVuSans-35" d="M 691 4666 
L 3169 4666 
L 3169 4134 
L 1269 4134 
L 1269 2991 
Q 1406 3038 1543 3061 
Q 1681 3084 1819 3084 
Q 2600 3084 3056 2656 
Q 3513 2228 3513 1497 
Q 3513 744 3044 326 
Q 2575 -91 1722 -91 
Q 1428 -91 1123 -41 
Q 819 9 494 109 
L 494 744 
Q 775 591 1075 516 
Q 1375 441 1709 441 
Q 2250 441 2565 725 
Q 2881 1009 2881 1497 
Q 2881 1984 2565 2268 
Q 2250 2553 1709 2553 
Q 1456 2553 1204 2497 
Q 953 2441 691 2322 
L 691 4666 
z
" transform="scale(0.015625)"/>
       </defs>
       <use xlink:href="#DejaVuSans-35"/>
       <use xlink:href="#DejaVuSans-30" x="63.623047"/>
      </g>
     </g>
    </g>
    <g id="xtick_3">
     <g id="line2d_5">
      <path d="M 174.055603 304.44375 
L 174.055603 25.918125 
" clip-path="url(#p701bda51d7)" style="fill: none; stroke: #b0b0b0; stroke-width: 0.8; stroke-linecap: square"/>
     </g>
     <g id="line2d_6">
      <g>
       <use xlink:href="#md569f48e65" x="174.055603" y="304.44375" style="stroke: #000000; stroke-width: 0.8"/>
      </g>
     </g>
     <g id="text_3">
      <!-- 100 -->
      <g transform="translate(164.511853 319.042187)scale(0.1 -0.1)">
       <defs>
        <path id="DejaVuSans-31" d="M 794 531 
L 1825 531 
L 1825 4091 
L 703 3866 
L 703 4441 
L 1819 4666 
L 2450 4666 
L 2450 531 
L 3481 531 
L 3481 0 
L 794 0 
L 794 531 
z
" transform="scale(0.015625)"/>
       </defs>
       <use xlink:href="#DejaVuSans-31"/>
       <use xlink:href="#DejaVuSans-30" x="63.623047"/>
       <use xlink:href="#DejaVuSans-30" x="127.246094"/>
      </g>
     </g>
    </g>
    <g id="xtick_4">
     <g id="line2d_7">
      <path d="M 223.68589 304.44375 
L 223.68589 25.918125 
" clip-path="url(#p701bda51d7)" style="fill: none; stroke: #b0b0b0; stroke-width: 0.8; stroke-linecap: square"/>
     </g>
     <g id="line2d_8">
      <g>
       <use xlink:href="#md569f48e65" x="223.68589" y="304.44375" style="stroke: #000000; stroke-width: 0.8"/>
      </g>
     </g>
     <g id="text_4">
      <!-- 150 -->
      <g transform="translate(214.14214 319.042187)scale(0.1 -0.1)">
       <use xlink:href="#DejaVuSans-31"/>
       <use xlink:href="#DejaVuSans-35" x="63.623047"/>
       <use xlink:href="#DejaVuSans-30" x="127.246094"/>
      </g>
     </g>
    </g>
    <g id="xtick_5">
     <g id="line2d_9">
      <path d="M 273.316177 304.44375 
L 273.316177 25.918125 
" clip-path="url(#p701bda51d7)" style="fill: none; stroke: #b0b0b0; stroke-width: 0.8; stroke-linecap: square"/>
     </g>
     <g id="line2d_10">
      <g>
       <use xlink:href="#md569f48e65" x="273.316177" y="304.44375" style="stroke: #000000; stroke-width: 0.8"/>
      </g>
     </g>
     <g id="text_5">
      <!-- 200 -->
      <g transform="translate(263.772427 319.042187)scale(0.1 -0.1)">
       <defs>
        <path id="DejaVuSans-32" d="M 1228 531 
L 3431 531 
L 3431 0 
L 469 0 
L 469 531 
Q 828 903 1448 1529 
Q 2069 2156 2228 2338 
Q 2531 2678 2651 2914 
Q 2772 3150 2772 3378 
Q 2772 3750 2511 3984 
Q 2250 4219 1831 4219 
Q 1534 4219 1204 4116 
Q 875 4013 500 3803 
L 500 4441 
Q 881 4594 1212 4672 
Q 1544 4750 1819 4750 
Q 2544 4750 2975 4387 
Q 3406 4025 3406 3419 
Q 3406 3131 3298 2873 
Q 3191 2616 2906 2266 
Q 2828 2175 2409 1742 
Q 1991 1309 1228 531 
z
" transform="scale(0.015625)"/>
       </defs>
       <use xlink:href="#DejaVuSans-32"/>
       <use xlink:href="#DejaVuSans-30" x="63.623047"/>
       <use xlink:href="#DejaVuSans-30" x="127.246094"/>
      </g>
     </g>
    </g>
    <g id="xtick_6">
     <g id="line2d_11">
      <path d="M 322.946465 304.44375 
L 322.946465 25.918125 
" clip-path="url(#p701bda51d7)" style="fill: none; stroke: #b0b0b0; stroke-width: 0.8; stroke-linecap: square"/>
     </g>
     <g id="line2d_12">
      <g>
       <use xlink:href="#md569f48e65" x="322.946465" y="304.44375" style="stroke: #000000; stroke-width: 0.8"/>
      </g>
     </g>
     <g id="text_6">
      <!-- 250 -->
      <g transform="translate(313.402715 319.042187)scale(0.1 -0.1)">
       <use xlink:href="#DejaVuSans-32"/>
       <use xlink:href="#DejaVuSans-35" x="63.623047"/>
       <use xlink:href="#DejaVuSans-30" x="127.246094"/>
      </g>
     </g>
    </g>
    <g id="xtick_7">
     <g id="line2d_13">
      <path d="M 372.576752 304.44375 
L 372.576752 25.918125 
" clip-path="url(#p701bda51d7)" style="fill: none; stroke: #b0b0b0; stroke-width: 0.8; stroke-linecap: square"/>
     </g>
     <g id="line2d_14">
      <g>
       <use xlink:href="#md569f48e65" x="372.576752" y="304.44375" style="stroke: #000000; stroke-width: 0.8"/>
      </g>
     </g>
     <g id="text_7">
      <!-- 300 -->
      <g transform="translate(363.033002 319.042187)scale(0.1 -0.1)">
       <defs>
        <path id="DejaVuSans-33" d="M 2597 2516 
Q 3050 2419 3304 2112 
Q 3559 1806 3559 1356 
Q 3559 666 3084 287 
Q 2609 -91 1734 -91 
Q 1441 -91 1130 -33 
Q 819 25 488 141 
L 488 750 
Q 750 597 1062 519 
Q 1375 441 1716 441 
Q 2309 441 2620 675 
Q 2931 909 2931 1356 
Q 2931 1769 2642 2001 
Q 2353 2234 1838 2234 
L 1294 2234 
L 1294 2753 
L 1863 2753 
Q 2328 2753 2575 2939 
Q 2822 3125 2822 3475 
Q 2822 3834 2567 4026 
Q 2313 4219 1838 4219 
Q 1578 4219 1281 4162 
Q 984 4106 628 3988 
L 628 4550 
Q 988 4650 1302 4700 
Q 1616 4750 1894 4750 
Q 2613 4750 3031 4423 
Q 3450 4097 3450 3541 
Q 3450 3153 3228 2886 
Q 3006 2619 2597 2516 
z
" transform="scale(0.015625)"/>
       </defs>
       <use xlink:href="#DejaVuSans-33"/>
       <use xlink:href="#DejaVuSans-30" x="63.623047"/>
       <use xlink:href="#DejaVuSans-30" x="127.246094"/>
      </g>
     </g>
    </g>
    <g id="xtick_8">
     <g id="line2d_15">
      <path d="M 422.207039 304.44375 
L 422.207039 25.918125 
" clip-path="url(#p701bda51d7)" style="fill: none; stroke: #b0b0b0; stroke-width: 0.8; stroke-linecap: square"/>
     </g>
     <g id="line2d_16">
      <g>
       <use xlink:href="#md569f48e65" x="422.207039" y="304.44375" style="stroke: #000000; stroke-width: 0.8"/>
      </g>
     </g>
     <g id="text_8">
      <!-- 350 -->
      <g transform="translate(412.663289 319.042187)scale(0.1 -0.1)">
       <use xlink:href="#DejaVuSans-33"/>
       <use xlink:href="#DejaVuSans-35" x="63.623047"/>
       <use xlink:href="#DejaVuSans-30" x="127.246094"/>
      </g>
     </g>
    </g>
    <g id="text_9">
     <!-- Translational Position [mm] -->
     <g transform="translate(185.486719 332.720312)scale(0.1 -0.1)">
      <defs>
       <path id="DejaVuSans-54" d="M -19 4666 
L 3928 4666 
L 3928 4134 
L 2272 4134 
L 2272 0 
L 1638 0 
L 1638 4134 
L -19 4134 
L -19 4666 
z
" transform="scale(0.015625)"/>
       <path id="DejaVuSans-72" d="M 2631 2963 
Q 2534 3019 2420 3045 
Q 2306 3072 2169 3072 
Q 1681 3072 1420 2755 
Q 1159 2438 1159 1844 
L 1159 0 
L 581 0 
L 581 3500 
L 1159 3500 
L 1159 2956 
Q 1341 3275 1631 3429 
Q 1922 3584 2338 3584 
Q 2397 3584 2469 3576 
Q 2541 3569 2628 3553 
L 2631 2963 
z
" transform="scale(0.015625)"/>
       <path id="DejaVuSans-61" d="M 2194 1759 
Q 1497 1759 1228 1600 
Q 959 1441 959 1056 
Q 959 750 1161 570 
Q 1363 391 1709 391 
Q 2188 391 2477 730 
Q 2766 1069 2766 1631 
L 2766 1759 
L 2194 1759 
z
M 3341 1997 
L 3341 0 
L 2766 0 
L 2766 531 
Q 2569 213 2275 61 
Q 1981 -91 1556 -91 
Q 1019 -91 701 211 
Q 384 513 384 1019 
Q 384 1609 779 1909 
Q 1175 2209 1959 2209 
L 2766 2209 
L 2766 2266 
Q 2766 2663 2505 2880 
Q 2244 3097 1772 3097 
Q 1472 3097 1187 3025 
Q 903 2953 641 2809 
L 641 3341 
Q 956 3463 1253 3523 
Q 1550 3584 1831 3584 
Q 2591 3584 2966 3190 
Q 3341 2797 3341 1997 
z
" transform="scale(0.015625)"/>
       <path id="DejaVuSans-6e" d="M 3513 2113 
L 3513 0 
L 2938 0 
L 2938 2094 
Q 2938 2591 2744 2837 
Q 2550 3084 2163 3084 
Q 1697 3084 1428 2787 
Q 1159 2491 1159 1978 
L 1159 0 
L 581 0 
L 581 3500 
L 1159 3500 
L 1159 2956 
Q 1366 3272 1645 3428 
Q 1925 3584 2291 3584 
Q 2894 3584 3203 3211 
Q 3513 2838 3513 2113 
z
" transform="scale(0.015625)"/>
       <path id="DejaVuSans-73" d="M 2834 3397 
L 2834 2853 
Q 2591 2978 2328 3040 
Q 2066 3103 1784 3103 
Q 1356 3103 1142 2972 
Q 928 2841 928 2578 
Q 928 2378 1081 2264 
Q 1234 2150 1697 2047 
L 1894 2003 
Q 2506 1872 2764 1633 
Q 3022 1394 3022 966 
Q 3022 478 2636 193 
Q 2250 -91 1575 -91 
Q 1294 -91 989 -36 
Q 684 19 347 128 
L 347 722 
Q 666 556 975 473 
Q 1284 391 1588 391 
Q 1994 391 2212 530 
Q 2431 669 2431 922 
Q 2431 1156 2273 1281 
Q 2116 1406 1581 1522 
L 1381 1569 
Q 847 1681 609 1914 
Q 372 2147 372 2553 
Q 372 3047 722 3315 
Q 1072 3584 1716 3584 
Q 2034 3584 2315 3537 
Q 2597 3491 2834 3397 
z
" transform="scale(0.015625)"/>
       <path id="DejaVuSans-6c" d="M 603 4863 
L 1178 4863 
L 1178 0 
L 603 0 
L 603 4863 
z
" transform="scale(0.015625)"/>
       <path id="DejaVuSans-74" d="M 1172 4494 
L 1172 3500 
L 2356 3500 
L 2356 3053 
L 1172 3053 
L 1172 1153 
Q 1172 725 1289 603 
Q 1406 481 1766 481 
L 2356 481 
L 2356 0 
L 1766 0 
Q 1100 0 847 248 
Q 594 497 594 1153 
L 594 3053 
L 172 3053 
L 172 3500 
L 594 3500 
L 594 4494 
L 1172 4494 
z
" transform="scale(0.015625)"/>
       <path id="DejaVuSans-69" d="M 603 3500 
L 1178 3500 
L 1178 0 
L 603 0 
L 603 3500 
z
M 603 4863 
L 1178 4863 
L 1178 4134 
L 603 4134 
L 603 4863 
z
" transform="scale(0.015625)"/>
       <path id="DejaVuSans-6f" d="M 1959 3097 
Q 1497 3097 1228 2736 
Q 959 2375 959 1747 
Q 959 1119 1226 758 
Q 1494 397 1959 397 
Q 2419 397 2687 759 
Q 2956 1122 2956 1747 
Q 2956 2369 2687 2733 
Q 2419 3097 1959 3097 
z
M 1959 3584 
Q 2709 3584 3137 3096 
Q 3566 2609 3566 1747 
Q 3566 888 3137 398 
Q 2709 -91 1959 -91 
Q 1206 -91 779 398 
Q 353 888 353 1747 
Q 353 2609 779 3096 
Q 1206 3584 1959 3584 
z
" transform="scale(0.015625)"/>
       <path id="DejaVuSans-20" transform="scale(0.015625)"/>
       <path id="DejaVuSans-50" d="M 1259 4147 
L 1259 2394 
L 2053 2394 
Q 2494 2394 2734 2622 
Q 2975 2850 2975 3272 
Q 2975 3691 2734 3919 
Q 2494 4147 2053 4147 
L 1259 4147 
z
M 628 4666 
L 2053 4666 
Q 2838 4666 3239 4311 
Q 3641 3956 3641 3272 
Q 3641 2581 3239 2228 
Q 2838 1875 2053 1875 
L 1259 1875 
L 1259 0 
L 628 0 
L 628 4666 
z
" transform="scale(0.015625)"/>
       <path id="DejaVuSans-5b" d="M 550 4863 
L 1875 4863 
L 1875 4416 
L 1125 4416 
L 1125 -397 
L 1875 -397 
L 1875 -844 
L 550 -844 
L 550 4863 
z
" transform="scale(0.015625)"/>
       <path id="DejaVuSans-6d" d="M 3328 2828 
Q 3544 3216 3844 3400 
Q 4144 3584 4550 3584 
Q 5097 3584 5394 3201 
Q 5691 2819 5691 2113 
L 5691 0 
L 5113 0 
L 5113 2094 
Q 5113 2597 4934 2840 
Q 4756 3084 4391 3084 
Q 3944 3084 3684 2787 
Q 3425 2491 3425 1978 
L 3425 0 
L 2847 0 
L 2847 2094 
Q 2847 2600 2669 2842 
Q 2491 3084 2119 3084 
Q 1678 3084 1418 2786 
Q 1159 2488 1159 1978 
L 1159 0 
L 581 0 
L 581 3500 
L 1159 3500 
L 1159 2956 
Q 1356 3278 1631 3431 
Q 1906 3584 2284 3584 
Q 2666 3584 2933 3390 
Q 3200 3197 3328 2828 
z
" transform="scale(0.015625)"/>
       <path id="DejaVuSans-5d" d="M 1947 4863 
L 1947 -844 
L 622 -844 
L 622 -397 
L 1369 -397 
L 1369 4416 
L 622 4416 
L 622 4863 
L 1947 4863 
z
" transform="scale(0.015625)"/>
      </defs>
      <use xlink:href="#DejaVuSans-54"/>
      <use xlink:href="#DejaVuSans-72" x="46.333984"/>
      <use xlink:href="#DejaVuSans-61" x="87.447266"/>
      <use xlink:href="#DejaVuSans-6e" x="148.726562"/>
      <use xlink:href="#DejaVuSans-73" x="212.105469"/>
      <use xlink:href="#DejaVuSans-6c" x="264.205078"/>
      <use xlink:href="#DejaVuSans-61" x="291.988281"/>
      <use xlink:href="#DejaVuSans-74" x="353.267578"/>
      <use xlink:href="#DejaVuSans-69" x="392.476562"/>
      <use xlink:href="#DejaVuSans-6f" x="420.259766"/>
      <use xlink:href="#DejaVuSans-6e" x="481.441406"/>
      <use xlink:href="#DejaVuSans-61" x="544.820312"/>
      <use xlink:href="#DejaVuSans-6c" x="606.099609"/>
      <use xlink:href="#DejaVuSans-20" x="633.882812"/>
      <use xlink:href="#DejaVuSans-50" x="665.669922"/>
      <use xlink:href="#DejaVuSans-6f" x="722.347656"/>
      <use xlink:href="#DejaVuSans-73" x="783.529297"/>
      <use xlink:href="#DejaVuSans-69" x="835.628906"/>
      <use xlink:href="#DejaVuSans-74" x="863.412109"/>
      <use xlink:href="#DejaVuSans-69" x="902.621094"/>
      <use xlink:href="#DejaVuSans-6f" x="930.404297"/>
      <use xlink:href="#DejaVuSans-6e" x="991.585938"/>
      <use xlink:href="#DejaVuSans-20" x="1054.964844"/>
      <use xlink:href="#DejaVuSans-5b" x="1086.751953"/>
      <use xlink:href="#DejaVuSans-6d" x="1125.765625"/>
      <use xlink:href="#DejaVuSans-6d" x="1223.177734"/>
      <use xlink:href="#DejaVuSans-5d" x="1320.589844"/>
     </g>
    </g>
   </g>
   <g id="matplotlib.axis_2">
    <g id="ytick_1">
     <g id="line2d_17">
      <path d="M 56.928125 291.879697 
L 450 291.879697 
" clip-path="url(#p701bda51d7)" style="fill: none; stroke: #b0b0b0; stroke-width: 0.8; stroke-linecap: square"/>
     </g>
     <g id="line2d_18">
      <defs>
       <path id="ma37ca0b4e1" d="M 0 0 
L -3.5 0 
" style="stroke: #000000; stroke-width: 0.8"/>
      </defs>
      <g>
       <use xlink:href="#ma37ca0b4e1" x="56.928125" y="291.879697" style="stroke: #000000; stroke-width: 0.8"/>
      </g>
     </g>
     <g id="text_10">
      <!-- 0 -->
      <g transform="translate(43.565625 295.678916)scale(0.1 -0.1)">
       <use xlink:href="#DejaVuSans-30"/>
      </g>
     </g>
    </g>
    <g id="ytick_2">
     <g id="line2d_19">
      <path d="M 56.928125 243.778421 
L 450 243.778421 
" clip-path="url(#p701bda51d7)" style="fill: none; stroke: #b0b0b0; stroke-width: 0.8; stroke-linecap: square"/>
     </g>
     <g id="line2d_20">
      <g>
       <use xlink:href="#ma37ca0b4e1" x="56.928125" y="243.778421" style="stroke: #000000; stroke-width: 0.8"/>
      </g>
     </g>
     <g id="text_11">
      <!-- 500 -->
      <g transform="translate(30.840625 247.57764)scale(0.1 -0.1)">
       <use xlink:href="#DejaVuSans-35"/>
       <use xlink:href="#DejaVuSans-30" x="63.623047"/>
       <use xlink:href="#DejaVuSans-30" x="127.246094"/>
      </g>
     </g>
    </g>
    <g id="ytick_3">
     <g id="line2d_21">
      <path d="M 56.928125 195.677146 
L 450 195.677146 
" clip-path="url(#p701bda51d7)" style="fill: none; stroke: #b0b0b0; stroke-width: 0.8; stroke-linecap: square"/>
     </g>
     <g id="line2d_22">
      <g>
       <use xlink:href="#ma37ca0b4e1" x="56.928125" y="195.677146" style="stroke: #000000; stroke-width: 0.8"/>
      </g>
     </g>
     <g id="text_12">
      <!-- 1000 -->
      <g transform="translate(24.478125 199.476365)scale(0.1 -0.1)">
       <use xlink:href="#DejaVuSans-31"/>
       <use xlink:href="#DejaVuSans-30" x="63.623047"/>
       <use xlink:href="#DejaVuSans-30" x="127.246094"/>
       <use xlink:href="#DejaVuSans-30" x="190.869141"/>
      </g>
     </g>
    </g>
    <g id="ytick_4">
     <g id="line2d_23">
      <path d="M 56.928125 147.575871 
L 450 147.575871 
" clip-path="url(#p701bda51d7)" style="fill: none; stroke: #b0b0b0; stroke-width: 0.8; stroke-linecap: square"/>
     </g>
     <g id="line2d_24">
      <g>
       <use xlink:href="#ma37ca0b4e1" x="56.928125" y="147.575871" style="stroke: #000000; stroke-width: 0.8"/>
      </g>
     </g>
     <g id="text_13">
      <!-- 1500 -->
      <g transform="translate(24.478125 151.375089)scale(0.1 -0.1)">
       <use xlink:href="#DejaVuSans-31"/>
       <use xlink:href="#DejaVuSans-35" x="63.623047"/>
       <use xlink:href="#DejaVuSans-30" x="127.246094"/>
       <use xlink:href="#DejaVuSans-30" x="190.869141"/>
      </g>
     </g>
    </g>
    <g id="ytick_5">
     <g id="line2d_25">
      <path d="M 56.928125 99.474595 
L 450 99.474595 
" clip-path="url(#p701bda51d7)" style="fill: none; stroke: #b0b0b0; stroke-width: 0.8; stroke-linecap: square"/>
     </g>
     <g id="line2d_26">
      <g>
       <use xlink:href="#ma37ca0b4e1" x="56.928125" y="99.474595" style="stroke: #000000; stroke-width: 0.8"/>
      </g>
     </g>
     <g id="text_14">
      <!-- 2000 -->
      <g transform="translate(24.478125 103.273814)scale(0.1 -0.1)">
       <use xlink:href="#DejaVuSans-32"/>
       <use xlink:href="#DejaVuSans-30" x="63.623047"/>
       <use xlink:href="#DejaVuSans-30" x="127.246094"/>
       <use xlink:href="#DejaVuSans-30" x="190.869141"/>
      </g>
     </g>
    </g>
    <g id="ytick_6">
     <g id="line2d_27">
      <path d="M 56.928125 51.37332 
L 450 51.37332 
" clip-path="url(#p701bda51d7)" style="fill: none; stroke: #b0b0b0; stroke-width: 0.8; stroke-linecap: square"/>
     </g>
     <g id="line2d_28">
      <g>
       <use xlink:href="#ma37ca0b4e1" x="56.928125" y="51.37332" style="stroke: #000000; stroke-width: 0.8"/>
      </g>
     </g>
     <g id="text_15">
      <!-- 2500 -->
      <g transform="translate(24.478125 55.172539)scale(0.1 -0.1)">
       <use xlink:href="#DejaVuSans-32"/>
       <use xlink:href="#DejaVuSans-35" x="63.623047"/>
       <use xlink:href="#DejaVuSans-30" x="127.246094"/>
       <use xlink:href="#DejaVuSans-30" x="190.869141"/>
      </g>
     </g>
    </g>
    <g id="text_16">
     <!-- Reflector Raw Value -->
     <g transform="translate(18.398438 214.980937)rotate(-90)scale(0.1 -0.1)">
      <defs>
       <path id="DejaVuSans-52" d="M 2841 2188 
Q 3044 2119 3236 1894 
Q 3428 1669 3622 1275 
L 4263 0 
L 3584 0 
L 2988 1197 
Q 2756 1666 2539 1819 
Q 2322 1972 1947 1972 
L 1259 1972 
L 1259 0 
L 628 0 
L 628 4666 
L 2053 4666 
Q 2853 4666 3247 4331 
Q 3641 3997 3641 3322 
Q 3641 2881 3436 2590 
Q 3231 2300 2841 2188 
z
M 1259 4147 
L 1259 2491 
L 2053 2491 
Q 2509 2491 2742 2702 
Q 2975 2913 2975 3322 
Q 2975 3731 2742 3939 
Q 2509 4147 2053 4147 
L 1259 4147 
z
" transform="scale(0.015625)"/>
       <path id="DejaVuSans-65" d="M 3597 1894 
L 3597 1613 
L 953 1613 
Q 991 1019 1311 708 
Q 1631 397 2203 397 
Q 2534 397 2845 478 
Q 3156 559 3463 722 
L 3463 178 
Q 3153 47 2828 -22 
Q 2503 -91 2169 -91 
Q 1331 -91 842 396 
Q 353 884 353 1716 
Q 353 2575 817 3079 
Q 1281 3584 2069 3584 
Q 2775 3584 3186 3129 
Q 3597 2675 3597 1894 
z
M 3022 2063 
Q 3016 2534 2758 2815 
Q 2500 3097 2075 3097 
Q 1594 3097 1305 2825 
Q 1016 2553 972 2059 
L 3022 2063 
z
" transform="scale(0.015625)"/>
       <path id="DejaVuSans-66" d="M 2375 4863 
L 2375 4384 
L 1825 4384 
Q 1516 4384 1395 4259 
Q 1275 4134 1275 3809 
L 1275 3500 
L 2222 3500 
L 2222 3053 
L 1275 3053 
L 1275 0 
L 697 0 
L 697 3053 
L 147 3053 
L 147 3500 
L 697 3500 
L 697 3744 
Q 697 4328 969 4595 
Q 1241 4863 1831 4863 
L 2375 4863 
z
" transform="scale(0.015625)"/>
       <path id="DejaVuSans-63" d="M 3122 3366 
L 3122 2828 
Q 2878 2963 2633 3030 
Q 2388 3097 2138 3097 
Q 1578 3097 1268 2742 
Q 959 2388 959 1747 
Q 959 1106 1268 751 
Q 1578 397 2138 397 
Q 2388 397 2633 464 
Q 2878 531 3122 666 
L 3122 134 
Q 2881 22 2623 -34 
Q 2366 -91 2075 -91 
Q 1284 -91 818 406 
Q 353 903 353 1747 
Q 353 2603 823 3093 
Q 1294 3584 2113 3584 
Q 2378 3584 2631 3529 
Q 2884 3475 3122 3366 
z
" transform="scale(0.015625)"/>
       <path id="DejaVuSans-77" d="M 269 3500 
L 844 3500 
L 1563 769 
L 2278 3500 
L 2956 3500 
L 3675 769 
L 4391 3500 
L 4966 3500 
L 4050 0 
L 3372 0 
L 2619 2869 
L 1863 0 
L 1184 0 
L 269 3500 
z
" transform="scale(0.015625)"/>
       <path id="DejaVuSans-56" d="M 1831 0 
L 50 4666 
L 709 4666 
L 2188 738 
L 3669 4666 
L 4325 4666 
L 2547 0 
L 1831 0 
z
" transform="scale(0.015625)"/>
       <path id="DejaVuSans-75" d="M 544 1381 
L 544 3500 
L 1119 3500 
L 1119 1403 
Q 1119 906 1312 657 
Q 1506 409 1894 409 
Q 2359 409 2629 706 
Q 2900 1003 2900 1516 
L 2900 3500 
L 3475 3500 
L 3475 0 
L 2900 0 
L 2900 538 
Q 2691 219 2414 64 
Q 2138 -91 1772 -91 
Q 1169 -91 856 284 
Q 544 659 544 1381 
z
M 1991 3584 
L 1991 3584 
z
" transform="scale(0.015625)"/>
      </defs>
      <use xlink:href="#DejaVuSans-52"/>
      <use xlink:href="#DejaVuSans-65" x="64.982422"/>
      <use xlink:href="#DejaVuSans-66" x="126.505859"/>
      <use xlink:href="#DejaVuSans-6c" x="161.710938"/>
      <use xlink:href="#DejaVuSans-65" x="189.494141"/>
      <use xlink:href="#DejaVuSans-63" x="251.017578"/>
      <use xlink:href="#DejaVuSans-74" x="305.998047"/>
      <use xlink:href="#DejaVuSans-6f" x="345.207031"/>
      <use xlink:href="#DejaVuSans-72" x="406.388672"/>
      <use xlink:href="#DejaVuSans-20" x="447.501953"/>
      <use xlink:href="#DejaVuSans-52" x="479.289062"/>
      <use xlink:href="#DejaVuSans-61" x="546.521484"/>
      <use xlink:href="#DejaVuSans-77" x="607.800781"/>
      <use xlink:href="#DejaVuSans-20" x="689.587891"/>
      <use xlink:href="#DejaVuSans-56" x="721.375"/>
      <use xlink:href="#DejaVuSans-61" x="782.033203"/>
      <use xlink:href="#DejaVuSans-6c" x="843.3125"/>
      <use xlink:href="#DejaVuSans-75" x="871.095703"/>
      <use xlink:href="#DejaVuSans-65" x="934.474609"/>
     </g>
    </g>
   </g>
   <g id="line2d_29">
    <path d="M 74.795028 40.983444 
L 74.815357 39.540406 
L 74.795346 41.272052 
L 74.904017 39.925216 
L 74.92903 39.732811 
L 74.990075 40.021419 
L 75.112662 40.983444 
L 75.16269 40.983444 
L 75.415407 39.155596 
L 75.49283 41.56066 
L 75.576507 38.578381 
L 75.666636 40.310027 
L 75.763415 40.117621 
L 75.867043 39.925216 
L 76.096335 40.983444 
L 76.221403 41.079647 
L 76.355405 40.983444 
L 76.497347 43.388508 
L 76.647231 41.94547 
L 76.806048 43.003698 
L 76.973798 41.94547 
L 77.150482 44.158129 
L 77.335107 44.061926 
L 77.529657 45.697369 
L 79.405682 52.623953 
L 79.680634 52.431548 
L 79.964519 53.874586 
L 80.558097 54.836612 
L 80.868783 54.932814 
L 81.188402 56.27965 
L 81.515962 55.221422 
L 81.853448 55.89484 
L 82.55522 56.375853 
L 82.918514 56.183447 
L 83.291734 56.183447 
L 83.673887 55.413827 
L 84.064973 56.087245 
L 84.464001 55.89484 
L 84.869977 55.413827 
L 85.286871 53.970789 
L 85.713692 54.740409 
L 86.150438 53.489776 
L 86.597111 54.740409 
L 87.053709 53.201168 
L 87.510308 53.297371 
L 88.453283 54.451802 
L 88.93966 53.778384 
L 89.426037 54.163194 
L 89.92234 53.297371 
L 90.944724 53.393574 
L 91.977034 55.125219 
L 92.513041 53.297371 
L 93.049048 53.585979 
L 93.585055 54.259396 
L 94.130988 54.163194 
L 94.676921 54.836612 
L 95.232781 54.836612 
L 95.78864 54.548004 
L 96.354425 55.51003 
L 96.92021 56.183447 
L 97.485996 55.125219 
L 98.061707 55.51003 
L 98.637418 55.413827 
L 99.798767 53.874586 
L 100.384405 53.489776 
L 102.746806 53.201168 
L 103.332444 52.335345 
L 103.928007 52.623953 
L 104.52357 52.335345 
L 105.714697 50.315092 
L 106.310261 50.218889 
L 106.905824 48.391041 
L 107.501388 47.62142 
L 108.096951 48.102433 
L 108.692515 48.006231 
L 109.288078 47.429015 
L 109.883641 47.140408 
L 111.074768 47.044205 
L 111.670332 44.639141 
L 112.265895 45.023952 
L 113.457022 46.274585 
L 114.052586 44.254331 
L 114.648149 44.542939 
L 115.243713 44.061926 
L 115.839276 44.158129 
L 116.434839 44.061926 
L 117.030403 43.484711 
L 117.625966 43.388508 
L 118.817093 41.94547 
L 120.603784 42.234078 
L 121.199347 41.849267 
L 122.390474 41.56066 
L 122.986037 41.56066 
L 123.581601 42.522685 
L 124.177164 42.33028 
L 124.772728 42.33028 
L 125.368291 42.522685 
L 125.963855 42.041673 
L 126.559418 43.003698 
L 127.154981 42.811293 
L 127.750545 43.099901 
L 128.346108 42.907495 
L 128.941672 43.869521 
L 129.537235 43.677116 
L 130.728362 43.965724 
L 131.323926 44.350534 
L 131.919489 44.446736 
L 132.515052 44.927749 
L 133.110616 45.120154 
L 133.706179 46.08218 
L 134.301743 46.659395 
L 134.897306 46.563192 
L 135.49287 47.044205 
L 136.683997 47.332813 
L 137.27956 47.813826 
L 137.875124 49.064459 
L 139.06625 49.545471 
L 139.661814 50.218889 
L 140.257377 50.218889 
L 140.852941 51.37332 
L 141.448504 51.950535 
L 142.044068 53.682181 
L 142.639631 55.029017 
L 143.235195 58.588511 
L 143.830758 63.013829 
L 144.426321 71.094843 
L 145.021885 82.927757 
L 146.213012 124.775866 
L 148.595266 228.289811 
L 149.190829 248.973359 
L 149.786392 264.750578 
L 150.381956 276.775896 
L 150.977519 284.856911 
L 151.573083 289.282228 
L 152.168646 291.783494 
L 222.395503 291.783494 
L 222.991066 290.725266 
L 224.182193 281.970834 
L 224.777756 276.391086 
L 225.37332 269.272097 
L 225.968883 260.806273 
L 227.16001 238.006268 
L 228.351137 210.107529 
L 231.328954 116.98346 
L 232.520081 81.003706 
L 233.115645 69.940412 
L 234.306772 57.241676 
L 235.497899 52.14294 
L 236.093462 51.469522 
L 236.689025 50.218889 
L 237.284589 50.218889 
L 237.880152 49.737877 
L 238.475716 50.218889 
L 239.666843 50.315092 
L 240.262406 50.507497 
L 240.85797 51.180915 
L 241.453533 50.6037 
L 242.64466 49.737877 
L 243.240223 50.218889 
L 243.835787 50.218889 
L 244.43135 50.507497 
L 245.026914 50.218889 
L 245.622477 50.218889 
L 246.218041 50.6037 
L 246.813604 50.699902 
L 247.409167 50.218889 
L 248.004731 50.98851 
L 248.600294 50.892307 
L 249.195858 51.75813 
L 249.791421 50.796105 
L 250.386985 52.335345 
L 250.982548 53.008763 
L 251.578112 51.854333 
L 252.173675 52.046738 
L 252.769238 52.720156 
L 253.364802 52.431548 
L 253.960365 53.008763 
L 254.555929 52.623953 
L 255.151492 52.720156 
L 255.747056 53.104966 
L 256.342619 52.046738 
L 257.533746 53.297371 
L 258.724873 53.297371 
L 259.320436 53.008763 
L 259.916 54.355599 
L 260.511563 53.297371 
L 261.107127 53.585979 
L 261.70269 53.104966 
L 262.893817 53.585979 
L 263.489381 53.297371 
L 264.084944 53.201168 
L 264.680507 53.874586 
L 265.276071 53.297371 
L 265.871634 53.682181 
L 266.467198 53.104966 
L 267.062761 53.297371 
L 267.658325 53.297371 
L 269.445015 52.623953 
L 270.040578 52.239143 
L 270.636142 52.335345 
L 271.231705 51.75813 
L 272.422832 51.75813 
L 273.018396 51.565725 
L 273.613959 51.75813 
L 275.400649 50.796105 
L 275.996213 51.37332 
L 276.591776 51.277117 
L 277.18734 52.14294 
L 277.782903 51.277117 
L 278.378467 52.14294 
L 278.97403 51.469522 
L 279.569594 51.661928 
L 280.165157 51.469522 
L 282.547411 51.950535 
L 283.142974 51.75813 
L 283.738538 52.720156 
L 284.334101 53.201168 
L 284.929665 52.623953 
L 285.525228 53.393574 
L 286.120792 53.201168 
L 286.716355 54.451802 
L 287.311918 54.259396 
L 287.907482 53.393574 
L 288.503045 54.548004 
L 289.098609 54.355599 
L 289.694172 55.125219 
L 290.289736 54.932814 
L 290.885299 55.702435 
L 291.480863 56.27965 
L 292.076426 56.183447 
L 292.671989 56.27965 
L 293.267553 56.856865 
L 293.863116 56.472055 
L 294.45868 56.66446 
L 295.054243 57.722688 
L 295.649807 57.626486 
L 296.24537 56.568258 
L 296.840934 56.760663 
L 297.436497 56.66446 
L 298.627624 57.915093 
L 299.223187 57.915093 
L 299.818751 56.953068 
L 300.414314 57.915093 
L 301.009878 57.626486 
L 301.605441 57.818891 
L 302.796568 57.241676 
L 303.392131 56.375853 
L 306.369949 56.27965 
L 306.965512 55.413827 
L 307.561076 55.798637 
L 308.156639 55.029017 
L 309.347766 56.472055 
L 309.943329 55.413827 
L 310.538893 54.740409 
L 311.73002 54.740409 
L 312.325583 54.548004 
L 312.921147 54.644207 
L 313.51671 55.029017 
L 314.112274 55.221422 
L 314.707837 56.183447 
L 315.898964 56.856865 
L 316.494527 57.434081 
L 317.090091 57.626486 
L 318.281218 59.454334 
L 318.876781 59.742942 
L 319.472345 60.608765 
L 320.067908 62.436613 
L 320.663471 65.611297 
L 321.259035 70.22902 
L 321.854598 77.348009 
L 322.450162 88.69991 
L 323.641289 128.912576 
L 324.832416 177.687269 
L 326.023542 227.712596 
L 327.214669 263.499944 
L 327.810233 275.910073 
L 328.405796 284.760708 
L 329.00136 290.436659 
L 329.596923 291.783494 
L 381.410943 291.783494 
L 382.006506 291.591089 
L 383.793197 290.340456 
L 384.38876 291.783494 
L 387.366577 291.783494 
L 387.962141 286.011341 
L 388.557704 286.107544 
L 389.153268 284.760708 
L 390.344395 283.510075 
L 390.939958 287.45438 
L 391.535522 287.261974 
L 392.131085 285.818936 
L 393.322212 284.08729 
L 393.917775 282.644252 
L 394.513339 275.236656 
L 396.895593 268.502477 
L 397.491156 272.735389 
L 398.08672 270.811338 
L 399.87341 261.575893 
L 400.468973 257.246779 
L 401.064537 245.22146 
L 401.6601 240.892345 
L 402.851227 228.289811 
L 403.446791 220.786012 
L 404.042354 221.748037 
L 405.829044 192.694867 
L 406.424608 181.054358 
L 407.020171 158.542961 
L 408.211298 133.818906 
L 409.303164 117.849283 
L 409.898728 126.603715 
L 410.494291 129.682196 
L 411.089855 137.474603 
L 412.181721 167.201191 
L 412.678024 176.148028 
L 413.273587 196.927779 
L 413.76989 218.477151 
L 414.861757 255.899943 
L 415.35806 278.218935 
L 415.854362 288.127797 
L 416.449926 291.783494 
L 423.199645 291.783494 
L 423.596687 291.494887 
L 423.993729 291.783494 
L 425.681159 291.783494 
L 425.978941 290.917671 
L 426.276723 291.302482 
L 426.574504 290.340456 
L 426.872286 290.148051 
L 427.170068 291.783494 
L 428.460455 291.783494 
L 428.758237 288.320202 
L 428.956758 288.320202 
L 429.353801 287.069569 
L 429.552322 291.783494 
L 430.445667 291.783494 
L 430.544927 285.722734 
L 430.644188 287.165772 
L 430.94197 285.722734 
L 431.140491 291.783494 
L 431.537533 291.783494 
L 431.537533 284.664506 
L 431.636794 284.664506 
L 431.736054 283.798683 
L 431.934575 291.783494 
L 431.934575 291.783494 
L 432.033836 291.783494 
L 432.133097 280.046783 
L 432.133097 281.201214 
" clip-path="url(#p701bda51d7)" style="fill: none; stroke: #1f77b4; stroke-width: 1.5; stroke-linecap: square"/>
   </g>
   <g id="line2d_30">
    <path d="M 74.795028 291.783494 
L 340.912629 291.783494 
L 341.508192 291.591089 
L 342.103756 291.591089 
L 342.699319 290.917671 
L 343.294882 291.398684 
L 343.890446 291.013874 
L 344.486009 291.687292 
L 345.677136 291.783494 
L 347.463827 291.783494 
L 348.05939 291.206279 
L 348.654953 290.340456 
L 349.250517 290.532861 
L 349.84608 290.340456 
L 351.037207 290.244254 
L 351.632771 291.783494 
L 354.610588 291.783494 
L 355.206151 290.244254 
L 355.801715 290.051848 
L 356.992842 290.148051 
L 357.588405 290.244254 
L 358.183969 289.955646 
L 358.779532 291.783494 
L 361.161786 291.783494 
L 361.757349 290.051848 
L 362.352913 289.859443 
L 363.54404 290.148051 
L 364.139603 289.763241 
L 364.735167 290.148051 
L 365.33073 291.783494 
L 367.712984 291.783494 
L 368.308547 289.955646 
L 369.499674 289.378431 
L 370.690801 289.282228 
L 371.286364 288.801215 
L 371.881928 291.783494 
L 374.264182 291.783494 
L 374.859745 288.705013 
L 375.455309 287.935392 
L 376.050872 287.83919 
L 376.646435 288.416405 
L 377.241999 287.742987 
L 377.837562 288.416405 
L 378.433126 291.783494 
L 380.81538 291.783494 
L 381.410943 286.203746 
L 382.006506 286.684759 
L 382.60207 285.337923 
L 383.793197 285.049316 
L 384.38876 284.4721 
L 384.984324 291.783494 
L 387.366577 291.783494 
L 387.962141 283.510075 
L 388.557704 282.355644 
L 389.153268 282.548049 
L 389.748831 281.393619 
L 390.344395 281.201214 
L 390.939958 291.494887 
L 391.535522 291.783494 
L 393.322212 291.783494 
L 393.917775 290.917671 
L 394.513339 278.02653 
L 395.704466 277.545517 
L 396.895593 275.621466 
L 397.491156 287.83919 
L 398.08672 289.089823 
L 399.277846 287.45438 
L 400.468973 286.684759 
L 401.064537 271.484756 
L 401.6601 270.618933 
L 402.255664 270.234123 
L 403.446791 268.59868 
L 404.042354 283.606278 
L 405.233481 281.970834 
L 405.829044 281.586024 
L 406.424608 280.912606 
L 407.020171 263.499944 
L 407.615735 262.634121 
L 408.211298 261.191083 
L 408.806862 260.806273 
L 409.303164 259.55564 
L 409.898728 276.583491 
L 410.494291 274.948048 
L 411.089855 274.467035 
L 411.586158 273.120199 
L 412.181721 271.869566 
L 412.678024 253.398677 
L 413.273587 252.436651 
L 414.365454 249.454372 
L 414.861757 248.780954 
L 415.35806 266.770831 
L 415.854362 265.712603 
L 416.449926 263.788552 
L 416.946229 263.307539 
L 417.442532 261.287286 
L 417.938834 240.603737 
L 418.435137 239.160699 
L 418.83218 236.94804 
L 419.328482 235.889812 
L 419.824785 233.484749 
L 420.221828 253.687284 
L 420.718131 252.148043 
L 421.115173 250.320195 
L 421.611476 249.454372 
L 422.008518 247.722726 
L 422.40556 224.634114 
L 422.802603 222.22905 
L 423.199645 220.978417 
L 423.596687 219.150568 
L 423.993729 216.745505 
L 424.291511 237.525256 
L 424.688554 235.889812 
L 424.986335 233.773356 
L 425.383378 233.099938 
L 425.681159 230.88728 
L 425.978941 206.548034 
L 426.872286 200.583476 
L 427.170068 196.927779 
L 427.46785 217.996138 
L 427.765631 215.591074 
L 427.964152 212.897403 
L 428.261934 211.550567 
L 428.460455 208.760693 
L 428.956758 179.707523 
L 429.552322 171.626508 
L 429.750843 194.426513 
L 429.949364 192.79107 
L 430.048625 188.173347 
L 430.445667 184.325245 
L 430.644188 155.07967 
L 430.842709 154.213847 
L 431.04123 146.613845 
L 431.140491 168.836634 
L 431.239751 166.335368 
L 431.537533 159.312582 
L 431.636794 128.431563 
L 431.835315 119.196118 
L 431.934575 142.669541 
L 431.934575 134.684729 
L 432.033836 130.932829 
L 432.133097 68.689779 
L 432.133097 80.137883 
" clip-path="url(#p701bda51d7)" style="fill: none; stroke: #ff7f0e; stroke-width: 1.5; stroke-linecap: square"/>
   </g>
   <g id="line2d_31">
    <path d="M 74.795028 291.783494 
L 376.646435 291.783494 
L 377.241999 291.591089 
L 377.837562 291.783494 
L 380.81538 291.783494 
L 381.410943 288.801215 
L 382.006506 288.99362 
L 382.60207 288.224 
L 383.197633 288.224 
L 383.793197 287.83919 
L 384.38876 291.783494 
L 387.366577 291.783494 
L 387.962141 285.241721 
L 388.557704 285.049316 
L 389.153268 284.664506 
L 389.748831 285.049316 
L 390.344395 283.991088 
L 390.939958 291.783494 
L 393.917775 291.783494 
L 394.513339 279.56577 
L 395.108902 280.046783 
L 395.704466 279.084758 
L 396.300029 279.56577 
L 396.895593 278.02653 
L 397.491156 290.532861 
L 398.682283 288.99362 
L 399.277846 288.320202 
L 400.468973 287.742987 
L 401.064537 275.429061 
L 401.6601 272.927794 
L 402.255664 272.831592 
L 402.851227 271.869566 
L 403.446791 271.869566 
L 404.042354 284.375898 
L 404.637917 284.4721 
L 405.233481 283.221467 
L 405.829044 283.221467 
L 406.424608 281.393619 
L 407.020171 267.251844 
L 407.615735 265.712603 
L 408.211298 265.423995 
L 408.806862 263.307539 
L 409.303164 273.408807 
L 409.898728 276.679694 
L 410.494291 276.294884 
L 411.089855 274.755643 
L 411.586158 273.793617 
L 412.181721 273.023997 
L 412.678024 257.439184 
L 413.273587 255.41893 
L 413.76989 255.611335 
L 414.365454 253.398677 
L 414.861757 266.386021 
L 415.35806 268.791085 
L 415.854362 266.674629 
L 416.449926 265.039185 
L 416.946229 264.558172 
L 417.442532 262.634121 
L 417.938834 245.60627 
L 418.435137 242.720193 
L 418.83218 243.489814 
L 419.328482 238.583484 
L 419.824785 254.841715 
L 420.221828 253.783487 
L 420.718131 253.398677 
L 421.115173 250.608803 
L 421.611476 250.031587 
L 422.008518 247.434118 
L 422.40556 228.770824 
L 422.802603 225.403734 
L 423.199645 224.826519 
L 423.596687 221.363227 
L 423.993729 238.006268 
L 424.291511 236.17842 
L 424.688554 235.889812 
L 424.986335 232.330318 
L 425.383378 232.234115 
L 425.681159 228.097406 
L 425.978941 209.241706 
L 426.276723 204.720186 
L 426.574504 205.586009 
L 426.872286 200.679679 
L 427.170068 218.284746 
L 427.765631 211.935377 
L 427.964152 211.550567 
L 428.460455 204.335376 
L 428.956758 178.264484 
L 429.155279 179.418915 
L 429.353801 173.261952 
L 429.552322 192.502462 
L 429.750843 187.307524 
L 429.949364 185.094866 
L 430.048625 186.153094 
L 430.445667 177.783472 
L 430.644188 150.750555 
L 430.94197 148.730301 
L 431.140491 163.834102 
L 431.339012 154.694859 
L 431.438273 155.753088 
L 431.537533 148.730301 
L 431.636794 120.158144 
L 431.736054 122.65941 
L 431.736054 114.289788 
L 431.835315 135.261944 
L 431.835315 128.527766 
L 431.934575 129.393589 
L 432.033836 85.33282 
L 432.033836 87.641682 
L 432.133097 104.380925 
L 432.133097 89.661935 
L 432.133097 53.393574 
L 432.133097 69.940412 
" clip-path="url(#p701bda51d7)" style="fill: none; stroke: #2ca02c; stroke-width: 1.5; stroke-linecap: square"/>
   </g>
   <g id="line2d_32">
    <path d="M 74.795028 278.315137 
L 74.863637 278.02653 
L 74.847875 279.56577 
L 74.904017 279.373365 
L 74.957617 279.373365 
L 75.112662 278.02653 
L 75.16269 279.373365 
L 75.217779 278.79615 
L 75.27813 279.373365 
L 75.343939 278.315137 
L 75.415407 278.603745 
L 75.49283 278.218935 
L 75.576507 278.507542 
L 75.867043 278.02653 
L 75.978214 277.930327 
L 76.221403 278.892353 
L 76.355405 278.02653 
L 76.497347 278.699947 
L 76.806048 277.737922 
L 77.150482 278.41134 
L 77.529657 277.449314 
L 77.733141 277.930327 
L 77.945559 277.449314 
L 78.165918 277.930327 
L 78.63542 276.968301 
L 78.883571 277.449314 
L 79.139664 276.679694 
L 79.405682 277.449314 
L 79.680634 277.545517 
L 79.964519 278.02653 
L 80.256345 277.449314 
L 80.558097 277.353112 
L 80.868783 276.968301 
L 81.188402 277.064504 
L 81.515962 276.198681 
L 81.853448 276.391086 
L 82.199867 277.449314 
L 82.55522 276.391086 
L 82.918514 276.775896 
L 83.291734 276.775896 
L 83.673887 277.545517 
L 84.064973 276.968301 
L 84.464001 277.449314 
L 84.869977 276.679694 
L 85.286871 276.679694 
L 85.713692 277.641719 
L 86.150438 276.391086 
L 87.053709 277.256909 
L 87.510308 276.391086 
L 87.976833 276.391086 
L 88.453283 276.679694 
L 88.93966 277.160707 
L 89.426037 277.930327 
L 89.92234 276.487289 
L 90.944724 277.353112 
L 91.977034 277.256909 
L 92.513041 277.064504 
L 93.585055 277.160707 
L 94.130988 276.583491 
L 94.676921 276.968301 
L 95.232781 277.834124 
L 95.78864 276.679694 
L 96.354425 276.775896 
L 96.92021 277.064504 
L 97.485996 276.968301 
L 98.061707 277.353112 
L 98.637418 278.507542 
L 99.223056 277.064504 
L 99.798767 278.122732 
L 100.384405 277.930327 
L 100.970042 279.084758 
L 101.555679 278.41134 
L 102.151243 278.315137 
L 102.746806 278.02653 
L 103.332444 278.603745 
L 103.928007 278.122732 
L 104.52357 278.892353 
L 105.119134 277.737922 
L 105.714697 278.699947 
L 106.310261 279.373365 
L 107.501388 278.315137 
L 108.096951 278.988555 
L 108.692515 278.988555 
L 109.288078 278.699947 
L 109.883641 279.18096 
L 110.479205 278.988555 
L 111.074768 279.277163 
L 112.265895 279.56577 
L 112.861459 279.373365 
L 113.457022 278.02653 
L 114.648149 279.084758 
L 115.243713 279.469568 
L 115.839276 278.507542 
L 116.434839 279.469568 
L 117.625966 279.56577 
L 118.22153 279.084758 
L 118.817093 278.988555 
L 119.412657 280.431593 
L 120.00822 278.988555 
L 120.603784 279.469568 
L 121.79491 279.56577 
L 122.390474 280.046783 
L 123.581601 280.239188 
L 124.177164 280.142986 
L 124.772728 280.623998 
L 125.368291 280.527796 
L 125.963855 281.008809 
L 127.154981 282.451847 
L 127.750545 282.740455 
L 128.346108 282.836657 
L 128.941672 283.221467 
L 129.537235 285.049316 
L 130.132799 285.145518 
L 130.728362 285.722734 
L 131.323926 286.588557 
L 131.919489 286.973367 
L 132.515052 288.127797 
L 133.110616 288.224 
L 133.706179 288.60881 
L 134.301743 290.244254 
L 134.897306 290.532861 
L 135.49287 291.783494 
L 217.630995 291.783494 
L 218.226559 291.398684 
L 219.417685 289.282228 
L 220.013249 289.859443 
L 220.608812 288.224 
L 221.799939 286.299949 
L 222.395503 286.203746 
L 222.991066 284.183493 
L 223.58663 284.183493 
L 224.182193 283.991088 
L 224.777756 282.836657 
L 225.37332 282.740455 
L 225.968883 281.682226 
L 228.351137 280.431593 
L 228.946701 280.623998 
L 229.542264 280.623998 
L 230.137827 280.142986 
L 230.733391 280.527796 
L 231.328954 279.758175 
L 231.924518 280.816404 
L 232.520081 280.431593 
L 233.115645 279.277163 
L 234.306772 279.56577 
L 235.497899 279.56577 
L 236.093462 280.046783 
L 236.689025 280.912606 
L 237.284589 280.046783 
L 237.880152 279.854378 
L 238.475716 280.527796 
L 239.071279 279.661973 
L 239.666843 280.527796 
L 240.262406 280.046783 
L 240.85797 280.431593 
L 241.453533 279.56577 
L 242.049096 280.431593 
L 242.64466 279.56577 
L 243.835787 279.56577 
L 244.43135 280.046783 
L 245.026914 279.56577 
L 245.622477 279.758175 
L 246.218041 279.56577 
L 246.813604 279.854378 
L 247.409167 279.56577 
L 248.004731 279.084758 
L 248.600294 280.046783 
L 249.195858 279.950581 
L 249.791421 279.373365 
L 250.386985 279.277163 
L 250.982548 278.988555 
L 251.578112 279.56577 
L 252.173675 278.315137 
L 252.769238 278.02653 
L 253.960365 278.02653 
L 254.555929 278.507542 
L 255.151492 278.02653 
L 255.747056 278.02653 
L 256.342619 278.699947 
L 256.938183 278.507542 
L 257.533746 279.373365 
L 258.12931 278.988555 
L 258.724873 279.084758 
L 259.320436 279.469568 
L 259.916 278.603745 
L 260.511563 278.41134 
L 261.107127 277.930327 
L 261.70269 278.988555 
L 262.298254 279.18096 
L 262.893817 278.79615 
L 263.489381 277.930327 
L 264.084944 278.892353 
L 264.680507 278.988555 
L 265.276071 278.603745 
L 265.871634 278.02653 
L 266.467198 279.56577 
L 267.062761 278.988555 
L 267.658325 279.56577 
L 268.253888 279.56577 
L 268.849452 278.988555 
L 269.445015 279.18096 
L 270.040578 278.02653 
L 270.636142 278.122732 
L 271.231705 279.277163 
L 271.827269 278.02653 
L 272.422832 278.988555 
L 273.018396 278.79615 
L 273.613959 278.02653 
L 274.209523 278.988555 
L 274.805086 278.315137 
L 275.400649 278.988555 
L 275.996213 279.950581 
L 277.782903 279.469568 
L 278.378467 279.373365 
L 278.97403 278.02653 
L 279.569594 279.56577 
L 280.165157 278.988555 
L 280.76072 278.02653 
L 281.356284 278.699947 
L 281.951847 278.892353 
L 282.547411 278.02653 
L 283.142974 279.084758 
L 283.738538 278.988555 
L 284.334101 279.277163 
L 284.929665 279.084758 
L 285.525228 279.56577 
L 286.120792 279.469568 
L 286.716355 279.56577 
L 287.311918 278.02653 
L 287.907482 278.892353 
L 288.503045 278.02653 
L 289.098609 278.603745 
L 290.289736 278.507542 
L 290.885299 277.834124 
L 291.480863 278.507542 
L 292.076426 278.507542 
L 292.671989 279.084758 
L 293.267553 278.988555 
L 293.863116 279.18096 
L 295.054243 278.699947 
L 295.649807 277.641719 
L 296.24537 278.892353 
L 297.436497 278.315137 
L 298.03206 277.737922 
L 298.627624 278.315137 
L 299.223187 278.507542 
L 299.818751 279.469568 
L 300.414314 279.950581 
L 301.009878 279.56577 
L 301.605441 280.239188 
L 302.796568 279.758175 
L 303.987695 279.084758 
L 305.178822 280.816404 
L 305.774385 281.105011 
L 306.369949 280.623998 
L 306.965512 282.067037 
L 307.561076 281.970834 
L 308.156639 284.183493 
L 309.943329 286.203746 
L 310.538893 287.261974 
L 311.134456 286.780962 
L 311.73002 287.45438 
L 312.325583 288.801215 
L 313.51671 290.340456 
L 314.112274 291.783494 
L 393.917775 291.783494 
L 394.513339 289.474633 
L 395.108902 290.148051 
L 396.300029 288.031595 
L 396.895593 288.60881 
L 397.491156 291.783494 
L 400.468973 291.783494 
L 401.064537 288.801215 
L 401.6601 289.089823 
L 402.255664 288.60881 
L 402.851227 290.051848 
L 403.446791 290.148051 
L 404.042354 291.783494 
L 425.681159 291.783494 
L 425.978941 290.917671 
L 426.276723 290.436659 
L 426.574504 290.340456 
L 426.872286 291.398684 
L 427.170068 290.340456 
L 427.46785 291.783494 
L 428.460455 291.783494 
L 428.758237 287.935392 
L 428.956758 288.127797 
L 429.155279 287.261974 
L 429.552322 288.512608 
L 429.750843 291.783494 
L 430.445667 291.783494 
L 430.644188 285.530329 
L 430.842709 285.434126 
L 430.94197 285.818936 
L 431.04123 285.722734 
L 431.239751 291.783494 
L 431.537533 291.783494 
L 431.636794 283.991088 
L 431.736054 284.183493 
L 431.835315 283.510075 
L 431.835315 291.783494 
L 431.934575 291.783494 
L 432.033836 291.783494 
L 432.133097 278.315137 
L 432.133097 279.56577 
" clip-path="url(#p701bda51d7)" style="fill: none; stroke: #d62728; stroke-width: 1.5; stroke-linecap: square"/>
   </g>
   <g id="patch_3">
    <path d="M 56.928125 304.44375 
L 56.928125 25.918125 
" style="fill: none; stroke: #000000; stroke-width: 0.8; stroke-linejoin: miter; stroke-linecap: square"/>
   </g>
   <g id="patch_4">
    <path d="M 450 304.44375 
L 450 25.918125 
" style="fill: none; stroke: #000000; stroke-width: 0.8; stroke-linejoin: miter; stroke-linecap: square"/>
   </g>
   <g id="patch_5">
    <path d="M 56.928125 304.44375 
L 450 304.44375 
" style="fill: none; stroke: #000000; stroke-width: 0.8; stroke-linejoin: miter; stroke-linecap: square"/>
   </g>
   <g id="patch_6">
    <path d="M 56.928125 25.918125 
L 450 25.918125 
" style="fill: none; stroke: #000000; stroke-width: 0.8; stroke-linejoin: miter; stroke-linecap: square"/>
   </g>
   <g id="text_17">
    <!-- Reflector Raw Value -->
    <g transform="translate(193.704062 19.918125)scale(0.12 -0.12)">
     <use xlink:href="#DejaVuSans-52"/>
     <use xlink:href="#DejaVuSans-65" x="64.982422"/>
     <use xlink:href="#DejaVuSans-66" x="126.505859"/>
     <use xlink:href="#DejaVuSans-6c" x="161.710938"/>
     <use xlink:href="#DejaVuSans-65" x="189.494141"/>
     <use xlink:href="#DejaVuSans-63" x="251.017578"/>
     <use xlink:href="#DejaVuSans-74" x="305.998047"/>
     <use xlink:href="#DejaVuSans-6f" x="345.207031"/>
     <use xlink:href="#DejaVuSans-72" x="406.388672"/>
     <use xlink:href="#DejaVuSans-20" x="447.501953"/>
     <use xlink:href="#DejaVuSans-52" x="479.289062"/>
     <use xlink:href="#DejaVuSans-61" x="546.521484"/>
     <use xlink:href="#DejaVuSans-77" x="607.800781"/>
     <use xlink:href="#DejaVuSans-20" x="689.587891"/>
     <use xlink:href="#DejaVuSans-56" x="721.375"/>
     <use xlink:href="#DejaVuSans-61" x="782.033203"/>
     <use xlink:href="#DejaVuSans-6c" x="843.3125"/>
     <use xlink:href="#DejaVuSans-75" x="871.095703"/>
     <use xlink:href="#DejaVuSans-65" x="934.474609"/>
    </g>
   </g>
   <g id="legend_1">
    <g id="patch_7">
     <path d="M 63.928125 196.037187 
L 150.728125 196.037187 
Q 152.728125 196.037187 152.728125 194.037187 
L 152.728125 136.324687 
Q 152.728125 134.324687 150.728125 134.324687 
L 63.928125 134.324687 
Q 61.928125 134.324687 61.928125 136.324687 
L 61.928125 194.037187 
Q 61.928125 196.037187 63.928125 196.037187 
z
" style="fill: #ffffff; opacity: 0.8; stroke: #cccccc; stroke-linejoin: miter"/>
    </g>
    <g id="line2d_33">
     <path d="M 65.928125 142.423125 
L 75.928125 142.423125 
L 85.928125 142.423125 
" style="fill: none; stroke: #1f77b4; stroke-width: 1.5; stroke-linecap: square"/>
    </g>
    <g id="text_18">
     <!-- Left Side -->
     <g transform="translate(93.928125 145.923125)scale(0.1 -0.1)">
      <defs>
       <path id="DejaVuSans-4c" d="M 628 4666 
L 1259 4666 
L 1259 531 
L 3531 531 
L 3531 0 
L 628 0 
L 628 4666 
z
" transform="scale(0.015625)"/>
       <path id="DejaVuSans-53" d="M 3425 4513 
L 3425 3897 
Q 3066 4069 2747 4153 
Q 2428 4238 2131 4238 
Q 1616 4238 1336 4038 
Q 1056 3838 1056 3469 
Q 1056 3159 1242 3001 
Q 1428 2844 1947 2747 
L 2328 2669 
Q 3034 2534 3370 2195 
Q 3706 1856 3706 1288 
Q 3706 609 3251 259 
Q 2797 -91 1919 -91 
Q 1588 -91 1214 -16 
Q 841 59 441 206 
L 441 856 
Q 825 641 1194 531 
Q 1563 422 1919 422 
Q 2459 422 2753 634 
Q 3047 847 3047 1241 
Q 3047 1584 2836 1778 
Q 2625 1972 2144 2069 
L 1759 2144 
Q 1053 2284 737 2584 
Q 422 2884 422 3419 
Q 422 4038 858 4394 
Q 1294 4750 2059 4750 
Q 2388 4750 2728 4690 
Q 3069 4631 3425 4513 
z
" transform="scale(0.015625)"/>
       <path id="DejaVuSans-64" d="M 2906 2969 
L 2906 4863 
L 3481 4863 
L 3481 0 
L 2906 0 
L 2906 525 
Q 2725 213 2448 61 
Q 2172 -91 1784 -91 
Q 1150 -91 751 415 
Q 353 922 353 1747 
Q 353 2572 751 3078 
Q 1150 3584 1784 3584 
Q 2172 3584 2448 3432 
Q 2725 3281 2906 2969 
z
M 947 1747 
Q 947 1113 1208 752 
Q 1469 391 1925 391 
Q 2381 391 2643 752 
Q 2906 1113 2906 1747 
Q 2906 2381 2643 2742 
Q 2381 3103 1925 3103 
Q 1469 3103 1208 2742 
Q 947 2381 947 1747 
z
" transform="scale(0.015625)"/>
      </defs>
      <use xlink:href="#DejaVuSans-4c"/>
      <use xlink:href="#DejaVuSans-65" x="53.962891"/>
      <use xlink:href="#DejaVuSans-66" x="115.486328"/>
      <use xlink:href="#DejaVuSans-74" x="148.941406"/>
      <use xlink:href="#DejaVuSans-20" x="188.150391"/>
      <use xlink:href="#DejaVuSans-53" x="219.9375"/>
      <use xlink:href="#DejaVuSans-69" x="283.414062"/>
      <use xlink:href="#DejaVuSans-64" x="311.197266"/>
      <use xlink:href="#DejaVuSans-65" x="374.673828"/>
     </g>
    </g>
    <g id="line2d_34">
     <path d="M 65.928125 157.10125 
L 75.928125 157.10125 
L 85.928125 157.10125 
" style="fill: none; stroke: #ff7f0e; stroke-width: 1.5; stroke-linecap: square"/>
    </g>
    <g id="text_19">
     <!-- Left Front -->
     <g transform="translate(93.928125 160.60125)scale(0.1 -0.1)">
      <defs>
       <path id="DejaVuSans-46" d="M 628 4666 
L 3309 4666 
L 3309 4134 
L 1259 4134 
L 1259 2759 
L 3109 2759 
L 3109 2228 
L 1259 2228 
L 1259 0 
L 628 0 
L 628 4666 
z
" transform="scale(0.015625)"/>
      </defs>
      <use xlink:href="#DejaVuSans-4c"/>
      <use xlink:href="#DejaVuSans-65" x="53.962891"/>
      <use xlink:href="#DejaVuSans-66" x="115.486328"/>
      <use xlink:href="#DejaVuSans-74" x="148.941406"/>
      <use xlink:href="#DejaVuSans-20" x="188.150391"/>
      <use xlink:href="#DejaVuSans-46" x="219.9375"/>
      <use xlink:href="#DejaVuSans-72" x="270.207031"/>
      <use xlink:href="#DejaVuSans-6f" x="309.070312"/>
      <use xlink:href="#DejaVuSans-6e" x="370.251953"/>
      <use xlink:href="#DejaVuSans-74" x="433.630859"/>
     </g>
    </g>
    <g id="line2d_35">
     <path d="M 65.928125 171.779375 
L 75.928125 171.779375 
L 85.928125 171.779375 
" style="fill: none; stroke: #2ca02c; stroke-width: 1.5; stroke-linecap: square"/>
    </g>
    <g id="text_20">
     <!-- Right Front -->
     <g transform="translate(93.928125 175.279375)scale(0.1 -0.1)">
      <defs>
       <path id="DejaVuSans-67" d="M 2906 1791 
Q 2906 2416 2648 2759 
Q 2391 3103 1925 3103 
Q 1463 3103 1205 2759 
Q 947 2416 947 1791 
Q 947 1169 1205 825 
Q 1463 481 1925 481 
Q 2391 481 2648 825 
Q 2906 1169 2906 1791 
z
M 3481 434 
Q 3481 -459 3084 -895 
Q 2688 -1331 1869 -1331 
Q 1566 -1331 1297 -1286 
Q 1028 -1241 775 -1147 
L 775 -588 
Q 1028 -725 1275 -790 
Q 1522 -856 1778 -856 
Q 2344 -856 2625 -561 
Q 2906 -266 2906 331 
L 2906 616 
Q 2728 306 2450 153 
Q 2172 0 1784 0 
Q 1141 0 747 490 
Q 353 981 353 1791 
Q 353 2603 747 3093 
Q 1141 3584 1784 3584 
Q 2172 3584 2450 3431 
Q 2728 3278 2906 2969 
L 2906 3500 
L 3481 3500 
L 3481 434 
z
" transform="scale(0.015625)"/>
       <path id="DejaVuSans-68" d="M 3513 2113 
L 3513 0 
L 2938 0 
L 2938 2094 
Q 2938 2591 2744 2837 
Q 2550 3084 2163 3084 
Q 1697 3084 1428 2787 
Q 1159 2491 1159 1978 
L 1159 0 
L 581 0 
L 581 4863 
L 1159 4863 
L 1159 2956 
Q 1366 3272 1645 3428 
Q 1925 3584 2291 3584 
Q 2894 3584 3203 3211 
Q 3513 2838 3513 2113 
z
" transform="scale(0.015625)"/>
      </defs>
      <use xlink:href="#DejaVuSans-52"/>
      <use xlink:href="#DejaVuSans-69" x="69.482422"/>
      <use xlink:href="#DejaVuSans-67" x="97.265625"/>
      <use xlink:href="#DejaVuSans-68" x="160.742188"/>
      <use xlink:href="#DejaVuSans-74" x="224.121094"/>
      <use xlink:href="#DejaVuSans-20" x="263.330078"/>
      <use xlink:href="#DejaVuSans-46" x="295.117188"/>
      <use xlink:href="#DejaVuSans-72" x="345.386719"/>
      <use xlink:href="#DejaVuSans-6f" x="384.25"/>
      <use xlink:href="#DejaVuSans-6e" x="445.431641"/>
      <use xlink:href="#DejaVuSans-74" x="508.810547"/>
     </g>
    </g>
    <g id="line2d_36">
     <path d="M 65.928125 186.4575 
L 75.928125 186.4575 
L 85.928125 186.4575 
" style="fill: none; stroke: #d62728; stroke-width: 1.5; stroke-linecap: square"/>
    </g>
    <g id="text_21">
     <!-- Right Side -->
     <g transform="translate(93.928125 189.9575)scale(0.1 -0.1)">
      <use xlink:href="#DejaVuSans-52"/>
      <use xlink:href="#DejaVuSans-69" x="69.482422"/>
      <use xlink:href="#DejaVuSans-67" x="97.265625"/>
      <use xlink:href="#DejaVuSans-68" x="160.742188"/>
      <use xlink:href="#DejaVuSans-74" x="224.121094"/>
      <use xlink:href="#DejaVuSans-20" x="263.330078"/>
      <use xlink:href="#DejaVuSans-53" x="295.117188"/>
      <use xlink:href="#DejaVuSans-69" x="358.59375"/>
      <use xlink:href="#DejaVuSans-64" x="386.376953"/>
      <use xlink:href="#DejaVuSans-65" x="449.853516"/>
     </g>
    </g>
   </g>
  </g>
 </g>
 <defs>
  <clipPath id="p701bda51d7">
   <rect x="56.928125" y="25.918125" width="393.071875" height="278.525625"/>
  </clipPath>
 </defs>
</svg>
