<?xml version="1.0" encoding="utf-8" standalone="no"?>
<!DOCTYPE svg PUBLIC "-//W3C//DTD SVG 1.1//EN"
  "http://www.w3.org/Graphics/SVG/1.1/DTD/svg11.dtd">
<svg xmlns:xlink="http://www.w3.org/1999/xlink" width="460.8pt" height="345.6pt" viewBox="0 0 460.8 345.6" xmlns="http://www.w3.org/2000/svg" version="1.1">
 <metadata>
  <rdf:RDF xmlns:dc="http://purl.org/dc/elements/1.1/" xmlns:cc="http://creativecommons.org/ns#" xmlns:rdf="http://www.w3.org/1999/02/22-rdf-syntax-ns#">
   <cc:Work>
    <dc:type rdf:resource="http://purl.org/dc/dcmitype/StillImage"/>
    <dc:date>2022-01-15T23:46:42.047181</dc:date>
    <dc:format>image/svg+xml</dc:format>
    <dc:creator>
     <cc:Agent>
      <dc:title>Matplotlib v3.5.1, https://matplotlib.org/</dc:title>
     </cc:Agent>
    </dc:creator>
   </cc:Work>
  </rdf:RDF>
 </metadata>
 <defs>
  <style type="text/css">*{stroke-linejoin: round; stroke-linecap: butt}</style>
 </defs>
 <g id="figure_1">
  <g id="patch_1">
   <path d="M 0 345.6 
L 460.8 345.6 
L 460.8 0 
L 0 0 
z
" style="fill: #ffffff"/>
  </g>
  <g id="axes_1">
   <g id="patch_2">
    <path d="M 56.928125 161.67875 
L 450 161.67875 
L 450 48.331875 
L 56.928125 48.331875 
z
" style="fill: #ffffff"/>
   </g>
   <g id="matplotlib.axis_1">
    <g id="xtick_1">
     <g id="line2d_1">
      <path d="M 74.795028 161.67875 
L 74.795028 48.331875 
" clip-path="url(#p881df15f48)" style="fill: none; stroke: #b0b0b0; stroke-width: 0.8; stroke-linecap: square"/>
     </g>
     <g id="line2d_2">
      <defs>
       <path id="mba946f8e29" d="M 0 0 
L 0 3.5 
" style="stroke: #000000; stroke-width: 0.8"/>
      </defs>
      <g>
       <use xlink:href="#mba946f8e29" x="74.795028" y="161.67875" style="stroke: #000000; stroke-width: 0.8"/>
      </g>
     </g>
    </g>
    <g id="xtick_2">
     <g id="line2d_3">
      <path d="M 140.968745 161.67875 
L 140.968745 48.331875 
" clip-path="url(#p881df15f48)" style="fill: none; stroke: #b0b0b0; stroke-width: 0.8; stroke-linecap: square"/>
     </g>
     <g id="line2d_4">
      <g>
       <use xlink:href="#mba946f8e29" x="140.968745" y="161.67875" style="stroke: #000000; stroke-width: 0.8"/>
      </g>
     </g>
    </g>
    <g id="xtick_3">
     <g id="line2d_5">
      <path d="M 207.142461 161.67875 
L 207.142461 48.331875 
" clip-path="url(#p881df15f48)" style="fill: none; stroke: #b0b0b0; stroke-width: 0.8; stroke-linecap: square"/>
     </g>
     <g id="line2d_6">
      <g>
       <use xlink:href="#mba946f8e29" x="207.142461" y="161.67875" style="stroke: #000000; stroke-width: 0.8"/>
      </g>
     </g>
    </g>
    <g id="xtick_4">
     <g id="line2d_7">
      <path d="M 273.316177 161.67875 
L 273.316177 48.331875 
" clip-path="url(#p881df15f48)" style="fill: none; stroke: #b0b0b0; stroke-width: 0.8; stroke-linecap: square"/>
     </g>
     <g id="line2d_8">
      <g>
       <use xlink:href="#mba946f8e29" x="273.316177" y="161.67875" style="stroke: #000000; stroke-width: 0.8"/>
      </g>
     </g>
    </g>
    <g id="xtick_5">
     <g id="line2d_9">
      <path d="M 339.489894 161.67875 
L 339.489894 48.331875 
" clip-path="url(#p881df15f48)" style="fill: none; stroke: #b0b0b0; stroke-width: 0.8; stroke-linecap: square"/>
     </g>
     <g id="line2d_10">
      <g>
       <use xlink:href="#mba946f8e29" x="339.489894" y="161.67875" style="stroke: #000000; stroke-width: 0.8"/>
      </g>
     </g>
    </g>
    <g id="xtick_6">
     <g id="line2d_11">
      <path d="M 405.66361 161.67875 
L 405.66361 48.331875 
" clip-path="url(#p881df15f48)" style="fill: none; stroke: #b0b0b0; stroke-width: 0.8; stroke-linecap: square"/>
     </g>
     <g id="line2d_12">
      <g>
       <use xlink:href="#mba946f8e29" x="405.66361" y="161.67875" style="stroke: #000000; stroke-width: 0.8"/>
      </g>
     </g>
    </g>
   </g>
   <g id="matplotlib.axis_2">
    <g id="ytick_1">
     <g id="line2d_13">
      <path d="M 56.928125 156.634067 
L 450 156.634067 
" clip-path="url(#p881df15f48)" style="fill: none; stroke: #b0b0b0; stroke-width: 0.8; stroke-linecap: square"/>
     </g>
     <g id="line2d_14">
      <defs>
       <path id="m95c82d8dd5" d="M 0 0 
L -3.5 0 
" style="stroke: #000000; stroke-width: 0.8"/>
      </defs>
      <g>
       <use xlink:href="#m95c82d8dd5" x="56.928125" y="156.634067" style="stroke: #000000; stroke-width: 0.8"/>
      </g>
     </g>
     <g id="text_1">
      <!-- 0 -->
      <g transform="translate(43.565625 160.433286)scale(0.1 -0.1)">
       <defs>
        <path id="DejaVuSans-30" d="M 2034 4250 
Q 1547 4250 1301 3770 
Q 1056 3291 1056 2328 
Q 1056 1369 1301 889 
Q 1547 409 2034 409 
Q 2525 409 2770 889 
Q 3016 1369 3016 2328 
Q 3016 3291 2770 3770 
Q 2525 4250 2034 4250 
z
M 2034 4750 
Q 2819 4750 3233 4129 
Q 3647 3509 3647 2328 
Q 3647 1150 3233 529 
Q 2819 -91 2034 -91 
Q 1250 -91 836 529 
Q 422 1150 422 2328 
Q 422 3509 836 4129 
Q 1250 4750 2034 4750 
z
" transform="scale(0.015625)"/>
       </defs>
       <use xlink:href="#DejaVuSans-30"/>
      </g>
     </g>
    </g>
    <g id="ytick_2">
     <g id="line2d_15">
      <path d="M 56.928125 129.772072 
L 450 129.772072 
" clip-path="url(#p881df15f48)" style="fill: none; stroke: #b0b0b0; stroke-width: 0.8; stroke-linecap: square"/>
     </g>
     <g id="line2d_16">
      <g>
       <use xlink:href="#m95c82d8dd5" x="56.928125" y="129.772072" style="stroke: #000000; stroke-width: 0.8"/>
      </g>
     </g>
     <g id="text_2">
      <!-- 250 -->
      <g transform="translate(30.840625 133.571291)scale(0.1 -0.1)">
       <defs>
        <path id="DejaVuSans-32" d="M 1228 531 
L 3431 531 
L 3431 0 
L 469 0 
L 469 531 
Q 828 903 1448 1529 
Q 2069 2156 2228 2338 
Q 2531 2678 2651 2914 
Q 2772 3150 2772 3378 
Q 2772 3750 2511 3984 
Q 2250 4219 1831 4219 
Q 1534 4219 1204 4116 
Q 875 4013 500 3803 
L 500 4441 
Q 881 4594 1212 4672 
Q 1544 4750 1819 4750 
Q 2544 4750 2975 4387 
Q 3406 4025 3406 3419 
Q 3406 3131 3298 2873 
Q 3191 2616 2906 2266 
Q 2828 2175 2409 1742 
Q 1991 1309 1228 531 
z
" transform="scale(0.015625)"/>
        <path id="DejaVuSans-35" d="M 691 4666 
L 3169 4666 
L 3169 4134 
L 1269 4134 
L 1269 2991 
Q 1406 3038 1543 3061 
Q 1681 3084 1819 3084 
Q 2600 3084 3056 2656 
Q 3513 2228 3513 1497 
Q 3513 744 3044 326 
Q 2575 -91 1722 -91 
Q 1428 -91 1123 -41 
Q 819 9 494 109 
L 494 744 
Q 775 591 1075 516 
Q 1375 441 1709 441 
Q 2250 441 2565 725 
Q 2881 1009 2881 1497 
Q 2881 1984 2565 2268 
Q 2250 2553 1709 2553 
Q 1456 2553 1204 2497 
Q 953 2441 691 2322 
L 691 4666 
z
" transform="scale(0.015625)"/>
       </defs>
       <use xlink:href="#DejaVuSans-32"/>
       <use xlink:href="#DejaVuSans-35" x="63.623047"/>
       <use xlink:href="#DejaVuSans-30" x="127.246094"/>
      </g>
     </g>
    </g>
    <g id="ytick_3">
     <g id="line2d_17">
      <path d="M 56.928125 102.910077 
L 450 102.910077 
" clip-path="url(#p881df15f48)" style="fill: none; stroke: #b0b0b0; stroke-width: 0.8; stroke-linecap: square"/>
     </g>
     <g id="line2d_18">
      <g>
       <use xlink:href="#m95c82d8dd5" x="56.928125" y="102.910077" style="stroke: #000000; stroke-width: 0.8"/>
      </g>
     </g>
     <g id="text_3">
      <!-- 500 -->
      <g transform="translate(30.840625 106.709296)scale(0.1 -0.1)">
       <use xlink:href="#DejaVuSans-35"/>
       <use xlink:href="#DejaVuSans-30" x="63.623047"/>
       <use xlink:href="#DejaVuSans-30" x="127.246094"/>
      </g>
     </g>
    </g>
    <g id="ytick_4">
     <g id="line2d_19">
      <path d="M 56.928125 76.048082 
L 450 76.048082 
" clip-path="url(#p881df15f48)" style="fill: none; stroke: #b0b0b0; stroke-width: 0.8; stroke-linecap: square"/>
     </g>
     <g id="line2d_20">
      <g>
       <use xlink:href="#m95c82d8dd5" x="56.928125" y="76.048082" style="stroke: #000000; stroke-width: 0.8"/>
      </g>
     </g>
     <g id="text_4">
      <!-- 750 -->
      <g transform="translate(30.840625 79.8473)scale(0.1 -0.1)">
       <defs>
        <path id="DejaVuSans-37" d="M 525 4666 
L 3525 4666 
L 3525 4397 
L 1831 0 
L 1172 0 
L 2766 4134 
L 525 4134 
L 525 4666 
z
" transform="scale(0.015625)"/>
       </defs>
       <use xlink:href="#DejaVuSans-37"/>
       <use xlink:href="#DejaVuSans-35" x="63.623047"/>
       <use xlink:href="#DejaVuSans-30" x="127.246094"/>
      </g>
     </g>
    </g>
    <g id="ytick_5">
     <g id="line2d_21">
      <path d="M 56.928125 49.186086 
L 450 49.186086 
" clip-path="url(#p881df15f48)" style="fill: none; stroke: #b0b0b0; stroke-width: 0.8; stroke-linecap: square"/>
     </g>
     <g id="line2d_22">
      <g>
       <use xlink:href="#m95c82d8dd5" x="56.928125" y="49.186086" style="stroke: #000000; stroke-width: 0.8"/>
      </g>
     </g>
     <g id="text_5">
      <!-- 1000 -->
      <g transform="translate(24.478125 52.985305)scale(0.1 -0.1)">
       <defs>
        <path id="DejaVuSans-31" d="M 794 531 
L 1825 531 
L 1825 4091 
L 703 3866 
L 703 4441 
L 1819 4666 
L 2450 4666 
L 2450 531 
L 3481 531 
L 3481 0 
L 794 0 
L 794 531 
z
" transform="scale(0.015625)"/>
       </defs>
       <use xlink:href="#DejaVuSans-31"/>
       <use xlink:href="#DejaVuSans-30" x="63.623047"/>
       <use xlink:href="#DejaVuSans-30" x="127.246094"/>
       <use xlink:href="#DejaVuSans-30" x="190.869141"/>
      </g>
     </g>
    </g>
    <g id="text_6">
     <!-- reflector value -->
     <g transform="translate(18.398438 141.321719)rotate(-90)scale(0.1 -0.1)">
      <defs>
       <path id="DejaVuSans-72" d="M 2631 2963 
Q 2534 3019 2420 3045 
Q 2306 3072 2169 3072 
Q 1681 3072 1420 2755 
Q 1159 2438 1159 1844 
L 1159 0 
L 581 0 
L 581 3500 
L 1159 3500 
L 1159 2956 
Q 1341 3275 1631 3429 
Q 1922 3584 2338 3584 
Q 2397 3584 2469 3576 
Q 2541 3569 2628 3553 
L 2631 2963 
z
" transform="scale(0.015625)"/>
       <path id="DejaVuSans-65" d="M 3597 1894 
L 3597 1613 
L 953 1613 
Q 991 1019 1311 708 
Q 1631 397 2203 397 
Q 2534 397 2845 478 
Q 3156 559 3463 722 
L 3463 178 
Q 3153 47 2828 -22 
Q 2503 -91 2169 -91 
Q 1331 -91 842 396 
Q 353 884 353 1716 
Q 353 2575 817 3079 
Q 1281 3584 2069 3584 
Q 2775 3584 3186 3129 
Q 3597 2675 3597 1894 
z
M 3022 2063 
Q 3016 2534 2758 2815 
Q 2500 3097 2075 3097 
Q 1594 3097 1305 2825 
Q 1016 2553 972 2059 
L 3022 2063 
z
" transform="scale(0.015625)"/>
       <path id="DejaVuSans-66" d="M 2375 4863 
L 2375 4384 
L 1825 4384 
Q 1516 4384 1395 4259 
Q 1275 4134 1275 3809 
L 1275 3500 
L 2222 3500 
L 2222 3053 
L 1275 3053 
L 1275 0 
L 697 0 
L 697 3053 
L 147 3053 
L 147 3500 
L 697 3500 
L 697 3744 
Q 697 4328 969 4595 
Q 1241 4863 1831 4863 
L 2375 4863 
z
" transform="scale(0.015625)"/>
       <path id="DejaVuSans-6c" d="M 603 4863 
L 1178 4863 
L 1178 0 
L 603 0 
L 603 4863 
z
" transform="scale(0.015625)"/>
       <path id="DejaVuSans-63" d="M 3122 3366 
L 3122 2828 
Q 2878 2963 2633 3030 
Q 2388 3097 2138 3097 
Q 1578 3097 1268 2742 
Q 959 2388 959 1747 
Q 959 1106 1268 751 
Q 1578 397 2138 397 
Q 2388 397 2633 464 
Q 2878 531 3122 666 
L 3122 134 
Q 2881 22 2623 -34 
Q 2366 -91 2075 -91 
Q 1284 -91 818 406 
Q 353 903 353 1747 
Q 353 2603 823 3093 
Q 1294 3584 2113 3584 
Q 2378 3584 2631 3529 
Q 2884 3475 3122 3366 
z
" transform="scale(0.015625)"/>
       <path id="DejaVuSans-74" d="M 1172 4494 
L 1172 3500 
L 2356 3500 
L 2356 3053 
L 1172 3053 
L 1172 1153 
Q 1172 725 1289 603 
Q 1406 481 1766 481 
L 2356 481 
L 2356 0 
L 1766 0 
Q 1100 0 847 248 
Q 594 497 594 1153 
L 594 3053 
L 172 3053 
L 172 3500 
L 594 3500 
L 594 4494 
L 1172 4494 
z
" transform="scale(0.015625)"/>
       <path id="DejaVuSans-6f" d="M 1959 3097 
Q 1497 3097 1228 2736 
Q 959 2375 959 1747 
Q 959 1119 1226 758 
Q 1494 397 1959 397 
Q 2419 397 2687 759 
Q 2956 1122 2956 1747 
Q 2956 2369 2687 2733 
Q 2419 3097 1959 3097 
z
M 1959 3584 
Q 2709 3584 3137 3096 
Q 3566 2609 3566 1747 
Q 3566 888 3137 398 
Q 2709 -91 1959 -91 
Q 1206 -91 779 398 
Q 353 888 353 1747 
Q 353 2609 779 3096 
Q 1206 3584 1959 3584 
z
" transform="scale(0.015625)"/>
       <path id="DejaVuSans-20" transform="scale(0.015625)"/>
       <path id="DejaVuSans-76" d="M 191 3500 
L 800 3500 
L 1894 563 
L 2988 3500 
L 3597 3500 
L 2284 0 
L 1503 0 
L 191 3500 
z
" transform="scale(0.015625)"/>
       <path id="DejaVuSans-61" d="M 2194 1759 
Q 1497 1759 1228 1600 
Q 959 1441 959 1056 
Q 959 750 1161 570 
Q 1363 391 1709 391 
Q 2188 391 2477 730 
Q 2766 1069 2766 1631 
L 2766 1759 
L 2194 1759 
z
M 3341 1997 
L 3341 0 
L 2766 0 
L 2766 531 
Q 2569 213 2275 61 
Q 1981 -91 1556 -91 
Q 1019 -91 701 211 
Q 384 513 384 1019 
Q 384 1609 779 1909 
Q 1175 2209 1959 2209 
L 2766 2209 
L 2766 2266 
Q 2766 2663 2505 2880 
Q 2244 3097 1772 3097 
Q 1472 3097 1187 3025 
Q 903 2953 641 2809 
L 641 3341 
Q 956 3463 1253 3523 
Q 1550 3584 1831 3584 
Q 2591 3584 2966 3190 
Q 3341 2797 3341 1997 
z
" transform="scale(0.015625)"/>
       <path id="DejaVuSans-75" d="M 544 1381 
L 544 3500 
L 1119 3500 
L 1119 1403 
Q 1119 906 1312 657 
Q 1506 409 1894 409 
Q 2359 409 2629 706 
Q 2900 1003 2900 1516 
L 2900 3500 
L 3475 3500 
L 3475 0 
L 2900 0 
L 2900 538 
Q 2691 219 2414 64 
Q 2138 -91 1772 -91 
Q 1169 -91 856 284 
Q 544 659 544 1381 
z
M 1991 3584 
L 1991 3584 
z
" transform="scale(0.015625)"/>
      </defs>
      <use xlink:href="#DejaVuSans-72"/>
      <use xlink:href="#DejaVuSans-65" x="38.863281"/>
      <use xlink:href="#DejaVuSans-66" x="100.386719"/>
      <use xlink:href="#DejaVuSans-6c" x="135.591797"/>
      <use xlink:href="#DejaVuSans-65" x="163.375"/>
      <use xlink:href="#DejaVuSans-63" x="224.898438"/>
      <use xlink:href="#DejaVuSans-74" x="279.878906"/>
      <use xlink:href="#DejaVuSans-6f" x="319.087891"/>
      <use xlink:href="#DejaVuSans-72" x="380.269531"/>
      <use xlink:href="#DejaVuSans-20" x="421.382812"/>
      <use xlink:href="#DejaVuSans-76" x="453.169922"/>
      <use xlink:href="#DejaVuSans-61" x="512.349609"/>
      <use xlink:href="#DejaVuSans-6c" x="573.628906"/>
      <use xlink:href="#DejaVuSans-75" x="601.412109"/>
      <use xlink:href="#DejaVuSans-65" x="664.791016"/>
     </g>
    </g>
   </g>
   <g id="line2d_23">
    <path d="M 74.795028 75.833186 
L 74.796458 75.725738 
L 74.911335 75.295946 
L 74.973697 75.403394 
L 75.21854 75.833186 
L 75.439163 75.725738 
L 75.837 75.403394 
L 75.957171 75.295946 
L 76.37261 75.510842 
L 76.530103 75.403394 
L 77.064787 75.725738 
L 77.264632 76.048082 
L 77.935633 76.477874 
L 78.995736 77.767249 
L 79.289547 77.982145 
L 80.587876 80.668345 
L 80.942567 81.098137 
L 82.47912 83.676888 
L 83.319527 84.536472 
L 84.206254 85.7184 
L 86.123969 87.86736 
L 86.633506 88.082256 
L 87.154955 88.512047 
L 89.353246 89.371631 
L 89.935575 89.371631 
L 90.531138 89.156735 
L 91.139936 89.156735 
L 93.006035 88.512047 
L 93.654538 88.404599 
L 94.30304 88.082256 
L 96.327956 87.652464 
L 97.704369 87.222672 
L 98.419045 87.222672 
L 100.576308 86.685432 
L 102.78651 86.363088 
L 105.049652 86.25564 
L 108.914197 85.7184 
L 109.695046 85.825848 
L 111.269981 85.7184 
L 112.844915 86.040744 
L 116.021254 85.933296 
L 118.403507 85.7184 
L 121.579846 85.7184 
L 124.756184 86.685432 
L 125.550269 87.115224 
L 127.932523 89.801423 
L 129.520692 92.165279 
L 131.108861 95.388718 
L 132.69703 99.471741 
L 134.285199 104.951589 
L 135.873369 112.258051 
L 137.461538 120.85389 
L 141.431961 144.492445 
L 142.226045 148.145677 
L 143.02013 151.046772 
L 143.814215 153.410628 
L 144.608299 155.129796 
L 145.402384 156.204275 
L 146.196468 156.526619 
L 235.994201 156.419171 
L 236.788286 155.989379 
L 238.376455 154.162764 
L 239.17054 152.76594 
L 239.964624 150.831876 
L 240.758709 148.575469 
L 243.140963 140.301974 
L 245.523217 130.954 
L 248.699555 118.060242 
L 250.287724 112.150603 
L 251.875893 106.885652 
L 252.53763 105.059036 
L 254.1258 102.050493 
L 255.713969 100.008981 
L 257.302138 98.719606 
L 258.096223 98.397262 
L 259.684392 97.43023 
L 261.272561 96.89299 
L 262.86073 96.463198 
L 268.419322 97.860022 
L 270.007492 97.537678 
L 273.977915 95.81851 
L 277.948338 96.785542 
L 279.536507 96.678094 
L 281.124676 96.35575 
L 283.50693 95.496166 
L 284.301014 95.496166 
L 287.477353 96.89299 
L 288.271437 97.322782 
L 289.859606 97.43023 
L 292.24186 97.000438 
L 293.830029 96.570646 
L 294.624114 96.785542 
L 298.594537 99.04195 
L 300.182706 99.364294 
L 301.770875 98.827054 
L 304.153129 98.074918 
L 304.947214 98.182366 
L 308.123552 99.794085 
L 310.505806 99.901533 
L 312.88806 98.719606 
L 314.476229 98.719606 
L 315.270314 99.256846 
L 316.064398 99.579189 
L 317.652567 100.546221 
L 319.240737 100.438773 
L 320.034821 100.223877 
L 320.828906 99.794085 
L 321.62299 99.149398 
L 323.21116 98.612158 
L 324.005244 98.612158 
L 327.181582 100.438773 
L 328.769752 100.331325 
L 330.357921 99.364294 
L 331.94609 98.289814 
L 333.534259 98.074918 
L 336.710598 99.794085 
L 338.298767 99.901533 
L 339.886936 98.934502 
L 340.681021 98.612158 
L 341.475105 98.074918 
L 342.26919 98.182366 
L 343.063274 98.50471 
L 344.651444 99.794085 
L 345.445528 100.653669 
L 346.239613 101.298357 
L 347.827782 101.405805 
L 349.415951 100.438773 
L 350.210036 99.901533 
L 351.00412 99.579189 
L 352.59229 99.901533 
L 354.974543 102.802629 
L 357.356797 104.521797 
L 358.944966 104.844141 
L 359.739051 105.596276 
L 361.32722 107.960132 
L 362.915389 112.043155 
L 363.709474 114.299563 
L 364.503559 116.018731 
L 365.297643 118.060242 
L 367.679897 123.110297 
L 369.268066 128.590144 
L 370.062151 131.598688 
L 372.444404 142.988174 
L 374.032574 148.790365 
L 374.826658 150.831876 
L 375.620743 152.551044 
L 376.414827 153.84042 
L 377.208912 154.700004 
L 378.002997 155.237244 
L 378.797081 155.45214 
L 379.591166 156.096827 
L 380.38525 156.419171 
L 381.97342 156.526619 
L 428.427368 156.526619 
L 429.88319 155.45214 
L 430.147885 155.45214 
L 430.809622 155.881931 
L 431.339012 155.129796 
L 431.339012 155.129796 
L 431.471359 155.129796 
L 431.603707 155.344692 
L 431.603707 155.667035 
L 431.736054 155.667035 
L 431.736054 155.559587 
L 431.868402 155.344692 
L 431.868402 154.9149 
L 432.000749 154.9149 
L 432.000749 154.9149 
L 432.000749 155.774483 
L 432.133097 155.774483 
L 432.133097 155.774483 
L 432.133097 154.270212 
L 432.133097 155.559587 
" clip-path="url(#p881df15f48)" style="fill: none; stroke: #1f77b4; stroke-width: 1.5; stroke-linecap: square"/>
   </g>
   <g id="line2d_24">
    <path d="M 74.795028 156.526619 
L 354.974543 156.419171 
L 357.356797 155.989379 
L 359.739051 155.129796 
L 362.121305 155.237244 
L 363.709474 155.667035 
L 365.297643 155.129796 
L 366.091728 154.9149 
L 368.473981 152.980836 
L 370.062151 152.980836 
L 370.856235 153.625524 
L 371.65032 154.055316 
L 372.444404 154.700004 
L 374.826658 153.84042 
L 376.414827 151.798908 
L 377.208912 151.261668 
L 378.797081 151.261668 
L 380.38525 152.980836 
L 381.179335 154.055316 
L 381.97342 153.518076 
L 382.767504 153.195732 
L 383.561589 152.336148 
L 385.149758 149.435053 
L 387.532012 149.435053 
L 388.326096 150.724428 
L 389.914266 153.625524 
L 391.502435 152.76594 
L 393.884689 146.641405 
L 395.472858 146.533957 
L 396.266942 146.533957 
L 398.649196 152.121252 
L 400.237365 150.939324 
L 401.03145 148.253125 
L 401.693187 145.459477 
L 402.487272 142.66583 
L 403.281356 142.236038 
L 404.075441 142.021142 
L 404.737178 141.698798 
L 405.531263 143.74031 
L 406.193 145.889269 
L 406.987084 148.038229 
L 408.442906 146.533957 
L 410.428118 136.756191 
L 412.545677 135.359367 
L 413.869151 139.97963 
L 414.398541 139.227494 
L 415.060278 138.690254 
L 415.722015 137.615775 
L 416.251405 133.962543 
L 416.913142 130.309312 
L 417.442532 129.664624 
L 418.633658 128.590144 
L 419.692438 133.532751 
L 420.221828 132.995512 
L 421.280607 132.243376 
L 421.677649 128.590144 
L 422.207039 124.829465 
L 423.530513 123.110297 
L 424.324598 128.2678 
L 424.72164 127.623112 
L 425.515725 126.656081 
L 426.30981 119.671962 
L 426.971547 118.597482 
L 427.236242 116.233626 
L 427.633284 117.09321 
L 428.427368 124.614569 
L 428.692063 124.184777 
L 429.618495 113.762323 
L 430.015538 113.010187 
L 430.147885 112.580395 
L 430.544927 117.63045 
L 430.677275 117.200658 
L 430.809622 116.55597 
L 430.94197 116.663418 
L 431.206665 109.894196 
L 431.471359 109.249508 
L 431.603707 112.258051 
L 431.603707 115.374043 
L 431.736054 114.621907 
L 431.736054 113.977219 
L 431.868402 114.084667 
L 431.868402 107.100548 
L 432.000749 106.670756 
L 432.000749 106.45586 
L 432.000749 113.117635 
L 432.133097 112.472947 
L 432.133097 112.687843 
L 432.133097 102.695181 
L 432.133097 110.001644 
" clip-path="url(#p881df15f48)" style="fill: none; stroke: #ff7f0e; stroke-width: 1.5; stroke-linecap: square"/>
   </g>
   <g id="line2d_25">
    <path d="M 74.795028 156.526619 
L 366.091728 156.419171 
L 369.268066 156.096827 
L 371.65032 156.204275 
L 372.444404 156.311723 
L 374.032574 155.667035 
L 376.414827 153.947868 
L 378.797081 153.947868 
L 381.179335 155.344692 
L 382.767504 154.485108 
L 385.149758 151.476564 
L 387.532012 151.476564 
L 389.914266 154.485108 
L 391.502435 153.518076 
L 393.884689 148.145677 
L 396.266942 148.145677 
L 398.649196 152.658492 
L 400.237365 151.69146 
L 401.03145 149.327605 
L 401.693187 146.748853 
L 402.487272 144.492445 
L 404.737178 143.632862 
L 405.531263 145.244581 
L 406.987084 148.790365 
L 407.648822 148.253125 
L 408.442906 147.286093 
L 410.428118 138.690254 
L 411.883939 137.615775 
L 412.545677 137.078535 
L 413.869151 140.731766 
L 414.398541 139.97963 
L 415.060278 139.334942 
L 415.722015 138.367911 
L 416.251405 135.037023 
L 416.913142 133.855095 
L 418.633658 132.135928 
L 419.692438 136.218951 
L 420.221828 135.466815 
L 420.751217 135.037023 
L 421.280607 132.135928 
L 421.677649 128.590144 
L 422.604081 126.870977 
L 423.133471 126.333737 
L 423.530513 125.689049 
L 424.324598 129.87952 
L 425.118683 128.482696 
L 425.912767 121.820922 
L 426.574504 120.31665 
L 426.971547 119.671962 
L 427.236242 118.16769 
L 427.633284 118.16769 
L 428.427368 125.474153 
L 429.353801 112.472947 
L 429.618495 113.869771 
L 429.88319 113.547427 
L 430.147885 112.365499 
L 430.41258 115.159147 
L 430.544927 117.737898 
L 430.809622 116.448522 
L 431.206665 109.249508 
L 431.339012 108.927164 
L 431.339012 108.497372 
L 431.471359 108.06758 
L 431.603707 110.968675 
L 431.603707 114.192115 
L 431.736054 113.869771 
L 431.736054 113.547427 
L 431.868402 110.431436 
L 431.868402 106.778204 
L 432.000749 106.778204 
L 432.000749 106.240964 
L 432.000749 112.150603 
L 432.133097 111.828259 
L 432.133097 103.017525 
L 432.133097 109.786748 
" clip-path="url(#p881df15f48)" style="fill: none; stroke: #2ca02c; stroke-width: 1.5; stroke-linecap: square"/>
   </g>
   <g id="line2d_26">
    <path d="M 74.795028 100.438773 
L 74.795081 100.438773 
L 74.886507 99.579189 
L 75.15819 100.653669 
L 75.21854 100.546221 
L 75.285243 100.653669 
L 75.957171 99.794085 
L 76.08621 99.686637 
L 76.37261 99.794085 
L 77.064787 99.364294 
L 77.476387 99.579189 
L 78.4412 99.471741 
L 78.995736 99.04195 
L 79.596593 98.074918 
L 80.246419 97.000438 
L 81.309169 95.81851 
L 82.47912 94.529134 
L 84.206254 93.239759 
L 85.141951 92.917415 
L 85.626342 92.702519 
L 86.123969 92.702519 
L 88.228293 91.413143 
L 89.353246 90.446111 
L 89.935575 90.231215 
L 90.531138 89.801423 
L 92.370767 89.586527 
L 94.30304 89.693975 
L 94.964777 89.801423 
L 95.639749 90.231215 
L 96.327956 90.875903 
L 97.704369 91.628039 
L 98.419045 91.950383 
L 100.576308 91.950383 
L 102.045365 91.413143 
L 102.78651 91.090799 
L 104.295271 90.983351 
L 109.695046 91.735487 
L 111.269981 92.487623 
L 112.844915 93.024863 
L 115.227169 93.347207 
L 116.815338 93.132311 
L 117.609423 92.809967 
L 119.991677 92.595071 
L 123.168015 93.132311 
L 124.756184 93.454655 
L 126.344353 94.636582 
L 128.726607 96.248302 
L 129.520692 96.570646 
L 130.314776 97.107886 
L 131.108861 97.860022 
L 132.69703 98.934502 
L 134.285199 100.976013 
L 135.079284 102.265389 
L 135.873369 103.877109 
L 137.461538 107.745236 
L 139.049707 112.580395 
L 140.637876 118.275138 
L 142.226045 124.936913 
L 146.990553 147.500989 
L 147.784638 150.294636 
L 148.578722 152.658492 
L 149.372807 154.270212 
L 150.166891 155.344692 
L 150.960976 156.204275 
L 151.755061 156.526619 
L 243.140963 156.419171 
L 244.729132 155.667035 
L 245.523217 155.022348 
L 246.317301 153.947868 
L 247.90547 151.046772 
L 248.699555 149.327605 
L 250.287724 145.137133 
L 251.875893 140.409422 
L 252.53763 138.153015 
L 254.919884 132.135928 
L 255.713969 130.524208 
L 257.302138 128.052904 
L 258.096223 127.300769 
L 258.890307 126.978425 
L 259.684392 127.085873 
L 260.478476 128.052904 
L 261.272561 129.449728 
L 262.066646 131.49124 
L 262.86073 134.069991 
L 266.037069 148.360573 
L 266.831153 151.046772 
L 267.625238 153.30318 
L 268.419322 155.022348 
L 269.213407 156.204275 
L 270.007492 156.526619 
L 363.709474 156.526619 
L 364.503559 155.881931 
L 365.297643 154.9149 
L 366.091728 153.518076 
L 366.885812 151.584012 
L 368.473981 146.533957 
L 369.268066 143.632862 
L 370.856235 136.433847 
L 372.444404 128.160352 
L 374.032574 117.415554 
L 377.208912 94.421686 
L 378.797081 86.363088 
L 379.591166 84.10668 
L 380.38525 82.387513 
L 381.179335 81.205585 
L 381.97342 79.701313 
L 383.561589 77.444905 
L 385.149758 74.973602 
L 385.943843 74.54381 
L 387.532012 74.328914 
L 389.120181 75.61829 
L 389.914266 76.048082 
L 390.70835 75.403394 
L 391.502435 74.973602 
L 392.296519 73.684226 
L 393.884689 70.568235 
L 395.472858 69.601203 
L 396.266942 69.386307 
L 398.649196 71.965058 
L 399.443281 71.427818 
L 400.237365 71.212923 
L 401.03145 70.030995 
L 402.487272 67.022451 
L 404.075441 66.270315 
L 404.737178 66.055419 
L 406.987084 68.849067 
L 407.648822 68.741619 
L 408.442906 68.419275 
L 409.76638 64.98094 
L 410.428118 63.154324 
L 411.222202 62.939428 
L 411.883939 62.509636 
L 412.545677 62.29474 
L 413.207414 63.154324 
L 413.869151 64.336252 
L 414.398541 64.013908 
L 415.722015 63.584116 
L 416.251405 61.864948 
L 416.913142 60.14578 
L 418.633658 60.253228 
L 419.163048 61.972396 
L 419.692438 64.121356 
L 421.280607 63.476668 
L 422.207039 59.608541 
L 423.133471 59.286197 
L 423.530513 58.534061 
L 424.324598 62.079844 
L 424.72164 62.29474 
L 425.515725 61.864948 
L 426.30981 57.889373 
L 426.971547 57.889373 
L 427.236242 56.599997 
L 427.633284 57.889373 
L 428.427368 63.261772 
L 428.692063 62.939428 
L 429.618495 55.095725 
L 430.147885 55.525517 
L 430.41258 57.781925 
L 430.544927 60.790468 
L 430.94197 60.897916 
L 431.206665 56.170205 
L 431.339012 56.492549 
L 431.471359 55.955309 
L 431.603707 58.319165 
L 431.603707 60.897916 
L 431.868402 60.68302 
L 431.868402 55.740413 
L 432.000749 55.525517 
L 432.000749 60.14578 
L 432.133097 59.823437 
L 432.133097 53.484006 
L 432.133097 60.360676 
L 432.133097 59.823437 
" clip-path="url(#p881df15f48)" style="fill: none; stroke: #d62728; stroke-width: 1.5; stroke-linecap: square"/>
   </g>
   <g id="patch_3">
    <path d="M 56.928125 161.67875 
L 56.928125 48.331875 
" style="fill: none; stroke: #000000; stroke-width: 0.8; stroke-linejoin: miter; stroke-linecap: square"/>
   </g>
   <g id="patch_4">
    <path d="M 450 161.67875 
L 450 48.331875 
" style="fill: none; stroke: #000000; stroke-width: 0.8; stroke-linejoin: miter; stroke-linecap: square"/>
   </g>
   <g id="patch_5">
    <path d="M 56.928125 161.67875 
L 450 161.67875 
" style="fill: none; stroke: #000000; stroke-width: 0.8; stroke-linejoin: miter; stroke-linecap: square"/>
   </g>
   <g id="patch_6">
    <path d="M 56.928125 48.331875 
L 450 48.331875 
" style="fill: none; stroke: #000000; stroke-width: 0.8; stroke-linejoin: miter; stroke-linecap: square"/>
   </g>
   <g id="text_7">
    <!-- Reflector Raw Value -->
    <g transform="translate(193.704062 42.331875)scale(0.12 -0.12)">
     <defs>
      <path id="DejaVuSans-52" d="M 2841 2188 
Q 3044 2119 3236 1894 
Q 3428 1669 3622 1275 
L 4263 0 
L 3584 0 
L 2988 1197 
Q 2756 1666 2539 1819 
Q 2322 1972 1947 1972 
L 1259 1972 
L 1259 0 
L 628 0 
L 628 4666 
L 2053 4666 
Q 2853 4666 3247 4331 
Q 3641 3997 3641 3322 
Q 3641 2881 3436 2590 
Q 3231 2300 2841 2188 
z
M 1259 4147 
L 1259 2491 
L 2053 2491 
Q 2509 2491 2742 2702 
Q 2975 2913 2975 3322 
Q 2975 3731 2742 3939 
Q 2509 4147 2053 4147 
L 1259 4147 
z
" transform="scale(0.015625)"/>
      <path id="DejaVuSans-77" d="M 269 3500 
L 844 3500 
L 1563 769 
L 2278 3500 
L 2956 3500 
L 3675 769 
L 4391 3500 
L 4966 3500 
L 4050 0 
L 3372 0 
L 2619 2869 
L 1863 0 
L 1184 0 
L 269 3500 
z
" transform="scale(0.015625)"/>
      <path id="DejaVuSans-56" d="M 1831 0 
L 50 4666 
L 709 4666 
L 2188 738 
L 3669 4666 
L 4325 4666 
L 2547 0 
L 1831 0 
z
" transform="scale(0.015625)"/>
     </defs>
     <use xlink:href="#DejaVuSans-52"/>
     <use xlink:href="#DejaVuSans-65" x="64.982422"/>
     <use xlink:href="#DejaVuSans-66" x="126.505859"/>
     <use xlink:href="#DejaVuSans-6c" x="161.710938"/>
     <use xlink:href="#DejaVuSans-65" x="189.494141"/>
     <use xlink:href="#DejaVuSans-63" x="251.017578"/>
     <use xlink:href="#DejaVuSans-74" x="305.998047"/>
     <use xlink:href="#DejaVuSans-6f" x="345.207031"/>
     <use xlink:href="#DejaVuSans-72" x="406.388672"/>
     <use xlink:href="#DejaVuSans-20" x="447.501953"/>
     <use xlink:href="#DejaVuSans-52" x="479.289062"/>
     <use xlink:href="#DejaVuSans-61" x="546.521484"/>
     <use xlink:href="#DejaVuSans-77" x="607.800781"/>
     <use xlink:href="#DejaVuSans-20" x="689.587891"/>
     <use xlink:href="#DejaVuSans-56" x="721.375"/>
     <use xlink:href="#DejaVuSans-61" x="782.033203"/>
     <use xlink:href="#DejaVuSans-6c" x="843.3125"/>
     <use xlink:href="#DejaVuSans-75" x="871.095703"/>
     <use xlink:href="#DejaVuSans-65" x="934.474609"/>
    </g>
   </g>
   <g id="legend_1">
    <g id="patch_7">
     <path d="M 219.75625 115.044375 
L 287.171875 115.044375 
Q 289.171875 115.044375 289.171875 113.044375 
L 289.171875 55.331875 
Q 289.171875 53.331875 287.171875 53.331875 
L 219.75625 53.331875 
Q 217.75625 53.331875 217.75625 55.331875 
L 217.75625 113.044375 
Q 217.75625 115.044375 219.75625 115.044375 
z
" style="fill: #ffffff; opacity: 0.8; stroke: #cccccc; stroke-linejoin: miter"/>
    </g>
    <g id="line2d_27">
     <path d="M 221.75625 61.430313 
L 231.75625 61.430313 
L 241.75625 61.430313 
" style="fill: none; stroke: #1f77b4; stroke-width: 1.5; stroke-linecap: square"/>
    </g>
    <g id="text_8">
     <!-- L Side -->
     <g transform="translate(249.75625 64.930313)scale(0.1 -0.1)">
      <defs>
       <path id="DejaVuSans-4c" d="M 628 4666 
L 1259 4666 
L 1259 531 
L 3531 531 
L 3531 0 
L 628 0 
L 628 4666 
z
" transform="scale(0.015625)"/>
       <path id="DejaVuSans-53" d="M 3425 4513 
L 3425 3897 
Q 3066 4069 2747 4153 
Q 2428 4238 2131 4238 
Q 1616 4238 1336 4038 
Q 1056 3838 1056 3469 
Q 1056 3159 1242 3001 
Q 1428 2844 1947 2747 
L 2328 2669 
Q 3034 2534 3370 2195 
Q 3706 1856 3706 1288 
Q 3706 609 3251 259 
Q 2797 -91 1919 -91 
Q 1588 -91 1214 -16 
Q 841 59 441 206 
L 441 856 
Q 825 641 1194 531 
Q 1563 422 1919 422 
Q 2459 422 2753 634 
Q 3047 847 3047 1241 
Q 3047 1584 2836 1778 
Q 2625 1972 2144 2069 
L 1759 2144 
Q 1053 2284 737 2584 
Q 422 2884 422 3419 
Q 422 4038 858 4394 
Q 1294 4750 2059 4750 
Q 2388 4750 2728 4690 
Q 3069 4631 3425 4513 
z
" transform="scale(0.015625)"/>
       <path id="DejaVuSans-69" d="M 603 3500 
L 1178 3500 
L 1178 0 
L 603 0 
L 603 3500 
z
M 603 4863 
L 1178 4863 
L 1178 4134 
L 603 4134 
L 603 4863 
z
" transform="scale(0.015625)"/>
       <path id="DejaVuSans-64" d="M 2906 2969 
L 2906 4863 
L 3481 4863 
L 3481 0 
L 2906 0 
L 2906 525 
Q 2725 213 2448 61 
Q 2172 -91 1784 -91 
Q 1150 -91 751 415 
Q 353 922 353 1747 
Q 353 2572 751 3078 
Q 1150 3584 1784 3584 
Q 2172 3584 2448 3432 
Q 2725 3281 2906 2969 
z
M 947 1747 
Q 947 1113 1208 752 
Q 1469 391 1925 391 
Q 2381 391 2643 752 
Q 2906 1113 2906 1747 
Q 2906 2381 2643 2742 
Q 2381 3103 1925 3103 
Q 1469 3103 1208 2742 
Q 947 2381 947 1747 
z
" transform="scale(0.015625)"/>
      </defs>
      <use xlink:href="#DejaVuSans-4c"/>
      <use xlink:href="#DejaVuSans-20" x="55.712891"/>
      <use xlink:href="#DejaVuSans-53" x="87.5"/>
      <use xlink:href="#DejaVuSans-69" x="150.976562"/>
      <use xlink:href="#DejaVuSans-64" x="178.759766"/>
      <use xlink:href="#DejaVuSans-65" x="242.236328"/>
     </g>
    </g>
    <g id="line2d_28">
     <path d="M 221.75625 76.108438 
L 231.75625 76.108438 
L 241.75625 76.108438 
" style="fill: none; stroke: #ff7f0e; stroke-width: 1.5; stroke-linecap: square"/>
    </g>
    <g id="text_9">
     <!-- L Front -->
     <g transform="translate(249.75625 79.608438)scale(0.1 -0.1)">
      <defs>
       <path id="DejaVuSans-46" d="M 628 4666 
L 3309 4666 
L 3309 4134 
L 1259 4134 
L 1259 2759 
L 3109 2759 
L 3109 2228 
L 1259 2228 
L 1259 0 
L 628 0 
L 628 4666 
z
" transform="scale(0.015625)"/>
       <path id="DejaVuSans-6e" d="M 3513 2113 
L 3513 0 
L 2938 0 
L 2938 2094 
Q 2938 2591 2744 2837 
Q 2550 3084 2163 3084 
Q 1697 3084 1428 2787 
Q 1159 2491 1159 1978 
L 1159 0 
L 581 0 
L 581 3500 
L 1159 3500 
L 1159 2956 
Q 1366 3272 1645 3428 
Q 1925 3584 2291 3584 
Q 2894 3584 3203 3211 
Q 3513 2838 3513 2113 
z
" transform="scale(0.015625)"/>
      </defs>
      <use xlink:href="#DejaVuSans-4c"/>
      <use xlink:href="#DejaVuSans-20" x="55.712891"/>
      <use xlink:href="#DejaVuSans-46" x="87.5"/>
      <use xlink:href="#DejaVuSans-72" x="137.769531"/>
      <use xlink:href="#DejaVuSans-6f" x="176.632812"/>
      <use xlink:href="#DejaVuSans-6e" x="237.814453"/>
      <use xlink:href="#DejaVuSans-74" x="301.193359"/>
     </g>
    </g>
    <g id="line2d_29">
     <path d="M 221.75625 90.786563 
L 231.75625 90.786563 
L 241.75625 90.786563 
" style="fill: none; stroke: #2ca02c; stroke-width: 1.5; stroke-linecap: square"/>
    </g>
    <g id="text_10">
     <!-- R Front -->
     <g transform="translate(249.75625 94.286563)scale(0.1 -0.1)">
      <use xlink:href="#DejaVuSans-52"/>
      <use xlink:href="#DejaVuSans-20" x="69.482422"/>
      <use xlink:href="#DejaVuSans-46" x="101.269531"/>
      <use xlink:href="#DejaVuSans-72" x="151.539062"/>
      <use xlink:href="#DejaVuSans-6f" x="190.402344"/>
      <use xlink:href="#DejaVuSans-6e" x="251.583984"/>
      <use xlink:href="#DejaVuSans-74" x="314.962891"/>
     </g>
    </g>
    <g id="line2d_30">
     <path d="M 221.75625 105.464688 
L 231.75625 105.464688 
L 241.75625 105.464688 
" style="fill: none; stroke: #d62728; stroke-width: 1.5; stroke-linecap: square"/>
    </g>
    <g id="text_11">
     <!-- R Side -->
     <g transform="translate(249.75625 108.964688)scale(0.1 -0.1)">
      <use xlink:href="#DejaVuSans-52"/>
      <use xlink:href="#DejaVuSans-20" x="69.482422"/>
      <use xlink:href="#DejaVuSans-53" x="101.269531"/>
      <use xlink:href="#DejaVuSans-69" x="164.746094"/>
      <use xlink:href="#DejaVuSans-64" x="192.529297"/>
      <use xlink:href="#DejaVuSans-65" x="256.005859"/>
     </g>
    </g>
   </g>
  </g>
  <g id="axes_2">
   <g id="patch_8">
    <path d="M 56.928125 304.44375 
L 450 304.44375 
L 450 191.096875 
L 56.928125 191.096875 
z
" style="fill: #ffffff"/>
   </g>
   <g id="matplotlib.axis_3">
    <g id="xtick_7">
     <g id="line2d_31">
      <path d="M 74.795028 304.44375 
L 74.795028 191.096875 
" clip-path="url(#p6839522840)" style="fill: none; stroke: #b0b0b0; stroke-width: 0.8; stroke-linecap: square"/>
     </g>
     <g id="line2d_32">
      <g>
       <use xlink:href="#mba946f8e29" x="74.795028" y="304.44375" style="stroke: #000000; stroke-width: 0.8"/>
      </g>
     </g>
     <g id="text_12">
      <!-- 0 -->
      <g transform="translate(71.613778 319.042187)scale(0.1 -0.1)">
       <use xlink:href="#DejaVuSans-30"/>
      </g>
     </g>
    </g>
    <g id="xtick_8">
     <g id="line2d_33">
      <path d="M 140.968745 304.44375 
L 140.968745 191.096875 
" clip-path="url(#p6839522840)" style="fill: none; stroke: #b0b0b0; stroke-width: 0.8; stroke-linecap: square"/>
     </g>
     <g id="line2d_34">
      <g>
       <use xlink:href="#mba946f8e29" x="140.968745" y="304.44375" style="stroke: #000000; stroke-width: 0.8"/>
      </g>
     </g>
     <g id="text_13">
      <!-- 50 -->
      <g transform="translate(134.606245 319.042187)scale(0.1 -0.1)">
       <use xlink:href="#DejaVuSans-35"/>
       <use xlink:href="#DejaVuSans-30" x="63.623047"/>
      </g>
     </g>
    </g>
    <g id="xtick_9">
     <g id="line2d_35">
      <path d="M 207.142461 304.44375 
L 207.142461 191.096875 
" clip-path="url(#p6839522840)" style="fill: none; stroke: #b0b0b0; stroke-width: 0.8; stroke-linecap: square"/>
     </g>
     <g id="line2d_36">
      <g>
       <use xlink:href="#mba946f8e29" x="207.142461" y="304.44375" style="stroke: #000000; stroke-width: 0.8"/>
      </g>
     </g>
     <g id="text_14">
      <!-- 100 -->
      <g transform="translate(197.598711 319.042187)scale(0.1 -0.1)">
       <use xlink:href="#DejaVuSans-31"/>
       <use xlink:href="#DejaVuSans-30" x="63.623047"/>
       <use xlink:href="#DejaVuSans-30" x="127.246094"/>
      </g>
     </g>
    </g>
    <g id="xtick_10">
     <g id="line2d_37">
      <path d="M 273.316177 304.44375 
L 273.316177 191.096875 
" clip-path="url(#p6839522840)" style="fill: none; stroke: #b0b0b0; stroke-width: 0.8; stroke-linecap: square"/>
     </g>
     <g id="line2d_38">
      <g>
       <use xlink:href="#mba946f8e29" x="273.316177" y="304.44375" style="stroke: #000000; stroke-width: 0.8"/>
      </g>
     </g>
     <g id="text_15">
      <!-- 150 -->
      <g transform="translate(263.772427 319.042187)scale(0.1 -0.1)">
       <use xlink:href="#DejaVuSans-31"/>
       <use xlink:href="#DejaVuSans-35" x="63.623047"/>
       <use xlink:href="#DejaVuSans-30" x="127.246094"/>
      </g>
     </g>
    </g>
    <g id="xtick_11">
     <g id="line2d_39">
      <path d="M 339.489894 304.44375 
L 339.489894 191.096875 
" clip-path="url(#p6839522840)" style="fill: none; stroke: #b0b0b0; stroke-width: 0.8; stroke-linecap: square"/>
     </g>
     <g id="line2d_40">
      <g>
       <use xlink:href="#mba946f8e29" x="339.489894" y="304.44375" style="stroke: #000000; stroke-width: 0.8"/>
      </g>
     </g>
     <g id="text_16">
      <!-- 200 -->
      <g transform="translate(329.946144 319.042187)scale(0.1 -0.1)">
       <use xlink:href="#DejaVuSans-32"/>
       <use xlink:href="#DejaVuSans-30" x="63.623047"/>
       <use xlink:href="#DejaVuSans-30" x="127.246094"/>
      </g>
     </g>
    </g>
    <g id="xtick_12">
     <g id="line2d_41">
      <path d="M 405.66361 304.44375 
L 405.66361 191.096875 
" clip-path="url(#p6839522840)" style="fill: none; stroke: #b0b0b0; stroke-width: 0.8; stroke-linecap: square"/>
     </g>
     <g id="line2d_42">
      <g>
       <use xlink:href="#mba946f8e29" x="405.66361" y="304.44375" style="stroke: #000000; stroke-width: 0.8"/>
      </g>
     </g>
     <g id="text_17">
      <!-- 250 -->
      <g transform="translate(396.11986 319.042187)scale(0.1 -0.1)">
       <use xlink:href="#DejaVuSans-32"/>
       <use xlink:href="#DejaVuSans-35" x="63.623047"/>
       <use xlink:href="#DejaVuSans-30" x="127.246094"/>
      </g>
     </g>
    </g>
    <g id="text_18">
     <!-- Translational Position [mm] -->
     <g transform="translate(185.486719 332.720312)scale(0.1 -0.1)">
      <defs>
       <path id="DejaVuSans-54" d="M -19 4666 
L 3928 4666 
L 3928 4134 
L 2272 4134 
L 2272 0 
L 1638 0 
L 1638 4134 
L -19 4134 
L -19 4666 
z
" transform="scale(0.015625)"/>
       <path id="DejaVuSans-73" d="M 2834 3397 
L 2834 2853 
Q 2591 2978 2328 3040 
Q 2066 3103 1784 3103 
Q 1356 3103 1142 2972 
Q 928 2841 928 2578 
Q 928 2378 1081 2264 
Q 1234 2150 1697 2047 
L 1894 2003 
Q 2506 1872 2764 1633 
Q 3022 1394 3022 966 
Q 3022 478 2636 193 
Q 2250 -91 1575 -91 
Q 1294 -91 989 -36 
Q 684 19 347 128 
L 347 722 
Q 666 556 975 473 
Q 1284 391 1588 391 
Q 1994 391 2212 530 
Q 2431 669 2431 922 
Q 2431 1156 2273 1281 
Q 2116 1406 1581 1522 
L 1381 1569 
Q 847 1681 609 1914 
Q 372 2147 372 2553 
Q 372 3047 722 3315 
Q 1072 3584 1716 3584 
Q 2034 3584 2315 3537 
Q 2597 3491 2834 3397 
z
" transform="scale(0.015625)"/>
       <path id="DejaVuSans-50" d="M 1259 4147 
L 1259 2394 
L 2053 2394 
Q 2494 2394 2734 2622 
Q 2975 2850 2975 3272 
Q 2975 3691 2734 3919 
Q 2494 4147 2053 4147 
L 1259 4147 
z
M 628 4666 
L 2053 4666 
Q 2838 4666 3239 4311 
Q 3641 3956 3641 3272 
Q 3641 2581 3239 2228 
Q 2838 1875 2053 1875 
L 1259 1875 
L 1259 0 
L 628 0 
L 628 4666 
z
" transform="scale(0.015625)"/>
       <path id="DejaVuSans-5b" d="M 550 4863 
L 1875 4863 
L 1875 4416 
L 1125 4416 
L 1125 -397 
L 1875 -397 
L 1875 -844 
L 550 -844 
L 550 4863 
z
" transform="scale(0.015625)"/>
       <path id="DejaVuSans-6d" d="M 3328 2828 
Q 3544 3216 3844 3400 
Q 4144 3584 4550 3584 
Q 5097 3584 5394 3201 
Q 5691 2819 5691 2113 
L 5691 0 
L 5113 0 
L 5113 2094 
Q 5113 2597 4934 2840 
Q 4756 3084 4391 3084 
Q 3944 3084 3684 2787 
Q 3425 2491 3425 1978 
L 3425 0 
L 2847 0 
L 2847 2094 
Q 2847 2600 2669 2842 
Q 2491 3084 2119 3084 
Q 1678 3084 1418 2786 
Q 1159 2488 1159 1978 
L 1159 0 
L 581 0 
L 581 3500 
L 1159 3500 
L 1159 2956 
Q 1356 3278 1631 3431 
Q 1906 3584 2284 3584 
Q 2666 3584 2933 3390 
Q 3200 3197 3328 2828 
z
" transform="scale(0.015625)"/>
       <path id="DejaVuSans-5d" d="M 1947 4863 
L 1947 -844 
L 622 -844 
L 622 -397 
L 1369 -397 
L 1369 4416 
L 622 4416 
L 622 4863 
L 1947 4863 
z
" transform="scale(0.015625)"/>
      </defs>
      <use xlink:href="#DejaVuSans-54"/>
      <use xlink:href="#DejaVuSans-72" x="46.333984"/>
      <use xlink:href="#DejaVuSans-61" x="87.447266"/>
      <use xlink:href="#DejaVuSans-6e" x="148.726562"/>
      <use xlink:href="#DejaVuSans-73" x="212.105469"/>
      <use xlink:href="#DejaVuSans-6c" x="264.205078"/>
      <use xlink:href="#DejaVuSans-61" x="291.988281"/>
      <use xlink:href="#DejaVuSans-74" x="353.267578"/>
      <use xlink:href="#DejaVuSans-69" x="392.476562"/>
      <use xlink:href="#DejaVuSans-6f" x="420.259766"/>
      <use xlink:href="#DejaVuSans-6e" x="481.441406"/>
      <use xlink:href="#DejaVuSans-61" x="544.820312"/>
      <use xlink:href="#DejaVuSans-6c" x="606.099609"/>
      <use xlink:href="#DejaVuSans-20" x="633.882812"/>
      <use xlink:href="#DejaVuSans-50" x="665.669922"/>
      <use xlink:href="#DejaVuSans-6f" x="722.347656"/>
      <use xlink:href="#DejaVuSans-73" x="783.529297"/>
      <use xlink:href="#DejaVuSans-69" x="835.628906"/>
      <use xlink:href="#DejaVuSans-74" x="863.412109"/>
      <use xlink:href="#DejaVuSans-69" x="902.621094"/>
      <use xlink:href="#DejaVuSans-6f" x="930.404297"/>
      <use xlink:href="#DejaVuSans-6e" x="991.585938"/>
      <use xlink:href="#DejaVuSans-20" x="1054.964844"/>
      <use xlink:href="#DejaVuSans-5b" x="1086.751953"/>
      <use xlink:href="#DejaVuSans-6d" x="1125.765625"/>
      <use xlink:href="#DejaVuSans-6d" x="1223.177734"/>
      <use xlink:href="#DejaVuSans-5d" x="1320.589844"/>
     </g>
    </g>
   </g>
   <g id="matplotlib.axis_4">
    <g id="ytick_6">
     <g id="line2d_43">
      <path d="M 56.928125 285.176193 
L 450 285.176193 
" clip-path="url(#p6839522840)" style="fill: none; stroke: #b0b0b0; stroke-width: 0.8; stroke-linecap: square"/>
     </g>
     <g id="line2d_44">
      <g>
       <use xlink:href="#m95c82d8dd5" x="56.928125" y="285.176193" style="stroke: #000000; stroke-width: 0.8"/>
      </g>
     </g>
     <g id="text_19">
      <!-- 100 -->
      <g transform="translate(30.840625 288.975412)scale(0.1 -0.1)">
       <use xlink:href="#DejaVuSans-31"/>
       <use xlink:href="#DejaVuSans-30" x="63.623047"/>
       <use xlink:href="#DejaVuSans-30" x="127.246094"/>
      </g>
     </g>
    </g>
    <g id="ytick_7">
     <g id="line2d_45">
      <path d="M 56.928125 261.650482 
L 450 261.650482 
" clip-path="url(#p6839522840)" style="fill: none; stroke: #b0b0b0; stroke-width: 0.8; stroke-linecap: square"/>
     </g>
     <g id="line2d_46">
      <g>
       <use xlink:href="#m95c82d8dd5" x="56.928125" y="261.650482" style="stroke: #000000; stroke-width: 0.8"/>
      </g>
     </g>
     <g id="text_20">
      <!-- 150 -->
      <g transform="translate(30.840625 265.449701)scale(0.1 -0.1)">
       <use xlink:href="#DejaVuSans-31"/>
       <use xlink:href="#DejaVuSans-35" x="63.623047"/>
       <use xlink:href="#DejaVuSans-30" x="127.246094"/>
      </g>
     </g>
    </g>
    <g id="ytick_8">
     <g id="line2d_47">
      <path d="M 56.928125 238.124771 
L 450 238.124771 
" clip-path="url(#p6839522840)" style="fill: none; stroke: #b0b0b0; stroke-width: 0.8; stroke-linecap: square"/>
     </g>
     <g id="line2d_48">
      <g>
       <use xlink:href="#m95c82d8dd5" x="56.928125" y="238.124771" style="stroke: #000000; stroke-width: 0.8"/>
      </g>
     </g>
     <g id="text_21">
      <!-- 200 -->
      <g transform="translate(30.840625 241.92399)scale(0.1 -0.1)">
       <use xlink:href="#DejaVuSans-32"/>
       <use xlink:href="#DejaVuSans-30" x="63.623047"/>
       <use xlink:href="#DejaVuSans-30" x="127.246094"/>
      </g>
     </g>
    </g>
    <g id="ytick_9">
     <g id="line2d_49">
      <path d="M 56.928125 214.59906 
L 450 214.59906 
" clip-path="url(#p6839522840)" style="fill: none; stroke: #b0b0b0; stroke-width: 0.8; stroke-linecap: square"/>
     </g>
     <g id="line2d_50">
      <g>
       <use xlink:href="#m95c82d8dd5" x="56.928125" y="214.59906" style="stroke: #000000; stroke-width: 0.8"/>
      </g>
     </g>
     <g id="text_22">
      <!-- 250 -->
      <g transform="translate(30.840625 218.398279)scale(0.1 -0.1)">
       <use xlink:href="#DejaVuSans-32"/>
       <use xlink:href="#DejaVuSans-35" x="63.623047"/>
       <use xlink:href="#DejaVuSans-30" x="127.246094"/>
      </g>
     </g>
    </g>
    <g id="text_23">
     <!-- wall distance [mm] -->
     <g transform="translate(24.760938 295.708594)rotate(-90)scale(0.1 -0.1)">
      <use xlink:href="#DejaVuSans-77"/>
      <use xlink:href="#DejaVuSans-61" x="81.787109"/>
      <use xlink:href="#DejaVuSans-6c" x="143.066406"/>
      <use xlink:href="#DejaVuSans-6c" x="170.849609"/>
      <use xlink:href="#DejaVuSans-20" x="198.632812"/>
      <use xlink:href="#DejaVuSans-64" x="230.419922"/>
      <use xlink:href="#DejaVuSans-69" x="293.896484"/>
      <use xlink:href="#DejaVuSans-73" x="321.679688"/>
      <use xlink:href="#DejaVuSans-74" x="373.779297"/>
      <use xlink:href="#DejaVuSans-61" x="412.988281"/>
      <use xlink:href="#DejaVuSans-6e" x="474.267578"/>
      <use xlink:href="#DejaVuSans-63" x="537.646484"/>
      <use xlink:href="#DejaVuSans-65" x="592.626953"/>
      <use xlink:href="#DejaVuSans-20" x="654.150391"/>
      <use xlink:href="#DejaVuSans-5b" x="685.9375"/>
      <use xlink:href="#DejaVuSans-6d" x="724.951172"/>
      <use xlink:href="#DejaVuSans-6d" x="822.363281"/>
      <use xlink:href="#DejaVuSans-5d" x="919.775391"/>
     </g>
    </g>
   </g>
   <g id="line2d_51">
    <path d="M 74.795028 196.249006 
L 264.448899 196.249006 
L 265.242984 227.302944 
L 274.771999 227.302944 
L 275.566084 231.067058 
L 285.095099 231.067058 
L 285.889184 235.301686 
L 295.418199 235.301686 
L 296.212283 241.418371 
L 304.947214 241.418371 
L 305.741298 244.71197 
L 314.476229 244.71197 
L 315.270314 249.417112 
L 324.005244 249.417112 
L 324.799329 251.769683 
L 333.534259 251.769683 
L 334.328344 256.94534 
L 343.063274 256.94534 
L 343.857359 259.768425 
L 351.798205 259.768425 
L 352.59229 264.003053 
L 360.533136 264.003053 
L 361.32722 267.767167 
L 369.268066 267.767167 
L 370.062151 271.060766 
L 378.002997 271.060766 
L 378.797081 273.883852 
L 386.737927 273.883852 
L 387.532012 277.647965 
L 395.472858 277.647965 
L 396.266942 280.471051 
L 404.075441 280.471051 
L 404.737178 285.176193 
L 411.222202 285.176193 
L 411.883939 287.999278 
L 417.442532 287.999278 
L 418.104269 290.822363 
L 422.604081 290.822363 
L 423.133471 292.70442 
L 426.574504 292.70442 
L 426.971547 294.115963 
L 429.88319 294.115963 
L 430.015538 295.527506 
L 431.339012 295.527506 
L 431.339012 295.99802 
L 432.000749 295.99802 
L 432.000749 296.468534 
L 432.000749 296.468534 
L 432.133097 296.468534 
L 432.133097 296.468534 
L 432.133097 299.291619 
L 432.133097 299.291619 
" clip-path="url(#p6839522840)" style="fill: none; stroke: #1f77b4; stroke-width: 1.5; stroke-linecap: square"/>
   </g>
   <g id="patch_9">
    <path d="M 56.928125 304.44375 
L 56.928125 191.096875 
" style="fill: none; stroke: #000000; stroke-width: 0.8; stroke-linejoin: miter; stroke-linecap: square"/>
   </g>
   <g id="patch_10">
    <path d="M 450 304.44375 
L 450 191.096875 
" style="fill: none; stroke: #000000; stroke-width: 0.8; stroke-linejoin: miter; stroke-linecap: square"/>
   </g>
   <g id="patch_11">
    <path d="M 56.928125 304.44375 
L 450 304.44375 
" style="fill: none; stroke: #000000; stroke-width: 0.8; stroke-linejoin: miter; stroke-linecap: square"/>
   </g>
   <g id="patch_12">
    <path d="M 56.928125 191.096875 
L 450 191.096875 
" style="fill: none; stroke: #000000; stroke-width: 0.8; stroke-linejoin: miter; stroke-linecap: square"/>
   </g>
   <g id="text_24">
    <!-- Front Wall Distance [mm] -->
    <g transform="translate(177.40375 185.096875)scale(0.12 -0.12)">
     <defs>
      <path id="DejaVuSans-57" d="M 213 4666 
L 850 4666 
L 1831 722 
L 2809 4666 
L 3519 4666 
L 4500 722 
L 5478 4666 
L 6119 4666 
L 4947 0 
L 4153 0 
L 3169 4050 
L 2175 0 
L 1381 0 
L 213 4666 
z
" transform="scale(0.015625)"/>
      <path id="DejaVuSans-44" d="M 1259 4147 
L 1259 519 
L 2022 519 
Q 2988 519 3436 956 
Q 3884 1394 3884 2338 
Q 3884 3275 3436 3711 
Q 2988 4147 2022 4147 
L 1259 4147 
z
M 628 4666 
L 1925 4666 
Q 3281 4666 3915 4102 
Q 4550 3538 4550 2338 
Q 4550 1131 3912 565 
Q 3275 0 1925 0 
L 628 0 
L 628 4666 
z
" transform="scale(0.015625)"/>
     </defs>
     <use xlink:href="#DejaVuSans-46"/>
     <use xlink:href="#DejaVuSans-72" x="50.269531"/>
     <use xlink:href="#DejaVuSans-6f" x="89.132812"/>
     <use xlink:href="#DejaVuSans-6e" x="150.314453"/>
     <use xlink:href="#DejaVuSans-74" x="213.693359"/>
     <use xlink:href="#DejaVuSans-20" x="252.902344"/>
     <use xlink:href="#DejaVuSans-57" x="284.689453"/>
     <use xlink:href="#DejaVuSans-61" x="377.191406"/>
     <use xlink:href="#DejaVuSans-6c" x="438.470703"/>
     <use xlink:href="#DejaVuSans-6c" x="466.253906"/>
     <use xlink:href="#DejaVuSans-20" x="494.037109"/>
     <use xlink:href="#DejaVuSans-44" x="525.824219"/>
     <use xlink:href="#DejaVuSans-69" x="602.826172"/>
     <use xlink:href="#DejaVuSans-73" x="630.609375"/>
     <use xlink:href="#DejaVuSans-74" x="682.708984"/>
     <use xlink:href="#DejaVuSans-61" x="721.917969"/>
     <use xlink:href="#DejaVuSans-6e" x="783.197266"/>
     <use xlink:href="#DejaVuSans-63" x="846.576172"/>
     <use xlink:href="#DejaVuSans-65" x="901.556641"/>
     <use xlink:href="#DejaVuSans-20" x="963.080078"/>
     <use xlink:href="#DejaVuSans-5b" x="994.867188"/>
     <use xlink:href="#DejaVuSans-6d" x="1033.880859"/>
     <use xlink:href="#DejaVuSans-6d" x="1131.292969"/>
     <use xlink:href="#DejaVuSans-5d" x="1228.705078"/>
    </g>
   </g>
   <g id="legend_2">
    <g id="patch_13">
     <path d="M 394.721875 213.775 
L 443 213.775 
Q 445 213.775 445 211.775 
L 445 198.096875 
Q 445 196.096875 443 196.096875 
L 394.721875 196.096875 
Q 392.721875 196.096875 392.721875 198.096875 
L 392.721875 211.775 
Q 392.721875 213.775 394.721875 213.775 
z
" style="fill: #ffffff; opacity: 0.8; stroke: #cccccc; stroke-linejoin: miter"/>
    </g>
    <g id="line2d_52">
     <path d="M 396.721875 204.195312 
L 406.721875 204.195312 
L 416.721875 204.195312 
" style="fill: none; stroke: #1f77b4; stroke-width: 1.5; stroke-linecap: square"/>
    </g>
    <g id="text_25">
     <!-- ToF -->
     <g transform="translate(424.721875 207.695312)scale(0.1 -0.1)">
      <use xlink:href="#DejaVuSans-54"/>
      <use xlink:href="#DejaVuSans-6f" x="44.083984"/>
      <use xlink:href="#DejaVuSans-46" x="105.265625"/>
     </g>
    </g>
   </g>
  </g>
  <g id="text_26">
   <!-- Reflector Raw Value and ToF Distance -->
   <g transform="translate(117.629063 16.030125)scale(0.12 -0.12)">
    <use xlink:href="#DejaVuSans-52"/>
    <use xlink:href="#DejaVuSans-65" x="64.982422"/>
    <use xlink:href="#DejaVuSans-66" x="126.505859"/>
    <use xlink:href="#DejaVuSans-6c" x="161.710938"/>
    <use xlink:href="#DejaVuSans-65" x="189.494141"/>
    <use xlink:href="#DejaVuSans-63" x="251.017578"/>
    <use xlink:href="#DejaVuSans-74" x="305.998047"/>
    <use xlink:href="#DejaVuSans-6f" x="345.207031"/>
    <use xlink:href="#DejaVuSans-72" x="406.388672"/>
    <use xlink:href="#DejaVuSans-20" x="447.501953"/>
    <use xlink:href="#DejaVuSans-52" x="479.289062"/>
    <use xlink:href="#DejaVuSans-61" x="546.521484"/>
    <use xlink:href="#DejaVuSans-77" x="607.800781"/>
    <use xlink:href="#DejaVuSans-20" x="689.587891"/>
    <use xlink:href="#DejaVuSans-56" x="721.375"/>
    <use xlink:href="#DejaVuSans-61" x="782.033203"/>
    <use xlink:href="#DejaVuSans-6c" x="843.3125"/>
    <use xlink:href="#DejaVuSans-75" x="871.095703"/>
    <use xlink:href="#DejaVuSans-65" x="934.474609"/>
    <use xlink:href="#DejaVuSans-20" x="995.998047"/>
    <use xlink:href="#DejaVuSans-61" x="1027.785156"/>
    <use xlink:href="#DejaVuSans-6e" x="1089.064453"/>
    <use xlink:href="#DejaVuSans-64" x="1152.443359"/>
    <use xlink:href="#DejaVuSans-20" x="1215.919922"/>
    <use xlink:href="#DejaVuSans-54" x="1247.707031"/>
    <use xlink:href="#DejaVuSans-6f" x="1291.791016"/>
    <use xlink:href="#DejaVuSans-46" x="1352.972656"/>
    <use xlink:href="#DejaVuSans-20" x="1410.492188"/>
    <use xlink:href="#DejaVuSans-44" x="1442.279297"/>
    <use xlink:href="#DejaVuSans-69" x="1519.28125"/>
    <use xlink:href="#DejaVuSans-73" x="1547.064453"/>
    <use xlink:href="#DejaVuSans-74" x="1599.164062"/>
    <use xlink:href="#DejaVuSans-61" x="1638.373047"/>
    <use xlink:href="#DejaVuSans-6e" x="1699.652344"/>
    <use xlink:href="#DejaVuSans-63" x="1763.03125"/>
    <use xlink:href="#DejaVuSans-65" x="1818.011719"/>
   </g>
  </g>
 </g>
 <defs>
  <clipPath id="p881df15f48">
   <rect x="56.928125" y="48.331875" width="393.071875" height="113.346875"/>
  </clipPath>
  <clipPath id="p6839522840">
   <rect x="56.928125" y="191.096875" width="393.071875" height="113.346875"/>
  </clipPath>
 </defs>
</svg>
