<?xml version="1.0" encoding="utf-8" standalone="no"?>
<!DOCTYPE svg PUBLIC "-//W3C//DTD SVG 1.1//EN"
  "http://www.w3.org/Graphics/SVG/1.1/DTD/svg11.dtd">
<svg xmlns:xlink="http://www.w3.org/1999/xlink" width="460.8pt" height="345.6pt" viewBox="0 0 460.8 345.6" xmlns="http://www.w3.org/2000/svg" version="1.1">
 <metadata>
  <rdf:RDF xmlns:dc="http://purl.org/dc/elements/1.1/" xmlns:cc="http://creativecommons.org/ns#" xmlns:rdf="http://www.w3.org/1999/02/22-rdf-syntax-ns#">
   <cc:Work>
    <dc:type rdf:resource="http://purl.org/dc/dcmitype/StillImage"/>
    <dc:date>2022-01-15T23:47:10.811150</dc:date>
    <dc:format>image/svg+xml</dc:format>
    <dc:creator>
     <cc:Agent>
      <dc:title>Matplotlib v3.5.1, https://matplotlib.org/</dc:title>
     </cc:Agent>
    </dc:creator>
   </cc:Work>
  </rdf:RDF>
 </metadata>
 <defs>
  <style type="text/css">*{stroke-linejoin: round; stroke-linecap: butt}</style>
 </defs>
 <g id="figure_1">
  <g id="patch_1">
   <path d="M 0 345.6 
L 460.8 345.6 
L 460.8 0 
L 0 0 
z
" style="fill: #ffffff"/>
  </g>
  <g id="axes_1">
   <g id="patch_2">
    <path d="M 58.945313 304.44375 
L 450 304.44375 
L 450 25.918125 
L 58.945313 25.918125 
z
" style="fill: #ffffff"/>
   </g>
   <g id="matplotlib.axis_1">
    <g id="xtick_1">
     <g id="line2d_1">
      <path d="M 76.720526 304.44375 
L 76.720526 25.918125 
" clip-path="url(#p0cb98733a0)" style="fill: none; stroke: #b0b0b0; stroke-width: 0.8; stroke-linecap: square"/>
     </g>
     <g id="line2d_2">
      <defs>
       <path id="m495f68d03a" d="M 0 0 
L 0 3.5 
" style="stroke: #000000; stroke-width: 0.8"/>
      </defs>
      <g>
       <use xlink:href="#m495f68d03a" x="76.720526" y="304.44375" style="stroke: #000000; stroke-width: 0.8"/>
      </g>
     </g>
     <g id="text_1">
      <!-- 0 -->
      <g transform="translate(73.539276 319.042187)scale(0.1 -0.1)">
       <defs>
        <path id="DejaVuSans-30" d="M 2034 4250 
Q 1547 4250 1301 3770 
Q 1056 3291 1056 2328 
Q 1056 1369 1301 889 
Q 1547 409 2034 409 
Q 2525 409 2770 889 
Q 3016 1369 3016 2328 
Q 3016 3291 2770 3770 
Q 2525 4250 2034 4250 
z
M 2034 4750 
Q 2819 4750 3233 4129 
Q 3647 3509 3647 2328 
Q 3647 1150 3233 529 
Q 2819 -91 2034 -91 
Q 1250 -91 836 529 
Q 422 1150 422 2328 
Q 422 3509 836 4129 
Q 1250 4750 2034 4750 
z
" transform="scale(0.015625)"/>
       </defs>
       <use xlink:href="#DejaVuSans-30"/>
      </g>
     </g>
    </g>
    <g id="xtick_2">
     <g id="line2d_3">
      <path d="M 126.096117 304.44375 
L 126.096117 25.918125 
" clip-path="url(#p0cb98733a0)" style="fill: none; stroke: #b0b0b0; stroke-width: 0.8; stroke-linecap: square"/>
     </g>
     <g id="line2d_4">
      <g>
       <use xlink:href="#m495f68d03a" x="126.096117" y="304.44375" style="stroke: #000000; stroke-width: 0.8"/>
      </g>
     </g>
     <g id="text_2">
      <!-- 50 -->
      <g transform="translate(119.733617 319.042187)scale(0.1 -0.1)">
       <defs>
        <path id="DejaVuSans-35" d="M 691 4666 
L 3169 4666 
L 3169 4134 
L 1269 4134 
L 1269 2991 
Q 1406 3038 1543 3061 
Q 1681 3084 1819 3084 
Q 2600 3084 3056 2656 
Q 3513 2228 3513 1497 
Q 3513 744 3044 326 
Q 2575 -91 1722 -91 
Q 1428 -91 1123 -41 
Q 819 9 494 109 
L 494 744 
Q 775 591 1075 516 
Q 1375 441 1709 441 
Q 2250 441 2565 725 
Q 2881 1009 2881 1497 
Q 2881 1984 2565 2268 
Q 2250 2553 1709 2553 
Q 1456 2553 1204 2497 
Q 953 2441 691 2322 
L 691 4666 
z
" transform="scale(0.015625)"/>
       </defs>
       <use xlink:href="#DejaVuSans-35"/>
       <use xlink:href="#DejaVuSans-30" x="63.623047"/>
      </g>
     </g>
    </g>
    <g id="xtick_3">
     <g id="line2d_5">
      <path d="M 175.471709 304.44375 
L 175.471709 25.918125 
" clip-path="url(#p0cb98733a0)" style="fill: none; stroke: #b0b0b0; stroke-width: 0.8; stroke-linecap: square"/>
     </g>
     <g id="line2d_6">
      <g>
       <use xlink:href="#m495f68d03a" x="175.471709" y="304.44375" style="stroke: #000000; stroke-width: 0.8"/>
      </g>
     </g>
     <g id="text_3">
      <!-- 100 -->
      <g transform="translate(165.927959 319.042187)scale(0.1 -0.1)">
       <defs>
        <path id="DejaVuSans-31" d="M 794 531 
L 1825 531 
L 1825 4091 
L 703 3866 
L 703 4441 
L 1819 4666 
L 2450 4666 
L 2450 531 
L 3481 531 
L 3481 0 
L 794 0 
L 794 531 
z
" transform="scale(0.015625)"/>
       </defs>
       <use xlink:href="#DejaVuSans-31"/>
       <use xlink:href="#DejaVuSans-30" x="63.623047"/>
       <use xlink:href="#DejaVuSans-30" x="127.246094"/>
      </g>
     </g>
    </g>
    <g id="xtick_4">
     <g id="line2d_7">
      <path d="M 224.847301 304.44375 
L 224.847301 25.918125 
" clip-path="url(#p0cb98733a0)" style="fill: none; stroke: #b0b0b0; stroke-width: 0.8; stroke-linecap: square"/>
     </g>
     <g id="line2d_8">
      <g>
       <use xlink:href="#m495f68d03a" x="224.847301" y="304.44375" style="stroke: #000000; stroke-width: 0.8"/>
      </g>
     </g>
     <g id="text_4">
      <!-- 150 -->
      <g transform="translate(215.303551 319.042187)scale(0.1 -0.1)">
       <use xlink:href="#DejaVuSans-31"/>
       <use xlink:href="#DejaVuSans-35" x="63.623047"/>
       <use xlink:href="#DejaVuSans-30" x="127.246094"/>
      </g>
     </g>
    </g>
    <g id="xtick_5">
     <g id="line2d_9">
      <path d="M 274.222893 304.44375 
L 274.222893 25.918125 
" clip-path="url(#p0cb98733a0)" style="fill: none; stroke: #b0b0b0; stroke-width: 0.8; stroke-linecap: square"/>
     </g>
     <g id="line2d_10">
      <g>
       <use xlink:href="#m495f68d03a" x="274.222893" y="304.44375" style="stroke: #000000; stroke-width: 0.8"/>
      </g>
     </g>
     <g id="text_5">
      <!-- 200 -->
      <g transform="translate(264.679143 319.042187)scale(0.1 -0.1)">
       <defs>
        <path id="DejaVuSans-32" d="M 1228 531 
L 3431 531 
L 3431 0 
L 469 0 
L 469 531 
Q 828 903 1448 1529 
Q 2069 2156 2228 2338 
Q 2531 2678 2651 2914 
Q 2772 3150 2772 3378 
Q 2772 3750 2511 3984 
Q 2250 4219 1831 4219 
Q 1534 4219 1204 4116 
Q 875 4013 500 3803 
L 500 4441 
Q 881 4594 1212 4672 
Q 1544 4750 1819 4750 
Q 2544 4750 2975 4387 
Q 3406 4025 3406 3419 
Q 3406 3131 3298 2873 
Q 3191 2616 2906 2266 
Q 2828 2175 2409 1742 
Q 1991 1309 1228 531 
z
" transform="scale(0.015625)"/>
       </defs>
       <use xlink:href="#DejaVuSans-32"/>
       <use xlink:href="#DejaVuSans-30" x="63.623047"/>
       <use xlink:href="#DejaVuSans-30" x="127.246094"/>
      </g>
     </g>
    </g>
    <g id="xtick_6">
     <g id="line2d_11">
      <path d="M 323.598485 304.44375 
L 323.598485 25.918125 
" clip-path="url(#p0cb98733a0)" style="fill: none; stroke: #b0b0b0; stroke-width: 0.8; stroke-linecap: square"/>
     </g>
     <g id="line2d_12">
      <g>
       <use xlink:href="#m495f68d03a" x="323.598485" y="304.44375" style="stroke: #000000; stroke-width: 0.8"/>
      </g>
     </g>
     <g id="text_6">
      <!-- 250 -->
      <g transform="translate(314.054735 319.042187)scale(0.1 -0.1)">
       <use xlink:href="#DejaVuSans-32"/>
       <use xlink:href="#DejaVuSans-35" x="63.623047"/>
       <use xlink:href="#DejaVuSans-30" x="127.246094"/>
      </g>
     </g>
    </g>
    <g id="xtick_7">
     <g id="line2d_13">
      <path d="M 372.974077 304.44375 
L 372.974077 25.918125 
" clip-path="url(#p0cb98733a0)" style="fill: none; stroke: #b0b0b0; stroke-width: 0.8; stroke-linecap: square"/>
     </g>
     <g id="line2d_14">
      <g>
       <use xlink:href="#m495f68d03a" x="372.974077" y="304.44375" style="stroke: #000000; stroke-width: 0.8"/>
      </g>
     </g>
     <g id="text_7">
      <!-- 300 -->
      <g transform="translate(363.430327 319.042187)scale(0.1 -0.1)">
       <defs>
        <path id="DejaVuSans-33" d="M 2597 2516 
Q 3050 2419 3304 2112 
Q 3559 1806 3559 1356 
Q 3559 666 3084 287 
Q 2609 -91 1734 -91 
Q 1441 -91 1130 -33 
Q 819 25 488 141 
L 488 750 
Q 750 597 1062 519 
Q 1375 441 1716 441 
Q 2309 441 2620 675 
Q 2931 909 2931 1356 
Q 2931 1769 2642 2001 
Q 2353 2234 1838 2234 
L 1294 2234 
L 1294 2753 
L 1863 2753 
Q 2328 2753 2575 2939 
Q 2822 3125 2822 3475 
Q 2822 3834 2567 4026 
Q 2313 4219 1838 4219 
Q 1578 4219 1281 4162 
Q 984 4106 628 3988 
L 628 4550 
Q 988 4650 1302 4700 
Q 1616 4750 1894 4750 
Q 2613 4750 3031 4423 
Q 3450 4097 3450 3541 
Q 3450 3153 3228 2886 
Q 3006 2619 2597 2516 
z
" transform="scale(0.015625)"/>
       </defs>
       <use xlink:href="#DejaVuSans-33"/>
       <use xlink:href="#DejaVuSans-30" x="63.623047"/>
       <use xlink:href="#DejaVuSans-30" x="127.246094"/>
      </g>
     </g>
    </g>
    <g id="xtick_8">
     <g id="line2d_15">
      <path d="M 422.349669 304.44375 
L 422.349669 25.918125 
" clip-path="url(#p0cb98733a0)" style="fill: none; stroke: #b0b0b0; stroke-width: 0.8; stroke-linecap: square"/>
     </g>
     <g id="line2d_16">
      <g>
       <use xlink:href="#m495f68d03a" x="422.349669" y="304.44375" style="stroke: #000000; stroke-width: 0.8"/>
      </g>
     </g>
     <g id="text_8">
      <!-- 350 -->
      <g transform="translate(412.805919 319.042187)scale(0.1 -0.1)">
       <use xlink:href="#DejaVuSans-33"/>
       <use xlink:href="#DejaVuSans-35" x="63.623047"/>
       <use xlink:href="#DejaVuSans-30" x="127.246094"/>
      </g>
     </g>
    </g>
    <g id="text_9">
     <!-- Translational Position [mm] -->
     <g transform="translate(186.495312 332.720312)scale(0.1 -0.1)">
      <defs>
       <path id="DejaVuSans-54" d="M -19 4666 
L 3928 4666 
L 3928 4134 
L 2272 4134 
L 2272 0 
L 1638 0 
L 1638 4134 
L -19 4134 
L -19 4666 
z
" transform="scale(0.015625)"/>
       <path id="DejaVuSans-72" d="M 2631 2963 
Q 2534 3019 2420 3045 
Q 2306 3072 2169 3072 
Q 1681 3072 1420 2755 
Q 1159 2438 1159 1844 
L 1159 0 
L 581 0 
L 581 3500 
L 1159 3500 
L 1159 2956 
Q 1341 3275 1631 3429 
Q 1922 3584 2338 3584 
Q 2397 3584 2469 3576 
Q 2541 3569 2628 3553 
L 2631 2963 
z
" transform="scale(0.015625)"/>
       <path id="DejaVuSans-61" d="M 2194 1759 
Q 1497 1759 1228 1600 
Q 959 1441 959 1056 
Q 959 750 1161 570 
Q 1363 391 1709 391 
Q 2188 391 2477 730 
Q 2766 1069 2766 1631 
L 2766 1759 
L 2194 1759 
z
M 3341 1997 
L 3341 0 
L 2766 0 
L 2766 531 
Q 2569 213 2275 61 
Q 1981 -91 1556 -91 
Q 1019 -91 701 211 
Q 384 513 384 1019 
Q 384 1609 779 1909 
Q 1175 2209 1959 2209 
L 2766 2209 
L 2766 2266 
Q 2766 2663 2505 2880 
Q 2244 3097 1772 3097 
Q 1472 3097 1187 3025 
Q 903 2953 641 2809 
L 641 3341 
Q 956 3463 1253 3523 
Q 1550 3584 1831 3584 
Q 2591 3584 2966 3190 
Q 3341 2797 3341 1997 
z
" transform="scale(0.015625)"/>
       <path id="DejaVuSans-6e" d="M 3513 2113 
L 3513 0 
L 2938 0 
L 2938 2094 
Q 2938 2591 2744 2837 
Q 2550 3084 2163 3084 
Q 1697 3084 1428 2787 
Q 1159 2491 1159 1978 
L 1159 0 
L 581 0 
L 581 3500 
L 1159 3500 
L 1159 2956 
Q 1366 3272 1645 3428 
Q 1925 3584 2291 3584 
Q 2894 3584 3203 3211 
Q 3513 2838 3513 2113 
z
" transform="scale(0.015625)"/>
       <path id="DejaVuSans-73" d="M 2834 3397 
L 2834 2853 
Q 2591 2978 2328 3040 
Q 2066 3103 1784 3103 
Q 1356 3103 1142 2972 
Q 928 2841 928 2578 
Q 928 2378 1081 2264 
Q 1234 2150 1697 2047 
L 1894 2003 
Q 2506 1872 2764 1633 
Q 3022 1394 3022 966 
Q 3022 478 2636 193 
Q 2250 -91 1575 -91 
Q 1294 -91 989 -36 
Q 684 19 347 128 
L 347 722 
Q 666 556 975 473 
Q 1284 391 1588 391 
Q 1994 391 2212 530 
Q 2431 669 2431 922 
Q 2431 1156 2273 1281 
Q 2116 1406 1581 1522 
L 1381 1569 
Q 847 1681 609 1914 
Q 372 2147 372 2553 
Q 372 3047 722 3315 
Q 1072 3584 1716 3584 
Q 2034 3584 2315 3537 
Q 2597 3491 2834 3397 
z
" transform="scale(0.015625)"/>
       <path id="DejaVuSans-6c" d="M 603 4863 
L 1178 4863 
L 1178 0 
L 603 0 
L 603 4863 
z
" transform="scale(0.015625)"/>
       <path id="DejaVuSans-74" d="M 1172 4494 
L 1172 3500 
L 2356 3500 
L 2356 3053 
L 1172 3053 
L 1172 1153 
Q 1172 725 1289 603 
Q 1406 481 1766 481 
L 2356 481 
L 2356 0 
L 1766 0 
Q 1100 0 847 248 
Q 594 497 594 1153 
L 594 3053 
L 172 3053 
L 172 3500 
L 594 3500 
L 594 4494 
L 1172 4494 
z
" transform="scale(0.015625)"/>
       <path id="DejaVuSans-69" d="M 603 3500 
L 1178 3500 
L 1178 0 
L 603 0 
L 603 3500 
z
M 603 4863 
L 1178 4863 
L 1178 4134 
L 603 4134 
L 603 4863 
z
" transform="scale(0.015625)"/>
       <path id="DejaVuSans-6f" d="M 1959 3097 
Q 1497 3097 1228 2736 
Q 959 2375 959 1747 
Q 959 1119 1226 758 
Q 1494 397 1959 397 
Q 2419 397 2687 759 
Q 2956 1122 2956 1747 
Q 2956 2369 2687 2733 
Q 2419 3097 1959 3097 
z
M 1959 3584 
Q 2709 3584 3137 3096 
Q 3566 2609 3566 1747 
Q 3566 888 3137 398 
Q 2709 -91 1959 -91 
Q 1206 -91 779 398 
Q 353 888 353 1747 
Q 353 2609 779 3096 
Q 1206 3584 1959 3584 
z
" transform="scale(0.015625)"/>
       <path id="DejaVuSans-20" transform="scale(0.015625)"/>
       <path id="DejaVuSans-50" d="M 1259 4147 
L 1259 2394 
L 2053 2394 
Q 2494 2394 2734 2622 
Q 2975 2850 2975 3272 
Q 2975 3691 2734 3919 
Q 2494 4147 2053 4147 
L 1259 4147 
z
M 628 4666 
L 2053 4666 
Q 2838 4666 3239 4311 
Q 3641 3956 3641 3272 
Q 3641 2581 3239 2228 
Q 2838 1875 2053 1875 
L 1259 1875 
L 1259 0 
L 628 0 
L 628 4666 
z
" transform="scale(0.015625)"/>
       <path id="DejaVuSans-5b" d="M 550 4863 
L 1875 4863 
L 1875 4416 
L 1125 4416 
L 1125 -397 
L 1875 -397 
L 1875 -844 
L 550 -844 
L 550 4863 
z
" transform="scale(0.015625)"/>
       <path id="DejaVuSans-6d" d="M 3328 2828 
Q 3544 3216 3844 3400 
Q 4144 3584 4550 3584 
Q 5097 3584 5394 3201 
Q 5691 2819 5691 2113 
L 5691 0 
L 5113 0 
L 5113 2094 
Q 5113 2597 4934 2840 
Q 4756 3084 4391 3084 
Q 3944 3084 3684 2787 
Q 3425 2491 3425 1978 
L 3425 0 
L 2847 0 
L 2847 2094 
Q 2847 2600 2669 2842 
Q 2491 3084 2119 3084 
Q 1678 3084 1418 2786 
Q 1159 2488 1159 1978 
L 1159 0 
L 581 0 
L 581 3500 
L 1159 3500 
L 1159 2956 
Q 1356 3278 1631 3431 
Q 1906 3584 2284 3584 
Q 2666 3584 2933 3390 
Q 3200 3197 3328 2828 
z
" transform="scale(0.015625)"/>
       <path id="DejaVuSans-5d" d="M 1947 4863 
L 1947 -844 
L 622 -844 
L 622 -397 
L 1369 -397 
L 1369 4416 
L 622 4416 
L 622 4863 
L 1947 4863 
z
" transform="scale(0.015625)"/>
      </defs>
      <use xlink:href="#DejaVuSans-54"/>
      <use xlink:href="#DejaVuSans-72" x="46.333984"/>
      <use xlink:href="#DejaVuSans-61" x="87.447266"/>
      <use xlink:href="#DejaVuSans-6e" x="148.726562"/>
      <use xlink:href="#DejaVuSans-73" x="212.105469"/>
      <use xlink:href="#DejaVuSans-6c" x="264.205078"/>
      <use xlink:href="#DejaVuSans-61" x="291.988281"/>
      <use xlink:href="#DejaVuSans-74" x="353.267578"/>
      <use xlink:href="#DejaVuSans-69" x="392.476562"/>
      <use xlink:href="#DejaVuSans-6f" x="420.259766"/>
      <use xlink:href="#DejaVuSans-6e" x="481.441406"/>
      <use xlink:href="#DejaVuSans-61" x="544.820312"/>
      <use xlink:href="#DejaVuSans-6c" x="606.099609"/>
      <use xlink:href="#DejaVuSans-20" x="633.882812"/>
      <use xlink:href="#DejaVuSans-50" x="665.669922"/>
      <use xlink:href="#DejaVuSans-6f" x="722.347656"/>
      <use xlink:href="#DejaVuSans-73" x="783.529297"/>
      <use xlink:href="#DejaVuSans-69" x="835.628906"/>
      <use xlink:href="#DejaVuSans-74" x="863.412109"/>
      <use xlink:href="#DejaVuSans-69" x="902.621094"/>
      <use xlink:href="#DejaVuSans-6f" x="930.404297"/>
      <use xlink:href="#DejaVuSans-6e" x="991.585938"/>
      <use xlink:href="#DejaVuSans-20" x="1054.964844"/>
      <use xlink:href="#DejaVuSans-5b" x="1086.751953"/>
      <use xlink:href="#DejaVuSans-6d" x="1125.765625"/>
      <use xlink:href="#DejaVuSans-6d" x="1223.177734"/>
      <use xlink:href="#DejaVuSans-5d" x="1320.589844"/>
     </g>
    </g>
   </g>
   <g id="matplotlib.axis_2">
    <g id="ytick_1">
     <g id="line2d_17">
      <path d="M 58.945313 282.075818 
L 450 282.075818 
" clip-path="url(#p0cb98733a0)" style="fill: none; stroke: #b0b0b0; stroke-width: 0.8; stroke-linecap: square"/>
     </g>
     <g id="line2d_18">
      <defs>
       <path id="mc46603729d" d="M 0 0 
L -3.5 0 
" style="stroke: #000000; stroke-width: 0.8"/>
      </defs>
      <g>
       <use xlink:href="#mc46603729d" x="58.945313" y="282.075818" style="stroke: #000000; stroke-width: 0.8"/>
      </g>
     </g>
     <g id="text_10">
      <!-- −100 -->
      <g transform="translate(24.478125 285.875037)scale(0.1 -0.1)">
       <defs>
        <path id="DejaVuSans-2212" d="M 678 2272 
L 4684 2272 
L 4684 1741 
L 678 1741 
L 678 2272 
z
" transform="scale(0.015625)"/>
       </defs>
       <use xlink:href="#DejaVuSans-2212"/>
       <use xlink:href="#DejaVuSans-31" x="83.789062"/>
       <use xlink:href="#DejaVuSans-30" x="147.412109"/>
       <use xlink:href="#DejaVuSans-30" x="211.035156"/>
      </g>
     </g>
    </g>
    <g id="ytick_2">
     <g id="line2d_19">
      <path d="M 58.945313 240.766557 
L 450 240.766557 
" clip-path="url(#p0cb98733a0)" style="fill: none; stroke: #b0b0b0; stroke-width: 0.8; stroke-linecap: square"/>
     </g>
     <g id="line2d_20">
      <g>
       <use xlink:href="#mc46603729d" x="58.945313" y="240.766557" style="stroke: #000000; stroke-width: 0.8"/>
      </g>
     </g>
     <g id="text_11">
      <!-- −80 -->
      <g transform="translate(30.840625 244.565776)scale(0.1 -0.1)">
       <defs>
        <path id="DejaVuSans-38" d="M 2034 2216 
Q 1584 2216 1326 1975 
Q 1069 1734 1069 1313 
Q 1069 891 1326 650 
Q 1584 409 2034 409 
Q 2484 409 2743 651 
Q 3003 894 3003 1313 
Q 3003 1734 2745 1975 
Q 2488 2216 2034 2216 
z
M 1403 2484 
Q 997 2584 770 2862 
Q 544 3141 544 3541 
Q 544 4100 942 4425 
Q 1341 4750 2034 4750 
Q 2731 4750 3128 4425 
Q 3525 4100 3525 3541 
Q 3525 3141 3298 2862 
Q 3072 2584 2669 2484 
Q 3125 2378 3379 2068 
Q 3634 1759 3634 1313 
Q 3634 634 3220 271 
Q 2806 -91 2034 -91 
Q 1263 -91 848 271 
Q 434 634 434 1313 
Q 434 1759 690 2068 
Q 947 2378 1403 2484 
z
M 1172 3481 
Q 1172 3119 1398 2916 
Q 1625 2713 2034 2713 
Q 2441 2713 2670 2916 
Q 2900 3119 2900 3481 
Q 2900 3844 2670 4047 
Q 2441 4250 2034 4250 
Q 1625 4250 1398 4047 
Q 1172 3844 1172 3481 
z
" transform="scale(0.015625)"/>
       </defs>
       <use xlink:href="#DejaVuSans-2212"/>
       <use xlink:href="#DejaVuSans-38" x="83.789062"/>
       <use xlink:href="#DejaVuSans-30" x="147.412109"/>
      </g>
     </g>
    </g>
    <g id="ytick_3">
     <g id="line2d_21">
      <path d="M 58.945313 199.457297 
L 450 199.457297 
" clip-path="url(#p0cb98733a0)" style="fill: none; stroke: #b0b0b0; stroke-width: 0.8; stroke-linecap: square"/>
     </g>
     <g id="line2d_22">
      <g>
       <use xlink:href="#mc46603729d" x="58.945313" y="199.457297" style="stroke: #000000; stroke-width: 0.8"/>
      </g>
     </g>
     <g id="text_12">
      <!-- −60 -->
      <g transform="translate(30.840625 203.256515)scale(0.1 -0.1)">
       <defs>
        <path id="DejaVuSans-36" d="M 2113 2584 
Q 1688 2584 1439 2293 
Q 1191 2003 1191 1497 
Q 1191 994 1439 701 
Q 1688 409 2113 409 
Q 2538 409 2786 701 
Q 3034 994 3034 1497 
Q 3034 2003 2786 2293 
Q 2538 2584 2113 2584 
z
M 3366 4563 
L 3366 3988 
Q 3128 4100 2886 4159 
Q 2644 4219 2406 4219 
Q 1781 4219 1451 3797 
Q 1122 3375 1075 2522 
Q 1259 2794 1537 2939 
Q 1816 3084 2150 3084 
Q 2853 3084 3261 2657 
Q 3669 2231 3669 1497 
Q 3669 778 3244 343 
Q 2819 -91 2113 -91 
Q 1303 -91 875 529 
Q 447 1150 447 2328 
Q 447 3434 972 4092 
Q 1497 4750 2381 4750 
Q 2619 4750 2861 4703 
Q 3103 4656 3366 4563 
z
" transform="scale(0.015625)"/>
       </defs>
       <use xlink:href="#DejaVuSans-2212"/>
       <use xlink:href="#DejaVuSans-36" x="83.789062"/>
       <use xlink:href="#DejaVuSans-30" x="147.412109"/>
      </g>
     </g>
    </g>
    <g id="ytick_4">
     <g id="line2d_23">
      <path d="M 58.945313 158.148036 
L 450 158.148036 
" clip-path="url(#p0cb98733a0)" style="fill: none; stroke: #b0b0b0; stroke-width: 0.8; stroke-linecap: square"/>
     </g>
     <g id="line2d_24">
      <g>
       <use xlink:href="#mc46603729d" x="58.945313" y="158.148036" style="stroke: #000000; stroke-width: 0.8"/>
      </g>
     </g>
     <g id="text_13">
      <!-- −40 -->
      <g transform="translate(30.840625 161.947255)scale(0.1 -0.1)">
       <defs>
        <path id="DejaVuSans-34" d="M 2419 4116 
L 825 1625 
L 2419 1625 
L 2419 4116 
z
M 2253 4666 
L 3047 4666 
L 3047 1625 
L 3713 1625 
L 3713 1100 
L 3047 1100 
L 3047 0 
L 2419 0 
L 2419 1100 
L 313 1100 
L 313 1709 
L 2253 4666 
z
" transform="scale(0.015625)"/>
       </defs>
       <use xlink:href="#DejaVuSans-2212"/>
       <use xlink:href="#DejaVuSans-34" x="83.789062"/>
       <use xlink:href="#DejaVuSans-30" x="147.412109"/>
      </g>
     </g>
    </g>
    <g id="ytick_5">
     <g id="line2d_25">
      <path d="M 58.945313 116.838775 
L 450 116.838775 
" clip-path="url(#p0cb98733a0)" style="fill: none; stroke: #b0b0b0; stroke-width: 0.8; stroke-linecap: square"/>
     </g>
     <g id="line2d_26">
      <g>
       <use xlink:href="#mc46603729d" x="58.945313" y="116.838775" style="stroke: #000000; stroke-width: 0.8"/>
      </g>
     </g>
     <g id="text_14">
      <!-- −20 -->
      <g transform="translate(30.840625 120.637994)scale(0.1 -0.1)">
       <use xlink:href="#DejaVuSans-2212"/>
       <use xlink:href="#DejaVuSans-32" x="83.789062"/>
       <use xlink:href="#DejaVuSans-30" x="147.412109"/>
      </g>
     </g>
    </g>
    <g id="ytick_6">
     <g id="line2d_27">
      <path d="M 58.945313 75.529514 
L 450 75.529514 
" clip-path="url(#p0cb98733a0)" style="fill: none; stroke: #b0b0b0; stroke-width: 0.8; stroke-linecap: square"/>
     </g>
     <g id="line2d_28">
      <g>
       <use xlink:href="#mc46603729d" x="58.945313" y="75.529514" style="stroke: #000000; stroke-width: 0.8"/>
      </g>
     </g>
     <g id="text_15">
      <!-- 0 -->
      <g transform="translate(45.582813 79.328733)scale(0.1 -0.1)">
       <use xlink:href="#DejaVuSans-30"/>
      </g>
     </g>
    </g>
    <g id="ytick_7">
     <g id="line2d_29">
      <path d="M 58.945313 34.220254 
L 450 34.220254 
" clip-path="url(#p0cb98733a0)" style="fill: none; stroke: #b0b0b0; stroke-width: 0.8; stroke-linecap: square"/>
     </g>
     <g id="line2d_30">
      <g>
       <use xlink:href="#mc46603729d" x="58.945313" y="34.220254" style="stroke: #000000; stroke-width: 0.8"/>
      </g>
     </g>
     <g id="text_16">
      <!-- 20 -->
      <g transform="translate(39.220313 38.019472)scale(0.1 -0.1)">
       <use xlink:href="#DejaVuSans-32"/>
       <use xlink:href="#DejaVuSans-30" x="63.623047"/>
      </g>
     </g>
    </g>
    <g id="text_17">
     <!-- Wall Distance [mm] -->
     <g transform="translate(18.398438 214.330937)rotate(-90)scale(0.1 -0.1)">
      <defs>
       <path id="DejaVuSans-57" d="M 213 4666 
L 850 4666 
L 1831 722 
L 2809 4666 
L 3519 4666 
L 4500 722 
L 5478 4666 
L 6119 4666 
L 4947 0 
L 4153 0 
L 3169 4050 
L 2175 0 
L 1381 0 
L 213 4666 
z
" transform="scale(0.015625)"/>
       <path id="DejaVuSans-44" d="M 1259 4147 
L 1259 519 
L 2022 519 
Q 2988 519 3436 956 
Q 3884 1394 3884 2338 
Q 3884 3275 3436 3711 
Q 2988 4147 2022 4147 
L 1259 4147 
z
M 628 4666 
L 1925 4666 
Q 3281 4666 3915 4102 
Q 4550 3538 4550 2338 
Q 4550 1131 3912 565 
Q 3275 0 1925 0 
L 628 0 
L 628 4666 
z
" transform="scale(0.015625)"/>
       <path id="DejaVuSans-63" d="M 3122 3366 
L 3122 2828 
Q 2878 2963 2633 3030 
Q 2388 3097 2138 3097 
Q 1578 3097 1268 2742 
Q 959 2388 959 1747 
Q 959 1106 1268 751 
Q 1578 397 2138 397 
Q 2388 397 2633 464 
Q 2878 531 3122 666 
L 3122 134 
Q 2881 22 2623 -34 
Q 2366 -91 2075 -91 
Q 1284 -91 818 406 
Q 353 903 353 1747 
Q 353 2603 823 3093 
Q 1294 3584 2113 3584 
Q 2378 3584 2631 3529 
Q 2884 3475 3122 3366 
z
" transform="scale(0.015625)"/>
       <path id="DejaVuSans-65" d="M 3597 1894 
L 3597 1613 
L 953 1613 
Q 991 1019 1311 708 
Q 1631 397 2203 397 
Q 2534 397 2845 478 
Q 3156 559 3463 722 
L 3463 178 
Q 3153 47 2828 -22 
Q 2503 -91 2169 -91 
Q 1331 -91 842 396 
Q 353 884 353 1716 
Q 353 2575 817 3079 
Q 1281 3584 2069 3584 
Q 2775 3584 3186 3129 
Q 3597 2675 3597 1894 
z
M 3022 2063 
Q 3016 2534 2758 2815 
Q 2500 3097 2075 3097 
Q 1594 3097 1305 2825 
Q 1016 2553 972 2059 
L 3022 2063 
z
" transform="scale(0.015625)"/>
      </defs>
      <use xlink:href="#DejaVuSans-57"/>
      <use xlink:href="#DejaVuSans-61" x="92.501953"/>
      <use xlink:href="#DejaVuSans-6c" x="153.78125"/>
      <use xlink:href="#DejaVuSans-6c" x="181.564453"/>
      <use xlink:href="#DejaVuSans-20" x="209.347656"/>
      <use xlink:href="#DejaVuSans-44" x="241.134766"/>
      <use xlink:href="#DejaVuSans-69" x="318.136719"/>
      <use xlink:href="#DejaVuSans-73" x="345.919922"/>
      <use xlink:href="#DejaVuSans-74" x="398.019531"/>
      <use xlink:href="#DejaVuSans-61" x="437.228516"/>
      <use xlink:href="#DejaVuSans-6e" x="498.507812"/>
      <use xlink:href="#DejaVuSans-63" x="561.886719"/>
      <use xlink:href="#DejaVuSans-65" x="616.867188"/>
      <use xlink:href="#DejaVuSans-20" x="678.390625"/>
      <use xlink:href="#DejaVuSans-5b" x="710.177734"/>
      <use xlink:href="#DejaVuSans-6d" x="749.191406"/>
      <use xlink:href="#DejaVuSans-6d" x="846.603516"/>
      <use xlink:href="#DejaVuSans-5d" x="944.015625"/>
     </g>
    </g>
   </g>
   <g id="line2d_31">
    <path d="M 76.720526 38.826236 
L 76.74075 38.681654 
L 76.720842 38.867546 
L 76.828954 38.722963 
L 76.914572 38.722963 
L 77.036529 38.826236 
L 77.201148 38.722963 
L 77.33772 38.640345 
L 77.414746 38.8882 
L 77.497994 38.578381 
L 77.683942 38.743618 
L 77.89764 38.805582 
L 78.272894 38.826236 
L 78.414108 39.094746 
L 78.563223 38.929509 
L 78.721225 39.053437 
L 78.888114 38.929509 
L 79.063891 39.177365 
L 79.247568 39.15671 
L 79.643561 39.425221 
L 80.074116 39.569803 
L 80.541209 39.776349 
L 81.307518 40.106823 
L 81.581059 40.086169 
L 82.153816 40.31337 
L 84.440893 40.519916 
L 86.743771 40.416643 
L 87.158526 40.251406 
L 87.583156 40.334024 
L 88.017661 40.189442 
L 88.462041 40.334024 
L 88.916297 40.168787 
L 89.834683 40.230751 
L 90.308688 40.31337 
L 90.792569 40.230751 
L 91.27645 40.27206 
L 91.770206 40.168787 
L 93.300849 40.292715 
L 93.814355 40.375334 
L 94.347612 40.168787 
L 98.732164 40.499261 
L 99.295046 40.375334 
L 100.44056 40.416643 
L 102.178581 40.189442 
L 104.528859 40.168787 
L 105.111491 40.065514 
L 106.296505 40.065514 
L 107.481519 39.838313 
L 108.074026 39.838313 
L 108.666533 39.631767 
L 109.259041 39.549148 
L 110.444055 39.590458 
L 112.221576 39.487184 
L 112.814083 39.487184 
L 113.40659 39.218674 
L 115.184112 39.404566 
L 115.776619 39.177365 
L 116.961633 39.15671 
L 118.146647 39.15671 
L 121.109183 38.950164 
L 129.996789 39.032783 
L 130.589296 39.136056 
L 132.366818 39.15671 
L 142.439438 39.962241 
L 143.031945 40.024205 
L 144.21696 40.375334 
L 145.401974 41.284137 
L 145.994481 42.23425 
L 146.586988 43.700729 
L 147.179495 46.303212 
L 147.772002 49.669917 
L 148.364509 54.23459 
L 148.957016 59.724591 
L 150.142031 75.41641 
L 151.327045 98.12568 
L 151.919552 113.719926 
L 152.512059 134.147355 
L 153.104566 160.647246 
L 153.697073 248.491389 
L 223.563536 248.491389 
L 224.156043 182.251989 
L 224.74855 142.182007 
L 225.341057 124.956045 
L 226.526071 102.979518 
L 227.711085 86.751175 
L 228.8961 74.156395 
L 230.081114 63.413508 
L 231.266128 55.207424 
L 232.451142 48.451294 
L 233.636156 43.473528 
L 234.228664 42.110322 
L 235.413678 40.623189 
L 236.598692 40.044859 
L 238.96872 39.776349 
L 240.153735 39.838313 
L 249.633848 39.900277 
L 250.226355 40.00355 
L 250.818862 39.900277 
L 252.003877 40.148133 
L 252.596384 40.024205 
L 256.743933 40.148133 
L 257.336441 40.044859 
L 259.113962 40.168787 
L 260.298976 40.148133 
L 260.891483 40.292715 
L 261.48399 40.168787 
L 262.669004 40.148133 
L 266.816554 40.210096 
L 268.001568 40.168787 
L 271.556611 40.065514 
L 272.741625 40.00355 
L 284.591767 40.106823 
L 285.184274 40.168787 
L 285.776781 40.106823 
L 287.554303 40.31337 
L 289.924331 40.292715 
L 292.29436 40.519916 
L 293.479374 40.519916 
L 294.664388 40.540571 
L 299.996952 40.705808 
L 300.589459 40.58188 
L 301.181966 40.705808 
L 304.737009 40.519916 
L 307.107037 40.519916 
L 307.699544 40.416643 
L 308.292051 40.457952 
L 308.884558 40.375334 
L 310.069573 40.540571 
L 311.254587 40.334024 
L 314.809629 40.395988 
L 315.994644 40.540571 
L 318.364672 40.767772 
L 320.734701 41.222173 
L 321.327208 41.593957 
L 321.919715 42.130977 
L 322.512222 42.998472 
L 323.104729 44.46495 
L 323.697236 47.129398 
L 324.289743 50.330865 
L 324.88225 54.379173 
L 325.474757 59.813406 
L 326.067264 66.662482 
L 327.252279 84.733218 
L 327.844786 96.927711 
L 328.437293 112.232793 
L 329.0298 133.775572 
L 329.622307 176.303456 
L 330.214814 248.491389 
L 381.762932 248.491389 
L 382.355439 219.203123 
L 382.947946 196.627612 
L 383.540453 182.251989 
L 384.13296 174.589122 
L 384.725468 248.491389 
L 387.688003 248.491389 
L 388.28051 138.918575 
L 388.873017 139.372977 
L 389.465524 133.775572 
L 390.650539 129.458754 
L 391.243046 146.43686 
L 391.835553 145.32151 
L 392.42806 138.071735 
L 393.020567 134.147355 
L 393.613074 131.35898 
L 394.205581 126.835616 
L 394.798088 111.138097 
L 395.983103 106.366878 
L 396.57561 104.487306 
L 397.168117 102.091369 
L 397.760624 107.420264 
L 398.353131 104.85909 
L 398.945638 101.223875 
L 399.538145 98.600737 
L 400.723159 91.61121 
L 401.315666 83.667439 
L 401.908174 81.302484 
L 403.685695 72.443713 
L 404.278202 72.807234 
L 405.463216 66.517899 
L 406.64823 60.610675 
L 407.240737 55.68248 
L 408.425752 51.157051 
L 409.512015 48.575222 
L 410.104522 49.959082 
L 410.697029 50.454793 
L 411.289536 51.776689 
L 412.869555 59.456081 
L 413.462062 64.731274 
L 414.548325 79.931016 
L 415.042081 90.595002 
L 415.535837 116.405028 
L 416.029593 150.836297 
L 416.6221 248.491389 
L 423.33718 248.491389 
L 423.732185 211.540255 
L 424.12719 248.491389 
L 425.80596 248.491389 
L 426.102214 187.126482 
L 426.398467 200.737884 
L 426.694721 174.589122 
L 426.990974 171.449618 
L 427.287228 248.491389 
L 428.570993 248.491389 
L 428.867247 152.240812 
L 429.064749 152.240812 
L 429.459754 144.226815 
L 429.657256 248.491389 
L 430.546017 248.491389 
L 430.644768 137.637988 
L 430.743519 144.763835 
L 431.039773 137.637988 
L 431.237275 248.491389 
L 431.63228 248.491389 
L 431.63228 133.424443 
L 431.731031 133.424443 
L 431.829782 130.388213 
L 432.027285 248.491389 
L 432.027285 248.491389 
L 432.126036 248.491389 
L 432.224787 120.226135 
L 432.224787 122.9732 
" clip-path="url(#p0cb98733a0)" style="fill: none; stroke: #1f77b4; stroke-width: 1.5; stroke-linecap: square"/>
   </g>
   <g id="line2d_32">
    <path d="M 76.720526 290.750763 
L 341.472449 290.750763 
L 342.064956 261.421188 
L 342.657463 261.421188 
L 343.24997 229.344547 
L 343.842478 247.809786 
L 344.434985 232.153576 
L 345.027492 272.244214 
L 345.619999 290.750763 
L 347.990027 290.750763 
L 348.582534 238.845677 
L 349.175041 216.807186 
L 349.767549 220.380437 
L 350.360056 216.807186 
L 350.952563 216.807186 
L 351.54507 215.196125 
L 352.137577 290.750763 
L 355.100112 290.750763 
L 355.69262 215.196125 
L 356.285127 212.242513 
L 356.877634 212.242513 
L 358.062648 215.196125 
L 358.655155 210.879307 
L 359.247662 290.750763 
L 361.617691 290.750763 
L 362.210198 212.242513 
L 362.802705 209.578065 
L 363.395212 212.242513 
L 363.987719 213.667682 
L 364.580226 208.338788 
L 365.172733 213.667682 
L 365.76524 290.750763 
L 368.135269 290.750763 
L 368.727776 210.879307 
L 369.91279 203.877387 
L 370.505297 203.877387 
L 371.097804 202.865311 
L 371.690311 198.341947 
L 372.282818 290.750763 
L 374.652847 290.750763 
L 375.245354 197.515761 
L 375.837861 191.732465 
L 376.430368 191.092171 
L 377.022875 195.202443 
L 377.615382 190.472532 
L 378.207889 195.202443 
L 378.800397 290.750763 
L 381.170425 290.750763 
L 381.762932 182.045443 
L 382.355439 184.400071 
L 382.947946 178.244991 
L 383.540453 177.48077 
L 384.13296 177.108987 
L 384.725468 174.94025 
L 385.317975 290.750763 
L 387.688003 290.750763 
L 388.28051 171.676819 
L 388.873017 168.24815 
L 389.465524 168.78517 
L 390.058031 165.686976 
L 390.650539 165.191265 
L 391.243046 253.75832 
L 391.835553 290.750763 
L 393.613074 290.750763 
L 394.798088 158.251309 
L 395.390595 157.714289 
L 395.983103 157.342505 
L 396.57561 155.442279 
L 397.168117 153.996455 
L 397.760624 191.092171 
L 398.353131 200.965085 
L 398.945638 193.756619 
L 399.538145 188.67558 
L 400.723159 184.400071 
L 401.315666 147.944648 
L 401.908174 146.849953 
L 402.500681 146.354242 
L 403.685695 144.412707 
L 404.278202 171.986638 
L 405.463216 167.194764 
L 406.055723 166.162032 
L 406.64823 164.489007 
L 407.240737 139.145776 
L 407.833245 138.340245 
L 408.425752 137.059658 
L 409.018259 136.729184 
L 409.512015 135.675798 
L 410.104522 155.607516 
L 410.697029 152.90176 
L 411.289536 152.158193 
L 411.783292 150.175349 
L 412.375799 148.461014 
L 412.869555 131.028506 
L 413.462062 130.367558 
L 414.548325 128.426023 
L 415.042081 128.01293 
L 415.535837 142.409208 
L 416.029593 141.314512 
L 416.6221 139.414286 
L 417.115856 138.959884 
L 417.609612 137.142277 
L 418.103368 123.386293 
L 418.597124 122.642726 
L 418.992128 121.548031 
L 419.485884 121.031665 
L 419.97964 119.916315 
L 420.374645 131.235052 
L 420.868401 130.181666 
L 421.263406 128.983698 
L 421.757161 128.426023 
L 422.152166 127.351982 
L 422.547171 116.157172 
L 422.942176 115.207059 
L 423.33718 114.732003 
L 424.12719 113.20356 
L 424.423443 121.816541 
L 424.818448 121.031665 
L 425.114702 120.040243 
L 425.509706 119.730423 
L 425.80596 118.759656 
L 426.102214 109.795546 
L 426.990974 107.998593 
L 427.287228 106.965862 
L 427.583481 113.637307 
L 427.879735 112.790468 
L 428.077237 111.861009 
L 428.373491 111.406607 
L 428.570993 110.497804 
L 428.867247 104.218796 
L 429.262251 101.760895 
L 429.657256 100.6662 
L 429.854759 106.263604 
L 430.052261 105.829857 
L 430.151012 104.611234 
L 430.546017 103.640466 
L 430.743519 97.216876 
L 430.941022 97.051639 
L 431.138524 95.624404 
L 431.237275 100.046561 
L 431.336026 99.50954 
L 431.63228 98.063716 
L 431.731031 92.48077 
L 431.928533 91.016356 
L 432.027285 94.909754 
L 432.027285 93.521763 
L 432.126036 92.891797 
L 432.224787 84.177608 
L 432.224787 85.582123 
" clip-path="url(#p0cb98733a0)" style="fill: none; stroke: #ff7f0e; stroke-width: 1.5; stroke-linecap: square"/>
   </g>
   <g id="line2d_33">
    <path d="M 76.720526 291.783494 
L 377.022875 291.783494 
L 377.615382 262.474574 
L 378.207889 291.783494 
L 381.170425 291.783494 
L 381.762932 199.395333 
L 382.355439 201.109667 
L 382.947946 194.810005 
L 383.540453 194.810005 
L 384.13296 192.145557 
L 384.725468 291.783494 
L 387.688003 291.783494 
L 388.28051 178.905939 
L 388.873017 178.141718 
L 389.465524 176.695894 
L 390.058031 178.141718 
L 390.650539 174.299957 
L 391.243046 291.783494 
L 394.205581 291.783494 
L 394.798088 162.444199 
L 395.390595 163.497585 
L 395.983103 161.411467 
L 396.57561 162.444199 
L 397.168117 159.304695 
L 397.760624 221.413169 
L 398.353131 208.194205 
L 398.945638 201.109667 
L 399.538145 195.512262 
L 400.723159 191.505264 
L 401.315666 154.719367 
L 401.908174 150.93957 
L 402.500681 150.815642 
L 403.093188 149.493746 
L 403.685695 149.493746 
L 404.278202 175.642508 
L 404.870709 175.993636 
L 405.463216 171.821401 
L 406.055723 171.821401 
L 406.64823 166.719707 
L 407.240737 143.958305 
L 407.833245 142.347244 
L 408.425752 142.058079 
L 409.018259 140.01327 
L 409.512015 151.641827 
L 410.104522 156.82614 
L 410.697029 156.165191 
L 411.289536 153.645326 
L 411.783292 152.199502 
L 412.375799 151.084152 
L 412.869555 135.035504 
L 413.462062 133.507062 
L 413.955818 133.651644 
L 414.548325 132.081892 
L 415.042081 143.049501 
L 415.535837 145.693294 
L 416.029593 143.359321 
L 416.6221 141.665641 
L 417.115856 141.190584 
L 417.609612 139.393631 
L 418.103368 127.16609 
L 418.597124 125.555029 
L 418.992128 125.968122 
L 419.485884 123.386293 
L 419.97964 133.093969 
L 420.374645 132.350403 
L 420.868401 132.081892 
L 421.263406 130.202321 
L 421.757161 129.830538 
L 422.152166 128.240131 
L 422.547171 118.883584 
L 422.942176 117.499723 
L 423.33718 117.272522 
L 423.732185 115.929971 
L 424.12719 123.097128 
L 424.423443 122.208979 
L 424.818448 122.085051 
L 425.114702 120.432681 
L 425.509706 120.391372 
L 425.80596 118.615073 
L 426.102214 111.695772 
L 426.398467 110.291257 
L 426.694721 110.539113 
L 426.990974 109.072634 
L 427.287228 114.793967 
L 427.879735 112.583921 
L 428.077237 112.459993 
L 428.570993 110.16733 
L 428.867247 104.673198 
L 429.064749 103.227374 
L 429.262251 103.495884 
L 429.459754 102.070714 
L 429.657256 106.77997 
L 429.854759 105.437419 
L 430.052261 104.879744 
L 430.151012 105.1276 
L 430.546017 103.103446 
L 430.743519 97.444077 
L 431.039773 97.051639 
L 431.237275 100.025906 
L 431.434777 98.187644 
L 431.533529 98.39419 
L 431.63228 97.051639 
L 431.731031 92.210194 
L 431.829782 92.600566 
L 431.829782 91.313783 
L 431.928533 94.661899 
L 431.928533 93.540352 
L 432.027285 93.682869 
L 432.126036 87.288195 
L 432.126036 87.587688 
L 432.224787 89.865893 
L 432.224787 87.852067 
L 432.224787 83.456762 
L 432.224787 85.371446 
" clip-path="url(#p0cb98733a0)" style="fill: none; stroke: #2ca02c; stroke-width: 1.5; stroke-linecap: square"/>
   </g>
   <g id="line2d_34">
    <path d="M 76.720526 112.707849 
L 76.788782 112.150174 
L 76.773101 115.289678 
L 76.828954 114.876585 
L 76.88228 114.876585 
L 77.036529 112.150174 
L 77.0863 114.876585 
L 77.141107 113.678617 
L 77.201148 114.876585 
L 77.26662 112.707849 
L 77.33772 113.286179 
L 77.414746 112.521957 
L 77.497994 113.100287 
L 77.787038 112.150174 
L 77.89764 111.964282 
L 78.13958 113.864508 
L 78.272894 112.150174 
L 78.414108 113.47207 
L 78.721225 111.613154 
L 79.063891 112.893741 
L 79.441121 111.055479 
L 79.643561 111.964282 
L 79.854888 111.055479 
L 80.074116 111.964282 
L 80.541209 110.187984 
L 80.788087 111.055479 
L 81.042865 109.671618 
L 81.307518 111.055479 
L 81.581059 111.24137 
L 81.863487 112.150174 
L 82.153816 111.055479 
L 82.454019 110.890242 
L 82.76311 110.187984 
L 83.081089 110.353221 
L 83.406968 108.845433 
L 83.742722 109.175907 
L 84.087364 111.055479 
L 84.440893 109.175907 
L 84.802322 109.85751 
L 85.173627 109.85751 
L 85.553819 111.24137 
L 85.942899 110.187984 
L 86.339878 111.055479 
L 86.743771 109.671618 
L 87.158526 109.671618 
L 87.583156 111.427262 
L 88.017661 109.175907 
L 88.916297 110.70435 
L 89.370552 109.175907 
L 89.834683 109.175907 
L 90.308688 109.671618 
L 90.792569 110.539113 
L 91.27645 111.964282 
L 91.770206 109.341144 
L 92.787343 110.890242 
L 93.300849 110.890242 
L 93.814355 110.70435 
L 94.347612 110.353221 
L 94.880868 110.353221 
L 95.414125 110.539113 
L 95.957256 109.506381 
L 96.500388 110.187984 
L 97.053394 111.778391 
L 97.606401 109.671618 
L 98.169283 109.85751 
L 98.732164 110.353221 
L 99.295046 110.187984 
L 99.867803 110.890242 
L 100.44056 113.100287 
L 101.023192 110.353221 
L 101.595949 112.336066 
L 102.178581 111.964282 
L 102.761213 114.277601 
L 103.343845 112.893741 
L 103.936352 112.707849 
L 104.528859 112.150174 
L 105.111491 113.286179 
L 105.703998 112.336066 
L 106.296505 113.864508 
L 106.889012 111.613154 
L 107.481519 113.47207 
L 108.074026 114.876585 
L 109.259041 112.707849 
L 109.851548 114.071055 
L 110.444055 114.071055 
L 111.036562 113.47207 
L 111.629069 114.463493 
L 112.221576 114.071055 
L 112.814083 114.670039 
L 113.40659 114.876585 
L 113.999097 115.289678 
L 114.591605 114.876585 
L 115.184112 112.150174 
L 116.369126 114.277601 
L 116.961633 115.083132 
L 117.55414 113.100287 
L 118.146647 115.083132 
L 118.739154 115.083132 
L 119.331661 115.289678 
L 119.924168 114.277601 
L 120.516676 114.071055 
L 121.109183 117.231213 
L 121.70169 114.071055 
L 122.294197 115.083132 
L 122.886704 115.289678 
L 123.479211 115.289678 
L 124.071718 116.363719 
L 125.256732 116.797466 
L 125.849239 116.570265 
L 126.441747 117.685615 
L 127.034254 117.458414 
L 127.626761 118.615073 
L 128.219268 120.308753 
L 128.811775 122.415525 
L 129.404282 123.241711 
L 129.996789 123.510221 
L 130.589296 124.687535 
L 131.181803 131.007852 
L 131.77431 131.379635 
L 132.366818 133.775572 
L 132.959325 137.803225 
L 133.551832 139.806724 
L 134.144339 146.973881 
L 134.736846 147.655484 
L 135.329353 150.62975 
L 135.92186 169.09499 
L 136.514367 174.279302 
L 137.106874 244.608319 
L 218.823479 244.608319 
L 219.415986 201.708651 
L 220.008493 170.706051 
L 220.601 156.764176 
L 221.193507 163.456276 
L 221.786014 147.655484 
L 222.378522 141.43844 
L 222.971029 136.39871 
L 223.563536 135.923654 
L 224.156043 127.827038 
L 224.74855 127.827038 
L 225.341057 127.16609 
L 225.933564 123.510221 
L 226.526071 123.241711 
L 227.118578 120.308753 
L 228.303593 118.842274 
L 228.8961 118.387872 
L 229.488607 117.231213 
L 230.081114 117.685615 
L 230.673621 117.685615 
L 231.266128 116.570265 
L 231.858635 117.458414 
L 232.451142 115.70277 
L 233.043649 118.140017 
L 233.636156 117.231213 
L 234.228664 114.670039 
L 234.821171 115.083132 
L 235.413678 115.289678 
L 236.598692 115.289678 
L 237.191199 116.363719 
L 237.783706 118.387872 
L 238.376213 116.363719 
L 238.96872 115.929971 
L 239.561228 117.458414 
L 240.153735 115.496224 
L 240.746242 117.458414 
L 241.338749 116.363719 
L 241.931256 117.231213 
L 242.523763 115.289678 
L 243.11627 117.231213 
L 243.708777 115.289678 
L 244.893791 115.289678 
L 245.486299 116.363719 
L 246.078806 115.289678 
L 246.671313 115.70277 
L 247.26382 115.289678 
L 247.856327 115.929971 
L 248.448834 115.289678 
L 249.041341 114.277601 
L 249.633848 116.363719 
L 250.226355 116.136518 
L 250.818862 114.876585 
L 251.41137 114.670039 
L 252.003877 114.071055 
L 252.596384 115.289678 
L 253.188891 112.707849 
L 253.781398 112.150174 
L 254.966412 112.150174 
L 255.558919 113.100287 
L 256.151426 112.150174 
L 256.743933 112.150174 
L 257.336441 113.47207 
L 257.928948 113.100287 
L 258.521455 114.876585 
L 259.113962 114.071055 
L 259.706469 114.277601 
L 260.298976 115.083132 
L 260.891483 113.286179 
L 261.48399 112.893741 
L 262.076497 111.964282 
L 262.669004 114.071055 
L 263.261512 114.463493 
L 263.854019 113.678617 
L 264.446526 111.964282 
L 265.039033 113.864508 
L 265.63154 114.071055 
L 266.224047 113.286179 
L 266.816554 112.150174 
L 267.409061 115.289678 
L 268.001568 114.071055 
L 268.594076 115.289678 
L 269.186583 115.289678 
L 269.77909 114.071055 
L 270.371597 114.463493 
L 270.964104 112.150174 
L 271.556611 112.336066 
L 272.149118 114.670039 
L 272.741625 112.150174 
L 273.334132 114.071055 
L 273.926639 113.678617 
L 274.519147 112.150174 
L 275.111654 114.071055 
L 275.704161 112.707849 
L 276.296668 114.071055 
L 276.889175 116.136518 
L 278.074189 115.289678 
L 279.259203 114.876585 
L 279.85171 112.150174 
L 280.444218 115.289678 
L 281.036725 114.071055 
L 281.629232 112.150174 
L 282.221739 113.47207 
L 282.814246 113.864508 
L 283.406753 112.150174 
L 283.99926 114.277601 
L 284.591767 114.071055 
L 285.184274 114.670039 
L 285.776781 114.277601 
L 286.369289 115.289678 
L 286.961796 115.083132 
L 287.554303 115.289678 
L 288.14681 112.150174 
L 288.739317 113.864508 
L 289.331824 112.150174 
L 289.924331 113.286179 
L 290.516838 113.286179 
L 291.109345 113.100287 
L 291.701853 111.778391 
L 292.29436 113.100287 
L 292.886867 113.100287 
L 293.479374 114.277601 
L 294.071881 114.071055 
L 294.664388 114.463493 
L 295.256895 113.864508 
L 295.849402 113.47207 
L 296.441909 111.427262 
L 297.034416 113.864508 
L 298.219431 112.707849 
L 298.811938 111.613154 
L 299.404445 112.707849 
L 299.996952 113.100287 
L 300.589459 115.083132 
L 301.181966 116.136518 
L 301.774473 115.289678 
L 302.36698 116.797466 
L 302.959487 116.363719 
L 304.737009 114.277601 
L 305.922023 118.140017 
L 306.51453 118.842274 
L 307.107037 117.685615 
L 307.699544 121.341485 
L 308.292051 121.072974 
L 308.884558 127.827038 
L 309.477066 130.264285 
L 310.66208 135.923654 
L 311.254587 141.43844 
L 311.847094 138.794647 
L 312.439601 142.574445 
L 314.217122 170.706051 
L 314.809629 244.608319 
L 394.205581 244.608319 
L 394.798088 158.808984 
L 395.390595 167.566547 
L 395.983103 153.955146 
L 396.57561 146.292278 
L 397.168117 150.62975 
L 397.760624 244.608319 
L 400.723159 244.608319 
L 401.315666 152.240812 
L 401.908174 154.86395 
L 402.500681 150.62975 
L 403.093188 166.141378 
L 403.685695 167.566547 
L 404.278202 244.608319 
L 425.80596 244.608319 
L 426.102214 183.243412 
L 426.398467 172.44104 
L 426.694721 170.706051 
L 426.990974 201.708651 
L 427.287228 170.706051 
L 427.583481 244.608319 
L 428.570993 244.608319 
L 428.867247 145.63133 
L 429.064749 146.973881 
L 429.262251 141.43844 
L 429.657256 149.844874 
L 429.854759 244.608319 
L 430.546017 244.608319 
L 430.743519 132.949387 
L 430.941022 132.536294 
L 431.039773 134.188665 
L 431.138524 133.775572 
L 431.336026 244.608319 
L 431.63228 244.608319 
L 431.731031 127.16609 
L 431.829782 127.827038 
L 431.928533 125.575684 
L 431.928533 244.608319 
L 432.027285 244.608319 
L 432.126036 244.608319 
L 432.224787 112.707849 
L 432.224787 115.289678 
" clip-path="url(#p0cb98733a0)" style="fill: none; stroke: #d62728; stroke-width: 1.5; stroke-linecap: square"/>
   </g>
   <g id="patch_3">
    <path d="M 58.945313 304.44375 
L 58.945313 25.918125 
" style="fill: none; stroke: #000000; stroke-width: 0.8; stroke-linejoin: miter; stroke-linecap: square"/>
   </g>
   <g id="patch_4">
    <path d="M 450 304.44375 
L 450 25.918125 
" style="fill: none; stroke: #000000; stroke-width: 0.8; stroke-linejoin: miter; stroke-linecap: square"/>
   </g>
   <g id="patch_5">
    <path d="M 58.945313 304.44375 
L 450 304.44375 
" style="fill: none; stroke: #000000; stroke-width: 0.8; stroke-linejoin: miter; stroke-linecap: square"/>
   </g>
   <g id="patch_6">
    <path d="M 58.945313 25.918125 
L 450 25.918125 
" style="fill: none; stroke: #000000; stroke-width: 0.8; stroke-linejoin: miter; stroke-linecap: square"/>
   </g>
   <g id="text_18">
    <!-- Wall Distance [mm] -->
    <g transform="translate(195.492656 19.918125)scale(0.12 -0.12)">
     <use xlink:href="#DejaVuSans-57"/>
     <use xlink:href="#DejaVuSans-61" x="92.501953"/>
     <use xlink:href="#DejaVuSans-6c" x="153.78125"/>
     <use xlink:href="#DejaVuSans-6c" x="181.564453"/>
     <use xlink:href="#DejaVuSans-20" x="209.347656"/>
     <use xlink:href="#DejaVuSans-44" x="241.134766"/>
     <use xlink:href="#DejaVuSans-69" x="318.136719"/>
     <use xlink:href="#DejaVuSans-73" x="345.919922"/>
     <use xlink:href="#DejaVuSans-74" x="398.019531"/>
     <use xlink:href="#DejaVuSans-61" x="437.228516"/>
     <use xlink:href="#DejaVuSans-6e" x="498.507812"/>
     <use xlink:href="#DejaVuSans-63" x="561.886719"/>
     <use xlink:href="#DejaVuSans-65" x="616.867188"/>
     <use xlink:href="#DejaVuSans-20" x="678.390625"/>
     <use xlink:href="#DejaVuSans-5b" x="710.177734"/>
     <use xlink:href="#DejaVuSans-6d" x="749.191406"/>
     <use xlink:href="#DejaVuSans-6d" x="846.603516"/>
     <use xlink:href="#DejaVuSans-5d" x="944.015625"/>
    </g>
   </g>
   <g id="legend_1">
    <g id="patch_7">
     <path d="M 65.945312 196.037187 
L 152.745313 196.037187 
Q 154.745313 196.037187 154.745313 194.037187 
L 154.745313 136.324687 
Q 154.745313 134.324687 152.745313 134.324687 
L 65.945312 134.324687 
Q 63.945312 134.324687 63.945312 136.324687 
L 63.945312 194.037187 
Q 63.945312 196.037187 65.945312 196.037187 
z
" style="fill: #ffffff; opacity: 0.8; stroke: #cccccc; stroke-linejoin: miter"/>
    </g>
    <g id="line2d_35">
     <path d="M 67.945312 142.423125 
L 77.945312 142.423125 
L 87.945312 142.423125 
" style="fill: none; stroke: #1f77b4; stroke-width: 1.5; stroke-linecap: square"/>
    </g>
    <g id="text_19">
     <!-- Left Side -->
     <g transform="translate(95.945312 145.923125)scale(0.1 -0.1)">
      <defs>
       <path id="DejaVuSans-4c" d="M 628 4666 
L 1259 4666 
L 1259 531 
L 3531 531 
L 3531 0 
L 628 0 
L 628 4666 
z
" transform="scale(0.015625)"/>
       <path id="DejaVuSans-66" d="M 2375 4863 
L 2375 4384 
L 1825 4384 
Q 1516 4384 1395 4259 
Q 1275 4134 1275 3809 
L 1275 3500 
L 2222 3500 
L 2222 3053 
L 1275 3053 
L 1275 0 
L 697 0 
L 697 3053 
L 147 3053 
L 147 3500 
L 697 3500 
L 697 3744 
Q 697 4328 969 4595 
Q 1241 4863 1831 4863 
L 2375 4863 
z
" transform="scale(0.015625)"/>
       <path id="DejaVuSans-53" d="M 3425 4513 
L 3425 3897 
Q 3066 4069 2747 4153 
Q 2428 4238 2131 4238 
Q 1616 4238 1336 4038 
Q 1056 3838 1056 3469 
Q 1056 3159 1242 3001 
Q 1428 2844 1947 2747 
L 2328 2669 
Q 3034 2534 3370 2195 
Q 3706 1856 3706 1288 
Q 3706 609 3251 259 
Q 2797 -91 1919 -91 
Q 1588 -91 1214 -16 
Q 841 59 441 206 
L 441 856 
Q 825 641 1194 531 
Q 1563 422 1919 422 
Q 2459 422 2753 634 
Q 3047 847 3047 1241 
Q 3047 1584 2836 1778 
Q 2625 1972 2144 2069 
L 1759 2144 
Q 1053 2284 737 2584 
Q 422 2884 422 3419 
Q 422 4038 858 4394 
Q 1294 4750 2059 4750 
Q 2388 4750 2728 4690 
Q 3069 4631 3425 4513 
z
" transform="scale(0.015625)"/>
       <path id="DejaVuSans-64" d="M 2906 2969 
L 2906 4863 
L 3481 4863 
L 3481 0 
L 2906 0 
L 2906 525 
Q 2725 213 2448 61 
Q 2172 -91 1784 -91 
Q 1150 -91 751 415 
Q 353 922 353 1747 
Q 353 2572 751 3078 
Q 1150 3584 1784 3584 
Q 2172 3584 2448 3432 
Q 2725 3281 2906 2969 
z
M 947 1747 
Q 947 1113 1208 752 
Q 1469 391 1925 391 
Q 2381 391 2643 752 
Q 2906 1113 2906 1747 
Q 2906 2381 2643 2742 
Q 2381 3103 1925 3103 
Q 1469 3103 1208 2742 
Q 947 2381 947 1747 
z
" transform="scale(0.015625)"/>
      </defs>
      <use xlink:href="#DejaVuSans-4c"/>
      <use xlink:href="#DejaVuSans-65" x="53.962891"/>
      <use xlink:href="#DejaVuSans-66" x="115.486328"/>
      <use xlink:href="#DejaVuSans-74" x="148.941406"/>
      <use xlink:href="#DejaVuSans-20" x="188.150391"/>
      <use xlink:href="#DejaVuSans-53" x="219.9375"/>
      <use xlink:href="#DejaVuSans-69" x="283.414062"/>
      <use xlink:href="#DejaVuSans-64" x="311.197266"/>
      <use xlink:href="#DejaVuSans-65" x="374.673828"/>
     </g>
    </g>
    <g id="line2d_36">
     <path d="M 67.945312 157.10125 
L 77.945312 157.10125 
L 87.945312 157.10125 
" style="fill: none; stroke: #ff7f0e; stroke-width: 1.5; stroke-linecap: square"/>
    </g>
    <g id="text_20">
     <!-- Left Front -->
     <g transform="translate(95.945312 160.60125)scale(0.1 -0.1)">
      <defs>
       <path id="DejaVuSans-46" d="M 628 4666 
L 3309 4666 
L 3309 4134 
L 1259 4134 
L 1259 2759 
L 3109 2759 
L 3109 2228 
L 1259 2228 
L 1259 0 
L 628 0 
L 628 4666 
z
" transform="scale(0.015625)"/>
      </defs>
      <use xlink:href="#DejaVuSans-4c"/>
      <use xlink:href="#DejaVuSans-65" x="53.962891"/>
      <use xlink:href="#DejaVuSans-66" x="115.486328"/>
      <use xlink:href="#DejaVuSans-74" x="148.941406"/>
      <use xlink:href="#DejaVuSans-20" x="188.150391"/>
      <use xlink:href="#DejaVuSans-46" x="219.9375"/>
      <use xlink:href="#DejaVuSans-72" x="270.207031"/>
      <use xlink:href="#DejaVuSans-6f" x="309.070312"/>
      <use xlink:href="#DejaVuSans-6e" x="370.251953"/>
      <use xlink:href="#DejaVuSans-74" x="433.630859"/>
     </g>
    </g>
    <g id="line2d_37">
     <path d="M 67.945312 171.779375 
L 77.945312 171.779375 
L 87.945312 171.779375 
" style="fill: none; stroke: #2ca02c; stroke-width: 1.5; stroke-linecap: square"/>
    </g>
    <g id="text_21">
     <!-- Right Front -->
     <g transform="translate(95.945312 175.279375)scale(0.1 -0.1)">
      <defs>
       <path id="DejaVuSans-52" d="M 2841 2188 
Q 3044 2119 3236 1894 
Q 3428 1669 3622 1275 
L 4263 0 
L 3584 0 
L 2988 1197 
Q 2756 1666 2539 1819 
Q 2322 1972 1947 1972 
L 1259 1972 
L 1259 0 
L 628 0 
L 628 4666 
L 2053 4666 
Q 2853 4666 3247 4331 
Q 3641 3997 3641 3322 
Q 3641 2881 3436 2590 
Q 3231 2300 2841 2188 
z
M 1259 4147 
L 1259 2491 
L 2053 2491 
Q 2509 2491 2742 2702 
Q 2975 2913 2975 3322 
Q 2975 3731 2742 3939 
Q 2509 4147 2053 4147 
L 1259 4147 
z
" transform="scale(0.015625)"/>
       <path id="DejaVuSans-67" d="M 2906 1791 
Q 2906 2416 2648 2759 
Q 2391 3103 1925 3103 
Q 1463 3103 1205 2759 
Q 947 2416 947 1791 
Q 947 1169 1205 825 
Q 1463 481 1925 481 
Q 2391 481 2648 825 
Q 2906 1169 2906 1791 
z
M 3481 434 
Q 3481 -459 3084 -895 
Q 2688 -1331 1869 -1331 
Q 1566 -1331 1297 -1286 
Q 1028 -1241 775 -1147 
L 775 -588 
Q 1028 -725 1275 -790 
Q 1522 -856 1778 -856 
Q 2344 -856 2625 -561 
Q 2906 -266 2906 331 
L 2906 616 
Q 2728 306 2450 153 
Q 2172 0 1784 0 
Q 1141 0 747 490 
Q 353 981 353 1791 
Q 353 2603 747 3093 
Q 1141 3584 1784 3584 
Q 2172 3584 2450 3431 
Q 2728 3278 2906 2969 
L 2906 3500 
L 3481 3500 
L 3481 434 
z
" transform="scale(0.015625)"/>
       <path id="DejaVuSans-68" d="M 3513 2113 
L 3513 0 
L 2938 0 
L 2938 2094 
Q 2938 2591 2744 2837 
Q 2550 3084 2163 3084 
Q 1697 3084 1428 2787 
Q 1159 2491 1159 1978 
L 1159 0 
L 581 0 
L 581 4863 
L 1159 4863 
L 1159 2956 
Q 1366 3272 1645 3428 
Q 1925 3584 2291 3584 
Q 2894 3584 3203 3211 
Q 3513 2838 3513 2113 
z
" transform="scale(0.015625)"/>
      </defs>
      <use xlink:href="#DejaVuSans-52"/>
      <use xlink:href="#DejaVuSans-69" x="69.482422"/>
      <use xlink:href="#DejaVuSans-67" x="97.265625"/>
      <use xlink:href="#DejaVuSans-68" x="160.742188"/>
      <use xlink:href="#DejaVuSans-74" x="224.121094"/>
      <use xlink:href="#DejaVuSans-20" x="263.330078"/>
      <use xlink:href="#DejaVuSans-46" x="295.117188"/>
      <use xlink:href="#DejaVuSans-72" x="345.386719"/>
      <use xlink:href="#DejaVuSans-6f" x="384.25"/>
      <use xlink:href="#DejaVuSans-6e" x="445.431641"/>
      <use xlink:href="#DejaVuSans-74" x="508.810547"/>
     </g>
    </g>
    <g id="line2d_38">
     <path d="M 67.945312 186.4575 
L 77.945312 186.4575 
L 87.945312 186.4575 
" style="fill: none; stroke: #d62728; stroke-width: 1.5; stroke-linecap: square"/>
    </g>
    <g id="text_22">
     <!-- Right Side -->
     <g transform="translate(95.945312 189.9575)scale(0.1 -0.1)">
      <use xlink:href="#DejaVuSans-52"/>
      <use xlink:href="#DejaVuSans-69" x="69.482422"/>
      <use xlink:href="#DejaVuSans-67" x="97.265625"/>
      <use xlink:href="#DejaVuSans-68" x="160.742188"/>
      <use xlink:href="#DejaVuSans-74" x="224.121094"/>
      <use xlink:href="#DejaVuSans-20" x="263.330078"/>
      <use xlink:href="#DejaVuSans-53" x="295.117188"/>
      <use xlink:href="#DejaVuSans-69" x="358.59375"/>
      <use xlink:href="#DejaVuSans-64" x="386.376953"/>
      <use xlink:href="#DejaVuSans-65" x="449.853516"/>
     </g>
    </g>
   </g>
  </g>
 </g>
 <defs>
  <clipPath id="p0cb98733a0">
   <rect x="58.945313" y="25.918125" width="391.054687" height="278.525625"/>
  </clipPath>
 </defs>
</svg>
