<?xml version="1.0" encoding="utf-8" standalone="no"?>
<!DOCTYPE svg PUBLIC "-//W3C//DTD SVG 1.1//EN"
  "http://www.w3.org/Graphics/SVG/1.1/DTD/svg11.dtd">
<svg xmlns:xlink="http://www.w3.org/1999/xlink" width="460.8pt" height="345.6pt" viewBox="0 0 460.8 345.6" xmlns="http://www.w3.org/2000/svg" version="1.1">
 <metadata>
  <rdf:RDF xmlns:dc="http://purl.org/dc/elements/1.1/" xmlns:cc="http://creativecommons.org/ns#" xmlns:rdf="http://www.w3.org/1999/02/22-rdf-syntax-ns#">
   <cc:Work>
    <dc:type rdf:resource="http://purl.org/dc/dcmitype/StillImage"/>
    <dc:date>2022-01-15T23:46:41.910781</dc:date>
    <dc:format>image/svg+xml</dc:format>
    <dc:creator>
     <cc:Agent>
      <dc:title>Matplotlib v3.5.1, https://matplotlib.org/</dc:title>
     </cc:Agent>
    </dc:creator>
   </cc:Work>
  </rdf:RDF>
 </metadata>
 <defs>
  <style type="text/css">*{stroke-linejoin: round; stroke-linecap: butt}</style>
 </defs>
 <g id="figure_1">
  <g id="patch_1">
   <path d="M 0 345.6 
L 460.8 345.6 
L 460.8 0 
L 0 0 
z
" style="fill: #ffffff"/>
  </g>
  <g id="axes_1">
   <g id="patch_2">
    <path d="M 58.945313 304.44375 
L 450 304.44375 
L 450 25.918125 
L 58.945313 25.918125 
z
" style="fill: #ffffff"/>
   </g>
   <g id="matplotlib.axis_1">
    <g id="xtick_1">
     <g id="line2d_1">
      <path d="M 76.720526 304.44375 
L 76.720526 25.918125 
" clip-path="url(#p51626bdf8f)" style="fill: none; stroke: #b0b0b0; stroke-width: 0.8; stroke-linecap: square"/>
     </g>
     <g id="line2d_2">
      <defs>
       <path id="m9647b4fa9c" d="M 0 0 
L 0 3.5 
" style="stroke: #000000; stroke-width: 0.8"/>
      </defs>
      <g>
       <use xlink:href="#m9647b4fa9c" x="76.720526" y="304.44375" style="stroke: #000000; stroke-width: 0.8"/>
      </g>
     </g>
     <g id="text_1">
      <!-- 0 -->
      <g transform="translate(73.539276 319.042187)scale(0.1 -0.1)">
       <defs>
        <path id="DejaVuSans-30" d="M 2034 4250 
Q 1547 4250 1301 3770 
Q 1056 3291 1056 2328 
Q 1056 1369 1301 889 
Q 1547 409 2034 409 
Q 2525 409 2770 889 
Q 3016 1369 3016 2328 
Q 3016 3291 2770 3770 
Q 2525 4250 2034 4250 
z
M 2034 4750 
Q 2819 4750 3233 4129 
Q 3647 3509 3647 2328 
Q 3647 1150 3233 529 
Q 2819 -91 2034 -91 
Q 1250 -91 836 529 
Q 422 1150 422 2328 
Q 422 3509 836 4129 
Q 1250 4750 2034 4750 
z
" transform="scale(0.015625)"/>
       </defs>
       <use xlink:href="#DejaVuSans-30"/>
      </g>
     </g>
    </g>
    <g id="xtick_2">
     <g id="line2d_3">
      <path d="M 142.554648 304.44375 
L 142.554648 25.918125 
" clip-path="url(#p51626bdf8f)" style="fill: none; stroke: #b0b0b0; stroke-width: 0.8; stroke-linecap: square"/>
     </g>
     <g id="line2d_4">
      <g>
       <use xlink:href="#m9647b4fa9c" x="142.554648" y="304.44375" style="stroke: #000000; stroke-width: 0.8"/>
      </g>
     </g>
     <g id="text_2">
      <!-- 50 -->
      <g transform="translate(136.192148 319.042187)scale(0.1 -0.1)">
       <defs>
        <path id="DejaVuSans-35" d="M 691 4666 
L 3169 4666 
L 3169 4134 
L 1269 4134 
L 1269 2991 
Q 1406 3038 1543 3061 
Q 1681 3084 1819 3084 
Q 2600 3084 3056 2656 
Q 3513 2228 3513 1497 
Q 3513 744 3044 326 
Q 2575 -91 1722 -91 
Q 1428 -91 1123 -41 
Q 819 9 494 109 
L 494 744 
Q 775 591 1075 516 
Q 1375 441 1709 441 
Q 2250 441 2565 725 
Q 2881 1009 2881 1497 
Q 2881 1984 2565 2268 
Q 2250 2553 1709 2553 
Q 1456 2553 1204 2497 
Q 953 2441 691 2322 
L 691 4666 
z
" transform="scale(0.015625)"/>
       </defs>
       <use xlink:href="#DejaVuSans-35"/>
       <use xlink:href="#DejaVuSans-30" x="63.623047"/>
      </g>
     </g>
    </g>
    <g id="xtick_3">
     <g id="line2d_5">
      <path d="M 208.388771 304.44375 
L 208.388771 25.918125 
" clip-path="url(#p51626bdf8f)" style="fill: none; stroke: #b0b0b0; stroke-width: 0.8; stroke-linecap: square"/>
     </g>
     <g id="line2d_6">
      <g>
       <use xlink:href="#m9647b4fa9c" x="208.388771" y="304.44375" style="stroke: #000000; stroke-width: 0.8"/>
      </g>
     </g>
     <g id="text_3">
      <!-- 100 -->
      <g transform="translate(198.845021 319.042187)scale(0.1 -0.1)">
       <defs>
        <path id="DejaVuSans-31" d="M 794 531 
L 1825 531 
L 1825 4091 
L 703 3866 
L 703 4441 
L 1819 4666 
L 2450 4666 
L 2450 531 
L 3481 531 
L 3481 0 
L 794 0 
L 794 531 
z
" transform="scale(0.015625)"/>
       </defs>
       <use xlink:href="#DejaVuSans-31"/>
       <use xlink:href="#DejaVuSans-30" x="63.623047"/>
       <use xlink:href="#DejaVuSans-30" x="127.246094"/>
      </g>
     </g>
    </g>
    <g id="xtick_4">
     <g id="line2d_7">
      <path d="M 274.222893 304.44375 
L 274.222893 25.918125 
" clip-path="url(#p51626bdf8f)" style="fill: none; stroke: #b0b0b0; stroke-width: 0.8; stroke-linecap: square"/>
     </g>
     <g id="line2d_8">
      <g>
       <use xlink:href="#m9647b4fa9c" x="274.222893" y="304.44375" style="stroke: #000000; stroke-width: 0.8"/>
      </g>
     </g>
     <g id="text_4">
      <!-- 150 -->
      <g transform="translate(264.679143 319.042187)scale(0.1 -0.1)">
       <use xlink:href="#DejaVuSans-31"/>
       <use xlink:href="#DejaVuSans-35" x="63.623047"/>
       <use xlink:href="#DejaVuSans-30" x="127.246094"/>
      </g>
     </g>
    </g>
    <g id="xtick_5">
     <g id="line2d_9">
      <path d="M 340.057015 304.44375 
L 340.057015 25.918125 
" clip-path="url(#p51626bdf8f)" style="fill: none; stroke: #b0b0b0; stroke-width: 0.8; stroke-linecap: square"/>
     </g>
     <g id="line2d_10">
      <g>
       <use xlink:href="#m9647b4fa9c" x="340.057015" y="304.44375" style="stroke: #000000; stroke-width: 0.8"/>
      </g>
     </g>
     <g id="text_5">
      <!-- 200 -->
      <g transform="translate(330.513265 319.042187)scale(0.1 -0.1)">
       <defs>
        <path id="DejaVuSans-32" d="M 1228 531 
L 3431 531 
L 3431 0 
L 469 0 
L 469 531 
Q 828 903 1448 1529 
Q 2069 2156 2228 2338 
Q 2531 2678 2651 2914 
Q 2772 3150 2772 3378 
Q 2772 3750 2511 3984 
Q 2250 4219 1831 4219 
Q 1534 4219 1204 4116 
Q 875 4013 500 3803 
L 500 4441 
Q 881 4594 1212 4672 
Q 1544 4750 1819 4750 
Q 2544 4750 2975 4387 
Q 3406 4025 3406 3419 
Q 3406 3131 3298 2873 
Q 3191 2616 2906 2266 
Q 2828 2175 2409 1742 
Q 1991 1309 1228 531 
z
" transform="scale(0.015625)"/>
       </defs>
       <use xlink:href="#DejaVuSans-32"/>
       <use xlink:href="#DejaVuSans-30" x="63.623047"/>
       <use xlink:href="#DejaVuSans-30" x="127.246094"/>
      </g>
     </g>
    </g>
    <g id="xtick_6">
     <g id="line2d_11">
      <path d="M 405.891138 304.44375 
L 405.891138 25.918125 
" clip-path="url(#p51626bdf8f)" style="fill: none; stroke: #b0b0b0; stroke-width: 0.8; stroke-linecap: square"/>
     </g>
     <g id="line2d_12">
      <g>
       <use xlink:href="#m9647b4fa9c" x="405.891138" y="304.44375" style="stroke: #000000; stroke-width: 0.8"/>
      </g>
     </g>
     <g id="text_6">
      <!-- 250 -->
      <g transform="translate(396.347388 319.042187)scale(0.1 -0.1)">
       <use xlink:href="#DejaVuSans-32"/>
       <use xlink:href="#DejaVuSans-35" x="63.623047"/>
       <use xlink:href="#DejaVuSans-30" x="127.246094"/>
      </g>
     </g>
    </g>
    <g id="text_7">
     <!-- Translational Position [mm] -->
     <g transform="translate(186.495312 332.720312)scale(0.1 -0.1)">
      <defs>
       <path id="DejaVuSans-54" d="M -19 4666 
L 3928 4666 
L 3928 4134 
L 2272 4134 
L 2272 0 
L 1638 0 
L 1638 4134 
L -19 4134 
L -19 4666 
z
" transform="scale(0.015625)"/>
       <path id="DejaVuSans-72" d="M 2631 2963 
Q 2534 3019 2420 3045 
Q 2306 3072 2169 3072 
Q 1681 3072 1420 2755 
Q 1159 2438 1159 1844 
L 1159 0 
L 581 0 
L 581 3500 
L 1159 3500 
L 1159 2956 
Q 1341 3275 1631 3429 
Q 1922 3584 2338 3584 
Q 2397 3584 2469 3576 
Q 2541 3569 2628 3553 
L 2631 2963 
z
" transform="scale(0.015625)"/>
       <path id="DejaVuSans-61" d="M 2194 1759 
Q 1497 1759 1228 1600 
Q 959 1441 959 1056 
Q 959 750 1161 570 
Q 1363 391 1709 391 
Q 2188 391 2477 730 
Q 2766 1069 2766 1631 
L 2766 1759 
L 2194 1759 
z
M 3341 1997 
L 3341 0 
L 2766 0 
L 2766 531 
Q 2569 213 2275 61 
Q 1981 -91 1556 -91 
Q 1019 -91 701 211 
Q 384 513 384 1019 
Q 384 1609 779 1909 
Q 1175 2209 1959 2209 
L 2766 2209 
L 2766 2266 
Q 2766 2663 2505 2880 
Q 2244 3097 1772 3097 
Q 1472 3097 1187 3025 
Q 903 2953 641 2809 
L 641 3341 
Q 956 3463 1253 3523 
Q 1550 3584 1831 3584 
Q 2591 3584 2966 3190 
Q 3341 2797 3341 1997 
z
" transform="scale(0.015625)"/>
       <path id="DejaVuSans-6e" d="M 3513 2113 
L 3513 0 
L 2938 0 
L 2938 2094 
Q 2938 2591 2744 2837 
Q 2550 3084 2163 3084 
Q 1697 3084 1428 2787 
Q 1159 2491 1159 1978 
L 1159 0 
L 581 0 
L 581 3500 
L 1159 3500 
L 1159 2956 
Q 1366 3272 1645 3428 
Q 1925 3584 2291 3584 
Q 2894 3584 3203 3211 
Q 3513 2838 3513 2113 
z
" transform="scale(0.015625)"/>
       <path id="DejaVuSans-73" d="M 2834 3397 
L 2834 2853 
Q 2591 2978 2328 3040 
Q 2066 3103 1784 3103 
Q 1356 3103 1142 2972 
Q 928 2841 928 2578 
Q 928 2378 1081 2264 
Q 1234 2150 1697 2047 
L 1894 2003 
Q 2506 1872 2764 1633 
Q 3022 1394 3022 966 
Q 3022 478 2636 193 
Q 2250 -91 1575 -91 
Q 1294 -91 989 -36 
Q 684 19 347 128 
L 347 722 
Q 666 556 975 473 
Q 1284 391 1588 391 
Q 1994 391 2212 530 
Q 2431 669 2431 922 
Q 2431 1156 2273 1281 
Q 2116 1406 1581 1522 
L 1381 1569 
Q 847 1681 609 1914 
Q 372 2147 372 2553 
Q 372 3047 722 3315 
Q 1072 3584 1716 3584 
Q 2034 3584 2315 3537 
Q 2597 3491 2834 3397 
z
" transform="scale(0.015625)"/>
       <path id="DejaVuSans-6c" d="M 603 4863 
L 1178 4863 
L 1178 0 
L 603 0 
L 603 4863 
z
" transform="scale(0.015625)"/>
       <path id="DejaVuSans-74" d="M 1172 4494 
L 1172 3500 
L 2356 3500 
L 2356 3053 
L 1172 3053 
L 1172 1153 
Q 1172 725 1289 603 
Q 1406 481 1766 481 
L 2356 481 
L 2356 0 
L 1766 0 
Q 1100 0 847 248 
Q 594 497 594 1153 
L 594 3053 
L 172 3053 
L 172 3500 
L 594 3500 
L 594 4494 
L 1172 4494 
z
" transform="scale(0.015625)"/>
       <path id="DejaVuSans-69" d="M 603 3500 
L 1178 3500 
L 1178 0 
L 603 0 
L 603 3500 
z
M 603 4863 
L 1178 4863 
L 1178 4134 
L 603 4134 
L 603 4863 
z
" transform="scale(0.015625)"/>
       <path id="DejaVuSans-6f" d="M 1959 3097 
Q 1497 3097 1228 2736 
Q 959 2375 959 1747 
Q 959 1119 1226 758 
Q 1494 397 1959 397 
Q 2419 397 2687 759 
Q 2956 1122 2956 1747 
Q 2956 2369 2687 2733 
Q 2419 3097 1959 3097 
z
M 1959 3584 
Q 2709 3584 3137 3096 
Q 3566 2609 3566 1747 
Q 3566 888 3137 398 
Q 2709 -91 1959 -91 
Q 1206 -91 779 398 
Q 353 888 353 1747 
Q 353 2609 779 3096 
Q 1206 3584 1959 3584 
z
" transform="scale(0.015625)"/>
       <path id="DejaVuSans-20" transform="scale(0.015625)"/>
       <path id="DejaVuSans-50" d="M 1259 4147 
L 1259 2394 
L 2053 2394 
Q 2494 2394 2734 2622 
Q 2975 2850 2975 3272 
Q 2975 3691 2734 3919 
Q 2494 4147 2053 4147 
L 1259 4147 
z
M 628 4666 
L 2053 4666 
Q 2838 4666 3239 4311 
Q 3641 3956 3641 3272 
Q 3641 2581 3239 2228 
Q 2838 1875 2053 1875 
L 1259 1875 
L 1259 0 
L 628 0 
L 628 4666 
z
" transform="scale(0.015625)"/>
       <path id="DejaVuSans-5b" d="M 550 4863 
L 1875 4863 
L 1875 4416 
L 1125 4416 
L 1125 -397 
L 1875 -397 
L 1875 -844 
L 550 -844 
L 550 4863 
z
" transform="scale(0.015625)"/>
       <path id="DejaVuSans-6d" d="M 3328 2828 
Q 3544 3216 3844 3400 
Q 4144 3584 4550 3584 
Q 5097 3584 5394 3201 
Q 5691 2819 5691 2113 
L 5691 0 
L 5113 0 
L 5113 2094 
Q 5113 2597 4934 2840 
Q 4756 3084 4391 3084 
Q 3944 3084 3684 2787 
Q 3425 2491 3425 1978 
L 3425 0 
L 2847 0 
L 2847 2094 
Q 2847 2600 2669 2842 
Q 2491 3084 2119 3084 
Q 1678 3084 1418 2786 
Q 1159 2488 1159 1978 
L 1159 0 
L 581 0 
L 581 3500 
L 1159 3500 
L 1159 2956 
Q 1356 3278 1631 3431 
Q 1906 3584 2284 3584 
Q 2666 3584 2933 3390 
Q 3200 3197 3328 2828 
z
" transform="scale(0.015625)"/>
       <path id="DejaVuSans-5d" d="M 1947 4863 
L 1947 -844 
L 622 -844 
L 622 -397 
L 1369 -397 
L 1369 4416 
L 622 4416 
L 622 4863 
L 1947 4863 
z
" transform="scale(0.015625)"/>
      </defs>
      <use xlink:href="#DejaVuSans-54"/>
      <use xlink:href="#DejaVuSans-72" x="46.333984"/>
      <use xlink:href="#DejaVuSans-61" x="87.447266"/>
      <use xlink:href="#DejaVuSans-6e" x="148.726562"/>
      <use xlink:href="#DejaVuSans-73" x="212.105469"/>
      <use xlink:href="#DejaVuSans-6c" x="264.205078"/>
      <use xlink:href="#DejaVuSans-61" x="291.988281"/>
      <use xlink:href="#DejaVuSans-74" x="353.267578"/>
      <use xlink:href="#DejaVuSans-69" x="392.476562"/>
      <use xlink:href="#DejaVuSans-6f" x="420.259766"/>
      <use xlink:href="#DejaVuSans-6e" x="481.441406"/>
      <use xlink:href="#DejaVuSans-61" x="544.820312"/>
      <use xlink:href="#DejaVuSans-6c" x="606.099609"/>
      <use xlink:href="#DejaVuSans-20" x="633.882812"/>
      <use xlink:href="#DejaVuSans-50" x="665.669922"/>
      <use xlink:href="#DejaVuSans-6f" x="722.347656"/>
      <use xlink:href="#DejaVuSans-73" x="783.529297"/>
      <use xlink:href="#DejaVuSans-69" x="835.628906"/>
      <use xlink:href="#DejaVuSans-74" x="863.412109"/>
      <use xlink:href="#DejaVuSans-69" x="902.621094"/>
      <use xlink:href="#DejaVuSans-6f" x="930.404297"/>
      <use xlink:href="#DejaVuSans-6e" x="991.585938"/>
      <use xlink:href="#DejaVuSans-20" x="1054.964844"/>
      <use xlink:href="#DejaVuSans-5b" x="1086.751953"/>
      <use xlink:href="#DejaVuSans-6d" x="1125.765625"/>
      <use xlink:href="#DejaVuSans-6d" x="1223.177734"/>
      <use xlink:href="#DejaVuSans-5d" x="1320.589844"/>
     </g>
    </g>
   </g>
   <g id="matplotlib.axis_2">
    <g id="ytick_1">
     <g id="line2d_13">
      <path d="M 58.945313 281.105294 
L 450 281.105294 
" clip-path="url(#p51626bdf8f)" style="fill: none; stroke: #b0b0b0; stroke-width: 0.8; stroke-linecap: square"/>
     </g>
     <g id="line2d_14">
      <defs>
       <path id="m70475b98dd" d="M 0 0 
L -3.5 0 
" style="stroke: #000000; stroke-width: 0.8"/>
      </defs>
      <g>
       <use xlink:href="#m70475b98dd" x="58.945313" y="281.105294" style="stroke: #000000; stroke-width: 0.8"/>
      </g>
     </g>
     <g id="text_8">
      <!-- −100 -->
      <g transform="translate(24.478125 284.904513)scale(0.1 -0.1)">
       <defs>
        <path id="DejaVuSans-2212" d="M 678 2272 
L 4684 2272 
L 4684 1741 
L 678 1741 
L 678 2272 
z
" transform="scale(0.015625)"/>
       </defs>
       <use xlink:href="#DejaVuSans-2212"/>
       <use xlink:href="#DejaVuSans-31" x="83.789062"/>
       <use xlink:href="#DejaVuSans-30" x="147.412109"/>
       <use xlink:href="#DejaVuSans-30" x="211.035156"/>
      </g>
     </g>
    </g>
    <g id="ytick_2">
     <g id="line2d_15">
      <path d="M 58.945313 235.666145 
L 450 235.666145 
" clip-path="url(#p51626bdf8f)" style="fill: none; stroke: #b0b0b0; stroke-width: 0.8; stroke-linecap: square"/>
     </g>
     <g id="line2d_16">
      <g>
       <use xlink:href="#m70475b98dd" x="58.945313" y="235.666145" style="stroke: #000000; stroke-width: 0.8"/>
      </g>
     </g>
     <g id="text_9">
      <!-- −80 -->
      <g transform="translate(30.840625 239.465364)scale(0.1 -0.1)">
       <defs>
        <path id="DejaVuSans-38" d="M 2034 2216 
Q 1584 2216 1326 1975 
Q 1069 1734 1069 1313 
Q 1069 891 1326 650 
Q 1584 409 2034 409 
Q 2484 409 2743 651 
Q 3003 894 3003 1313 
Q 3003 1734 2745 1975 
Q 2488 2216 2034 2216 
z
M 1403 2484 
Q 997 2584 770 2862 
Q 544 3141 544 3541 
Q 544 4100 942 4425 
Q 1341 4750 2034 4750 
Q 2731 4750 3128 4425 
Q 3525 4100 3525 3541 
Q 3525 3141 3298 2862 
Q 3072 2584 2669 2484 
Q 3125 2378 3379 2068 
Q 3634 1759 3634 1313 
Q 3634 634 3220 271 
Q 2806 -91 2034 -91 
Q 1263 -91 848 271 
Q 434 634 434 1313 
Q 434 1759 690 2068 
Q 947 2378 1403 2484 
z
M 1172 3481 
Q 1172 3119 1398 2916 
Q 1625 2713 2034 2713 
Q 2441 2713 2670 2916 
Q 2900 3119 2900 3481 
Q 2900 3844 2670 4047 
Q 2441 4250 2034 4250 
Q 1625 4250 1398 4047 
Q 1172 3844 1172 3481 
z
" transform="scale(0.015625)"/>
       </defs>
       <use xlink:href="#DejaVuSans-2212"/>
       <use xlink:href="#DejaVuSans-38" x="83.789062"/>
       <use xlink:href="#DejaVuSans-30" x="147.412109"/>
      </g>
     </g>
    </g>
    <g id="ytick_3">
     <g id="line2d_17">
      <path d="M 58.945313 190.226996 
L 450 190.226996 
" clip-path="url(#p51626bdf8f)" style="fill: none; stroke: #b0b0b0; stroke-width: 0.8; stroke-linecap: square"/>
     </g>
     <g id="line2d_18">
      <g>
       <use xlink:href="#m70475b98dd" x="58.945313" y="190.226996" style="stroke: #000000; stroke-width: 0.8"/>
      </g>
     </g>
     <g id="text_10">
      <!-- −60 -->
      <g transform="translate(30.840625 194.026215)scale(0.1 -0.1)">
       <defs>
        <path id="DejaVuSans-36" d="M 2113 2584 
Q 1688 2584 1439 2293 
Q 1191 2003 1191 1497 
Q 1191 994 1439 701 
Q 1688 409 2113 409 
Q 2538 409 2786 701 
Q 3034 994 3034 1497 
Q 3034 2003 2786 2293 
Q 2538 2584 2113 2584 
z
M 3366 4563 
L 3366 3988 
Q 3128 4100 2886 4159 
Q 2644 4219 2406 4219 
Q 1781 4219 1451 3797 
Q 1122 3375 1075 2522 
Q 1259 2794 1537 2939 
Q 1816 3084 2150 3084 
Q 2853 3084 3261 2657 
Q 3669 2231 3669 1497 
Q 3669 778 3244 343 
Q 2819 -91 2113 -91 
Q 1303 -91 875 529 
Q 447 1150 447 2328 
Q 447 3434 972 4092 
Q 1497 4750 2381 4750 
Q 2619 4750 2861 4703 
Q 3103 4656 3366 4563 
z
" transform="scale(0.015625)"/>
       </defs>
       <use xlink:href="#DejaVuSans-2212"/>
       <use xlink:href="#DejaVuSans-36" x="83.789062"/>
       <use xlink:href="#DejaVuSans-30" x="147.412109"/>
      </g>
     </g>
    </g>
    <g id="ytick_4">
     <g id="line2d_19">
      <path d="M 58.945313 144.787847 
L 450 144.787847 
" clip-path="url(#p51626bdf8f)" style="fill: none; stroke: #b0b0b0; stroke-width: 0.8; stroke-linecap: square"/>
     </g>
     <g id="line2d_20">
      <g>
       <use xlink:href="#m70475b98dd" x="58.945313" y="144.787847" style="stroke: #000000; stroke-width: 0.8"/>
      </g>
     </g>
     <g id="text_11">
      <!-- −40 -->
      <g transform="translate(30.840625 148.587066)scale(0.1 -0.1)">
       <defs>
        <path id="DejaVuSans-34" d="M 2419 4116 
L 825 1625 
L 2419 1625 
L 2419 4116 
z
M 2253 4666 
L 3047 4666 
L 3047 1625 
L 3713 1625 
L 3713 1100 
L 3047 1100 
L 3047 0 
L 2419 0 
L 2419 1100 
L 313 1100 
L 313 1709 
L 2253 4666 
z
" transform="scale(0.015625)"/>
       </defs>
       <use xlink:href="#DejaVuSans-2212"/>
       <use xlink:href="#DejaVuSans-34" x="83.789062"/>
       <use xlink:href="#DejaVuSans-30" x="147.412109"/>
      </g>
     </g>
    </g>
    <g id="ytick_5">
     <g id="line2d_21">
      <path d="M 58.945313 99.348698 
L 450 99.348698 
" clip-path="url(#p51626bdf8f)" style="fill: none; stroke: #b0b0b0; stroke-width: 0.8; stroke-linecap: square"/>
     </g>
     <g id="line2d_22">
      <g>
       <use xlink:href="#m70475b98dd" x="58.945313" y="99.348698" style="stroke: #000000; stroke-width: 0.8"/>
      </g>
     </g>
     <g id="text_12">
      <!-- −20 -->
      <g transform="translate(30.840625 103.147917)scale(0.1 -0.1)">
       <use xlink:href="#DejaVuSans-2212"/>
       <use xlink:href="#DejaVuSans-32" x="83.789062"/>
       <use xlink:href="#DejaVuSans-30" x="147.412109"/>
      </g>
     </g>
    </g>
    <g id="ytick_6">
     <g id="line2d_23">
      <path d="M 58.945313 53.90955 
L 450 53.90955 
" clip-path="url(#p51626bdf8f)" style="fill: none; stroke: #b0b0b0; stroke-width: 0.8; stroke-linecap: square"/>
     </g>
     <g id="line2d_24">
      <g>
       <use xlink:href="#m70475b98dd" x="58.945313" y="53.90955" style="stroke: #000000; stroke-width: 0.8"/>
      </g>
     </g>
     <g id="text_13">
      <!-- 0 -->
      <g transform="translate(45.582813 57.708768)scale(0.1 -0.1)">
       <use xlink:href="#DejaVuSans-30"/>
      </g>
     </g>
    </g>
    <g id="text_14">
     <!-- Wall Distance [mm] -->
     <g transform="translate(18.398438 214.330937)rotate(-90)scale(0.1 -0.1)">
      <defs>
       <path id="DejaVuSans-57" d="M 213 4666 
L 850 4666 
L 1831 722 
L 2809 4666 
L 3519 4666 
L 4500 722 
L 5478 4666 
L 6119 4666 
L 4947 0 
L 4153 0 
L 3169 4050 
L 2175 0 
L 1381 0 
L 213 4666 
z
" transform="scale(0.015625)"/>
       <path id="DejaVuSans-44" d="M 1259 4147 
L 1259 519 
L 2022 519 
Q 2988 519 3436 956 
Q 3884 1394 3884 2338 
Q 3884 3275 3436 3711 
Q 2988 4147 2022 4147 
L 1259 4147 
z
M 628 4666 
L 1925 4666 
Q 3281 4666 3915 4102 
Q 4550 3538 4550 2338 
Q 4550 1131 3912 565 
Q 3275 0 1925 0 
L 628 0 
L 628 4666 
z
" transform="scale(0.015625)"/>
       <path id="DejaVuSans-63" d="M 3122 3366 
L 3122 2828 
Q 2878 2963 2633 3030 
Q 2388 3097 2138 3097 
Q 1578 3097 1268 2742 
Q 959 2388 959 1747 
Q 959 1106 1268 751 
Q 1578 397 2138 397 
Q 2388 397 2633 464 
Q 2878 531 3122 666 
L 3122 134 
Q 2881 22 2623 -34 
Q 2366 -91 2075 -91 
Q 1284 -91 818 406 
Q 353 903 353 1747 
Q 353 2603 823 3093 
Q 1294 3584 2113 3584 
Q 2378 3584 2631 3529 
Q 2884 3475 3122 3366 
z
" transform="scale(0.015625)"/>
       <path id="DejaVuSans-65" d="M 3597 1894 
L 3597 1613 
L 953 1613 
Q 991 1019 1311 708 
Q 1631 397 2203 397 
Q 2534 397 2845 478 
Q 3156 559 3463 722 
L 3463 178 
Q 3153 47 2828 -22 
Q 2503 -91 2169 -91 
Q 1331 -91 842 396 
Q 353 884 353 1716 
Q 353 2575 817 3079 
Q 1281 3584 2069 3584 
Q 2775 3584 3186 3129 
Q 3597 2675 3597 1894 
z
M 3022 2063 
Q 3016 2534 2758 2815 
Q 2500 3097 2075 3097 
Q 1594 3097 1305 2825 
Q 1016 2553 972 2059 
L 3022 2063 
z
" transform="scale(0.015625)"/>
      </defs>
      <use xlink:href="#DejaVuSans-57"/>
      <use xlink:href="#DejaVuSans-61" x="92.501953"/>
      <use xlink:href="#DejaVuSans-6c" x="153.78125"/>
      <use xlink:href="#DejaVuSans-6c" x="181.564453"/>
      <use xlink:href="#DejaVuSans-20" x="209.347656"/>
      <use xlink:href="#DejaVuSans-44" x="241.134766"/>
      <use xlink:href="#DejaVuSans-69" x="318.136719"/>
      <use xlink:href="#DejaVuSans-73" x="345.919922"/>
      <use xlink:href="#DejaVuSans-74" x="398.019531"/>
      <use xlink:href="#DejaVuSans-61" x="437.228516"/>
      <use xlink:href="#DejaVuSans-6e" x="498.507812"/>
      <use xlink:href="#DejaVuSans-63" x="561.886719"/>
      <use xlink:href="#DejaVuSans-65" x="616.867188"/>
      <use xlink:href="#DejaVuSans-20" x="678.390625"/>
      <use xlink:href="#DejaVuSans-5b" x="710.177734"/>
      <use xlink:href="#DejaVuSans-6d" x="749.191406"/>
      <use xlink:href="#DejaVuSans-6d" x="846.603516"/>
      <use xlink:href="#DejaVuSans-5d" x="944.015625"/>
     </g>
    </g>
   </g>
   <g id="line2d_25">
    <path d="M 76.720526 50.004055 
L 76.727109 49.926808 
L 76.836236 49.808666 
L 77.027708 49.888185 
L 77.208225 50.004055 
L 77.543452 49.926808 
L 78.005081 49.808666 
L 78.446696 49.888185 
L 78.79035 49.888185 
L 80.089916 50.238066 
L 82.143941 51.278623 
L 82.836516 51.81276 
L 83.577808 52.230573 
L 84.365184 52.739491 
L 85.201277 53.170709 
L 86.083454 53.608288 
L 88.49825 54.731544 
L 90.084852 55.10051 
L 91.204033 55.333158 
L 92.37588 55.37996 
L 94.206068 55.193433 
L 96.128425 54.961466 
L 97.458274 54.777437 
L 100.223307 54.458 
L 101.645324 54.367349 
L 111.441442 53.829531 
L 113.008294 53.829531 
L 114.575146 53.918508 
L 116.945174 53.9631 
L 120.105212 53.873971 
L 122.475241 53.785137 
L 126.425288 54.052456 
L 128.005307 54.412788 
L 130.375335 55.568078 
L 131.955354 56.624539 
L 133.535373 58.126303 
L 135.115392 60.150617 
L 135.905402 61.502431 
L 136.695411 63.104161 
L 137.485421 65.12166 
L 138.27543 67.573102 
L 139.06544 70.401689 
L 139.855449 73.884599 
L 140.645458 78.037738 
L 141.435468 82.990605 
L 142.225477 89.12489 
L 143.805496 105.573862 
L 144.595506 116.070305 
L 145.385515 128.316156 
L 146.175525 144.447054 
L 146.965534 166.780396 
L 148.545553 244.163266 
L 237.092448 244.163266 
L 237.882457 223.829247 
L 238.672467 191.63561 
L 239.462476 166.780396 
L 241.042495 139.107954 
L 241.832505 127.225616 
L 243.412524 109.140835 
L 244.992543 96.872265 
L 245.782552 87.53452 
L 246.572562 87.53452 
L 248.15258 80.03706 
L 249.732599 74.239025 
L 251.312618 69.404299 
L 253.550979 64.221964 
L 255.921007 60.93217 
L 256.711016 60.93217 
L 257.501026 60.427795 
L 259.081045 59.766656 
L 260.661064 59.334984 
L 262.241083 58.962383 
L 264.611111 58.646581 
L 270.141177 59.334984 
L 271.721196 59.173675 
L 275.671244 58.333051 
L 279.621291 58.803346 
L 281.991319 58.698836 
L 285.941367 58.178558 
L 289.101405 58.855601 
L 289.891414 59.069165 
L 291.471433 59.12142 
L 294.631471 58.803346 
L 295.42148 58.698836 
L 297.001499 59.014638 
L 300.951547 59.984764 
L 301.741556 60.093818 
L 304.111585 59.712129 
L 306.481613 59.496293 
L 309.641651 60.31647 
L 312.011679 60.370997 
L 314.381708 59.766656 
L 315.961727 59.766656 
L 318.331755 60.482322 
L 319.121765 60.707246 
L 320.701783 60.650447 
L 322.281802 60.31647 
L 323.071812 59.984764 
L 324.651831 59.712129 
L 325.44184 59.712129 
L 328.601878 60.650447 
L 330.181897 60.593648 
L 332.551926 59.821183 
L 333.341935 59.55082 
L 334.921954 59.441766 
L 338.081992 60.31647 
L 339.662011 60.370997 
L 341.24203 59.87571 
L 343.612058 59.496293 
L 344.402068 59.657602 
L 345.982086 60.31647 
L 347.562105 61.102567 
L 349.142124 61.159366 
L 352.302162 60.205144 
L 353.882181 60.370997 
L 356.25221 61.909112 
L 358.622238 62.861062 
L 360.202257 63.042818 
L 360.992266 63.472218 
L 362.572285 64.862656 
L 364.152304 67.43224 
L 364.942314 68.954452 
L 365.732323 70.167677 
L 366.522333 71.680801 
L 368.102352 74.239025 
L 368.892361 75.795316 
L 370.47238 81.036721 
L 371.26239 84.353779 
L 372.052399 89.12489 
L 372.842408 94.827503 
L 374.422427 109.140835 
L 376.792456 137.517584 
L 378.372475 159.419253 
L 379.162484 168.961475 
L 379.952494 173.868903 
L 380.742503 196.97471 
L 381.532513 223.829247 
L 382.322522 244.163266 
L 428.801413 244.163266 
L 429.064749 211.94691 
L 429.72309 179.753273 
L 429.986427 173.868903 
L 430.5131 173.868903 
L 430.908104 187.114415 
L 431.039773 187.114415 
L 431.434777 166.780396 
L 431.434777 166.780396 
L 431.698114 166.780396 
L 431.698114 171.301591 
L 431.829782 179.753273 
L 431.829782 179.753273 
L 431.96145 176.66341 
L 431.96145 162.872629 
L 432.093119 162.872629 
L 432.093119 162.872629 
L 432.093119 171.301591 
L 432.224787 183.206648 
L 432.224787 183.206648 
L 432.224787 153.534884 
L 432.224787 173.868903 
" clip-path="url(#p51626bdf8f)" style="fill: none; stroke: #1f77b4; stroke-width: 1.5; stroke-linecap: square"/>
   </g>
   <g id="line2d_26">
    <path d="M 76.720526 290.647516 
L 351.512153 290.647516 
L 352.302162 270.290777 
L 356.25221 270.290777 
L 357.042219 258.38572 
L 357.832229 243.41352 
L 358.622238 238.07442 
L 359.412247 226.192083 
L 360.202257 220.307713 
L 360.992266 213.241925 
L 362.572285 213.241925 
L 363.362295 215.400285 
L 364.152304 220.307713 
L 364.942314 226.192083 
L 365.732323 217.763121 
L 367.312342 209.311439 
L 368.102352 199.996413 
L 368.892361 192.907906 
L 369.682371 187.228013 
L 371.26239 187.228013 
L 372.052399 192.907906 
L 372.842408 197.429102 
L 373.632418 205.858064 
L 374.422427 201.359588 
L 375.212437 198.678678 
L 376.002446 195.088985 
L 376.792456 186.364669 
L 377.582465 179.003527 
L 378.372475 175.913664 
L 379.952494 175.913664 
L 380.742503 181.025569 
L 381.532513 187.228013 
L 382.322522 197.429102 
L 383.112532 191.885525 
L 383.902541 189.000139 
L 384.692551 182.456902 
L 385.48256 174.209696 
L 386.272569 167.348385 
L 388.642598 167.348385 
L 389.432607 173.119157 
L 390.222617 181.729876 
L 391.012626 192.907906 
L 392.592645 185.546764 
L 393.382655 173.119157 
L 394.172664 164.826512 
L 394.962674 157.715285 
L 395.752683 157.419931 
L 397.332702 157.419931 
L 398.122711 163.645094 
L 398.912721 171.074395 
L 399.70273 181.025569 
L 400.49274 177.117802 
L 401.282749 174.209696 
L 401.941091 162.872629 
L 402.7311 154.443667 
L 403.52111 147.900429 
L 404.311119 147.014366 
L 405.75947 145.946546 
L 407.20782 155.602365 
L 407.866162 162.145602 
L 409.314512 157.419931 
L 409.972854 149.286323 
L 410.631195 142.561329 
L 411.421204 137.563023 
L 412.737887 136.177129 
L 413.396228 135.5637 
L 414.054569 139.017076 
L 414.581242 142.743086 
L 415.239583 141.44807 
L 415.897925 140.562007 
L 416.424598 138.858039 
L 417.609612 129.338537 
L 419.321299 127.475532 
L 420.374645 133.155425 
L 420.901318 132.473838 
L 421.427991 132.087605 
L 421.822996 131.565055 
L 422.744673 123.794961 
L 423.271346 123.29513 
L 424.061356 122.25003 
L 424.851365 127.134738 
L 425.24637 126.47587 
L 426.036379 125.521648 
L 426.694721 119.387363 
L 427.089725 119.04657 
L 427.353062 116.774612 
L 427.748067 116.774612 
L 428.011403 117.41076 
L 428.801413 123.590484 
L 429.064749 123.204252 
L 429.328086 120.341585 
L 429.459754 117.569797 
L 430.249763 114.23002 
L 430.5131 114.23002 
L 430.776436 117.796993 
L 431.039773 117.001808 
L 431.171441 117.092686 
L 431.434777 112.298856 
L 431.698114 112.09438 
L 431.698114 114.025544 
L 431.829782 116.161184 
L 431.829782 115.615914 
L 431.96145 115.184242 
L 431.96145 115.252401 
L 431.96145 112.980443 
L 432.093119 110.413131 
L 432.093119 112.503332 
L 432.224787 114.593533 
L 432.224787 114.298179 
L 432.224787 108.300211 
L 432.224787 112.775967 
" clip-path="url(#p51626bdf8f)" style="fill: none; stroke: #ff7f0e; stroke-width: 1.5; stroke-linecap: square"/>
   </g>
   <g id="line2d_27">
    <path d="M 76.720526 291.783494 
L 366.522333 291.783494 
L 367.312342 271.426756 
L 368.102352 259.544418 
L 368.892361 244.572219 
L 372.052399 244.572219 
L 372.842408 251.115456 
L 373.632418 259.544418 
L 374.422427 239.233119 
L 376.002446 214.377904 
L 377.582465 197.383662 
L 379.952494 197.383662 
L 380.742503 202.495567 
L 382.322522 218.899099 
L 383.112532 210.470137 
L 383.902541 203.9269 
L 384.692551 193.044224 
L 386.272569 178.253781 
L 388.642598 178.253781 
L 389.432607 184.342627 
L 390.222617 193.044224 
L 391.012626 203.9269 
L 391.802636 197.383662 
L 392.592645 193.044224 
L 393.382655 179.503357 
L 394.962674 163.667814 
L 397.332702 163.667814 
L 398.122711 169.370427 
L 398.912721 176.481654 
L 399.70273 185.887558 
L 401.282749 179.503357 
L 401.941091 168.052692 
L 402.7311 159.192058 
L 403.52111 153.17137 
L 404.96946 151.649159 
L 405.75947 151.149328 
L 407.20782 159.828206 
L 407.866162 165.962491 
L 408.656171 164.031327 
L 409.314512 160.827867 
L 409.972854 152.898736 
L 410.631195 146.673572 
L 411.421204 141.720705 
L 413.396228 139.198832 
L 414.054569 141.879742 
L 414.581242 145.242239 
L 415.897925 142.788525 
L 416.424598 141.198155 
L 417.082939 136.290727 
L 417.609612 134.723076 
L 418.267953 134.041489 
L 419.321299 132.587436 
L 419.847972 134.995711 
L 420.374645 137.926536 
L 420.901318 136.858716 
L 421.427991 136.290727 
L 422.349669 128.61151 
L 422.744673 127.634569 
L 424.061356 125.726124 
L 424.851365 129.997404 
L 425.641375 128.520632 
L 426.431384 122.272749 
L 426.694721 121.477564 
L 427.089725 121.045892 
L 427.353062 119.364644 
L 428.011403 119.364644 
L 428.538076 123.29513 
L 428.801413 125.521648 
L 429.72309 115.320559 
L 429.986427 116.252062 
L 430.118095 116.024866 
L 430.249763 115.229681 
L 430.5131 115.229681 
L 430.776436 119.02385 
L 431.039773 118.069628 
L 431.434777 113.048602 
L 431.566446 112.526052 
L 431.698114 112.526052 
L 431.698114 114.320898 
L 431.829782 116.479258 
L 431.829782 116.252062 
L 431.96145 116.024866 
L 431.96145 111.935343 
L 432.093119 111.57183 
L 432.093119 111.435512 
L 432.093119 113.184919 
L 432.224787 115.093364 
L 432.224787 114.684411 
L 432.224787 109.617946 
L 432.224787 113.571152 
" clip-path="url(#p51626bdf8f)" style="fill: none; stroke: #2ca02c; stroke-width: 1.5; stroke-linecap: square"/>
   </g>
   <g id="line2d_28">
    <path d="M 76.720526 56.383711 
L 76.720947 56.383711 
L 76.811535 55.937953 
L 76.936198 56.048597 
L 77.141864 56.495037 
L 77.361355 56.438238 
L 78.142543 55.993162 
L 78.446696 56.048597 
L 79.177455 55.827763 
L 79.845013 55.937953 
L 80.617906 55.882745 
L 81.497449 55.445166 
L 82.836516 54.431418 
L 84.365184 53.65509 
L 85.635782 53.098688 
L 87.014349 52.749942 
L 89.017023 52.454361 
L 90.084852 52.161733 
L 91.204033 51.775954 
L 92.981554 51.301342 
L 95.48325 51.20592 
L 97.458274 51.301342 
L 100.934316 52.258972 
L 103.831017 52.161733 
L 106.069377 51.823893 
L 107.583562 51.871831 
L 109.887756 52.06472 
L 113.008294 52.356439 
L 115.365155 52.749942 
L 118.525193 52.849227 
L 123.26525 52.601811 
L 127.215298 52.948739 
L 129.585326 53.757487 
L 135.115392 55.608519 
L 136.695411 56.665434 
L 137.485421 57.351565 
L 138.27543 58.233085 
L 139.855449 60.466419 
L 140.645458 61.852313 
L 142.225477 65.439734 
L 143.015487 67.577646 
L 143.805496 70.149501 
L 144.595506 73.168933 
L 145.385515 76.879039 
L 146.965534 86.693896 
L 147.755544 92.987218 
L 148.545553 100.530116 
L 149.335563 109.640666 
L 150.125572 120.341585 
L 151.705591 149.263604 
L 152.495601 167.05303 
L 153.28561 199.246667 
L 154.075619 239.891986 
L 244.202533 239.891986 
L 244.992543 219.580687 
L 245.782552 175.481993 
L 246.572562 175.481993 
L 248.15258 145.514874 
L 248.94259 133.246304 
L 249.732599 124.044876 
L 251.312618 108.959078 
L 252.892637 97.64473 
L 253.550979 92.805461 
L 254.340988 88.988573 
L 255.921007 83.126922 
L 256.711016 80.718647 
L 257.501026 78.855642 
L 259.081045 76.204268 
L 259.871054 75.44089 
L 260.661064 75.120544 
L 261.451073 75.227326 
L 262.241083 76.204268 
L 263.031092 77.674224 
L 263.821102 79.968901 
L 264.611111 83.126922 
L 265.401121 88.306985 
L 266.19113 95.00926 
L 266.98114 102.892952 
L 267.771149 112.548771 
L 268.561158 124.044876 
L 269.351168 139.221552 
L 270.141177 160.509793 
L 271.721196 239.891986 
L 364.942314 239.891986 
L 365.732323 182.843135 
L 366.522333 158.601349 
L 367.312342 141.175435 
L 368.102352 127.02114 
L 368.892361 115.343279 
L 369.682371 106.687121 
L 371.26239 92.214752 
L 372.842408 81.10488 
L 375.212437 66.927866 
L 376.792456 59.082797 
L 377.582465 55.882745 
L 378.372475 53.400858 
L 379.162484 51.442204 
L 379.952494 49.829114 
L 380.742503 48.904427 
L 381.532513 48.216024 
L 386.272569 45.42606 
L 387.062579 45.271567 
L 388.642598 45.196593 
L 391.012626 45.814565 
L 392.592645 45.42606 
L 394.172664 44.440031 
L 394.962674 43.885673 
L 396.542693 43.558511 
L 397.332702 43.485809 
L 399.70273 44.365056 
L 401.282749 44.106053 
L 403.52111 42.701983 
L 405.75947 42.388453 
L 407.866162 43.306324 
L 409.314512 43.163191 
L 411.421204 41.463767 
L 413.396228 41.195676 
L 414.054569 41.463767 
L 414.581242 41.836368 
L 416.424598 41.597812 
L 417.609612 40.534536 
L 419.321299 40.568615 
L 420.374645 41.768209 
L 421.822996 41.566005 
L 422.349669 40.995743 
L 422.744673 40.373227 
L 423.666351 40.275533 
L 424.061356 40.048337 
L 424.851365 41.127517 
L 425.24637 41.195676 
L 426.036379 41.06163 
L 426.431384 40.468649 
L 426.694721 39.857493 
L 427.089725 39.857493 
L 427.353062 39.478076 
L 427.748067 39.478076 
L 428.27474 40.373227 
L 428.801413 41.497846 
L 429.064749 41.395608 
L 429.986427 39.039588 
L 430.5131 39.164546 
L 430.908104 40.732196 
L 431.171441 40.764004 
L 431.434777 39.350846 
L 431.434777 39.414461 
L 431.698114 39.289503 
L 431.698114 39.984722 
L 431.829782 40.764004 
L 431.829782 40.732196 
L 431.96145 40.698117 
L 431.96145 40.698117 
L 431.96145 39.952915 
L 432.093119 39.164546 
L 432.093119 39.857493 
L 432.224787 40.534536 
L 432.224787 40.405034 
L 432.224787 38.578381 
L 432.224787 40.600423 
L 432.224787 40.468649 
" clip-path="url(#p51626bdf8f)" style="fill: none; stroke: #d62728; stroke-width: 1.5; stroke-linecap: square"/>
   </g>
   <g id="patch_3">
    <path d="M 58.945313 304.44375 
L 58.945313 25.918125 
" style="fill: none; stroke: #000000; stroke-width: 0.8; stroke-linejoin: miter; stroke-linecap: square"/>
   </g>
   <g id="patch_4">
    <path d="M 450 304.44375 
L 450 25.918125 
" style="fill: none; stroke: #000000; stroke-width: 0.8; stroke-linejoin: miter; stroke-linecap: square"/>
   </g>
   <g id="patch_5">
    <path d="M 58.945313 304.44375 
L 450 304.44375 
" style="fill: none; stroke: #000000; stroke-width: 0.8; stroke-linejoin: miter; stroke-linecap: square"/>
   </g>
   <g id="patch_6">
    <path d="M 58.945313 25.918125 
L 450 25.918125 
" style="fill: none; stroke: #000000; stroke-width: 0.8; stroke-linejoin: miter; stroke-linecap: square"/>
   </g>
   <g id="text_15">
    <!-- Wall Distance [mm] -->
    <g transform="translate(195.492656 19.918125)scale(0.12 -0.12)">
     <use xlink:href="#DejaVuSans-57"/>
     <use xlink:href="#DejaVuSans-61" x="92.501953"/>
     <use xlink:href="#DejaVuSans-6c" x="153.78125"/>
     <use xlink:href="#DejaVuSans-6c" x="181.564453"/>
     <use xlink:href="#DejaVuSans-20" x="209.347656"/>
     <use xlink:href="#DejaVuSans-44" x="241.134766"/>
     <use xlink:href="#DejaVuSans-69" x="318.136719"/>
     <use xlink:href="#DejaVuSans-73" x="345.919922"/>
     <use xlink:href="#DejaVuSans-74" x="398.019531"/>
     <use xlink:href="#DejaVuSans-61" x="437.228516"/>
     <use xlink:href="#DejaVuSans-6e" x="498.507812"/>
     <use xlink:href="#DejaVuSans-63" x="561.886719"/>
     <use xlink:href="#DejaVuSans-65" x="616.867188"/>
     <use xlink:href="#DejaVuSans-20" x="678.390625"/>
     <use xlink:href="#DejaVuSans-5b" x="710.177734"/>
     <use xlink:href="#DejaVuSans-6d" x="749.191406"/>
     <use xlink:href="#DejaVuSans-6d" x="846.603516"/>
     <use xlink:href="#DejaVuSans-5d" x="944.015625"/>
    </g>
   </g>
   <g id="legend_1">
    <g id="patch_7">
     <path d="M 65.945312 196.037187 
L 152.745313 196.037187 
Q 154.745313 196.037187 154.745313 194.037187 
L 154.745313 136.324687 
Q 154.745313 134.324687 152.745313 134.324687 
L 65.945312 134.324687 
Q 63.945312 134.324687 63.945312 136.324687 
L 63.945312 194.037187 
Q 63.945312 196.037187 65.945312 196.037187 
z
" style="fill: #ffffff; opacity: 0.8; stroke: #cccccc; stroke-linejoin: miter"/>
    </g>
    <g id="line2d_29">
     <path d="M 67.945312 142.423125 
L 77.945312 142.423125 
L 87.945312 142.423125 
" style="fill: none; stroke: #1f77b4; stroke-width: 1.5; stroke-linecap: square"/>
    </g>
    <g id="text_16">
     <!-- Left Side -->
     <g transform="translate(95.945312 145.923125)scale(0.1 -0.1)">
      <defs>
       <path id="DejaVuSans-4c" d="M 628 4666 
L 1259 4666 
L 1259 531 
L 3531 531 
L 3531 0 
L 628 0 
L 628 4666 
z
" transform="scale(0.015625)"/>
       <path id="DejaVuSans-66" d="M 2375 4863 
L 2375 4384 
L 1825 4384 
Q 1516 4384 1395 4259 
Q 1275 4134 1275 3809 
L 1275 3500 
L 2222 3500 
L 2222 3053 
L 1275 3053 
L 1275 0 
L 697 0 
L 697 3053 
L 147 3053 
L 147 3500 
L 697 3500 
L 697 3744 
Q 697 4328 969 4595 
Q 1241 4863 1831 4863 
L 2375 4863 
z
" transform="scale(0.015625)"/>
       <path id="DejaVuSans-53" d="M 3425 4513 
L 3425 3897 
Q 3066 4069 2747 4153 
Q 2428 4238 2131 4238 
Q 1616 4238 1336 4038 
Q 1056 3838 1056 3469 
Q 1056 3159 1242 3001 
Q 1428 2844 1947 2747 
L 2328 2669 
Q 3034 2534 3370 2195 
Q 3706 1856 3706 1288 
Q 3706 609 3251 259 
Q 2797 -91 1919 -91 
Q 1588 -91 1214 -16 
Q 841 59 441 206 
L 441 856 
Q 825 641 1194 531 
Q 1563 422 1919 422 
Q 2459 422 2753 634 
Q 3047 847 3047 1241 
Q 3047 1584 2836 1778 
Q 2625 1972 2144 2069 
L 1759 2144 
Q 1053 2284 737 2584 
Q 422 2884 422 3419 
Q 422 4038 858 4394 
Q 1294 4750 2059 4750 
Q 2388 4750 2728 4690 
Q 3069 4631 3425 4513 
z
" transform="scale(0.015625)"/>
       <path id="DejaVuSans-64" d="M 2906 2969 
L 2906 4863 
L 3481 4863 
L 3481 0 
L 2906 0 
L 2906 525 
Q 2725 213 2448 61 
Q 2172 -91 1784 -91 
Q 1150 -91 751 415 
Q 353 922 353 1747 
Q 353 2572 751 3078 
Q 1150 3584 1784 3584 
Q 2172 3584 2448 3432 
Q 2725 3281 2906 2969 
z
M 947 1747 
Q 947 1113 1208 752 
Q 1469 391 1925 391 
Q 2381 391 2643 752 
Q 2906 1113 2906 1747 
Q 2906 2381 2643 2742 
Q 2381 3103 1925 3103 
Q 1469 3103 1208 2742 
Q 947 2381 947 1747 
z
" transform="scale(0.015625)"/>
      </defs>
      <use xlink:href="#DejaVuSans-4c"/>
      <use xlink:href="#DejaVuSans-65" x="53.962891"/>
      <use xlink:href="#DejaVuSans-66" x="115.486328"/>
      <use xlink:href="#DejaVuSans-74" x="148.941406"/>
      <use xlink:href="#DejaVuSans-20" x="188.150391"/>
      <use xlink:href="#DejaVuSans-53" x="219.9375"/>
      <use xlink:href="#DejaVuSans-69" x="283.414062"/>
      <use xlink:href="#DejaVuSans-64" x="311.197266"/>
      <use xlink:href="#DejaVuSans-65" x="374.673828"/>
     </g>
    </g>
    <g id="line2d_30">
     <path d="M 67.945312 157.10125 
L 77.945312 157.10125 
L 87.945312 157.10125 
" style="fill: none; stroke: #ff7f0e; stroke-width: 1.5; stroke-linecap: square"/>
    </g>
    <g id="text_17">
     <!-- Left Front -->
     <g transform="translate(95.945312 160.60125)scale(0.1 -0.1)">
      <defs>
       <path id="DejaVuSans-46" d="M 628 4666 
L 3309 4666 
L 3309 4134 
L 1259 4134 
L 1259 2759 
L 3109 2759 
L 3109 2228 
L 1259 2228 
L 1259 0 
L 628 0 
L 628 4666 
z
" transform="scale(0.015625)"/>
      </defs>
      <use xlink:href="#DejaVuSans-4c"/>
      <use xlink:href="#DejaVuSans-65" x="53.962891"/>
      <use xlink:href="#DejaVuSans-66" x="115.486328"/>
      <use xlink:href="#DejaVuSans-74" x="148.941406"/>
      <use xlink:href="#DejaVuSans-20" x="188.150391"/>
      <use xlink:href="#DejaVuSans-46" x="219.9375"/>
      <use xlink:href="#DejaVuSans-72" x="270.207031"/>
      <use xlink:href="#DejaVuSans-6f" x="309.070312"/>
      <use xlink:href="#DejaVuSans-6e" x="370.251953"/>
      <use xlink:href="#DejaVuSans-74" x="433.630859"/>
     </g>
    </g>
    <g id="line2d_31">
     <path d="M 67.945312 171.779375 
L 77.945312 171.779375 
L 87.945312 171.779375 
" style="fill: none; stroke: #2ca02c; stroke-width: 1.5; stroke-linecap: square"/>
    </g>
    <g id="text_18">
     <!-- Right Front -->
     <g transform="translate(95.945312 175.279375)scale(0.1 -0.1)">
      <defs>
       <path id="DejaVuSans-52" d="M 2841 2188 
Q 3044 2119 3236 1894 
Q 3428 1669 3622 1275 
L 4263 0 
L 3584 0 
L 2988 1197 
Q 2756 1666 2539 1819 
Q 2322 1972 1947 1972 
L 1259 1972 
L 1259 0 
L 628 0 
L 628 4666 
L 2053 4666 
Q 2853 4666 3247 4331 
Q 3641 3997 3641 3322 
Q 3641 2881 3436 2590 
Q 3231 2300 2841 2188 
z
M 1259 4147 
L 1259 2491 
L 2053 2491 
Q 2509 2491 2742 2702 
Q 2975 2913 2975 3322 
Q 2975 3731 2742 3939 
Q 2509 4147 2053 4147 
L 1259 4147 
z
" transform="scale(0.015625)"/>
       <path id="DejaVuSans-67" d="M 2906 1791 
Q 2906 2416 2648 2759 
Q 2391 3103 1925 3103 
Q 1463 3103 1205 2759 
Q 947 2416 947 1791 
Q 947 1169 1205 825 
Q 1463 481 1925 481 
Q 2391 481 2648 825 
Q 2906 1169 2906 1791 
z
M 3481 434 
Q 3481 -459 3084 -895 
Q 2688 -1331 1869 -1331 
Q 1566 -1331 1297 -1286 
Q 1028 -1241 775 -1147 
L 775 -588 
Q 1028 -725 1275 -790 
Q 1522 -856 1778 -856 
Q 2344 -856 2625 -561 
Q 2906 -266 2906 331 
L 2906 616 
Q 2728 306 2450 153 
Q 2172 0 1784 0 
Q 1141 0 747 490 
Q 353 981 353 1791 
Q 353 2603 747 3093 
Q 1141 3584 1784 3584 
Q 2172 3584 2450 3431 
Q 2728 3278 2906 2969 
L 2906 3500 
L 3481 3500 
L 3481 434 
z
" transform="scale(0.015625)"/>
       <path id="DejaVuSans-68" d="M 3513 2113 
L 3513 0 
L 2938 0 
L 2938 2094 
Q 2938 2591 2744 2837 
Q 2550 3084 2163 3084 
Q 1697 3084 1428 2787 
Q 1159 2491 1159 1978 
L 1159 0 
L 581 0 
L 581 4863 
L 1159 4863 
L 1159 2956 
Q 1366 3272 1645 3428 
Q 1925 3584 2291 3584 
Q 2894 3584 3203 3211 
Q 3513 2838 3513 2113 
z
" transform="scale(0.015625)"/>
      </defs>
      <use xlink:href="#DejaVuSans-52"/>
      <use xlink:href="#DejaVuSans-69" x="69.482422"/>
      <use xlink:href="#DejaVuSans-67" x="97.265625"/>
      <use xlink:href="#DejaVuSans-68" x="160.742188"/>
      <use xlink:href="#DejaVuSans-74" x="224.121094"/>
      <use xlink:href="#DejaVuSans-20" x="263.330078"/>
      <use xlink:href="#DejaVuSans-46" x="295.117188"/>
      <use xlink:href="#DejaVuSans-72" x="345.386719"/>
      <use xlink:href="#DejaVuSans-6f" x="384.25"/>
      <use xlink:href="#DejaVuSans-6e" x="445.431641"/>
      <use xlink:href="#DejaVuSans-74" x="508.810547"/>
     </g>
    </g>
    <g id="line2d_32">
     <path d="M 67.945312 186.4575 
L 77.945312 186.4575 
L 87.945312 186.4575 
" style="fill: none; stroke: #d62728; stroke-width: 1.5; stroke-linecap: square"/>
    </g>
    <g id="text_19">
     <!-- Right Side -->
     <g transform="translate(95.945312 189.9575)scale(0.1 -0.1)">
      <use xlink:href="#DejaVuSans-52"/>
      <use xlink:href="#DejaVuSans-69" x="69.482422"/>
      <use xlink:href="#DejaVuSans-67" x="97.265625"/>
      <use xlink:href="#DejaVuSans-68" x="160.742188"/>
      <use xlink:href="#DejaVuSans-74" x="224.121094"/>
      <use xlink:href="#DejaVuSans-20" x="263.330078"/>
      <use xlink:href="#DejaVuSans-53" x="295.117188"/>
      <use xlink:href="#DejaVuSans-69" x="358.59375"/>
      <use xlink:href="#DejaVuSans-64" x="386.376953"/>
      <use xlink:href="#DejaVuSans-65" x="449.853516"/>
     </g>
    </g>
   </g>
  </g>
 </g>
 <defs>
  <clipPath id="p51626bdf8f">
   <rect x="58.945313" y="25.918125" width="391.054687" height="278.525625"/>
  </clipPath>
 </defs>
</svg>
