<?xml version="1.0" encoding="utf-8" standalone="no"?>
<!DOCTYPE svg PUBLIC "-//W3C//DTD SVG 1.1//EN"
  "http://www.w3.org/Graphics/SVG/1.1/DTD/svg11.dtd">
<svg xmlns:xlink="http://www.w3.org/1999/xlink" width="460.8pt" height="345.6pt" viewBox="0 0 460.8 345.6" xmlns="http://www.w3.org/2000/svg" version="1.1">
 <metadata>
  <rdf:RDF xmlns:dc="http://purl.org/dc/elements/1.1/" xmlns:cc="http://creativecommons.org/ns#" xmlns:rdf="http://www.w3.org/1999/02/22-rdf-syntax-ns#">
   <cc:Work>
    <dc:type rdf:resource="http://purl.org/dc/dcmitype/StillImage"/>
    <dc:date>2022-01-15T23:46:53.629920</dc:date>
    <dc:format>image/svg+xml</dc:format>
    <dc:creator>
     <cc:Agent>
      <dc:title>Matplotlib v3.5.1, https://matplotlib.org/</dc:title>
     </cc:Agent>
    </dc:creator>
   </cc:Work>
  </rdf:RDF>
 </metadata>
 <defs>
  <style type="text/css">*{stroke-linejoin: round; stroke-linecap: butt}</style>
 </defs>
 <g id="figure_1">
  <g id="patch_1">
   <path d="M 0 345.6 
L 460.8 345.6 
L 460.8 0 
L 0 0 
z
" style="fill: #ffffff"/>
  </g>
  <g id="axes_1">
   <g id="patch_2">
    <path d="M 56.928125 161.67875 
L 450 161.67875 
L 450 48.331875 
L 56.928125 48.331875 
z
" style="fill: #ffffff"/>
   </g>
   <g id="matplotlib.axis_1">
    <g id="xtick_1">
     <g id="line2d_1">
      <path d="M 74.795028 161.67875 
L 74.795028 48.331875 
" clip-path="url(#pf6cb34595a)" style="fill: none; stroke: #b0b0b0; stroke-width: 0.8; stroke-linecap: square"/>
     </g>
     <g id="line2d_2">
      <defs>
       <path id="m4741d29970" d="M 0 0 
L 0 3.5 
" style="stroke: #000000; stroke-width: 0.8"/>
      </defs>
      <g>
       <use xlink:href="#m4741d29970" x="74.795028" y="161.67875" style="stroke: #000000; stroke-width: 0.8"/>
      </g>
     </g>
    </g>
    <g id="xtick_2">
     <g id="line2d_3">
      <path d="M 140.968745 161.67875 
L 140.968745 48.331875 
" clip-path="url(#pf6cb34595a)" style="fill: none; stroke: #b0b0b0; stroke-width: 0.8; stroke-linecap: square"/>
     </g>
     <g id="line2d_4">
      <g>
       <use xlink:href="#m4741d29970" x="140.968745" y="161.67875" style="stroke: #000000; stroke-width: 0.8"/>
      </g>
     </g>
    </g>
    <g id="xtick_3">
     <g id="line2d_5">
      <path d="M 207.142461 161.67875 
L 207.142461 48.331875 
" clip-path="url(#pf6cb34595a)" style="fill: none; stroke: #b0b0b0; stroke-width: 0.8; stroke-linecap: square"/>
     </g>
     <g id="line2d_6">
      <g>
       <use xlink:href="#m4741d29970" x="207.142461" y="161.67875" style="stroke: #000000; stroke-width: 0.8"/>
      </g>
     </g>
    </g>
    <g id="xtick_4">
     <g id="line2d_7">
      <path d="M 273.316177 161.67875 
L 273.316177 48.331875 
" clip-path="url(#pf6cb34595a)" style="fill: none; stroke: #b0b0b0; stroke-width: 0.8; stroke-linecap: square"/>
     </g>
     <g id="line2d_8">
      <g>
       <use xlink:href="#m4741d29970" x="273.316177" y="161.67875" style="stroke: #000000; stroke-width: 0.8"/>
      </g>
     </g>
    </g>
    <g id="xtick_5">
     <g id="line2d_9">
      <path d="M 339.489894 161.67875 
L 339.489894 48.331875 
" clip-path="url(#pf6cb34595a)" style="fill: none; stroke: #b0b0b0; stroke-width: 0.8; stroke-linecap: square"/>
     </g>
     <g id="line2d_10">
      <g>
       <use xlink:href="#m4741d29970" x="339.489894" y="161.67875" style="stroke: #000000; stroke-width: 0.8"/>
      </g>
     </g>
    </g>
    <g id="xtick_6">
     <g id="line2d_11">
      <path d="M 405.66361 161.67875 
L 405.66361 48.331875 
" clip-path="url(#pf6cb34595a)" style="fill: none; stroke: #b0b0b0; stroke-width: 0.8; stroke-linecap: square"/>
     </g>
     <g id="line2d_12">
      <g>
       <use xlink:href="#m4741d29970" x="405.66361" y="161.67875" style="stroke: #000000; stroke-width: 0.8"/>
      </g>
     </g>
    </g>
   </g>
   <g id="matplotlib.axis_2">
    <g id="ytick_1">
     <g id="line2d_13">
      <path d="M 56.928125 156.61439 
L 450 156.61439 
" clip-path="url(#pf6cb34595a)" style="fill: none; stroke: #b0b0b0; stroke-width: 0.8; stroke-linecap: square"/>
     </g>
     <g id="line2d_14">
      <defs>
       <path id="mfd2feefb57" d="M 0 0 
L -3.5 0 
" style="stroke: #000000; stroke-width: 0.8"/>
      </defs>
      <g>
       <use xlink:href="#mfd2feefb57" x="56.928125" y="156.61439" style="stroke: #000000; stroke-width: 0.8"/>
      </g>
     </g>
     <g id="text_1">
      <!-- 0 -->
      <g transform="translate(43.565625 160.413609)scale(0.1 -0.1)">
       <defs>
        <path id="DejaVuSans-30" d="M 2034 4250 
Q 1547 4250 1301 3770 
Q 1056 3291 1056 2328 
Q 1056 1369 1301 889 
Q 1547 409 2034 409 
Q 2525 409 2770 889 
Q 3016 1369 3016 2328 
Q 3016 3291 2770 3770 
Q 2525 4250 2034 4250 
z
M 2034 4750 
Q 2819 4750 3233 4129 
Q 3647 3509 3647 2328 
Q 3647 1150 3233 529 
Q 2819 -91 2034 -91 
Q 1250 -91 836 529 
Q 422 1150 422 2328 
Q 422 3509 836 4129 
Q 1250 4750 2034 4750 
z
" transform="scale(0.015625)"/>
       </defs>
       <use xlink:href="#DejaVuSans-30"/>
      </g>
     </g>
    </g>
    <g id="ytick_2">
     <g id="line2d_15">
      <path d="M 56.928125 112.72912 
L 450 112.72912 
" clip-path="url(#pf6cb34595a)" style="fill: none; stroke: #b0b0b0; stroke-width: 0.8; stroke-linecap: square"/>
     </g>
     <g id="line2d_16">
      <g>
       <use xlink:href="#mfd2feefb57" x="56.928125" y="112.72912" style="stroke: #000000; stroke-width: 0.8"/>
      </g>
     </g>
     <g id="text_2">
      <!-- 500 -->
      <g transform="translate(30.840625 116.528339)scale(0.1 -0.1)">
       <defs>
        <path id="DejaVuSans-35" d="M 691 4666 
L 3169 4666 
L 3169 4134 
L 1269 4134 
L 1269 2991 
Q 1406 3038 1543 3061 
Q 1681 3084 1819 3084 
Q 2600 3084 3056 2656 
Q 3513 2228 3513 1497 
Q 3513 744 3044 326 
Q 2575 -91 1722 -91 
Q 1428 -91 1123 -41 
Q 819 9 494 109 
L 494 744 
Q 775 591 1075 516 
Q 1375 441 1709 441 
Q 2250 441 2565 725 
Q 2881 1009 2881 1497 
Q 2881 1984 2565 2268 
Q 2250 2553 1709 2553 
Q 1456 2553 1204 2497 
Q 953 2441 691 2322 
L 691 4666 
z
" transform="scale(0.015625)"/>
       </defs>
       <use xlink:href="#DejaVuSans-35"/>
       <use xlink:href="#DejaVuSans-30" x="63.623047"/>
       <use xlink:href="#DejaVuSans-30" x="127.246094"/>
      </g>
     </g>
    </g>
    <g id="ytick_3">
     <g id="line2d_17">
      <path d="M 56.928125 68.84385 
L 450 68.84385 
" clip-path="url(#pf6cb34595a)" style="fill: none; stroke: #b0b0b0; stroke-width: 0.8; stroke-linecap: square"/>
     </g>
     <g id="line2d_18">
      <g>
       <use xlink:href="#mfd2feefb57" x="56.928125" y="68.84385" style="stroke: #000000; stroke-width: 0.8"/>
      </g>
     </g>
     <g id="text_3">
      <!-- 1000 -->
      <g transform="translate(24.478125 72.643069)scale(0.1 -0.1)">
       <defs>
        <path id="DejaVuSans-31" d="M 794 531 
L 1825 531 
L 1825 4091 
L 703 3866 
L 703 4441 
L 1819 4666 
L 2450 4666 
L 2450 531 
L 3481 531 
L 3481 0 
L 794 0 
L 794 531 
z
" transform="scale(0.015625)"/>
       </defs>
       <use xlink:href="#DejaVuSans-31"/>
       <use xlink:href="#DejaVuSans-30" x="63.623047"/>
       <use xlink:href="#DejaVuSans-30" x="127.246094"/>
       <use xlink:href="#DejaVuSans-30" x="190.869141"/>
      </g>
     </g>
    </g>
    <g id="text_4">
     <!-- reflector value -->
     <g transform="translate(18.398438 141.321719)rotate(-90)scale(0.1 -0.1)">
      <defs>
       <path id="DejaVuSans-72" d="M 2631 2963 
Q 2534 3019 2420 3045 
Q 2306 3072 2169 3072 
Q 1681 3072 1420 2755 
Q 1159 2438 1159 1844 
L 1159 0 
L 581 0 
L 581 3500 
L 1159 3500 
L 1159 2956 
Q 1341 3275 1631 3429 
Q 1922 3584 2338 3584 
Q 2397 3584 2469 3576 
Q 2541 3569 2628 3553 
L 2631 2963 
z
" transform="scale(0.015625)"/>
       <path id="DejaVuSans-65" d="M 3597 1894 
L 3597 1613 
L 953 1613 
Q 991 1019 1311 708 
Q 1631 397 2203 397 
Q 2534 397 2845 478 
Q 3156 559 3463 722 
L 3463 178 
Q 3153 47 2828 -22 
Q 2503 -91 2169 -91 
Q 1331 -91 842 396 
Q 353 884 353 1716 
Q 353 2575 817 3079 
Q 1281 3584 2069 3584 
Q 2775 3584 3186 3129 
Q 3597 2675 3597 1894 
z
M 3022 2063 
Q 3016 2534 2758 2815 
Q 2500 3097 2075 3097 
Q 1594 3097 1305 2825 
Q 1016 2553 972 2059 
L 3022 2063 
z
" transform="scale(0.015625)"/>
       <path id="DejaVuSans-66" d="M 2375 4863 
L 2375 4384 
L 1825 4384 
Q 1516 4384 1395 4259 
Q 1275 4134 1275 3809 
L 1275 3500 
L 2222 3500 
L 2222 3053 
L 1275 3053 
L 1275 0 
L 697 0 
L 697 3053 
L 147 3053 
L 147 3500 
L 697 3500 
L 697 3744 
Q 697 4328 969 4595 
Q 1241 4863 1831 4863 
L 2375 4863 
z
" transform="scale(0.015625)"/>
       <path id="DejaVuSans-6c" d="M 603 4863 
L 1178 4863 
L 1178 0 
L 603 0 
L 603 4863 
z
" transform="scale(0.015625)"/>
       <path id="DejaVuSans-63" d="M 3122 3366 
L 3122 2828 
Q 2878 2963 2633 3030 
Q 2388 3097 2138 3097 
Q 1578 3097 1268 2742 
Q 959 2388 959 1747 
Q 959 1106 1268 751 
Q 1578 397 2138 397 
Q 2388 397 2633 464 
Q 2878 531 3122 666 
L 3122 134 
Q 2881 22 2623 -34 
Q 2366 -91 2075 -91 
Q 1284 -91 818 406 
Q 353 903 353 1747 
Q 353 2603 823 3093 
Q 1294 3584 2113 3584 
Q 2378 3584 2631 3529 
Q 2884 3475 3122 3366 
z
" transform="scale(0.015625)"/>
       <path id="DejaVuSans-74" d="M 1172 4494 
L 1172 3500 
L 2356 3500 
L 2356 3053 
L 1172 3053 
L 1172 1153 
Q 1172 725 1289 603 
Q 1406 481 1766 481 
L 2356 481 
L 2356 0 
L 1766 0 
Q 1100 0 847 248 
Q 594 497 594 1153 
L 594 3053 
L 172 3053 
L 172 3500 
L 594 3500 
L 594 4494 
L 1172 4494 
z
" transform="scale(0.015625)"/>
       <path id="DejaVuSans-6f" d="M 1959 3097 
Q 1497 3097 1228 2736 
Q 959 2375 959 1747 
Q 959 1119 1226 758 
Q 1494 397 1959 397 
Q 2419 397 2687 759 
Q 2956 1122 2956 1747 
Q 2956 2369 2687 2733 
Q 2419 3097 1959 3097 
z
M 1959 3584 
Q 2709 3584 3137 3096 
Q 3566 2609 3566 1747 
Q 3566 888 3137 398 
Q 2709 -91 1959 -91 
Q 1206 -91 779 398 
Q 353 888 353 1747 
Q 353 2609 779 3096 
Q 1206 3584 1959 3584 
z
" transform="scale(0.015625)"/>
       <path id="DejaVuSans-20" transform="scale(0.015625)"/>
       <path id="DejaVuSans-76" d="M 191 3500 
L 800 3500 
L 1894 563 
L 2988 3500 
L 3597 3500 
L 2284 0 
L 1503 0 
L 191 3500 
z
" transform="scale(0.015625)"/>
       <path id="DejaVuSans-61" d="M 2194 1759 
Q 1497 1759 1228 1600 
Q 959 1441 959 1056 
Q 959 750 1161 570 
Q 1363 391 1709 391 
Q 2188 391 2477 730 
Q 2766 1069 2766 1631 
L 2766 1759 
L 2194 1759 
z
M 3341 1997 
L 3341 0 
L 2766 0 
L 2766 531 
Q 2569 213 2275 61 
Q 1981 -91 1556 -91 
Q 1019 -91 701 211 
Q 384 513 384 1019 
Q 384 1609 779 1909 
Q 1175 2209 1959 2209 
L 2766 2209 
L 2766 2266 
Q 2766 2663 2505 2880 
Q 2244 3097 1772 3097 
Q 1472 3097 1187 3025 
Q 903 2953 641 2809 
L 641 3341 
Q 956 3463 1253 3523 
Q 1550 3584 1831 3584 
Q 2591 3584 2966 3190 
Q 3341 2797 3341 1997 
z
" transform="scale(0.015625)"/>
       <path id="DejaVuSans-75" d="M 544 1381 
L 544 3500 
L 1119 3500 
L 1119 1403 
Q 1119 906 1312 657 
Q 1506 409 1894 409 
Q 2359 409 2629 706 
Q 2900 1003 2900 1516 
L 2900 3500 
L 3475 3500 
L 3475 0 
L 2900 0 
L 2900 538 
Q 2691 219 2414 64 
Q 2138 -91 1772 -91 
Q 1169 -91 856 284 
Q 544 659 544 1381 
z
M 1991 3584 
L 1991 3584 
z
" transform="scale(0.015625)"/>
      </defs>
      <use xlink:href="#DejaVuSans-72"/>
      <use xlink:href="#DejaVuSans-65" x="38.863281"/>
      <use xlink:href="#DejaVuSans-66" x="100.386719"/>
      <use xlink:href="#DejaVuSans-6c" x="135.591797"/>
      <use xlink:href="#DejaVuSans-65" x="163.375"/>
      <use xlink:href="#DejaVuSans-63" x="224.898438"/>
      <use xlink:href="#DejaVuSans-74" x="279.878906"/>
      <use xlink:href="#DejaVuSans-6f" x="319.087891"/>
      <use xlink:href="#DejaVuSans-72" x="380.269531"/>
      <use xlink:href="#DejaVuSans-20" x="421.382812"/>
      <use xlink:href="#DejaVuSans-76" x="453.169922"/>
      <use xlink:href="#DejaVuSans-61" x="512.349609"/>
      <use xlink:href="#DejaVuSans-6c" x="573.628906"/>
      <use xlink:href="#DejaVuSans-75" x="601.412109"/>
      <use xlink:href="#DejaVuSans-65" x="664.791016"/>
     </g>
    </g>
   </g>
   <g id="line2d_19">
    <path d="M 74.795028 98.422522 
L 74.822133 98.510293 
L 75.011814 99.124686 
L 75.21854 98.598063 
L 75.285243 98.510293 
L 75.52691 98.685834 
L 75.6222 98.598063 
L 75.957171 98.949145 
L 76.224381 99.036916 
L 76.530103 99.124686 
L 77.064787 99.475768 
L 77.476387 100.002392 
L 78.712512 100.880097 
L 79.596593 100.967868 
L 80.246419 101.40672 
L 80.942567 102.021114 
L 81.309169 102.284426 
L 82.47912 103.513213 
L 83.319527 104.127607 
L 84.668147 105.093083 
L 85.626342 105.531936 
L 86.633506 106.321871 
L 88.228293 107.287347 
L 88.784152 107.462888 
L 91.139936 107.375117 
L 92.370767 107.111805 
L 93.654538 107.024035 
L 94.30304 107.111805 
L 98.419045 106.497412 
L 101.304219 105.883018 
L 103.540891 105.795247 
L 105.049652 105.531936 
L 107.365732 105.005313 
L 109.695046 104.039837 
L 110.475896 103.776525 
L 112.064065 103.513213 
L 113.639 103.249902 
L 115.227169 103.162131 
L 119.197592 102.811049 
L 120.785761 102.811049 
L 122.37393 103.600984 
L 126.344353 105.795247 
L 127.932523 106.936264 
L 128.726607 107.462888 
L 129.520692 108.428364 
L 131.108861 111.06148 
L 132.69703 114.747842 
L 134.285199 119.487452 
L 135.873369 125.104766 
L 138.255622 135.286149 
L 140.637876 145.994155 
L 141.431961 148.978353 
L 142.226045 151.523699 
L 143.02013 153.45465 
L 143.814215 154.858979 
L 144.608299 155.912226 
L 145.402384 156.438849 
L 146.990553 156.526619 
L 235.994201 156.438849 
L 236.788286 156.175537 
L 237.582371 155.648914 
L 238.376455 154.771209 
L 239.17054 153.717962 
L 240.758709 150.909305 
L 241.552794 149.241665 
L 243.140963 144.940908 
L 244.729132 140.113528 
L 247.111386 132.389721 
L 248.699555 127.3868 
L 250.287724 123.437126 
L 251.081809 121.769486 
L 252.53763 119.399681 
L 253.331715 118.609746 
L 254.919884 117.468729 
L 255.713969 117.117647 
L 256.508053 116.591024 
L 258.096223 115.97663 
L 259.684392 115.274466 
L 262.86073 114.660072 
L 264.448899 115.098925 
L 266.831153 115.801089 
L 268.419322 115.888859 
L 269.213407 115.888859 
L 273.977915 114.221219 
L 274.771999 114.30899 
L 277.154253 115.274466 
L 278.742422 115.625548 
L 280.330591 115.625548 
L 281.124676 115.450007 
L 284.301014 114.133449 
L 285.095099 113.870137 
L 285.889184 113.957908 
L 287.477353 114.572301 
L 289.859606 115.362236 
L 291.447776 115.537777 
L 293.035945 115.098925 
L 294.624114 114.660072 
L 296.212283 114.39676 
L 297.800452 115.186695 
L 299.388622 116.064401 
L 300.182706 116.327712 
L 302.56496 116.503253 
L 305.741298 115.537777 
L 306.535383 115.625548 
L 310.505806 117.732041 
L 312.093975 117.907582 
L 312.88806 117.732041 
L 314.476229 116.854335 
L 316.064398 116.239942 
L 316.858483 116.327712 
L 320.034821 117.732041 
L 321.62299 117.64427 
L 322.417075 117.5565 
L 324.799329 116.327712 
L 325.593413 115.97663 
L 326.387498 116.064401 
L 329.563836 117.5565 
L 331.94609 117.468729 
L 334.328344 116.239942 
L 335.122428 116.064401 
L 335.916513 116.239942 
L 338.298767 117.5565 
L 339.092851 117.819811 
L 340.681021 117.819811 
L 341.475105 117.5565 
L 343.857359 116.327712 
L 344.651444 116.415483 
L 345.445528 116.678794 
L 347.827782 118.434205 
L 348.621867 118.873058 
L 350.210036 119.048599 
L 351.798205 118.434205 
L 352.59229 118.083123 
L 353.386374 117.907582 
L 354.180459 118.170893 
L 354.974543 118.785287 
L 357.356797 121.769486 
L 358.944966 122.998273 
L 359.739051 123.788208 
L 361.32722 124.490372 
L 362.121305 125.016996 
L 363.709474 127.737882 
L 367.679897 137.568183 
L 368.473981 139.499135 
L 370.062151 142.483333 
L 372.444404 148.276189 
L 374.032574 152.225863 
L 374.826658 153.805733 
L 375.620743 155.122291 
L 376.414827 156.087767 
L 377.208912 156.526619 
L 429.353801 156.438849 
L 430.41258 155.824455 
L 430.809622 155.912226 
L 430.94197 156.087767 
L 431.339012 155.736684 
L 431.339012 155.561143 
L 431.471359 155.210061 
L 431.736054 155.210061 
L 431.736054 155.473373 
L 431.868402 155.824455 
L 431.868402 155.736684 
L 431.868402 155.473373 
L 432.000749 155.385602 
L 432.000749 154.771209 
L 432.000749 154.771209 
L 432.133097 154.771209 
L 432.133097 155.473373 
L 432.133097 154.156815 
L 432.133097 154.507897 
" clip-path="url(#pf6cb34595a)" style="fill: none; stroke: #1f77b4; stroke-width: 1.5; stroke-linecap: square"/>
   </g>
   <g id="line2d_20">
    <path d="M 74.795028 156.526619 
L 358.944966 156.438849 
L 360.533136 156.175537 
L 362.121305 155.824455 
L 365.297643 155.912226 
L 366.885812 156.175537 
L 368.473981 155.824455 
L 369.268066 155.473373 
L 370.856235 154.507897 
L 373.238489 154.507897 
L 374.826658 155.210061 
L 375.620743 155.210061 
L 377.208912 154.771209 
L 378.797081 153.279109 
L 379.591166 152.489174 
L 381.179335 152.489174 
L 381.97342 152.752486 
L 383.561589 154.244585 
L 384.355673 154.244585 
L 385.943843 153.805733 
L 388.326096 150.11937 
L 389.914266 150.11937 
L 390.70835 150.821534 
L 392.296519 152.928027 
L 393.090604 152.840257 
L 394.678773 152.138092 
L 396.266942 148.802812 
L 397.061027 148.363959 
L 398.649196 148.363959 
L 399.443281 149.680517 
L 400.237365 150.470452 
L 401.03145 151.874781 
L 402.487272 154.94675 
L 403.281356 154.069044 
L 404.737178 149.417206 
L 406.193 144.940908 
L 408.442906 143.799891 
L 409.104643 144.414285 
L 410.428118 147.837336 
L 411.222202 147.661795 
L 411.883939 147.047401 
L 413.869151 138.972511 
L 414.398541 138.445888 
L 415.722015 137.655953 
L 416.913142 141.342316 
L 417.442532 141.166775 
L 418.633658 140.025758 
L 419.692438 134.320673 
L 421.280607 132.828574 
L 422.207039 136.866018 
L 422.604081 136.339395 
L 423.133471 136.076084 
L 423.530513 135.373919 
L 424.324598 129.581064 
L 425.515725 128.176735 
L 426.30981 132.565262 
L 426.574504 132.126409 
L 427.236242 131.248704 
L 428.162674 124.753684 
L 428.692063 123.700437 
L 429.221453 128.001194 
L 429.353801 127.123489 
L 429.88319 125.80693 
L 430.147885 119.662993 
L 430.41258 119.22414 
L 430.677275 118.258664 
L 430.94197 123.086044 
L 431.206665 121.945027 
L 431.339012 121.506174 
L 431.339012 118.521976 
L 431.471359 115.537777 
L 431.603707 115.274466 
L 431.603707 114.923383 
L 431.736054 114.572301 
L 431.736054 117.380959 
L 431.868402 119.838534 
L 431.868402 118.873058 
L 432.000749 118.609746 
L 432.000749 112.641349 
L 432.133097 112.465808 
L 432.133097 118.258664 
L 432.133097 109.218298 
L 432.133097 110.710398 
" clip-path="url(#pf6cb34595a)" style="fill: none; stroke: #ff7f0e; stroke-width: 1.5; stroke-linecap: square"/>
   </g>
   <g id="line2d_21">
    <path d="M 74.795028 156.526619 
L 374.826658 156.438849 
L 378.797081 154.595667 
L 381.179335 154.595667 
L 382.767504 155.385602 
L 383.561589 155.824455 
L 385.149758 155.03452 
L 387.532012 152.401404 
L 389.914266 152.401404 
L 392.296519 154.771209 
L 393.884689 153.893503 
L 395.472858 151.084846 
L 396.266942 149.504976 
L 398.649196 149.504976 
L 399.443281 150.11937 
L 400.237365 150.997075 
L 401.03145 152.225863 
L 402.487272 154.94675 
L 404.075441 150.733764 
L 404.737178 148.627271 
L 405.531263 147.047401 
L 406.193 145.29199 
L 408.442906 144.238744 
L 410.428118 148.5395 
L 411.883939 147.398483 
L 413.869151 140.025758 
L 415.060278 139.148052 
L 415.722015 138.7092 
L 416.913142 141.781169 
L 418.633658 139.850217 
L 419.692438 134.496214 
L 421.280607 133.091885 
L 422.207039 136.514936 
L 423.133471 135.46169 
L 423.530513 134.759525 
L 423.927556 131.687557 
L 424.324598 129.493293 
L 425.515725 128.088964 
L 426.30981 131.687557 
L 426.971547 130.63431 
L 427.236242 129.317752 
L 427.633284 126.245783 
L 427.897979 122.998273 
L 428.692063 121.506174 
L 429.221453 125.368078 
L 429.353801 124.841454 
L 429.88319 124.13929 
L 430.147885 119.136369 
L 430.677275 117.907582 
L 430.94197 122.383879 
L 431.206665 121.857256 
L 431.339012 120.452927 
L 431.339012 117.64427 
L 431.603707 115.97663 
L 431.736054 115.713318 
L 431.736054 118.083123 
L 431.868402 120.277386 
L 431.868402 120.014075 
L 432.000749 118.083123 
L 432.000749 113.957908 
L 432.133097 113.782366 
L 432.133097 118.434205 
L 432.133097 110.359315 
L 432.133097 111.675874 
" clip-path="url(#pf6cb34595a)" style="fill: none; stroke: #2ca02c; stroke-width: 1.5; stroke-linecap: square"/>
   </g>
   <g id="line2d_22">
    <path d="M 74.795028 104.65423 
L 74.796458 104.56646 
L 74.847967 105.180854 
L 74.886507 105.093083 
L 74.911335 105.180854 
L 74.940346 105.005313 
L 74.973697 105.093083 
L 75.011814 105.093083 
L 75.15819 104.742001 
L 75.358696 104.65423 
L 75.439163 104.56646 
L 75.52691 104.65423 
L 75.6222 104.56646 
L 75.725431 104.65423 
L 75.957171 104.56646 
L 76.37261 104.478689 
L 76.530103 104.303148 
L 76.696861 104.478689 
L 78.995736 103.337672 
L 79.289547 103.337672 
L 80.587876 102.108885 
L 80.942567 102.196655 
L 82.076784 101.143409 
L 83.319527 100.353474 
L 83.756273 100.177933 
L 84.206254 99.563539 
L 84.668147 99.300227 
L 85.141951 98.861375 
L 86.633506 98.246981 
L 87.154955 97.983669 
L 87.686992 97.544817 
L 89.935575 96.754882 
L 90.531138 96.754882 
L 91.139936 96.4038 
L 97.016162 96.49157 
L 97.704369 96.579341 
L 98.419045 96.49157 
L 99.133721 96.667111 
L 99.848397 97.018193 
L 102.045365 97.632587 
L 105.049652 98.685834 
L 105.817267 98.685834 
L 106.584882 99.036916 
L 109.695046 99.65131 
L 110.475896 99.73908 
L 112.064065 100.177933 
L 114.433084 100.529015 
L 115.227169 100.704556 
L 116.815338 100.792327 
L 117.609423 100.967868 
L 119.197592 101.055638 
L 119.991677 101.143409 
L 121.579846 101.055638 
L 123.168015 101.40672 
L 123.9621 101.31895 
L 132.69703 103.249902 
L 133.491115 103.600984 
L 135.079284 104.56646 
L 136.667453 106.14633 
L 138.255622 108.428364 
L 139.843792 111.588103 
L 141.431961 116.064401 
L 143.02013 121.593945 
L 144.608299 127.825653 
L 149.372807 148.5395 
L 150.166891 151.084846 
L 150.960976 153.191339 
L 151.755061 154.771209 
L 152.549145 155.824455 
L 153.34323 156.351078 
L 154.137314 156.526619 
L 243.935047 156.438849 
L 245.523217 155.648914 
L 246.317301 155.03452 
L 247.111386 154.244585 
L 248.699555 151.962551 
L 250.287724 148.978353 
L 251.875893 145.555302 
L 253.331715 141.868939 
L 255.713969 136.076084 
L 257.302138 131.950868 
L 258.890307 128.352276 
L 259.684392 127.035718 
L 260.478476 126.245783 
L 261.272561 125.71916 
L 262.066646 126.158013 
L 262.86073 127.3868 
L 263.654815 129.229981 
L 264.448899 131.950868 
L 266.037069 138.972511 
L 267.625238 146.169696 
L 268.419322 149.329435 
L 269.213407 151.962551 
L 270.007492 153.981274 
L 270.801576 155.385602 
L 271.595661 156.263308 
L 272.389745 156.526619 
L 366.091728 156.526619 
L 366.885812 155.999996 
L 367.679897 155.297832 
L 368.473981 154.069044 
L 369.268066 152.313633 
L 370.062151 150.11937 
L 371.65032 144.414285 
L 373.238489 137.480412 
L 374.826658 128.615588 
L 377.208912 112.290267 
L 379.591166 95.087242 
L 380.38525 90.786485 
L 381.179335 87.187893 
L 381.97342 84.818088 
L 382.767504 82.974907 
L 383.561589 82.009431 
L 384.355673 80.868414 
L 385.149758 80.078479 
L 385.943843 79.551856 
L 386.737927 78.761921 
L 387.532012 78.235298 
L 389.120181 77.796445 
L 389.914266 77.357592 
L 392.296519 78.147527 
L 393.884689 77.00651 
L 396.266942 73.846771 
L 397.061027 73.320148 
L 398.649196 72.530213 
L 399.443281 72.705754 
L 400.237365 72.530213 
L 402.487272 73.583459 
L 404.075441 71.125884 
L 404.737178 69.809326 
L 406.193 67.702833 
L 407.648822 66.912898 
L 408.442906 66.737357 
L 410.428118 68.931621 
L 411.883939 67.966145 
L 413.869151 63.577618 
L 414.398541 63.138765 
L 415.060278 62.787683 
L 415.722015 62.787683 
L 416.913142 64.806405 
L 417.442532 64.455323 
L 418.633658 63.9287 
L 419.163048 62.875453 
L 419.692438 61.471125 
L 420.221828 61.120043 
L 420.751217 61.120043 
L 421.280607 60.944502 
L 422.207039 64.104241 
L 422.604081 64.104241 
L 423.133471 63.840929 
L 423.530513 63.9287 
L 424.324598 61.558895 
L 425.118683 61.997748 
L 425.515725 61.909977 
L 426.30981 65.157487 
L 427.236242 64.543094 
L 428.162674 60.505649 
L 428.692063 59.715714 
L 429.221453 62.699912 
L 429.353801 62.26106 
L 429.88319 61.646666 
L 430.147885 57.696992 
L 430.544927 57.521451 
L 430.677275 57.345909 
L 430.94197 61.032272 
L 431.339012 60.242337 
L 431.339012 58.135844 
L 431.471359 55.678269 
L 431.603707 55.414958 
L 431.603707 54.800564 
L 431.736054 54.800564 
L 431.736054 56.555975 
L 431.868402 58.399156 
L 431.868402 58.135844 
L 432.000749 58.399156 
L 432.000749 54.449482 
L 432.000749 54.712793 
L 432.133097 54.712793 
L 432.133097 59.364632 
L 432.133097 53.484006 
L 432.133097 54.800564 
" clip-path="url(#pf6cb34595a)" style="fill: none; stroke: #d62728; stroke-width: 1.5; stroke-linecap: square"/>
   </g>
   <g id="patch_3">
    <path d="M 56.928125 161.67875 
L 56.928125 48.331875 
" style="fill: none; stroke: #000000; stroke-width: 0.8; stroke-linejoin: miter; stroke-linecap: square"/>
   </g>
   <g id="patch_4">
    <path d="M 450 161.67875 
L 450 48.331875 
" style="fill: none; stroke: #000000; stroke-width: 0.8; stroke-linejoin: miter; stroke-linecap: square"/>
   </g>
   <g id="patch_5">
    <path d="M 56.928125 161.67875 
L 450 161.67875 
" style="fill: none; stroke: #000000; stroke-width: 0.8; stroke-linejoin: miter; stroke-linecap: square"/>
   </g>
   <g id="patch_6">
    <path d="M 56.928125 48.331875 
L 450 48.331875 
" style="fill: none; stroke: #000000; stroke-width: 0.8; stroke-linejoin: miter; stroke-linecap: square"/>
   </g>
   <g id="text_5">
    <!-- Reflector Raw Value -->
    <g transform="translate(193.704062 42.331875)scale(0.12 -0.12)">
     <defs>
      <path id="DejaVuSans-52" d="M 2841 2188 
Q 3044 2119 3236 1894 
Q 3428 1669 3622 1275 
L 4263 0 
L 3584 0 
L 2988 1197 
Q 2756 1666 2539 1819 
Q 2322 1972 1947 1972 
L 1259 1972 
L 1259 0 
L 628 0 
L 628 4666 
L 2053 4666 
Q 2853 4666 3247 4331 
Q 3641 3997 3641 3322 
Q 3641 2881 3436 2590 
Q 3231 2300 2841 2188 
z
M 1259 4147 
L 1259 2491 
L 2053 2491 
Q 2509 2491 2742 2702 
Q 2975 2913 2975 3322 
Q 2975 3731 2742 3939 
Q 2509 4147 2053 4147 
L 1259 4147 
z
" transform="scale(0.015625)"/>
      <path id="DejaVuSans-77" d="M 269 3500 
L 844 3500 
L 1563 769 
L 2278 3500 
L 2956 3500 
L 3675 769 
L 4391 3500 
L 4966 3500 
L 4050 0 
L 3372 0 
L 2619 2869 
L 1863 0 
L 1184 0 
L 269 3500 
z
" transform="scale(0.015625)"/>
      <path id="DejaVuSans-56" d="M 1831 0 
L 50 4666 
L 709 4666 
L 2188 738 
L 3669 4666 
L 4325 4666 
L 2547 0 
L 1831 0 
z
" transform="scale(0.015625)"/>
     </defs>
     <use xlink:href="#DejaVuSans-52"/>
     <use xlink:href="#DejaVuSans-65" x="64.982422"/>
     <use xlink:href="#DejaVuSans-66" x="126.505859"/>
     <use xlink:href="#DejaVuSans-6c" x="161.710938"/>
     <use xlink:href="#DejaVuSans-65" x="189.494141"/>
     <use xlink:href="#DejaVuSans-63" x="251.017578"/>
     <use xlink:href="#DejaVuSans-74" x="305.998047"/>
     <use xlink:href="#DejaVuSans-6f" x="345.207031"/>
     <use xlink:href="#DejaVuSans-72" x="406.388672"/>
     <use xlink:href="#DejaVuSans-20" x="447.501953"/>
     <use xlink:href="#DejaVuSans-52" x="479.289062"/>
     <use xlink:href="#DejaVuSans-61" x="546.521484"/>
     <use xlink:href="#DejaVuSans-77" x="607.800781"/>
     <use xlink:href="#DejaVuSans-20" x="689.587891"/>
     <use xlink:href="#DejaVuSans-56" x="721.375"/>
     <use xlink:href="#DejaVuSans-61" x="782.033203"/>
     <use xlink:href="#DejaVuSans-6c" x="843.3125"/>
     <use xlink:href="#DejaVuSans-75" x="871.095703"/>
     <use xlink:href="#DejaVuSans-65" x="934.474609"/>
    </g>
   </g>
   <g id="legend_1">
    <g id="patch_7">
     <path d="M 219.75625 115.044375 
L 287.171875 115.044375 
Q 289.171875 115.044375 289.171875 113.044375 
L 289.171875 55.331875 
Q 289.171875 53.331875 287.171875 53.331875 
L 219.75625 53.331875 
Q 217.75625 53.331875 217.75625 55.331875 
L 217.75625 113.044375 
Q 217.75625 115.044375 219.75625 115.044375 
z
" style="fill: #ffffff; opacity: 0.8; stroke: #cccccc; stroke-linejoin: miter"/>
    </g>
    <g id="line2d_23">
     <path d="M 221.75625 61.430313 
L 231.75625 61.430313 
L 241.75625 61.430313 
" style="fill: none; stroke: #1f77b4; stroke-width: 1.5; stroke-linecap: square"/>
    </g>
    <g id="text_6">
     <!-- L Side -->
     <g transform="translate(249.75625 64.930313)scale(0.1 -0.1)">
      <defs>
       <path id="DejaVuSans-4c" d="M 628 4666 
L 1259 4666 
L 1259 531 
L 3531 531 
L 3531 0 
L 628 0 
L 628 4666 
z
" transform="scale(0.015625)"/>
       <path id="DejaVuSans-53" d="M 3425 4513 
L 3425 3897 
Q 3066 4069 2747 4153 
Q 2428 4238 2131 4238 
Q 1616 4238 1336 4038 
Q 1056 3838 1056 3469 
Q 1056 3159 1242 3001 
Q 1428 2844 1947 2747 
L 2328 2669 
Q 3034 2534 3370 2195 
Q 3706 1856 3706 1288 
Q 3706 609 3251 259 
Q 2797 -91 1919 -91 
Q 1588 -91 1214 -16 
Q 841 59 441 206 
L 441 856 
Q 825 641 1194 531 
Q 1563 422 1919 422 
Q 2459 422 2753 634 
Q 3047 847 3047 1241 
Q 3047 1584 2836 1778 
Q 2625 1972 2144 2069 
L 1759 2144 
Q 1053 2284 737 2584 
Q 422 2884 422 3419 
Q 422 4038 858 4394 
Q 1294 4750 2059 4750 
Q 2388 4750 2728 4690 
Q 3069 4631 3425 4513 
z
" transform="scale(0.015625)"/>
       <path id="DejaVuSans-69" d="M 603 3500 
L 1178 3500 
L 1178 0 
L 603 0 
L 603 3500 
z
M 603 4863 
L 1178 4863 
L 1178 4134 
L 603 4134 
L 603 4863 
z
" transform="scale(0.015625)"/>
       <path id="DejaVuSans-64" d="M 2906 2969 
L 2906 4863 
L 3481 4863 
L 3481 0 
L 2906 0 
L 2906 525 
Q 2725 213 2448 61 
Q 2172 -91 1784 -91 
Q 1150 -91 751 415 
Q 353 922 353 1747 
Q 353 2572 751 3078 
Q 1150 3584 1784 3584 
Q 2172 3584 2448 3432 
Q 2725 3281 2906 2969 
z
M 947 1747 
Q 947 1113 1208 752 
Q 1469 391 1925 391 
Q 2381 391 2643 752 
Q 2906 1113 2906 1747 
Q 2906 2381 2643 2742 
Q 2381 3103 1925 3103 
Q 1469 3103 1208 2742 
Q 947 2381 947 1747 
z
" transform="scale(0.015625)"/>
      </defs>
      <use xlink:href="#DejaVuSans-4c"/>
      <use xlink:href="#DejaVuSans-20" x="55.712891"/>
      <use xlink:href="#DejaVuSans-53" x="87.5"/>
      <use xlink:href="#DejaVuSans-69" x="150.976562"/>
      <use xlink:href="#DejaVuSans-64" x="178.759766"/>
      <use xlink:href="#DejaVuSans-65" x="242.236328"/>
     </g>
    </g>
    <g id="line2d_24">
     <path d="M 221.75625 76.108438 
L 231.75625 76.108438 
L 241.75625 76.108438 
" style="fill: none; stroke: #ff7f0e; stroke-width: 1.5; stroke-linecap: square"/>
    </g>
    <g id="text_7">
     <!-- L Front -->
     <g transform="translate(249.75625 79.608438)scale(0.1 -0.1)">
      <defs>
       <path id="DejaVuSans-46" d="M 628 4666 
L 3309 4666 
L 3309 4134 
L 1259 4134 
L 1259 2759 
L 3109 2759 
L 3109 2228 
L 1259 2228 
L 1259 0 
L 628 0 
L 628 4666 
z
" transform="scale(0.015625)"/>
       <path id="DejaVuSans-6e" d="M 3513 2113 
L 3513 0 
L 2938 0 
L 2938 2094 
Q 2938 2591 2744 2837 
Q 2550 3084 2163 3084 
Q 1697 3084 1428 2787 
Q 1159 2491 1159 1978 
L 1159 0 
L 581 0 
L 581 3500 
L 1159 3500 
L 1159 2956 
Q 1366 3272 1645 3428 
Q 1925 3584 2291 3584 
Q 2894 3584 3203 3211 
Q 3513 2838 3513 2113 
z
" transform="scale(0.015625)"/>
      </defs>
      <use xlink:href="#DejaVuSans-4c"/>
      <use xlink:href="#DejaVuSans-20" x="55.712891"/>
      <use xlink:href="#DejaVuSans-46" x="87.5"/>
      <use xlink:href="#DejaVuSans-72" x="137.769531"/>
      <use xlink:href="#DejaVuSans-6f" x="176.632812"/>
      <use xlink:href="#DejaVuSans-6e" x="237.814453"/>
      <use xlink:href="#DejaVuSans-74" x="301.193359"/>
     </g>
    </g>
    <g id="line2d_25">
     <path d="M 221.75625 90.786563 
L 231.75625 90.786563 
L 241.75625 90.786563 
" style="fill: none; stroke: #2ca02c; stroke-width: 1.5; stroke-linecap: square"/>
    </g>
    <g id="text_8">
     <!-- R Front -->
     <g transform="translate(249.75625 94.286563)scale(0.1 -0.1)">
      <use xlink:href="#DejaVuSans-52"/>
      <use xlink:href="#DejaVuSans-20" x="69.482422"/>
      <use xlink:href="#DejaVuSans-46" x="101.269531"/>
      <use xlink:href="#DejaVuSans-72" x="151.539062"/>
      <use xlink:href="#DejaVuSans-6f" x="190.402344"/>
      <use xlink:href="#DejaVuSans-6e" x="251.583984"/>
      <use xlink:href="#DejaVuSans-74" x="314.962891"/>
     </g>
    </g>
    <g id="line2d_26">
     <path d="M 221.75625 105.464688 
L 231.75625 105.464688 
L 241.75625 105.464688 
" style="fill: none; stroke: #d62728; stroke-width: 1.5; stroke-linecap: square"/>
    </g>
    <g id="text_9">
     <!-- R Side -->
     <g transform="translate(249.75625 108.964688)scale(0.1 -0.1)">
      <use xlink:href="#DejaVuSans-52"/>
      <use xlink:href="#DejaVuSans-20" x="69.482422"/>
      <use xlink:href="#DejaVuSans-53" x="101.269531"/>
      <use xlink:href="#DejaVuSans-69" x="164.746094"/>
      <use xlink:href="#DejaVuSans-64" x="192.529297"/>
      <use xlink:href="#DejaVuSans-65" x="256.005859"/>
     </g>
    </g>
   </g>
  </g>
  <g id="axes_2">
   <g id="patch_8">
    <path d="M 56.928125 304.44375 
L 450 304.44375 
L 450 191.096875 
L 56.928125 191.096875 
z
" style="fill: #ffffff"/>
   </g>
   <g id="matplotlib.axis_3">
    <g id="xtick_7">
     <g id="line2d_27">
      <path d="M 74.795028 304.44375 
L 74.795028 191.096875 
" clip-path="url(#pd2ccca506e)" style="fill: none; stroke: #b0b0b0; stroke-width: 0.8; stroke-linecap: square"/>
     </g>
     <g id="line2d_28">
      <g>
       <use xlink:href="#m4741d29970" x="74.795028" y="304.44375" style="stroke: #000000; stroke-width: 0.8"/>
      </g>
     </g>
     <g id="text_10">
      <!-- 0 -->
      <g transform="translate(71.613778 319.042187)scale(0.1 -0.1)">
       <use xlink:href="#DejaVuSans-30"/>
      </g>
     </g>
    </g>
    <g id="xtick_8">
     <g id="line2d_29">
      <path d="M 140.968745 304.44375 
L 140.968745 191.096875 
" clip-path="url(#pd2ccca506e)" style="fill: none; stroke: #b0b0b0; stroke-width: 0.8; stroke-linecap: square"/>
     </g>
     <g id="line2d_30">
      <g>
       <use xlink:href="#m4741d29970" x="140.968745" y="304.44375" style="stroke: #000000; stroke-width: 0.8"/>
      </g>
     </g>
     <g id="text_11">
      <!-- 50 -->
      <g transform="translate(134.606245 319.042187)scale(0.1 -0.1)">
       <use xlink:href="#DejaVuSans-35"/>
       <use xlink:href="#DejaVuSans-30" x="63.623047"/>
      </g>
     </g>
    </g>
    <g id="xtick_9">
     <g id="line2d_31">
      <path d="M 207.142461 304.44375 
L 207.142461 191.096875 
" clip-path="url(#pd2ccca506e)" style="fill: none; stroke: #b0b0b0; stroke-width: 0.8; stroke-linecap: square"/>
     </g>
     <g id="line2d_32">
      <g>
       <use xlink:href="#m4741d29970" x="207.142461" y="304.44375" style="stroke: #000000; stroke-width: 0.8"/>
      </g>
     </g>
     <g id="text_12">
      <!-- 100 -->
      <g transform="translate(197.598711 319.042187)scale(0.1 -0.1)">
       <use xlink:href="#DejaVuSans-31"/>
       <use xlink:href="#DejaVuSans-30" x="63.623047"/>
       <use xlink:href="#DejaVuSans-30" x="127.246094"/>
      </g>
     </g>
    </g>
    <g id="xtick_10">
     <g id="line2d_33">
      <path d="M 273.316177 304.44375 
L 273.316177 191.096875 
" clip-path="url(#pd2ccca506e)" style="fill: none; stroke: #b0b0b0; stroke-width: 0.8; stroke-linecap: square"/>
     </g>
     <g id="line2d_34">
      <g>
       <use xlink:href="#m4741d29970" x="273.316177" y="304.44375" style="stroke: #000000; stroke-width: 0.8"/>
      </g>
     </g>
     <g id="text_13">
      <!-- 150 -->
      <g transform="translate(263.772427 319.042187)scale(0.1 -0.1)">
       <use xlink:href="#DejaVuSans-31"/>
       <use xlink:href="#DejaVuSans-35" x="63.623047"/>
       <use xlink:href="#DejaVuSans-30" x="127.246094"/>
      </g>
     </g>
    </g>
    <g id="xtick_11">
     <g id="line2d_35">
      <path d="M 339.489894 304.44375 
L 339.489894 191.096875 
" clip-path="url(#pd2ccca506e)" style="fill: none; stroke: #b0b0b0; stroke-width: 0.8; stroke-linecap: square"/>
     </g>
     <g id="line2d_36">
      <g>
       <use xlink:href="#m4741d29970" x="339.489894" y="304.44375" style="stroke: #000000; stroke-width: 0.8"/>
      </g>
     </g>
     <g id="text_14">
      <!-- 200 -->
      <g transform="translate(329.946144 319.042187)scale(0.1 -0.1)">
       <defs>
        <path id="DejaVuSans-32" d="M 1228 531 
L 3431 531 
L 3431 0 
L 469 0 
L 469 531 
Q 828 903 1448 1529 
Q 2069 2156 2228 2338 
Q 2531 2678 2651 2914 
Q 2772 3150 2772 3378 
Q 2772 3750 2511 3984 
Q 2250 4219 1831 4219 
Q 1534 4219 1204 4116 
Q 875 4013 500 3803 
L 500 4441 
Q 881 4594 1212 4672 
Q 1544 4750 1819 4750 
Q 2544 4750 2975 4387 
Q 3406 4025 3406 3419 
Q 3406 3131 3298 2873 
Q 3191 2616 2906 2266 
Q 2828 2175 2409 1742 
Q 1991 1309 1228 531 
z
" transform="scale(0.015625)"/>
       </defs>
       <use xlink:href="#DejaVuSans-32"/>
       <use xlink:href="#DejaVuSans-30" x="63.623047"/>
       <use xlink:href="#DejaVuSans-30" x="127.246094"/>
      </g>
     </g>
    </g>
    <g id="xtick_12">
     <g id="line2d_37">
      <path d="M 405.66361 304.44375 
L 405.66361 191.096875 
" clip-path="url(#pd2ccca506e)" style="fill: none; stroke: #b0b0b0; stroke-width: 0.8; stroke-linecap: square"/>
     </g>
     <g id="line2d_38">
      <g>
       <use xlink:href="#m4741d29970" x="405.66361" y="304.44375" style="stroke: #000000; stroke-width: 0.8"/>
      </g>
     </g>
     <g id="text_15">
      <!-- 250 -->
      <g transform="translate(396.11986 319.042187)scale(0.1 -0.1)">
       <use xlink:href="#DejaVuSans-32"/>
       <use xlink:href="#DejaVuSans-35" x="63.623047"/>
       <use xlink:href="#DejaVuSans-30" x="127.246094"/>
      </g>
     </g>
    </g>
    <g id="text_16">
     <!-- Translational Position [mm] -->
     <g transform="translate(185.486719 332.720312)scale(0.1 -0.1)">
      <defs>
       <path id="DejaVuSans-54" d="M -19 4666 
L 3928 4666 
L 3928 4134 
L 2272 4134 
L 2272 0 
L 1638 0 
L 1638 4134 
L -19 4134 
L -19 4666 
z
" transform="scale(0.015625)"/>
       <path id="DejaVuSans-73" d="M 2834 3397 
L 2834 2853 
Q 2591 2978 2328 3040 
Q 2066 3103 1784 3103 
Q 1356 3103 1142 2972 
Q 928 2841 928 2578 
Q 928 2378 1081 2264 
Q 1234 2150 1697 2047 
L 1894 2003 
Q 2506 1872 2764 1633 
Q 3022 1394 3022 966 
Q 3022 478 2636 193 
Q 2250 -91 1575 -91 
Q 1294 -91 989 -36 
Q 684 19 347 128 
L 347 722 
Q 666 556 975 473 
Q 1284 391 1588 391 
Q 1994 391 2212 530 
Q 2431 669 2431 922 
Q 2431 1156 2273 1281 
Q 2116 1406 1581 1522 
L 1381 1569 
Q 847 1681 609 1914 
Q 372 2147 372 2553 
Q 372 3047 722 3315 
Q 1072 3584 1716 3584 
Q 2034 3584 2315 3537 
Q 2597 3491 2834 3397 
z
" transform="scale(0.015625)"/>
       <path id="DejaVuSans-50" d="M 1259 4147 
L 1259 2394 
L 2053 2394 
Q 2494 2394 2734 2622 
Q 2975 2850 2975 3272 
Q 2975 3691 2734 3919 
Q 2494 4147 2053 4147 
L 1259 4147 
z
M 628 4666 
L 2053 4666 
Q 2838 4666 3239 4311 
Q 3641 3956 3641 3272 
Q 3641 2581 3239 2228 
Q 2838 1875 2053 1875 
L 1259 1875 
L 1259 0 
L 628 0 
L 628 4666 
z
" transform="scale(0.015625)"/>
       <path id="DejaVuSans-5b" d="M 550 4863 
L 1875 4863 
L 1875 4416 
L 1125 4416 
L 1125 -397 
L 1875 -397 
L 1875 -844 
L 550 -844 
L 550 4863 
z
" transform="scale(0.015625)"/>
       <path id="DejaVuSans-6d" d="M 3328 2828 
Q 3544 3216 3844 3400 
Q 4144 3584 4550 3584 
Q 5097 3584 5394 3201 
Q 5691 2819 5691 2113 
L 5691 0 
L 5113 0 
L 5113 2094 
Q 5113 2597 4934 2840 
Q 4756 3084 4391 3084 
Q 3944 3084 3684 2787 
Q 3425 2491 3425 1978 
L 3425 0 
L 2847 0 
L 2847 2094 
Q 2847 2600 2669 2842 
Q 2491 3084 2119 3084 
Q 1678 3084 1418 2786 
Q 1159 2488 1159 1978 
L 1159 0 
L 581 0 
L 581 3500 
L 1159 3500 
L 1159 2956 
Q 1356 3278 1631 3431 
Q 1906 3584 2284 3584 
Q 2666 3584 2933 3390 
Q 3200 3197 3328 2828 
z
" transform="scale(0.015625)"/>
       <path id="DejaVuSans-5d" d="M 1947 4863 
L 1947 -844 
L 622 -844 
L 622 -397 
L 1369 -397 
L 1369 4416 
L 622 4416 
L 622 4863 
L 1947 4863 
z
" transform="scale(0.015625)"/>
      </defs>
      <use xlink:href="#DejaVuSans-54"/>
      <use xlink:href="#DejaVuSans-72" x="46.333984"/>
      <use xlink:href="#DejaVuSans-61" x="87.447266"/>
      <use xlink:href="#DejaVuSans-6e" x="148.726562"/>
      <use xlink:href="#DejaVuSans-73" x="212.105469"/>
      <use xlink:href="#DejaVuSans-6c" x="264.205078"/>
      <use xlink:href="#DejaVuSans-61" x="291.988281"/>
      <use xlink:href="#DejaVuSans-74" x="353.267578"/>
      <use xlink:href="#DejaVuSans-69" x="392.476562"/>
      <use xlink:href="#DejaVuSans-6f" x="420.259766"/>
      <use xlink:href="#DejaVuSans-6e" x="481.441406"/>
      <use xlink:href="#DejaVuSans-61" x="544.820312"/>
      <use xlink:href="#DejaVuSans-6c" x="606.099609"/>
      <use xlink:href="#DejaVuSans-20" x="633.882812"/>
      <use xlink:href="#DejaVuSans-50" x="665.669922"/>
      <use xlink:href="#DejaVuSans-6f" x="722.347656"/>
      <use xlink:href="#DejaVuSans-73" x="783.529297"/>
      <use xlink:href="#DejaVuSans-69" x="835.628906"/>
      <use xlink:href="#DejaVuSans-74" x="863.412109"/>
      <use xlink:href="#DejaVuSans-69" x="902.621094"/>
      <use xlink:href="#DejaVuSans-6f" x="930.404297"/>
      <use xlink:href="#DejaVuSans-6e" x="991.585938"/>
      <use xlink:href="#DejaVuSans-20" x="1054.964844"/>
      <use xlink:href="#DejaVuSans-5b" x="1086.751953"/>
      <use xlink:href="#DejaVuSans-6d" x="1125.765625"/>
      <use xlink:href="#DejaVuSans-6d" x="1223.177734"/>
      <use xlink:href="#DejaVuSans-5d" x="1320.589844"/>
     </g>
    </g>
   </g>
   <g id="matplotlib.axis_4">
    <g id="ytick_4">
     <g id="line2d_39">
      <path d="M 56.928125 284.771978 
L 450 284.771978 
" clip-path="url(#pd2ccca506e)" style="fill: none; stroke: #b0b0b0; stroke-width: 0.8; stroke-linecap: square"/>
     </g>
     <g id="line2d_40">
      <g>
       <use xlink:href="#mfd2feefb57" x="56.928125" y="284.771978" style="stroke: #000000; stroke-width: 0.8"/>
      </g>
     </g>
     <g id="text_17">
      <!-- 100 -->
      <g transform="translate(30.840625 288.571197)scale(0.1 -0.1)">
       <use xlink:href="#DejaVuSans-31"/>
       <use xlink:href="#DejaVuSans-30" x="63.623047"/>
       <use xlink:href="#DejaVuSans-30" x="127.246094"/>
      </g>
     </g>
    </g>
    <g id="ytick_5">
     <g id="line2d_41">
      <path d="M 56.928125 261.353202 
L 450 261.353202 
" clip-path="url(#pd2ccca506e)" style="fill: none; stroke: #b0b0b0; stroke-width: 0.8; stroke-linecap: square"/>
     </g>
     <g id="line2d_42">
      <g>
       <use xlink:href="#mfd2feefb57" x="56.928125" y="261.353202" style="stroke: #000000; stroke-width: 0.8"/>
      </g>
     </g>
     <g id="text_18">
      <!-- 150 -->
      <g transform="translate(30.840625 265.152421)scale(0.1 -0.1)">
       <use xlink:href="#DejaVuSans-31"/>
       <use xlink:href="#DejaVuSans-35" x="63.623047"/>
       <use xlink:href="#DejaVuSans-30" x="127.246094"/>
      </g>
     </g>
    </g>
    <g id="ytick_6">
     <g id="line2d_43">
      <path d="M 56.928125 237.934427 
L 450 237.934427 
" clip-path="url(#pd2ccca506e)" style="fill: none; stroke: #b0b0b0; stroke-width: 0.8; stroke-linecap: square"/>
     </g>
     <g id="line2d_44">
      <g>
       <use xlink:href="#mfd2feefb57" x="56.928125" y="237.934427" style="stroke: #000000; stroke-width: 0.8"/>
      </g>
     </g>
     <g id="text_19">
      <!-- 200 -->
      <g transform="translate(30.840625 241.733645)scale(0.1 -0.1)">
       <use xlink:href="#DejaVuSans-32"/>
       <use xlink:href="#DejaVuSans-30" x="63.623047"/>
       <use xlink:href="#DejaVuSans-30" x="127.246094"/>
      </g>
     </g>
    </g>
    <g id="ytick_7">
     <g id="line2d_45">
      <path d="M 56.928125 214.515651 
L 450 214.515651 
" clip-path="url(#pd2ccca506e)" style="fill: none; stroke: #b0b0b0; stroke-width: 0.8; stroke-linecap: square"/>
     </g>
     <g id="line2d_46">
      <g>
       <use xlink:href="#mfd2feefb57" x="56.928125" y="214.515651" style="stroke: #000000; stroke-width: 0.8"/>
      </g>
     </g>
     <g id="text_20">
      <!-- 250 -->
      <g transform="translate(30.840625 218.31487)scale(0.1 -0.1)">
       <use xlink:href="#DejaVuSans-32"/>
       <use xlink:href="#DejaVuSans-35" x="63.623047"/>
       <use xlink:href="#DejaVuSans-30" x="127.246094"/>
      </g>
     </g>
    </g>
    <g id="ytick_8">
     <g id="line2d_47">
      <path d="M 56.928125 191.096875 
L 450 191.096875 
" clip-path="url(#pd2ccca506e)" style="fill: none; stroke: #b0b0b0; stroke-width: 0.8; stroke-linecap: square"/>
     </g>
     <g id="line2d_48">
      <g>
       <use xlink:href="#mfd2feefb57" x="56.928125" y="191.096875" style="stroke: #000000; stroke-width: 0.8"/>
      </g>
     </g>
     <g id="text_21">
      <!-- 300 -->
      <g transform="translate(30.840625 194.896094)scale(0.1 -0.1)">
       <defs>
        <path id="DejaVuSans-33" d="M 2597 2516 
Q 3050 2419 3304 2112 
Q 3559 1806 3559 1356 
Q 3559 666 3084 287 
Q 2609 -91 1734 -91 
Q 1441 -91 1130 -33 
Q 819 25 488 141 
L 488 750 
Q 750 597 1062 519 
Q 1375 441 1716 441 
Q 2309 441 2620 675 
Q 2931 909 2931 1356 
Q 2931 1769 2642 2001 
Q 2353 2234 1838 2234 
L 1294 2234 
L 1294 2753 
L 1863 2753 
Q 2328 2753 2575 2939 
Q 2822 3125 2822 3475 
Q 2822 3834 2567 4026 
Q 2313 4219 1838 4219 
Q 1578 4219 1281 4162 
Q 984 4106 628 3988 
L 628 4550 
Q 988 4650 1302 4700 
Q 1616 4750 1894 4750 
Q 2613 4750 3031 4423 
Q 3450 4097 3450 3541 
Q 3450 3153 3228 2886 
Q 3006 2619 2597 2516 
z
" transform="scale(0.015625)"/>
       </defs>
       <use xlink:href="#DejaVuSans-33"/>
       <use xlink:href="#DejaVuSans-30" x="63.623047"/>
       <use xlink:href="#DejaVuSans-30" x="127.246094"/>
      </g>
     </g>
    </g>
    <g id="text_22">
     <!-- wall distance [mm] -->
     <g transform="translate(24.760938 295.708594)rotate(-90)scale(0.1 -0.1)">
      <use xlink:href="#DejaVuSans-77"/>
      <use xlink:href="#DejaVuSans-61" x="81.787109"/>
      <use xlink:href="#DejaVuSans-6c" x="143.066406"/>
      <use xlink:href="#DejaVuSans-6c" x="170.849609"/>
      <use xlink:href="#DejaVuSans-20" x="198.632812"/>
      <use xlink:href="#DejaVuSans-64" x="230.419922"/>
      <use xlink:href="#DejaVuSans-69" x="293.896484"/>
      <use xlink:href="#DejaVuSans-73" x="321.679688"/>
      <use xlink:href="#DejaVuSans-74" x="373.779297"/>
      <use xlink:href="#DejaVuSans-61" x="412.988281"/>
      <use xlink:href="#DejaVuSans-6e" x="474.267578"/>
      <use xlink:href="#DejaVuSans-63" x="537.646484"/>
      <use xlink:href="#DejaVuSans-65" x="592.626953"/>
      <use xlink:href="#DejaVuSans-20" x="654.150391"/>
      <use xlink:href="#DejaVuSans-5b" x="685.9375"/>
      <use xlink:href="#DejaVuSans-6d" x="724.951172"/>
      <use xlink:href="#DejaVuSans-6d" x="822.363281"/>
      <use xlink:href="#DejaVuSans-5d" x="919.775391"/>
     </g>
    </g>
   </g>
   <g id="line2d_49">
    <path d="M 74.795028 196.249006 
L 252.53763 196.249006 
L 253.331715 227.630165 
L 264.448899 227.630165 
L 265.242984 232.782296 
L 275.566084 232.782296 
L 276.360168 236.5293 
L 286.683268 236.5293 
L 287.477353 241.213055 
L 297.006368 241.213055 
L 297.800452 244.023308 
L 307.329468 244.023308 
L 308.123552 246.365186 
L 316.858483 246.365186 
L 317.652567 252.454068 
L 326.387498 252.454068 
L 327.181582 254.32757 
L 335.916513 254.32757 
L 336.710598 258.074574 
L 345.445528 258.074574 
L 346.239613 262.289954 
L 354.180459 262.289954 
L 354.974543 265.568582 
L 362.915389 265.568582 
L 363.709474 266.505333 
L 371.65032 266.505333 
L 372.444404 271.657464 
L 380.38525 271.657464 
L 381.179335 273.999341 
L 389.120181 273.999341 
L 389.914266 278.214721 
L 397.855112 278.214721 
L 398.649196 281.961725 
L 407.648822 281.961725 
L 408.442906 285.708729 
L 414.398541 285.708729 
L 415.060278 288.050607 
L 420.221828 288.050607 
L 420.751217 290.86086 
L 424.72164 290.86086 
L 425.118683 293.671113 
L 430.41258 293.671113 
L 430.544927 295.544615 
L 431.603707 295.544615 
L 431.603707 296.012991 
L 432.000749 296.012991 
L 432.000749 296.012991 
L 432.000749 298.354868 
L 432.133097 298.354868 
L 432.133097 298.354868 
L 432.133097 299.291619 
L 432.133097 297.418117 
L 432.133097 297.418117 
" clip-path="url(#pd2ccca506e)" style="fill: none; stroke: #1f77b4; stroke-width: 1.5; stroke-linecap: square"/>
   </g>
   <g id="patch_9">
    <path d="M 56.928125 304.44375 
L 56.928125 191.096875 
" style="fill: none; stroke: #000000; stroke-width: 0.8; stroke-linejoin: miter; stroke-linecap: square"/>
   </g>
   <g id="patch_10">
    <path d="M 450 304.44375 
L 450 191.096875 
" style="fill: none; stroke: #000000; stroke-width: 0.8; stroke-linejoin: miter; stroke-linecap: square"/>
   </g>
   <g id="patch_11">
    <path d="M 56.928125 304.44375 
L 450 304.44375 
" style="fill: none; stroke: #000000; stroke-width: 0.8; stroke-linejoin: miter; stroke-linecap: square"/>
   </g>
   <g id="patch_12">
    <path d="M 56.928125 191.096875 
L 450 191.096875 
" style="fill: none; stroke: #000000; stroke-width: 0.8; stroke-linejoin: miter; stroke-linecap: square"/>
   </g>
   <g id="text_23">
    <!-- Front Wall Distance [mm] -->
    <g transform="translate(177.40375 185.096875)scale(0.12 -0.12)">
     <defs>
      <path id="DejaVuSans-57" d="M 213 4666 
L 850 4666 
L 1831 722 
L 2809 4666 
L 3519 4666 
L 4500 722 
L 5478 4666 
L 6119 4666 
L 4947 0 
L 4153 0 
L 3169 4050 
L 2175 0 
L 1381 0 
L 213 4666 
z
" transform="scale(0.015625)"/>
      <path id="DejaVuSans-44" d="M 1259 4147 
L 1259 519 
L 2022 519 
Q 2988 519 3436 956 
Q 3884 1394 3884 2338 
Q 3884 3275 3436 3711 
Q 2988 4147 2022 4147 
L 1259 4147 
z
M 628 4666 
L 1925 4666 
Q 3281 4666 3915 4102 
Q 4550 3538 4550 2338 
Q 4550 1131 3912 565 
Q 3275 0 1925 0 
L 628 0 
L 628 4666 
z
" transform="scale(0.015625)"/>
     </defs>
     <use xlink:href="#DejaVuSans-46"/>
     <use xlink:href="#DejaVuSans-72" x="50.269531"/>
     <use xlink:href="#DejaVuSans-6f" x="89.132812"/>
     <use xlink:href="#DejaVuSans-6e" x="150.314453"/>
     <use xlink:href="#DejaVuSans-74" x="213.693359"/>
     <use xlink:href="#DejaVuSans-20" x="252.902344"/>
     <use xlink:href="#DejaVuSans-57" x="284.689453"/>
     <use xlink:href="#DejaVuSans-61" x="377.191406"/>
     <use xlink:href="#DejaVuSans-6c" x="438.470703"/>
     <use xlink:href="#DejaVuSans-6c" x="466.253906"/>
     <use xlink:href="#DejaVuSans-20" x="494.037109"/>
     <use xlink:href="#DejaVuSans-44" x="525.824219"/>
     <use xlink:href="#DejaVuSans-69" x="602.826172"/>
     <use xlink:href="#DejaVuSans-73" x="630.609375"/>
     <use xlink:href="#DejaVuSans-74" x="682.708984"/>
     <use xlink:href="#DejaVuSans-61" x="721.917969"/>
     <use xlink:href="#DejaVuSans-6e" x="783.197266"/>
     <use xlink:href="#DejaVuSans-63" x="846.576172"/>
     <use xlink:href="#DejaVuSans-65" x="901.556641"/>
     <use xlink:href="#DejaVuSans-20" x="963.080078"/>
     <use xlink:href="#DejaVuSans-5b" x="994.867188"/>
     <use xlink:href="#DejaVuSans-6d" x="1033.880859"/>
     <use xlink:href="#DejaVuSans-6d" x="1131.292969"/>
     <use xlink:href="#DejaVuSans-5d" x="1228.705078"/>
    </g>
   </g>
   <g id="legend_2">
    <g id="patch_13">
     <path d="M 394.721875 213.775 
L 443 213.775 
Q 445 213.775 445 211.775 
L 445 198.096875 
Q 445 196.096875 443 196.096875 
L 394.721875 196.096875 
Q 392.721875 196.096875 392.721875 198.096875 
L 392.721875 211.775 
Q 392.721875 213.775 394.721875 213.775 
z
" style="fill: #ffffff; opacity: 0.8; stroke: #cccccc; stroke-linejoin: miter"/>
    </g>
    <g id="line2d_50">
     <path d="M 396.721875 204.195312 
L 406.721875 204.195312 
L 416.721875 204.195312 
" style="fill: none; stroke: #1f77b4; stroke-width: 1.5; stroke-linecap: square"/>
    </g>
    <g id="text_24">
     <!-- ToF -->
     <g transform="translate(424.721875 207.695312)scale(0.1 -0.1)">
      <use xlink:href="#DejaVuSans-54"/>
      <use xlink:href="#DejaVuSans-6f" x="44.083984"/>
      <use xlink:href="#DejaVuSans-46" x="105.265625"/>
     </g>
    </g>
   </g>
  </g>
  <g id="text_25">
   <!-- Reflector Raw Value and ToF Distance -->
   <g transform="translate(117.629063 16.030125)scale(0.12 -0.12)">
    <use xlink:href="#DejaVuSans-52"/>
    <use xlink:href="#DejaVuSans-65" x="64.982422"/>
    <use xlink:href="#DejaVuSans-66" x="126.505859"/>
    <use xlink:href="#DejaVuSans-6c" x="161.710938"/>
    <use xlink:href="#DejaVuSans-65" x="189.494141"/>
    <use xlink:href="#DejaVuSans-63" x="251.017578"/>
    <use xlink:href="#DejaVuSans-74" x="305.998047"/>
    <use xlink:href="#DejaVuSans-6f" x="345.207031"/>
    <use xlink:href="#DejaVuSans-72" x="406.388672"/>
    <use xlink:href="#DejaVuSans-20" x="447.501953"/>
    <use xlink:href="#DejaVuSans-52" x="479.289062"/>
    <use xlink:href="#DejaVuSans-61" x="546.521484"/>
    <use xlink:href="#DejaVuSans-77" x="607.800781"/>
    <use xlink:href="#DejaVuSans-20" x="689.587891"/>
    <use xlink:href="#DejaVuSans-56" x="721.375"/>
    <use xlink:href="#DejaVuSans-61" x="782.033203"/>
    <use xlink:href="#DejaVuSans-6c" x="843.3125"/>
    <use xlink:href="#DejaVuSans-75" x="871.095703"/>
    <use xlink:href="#DejaVuSans-65" x="934.474609"/>
    <use xlink:href="#DejaVuSans-20" x="995.998047"/>
    <use xlink:href="#DejaVuSans-61" x="1027.785156"/>
    <use xlink:href="#DejaVuSans-6e" x="1089.064453"/>
    <use xlink:href="#DejaVuSans-64" x="1152.443359"/>
    <use xlink:href="#DejaVuSans-20" x="1215.919922"/>
    <use xlink:href="#DejaVuSans-54" x="1247.707031"/>
    <use xlink:href="#DejaVuSans-6f" x="1291.791016"/>
    <use xlink:href="#DejaVuSans-46" x="1352.972656"/>
    <use xlink:href="#DejaVuSans-20" x="1410.492188"/>
    <use xlink:href="#DejaVuSans-44" x="1442.279297"/>
    <use xlink:href="#DejaVuSans-69" x="1519.28125"/>
    <use xlink:href="#DejaVuSans-73" x="1547.064453"/>
    <use xlink:href="#DejaVuSans-74" x="1599.164062"/>
    <use xlink:href="#DejaVuSans-61" x="1638.373047"/>
    <use xlink:href="#DejaVuSans-6e" x="1699.652344"/>
    <use xlink:href="#DejaVuSans-63" x="1763.03125"/>
    <use xlink:href="#DejaVuSans-65" x="1818.011719"/>
   </g>
  </g>
 </g>
 <defs>
  <clipPath id="pf6cb34595a">
   <rect x="56.928125" y="48.331875" width="393.071875" height="113.346875"/>
  </clipPath>
  <clipPath id="pd2ccca506e">
   <rect x="56.928125" y="191.096875" width="393.071875" height="113.346875"/>
  </clipPath>
 </defs>
</svg>
