<?xml version="1.0" encoding="utf-8" standalone="no"?>
<!DOCTYPE svg PUBLIC "-//W3C//DTD SVG 1.1//EN"
  "http://www.w3.org/Graphics/SVG/1.1/DTD/svg11.dtd">
<!-- Created with matplotlib (https://matplotlib.org/) -->
<svg height="720pt" version="1.1" viewBox="0 0 576 720" width="576pt" xmlns="http://www.w3.org/2000/svg" xmlns:xlink="http://www.w3.org/1999/xlink">
 <metadata>
  <rdf:RDF xmlns:cc="http://creativecommons.org/ns#" xmlns:dc="http://purl.org/dc/elements/1.1/" xmlns:rdf="http://www.w3.org/1999/02/22-rdf-syntax-ns#">
   <cc:Work>
    <dc:type rdf:resource="http://purl.org/dc/dcmitype/StillImage"/>
    <dc:date>2020-11-22T15:07:03.093007</dc:date>
    <dc:format>image/svg+xml</dc:format>
    <dc:creator>
     <cc:Agent>
      <dc:title>Matplotlib v3.3.3, https://matplotlib.org/</dc:title>
     </cc:Agent>
    </dc:creator>
   </cc:Work>
  </rdf:RDF>
 </metadata>
 <defs>
  <style type="text/css">*{stroke-linecap:butt;stroke-linejoin:round;}</style>
 </defs>
 <g id="figure_1">
  <g id="patch_1">
   <path d="M 0 720 
L 576 720 
L 576 0 
L 0 0 
z
" style="fill:#ffffff;"/>
  </g>
  <g id="axes_1">
   <g id="patch_2">
    <path d="M 56.847002 146.14 
L 565.2 146.14 
L 565.2 26.88 
L 56.847002 26.88 
z
" style="fill:#ffffff;"/>
   </g>
   <g id="matplotlib.axis_1">
    <g id="xtick_1">
     <g id="line2d_1">
      <path clip-path="url(#p7023436f05)" d="M 79.953956 146.14 
L 79.953956 26.88 
" style="fill:none;stroke:#b0b0b0;stroke-linecap:square;stroke-width:0.8;"/>
     </g>
     <g id="line2d_2">
      <defs>
       <path d="M 0 0 
L 0 3.5 
" id="mdee8d34328" style="stroke:#000000;stroke-width:0.8;"/>
      </defs>
      <g>
       <use style="stroke:#000000;stroke-width:0.8;" x="79.953956" xlink:href="#mdee8d34328" y="146.14"/>
      </g>
     </g>
     <g id="text_1">
      <!-- 0.0 -->
      <g transform="translate(72.002394 160.738438)scale(0.1 -0.1)">
       <defs>
        <path d="M 31.78125 66.40625 
Q 24.171875 66.40625 20.328125 58.90625 
Q 16.5 51.421875 16.5 36.375 
Q 16.5 21.390625 20.328125 13.890625 
Q 24.171875 6.390625 31.78125 6.390625 
Q 39.453125 6.390625 43.28125 13.890625 
Q 47.125 21.390625 47.125 36.375 
Q 47.125 51.421875 43.28125 58.90625 
Q 39.453125 66.40625 31.78125 66.40625 
z
M 31.78125 74.21875 
Q 44.046875 74.21875 50.515625 64.515625 
Q 56.984375 54.828125 56.984375 36.375 
Q 56.984375 17.96875 50.515625 8.265625 
Q 44.046875 -1.421875 31.78125 -1.421875 
Q 19.53125 -1.421875 13.0625 8.265625 
Q 6.59375 17.96875 6.59375 36.375 
Q 6.59375 54.828125 13.0625 64.515625 
Q 19.53125 74.21875 31.78125 74.21875 
z
" id="DejaVuSans-48"/>
        <path d="M 10.6875 12.40625 
L 21 12.40625 
L 21 0 
L 10.6875 0 
z
" id="DejaVuSans-46"/>
       </defs>
       <use xlink:href="#DejaVuSans-48"/>
       <use x="63.623047" xlink:href="#DejaVuSans-46"/>
       <use x="95.410156" xlink:href="#DejaVuSans-48"/>
      </g>
     </g>
    </g>
    <g id="xtick_2">
     <g id="line2d_3">
      <path clip-path="url(#p7023436f05)" d="M 179.125435 146.14 
L 179.125435 26.88 
" style="fill:none;stroke:#b0b0b0;stroke-linecap:square;stroke-width:0.8;"/>
     </g>
     <g id="line2d_4">
      <g>
       <use style="stroke:#000000;stroke-width:0.8;" x="179.125435" xlink:href="#mdee8d34328" y="146.14"/>
      </g>
     </g>
     <g id="text_2">
      <!-- 0.1 -->
      <g transform="translate(171.173872 160.738438)scale(0.1 -0.1)">
       <defs>
        <path d="M 12.40625 8.296875 
L 28.515625 8.296875 
L 28.515625 63.921875 
L 10.984375 60.40625 
L 10.984375 69.390625 
L 28.421875 72.90625 
L 38.28125 72.90625 
L 38.28125 8.296875 
L 54.390625 8.296875 
L 54.390625 0 
L 12.40625 0 
z
" id="DejaVuSans-49"/>
       </defs>
       <use xlink:href="#DejaVuSans-48"/>
       <use x="63.623047" xlink:href="#DejaVuSans-46"/>
       <use x="95.410156" xlink:href="#DejaVuSans-49"/>
      </g>
     </g>
    </g>
    <g id="xtick_3">
     <g id="line2d_5">
      <path clip-path="url(#p7023436f05)" d="M 278.296913 146.14 
L 278.296913 26.88 
" style="fill:none;stroke:#b0b0b0;stroke-linecap:square;stroke-width:0.8;"/>
     </g>
     <g id="line2d_6">
      <g>
       <use style="stroke:#000000;stroke-width:0.8;" x="278.296913" xlink:href="#mdee8d34328" y="146.14"/>
      </g>
     </g>
     <g id="text_3">
      <!-- 0.2 -->
      <g transform="translate(270.345351 160.738438)scale(0.1 -0.1)">
       <defs>
        <path d="M 19.1875 8.296875 
L 53.609375 8.296875 
L 53.609375 0 
L 7.328125 0 
L 7.328125 8.296875 
Q 12.9375 14.109375 22.625 23.890625 
Q 32.328125 33.6875 34.8125 36.53125 
Q 39.546875 41.84375 41.421875 45.53125 
Q 43.3125 49.21875 43.3125 52.78125 
Q 43.3125 58.59375 39.234375 62.25 
Q 35.15625 65.921875 28.609375 65.921875 
Q 23.96875 65.921875 18.8125 64.3125 
Q 13.671875 62.703125 7.8125 59.421875 
L 7.8125 69.390625 
Q 13.765625 71.78125 18.9375 73 
Q 24.125 74.21875 28.421875 74.21875 
Q 39.75 74.21875 46.484375 68.546875 
Q 53.21875 62.890625 53.21875 53.421875 
Q 53.21875 48.921875 51.53125 44.890625 
Q 49.859375 40.875 45.40625 35.40625 
Q 44.1875 33.984375 37.640625 27.21875 
Q 31.109375 20.453125 19.1875 8.296875 
z
" id="DejaVuSans-50"/>
       </defs>
       <use xlink:href="#DejaVuSans-48"/>
       <use x="63.623047" xlink:href="#DejaVuSans-46"/>
       <use x="95.410156" xlink:href="#DejaVuSans-50"/>
      </g>
     </g>
    </g>
    <g id="xtick_4">
     <g id="line2d_7">
      <path clip-path="url(#p7023436f05)" d="M 377.468391 146.14 
L 377.468391 26.88 
" style="fill:none;stroke:#b0b0b0;stroke-linecap:square;stroke-width:0.8;"/>
     </g>
     <g id="line2d_8">
      <g>
       <use style="stroke:#000000;stroke-width:0.8;" x="377.468391" xlink:href="#mdee8d34328" y="146.14"/>
      </g>
     </g>
     <g id="text_4">
      <!-- 0.3 -->
      <g transform="translate(369.516829 160.738438)scale(0.1 -0.1)">
       <defs>
        <path d="M 40.578125 39.3125 
Q 47.65625 37.796875 51.625 33 
Q 55.609375 28.21875 55.609375 21.1875 
Q 55.609375 10.40625 48.1875 4.484375 
Q 40.765625 -1.421875 27.09375 -1.421875 
Q 22.515625 -1.421875 17.65625 -0.515625 
Q 12.796875 0.390625 7.625 2.203125 
L 7.625 11.71875 
Q 11.71875 9.328125 16.59375 8.109375 
Q 21.484375 6.890625 26.8125 6.890625 
Q 36.078125 6.890625 40.9375 10.546875 
Q 45.796875 14.203125 45.796875 21.1875 
Q 45.796875 27.640625 41.28125 31.265625 
Q 36.765625 34.90625 28.71875 34.90625 
L 20.21875 34.90625 
L 20.21875 43.015625 
L 29.109375 43.015625 
Q 36.375 43.015625 40.234375 45.921875 
Q 44.09375 48.828125 44.09375 54.296875 
Q 44.09375 59.90625 40.109375 62.90625 
Q 36.140625 65.921875 28.71875 65.921875 
Q 24.65625 65.921875 20.015625 65.03125 
Q 15.375 64.15625 9.8125 62.3125 
L 9.8125 71.09375 
Q 15.4375 72.65625 20.34375 73.4375 
Q 25.25 74.21875 29.59375 74.21875 
Q 40.828125 74.21875 47.359375 69.109375 
Q 53.90625 64.015625 53.90625 55.328125 
Q 53.90625 49.265625 50.4375 45.09375 
Q 46.96875 40.921875 40.578125 39.3125 
z
" id="DejaVuSans-51"/>
       </defs>
       <use xlink:href="#DejaVuSans-48"/>
       <use x="63.623047" xlink:href="#DejaVuSans-46"/>
       <use x="95.410156" xlink:href="#DejaVuSans-51"/>
      </g>
     </g>
    </g>
    <g id="xtick_5">
     <g id="line2d_9">
      <path clip-path="url(#p7023436f05)" d="M 476.63987 146.14 
L 476.63987 26.88 
" style="fill:none;stroke:#b0b0b0;stroke-linecap:square;stroke-width:0.8;"/>
     </g>
     <g id="line2d_10">
      <g>
       <use style="stroke:#000000;stroke-width:0.8;" x="476.63987" xlink:href="#mdee8d34328" y="146.14"/>
      </g>
     </g>
     <g id="text_5">
      <!-- 0.4 -->
      <g transform="translate(468.688307 160.738438)scale(0.1 -0.1)">
       <defs>
        <path d="M 37.796875 64.3125 
L 12.890625 25.390625 
L 37.796875 25.390625 
z
M 35.203125 72.90625 
L 47.609375 72.90625 
L 47.609375 25.390625 
L 58.015625 25.390625 
L 58.015625 17.1875 
L 47.609375 17.1875 
L 47.609375 0 
L 37.796875 0 
L 37.796875 17.1875 
L 4.890625 17.1875 
L 4.890625 26.703125 
z
" id="DejaVuSans-52"/>
       </defs>
       <use xlink:href="#DejaVuSans-48"/>
       <use x="63.623047" xlink:href="#DejaVuSans-46"/>
       <use x="95.410156" xlink:href="#DejaVuSans-52"/>
      </g>
     </g>
    </g>
    <g id="text_6">
     <!-- Time [ms] -->
     <g transform="translate(285.824282 174.416563)scale(0.1 -0.1)">
      <defs>
       <path d="M -0.296875 72.90625 
L 61.375 72.90625 
L 61.375 64.59375 
L 35.5 64.59375 
L 35.5 0 
L 25.59375 0 
L 25.59375 64.59375 
L -0.296875 64.59375 
z
" id="DejaVuSans-84"/>
       <path d="M 9.421875 54.6875 
L 18.40625 54.6875 
L 18.40625 0 
L 9.421875 0 
z
M 9.421875 75.984375 
L 18.40625 75.984375 
L 18.40625 64.59375 
L 9.421875 64.59375 
z
" id="DejaVuSans-105"/>
       <path d="M 52 44.1875 
Q 55.375 50.25 60.0625 53.125 
Q 64.75 56 71.09375 56 
Q 79.640625 56 84.28125 50.015625 
Q 88.921875 44.046875 88.921875 33.015625 
L 88.921875 0 
L 79.890625 0 
L 79.890625 32.71875 
Q 79.890625 40.578125 77.09375 44.375 
Q 74.3125 48.1875 68.609375 48.1875 
Q 61.625 48.1875 57.5625 43.546875 
Q 53.515625 38.921875 53.515625 30.90625 
L 53.515625 0 
L 44.484375 0 
L 44.484375 32.71875 
Q 44.484375 40.625 41.703125 44.40625 
Q 38.921875 48.1875 33.109375 48.1875 
Q 26.21875 48.1875 22.15625 43.53125 
Q 18.109375 38.875 18.109375 30.90625 
L 18.109375 0 
L 9.078125 0 
L 9.078125 54.6875 
L 18.109375 54.6875 
L 18.109375 46.1875 
Q 21.1875 51.21875 25.484375 53.609375 
Q 29.78125 56 35.6875 56 
Q 41.65625 56 45.828125 52.96875 
Q 50 49.953125 52 44.1875 
z
" id="DejaVuSans-109"/>
       <path d="M 56.203125 29.59375 
L 56.203125 25.203125 
L 14.890625 25.203125 
Q 15.484375 15.921875 20.484375 11.0625 
Q 25.484375 6.203125 34.421875 6.203125 
Q 39.59375 6.203125 44.453125 7.46875 
Q 49.3125 8.734375 54.109375 11.28125 
L 54.109375 2.78125 
Q 49.265625 0.734375 44.1875 -0.34375 
Q 39.109375 -1.421875 33.890625 -1.421875 
Q 20.796875 -1.421875 13.15625 6.1875 
Q 5.515625 13.8125 5.515625 26.8125 
Q 5.515625 40.234375 12.765625 48.109375 
Q 20.015625 56 32.328125 56 
Q 43.359375 56 49.78125 48.890625 
Q 56.203125 41.796875 56.203125 29.59375 
z
M 47.21875 32.234375 
Q 47.125 39.59375 43.09375 43.984375 
Q 39.0625 48.390625 32.421875 48.390625 
Q 24.90625 48.390625 20.390625 44.140625 
Q 15.875 39.890625 15.1875 32.171875 
z
" id="DejaVuSans-101"/>
       <path id="DejaVuSans-32"/>
       <path d="M 8.59375 75.984375 
L 29.296875 75.984375 
L 29.296875 69 
L 17.578125 69 
L 17.578125 -6.203125 
L 29.296875 -6.203125 
L 29.296875 -13.1875 
L 8.59375 -13.1875 
z
" id="DejaVuSans-91"/>
       <path d="M 44.28125 53.078125 
L 44.28125 44.578125 
Q 40.484375 46.53125 36.375 47.5 
Q 32.28125 48.484375 27.875 48.484375 
Q 21.1875 48.484375 17.84375 46.4375 
Q 14.5 44.390625 14.5 40.28125 
Q 14.5 37.15625 16.890625 35.375 
Q 19.28125 33.59375 26.515625 31.984375 
L 29.59375 31.296875 
Q 39.15625 29.25 43.1875 25.515625 
Q 47.21875 21.78125 47.21875 15.09375 
Q 47.21875 7.46875 41.1875 3.015625 
Q 35.15625 -1.421875 24.609375 -1.421875 
Q 20.21875 -1.421875 15.453125 -0.5625 
Q 10.6875 0.296875 5.421875 2 
L 5.421875 11.28125 
Q 10.40625 8.6875 15.234375 7.390625 
Q 20.0625 6.109375 24.8125 6.109375 
Q 31.15625 6.109375 34.5625 8.28125 
Q 37.984375 10.453125 37.984375 14.40625 
Q 37.984375 18.0625 35.515625 20.015625 
Q 33.0625 21.96875 24.703125 23.78125 
L 21.578125 24.515625 
Q 13.234375 26.265625 9.515625 29.90625 
Q 5.8125 33.546875 5.8125 39.890625 
Q 5.8125 47.609375 11.28125 51.796875 
Q 16.75 56 26.8125 56 
Q 31.78125 56 36.171875 55.265625 
Q 40.578125 54.546875 44.28125 53.078125 
z
" id="DejaVuSans-115"/>
       <path d="M 30.421875 75.984375 
L 30.421875 -13.1875 
L 9.71875 -13.1875 
L 9.71875 -6.203125 
L 21.390625 -6.203125 
L 21.390625 69 
L 9.71875 69 
L 9.71875 75.984375 
z
" id="DejaVuSans-93"/>
      </defs>
      <use xlink:href="#DejaVuSans-84"/>
      <use x="57.958984" xlink:href="#DejaVuSans-105"/>
      <use x="85.742188" xlink:href="#DejaVuSans-109"/>
      <use x="183.154297" xlink:href="#DejaVuSans-101"/>
      <use x="244.677734" xlink:href="#DejaVuSans-32"/>
      <use x="276.464844" xlink:href="#DejaVuSans-91"/>
      <use x="315.478516" xlink:href="#DejaVuSans-109"/>
      <use x="412.890625" xlink:href="#DejaVuSans-115"/>
      <use x="464.990234" xlink:href="#DejaVuSans-93"/>
     </g>
    </g>
   </g>
   <g id="matplotlib.axis_2">
    <g id="ytick_1">
     <g id="line2d_11">
      <path clip-path="url(#p7023436f05)" d="M 56.847002 111.614319 
L 565.2 111.614319 
" style="fill:none;stroke:#b0b0b0;stroke-linecap:square;stroke-width:0.8;"/>
     </g>
     <g id="line2d_12">
      <defs>
       <path d="M 0 0 
L -3.5 0 
" id="m04c2f97cd5" style="stroke:#000000;stroke-width:0.8;"/>
      </defs>
      <g>
       <use style="stroke:#000000;stroke-width:0.8;" x="56.847002" xlink:href="#m04c2f97cd5" y="111.614319"/>
      </g>
     </g>
     <g id="text_7">
      <!-- $\mathdefault{−1.0}$ -->
      <g transform="translate(25.547002 115.413538)scale(0.1 -0.1)">
       <defs>
        <path d="M 10.59375 35.5 
L 73.1875 35.5 
L 73.1875 27.203125 
L 10.59375 27.203125 
z
" id="DejaVuSans-8722"/>
       </defs>
       <use transform="translate(0 0.78125)" xlink:href="#DejaVuSans-8722"/>
       <use transform="translate(83.789062 0.78125)" xlink:href="#DejaVuSans-49"/>
       <use transform="translate(147.412109 0.78125)" xlink:href="#DejaVuSans-46"/>
       <use transform="translate(179.199219 0.78125)" xlink:href="#DejaVuSans-48"/>
      </g>
     </g>
    </g>
    <g id="ytick_2">
     <g id="line2d_13">
      <path clip-path="url(#p7023436f05)" d="M 56.847002 72.899839 
L 565.2 72.899839 
" style="fill:none;stroke:#b0b0b0;stroke-linecap:square;stroke-width:0.8;"/>
     </g>
     <g id="line2d_14">
      <g>
       <use style="stroke:#000000;stroke-width:0.8;" x="56.847002" xlink:href="#m04c2f97cd5" y="72.899839"/>
      </g>
     </g>
     <g id="text_8">
      <!-- $\mathdefault{−0.5}$ -->
      <g transform="translate(25.547002 76.699058)scale(0.1 -0.1)">
       <defs>
        <path d="M 10.796875 72.90625 
L 49.515625 72.90625 
L 49.515625 64.59375 
L 19.828125 64.59375 
L 19.828125 46.734375 
Q 21.96875 47.46875 24.109375 47.828125 
Q 26.265625 48.1875 28.421875 48.1875 
Q 40.625 48.1875 47.75 41.5 
Q 54.890625 34.8125 54.890625 23.390625 
Q 54.890625 11.625 47.5625 5.09375 
Q 40.234375 -1.421875 26.90625 -1.421875 
Q 22.3125 -1.421875 17.546875 -0.640625 
Q 12.796875 0.140625 7.71875 1.703125 
L 7.71875 11.625 
Q 12.109375 9.234375 16.796875 8.0625 
Q 21.484375 6.890625 26.703125 6.890625 
Q 35.15625 6.890625 40.078125 11.328125 
Q 45.015625 15.765625 45.015625 23.390625 
Q 45.015625 31 40.078125 35.4375 
Q 35.15625 39.890625 26.703125 39.890625 
Q 22.75 39.890625 18.8125 39.015625 
Q 14.890625 38.140625 10.796875 36.28125 
z
" id="DejaVuSans-53"/>
       </defs>
       <use transform="translate(0 0.78125)" xlink:href="#DejaVuSans-8722"/>
       <use transform="translate(83.789062 0.78125)" xlink:href="#DejaVuSans-48"/>
       <use transform="translate(147.412109 0.78125)" xlink:href="#DejaVuSans-46"/>
       <use transform="translate(179.199219 0.78125)" xlink:href="#DejaVuSans-53"/>
      </g>
     </g>
    </g>
    <g id="ytick_3">
     <g id="line2d_15">
      <path clip-path="url(#p7023436f05)" d="M 56.847002 34.18536 
L 565.2 34.18536 
" style="fill:none;stroke:#b0b0b0;stroke-linecap:square;stroke-width:0.8;"/>
     </g>
     <g id="line2d_16">
      <g>
       <use style="stroke:#000000;stroke-width:0.8;" x="56.847002" xlink:href="#m04c2f97cd5" y="34.18536"/>
      </g>
     </g>
     <g id="text_9">
      <!-- $\mathdefault{0.0}$ -->
      <g transform="translate(33.847002 37.984578)scale(0.1 -0.1)">
       <use transform="translate(0 0.78125)" xlink:href="#DejaVuSans-48"/>
       <use transform="translate(63.623047 0.78125)" xlink:href="#DejaVuSans-46"/>
       <use transform="translate(95.410156 0.78125)" xlink:href="#DejaVuSans-48"/>
      </g>
     </g>
    </g>
    <g id="text_10">
     <!-- vel. [m/s] -->
     <g transform="translate(19.467314 110.174063)rotate(-90)scale(0.1 -0.1)">
      <defs>
       <path d="M 2.984375 54.6875 
L 12.5 54.6875 
L 29.59375 8.796875 
L 46.6875 54.6875 
L 56.203125 54.6875 
L 35.6875 0 
L 23.484375 0 
z
" id="DejaVuSans-118"/>
       <path d="M 9.421875 75.984375 
L 18.40625 75.984375 
L 18.40625 0 
L 9.421875 0 
z
" id="DejaVuSans-108"/>
       <path d="M 25.390625 72.90625 
L 33.6875 72.90625 
L 8.296875 -9.28125 
L 0 -9.28125 
z
" id="DejaVuSans-47"/>
      </defs>
      <use xlink:href="#DejaVuSans-118"/>
      <use x="59.179688" xlink:href="#DejaVuSans-101"/>
      <use x="120.703125" xlink:href="#DejaVuSans-108"/>
      <use x="148.486328" xlink:href="#DejaVuSans-46"/>
      <use x="180.273438" xlink:href="#DejaVuSans-32"/>
      <use x="212.060547" xlink:href="#DejaVuSans-91"/>
      <use x="251.074219" xlink:href="#DejaVuSans-109"/>
      <use x="348.486328" xlink:href="#DejaVuSans-47"/>
      <use x="382.177734" xlink:href="#DejaVuSans-115"/>
      <use x="434.277344" xlink:href="#DejaVuSans-93"/>
     </g>
    </g>
    <g id="text_11">
     <!-- $\times\mathdefault{10^{2}}\mathdefault{}$ -->
     <g transform="translate(56.847002 23.88)scale(0.1 -0.1)">
      <defs>
       <path d="M 70.125 53.71875 
L 47.796875 31.296875 
L 70.125 8.984375 
L 64.3125 3.078125 
L 41.890625 25.484375 
L 19.484375 3.078125 
L 13.71875 8.984375 
L 35.984375 31.296875 
L 13.71875 53.71875 
L 19.484375 59.625 
L 41.890625 37.203125 
L 64.3125 59.625 
z
" id="DejaVuSans-215"/>
      </defs>
      <use transform="translate(0 0.765625)" xlink:href="#DejaVuSans-215"/>
      <use transform="translate(83.789062 0.765625)" xlink:href="#DejaVuSans-49"/>
      <use transform="translate(147.412109 0.765625)" xlink:href="#DejaVuSans-48"/>
      <use transform="translate(211.992188 39.046875)scale(0.7)" xlink:href="#DejaVuSans-50"/>
     </g>
    </g>
   </g>
   <g id="line2d_17">
    <path clip-path="url(#p7023436f05)" d="M 79.953956 34.18536 
L 542.093046 34.18536 
L 542.093046 34.18536 
" style="fill:none;stroke:#1f77b4;stroke-linecap:square;stroke-width:2;"/>
   </g>
   <g id="line2d_18">
    <path clip-path="url(#p7023436f05)" d="M 79.953956 34.18536 
L 80.945671 35.12832 
L 81.937386 37.956104 
L 82.929101 36.070917 
L 83.920816 37.956467 
L 84.91253 37.956289 
L 85.904245 37.013692 
L 86.89596 38.89925 
L 87.887675 37.956653 
L 89.871104 39.842211 
L 92.846249 39.841839 
L 93.837963 40.784622 
L 94.829678 43.61311 
L 95.821393 42.670567 
L 96.813108 42.67018 
L 97.804823 41.727583 
L 98.796537 41.727583 
L 99.788252 44.55604 
L 100.779967 45.498505 
L 101.771682 45.498892 
L 102.763396 47.384055 
L 103.755111 47.384365 
L 104.746826 48.326907 
L 105.738541 50.212457 
L 107.72197 52.098007 
L 109.7054 55.86903 
L 110.697115 56.811805 
L 111.688829 56.81165 
L 112.680544 57.754425 
L 113.672259 56.811728 
L 114.663974 57.75489 
L 115.655689 56.81196 
L 116.647403 58.69751 
L 117.639118 61.525835 
L 118.630833 58.697587 
L 119.622548 57.754735 
L 120.614263 55.869107 
L 121.605977 57.754658 
L 122.597692 55.869185 
L 123.589407 55.869185 
L 124.581122 53.040705 
L 125.572836 48.327062 
L 126.564551 48.326907 
L 127.556266 45.49866 
L 128.547981 44.555885 
L 129.539696 41.727544 
L 130.53141 39.841956 
L 131.523125 39.841932 
L 132.51484 35.128042 
L 133.506555 37.95656 
L 134.49827 39.841847 
L 135.489984 37.013599 
L 136.481699 37.013878 
L 137.473414 35.127771 
L 138.465129 39.842025 
L 139.456843 41.727204 
L 140.448558 47.38421 
L 141.440273 48.327217 
L 142.431988 52.098317 
L 143.423703 58.6972 
L 144.415417 66.240175 
L 145.407132 69.068345 
L 146.398847 81.323878 
L 147.390562 85.094978 
L 148.382276 93.580185 
L 149.373991 106.778726 
L 150.365706 111.49353 
L 151.357421 112.435841 
L 152.349136 126.577466 
L 153.34085 123.748986 
L 154.332565 128.462087 
L 155.32428 135.061357 
L 156.315995 139.776006 
L 157.30771 137.889837 
L 158.299424 140.719091 
L 159.291139 132.234426 
L 160.282854 139.776006 
L 161.274569 136.004442 
L 162.266283 135.061357 
L 163.257998 131.291341 
L 164.249713 122.806675 
L 165.241428 119.978195 
L 166.233143 119.978195 
L 168.216572 102.063844 
L 169.208287 98.29499 
L 170.200002 92.637178 
L 171.191716 88.865381 
L 172.183431 80.380871 
L 174.166861 69.068345 
L 176.15029 59.638736 
L 177.142005 59.638736 
L 178.13372 56.810566 
L 179.125435 57.75427 
L 180.11715 53.983867 
L 181.108864 53.982396 
L 182.100579 54.9261 
L 183.092294 57.755742 
L 184.084009 55.869804 
L 185.075723 52.099401 
L 186.067438 61.524596 
L 188.050868 65.297942 
L 190.034297 67.182408 
L 192.017727 67.182408 
L 193.009442 65.29647 
L 194.001157 70.010578 
L 194.992871 68.124641 
L 195.984586 68.124641 
L 196.976301 64.352766 
L 197.968016 73.780904 
L 198.95973 67.182408 
L 199.951445 68.124641 
L 200.94316 65.29647 
L 201.934875 63.409062 
L 202.92659 63.412004 
L 203.918304 65.297942 
L 204.910019 58.696503 
L 205.901734 64.352766 
L 206.893449 63.412004 
L 207.885163 65.29647 
L 208.876878 62.466829 
L 209.868593 67.183879 
L 210.860308 66.238703 
L 211.852023 64.354237 
L 212.843737 65.299413 
L 213.835452 67.183879 
L 214.827167 65.29647 
L 215.818882 67.180936 
L 216.810597 70.007558 
L 217.802311 69.071287 
L 218.794026 70.952733 
L 219.785741 73.782375 
L 221.76917 75.666841 
L 223.7526 85.094978 
L 224.744315 83.210512 
L 225.73603 88.866852 
L 226.727744 88.86391 
L 228.711174 98.292047 
L 229.702889 98.292047 
L 230.694604 100.182398 
L 231.686318 100.179456 
L 233.669748 102.063922 
L 235.653177 100.179456 
L 236.644892 97.352757 
L 237.636607 96.407581 
L 238.628322 99.237223 
L 239.620037 95.465348 
L 240.611751 94.523115 
L 241.603466 86.979444 
L 242.595181 85.09792 
L 243.586896 80.380871 
L 244.57861 78.496482 
L 245.570325 72.837199 
L 246.56204 72.840142 
L 247.553755 68.123169 
L 248.54547 66.241646 
L 250.528899 56.813509 
L 251.520614 57.752799 
L 252.512329 56.813509 
L 254.495758 51.154226 
L 256.479188 49.26976 
L 257.470903 49.27278 
L 258.462617 50.214935 
L 259.454332 48.327604 
L 260.446047 45.497963 
L 261.437762 48.327604 
L 262.429477 45.500905 
L 263.421191 45.500905 
L 264.412906 46.440196 
L 265.404621 44.55573 
L 266.396336 46.443138 
L 267.388051 49.26976 
L 268.379765 45.497963 
L 269.37148 46.443138 
L 270.363195 43.613497 
L 271.35491 44.55573 
L 272.346624 46.440196 
L 273.338339 50.211993 
L 276.313484 55.868333 
L 277.305198 62.469771 
L 278.296913 65.299413 
L 279.288628 61.527538 
L 280.280343 70.01352 
L 281.272057 74.724608 
L 282.263772 77.551307 
L 283.255487 77.554249 
L 284.247202 86.979444 
L 285.238917 88.86391 
L 286.230631 95.468291 
L 288.214061 103.003135 
L 289.205776 109.610535 
L 290.197491 109.601708 
L 291.189205 118.090477 
L 293.172635 119.975098 
L 294.16435 122.804353 
L 295.156064 123.746663 
L 296.147779 126.576691 
L 297.139494 125.634381 
L 298.131209 125.631284 
L 299.122924 123.746663 
L 301.106353 127.519002 
L 302.098068 123.74976 
L 303.089783 124.688973 
L 304.081497 122.810547 
L 307.056642 119.975098 
L 308.048357 115.261223 
L 309.040071 114.32201 
L 310.031786 109.607593 
L 311.023501 113.376602 
L 312.015216 106.777952 
L 313.006931 102.05796 
L 313.998645 93.580882 
L 314.99036 92.635707 
L 315.982075 87.924619 
L 316.97379 82.262394 
L 317.965504 74.724608 
L 318.957219 70.955753 
L 319.948934 66.235761 
L 320.940649 60.579421 
L 321.932364 60.582363 
L 322.924078 56.810566 
L 323.915793 52.096459 
L 325.899223 48.321642 
L 326.890938 45.497963 
L 327.882652 40.780929 
L 328.874367 43.610555 
L 329.866082 41.726104 
L 330.857797 44.561615 
L 331.849511 42.668322 
L 332.841226 47.379409 
L 333.832941 46.443138 
L 334.824656 50.209051 
L 335.816371 47.385371 
L 336.808085 49.26976 
L 337.7998 55.871275 
L 338.791515 56.810566 
L 339.78323 60.591267 
L 340.774944 63.409062 
L 343.750089 74.715781 
L 344.741804 75.672725 
L 345.733518 77.557191 
L 346.725233 83.210512 
L 347.716948 84.155687 
L 348.708663 84.149803 
L 350.692092 86.034269 
L 351.683807 82.265337 
L 352.675522 85.094978 
L 353.667237 83.216474 
L 354.658951 86.979444 
L 355.650666 85.094978 
L 356.642381 88.86391 
L 357.634096 84.149803 
L 358.625811 86.973559 
L 359.617525 85.094978 
L 360.60924 85.089093 
L 361.600955 83.210512 
L 362.59267 84.149803 
L 363.584385 83.204627 
L 364.576099 84.155687 
L 365.567814 81.326123 
L 366.559529 82.265337 
L 367.551244 80.374986 
L 368.542958 82.265337 
L 369.534673 80.380948 
L 370.526388 80.386833 
L 371.518103 79.435773 
L 372.509818 77.551307 
L 373.501532 78.496482 
L 374.493247 83.210589 
L 375.484962 83.204627 
L 376.476677 82.265337 
L 377.468391 78.496482 
L 378.460106 77.557191 
L 379.451821 79.435773 
L 380.443536 80.380948 
L 381.435251 80.380948 
L 382.426965 82.271299 
L 383.41868 79.435773 
L 384.410395 83.210589 
L 385.40211 86.040153 
L 386.393825 86.034269 
L 387.385539 89.809085 
L 388.377254 88.86391 
L 389.368969 88.86391 
L 390.360684 90.754261 
L 391.352398 89.809085 
L 392.344113 94.523115 
L 393.335828 96.413466 
L 394.327543 93.583902 
L 395.319258 96.407581 
L 397.302687 100.182398 
L 398.294402 99.237223 
L 399.286117 99.231338 
L 400.277831 96.407581 
L 401.269546 101.121689 
L 402.261261 99.237223 
L 403.252976 95.468291 
L 404.244691 96.407581 
L 405.236405 92.632765 
L 406.22812 94.523115 
L 407.219835 94.523115 
L 408.21155 89.809085 
L 409.203265 86.040153 
L 410.194979 86.985329 
L 411.186694 81.320161 
L 412.178409 83.210512 
L 414.161838 79.441657 
L 416.145268 77.557191 
L 417.136983 77.551307 
L 418.128698 76.612016 
L 419.120412 71.897909 
L 420.112127 70.952733 
L 421.103842 66.238703 
L 422.095557 67.183879 
L 423.087272 66.238703 
L 424.078986 67.183879 
L 425.070701 67.189763 
L 426.062416 64.354237 
L 427.054131 62.463887 
L 428.045845 63.415024 
L 429.03756 62.469771 
L 430.029275 65.299413 
L 432.012705 63.409062 
L 433.004419 64.354237 
L 433.996134 68.129054 
L 435.979564 66.244588 
L 436.971278 66.238703 
L 437.962993 68.134939 
L 438.954708 65.293528 
L 439.946423 68.123169 
L 440.938138 71.897986 
L 441.929852 69.068345 
L 442.921567 71.897909 
L 443.913282 75.672725 
L 444.904997 74.72755 
L 445.896712 75.672725 
L 446.888426 80.386833 
L 448.871856 82.265337 
L 449.863571 82.271299 
L 450.855285 81.320161 
L 451.847 83.210512 
L 452.838715 83.204627 
L 453.83043 85.094978 
L 455.813859 81.326123 
L 456.805574 85.100863 
L 457.797289 82.271299 
L 459.780719 82.271299 
L 461.764148 80.386833 
L 462.755863 81.326123 
L 463.747578 79.435773 
L 464.739292 80.386833 
L 465.731007 79.441657 
L 466.722722 76.612016 
L 467.714437 77.557191 
L 468.706152 76.612016 
L 469.697866 76.606131 
L 470.689581 77.551307 
L 472.673011 75.666841 
L 473.664725 76.606131 
L 474.65644 76.606131 
L 475.648155 74.721665 
L 476.63987 75.660956 
L 477.631585 77.551307 
L 478.623299 74.72755 
L 480.606729 74.72755 
L 481.598444 72.837199 
L 482.590159 74.72755 
L 483.581873 74.72755 
L 484.573588 75.666841 
L 487.548732 72.843161 
L 488.540447 73.782375 
L 489.532162 75.666841 
L 490.523877 73.782375 
L 491.515592 72.837199 
L 492.507306 72.837199 
L 495.482451 70.01352 
L 496.474166 70.01352 
L 497.46588 67.183879 
L 499.44931 67.183879 
L 500.441025 64.354237 
L 501.432739 64.360122 
L 502.424454 63.409062 
L 503.416169 65.293528 
L 505.399599 61.524596 
L 506.391313 62.469771 
L 507.383028 61.524596 
L 508.374743 59.646092 
L 509.366458 60.585383 
L 511.349887 56.810566 
L 512.341602 57.749857 
L 513.333317 56.804604 
L 514.325032 56.810566 
L 515.316746 53.980925 
L 516.308461 53.980925 
L 517.300176 52.096459 
L 518.291891 54.931985 
L 519.283606 53.041634 
L 521.267035 51.157168 
L 523.250465 51.157168 
L 524.242179 47.382429 
L 525.233894 47.382429 
L 526.225609 46.437254 
L 529.200753 40.789787 
L 531.184183 40.789787 
L 532.175898 37.960161 
L 533.167612 36.075718 
L 534.159327 36.063902 
L 535.151042 35.130535 
L 536.142757 35.124627 
L 538.126186 33.240184 
L 539.117901 34.191267 
L 540.109616 32.300909 
L 542.093046 32.300909 
L 542.093046 32.300909 
" style="fill:none;stroke:#ff7f0e;stroke-linecap:square;stroke-width:2;"/>
   </g>
   <g id="patch_3">
    <path d="M 56.847002 146.14 
L 56.847002 26.88 
" style="fill:none;stroke:#000000;stroke-linecap:square;stroke-linejoin:miter;stroke-width:0.8;"/>
   </g>
   <g id="patch_4">
    <path d="M 565.2 146.14 
L 565.2 26.88 
" style="fill:none;stroke:#000000;stroke-linecap:square;stroke-linejoin:miter;stroke-width:0.8;"/>
   </g>
   <g id="patch_5">
    <path d="M 56.847002 146.14 
L 565.2 146.14 
" style="fill:none;stroke:#000000;stroke-linecap:square;stroke-linejoin:miter;stroke-width:0.8;"/>
   </g>
   <g id="patch_6">
    <path d="M 56.847002 26.88 
L 565.2 26.88 
" style="fill:none;stroke:#000000;stroke-linecap:square;stroke-linejoin:miter;stroke-width:0.8;"/>
   </g>
   <g id="text_12">
    <!-- Translational Velocity -->
    <g transform="translate(247.546313 20.88)scale(0.12 -0.12)">
     <defs>
      <path d="M 41.109375 46.296875 
Q 39.59375 47.171875 37.8125 47.578125 
Q 36.03125 48 33.890625 48 
Q 26.265625 48 22.1875 43.046875 
Q 18.109375 38.09375 18.109375 28.8125 
L 18.109375 0 
L 9.078125 0 
L 9.078125 54.6875 
L 18.109375 54.6875 
L 18.109375 46.1875 
Q 20.953125 51.171875 25.484375 53.578125 
Q 30.03125 56 36.53125 56 
Q 37.453125 56 38.578125 55.875 
Q 39.703125 55.765625 41.0625 55.515625 
z
" id="DejaVuSans-114"/>
      <path d="M 34.28125 27.484375 
Q 23.390625 27.484375 19.1875 25 
Q 14.984375 22.515625 14.984375 16.5 
Q 14.984375 11.71875 18.140625 8.90625 
Q 21.296875 6.109375 26.703125 6.109375 
Q 34.1875 6.109375 38.703125 11.40625 
Q 43.21875 16.703125 43.21875 25.484375 
L 43.21875 27.484375 
z
M 52.203125 31.203125 
L 52.203125 0 
L 43.21875 0 
L 43.21875 8.296875 
Q 40.140625 3.328125 35.546875 0.953125 
Q 30.953125 -1.421875 24.3125 -1.421875 
Q 15.921875 -1.421875 10.953125 3.296875 
Q 6 8.015625 6 15.921875 
Q 6 25.140625 12.171875 29.828125 
Q 18.359375 34.515625 30.609375 34.515625 
L 43.21875 34.515625 
L 43.21875 35.40625 
Q 43.21875 41.609375 39.140625 45 
Q 35.0625 48.390625 27.6875 48.390625 
Q 23 48.390625 18.546875 47.265625 
Q 14.109375 46.140625 10.015625 43.890625 
L 10.015625 52.203125 
Q 14.9375 54.109375 19.578125 55.046875 
Q 24.21875 56 28.609375 56 
Q 40.484375 56 46.34375 49.84375 
Q 52.203125 43.703125 52.203125 31.203125 
z
" id="DejaVuSans-97"/>
      <path d="M 54.890625 33.015625 
L 54.890625 0 
L 45.90625 0 
L 45.90625 32.71875 
Q 45.90625 40.484375 42.875 44.328125 
Q 39.84375 48.1875 33.796875 48.1875 
Q 26.515625 48.1875 22.3125 43.546875 
Q 18.109375 38.921875 18.109375 30.90625 
L 18.109375 0 
L 9.078125 0 
L 9.078125 54.6875 
L 18.109375 54.6875 
L 18.109375 46.1875 
Q 21.34375 51.125 25.703125 53.5625 
Q 30.078125 56 35.796875 56 
Q 45.21875 56 50.046875 50.171875 
Q 54.890625 44.34375 54.890625 33.015625 
z
" id="DejaVuSans-110"/>
      <path d="M 18.3125 70.21875 
L 18.3125 54.6875 
L 36.8125 54.6875 
L 36.8125 47.703125 
L 18.3125 47.703125 
L 18.3125 18.015625 
Q 18.3125 11.328125 20.140625 9.421875 
Q 21.96875 7.515625 27.59375 7.515625 
L 36.8125 7.515625 
L 36.8125 0 
L 27.59375 0 
Q 17.1875 0 13.234375 3.875 
Q 9.28125 7.765625 9.28125 18.015625 
L 9.28125 47.703125 
L 2.6875 47.703125 
L 2.6875 54.6875 
L 9.28125 54.6875 
L 9.28125 70.21875 
z
" id="DejaVuSans-116"/>
      <path d="M 30.609375 48.390625 
Q 23.390625 48.390625 19.1875 42.75 
Q 14.984375 37.109375 14.984375 27.296875 
Q 14.984375 17.484375 19.15625 11.84375 
Q 23.34375 6.203125 30.609375 6.203125 
Q 37.796875 6.203125 41.984375 11.859375 
Q 46.1875 17.53125 46.1875 27.296875 
Q 46.1875 37.015625 41.984375 42.703125 
Q 37.796875 48.390625 30.609375 48.390625 
z
M 30.609375 56 
Q 42.328125 56 49.015625 48.375 
Q 55.71875 40.765625 55.71875 27.296875 
Q 55.71875 13.875 49.015625 6.21875 
Q 42.328125 -1.421875 30.609375 -1.421875 
Q 18.84375 -1.421875 12.171875 6.21875 
Q 5.515625 13.875 5.515625 27.296875 
Q 5.515625 40.765625 12.171875 48.375 
Q 18.84375 56 30.609375 56 
z
" id="DejaVuSans-111"/>
      <path d="M 28.609375 0 
L 0.78125 72.90625 
L 11.078125 72.90625 
L 34.1875 11.53125 
L 57.328125 72.90625 
L 67.578125 72.90625 
L 39.796875 0 
z
" id="DejaVuSans-86"/>
      <path d="M 48.78125 52.59375 
L 48.78125 44.1875 
Q 44.96875 46.296875 41.140625 47.34375 
Q 37.3125 48.390625 33.40625 48.390625 
Q 24.65625 48.390625 19.8125 42.84375 
Q 14.984375 37.3125 14.984375 27.296875 
Q 14.984375 17.28125 19.8125 11.734375 
Q 24.65625 6.203125 33.40625 6.203125 
Q 37.3125 6.203125 41.140625 7.25 
Q 44.96875 8.296875 48.78125 10.40625 
L 48.78125 2.09375 
Q 45.015625 0.34375 40.984375 -0.53125 
Q 36.96875 -1.421875 32.421875 -1.421875 
Q 20.0625 -1.421875 12.78125 6.34375 
Q 5.515625 14.109375 5.515625 27.296875 
Q 5.515625 40.671875 12.859375 48.328125 
Q 20.21875 56 33.015625 56 
Q 37.15625 56 41.109375 55.140625 
Q 45.0625 54.296875 48.78125 52.59375 
z
" id="DejaVuSans-99"/>
      <path d="M 32.171875 -5.078125 
Q 28.375 -14.84375 24.75 -17.8125 
Q 21.140625 -20.796875 15.09375 -20.796875 
L 7.90625 -20.796875 
L 7.90625 -13.28125 
L 13.1875 -13.28125 
Q 16.890625 -13.28125 18.9375 -11.515625 
Q 21 -9.765625 23.484375 -3.21875 
L 25.09375 0.875 
L 2.984375 54.6875 
L 12.5 54.6875 
L 29.59375 11.921875 
L 46.6875 54.6875 
L 56.203125 54.6875 
z
" id="DejaVuSans-121"/>
     </defs>
     <use xlink:href="#DejaVuSans-84"/>
     <use x="46.333984" xlink:href="#DejaVuSans-114"/>
     <use x="87.447266" xlink:href="#DejaVuSans-97"/>
     <use x="148.726562" xlink:href="#DejaVuSans-110"/>
     <use x="212.105469" xlink:href="#DejaVuSans-115"/>
     <use x="264.205078" xlink:href="#DejaVuSans-108"/>
     <use x="291.988281" xlink:href="#DejaVuSans-97"/>
     <use x="353.267578" xlink:href="#DejaVuSans-116"/>
     <use x="392.476562" xlink:href="#DejaVuSans-105"/>
     <use x="420.259766" xlink:href="#DejaVuSans-111"/>
     <use x="481.441406" xlink:href="#DejaVuSans-110"/>
     <use x="544.820312" xlink:href="#DejaVuSans-97"/>
     <use x="606.099609" xlink:href="#DejaVuSans-108"/>
     <use x="633.882812" xlink:href="#DejaVuSans-32"/>
     <use x="665.669922" xlink:href="#DejaVuSans-86"/>
     <use x="726.328125" xlink:href="#DejaVuSans-101"/>
     <use x="787.851562" xlink:href="#DejaVuSans-108"/>
     <use x="815.634766" xlink:href="#DejaVuSans-111"/>
     <use x="876.816406" xlink:href="#DejaVuSans-99"/>
     <use x="931.796875" xlink:href="#DejaVuSans-105"/>
     <use x="959.580078" xlink:href="#DejaVuSans-116"/>
     <use x="998.789062" xlink:href="#DejaVuSans-121"/>
    </g>
   </g>
   <g id="legend_1">
    <g id="patch_7">
     <path d="M 63.847002 141.14 
L 146.364189 141.14 
Q 148.364189 141.14 148.364189 139.14 
L 148.364189 110.78375 
Q 148.364189 108.78375 146.364189 108.78375 
L 63.847002 108.78375 
Q 61.847002 108.78375 61.847002 110.78375 
L 61.847002 139.14 
Q 61.847002 141.14 63.847002 141.14 
z
" style="fill:#ffffff;opacity:0.8;stroke:#cccccc;stroke-linejoin:miter;"/>
    </g>
    <g id="line2d_19">
     <path d="M 65.847002 116.882188 
L 85.847002 116.882188 
" style="fill:none;stroke:#1f77b4;stroke-linecap:square;stroke-width:2;"/>
    </g>
    <g id="line2d_20"/>
    <g id="text_13">
     <!-- Reference -->
     <g transform="translate(93.847002 120.382188)scale(0.1 -0.1)">
      <defs>
       <path d="M 44.390625 34.1875 
Q 47.5625 33.109375 50.5625 29.59375 
Q 53.5625 26.078125 56.59375 19.921875 
L 66.609375 0 
L 56 0 
L 46.6875 18.703125 
Q 43.0625 26.03125 39.671875 28.421875 
Q 36.28125 30.8125 30.421875 30.8125 
L 19.671875 30.8125 
L 19.671875 0 
L 9.8125 0 
L 9.8125 72.90625 
L 32.078125 72.90625 
Q 44.578125 72.90625 50.734375 67.671875 
Q 56.890625 62.453125 56.890625 51.90625 
Q 56.890625 45.015625 53.6875 40.46875 
Q 50.484375 35.9375 44.390625 34.1875 
z
M 19.671875 64.796875 
L 19.671875 38.921875 
L 32.078125 38.921875 
Q 39.203125 38.921875 42.84375 42.21875 
Q 46.484375 45.515625 46.484375 51.90625 
Q 46.484375 58.296875 42.84375 61.546875 
Q 39.203125 64.796875 32.078125 64.796875 
z
" id="DejaVuSans-82"/>
       <path d="M 37.109375 75.984375 
L 37.109375 68.5 
L 28.515625 68.5 
Q 23.6875 68.5 21.796875 66.546875 
Q 19.921875 64.59375 19.921875 59.515625 
L 19.921875 54.6875 
L 34.71875 54.6875 
L 34.71875 47.703125 
L 19.921875 47.703125 
L 19.921875 0 
L 10.890625 0 
L 10.890625 47.703125 
L 2.296875 47.703125 
L 2.296875 54.6875 
L 10.890625 54.6875 
L 10.890625 58.5 
Q 10.890625 67.625 15.140625 71.796875 
Q 19.390625 75.984375 28.609375 75.984375 
z
" id="DejaVuSans-102"/>
      </defs>
      <use xlink:href="#DejaVuSans-82"/>
      <use x="64.982422" xlink:href="#DejaVuSans-101"/>
      <use x="126.505859" xlink:href="#DejaVuSans-102"/>
      <use x="161.710938" xlink:href="#DejaVuSans-101"/>
      <use x="223.234375" xlink:href="#DejaVuSans-114"/>
      <use x="262.097656" xlink:href="#DejaVuSans-101"/>
      <use x="323.621094" xlink:href="#DejaVuSans-110"/>
      <use x="387" xlink:href="#DejaVuSans-99"/>
      <use x="441.980469" xlink:href="#DejaVuSans-101"/>
     </g>
    </g>
    <g id="line2d_21">
     <path d="M 65.847002 131.560313 
L 85.847002 131.560313 
" style="fill:none;stroke:#ff7f0e;stroke-linecap:square;stroke-width:2;"/>
    </g>
    <g id="line2d_22"/>
    <g id="text_14">
     <!-- Estimated -->
     <g transform="translate(93.847002 135.060313)scale(0.1 -0.1)">
      <defs>
       <path d="M 9.8125 72.90625 
L 55.90625 72.90625 
L 55.90625 64.59375 
L 19.671875 64.59375 
L 19.671875 43.015625 
L 54.390625 43.015625 
L 54.390625 34.71875 
L 19.671875 34.71875 
L 19.671875 8.296875 
L 56.78125 8.296875 
L 56.78125 0 
L 9.8125 0 
z
" id="DejaVuSans-69"/>
       <path d="M 45.40625 46.390625 
L 45.40625 75.984375 
L 54.390625 75.984375 
L 54.390625 0 
L 45.40625 0 
L 45.40625 8.203125 
Q 42.578125 3.328125 38.25 0.953125 
Q 33.9375 -1.421875 27.875 -1.421875 
Q 17.96875 -1.421875 11.734375 6.484375 
Q 5.515625 14.40625 5.515625 27.296875 
Q 5.515625 40.1875 11.734375 48.09375 
Q 17.96875 56 27.875 56 
Q 33.9375 56 38.25 53.625 
Q 42.578125 51.265625 45.40625 46.390625 
z
M 14.796875 27.296875 
Q 14.796875 17.390625 18.875 11.75 
Q 22.953125 6.109375 30.078125 6.109375 
Q 37.203125 6.109375 41.296875 11.75 
Q 45.40625 17.390625 45.40625 27.296875 
Q 45.40625 37.203125 41.296875 42.84375 
Q 37.203125 48.484375 30.078125 48.484375 
Q 22.953125 48.484375 18.875 42.84375 
Q 14.796875 37.203125 14.796875 27.296875 
z
" id="DejaVuSans-100"/>
      </defs>
      <use xlink:href="#DejaVuSans-69"/>
      <use x="63.183594" xlink:href="#DejaVuSans-115"/>
      <use x="115.283203" xlink:href="#DejaVuSans-116"/>
      <use x="154.492188" xlink:href="#DejaVuSans-105"/>
      <use x="182.275391" xlink:href="#DejaVuSans-109"/>
      <use x="279.6875" xlink:href="#DejaVuSans-97"/>
      <use x="340.966797" xlink:href="#DejaVuSans-116"/>
      <use x="380.175781" xlink:href="#DejaVuSans-101"/>
      <use x="441.699219" xlink:href="#DejaVuSans-100"/>
     </g>
    </g>
   </g>
  </g>
  <g id="axes_2">
   <g id="patch_8">
    <path d="M 56.847002 323.44 
L 565.2 323.44 
L 565.2 204.18 
L 56.847002 204.18 
z
" style="fill:#ffffff;"/>
   </g>
   <g id="matplotlib.axis_3">
    <g id="xtick_6">
     <g id="line2d_23">
      <path clip-path="url(#p85d93da305)" d="M 79.953956 323.44 
L 79.953956 204.18 
" style="fill:none;stroke:#b0b0b0;stroke-linecap:square;stroke-width:0.8;"/>
     </g>
     <g id="line2d_24">
      <g>
       <use style="stroke:#000000;stroke-width:0.8;" x="79.953956" xlink:href="#mdee8d34328" y="323.44"/>
      </g>
     </g>
     <g id="text_15">
      <!-- 0.0 -->
      <g transform="translate(72.002394 338.038438)scale(0.1 -0.1)">
       <use xlink:href="#DejaVuSans-48"/>
       <use x="63.623047" xlink:href="#DejaVuSans-46"/>
       <use x="95.410156" xlink:href="#DejaVuSans-48"/>
      </g>
     </g>
    </g>
    <g id="xtick_7">
     <g id="line2d_25">
      <path clip-path="url(#p85d93da305)" d="M 179.125435 323.44 
L 179.125435 204.18 
" style="fill:none;stroke:#b0b0b0;stroke-linecap:square;stroke-width:0.8;"/>
     </g>
     <g id="line2d_26">
      <g>
       <use style="stroke:#000000;stroke-width:0.8;" x="179.125435" xlink:href="#mdee8d34328" y="323.44"/>
      </g>
     </g>
     <g id="text_16">
      <!-- 0.1 -->
      <g transform="translate(171.173872 338.038438)scale(0.1 -0.1)">
       <use xlink:href="#DejaVuSans-48"/>
       <use x="63.623047" xlink:href="#DejaVuSans-46"/>
       <use x="95.410156" xlink:href="#DejaVuSans-49"/>
      </g>
     </g>
    </g>
    <g id="xtick_8">
     <g id="line2d_27">
      <path clip-path="url(#p85d93da305)" d="M 278.296913 323.44 
L 278.296913 204.18 
" style="fill:none;stroke:#b0b0b0;stroke-linecap:square;stroke-width:0.8;"/>
     </g>
     <g id="line2d_28">
      <g>
       <use style="stroke:#000000;stroke-width:0.8;" x="278.296913" xlink:href="#mdee8d34328" y="323.44"/>
      </g>
     </g>
     <g id="text_17">
      <!-- 0.2 -->
      <g transform="translate(270.345351 338.038438)scale(0.1 -0.1)">
       <use xlink:href="#DejaVuSans-48"/>
       <use x="63.623047" xlink:href="#DejaVuSans-46"/>
       <use x="95.410156" xlink:href="#DejaVuSans-50"/>
      </g>
     </g>
    </g>
    <g id="xtick_9">
     <g id="line2d_29">
      <path clip-path="url(#p85d93da305)" d="M 377.468391 323.44 
L 377.468391 204.18 
" style="fill:none;stroke:#b0b0b0;stroke-linecap:square;stroke-width:0.8;"/>
     </g>
     <g id="line2d_30">
      <g>
       <use style="stroke:#000000;stroke-width:0.8;" x="377.468391" xlink:href="#mdee8d34328" y="323.44"/>
      </g>
     </g>
     <g id="text_18">
      <!-- 0.3 -->
      <g transform="translate(369.516829 338.038438)scale(0.1 -0.1)">
       <use xlink:href="#DejaVuSans-48"/>
       <use x="63.623047" xlink:href="#DejaVuSans-46"/>
       <use x="95.410156" xlink:href="#DejaVuSans-51"/>
      </g>
     </g>
    </g>
    <g id="xtick_10">
     <g id="line2d_31">
      <path clip-path="url(#p85d93da305)" d="M 476.63987 323.44 
L 476.63987 204.18 
" style="fill:none;stroke:#b0b0b0;stroke-linecap:square;stroke-width:0.8;"/>
     </g>
     <g id="line2d_32">
      <g>
       <use style="stroke:#000000;stroke-width:0.8;" x="476.63987" xlink:href="#mdee8d34328" y="323.44"/>
      </g>
     </g>
     <g id="text_19">
      <!-- 0.4 -->
      <g transform="translate(468.688307 338.038438)scale(0.1 -0.1)">
       <use xlink:href="#DejaVuSans-48"/>
       <use x="63.623047" xlink:href="#DejaVuSans-46"/>
       <use x="95.410156" xlink:href="#DejaVuSans-52"/>
      </g>
     </g>
    </g>
    <g id="text_20">
     <!-- Time [ms] -->
     <g transform="translate(285.824282 351.716563)scale(0.1 -0.1)">
      <use xlink:href="#DejaVuSans-84"/>
      <use x="57.958984" xlink:href="#DejaVuSans-105"/>
      <use x="85.742188" xlink:href="#DejaVuSans-109"/>
      <use x="183.154297" xlink:href="#DejaVuSans-101"/>
      <use x="244.677734" xlink:href="#DejaVuSans-32"/>
      <use x="276.464844" xlink:href="#DejaVuSans-91"/>
      <use x="315.478516" xlink:href="#DejaVuSans-109"/>
      <use x="412.890625" xlink:href="#DejaVuSans-115"/>
      <use x="464.990234" xlink:href="#DejaVuSans-93"/>
     </g>
    </g>
   </g>
   <g id="matplotlib.axis_4">
    <g id="ytick_4">
     <g id="line2d_33">
      <path clip-path="url(#p85d93da305)" d="M 56.847002 318.019091 
L 565.2 318.019091 
" style="fill:none;stroke:#b0b0b0;stroke-linecap:square;stroke-width:0.8;"/>
     </g>
     <g id="line2d_34">
      <g>
       <use style="stroke:#000000;stroke-width:0.8;" x="56.847002" xlink:href="#m04c2f97cd5" y="318.019091"/>
      </g>
     </g>
     <g id="text_21">
      <!-- $\mathdefault{−5.0}$ -->
      <g transform="translate(25.547002 321.81831)scale(0.1 -0.1)">
       <use transform="translate(0 0.78125)" xlink:href="#DejaVuSans-8722"/>
       <use transform="translate(83.789062 0.78125)" xlink:href="#DejaVuSans-53"/>
       <use transform="translate(147.412109 0.78125)" xlink:href="#DejaVuSans-46"/>
       <use transform="translate(179.199219 0.78125)" xlink:href="#DejaVuSans-48"/>
      </g>
     </g>
    </g>
    <g id="ytick_5">
     <g id="line2d_35">
      <path clip-path="url(#p85d93da305)" d="M 56.847002 290.914545 
L 565.2 290.914545 
" style="fill:none;stroke:#b0b0b0;stroke-linecap:square;stroke-width:0.8;"/>
     </g>
     <g id="line2d_36">
      <g>
       <use style="stroke:#000000;stroke-width:0.8;" x="56.847002" xlink:href="#m04c2f97cd5" y="290.914545"/>
      </g>
     </g>
     <g id="text_22">
      <!-- $\mathdefault{−2.5}$ -->
      <g transform="translate(25.547002 294.713764)scale(0.1 -0.1)">
       <use transform="translate(0 0.78125)" xlink:href="#DejaVuSans-8722"/>
       <use transform="translate(83.789062 0.78125)" xlink:href="#DejaVuSans-50"/>
       <use transform="translate(147.412109 0.78125)" xlink:href="#DejaVuSans-46"/>
       <use transform="translate(179.199219 0.78125)" xlink:href="#DejaVuSans-53"/>
      </g>
     </g>
    </g>
    <g id="ytick_6">
     <g id="line2d_37">
      <path clip-path="url(#p85d93da305)" d="M 56.847002 263.81 
L 565.2 263.81 
" style="fill:none;stroke:#b0b0b0;stroke-linecap:square;stroke-width:0.8;"/>
     </g>
     <g id="line2d_38">
      <g>
       <use style="stroke:#000000;stroke-width:0.8;" x="56.847002" xlink:href="#m04c2f97cd5" y="263.81"/>
      </g>
     </g>
     <g id="text_23">
      <!-- $\mathdefault{0.0}$ -->
      <g transform="translate(33.847002 267.609219)scale(0.1 -0.1)">
       <use transform="translate(0 0.78125)" xlink:href="#DejaVuSans-48"/>
       <use transform="translate(63.623047 0.78125)" xlink:href="#DejaVuSans-46"/>
       <use transform="translate(95.410156 0.78125)" xlink:href="#DejaVuSans-48"/>
      </g>
     </g>
    </g>
    <g id="ytick_7">
     <g id="line2d_39">
      <path clip-path="url(#p85d93da305)" d="M 56.847002 236.705455 
L 565.2 236.705455 
" style="fill:none;stroke:#b0b0b0;stroke-linecap:square;stroke-width:0.8;"/>
     </g>
     <g id="line2d_40">
      <g>
       <use style="stroke:#000000;stroke-width:0.8;" x="56.847002" xlink:href="#m04c2f97cd5" y="236.705455"/>
      </g>
     </g>
     <g id="text_24">
      <!-- $\mathdefault{2.5}$ -->
      <g transform="translate(33.847002 240.504673)scale(0.1 -0.1)">
       <use transform="translate(0 0.78125)" xlink:href="#DejaVuSans-50"/>
       <use transform="translate(63.623047 0.78125)" xlink:href="#DejaVuSans-46"/>
       <use transform="translate(95.410156 0.78125)" xlink:href="#DejaVuSans-53"/>
      </g>
     </g>
    </g>
    <g id="ytick_8">
     <g id="line2d_41">
      <path clip-path="url(#p85d93da305)" d="M 56.847002 209.600909 
L 565.2 209.600909 
" style="fill:none;stroke:#b0b0b0;stroke-linecap:square;stroke-width:0.8;"/>
     </g>
     <g id="line2d_42">
      <g>
       <use style="stroke:#000000;stroke-width:0.8;" x="56.847002" xlink:href="#m04c2f97cd5" y="209.600909"/>
      </g>
     </g>
     <g id="text_25">
      <!-- $\mathdefault{5.0}$ -->
      <g transform="translate(33.847002 213.400128)scale(0.1 -0.1)">
       <use transform="translate(0 0.78125)" xlink:href="#DejaVuSans-53"/>
       <use transform="translate(63.623047 0.78125)" xlink:href="#DejaVuSans-46"/>
       <use transform="translate(95.410156 0.78125)" xlink:href="#DejaVuSans-48"/>
      </g>
     </g>
    </g>
    <g id="text_26">
     <!-- pwm input -->
     <g transform="translate(19.467314 290.393594)rotate(-90)scale(0.1 -0.1)">
      <defs>
       <path d="M 18.109375 8.203125 
L 18.109375 -20.796875 
L 9.078125 -20.796875 
L 9.078125 54.6875 
L 18.109375 54.6875 
L 18.109375 46.390625 
Q 20.953125 51.265625 25.265625 53.625 
Q 29.59375 56 35.59375 56 
Q 45.5625 56 51.78125 48.09375 
Q 58.015625 40.1875 58.015625 27.296875 
Q 58.015625 14.40625 51.78125 6.484375 
Q 45.5625 -1.421875 35.59375 -1.421875 
Q 29.59375 -1.421875 25.265625 0.953125 
Q 20.953125 3.328125 18.109375 8.203125 
z
M 48.6875 27.296875 
Q 48.6875 37.203125 44.609375 42.84375 
Q 40.53125 48.484375 33.40625 48.484375 
Q 26.265625 48.484375 22.1875 42.84375 
Q 18.109375 37.203125 18.109375 27.296875 
Q 18.109375 17.390625 22.1875 11.75 
Q 26.265625 6.109375 33.40625 6.109375 
Q 40.53125 6.109375 44.609375 11.75 
Q 48.6875 17.390625 48.6875 27.296875 
z
" id="DejaVuSans-112"/>
       <path d="M 4.203125 54.6875 
L 13.1875 54.6875 
L 24.421875 12.015625 
L 35.59375 54.6875 
L 46.1875 54.6875 
L 57.421875 12.015625 
L 68.609375 54.6875 
L 77.59375 54.6875 
L 63.28125 0 
L 52.6875 0 
L 40.921875 44.828125 
L 29.109375 0 
L 18.5 0 
z
" id="DejaVuSans-119"/>
       <path d="M 8.5 21.578125 
L 8.5 54.6875 
L 17.484375 54.6875 
L 17.484375 21.921875 
Q 17.484375 14.15625 20.5 10.265625 
Q 23.53125 6.390625 29.59375 6.390625 
Q 36.859375 6.390625 41.078125 11.03125 
Q 45.3125 15.671875 45.3125 23.6875 
L 45.3125 54.6875 
L 54.296875 54.6875 
L 54.296875 0 
L 45.3125 0 
L 45.3125 8.40625 
Q 42.046875 3.421875 37.71875 1 
Q 33.40625 -1.421875 27.6875 -1.421875 
Q 18.265625 -1.421875 13.375 4.4375 
Q 8.5 10.296875 8.5 21.578125 
z
M 31.109375 56 
z
" id="DejaVuSans-117"/>
      </defs>
      <use xlink:href="#DejaVuSans-112"/>
      <use x="63.476562" xlink:href="#DejaVuSans-119"/>
      <use x="145.263672" xlink:href="#DejaVuSans-109"/>
      <use x="242.675781" xlink:href="#DejaVuSans-32"/>
      <use x="274.462891" xlink:href="#DejaVuSans-105"/>
      <use x="302.246094" xlink:href="#DejaVuSans-110"/>
      <use x="365.625" xlink:href="#DejaVuSans-112"/>
      <use x="429.101562" xlink:href="#DejaVuSans-117"/>
      <use x="492.480469" xlink:href="#DejaVuSans-116"/>
     </g>
    </g>
    <g id="text_27">
     <!-- $\times\mathdefault{10^{−2}}\mathdefault{}$ -->
     <g transform="translate(56.847002 201.18)scale(0.1 -0.1)">
      <use transform="translate(0 0.765625)" xlink:href="#DejaVuSans-215"/>
      <use transform="translate(83.789062 0.765625)" xlink:href="#DejaVuSans-49"/>
      <use transform="translate(147.412109 0.765625)" xlink:href="#DejaVuSans-48"/>
      <use transform="translate(211.992188 39.046875)scale(0.7)" xlink:href="#DejaVuSans-8722"/>
      <use transform="translate(270.644531 39.046875)scale(0.7)" xlink:href="#DejaVuSans-50"/>
     </g>
    </g>
   </g>
   <g id="line2d_43">
    <path clip-path="url(#p85d93da305)" d="M 79.953956 263.81 
L 542.093046 263.81 
L 542.093046 263.81 
" style="fill:none;stroke:#1f77b4;stroke-linecap:square;stroke-width:2;"/>
   </g>
   <g id="line2d_44">
    <path clip-path="url(#p85d93da305)" d="M 79.953956 263.81 
L 542.093046 263.81 
L 542.093046 263.81 
" style="fill:none;stroke:#ff7f0e;stroke-linecap:square;stroke-width:2;"/>
   </g>
   <g id="line2d_45">
    <path clip-path="url(#p85d93da305)" d="M 79.953956 263.81 
L 542.093046 263.81 
L 542.093046 263.81 
" style="fill:none;stroke:#2ca02c;stroke-linecap:square;stroke-width:2;"/>
   </g>
   <g id="line2d_46">
    <path clip-path="url(#p85d93da305)" d="M 79.953956 263.81 
L 542.093046 263.81 
L 542.093046 263.81 
" style="fill:none;stroke:#d62728;stroke-linecap:square;stroke-width:2;"/>
   </g>
   <g id="line2d_47">
    <path clip-path="url(#p85d93da305)" d="M 79.953956 263.81 
L 542.093046 263.81 
L 542.093046 263.81 
" style="fill:none;stroke:#9467bd;stroke-linecap:square;stroke-width:2;"/>
   </g>
   <g id="patch_9">
    <path d="M 56.847002 323.44 
L 56.847002 204.18 
" style="fill:none;stroke:#000000;stroke-linecap:square;stroke-linejoin:miter;stroke-width:0.8;"/>
   </g>
   <g id="patch_10">
    <path d="M 565.2 323.44 
L 565.2 204.18 
" style="fill:none;stroke:#000000;stroke-linecap:square;stroke-linejoin:miter;stroke-width:0.8;"/>
   </g>
   <g id="patch_11">
    <path d="M 56.847002 323.44 
L 565.2 323.44 
" style="fill:none;stroke:#000000;stroke-linecap:square;stroke-linejoin:miter;stroke-width:0.8;"/>
   </g>
   <g id="patch_12">
    <path d="M 56.847002 204.18 
L 565.2 204.18 
" style="fill:none;stroke:#000000;stroke-linecap:square;stroke-linejoin:miter;stroke-width:0.8;"/>
   </g>
   <g id="text_28">
    <!-- Translational PWM Input -->
    <g transform="translate(238.914751 198.18)scale(0.12 -0.12)">
     <defs>
      <path d="M 19.671875 64.796875 
L 19.671875 37.40625 
L 32.078125 37.40625 
Q 38.96875 37.40625 42.71875 40.96875 
Q 46.484375 44.53125 46.484375 51.125 
Q 46.484375 57.671875 42.71875 61.234375 
Q 38.96875 64.796875 32.078125 64.796875 
z
M 9.8125 72.90625 
L 32.078125 72.90625 
Q 44.34375 72.90625 50.609375 67.359375 
Q 56.890625 61.8125 56.890625 51.125 
Q 56.890625 40.328125 50.609375 34.8125 
Q 44.34375 29.296875 32.078125 29.296875 
L 19.671875 29.296875 
L 19.671875 0 
L 9.8125 0 
z
" id="DejaVuSans-80"/>
      <path d="M 3.328125 72.90625 
L 13.28125 72.90625 
L 28.609375 11.28125 
L 43.890625 72.90625 
L 54.984375 72.90625 
L 70.3125 11.28125 
L 85.59375 72.90625 
L 95.609375 72.90625 
L 77.296875 0 
L 64.890625 0 
L 49.515625 63.28125 
L 33.984375 0 
L 21.578125 0 
z
" id="DejaVuSans-87"/>
      <path d="M 9.8125 72.90625 
L 24.515625 72.90625 
L 43.109375 23.296875 
L 61.8125 72.90625 
L 76.515625 72.90625 
L 76.515625 0 
L 66.890625 0 
L 66.890625 64.015625 
L 48.09375 14.015625 
L 38.1875 14.015625 
L 19.390625 64.015625 
L 19.390625 0 
L 9.8125 0 
z
" id="DejaVuSans-77"/>
      <path d="M 9.8125 72.90625 
L 19.671875 72.90625 
L 19.671875 0 
L 9.8125 0 
z
" id="DejaVuSans-73"/>
     </defs>
     <use xlink:href="#DejaVuSans-84"/>
     <use x="46.333984" xlink:href="#DejaVuSans-114"/>
     <use x="87.447266" xlink:href="#DejaVuSans-97"/>
     <use x="148.726562" xlink:href="#DejaVuSans-110"/>
     <use x="212.105469" xlink:href="#DejaVuSans-115"/>
     <use x="264.205078" xlink:href="#DejaVuSans-108"/>
     <use x="291.988281" xlink:href="#DejaVuSans-97"/>
     <use x="353.267578" xlink:href="#DejaVuSans-116"/>
     <use x="392.476562" xlink:href="#DejaVuSans-105"/>
     <use x="420.259766" xlink:href="#DejaVuSans-111"/>
     <use x="481.441406" xlink:href="#DejaVuSans-110"/>
     <use x="544.820312" xlink:href="#DejaVuSans-97"/>
     <use x="606.099609" xlink:href="#DejaVuSans-108"/>
     <use x="633.882812" xlink:href="#DejaVuSans-32"/>
     <use x="665.669922" xlink:href="#DejaVuSans-80"/>
     <use x="725.972656" xlink:href="#DejaVuSans-87"/>
     <use x="824.849609" xlink:href="#DejaVuSans-77"/>
     <use x="911.128906" xlink:href="#DejaVuSans-32"/>
     <use x="942.916016" xlink:href="#DejaVuSans-73"/>
     <use x="972.408203" xlink:href="#DejaVuSans-110"/>
     <use x="1035.787109" xlink:href="#DejaVuSans-112"/>
     <use x="1099.263672" xlink:href="#DejaVuSans-117"/>
     <use x="1162.642578" xlink:href="#DejaVuSans-116"/>
    </g>
   </g>
   <g id="legend_2">
    <g id="patch_13">
     <path d="M 227.354687 226.858125 
L 558.2 226.858125 
Q 560.2 226.858125 560.2 224.858125 
L 560.2 211.18 
Q 560.2 209.18 558.2 209.18 
L 227.354687 209.18 
Q 225.354687 209.18 225.354687 211.18 
L 225.354687 224.858125 
Q 225.354687 226.858125 227.354687 226.858125 
z
" style="fill:#ffffff;opacity:0.8;stroke:#cccccc;stroke-linejoin:miter;"/>
    </g>
    <g id="line2d_48">
     <path d="M 229.354687 217.278438 
L 249.354687 217.278438 
" style="fill:none;stroke:#1f77b4;stroke-linecap:square;stroke-width:2;"/>
    </g>
    <g id="line2d_49"/>
    <g id="text_29">
     <!-- FF -->
     <g transform="translate(257.354687 220.778438)scale(0.1 -0.1)">
      <defs>
       <path d="M 9.8125 72.90625 
L 51.703125 72.90625 
L 51.703125 64.59375 
L 19.671875 64.59375 
L 19.671875 43.109375 
L 48.578125 43.109375 
L 48.578125 34.8125 
L 19.671875 34.8125 
L 19.671875 0 
L 9.8125 0 
z
" id="DejaVuSans-70"/>
      </defs>
      <use xlink:href="#DejaVuSans-70"/>
      <use x="57.519531" xlink:href="#DejaVuSans-70"/>
     </g>
    </g>
    <g id="line2d_50">
     <path d="M 288.857812 217.278438 
L 308.857812 217.278438 
" style="fill:none;stroke:#ff7f0e;stroke-linecap:square;stroke-width:2;"/>
    </g>
    <g id="line2d_51"/>
    <g id="text_30">
     <!-- FB p -->
     <g transform="translate(316.857812 220.778438)scale(0.1 -0.1)">
      <defs>
       <path d="M 19.671875 34.8125 
L 19.671875 8.109375 
L 35.5 8.109375 
Q 43.453125 8.109375 47.28125 11.40625 
Q 51.125 14.703125 51.125 21.484375 
Q 51.125 28.328125 47.28125 31.5625 
Q 43.453125 34.8125 35.5 34.8125 
z
M 19.671875 64.796875 
L 19.671875 42.828125 
L 34.28125 42.828125 
Q 41.5 42.828125 45.03125 45.53125 
Q 48.578125 48.25 48.578125 53.8125 
Q 48.578125 59.328125 45.03125 62.0625 
Q 41.5 64.796875 34.28125 64.796875 
z
M 9.8125 72.90625 
L 35.015625 72.90625 
Q 46.296875 72.90625 52.390625 68.21875 
Q 58.5 63.53125 58.5 54.890625 
Q 58.5 48.1875 55.375 44.234375 
Q 52.25 40.28125 46.1875 39.3125 
Q 53.46875 37.75 57.5 32.78125 
Q 61.53125 27.828125 61.53125 20.40625 
Q 61.53125 10.640625 54.890625 5.3125 
Q 48.25 0 35.984375 0 
L 9.8125 0 
z
" id="DejaVuSans-66"/>
      </defs>
      <use xlink:href="#DejaVuSans-70"/>
      <use x="57.519531" xlink:href="#DejaVuSans-66"/>
      <use x="126.123047" xlink:href="#DejaVuSans-32"/>
      <use x="157.910156" xlink:href="#DejaVuSans-112"/>
     </g>
    </g>
    <g id="line2d_52">
     <path d="M 358.996875 217.278438 
L 378.996875 217.278438 
" style="fill:none;stroke:#2ca02c;stroke-linecap:square;stroke-width:2;"/>
    </g>
    <g id="line2d_53"/>
    <g id="text_31">
     <!-- FB i -->
     <g transform="translate(386.996875 220.778438)scale(0.1 -0.1)">
      <use xlink:href="#DejaVuSans-70"/>
      <use x="57.519531" xlink:href="#DejaVuSans-66"/>
      <use x="126.123047" xlink:href="#DejaVuSans-32"/>
      <use x="157.910156" xlink:href="#DejaVuSans-105"/>
     </g>
    </g>
    <g id="line2d_54">
     <path d="M 425.565625 217.278438 
L 445.565625 217.278438 
" style="fill:none;stroke:#d62728;stroke-linecap:square;stroke-width:2;"/>
    </g>
    <g id="line2d_55"/>
    <g id="text_32">
     <!-- FB d -->
     <g transform="translate(453.565625 220.778438)scale(0.1 -0.1)">
      <use xlink:href="#DejaVuSans-70"/>
      <use x="57.519531" xlink:href="#DejaVuSans-66"/>
      <use x="126.123047" xlink:href="#DejaVuSans-32"/>
      <use x="157.910156" xlink:href="#DejaVuSans-100"/>
     </g>
    </g>
    <g id="line2d_56">
     <path d="M 495.704687 217.278438 
L 515.704687 217.278438 
" style="fill:none;stroke:#9467bd;stroke-linecap:square;stroke-width:2;"/>
    </g>
    <g id="line2d_57"/>
    <g id="text_33">
     <!-- FF+FB -->
     <g transform="translate(523.704687 220.778438)scale(0.1 -0.1)">
      <defs>
       <path d="M 46 62.703125 
L 46 35.5 
L 73.1875 35.5 
L 73.1875 27.203125 
L 46 27.203125 
L 46 0 
L 37.796875 0 
L 37.796875 27.203125 
L 10.59375 27.203125 
L 10.59375 35.5 
L 37.796875 35.5 
L 37.796875 62.703125 
z
" id="DejaVuSans-43"/>
      </defs>
      <use xlink:href="#DejaVuSans-70"/>
      <use x="57.519531" xlink:href="#DejaVuSans-70"/>
      <use x="115.039062" xlink:href="#DejaVuSans-43"/>
      <use x="198.828125" xlink:href="#DejaVuSans-70"/>
      <use x="256.347656" xlink:href="#DejaVuSans-66"/>
     </g>
    </g>
   </g>
  </g>
  <g id="axes_3">
   <g id="patch_14">
    <path d="M 56.847002 500.74 
L 565.2 500.74 
L 565.2 381.48 
L 56.847002 381.48 
z
" style="fill:#ffffff;"/>
   </g>
   <g id="matplotlib.axis_5">
    <g id="xtick_11">
     <g id="line2d_58">
      <path clip-path="url(#pafea1cbd05)" d="M 79.953956 500.74 
L 79.953956 381.48 
" style="fill:none;stroke:#b0b0b0;stroke-linecap:square;stroke-width:0.8;"/>
     </g>
     <g id="line2d_59">
      <g>
       <use style="stroke:#000000;stroke-width:0.8;" x="79.953956" xlink:href="#mdee8d34328" y="500.74"/>
      </g>
     </g>
     <g id="text_34">
      <!-- 0.0 -->
      <g transform="translate(72.002394 515.338438)scale(0.1 -0.1)">
       <use xlink:href="#DejaVuSans-48"/>
       <use x="63.623047" xlink:href="#DejaVuSans-46"/>
       <use x="95.410156" xlink:href="#DejaVuSans-48"/>
      </g>
     </g>
    </g>
    <g id="xtick_12">
     <g id="line2d_60">
      <path clip-path="url(#pafea1cbd05)" d="M 179.125435 500.74 
L 179.125435 381.48 
" style="fill:none;stroke:#b0b0b0;stroke-linecap:square;stroke-width:0.8;"/>
     </g>
     <g id="line2d_61">
      <g>
       <use style="stroke:#000000;stroke-width:0.8;" x="179.125435" xlink:href="#mdee8d34328" y="500.74"/>
      </g>
     </g>
     <g id="text_35">
      <!-- 0.1 -->
      <g transform="translate(171.173872 515.338438)scale(0.1 -0.1)">
       <use xlink:href="#DejaVuSans-48"/>
       <use x="63.623047" xlink:href="#DejaVuSans-46"/>
       <use x="95.410156" xlink:href="#DejaVuSans-49"/>
      </g>
     </g>
    </g>
    <g id="xtick_13">
     <g id="line2d_62">
      <path clip-path="url(#pafea1cbd05)" d="M 278.296913 500.74 
L 278.296913 381.48 
" style="fill:none;stroke:#b0b0b0;stroke-linecap:square;stroke-width:0.8;"/>
     </g>
     <g id="line2d_63">
      <g>
       <use style="stroke:#000000;stroke-width:0.8;" x="278.296913" xlink:href="#mdee8d34328" y="500.74"/>
      </g>
     </g>
     <g id="text_36">
      <!-- 0.2 -->
      <g transform="translate(270.345351 515.338438)scale(0.1 -0.1)">
       <use xlink:href="#DejaVuSans-48"/>
       <use x="63.623047" xlink:href="#DejaVuSans-46"/>
       <use x="95.410156" xlink:href="#DejaVuSans-50"/>
      </g>
     </g>
    </g>
    <g id="xtick_14">
     <g id="line2d_64">
      <path clip-path="url(#pafea1cbd05)" d="M 377.468391 500.74 
L 377.468391 381.48 
" style="fill:none;stroke:#b0b0b0;stroke-linecap:square;stroke-width:0.8;"/>
     </g>
     <g id="line2d_65">
      <g>
       <use style="stroke:#000000;stroke-width:0.8;" x="377.468391" xlink:href="#mdee8d34328" y="500.74"/>
      </g>
     </g>
     <g id="text_37">
      <!-- 0.3 -->
      <g transform="translate(369.516829 515.338438)scale(0.1 -0.1)">
       <use xlink:href="#DejaVuSans-48"/>
       <use x="63.623047" xlink:href="#DejaVuSans-46"/>
       <use x="95.410156" xlink:href="#DejaVuSans-51"/>
      </g>
     </g>
    </g>
    <g id="xtick_15">
     <g id="line2d_66">
      <path clip-path="url(#pafea1cbd05)" d="M 476.63987 500.74 
L 476.63987 381.48 
" style="fill:none;stroke:#b0b0b0;stroke-linecap:square;stroke-width:0.8;"/>
     </g>
     <g id="line2d_67">
      <g>
       <use style="stroke:#000000;stroke-width:0.8;" x="476.63987" xlink:href="#mdee8d34328" y="500.74"/>
      </g>
     </g>
     <g id="text_38">
      <!-- 0.4 -->
      <g transform="translate(468.688307 515.338438)scale(0.1 -0.1)">
       <use xlink:href="#DejaVuSans-48"/>
       <use x="63.623047" xlink:href="#DejaVuSans-46"/>
       <use x="95.410156" xlink:href="#DejaVuSans-52"/>
      </g>
     </g>
    </g>
    <g id="text_39">
     <!-- Time [ms] -->
     <g transform="translate(285.824282 529.016562)scale(0.1 -0.1)">
      <use xlink:href="#DejaVuSans-84"/>
      <use x="57.958984" xlink:href="#DejaVuSans-105"/>
      <use x="85.742188" xlink:href="#DejaVuSans-109"/>
      <use x="183.154297" xlink:href="#DejaVuSans-101"/>
      <use x="244.677734" xlink:href="#DejaVuSans-32"/>
      <use x="276.464844" xlink:href="#DejaVuSans-91"/>
      <use x="315.478516" xlink:href="#DejaVuSans-109"/>
      <use x="412.890625" xlink:href="#DejaVuSans-115"/>
      <use x="464.990234" xlink:href="#DejaVuSans-93"/>
     </g>
    </g>
   </g>
   <g id="matplotlib.axis_6">
    <g id="ytick_9">
     <g id="line2d_68">
      <path clip-path="url(#pafea1cbd05)" d="M 56.847002 476.697263 
L 565.2 476.697263 
" style="fill:none;stroke:#b0b0b0;stroke-linecap:square;stroke-width:0.8;"/>
     </g>
     <g id="line2d_69">
      <g>
       <use style="stroke:#000000;stroke-width:0.8;" x="56.847002" xlink:href="#m04c2f97cd5" y="476.697263"/>
      </g>
     </g>
     <g id="text_40">
      <!-- $\mathdefault{0}$ -->
      <g transform="translate(43.447002 480.496482)scale(0.1 -0.1)">
       <use transform="translate(0 0.78125)" xlink:href="#DejaVuSans-48"/>
      </g>
     </g>
    </g>
    <g id="ytick_10">
     <g id="line2d_70">
      <path clip-path="url(#pafea1cbd05)" d="M 56.847002 448.528509 
L 565.2 448.528509 
" style="fill:none;stroke:#b0b0b0;stroke-linecap:square;stroke-width:0.8;"/>
     </g>
     <g id="line2d_71">
      <g>
       <use style="stroke:#000000;stroke-width:0.8;" x="56.847002" xlink:href="#m04c2f97cd5" y="448.528509"/>
      </g>
     </g>
     <g id="text_41">
      <!-- $\mathdefault{1}$ -->
      <g transform="translate(43.447002 452.327728)scale(0.1 -0.1)">
       <use transform="translate(0 0.09375)" xlink:href="#DejaVuSans-49"/>
      </g>
     </g>
    </g>
    <g id="ytick_11">
     <g id="line2d_72">
      <path clip-path="url(#pafea1cbd05)" d="M 56.847002 420.359755 
L 565.2 420.359755 
" style="fill:none;stroke:#b0b0b0;stroke-linecap:square;stroke-width:0.8;"/>
     </g>
     <g id="line2d_73">
      <g>
       <use style="stroke:#000000;stroke-width:0.8;" x="56.847002" xlink:href="#m04c2f97cd5" y="420.359755"/>
      </g>
     </g>
     <g id="text_42">
      <!-- $\mathdefault{2}$ -->
      <g transform="translate(43.447002 424.158974)scale(0.1 -0.1)">
       <use transform="translate(0 0.78125)" xlink:href="#DejaVuSans-50"/>
      </g>
     </g>
    </g>
    <g id="ytick_12">
     <g id="line2d_74">
      <path clip-path="url(#pafea1cbd05)" d="M 56.847002 392.191001 
L 565.2 392.191001 
" style="fill:none;stroke:#b0b0b0;stroke-linecap:square;stroke-width:0.8;"/>
     </g>
     <g id="line2d_75">
      <g>
       <use style="stroke:#000000;stroke-width:0.8;" x="56.847002" xlink:href="#m04c2f97cd5" y="392.191001"/>
      </g>
     </g>
     <g id="text_43">
      <!-- $\mathdefault{3}$ -->
      <g transform="translate(43.447002 395.99022)scale(0.1 -0.1)">
       <use transform="translate(0 0.78125)" xlink:href="#DejaVuSans-51"/>
      </g>
     </g>
    </g>
    <g id="text_44">
     <!-- vel. [rad/s] -->
     <g transform="translate(37.367314 468.1975)rotate(-90)scale(0.1 -0.1)">
      <use xlink:href="#DejaVuSans-118"/>
      <use x="59.179688" xlink:href="#DejaVuSans-101"/>
      <use x="120.703125" xlink:href="#DejaVuSans-108"/>
      <use x="148.486328" xlink:href="#DejaVuSans-46"/>
      <use x="180.273438" xlink:href="#DejaVuSans-32"/>
      <use x="212.060547" xlink:href="#DejaVuSans-91"/>
      <use x="251.074219" xlink:href="#DejaVuSans-114"/>
      <use x="292.1875" xlink:href="#DejaVuSans-97"/>
      <use x="353.466797" xlink:href="#DejaVuSans-100"/>
      <use x="416.943359" xlink:href="#DejaVuSans-47"/>
      <use x="450.634766" xlink:href="#DejaVuSans-115"/>
      <use x="502.734375" xlink:href="#DejaVuSans-93"/>
     </g>
    </g>
    <g id="text_45">
     <!-- $\times\mathdefault{10^{1}}\mathdefault{}$ -->
     <g transform="translate(56.847002 378.48)scale(0.1 -0.1)">
      <use transform="translate(0 0.684375)" xlink:href="#DejaVuSans-215"/>
      <use transform="translate(83.789062 0.684375)" xlink:href="#DejaVuSans-49"/>
      <use transform="translate(147.412109 0.684375)" xlink:href="#DejaVuSans-48"/>
      <use transform="translate(211.992188 38.965625)scale(0.7)" xlink:href="#DejaVuSans-49"/>
     </g>
    </g>
   </g>
   <g id="line2d_76">
    <path clip-path="url(#pafea1cbd05)" d="M 79.953956 476.697263 
L 81.937386 476.612308 
L 83.920816 476.357443 
L 85.904245 475.932667 
L 87.887675 475.337982 
L 89.871104 474.57339 
L 91.854534 473.638897 
L 93.837963 472.534456 
L 98.796537 469.428316 
L 102.763396 466.077896 
L 122.597692 449.086898 
L 123.589407 447.812459 
L 144.415417 430.104735 
L 147.390562 428.065881 
L 150.365706 426.409277 
L 152.349136 425.517172 
L 154.332565 424.795207 
L 156.315995 424.242818 
L 158.299424 423.860568 
L 160.282854 423.648175 
L 163.257998 423.600288 
L 413.170124 423.700006 
L 415.153553 423.968736 
L 417.136983 424.407323 
L 419.120412 425.01605 
L 421.103842 425.794634 
L 423.087272 426.743076 
L 425.070701 427.861376 
L 428.045845 429.857414 
L 431.02099 432.235138 
L 474.65644 469.556061 
L 477.631585 471.701591 
L 480.606729 473.464814 
L 482.590159 474.427915 
L 484.573588 475.221113 
L 486.557018 475.844406 
L 488.540447 476.297793 
L 490.523877 476.581276 
L 492.507306 476.694852 
L 539.117901 476.697263 
L 542.093046 476.697263 
L 542.093046 476.697263 
" style="fill:none;stroke:#1f77b4;stroke-linecap:square;stroke-width:2;"/>
   </g>
   <g id="line2d_77">
    <path clip-path="url(#pafea1cbd05)" d="M 79.953956 476.697263 
L 80.945671 476.663838 
L 81.937386 476.202177 
L 82.929101 474.550395 
L 83.920816 474.946104 
L 87.887675 475.113979 
L 92.846249 475.464722 
L 94.829678 475.060019 
L 95.821393 473.411237 
L 96.813108 472.353021 
L 97.804823 472.227107 
L 98.796537 470.599319 
L 99.788252 469.319247 
L 104.746826 461.339123 
L 106.730256 457.325104 
L 107.72197 455.907145 
L 108.713685 454.806958 
L 109.7054 452.606584 
L 110.697115 451.281554 
L 111.688829 449.665738 
L 112.680544 447.660348 
L 113.672259 446.425148 
L 114.663974 444.45249 
L 116.647403 442.246313 
L 117.639118 440.165769 
L 119.622548 437.374809 
L 121.605977 433.720477 
L 123.589407 430.743603 
L 124.581122 428.495455 
L 125.572836 426.585895 
L 127.556266 424.68225 
L 128.547981 422.481707 
L 129.539696 421.894107 
L 130.53141 420.686231 
L 131.523125 418.686531 
L 132.51484 417.592457 
L 133.506555 416.069372 
L 134.49827 414.216995 
L 135.489984 412.921796 
L 137.473414 408.970846 
L 138.465129 408.27536 
L 140.448558 404.10244 
L 141.440273 403.472869 
L 142.431988 401.476267 
L 143.423703 400.43008 
L 144.415417 398.727279 
L 145.407132 397.432361 
L 146.398847 396.583918 
L 147.390562 396.188147 
L 148.382276 394.416614 
L 149.373991 392.959445 
L 150.365706 392.314944 
L 153.34085 390.04257 
L 154.332565 389.934684 
L 155.32428 388.765681 
L 156.315995 388.450754 
L 157.30771 388.513852 
L 158.299424 388.037237 
L 159.291139 386.900909 
L 160.282854 387.425693 
L 161.274569 388.444838 
L 162.266283 387.644564 
L 163.257998 387.656395 
L 164.249713 387.875266 
L 165.241428 387.785408 
L 167.224857 389.91074 
L 168.216572 389.443139 
L 169.208287 389.212437 
L 170.200002 390.468482 
L 171.191716 390.249611 
L 172.183431 390.327356 
L 174.166861 391.769315 
L 175.158576 391.655513 
L 176.15029 392.030157 
L 178.13372 393.022543 
L 179.125435 393.48113 
L 180.11715 395.234917 
L 181.108864 396.182232 
L 182.100579 396.416032 
L 183.092294 397.803907 
L 184.084009 398.514323 
L 185.075723 398.889249 
L 186.067438 399.653749 
L 187.059153 401.353452 
L 188.050868 401.080496 
L 189.042583 401.784997 
L 190.034297 402.240767 
L 191.026012 403.257096 
L 192.017727 404.033427 
L 193.009442 403.802443 
L 194.001157 405.187501 
L 194.992871 405.571159 
L 195.984586 405.409471 
L 196.976301 405.58637 
L 197.968016 405.915945 
L 198.95973 406.956217 
L 199.951445 407.67283 
L 200.94316 406.812274 
L 201.934875 406.647487 
L 203.918304 406.935372 
L 204.910019 407.136215 
L 205.901734 407.088047 
L 206.893449 407.474804 
L 207.885163 407.286073 
L 208.876878 406.647487 
L 210.860308 407.468888 
L 211.852023 406.752275 
L 212.843737 406.602417 
L 213.835452 406.860443 
L 214.827167 406.860443 
L 215.818882 407.061286 
L 216.810597 406.743261 
L 217.802311 406.941287 
L 218.794026 407.594802 
L 219.785741 406.890302 
L 220.777456 407.106075 
L 221.76917 407.546916 
L 222.760885 407.852547 
L 223.7526 407.936489 
L 224.744315 406.848331 
L 225.73603 407.690576 
L 227.719459 408.608033 
L 228.711174 408.775918 
L 229.702889 409.528306 
L 230.694604 409.975062 
L 231.686318 410.265764 
L 233.669748 410.442664 
L 234.661463 410.718436 
L 235.653177 410.59562 
L 236.644892 410.655619 
L 237.636607 411.251952 
L 239.620037 412.163493 
L 240.611751 412.274196 
L 241.603466 412.03448 
L 242.595181 413.113625 
L 243.586896 413.949955 
L 244.57861 413.623198 
L 246.56204 414.166009 
L 247.553755 414.468824 
L 248.54547 415.011354 
L 249.537184 414.633611 
L 250.528899 414.990227 
L 252.512329 415.533039 
L 254.495758 416.234441 
L 255.487473 416.051626 
L 256.479188 416.519227 
L 257.470903 416.456129 
L 258.462617 416.168526 
L 259.454332 415.997542 
L 260.446047 416.231342 
L 261.437762 416.339229 
L 262.429477 416.645141 
L 263.421191 415.895571 
L 264.412906 415.83867 
L 265.404621 416.729084 
L 266.396336 416.804013 
L 267.388051 417.247671 
L 268.379765 416.735 
L 269.37148 416.798098 
L 270.363195 416.72007 
L 272.346624 417.085701 
L 273.338339 417.1457 
L 274.330054 416.890773 
L 275.321769 416.228526 
L 277.305198 416.564015 
L 278.296913 416.357257 
L 281.272057 417.346543 
L 284.247202 417.715272 
L 285.238917 418.134987 
L 287.222346 417.715272 
L 288.214061 418.074987 
L 290.197491 417.685414 
L 291.189205 418.302873 
L 293.172635 418.680616 
L 294.16435 418.302873 
L 295.156064 418.716672 
L 296.147779 418.551603 
L 297.139494 418.704559 
L 299.122924 418.144001 
L 300.114638 418.215831 
L 301.106353 418.093015 
L 302.098068 418.401745 
L 303.089783 418.120057 
L 304.081497 417.067673 
L 305.073212 417.25077 
L 306.064927 417.262601 
L 308.048357 417.775272 
L 309.040071 417.226545 
L 310.031786 416.507115 
L 311.023501 416.3812 
L 312.015216 416.468242 
L 313.006931 416.084583 
L 313.998645 415.349942 
L 314.99036 415.059241 
L 315.982075 414.47164 
L 316.97379 414.150798 
L 317.965504 414.129953 
L 318.957219 413.956152 
L 319.948934 414.000941 
L 320.940649 414.525724 
L 322.924078 413.967983 
L 324.907508 414.339811 
L 325.899223 414.783468 
L 327.882652 414.702624 
L 328.874367 414.819524 
L 330.857797 416.456129 
L 332.841226 417.238657 
L 333.832941 417.292741 
L 336.808085 418.737516 
L 337.7998 419.379201 
L 339.78323 419.669902 
L 340.774944 420.164546 
L 341.766659 420.27553 
L 342.758374 420.692146 
L 344.741804 421.77439 
L 345.733518 421.77439 
L 346.725233 421.450449 
L 347.716948 422.343962 
L 348.708663 422.895506 
L 350.692092 422.721705 
L 351.683807 422.886492 
L 352.675522 423.372122 
L 355.650666 422.895506 
L 357.634096 422.604805 
L 358.625811 422.172978 
L 359.617525 422.329033 
L 361.600955 422.110161 
L 362.59267 421.678334 
L 364.576099 421.12679 
L 367.551244 420.865948 
L 368.542958 420.035533 
L 370.526388 419.483988 
L 371.518103 419.205118 
L 372.509818 419.319201 
L 374.493247 418.536673 
L 375.484962 417.862313 
L 377.468391 416.902886 
L 378.460106 417.502317 
L 379.451821 416.89697 
L 380.443536 416.840069 
L 381.435251 416.605987 
L 382.426965 416.246272 
L 383.41868 416.740915 
L 385.40211 416.429369 
L 387.385539 416.582043 
L 388.377254 416.516129 
L 389.368969 417.679216 
L 390.360684 417.418655 
L 392.344113 418.114142 
L 393.335828 418.233859 
L 394.327543 417.436402 
L 396.310972 418.063157 
L 397.302687 418.273014 
L 398.294402 418.047945 
L 400.277831 419.127372 
L 402.261261 419.433003 
L 403.252976 420.413276 
L 405.236405 420.23046 
L 407.219835 420.78792 
L 408.21155 421.204818 
L 409.203265 421.288761 
L 410.194979 421.138903 
L 411.186694 421.462562 
L 413.170124 421.663405 
L 414.161838 422.136922 
L 415.153553 422.247907 
L 416.145268 422.161147 
L 417.136983 423.297193 
L 418.128698 423.660006 
L 419.120412 425.146753 
L 420.112127 426.307024 
L 421.103842 426.219983 
L 422.095557 427.904756 
L 423.087272 429.274884 
L 424.078986 429.844456 
L 425.070701 430.165017 
L 426.062416 431.523032 
L 427.054131 433.121046 
L 428.045845 433.243861 
L 429.03756 435.132576 
L 430.029275 436.24158 
L 431.02099 436.838194 
L 432.012705 437.722412 
L 433.004419 438.873669 
L 433.996134 440.534498 
L 434.987849 441.784628 
L 436.971278 443.607146 
L 437.962993 445.193047 
L 438.954708 446.131348 
L 439.946423 447.894149 
L 440.938138 448.802366 
L 441.929852 450.166381 
L 442.921567 451.776197 
L 443.913282 452.765456 
L 444.904997 454.228372 
L 445.896712 456.164945 
L 447.880141 459.303649 
L 448.871856 460.367864 
L 449.863571 461.947681 
L 450.855285 464.004169 
L 451.847 465.10137 
L 452.838715 465.949728 
L 453.83043 467.259773 
L 454.822145 467.601516 
L 456.805574 470.896077 
L 457.797289 471.462663 
L 459.780719 473.723009 
L 460.772433 475.245882 
L 462.755863 478.798263 
L 468.706152 487.27001 
L 469.697866 487.722682 
L 471.681296 489.128641 
L 472.673011 489.77317 
L 474.65644 491.862644 
L 475.648155 492.507145 
L 476.63987 493.337532 
L 477.631585 493.679303 
L 479.615014 494.707547 
L 480.606729 494.548647 
L 484.573588 495.319091 
L 485.565303 495.280105 
L 486.557018 494.119975 
L 488.540447 494.167947 
L 489.532162 492.048501 
L 490.523877 491.841658 
L 491.515592 491.778701 
L 492.507306 491.158143 
L 494.490736 489.62627 
L 495.482451 489.500384 
L 496.474166 488.786898 
L 497.46588 487.43491 
L 498.457595 487.225053 
L 499.44931 486.87731 
L 500.441025 485.720165 
L 501.432739 485.204536 
L 502.424454 484.215278 
L 503.416169 483.579735 
L 504.407884 483.381877 
L 505.399599 482.257719 
L 506.391313 481.86499 
L 507.383028 481.694118 
L 508.374743 481.295418 
L 509.366458 481.25646 
L 510.358172 480.989646 
L 512.341602 479.844501 
L 513.333317 479.907459 
L 515.316746 479.163995 
L 516.308461 479.074061 
L 517.300176 478.756295 
L 520.27532 478.354591 
L 521.267035 478.627389 
L 522.25875 478.606406 
L 523.250465 478.093782 
L 527.217324 477.737048 
L 528.209039 477.680088 
L 530.192468 477.844968 
L 532.175898 477.67709 
L 535.151042 477.143484 
L 541.101331 476.675829 
L 542.093046 476.7148 
L 542.093046 476.7148 
" style="fill:none;stroke:#ff7f0e;stroke-linecap:square;stroke-width:2;"/>
   </g>
   <g id="patch_15">
    <path d="M 56.847002 500.74 
L 56.847002 381.48 
" style="fill:none;stroke:#000000;stroke-linecap:square;stroke-linejoin:miter;stroke-width:0.8;"/>
   </g>
   <g id="patch_16">
    <path d="M 565.2 500.74 
L 565.2 381.48 
" style="fill:none;stroke:#000000;stroke-linecap:square;stroke-linejoin:miter;stroke-width:0.8;"/>
   </g>
   <g id="patch_17">
    <path d="M 56.847002 500.74 
L 565.2 500.74 
" style="fill:none;stroke:#000000;stroke-linecap:square;stroke-linejoin:miter;stroke-width:0.8;"/>
   </g>
   <g id="patch_18">
    <path d="M 56.847002 381.48 
L 565.2 381.48 
" style="fill:none;stroke:#000000;stroke-linecap:square;stroke-linejoin:miter;stroke-width:0.8;"/>
   </g>
   <g id="text_46">
    <!-- Rotational Velocity -->
    <g transform="translate(255.141938 375.48)scale(0.12 -0.12)">
     <use xlink:href="#DejaVuSans-82"/>
     <use x="64.982422" xlink:href="#DejaVuSans-111"/>
     <use x="126.164062" xlink:href="#DejaVuSans-116"/>
     <use x="165.373047" xlink:href="#DejaVuSans-97"/>
     <use x="226.652344" xlink:href="#DejaVuSans-116"/>
     <use x="265.861328" xlink:href="#DejaVuSans-105"/>
     <use x="293.644531" xlink:href="#DejaVuSans-111"/>
     <use x="354.826172" xlink:href="#DejaVuSans-110"/>
     <use x="418.205078" xlink:href="#DejaVuSans-97"/>
     <use x="479.484375" xlink:href="#DejaVuSans-108"/>
     <use x="507.267578" xlink:href="#DejaVuSans-32"/>
     <use x="539.054688" xlink:href="#DejaVuSans-86"/>
     <use x="599.712891" xlink:href="#DejaVuSans-101"/>
     <use x="661.236328" xlink:href="#DejaVuSans-108"/>
     <use x="689.019531" xlink:href="#DejaVuSans-111"/>
     <use x="750.201172" xlink:href="#DejaVuSans-99"/>
     <use x="805.181641" xlink:href="#DejaVuSans-105"/>
     <use x="832.964844" xlink:href="#DejaVuSans-116"/>
     <use x="872.173828" xlink:href="#DejaVuSans-121"/>
    </g>
   </g>
   <g id="legend_3">
    <g id="patch_19">
     <path d="M 475.682812 418.83625 
L 558.2 418.83625 
Q 560.2 418.83625 560.2 416.83625 
L 560.2 388.48 
Q 560.2 386.48 558.2 386.48 
L 475.682812 386.48 
Q 473.682812 386.48 473.682812 388.48 
L 473.682812 416.83625 
Q 473.682812 418.83625 475.682812 418.83625 
z
" style="fill:#ffffff;opacity:0.8;stroke:#cccccc;stroke-linejoin:miter;"/>
    </g>
    <g id="line2d_78">
     <path d="M 477.682812 394.578438 
L 497.682812 394.578438 
" style="fill:none;stroke:#1f77b4;stroke-linecap:square;stroke-width:2;"/>
    </g>
    <g id="line2d_79"/>
    <g id="text_47">
     <!-- Reference -->
     <g transform="translate(505.682812 398.078438)scale(0.1 -0.1)">
      <use xlink:href="#DejaVuSans-82"/>
      <use x="64.982422" xlink:href="#DejaVuSans-101"/>
      <use x="126.505859" xlink:href="#DejaVuSans-102"/>
      <use x="161.710938" xlink:href="#DejaVuSans-101"/>
      <use x="223.234375" xlink:href="#DejaVuSans-114"/>
      <use x="262.097656" xlink:href="#DejaVuSans-101"/>
      <use x="323.621094" xlink:href="#DejaVuSans-110"/>
      <use x="387" xlink:href="#DejaVuSans-99"/>
      <use x="441.980469" xlink:href="#DejaVuSans-101"/>
     </g>
    </g>
    <g id="line2d_80">
     <path d="M 477.682812 409.256563 
L 497.682812 409.256563 
" style="fill:none;stroke:#ff7f0e;stroke-linecap:square;stroke-width:2;"/>
    </g>
    <g id="line2d_81"/>
    <g id="text_48">
     <!-- Estimated -->
     <g transform="translate(505.682812 412.756563)scale(0.1 -0.1)">
      <use xlink:href="#DejaVuSans-69"/>
      <use x="63.183594" xlink:href="#DejaVuSans-115"/>
      <use x="115.283203" xlink:href="#DejaVuSans-116"/>
      <use x="154.492188" xlink:href="#DejaVuSans-105"/>
      <use x="182.275391" xlink:href="#DejaVuSans-109"/>
      <use x="279.6875" xlink:href="#DejaVuSans-97"/>
      <use x="340.966797" xlink:href="#DejaVuSans-116"/>
      <use x="380.175781" xlink:href="#DejaVuSans-101"/>
      <use x="441.699219" xlink:href="#DejaVuSans-100"/>
     </g>
    </g>
   </g>
  </g>
  <g id="axes_4">
   <g id="patch_20">
    <path d="M 56.847002 678.04 
L 565.2 678.04 
L 565.2 558.78 
L 56.847002 558.78 
z
" style="fill:#ffffff;"/>
   </g>
   <g id="matplotlib.axis_7">
    <g id="xtick_16">
     <g id="line2d_82">
      <path clip-path="url(#p82d314f373)" d="M 79.953956 678.04 
L 79.953956 558.78 
" style="fill:none;stroke:#b0b0b0;stroke-linecap:square;stroke-width:0.8;"/>
     </g>
     <g id="line2d_83">
      <g>
       <use style="stroke:#000000;stroke-width:0.8;" x="79.953956" xlink:href="#mdee8d34328" y="678.04"/>
      </g>
     </g>
     <g id="text_49">
      <!-- 0.0 -->
      <g transform="translate(72.002394 692.638438)scale(0.1 -0.1)">
       <use xlink:href="#DejaVuSans-48"/>
       <use x="63.623047" xlink:href="#DejaVuSans-46"/>
       <use x="95.410156" xlink:href="#DejaVuSans-48"/>
      </g>
     </g>
    </g>
    <g id="xtick_17">
     <g id="line2d_84">
      <path clip-path="url(#p82d314f373)" d="M 179.125435 678.04 
L 179.125435 558.78 
" style="fill:none;stroke:#b0b0b0;stroke-linecap:square;stroke-width:0.8;"/>
     </g>
     <g id="line2d_85">
      <g>
       <use style="stroke:#000000;stroke-width:0.8;" x="179.125435" xlink:href="#mdee8d34328" y="678.04"/>
      </g>
     </g>
     <g id="text_50">
      <!-- 0.1 -->
      <g transform="translate(171.173872 692.638438)scale(0.1 -0.1)">
       <use xlink:href="#DejaVuSans-48"/>
       <use x="63.623047" xlink:href="#DejaVuSans-46"/>
       <use x="95.410156" xlink:href="#DejaVuSans-49"/>
      </g>
     </g>
    </g>
    <g id="xtick_18">
     <g id="line2d_86">
      <path clip-path="url(#p82d314f373)" d="M 278.296913 678.04 
L 278.296913 558.78 
" style="fill:none;stroke:#b0b0b0;stroke-linecap:square;stroke-width:0.8;"/>
     </g>
     <g id="line2d_87">
      <g>
       <use style="stroke:#000000;stroke-width:0.8;" x="278.296913" xlink:href="#mdee8d34328" y="678.04"/>
      </g>
     </g>
     <g id="text_51">
      <!-- 0.2 -->
      <g transform="translate(270.345351 692.638438)scale(0.1 -0.1)">
       <use xlink:href="#DejaVuSans-48"/>
       <use x="63.623047" xlink:href="#DejaVuSans-46"/>
       <use x="95.410156" xlink:href="#DejaVuSans-50"/>
      </g>
     </g>
    </g>
    <g id="xtick_19">
     <g id="line2d_88">
      <path clip-path="url(#p82d314f373)" d="M 377.468391 678.04 
L 377.468391 558.78 
" style="fill:none;stroke:#b0b0b0;stroke-linecap:square;stroke-width:0.8;"/>
     </g>
     <g id="line2d_89">
      <g>
       <use style="stroke:#000000;stroke-width:0.8;" x="377.468391" xlink:href="#mdee8d34328" y="678.04"/>
      </g>
     </g>
     <g id="text_52">
      <!-- 0.3 -->
      <g transform="translate(369.516829 692.638438)scale(0.1 -0.1)">
       <use xlink:href="#DejaVuSans-48"/>
       <use x="63.623047" xlink:href="#DejaVuSans-46"/>
       <use x="95.410156" xlink:href="#DejaVuSans-51"/>
      </g>
     </g>
    </g>
    <g id="xtick_20">
     <g id="line2d_90">
      <path clip-path="url(#p82d314f373)" d="M 476.63987 678.04 
L 476.63987 558.78 
" style="fill:none;stroke:#b0b0b0;stroke-linecap:square;stroke-width:0.8;"/>
     </g>
     <g id="line2d_91">
      <g>
       <use style="stroke:#000000;stroke-width:0.8;" x="476.63987" xlink:href="#mdee8d34328" y="678.04"/>
      </g>
     </g>
     <g id="text_53">
      <!-- 0.4 -->
      <g transform="translate(468.688307 692.638438)scale(0.1 -0.1)">
       <use xlink:href="#DejaVuSans-48"/>
       <use x="63.623047" xlink:href="#DejaVuSans-46"/>
       <use x="95.410156" xlink:href="#DejaVuSans-52"/>
      </g>
     </g>
    </g>
    <g id="text_54">
     <!-- Time [ms] -->
     <g transform="translate(285.824282 706.316563)scale(0.1 -0.1)">
      <use xlink:href="#DejaVuSans-84"/>
      <use x="57.958984" xlink:href="#DejaVuSans-105"/>
      <use x="85.742188" xlink:href="#DejaVuSans-109"/>
      <use x="183.154297" xlink:href="#DejaVuSans-101"/>
      <use x="244.677734" xlink:href="#DejaVuSans-32"/>
      <use x="276.464844" xlink:href="#DejaVuSans-91"/>
      <use x="315.478516" xlink:href="#DejaVuSans-109"/>
      <use x="412.890625" xlink:href="#DejaVuSans-115"/>
      <use x="464.990234" xlink:href="#DejaVuSans-93"/>
     </g>
    </g>
   </g>
   <g id="matplotlib.axis_8">
    <g id="ytick_13">
     <g id="line2d_92">
      <path clip-path="url(#p82d314f373)" d="M 56.847002 674.039585 
L 565.2 674.039585 
" style="fill:none;stroke:#b0b0b0;stroke-linecap:square;stroke-width:0.8;"/>
     </g>
     <g id="line2d_93">
      <g>
       <use style="stroke:#000000;stroke-width:0.8;" x="56.847002" xlink:href="#m04c2f97cd5" y="674.039585"/>
      </g>
     </g>
     <g id="text_55">
      <!-- $\mathdefault{−2}$ -->
      <g transform="translate(35.047002 677.838804)scale(0.1 -0.1)">
       <use transform="translate(0 0.78125)" xlink:href="#DejaVuSans-8722"/>
       <use transform="translate(83.789062 0.78125)" xlink:href="#DejaVuSans-50"/>
      </g>
     </g>
    </g>
    <g id="ytick_14">
     <g id="line2d_94">
      <path clip-path="url(#p82d314f373)" d="M 56.847002 637.494849 
L 565.2 637.494849 
" style="fill:none;stroke:#b0b0b0;stroke-linecap:square;stroke-width:0.8;"/>
     </g>
     <g id="line2d_95">
      <g>
       <use style="stroke:#000000;stroke-width:0.8;" x="56.847002" xlink:href="#m04c2f97cd5" y="637.494849"/>
      </g>
     </g>
     <g id="text_56">
      <!-- $\mathdefault{0}$ -->
      <g transform="translate(43.447002 641.294068)scale(0.1 -0.1)">
       <use transform="translate(0 0.78125)" xlink:href="#DejaVuSans-48"/>
      </g>
     </g>
    </g>
    <g id="ytick_15">
     <g id="line2d_96">
      <path clip-path="url(#p82d314f373)" d="M 56.847002 600.950113 
L 565.2 600.950113 
" style="fill:none;stroke:#b0b0b0;stroke-linecap:square;stroke-width:0.8;"/>
     </g>
     <g id="line2d_97">
      <g>
       <use style="stroke:#000000;stroke-width:0.8;" x="56.847002" xlink:href="#m04c2f97cd5" y="600.950113"/>
      </g>
     </g>
     <g id="text_57">
      <!-- $\mathdefault{2}$ -->
      <g transform="translate(43.447002 604.749332)scale(0.1 -0.1)">
       <use transform="translate(0 0.78125)" xlink:href="#DejaVuSans-50"/>
      </g>
     </g>
    </g>
    <g id="ytick_16">
     <g id="line2d_98">
      <path clip-path="url(#p82d314f373)" d="M 56.847002 564.405377 
L 565.2 564.405377 
" style="fill:none;stroke:#b0b0b0;stroke-linecap:square;stroke-width:0.8;"/>
     </g>
     <g id="line2d_99">
      <g>
       <use style="stroke:#000000;stroke-width:0.8;" x="56.847002" xlink:href="#m04c2f97cd5" y="564.405377"/>
      </g>
     </g>
     <g id="text_58">
      <!-- $\mathdefault{4}$ -->
      <g transform="translate(43.447002 568.204596)scale(0.1 -0.1)">
       <use transform="translate(0 0.09375)" xlink:href="#DejaVuSans-52"/>
      </g>
     </g>
    </g>
    <g id="text_59">
     <!-- pwm input -->
     <g transform="translate(28.967314 644.993594)rotate(-90)scale(0.1 -0.1)">
      <use xlink:href="#DejaVuSans-112"/>
      <use x="63.476562" xlink:href="#DejaVuSans-119"/>
      <use x="145.263672" xlink:href="#DejaVuSans-109"/>
      <use x="242.675781" xlink:href="#DejaVuSans-32"/>
      <use x="274.462891" xlink:href="#DejaVuSans-105"/>
      <use x="302.246094" xlink:href="#DejaVuSans-110"/>
      <use x="365.625" xlink:href="#DejaVuSans-112"/>
      <use x="429.101562" xlink:href="#DejaVuSans-117"/>
      <use x="492.480469" xlink:href="#DejaVuSans-116"/>
     </g>
    </g>
    <g id="text_60">
     <!-- $\times\mathdefault{10^{−1}}\mathdefault{}$ -->
     <g transform="translate(56.847002 555.78)scale(0.1 -0.1)">
      <use transform="translate(0 0.684375)" xlink:href="#DejaVuSans-215"/>
      <use transform="translate(83.789062 0.684375)" xlink:href="#DejaVuSans-49"/>
      <use transform="translate(147.412109 0.684375)" xlink:href="#DejaVuSans-48"/>
      <use transform="translate(211.992188 38.965625)scale(0.7)" xlink:href="#DejaVuSans-8722"/>
      <use transform="translate(270.644531 38.965625)scale(0.7)" xlink:href="#DejaVuSans-49"/>
     </g>
    </g>
   </g>
   <g id="line2d_100">
    <path clip-path="url(#p82d314f373)" d="M 79.953956 637.494849 
L 80.945671 636.454681 
L 81.937386 633.288257 
L 85.904245 624.50769 
L 89.871104 615.237277 
L 90.862819 614.044092 
L 91.854534 610.418306 
L 95.821393 600.413088 
L 96.813108 597.835405 
L 97.804823 596.534961 
L 98.796537 593.911231 
L 99.788252 592.587764 
L 100.779967 589.611926 
L 110.697115 583.488855 
L 111.688829 583.182793 
L 112.680544 582.264241 
L 122.597692 576.141171 
L 123.589407 575.222619 
L 124.581122 574.610312 
L 125.572836 574.304067 
L 126.564551 573.385698 
L 141.440273 564.200909 
L 142.431988 564.628848 
L 146.398847 570.776586 
L 149.373991 575.708664 
L 150.365706 576.557598 
L 151.357421 579.149899 
L 155.32428 586.399826 
L 159.291139 594.139453 
L 161.274569 598.192995 
L 162.266283 599.225201 
L 410.194979 599.225201 
L 411.186694 599.565798 
L 415.153553 608.121469 
L 419.120412 617.167022 
L 423.087272 626.702275 
L 427.054131 636.727411 
L 431.02099 646.902341 
L 432.012705 647.514648 
L 433.004419 647.820802 
L 433.996134 648.739262 
L 440.938138 653.025393 
L 441.929852 653.331547 
L 442.921567 654.250007 
L 451.847 659.760826 
L 452.838715 660.066888 
L 453.83043 660.98544 
L 472.673011 672.619091 
L 473.664725 671.849824 
L 476.63987 667.270221 
L 477.631585 666.480123 
L 478.623299 664.063968 
L 482.590159 657.284006 
L 486.557018 650.014418 
L 490.523877 642.25491 
L 492.507306 638.191459 
L 493.499021 637.494849 
L 542.093046 637.494849 
L 542.093046 637.494849 
" style="fill:none;stroke:#1f77b4;stroke-linecap:square;stroke-width:2;"/>
   </g>
   <g id="line2d_101">
    <path clip-path="url(#p82d314f373)" d="M 79.953956 637.494849 
L 542.093046 637.494849 
L 542.093046 637.494849 
" style="fill:none;stroke:#ff7f0e;stroke-linecap:square;stroke-width:2;"/>
   </g>
   <g id="line2d_102">
    <path clip-path="url(#p82d314f373)" d="M 79.953956 637.494849 
L 542.093046 637.494849 
L 542.093046 637.494849 
" style="fill:none;stroke:#2ca02c;stroke-linecap:square;stroke-width:2;"/>
   </g>
   <g id="line2d_103">
    <path clip-path="url(#p82d314f373)" d="M 79.953956 637.494849 
L 542.093046 637.494849 
L 542.093046 637.494849 
" style="fill:none;stroke:#d62728;stroke-linecap:square;stroke-width:2;"/>
   </g>
   <g id="line2d_104">
    <path clip-path="url(#p82d314f373)" d="M 79.953956 637.494849 
L 80.945671 636.454681 
L 81.937386 633.288257 
L 85.904245 624.50769 
L 89.871104 615.237277 
L 90.862819 614.044092 
L 91.854534 610.418306 
L 95.821393 600.413088 
L 96.813108 597.835405 
L 97.804823 596.534961 
L 98.796537 593.911231 
L 99.788252 592.587764 
L 100.779967 589.611926 
L 110.697115 583.488855 
L 111.688829 583.182793 
L 112.680544 582.264241 
L 122.597692 576.141171 
L 123.589407 575.222619 
L 124.581122 574.610312 
L 125.572836 574.304067 
L 126.564551 573.385698 
L 141.440273 564.200909 
L 142.431988 564.628848 
L 146.398847 570.776586 
L 149.373991 575.708664 
L 150.365706 576.557598 
L 151.357421 579.149899 
L 155.32428 586.399826 
L 159.291139 594.139453 
L 161.274569 598.192995 
L 162.266283 599.225201 
L 410.194979 599.225201 
L 411.186694 599.565798 
L 415.153553 608.121469 
L 419.120412 617.167022 
L 423.087272 626.702275 
L 427.054131 636.727411 
L 431.02099 646.902341 
L 432.012705 647.514648 
L 433.004419 647.820802 
L 433.996134 648.739262 
L 440.938138 653.025393 
L 441.929852 653.331547 
L 442.921567 654.250007 
L 451.847 659.760826 
L 452.838715 660.066888 
L 453.83043 660.98544 
L 472.673011 672.619091 
L 473.664725 671.849824 
L 476.63987 667.270221 
L 477.631585 666.480123 
L 478.623299 664.063968 
L 482.590159 657.284006 
L 486.557018 650.014418 
L 490.523877 642.25491 
L 492.507306 638.191459 
L 493.499021 637.494849 
L 542.093046 637.494849 
L 542.093046 637.494849 
" style="fill:none;stroke:#9467bd;stroke-linecap:square;stroke-width:2;"/>
   </g>
   <g id="patch_21">
    <path d="M 56.847002 678.04 
L 56.847002 558.78 
" style="fill:none;stroke:#000000;stroke-linecap:square;stroke-linejoin:miter;stroke-width:0.8;"/>
   </g>
   <g id="patch_22">
    <path d="M 565.2 678.04 
L 565.2 558.78 
" style="fill:none;stroke:#000000;stroke-linecap:square;stroke-linejoin:miter;stroke-width:0.8;"/>
   </g>
   <g id="patch_23">
    <path d="M 56.847002 678.04 
L 565.2 678.04 
" style="fill:none;stroke:#000000;stroke-linecap:square;stroke-linejoin:miter;stroke-width:0.8;"/>
   </g>
   <g id="patch_24">
    <path d="M 56.847002 558.78 
L 565.2 558.78 
" style="fill:none;stroke:#000000;stroke-linecap:square;stroke-linejoin:miter;stroke-width:0.8;"/>
   </g>
   <g id="text_61">
    <!-- Rotational PWM Input -->
    <g transform="translate(246.510376 552.78)scale(0.12 -0.12)">
     <use xlink:href="#DejaVuSans-82"/>
     <use x="64.982422" xlink:href="#DejaVuSans-111"/>
     <use x="126.164062" xlink:href="#DejaVuSans-116"/>
     <use x="165.373047" xlink:href="#DejaVuSans-97"/>
     <use x="226.652344" xlink:href="#DejaVuSans-116"/>
     <use x="265.861328" xlink:href="#DejaVuSans-105"/>
     <use x="293.644531" xlink:href="#DejaVuSans-111"/>
     <use x="354.826172" xlink:href="#DejaVuSans-110"/>
     <use x="418.205078" xlink:href="#DejaVuSans-97"/>
     <use x="479.484375" xlink:href="#DejaVuSans-108"/>
     <use x="507.267578" xlink:href="#DejaVuSans-32"/>
     <use x="539.054688" xlink:href="#DejaVuSans-80"/>
     <use x="599.357422" xlink:href="#DejaVuSans-87"/>
     <use x="698.234375" xlink:href="#DejaVuSans-77"/>
     <use x="784.513672" xlink:href="#DejaVuSans-32"/>
     <use x="816.300781" xlink:href="#DejaVuSans-73"/>
     <use x="845.792969" xlink:href="#DejaVuSans-110"/>
     <use x="909.171875" xlink:href="#DejaVuSans-112"/>
     <use x="972.648438" xlink:href="#DejaVuSans-117"/>
     <use x="1036.027344" xlink:href="#DejaVuSans-116"/>
    </g>
   </g>
   <g id="legend_4">
    <g id="patch_25">
     <path d="M 227.354687 581.458125 
L 558.2 581.458125 
Q 560.2 581.458125 560.2 579.458125 
L 560.2 565.78 
Q 560.2 563.78 558.2 563.78 
L 227.354687 563.78 
Q 225.354687 563.78 225.354687 565.78 
L 225.354687 579.458125 
Q 225.354687 581.458125 227.354687 581.458125 
z
" style="fill:#ffffff;opacity:0.8;stroke:#cccccc;stroke-linejoin:miter;"/>
    </g>
    <g id="line2d_105">
     <path d="M 229.354687 571.878438 
L 249.354687 571.878438 
" style="fill:none;stroke:#1f77b4;stroke-linecap:square;stroke-width:2;"/>
    </g>
    <g id="line2d_106"/>
    <g id="text_62">
     <!-- FF -->
     <g transform="translate(257.354687 575.378438)scale(0.1 -0.1)">
      <use xlink:href="#DejaVuSans-70"/>
      <use x="57.519531" xlink:href="#DejaVuSans-70"/>
     </g>
    </g>
    <g id="line2d_107">
     <path d="M 288.857812 571.878438 
L 308.857812 571.878438 
" style="fill:none;stroke:#ff7f0e;stroke-linecap:square;stroke-width:2;"/>
    </g>
    <g id="line2d_108"/>
    <g id="text_63">
     <!-- FB p -->
     <g transform="translate(316.857812 575.378438)scale(0.1 -0.1)">
      <use xlink:href="#DejaVuSans-70"/>
      <use x="57.519531" xlink:href="#DejaVuSans-66"/>
      <use x="126.123047" xlink:href="#DejaVuSans-32"/>
      <use x="157.910156" xlink:href="#DejaVuSans-112"/>
     </g>
    </g>
    <g id="line2d_109">
     <path d="M 358.996875 571.878438 
L 378.996875 571.878438 
" style="fill:none;stroke:#2ca02c;stroke-linecap:square;stroke-width:2;"/>
    </g>
    <g id="line2d_110"/>
    <g id="text_64">
     <!-- FB i -->
     <g transform="translate(386.996875 575.378438)scale(0.1 -0.1)">
      <use xlink:href="#DejaVuSans-70"/>
      <use x="57.519531" xlink:href="#DejaVuSans-66"/>
      <use x="126.123047" xlink:href="#DejaVuSans-32"/>
      <use x="157.910156" xlink:href="#DejaVuSans-105"/>
     </g>
    </g>
    <g id="line2d_111">
     <path d="M 425.565625 571.878438 
L 445.565625 571.878438 
" style="fill:none;stroke:#d62728;stroke-linecap:square;stroke-width:2;"/>
    </g>
    <g id="line2d_112"/>
    <g id="text_65">
     <!-- FB d -->
     <g transform="translate(453.565625 575.378438)scale(0.1 -0.1)">
      <use xlink:href="#DejaVuSans-70"/>
      <use x="57.519531" xlink:href="#DejaVuSans-66"/>
      <use x="126.123047" xlink:href="#DejaVuSans-32"/>
      <use x="157.910156" xlink:href="#DejaVuSans-100"/>
     </g>
    </g>
    <g id="line2d_113">
     <path d="M 495.704687 571.878438 
L 515.704687 571.878438 
" style="fill:none;stroke:#9467bd;stroke-linecap:square;stroke-width:2;"/>
    </g>
    <g id="line2d_114"/>
    <g id="text_66">
     <!-- FF+FB -->
     <g transform="translate(523.704687 575.378438)scale(0.1 -0.1)">
      <use xlink:href="#DejaVuSans-70"/>
      <use x="57.519531" xlink:href="#DejaVuSans-70"/>
      <use x="115.039062" xlink:href="#DejaVuSans-43"/>
      <use x="198.828125" xlink:href="#DejaVuSans-70"/>
      <use x="256.347656" xlink:href="#DejaVuSans-66"/>
     </g>
    </g>
   </g>
  </g>
 </g>
 <defs>
  <clipPath id="p7023436f05">
   <rect height="119.26" width="508.352998" x="56.847002" y="26.88"/>
  </clipPath>
  <clipPath id="p85d93da305">
   <rect height="119.26" width="508.352998" x="56.847002" y="204.18"/>
  </clipPath>
  <clipPath id="pafea1cbd05">
   <rect height="119.26" width="508.352998" x="56.847002" y="381.48"/>
  </clipPath>
  <clipPath id="p82d314f373">
   <rect height="119.26" width="508.352998" x="56.847002" y="558.78"/>
  </clipPath>
 </defs>
</svg>
