<?xml version="1.0" encoding="utf-8" standalone="no"?>
<!DOCTYPE svg PUBLIC "-//W3C//DTD SVG 1.1//EN"
  "http://www.w3.org/Graphics/SVG/1.1/DTD/svg11.dtd">
<!-- Created with matplotlib (https://matplotlib.org/) -->
<svg height="720pt" version="1.1" viewBox="0 0 576 720" width="576pt" xmlns="http://www.w3.org/2000/svg" xmlns:xlink="http://www.w3.org/1999/xlink">
 <defs>
  <style type="text/css">
*{stroke-linecap:butt;stroke-linejoin:round;}
  </style>
 </defs>
 <g id="figure_1">
  <g id="patch_1">
   <path d="M 0 720 
L 576 720 
L 576 0 
L 0 0 
z
" style="fill:#ffffff;"/>
  </g>
  <g id="axes_1">
   <g id="patch_2">
    <path d="M 48.476475 146.14 
L 559.019542 146.14 
L 559.019542 26.88 
L 48.476475 26.88 
z
" style="fill:#ffffff;"/>
   </g>
   <g id="matplotlib.axis_1">
    <g id="xtick_1">
     <g id="line2d_1">
      <path clip-path="url(#p07ac681dad)" d="M 71.682978 146.14 
L 71.682978 26.88 
" style="fill:none;stroke:#b0b0b0;stroke-linecap:square;stroke-width:0.8;"/>
     </g>
     <g id="line2d_2">
      <defs>
       <path d="M 0 0 
L 0 3.5 
" id="mc574cf8a1f" style="stroke:#000000;stroke-width:0.8;"/>
      </defs>
      <g>
       <use style="stroke:#000000;stroke-width:0.8;" x="71.682978" xlink:href="#mc574cf8a1f" y="146.14"/>
      </g>
     </g>
     <g id="text_1">
      <!-- 0.00 -->
      <defs>
       <path d="M 31.78125 66.40625 
Q 24.171875 66.40625 20.328125 58.90625 
Q 16.5 51.421875 16.5 36.375 
Q 16.5 21.390625 20.328125 13.890625 
Q 24.171875 6.390625 31.78125 6.390625 
Q 39.453125 6.390625 43.28125 13.890625 
Q 47.125 21.390625 47.125 36.375 
Q 47.125 51.421875 43.28125 58.90625 
Q 39.453125 66.40625 31.78125 66.40625 
z
M 31.78125 74.21875 
Q 44.046875 74.21875 50.515625 64.515625 
Q 56.984375 54.828125 56.984375 36.375 
Q 56.984375 17.96875 50.515625 8.265625 
Q 44.046875 -1.421875 31.78125 -1.421875 
Q 19.53125 -1.421875 13.0625 8.265625 
Q 6.59375 17.96875 6.59375 36.375 
Q 6.59375 54.828125 13.0625 64.515625 
Q 19.53125 74.21875 31.78125 74.21875 
z
" id="DejaVuSans-48"/>
       <path d="M 10.6875 12.40625 
L 21 12.40625 
L 21 0 
L 10.6875 0 
z
" id="DejaVuSans-46"/>
      </defs>
      <g transform="translate(60.550165 160.738438)scale(0.1 -0.1)">
       <use xlink:href="#DejaVuSans-48"/>
       <use x="63.623047" xlink:href="#DejaVuSans-46"/>
       <use x="95.410156" xlink:href="#DejaVuSans-48"/>
       <use x="159.033203" xlink:href="#DejaVuSans-48"/>
      </g>
     </g>
    </g>
    <g id="xtick_2">
     <g id="line2d_3">
      <path clip-path="url(#p07ac681dad)" d="M 151.982296 146.14 
L 151.982296 26.88 
" style="fill:none;stroke:#b0b0b0;stroke-linecap:square;stroke-width:0.8;"/>
     </g>
     <g id="line2d_4">
      <g>
       <use style="stroke:#000000;stroke-width:0.8;" x="151.982296" xlink:href="#mc574cf8a1f" y="146.14"/>
      </g>
     </g>
     <g id="text_2">
      <!-- 0.05 -->
      <defs>
       <path d="M 10.796875 72.90625 
L 49.515625 72.90625 
L 49.515625 64.59375 
L 19.828125 64.59375 
L 19.828125 46.734375 
Q 21.96875 47.46875 24.109375 47.828125 
Q 26.265625 48.1875 28.421875 48.1875 
Q 40.625 48.1875 47.75 41.5 
Q 54.890625 34.8125 54.890625 23.390625 
Q 54.890625 11.625 47.5625 5.09375 
Q 40.234375 -1.421875 26.90625 -1.421875 
Q 22.3125 -1.421875 17.546875 -0.640625 
Q 12.796875 0.140625 7.71875 1.703125 
L 7.71875 11.625 
Q 12.109375 9.234375 16.796875 8.0625 
Q 21.484375 6.890625 26.703125 6.890625 
Q 35.15625 6.890625 40.078125 11.328125 
Q 45.015625 15.765625 45.015625 23.390625 
Q 45.015625 31 40.078125 35.4375 
Q 35.15625 39.890625 26.703125 39.890625 
Q 22.75 39.890625 18.8125 39.015625 
Q 14.890625 38.140625 10.796875 36.28125 
z
" id="DejaVuSans-53"/>
      </defs>
      <g transform="translate(140.849484 160.738438)scale(0.1 -0.1)">
       <use xlink:href="#DejaVuSans-48"/>
       <use x="63.623047" xlink:href="#DejaVuSans-46"/>
       <use x="95.410156" xlink:href="#DejaVuSans-48"/>
       <use x="159.033203" xlink:href="#DejaVuSans-53"/>
      </g>
     </g>
    </g>
    <g id="xtick_3">
     <g id="line2d_5">
      <path clip-path="url(#p07ac681dad)" d="M 232.281615 146.14 
L 232.281615 26.88 
" style="fill:none;stroke:#b0b0b0;stroke-linecap:square;stroke-width:0.8;"/>
     </g>
     <g id="line2d_6">
      <g>
       <use style="stroke:#000000;stroke-width:0.8;" x="232.281615" xlink:href="#mc574cf8a1f" y="146.14"/>
      </g>
     </g>
     <g id="text_3">
      <!-- 0.10 -->
      <defs>
       <path d="M 12.40625 8.296875 
L 28.515625 8.296875 
L 28.515625 63.921875 
L 10.984375 60.40625 
L 10.984375 69.390625 
L 28.421875 72.90625 
L 38.28125 72.90625 
L 38.28125 8.296875 
L 54.390625 8.296875 
L 54.390625 0 
L 12.40625 0 
z
" id="DejaVuSans-49"/>
      </defs>
      <g transform="translate(221.148802 160.738438)scale(0.1 -0.1)">
       <use xlink:href="#DejaVuSans-48"/>
       <use x="63.623047" xlink:href="#DejaVuSans-46"/>
       <use x="95.410156" xlink:href="#DejaVuSans-49"/>
       <use x="159.033203" xlink:href="#DejaVuSans-48"/>
      </g>
     </g>
    </g>
    <g id="xtick_4">
     <g id="line2d_7">
      <path clip-path="url(#p07ac681dad)" d="M 312.580934 146.14 
L 312.580934 26.88 
" style="fill:none;stroke:#b0b0b0;stroke-linecap:square;stroke-width:0.8;"/>
     </g>
     <g id="line2d_8">
      <g>
       <use style="stroke:#000000;stroke-width:0.8;" x="312.580934" xlink:href="#mc574cf8a1f" y="146.14"/>
      </g>
     </g>
     <g id="text_4">
      <!-- 0.15 -->
      <g transform="translate(301.448121 160.738438)scale(0.1 -0.1)">
       <use xlink:href="#DejaVuSans-48"/>
       <use x="63.623047" xlink:href="#DejaVuSans-46"/>
       <use x="95.410156" xlink:href="#DejaVuSans-49"/>
       <use x="159.033203" xlink:href="#DejaVuSans-53"/>
      </g>
     </g>
    </g>
    <g id="xtick_5">
     <g id="line2d_9">
      <path clip-path="url(#p07ac681dad)" d="M 392.880252 146.14 
L 392.880252 26.88 
" style="fill:none;stroke:#b0b0b0;stroke-linecap:square;stroke-width:0.8;"/>
     </g>
     <g id="line2d_10">
      <g>
       <use style="stroke:#000000;stroke-width:0.8;" x="392.880252" xlink:href="#mc574cf8a1f" y="146.14"/>
      </g>
     </g>
     <g id="text_5">
      <!-- 0.20 -->
      <defs>
       <path d="M 19.1875 8.296875 
L 53.609375 8.296875 
L 53.609375 0 
L 7.328125 0 
L 7.328125 8.296875 
Q 12.9375 14.109375 22.625 23.890625 
Q 32.328125 33.6875 34.8125 36.53125 
Q 39.546875 41.84375 41.421875 45.53125 
Q 43.3125 49.21875 43.3125 52.78125 
Q 43.3125 58.59375 39.234375 62.25 
Q 35.15625 65.921875 28.609375 65.921875 
Q 23.96875 65.921875 18.8125 64.3125 
Q 13.671875 62.703125 7.8125 59.421875 
L 7.8125 69.390625 
Q 13.765625 71.78125 18.9375 73 
Q 24.125 74.21875 28.421875 74.21875 
Q 39.75 74.21875 46.484375 68.546875 
Q 53.21875 62.890625 53.21875 53.421875 
Q 53.21875 48.921875 51.53125 44.890625 
Q 49.859375 40.875 45.40625 35.40625 
Q 44.1875 33.984375 37.640625 27.21875 
Q 31.109375 20.453125 19.1875 8.296875 
z
" id="DejaVuSans-50"/>
      </defs>
      <g transform="translate(381.74744 160.738438)scale(0.1 -0.1)">
       <use xlink:href="#DejaVuSans-48"/>
       <use x="63.623047" xlink:href="#DejaVuSans-46"/>
       <use x="95.410156" xlink:href="#DejaVuSans-50"/>
       <use x="159.033203" xlink:href="#DejaVuSans-48"/>
      </g>
     </g>
    </g>
    <g id="xtick_6">
     <g id="line2d_11">
      <path clip-path="url(#p07ac681dad)" d="M 473.179571 146.14 
L 473.179571 26.88 
" style="fill:none;stroke:#b0b0b0;stroke-linecap:square;stroke-width:0.8;"/>
     </g>
     <g id="line2d_12">
      <g>
       <use style="stroke:#000000;stroke-width:0.8;" x="473.179571" xlink:href="#mc574cf8a1f" y="146.14"/>
      </g>
     </g>
     <g id="text_6">
      <!-- 0.25 -->
      <g transform="translate(462.046758 160.738438)scale(0.1 -0.1)">
       <use xlink:href="#DejaVuSans-48"/>
       <use x="63.623047" xlink:href="#DejaVuSans-46"/>
       <use x="95.410156" xlink:href="#DejaVuSans-50"/>
       <use x="159.033203" xlink:href="#DejaVuSans-53"/>
      </g>
     </g>
    </g>
    <g id="xtick_7">
     <g id="line2d_13">
      <path clip-path="url(#p07ac681dad)" d="M 553.478889 146.14 
L 553.478889 26.88 
" style="fill:none;stroke:#b0b0b0;stroke-linecap:square;stroke-width:0.8;"/>
     </g>
     <g id="line2d_14">
      <g>
       <use style="stroke:#000000;stroke-width:0.8;" x="553.478889" xlink:href="#mc574cf8a1f" y="146.14"/>
      </g>
     </g>
     <g id="text_7">
      <!-- 0.30 -->
      <defs>
       <path d="M 40.578125 39.3125 
Q 47.65625 37.796875 51.625 33 
Q 55.609375 28.21875 55.609375 21.1875 
Q 55.609375 10.40625 48.1875 4.484375 
Q 40.765625 -1.421875 27.09375 -1.421875 
Q 22.515625 -1.421875 17.65625 -0.515625 
Q 12.796875 0.390625 7.625 2.203125 
L 7.625 11.71875 
Q 11.71875 9.328125 16.59375 8.109375 
Q 21.484375 6.890625 26.8125 6.890625 
Q 36.078125 6.890625 40.9375 10.546875 
Q 45.796875 14.203125 45.796875 21.1875 
Q 45.796875 27.640625 41.28125 31.265625 
Q 36.765625 34.90625 28.71875 34.90625 
L 20.21875 34.90625 
L 20.21875 43.015625 
L 29.109375 43.015625 
Q 36.375 43.015625 40.234375 45.921875 
Q 44.09375 48.828125 44.09375 54.296875 
Q 44.09375 59.90625 40.109375 62.90625 
Q 36.140625 65.921875 28.71875 65.921875 
Q 24.65625 65.921875 20.015625 65.03125 
Q 15.375 64.15625 9.8125 62.3125 
L 9.8125 71.09375 
Q 15.4375 72.65625 20.34375 73.4375 
Q 25.25 74.21875 29.59375 74.21875 
Q 40.828125 74.21875 47.359375 69.109375 
Q 53.90625 64.015625 53.90625 55.328125 
Q 53.90625 49.265625 50.4375 45.09375 
Q 46.96875 40.921875 40.578125 39.3125 
z
" id="DejaVuSans-51"/>
      </defs>
      <g transform="translate(542.346077 160.738438)scale(0.1 -0.1)">
       <use xlink:href="#DejaVuSans-48"/>
       <use x="63.623047" xlink:href="#DejaVuSans-46"/>
       <use x="95.410156" xlink:href="#DejaVuSans-51"/>
       <use x="159.033203" xlink:href="#DejaVuSans-48"/>
      </g>
     </g>
    </g>
    <g id="text_8">
     <!-- Time [ms] -->
     <defs>
      <path d="M -0.296875 72.90625 
L 61.375 72.90625 
L 61.375 64.59375 
L 35.5 64.59375 
L 35.5 0 
L 25.59375 0 
L 25.59375 64.59375 
L -0.296875 64.59375 
z
" id="DejaVuSans-84"/>
      <path d="M 9.421875 54.6875 
L 18.40625 54.6875 
L 18.40625 0 
L 9.421875 0 
z
M 9.421875 75.984375 
L 18.40625 75.984375 
L 18.40625 64.59375 
L 9.421875 64.59375 
z
" id="DejaVuSans-105"/>
      <path d="M 52 44.1875 
Q 55.375 50.25 60.0625 53.125 
Q 64.75 56 71.09375 56 
Q 79.640625 56 84.28125 50.015625 
Q 88.921875 44.046875 88.921875 33.015625 
L 88.921875 0 
L 79.890625 0 
L 79.890625 32.71875 
Q 79.890625 40.578125 77.09375 44.375 
Q 74.3125 48.1875 68.609375 48.1875 
Q 61.625 48.1875 57.5625 43.546875 
Q 53.515625 38.921875 53.515625 30.90625 
L 53.515625 0 
L 44.484375 0 
L 44.484375 32.71875 
Q 44.484375 40.625 41.703125 44.40625 
Q 38.921875 48.1875 33.109375 48.1875 
Q 26.21875 48.1875 22.15625 43.53125 
Q 18.109375 38.875 18.109375 30.90625 
L 18.109375 0 
L 9.078125 0 
L 9.078125 54.6875 
L 18.109375 54.6875 
L 18.109375 46.1875 
Q 21.1875 51.21875 25.484375 53.609375 
Q 29.78125 56 35.6875 56 
Q 41.65625 56 45.828125 52.96875 
Q 50 49.953125 52 44.1875 
z
" id="DejaVuSans-109"/>
      <path d="M 56.203125 29.59375 
L 56.203125 25.203125 
L 14.890625 25.203125 
Q 15.484375 15.921875 20.484375 11.0625 
Q 25.484375 6.203125 34.421875 6.203125 
Q 39.59375 6.203125 44.453125 7.46875 
Q 49.3125 8.734375 54.109375 11.28125 
L 54.109375 2.78125 
Q 49.265625 0.734375 44.1875 -0.34375 
Q 39.109375 -1.421875 33.890625 -1.421875 
Q 20.796875 -1.421875 13.15625 6.1875 
Q 5.515625 13.8125 5.515625 26.8125 
Q 5.515625 40.234375 12.765625 48.109375 
Q 20.015625 56 32.328125 56 
Q 43.359375 56 49.78125 48.890625 
Q 56.203125 41.796875 56.203125 29.59375 
z
M 47.21875 32.234375 
Q 47.125 39.59375 43.09375 43.984375 
Q 39.0625 48.390625 32.421875 48.390625 
Q 24.90625 48.390625 20.390625 44.140625 
Q 15.875 39.890625 15.1875 32.171875 
z
" id="DejaVuSans-101"/>
      <path id="DejaVuSans-32"/>
      <path d="M 8.59375 75.984375 
L 29.296875 75.984375 
L 29.296875 69 
L 17.578125 69 
L 17.578125 -6.203125 
L 29.296875 -6.203125 
L 29.296875 -13.1875 
L 8.59375 -13.1875 
z
" id="DejaVuSans-91"/>
      <path d="M 44.28125 53.078125 
L 44.28125 44.578125 
Q 40.484375 46.53125 36.375 47.5 
Q 32.28125 48.484375 27.875 48.484375 
Q 21.1875 48.484375 17.84375 46.4375 
Q 14.5 44.390625 14.5 40.28125 
Q 14.5 37.15625 16.890625 35.375 
Q 19.28125 33.59375 26.515625 31.984375 
L 29.59375 31.296875 
Q 39.15625 29.25 43.1875 25.515625 
Q 47.21875 21.78125 47.21875 15.09375 
Q 47.21875 7.46875 41.1875 3.015625 
Q 35.15625 -1.421875 24.609375 -1.421875 
Q 20.21875 -1.421875 15.453125 -0.5625 
Q 10.6875 0.296875 5.421875 2 
L 5.421875 11.28125 
Q 10.40625 8.6875 15.234375 7.390625 
Q 20.0625 6.109375 24.8125 6.109375 
Q 31.15625 6.109375 34.5625 8.28125 
Q 37.984375 10.453125 37.984375 14.40625 
Q 37.984375 18.0625 35.515625 20.015625 
Q 33.0625 21.96875 24.703125 23.78125 
L 21.578125 24.515625 
Q 13.234375 26.265625 9.515625 29.90625 
Q 5.8125 33.546875 5.8125 39.890625 
Q 5.8125 47.609375 11.28125 51.796875 
Q 16.75 56 26.8125 56 
Q 31.78125 56 36.171875 55.265625 
Q 40.578125 54.546875 44.28125 53.078125 
z
" id="DejaVuSans-115"/>
      <path d="M 30.421875 75.984375 
L 30.421875 -13.1875 
L 9.71875 -13.1875 
L 9.71875 -6.203125 
L 21.390625 -6.203125 
L 21.390625 69 
L 9.71875 69 
L 9.71875 75.984375 
z
" id="DejaVuSans-93"/>
     </defs>
     <g transform="translate(278.54879 174.416563)scale(0.1 -0.1)">
      <use xlink:href="#DejaVuSans-84"/>
      <use x="57.958984" xlink:href="#DejaVuSans-105"/>
      <use x="85.742188" xlink:href="#DejaVuSans-109"/>
      <use x="183.154297" xlink:href="#DejaVuSans-101"/>
      <use x="244.677734" xlink:href="#DejaVuSans-32"/>
      <use x="276.464844" xlink:href="#DejaVuSans-91"/>
      <use x="315.478516" xlink:href="#DejaVuSans-109"/>
      <use x="412.890625" xlink:href="#DejaVuSans-115"/>
      <use x="464.990234" xlink:href="#DejaVuSans-93"/>
     </g>
    </g>
   </g>
   <g id="matplotlib.axis_2">
    <g id="ytick_1">
     <g id="line2d_15">
      <path clip-path="url(#p07ac681dad)" d="M 48.476475 133.017389 
L 559.019542 133.017389 
" style="fill:none;stroke:#b0b0b0;stroke-linecap:square;stroke-width:0.8;"/>
     </g>
     <g id="line2d_16">
      <defs>
       <path d="M 0 0 
L -3.5 0 
" id="m0f92351ab9" style="stroke:#000000;stroke-width:0.8;"/>
      </defs>
      <g>
       <use style="stroke:#000000;stroke-width:0.8;" x="48.476475" xlink:href="#m0f92351ab9" y="133.017389"/>
      </g>
     </g>
     <g id="text_9">
      <!-- $\mathdefault{−1}$ -->
      <defs>
       <path d="M 10.59375 35.5 
L 73.1875 35.5 
L 73.1875 27.203125 
L 10.59375 27.203125 
z
" id="DejaVuSans-8722"/>
      </defs>
      <g transform="translate(26.676475 136.816608)scale(0.1 -0.1)">
       <use transform="translate(0 0.09375)" xlink:href="#DejaVuSans-8722"/>
       <use transform="translate(83.789062 0.09375)" xlink:href="#DejaVuSans-49"/>
      </g>
     </g>
    </g>
    <g id="ytick_2">
     <g id="line2d_17">
      <path clip-path="url(#p07ac681dad)" d="M 48.476475 103.029841 
L 559.019542 103.029841 
" style="fill:none;stroke:#b0b0b0;stroke-linecap:square;stroke-width:0.8;"/>
     </g>
     <g id="line2d_18">
      <g>
       <use style="stroke:#000000;stroke-width:0.8;" x="48.476475" xlink:href="#m0f92351ab9" y="103.029841"/>
      </g>
     </g>
     <g id="text_10">
      <!-- $\mathdefault{0}$ -->
      <g transform="translate(35.076475 106.829059)scale(0.1 -0.1)">
       <use transform="translate(0 0.78125)" xlink:href="#DejaVuSans-48"/>
      </g>
     </g>
    </g>
    <g id="ytick_3">
     <g id="line2d_19">
      <path clip-path="url(#p07ac681dad)" d="M 48.476475 73.042292 
L 559.019542 73.042292 
" style="fill:none;stroke:#b0b0b0;stroke-linecap:square;stroke-width:0.8;"/>
     </g>
     <g id="line2d_20">
      <g>
       <use style="stroke:#000000;stroke-width:0.8;" x="48.476475" xlink:href="#m0f92351ab9" y="73.042292"/>
      </g>
     </g>
     <g id="text_11">
      <!-- $\mathdefault{1}$ -->
      <g transform="translate(35.076475 76.841511)scale(0.1 -0.1)">
       <use transform="translate(0 0.09375)" xlink:href="#DejaVuSans-49"/>
      </g>
     </g>
    </g>
    <g id="ytick_4">
     <g id="line2d_21">
      <path clip-path="url(#p07ac681dad)" d="M 48.476475 43.054744 
L 559.019542 43.054744 
" style="fill:none;stroke:#b0b0b0;stroke-linecap:square;stroke-width:0.8;"/>
     </g>
     <g id="line2d_22">
      <g>
       <use style="stroke:#000000;stroke-width:0.8;" x="48.476475" xlink:href="#m0f92351ab9" y="43.054744"/>
      </g>
     </g>
     <g id="text_12">
      <!-- $\mathdefault{2}$ -->
      <g transform="translate(35.076475 46.853963)scale(0.1 -0.1)">
       <use transform="translate(0 0.78125)" xlink:href="#DejaVuSans-50"/>
      </g>
     </g>
    </g>
    <g id="text_13">
     <!-- vel. [m/s] -->
     <defs>
      <path d="M 2.984375 54.6875 
L 12.5 54.6875 
L 29.59375 8.796875 
L 46.6875 54.6875 
L 56.203125 54.6875 
L 35.6875 0 
L 23.484375 0 
z
" id="DejaVuSans-118"/>
      <path d="M 9.421875 75.984375 
L 18.40625 75.984375 
L 18.40625 0 
L 9.421875 0 
z
" id="DejaVuSans-108"/>
      <path d="M 25.390625 72.90625 
L 33.6875 72.90625 
L 8.296875 -9.28125 
L 0 -9.28125 
z
" id="DejaVuSans-47"/>
     </defs>
     <g transform="translate(20.596787 110.174063)rotate(-90)scale(0.1 -0.1)">
      <use xlink:href="#DejaVuSans-118"/>
      <use x="59.179688" xlink:href="#DejaVuSans-101"/>
      <use x="120.703125" xlink:href="#DejaVuSans-108"/>
      <use x="148.486328" xlink:href="#DejaVuSans-46"/>
      <use x="180.273438" xlink:href="#DejaVuSans-32"/>
      <use x="212.060547" xlink:href="#DejaVuSans-91"/>
      <use x="251.074219" xlink:href="#DejaVuSans-109"/>
      <use x="348.486328" xlink:href="#DejaVuSans-47"/>
      <use x="382.177734" xlink:href="#DejaVuSans-115"/>
      <use x="434.277344" xlink:href="#DejaVuSans-93"/>
     </g>
    </g>
    <g id="text_14">
     <!-- $\times\mathdefault{10^{1}}\mathdefault{}$ -->
     <defs>
      <path d="M 70.125 53.71875 
L 47.796875 31.296875 
L 70.125 8.984375 
L 64.3125 3.078125 
L 41.890625 25.484375 
L 19.484375 3.078125 
L 13.71875 8.984375 
L 35.984375 31.296875 
L 13.71875 53.71875 
L 19.484375 59.625 
L 41.890625 37.203125 
L 64.3125 59.625 
z
" id="DejaVuSans-215"/>
     </defs>
     <g transform="translate(48.476475 23.88)scale(0.1 -0.1)">
      <use transform="translate(0 0.684375)" xlink:href="#DejaVuSans-215"/>
      <use transform="translate(83.789062 0.684375)" xlink:href="#DejaVuSans-49"/>
      <use transform="translate(147.412109 0.684375)" xlink:href="#DejaVuSans-48"/>
      <use transform="translate(211.992188 38.965625)scale(0.7)" xlink:href="#DejaVuSans-49"/>
     </g>
    </g>
   </g>
   <g id="line2d_23">
    <path clip-path="url(#p07ac681dad)" d="M 71.682978 103.029841 
L 535.813039 103.029841 
L 535.813039 103.029841 
" style="fill:none;stroke:#1f77b4;stroke-linecap:square;stroke-width:2;"/>
   </g>
   <g id="line2d_24">
    <path clip-path="url(#p07ac681dad)" d="M 71.682978 103.029841 
L 73.288964 101.243428 
L 74.89495 101.760033 
L 76.500937 106.267416 
L 78.106923 106.148486 
L 79.71291 101.921606 
L 81.318896 100.689618 
L 82.924882 102.937657 
L 84.530869 102.731642 
L 86.136855 103.350776 
L 87.742841 101.645687 
L 89.348828 103.870901 
L 90.954814 94.6736 
L 92.560801 91.274871 
L 94.166787 99.557102 
L 95.772773 101.154761 
L 97.37876 99.669556 
L 98.984746 99.076522 
L 100.590732 99.617437 
L 102.196719 99.82693 
L 103.802705 97.080461 
L 105.408692 96.86572 
L 108.620664 93.341673 
L 111.832637 98.515335 
L 113.438623 100.056452 
L 115.04461 103.572465 
L 116.650596 105.465453 
L 118.256582 104.703859 
L 119.862569 104.071956 
L 121.468555 107.977276 
L 123.074542 109.012476 
L 124.680528 112.008292 
L 126.286514 111.654919 
L 127.892501 115.634567 
L 129.498487 117.62574 
L 132.71046 122.138626 
L 134.316446 116.400809 
L 135.922433 111.211613 
L 137.528419 111.685386 
L 139.134405 110.406148 
L 140.740392 109.307464 
L 142.346378 106.110491 
L 143.952364 107.555921 
L 147.164337 104.127817 
L 150.37631 99.698584 
L 151.982296 93.311356 
L 153.588283 95.595028 
L 155.194269 92.9635 
L 156.800255 98.827385 
L 158.406242 101.164099 
L 160.012228 104.470886 
L 161.618215 112.098255 
L 163.224201 113.040104 
L 164.830187 126.780309 
L 166.436174 128.492718 
L 168.04216 122.715347 
L 169.648146 123.915868 
L 171.254133 140.719091 
L 172.860119 136.495645 
L 176.072092 124.679651 
L 177.678078 117.076728 
L 179.284065 116.265355 
L 180.890051 111.344248 
L 184.102024 94.239231 
L 185.70801 97.08235 
L 187.313996 109.179747 
L 188.919983 125.822806 
L 190.525969 106.791029 
L 192.131956 112.546929 
L 193.737942 114.194175 
L 195.343928 114.2785 
L 196.949915 105.231511 
L 198.555901 106.900543 
L 200.161887 102.999719 
L 201.767874 89.870165 
L 203.37386 86.609559 
L 204.979847 79.072908 
L 206.585833 92.023661 
L 208.191819 103.14063 
L 209.797806 108.699676 
L 211.403792 118.981297 
L 213.009778 116.574616 
L 214.615765 117.709045 
L 216.221751 128.397027 
L 219.433724 99.157788 
L 221.03971 83.490104 
L 222.645697 76.407345 
L 224.251683 73.623241 
L 225.857669 82.808307 
L 227.463656 89.436695 
L 229.069642 98.597471 
L 230.675629 100.799544 
L 232.281615 95.250261 
L 233.887601 92.322786 
L 235.493588 78.310535 
L 237.099574 74.280988 
L 238.70556 75.871377 
L 240.311547 62.183801 
L 241.917533 67.271488 
L 243.52352 57.940263 
L 246.735492 61.917811 
L 248.341479 63.409092 
L 249.947465 67.770781 
L 251.553451 74.322101 
L 253.159438 75.077427 
L 254.765424 79.109253 
L 256.37141 85.90683 
L 257.977397 80.450446 
L 259.583383 75.939359 
L 261.18937 70.674775 
L 262.795356 73.068591 
L 264.401342 61.250888 
L 266.007329 54.090162 
L 267.613315 52.277114 
L 272.431274 74.627764 
L 274.037261 91.105262 
L 275.643247 87.333008 
L 277.249233 73.812522 
L 278.85522 73.010205 
L 280.461206 60.799276 
L 282.067192 37.199075 
L 283.673179 36.921091 
L 285.279165 35.995375 
L 286.885152 59.714626 
L 288.491138 55.223991 
L 290.097124 68.407417 
L 291.703111 72.3013 
L 293.309097 65.529212 
L 294.915083 67.333862 
L 296.52107 60.594461 
L 298.127056 70.645387 
L 299.733043 63.328426 
L 301.339029 61.756778 
L 302.945015 63.492458 
L 304.551002 79.135192 
L 306.156988 81.976422 
L 307.762974 76.196682 
L 309.368961 76.725183 
L 310.974947 78.211576 
L 312.580934 81.829034 
L 314.18692 77.481409 
L 315.792906 78.114116 
L 317.398893 64.771127 
L 319.004879 66.112769 
L 320.610865 51.95175 
L 322.216852 41.135841 
L 323.822838 40.846461 
L 325.428824 47.218215 
L 327.034811 45.459745 
L 328.640797 51.026934 
L 330.246784 53.582173 
L 331.85277 53.425338 
L 333.458756 60.086172 
L 335.064743 59.863964 
L 336.670729 60.676927 
L 338.276715 59.637258 
L 339.882702 70.071426 
L 341.488688 58.601488 
L 343.094675 51.22755 
L 344.700661 45.811499 
L 346.306647 42.457092 
L 347.912634 62.784751 
L 349.51862 44.347207 
L 351.124606 55.482783 
L 352.730593 70.824113 
L 354.336579 76.696545 
L 355.942566 73.551571 
L 357.548552 58.931052 
L 359.154538 67.421426 
L 360.760525 39.913848 
L 362.366511 38.830398 
L 363.972497 32.300909 
L 365.578484 46.831676 
L 367.18447 48.483989 
L 368.790457 57.253248 
L 370.396443 68.762769 
L 372.002429 43.816128 
L 373.608416 56.847517 
L 375.214402 62.340036 
L 376.820388 66.113369 
L 378.426375 55.126231 
L 380.032361 45.30411 
L 381.638348 42.958484 
L 383.244334 50.45777 
L 384.85032 52.76951 
L 386.456307 60.393544 
L 388.062293 61.201709 
L 389.668279 67.577661 
L 391.274266 71.945648 
L 392.880252 77.680676 
L 394.486238 80.70612 
L 396.092225 87.9539 
L 397.698211 91.020037 
L 399.304198 94.96373 
L 400.910184 99.623525 
L 402.51617 102.779607 
L 404.122157 104.029625 
L 405.728143 104.482482 
L 407.334129 102.235036 
L 408.940116 102.195203 
L 410.546102 102.949634 
L 413.758075 99.667217 
L 415.364061 99.945201 
L 416.970048 101.648584 
L 418.576034 102.985977 
L 420.18202 101.435079 
L 421.788007 101.900153 
L 423.393993 101.467198 
L 424.99998 103.187961 
L 426.605966 103.796157 
L 428.211952 101.343146 
L 429.817939 102.07432 
L 431.423925 101.629296 
L 433.029911 102.213771 
L 434.635898 103.706216 
L 436.241884 102.999942 
L 437.847871 103.214964 
L 439.453857 102.124531 
L 441.059843 100.042295 
L 442.66583 101.798144 
L 444.271816 103.298363 
L 445.877802 102.938735 
L 447.483789 100.571674 
L 449.089775 102.026478 
L 450.695762 101.018624 
L 452.301748 103.334898 
L 453.907734 102.991268 
L 455.513721 103.412203 
L 457.119707 104.321731 
L 458.725693 103.322142 
L 460.33168 103.487573 
L 461.937666 100.666174 
L 463.543652 102.293367 
L 465.149639 102.550496 
L 466.755625 103.889485 
L 468.361612 100.841736 
L 469.967598 102.426842 
L 471.573584 104.206228 
L 473.179571 101.990205 
L 474.785557 103.98597 
L 476.391543 104.852667 
L 477.99753 102.993401 
L 479.603516 102.259964 
L 481.209503 102.467466 
L 482.815489 102.125779 
L 484.421475 102.091671 
L 486.027462 102.687635 
L 487.633448 103.449381 
L 489.239434 101.336144 
L 490.845421 100.254481 
L 492.451407 99.023714 
L 494.057394 100.113992 
L 495.66338 101.985167 
L 497.269366 103.26767 
L 500.481339 102.528758 
L 502.087325 104.14604 
L 503.693312 104.578014 
L 505.299298 102.54965 
L 506.905285 102.737301 
L 508.511271 100.342878 
L 510.117257 105.536377 
L 511.723244 102.056604 
L 513.32923 104.921239 
L 514.935216 104.655627 
L 516.541203 106.106653 
L 518.147189 101.265169 
L 519.753176 101.780979 
L 521.359162 98.755985 
L 522.965148 100.411001 
L 524.571135 101.697866 
L 526.177121 101.217357 
L 527.783107 101.925231 
L 529.389094 102.457723 
L 530.99508 104.262677 
L 532.601066 100.933456 
L 534.207053 106.103984 
L 535.813039 102.014423 
L 535.813039 102.014423 
" style="fill:none;stroke:#ff7f0e;stroke-linecap:square;stroke-width:2;"/>
   </g>
   <g id="patch_3">
    <path d="M 48.476475 146.14 
L 48.476475 26.88 
" style="fill:none;stroke:#000000;stroke-linecap:square;stroke-linejoin:miter;stroke-width:0.8;"/>
   </g>
   <g id="patch_4">
    <path d="M 559.019542 146.14 
L 559.019542 26.88 
" style="fill:none;stroke:#000000;stroke-linecap:square;stroke-linejoin:miter;stroke-width:0.8;"/>
   </g>
   <g id="patch_5">
    <path d="M 48.476475 146.14 
L 559.019542 146.14 
" style="fill:none;stroke:#000000;stroke-linecap:square;stroke-linejoin:miter;stroke-width:0.8;"/>
   </g>
   <g id="patch_6">
    <path d="M 48.476475 26.88 
L 559.019542 26.88 
" style="fill:none;stroke:#000000;stroke-linecap:square;stroke-linejoin:miter;stroke-width:0.8;"/>
   </g>
   <g id="text_15">
    <!-- Translational Velocity -->
    <defs>
     <path d="M 41.109375 46.296875 
Q 39.59375 47.171875 37.8125 47.578125 
Q 36.03125 48 33.890625 48 
Q 26.265625 48 22.1875 43.046875 
Q 18.109375 38.09375 18.109375 28.8125 
L 18.109375 0 
L 9.078125 0 
L 9.078125 54.6875 
L 18.109375 54.6875 
L 18.109375 46.1875 
Q 20.953125 51.171875 25.484375 53.578125 
Q 30.03125 56 36.53125 56 
Q 37.453125 56 38.578125 55.875 
Q 39.703125 55.765625 41.0625 55.515625 
z
" id="DejaVuSans-114"/>
     <path d="M 34.28125 27.484375 
Q 23.390625 27.484375 19.1875 25 
Q 14.984375 22.515625 14.984375 16.5 
Q 14.984375 11.71875 18.140625 8.90625 
Q 21.296875 6.109375 26.703125 6.109375 
Q 34.1875 6.109375 38.703125 11.40625 
Q 43.21875 16.703125 43.21875 25.484375 
L 43.21875 27.484375 
z
M 52.203125 31.203125 
L 52.203125 0 
L 43.21875 0 
L 43.21875 8.296875 
Q 40.140625 3.328125 35.546875 0.953125 
Q 30.953125 -1.421875 24.3125 -1.421875 
Q 15.921875 -1.421875 10.953125 3.296875 
Q 6 8.015625 6 15.921875 
Q 6 25.140625 12.171875 29.828125 
Q 18.359375 34.515625 30.609375 34.515625 
L 43.21875 34.515625 
L 43.21875 35.40625 
Q 43.21875 41.609375 39.140625 45 
Q 35.0625 48.390625 27.6875 48.390625 
Q 23 48.390625 18.546875 47.265625 
Q 14.109375 46.140625 10.015625 43.890625 
L 10.015625 52.203125 
Q 14.9375 54.109375 19.578125 55.046875 
Q 24.21875 56 28.609375 56 
Q 40.484375 56 46.34375 49.84375 
Q 52.203125 43.703125 52.203125 31.203125 
z
" id="DejaVuSans-97"/>
     <path d="M 54.890625 33.015625 
L 54.890625 0 
L 45.90625 0 
L 45.90625 32.71875 
Q 45.90625 40.484375 42.875 44.328125 
Q 39.84375 48.1875 33.796875 48.1875 
Q 26.515625 48.1875 22.3125 43.546875 
Q 18.109375 38.921875 18.109375 30.90625 
L 18.109375 0 
L 9.078125 0 
L 9.078125 54.6875 
L 18.109375 54.6875 
L 18.109375 46.1875 
Q 21.34375 51.125 25.703125 53.5625 
Q 30.078125 56 35.796875 56 
Q 45.21875 56 50.046875 50.171875 
Q 54.890625 44.34375 54.890625 33.015625 
z
" id="DejaVuSans-110"/>
     <path d="M 18.3125 70.21875 
L 18.3125 54.6875 
L 36.8125 54.6875 
L 36.8125 47.703125 
L 18.3125 47.703125 
L 18.3125 18.015625 
Q 18.3125 11.328125 20.140625 9.421875 
Q 21.96875 7.515625 27.59375 7.515625 
L 36.8125 7.515625 
L 36.8125 0 
L 27.59375 0 
Q 17.1875 0 13.234375 3.875 
Q 9.28125 7.765625 9.28125 18.015625 
L 9.28125 47.703125 
L 2.6875 47.703125 
L 2.6875 54.6875 
L 9.28125 54.6875 
L 9.28125 70.21875 
z
" id="DejaVuSans-116"/>
     <path d="M 30.609375 48.390625 
Q 23.390625 48.390625 19.1875 42.75 
Q 14.984375 37.109375 14.984375 27.296875 
Q 14.984375 17.484375 19.15625 11.84375 
Q 23.34375 6.203125 30.609375 6.203125 
Q 37.796875 6.203125 41.984375 11.859375 
Q 46.1875 17.53125 46.1875 27.296875 
Q 46.1875 37.015625 41.984375 42.703125 
Q 37.796875 48.390625 30.609375 48.390625 
z
M 30.609375 56 
Q 42.328125 56 49.015625 48.375 
Q 55.71875 40.765625 55.71875 27.296875 
Q 55.71875 13.875 49.015625 6.21875 
Q 42.328125 -1.421875 30.609375 -1.421875 
Q 18.84375 -1.421875 12.171875 6.21875 
Q 5.515625 13.875 5.515625 27.296875 
Q 5.515625 40.765625 12.171875 48.375 
Q 18.84375 56 30.609375 56 
z
" id="DejaVuSans-111"/>
     <path d="M 28.609375 0 
L 0.78125 72.90625 
L 11.078125 72.90625 
L 34.1875 11.53125 
L 57.328125 72.90625 
L 67.578125 72.90625 
L 39.796875 0 
z
" id="DejaVuSans-86"/>
     <path d="M 48.78125 52.59375 
L 48.78125 44.1875 
Q 44.96875 46.296875 41.140625 47.34375 
Q 37.3125 48.390625 33.40625 48.390625 
Q 24.65625 48.390625 19.8125 42.84375 
Q 14.984375 37.3125 14.984375 27.296875 
Q 14.984375 17.28125 19.8125 11.734375 
Q 24.65625 6.203125 33.40625 6.203125 
Q 37.3125 6.203125 41.140625 7.25 
Q 44.96875 8.296875 48.78125 10.40625 
L 48.78125 2.09375 
Q 45.015625 0.34375 40.984375 -0.53125 
Q 36.96875 -1.421875 32.421875 -1.421875 
Q 20.0625 -1.421875 12.78125 6.34375 
Q 5.515625 14.109375 5.515625 27.296875 
Q 5.515625 40.671875 12.859375 48.328125 
Q 20.21875 56 33.015625 56 
Q 37.15625 56 41.109375 55.140625 
Q 45.0625 54.296875 48.78125 52.59375 
z
" id="DejaVuSans-99"/>
     <path d="M 32.171875 -5.078125 
Q 28.375 -14.84375 24.75 -17.8125 
Q 21.140625 -20.796875 15.09375 -20.796875 
L 7.90625 -20.796875 
L 7.90625 -13.28125 
L 13.1875 -13.28125 
Q 16.890625 -13.28125 18.9375 -11.515625 
Q 21 -9.765625 23.484375 -3.21875 
L 25.09375 0.875 
L 2.984375 54.6875 
L 12.5 54.6875 
L 29.59375 11.921875 
L 46.6875 54.6875 
L 56.203125 54.6875 
z
" id="DejaVuSans-121"/>
    </defs>
    <g transform="translate(240.270821 20.88)scale(0.12 -0.12)">
     <use xlink:href="#DejaVuSans-84"/>
     <use x="46.333984" xlink:href="#DejaVuSans-114"/>
     <use x="87.447266" xlink:href="#DejaVuSans-97"/>
     <use x="148.726562" xlink:href="#DejaVuSans-110"/>
     <use x="212.105469" xlink:href="#DejaVuSans-115"/>
     <use x="264.205078" xlink:href="#DejaVuSans-108"/>
     <use x="291.988281" xlink:href="#DejaVuSans-97"/>
     <use x="353.267578" xlink:href="#DejaVuSans-116"/>
     <use x="392.476562" xlink:href="#DejaVuSans-105"/>
     <use x="420.259766" xlink:href="#DejaVuSans-111"/>
     <use x="481.441406" xlink:href="#DejaVuSans-110"/>
     <use x="544.820312" xlink:href="#DejaVuSans-97"/>
     <use x="606.099609" xlink:href="#DejaVuSans-108"/>
     <use x="633.882812" xlink:href="#DejaVuSans-32"/>
     <use x="665.669922" xlink:href="#DejaVuSans-86"/>
     <use x="726.328125" xlink:href="#DejaVuSans-101"/>
     <use x="787.851562" xlink:href="#DejaVuSans-108"/>
     <use x="815.634766" xlink:href="#DejaVuSans-111"/>
     <use x="876.816406" xlink:href="#DejaVuSans-99"/>
     <use x="931.796875" xlink:href="#DejaVuSans-105"/>
     <use x="959.580078" xlink:href="#DejaVuSans-116"/>
     <use x="998.789062" xlink:href="#DejaVuSans-121"/>
    </g>
   </g>
   <g id="legend_1">
    <g id="patch_7">
     <path d="M 469.502355 64.23625 
L 552.019542 64.23625 
Q 554.019542 64.23625 554.019542 62.23625 
L 554.019542 33.88 
Q 554.019542 31.88 552.019542 31.88 
L 469.502355 31.88 
Q 467.502355 31.88 467.502355 33.88 
L 467.502355 62.23625 
Q 467.502355 64.23625 469.502355 64.23625 
z
" style="fill:#ffffff;opacity:0.8;stroke:#cccccc;stroke-linejoin:miter;"/>
    </g>
    <g id="line2d_25">
     <path d="M 471.502355 39.978438 
L 491.502355 39.978438 
" style="fill:none;stroke:#1f77b4;stroke-linecap:square;stroke-width:2;"/>
    </g>
    <g id="line2d_26"/>
    <g id="text_16">
     <!-- Reference -->
     <defs>
      <path d="M 44.390625 34.1875 
Q 47.5625 33.109375 50.5625 29.59375 
Q 53.5625 26.078125 56.59375 19.921875 
L 66.609375 0 
L 56 0 
L 46.6875 18.703125 
Q 43.0625 26.03125 39.671875 28.421875 
Q 36.28125 30.8125 30.421875 30.8125 
L 19.671875 30.8125 
L 19.671875 0 
L 9.8125 0 
L 9.8125 72.90625 
L 32.078125 72.90625 
Q 44.578125 72.90625 50.734375 67.671875 
Q 56.890625 62.453125 56.890625 51.90625 
Q 56.890625 45.015625 53.6875 40.46875 
Q 50.484375 35.9375 44.390625 34.1875 
z
M 19.671875 64.796875 
L 19.671875 38.921875 
L 32.078125 38.921875 
Q 39.203125 38.921875 42.84375 42.21875 
Q 46.484375 45.515625 46.484375 51.90625 
Q 46.484375 58.296875 42.84375 61.546875 
Q 39.203125 64.796875 32.078125 64.796875 
z
" id="DejaVuSans-82"/>
      <path d="M 37.109375 75.984375 
L 37.109375 68.5 
L 28.515625 68.5 
Q 23.6875 68.5 21.796875 66.546875 
Q 19.921875 64.59375 19.921875 59.515625 
L 19.921875 54.6875 
L 34.71875 54.6875 
L 34.71875 47.703125 
L 19.921875 47.703125 
L 19.921875 0 
L 10.890625 0 
L 10.890625 47.703125 
L 2.296875 47.703125 
L 2.296875 54.6875 
L 10.890625 54.6875 
L 10.890625 58.5 
Q 10.890625 67.625 15.140625 71.796875 
Q 19.390625 75.984375 28.609375 75.984375 
z
" id="DejaVuSans-102"/>
     </defs>
     <g transform="translate(499.502355 43.478438)scale(0.1 -0.1)">
      <use xlink:href="#DejaVuSans-82"/>
      <use x="64.982422" xlink:href="#DejaVuSans-101"/>
      <use x="126.505859" xlink:href="#DejaVuSans-102"/>
      <use x="161.710938" xlink:href="#DejaVuSans-101"/>
      <use x="223.234375" xlink:href="#DejaVuSans-114"/>
      <use x="262.097656" xlink:href="#DejaVuSans-101"/>
      <use x="323.621094" xlink:href="#DejaVuSans-110"/>
      <use x="387" xlink:href="#DejaVuSans-99"/>
      <use x="441.980469" xlink:href="#DejaVuSans-101"/>
     </g>
    </g>
    <g id="line2d_27">
     <path d="M 471.502355 54.656563 
L 491.502355 54.656563 
" style="fill:none;stroke:#ff7f0e;stroke-linecap:square;stroke-width:2;"/>
    </g>
    <g id="line2d_28"/>
    <g id="text_17">
     <!-- Estimated -->
     <defs>
      <path d="M 9.8125 72.90625 
L 55.90625 72.90625 
L 55.90625 64.59375 
L 19.671875 64.59375 
L 19.671875 43.015625 
L 54.390625 43.015625 
L 54.390625 34.71875 
L 19.671875 34.71875 
L 19.671875 8.296875 
L 56.78125 8.296875 
L 56.78125 0 
L 9.8125 0 
z
" id="DejaVuSans-69"/>
      <path d="M 45.40625 46.390625 
L 45.40625 75.984375 
L 54.390625 75.984375 
L 54.390625 0 
L 45.40625 0 
L 45.40625 8.203125 
Q 42.578125 3.328125 38.25 0.953125 
Q 33.9375 -1.421875 27.875 -1.421875 
Q 17.96875 -1.421875 11.734375 6.484375 
Q 5.515625 14.40625 5.515625 27.296875 
Q 5.515625 40.1875 11.734375 48.09375 
Q 17.96875 56 27.875 56 
Q 33.9375 56 38.25 53.625 
Q 42.578125 51.265625 45.40625 46.390625 
z
M 14.796875 27.296875 
Q 14.796875 17.390625 18.875 11.75 
Q 22.953125 6.109375 30.078125 6.109375 
Q 37.203125 6.109375 41.296875 11.75 
Q 45.40625 17.390625 45.40625 27.296875 
Q 45.40625 37.203125 41.296875 42.84375 
Q 37.203125 48.484375 30.078125 48.484375 
Q 22.953125 48.484375 18.875 42.84375 
Q 14.796875 37.203125 14.796875 27.296875 
z
" id="DejaVuSans-100"/>
     </defs>
     <g transform="translate(499.502355 58.156563)scale(0.1 -0.1)">
      <use xlink:href="#DejaVuSans-69"/>
      <use x="63.183594" xlink:href="#DejaVuSans-115"/>
      <use x="115.283203" xlink:href="#DejaVuSans-116"/>
      <use x="154.492188" xlink:href="#DejaVuSans-105"/>
      <use x="182.275391" xlink:href="#DejaVuSans-109"/>
      <use x="279.6875" xlink:href="#DejaVuSans-97"/>
      <use x="340.966797" xlink:href="#DejaVuSans-116"/>
      <use x="380.175781" xlink:href="#DejaVuSans-101"/>
      <use x="441.699219" xlink:href="#DejaVuSans-100"/>
     </g>
    </g>
   </g>
  </g>
  <g id="axes_2">
   <g id="patch_8">
    <path d="M 48.476475 323.44 
L 559.019542 323.44 
L 559.019542 204.18 
L 48.476475 204.18 
z
" style="fill:#ffffff;"/>
   </g>
   <g id="matplotlib.axis_3">
    <g id="xtick_8">
     <g id="line2d_29">
      <path clip-path="url(#p5e45890612)" d="M 71.682978 323.44 
L 71.682978 204.18 
" style="fill:none;stroke:#b0b0b0;stroke-linecap:square;stroke-width:0.8;"/>
     </g>
     <g id="line2d_30">
      <g>
       <use style="stroke:#000000;stroke-width:0.8;" x="71.682978" xlink:href="#mc574cf8a1f" y="323.44"/>
      </g>
     </g>
     <g id="text_18">
      <!-- 0.00 -->
      <g transform="translate(60.550165 338.038438)scale(0.1 -0.1)">
       <use xlink:href="#DejaVuSans-48"/>
       <use x="63.623047" xlink:href="#DejaVuSans-46"/>
       <use x="95.410156" xlink:href="#DejaVuSans-48"/>
       <use x="159.033203" xlink:href="#DejaVuSans-48"/>
      </g>
     </g>
    </g>
    <g id="xtick_9">
     <g id="line2d_31">
      <path clip-path="url(#p5e45890612)" d="M 151.982296 323.44 
L 151.982296 204.18 
" style="fill:none;stroke:#b0b0b0;stroke-linecap:square;stroke-width:0.8;"/>
     </g>
     <g id="line2d_32">
      <g>
       <use style="stroke:#000000;stroke-width:0.8;" x="151.982296" xlink:href="#mc574cf8a1f" y="323.44"/>
      </g>
     </g>
     <g id="text_19">
      <!-- 0.05 -->
      <g transform="translate(140.849484 338.038438)scale(0.1 -0.1)">
       <use xlink:href="#DejaVuSans-48"/>
       <use x="63.623047" xlink:href="#DejaVuSans-46"/>
       <use x="95.410156" xlink:href="#DejaVuSans-48"/>
       <use x="159.033203" xlink:href="#DejaVuSans-53"/>
      </g>
     </g>
    </g>
    <g id="xtick_10">
     <g id="line2d_33">
      <path clip-path="url(#p5e45890612)" d="M 232.281615 323.44 
L 232.281615 204.18 
" style="fill:none;stroke:#b0b0b0;stroke-linecap:square;stroke-width:0.8;"/>
     </g>
     <g id="line2d_34">
      <g>
       <use style="stroke:#000000;stroke-width:0.8;" x="232.281615" xlink:href="#mc574cf8a1f" y="323.44"/>
      </g>
     </g>
     <g id="text_20">
      <!-- 0.10 -->
      <g transform="translate(221.148802 338.038438)scale(0.1 -0.1)">
       <use xlink:href="#DejaVuSans-48"/>
       <use x="63.623047" xlink:href="#DejaVuSans-46"/>
       <use x="95.410156" xlink:href="#DejaVuSans-49"/>
       <use x="159.033203" xlink:href="#DejaVuSans-48"/>
      </g>
     </g>
    </g>
    <g id="xtick_11">
     <g id="line2d_35">
      <path clip-path="url(#p5e45890612)" d="M 312.580934 323.44 
L 312.580934 204.18 
" style="fill:none;stroke:#b0b0b0;stroke-linecap:square;stroke-width:0.8;"/>
     </g>
     <g id="line2d_36">
      <g>
       <use style="stroke:#000000;stroke-width:0.8;" x="312.580934" xlink:href="#mc574cf8a1f" y="323.44"/>
      </g>
     </g>
     <g id="text_21">
      <!-- 0.15 -->
      <g transform="translate(301.448121 338.038438)scale(0.1 -0.1)">
       <use xlink:href="#DejaVuSans-48"/>
       <use x="63.623047" xlink:href="#DejaVuSans-46"/>
       <use x="95.410156" xlink:href="#DejaVuSans-49"/>
       <use x="159.033203" xlink:href="#DejaVuSans-53"/>
      </g>
     </g>
    </g>
    <g id="xtick_12">
     <g id="line2d_37">
      <path clip-path="url(#p5e45890612)" d="M 392.880252 323.44 
L 392.880252 204.18 
" style="fill:none;stroke:#b0b0b0;stroke-linecap:square;stroke-width:0.8;"/>
     </g>
     <g id="line2d_38">
      <g>
       <use style="stroke:#000000;stroke-width:0.8;" x="392.880252" xlink:href="#mc574cf8a1f" y="323.44"/>
      </g>
     </g>
     <g id="text_22">
      <!-- 0.20 -->
      <g transform="translate(381.74744 338.038438)scale(0.1 -0.1)">
       <use xlink:href="#DejaVuSans-48"/>
       <use x="63.623047" xlink:href="#DejaVuSans-46"/>
       <use x="95.410156" xlink:href="#DejaVuSans-50"/>
       <use x="159.033203" xlink:href="#DejaVuSans-48"/>
      </g>
     </g>
    </g>
    <g id="xtick_13">
     <g id="line2d_39">
      <path clip-path="url(#p5e45890612)" d="M 473.179571 323.44 
L 473.179571 204.18 
" style="fill:none;stroke:#b0b0b0;stroke-linecap:square;stroke-width:0.8;"/>
     </g>
     <g id="line2d_40">
      <g>
       <use style="stroke:#000000;stroke-width:0.8;" x="473.179571" xlink:href="#mc574cf8a1f" y="323.44"/>
      </g>
     </g>
     <g id="text_23">
      <!-- 0.25 -->
      <g transform="translate(462.046758 338.038438)scale(0.1 -0.1)">
       <use xlink:href="#DejaVuSans-48"/>
       <use x="63.623047" xlink:href="#DejaVuSans-46"/>
       <use x="95.410156" xlink:href="#DejaVuSans-50"/>
       <use x="159.033203" xlink:href="#DejaVuSans-53"/>
      </g>
     </g>
    </g>
    <g id="xtick_14">
     <g id="line2d_41">
      <path clip-path="url(#p5e45890612)" d="M 553.478889 323.44 
L 553.478889 204.18 
" style="fill:none;stroke:#b0b0b0;stroke-linecap:square;stroke-width:0.8;"/>
     </g>
     <g id="line2d_42">
      <g>
       <use style="stroke:#000000;stroke-width:0.8;" x="553.478889" xlink:href="#mc574cf8a1f" y="323.44"/>
      </g>
     </g>
     <g id="text_24">
      <!-- 0.30 -->
      <g transform="translate(542.346077 338.038438)scale(0.1 -0.1)">
       <use xlink:href="#DejaVuSans-48"/>
       <use x="63.623047" xlink:href="#DejaVuSans-46"/>
       <use x="95.410156" xlink:href="#DejaVuSans-51"/>
       <use x="159.033203" xlink:href="#DejaVuSans-48"/>
      </g>
     </g>
    </g>
    <g id="text_25">
     <!-- Time [ms] -->
     <g transform="translate(278.54879 351.716563)scale(0.1 -0.1)">
      <use xlink:href="#DejaVuSans-84"/>
      <use x="57.958984" xlink:href="#DejaVuSans-105"/>
      <use x="85.742188" xlink:href="#DejaVuSans-109"/>
      <use x="183.154297" xlink:href="#DejaVuSans-101"/>
      <use x="244.677734" xlink:href="#DejaVuSans-32"/>
      <use x="276.464844" xlink:href="#DejaVuSans-91"/>
      <use x="315.478516" xlink:href="#DejaVuSans-109"/>
      <use x="412.890625" xlink:href="#DejaVuSans-115"/>
      <use x="464.990234" xlink:href="#DejaVuSans-93"/>
     </g>
    </g>
   </g>
   <g id="matplotlib.axis_4">
    <g id="ytick_5">
     <g id="line2d_43">
      <path clip-path="url(#p5e45890612)" d="M 48.476475 318.019091 
L 559.019542 318.019091 
" style="fill:none;stroke:#b0b0b0;stroke-linecap:square;stroke-width:0.8;"/>
     </g>
     <g id="line2d_44">
      <g>
       <use style="stroke:#000000;stroke-width:0.8;" x="48.476475" xlink:href="#m0f92351ab9" y="318.019091"/>
      </g>
     </g>
     <g id="text_26">
      <!-- $\mathdefault{−5.0}$ -->
      <g transform="translate(17.176475 321.81831)scale(0.1 -0.1)">
       <use transform="translate(0 0.78125)" xlink:href="#DejaVuSans-8722"/>
       <use transform="translate(83.789062 0.78125)" xlink:href="#DejaVuSans-53"/>
       <use transform="translate(147.412109 0.78125)" xlink:href="#DejaVuSans-46"/>
       <use transform="translate(179.199219 0.78125)" xlink:href="#DejaVuSans-48"/>
      </g>
     </g>
    </g>
    <g id="ytick_6">
     <g id="line2d_45">
      <path clip-path="url(#p5e45890612)" d="M 48.476475 290.914545 
L 559.019542 290.914545 
" style="fill:none;stroke:#b0b0b0;stroke-linecap:square;stroke-width:0.8;"/>
     </g>
     <g id="line2d_46">
      <g>
       <use style="stroke:#000000;stroke-width:0.8;" x="48.476475" xlink:href="#m0f92351ab9" y="290.914545"/>
      </g>
     </g>
     <g id="text_27">
      <!-- $\mathdefault{−2.5}$ -->
      <g transform="translate(17.176475 294.713764)scale(0.1 -0.1)">
       <use transform="translate(0 0.78125)" xlink:href="#DejaVuSans-8722"/>
       <use transform="translate(83.789062 0.78125)" xlink:href="#DejaVuSans-50"/>
       <use transform="translate(147.412109 0.78125)" xlink:href="#DejaVuSans-46"/>
       <use transform="translate(179.199219 0.78125)" xlink:href="#DejaVuSans-53"/>
      </g>
     </g>
    </g>
    <g id="ytick_7">
     <g id="line2d_47">
      <path clip-path="url(#p5e45890612)" d="M 48.476475 263.81 
L 559.019542 263.81 
" style="fill:none;stroke:#b0b0b0;stroke-linecap:square;stroke-width:0.8;"/>
     </g>
     <g id="line2d_48">
      <g>
       <use style="stroke:#000000;stroke-width:0.8;" x="48.476475" xlink:href="#m0f92351ab9" y="263.81"/>
      </g>
     </g>
     <g id="text_28">
      <!-- $\mathdefault{0.0}$ -->
      <g transform="translate(25.476475 267.609219)scale(0.1 -0.1)">
       <use transform="translate(0 0.78125)" xlink:href="#DejaVuSans-48"/>
       <use transform="translate(63.623047 0.78125)" xlink:href="#DejaVuSans-46"/>
       <use transform="translate(95.410156 0.78125)" xlink:href="#DejaVuSans-48"/>
      </g>
     </g>
    </g>
    <g id="ytick_8">
     <g id="line2d_49">
      <path clip-path="url(#p5e45890612)" d="M 48.476475 236.705455 
L 559.019542 236.705455 
" style="fill:none;stroke:#b0b0b0;stroke-linecap:square;stroke-width:0.8;"/>
     </g>
     <g id="line2d_50">
      <g>
       <use style="stroke:#000000;stroke-width:0.8;" x="48.476475" xlink:href="#m0f92351ab9" y="236.705455"/>
      </g>
     </g>
     <g id="text_29">
      <!-- $\mathdefault{2.5}$ -->
      <g transform="translate(25.476475 240.504673)scale(0.1 -0.1)">
       <use transform="translate(0 0.78125)" xlink:href="#DejaVuSans-50"/>
       <use transform="translate(63.623047 0.78125)" xlink:href="#DejaVuSans-46"/>
       <use transform="translate(95.410156 0.78125)" xlink:href="#DejaVuSans-53"/>
      </g>
     </g>
    </g>
    <g id="ytick_9">
     <g id="line2d_51">
      <path clip-path="url(#p5e45890612)" d="M 48.476475 209.600909 
L 559.019542 209.600909 
" style="fill:none;stroke:#b0b0b0;stroke-linecap:square;stroke-width:0.8;"/>
     </g>
     <g id="line2d_52">
      <g>
       <use style="stroke:#000000;stroke-width:0.8;" x="48.476475" xlink:href="#m0f92351ab9" y="209.600909"/>
      </g>
     </g>
     <g id="text_30">
      <!-- $\mathdefault{5.0}$ -->
      <g transform="translate(25.476475 213.400128)scale(0.1 -0.1)">
       <use transform="translate(0 0.78125)" xlink:href="#DejaVuSans-53"/>
       <use transform="translate(63.623047 0.78125)" xlink:href="#DejaVuSans-46"/>
       <use transform="translate(95.410156 0.78125)" xlink:href="#DejaVuSans-48"/>
      </g>
     </g>
    </g>
    <g id="text_31">
     <!-- pwm input -->
     <defs>
      <path d="M 18.109375 8.203125 
L 18.109375 -20.796875 
L 9.078125 -20.796875 
L 9.078125 54.6875 
L 18.109375 54.6875 
L 18.109375 46.390625 
Q 20.953125 51.265625 25.265625 53.625 
Q 29.59375 56 35.59375 56 
Q 45.5625 56 51.78125 48.09375 
Q 58.015625 40.1875 58.015625 27.296875 
Q 58.015625 14.40625 51.78125 6.484375 
Q 45.5625 -1.421875 35.59375 -1.421875 
Q 29.59375 -1.421875 25.265625 0.953125 
Q 20.953125 3.328125 18.109375 8.203125 
z
M 48.6875 27.296875 
Q 48.6875 37.203125 44.609375 42.84375 
Q 40.53125 48.484375 33.40625 48.484375 
Q 26.265625 48.484375 22.1875 42.84375 
Q 18.109375 37.203125 18.109375 27.296875 
Q 18.109375 17.390625 22.1875 11.75 
Q 26.265625 6.109375 33.40625 6.109375 
Q 40.53125 6.109375 44.609375 11.75 
Q 48.6875 17.390625 48.6875 27.296875 
z
" id="DejaVuSans-112"/>
      <path d="M 4.203125 54.6875 
L 13.1875 54.6875 
L 24.421875 12.015625 
L 35.59375 54.6875 
L 46.1875 54.6875 
L 57.421875 12.015625 
L 68.609375 54.6875 
L 77.59375 54.6875 
L 63.28125 0 
L 52.6875 0 
L 40.921875 44.828125 
L 29.109375 0 
L 18.5 0 
z
" id="DejaVuSans-119"/>
      <path d="M 8.5 21.578125 
L 8.5 54.6875 
L 17.484375 54.6875 
L 17.484375 21.921875 
Q 17.484375 14.15625 20.5 10.265625 
Q 23.53125 6.390625 29.59375 6.390625 
Q 36.859375 6.390625 41.078125 11.03125 
Q 45.3125 15.671875 45.3125 23.6875 
L 45.3125 54.6875 
L 54.296875 54.6875 
L 54.296875 0 
L 45.3125 0 
L 45.3125 8.40625 
Q 42.046875 3.421875 37.71875 1 
Q 33.40625 -1.421875 27.6875 -1.421875 
Q 18.265625 -1.421875 13.375 4.4375 
Q 8.5 10.296875 8.5 21.578125 
z
M 31.109375 56 
z
" id="DejaVuSans-117"/>
     </defs>
     <g transform="translate(11.096787 290.393594)rotate(-90)scale(0.1 -0.1)">
      <use xlink:href="#DejaVuSans-112"/>
      <use x="63.476562" xlink:href="#DejaVuSans-119"/>
      <use x="145.263672" xlink:href="#DejaVuSans-109"/>
      <use x="242.675781" xlink:href="#DejaVuSans-32"/>
      <use x="274.462891" xlink:href="#DejaVuSans-105"/>
      <use x="302.246094" xlink:href="#DejaVuSans-110"/>
      <use x="365.625" xlink:href="#DejaVuSans-112"/>
      <use x="429.101562" xlink:href="#DejaVuSans-117"/>
      <use x="492.480469" xlink:href="#DejaVuSans-116"/>
     </g>
    </g>
    <g id="text_32">
     <!-- $\times\mathdefault{10^{−2}}\mathdefault{}$ -->
     <g transform="translate(48.476475 201.18)scale(0.1 -0.1)">
      <use transform="translate(0 0.765625)" xlink:href="#DejaVuSans-215"/>
      <use transform="translate(83.789062 0.765625)" xlink:href="#DejaVuSans-49"/>
      <use transform="translate(147.412109 0.765625)" xlink:href="#DejaVuSans-48"/>
      <use transform="translate(211.992188 39.046875)scale(0.7)" xlink:href="#DejaVuSans-8722"/>
      <use transform="translate(270.644531 39.046875)scale(0.7)" xlink:href="#DejaVuSans-50"/>
     </g>
    </g>
   </g>
   <g id="line2d_53">
    <path clip-path="url(#p5e45890612)" d="M 71.682978 263.81 
L 535.813039 263.81 
L 535.813039 263.81 
" style="fill:none;stroke:#1f77b4;stroke-linecap:square;stroke-width:2;"/>
   </g>
   <g id="line2d_54">
    <path clip-path="url(#p5e45890612)" d="M 71.682978 263.81 
L 535.813039 263.81 
L 535.813039 263.81 
" style="fill:none;stroke:#ff7f0e;stroke-linecap:square;stroke-width:2;"/>
   </g>
   <g id="line2d_55">
    <path clip-path="url(#p5e45890612)" d="M 71.682978 263.81 
L 535.813039 263.81 
L 535.813039 263.81 
" style="fill:none;stroke:#2ca02c;stroke-linecap:square;stroke-width:2;"/>
   </g>
   <g id="line2d_56">
    <path clip-path="url(#p5e45890612)" d="M 71.682978 263.81 
L 535.813039 263.81 
L 535.813039 263.81 
" style="fill:none;stroke:#d62728;stroke-linecap:square;stroke-width:2;"/>
   </g>
   <g id="line2d_57">
    <path clip-path="url(#p5e45890612)" d="M 71.682978 263.81 
L 535.813039 263.81 
L 535.813039 263.81 
" style="fill:none;stroke:#9467bd;stroke-linecap:square;stroke-width:2;"/>
   </g>
   <g id="patch_9">
    <path d="M 48.476475 323.44 
L 48.476475 204.18 
" style="fill:none;stroke:#000000;stroke-linecap:square;stroke-linejoin:miter;stroke-width:0.8;"/>
   </g>
   <g id="patch_10">
    <path d="M 559.019542 323.44 
L 559.019542 204.18 
" style="fill:none;stroke:#000000;stroke-linecap:square;stroke-linejoin:miter;stroke-width:0.8;"/>
   </g>
   <g id="patch_11">
    <path d="M 48.476475 323.44 
L 559.019542 323.44 
" style="fill:none;stroke:#000000;stroke-linecap:square;stroke-linejoin:miter;stroke-width:0.8;"/>
   </g>
   <g id="patch_12">
    <path d="M 48.476475 204.18 
L 559.019542 204.18 
" style="fill:none;stroke:#000000;stroke-linecap:square;stroke-linejoin:miter;stroke-width:0.8;"/>
   </g>
   <g id="text_33">
    <!-- Translational PWM Input -->
    <defs>
     <path d="M 19.671875 64.796875 
L 19.671875 37.40625 
L 32.078125 37.40625 
Q 38.96875 37.40625 42.71875 40.96875 
Q 46.484375 44.53125 46.484375 51.125 
Q 46.484375 57.671875 42.71875 61.234375 
Q 38.96875 64.796875 32.078125 64.796875 
z
M 9.8125 72.90625 
L 32.078125 72.90625 
Q 44.34375 72.90625 50.609375 67.359375 
Q 56.890625 61.8125 56.890625 51.125 
Q 56.890625 40.328125 50.609375 34.8125 
Q 44.34375 29.296875 32.078125 29.296875 
L 19.671875 29.296875 
L 19.671875 0 
L 9.8125 0 
z
" id="DejaVuSans-80"/>
     <path d="M 3.328125 72.90625 
L 13.28125 72.90625 
L 28.609375 11.28125 
L 43.890625 72.90625 
L 54.984375 72.90625 
L 70.3125 11.28125 
L 85.59375 72.90625 
L 95.609375 72.90625 
L 77.296875 0 
L 64.890625 0 
L 49.515625 63.28125 
L 33.984375 0 
L 21.578125 0 
z
" id="DejaVuSans-87"/>
     <path d="M 9.8125 72.90625 
L 24.515625 72.90625 
L 43.109375 23.296875 
L 61.8125 72.90625 
L 76.515625 72.90625 
L 76.515625 0 
L 66.890625 0 
L 66.890625 64.015625 
L 48.09375 14.015625 
L 38.1875 14.015625 
L 19.390625 64.015625 
L 19.390625 0 
L 9.8125 0 
z
" id="DejaVuSans-77"/>
     <path d="M 9.8125 72.90625 
L 19.671875 72.90625 
L 19.671875 0 
L 9.8125 0 
z
" id="DejaVuSans-73"/>
    </defs>
    <g transform="translate(231.639258 198.18)scale(0.12 -0.12)">
     <use xlink:href="#DejaVuSans-84"/>
     <use x="46.333984" xlink:href="#DejaVuSans-114"/>
     <use x="87.447266" xlink:href="#DejaVuSans-97"/>
     <use x="148.726562" xlink:href="#DejaVuSans-110"/>
     <use x="212.105469" xlink:href="#DejaVuSans-115"/>
     <use x="264.205078" xlink:href="#DejaVuSans-108"/>
     <use x="291.988281" xlink:href="#DejaVuSans-97"/>
     <use x="353.267578" xlink:href="#DejaVuSans-116"/>
     <use x="392.476562" xlink:href="#DejaVuSans-105"/>
     <use x="420.259766" xlink:href="#DejaVuSans-111"/>
     <use x="481.441406" xlink:href="#DejaVuSans-110"/>
     <use x="544.820312" xlink:href="#DejaVuSans-97"/>
     <use x="606.099609" xlink:href="#DejaVuSans-108"/>
     <use x="633.882812" xlink:href="#DejaVuSans-32"/>
     <use x="665.669922" xlink:href="#DejaVuSans-80"/>
     <use x="725.972656" xlink:href="#DejaVuSans-87"/>
     <use x="824.849609" xlink:href="#DejaVuSans-77"/>
     <use x="911.128906" xlink:href="#DejaVuSans-32"/>
     <use x="942.916016" xlink:href="#DejaVuSans-73"/>
     <use x="972.408203" xlink:href="#DejaVuSans-110"/>
     <use x="1035.787109" xlink:href="#DejaVuSans-112"/>
     <use x="1099.263672" xlink:href="#DejaVuSans-117"/>
     <use x="1162.642578" xlink:href="#DejaVuSans-116"/>
    </g>
   </g>
   <g id="legend_2">
    <g id="patch_13">
     <path d="M 230.700792 226.858125 
L 552.019542 226.858125 
Q 554.019542 226.858125 554.019542 224.858125 
L 554.019542 211.18 
Q 554.019542 209.18 552.019542 209.18 
L 230.700792 209.18 
Q 228.700792 209.18 228.700792 211.18 
L 228.700792 224.858125 
Q 228.700792 226.858125 230.700792 226.858125 
z
" style="fill:#ffffff;opacity:0.8;stroke:#cccccc;stroke-linejoin:miter;"/>
    </g>
    <g id="line2d_58">
     <path d="M 232.700792 217.278438 
L 252.700792 217.278438 
" style="fill:none;stroke:#1f77b4;stroke-linecap:square;stroke-width:2;"/>
    </g>
    <g id="line2d_59"/>
    <g id="text_34">
     <!-- FF -->
     <defs>
      <path d="M 9.8125 72.90625 
L 51.703125 72.90625 
L 51.703125 64.59375 
L 19.671875 64.59375 
L 19.671875 43.109375 
L 48.578125 43.109375 
L 48.578125 34.8125 
L 19.671875 34.8125 
L 19.671875 0 
L 9.8125 0 
z
" id="DejaVuSans-70"/>
     </defs>
     <g transform="translate(260.700792 220.778438)scale(0.1 -0.1)">
      <use xlink:href="#DejaVuSans-70"/>
      <use x="57.519531" xlink:href="#DejaVuSans-70"/>
     </g>
    </g>
    <g id="line2d_60">
     <path d="M 292.203917 217.278438 
L 312.203917 217.278438 
" style="fill:none;stroke:#ff7f0e;stroke-linecap:square;stroke-width:2;"/>
    </g>
    <g id="line2d_61"/>
    <g id="text_35">
     <!-- FB -->
     <defs>
      <path d="M 19.671875 34.8125 
L 19.671875 8.109375 
L 35.5 8.109375 
Q 43.453125 8.109375 47.28125 11.40625 
Q 51.125 14.703125 51.125 21.484375 
Q 51.125 28.328125 47.28125 31.5625 
Q 43.453125 34.8125 35.5 34.8125 
z
M 19.671875 64.796875 
L 19.671875 42.828125 
L 34.28125 42.828125 
Q 41.5 42.828125 45.03125 45.53125 
Q 48.578125 48.25 48.578125 53.8125 
Q 48.578125 59.328125 45.03125 62.0625 
Q 41.5 64.796875 34.28125 64.796875 
z
M 9.8125 72.90625 
L 35.015625 72.90625 
Q 46.296875 72.90625 52.390625 68.21875 
Q 58.5 63.53125 58.5 54.890625 
Q 58.5 48.1875 55.375 44.234375 
Q 52.25 40.28125 46.1875 39.3125 
Q 53.46875 37.75 57.5 32.78125 
Q 61.53125 27.828125 61.53125 20.40625 
Q 61.53125 10.640625 54.890625 5.3125 
Q 48.25 0 35.984375 0 
L 9.8125 0 
z
" id="DejaVuSans-66"/>
     </defs>
     <g transform="translate(320.203917 220.778438)scale(0.1 -0.1)">
      <use xlink:href="#DejaVuSans-70"/>
      <use x="57.519531" xlink:href="#DejaVuSans-66"/>
     </g>
    </g>
    <g id="line2d_62">
     <path d="M 352.816417 217.278438 
L 372.816417 217.278438 
" style="fill:none;stroke:#2ca02c;stroke-linecap:square;stroke-width:2;"/>
    </g>
    <g id="line2d_63"/>
    <g id="text_36">
     <!-- FB p -->
     <g transform="translate(380.816417 220.778438)scale(0.1 -0.1)">
      <use xlink:href="#DejaVuSans-70"/>
      <use x="57.519531" xlink:href="#DejaVuSans-66"/>
      <use x="126.123047" xlink:href="#DejaVuSans-32"/>
      <use x="157.910156" xlink:href="#DejaVuSans-112"/>
     </g>
    </g>
    <g id="line2d_64">
     <path d="M 422.95548 217.278438 
L 442.95548 217.278438 
" style="fill:none;stroke:#d62728;stroke-linecap:square;stroke-width:2;"/>
    </g>
    <g id="line2d_65"/>
    <g id="text_37">
     <!-- FB i -->
     <g transform="translate(450.95548 220.778438)scale(0.1 -0.1)">
      <use xlink:href="#DejaVuSans-70"/>
      <use x="57.519531" xlink:href="#DejaVuSans-66"/>
      <use x="126.123047" xlink:href="#DejaVuSans-32"/>
      <use x="157.910156" xlink:href="#DejaVuSans-105"/>
     </g>
    </g>
    <g id="line2d_66">
     <path d="M 489.52423 217.278438 
L 509.52423 217.278438 
" style="fill:none;stroke:#9467bd;stroke-linecap:square;stroke-width:2;"/>
    </g>
    <g id="line2d_67"/>
    <g id="text_38">
     <!-- FF+FB -->
     <defs>
      <path d="M 46 62.703125 
L 46 35.5 
L 73.1875 35.5 
L 73.1875 27.203125 
L 46 27.203125 
L 46 0 
L 37.796875 0 
L 37.796875 27.203125 
L 10.59375 27.203125 
L 10.59375 35.5 
L 37.796875 35.5 
L 37.796875 62.703125 
z
" id="DejaVuSans-43"/>
     </defs>
     <g transform="translate(517.52423 220.778438)scale(0.1 -0.1)">
      <use xlink:href="#DejaVuSans-70"/>
      <use x="57.519531" xlink:href="#DejaVuSans-70"/>
      <use x="115.039062" xlink:href="#DejaVuSans-43"/>
      <use x="198.828125" xlink:href="#DejaVuSans-70"/>
      <use x="256.347656" xlink:href="#DejaVuSans-66"/>
     </g>
    </g>
   </g>
  </g>
  <g id="axes_3">
   <g id="patch_14">
    <path d="M 48.476475 500.74 
L 559.019542 500.74 
L 559.019542 381.48 
L 48.476475 381.48 
z
" style="fill:#ffffff;"/>
   </g>
   <g id="matplotlib.axis_5">
    <g id="xtick_15">
     <g id="line2d_68">
      <path clip-path="url(#p5b43a2dae8)" d="M 71.682978 500.74 
L 71.682978 381.48 
" style="fill:none;stroke:#b0b0b0;stroke-linecap:square;stroke-width:0.8;"/>
     </g>
     <g id="line2d_69">
      <g>
       <use style="stroke:#000000;stroke-width:0.8;" x="71.682978" xlink:href="#mc574cf8a1f" y="500.74"/>
      </g>
     </g>
     <g id="text_39">
      <!-- 0.00 -->
      <g transform="translate(60.550165 515.338438)scale(0.1 -0.1)">
       <use xlink:href="#DejaVuSans-48"/>
       <use x="63.623047" xlink:href="#DejaVuSans-46"/>
       <use x="95.410156" xlink:href="#DejaVuSans-48"/>
       <use x="159.033203" xlink:href="#DejaVuSans-48"/>
      </g>
     </g>
    </g>
    <g id="xtick_16">
     <g id="line2d_70">
      <path clip-path="url(#p5b43a2dae8)" d="M 151.982296 500.74 
L 151.982296 381.48 
" style="fill:none;stroke:#b0b0b0;stroke-linecap:square;stroke-width:0.8;"/>
     </g>
     <g id="line2d_71">
      <g>
       <use style="stroke:#000000;stroke-width:0.8;" x="151.982296" xlink:href="#mc574cf8a1f" y="500.74"/>
      </g>
     </g>
     <g id="text_40">
      <!-- 0.05 -->
      <g transform="translate(140.849484 515.338438)scale(0.1 -0.1)">
       <use xlink:href="#DejaVuSans-48"/>
       <use x="63.623047" xlink:href="#DejaVuSans-46"/>
       <use x="95.410156" xlink:href="#DejaVuSans-48"/>
       <use x="159.033203" xlink:href="#DejaVuSans-53"/>
      </g>
     </g>
    </g>
    <g id="xtick_17">
     <g id="line2d_72">
      <path clip-path="url(#p5b43a2dae8)" d="M 232.281615 500.74 
L 232.281615 381.48 
" style="fill:none;stroke:#b0b0b0;stroke-linecap:square;stroke-width:0.8;"/>
     </g>
     <g id="line2d_73">
      <g>
       <use style="stroke:#000000;stroke-width:0.8;" x="232.281615" xlink:href="#mc574cf8a1f" y="500.74"/>
      </g>
     </g>
     <g id="text_41">
      <!-- 0.10 -->
      <g transform="translate(221.148802 515.338438)scale(0.1 -0.1)">
       <use xlink:href="#DejaVuSans-48"/>
       <use x="63.623047" xlink:href="#DejaVuSans-46"/>
       <use x="95.410156" xlink:href="#DejaVuSans-49"/>
       <use x="159.033203" xlink:href="#DejaVuSans-48"/>
      </g>
     </g>
    </g>
    <g id="xtick_18">
     <g id="line2d_74">
      <path clip-path="url(#p5b43a2dae8)" d="M 312.580934 500.74 
L 312.580934 381.48 
" style="fill:none;stroke:#b0b0b0;stroke-linecap:square;stroke-width:0.8;"/>
     </g>
     <g id="line2d_75">
      <g>
       <use style="stroke:#000000;stroke-width:0.8;" x="312.580934" xlink:href="#mc574cf8a1f" y="500.74"/>
      </g>
     </g>
     <g id="text_42">
      <!-- 0.15 -->
      <g transform="translate(301.448121 515.338438)scale(0.1 -0.1)">
       <use xlink:href="#DejaVuSans-48"/>
       <use x="63.623047" xlink:href="#DejaVuSans-46"/>
       <use x="95.410156" xlink:href="#DejaVuSans-49"/>
       <use x="159.033203" xlink:href="#DejaVuSans-53"/>
      </g>
     </g>
    </g>
    <g id="xtick_19">
     <g id="line2d_76">
      <path clip-path="url(#p5b43a2dae8)" d="M 392.880252 500.74 
L 392.880252 381.48 
" style="fill:none;stroke:#b0b0b0;stroke-linecap:square;stroke-width:0.8;"/>
     </g>
     <g id="line2d_77">
      <g>
       <use style="stroke:#000000;stroke-width:0.8;" x="392.880252" xlink:href="#mc574cf8a1f" y="500.74"/>
      </g>
     </g>
     <g id="text_43">
      <!-- 0.20 -->
      <g transform="translate(381.74744 515.338438)scale(0.1 -0.1)">
       <use xlink:href="#DejaVuSans-48"/>
       <use x="63.623047" xlink:href="#DejaVuSans-46"/>
       <use x="95.410156" xlink:href="#DejaVuSans-50"/>
       <use x="159.033203" xlink:href="#DejaVuSans-48"/>
      </g>
     </g>
    </g>
    <g id="xtick_20">
     <g id="line2d_78">
      <path clip-path="url(#p5b43a2dae8)" d="M 473.179571 500.74 
L 473.179571 381.48 
" style="fill:none;stroke:#b0b0b0;stroke-linecap:square;stroke-width:0.8;"/>
     </g>
     <g id="line2d_79">
      <g>
       <use style="stroke:#000000;stroke-width:0.8;" x="473.179571" xlink:href="#mc574cf8a1f" y="500.74"/>
      </g>
     </g>
     <g id="text_44">
      <!-- 0.25 -->
      <g transform="translate(462.046758 515.338438)scale(0.1 -0.1)">
       <use xlink:href="#DejaVuSans-48"/>
       <use x="63.623047" xlink:href="#DejaVuSans-46"/>
       <use x="95.410156" xlink:href="#DejaVuSans-50"/>
       <use x="159.033203" xlink:href="#DejaVuSans-53"/>
      </g>
     </g>
    </g>
    <g id="xtick_21">
     <g id="line2d_80">
      <path clip-path="url(#p5b43a2dae8)" d="M 553.478889 500.74 
L 553.478889 381.48 
" style="fill:none;stroke:#b0b0b0;stroke-linecap:square;stroke-width:0.8;"/>
     </g>
     <g id="line2d_81">
      <g>
       <use style="stroke:#000000;stroke-width:0.8;" x="553.478889" xlink:href="#mc574cf8a1f" y="500.74"/>
      </g>
     </g>
     <g id="text_45">
      <!-- 0.30 -->
      <g transform="translate(542.346077 515.338438)scale(0.1 -0.1)">
       <use xlink:href="#DejaVuSans-48"/>
       <use x="63.623047" xlink:href="#DejaVuSans-46"/>
       <use x="95.410156" xlink:href="#DejaVuSans-51"/>
       <use x="159.033203" xlink:href="#DejaVuSans-48"/>
      </g>
     </g>
    </g>
    <g id="text_46">
     <!-- Time [ms] -->
     <g transform="translate(278.54879 529.016562)scale(0.1 -0.1)">
      <use xlink:href="#DejaVuSans-84"/>
      <use x="57.958984" xlink:href="#DejaVuSans-105"/>
      <use x="85.742188" xlink:href="#DejaVuSans-109"/>
      <use x="183.154297" xlink:href="#DejaVuSans-101"/>
      <use x="244.677734" xlink:href="#DejaVuSans-32"/>
      <use x="276.464844" xlink:href="#DejaVuSans-91"/>
      <use x="315.478516" xlink:href="#DejaVuSans-109"/>
      <use x="412.890625" xlink:href="#DejaVuSans-115"/>
      <use x="464.990234" xlink:href="#DejaVuSans-93"/>
     </g>
    </g>
   </g>
   <g id="matplotlib.axis_6">
    <g id="ytick_10">
     <g id="line2d_82">
      <path clip-path="url(#p5b43a2dae8)" d="M 48.476475 494.980215 
L 559.019542 494.980215 
" style="fill:none;stroke:#b0b0b0;stroke-linecap:square;stroke-width:0.8;"/>
     </g>
     <g id="line2d_83">
      <g>
       <use style="stroke:#000000;stroke-width:0.8;" x="48.476475" xlink:href="#m0f92351ab9" y="494.980215"/>
      </g>
     </g>
     <g id="text_47">
      <!-- $\mathdefault{0.0}$ -->
      <g transform="translate(25.476475 498.779434)scale(0.1 -0.1)">
       <use transform="translate(0 0.78125)" xlink:href="#DejaVuSans-48"/>
       <use transform="translate(63.623047 0.78125)" xlink:href="#DejaVuSans-46"/>
       <use transform="translate(95.410156 0.78125)" xlink:href="#DejaVuSans-48"/>
      </g>
     </g>
    </g>
    <g id="ytick_11">
     <g id="line2d_84">
      <path clip-path="url(#p5b43a2dae8)" d="M 48.476475 466.311356 
L 559.019542 466.311356 
" style="fill:none;stroke:#b0b0b0;stroke-linecap:square;stroke-width:0.8;"/>
     </g>
     <g id="line2d_85">
      <g>
       <use style="stroke:#000000;stroke-width:0.8;" x="48.476475" xlink:href="#m0f92351ab9" y="466.311356"/>
      </g>
     </g>
     <g id="text_48">
      <!-- $\mathdefault{0.5}$ -->
      <g transform="translate(25.476475 470.110575)scale(0.1 -0.1)">
       <use transform="translate(0 0.78125)" xlink:href="#DejaVuSans-48"/>
       <use transform="translate(63.623047 0.78125)" xlink:href="#DejaVuSans-46"/>
       <use transform="translate(95.410156 0.78125)" xlink:href="#DejaVuSans-53"/>
      </g>
     </g>
    </g>
    <g id="ytick_12">
     <g id="line2d_86">
      <path clip-path="url(#p5b43a2dae8)" d="M 48.476475 437.642497 
L 559.019542 437.642497 
" style="fill:none;stroke:#b0b0b0;stroke-linecap:square;stroke-width:0.8;"/>
     </g>
     <g id="line2d_87">
      <g>
       <use style="stroke:#000000;stroke-width:0.8;" x="48.476475" xlink:href="#m0f92351ab9" y="437.642497"/>
      </g>
     </g>
     <g id="text_49">
      <!-- $\mathdefault{1.0}$ -->
      <g transform="translate(25.476475 441.441715)scale(0.1 -0.1)">
       <use transform="translate(0 0.78125)" xlink:href="#DejaVuSans-49"/>
       <use transform="translate(63.623047 0.78125)" xlink:href="#DejaVuSans-46"/>
       <use transform="translate(95.410156 0.78125)" xlink:href="#DejaVuSans-48"/>
      </g>
     </g>
    </g>
    <g id="ytick_13">
     <g id="line2d_88">
      <path clip-path="url(#p5b43a2dae8)" d="M 48.476475 408.973637 
L 559.019542 408.973637 
" style="fill:none;stroke:#b0b0b0;stroke-linecap:square;stroke-width:0.8;"/>
     </g>
     <g id="line2d_89">
      <g>
       <use style="stroke:#000000;stroke-width:0.8;" x="48.476475" xlink:href="#m0f92351ab9" y="408.973637"/>
      </g>
     </g>
     <g id="text_50">
      <!-- $\mathdefault{1.5}$ -->
      <g transform="translate(25.476475 412.772856)scale(0.1 -0.1)">
       <use transform="translate(0 0.09375)" xlink:href="#DejaVuSans-49"/>
       <use transform="translate(63.623047 0.09375)" xlink:href="#DejaVuSans-46"/>
       <use transform="translate(95.410156 0.09375)" xlink:href="#DejaVuSans-53"/>
      </g>
     </g>
    </g>
    <g id="text_51">
     <!-- vel. [rad/s] -->
     <g transform="translate(19.396787 468.1975)rotate(-90)scale(0.1 -0.1)">
      <use xlink:href="#DejaVuSans-118"/>
      <use x="59.179688" xlink:href="#DejaVuSans-101"/>
      <use x="120.703125" xlink:href="#DejaVuSans-108"/>
      <use x="148.486328" xlink:href="#DejaVuSans-46"/>
      <use x="180.273438" xlink:href="#DejaVuSans-32"/>
      <use x="212.060547" xlink:href="#DejaVuSans-91"/>
      <use x="251.074219" xlink:href="#DejaVuSans-114"/>
      <use x="292.1875" xlink:href="#DejaVuSans-97"/>
      <use x="353.466797" xlink:href="#DejaVuSans-100"/>
      <use x="416.943359" xlink:href="#DejaVuSans-47"/>
      <use x="450.634766" xlink:href="#DejaVuSans-115"/>
      <use x="502.734375" xlink:href="#DejaVuSans-93"/>
     </g>
    </g>
    <g id="text_52">
     <!-- $\times\mathdefault{10^{1}}\mathdefault{}$ -->
     <g transform="translate(48.476475 378.48)scale(0.1 -0.1)">
      <use transform="translate(0 0.684375)" xlink:href="#DejaVuSans-215"/>
      <use transform="translate(83.789062 0.684375)" xlink:href="#DejaVuSans-49"/>
      <use transform="translate(147.412109 0.684375)" xlink:href="#DejaVuSans-48"/>
      <use transform="translate(211.992188 38.965625)scale(0.7)" xlink:href="#DejaVuSans-49"/>
     </g>
    </g>
   </g>
   <g id="line2d_90">
    <path clip-path="url(#p5b43a2dae8)" d="M 71.682978 494.980215 
L 73.288964 494.893752 
L 74.89495 494.634362 
L 76.500937 494.202045 
L 78.106923 493.596805 
L 79.71291 492.818635 
L 81.318896 491.86754 
L 82.924882 490.743514 
L 84.530869 489.446569 
L 86.136855 487.9767 
L 89.348828 484.604611 
L 98.984746 474.229064 
L 100.590732 473.364411 
L 140.740392 430.132976 
L 142.346378 427.539017 
L 172.860119 394.704573 
L 174.466106 393.147854 
L 176.072092 391.764868 
L 177.678078 390.553895 
L 179.284065 389.516656 
L 180.890051 388.652003 
L 182.496037 387.96051 
L 184.102024 387.441604 
L 185.70801 387.095857 
L 187.313996 386.922697 
L 196.949915 386.900909 
L 341.488688 386.961114 
L 343.094675 387.191611 
L 344.700661 387.595269 
L 346.306647 388.171513 
L 347.912634 388.920917 
L 349.51862 389.842907 
L 351.124606 390.938058 
L 352.730593 392.205795 
L 354.336579 393.646692 
L 357.548552 396.987761 
L 442.66583 488.484081 
L 444.271816 489.896515 
L 445.877802 491.136014 
L 447.483789 492.202587 
L 449.089775 493.096241 
L 450.695762 493.816976 
L 452.301748 494.364787 
L 453.907734 494.739673 
L 455.513721 494.941639 
L 460.33168 494.980215 
L 535.813039 494.980215 
L 535.813039 494.980215 
" style="fill:none;stroke:#1f77b4;stroke-linecap:square;stroke-width:2;"/>
   </g>
   <g id="line2d_91">
    <path clip-path="url(#p5b43a2dae8)" d="M 71.682978 494.980215 
L 74.89495 495.041449 
L 76.500937 494.074279 
L 78.106923 494.373278 
L 79.71291 494.928562 
L 87.742841 495.319091 
L 90.954814 494.65092 
L 92.560801 493.799689 
L 94.166787 493.912575 
L 95.772773 493.84545 
L 98.984746 494.065122 
L 102.196719 493.87596 
L 105.408692 493.198635 
L 111.832637 491.39549 
L 115.04461 490.403908 
L 116.650596 490.080501 
L 118.256582 489.53437 
L 121.468555 488.115629 
L 126.286514 485.882325 
L 127.892501 484.909017 
L 131.104473 483.407916 
L 134.316446 481.409524 
L 137.528419 479.890132 
L 139.134405 479.286022 
L 140.740392 478.511045 
L 142.346378 476.717062 
L 143.952364 475.887214 
L 145.558351 475.414292 
L 147.164337 475.426505 
L 148.770324 474.675954 
L 150.37631 473.736246 
L 156.800255 469.001068 
L 158.406242 468.488469 
L 160.012228 467.066723 
L 161.618215 465.849386 
L 164.830187 464.006552 
L 166.436174 463.338395 
L 168.04216 461.97456 
L 169.648146 460.915877 
L 171.254133 459.286625 
L 174.466106 456.501044 
L 176.072092 454.493479 
L 177.678078 453.138875 
L 179.284065 452.479835 
L 182.496037 450.670601 
L 184.102024 450.029852 
L 185.70801 448.788089 
L 187.313996 448.940665 
L 188.919983 448.635571 
L 190.525969 448.763721 
L 193.737942 448.611145 
L 195.343928 448.977246 
L 196.949915 448.882696 
L 198.555901 449.05964 
L 200.161887 448.910161 
L 201.767874 449.437955 
L 204.979847 448.958955 
L 206.585833 449.434916 
L 208.191819 448.9132 
L 209.797806 448.553176 
L 211.403792 449.016924 
L 216.221751 448.434201 
L 217.827738 448.449452 
L 219.433724 448.260295 
L 221.03971 448.556215 
L 222.645697 448.714869 
L 224.251683 448.431162 
L 225.857669 448.623358 
L 227.463656 448.046712 
L 229.069642 448.458569 
L 230.675629 448.38231 
L 232.281615 448.696578 
L 233.887601 448.278586 
L 235.493588 448.598932 
L 237.099574 448.540963 
L 238.70556 448.754546 
L 240.311547 448.778972 
L 241.917533 448.650823 
L 243.52352 449.556931 
L 245.129506 449.862082 
L 246.735492 449.675964 
L 248.341479 450.264822 
L 249.947465 450.078704 
L 251.553451 450.447844 
L 253.159438 451.073341 
L 254.765424 451.55234 
L 256.37141 451.643851 
L 257.977397 451.607213 
L 261.18937 452.092347 
L 264.401342 451.927616 
L 267.613315 452.235749 
L 269.219301 452.257078 
L 270.825288 451.744536 
L 272.431274 452.043553 
L 274.037261 451.543166 
L 275.643247 451.338757 
L 278.85522 451.533992 
L 280.461206 451.930655 
L 282.067192 452.174741 
L 283.673179 451.781118 
L 285.279165 451.973371 
L 286.885152 451.579805 
L 291.703111 451.27775 
L 293.309097 451.308254 
L 294.915083 451.198395 
L 296.52107 450.338042 
L 298.127056 449.950554 
L 299.733043 449.712545 
L 301.339029 449.959671 
L 302.945015 450.701105 
L 304.551002 450.14275 
L 306.156988 449.770514 
L 307.762974 450.594285 
L 309.368961 449.923089 
L 310.974947 450.234261 
L 314.18692 450.078704 
L 315.792906 449.700332 
L 319.004879 449.959671 
L 320.610865 449.74001 
L 323.822838 450.051239 
L 325.428824 449.569143 
L 327.034811 449.505097 
L 328.640797 449.257972 
L 330.246784 449.651538 
L 333.458756 449.584395 
L 339.882702 450.234261 
L 343.094675 451.686568 
L 344.700661 451.750614 
L 346.306647 452.086269 
L 347.912634 452.93137 
L 349.51862 453.996189 
L 351.124606 455.485077 
L 352.730593 456.45225 
L 354.336579 457.791659 
L 355.942566 458.972357 
L 357.548552 460.388026 
L 359.154538 462.383436 
L 360.760525 465.406968 
L 362.366511 466.267378 
L 363.972497 467.875242 
L 365.578484 469.809587 
L 367.18447 471.365618 
L 370.396443 474.697284 
L 373.608416 477.672022 
L 375.214402 479.649084 
L 376.820388 480.469816 
L 380.032361 483.923554 
L 381.638348 485.381938 
L 389.668279 490.965296 
L 391.274266 491.972129 
L 397.698211 494.785164 
L 399.304198 495.194 
L 400.910184 495.230612 
L 404.122157 495.01399 
L 407.334129 495.010939 
L 408.940116 494.919409 
L 412.152089 495.017041 
L 413.758075 495.142132 
L 416.970048 495.062806 
L 420.18202 494.928562 
L 433.029911 495.0445 
L 437.847871 494.977378 
L 441.059843 495.117724 
L 449.089775 495.020092 
L 452.301748 495.056704 
L 453.907734 494.977378 
L 455.513721 495.059755 
L 457.119707 494.916358 
L 461.937666 495.105521 
L 466.755625 494.925511 
L 469.967598 495.017041 
L 476.391543 494.940766 
L 479.603516 495.078061 
L 481.209503 495.050602 
L 482.815489 494.907204 
L 484.421475 494.888899 
L 489.239434 495.096367 
L 490.845421 494.98348 
L 500.481339 494.977378 
L 502.087325 494.910256 
L 506.905285 495.114673 
L 510.117257 495.029245 
L 522.965148 495.035347 
L 524.571135 495.120775 
L 530.99508 494.980429 
L 532.601066 495.059755 
L 535.813039 494.925511 
L 535.813039 494.925511 
" style="fill:none;stroke:#ff7f0e;stroke-linecap:square;stroke-width:2;"/>
   </g>
   <g id="patch_15">
    <path d="M 48.476475 500.74 
L 48.476475 381.48 
" style="fill:none;stroke:#000000;stroke-linecap:square;stroke-linejoin:miter;stroke-width:0.8;"/>
   </g>
   <g id="patch_16">
    <path d="M 559.019542 500.74 
L 559.019542 381.48 
" style="fill:none;stroke:#000000;stroke-linecap:square;stroke-linejoin:miter;stroke-width:0.8;"/>
   </g>
   <g id="patch_17">
    <path d="M 48.476475 500.74 
L 559.019542 500.74 
" style="fill:none;stroke:#000000;stroke-linecap:square;stroke-linejoin:miter;stroke-width:0.8;"/>
   </g>
   <g id="patch_18">
    <path d="M 48.476475 381.48 
L 559.019542 381.48 
" style="fill:none;stroke:#000000;stroke-linecap:square;stroke-linejoin:miter;stroke-width:0.8;"/>
   </g>
   <g id="text_53">
    <!-- Rotational Velocity -->
    <g transform="translate(247.866446 375.48)scale(0.12 -0.12)">
     <use xlink:href="#DejaVuSans-82"/>
     <use x="64.982422" xlink:href="#DejaVuSans-111"/>
     <use x="126.164062" xlink:href="#DejaVuSans-116"/>
     <use x="165.373047" xlink:href="#DejaVuSans-97"/>
     <use x="226.652344" xlink:href="#DejaVuSans-116"/>
     <use x="265.861328" xlink:href="#DejaVuSans-105"/>
     <use x="293.644531" xlink:href="#DejaVuSans-111"/>
     <use x="354.826172" xlink:href="#DejaVuSans-110"/>
     <use x="418.205078" xlink:href="#DejaVuSans-97"/>
     <use x="479.484375" xlink:href="#DejaVuSans-108"/>
     <use x="507.267578" xlink:href="#DejaVuSans-32"/>
     <use x="539.054688" xlink:href="#DejaVuSans-86"/>
     <use x="599.712891" xlink:href="#DejaVuSans-101"/>
     <use x="661.236328" xlink:href="#DejaVuSans-108"/>
     <use x="689.019531" xlink:href="#DejaVuSans-111"/>
     <use x="750.201172" xlink:href="#DejaVuSans-99"/>
     <use x="805.181641" xlink:href="#DejaVuSans-105"/>
     <use x="832.964844" xlink:href="#DejaVuSans-116"/>
     <use x="872.173828" xlink:href="#DejaVuSans-121"/>
    </g>
   </g>
   <g id="legend_3">
    <g id="patch_19">
     <path d="M 469.502355 418.83625 
L 552.019542 418.83625 
Q 554.019542 418.83625 554.019542 416.83625 
L 554.019542 388.48 
Q 554.019542 386.48 552.019542 386.48 
L 469.502355 386.48 
Q 467.502355 386.48 467.502355 388.48 
L 467.502355 416.83625 
Q 467.502355 418.83625 469.502355 418.83625 
z
" style="fill:#ffffff;opacity:0.8;stroke:#cccccc;stroke-linejoin:miter;"/>
    </g>
    <g id="line2d_92">
     <path d="M 471.502355 394.578438 
L 491.502355 394.578438 
" style="fill:none;stroke:#1f77b4;stroke-linecap:square;stroke-width:2;"/>
    </g>
    <g id="line2d_93"/>
    <g id="text_54">
     <!-- Reference -->
     <g transform="translate(499.502355 398.078438)scale(0.1 -0.1)">
      <use xlink:href="#DejaVuSans-82"/>
      <use x="64.982422" xlink:href="#DejaVuSans-101"/>
      <use x="126.505859" xlink:href="#DejaVuSans-102"/>
      <use x="161.710938" xlink:href="#DejaVuSans-101"/>
      <use x="223.234375" xlink:href="#DejaVuSans-114"/>
      <use x="262.097656" xlink:href="#DejaVuSans-101"/>
      <use x="323.621094" xlink:href="#DejaVuSans-110"/>
      <use x="387" xlink:href="#DejaVuSans-99"/>
      <use x="441.980469" xlink:href="#DejaVuSans-101"/>
     </g>
    </g>
    <g id="line2d_94">
     <path d="M 471.502355 409.256563 
L 491.502355 409.256563 
" style="fill:none;stroke:#ff7f0e;stroke-linecap:square;stroke-width:2;"/>
    </g>
    <g id="line2d_95"/>
    <g id="text_55">
     <!-- Estimated -->
     <g transform="translate(499.502355 412.756563)scale(0.1 -0.1)">
      <use xlink:href="#DejaVuSans-69"/>
      <use x="63.183594" xlink:href="#DejaVuSans-115"/>
      <use x="115.283203" xlink:href="#DejaVuSans-116"/>
      <use x="154.492188" xlink:href="#DejaVuSans-105"/>
      <use x="182.275391" xlink:href="#DejaVuSans-109"/>
      <use x="279.6875" xlink:href="#DejaVuSans-97"/>
      <use x="340.966797" xlink:href="#DejaVuSans-116"/>
      <use x="380.175781" xlink:href="#DejaVuSans-101"/>
      <use x="441.699219" xlink:href="#DejaVuSans-100"/>
     </g>
    </g>
   </g>
  </g>
  <g id="axes_4">
   <g id="patch_20">
    <path d="M 48.476475 678.04 
L 559.019542 678.04 
L 559.019542 558.78 
L 48.476475 558.78 
z
" style="fill:#ffffff;"/>
   </g>
   <g id="matplotlib.axis_7">
    <g id="xtick_22">
     <g id="line2d_96">
      <path clip-path="url(#pf1659df005)" d="M 71.682978 678.04 
L 71.682978 558.78 
" style="fill:none;stroke:#b0b0b0;stroke-linecap:square;stroke-width:0.8;"/>
     </g>
     <g id="line2d_97">
      <g>
       <use style="stroke:#000000;stroke-width:0.8;" x="71.682978" xlink:href="#mc574cf8a1f" y="678.04"/>
      </g>
     </g>
     <g id="text_56">
      <!-- 0.00 -->
      <g transform="translate(60.550165 692.638438)scale(0.1 -0.1)">
       <use xlink:href="#DejaVuSans-48"/>
       <use x="63.623047" xlink:href="#DejaVuSans-46"/>
       <use x="95.410156" xlink:href="#DejaVuSans-48"/>
       <use x="159.033203" xlink:href="#DejaVuSans-48"/>
      </g>
     </g>
    </g>
    <g id="xtick_23">
     <g id="line2d_98">
      <path clip-path="url(#pf1659df005)" d="M 151.982296 678.04 
L 151.982296 558.78 
" style="fill:none;stroke:#b0b0b0;stroke-linecap:square;stroke-width:0.8;"/>
     </g>
     <g id="line2d_99">
      <g>
       <use style="stroke:#000000;stroke-width:0.8;" x="151.982296" xlink:href="#mc574cf8a1f" y="678.04"/>
      </g>
     </g>
     <g id="text_57">
      <!-- 0.05 -->
      <g transform="translate(140.849484 692.638438)scale(0.1 -0.1)">
       <use xlink:href="#DejaVuSans-48"/>
       <use x="63.623047" xlink:href="#DejaVuSans-46"/>
       <use x="95.410156" xlink:href="#DejaVuSans-48"/>
       <use x="159.033203" xlink:href="#DejaVuSans-53"/>
      </g>
     </g>
    </g>
    <g id="xtick_24">
     <g id="line2d_100">
      <path clip-path="url(#pf1659df005)" d="M 232.281615 678.04 
L 232.281615 558.78 
" style="fill:none;stroke:#b0b0b0;stroke-linecap:square;stroke-width:0.8;"/>
     </g>
     <g id="line2d_101">
      <g>
       <use style="stroke:#000000;stroke-width:0.8;" x="232.281615" xlink:href="#mc574cf8a1f" y="678.04"/>
      </g>
     </g>
     <g id="text_58">
      <!-- 0.10 -->
      <g transform="translate(221.148802 692.638438)scale(0.1 -0.1)">
       <use xlink:href="#DejaVuSans-48"/>
       <use x="63.623047" xlink:href="#DejaVuSans-46"/>
       <use x="95.410156" xlink:href="#DejaVuSans-49"/>
       <use x="159.033203" xlink:href="#DejaVuSans-48"/>
      </g>
     </g>
    </g>
    <g id="xtick_25">
     <g id="line2d_102">
      <path clip-path="url(#pf1659df005)" d="M 312.580934 678.04 
L 312.580934 558.78 
" style="fill:none;stroke:#b0b0b0;stroke-linecap:square;stroke-width:0.8;"/>
     </g>
     <g id="line2d_103">
      <g>
       <use style="stroke:#000000;stroke-width:0.8;" x="312.580934" xlink:href="#mc574cf8a1f" y="678.04"/>
      </g>
     </g>
     <g id="text_59">
      <!-- 0.15 -->
      <g transform="translate(301.448121 692.638438)scale(0.1 -0.1)">
       <use xlink:href="#DejaVuSans-48"/>
       <use x="63.623047" xlink:href="#DejaVuSans-46"/>
       <use x="95.410156" xlink:href="#DejaVuSans-49"/>
       <use x="159.033203" xlink:href="#DejaVuSans-53"/>
      </g>
     </g>
    </g>
    <g id="xtick_26">
     <g id="line2d_104">
      <path clip-path="url(#pf1659df005)" d="M 392.880252 678.04 
L 392.880252 558.78 
" style="fill:none;stroke:#b0b0b0;stroke-linecap:square;stroke-width:0.8;"/>
     </g>
     <g id="line2d_105">
      <g>
       <use style="stroke:#000000;stroke-width:0.8;" x="392.880252" xlink:href="#mc574cf8a1f" y="678.04"/>
      </g>
     </g>
     <g id="text_60">
      <!-- 0.20 -->
      <g transform="translate(381.74744 692.638438)scale(0.1 -0.1)">
       <use xlink:href="#DejaVuSans-48"/>
       <use x="63.623047" xlink:href="#DejaVuSans-46"/>
       <use x="95.410156" xlink:href="#DejaVuSans-50"/>
       <use x="159.033203" xlink:href="#DejaVuSans-48"/>
      </g>
     </g>
    </g>
    <g id="xtick_27">
     <g id="line2d_106">
      <path clip-path="url(#pf1659df005)" d="M 473.179571 678.04 
L 473.179571 558.78 
" style="fill:none;stroke:#b0b0b0;stroke-linecap:square;stroke-width:0.8;"/>
     </g>
     <g id="line2d_107">
      <g>
       <use style="stroke:#000000;stroke-width:0.8;" x="473.179571" xlink:href="#mc574cf8a1f" y="678.04"/>
      </g>
     </g>
     <g id="text_61">
      <!-- 0.25 -->
      <g transform="translate(462.046758 692.638438)scale(0.1 -0.1)">
       <use xlink:href="#DejaVuSans-48"/>
       <use x="63.623047" xlink:href="#DejaVuSans-46"/>
       <use x="95.410156" xlink:href="#DejaVuSans-50"/>
       <use x="159.033203" xlink:href="#DejaVuSans-53"/>
      </g>
     </g>
    </g>
    <g id="xtick_28">
     <g id="line2d_108">
      <path clip-path="url(#pf1659df005)" d="M 553.478889 678.04 
L 553.478889 558.78 
" style="fill:none;stroke:#b0b0b0;stroke-linecap:square;stroke-width:0.8;"/>
     </g>
     <g id="line2d_109">
      <g>
       <use style="stroke:#000000;stroke-width:0.8;" x="553.478889" xlink:href="#mc574cf8a1f" y="678.04"/>
      </g>
     </g>
     <g id="text_62">
      <!-- 0.30 -->
      <g transform="translate(542.346077 692.638438)scale(0.1 -0.1)">
       <use xlink:href="#DejaVuSans-48"/>
       <use x="63.623047" xlink:href="#DejaVuSans-46"/>
       <use x="95.410156" xlink:href="#DejaVuSans-51"/>
       <use x="159.033203" xlink:href="#DejaVuSans-48"/>
      </g>
     </g>
    </g>
    <g id="text_63">
     <!-- Time [ms] -->
     <g transform="translate(278.54879 706.316563)scale(0.1 -0.1)">
      <use xlink:href="#DejaVuSans-84"/>
      <use x="57.958984" xlink:href="#DejaVuSans-105"/>
      <use x="85.742188" xlink:href="#DejaVuSans-109"/>
      <use x="183.154297" xlink:href="#DejaVuSans-101"/>
      <use x="244.677734" xlink:href="#DejaVuSans-32"/>
      <use x="276.464844" xlink:href="#DejaVuSans-91"/>
      <use x="315.478516" xlink:href="#DejaVuSans-109"/>
      <use x="412.890625" xlink:href="#DejaVuSans-115"/>
      <use x="464.990234" xlink:href="#DejaVuSans-93"/>
     </g>
    </g>
   </g>
   <g id="matplotlib.axis_8">
    <g id="ytick_14">
     <g id="line2d_110">
      <path clip-path="url(#pf1659df005)" d="M 48.476475 671.241763 
L 559.019542 671.241763 
" style="fill:none;stroke:#b0b0b0;stroke-linecap:square;stroke-width:0.8;"/>
     </g>
     <g id="line2d_111">
      <g>
       <use style="stroke:#000000;stroke-width:0.8;" x="48.476475" xlink:href="#m0f92351ab9" y="671.241763"/>
      </g>
     </g>
     <g id="text_64">
      <!-- $\mathdefault{−1}$ -->
      <g transform="translate(26.676475 675.040981)scale(0.1 -0.1)">
       <use transform="translate(0 0.09375)" xlink:href="#DejaVuSans-8722"/>
       <use transform="translate(83.789062 0.09375)" xlink:href="#DejaVuSans-49"/>
      </g>
     </g>
    </g>
    <g id="ytick_15">
     <g id="line2d_112">
      <path clip-path="url(#pf1659df005)" d="M 48.476475 643.973334 
L 559.019542 643.973334 
" style="fill:none;stroke:#b0b0b0;stroke-linecap:square;stroke-width:0.8;"/>
     </g>
     <g id="line2d_113">
      <g>
       <use style="stroke:#000000;stroke-width:0.8;" x="48.476475" xlink:href="#m0f92351ab9" y="643.973334"/>
      </g>
     </g>
     <g id="text_65">
      <!-- $\mathdefault{0}$ -->
      <g transform="translate(35.076475 647.772553)scale(0.1 -0.1)">
       <use transform="translate(0 0.78125)" xlink:href="#DejaVuSans-48"/>
      </g>
     </g>
    </g>
    <g id="ytick_16">
     <g id="line2d_114">
      <path clip-path="url(#pf1659df005)" d="M 48.476475 616.704905 
L 559.019542 616.704905 
" style="fill:none;stroke:#b0b0b0;stroke-linecap:square;stroke-width:0.8;"/>
     </g>
     <g id="line2d_115">
      <g>
       <use style="stroke:#000000;stroke-width:0.8;" x="48.476475" xlink:href="#m0f92351ab9" y="616.704905"/>
      </g>
     </g>
     <g id="text_66">
      <!-- $\mathdefault{1}$ -->
      <g transform="translate(35.076475 620.504124)scale(0.1 -0.1)">
       <use transform="translate(0 0.09375)" xlink:href="#DejaVuSans-49"/>
      </g>
     </g>
    </g>
    <g id="ytick_17">
     <g id="line2d_116">
      <path clip-path="url(#pf1659df005)" d="M 48.476475 589.436476 
L 559.019542 589.436476 
" style="fill:none;stroke:#b0b0b0;stroke-linecap:square;stroke-width:0.8;"/>
     </g>
     <g id="line2d_117">
      <g>
       <use style="stroke:#000000;stroke-width:0.8;" x="48.476475" xlink:href="#m0f92351ab9" y="589.436476"/>
      </g>
     </g>
     <g id="text_67">
      <!-- $\mathdefault{2}$ -->
      <g transform="translate(35.076475 593.235695)scale(0.1 -0.1)">
       <use transform="translate(0 0.78125)" xlink:href="#DejaVuSans-50"/>
      </g>
     </g>
    </g>
    <g id="ytick_18">
     <g id="line2d_118">
      <path clip-path="url(#pf1659df005)" d="M 48.476475 562.168048 
L 559.019542 562.168048 
" style="fill:none;stroke:#b0b0b0;stroke-linecap:square;stroke-width:0.8;"/>
     </g>
     <g id="line2d_119">
      <g>
       <use style="stroke:#000000;stroke-width:0.8;" x="48.476475" xlink:href="#m0f92351ab9" y="562.168048"/>
      </g>
     </g>
     <g id="text_68">
      <!-- $\mathdefault{3}$ -->
      <g transform="translate(35.076475 565.967266)scale(0.1 -0.1)">
       <use transform="translate(0 0.78125)" xlink:href="#DejaVuSans-51"/>
      </g>
     </g>
    </g>
    <g id="text_69">
     <!-- pwm input -->
     <g transform="translate(20.596787 644.993594)rotate(-90)scale(0.1 -0.1)">
      <use xlink:href="#DejaVuSans-112"/>
      <use x="63.476562" xlink:href="#DejaVuSans-119"/>
      <use x="145.263672" xlink:href="#DejaVuSans-109"/>
      <use x="242.675781" xlink:href="#DejaVuSans-32"/>
      <use x="274.462891" xlink:href="#DejaVuSans-105"/>
      <use x="302.246094" xlink:href="#DejaVuSans-110"/>
      <use x="365.625" xlink:href="#DejaVuSans-112"/>
      <use x="429.101562" xlink:href="#DejaVuSans-117"/>
      <use x="492.480469" xlink:href="#DejaVuSans-116"/>
     </g>
    </g>
    <g id="text_70">
     <!-- $\times\mathdefault{10^{−1}}\mathdefault{}$ -->
     <g transform="translate(48.476475 555.78)scale(0.1 -0.1)">
      <use transform="translate(0 0.684375)" xlink:href="#DejaVuSans-215"/>
      <use transform="translate(83.789062 0.684375)" xlink:href="#DejaVuSans-49"/>
      <use transform="translate(147.412109 0.684375)" xlink:href="#DejaVuSans-48"/>
      <use transform="translate(211.992188 38.965625)scale(0.7)" xlink:href="#DejaVuSans-8722"/>
      <use transform="translate(270.644531 38.965625)scale(0.7)" xlink:href="#DejaVuSans-49"/>
     </g>
    </g>
   </g>
   <g id="line2d_120">
    <path clip-path="url(#pf1659df005)" d="M 71.682978 643.973334 
L 76.500937 633.734502 
L 81.318896 622.755497 
L 86.136855 611.036344 
L 87.742841 606.96544 
L 98.984746 601.208802 
L 100.590732 600.797595 
L 140.740392 580.237745 
L 142.346378 579.004121 
L 171.254133 564.200909 
L 172.860119 565.033687 
L 176.072092 570.214688 
L 179.284065 575.72482 
L 182.496037 581.563808 
L 185.70801 587.731927 
L 187.313996 590.93924 
L 188.919983 592.573436 
L 339.882702 592.573436 
L 341.488688 595.342273 
L 346.306647 605.786354 
L 351.124606 616.970718 
L 352.730593 620.863313 
L 354.336579 622.840438 
L 355.942566 628.895202 
L 357.548552 630.266313 
L 367.18447 635.200617 
L 368.790457 635.611825 
L 370.396443 636.845394 
L 410.546102 657.405053 
L 412.152089 657.816234 
L 413.758075 659.04983 
L 415.364061 659.872218 
L 416.970048 660.283399 
L 418.576034 661.516968 
L 424.99998 664.806522 
L 426.605966 665.217703 
L 428.211952 666.4513 
L 439.453857 672.207883 
L 441.059843 672.619091 
L 442.66583 669.397571 
L 445.877802 664.079683 
L 447.483789 662.698809 
L 449.089775 658.432827 
L 452.301748 652.457033 
L 455.513721 646.152272 
L 457.119707 643.973334 
L 535.813039 643.973334 
L 535.813039 643.973334 
" style="fill:none;stroke:#1f77b4;stroke-linecap:square;stroke-width:2;"/>
   </g>
   <g id="line2d_121">
    <path clip-path="url(#pf1659df005)" d="M 71.682978 643.973334 
L 535.813039 643.973334 
L 535.813039 643.973334 
" style="fill:none;stroke:#ff7f0e;stroke-linecap:square;stroke-width:2;"/>
   </g>
   <g id="line2d_122">
    <path clip-path="url(#pf1659df005)" d="M 71.682978 643.973334 
L 535.813039 643.973334 
L 535.813039 643.973334 
" style="fill:none;stroke:#2ca02c;stroke-linecap:square;stroke-width:2;"/>
   </g>
   <g id="line2d_123">
    <path clip-path="url(#pf1659df005)" d="M 71.682978 643.973334 
L 535.813039 643.973334 
L 535.813039 643.973334 
" style="fill:none;stroke:#d62728;stroke-linecap:square;stroke-width:2;"/>
   </g>
   <g id="line2d_124">
    <path clip-path="url(#pf1659df005)" d="M 71.682978 643.973334 
L 76.500937 633.734502 
L 81.318896 622.755497 
L 86.136855 611.036344 
L 87.742841 606.96544 
L 98.984746 601.208802 
L 100.590732 600.797595 
L 140.740392 580.237745 
L 142.346378 579.004121 
L 171.254133 564.200909 
L 172.860119 565.033687 
L 176.072092 570.214688 
L 179.284065 575.72482 
L 182.496037 581.563808 
L 185.70801 587.731927 
L 187.313996 590.93924 
L 188.919983 592.573436 
L 339.882702 592.573436 
L 341.488688 595.342273 
L 346.306647 605.786354 
L 351.124606 616.970718 
L 352.730593 620.863313 
L 354.336579 622.840438 
L 355.942566 628.895202 
L 357.548552 630.266313 
L 367.18447 635.200617 
L 368.790457 635.611825 
L 370.396443 636.845394 
L 410.546102 657.405053 
L 412.152089 657.816234 
L 413.758075 659.04983 
L 415.364061 659.872218 
L 416.970048 660.283399 
L 418.576034 661.516968 
L 424.99998 664.806522 
L 426.605966 665.217703 
L 428.211952 666.4513 
L 439.453857 672.207883 
L 441.059843 672.619091 
L 442.66583 669.397571 
L 445.877802 664.079683 
L 447.483789 662.698809 
L 449.089775 658.432827 
L 452.301748 652.457033 
L 455.513721 646.152272 
L 457.119707 643.973334 
L 535.813039 643.973334 
L 535.813039 643.973334 
" style="fill:none;stroke:#9467bd;stroke-linecap:square;stroke-width:2;"/>
   </g>
   <g id="patch_21">
    <path d="M 48.476475 678.04 
L 48.476475 558.78 
" style="fill:none;stroke:#000000;stroke-linecap:square;stroke-linejoin:miter;stroke-width:0.8;"/>
   </g>
   <g id="patch_22">
    <path d="M 559.019542 678.04 
L 559.019542 558.78 
" style="fill:none;stroke:#000000;stroke-linecap:square;stroke-linejoin:miter;stroke-width:0.8;"/>
   </g>
   <g id="patch_23">
    <path d="M 48.476475 678.04 
L 559.019542 678.04 
" style="fill:none;stroke:#000000;stroke-linecap:square;stroke-linejoin:miter;stroke-width:0.8;"/>
   </g>
   <g id="patch_24">
    <path d="M 48.476475 558.78 
L 559.019542 558.78 
" style="fill:none;stroke:#000000;stroke-linecap:square;stroke-linejoin:miter;stroke-width:0.8;"/>
   </g>
   <g id="text_71">
    <!-- Rotational PWM Input -->
    <g transform="translate(239.234883 552.78)scale(0.12 -0.12)">
     <use xlink:href="#DejaVuSans-82"/>
     <use x="64.982422" xlink:href="#DejaVuSans-111"/>
     <use x="126.164062" xlink:href="#DejaVuSans-116"/>
     <use x="165.373047" xlink:href="#DejaVuSans-97"/>
     <use x="226.652344" xlink:href="#DejaVuSans-116"/>
     <use x="265.861328" xlink:href="#DejaVuSans-105"/>
     <use x="293.644531" xlink:href="#DejaVuSans-111"/>
     <use x="354.826172" xlink:href="#DejaVuSans-110"/>
     <use x="418.205078" xlink:href="#DejaVuSans-97"/>
     <use x="479.484375" xlink:href="#DejaVuSans-108"/>
     <use x="507.267578" xlink:href="#DejaVuSans-32"/>
     <use x="539.054688" xlink:href="#DejaVuSans-80"/>
     <use x="599.357422" xlink:href="#DejaVuSans-87"/>
     <use x="698.234375" xlink:href="#DejaVuSans-77"/>
     <use x="784.513672" xlink:href="#DejaVuSans-32"/>
     <use x="816.300781" xlink:href="#DejaVuSans-73"/>
     <use x="845.792969" xlink:href="#DejaVuSans-110"/>
     <use x="909.171875" xlink:href="#DejaVuSans-112"/>
     <use x="972.648438" xlink:href="#DejaVuSans-117"/>
     <use x="1036.027344" xlink:href="#DejaVuSans-116"/>
    </g>
   </g>
   <g id="legend_4">
    <g id="patch_25">
     <path d="M 230.700792 581.458125 
L 552.019542 581.458125 
Q 554.019542 581.458125 554.019542 579.458125 
L 554.019542 565.78 
Q 554.019542 563.78 552.019542 563.78 
L 230.700792 563.78 
Q 228.700792 563.78 228.700792 565.78 
L 228.700792 579.458125 
Q 228.700792 581.458125 230.700792 581.458125 
z
" style="fill:#ffffff;opacity:0.8;stroke:#cccccc;stroke-linejoin:miter;"/>
    </g>
    <g id="line2d_125">
     <path d="M 232.700792 571.878438 
L 252.700792 571.878438 
" style="fill:none;stroke:#1f77b4;stroke-linecap:square;stroke-width:2;"/>
    </g>
    <g id="line2d_126"/>
    <g id="text_72">
     <!-- FF -->
     <g transform="translate(260.700792 575.378438)scale(0.1 -0.1)">
      <use xlink:href="#DejaVuSans-70"/>
      <use x="57.519531" xlink:href="#DejaVuSans-70"/>
     </g>
    </g>
    <g id="line2d_127">
     <path d="M 292.203917 571.878438 
L 312.203917 571.878438 
" style="fill:none;stroke:#ff7f0e;stroke-linecap:square;stroke-width:2;"/>
    </g>
    <g id="line2d_128"/>
    <g id="text_73">
     <!-- FB -->
     <g transform="translate(320.203917 575.378438)scale(0.1 -0.1)">
      <use xlink:href="#DejaVuSans-70"/>
      <use x="57.519531" xlink:href="#DejaVuSans-66"/>
     </g>
    </g>
    <g id="line2d_129">
     <path d="M 352.816417 571.878438 
L 372.816417 571.878438 
" style="fill:none;stroke:#2ca02c;stroke-linecap:square;stroke-width:2;"/>
    </g>
    <g id="line2d_130"/>
    <g id="text_74">
     <!-- FB p -->
     <g transform="translate(380.816417 575.378438)scale(0.1 -0.1)">
      <use xlink:href="#DejaVuSans-70"/>
      <use x="57.519531" xlink:href="#DejaVuSans-66"/>
      <use x="126.123047" xlink:href="#DejaVuSans-32"/>
      <use x="157.910156" xlink:href="#DejaVuSans-112"/>
     </g>
    </g>
    <g id="line2d_131">
     <path d="M 422.95548 571.878438 
L 442.95548 571.878438 
" style="fill:none;stroke:#d62728;stroke-linecap:square;stroke-width:2;"/>
    </g>
    <g id="line2d_132"/>
    <g id="text_75">
     <!-- FB i -->
     <g transform="translate(450.95548 575.378438)scale(0.1 -0.1)">
      <use xlink:href="#DejaVuSans-70"/>
      <use x="57.519531" xlink:href="#DejaVuSans-66"/>
      <use x="126.123047" xlink:href="#DejaVuSans-32"/>
      <use x="157.910156" xlink:href="#DejaVuSans-105"/>
     </g>
    </g>
    <g id="line2d_133">
     <path d="M 489.52423 571.878438 
L 509.52423 571.878438 
" style="fill:none;stroke:#9467bd;stroke-linecap:square;stroke-width:2;"/>
    </g>
    <g id="line2d_134"/>
    <g id="text_76">
     <!-- FF+FB -->
     <g transform="translate(517.52423 575.378438)scale(0.1 -0.1)">
      <use xlink:href="#DejaVuSans-70"/>
      <use x="57.519531" xlink:href="#DejaVuSans-70"/>
      <use x="115.039062" xlink:href="#DejaVuSans-43"/>
      <use x="198.828125" xlink:href="#DejaVuSans-70"/>
      <use x="256.347656" xlink:href="#DejaVuSans-66"/>
     </g>
    </g>
   </g>
  </g>
 </g>
 <defs>
  <clipPath id="p07ac681dad">
   <rect height="119.26" width="510.543068" x="48.476475" y="26.88"/>
  </clipPath>
  <clipPath id="p5e45890612">
   <rect height="119.26" width="510.543068" x="48.476475" y="204.18"/>
  </clipPath>
  <clipPath id="p5b43a2dae8">
   <rect height="119.26" width="510.543068" x="48.476475" y="381.48"/>
  </clipPath>
  <clipPath id="pf1659df005">
   <rect height="119.26" width="510.543068" x="48.476475" y="558.78"/>
  </clipPath>
 </defs>
</svg>
