<?xml version="1.0" encoding="utf-8" standalone="no"?>
<!DOCTYPE svg PUBLIC "-//W3C//DTD SVG 1.1//EN"
  "http://www.w3.org/Graphics/SVG/1.1/DTD/svg11.dtd">
<!-- Created with matplotlib (https://matplotlib.org/) -->
<svg height="720pt" version="1.1" viewBox="0 0 576 720" width="576pt" xmlns="http://www.w3.org/2000/svg" xmlns:xlink="http://www.w3.org/1999/xlink">
 <defs>
  <style type="text/css">
*{stroke-linecap:butt;stroke-linejoin:round;}
  </style>
 </defs>
 <g id="figure_1">
  <g id="patch_1">
   <path d="M 0 720 
L 576 720 
L 576 0 
L 0 0 
z
" style="fill:#ffffff;"/>
  </g>
  <g id="axes_1">
   <g id="patch_2">
    <path d="M 47.461777 146.14 
L 559.019542 146.14 
L 559.019542 26.88 
L 47.461777 26.88 
z
" style="fill:#ffffff;"/>
   </g>
   <g id="matplotlib.axis_1">
    <g id="xtick_1">
     <g id="line2d_1">
      <path clip-path="url(#p52295b71ea)" d="M 70.714403 146.14 
L 70.714403 26.88 
" style="fill:none;stroke:#b0b0b0;stroke-linecap:square;stroke-width:0.8;"/>
     </g>
     <g id="line2d_2">
      <defs>
       <path d="M 0 0 
L 0 3.5 
" id="m3f89ed190a" style="stroke:#000000;stroke-width:0.8;"/>
      </defs>
      <g>
       <use style="stroke:#000000;stroke-width:0.8;" x="70.714403" xlink:href="#m3f89ed190a" y="146.14"/>
      </g>
     </g>
     <g id="text_1">
      <!-- 0.00 -->
      <defs>
       <path d="M 31.78125 66.40625 
Q 24.171875 66.40625 20.328125 58.90625 
Q 16.5 51.421875 16.5 36.375 
Q 16.5 21.390625 20.328125 13.890625 
Q 24.171875 6.390625 31.78125 6.390625 
Q 39.453125 6.390625 43.28125 13.890625 
Q 47.125 21.390625 47.125 36.375 
Q 47.125 51.421875 43.28125 58.90625 
Q 39.453125 66.40625 31.78125 66.40625 
z
M 31.78125 74.21875 
Q 44.046875 74.21875 50.515625 64.515625 
Q 56.984375 54.828125 56.984375 36.375 
Q 56.984375 17.96875 50.515625 8.265625 
Q 44.046875 -1.421875 31.78125 -1.421875 
Q 19.53125 -1.421875 13.0625 8.265625 
Q 6.59375 17.96875 6.59375 36.375 
Q 6.59375 54.828125 13.0625 64.515625 
Q 19.53125 74.21875 31.78125 74.21875 
z
" id="DejaVuSans-48"/>
       <path d="M 10.6875 12.40625 
L 21 12.40625 
L 21 0 
L 10.6875 0 
z
" id="DejaVuSans-46"/>
      </defs>
      <g transform="translate(59.581591 160.738438)scale(0.1 -0.1)">
       <use xlink:href="#DejaVuSans-48"/>
       <use x="63.623047" xlink:href="#DejaVuSans-46"/>
       <use x="95.410156" xlink:href="#DejaVuSans-48"/>
       <use x="159.033203" xlink:href="#DejaVuSans-48"/>
      </g>
     </g>
    </g>
    <g id="xtick_2">
     <g id="line2d_3">
      <path clip-path="url(#p52295b71ea)" d="M 151.173315 146.14 
L 151.173315 26.88 
" style="fill:none;stroke:#b0b0b0;stroke-linecap:square;stroke-width:0.8;"/>
     </g>
     <g id="line2d_4">
      <g>
       <use style="stroke:#000000;stroke-width:0.8;" x="151.173315" xlink:href="#m3f89ed190a" y="146.14"/>
      </g>
     </g>
     <g id="text_2">
      <!-- 0.05 -->
      <defs>
       <path d="M 10.796875 72.90625 
L 49.515625 72.90625 
L 49.515625 64.59375 
L 19.828125 64.59375 
L 19.828125 46.734375 
Q 21.96875 47.46875 24.109375 47.828125 
Q 26.265625 48.1875 28.421875 48.1875 
Q 40.625 48.1875 47.75 41.5 
Q 54.890625 34.8125 54.890625 23.390625 
Q 54.890625 11.625 47.5625 5.09375 
Q 40.234375 -1.421875 26.90625 -1.421875 
Q 22.3125 -1.421875 17.546875 -0.640625 
Q 12.796875 0.140625 7.71875 1.703125 
L 7.71875 11.625 
Q 12.109375 9.234375 16.796875 8.0625 
Q 21.484375 6.890625 26.703125 6.890625 
Q 35.15625 6.890625 40.078125 11.328125 
Q 45.015625 15.765625 45.015625 23.390625 
Q 45.015625 31 40.078125 35.4375 
Q 35.15625 39.890625 26.703125 39.890625 
Q 22.75 39.890625 18.8125 39.015625 
Q 14.890625 38.140625 10.796875 36.28125 
z
" id="DejaVuSans-53"/>
      </defs>
      <g transform="translate(140.040503 160.738438)scale(0.1 -0.1)">
       <use xlink:href="#DejaVuSans-48"/>
       <use x="63.623047" xlink:href="#DejaVuSans-46"/>
       <use x="95.410156" xlink:href="#DejaVuSans-48"/>
       <use x="159.033203" xlink:href="#DejaVuSans-53"/>
      </g>
     </g>
    </g>
    <g id="xtick_3">
     <g id="line2d_5">
      <path clip-path="url(#p52295b71ea)" d="M 231.632228 146.14 
L 231.632228 26.88 
" style="fill:none;stroke:#b0b0b0;stroke-linecap:square;stroke-width:0.8;"/>
     </g>
     <g id="line2d_6">
      <g>
       <use style="stroke:#000000;stroke-width:0.8;" x="231.632228" xlink:href="#m3f89ed190a" y="146.14"/>
      </g>
     </g>
     <g id="text_3">
      <!-- 0.10 -->
      <defs>
       <path d="M 12.40625 8.296875 
L 28.515625 8.296875 
L 28.515625 63.921875 
L 10.984375 60.40625 
L 10.984375 69.390625 
L 28.421875 72.90625 
L 38.28125 72.90625 
L 38.28125 8.296875 
L 54.390625 8.296875 
L 54.390625 0 
L 12.40625 0 
z
" id="DejaVuSans-49"/>
      </defs>
      <g transform="translate(220.499415 160.738438)scale(0.1 -0.1)">
       <use xlink:href="#DejaVuSans-48"/>
       <use x="63.623047" xlink:href="#DejaVuSans-46"/>
       <use x="95.410156" xlink:href="#DejaVuSans-49"/>
       <use x="159.033203" xlink:href="#DejaVuSans-48"/>
      </g>
     </g>
    </g>
    <g id="xtick_4">
     <g id="line2d_7">
      <path clip-path="url(#p52295b71ea)" d="M 312.09114 146.14 
L 312.09114 26.88 
" style="fill:none;stroke:#b0b0b0;stroke-linecap:square;stroke-width:0.8;"/>
     </g>
     <g id="line2d_8">
      <g>
       <use style="stroke:#000000;stroke-width:0.8;" x="312.09114" xlink:href="#m3f89ed190a" y="146.14"/>
      </g>
     </g>
     <g id="text_4">
      <!-- 0.15 -->
      <g transform="translate(300.958328 160.738438)scale(0.1 -0.1)">
       <use xlink:href="#DejaVuSans-48"/>
       <use x="63.623047" xlink:href="#DejaVuSans-46"/>
       <use x="95.410156" xlink:href="#DejaVuSans-49"/>
       <use x="159.033203" xlink:href="#DejaVuSans-53"/>
      </g>
     </g>
    </g>
    <g id="xtick_5">
     <g id="line2d_9">
      <path clip-path="url(#p52295b71ea)" d="M 392.550053 146.14 
L 392.550053 26.88 
" style="fill:none;stroke:#b0b0b0;stroke-linecap:square;stroke-width:0.8;"/>
     </g>
     <g id="line2d_10">
      <g>
       <use style="stroke:#000000;stroke-width:0.8;" x="392.550053" xlink:href="#m3f89ed190a" y="146.14"/>
      </g>
     </g>
     <g id="text_5">
      <!-- 0.20 -->
      <defs>
       <path d="M 19.1875 8.296875 
L 53.609375 8.296875 
L 53.609375 0 
L 7.328125 0 
L 7.328125 8.296875 
Q 12.9375 14.109375 22.625 23.890625 
Q 32.328125 33.6875 34.8125 36.53125 
Q 39.546875 41.84375 41.421875 45.53125 
Q 43.3125 49.21875 43.3125 52.78125 
Q 43.3125 58.59375 39.234375 62.25 
Q 35.15625 65.921875 28.609375 65.921875 
Q 23.96875 65.921875 18.8125 64.3125 
Q 13.671875 62.703125 7.8125 59.421875 
L 7.8125 69.390625 
Q 13.765625 71.78125 18.9375 73 
Q 24.125 74.21875 28.421875 74.21875 
Q 39.75 74.21875 46.484375 68.546875 
Q 53.21875 62.890625 53.21875 53.421875 
Q 53.21875 48.921875 51.53125 44.890625 
Q 49.859375 40.875 45.40625 35.40625 
Q 44.1875 33.984375 37.640625 27.21875 
Q 31.109375 20.453125 19.1875 8.296875 
z
" id="DejaVuSans-50"/>
      </defs>
      <g transform="translate(381.41724 160.738438)scale(0.1 -0.1)">
       <use xlink:href="#DejaVuSans-48"/>
       <use x="63.623047" xlink:href="#DejaVuSans-46"/>
       <use x="95.410156" xlink:href="#DejaVuSans-50"/>
       <use x="159.033203" xlink:href="#DejaVuSans-48"/>
      </g>
     </g>
    </g>
    <g id="xtick_6">
     <g id="line2d_11">
      <path clip-path="url(#p52295b71ea)" d="M 473.008965 146.14 
L 473.008965 26.88 
" style="fill:none;stroke:#b0b0b0;stroke-linecap:square;stroke-width:0.8;"/>
     </g>
     <g id="line2d_12">
      <g>
       <use style="stroke:#000000;stroke-width:0.8;" x="473.008965" xlink:href="#m3f89ed190a" y="146.14"/>
      </g>
     </g>
     <g id="text_6">
      <!-- 0.25 -->
      <g transform="translate(461.876152 160.738438)scale(0.1 -0.1)">
       <use xlink:href="#DejaVuSans-48"/>
       <use x="63.623047" xlink:href="#DejaVuSans-46"/>
       <use x="95.410156" xlink:href="#DejaVuSans-50"/>
       <use x="159.033203" xlink:href="#DejaVuSans-53"/>
      </g>
     </g>
    </g>
    <g id="xtick_7">
     <g id="line2d_13">
      <path clip-path="url(#p52295b71ea)" d="M 553.467877 146.14 
L 553.467877 26.88 
" style="fill:none;stroke:#b0b0b0;stroke-linecap:square;stroke-width:0.8;"/>
     </g>
     <g id="line2d_14">
      <g>
       <use style="stroke:#000000;stroke-width:0.8;" x="553.467877" xlink:href="#m3f89ed190a" y="146.14"/>
      </g>
     </g>
     <g id="text_7">
      <!-- 0.30 -->
      <defs>
       <path d="M 40.578125 39.3125 
Q 47.65625 37.796875 51.625 33 
Q 55.609375 28.21875 55.609375 21.1875 
Q 55.609375 10.40625 48.1875 4.484375 
Q 40.765625 -1.421875 27.09375 -1.421875 
Q 22.515625 -1.421875 17.65625 -0.515625 
Q 12.796875 0.390625 7.625 2.203125 
L 7.625 11.71875 
Q 11.71875 9.328125 16.59375 8.109375 
Q 21.484375 6.890625 26.8125 6.890625 
Q 36.078125 6.890625 40.9375 10.546875 
Q 45.796875 14.203125 45.796875 21.1875 
Q 45.796875 27.640625 41.28125 31.265625 
Q 36.765625 34.90625 28.71875 34.90625 
L 20.21875 34.90625 
L 20.21875 43.015625 
L 29.109375 43.015625 
Q 36.375 43.015625 40.234375 45.921875 
Q 44.09375 48.828125 44.09375 54.296875 
Q 44.09375 59.90625 40.109375 62.90625 
Q 36.140625 65.921875 28.71875 65.921875 
Q 24.65625 65.921875 20.015625 65.03125 
Q 15.375 64.15625 9.8125 62.3125 
L 9.8125 71.09375 
Q 15.4375 72.65625 20.34375 73.4375 
Q 25.25 74.21875 29.59375 74.21875 
Q 40.828125 74.21875 47.359375 69.109375 
Q 53.90625 64.015625 53.90625 55.328125 
Q 53.90625 49.265625 50.4375 45.09375 
Q 46.96875 40.921875 40.578125 39.3125 
z
" id="DejaVuSans-51"/>
      </defs>
      <g transform="translate(542.335065 160.738438)scale(0.1 -0.1)">
       <use xlink:href="#DejaVuSans-48"/>
       <use x="63.623047" xlink:href="#DejaVuSans-46"/>
       <use x="95.410156" xlink:href="#DejaVuSans-51"/>
       <use x="159.033203" xlink:href="#DejaVuSans-48"/>
      </g>
     </g>
    </g>
    <g id="text_8">
     <!-- Time [ms] -->
     <defs>
      <path d="M -0.296875 72.90625 
L 61.375 72.90625 
L 61.375 64.59375 
L 35.5 64.59375 
L 35.5 0 
L 25.59375 0 
L 25.59375 64.59375 
L -0.296875 64.59375 
z
" id="DejaVuSans-84"/>
      <path d="M 9.421875 54.6875 
L 18.40625 54.6875 
L 18.40625 0 
L 9.421875 0 
z
M 9.421875 75.984375 
L 18.40625 75.984375 
L 18.40625 64.59375 
L 9.421875 64.59375 
z
" id="DejaVuSans-105"/>
      <path d="M 52 44.1875 
Q 55.375 50.25 60.0625 53.125 
Q 64.75 56 71.09375 56 
Q 79.640625 56 84.28125 50.015625 
Q 88.921875 44.046875 88.921875 33.015625 
L 88.921875 0 
L 79.890625 0 
L 79.890625 32.71875 
Q 79.890625 40.578125 77.09375 44.375 
Q 74.3125 48.1875 68.609375 48.1875 
Q 61.625 48.1875 57.5625 43.546875 
Q 53.515625 38.921875 53.515625 30.90625 
L 53.515625 0 
L 44.484375 0 
L 44.484375 32.71875 
Q 44.484375 40.625 41.703125 44.40625 
Q 38.921875 48.1875 33.109375 48.1875 
Q 26.21875 48.1875 22.15625 43.53125 
Q 18.109375 38.875 18.109375 30.90625 
L 18.109375 0 
L 9.078125 0 
L 9.078125 54.6875 
L 18.109375 54.6875 
L 18.109375 46.1875 
Q 21.1875 51.21875 25.484375 53.609375 
Q 29.78125 56 35.6875 56 
Q 41.65625 56 45.828125 52.96875 
Q 50 49.953125 52 44.1875 
z
" id="DejaVuSans-109"/>
      <path d="M 56.203125 29.59375 
L 56.203125 25.203125 
L 14.890625 25.203125 
Q 15.484375 15.921875 20.484375 11.0625 
Q 25.484375 6.203125 34.421875 6.203125 
Q 39.59375 6.203125 44.453125 7.46875 
Q 49.3125 8.734375 54.109375 11.28125 
L 54.109375 2.78125 
Q 49.265625 0.734375 44.1875 -0.34375 
Q 39.109375 -1.421875 33.890625 -1.421875 
Q 20.796875 -1.421875 13.15625 6.1875 
Q 5.515625 13.8125 5.515625 26.8125 
Q 5.515625 40.234375 12.765625 48.109375 
Q 20.015625 56 32.328125 56 
Q 43.359375 56 49.78125 48.890625 
Q 56.203125 41.796875 56.203125 29.59375 
z
M 47.21875 32.234375 
Q 47.125 39.59375 43.09375 43.984375 
Q 39.0625 48.390625 32.421875 48.390625 
Q 24.90625 48.390625 20.390625 44.140625 
Q 15.875 39.890625 15.1875 32.171875 
z
" id="DejaVuSans-101"/>
      <path id="DejaVuSans-32"/>
      <path d="M 8.59375 75.984375 
L 29.296875 75.984375 
L 29.296875 69 
L 17.578125 69 
L 17.578125 -6.203125 
L 29.296875 -6.203125 
L 29.296875 -13.1875 
L 8.59375 -13.1875 
z
" id="DejaVuSans-91"/>
      <path d="M 44.28125 53.078125 
L 44.28125 44.578125 
Q 40.484375 46.53125 36.375 47.5 
Q 32.28125 48.484375 27.875 48.484375 
Q 21.1875 48.484375 17.84375 46.4375 
Q 14.5 44.390625 14.5 40.28125 
Q 14.5 37.15625 16.890625 35.375 
Q 19.28125 33.59375 26.515625 31.984375 
L 29.59375 31.296875 
Q 39.15625 29.25 43.1875 25.515625 
Q 47.21875 21.78125 47.21875 15.09375 
Q 47.21875 7.46875 41.1875 3.015625 
Q 35.15625 -1.421875 24.609375 -1.421875 
Q 20.21875 -1.421875 15.453125 -0.5625 
Q 10.6875 0.296875 5.421875 2 
L 5.421875 11.28125 
Q 10.40625 8.6875 15.234375 7.390625 
Q 20.0625 6.109375 24.8125 6.109375 
Q 31.15625 6.109375 34.5625 8.28125 
Q 37.984375 10.453125 37.984375 14.40625 
Q 37.984375 18.0625 35.515625 20.015625 
Q 33.0625 21.96875 24.703125 23.78125 
L 21.578125 24.515625 
Q 13.234375 26.265625 9.515625 29.90625 
Q 5.8125 33.546875 5.8125 39.890625 
Q 5.8125 47.609375 11.28125 51.796875 
Q 16.75 56 26.8125 56 
Q 31.78125 56 36.171875 55.265625 
Q 40.578125 54.546875 44.28125 53.078125 
z
" id="DejaVuSans-115"/>
      <path d="M 30.421875 75.984375 
L 30.421875 -13.1875 
L 9.71875 -13.1875 
L 9.71875 -6.203125 
L 21.390625 -6.203125 
L 21.390625 69 
L 9.71875 69 
L 9.71875 75.984375 
z
" id="DejaVuSans-93"/>
     </defs>
     <g transform="translate(278.041441 174.416563)scale(0.1 -0.1)">
      <use xlink:href="#DejaVuSans-84"/>
      <use x="57.958984" xlink:href="#DejaVuSans-105"/>
      <use x="85.742188" xlink:href="#DejaVuSans-109"/>
      <use x="183.154297" xlink:href="#DejaVuSans-101"/>
      <use x="244.677734" xlink:href="#DejaVuSans-32"/>
      <use x="276.464844" xlink:href="#DejaVuSans-91"/>
      <use x="315.478516" xlink:href="#DejaVuSans-109"/>
      <use x="412.890625" xlink:href="#DejaVuSans-115"/>
      <use x="464.990234" xlink:href="#DejaVuSans-93"/>
     </g>
    </g>
   </g>
   <g id="matplotlib.axis_2">
    <g id="ytick_1">
     <g id="line2d_15">
      <path clip-path="url(#p52295b71ea)" d="M 47.461777 133.18664 
L 559.019542 133.18664 
" style="fill:none;stroke:#b0b0b0;stroke-linecap:square;stroke-width:0.8;"/>
     </g>
     <g id="line2d_16">
      <defs>
       <path d="M 0 0 
L -3.5 0 
" id="m9341116359" style="stroke:#000000;stroke-width:0.8;"/>
      </defs>
      <g>
       <use style="stroke:#000000;stroke-width:0.8;" x="47.461777" xlink:href="#m9341116359" y="133.18664"/>
      </g>
     </g>
     <g id="text_9">
      <!-- $\mathdefault{−2.5}$ -->
      <defs>
       <path d="M 10.59375 35.5 
L 73.1875 35.5 
L 73.1875 27.203125 
L 10.59375 27.203125 
z
" id="DejaVuSans-8722"/>
      </defs>
      <g transform="translate(16.161777 136.985858)scale(0.1 -0.1)">
       <use transform="translate(0 0.78125)" xlink:href="#DejaVuSans-8722"/>
       <use transform="translate(83.789062 0.78125)" xlink:href="#DejaVuSans-50"/>
       <use transform="translate(147.412109 0.78125)" xlink:href="#DejaVuSans-46"/>
       <use transform="translate(179.199219 0.78125)" xlink:href="#DejaVuSans-53"/>
      </g>
     </g>
    </g>
    <g id="ytick_2">
     <g id="line2d_17">
      <path clip-path="url(#p52295b71ea)" d="M 47.461777 104.577904 
L 559.019542 104.577904 
" style="fill:none;stroke:#b0b0b0;stroke-linecap:square;stroke-width:0.8;"/>
     </g>
     <g id="line2d_18">
      <g>
       <use style="stroke:#000000;stroke-width:0.8;" x="47.461777" xlink:href="#m9341116359" y="104.577904"/>
      </g>
     </g>
     <g id="text_10">
      <!-- $\mathdefault{0.0}$ -->
      <g transform="translate(24.461777 108.377123)scale(0.1 -0.1)">
       <use transform="translate(0 0.78125)" xlink:href="#DejaVuSans-48"/>
       <use transform="translate(63.623047 0.78125)" xlink:href="#DejaVuSans-46"/>
       <use transform="translate(95.410156 0.78125)" xlink:href="#DejaVuSans-48"/>
      </g>
     </g>
    </g>
    <g id="ytick_3">
     <g id="line2d_19">
      <path clip-path="url(#p52295b71ea)" d="M 47.461777 75.969169 
L 559.019542 75.969169 
" style="fill:none;stroke:#b0b0b0;stroke-linecap:square;stroke-width:0.8;"/>
     </g>
     <g id="line2d_20">
      <g>
       <use style="stroke:#000000;stroke-width:0.8;" x="47.461777" xlink:href="#m9341116359" y="75.969169"/>
      </g>
     </g>
     <g id="text_11">
      <!-- $\mathdefault{2.5}$ -->
      <g transform="translate(24.461777 79.768387)scale(0.1 -0.1)">
       <use transform="translate(0 0.78125)" xlink:href="#DejaVuSans-50"/>
       <use transform="translate(63.623047 0.78125)" xlink:href="#DejaVuSans-46"/>
       <use transform="translate(95.410156 0.78125)" xlink:href="#DejaVuSans-53"/>
      </g>
     </g>
    </g>
    <g id="ytick_4">
     <g id="line2d_21">
      <path clip-path="url(#p52295b71ea)" d="M 47.461777 47.360433 
L 559.019542 47.360433 
" style="fill:none;stroke:#b0b0b0;stroke-linecap:square;stroke-width:0.8;"/>
     </g>
     <g id="line2d_22">
      <g>
       <use style="stroke:#000000;stroke-width:0.8;" x="47.461777" xlink:href="#m9341116359" y="47.360433"/>
      </g>
     </g>
     <g id="text_12">
      <!-- $\mathdefault{5.0}$ -->
      <g transform="translate(24.461777 51.159652)scale(0.1 -0.1)">
       <use transform="translate(0 0.78125)" xlink:href="#DejaVuSans-53"/>
       <use transform="translate(63.623047 0.78125)" xlink:href="#DejaVuSans-46"/>
       <use transform="translate(95.410156 0.78125)" xlink:href="#DejaVuSans-48"/>
      </g>
     </g>
    </g>
    <g id="text_13">
     <!-- vel. [m/s] -->
     <defs>
      <path d="M 2.984375 54.6875 
L 12.5 54.6875 
L 29.59375 8.796875 
L 46.6875 54.6875 
L 56.203125 54.6875 
L 35.6875 0 
L 23.484375 0 
z
" id="DejaVuSans-118"/>
      <path d="M 9.421875 75.984375 
L 18.40625 75.984375 
L 18.40625 0 
L 9.421875 0 
z
" id="DejaVuSans-108"/>
      <path d="M 25.390625 72.90625 
L 33.6875 72.90625 
L 8.296875 -9.28125 
L 0 -9.28125 
z
" id="DejaVuSans-47"/>
     </defs>
     <g transform="translate(10.08209 110.174063)rotate(-90)scale(0.1 -0.1)">
      <use xlink:href="#DejaVuSans-118"/>
      <use x="59.179688" xlink:href="#DejaVuSans-101"/>
      <use x="120.703125" xlink:href="#DejaVuSans-108"/>
      <use x="148.486328" xlink:href="#DejaVuSans-46"/>
      <use x="180.273438" xlink:href="#DejaVuSans-32"/>
      <use x="212.060547" xlink:href="#DejaVuSans-91"/>
      <use x="251.074219" xlink:href="#DejaVuSans-109"/>
      <use x="348.486328" xlink:href="#DejaVuSans-47"/>
      <use x="382.177734" xlink:href="#DejaVuSans-115"/>
      <use x="434.277344" xlink:href="#DejaVuSans-93"/>
     </g>
    </g>
    <g id="text_14">
     <!-- $\times\mathdefault{10^{1}}\mathdefault{}$ -->
     <defs>
      <path d="M 70.125 53.71875 
L 47.796875 31.296875 
L 70.125 8.984375 
L 64.3125 3.078125 
L 41.890625 25.484375 
L 19.484375 3.078125 
L 13.71875 8.984375 
L 35.984375 31.296875 
L 13.71875 53.71875 
L 19.484375 59.625 
L 41.890625 37.203125 
L 64.3125 59.625 
z
" id="DejaVuSans-215"/>
     </defs>
     <g transform="translate(47.461777 23.88)scale(0.1 -0.1)">
      <use transform="translate(0 0.684375)" xlink:href="#DejaVuSans-215"/>
      <use transform="translate(83.789062 0.684375)" xlink:href="#DejaVuSans-49"/>
      <use transform="translate(147.412109 0.684375)" xlink:href="#DejaVuSans-48"/>
      <use transform="translate(211.992188 38.965625)scale(0.7)" xlink:href="#DejaVuSans-49"/>
     </g>
    </g>
   </g>
   <g id="line2d_23">
    <path clip-path="url(#p52295b71ea)" d="M 70.714403 104.577904 
L 535.766917 104.577904 
L 535.766917 104.577904 
" style="fill:none;stroke:#1f77b4;stroke-linecap:square;stroke-width:2;"/>
   </g>
   <g id="line2d_24">
    <path clip-path="url(#p52295b71ea)" d="M 70.714403 103.187817 
L 72.323581 105.967991 
L 73.93276 104.577904 
L 75.541938 104.577904 
L 77.151116 105.968266 
L 78.760294 104.577904 
L 81.978651 104.577904 
L 83.587829 103.187542 
L 85.197007 104.577904 
L 86.806186 103.18863 
L 88.415364 104.578723 
L 90.024542 103.186993 
L 91.63372 104.577631 
L 93.242898 104.577904 
L 94.852077 101.797181 
L 96.461255 101.797719 
L 98.070433 99.01727 
L 104.507146 99.018094 
L 106.116324 96.237359 
L 107.725503 97.627458 
L 109.334681 96.237085 
L 110.943859 96.237634 
L 112.553037 94.847009 
L 114.162216 96.238183 
L 115.771394 99.01727 
L 117.380572 96.237359 
L 118.98975 97.627458 
L 120.598929 97.627172 
L 122.208107 96.237371 
L 123.817285 96.238458 
L 125.426463 99.01727 
L 130.253998 94.847409 
L 133.472355 97.627595 
L 135.081533 100.407632 
L 136.690711 99.017133 
L 138.299889 100.407563 
L 139.909068 104.577904 
L 141.518246 104.578061 
L 144.736602 107.358135 
L 146.345781 112.9183 
L 147.954959 117.088733 
L 149.564137 115.698486 
L 151.173315 132.379416 
L 152.782494 114.308159 
L 154.391672 108.748177 
L 156.00085 110.138435 
L 157.610028 108.748314 
L 159.219207 129.599104 
L 160.828385 110.138275 
L 162.437563 114.308536 
L 164.046741 105.968563 
L 165.65592 111.528339 
L 167.265098 119.868129 
L 168.874276 119.869159 
L 170.483454 117.088504 
L 172.092633 115.699161 
L 173.701811 117.088504 
L 175.310989 140.719091 
L 176.920167 110.138275 
L 178.529346 99.01862 
L 180.138524 80.947203 
L 181.747702 75.387954 
L 183.35688 68.435001 
L 184.966059 97.62716 
L 186.575237 62.874721 
L 189.793593 65.655376 
L 191.402772 85.118242 
L 193.01195 79.555789 
L 194.621128 75.386809 
L 196.230306 82.336443 
L 197.839485 86.507482 
L 199.448663 111.527538 
L 201.057841 112.917877 
L 202.667019 90.676462 
L 204.276198 99.018655 
L 205.885376 122.650386 
L 207.494554 108.746815 
L 209.103732 117.088962 
L 210.712911 112.917911 
L 212.322089 125.433329 
L 213.931267 117.084613 
L 215.540445 104.573539 
L 217.149624 97.62391 
L 218.758802 97.62827 
L 220.36798 100.411202 
L 221.977158 90.674288 
L 223.586337 78.171927 
L 225.195515 87.895693 
L 226.804693 53.143174 
L 228.413871 86.509771 
L 230.02305 42.026849 
L 231.632228 32.300909 
L 233.241406 39.241732 
L 234.850584 83.733351 
L 236.459763 54.542256 
L 238.068941 55.930466 
L 239.678119 62.871403 
L 241.287297 62.875751 
L 242.896476 80.948233 
L 244.505654 93.454999 
L 246.114832 75.382461 
L 247.72401 76.779368 
L 249.333189 76.775019 
L 250.942367 99.025189 
L 252.551545 86.509771 
L 254.160723 93.459371 
L 255.769902 93.459371 
L 257.37908 99.020817 
L 258.988258 82.332095 
L 260.597436 80.939536 
L 262.206615 73.989902 
L 263.815793 60.086285 
L 265.424971 53.149811 
L 267.034149 44.80327 
L 268.643327 79.555789 
L 270.252506 40.642988 
L 271.861684 64.26831 
L 273.470862 57.318676 
L 275.08004 60.099331 
L 276.689219 101.801541 
L 278.298397 97.62391 
L 279.907575 72.606155 
L 281.516753 75.386809 
L 283.125932 79.564486 
L 284.73511 79.555789 
L 286.344288 85.125909 
L 287.953466 83.737699 
L 289.562645 87.893518 
L 291.171823 89.290426 
L 292.781001 133.764651 
L 294.390179 133.764651 
L 295.999358 89.290426 
L 297.608536 118.485869 
L 299.217714 75.382461 
L 300.826892 89.281729 
L 302.436071 51.757252 
L 304.045249 86.496611 
L 305.654427 43.419408 
L 307.263605 39.24608 
L 308.872784 62.871403 
L 310.481962 54.533559 
L 312.09114 55.930466 
L 313.700318 58.706886 
L 315.309497 75.382461 
L 316.918675 73.99425 
L 318.527853 69.829734 
L 320.137031 71.217944 
L 321.74621 74.003062 
L 323.355388 89.281729 
L 324.964566 99.025189 
L 326.573744 83.729002 
L 328.182923 86.505423 
L 329.792101 87.911027 
L 331.401279 119.856571 
L 333.010457 104.577904 
L 334.619636 72.606155 
L 336.228814 96.231363 
L 337.837992 79.555789 
L 339.44717 48.972135 
L 341.056349 51.748441 
L 342.665527 46.187017 
L 344.274705 50.369042 
L 345.883883 71.217944 
L 347.493062 85.117212 
L 349.10224 105.974811 
L 350.711418 68.432827 
L 352.320596 71.217944 
L 353.929775 72.588646 
L 355.538953 76.770671 
L 357.148131 96.231363 
L 358.757309 89.281729 
L 360.366488 83.711493 
L 361.975666 119.87408 
L 363.584844 89.290426 
L 365.194022 100.395902 
L 366.803201 108.759906 
L 368.412379 71.209247 
L 370.021557 71.226641 
L 371.630735 64.277007 
L 373.239914 83.729002 
L 374.849092 48.972135 
L 376.45827 58.706886 
L 378.067448 55.921769 
L 379.676627 80.952696 
L 381.285805 55.930466 
L 382.894983 57.327373 
L 384.504161 60.094982 
L 386.11334 58.706886 
L 387.722518 71.209247 
L 389.331696 64.26831 
L 390.940874 61.49189 
L 392.550053 64.259613 
L 394.159231 65.65652 
L 395.768409 96.2139 
L 397.377587 90.669939 
L 398.986766 72.614852 
L 400.595944 72.63236 
L 402.205122 75.391272 
L 403.8143 82.332095 
L 405.423479 93.454999 
L 407.032657 105.96608 
L 408.641835 92.075543 
L 410.251013 80.97009 
L 411.860192 80.935187 
L 413.46937 101.801541 
L 415.078548 72.623549 
L 416.687726 96.231363 
L 418.296905 71.209133 
L 419.906083 65.673915 
L 423.124439 57.309865 
L 424.733618 76.779368 
L 426.342796 51.774647 
L 427.951974 53.136651 
L 429.561152 51.757252 
L 431.170331 57.309979 
L 432.779509 65.673915 
L 434.388687 82.332095 
L 435.997865 64.259613 
L 437.607044 83.746511 
L 439.216222 82.332095 
L 440.8254 72.623549 
L 442.434578 83.711493 
L 444.043757 83.711493 
L 445.652935 100.404633 
L 447.262113 86.505308 
L 448.871291 85.108515 
L 450.480469 89.281729 
L 452.089648 86.505423 
L 453.698826 86.487914 
L 455.308004 83.746511 
L 456.917182 92.075543 
L 458.526361 92.058035 
L 460.135539 87.90233 
L 461.744717 89.281729 
L 463.353895 92.075543 
L 466.572252 94.816993 
L 468.18143 93.489925 
L 469.790608 87.90233 
L 471.399787 87.884821 
L 473.008965 89.299237 
L 474.618143 93.454999 
L 476.227321 87.884821 
L 479.445678 90.661128 
L 481.054856 96.248826 
L 482.664034 94.834455 
L 484.273213 96.248826 
L 485.882391 96.2139 
L 487.491569 93.437548 
L 489.100747 97.62827 
L 493.928282 97.62827 
L 495.53746 96.266277 
L 497.146639 99.007726 
L 498.755817 96.248826 
L 500.364995 99.025189 
L 501.974173 97.645733 
L 503.583352 100.387171 
L 505.19253 100.404633 
L 506.801708 99.025189 
L 508.410886 101.784078 
L 511.629243 99.007726 
L 513.238421 103.19846 
L 514.847599 100.387171 
L 518.065956 100.404633 
L 519.675134 101.801541 
L 521.284312 100.387171 
L 522.893491 101.801541 
L 524.502669 104.595366 
L 526.111847 104.577904 
L 527.721025 103.180997 
L 532.54856 107.354268 
L 534.157738 104.577904 
L 535.766917 105.957349 
L 535.766917 105.957349 
" style="fill:none;stroke:#ff7f0e;stroke-linecap:square;stroke-width:2;"/>
   </g>
   <g id="patch_3">
    <path d="M 47.461777 146.14 
L 47.461777 26.88 
" style="fill:none;stroke:#000000;stroke-linecap:square;stroke-linejoin:miter;stroke-width:0.8;"/>
   </g>
   <g id="patch_4">
    <path d="M 559.019542 146.14 
L 559.019542 26.88 
" style="fill:none;stroke:#000000;stroke-linecap:square;stroke-linejoin:miter;stroke-width:0.8;"/>
   </g>
   <g id="patch_5">
    <path d="M 47.461777 146.14 
L 559.019542 146.14 
" style="fill:none;stroke:#000000;stroke-linecap:square;stroke-linejoin:miter;stroke-width:0.8;"/>
   </g>
   <g id="patch_6">
    <path d="M 47.461777 26.88 
L 559.019542 26.88 
" style="fill:none;stroke:#000000;stroke-linecap:square;stroke-linejoin:miter;stroke-width:0.8;"/>
   </g>
   <g id="text_15">
    <!-- Translational Velocity -->
    <defs>
     <path d="M 41.109375 46.296875 
Q 39.59375 47.171875 37.8125 47.578125 
Q 36.03125 48 33.890625 48 
Q 26.265625 48 22.1875 43.046875 
Q 18.109375 38.09375 18.109375 28.8125 
L 18.109375 0 
L 9.078125 0 
L 9.078125 54.6875 
L 18.109375 54.6875 
L 18.109375 46.1875 
Q 20.953125 51.171875 25.484375 53.578125 
Q 30.03125 56 36.53125 56 
Q 37.453125 56 38.578125 55.875 
Q 39.703125 55.765625 41.0625 55.515625 
z
" id="DejaVuSans-114"/>
     <path d="M 34.28125 27.484375 
Q 23.390625 27.484375 19.1875 25 
Q 14.984375 22.515625 14.984375 16.5 
Q 14.984375 11.71875 18.140625 8.90625 
Q 21.296875 6.109375 26.703125 6.109375 
Q 34.1875 6.109375 38.703125 11.40625 
Q 43.21875 16.703125 43.21875 25.484375 
L 43.21875 27.484375 
z
M 52.203125 31.203125 
L 52.203125 0 
L 43.21875 0 
L 43.21875 8.296875 
Q 40.140625 3.328125 35.546875 0.953125 
Q 30.953125 -1.421875 24.3125 -1.421875 
Q 15.921875 -1.421875 10.953125 3.296875 
Q 6 8.015625 6 15.921875 
Q 6 25.140625 12.171875 29.828125 
Q 18.359375 34.515625 30.609375 34.515625 
L 43.21875 34.515625 
L 43.21875 35.40625 
Q 43.21875 41.609375 39.140625 45 
Q 35.0625 48.390625 27.6875 48.390625 
Q 23 48.390625 18.546875 47.265625 
Q 14.109375 46.140625 10.015625 43.890625 
L 10.015625 52.203125 
Q 14.9375 54.109375 19.578125 55.046875 
Q 24.21875 56 28.609375 56 
Q 40.484375 56 46.34375 49.84375 
Q 52.203125 43.703125 52.203125 31.203125 
z
" id="DejaVuSans-97"/>
     <path d="M 54.890625 33.015625 
L 54.890625 0 
L 45.90625 0 
L 45.90625 32.71875 
Q 45.90625 40.484375 42.875 44.328125 
Q 39.84375 48.1875 33.796875 48.1875 
Q 26.515625 48.1875 22.3125 43.546875 
Q 18.109375 38.921875 18.109375 30.90625 
L 18.109375 0 
L 9.078125 0 
L 9.078125 54.6875 
L 18.109375 54.6875 
L 18.109375 46.1875 
Q 21.34375 51.125 25.703125 53.5625 
Q 30.078125 56 35.796875 56 
Q 45.21875 56 50.046875 50.171875 
Q 54.890625 44.34375 54.890625 33.015625 
z
" id="DejaVuSans-110"/>
     <path d="M 18.3125 70.21875 
L 18.3125 54.6875 
L 36.8125 54.6875 
L 36.8125 47.703125 
L 18.3125 47.703125 
L 18.3125 18.015625 
Q 18.3125 11.328125 20.140625 9.421875 
Q 21.96875 7.515625 27.59375 7.515625 
L 36.8125 7.515625 
L 36.8125 0 
L 27.59375 0 
Q 17.1875 0 13.234375 3.875 
Q 9.28125 7.765625 9.28125 18.015625 
L 9.28125 47.703125 
L 2.6875 47.703125 
L 2.6875 54.6875 
L 9.28125 54.6875 
L 9.28125 70.21875 
z
" id="DejaVuSans-116"/>
     <path d="M 30.609375 48.390625 
Q 23.390625 48.390625 19.1875 42.75 
Q 14.984375 37.109375 14.984375 27.296875 
Q 14.984375 17.484375 19.15625 11.84375 
Q 23.34375 6.203125 30.609375 6.203125 
Q 37.796875 6.203125 41.984375 11.859375 
Q 46.1875 17.53125 46.1875 27.296875 
Q 46.1875 37.015625 41.984375 42.703125 
Q 37.796875 48.390625 30.609375 48.390625 
z
M 30.609375 56 
Q 42.328125 56 49.015625 48.375 
Q 55.71875 40.765625 55.71875 27.296875 
Q 55.71875 13.875 49.015625 6.21875 
Q 42.328125 -1.421875 30.609375 -1.421875 
Q 18.84375 -1.421875 12.171875 6.21875 
Q 5.515625 13.875 5.515625 27.296875 
Q 5.515625 40.765625 12.171875 48.375 
Q 18.84375 56 30.609375 56 
z
" id="DejaVuSans-111"/>
     <path d="M 28.609375 0 
L 0.78125 72.90625 
L 11.078125 72.90625 
L 34.1875 11.53125 
L 57.328125 72.90625 
L 67.578125 72.90625 
L 39.796875 0 
z
" id="DejaVuSans-86"/>
     <path d="M 48.78125 52.59375 
L 48.78125 44.1875 
Q 44.96875 46.296875 41.140625 47.34375 
Q 37.3125 48.390625 33.40625 48.390625 
Q 24.65625 48.390625 19.8125 42.84375 
Q 14.984375 37.3125 14.984375 27.296875 
Q 14.984375 17.28125 19.8125 11.734375 
Q 24.65625 6.203125 33.40625 6.203125 
Q 37.3125 6.203125 41.140625 7.25 
Q 44.96875 8.296875 48.78125 10.40625 
L 48.78125 2.09375 
Q 45.015625 0.34375 40.984375 -0.53125 
Q 36.96875 -1.421875 32.421875 -1.421875 
Q 20.0625 -1.421875 12.78125 6.34375 
Q 5.515625 14.109375 5.515625 27.296875 
Q 5.515625 40.671875 12.859375 48.328125 
Q 20.21875 56 33.015625 56 
Q 37.15625 56 41.109375 55.140625 
Q 45.0625 54.296875 48.78125 52.59375 
z
" id="DejaVuSans-99"/>
     <path d="M 32.171875 -5.078125 
Q 28.375 -14.84375 24.75 -17.8125 
Q 21.140625 -20.796875 15.09375 -20.796875 
L 7.90625 -20.796875 
L 7.90625 -13.28125 
L 13.1875 -13.28125 
Q 16.890625 -13.28125 18.9375 -11.515625 
Q 21 -9.765625 23.484375 -3.21875 
L 25.09375 0.875 
L 2.984375 54.6875 
L 12.5 54.6875 
L 29.59375 11.921875 
L 46.6875 54.6875 
L 56.203125 54.6875 
z
" id="DejaVuSans-121"/>
    </defs>
    <g transform="translate(239.763472 20.88)scale(0.12 -0.12)">
     <use xlink:href="#DejaVuSans-84"/>
     <use x="46.333984" xlink:href="#DejaVuSans-114"/>
     <use x="87.447266" xlink:href="#DejaVuSans-97"/>
     <use x="148.726562" xlink:href="#DejaVuSans-110"/>
     <use x="212.105469" xlink:href="#DejaVuSans-115"/>
     <use x="264.205078" xlink:href="#DejaVuSans-108"/>
     <use x="291.988281" xlink:href="#DejaVuSans-97"/>
     <use x="353.267578" xlink:href="#DejaVuSans-116"/>
     <use x="392.476562" xlink:href="#DejaVuSans-105"/>
     <use x="420.259766" xlink:href="#DejaVuSans-111"/>
     <use x="481.441406" xlink:href="#DejaVuSans-110"/>
     <use x="544.820312" xlink:href="#DejaVuSans-97"/>
     <use x="606.099609" xlink:href="#DejaVuSans-108"/>
     <use x="633.882812" xlink:href="#DejaVuSans-32"/>
     <use x="665.669922" xlink:href="#DejaVuSans-86"/>
     <use x="726.328125" xlink:href="#DejaVuSans-101"/>
     <use x="787.851562" xlink:href="#DejaVuSans-108"/>
     <use x="815.634766" xlink:href="#DejaVuSans-111"/>
     <use x="876.816406" xlink:href="#DejaVuSans-99"/>
     <use x="931.796875" xlink:href="#DejaVuSans-105"/>
     <use x="959.580078" xlink:href="#DejaVuSans-116"/>
     <use x="998.789062" xlink:href="#DejaVuSans-121"/>
    </g>
   </g>
   <g id="legend_1">
    <g id="patch_7">
     <path d="M 469.502355 64.23625 
L 552.019542 64.23625 
Q 554.019542 64.23625 554.019542 62.23625 
L 554.019542 33.88 
Q 554.019542 31.88 552.019542 31.88 
L 469.502355 31.88 
Q 467.502355 31.88 467.502355 33.88 
L 467.502355 62.23625 
Q 467.502355 64.23625 469.502355 64.23625 
z
" style="fill:#ffffff;opacity:0.8;stroke:#cccccc;stroke-linejoin:miter;"/>
    </g>
    <g id="line2d_25">
     <path d="M 471.502355 39.978438 
L 491.502355 39.978438 
" style="fill:none;stroke:#1f77b4;stroke-linecap:square;stroke-width:2;"/>
    </g>
    <g id="line2d_26"/>
    <g id="text_16">
     <!-- Reference -->
     <defs>
      <path d="M 44.390625 34.1875 
Q 47.5625 33.109375 50.5625 29.59375 
Q 53.5625 26.078125 56.59375 19.921875 
L 66.609375 0 
L 56 0 
L 46.6875 18.703125 
Q 43.0625 26.03125 39.671875 28.421875 
Q 36.28125 30.8125 30.421875 30.8125 
L 19.671875 30.8125 
L 19.671875 0 
L 9.8125 0 
L 9.8125 72.90625 
L 32.078125 72.90625 
Q 44.578125 72.90625 50.734375 67.671875 
Q 56.890625 62.453125 56.890625 51.90625 
Q 56.890625 45.015625 53.6875 40.46875 
Q 50.484375 35.9375 44.390625 34.1875 
z
M 19.671875 64.796875 
L 19.671875 38.921875 
L 32.078125 38.921875 
Q 39.203125 38.921875 42.84375 42.21875 
Q 46.484375 45.515625 46.484375 51.90625 
Q 46.484375 58.296875 42.84375 61.546875 
Q 39.203125 64.796875 32.078125 64.796875 
z
" id="DejaVuSans-82"/>
      <path d="M 37.109375 75.984375 
L 37.109375 68.5 
L 28.515625 68.5 
Q 23.6875 68.5 21.796875 66.546875 
Q 19.921875 64.59375 19.921875 59.515625 
L 19.921875 54.6875 
L 34.71875 54.6875 
L 34.71875 47.703125 
L 19.921875 47.703125 
L 19.921875 0 
L 10.890625 0 
L 10.890625 47.703125 
L 2.296875 47.703125 
L 2.296875 54.6875 
L 10.890625 54.6875 
L 10.890625 58.5 
Q 10.890625 67.625 15.140625 71.796875 
Q 19.390625 75.984375 28.609375 75.984375 
z
" id="DejaVuSans-102"/>
     </defs>
     <g transform="translate(499.502355 43.478438)scale(0.1 -0.1)">
      <use xlink:href="#DejaVuSans-82"/>
      <use x="64.982422" xlink:href="#DejaVuSans-101"/>
      <use x="126.505859" xlink:href="#DejaVuSans-102"/>
      <use x="161.710938" xlink:href="#DejaVuSans-101"/>
      <use x="223.234375" xlink:href="#DejaVuSans-114"/>
      <use x="262.097656" xlink:href="#DejaVuSans-101"/>
      <use x="323.621094" xlink:href="#DejaVuSans-110"/>
      <use x="387" xlink:href="#DejaVuSans-99"/>
      <use x="441.980469" xlink:href="#DejaVuSans-101"/>
     </g>
    </g>
    <g id="line2d_27">
     <path d="M 471.502355 54.656563 
L 491.502355 54.656563 
" style="fill:none;stroke:#ff7f0e;stroke-linecap:square;stroke-width:2;"/>
    </g>
    <g id="line2d_28"/>
    <g id="text_17">
     <!-- Estimated -->
     <defs>
      <path d="M 9.8125 72.90625 
L 55.90625 72.90625 
L 55.90625 64.59375 
L 19.671875 64.59375 
L 19.671875 43.015625 
L 54.390625 43.015625 
L 54.390625 34.71875 
L 19.671875 34.71875 
L 19.671875 8.296875 
L 56.78125 8.296875 
L 56.78125 0 
L 9.8125 0 
z
" id="DejaVuSans-69"/>
      <path d="M 45.40625 46.390625 
L 45.40625 75.984375 
L 54.390625 75.984375 
L 54.390625 0 
L 45.40625 0 
L 45.40625 8.203125 
Q 42.578125 3.328125 38.25 0.953125 
Q 33.9375 -1.421875 27.875 -1.421875 
Q 17.96875 -1.421875 11.734375 6.484375 
Q 5.515625 14.40625 5.515625 27.296875 
Q 5.515625 40.1875 11.734375 48.09375 
Q 17.96875 56 27.875 56 
Q 33.9375 56 38.25 53.625 
Q 42.578125 51.265625 45.40625 46.390625 
z
M 14.796875 27.296875 
Q 14.796875 17.390625 18.875 11.75 
Q 22.953125 6.109375 30.078125 6.109375 
Q 37.203125 6.109375 41.296875 11.75 
Q 45.40625 17.390625 45.40625 27.296875 
Q 45.40625 37.203125 41.296875 42.84375 
Q 37.203125 48.484375 30.078125 48.484375 
Q 22.953125 48.484375 18.875 42.84375 
Q 14.796875 37.203125 14.796875 27.296875 
z
" id="DejaVuSans-100"/>
     </defs>
     <g transform="translate(499.502355 58.156563)scale(0.1 -0.1)">
      <use xlink:href="#DejaVuSans-69"/>
      <use x="63.183594" xlink:href="#DejaVuSans-115"/>
      <use x="115.283203" xlink:href="#DejaVuSans-116"/>
      <use x="154.492188" xlink:href="#DejaVuSans-105"/>
      <use x="182.275391" xlink:href="#DejaVuSans-109"/>
      <use x="279.6875" xlink:href="#DejaVuSans-97"/>
      <use x="340.966797" xlink:href="#DejaVuSans-116"/>
      <use x="380.175781" xlink:href="#DejaVuSans-101"/>
      <use x="441.699219" xlink:href="#DejaVuSans-100"/>
     </g>
    </g>
   </g>
  </g>
  <g id="axes_2">
   <g id="patch_8">
    <path d="M 47.461777 323.44 
L 559.019542 323.44 
L 559.019542 204.18 
L 47.461777 204.18 
z
" style="fill:#ffffff;"/>
   </g>
   <g id="matplotlib.axis_3">
    <g id="xtick_8">
     <g id="line2d_29">
      <path clip-path="url(#p540b1be8fd)" d="M 70.714403 323.44 
L 70.714403 204.18 
" style="fill:none;stroke:#b0b0b0;stroke-linecap:square;stroke-width:0.8;"/>
     </g>
     <g id="line2d_30">
      <g>
       <use style="stroke:#000000;stroke-width:0.8;" x="70.714403" xlink:href="#m3f89ed190a" y="323.44"/>
      </g>
     </g>
     <g id="text_18">
      <!-- 0.00 -->
      <g transform="translate(59.581591 338.038438)scale(0.1 -0.1)">
       <use xlink:href="#DejaVuSans-48"/>
       <use x="63.623047" xlink:href="#DejaVuSans-46"/>
       <use x="95.410156" xlink:href="#DejaVuSans-48"/>
       <use x="159.033203" xlink:href="#DejaVuSans-48"/>
      </g>
     </g>
    </g>
    <g id="xtick_9">
     <g id="line2d_31">
      <path clip-path="url(#p540b1be8fd)" d="M 151.173315 323.44 
L 151.173315 204.18 
" style="fill:none;stroke:#b0b0b0;stroke-linecap:square;stroke-width:0.8;"/>
     </g>
     <g id="line2d_32">
      <g>
       <use style="stroke:#000000;stroke-width:0.8;" x="151.173315" xlink:href="#m3f89ed190a" y="323.44"/>
      </g>
     </g>
     <g id="text_19">
      <!-- 0.05 -->
      <g transform="translate(140.040503 338.038438)scale(0.1 -0.1)">
       <use xlink:href="#DejaVuSans-48"/>
       <use x="63.623047" xlink:href="#DejaVuSans-46"/>
       <use x="95.410156" xlink:href="#DejaVuSans-48"/>
       <use x="159.033203" xlink:href="#DejaVuSans-53"/>
      </g>
     </g>
    </g>
    <g id="xtick_10">
     <g id="line2d_33">
      <path clip-path="url(#p540b1be8fd)" d="M 231.632228 323.44 
L 231.632228 204.18 
" style="fill:none;stroke:#b0b0b0;stroke-linecap:square;stroke-width:0.8;"/>
     </g>
     <g id="line2d_34">
      <g>
       <use style="stroke:#000000;stroke-width:0.8;" x="231.632228" xlink:href="#m3f89ed190a" y="323.44"/>
      </g>
     </g>
     <g id="text_20">
      <!-- 0.10 -->
      <g transform="translate(220.499415 338.038438)scale(0.1 -0.1)">
       <use xlink:href="#DejaVuSans-48"/>
       <use x="63.623047" xlink:href="#DejaVuSans-46"/>
       <use x="95.410156" xlink:href="#DejaVuSans-49"/>
       <use x="159.033203" xlink:href="#DejaVuSans-48"/>
      </g>
     </g>
    </g>
    <g id="xtick_11">
     <g id="line2d_35">
      <path clip-path="url(#p540b1be8fd)" d="M 312.09114 323.44 
L 312.09114 204.18 
" style="fill:none;stroke:#b0b0b0;stroke-linecap:square;stroke-width:0.8;"/>
     </g>
     <g id="line2d_36">
      <g>
       <use style="stroke:#000000;stroke-width:0.8;" x="312.09114" xlink:href="#m3f89ed190a" y="323.44"/>
      </g>
     </g>
     <g id="text_21">
      <!-- 0.15 -->
      <g transform="translate(300.958328 338.038438)scale(0.1 -0.1)">
       <use xlink:href="#DejaVuSans-48"/>
       <use x="63.623047" xlink:href="#DejaVuSans-46"/>
       <use x="95.410156" xlink:href="#DejaVuSans-49"/>
       <use x="159.033203" xlink:href="#DejaVuSans-53"/>
      </g>
     </g>
    </g>
    <g id="xtick_12">
     <g id="line2d_37">
      <path clip-path="url(#p540b1be8fd)" d="M 392.550053 323.44 
L 392.550053 204.18 
" style="fill:none;stroke:#b0b0b0;stroke-linecap:square;stroke-width:0.8;"/>
     </g>
     <g id="line2d_38">
      <g>
       <use style="stroke:#000000;stroke-width:0.8;" x="392.550053" xlink:href="#m3f89ed190a" y="323.44"/>
      </g>
     </g>
     <g id="text_22">
      <!-- 0.20 -->
      <g transform="translate(381.41724 338.038438)scale(0.1 -0.1)">
       <use xlink:href="#DejaVuSans-48"/>
       <use x="63.623047" xlink:href="#DejaVuSans-46"/>
       <use x="95.410156" xlink:href="#DejaVuSans-50"/>
       <use x="159.033203" xlink:href="#DejaVuSans-48"/>
      </g>
     </g>
    </g>
    <g id="xtick_13">
     <g id="line2d_39">
      <path clip-path="url(#p540b1be8fd)" d="M 473.008965 323.44 
L 473.008965 204.18 
" style="fill:none;stroke:#b0b0b0;stroke-linecap:square;stroke-width:0.8;"/>
     </g>
     <g id="line2d_40">
      <g>
       <use style="stroke:#000000;stroke-width:0.8;" x="473.008965" xlink:href="#m3f89ed190a" y="323.44"/>
      </g>
     </g>
     <g id="text_23">
      <!-- 0.25 -->
      <g transform="translate(461.876152 338.038438)scale(0.1 -0.1)">
       <use xlink:href="#DejaVuSans-48"/>
       <use x="63.623047" xlink:href="#DejaVuSans-46"/>
       <use x="95.410156" xlink:href="#DejaVuSans-50"/>
       <use x="159.033203" xlink:href="#DejaVuSans-53"/>
      </g>
     </g>
    </g>
    <g id="xtick_14">
     <g id="line2d_41">
      <path clip-path="url(#p540b1be8fd)" d="M 553.467877 323.44 
L 553.467877 204.18 
" style="fill:none;stroke:#b0b0b0;stroke-linecap:square;stroke-width:0.8;"/>
     </g>
     <g id="line2d_42">
      <g>
       <use style="stroke:#000000;stroke-width:0.8;" x="553.467877" xlink:href="#m3f89ed190a" y="323.44"/>
      </g>
     </g>
     <g id="text_24">
      <!-- 0.30 -->
      <g transform="translate(542.335065 338.038438)scale(0.1 -0.1)">
       <use xlink:href="#DejaVuSans-48"/>
       <use x="63.623047" xlink:href="#DejaVuSans-46"/>
       <use x="95.410156" xlink:href="#DejaVuSans-51"/>
       <use x="159.033203" xlink:href="#DejaVuSans-48"/>
      </g>
     </g>
    </g>
    <g id="text_25">
     <!-- Time [ms] -->
     <g transform="translate(278.041441 351.716563)scale(0.1 -0.1)">
      <use xlink:href="#DejaVuSans-84"/>
      <use x="57.958984" xlink:href="#DejaVuSans-105"/>
      <use x="85.742188" xlink:href="#DejaVuSans-109"/>
      <use x="183.154297" xlink:href="#DejaVuSans-101"/>
      <use x="244.677734" xlink:href="#DejaVuSans-32"/>
      <use x="276.464844" xlink:href="#DejaVuSans-91"/>
      <use x="315.478516" xlink:href="#DejaVuSans-109"/>
      <use x="412.890625" xlink:href="#DejaVuSans-115"/>
      <use x="464.990234" xlink:href="#DejaVuSans-93"/>
     </g>
    </g>
   </g>
   <g id="matplotlib.axis_4">
    <g id="ytick_5">
     <g id="line2d_43">
      <path clip-path="url(#p540b1be8fd)" d="M 47.461777 318.019091 
L 559.019542 318.019091 
" style="fill:none;stroke:#b0b0b0;stroke-linecap:square;stroke-width:0.8;"/>
     </g>
     <g id="line2d_44">
      <g>
       <use style="stroke:#000000;stroke-width:0.8;" x="47.461777" xlink:href="#m9341116359" y="318.019091"/>
      </g>
     </g>
     <g id="text_26">
      <!-- $\mathdefault{−5.0}$ -->
      <g transform="translate(16.161777 321.81831)scale(0.1 -0.1)">
       <use transform="translate(0 0.78125)" xlink:href="#DejaVuSans-8722"/>
       <use transform="translate(83.789062 0.78125)" xlink:href="#DejaVuSans-53"/>
       <use transform="translate(147.412109 0.78125)" xlink:href="#DejaVuSans-46"/>
       <use transform="translate(179.199219 0.78125)" xlink:href="#DejaVuSans-48"/>
      </g>
     </g>
    </g>
    <g id="ytick_6">
     <g id="line2d_45">
      <path clip-path="url(#p540b1be8fd)" d="M 47.461777 290.914545 
L 559.019542 290.914545 
" style="fill:none;stroke:#b0b0b0;stroke-linecap:square;stroke-width:0.8;"/>
     </g>
     <g id="line2d_46">
      <g>
       <use style="stroke:#000000;stroke-width:0.8;" x="47.461777" xlink:href="#m9341116359" y="290.914545"/>
      </g>
     </g>
     <g id="text_27">
      <!-- $\mathdefault{−2.5}$ -->
      <g transform="translate(16.161777 294.713764)scale(0.1 -0.1)">
       <use transform="translate(0 0.78125)" xlink:href="#DejaVuSans-8722"/>
       <use transform="translate(83.789062 0.78125)" xlink:href="#DejaVuSans-50"/>
       <use transform="translate(147.412109 0.78125)" xlink:href="#DejaVuSans-46"/>
       <use transform="translate(179.199219 0.78125)" xlink:href="#DejaVuSans-53"/>
      </g>
     </g>
    </g>
    <g id="ytick_7">
     <g id="line2d_47">
      <path clip-path="url(#p540b1be8fd)" d="M 47.461777 263.81 
L 559.019542 263.81 
" style="fill:none;stroke:#b0b0b0;stroke-linecap:square;stroke-width:0.8;"/>
     </g>
     <g id="line2d_48">
      <g>
       <use style="stroke:#000000;stroke-width:0.8;" x="47.461777" xlink:href="#m9341116359" y="263.81"/>
      </g>
     </g>
     <g id="text_28">
      <!-- $\mathdefault{0.0}$ -->
      <g transform="translate(24.461777 267.609219)scale(0.1 -0.1)">
       <use transform="translate(0 0.78125)" xlink:href="#DejaVuSans-48"/>
       <use transform="translate(63.623047 0.78125)" xlink:href="#DejaVuSans-46"/>
       <use transform="translate(95.410156 0.78125)" xlink:href="#DejaVuSans-48"/>
      </g>
     </g>
    </g>
    <g id="ytick_8">
     <g id="line2d_49">
      <path clip-path="url(#p540b1be8fd)" d="M 47.461777 236.705455 
L 559.019542 236.705455 
" style="fill:none;stroke:#b0b0b0;stroke-linecap:square;stroke-width:0.8;"/>
     </g>
     <g id="line2d_50">
      <g>
       <use style="stroke:#000000;stroke-width:0.8;" x="47.461777" xlink:href="#m9341116359" y="236.705455"/>
      </g>
     </g>
     <g id="text_29">
      <!-- $\mathdefault{2.5}$ -->
      <g transform="translate(24.461777 240.504673)scale(0.1 -0.1)">
       <use transform="translate(0 0.78125)" xlink:href="#DejaVuSans-50"/>
       <use transform="translate(63.623047 0.78125)" xlink:href="#DejaVuSans-46"/>
       <use transform="translate(95.410156 0.78125)" xlink:href="#DejaVuSans-53"/>
      </g>
     </g>
    </g>
    <g id="ytick_9">
     <g id="line2d_51">
      <path clip-path="url(#p540b1be8fd)" d="M 47.461777 209.600909 
L 559.019542 209.600909 
" style="fill:none;stroke:#b0b0b0;stroke-linecap:square;stroke-width:0.8;"/>
     </g>
     <g id="line2d_52">
      <g>
       <use style="stroke:#000000;stroke-width:0.8;" x="47.461777" xlink:href="#m9341116359" y="209.600909"/>
      </g>
     </g>
     <g id="text_30">
      <!-- $\mathdefault{5.0}$ -->
      <g transform="translate(24.461777 213.400128)scale(0.1 -0.1)">
       <use transform="translate(0 0.78125)" xlink:href="#DejaVuSans-53"/>
       <use transform="translate(63.623047 0.78125)" xlink:href="#DejaVuSans-46"/>
       <use transform="translate(95.410156 0.78125)" xlink:href="#DejaVuSans-48"/>
      </g>
     </g>
    </g>
    <g id="text_31">
     <!-- pwm input -->
     <defs>
      <path d="M 18.109375 8.203125 
L 18.109375 -20.796875 
L 9.078125 -20.796875 
L 9.078125 54.6875 
L 18.109375 54.6875 
L 18.109375 46.390625 
Q 20.953125 51.265625 25.265625 53.625 
Q 29.59375 56 35.59375 56 
Q 45.5625 56 51.78125 48.09375 
Q 58.015625 40.1875 58.015625 27.296875 
Q 58.015625 14.40625 51.78125 6.484375 
Q 45.5625 -1.421875 35.59375 -1.421875 
Q 29.59375 -1.421875 25.265625 0.953125 
Q 20.953125 3.328125 18.109375 8.203125 
z
M 48.6875 27.296875 
Q 48.6875 37.203125 44.609375 42.84375 
Q 40.53125 48.484375 33.40625 48.484375 
Q 26.265625 48.484375 22.1875 42.84375 
Q 18.109375 37.203125 18.109375 27.296875 
Q 18.109375 17.390625 22.1875 11.75 
Q 26.265625 6.109375 33.40625 6.109375 
Q 40.53125 6.109375 44.609375 11.75 
Q 48.6875 17.390625 48.6875 27.296875 
z
" id="DejaVuSans-112"/>
      <path d="M 4.203125 54.6875 
L 13.1875 54.6875 
L 24.421875 12.015625 
L 35.59375 54.6875 
L 46.1875 54.6875 
L 57.421875 12.015625 
L 68.609375 54.6875 
L 77.59375 54.6875 
L 63.28125 0 
L 52.6875 0 
L 40.921875 44.828125 
L 29.109375 0 
L 18.5 0 
z
" id="DejaVuSans-119"/>
      <path d="M 8.5 21.578125 
L 8.5 54.6875 
L 17.484375 54.6875 
L 17.484375 21.921875 
Q 17.484375 14.15625 20.5 10.265625 
Q 23.53125 6.390625 29.59375 6.390625 
Q 36.859375 6.390625 41.078125 11.03125 
Q 45.3125 15.671875 45.3125 23.6875 
L 45.3125 54.6875 
L 54.296875 54.6875 
L 54.296875 0 
L 45.3125 0 
L 45.3125 8.40625 
Q 42.046875 3.421875 37.71875 1 
Q 33.40625 -1.421875 27.6875 -1.421875 
Q 18.265625 -1.421875 13.375 4.4375 
Q 8.5 10.296875 8.5 21.578125 
z
M 31.109375 56 
z
" id="DejaVuSans-117"/>
     </defs>
     <g transform="translate(10.08209 290.393594)rotate(-90)scale(0.1 -0.1)">
      <use xlink:href="#DejaVuSans-112"/>
      <use x="63.476562" xlink:href="#DejaVuSans-119"/>
      <use x="145.263672" xlink:href="#DejaVuSans-109"/>
      <use x="242.675781" xlink:href="#DejaVuSans-32"/>
      <use x="274.462891" xlink:href="#DejaVuSans-105"/>
      <use x="302.246094" xlink:href="#DejaVuSans-110"/>
      <use x="365.625" xlink:href="#DejaVuSans-112"/>
      <use x="429.101562" xlink:href="#DejaVuSans-117"/>
      <use x="492.480469" xlink:href="#DejaVuSans-116"/>
     </g>
    </g>
    <g id="text_32">
     <!-- $\times\mathdefault{10^{−2}}\mathdefault{}$ -->
     <g transform="translate(47.461777 201.18)scale(0.1 -0.1)">
      <use transform="translate(0 0.765625)" xlink:href="#DejaVuSans-215"/>
      <use transform="translate(83.789062 0.765625)" xlink:href="#DejaVuSans-49"/>
      <use transform="translate(147.412109 0.765625)" xlink:href="#DejaVuSans-48"/>
      <use transform="translate(211.992188 39.046875)scale(0.7)" xlink:href="#DejaVuSans-8722"/>
      <use transform="translate(270.644531 39.046875)scale(0.7)" xlink:href="#DejaVuSans-50"/>
     </g>
    </g>
   </g>
   <g id="line2d_53">
    <path clip-path="url(#p540b1be8fd)" d="M 70.714403 263.81 
L 535.766917 263.81 
L 535.766917 263.81 
" style="fill:none;stroke:#1f77b4;stroke-linecap:square;stroke-width:2;"/>
   </g>
   <g id="line2d_54">
    <path clip-path="url(#p540b1be8fd)" d="M 70.714403 263.81 
L 535.766917 263.81 
L 535.766917 263.81 
" style="fill:none;stroke:#ff7f0e;stroke-linecap:square;stroke-width:2;"/>
   </g>
   <g id="line2d_55">
    <path clip-path="url(#p540b1be8fd)" d="M 70.714403 263.81 
L 535.766917 263.81 
L 535.766917 263.81 
" style="fill:none;stroke:#2ca02c;stroke-linecap:square;stroke-width:2;"/>
   </g>
   <g id="line2d_56">
    <path clip-path="url(#p540b1be8fd)" d="M 70.714403 263.81 
L 535.766917 263.81 
L 535.766917 263.81 
" style="fill:none;stroke:#d62728;stroke-linecap:square;stroke-width:2;"/>
   </g>
   <g id="line2d_57">
    <path clip-path="url(#p540b1be8fd)" d="M 70.714403 263.81 
L 535.766917 263.81 
L 535.766917 263.81 
" style="fill:none;stroke:#9467bd;stroke-linecap:square;stroke-width:2;"/>
   </g>
   <g id="patch_9">
    <path d="M 47.461777 323.44 
L 47.461777 204.18 
" style="fill:none;stroke:#000000;stroke-linecap:square;stroke-linejoin:miter;stroke-width:0.8;"/>
   </g>
   <g id="patch_10">
    <path d="M 559.019542 323.44 
L 559.019542 204.18 
" style="fill:none;stroke:#000000;stroke-linecap:square;stroke-linejoin:miter;stroke-width:0.8;"/>
   </g>
   <g id="patch_11">
    <path d="M 47.461777 323.44 
L 559.019542 323.44 
" style="fill:none;stroke:#000000;stroke-linecap:square;stroke-linejoin:miter;stroke-width:0.8;"/>
   </g>
   <g id="patch_12">
    <path d="M 47.461777 204.18 
L 559.019542 204.18 
" style="fill:none;stroke:#000000;stroke-linecap:square;stroke-linejoin:miter;stroke-width:0.8;"/>
   </g>
   <g id="text_33">
    <!-- Translational PWM Input -->
    <defs>
     <path d="M 19.671875 64.796875 
L 19.671875 37.40625 
L 32.078125 37.40625 
Q 38.96875 37.40625 42.71875 40.96875 
Q 46.484375 44.53125 46.484375 51.125 
Q 46.484375 57.671875 42.71875 61.234375 
Q 38.96875 64.796875 32.078125 64.796875 
z
M 9.8125 72.90625 
L 32.078125 72.90625 
Q 44.34375 72.90625 50.609375 67.359375 
Q 56.890625 61.8125 56.890625 51.125 
Q 56.890625 40.328125 50.609375 34.8125 
Q 44.34375 29.296875 32.078125 29.296875 
L 19.671875 29.296875 
L 19.671875 0 
L 9.8125 0 
z
" id="DejaVuSans-80"/>
     <path d="M 3.328125 72.90625 
L 13.28125 72.90625 
L 28.609375 11.28125 
L 43.890625 72.90625 
L 54.984375 72.90625 
L 70.3125 11.28125 
L 85.59375 72.90625 
L 95.609375 72.90625 
L 77.296875 0 
L 64.890625 0 
L 49.515625 63.28125 
L 33.984375 0 
L 21.578125 0 
z
" id="DejaVuSans-87"/>
     <path d="M 9.8125 72.90625 
L 24.515625 72.90625 
L 43.109375 23.296875 
L 61.8125 72.90625 
L 76.515625 72.90625 
L 76.515625 0 
L 66.890625 0 
L 66.890625 64.015625 
L 48.09375 14.015625 
L 38.1875 14.015625 
L 19.390625 64.015625 
L 19.390625 0 
L 9.8125 0 
z
" id="DejaVuSans-77"/>
     <path d="M 9.8125 72.90625 
L 19.671875 72.90625 
L 19.671875 0 
L 9.8125 0 
z
" id="DejaVuSans-73"/>
    </defs>
    <g transform="translate(231.13191 198.18)scale(0.12 -0.12)">
     <use xlink:href="#DejaVuSans-84"/>
     <use x="46.333984" xlink:href="#DejaVuSans-114"/>
     <use x="87.447266" xlink:href="#DejaVuSans-97"/>
     <use x="148.726562" xlink:href="#DejaVuSans-110"/>
     <use x="212.105469" xlink:href="#DejaVuSans-115"/>
     <use x="264.205078" xlink:href="#DejaVuSans-108"/>
     <use x="291.988281" xlink:href="#DejaVuSans-97"/>
     <use x="353.267578" xlink:href="#DejaVuSans-116"/>
     <use x="392.476562" xlink:href="#DejaVuSans-105"/>
     <use x="420.259766" xlink:href="#DejaVuSans-111"/>
     <use x="481.441406" xlink:href="#DejaVuSans-110"/>
     <use x="544.820312" xlink:href="#DejaVuSans-97"/>
     <use x="606.099609" xlink:href="#DejaVuSans-108"/>
     <use x="633.882812" xlink:href="#DejaVuSans-32"/>
     <use x="665.669922" xlink:href="#DejaVuSans-80"/>
     <use x="725.972656" xlink:href="#DejaVuSans-87"/>
     <use x="824.849609" xlink:href="#DejaVuSans-77"/>
     <use x="911.128906" xlink:href="#DejaVuSans-32"/>
     <use x="942.916016" xlink:href="#DejaVuSans-73"/>
     <use x="972.408203" xlink:href="#DejaVuSans-110"/>
     <use x="1035.787109" xlink:href="#DejaVuSans-112"/>
     <use x="1099.263672" xlink:href="#DejaVuSans-117"/>
     <use x="1162.642578" xlink:href="#DejaVuSans-116"/>
    </g>
   </g>
   <g id="legend_2">
    <g id="patch_13">
     <path d="M 230.700792 226.858125 
L 552.019542 226.858125 
Q 554.019542 226.858125 554.019542 224.858125 
L 554.019542 211.18 
Q 554.019542 209.18 552.019542 209.18 
L 230.700792 209.18 
Q 228.700792 209.18 228.700792 211.18 
L 228.700792 224.858125 
Q 228.700792 226.858125 230.700792 226.858125 
z
" style="fill:#ffffff;opacity:0.8;stroke:#cccccc;stroke-linejoin:miter;"/>
    </g>
    <g id="line2d_58">
     <path d="M 232.700792 217.278438 
L 252.700792 217.278438 
" style="fill:none;stroke:#1f77b4;stroke-linecap:square;stroke-width:2;"/>
    </g>
    <g id="line2d_59"/>
    <g id="text_34">
     <!-- FF -->
     <defs>
      <path d="M 9.8125 72.90625 
L 51.703125 72.90625 
L 51.703125 64.59375 
L 19.671875 64.59375 
L 19.671875 43.109375 
L 48.578125 43.109375 
L 48.578125 34.8125 
L 19.671875 34.8125 
L 19.671875 0 
L 9.8125 0 
z
" id="DejaVuSans-70"/>
     </defs>
     <g transform="translate(260.700792 220.778438)scale(0.1 -0.1)">
      <use xlink:href="#DejaVuSans-70"/>
      <use x="57.519531" xlink:href="#DejaVuSans-70"/>
     </g>
    </g>
    <g id="line2d_60">
     <path d="M 292.203917 217.278438 
L 312.203917 217.278438 
" style="fill:none;stroke:#ff7f0e;stroke-linecap:square;stroke-width:2;"/>
    </g>
    <g id="line2d_61"/>
    <g id="text_35">
     <!-- FB -->
     <defs>
      <path d="M 19.671875 34.8125 
L 19.671875 8.109375 
L 35.5 8.109375 
Q 43.453125 8.109375 47.28125 11.40625 
Q 51.125 14.703125 51.125 21.484375 
Q 51.125 28.328125 47.28125 31.5625 
Q 43.453125 34.8125 35.5 34.8125 
z
M 19.671875 64.796875 
L 19.671875 42.828125 
L 34.28125 42.828125 
Q 41.5 42.828125 45.03125 45.53125 
Q 48.578125 48.25 48.578125 53.8125 
Q 48.578125 59.328125 45.03125 62.0625 
Q 41.5 64.796875 34.28125 64.796875 
z
M 9.8125 72.90625 
L 35.015625 72.90625 
Q 46.296875 72.90625 52.390625 68.21875 
Q 58.5 63.53125 58.5 54.890625 
Q 58.5 48.1875 55.375 44.234375 
Q 52.25 40.28125 46.1875 39.3125 
Q 53.46875 37.75 57.5 32.78125 
Q 61.53125 27.828125 61.53125 20.40625 
Q 61.53125 10.640625 54.890625 5.3125 
Q 48.25 0 35.984375 0 
L 9.8125 0 
z
" id="DejaVuSans-66"/>
     </defs>
     <g transform="translate(320.203917 220.778438)scale(0.1 -0.1)">
      <use xlink:href="#DejaVuSans-70"/>
      <use x="57.519531" xlink:href="#DejaVuSans-66"/>
     </g>
    </g>
    <g id="line2d_62">
     <path d="M 352.816417 217.278438 
L 372.816417 217.278438 
" style="fill:none;stroke:#2ca02c;stroke-linecap:square;stroke-width:2;"/>
    </g>
    <g id="line2d_63"/>
    <g id="text_36">
     <!-- FB p -->
     <g transform="translate(380.816417 220.778438)scale(0.1 -0.1)">
      <use xlink:href="#DejaVuSans-70"/>
      <use x="57.519531" xlink:href="#DejaVuSans-66"/>
      <use x="126.123047" xlink:href="#DejaVuSans-32"/>
      <use x="157.910156" xlink:href="#DejaVuSans-112"/>
     </g>
    </g>
    <g id="line2d_64">
     <path d="M 422.95548 217.278438 
L 442.95548 217.278438 
" style="fill:none;stroke:#d62728;stroke-linecap:square;stroke-width:2;"/>
    </g>
    <g id="line2d_65"/>
    <g id="text_37">
     <!-- FB i -->
     <g transform="translate(450.95548 220.778438)scale(0.1 -0.1)">
      <use xlink:href="#DejaVuSans-70"/>
      <use x="57.519531" xlink:href="#DejaVuSans-66"/>
      <use x="126.123047" xlink:href="#DejaVuSans-32"/>
      <use x="157.910156" xlink:href="#DejaVuSans-105"/>
     </g>
    </g>
    <g id="line2d_66">
     <path d="M 489.52423 217.278438 
L 509.52423 217.278438 
" style="fill:none;stroke:#9467bd;stroke-linecap:square;stroke-width:2;"/>
    </g>
    <g id="line2d_67"/>
    <g id="text_38">
     <!-- FF+FB -->
     <defs>
      <path d="M 46 62.703125 
L 46 35.5 
L 73.1875 35.5 
L 73.1875 27.203125 
L 46 27.203125 
L 46 0 
L 37.796875 0 
L 37.796875 27.203125 
L 10.59375 27.203125 
L 10.59375 35.5 
L 37.796875 35.5 
L 37.796875 62.703125 
z
" id="DejaVuSans-43"/>
     </defs>
     <g transform="translate(517.52423 220.778438)scale(0.1 -0.1)">
      <use xlink:href="#DejaVuSans-70"/>
      <use x="57.519531" xlink:href="#DejaVuSans-70"/>
      <use x="115.039062" xlink:href="#DejaVuSans-43"/>
      <use x="198.828125" xlink:href="#DejaVuSans-70"/>
      <use x="256.347656" xlink:href="#DejaVuSans-66"/>
     </g>
    </g>
   </g>
  </g>
  <g id="axes_3">
   <g id="patch_14">
    <path d="M 47.461777 500.74 
L 559.019542 500.74 
L 559.019542 381.48 
L 47.461777 381.48 
z
" style="fill:#ffffff;"/>
   </g>
   <g id="matplotlib.axis_5">
    <g id="xtick_15">
     <g id="line2d_68">
      <path clip-path="url(#pc244d0745b)" d="M 70.714403 500.74 
L 70.714403 381.48 
" style="fill:none;stroke:#b0b0b0;stroke-linecap:square;stroke-width:0.8;"/>
     </g>
     <g id="line2d_69">
      <g>
       <use style="stroke:#000000;stroke-width:0.8;" x="70.714403" xlink:href="#m3f89ed190a" y="500.74"/>
      </g>
     </g>
     <g id="text_39">
      <!-- 0.00 -->
      <g transform="translate(59.581591 515.338438)scale(0.1 -0.1)">
       <use xlink:href="#DejaVuSans-48"/>
       <use x="63.623047" xlink:href="#DejaVuSans-46"/>
       <use x="95.410156" xlink:href="#DejaVuSans-48"/>
       <use x="159.033203" xlink:href="#DejaVuSans-48"/>
      </g>
     </g>
    </g>
    <g id="xtick_16">
     <g id="line2d_70">
      <path clip-path="url(#pc244d0745b)" d="M 151.173315 500.74 
L 151.173315 381.48 
" style="fill:none;stroke:#b0b0b0;stroke-linecap:square;stroke-width:0.8;"/>
     </g>
     <g id="line2d_71">
      <g>
       <use style="stroke:#000000;stroke-width:0.8;" x="151.173315" xlink:href="#m3f89ed190a" y="500.74"/>
      </g>
     </g>
     <g id="text_40">
      <!-- 0.05 -->
      <g transform="translate(140.040503 515.338438)scale(0.1 -0.1)">
       <use xlink:href="#DejaVuSans-48"/>
       <use x="63.623047" xlink:href="#DejaVuSans-46"/>
       <use x="95.410156" xlink:href="#DejaVuSans-48"/>
       <use x="159.033203" xlink:href="#DejaVuSans-53"/>
      </g>
     </g>
    </g>
    <g id="xtick_17">
     <g id="line2d_72">
      <path clip-path="url(#pc244d0745b)" d="M 231.632228 500.74 
L 231.632228 381.48 
" style="fill:none;stroke:#b0b0b0;stroke-linecap:square;stroke-width:0.8;"/>
     </g>
     <g id="line2d_73">
      <g>
       <use style="stroke:#000000;stroke-width:0.8;" x="231.632228" xlink:href="#m3f89ed190a" y="500.74"/>
      </g>
     </g>
     <g id="text_41">
      <!-- 0.10 -->
      <g transform="translate(220.499415 515.338438)scale(0.1 -0.1)">
       <use xlink:href="#DejaVuSans-48"/>
       <use x="63.623047" xlink:href="#DejaVuSans-46"/>
       <use x="95.410156" xlink:href="#DejaVuSans-49"/>
       <use x="159.033203" xlink:href="#DejaVuSans-48"/>
      </g>
     </g>
    </g>
    <g id="xtick_18">
     <g id="line2d_74">
      <path clip-path="url(#pc244d0745b)" d="M 312.09114 500.74 
L 312.09114 381.48 
" style="fill:none;stroke:#b0b0b0;stroke-linecap:square;stroke-width:0.8;"/>
     </g>
     <g id="line2d_75">
      <g>
       <use style="stroke:#000000;stroke-width:0.8;" x="312.09114" xlink:href="#m3f89ed190a" y="500.74"/>
      </g>
     </g>
     <g id="text_42">
      <!-- 0.15 -->
      <g transform="translate(300.958328 515.338438)scale(0.1 -0.1)">
       <use xlink:href="#DejaVuSans-48"/>
       <use x="63.623047" xlink:href="#DejaVuSans-46"/>
       <use x="95.410156" xlink:href="#DejaVuSans-49"/>
       <use x="159.033203" xlink:href="#DejaVuSans-53"/>
      </g>
     </g>
    </g>
    <g id="xtick_19">
     <g id="line2d_76">
      <path clip-path="url(#pc244d0745b)" d="M 392.550053 500.74 
L 392.550053 381.48 
" style="fill:none;stroke:#b0b0b0;stroke-linecap:square;stroke-width:0.8;"/>
     </g>
     <g id="line2d_77">
      <g>
       <use style="stroke:#000000;stroke-width:0.8;" x="392.550053" xlink:href="#m3f89ed190a" y="500.74"/>
      </g>
     </g>
     <g id="text_43">
      <!-- 0.20 -->
      <g transform="translate(381.41724 515.338438)scale(0.1 -0.1)">
       <use xlink:href="#DejaVuSans-48"/>
       <use x="63.623047" xlink:href="#DejaVuSans-46"/>
       <use x="95.410156" xlink:href="#DejaVuSans-50"/>
       <use x="159.033203" xlink:href="#DejaVuSans-48"/>
      </g>
     </g>
    </g>
    <g id="xtick_20">
     <g id="line2d_78">
      <path clip-path="url(#pc244d0745b)" d="M 473.008965 500.74 
L 473.008965 381.48 
" style="fill:none;stroke:#b0b0b0;stroke-linecap:square;stroke-width:0.8;"/>
     </g>
     <g id="line2d_79">
      <g>
       <use style="stroke:#000000;stroke-width:0.8;" x="473.008965" xlink:href="#m3f89ed190a" y="500.74"/>
      </g>
     </g>
     <g id="text_44">
      <!-- 0.25 -->
      <g transform="translate(461.876152 515.338438)scale(0.1 -0.1)">
       <use xlink:href="#DejaVuSans-48"/>
       <use x="63.623047" xlink:href="#DejaVuSans-46"/>
       <use x="95.410156" xlink:href="#DejaVuSans-50"/>
       <use x="159.033203" xlink:href="#DejaVuSans-53"/>
      </g>
     </g>
    </g>
    <g id="xtick_21">
     <g id="line2d_80">
      <path clip-path="url(#pc244d0745b)" d="M 553.467877 500.74 
L 553.467877 381.48 
" style="fill:none;stroke:#b0b0b0;stroke-linecap:square;stroke-width:0.8;"/>
     </g>
     <g id="line2d_81">
      <g>
       <use style="stroke:#000000;stroke-width:0.8;" x="553.467877" xlink:href="#m3f89ed190a" y="500.74"/>
      </g>
     </g>
     <g id="text_45">
      <!-- 0.30 -->
      <g transform="translate(542.335065 515.338438)scale(0.1 -0.1)">
       <use xlink:href="#DejaVuSans-48"/>
       <use x="63.623047" xlink:href="#DejaVuSans-46"/>
       <use x="95.410156" xlink:href="#DejaVuSans-51"/>
       <use x="159.033203" xlink:href="#DejaVuSans-48"/>
      </g>
     </g>
    </g>
    <g id="text_46">
     <!-- Time [ms] -->
     <g transform="translate(278.041441 529.016562)scale(0.1 -0.1)">
      <use xlink:href="#DejaVuSans-84"/>
      <use x="57.958984" xlink:href="#DejaVuSans-105"/>
      <use x="85.742188" xlink:href="#DejaVuSans-109"/>
      <use x="183.154297" xlink:href="#DejaVuSans-101"/>
      <use x="244.677734" xlink:href="#DejaVuSans-32"/>
      <use x="276.464844" xlink:href="#DejaVuSans-91"/>
      <use x="315.478516" xlink:href="#DejaVuSans-109"/>
      <use x="412.890625" xlink:href="#DejaVuSans-115"/>
      <use x="464.990234" xlink:href="#DejaVuSans-93"/>
     </g>
    </g>
   </g>
   <g id="matplotlib.axis_6">
    <g id="ytick_10">
     <g id="line2d_82">
      <path clip-path="url(#pc244d0745b)" d="M 47.461777 494.652032 
L 559.019542 494.652032 
" style="fill:none;stroke:#b0b0b0;stroke-linecap:square;stroke-width:0.8;"/>
     </g>
     <g id="line2d_83">
      <g>
       <use style="stroke:#000000;stroke-width:0.8;" x="47.461777" xlink:href="#m9341116359" y="494.652032"/>
      </g>
     </g>
     <g id="text_47">
      <!-- $\mathdefault{0}$ -->
      <g transform="translate(34.061777 498.451251)scale(0.1 -0.1)">
       <use transform="translate(0 0.78125)" xlink:href="#DejaVuSans-48"/>
      </g>
     </g>
    </g>
    <g id="ytick_11">
     <g id="line2d_84">
      <path clip-path="url(#pc244d0745b)" d="M 47.461777 463.512789 
L 559.019542 463.512789 
" style="fill:none;stroke:#b0b0b0;stroke-linecap:square;stroke-width:0.8;"/>
     </g>
     <g id="line2d_85">
      <g>
       <use style="stroke:#000000;stroke-width:0.8;" x="47.461777" xlink:href="#m9341116359" y="463.512789"/>
      </g>
     </g>
     <g id="text_48">
      <!-- $\mathdefault{1}$ -->
      <g transform="translate(34.061777 467.312008)scale(0.1 -0.1)">
       <use transform="translate(0 0.09375)" xlink:href="#DejaVuSans-49"/>
      </g>
     </g>
    </g>
    <g id="ytick_12">
     <g id="line2d_86">
      <path clip-path="url(#pc244d0745b)" d="M 47.461777 432.373546 
L 559.019542 432.373546 
" style="fill:none;stroke:#b0b0b0;stroke-linecap:square;stroke-width:0.8;"/>
     </g>
     <g id="line2d_87">
      <g>
       <use style="stroke:#000000;stroke-width:0.8;" x="47.461777" xlink:href="#m9341116359" y="432.373546"/>
      </g>
     </g>
     <g id="text_49">
      <!-- $\mathdefault{2}$ -->
      <g transform="translate(34.061777 436.172765)scale(0.1 -0.1)">
       <use transform="translate(0 0.78125)" xlink:href="#DejaVuSans-50"/>
      </g>
     </g>
    </g>
    <g id="ytick_13">
     <g id="line2d_88">
      <path clip-path="url(#pc244d0745b)" d="M 47.461777 401.234303 
L 559.019542 401.234303 
" style="fill:none;stroke:#b0b0b0;stroke-linecap:square;stroke-width:0.8;"/>
     </g>
     <g id="line2d_89">
      <g>
       <use style="stroke:#000000;stroke-width:0.8;" x="47.461777" xlink:href="#m9341116359" y="401.234303"/>
      </g>
     </g>
     <g id="text_50">
      <!-- $\mathdefault{3}$ -->
      <g transform="translate(34.061777 405.033521)scale(0.1 -0.1)">
       <use transform="translate(0 0.78125)" xlink:href="#DejaVuSans-51"/>
      </g>
     </g>
    </g>
    <g id="text_51">
     <!-- vel. [rad/s] -->
     <g transform="translate(27.98209 468.1975)rotate(-90)scale(0.1 -0.1)">
      <use xlink:href="#DejaVuSans-118"/>
      <use x="59.179688" xlink:href="#DejaVuSans-101"/>
      <use x="120.703125" xlink:href="#DejaVuSans-108"/>
      <use x="148.486328" xlink:href="#DejaVuSans-46"/>
      <use x="180.273438" xlink:href="#DejaVuSans-32"/>
      <use x="212.060547" xlink:href="#DejaVuSans-91"/>
      <use x="251.074219" xlink:href="#DejaVuSans-114"/>
      <use x="292.1875" xlink:href="#DejaVuSans-97"/>
      <use x="353.466797" xlink:href="#DejaVuSans-100"/>
      <use x="416.943359" xlink:href="#DejaVuSans-47"/>
      <use x="450.634766" xlink:href="#DejaVuSans-115"/>
      <use x="502.734375" xlink:href="#DejaVuSans-93"/>
     </g>
    </g>
    <g id="text_52">
     <!-- $\times\mathdefault{10^{1}}\mathdefault{}$ -->
     <g transform="translate(47.461777 378.48)scale(0.1 -0.1)">
      <use transform="translate(0 0.684375)" xlink:href="#DejaVuSans-215"/>
      <use transform="translate(83.789062 0.684375)" xlink:href="#DejaVuSans-49"/>
      <use transform="translate(147.412109 0.684375)" xlink:href="#DejaVuSans-48"/>
      <use transform="translate(211.992188 38.965625)scale(0.7)" xlink:href="#DejaVuSans-49"/>
     </g>
    </g>
   </g>
   <g id="line2d_90">
    <path clip-path="url(#pc244d0745b)" d="M 70.714403 494.652032 
L 73.93276 494.464205 
L 77.151116 493.900723 
L 80.369473 492.961586 
L 83.587829 491.646793 
L 86.806186 489.956359 
L 98.070433 483.382398 
L 99.679611 482.912818 
L 139.909068 459.434482 
L 141.518246 458.025743 
L 173.701811 439.348425 
L 176.920167 437.939686 
L 180.138524 436.906797 
L 183.35688 436.249448 
L 186.575237 435.967637 
L 202.667019 435.955804 
L 341.056349 435.988501 
L 344.274705 436.332901 
L 347.493062 437.05284 
L 350.711418 438.148319 
L 353.929775 439.619336 
L 358.757309 442.37298 
L 442.434578 491.124081 
L 445.652935 492.564305 
L 448.871291 493.628875 
L 452.089648 494.317802 
L 455.308004 494.631082 
L 464.963074 494.652032 
L 535.766917 494.652032 
L 535.766917 494.652032 
" style="fill:none;stroke:#1f77b4;stroke-linecap:square;stroke-width:2;"/>
   </g>
   <g id="line2d_91">
    <path clip-path="url(#pc244d0745b)" d="M 70.714403 494.656307 
L 72.323581 494.662935 
L 75.541938 494.354741 
L 77.151116 494.580087 
L 81.978651 494.735841 
L 85.197007 494.404449 
L 86.806186 494.020036 
L 90.024542 492.929758 
L 91.63372 491.325832 
L 93.242898 490.967917 
L 94.852077 489.07898 
L 96.461255 488.555373 
L 98.070433 486.722798 
L 99.679611 486.722798 
L 101.28879 485.473429 
L 102.897968 483.995436 
L 104.507146 482.67317 
L 106.116324 481.181912 
L 107.725503 479.488498 
L 109.334681 478.007204 
L 110.943859 475.906177 
L 114.162216 472.569046 
L 115.771394 470.507784 
L 117.380572 469.162351 
L 118.98975 467.362876 
L 120.598929 465.129321 
L 122.208107 462.037412 
L 123.817285 459.710999 
L 127.035642 456.132166 
L 130.253998 450.720477 
L 131.863176 448.291304 
L 133.472355 446.097545 
L 135.081533 441.626883 
L 136.690711 439.184633 
L 138.299889 436.964405 
L 139.909068 434.313209 
L 141.518246 430.985981 
L 143.127424 425.670512 
L 146.345781 421.077474 
L 147.954959 417.710388 
L 149.564137 414.824091 
L 151.173315 411.586233 
L 152.782494 410.443111 
L 154.391672 407.861356 
L 157.610028 401.276652 
L 159.219207 395.252143 
L 160.828385 391.967887 
L 162.437563 389.350011 
L 164.046741 386.993704 
L 167.265098 386.900909 
L 220.36798 386.900909 
L 221.977158 429.302594 
L 223.586337 396.554386 
L 225.195515 386.900909 
L 286.344288 386.900909 
L 287.953466 388.494927 
L 289.562645 386.900909 
L 304.045249 386.900909 
L 305.654427 390.937489 
L 307.263605 386.900909 
L 366.803201 386.900909 
L 368.412379 393.711062 
L 370.021557 391.606672 
L 371.630735 386.900909 
L 416.687726 386.900909 
L 418.296905 387.676588 
L 419.906083 390.07898 
L 421.515261 393.701097 
L 423.124439 396.328938 
L 424.733618 397.227305 
L 426.342796 399.599804 
L 427.951974 402.217991 
L 431.170331 407.778526 
L 432.779509 412.600438 
L 434.388687 414.028795 
L 435.997865 416.736041 
L 437.607044 421.398831 
L 439.216222 422.850231 
L 440.8254 424.908224 
L 442.434578 429.975201 
L 444.043757 433.981888 
L 445.652935 435.171407 
L 447.262113 437.229399 
L 450.480469 442.670982 
L 452.089648 444.82177 
L 453.698826 445.567243 
L 455.308004 446.640924 
L 456.917182 448.480319 
L 458.526361 449.56054 
L 460.135539 452.11894 
L 463.353895 455.442743 
L 464.963074 456.367267 
L 466.572252 458.657247 
L 468.18143 459.107832 
L 469.790608 460.834503 
L 471.399787 462.726835 
L 473.008965 463.717592 
L 474.618143 465.003394 
L 476.227321 466.113539 
L 477.8365 467.634628 
L 479.445678 468.015742 
L 481.054856 470.166467 
L 482.664034 470.8425 
L 484.273213 473.195381 
L 485.882391 473.066153 
L 487.491569 473.563229 
L 489.100747 476.436385 
L 490.709926 476.804233 
L 492.319104 478.312057 
L 493.928282 479.293005 
L 495.53746 480.055201 
L 497.146639 480.489313 
L 500.364995 483.170277 
L 501.974173 484.707933 
L 503.583352 485.725314 
L 506.801708 486.951453 
L 508.410886 487.246404 
L 510.020065 487.753413 
L 511.629243 488.575271 
L 514.847599 489.980367 
L 519.675134 492.737548 
L 521.284312 493.486494 
L 524.502669 495.189847 
L 526.111847 495.319091 
L 534.157738 495.030779 
L 535.766917 494.944618 
L 535.766917 494.944618 
" style="fill:none;stroke:#ff7f0e;stroke-linecap:square;stroke-width:2;"/>
   </g>
   <g id="patch_15">
    <path d="M 47.461777 500.74 
L 47.461777 381.48 
" style="fill:none;stroke:#000000;stroke-linecap:square;stroke-linejoin:miter;stroke-width:0.8;"/>
   </g>
   <g id="patch_16">
    <path d="M 559.019542 500.74 
L 559.019542 381.48 
" style="fill:none;stroke:#000000;stroke-linecap:square;stroke-linejoin:miter;stroke-width:0.8;"/>
   </g>
   <g id="patch_17">
    <path d="M 47.461777 500.74 
L 559.019542 500.74 
" style="fill:none;stroke:#000000;stroke-linecap:square;stroke-linejoin:miter;stroke-width:0.8;"/>
   </g>
   <g id="patch_18">
    <path d="M 47.461777 381.48 
L 559.019542 381.48 
" style="fill:none;stroke:#000000;stroke-linecap:square;stroke-linejoin:miter;stroke-width:0.8;"/>
   </g>
   <g id="text_53">
    <!-- Rotational Velocity -->
    <g transform="translate(247.359097 375.48)scale(0.12 -0.12)">
     <use xlink:href="#DejaVuSans-82"/>
     <use x="64.982422" xlink:href="#DejaVuSans-111"/>
     <use x="126.164062" xlink:href="#DejaVuSans-116"/>
     <use x="165.373047" xlink:href="#DejaVuSans-97"/>
     <use x="226.652344" xlink:href="#DejaVuSans-116"/>
     <use x="265.861328" xlink:href="#DejaVuSans-105"/>
     <use x="293.644531" xlink:href="#DejaVuSans-111"/>
     <use x="354.826172" xlink:href="#DejaVuSans-110"/>
     <use x="418.205078" xlink:href="#DejaVuSans-97"/>
     <use x="479.484375" xlink:href="#DejaVuSans-108"/>
     <use x="507.267578" xlink:href="#DejaVuSans-32"/>
     <use x="539.054688" xlink:href="#DejaVuSans-86"/>
     <use x="599.712891" xlink:href="#DejaVuSans-101"/>
     <use x="661.236328" xlink:href="#DejaVuSans-108"/>
     <use x="689.019531" xlink:href="#DejaVuSans-111"/>
     <use x="750.201172" xlink:href="#DejaVuSans-99"/>
     <use x="805.181641" xlink:href="#DejaVuSans-105"/>
     <use x="832.964844" xlink:href="#DejaVuSans-116"/>
     <use x="872.173828" xlink:href="#DejaVuSans-121"/>
    </g>
   </g>
   <g id="legend_3">
    <g id="patch_19">
     <path d="M 469.502355 418.83625 
L 552.019542 418.83625 
Q 554.019542 418.83625 554.019542 416.83625 
L 554.019542 388.48 
Q 554.019542 386.48 552.019542 386.48 
L 469.502355 386.48 
Q 467.502355 386.48 467.502355 388.48 
L 467.502355 416.83625 
Q 467.502355 418.83625 469.502355 418.83625 
z
" style="fill:#ffffff;opacity:0.8;stroke:#cccccc;stroke-linejoin:miter;"/>
    </g>
    <g id="line2d_92">
     <path d="M 471.502355 394.578438 
L 491.502355 394.578438 
" style="fill:none;stroke:#1f77b4;stroke-linecap:square;stroke-width:2;"/>
    </g>
    <g id="line2d_93"/>
    <g id="text_54">
     <!-- Reference -->
     <g transform="translate(499.502355 398.078438)scale(0.1 -0.1)">
      <use xlink:href="#DejaVuSans-82"/>
      <use x="64.982422" xlink:href="#DejaVuSans-101"/>
      <use x="126.505859" xlink:href="#DejaVuSans-102"/>
      <use x="161.710938" xlink:href="#DejaVuSans-101"/>
      <use x="223.234375" xlink:href="#DejaVuSans-114"/>
      <use x="262.097656" xlink:href="#DejaVuSans-101"/>
      <use x="323.621094" xlink:href="#DejaVuSans-110"/>
      <use x="387" xlink:href="#DejaVuSans-99"/>
      <use x="441.980469" xlink:href="#DejaVuSans-101"/>
     </g>
    </g>
    <g id="line2d_94">
     <path d="M 471.502355 409.256563 
L 491.502355 409.256563 
" style="fill:none;stroke:#ff7f0e;stroke-linecap:square;stroke-width:2;"/>
    </g>
    <g id="line2d_95"/>
    <g id="text_55">
     <!-- Estimated -->
     <g transform="translate(499.502355 412.756563)scale(0.1 -0.1)">
      <use xlink:href="#DejaVuSans-69"/>
      <use x="63.183594" xlink:href="#DejaVuSans-115"/>
      <use x="115.283203" xlink:href="#DejaVuSans-116"/>
      <use x="154.492188" xlink:href="#DejaVuSans-105"/>
      <use x="182.275391" xlink:href="#DejaVuSans-109"/>
      <use x="279.6875" xlink:href="#DejaVuSans-97"/>
      <use x="340.966797" xlink:href="#DejaVuSans-116"/>
      <use x="380.175781" xlink:href="#DejaVuSans-101"/>
      <use x="441.699219" xlink:href="#DejaVuSans-100"/>
     </g>
    </g>
   </g>
  </g>
  <g id="axes_4">
   <g id="patch_20">
    <path d="M 47.461777 678.04 
L 559.019542 678.04 
L 559.019542 558.78 
L 47.461777 558.78 
z
" style="fill:#ffffff;"/>
   </g>
   <g id="matplotlib.axis_7">
    <g id="xtick_22">
     <g id="line2d_96">
      <path clip-path="url(#pb53cc790d6)" d="M 70.714403 678.04 
L 70.714403 558.78 
" style="fill:none;stroke:#b0b0b0;stroke-linecap:square;stroke-width:0.8;"/>
     </g>
     <g id="line2d_97">
      <g>
       <use style="stroke:#000000;stroke-width:0.8;" x="70.714403" xlink:href="#m3f89ed190a" y="678.04"/>
      </g>
     </g>
     <g id="text_56">
      <!-- 0.00 -->
      <g transform="translate(59.581591 692.638438)scale(0.1 -0.1)">
       <use xlink:href="#DejaVuSans-48"/>
       <use x="63.623047" xlink:href="#DejaVuSans-46"/>
       <use x="95.410156" xlink:href="#DejaVuSans-48"/>
       <use x="159.033203" xlink:href="#DejaVuSans-48"/>
      </g>
     </g>
    </g>
    <g id="xtick_23">
     <g id="line2d_98">
      <path clip-path="url(#pb53cc790d6)" d="M 151.173315 678.04 
L 151.173315 558.78 
" style="fill:none;stroke:#b0b0b0;stroke-linecap:square;stroke-width:0.8;"/>
     </g>
     <g id="line2d_99">
      <g>
       <use style="stroke:#000000;stroke-width:0.8;" x="151.173315" xlink:href="#m3f89ed190a" y="678.04"/>
      </g>
     </g>
     <g id="text_57">
      <!-- 0.05 -->
      <g transform="translate(140.040503 692.638438)scale(0.1 -0.1)">
       <use xlink:href="#DejaVuSans-48"/>
       <use x="63.623047" xlink:href="#DejaVuSans-46"/>
       <use x="95.410156" xlink:href="#DejaVuSans-48"/>
       <use x="159.033203" xlink:href="#DejaVuSans-53"/>
      </g>
     </g>
    </g>
    <g id="xtick_24">
     <g id="line2d_100">
      <path clip-path="url(#pb53cc790d6)" d="M 231.632228 678.04 
L 231.632228 558.78 
" style="fill:none;stroke:#b0b0b0;stroke-linecap:square;stroke-width:0.8;"/>
     </g>
     <g id="line2d_101">
      <g>
       <use style="stroke:#000000;stroke-width:0.8;" x="231.632228" xlink:href="#m3f89ed190a" y="678.04"/>
      </g>
     </g>
     <g id="text_58">
      <!-- 0.10 -->
      <g transform="translate(220.499415 692.638438)scale(0.1 -0.1)">
       <use xlink:href="#DejaVuSans-48"/>
       <use x="63.623047" xlink:href="#DejaVuSans-46"/>
       <use x="95.410156" xlink:href="#DejaVuSans-49"/>
       <use x="159.033203" xlink:href="#DejaVuSans-48"/>
      </g>
     </g>
    </g>
    <g id="xtick_25">
     <g id="line2d_102">
      <path clip-path="url(#pb53cc790d6)" d="M 312.09114 678.04 
L 312.09114 558.78 
" style="fill:none;stroke:#b0b0b0;stroke-linecap:square;stroke-width:0.8;"/>
     </g>
     <g id="line2d_103">
      <g>
       <use style="stroke:#000000;stroke-width:0.8;" x="312.09114" xlink:href="#m3f89ed190a" y="678.04"/>
      </g>
     </g>
     <g id="text_59">
      <!-- 0.15 -->
      <g transform="translate(300.958328 692.638438)scale(0.1 -0.1)">
       <use xlink:href="#DejaVuSans-48"/>
       <use x="63.623047" xlink:href="#DejaVuSans-46"/>
       <use x="95.410156" xlink:href="#DejaVuSans-49"/>
       <use x="159.033203" xlink:href="#DejaVuSans-53"/>
      </g>
     </g>
    </g>
    <g id="xtick_26">
     <g id="line2d_104">
      <path clip-path="url(#pb53cc790d6)" d="M 392.550053 678.04 
L 392.550053 558.78 
" style="fill:none;stroke:#b0b0b0;stroke-linecap:square;stroke-width:0.8;"/>
     </g>
     <g id="line2d_105">
      <g>
       <use style="stroke:#000000;stroke-width:0.8;" x="392.550053" xlink:href="#m3f89ed190a" y="678.04"/>
      </g>
     </g>
     <g id="text_60">
      <!-- 0.20 -->
      <g transform="translate(381.41724 692.638438)scale(0.1 -0.1)">
       <use xlink:href="#DejaVuSans-48"/>
       <use x="63.623047" xlink:href="#DejaVuSans-46"/>
       <use x="95.410156" xlink:href="#DejaVuSans-50"/>
       <use x="159.033203" xlink:href="#DejaVuSans-48"/>
      </g>
     </g>
    </g>
    <g id="xtick_27">
     <g id="line2d_106">
      <path clip-path="url(#pb53cc790d6)" d="M 473.008965 678.04 
L 473.008965 558.78 
" style="fill:none;stroke:#b0b0b0;stroke-linecap:square;stroke-width:0.8;"/>
     </g>
     <g id="line2d_107">
      <g>
       <use style="stroke:#000000;stroke-width:0.8;" x="473.008965" xlink:href="#m3f89ed190a" y="678.04"/>
      </g>
     </g>
     <g id="text_61">
      <!-- 0.25 -->
      <g transform="translate(461.876152 692.638438)scale(0.1 -0.1)">
       <use xlink:href="#DejaVuSans-48"/>
       <use x="63.623047" xlink:href="#DejaVuSans-46"/>
       <use x="95.410156" xlink:href="#DejaVuSans-50"/>
       <use x="159.033203" xlink:href="#DejaVuSans-53"/>
      </g>
     </g>
    </g>
    <g id="xtick_28">
     <g id="line2d_108">
      <path clip-path="url(#pb53cc790d6)" d="M 553.467877 678.04 
L 553.467877 558.78 
" style="fill:none;stroke:#b0b0b0;stroke-linecap:square;stroke-width:0.8;"/>
     </g>
     <g id="line2d_109">
      <g>
       <use style="stroke:#000000;stroke-width:0.8;" x="553.467877" xlink:href="#m3f89ed190a" y="678.04"/>
      </g>
     </g>
     <g id="text_62">
      <!-- 0.30 -->
      <g transform="translate(542.335065 692.638438)scale(0.1 -0.1)">
       <use xlink:href="#DejaVuSans-48"/>
       <use x="63.623047" xlink:href="#DejaVuSans-46"/>
       <use x="95.410156" xlink:href="#DejaVuSans-51"/>
       <use x="159.033203" xlink:href="#DejaVuSans-48"/>
      </g>
     </g>
    </g>
    <g id="text_63">
     <!-- Time [ms] -->
     <g transform="translate(278.041441 706.316563)scale(0.1 -0.1)">
      <use xlink:href="#DejaVuSans-84"/>
      <use x="57.958984" xlink:href="#DejaVuSans-105"/>
      <use x="85.742188" xlink:href="#DejaVuSans-109"/>
      <use x="183.154297" xlink:href="#DejaVuSans-101"/>
      <use x="244.677734" xlink:href="#DejaVuSans-32"/>
      <use x="276.464844" xlink:href="#DejaVuSans-91"/>
      <use x="315.478516" xlink:href="#DejaVuSans-109"/>
      <use x="412.890625" xlink:href="#DejaVuSans-115"/>
      <use x="464.990234" xlink:href="#DejaVuSans-93"/>
     </g>
    </g>
   </g>
   <g id="matplotlib.axis_8">
    <g id="ytick_14">
     <g id="line2d_110">
      <path clip-path="url(#pb53cc790d6)" d="M 47.461777 648.652164 
L 559.019542 648.652164 
" style="fill:none;stroke:#b0b0b0;stroke-linecap:square;stroke-width:0.8;"/>
     </g>
     <g id="line2d_111">
      <g>
       <use style="stroke:#000000;stroke-width:0.8;" x="47.461777" xlink:href="#m9341116359" y="648.652164"/>
      </g>
     </g>
     <g id="text_64">
      <!-- $\mathdefault{0}$ -->
      <g transform="translate(34.061777 652.451383)scale(0.1 -0.1)">
       <use transform="translate(0 0.78125)" xlink:href="#DejaVuSans-48"/>
      </g>
     </g>
    </g>
    <g id="ytick_15">
     <g id="line2d_112">
      <path clip-path="url(#pb53cc790d6)" d="M 47.461777 610.249782 
L 559.019542 610.249782 
" style="fill:none;stroke:#b0b0b0;stroke-linecap:square;stroke-width:0.8;"/>
     </g>
     <g id="line2d_113">
      <g>
       <use style="stroke:#000000;stroke-width:0.8;" x="47.461777" xlink:href="#m9341116359" y="610.249782"/>
      </g>
     </g>
     <g id="text_65">
      <!-- $\mathdefault{2}$ -->
      <g transform="translate(34.061777 614.049001)scale(0.1 -0.1)">
       <use transform="translate(0 0.78125)" xlink:href="#DejaVuSans-50"/>
      </g>
     </g>
    </g>
    <g id="ytick_16">
     <g id="line2d_114">
      <path clip-path="url(#pb53cc790d6)" d="M 47.461777 571.847399 
L 559.019542 571.847399 
" style="fill:none;stroke:#b0b0b0;stroke-linecap:square;stroke-width:0.8;"/>
     </g>
     <g id="line2d_115">
      <g>
       <use style="stroke:#000000;stroke-width:0.8;" x="47.461777" xlink:href="#m9341116359" y="571.847399"/>
      </g>
     </g>
     <g id="text_66">
      <!-- $\mathdefault{4}$ -->
      <defs>
       <path d="M 37.796875 64.3125 
L 12.890625 25.390625 
L 37.796875 25.390625 
z
M 35.203125 72.90625 
L 47.609375 72.90625 
L 47.609375 25.390625 
L 58.015625 25.390625 
L 58.015625 17.1875 
L 47.609375 17.1875 
L 47.609375 0 
L 37.796875 0 
L 37.796875 17.1875 
L 4.890625 17.1875 
L 4.890625 26.703125 
z
" id="DejaVuSans-52"/>
      </defs>
      <g transform="translate(34.061777 575.646618)scale(0.1 -0.1)">
       <use transform="translate(0 0.09375)" xlink:href="#DejaVuSans-52"/>
      </g>
     </g>
    </g>
    <g id="text_67">
     <!-- pwm input -->
     <g transform="translate(27.98209 644.993594)rotate(-90)scale(0.1 -0.1)">
      <use xlink:href="#DejaVuSans-112"/>
      <use x="63.476562" xlink:href="#DejaVuSans-119"/>
      <use x="145.263672" xlink:href="#DejaVuSans-109"/>
      <use x="242.675781" xlink:href="#DejaVuSans-32"/>
      <use x="274.462891" xlink:href="#DejaVuSans-105"/>
      <use x="302.246094" xlink:href="#DejaVuSans-110"/>
      <use x="365.625" xlink:href="#DejaVuSans-112"/>
      <use x="429.101562" xlink:href="#DejaVuSans-117"/>
      <use x="492.480469" xlink:href="#DejaVuSans-116"/>
     </g>
    </g>
    <g id="text_68">
     <!-- $\times\mathdefault{10^{−1}}\mathdefault{}$ -->
     <g transform="translate(47.461777 555.78)scale(0.1 -0.1)">
      <use transform="translate(0 0.684375)" xlink:href="#DejaVuSans-215"/>
      <use transform="translate(83.789062 0.684375)" xlink:href="#DejaVuSans-49"/>
      <use transform="translate(147.412109 0.684375)" xlink:href="#DejaVuSans-48"/>
      <use transform="translate(211.992188 38.965625)scale(0.7)" xlink:href="#DejaVuSans-8722"/>
      <use transform="translate(270.644531 38.965625)scale(0.7)" xlink:href="#DejaVuSans-49"/>
     </g>
    </g>
   </g>
   <g id="line2d_116">
    <path clip-path="url(#pb53cc790d6)" d="M 70.714403 648.652164 
L 72.323581 647.192365 
L 75.541938 641.111876 
L 77.151116 636.298156 
L 78.760294 634.645318 
L 80.369473 629.542044 
L 83.587829 622.399912 
L 86.806186 614.8717 
L 98.070433 608.115569 
L 99.679611 608.115569 
L 120.598929 595.568551 
L 122.208107 594.120781 
L 123.817285 593.638255 
L 133.472355 587.847368 
L 135.081533 586.399598 
L 141.518246 582.538815 
L 143.127424 581.091237 
L 151.173315 576.265402 
L 152.782494 575.782876 
L 157.610028 572.887336 
L 159.219207 571.439566 
L 168.874276 565.648679 
L 170.483454 565.165961 
L 172.092633 564.200909 
L 173.701811 566.179592 
L 175.310989 569.328395 
L 176.920167 570.426319 
L 178.529346 573.864677 
L 181.747702 578.786902 
L 183.35688 581.392888 
L 184.966059 582.732171 
L 186.575237 586.894413 
L 188.184415 588.329894 
L 339.44717 588.329894 
L 341.056349 589.299362 
L 344.274705 595.347545 
L 345.883883 598.516318 
L 347.493062 603.45064 
L 349.10224 605.143609 
L 352.320596 612.156844 
L 357.148131 622.914119 
L 360.366488 624.844415 
L 361.975666 625.326941 
L 363.584844 626.774711 
L 366.803201 628.705007 
L 368.412379 629.187533 
L 371.630735 631.117886 
L 373.239914 632.565598 
L 374.849092 633.048182 
L 376.45827 634.495894 
L 378.067448 634.978458 
L 379.676627 636.42619 
L 381.285805 636.908754 
L 382.894983 638.356466 
L 397.377587 647.042774 
L 398.986766 647.525348 
L 403.8143 650.420782 
L 405.423479 651.868498 
L 407.032657 652.351082 
L 408.641835 653.31621 
L 410.251013 654.763942 
L 415.078548 657.659366 
L 416.687726 658.14195 
L 418.296905 659.589662 
L 424.733618 663.450234 
L 426.342796 663.932818 
L 431.170331 666.828242 
L 432.779509 668.275973 
L 434.388687 669.241025 
L 435.997865 669.723743 
L 437.607044 671.171321 
L 439.216222 671.654039 
L 440.8254 672.619091 
L 442.434578 670.123896 
L 445.652935 665.813229 
L 448.871291 661.116425 
L 452.089648 656.033582 
L 455.308004 650.56467 
L 456.917182 648.652164 
L 535.766917 648.652164 
L 535.766917 648.652164 
" style="fill:none;stroke:#1f77b4;stroke-linecap:square;stroke-width:2;"/>
   </g>
   <g id="line2d_117">
    <path clip-path="url(#pb53cc790d6)" d="M 70.714403 648.652164 
L 535.766917 648.652164 
L 535.766917 648.652164 
" style="fill:none;stroke:#ff7f0e;stroke-linecap:square;stroke-width:2;"/>
   </g>
   <g id="line2d_118">
    <path clip-path="url(#pb53cc790d6)" d="M 70.714403 648.652164 
L 535.766917 648.652164 
L 535.766917 648.652164 
" style="fill:none;stroke:#2ca02c;stroke-linecap:square;stroke-width:2;"/>
   </g>
   <g id="line2d_119">
    <path clip-path="url(#pb53cc790d6)" d="M 70.714403 648.652164 
L 535.766917 648.652164 
L 535.766917 648.652164 
" style="fill:none;stroke:#d62728;stroke-linecap:square;stroke-width:2;"/>
   </g>
   <g id="line2d_120">
    <path clip-path="url(#pb53cc790d6)" d="M 70.714403 648.652164 
L 72.323581 647.192365 
L 75.541938 641.111876 
L 77.151116 636.298156 
L 78.760294 634.645318 
L 80.369473 629.542044 
L 83.587829 622.399912 
L 86.806186 614.8717 
L 98.070433 608.115569 
L 99.679611 608.115569 
L 120.598929 595.568551 
L 122.208107 594.120781 
L 123.817285 593.638255 
L 133.472355 587.847368 
L 135.081533 586.399598 
L 141.518246 582.538815 
L 143.127424 581.091237 
L 151.173315 576.265402 
L 152.782494 575.782876 
L 157.610028 572.887336 
L 159.219207 571.439566 
L 168.874276 565.648679 
L 170.483454 565.165961 
L 172.092633 564.200909 
L 173.701811 566.179592 
L 175.310989 569.328395 
L 176.920167 570.426319 
L 178.529346 573.864677 
L 181.747702 578.786902 
L 183.35688 581.392888 
L 184.966059 582.732171 
L 186.575237 586.894413 
L 188.184415 588.329894 
L 339.44717 588.329894 
L 341.056349 589.299362 
L 344.274705 595.347545 
L 345.883883 598.516318 
L 347.493062 603.45064 
L 349.10224 605.143609 
L 352.320596 612.156844 
L 357.148131 622.914119 
L 360.366488 624.844415 
L 361.975666 625.326941 
L 363.584844 626.774711 
L 366.803201 628.705007 
L 368.412379 629.187533 
L 371.630735 631.117886 
L 373.239914 632.565598 
L 374.849092 633.048182 
L 376.45827 634.495894 
L 378.067448 634.978458 
L 379.676627 636.42619 
L 381.285805 636.908754 
L 382.894983 638.356466 
L 397.377587 647.042774 
L 398.986766 647.525348 
L 403.8143 650.420782 
L 405.423479 651.868498 
L 407.032657 652.351082 
L 408.641835 653.31621 
L 410.251013 654.763942 
L 415.078548 657.659366 
L 416.687726 658.14195 
L 418.296905 659.589662 
L 424.733618 663.450234 
L 426.342796 663.932818 
L 431.170331 666.828242 
L 432.779509 668.275973 
L 434.388687 669.241025 
L 435.997865 669.723743 
L 437.607044 671.171321 
L 439.216222 671.654039 
L 440.8254 672.619091 
L 442.434578 670.123896 
L 445.652935 665.813229 
L 448.871291 661.116425 
L 452.089648 656.033582 
L 455.308004 650.56467 
L 456.917182 648.652164 
L 535.766917 648.652164 
L 535.766917 648.652164 
" style="fill:none;stroke:#9467bd;stroke-linecap:square;stroke-width:2;"/>
   </g>
   <g id="patch_21">
    <path d="M 47.461777 678.04 
L 47.461777 558.78 
" style="fill:none;stroke:#000000;stroke-linecap:square;stroke-linejoin:miter;stroke-width:0.8;"/>
   </g>
   <g id="patch_22">
    <path d="M 559.019542 678.04 
L 559.019542 558.78 
" style="fill:none;stroke:#000000;stroke-linecap:square;stroke-linejoin:miter;stroke-width:0.8;"/>
   </g>
   <g id="patch_23">
    <path d="M 47.461777 678.04 
L 559.019542 678.04 
" style="fill:none;stroke:#000000;stroke-linecap:square;stroke-linejoin:miter;stroke-width:0.8;"/>
   </g>
   <g id="patch_24">
    <path d="M 47.461777 558.78 
L 559.019542 558.78 
" style="fill:none;stroke:#000000;stroke-linecap:square;stroke-linejoin:miter;stroke-width:0.8;"/>
   </g>
   <g id="text_69">
    <!-- Rotational PWM Input -->
    <g transform="translate(238.727535 552.78)scale(0.12 -0.12)">
     <use xlink:href="#DejaVuSans-82"/>
     <use x="64.982422" xlink:href="#DejaVuSans-111"/>
     <use x="126.164062" xlink:href="#DejaVuSans-116"/>
     <use x="165.373047" xlink:href="#DejaVuSans-97"/>
     <use x="226.652344" xlink:href="#DejaVuSans-116"/>
     <use x="265.861328" xlink:href="#DejaVuSans-105"/>
     <use x="293.644531" xlink:href="#DejaVuSans-111"/>
     <use x="354.826172" xlink:href="#DejaVuSans-110"/>
     <use x="418.205078" xlink:href="#DejaVuSans-97"/>
     <use x="479.484375" xlink:href="#DejaVuSans-108"/>
     <use x="507.267578" xlink:href="#DejaVuSans-32"/>
     <use x="539.054688" xlink:href="#DejaVuSans-80"/>
     <use x="599.357422" xlink:href="#DejaVuSans-87"/>
     <use x="698.234375" xlink:href="#DejaVuSans-77"/>
     <use x="784.513672" xlink:href="#DejaVuSans-32"/>
     <use x="816.300781" xlink:href="#DejaVuSans-73"/>
     <use x="845.792969" xlink:href="#DejaVuSans-110"/>
     <use x="909.171875" xlink:href="#DejaVuSans-112"/>
     <use x="972.648438" xlink:href="#DejaVuSans-117"/>
     <use x="1036.027344" xlink:href="#DejaVuSans-116"/>
    </g>
   </g>
   <g id="legend_4">
    <g id="patch_25">
     <path d="M 230.700792 581.458125 
L 552.019542 581.458125 
Q 554.019542 581.458125 554.019542 579.458125 
L 554.019542 565.78 
Q 554.019542 563.78 552.019542 563.78 
L 230.700792 563.78 
Q 228.700792 563.78 228.700792 565.78 
L 228.700792 579.458125 
Q 228.700792 581.458125 230.700792 581.458125 
z
" style="fill:#ffffff;opacity:0.8;stroke:#cccccc;stroke-linejoin:miter;"/>
    </g>
    <g id="line2d_121">
     <path d="M 232.700792 571.878438 
L 252.700792 571.878438 
" style="fill:none;stroke:#1f77b4;stroke-linecap:square;stroke-width:2;"/>
    </g>
    <g id="line2d_122"/>
    <g id="text_70">
     <!-- FF -->
     <g transform="translate(260.700792 575.378438)scale(0.1 -0.1)">
      <use xlink:href="#DejaVuSans-70"/>
      <use x="57.519531" xlink:href="#DejaVuSans-70"/>
     </g>
    </g>
    <g id="line2d_123">
     <path d="M 292.203917 571.878438 
L 312.203917 571.878438 
" style="fill:none;stroke:#ff7f0e;stroke-linecap:square;stroke-width:2;"/>
    </g>
    <g id="line2d_124"/>
    <g id="text_71">
     <!-- FB -->
     <g transform="translate(320.203917 575.378438)scale(0.1 -0.1)">
      <use xlink:href="#DejaVuSans-70"/>
      <use x="57.519531" xlink:href="#DejaVuSans-66"/>
     </g>
    </g>
    <g id="line2d_125">
     <path d="M 352.816417 571.878438 
L 372.816417 571.878438 
" style="fill:none;stroke:#2ca02c;stroke-linecap:square;stroke-width:2;"/>
    </g>
    <g id="line2d_126"/>
    <g id="text_72">
     <!-- FB p -->
     <g transform="translate(380.816417 575.378438)scale(0.1 -0.1)">
      <use xlink:href="#DejaVuSans-70"/>
      <use x="57.519531" xlink:href="#DejaVuSans-66"/>
      <use x="126.123047" xlink:href="#DejaVuSans-32"/>
      <use x="157.910156" xlink:href="#DejaVuSans-112"/>
     </g>
    </g>
    <g id="line2d_127">
     <path d="M 422.95548 571.878438 
L 442.95548 571.878438 
" style="fill:none;stroke:#d62728;stroke-linecap:square;stroke-width:2;"/>
    </g>
    <g id="line2d_128"/>
    <g id="text_73">
     <!-- FB i -->
     <g transform="translate(450.95548 575.378438)scale(0.1 -0.1)">
      <use xlink:href="#DejaVuSans-70"/>
      <use x="57.519531" xlink:href="#DejaVuSans-66"/>
      <use x="126.123047" xlink:href="#DejaVuSans-32"/>
      <use x="157.910156" xlink:href="#DejaVuSans-105"/>
     </g>
    </g>
    <g id="line2d_129">
     <path d="M 489.52423 571.878438 
L 509.52423 571.878438 
" style="fill:none;stroke:#9467bd;stroke-linecap:square;stroke-width:2;"/>
    </g>
    <g id="line2d_130"/>
    <g id="text_74">
     <!-- FF+FB -->
     <g transform="translate(517.52423 575.378438)scale(0.1 -0.1)">
      <use xlink:href="#DejaVuSans-70"/>
      <use x="57.519531" xlink:href="#DejaVuSans-70"/>
      <use x="115.039062" xlink:href="#DejaVuSans-43"/>
      <use x="198.828125" xlink:href="#DejaVuSans-70"/>
      <use x="256.347656" xlink:href="#DejaVuSans-66"/>
     </g>
    </g>
   </g>
  </g>
 </g>
 <defs>
  <clipPath id="p52295b71ea">
   <rect height="119.26" width="511.557765" x="47.461777" y="26.88"/>
  </clipPath>
  <clipPath id="p540b1be8fd">
   <rect height="119.26" width="511.557765" x="47.461777" y="204.18"/>
  </clipPath>
  <clipPath id="pc244d0745b">
   <rect height="119.26" width="511.557765" x="47.461777" y="381.48"/>
  </clipPath>
  <clipPath id="pb53cc790d6">
   <rect height="119.26" width="511.557765" x="47.461777" y="558.78"/>
  </clipPath>
 </defs>
</svg>
