<?xml version="1.0" encoding="utf-8" standalone="no"?>
<!DOCTYPE svg PUBLIC "-//W3C//DTD SVG 1.1//EN"
  "http://www.w3.org/Graphics/SVG/1.1/DTD/svg11.dtd">
<!-- Created with matplotlib (https://matplotlib.org/) -->
<svg height="720pt" version="1.1" viewBox="0 0 576 720" width="576pt" xmlns="http://www.w3.org/2000/svg" xmlns:xlink="http://www.w3.org/1999/xlink">
 <defs>
  <style type="text/css">
*{stroke-linecap:butt;stroke-linejoin:round;}
  </style>
 </defs>
 <g id="figure_1">
  <g id="patch_1">
   <path d="M 0 720 
L 576 720 
L 576 0 
L 0 0 
z
" style="fill:#ffffff;"/>
  </g>
  <g id="axes_1">
   <g id="patch_2">
    <path d="M 56.847002 146.14 
L 559.019542 146.14 
L 559.019542 26.88 
L 56.847002 26.88 
z
" style="fill:#ffffff;"/>
   </g>
   <g id="matplotlib.axis_1">
    <g id="xtick_1">
     <g id="line2d_1">
      <path clip-path="url(#pa6cde6ac58)" d="M 79.673027 146.14 
L 79.673027 26.88 
" style="fill:none;stroke:#b0b0b0;stroke-linecap:square;stroke-width:0.8;"/>
     </g>
     <g id="line2d_2">
      <defs>
       <path d="M 0 0 
L 0 3.5 
" id="md9aa192914" style="stroke:#000000;stroke-width:0.8;"/>
      </defs>
      <g>
       <use style="stroke:#000000;stroke-width:0.8;" x="79.673027" xlink:href="#md9aa192914" y="146.14"/>
      </g>
     </g>
     <g id="text_1">
      <!-- 0.00 -->
      <defs>
       <path d="M 31.78125 66.40625 
Q 24.171875 66.40625 20.328125 58.90625 
Q 16.5 51.421875 16.5 36.375 
Q 16.5 21.390625 20.328125 13.890625 
Q 24.171875 6.390625 31.78125 6.390625 
Q 39.453125 6.390625 43.28125 13.890625 
Q 47.125 21.390625 47.125 36.375 
Q 47.125 51.421875 43.28125 58.90625 
Q 39.453125 66.40625 31.78125 66.40625 
z
M 31.78125 74.21875 
Q 44.046875 74.21875 50.515625 64.515625 
Q 56.984375 54.828125 56.984375 36.375 
Q 56.984375 17.96875 50.515625 8.265625 
Q 44.046875 -1.421875 31.78125 -1.421875 
Q 19.53125 -1.421875 13.0625 8.265625 
Q 6.59375 17.96875 6.59375 36.375 
Q 6.59375 54.828125 13.0625 64.515625 
Q 19.53125 74.21875 31.78125 74.21875 
z
" id="DejaVuSans-48"/>
       <path d="M 10.6875 12.40625 
L 21 12.40625 
L 21 0 
L 10.6875 0 
z
" id="DejaVuSans-46"/>
      </defs>
      <g transform="translate(68.540214 160.738438)scale(0.1 -0.1)">
       <use xlink:href="#DejaVuSans-48"/>
       <use x="63.623047" xlink:href="#DejaVuSans-46"/>
       <use x="95.410156" xlink:href="#DejaVuSans-48"/>
       <use x="159.033203" xlink:href="#DejaVuSans-48"/>
      </g>
     </g>
    </g>
    <g id="xtick_2">
     <g id="line2d_3">
      <path clip-path="url(#pa6cde6ac58)" d="M 158.65581 146.14 
L 158.65581 26.88 
" style="fill:none;stroke:#b0b0b0;stroke-linecap:square;stroke-width:0.8;"/>
     </g>
     <g id="line2d_4">
      <g>
       <use style="stroke:#000000;stroke-width:0.8;" x="158.65581" xlink:href="#md9aa192914" y="146.14"/>
      </g>
     </g>
     <g id="text_2">
      <!-- 0.05 -->
      <defs>
       <path d="M 10.796875 72.90625 
L 49.515625 72.90625 
L 49.515625 64.59375 
L 19.828125 64.59375 
L 19.828125 46.734375 
Q 21.96875 47.46875 24.109375 47.828125 
Q 26.265625 48.1875 28.421875 48.1875 
Q 40.625 48.1875 47.75 41.5 
Q 54.890625 34.8125 54.890625 23.390625 
Q 54.890625 11.625 47.5625 5.09375 
Q 40.234375 -1.421875 26.90625 -1.421875 
Q 22.3125 -1.421875 17.546875 -0.640625 
Q 12.796875 0.140625 7.71875 1.703125 
L 7.71875 11.625 
Q 12.109375 9.234375 16.796875 8.0625 
Q 21.484375 6.890625 26.703125 6.890625 
Q 35.15625 6.890625 40.078125 11.328125 
Q 45.015625 15.765625 45.015625 23.390625 
Q 45.015625 31 40.078125 35.4375 
Q 35.15625 39.890625 26.703125 39.890625 
Q 22.75 39.890625 18.8125 39.015625 
Q 14.890625 38.140625 10.796875 36.28125 
z
" id="DejaVuSans-53"/>
      </defs>
      <g transform="translate(147.522998 160.738438)scale(0.1 -0.1)">
       <use xlink:href="#DejaVuSans-48"/>
       <use x="63.623047" xlink:href="#DejaVuSans-46"/>
       <use x="95.410156" xlink:href="#DejaVuSans-48"/>
       <use x="159.033203" xlink:href="#DejaVuSans-53"/>
      </g>
     </g>
    </g>
    <g id="xtick_3">
     <g id="line2d_5">
      <path clip-path="url(#pa6cde6ac58)" d="M 237.638594 146.14 
L 237.638594 26.88 
" style="fill:none;stroke:#b0b0b0;stroke-linecap:square;stroke-width:0.8;"/>
     </g>
     <g id="line2d_6">
      <g>
       <use style="stroke:#000000;stroke-width:0.8;" x="237.638594" xlink:href="#md9aa192914" y="146.14"/>
      </g>
     </g>
     <g id="text_3">
      <!-- 0.10 -->
      <defs>
       <path d="M 12.40625 8.296875 
L 28.515625 8.296875 
L 28.515625 63.921875 
L 10.984375 60.40625 
L 10.984375 69.390625 
L 28.421875 72.90625 
L 38.28125 72.90625 
L 38.28125 8.296875 
L 54.390625 8.296875 
L 54.390625 0 
L 12.40625 0 
z
" id="DejaVuSans-49"/>
      </defs>
      <g transform="translate(226.505782 160.738438)scale(0.1 -0.1)">
       <use xlink:href="#DejaVuSans-48"/>
       <use x="63.623047" xlink:href="#DejaVuSans-46"/>
       <use x="95.410156" xlink:href="#DejaVuSans-49"/>
       <use x="159.033203" xlink:href="#DejaVuSans-48"/>
      </g>
     </g>
    </g>
    <g id="xtick_4">
     <g id="line2d_7">
      <path clip-path="url(#pa6cde6ac58)" d="M 316.621378 146.14 
L 316.621378 26.88 
" style="fill:none;stroke:#b0b0b0;stroke-linecap:square;stroke-width:0.8;"/>
     </g>
     <g id="line2d_8">
      <g>
       <use style="stroke:#000000;stroke-width:0.8;" x="316.621378" xlink:href="#md9aa192914" y="146.14"/>
      </g>
     </g>
     <g id="text_4">
      <!-- 0.15 -->
      <g transform="translate(305.488566 160.738438)scale(0.1 -0.1)">
       <use xlink:href="#DejaVuSans-48"/>
       <use x="63.623047" xlink:href="#DejaVuSans-46"/>
       <use x="95.410156" xlink:href="#DejaVuSans-49"/>
       <use x="159.033203" xlink:href="#DejaVuSans-53"/>
      </g>
     </g>
    </g>
    <g id="xtick_5">
     <g id="line2d_9">
      <path clip-path="url(#pa6cde6ac58)" d="M 395.604162 146.14 
L 395.604162 26.88 
" style="fill:none;stroke:#b0b0b0;stroke-linecap:square;stroke-width:0.8;"/>
     </g>
     <g id="line2d_10">
      <g>
       <use style="stroke:#000000;stroke-width:0.8;" x="395.604162" xlink:href="#md9aa192914" y="146.14"/>
      </g>
     </g>
     <g id="text_5">
      <!-- 0.20 -->
      <defs>
       <path d="M 19.1875 8.296875 
L 53.609375 8.296875 
L 53.609375 0 
L 7.328125 0 
L 7.328125 8.296875 
Q 12.9375 14.109375 22.625 23.890625 
Q 32.328125 33.6875 34.8125 36.53125 
Q 39.546875 41.84375 41.421875 45.53125 
Q 43.3125 49.21875 43.3125 52.78125 
Q 43.3125 58.59375 39.234375 62.25 
Q 35.15625 65.921875 28.609375 65.921875 
Q 23.96875 65.921875 18.8125 64.3125 
Q 13.671875 62.703125 7.8125 59.421875 
L 7.8125 69.390625 
Q 13.765625 71.78125 18.9375 73 
Q 24.125 74.21875 28.421875 74.21875 
Q 39.75 74.21875 46.484375 68.546875 
Q 53.21875 62.890625 53.21875 53.421875 
Q 53.21875 48.921875 51.53125 44.890625 
Q 49.859375 40.875 45.40625 35.40625 
Q 44.1875 33.984375 37.640625 27.21875 
Q 31.109375 20.453125 19.1875 8.296875 
z
" id="DejaVuSans-50"/>
      </defs>
      <g transform="translate(384.47135 160.738438)scale(0.1 -0.1)">
       <use xlink:href="#DejaVuSans-48"/>
       <use x="63.623047" xlink:href="#DejaVuSans-46"/>
       <use x="95.410156" xlink:href="#DejaVuSans-50"/>
       <use x="159.033203" xlink:href="#DejaVuSans-48"/>
      </g>
     </g>
    </g>
    <g id="xtick_6">
     <g id="line2d_11">
      <path clip-path="url(#pa6cde6ac58)" d="M 474.586946 146.14 
L 474.586946 26.88 
" style="fill:none;stroke:#b0b0b0;stroke-linecap:square;stroke-width:0.8;"/>
     </g>
     <g id="line2d_12">
      <g>
       <use style="stroke:#000000;stroke-width:0.8;" x="474.586946" xlink:href="#md9aa192914" y="146.14"/>
      </g>
     </g>
     <g id="text_6">
      <!-- 0.25 -->
      <g transform="translate(463.454134 160.738438)scale(0.1 -0.1)">
       <use xlink:href="#DejaVuSans-48"/>
       <use x="63.623047" xlink:href="#DejaVuSans-46"/>
       <use x="95.410156" xlink:href="#DejaVuSans-50"/>
       <use x="159.033203" xlink:href="#DejaVuSans-53"/>
      </g>
     </g>
    </g>
    <g id="xtick_7">
     <g id="line2d_13">
      <path clip-path="url(#pa6cde6ac58)" d="M 553.56973 146.14 
L 553.56973 26.88 
" style="fill:none;stroke:#b0b0b0;stroke-linecap:square;stroke-width:0.8;"/>
     </g>
     <g id="line2d_14">
      <g>
       <use style="stroke:#000000;stroke-width:0.8;" x="553.56973" xlink:href="#md9aa192914" y="146.14"/>
      </g>
     </g>
     <g id="text_7">
      <!-- 0.30 -->
      <defs>
       <path d="M 40.578125 39.3125 
Q 47.65625 37.796875 51.625 33 
Q 55.609375 28.21875 55.609375 21.1875 
Q 55.609375 10.40625 48.1875 4.484375 
Q 40.765625 -1.421875 27.09375 -1.421875 
Q 22.515625 -1.421875 17.65625 -0.515625 
Q 12.796875 0.390625 7.625 2.203125 
L 7.625 11.71875 
Q 11.71875 9.328125 16.59375 8.109375 
Q 21.484375 6.890625 26.8125 6.890625 
Q 36.078125 6.890625 40.9375 10.546875 
Q 45.796875 14.203125 45.796875 21.1875 
Q 45.796875 27.640625 41.28125 31.265625 
Q 36.765625 34.90625 28.71875 34.90625 
L 20.21875 34.90625 
L 20.21875 43.015625 
L 29.109375 43.015625 
Q 36.375 43.015625 40.234375 45.921875 
Q 44.09375 48.828125 44.09375 54.296875 
Q 44.09375 59.90625 40.109375 62.90625 
Q 36.140625 65.921875 28.71875 65.921875 
Q 24.65625 65.921875 20.015625 65.03125 
Q 15.375 64.15625 9.8125 62.3125 
L 9.8125 71.09375 
Q 15.4375 72.65625 20.34375 73.4375 
Q 25.25 74.21875 29.59375 74.21875 
Q 40.828125 74.21875 47.359375 69.109375 
Q 53.90625 64.015625 53.90625 55.328125 
Q 53.90625 49.265625 50.4375 45.09375 
Q 46.96875 40.921875 40.578125 39.3125 
z
" id="DejaVuSans-51"/>
      </defs>
      <g transform="translate(542.436918 160.738438)scale(0.1 -0.1)">
       <use xlink:href="#DejaVuSans-48"/>
       <use x="63.623047" xlink:href="#DejaVuSans-46"/>
       <use x="95.410156" xlink:href="#DejaVuSans-51"/>
       <use x="159.033203" xlink:href="#DejaVuSans-48"/>
      </g>
     </g>
    </g>
    <g id="text_8">
     <!-- Time [ms] -->
     <defs>
      <path d="M -0.296875 72.90625 
L 61.375 72.90625 
L 61.375 64.59375 
L 35.5 64.59375 
L 35.5 0 
L 25.59375 0 
L 25.59375 64.59375 
L -0.296875 64.59375 
z
" id="DejaVuSans-84"/>
      <path d="M 9.421875 54.6875 
L 18.40625 54.6875 
L 18.40625 0 
L 9.421875 0 
z
M 9.421875 75.984375 
L 18.40625 75.984375 
L 18.40625 64.59375 
L 9.421875 64.59375 
z
" id="DejaVuSans-105"/>
      <path d="M 52 44.1875 
Q 55.375 50.25 60.0625 53.125 
Q 64.75 56 71.09375 56 
Q 79.640625 56 84.28125 50.015625 
Q 88.921875 44.046875 88.921875 33.015625 
L 88.921875 0 
L 79.890625 0 
L 79.890625 32.71875 
Q 79.890625 40.578125 77.09375 44.375 
Q 74.3125 48.1875 68.609375 48.1875 
Q 61.625 48.1875 57.5625 43.546875 
Q 53.515625 38.921875 53.515625 30.90625 
L 53.515625 0 
L 44.484375 0 
L 44.484375 32.71875 
Q 44.484375 40.625 41.703125 44.40625 
Q 38.921875 48.1875 33.109375 48.1875 
Q 26.21875 48.1875 22.15625 43.53125 
Q 18.109375 38.875 18.109375 30.90625 
L 18.109375 0 
L 9.078125 0 
L 9.078125 54.6875 
L 18.109375 54.6875 
L 18.109375 46.1875 
Q 21.1875 51.21875 25.484375 53.609375 
Q 29.78125 56 35.6875 56 
Q 41.65625 56 45.828125 52.96875 
Q 50 49.953125 52 44.1875 
z
" id="DejaVuSans-109"/>
      <path d="M 56.203125 29.59375 
L 56.203125 25.203125 
L 14.890625 25.203125 
Q 15.484375 15.921875 20.484375 11.0625 
Q 25.484375 6.203125 34.421875 6.203125 
Q 39.59375 6.203125 44.453125 7.46875 
Q 49.3125 8.734375 54.109375 11.28125 
L 54.109375 2.78125 
Q 49.265625 0.734375 44.1875 -0.34375 
Q 39.109375 -1.421875 33.890625 -1.421875 
Q 20.796875 -1.421875 13.15625 6.1875 
Q 5.515625 13.8125 5.515625 26.8125 
Q 5.515625 40.234375 12.765625 48.109375 
Q 20.015625 56 32.328125 56 
Q 43.359375 56 49.78125 48.890625 
Q 56.203125 41.796875 56.203125 29.59375 
z
M 47.21875 32.234375 
Q 47.125 39.59375 43.09375 43.984375 
Q 39.0625 48.390625 32.421875 48.390625 
Q 24.90625 48.390625 20.390625 44.140625 
Q 15.875 39.890625 15.1875 32.171875 
z
" id="DejaVuSans-101"/>
      <path id="DejaVuSans-32"/>
      <path d="M 8.59375 75.984375 
L 29.296875 75.984375 
L 29.296875 69 
L 17.578125 69 
L 17.578125 -6.203125 
L 29.296875 -6.203125 
L 29.296875 -13.1875 
L 8.59375 -13.1875 
z
" id="DejaVuSans-91"/>
      <path d="M 44.28125 53.078125 
L 44.28125 44.578125 
Q 40.484375 46.53125 36.375 47.5 
Q 32.28125 48.484375 27.875 48.484375 
Q 21.1875 48.484375 17.84375 46.4375 
Q 14.5 44.390625 14.5 40.28125 
Q 14.5 37.15625 16.890625 35.375 
Q 19.28125 33.59375 26.515625 31.984375 
L 29.59375 31.296875 
Q 39.15625 29.25 43.1875 25.515625 
Q 47.21875 21.78125 47.21875 15.09375 
Q 47.21875 7.46875 41.1875 3.015625 
Q 35.15625 -1.421875 24.609375 -1.421875 
Q 20.21875 -1.421875 15.453125 -0.5625 
Q 10.6875 0.296875 5.421875 2 
L 5.421875 11.28125 
Q 10.40625 8.6875 15.234375 7.390625 
Q 20.0625 6.109375 24.8125 6.109375 
Q 31.15625 6.109375 34.5625 8.28125 
Q 37.984375 10.453125 37.984375 14.40625 
Q 37.984375 18.0625 35.515625 20.015625 
Q 33.0625 21.96875 24.703125 23.78125 
L 21.578125 24.515625 
Q 13.234375 26.265625 9.515625 29.90625 
Q 5.8125 33.546875 5.8125 39.890625 
Q 5.8125 47.609375 11.28125 51.796875 
Q 16.75 56 26.8125 56 
Q 31.78125 56 36.171875 55.265625 
Q 40.578125 54.546875 44.28125 53.078125 
z
" id="DejaVuSans-115"/>
      <path d="M 30.421875 75.984375 
L 30.421875 -13.1875 
L 9.71875 -13.1875 
L 9.71875 -6.203125 
L 21.390625 -6.203125 
L 21.390625 69 
L 9.71875 69 
L 9.71875 75.984375 
z
" id="DejaVuSans-93"/>
     </defs>
     <g transform="translate(282.734053 174.416563)scale(0.1 -0.1)">
      <use xlink:href="#DejaVuSans-84"/>
      <use x="57.958984" xlink:href="#DejaVuSans-105"/>
      <use x="85.742188" xlink:href="#DejaVuSans-109"/>
      <use x="183.154297" xlink:href="#DejaVuSans-101"/>
      <use x="244.677734" xlink:href="#DejaVuSans-32"/>
      <use x="276.464844" xlink:href="#DejaVuSans-91"/>
      <use x="315.478516" xlink:href="#DejaVuSans-109"/>
      <use x="412.890625" xlink:href="#DejaVuSans-115"/>
      <use x="464.990234" xlink:href="#DejaVuSans-93"/>
     </g>
    </g>
   </g>
   <g id="matplotlib.axis_2">
    <g id="ytick_1">
     <g id="line2d_15">
      <path clip-path="url(#pa6cde6ac58)" d="M 56.847002 136.941765 
L 559.019542 136.941765 
" style="fill:none;stroke:#b0b0b0;stroke-linecap:square;stroke-width:0.8;"/>
     </g>
     <g id="line2d_16">
      <defs>
       <path d="M 0 0 
L -3.5 0 
" id="m5137d60127" style="stroke:#000000;stroke-width:0.8;"/>
      </defs>
      <g>
       <use style="stroke:#000000;stroke-width:0.8;" x="56.847002" xlink:href="#m5137d60127" y="136.941765"/>
      </g>
     </g>
     <g id="text_9">
      <!-- $\mathdefault{−1}$ -->
      <defs>
       <path d="M 10.59375 35.5 
L 73.1875 35.5 
L 73.1875 27.203125 
L 10.59375 27.203125 
z
" id="DejaVuSans-8722"/>
      </defs>
      <g transform="translate(35.047002 140.740984)scale(0.1 -0.1)">
       <use transform="translate(0 0.09375)" xlink:href="#DejaVuSans-8722"/>
       <use transform="translate(83.789062 0.09375)" xlink:href="#DejaVuSans-49"/>
      </g>
     </g>
    </g>
    <g id="ytick_2">
     <g id="line2d_17">
      <path clip-path="url(#pa6cde6ac58)" d="M 56.847002 96.368983 
L 559.019542 96.368983 
" style="fill:none;stroke:#b0b0b0;stroke-linecap:square;stroke-width:0.8;"/>
     </g>
     <g id="line2d_18">
      <g>
       <use style="stroke:#000000;stroke-width:0.8;" x="56.847002" xlink:href="#m5137d60127" y="96.368983"/>
      </g>
     </g>
     <g id="text_10">
      <!-- $\mathdefault{0}$ -->
      <g transform="translate(43.447002 100.168202)scale(0.1 -0.1)">
       <use transform="translate(0 0.78125)" xlink:href="#DejaVuSans-48"/>
      </g>
     </g>
    </g>
    <g id="ytick_3">
     <g id="line2d_19">
      <path clip-path="url(#pa6cde6ac58)" d="M 56.847002 55.796201 
L 559.019542 55.796201 
" style="fill:none;stroke:#b0b0b0;stroke-linecap:square;stroke-width:0.8;"/>
     </g>
     <g id="line2d_20">
      <g>
       <use style="stroke:#000000;stroke-width:0.8;" x="56.847002" xlink:href="#m5137d60127" y="55.796201"/>
      </g>
     </g>
     <g id="text_11">
      <!-- $\mathdefault{1}$ -->
      <g transform="translate(43.447002 59.59542)scale(0.1 -0.1)">
       <use transform="translate(0 0.09375)" xlink:href="#DejaVuSans-49"/>
      </g>
     </g>
    </g>
    <g id="text_12">
     <!-- vel. [m/s] -->
     <defs>
      <path d="M 2.984375 54.6875 
L 12.5 54.6875 
L 29.59375 8.796875 
L 46.6875 54.6875 
L 56.203125 54.6875 
L 35.6875 0 
L 23.484375 0 
z
" id="DejaVuSans-118"/>
      <path d="M 9.421875 75.984375 
L 18.40625 75.984375 
L 18.40625 0 
L 9.421875 0 
z
" id="DejaVuSans-108"/>
      <path d="M 25.390625 72.90625 
L 33.6875 72.90625 
L 8.296875 -9.28125 
L 0 -9.28125 
z
" id="DejaVuSans-47"/>
     </defs>
     <g transform="translate(28.967314 110.174063)rotate(-90)scale(0.1 -0.1)">
      <use xlink:href="#DejaVuSans-118"/>
      <use x="59.179688" xlink:href="#DejaVuSans-101"/>
      <use x="120.703125" xlink:href="#DejaVuSans-108"/>
      <use x="148.486328" xlink:href="#DejaVuSans-46"/>
      <use x="180.273438" xlink:href="#DejaVuSans-32"/>
      <use x="212.060547" xlink:href="#DejaVuSans-91"/>
      <use x="251.074219" xlink:href="#DejaVuSans-109"/>
      <use x="348.486328" xlink:href="#DejaVuSans-47"/>
      <use x="382.177734" xlink:href="#DejaVuSans-115"/>
      <use x="434.277344" xlink:href="#DejaVuSans-93"/>
     </g>
    </g>
    <g id="text_13">
     <!-- $\times\mathdefault{10^{1}}\mathdefault{}$ -->
     <defs>
      <path d="M 70.125 53.71875 
L 47.796875 31.296875 
L 70.125 8.984375 
L 64.3125 3.078125 
L 41.890625 25.484375 
L 19.484375 3.078125 
L 13.71875 8.984375 
L 35.984375 31.296875 
L 13.71875 53.71875 
L 19.484375 59.625 
L 41.890625 37.203125 
L 64.3125 59.625 
z
" id="DejaVuSans-215"/>
     </defs>
     <g transform="translate(56.847002 23.88)scale(0.1 -0.1)">
      <use transform="translate(0 0.684375)" xlink:href="#DejaVuSans-215"/>
      <use transform="translate(83.789062 0.684375)" xlink:href="#DejaVuSans-49"/>
      <use transform="translate(147.412109 0.684375)" xlink:href="#DejaVuSans-48"/>
      <use transform="translate(211.992188 38.965625)scale(0.7)" xlink:href="#DejaVuSans-49"/>
     </g>
    </g>
   </g>
   <g id="line2d_21">
    <path clip-path="url(#pa6cde6ac58)" d="M 79.673027 96.368983 
L 536.193518 96.368983 
L 536.193518 96.368983 
" style="fill:none;stroke:#1f77b4;stroke-linecap:square;stroke-width:2;"/>
   </g>
   <g id="line2d_22">
    <path clip-path="url(#pa6cde6ac58)" d="M 79.673027 96.368983 
L 82.832338 96.368983 
L 84.411994 91.439471 
L 85.991649 96.368983 
L 89.150961 96.368983 
L 90.730616 101.298495 
L 92.310272 101.298495 
L 93.889928 96.368983 
L 123.903386 96.368983 
L 125.483041 91.443326 
L 128.642353 101.298495 
L 131.801664 101.296547 
L 133.38132 96.370918 
L 134.960975 101.296547 
L 136.540631 101.296547 
L 138.120287 106.224152 
L 139.699942 106.224152 
L 141.279598 111.153664 
L 144.438909 111.155612 
L 146.018565 101.296547 
L 147.598221 106.229954 
L 149.177876 106.228007 
L 150.757532 111.151717 
L 152.337188 111.153664 
L 153.916843 101.292693 
L 155.496499 106.224152 
L 157.076155 101.296547 
L 158.65581 91.445273 
L 164.974433 91.439471 
L 166.554089 86.513854 
L 168.133745 91.439471 
L 169.7134 86.509959 
L 171.293056 91.443326 
L 172.872712 91.437524 
L 174.452367 81.580448 
L 176.032023 86.513814 
L 177.611679 81.584302 
L 179.191334 81.584302 
L 180.77099 86.511866 
L 182.350646 96.368983 
L 183.930301 81.584302 
L 185.509957 86.513814 
L 187.089613 86.51 
L 188.669268 76.648988 
L 190.248924 81.582355 
L 191.82858 81.584302 
L 193.408235 86.513814 
L 194.987891 86.509959 
L 196.567547 91.443326 
L 198.147202 81.586209 
L 199.726858 86.509959 
L 201.306514 86.513814 
L 202.886169 96.367033 
L 204.465825 86.509959 
L 206.045481 86.508945 
L 207.625137 91.443326 
L 209.204792 91.443326 
L 210.784448 96.367993 
L 212.364104 91.439471 
L 213.943759 101.302349 
L 215.523415 96.370902 
L 218.682726 106.227966 
L 220.262382 96.368983 
L 221.842038 101.295614 
L 223.421693 101.296588 
L 225.001349 111.153664 
L 226.581005 101.299509 
L 229.740316 111.155125 
L 231.319972 96.371429 
L 232.899627 101.299956 
L 234.479283 101.299956 
L 239.21825 86.515274 
L 240.797906 91.439715 
L 242.377561 91.438619 
L 243.957217 86.510243 
L 245.536873 91.442636 
L 248.696184 91.438741 
L 253.435151 76.658888 
L 255.014807 66.800879 
L 256.594463 71.73039 
L 258.174118 66.801081 
L 259.753774 66.799621 
L 261.33343 61.87157 
L 262.913085 61.871083 
L 264.492741 56.939177 
L 269.231708 56.934795 
L 270.811364 52.016035 
L 272.391019 52.014007 
L 275.550331 42.156038 
L 277.129986 52.014007 
L 278.709642 47.092122 
L 280.289298 47.086442 
L 281.868953 42.156038 
L 289.767232 42.157661 
L 291.346888 47.085631 
L 292.926543 42.149952 
L 296.085855 42.159689 
L 297.66551 52.014818 
L 299.245166 56.93869 
L 300.824822 47.079545 
L 303.984133 56.93869 
L 305.563789 52.009138 
L 308.7231 52.011166 
L 311.882411 61.872057 
L 316.621378 61.87015 
L 318.201034 71.723371 
L 322.940001 71.733028 
L 324.519657 86.508012 
L 326.099312 76.652883 
L 327.678968 81.586209 
L 329.258624 71.725278 
L 330.838279 76.65479 
L 332.417935 71.733028 
L 333.997591 76.658645 
L 337.156902 76.650936 
L 338.736558 71.729133 
L 340.316214 56.940597 
L 341.895869 71.733028 
L 343.475525 66.795766 
L 345.055181 56.944452 
L 346.634836 56.948347 
L 351.373803 42.156038 
L 352.953459 42.163747 
L 354.533115 37.230096 
L 356.11277 42.163747 
L 359.272082 42.156038 
L 360.851737 37.230096 
L 362.431393 37.230096 
L 364.011049 32.300909 
L 365.590704 37.226445 
L 368.750016 37.230096 
L 371.909327 47.081574 
L 375.068638 47.089282 
L 376.648294 52.018875 
L 378.22795 52.018875 
L 379.807606 56.940557 
L 381.387261 52.011166 
L 382.966917 61.870109 
L 384.546573 61.858505 
L 386.126228 66.799621 
L 387.705884 76.65479 
L 389.28554 71.733028 
L 390.865195 71.729133 
L 397.183818 91.451075 
L 400.343129 91.435617 
L 405.082096 106.224152 
L 406.661752 101.298495 
L 408.241408 106.224152 
L 409.821063 106.228007 
L 411.400719 111.145915 
L 416.139686 111.153664 
L 417.719342 121.008834 
L 419.298998 121.016583 
L 420.878653 116.08703 
L 422.458309 125.938345 
L 424.037965 125.934491 
L 425.61762 121.008834 
L 427.197276 121.016542 
L 428.776932 130.864003 
L 430.356587 125.930596 
L 431.936243 125.946095 
L 433.515899 135.797369 
L 435.095554 130.871712 
L 438.254866 130.867857 
L 439.834521 140.719091 
L 441.414177 135.778016 
L 442.993833 135.793515 
L 447.7328 121.004939 
L 450.892111 121.016583 
L 455.631078 106.224152 
L 457.210734 106.220257 
L 458.790389 96.353506 
L 460.370045 106.235756 
L 461.949701 96.361244 
L 463.529357 101.302349 
L 465.109012 91.439471 
L 466.688668 96.361244 
L 469.847979 96.368983 
L 471.427635 91.439471 
L 473.007291 96.376722 
L 474.586946 96.368983 
L 476.166602 91.439471 
L 477.746258 91.439471 
L 479.325913 96.368983 
L 490.383503 96.368983 
L 491.963159 101.298495 
L 493.542814 101.298495 
L 495.12247 91.439471 
L 496.702126 91.447221 
L 498.281781 96.368983 
L 517.23765 96.368983 
L 518.817305 86.525418 
L 520.396961 101.290746 
L 521.976617 96.368983 
L 536.193518 96.368983 
L 536.193518 96.368983 
" style="fill:none;stroke:#ff7f0e;stroke-linecap:square;stroke-width:2;"/>
   </g>
   <g id="patch_3">
    <path d="M 56.847002 146.14 
L 56.847002 26.88 
" style="fill:none;stroke:#000000;stroke-linecap:square;stroke-linejoin:miter;stroke-width:0.8;"/>
   </g>
   <g id="patch_4">
    <path d="M 559.019542 146.14 
L 559.019542 26.88 
" style="fill:none;stroke:#000000;stroke-linecap:square;stroke-linejoin:miter;stroke-width:0.8;"/>
   </g>
   <g id="patch_5">
    <path d="M 56.847002 146.14 
L 559.019542 146.14 
" style="fill:none;stroke:#000000;stroke-linecap:square;stroke-linejoin:miter;stroke-width:0.8;"/>
   </g>
   <g id="patch_6">
    <path d="M 56.847002 26.88 
L 559.019542 26.88 
" style="fill:none;stroke:#000000;stroke-linecap:square;stroke-linejoin:miter;stroke-width:0.8;"/>
   </g>
   <g id="text_14">
    <!-- Translational Velocity -->
    <defs>
     <path d="M 41.109375 46.296875 
Q 39.59375 47.171875 37.8125 47.578125 
Q 36.03125 48 33.890625 48 
Q 26.265625 48 22.1875 43.046875 
Q 18.109375 38.09375 18.109375 28.8125 
L 18.109375 0 
L 9.078125 0 
L 9.078125 54.6875 
L 18.109375 54.6875 
L 18.109375 46.1875 
Q 20.953125 51.171875 25.484375 53.578125 
Q 30.03125 56 36.53125 56 
Q 37.453125 56 38.578125 55.875 
Q 39.703125 55.765625 41.0625 55.515625 
z
" id="DejaVuSans-114"/>
     <path d="M 34.28125 27.484375 
Q 23.390625 27.484375 19.1875 25 
Q 14.984375 22.515625 14.984375 16.5 
Q 14.984375 11.71875 18.140625 8.90625 
Q 21.296875 6.109375 26.703125 6.109375 
Q 34.1875 6.109375 38.703125 11.40625 
Q 43.21875 16.703125 43.21875 25.484375 
L 43.21875 27.484375 
z
M 52.203125 31.203125 
L 52.203125 0 
L 43.21875 0 
L 43.21875 8.296875 
Q 40.140625 3.328125 35.546875 0.953125 
Q 30.953125 -1.421875 24.3125 -1.421875 
Q 15.921875 -1.421875 10.953125 3.296875 
Q 6 8.015625 6 15.921875 
Q 6 25.140625 12.171875 29.828125 
Q 18.359375 34.515625 30.609375 34.515625 
L 43.21875 34.515625 
L 43.21875 35.40625 
Q 43.21875 41.609375 39.140625 45 
Q 35.0625 48.390625 27.6875 48.390625 
Q 23 48.390625 18.546875 47.265625 
Q 14.109375 46.140625 10.015625 43.890625 
L 10.015625 52.203125 
Q 14.9375 54.109375 19.578125 55.046875 
Q 24.21875 56 28.609375 56 
Q 40.484375 56 46.34375 49.84375 
Q 52.203125 43.703125 52.203125 31.203125 
z
" id="DejaVuSans-97"/>
     <path d="M 54.890625 33.015625 
L 54.890625 0 
L 45.90625 0 
L 45.90625 32.71875 
Q 45.90625 40.484375 42.875 44.328125 
Q 39.84375 48.1875 33.796875 48.1875 
Q 26.515625 48.1875 22.3125 43.546875 
Q 18.109375 38.921875 18.109375 30.90625 
L 18.109375 0 
L 9.078125 0 
L 9.078125 54.6875 
L 18.109375 54.6875 
L 18.109375 46.1875 
Q 21.34375 51.125 25.703125 53.5625 
Q 30.078125 56 35.796875 56 
Q 45.21875 56 50.046875 50.171875 
Q 54.890625 44.34375 54.890625 33.015625 
z
" id="DejaVuSans-110"/>
     <path d="M 18.3125 70.21875 
L 18.3125 54.6875 
L 36.8125 54.6875 
L 36.8125 47.703125 
L 18.3125 47.703125 
L 18.3125 18.015625 
Q 18.3125 11.328125 20.140625 9.421875 
Q 21.96875 7.515625 27.59375 7.515625 
L 36.8125 7.515625 
L 36.8125 0 
L 27.59375 0 
Q 17.1875 0 13.234375 3.875 
Q 9.28125 7.765625 9.28125 18.015625 
L 9.28125 47.703125 
L 2.6875 47.703125 
L 2.6875 54.6875 
L 9.28125 54.6875 
L 9.28125 70.21875 
z
" id="DejaVuSans-116"/>
     <path d="M 30.609375 48.390625 
Q 23.390625 48.390625 19.1875 42.75 
Q 14.984375 37.109375 14.984375 27.296875 
Q 14.984375 17.484375 19.15625 11.84375 
Q 23.34375 6.203125 30.609375 6.203125 
Q 37.796875 6.203125 41.984375 11.859375 
Q 46.1875 17.53125 46.1875 27.296875 
Q 46.1875 37.015625 41.984375 42.703125 
Q 37.796875 48.390625 30.609375 48.390625 
z
M 30.609375 56 
Q 42.328125 56 49.015625 48.375 
Q 55.71875 40.765625 55.71875 27.296875 
Q 55.71875 13.875 49.015625 6.21875 
Q 42.328125 -1.421875 30.609375 -1.421875 
Q 18.84375 -1.421875 12.171875 6.21875 
Q 5.515625 13.875 5.515625 27.296875 
Q 5.515625 40.765625 12.171875 48.375 
Q 18.84375 56 30.609375 56 
z
" id="DejaVuSans-111"/>
     <path d="M 28.609375 0 
L 0.78125 72.90625 
L 11.078125 72.90625 
L 34.1875 11.53125 
L 57.328125 72.90625 
L 67.578125 72.90625 
L 39.796875 0 
z
" id="DejaVuSans-86"/>
     <path d="M 48.78125 52.59375 
L 48.78125 44.1875 
Q 44.96875 46.296875 41.140625 47.34375 
Q 37.3125 48.390625 33.40625 48.390625 
Q 24.65625 48.390625 19.8125 42.84375 
Q 14.984375 37.3125 14.984375 27.296875 
Q 14.984375 17.28125 19.8125 11.734375 
Q 24.65625 6.203125 33.40625 6.203125 
Q 37.3125 6.203125 41.140625 7.25 
Q 44.96875 8.296875 48.78125 10.40625 
L 48.78125 2.09375 
Q 45.015625 0.34375 40.984375 -0.53125 
Q 36.96875 -1.421875 32.421875 -1.421875 
Q 20.0625 -1.421875 12.78125 6.34375 
Q 5.515625 14.109375 5.515625 27.296875 
Q 5.515625 40.671875 12.859375 48.328125 
Q 20.21875 56 33.015625 56 
Q 37.15625 56 41.109375 55.140625 
Q 45.0625 54.296875 48.78125 52.59375 
z
" id="DejaVuSans-99"/>
     <path d="M 32.171875 -5.078125 
Q 28.375 -14.84375 24.75 -17.8125 
Q 21.140625 -20.796875 15.09375 -20.796875 
L 7.90625 -20.796875 
L 7.90625 -13.28125 
L 13.1875 -13.28125 
Q 16.890625 -13.28125 18.9375 -11.515625 
Q 21 -9.765625 23.484375 -3.21875 
L 25.09375 0.875 
L 2.984375 54.6875 
L 12.5 54.6875 
L 29.59375 11.921875 
L 46.6875 54.6875 
L 56.203125 54.6875 
z
" id="DejaVuSans-121"/>
    </defs>
    <g transform="translate(244.456085 20.88)scale(0.12 -0.12)">
     <use xlink:href="#DejaVuSans-84"/>
     <use x="46.333984" xlink:href="#DejaVuSans-114"/>
     <use x="87.447266" xlink:href="#DejaVuSans-97"/>
     <use x="148.726562" xlink:href="#DejaVuSans-110"/>
     <use x="212.105469" xlink:href="#DejaVuSans-115"/>
     <use x="264.205078" xlink:href="#DejaVuSans-108"/>
     <use x="291.988281" xlink:href="#DejaVuSans-97"/>
     <use x="353.267578" xlink:href="#DejaVuSans-116"/>
     <use x="392.476562" xlink:href="#DejaVuSans-105"/>
     <use x="420.259766" xlink:href="#DejaVuSans-111"/>
     <use x="481.441406" xlink:href="#DejaVuSans-110"/>
     <use x="544.820312" xlink:href="#DejaVuSans-97"/>
     <use x="606.099609" xlink:href="#DejaVuSans-108"/>
     <use x="633.882812" xlink:href="#DejaVuSans-32"/>
     <use x="665.669922" xlink:href="#DejaVuSans-86"/>
     <use x="726.328125" xlink:href="#DejaVuSans-101"/>
     <use x="787.851562" xlink:href="#DejaVuSans-108"/>
     <use x="815.634766" xlink:href="#DejaVuSans-111"/>
     <use x="876.816406" xlink:href="#DejaVuSans-99"/>
     <use x="931.796875" xlink:href="#DejaVuSans-105"/>
     <use x="959.580078" xlink:href="#DejaVuSans-116"/>
     <use x="998.789062" xlink:href="#DejaVuSans-121"/>
    </g>
   </g>
   <g id="legend_1">
    <g id="patch_7">
     <path d="M 469.502355 64.23625 
L 552.019542 64.23625 
Q 554.019542 64.23625 554.019542 62.23625 
L 554.019542 33.88 
Q 554.019542 31.88 552.019542 31.88 
L 469.502355 31.88 
Q 467.502355 31.88 467.502355 33.88 
L 467.502355 62.23625 
Q 467.502355 64.23625 469.502355 64.23625 
z
" style="fill:#ffffff;opacity:0.8;stroke:#cccccc;stroke-linejoin:miter;"/>
    </g>
    <g id="line2d_23">
     <path d="M 471.502355 39.978438 
L 491.502355 39.978438 
" style="fill:none;stroke:#1f77b4;stroke-linecap:square;stroke-width:2;"/>
    </g>
    <g id="line2d_24"/>
    <g id="text_15">
     <!-- Reference -->
     <defs>
      <path d="M 44.390625 34.1875 
Q 47.5625 33.109375 50.5625 29.59375 
Q 53.5625 26.078125 56.59375 19.921875 
L 66.609375 0 
L 56 0 
L 46.6875 18.703125 
Q 43.0625 26.03125 39.671875 28.421875 
Q 36.28125 30.8125 30.421875 30.8125 
L 19.671875 30.8125 
L 19.671875 0 
L 9.8125 0 
L 9.8125 72.90625 
L 32.078125 72.90625 
Q 44.578125 72.90625 50.734375 67.671875 
Q 56.890625 62.453125 56.890625 51.90625 
Q 56.890625 45.015625 53.6875 40.46875 
Q 50.484375 35.9375 44.390625 34.1875 
z
M 19.671875 64.796875 
L 19.671875 38.921875 
L 32.078125 38.921875 
Q 39.203125 38.921875 42.84375 42.21875 
Q 46.484375 45.515625 46.484375 51.90625 
Q 46.484375 58.296875 42.84375 61.546875 
Q 39.203125 64.796875 32.078125 64.796875 
z
" id="DejaVuSans-82"/>
      <path d="M 37.109375 75.984375 
L 37.109375 68.5 
L 28.515625 68.5 
Q 23.6875 68.5 21.796875 66.546875 
Q 19.921875 64.59375 19.921875 59.515625 
L 19.921875 54.6875 
L 34.71875 54.6875 
L 34.71875 47.703125 
L 19.921875 47.703125 
L 19.921875 0 
L 10.890625 0 
L 10.890625 47.703125 
L 2.296875 47.703125 
L 2.296875 54.6875 
L 10.890625 54.6875 
L 10.890625 58.5 
Q 10.890625 67.625 15.140625 71.796875 
Q 19.390625 75.984375 28.609375 75.984375 
z
" id="DejaVuSans-102"/>
     </defs>
     <g transform="translate(499.502355 43.478438)scale(0.1 -0.1)">
      <use xlink:href="#DejaVuSans-82"/>
      <use x="64.982422" xlink:href="#DejaVuSans-101"/>
      <use x="126.505859" xlink:href="#DejaVuSans-102"/>
      <use x="161.710938" xlink:href="#DejaVuSans-101"/>
      <use x="223.234375" xlink:href="#DejaVuSans-114"/>
      <use x="262.097656" xlink:href="#DejaVuSans-101"/>
      <use x="323.621094" xlink:href="#DejaVuSans-110"/>
      <use x="387" xlink:href="#DejaVuSans-99"/>
      <use x="441.980469" xlink:href="#DejaVuSans-101"/>
     </g>
    </g>
    <g id="line2d_25">
     <path d="M 471.502355 54.656563 
L 491.502355 54.656563 
" style="fill:none;stroke:#ff7f0e;stroke-linecap:square;stroke-width:2;"/>
    </g>
    <g id="line2d_26"/>
    <g id="text_16">
     <!-- Estimated -->
     <defs>
      <path d="M 9.8125 72.90625 
L 55.90625 72.90625 
L 55.90625 64.59375 
L 19.671875 64.59375 
L 19.671875 43.015625 
L 54.390625 43.015625 
L 54.390625 34.71875 
L 19.671875 34.71875 
L 19.671875 8.296875 
L 56.78125 8.296875 
L 56.78125 0 
L 9.8125 0 
z
" id="DejaVuSans-69"/>
      <path d="M 45.40625 46.390625 
L 45.40625 75.984375 
L 54.390625 75.984375 
L 54.390625 0 
L 45.40625 0 
L 45.40625 8.203125 
Q 42.578125 3.328125 38.25 0.953125 
Q 33.9375 -1.421875 27.875 -1.421875 
Q 17.96875 -1.421875 11.734375 6.484375 
Q 5.515625 14.40625 5.515625 27.296875 
Q 5.515625 40.1875 11.734375 48.09375 
Q 17.96875 56 27.875 56 
Q 33.9375 56 38.25 53.625 
Q 42.578125 51.265625 45.40625 46.390625 
z
M 14.796875 27.296875 
Q 14.796875 17.390625 18.875 11.75 
Q 22.953125 6.109375 30.078125 6.109375 
Q 37.203125 6.109375 41.296875 11.75 
Q 45.40625 17.390625 45.40625 27.296875 
Q 45.40625 37.203125 41.296875 42.84375 
Q 37.203125 48.484375 30.078125 48.484375 
Q 22.953125 48.484375 18.875 42.84375 
Q 14.796875 37.203125 14.796875 27.296875 
z
" id="DejaVuSans-100"/>
     </defs>
     <g transform="translate(499.502355 58.156563)scale(0.1 -0.1)">
      <use xlink:href="#DejaVuSans-69"/>
      <use x="63.183594" xlink:href="#DejaVuSans-115"/>
      <use x="115.283203" xlink:href="#DejaVuSans-116"/>
      <use x="154.492188" xlink:href="#DejaVuSans-105"/>
      <use x="182.275391" xlink:href="#DejaVuSans-109"/>
      <use x="279.6875" xlink:href="#DejaVuSans-97"/>
      <use x="340.966797" xlink:href="#DejaVuSans-116"/>
      <use x="380.175781" xlink:href="#DejaVuSans-101"/>
      <use x="441.699219" xlink:href="#DejaVuSans-100"/>
     </g>
    </g>
   </g>
  </g>
  <g id="axes_2">
   <g id="patch_8">
    <path d="M 56.847002 323.44 
L 559.019542 323.44 
L 559.019542 204.18 
L 56.847002 204.18 
z
" style="fill:#ffffff;"/>
   </g>
   <g id="matplotlib.axis_3">
    <g id="xtick_8">
     <g id="line2d_27">
      <path clip-path="url(#pa90acfed9d)" d="M 79.673027 323.44 
L 79.673027 204.18 
" style="fill:none;stroke:#b0b0b0;stroke-linecap:square;stroke-width:0.8;"/>
     </g>
     <g id="line2d_28">
      <g>
       <use style="stroke:#000000;stroke-width:0.8;" x="79.673027" xlink:href="#md9aa192914" y="323.44"/>
      </g>
     </g>
     <g id="text_17">
      <!-- 0.00 -->
      <g transform="translate(68.540214 338.038438)scale(0.1 -0.1)">
       <use xlink:href="#DejaVuSans-48"/>
       <use x="63.623047" xlink:href="#DejaVuSans-46"/>
       <use x="95.410156" xlink:href="#DejaVuSans-48"/>
       <use x="159.033203" xlink:href="#DejaVuSans-48"/>
      </g>
     </g>
    </g>
    <g id="xtick_9">
     <g id="line2d_29">
      <path clip-path="url(#pa90acfed9d)" d="M 158.65581 323.44 
L 158.65581 204.18 
" style="fill:none;stroke:#b0b0b0;stroke-linecap:square;stroke-width:0.8;"/>
     </g>
     <g id="line2d_30">
      <g>
       <use style="stroke:#000000;stroke-width:0.8;" x="158.65581" xlink:href="#md9aa192914" y="323.44"/>
      </g>
     </g>
     <g id="text_18">
      <!-- 0.05 -->
      <g transform="translate(147.522998 338.038438)scale(0.1 -0.1)">
       <use xlink:href="#DejaVuSans-48"/>
       <use x="63.623047" xlink:href="#DejaVuSans-46"/>
       <use x="95.410156" xlink:href="#DejaVuSans-48"/>
       <use x="159.033203" xlink:href="#DejaVuSans-53"/>
      </g>
     </g>
    </g>
    <g id="xtick_10">
     <g id="line2d_31">
      <path clip-path="url(#pa90acfed9d)" d="M 237.638594 323.44 
L 237.638594 204.18 
" style="fill:none;stroke:#b0b0b0;stroke-linecap:square;stroke-width:0.8;"/>
     </g>
     <g id="line2d_32">
      <g>
       <use style="stroke:#000000;stroke-width:0.8;" x="237.638594" xlink:href="#md9aa192914" y="323.44"/>
      </g>
     </g>
     <g id="text_19">
      <!-- 0.10 -->
      <g transform="translate(226.505782 338.038438)scale(0.1 -0.1)">
       <use xlink:href="#DejaVuSans-48"/>
       <use x="63.623047" xlink:href="#DejaVuSans-46"/>
       <use x="95.410156" xlink:href="#DejaVuSans-49"/>
       <use x="159.033203" xlink:href="#DejaVuSans-48"/>
      </g>
     </g>
    </g>
    <g id="xtick_11">
     <g id="line2d_33">
      <path clip-path="url(#pa90acfed9d)" d="M 316.621378 323.44 
L 316.621378 204.18 
" style="fill:none;stroke:#b0b0b0;stroke-linecap:square;stroke-width:0.8;"/>
     </g>
     <g id="line2d_34">
      <g>
       <use style="stroke:#000000;stroke-width:0.8;" x="316.621378" xlink:href="#md9aa192914" y="323.44"/>
      </g>
     </g>
     <g id="text_20">
      <!-- 0.15 -->
      <g transform="translate(305.488566 338.038438)scale(0.1 -0.1)">
       <use xlink:href="#DejaVuSans-48"/>
       <use x="63.623047" xlink:href="#DejaVuSans-46"/>
       <use x="95.410156" xlink:href="#DejaVuSans-49"/>
       <use x="159.033203" xlink:href="#DejaVuSans-53"/>
      </g>
     </g>
    </g>
    <g id="xtick_12">
     <g id="line2d_35">
      <path clip-path="url(#pa90acfed9d)" d="M 395.604162 323.44 
L 395.604162 204.18 
" style="fill:none;stroke:#b0b0b0;stroke-linecap:square;stroke-width:0.8;"/>
     </g>
     <g id="line2d_36">
      <g>
       <use style="stroke:#000000;stroke-width:0.8;" x="395.604162" xlink:href="#md9aa192914" y="323.44"/>
      </g>
     </g>
     <g id="text_21">
      <!-- 0.20 -->
      <g transform="translate(384.47135 338.038438)scale(0.1 -0.1)">
       <use xlink:href="#DejaVuSans-48"/>
       <use x="63.623047" xlink:href="#DejaVuSans-46"/>
       <use x="95.410156" xlink:href="#DejaVuSans-50"/>
       <use x="159.033203" xlink:href="#DejaVuSans-48"/>
      </g>
     </g>
    </g>
    <g id="xtick_13">
     <g id="line2d_37">
      <path clip-path="url(#pa90acfed9d)" d="M 474.586946 323.44 
L 474.586946 204.18 
" style="fill:none;stroke:#b0b0b0;stroke-linecap:square;stroke-width:0.8;"/>
     </g>
     <g id="line2d_38">
      <g>
       <use style="stroke:#000000;stroke-width:0.8;" x="474.586946" xlink:href="#md9aa192914" y="323.44"/>
      </g>
     </g>
     <g id="text_22">
      <!-- 0.25 -->
      <g transform="translate(463.454134 338.038438)scale(0.1 -0.1)">
       <use xlink:href="#DejaVuSans-48"/>
       <use x="63.623047" xlink:href="#DejaVuSans-46"/>
       <use x="95.410156" xlink:href="#DejaVuSans-50"/>
       <use x="159.033203" xlink:href="#DejaVuSans-53"/>
      </g>
     </g>
    </g>
    <g id="xtick_14">
     <g id="line2d_39">
      <path clip-path="url(#pa90acfed9d)" d="M 553.56973 323.44 
L 553.56973 204.18 
" style="fill:none;stroke:#b0b0b0;stroke-linecap:square;stroke-width:0.8;"/>
     </g>
     <g id="line2d_40">
      <g>
       <use style="stroke:#000000;stroke-width:0.8;" x="553.56973" xlink:href="#md9aa192914" y="323.44"/>
      </g>
     </g>
     <g id="text_23">
      <!-- 0.30 -->
      <g transform="translate(542.436918 338.038438)scale(0.1 -0.1)">
       <use xlink:href="#DejaVuSans-48"/>
       <use x="63.623047" xlink:href="#DejaVuSans-46"/>
       <use x="95.410156" xlink:href="#DejaVuSans-51"/>
       <use x="159.033203" xlink:href="#DejaVuSans-48"/>
      </g>
     </g>
    </g>
    <g id="text_24">
     <!-- Time [ms] -->
     <g transform="translate(282.734053 351.716563)scale(0.1 -0.1)">
      <use xlink:href="#DejaVuSans-84"/>
      <use x="57.958984" xlink:href="#DejaVuSans-105"/>
      <use x="85.742188" xlink:href="#DejaVuSans-109"/>
      <use x="183.154297" xlink:href="#DejaVuSans-101"/>
      <use x="244.677734" xlink:href="#DejaVuSans-32"/>
      <use x="276.464844" xlink:href="#DejaVuSans-91"/>
      <use x="315.478516" xlink:href="#DejaVuSans-109"/>
      <use x="412.890625" xlink:href="#DejaVuSans-115"/>
      <use x="464.990234" xlink:href="#DejaVuSans-93"/>
     </g>
    </g>
   </g>
   <g id="matplotlib.axis_4">
    <g id="ytick_4">
     <g id="line2d_41">
      <path clip-path="url(#pa90acfed9d)" d="M 56.847002 318.019091 
L 559.019542 318.019091 
" style="fill:none;stroke:#b0b0b0;stroke-linecap:square;stroke-width:0.8;"/>
     </g>
     <g id="line2d_42">
      <g>
       <use style="stroke:#000000;stroke-width:0.8;" x="56.847002" xlink:href="#m5137d60127" y="318.019091"/>
      </g>
     </g>
     <g id="text_25">
      <!-- $\mathdefault{−5.0}$ -->
      <g transform="translate(25.547002 321.81831)scale(0.1 -0.1)">
       <use transform="translate(0 0.78125)" xlink:href="#DejaVuSans-8722"/>
       <use transform="translate(83.789062 0.78125)" xlink:href="#DejaVuSans-53"/>
       <use transform="translate(147.412109 0.78125)" xlink:href="#DejaVuSans-46"/>
       <use transform="translate(179.199219 0.78125)" xlink:href="#DejaVuSans-48"/>
      </g>
     </g>
    </g>
    <g id="ytick_5">
     <g id="line2d_43">
      <path clip-path="url(#pa90acfed9d)" d="M 56.847002 290.914545 
L 559.019542 290.914545 
" style="fill:none;stroke:#b0b0b0;stroke-linecap:square;stroke-width:0.8;"/>
     </g>
     <g id="line2d_44">
      <g>
       <use style="stroke:#000000;stroke-width:0.8;" x="56.847002" xlink:href="#m5137d60127" y="290.914545"/>
      </g>
     </g>
     <g id="text_26">
      <!-- $\mathdefault{−2.5}$ -->
      <g transform="translate(25.547002 294.713764)scale(0.1 -0.1)">
       <use transform="translate(0 0.78125)" xlink:href="#DejaVuSans-8722"/>
       <use transform="translate(83.789062 0.78125)" xlink:href="#DejaVuSans-50"/>
       <use transform="translate(147.412109 0.78125)" xlink:href="#DejaVuSans-46"/>
       <use transform="translate(179.199219 0.78125)" xlink:href="#DejaVuSans-53"/>
      </g>
     </g>
    </g>
    <g id="ytick_6">
     <g id="line2d_45">
      <path clip-path="url(#pa90acfed9d)" d="M 56.847002 263.81 
L 559.019542 263.81 
" style="fill:none;stroke:#b0b0b0;stroke-linecap:square;stroke-width:0.8;"/>
     </g>
     <g id="line2d_46">
      <g>
       <use style="stroke:#000000;stroke-width:0.8;" x="56.847002" xlink:href="#m5137d60127" y="263.81"/>
      </g>
     </g>
     <g id="text_27">
      <!-- $\mathdefault{0.0}$ -->
      <g transform="translate(33.847002 267.609219)scale(0.1 -0.1)">
       <use transform="translate(0 0.78125)" xlink:href="#DejaVuSans-48"/>
       <use transform="translate(63.623047 0.78125)" xlink:href="#DejaVuSans-46"/>
       <use transform="translate(95.410156 0.78125)" xlink:href="#DejaVuSans-48"/>
      </g>
     </g>
    </g>
    <g id="ytick_7">
     <g id="line2d_47">
      <path clip-path="url(#pa90acfed9d)" d="M 56.847002 236.705455 
L 559.019542 236.705455 
" style="fill:none;stroke:#b0b0b0;stroke-linecap:square;stroke-width:0.8;"/>
     </g>
     <g id="line2d_48">
      <g>
       <use style="stroke:#000000;stroke-width:0.8;" x="56.847002" xlink:href="#m5137d60127" y="236.705455"/>
      </g>
     </g>
     <g id="text_28">
      <!-- $\mathdefault{2.5}$ -->
      <g transform="translate(33.847002 240.504673)scale(0.1 -0.1)">
       <use transform="translate(0 0.78125)" xlink:href="#DejaVuSans-50"/>
       <use transform="translate(63.623047 0.78125)" xlink:href="#DejaVuSans-46"/>
       <use transform="translate(95.410156 0.78125)" xlink:href="#DejaVuSans-53"/>
      </g>
     </g>
    </g>
    <g id="ytick_8">
     <g id="line2d_49">
      <path clip-path="url(#pa90acfed9d)" d="M 56.847002 209.600909 
L 559.019542 209.600909 
" style="fill:none;stroke:#b0b0b0;stroke-linecap:square;stroke-width:0.8;"/>
     </g>
     <g id="line2d_50">
      <g>
       <use style="stroke:#000000;stroke-width:0.8;" x="56.847002" xlink:href="#m5137d60127" y="209.600909"/>
      </g>
     </g>
     <g id="text_29">
      <!-- $\mathdefault{5.0}$ -->
      <g transform="translate(33.847002 213.400128)scale(0.1 -0.1)">
       <use transform="translate(0 0.78125)" xlink:href="#DejaVuSans-53"/>
       <use transform="translate(63.623047 0.78125)" xlink:href="#DejaVuSans-46"/>
       <use transform="translate(95.410156 0.78125)" xlink:href="#DejaVuSans-48"/>
      </g>
     </g>
    </g>
    <g id="text_30">
     <!-- pwm input -->
     <defs>
      <path d="M 18.109375 8.203125 
L 18.109375 -20.796875 
L 9.078125 -20.796875 
L 9.078125 54.6875 
L 18.109375 54.6875 
L 18.109375 46.390625 
Q 20.953125 51.265625 25.265625 53.625 
Q 29.59375 56 35.59375 56 
Q 45.5625 56 51.78125 48.09375 
Q 58.015625 40.1875 58.015625 27.296875 
Q 58.015625 14.40625 51.78125 6.484375 
Q 45.5625 -1.421875 35.59375 -1.421875 
Q 29.59375 -1.421875 25.265625 0.953125 
Q 20.953125 3.328125 18.109375 8.203125 
z
M 48.6875 27.296875 
Q 48.6875 37.203125 44.609375 42.84375 
Q 40.53125 48.484375 33.40625 48.484375 
Q 26.265625 48.484375 22.1875 42.84375 
Q 18.109375 37.203125 18.109375 27.296875 
Q 18.109375 17.390625 22.1875 11.75 
Q 26.265625 6.109375 33.40625 6.109375 
Q 40.53125 6.109375 44.609375 11.75 
Q 48.6875 17.390625 48.6875 27.296875 
z
" id="DejaVuSans-112"/>
      <path d="M 4.203125 54.6875 
L 13.1875 54.6875 
L 24.421875 12.015625 
L 35.59375 54.6875 
L 46.1875 54.6875 
L 57.421875 12.015625 
L 68.609375 54.6875 
L 77.59375 54.6875 
L 63.28125 0 
L 52.6875 0 
L 40.921875 44.828125 
L 29.109375 0 
L 18.5 0 
z
" id="DejaVuSans-119"/>
      <path d="M 8.5 21.578125 
L 8.5 54.6875 
L 17.484375 54.6875 
L 17.484375 21.921875 
Q 17.484375 14.15625 20.5 10.265625 
Q 23.53125 6.390625 29.59375 6.390625 
Q 36.859375 6.390625 41.078125 11.03125 
Q 45.3125 15.671875 45.3125 23.6875 
L 45.3125 54.6875 
L 54.296875 54.6875 
L 54.296875 0 
L 45.3125 0 
L 45.3125 8.40625 
Q 42.046875 3.421875 37.71875 1 
Q 33.40625 -1.421875 27.6875 -1.421875 
Q 18.265625 -1.421875 13.375 4.4375 
Q 8.5 10.296875 8.5 21.578125 
z
M 31.109375 56 
z
" id="DejaVuSans-117"/>
     </defs>
     <g transform="translate(19.467314 290.393594)rotate(-90)scale(0.1 -0.1)">
      <use xlink:href="#DejaVuSans-112"/>
      <use x="63.476562" xlink:href="#DejaVuSans-119"/>
      <use x="145.263672" xlink:href="#DejaVuSans-109"/>
      <use x="242.675781" xlink:href="#DejaVuSans-32"/>
      <use x="274.462891" xlink:href="#DejaVuSans-105"/>
      <use x="302.246094" xlink:href="#DejaVuSans-110"/>
      <use x="365.625" xlink:href="#DejaVuSans-112"/>
      <use x="429.101562" xlink:href="#DejaVuSans-117"/>
      <use x="492.480469" xlink:href="#DejaVuSans-116"/>
     </g>
    </g>
    <g id="text_31">
     <!-- $\times\mathdefault{10^{−2}}\mathdefault{}$ -->
     <g transform="translate(56.847002 201.18)scale(0.1 -0.1)">
      <use transform="translate(0 0.765625)" xlink:href="#DejaVuSans-215"/>
      <use transform="translate(83.789062 0.765625)" xlink:href="#DejaVuSans-49"/>
      <use transform="translate(147.412109 0.765625)" xlink:href="#DejaVuSans-48"/>
      <use transform="translate(211.992188 39.046875)scale(0.7)" xlink:href="#DejaVuSans-8722"/>
      <use transform="translate(270.644531 39.046875)scale(0.7)" xlink:href="#DejaVuSans-50"/>
     </g>
    </g>
   </g>
   <g id="line2d_51">
    <path clip-path="url(#pa90acfed9d)" d="M 79.673027 263.81 
L 536.193518 263.81 
L 536.193518 263.81 
" style="fill:none;stroke:#1f77b4;stroke-linecap:square;stroke-width:2;"/>
   </g>
   <g id="line2d_52">
    <path clip-path="url(#pa90acfed9d)" d="M 79.673027 263.81 
L 536.193518 263.81 
L 536.193518 263.81 
" style="fill:none;stroke:#ff7f0e;stroke-linecap:square;stroke-width:2;"/>
   </g>
   <g id="line2d_53">
    <path clip-path="url(#pa90acfed9d)" d="M 79.673027 263.81 
L 536.193518 263.81 
L 536.193518 263.81 
" style="fill:none;stroke:#2ca02c;stroke-linecap:square;stroke-width:2;"/>
   </g>
   <g id="line2d_54">
    <path clip-path="url(#pa90acfed9d)" d="M 79.673027 263.81 
L 536.193518 263.81 
L 536.193518 263.81 
" style="fill:none;stroke:#d62728;stroke-linecap:square;stroke-width:2;"/>
   </g>
   <g id="line2d_55">
    <path clip-path="url(#pa90acfed9d)" d="M 79.673027 263.81 
L 536.193518 263.81 
L 536.193518 263.81 
" style="fill:none;stroke:#9467bd;stroke-linecap:square;stroke-width:2;"/>
   </g>
   <g id="patch_9">
    <path d="M 56.847002 323.44 
L 56.847002 204.18 
" style="fill:none;stroke:#000000;stroke-linecap:square;stroke-linejoin:miter;stroke-width:0.8;"/>
   </g>
   <g id="patch_10">
    <path d="M 559.019542 323.44 
L 559.019542 204.18 
" style="fill:none;stroke:#000000;stroke-linecap:square;stroke-linejoin:miter;stroke-width:0.8;"/>
   </g>
   <g id="patch_11">
    <path d="M 56.847002 323.44 
L 559.019542 323.44 
" style="fill:none;stroke:#000000;stroke-linecap:square;stroke-linejoin:miter;stroke-width:0.8;"/>
   </g>
   <g id="patch_12">
    <path d="M 56.847002 204.18 
L 559.019542 204.18 
" style="fill:none;stroke:#000000;stroke-linecap:square;stroke-linejoin:miter;stroke-width:0.8;"/>
   </g>
   <g id="text_32">
    <!-- Translational PWM Input -->
    <defs>
     <path d="M 19.671875 64.796875 
L 19.671875 37.40625 
L 32.078125 37.40625 
Q 38.96875 37.40625 42.71875 40.96875 
Q 46.484375 44.53125 46.484375 51.125 
Q 46.484375 57.671875 42.71875 61.234375 
Q 38.96875 64.796875 32.078125 64.796875 
z
M 9.8125 72.90625 
L 32.078125 72.90625 
Q 44.34375 72.90625 50.609375 67.359375 
Q 56.890625 61.8125 56.890625 51.125 
Q 56.890625 40.328125 50.609375 34.8125 
Q 44.34375 29.296875 32.078125 29.296875 
L 19.671875 29.296875 
L 19.671875 0 
L 9.8125 0 
z
" id="DejaVuSans-80"/>
     <path d="M 3.328125 72.90625 
L 13.28125 72.90625 
L 28.609375 11.28125 
L 43.890625 72.90625 
L 54.984375 72.90625 
L 70.3125 11.28125 
L 85.59375 72.90625 
L 95.609375 72.90625 
L 77.296875 0 
L 64.890625 0 
L 49.515625 63.28125 
L 33.984375 0 
L 21.578125 0 
z
" id="DejaVuSans-87"/>
     <path d="M 9.8125 72.90625 
L 24.515625 72.90625 
L 43.109375 23.296875 
L 61.8125 72.90625 
L 76.515625 72.90625 
L 76.515625 0 
L 66.890625 0 
L 66.890625 64.015625 
L 48.09375 14.015625 
L 38.1875 14.015625 
L 19.390625 64.015625 
L 19.390625 0 
L 9.8125 0 
z
" id="DejaVuSans-77"/>
     <path d="M 9.8125 72.90625 
L 19.671875 72.90625 
L 19.671875 0 
L 9.8125 0 
z
" id="DejaVuSans-73"/>
    </defs>
    <g transform="translate(235.824522 198.18)scale(0.12 -0.12)">
     <use xlink:href="#DejaVuSans-84"/>
     <use x="46.333984" xlink:href="#DejaVuSans-114"/>
     <use x="87.447266" xlink:href="#DejaVuSans-97"/>
     <use x="148.726562" xlink:href="#DejaVuSans-110"/>
     <use x="212.105469" xlink:href="#DejaVuSans-115"/>
     <use x="264.205078" xlink:href="#DejaVuSans-108"/>
     <use x="291.988281" xlink:href="#DejaVuSans-97"/>
     <use x="353.267578" xlink:href="#DejaVuSans-116"/>
     <use x="392.476562" xlink:href="#DejaVuSans-105"/>
     <use x="420.259766" xlink:href="#DejaVuSans-111"/>
     <use x="481.441406" xlink:href="#DejaVuSans-110"/>
     <use x="544.820312" xlink:href="#DejaVuSans-97"/>
     <use x="606.099609" xlink:href="#DejaVuSans-108"/>
     <use x="633.882812" xlink:href="#DejaVuSans-32"/>
     <use x="665.669922" xlink:href="#DejaVuSans-80"/>
     <use x="725.972656" xlink:href="#DejaVuSans-87"/>
     <use x="824.849609" xlink:href="#DejaVuSans-77"/>
     <use x="911.128906" xlink:href="#DejaVuSans-32"/>
     <use x="942.916016" xlink:href="#DejaVuSans-73"/>
     <use x="972.408203" xlink:href="#DejaVuSans-110"/>
     <use x="1035.787109" xlink:href="#DejaVuSans-112"/>
     <use x="1099.263672" xlink:href="#DejaVuSans-117"/>
     <use x="1162.642578" xlink:href="#DejaVuSans-116"/>
    </g>
   </g>
   <g id="legend_2">
    <g id="patch_13">
     <path d="M 230.700792 226.858125 
L 552.019542 226.858125 
Q 554.019542 226.858125 554.019542 224.858125 
L 554.019542 211.18 
Q 554.019542 209.18 552.019542 209.18 
L 230.700792 209.18 
Q 228.700792 209.18 228.700792 211.18 
L 228.700792 224.858125 
Q 228.700792 226.858125 230.700792 226.858125 
z
" style="fill:#ffffff;opacity:0.8;stroke:#cccccc;stroke-linejoin:miter;"/>
    </g>
    <g id="line2d_56">
     <path d="M 232.700792 217.278438 
L 252.700792 217.278438 
" style="fill:none;stroke:#1f77b4;stroke-linecap:square;stroke-width:2;"/>
    </g>
    <g id="line2d_57"/>
    <g id="text_33">
     <!-- FF -->
     <defs>
      <path d="M 9.8125 72.90625 
L 51.703125 72.90625 
L 51.703125 64.59375 
L 19.671875 64.59375 
L 19.671875 43.109375 
L 48.578125 43.109375 
L 48.578125 34.8125 
L 19.671875 34.8125 
L 19.671875 0 
L 9.8125 0 
z
" id="DejaVuSans-70"/>
     </defs>
     <g transform="translate(260.700792 220.778438)scale(0.1 -0.1)">
      <use xlink:href="#DejaVuSans-70"/>
      <use x="57.519531" xlink:href="#DejaVuSans-70"/>
     </g>
    </g>
    <g id="line2d_58">
     <path d="M 292.203917 217.278438 
L 312.203917 217.278438 
" style="fill:none;stroke:#ff7f0e;stroke-linecap:square;stroke-width:2;"/>
    </g>
    <g id="line2d_59"/>
    <g id="text_34">
     <!-- FB -->
     <defs>
      <path d="M 19.671875 34.8125 
L 19.671875 8.109375 
L 35.5 8.109375 
Q 43.453125 8.109375 47.28125 11.40625 
Q 51.125 14.703125 51.125 21.484375 
Q 51.125 28.328125 47.28125 31.5625 
Q 43.453125 34.8125 35.5 34.8125 
z
M 19.671875 64.796875 
L 19.671875 42.828125 
L 34.28125 42.828125 
Q 41.5 42.828125 45.03125 45.53125 
Q 48.578125 48.25 48.578125 53.8125 
Q 48.578125 59.328125 45.03125 62.0625 
Q 41.5 64.796875 34.28125 64.796875 
z
M 9.8125 72.90625 
L 35.015625 72.90625 
Q 46.296875 72.90625 52.390625 68.21875 
Q 58.5 63.53125 58.5 54.890625 
Q 58.5 48.1875 55.375 44.234375 
Q 52.25 40.28125 46.1875 39.3125 
Q 53.46875 37.75 57.5 32.78125 
Q 61.53125 27.828125 61.53125 20.40625 
Q 61.53125 10.640625 54.890625 5.3125 
Q 48.25 0 35.984375 0 
L 9.8125 0 
z
" id="DejaVuSans-66"/>
     </defs>
     <g transform="translate(320.203917 220.778438)scale(0.1 -0.1)">
      <use xlink:href="#DejaVuSans-70"/>
      <use x="57.519531" xlink:href="#DejaVuSans-66"/>
     </g>
    </g>
    <g id="line2d_60">
     <path d="M 352.816417 217.278438 
L 372.816417 217.278438 
" style="fill:none;stroke:#2ca02c;stroke-linecap:square;stroke-width:2;"/>
    </g>
    <g id="line2d_61"/>
    <g id="text_35">
     <!-- FB p -->
     <g transform="translate(380.816417 220.778438)scale(0.1 -0.1)">
      <use xlink:href="#DejaVuSans-70"/>
      <use x="57.519531" xlink:href="#DejaVuSans-66"/>
      <use x="126.123047" xlink:href="#DejaVuSans-32"/>
      <use x="157.910156" xlink:href="#DejaVuSans-112"/>
     </g>
    </g>
    <g id="line2d_62">
     <path d="M 422.95548 217.278438 
L 442.95548 217.278438 
" style="fill:none;stroke:#d62728;stroke-linecap:square;stroke-width:2;"/>
    </g>
    <g id="line2d_63"/>
    <g id="text_36">
     <!-- FB i -->
     <g transform="translate(450.95548 220.778438)scale(0.1 -0.1)">
      <use xlink:href="#DejaVuSans-70"/>
      <use x="57.519531" xlink:href="#DejaVuSans-66"/>
      <use x="126.123047" xlink:href="#DejaVuSans-32"/>
      <use x="157.910156" xlink:href="#DejaVuSans-105"/>
     </g>
    </g>
    <g id="line2d_64">
     <path d="M 489.52423 217.278438 
L 509.52423 217.278438 
" style="fill:none;stroke:#9467bd;stroke-linecap:square;stroke-width:2;"/>
    </g>
    <g id="line2d_65"/>
    <g id="text_37">
     <!-- FF+FB -->
     <defs>
      <path d="M 46 62.703125 
L 46 35.5 
L 73.1875 35.5 
L 73.1875 27.203125 
L 46 27.203125 
L 46 0 
L 37.796875 0 
L 37.796875 27.203125 
L 10.59375 27.203125 
L 10.59375 35.5 
L 37.796875 35.5 
L 37.796875 62.703125 
z
" id="DejaVuSans-43"/>
     </defs>
     <g transform="translate(517.52423 220.778438)scale(0.1 -0.1)">
      <use xlink:href="#DejaVuSans-70"/>
      <use x="57.519531" xlink:href="#DejaVuSans-70"/>
      <use x="115.039062" xlink:href="#DejaVuSans-43"/>
      <use x="198.828125" xlink:href="#DejaVuSans-70"/>
      <use x="256.347656" xlink:href="#DejaVuSans-66"/>
     </g>
    </g>
   </g>
  </g>
  <g id="axes_3">
   <g id="patch_14">
    <path d="M 56.847002 500.74 
L 559.019542 500.74 
L 559.019542 381.48 
L 56.847002 381.48 
z
" style="fill:#ffffff;"/>
   </g>
   <g id="matplotlib.axis_5">
    <g id="xtick_15">
     <g id="line2d_66">
      <path clip-path="url(#p377a0360de)" d="M 79.673027 500.74 
L 79.673027 381.48 
" style="fill:none;stroke:#b0b0b0;stroke-linecap:square;stroke-width:0.8;"/>
     </g>
     <g id="line2d_67">
      <g>
       <use style="stroke:#000000;stroke-width:0.8;" x="79.673027" xlink:href="#md9aa192914" y="500.74"/>
      </g>
     </g>
     <g id="text_38">
      <!-- 0.00 -->
      <g transform="translate(68.540214 515.338438)scale(0.1 -0.1)">
       <use xlink:href="#DejaVuSans-48"/>
       <use x="63.623047" xlink:href="#DejaVuSans-46"/>
       <use x="95.410156" xlink:href="#DejaVuSans-48"/>
       <use x="159.033203" xlink:href="#DejaVuSans-48"/>
      </g>
     </g>
    </g>
    <g id="xtick_16">
     <g id="line2d_68">
      <path clip-path="url(#p377a0360de)" d="M 158.65581 500.74 
L 158.65581 381.48 
" style="fill:none;stroke:#b0b0b0;stroke-linecap:square;stroke-width:0.8;"/>
     </g>
     <g id="line2d_69">
      <g>
       <use style="stroke:#000000;stroke-width:0.8;" x="158.65581" xlink:href="#md9aa192914" y="500.74"/>
      </g>
     </g>
     <g id="text_39">
      <!-- 0.05 -->
      <g transform="translate(147.522998 515.338438)scale(0.1 -0.1)">
       <use xlink:href="#DejaVuSans-48"/>
       <use x="63.623047" xlink:href="#DejaVuSans-46"/>
       <use x="95.410156" xlink:href="#DejaVuSans-48"/>
       <use x="159.033203" xlink:href="#DejaVuSans-53"/>
      </g>
     </g>
    </g>
    <g id="xtick_17">
     <g id="line2d_70">
      <path clip-path="url(#p377a0360de)" d="M 237.638594 500.74 
L 237.638594 381.48 
" style="fill:none;stroke:#b0b0b0;stroke-linecap:square;stroke-width:0.8;"/>
     </g>
     <g id="line2d_71">
      <g>
       <use style="stroke:#000000;stroke-width:0.8;" x="237.638594" xlink:href="#md9aa192914" y="500.74"/>
      </g>
     </g>
     <g id="text_40">
      <!-- 0.10 -->
      <g transform="translate(226.505782 515.338438)scale(0.1 -0.1)">
       <use xlink:href="#DejaVuSans-48"/>
       <use x="63.623047" xlink:href="#DejaVuSans-46"/>
       <use x="95.410156" xlink:href="#DejaVuSans-49"/>
       <use x="159.033203" xlink:href="#DejaVuSans-48"/>
      </g>
     </g>
    </g>
    <g id="xtick_18">
     <g id="line2d_72">
      <path clip-path="url(#p377a0360de)" d="M 316.621378 500.74 
L 316.621378 381.48 
" style="fill:none;stroke:#b0b0b0;stroke-linecap:square;stroke-width:0.8;"/>
     </g>
     <g id="line2d_73">
      <g>
       <use style="stroke:#000000;stroke-width:0.8;" x="316.621378" xlink:href="#md9aa192914" y="500.74"/>
      </g>
     </g>
     <g id="text_41">
      <!-- 0.15 -->
      <g transform="translate(305.488566 515.338438)scale(0.1 -0.1)">
       <use xlink:href="#DejaVuSans-48"/>
       <use x="63.623047" xlink:href="#DejaVuSans-46"/>
       <use x="95.410156" xlink:href="#DejaVuSans-49"/>
       <use x="159.033203" xlink:href="#DejaVuSans-53"/>
      </g>
     </g>
    </g>
    <g id="xtick_19">
     <g id="line2d_74">
      <path clip-path="url(#p377a0360de)" d="M 395.604162 500.74 
L 395.604162 381.48 
" style="fill:none;stroke:#b0b0b0;stroke-linecap:square;stroke-width:0.8;"/>
     </g>
     <g id="line2d_75">
      <g>
       <use style="stroke:#000000;stroke-width:0.8;" x="395.604162" xlink:href="#md9aa192914" y="500.74"/>
      </g>
     </g>
     <g id="text_42">
      <!-- 0.20 -->
      <g transform="translate(384.47135 515.338438)scale(0.1 -0.1)">
       <use xlink:href="#DejaVuSans-48"/>
       <use x="63.623047" xlink:href="#DejaVuSans-46"/>
       <use x="95.410156" xlink:href="#DejaVuSans-50"/>
       <use x="159.033203" xlink:href="#DejaVuSans-48"/>
      </g>
     </g>
    </g>
    <g id="xtick_20">
     <g id="line2d_76">
      <path clip-path="url(#p377a0360de)" d="M 474.586946 500.74 
L 474.586946 381.48 
" style="fill:none;stroke:#b0b0b0;stroke-linecap:square;stroke-width:0.8;"/>
     </g>
     <g id="line2d_77">
      <g>
       <use style="stroke:#000000;stroke-width:0.8;" x="474.586946" xlink:href="#md9aa192914" y="500.74"/>
      </g>
     </g>
     <g id="text_43">
      <!-- 0.25 -->
      <g transform="translate(463.454134 515.338438)scale(0.1 -0.1)">
       <use xlink:href="#DejaVuSans-48"/>
       <use x="63.623047" xlink:href="#DejaVuSans-46"/>
       <use x="95.410156" xlink:href="#DejaVuSans-50"/>
       <use x="159.033203" xlink:href="#DejaVuSans-53"/>
      </g>
     </g>
    </g>
    <g id="xtick_21">
     <g id="line2d_78">
      <path clip-path="url(#p377a0360de)" d="M 553.56973 500.74 
L 553.56973 381.48 
" style="fill:none;stroke:#b0b0b0;stroke-linecap:square;stroke-width:0.8;"/>
     </g>
     <g id="line2d_79">
      <g>
       <use style="stroke:#000000;stroke-width:0.8;" x="553.56973" xlink:href="#md9aa192914" y="500.74"/>
      </g>
     </g>
     <g id="text_44">
      <!-- 0.30 -->
      <g transform="translate(542.436918 515.338438)scale(0.1 -0.1)">
       <use xlink:href="#DejaVuSans-48"/>
       <use x="63.623047" xlink:href="#DejaVuSans-46"/>
       <use x="95.410156" xlink:href="#DejaVuSans-51"/>
       <use x="159.033203" xlink:href="#DejaVuSans-48"/>
      </g>
     </g>
    </g>
    <g id="text_45">
     <!-- Time [ms] -->
     <g transform="translate(282.734053 529.016562)scale(0.1 -0.1)">
      <use xlink:href="#DejaVuSans-84"/>
      <use x="57.958984" xlink:href="#DejaVuSans-105"/>
      <use x="85.742188" xlink:href="#DejaVuSans-109"/>
      <use x="183.154297" xlink:href="#DejaVuSans-101"/>
      <use x="244.677734" xlink:href="#DejaVuSans-32"/>
      <use x="276.464844" xlink:href="#DejaVuSans-91"/>
      <use x="315.478516" xlink:href="#DejaVuSans-109"/>
      <use x="412.890625" xlink:href="#DejaVuSans-115"/>
      <use x="464.990234" xlink:href="#DejaVuSans-93"/>
     </g>
    </g>
   </g>
   <g id="matplotlib.axis_6">
    <g id="ytick_9">
     <g id="line2d_80">
      <path clip-path="url(#p377a0360de)" d="M 56.847002 491.616282 
L 559.019542 491.616282 
" style="fill:none;stroke:#b0b0b0;stroke-linecap:square;stroke-width:0.8;"/>
     </g>
     <g id="line2d_81">
      <g>
       <use style="stroke:#000000;stroke-width:0.8;" x="56.847002" xlink:href="#m5137d60127" y="491.616282"/>
      </g>
     </g>
     <g id="text_46">
      <!-- $\mathdefault{0.0}$ -->
      <g transform="translate(33.847002 495.415501)scale(0.1 -0.1)">
       <use transform="translate(0 0.78125)" xlink:href="#DejaVuSans-48"/>
       <use transform="translate(63.623047 0.78125)" xlink:href="#DejaVuSans-46"/>
       <use transform="translate(95.410156 0.78125)" xlink:href="#DejaVuSans-48"/>
      </g>
     </g>
    </g>
    <g id="ytick_10">
     <g id="line2d_82">
      <path clip-path="url(#p377a0360de)" d="M 56.847002 463.839732 
L 559.019542 463.839732 
" style="fill:none;stroke:#b0b0b0;stroke-linecap:square;stroke-width:0.8;"/>
     </g>
     <g id="line2d_83">
      <g>
       <use style="stroke:#000000;stroke-width:0.8;" x="56.847002" xlink:href="#m5137d60127" y="463.839732"/>
      </g>
     </g>
     <g id="text_47">
      <!-- $\mathdefault{0.5}$ -->
      <g transform="translate(33.847002 467.638951)scale(0.1 -0.1)">
       <use transform="translate(0 0.78125)" xlink:href="#DejaVuSans-48"/>
       <use transform="translate(63.623047 0.78125)" xlink:href="#DejaVuSans-46"/>
       <use transform="translate(95.410156 0.78125)" xlink:href="#DejaVuSans-53"/>
      </g>
     </g>
    </g>
    <g id="ytick_11">
     <g id="line2d_84">
      <path clip-path="url(#p377a0360de)" d="M 56.847002 436.063181 
L 559.019542 436.063181 
" style="fill:none;stroke:#b0b0b0;stroke-linecap:square;stroke-width:0.8;"/>
     </g>
     <g id="line2d_85">
      <g>
       <use style="stroke:#000000;stroke-width:0.8;" x="56.847002" xlink:href="#m5137d60127" y="436.063181"/>
      </g>
     </g>
     <g id="text_48">
      <!-- $\mathdefault{1.0}$ -->
      <g transform="translate(33.847002 439.8624)scale(0.1 -0.1)">
       <use transform="translate(0 0.78125)" xlink:href="#DejaVuSans-49"/>
       <use transform="translate(63.623047 0.78125)" xlink:href="#DejaVuSans-46"/>
       <use transform="translate(95.410156 0.78125)" xlink:href="#DejaVuSans-48"/>
      </g>
     </g>
    </g>
    <g id="ytick_12">
     <g id="line2d_86">
      <path clip-path="url(#p377a0360de)" d="M 56.847002 408.286631 
L 559.019542 408.286631 
" style="fill:none;stroke:#b0b0b0;stroke-linecap:square;stroke-width:0.8;"/>
     </g>
     <g id="line2d_87">
      <g>
       <use style="stroke:#000000;stroke-width:0.8;" x="56.847002" xlink:href="#m5137d60127" y="408.286631"/>
      </g>
     </g>
     <g id="text_49">
      <!-- $\mathdefault{1.5}$ -->
      <g transform="translate(33.847002 412.08585)scale(0.1 -0.1)">
       <use transform="translate(0 0.09375)" xlink:href="#DejaVuSans-49"/>
       <use transform="translate(63.623047 0.09375)" xlink:href="#DejaVuSans-46"/>
       <use transform="translate(95.410156 0.09375)" xlink:href="#DejaVuSans-53"/>
      </g>
     </g>
    </g>
    <g id="text_50">
     <!-- vel. [rad/s] -->
     <g transform="translate(27.767314 468.1975)rotate(-90)scale(0.1 -0.1)">
      <use xlink:href="#DejaVuSans-118"/>
      <use x="59.179688" xlink:href="#DejaVuSans-101"/>
      <use x="120.703125" xlink:href="#DejaVuSans-108"/>
      <use x="148.486328" xlink:href="#DejaVuSans-46"/>
      <use x="180.273438" xlink:href="#DejaVuSans-32"/>
      <use x="212.060547" xlink:href="#DejaVuSans-91"/>
      <use x="251.074219" xlink:href="#DejaVuSans-114"/>
      <use x="292.1875" xlink:href="#DejaVuSans-97"/>
      <use x="353.466797" xlink:href="#DejaVuSans-100"/>
      <use x="416.943359" xlink:href="#DejaVuSans-47"/>
      <use x="450.634766" xlink:href="#DejaVuSans-115"/>
      <use x="502.734375" xlink:href="#DejaVuSans-93"/>
     </g>
    </g>
    <g id="text_51">
     <!-- $\times\mathdefault{10^{1}}\mathdefault{}$ -->
     <g transform="translate(56.847002 378.48)scale(0.1 -0.1)">
      <use transform="translate(0 0.684375)" xlink:href="#DejaVuSans-215"/>
      <use transform="translate(83.789062 0.684375)" xlink:href="#DejaVuSans-49"/>
      <use transform="translate(147.412109 0.684375)" xlink:href="#DejaVuSans-48"/>
      <use transform="translate(211.992188 38.965625)scale(0.7)" xlink:href="#DejaVuSans-49"/>
     </g>
    </g>
   </g>
   <g id="line2d_88">
    <path clip-path="url(#p377a0360de)" d="M 79.673027 491.616282 
L 81.252682 491.53251 
L 82.832338 491.281194 
L 84.411994 490.862332 
L 85.991649 490.27593 
L 87.571305 489.52198 
L 89.150961 488.600488 
L 90.730616 487.511447 
L 92.310272 486.254869 
L 93.889928 484.830749 
L 97.049239 481.563615 
L 106.527173 471.511004 
L 108.106829 470.673263 
L 147.598221 428.787392 
L 149.177876 426.274169 
L 179.191334 394.461686 
L 180.77099 392.953419 
L 182.350646 391.613479 
L 183.930301 390.440197 
L 185.509957 389.435242 
L 187.089613 388.597501 
L 188.669268 387.92753 
L 190.248924 387.424775 
L 191.82858 387.08979 
L 193.408235 386.922019 
L 202.886169 386.900909 
L 345.055181 386.95924 
L 346.634836 387.182563 
L 348.214492 387.573657 
L 349.794148 388.131966 
L 351.373803 388.858045 
L 352.953459 389.751339 
L 354.533115 390.812403 
L 356.11277 392.040682 
L 357.692426 393.436731 
L 360.851737 396.673811 
L 444.573488 485.322338 
L 446.153144 486.690811 
L 447.7328 487.89173 
L 449.312455 488.925107 
L 450.892111 489.790946 
L 452.471767 490.489249 
L 454.051422 491.020009 
L 455.631078 491.383226 
L 457.210734 491.578907 
L 461.949701 491.616282 
L 536.193518 491.616282 
L 536.193518 491.616282 
" style="fill:none;stroke:#1f77b4;stroke-linecap:square;stroke-width:2;"/>
   </g>
   <g id="line2d_89">
    <path clip-path="url(#p377a0360de)" d="M 79.673027 491.618115 
L 81.252682 491.665412 
L 84.411994 491.535346 
L 89.150961 491.600379 
L 103.367862 491.618115 
L 123.903386 491.570818 
L 128.642353 491.511697 
L 130.222008 490.542113 
L 131.801664 490.199212 
L 133.38132 489.974549 
L 142.859254 487.243159 
L 144.438909 486.604654 
L 146.018565 484.996575 
L 147.598221 481.490674 
L 149.177876 478.706075 
L 150.757532 477.51185 
L 152.337188 475.986528 
L 153.916843 473.32609 
L 155.496499 471.794825 
L 158.65581 468.401308 
L 160.235466 466.840488 
L 161.815122 464.534757 
L 163.394778 462.554233 
L 164.974433 461.425005 
L 166.554089 459.509479 
L 168.133745 458.729124 
L 169.7134 456.618495 
L 171.293056 453.544187 
L 172.872712 451.806041 
L 176.032023 447.247798 
L 177.611679 444.315372 
L 179.191334 442.470843 
L 182.350646 437.741163 
L 183.930301 434.016605 
L 185.509957 432.709996 
L 187.089613 433.259972 
L 188.669268 430.700085 
L 190.248924 430.173442 
L 191.82858 430.102889 
L 193.408235 428.240194 
L 194.987891 429.322368 
L 196.567547 430.268437 
L 198.147202 430.280104 
L 199.726858 429.641798 
L 201.306514 430.24455 
L 202.886169 431.054514 
L 204.465825 430.960073 
L 206.045481 430.528426 
L 207.625137 429.375699 
L 209.204792 430.492872 
L 210.784448 430.871189 
L 212.364104 431.757816 
L 215.523415 432.47334 
L 217.103071 433.490517 
L 220.262382 433.667732 
L 221.842038 432.928875 
L 223.421693 434.507139 
L 225.001349 434.820458 
L 226.581005 434.099379 
L 228.16066 433.909943 
L 229.740316 434.253261 
L 231.319972 435.453208 
L 232.899627 436.020961 
L 234.479283 436.144844 
L 236.058939 436.038182 
L 237.638594 437.321404 
L 239.21825 437.345014 
L 240.797906 436.901644 
L 242.377561 437.037583 
L 247.116528 438.391467 
L 248.696184 437.723386 
L 250.27584 436.653322 
L 253.435151 438.326415 
L 255.014807 438.580681 
L 256.594463 437.291794 
L 258.174118 436.576436 
L 259.753774 438.255473 
L 262.913085 438.344192 
L 264.492741 438.066315 
L 266.072397 437.995374 
L 267.652052 438.876279 
L 269.231708 437.67611 
L 270.811364 437.203131 
L 272.391019 438.491963 
L 273.970675 438.184532 
L 275.550331 438.279139 
L 277.129986 437.681999 
L 278.709642 437.504673 
L 280.289298 437.788438 
L 281.868953 436.535049 
L 285.028265 435.867079 
L 286.60792 436.481885 
L 288.187576 436.546882 
L 289.767232 435.813748 
L 291.346888 435.228218 
L 292.926543 434.253261 
L 294.506199 435.169332 
L 297.66551 435.482651 
L 299.245166 435.3821 
L 300.824822 434.96823 
L 302.404477 433.229973 
L 303.984133 433.614401 
L 305.563789 433.555514 
L 307.143444 433.147199 
L 308.7231 430.468984 
L 310.302756 431.155065 
L 313.462067 430.25066 
L 315.041723 429.736239 
L 316.621378 429.812902 
L 318.201034 428.991272 
L 319.78069 427.980205 
L 321.360345 428.02187 
L 322.940001 427.826323 
L 324.519657 428.027425 
L 326.099312 427.38912 
L 327.678968 427.010804 
L 329.258624 426.023625 
L 330.838279 425.171996 
L 332.417935 424.592577 
L 335.577247 423.126531 
L 337.156902 423.132086 
L 338.736558 423.256525 
L 340.316214 422.730437 
L 341.895869 422.535446 
L 343.475525 421.630486 
L 345.055181 421.133841 
L 346.634836 420.85052 
L 348.214492 421.092732 
L 349.794148 421.151618 
L 351.373803 421.092732 
L 356.11277 421.311611 
L 357.692426 421.920473 
L 359.272082 427.513004 
L 362.431393 428.849611 
L 364.011049 429.901787 
L 365.590704 430.38621 
L 367.17036 434.684353 
L 368.750016 435.464874 
L 370.329671 436.990307 
L 371.909327 438.060371 
L 373.488983 438.367802 
L 375.068638 439.745352 
L 376.648294 443.836505 
L 378.22795 444.197155 
L 381.387261 447.472455 
L 382.966917 449.612638 
L 384.546573 451.13796 
L 386.126228 452.941158 
L 387.705884 455.465602 
L 389.28554 456.718991 
L 390.865195 456.919982 
L 392.444851 461.046633 
L 394.024507 462.571954 
L 395.604162 462.926661 
L 397.183818 465.386108 
L 398.763474 467.21886 
L 400.343129 470.174952 
L 403.502441 474.999183 
L 405.082096 477.015205 
L 406.661752 477.984829 
L 408.241408 480.343725 
L 409.821063 481.177355 
L 411.400719 483.654523 
L 412.980375 484.287106 
L 414.56003 486.001641 
L 416.139686 488.40193 
L 419.298998 491.517609 
L 420.878653 491.955105 
L 422.458309 492.818274 
L 424.037965 494.077551 
L 425.61762 494.52096 
L 427.197276 494.633288 
L 428.776932 494.574168 
L 430.356587 494.402715 
L 431.936243 494.349506 
L 433.515899 494.455923 
L 436.67521 494.993927 
L 438.254866 495.319091 
L 439.834521 494.769265 
L 441.414177 494.042075 
L 442.993833 494.479572 
L 444.573488 494.308119 
L 446.153144 492.936513 
L 447.7328 493.03702 
L 449.312455 492.298008 
L 454.051422 491.239741 
L 455.631078 491.198356 
L 457.210734 491.281125 
L 458.790389 491.629939 
L 460.370045 491.795478 
L 463.529357 491.848687 
L 468.268324 491.482137 
L 476.166602 491.618115 
L 480.905569 491.529433 
L 482.485225 491.600379 
L 484.06488 491.848687 
L 485.644536 491.895984 
L 487.224192 491.777742 
L 488.803847 491.452576 
L 491.963159 491.458488 
L 493.542814 491.700885 
L 496.702126 491.665412 
L 499.861437 491.600379 
L 504.600404 491.618115 
L 520.396961 491.606291 
L 536.193518 491.624027 
L 536.193518 491.624027 
" style="fill:none;stroke:#ff7f0e;stroke-linecap:square;stroke-width:2;"/>
   </g>
   <g id="patch_15">
    <path d="M 56.847002 500.74 
L 56.847002 381.48 
" style="fill:none;stroke:#000000;stroke-linecap:square;stroke-linejoin:miter;stroke-width:0.8;"/>
   </g>
   <g id="patch_16">
    <path d="M 559.019542 500.74 
L 559.019542 381.48 
" style="fill:none;stroke:#000000;stroke-linecap:square;stroke-linejoin:miter;stroke-width:0.8;"/>
   </g>
   <g id="patch_17">
    <path d="M 56.847002 500.74 
L 559.019542 500.74 
" style="fill:none;stroke:#000000;stroke-linecap:square;stroke-linejoin:miter;stroke-width:0.8;"/>
   </g>
   <g id="patch_18">
    <path d="M 56.847002 381.48 
L 559.019542 381.48 
" style="fill:none;stroke:#000000;stroke-linecap:square;stroke-linejoin:miter;stroke-width:0.8;"/>
   </g>
   <g id="text_52">
    <!-- Rotational Velocity -->
    <g transform="translate(252.05171 375.48)scale(0.12 -0.12)">
     <use xlink:href="#DejaVuSans-82"/>
     <use x="64.982422" xlink:href="#DejaVuSans-111"/>
     <use x="126.164062" xlink:href="#DejaVuSans-116"/>
     <use x="165.373047" xlink:href="#DejaVuSans-97"/>
     <use x="226.652344" xlink:href="#DejaVuSans-116"/>
     <use x="265.861328" xlink:href="#DejaVuSans-105"/>
     <use x="293.644531" xlink:href="#DejaVuSans-111"/>
     <use x="354.826172" xlink:href="#DejaVuSans-110"/>
     <use x="418.205078" xlink:href="#DejaVuSans-97"/>
     <use x="479.484375" xlink:href="#DejaVuSans-108"/>
     <use x="507.267578" xlink:href="#DejaVuSans-32"/>
     <use x="539.054688" xlink:href="#DejaVuSans-86"/>
     <use x="599.712891" xlink:href="#DejaVuSans-101"/>
     <use x="661.236328" xlink:href="#DejaVuSans-108"/>
     <use x="689.019531" xlink:href="#DejaVuSans-111"/>
     <use x="750.201172" xlink:href="#DejaVuSans-99"/>
     <use x="805.181641" xlink:href="#DejaVuSans-105"/>
     <use x="832.964844" xlink:href="#DejaVuSans-116"/>
     <use x="872.173828" xlink:href="#DejaVuSans-121"/>
    </g>
   </g>
   <g id="legend_3">
    <g id="patch_19">
     <path d="M 469.502355 418.83625 
L 552.019542 418.83625 
Q 554.019542 418.83625 554.019542 416.83625 
L 554.019542 388.48 
Q 554.019542 386.48 552.019542 386.48 
L 469.502355 386.48 
Q 467.502355 386.48 467.502355 388.48 
L 467.502355 416.83625 
Q 467.502355 418.83625 469.502355 418.83625 
z
" style="fill:#ffffff;opacity:0.8;stroke:#cccccc;stroke-linejoin:miter;"/>
    </g>
    <g id="line2d_90">
     <path d="M 471.502355 394.578438 
L 491.502355 394.578438 
" style="fill:none;stroke:#1f77b4;stroke-linecap:square;stroke-width:2;"/>
    </g>
    <g id="line2d_91"/>
    <g id="text_53">
     <!-- Reference -->
     <g transform="translate(499.502355 398.078438)scale(0.1 -0.1)">
      <use xlink:href="#DejaVuSans-82"/>
      <use x="64.982422" xlink:href="#DejaVuSans-101"/>
      <use x="126.505859" xlink:href="#DejaVuSans-102"/>
      <use x="161.710938" xlink:href="#DejaVuSans-101"/>
      <use x="223.234375" xlink:href="#DejaVuSans-114"/>
      <use x="262.097656" xlink:href="#DejaVuSans-101"/>
      <use x="323.621094" xlink:href="#DejaVuSans-110"/>
      <use x="387" xlink:href="#DejaVuSans-99"/>
      <use x="441.980469" xlink:href="#DejaVuSans-101"/>
     </g>
    </g>
    <g id="line2d_92">
     <path d="M 471.502355 409.256563 
L 491.502355 409.256563 
" style="fill:none;stroke:#ff7f0e;stroke-linecap:square;stroke-width:2;"/>
    </g>
    <g id="line2d_93"/>
    <g id="text_54">
     <!-- Estimated -->
     <g transform="translate(499.502355 412.756563)scale(0.1 -0.1)">
      <use xlink:href="#DejaVuSans-69"/>
      <use x="63.183594" xlink:href="#DejaVuSans-115"/>
      <use x="115.283203" xlink:href="#DejaVuSans-116"/>
      <use x="154.492188" xlink:href="#DejaVuSans-105"/>
      <use x="182.275391" xlink:href="#DejaVuSans-109"/>
      <use x="279.6875" xlink:href="#DejaVuSans-97"/>
      <use x="340.966797" xlink:href="#DejaVuSans-116"/>
      <use x="380.175781" xlink:href="#DejaVuSans-101"/>
      <use x="441.699219" xlink:href="#DejaVuSans-100"/>
     </g>
    </g>
   </g>
  </g>
  <g id="axes_4">
   <g id="patch_20">
    <path d="M 56.847002 678.04 
L 559.019542 678.04 
L 559.019542 558.78 
L 56.847002 558.78 
z
" style="fill:#ffffff;"/>
   </g>
   <g id="matplotlib.axis_7">
    <g id="xtick_22">
     <g id="line2d_94">
      <path clip-path="url(#p8d87abb364)" d="M 79.673027 678.04 
L 79.673027 558.78 
" style="fill:none;stroke:#b0b0b0;stroke-linecap:square;stroke-width:0.8;"/>
     </g>
     <g id="line2d_95">
      <g>
       <use style="stroke:#000000;stroke-width:0.8;" x="79.673027" xlink:href="#md9aa192914" y="678.04"/>
      </g>
     </g>
     <g id="text_55">
      <!-- 0.00 -->
      <g transform="translate(68.540214 692.638438)scale(0.1 -0.1)">
       <use xlink:href="#DejaVuSans-48"/>
       <use x="63.623047" xlink:href="#DejaVuSans-46"/>
       <use x="95.410156" xlink:href="#DejaVuSans-48"/>
       <use x="159.033203" xlink:href="#DejaVuSans-48"/>
      </g>
     </g>
    </g>
    <g id="xtick_23">
     <g id="line2d_96">
      <path clip-path="url(#p8d87abb364)" d="M 158.65581 678.04 
L 158.65581 558.78 
" style="fill:none;stroke:#b0b0b0;stroke-linecap:square;stroke-width:0.8;"/>
     </g>
     <g id="line2d_97">
      <g>
       <use style="stroke:#000000;stroke-width:0.8;" x="158.65581" xlink:href="#md9aa192914" y="678.04"/>
      </g>
     </g>
     <g id="text_56">
      <!-- 0.05 -->
      <g transform="translate(147.522998 692.638438)scale(0.1 -0.1)">
       <use xlink:href="#DejaVuSans-48"/>
       <use x="63.623047" xlink:href="#DejaVuSans-46"/>
       <use x="95.410156" xlink:href="#DejaVuSans-48"/>
       <use x="159.033203" xlink:href="#DejaVuSans-53"/>
      </g>
     </g>
    </g>
    <g id="xtick_24">
     <g id="line2d_98">
      <path clip-path="url(#p8d87abb364)" d="M 237.638594 678.04 
L 237.638594 558.78 
" style="fill:none;stroke:#b0b0b0;stroke-linecap:square;stroke-width:0.8;"/>
     </g>
     <g id="line2d_99">
      <g>
       <use style="stroke:#000000;stroke-width:0.8;" x="237.638594" xlink:href="#md9aa192914" y="678.04"/>
      </g>
     </g>
     <g id="text_57">
      <!-- 0.10 -->
      <g transform="translate(226.505782 692.638438)scale(0.1 -0.1)">
       <use xlink:href="#DejaVuSans-48"/>
       <use x="63.623047" xlink:href="#DejaVuSans-46"/>
       <use x="95.410156" xlink:href="#DejaVuSans-49"/>
       <use x="159.033203" xlink:href="#DejaVuSans-48"/>
      </g>
     </g>
    </g>
    <g id="xtick_25">
     <g id="line2d_100">
      <path clip-path="url(#p8d87abb364)" d="M 316.621378 678.04 
L 316.621378 558.78 
" style="fill:none;stroke:#b0b0b0;stroke-linecap:square;stroke-width:0.8;"/>
     </g>
     <g id="line2d_101">
      <g>
       <use style="stroke:#000000;stroke-width:0.8;" x="316.621378" xlink:href="#md9aa192914" y="678.04"/>
      </g>
     </g>
     <g id="text_58">
      <!-- 0.15 -->
      <g transform="translate(305.488566 692.638438)scale(0.1 -0.1)">
       <use xlink:href="#DejaVuSans-48"/>
       <use x="63.623047" xlink:href="#DejaVuSans-46"/>
       <use x="95.410156" xlink:href="#DejaVuSans-49"/>
       <use x="159.033203" xlink:href="#DejaVuSans-53"/>
      </g>
     </g>
    </g>
    <g id="xtick_26">
     <g id="line2d_102">
      <path clip-path="url(#p8d87abb364)" d="M 395.604162 678.04 
L 395.604162 558.78 
" style="fill:none;stroke:#b0b0b0;stroke-linecap:square;stroke-width:0.8;"/>
     </g>
     <g id="line2d_103">
      <g>
       <use style="stroke:#000000;stroke-width:0.8;" x="395.604162" xlink:href="#md9aa192914" y="678.04"/>
      </g>
     </g>
     <g id="text_59">
      <!-- 0.20 -->
      <g transform="translate(384.47135 692.638438)scale(0.1 -0.1)">
       <use xlink:href="#DejaVuSans-48"/>
       <use x="63.623047" xlink:href="#DejaVuSans-46"/>
       <use x="95.410156" xlink:href="#DejaVuSans-50"/>
       <use x="159.033203" xlink:href="#DejaVuSans-48"/>
      </g>
     </g>
    </g>
    <g id="xtick_27">
     <g id="line2d_104">
      <path clip-path="url(#p8d87abb364)" d="M 474.586946 678.04 
L 474.586946 558.78 
" style="fill:none;stroke:#b0b0b0;stroke-linecap:square;stroke-width:0.8;"/>
     </g>
     <g id="line2d_105">
      <g>
       <use style="stroke:#000000;stroke-width:0.8;" x="474.586946" xlink:href="#md9aa192914" y="678.04"/>
      </g>
     </g>
     <g id="text_60">
      <!-- 0.25 -->
      <g transform="translate(463.454134 692.638438)scale(0.1 -0.1)">
       <use xlink:href="#DejaVuSans-48"/>
       <use x="63.623047" xlink:href="#DejaVuSans-46"/>
       <use x="95.410156" xlink:href="#DejaVuSans-50"/>
       <use x="159.033203" xlink:href="#DejaVuSans-53"/>
      </g>
     </g>
    </g>
    <g id="xtick_28">
     <g id="line2d_106">
      <path clip-path="url(#p8d87abb364)" d="M 553.56973 678.04 
L 553.56973 558.78 
" style="fill:none;stroke:#b0b0b0;stroke-linecap:square;stroke-width:0.8;"/>
     </g>
     <g id="line2d_107">
      <g>
       <use style="stroke:#000000;stroke-width:0.8;" x="553.56973" xlink:href="#md9aa192914" y="678.04"/>
      </g>
     </g>
     <g id="text_61">
      <!-- 0.30 -->
      <g transform="translate(542.436918 692.638438)scale(0.1 -0.1)">
       <use xlink:href="#DejaVuSans-48"/>
       <use x="63.623047" xlink:href="#DejaVuSans-46"/>
       <use x="95.410156" xlink:href="#DejaVuSans-51"/>
       <use x="159.033203" xlink:href="#DejaVuSans-48"/>
      </g>
     </g>
    </g>
    <g id="text_62">
     <!-- Time [ms] -->
     <g transform="translate(282.734053 706.316563)scale(0.1 -0.1)">
      <use xlink:href="#DejaVuSans-84"/>
      <use x="57.958984" xlink:href="#DejaVuSans-105"/>
      <use x="85.742188" xlink:href="#DejaVuSans-109"/>
      <use x="183.154297" xlink:href="#DejaVuSans-101"/>
      <use x="244.677734" xlink:href="#DejaVuSans-32"/>
      <use x="276.464844" xlink:href="#DejaVuSans-91"/>
      <use x="315.478516" xlink:href="#DejaVuSans-109"/>
      <use x="412.890625" xlink:href="#DejaVuSans-115"/>
      <use x="464.990234" xlink:href="#DejaVuSans-93"/>
     </g>
    </g>
   </g>
   <g id="matplotlib.axis_8">
    <g id="ytick_13">
     <g id="line2d_108">
      <path clip-path="url(#p8d87abb364)" d="M 56.847002 649.029691 
L 559.019542 649.029691 
" style="fill:none;stroke:#b0b0b0;stroke-linecap:square;stroke-width:0.8;"/>
     </g>
     <g id="line2d_109">
      <g>
       <use style="stroke:#000000;stroke-width:0.8;" x="56.847002" xlink:href="#m5137d60127" y="649.029691"/>
      </g>
     </g>
     <g id="text_63">
      <!-- $\mathdefault{0}$ -->
      <g transform="translate(43.447002 652.82891)scale(0.1 -0.1)">
       <use transform="translate(0 0.78125)" xlink:href="#DejaVuSans-48"/>
      </g>
     </g>
    </g>
    <g id="ytick_14">
     <g id="line2d_110">
      <path clip-path="url(#p8d87abb364)" d="M 56.847002 610.455549 
L 559.019542 610.455549 
" style="fill:none;stroke:#b0b0b0;stroke-linecap:square;stroke-width:0.8;"/>
     </g>
     <g id="line2d_111">
      <g>
       <use style="stroke:#000000;stroke-width:0.8;" x="56.847002" xlink:href="#m5137d60127" y="610.455549"/>
      </g>
     </g>
     <g id="text_64">
      <!-- $\mathdefault{1}$ -->
      <g transform="translate(43.447002 614.254768)scale(0.1 -0.1)">
       <use transform="translate(0 0.09375)" xlink:href="#DejaVuSans-49"/>
      </g>
     </g>
    </g>
    <g id="ytick_15">
     <g id="line2d_112">
      <path clip-path="url(#p8d87abb364)" d="M 56.847002 571.881407 
L 559.019542 571.881407 
" style="fill:none;stroke:#b0b0b0;stroke-linecap:square;stroke-width:0.8;"/>
     </g>
     <g id="line2d_113">
      <g>
       <use style="stroke:#000000;stroke-width:0.8;" x="56.847002" xlink:href="#m5137d60127" y="571.881407"/>
      </g>
     </g>
     <g id="text_65">
      <!-- $\mathdefault{2}$ -->
      <g transform="translate(43.447002 575.680625)scale(0.1 -0.1)">
       <use transform="translate(0 0.78125)" xlink:href="#DejaVuSans-50"/>
      </g>
     </g>
    </g>
    <g id="text_66">
     <!-- pwm input -->
     <g transform="translate(37.367314 644.993594)rotate(-90)scale(0.1 -0.1)">
      <use xlink:href="#DejaVuSans-112"/>
      <use x="63.476562" xlink:href="#DejaVuSans-119"/>
      <use x="145.263672" xlink:href="#DejaVuSans-109"/>
      <use x="242.675781" xlink:href="#DejaVuSans-32"/>
      <use x="274.462891" xlink:href="#DejaVuSans-105"/>
      <use x="302.246094" xlink:href="#DejaVuSans-110"/>
      <use x="365.625" xlink:href="#DejaVuSans-112"/>
      <use x="429.101562" xlink:href="#DejaVuSans-117"/>
      <use x="492.480469" xlink:href="#DejaVuSans-116"/>
     </g>
    </g>
    <g id="text_67">
     <!-- $\times\mathdefault{10^{−1}}\mathdefault{}$ -->
     <g transform="translate(56.847002 555.78)scale(0.1 -0.1)">
      <use transform="translate(0 0.684375)" xlink:href="#DejaVuSans-215"/>
      <use transform="translate(83.789062 0.684375)" xlink:href="#DejaVuSans-49"/>
      <use transform="translate(147.412109 0.684375)" xlink:href="#DejaVuSans-48"/>
      <use transform="translate(211.992188 38.965625)scale(0.7)" xlink:href="#DejaVuSans-8722"/>
      <use transform="translate(270.644531 38.965625)scale(0.7)" xlink:href="#DejaVuSans-49"/>
     </g>
    </g>
   </g>
   <g id="line2d_114">
    <path clip-path="url(#p8d87abb364)" d="M 79.673027 649.029691 
L 81.252682 647.563361 
L 82.832338 643.018953 
L 85.991649 636.620428 
L 89.150961 629.834118 
L 90.730616 626.295519 
L 92.310272 624.489863 
L 93.889928 618.927511 
L 95.469583 615.098101 
L 104.947517 609.281352 
L 106.527173 608.796475 
L 108.106829 607.827107 
L 109.686484 607.34223 
L 120.744074 600.555881 
L 122.32373 599.101636 
L 123.903386 598.132268 
L 125.483041 597.647776 
L 130.222008 594.739286 
L 131.801664 593.285041 
L 133.38132 592.800164 
L 147.598221 584.075079 
L 149.177876 582.135957 
L 150.757532 581.65108 
L 152.337188 580.681711 
L 153.916843 579.227466 
L 168.133745 570.502381 
L 169.7134 570.017504 
L 179.191334 564.200909 
L 180.77099 567.218179 
L 182.350646 568.27241 
L 183.930301 571.580914 
L 187.089613 576.33132 
L 190.248924 581.469781 
L 193.408235 586.995527 
L 194.987891 588.437428 
L 343.475525 588.437428 
L 345.055181 590.89383 
L 348.214492 597.066078 
L 349.794148 598.669605 
L 351.373803 603.625997 
L 354.533115 610.573624 
L 356.11277 614.19292 
L 357.692426 616.038886 
L 359.272082 621.722284 
L 360.851737 623.176568 
L 364.011049 625.115497 
L 365.590704 625.60022 
L 367.17036 627.054427 
L 371.909327 629.962801 
L 373.488983 630.447524 
L 375.068638 631.417008 
L 376.648294 632.871176 
L 378.22795 633.355899 
L 379.807606 634.810105 
L 381.387261 635.294828 
L 382.966917 636.749034 
L 389.28554 640.626854 
L 390.865195 641.111616 
L 392.444851 642.565784 
L 397.183818 645.474181 
L 398.763474 645.958912 
L 400.343129 647.413103 
L 405.082096 650.321489 
L 406.661752 650.80622 
L 408.241408 652.260411 
L 409.821063 652.745145 
L 411.400719 654.199321 
L 412.980375 654.684082 
L 414.56003 655.653527 
L 416.139686 657.107734 
L 419.298998 659.046663 
L 420.878653 659.531386 
L 422.458309 660.500831 
L 424.037965 661.955038 
L 441.414177 672.619091 
L 442.993833 672.617124 
L 444.573488 671.619481 
L 446.153144 668.481011 
L 449.312455 663.957074 
L 452.471767 659.04539 
L 455.631078 653.74592 
L 457.210734 652.360449 
L 458.790389 649.029691 
L 536.193518 649.029691 
L 536.193518 649.029691 
" style="fill:none;stroke:#1f77b4;stroke-linecap:square;stroke-width:2;"/>
   </g>
   <g id="line2d_115">
    <path clip-path="url(#p8d87abb364)" d="M 79.673027 649.029691 
L 536.193518 649.029691 
L 536.193518 649.029691 
" style="fill:none;stroke:#ff7f0e;stroke-linecap:square;stroke-width:2;"/>
   </g>
   <g id="line2d_116">
    <path clip-path="url(#p8d87abb364)" d="M 79.673027 649.029691 
L 536.193518 649.029691 
L 536.193518 649.029691 
" style="fill:none;stroke:#2ca02c;stroke-linecap:square;stroke-width:2;"/>
   </g>
   <g id="line2d_117">
    <path clip-path="url(#p8d87abb364)" d="M 79.673027 649.029691 
L 536.193518 649.029691 
L 536.193518 649.029691 
" style="fill:none;stroke:#d62728;stroke-linecap:square;stroke-width:2;"/>
   </g>
   <g id="line2d_118">
    <path clip-path="url(#p8d87abb364)" d="M 79.673027 649.029691 
L 81.252682 647.563361 
L 82.832338 643.018953 
L 85.991649 636.620428 
L 89.150961 629.834118 
L 90.730616 626.295519 
L 92.310272 624.489863 
L 93.889928 618.927511 
L 95.469583 615.098101 
L 104.947517 609.281352 
L 106.527173 608.796475 
L 108.106829 607.827107 
L 109.686484 607.34223 
L 120.744074 600.555881 
L 122.32373 599.101636 
L 123.903386 598.132268 
L 125.483041 597.647776 
L 130.222008 594.739286 
L 131.801664 593.285041 
L 133.38132 592.800164 
L 147.598221 584.075079 
L 149.177876 582.135957 
L 150.757532 581.65108 
L 152.337188 580.681711 
L 153.916843 579.227466 
L 168.133745 570.502381 
L 169.7134 570.017504 
L 179.191334 564.200909 
L 180.77099 567.218179 
L 182.350646 568.27241 
L 183.930301 571.580914 
L 187.089613 576.33132 
L 190.248924 581.469781 
L 193.408235 586.995527 
L 194.987891 588.437428 
L 343.475525 588.437428 
L 345.055181 590.89383 
L 348.214492 597.066078 
L 349.794148 598.669605 
L 351.373803 603.625997 
L 354.533115 610.573624 
L 356.11277 614.19292 
L 357.692426 616.038886 
L 359.272082 621.722284 
L 360.851737 623.176568 
L 364.011049 625.115497 
L 365.590704 625.60022 
L 367.17036 627.054427 
L 371.909327 629.962801 
L 373.488983 630.447524 
L 375.068638 631.417008 
L 376.648294 632.871176 
L 378.22795 633.355899 
L 379.807606 634.810105 
L 381.387261 635.294828 
L 382.966917 636.749034 
L 389.28554 640.626854 
L 390.865195 641.111616 
L 392.444851 642.565784 
L 397.183818 645.474181 
L 398.763474 645.958912 
L 400.343129 647.413103 
L 405.082096 650.321489 
L 406.661752 650.80622 
L 408.241408 652.260411 
L 409.821063 652.745145 
L 411.400719 654.199321 
L 412.980375 654.684082 
L 414.56003 655.653527 
L 416.139686 657.107734 
L 419.298998 659.046663 
L 420.878653 659.531386 
L 422.458309 660.500831 
L 424.037965 661.955038 
L 441.414177 672.619091 
L 442.993833 672.617124 
L 444.573488 671.619481 
L 446.153144 668.481011 
L 449.312455 663.957074 
L 452.471767 659.04539 
L 455.631078 653.74592 
L 457.210734 652.360449 
L 458.790389 649.029691 
L 536.193518 649.029691 
L 536.193518 649.029691 
" style="fill:none;stroke:#9467bd;stroke-linecap:square;stroke-width:2;"/>
   </g>
   <g id="patch_21">
    <path d="M 56.847002 678.04 
L 56.847002 558.78 
" style="fill:none;stroke:#000000;stroke-linecap:square;stroke-linejoin:miter;stroke-width:0.8;"/>
   </g>
   <g id="patch_22">
    <path d="M 559.019542 678.04 
L 559.019542 558.78 
" style="fill:none;stroke:#000000;stroke-linecap:square;stroke-linejoin:miter;stroke-width:0.8;"/>
   </g>
   <g id="patch_23">
    <path d="M 56.847002 678.04 
L 559.019542 678.04 
" style="fill:none;stroke:#000000;stroke-linecap:square;stroke-linejoin:miter;stroke-width:0.8;"/>
   </g>
   <g id="patch_24">
    <path d="M 56.847002 558.78 
L 559.019542 558.78 
" style="fill:none;stroke:#000000;stroke-linecap:square;stroke-linejoin:miter;stroke-width:0.8;"/>
   </g>
   <g id="text_68">
    <!-- Rotational PWM Input -->
    <g transform="translate(243.420147 552.78)scale(0.12 -0.12)">
     <use xlink:href="#DejaVuSans-82"/>
     <use x="64.982422" xlink:href="#DejaVuSans-111"/>
     <use x="126.164062" xlink:href="#DejaVuSans-116"/>
     <use x="165.373047" xlink:href="#DejaVuSans-97"/>
     <use x="226.652344" xlink:href="#DejaVuSans-116"/>
     <use x="265.861328" xlink:href="#DejaVuSans-105"/>
     <use x="293.644531" xlink:href="#DejaVuSans-111"/>
     <use x="354.826172" xlink:href="#DejaVuSans-110"/>
     <use x="418.205078" xlink:href="#DejaVuSans-97"/>
     <use x="479.484375" xlink:href="#DejaVuSans-108"/>
     <use x="507.267578" xlink:href="#DejaVuSans-32"/>
     <use x="539.054688" xlink:href="#DejaVuSans-80"/>
     <use x="599.357422" xlink:href="#DejaVuSans-87"/>
     <use x="698.234375" xlink:href="#DejaVuSans-77"/>
     <use x="784.513672" xlink:href="#DejaVuSans-32"/>
     <use x="816.300781" xlink:href="#DejaVuSans-73"/>
     <use x="845.792969" xlink:href="#DejaVuSans-110"/>
     <use x="909.171875" xlink:href="#DejaVuSans-112"/>
     <use x="972.648438" xlink:href="#DejaVuSans-117"/>
     <use x="1036.027344" xlink:href="#DejaVuSans-116"/>
    </g>
   </g>
   <g id="legend_4">
    <g id="patch_25">
     <path d="M 230.700792 581.458125 
L 552.019542 581.458125 
Q 554.019542 581.458125 554.019542 579.458125 
L 554.019542 565.78 
Q 554.019542 563.78 552.019542 563.78 
L 230.700792 563.78 
Q 228.700792 563.78 228.700792 565.78 
L 228.700792 579.458125 
Q 228.700792 581.458125 230.700792 581.458125 
z
" style="fill:#ffffff;opacity:0.8;stroke:#cccccc;stroke-linejoin:miter;"/>
    </g>
    <g id="line2d_119">
     <path d="M 232.700792 571.878438 
L 252.700792 571.878438 
" style="fill:none;stroke:#1f77b4;stroke-linecap:square;stroke-width:2;"/>
    </g>
    <g id="line2d_120"/>
    <g id="text_69">
     <!-- FF -->
     <g transform="translate(260.700792 575.378438)scale(0.1 -0.1)">
      <use xlink:href="#DejaVuSans-70"/>
      <use x="57.519531" xlink:href="#DejaVuSans-70"/>
     </g>
    </g>
    <g id="line2d_121">
     <path d="M 292.203917 571.878438 
L 312.203917 571.878438 
" style="fill:none;stroke:#ff7f0e;stroke-linecap:square;stroke-width:2;"/>
    </g>
    <g id="line2d_122"/>
    <g id="text_70">
     <!-- FB -->
     <g transform="translate(320.203917 575.378438)scale(0.1 -0.1)">
      <use xlink:href="#DejaVuSans-70"/>
      <use x="57.519531" xlink:href="#DejaVuSans-66"/>
     </g>
    </g>
    <g id="line2d_123">
     <path d="M 352.816417 571.878438 
L 372.816417 571.878438 
" style="fill:none;stroke:#2ca02c;stroke-linecap:square;stroke-width:2;"/>
    </g>
    <g id="line2d_124"/>
    <g id="text_71">
     <!-- FB p -->
     <g transform="translate(380.816417 575.378438)scale(0.1 -0.1)">
      <use xlink:href="#DejaVuSans-70"/>
      <use x="57.519531" xlink:href="#DejaVuSans-66"/>
      <use x="126.123047" xlink:href="#DejaVuSans-32"/>
      <use x="157.910156" xlink:href="#DejaVuSans-112"/>
     </g>
    </g>
    <g id="line2d_125">
     <path d="M 422.95548 571.878438 
L 442.95548 571.878438 
" style="fill:none;stroke:#d62728;stroke-linecap:square;stroke-width:2;"/>
    </g>
    <g id="line2d_126"/>
    <g id="text_72">
     <!-- FB i -->
     <g transform="translate(450.95548 575.378438)scale(0.1 -0.1)">
      <use xlink:href="#DejaVuSans-70"/>
      <use x="57.519531" xlink:href="#DejaVuSans-66"/>
      <use x="126.123047" xlink:href="#DejaVuSans-32"/>
      <use x="157.910156" xlink:href="#DejaVuSans-105"/>
     </g>
    </g>
    <g id="line2d_127">
     <path d="M 489.52423 571.878438 
L 509.52423 571.878438 
" style="fill:none;stroke:#9467bd;stroke-linecap:square;stroke-width:2;"/>
    </g>
    <g id="line2d_128"/>
    <g id="text_73">
     <!-- FF+FB -->
     <g transform="translate(517.52423 575.378438)scale(0.1 -0.1)">
      <use xlink:href="#DejaVuSans-70"/>
      <use x="57.519531" xlink:href="#DejaVuSans-70"/>
      <use x="115.039062" xlink:href="#DejaVuSans-43"/>
      <use x="198.828125" xlink:href="#DejaVuSans-70"/>
      <use x="256.347656" xlink:href="#DejaVuSans-66"/>
     </g>
    </g>
   </g>
  </g>
 </g>
 <defs>
  <clipPath id="pa6cde6ac58">
   <rect height="119.26" width="502.17254" x="56.847002" y="26.88"/>
  </clipPath>
  <clipPath id="pa90acfed9d">
   <rect height="119.26" width="502.17254" x="56.847002" y="204.18"/>
  </clipPath>
  <clipPath id="p377a0360de">
   <rect height="119.26" width="502.17254" x="56.847002" y="381.48"/>
  </clipPath>
  <clipPath id="p8d87abb364">
   <rect height="119.26" width="502.17254" x="56.847002" y="558.78"/>
  </clipPath>
 </defs>
</svg>
