<?xml version="1.0" encoding="utf-8" standalone="no"?>
<!DOCTYPE svg PUBLIC "-//W3C//DTD SVG 1.1//EN"
  "http://www.w3.org/Graphics/SVG/1.1/DTD/svg11.dtd">
<svg xmlns:xlink="http://www.w3.org/1999/xlink" width="460.8pt" height="345.6pt" viewBox="0 0 460.8 345.6" xmlns="http://www.w3.org/2000/svg" version="1.1">
 <metadata>
  <rdf:RDF xmlns:dc="http://purl.org/dc/elements/1.1/" xmlns:cc="http://creativecommons.org/ns#" xmlns:rdf="http://www.w3.org/1999/02/22-rdf-syntax-ns#">
   <cc:Work>
    <dc:type rdf:resource="http://purl.org/dc/dcmitype/StillImage"/>
    <dc:date>2022-03-06T01:19:17.116085</dc:date>
    <dc:format>image/svg+xml</dc:format>
    <dc:creator>
     <cc:Agent>
      <dc:title>Matplotlib v3.5.1, https://matplotlib.org/</dc:title>
     </cc:Agent>
    </dc:creator>
   </cc:Work>
  </rdf:RDF>
 </metadata>
 <defs>
  <style type="text/css">*{stroke-linejoin: round; stroke-linecap: butt}</style>
 </defs>
 <g id="figure_1">
  <g id="patch_1">
   <path d="M 0 345.6 
L 460.8 345.6 
L 460.8 0 
L 0 0 
z
" style="fill: #ffffff"/>
  </g>
  <g id="axes_1">
   <g id="patch_2">
    <path d="M 55.760938 161.67875 
L 450 161.67875 
L 450 33.21375 
L 55.760938 33.21375 
z
" style="fill: #ffffff"/>
   </g>
   <g id="matplotlib.axis_1">
    <g id="xtick_1">
     <g id="line2d_1">
      <path d="M 73.680895 161.67875 
L 73.680895 33.21375 
" clip-path="url(#p35466cbc3e)" style="fill: none; stroke: #b0b0b0; stroke-width: 0.8; stroke-linecap: square"/>
     </g>
     <g id="line2d_2">
      <defs>
       <path id="ma891c4c60d" d="M 0 0 
L 0 3.5 
" style="stroke: #000000; stroke-width: 0.8"/>
      </defs>
      <g>
       <use xlink:href="#ma891c4c60d" x="73.680895" y="161.67875" style="stroke: #000000; stroke-width: 0.8"/>
      </g>
     </g>
    </g>
    <g id="xtick_2">
     <g id="line2d_3">
      <path d="M 130.841843 161.67875 
L 130.841843 33.21375 
" clip-path="url(#p35466cbc3e)" style="fill: none; stroke: #b0b0b0; stroke-width: 0.8; stroke-linecap: square"/>
     </g>
     <g id="line2d_4">
      <g>
       <use xlink:href="#ma891c4c60d" x="130.841843" y="161.67875" style="stroke: #000000; stroke-width: 0.8"/>
      </g>
     </g>
    </g>
    <g id="xtick_3">
     <g id="line2d_5">
      <path d="M 188.002792 161.67875 
L 188.002792 33.21375 
" clip-path="url(#p35466cbc3e)" style="fill: none; stroke: #b0b0b0; stroke-width: 0.8; stroke-linecap: square"/>
     </g>
     <g id="line2d_6">
      <g>
       <use xlink:href="#ma891c4c60d" x="188.002792" y="161.67875" style="stroke: #000000; stroke-width: 0.8"/>
      </g>
     </g>
    </g>
    <g id="xtick_4">
     <g id="line2d_7">
      <path d="M 245.163741 161.67875 
L 245.163741 33.21375 
" clip-path="url(#p35466cbc3e)" style="fill: none; stroke: #b0b0b0; stroke-width: 0.8; stroke-linecap: square"/>
     </g>
     <g id="line2d_8">
      <g>
       <use xlink:href="#ma891c4c60d" x="245.163741" y="161.67875" style="stroke: #000000; stroke-width: 0.8"/>
      </g>
     </g>
    </g>
    <g id="xtick_5">
     <g id="line2d_9">
      <path d="M 302.324689 161.67875 
L 302.324689 33.21375 
" clip-path="url(#p35466cbc3e)" style="fill: none; stroke: #b0b0b0; stroke-width: 0.8; stroke-linecap: square"/>
     </g>
     <g id="line2d_10">
      <g>
       <use xlink:href="#ma891c4c60d" x="302.324689" y="161.67875" style="stroke: #000000; stroke-width: 0.8"/>
      </g>
     </g>
    </g>
    <g id="xtick_6">
     <g id="line2d_11">
      <path d="M 359.485638 161.67875 
L 359.485638 33.21375 
" clip-path="url(#p35466cbc3e)" style="fill: none; stroke: #b0b0b0; stroke-width: 0.8; stroke-linecap: square"/>
     </g>
     <g id="line2d_12">
      <g>
       <use xlink:href="#ma891c4c60d" x="359.485638" y="161.67875" style="stroke: #000000; stroke-width: 0.8"/>
      </g>
     </g>
    </g>
    <g id="xtick_7">
     <g id="line2d_13">
      <path d="M 416.646586 161.67875 
L 416.646586 33.21375 
" clip-path="url(#p35466cbc3e)" style="fill: none; stroke: #b0b0b0; stroke-width: 0.8; stroke-linecap: square"/>
     </g>
     <g id="line2d_14">
      <g>
       <use xlink:href="#ma891c4c60d" x="416.646586" y="161.67875" style="stroke: #000000; stroke-width: 0.8"/>
      </g>
     </g>
    </g>
   </g>
   <g id="matplotlib.axis_2">
    <g id="ytick_1">
     <g id="line2d_15">
      <path d="M 55.760938 149.751202 
L 450 149.751202 
" clip-path="url(#p35466cbc3e)" style="fill: none; stroke: #b0b0b0; stroke-width: 0.8; stroke-linecap: square"/>
     </g>
     <g id="line2d_16">
      <defs>
       <path id="m1973e70227" d="M 0 0 
L -3.5 0 
" style="stroke: #000000; stroke-width: 0.8"/>
      </defs>
      <g>
       <use xlink:href="#m1973e70227" x="55.760938" y="149.751202" style="stroke: #000000; stroke-width: 0.8"/>
      </g>
     </g>
     <g id="text_1">
      <!-- 0 -->
      <g transform="translate(42.398438 153.55042)scale(0.1 -0.1)">
       <defs>
        <path id="DejaVuSans-30" d="M 2034 4250 
Q 1547 4250 1301 3770 
Q 1056 3291 1056 2328 
Q 1056 1369 1301 889 
Q 1547 409 2034 409 
Q 2525 409 2770 889 
Q 3016 1369 3016 2328 
Q 3016 3291 2770 3770 
Q 2525 4250 2034 4250 
z
M 2034 4750 
Q 2819 4750 3233 4129 
Q 3647 3509 3647 2328 
Q 3647 1150 3233 529 
Q 2819 -91 2034 -91 
Q 1250 -91 836 529 
Q 422 1150 422 2328 
Q 422 3509 836 4129 
Q 1250 4750 2034 4750 
z
" transform="scale(0.015625)"/>
       </defs>
       <use xlink:href="#DejaVuSans-30"/>
      </g>
     </g>
    </g>
    <g id="ytick_2">
     <g id="line2d_17">
      <path d="M 55.760938 116.317758 
L 450 116.317758 
" clip-path="url(#p35466cbc3e)" style="fill: none; stroke: #b0b0b0; stroke-width: 0.8; stroke-linecap: square"/>
     </g>
     <g id="line2d_18">
      <g>
       <use xlink:href="#m1973e70227" x="55.760938" y="116.317758" style="stroke: #000000; stroke-width: 0.8"/>
      </g>
     </g>
     <g id="text_2">
      <!-- 200 -->
      <g transform="translate(29.673438 120.116976)scale(0.1 -0.1)">
       <defs>
        <path id="DejaVuSans-32" d="M 1228 531 
L 3431 531 
L 3431 0 
L 469 0 
L 469 531 
Q 828 903 1448 1529 
Q 2069 2156 2228 2338 
Q 2531 2678 2651 2914 
Q 2772 3150 2772 3378 
Q 2772 3750 2511 3984 
Q 2250 4219 1831 4219 
Q 1534 4219 1204 4116 
Q 875 4013 500 3803 
L 500 4441 
Q 881 4594 1212 4672 
Q 1544 4750 1819 4750 
Q 2544 4750 2975 4387 
Q 3406 4025 3406 3419 
Q 3406 3131 3298 2873 
Q 3191 2616 2906 2266 
Q 2828 2175 2409 1742 
Q 1991 1309 1228 531 
z
" transform="scale(0.015625)"/>
       </defs>
       <use xlink:href="#DejaVuSans-32"/>
       <use xlink:href="#DejaVuSans-30" x="63.623047"/>
       <use xlink:href="#DejaVuSans-30" x="127.246094"/>
      </g>
     </g>
    </g>
    <g id="ytick_3">
     <g id="line2d_19">
      <path d="M 55.760938 82.884313 
L 450 82.884313 
" clip-path="url(#p35466cbc3e)" style="fill: none; stroke: #b0b0b0; stroke-width: 0.8; stroke-linecap: square"/>
     </g>
     <g id="line2d_20">
      <g>
       <use xlink:href="#m1973e70227" x="55.760938" y="82.884313" style="stroke: #000000; stroke-width: 0.8"/>
      </g>
     </g>
     <g id="text_3">
      <!-- 400 -->
      <g transform="translate(29.673438 86.683532)scale(0.1 -0.1)">
       <defs>
        <path id="DejaVuSans-34" d="M 2419 4116 
L 825 1625 
L 2419 1625 
L 2419 4116 
z
M 2253 4666 
L 3047 4666 
L 3047 1625 
L 3713 1625 
L 3713 1100 
L 3047 1100 
L 3047 0 
L 2419 0 
L 2419 1100 
L 313 1100 
L 313 1709 
L 2253 4666 
z
" transform="scale(0.015625)"/>
       </defs>
       <use xlink:href="#DejaVuSans-34"/>
       <use xlink:href="#DejaVuSans-30" x="63.623047"/>
       <use xlink:href="#DejaVuSans-30" x="127.246094"/>
      </g>
     </g>
    </g>
    <g id="ytick_4">
     <g id="line2d_21">
      <path d="M 55.760938 49.450869 
L 450 49.450869 
" clip-path="url(#p35466cbc3e)" style="fill: none; stroke: #b0b0b0; stroke-width: 0.8; stroke-linecap: square"/>
     </g>
     <g id="line2d_22">
      <g>
       <use xlink:href="#m1973e70227" x="55.760938" y="49.450869" style="stroke: #000000; stroke-width: 0.8"/>
      </g>
     </g>
     <g id="text_4">
      <!-- 600 -->
      <g transform="translate(29.673438 53.250088)scale(0.1 -0.1)">
       <defs>
        <path id="DejaVuSans-36" d="M 2113 2584 
Q 1688 2584 1439 2293 
Q 1191 2003 1191 1497 
Q 1191 994 1439 701 
Q 1688 409 2113 409 
Q 2538 409 2786 701 
Q 3034 994 3034 1497 
Q 3034 2003 2786 2293 
Q 2538 2584 2113 2584 
z
M 3366 4563 
L 3366 3988 
Q 3128 4100 2886 4159 
Q 2644 4219 2406 4219 
Q 1781 4219 1451 3797 
Q 1122 3375 1075 2522 
Q 1259 2794 1537 2939 
Q 1816 3084 2150 3084 
Q 2853 3084 3261 2657 
Q 3669 2231 3669 1497 
Q 3669 778 3244 343 
Q 2819 -91 2113 -91 
Q 1303 -91 875 529 
Q 447 1150 447 2328 
Q 447 3434 972 4092 
Q 1497 4750 2381 4750 
Q 2619 4750 2861 4703 
Q 3103 4656 3366 4563 
z
" transform="scale(0.015625)"/>
       </defs>
       <use xlink:href="#DejaVuSans-36"/>
       <use xlink:href="#DejaVuSans-30" x="63.623047"/>
       <use xlink:href="#DejaVuSans-30" x="127.246094"/>
      </g>
     </g>
    </g>
    <g id="text_5">
     <!-- trans. vel. [mm/s] -->
     <g transform="translate(23.59375 142.011875)rotate(-90)scale(0.1 -0.1)">
      <defs>
       <path id="DejaVuSans-74" d="M 1172 4494 
L 1172 3500 
L 2356 3500 
L 2356 3053 
L 1172 3053 
L 1172 1153 
Q 1172 725 1289 603 
Q 1406 481 1766 481 
L 2356 481 
L 2356 0 
L 1766 0 
Q 1100 0 847 248 
Q 594 497 594 1153 
L 594 3053 
L 172 3053 
L 172 3500 
L 594 3500 
L 594 4494 
L 1172 4494 
z
" transform="scale(0.015625)"/>
       <path id="DejaVuSans-72" d="M 2631 2963 
Q 2534 3019 2420 3045 
Q 2306 3072 2169 3072 
Q 1681 3072 1420 2755 
Q 1159 2438 1159 1844 
L 1159 0 
L 581 0 
L 581 3500 
L 1159 3500 
L 1159 2956 
Q 1341 3275 1631 3429 
Q 1922 3584 2338 3584 
Q 2397 3584 2469 3576 
Q 2541 3569 2628 3553 
L 2631 2963 
z
" transform="scale(0.015625)"/>
       <path id="DejaVuSans-61" d="M 2194 1759 
Q 1497 1759 1228 1600 
Q 959 1441 959 1056 
Q 959 750 1161 570 
Q 1363 391 1709 391 
Q 2188 391 2477 730 
Q 2766 1069 2766 1631 
L 2766 1759 
L 2194 1759 
z
M 3341 1997 
L 3341 0 
L 2766 0 
L 2766 531 
Q 2569 213 2275 61 
Q 1981 -91 1556 -91 
Q 1019 -91 701 211 
Q 384 513 384 1019 
Q 384 1609 779 1909 
Q 1175 2209 1959 2209 
L 2766 2209 
L 2766 2266 
Q 2766 2663 2505 2880 
Q 2244 3097 1772 3097 
Q 1472 3097 1187 3025 
Q 903 2953 641 2809 
L 641 3341 
Q 956 3463 1253 3523 
Q 1550 3584 1831 3584 
Q 2591 3584 2966 3190 
Q 3341 2797 3341 1997 
z
" transform="scale(0.015625)"/>
       <path id="DejaVuSans-6e" d="M 3513 2113 
L 3513 0 
L 2938 0 
L 2938 2094 
Q 2938 2591 2744 2837 
Q 2550 3084 2163 3084 
Q 1697 3084 1428 2787 
Q 1159 2491 1159 1978 
L 1159 0 
L 581 0 
L 581 3500 
L 1159 3500 
L 1159 2956 
Q 1366 3272 1645 3428 
Q 1925 3584 2291 3584 
Q 2894 3584 3203 3211 
Q 3513 2838 3513 2113 
z
" transform="scale(0.015625)"/>
       <path id="DejaVuSans-73" d="M 2834 3397 
L 2834 2853 
Q 2591 2978 2328 3040 
Q 2066 3103 1784 3103 
Q 1356 3103 1142 2972 
Q 928 2841 928 2578 
Q 928 2378 1081 2264 
Q 1234 2150 1697 2047 
L 1894 2003 
Q 2506 1872 2764 1633 
Q 3022 1394 3022 966 
Q 3022 478 2636 193 
Q 2250 -91 1575 -91 
Q 1294 -91 989 -36 
Q 684 19 347 128 
L 347 722 
Q 666 556 975 473 
Q 1284 391 1588 391 
Q 1994 391 2212 530 
Q 2431 669 2431 922 
Q 2431 1156 2273 1281 
Q 2116 1406 1581 1522 
L 1381 1569 
Q 847 1681 609 1914 
Q 372 2147 372 2553 
Q 372 3047 722 3315 
Q 1072 3584 1716 3584 
Q 2034 3584 2315 3537 
Q 2597 3491 2834 3397 
z
" transform="scale(0.015625)"/>
       <path id="DejaVuSans-2e" d="M 684 794 
L 1344 794 
L 1344 0 
L 684 0 
L 684 794 
z
" transform="scale(0.015625)"/>
       <path id="DejaVuSans-20" transform="scale(0.015625)"/>
       <path id="DejaVuSans-76" d="M 191 3500 
L 800 3500 
L 1894 563 
L 2988 3500 
L 3597 3500 
L 2284 0 
L 1503 0 
L 191 3500 
z
" transform="scale(0.015625)"/>
       <path id="DejaVuSans-65" d="M 3597 1894 
L 3597 1613 
L 953 1613 
Q 991 1019 1311 708 
Q 1631 397 2203 397 
Q 2534 397 2845 478 
Q 3156 559 3463 722 
L 3463 178 
Q 3153 47 2828 -22 
Q 2503 -91 2169 -91 
Q 1331 -91 842 396 
Q 353 884 353 1716 
Q 353 2575 817 3079 
Q 1281 3584 2069 3584 
Q 2775 3584 3186 3129 
Q 3597 2675 3597 1894 
z
M 3022 2063 
Q 3016 2534 2758 2815 
Q 2500 3097 2075 3097 
Q 1594 3097 1305 2825 
Q 1016 2553 972 2059 
L 3022 2063 
z
" transform="scale(0.015625)"/>
       <path id="DejaVuSans-6c" d="M 603 4863 
L 1178 4863 
L 1178 0 
L 603 0 
L 603 4863 
z
" transform="scale(0.015625)"/>
       <path id="DejaVuSans-5b" d="M 550 4863 
L 1875 4863 
L 1875 4416 
L 1125 4416 
L 1125 -397 
L 1875 -397 
L 1875 -844 
L 550 -844 
L 550 4863 
z
" transform="scale(0.015625)"/>
       <path id="DejaVuSans-6d" d="M 3328 2828 
Q 3544 3216 3844 3400 
Q 4144 3584 4550 3584 
Q 5097 3584 5394 3201 
Q 5691 2819 5691 2113 
L 5691 0 
L 5113 0 
L 5113 2094 
Q 5113 2597 4934 2840 
Q 4756 3084 4391 3084 
Q 3944 3084 3684 2787 
Q 3425 2491 3425 1978 
L 3425 0 
L 2847 0 
L 2847 2094 
Q 2847 2600 2669 2842 
Q 2491 3084 2119 3084 
Q 1678 3084 1418 2786 
Q 1159 2488 1159 1978 
L 1159 0 
L 581 0 
L 581 3500 
L 1159 3500 
L 1159 2956 
Q 1356 3278 1631 3431 
Q 1906 3584 2284 3584 
Q 2666 3584 2933 3390 
Q 3200 3197 3328 2828 
z
" transform="scale(0.015625)"/>
       <path id="DejaVuSans-2f" d="M 1625 4666 
L 2156 4666 
L 531 -594 
L 0 -594 
L 1625 4666 
z
" transform="scale(0.015625)"/>
       <path id="DejaVuSans-5d" d="M 1947 4863 
L 1947 -844 
L 622 -844 
L 622 -397 
L 1369 -397 
L 1369 4416 
L 622 4416 
L 622 4863 
L 1947 4863 
z
" transform="scale(0.015625)"/>
      </defs>
      <use xlink:href="#DejaVuSans-74"/>
      <use xlink:href="#DejaVuSans-72" x="39.208984"/>
      <use xlink:href="#DejaVuSans-61" x="80.322266"/>
      <use xlink:href="#DejaVuSans-6e" x="141.601562"/>
      <use xlink:href="#DejaVuSans-73" x="204.980469"/>
      <use xlink:href="#DejaVuSans-2e" x="257.080078"/>
      <use xlink:href="#DejaVuSans-20" x="288.867188"/>
      <use xlink:href="#DejaVuSans-76" x="320.654297"/>
      <use xlink:href="#DejaVuSans-65" x="379.833984"/>
      <use xlink:href="#DejaVuSans-6c" x="441.357422"/>
      <use xlink:href="#DejaVuSans-2e" x="469.140625"/>
      <use xlink:href="#DejaVuSans-20" x="500.927734"/>
      <use xlink:href="#DejaVuSans-5b" x="532.714844"/>
      <use xlink:href="#DejaVuSans-6d" x="571.728516"/>
      <use xlink:href="#DejaVuSans-6d" x="669.140625"/>
      <use xlink:href="#DejaVuSans-2f" x="766.552734"/>
      <use xlink:href="#DejaVuSans-73" x="800.244141"/>
      <use xlink:href="#DejaVuSans-5d" x="852.34375"/>
     </g>
    </g>
   </g>
   <g id="line2d_23">
    <path d="M 73.680895 149.751202 
L 74.252504 149.670961 
L 74.824114 149.430241 
L 75.681528 148.768258 
L 76.538942 147.745195 
L 77.396357 146.36105 
L 78.253771 144.615825 
L 79.39699 141.727175 
L 80.540209 138.196603 
L 81.969232 132.884029 
L 83.398256 126.565108 
L 85.113085 117.788829 
L 94.258836 70.213038 
L 95.68786 64.261885 
L 97.116884 59.313735 
L 98.260103 56.070691 
L 99.403322 53.479599 
L 100.260736 51.958378 
L 101.11815 50.788207 
L 101.975564 49.985804 
L 102.832979 49.55117 
L 103.690393 49.450869 
L 374.347485 49.534453 
L 375.204899 49.952371 
L 376.062313 50.738057 
L 376.919727 51.874794 
L 377.777141 53.379299 
L 378.92036 55.953674 
L 380.063579 59.146568 
L 381.206798 63.008131 
L 382.350017 67.504929 
L 383.779041 74.024451 
L 386.065479 85.926757 
L 394.353817 128.989033 
L 395.78284 134.943529 
L 397.211864 139.891679 
L 398.355083 143.128036 
L 399.498302 145.724143 
L 400.355716 147.248708 
L 401.21313 148.412527 
L 402.070545 149.215264 
L 402.927959 149.656836 
L 403.785373 149.751202 
L 432.080043 149.751202 
L 432.080043 149.751202 
" clip-path="url(#p35466cbc3e)" style="fill: none; stroke: #1f77b4; stroke-width: 1.5; stroke-linecap: square"/>
   </g>
   <g id="line2d_24">
    <path d="M 73.680895 149.751202 
L 74.538309 149.738579 
L 77.110552 149.758891 
L 77.396357 149.334788 
L 77.682161 148.57635 
L 77.967966 148.546929 
L 78.82538 147.211932 
L 79.682794 145.254403 
L 80.540209 142.738537 
L 81.397623 140.180878 
L 81.969232 137.860597 
L 83.112451 130.643988 
L 83.969866 123.18833 
L 84.541475 117.053293 
L 85.113085 109.514052 
L 85.684694 102.877513 
L 86.256304 95.371705 
L 86.542108 94.301835 
L 86.827913 91.125657 
L 87.113718 89.571002 
L 87.399523 88.852183 
L 87.685327 87.531562 
L 87.971132 85.224655 
L 88.256937 83.987617 
L 88.542742 84.656286 
L 88.828546 86.060491 
L 89.114351 86.796026 
L 89.400156 86.712443 
L 89.68596 87.431262 
L 89.971765 87.431262 
L 90.25757 85.592422 
L 90.543375 84.706436 
L 90.829179 85.191221 
L 91.400789 88.233664 
L 91.686594 88.467699 
L 91.972398 88.384115 
L 93.115617 80.510539 
L 93.401422 79.94217 
L 93.687227 80.577406 
L 94.544641 75.595823 
L 94.830446 75.177905 
L 95.116251 78.855583 
L 95.402055 77.434662 
L 95.973665 72.70383 
L 96.25947 70.731256 
L 96.545274 67.85598 
L 96.831079 66.334759 
L 97.116884 66.301325 
L 97.402689 66.752677 
L 97.974298 66.418342 
L 98.260103 65.916841 
L 98.831712 65.71624 
L 99.117517 64.930554 
L 100.260736 57.70893 
L 100.546541 58.528049 
L 100.832345 58.310732 
L 101.403955 56.538759 
L 101.975564 57.508329 
L 102.261369 56.939961 
L 102.832979 59.982404 
L 103.404588 57.123845 
L 103.690393 59.765087 
L 103.976198 60.049271 
L 105.119417 62.65708 
L 105.405221 61.954977 
L 105.691026 60.049271 
L 106.262636 53.312432 
L 106.54844 49.099818 
L 107.12005 45.171388 
L 107.977464 39.053068 
L 108.549074 41.159375 
L 109.406488 48.798917 
L 109.692293 46.709327 
L 109.978097 47.56188 
L 110.263902 47.745764 
L 110.549707 49.166685 
L 110.835511 48.715334 
L 111.407121 50.821641 
L 111.692926 47.327846 
L 111.97873 50.604323 
L 113.407754 46.040658 
L 113.693559 45.990508 
L 113.979364 44.65317 
L 114.265168 42.747464 
L 114.550973 43.148665 
L 114.836778 43.332549 
L 115.122583 41.64416 
L 115.408387 41.560576 
L 115.694192 41.343259 
L 115.979997 41.69431 
L 116.265802 41.69431 
L 116.551606 42.881198 
L 116.837411 43.483 
L 117.123216 43.466283 
L 117.409021 42.597013 
L 117.98063 44.335552 
L 118.55224 40.925341 
L 118.838044 41.209525 
L 119.123849 42.597013 
L 119.409654 43.315832 
L 119.695459 39.069785 
L 119.981263 42.212529 
L 120.267068 41.777894 
L 120.552873 42.680597 
L 121.124482 42.312829 
L 121.410287 43.115232 
L 121.696092 42.897914 
L 121.981896 44.486003 
L 122.267701 45.438856 
L 122.553506 45.589307 
L 122.839311 44.970788 
L 123.125115 45.77319 
L 123.41092 46.090808 
L 123.696725 47.077095 
L 124.268334 43.165382 
L 124.554139 42.981498 
L 124.839944 44.987505 
L 125.125749 45.388706 
L 125.411553 46.508726 
L 125.697358 48.096815 
L 125.983163 47.043661 
L 126.268968 47.127245 
L 126.840577 50.152972 
L 127.126382 48.180398 
L 127.412187 49.016235 
L 127.697991 50.253272 
L 127.983796 49.885504 
L 128.269601 53.212132 
L 128.555406 52.861081 
L 128.84121 52.125545 
L 129.127015 52.025244 
L 129.41282 50.336856 
L 129.698625 50.336856 
L 129.984429 48.481299 
L 130.270234 47.628747 
L 130.556039 48.063381 
L 131.127648 50.219839 
L 131.413453 49.417436 
L 131.699258 49.099818 
L 132.556672 50.169688 
L 132.842477 52.158978 
L 133.128281 53.178698 
L 133.414086 52.777497 
L 133.699891 51.038958 
L 133.985696 51.423443 
L 134.2715 53.061681 
L 134.557305 53.061681 
L 134.84311 51.824644 
L 135.128915 51.958378 
L 135.414719 52.342862 
L 135.700524 52.994814 
L 135.986329 52.041961 
L 136.272134 54.332152 
L 136.557938 52.142262 
L 136.843743 51.858077 
L 137.129548 51.155975 
L 137.415353 51.79121 
L 137.701157 52.81093 
L 137.986962 52.175695 
L 138.272767 51.858077 
L 138.558572 52.041961 
L 138.844376 53.111831 
L 139.130181 53.546466 
L 139.415986 53.6802 
L 139.701791 52.961381 
L 139.987595 51.440159 
L 140.2734 51.105825 
L 140.845009 55.067688 
L 141.130814 55.585906 
L 141.416619 54.532753 
L 141.702424 54.265285 
L 141.988228 53.145265 
L 142.274033 53.061681 
L 142.845643 47.946364 
L 143.131447 47.277695 
L 143.417252 48.314132 
L 143.703057 47.495013 
L 143.988862 46.023941 
L 144.274666 48.498016 
L 144.560471 48.431149 
L 145.132081 50.821641 
L 145.417885 52.61033 
L 145.70369 52.877797 
L 145.989495 51.557176 
L 146.561104 53.429449 
L 146.846909 53.044965 
L 147.132714 54.399019 
L 147.418519 53.914234 
L 147.704323 52.927947 
L 147.990128 51.507026 
L 148.275933 50.804924 
L 148.847542 48.498016 
L 149.133347 45.706324 
L 149.419152 45.489006 
L 149.704957 46.943361 
L 149.990761 47.394712 
L 150.562371 47.461579 
L 151.13398 47.946364 
L 151.419785 49.032951 
L 151.70559 47.61203 
L 151.991394 49.618037 
L 152.277199 48.798917 
L 152.563004 49.467586 
L 152.848809 49.384002 
L 153.134613 49.55117 
L 153.420418 48.615033 
L 153.706223 48.665183 
L 154.849442 45.67289 
L 155.421051 42.964781 
L 155.706856 43.717034 
L 155.992661 44.870487 
L 156.278466 44.803621 
L 156.56427 44.235252 
L 156.850075 44.820337 
L 157.13588 45.990508 
L 157.421685 47.729047 
L 157.993294 47.127245 
L 158.279099 47.71233 
L 158.564904 47.377996 
L 158.850708 47.678897 
L 159.136513 49.032951 
L 159.422318 47.478296 
L 159.708123 49.868787 
L 159.993927 50.203122 
L 160.279732 49.935654 
L 160.565537 49.083101 
L 160.851342 46.876494 
L 161.137146 46.157675 
L 161.422951 47.026945 
L 161.708756 48.53145 
L 161.99456 48.397716 
L 162.280365 47.829347 
L 162.56617 48.464583 
L 162.851975 48.464583 
L 163.137779 47.461579 
L 163.423584 48.598316 
L 163.709389 50.871791 
L 163.995194 51.557176 
L 164.280998 50.754774 
L 164.852608 53.061681 
L 165.138413 53.5799 
L 165.424217 55.151272 
L 165.710022 55.067688 
L 165.995827 54.867087 
L 166.281632 53.228848 
L 166.567436 53.145265 
L 166.853241 50.420439 
L 167.139046 49.818637 
L 167.424851 46.79291 
L 167.710655 47.912931 
L 168.282265 48.431149 
L 168.56807 47.294412 
L 168.853874 47.812631 
L 169.139679 49.083101 
L 169.711289 54.465886 
L 170.282898 53.964384 
L 170.568703 54.081401 
L 170.854508 52.978098 
L 171.140312 53.028248 
L 171.426117 53.345866 
L 171.711922 52.058678 
L 172.283531 50.821641 
L 172.569336 50.320139 
L 173.99836 45.67289 
L 174.284164 45.004221 
L 174.569969 47.093811 
L 174.855774 47.394712 
L 175.141579 47.060378 
L 175.427383 48.514733 
L 175.713188 51.239559 
L 176.284798 49.70162 
L 176.570602 49.985804 
L 176.856407 49.768487 
L 177.142212 48.765484 
L 177.428017 48.397716 
L 177.713821 48.949368 
L 177.999626 49.250269 
L 178.285431 48.380999 
L 178.85704 50.203122 
L 179.142845 49.80192 
L 179.42865 47.093811 
L 179.714455 46.274692 
L 180.286064 48.514733 
L 180.571869 49.066385 
L 180.857674 48.314132 
L 181.143478 48.364282 
L 181.429283 48.564883 
L 182.000892 51.958378 
L 182.286697 51.406726 
L 182.572502 49.367286 
L 183.144111 50.470589 
L 183.429916 51.122542 
L 184.001526 50.587606 
L 184.28733 50.955374 
L 184.573135 51.64076 
L 184.85894 50.453873 
L 185.144745 50.387006 
L 185.430549 49.70162 
L 186.002159 46.558876 
L 186.287964 47.61203 
L 186.573768 49.099818 
L 186.859573 48.63175 
L 187.145378 49.116535 
L 187.431183 49.133252 
L 187.716987 49.969088 
L 188.002792 49.65147 
L 188.288597 50.186405 
L 188.574402 49.75177 
L 188.860206 51.055675 
L 189.146011 50.136255 
L 189.431816 51.038958 
L 190.003425 51.79121 
L 190.28923 50.855074 
L 190.575035 50.52074 
L 191.146644 49.149968 
L 191.718254 47.093811 
L 192.004058 46.876494 
L 192.575668 46.074091 
L 192.861473 46.140958 
L 193.147277 46.324842 
L 193.433082 45.054371 
L 193.718887 46.274692 
L 194.004692 48.414433 
L 194.290496 49.534453 
L 194.576301 48.046665 
L 194.862106 48.815634 
L 195.147911 48.899217 
L 195.71952 47.795914 
L 196.005325 52.259279 
L 196.29113 49.75177 
L 196.576934 49.768487 
L 196.862739 49.350569 
L 197.148544 50.102821 
L 197.434349 50.219839 
L 197.720153 47.628747 
L 198.005958 46.826344 
L 198.577568 48.113532 
L 198.863372 48.230549 
L 199.149177 48.197115 
L 199.434982 49.166685 
L 199.720787 49.149968 
L 200.006591 49.785204 
L 200.292396 50.821641 
L 200.578201 51.122542 
L 200.864006 50.353572 
L 201.14981 50.537456 
L 201.435615 50.554173 
L 201.72142 50.821641 
L 202.007224 50.888507 
L 202.293029 51.59061 
L 202.578834 51.490309 
L 202.864639 53.345866 
L 203.150443 52.259279 
L 203.436248 52.576896 
L 203.722053 51.507026 
L 204.293662 47.979798 
L 205.151077 50.387006 
L 205.436881 50.336856 
L 205.722686 50.504023 
L 206.294296 51.507026 
L 206.865905 49.567886 
L 207.15171 49.969088 
L 207.437515 49.902221 
L 207.723319 49.350569 
L 208.009124 50.403722 
L 208.294929 52.61033 
L 208.580734 51.757777 
L 208.866538 51.323142 
L 209.152343 51.674193 
L 209.438148 49.183402 
L 209.723953 52.376296 
L 210.009757 49.032951 
L 210.295562 47.495013 
L 210.581367 47.829347 
L 210.867172 47.361279 
L 211.152976 47.76248 
L 211.438781 47.879497 
L 212.010391 46.69261 
L 212.296195 47.729047 
L 212.582 48.080098 
L 212.867805 48.73205 
L 213.153609 47.71233 
L 213.439414 48.414433 
L 213.725219 48.63175 
L 214.011024 48.63175 
L 214.582633 49.918938 
L 215.154243 48.197115 
L 215.440047 48.949368 
L 215.725852 49.016235 
L 216.011657 48.53145 
L 216.297462 46.358276 
L 216.583266 48.615033 
L 216.869071 47.595313 
L 217.154876 48.7822 
L 217.440681 47.745764 
L 217.726485 48.414433 
L 218.01229 48.146965 
L 218.5839 51.139258 
L 218.869704 50.972091 
L 219.155509 50.152972 
L 219.441314 50.186405 
L 219.727119 49.785204 
L 220.298728 50.905224 
L 220.584533 49.885504 
L 220.870338 50.069388 
L 221.156142 50.102821 
L 221.441947 50.67119 
L 221.727752 50.587606 
L 222.013557 50.704623 
L 222.299361 49.467586 
L 222.585166 48.865784 
L 222.870971 47.578596 
L 223.156775 51.64076 
L 223.44258 50.537456 
L 223.728385 50.437156 
L 224.299994 49.885504 
L 224.585799 50.152972 
L 224.871604 49.634753 
L 225.443213 47.846064 
L 225.729018 47.729047 
L 226.014823 47.377996 
L 226.300628 48.999518 
L 226.586432 49.718337 
L 227.158042 52.459879 
L 227.443847 52.627046 
L 228.015456 52.510029 
L 228.301261 50.453873 
L 228.587066 49.434153 
L 228.87287 49.250269 
L 229.158675 49.350569 
L 229.44448 47.294412 
L 229.730285 50.77149 
L 230.301894 46.609027 
L 230.587699 46.59231 
L 230.873504 46.74276 
L 231.159308 46.157675 
L 231.445113 45.254972 
L 231.730918 47.177395 
L 232.302527 49.049668 
L 232.588332 49.099818 
L 232.874137 49.317136 
L 233.445746 48.748767 
L 233.731551 49.066385 
L 234.017356 49.868787 
L 234.30316 48.966084 
L 234.87477 48.080098 
L 235.160575 48.380999 
L 235.446379 49.55117 
L 235.732184 47.996514 
L 236.017989 50.169688 
L 236.303794 49.049668 
L 236.589598 49.80192 
L 236.875403 49.902221 
L 237.161208 51.022241 
L 237.447013 50.62104 
L 237.732817 50.537456 
L 238.018622 49.618037 
L 238.590232 51.64076 
L 238.876036 51.272992 
L 239.161841 49.952371 
L 239.447646 49.902221 
L 239.733451 50.102821 
L 240.019255 50.654473 
L 240.30506 49.835354 
L 240.590865 49.684903 
L 241.162474 48.113532 
L 241.448279 49.785204 
L 241.734084 49.066385 
L 242.019889 52.225845 
L 242.305693 50.537456 
L 242.591498 50.487306 
L 242.877303 51.055675 
L 243.163107 51.272992 
L 243.448912 50.069388 
L 243.734717 49.467586 
L 244.306326 49.735054 
L 244.592131 50.387006 
L 244.877936 52.025244 
L 245.163741 53.011531 
L 245.449545 52.894514 
L 245.73535 51.139258 
L 246.021155 51.155975 
L 246.30696 51.373292 
L 246.592764 49.885504 
L 246.878569 47.695613 
L 247.164374 46.74276 
L 247.450179 47.595313 
L 247.735983 45.789907 
L 248.021788 50.336856 
L 248.307593 47.879497 
L 248.593398 46.926644 
L 248.879202 46.726044 
L 249.165007 48.5816 
L 249.450812 48.815634 
L 249.736617 48.163682 
L 250.022421 48.380999 
L 250.308226 48.414433 
L 250.594031 48.915934 
L 250.879836 50.604323 
L 251.16564 49.584603 
L 251.451445 49.166685 
L 252.023055 47.377996 
L 252.308859 48.280699 
L 252.594664 48.514733 
L 253.166273 45.137955 
L 253.452078 46.191109 
L 253.737883 47.779197 
L 254.023688 48.213832 
L 254.309492 48.029948 
L 254.595297 48.180398 
L 254.881102 48.197115 
L 255.452711 51.941661 
L 255.738516 51.323142 
L 256.310126 50.988808 
L 256.59593 50.019238 
L 257.16754 51.858077 
L 257.453345 50.654473 
L 257.739149 50.253272 
L 258.024954 50.487306 
L 258.310759 50.905224 
L 258.596564 49.852071 
L 258.882368 48.197115 
L 259.168173 45.288406 
L 259.453978 48.247265 
L 259.739783 48.715334 
L 260.025587 50.086105 
L 260.311392 50.821641 
L 260.597197 51.139258 
L 260.883002 49.333852 
L 261.168806 50.219839 
L 261.454611 52.81093 
L 261.740416 53.763784 
L 262.026221 52.209128 
L 262.312025 52.158978 
L 262.883635 48.63175 
L 263.741049 51.941661 
L 264.026854 50.738057 
L 264.312658 50.804924 
L 264.598463 50.604323 
L 264.884268 51.356576 
L 265.170073 47.495013 
L 265.455877 46.709327 
L 265.741682 47.729047 
L 266.027487 49.183402 
L 266.313292 49.367286 
L 266.599096 49.852071 
L 266.884901 49.049668 
L 267.170706 48.849067 
L 267.456511 49.317136 
L 267.742315 52.292712 
L 268.313925 50.336856 
L 268.59973 49.250269 
L 268.885534 48.899217 
L 269.171339 49.350569 
L 269.457144 48.063381 
L 269.742949 47.946364 
L 270.028753 45.957074 
L 270.314558 47.896214 
L 270.600363 46.107525 
L 270.886168 46.391709 
L 271.457777 44.75347 
L 271.743582 44.569586 
L 272.029387 44.887204 
L 272.315191 45.890208 
L 272.600996 46.341559 
L 272.886801 46.107525 
L 273.172606 46.809627 
L 274.03002 50.938658 
L 274.315824 50.453873 
L 274.601629 50.704623 
L 274.887434 50.303422 
L 275.459043 52.041961 
L 275.744848 52.56018 
L 276.030653 51.272992 
L 276.316458 51.557176 
L 276.888067 52.393012 
L 277.173872 50.871791 
L 277.459677 50.320139 
L 277.745481 48.564883 
L 278.317091 50.587606 
L 278.602896 52.058678 
L 278.8887 52.209128 
L 279.174505 49.350569 
L 279.46031 48.213832 
L 279.746115 48.548166 
L 280.317724 52.677197 
L 280.603529 52.56018 
L 280.889334 52.108828 
L 281.175138 52.158978 
L 281.460943 52.359579 
L 281.746748 53.496316 
L 282.318357 52.326145 
L 282.604162 51.122542 
L 282.889967 51.089108 
L 283.175772 49.969088 
L 283.747381 45.539156 
L 284.31899 48.765484 
L 284.8906 49.835354 
L 285.462209 47.76248 
L 285.748014 48.280699 
L 286.033819 50.988808 
L 286.319624 52.209128 
L 286.605428 51.222842 
L 286.891233 49.183402 
L 287.177038 48.615033 
L 287.462843 48.73205 
L 287.748647 48.665183 
L 288.320257 48.029948 
L 288.606062 47.344562 
L 288.891866 47.495013 
L 289.177671 46.558876 
L 289.463476 46.508726 
L 289.749281 43.600017 
L 290.035085 46.341559 
L 290.32089 46.64246 
L 290.606695 48.163682 
L 290.8925 48.213832 
L 291.178304 47.394712 
L 291.464109 47.160678 
L 291.749914 48.280699 
L 292.321523 52.075395 
L 292.607328 51.390009 
L 293.178938 49.016235 
L 293.464742 49.450869 
L 294.036352 50.988808 
L 294.322156 47.912931 
L 294.607961 52.041961 
L 294.893766 49.517736 
L 295.179571 49.65147 
L 295.465375 46.993511 
L 295.75118 45.388706 
L 296.036985 45.121238 
L 296.32279 46.659177 
L 296.608594 46.79291 
L 297.180204 49.317136 
L 297.466009 49.300419 
L 297.751813 49.066385 
L 298.037618 51.139258 
L 298.323423 54.282002 
L 298.609228 54.867087 
L 298.895032 50.203122 
L 299.180837 53.128548 
L 299.466642 52.677197 
L 299.752447 53.496316 
L 300.038251 53.747067 
L 300.324056 53.111831 
L 300.609861 51.089108 
L 300.895666 50.470589 
L 301.18147 51.055675 
L 301.467275 50.754774 
L 301.75308 48.715334 
L 302.038885 45.789907 
L 302.324689 46.291409 
L 302.610494 47.260979 
L 302.896299 49.099818 
L 303.182104 49.166685 
L 303.467908 52.008528 
L 303.753713 49.534453 
L 304.611127 52.326145 
L 304.896932 51.289709 
L 305.182737 49.70162 
L 305.468541 49.099818 
L 305.754346 49.70162 
L 306.325956 48.414433 
L 306.897565 47.795914 
L 307.18337 48.63175 
L 307.469175 46.943361 
L 307.754979 47.61203 
L 308.040784 45.388706 
L 308.326589 45.756474 
L 308.612394 45.706324 
L 308.898198 46.625743 
L 309.184003 46.675893 
L 309.469808 47.912931 
L 309.755613 47.143962 
L 310.041417 48.180398 
L 310.613027 52.643763 
L 310.898832 49.935654 
L 311.184636 50.554173 
L 311.470441 50.838357 
L 311.756246 49.266985 
L 312.042051 49.902221 
L 312.327855 51.306425 
L 312.61366 51.038958 
L 312.899465 50.035955 
L 313.756879 48.230549 
L 314.042684 46.090808 
L 314.328488 46.074091 
L 314.614293 47.695613 
L 314.900098 48.213832 
L 315.185903 47.545163 
L 315.471707 46.174392 
L 315.757512 49.133252 
L 316.329122 51.222842 
L 316.614926 53.747067 
L 316.900731 53.095115 
L 317.186536 50.838357 
L 317.472341 50.905224 
L 317.758145 50.754774 
L 318.04395 50.988808 
L 318.329755 50.838357 
L 318.901364 52.092111 
L 319.187169 51.423443 
L 319.472974 49.116535 
L 319.758779 49.434153 
L 320.044583 50.069388 
L 320.330388 49.634753 
L 320.901998 47.695613 
L 321.473607 49.935654 
L 321.759412 50.253272 
L 322.045217 50.370289 
L 322.331021 51.172692 
L 322.616826 52.409729 
L 322.902631 52.326145 
L 323.188436 51.523743 
L 323.47424 51.089108 
L 323.760045 48.832351 
L 324.04585 48.665183 
L 324.617459 50.186405 
L 324.903264 49.032951 
L 325.474873 48.481299 
L 325.760678 48.5816 
L 326.332288 44.636453 
L 326.618092 44.536153 
L 326.903897 45.940358 
L 327.189702 46.007225 
L 327.761311 47.444863 
L 328.047116 46.993511 
L 328.332921 47.628747 
L 328.618726 49.450869 
L 328.90453 52.744064 
L 329.190335 51.490309 
L 329.47614 50.77149 
L 329.761945 50.62104 
L 330.047749 51.022241 
L 330.333554 50.788207 
L 330.619359 51.707627 
L 330.905164 51.490309 
L 331.190968 48.63175 
L 331.476773 50.57089 
L 331.762578 49.333852 
L 332.048383 48.615033 
L 332.619992 46.040658 
L 332.905797 45.823341 
L 333.477406 47.210829 
L 334.049016 49.985804 
L 334.334821 50.336856 
L 334.620625 48.615033 
L 334.90643 54.532753 
L 335.192235 53.513033 
L 335.478039 53.295715 
L 336.335454 51.055675 
L 336.621258 51.055675 
L 336.907063 50.269989 
L 337.478673 52.292712 
L 337.764477 51.757777 
L 338.050282 49.584603 
L 338.336087 49.149968 
L 338.621892 46.441859 
L 338.907696 46.341559 
L 339.479306 49.985804 
L 339.765111 50.453873 
L 340.050915 49.735054 
L 340.33672 49.768487 
L 340.622525 49.634753 
L 340.90833 51.390009 
L 341.194134 52.041961 
L 341.479939 49.735054 
L 341.765744 52.142262 
L 342.051549 49.868787 
L 342.337353 49.049668 
L 343.194768 50.236555 
L 343.480572 48.982801 
L 344.052182 49.032951 
L 344.337987 46.492009 
L 344.623791 45.505723 
L 344.909596 43.215532 
L 345.195401 45.72304 
L 345.481205 45.355272 
L 345.76701 46.324842 
L 346.052815 48.096815 
L 346.33862 48.815634 
L 346.624424 48.397716 
L 346.910229 50.152972 
L 347.196034 50.002521 
L 347.481839 50.554173 
L 347.767643 49.952371 
L 348.053448 50.002521 
L 348.339253 48.447866 
L 348.625058 51.874794 
L 348.910862 50.320139 
L 349.196667 51.089108 
L 349.482472 50.303422 
L 349.768277 48.815634 
L 350.054081 49.367286 
L 350.339886 49.266985 
L 350.625691 48.414433 
L 350.911496 47.093811 
L 351.76891 48.163682 
L 352.054715 48.113532 
L 352.340519 49.969088 
L 352.626324 49.952371 
L 352.912129 50.738057 
L 353.197934 52.192412 
L 353.483738 52.326145 
L 353.769543 52.041961 
L 354.055348 52.309429 
L 354.626957 49.066385 
L 354.912762 52.025244 
L 355.198567 52.275995 
L 355.484371 53.396016 
L 355.770176 52.209128 
L 356.341786 48.982801 
L 356.62759 48.765484 
L 356.913395 48.882501 
L 357.1992 48.698617 
L 357.485005 47.929648 
L 358.342419 50.57089 
L 358.628224 49.902221 
L 359.199833 51.858077 
L 359.485638 50.687907 
L 359.771443 48.882501 
L 360.057247 49.484303 
L 360.343052 49.250269 
L 360.628857 47.66218 
L 361.200466 49.985804 
L 361.486271 50.487306 
L 361.772076 48.715334 
L 362.057881 48.53145 
L 362.343685 48.514733 
L 362.62949 48.163682 
L 362.915295 46.575593 
L 363.2011 46.074091 
L 363.486904 46.64246 
L 364.058514 46.007225 
L 364.344319 46.508726 
L 364.630123 47.578596 
L 365.201733 48.397716 
L 365.487537 49.868787 
L 365.773342 49.55117 
L 366.059147 48.999518 
L 366.344952 49.266985 
L 366.630756 48.6819 
L 367.202366 49.684903 
L 367.488171 50.537456 
L 367.773975 50.253272 
L 368.05978 50.320139 
L 368.345585 49.902221 
L 368.917194 49.684903 
L 369.488804 47.76248 
L 369.774609 48.514733 
L 370.060413 49.684903 
L 370.346218 48.615033 
L 370.632023 48.966084 
L 371.489437 50.754774 
L 372.061047 51.390009 
L 372.346851 52.125545 
L 372.632656 50.052671 
L 372.918461 50.286705 
L 373.204266 50.738057 
L 373.49007 51.54046 
L 373.775875 51.038958 
L 374.06168 51.774494 
L 374.347485 53.011531 
L 374.633289 53.061681 
L 375.490703 49.75177 
L 375.776508 49.902221 
L 376.062313 49.668187 
L 376.348118 49.985804 
L 376.919727 52.309429 
L 377.205532 52.376296 
L 377.777141 53.797217 
L 378.062946 53.847367 
L 378.634556 53.228848 
L 378.92036 53.897517 
L 379.206165 53.813934 
L 380.063579 56.889811 
L 380.349384 57.123845 
L 380.635189 58.528049 
L 380.920994 60.734657 
L 381.778408 64.128151 
L 382.064213 63.910834 
L 382.350017 63.392615 
L 382.635822 64.863687 
L 382.921627 66.919844 
L 383.779041 76.799427 
L 384.350651 82.884313 
L 384.636455 84.973904 
L 385.49387 95.288121 
L 385.779674 96.441575 
L 387.780307 108.995833 
L 388.351917 108.995833 
L 388.637722 108.427465 
L 389.209331 105.217854 
L 389.495136 104.733069 
L 389.780941 104.850086 
L 390.066745 105.201137 
L 390.92416 106.889526 
L 391.495769 106.070407 
L 392.067379 107.691929 
L 392.638988 110.985123 
L 394.068012 124.759702 
L 394.925426 129.640985 
L 395.78284 134.630927 
L 396.35445 137.310617 
L 396.640254 137.449366 
L 396.926059 137.116703 
L 397.211864 136.197283 
L 397.783473 133.51425 
L 398.355083 131.747292 
L 398.640888 130.928173 
L 398.926692 130.643988 
L 399.784107 128.604548 
L 400.069911 128.470814 
L 400.355716 128.621265 
L 400.641521 129.473818 
L 400.927326 130.727572 
L 402.356349 141.334332 
L 402.642154 142.327305 
L 402.927959 142.516204 
L 403.213764 142.57137 
L 403.499568 142.877286 
L 405.214397 145.672321 
L 405.500202 146.001641 
L 407.500835 149.772549 
L 408.358249 150.512816 
L 409.501468 152.136678 
L 410.073077 152.589701 
L 411.502101 154.164416 
L 411.787906 154.545558 
L 412.931125 155.252675 
L 413.21693 155.346289 
L 413.502734 155.316198 
L 413.788539 155.434887 
L 414.360149 155.446589 
L 414.931758 155.613756 
L 415.503368 155.581994 
L 416.646586 155.839432 
L 416.932391 155.692325 
L 417.504001 155.702355 
L 418.07561 155.451604 
L 419.218829 155.058761 
L 419.504634 154.926699 
L 420.076243 154.552244 
L 420.362048 154.500422 
L 421.219462 154.059101 
L 421.791072 153.935397 
L 422.076877 153.84847 
L 423.791705 152.173455 
L 425.792338 150.755877 
L 426.078143 150.636018 
L 426.649752 150.148725 
L 428.078776 149.395804 
L 432.080043 148.983403 
L 432.080043 148.983403 
" clip-path="url(#p35466cbc3e)" style="fill: none; stroke: #ff7f0e; stroke-width: 1.5; stroke-linecap: square"/>
   </g>
   <g id="patch_3">
    <path d="M 55.760938 161.67875 
L 55.760938 33.21375 
" style="fill: none; stroke: #000000; stroke-width: 0.8; stroke-linejoin: miter; stroke-linecap: square"/>
   </g>
   <g id="patch_4">
    <path d="M 450 161.67875 
L 450 33.21375 
" style="fill: none; stroke: #000000; stroke-width: 0.8; stroke-linejoin: miter; stroke-linecap: square"/>
   </g>
   <g id="patch_5">
    <path d="M 55.760938 161.67875 
L 450 161.67875 
" style="fill: none; stroke: #000000; stroke-width: 0.8; stroke-linejoin: miter; stroke-linecap: square"/>
   </g>
   <g id="patch_6">
    <path d="M 55.760938 33.21375 
L 450 33.21375 
" style="fill: none; stroke: #000000; stroke-width: 0.8; stroke-linejoin: miter; stroke-linecap: square"/>
   </g>
   <g id="legend_1">
    <g id="patch_7">
     <path d="M 211.621875 156.67875 
L 294.139063 156.67875 
Q 296.139063 156.67875 296.139063 154.67875 
L 296.139063 126.3225 
Q 296.139063 124.3225 294.139063 124.3225 
L 211.621875 124.3225 
Q 209.621875 124.3225 209.621875 126.3225 
L 209.621875 154.67875 
Q 209.621875 156.67875 211.621875 156.67875 
z
" style="fill: #ffffff; opacity: 0.8; stroke: #cccccc; stroke-linejoin: miter"/>
    </g>
    <g id="line2d_25">
     <path d="M 213.621875 132.420937 
L 223.621875 132.420937 
L 233.621875 132.420937 
" style="fill: none; stroke: #1f77b4; stroke-width: 1.5; stroke-linecap: square"/>
    </g>
    <g id="text_6">
     <!-- Reference -->
     <g transform="translate(241.621875 135.920937)scale(0.1 -0.1)">
      <defs>
       <path id="DejaVuSans-52" d="M 2841 2188 
Q 3044 2119 3236 1894 
Q 3428 1669 3622 1275 
L 4263 0 
L 3584 0 
L 2988 1197 
Q 2756 1666 2539 1819 
Q 2322 1972 1947 1972 
L 1259 1972 
L 1259 0 
L 628 0 
L 628 4666 
L 2053 4666 
Q 2853 4666 3247 4331 
Q 3641 3997 3641 3322 
Q 3641 2881 3436 2590 
Q 3231 2300 2841 2188 
z
M 1259 4147 
L 1259 2491 
L 2053 2491 
Q 2509 2491 2742 2702 
Q 2975 2913 2975 3322 
Q 2975 3731 2742 3939 
Q 2509 4147 2053 4147 
L 1259 4147 
z
" transform="scale(0.015625)"/>
       <path id="DejaVuSans-66" d="M 2375 4863 
L 2375 4384 
L 1825 4384 
Q 1516 4384 1395 4259 
Q 1275 4134 1275 3809 
L 1275 3500 
L 2222 3500 
L 2222 3053 
L 1275 3053 
L 1275 0 
L 697 0 
L 697 3053 
L 147 3053 
L 147 3500 
L 697 3500 
L 697 3744 
Q 697 4328 969 4595 
Q 1241 4863 1831 4863 
L 2375 4863 
z
" transform="scale(0.015625)"/>
       <path id="DejaVuSans-63" d="M 3122 3366 
L 3122 2828 
Q 2878 2963 2633 3030 
Q 2388 3097 2138 3097 
Q 1578 3097 1268 2742 
Q 959 2388 959 1747 
Q 959 1106 1268 751 
Q 1578 397 2138 397 
Q 2388 397 2633 464 
Q 2878 531 3122 666 
L 3122 134 
Q 2881 22 2623 -34 
Q 2366 -91 2075 -91 
Q 1284 -91 818 406 
Q 353 903 353 1747 
Q 353 2603 823 3093 
Q 1294 3584 2113 3584 
Q 2378 3584 2631 3529 
Q 2884 3475 3122 3366 
z
" transform="scale(0.015625)"/>
      </defs>
      <use xlink:href="#DejaVuSans-52"/>
      <use xlink:href="#DejaVuSans-65" x="64.982422"/>
      <use xlink:href="#DejaVuSans-66" x="126.505859"/>
      <use xlink:href="#DejaVuSans-65" x="161.710938"/>
      <use xlink:href="#DejaVuSans-72" x="223.234375"/>
      <use xlink:href="#DejaVuSans-65" x="262.097656"/>
      <use xlink:href="#DejaVuSans-6e" x="323.621094"/>
      <use xlink:href="#DejaVuSans-63" x="387"/>
      <use xlink:href="#DejaVuSans-65" x="441.980469"/>
     </g>
    </g>
    <g id="line2d_26">
     <path d="M 213.621875 147.099062 
L 223.621875 147.099062 
L 233.621875 147.099062 
" style="fill: none; stroke: #ff7f0e; stroke-width: 1.5; stroke-linecap: square"/>
    </g>
    <g id="text_7">
     <!-- Estimated -->
     <g transform="translate(241.621875 150.599062)scale(0.1 -0.1)">
      <defs>
       <path id="DejaVuSans-45" d="M 628 4666 
L 3578 4666 
L 3578 4134 
L 1259 4134 
L 1259 2753 
L 3481 2753 
L 3481 2222 
L 1259 2222 
L 1259 531 
L 3634 531 
L 3634 0 
L 628 0 
L 628 4666 
z
" transform="scale(0.015625)"/>
       <path id="DejaVuSans-69" d="M 603 3500 
L 1178 3500 
L 1178 0 
L 603 0 
L 603 3500 
z
M 603 4863 
L 1178 4863 
L 1178 4134 
L 603 4134 
L 603 4863 
z
" transform="scale(0.015625)"/>
       <path id="DejaVuSans-64" d="M 2906 2969 
L 2906 4863 
L 3481 4863 
L 3481 0 
L 2906 0 
L 2906 525 
Q 2725 213 2448 61 
Q 2172 -91 1784 -91 
Q 1150 -91 751 415 
Q 353 922 353 1747 
Q 353 2572 751 3078 
Q 1150 3584 1784 3584 
Q 2172 3584 2448 3432 
Q 2725 3281 2906 2969 
z
M 947 1747 
Q 947 1113 1208 752 
Q 1469 391 1925 391 
Q 2381 391 2643 752 
Q 2906 1113 2906 1747 
Q 2906 2381 2643 2742 
Q 2381 3103 1925 3103 
Q 1469 3103 1208 2742 
Q 947 2381 947 1747 
z
" transform="scale(0.015625)"/>
      </defs>
      <use xlink:href="#DejaVuSans-45"/>
      <use xlink:href="#DejaVuSans-73" x="63.183594"/>
      <use xlink:href="#DejaVuSans-74" x="115.283203"/>
      <use xlink:href="#DejaVuSans-69" x="154.492188"/>
      <use xlink:href="#DejaVuSans-6d" x="182.275391"/>
      <use xlink:href="#DejaVuSans-61" x="279.6875"/>
      <use xlink:href="#DejaVuSans-74" x="340.966797"/>
      <use xlink:href="#DejaVuSans-65" x="380.175781"/>
      <use xlink:href="#DejaVuSans-64" x="441.699219"/>
     </g>
    </g>
   </g>
  </g>
  <g id="axes_2">
   <g id="patch_8">
    <path d="M 55.760938 304.44375 
L 450 304.44375 
L 450 175.97875 
L 55.760938 175.97875 
z
" style="fill: #ffffff"/>
   </g>
   <g id="matplotlib.axis_3">
    <g id="xtick_8">
     <g id="line2d_27">
      <path d="M 73.680895 304.44375 
L 73.680895 175.97875 
" clip-path="url(#pf1f87736ce)" style="fill: none; stroke: #b0b0b0; stroke-width: 0.8; stroke-linecap: square"/>
     </g>
     <g id="line2d_28">
      <g>
       <use xlink:href="#ma891c4c60d" x="73.680895" y="304.44375" style="stroke: #000000; stroke-width: 0.8"/>
      </g>
     </g>
     <g id="text_8">
      <!-- 0.0 -->
      <g transform="translate(65.729332 319.042187)scale(0.1 -0.1)">
       <use xlink:href="#DejaVuSans-30"/>
       <use xlink:href="#DejaVuSans-2e" x="63.623047"/>
       <use xlink:href="#DejaVuSans-30" x="95.410156"/>
      </g>
     </g>
    </g>
    <g id="xtick_9">
     <g id="line2d_29">
      <path d="M 130.841843 304.44375 
L 130.841843 175.97875 
" clip-path="url(#pf1f87736ce)" style="fill: none; stroke: #b0b0b0; stroke-width: 0.8; stroke-linecap: square"/>
     </g>
     <g id="line2d_30">
      <g>
       <use xlink:href="#ma891c4c60d" x="130.841843" y="304.44375" style="stroke: #000000; stroke-width: 0.8"/>
      </g>
     </g>
     <g id="text_9">
      <!-- 0.2 -->
      <g transform="translate(122.890281 319.042187)scale(0.1 -0.1)">
       <use xlink:href="#DejaVuSans-30"/>
       <use xlink:href="#DejaVuSans-2e" x="63.623047"/>
       <use xlink:href="#DejaVuSans-32" x="95.410156"/>
      </g>
     </g>
    </g>
    <g id="xtick_10">
     <g id="line2d_31">
      <path d="M 188.002792 304.44375 
L 188.002792 175.97875 
" clip-path="url(#pf1f87736ce)" style="fill: none; stroke: #b0b0b0; stroke-width: 0.8; stroke-linecap: square"/>
     </g>
     <g id="line2d_32">
      <g>
       <use xlink:href="#ma891c4c60d" x="188.002792" y="304.44375" style="stroke: #000000; stroke-width: 0.8"/>
      </g>
     </g>
     <g id="text_10">
      <!-- 0.4 -->
      <g transform="translate(180.05123 319.042187)scale(0.1 -0.1)">
       <use xlink:href="#DejaVuSans-30"/>
       <use xlink:href="#DejaVuSans-2e" x="63.623047"/>
       <use xlink:href="#DejaVuSans-34" x="95.410156"/>
      </g>
     </g>
    </g>
    <g id="xtick_11">
     <g id="line2d_33">
      <path d="M 245.163741 304.44375 
L 245.163741 175.97875 
" clip-path="url(#pf1f87736ce)" style="fill: none; stroke: #b0b0b0; stroke-width: 0.8; stroke-linecap: square"/>
     </g>
     <g id="line2d_34">
      <g>
       <use xlink:href="#ma891c4c60d" x="245.163741" y="304.44375" style="stroke: #000000; stroke-width: 0.8"/>
      </g>
     </g>
     <g id="text_11">
      <!-- 0.6 -->
      <g transform="translate(237.212178 319.042187)scale(0.1 -0.1)">
       <use xlink:href="#DejaVuSans-30"/>
       <use xlink:href="#DejaVuSans-2e" x="63.623047"/>
       <use xlink:href="#DejaVuSans-36" x="95.410156"/>
      </g>
     </g>
    </g>
    <g id="xtick_12">
     <g id="line2d_35">
      <path d="M 302.324689 304.44375 
L 302.324689 175.97875 
" clip-path="url(#pf1f87736ce)" style="fill: none; stroke: #b0b0b0; stroke-width: 0.8; stroke-linecap: square"/>
     </g>
     <g id="line2d_36">
      <g>
       <use xlink:href="#ma891c4c60d" x="302.324689" y="304.44375" style="stroke: #000000; stroke-width: 0.8"/>
      </g>
     </g>
     <g id="text_12">
      <!-- 0.8 -->
      <g transform="translate(294.373127 319.042187)scale(0.1 -0.1)">
       <defs>
        <path id="DejaVuSans-38" d="M 2034 2216 
Q 1584 2216 1326 1975 
Q 1069 1734 1069 1313 
Q 1069 891 1326 650 
Q 1584 409 2034 409 
Q 2484 409 2743 651 
Q 3003 894 3003 1313 
Q 3003 1734 2745 1975 
Q 2488 2216 2034 2216 
z
M 1403 2484 
Q 997 2584 770 2862 
Q 544 3141 544 3541 
Q 544 4100 942 4425 
Q 1341 4750 2034 4750 
Q 2731 4750 3128 4425 
Q 3525 4100 3525 3541 
Q 3525 3141 3298 2862 
Q 3072 2584 2669 2484 
Q 3125 2378 3379 2068 
Q 3634 1759 3634 1313 
Q 3634 634 3220 271 
Q 2806 -91 2034 -91 
Q 1263 -91 848 271 
Q 434 634 434 1313 
Q 434 1759 690 2068 
Q 947 2378 1403 2484 
z
M 1172 3481 
Q 1172 3119 1398 2916 
Q 1625 2713 2034 2713 
Q 2441 2713 2670 2916 
Q 2900 3119 2900 3481 
Q 2900 3844 2670 4047 
Q 2441 4250 2034 4250 
Q 1625 4250 1398 4047 
Q 1172 3844 1172 3481 
z
" transform="scale(0.015625)"/>
       </defs>
       <use xlink:href="#DejaVuSans-30"/>
       <use xlink:href="#DejaVuSans-2e" x="63.623047"/>
       <use xlink:href="#DejaVuSans-38" x="95.410156"/>
      </g>
     </g>
    </g>
    <g id="xtick_13">
     <g id="line2d_37">
      <path d="M 359.485638 304.44375 
L 359.485638 175.97875 
" clip-path="url(#pf1f87736ce)" style="fill: none; stroke: #b0b0b0; stroke-width: 0.8; stroke-linecap: square"/>
     </g>
     <g id="line2d_38">
      <g>
       <use xlink:href="#ma891c4c60d" x="359.485638" y="304.44375" style="stroke: #000000; stroke-width: 0.8"/>
      </g>
     </g>
     <g id="text_13">
      <!-- 1.0 -->
      <g transform="translate(351.534075 319.042187)scale(0.1 -0.1)">
       <defs>
        <path id="DejaVuSans-31" d="M 794 531 
L 1825 531 
L 1825 4091 
L 703 3866 
L 703 4441 
L 1819 4666 
L 2450 4666 
L 2450 531 
L 3481 531 
L 3481 0 
L 794 0 
L 794 531 
z
" transform="scale(0.015625)"/>
       </defs>
       <use xlink:href="#DejaVuSans-31"/>
       <use xlink:href="#DejaVuSans-2e" x="63.623047"/>
       <use xlink:href="#DejaVuSans-30" x="95.410156"/>
      </g>
     </g>
    </g>
    <g id="xtick_14">
     <g id="line2d_39">
      <path d="M 416.646586 304.44375 
L 416.646586 175.97875 
" clip-path="url(#pf1f87736ce)" style="fill: none; stroke: #b0b0b0; stroke-width: 0.8; stroke-linecap: square"/>
     </g>
     <g id="line2d_40">
      <g>
       <use xlink:href="#ma891c4c60d" x="416.646586" y="304.44375" style="stroke: #000000; stroke-width: 0.8"/>
      </g>
     </g>
     <g id="text_14">
      <!-- 1.2 -->
      <g transform="translate(408.695024 319.042187)scale(0.1 -0.1)">
       <use xlink:href="#DejaVuSans-31"/>
       <use xlink:href="#DejaVuSans-2e" x="63.623047"/>
       <use xlink:href="#DejaVuSans-32" x="95.410156"/>
      </g>
     </g>
    </g>
    <g id="text_15">
     <!-- Time [s] -->
     <g transform="translate(232.551562 332.720312)scale(0.1 -0.1)">
      <defs>
       <path id="DejaVuSans-54" d="M -19 4666 
L 3928 4666 
L 3928 4134 
L 2272 4134 
L 2272 0 
L 1638 0 
L 1638 4134 
L -19 4134 
L -19 4666 
z
" transform="scale(0.015625)"/>
      </defs>
      <use xlink:href="#DejaVuSans-54"/>
      <use xlink:href="#DejaVuSans-69" x="57.958984"/>
      <use xlink:href="#DejaVuSans-6d" x="85.742188"/>
      <use xlink:href="#DejaVuSans-65" x="183.154297"/>
      <use xlink:href="#DejaVuSans-20" x="244.677734"/>
      <use xlink:href="#DejaVuSans-5b" x="276.464844"/>
      <use xlink:href="#DejaVuSans-73" x="315.478516"/>
      <use xlink:href="#DejaVuSans-5d" x="367.578125"/>
     </g>
    </g>
   </g>
   <g id="matplotlib.axis_4">
    <g id="ytick_5">
     <g id="line2d_41">
      <path d="M 55.760938 286.427726 
L 450 286.427726 
" clip-path="url(#pf1f87736ce)" style="fill: none; stroke: #b0b0b0; stroke-width: 0.8; stroke-linecap: square"/>
     </g>
     <g id="line2d_42">
      <g>
       <use xlink:href="#m1973e70227" x="55.760938" y="286.427726" style="stroke: #000000; stroke-width: 0.8"/>
      </g>
     </g>
     <g id="text_16">
      <!-- 0.5 -->
      <g transform="translate(24.478125 290.226945)scale(0.1 -0.1)">
       <defs>
        <path id="DejaVuSans-2212" d="M 678 2272 
L 4684 2272 
L 4684 1741 
L 678 1741 
L 678 2272 
z
" transform="scale(0.015625)"/>
        <path id="DejaVuSans-35" d="M 691 4666 
L 3169 4666 
L 3169 4134 
L 1269 4134 
L 1269 2991 
Q 1406 3038 1543 3061 
Q 1681 3084 1819 3084 
Q 2600 3084 3056 2656 
Q 3513 2228 3513 1497 
Q 3513 744 3044 326 
Q 2575 -91 1722 -91 
Q 1428 -91 1123 -41 
Q 819 9 494 109 
L 494 744 
Q 775 591 1075 516 
Q 1375 441 1709 441 
Q 2250 441 2565 725 
Q 2881 1009 2881 1497 
Q 2881 1984 2565 2268 
Q 2250 2553 1709 2553 
Q 1456 2553 1204 2497 
Q 953 2441 691 2322 
L 691 4666 
z
" transform="scale(0.015625)"/>
       </defs>
       <use xlink:href="#DejaVuSans-2212"/>
       <use xlink:href="#DejaVuSans-30" x="83.789062"/>
       <use xlink:href="#DejaVuSans-2e" x="147.412109"/>
       <use xlink:href="#DejaVuSans-35" x="179.199219"/>
      </g>
     </g>
    </g>
    <g id="ytick_6">
     <g id="line2d_43">
      <path d="M 55.760938 261.19626 
L 450 261.19626 
" clip-path="url(#pf1f87736ce)" style="fill: none; stroke: #b0b0b0; stroke-width: 0.8; stroke-linecap: square"/>
     </g>
     <g id="line2d_44">
      <g>
       <use xlink:href="#m1973e70227" x="55.760938" y="261.19626" style="stroke: #000000; stroke-width: 0.8"/>
      </g>
     </g>
     <g id="text_17">
      <!-- 0.0 -->
      <g transform="translate(32.857813 264.995479)scale(0.1 -0.1)">
       <use xlink:href="#DejaVuSans-30"/>
       <use xlink:href="#DejaVuSans-2e" x="63.623047"/>
       <use xlink:href="#DejaVuSans-30" x="95.410156"/>
      </g>
     </g>
    </g>
    <g id="ytick_7">
     <g id="line2d_45">
      <path d="M 55.760938 235.964794 
L 450 235.964794 
" clip-path="url(#pf1f87736ce)" style="fill: none; stroke: #b0b0b0; stroke-width: 0.8; stroke-linecap: square"/>
     </g>
     <g id="line2d_46">
      <g>
       <use xlink:href="#m1973e70227" x="55.760938" y="235.964794" style="stroke: #000000; stroke-width: 0.8"/>
      </g>
     </g>
     <g id="text_18">
      <!-- 0.5 -->
      <g transform="translate(32.857813 239.764013)scale(0.1 -0.1)">
       <use xlink:href="#DejaVuSans-30"/>
       <use xlink:href="#DejaVuSans-2e" x="63.623047"/>
       <use xlink:href="#DejaVuSans-35" x="95.410156"/>
      </g>
     </g>
    </g>
    <g id="ytick_8">
     <g id="line2d_47">
      <path d="M 55.760938 210.733328 
L 450 210.733328 
" clip-path="url(#pf1f87736ce)" style="fill: none; stroke: #b0b0b0; stroke-width: 0.8; stroke-linecap: square"/>
     </g>
     <g id="line2d_48">
      <g>
       <use xlink:href="#m1973e70227" x="55.760938" y="210.733328" style="stroke: #000000; stroke-width: 0.8"/>
      </g>
     </g>
     <g id="text_19">
      <!-- 1.0 -->
      <g transform="translate(32.857813 214.532547)scale(0.1 -0.1)">
       <use xlink:href="#DejaVuSans-31"/>
       <use xlink:href="#DejaVuSans-2e" x="63.623047"/>
       <use xlink:href="#DejaVuSans-30" x="95.410156"/>
      </g>
     </g>
    </g>
    <g id="ytick_9">
     <g id="line2d_49">
      <path d="M 55.760938 185.501862 
L 450 185.501862 
" clip-path="url(#pf1f87736ce)" style="fill: none; stroke: #b0b0b0; stroke-width: 0.8; stroke-linecap: square"/>
     </g>
     <g id="line2d_50">
      <g>
       <use xlink:href="#m1973e70227" x="55.760938" y="185.501862" style="stroke: #000000; stroke-width: 0.8"/>
      </g>
     </g>
     <g id="text_20">
      <!-- 1.5 -->
      <g transform="translate(32.857813 189.301081)scale(0.1 -0.1)">
       <use xlink:href="#DejaVuSans-31"/>
       <use xlink:href="#DejaVuSans-2e" x="63.623047"/>
       <use xlink:href="#DejaVuSans-35" x="95.410156"/>
      </g>
     </g>
    </g>
    <g id="text_21">
     <!-- rot. vel. [rad/s] -->
     <g transform="translate(18.398438 277.439375)rotate(-90)scale(0.1 -0.1)">
      <defs>
       <path id="DejaVuSans-6f" d="M 1959 3097 
Q 1497 3097 1228 2736 
Q 959 2375 959 1747 
Q 959 1119 1226 758 
Q 1494 397 1959 397 
Q 2419 397 2687 759 
Q 2956 1122 2956 1747 
Q 2956 2369 2687 2733 
Q 2419 3097 1959 3097 
z
M 1959 3584 
Q 2709 3584 3137 3096 
Q 3566 2609 3566 1747 
Q 3566 888 3137 398 
Q 2709 -91 1959 -91 
Q 1206 -91 779 398 
Q 353 888 353 1747 
Q 353 2609 779 3096 
Q 1206 3584 1959 3584 
z
" transform="scale(0.015625)"/>
      </defs>
      <use xlink:href="#DejaVuSans-72"/>
      <use xlink:href="#DejaVuSans-6f" x="38.863281"/>
      <use xlink:href="#DejaVuSans-74" x="100.044922"/>
      <use xlink:href="#DejaVuSans-2e" x="139.253906"/>
      <use xlink:href="#DejaVuSans-20" x="171.041016"/>
      <use xlink:href="#DejaVuSans-76" x="202.828125"/>
      <use xlink:href="#DejaVuSans-65" x="262.007812"/>
      <use xlink:href="#DejaVuSans-6c" x="323.53125"/>
      <use xlink:href="#DejaVuSans-2e" x="351.314453"/>
      <use xlink:href="#DejaVuSans-20" x="383.101562"/>
      <use xlink:href="#DejaVuSans-5b" x="414.888672"/>
      <use xlink:href="#DejaVuSans-72" x="453.902344"/>
      <use xlink:href="#DejaVuSans-61" x="495.015625"/>
      <use xlink:href="#DejaVuSans-64" x="556.294922"/>
      <use xlink:href="#DejaVuSans-2f" x="619.771484"/>
      <use xlink:href="#DejaVuSans-73" x="653.462891"/>
      <use xlink:href="#DejaVuSans-5d" x="705.5625"/>
     </g>
    </g>
   </g>
   <g id="line2d_51">
    <path d="M 73.680895 261.19626 
L 432.080043 261.19626 
L 432.080043 261.19626 
" clip-path="url(#pf1f87736ce)" style="fill: none; stroke: #1f77b4; stroke-width: 1.5; stroke-linecap: square"/>
   </g>
   <g id="line2d_52">
    <path d="M 73.680895 261.19626 
L 73.9667 261.250912 
L 74.252504 261.11663 
L 74.824114 261.41204 
L 75.109919 261.385143 
L 75.681528 261.062937 
L 76.538942 261.277758 
L 76.824747 261.170348 
L 77.110552 261.546271 
L 77.682161 266.32834 
L 78.539576 259.317525 
L 79.111185 261.949167 
L 79.39699 261.734195 
L 79.682794 260.713885 
L 79.968599 260.150164 
L 80.540209 260.042678 
L 80.826013 260.2304 
L 81.111818 261.760941 
L 81.397623 264.12412 
L 81.683428 265.278711 
L 81.969232 264.687791 
L 82.540842 262.163635 
L 82.826647 261.653707 
L 83.112451 262.244375 
L 83.398256 263.479708 
L 83.684061 264.097374 
L 84.25567 262.64707 
L 84.541475 262.163635 
L 84.82728 262.969528 
L 85.113085 264.392582 
L 86.256304 275.537826 
L 86.542108 279.105555 
L 87.399523 285.231755 
L 87.685327 285.070273 
L 87.971132 283.188006 
L 88.256937 282.304905 
L 88.542742 282.976062 
L 89.114351 285.74143 
L 89.400156 287.835642 
L 89.68596 287.351198 
L 89.971765 284.66657 
L 90.25757 283.753191 
L 90.543375 281.790183 
L 91.400789 280.690091 
L 91.972398 274.674909 
L 92.258203 272.742179 
L 92.544008 272.071022 
L 93.115617 294.733925 
L 93.401422 289.3899 
L 93.687227 280.397406 
L 93.973032 275.669029 
L 95.116251 267.721117 
L 95.68786 275.376344 
L 95.973665 275.02815 
L 96.25947 274.947409 
L 96.545274 275.669029 
L 96.831079 272.772457 
L 97.688493 247.313908 
L 98.260103 231.095121 
L 98.545908 230.237251 
L 98.831712 236.307942 
L 99.117517 239.931181 
L 99.403322 236.464377 
L 99.689126 240.037153 
L 99.974931 241.137245 
L 100.260736 240.304606 
L 100.546541 237.91771 
L 101.11815 241.56618 
L 102.261369 234.052249 
L 102.547174 234.693128 
L 102.832979 234.370166 
L 103.118783 235.0716 
L 103.404588 237.085071 
L 103.690393 237.675488 
L 103.976198 235.823498 
L 104.262002 232.735167 
L 104.547807 231.554334 
L 104.833612 231.337343 
L 105.691026 235.687248 
L 105.976831 238.614098 
L 106.54844 247.021223 
L 106.834245 242.858031 
L 107.12005 245.436687 
L 107.405855 245.244927 
L 107.691659 240.895023 
L 107.977464 240.733541 
L 108.263269 246.804232 
L 108.549074 257.599262 
L 108.834878 263.452963 
L 109.120683 263.66743 
L 109.406488 260.713885 
L 109.692293 260.606349 
L 109.978097 263.130504 
L 110.835511 274.114771 
L 111.121316 272.580698 
L 111.97873 259.129803 
L 112.264535 263.909148 
L 112.55034 271.132412 
L 112.836145 275.184585 
L 113.121949 271.293893 
L 113.407754 271.697596 
L 113.693559 274.356993 
L 113.979364 282.895321 
L 114.265168 285.872634 
L 114.550973 284.611061 
L 114.836778 290.116567 
L 115.122583 289.30916 
L 115.694192 273.201392 
L 116.265802 274.75565 
L 117.123216 268.932228 
L 117.409021 271.238384 
L 117.98063 263.66743 
L 118.266435 266.32834 
L 118.55224 267.695886 
L 119.123849 261.922422 
L 119.409654 263.345477 
L 119.695459 263.425713 
L 119.981263 259.559243 
L 120.267068 258.619623 
L 120.552873 261.868427 
L 120.838677 261.1972 
L 121.124482 257.706244 
L 121.410287 251.451868 
L 121.696092 251.154137 
L 121.981896 254.62094 
L 122.267701 254.726912 
L 122.839311 250.588952 
L 123.125115 249.004416 
L 123.41092 248.656222 
L 123.696725 246.940482 
L 124.268334 237.594747 
L 124.554139 231.952991 
L 124.839944 232.356695 
L 125.125749 234.183453 
L 126.268968 252.067516 
L 126.554772 254.080987 
L 126.840577 251.451868 
L 127.126382 251.34085 
L 127.412187 252.763904 
L 127.983796 250.911915 
L 128.84121 256.283189 
L 129.127015 257.518522 
L 130.270234 271.990281 
L 130.556039 271.536115 
L 130.841843 269.386394 
L 131.127648 264.661045 
L 131.413453 264.795277 
L 131.699258 267.615145 
L 131.985062 273.251855 
L 132.270867 275.643798 
L 132.842477 273.89778 
L 133.128281 276.097964 
L 133.414086 274.811159 
L 133.985696 265.036994 
L 134.557305 261.1972 
L 135.128915 263.211245 
L 135.414719 261.41204 
L 135.700524 260.337886 
L 135.986329 259.72022 
L 136.272134 261.304604 
L 136.557938 260.660344 
L 136.843743 260.660344 
L 137.129548 263.264736 
L 137.415353 266.999497 
L 137.701157 266.676535 
L 137.986962 266.11135 
L 138.272767 267.18621 
L 138.558572 267.615145 
L 138.844376 267.130701 
L 139.130181 268.286302 
L 139.415986 265.439688 
L 139.987595 254.5402 
L 140.559205 250.377008 
L 140.845009 249.221407 
L 141.130814 249.917795 
L 141.416619 251.42159 
L 141.702424 250.34673 
L 141.988228 250.780711 
L 142.559838 254.590662 
L 143.131447 252.012007 
L 143.703057 255.584782 
L 143.988862 254.696635 
L 144.274666 257.30355 
L 144.560471 258.055447 
L 144.846276 258.485392 
L 145.132081 258.404651 
L 145.417885 260.874963 
L 145.70369 260.096168 
L 145.989495 258.83409 
L 146.2753 259.022317 
L 146.561104 262.163635 
L 146.846909 262.969528 
L 147.132714 259.774215 
L 147.418519 254.242468 
L 147.704323 251.179368 
L 147.990128 253.435061 
L 148.275933 257.330295 
L 149.133347 261.358297 
L 149.419152 263.559944 
L 149.990761 265.57392 
L 150.276566 269.361163 
L 150.848175 278.67662 
L 151.13398 278.863333 
L 151.419785 279.267036 
L 151.70559 276.663149 
L 151.991394 270.486486 
L 152.563004 268.367043 
L 152.848809 269.734588 
L 153.134613 270.057551 
L 153.706223 268.851487 
L 153.992028 268.821209 
L 154.563637 277.632037 
L 155.135247 268.286302 
L 155.421051 266.298063 
L 155.706856 267.559636 
L 156.278466 266.272831 
L 156.56427 265.708151 
L 156.850075 260.257145 
L 157.13588 259.774215 
L 157.421685 261.250912 
L 157.707489 261.304604 
L 158.279099 259.827706 
L 158.564904 257.115828 
L 159.136513 253.975015 
L 159.422318 248.575481 
L 159.708123 246.107844 
L 160.279732 249.998536 
L 160.565537 250.69997 
L 160.851342 249.438397 
L 161.137146 249.438397 
L 161.422951 251.128905 
L 161.708756 251.961544 
L 161.99456 248.817703 
L 162.280365 248.656222 
L 162.56617 251.69409 
L 162.851975 251.850525 
L 163.423584 244.871502 
L 163.709389 243.150716 
L 163.995194 247.152426 
L 164.280998 254.509922 
L 164.566803 258.082193 
L 164.852608 256.094458 
L 165.138413 256.471416 
L 165.424217 256.551652 
L 165.710022 256.309935 
L 165.995827 256.417421 
L 166.567436 259.210039 
L 167.139046 257.921216 
L 167.424851 258.431396 
L 167.710655 260.069423 
L 167.99646 266.757275 
L 168.282265 267.721117 
L 168.56807 267.317414 
L 168.853874 269.97681 
L 169.425484 272.933938 
L 169.997093 277.632037 
L 170.282898 278.545416 
L 170.568703 277.763241 
L 170.854508 277.980231 
L 171.140312 278.035741 
L 171.426117 276.663149 
L 171.711922 274.059262 
L 172.283531 266.32834 
L 172.569336 265.171225 
L 172.855141 265.547174 
L 173.42675 268.690006 
L 173.712555 268.230793 
L 174.284164 272.474726 
L 174.569969 271.586578 
L 174.855774 271.399865 
L 175.427383 263.721425 
L 175.713188 264.419328 
L 175.998993 267.801858 
L 176.284798 267.801858 
L 176.570602 264.876017 
L 177.142212 262.351861 
L 177.713821 247.985065 
L 177.999626 246.027103 
L 178.571236 249.327379 
L 178.85704 248.414 
L 179.142845 248.282796 
L 180.000259 254.055755 
L 180.286064 254.5402 
L 180.571869 256.927601 
L 180.857674 260.713885 
L 181.143478 262.351861 
L 181.429283 263.103759 
L 181.715088 264.741786 
L 182.000892 264.419328 
L 182.286697 262.808551 
L 183.715721 248.792472 
L 184.001526 247.475389 
L 184.28733 249.085157 
L 184.85894 254.565431 
L 185.144745 255.049875 
L 186.287964 267.372923 
L 186.573768 267.615145 
L 186.859573 266.863248 
L 187.716987 275.457085 
L 188.002792 277.415047 
L 188.288597 278.141713 
L 188.574402 277.763241 
L 188.860206 276.259446 
L 189.146011 272.636207 
L 189.431816 267.236673 
L 189.717621 266.32834 
L 190.003425 270.83468 
L 190.28923 271.187921 
L 190.575035 267.509173 
L 191.146644 264.446073 
L 191.432449 263.533199 
L 191.718254 263.533199 
L 193.147277 270.355282 
L 193.433082 268.932228 
L 193.718887 265.735401 
L 194.004692 267.721117 
L 194.290496 268.18033 
L 194.576301 266.565516 
L 194.862106 263.640685 
L 195.147911 262.72781 
L 195.433715 260.015932 
L 195.71952 252.440942 
L 196.005325 238.962292 
L 196.29113 239.260024 
L 196.576934 240.84456 
L 197.148544 245.275205 
L 197.434349 240.84456 
L 198.577568 253.142376 
L 198.863372 252.980895 
L 199.149177 253.435061 
L 199.720787 254.888394 
L 200.292396 258.109443 
L 201.14981 251.502331 
L 201.435615 252.173488 
L 201.72142 255.665523 
L 202.007224 255.721032 
L 202.293029 253.596543 
L 202.578834 253.944737 
L 202.864639 257.196064 
L 204.007858 263.345477 
L 204.293662 265.197971 
L 204.579467 265.708151 
L 204.865272 265.923123 
L 205.151077 264.768531 
L 205.436881 267.080238 
L 206.008491 273.736299 
L 206.294296 274.462965 
L 206.5801 274.836391 
L 206.865905 275.618566 
L 207.15171 276.986112 
L 207.437515 276.153473 
L 207.723319 271.884309 
L 208.580734 264.097374 
L 208.866538 265.305457 
L 209.152343 270.007088 
L 209.438148 271.480606 
L 209.723953 267.509173 
L 210.295562 264.17761 
L 210.581367 267.155933 
L 210.867172 272.419216 
L 211.152976 274.356993 
L 211.438781 273.923012 
L 211.724586 271.748059 
L 212.010391 268.392274 
L 212.296195 266.888479 
L 212.867805 271.319124 
L 213.153609 271.076902 
L 214.011024 257.357545 
L 214.296828 251.209646 
L 214.582633 249.221407 
L 214.868438 248.363537 
L 215.154243 246.269325 
L 215.725852 240.733541 
L 216.011657 240.9253 
L 216.297462 242.858031 
L 216.583266 242.080902 
L 216.869071 243.983354 
L 217.440681 256.981596 
L 217.726485 260.257145 
L 218.01229 258.646368 
L 218.298095 255.529273 
L 218.5839 254.590662 
L 218.869704 255.317329 
L 219.155509 254.48469 
L 219.727119 249.165897 
L 220.012923 247.182704 
L 220.298728 246.456038 
L 220.584533 245.355946 
L 221.156142 241.677198 
L 221.441947 243.448447 
L 221.727752 246.456038 
L 222.013557 251.098628 
L 222.299361 257.894471 
L 222.585166 261.170348 
L 222.870971 261.62681 
L 223.156775 262.432602 
L 223.44258 262.325116 
L 223.728385 263.425713 
L 224.871604 274.356993 
L 225.157409 277.309074 
L 225.443213 278.409166 
L 225.729018 278.626157 
L 226.014823 277.980231 
L 227.443847 265.251966 
L 227.729651 264.768531 
L 228.015456 265.359452 
L 228.301261 266.434313 
L 228.87287 267.398155 
L 229.158675 270.541995 
L 229.44448 275.184585 
L 229.730285 277.899491 
L 230.016089 277.203102 
L 230.301894 273.468845 
L 230.587699 273.090373 
L 230.873504 273.89778 
L 231.159308 273.251855 
L 231.730918 267.695886 
L 232.016723 267.509173 
L 232.302527 263.721425 
L 232.874137 252.632701 
L 233.445746 252.577191 
L 233.731551 252.309738 
L 234.588965 249.438397 
L 235.160575 243.77141 
L 235.446379 246.859741 
L 236.017989 256.390675 
L 236.303794 256.283189 
L 236.589598 257.196064 
L 236.875403 257.276804 
L 237.161208 255.130616 
L 237.732817 249.438397 
L 238.018622 251.098628 
L 238.304427 251.55784 
L 238.876036 244.442567 
L 239.447646 242.938771 
L 239.733451 242.131365 
L 240.019255 244.654511 
L 240.87667 261.653707 
L 241.448279 266.676535 
L 241.734084 269.815329 
L 242.019889 274.382224 
L 242.305693 274.624447 
L 243.163107 270.380514 
L 243.448912 272.853198 
L 243.734717 274.084493 
L 244.306326 267.589914 
L 244.877936 270.541995 
L 245.163741 270.082783 
L 245.449545 272.610976 
L 245.73535 274.03403 
L 246.021155 273.95329 
L 246.30696 271.430143 
L 246.592764 270.244264 
L 247.164374 271.132412 
L 247.450179 271.076902 
L 247.735983 270.647967 
L 248.021788 271.430143 
L 248.307593 271.586578 
L 248.593398 272.772457 
L 249.165007 271.157643 
L 249.450812 268.795978 
L 249.736617 268.795978 
L 250.022421 270.486486 
L 250.879836 263.452963 
L 251.16564 263.103759 
L 251.73725 251.502331 
L 252.023055 250.427471 
L 252.308859 250.028813 
L 252.594664 249.917795 
L 252.880469 247.77312 
L 253.166273 244.71002 
L 253.452078 243.529188 
L 254.881102 258.270419 
L 255.166907 259.183294 
L 255.452711 258.216424 
L 255.738516 256.551652 
L 256.59593 247.985065 
L 256.881735 246.430806 
L 257.16754 245.759649 
L 257.453345 245.542659 
L 257.739149 244.57377 
L 258.024954 242.429096 
L 258.310759 241.485439 
L 258.596564 244.815993 
L 259.168173 255.529273 
L 259.739783 260.257145 
L 260.311392 268.205562 
L 260.597197 268.957459 
L 260.883002 269.305653 
L 261.454611 272.772457 
L 261.740416 272.742179 
L 262.026221 273.655558 
L 262.312025 274.195512 
L 262.59783 274.003752 
L 263.169439 267.130701 
L 263.741049 275.643798 
L 264.026854 275.376344 
L 264.312658 274.059262 
L 264.884268 268.261071 
L 265.170073 267.857367 
L 265.455877 267.695886 
L 265.741682 268.609265 
L 266.313292 278.192176 
L 266.599096 278.035741 
L 267.170706 275.053381 
L 267.456511 273.171114 
L 267.742315 273.842271 
L 268.02812 273.388105 
L 268.313925 298.604432 
L 268.59973 258.431396 
L 268.885534 181.818068 
L 269.457144 269.653848 
L 269.742949 276.017223 
L 270.028753 265.60117 
L 270.314558 263.15725 
L 270.600363 262.996273 
L 271.743582 254.34844 
L 272.029387 254.242468 
L 272.600996 260.874963 
L 272.886801 262.673815 
L 273.172606 261.546271 
L 273.45841 261.11663 
L 273.744215 262.915532 
L 274.315824 269.305653 
L 274.601629 266.272831 
L 275.459043 250.160017 
L 275.744848 249.62511 
L 276.030653 250.780711 
L 276.316458 248.63099 
L 276.602262 245.138955 
L 276.888067 246.56201 
L 277.459677 252.496451 
L 278.031286 260.337886 
L 278.602896 264.902763 
L 278.8887 264.311842 
L 279.46031 259.774215 
L 279.746115 259.344271 
L 280.031919 260.364631 
L 280.317724 264.097374 
L 280.603529 265.57392 
L 281.175138 259.129803 
L 281.460943 260.418627 
L 281.746748 260.633094 
L 282.032553 260.606349 
L 282.604162 265.063739 
L 282.889967 266.11135 
L 283.175772 265.815637 
L 283.461576 266.434313 
L 283.747381 265.708151 
L 284.033186 264.365837 
L 284.31899 268.341811 
L 284.604795 275.88602 
L 284.8906 278.893611 
L 285.176405 275.214863 
L 285.748014 272.151763 
L 286.033819 269.653848 
L 286.319624 269.224913 
L 286.605428 269.89607 
L 286.891233 271.455374 
L 287.177038 270.380514 
L 287.462843 267.938108 
L 287.748647 267.559636 
L 288.034452 265.65466 
L 288.606062 254.055755 
L 288.891866 253.54608 
L 289.177671 255.448532 
L 289.463476 256.202953 
L 289.749281 254.888394 
L 290.035085 250.588952 
L 290.32089 251.880803 
L 290.606695 256.309935 
L 290.8925 258.83409 
L 291.178304 259.264035 
L 291.749914 258.592373 
L 292.035719 260.445372 
L 292.321523 260.794424 
L 292.607328 260.203654 
L 293.178938 255.261819 
L 293.464742 250.377008 
L 293.750547 243.069975 
L 294.036352 239.179283 
L 294.322156 239.688959 
L 294.607961 238.750348 
L 294.893766 236.92359 
L 295.179571 236.010211 
L 295.75118 239.043033 
L 296.036985 241.969883 
L 296.608594 257.276804 
L 296.894399 259.559243 
L 297.466009 260.955552 
L 298.037618 267.90783 
L 298.323423 268.447784 
L 298.609228 270.325005 
L 298.895032 260.445372 
L 299.180837 267.10547 
L 299.466642 265.332202 
L 299.752447 259.505752 
L 300.038251 261.492579 
L 300.324056 266.030609 
L 300.609861 267.882599 
L 300.895666 268.422552 
L 301.467275 265.627915 
L 301.75308 265.493684 
L 302.038885 267.18621 
L 302.610494 272.232504 
L 302.896299 272.853198 
L 303.182104 272.853198 
L 303.467908 277.011343 
L 303.753713 276.930603 
L 304.039518 277.389815 
L 304.325322 276.68838 
L 304.611127 273.95329 
L 304.896932 273.251855 
L 305.468541 269.255191 
L 305.754346 267.266951 
L 306.040151 263.023018 
L 306.325956 261.062937 
L 306.61176 261.250912 
L 306.897565 261.573117 
L 307.18337 261.573117 
L 308.326589 252.148257 
L 308.612394 252.874923 
L 308.898198 256.175703 
L 309.184003 260.901809 
L 309.469808 263.130504 
L 310.041417 266.298063 
L 310.327222 265.010249 
L 310.613027 261.33145 
L 311.184636 249.811823 
L 312.042051 244.790761 
L 312.899465 237.619978 
L 313.18527 238.63933 
L 314.042684 247.475389 
L 314.328488 246.430806 
L 314.614293 248.146546 
L 314.900098 252.763904 
L 315.185903 253.117145 
L 315.471707 254.34844 
L 315.757512 258.377906 
L 316.043317 260.498863 
L 316.614926 266.11135 
L 316.900731 268.04408 
L 317.186536 268.205562 
L 317.472341 265.412943 
L 317.758145 264.12412 
L 318.329755 266.701766 
L 318.61556 266.676535 
L 318.901364 266.918757 
L 319.187169 267.347692 
L 319.472974 266.565516 
L 319.758779 267.882599 
L 320.330388 269.118941 
L 320.901998 272.82292 
L 321.473607 280.52861 
L 321.759412 280.180415 
L 322.045217 276.637917 
L 322.331021 276.663149 
L 322.902631 277.980231 
L 323.188436 277.283843 
L 323.47424 273.574818 
L 324.331655 269.492366 
L 324.903264 261.519425 
L 325.189069 260.122914 
L 326.046483 264.822022 
L 326.618092 258.538882 
L 326.903897 255.292097 
L 327.189702 255.317329 
L 328.047116 259.988682 
L 328.618726 257.196064 
L 329.190335 258.32391 
L 329.761945 252.632701 
L 330.047749 253.838765 
L 330.333554 253.652052 
L 330.905164 248.414 
L 331.190968 247.55613 
L 331.476773 240.466088 
L 332.048383 235.71248 
L 332.334187 237.887432 
L 333.191602 253.086867 
L 333.763211 253.354321 
L 334.049016 254.297977 
L 334.620625 257.760239 
L 334.90643 261.573117 
L 335.192235 261.949167 
L 335.478039 261.760941 
L 335.763844 260.257145 
L 336.335454 264.849272 
L 336.621258 265.386198 
L 336.907063 264.150865 
L 337.192868 264.822022 
L 337.478673 264.446073 
L 338.050282 260.257145 
L 338.336087 260.364631 
L 338.907696 258.968322 
L 339.479306 272.716948 
L 339.765111 274.649678 
L 340.050915 274.811159 
L 340.622525 280.52861 
L 340.90833 281.310785 
L 341.194134 281.310785 
L 341.479939 279.80699 
L 342.908963 264.715041 
L 343.194768 262.72781 
L 343.480572 261.573117 
L 343.766377 262.72781 
L 344.052182 262.888787 
L 344.337987 263.237991 
L 344.623791 263.774916 
L 344.909596 263.533199 
L 345.195401 258.673114 
L 345.481205 257.840475 
L 345.76701 260.633094 
L 346.052815 266.003864 
L 346.624424 267.534405 
L 346.910229 267.398155 
L 347.196034 266.595794 
L 347.481839 263.801661 
L 348.053448 261.868427 
L 348.339253 258.807345 
L 348.625058 249.948073 
L 348.910862 246.884973 
L 349.196667 246.642751 
L 349.482472 248.363537 
L 349.768277 248.333259 
L 350.339886 234.667897 
L 350.625691 235.984979 
L 351.1973 244.896733 
L 351.483105 250.34673 
L 351.76891 252.632701 
L 352.054715 253.329089 
L 352.340519 254.777375 
L 352.626324 255.372838 
L 352.912129 255.529273 
L 353.197934 256.229699 
L 353.769543 260.445372 
L 354.055348 260.606349 
L 354.341153 261.062937 
L 354.626957 260.418627 
L 354.912762 258.646368 
L 355.198567 259.72022 
L 355.484371 261.949167 
L 356.055981 267.292182 
L 356.341786 266.726998 
L 356.913395 261.814936 
L 357.1992 262.72781 
L 357.770809 268.634496 
L 358.342419 275.588289 
L 358.628224 276.82463 
L 359.199833 280.478147 
L 359.485638 280.558887 
L 359.771443 281.310785 
L 360.628857 273.009633 
L 361.486271 265.842382 
L 362.057881 260.498863 
L 362.62949 265.60117 
L 362.915295 264.983503 
L 363.2011 262.190885 
L 363.772709 259.344271 
L 365.201733 266.943988 
L 365.487537 266.757275 
L 365.773342 266.2476 
L 366.630756 251.906035 
L 367.488171 246.617519 
L 367.773975 247.127195 
L 368.05978 246.990945 
L 368.345585 248.444277 
L 368.63139 251.260109 
L 368.917194 249.948073 
L 369.488804 241.354235 
L 370.632023 250.377008 
L 371.203632 253.329089 
L 371.489437 256.471416 
L 371.775242 257.491776 
L 372.061047 256.578902 
L 372.346851 256.337185 
L 372.918461 254.888394 
L 373.49007 263.103759 
L 373.775875 263.935893 
L 374.347485 262.862042 
L 374.633289 263.291481 
L 374.919094 266.943988 
L 375.204899 268.770746 
L 375.776508 266.646257 
L 376.633922 276.582408 
L 377.205532 291.135918 
L 377.491337 292.907167 
L 378.348751 275.078613 
L 378.634556 274.382224 
L 378.92036 274.543706 
L 379.206165 269.305653 
L 379.49197 267.559636 
L 379.777775 272.1013 
L 380.063579 269.97681 
L 380.349384 263.398967 
L 380.920994 257.81373 
L 381.206798 258.753854 
L 381.492603 258.753854 
L 382.064213 250.079276 
L 382.350017 245.300437 
L 382.635822 246.294556 
L 383.493236 251.371127 
L 383.779041 251.260109 
L 384.350651 260.150164 
L 384.636455 256.043995 
L 384.92226 249.165897 
L 385.208065 248.171778 
L 385.779674 263.049764 
L 386.065479 262.298371 
L 386.637088 254.752144 
L 387.208698 249.514092 
L 387.494503 249.998536 
L 387.780307 249.004416 
L 388.351917 241.621689 
L 388.637722 243.821873 
L 388.923526 248.923675 
L 389.209331 246.859741 
L 389.495136 239.769699 
L 389.780941 235.581276 
L 390.066745 243.019512 
L 390.35255 254.323209 
L 390.638355 258.807345 
L 390.92416 255.100338 
L 391.495769 239.956412 
L 391.781574 242.77729 
L 392.067379 254.429181 
L 392.353183 261.465732 
L 392.638988 258.377906 
L 392.924793 249.382888 
L 393.210598 244.412289 
L 393.496402 248.252518 
L 393.782207 257.733494 
L 394.068012 262.72781 
L 394.353817 259.371016 
L 394.639621 253.354321 
L 394.925426 251.290387 
L 395.211231 254.509922 
L 396.068645 271.399865 
L 396.35445 272.661438 
L 396.640254 271.187921 
L 396.926059 270.405745 
L 397.211864 273.630327 
L 397.783473 285.66069 
L 398.069278 288.209068 
L 398.355083 288.45129 
L 398.640888 289.899576 
L 399.212497 295.001378 
L 399.784107 297.902997 
L 400.069911 298.493413 
L 400.355716 297.100636 
L 400.927326 287.754901 
L 401.21313 286.276338 
L 402.356349 288.991243 
L 402.642154 290.222539 
L 402.927959 290.762492 
L 403.213764 289.258697 
L 404.356983 271.238384 
L 404.642787 269.441903 
L 404.928592 265.65466 
L 406.357616 237.054794 
L 406.64342 235.041323 
L 406.929225 234.561925 
L 407.21503 235.283545 
L 408.072444 240.683078 
L 408.358249 241.031273 
L 408.644054 241.192754 
L 408.929858 242.479559 
L 409.215663 245.648631 
L 410.358882 263.533199 
L 411.216296 270.325005 
L 411.502101 270.996162 
L 411.787906 270.864958 
L 412.359515 270.405745 
L 412.931125 271.051671 
L 413.21693 271.026439 
L 413.502734 270.325005 
L 414.074344 267.589914 
L 415.217563 262.271121 
L 415.503368 261.304604 
L 415.789172 261.519425 
L 417.218196 265.762146 
L 417.789805 266.646257 
L 418.07561 266.701766 
L 419.504634 266.057355 
L 419.790439 265.60117 
L 420.076243 263.372222 
L 420.362048 259.827706 
L 420.647853 257.760239 
L 420.933658 257.733494 
L 421.219462 257.357545 
L 421.505267 256.283189 
L 421.791072 256.659138 
L 422.362681 261.814936 
L 422.648486 262.754556 
L 422.934291 262.351861 
L 423.220096 261.358297 
L 423.5059 260.848117 
L 423.791705 261.358297 
L 424.363315 263.748171 
L 424.649119 263.963143 
L 425.220729 263.559944 
L 425.792338 264.6343 
L 426.078143 264.607554 
L 426.649752 263.748171 
L 427.221362 263.183995 
L 428.650386 260.445372 
L 429.221995 259.774215 
L 430.079409 258.807345 
L 430.651019 258.297165 
L 431.508433 258.565628 
L 432.080043 258.968322 
L 432.080043 258.968322 
" clip-path="url(#pf1f87736ce)" style="fill: none; stroke: #ff7f0e; stroke-width: 1.5; stroke-linecap: square"/>
   </g>
   <g id="patch_9">
    <path d="M 55.760938 304.44375 
L 55.760938 175.97875 
" style="fill: none; stroke: #000000; stroke-width: 0.8; stroke-linejoin: miter; stroke-linecap: square"/>
   </g>
   <g id="patch_10">
    <path d="M 450 304.44375 
L 450 175.97875 
" style="fill: none; stroke: #000000; stroke-width: 0.8; stroke-linejoin: miter; stroke-linecap: square"/>
   </g>
   <g id="patch_11">
    <path d="M 55.760938 304.44375 
L 450 304.44375 
" style="fill: none; stroke: #000000; stroke-width: 0.8; stroke-linejoin: miter; stroke-linecap: square"/>
   </g>
   <g id="patch_12">
    <path d="M 55.760938 175.97875 
L 450 175.97875 
" style="fill: none; stroke: #000000; stroke-width: 0.8; stroke-linejoin: miter; stroke-linecap: square"/>
   </g>
   <g id="legend_2">
    <g id="patch_13">
     <path d="M 360.482812 213.335 
L 443 213.335 
Q 445 213.335 445 211.335 
L 445 182.97875 
Q 445 180.97875 443 180.97875 
L 360.482812 180.97875 
Q 358.482812 180.97875 358.482812 182.97875 
L 358.482812 211.335 
Q 358.482812 213.335 360.482812 213.335 
z
" style="fill: #ffffff; opacity: 0.8; stroke: #cccccc; stroke-linejoin: miter"/>
    </g>
    <g id="line2d_53">
     <path d="M 362.482812 189.077187 
L 372.482812 189.077187 
L 382.482812 189.077187 
" style="fill: none; stroke: #1f77b4; stroke-width: 1.5; stroke-linecap: square"/>
    </g>
    <g id="text_22">
     <!-- Reference -->
     <g transform="translate(390.482812 192.577187)scale(0.1 -0.1)">
      <use xlink:href="#DejaVuSans-52"/>
      <use xlink:href="#DejaVuSans-65" x="64.982422"/>
      <use xlink:href="#DejaVuSans-66" x="126.505859"/>
      <use xlink:href="#DejaVuSans-65" x="161.710938"/>
      <use xlink:href="#DejaVuSans-72" x="223.234375"/>
      <use xlink:href="#DejaVuSans-65" x="262.097656"/>
      <use xlink:href="#DejaVuSans-6e" x="323.621094"/>
      <use xlink:href="#DejaVuSans-63" x="387"/>
      <use xlink:href="#DejaVuSans-65" x="441.980469"/>
     </g>
    </g>
    <g id="line2d_54">
     <path d="M 362.482812 203.755312 
L 372.482812 203.755312 
L 382.482812 203.755312 
" style="fill: none; stroke: #ff7f0e; stroke-width: 1.5; stroke-linecap: square"/>
    </g>
    <g id="text_23">
     <!-- Estimated -->
     <g transform="translate(390.482812 207.255312)scale(0.1 -0.1)">
      <use xlink:href="#DejaVuSans-45"/>
      <use xlink:href="#DejaVuSans-73" x="63.183594"/>
      <use xlink:href="#DejaVuSans-74" x="115.283203"/>
      <use xlink:href="#DejaVuSans-69" x="154.492188"/>
      <use xlink:href="#DejaVuSans-6d" x="182.275391"/>
      <use xlink:href="#DejaVuSans-61" x="279.6875"/>
      <use xlink:href="#DejaVuSans-74" x="340.966797"/>
      <use xlink:href="#DejaVuSans-65" x="380.175781"/>
      <use xlink:href="#DejaVuSans-64" x="441.699219"/>
     </g>
    </g>
   </g>
  </g>
  <g id="text_24">
   <!-- Translational and Rotational Velocity -->
   <g transform="translate(121.384688 16.030125)scale(0.12 -0.12)">
    <defs>
     <path id="DejaVuSans-56" d="M 1831 0 
L 50 4666 
L 709 4666 
L 2188 738 
L 3669 4666 
L 4325 4666 
L 2547 0 
L 1831 0 
z
" transform="scale(0.015625)"/>
     <path id="DejaVuSans-79" d="M 2059 -325 
Q 1816 -950 1584 -1140 
Q 1353 -1331 966 -1331 
L 506 -1331 
L 506 -850 
L 844 -850 
Q 1081 -850 1212 -737 
Q 1344 -625 1503 -206 
L 1606 56 
L 191 3500 
L 800 3500 
L 1894 763 
L 2988 3500 
L 3597 3500 
L 2059 -325 
z
" transform="scale(0.015625)"/>
    </defs>
    <use xlink:href="#DejaVuSans-54"/>
    <use xlink:href="#DejaVuSans-72" x="46.333984"/>
    <use xlink:href="#DejaVuSans-61" x="87.447266"/>
    <use xlink:href="#DejaVuSans-6e" x="148.726562"/>
    <use xlink:href="#DejaVuSans-73" x="212.105469"/>
    <use xlink:href="#DejaVuSans-6c" x="264.205078"/>
    <use xlink:href="#DejaVuSans-61" x="291.988281"/>
    <use xlink:href="#DejaVuSans-74" x="353.267578"/>
    <use xlink:href="#DejaVuSans-69" x="392.476562"/>
    <use xlink:href="#DejaVuSans-6f" x="420.259766"/>
    <use xlink:href="#DejaVuSans-6e" x="481.441406"/>
    <use xlink:href="#DejaVuSans-61" x="544.820312"/>
    <use xlink:href="#DejaVuSans-6c" x="606.099609"/>
    <use xlink:href="#DejaVuSans-20" x="633.882812"/>
    <use xlink:href="#DejaVuSans-61" x="665.669922"/>
    <use xlink:href="#DejaVuSans-6e" x="726.949219"/>
    <use xlink:href="#DejaVuSans-64" x="790.328125"/>
    <use xlink:href="#DejaVuSans-20" x="853.804688"/>
    <use xlink:href="#DejaVuSans-52" x="885.591797"/>
    <use xlink:href="#DejaVuSans-6f" x="950.574219"/>
    <use xlink:href="#DejaVuSans-74" x="1011.755859"/>
    <use xlink:href="#DejaVuSans-61" x="1050.964844"/>
    <use xlink:href="#DejaVuSans-74" x="1112.244141"/>
    <use xlink:href="#DejaVuSans-69" x="1151.453125"/>
    <use xlink:href="#DejaVuSans-6f" x="1179.236328"/>
    <use xlink:href="#DejaVuSans-6e" x="1240.417969"/>
    <use xlink:href="#DejaVuSans-61" x="1303.796875"/>
    <use xlink:href="#DejaVuSans-6c" x="1365.076172"/>
    <use xlink:href="#DejaVuSans-20" x="1392.859375"/>
    <use xlink:href="#DejaVuSans-56" x="1424.646484"/>
    <use xlink:href="#DejaVuSans-65" x="1485.304688"/>
    <use xlink:href="#DejaVuSans-6c" x="1546.828125"/>
    <use xlink:href="#DejaVuSans-6f" x="1574.611328"/>
    <use xlink:href="#DejaVuSans-63" x="1635.792969"/>
    <use xlink:href="#DejaVuSans-69" x="1690.773438"/>
    <use xlink:href="#DejaVuSans-74" x="1718.556641"/>
    <use xlink:href="#DejaVuSans-79" x="1757.765625"/>
   </g>
  </g>
 </g>
 <defs>
  <clipPath id="p35466cbc3e">
   <rect x="55.760938" y="33.21375" width="394.239062" height="128.465"/>
  </clipPath>
  <clipPath id="pf1f87736ce">
   <rect x="55.760938" y="175.97875" width="394.239062" height="128.465"/>
  </clipPath>
 </defs>
</svg>
