<?xml version="1.0" encoding="utf-8" standalone="no"?>
<!DOCTYPE svg PUBLIC "-//W3C//DTD SVG 1.1//EN"
  "http://www.w3.org/Graphics/SVG/1.1/DTD/svg11.dtd">
<svg xmlns:xlink="http://www.w3.org/1999/xlink" width="460.8pt" height="345.6pt" viewBox="0 0 460.8 345.6" xmlns="http://www.w3.org/2000/svg" version="1.1">
 <metadata>
  <rdf:RDF xmlns:dc="http://purl.org/dc/elements/1.1/" xmlns:cc="http://creativecommons.org/ns#" xmlns:rdf="http://www.w3.org/1999/02/22-rdf-syntax-ns#">
   <cc:Work>
    <dc:type rdf:resource="http://purl.org/dc/dcmitype/StillImage"/>
    <dc:date>2022-03-06T01:19:18.661182</dc:date>
    <dc:format>image/svg+xml</dc:format>
    <dc:creator>
     <cc:Agent>
      <dc:title>Matplotlib v3.5.1, https://matplotlib.org/</dc:title>
     </cc:Agent>
    </dc:creator>
   </cc:Work>
  </rdf:RDF>
 </metadata>
 <defs>
  <style type="text/css">*{stroke-linejoin: round; stroke-linecap: butt}</style>
 </defs>
 <g id="figure_1">
  <g id="patch_1">
   <path d="M 0 345.6 
L 460.8 345.6 
L 460.8 0 
L 0 0 
z
" style="fill: #ffffff"/>
  </g>
  <g id="axes_1">
   <g id="patch_2">
    <path d="M 50.565625 304.44375 
L 450 304.44375 
L 450 25.918125 
L 50.565625 25.918125 
z
" style="fill: #ffffff"/>
   </g>
   <g id="matplotlib.axis_1">
    <g id="xtick_1">
     <g id="line2d_1">
      <path d="M 68.721733 304.44375 
L 68.721733 25.918125 
" clip-path="url(#p08a410eadc)" style="fill: none; stroke: #b0b0b0; stroke-width: 0.8; stroke-linecap: square"/>
     </g>
     <g id="line2d_2">
      <defs>
       <path id="md2424dd900" d="M 0 0 
L 0 3.5 
" style="stroke: #000000; stroke-width: 0.8"/>
      </defs>
      <g>
       <use xlink:href="#md2424dd900" x="68.721733" y="304.44375" style="stroke: #000000; stroke-width: 0.8"/>
      </g>
     </g>
     <g id="text_1">
      <!-- 0 -->
      <g transform="translate(65.540483 319.042187)scale(0.1 -0.1)">
       <defs>
        <path id="DejaVuSans-30" d="M 2034 4250 
Q 1547 4250 1301 3770 
Q 1056 3291 1056 2328 
Q 1056 1369 1301 889 
Q 1547 409 2034 409 
Q 2525 409 2770 889 
Q 3016 1369 3016 2328 
Q 3016 3291 2770 3770 
Q 2525 4250 2034 4250 
z
M 2034 4750 
Q 2819 4750 3233 4129 
Q 3647 3509 3647 2328 
Q 3647 1150 3233 529 
Q 2819 -91 2034 -91 
Q 1250 -91 836 529 
Q 422 1150 422 2328 
Q 422 3509 836 4129 
Q 1250 4750 2034 4750 
z
" transform="scale(0.015625)"/>
       </defs>
       <use xlink:href="#DejaVuSans-30"/>
      </g>
     </g>
    </g>
    <g id="xtick_2">
     <g id="line2d_3">
      <path d="M 126.360171 304.44375 
L 126.360171 25.918125 
" clip-path="url(#p08a410eadc)" style="fill: none; stroke: #b0b0b0; stroke-width: 0.8; stroke-linecap: square"/>
     </g>
     <g id="line2d_4">
      <g>
       <use xlink:href="#md2424dd900" x="126.360171" y="304.44375" style="stroke: #000000; stroke-width: 0.8"/>
      </g>
     </g>
     <g id="text_2">
      <!-- 100 -->
      <g transform="translate(116.816421 319.042187)scale(0.1 -0.1)">
       <defs>
        <path id="DejaVuSans-31" d="M 794 531 
L 1825 531 
L 1825 4091 
L 703 3866 
L 703 4441 
L 1819 4666 
L 2450 4666 
L 2450 531 
L 3481 531 
L 3481 0 
L 794 0 
L 794 531 
z
" transform="scale(0.015625)"/>
       </defs>
       <use xlink:href="#DejaVuSans-31"/>
       <use xlink:href="#DejaVuSans-30" x="63.623047"/>
       <use xlink:href="#DejaVuSans-30" x="127.246094"/>
      </g>
     </g>
    </g>
    <g id="xtick_3">
     <g id="line2d_5">
      <path d="M 183.998609 304.44375 
L 183.998609 25.918125 
" clip-path="url(#p08a410eadc)" style="fill: none; stroke: #b0b0b0; stroke-width: 0.8; stroke-linecap: square"/>
     </g>
     <g id="line2d_6">
      <g>
       <use xlink:href="#md2424dd900" x="183.998609" y="304.44375" style="stroke: #000000; stroke-width: 0.8"/>
      </g>
     </g>
     <g id="text_3">
      <!-- 200 -->
      <g transform="translate(174.454859 319.042187)scale(0.1 -0.1)">
       <defs>
        <path id="DejaVuSans-32" d="M 1228 531 
L 3431 531 
L 3431 0 
L 469 0 
L 469 531 
Q 828 903 1448 1529 
Q 2069 2156 2228 2338 
Q 2531 2678 2651 2914 
Q 2772 3150 2772 3378 
Q 2772 3750 2511 3984 
Q 2250 4219 1831 4219 
Q 1534 4219 1204 4116 
Q 875 4013 500 3803 
L 500 4441 
Q 881 4594 1212 4672 
Q 1544 4750 1819 4750 
Q 2544 4750 2975 4387 
Q 3406 4025 3406 3419 
Q 3406 3131 3298 2873 
Q 3191 2616 2906 2266 
Q 2828 2175 2409 1742 
Q 1991 1309 1228 531 
z
" transform="scale(0.015625)"/>
       </defs>
       <use xlink:href="#DejaVuSans-32"/>
       <use xlink:href="#DejaVuSans-30" x="63.623047"/>
       <use xlink:href="#DejaVuSans-30" x="127.246094"/>
      </g>
     </g>
    </g>
    <g id="xtick_4">
     <g id="line2d_7">
      <path d="M 241.637047 304.44375 
L 241.637047 25.918125 
" clip-path="url(#p08a410eadc)" style="fill: none; stroke: #b0b0b0; stroke-width: 0.8; stroke-linecap: square"/>
     </g>
     <g id="line2d_8">
      <g>
       <use xlink:href="#md2424dd900" x="241.637047" y="304.44375" style="stroke: #000000; stroke-width: 0.8"/>
      </g>
     </g>
     <g id="text_4">
      <!-- 300 -->
      <g transform="translate(232.093297 319.042187)scale(0.1 -0.1)">
       <defs>
        <path id="DejaVuSans-33" d="M 2597 2516 
Q 3050 2419 3304 2112 
Q 3559 1806 3559 1356 
Q 3559 666 3084 287 
Q 2609 -91 1734 -91 
Q 1441 -91 1130 -33 
Q 819 25 488 141 
L 488 750 
Q 750 597 1062 519 
Q 1375 441 1716 441 
Q 2309 441 2620 675 
Q 2931 909 2931 1356 
Q 2931 1769 2642 2001 
Q 2353 2234 1838 2234 
L 1294 2234 
L 1294 2753 
L 1863 2753 
Q 2328 2753 2575 2939 
Q 2822 3125 2822 3475 
Q 2822 3834 2567 4026 
Q 2313 4219 1838 4219 
Q 1578 4219 1281 4162 
Q 984 4106 628 3988 
L 628 4550 
Q 988 4650 1302 4700 
Q 1616 4750 1894 4750 
Q 2613 4750 3031 4423 
Q 3450 4097 3450 3541 
Q 3450 3153 3228 2886 
Q 3006 2619 2597 2516 
z
" transform="scale(0.015625)"/>
       </defs>
       <use xlink:href="#DejaVuSans-33"/>
       <use xlink:href="#DejaVuSans-30" x="63.623047"/>
       <use xlink:href="#DejaVuSans-30" x="127.246094"/>
      </g>
     </g>
    </g>
    <g id="xtick_5">
     <g id="line2d_9">
      <path d="M 299.275485 304.44375 
L 299.275485 25.918125 
" clip-path="url(#p08a410eadc)" style="fill: none; stroke: #b0b0b0; stroke-width: 0.8; stroke-linecap: square"/>
     </g>
     <g id="line2d_10">
      <g>
       <use xlink:href="#md2424dd900" x="299.275485" y="304.44375" style="stroke: #000000; stroke-width: 0.8"/>
      </g>
     </g>
     <g id="text_5">
      <!-- 400 -->
      <g transform="translate(289.731735 319.042187)scale(0.1 -0.1)">
       <defs>
        <path id="DejaVuSans-34" d="M 2419 4116 
L 825 1625 
L 2419 1625 
L 2419 4116 
z
M 2253 4666 
L 3047 4666 
L 3047 1625 
L 3713 1625 
L 3713 1100 
L 3047 1100 
L 3047 0 
L 2419 0 
L 2419 1100 
L 313 1100 
L 313 1709 
L 2253 4666 
z
" transform="scale(0.015625)"/>
       </defs>
       <use xlink:href="#DejaVuSans-34"/>
       <use xlink:href="#DejaVuSans-30" x="63.623047"/>
       <use xlink:href="#DejaVuSans-30" x="127.246094"/>
      </g>
     </g>
    </g>
    <g id="xtick_6">
     <g id="line2d_11">
      <path d="M 356.913923 304.44375 
L 356.913923 25.918125 
" clip-path="url(#p08a410eadc)" style="fill: none; stroke: #b0b0b0; stroke-width: 0.8; stroke-linecap: square"/>
     </g>
     <g id="line2d_12">
      <g>
       <use xlink:href="#md2424dd900" x="356.913923" y="304.44375" style="stroke: #000000; stroke-width: 0.8"/>
      </g>
     </g>
     <g id="text_6">
      <!-- 500 -->
      <g transform="translate(347.370173 319.042187)scale(0.1 -0.1)">
       <defs>
        <path id="DejaVuSans-35" d="M 691 4666 
L 3169 4666 
L 3169 4134 
L 1269 4134 
L 1269 2991 
Q 1406 3038 1543 3061 
Q 1681 3084 1819 3084 
Q 2600 3084 3056 2656 
Q 3513 2228 3513 1497 
Q 3513 744 3044 326 
Q 2575 -91 1722 -91 
Q 1428 -91 1123 -41 
Q 819 9 494 109 
L 494 744 
Q 775 591 1075 516 
Q 1375 441 1709 441 
Q 2250 441 2565 725 
Q 2881 1009 2881 1497 
Q 2881 1984 2565 2268 
Q 2250 2553 1709 2553 
Q 1456 2553 1204 2497 
Q 953 2441 691 2322 
L 691 4666 
z
" transform="scale(0.015625)"/>
       </defs>
       <use xlink:href="#DejaVuSans-35"/>
       <use xlink:href="#DejaVuSans-30" x="63.623047"/>
       <use xlink:href="#DejaVuSans-30" x="127.246094"/>
      </g>
     </g>
    </g>
    <g id="xtick_7">
     <g id="line2d_13">
      <path d="M 414.552361 304.44375 
L 414.552361 25.918125 
" clip-path="url(#p08a410eadc)" style="fill: none; stroke: #b0b0b0; stroke-width: 0.8; stroke-linecap: square"/>
     </g>
     <g id="line2d_14">
      <g>
       <use xlink:href="#md2424dd900" x="414.552361" y="304.44375" style="stroke: #000000; stroke-width: 0.8"/>
      </g>
     </g>
     <g id="text_7">
      <!-- 600 -->
      <g transform="translate(405.008611 319.042187)scale(0.1 -0.1)">
       <defs>
        <path id="DejaVuSans-36" d="M 2113 2584 
Q 1688 2584 1439 2293 
Q 1191 2003 1191 1497 
Q 1191 994 1439 701 
Q 1688 409 2113 409 
Q 2538 409 2786 701 
Q 3034 994 3034 1497 
Q 3034 2003 2786 2293 
Q 2538 2584 2113 2584 
z
M 3366 4563 
L 3366 3988 
Q 3128 4100 2886 4159 
Q 2644 4219 2406 4219 
Q 1781 4219 1451 3797 
Q 1122 3375 1075 2522 
Q 1259 2794 1537 2939 
Q 1816 3084 2150 3084 
Q 2853 3084 3261 2657 
Q 3669 2231 3669 1497 
Q 3669 778 3244 343 
Q 2819 -91 2113 -91 
Q 1303 -91 875 529 
Q 447 1150 447 2328 
Q 447 3434 972 4092 
Q 1497 4750 2381 4750 
Q 2619 4750 2861 4703 
Q 3103 4656 3366 4563 
z
" transform="scale(0.015625)"/>
       </defs>
       <use xlink:href="#DejaVuSans-36"/>
       <use xlink:href="#DejaVuSans-30" x="63.623047"/>
       <use xlink:href="#DejaVuSans-30" x="127.246094"/>
      </g>
     </g>
    </g>
    <g id="text_8">
     <!-- Translational Position [mm] -->
     <g transform="translate(182.305469 332.720312)scale(0.1 -0.1)">
      <defs>
       <path id="DejaVuSans-54" d="M -19 4666 
L 3928 4666 
L 3928 4134 
L 2272 4134 
L 2272 0 
L 1638 0 
L 1638 4134 
L -19 4134 
L -19 4666 
z
" transform="scale(0.015625)"/>
       <path id="DejaVuSans-72" d="M 2631 2963 
Q 2534 3019 2420 3045 
Q 2306 3072 2169 3072 
Q 1681 3072 1420 2755 
Q 1159 2438 1159 1844 
L 1159 0 
L 581 0 
L 581 3500 
L 1159 3500 
L 1159 2956 
Q 1341 3275 1631 3429 
Q 1922 3584 2338 3584 
Q 2397 3584 2469 3576 
Q 2541 3569 2628 3553 
L 2631 2963 
z
" transform="scale(0.015625)"/>
       <path id="DejaVuSans-61" d="M 2194 1759 
Q 1497 1759 1228 1600 
Q 959 1441 959 1056 
Q 959 750 1161 570 
Q 1363 391 1709 391 
Q 2188 391 2477 730 
Q 2766 1069 2766 1631 
L 2766 1759 
L 2194 1759 
z
M 3341 1997 
L 3341 0 
L 2766 0 
L 2766 531 
Q 2569 213 2275 61 
Q 1981 -91 1556 -91 
Q 1019 -91 701 211 
Q 384 513 384 1019 
Q 384 1609 779 1909 
Q 1175 2209 1959 2209 
L 2766 2209 
L 2766 2266 
Q 2766 2663 2505 2880 
Q 2244 3097 1772 3097 
Q 1472 3097 1187 3025 
Q 903 2953 641 2809 
L 641 3341 
Q 956 3463 1253 3523 
Q 1550 3584 1831 3584 
Q 2591 3584 2966 3190 
Q 3341 2797 3341 1997 
z
" transform="scale(0.015625)"/>
       <path id="DejaVuSans-6e" d="M 3513 2113 
L 3513 0 
L 2938 0 
L 2938 2094 
Q 2938 2591 2744 2837 
Q 2550 3084 2163 3084 
Q 1697 3084 1428 2787 
Q 1159 2491 1159 1978 
L 1159 0 
L 581 0 
L 581 3500 
L 1159 3500 
L 1159 2956 
Q 1366 3272 1645 3428 
Q 1925 3584 2291 3584 
Q 2894 3584 3203 3211 
Q 3513 2838 3513 2113 
z
" transform="scale(0.015625)"/>
       <path id="DejaVuSans-73" d="M 2834 3397 
L 2834 2853 
Q 2591 2978 2328 3040 
Q 2066 3103 1784 3103 
Q 1356 3103 1142 2972 
Q 928 2841 928 2578 
Q 928 2378 1081 2264 
Q 1234 2150 1697 2047 
L 1894 2003 
Q 2506 1872 2764 1633 
Q 3022 1394 3022 966 
Q 3022 478 2636 193 
Q 2250 -91 1575 -91 
Q 1294 -91 989 -36 
Q 684 19 347 128 
L 347 722 
Q 666 556 975 473 
Q 1284 391 1588 391 
Q 1994 391 2212 530 
Q 2431 669 2431 922 
Q 2431 1156 2273 1281 
Q 2116 1406 1581 1522 
L 1381 1569 
Q 847 1681 609 1914 
Q 372 2147 372 2553 
Q 372 3047 722 3315 
Q 1072 3584 1716 3584 
Q 2034 3584 2315 3537 
Q 2597 3491 2834 3397 
z
" transform="scale(0.015625)"/>
       <path id="DejaVuSans-6c" d="M 603 4863 
L 1178 4863 
L 1178 0 
L 603 0 
L 603 4863 
z
" transform="scale(0.015625)"/>
       <path id="DejaVuSans-74" d="M 1172 4494 
L 1172 3500 
L 2356 3500 
L 2356 3053 
L 1172 3053 
L 1172 1153 
Q 1172 725 1289 603 
Q 1406 481 1766 481 
L 2356 481 
L 2356 0 
L 1766 0 
Q 1100 0 847 248 
Q 594 497 594 1153 
L 594 3053 
L 172 3053 
L 172 3500 
L 594 3500 
L 594 4494 
L 1172 4494 
z
" transform="scale(0.015625)"/>
       <path id="DejaVuSans-69" d="M 603 3500 
L 1178 3500 
L 1178 0 
L 603 0 
L 603 3500 
z
M 603 4863 
L 1178 4863 
L 1178 4134 
L 603 4134 
L 603 4863 
z
" transform="scale(0.015625)"/>
       <path id="DejaVuSans-6f" d="M 1959 3097 
Q 1497 3097 1228 2736 
Q 959 2375 959 1747 
Q 959 1119 1226 758 
Q 1494 397 1959 397 
Q 2419 397 2687 759 
Q 2956 1122 2956 1747 
Q 2956 2369 2687 2733 
Q 2419 3097 1959 3097 
z
M 1959 3584 
Q 2709 3584 3137 3096 
Q 3566 2609 3566 1747 
Q 3566 888 3137 398 
Q 2709 -91 1959 -91 
Q 1206 -91 779 398 
Q 353 888 353 1747 
Q 353 2609 779 3096 
Q 1206 3584 1959 3584 
z
" transform="scale(0.015625)"/>
       <path id="DejaVuSans-20" transform="scale(0.015625)"/>
       <path id="DejaVuSans-50" d="M 1259 4147 
L 1259 2394 
L 2053 2394 
Q 2494 2394 2734 2622 
Q 2975 2850 2975 3272 
Q 2975 3691 2734 3919 
Q 2494 4147 2053 4147 
L 1259 4147 
z
M 628 4666 
L 2053 4666 
Q 2838 4666 3239 4311 
Q 3641 3956 3641 3272 
Q 3641 2581 3239 2228 
Q 2838 1875 2053 1875 
L 1259 1875 
L 1259 0 
L 628 0 
L 628 4666 
z
" transform="scale(0.015625)"/>
       <path id="DejaVuSans-5b" d="M 550 4863 
L 1875 4863 
L 1875 4416 
L 1125 4416 
L 1125 -397 
L 1875 -397 
L 1875 -844 
L 550 -844 
L 550 4863 
z
" transform="scale(0.015625)"/>
       <path id="DejaVuSans-6d" d="M 3328 2828 
Q 3544 3216 3844 3400 
Q 4144 3584 4550 3584 
Q 5097 3584 5394 3201 
Q 5691 2819 5691 2113 
L 5691 0 
L 5113 0 
L 5113 2094 
Q 5113 2597 4934 2840 
Q 4756 3084 4391 3084 
Q 3944 3084 3684 2787 
Q 3425 2491 3425 1978 
L 3425 0 
L 2847 0 
L 2847 2094 
Q 2847 2600 2669 2842 
Q 2491 3084 2119 3084 
Q 1678 3084 1418 2786 
Q 1159 2488 1159 1978 
L 1159 0 
L 581 0 
L 581 3500 
L 1159 3500 
L 1159 2956 
Q 1356 3278 1631 3431 
Q 1906 3584 2284 3584 
Q 2666 3584 2933 3390 
Q 3200 3197 3328 2828 
z
" transform="scale(0.015625)"/>
       <path id="DejaVuSans-5d" d="M 1947 4863 
L 1947 -844 
L 622 -844 
L 622 -397 
L 1369 -397 
L 1369 4416 
L 622 4416 
L 622 4863 
L 1947 4863 
z
" transform="scale(0.015625)"/>
      </defs>
      <use xlink:href="#DejaVuSans-54"/>
      <use xlink:href="#DejaVuSans-72" x="46.333984"/>
      <use xlink:href="#DejaVuSans-61" x="87.447266"/>
      <use xlink:href="#DejaVuSans-6e" x="148.726562"/>
      <use xlink:href="#DejaVuSans-73" x="212.105469"/>
      <use xlink:href="#DejaVuSans-6c" x="264.205078"/>
      <use xlink:href="#DejaVuSans-61" x="291.988281"/>
      <use xlink:href="#DejaVuSans-74" x="353.267578"/>
      <use xlink:href="#DejaVuSans-69" x="392.476562"/>
      <use xlink:href="#DejaVuSans-6f" x="420.259766"/>
      <use xlink:href="#DejaVuSans-6e" x="481.441406"/>
      <use xlink:href="#DejaVuSans-61" x="544.820312"/>
      <use xlink:href="#DejaVuSans-6c" x="606.099609"/>
      <use xlink:href="#DejaVuSans-20" x="633.882812"/>
      <use xlink:href="#DejaVuSans-50" x="665.669922"/>
      <use xlink:href="#DejaVuSans-6f" x="722.347656"/>
      <use xlink:href="#DejaVuSans-73" x="783.529297"/>
      <use xlink:href="#DejaVuSans-69" x="835.628906"/>
      <use xlink:href="#DejaVuSans-74" x="863.412109"/>
      <use xlink:href="#DejaVuSans-69" x="902.621094"/>
      <use xlink:href="#DejaVuSans-6f" x="930.404297"/>
      <use xlink:href="#DejaVuSans-6e" x="991.585938"/>
      <use xlink:href="#DejaVuSans-20" x="1054.964844"/>
      <use xlink:href="#DejaVuSans-5b" x="1086.751953"/>
      <use xlink:href="#DejaVuSans-6d" x="1125.765625"/>
      <use xlink:href="#DejaVuSans-6d" x="1223.177734"/>
      <use xlink:href="#DejaVuSans-5d" x="1320.589844"/>
     </g>
    </g>
   </g>
   <g id="matplotlib.axis_2">
    <g id="ytick_1">
     <g id="line2d_15">
      <path d="M 50.565625 274.816675 
L 450 274.816675 
" clip-path="url(#p08a410eadc)" style="fill: none; stroke: #b0b0b0; stroke-width: 0.8; stroke-linecap: square"/>
     </g>
     <g id="line2d_16">
      <defs>
       <path id="me90d8d8c25" d="M 0 0 
L -3.5 0 
" style="stroke: #000000; stroke-width: 0.8"/>
      </defs>
      <g>
       <use xlink:href="#me90d8d8c25" x="50.565625" y="274.816675" style="stroke: #000000; stroke-width: 0.8"/>
      </g>
     </g>
     <g id="text_9">
      <!-- 0 -->
      <g transform="translate(37.203125 278.615894)scale(0.1 -0.1)">
       <use xlink:href="#DejaVuSans-30"/>
      </g>
     </g>
    </g>
    <g id="ytick_2">
     <g id="line2d_17">
      <path d="M 50.565625 229.776009 
L 450 229.776009 
" clip-path="url(#p08a410eadc)" style="fill: none; stroke: #b0b0b0; stroke-width: 0.8; stroke-linecap: square"/>
     </g>
     <g id="line2d_18">
      <g>
       <use xlink:href="#me90d8d8c25" x="50.565625" y="229.776009" style="stroke: #000000; stroke-width: 0.8"/>
      </g>
     </g>
     <g id="text_10">
      <!-- 20 -->
      <g transform="translate(30.840625 233.575228)scale(0.1 -0.1)">
       <use xlink:href="#DejaVuSans-32"/>
       <use xlink:href="#DejaVuSans-30" x="63.623047"/>
      </g>
     </g>
    </g>
    <g id="ytick_3">
     <g id="line2d_19">
      <path d="M 50.565625 184.735343 
L 450 184.735343 
" clip-path="url(#p08a410eadc)" style="fill: none; stroke: #b0b0b0; stroke-width: 0.8; stroke-linecap: square"/>
     </g>
     <g id="line2d_20">
      <g>
       <use xlink:href="#me90d8d8c25" x="50.565625" y="184.735343" style="stroke: #000000; stroke-width: 0.8"/>
      </g>
     </g>
     <g id="text_11">
      <!-- 40 -->
      <g transform="translate(30.840625 188.534562)scale(0.1 -0.1)">
       <use xlink:href="#DejaVuSans-34"/>
       <use xlink:href="#DejaVuSans-30" x="63.623047"/>
      </g>
     </g>
    </g>
    <g id="ytick_4">
     <g id="line2d_21">
      <path d="M 50.565625 139.694676 
L 450 139.694676 
" clip-path="url(#p08a410eadc)" style="fill: none; stroke: #b0b0b0; stroke-width: 0.8; stroke-linecap: square"/>
     </g>
     <g id="line2d_22">
      <g>
       <use xlink:href="#me90d8d8c25" x="50.565625" y="139.694676" style="stroke: #000000; stroke-width: 0.8"/>
      </g>
     </g>
     <g id="text_12">
      <!-- 60 -->
      <g transform="translate(30.840625 143.493895)scale(0.1 -0.1)">
       <use xlink:href="#DejaVuSans-36"/>
       <use xlink:href="#DejaVuSans-30" x="63.623047"/>
      </g>
     </g>
    </g>
    <g id="ytick_5">
     <g id="line2d_23">
      <path d="M 50.565625 94.65401 
L 450 94.65401 
" clip-path="url(#p08a410eadc)" style="fill: none; stroke: #b0b0b0; stroke-width: 0.8; stroke-linecap: square"/>
     </g>
     <g id="line2d_24">
      <g>
       <use xlink:href="#me90d8d8c25" x="50.565625" y="94.65401" style="stroke: #000000; stroke-width: 0.8"/>
      </g>
     </g>
     <g id="text_13">
      <!-- 80 -->
      <g transform="translate(30.840625 98.453229)scale(0.1 -0.1)">
       <defs>
        <path id="DejaVuSans-38" d="M 2034 2216 
Q 1584 2216 1326 1975 
Q 1069 1734 1069 1313 
Q 1069 891 1326 650 
Q 1584 409 2034 409 
Q 2484 409 2743 651 
Q 3003 894 3003 1313 
Q 3003 1734 2745 1975 
Q 2488 2216 2034 2216 
z
M 1403 2484 
Q 997 2584 770 2862 
Q 544 3141 544 3541 
Q 544 4100 942 4425 
Q 1341 4750 2034 4750 
Q 2731 4750 3128 4425 
Q 3525 4100 3525 3541 
Q 3525 3141 3298 2862 
Q 3072 2584 2669 2484 
Q 3125 2378 3379 2068 
Q 3634 1759 3634 1313 
Q 3634 634 3220 271 
Q 2806 -91 2034 -91 
Q 1263 -91 848 271 
Q 434 634 434 1313 
Q 434 1759 690 2068 
Q 947 2378 1403 2484 
z
M 1172 3481 
Q 1172 3119 1398 2916 
Q 1625 2713 2034 2713 
Q 2441 2713 2670 2916 
Q 2900 3119 2900 3481 
Q 2900 3844 2670 4047 
Q 2441 4250 2034 4250 
Q 1625 4250 1398 4047 
Q 1172 3844 1172 3481 
z
" transform="scale(0.015625)"/>
       </defs>
       <use xlink:href="#DejaVuSans-38"/>
       <use xlink:href="#DejaVuSans-30" x="63.623047"/>
      </g>
     </g>
    </g>
    <g id="ytick_6">
     <g id="line2d_25">
      <path d="M 50.565625 49.613344 
L 450 49.613344 
" clip-path="url(#p08a410eadc)" style="fill: none; stroke: #b0b0b0; stroke-width: 0.8; stroke-linecap: square"/>
     </g>
     <g id="line2d_26">
      <g>
       <use xlink:href="#me90d8d8c25" x="50.565625" y="49.613344" style="stroke: #000000; stroke-width: 0.8"/>
      </g>
     </g>
     <g id="text_14">
      <!-- 100 -->
      <g transform="translate(24.478125 53.412563)scale(0.1 -0.1)">
       <use xlink:href="#DejaVuSans-31"/>
       <use xlink:href="#DejaVuSans-30" x="63.623047"/>
       <use xlink:href="#DejaVuSans-30" x="127.246094"/>
      </g>
     </g>
    </g>
    <g id="text_15">
     <!-- Wall Distance [mm] -->
     <g transform="translate(18.398438 214.330937)rotate(-90)scale(0.1 -0.1)">
      <defs>
       <path id="DejaVuSans-57" d="M 213 4666 
L 850 4666 
L 1831 722 
L 2809 4666 
L 3519 4666 
L 4500 722 
L 5478 4666 
L 6119 4666 
L 4947 0 
L 4153 0 
L 3169 4050 
L 2175 0 
L 1381 0 
L 213 4666 
z
" transform="scale(0.015625)"/>
       <path id="DejaVuSans-44" d="M 1259 4147 
L 1259 519 
L 2022 519 
Q 2988 519 3436 956 
Q 3884 1394 3884 2338 
Q 3884 3275 3436 3711 
Q 2988 4147 2022 4147 
L 1259 4147 
z
M 628 4666 
L 1925 4666 
Q 3281 4666 3915 4102 
Q 4550 3538 4550 2338 
Q 4550 1131 3912 565 
Q 3275 0 1925 0 
L 628 0 
L 628 4666 
z
" transform="scale(0.015625)"/>
       <path id="DejaVuSans-63" d="M 3122 3366 
L 3122 2828 
Q 2878 2963 2633 3030 
Q 2388 3097 2138 3097 
Q 1578 3097 1268 2742 
Q 959 2388 959 1747 
Q 959 1106 1268 751 
Q 1578 397 2138 397 
Q 2388 397 2633 464 
Q 2878 531 3122 666 
L 3122 134 
Q 2881 22 2623 -34 
Q 2366 -91 2075 -91 
Q 1284 -91 818 406 
Q 353 903 353 1747 
Q 353 2603 823 3093 
Q 1294 3584 2113 3584 
Q 2378 3584 2631 3529 
Q 2884 3475 3122 3366 
z
" transform="scale(0.015625)"/>
       <path id="DejaVuSans-65" d="M 3597 1894 
L 3597 1613 
L 953 1613 
Q 991 1019 1311 708 
Q 1631 397 2203 397 
Q 2534 397 2845 478 
Q 3156 559 3463 722 
L 3463 178 
Q 3153 47 2828 -22 
Q 2503 -91 2169 -91 
Q 1331 -91 842 396 
Q 353 884 353 1716 
Q 353 2575 817 3079 
Q 1281 3584 2069 3584 
Q 2775 3584 3186 3129 
Q 3597 2675 3597 1894 
z
M 3022 2063 
Q 3016 2534 2758 2815 
Q 2500 3097 2075 3097 
Q 1594 3097 1305 2825 
Q 1016 2553 972 2059 
L 3022 2063 
z
" transform="scale(0.015625)"/>
      </defs>
      <use xlink:href="#DejaVuSans-57"/>
      <use xlink:href="#DejaVuSans-61" x="92.501953"/>
      <use xlink:href="#DejaVuSans-6c" x="153.78125"/>
      <use xlink:href="#DejaVuSans-6c" x="181.564453"/>
      <use xlink:href="#DejaVuSans-20" x="209.347656"/>
      <use xlink:href="#DejaVuSans-44" x="241.134766"/>
      <use xlink:href="#DejaVuSans-69" x="318.136719"/>
      <use xlink:href="#DejaVuSans-73" x="345.919922"/>
      <use xlink:href="#DejaVuSans-74" x="398.019531"/>
      <use xlink:href="#DejaVuSans-61" x="437.228516"/>
      <use xlink:href="#DejaVuSans-6e" x="498.507812"/>
      <use xlink:href="#DejaVuSans-63" x="561.886719"/>
      <use xlink:href="#DejaVuSans-65" x="616.867188"/>
      <use xlink:href="#DejaVuSans-20" x="678.390625"/>
      <use xlink:href="#DejaVuSans-5b" x="710.177734"/>
      <use xlink:href="#DejaVuSans-6d" x="749.191406"/>
      <use xlink:href="#DejaVuSans-6d" x="846.603516"/>
      <use xlink:href="#DejaVuSans-5d" x="944.015625"/>
     </g>
    </g>
   </g>
   <g id="line2d_27">
    <path d="M 68.721733 81.09677 
L 83.240855 81.09677 
L 83.580922 113.030602 
L 83.920989 163.431108 
L 84.261056 168.160378 
L 84.606886 170.930379 
L 85.292784 187.550384 
L 85.984445 201.490471 
L 86.330276 202.413804 
L 87.021937 210.88145 
L 87.367768 217.68259 
L 87.713598 218.223078 
L 88.40526 226.510561 
L 88.75109 226.510561 
L 89.096921 230.339017 
L 89.442751 231.352432 
L 89.788582 232.005522 
L 90.134413 235.203409 
L 90.480243 235.496174 
L 90.826074 236.194304 
L 91.171905 237.838288 
L 91.517735 240.360566 
L 91.863566 240.833493 
L 92.209396 240.360566 
L 92.555227 240.720891 
L 92.901058 240.473167 
L 93.592719 239.257069 
L 94.28438 235.361052 
L 94.630211 233.717067 
L 94.976041 229.82105 
L 95.321872 218.988769 
L 95.667703 218.988769 
L 96.013533 209.507709 
L 96.359364 193.585834 
L 96.705195 170.930379 
L 97.051025 81.09677 
L 136.504536 81.09677 
L 136.850367 161.674522 
L 137.196197 161.674522 
L 137.542028 179.938512 
L 137.887858 190.387946 
L 138.233689 194.193883 
L 138.92535 208.809579 
L 139.271181 212.187629 
L 139.617012 218.223078 
L 139.962842 219.979664 
L 140.308673 226.713244 
L 140.654504 227.659098 
L 141.000334 232.320807 
L 141.346165 234.189994 
L 141.691995 237.027556 
L 142.037826 237.703166 
L 142.383657 242.567558 
L 142.729487 244.639429 
L 143.421149 244.72951 
L 143.766979 246.643739 
L 144.45864 246.643739 
L 144.804471 245.765446 
L 145.150302 244.00886 
L 145.496132 243.783656 
L 145.841963 238.491378 
L 146.130155 238.491378 
L 146.475986 234.775523 
L 147.167647 222.546982 
L 147.859308 201.963398 
L 148.205139 183.564285 
L 148.55097 150.77468 
L 148.8968 81.09677 
L 187.975661 81.09677 
L 188.321492 161.674522 
L 188.667322 165.097612 
L 189.358984 183.564285 
L 190.050645 201.963398 
L 190.396475 205.386488 
L 191.088137 216.624134 
L 191.433967 218.988769 
L 191.779798 222.546982 
L 192.125629 228.762594 
L 192.471459 228.762594 
L 192.81729 231.84788 
L 193.16312 232.478449 
L 193.508951 235.496174 
L 194.546443 239.504793 
L 194.892274 240.247964 
L 195.238104 240.360566 
L 195.583935 240.112842 
L 195.929766 238.6265 
L 196.621427 237.162678 
L 197.658919 228.222106 
L 198.35058 216.624134 
L 198.696411 207.323237 
L 199.042241 166.674036 
L 199.388072 166.674036 
L 199.733902 101.252468 
L 200.079733 81.09677 
L 239.504425 81.09677 
L 240.196086 161.674522 
L 240.541916 187.550384 
L 240.887747 187.550384 
L 241.579408 201.490471 
L 241.925239 204.553236 
L 242.6169 215.790882 
L 244.000223 230.001212 
L 244.691884 233.581945 
L 245.037715 236.194304 
L 245.729376 239.009346 
L 246.075207 241.779347 
L 246.421037 242.567558 
L 246.766868 242.567558 
L 247.112698 243.468372 
L 247.458529 242.792762 
L 247.80436 242.792762 
L 248.15019 241.891948 
L 248.496021 240.608289 
L 248.841852 239.752517 
L 249.187682 236.892434 
L 249.533513 228.222106 
L 249.879343 228.222106 
L 250.225174 223.425275 
L 250.916835 207.706083 
L 251.262666 193.585834 
L 251.608497 168.160378 
L 251.954327 81.09677 
L 291.033188 81.09677 
L 291.379019 113.030602 
L 291.724849 161.674522 
L 292.07068 178.947617 
L 292.416511 189.014206 
L 292.762341 194.779411 
L 293.108172 202.413804 
L 293.454003 206.1747 
L 294.145664 217.68259 
L 294.491494 218.741046 
L 294.837325 224.078365 
L 295.528986 229.640887 
L 295.874817 234.775523 
L 296.220648 234.775523 
L 297.258139 240.473167 
L 297.60397 240.360566 
L 298.295631 242.454957 
L 298.641462 242.229753 
L 298.987293 243.783656 
L 299.678954 241.193818 
L 300.716446 234.032352 
L 301.062276 230.856985 
L 301.408107 225.1143 
L 301.753938 215.790882 
L 302.099768 211.219255 
L 302.445599 201.963398 
L 302.791429 157.778504 
L 303.13726 157.778504 
L 303.483091 81.09677 
L 343.599444 81.09677 
L 343.945274 150.77468 
L 344.291105 175.77225 
L 344.636935 175.77225 
L 344.982766 192.347215 
L 346.366089 218.223078 
L 347.05775 225.1143 
L 347.40358 227.276252 
L 348.095242 233.581945 
L 348.441072 234.617881 
L 350.170225 242.567558 
L 350.516056 242.567558 
L 350.861887 242.68016 
L 351.207717 240.360566 
L 351.553548 240.360566 
L 351.899379 240.00024 
L 352.59104 233.87471 
L 352.93687 229.82105 
L 353.282701 211.872344 
L 353.628532 211.872344 
L 354.320193 189.712336 
L 354.666024 150.77468 
L 355.011854 81.09677 
L 393.399054 81.09677 
L 393.744885 157.778504 
L 394.090715 157.778504 
L 394.436546 81.09677 
L 394.782376 81.09677 
L 395.128207 133.16378 
L 395.474038 161.674522 
L 395.819868 176.875747 
L 396.165699 206.940391 
L 396.51153 211.534539 
L 396.85736 218.223078 
L 397.894852 227.478935 
L 398.240683 222.546982 
L 398.932344 231.014627 
L 399.278175 233.87471 
L 399.624005 245.044795 
L 399.969836 245.044795 
L 400.661497 250.13439 
L 401.353158 254.769075 
L 401.698989 255.710425 
L 402.04482 254.84114 
L 402.39065 256.208124 
L 403.082312 260.505004 
L 403.428142 261.457614 
L 403.773973 265.954924 
L 405.157295 268.956885 
L 405.503126 267.470543 
L 405.848957 267.085445 
L 406.194787 267.373705 
L 406.540618 268.130388 
L 406.886448 268.130388 
L 407.232279 267.801592 
L 407.57811 271.008487 
L 408.615602 270.965698 
L 408.961432 271.051276 
L 409.307263 268.267762 
L 409.653093 268.454681 
L 409.998924 268.222722 
L 410.344755 268.637096 
L 410.690585 268.77447 
L 411.036416 267.848884 
L 411.382247 271.551227 
L 412.419738 271.798951 
L 412.765569 271.594016 
L 413.1114 268.682137 
L 413.45723 268.130388 
L 413.803061 268.130388 
L 414.148892 268.77447 
L 414.494722 268.819511 
L 414.840553 268.267762 
L 415.186383 272.287642 
L 415.532214 271.882276 
L 415.878045 272.287642 
L 416.223875 272.368715 
L 416.569706 272.287642 
L 416.915537 268.362348 
L 417.261367 268.130388 
L 417.607198 268.77447 
L 417.953028 268.175429 
L 418.298859 268.454681 
L 418.587051 272.568921 
L 418.932882 272.568921 
L 419.278713 272.409252 
L 419.624543 272.409252 
L 419.912735 272.247105 
L 420.258566 267.801592 
L 420.546758 267.801592 
L 420.892589 268.362348 
L 421.180781 268.454681 
L 421.526612 268.222722 
L 421.814804 273.044776 
L 422.391188 272.965954 
L 422.737019 272.648868 
L 423.025211 273.123371 
L 423.313403 268.222722 
L 423.601595 268.035803 
L 423.889788 268.454681 
L 424.120341 268.454681 
L 424.408534 268.267762 
L 424.696726 273.628728 
L 424.927279 273.628728 
L 425.215472 274.087467 
L 425.446025 274.087467 
L 425.734218 273.973514 
L 425.964771 268.267762 
L 426.195325 268.267762 
L 426.425879 268.407389 
L 426.656433 269.359999 
L 426.886986 268.315055 
L 427.11754 274.351856 
L 427.290455 274.688264 
L 427.693925 274.836529 
L 427.924478 274.688264 
L 428.097394 268.819511 
L 428.270309 268.175429 
L 428.443224 269.137047 
L 428.61614 269.137047 
L 428.789055 268.682137 
L 428.96197 275.45828 
L 429.134885 275.45828 
L 429.423078 275.924901 
L 429.595993 275.853737 
L 429.71127 269.001925 
L 429.884185 269.001925 
L 429.999462 269.359999 
L 430.230016 269.182088 
L 430.345293 276.48926 
L 430.575846 275.889319 
L 430.748762 276.836524 
L 430.921677 269.314958 
L 431.094592 269.71582 
L 431.152231 268.77447 
L 431.267508 277.077717 
L 431.325146 276.732705 
L 431.382785 277.145278 
L 431.440423 277.04281 
L 431.498061 268.909592 
L 431.5557 269.670779 
L 431.613338 269.846438 
L 431.613338 268.909592 
L 431.670977 277.519115 
L 431.670977 277.519115 
L 431.728615 277.111497 
L 431.728615 277.654237 
L 431.728615 277.350213 
L 431.786254 268.592055 
L 431.786254 269.001925 
L 431.843892 278.118156 
L 431.843892 268.130388 
L 431.843892 277.485335 
" clip-path="url(#p08a410eadc)" style="fill: none; stroke: #1f77b4; stroke-width: 1.5; stroke-linecap: square"/>
   </g>
   <g id="line2d_28">
    <path d="M 68.721733 39.479194 
L 389.594917 39.479194 
L 389.940748 71.367986 
L 390.286578 39.479194 
L 392.015731 39.479194 
L 392.361562 120.011905 
L 392.707393 123.434996 
L 393.053223 123.434996 
L 393.399054 125.011419 
L 393.744885 120.011905 
L 394.090715 39.479194 
L 395.819868 39.479194 
L 396.165699 145.144597 
L 396.51153 142.757442 
L 396.85736 148.74785 
L 397.203191 151.337689 
L 397.549021 148.74785 
L 397.894852 39.479194 
L 399.278175 39.479194 
L 399.624005 159.850375 
L 399.969836 159.850375 
L 400.315666 158.904521 
L 400.661497 158.431594 
L 401.007328 160.300781 
L 401.353158 162.91314 
L 401.698989 39.479194 
L 403.428142 39.479194 
L 403.773973 168.881028 
L 404.119803 168.543223 
L 404.811465 172.979729 
L 405.157295 172.686965 
L 405.503126 39.479194 
L 407.232279 39.479194 
L 407.57811 179.983552 
L 407.92394 181.109569 
L 408.269771 182.843635 
L 408.615602 179.510625 
L 408.961432 182.415748 
L 409.307263 39.479194 
L 411.036416 39.479194 
L 411.382247 187.099978 
L 411.728077 189.689816 
L 412.073908 189.689816 
L 412.419738 190.680711 
L 412.765569 190.838353 
L 413.1114 39.479194 
L 413.45723 71.367986 
L 413.803061 71.367986 
L 414.494722 113.976456 
L 414.840553 111.656862 
L 415.186383 194.959574 
L 415.878045 198.472746 
L 416.223875 198.225022 
L 416.569706 188.856564 
L 416.915537 141.045896 
L 417.261367 142.757442 
L 417.607198 145.910288 
L 417.953028 150.707119 
L 418.298859 151.945738 
L 418.587051 202.346243 
L 418.932882 204.418114 
L 419.278713 203.900146 
L 419.624543 203.900146 
L 419.912735 176.042494 
L 420.258566 164.91745 
L 420.546758 164.91745 
L 420.892589 166.786637 
L 421.180781 167.507288 
L 421.526612 169.218833 
L 421.814804 208.133969 
L 422.102996 208.314132 
L 422.737019 208.404213 
L 423.025211 183.451684 
L 423.313403 177.8216 
L 423.601595 177.326153 
L 424.120341 181.559976 
L 424.408534 181.785179 
L 424.696726 211.376897 
L 424.927279 213.764052 
L 425.215472 211.061612 
L 425.446025 213.178524 
L 425.734218 190.680711 
L 425.964771 189.532174 
L 426.195325 189.532174 
L 426.425879 190.838353 
L 426.656433 191.31128 
L 426.886986 192.369736 
L 427.11754 216.466492 
L 427.290455 217.367305 
L 427.521009 216.511533 
L 427.693925 217.299744 
L 427.924478 198.945673 
L 428.097394 198.0899 
L 428.443224 199.305998 
L 428.61614 200.477056 
L 428.789055 200.814861 
L 428.96197 220.565193 
L 429.134885 220.835437 
L 429.423078 221.466006 
L 429.595993 204.710878 
L 429.71127 205.093724 
L 429.884185 205.093724 
L 430.114739 206.895351 
L 430.230016 207.435839 
L 430.345293 223.988283 
L 430.575846 224.348609 
L 430.633485 225.677308 
L 430.748762 210.971531 
L 430.864039 211.061612 
L 430.921677 211.917385 
L 430.979315 211.6021 
L 431.152231 212.525434 
L 431.267508 227.614057 
L 431.325146 227.659098 
L 431.382785 228.244626 
L 431.440423 215.790882 
L 431.498061 215.858443 
L 431.613338 216.98446 
L 431.613338 216.849338 
L 431.728615 230.834465 
L 431.728615 219.619339 
L 431.786254 219.754461 
L 431.843892 237.387882 
L 431.843892 233.694547 
" clip-path="url(#p08a410eadc)" style="fill: none; stroke: #ff7f0e; stroke-width: 1.5; stroke-linecap: square"/>
   </g>
   <g id="line2d_29">
    <path d="M 68.721733 38.578381 
L 399.969836 38.578381 
L 400.315666 58.666518 
L 400.661497 38.578381 
L 401.007328 38.578381 
L 401.353158 102.378484 
L 401.698989 38.578381 
L 403.428142 38.578381 
L 403.773973 128.344429 
L 404.465634 137.375082 
L 405.157295 141.000856 
L 405.503126 38.578381 
L 407.232279 38.578381 
L 407.57811 159.377448 
L 407.92394 160.706147 
L 408.269771 163.994116 
L 408.615602 164.376962 
L 408.961432 161.989806 
L 409.307263 38.578381 
L 411.036416 38.578381 
L 411.382247 173.204932 
L 411.728077 174.848917 
L 412.419738 176.673064 
L 412.765569 178.362088 
L 413.1114 38.578381 
L 414.148892 38.578381 
L 414.494722 58.666518 
L 414.840553 102.378484 
L 415.186383 185.095668 
L 415.878045 185.816319 
L 416.223875 188.271035 
L 416.569706 188.766482 
L 416.915537 134.312317 
L 417.607198 134.312317 
L 418.298859 149.783786 
L 418.587051 193.765996 
L 418.932882 193.630874 
L 419.278713 196.175672 
L 419.624543 196.175672 
L 419.912735 197.549412 
L 420.258566 163.61127 
L 420.546758 163.61127 
L 421.180781 166.94428 
L 421.526612 166.94428 
L 421.814804 201.535511 
L 422.102996 202.976813 
L 422.391188 202.976813 
L 423.025211 204.665838 
L 423.313403 177.889161 
L 423.601595 178.835015 
L 423.889788 180.186235 
L 424.408534 183.744448 
L 424.696726 207.998847 
L 424.927279 209.732913 
L 425.215472 209.980636 
L 425.734218 211.669661 
L 425.964771 190.387946 
L 426.195325 190.387946 
L 426.886986 194.058761 
L 427.11754 214.529744 
L 427.290455 215.61072 
L 427.521009 216.30885 
L 427.693925 216.376411 
L 427.924478 217.637549 
L 428.097394 199.44112 
L 428.270309 200.229332 
L 428.443224 199.778925 
L 428.789055 202.976813 
L 428.96197 220.812916 
L 429.134885 221.03812 
L 429.595993 222.299258 
L 429.71127 207.661042 
L 429.884185 207.661042 
L 430.230016 210.453563 
L 430.345293 225.046739 
L 430.575846 225.654788 
L 430.633485 226.375439 
L 430.748762 225.654788 
L 430.864039 213.764052 
L 430.921677 213.989256 
L 431.152231 216.128687 
L 431.325146 229.483245 
L 431.382785 230.316497 
L 431.440423 229.348123 
L 431.498061 218.876168 
L 431.5557 219.236493 
L 431.613338 219.461696 
L 431.670977 231.712758 
L 431.728615 232.658612 
L 431.728615 232.365847 
L 431.786254 222.366819 
L 431.786254 223.74056 
L 431.843892 236.892434 
L 431.843892 223.582917 
L 431.843892 233.942271 
" clip-path="url(#p08a410eadc)" style="fill: none; stroke: #2ca02c; stroke-width: 1.5; stroke-linecap: square"/>
   </g>
   <g id="line2d_30">
    <path d="M 68.721733 86.389048 
L 88.059429 86.389048 
L 88.40526 106.522226 
L 88.75109 106.522226 
L 89.096921 163.070782 
L 89.442751 171.943794 
L 89.788582 195.004615 
L 91.171905 219.912103 
L 91.517735 223.76308 
L 91.863566 229.978692 
L 92.209396 232.951376 
L 92.901058 240.923574 
L 93.93855 251.260407 
L 95.321872 258.072808 
L 95.667703 258.072808 
L 96.013533 258.92858 
L 96.705195 258.072808 
L 97.742686 252.521546 
L 98.434348 245.540242 
L 99.126009 230.811944 
L 99.47184 219.619339 
L 99.81767 201.220227 
L 100.163501 153.296958 
L 100.509331 86.389048 
L 141.000334 86.389048 
L 141.691995 177.506316 
L 142.037826 189.712336 
L 142.383657 207.683562 
L 142.729487 217.142102 
L 143.075318 217.142102 
L 143.421149 220.790396 
L 143.766979 232.951376 
L 144.11281 232.951376 
L 144.804471 241.486582 
L 145.841963 253.183643 
L 146.130155 253.183643 
L 146.475986 255.51675 
L 147.167647 258.151629 
L 147.513478 258.620052 
L 147.859308 258.151629 
L 148.205139 258.543483 
L 148.55097 257.354409 
L 149.242631 253.555229 
L 149.934292 244.909673 
L 150.280123 237.613085 
L 150.625953 215.498118 
L 150.971784 215.498118 
L 151.317615 195.680225 
L 151.663445 86.389048 
L 192.471459 86.389048 
L 192.81729 171.943794 
L 193.508951 198.270063 
L 194.200612 213.719012 
L 194.546443 217.479907 
L 195.238104 230.811944 
L 195.583935 233.311701 
L 195.929766 239.166988 
L 197.313088 253.089058 
L 197.658919 255.428921 
L 198.35058 258.309271 
L 199.042241 259.610946 
L 199.388072 259.610946 
L 199.733902 259.309174 
L 200.425564 257.273336 
L 201.117225 251.260407 
L 201.808886 239.617395 
L 202.154717 230.811944 
L 202.500547 218.403241 
L 202.846378 197.639494 
L 203.192209 118.32288 
L 203.538039 86.389048 
L 244.346053 86.389048 
L 244.691884 150.234192 
L 245.037715 177.506316 
L 245.383545 192.842663 
L 245.729376 202.301203 
L 246.075207 216.489012 
L 246.421037 222.974868 
L 246.766868 222.974868 
L 247.112698 227.614057 
L 247.458529 238.086012 
L 247.80436 238.086012 
L 248.496021 245.652844 
L 248.841852 249.931707 
L 249.187682 252.330123 
L 249.533513 256.196864 
L 249.879343 256.196864 
L 250.225174 258.072808 
L 250.571005 258.92858 
L 250.916835 259.158288 
L 251.262666 259.081719 
L 251.954327 257.354409 
L 252.645988 252.424708 
L 253.33765 241.779347 
L 253.68348 234.933165 
L 254.029311 224.281048 
L 254.375142 207.233156 
L 254.720972 171.943794 
L 255.066803 86.389048 
L 295.528986 86.389048 
L 295.874817 163.070782 
L 296.220648 163.070782 
L 296.566478 182.168025 
L 296.912309 194.306484 
L 297.258139 199.486161 
L 298.295631 222.186657 
L 299.333123 236.306906 
L 300.024784 245.40512 
L 300.370615 247.522032 
L 301.408107 256.282441 
L 302.099768 259.309174 
L 302.445599 260.712191 
L 302.791429 261.284207 
L 303.13726 261.284207 
L 303.483091 260.568061 
L 303.828921 259.309174 
L 304.520583 255.169937 
L 304.866413 251.553171 
L 305.558074 239.32463 
L 305.903905 230.811944 
L 306.249736 214.439662 
L 306.595566 185.23079 
L 306.941397 86.389048 
L 347.05775 86.389048 
L 347.40358 142.937604 
L 348.441072 198.878112 
L 348.786903 197.639494 
L 350.170225 231.600156 
L 350.516056 231.600156 
L 350.861887 237.140158 
L 351.207717 245.652844 
L 351.553548 245.652844 
L 352.245209 252.616131 
L 353.282701 258.543483 
L 353.628532 258.543483 
L 354.320193 260.568061 
L 354.666024 260.495995 
L 355.011854 260.928386 
L 355.703516 258.620052 
L 356.395177 252.521546 
L 356.741007 247.859837 
L 357.086838 241.486582 
L 357.432669 232.185685 
L 357.778499 213.719012 
L 358.12433 86.389048 
L 397.549021 86.389048 
L 397.894852 106.522226 
L 398.240683 86.389048 
L 399.278175 86.389048 
L 399.624005 198.878112 
L 399.969836 198.878112 
L 400.315666 210.656246 
L 400.661497 213.719012 
L 401.353158 225.271942 
L 401.698989 229.776009 
L 402.04482 225.271942 
L 402.736481 236.306906 
L 403.428142 244.549348 
L 403.773973 252.048619 
L 405.157295 265.975193 
L 405.503126 268.837527 
L 405.848957 268.891576 
L 406.194787 271.889032 
L 406.540618 276.255725 
L 406.886448 276.255725 
L 407.232279 278.25553 
L 407.57811 281.034539 
L 408.269771 283.408182 
L 408.615602 283.995963 
L 408.961432 284.286475 
L 409.307263 283.572581 
L 409.998924 283.342873 
L 410.344755 283.507272 
L 411.036416 283.572581 
L 411.382247 285.263858 
L 411.728077 285.076939 
L 412.419738 285.448525 
L 412.765569 285.448525 
L 413.1114 283.441963 
L 413.803061 283.374402 
L 414.148892 283.63789 
L 414.494722 283.074881 
L 414.840553 283.108662 
L 415.186383 285.293134 
L 415.878045 285.633191 
L 416.569706 285.937216 
L 416.915537 283.507272 
L 417.261367 283.241532 
L 417.953028 283.473491 
L 418.298859 283.572581 
L 418.587051 285.844882 
L 419.278713 287.151062 
L 419.624543 287.151062 
L 419.912735 287.353745 
L 420.258566 284.254947 
L 420.546758 284.254947 
L 420.892589 284.44637 
L 421.526612 284.318004 
L 421.814804 286.977655 
L 422.102996 287.497875 
L 422.391188 287.497875 
L 422.737019 287.754607 
L 423.025211 287.441574 
L 423.313403 284.44637 
L 423.601595 284.383313 
L 423.889788 284.092801 
L 424.120341 284.44637 
L 424.408534 284.286475 
L 424.696726 287.353745 
L 424.927279 288.094664 
L 425.446025 288.290591 
L 425.734218 287.896485 
L 425.964771 284.414841 
L 426.425879 284.477898 
L 426.656433 284.221166 
L 426.886986 284.286475 
L 427.11754 288.009086 
L 427.290455 288.761266 
L 427.521009 288.513542 
L 427.693925 288.78829 
L 427.924478 288.513542 
L 428.097394 284.383313 
L 428.270309 284.221166 
L 428.61614 284.44637 
L 428.789055 283.964435 
L 428.96197 288.40094 
L 429.134885 288.650916 
L 429.307801 289.117087 
L 429.423078 289.060786 
L 429.595993 289.144111 
L 429.71127 284.254947 
L 430.114739 284.15811 
L 430.230016 284.029744 
L 430.46057 289.006737 
L 430.748762 289.493176 
L 430.979315 283.930654 
L 431.094592 283.995963 
L 431.152231 284.15811 
L 431.325146 289.626046 
L 431.382785 289.57425 
L 431.440423 289.758916 
L 431.498061 284.286475 
L 431.5557 284.383313 
L 431.613338 284.092801 
L 431.613338 284.477898 
L 431.728615 290.544876 
L 431.786254 284.732378 
L 431.786254 285.013882 
L 431.843892 291.783494 
L 431.843892 284.887768 
L 431.843892 290.596673 
" clip-path="url(#p08a410eadc)" style="fill: none; stroke: #d62728; stroke-width: 1.5; stroke-linecap: square"/>
   </g>
   <g id="patch_3">
    <path d="M 50.565625 304.44375 
L 50.565625 25.918125 
" style="fill: none; stroke: #000000; stroke-width: 0.8; stroke-linejoin: miter; stroke-linecap: square"/>
   </g>
   <g id="patch_4">
    <path d="M 450 304.44375 
L 450 25.918125 
" style="fill: none; stroke: #000000; stroke-width: 0.8; stroke-linejoin: miter; stroke-linecap: square"/>
   </g>
   <g id="patch_5">
    <path d="M 50.565625 304.44375 
L 450 304.44375 
" style="fill: none; stroke: #000000; stroke-width: 0.8; stroke-linejoin: miter; stroke-linecap: square"/>
   </g>
   <g id="patch_6">
    <path d="M 50.565625 25.918125 
L 450 25.918125 
" style="fill: none; stroke: #000000; stroke-width: 0.8; stroke-linejoin: miter; stroke-linecap: square"/>
   </g>
   <g id="text_16">
    <!-- Wall Distance [mm] -->
    <g transform="translate(191.302812 19.918125)scale(0.12 -0.12)">
     <use xlink:href="#DejaVuSans-57"/>
     <use xlink:href="#DejaVuSans-61" x="92.501953"/>
     <use xlink:href="#DejaVuSans-6c" x="153.78125"/>
     <use xlink:href="#DejaVuSans-6c" x="181.564453"/>
     <use xlink:href="#DejaVuSans-20" x="209.347656"/>
     <use xlink:href="#DejaVuSans-44" x="241.134766"/>
     <use xlink:href="#DejaVuSans-69" x="318.136719"/>
     <use xlink:href="#DejaVuSans-73" x="345.919922"/>
     <use xlink:href="#DejaVuSans-74" x="398.019531"/>
     <use xlink:href="#DejaVuSans-61" x="437.228516"/>
     <use xlink:href="#DejaVuSans-6e" x="498.507812"/>
     <use xlink:href="#DejaVuSans-63" x="561.886719"/>
     <use xlink:href="#DejaVuSans-65" x="616.867188"/>
     <use xlink:href="#DejaVuSans-20" x="678.390625"/>
     <use xlink:href="#DejaVuSans-5b" x="710.177734"/>
     <use xlink:href="#DejaVuSans-6d" x="749.191406"/>
     <use xlink:href="#DejaVuSans-6d" x="846.603516"/>
     <use xlink:href="#DejaVuSans-5d" x="944.015625"/>
    </g>
   </g>
   <g id="legend_1">
    <g id="patch_7">
     <path d="M 206.882812 196.037187 
L 293.682812 196.037187 
Q 295.682812 196.037187 295.682812 194.037187 
L 295.682812 136.324687 
Q 295.682812 134.324687 293.682812 134.324687 
L 206.882812 134.324687 
Q 204.882812 134.324687 204.882812 136.324687 
L 204.882812 194.037187 
Q 204.882812 196.037187 206.882812 196.037187 
z
" style="fill: #ffffff; opacity: 0.8; stroke: #cccccc; stroke-linejoin: miter"/>
    </g>
    <g id="line2d_31">
     <path d="M 208.882812 142.423125 
L 218.882812 142.423125 
L 228.882812 142.423125 
" style="fill: none; stroke: #1f77b4; stroke-width: 1.5; stroke-linecap: square"/>
    </g>
    <g id="text_17">
     <!-- Left Side -->
     <g transform="translate(236.882812 145.923125)scale(0.1 -0.1)">
      <defs>
       <path id="DejaVuSans-4c" d="M 628 4666 
L 1259 4666 
L 1259 531 
L 3531 531 
L 3531 0 
L 628 0 
L 628 4666 
z
" transform="scale(0.015625)"/>
       <path id="DejaVuSans-66" d="M 2375 4863 
L 2375 4384 
L 1825 4384 
Q 1516 4384 1395 4259 
Q 1275 4134 1275 3809 
L 1275 3500 
L 2222 3500 
L 2222 3053 
L 1275 3053 
L 1275 0 
L 697 0 
L 697 3053 
L 147 3053 
L 147 3500 
L 697 3500 
L 697 3744 
Q 697 4328 969 4595 
Q 1241 4863 1831 4863 
L 2375 4863 
z
" transform="scale(0.015625)"/>
       <path id="DejaVuSans-53" d="M 3425 4513 
L 3425 3897 
Q 3066 4069 2747 4153 
Q 2428 4238 2131 4238 
Q 1616 4238 1336 4038 
Q 1056 3838 1056 3469 
Q 1056 3159 1242 3001 
Q 1428 2844 1947 2747 
L 2328 2669 
Q 3034 2534 3370 2195 
Q 3706 1856 3706 1288 
Q 3706 609 3251 259 
Q 2797 -91 1919 -91 
Q 1588 -91 1214 -16 
Q 841 59 441 206 
L 441 856 
Q 825 641 1194 531 
Q 1563 422 1919 422 
Q 2459 422 2753 634 
Q 3047 847 3047 1241 
Q 3047 1584 2836 1778 
Q 2625 1972 2144 2069 
L 1759 2144 
Q 1053 2284 737 2584 
Q 422 2884 422 3419 
Q 422 4038 858 4394 
Q 1294 4750 2059 4750 
Q 2388 4750 2728 4690 
Q 3069 4631 3425 4513 
z
" transform="scale(0.015625)"/>
       <path id="DejaVuSans-64" d="M 2906 2969 
L 2906 4863 
L 3481 4863 
L 3481 0 
L 2906 0 
L 2906 525 
Q 2725 213 2448 61 
Q 2172 -91 1784 -91 
Q 1150 -91 751 415 
Q 353 922 353 1747 
Q 353 2572 751 3078 
Q 1150 3584 1784 3584 
Q 2172 3584 2448 3432 
Q 2725 3281 2906 2969 
z
M 947 1747 
Q 947 1113 1208 752 
Q 1469 391 1925 391 
Q 2381 391 2643 752 
Q 2906 1113 2906 1747 
Q 2906 2381 2643 2742 
Q 2381 3103 1925 3103 
Q 1469 3103 1208 2742 
Q 947 2381 947 1747 
z
" transform="scale(0.015625)"/>
      </defs>
      <use xlink:href="#DejaVuSans-4c"/>
      <use xlink:href="#DejaVuSans-65" x="53.962891"/>
      <use xlink:href="#DejaVuSans-66" x="115.486328"/>
      <use xlink:href="#DejaVuSans-74" x="148.941406"/>
      <use xlink:href="#DejaVuSans-20" x="188.150391"/>
      <use xlink:href="#DejaVuSans-53" x="219.9375"/>
      <use xlink:href="#DejaVuSans-69" x="283.414062"/>
      <use xlink:href="#DejaVuSans-64" x="311.197266"/>
      <use xlink:href="#DejaVuSans-65" x="374.673828"/>
     </g>
    </g>
    <g id="line2d_32">
     <path d="M 208.882812 157.10125 
L 218.882812 157.10125 
L 228.882812 157.10125 
" style="fill: none; stroke: #ff7f0e; stroke-width: 1.5; stroke-linecap: square"/>
    </g>
    <g id="text_18">
     <!-- Left Front -->
     <g transform="translate(236.882812 160.60125)scale(0.1 -0.1)">
      <defs>
       <path id="DejaVuSans-46" d="M 628 4666 
L 3309 4666 
L 3309 4134 
L 1259 4134 
L 1259 2759 
L 3109 2759 
L 3109 2228 
L 1259 2228 
L 1259 0 
L 628 0 
L 628 4666 
z
" transform="scale(0.015625)"/>
      </defs>
      <use xlink:href="#DejaVuSans-4c"/>
      <use xlink:href="#DejaVuSans-65" x="53.962891"/>
      <use xlink:href="#DejaVuSans-66" x="115.486328"/>
      <use xlink:href="#DejaVuSans-74" x="148.941406"/>
      <use xlink:href="#DejaVuSans-20" x="188.150391"/>
      <use xlink:href="#DejaVuSans-46" x="219.9375"/>
      <use xlink:href="#DejaVuSans-72" x="270.207031"/>
      <use xlink:href="#DejaVuSans-6f" x="309.070312"/>
      <use xlink:href="#DejaVuSans-6e" x="370.251953"/>
      <use xlink:href="#DejaVuSans-74" x="433.630859"/>
     </g>
    </g>
    <g id="line2d_33">
     <path d="M 208.882812 171.779375 
L 218.882812 171.779375 
L 228.882812 171.779375 
" style="fill: none; stroke: #2ca02c; stroke-width: 1.5; stroke-linecap: square"/>
    </g>
    <g id="text_19">
     <!-- Right Front -->
     <g transform="translate(236.882812 175.279375)scale(0.1 -0.1)">
      <defs>
       <path id="DejaVuSans-52" d="M 2841 2188 
Q 3044 2119 3236 1894 
Q 3428 1669 3622 1275 
L 4263 0 
L 3584 0 
L 2988 1197 
Q 2756 1666 2539 1819 
Q 2322 1972 1947 1972 
L 1259 1972 
L 1259 0 
L 628 0 
L 628 4666 
L 2053 4666 
Q 2853 4666 3247 4331 
Q 3641 3997 3641 3322 
Q 3641 2881 3436 2590 
Q 3231 2300 2841 2188 
z
M 1259 4147 
L 1259 2491 
L 2053 2491 
Q 2509 2491 2742 2702 
Q 2975 2913 2975 3322 
Q 2975 3731 2742 3939 
Q 2509 4147 2053 4147 
L 1259 4147 
z
" transform="scale(0.015625)"/>
       <path id="DejaVuSans-67" d="M 2906 1791 
Q 2906 2416 2648 2759 
Q 2391 3103 1925 3103 
Q 1463 3103 1205 2759 
Q 947 2416 947 1791 
Q 947 1169 1205 825 
Q 1463 481 1925 481 
Q 2391 481 2648 825 
Q 2906 1169 2906 1791 
z
M 3481 434 
Q 3481 -459 3084 -895 
Q 2688 -1331 1869 -1331 
Q 1566 -1331 1297 -1286 
Q 1028 -1241 775 -1147 
L 775 -588 
Q 1028 -725 1275 -790 
Q 1522 -856 1778 -856 
Q 2344 -856 2625 -561 
Q 2906 -266 2906 331 
L 2906 616 
Q 2728 306 2450 153 
Q 2172 0 1784 0 
Q 1141 0 747 490 
Q 353 981 353 1791 
Q 353 2603 747 3093 
Q 1141 3584 1784 3584 
Q 2172 3584 2450 3431 
Q 2728 3278 2906 2969 
L 2906 3500 
L 3481 3500 
L 3481 434 
z
" transform="scale(0.015625)"/>
       <path id="DejaVuSans-68" d="M 3513 2113 
L 3513 0 
L 2938 0 
L 2938 2094 
Q 2938 2591 2744 2837 
Q 2550 3084 2163 3084 
Q 1697 3084 1428 2787 
Q 1159 2491 1159 1978 
L 1159 0 
L 581 0 
L 581 4863 
L 1159 4863 
L 1159 2956 
Q 1366 3272 1645 3428 
Q 1925 3584 2291 3584 
Q 2894 3584 3203 3211 
Q 3513 2838 3513 2113 
z
" transform="scale(0.015625)"/>
      </defs>
      <use xlink:href="#DejaVuSans-52"/>
      <use xlink:href="#DejaVuSans-69" x="69.482422"/>
      <use xlink:href="#DejaVuSans-67" x="97.265625"/>
      <use xlink:href="#DejaVuSans-68" x="160.742188"/>
      <use xlink:href="#DejaVuSans-74" x="224.121094"/>
      <use xlink:href="#DejaVuSans-20" x="263.330078"/>
      <use xlink:href="#DejaVuSans-46" x="295.117188"/>
      <use xlink:href="#DejaVuSans-72" x="345.386719"/>
      <use xlink:href="#DejaVuSans-6f" x="384.25"/>
      <use xlink:href="#DejaVuSans-6e" x="445.431641"/>
      <use xlink:href="#DejaVuSans-74" x="508.810547"/>
     </g>
    </g>
    <g id="line2d_34">
     <path d="M 208.882812 186.4575 
L 218.882812 186.4575 
L 228.882812 186.4575 
" style="fill: none; stroke: #d62728; stroke-width: 1.5; stroke-linecap: square"/>
    </g>
    <g id="text_20">
     <!-- Right Side -->
     <g transform="translate(236.882812 189.9575)scale(0.1 -0.1)">
      <use xlink:href="#DejaVuSans-52"/>
      <use xlink:href="#DejaVuSans-69" x="69.482422"/>
      <use xlink:href="#DejaVuSans-67" x="97.265625"/>
      <use xlink:href="#DejaVuSans-68" x="160.742188"/>
      <use xlink:href="#DejaVuSans-74" x="224.121094"/>
      <use xlink:href="#DejaVuSans-20" x="263.330078"/>
      <use xlink:href="#DejaVuSans-53" x="295.117188"/>
      <use xlink:href="#DejaVuSans-69" x="358.59375"/>
      <use xlink:href="#DejaVuSans-64" x="386.376953"/>
      <use xlink:href="#DejaVuSans-65" x="449.853516"/>
     </g>
    </g>
   </g>
  </g>
 </g>
 <defs>
  <clipPath id="p08a410eadc">
   <rect x="50.565625" y="25.918125" width="399.434375" height="278.525625"/>
  </clipPath>
 </defs>
</svg>
