<?xml version="1.0" encoding="utf-8" standalone="no"?>
<!DOCTYPE svg PUBLIC "-//W3C//DTD SVG 1.1//EN"
  "http://www.w3.org/Graphics/SVG/1.1/DTD/svg11.dtd">
<!-- Created with matplotlib (https://matplotlib.org/) -->
<svg height="720pt" version="1.1" viewBox="0 0 576 720" width="576pt" xmlns="http://www.w3.org/2000/svg" xmlns:xlink="http://www.w3.org/1999/xlink">
 <metadata>
  <rdf:RDF xmlns:cc="http://creativecommons.org/ns#" xmlns:dc="http://purl.org/dc/elements/1.1/" xmlns:rdf="http://www.w3.org/1999/02/22-rdf-syntax-ns#">
   <cc:Work>
    <dc:type rdf:resource="http://purl.org/dc/dcmitype/StillImage"/>
    <dc:date>2020-11-22T15:02:59.144325</dc:date>
    <dc:format>image/svg+xml</dc:format>
    <dc:creator>
     <cc:Agent>
      <dc:title>Matplotlib v3.3.3, https://matplotlib.org/</dc:title>
     </cc:Agent>
    </dc:creator>
   </cc:Work>
  </rdf:RDF>
 </metadata>
 <defs>
  <style type="text/css">*{stroke-linecap:butt;stroke-linejoin:round;}</style>
 </defs>
 <g id="figure_1">
  <g id="patch_1">
   <path d="M 0 720 
L 576 720 
L 576 0 
L 0 0 
z
" style="fill:#ffffff;"/>
  </g>
  <g id="axes_1">
   <g id="patch_2">
    <path d="M 48.476475 146.14 
L 565.2 146.14 
L 565.2 26.88 
L 48.476475 26.88 
z
" style="fill:#ffffff;"/>
   </g>
   <g id="matplotlib.axis_1">
    <g id="xtick_1">
     <g id="line2d_1">
      <path clip-path="url(#p2846ea10c4)" d="M 71.963908 146.14 
L 71.963908 26.88 
" style="fill:none;stroke:#b0b0b0;stroke-linecap:square;stroke-width:0.8;"/>
     </g>
     <g id="line2d_2">
      <defs>
       <path d="M 0 0 
L 0 3.5 
" id="m4094f1f12e" style="stroke:#000000;stroke-width:0.8;"/>
      </defs>
      <g>
       <use style="stroke:#000000;stroke-width:0.8;" x="71.963908" xlink:href="#m4094f1f12e" y="146.14"/>
      </g>
     </g>
     <g id="text_1">
      <!-- 0.0 -->
      <g transform="translate(64.012345 160.738438)scale(0.1 -0.1)">
       <defs>
        <path d="M 31.78125 66.40625 
Q 24.171875 66.40625 20.328125 58.90625 
Q 16.5 51.421875 16.5 36.375 
Q 16.5 21.390625 20.328125 13.890625 
Q 24.171875 6.390625 31.78125 6.390625 
Q 39.453125 6.390625 43.28125 13.890625 
Q 47.125 21.390625 47.125 36.375 
Q 47.125 51.421875 43.28125 58.90625 
Q 39.453125 66.40625 31.78125 66.40625 
z
M 31.78125 74.21875 
Q 44.046875 74.21875 50.515625 64.515625 
Q 56.984375 54.828125 56.984375 36.375 
Q 56.984375 17.96875 50.515625 8.265625 
Q 44.046875 -1.421875 31.78125 -1.421875 
Q 19.53125 -1.421875 13.0625 8.265625 
Q 6.59375 17.96875 6.59375 36.375 
Q 6.59375 54.828125 13.0625 64.515625 
Q 19.53125 74.21875 31.78125 74.21875 
z
" id="DejaVuSans-48"/>
        <path d="M 10.6875 12.40625 
L 21 12.40625 
L 21 0 
L 10.6875 0 
z
" id="DejaVuSans-46"/>
       </defs>
       <use xlink:href="#DejaVuSans-48"/>
       <use x="63.623047" xlink:href="#DejaVuSans-46"/>
       <use x="95.410156" xlink:href="#DejaVuSans-48"/>
      </g>
     </g>
    </g>
    <g id="xtick_2">
     <g id="line2d_3">
      <path clip-path="url(#p2846ea10c4)" d="M 172.768341 146.14 
L 172.768341 26.88 
" style="fill:none;stroke:#b0b0b0;stroke-linecap:square;stroke-width:0.8;"/>
     </g>
     <g id="line2d_4">
      <g>
       <use style="stroke:#000000;stroke-width:0.8;" x="172.768341" xlink:href="#m4094f1f12e" y="146.14"/>
      </g>
     </g>
     <g id="text_2">
      <!-- 0.1 -->
      <g transform="translate(164.816778 160.738438)scale(0.1 -0.1)">
       <defs>
        <path d="M 12.40625 8.296875 
L 28.515625 8.296875 
L 28.515625 63.921875 
L 10.984375 60.40625 
L 10.984375 69.390625 
L 28.421875 72.90625 
L 38.28125 72.90625 
L 38.28125 8.296875 
L 54.390625 8.296875 
L 54.390625 0 
L 12.40625 0 
z
" id="DejaVuSans-49"/>
       </defs>
       <use xlink:href="#DejaVuSans-48"/>
       <use x="63.623047" xlink:href="#DejaVuSans-46"/>
       <use x="95.410156" xlink:href="#DejaVuSans-49"/>
      </g>
     </g>
    </g>
    <g id="xtick_3">
     <g id="line2d_5">
      <path clip-path="url(#p2846ea10c4)" d="M 273.572774 146.14 
L 273.572774 26.88 
" style="fill:none;stroke:#b0b0b0;stroke-linecap:square;stroke-width:0.8;"/>
     </g>
     <g id="line2d_6">
      <g>
       <use style="stroke:#000000;stroke-width:0.8;" x="273.572774" xlink:href="#m4094f1f12e" y="146.14"/>
      </g>
     </g>
     <g id="text_3">
      <!-- 0.2 -->
      <g transform="translate(265.621212 160.738438)scale(0.1 -0.1)">
       <defs>
        <path d="M 19.1875 8.296875 
L 53.609375 8.296875 
L 53.609375 0 
L 7.328125 0 
L 7.328125 8.296875 
Q 12.9375 14.109375 22.625 23.890625 
Q 32.328125 33.6875 34.8125 36.53125 
Q 39.546875 41.84375 41.421875 45.53125 
Q 43.3125 49.21875 43.3125 52.78125 
Q 43.3125 58.59375 39.234375 62.25 
Q 35.15625 65.921875 28.609375 65.921875 
Q 23.96875 65.921875 18.8125 64.3125 
Q 13.671875 62.703125 7.8125 59.421875 
L 7.8125 69.390625 
Q 13.765625 71.78125 18.9375 73 
Q 24.125 74.21875 28.421875 74.21875 
Q 39.75 74.21875 46.484375 68.546875 
Q 53.21875 62.890625 53.21875 53.421875 
Q 53.21875 48.921875 51.53125 44.890625 
Q 49.859375 40.875 45.40625 35.40625 
Q 44.1875 33.984375 37.640625 27.21875 
Q 31.109375 20.453125 19.1875 8.296875 
z
" id="DejaVuSans-50"/>
       </defs>
       <use xlink:href="#DejaVuSans-48"/>
       <use x="63.623047" xlink:href="#DejaVuSans-46"/>
       <use x="95.410156" xlink:href="#DejaVuSans-50"/>
      </g>
     </g>
    </g>
    <g id="xtick_4">
     <g id="line2d_7">
      <path clip-path="url(#p2846ea10c4)" d="M 374.377208 146.14 
L 374.377208 26.88 
" style="fill:none;stroke:#b0b0b0;stroke-linecap:square;stroke-width:0.8;"/>
     </g>
     <g id="line2d_8">
      <g>
       <use style="stroke:#000000;stroke-width:0.8;" x="374.377208" xlink:href="#m4094f1f12e" y="146.14"/>
      </g>
     </g>
     <g id="text_4">
      <!-- 0.3 -->
      <g transform="translate(366.425645 160.738438)scale(0.1 -0.1)">
       <defs>
        <path d="M 40.578125 39.3125 
Q 47.65625 37.796875 51.625 33 
Q 55.609375 28.21875 55.609375 21.1875 
Q 55.609375 10.40625 48.1875 4.484375 
Q 40.765625 -1.421875 27.09375 -1.421875 
Q 22.515625 -1.421875 17.65625 -0.515625 
Q 12.796875 0.390625 7.625 2.203125 
L 7.625 11.71875 
Q 11.71875 9.328125 16.59375 8.109375 
Q 21.484375 6.890625 26.8125 6.890625 
Q 36.078125 6.890625 40.9375 10.546875 
Q 45.796875 14.203125 45.796875 21.1875 
Q 45.796875 27.640625 41.28125 31.265625 
Q 36.765625 34.90625 28.71875 34.90625 
L 20.21875 34.90625 
L 20.21875 43.015625 
L 29.109375 43.015625 
Q 36.375 43.015625 40.234375 45.921875 
Q 44.09375 48.828125 44.09375 54.296875 
Q 44.09375 59.90625 40.109375 62.90625 
Q 36.140625 65.921875 28.71875 65.921875 
Q 24.65625 65.921875 20.015625 65.03125 
Q 15.375 64.15625 9.8125 62.3125 
L 9.8125 71.09375 
Q 15.4375 72.65625 20.34375 73.4375 
Q 25.25 74.21875 29.59375 74.21875 
Q 40.828125 74.21875 47.359375 69.109375 
Q 53.90625 64.015625 53.90625 55.328125 
Q 53.90625 49.265625 50.4375 45.09375 
Q 46.96875 40.921875 40.578125 39.3125 
z
" id="DejaVuSans-51"/>
       </defs>
       <use xlink:href="#DejaVuSans-48"/>
       <use x="63.623047" xlink:href="#DejaVuSans-46"/>
       <use x="95.410156" xlink:href="#DejaVuSans-51"/>
      </g>
     </g>
    </g>
    <g id="xtick_5">
     <g id="line2d_9">
      <path clip-path="url(#p2846ea10c4)" d="M 475.181641 146.14 
L 475.181641 26.88 
" style="fill:none;stroke:#b0b0b0;stroke-linecap:square;stroke-width:0.8;"/>
     </g>
     <g id="line2d_10">
      <g>
       <use style="stroke:#000000;stroke-width:0.8;" x="475.181641" xlink:href="#m4094f1f12e" y="146.14"/>
      </g>
     </g>
     <g id="text_5">
      <!-- 0.4 -->
      <g transform="translate(467.230079 160.738438)scale(0.1 -0.1)">
       <defs>
        <path d="M 37.796875 64.3125 
L 12.890625 25.390625 
L 37.796875 25.390625 
z
M 35.203125 72.90625 
L 47.609375 72.90625 
L 47.609375 25.390625 
L 58.015625 25.390625 
L 58.015625 17.1875 
L 47.609375 17.1875 
L 47.609375 0 
L 37.796875 0 
L 37.796875 17.1875 
L 4.890625 17.1875 
L 4.890625 26.703125 
z
" id="DejaVuSans-52"/>
       </defs>
       <use xlink:href="#DejaVuSans-48"/>
       <use x="63.623047" xlink:href="#DejaVuSans-46"/>
       <use x="95.410156" xlink:href="#DejaVuSans-52"/>
      </g>
     </g>
    </g>
    <g id="text_6">
     <!-- Time [ms] -->
     <g transform="translate(281.639019 174.416563)scale(0.1 -0.1)">
      <defs>
       <path d="M -0.296875 72.90625 
L 61.375 72.90625 
L 61.375 64.59375 
L 35.5 64.59375 
L 35.5 0 
L 25.59375 0 
L 25.59375 64.59375 
L -0.296875 64.59375 
z
" id="DejaVuSans-84"/>
       <path d="M 9.421875 54.6875 
L 18.40625 54.6875 
L 18.40625 0 
L 9.421875 0 
z
M 9.421875 75.984375 
L 18.40625 75.984375 
L 18.40625 64.59375 
L 9.421875 64.59375 
z
" id="DejaVuSans-105"/>
       <path d="M 52 44.1875 
Q 55.375 50.25 60.0625 53.125 
Q 64.75 56 71.09375 56 
Q 79.640625 56 84.28125 50.015625 
Q 88.921875 44.046875 88.921875 33.015625 
L 88.921875 0 
L 79.890625 0 
L 79.890625 32.71875 
Q 79.890625 40.578125 77.09375 44.375 
Q 74.3125 48.1875 68.609375 48.1875 
Q 61.625 48.1875 57.5625 43.546875 
Q 53.515625 38.921875 53.515625 30.90625 
L 53.515625 0 
L 44.484375 0 
L 44.484375 32.71875 
Q 44.484375 40.625 41.703125 44.40625 
Q 38.921875 48.1875 33.109375 48.1875 
Q 26.21875 48.1875 22.15625 43.53125 
Q 18.109375 38.875 18.109375 30.90625 
L 18.109375 0 
L 9.078125 0 
L 9.078125 54.6875 
L 18.109375 54.6875 
L 18.109375 46.1875 
Q 21.1875 51.21875 25.484375 53.609375 
Q 29.78125 56 35.6875 56 
Q 41.65625 56 45.828125 52.96875 
Q 50 49.953125 52 44.1875 
z
" id="DejaVuSans-109"/>
       <path d="M 56.203125 29.59375 
L 56.203125 25.203125 
L 14.890625 25.203125 
Q 15.484375 15.921875 20.484375 11.0625 
Q 25.484375 6.203125 34.421875 6.203125 
Q 39.59375 6.203125 44.453125 7.46875 
Q 49.3125 8.734375 54.109375 11.28125 
L 54.109375 2.78125 
Q 49.265625 0.734375 44.1875 -0.34375 
Q 39.109375 -1.421875 33.890625 -1.421875 
Q 20.796875 -1.421875 13.15625 6.1875 
Q 5.515625 13.8125 5.515625 26.8125 
Q 5.515625 40.234375 12.765625 48.109375 
Q 20.015625 56 32.328125 56 
Q 43.359375 56 49.78125 48.890625 
Q 56.203125 41.796875 56.203125 29.59375 
z
M 47.21875 32.234375 
Q 47.125 39.59375 43.09375 43.984375 
Q 39.0625 48.390625 32.421875 48.390625 
Q 24.90625 48.390625 20.390625 44.140625 
Q 15.875 39.890625 15.1875 32.171875 
z
" id="DejaVuSans-101"/>
       <path id="DejaVuSans-32"/>
       <path d="M 8.59375 75.984375 
L 29.296875 75.984375 
L 29.296875 69 
L 17.578125 69 
L 17.578125 -6.203125 
L 29.296875 -6.203125 
L 29.296875 -13.1875 
L 8.59375 -13.1875 
z
" id="DejaVuSans-91"/>
       <path d="M 44.28125 53.078125 
L 44.28125 44.578125 
Q 40.484375 46.53125 36.375 47.5 
Q 32.28125 48.484375 27.875 48.484375 
Q 21.1875 48.484375 17.84375 46.4375 
Q 14.5 44.390625 14.5 40.28125 
Q 14.5 37.15625 16.890625 35.375 
Q 19.28125 33.59375 26.515625 31.984375 
L 29.59375 31.296875 
Q 39.15625 29.25 43.1875 25.515625 
Q 47.21875 21.78125 47.21875 15.09375 
Q 47.21875 7.46875 41.1875 3.015625 
Q 35.15625 -1.421875 24.609375 -1.421875 
Q 20.21875 -1.421875 15.453125 -0.5625 
Q 10.6875 0.296875 5.421875 2 
L 5.421875 11.28125 
Q 10.40625 8.6875 15.234375 7.390625 
Q 20.0625 6.109375 24.8125 6.109375 
Q 31.15625 6.109375 34.5625 8.28125 
Q 37.984375 10.453125 37.984375 14.40625 
Q 37.984375 18.0625 35.515625 20.015625 
Q 33.0625 21.96875 24.703125 23.78125 
L 21.578125 24.515625 
Q 13.234375 26.265625 9.515625 29.90625 
Q 5.8125 33.546875 5.8125 39.890625 
Q 5.8125 47.609375 11.28125 51.796875 
Q 16.75 56 26.8125 56 
Q 31.78125 56 36.171875 55.265625 
Q 40.578125 54.546875 44.28125 53.078125 
z
" id="DejaVuSans-115"/>
       <path d="M 30.421875 75.984375 
L 30.421875 -13.1875 
L 9.71875 -13.1875 
L 9.71875 -6.203125 
L 21.390625 -6.203125 
L 21.390625 69 
L 9.71875 69 
L 9.71875 75.984375 
z
" id="DejaVuSans-93"/>
      </defs>
      <use xlink:href="#DejaVuSans-84"/>
      <use x="57.958984" xlink:href="#DejaVuSans-105"/>
      <use x="85.742188" xlink:href="#DejaVuSans-109"/>
      <use x="183.154297" xlink:href="#DejaVuSans-101"/>
      <use x="244.677734" xlink:href="#DejaVuSans-32"/>
      <use x="276.464844" xlink:href="#DejaVuSans-91"/>
      <use x="315.478516" xlink:href="#DejaVuSans-109"/>
      <use x="412.890625" xlink:href="#DejaVuSans-115"/>
      <use x="464.990234" xlink:href="#DejaVuSans-93"/>
     </g>
    </g>
   </g>
   <g id="matplotlib.axis_2">
    <g id="ytick_1">
     <g id="line2d_11">
      <path clip-path="url(#p2846ea10c4)" d="M 48.476475 140.143837 
L 565.2 140.143837 
" style="fill:none;stroke:#b0b0b0;stroke-linecap:square;stroke-width:0.8;"/>
     </g>
     <g id="line2d_12">
      <defs>
       <path d="M 0 0 
L -3.5 0 
" id="m34d45ab8c2" style="stroke:#000000;stroke-width:0.8;"/>
      </defs>
      <g>
       <use style="stroke:#000000;stroke-width:0.8;" x="48.476475" xlink:href="#m34d45ab8c2" y="140.143837"/>
      </g>
     </g>
     <g id="text_7">
      <!-- $\mathdefault{−7.5}$ -->
      <g transform="translate(17.176475 143.943056)scale(0.1 -0.1)">
       <defs>
        <path d="M 10.59375 35.5 
L 73.1875 35.5 
L 73.1875 27.203125 
L 10.59375 27.203125 
z
" id="DejaVuSans-8722"/>
        <path d="M 8.203125 72.90625 
L 55.078125 72.90625 
L 55.078125 68.703125 
L 28.609375 0 
L 18.3125 0 
L 43.21875 64.59375 
L 8.203125 64.59375 
z
" id="DejaVuSans-55"/>
        <path d="M 10.796875 72.90625 
L 49.515625 72.90625 
L 49.515625 64.59375 
L 19.828125 64.59375 
L 19.828125 46.734375 
Q 21.96875 47.46875 24.109375 47.828125 
Q 26.265625 48.1875 28.421875 48.1875 
Q 40.625 48.1875 47.75 41.5 
Q 54.890625 34.8125 54.890625 23.390625 
Q 54.890625 11.625 47.5625 5.09375 
Q 40.234375 -1.421875 26.90625 -1.421875 
Q 22.3125 -1.421875 17.546875 -0.640625 
Q 12.796875 0.140625 7.71875 1.703125 
L 7.71875 11.625 
Q 12.109375 9.234375 16.796875 8.0625 
Q 21.484375 6.890625 26.703125 6.890625 
Q 35.15625 6.890625 40.078125 11.328125 
Q 45.015625 15.765625 45.015625 23.390625 
Q 45.015625 31 40.078125 35.4375 
Q 35.15625 39.890625 26.703125 39.890625 
Q 22.75 39.890625 18.8125 39.015625 
Q 14.890625 38.140625 10.796875 36.28125 
z
" id="DejaVuSans-53"/>
       </defs>
       <use transform="translate(0 0.09375)" xlink:href="#DejaVuSans-8722"/>
       <use transform="translate(83.789062 0.09375)" xlink:href="#DejaVuSans-55"/>
       <use transform="translate(147.412109 0.09375)" xlink:href="#DejaVuSans-46"/>
       <use transform="translate(179.199219 0.09375)" xlink:href="#DejaVuSans-53"/>
      </g>
     </g>
    </g>
    <g id="ytick_2">
     <g id="line2d_13">
      <path clip-path="url(#p2846ea10c4)" d="M 48.476475 110.853944 
L 565.2 110.853944 
" style="fill:none;stroke:#b0b0b0;stroke-linecap:square;stroke-width:0.8;"/>
     </g>
     <g id="line2d_14">
      <g>
       <use style="stroke:#000000;stroke-width:0.8;" x="48.476475" xlink:href="#m34d45ab8c2" y="110.853944"/>
      </g>
     </g>
     <g id="text_8">
      <!-- $\mathdefault{−5.0}$ -->
      <g transform="translate(17.176475 114.653162)scale(0.1 -0.1)">
       <use transform="translate(0 0.78125)" xlink:href="#DejaVuSans-8722"/>
       <use transform="translate(83.789062 0.78125)" xlink:href="#DejaVuSans-53"/>
       <use transform="translate(147.412109 0.78125)" xlink:href="#DejaVuSans-46"/>
       <use transform="translate(179.199219 0.78125)" xlink:href="#DejaVuSans-48"/>
      </g>
     </g>
    </g>
    <g id="ytick_3">
     <g id="line2d_15">
      <path clip-path="url(#p2846ea10c4)" d="M 48.476475 81.56405 
L 565.2 81.56405 
" style="fill:none;stroke:#b0b0b0;stroke-linecap:square;stroke-width:0.8;"/>
     </g>
     <g id="line2d_16">
      <g>
       <use style="stroke:#000000;stroke-width:0.8;" x="48.476475" xlink:href="#m34d45ab8c2" y="81.56405"/>
      </g>
     </g>
     <g id="text_9">
      <!-- $\mathdefault{−2.5}$ -->
      <g transform="translate(17.176475 85.363269)scale(0.1 -0.1)">
       <use transform="translate(0 0.78125)" xlink:href="#DejaVuSans-8722"/>
       <use transform="translate(83.789062 0.78125)" xlink:href="#DejaVuSans-50"/>
       <use transform="translate(147.412109 0.78125)" xlink:href="#DejaVuSans-46"/>
       <use transform="translate(179.199219 0.78125)" xlink:href="#DejaVuSans-53"/>
      </g>
     </g>
    </g>
    <g id="ytick_4">
     <g id="line2d_17">
      <path clip-path="url(#p2846ea10c4)" d="M 48.476475 52.274156 
L 565.2 52.274156 
" style="fill:none;stroke:#b0b0b0;stroke-linecap:square;stroke-width:0.8;"/>
     </g>
     <g id="line2d_18">
      <g>
       <use style="stroke:#000000;stroke-width:0.8;" x="48.476475" xlink:href="#m34d45ab8c2" y="52.274156"/>
      </g>
     </g>
     <g id="text_10">
      <!-- $\mathdefault{0.0}$ -->
      <g transform="translate(25.476475 56.073375)scale(0.1 -0.1)">
       <use transform="translate(0 0.78125)" xlink:href="#DejaVuSans-48"/>
       <use transform="translate(63.623047 0.78125)" xlink:href="#DejaVuSans-46"/>
       <use transform="translate(95.410156 0.78125)" xlink:href="#DejaVuSans-48"/>
      </g>
     </g>
    </g>
    <g id="text_11">
     <!-- vel. [m/s] -->
     <g transform="translate(11.096787 110.174063)rotate(-90)scale(0.1 -0.1)">
      <defs>
       <path d="M 2.984375 54.6875 
L 12.5 54.6875 
L 29.59375 8.796875 
L 46.6875 54.6875 
L 56.203125 54.6875 
L 35.6875 0 
L 23.484375 0 
z
" id="DejaVuSans-118"/>
       <path d="M 9.421875 75.984375 
L 18.40625 75.984375 
L 18.40625 0 
L 9.421875 0 
z
" id="DejaVuSans-108"/>
       <path d="M 25.390625 72.90625 
L 33.6875 72.90625 
L 8.296875 -9.28125 
L 0 -9.28125 
z
" id="DejaVuSans-47"/>
      </defs>
      <use xlink:href="#DejaVuSans-118"/>
      <use x="59.179688" xlink:href="#DejaVuSans-101"/>
      <use x="120.703125" xlink:href="#DejaVuSans-108"/>
      <use x="148.486328" xlink:href="#DejaVuSans-46"/>
      <use x="180.273438" xlink:href="#DejaVuSans-32"/>
      <use x="212.060547" xlink:href="#DejaVuSans-91"/>
      <use x="251.074219" xlink:href="#DejaVuSans-109"/>
      <use x="348.486328" xlink:href="#DejaVuSans-47"/>
      <use x="382.177734" xlink:href="#DejaVuSans-115"/>
      <use x="434.277344" xlink:href="#DejaVuSans-93"/>
     </g>
    </g>
    <g id="text_12">
     <!-- $\times\mathdefault{10^{1}}\mathdefault{}$ -->
     <g transform="translate(48.476475 23.88)scale(0.1 -0.1)">
      <defs>
       <path d="M 70.125 53.71875 
L 47.796875 31.296875 
L 70.125 8.984375 
L 64.3125 3.078125 
L 41.890625 25.484375 
L 19.484375 3.078125 
L 13.71875 8.984375 
L 35.984375 31.296875 
L 13.71875 53.71875 
L 19.484375 59.625 
L 41.890625 37.203125 
L 64.3125 59.625 
z
" id="DejaVuSans-215"/>
      </defs>
      <use transform="translate(0 0.684375)" xlink:href="#DejaVuSans-215"/>
      <use transform="translate(83.789062 0.684375)" xlink:href="#DejaVuSans-49"/>
      <use transform="translate(147.412109 0.684375)" xlink:href="#DejaVuSans-48"/>
      <use transform="translate(211.992188 38.965625)scale(0.7)" xlink:href="#DejaVuSans-49"/>
     </g>
    </g>
   </g>
   <g id="line2d_19">
    <path clip-path="url(#p2846ea10c4)" d="M 71.963908 52.274156 
L 541.712567 52.274156 
L 541.712567 52.274156 
" style="fill:none;stroke:#1f77b4;stroke-linecap:square;stroke-width:2;"/>
   </g>
   <g id="line2d_20">
    <path clip-path="url(#p2846ea10c4)" d="M 71.963908 52.274156 
L 75.996085 52.274156 
L 77.004129 55.127238 
L 79.020218 55.126957 
L 80.028262 56.553773 
L 81.036307 53.700691 
L 82.044351 56.553773 
L 84.06044 56.553773 
L 85.068484 59.406573 
L 88.092617 59.406855 
L 89.100661 60.833108 
L 91.11675 57.980308 
L 92.124794 59.406855 
L 93.132839 63.686752 
L 94.140883 62.259655 
L 95.148927 63.686471 
L 96.156972 60.833108 
L 98.17306 60.832839 
L 99.181105 62.259936 
L 100.189149 59.406573 
L 101.197193 62.259655 
L 102.205238 62.259796 
L 103.213282 63.686612 
L 104.221326 66.53974 
L 105.229371 65.113205 
L 106.237415 69.39281 
L 107.245459 67.965807 
L 108.253504 67.965807 
L 109.261548 69.392576 
L 113.293725 69.392576 
L 114.30177 70.819345 
L 115.309814 70.81876 
L 116.317858 72.245412 
L 117.325903 67.966275 
L 118.333947 69.39281 
L 119.341991 69.392459 
L 120.350036 67.966158 
L 121.35808 69.392459 
L 122.366124 72.246115 
L 123.374169 72.245529 
L 125.390257 75.098833 
L 126.398302 75.098599 
L 128.41439 77.951903 
L 129.422435 75.09895 
L 130.430479 75.098482 
L 134.462656 80.805207 
L 135.470701 85.084578 
L 136.478745 82.231157 
L 138.494834 82.230922 
L 139.502878 83.657692 
L 140.510922 87.937062 
L 141.518967 86.510527 
L 143.535055 95.069268 
L 144.5431 96.496624 
L 146.559188 102.203349 
L 148.575277 110.761388 
L 150.591366 116.468113 
L 152.607454 119.322355 
L 154.623543 127.88051 
L 155.631587 130.732995 
L 156.639632 129.306108 
L 157.647676 135.012834 
L 158.65572 139.29279 
L 159.663765 135.012834 
L 160.671809 136.43972 
L 161.679853 139.292204 
L 164.703986 139.292204 
L 165.712031 137.86649 
L 166.720075 140.717919 
L 167.728119 139.292204 
L 168.736164 140.717919 
L 170.752252 137.86649 
L 172.768341 140.719091 
L 173.776385 136.438549 
L 174.78443 135.012834 
L 176.800518 135.014005 
L 177.808563 137.86649 
L 178.816607 135.012834 
L 181.84074 135.012834 
L 182.848784 133.586065 
L 183.856829 133.586065 
L 184.864873 130.732409 
L 185.872917 129.306694 
L 186.880962 133.587119 
L 187.889006 130.73358 
L 188.89705 133.587119 
L 189.905095 129.307865 
L 190.913139 130.732409 
L 191.921183 133.586065 
L 192.929228 129.306694 
L 195.953361 125.026269 
L 196.961405 127.878753 
L 197.969449 126.451984 
L 200.993582 126.455264 
L 202.001627 125.026269 
L 203.009671 127.879925 
L 204.017715 125.026269 
L 206.033804 125.027323 
L 207.041848 122.174839 
L 208.049893 125.028495 
L 209.057937 120.74807 
L 210.065981 125.027323 
L 211.074026 123.598328 
L 212.08207 119.322355 
L 213.090114 120.749124 
L 214.098159 123.60278 
L 215.106203 116.467528 
L 216.114247 119.322355 
L 219.13838 115.04193 
L 220.146425 117.893242 
L 221.154469 115.040758 
L 223.170558 115.040758 
L 224.178602 116.469871 
L 225.186646 116.469871 
L 226.194691 113.612817 
L 227.202735 113.613989 
L 228.210779 116.466473 
L 229.218824 115.040758 
L 230.226868 116.466473 
L 231.234912 119.317903 
L 233.251001 116.468699 
L 235.26709 116.468699 
L 236.275134 113.615043 
L 237.283178 117.894414 
L 240.307311 117.892188 
L 241.315356 115.040758 
L 242.3234 117.894414 
L 243.331444 119.320129 
L 245.347533 119.320129 
L 246.355577 117.894414 
L 248.371666 117.89664 
L 249.37971 119.324581 
L 250.387755 117.89664 
L 251.395799 113.612817 
L 252.403843 115.040758 
L 253.411888 115.040758 
L 254.419932 113.617269 
L 255.427976 116.468699 
L 256.436021 115.040758 
L 258.452109 115.042984 
L 260.468198 112.189329 
L 261.476242 109.333447 
L 263.492331 112.189329 
L 264.500375 110.761388 
L 265.50842 106.482134 
L 267.524508 106.48436 
L 270.548641 102.200537 
L 271.556686 102.202764 
L 272.56473 103.628478 
L 274.580819 100.777049 
L 275.588863 97.925619 
L 276.596907 99.351334 
L 277.604952 96.497678 
L 278.612996 97.921167 
L 279.62104 96.497678 
L 280.629085 93.644022 
L 281.637129 93.644022 
L 282.645173 90.790484 
L 283.653218 93.644022 
L 284.661262 95.069737 
L 285.669306 93.644022 
L 286.677351 93.641796 
L 287.685395 92.216081 
L 289.701484 95.071963 
L 290.709528 93.644022 
L 292.725617 93.644022 
L 293.733661 95.069737 
L 295.74975 95.069737 
L 296.757794 92.216081 
L 297.765838 92.220651 
L 298.773883 96.497678 
L 300.789971 93.644022 
L 301.798016 97.918941 
L 302.80606 92.216081 
L 303.814104 96.495452 
L 304.822149 95.069737 
L 305.830193 99.351334 
L 306.838237 99.346882 
L 307.846282 93.641796 
L 308.854326 95.069737 
L 309.86237 97.921167 
L 310.870415 96.495452 
L 311.878459 96.497678 
L 312.886503 99.351334 
L 313.894548 95.067511 
L 317.926725 100.774823 
L 318.934769 96.497678 
L 319.942814 100.774823 
L 320.950858 97.925619 
L 321.958902 100.774823 
L 322.966947 99.349108 
L 323.974991 100.779275 
L 324.983035 99.349108 
L 325.99108 99.351334 
L 328.007168 105.058645 
L 329.015213 105.054193 
L 330.023257 102.202764 
L 331.031301 106.48436 
L 332.039346 109.335673 
L 333.04739 105.051967 
L 334.055434 107.905506 
L 335.063479 105.054193 
L 336.071523 109.338016 
L 337.079567 107.910075 
L 338.087612 110.761388 
L 339.095656 107.905506 
L 340.1037 107.905506 
L 341.111745 109.338016 
L 343.127833 109.335673 
L 344.135878 107.907732 
L 345.143922 112.189329 
L 346.151966 107.907732 
L 347.160011 109.338016 
L 348.168055 112.189329 
L 349.176099 110.763614 
L 351.192188 110.763614 
L 352.200232 107.907732 
L 353.208277 109.338016 
L 354.216321 113.617269 
L 355.224365 110.759162 
L 356.23241 112.189329 
L 357.240454 110.759162 
L 358.248498 115.042984 
L 359.256543 110.763614 
L 360.264587 112.191555 
L 362.280676 112.184876 
L 363.28872 107.907732 
L 364.296764 112.191555 
L 365.304809 109.335673 
L 366.312853 110.761388 
L 367.320897 107.907732 
L 368.328942 109.338016 
L 369.336986 107.907732 
L 370.34503 110.761388 
L 371.353075 109.335673 
L 372.361119 109.335673 
L 375.385252 105.054193 
L 376.393296 109.335673 
L 377.401341 103.628478 
L 378.409385 106.479908 
L 381.433518 102.202764 
L 382.441562 105.054193 
L 383.449607 105.054193 
L 385.465695 99.351334 
L 386.47374 102.202764 
L 387.481784 100.777049 
L 388.489828 100.772597 
L 389.497873 96.499904 
L 390.505917 99.351334 
L 391.513961 97.925619 
L 392.522006 97.925619 
L 393.53005 95.074189 
L 394.538094 97.925619 
L 395.546139 96.495452 
L 396.554183 96.495452 
L 397.562227 99.349108 
L 399.578316 99.351334 
L 400.58636 100.777049 
L 401.594405 96.495452 
L 402.602449 96.495452 
L 403.610493 97.918941 
L 404.618538 97.918941 
L 405.626582 95.067511 
L 406.634626 97.925619 
L 407.642671 93.644022 
L 408.650715 95.069737 
L 409.658759 92.218425 
L 410.666804 95.069737 
L 413.690937 86.508887 
L 414.698981 89.366995 
L 415.707025 90.790484 
L 418.731158 86.508887 
L 420.747247 80.806028 
L 421.755291 79.380313 
L 422.763336 79.378087 
L 423.77138 75.101059 
L 424.779424 73.670892 
L 425.787469 69.391522 
L 426.795513 67.963581 
L 428.811602 62.263006 
L 429.819646 63.688709 
L 430.82769 59.404898 
L 431.835735 56.555729 
L 432.843779 52.274156 
L 433.851823 50.846215 
L 434.859868 50.846215 
L 435.867912 46.56688 
L 436.875956 47.994821 
L 437.884001 43.717711 
L 438.892045 43.713248 
L 439.900089 40.864079 
L 441.916178 40.864079 
L 443.932267 35.152339 
L 444.940311 33.72885 
L 445.948355 36.584732 
L 446.9564 35.156791 
L 447.964444 35.159017 
L 448.972488 33.72885 
L 450.988577 39.433935 
L 451.996621 36.586958 
L 456.028799 36.582506 
L 457.036843 38.008221 
L 458.044887 38.008221 
L 459.052932 36.582506 
L 460.060976 38.008221 
L 461.06902 36.582506 
L 462.077065 40.861841 
L 464.093153 38.010447 
L 465.101198 39.431709 
L 467.117286 39.433935 
L 468.125331 36.582506 
L 470.141419 36.582506 
L 471.149464 38.008221 
L 472.157508 36.586958 
L 473.165552 38.010447 
L 474.173597 35.154565 
L 475.181641 35.154565 
L 476.189685 36.586958 
L 477.19773 39.436162 
L 478.205774 36.582506 
L 479.213818 38.008221 
L 480.221863 38.008221 
L 481.229907 36.58028 
L 482.237951 36.582506 
L 483.245996 35.156791 
L 484.25404 38.010447 
L 485.262084 33.726624 
L 486.270129 32.300909 
L 487.278173 36.584732 
L 489.294262 33.724398 
L 490.302306 35.152339 
L 491.31035 33.733302 
L 492.318395 33.731076 
L 493.326439 32.300909 
L 494.334483 35.154565 
L 495.342528 32.303135 
L 496.350572 35.152339 
L 497.358616 32.305361 
L 498.366661 32.305361 
L 499.374705 36.582506 
L 500.382749 33.731076 
L 501.390794 36.582506 
L 502.398838 38.012673 
L 503.406882 35.159017 
L 504.414927 40.859603 
L 505.422971 39.436162 
L 506.431015 42.289782 
L 509.455148 46.564642 
L 510.463193 46.569118 
L 514.49537 52.271922 
L 516.511459 52.274156 
L 517.519503 53.697622 
L 519.535592 53.699859 
L 521.55168 56.551266 
L 522.559725 55.125563 
L 523.567769 55.130026 
L 524.575813 56.551266 
L 525.583858 55.125563 
L 527.599946 55.125563 
L 528.607991 53.704323 
L 529.616035 53.699859 
L 530.624079 52.274156 
L 532.640168 55.130026 
L 533.648212 53.699859 
L 534.656257 53.699859 
L 535.664301 52.278626 
L 537.68039 52.274156 
L 538.688434 53.704323 
L 539.696478 53.699859 
L 540.704523 52.274156 
L 541.712567 53.699859 
L 541.712567 53.699859 
" style="fill:none;stroke:#ff7f0e;stroke-linecap:square;stroke-width:2;"/>
   </g>
   <g id="patch_3">
    <path d="M 48.476475 146.14 
L 48.476475 26.88 
" style="fill:none;stroke:#000000;stroke-linecap:square;stroke-linejoin:miter;stroke-width:0.8;"/>
   </g>
   <g id="patch_4">
    <path d="M 565.2 146.14 
L 565.2 26.88 
" style="fill:none;stroke:#000000;stroke-linecap:square;stroke-linejoin:miter;stroke-width:0.8;"/>
   </g>
   <g id="patch_5">
    <path d="M 48.476475 146.14 
L 565.2 146.14 
" style="fill:none;stroke:#000000;stroke-linecap:square;stroke-linejoin:miter;stroke-width:0.8;"/>
   </g>
   <g id="patch_6">
    <path d="M 48.476475 26.88 
L 565.2 26.88 
" style="fill:none;stroke:#000000;stroke-linecap:square;stroke-linejoin:miter;stroke-width:0.8;"/>
   </g>
   <g id="text_13">
    <!-- Translational Velocity -->
    <g transform="translate(243.36105 20.88)scale(0.12 -0.12)">
     <defs>
      <path d="M 41.109375 46.296875 
Q 39.59375 47.171875 37.8125 47.578125 
Q 36.03125 48 33.890625 48 
Q 26.265625 48 22.1875 43.046875 
Q 18.109375 38.09375 18.109375 28.8125 
L 18.109375 0 
L 9.078125 0 
L 9.078125 54.6875 
L 18.109375 54.6875 
L 18.109375 46.1875 
Q 20.953125 51.171875 25.484375 53.578125 
Q 30.03125 56 36.53125 56 
Q 37.453125 56 38.578125 55.875 
Q 39.703125 55.765625 41.0625 55.515625 
z
" id="DejaVuSans-114"/>
      <path d="M 34.28125 27.484375 
Q 23.390625 27.484375 19.1875 25 
Q 14.984375 22.515625 14.984375 16.5 
Q 14.984375 11.71875 18.140625 8.90625 
Q 21.296875 6.109375 26.703125 6.109375 
Q 34.1875 6.109375 38.703125 11.40625 
Q 43.21875 16.703125 43.21875 25.484375 
L 43.21875 27.484375 
z
M 52.203125 31.203125 
L 52.203125 0 
L 43.21875 0 
L 43.21875 8.296875 
Q 40.140625 3.328125 35.546875 0.953125 
Q 30.953125 -1.421875 24.3125 -1.421875 
Q 15.921875 -1.421875 10.953125 3.296875 
Q 6 8.015625 6 15.921875 
Q 6 25.140625 12.171875 29.828125 
Q 18.359375 34.515625 30.609375 34.515625 
L 43.21875 34.515625 
L 43.21875 35.40625 
Q 43.21875 41.609375 39.140625 45 
Q 35.0625 48.390625 27.6875 48.390625 
Q 23 48.390625 18.546875 47.265625 
Q 14.109375 46.140625 10.015625 43.890625 
L 10.015625 52.203125 
Q 14.9375 54.109375 19.578125 55.046875 
Q 24.21875 56 28.609375 56 
Q 40.484375 56 46.34375 49.84375 
Q 52.203125 43.703125 52.203125 31.203125 
z
" id="DejaVuSans-97"/>
      <path d="M 54.890625 33.015625 
L 54.890625 0 
L 45.90625 0 
L 45.90625 32.71875 
Q 45.90625 40.484375 42.875 44.328125 
Q 39.84375 48.1875 33.796875 48.1875 
Q 26.515625 48.1875 22.3125 43.546875 
Q 18.109375 38.921875 18.109375 30.90625 
L 18.109375 0 
L 9.078125 0 
L 9.078125 54.6875 
L 18.109375 54.6875 
L 18.109375 46.1875 
Q 21.34375 51.125 25.703125 53.5625 
Q 30.078125 56 35.796875 56 
Q 45.21875 56 50.046875 50.171875 
Q 54.890625 44.34375 54.890625 33.015625 
z
" id="DejaVuSans-110"/>
      <path d="M 18.3125 70.21875 
L 18.3125 54.6875 
L 36.8125 54.6875 
L 36.8125 47.703125 
L 18.3125 47.703125 
L 18.3125 18.015625 
Q 18.3125 11.328125 20.140625 9.421875 
Q 21.96875 7.515625 27.59375 7.515625 
L 36.8125 7.515625 
L 36.8125 0 
L 27.59375 0 
Q 17.1875 0 13.234375 3.875 
Q 9.28125 7.765625 9.28125 18.015625 
L 9.28125 47.703125 
L 2.6875 47.703125 
L 2.6875 54.6875 
L 9.28125 54.6875 
L 9.28125 70.21875 
z
" id="DejaVuSans-116"/>
      <path d="M 30.609375 48.390625 
Q 23.390625 48.390625 19.1875 42.75 
Q 14.984375 37.109375 14.984375 27.296875 
Q 14.984375 17.484375 19.15625 11.84375 
Q 23.34375 6.203125 30.609375 6.203125 
Q 37.796875 6.203125 41.984375 11.859375 
Q 46.1875 17.53125 46.1875 27.296875 
Q 46.1875 37.015625 41.984375 42.703125 
Q 37.796875 48.390625 30.609375 48.390625 
z
M 30.609375 56 
Q 42.328125 56 49.015625 48.375 
Q 55.71875 40.765625 55.71875 27.296875 
Q 55.71875 13.875 49.015625 6.21875 
Q 42.328125 -1.421875 30.609375 -1.421875 
Q 18.84375 -1.421875 12.171875 6.21875 
Q 5.515625 13.875 5.515625 27.296875 
Q 5.515625 40.765625 12.171875 48.375 
Q 18.84375 56 30.609375 56 
z
" id="DejaVuSans-111"/>
      <path d="M 28.609375 0 
L 0.78125 72.90625 
L 11.078125 72.90625 
L 34.1875 11.53125 
L 57.328125 72.90625 
L 67.578125 72.90625 
L 39.796875 0 
z
" id="DejaVuSans-86"/>
      <path d="M 48.78125 52.59375 
L 48.78125 44.1875 
Q 44.96875 46.296875 41.140625 47.34375 
Q 37.3125 48.390625 33.40625 48.390625 
Q 24.65625 48.390625 19.8125 42.84375 
Q 14.984375 37.3125 14.984375 27.296875 
Q 14.984375 17.28125 19.8125 11.734375 
Q 24.65625 6.203125 33.40625 6.203125 
Q 37.3125 6.203125 41.140625 7.25 
Q 44.96875 8.296875 48.78125 10.40625 
L 48.78125 2.09375 
Q 45.015625 0.34375 40.984375 -0.53125 
Q 36.96875 -1.421875 32.421875 -1.421875 
Q 20.0625 -1.421875 12.78125 6.34375 
Q 5.515625 14.109375 5.515625 27.296875 
Q 5.515625 40.671875 12.859375 48.328125 
Q 20.21875 56 33.015625 56 
Q 37.15625 56 41.109375 55.140625 
Q 45.0625 54.296875 48.78125 52.59375 
z
" id="DejaVuSans-99"/>
      <path d="M 32.171875 -5.078125 
Q 28.375 -14.84375 24.75 -17.8125 
Q 21.140625 -20.796875 15.09375 -20.796875 
L 7.90625 -20.796875 
L 7.90625 -13.28125 
L 13.1875 -13.28125 
Q 16.890625 -13.28125 18.9375 -11.515625 
Q 21 -9.765625 23.484375 -3.21875 
L 25.09375 0.875 
L 2.984375 54.6875 
L 12.5 54.6875 
L 29.59375 11.921875 
L 46.6875 54.6875 
L 56.203125 54.6875 
z
" id="DejaVuSans-121"/>
     </defs>
     <use xlink:href="#DejaVuSans-84"/>
     <use x="46.333984" xlink:href="#DejaVuSans-114"/>
     <use x="87.447266" xlink:href="#DejaVuSans-97"/>
     <use x="148.726562" xlink:href="#DejaVuSans-110"/>
     <use x="212.105469" xlink:href="#DejaVuSans-115"/>
     <use x="264.205078" xlink:href="#DejaVuSans-108"/>
     <use x="291.988281" xlink:href="#DejaVuSans-97"/>
     <use x="353.267578" xlink:href="#DejaVuSans-116"/>
     <use x="392.476562" xlink:href="#DejaVuSans-105"/>
     <use x="420.259766" xlink:href="#DejaVuSans-111"/>
     <use x="481.441406" xlink:href="#DejaVuSans-110"/>
     <use x="544.820312" xlink:href="#DejaVuSans-97"/>
     <use x="606.099609" xlink:href="#DejaVuSans-108"/>
     <use x="633.882812" xlink:href="#DejaVuSans-32"/>
     <use x="665.669922" xlink:href="#DejaVuSans-86"/>
     <use x="726.328125" xlink:href="#DejaVuSans-101"/>
     <use x="787.851562" xlink:href="#DejaVuSans-108"/>
     <use x="815.634766" xlink:href="#DejaVuSans-111"/>
     <use x="876.816406" xlink:href="#DejaVuSans-99"/>
     <use x="931.796875" xlink:href="#DejaVuSans-105"/>
     <use x="959.580078" xlink:href="#DejaVuSans-116"/>
     <use x="998.789062" xlink:href="#DejaVuSans-121"/>
    </g>
   </g>
   <g id="legend_1">
    <g id="patch_7">
     <path d="M 55.476475 141.14 
L 137.993662 141.14 
Q 139.993662 141.14 139.993662 139.14 
L 139.993662 110.78375 
Q 139.993662 108.78375 137.993662 108.78375 
L 55.476475 108.78375 
Q 53.476475 108.78375 53.476475 110.78375 
L 53.476475 139.14 
Q 53.476475 141.14 55.476475 141.14 
z
" style="fill:#ffffff;opacity:0.8;stroke:#cccccc;stroke-linejoin:miter;"/>
    </g>
    <g id="line2d_21">
     <path d="M 57.476475 116.882188 
L 77.476475 116.882188 
" style="fill:none;stroke:#1f77b4;stroke-linecap:square;stroke-width:2;"/>
    </g>
    <g id="line2d_22"/>
    <g id="text_14">
     <!-- Reference -->
     <g transform="translate(85.476475 120.382188)scale(0.1 -0.1)">
      <defs>
       <path d="M 44.390625 34.1875 
Q 47.5625 33.109375 50.5625 29.59375 
Q 53.5625 26.078125 56.59375 19.921875 
L 66.609375 0 
L 56 0 
L 46.6875 18.703125 
Q 43.0625 26.03125 39.671875 28.421875 
Q 36.28125 30.8125 30.421875 30.8125 
L 19.671875 30.8125 
L 19.671875 0 
L 9.8125 0 
L 9.8125 72.90625 
L 32.078125 72.90625 
Q 44.578125 72.90625 50.734375 67.671875 
Q 56.890625 62.453125 56.890625 51.90625 
Q 56.890625 45.015625 53.6875 40.46875 
Q 50.484375 35.9375 44.390625 34.1875 
z
M 19.671875 64.796875 
L 19.671875 38.921875 
L 32.078125 38.921875 
Q 39.203125 38.921875 42.84375 42.21875 
Q 46.484375 45.515625 46.484375 51.90625 
Q 46.484375 58.296875 42.84375 61.546875 
Q 39.203125 64.796875 32.078125 64.796875 
z
" id="DejaVuSans-82"/>
       <path d="M 37.109375 75.984375 
L 37.109375 68.5 
L 28.515625 68.5 
Q 23.6875 68.5 21.796875 66.546875 
Q 19.921875 64.59375 19.921875 59.515625 
L 19.921875 54.6875 
L 34.71875 54.6875 
L 34.71875 47.703125 
L 19.921875 47.703125 
L 19.921875 0 
L 10.890625 0 
L 10.890625 47.703125 
L 2.296875 47.703125 
L 2.296875 54.6875 
L 10.890625 54.6875 
L 10.890625 58.5 
Q 10.890625 67.625 15.140625 71.796875 
Q 19.390625 75.984375 28.609375 75.984375 
z
" id="DejaVuSans-102"/>
      </defs>
      <use xlink:href="#DejaVuSans-82"/>
      <use x="64.982422" xlink:href="#DejaVuSans-101"/>
      <use x="126.505859" xlink:href="#DejaVuSans-102"/>
      <use x="161.710938" xlink:href="#DejaVuSans-101"/>
      <use x="223.234375" xlink:href="#DejaVuSans-114"/>
      <use x="262.097656" xlink:href="#DejaVuSans-101"/>
      <use x="323.621094" xlink:href="#DejaVuSans-110"/>
      <use x="387" xlink:href="#DejaVuSans-99"/>
      <use x="441.980469" xlink:href="#DejaVuSans-101"/>
     </g>
    </g>
    <g id="line2d_23">
     <path d="M 57.476475 131.560313 
L 77.476475 131.560313 
" style="fill:none;stroke:#ff7f0e;stroke-linecap:square;stroke-width:2;"/>
    </g>
    <g id="line2d_24"/>
    <g id="text_15">
     <!-- Estimated -->
     <g transform="translate(85.476475 135.060313)scale(0.1 -0.1)">
      <defs>
       <path d="M 9.8125 72.90625 
L 55.90625 72.90625 
L 55.90625 64.59375 
L 19.671875 64.59375 
L 19.671875 43.015625 
L 54.390625 43.015625 
L 54.390625 34.71875 
L 19.671875 34.71875 
L 19.671875 8.296875 
L 56.78125 8.296875 
L 56.78125 0 
L 9.8125 0 
z
" id="DejaVuSans-69"/>
       <path d="M 45.40625 46.390625 
L 45.40625 75.984375 
L 54.390625 75.984375 
L 54.390625 0 
L 45.40625 0 
L 45.40625 8.203125 
Q 42.578125 3.328125 38.25 0.953125 
Q 33.9375 -1.421875 27.875 -1.421875 
Q 17.96875 -1.421875 11.734375 6.484375 
Q 5.515625 14.40625 5.515625 27.296875 
Q 5.515625 40.1875 11.734375 48.09375 
Q 17.96875 56 27.875 56 
Q 33.9375 56 38.25 53.625 
Q 42.578125 51.265625 45.40625 46.390625 
z
M 14.796875 27.296875 
Q 14.796875 17.390625 18.875 11.75 
Q 22.953125 6.109375 30.078125 6.109375 
Q 37.203125 6.109375 41.296875 11.75 
Q 45.40625 17.390625 45.40625 27.296875 
Q 45.40625 37.203125 41.296875 42.84375 
Q 37.203125 48.484375 30.078125 48.484375 
Q 22.953125 48.484375 18.875 42.84375 
Q 14.796875 37.203125 14.796875 27.296875 
z
" id="DejaVuSans-100"/>
      </defs>
      <use xlink:href="#DejaVuSans-69"/>
      <use x="63.183594" xlink:href="#DejaVuSans-115"/>
      <use x="115.283203" xlink:href="#DejaVuSans-116"/>
      <use x="154.492188" xlink:href="#DejaVuSans-105"/>
      <use x="182.275391" xlink:href="#DejaVuSans-109"/>
      <use x="279.6875" xlink:href="#DejaVuSans-97"/>
      <use x="340.966797" xlink:href="#DejaVuSans-116"/>
      <use x="380.175781" xlink:href="#DejaVuSans-101"/>
      <use x="441.699219" xlink:href="#DejaVuSans-100"/>
     </g>
    </g>
   </g>
  </g>
  <g id="axes_2">
   <g id="patch_8">
    <path d="M 48.476475 323.44 
L 565.2 323.44 
L 565.2 204.18 
L 48.476475 204.18 
z
" style="fill:#ffffff;"/>
   </g>
   <g id="matplotlib.axis_3">
    <g id="xtick_6">
     <g id="line2d_25">
      <path clip-path="url(#p71823801db)" d="M 71.963908 323.44 
L 71.963908 204.18 
" style="fill:none;stroke:#b0b0b0;stroke-linecap:square;stroke-width:0.8;"/>
     </g>
     <g id="line2d_26">
      <g>
       <use style="stroke:#000000;stroke-width:0.8;" x="71.963908" xlink:href="#m4094f1f12e" y="323.44"/>
      </g>
     </g>
     <g id="text_16">
      <!-- 0.0 -->
      <g transform="translate(64.012345 338.038438)scale(0.1 -0.1)">
       <use xlink:href="#DejaVuSans-48"/>
       <use x="63.623047" xlink:href="#DejaVuSans-46"/>
       <use x="95.410156" xlink:href="#DejaVuSans-48"/>
      </g>
     </g>
    </g>
    <g id="xtick_7">
     <g id="line2d_27">
      <path clip-path="url(#p71823801db)" d="M 172.768341 323.44 
L 172.768341 204.18 
" style="fill:none;stroke:#b0b0b0;stroke-linecap:square;stroke-width:0.8;"/>
     </g>
     <g id="line2d_28">
      <g>
       <use style="stroke:#000000;stroke-width:0.8;" x="172.768341" xlink:href="#m4094f1f12e" y="323.44"/>
      </g>
     </g>
     <g id="text_17">
      <!-- 0.1 -->
      <g transform="translate(164.816778 338.038438)scale(0.1 -0.1)">
       <use xlink:href="#DejaVuSans-48"/>
       <use x="63.623047" xlink:href="#DejaVuSans-46"/>
       <use x="95.410156" xlink:href="#DejaVuSans-49"/>
      </g>
     </g>
    </g>
    <g id="xtick_8">
     <g id="line2d_29">
      <path clip-path="url(#p71823801db)" d="M 273.572774 323.44 
L 273.572774 204.18 
" style="fill:none;stroke:#b0b0b0;stroke-linecap:square;stroke-width:0.8;"/>
     </g>
     <g id="line2d_30">
      <g>
       <use style="stroke:#000000;stroke-width:0.8;" x="273.572774" xlink:href="#m4094f1f12e" y="323.44"/>
      </g>
     </g>
     <g id="text_18">
      <!-- 0.2 -->
      <g transform="translate(265.621212 338.038438)scale(0.1 -0.1)">
       <use xlink:href="#DejaVuSans-48"/>
       <use x="63.623047" xlink:href="#DejaVuSans-46"/>
       <use x="95.410156" xlink:href="#DejaVuSans-50"/>
      </g>
     </g>
    </g>
    <g id="xtick_9">
     <g id="line2d_31">
      <path clip-path="url(#p71823801db)" d="M 374.377208 323.44 
L 374.377208 204.18 
" style="fill:none;stroke:#b0b0b0;stroke-linecap:square;stroke-width:0.8;"/>
     </g>
     <g id="line2d_32">
      <g>
       <use style="stroke:#000000;stroke-width:0.8;" x="374.377208" xlink:href="#m4094f1f12e" y="323.44"/>
      </g>
     </g>
     <g id="text_19">
      <!-- 0.3 -->
      <g transform="translate(366.425645 338.038438)scale(0.1 -0.1)">
       <use xlink:href="#DejaVuSans-48"/>
       <use x="63.623047" xlink:href="#DejaVuSans-46"/>
       <use x="95.410156" xlink:href="#DejaVuSans-51"/>
      </g>
     </g>
    </g>
    <g id="xtick_10">
     <g id="line2d_33">
      <path clip-path="url(#p71823801db)" d="M 475.181641 323.44 
L 475.181641 204.18 
" style="fill:none;stroke:#b0b0b0;stroke-linecap:square;stroke-width:0.8;"/>
     </g>
     <g id="line2d_34">
      <g>
       <use style="stroke:#000000;stroke-width:0.8;" x="475.181641" xlink:href="#m4094f1f12e" y="323.44"/>
      </g>
     </g>
     <g id="text_20">
      <!-- 0.4 -->
      <g transform="translate(467.230079 338.038438)scale(0.1 -0.1)">
       <use xlink:href="#DejaVuSans-48"/>
       <use x="63.623047" xlink:href="#DejaVuSans-46"/>
       <use x="95.410156" xlink:href="#DejaVuSans-52"/>
      </g>
     </g>
    </g>
    <g id="text_21">
     <!-- Time [ms] -->
     <g transform="translate(281.639019 351.716563)scale(0.1 -0.1)">
      <use xlink:href="#DejaVuSans-84"/>
      <use x="57.958984" xlink:href="#DejaVuSans-105"/>
      <use x="85.742188" xlink:href="#DejaVuSans-109"/>
      <use x="183.154297" xlink:href="#DejaVuSans-101"/>
      <use x="244.677734" xlink:href="#DejaVuSans-32"/>
      <use x="276.464844" xlink:href="#DejaVuSans-91"/>
      <use x="315.478516" xlink:href="#DejaVuSans-109"/>
      <use x="412.890625" xlink:href="#DejaVuSans-115"/>
      <use x="464.990234" xlink:href="#DejaVuSans-93"/>
     </g>
    </g>
   </g>
   <g id="matplotlib.axis_4">
    <g id="ytick_5">
     <g id="line2d_35">
      <path clip-path="url(#p71823801db)" d="M 48.476475 318.019091 
L 565.2 318.019091 
" style="fill:none;stroke:#b0b0b0;stroke-linecap:square;stroke-width:0.8;"/>
     </g>
     <g id="line2d_36">
      <g>
       <use style="stroke:#000000;stroke-width:0.8;" x="48.476475" xlink:href="#m34d45ab8c2" y="318.019091"/>
      </g>
     </g>
     <g id="text_22">
      <!-- $\mathdefault{−5.0}$ -->
      <g transform="translate(17.176475 321.81831)scale(0.1 -0.1)">
       <use transform="translate(0 0.78125)" xlink:href="#DejaVuSans-8722"/>
       <use transform="translate(83.789062 0.78125)" xlink:href="#DejaVuSans-53"/>
       <use transform="translate(147.412109 0.78125)" xlink:href="#DejaVuSans-46"/>
       <use transform="translate(179.199219 0.78125)" xlink:href="#DejaVuSans-48"/>
      </g>
     </g>
    </g>
    <g id="ytick_6">
     <g id="line2d_37">
      <path clip-path="url(#p71823801db)" d="M 48.476475 290.914545 
L 565.2 290.914545 
" style="fill:none;stroke:#b0b0b0;stroke-linecap:square;stroke-width:0.8;"/>
     </g>
     <g id="line2d_38">
      <g>
       <use style="stroke:#000000;stroke-width:0.8;" x="48.476475" xlink:href="#m34d45ab8c2" y="290.914545"/>
      </g>
     </g>
     <g id="text_23">
      <!-- $\mathdefault{−2.5}$ -->
      <g transform="translate(17.176475 294.713764)scale(0.1 -0.1)">
       <use transform="translate(0 0.78125)" xlink:href="#DejaVuSans-8722"/>
       <use transform="translate(83.789062 0.78125)" xlink:href="#DejaVuSans-50"/>
       <use transform="translate(147.412109 0.78125)" xlink:href="#DejaVuSans-46"/>
       <use transform="translate(179.199219 0.78125)" xlink:href="#DejaVuSans-53"/>
      </g>
     </g>
    </g>
    <g id="ytick_7">
     <g id="line2d_39">
      <path clip-path="url(#p71823801db)" d="M 48.476475 263.81 
L 565.2 263.81 
" style="fill:none;stroke:#b0b0b0;stroke-linecap:square;stroke-width:0.8;"/>
     </g>
     <g id="line2d_40">
      <g>
       <use style="stroke:#000000;stroke-width:0.8;" x="48.476475" xlink:href="#m34d45ab8c2" y="263.81"/>
      </g>
     </g>
     <g id="text_24">
      <!-- $\mathdefault{0.0}$ -->
      <g transform="translate(25.476475 267.609219)scale(0.1 -0.1)">
       <use transform="translate(0 0.78125)" xlink:href="#DejaVuSans-48"/>
       <use transform="translate(63.623047 0.78125)" xlink:href="#DejaVuSans-46"/>
       <use transform="translate(95.410156 0.78125)" xlink:href="#DejaVuSans-48"/>
      </g>
     </g>
    </g>
    <g id="ytick_8">
     <g id="line2d_41">
      <path clip-path="url(#p71823801db)" d="M 48.476475 236.705455 
L 565.2 236.705455 
" style="fill:none;stroke:#b0b0b0;stroke-linecap:square;stroke-width:0.8;"/>
     </g>
     <g id="line2d_42">
      <g>
       <use style="stroke:#000000;stroke-width:0.8;" x="48.476475" xlink:href="#m34d45ab8c2" y="236.705455"/>
      </g>
     </g>
     <g id="text_25">
      <!-- $\mathdefault{2.5}$ -->
      <g transform="translate(25.476475 240.504673)scale(0.1 -0.1)">
       <use transform="translate(0 0.78125)" xlink:href="#DejaVuSans-50"/>
       <use transform="translate(63.623047 0.78125)" xlink:href="#DejaVuSans-46"/>
       <use transform="translate(95.410156 0.78125)" xlink:href="#DejaVuSans-53"/>
      </g>
     </g>
    </g>
    <g id="ytick_9">
     <g id="line2d_43">
      <path clip-path="url(#p71823801db)" d="M 48.476475 209.600909 
L 565.2 209.600909 
" style="fill:none;stroke:#b0b0b0;stroke-linecap:square;stroke-width:0.8;"/>
     </g>
     <g id="line2d_44">
      <g>
       <use style="stroke:#000000;stroke-width:0.8;" x="48.476475" xlink:href="#m34d45ab8c2" y="209.600909"/>
      </g>
     </g>
     <g id="text_26">
      <!-- $\mathdefault{5.0}$ -->
      <g transform="translate(25.476475 213.400128)scale(0.1 -0.1)">
       <use transform="translate(0 0.78125)" xlink:href="#DejaVuSans-53"/>
       <use transform="translate(63.623047 0.78125)" xlink:href="#DejaVuSans-46"/>
       <use transform="translate(95.410156 0.78125)" xlink:href="#DejaVuSans-48"/>
      </g>
     </g>
    </g>
    <g id="text_27">
     <!-- pwm input -->
     <g transform="translate(11.096787 290.393594)rotate(-90)scale(0.1 -0.1)">
      <defs>
       <path d="M 18.109375 8.203125 
L 18.109375 -20.796875 
L 9.078125 -20.796875 
L 9.078125 54.6875 
L 18.109375 54.6875 
L 18.109375 46.390625 
Q 20.953125 51.265625 25.265625 53.625 
Q 29.59375 56 35.59375 56 
Q 45.5625 56 51.78125 48.09375 
Q 58.015625 40.1875 58.015625 27.296875 
Q 58.015625 14.40625 51.78125 6.484375 
Q 45.5625 -1.421875 35.59375 -1.421875 
Q 29.59375 -1.421875 25.265625 0.953125 
Q 20.953125 3.328125 18.109375 8.203125 
z
M 48.6875 27.296875 
Q 48.6875 37.203125 44.609375 42.84375 
Q 40.53125 48.484375 33.40625 48.484375 
Q 26.265625 48.484375 22.1875 42.84375 
Q 18.109375 37.203125 18.109375 27.296875 
Q 18.109375 17.390625 22.1875 11.75 
Q 26.265625 6.109375 33.40625 6.109375 
Q 40.53125 6.109375 44.609375 11.75 
Q 48.6875 17.390625 48.6875 27.296875 
z
" id="DejaVuSans-112"/>
       <path d="M 4.203125 54.6875 
L 13.1875 54.6875 
L 24.421875 12.015625 
L 35.59375 54.6875 
L 46.1875 54.6875 
L 57.421875 12.015625 
L 68.609375 54.6875 
L 77.59375 54.6875 
L 63.28125 0 
L 52.6875 0 
L 40.921875 44.828125 
L 29.109375 0 
L 18.5 0 
z
" id="DejaVuSans-119"/>
       <path d="M 8.5 21.578125 
L 8.5 54.6875 
L 17.484375 54.6875 
L 17.484375 21.921875 
Q 17.484375 14.15625 20.5 10.265625 
Q 23.53125 6.390625 29.59375 6.390625 
Q 36.859375 6.390625 41.078125 11.03125 
Q 45.3125 15.671875 45.3125 23.6875 
L 45.3125 54.6875 
L 54.296875 54.6875 
L 54.296875 0 
L 45.3125 0 
L 45.3125 8.40625 
Q 42.046875 3.421875 37.71875 1 
Q 33.40625 -1.421875 27.6875 -1.421875 
Q 18.265625 -1.421875 13.375 4.4375 
Q 8.5 10.296875 8.5 21.578125 
z
M 31.109375 56 
z
" id="DejaVuSans-117"/>
      </defs>
      <use xlink:href="#DejaVuSans-112"/>
      <use x="63.476562" xlink:href="#DejaVuSans-119"/>
      <use x="145.263672" xlink:href="#DejaVuSans-109"/>
      <use x="242.675781" xlink:href="#DejaVuSans-32"/>
      <use x="274.462891" xlink:href="#DejaVuSans-105"/>
      <use x="302.246094" xlink:href="#DejaVuSans-110"/>
      <use x="365.625" xlink:href="#DejaVuSans-112"/>
      <use x="429.101562" xlink:href="#DejaVuSans-117"/>
      <use x="492.480469" xlink:href="#DejaVuSans-116"/>
     </g>
    </g>
    <g id="text_28">
     <!-- $\times\mathdefault{10^{−2}}\mathdefault{}$ -->
     <g transform="translate(48.476475 201.18)scale(0.1 -0.1)">
      <use transform="translate(0 0.765625)" xlink:href="#DejaVuSans-215"/>
      <use transform="translate(83.789062 0.765625)" xlink:href="#DejaVuSans-49"/>
      <use transform="translate(147.412109 0.765625)" xlink:href="#DejaVuSans-48"/>
      <use transform="translate(211.992188 39.046875)scale(0.7)" xlink:href="#DejaVuSans-8722"/>
      <use transform="translate(270.644531 39.046875)scale(0.7)" xlink:href="#DejaVuSans-50"/>
     </g>
    </g>
   </g>
   <g id="line2d_45">
    <path clip-path="url(#p71823801db)" d="M 71.963908 263.81 
L 541.712567 263.81 
L 541.712567 263.81 
" style="fill:none;stroke:#1f77b4;stroke-linecap:square;stroke-width:2;"/>
   </g>
   <g id="line2d_46">
    <path clip-path="url(#p71823801db)" d="M 71.963908 263.81 
L 541.712567 263.81 
L 541.712567 263.81 
" style="fill:none;stroke:#ff7f0e;stroke-linecap:square;stroke-width:2;"/>
   </g>
   <g id="line2d_47">
    <path clip-path="url(#p71823801db)" d="M 71.963908 263.81 
L 541.712567 263.81 
L 541.712567 263.81 
" style="fill:none;stroke:#2ca02c;stroke-linecap:square;stroke-width:2;"/>
   </g>
   <g id="line2d_48">
    <path clip-path="url(#p71823801db)" d="M 71.963908 263.81 
L 541.712567 263.81 
L 541.712567 263.81 
" style="fill:none;stroke:#d62728;stroke-linecap:square;stroke-width:2;"/>
   </g>
   <g id="line2d_49">
    <path clip-path="url(#p71823801db)" d="M 71.963908 263.81 
L 541.712567 263.81 
L 541.712567 263.81 
" style="fill:none;stroke:#9467bd;stroke-linecap:square;stroke-width:2;"/>
   </g>
   <g id="patch_9">
    <path d="M 48.476475 323.44 
L 48.476475 204.18 
" style="fill:none;stroke:#000000;stroke-linecap:square;stroke-linejoin:miter;stroke-width:0.8;"/>
   </g>
   <g id="patch_10">
    <path d="M 565.2 323.44 
L 565.2 204.18 
" style="fill:none;stroke:#000000;stroke-linecap:square;stroke-linejoin:miter;stroke-width:0.8;"/>
   </g>
   <g id="patch_11">
    <path d="M 48.476475 323.44 
L 565.2 323.44 
" style="fill:none;stroke:#000000;stroke-linecap:square;stroke-linejoin:miter;stroke-width:0.8;"/>
   </g>
   <g id="patch_12">
    <path d="M 48.476475 204.18 
L 565.2 204.18 
" style="fill:none;stroke:#000000;stroke-linecap:square;stroke-linejoin:miter;stroke-width:0.8;"/>
   </g>
   <g id="text_29">
    <!-- Translational PWM Input -->
    <g transform="translate(234.729487 198.18)scale(0.12 -0.12)">
     <defs>
      <path d="M 19.671875 64.796875 
L 19.671875 37.40625 
L 32.078125 37.40625 
Q 38.96875 37.40625 42.71875 40.96875 
Q 46.484375 44.53125 46.484375 51.125 
Q 46.484375 57.671875 42.71875 61.234375 
Q 38.96875 64.796875 32.078125 64.796875 
z
M 9.8125 72.90625 
L 32.078125 72.90625 
Q 44.34375 72.90625 50.609375 67.359375 
Q 56.890625 61.8125 56.890625 51.125 
Q 56.890625 40.328125 50.609375 34.8125 
Q 44.34375 29.296875 32.078125 29.296875 
L 19.671875 29.296875 
L 19.671875 0 
L 9.8125 0 
z
" id="DejaVuSans-80"/>
      <path d="M 3.328125 72.90625 
L 13.28125 72.90625 
L 28.609375 11.28125 
L 43.890625 72.90625 
L 54.984375 72.90625 
L 70.3125 11.28125 
L 85.59375 72.90625 
L 95.609375 72.90625 
L 77.296875 0 
L 64.890625 0 
L 49.515625 63.28125 
L 33.984375 0 
L 21.578125 0 
z
" id="DejaVuSans-87"/>
      <path d="M 9.8125 72.90625 
L 24.515625 72.90625 
L 43.109375 23.296875 
L 61.8125 72.90625 
L 76.515625 72.90625 
L 76.515625 0 
L 66.890625 0 
L 66.890625 64.015625 
L 48.09375 14.015625 
L 38.1875 14.015625 
L 19.390625 64.015625 
L 19.390625 0 
L 9.8125 0 
z
" id="DejaVuSans-77"/>
      <path d="M 9.8125 72.90625 
L 19.671875 72.90625 
L 19.671875 0 
L 9.8125 0 
z
" id="DejaVuSans-73"/>
     </defs>
     <use xlink:href="#DejaVuSans-84"/>
     <use x="46.333984" xlink:href="#DejaVuSans-114"/>
     <use x="87.447266" xlink:href="#DejaVuSans-97"/>
     <use x="148.726562" xlink:href="#DejaVuSans-110"/>
     <use x="212.105469" xlink:href="#DejaVuSans-115"/>
     <use x="264.205078" xlink:href="#DejaVuSans-108"/>
     <use x="291.988281" xlink:href="#DejaVuSans-97"/>
     <use x="353.267578" xlink:href="#DejaVuSans-116"/>
     <use x="392.476562" xlink:href="#DejaVuSans-105"/>
     <use x="420.259766" xlink:href="#DejaVuSans-111"/>
     <use x="481.441406" xlink:href="#DejaVuSans-110"/>
     <use x="544.820312" xlink:href="#DejaVuSans-97"/>
     <use x="606.099609" xlink:href="#DejaVuSans-108"/>
     <use x="633.882812" xlink:href="#DejaVuSans-32"/>
     <use x="665.669922" xlink:href="#DejaVuSans-80"/>
     <use x="725.972656" xlink:href="#DejaVuSans-87"/>
     <use x="824.849609" xlink:href="#DejaVuSans-77"/>
     <use x="911.128906" xlink:href="#DejaVuSans-32"/>
     <use x="942.916016" xlink:href="#DejaVuSans-73"/>
     <use x="972.408203" xlink:href="#DejaVuSans-110"/>
     <use x="1035.787109" xlink:href="#DejaVuSans-112"/>
     <use x="1099.263672" xlink:href="#DejaVuSans-117"/>
     <use x="1162.642578" xlink:href="#DejaVuSans-116"/>
    </g>
   </g>
   <g id="legend_2">
    <g id="patch_13">
     <path d="M 227.354687 226.858125 
L 558.2 226.858125 
Q 560.2 226.858125 560.2 224.858125 
L 560.2 211.18 
Q 560.2 209.18 558.2 209.18 
L 227.354687 209.18 
Q 225.354687 209.18 225.354687 211.18 
L 225.354687 224.858125 
Q 225.354687 226.858125 227.354687 226.858125 
z
" style="fill:#ffffff;opacity:0.8;stroke:#cccccc;stroke-linejoin:miter;"/>
    </g>
    <g id="line2d_50">
     <path d="M 229.354687 217.278438 
L 249.354687 217.278438 
" style="fill:none;stroke:#1f77b4;stroke-linecap:square;stroke-width:2;"/>
    </g>
    <g id="line2d_51"/>
    <g id="text_30">
     <!-- FF -->
     <g transform="translate(257.354687 220.778438)scale(0.1 -0.1)">
      <defs>
       <path d="M 9.8125 72.90625 
L 51.703125 72.90625 
L 51.703125 64.59375 
L 19.671875 64.59375 
L 19.671875 43.109375 
L 48.578125 43.109375 
L 48.578125 34.8125 
L 19.671875 34.8125 
L 19.671875 0 
L 9.8125 0 
z
" id="DejaVuSans-70"/>
      </defs>
      <use xlink:href="#DejaVuSans-70"/>
      <use x="57.519531" xlink:href="#DejaVuSans-70"/>
     </g>
    </g>
    <g id="line2d_52">
     <path d="M 288.857812 217.278438 
L 308.857812 217.278438 
" style="fill:none;stroke:#ff7f0e;stroke-linecap:square;stroke-width:2;"/>
    </g>
    <g id="line2d_53"/>
    <g id="text_31">
     <!-- FB p -->
     <g transform="translate(316.857812 220.778438)scale(0.1 -0.1)">
      <defs>
       <path d="M 19.671875 34.8125 
L 19.671875 8.109375 
L 35.5 8.109375 
Q 43.453125 8.109375 47.28125 11.40625 
Q 51.125 14.703125 51.125 21.484375 
Q 51.125 28.328125 47.28125 31.5625 
Q 43.453125 34.8125 35.5 34.8125 
z
M 19.671875 64.796875 
L 19.671875 42.828125 
L 34.28125 42.828125 
Q 41.5 42.828125 45.03125 45.53125 
Q 48.578125 48.25 48.578125 53.8125 
Q 48.578125 59.328125 45.03125 62.0625 
Q 41.5 64.796875 34.28125 64.796875 
z
M 9.8125 72.90625 
L 35.015625 72.90625 
Q 46.296875 72.90625 52.390625 68.21875 
Q 58.5 63.53125 58.5 54.890625 
Q 58.5 48.1875 55.375 44.234375 
Q 52.25 40.28125 46.1875 39.3125 
Q 53.46875 37.75 57.5 32.78125 
Q 61.53125 27.828125 61.53125 20.40625 
Q 61.53125 10.640625 54.890625 5.3125 
Q 48.25 0 35.984375 0 
L 9.8125 0 
z
" id="DejaVuSans-66"/>
      </defs>
      <use xlink:href="#DejaVuSans-70"/>
      <use x="57.519531" xlink:href="#DejaVuSans-66"/>
      <use x="126.123047" xlink:href="#DejaVuSans-32"/>
      <use x="157.910156" xlink:href="#DejaVuSans-112"/>
     </g>
    </g>
    <g id="line2d_54">
     <path d="M 358.996875 217.278438 
L 378.996875 217.278438 
" style="fill:none;stroke:#2ca02c;stroke-linecap:square;stroke-width:2;"/>
    </g>
    <g id="line2d_55"/>
    <g id="text_32">
     <!-- FB i -->
     <g transform="translate(386.996875 220.778438)scale(0.1 -0.1)">
      <use xlink:href="#DejaVuSans-70"/>
      <use x="57.519531" xlink:href="#DejaVuSans-66"/>
      <use x="126.123047" xlink:href="#DejaVuSans-32"/>
      <use x="157.910156" xlink:href="#DejaVuSans-105"/>
     </g>
    </g>
    <g id="line2d_56">
     <path d="M 425.565625 217.278438 
L 445.565625 217.278438 
" style="fill:none;stroke:#d62728;stroke-linecap:square;stroke-width:2;"/>
    </g>
    <g id="line2d_57"/>
    <g id="text_33">
     <!-- FB d -->
     <g transform="translate(453.565625 220.778438)scale(0.1 -0.1)">
      <use xlink:href="#DejaVuSans-70"/>
      <use x="57.519531" xlink:href="#DejaVuSans-66"/>
      <use x="126.123047" xlink:href="#DejaVuSans-32"/>
      <use x="157.910156" xlink:href="#DejaVuSans-100"/>
     </g>
    </g>
    <g id="line2d_58">
     <path d="M 495.704687 217.278438 
L 515.704687 217.278438 
" style="fill:none;stroke:#9467bd;stroke-linecap:square;stroke-width:2;"/>
    </g>
    <g id="line2d_59"/>
    <g id="text_34">
     <!-- FF+FB -->
     <g transform="translate(523.704687 220.778438)scale(0.1 -0.1)">
      <defs>
       <path d="M 46 62.703125 
L 46 35.5 
L 73.1875 35.5 
L 73.1875 27.203125 
L 46 27.203125 
L 46 0 
L 37.796875 0 
L 37.796875 27.203125 
L 10.59375 27.203125 
L 10.59375 35.5 
L 37.796875 35.5 
L 37.796875 62.703125 
z
" id="DejaVuSans-43"/>
      </defs>
      <use xlink:href="#DejaVuSans-70"/>
      <use x="57.519531" xlink:href="#DejaVuSans-70"/>
      <use x="115.039062" xlink:href="#DejaVuSans-43"/>
      <use x="198.828125" xlink:href="#DejaVuSans-70"/>
      <use x="256.347656" xlink:href="#DejaVuSans-66"/>
     </g>
    </g>
   </g>
  </g>
  <g id="axes_3">
   <g id="patch_14">
    <path d="M 48.476475 500.74 
L 565.2 500.74 
L 565.2 381.48 
L 48.476475 381.48 
z
" style="fill:#ffffff;"/>
   </g>
   <g id="matplotlib.axis_5">
    <g id="xtick_11">
     <g id="line2d_60">
      <path clip-path="url(#p37d309d83f)" d="M 71.963908 500.74 
L 71.963908 381.48 
" style="fill:none;stroke:#b0b0b0;stroke-linecap:square;stroke-width:0.8;"/>
     </g>
     <g id="line2d_61">
      <g>
       <use style="stroke:#000000;stroke-width:0.8;" x="71.963908" xlink:href="#m4094f1f12e" y="500.74"/>
      </g>
     </g>
     <g id="text_35">
      <!-- 0.0 -->
      <g transform="translate(64.012345 515.338438)scale(0.1 -0.1)">
       <use xlink:href="#DejaVuSans-48"/>
       <use x="63.623047" xlink:href="#DejaVuSans-46"/>
       <use x="95.410156" xlink:href="#DejaVuSans-48"/>
      </g>
     </g>
    </g>
    <g id="xtick_12">
     <g id="line2d_62">
      <path clip-path="url(#p37d309d83f)" d="M 172.768341 500.74 
L 172.768341 381.48 
" style="fill:none;stroke:#b0b0b0;stroke-linecap:square;stroke-width:0.8;"/>
     </g>
     <g id="line2d_63">
      <g>
       <use style="stroke:#000000;stroke-width:0.8;" x="172.768341" xlink:href="#m4094f1f12e" y="500.74"/>
      </g>
     </g>
     <g id="text_36">
      <!-- 0.1 -->
      <g transform="translate(164.816778 515.338438)scale(0.1 -0.1)">
       <use xlink:href="#DejaVuSans-48"/>
       <use x="63.623047" xlink:href="#DejaVuSans-46"/>
       <use x="95.410156" xlink:href="#DejaVuSans-49"/>
      </g>
     </g>
    </g>
    <g id="xtick_13">
     <g id="line2d_64">
      <path clip-path="url(#p37d309d83f)" d="M 273.572774 500.74 
L 273.572774 381.48 
" style="fill:none;stroke:#b0b0b0;stroke-linecap:square;stroke-width:0.8;"/>
     </g>
     <g id="line2d_65">
      <g>
       <use style="stroke:#000000;stroke-width:0.8;" x="273.572774" xlink:href="#m4094f1f12e" y="500.74"/>
      </g>
     </g>
     <g id="text_37">
      <!-- 0.2 -->
      <g transform="translate(265.621212 515.338438)scale(0.1 -0.1)">
       <use xlink:href="#DejaVuSans-48"/>
       <use x="63.623047" xlink:href="#DejaVuSans-46"/>
       <use x="95.410156" xlink:href="#DejaVuSans-50"/>
      </g>
     </g>
    </g>
    <g id="xtick_14">
     <g id="line2d_66">
      <path clip-path="url(#p37d309d83f)" d="M 374.377208 500.74 
L 374.377208 381.48 
" style="fill:none;stroke:#b0b0b0;stroke-linecap:square;stroke-width:0.8;"/>
     </g>
     <g id="line2d_67">
      <g>
       <use style="stroke:#000000;stroke-width:0.8;" x="374.377208" xlink:href="#m4094f1f12e" y="500.74"/>
      </g>
     </g>
     <g id="text_38">
      <!-- 0.3 -->
      <g transform="translate(366.425645 515.338438)scale(0.1 -0.1)">
       <use xlink:href="#DejaVuSans-48"/>
       <use x="63.623047" xlink:href="#DejaVuSans-46"/>
       <use x="95.410156" xlink:href="#DejaVuSans-51"/>
      </g>
     </g>
    </g>
    <g id="xtick_15">
     <g id="line2d_68">
      <path clip-path="url(#p37d309d83f)" d="M 475.181641 500.74 
L 475.181641 381.48 
" style="fill:none;stroke:#b0b0b0;stroke-linecap:square;stroke-width:0.8;"/>
     </g>
     <g id="line2d_69">
      <g>
       <use style="stroke:#000000;stroke-width:0.8;" x="475.181641" xlink:href="#m4094f1f12e" y="500.74"/>
      </g>
     </g>
     <g id="text_39">
      <!-- 0.4 -->
      <g transform="translate(467.230079 515.338438)scale(0.1 -0.1)">
       <use xlink:href="#DejaVuSans-48"/>
       <use x="63.623047" xlink:href="#DejaVuSans-46"/>
       <use x="95.410156" xlink:href="#DejaVuSans-52"/>
      </g>
     </g>
    </g>
    <g id="text_40">
     <!-- Time [ms] -->
     <g transform="translate(281.639019 529.016562)scale(0.1 -0.1)">
      <use xlink:href="#DejaVuSans-84"/>
      <use x="57.958984" xlink:href="#DejaVuSans-105"/>
      <use x="85.742188" xlink:href="#DejaVuSans-109"/>
      <use x="183.154297" xlink:href="#DejaVuSans-101"/>
      <use x="244.677734" xlink:href="#DejaVuSans-32"/>
      <use x="276.464844" xlink:href="#DejaVuSans-91"/>
      <use x="315.478516" xlink:href="#DejaVuSans-109"/>
      <use x="412.890625" xlink:href="#DejaVuSans-115"/>
      <use x="464.990234" xlink:href="#DejaVuSans-93"/>
     </g>
    </g>
   </g>
   <g id="matplotlib.axis_6">
    <g id="ytick_10">
     <g id="line2d_70">
      <path clip-path="url(#p37d309d83f)" d="M 48.476475 478.266433 
L 565.2 478.266433 
" style="fill:none;stroke:#b0b0b0;stroke-linecap:square;stroke-width:0.8;"/>
     </g>
     <g id="line2d_71">
      <g>
       <use style="stroke:#000000;stroke-width:0.8;" x="48.476475" xlink:href="#m34d45ab8c2" y="478.266433"/>
      </g>
     </g>
     <g id="text_41">
      <!-- $\mathdefault{0.0}$ -->
      <g transform="translate(25.476475 482.065651)scale(0.1 -0.1)">
       <use transform="translate(0 0.78125)" xlink:href="#DejaVuSans-48"/>
       <use transform="translate(63.623047 0.78125)" xlink:href="#DejaVuSans-46"/>
       <use transform="translate(95.410156 0.78125)" xlink:href="#DejaVuSans-48"/>
      </g>
     </g>
    </g>
    <g id="ytick_11">
     <g id="line2d_72">
      <path clip-path="url(#p37d309d83f)" d="M 48.476475 454.031031 
L 565.2 454.031031 
" style="fill:none;stroke:#b0b0b0;stroke-linecap:square;stroke-width:0.8;"/>
     </g>
     <g id="line2d_73">
      <g>
       <use style="stroke:#000000;stroke-width:0.8;" x="48.476475" xlink:href="#m34d45ab8c2" y="454.031031"/>
      </g>
     </g>
     <g id="text_42">
      <!-- $\mathdefault{0.5}$ -->
      <g transform="translate(25.476475 457.83025)scale(0.1 -0.1)">
       <use transform="translate(0 0.78125)" xlink:href="#DejaVuSans-48"/>
       <use transform="translate(63.623047 0.78125)" xlink:href="#DejaVuSans-46"/>
       <use transform="translate(95.410156 0.78125)" xlink:href="#DejaVuSans-53"/>
      </g>
     </g>
    </g>
    <g id="ytick_12">
     <g id="line2d_74">
      <path clip-path="url(#p37d309d83f)" d="M 48.476475 429.79563 
L 565.2 429.79563 
" style="fill:none;stroke:#b0b0b0;stroke-linecap:square;stroke-width:0.8;"/>
     </g>
     <g id="line2d_75">
      <g>
       <use style="stroke:#000000;stroke-width:0.8;" x="48.476475" xlink:href="#m34d45ab8c2" y="429.79563"/>
      </g>
     </g>
     <g id="text_43">
      <!-- $\mathdefault{1.0}$ -->
      <g transform="translate(25.476475 433.594849)scale(0.1 -0.1)">
       <use transform="translate(0 0.78125)" xlink:href="#DejaVuSans-49"/>
       <use transform="translate(63.623047 0.78125)" xlink:href="#DejaVuSans-46"/>
       <use transform="translate(95.410156 0.78125)" xlink:href="#DejaVuSans-48"/>
      </g>
     </g>
    </g>
    <g id="ytick_13">
     <g id="line2d_76">
      <path clip-path="url(#p37d309d83f)" d="M 48.476475 405.560229 
L 565.2 405.560229 
" style="fill:none;stroke:#b0b0b0;stroke-linecap:square;stroke-width:0.8;"/>
     </g>
     <g id="line2d_77">
      <g>
       <use style="stroke:#000000;stroke-width:0.8;" x="48.476475" xlink:href="#m34d45ab8c2" y="405.560229"/>
      </g>
     </g>
     <g id="text_44">
      <!-- $\mathdefault{1.5}$ -->
      <g transform="translate(25.476475 409.359448)scale(0.1 -0.1)">
       <use transform="translate(0 0.09375)" xlink:href="#DejaVuSans-49"/>
       <use transform="translate(63.623047 0.09375)" xlink:href="#DejaVuSans-46"/>
       <use transform="translate(95.410156 0.09375)" xlink:href="#DejaVuSans-53"/>
      </g>
     </g>
    </g>
    <g id="text_45">
     <!-- vel. [rad/s] -->
     <g transform="translate(19.396787 468.1975)rotate(-90)scale(0.1 -0.1)">
      <use xlink:href="#DejaVuSans-118"/>
      <use x="59.179688" xlink:href="#DejaVuSans-101"/>
      <use x="120.703125" xlink:href="#DejaVuSans-108"/>
      <use x="148.486328" xlink:href="#DejaVuSans-46"/>
      <use x="180.273438" xlink:href="#DejaVuSans-32"/>
      <use x="212.060547" xlink:href="#DejaVuSans-91"/>
      <use x="251.074219" xlink:href="#DejaVuSans-114"/>
      <use x="292.1875" xlink:href="#DejaVuSans-97"/>
      <use x="353.466797" xlink:href="#DejaVuSans-100"/>
      <use x="416.943359" xlink:href="#DejaVuSans-47"/>
      <use x="450.634766" xlink:href="#DejaVuSans-115"/>
      <use x="502.734375" xlink:href="#DejaVuSans-93"/>
     </g>
    </g>
    <g id="text_46">
     <!-- $\times\mathdefault{10^{1}}\mathdefault{}$ -->
     <g transform="translate(48.476475 378.48)scale(0.1 -0.1)">
      <use transform="translate(0 0.684375)" xlink:href="#DejaVuSans-215"/>
      <use transform="translate(83.789062 0.684375)" xlink:href="#DejaVuSans-49"/>
      <use transform="translate(147.412109 0.684375)" xlink:href="#DejaVuSans-48"/>
      <use transform="translate(211.992188 38.965625)scale(0.7)" xlink:href="#DejaVuSans-49"/>
     </g>
    </g>
   </g>
   <g id="line2d_78">
    <path clip-path="url(#p37d309d83f)" d="M 71.963908 478.266433 
L 73.979996 478.120248 
L 75.996085 477.681695 
L 78.012174 476.95077 
L 80.028262 475.927479 
L 82.044351 474.611821 
L 84.06044 473.003812 
L 86.076528 471.103369 
L 88.092617 468.910647 
L 89.100661 467.704596 
L 90.108706 467.074185 
L 92.124794 464.369757 
L 114.30177 432.218346 
L 115.309814 430.756467 
L 116.317858 428.563502 
L 136.478745 399.4088 
L 138.494834 396.850511 
L 140.510922 394.584985 
L 142.527011 392.611254 
L 144.5431 390.930287 
L 146.559188 389.541598 
L 148.575277 388.445189 
L 150.591366 387.641058 
L 152.607454 387.129691 
L 154.623543 386.910119 
L 167.728119 386.900909 
L 409.658759 386.950834 
L 411.674848 387.266864 
L 413.690937 387.875657 
L 415.707025 388.776729 
L 417.723114 389.97008 
L 419.739203 391.456195 
L 421.755291 393.234104 
L 423.77138 395.304777 
L 425.787469 397.667728 
L 427.803557 400.322959 
L 435.867912 411.99182 
L 473.165552 465.978357 
L 475.181641 468.512701 
L 477.19773 470.75467 
L 479.213818 472.704263 
L 481.229907 474.361499 
L 483.245996 475.726378 
L 485.262084 476.798897 
L 487.278173 477.579054 
L 489.294262 478.06685 
L 491.31035 478.262284 
L 518.527547 478.266433 
L 541.712567 478.266433 
L 541.712567 478.266433 
" style="fill:none;stroke:#1f77b4;stroke-linecap:square;stroke-width:2;"/>
   </g>
   <g id="line2d_79">
    <path clip-path="url(#p37d309d83f)" d="M 71.963908 478.265478 
L 72.971952 478.22937 
L 74.988041 477.610366 
L 79.020218 476.950092 
L 81.036307 476.413617 
L 83.052395 476.145384 
L 84.06044 476.785019 
L 85.068484 476.67154 
L 86.076528 476.083482 
L 87.084573 476.109273 
L 90.108706 475.459319 
L 92.124794 474.530807 
L 93.132839 473.710623 
L 94.140883 470.445378 
L 95.148927 469.67159 
L 96.156972 469.305345 
L 98.17306 466.555935 
L 99.181105 465.49331 
L 100.189149 464.188233 
L 101.197193 463.605372 
L 102.205238 462.228074 
L 103.213282 461.170587 
L 104.221326 460.365874 
L 106.237415 458.178726 
L 108.253504 454.438913 
L 109.261548 453.190548 
L 111.277637 449.270181 
L 112.285681 447.516362 
L 114.30177 445.649024 
L 115.309814 443.147204 
L 116.317858 442.79642 
L 117.325903 439.809698 
L 118.333947 437.94236 
L 119.341991 437.772131 
L 120.350036 435.198137 
L 122.366124 433.810515 
L 123.374169 432.897471 
L 124.382213 432.350672 
L 125.390257 432.005075 
L 126.398302 429.255666 
L 127.406346 428.98229 
L 128.41439 428.311454 
L 129.422435 426.939731 
L 130.430479 424.999929 
L 131.438523 424.463357 
L 132.446568 423.03977 
L 133.454612 421.311786 
L 134.462656 422.01849 
L 135.470701 419.475227 
L 136.478745 417.757422 
L 137.486789 418.314836 
L 138.494834 417.737064 
L 139.502878 416.210234 
L 140.510922 416.653742 
L 141.518967 415.869484 
L 142.527011 415.400287 
L 143.535055 415.905837 
L 144.5431 415.941706 
L 145.551144 416.194723 
L 146.559188 416.772495 
L 148.575277 415.317886 
L 149.583321 416.323655 
L 150.591366 417.149113 
L 151.59941 417.334756 
L 152.607454 417.639153 
L 153.615499 418.541679 
L 155.631587 419.609491 
L 156.639632 420.316195 
L 157.647676 422.05969 
L 158.65572 422.673331 
L 159.663765 423.127502 
L 160.671809 423.338835 
L 161.679853 423.751806 
L 163.695942 425.087661 
L 164.703986 426.449691 
L 165.712031 428.224207 
L 166.720075 427.635771 
L 167.728119 427.955679 
L 171.760297 428.621183 
L 172.768341 429.070022 
L 173.776385 429.039001 
L 174.78443 429.183444 
L 175.792474 430.48852 
L 176.800518 430.148061 
L 177.808563 430.204821 
L 178.816607 430.622639 
L 179.824651 430.643288 
L 180.832696 430.787682 
L 182.848784 432.036048 
L 183.856829 432.288774 
L 184.864873 432.144331 
L 185.872917 431.540822 
L 187.889006 430.921801 
L 188.89705 431.251936 
L 190.913139 430.844441 
L 191.921183 431.07143 
L 192.929228 432.16498 
L 193.937272 431.24166 
L 195.953361 430.808331 
L 196.961405 430.756758 
L 197.969449 430.493658 
L 198.977494 430.060378 
L 199.985538 429.43113 
L 202.001627 428.714247 
L 204.017715 429.55473 
L 205.02576 428.873716 
L 206.033804 429.059843 
L 207.041848 429.40544 
L 210.065981 427.780214 
L 211.074026 427.367728 
L 213.090114 427.182085 
L 214.098159 427.408928 
L 215.106203 427.408928 
L 216.114247 426.789956 
L 217.122292 426.45987 
L 218.130336 426.387648 
L 219.13838 427.182085 
L 220.146425 428.445718 
L 221.154469 428.0279 
L 222.162513 428.605672 
L 223.170558 428.249896 
L 225.186646 428.306607 
L 226.194691 428.755447 
L 227.202735 429.58042 
L 228.210779 429.616773 
L 229.218824 429.823065 
L 232.242957 430.932125 
L 233.251001 431.09203 
L 234.259045 431.576932 
L 235.26709 431.932853 
L 237.283178 432.319747 
L 238.291223 433.170895 
L 239.299267 434.367639 
L 240.307311 434.898927 
L 242.3234 435.590169 
L 245.347533 437.318202 
L 246.355577 438.365365 
L 248.371666 439.066931 
L 249.37971 439.608544 
L 250.387755 440.733067 
L 251.395799 441.088988 
L 252.403843 441.754444 
L 254.419932 442.327029 
L 256.436021 444.116959 
L 258.452109 444.999031 
L 259.460154 445.128011 
L 260.468198 444.230429 
L 262.484287 444.684407 
L 263.492331 444.88556 
L 265.50842 445.783143 
L 267.524508 446.639428 
L 268.532553 447.196503 
L 269.540597 447.165579 
L 270.548641 447.645294 
L 271.556686 448.315888 
L 273.572774 449.311478 
L 276.596907 450.384428 
L 277.604952 450.466925 
L 278.612996 450.172901 
L 279.62104 449.564205 
L 282.645173 450.51336 
L 283.653218 450.368917 
L 284.661262 449.615826 
L 285.669306 450.038782 
L 287.685395 450.487573 
L 288.693439 450.363779 
L 289.701484 449.899526 
L 290.709528 450.214198 
L 291.717572 449.889201 
L 293.733661 450.255447 
L 294.741705 450.482436 
L 295.74975 450.931178 
L 297.765838 451.472839 
L 298.773883 451.477977 
L 299.781927 451.03951 
L 302.80606 450.503036 
L 303.814104 451.173629 
L 307.846282 451.849409 
L 309.86237 451.756539 
L 310.870415 451.065297 
L 311.878459 451.163305 
L 312.886503 451.374831 
L 313.894548 451.349045 
L 316.918681 452.28269 
L 317.926725 452.566389 
L 318.934769 452.633473 
L 319.942814 452.215654 
L 320.950858 452.669584 
L 322.966947 452.102136 
L 323.974991 452.710832 
L 324.983035 452.942959 
L 326.999124 453.236983 
L 328.007168 453.046153 
L 329.015213 453.144161 
L 330.023257 453.102864 
L 331.031301 452.530278 
L 332.039346 452.3188 
L 333.04739 452.442595 
L 334.055434 451.802974 
L 337.079567 451.591447 
L 340.1037 451.730753 
L 342.119789 451.777188 
L 343.127833 451.287148 
L 344.135878 450.301882 
L 345.143922 450.642341 
L 346.151966 450.353455 
L 347.160011 450.255447 
L 349.176099 450.601044 
L 351.192188 451.0034 
L 353.208277 451.307748 
L 354.216321 450.972475 
L 355.224365 450.915716 
L 357.240454 450.394703 
L 358.248498 450.632016 
L 361.272631 450.245122 
L 362.280676 450.312206 
L 363.28872 450.699052 
L 364.296764 450.662941 
L 365.304809 450.771273 
L 367.320897 451.281961 
L 368.328942 451.710104 
L 370.34503 452.210468 
L 372.361119 452.365235 
L 373.369163 452.803702 
L 376.393296 453.644525 
L 377.401341 453.773458 
L 378.409385 453.670312 
L 379.417429 453.856003 
L 380.425474 454.191276 
L 381.433518 454.340905 
L 383.449607 455.181728 
L 384.457651 454.4647 
L 386.47374 454.872194 
L 388.489828 455.460241 
L 389.497873 455.955468 
L 390.505917 456.115373 
L 391.513961 456.853002 
L 392.522006 457.430773 
L 393.53005 457.85373 
L 394.538094 457.85373 
L 396.554183 459.360008 
L 397.562227 459.798475 
L 398.570272 459.24649 
L 400.58636 460.443282 
L 401.594405 460.422634 
L 403.610493 461.712199 
L 404.618538 461.4285 
L 405.626582 461.738034 
L 406.634626 462.465339 
L 407.642671 462.965703 
L 408.650715 463.208154 
L 409.658759 463.001814 
L 410.666804 463.213292 
L 411.674848 463.868423 
L 413.690937 465.400488 
L 414.698981 466.060757 
L 415.707025 467.107872 
L 417.723114 468.727621 
L 418.731158 469.300207 
L 419.739203 470.703291 
L 420.747247 472.513869 
L 421.755291 472.580953 
L 422.763336 473.194787 
L 423.77138 474.701032 
L 425.787469 475.454157 
L 427.803557 477.182218 
L 428.811602 477.718688 
L 429.819646 478.647199 
L 431.835735 479.967743 
L 432.843779 480.251457 
L 439.900089 482.954451 
L 440.908134 483.325863 
L 441.916178 483.212393 
L 442.924222 482.423138 
L 443.932267 483.155634 
L 444.940311 483.07825 
L 445.948355 482.871915 
L 446.9564 483.150448 
L 447.964444 483.07825 
L 448.972488 483.341326 
L 450.988577 483.382574 
L 454.01271 484.863066 
L 456.028799 486.13717 
L 457.036843 486.694293 
L 458.044887 486.498277 
L 459.052932 486.539526 
L 460.060976 487.215257 
L 461.06902 487.452571 
L 463.085109 488.401726 
L 464.093153 488.773109 
L 465.101198 488.391401 
L 468.125331 490.150407 
L 472.157508 492.126077 
L 475.181641 494.70007 
L 476.189685 495.319091 
L 478.205774 493.658093 
L 479.213818 494.741367 
L 480.221863 495.148861 
L 482.237951 493.245413 
L 483.245996 493.214489 
L 485.262084 491.48127 
L 486.270129 490.243228 
L 487.278173 490.361885 
L 488.286217 489.799624 
L 489.294262 487.808492 
L 490.302306 487.101787 
L 491.31035 486.570499 
L 492.318395 485.688379 
L 493.326439 485.461438 
L 495.342528 484.697975 
L 496.350572 483.35165 
L 497.358616 482.593363 
L 498.366661 483.104042 
L 499.374705 482.593363 
L 500.382749 481.773179 
L 501.390794 481.592635 
L 502.398838 481.076799 
L 506.431015 479.751093 
L 509.455148 478.961863 
L 513.487326 478.348012 
L 514.49537 478.275795 
L 516.511459 478.476972 
L 518.527547 478.709099 
L 522.559725 478.760684 
L 524.575813 478.311904 
L 526.591902 478.26032 
L 534.656257 478.275795 
L 541.712567 478.280953 
L 541.712567 478.280953 
" style="fill:none;stroke:#ff7f0e;stroke-linecap:square;stroke-width:2;"/>
   </g>
   <g id="patch_15">
    <path d="M 48.476475 500.74 
L 48.476475 381.48 
" style="fill:none;stroke:#000000;stroke-linecap:square;stroke-linejoin:miter;stroke-width:0.8;"/>
   </g>
   <g id="patch_16">
    <path d="M 565.2 500.74 
L 565.2 381.48 
" style="fill:none;stroke:#000000;stroke-linecap:square;stroke-linejoin:miter;stroke-width:0.8;"/>
   </g>
   <g id="patch_17">
    <path d="M 48.476475 500.74 
L 565.2 500.74 
" style="fill:none;stroke:#000000;stroke-linecap:square;stroke-linejoin:miter;stroke-width:0.8;"/>
   </g>
   <g id="patch_18">
    <path d="M 48.476475 381.48 
L 565.2 381.48 
" style="fill:none;stroke:#000000;stroke-linecap:square;stroke-linejoin:miter;stroke-width:0.8;"/>
   </g>
   <g id="text_47">
    <!-- Rotational Velocity -->
    <g transform="translate(250.956675 375.48)scale(0.12 -0.12)">
     <use xlink:href="#DejaVuSans-82"/>
     <use x="64.982422" xlink:href="#DejaVuSans-111"/>
     <use x="126.164062" xlink:href="#DejaVuSans-116"/>
     <use x="165.373047" xlink:href="#DejaVuSans-97"/>
     <use x="226.652344" xlink:href="#DejaVuSans-116"/>
     <use x="265.861328" xlink:href="#DejaVuSans-105"/>
     <use x="293.644531" xlink:href="#DejaVuSans-111"/>
     <use x="354.826172" xlink:href="#DejaVuSans-110"/>
     <use x="418.205078" xlink:href="#DejaVuSans-97"/>
     <use x="479.484375" xlink:href="#DejaVuSans-108"/>
     <use x="507.267578" xlink:href="#DejaVuSans-32"/>
     <use x="539.054688" xlink:href="#DejaVuSans-86"/>
     <use x="599.712891" xlink:href="#DejaVuSans-101"/>
     <use x="661.236328" xlink:href="#DejaVuSans-108"/>
     <use x="689.019531" xlink:href="#DejaVuSans-111"/>
     <use x="750.201172" xlink:href="#DejaVuSans-99"/>
     <use x="805.181641" xlink:href="#DejaVuSans-105"/>
     <use x="832.964844" xlink:href="#DejaVuSans-116"/>
     <use x="872.173828" xlink:href="#DejaVuSans-121"/>
    </g>
   </g>
   <g id="legend_3">
    <g id="patch_19">
     <path d="M 475.682812 418.83625 
L 558.2 418.83625 
Q 560.2 418.83625 560.2 416.83625 
L 560.2 388.48 
Q 560.2 386.48 558.2 386.48 
L 475.682812 386.48 
Q 473.682812 386.48 473.682812 388.48 
L 473.682812 416.83625 
Q 473.682812 418.83625 475.682812 418.83625 
z
" style="fill:#ffffff;opacity:0.8;stroke:#cccccc;stroke-linejoin:miter;"/>
    </g>
    <g id="line2d_80">
     <path d="M 477.682812 394.578438 
L 497.682812 394.578438 
" style="fill:none;stroke:#1f77b4;stroke-linecap:square;stroke-width:2;"/>
    </g>
    <g id="line2d_81"/>
    <g id="text_48">
     <!-- Reference -->
     <g transform="translate(505.682812 398.078438)scale(0.1 -0.1)">
      <use xlink:href="#DejaVuSans-82"/>
      <use x="64.982422" xlink:href="#DejaVuSans-101"/>
      <use x="126.505859" xlink:href="#DejaVuSans-102"/>
      <use x="161.710938" xlink:href="#DejaVuSans-101"/>
      <use x="223.234375" xlink:href="#DejaVuSans-114"/>
      <use x="262.097656" xlink:href="#DejaVuSans-101"/>
      <use x="323.621094" xlink:href="#DejaVuSans-110"/>
      <use x="387" xlink:href="#DejaVuSans-99"/>
      <use x="441.980469" xlink:href="#DejaVuSans-101"/>
     </g>
    </g>
    <g id="line2d_82">
     <path d="M 477.682812 409.256563 
L 497.682812 409.256563 
" style="fill:none;stroke:#ff7f0e;stroke-linecap:square;stroke-width:2;"/>
    </g>
    <g id="line2d_83"/>
    <g id="text_49">
     <!-- Estimated -->
     <g transform="translate(505.682812 412.756563)scale(0.1 -0.1)">
      <use xlink:href="#DejaVuSans-69"/>
      <use x="63.183594" xlink:href="#DejaVuSans-115"/>
      <use x="115.283203" xlink:href="#DejaVuSans-116"/>
      <use x="154.492188" xlink:href="#DejaVuSans-105"/>
      <use x="182.275391" xlink:href="#DejaVuSans-109"/>
      <use x="279.6875" xlink:href="#DejaVuSans-97"/>
      <use x="340.966797" xlink:href="#DejaVuSans-116"/>
      <use x="380.175781" xlink:href="#DejaVuSans-101"/>
      <use x="441.699219" xlink:href="#DejaVuSans-100"/>
     </g>
    </g>
   </g>
  </g>
  <g id="axes_4">
   <g id="patch_20">
    <path d="M 48.476475 678.04 
L 565.2 678.04 
L 565.2 558.78 
L 48.476475 558.78 
z
" style="fill:#ffffff;"/>
   </g>
   <g id="matplotlib.axis_7">
    <g id="xtick_16">
     <g id="line2d_84">
      <path clip-path="url(#p09fcfbedd4)" d="M 71.963908 678.04 
L 71.963908 558.78 
" style="fill:none;stroke:#b0b0b0;stroke-linecap:square;stroke-width:0.8;"/>
     </g>
     <g id="line2d_85">
      <g>
       <use style="stroke:#000000;stroke-width:0.8;" x="71.963908" xlink:href="#m4094f1f12e" y="678.04"/>
      </g>
     </g>
     <g id="text_50">
      <!-- 0.0 -->
      <g transform="translate(64.012345 692.638438)scale(0.1 -0.1)">
       <use xlink:href="#DejaVuSans-48"/>
       <use x="63.623047" xlink:href="#DejaVuSans-46"/>
       <use x="95.410156" xlink:href="#DejaVuSans-48"/>
      </g>
     </g>
    </g>
    <g id="xtick_17">
     <g id="line2d_86">
      <path clip-path="url(#p09fcfbedd4)" d="M 172.768341 678.04 
L 172.768341 558.78 
" style="fill:none;stroke:#b0b0b0;stroke-linecap:square;stroke-width:0.8;"/>
     </g>
     <g id="line2d_87">
      <g>
       <use style="stroke:#000000;stroke-width:0.8;" x="172.768341" xlink:href="#m4094f1f12e" y="678.04"/>
      </g>
     </g>
     <g id="text_51">
      <!-- 0.1 -->
      <g transform="translate(164.816778 692.638438)scale(0.1 -0.1)">
       <use xlink:href="#DejaVuSans-48"/>
       <use x="63.623047" xlink:href="#DejaVuSans-46"/>
       <use x="95.410156" xlink:href="#DejaVuSans-49"/>
      </g>
     </g>
    </g>
    <g id="xtick_18">
     <g id="line2d_88">
      <path clip-path="url(#p09fcfbedd4)" d="M 273.572774 678.04 
L 273.572774 558.78 
" style="fill:none;stroke:#b0b0b0;stroke-linecap:square;stroke-width:0.8;"/>
     </g>
     <g id="line2d_89">
      <g>
       <use style="stroke:#000000;stroke-width:0.8;" x="273.572774" xlink:href="#m4094f1f12e" y="678.04"/>
      </g>
     </g>
     <g id="text_52">
      <!-- 0.2 -->
      <g transform="translate(265.621212 692.638438)scale(0.1 -0.1)">
       <use xlink:href="#DejaVuSans-48"/>
       <use x="63.623047" xlink:href="#DejaVuSans-46"/>
       <use x="95.410156" xlink:href="#DejaVuSans-50"/>
      </g>
     </g>
    </g>
    <g id="xtick_19">
     <g id="line2d_90">
      <path clip-path="url(#p09fcfbedd4)" d="M 374.377208 678.04 
L 374.377208 558.78 
" style="fill:none;stroke:#b0b0b0;stroke-linecap:square;stroke-width:0.8;"/>
     </g>
     <g id="line2d_91">
      <g>
       <use style="stroke:#000000;stroke-width:0.8;" x="374.377208" xlink:href="#m4094f1f12e" y="678.04"/>
      </g>
     </g>
     <g id="text_53">
      <!-- 0.3 -->
      <g transform="translate(366.425645 692.638438)scale(0.1 -0.1)">
       <use xlink:href="#DejaVuSans-48"/>
       <use x="63.623047" xlink:href="#DejaVuSans-46"/>
       <use x="95.410156" xlink:href="#DejaVuSans-51"/>
      </g>
     </g>
    </g>
    <g id="xtick_20">
     <g id="line2d_92">
      <path clip-path="url(#p09fcfbedd4)" d="M 475.181641 678.04 
L 475.181641 558.78 
" style="fill:none;stroke:#b0b0b0;stroke-linecap:square;stroke-width:0.8;"/>
     </g>
     <g id="line2d_93">
      <g>
       <use style="stroke:#000000;stroke-width:0.8;" x="475.181641" xlink:href="#m4094f1f12e" y="678.04"/>
      </g>
     </g>
     <g id="text_54">
      <!-- 0.4 -->
      <g transform="translate(467.230079 692.638438)scale(0.1 -0.1)">
       <use xlink:href="#DejaVuSans-48"/>
       <use x="63.623047" xlink:href="#DejaVuSans-46"/>
       <use x="95.410156" xlink:href="#DejaVuSans-52"/>
      </g>
     </g>
    </g>
    <g id="text_55">
     <!-- Time [ms] -->
     <g transform="translate(281.639019 706.316563)scale(0.1 -0.1)">
      <use xlink:href="#DejaVuSans-84"/>
      <use x="57.958984" xlink:href="#DejaVuSans-105"/>
      <use x="85.742188" xlink:href="#DejaVuSans-109"/>
      <use x="183.154297" xlink:href="#DejaVuSans-101"/>
      <use x="244.677734" xlink:href="#DejaVuSans-32"/>
      <use x="276.464844" xlink:href="#DejaVuSans-91"/>
      <use x="315.478516" xlink:href="#DejaVuSans-109"/>
      <use x="412.890625" xlink:href="#DejaVuSans-115"/>
      <use x="464.990234" xlink:href="#DejaVuSans-93"/>
     </g>
    </g>
   </g>
   <g id="matplotlib.axis_8">
    <g id="ytick_14">
     <g id="line2d_94">
      <path clip-path="url(#p09fcfbedd4)" d="M 48.476475 665.309419 
L 565.2 665.309419 
" style="fill:none;stroke:#b0b0b0;stroke-linecap:square;stroke-width:0.8;"/>
     </g>
     <g id="line2d_95">
      <g>
       <use style="stroke:#000000;stroke-width:0.8;" x="48.476475" xlink:href="#m34d45ab8c2" y="665.309419"/>
      </g>
     </g>
     <g id="text_56">
      <!-- $\mathdefault{−1}$ -->
      <g transform="translate(26.676475 669.108637)scale(0.1 -0.1)">
       <use transform="translate(0 0.09375)" xlink:href="#DejaVuSans-8722"/>
       <use transform="translate(83.789062 0.09375)" xlink:href="#DejaVuSans-49"/>
      </g>
     </g>
    </g>
    <g id="ytick_15">
     <g id="line2d_96">
      <path clip-path="url(#p09fcfbedd4)" d="M 48.476475 637.494837 
L 565.2 637.494837 
" style="fill:none;stroke:#b0b0b0;stroke-linecap:square;stroke-width:0.8;"/>
     </g>
     <g id="line2d_97">
      <g>
       <use style="stroke:#000000;stroke-width:0.8;" x="48.476475" xlink:href="#m34d45ab8c2" y="637.494837"/>
      </g>
     </g>
     <g id="text_57">
      <!-- $\mathdefault{0}$ -->
      <g transform="translate(35.076475 641.294055)scale(0.1 -0.1)">
       <use transform="translate(0 0.78125)" xlink:href="#DejaVuSans-48"/>
      </g>
     </g>
    </g>
    <g id="ytick_16">
     <g id="line2d_98">
      <path clip-path="url(#p09fcfbedd4)" d="M 48.476475 609.680254 
L 565.2 609.680254 
" style="fill:none;stroke:#b0b0b0;stroke-linecap:square;stroke-width:0.8;"/>
     </g>
     <g id="line2d_99">
      <g>
       <use style="stroke:#000000;stroke-width:0.8;" x="48.476475" xlink:href="#m34d45ab8c2" y="609.680254"/>
      </g>
     </g>
     <g id="text_58">
      <!-- $\mathdefault{1}$ -->
      <g transform="translate(35.076475 613.479473)scale(0.1 -0.1)">
       <use transform="translate(0 0.09375)" xlink:href="#DejaVuSans-49"/>
      </g>
     </g>
    </g>
    <g id="ytick_17">
     <g id="line2d_100">
      <path clip-path="url(#p09fcfbedd4)" d="M 48.476475 581.865672 
L 565.2 581.865672 
" style="fill:none;stroke:#b0b0b0;stroke-linecap:square;stroke-width:0.8;"/>
     </g>
     <g id="line2d_101">
      <g>
       <use style="stroke:#000000;stroke-width:0.8;" x="48.476475" xlink:href="#m34d45ab8c2" y="581.865672"/>
      </g>
     </g>
     <g id="text_59">
      <!-- $\mathdefault{2}$ -->
      <g transform="translate(35.076475 585.664891)scale(0.1 -0.1)">
       <use transform="translate(0 0.78125)" xlink:href="#DejaVuSans-50"/>
      </g>
     </g>
    </g>
    <g id="text_60">
     <!-- pwm input -->
     <g transform="translate(20.596787 644.993594)rotate(-90)scale(0.1 -0.1)">
      <use xlink:href="#DejaVuSans-112"/>
      <use x="63.476562" xlink:href="#DejaVuSans-119"/>
      <use x="145.263672" xlink:href="#DejaVuSans-109"/>
      <use x="242.675781" xlink:href="#DejaVuSans-32"/>
      <use x="274.462891" xlink:href="#DejaVuSans-105"/>
      <use x="302.246094" xlink:href="#DejaVuSans-110"/>
      <use x="365.625" xlink:href="#DejaVuSans-112"/>
      <use x="429.101562" xlink:href="#DejaVuSans-117"/>
      <use x="492.480469" xlink:href="#DejaVuSans-116"/>
     </g>
    </g>
    <g id="text_61">
     <!-- $\times\mathdefault{10^{−1}}\mathdefault{}$ -->
     <g transform="translate(48.476475 555.78)scale(0.1 -0.1)">
      <use transform="translate(0 0.684375)" xlink:href="#DejaVuSans-215"/>
      <use transform="translate(83.789062 0.684375)" xlink:href="#DejaVuSans-49"/>
      <use transform="translate(147.412109 0.684375)" xlink:href="#DejaVuSans-48"/>
      <use transform="translate(211.992188 38.965625)scale(0.7)" xlink:href="#DejaVuSans-8722"/>
      <use transform="translate(270.644531 38.965625)scale(0.7)" xlink:href="#DejaVuSans-49"/>
     </g>
    </g>
   </g>
   <g id="line2d_102">
    <path clip-path="url(#p09fcfbedd4)" d="M 71.963908 637.494837 
L 75.996085 628.959209 
L 80.028262 619.933711 
L 84.06044 610.41837 
L 88.092617 600.41327 
L 89.100661 597.835414 
L 90.108706 596.535083 
L 92.124794 591.256709 
L 93.132839 589.612033 
L 115.309814 576.141153 
L 116.317858 575.222715 
L 134.462656 564.200909 
L 135.470701 564.628976 
L 139.502878 570.776554 
L 143.535055 577.413948 
L 147.567233 584.541435 
L 151.59941 592.158736 
L 154.623543 598.192832 
L 155.631587 599.225309 
L 407.642671 599.225309 
L 408.650715 599.56576 
L 412.682892 608.121525 
L 416.71507 617.166966 
L 420.747247 626.702278 
L 424.779424 636.727399 
L 428.811602 646.902312 
L 471.149464 672.619091 
L 472.157508 671.84974 
L 476.189685 665.682412 
L 480.221863 659.024936 
L 484.25404 651.877729 
L 488.286217 644.240679 
L 491.31035 638.191447 
L 492.318395 637.494837 
L 541.712567 637.494837 
L 541.712567 637.494837 
" style="fill:none;stroke:#1f77b4;stroke-linecap:square;stroke-width:2;"/>
   </g>
   <g id="line2d_103">
    <path clip-path="url(#p09fcfbedd4)" d="M 71.963908 637.494837 
L 541.712567 637.494837 
L 541.712567 637.494837 
" style="fill:none;stroke:#ff7f0e;stroke-linecap:square;stroke-width:2;"/>
   </g>
   <g id="line2d_104">
    <path clip-path="url(#p09fcfbedd4)" d="M 71.963908 637.494837 
L 541.712567 637.494837 
L 541.712567 637.494837 
" style="fill:none;stroke:#2ca02c;stroke-linecap:square;stroke-width:2;"/>
   </g>
   <g id="line2d_105">
    <path clip-path="url(#p09fcfbedd4)" d="M 71.963908 637.494837 
L 541.712567 637.494837 
L 541.712567 637.494837 
" style="fill:none;stroke:#d62728;stroke-linecap:square;stroke-width:2;"/>
   </g>
   <g id="line2d_106">
    <path clip-path="url(#p09fcfbedd4)" d="M 71.963908 637.494837 
L 75.996085 628.959209 
L 80.028262 619.933711 
L 84.06044 610.41837 
L 88.092617 600.41327 
L 89.100661 597.835414 
L 90.108706 596.535083 
L 92.124794 591.256709 
L 93.132839 589.612033 
L 115.309814 576.141153 
L 116.317858 575.222715 
L 134.462656 564.200909 
L 135.470701 564.628976 
L 139.502878 570.776554 
L 143.535055 577.413948 
L 147.567233 584.541435 
L 151.59941 592.158736 
L 154.623543 598.192832 
L 155.631587 599.225309 
L 407.642671 599.225309 
L 408.650715 599.56576 
L 412.682892 608.121525 
L 416.71507 617.166966 
L 420.747247 626.702278 
L 424.779424 636.727399 
L 428.811602 646.902312 
L 471.149464 672.619091 
L 472.157508 671.84974 
L 476.189685 665.682412 
L 480.221863 659.024936 
L 484.25404 651.877729 
L 488.286217 644.240679 
L 491.31035 638.191447 
L 492.318395 637.494837 
L 541.712567 637.494837 
L 541.712567 637.494837 
" style="fill:none;stroke:#9467bd;stroke-linecap:square;stroke-width:2;"/>
   </g>
   <g id="patch_21">
    <path d="M 48.476475 678.04 
L 48.476475 558.78 
" style="fill:none;stroke:#000000;stroke-linecap:square;stroke-linejoin:miter;stroke-width:0.8;"/>
   </g>
   <g id="patch_22">
    <path d="M 565.2 678.04 
L 565.2 558.78 
" style="fill:none;stroke:#000000;stroke-linecap:square;stroke-linejoin:miter;stroke-width:0.8;"/>
   </g>
   <g id="patch_23">
    <path d="M 48.476475 678.04 
L 565.2 678.04 
" style="fill:none;stroke:#000000;stroke-linecap:square;stroke-linejoin:miter;stroke-width:0.8;"/>
   </g>
   <g id="patch_24">
    <path d="M 48.476475 558.78 
L 565.2 558.78 
" style="fill:none;stroke:#000000;stroke-linecap:square;stroke-linejoin:miter;stroke-width:0.8;"/>
   </g>
   <g id="text_62">
    <!-- Rotational PWM Input -->
    <g transform="translate(242.325112 552.78)scale(0.12 -0.12)">
     <use xlink:href="#DejaVuSans-82"/>
     <use x="64.982422" xlink:href="#DejaVuSans-111"/>
     <use x="126.164062" xlink:href="#DejaVuSans-116"/>
     <use x="165.373047" xlink:href="#DejaVuSans-97"/>
     <use x="226.652344" xlink:href="#DejaVuSans-116"/>
     <use x="265.861328" xlink:href="#DejaVuSans-105"/>
     <use x="293.644531" xlink:href="#DejaVuSans-111"/>
     <use x="354.826172" xlink:href="#DejaVuSans-110"/>
     <use x="418.205078" xlink:href="#DejaVuSans-97"/>
     <use x="479.484375" xlink:href="#DejaVuSans-108"/>
     <use x="507.267578" xlink:href="#DejaVuSans-32"/>
     <use x="539.054688" xlink:href="#DejaVuSans-80"/>
     <use x="599.357422" xlink:href="#DejaVuSans-87"/>
     <use x="698.234375" xlink:href="#DejaVuSans-77"/>
     <use x="784.513672" xlink:href="#DejaVuSans-32"/>
     <use x="816.300781" xlink:href="#DejaVuSans-73"/>
     <use x="845.792969" xlink:href="#DejaVuSans-110"/>
     <use x="909.171875" xlink:href="#DejaVuSans-112"/>
     <use x="972.648438" xlink:href="#DejaVuSans-117"/>
     <use x="1036.027344" xlink:href="#DejaVuSans-116"/>
    </g>
   </g>
   <g id="legend_4">
    <g id="patch_25">
     <path d="M 227.354687 581.458125 
L 558.2 581.458125 
Q 560.2 581.458125 560.2 579.458125 
L 560.2 565.78 
Q 560.2 563.78 558.2 563.78 
L 227.354687 563.78 
Q 225.354687 563.78 225.354687 565.78 
L 225.354687 579.458125 
Q 225.354687 581.458125 227.354687 581.458125 
z
" style="fill:#ffffff;opacity:0.8;stroke:#cccccc;stroke-linejoin:miter;"/>
    </g>
    <g id="line2d_107">
     <path d="M 229.354687 571.878438 
L 249.354687 571.878438 
" style="fill:none;stroke:#1f77b4;stroke-linecap:square;stroke-width:2;"/>
    </g>
    <g id="line2d_108"/>
    <g id="text_63">
     <!-- FF -->
     <g transform="translate(257.354687 575.378438)scale(0.1 -0.1)">
      <use xlink:href="#DejaVuSans-70"/>
      <use x="57.519531" xlink:href="#DejaVuSans-70"/>
     </g>
    </g>
    <g id="line2d_109">
     <path d="M 288.857812 571.878438 
L 308.857812 571.878438 
" style="fill:none;stroke:#ff7f0e;stroke-linecap:square;stroke-width:2;"/>
    </g>
    <g id="line2d_110"/>
    <g id="text_64">
     <!-- FB p -->
     <g transform="translate(316.857812 575.378438)scale(0.1 -0.1)">
      <use xlink:href="#DejaVuSans-70"/>
      <use x="57.519531" xlink:href="#DejaVuSans-66"/>
      <use x="126.123047" xlink:href="#DejaVuSans-32"/>
      <use x="157.910156" xlink:href="#DejaVuSans-112"/>
     </g>
    </g>
    <g id="line2d_111">
     <path d="M 358.996875 571.878438 
L 378.996875 571.878438 
" style="fill:none;stroke:#2ca02c;stroke-linecap:square;stroke-width:2;"/>
    </g>
    <g id="line2d_112"/>
    <g id="text_65">
     <!-- FB i -->
     <g transform="translate(386.996875 575.378438)scale(0.1 -0.1)">
      <use xlink:href="#DejaVuSans-70"/>
      <use x="57.519531" xlink:href="#DejaVuSans-66"/>
      <use x="126.123047" xlink:href="#DejaVuSans-32"/>
      <use x="157.910156" xlink:href="#DejaVuSans-105"/>
     </g>
    </g>
    <g id="line2d_113">
     <path d="M 425.565625 571.878438 
L 445.565625 571.878438 
" style="fill:none;stroke:#d62728;stroke-linecap:square;stroke-width:2;"/>
    </g>
    <g id="line2d_114"/>
    <g id="text_66">
     <!-- FB d -->
     <g transform="translate(453.565625 575.378438)scale(0.1 -0.1)">
      <use xlink:href="#DejaVuSans-70"/>
      <use x="57.519531" xlink:href="#DejaVuSans-66"/>
      <use x="126.123047" xlink:href="#DejaVuSans-32"/>
      <use x="157.910156" xlink:href="#DejaVuSans-100"/>
     </g>
    </g>
    <g id="line2d_115">
     <path d="M 495.704687 571.878438 
L 515.704687 571.878438 
" style="fill:none;stroke:#9467bd;stroke-linecap:square;stroke-width:2;"/>
    </g>
    <g id="line2d_116"/>
    <g id="text_67">
     <!-- FF+FB -->
     <g transform="translate(523.704687 575.378438)scale(0.1 -0.1)">
      <use xlink:href="#DejaVuSans-70"/>
      <use x="57.519531" xlink:href="#DejaVuSans-70"/>
      <use x="115.039062" xlink:href="#DejaVuSans-43"/>
      <use x="198.828125" xlink:href="#DejaVuSans-70"/>
      <use x="256.347656" xlink:href="#DejaVuSans-66"/>
     </g>
    </g>
   </g>
  </g>
 </g>
 <defs>
  <clipPath id="p2846ea10c4">
   <rect height="119.26" width="516.723525" x="48.476475" y="26.88"/>
  </clipPath>
  <clipPath id="p71823801db">
   <rect height="119.26" width="516.723525" x="48.476475" y="204.18"/>
  </clipPath>
  <clipPath id="p37d309d83f">
   <rect height="119.26" width="516.723525" x="48.476475" y="381.48"/>
  </clipPath>
  <clipPath id="p09fcfbedd4">
   <rect height="119.26" width="516.723525" x="48.476475" y="558.78"/>
  </clipPath>
 </defs>
</svg>
