<?xml version="1.0" encoding="utf-8" standalone="no"?>
<!DOCTYPE svg PUBLIC "-//W3C//DTD SVG 1.1//EN"
  "http://www.w3.org/Graphics/SVG/1.1/DTD/svg11.dtd">
<!-- Created with matplotlib (https://matplotlib.org/) -->
<svg height="720pt" version="1.1" viewBox="0 0 576 720" width="576pt" xmlns="http://www.w3.org/2000/svg" xmlns:xlink="http://www.w3.org/1999/xlink">
 <defs>
  <style type="text/css">
*{stroke-linecap:butt;stroke-linejoin:round;}
  </style>
 </defs>
 <g id="figure_1">
  <g id="patch_1">
   <path d="M 0 720 
L 576 720 
L 576 0 
L 0 0 
z
" style="fill:#ffffff;"/>
  </g>
  <g id="axes_1">
   <g id="patch_2">
    <path d="M 47.461777 146.14 
L 559.019542 146.14 
L 559.019542 26.88 
L 47.461777 26.88 
z
" style="fill:#ffffff;"/>
   </g>
   <g id="matplotlib.axis_1">
    <g id="xtick_1">
     <g id="line2d_1">
      <path clip-path="url(#pbffc051aee)" d="M 70.714403 146.14 
L 70.714403 26.88 
" style="fill:none;stroke:#b0b0b0;stroke-linecap:square;stroke-width:0.8;"/>
     </g>
     <g id="line2d_2">
      <defs>
       <path d="M 0 0 
L 0 3.5 
" id="m055b1985a6" style="stroke:#000000;stroke-width:0.8;"/>
      </defs>
      <g>
       <use style="stroke:#000000;stroke-width:0.8;" x="70.714403" xlink:href="#m055b1985a6" y="146.14"/>
      </g>
     </g>
     <g id="text_1">
      <!-- 0.00 -->
      <defs>
       <path d="M 31.78125 66.40625 
Q 24.171875 66.40625 20.328125 58.90625 
Q 16.5 51.421875 16.5 36.375 
Q 16.5 21.390625 20.328125 13.890625 
Q 24.171875 6.390625 31.78125 6.390625 
Q 39.453125 6.390625 43.28125 13.890625 
Q 47.125 21.390625 47.125 36.375 
Q 47.125 51.421875 43.28125 58.90625 
Q 39.453125 66.40625 31.78125 66.40625 
z
M 31.78125 74.21875 
Q 44.046875 74.21875 50.515625 64.515625 
Q 56.984375 54.828125 56.984375 36.375 
Q 56.984375 17.96875 50.515625 8.265625 
Q 44.046875 -1.421875 31.78125 -1.421875 
Q 19.53125 -1.421875 13.0625 8.265625 
Q 6.59375 17.96875 6.59375 36.375 
Q 6.59375 54.828125 13.0625 64.515625 
Q 19.53125 74.21875 31.78125 74.21875 
z
" id="DejaVuSans-48"/>
       <path d="M 10.6875 12.40625 
L 21 12.40625 
L 21 0 
L 10.6875 0 
z
" id="DejaVuSans-46"/>
      </defs>
      <g transform="translate(59.581591 160.738438)scale(0.1 -0.1)">
       <use xlink:href="#DejaVuSans-48"/>
       <use x="63.623047" xlink:href="#DejaVuSans-46"/>
       <use x="95.410156" xlink:href="#DejaVuSans-48"/>
       <use x="159.033203" xlink:href="#DejaVuSans-48"/>
      </g>
     </g>
    </g>
    <g id="xtick_2">
     <g id="line2d_3">
      <path clip-path="url(#pbffc051aee)" d="M 151.173315 146.14 
L 151.173315 26.88 
" style="fill:none;stroke:#b0b0b0;stroke-linecap:square;stroke-width:0.8;"/>
     </g>
     <g id="line2d_4">
      <g>
       <use style="stroke:#000000;stroke-width:0.8;" x="151.173315" xlink:href="#m055b1985a6" y="146.14"/>
      </g>
     </g>
     <g id="text_2">
      <!-- 0.05 -->
      <defs>
       <path d="M 10.796875 72.90625 
L 49.515625 72.90625 
L 49.515625 64.59375 
L 19.828125 64.59375 
L 19.828125 46.734375 
Q 21.96875 47.46875 24.109375 47.828125 
Q 26.265625 48.1875 28.421875 48.1875 
Q 40.625 48.1875 47.75 41.5 
Q 54.890625 34.8125 54.890625 23.390625 
Q 54.890625 11.625 47.5625 5.09375 
Q 40.234375 -1.421875 26.90625 -1.421875 
Q 22.3125 -1.421875 17.546875 -0.640625 
Q 12.796875 0.140625 7.71875 1.703125 
L 7.71875 11.625 
Q 12.109375 9.234375 16.796875 8.0625 
Q 21.484375 6.890625 26.703125 6.890625 
Q 35.15625 6.890625 40.078125 11.328125 
Q 45.015625 15.765625 45.015625 23.390625 
Q 45.015625 31 40.078125 35.4375 
Q 35.15625 39.890625 26.703125 39.890625 
Q 22.75 39.890625 18.8125 39.015625 
Q 14.890625 38.140625 10.796875 36.28125 
z
" id="DejaVuSans-53"/>
      </defs>
      <g transform="translate(140.040503 160.738438)scale(0.1 -0.1)">
       <use xlink:href="#DejaVuSans-48"/>
       <use x="63.623047" xlink:href="#DejaVuSans-46"/>
       <use x="95.410156" xlink:href="#DejaVuSans-48"/>
       <use x="159.033203" xlink:href="#DejaVuSans-53"/>
      </g>
     </g>
    </g>
    <g id="xtick_3">
     <g id="line2d_5">
      <path clip-path="url(#pbffc051aee)" d="M 231.632228 146.14 
L 231.632228 26.88 
" style="fill:none;stroke:#b0b0b0;stroke-linecap:square;stroke-width:0.8;"/>
     </g>
     <g id="line2d_6">
      <g>
       <use style="stroke:#000000;stroke-width:0.8;" x="231.632228" xlink:href="#m055b1985a6" y="146.14"/>
      </g>
     </g>
     <g id="text_3">
      <!-- 0.10 -->
      <defs>
       <path d="M 12.40625 8.296875 
L 28.515625 8.296875 
L 28.515625 63.921875 
L 10.984375 60.40625 
L 10.984375 69.390625 
L 28.421875 72.90625 
L 38.28125 72.90625 
L 38.28125 8.296875 
L 54.390625 8.296875 
L 54.390625 0 
L 12.40625 0 
z
" id="DejaVuSans-49"/>
      </defs>
      <g transform="translate(220.499415 160.738438)scale(0.1 -0.1)">
       <use xlink:href="#DejaVuSans-48"/>
       <use x="63.623047" xlink:href="#DejaVuSans-46"/>
       <use x="95.410156" xlink:href="#DejaVuSans-49"/>
       <use x="159.033203" xlink:href="#DejaVuSans-48"/>
      </g>
     </g>
    </g>
    <g id="xtick_4">
     <g id="line2d_7">
      <path clip-path="url(#pbffc051aee)" d="M 312.09114 146.14 
L 312.09114 26.88 
" style="fill:none;stroke:#b0b0b0;stroke-linecap:square;stroke-width:0.8;"/>
     </g>
     <g id="line2d_8">
      <g>
       <use style="stroke:#000000;stroke-width:0.8;" x="312.09114" xlink:href="#m055b1985a6" y="146.14"/>
      </g>
     </g>
     <g id="text_4">
      <!-- 0.15 -->
      <g transform="translate(300.958328 160.738438)scale(0.1 -0.1)">
       <use xlink:href="#DejaVuSans-48"/>
       <use x="63.623047" xlink:href="#DejaVuSans-46"/>
       <use x="95.410156" xlink:href="#DejaVuSans-49"/>
       <use x="159.033203" xlink:href="#DejaVuSans-53"/>
      </g>
     </g>
    </g>
    <g id="xtick_5">
     <g id="line2d_9">
      <path clip-path="url(#pbffc051aee)" d="M 392.550053 146.14 
L 392.550053 26.88 
" style="fill:none;stroke:#b0b0b0;stroke-linecap:square;stroke-width:0.8;"/>
     </g>
     <g id="line2d_10">
      <g>
       <use style="stroke:#000000;stroke-width:0.8;" x="392.550053" xlink:href="#m055b1985a6" y="146.14"/>
      </g>
     </g>
     <g id="text_5">
      <!-- 0.20 -->
      <defs>
       <path d="M 19.1875 8.296875 
L 53.609375 8.296875 
L 53.609375 0 
L 7.328125 0 
L 7.328125 8.296875 
Q 12.9375 14.109375 22.625 23.890625 
Q 32.328125 33.6875 34.8125 36.53125 
Q 39.546875 41.84375 41.421875 45.53125 
Q 43.3125 49.21875 43.3125 52.78125 
Q 43.3125 58.59375 39.234375 62.25 
Q 35.15625 65.921875 28.609375 65.921875 
Q 23.96875 65.921875 18.8125 64.3125 
Q 13.671875 62.703125 7.8125 59.421875 
L 7.8125 69.390625 
Q 13.765625 71.78125 18.9375 73 
Q 24.125 74.21875 28.421875 74.21875 
Q 39.75 74.21875 46.484375 68.546875 
Q 53.21875 62.890625 53.21875 53.421875 
Q 53.21875 48.921875 51.53125 44.890625 
Q 49.859375 40.875 45.40625 35.40625 
Q 44.1875 33.984375 37.640625 27.21875 
Q 31.109375 20.453125 19.1875 8.296875 
z
" id="DejaVuSans-50"/>
      </defs>
      <g transform="translate(381.41724 160.738438)scale(0.1 -0.1)">
       <use xlink:href="#DejaVuSans-48"/>
       <use x="63.623047" xlink:href="#DejaVuSans-46"/>
       <use x="95.410156" xlink:href="#DejaVuSans-50"/>
       <use x="159.033203" xlink:href="#DejaVuSans-48"/>
      </g>
     </g>
    </g>
    <g id="xtick_6">
     <g id="line2d_11">
      <path clip-path="url(#pbffc051aee)" d="M 473.008965 146.14 
L 473.008965 26.88 
" style="fill:none;stroke:#b0b0b0;stroke-linecap:square;stroke-width:0.8;"/>
     </g>
     <g id="line2d_12">
      <g>
       <use style="stroke:#000000;stroke-width:0.8;" x="473.008965" xlink:href="#m055b1985a6" y="146.14"/>
      </g>
     </g>
     <g id="text_6">
      <!-- 0.25 -->
      <g transform="translate(461.876152 160.738438)scale(0.1 -0.1)">
       <use xlink:href="#DejaVuSans-48"/>
       <use x="63.623047" xlink:href="#DejaVuSans-46"/>
       <use x="95.410156" xlink:href="#DejaVuSans-50"/>
       <use x="159.033203" xlink:href="#DejaVuSans-53"/>
      </g>
     </g>
    </g>
    <g id="xtick_7">
     <g id="line2d_13">
      <path clip-path="url(#pbffc051aee)" d="M 553.467877 146.14 
L 553.467877 26.88 
" style="fill:none;stroke:#b0b0b0;stroke-linecap:square;stroke-width:0.8;"/>
     </g>
     <g id="line2d_14">
      <g>
       <use style="stroke:#000000;stroke-width:0.8;" x="553.467877" xlink:href="#m055b1985a6" y="146.14"/>
      </g>
     </g>
     <g id="text_7">
      <!-- 0.30 -->
      <defs>
       <path d="M 40.578125 39.3125 
Q 47.65625 37.796875 51.625 33 
Q 55.609375 28.21875 55.609375 21.1875 
Q 55.609375 10.40625 48.1875 4.484375 
Q 40.765625 -1.421875 27.09375 -1.421875 
Q 22.515625 -1.421875 17.65625 -0.515625 
Q 12.796875 0.390625 7.625 2.203125 
L 7.625 11.71875 
Q 11.71875 9.328125 16.59375 8.109375 
Q 21.484375 6.890625 26.8125 6.890625 
Q 36.078125 6.890625 40.9375 10.546875 
Q 45.796875 14.203125 45.796875 21.1875 
Q 45.796875 27.640625 41.28125 31.265625 
Q 36.765625 34.90625 28.71875 34.90625 
L 20.21875 34.90625 
L 20.21875 43.015625 
L 29.109375 43.015625 
Q 36.375 43.015625 40.234375 45.921875 
Q 44.09375 48.828125 44.09375 54.296875 
Q 44.09375 59.90625 40.109375 62.90625 
Q 36.140625 65.921875 28.71875 65.921875 
Q 24.65625 65.921875 20.015625 65.03125 
Q 15.375 64.15625 9.8125 62.3125 
L 9.8125 71.09375 
Q 15.4375 72.65625 20.34375 73.4375 
Q 25.25 74.21875 29.59375 74.21875 
Q 40.828125 74.21875 47.359375 69.109375 
Q 53.90625 64.015625 53.90625 55.328125 
Q 53.90625 49.265625 50.4375 45.09375 
Q 46.96875 40.921875 40.578125 39.3125 
z
" id="DejaVuSans-51"/>
      </defs>
      <g transform="translate(542.335065 160.738438)scale(0.1 -0.1)">
       <use xlink:href="#DejaVuSans-48"/>
       <use x="63.623047" xlink:href="#DejaVuSans-46"/>
       <use x="95.410156" xlink:href="#DejaVuSans-51"/>
       <use x="159.033203" xlink:href="#DejaVuSans-48"/>
      </g>
     </g>
    </g>
    <g id="text_8">
     <!-- Time [ms] -->
     <defs>
      <path d="M -0.296875 72.90625 
L 61.375 72.90625 
L 61.375 64.59375 
L 35.5 64.59375 
L 35.5 0 
L 25.59375 0 
L 25.59375 64.59375 
L -0.296875 64.59375 
z
" id="DejaVuSans-84"/>
      <path d="M 9.421875 54.6875 
L 18.40625 54.6875 
L 18.40625 0 
L 9.421875 0 
z
M 9.421875 75.984375 
L 18.40625 75.984375 
L 18.40625 64.59375 
L 9.421875 64.59375 
z
" id="DejaVuSans-105"/>
      <path d="M 52 44.1875 
Q 55.375 50.25 60.0625 53.125 
Q 64.75 56 71.09375 56 
Q 79.640625 56 84.28125 50.015625 
Q 88.921875 44.046875 88.921875 33.015625 
L 88.921875 0 
L 79.890625 0 
L 79.890625 32.71875 
Q 79.890625 40.578125 77.09375 44.375 
Q 74.3125 48.1875 68.609375 48.1875 
Q 61.625 48.1875 57.5625 43.546875 
Q 53.515625 38.921875 53.515625 30.90625 
L 53.515625 0 
L 44.484375 0 
L 44.484375 32.71875 
Q 44.484375 40.625 41.703125 44.40625 
Q 38.921875 48.1875 33.109375 48.1875 
Q 26.21875 48.1875 22.15625 43.53125 
Q 18.109375 38.875 18.109375 30.90625 
L 18.109375 0 
L 9.078125 0 
L 9.078125 54.6875 
L 18.109375 54.6875 
L 18.109375 46.1875 
Q 21.1875 51.21875 25.484375 53.609375 
Q 29.78125 56 35.6875 56 
Q 41.65625 56 45.828125 52.96875 
Q 50 49.953125 52 44.1875 
z
" id="DejaVuSans-109"/>
      <path d="M 56.203125 29.59375 
L 56.203125 25.203125 
L 14.890625 25.203125 
Q 15.484375 15.921875 20.484375 11.0625 
Q 25.484375 6.203125 34.421875 6.203125 
Q 39.59375 6.203125 44.453125 7.46875 
Q 49.3125 8.734375 54.109375 11.28125 
L 54.109375 2.78125 
Q 49.265625 0.734375 44.1875 -0.34375 
Q 39.109375 -1.421875 33.890625 -1.421875 
Q 20.796875 -1.421875 13.15625 6.1875 
Q 5.515625 13.8125 5.515625 26.8125 
Q 5.515625 40.234375 12.765625 48.109375 
Q 20.015625 56 32.328125 56 
Q 43.359375 56 49.78125 48.890625 
Q 56.203125 41.796875 56.203125 29.59375 
z
M 47.21875 32.234375 
Q 47.125 39.59375 43.09375 43.984375 
Q 39.0625 48.390625 32.421875 48.390625 
Q 24.90625 48.390625 20.390625 44.140625 
Q 15.875 39.890625 15.1875 32.171875 
z
" id="DejaVuSans-101"/>
      <path id="DejaVuSans-32"/>
      <path d="M 8.59375 75.984375 
L 29.296875 75.984375 
L 29.296875 69 
L 17.578125 69 
L 17.578125 -6.203125 
L 29.296875 -6.203125 
L 29.296875 -13.1875 
L 8.59375 -13.1875 
z
" id="DejaVuSans-91"/>
      <path d="M 44.28125 53.078125 
L 44.28125 44.578125 
Q 40.484375 46.53125 36.375 47.5 
Q 32.28125 48.484375 27.875 48.484375 
Q 21.1875 48.484375 17.84375 46.4375 
Q 14.5 44.390625 14.5 40.28125 
Q 14.5 37.15625 16.890625 35.375 
Q 19.28125 33.59375 26.515625 31.984375 
L 29.59375 31.296875 
Q 39.15625 29.25 43.1875 25.515625 
Q 47.21875 21.78125 47.21875 15.09375 
Q 47.21875 7.46875 41.1875 3.015625 
Q 35.15625 -1.421875 24.609375 -1.421875 
Q 20.21875 -1.421875 15.453125 -0.5625 
Q 10.6875 0.296875 5.421875 2 
L 5.421875 11.28125 
Q 10.40625 8.6875 15.234375 7.390625 
Q 20.0625 6.109375 24.8125 6.109375 
Q 31.15625 6.109375 34.5625 8.28125 
Q 37.984375 10.453125 37.984375 14.40625 
Q 37.984375 18.0625 35.515625 20.015625 
Q 33.0625 21.96875 24.703125 23.78125 
L 21.578125 24.515625 
Q 13.234375 26.265625 9.515625 29.90625 
Q 5.8125 33.546875 5.8125 39.890625 
Q 5.8125 47.609375 11.28125 51.796875 
Q 16.75 56 26.8125 56 
Q 31.78125 56 36.171875 55.265625 
Q 40.578125 54.546875 44.28125 53.078125 
z
" id="DejaVuSans-115"/>
      <path d="M 30.421875 75.984375 
L 30.421875 -13.1875 
L 9.71875 -13.1875 
L 9.71875 -6.203125 
L 21.390625 -6.203125 
L 21.390625 69 
L 9.71875 69 
L 9.71875 75.984375 
z
" id="DejaVuSans-93"/>
     </defs>
     <g transform="translate(278.041441 174.416563)scale(0.1 -0.1)">
      <use xlink:href="#DejaVuSans-84"/>
      <use x="57.958984" xlink:href="#DejaVuSans-105"/>
      <use x="85.742188" xlink:href="#DejaVuSans-109"/>
      <use x="183.154297" xlink:href="#DejaVuSans-101"/>
      <use x="244.677734" xlink:href="#DejaVuSans-32"/>
      <use x="276.464844" xlink:href="#DejaVuSans-91"/>
      <use x="315.478516" xlink:href="#DejaVuSans-109"/>
      <use x="412.890625" xlink:href="#DejaVuSans-115"/>
      <use x="464.990234" xlink:href="#DejaVuSans-93"/>
     </g>
    </g>
   </g>
   <g id="matplotlib.axis_2">
    <g id="ytick_1">
     <g id="line2d_15">
      <path clip-path="url(#pbffc051aee)" d="M 47.461777 109.743482 
L 559.019542 109.743482 
" style="fill:none;stroke:#b0b0b0;stroke-linecap:square;stroke-width:0.8;"/>
     </g>
     <g id="line2d_16">
      <defs>
       <path d="M 0 0 
L -3.5 0 
" id="m4eb7754980" style="stroke:#000000;stroke-width:0.8;"/>
      </defs>
      <g>
       <use style="stroke:#000000;stroke-width:0.8;" x="47.461777" xlink:href="#m4eb7754980" y="109.743482"/>
      </g>
     </g>
     <g id="text_9">
      <!-- $\mathdefault{0}$ -->
      <g transform="translate(34.061777 113.542701)scale(0.1 -0.1)">
       <use transform="translate(0 0.78125)" xlink:href="#DejaVuSans-48"/>
      </g>
     </g>
    </g>
    <g id="ytick_2">
     <g id="line2d_17">
      <path clip-path="url(#pbffc051aee)" d="M 47.461777 73.314233 
L 559.019542 73.314233 
" style="fill:none;stroke:#b0b0b0;stroke-linecap:square;stroke-width:0.8;"/>
     </g>
     <g id="line2d_18">
      <g>
       <use style="stroke:#000000;stroke-width:0.8;" x="47.461777" xlink:href="#m4eb7754980" y="73.314233"/>
      </g>
     </g>
     <g id="text_10">
      <!-- $\mathdefault{2}$ -->
      <g transform="translate(34.061777 77.113452)scale(0.1 -0.1)">
       <use transform="translate(0 0.78125)" xlink:href="#DejaVuSans-50"/>
      </g>
     </g>
    </g>
    <g id="ytick_3">
     <g id="line2d_19">
      <path clip-path="url(#pbffc051aee)" d="M 47.461777 36.884984 
L 559.019542 36.884984 
" style="fill:none;stroke:#b0b0b0;stroke-linecap:square;stroke-width:0.8;"/>
     </g>
     <g id="line2d_20">
      <g>
       <use style="stroke:#000000;stroke-width:0.8;" x="47.461777" xlink:href="#m4eb7754980" y="36.884984"/>
      </g>
     </g>
     <g id="text_11">
      <!-- $\mathdefault{4}$ -->
      <defs>
       <path d="M 37.796875 64.3125 
L 12.890625 25.390625 
L 37.796875 25.390625 
z
M 35.203125 72.90625 
L 47.609375 72.90625 
L 47.609375 25.390625 
L 58.015625 25.390625 
L 58.015625 17.1875 
L 47.609375 17.1875 
L 47.609375 0 
L 37.796875 0 
L 37.796875 17.1875 
L 4.890625 17.1875 
L 4.890625 26.703125 
z
" id="DejaVuSans-52"/>
      </defs>
      <g transform="translate(34.061777 40.684202)scale(0.1 -0.1)">
       <use transform="translate(0 0.09375)" xlink:href="#DejaVuSans-52"/>
      </g>
     </g>
    </g>
    <g id="text_12">
     <!-- vel. [m/s] -->
     <defs>
      <path d="M 2.984375 54.6875 
L 12.5 54.6875 
L 29.59375 8.796875 
L 46.6875 54.6875 
L 56.203125 54.6875 
L 35.6875 0 
L 23.484375 0 
z
" id="DejaVuSans-118"/>
      <path d="M 9.421875 75.984375 
L 18.40625 75.984375 
L 18.40625 0 
L 9.421875 0 
z
" id="DejaVuSans-108"/>
      <path d="M 25.390625 72.90625 
L 33.6875 72.90625 
L 8.296875 -9.28125 
L 0 -9.28125 
z
" id="DejaVuSans-47"/>
     </defs>
     <g transform="translate(27.98209 110.174063)rotate(-90)scale(0.1 -0.1)">
      <use xlink:href="#DejaVuSans-118"/>
      <use x="59.179688" xlink:href="#DejaVuSans-101"/>
      <use x="120.703125" xlink:href="#DejaVuSans-108"/>
      <use x="148.486328" xlink:href="#DejaVuSans-46"/>
      <use x="180.273438" xlink:href="#DejaVuSans-32"/>
      <use x="212.060547" xlink:href="#DejaVuSans-91"/>
      <use x="251.074219" xlink:href="#DejaVuSans-109"/>
      <use x="348.486328" xlink:href="#DejaVuSans-47"/>
      <use x="382.177734" xlink:href="#DejaVuSans-115"/>
      <use x="434.277344" xlink:href="#DejaVuSans-93"/>
     </g>
    </g>
    <g id="text_13">
     <!-- $\times\mathdefault{10^{1}}\mathdefault{}$ -->
     <defs>
      <path d="M 70.125 53.71875 
L 47.796875 31.296875 
L 70.125 8.984375 
L 64.3125 3.078125 
L 41.890625 25.484375 
L 19.484375 3.078125 
L 13.71875 8.984375 
L 35.984375 31.296875 
L 13.71875 53.71875 
L 19.484375 59.625 
L 41.890625 37.203125 
L 64.3125 59.625 
z
" id="DejaVuSans-215"/>
     </defs>
     <g transform="translate(47.461777 23.88)scale(0.1 -0.1)">
      <use transform="translate(0 0.684375)" xlink:href="#DejaVuSans-215"/>
      <use transform="translate(83.789062 0.684375)" xlink:href="#DejaVuSans-49"/>
      <use transform="translate(147.412109 0.684375)" xlink:href="#DejaVuSans-48"/>
      <use transform="translate(211.992188 38.965625)scale(0.7)" xlink:href="#DejaVuSans-49"/>
     </g>
    </g>
   </g>
   <g id="line2d_21">
    <path clip-path="url(#pbffc051aee)" d="M 70.714403 109.743482 
L 535.766917 109.743482 
L 535.766917 109.743482 
" style="fill:none;stroke:#1f77b4;stroke-linecap:square;stroke-width:2;"/>
   </g>
   <g id="line2d_22">
    <path clip-path="url(#pbffc051aee)" d="M 70.714403 111.955649 
L 72.323581 109.743482 
L 73.93276 105.318695 
L 75.541938 111.956523 
L 77.151116 109.743482 
L 78.760294 111.956523 
L 80.369473 111.955649 
L 81.978651 114.168707 
L 83.587829 111.956523 
L 85.197007 111.956523 
L 86.806186 116.381748 
L 88.415364 111.955649 
L 90.024542 109.743917 
L 91.63372 109.743917 
L 93.242898 111.955649 
L 94.852077 109.743482 
L 96.461255 111.95696 
L 98.070433 111.956086 
L 99.679611 114.168707 
L 101.28879 114.169563 
L 102.897968 111.956523 
L 106.116324 111.957397 
L 107.725503 116.381748 
L 109.334681 111.955649 
L 110.943859 114.169563 
L 112.553037 114.168707 
L 114.162216 111.955649 
L 115.771394 111.957397 
L 117.380572 114.167833 
L 118.98975 118.593914 
L 120.598929 114.167833 
L 122.208107 114.169545 
L 123.817285 109.744358 
L 125.426463 116.381748 
L 127.035642 116.381748 
L 130.253998 107.530442 
L 131.863176 107.530442 
L 133.472355 111.955667 
L 139.909068 111.957379 
L 141.518246 100.890446 
L 143.127424 94.253911 
L 144.736602 89.831255 
L 146.345781 80.979129 
L 147.954959 76.554797 
L 149.564137 69.920848 
L 151.173315 52.216598 
L 152.782494 54.429674 
L 154.391672 50.00516 
L 156.00085 38.941779 
L 157.610028 36.730524 
L 159.219207 32.300909 
L 160.828385 41.153035 
L 162.437563 54.429492 
L 164.046741 58.854007 
L 165.65592 54.431314 
L 167.265098 67.706132 
L 168.874276 100.894818 
L 170.483454 85.406922 
L 172.092633 89.833076 
L 173.701811 92.03914 
L 175.310989 107.53046 
L 176.920167 120.805224 
L 178.529346 114.169563 
L 180.138524 114.166121 
L 181.747702 123.021743 
L 183.35688 125.231305 
L 184.966059 125.231305 
L 186.575237 129.653889 
L 188.184415 118.595644 
L 189.793593 123.014785 
L 191.402772 140.71563 
L 193.01195 140.719091 
L 194.621128 116.379143 
L 196.230306 111.953044 
L 197.839485 98.678244 
L 199.448663 76.547875 
L 201.057841 52.211315 
L 202.667019 78.767874 
L 204.276198 67.713054 
L 205.885376 63.279978 
L 207.494554 63.273057 
L 209.103732 50.001699 
L 210.712911 56.644391 
L 212.322089 78.774795 
L 213.931267 78.760952 
L 217.149624 87.619999 
L 218.758802 72.125182 
L 220.36798 87.619999 
L 221.977158 94.24872 
L 223.586337 96.472179 
L 225.195515 100.89132 
L 226.804693 125.231305 
L 228.413871 103.11478 
L 230.02305 114.162624 
L 233.241406 118.595644 
L 234.850584 103.107822 
L 236.459763 116.386083 
L 238.068941 107.526963 
L 239.678119 89.822694 
L 241.287297 78.760952 
L 242.896476 65.482673 
L 244.505654 63.279978 
L 246.114832 54.427853 
L 247.72401 54.427853 
L 249.333189 58.846903 
L 250.942367 67.706132 
L 252.551545 74.327877 
L 254.160723 78.767874 
L 255.769902 85.403462 
L 257.37908 87.613078 
L 258.988258 92.03914 
L 260.597436 78.767874 
L 262.206615 92.03914 
L 263.815793 98.688699 
L 265.424971 98.681741 
L 267.034149 109.743482 
L 268.643327 123.014785 
L 270.252506 127.447824 
L 271.861684 127.447824 
L 273.470862 118.581746 
L 275.08004 105.324341 
L 276.689219 94.2626 
L 278.298397 92.03914 
L 279.907575 87.606156 
L 281.516753 76.558258 
L 283.125932 74.348642 
L 284.73511 61.077466 
L 286.344288 69.929591 
L 287.953466 80.97749 
L 291.171823 85.39654 
L 292.781001 83.186924 
L 294.390179 109.743482 
L 295.999358 89.843458 
L 297.608536 92.03914 
L 299.217714 98.681741 
L 300.826892 96.444384 
L 302.436071 103.100882 
L 305.654427 103.100882 
L 307.263605 120.819122 
L 308.872784 109.757379 
L 313.700318 83.200949 
L 315.309497 80.991333 
L 316.918675 67.719975 
L 318.527853 45.568806 
L 320.137031 56.630548 
L 321.74621 54.434775 
L 324.964566 76.558258 
L 326.573744 45.582649 
L 329.792101 72.125182 
L 331.401279 69.901723 
L 333.010457 58.839982 
L 334.619636 63.2869 
L 337.837992 103.086984 
L 339.44717 98.695639 
L 341.056349 92.066936 
L 344.274705 96.472179 
L 345.883883 94.2626 
L 347.493062 76.544415 
L 349.10224 63.259214 
L 350.711418 58.86785 
L 352.320596 69.957278 
L 353.929775 78.767874 
L 355.538953 78.781717 
L 357.148131 80.991333 
L 358.757309 85.39654 
L 360.366488 92.025243 
L 361.975666 94.234822 
L 363.584844 111.953044 
L 365.194022 107.547819 
L 366.803201 100.905218 
L 368.412379 116.372185 
L 370.021557 103.11478 
L 371.630735 100.905218 
L 373.239914 116.372185 
L 374.849092 103.073086 
L 376.45827 111.966942 
L 379.676627 111.966942 
L 381.285805 107.533921 
L 382.894983 114.190419 
L 384.504161 96.458282 
L 386.11334 98.653945 
L 387.722518 83.173081 
L 389.331696 78.781717 
L 390.940874 76.558258 
L 392.550053 61.105152 
L 394.159231 61.077466 
L 397.377587 65.440962 
L 398.986766 65.496516 
L 400.595944 69.915748 
L 402.205122 72.111339 
L 403.8143 76.530389 
L 405.423479 72.111339 
L 407.032657 80.97749 
L 408.641835 78.753849 
L 410.251013 87.619999 
L 411.860192 89.81559 
L 413.46937 80.97749 
L 415.078548 74.334798 
L 416.687726 78.726162 
L 418.296905 76.530389 
L 419.906083 78.781717 
L 421.515261 74.334798 
L 423.124439 80.97749 
L 424.733618 81.005176 
L 426.342796 83.200949 
L 427.951974 92.011345 
L 429.561152 85.39654 
L 431.170331 94.234822 
L 434.388687 94.234822 
L 435.997865 96.430486 
L 440.8254 89.843458 
L 442.434578 96.486077 
L 444.043757 100.905218 
L 447.262113 96.458263 
L 448.871291 92.03914 
L 450.480469 85.424408 
L 452.089648 85.424408 
L 453.698826 76.530389 
L 456.917182 76.558258 
L 458.526361 74.334798 
L 460.135539 69.915748 
L 461.744717 69.915748 
L 463.353895 63.273057 
L 464.963074 63.300925 
L 466.572252 58.854007 
L 468.18143 61.077466 
L 471.399787 56.658234 
L 473.008965 65.496516 
L 474.618143 61.077466 
L 477.8365 65.496516 
L 479.445678 63.300925 
L 481.054856 63.273057 
L 482.664034 72.139208 
L 484.273213 69.88788 
L 485.882391 69.88788 
L 489.100747 74.362667 
L 490.709926 74.362667 
L 492.319104 76.558258 
L 493.928282 74.30693 
L 495.53746 80.97749 
L 497.146639 74.334798 
L 501.974173 80.97749 
L 503.583352 78.781717 
L 506.801708 78.781717 
L 510.020065 83.173081 
L 511.629243 83.200949 
L 513.238421 85.368672 
L 514.847599 85.39654 
L 516.456778 89.843458 
L 518.065956 92.011345 
L 519.675134 92.03914 
L 521.284312 96.458282 
L 522.893491 96.458282 
L 530.939382 107.520023 
L 532.54856 107.520023 
L 534.157738 105.352137 
L 535.766917 107.520023 
L 535.766917 107.520023 
" style="fill:none;stroke:#ff7f0e;stroke-linecap:square;stroke-width:2;"/>
   </g>
   <g id="patch_3">
    <path d="M 47.461777 146.14 
L 47.461777 26.88 
" style="fill:none;stroke:#000000;stroke-linecap:square;stroke-linejoin:miter;stroke-width:0.8;"/>
   </g>
   <g id="patch_4">
    <path d="M 559.019542 146.14 
L 559.019542 26.88 
" style="fill:none;stroke:#000000;stroke-linecap:square;stroke-linejoin:miter;stroke-width:0.8;"/>
   </g>
   <g id="patch_5">
    <path d="M 47.461777 146.14 
L 559.019542 146.14 
" style="fill:none;stroke:#000000;stroke-linecap:square;stroke-linejoin:miter;stroke-width:0.8;"/>
   </g>
   <g id="patch_6">
    <path d="M 47.461777 26.88 
L 559.019542 26.88 
" style="fill:none;stroke:#000000;stroke-linecap:square;stroke-linejoin:miter;stroke-width:0.8;"/>
   </g>
   <g id="text_14">
    <!-- Translational Velocity -->
    <defs>
     <path d="M 41.109375 46.296875 
Q 39.59375 47.171875 37.8125 47.578125 
Q 36.03125 48 33.890625 48 
Q 26.265625 48 22.1875 43.046875 
Q 18.109375 38.09375 18.109375 28.8125 
L 18.109375 0 
L 9.078125 0 
L 9.078125 54.6875 
L 18.109375 54.6875 
L 18.109375 46.1875 
Q 20.953125 51.171875 25.484375 53.578125 
Q 30.03125 56 36.53125 56 
Q 37.453125 56 38.578125 55.875 
Q 39.703125 55.765625 41.0625 55.515625 
z
" id="DejaVuSans-114"/>
     <path d="M 34.28125 27.484375 
Q 23.390625 27.484375 19.1875 25 
Q 14.984375 22.515625 14.984375 16.5 
Q 14.984375 11.71875 18.140625 8.90625 
Q 21.296875 6.109375 26.703125 6.109375 
Q 34.1875 6.109375 38.703125 11.40625 
Q 43.21875 16.703125 43.21875 25.484375 
L 43.21875 27.484375 
z
M 52.203125 31.203125 
L 52.203125 0 
L 43.21875 0 
L 43.21875 8.296875 
Q 40.140625 3.328125 35.546875 0.953125 
Q 30.953125 -1.421875 24.3125 -1.421875 
Q 15.921875 -1.421875 10.953125 3.296875 
Q 6 8.015625 6 15.921875 
Q 6 25.140625 12.171875 29.828125 
Q 18.359375 34.515625 30.609375 34.515625 
L 43.21875 34.515625 
L 43.21875 35.40625 
Q 43.21875 41.609375 39.140625 45 
Q 35.0625 48.390625 27.6875 48.390625 
Q 23 48.390625 18.546875 47.265625 
Q 14.109375 46.140625 10.015625 43.890625 
L 10.015625 52.203125 
Q 14.9375 54.109375 19.578125 55.046875 
Q 24.21875 56 28.609375 56 
Q 40.484375 56 46.34375 49.84375 
Q 52.203125 43.703125 52.203125 31.203125 
z
" id="DejaVuSans-97"/>
     <path d="M 54.890625 33.015625 
L 54.890625 0 
L 45.90625 0 
L 45.90625 32.71875 
Q 45.90625 40.484375 42.875 44.328125 
Q 39.84375 48.1875 33.796875 48.1875 
Q 26.515625 48.1875 22.3125 43.546875 
Q 18.109375 38.921875 18.109375 30.90625 
L 18.109375 0 
L 9.078125 0 
L 9.078125 54.6875 
L 18.109375 54.6875 
L 18.109375 46.1875 
Q 21.34375 51.125 25.703125 53.5625 
Q 30.078125 56 35.796875 56 
Q 45.21875 56 50.046875 50.171875 
Q 54.890625 44.34375 54.890625 33.015625 
z
" id="DejaVuSans-110"/>
     <path d="M 18.3125 70.21875 
L 18.3125 54.6875 
L 36.8125 54.6875 
L 36.8125 47.703125 
L 18.3125 47.703125 
L 18.3125 18.015625 
Q 18.3125 11.328125 20.140625 9.421875 
Q 21.96875 7.515625 27.59375 7.515625 
L 36.8125 7.515625 
L 36.8125 0 
L 27.59375 0 
Q 17.1875 0 13.234375 3.875 
Q 9.28125 7.765625 9.28125 18.015625 
L 9.28125 47.703125 
L 2.6875 47.703125 
L 2.6875 54.6875 
L 9.28125 54.6875 
L 9.28125 70.21875 
z
" id="DejaVuSans-116"/>
     <path d="M 30.609375 48.390625 
Q 23.390625 48.390625 19.1875 42.75 
Q 14.984375 37.109375 14.984375 27.296875 
Q 14.984375 17.484375 19.15625 11.84375 
Q 23.34375 6.203125 30.609375 6.203125 
Q 37.796875 6.203125 41.984375 11.859375 
Q 46.1875 17.53125 46.1875 27.296875 
Q 46.1875 37.015625 41.984375 42.703125 
Q 37.796875 48.390625 30.609375 48.390625 
z
M 30.609375 56 
Q 42.328125 56 49.015625 48.375 
Q 55.71875 40.765625 55.71875 27.296875 
Q 55.71875 13.875 49.015625 6.21875 
Q 42.328125 -1.421875 30.609375 -1.421875 
Q 18.84375 -1.421875 12.171875 6.21875 
Q 5.515625 13.875 5.515625 27.296875 
Q 5.515625 40.765625 12.171875 48.375 
Q 18.84375 56 30.609375 56 
z
" id="DejaVuSans-111"/>
     <path d="M 28.609375 0 
L 0.78125 72.90625 
L 11.078125 72.90625 
L 34.1875 11.53125 
L 57.328125 72.90625 
L 67.578125 72.90625 
L 39.796875 0 
z
" id="DejaVuSans-86"/>
     <path d="M 48.78125 52.59375 
L 48.78125 44.1875 
Q 44.96875 46.296875 41.140625 47.34375 
Q 37.3125 48.390625 33.40625 48.390625 
Q 24.65625 48.390625 19.8125 42.84375 
Q 14.984375 37.3125 14.984375 27.296875 
Q 14.984375 17.28125 19.8125 11.734375 
Q 24.65625 6.203125 33.40625 6.203125 
Q 37.3125 6.203125 41.140625 7.25 
Q 44.96875 8.296875 48.78125 10.40625 
L 48.78125 2.09375 
Q 45.015625 0.34375 40.984375 -0.53125 
Q 36.96875 -1.421875 32.421875 -1.421875 
Q 20.0625 -1.421875 12.78125 6.34375 
Q 5.515625 14.109375 5.515625 27.296875 
Q 5.515625 40.671875 12.859375 48.328125 
Q 20.21875 56 33.015625 56 
Q 37.15625 56 41.109375 55.140625 
Q 45.0625 54.296875 48.78125 52.59375 
z
" id="DejaVuSans-99"/>
     <path d="M 32.171875 -5.078125 
Q 28.375 -14.84375 24.75 -17.8125 
Q 21.140625 -20.796875 15.09375 -20.796875 
L 7.90625 -20.796875 
L 7.90625 -13.28125 
L 13.1875 -13.28125 
Q 16.890625 -13.28125 18.9375 -11.515625 
Q 21 -9.765625 23.484375 -3.21875 
L 25.09375 0.875 
L 2.984375 54.6875 
L 12.5 54.6875 
L 29.59375 11.921875 
L 46.6875 54.6875 
L 56.203125 54.6875 
z
" id="DejaVuSans-121"/>
    </defs>
    <g transform="translate(239.763472 20.88)scale(0.12 -0.12)">
     <use xlink:href="#DejaVuSans-84"/>
     <use x="46.333984" xlink:href="#DejaVuSans-114"/>
     <use x="87.447266" xlink:href="#DejaVuSans-97"/>
     <use x="148.726562" xlink:href="#DejaVuSans-110"/>
     <use x="212.105469" xlink:href="#DejaVuSans-115"/>
     <use x="264.205078" xlink:href="#DejaVuSans-108"/>
     <use x="291.988281" xlink:href="#DejaVuSans-97"/>
     <use x="353.267578" xlink:href="#DejaVuSans-116"/>
     <use x="392.476562" xlink:href="#DejaVuSans-105"/>
     <use x="420.259766" xlink:href="#DejaVuSans-111"/>
     <use x="481.441406" xlink:href="#DejaVuSans-110"/>
     <use x="544.820312" xlink:href="#DejaVuSans-97"/>
     <use x="606.099609" xlink:href="#DejaVuSans-108"/>
     <use x="633.882812" xlink:href="#DejaVuSans-32"/>
     <use x="665.669922" xlink:href="#DejaVuSans-86"/>
     <use x="726.328125" xlink:href="#DejaVuSans-101"/>
     <use x="787.851562" xlink:href="#DejaVuSans-108"/>
     <use x="815.634766" xlink:href="#DejaVuSans-111"/>
     <use x="876.816406" xlink:href="#DejaVuSans-99"/>
     <use x="931.796875" xlink:href="#DejaVuSans-105"/>
     <use x="959.580078" xlink:href="#DejaVuSans-116"/>
     <use x="998.789062" xlink:href="#DejaVuSans-121"/>
    </g>
   </g>
   <g id="legend_1">
    <g id="patch_7">
     <path d="M 54.461777 64.23625 
L 136.978965 64.23625 
Q 138.978965 64.23625 138.978965 62.23625 
L 138.978965 33.88 
Q 138.978965 31.88 136.978965 31.88 
L 54.461777 31.88 
Q 52.461777 31.88 52.461777 33.88 
L 52.461777 62.23625 
Q 52.461777 64.23625 54.461777 64.23625 
z
" style="fill:#ffffff;opacity:0.8;stroke:#cccccc;stroke-linejoin:miter;"/>
    </g>
    <g id="line2d_23">
     <path d="M 56.461777 39.978438 
L 76.461777 39.978438 
" style="fill:none;stroke:#1f77b4;stroke-linecap:square;stroke-width:2;"/>
    </g>
    <g id="line2d_24"/>
    <g id="text_15">
     <!-- Reference -->
     <defs>
      <path d="M 44.390625 34.1875 
Q 47.5625 33.109375 50.5625 29.59375 
Q 53.5625 26.078125 56.59375 19.921875 
L 66.609375 0 
L 56 0 
L 46.6875 18.703125 
Q 43.0625 26.03125 39.671875 28.421875 
Q 36.28125 30.8125 30.421875 30.8125 
L 19.671875 30.8125 
L 19.671875 0 
L 9.8125 0 
L 9.8125 72.90625 
L 32.078125 72.90625 
Q 44.578125 72.90625 50.734375 67.671875 
Q 56.890625 62.453125 56.890625 51.90625 
Q 56.890625 45.015625 53.6875 40.46875 
Q 50.484375 35.9375 44.390625 34.1875 
z
M 19.671875 64.796875 
L 19.671875 38.921875 
L 32.078125 38.921875 
Q 39.203125 38.921875 42.84375 42.21875 
Q 46.484375 45.515625 46.484375 51.90625 
Q 46.484375 58.296875 42.84375 61.546875 
Q 39.203125 64.796875 32.078125 64.796875 
z
" id="DejaVuSans-82"/>
      <path d="M 37.109375 75.984375 
L 37.109375 68.5 
L 28.515625 68.5 
Q 23.6875 68.5 21.796875 66.546875 
Q 19.921875 64.59375 19.921875 59.515625 
L 19.921875 54.6875 
L 34.71875 54.6875 
L 34.71875 47.703125 
L 19.921875 47.703125 
L 19.921875 0 
L 10.890625 0 
L 10.890625 47.703125 
L 2.296875 47.703125 
L 2.296875 54.6875 
L 10.890625 54.6875 
L 10.890625 58.5 
Q 10.890625 67.625 15.140625 71.796875 
Q 19.390625 75.984375 28.609375 75.984375 
z
" id="DejaVuSans-102"/>
     </defs>
     <g transform="translate(84.461777 43.478438)scale(0.1 -0.1)">
      <use xlink:href="#DejaVuSans-82"/>
      <use x="64.982422" xlink:href="#DejaVuSans-101"/>
      <use x="126.505859" xlink:href="#DejaVuSans-102"/>
      <use x="161.710938" xlink:href="#DejaVuSans-101"/>
      <use x="223.234375" xlink:href="#DejaVuSans-114"/>
      <use x="262.097656" xlink:href="#DejaVuSans-101"/>
      <use x="323.621094" xlink:href="#DejaVuSans-110"/>
      <use x="387" xlink:href="#DejaVuSans-99"/>
      <use x="441.980469" xlink:href="#DejaVuSans-101"/>
     </g>
    </g>
    <g id="line2d_25">
     <path d="M 56.461777 54.656563 
L 76.461777 54.656563 
" style="fill:none;stroke:#ff7f0e;stroke-linecap:square;stroke-width:2;"/>
    </g>
    <g id="line2d_26"/>
    <g id="text_16">
     <!-- Estimated -->
     <defs>
      <path d="M 9.8125 72.90625 
L 55.90625 72.90625 
L 55.90625 64.59375 
L 19.671875 64.59375 
L 19.671875 43.015625 
L 54.390625 43.015625 
L 54.390625 34.71875 
L 19.671875 34.71875 
L 19.671875 8.296875 
L 56.78125 8.296875 
L 56.78125 0 
L 9.8125 0 
z
" id="DejaVuSans-69"/>
      <path d="M 45.40625 46.390625 
L 45.40625 75.984375 
L 54.390625 75.984375 
L 54.390625 0 
L 45.40625 0 
L 45.40625 8.203125 
Q 42.578125 3.328125 38.25 0.953125 
Q 33.9375 -1.421875 27.875 -1.421875 
Q 17.96875 -1.421875 11.734375 6.484375 
Q 5.515625 14.40625 5.515625 27.296875 
Q 5.515625 40.1875 11.734375 48.09375 
Q 17.96875 56 27.875 56 
Q 33.9375 56 38.25 53.625 
Q 42.578125 51.265625 45.40625 46.390625 
z
M 14.796875 27.296875 
Q 14.796875 17.390625 18.875 11.75 
Q 22.953125 6.109375 30.078125 6.109375 
Q 37.203125 6.109375 41.296875 11.75 
Q 45.40625 17.390625 45.40625 27.296875 
Q 45.40625 37.203125 41.296875 42.84375 
Q 37.203125 48.484375 30.078125 48.484375 
Q 22.953125 48.484375 18.875 42.84375 
Q 14.796875 37.203125 14.796875 27.296875 
z
" id="DejaVuSans-100"/>
     </defs>
     <g transform="translate(84.461777 58.156563)scale(0.1 -0.1)">
      <use xlink:href="#DejaVuSans-69"/>
      <use x="63.183594" xlink:href="#DejaVuSans-115"/>
      <use x="115.283203" xlink:href="#DejaVuSans-116"/>
      <use x="154.492188" xlink:href="#DejaVuSans-105"/>
      <use x="182.275391" xlink:href="#DejaVuSans-109"/>
      <use x="279.6875" xlink:href="#DejaVuSans-97"/>
      <use x="340.966797" xlink:href="#DejaVuSans-116"/>
      <use x="380.175781" xlink:href="#DejaVuSans-101"/>
      <use x="441.699219" xlink:href="#DejaVuSans-100"/>
     </g>
    </g>
   </g>
  </g>
  <g id="axes_2">
   <g id="patch_8">
    <path d="M 47.461777 323.44 
L 559.019542 323.44 
L 559.019542 204.18 
L 47.461777 204.18 
z
" style="fill:#ffffff;"/>
   </g>
   <g id="matplotlib.axis_3">
    <g id="xtick_8">
     <g id="line2d_27">
      <path clip-path="url(#p69c9a27cec)" d="M 70.714403 323.44 
L 70.714403 204.18 
" style="fill:none;stroke:#b0b0b0;stroke-linecap:square;stroke-width:0.8;"/>
     </g>
     <g id="line2d_28">
      <g>
       <use style="stroke:#000000;stroke-width:0.8;" x="70.714403" xlink:href="#m055b1985a6" y="323.44"/>
      </g>
     </g>
     <g id="text_17">
      <!-- 0.00 -->
      <g transform="translate(59.581591 338.038438)scale(0.1 -0.1)">
       <use xlink:href="#DejaVuSans-48"/>
       <use x="63.623047" xlink:href="#DejaVuSans-46"/>
       <use x="95.410156" xlink:href="#DejaVuSans-48"/>
       <use x="159.033203" xlink:href="#DejaVuSans-48"/>
      </g>
     </g>
    </g>
    <g id="xtick_9">
     <g id="line2d_29">
      <path clip-path="url(#p69c9a27cec)" d="M 151.173315 323.44 
L 151.173315 204.18 
" style="fill:none;stroke:#b0b0b0;stroke-linecap:square;stroke-width:0.8;"/>
     </g>
     <g id="line2d_30">
      <g>
       <use style="stroke:#000000;stroke-width:0.8;" x="151.173315" xlink:href="#m055b1985a6" y="323.44"/>
      </g>
     </g>
     <g id="text_18">
      <!-- 0.05 -->
      <g transform="translate(140.040503 338.038438)scale(0.1 -0.1)">
       <use xlink:href="#DejaVuSans-48"/>
       <use x="63.623047" xlink:href="#DejaVuSans-46"/>
       <use x="95.410156" xlink:href="#DejaVuSans-48"/>
       <use x="159.033203" xlink:href="#DejaVuSans-53"/>
      </g>
     </g>
    </g>
    <g id="xtick_10">
     <g id="line2d_31">
      <path clip-path="url(#p69c9a27cec)" d="M 231.632228 323.44 
L 231.632228 204.18 
" style="fill:none;stroke:#b0b0b0;stroke-linecap:square;stroke-width:0.8;"/>
     </g>
     <g id="line2d_32">
      <g>
       <use style="stroke:#000000;stroke-width:0.8;" x="231.632228" xlink:href="#m055b1985a6" y="323.44"/>
      </g>
     </g>
     <g id="text_19">
      <!-- 0.10 -->
      <g transform="translate(220.499415 338.038438)scale(0.1 -0.1)">
       <use xlink:href="#DejaVuSans-48"/>
       <use x="63.623047" xlink:href="#DejaVuSans-46"/>
       <use x="95.410156" xlink:href="#DejaVuSans-49"/>
       <use x="159.033203" xlink:href="#DejaVuSans-48"/>
      </g>
     </g>
    </g>
    <g id="xtick_11">
     <g id="line2d_33">
      <path clip-path="url(#p69c9a27cec)" d="M 312.09114 323.44 
L 312.09114 204.18 
" style="fill:none;stroke:#b0b0b0;stroke-linecap:square;stroke-width:0.8;"/>
     </g>
     <g id="line2d_34">
      <g>
       <use style="stroke:#000000;stroke-width:0.8;" x="312.09114" xlink:href="#m055b1985a6" y="323.44"/>
      </g>
     </g>
     <g id="text_20">
      <!-- 0.15 -->
      <g transform="translate(300.958328 338.038438)scale(0.1 -0.1)">
       <use xlink:href="#DejaVuSans-48"/>
       <use x="63.623047" xlink:href="#DejaVuSans-46"/>
       <use x="95.410156" xlink:href="#DejaVuSans-49"/>
       <use x="159.033203" xlink:href="#DejaVuSans-53"/>
      </g>
     </g>
    </g>
    <g id="xtick_12">
     <g id="line2d_35">
      <path clip-path="url(#p69c9a27cec)" d="M 392.550053 323.44 
L 392.550053 204.18 
" style="fill:none;stroke:#b0b0b0;stroke-linecap:square;stroke-width:0.8;"/>
     </g>
     <g id="line2d_36">
      <g>
       <use style="stroke:#000000;stroke-width:0.8;" x="392.550053" xlink:href="#m055b1985a6" y="323.44"/>
      </g>
     </g>
     <g id="text_21">
      <!-- 0.20 -->
      <g transform="translate(381.41724 338.038438)scale(0.1 -0.1)">
       <use xlink:href="#DejaVuSans-48"/>
       <use x="63.623047" xlink:href="#DejaVuSans-46"/>
       <use x="95.410156" xlink:href="#DejaVuSans-50"/>
       <use x="159.033203" xlink:href="#DejaVuSans-48"/>
      </g>
     </g>
    </g>
    <g id="xtick_13">
     <g id="line2d_37">
      <path clip-path="url(#p69c9a27cec)" d="M 473.008965 323.44 
L 473.008965 204.18 
" style="fill:none;stroke:#b0b0b0;stroke-linecap:square;stroke-width:0.8;"/>
     </g>
     <g id="line2d_38">
      <g>
       <use style="stroke:#000000;stroke-width:0.8;" x="473.008965" xlink:href="#m055b1985a6" y="323.44"/>
      </g>
     </g>
     <g id="text_22">
      <!-- 0.25 -->
      <g transform="translate(461.876152 338.038438)scale(0.1 -0.1)">
       <use xlink:href="#DejaVuSans-48"/>
       <use x="63.623047" xlink:href="#DejaVuSans-46"/>
       <use x="95.410156" xlink:href="#DejaVuSans-50"/>
       <use x="159.033203" xlink:href="#DejaVuSans-53"/>
      </g>
     </g>
    </g>
    <g id="xtick_14">
     <g id="line2d_39">
      <path clip-path="url(#p69c9a27cec)" d="M 553.467877 323.44 
L 553.467877 204.18 
" style="fill:none;stroke:#b0b0b0;stroke-linecap:square;stroke-width:0.8;"/>
     </g>
     <g id="line2d_40">
      <g>
       <use style="stroke:#000000;stroke-width:0.8;" x="553.467877" xlink:href="#m055b1985a6" y="323.44"/>
      </g>
     </g>
     <g id="text_23">
      <!-- 0.30 -->
      <g transform="translate(542.335065 338.038438)scale(0.1 -0.1)">
       <use xlink:href="#DejaVuSans-48"/>
       <use x="63.623047" xlink:href="#DejaVuSans-46"/>
       <use x="95.410156" xlink:href="#DejaVuSans-51"/>
       <use x="159.033203" xlink:href="#DejaVuSans-48"/>
      </g>
     </g>
    </g>
    <g id="text_24">
     <!-- Time [ms] -->
     <g transform="translate(278.041441 351.716563)scale(0.1 -0.1)">
      <use xlink:href="#DejaVuSans-84"/>
      <use x="57.958984" xlink:href="#DejaVuSans-105"/>
      <use x="85.742188" xlink:href="#DejaVuSans-109"/>
      <use x="183.154297" xlink:href="#DejaVuSans-101"/>
      <use x="244.677734" xlink:href="#DejaVuSans-32"/>
      <use x="276.464844" xlink:href="#DejaVuSans-91"/>
      <use x="315.478516" xlink:href="#DejaVuSans-109"/>
      <use x="412.890625" xlink:href="#DejaVuSans-115"/>
      <use x="464.990234" xlink:href="#DejaVuSans-93"/>
     </g>
    </g>
   </g>
   <g id="matplotlib.axis_4">
    <g id="ytick_4">
     <g id="line2d_41">
      <path clip-path="url(#p69c9a27cec)" d="M 47.461777 318.019091 
L 559.019542 318.019091 
" style="fill:none;stroke:#b0b0b0;stroke-linecap:square;stroke-width:0.8;"/>
     </g>
     <g id="line2d_42">
      <g>
       <use style="stroke:#000000;stroke-width:0.8;" x="47.461777" xlink:href="#m4eb7754980" y="318.019091"/>
      </g>
     </g>
     <g id="text_25">
      <!-- $\mathdefault{−5.0}$ -->
      <defs>
       <path d="M 10.59375 35.5 
L 73.1875 35.5 
L 73.1875 27.203125 
L 10.59375 27.203125 
z
" id="DejaVuSans-8722"/>
      </defs>
      <g transform="translate(16.161777 321.81831)scale(0.1 -0.1)">
       <use transform="translate(0 0.78125)" xlink:href="#DejaVuSans-8722"/>
       <use transform="translate(83.789062 0.78125)" xlink:href="#DejaVuSans-53"/>
       <use transform="translate(147.412109 0.78125)" xlink:href="#DejaVuSans-46"/>
       <use transform="translate(179.199219 0.78125)" xlink:href="#DejaVuSans-48"/>
      </g>
     </g>
    </g>
    <g id="ytick_5">
     <g id="line2d_43">
      <path clip-path="url(#p69c9a27cec)" d="M 47.461777 290.914545 
L 559.019542 290.914545 
" style="fill:none;stroke:#b0b0b0;stroke-linecap:square;stroke-width:0.8;"/>
     </g>
     <g id="line2d_44">
      <g>
       <use style="stroke:#000000;stroke-width:0.8;" x="47.461777" xlink:href="#m4eb7754980" y="290.914545"/>
      </g>
     </g>
     <g id="text_26">
      <!-- $\mathdefault{−2.5}$ -->
      <g transform="translate(16.161777 294.713764)scale(0.1 -0.1)">
       <use transform="translate(0 0.78125)" xlink:href="#DejaVuSans-8722"/>
       <use transform="translate(83.789062 0.78125)" xlink:href="#DejaVuSans-50"/>
       <use transform="translate(147.412109 0.78125)" xlink:href="#DejaVuSans-46"/>
       <use transform="translate(179.199219 0.78125)" xlink:href="#DejaVuSans-53"/>
      </g>
     </g>
    </g>
    <g id="ytick_6">
     <g id="line2d_45">
      <path clip-path="url(#p69c9a27cec)" d="M 47.461777 263.81 
L 559.019542 263.81 
" style="fill:none;stroke:#b0b0b0;stroke-linecap:square;stroke-width:0.8;"/>
     </g>
     <g id="line2d_46">
      <g>
       <use style="stroke:#000000;stroke-width:0.8;" x="47.461777" xlink:href="#m4eb7754980" y="263.81"/>
      </g>
     </g>
     <g id="text_27">
      <!-- $\mathdefault{0.0}$ -->
      <g transform="translate(24.461777 267.609219)scale(0.1 -0.1)">
       <use transform="translate(0 0.78125)" xlink:href="#DejaVuSans-48"/>
       <use transform="translate(63.623047 0.78125)" xlink:href="#DejaVuSans-46"/>
       <use transform="translate(95.410156 0.78125)" xlink:href="#DejaVuSans-48"/>
      </g>
     </g>
    </g>
    <g id="ytick_7">
     <g id="line2d_47">
      <path clip-path="url(#p69c9a27cec)" d="M 47.461777 236.705455 
L 559.019542 236.705455 
" style="fill:none;stroke:#b0b0b0;stroke-linecap:square;stroke-width:0.8;"/>
     </g>
     <g id="line2d_48">
      <g>
       <use style="stroke:#000000;stroke-width:0.8;" x="47.461777" xlink:href="#m4eb7754980" y="236.705455"/>
      </g>
     </g>
     <g id="text_28">
      <!-- $\mathdefault{2.5}$ -->
      <g transform="translate(24.461777 240.504673)scale(0.1 -0.1)">
       <use transform="translate(0 0.78125)" xlink:href="#DejaVuSans-50"/>
       <use transform="translate(63.623047 0.78125)" xlink:href="#DejaVuSans-46"/>
       <use transform="translate(95.410156 0.78125)" xlink:href="#DejaVuSans-53"/>
      </g>
     </g>
    </g>
    <g id="ytick_8">
     <g id="line2d_49">
      <path clip-path="url(#p69c9a27cec)" d="M 47.461777 209.600909 
L 559.019542 209.600909 
" style="fill:none;stroke:#b0b0b0;stroke-linecap:square;stroke-width:0.8;"/>
     </g>
     <g id="line2d_50">
      <g>
       <use style="stroke:#000000;stroke-width:0.8;" x="47.461777" xlink:href="#m4eb7754980" y="209.600909"/>
      </g>
     </g>
     <g id="text_29">
      <!-- $\mathdefault{5.0}$ -->
      <g transform="translate(24.461777 213.400128)scale(0.1 -0.1)">
       <use transform="translate(0 0.78125)" xlink:href="#DejaVuSans-53"/>
       <use transform="translate(63.623047 0.78125)" xlink:href="#DejaVuSans-46"/>
       <use transform="translate(95.410156 0.78125)" xlink:href="#DejaVuSans-48"/>
      </g>
     </g>
    </g>
    <g id="text_30">
     <!-- pwm input -->
     <defs>
      <path d="M 18.109375 8.203125 
L 18.109375 -20.796875 
L 9.078125 -20.796875 
L 9.078125 54.6875 
L 18.109375 54.6875 
L 18.109375 46.390625 
Q 20.953125 51.265625 25.265625 53.625 
Q 29.59375 56 35.59375 56 
Q 45.5625 56 51.78125 48.09375 
Q 58.015625 40.1875 58.015625 27.296875 
Q 58.015625 14.40625 51.78125 6.484375 
Q 45.5625 -1.421875 35.59375 -1.421875 
Q 29.59375 -1.421875 25.265625 0.953125 
Q 20.953125 3.328125 18.109375 8.203125 
z
M 48.6875 27.296875 
Q 48.6875 37.203125 44.609375 42.84375 
Q 40.53125 48.484375 33.40625 48.484375 
Q 26.265625 48.484375 22.1875 42.84375 
Q 18.109375 37.203125 18.109375 27.296875 
Q 18.109375 17.390625 22.1875 11.75 
Q 26.265625 6.109375 33.40625 6.109375 
Q 40.53125 6.109375 44.609375 11.75 
Q 48.6875 17.390625 48.6875 27.296875 
z
" id="DejaVuSans-112"/>
      <path d="M 4.203125 54.6875 
L 13.1875 54.6875 
L 24.421875 12.015625 
L 35.59375 54.6875 
L 46.1875 54.6875 
L 57.421875 12.015625 
L 68.609375 54.6875 
L 77.59375 54.6875 
L 63.28125 0 
L 52.6875 0 
L 40.921875 44.828125 
L 29.109375 0 
L 18.5 0 
z
" id="DejaVuSans-119"/>
      <path d="M 8.5 21.578125 
L 8.5 54.6875 
L 17.484375 54.6875 
L 17.484375 21.921875 
Q 17.484375 14.15625 20.5 10.265625 
Q 23.53125 6.390625 29.59375 6.390625 
Q 36.859375 6.390625 41.078125 11.03125 
Q 45.3125 15.671875 45.3125 23.6875 
L 45.3125 54.6875 
L 54.296875 54.6875 
L 54.296875 0 
L 45.3125 0 
L 45.3125 8.40625 
Q 42.046875 3.421875 37.71875 1 
Q 33.40625 -1.421875 27.6875 -1.421875 
Q 18.265625 -1.421875 13.375 4.4375 
Q 8.5 10.296875 8.5 21.578125 
z
M 31.109375 56 
z
" id="DejaVuSans-117"/>
     </defs>
     <g transform="translate(10.08209 290.393594)rotate(-90)scale(0.1 -0.1)">
      <use xlink:href="#DejaVuSans-112"/>
      <use x="63.476562" xlink:href="#DejaVuSans-119"/>
      <use x="145.263672" xlink:href="#DejaVuSans-109"/>
      <use x="242.675781" xlink:href="#DejaVuSans-32"/>
      <use x="274.462891" xlink:href="#DejaVuSans-105"/>
      <use x="302.246094" xlink:href="#DejaVuSans-110"/>
      <use x="365.625" xlink:href="#DejaVuSans-112"/>
      <use x="429.101562" xlink:href="#DejaVuSans-117"/>
      <use x="492.480469" xlink:href="#DejaVuSans-116"/>
     </g>
    </g>
    <g id="text_31">
     <!-- $\times\mathdefault{10^{−2}}\mathdefault{}$ -->
     <g transform="translate(47.461777 201.18)scale(0.1 -0.1)">
      <use transform="translate(0 0.765625)" xlink:href="#DejaVuSans-215"/>
      <use transform="translate(83.789062 0.765625)" xlink:href="#DejaVuSans-49"/>
      <use transform="translate(147.412109 0.765625)" xlink:href="#DejaVuSans-48"/>
      <use transform="translate(211.992188 39.046875)scale(0.7)" xlink:href="#DejaVuSans-8722"/>
      <use transform="translate(270.644531 39.046875)scale(0.7)" xlink:href="#DejaVuSans-50"/>
     </g>
    </g>
   </g>
   <g id="line2d_51">
    <path clip-path="url(#p69c9a27cec)" d="M 70.714403 263.81 
L 535.766917 263.81 
L 535.766917 263.81 
" style="fill:none;stroke:#1f77b4;stroke-linecap:square;stroke-width:2;"/>
   </g>
   <g id="line2d_52">
    <path clip-path="url(#p69c9a27cec)" d="M 70.714403 263.81 
L 535.766917 263.81 
L 535.766917 263.81 
" style="fill:none;stroke:#ff7f0e;stroke-linecap:square;stroke-width:2;"/>
   </g>
   <g id="line2d_53">
    <path clip-path="url(#p69c9a27cec)" d="M 70.714403 263.81 
L 535.766917 263.81 
L 535.766917 263.81 
" style="fill:none;stroke:#2ca02c;stroke-linecap:square;stroke-width:2;"/>
   </g>
   <g id="line2d_54">
    <path clip-path="url(#p69c9a27cec)" d="M 70.714403 263.81 
L 535.766917 263.81 
L 535.766917 263.81 
" style="fill:none;stroke:#d62728;stroke-linecap:square;stroke-width:2;"/>
   </g>
   <g id="line2d_55">
    <path clip-path="url(#p69c9a27cec)" d="M 70.714403 263.81 
L 535.766917 263.81 
L 535.766917 263.81 
" style="fill:none;stroke:#9467bd;stroke-linecap:square;stroke-width:2;"/>
   </g>
   <g id="patch_9">
    <path d="M 47.461777 323.44 
L 47.461777 204.18 
" style="fill:none;stroke:#000000;stroke-linecap:square;stroke-linejoin:miter;stroke-width:0.8;"/>
   </g>
   <g id="patch_10">
    <path d="M 559.019542 323.44 
L 559.019542 204.18 
" style="fill:none;stroke:#000000;stroke-linecap:square;stroke-linejoin:miter;stroke-width:0.8;"/>
   </g>
   <g id="patch_11">
    <path d="M 47.461777 323.44 
L 559.019542 323.44 
" style="fill:none;stroke:#000000;stroke-linecap:square;stroke-linejoin:miter;stroke-width:0.8;"/>
   </g>
   <g id="patch_12">
    <path d="M 47.461777 204.18 
L 559.019542 204.18 
" style="fill:none;stroke:#000000;stroke-linecap:square;stroke-linejoin:miter;stroke-width:0.8;"/>
   </g>
   <g id="text_32">
    <!-- Translational PWM Input -->
    <defs>
     <path d="M 19.671875 64.796875 
L 19.671875 37.40625 
L 32.078125 37.40625 
Q 38.96875 37.40625 42.71875 40.96875 
Q 46.484375 44.53125 46.484375 51.125 
Q 46.484375 57.671875 42.71875 61.234375 
Q 38.96875 64.796875 32.078125 64.796875 
z
M 9.8125 72.90625 
L 32.078125 72.90625 
Q 44.34375 72.90625 50.609375 67.359375 
Q 56.890625 61.8125 56.890625 51.125 
Q 56.890625 40.328125 50.609375 34.8125 
Q 44.34375 29.296875 32.078125 29.296875 
L 19.671875 29.296875 
L 19.671875 0 
L 9.8125 0 
z
" id="DejaVuSans-80"/>
     <path d="M 3.328125 72.90625 
L 13.28125 72.90625 
L 28.609375 11.28125 
L 43.890625 72.90625 
L 54.984375 72.90625 
L 70.3125 11.28125 
L 85.59375 72.90625 
L 95.609375 72.90625 
L 77.296875 0 
L 64.890625 0 
L 49.515625 63.28125 
L 33.984375 0 
L 21.578125 0 
z
" id="DejaVuSans-87"/>
     <path d="M 9.8125 72.90625 
L 24.515625 72.90625 
L 43.109375 23.296875 
L 61.8125 72.90625 
L 76.515625 72.90625 
L 76.515625 0 
L 66.890625 0 
L 66.890625 64.015625 
L 48.09375 14.015625 
L 38.1875 14.015625 
L 19.390625 64.015625 
L 19.390625 0 
L 9.8125 0 
z
" id="DejaVuSans-77"/>
     <path d="M 9.8125 72.90625 
L 19.671875 72.90625 
L 19.671875 0 
L 9.8125 0 
z
" id="DejaVuSans-73"/>
    </defs>
    <g transform="translate(231.13191 198.18)scale(0.12 -0.12)">
     <use xlink:href="#DejaVuSans-84"/>
     <use x="46.333984" xlink:href="#DejaVuSans-114"/>
     <use x="87.447266" xlink:href="#DejaVuSans-97"/>
     <use x="148.726562" xlink:href="#DejaVuSans-110"/>
     <use x="212.105469" xlink:href="#DejaVuSans-115"/>
     <use x="264.205078" xlink:href="#DejaVuSans-108"/>
     <use x="291.988281" xlink:href="#DejaVuSans-97"/>
     <use x="353.267578" xlink:href="#DejaVuSans-116"/>
     <use x="392.476562" xlink:href="#DejaVuSans-105"/>
     <use x="420.259766" xlink:href="#DejaVuSans-111"/>
     <use x="481.441406" xlink:href="#DejaVuSans-110"/>
     <use x="544.820312" xlink:href="#DejaVuSans-97"/>
     <use x="606.099609" xlink:href="#DejaVuSans-108"/>
     <use x="633.882812" xlink:href="#DejaVuSans-32"/>
     <use x="665.669922" xlink:href="#DejaVuSans-80"/>
     <use x="725.972656" xlink:href="#DejaVuSans-87"/>
     <use x="824.849609" xlink:href="#DejaVuSans-77"/>
     <use x="911.128906" xlink:href="#DejaVuSans-32"/>
     <use x="942.916016" xlink:href="#DejaVuSans-73"/>
     <use x="972.408203" xlink:href="#DejaVuSans-110"/>
     <use x="1035.787109" xlink:href="#DejaVuSans-112"/>
     <use x="1099.263672" xlink:href="#DejaVuSans-117"/>
     <use x="1162.642578" xlink:href="#DejaVuSans-116"/>
    </g>
   </g>
   <g id="legend_2">
    <g id="patch_13">
     <path d="M 230.700792 226.858125 
L 552.019542 226.858125 
Q 554.019542 226.858125 554.019542 224.858125 
L 554.019542 211.18 
Q 554.019542 209.18 552.019542 209.18 
L 230.700792 209.18 
Q 228.700792 209.18 228.700792 211.18 
L 228.700792 224.858125 
Q 228.700792 226.858125 230.700792 226.858125 
z
" style="fill:#ffffff;opacity:0.8;stroke:#cccccc;stroke-linejoin:miter;"/>
    </g>
    <g id="line2d_56">
     <path d="M 232.700792 217.278438 
L 252.700792 217.278438 
" style="fill:none;stroke:#1f77b4;stroke-linecap:square;stroke-width:2;"/>
    </g>
    <g id="line2d_57"/>
    <g id="text_33">
     <!-- FF -->
     <defs>
      <path d="M 9.8125 72.90625 
L 51.703125 72.90625 
L 51.703125 64.59375 
L 19.671875 64.59375 
L 19.671875 43.109375 
L 48.578125 43.109375 
L 48.578125 34.8125 
L 19.671875 34.8125 
L 19.671875 0 
L 9.8125 0 
z
" id="DejaVuSans-70"/>
     </defs>
     <g transform="translate(260.700792 220.778438)scale(0.1 -0.1)">
      <use xlink:href="#DejaVuSans-70"/>
      <use x="57.519531" xlink:href="#DejaVuSans-70"/>
     </g>
    </g>
    <g id="line2d_58">
     <path d="M 292.203917 217.278438 
L 312.203917 217.278438 
" style="fill:none;stroke:#ff7f0e;stroke-linecap:square;stroke-width:2;"/>
    </g>
    <g id="line2d_59"/>
    <g id="text_34">
     <!-- FB -->
     <defs>
      <path d="M 19.671875 34.8125 
L 19.671875 8.109375 
L 35.5 8.109375 
Q 43.453125 8.109375 47.28125 11.40625 
Q 51.125 14.703125 51.125 21.484375 
Q 51.125 28.328125 47.28125 31.5625 
Q 43.453125 34.8125 35.5 34.8125 
z
M 19.671875 64.796875 
L 19.671875 42.828125 
L 34.28125 42.828125 
Q 41.5 42.828125 45.03125 45.53125 
Q 48.578125 48.25 48.578125 53.8125 
Q 48.578125 59.328125 45.03125 62.0625 
Q 41.5 64.796875 34.28125 64.796875 
z
M 9.8125 72.90625 
L 35.015625 72.90625 
Q 46.296875 72.90625 52.390625 68.21875 
Q 58.5 63.53125 58.5 54.890625 
Q 58.5 48.1875 55.375 44.234375 
Q 52.25 40.28125 46.1875 39.3125 
Q 53.46875 37.75 57.5 32.78125 
Q 61.53125 27.828125 61.53125 20.40625 
Q 61.53125 10.640625 54.890625 5.3125 
Q 48.25 0 35.984375 0 
L 9.8125 0 
z
" id="DejaVuSans-66"/>
     </defs>
     <g transform="translate(320.203917 220.778438)scale(0.1 -0.1)">
      <use xlink:href="#DejaVuSans-70"/>
      <use x="57.519531" xlink:href="#DejaVuSans-66"/>
     </g>
    </g>
    <g id="line2d_60">
     <path d="M 352.816417 217.278438 
L 372.816417 217.278438 
" style="fill:none;stroke:#2ca02c;stroke-linecap:square;stroke-width:2;"/>
    </g>
    <g id="line2d_61"/>
    <g id="text_35">
     <!-- FB p -->
     <g transform="translate(380.816417 220.778438)scale(0.1 -0.1)">
      <use xlink:href="#DejaVuSans-70"/>
      <use x="57.519531" xlink:href="#DejaVuSans-66"/>
      <use x="126.123047" xlink:href="#DejaVuSans-32"/>
      <use x="157.910156" xlink:href="#DejaVuSans-112"/>
     </g>
    </g>
    <g id="line2d_62">
     <path d="M 422.95548 217.278438 
L 442.95548 217.278438 
" style="fill:none;stroke:#d62728;stroke-linecap:square;stroke-width:2;"/>
    </g>
    <g id="line2d_63"/>
    <g id="text_36">
     <!-- FB i -->
     <g transform="translate(450.95548 220.778438)scale(0.1 -0.1)">
      <use xlink:href="#DejaVuSans-70"/>
      <use x="57.519531" xlink:href="#DejaVuSans-66"/>
      <use x="126.123047" xlink:href="#DejaVuSans-32"/>
      <use x="157.910156" xlink:href="#DejaVuSans-105"/>
     </g>
    </g>
    <g id="line2d_64">
     <path d="M 489.52423 217.278438 
L 509.52423 217.278438 
" style="fill:none;stroke:#9467bd;stroke-linecap:square;stroke-width:2;"/>
    </g>
    <g id="line2d_65"/>
    <g id="text_37">
     <!-- FF+FB -->
     <defs>
      <path d="M 46 62.703125 
L 46 35.5 
L 73.1875 35.5 
L 73.1875 27.203125 
L 46 27.203125 
L 46 0 
L 37.796875 0 
L 37.796875 27.203125 
L 10.59375 27.203125 
L 10.59375 35.5 
L 37.796875 35.5 
L 37.796875 62.703125 
z
" id="DejaVuSans-43"/>
     </defs>
     <g transform="translate(517.52423 220.778438)scale(0.1 -0.1)">
      <use xlink:href="#DejaVuSans-70"/>
      <use x="57.519531" xlink:href="#DejaVuSans-70"/>
      <use x="115.039062" xlink:href="#DejaVuSans-43"/>
      <use x="198.828125" xlink:href="#DejaVuSans-70"/>
      <use x="256.347656" xlink:href="#DejaVuSans-66"/>
     </g>
    </g>
   </g>
  </g>
  <g id="axes_3">
   <g id="patch_14">
    <path d="M 47.461777 500.74 
L 559.019542 500.74 
L 559.019542 381.48 
L 47.461777 381.48 
z
" style="fill:#ffffff;"/>
   </g>
   <g id="matplotlib.axis_5">
    <g id="xtick_15">
     <g id="line2d_66">
      <path clip-path="url(#p4e8eb80c88)" d="M 70.714403 500.74 
L 70.714403 381.48 
" style="fill:none;stroke:#b0b0b0;stroke-linecap:square;stroke-width:0.8;"/>
     </g>
     <g id="line2d_67">
      <g>
       <use style="stroke:#000000;stroke-width:0.8;" x="70.714403" xlink:href="#m055b1985a6" y="500.74"/>
      </g>
     </g>
     <g id="text_38">
      <!-- 0.00 -->
      <g transform="translate(59.581591 515.338438)scale(0.1 -0.1)">
       <use xlink:href="#DejaVuSans-48"/>
       <use x="63.623047" xlink:href="#DejaVuSans-46"/>
       <use x="95.410156" xlink:href="#DejaVuSans-48"/>
       <use x="159.033203" xlink:href="#DejaVuSans-48"/>
      </g>
     </g>
    </g>
    <g id="xtick_16">
     <g id="line2d_68">
      <path clip-path="url(#p4e8eb80c88)" d="M 151.173315 500.74 
L 151.173315 381.48 
" style="fill:none;stroke:#b0b0b0;stroke-linecap:square;stroke-width:0.8;"/>
     </g>
     <g id="line2d_69">
      <g>
       <use style="stroke:#000000;stroke-width:0.8;" x="151.173315" xlink:href="#m055b1985a6" y="500.74"/>
      </g>
     </g>
     <g id="text_39">
      <!-- 0.05 -->
      <g transform="translate(140.040503 515.338438)scale(0.1 -0.1)">
       <use xlink:href="#DejaVuSans-48"/>
       <use x="63.623047" xlink:href="#DejaVuSans-46"/>
       <use x="95.410156" xlink:href="#DejaVuSans-48"/>
       <use x="159.033203" xlink:href="#DejaVuSans-53"/>
      </g>
     </g>
    </g>
    <g id="xtick_17">
     <g id="line2d_70">
      <path clip-path="url(#p4e8eb80c88)" d="M 231.632228 500.74 
L 231.632228 381.48 
" style="fill:none;stroke:#b0b0b0;stroke-linecap:square;stroke-width:0.8;"/>
     </g>
     <g id="line2d_71">
      <g>
       <use style="stroke:#000000;stroke-width:0.8;" x="231.632228" xlink:href="#m055b1985a6" y="500.74"/>
      </g>
     </g>
     <g id="text_40">
      <!-- 0.10 -->
      <g transform="translate(220.499415 515.338438)scale(0.1 -0.1)">
       <use xlink:href="#DejaVuSans-48"/>
       <use x="63.623047" xlink:href="#DejaVuSans-46"/>
       <use x="95.410156" xlink:href="#DejaVuSans-49"/>
       <use x="159.033203" xlink:href="#DejaVuSans-48"/>
      </g>
     </g>
    </g>
    <g id="xtick_18">
     <g id="line2d_72">
      <path clip-path="url(#p4e8eb80c88)" d="M 312.09114 500.74 
L 312.09114 381.48 
" style="fill:none;stroke:#b0b0b0;stroke-linecap:square;stroke-width:0.8;"/>
     </g>
     <g id="line2d_73">
      <g>
       <use style="stroke:#000000;stroke-width:0.8;" x="312.09114" xlink:href="#m055b1985a6" y="500.74"/>
      </g>
     </g>
     <g id="text_41">
      <!-- 0.15 -->
      <g transform="translate(300.958328 515.338438)scale(0.1 -0.1)">
       <use xlink:href="#DejaVuSans-48"/>
       <use x="63.623047" xlink:href="#DejaVuSans-46"/>
       <use x="95.410156" xlink:href="#DejaVuSans-49"/>
       <use x="159.033203" xlink:href="#DejaVuSans-53"/>
      </g>
     </g>
    </g>
    <g id="xtick_19">
     <g id="line2d_74">
      <path clip-path="url(#p4e8eb80c88)" d="M 392.550053 500.74 
L 392.550053 381.48 
" style="fill:none;stroke:#b0b0b0;stroke-linecap:square;stroke-width:0.8;"/>
     </g>
     <g id="line2d_75">
      <g>
       <use style="stroke:#000000;stroke-width:0.8;" x="392.550053" xlink:href="#m055b1985a6" y="500.74"/>
      </g>
     </g>
     <g id="text_42">
      <!-- 0.20 -->
      <g transform="translate(381.41724 515.338438)scale(0.1 -0.1)">
       <use xlink:href="#DejaVuSans-48"/>
       <use x="63.623047" xlink:href="#DejaVuSans-46"/>
       <use x="95.410156" xlink:href="#DejaVuSans-50"/>
       <use x="159.033203" xlink:href="#DejaVuSans-48"/>
      </g>
     </g>
    </g>
    <g id="xtick_20">
     <g id="line2d_76">
      <path clip-path="url(#p4e8eb80c88)" d="M 473.008965 500.74 
L 473.008965 381.48 
" style="fill:none;stroke:#b0b0b0;stroke-linecap:square;stroke-width:0.8;"/>
     </g>
     <g id="line2d_77">
      <g>
       <use style="stroke:#000000;stroke-width:0.8;" x="473.008965" xlink:href="#m055b1985a6" y="500.74"/>
      </g>
     </g>
     <g id="text_43">
      <!-- 0.25 -->
      <g transform="translate(461.876152 515.338438)scale(0.1 -0.1)">
       <use xlink:href="#DejaVuSans-48"/>
       <use x="63.623047" xlink:href="#DejaVuSans-46"/>
       <use x="95.410156" xlink:href="#DejaVuSans-50"/>
       <use x="159.033203" xlink:href="#DejaVuSans-53"/>
      </g>
     </g>
    </g>
    <g id="xtick_21">
     <g id="line2d_78">
      <path clip-path="url(#p4e8eb80c88)" d="M 553.467877 500.74 
L 553.467877 381.48 
" style="fill:none;stroke:#b0b0b0;stroke-linecap:square;stroke-width:0.8;"/>
     </g>
     <g id="line2d_79">
      <g>
       <use style="stroke:#000000;stroke-width:0.8;" x="553.467877" xlink:href="#m055b1985a6" y="500.74"/>
      </g>
     </g>
     <g id="text_44">
      <!-- 0.30 -->
      <g transform="translate(542.335065 515.338438)scale(0.1 -0.1)">
       <use xlink:href="#DejaVuSans-48"/>
       <use x="63.623047" xlink:href="#DejaVuSans-46"/>
       <use x="95.410156" xlink:href="#DejaVuSans-51"/>
       <use x="159.033203" xlink:href="#DejaVuSans-48"/>
      </g>
     </g>
    </g>
    <g id="text_45">
     <!-- Time [ms] -->
     <g transform="translate(278.041441 529.016562)scale(0.1 -0.1)">
      <use xlink:href="#DejaVuSans-84"/>
      <use x="57.958984" xlink:href="#DejaVuSans-105"/>
      <use x="85.742188" xlink:href="#DejaVuSans-109"/>
      <use x="183.154297" xlink:href="#DejaVuSans-101"/>
      <use x="244.677734" xlink:href="#DejaVuSans-32"/>
      <use x="276.464844" xlink:href="#DejaVuSans-91"/>
      <use x="315.478516" xlink:href="#DejaVuSans-109"/>
      <use x="412.890625" xlink:href="#DejaVuSans-115"/>
      <use x="464.990234" xlink:href="#DejaVuSans-93"/>
     </g>
    </g>
   </g>
   <g id="matplotlib.axis_6">
    <g id="ytick_9">
     <g id="line2d_80">
      <path clip-path="url(#p4e8eb80c88)" d="M 47.461777 492.919543 
L 559.019542 492.919543 
" style="fill:none;stroke:#b0b0b0;stroke-linecap:square;stroke-width:0.8;"/>
     </g>
     <g id="line2d_81">
      <g>
       <use style="stroke:#000000;stroke-width:0.8;" x="47.461777" xlink:href="#m4eb7754980" y="492.919543"/>
      </g>
     </g>
     <g id="text_46">
      <!-- $\mathdefault{0}$ -->
      <g transform="translate(34.061777 496.718762)scale(0.1 -0.1)">
       <use transform="translate(0 0.78125)" xlink:href="#DejaVuSans-48"/>
      </g>
     </g>
    </g>
    <g id="ytick_10">
     <g id="line2d_82">
      <path clip-path="url(#p4e8eb80c88)" d="M 47.461777 462.280356 
L 559.019542 462.280356 
" style="fill:none;stroke:#b0b0b0;stroke-linecap:square;stroke-width:0.8;"/>
     </g>
     <g id="line2d_83">
      <g>
       <use style="stroke:#000000;stroke-width:0.8;" x="47.461777" xlink:href="#m4eb7754980" y="462.280356"/>
      </g>
     </g>
     <g id="text_47">
      <!-- $\mathdefault{1}$ -->
      <g transform="translate(34.061777 466.079575)scale(0.1 -0.1)">
       <use transform="translate(0 0.09375)" xlink:href="#DejaVuSans-49"/>
      </g>
     </g>
    </g>
    <g id="ytick_11">
     <g id="line2d_84">
      <path clip-path="url(#p4e8eb80c88)" d="M 47.461777 431.641169 
L 559.019542 431.641169 
" style="fill:none;stroke:#b0b0b0;stroke-linecap:square;stroke-width:0.8;"/>
     </g>
     <g id="line2d_85">
      <g>
       <use style="stroke:#000000;stroke-width:0.8;" x="47.461777" xlink:href="#m4eb7754980" y="431.641169"/>
      </g>
     </g>
     <g id="text_48">
      <!-- $\mathdefault{2}$ -->
      <g transform="translate(34.061777 435.440388)scale(0.1 -0.1)">
       <use transform="translate(0 0.78125)" xlink:href="#DejaVuSans-50"/>
      </g>
     </g>
    </g>
    <g id="ytick_12">
     <g id="line2d_86">
      <path clip-path="url(#p4e8eb80c88)" d="M 47.461777 401.001982 
L 559.019542 401.001982 
" style="fill:none;stroke:#b0b0b0;stroke-linecap:square;stroke-width:0.8;"/>
     </g>
     <g id="line2d_87">
      <g>
       <use style="stroke:#000000;stroke-width:0.8;" x="47.461777" xlink:href="#m4eb7754980" y="401.001982"/>
      </g>
     </g>
     <g id="text_49">
      <!-- $\mathdefault{3}$ -->
      <g transform="translate(34.061777 404.801201)scale(0.1 -0.1)">
       <use transform="translate(0 0.78125)" xlink:href="#DejaVuSans-51"/>
      </g>
     </g>
    </g>
    <g id="text_50">
     <!-- vel. [rad/s] -->
     <g transform="translate(27.98209 468.1975)rotate(-90)scale(0.1 -0.1)">
      <use xlink:href="#DejaVuSans-118"/>
      <use x="59.179688" xlink:href="#DejaVuSans-101"/>
      <use x="120.703125" xlink:href="#DejaVuSans-108"/>
      <use x="148.486328" xlink:href="#DejaVuSans-46"/>
      <use x="180.273438" xlink:href="#DejaVuSans-32"/>
      <use x="212.060547" xlink:href="#DejaVuSans-91"/>
      <use x="251.074219" xlink:href="#DejaVuSans-114"/>
      <use x="292.1875" xlink:href="#DejaVuSans-97"/>
      <use x="353.466797" xlink:href="#DejaVuSans-100"/>
      <use x="416.943359" xlink:href="#DejaVuSans-47"/>
      <use x="450.634766" xlink:href="#DejaVuSans-115"/>
      <use x="502.734375" xlink:href="#DejaVuSans-93"/>
     </g>
    </g>
    <g id="text_51">
     <!-- $\times\mathdefault{10^{1}}\mathdefault{}$ -->
     <g transform="translate(47.461777 378.48)scale(0.1 -0.1)">
      <use transform="translate(0 0.684375)" xlink:href="#DejaVuSans-215"/>
      <use transform="translate(83.789062 0.684375)" xlink:href="#DejaVuSans-49"/>
      <use transform="translate(147.412109 0.684375)" xlink:href="#DejaVuSans-48"/>
      <use transform="translate(211.992188 38.965625)scale(0.7)" xlink:href="#DejaVuSans-49"/>
     </g>
    </g>
   </g>
   <g id="line2d_88">
    <path clip-path="url(#p4e8eb80c88)" d="M 70.714403 492.919543 
L 73.93276 492.734732 
L 77.151116 492.180299 
L 80.369473 491.256243 
L 83.587829 489.962564 
L 86.806186 488.299276 
L 98.070433 481.830884 
L 99.679611 481.368845 
L 139.909068 458.267542 
L 141.518246 456.881425 
L 173.701811 438.504041 
L 176.920167 437.117924 
L 180.138524 436.101622 
L 183.35688 435.454829 
L 186.575237 435.177544 
L 202.667019 435.165901 
L 341.056349 435.198072 
L 344.274705 435.536942 
L 347.493062 436.24532 
L 350.711418 437.323206 
L 353.929775 438.770602 
L 358.757309 441.480025 
L 442.434578 489.448246 
L 445.652935 490.865342 
L 448.871291 491.912816 
L 452.089648 492.59068 
L 455.308004 492.898929 
L 464.963074 492.919543 
L 535.766917 492.919543 
L 535.766917 492.919543 
" style="fill:none;stroke:#1f77b4;stroke-linecap:square;stroke-width:2;"/>
   </g>
   <g id="line2d_89">
    <path clip-path="url(#p4e8eb80c88)" d="M 70.714403 492.919217 
L 73.93276 492.831178 
L 77.151116 491.95731 
L 80.369473 492.097521 
L 88.415364 491.820362 
L 90.024542 489.420487 
L 91.63372 487.76404 
L 93.242898 487.023859 
L 94.852077 485.351143 
L 96.461255 484.389226 
L 98.070433 482.690405 
L 99.679611 481.95675 
L 101.28879 480.50574 
L 102.897968 478.790619 
L 104.507146 477.887406 
L 107.725503 474.075647 
L 109.334681 472.627884 
L 117.380572 462.298004 
L 118.98975 460.781794 
L 120.598929 458.062259 
L 122.208107 455.881056 
L 125.426463 450.849795 
L 127.035642 448.798807 
L 130.253998 442.922824 
L 131.863176 441.53058 
L 133.472355 438.667654 
L 135.081533 434.937333 
L 138.299889 430.985491 
L 139.909068 428.204065 
L 141.518246 424.059809 
L 143.127424 421.438013 
L 144.736602 418.11213 
L 146.345781 414.479854 
L 147.954959 412.448476 
L 151.173315 407.893348 
L 152.782494 405.434553 
L 154.391672 402.27504 
L 156.00085 397.664455 
L 160.828385 388.378024 
L 162.437563 386.900909 
L 172.092633 386.900909 
L 173.701811 396.620885 
L 175.310989 388.166001 
L 176.920167 386.900909 
L 273.470862 386.900909 
L 275.08004 409.34105 
L 276.689219 444.432723 
L 278.298397 386.900909 
L 279.907575 418.216609 
L 281.516753 386.900909 
L 297.608536 386.900909 
L 299.217714 453.637654 
L 300.826892 412.510367 
L 304.045249 386.900909 
L 305.654427 386.900909 
L 307.263605 407.863934 
L 308.872784 386.900909 
L 315.309497 386.900909 
L 316.918675 469.859541 
L 318.527853 429.361614 
L 320.137031 404.081527 
L 321.74621 386.900909 
L 323.355388 386.900909 
L 324.964566 415.017878 
L 326.573744 425.060791 
L 328.182923 386.900909 
L 337.837992 386.900909 
L 339.44717 413.074435 
L 341.056349 386.900909 
L 415.078548 386.900909 
L 416.687726 388.192044 
L 418.296905 390.477728 
L 419.906083 394.410267 
L 421.515261 396.379754 
L 423.124439 399.011048 
L 424.733618 400.396858 
L 426.342796 401.593625 
L 429.561152 407.85076 
L 432.779509 411.062666 
L 435.997865 416.677603 
L 437.607044 418.770872 
L 442.434578 427.42154 
L 444.043757 429.827942 
L 445.652935 431.624624 
L 447.262113 434.634311 
L 448.871291 436.192927 
L 450.480469 437.917607 
L 452.089648 439.952355 
L 453.698826 441.256665 
L 455.308004 442.247843 
L 458.526361 446.917255 
L 460.135539 448.479241 
L 461.744717 448.974676 
L 463.353895 450.275923 
L 464.963074 452.903846 
L 466.572252 454.32244 
L 468.18143 455.567923 
L 471.399787 458.968873 
L 473.008965 459.653659 
L 474.618143 461.459839 
L 476.227321 463.465327 
L 477.8365 464.580471 
L 479.445678 466.351048 
L 481.054856 466.990151 
L 482.664034 469.018281 
L 484.273213 470.726906 
L 485.882391 471.597518 
L 487.491569 473.677827 
L 490.709926 475.520131 
L 492.319104 477.248304 
L 493.928282 478.506931 
L 495.53746 479.406865 
L 497.146639 480.606818 
L 498.755817 482.23716 
L 505.19253 486.932585 
L 506.801708 487.920576 
L 508.410886 488.615105 
L 510.020065 489.638944 
L 511.629243 491.073661 
L 514.847599 492.302945 
L 516.456778 492.961606 
L 521.284312 494.543046 
L 524.502669 494.826725 
L 534.157738 495.319091 
L 535.766917 495.315831 
L 535.766917 495.315831 
" style="fill:none;stroke:#ff7f0e;stroke-linecap:square;stroke-width:2;"/>
   </g>
   <g id="patch_15">
    <path d="M 47.461777 500.74 
L 47.461777 381.48 
" style="fill:none;stroke:#000000;stroke-linecap:square;stroke-linejoin:miter;stroke-width:0.8;"/>
   </g>
   <g id="patch_16">
    <path d="M 559.019542 500.74 
L 559.019542 381.48 
" style="fill:none;stroke:#000000;stroke-linecap:square;stroke-linejoin:miter;stroke-width:0.8;"/>
   </g>
   <g id="patch_17">
    <path d="M 47.461777 500.74 
L 559.019542 500.74 
" style="fill:none;stroke:#000000;stroke-linecap:square;stroke-linejoin:miter;stroke-width:0.8;"/>
   </g>
   <g id="patch_18">
    <path d="M 47.461777 381.48 
L 559.019542 381.48 
" style="fill:none;stroke:#000000;stroke-linecap:square;stroke-linejoin:miter;stroke-width:0.8;"/>
   </g>
   <g id="text_52">
    <!-- Rotational Velocity -->
    <g transform="translate(247.359097 375.48)scale(0.12 -0.12)">
     <use xlink:href="#DejaVuSans-82"/>
     <use x="64.982422" xlink:href="#DejaVuSans-111"/>
     <use x="126.164062" xlink:href="#DejaVuSans-116"/>
     <use x="165.373047" xlink:href="#DejaVuSans-97"/>
     <use x="226.652344" xlink:href="#DejaVuSans-116"/>
     <use x="265.861328" xlink:href="#DejaVuSans-105"/>
     <use x="293.644531" xlink:href="#DejaVuSans-111"/>
     <use x="354.826172" xlink:href="#DejaVuSans-110"/>
     <use x="418.205078" xlink:href="#DejaVuSans-97"/>
     <use x="479.484375" xlink:href="#DejaVuSans-108"/>
     <use x="507.267578" xlink:href="#DejaVuSans-32"/>
     <use x="539.054688" xlink:href="#DejaVuSans-86"/>
     <use x="599.712891" xlink:href="#DejaVuSans-101"/>
     <use x="661.236328" xlink:href="#DejaVuSans-108"/>
     <use x="689.019531" xlink:href="#DejaVuSans-111"/>
     <use x="750.201172" xlink:href="#DejaVuSans-99"/>
     <use x="805.181641" xlink:href="#DejaVuSans-105"/>
     <use x="832.964844" xlink:href="#DejaVuSans-116"/>
     <use x="872.173828" xlink:href="#DejaVuSans-121"/>
    </g>
   </g>
   <g id="legend_3">
    <g id="patch_19">
     <path d="M 469.502355 418.83625 
L 552.019542 418.83625 
Q 554.019542 418.83625 554.019542 416.83625 
L 554.019542 388.48 
Q 554.019542 386.48 552.019542 386.48 
L 469.502355 386.48 
Q 467.502355 386.48 467.502355 388.48 
L 467.502355 416.83625 
Q 467.502355 418.83625 469.502355 418.83625 
z
" style="fill:#ffffff;opacity:0.8;stroke:#cccccc;stroke-linejoin:miter;"/>
    </g>
    <g id="line2d_90">
     <path d="M 471.502355 394.578438 
L 491.502355 394.578438 
" style="fill:none;stroke:#1f77b4;stroke-linecap:square;stroke-width:2;"/>
    </g>
    <g id="line2d_91"/>
    <g id="text_53">
     <!-- Reference -->
     <g transform="translate(499.502355 398.078438)scale(0.1 -0.1)">
      <use xlink:href="#DejaVuSans-82"/>
      <use x="64.982422" xlink:href="#DejaVuSans-101"/>
      <use x="126.505859" xlink:href="#DejaVuSans-102"/>
      <use x="161.710938" xlink:href="#DejaVuSans-101"/>
      <use x="223.234375" xlink:href="#DejaVuSans-114"/>
      <use x="262.097656" xlink:href="#DejaVuSans-101"/>
      <use x="323.621094" xlink:href="#DejaVuSans-110"/>
      <use x="387" xlink:href="#DejaVuSans-99"/>
      <use x="441.980469" xlink:href="#DejaVuSans-101"/>
     </g>
    </g>
    <g id="line2d_92">
     <path d="M 471.502355 409.256563 
L 491.502355 409.256563 
" style="fill:none;stroke:#ff7f0e;stroke-linecap:square;stroke-width:2;"/>
    </g>
    <g id="line2d_93"/>
    <g id="text_54">
     <!-- Estimated -->
     <g transform="translate(499.502355 412.756563)scale(0.1 -0.1)">
      <use xlink:href="#DejaVuSans-69"/>
      <use x="63.183594" xlink:href="#DejaVuSans-115"/>
      <use x="115.283203" xlink:href="#DejaVuSans-116"/>
      <use x="154.492188" xlink:href="#DejaVuSans-105"/>
      <use x="182.275391" xlink:href="#DejaVuSans-109"/>
      <use x="279.6875" xlink:href="#DejaVuSans-97"/>
      <use x="340.966797" xlink:href="#DejaVuSans-116"/>
      <use x="380.175781" xlink:href="#DejaVuSans-101"/>
      <use x="441.699219" xlink:href="#DejaVuSans-100"/>
     </g>
    </g>
   </g>
  </g>
  <g id="axes_4">
   <g id="patch_20">
    <path d="M 47.461777 678.04 
L 559.019542 678.04 
L 559.019542 558.78 
L 47.461777 558.78 
z
" style="fill:#ffffff;"/>
   </g>
   <g id="matplotlib.axis_7">
    <g id="xtick_22">
     <g id="line2d_94">
      <path clip-path="url(#pc7e77767f0)" d="M 70.714403 678.04 
L 70.714403 558.78 
" style="fill:none;stroke:#b0b0b0;stroke-linecap:square;stroke-width:0.8;"/>
     </g>
     <g id="line2d_95">
      <g>
       <use style="stroke:#000000;stroke-width:0.8;" x="70.714403" xlink:href="#m055b1985a6" y="678.04"/>
      </g>
     </g>
     <g id="text_55">
      <!-- 0.00 -->
      <g transform="translate(59.581591 692.638438)scale(0.1 -0.1)">
       <use xlink:href="#DejaVuSans-48"/>
       <use x="63.623047" xlink:href="#DejaVuSans-46"/>
       <use x="95.410156" xlink:href="#DejaVuSans-48"/>
       <use x="159.033203" xlink:href="#DejaVuSans-48"/>
      </g>
     </g>
    </g>
    <g id="xtick_23">
     <g id="line2d_96">
      <path clip-path="url(#pc7e77767f0)" d="M 151.173315 678.04 
L 151.173315 558.78 
" style="fill:none;stroke:#b0b0b0;stroke-linecap:square;stroke-width:0.8;"/>
     </g>
     <g id="line2d_97">
      <g>
       <use style="stroke:#000000;stroke-width:0.8;" x="151.173315" xlink:href="#m055b1985a6" y="678.04"/>
      </g>
     </g>
     <g id="text_56">
      <!-- 0.05 -->
      <g transform="translate(140.040503 692.638438)scale(0.1 -0.1)">
       <use xlink:href="#DejaVuSans-48"/>
       <use x="63.623047" xlink:href="#DejaVuSans-46"/>
       <use x="95.410156" xlink:href="#DejaVuSans-48"/>
       <use x="159.033203" xlink:href="#DejaVuSans-53"/>
      </g>
     </g>
    </g>
    <g id="xtick_24">
     <g id="line2d_98">
      <path clip-path="url(#pc7e77767f0)" d="M 231.632228 678.04 
L 231.632228 558.78 
" style="fill:none;stroke:#b0b0b0;stroke-linecap:square;stroke-width:0.8;"/>
     </g>
     <g id="line2d_99">
      <g>
       <use style="stroke:#000000;stroke-width:0.8;" x="231.632228" xlink:href="#m055b1985a6" y="678.04"/>
      </g>
     </g>
     <g id="text_57">
      <!-- 0.10 -->
      <g transform="translate(220.499415 692.638438)scale(0.1 -0.1)">
       <use xlink:href="#DejaVuSans-48"/>
       <use x="63.623047" xlink:href="#DejaVuSans-46"/>
       <use x="95.410156" xlink:href="#DejaVuSans-49"/>
       <use x="159.033203" xlink:href="#DejaVuSans-48"/>
      </g>
     </g>
    </g>
    <g id="xtick_25">
     <g id="line2d_100">
      <path clip-path="url(#pc7e77767f0)" d="M 312.09114 678.04 
L 312.09114 558.78 
" style="fill:none;stroke:#b0b0b0;stroke-linecap:square;stroke-width:0.8;"/>
     </g>
     <g id="line2d_101">
      <g>
       <use style="stroke:#000000;stroke-width:0.8;" x="312.09114" xlink:href="#m055b1985a6" y="678.04"/>
      </g>
     </g>
     <g id="text_58">
      <!-- 0.15 -->
      <g transform="translate(300.958328 692.638438)scale(0.1 -0.1)">
       <use xlink:href="#DejaVuSans-48"/>
       <use x="63.623047" xlink:href="#DejaVuSans-46"/>
       <use x="95.410156" xlink:href="#DejaVuSans-49"/>
       <use x="159.033203" xlink:href="#DejaVuSans-53"/>
      </g>
     </g>
    </g>
    <g id="xtick_26">
     <g id="line2d_102">
      <path clip-path="url(#pc7e77767f0)" d="M 392.550053 678.04 
L 392.550053 558.78 
" style="fill:none;stroke:#b0b0b0;stroke-linecap:square;stroke-width:0.8;"/>
     </g>
     <g id="line2d_103">
      <g>
       <use style="stroke:#000000;stroke-width:0.8;" x="392.550053" xlink:href="#m055b1985a6" y="678.04"/>
      </g>
     </g>
     <g id="text_59">
      <!-- 0.20 -->
      <g transform="translate(381.41724 692.638438)scale(0.1 -0.1)">
       <use xlink:href="#DejaVuSans-48"/>
       <use x="63.623047" xlink:href="#DejaVuSans-46"/>
       <use x="95.410156" xlink:href="#DejaVuSans-50"/>
       <use x="159.033203" xlink:href="#DejaVuSans-48"/>
      </g>
     </g>
    </g>
    <g id="xtick_27">
     <g id="line2d_104">
      <path clip-path="url(#pc7e77767f0)" d="M 473.008965 678.04 
L 473.008965 558.78 
" style="fill:none;stroke:#b0b0b0;stroke-linecap:square;stroke-width:0.8;"/>
     </g>
     <g id="line2d_105">
      <g>
       <use style="stroke:#000000;stroke-width:0.8;" x="473.008965" xlink:href="#m055b1985a6" y="678.04"/>
      </g>
     </g>
     <g id="text_60">
      <!-- 0.25 -->
      <g transform="translate(461.876152 692.638438)scale(0.1 -0.1)">
       <use xlink:href="#DejaVuSans-48"/>
       <use x="63.623047" xlink:href="#DejaVuSans-46"/>
       <use x="95.410156" xlink:href="#DejaVuSans-50"/>
       <use x="159.033203" xlink:href="#DejaVuSans-53"/>
      </g>
     </g>
    </g>
    <g id="xtick_28">
     <g id="line2d_106">
      <path clip-path="url(#pc7e77767f0)" d="M 553.467877 678.04 
L 553.467877 558.78 
" style="fill:none;stroke:#b0b0b0;stroke-linecap:square;stroke-width:0.8;"/>
     </g>
     <g id="line2d_107">
      <g>
       <use style="stroke:#000000;stroke-width:0.8;" x="553.467877" xlink:href="#m055b1985a6" y="678.04"/>
      </g>
     </g>
     <g id="text_61">
      <!-- 0.30 -->
      <g transform="translate(542.335065 692.638438)scale(0.1 -0.1)">
       <use xlink:href="#DejaVuSans-48"/>
       <use x="63.623047" xlink:href="#DejaVuSans-46"/>
       <use x="95.410156" xlink:href="#DejaVuSans-51"/>
       <use x="159.033203" xlink:href="#DejaVuSans-48"/>
      </g>
     </g>
    </g>
    <g id="text_62">
     <!-- Time [ms] -->
     <g transform="translate(278.041441 706.316563)scale(0.1 -0.1)">
      <use xlink:href="#DejaVuSans-84"/>
      <use x="57.958984" xlink:href="#DejaVuSans-105"/>
      <use x="85.742188" xlink:href="#DejaVuSans-109"/>
      <use x="183.154297" xlink:href="#DejaVuSans-101"/>
      <use x="244.677734" xlink:href="#DejaVuSans-32"/>
      <use x="276.464844" xlink:href="#DejaVuSans-91"/>
      <use x="315.478516" xlink:href="#DejaVuSans-109"/>
      <use x="412.890625" xlink:href="#DejaVuSans-115"/>
      <use x="464.990234" xlink:href="#DejaVuSans-93"/>
     </g>
    </g>
   </g>
   <g id="matplotlib.axis_8">
    <g id="ytick_13">
     <g id="line2d_108">
      <path clip-path="url(#pc7e77767f0)" d="M 47.461777 648.923773 
L 559.019542 648.923773 
" style="fill:none;stroke:#b0b0b0;stroke-linecap:square;stroke-width:0.8;"/>
     </g>
     <g id="line2d_109">
      <g>
       <use style="stroke:#000000;stroke-width:0.8;" x="47.461777" xlink:href="#m4eb7754980" y="648.923773"/>
      </g>
     </g>
     <g id="text_63">
      <!-- $\mathdefault{0}$ -->
      <g transform="translate(34.061777 652.722992)scale(0.1 -0.1)">
       <use transform="translate(0 0.78125)" xlink:href="#DejaVuSans-48"/>
      </g>
     </g>
    </g>
    <g id="ytick_14">
     <g id="line2d_110">
      <path clip-path="url(#pc7e77767f0)" d="M 47.461777 610.176494 
L 559.019542 610.176494 
" style="fill:none;stroke:#b0b0b0;stroke-linecap:square;stroke-width:0.8;"/>
     </g>
     <g id="line2d_111">
      <g>
       <use style="stroke:#000000;stroke-width:0.8;" x="47.461777" xlink:href="#m4eb7754980" y="610.176494"/>
      </g>
     </g>
     <g id="text_64">
      <!-- $\mathdefault{2}$ -->
      <g transform="translate(34.061777 613.975712)scale(0.1 -0.1)">
       <use transform="translate(0 0.78125)" xlink:href="#DejaVuSans-50"/>
      </g>
     </g>
    </g>
    <g id="ytick_15">
     <g id="line2d_112">
      <path clip-path="url(#pc7e77767f0)" d="M 47.461777 571.429214 
L 559.019542 571.429214 
" style="fill:none;stroke:#b0b0b0;stroke-linecap:square;stroke-width:0.8;"/>
     </g>
     <g id="line2d_113">
      <g>
       <use style="stroke:#000000;stroke-width:0.8;" x="47.461777" xlink:href="#m4eb7754980" y="571.429214"/>
      </g>
     </g>
     <g id="text_65">
      <!-- $\mathdefault{4}$ -->
      <g transform="translate(34.061777 575.228433)scale(0.1 -0.1)">
       <use transform="translate(0 0.09375)" xlink:href="#DejaVuSans-52"/>
      </g>
     </g>
    </g>
    <g id="text_66">
     <!-- pwm input -->
     <g transform="translate(27.98209 644.993594)rotate(-90)scale(0.1 -0.1)">
      <use xlink:href="#DejaVuSans-112"/>
      <use x="63.476562" xlink:href="#DejaVuSans-119"/>
      <use x="145.263672" xlink:href="#DejaVuSans-109"/>
      <use x="242.675781" xlink:href="#DejaVuSans-32"/>
      <use x="274.462891" xlink:href="#DejaVuSans-105"/>
      <use x="302.246094" xlink:href="#DejaVuSans-110"/>
      <use x="365.625" xlink:href="#DejaVuSans-112"/>
      <use x="429.101562" xlink:href="#DejaVuSans-117"/>
      <use x="492.480469" xlink:href="#DejaVuSans-116"/>
     </g>
    </g>
    <g id="text_67">
     <!-- $\times\mathdefault{10^{−1}}\mathdefault{}$ -->
     <g transform="translate(47.461777 555.78)scale(0.1 -0.1)">
      <use transform="translate(0 0.684375)" xlink:href="#DejaVuSans-215"/>
      <use transform="translate(83.789062 0.684375)" xlink:href="#DejaVuSans-49"/>
      <use transform="translate(147.412109 0.684375)" xlink:href="#DejaVuSans-48"/>
      <use transform="translate(211.992188 38.965625)scale(0.7)" xlink:href="#DejaVuSans-8722"/>
      <use transform="translate(270.644531 38.965625)scale(0.7)" xlink:href="#DejaVuSans-49"/>
     </g>
    </g>
   </g>
   <g id="line2d_114">
    <path clip-path="url(#pc7e77767f0)" d="M 70.714403 648.923773 
L 73.93276 642.886056 
L 77.151116 636.458812 
L 80.369473 629.642023 
L 83.587829 622.435745 
L 86.806186 614.839923 
L 98.070433 608.023114 
L 99.679611 607.536254 
L 139.909068 583.190563 
L 141.518246 581.729791 
L 170.483454 564.200909 
L 172.092633 564.700168 
L 175.310989 568.887586 
L 178.529346 573.464609 
L 181.747702 578.431041 
L 184.966059 583.787271 
L 186.575237 586.611367 
L 188.184415 588.05974 
L 339.44717 588.05974 
L 341.056349 590.526973 
L 344.274705 596.726732 
L 347.493062 603.316288 
L 350.711418 610.29506 
L 353.929775 617.663437 
L 355.538953 621.493799 
L 357.148131 622.954572 
L 402.205122 650.221367 
L 403.8143 650.708275 
L 405.423479 652.168994 
L 439.216222 672.619091 
L 440.8254 672.617154 
L 444.043757 668.462476 
L 447.262113 663.918157 
L 450.480469 658.984427 
L 453.698826 653.661151 
L 455.308004 650.853456 
L 456.917182 648.923773 
L 535.766917 648.923773 
L 535.766917 648.923773 
" style="fill:none;stroke:#1f77b4;stroke-linecap:square;stroke-width:2;"/>
   </g>
   <g id="line2d_115">
    <path clip-path="url(#pc7e77767f0)" d="M 70.714403 648.923773 
L 535.766917 648.923773 
L 535.766917 648.923773 
" style="fill:none;stroke:#ff7f0e;stroke-linecap:square;stroke-width:2;"/>
   </g>
   <g id="line2d_116">
    <path clip-path="url(#pc7e77767f0)" d="M 70.714403 648.923773 
L 535.766917 648.923773 
L 535.766917 648.923773 
" style="fill:none;stroke:#2ca02c;stroke-linecap:square;stroke-width:2;"/>
   </g>
   <g id="line2d_117">
    <path clip-path="url(#pc7e77767f0)" d="M 70.714403 648.923773 
L 535.766917 648.923773 
L 535.766917 648.923773 
" style="fill:none;stroke:#d62728;stroke-linecap:square;stroke-width:2;"/>
   </g>
   <g id="line2d_118">
    <path clip-path="url(#pc7e77767f0)" d="M 70.714403 648.923773 
L 73.93276 642.886056 
L 77.151116 636.458812 
L 80.369473 629.642023 
L 83.587829 622.435745 
L 86.806186 614.839923 
L 98.070433 608.023114 
L 99.679611 607.536254 
L 139.909068 583.190563 
L 141.518246 581.729791 
L 170.483454 564.200909 
L 172.092633 564.700168 
L 175.310989 568.887586 
L 178.529346 573.464609 
L 181.747702 578.431041 
L 184.966059 583.787271 
L 186.575237 586.611367 
L 188.184415 588.05974 
L 339.44717 588.05974 
L 341.056349 590.526973 
L 344.274705 596.726732 
L 347.493062 603.316288 
L 350.711418 610.29506 
L 353.929775 617.663437 
L 355.538953 621.493799 
L 357.148131 622.954572 
L 402.205122 650.221367 
L 403.8143 650.708275 
L 405.423479 652.168994 
L 439.216222 672.619091 
L 440.8254 672.617154 
L 444.043757 668.462476 
L 447.262113 663.918157 
L 450.480469 658.984427 
L 453.698826 653.661151 
L 455.308004 650.853456 
L 456.917182 648.923773 
L 535.766917 648.923773 
L 535.766917 648.923773 
" style="fill:none;stroke:#9467bd;stroke-linecap:square;stroke-width:2;"/>
   </g>
   <g id="patch_21">
    <path d="M 47.461777 678.04 
L 47.461777 558.78 
" style="fill:none;stroke:#000000;stroke-linecap:square;stroke-linejoin:miter;stroke-width:0.8;"/>
   </g>
   <g id="patch_22">
    <path d="M 559.019542 678.04 
L 559.019542 558.78 
" style="fill:none;stroke:#000000;stroke-linecap:square;stroke-linejoin:miter;stroke-width:0.8;"/>
   </g>
   <g id="patch_23">
    <path d="M 47.461777 678.04 
L 559.019542 678.04 
" style="fill:none;stroke:#000000;stroke-linecap:square;stroke-linejoin:miter;stroke-width:0.8;"/>
   </g>
   <g id="patch_24">
    <path d="M 47.461777 558.78 
L 559.019542 558.78 
" style="fill:none;stroke:#000000;stroke-linecap:square;stroke-linejoin:miter;stroke-width:0.8;"/>
   </g>
   <g id="text_68">
    <!-- Rotational PWM Input -->
    <g transform="translate(238.727535 552.78)scale(0.12 -0.12)">
     <use xlink:href="#DejaVuSans-82"/>
     <use x="64.982422" xlink:href="#DejaVuSans-111"/>
     <use x="126.164062" xlink:href="#DejaVuSans-116"/>
     <use x="165.373047" xlink:href="#DejaVuSans-97"/>
     <use x="226.652344" xlink:href="#DejaVuSans-116"/>
     <use x="265.861328" xlink:href="#DejaVuSans-105"/>
     <use x="293.644531" xlink:href="#DejaVuSans-111"/>
     <use x="354.826172" xlink:href="#DejaVuSans-110"/>
     <use x="418.205078" xlink:href="#DejaVuSans-97"/>
     <use x="479.484375" xlink:href="#DejaVuSans-108"/>
     <use x="507.267578" xlink:href="#DejaVuSans-32"/>
     <use x="539.054688" xlink:href="#DejaVuSans-80"/>
     <use x="599.357422" xlink:href="#DejaVuSans-87"/>
     <use x="698.234375" xlink:href="#DejaVuSans-77"/>
     <use x="784.513672" xlink:href="#DejaVuSans-32"/>
     <use x="816.300781" xlink:href="#DejaVuSans-73"/>
     <use x="845.792969" xlink:href="#DejaVuSans-110"/>
     <use x="909.171875" xlink:href="#DejaVuSans-112"/>
     <use x="972.648438" xlink:href="#DejaVuSans-117"/>
     <use x="1036.027344" xlink:href="#DejaVuSans-116"/>
    </g>
   </g>
   <g id="legend_4">
    <g id="patch_25">
     <path d="M 230.700792 581.458125 
L 552.019542 581.458125 
Q 554.019542 581.458125 554.019542 579.458125 
L 554.019542 565.78 
Q 554.019542 563.78 552.019542 563.78 
L 230.700792 563.78 
Q 228.700792 563.78 228.700792 565.78 
L 228.700792 579.458125 
Q 228.700792 581.458125 230.700792 581.458125 
z
" style="fill:#ffffff;opacity:0.8;stroke:#cccccc;stroke-linejoin:miter;"/>
    </g>
    <g id="line2d_119">
     <path d="M 232.700792 571.878438 
L 252.700792 571.878438 
" style="fill:none;stroke:#1f77b4;stroke-linecap:square;stroke-width:2;"/>
    </g>
    <g id="line2d_120"/>
    <g id="text_69">
     <!-- FF -->
     <g transform="translate(260.700792 575.378438)scale(0.1 -0.1)">
      <use xlink:href="#DejaVuSans-70"/>
      <use x="57.519531" xlink:href="#DejaVuSans-70"/>
     </g>
    </g>
    <g id="line2d_121">
     <path d="M 292.203917 571.878438 
L 312.203917 571.878438 
" style="fill:none;stroke:#ff7f0e;stroke-linecap:square;stroke-width:2;"/>
    </g>
    <g id="line2d_122"/>
    <g id="text_70">
     <!-- FB -->
     <g transform="translate(320.203917 575.378438)scale(0.1 -0.1)">
      <use xlink:href="#DejaVuSans-70"/>
      <use x="57.519531" xlink:href="#DejaVuSans-66"/>
     </g>
    </g>
    <g id="line2d_123">
     <path d="M 352.816417 571.878438 
L 372.816417 571.878438 
" style="fill:none;stroke:#2ca02c;stroke-linecap:square;stroke-width:2;"/>
    </g>
    <g id="line2d_124"/>
    <g id="text_71">
     <!-- FB p -->
     <g transform="translate(380.816417 575.378438)scale(0.1 -0.1)">
      <use xlink:href="#DejaVuSans-70"/>
      <use x="57.519531" xlink:href="#DejaVuSans-66"/>
      <use x="126.123047" xlink:href="#DejaVuSans-32"/>
      <use x="157.910156" xlink:href="#DejaVuSans-112"/>
     </g>
    </g>
    <g id="line2d_125">
     <path d="M 422.95548 571.878438 
L 442.95548 571.878438 
" style="fill:none;stroke:#d62728;stroke-linecap:square;stroke-width:2;"/>
    </g>
    <g id="line2d_126"/>
    <g id="text_72">
     <!-- FB i -->
     <g transform="translate(450.95548 575.378438)scale(0.1 -0.1)">
      <use xlink:href="#DejaVuSans-70"/>
      <use x="57.519531" xlink:href="#DejaVuSans-66"/>
      <use x="126.123047" xlink:href="#DejaVuSans-32"/>
      <use x="157.910156" xlink:href="#DejaVuSans-105"/>
     </g>
    </g>
    <g id="line2d_127">
     <path d="M 489.52423 571.878438 
L 509.52423 571.878438 
" style="fill:none;stroke:#9467bd;stroke-linecap:square;stroke-width:2;"/>
    </g>
    <g id="line2d_128"/>
    <g id="text_73">
     <!-- FF+FB -->
     <g transform="translate(517.52423 575.378438)scale(0.1 -0.1)">
      <use xlink:href="#DejaVuSans-70"/>
      <use x="57.519531" xlink:href="#DejaVuSans-70"/>
      <use x="115.039062" xlink:href="#DejaVuSans-43"/>
      <use x="198.828125" xlink:href="#DejaVuSans-70"/>
      <use x="256.347656" xlink:href="#DejaVuSans-66"/>
     </g>
    </g>
   </g>
  </g>
 </g>
 <defs>
  <clipPath id="pbffc051aee">
   <rect height="119.26" width="511.557765" x="47.461777" y="26.88"/>
  </clipPath>
  <clipPath id="p69c9a27cec">
   <rect height="119.26" width="511.557765" x="47.461777" y="204.18"/>
  </clipPath>
  <clipPath id="p4e8eb80c88">
   <rect height="119.26" width="511.557765" x="47.461777" y="381.48"/>
  </clipPath>
  <clipPath id="pc7e77767f0">
   <rect height="119.26" width="511.557765" x="47.461777" y="558.78"/>
  </clipPath>
 </defs>
</svg>
